<?xml version="1.0" encoding="UTF-8" standalone="no"?><!DOCTYPE svg PUBLIC "-//W3C//DTD SVG 1.1//EN" "http://www.w3.org/Graphics/SVG/1.1/DTD/svg11.dtd"><svg width="100%" height="100%" viewBox="0 0 363 328" version="1.1" xmlns="http://www.w3.org/2000/svg" xmlns:xlink="http://www.w3.org/1999/xlink" xml:space="preserve" xmlns:serif="http://www.serif.com/" style="fill-rule:evenodd;clip-rule:evenodd;stroke-linejoin:round;stroke-miterlimit:2;"><g id="_3-clover" serif:id="3 clover"><path d="M181.458,33.099c18.56,-33.092 55.681,-33.092 74.241,-17.235c18.561,15.857 18.561,47.572 0,79.287c-12.992,23.786 -46.401,47.572 -74.241,63.429c-27.84,-15.857 -61.249,-39.643 -74.241,-63.429c-18.56,-31.715 -18.56,-63.43 -0,-79.287c18.56,-15.857 55.681,-15.857 74.241,17.235Z" style="fill:#68af23;"/><path d="M290.134,219.157c19.379,32.62 0.819,64.767 -22.194,72.912c-23.013,8.146 -50.479,-7.712 -68.664,-39.643c-14.104,-23.145 -17.999,-63.97 -17.811,-96.01c27.653,-16.182 64.956,-33.221 92.052,-32.58c36.746,-0.216 64.211,15.641 68.664,39.644c4.453,24.002 -14.107,56.149 -52.047,55.677Z" style="fill:#68af23;"/><path d="M72.782,219.157c-19.379,32.62 -0.818,64.767 22.195,72.912c23.013,8.146 50.479,-7.712 68.664,-39.643c14.103,-23.145 17.998,-63.97 17.811,-96.01c-27.653,-16.182 -64.957,-33.221 -92.052,-32.58c-36.746,-0.216 -64.212,15.641 -68.664,39.644c-4.453,24.002 14.107,56.149 52.046,55.677Z" style="fill:#68af23;"/><path d="M181.458,42.845c15.23,-28.567 45.691,-28.567 60.921,-14.878c15.231,13.688 15.231,41.066 -0,68.444c-10.661,20.533 -38.076,41.066 -60.921,54.755c-22.845,-13.689 -50.26,-34.222 -60.921,-54.755c-15.23,-27.378 -15.23,-54.756 0,-68.444c15.231,-13.689 45.691,-13.689 60.921,14.878Zm97.228,170.06c17.125,27.473 1.895,53.853 -17.575,60.198c-19.471,6.346 -43.18,-7.343 -59.275,-34.222c-12.451,-19.499 -16.527,-53.508 -16.959,-80.137c23.278,-12.94 54.767,-26.415 77.88,-25.381c31.325,0.499 55.035,14.188 59.274,34.222c4.24,20.034 -10.99,46.414 -43.345,45.32Zm-194.455,0c-32.355,1.094 -47.586,-25.286 -43.346,-45.32c4.24,-20.034 27.95,-33.723 59.275,-34.222c23.113,-1.034 54.602,12.441 77.88,25.381c-0.433,26.629 -4.508,60.638 -16.96,80.137c-16.094,26.879 -39.804,40.568 -59.274,34.222c-19.47,-6.345 -34.7,-32.725 -17.575,-60.198Z" style="fill:#6fbe22;"/><path d="M278.686,212.905c17.125,27.473 1.895,53.853 -17.575,60.198c-19.471,6.346 -43.18,-7.343 -59.275,-34.222c-12.451,-19.499 -16.527,-53.508 -16.959,-80.137l93.809,54.161Zm-194.455,0c-32.355,1.094 -47.586,-25.286 -43.346,-45.32c4.24,-20.034 27.95,-33.723 59.275,-34.222c23.113,-1.034 54.602,12.441 77.88,25.381l-93.809,54.161Zm97.227,-170.06c15.23,-28.567 45.691,-28.567 60.921,-14.878c15.231,13.688 15.231,41.066 -0,68.444c-10.661,20.533 -38.076,41.066 -60.921,54.755l0,-108.321Z" style="fill:#79c82c;"/><path d="M176.719,223.97c-2.729,11.217 -6.427,21.408 -11.339,29.479c-18.771,32.943 -47.328,48.928 -71.077,40.522c-23.246,-8.228 -42.273,-39.941 -24.939,-72.841c-37.159,-1.438 -55.11,-33.772 -50.612,-58.018c4.595,-24.77 32.716,-41.508 70.631,-41.293c15.344,-0.356 33.931,4.861 52.225,12.395c-15.261,-11.868 -28.651,-25.06 -35.854,-38.235c-19.046,-32.559 -18.684,-65.114 0.371,-81.393c18.715,-15.99 55.709,-16.512 75.333,15.201c19.625,-31.713 56.619,-31.191 75.334,-15.201c19.054,16.279 19.417,48.834 0.371,81.393c-7.203,13.175 -20.594,26.367 -35.855,38.235c18.295,-7.534 36.882,-12.751 52.226,-12.395c37.915,-0.215 66.036,16.523 70.631,41.293c4.498,24.246 -13.454,56.58 -50.612,58.018c17.333,32.9 -1.693,64.613 -24.94,72.841c-23.749,8.406 -52.305,-7.579 -71.076,-40.522c-4.862,-7.988 -8.535,-18.053 -11.255,-29.134c0.033,0.244 0.064,0.485 0.092,0.723c2.003,17.465 4.758,34.708 11.219,48.829c3.788,8.276 13.172,24.857 15.055,28.07c2.33,3.976 5.119,7.707 6.399,12.441c0.97,3.587 0.095,5.72 -1.157,7.581c-1.388,2.065 -3.541,3.503 -5.235,4.359c-4.852,2.451 -9.488,0.68 -11.074,-1.597c-2.472,-3.549 -3.529,-4.573 -8.008,-13.322c-0.747,-1.461 -3.434,-7.24 -4.996,-11.417c-1.56,-4.174 -3.545,-9.111 -6.121,-18.374c-1.543,-5.545 -3.159,-12.418 -3.831,-17.292c-1.114,-8.066 -1.354,-14.543 -1.632,-17.804c-0.293,-3.433 -0.395,-7.032 -0.51,-11.288c-0.068,-2.555 -0.071,-5.777 0.054,-8.381c0.045,-0.947 0.107,-1.907 0.182,-2.873Zm4.739,-189.19c-0.608,0 -1.169,-0.328 -1.466,-0.858c-17.929,-31.966 -53.755,-32.097 -71.683,-16.78c-18.062,15.432 -17.703,46.295 0.359,77.16c0.008,0.014 0.017,0.028 0.025,0.043c8.902,16.299 49.634,50.076 49.634,50.076c-0,-0 -48.9,-19.041 -68.879,-18.568c-0.02,0.001 -0.04,0.001 -0.06,0.001c-35.563,-0.209 -62.359,14.764 -66.669,37.994c-4.27,23.021 13.649,53.745 50.038,53.291c0.73,-0.009 1.408,0.377 1.772,1.009c0.365,0.632 0.36,1.412 -0.012,2.039c-18.587,31.287 -0.94,62.168 21.133,69.98c22.273,7.884 48.638,-7.836 66.238,-38.74c0.01,-0.017 0.02,-0.034 0.03,-0.051c10.864,-17.829 17.121,-46.28 18.571,-72.961c0.125,-2.3 0.969,-19.835 0.969,-19.835c0,0 0.845,17.535 0.97,19.835c1.45,26.681 7.707,55.132 18.571,72.961c0.01,0.017 0.02,0.034 0.03,0.051c17.6,30.904 43.965,46.624 66.238,38.74c22.073,-7.812 39.72,-38.693 21.133,-69.98c-0.373,-0.627 -0.378,-1.407 -0.013,-2.039c0.365,-0.632 1.043,-1.018 1.773,-1.009c36.388,0.454 54.308,-30.27 50.037,-53.291c-4.309,-23.23 -31.105,-38.203 -66.668,-37.994c-0.02,0 -0.04,-0 -0.06,-0.001c-19.979,-0.473 -68.879,18.568 -68.879,18.568c-0,-0 40.732,-33.777 49.634,-50.076c0.008,-0.015 0.016,-0.029 0.025,-0.043c18.062,-30.865 18.421,-61.728 0.359,-77.16c-17.929,-15.317 -53.755,-15.186 -71.683,16.78c-0.297,0.53 -0.859,0.858 -1.467,0.858Z" style="fill:#018f35;"/></g></svg>