<?xml version="1.0" encoding="UTF-8" standalone="no"?><!DOCTYPE svg PUBLIC "-//W3C//DTD SVG 1.1//EN" "http://www.w3.org/Graphics/SVG/1.1/DTD/svg11.dtd"><svg width="100%" height="100%" viewBox="0 0 352 417" version="1.1" xmlns="http://www.w3.org/2000/svg" xmlns:xlink="http://www.w3.org/1999/xlink" xml:space="preserve" xmlns:serif="http://www.serif.com/" style="fill-rule:evenodd;clip-rule:evenodd;stroke-linejoin:round;stroke-miterlimit:2;"><g id="_4-clover" serif:id="4 clover"><path d="M175.92,89.965c0.001,-10.534 1.042,-20.366 3.509,-28.772c9.837,-37.599 33.555,-61.318 59.296,-59.296c25.739,2.022 53.501,29.783 42.632,68.412c38.63,-10.868 66.391,16.893 68.412,42.633c2.022,25.74 -21.697,49.458 -59.296,59.296c-4.397,1.291 -9.185,2.191 -14.26,2.756c-4.627,0.516 -9.492,0.752 -14.516,0.752c10.536,0 20.369,1.041 28.776,3.508c37.599,9.838 61.318,33.557 59.296,59.296c-2.021,25.74 -29.782,53.502 -68.412,42.633c10.869,38.63 -16.893,66.391 -42.632,68.412c-25.741,2.022 -49.459,-21.696 -59.296,-59.296c-2.468,-8.407 -3.509,-18.24 -3.509,-28.776c0,10.536 -1.041,20.369 -3.508,28.776c-9.837,37.6 -33.556,61.318 -59.296,59.296c-25.74,-2.021 -53.501,-29.782 -42.633,-68.412c-38.629,10.869 -66.39,-16.893 -68.412,-42.633c-2.021,-25.739 21.697,-49.458 59.296,-59.296c4.398,-1.29 9.186,-2.191 14.261,-2.756c4.626,-0.515 9.491,-0.752 14.516,-0.752c-10.536,0 -20.37,-1.041 -28.777,-3.508c-37.599,-9.838 -61.317,-33.556 -59.296,-59.296c2.022,-25.74 29.783,-53.501 68.412,-42.633c-10.868,-38.629 16.893,-66.39 42.633,-68.412c25.74,-2.022 49.459,21.697 59.296,59.296c2.467,8.406 3.508,18.238 3.508,28.772Z" style="fill:#68af23;"/><path d="M140.148,175.746c0,0 -47.027,-4.217 -64.938,-9.783c-31.87,-8.9 -52.255,-29.284 -50.963,-50.962c1.293,-21.677 24.262,-44.647 57.018,-34.861c-9.786,-32.756 13.184,-55.725 34.861,-57.018c21.677,-1.292 42.062,19.093 50.962,50.963c5.623,18.095 8.832,65.889 8.832,65.889c0,0 2.519,-47.846 8.127,-65.889c8.9,-31.87 29.285,-52.255 50.962,-50.963c21.677,1.293 44.647,24.262 34.861,57.018c32.755,-9.786 55.725,13.184 57.017,34.861c1.293,21.678 -19.092,42.062 -50.962,50.962c-17.719,5.507 -64.232,9.783 -64.232,9.783c-0,0 46.596,3.213 64.232,8.693c31.87,8.9 52.255,29.285 50.962,50.963c-1.292,21.677 -24.262,44.646 -57.017,34.861c9.786,32.755 -13.184,55.725 -34.861,57.017c-21.677,1.292 -42.062,-19.092 -50.962,-50.962c-5.516,-17.75 -8.127,-64.8 -8.127,-64.8c0,0 -3.301,47.001 -8.832,64.8c-8.9,31.87 -29.285,52.254 -50.962,50.962c-21.677,-1.292 -44.647,-24.262 -34.861,-57.017c-32.756,9.785 -55.725,-13.184 -57.018,-34.861c-1.292,-21.678 19.093,-42.063 50.963,-50.963c17.826,-5.539 64.938,-8.693 64.938,-8.693Z" style="fill:#6fbe22;"/><path d="M175.92,175.201l93.95,-95.061c32.755,-9.786 55.725,13.184 57.017,34.861c1.293,21.678 -19.092,42.062 -50.962,50.962c-13.972,4.342 -45.846,7.919 -58.704,9.238l-5.528,0.545c-11.924,0.099 -23.849,-0.043 -35.773,-0.545Zm93.95,95.062c9.786,32.755 -13.184,55.725 -34.861,57.017c-21.677,1.292 -42.062,-19.092 -50.962,-50.962c-5.516,-17.75 -8.127,-64.8 -8.127,-64.8l0,-36.317l93.95,95.062Zm-93.95,-95.062l-94.655,-95.061c-9.786,-32.756 13.184,-55.725 34.861,-57.018c21.677,-1.292 42.062,19.093 50.962,50.963c5.623,18.095 8.832,65.889 8.832,65.889l0,35.227Zm0,0l-94.655,95.062c-32.756,9.785 -55.725,-13.184 -57.018,-34.861c-1.292,-21.678 19.093,-42.063 50.963,-50.963c17.826,-5.539 64.938,-8.693 64.938,-8.693l35.772,-0.545Z" style="fill:#79c82c;"/><path d="M171.541,299.421c-11.32,33.498 -34.172,53.863 -58.564,51.947c-25.955,-2.038 -54.011,-29.313 -44.971,-67.708c-38.394,9.041 -65.669,-19.016 -67.708,-44.97c-2.075,-26.425 22,-51.043 60.569,-61.142c2.434,-0.714 4.985,-1.312 7.637,-1.802c-2.643,-0.488 -5.186,-1.083 -7.612,-1.794c-38.594,-10.106 -62.669,-34.724 -60.594,-61.149c2.039,-25.954 29.314,-54.011 67.709,-44.972c-9.041,-38.393 19.015,-65.668 44.97,-67.707c26.426,-2.075 51.043,22 61.149,60.594c0.711,2.425 1.307,4.966 1.794,7.608c0.488,-2.642 1.084,-5.183 1.795,-7.608c10.105,-38.594 34.723,-62.669 61.149,-60.594c25.955,2.039 54.011,29.314 44.97,67.707c38.395,-9.039 65.67,19.018 67.708,44.972c2.076,26.425 -21.999,51.043 -60.593,61.149c-2.426,0.711 -4.969,1.306 -7.612,1.794c2.652,0.49 5.203,1.088 7.637,1.802c38.569,10.099 62.644,34.717 60.568,61.142c-2.038,25.954 -29.313,54.011 -67.707,44.97c9.04,38.395 -19.017,65.67 -44.971,67.708c-24.573,1.93 -47.583,-18.752 -58.814,-52.694c0.619,6.018 1.057,9.522 1.069,9.624c2.119,18.472 5.032,36.71 11.866,51.644c4.006,8.754 13.931,26.29 15.923,29.688c2.464,4.205 5.414,8.151 6.768,13.158c1.026,3.794 0.1,6.05 -1.224,8.018c-1.468,2.184 -3.745,3.705 -5.537,4.611c-5.131,2.592 -10.035,0.719 -11.712,-1.69c-2.614,-3.753 -3.733,-4.836 -8.469,-14.089c-0.791,-1.545 -3.633,-7.658 -5.284,-12.075c-1.651,-4.415 -3.75,-9.637 -6.475,-19.434c-1.631,-5.864 -3.34,-13.133 -4.052,-18.288c-1.177,-8.531 -1.432,-15.382 -1.726,-18.831c-0.309,-3.631 -0.417,-7.437 -0.538,-11.938c-0.073,-2.702 -0.061,-6.11 0.056,-8.864c0.146,-3.45 0.442,-6.895 0.826,-10.787Zm6.46,-24.026c0.736,5.131 1.833,9.97 3.134,14.404c0.005,0.017 0.01,0.033 0.014,0.05c9.573,36.591 32.387,59.941 57.436,57.974c24.864,-1.953 51.559,-28.844 41.061,-66.158c-0.174,-0.619 -0.001,-1.284 0.454,-1.739c0.455,-0.455 1.12,-0.629 1.739,-0.454c37.314,10.498 64.205,-16.197 66.158,-41.061c1.967,-25.049 -21.383,-47.862 -57.973,-57.436c-0.017,-0.005 -0.034,-0.009 -0.051,-0.014c-4.304,-1.263 -8.99,-2.142 -13.957,-2.695c-4.564,-0.509 -9.315,-0.891 -14.358,-1.29c-2.439,-0.192 -16.264,-1.23 -16.264,-1.23c0,0 13.716,-0.76 16.303,-0.995c10.31,-0.936 20.015,-1.795 28.276,-4.219c0.017,-0.005 0.034,-0.01 0.051,-0.014c36.59,-9.574 59.94,-32.387 57.973,-57.437c-1.953,-24.863 -28.844,-51.558 -66.158,-41.06c-0.619,0.174 -1.284,0 -1.739,-0.454c-0.455,-0.455 -0.628,-1.12 -0.454,-1.739c10.498,-37.314 -16.197,-64.205 -41.061,-66.158c-25.049,-1.968 -47.863,21.382 -57.436,57.973c-0.004,0.017 -0.009,0.034 -0.014,0.051c-2.424,8.259 -3.115,17.958 -3.987,28.271c-0.502,5.927 -1.228,18.704 -1.228,17.914c0,0.79 -0.726,-11.987 -1.227,-17.914c-0.872,-10.313 -1.563,-20.012 -3.987,-28.271c-0.005,-0.017 -0.01,-0.034 -0.014,-0.051c-9.574,-36.591 -32.387,-59.941 -57.437,-57.973c-24.863,1.953 -51.558,28.844 -41.06,66.158c0.174,0.619 0,1.284 -0.454,1.739c-0.455,0.454 -1.12,0.628 -1.739,0.454c-37.314,-10.498 -64.205,16.197 -66.158,41.06c-1.967,25.05 21.383,47.863 57.973,57.437c0.017,0.004 0.034,0.009 0.051,0.014c8.26,2.424 17.966,3.283 28.276,4.219c2.587,0.235 16.302,0.995 16.302,0.995c0,0 -13.825,1.038 -16.263,1.23c-5.043,0.399 -9.795,0.781 -14.358,1.29c-4.967,0.553 -9.653,1.432 -13.957,2.695c-0.017,0.005 -0.034,0.009 -0.051,0.014c-36.59,9.574 -59.94,32.387 -57.973,57.436c1.953,24.864 28.844,51.559 66.158,41.061c0.619,-0.175 1.284,-0.001 1.739,0.454c0.454,0.455 0.628,1.12 0.454,1.739c-10.498,37.314 16.197,64.205 41.06,66.158c25.05,1.967 47.863,-21.383 57.437,-57.974c0.004,-0.017 0.009,-0.033 0.014,-0.05c1.267,-4.319 2.341,-9.022 3.076,-14.005c0.385,-4.872 0.765,-10.409 1.113,-16.806c0.132,-2.433 1.025,-20.978 1.025,-20.978c0,-0 0.894,18.545 1.026,20.978c0.316,5.821 0.679,11.329 1.055,16.407Z" style="fill:#018f35;"/></g></svg>