<?xml version="1.0" encoding="UTF-8" standalone="no"?>
<!-- Created with Inkscape (http://www.inkscape.org/) -->

<svg
   width="200"
   height="200"
   viewBox="0 0 52.916663 52.916668"
   version="1.1"
   id="svg5"
   xml:space="preserve"
   inkscape:version="1.2 (dc2aedaf03, 2022-05-15)"
   sodipodi:docname="Array Tile_Rare.svg"
   xmlns:inkscape="http://www.inkscape.org/namespaces/inkscape"
   xmlns:sodipodi="http://sodipodi.sourceforge.net/DTD/sodipodi-0.dtd"
   xmlns="http://www.w3.org/2000/svg"
   xmlns:svg="http://www.w3.org/2000/svg"><sodipodi:namedview
     id="namedview7"
     pagecolor="#505050"
     bordercolor="#ffffff"
     borderopacity="1"
     inkscape:showpageshadow="0"
     inkscape:pageopacity="0"
     inkscape:pagecheckerboard="1"
     inkscape:deskcolor="#505050"
     inkscape:document-units="mm"
     showgrid="false"
     showguides="false"
     inkscape:zoom="1.1172287"
     inkscape:cx="-74.290967"
     inkscape:cy="127.99528"
     inkscape:window-width="1366"
     inkscape:window-height="705"
     inkscape:window-x="-8"
     inkscape:window-y="-8"
     inkscape:window-maximized="1"
     inkscape:current-layer="layer1" /><defs
     id="defs2"><inkscape:path-effect
       effect="tiling"
       id="path-effect8781"
       is_visible="true"
       lpeversion="1"
       unit="px"
       seed="1;1"
       lpesatellites=""
       num_rows="2"
       num_cols="1"
       gapx="8"
       gapy="14"
       offset="86"
       offset_type="false"
       scale="0"
       rotate="0"
       mirrorrowsx="false"
       mirrorrowsy="false"
       mirrorcolsx="false"
       mirrorcolsy="false"
       mirrortrans="false"
       shrink_interp="false"
       split_items="false"
       link_styles="false"
       interpolate_scalex="false"
       interpolate_scaley="true"
       interpolate_rotatex="false"
       interpolate_rotatey="true"
       random_scale="false"
       random_rotate="false"
       random_gap_y="false"
       random_gap_x="false"
       transformorigin="" /><inkscape:path-effect
       effect="tiling"
       id="path-effect5571"
       is_visible="true"
       lpeversion="1"
       unit="px"
       seed="1;1"
       lpesatellites=""
       num_rows="2"
       num_cols="1"
       gapx="16"
       gapy="3"
       offset="103"
       offset_type="false"
       scale="0"
       rotate="0"
       mirrorrowsx="false"
       mirrorrowsy="false"
       mirrorcolsx="false"
       mirrorcolsy="false"
       mirrortrans="false"
       shrink_interp="false"
       split_items="false"
       link_styles="false"
       interpolate_scalex="false"
       interpolate_scaley="true"
       interpolate_rotatex="false"
       interpolate_rotatey="true"
       random_scale="false"
       random_rotate="false"
       random_gap_y="false"
       random_gap_x="false"
       transformorigin="translate(-4.312597,-1.053263)" /><inkscape:path-effect
       effect="tiling"
       id="path-effect5532"
       is_visible="true"
       lpeversion="1"
       unit="px"
       seed="1;1"
       lpesatellites=""
       num_rows="2"
       num_cols="1"
       gapx="3"
       gapy="31"
       offset="68"
       offset_type="false"
       scale="0"
       rotate="0"
       mirrorrowsx="false"
       mirrorrowsy="false"
       mirrorcolsx="false"
       mirrorcolsy="false"
       mirrortrans="false"
       shrink_interp="false"
       split_items="false"
       link_styles="false"
       interpolate_scalex="false"
       interpolate_scaley="true"
       interpolate_rotatex="false"
       interpolate_rotatey="true"
       random_scale="false"
       random_rotate="false"
       random_gap_y="false"
       random_gap_x="false"
       transformorigin="matrix(0.99412816,0.30129746,-0.29534185,0.97447764,29.263383,-30.655764)" /><inkscape:path-effect
       effect="tiling"
       id="path-effect4133"
       is_visible="true"
       lpeversion="1"
       unit="px"
       seed="1;1"
       lpesatellites=""
       num_rows="2"
       num_cols="1"
       gapx="25"
       gapy="22"
       offset="68"
       offset_type="false"
       scale="0"
       rotate="0"
       mirrorrowsx="false"
       mirrorrowsy="false"
       mirrorcolsx="false"
       mirrorcolsy="false"
       mirrortrans="false"
       shrink_interp="false"
       split_items="false"
       link_styles="false"
       interpolate_scalex="false"
       interpolate_scaley="true"
       interpolate_rotatex="false"
       interpolate_rotatey="true"
       random_scale="false"
       random_rotate="false"
       random_gap_y="false"
       random_gap_x="false"
       transformorigin="matrix(0.8396159,0,0,0.8396159,14.96903,15.508388)" /><inkscape:path-effect
       effect="fillet_chamfer"
       id="path-effect5709"
       is_visible="true"
       lpeversion="1"
       nodesatellites_param="F,0,0,1,0,0,0,1 @ F,0,0,1,0,0,0,1 @ F,0,0,1,0,0,0,1 @ F,0,0,1,0,0,0,1 @ F,0,0,1,0,0,0,1 @ F,0,0,1,0,0.4581543,0,1 @ F,0,0,1,0,0,0,1 @ F,0,0,1,0,0,0,1 @ F,0,0,1,0,0,0,1 @ F,0,0,1,0,0,0,1 @ F,0,0,1,0,0.53049445,0,1 @ F,0,0,1,0,0,0,1 @ F,0,0,1,0,0,0,1 @ F,0,0,1,0,0,0,1 @ F,0,0,1,0,0,0,1 | F,0,0,1,0,0,0,1 @ F,0,0,1,0,0,0,1 @ F,0,0,1,0,0,0,1 @ F,0,0,1,0,0,0,1 @ F,0,0,1,0,0,0,1 @ F,0,0,1,0,0,0,1 @ F,0,0,1,0,0,0,1 @ F,0,0,1,0,0,0,1"
       unit="px"
       method="auto"
       mode="F"
       radius="0"
       chamfer_steps="1"
       flexible="false"
       use_knot_distance="true"
       apply_no_radius="true"
       apply_with_radius="true"
       only_selected="false"
       hide_knots="false" /><inkscape:path-effect
       effect="fillet_chamfer"
       id="path-effect2137"
       is_visible="true"
       lpeversion="1"
       nodesatellites_param="F,0,0,1,0,8,0,1 @ F,0,0,1,0,0,0,1 @ F,0,0,1,0,0,0,1 @ F,0,0,1,0,0,0,1 @ F,0,0,1,0,8,0,1 @ F,0,0,1,0,0,0,1 @ F,0,0,1,0,0,0,1 @ F,0,0,1,0,0,0,1 @ F,0,0,1,0,0,0,1 @ F,0,0,1,0,0,0,1"
       unit="px"
       method="auto"
       mode="F"
       radius="0"
       chamfer_steps="1"
       flexible="false"
       use_knot_distance="true"
       apply_no_radius="true"
       apply_with_radius="true"
       only_selected="false"
       hide_knots="false" /><inkscape:path-effect
       effect="mirror_symmetry"
       start_point="4.5560511,145.07496"
       end_point="-20.970424,169.23206"
       center_point="-8.2071863,157.15351"
       id="path-effect2078"
       is_visible="true"
       lpeversion="1.2"
       lpesatellites=""
       mode="vertical"
       discard_orig_path="false"
       fuse_paths="true"
       oposite_fuse="false"
       split_items="false"
       split_open="false"
       link_styles="false" /><inkscape:path-effect
       effect="fillet_chamfer"
       id="path-effect1953"
       is_visible="true"
       lpeversion="1"
       nodesatellites_param="F,0,0,1,0,0,0,1 @ F,0,0,1,0,0,0,1 @ F,0,0,1,0,0.68058242,0,1"
       unit="px"
       method="auto"
       mode="F"
       radius="0"
       chamfer_steps="1"
       flexible="false"
       use_knot_distance="true"
       apply_no_radius="true"
       apply_with_radius="true"
       only_selected="false"
       hide_knots="false" /><inkscape:path-effect
       effect="fillet_chamfer"
       id="path-effect1885"
       is_visible="true"
       lpeversion="1"
       nodesatellites_param="F,0,0,1,0,0.025729922,0,1 @ F,0,0,1,0,0,0,1 @ F,0,0,1,0,0.84764408,0,1 @ F,0,0,1,0,0.9288475,0,1"
       unit="px"
       method="auto"
       mode="F"
       radius="0"
       chamfer_steps="1"
       flexible="false"
       use_knot_distance="true"
       apply_no_radius="true"
       apply_with_radius="true"
       only_selected="false"
       hide_knots="false" /><inkscape:path-effect
       effect="mirror_symmetry"
       start_point="173.94468,87.823316"
       end_point="173.94468,111.88232"
       center_point="173.94468,99.852816"
       id="path-effect1828"
       is_visible="true"
       lpeversion="1.2"
       lpesatellites=""
       mode="vertical"
       discard_orig_path="false"
       fuse_paths="true"
       oposite_fuse="false"
       split_items="false"
       split_open="false"
       link_styles="false" /><inkscape:path-effect
       effect="fillet_chamfer"
       id="path-effect1818"
       is_visible="true"
       lpeversion="1"
       nodesatellites_param="F,0,0,1,0,0,0,1 @ F,0,0,1,0,2.6241049,0,1 @ F,0,0,1,0,0,0,1 @ F,0,0,1,0,1.443101,0,1 @ F,0,0,1,0,0,0,1 @ F,0,0,1,0,0,0,1 @ F,0,0,1,0,0.7857946,0,1 @ F,0,0,1,0,0,0,1 @ F,0,0,1,0,0,0,1 @ F,0,0,1,0,0,0,1"
       unit="px"
       method="auto"
       mode="F"
       radius="0"
       chamfer_steps="1"
       flexible="false"
       use_knot_distance="true"
       apply_no_radius="true"
       apply_with_radius="true"
       only_selected="false"
       hide_knots="false" /><inkscape:path-effect
       effect="mirror_symmetry"
       start_point="109.86484,87.18808"
       end_point="109.86484,140.10475"
       center_point="109.86484,113.64641"
       id="path-effect1649"
       is_visible="true"
       lpeversion="1.2"
       lpesatellites=""
       mode="vertical"
       discard_orig_path="false"
       fuse_paths="false"
       oposite_fuse="false"
       split_items="false"
       split_open="false"
       link_styles="false" /></defs><g
     inkscape:label="Layer 1"
     inkscape:groupmode="layer"
     id="layer1"
     transform="translate(-93.332381,-96.695296)"><path
       id="path8598"
       style="fill:#ffffff;stroke-width:1.87244;stroke-linecap:round;paint-order:stroke fill markers;stop-color:#000000"
       d="m 95.152903,96.711233 c -0.358944,0.08543 -0.55168,0.476259 -0.400949,0.813038 l 3.557424,7.948289 3.783132,-2.72246 -6.404484,-5.898844 C 95.54406,96.718452 95.343464,96.665963 95.152903,96.711233 Z m 9.590247,1.260948 c -0.34973,0.10675 -0.59088,0.47976 -0.5674,0.86414 l 0.17085,2.799379 0.0615,1.00084 c -1.01492,0.62473 -1.92464,1.41932 -2.90628,2.09764 -2.33743,1.72396 -4.674646,3.44788 -7.012099,5.17184 -1.507789,1.01245 -1.343559,2.93563 -0.630058,4.3536 0.431839,1.17971 1.090817,2.54242 2.572723,2.54625 1.289713,-0.10524 2.469994,-0.68586 3.702134,-1.04202 1.67308,-0.55287 3.34633,-1.10568 5.01943,-1.65853 0.4132,1.71203 0.0278,3.80269 1.15423,5.15711 0.72684,0.87395 2.04224,1.64711 3.13642,1.33914 l 1.01985,-0.28705 c -0.34636,-0.2299 -0.66055,-0.53597 -0.92982,-0.90204 -0.50467,-0.68608 -0.89216,-1.58436 -1.20754,-2.74242 -0.62976,-2.31644 -0.95943,-5.6965 -0.91028,-10.53542 0.006,-0.58639 0.006,-1.33333 0.1382,-2.09155 0.0379,-0.21768 0.0872,-0.44041 0.15359,-0.6615 0.13321,-0.17554 0.25284,-0.35977 0.35675,-0.55184 0.12261,-0.22656 0.21977,-0.4575 0.2925,-0.68969 0.008,-0.01 0.016,-0.0197 0.0245,-0.0293 -0.005,-0.002 -0.009,-0.004 -0.014,-0.004 0.31388,-1.03674 0.13362,-2.09537 -0.52443,-2.900109 -0.66102,-0.8083 -1.72233,-1.26072 -2.89628,-1.26412 -0.0712,-2.1e-4 -0.13966,0.0105 -0.20445,0.0302 z m 5.16956,4.139179 c -0.18813,0.0602 -0.3943,0.1995 -0.66857,0.44424 -0.87764,0.78319 -0.88731,2.41278 -0.89926,3.58902 -0.0196,1.93172 0.0241,3.62035 0.12099,5.0948 0.72831,-0.63775 1.32297,-1.26491 1.63046,-1.89873 0.38393,-0.79143 0.44035,-1.82306 0.47525,-2.99581 0.0349,-1.17274 0.0566,-2.47843 0.47737,-3.79671 0.0174,-0.0547 0.0356,-0.10902 0.0548,-0.16286 -0.5477,-0.23112 -0.83749,-0.38919 -1.19109,-0.27394 z m 1.96764,0.59476 c -0.0111,0.0322 -0.0225,0.0642 -0.0329,0.0966 -0.37391,1.17168 -0.40124,2.3887 -0.43635,3.56734 -0.0351,1.17866 -0.0687,2.32533 -0.55866,3.3354 -0.47117,0.97121 -1.33816,1.78285 -2.30742,2.57405 0.10211,1.14089 0.24063,2.13099 0.40983,2.9888 0.51686,-0.43947 1.05283,-0.85545 1.56939,-1.26207 1.27957,-1.0072 2.42765,-1.96706 2.90087,-2.94252 0.38394,-0.79144 0.44035,-1.82307 0.47525,-2.99582 0.0349,-1.17275 0.0561,-2.47826 0.47681,-3.79654 0.002,-0.007 0.004,-0.0128 0.006,-0.0187 -0.7549,-0.61291 -1.58529,-1.13813 -2.50309,-1.54651 z m -9.28563,4.69534 c 0.007,-0.002 0.0139,-0.004 0.0208,-0.006 0.44032,-0.12394 0.89424,0.13105 1.01817,0.57135 l 0.40193,1.42802 c 0.12394,0.44031 -0.13033,0.89463 -0.57066,1.01856 -0.44032,0.12393 -0.89478,-0.1309 -1.01871,-0.57121 l -0.40194,-1.42802 c -0.12199,-0.43343 0.12273,-0.88078 0.55042,-1.01285 z m 12.4843,-2.54006 c -0.28155,1.06737 -0.30732,2.16512 -0.33907,3.23173 -0.0351,1.17867 -0.0686,2.3253 -0.55866,3.3354 -0.60287,1.24272 -1.85388,2.22485 -3.1391,3.23652 -0.63745,0.50177 -1.28546,1.00931 -1.87702,1.53794 0.30482,1.19518 0.68159,2.06615 1.11314,2.65492 0.90916,-1.12931 2.13046,-2.05999 3.25854,-2.94795 1.27954,-1.00721 2.42707,-1.96692 2.9003,-2.94239 0.38393,-0.79142 0.44107,-1.82266 0.47597,-2.9954 0.0253,-0.85002 0.0442,-1.76989 0.21245,-2.71373 -0.6068,-0.86913 -1.28446,-1.67943 -2.04655,-2.39704 z m -19.358056,5.82782 c 0.03088,-0.009 0.06263,-0.0166 0.09521,-0.0216 0.41016,-0.0626 1.045609,0.41423 1.100596,0.82543 0.140235,1.04844 -2.272132,1.88458 -2.272132,1.88458 0,0 0.118332,-2.39352 1.076386,-2.68809 z m 22.111706,-2.34348 c -0.0479,0.55301 -0.0639,1.10601 -0.0802,1.65108 -0.0351,1.17863 -0.0708,2.3265 -0.56076,3.33659 -0.60287,1.24271 -1.8516,2.22421 -3.13682,3.23588 -1.16348,0.91581 -2.36397,1.85072 -3.18841,2.89969 2.02637,1.52414 4.87719,-1.65962 7.02765,-5.75687 0.54667,-1.04155 0.76399,2.18569 1.64162,1.40249 0.87765,-0.78321 0.62013,-1.91103 0.17065,-2.99805 -0.53054,-1.28318 -1.14502,-2.56607 -1.87378,-3.77081 z m 0.17522,6.82879 c -0.4357,0.74791 -0.87666,1.49665 -1.33624,2.17876 -0.612,0.90834 -0.37027,1.31833 0.68545,1.02118 l 0.55041,-0.15492 c 0.76497,-0.21531 0.84484,-1.26016 0.74025,-2.2246 -0.0628,-0.33686 -0.17447,-0.65309 -0.63987,-0.82042 z m 2.00208,9.21609 c -0.35895,0.0854 -0.55168,0.47626 -0.40095,0.81304 l 3.55742,7.94829 3.78313,-2.72246 -6.40448,-5.89885 c -0.14397,-0.1328 -0.34456,-0.18529 -0.53512,-0.14002 z m 9.59024,1.26095 c -0.34973,0.10675 -0.59088,0.47976 -0.5674,0.86414 l 0.17085,2.79938 0.0615,1.00084 c -1.01492,0.62473 -1.92464,1.41932 -2.90628,2.09764 -2.33743,1.72396 -4.67464,3.44788 -7.01209,5.17184 -1.50779,1.01245 -1.34356,2.93563 -0.63006,4.3536 0.43184,1.17971 1.09081,2.54242 2.57272,2.54625 1.28971,-0.10524 2.46999,-0.68586 3.70213,-1.04202 1.67308,-0.55287 3.34633,-1.10568 5.01943,-1.65853 0.4132,1.71203 0.0278,3.80269 1.15423,5.15711 0.72684,0.87395 2.04224,1.64711 3.13642,1.33914 l 1.01985,-0.28705 c -0.34636,-0.2299 -0.66055,-0.53597 -0.92982,-0.90204 -0.50467,-0.68608 -0.89216,-1.58436 -1.20754,-2.74242 -0.62976,-2.31644 -0.95943,-5.6965 -0.91028,-10.53542 0.006,-0.58639 0.006,-1.33333 0.1382,-2.09155 0.0379,-0.21768 0.0872,-0.44041 0.15359,-0.6615 0.13321,-0.17554 0.25284,-0.35977 0.35675,-0.55184 0.12261,-0.22656 0.21977,-0.4575 0.2925,-0.68969 0.008,-0.01 0.016,-0.0197 0.0245,-0.0293 -0.005,-0.002 -0.009,-0.004 -0.014,-0.004 0.31388,-1.03674 0.13362,-2.09537 -0.52443,-2.90011 -0.66102,-0.8083 -1.72233,-1.26072 -2.89628,-1.26412 -0.0712,-2.1e-4 -0.13966,0.0105 -0.20445,0.0302 z m 5.16956,4.13918 c -0.18813,0.0602 -0.3943,0.1995 -0.66857,0.44424 -0.87764,0.78319 -0.88731,2.41278 -0.89926,3.58902 -0.0196,1.93172 0.0241,3.62035 0.12099,5.0948 0.72831,-0.63775 1.32297,-1.26491 1.63046,-1.89873 0.38393,-0.79143 0.44035,-1.82306 0.47525,-2.99581 0.0349,-1.17274 0.0566,-2.47843 0.47737,-3.79671 0.0174,-0.0547 0.0356,-0.10902 0.0548,-0.16286 -0.5477,-0.23112 -0.83749,-0.38919 -1.19109,-0.27394 z m 1.96764,0.59476 c -0.0111,0.0322 -0.0225,0.0642 -0.0329,0.0966 -0.37391,1.17168 -0.40124,2.3887 -0.43635,3.56734 -0.0351,1.17866 -0.0687,2.32533 -0.55866,3.3354 -0.47117,0.97121 -1.33816,1.78285 -2.30742,2.57405 0.10211,1.14089 0.24063,2.13099 0.40983,2.9888 0.51686,-0.43947 1.05283,-0.85545 1.56939,-1.26207 1.27957,-1.0072 2.42765,-1.96706 2.90087,-2.94252 0.38394,-0.79144 0.44035,-1.82307 0.47525,-2.99582 0.0349,-1.17275 0.0561,-2.47826 0.47681,-3.79654 0.002,-0.007 0.004,-0.0128 0.006,-0.0187 -0.7549,-0.61291 -1.58529,-1.13813 -2.50309,-1.54651 z m -9.28563,4.69534 c 0.007,-0.002 0.0139,-0.004 0.0208,-0.006 0.44032,-0.12394 0.89424,0.13105 1.01817,0.57135 l 0.40193,1.42802 c 0.12394,0.44031 -0.13033,0.89463 -0.57066,1.01856 -0.44032,0.12393 -0.89478,-0.1309 -1.01871,-0.57121 l -0.40194,-1.42802 c -0.12199,-0.43343 0.12273,-0.88078 0.55042,-1.01285 z m 12.4843,-2.54006 c -0.28155,1.06737 -0.30732,2.16512 -0.33907,3.23173 -0.0351,1.17867 -0.0686,2.3253 -0.55866,3.3354 -0.60287,1.24272 -1.85388,2.22485 -3.1391,3.23652 -0.63745,0.50177 -1.28546,1.00931 -1.87702,1.53794 0.30482,1.19518 0.68159,2.06615 1.11314,2.65492 0.90916,-1.12931 2.13046,-2.05999 3.25854,-2.94795 1.27954,-1.00721 2.42707,-1.96692 2.9003,-2.94239 0.38393,-0.79142 0.44107,-1.82266 0.47597,-2.9954 0.0253,-0.85002 0.0442,-1.76989 0.21245,-2.71373 -0.6068,-0.86913 -1.28446,-1.67943 -2.04655,-2.39704 z m -19.35805,5.82782 c 0.0309,-0.009 0.0626,-0.0166 0.0952,-0.0216 0.41016,-0.0626 1.04561,0.41423 1.10059,0.82543 0.14024,1.04844 -2.27213,1.88458 -2.27213,1.88458 0,0 0.11833,-2.39352 1.07639,-2.68809 z m 22.1117,-2.34348 c -0.0479,0.55301 -0.0639,1.10601 -0.0802,1.65108 -0.0351,1.17863 -0.0708,2.3265 -0.56076,3.33659 -0.60287,1.24271 -1.8516,2.22421 -3.13682,3.23588 -1.16348,0.91581 -2.36397,1.85072 -3.18841,2.89969 2.02637,1.52414 4.87719,-1.65962 7.02765,-5.75687 0.54667,-1.04155 0.76399,2.18569 1.64162,1.40249 0.87765,-0.78321 0.62013,-1.91103 0.17065,-2.99805 -0.53054,-1.28318 -1.14502,-2.56607 -1.87378,-3.77081 z m 0.17522,6.82879 c -0.4357,0.74791 -0.87666,1.49665 -1.33624,2.17876 -0.612,0.90834 -0.37027,1.31833 0.68545,1.02118 l 0.55041,-0.15492 c 0.76497,-0.21531 0.84484,-1.26016 0.74025,-2.2246 -0.0628,-0.33686 -0.17447,-0.65309 -0.63987,-0.82042 z"
       inkscape:path-effect="#path-effect8781"
       inkscape:original-d="m 95.152903,96.711233 a 0.58858593,0.58858593 0 0 0 -0.400949,0.813038 l 3.557424,7.948289 3.783132,-2.72246 -6.404484,-5.898844 a 0.58858593,0.58858593 0 0 0 -0.535123,-0.140023 z m 9.590247,1.260948 c -0.34973,0.10675 -0.59088,0.47976 -0.5674,0.86414 l 0.17085,2.799379 0.0615,1.00084 c -1.01492,0.62473 -1.92464,1.41932 -2.90628,2.09764 -2.33743,1.72396 -4.674646,3.44788 -7.012099,5.17184 -1.507789,1.01245 -1.343559,2.93563 -0.630058,4.3536 0.431839,1.17971 1.090817,2.54242 2.572723,2.54625 1.289713,-0.10524 2.469994,-0.68586 3.702134,-1.04202 1.67308,-0.55287 3.34633,-1.10568 5.01943,-1.65853 0.4132,1.71203 0.0278,3.80269 1.15423,5.15711 0.72684,0.87395 2.04224,1.64711 3.13642,1.33914 l 1.01985,-0.28705 c -0.34636,-0.2299 -0.66055,-0.53597 -0.92982,-0.90204 -0.50467,-0.68608 -0.89216,-1.58436 -1.20754,-2.74242 -0.62976,-2.31644 -0.95943,-5.6965 -0.91028,-10.53542 0.006,-0.58639 0.006,-1.33333 0.1382,-2.09155 0.0379,-0.21768 0.0872,-0.44041 0.15359,-0.6615 0.13321,-0.17554 0.25284,-0.35977 0.35675,-0.55184 0.12261,-0.22656 0.21977,-0.4575 0.2925,-0.68969 0.008,-0.01 0.016,-0.0197 0.0245,-0.0293 -0.005,-0.002 -0.009,-0.004 -0.014,-0.004 0.31388,-1.03674 0.13362,-2.09537 -0.52443,-2.900109 -0.66102,-0.8083 -1.72233,-1.26072 -2.89628,-1.26412 -0.0712,-2.1e-4 -0.13966,0.0105 -0.20445,0.0302 z m 5.16956,4.139179 c -0.18813,0.0602 -0.3943,0.1995 -0.66857,0.44424 -0.87764,0.78319 -0.88731,2.41278 -0.89926,3.58902 -0.0196,1.93172 0.0241,3.62035 0.12099,5.0948 0.72831,-0.63775 1.32297,-1.26491 1.63046,-1.89873 0.38393,-0.79143 0.44035,-1.82306 0.47525,-2.99581 0.0349,-1.17274 0.0566,-2.47843 0.47737,-3.79671 0.0174,-0.0547 0.0356,-0.10902 0.0548,-0.16286 -0.5477,-0.23112 -0.83749,-0.38919 -1.19109,-0.27394 z m 1.96764,0.59476 c -0.0111,0.0322 -0.0225,0.0642 -0.0329,0.0966 -0.37391,1.17168 -0.40124,2.3887 -0.43635,3.56734 -0.0351,1.17866 -0.0687,2.32533 -0.55866,3.3354 -0.47117,0.97121 -1.33816,1.78285 -2.30742,2.57405 0.10211,1.14089 0.24063,2.13099 0.40983,2.9888 0.51686,-0.43947 1.05283,-0.85545 1.56939,-1.26207 1.27957,-1.0072 2.42765,-1.96706 2.90087,-2.94252 0.38394,-0.79144 0.44035,-1.82307 0.47525,-2.99582 0.0349,-1.17275 0.0561,-2.47826 0.47681,-3.79654 0.002,-0.007 0.004,-0.0128 0.006,-0.0187 -0.7549,-0.61291 -1.58529,-1.13813 -2.50309,-1.54651 z m -9.28563,4.69534 c 0.007,-0.002 0.0139,-0.004 0.0208,-0.006 0.44032,-0.12394 0.89424,0.13105 1.01817,0.57135 l 0.40193,1.42802 c 0.12394,0.44031 -0.13033,0.89463 -0.57066,1.01856 -0.44032,0.12393 -0.89478,-0.1309 -1.01871,-0.57121 l -0.40194,-1.42802 c -0.12199,-0.43343 0.12273,-0.88078 0.55042,-1.01285 z m 12.4843,-2.54006 c -0.28155,1.06737 -0.30732,2.16512 -0.33907,3.23173 -0.0351,1.17867 -0.0686,2.3253 -0.55866,3.3354 -0.60287,1.24272 -1.85388,2.22485 -3.1391,3.23652 -0.63745,0.50177 -1.28546,1.00931 -1.87702,1.53794 0.30482,1.19518 0.68159,2.06615 1.11314,2.65492 0.90916,-1.12931 2.13046,-2.05999 3.25854,-2.94795 1.27954,-1.00721 2.42707,-1.96692 2.9003,-2.94239 0.38393,-0.79142 0.44107,-1.82266 0.47597,-2.9954 0.0253,-0.85002 0.0442,-1.76989 0.21245,-2.71373 -0.6068,-0.86913 -1.28446,-1.67943 -2.04655,-2.39704 z m -19.358056,5.82782 c 0.03088,-0.009 0.06263,-0.0166 0.09521,-0.0216 0.41016,-0.0626 1.045609,0.41423 1.100596,0.82543 0.140235,1.04844 -2.272132,1.88458 -2.272132,1.88458 0,0 0.118332,-2.39352 1.076386,-2.68809 z m 22.111706,-2.34348 c -0.0479,0.55301 -0.0639,1.10601 -0.0802,1.65108 -0.0351,1.17863 -0.0708,2.3265 -0.56076,3.33659 -0.60287,1.24271 -1.8516,2.22421 -3.13682,3.23588 -1.16348,0.91581 -2.36397,1.85072 -3.18841,2.89969 2.02637,1.52414 4.87719,-1.65962 7.02765,-5.75687 0.54667,-1.04155 0.76399,2.18569 1.64162,1.40249 0.87765,-0.78321 0.62013,-1.91103 0.17065,-2.99805 -0.53054,-1.28318 -1.14502,-2.56607 -1.87378,-3.77081 z m 0.17522,6.82879 c -0.4357,0.74791 -0.87666,1.49665 -1.33624,2.17876 -0.612,0.90834 -0.37027,1.31833 0.68545,1.02118 l 0.55041,-0.15492 c 0.76497,-0.21531 0.84484,-1.26016 0.74025,-2.2246 -0.0628,-0.33686 -0.17447,-0.65309 -0.63987,-0.82042 z"
       class="UnoptimicedTransforms"
       transform="translate(0.63635479,0.63103568)" /></g></svg>
