<svg id="Layer_1" data-name="Layer 1" xmlns="http://www.w3.org/2000/svg" viewBox="0 0 150.31 94.83"><defs><style>.cls-1{fill:#ffdc10;}.cls-2{fill:#273b54;}.cls-3{fill:#182738;opacity:0.32;}.cls-4{fill:#acdde5;opacity:0.8;}.cls-5{fill:#6a8b9e;opacity:0.7;}</style></defs><path class="cls-1" d="M82.81,12.25l-1.63.81a2.27,2.27,0,0,1-2.87-.78L76.48,9.71a1.56,1.56,0,0,0-2.59,0l-1.82,2.57a2.27,2.27,0,0,1-2.87.78l-1.64-.81a1.32,1.32,0,0,0-1.68,1.81l2.51,6.5H82l2.51-6.5A1.33,1.33,0,0,0,82.81,12.25Z"/><path class="cls-2" d="M96.24.44c-3.14,1.72-12,20.4-12,20.4l-.08.2c-1.07-2.22-4.67-3.87-9-3.87s-7.91,1.64-9,3.87l-.08-.2S57.26,2.16,54.12.44s-7.1,2-4,4.93,6.34,0,14.36,16.5a3,3,0,0,0-1.08-.2c-2.57,0-4.59,3.15-4.59,6.16a21.81,21.81,0,0,0,3.57,10,15.16,15.16,0,0,0,12.88,6.44A15.14,15.14,0,0,0,88.1,37.87a21.93,21.93,0,0,0,3.57-10c0-3-2.06-6.16-4.6-6.16a3,3,0,0,0-1.08.2c7.93-16.45,11.22-13.58,14.3-16.5S99.38-1.29,96.24.44Z"/><path class="cls-2" d="M95.32,54A23.53,23.53,0,0,1,95,57.62a43.86,43.86,0,0,1-1.16,5.2,54.2,54.2,0,0,1-2.2,6.35,44.36,44.36,0,0,1-2.36,4.92,31.82,31.82,0,0,1-4.45,6.21c-2.75,2.93-6,4.83-9.65,4.83s-6.91-1.91-9.66-4.83a31.71,31.71,0,0,1-4.45-6.24,45.16,45.16,0,0,1-2.36-4.91,56.26,56.26,0,0,1-2.2-6.36,46.48,46.48,0,0,1-1.17-5.17A23.06,23.06,0,0,1,55,54a16.23,16.23,0,0,1,.36-3.4,17.44,17.44,0,0,1,8.2-11.35,22.44,22.44,0,0,1,11.59-2.92,22.38,22.38,0,0,1,11.58,2.92A17.36,17.36,0,0,1,95,50.66,16.87,16.87,0,0,1,95.32,54Z"/><path class="cls-1" d="M89.25,74.12a62.56,62.56,0,0,0-14.06-1.51,62.67,62.67,0,0,0-14.08,1.51l4.73,6.49h0a68.45,68.45,0,0,1,18.64,0h0Z"/><path class="cls-1" d="M93.85,62.79a54.2,54.2,0,0,1-2.2,6.35,63.19,63.19,0,0,0-16.46-2,63.34,63.34,0,0,0-16.48,2,56,56,0,0,1-2.19-6.35,59.61,59.61,0,0,1,18.67-2.71A59.22,59.22,0,0,1,93.85,62.79Z"/><path class="cls-1" d="M95.32,54A23.53,23.53,0,0,1,95,57.62a57.67,57.67,0,0,0-19.82-3.18,57.31,57.31,0,0,0-19.84,3.18A23.06,23.06,0,0,1,55,54a16.23,16.23,0,0,1,.36-3.4,57.85,57.85,0,0,1,19.8-3.2A57.61,57.61,0,0,1,95,50.52,16.8,16.8,0,0,1,95.32,54Z"/><path class="cls-2" d="M95,50.58a17.35,17.35,0,0,0-8.2-11.35A22.44,22.44,0,0,0,75.17,36.3v-.07a22.63,22.63,0,0,0-10.44,2.3c-.39.19-.77.4-1.14.62a16.51,16.51,0,0,0-2.18,1.56A17.1,17.1,0,0,0,55,54a23.84,23.84,0,0,0,.33,3.67,45.8,45.8,0,0,0,1.17,5.16,53.15,53.15,0,0,0,2.21,6.36,44.22,44.22,0,0,0,2.36,4.91,31.06,31.06,0,0,0,1.63,2.69,30.72,30.72,0,0,0,2.81,3.56c.39.4.77.79,1.17,1.15a12.59,12.59,0,0,0,8.48,3.68c3.67,0,6.89-1.92,9.66-4.83a31.42,31.42,0,0,0,4.45-6.24,45,45,0,0,0,2.37-4.9,57.84,57.84,0,0,0,2.19-6.38A50.43,50.43,0,0,0,95,57.58a25.47,25.47,0,0,0,.31-3.6A16.85,16.85,0,0,0,95,50.58ZM89,56.85a45.5,45.5,0,0,1-1,4.65,52.38,52.38,0,0,1-2,5.8,41,41,0,0,1-2.11,4.38,25.68,25.68,0,0,1-3.68,5.22c-1.29,1.33-3.13,2.9-5,2.9s-3.75-1.58-5-2.9c-.2-.21-.39-.43-.57-.65A24.8,24.8,0,0,1,66.67,72l-.18-.31a40.5,40.5,0,0,1-2.11-4.41,48.48,48.48,0,0,1-2-5.76,40,40,0,0,1-1-4.66A18.73,18.73,0,0,1,61.07,54a11.05,11.05,0,0,1,.28-2.49A12,12,0,0,1,67,43.56c.31-.18.62-.33.94-.49a14.68,14.68,0,0,1,2.53-.92,15.88,15.88,0,0,1,4.72-.58v0a15.82,15.82,0,0,1,8.2,2A11.91,11.91,0,0,1,89,51.48,12.24,12.24,0,0,1,89.27,54,21.4,21.4,0,0,1,89,56.85Z"/><polygon class="cls-2" points="75.17 92.96 68.76 82.66 81.61 82.66 75.17 92.96"/><path class="cls-3" d="M69.61,76.25a29.59,29.59,0,0,1-2.91,5.2c-.4-.36-.78-.75-1.17-1.15a30.72,30.72,0,0,1-2.81-3.56,31.06,31.06,0,0,1-1.63-2.69,44.22,44.22,0,0,1-2.36-4.91,53.15,53.15,0,0,1-2.21-6.36,45.8,45.8,0,0,1-1.17-5.16A23.84,23.84,0,0,1,55,54a17.1,17.1,0,0,1,6.39-13.24,27.31,27.31,0,0,1,6.15,2.12,3.22,3.22,0,0,1,.36.24c3,2,1.92,5.24.12,8,2.17,2.12,3.08,5.91,3.23,6.55A29.62,29.62,0,0,1,69.61,76.25Z"/><path class="cls-3" d="M80.7,76.25a29.54,29.54,0,0,0,2.9,5.2c.4-.36.79-.75,1.18-1.15a29.59,29.59,0,0,0,2.8-3.56,31.17,31.17,0,0,0,1.64-2.69,44.14,44.14,0,0,0,2.35-4.91,53.21,53.21,0,0,0,2.22-6.36A48.1,48.1,0,0,0,95,57.62,23.83,23.83,0,0,0,95.28,54,17.12,17.12,0,0,0,88.9,40.71a27.45,27.45,0,0,0-6.16,2.12l-.36.24c-2.95,2-1.92,5.24-.11,8C80.09,53.24,79.19,57,79,57.67A29.62,29.62,0,0,0,80.7,76.25Z"/><path class="cls-1" d="M97.21,32.91c1.37-1.85,2.49-3.82,2-4.87-1-2.34-10.74,3.58-10.74,3.58s-1.2-4.18-2.84-4.13-5,3.64-5,3.64-.52-3.6-5.48-3.63h-.07c-5,0-5.48,3.63-5.48,3.63s-3.36-3.58-5-3.64-2.84,4.13-2.84,4.13S52.09,25.7,51.06,28c-.46,1.05.66,3,2,4.87-3.18-.69-4.89-.76-3.16.46,5.63,4,4.58,10.9,25.14,10.94h.15c20.56,0,19.51-7,25.14-10.94C102.09,32.15,100.39,32.22,97.21,32.91Z"/><path class="cls-4" d="M66.17,49.62c2.08,2.21,2.82,6,2.94,6.68A29.61,29.61,0,0,1,61,82.73,42.11,42.11,0,0,1,53.64,89a43.12,43.12,0,0,1-9.07,4.7c-4,1.42-8,1.52-10.87.31s-5.79-4.48-3.61-13c1.27-5,4.79-10.26,9.05-15.07a43.9,43.9,0,0,1-12.14.8,46.29,46.29,0,0,1-10.94-2.08A38.8,38.8,0,0,1,5.94,60C2.25,57.41.05,54,0,50.44s2.2-8.51,13-12.75c18.16-7.1,48.34.58,53,3.62C69.34,43.44,68.16,46.79,66.17,49.62Z"/><path class="cls-5" d="M66.05,41.31c-4.68-3-34.86-10.72-53-3.62C2.2,41.93,0,46.91,0,50.44s2.25,7,5.94,9.56a38.8,38.8,0,0,0,10.12,4.68A46.29,46.29,0,0,0,27,66.76,43.9,43.9,0,0,0,39.14,66C34.88,70.77,31.36,76,30.09,81c-2.18,8.48.77,11.76,3.61,13s6.86,1.11,10.87-.31A43.12,43.12,0,0,0,53.64,89,42.11,42.11,0,0,0,61,82.73,29.61,29.61,0,0,0,69.11,56.3c-.12-.65-.86-4.47-2.94-6.68C68.16,46.79,69.34,43.44,66.05,41.31Zm-6.19,1.31a19.18,19.18,0,0,1,2.19.81c.35.79-.54,2.72-2.22,4.86A159.54,159.54,0,0,0,42.28,46a63.14,63.14,0,0,0,9.61-5.44C55.23,41.29,58,42,59.86,42.62Zm-9.69,6.9c2.23.28,4.48.62,6.73,1l.81.13c-.47.46-1,.92-1.51,1.36a93.56,93.56,0,0,1-9.28,6.21,46,46,0,0,1-6,2.66A55.56,55.56,0,0,0,50.17,49.52ZM19.83,52.74A118.44,118.44,0,0,0,31.93,50c1.2-.32,2.33-.72,3.47-1.12a74.38,74.38,0,0,1,9.79.17,50.79,50.79,0,0,1-3.95,5.4,1.84,1.84,0,0,0-.41,0C34.7,55.93,27.08,54.38,19.83,52.74ZM6.07,51.39C6,48.61,7.94,44.61,17.22,41c8.62-3.38,20.13-2.87,29.31-1.41A69.22,69.22,0,0,1,28,47.69c-6.87,1.93-14.56,2.88-21.76,4.5A4.31,4.31,0,0,1,6.07,51.39ZM32.49,62.9a34.71,34.71,0,0,1-6.45.15,33.7,33.7,0,0,1-16-5.12,10.73,10.73,0,0,1-2.7-2.76c2-.54,4.11-.9,6.2-1.31,8,1.83,16.87,4.31,24.65,4A63.2,63.2,0,0,1,32.49,62.9Zm5.14,27.6c-2.26-1-4.56-3.68-2.7-10.9,1.32-5.16,5.38-10.56,9.89-15.22,1.38-.48,2.74-1,4.09-1.64A40.56,40.56,0,0,1,46,75.19c-2,5.09-5.23,10.38-7.65,15.55A5.67,5.67,0,0,1,37.63,90.5ZM56,64.58a34.27,34.27,0,0,1,2.34,4.5,3,3,0,0,0-.16.31c-2,4.47-7.2,8.76-12.41,12.77a85.48,85.48,0,0,0,4-8.75c.33-.88.62-1.76.88-2.62A55.08,55.08,0,0,1,56,64.58Zm4.75,13.23A27.26,27.26,0,0,1,57.54,82,34.31,34.31,0,0,1,45,90.37a12.85,12.85,0,0,1-3.67.72c.68-1.48,1.4-3,2.16-4.44,5.67-4.46,12.29-9.21,16.05-14.31A34.26,34.26,0,0,1,60.77,77.81Zm3.4-19.14a27.81,27.81,0,0,1-.69,13A33.53,33.53,0,0,0,59,61.63c1.56-1.48,3.18-2.94,4.84-4.4a12.22,12.22,0,0,1,.41,1.43ZM63.05,55a145.48,145.48,0,0,0-11,10.39,38.22,38.22,0,0,0,.57-4.55,57.72,57.72,0,0,0,8.83-6.16c.15-.14.49-.42.94-.86A11.78,11.78,0,0,1,63.05,55Z"/><path class="cls-4" d="M84.13,49.62c-2.08,2.21-2.82,6-2.93,6.68a29.56,29.56,0,0,0,8.08,26.43A42.41,42.41,0,0,0,96.66,89a43.2,43.2,0,0,0,9.08,4.7c4,1.42,8,1.52,10.86.31s5.8-4.48,3.62-13c-1.27-5-4.8-10.26-9.06-15.07a43.92,43.92,0,0,0,12.14.8,46.37,46.37,0,0,0,11-2.08A39,39,0,0,0,144.37,60c3.69-2.59,5.88-6,5.93-9.56s-2.19-8.51-13-12.75c-18.16-7.1-48.35.58-53,3.62C81,43.44,82.15,46.79,84.13,49.62Z"/><path class="cls-5" d="M84.13,49.62c-2.08,2.21-2.82,6-2.93,6.68a29.56,29.56,0,0,0,8.08,26.43A42.41,42.41,0,0,0,96.66,89a43.2,43.2,0,0,0,9.08,4.7c4,1.42,8,1.52,10.86.31s5.8-4.48,3.62-13c-1.27-5-4.8-10.26-9.06-15.07a43.92,43.92,0,0,0,12.14.8,46.37,46.37,0,0,0,11-2.08A39,39,0,0,0,144.37,60c3.69-2.59,5.88-6,5.93-9.56s-2.19-8.51-13-12.75c-18.16-7.1-48.35.58-53,3.62C81,43.44,82.15,46.79,84.13,49.62Zm14.28-9A63.63,63.63,0,0,0,108,46a159.36,159.36,0,0,0-17.54,2.28c-1.69-2.14-2.58-4.07-2.23-4.86a19.18,19.18,0,0,1,2.19-.81C92.31,42,95.08,41.29,98.41,40.57Zm11,20.31a46,46,0,0,1-6-2.66A94.28,94.28,0,0,1,94.11,52c-.52-.44-1-.9-1.52-1.36l.82-.13c2.24-.38,4.49-.72,6.73-1A55.51,55.51,0,0,0,109.38,60.88Zm.09-6.43a1.84,1.84,0,0,0-.41,0,50.79,50.79,0,0,1-4-5.4,74.56,74.56,0,0,1,9.8-.17c1.13.4,2.26.8,3.46,1.12a119.67,119.67,0,0,0,12.1,2.77C123.22,54.38,115.61,55.93,109.47,54.45Zm34.63-2.26c-7.2-1.62-14.88-2.57-21.75-4.5a69.08,69.08,0,0,1-18.57-8.11c9.18-1.46,20.69-2,29.3,1.41,9.28,3.62,11.2,7.62,11.15,10.4A4.31,4.31,0,0,1,144.1,52.19Zm-31.93,5.63c7.77.35,16.61-2.13,24.65-4,2.09.41,4.18.77,6.19,1.31a10.73,10.73,0,0,1-2.7,2.76,33.66,33.66,0,0,1-16,5.12,34.71,34.71,0,0,1-6.45-.15A61.85,61.85,0,0,1,112.17,57.82Zm-.23,32.92c-2.42-5.17-5.64-10.46-7.64-15.55a40,40,0,0,1-2.9-12.45c1.35.62,2.71,1.16,4.08,1.64,4.51,4.66,8.57,10.06,9.9,15.22,1.86,7.22-.45,9.91-2.7,10.9A5.82,5.82,0,0,1,111.94,90.74ZM99.6,70.79c.25.86.55,1.74.87,2.62a85.48,85.48,0,0,0,4,8.75c-5.21-4-10.44-8.3-12.41-12.77a3,3,0,0,0-.15-.31,32,32,0,0,1,2.34-4.5A56.13,56.13,0,0,1,99.6,70.79Zm-8.86,1.55c3.77,5.1,10.38,9.85,16.05,14.31.76,1.49,1.48,3,2.16,4.44a12.72,12.72,0,0,1-3.66-.72A34.34,34.34,0,0,1,92.76,82a27.9,27.9,0,0,1-3.23-4.18A35.39,35.39,0,0,1,90.74,72.34ZM86.09,58.66c.12-.48.25-1,.41-1.43,1.66,1.46,3.29,2.92,4.85,4.4a33.29,33.29,0,0,0-4.52,10.08,27.68,27.68,0,0,1-.7-13Zm1.8-4.85c.44.44.78.72.94.86a57.23,57.23,0,0,0,8.83,6.16,34.49,34.49,0,0,0,.57,4.55A143.73,143.73,0,0,0,87.25,55,11.79,11.79,0,0,1,87.89,53.81Z"/></svg>