<svg id="Layer_1" data-name="Layer 1" xmlns="http://www.w3.org/2000/svg" viewBox="0 0 150.36 143.07"><defs><style>.cls-1{fill:#273b54;}.cls-2{fill:#ffcb29;}.cls-3{fill:#182738;opacity:0.32;}.cls-4{fill:#acdde5;opacity:0.8;}.cls-5{fill:#6a8b9e;opacity:0.7;}</style></defs><path class="cls-1" d="M98.24.7C94.92,2.52,87.55,16.25,83,25.26a27.08,27.08,0,0,0-15.55,0C62.83,16.38,55.46,2.52,52.15.7,47.07-2,40.93,3.87,45.74,8.54,50,12.63,54.56,9.6,64.16,26.42,57,29.66,52.07,35.94,52.07,43.19c0,10.54,10.23,19.07,23.06,19.07s23.11-8.53,23.11-19.07c0-7.25-4.91-13.57-12.14-16.79C96.19,8.8,100.74,12.28,104.56,8.54,109.43,3.87,103.15-2,98.24.7Z"/><path class="cls-1" d="M109.32,78.75a39.61,39.61,0,0,1-.52,6,75.76,75.76,0,0,1-2,8.59,90.85,90.85,0,0,1-3.74,10.48,73.4,73.4,0,0,1-4,8.1,51.93,51.93,0,0,1-7.55,10.26c-4.67,4.83-10.15,8-16.37,8s-11.69-3.11-16.36-8a51.72,51.72,0,0,1-7.55-10.29,76.37,76.37,0,0,1-4-8.11,90.79,90.79,0,0,1-3.73-10.48,72.32,72.32,0,0,1-1.94-8.55,37.2,37.2,0,0,1-.55-6,27.22,27.22,0,0,1,.61-5.61c1.51-7.61,6.52-14.39,13.9-18.81a38.63,38.63,0,0,1,19.64-4.82,38.58,38.58,0,0,1,19.64,4.82c7.37,4.39,12.38,11.13,13.9,18.72A26.74,26.74,0,0,1,109.32,78.75Z"/><path class="cls-2" d="M99,112a108.59,108.59,0,0,0-23.83-2.49A108.47,108.47,0,0,0,51.32,112l8,10.7h0a119.4,119.4,0,0,1,31.6,0h0Z"/><path class="cls-2" d="M106.84,93.29a90.85,90.85,0,0,1-3.74,10.48,110.16,110.16,0,0,0-27.91-3.35,110.08,110.08,0,0,0-27.95,3.35,90.79,90.79,0,0,1-3.73-10.48,103.51,103.51,0,0,1,31.68-4.47A103.32,103.32,0,0,1,106.84,93.29Z"/><path class="cls-2" d="M109.32,78.75a39.61,39.61,0,0,1-.52,6,100.1,100.1,0,0,0-33.61-5.18A100.24,100.24,0,0,0,41.57,84.7a37.2,37.2,0,0,1-.55-6,27.22,27.22,0,0,1,.61-5.61,100.43,100.43,0,0,1,33.56-5.28,100.38,100.38,0,0,1,33.52,5.19A26.74,26.74,0,0,1,109.32,78.75Z"/><path class="cls-1" d="M108.71,73.11A24,24,0,0,0,107.09,68,29.61,29.61,0,0,0,94.81,54.3a38.65,38.65,0,0,0-19.63-4.83l0,0a38.65,38.65,0,0,0-19.65,4.83A30,30,0,0,0,43.25,68a25.26,25.26,0,0,0-1.59,5.14A25.79,25.79,0,0,0,41,78.7a37.67,37.67,0,0,0,.53,6,72.26,72.26,0,0,0,2,8.6,90.18,90.18,0,0,0,3.72,10.48,80.15,80.15,0,0,0,4,8.1c.25.45.52.88.78,1.33a46.23,46.23,0,0,0,3,4.47c.39.53.8,1.06,1.25,1.57.78,1,1.62,2,2.5,2.89,4.66,4.83,10.15,8,16.37,8s11.69-3.15,16.35-8c.9-.94,1.74-1.91,2.54-2.91.43-.51.84-1.06,1.25-1.6a53.1,53.1,0,0,0,3-4.48c.26-.43.51-.88.76-1.31a76.14,76.14,0,0,0,4-8.1,87.74,87.74,0,0,0,3.74-10.48,86.3,86.3,0,0,0,2-8.58,42.66,42.66,0,0,0,.51-6A26.41,26.41,0,0,0,108.71,73.11ZM98.64,83.49a73.27,73.27,0,0,1-1.76,7.67,84.13,84.13,0,0,1-3.42,9.58c-.41,1-.84,1.92-1.31,2.86q-1,2.16-2.19,4.24a.42.42,0,0,0-.08.12c-.27.47-.54,1-.84,1.42a43.29,43.29,0,0,1-5.41,7.14c-2.17,2.19-5.3,4.79-8.45,4.79s-6.36-2.56-8.47-4.79a41.88,41.88,0,0,1-5.36-7.1,16.09,16.09,0,0,1-.86-1.44l-.07-.12q-1.19-2.08-2.21-4.24c-.47-1-.9-1.92-1.31-2.9a77.69,77.69,0,0,1-3.39-9.52,66.32,66.32,0,0,1-1.74-7.67,30.71,30.71,0,0,1-.47-4.77,18.42,18.42,0,0,1,.47-4.1,18.18,18.18,0,0,1,4.32-8.73,21.2,21.2,0,0,1,5.23-4.36,27,27,0,0,1,13.88-3.3l0,0a27.15,27.15,0,0,1,13.9,3.32,22.47,22.47,0,0,1,5.26,4.38,18.63,18.63,0,0,1,4.3,8.71,20.24,20.24,0,0,1,.43,4.1A36.14,36.14,0,0,1,98.64,83.49Z"/><polygon class="cls-1" points="75.17 143.07 68.02 126.08 82.33 126.08 75.17 143.07"/><path class="cls-3" d="M66.58,94.52a121.73,121.73,0,0,1-5.23,14.9,82.56,82.56,0,0,1-5,9.82c-.45-.51-.86-1-1.25-1.57a46.23,46.23,0,0,1-3-4.47c-.26-.45-.53-.88-.78-1.33a80.15,80.15,0,0,1-4-8.1,90.18,90.18,0,0,1-3.72-10.48,72.26,72.26,0,0,1-2-8.6,37.67,37.67,0,0,1-.53-6,25.79,25.79,0,0,1,.62-5.61A25.26,25.26,0,0,1,43.25,68a66.34,66.34,0,0,1,12.84-2c4-.23,7.16.1,8.65.77C73.2,70.55,67.36,92.06,66.58,94.52Z"/><path class="cls-3" d="M109.32,78.72a42.66,42.66,0,0,1-.51,6,86.3,86.3,0,0,1-2,8.58,87.74,87.74,0,0,1-3.74,10.48,76.14,76.14,0,0,1-4,8.1c-.25.43-.5.88-.76,1.31a53.1,53.1,0,0,1-3,4.48c-.41.54-.82,1.09-1.25,1.6a81.4,81.4,0,0,1-5-9.84A120.53,120.53,0,0,1,83.8,94.52c-.8-2.46-6.63-24,1.82-27.82,1.51-.69,4.62-1,8.72-.77a65.65,65.65,0,0,1,12.75,2,24,24,0,0,1,1.62,5.16A26.41,26.41,0,0,1,109.32,78.72Z"/><path class="cls-4" d="M64.73,54.46c-6.36-2.9-41.44.66-56.55,24.69C-1,93.51-.8,104.24,1,110.71a22.72,22.72,0,0,0,11,14.32,29.37,29.37,0,0,0,12.77,2.85A30.74,30.74,0,0,0,37,125.26c13.16-5.75,23.13-20.22,29.62-43C67.35,79.82,73.19,58.31,64.73,54.46Z"/><path class="cls-4" d="M85.61,54.46c6.37-2.9,41.45.66,56.67,24.69,9.09,14.32,8.89,25.09,7.11,31.56A22.75,22.75,0,0,1,138.46,125a29.73,29.73,0,0,1-12.78,2.85,30.74,30.74,0,0,1-12.28-2.62c-13.16-5.75-23.1-20.22-29.61-43C83,79.82,77.16,58.31,85.61,54.46Z"/><path class="cls-5" d="M64.73,54.46c-6.36-2.9-41.44.66-56.55,24.69C-1,93.51-.8,104.24,1,110.71a22.72,22.72,0,0,0,11,14.32,29.37,29.37,0,0,0,12.77,2.85A30.74,30.74,0,0,0,37,125.26c13.16-5.75,23.13-20.22,29.62-43C67.35,79.82,73.19,58.31,64.73,54.46ZM59,60.6a14.1,14.1,0,0,1,2.68.19c.76,1.27.82,5.4.15,10.42a107,107,0,0,0-19.3,6.14A112.06,112.06,0,0,0,49.73,61.5,56.28,56.28,0,0,1,59,60.6Zm.94,19.71A88.09,88.09,0,0,1,48.61,106a157.66,157.66,0,0,0,3.82-26.83c2.75-.88,5.55-1.64,8.37-2.36C60.54,78,60.25,79.17,59.92,80.31ZM7.73,108.86c-1.41-5.11-1.47-13.77,6.27-26,7.22-11.4,19.34-17.23,29.61-20A102.53,102.53,0,0,1,28.47,89.05c-6.14,7.68-13.65,14.06-20.27,21.31A15.35,15.35,0,0,1,7.73,108.86Zm33.2,5.86a27.32,27.32,0,0,1-6.61,4.09,23.2,23.2,0,0,1-19.16,0,13.18,13.18,0,0,1-4.09-3.56c1.88-2,3.81-4.09,5.75-6.14,9.25-1.35,19.65-2,27.51-7.22Q42.8,108.37,40.93,114.72ZM45.23,94c-5.59,6.4-14.33,8-22.51,9.1A130.89,130.89,0,0,0,33.85,90.81c1-1.35,2-2.72,3-4.09a54.53,54.53,0,0,1,10.23-5.44c-.28,4.09-.76,8.33-1.37,12.42A1.86,1.86,0,0,0,45.23,94Z"/><path class="cls-5" d="M83.69,82.24c6.51,22.78,16.37,37.25,29.61,43a30.74,30.74,0,0,0,12.28,2.62A29.66,29.66,0,0,0,138.35,125a22.68,22.68,0,0,0,10.93-14.32c1.78-6.47,2.05-17.2-7.1-31.56-15.12-24-50.2-27.55-56.57-24.65C77.16,58.31,83,79.82,83.69,82.24Zm16.92-20.71a111.38,111.38,0,0,0,7.23,15.84,107,107,0,0,0-19.28-6.14c-.68-5-.64-9.15.12-10.42a14.16,14.16,0,0,1,2.68-.19A54.09,54.09,0,0,1,100.61,61.53Zm-11,15.32c2.8.72,5.61,1.48,8.37,2.36A155.67,155.67,0,0,0,101.74,106,88.5,88.5,0,0,1,90.42,80.31,34.28,34.28,0,0,1,89.56,76.85Zm52.58,33.51c-6.61-7.25-14.12-13.63-20.24-21.31a102,102,0,0,1-15.17-26.17c10.24,2.78,22.52,8.61,29.62,20,7.73,12.28,7.69,20.86,6.28,26C142.49,109.38,142.32,109.87,142.14,110.36Zm-35.94-8.47c7.88,5.26,18.28,5.87,27.51,7.22,2,2,3.89,4.09,5.75,6.14a13.18,13.18,0,0,1-4.09,3.56,23.2,23.2,0,0,1-19.16,0,27.13,27.13,0,0,1-6.61-4.09A121.8,121.8,0,0,1,106.2,101.89Zm-1.51-8.31c-.64-4.1-1.11-8.19-1.4-12.43a53.78,53.78,0,0,1,10.24,5.45c1,1.41,2,2.78,3,4.09A133.44,133.44,0,0,0,127.67,103c-8.35-1.08-17-2.7-22.51-9.11A3.24,3.24,0,0,0,104.69,93.58Z"/></svg>