<svg id="Layer_1" data-name="Layer 1" xmlns="http://www.w3.org/2000/svg" viewBox="0 0 150.29 101.43"><defs><style>.cls-1{fill:#273b54;}.cls-2{fill:#ffdc10;}.cls-3{fill:#182738;opacity:0.32;}.cls-4{fill:#acdde5;opacity:0.8;}.cls-5{fill:#6a8b9e;opacity:0.7;}</style></defs><path class="cls-1" d="M98.11.48C94.68,2.36,85,22.74,85,22.74l-.09.21c-1.16-2.41-5.1-4.21-9.83-4.21S66.47,20.52,65.26,23l-.09-.21S55.58,2.36,52.15.48s-7.74,2.18-4.39,5.38,6.92,0,15.67,18a3.14,3.14,0,0,0-1.18-.23c-2.81,0-5,3.44-5,6.73a23.67,23.67,0,0,0,3.9,11,16.49,16.49,0,0,0,14,7,16.51,16.51,0,0,0,14-7,23.93,23.93,0,0,0,3.9-10.95c0-3.29-2.25-6.73-5-6.73a3.22,3.22,0,0,0-1.18.23c8.65-18,12.25-14.82,15.61-18S101.54-1.4,98.11.48Z"/><path class="cls-1" d="M97.11,58.89a26.6,26.6,0,0,1-.33,4,48.93,48.93,0,0,1-1.27,5.68,62.41,62.41,0,0,1-2.4,6.93,50.68,50.68,0,0,1-2.58,5.36,34.9,34.9,0,0,1-4.85,6.78c-3,3.19-6.53,5.27-10.53,5.27S67.6,90.8,64.61,87.62a34.85,34.85,0,0,1-4.86-6.81,49.68,49.68,0,0,1-2.57-5.36,58.1,58.1,0,0,1-2.4-6.94,50,50,0,0,1-1.28-5.64,24.87,24.87,0,0,1-.35-3.94,18.55,18.55,0,0,1,.39-3.71,19,19,0,0,1,9-12.38,24.35,24.35,0,0,1,12.64-3.19,24.3,24.3,0,0,1,12.64,3.19,18.91,18.91,0,0,1,9,12.44A18.3,18.3,0,0,1,97.11,58.89Z"/><path class="cls-2" d="M90.48,80.87a68.49,68.49,0,0,0-15.33-1.64,68.85,68.85,0,0,0-15.37,1.64L65,88h0a75.29,75.29,0,0,1,20.34,0h0Z"/><path class="cls-2" d="M95.51,68.51a61.71,61.71,0,0,1-2.4,6.93,68.57,68.57,0,0,0-18-2.21,68.67,68.67,0,0,0-18,2.21,59.72,59.72,0,0,1-2.39-6.93,65,65,0,0,1,20.37-3A64.69,64.69,0,0,1,95.51,68.51Z"/><path class="cls-2" d="M97.11,58.89a26.6,26.6,0,0,1-.33,4A63,63,0,0,0,75.15,59.4,62.82,62.82,0,0,0,53.5,62.87a24.87,24.87,0,0,1-.35-3.94,18.55,18.55,0,0,1,.39-3.71,63.09,63.09,0,0,1,21.61-3.49,62.86,62.86,0,0,1,21.57,3.39A17.74,17.74,0,0,1,97.11,58.89Z"/><path class="cls-1" d="M96.72,55.19a18.94,18.94,0,0,0-9-12.39,24.54,24.54,0,0,0-12.64-3.19v-.08A24.82,24.82,0,0,0,63.74,42c-.42.21-.84.44-1.25.68a19,19,0,0,0-9,12.44,18.47,18.47,0,0,0-.39,3.71,25.73,25.73,0,0,0,.35,4,51.52,51.52,0,0,0,1.28,5.63,57.61,57.61,0,0,0,2.42,6.94,47.72,47.72,0,0,0,2.57,5.35,28.37,28.37,0,0,0,1.78,2.94,34.17,34.17,0,0,0,3.06,3.89c3,3.19,6.53,5.27,10.54,5.27s7.51-2.09,10.53-5.27a34.55,34.55,0,0,0,4.86-6.81,50.61,50.61,0,0,0,2.59-5.35,62.07,62.07,0,0,0,2.38-7,51.19,51.19,0,0,0,1.27-5.67,25.94,25.94,0,0,0,.33-3.93A18.47,18.47,0,0,0,96.72,55.19ZM90.23,62a49.5,49.5,0,0,1-1.12,5.07,57.15,57.15,0,0,1-2.21,6.33,43.68,43.68,0,0,1-2.3,4.78,27.88,27.88,0,0,1-4,5.7c-1.4,1.45-3.41,3.16-5.45,3.16s-4.08-1.72-5.45-3.16a27.93,27.93,0,0,1-3.82-5.32,2.9,2.9,0,0,1-.19-.34,40.65,40.65,0,0,1-2.31-4.8,52.09,52.09,0,0,1-2.19-6.29,45.39,45.39,0,0,1-1.12-5.09,19.53,19.53,0,0,1-.3-3.15,12.52,12.52,0,0,1,.3-2.72,13.09,13.09,0,0,1,6.15-8.67A15.63,15.63,0,0,1,70,46a17.12,17.12,0,0,1,5.15-.63v0a17.31,17.31,0,0,1,9,2.2,13,13,0,0,1,6.15,8.66,13.77,13.77,0,0,1,.28,2.71A20.72,20.72,0,0,1,90.23,62Z"/><polygon class="cls-1" points="75.13 101.43 70.54 90.19 79.74 90.19 75.13 101.43"/><path class="cls-3" d="M73.22,50.43a.81.81,0,0,1,0,.31V51c0,.1,0,.21,0,.31a1.66,1.66,0,0,1,0,.22c0,.1-.05.2-.08.31A2,2,0,0,1,73,52c0,.1-.07.19-.1.28s-.07.17-.11.25l-.13.25c0,.1-.1.19-.14.27s-.1.16-.14.24a2,2,0,0,1-.2.28l-.12.2-.26.33-.12.15c-.1.12-.21.25-.33.37l-.08.09a6.2,6.2,0,0,1-.44.45h0c-.32.31-.64.61-1,.9,1.5,2.8,1.22,6.84,1.16,7.53a30.75,30.75,0,0,1-5.14,15,29,29,0,0,1-4.31,5.14,28.37,28.37,0,0,1-1.78-2.94,47.72,47.72,0,0,1-2.57-5.35,57.61,57.61,0,0,1-2.42-6.94,51.52,51.52,0,0,1-1.28-5.63,25.73,25.73,0,0,1-.35-4,18.47,18.47,0,0,1,.39-3.71,19,19,0,0,1,9-12.44c.41-.24.83-.47,1.25-.68A66.43,66.43,0,0,1,70,46a14.61,14.61,0,0,1,2,1.7,3.57,3.57,0,0,1,.43.55,1.38,1.38,0,0,1,.16.23l.19.31a1.94,1.94,0,0,1,.13.3,1.36,1.36,0,0,1,.11.25,1.86,1.86,0,0,1,.1.31,1,1,0,0,1,.07.24c0,.1,0,.21,0,.31A.93.93,0,0,1,73.22,50.43Z"/><path class="cls-4" d="M67.24,54.28c1.5,2.79,1.22,6.84,1.16,7.52A30.89,30.89,0,0,1,53.14,86.29,44.05,44.05,0,0,1,44,90.6a44.82,44.82,0,0,1-10.43,2.3c-4.42.35-8.49-.63-11-2.61s-4.63-6.08-.15-14.05C25,71.54,30,67.18,35.58,63.48A45.68,45.68,0,0,1,23.12,61a48.4,48.4,0,0,1-10.48-5,41,41,0,0,1-9-7.45C.67,44.92-.62,40.88.28,37.29s4.51-8,16.58-9.35c20.22-2.28,48.59,13.6,52.5,17.92C72.1,48.9,70,52,67.24,54.28Z"/><path class="cls-5" d="M69.36,45.86c-3.91-4.32-32.28-20.2-52.5-17.92C4.79,29.3,1.18,33.71.28,37.29s.39,7.63,3.41,11.24a41,41,0,0,0,9,7.45,48.4,48.4,0,0,0,10.48,5,46.06,46.06,0,0,0,12.46,2.46C30,67.18,25,71.54,22.39,76.24c-4.48,8-2.39,12.07.15,14.05s6.62,3,11,2.61A44.82,44.82,0,0,0,44,90.6a44.05,44.05,0,0,0,9.13-4.31A30.89,30.89,0,0,0,68.4,61.8c.06-.68.34-4.73-1.16-7.52C70,52,72.1,48.9,69.36,45.86Zm-6.6-.34a19.85,19.85,0,0,1,2,1.41c.14.88-1.28,2.6-3.55,4.3a167.91,167.91,0,0,0-17.08-7,66,66,0,0,0,11.15-2.89C58.45,42.93,61,44.43,62.76,45.52ZM51.13,49.86c2.17.89,4.35,1.85,6.52,2.83l.78.35c-.6.34-1.25.66-1.89,1a97.84,97.84,0,0,1-11,3.76,49.44,49.44,0,0,1-6.77,1.07A57.89,57.89,0,0,0,51.13,49.86ZM19.66,45a124.54,124.54,0,0,0,13,.46c1.3,0,2.55-.1,3.8-.19A76.44,76.44,0,0,1,46.24,48a52.2,52.2,0,0,1-5.44,4.39l-.42-.09C33.79,52.17,26.53,48.56,19.66,45ZM6.15,39.88c.7-2.81,3.71-6.34,14.05-7.49,9.59-1.08,21.07,2.53,29.93,6.48A72.25,72.25,0,0,1,29.22,42c-7.45.1-15.45-1-23.15-1.32A4.78,4.78,0,0,1,6.15,39.88ZM29.69,58.6A36.06,36.06,0,0,1,23.15,57,35.09,35.09,0,0,1,8.34,47.53a11.09,11.09,0,0,1-2-3.51c2.18,0,4.39.2,6.6.35,7.62,4,15.86,8.89,23.8,10.64A67,67,0,0,1,29.69,58.6ZM27.45,87.82c-2-1.6-3.61-4.93.21-11.72,2.72-4.84,8.27-9.2,14.07-12.68,1.52-.11,3-.3,4.57-.56A42.17,42.17,0,0,1,40,74.64c-3.39,4.6-8.07,9.06-11.9,13.63A5.22,5.22,0,0,1,27.45,87.82ZM53,66.64a33.34,33.34,0,0,1,1.15,5.17,2,2,0,0,0-.24.26c-3.19,4-9.62,6.9-16,9.54a89.85,89.85,0,0,0,6.44-7.74c.56-.8,1.09-1.6,1.58-2.4A56.13,56.13,0,0,1,53,66.64ZM54.2,81.26a28.47,28.47,0,0,1-4.38,3.34,36,36,0,0,1-14.89,5.09A13.75,13.75,0,0,1,31,89.42c1.08-1.31,2.21-2.6,3.37-3.89,6.93-3,14.88-6,20.05-10.12A36.86,36.86,0,0,1,54.2,81.26Zm8.59-18.39a29.11,29.11,0,0,1-4.22,13,34.77,34.77,0,0,0-1.84-11.4c2-1.06,4-2.1,6.07-3.13,0,.52,0,1,0,1.56Zm-.14-4a150.88,150.88,0,0,0-13.87,7.53,38.17,38.17,0,0,0,1.8-4.44,59.33,59.33,0,0,0,10.56-3.83c.2-.1.62-.29,1.18-.62A11.79,11.79,0,0,1,62.65,58.85Z"/><path class="cls-3" d="M77.07,50.43a1.61,1.61,0,0,0,0,.31V51c0,.1,0,.21,0,.31a1.66,1.66,0,0,1,0,.22l.09.31a1,1,0,0,0,.07.23c0,.1.07.19.1.28s.07.17.11.25l.12.25.14.27c0,.09.1.16.15.24a1.38,1.38,0,0,0,.19.28l.13.2.25.33.13.15.32.37.08.09c.15.15.29.31.44.45h0c.32.31.65.61,1,.9-1.51,2.8-1.22,6.84-1.17,7.53a30.75,30.75,0,0,0,5.14,15,29.9,29.9,0,0,0,4.31,5.14,30.32,30.32,0,0,0,1.79-2.94,49.53,49.53,0,0,0,2.57-5.35,59.34,59.34,0,0,0,2.41-6.94,49.29,49.29,0,0,0,1.28-5.63,24.56,24.56,0,0,0,.35-4,18.47,18.47,0,0,0-.39-3.71,19,19,0,0,0-9-12.44c-.4-.24-.83-.47-1.25-.68a66.07,66.07,0,0,0-6.23,4,14,14,0,0,0-2,1.7,4.42,4.42,0,0,0-.44.55,1.28,1.28,0,0,0-.15.23c-.07.12-.14.22-.2.31s-.08.2-.13.3a2.72,2.72,0,0,0-.11.25c0,.1-.07.21-.1.31a1.68,1.68,0,0,0-.07.24c0,.1,0,.21,0,.31A1.75,1.75,0,0,0,77.07,50.43Z"/><path class="cls-4" d="M83.06,54.28c-1.51,2.79-1.23,6.84-1.17,7.52A30.9,30.9,0,0,0,97.16,86.29a43.81,43.81,0,0,0,9.13,4.31,44.85,44.85,0,0,0,10.42,2.3c4.43.35,8.5-.63,11-2.61s4.64-6.08.16-14.05c-2.63-4.7-7.6-9.06-13.19-12.76A45.61,45.61,0,0,0,127.17,61a48.4,48.4,0,0,0,10.48-5,40.79,40.79,0,0,0,8.95-7.45c3-3.61,4.31-7.65,3.41-11.24s-4.5-8-16.57-9.35c-20.23-2.28-48.6,13.6-52.5,17.92C78.2,48.9,80.29,52,83.06,54.28Z"/><path class="cls-5" d="M83.06,54.28c-1.51,2.79-1.23,6.84-1.17,7.52A30.9,30.9,0,0,0,97.16,86.29a43.81,43.81,0,0,0,9.13,4.31,44.85,44.85,0,0,0,10.42,2.3c4.43.35,8.5-.63,11-2.61s4.64-6.08.16-14.05c-2.63-4.7-7.6-9.06-13.19-12.76A46,46,0,0,0,127.17,61a48.4,48.4,0,0,0,10.48-5,40.79,40.79,0,0,0,8.95-7.45c3-3.61,4.31-7.65,3.41-11.24s-4.5-8-16.57-9.35c-20.23-2.28-48.6,13.6-52.5,17.92C78.2,48.9,80.29,52,83.06,54.28Zm12-13a66.06,66.06,0,0,0,11.16,2.89,167,167,0,0,0-17.08,7c-2.28-1.7-3.7-3.42-3.56-4.3a20,20,0,0,1,2-1.41C89.26,44.43,91.85,42.93,95,41.31Zm16.54,17.53a49.2,49.2,0,0,1-6.77-1.07,97.84,97.84,0,0,1-11-3.76c-.65-.31-1.29-.63-1.9-1,.27-.13.52-.24.79-.35,2.16-1,4.34-1.94,6.52-2.83A57.89,57.89,0,0,0,111.56,58.84Zm-1.65-6.52-.42.09A52.09,52.09,0,0,1,104.06,48a75.54,75.54,0,0,1,9.83-2.8c1.25.09,2.5.19,3.79.19A124.35,124.35,0,0,0,130.63,45C123.76,48.56,116.5,52.17,109.91,52.32Zm34.32-11.6c-7.7.31-15.71,1.42-23.15,1.32a72.31,72.31,0,0,1-20.92-3.17c8.87-3.95,20.34-7.56,29.94-6.48,10.33,1.15,13.34,4.68,14,7.49A4,4,0,0,1,144.23,40.72ZM113.54,55c7.93-1.75,16.18-6.63,23.79-10.64,2.22-.15,4.42-.35,6.6-.35a10.9,10.9,0,0,1-2,3.51A35.06,35.06,0,0,1,127.15,57a36.37,36.37,0,0,1-6.55,1.59A66.86,66.86,0,0,1,113.54,55Zm8.63,33.26c-3.83-4.57-8.51-9-11.89-13.63A42.17,42.17,0,0,1,104,62.86c1.53.26,3,.45,4.56.56,5.8,3.48,11.35,7.84,14.08,12.68,3.82,6.79,2.22,10.12.21,11.72A5.34,5.34,0,0,1,122.17,88.27Zm-17.82-16.8c.49.8,1,1.6,1.59,2.4a87.94,87.94,0,0,0,6.43,7.74C106,79,99.6,76.05,96.41,72.07a1.94,1.94,0,0,0-.23-.26,33.34,33.34,0,0,1,1.15-5.17A56.77,56.77,0,0,1,104.35,71.47Zm-8.51,3.94c5.17,4.13,13.12,7.14,20,10.12,1.17,1.29,2.29,2.58,3.37,3.89a13.72,13.72,0,0,1-3.89.27,36.09,36.09,0,0,1-14.89-5.09,29,29,0,0,1-4.38-3.34A36.86,36.86,0,0,1,95.84,75.41ZM87.47,62.87a13.53,13.53,0,0,1,0-1.56c2.07,1,4.11,2.07,6.07,3.13a35,35,0,0,0-1.84,11.4,29.1,29.1,0,0,1-4.21-13Zm.5-5.38c.56.33,1,.52,1.18.62a59.61,59.61,0,0,0,10.56,3.83,38.17,38.17,0,0,0,1.8,4.44,150.71,150.71,0,0,0-13.86-7.53A11.84,11.84,0,0,1,88,57.49Z"/></svg>