<?xml version="1.0" encoding="UTF-8" standalone="no"?>
<svg
   id="Layer_1"
   data-name="Layer 1"
   viewBox="0 0 300 345"
   version="1.1"
   sodipodi:docname="birds_nest2.svg"
   xml:space="preserve"
   inkscape:version="1.2 (dc2aedaf03, 2022-05-15)"
   xmlns:inkscape="http://www.inkscape.org/namespaces/inkscape"
   xmlns:sodipodi="http://sodipodi.sourceforge.net/DTD/sodipodi-0.dtd"
   xmlns="http://www.w3.org/2000/svg"
   xmlns:svg="http://www.w3.org/2000/svg"><sodipodi:namedview
     id="namedview51"
     pagecolor="#505050"
     bordercolor="#ffffff"
     borderopacity="1"
     inkscape:showpageshadow="0"
     inkscape:pageopacity="0"
     inkscape:pagecheckerboard="1"
     inkscape:deskcolor="#505050"
     showgrid="false"
     inkscape:zoom="1.0819965"
     inkscape:cx="48.983523"
     inkscape:cy="178.37396"
     inkscape:window-width="1366"
     inkscape:window-height="705"
     inkscape:window-x="-8"
     inkscape:window-y="-8"
     inkscape:window-maximized="1"
     inkscape:current-layer="Layer_1" /><defs
     id="defs9"><inkscape:path-effect
       effect="fillet_chamfer"
       id="path-effect9497"
       is_visible="false"
       lpeversion="1"
       nodesatellites_param="F,0,0,1,0,0,0,1 @ F,0,0,1,0,0,0,1 @ F,0,0,1,0,18.652132,0,1 @ F,0,0,1,0,0,0,1"
       unit="px"
       method="auto"
       mode="F"
       radius="0"
       chamfer_steps="1"
       flexible="false"
       use_knot_distance="true"
       apply_no_radius="true"
       apply_with_radius="true"
       only_selected="false"
       hide_knots="false" /><inkscape:path-effect
       effect="fillet_chamfer"
       id="path-effect9418"
       is_visible="true"
       lpeversion="1"
       nodesatellites_param="F,0,0,1,0,0,0,1 @ F,0,0,1,0,0,0,1 @ F,0,0,1,0,18.652132,0,1 @ F,0,0,1,0,0,0,1"
       unit="px"
       method="auto"
       mode="F"
       radius="0"
       chamfer_steps="1"
       flexible="false"
       use_knot_distance="true"
       apply_no_radius="true"
       apply_with_radius="true"
       only_selected="false"
       hide_knots="false" /><style
       id="style2">.cls-1{fill:url(#linear-gradient);}.cls-2{fill:#d69b5a;}.cls-3{fill:#c07a3f;}.cls-4{fill:#f0e0c1;}.cls-5,.cls-6{fill:#a67568;}.cls-5{fill-opacity:0.2;}</style><linearGradient
       id="linear-gradient"
       x1="150"
       y1="356.11"
       x2="150"
       y2="161.16"
       gradientUnits="userSpaceOnUse"><stop
         offset="0"
         stop-color="#d69b5a"
         id="stop4" /><stop
         offset="0.5"
         stop-color="#9a5e39"
         id="stop6" /></linearGradient></defs><path
     class="cls-1"
     d="M 263.62,345 H 36.38 A 36.38,36.38 0 0 1 0,308.62 v -49.48 h 300 v 49.48 A 36.38,36.38 0 0 1 263.62,345 Z"
     id="path11"
     style="fill:url(#linear-gradient)" /><rect
     class="cls-2"
     y="45"
     width="300"
     height="253.39"
     rx="36.380001"
     id="rect13"
     x="0" /><path
     class="cls-3"
     d="m 53.8,184.45 -16.33,-15.85 2.62,0.14 -6.54,5.06 -1.64,1.26 a 5.11,5.11 0 0 0 -1,1.05 4.85,4.85 0 0 0 -0.88,2.73 5,5 0 0 0 0.21,1.43 c 0.05,0.19 0.2,0.58 0.31,0.88 l 0.35,1 1.4,3.88 2.81,7.78 v 0 l 1,2.05 -2.84,0.63 a 50.82,50.82 0 0 1 -8.8,1.06 l -2.2,0.06 h -1.72 c -0.18,0 -0.23,0 -0.34,0 a 4.14,4.14 0 0 0 -3.13,1.65 4.52,4.52 0 0 0 -0.66,1.15 5,5 0 0 0 -0.3,1.36 c 0,0.24 0,0.49 0,0.74 a 4.65,4.65 0 0 0 0.15,0.87 54.91,54.91 0 0 1 1.55,8.91 54.59,54.59 0 0 1 -5.32,-7.29 12.6,12.6 0 0 1 -0.62,-1.19 11.06,11.06 0 0 1 -0.46,-1.41 9,9 0 0 1 -0.15,-3 9.21,9.21 0 0 1 2.73,-5.47 9.56,9.56 0 0 1 2.65,-1.78 9.35,9.35 0 0 1 3.1,-0.77 c 0.25,0 0.57,0 0.77,0 h 1.68 c 0.73,0 1.46,0 2.2,0.07 a 51.79,51.79 0 0 1 8.8,1.05 l -1.88,2.68 v 0 l -2.81,-7.77 -1.4,-3.89 -0.35,-1 c -0.12,-0.34 -0.23,-0.59 -0.37,-1.06 a 8.78,8.78 0 0 1 3.08,-9.56 l 1.63,-1.26 6.54,-5 1.36,-1.12 1.25,1.21 16.32,15.85 z"
     id="path15" /><path
     class="cls-3"
     d="m 31.58,116.35 a 36.24,36.24 0 0 1 -2.76,-5.91 58.35,58.35 0 0 1 -1.88,-6.08 l -0.39,-1.54 -0.19,-0.77 -0.1,-0.41 c 0,-0.21 -0.08,-0.41 -0.1,-0.62 a 6.47,6.47 0 0 1 3.34,-6.42 7.82,7.82 0 0 1 2.11,-0.76 c 1,-0.25 2,-0.51 3.08,-0.73 l 1.54,-0.34 0.77,-0.17 0.4,-0.08 0.64,-0.1 a 6.42,6.42 0 0 1 4.77,1.39 6.56,6.56 0 0 1 1.6,1.92 7.12,7.12 0 0 1 0.49,1.14 c 0.05,0.19 0.12,0.43 0.15,0.57 l 0.08,0.39 c 0.22,1 0.44,2.06 0.63,3.1 0.39,2.08 0.72,4.17 0.92,6.3 a 44.77,44.77 0 0 1 0.32,6.47 44.07,44.07 0 0 1 -3,-5.77 c -0.87,-2 -1.61,-3.94 -2.29,-5.94 -0.34,-1 -0.65,-2 -1,-3 l -0.12,-0.37 c 0,-0.12 -0.06,-0.13 -0.08,-0.19 a 1.41,1.41 0 0 0 -0.18,-0.29 1.54,1.54 0 0 0 -0.49,-0.43 1.64,1.64 0 0 0 -1.19,-0.2 l -2.81,0.72 c -1,0.26 -2,0.48 -3.08,0.72 a 5.16,5.16 0 0 0 -0.88,0.23 1.71,1.71 0 0 0 -0.47,0.34 1.55,1.55 0 0 0 -0.47,1.11 v 0.16 a 3.19,3.19 0 0 0 0.05,0.37 l 0.11,0.78 0.22,1.57 a 58.07,58.07 0 0 1 0.54,6.34 35.11,35.11 0 0 1 -0.28,6.5 z"
     id="path17" /><path
     class="cls-4"
     d="m 19.258795,215.10819 c 23.66475,41.71986 57.45568,45.22657 87.101805,28.40324 29.64613,-16.82333 44.00034,-47.59582 20.33559,-89.33233 C 103.03145,112.44258 52.106465,96.618003 30.106295,109.08014 8.1061251,121.54228 -4.4059446,173.37168 19.258795,215.10819 Z"
     id="path353"
     style="stroke-width:0.554859;fill:#f4e9d3;fill-opacity:1" /><path
     class="cls-3"
     d="m 264.81,165.91 c 3.21,-3.71 6.54,-7.3 9.94,-10.82 0.85,-0.88 1.69,-1.77 2.56,-2.64 a 9.08,9.08 0 0 1 4.49,-2.45 8.92,8.92 0 0 1 5.16,0.4 9.16,9.16 0 0 1 2.26,1.32 10.23,10.23 0 0 1 1,0.89 c 0.27,0.31 0.61,0.7 0.75,0.9 l 1.11,1.46 0.3,0.39 0.37,0.54 a 7.89,7.89 0 0 1 0.61,1.15 8.81,8.81 0 0 1 0.62,5.06 8.91,8.91 0 0 1 -0.81,2.43 8.66,8.66 0 0 1 -0.66,1.1 l -0.37,0.5 -0.29,0.35 c -0.77,1 -1.54,1.9 -2.34,2.83 a 61.46,61.46 0 0 1 -10.83,10.19 61.08,61.08 0 0 1 7.17,-13 c 0.7,-1 1.43,-2 2.15,-3 l 0.27,-0.37 0.17,-0.25 a 3.89,3.89 0 0 0 0.25,-0.5 3.46,3.46 0 0 0 0.28,-1.06 3.66,3.66 0 0 0 -0.38,-2.09 c -0.08,-0.16 -0.17,-0.31 -0.26,-0.47 l -0.16,-0.21 -0.27,-0.34 -1.14,-1.43 c -0.22,-0.29 -0.3,-0.35 -0.42,-0.5 -0.12,-0.15 -0.26,-0.25 -0.4,-0.35 a 3.83,3.83 0 0 0 -0.91,-0.5 4,4 0 0 0 -2.06,-0.16 3.59,3.59 0 0 0 -1.84,1 c -0.87,0.86 -1.75,1.7 -2.64,2.55 -3.52,3.4 -7.11,6.73 -10.82,9.94 z"
     id="path19" /><path
     class="cls-4"
     d="m 265.52309,203.65357 c -23.66475,41.71986 -57.45568,45.22657 -87.1018,28.40324 -29.64613,-16.82333 -44.00034,-47.59582 -20.33559,-89.33233 23.66474,-41.73651 74.58972,-57.561089 96.58989,-45.098949 22.00017,12.462129 34.51224,64.291529 10.8475,106.028039 z"
     id="path21"
     style="stroke-width:0.554859;fill:#f4e9d3;fill-opacity:1" /><path
     id="path912"
     style="fill:#e1caae;fill-opacity:1;stroke-width:0.554859"
     class="cls-4"
     d="M 196.04297 105.20312 C 181.42415 113.45335 167.5668 126.00361 158.08594 142.72461 C 139.23704 175.96761 144.52164 202.24509 162.42773 220.06836 C 185.47385 214.60831 203.13607 196.14758 206.6582 160.08594 C 208.62467 139.95218 203.96324 120.81064 196.04297 105.20312 z " /><path
     id="path917"
     style="fill:#e1caae;fill-opacity:1;stroke-width:0.554859"
     class="cls-4"
     d="M 78.748047 111.72852 C 73.063027 122.52066 69.026749 134.81781 67.730469 148.08984 C 63.076177 195.82767 88.692531 218.13993 122.61914 221.44141 C 125.19822 221.69238 127.74723 221.81148 130.26562 221.82422 C 141.35558 204.66564 142.3746 181.83259 126.69531 154.17969 C 115.07064 133.67774 96.868784 119.44385 78.748047 111.72852 z " /><path
     class="cls-4"
     d="m 75.729586,148.08902 c -4.654296,47.73787 20.963,70.05106 54.889644,73.35254 33.92665,3.30149 63.37426,-13.60495 68.03814,-61.35644 4.66389,-47.75149 -27.87774,-89.998549 -53.04159,-92.46682 -25.16387,-2.468268 -65.222306,32.71923 -69.886194,80.47072 z"
     id="path355"
     style="stroke-width:0.554859;fill:#f4e9d3;fill-opacity:1" /><path
     class="cls-2"
     d="M 19.46,219.4 34.39,189 a 7,7 0 0 1 7.17,-3.85 l 5.54,0.71 a 7,7 0 0 1 6,7.87 l -3.38,25.67 11.93,3 5,-19.25 a 4.64,4.64 0 0 1 8.06,-1.81 l 13.66,16.45 2.13,-29.22 a 5,5 0 0 1 2.18,-3.8 l 5.15,-3.53 a 5,5 0 0 1 7.16,1.52 l 14,22.88 4.13,-38.33 a 4.54,4.54 0 0 1 5.06,-4 l 5.18,0.61 a 4.55,4.55 0 0 1 4,4.68 l -1.24,37.07 15,-18.26 a 9.82,9.82 0 0 1 8.85,-3.5 l 5.15,0.67 6.12,-8.59 a 4.34,4.34 0 0 1 4.75,-1.64 l 2.7,0.79 a 4.34,4.34 0 0 1 3,5.11 l -6.69,29.6 11.77,-7.7 a 6.94,6.94 0 0 1 9.29,1.57 l 5,6.45 11.3,-18.83 a 9.92,9.92 0 0 1 7.46,-4.77 l 18.82,-2 2.9,-10.7 a 5.15,5.15 0 0 1 5.06,-3.79 l 10.71,0.18 a 5.13,5.13 0 0 1 5.06,5.14 V 193 l 15.18,-8.9 a 6.37,6.37 0 0 1 8.06,1.35 l 3.2,3.74 a 6.37,6.37 0 0 1 0.32,7.87 l -8,11 V 257.9 H 19.46 Z"
     id="path922"
     style="fill:#a67568;fill-opacity:0.31034482" /><path
     id="path1757"
     style="stroke-width:0.554859;fill:#e1caae;fill-opacity:1"
     class="cls-4"
     d="M 252.00977 96.332031 C 262.20717 119.07836 261.21878 157.65975 239.2832 187.73242 C 212.36746 224.6194 180.29023 226.03682 153.51758 208.74805 C 159.1683 218.21162 167.80671 226.03284 178.42188 232.05664 C 208.06797 248.87995 241.85871 245.37412 265.52344 203.6543 C 289.18815 161.91783 276.67593 110.08712 254.67578 97.625 C 253.83333 97.147789 252.93389 96.726419 252.00977 96.332031 z " /><path
     id="path2039"
     style="stroke-width:0.554859;fill:#e1caae;fill-opacity:0.98673743"
     class="cls-4"
     d="M 37.03125 106.3125 C 34.49838 106.98605 32.173737 107.90849 30.105469 109.08008 C 8.1053209 121.54221 -4.4049503 173.37095 19.259766 215.10742 C 42.924492 256.82724 76.715233 260.33503 106.36133 243.51172 C 111.36053 240.67481 115.91109 237.43231 119.93164 233.81641 C 95.909755 244.41755 68.758758 239.4336 45.029297 207.97852 C 18.683234 173.04247 21.087028 125.88563 37.03125 106.3125 z " /><path
     class="cls-2"
     d="M 19.46,241.4 34.39,211 a 7,7 0 0 1 7.17,-3.85 l 5.54,0.71 a 7,7 0 0 1 6,7.87 l -3.38,25.67 11.93,3 5,-19.25 a 4.64,4.64 0 0 1 8.06,-1.81 l 13.66,16.45 2.13,-29.22 a 5,5 0 0 1 2.18,-3.8 l 5.15,-3.53 a 5,5 0 0 1 7.16,1.52 l 14,22.88 4.13,-38.33 a 4.54,4.54 0 0 1 5.06,-4 l 5.18,0.61 a 4.55,4.55 0 0 1 4,4.68 l -1.24,37.07 15,-18.26 a 9.82,9.82 0 0 1 8.85,-3.5 l 5.15,0.67 6.12,-8.59 a 4.34,4.34 0 0 1 4.75,-1.64 l 2.7,0.79 a 4.34,4.34 0 0 1 3,5.11 l -6.69,29.6 11.77,-7.7 a 6.94,6.94 0 0 1 9.29,1.57 l 5,6.45 11.3,-18.83 a 9.92,9.92 0 0 1 7.46,-4.77 l 18.82,-2 2.9,-10.7 a 5.15,5.15 0 0 1 5.06,-3.79 l 10.71,0.18 a 5.13,5.13 0 0 1 5.06,5.14 V 215 l 15.18,-8.9 a 6.37,6.37 0 0 1 8.06,1.35 l 3.2,3.74 a 6.37,6.37 0 0 1 0.32,7.87 l -8,11 V 279.9 H 19.46 Z"
     id="path25" /><path
     class="cls-3"
     d="m 19.46,241.4 c 2.21,-6.8 4.9,-13.37 7.75,-19.87 1.45,-3.23 2.91,-6.46 4.43,-9.67 l 0.56,-1.2 0.28,-0.6 c 0.14,-0.26 0.26,-0.52 0.42,-0.77 a 9,9 0 0 1 2.3,-2.58 9.18,9.18 0 0 1 6.6,-1.82 l 5.29,0.63 h 0.34 l 0.44,0.07 a 8.23,8.23 0 0 1 0.86,0.19 9.32,9.32 0 0 1 4.48,2.77 9.39,9.39 0 0 1 2.37,6.54 l -0.07,0.88 -0.09,0.67 -0.17,1.36 -0.36,2.63 c -1,7 -2,14 -3.19,21 v 0 l -1.5,-2.21 11.93,3 -2.42,1.44 3.22,-12.45 1.62,-6.23 0.1,-0.39 v -0.19 l 0.08,-0.27 a 6,6 0 0 1 0.43,-1.06 6.36,6.36 0 0 1 1.37,-1.85 6.74,6.74 0 0 1 4.14,-1.77 6.54,6.54 0 0 1 4.33,1.28 5.25,5.25 0 0 1 0.86,0.76 l 0.36,0.39 0.26,0.31 1,1.24 4.11,5 8.22,9.89 -3.54,1.13 1.37,-18.72 0.68,-9.37 0.09,-1.18 a 6.58,6.58 0 0 1 0.32,-1.6 7,7 0 0 1 1.76,-2.78 6.31,6.31 0 0 1 0.61,-0.55 c 0.2,-0.17 0.46,-0.34 0.59,-0.44 l 1,-0.66 1.91,-1.35 1.93,-1.32 c 0.13,-0.1 0.42,-0.27 0.64,-0.4 a 6.24,6.24 0 0 1 0.73,-0.37 7.06,7.06 0 0 1 7.61,1.37 6.57,6.57 0 0 1 1,1.25 c 0.28,0.43 0.43,0.69 0.65,1.05 l 1.23,2 2.45,4 9.82,16 -3.7,0.83 2.54,-23.56 1.32,-11.85 0.31,-2.94 a 6.59,6.59 0 0 1 5.43,-5.79 6.32,6.32 0 0 1 1.06,-0.09 c 0.18,0 0.36,0 0.54,0 h 0.26 0.18 l 1.48,0.17 2.94,0.35 h 0.37 l 0.43,0.06 a 7.33,7.33 0 0 1 1,0.24 6.66,6.66 0 0 1 1.89,1 6.58,6.58 0 0 1 2.39,3.44 7.2,7.2 0 0 1 0.25,2.09 v 1.48 l -0.4,11.84 -0.79,23.7 -3.54,-1.34 12.3,-15 1.54,-1.87 0.77,-0.93 0.39,-0.47 0.47,-0.55 a 11.82,11.82 0 0 1 7.7,-3.73 11.7,11.7 0 0 1 1.45,0 c 0.47,0 1,0.08 1.38,0.13 l 4.81,0.63 -1.89,0.82 4,-5.66 2,-2.83 a 6.49,6.49 0 0 1 1.77,-1.73 6.65,6.65 0 0 1 2.35,-0.93 6.29,6.29 0 0 1 2.52,0.07 c 0.48,0.12 0.64,0.18 0.95,0.27 l 0.84,0.24 0.83,0.24 0.42,0.13 0.59,0.2 a 6.2,6.2 0 0 1 2.11,1.39 6.34,6.34 0 0 1 1.87,4.58 7.59,7.59 0 0 1 -0.14,1.26 l -0.2,0.86 -0.38,1.7 -6.07,27.26 -3,-2.12 6.81,-4.45 3.41,-2.23 c 0.59,-0.38 1.08,-0.72 1.75,-1.14 a 8.79,8.79 0 0 1 2.4,-1 8.93,8.93 0 0 1 5.17,0.18 9,9 0 0 1 4.2,3 l 5,6.44 -3.29,0.2 6.44,-10.74 3.22,-5.36 1.61,-2.69 a 12,12 0 0 1 9.14,-5.8 l 6.22,-0.67 12.44,-1.36 -1.79,1.45 1.77,-6.53 0.89,-3.26 0.22,-0.82 a 8,8 0 0 1 0.37,-1.07 7.25,7.25 0 0 1 1.27,-2 7.14,7.14 0 0 1 4,-2.22 6.62,6.62 0 0 1 1.17,-0.11 c 0.39,0 0.59,0 0.9,0 h 1.69 l 6.76,0.11 h 1.74 a 6.7,6.7 0 0 1 2.29,0.48 7,7 0 0 1 3.52,3 7.16,7.16 0 0 1 0.87,2.17 9.39,9.39 0 0 1 0.16,2.11 v 17 l -3,-1.73 c 3.66,-2.57 7.41,-5 11.21,-7.32 1,-0.58 1.89,-1.18 2.85,-1.75 l 0.72,-0.42 a 9.19,9.19 0 0 1 1,-0.53 9,9 0 0 1 9.05,1.07 11.33,11.33 0 0 1 0.91,0.78 c 0.26,0.28 0.57,0.62 0.71,0.8 l 2.15,2.56 0.53,0.65 0.27,0.32 0.35,0.46 a 8.81,8.81 0 0 1 0.94,8.88 9.21,9.21 0 0 1 -0.55,1 10,10 0 0 1 -0.61,0.86 45.47,45.47 0 0 1 -9.77,9.44 45,45 0 0 1 5.89,-12.24 c 0.18,-0.28 0.21,-0.36 0.31,-0.53 a 4.84,4.84 0 0 0 0.21,-0.47 3.9,3.9 0 0 0 0.22,-1 4.05,4.05 0 0 0 -0.34,-1.95 A 4,4 0 0 0 287,213 l -0.17,-0.2 -0.28,-0.31 -0.55,-0.62 -2.2,-2.52 a 5.1,5.1 0 0 0 -0.41,-0.44 2.69,2.69 0 0 0 -0.37,-0.3 3.17,3.17 0 0 0 -0.83,-0.45 3.73,3.73 0 0 0 -1.87,-0.23 3.22,3.22 0 0 0 -0.91,0.24 3.08,3.08 0 0 0 -0.45,0.22 l -0.73,0.42 c -1,0.56 -1.94,1.09 -2.91,1.63 -3.89,2.18 -7.84,4.26 -11.87,6.2 l -3,1.45 V 198 a 5.86,5.86 0 0 0 -0.07,-1.26 3.32,3.32 0 0 0 -0.38,-1 3.12,3.12 0 0 0 -2.56,-1.52 h -1.64 l -6.76,-0.11 h -1.69 c -0.26,0 -0.61,0 -0.79,0 a 3.15,3.15 0 0 0 -2.29,1 3.24,3.24 0 0 0 -0.74,1.38 l -0.22,0.82 -0.89,3.26 -1.77,6.53 -0.36,1.31 -1.36,0.15 -12.44,1.35 -6.22,0.68 a 7.91,7.91 0 0 0 -6.14,3.88 l -1.61,2.68 -3.22,5.37 -6.5,10.68 -1.51,2.52 -1.79,-2.32 -5,-6.45 a 5,5 0 0 0 -5.18,-1.76 4.67,4.67 0 0 0 -1.32,0.57 c -0.49,0.3 -1.11,0.72 -1.66,1.08 l -3.34,2.22 -6.82,4.46 -4.13,2.7 1.09,-4.81 6.12,-27.14 0.38,-1.7 0.19,-0.84 a 2.31,2.31 0 0 0 0.05,-0.46 2.4,2.4 0 0 0 -0.69,-1.69 2.18,2.18 0 0 0 -0.77,-0.5 l -0.23,-0.08 -0.42,-0.13 -0.84,-0.24 -0.83,-0.24 -0.73,-0.21 a 2.38,2.38 0 0 0 -0.92,0 2.34,2.34 0 0 0 -1.56,1 l -2,2.83 -4,5.66 -0.7,1 -1.19,-0.16 -4.8,-0.62 a 8.86,8.86 0 0 0 -1,-0.1 6.29,6.29 0 0 0 -1,0 7.58,7.58 0 0 0 -1.88,0.39 7.84,7.84 0 0 0 -3.21,2.07 l -0.31,0.37 -0.39,0.47 -0.77,0.93 -1.64,1.88 -12.3,15 -3.7,4.53 0.19,-5.89 0.8,-23.69 0.39,-11.84 v -1.49 a 2.57,2.57 0 0 0 -1.76,-2.56 1.79,1.79 0 0 0 -0.4,-0.09 2.6,2.6 0 0 0 -0.3,-0.05 h -0.37 l -3,-0.35 -1.47,-0.17 h -0.18 -0.1 a 1.48,1.48 0 0 0 -0.21,0 1.84,1.84 0 0 0 -0.41,0 2.55,2.55 0 0 0 -2.12,2.26 l -0.32,2.95 -1.26,11.78 -2.48,23.53 -0.63,5.83 -3.06,-5 -9.82,-16 -2.45,-4 -1.23,-2 c -0.19,-0.31 -0.43,-0.72 -0.59,-1 a 2.58,2.58 0 0 0 -0.45,-0.54 3.05,3.05 0 0 0 -2.61,-0.79 3.13,3.13 0 0 0 -0.68,0.2 3,3 0 0 0 -0.31,0.16 2.23,2.23 0 0 0 -0.36,0.23 l -1.94,1.32 -1.94,1.33 -1,0.66 a 3.14,3.14 0 0 0 -0.35,0.26 1.55,1.55 0 0 0 -0.27,0.24 3.08,3.08 0 0 0 -0.73,1.2 3.12,3.12 0 0 0 -0.13,0.69 l -0.09,1.15 -0.68,9.37 -1.34,18.77 -0.34,4.95 -3.19,-3.85 -8.22,-9.89 -4.11,-4.94 a 17.53,17.53 0 0 0 -1.81,-2 2.5,2.5 0 0 0 -1.7,-0.5 2.77,2.77 0 0 0 -1.66,0.7 2.68,2.68 0 0 0 -0.53,0.72 2,2 0 0 0 -0.17,0.43 v 0.11 0.2 l -0.1,0.39 -1.61,6.22 -3.23,12.45 -0.49,1.92 -1.92,-0.48 -11.94,-3 -1.68,-0.42 0.18,-1.79 v 0 c 0.68,-7.06 1.53,-14.09 2.43,-21.12 l 0.34,-2.63 0.17,-1.32 0.09,-0.65 v -0.44 a 4.64,4.64 0 0 0 -1.16,-3.21 4.92,4.92 0 0 0 -1.37,-1.08 3.88,3.88 0 0 0 -0.82,-0.32 2.7,2.7 0 0 0 -0.43,-0.11 h -0.21 -0.32 l -5.26,-0.73 a 4.77,4.77 0 0 0 -4.69,2.13 c -0.09,0.12 -0.16,0.27 -0.24,0.4 l -0.3,0.58 -0.61,1.18 c -1.61,3.16 -3.27,6.29 -4.95,9.41 -3.44,6.14 -7,12.28 -11.03,18.19 z"
     id="path27" /><path
     id="path8994"
     style="opacity:1;fill:#d69b5a;stroke-width:23.3839;stroke-linecap:round;stroke-linejoin:round;paint-order:stroke fill markers;stop-color:#000000"
     d="m 83.192114,260.14704 c 0.0178,-4.49789 5.08326,-1.62543 10.96451,2.4383 -0.49539,14.82296 3.86833,24.75026 5.933396,32.10427 H 82.841904 Z"
     sodipodi:nodetypes="ccccc" /><path
     id="rect8939"
     style="opacity:1;fill:#d69b5a;stroke-width:34.7794;stroke-linecap:round;stroke-linejoin:round;paint-order:stroke fill markers;stop-color:#000000"
     transform="matrix(1,0,-0.5501577,0.83506078,0,0)"
     d="m 369.2063,298.80374 c -0.0513,-5.3863 9.3597,-1.94648 20.30004,2.91991 4.68622,15.43431 1.42587,26.77651 -1.20003,38.44543 H 369.2063 Z"
     sodipodi:nodetypes="ccccc" /><path
     class="cls-3"
     d="m 182.84978,283.24128 c 2.45,-5.48 9.74022,-18.45128 12.69022,-23.62128 1.47333,-2.58 2.98667,-5.14 4.54,-7.68 l 1.16,-1.9 0.58,-0.95 c 0.19,-0.31 0.36,-0.61 0.68,-1.06 1.82712,-2.52292 4.92991,-3.78731 8,-3.26 0.48523,0.0919 0.96315,0.21892 1.43,0.38 l 1.05,0.36 4.21,1.46 1.05,0.37 0.66,0.26 c 0.23836,0.0916 0.46908,0.20193 0.69,0.33 0.91808,0.48942 1.733,1.15155 2.4,1.95 2.0628,2.42551 2.55622,5.81729 1.27,8.73 l -0.33,0.68 -0.27,0.49 -0.53,1 -2.16,3.9 c -1.44,2.6 -2.91667,5.17667 -4.43,7.73 v 0 l -2.73,-2.69 c 2.62,-1.75 5.31,-3.38 8,-4.93 2.69,-1.55 5.46,-3.06 8.31,-4.52 0.96964,-0.49766 2.02504,-0.80647 3.11,-0.91 1.08283,-0.0622 2.16781,0.0768 3.2,0.41 2.03449,0.67443 3.71327,2.13705 4.66,4.06 0.4463,0.93721 0.67858,1.96195 0.68,3 v 0.75 c 0,0.22 -0.05,0.4 -0.08,0.6 -0.07,0.4 -0.13,0.79 -0.21,1.18 -0.30232,1.60753 -0.75085,3.18408 -1.34,4.71 -0.58915,-1.52592 -1.03768,-3.10247 -1.34,-4.71 -0.08,-0.39 -0.14,-0.78 -0.21,-1.18 0,-0.19 -0.06,-0.4 -0.1,-0.57 l -0.11,-0.43 c -0.15062,-0.52709 -0.39079,-1.02434 -0.71,-1.47 -0.83718,-1.32396 -2.38372,-2.02049 -3.93,-1.77 -0.47297,0.086 -0.92888,0.24813 -1.35,0.48 -2.66,1.56 -5.44,3.13 -8.2,4.6 -2.76,1.47 -5.57,2.9 -8.44,4.2 l -5.75,2.56 3,-5.28 v 0 c 1.29333,-2.66667 2.62667,-5.33333 4,-8 l 2,-4 0.52,-1 0.26,-0.49 0.15,-0.34 c 0.52625,-1.27952 0.30316,-2.74504 -0.58,-3.81 -0.2771,-0.34352 -0.61633,-0.63186 -1,-0.85 -0.0982,-0.06 -0.20204,-0.1102 -0.31,-0.15 -0.11,0 -0.17,-0.08 -0.38,-0.15 l -1.05,-0.38 -4.17,-1.56 -1,-0.39 c -0.23579,-0.0865 -0.47615,-0.1599 -0.72,-0.22 -0.45653,-0.0799 -0.92347,-0.0799 -1.38,0 -0.94556,0.14723 -1.80174,0.64311 -2.4,1.39 -0.12,0.14 -0.34,0.47 -0.55,0.79 l -0.63,0.92 -1.24,1.84 c -1.66667,2.46 -3.37,4.89667 -5.11,7.31 -3.5,4.87 -11.58022,17.31128 -15.56022,21.83128 z"
     id="path29"
     sodipodi:nodetypes="ccccccccccccccccccssccscccccsccccccccccscccscccccccccccccccccccc" /><path
     id="path9408"
     style="opacity:1;fill:#d69b5a;stroke-width:31.782;stroke-linecap:round;stroke-linejoin:round;paint-order:stroke fill markers;stop-color:#000000"
     d="m 72.717564,260.50469 c -2.91201,-4.49788 -10.43057,-1.62542 -18.693628,2.43831 3.805088,12.88858 13.305428,22.36001 22.351078,32.10427 h 19.10001 z"
     sodipodi:nodetypes="ccccc" /><path
     class="cls-3"
     d="m 60.109084,279.39477 c -2.69456,-4.26505 -4.77816,-8.88665 -6.189996,-13.73 l -0.29,-0.89 c -0.1325,-0.40412 -0.22954,-0.81903 -0.29,-1.24 -0.1302,-0.89102 -0.0792,-1.79917 0.15,-2.67 0.4633,-1.7755 1.605236,-3.29809 3.179996,-4.24 0.39126,-0.23738 0.807,-0.43184 1.24,-0.58 l 0.62,-0.2 0.45,-0.12 1.81,-0.46 3.64,-0.92 1.81,-0.46 c 0.80028,-0.24473 1.63316,-0.36612 2.47,-0.36 2.89579,0.081 5.461,1.88967 6.51,4.59 l 0.67,1.75 1.3,3.49 c 1.74,4.66 6.12813,18.97856 6.12813,18.97856 v 0 l -3.82,0.27 c 0.71,-4.22 0.44187,-13.29856 1.36187,-17.46856 0.23,-1 0.46,-2.09 0.71,-3.13 l 0.18,-0.78 c 0.0926,-0.38485 0.21292,-0.7625 0.36,-1.13 0.31129,-0.73154 0.7403,-1.40715 1.27,-2 1.07394,-1.21698 2.5374,-2.02295 4.14,-2.28 0.39696,-0.0631 0.79807,-0.0965 1.2,-0.1 h 0.59 0.3 0.2 l 0.79,0.11 c 0.38235,0.0504 0.76016,0.13068 1.13,0.24 1.53572,0.44406 2.87318,1.4004 3.79,2.71 0.44897,0.6461 0.78695,1.36261 1,2.12 0.17748,0.68234 0.26489,1.38497 0.26,2.09 0.05,2.14 0.14,4.28 0.13,6.42 0.0533,4.32969 1.94101,17.66619 1.09659,21.91307 -1.31666,-4.12492 -4.49456,-17.38677 -4.94659,-21.69307 -0.24,-2.13 -0.4,-4.26 -0.6,-6.39 -0.006,-0.3637 -0.0664,-0.72444 -0.18,-1.07 -0.29459,-0.80108 -0.9636,-1.40654 -1.79,-1.62 -0.14399,-0.0378 -0.29138,-0.0613 -0.44,-0.07 l -0.8,-0.09 h -0.2 -0.3 c -0.13481,10e-4 -0.26904,0.018 -0.4,0.05 -0.52477,0.10735 -0.99937,0.38508 -1.35,0.79 -0.17219,0.19584 -0.31074,0.41886 -0.41,0.66 -0.0522,0.13028 -0.0957,0.26391 -0.13,0.4 l -0.17,0.78 c -0.24,1 -0.49,2.08 -0.74,3.11 -1,4.16 -0.94187,13.18856 -2.14187,17.29856 2.07072,5.48196 0.012,4.57473 0.29021,9.16042 l -4.14021,-8.88042 v 0 c 0,0 -5.01813,-14.05856 -6.82813,-18.68856 l -1.36,-3.47 -0.67,-1.74 c -0.10655,-0.28635 -0.26981,-0.54825 -0.48,-0.77 -0.42378,-0.45296 -1.01006,-0.71912 -1.63,-0.74 -1.01423,0.11576 -2.01747,0.31306 -3,0.59 l -3.64,0.83 -1.82,0.41 -0.72,0.17 c -0.15898,0.04 -0.31319,0.097 -0.46,0.17 -0.6064,0.31339 -1.0659,0.85186 -1.28,1.5 -0.10506,0.32237 -0.14914,0.66149 -0.13,1 -0.01,0.0897 -0.01,0.18026 0,0.27 0.0125,0.10795 0.0325,0.21488 0.06,0.32 l 0.24,0.9 c 1.44319,4.83412 2.20717,9.84544 2.27,14.89 z"
     id="path31"
     sodipodi:nodetypes="ccccccccccccccccsccccccccccccccccccccccccccccccccccccscccccccccccccccc" /><ellipse
     style="fill:#fffefd;fill-opacity:1;fill-rule:evenodd;stroke-width:0.626767"
     id="path15094"
     cx="159.3456"
     cy="38.651455"
     rx="17.050524"
     ry="24.665548"
     transform="matrix(0.90556234,0.42421321,-0.53318798,0.84599679,0,0)" /><ellipse
     style="fill:#ffffff;fill-opacity:1;fill-rule:evenodd;stroke-width:0.486453"
     id="ellipse15096"
     cx="262.27222"
     cy="6.2426004"
     rx="13.233443"
     ry="19.143702"
     transform="matrix(0.90556234,0.42421321,-0.53318798,0.84599679,0,0)" /><ellipse
     style="fill:#ffffff;fill-opacity:1;fill-rule:evenodd;stroke-width:0.486453"
     id="ellipse15098"
     cx="98.085381"
     cy="103.59964"
     rx="13.233443"
     ry="19.143702"
     transform="matrix(0.90556234,0.42421321,-0.53318798,0.84599679,0,0)" /><path
     style="color:#000000;fill:#ffffff;fill-opacity:1;-inkscape-stroke:none;paint-order:stroke fill markers"
     d="m 146.07003,87.681547 -7.76833,31.646213 -21.27074,-2.18918 -25.492738,36.60798 11.590398,3.0385 -5.741205,13.80987 8.635735,-15.37237 -11.60193,-2.73195 c 6.95959,-12.25611 14.44171,-22.24791 23.38709,-33.18016 l 26.09933,8.16164 3.7991,-37.642106 25.85882,-5.771963 -0.9639,-1.013345 z"
     id="path64247"
     sodipodi:nodetypes="cccccccccccccc" /><path
     style="color:#000000;fill:#392727;-inkscape-stroke:none;paint-order:stroke fill markers;fill-opacity:1"
     d="m 145.00977,87.328125 -7.76833,31.646215 -21.27074,-2.18918 -25.492743,36.60798 11.590403,3.0385 -4.871143,14.35366 7.765673,-15.91616 -11.601935,-2.73195 c 6.959595,-12.25611 14.441715,-22.24791 23.387095,-33.18016 l 26.09933,8.16164 3.7991,-37.642108 26.40261,-6.206996 -0.85514,-0.578312 z"
     id="path62364"
     sodipodi:nodetypes="cccccccccccccc" /><ellipse
     style="fill:#ffffff;fill-opacity:1;fill-rule:evenodd;stroke-width:0.254246"
     id="ellipse64318"
     cx="126.17349"
     cy="116.45837"
     rx="7.0341868"
     ry="9.8380823"
     transform="matrix(0.91543496,0.40246594,-0.55750143,0.83017598,0,0)" /><ellipse
     style="fill:#ffffff;fill-opacity:1;fill-rule:evenodd;stroke-width:0.244241"
     id="ellipse64320"
     cx="293.86191"
     cy="39.366886"
     rx="6.9317694"
     ry="9.2132063"
     transform="matrix(0.92896054,0.37017876,-0.59531341,0.80349359,0,0)" /><ellipse
     style="fill:#fffefd;fill-opacity:1;fill-rule:evenodd;stroke-width:0.193855"
     id="ellipse64322"
     cx="203.56458"
     cy="56.556301"
     rx="5.6184521"
     ry="7.1606655"
     transform="matrix(0.93898433,0.34395993,-0.62753317,0.77858982,0,0)" /></svg>
