<?xml version="1.0" encoding="UTF-8" standalone="no"?><!DOCTYPE svg PUBLIC "-//W3C//DTD SVG 1.1//EN" "http://www.w3.org/Graphics/SVG/1.1/DTD/svg11.dtd"><svg width="100%" height="100%" viewBox="0 0 100 121" version="1.1" xmlns="http://www.w3.org/2000/svg" xmlns:xlink="http://www.w3.org/1999/xlink" xml:space="preserve" xmlns:serif="http://www.serif.com/" style="fill-rule:evenodd;clip-rule:evenodd;stroke-linejoin:round;stroke-miterlimit:2;"><g><g id="_4" serif:id="4"><g id="Back-4" serif:id="Back 4"><path d="M73.573,93.01l-34.854,-0c-4.282,-0.18 -8.971,-2.008 -14.158,-4.951l-3.437,-19.881c5.188,2.942 9.876,4.77 14.158,4.951l46.537,-0l-8.246,19.881Z" style="fill:#8c4e26;"/><g><g><path d="M21.124,71.698l-0,-3.52c5.188,2.942 9.876,4.77 14.158,4.951l46.537,-0l-1.527,3.521l-45.01,-0c-4.282,-0.181 -8.97,-2.009 -14.158,-4.952Z" style="fill-opacity:0.25;"/><path d="M21.124,70.268l-0,-2.09c5.188,2.942 9.876,4.77 14.158,4.951l48.488,-0l-0.906,2.09l-47.582,0c-4.282,-0.18 -8.97,-2.008 -14.158,-4.951Z" style="fill:#d9d9d9;"/></g><g><g><path d="M21.908,83.927l-3.437,-17.497l3.968,-0l2.138,3.571l-0.087,2.164c-0.019,0.956 2.448,13.511 3.694,15.87c0.927,1.755 1.9,2.719 4.464,3.767c-1.86,-0.258 -3.64,-0.326 -5.435,-0.871c-1.941,-0.589 -4.565,-3.199 -5.305,-7.004Z" style="fill:#724e21;"/><path d="M24.577,70.001l-0.087,2.164c-0.019,0.956 2.444,13.503 3.694,15.87c0.927,1.755 1.9,2.719 4.464,3.767c-1.86,-0.258 -3.64,-0.326 -5.435,-0.871c-1.068,-0.325 -3.349,-4.18 -3.844,-6.89c-0.822,-4.499 -1.728,-9.331 -2.76,-14.04l3.968,0Z" style="fill:#8e6532;"/></g><g><path d="M19.306,72.184l-2.091,-3.568l0,-2.186l5.224,-0l2.138,3.571l-5.224,0l-0.047,2.183Z" style="fill:#d9d9d9;"/><path d="M24.577,70.001l-0.087,2.164l-5.184,0.019l0.047,-2.183l5.224,0Z" style="fill:#b3b3b3;"/><path d="M17.215,66.43l5.224,-0l2.138,3.571l-5.224,0l-2.138,-3.571Z" style="fill:#fff;"/><path d="M5.796,68.187l-1.031,-1.798l0,-2.186l12.954,3.068l1.079,1.802l-12.954,-3.068l-0.048,2.182Z" style="fill:#d9d9d9;"/><path d="M18.798,69.073l-0.087,2.164l-12.915,-3.05l0.048,-2.182l12.954,3.068Z" style="fill:#b3b3b3;"/><path d="M4.765,64.203l12.954,3.068l1.079,1.802l-12.954,-3.068l-1.079,-1.802Z" style="fill:#fff;"/></g></g></g><g><path d="M35.304,72.13c-3.891,-0.168 -8.121,-1.762 -12.778,-4.313c1.483,-2.138 3.615,-3.443 6.846,-3.592c0.004,-0 47.904,-0 47.904,-0c0,-0 4.733,7.905 4.733,7.905l-46.705,0Z" style="fill:#733a1c;"/><path d="M74.497,72.13l2.779,-7.905c0,-0 4.733,7.905 4.733,7.905l-7.512,0Z" style="fill:#5c2d14;"/><path d="M22.156,68.023c1.627,-2.034 3.896,-3.267 7.198,-3.413l48.488,-0l4.534,7.574l-3.099,-0l-3.397,-5.675c-4.434,0 -46.377,-0 -46.469,-0c-2.328,0.108 -4.024,0.875 -5.291,2.167c0,-0 -1.429,-0.468 -1.964,-0.653Z" style="fill:#d9d9d9;"/><path d="M75.88,66.509l0.885,-1.383l1.077,-0.516l4.534,7.574l-3.099,-0l-3.397,-5.675Z" style="fill:#b5b5b5;"/><path d="M35.282,73.129c-4.282,-0.181 -8.97,-2.009 -14.158,-4.951c1.664,-2.943 4.164,-4.771 8.23,-4.952l48.488,0l5.928,9.903l-48.488,-0Zm41.483,-8.003c-4.434,-0 -47.262,-0.001 -47.354,-0.001c-2.467,0.115 -4.225,0.97 -5.514,2.405c4.14,2.178 7.922,3.543 11.427,3.699l45.095,-0l-3.654,-6.103Z" style="fill:#fff;"/></g><g><path d="M73.619,52.357l12.285,0l6.967,11.336l-4.272,9.856l-14.649,0l-6.968,-11.335l3.176,-7.324l3.461,-2.533Z" style="fill:#733a1c;"/><path d="M70.158,54.89l6.967,11.335l-3.175,7.324l-1.426,-2.32l-2.901,-0l-0,-4.72l-2.641,-4.295l3.176,-7.324Z" style="fill:#5c2d14;"/><path d="M80.586,63.693l12.285,-0l-4.272,9.856l-14.649,0l3.175,-7.324l2.363,-0l1.098,-2.532Z" style="fill:#8c4e26;"/><path d="M80.586,63.693l12.285,-0l-3.093,7.135l-14.648,-0l1.995,-4.603l2.363,-0l1.098,-2.532Z" style="fill:#9f6036;"/><path d="M80.586,63.693l12.285,-0l-2.224,5.13l-14.648,0l1.126,-2.598l2.363,-0l1.098,-2.532Z" style="fill:#8c4e26;"/><path d="M73.508,51.897c7.429,-0 13.239,-0 13.239,-0c0,-0 6.355,10.587 6.355,10.587l-13.24,-0l-6.354,-10.587Z" style="fill:#733a1c;"/><path d="M80.586,63.693l12.285,-0l-1.848,4.264l-14.649,0l0.751,-1.732l2.363,-0l1.098,-2.532Z" style="fill-opacity:0.25;"/><path d="M77.716,63.693l17.519,-0l-1.098,2.532l-17.519,-0l1.098,-2.532Z" style="fill:#d9d9d9;"/><path d="M71.291,52.988l14.837,0l-1.097,2.532l-14.838,-0l1.098,-2.532Z" style="fill:#d9d9d9;"/><path d="M91.176,61.392l-5.048,-8.404l-1.097,2.532l4.716,7.851l0.591,-0.046l0.838,-1.933Z" style="fill:#b5b5b5;"/><path d="M69.914,50.687l17.518,0l7.803,13.006l-17.519,-0l-1.377,-2.301l14.837,0l-5.048,-8.404c-1.622,0 -9.139,0 -14.837,-0l-1.377,-2.301Z" style="fill:#fff;"/><path d="M76.339,61.392l1.377,2.301l-1.098,2.532l-1.32,-2.344l1.041,-2.489Z" style="fill:#b5b5b5;"/><path d="M69.914,50.687l1.377,2.301l-1.098,2.532l-1.32,-2.344l1.041,-2.489Z" style="fill:#b5b5b5;"/></g><g><rect x="62.78" y="19.428" width="4.866" height="51.778" style="fill:#9f6036;"/><g><g><path d="M54.06,15.918c-0.123,-0.178 -0.187,-0.437 -0.163,-0.73c0.048,-0.57 0.412,-1.055 0.813,-1.084c0.23,-0.017 0.422,0.12 0.535,0.347c0.001,0 0.001,-0 0.001,-0l17.946,29.863l-1.17,1.493l-17.962,-29.889Z" style="fill:#5c2d14;"/><path d="M73.342,45.021c-0.048,0.569 -0.412,1.055 -0.813,1.084c-0.401,0.029 -0.687,-0.41 -0.64,-0.979c0.048,-0.569 0.412,-1.055 0.813,-1.084c0.401,-0.029 0.688,0.41 0.64,0.979Z" style="fill:#723f24;"/></g><path d="M72.286,73.915c0.151,-11.429 -4.886,-22.003 -0.537,-29.232l-17.163,-28.817c-6.803,8.639 -1.043,19.116 0.256,28.988l17.444,29.061Z" style="fill:#3b3b3b;"/><path d="M59.02,23.311l5.154,8.654c-5.85,4.229 -2.684,15.183 -2.319,24.572l-3.853,-6.418c0.217,-8.352 -4.944,-19.959 1.018,-26.808Zm7.449,40.913c-1.083,-8.323 -5.173,-19.607 0.965,-26.785l4.315,7.244c-4.349,7.229 0.688,17.803 0.537,29.232l-5.817,-9.691Z" style="fill:#2c2c2c;"/><g><path d="M54.06,46.208c-0.123,-0.178 -0.187,-0.437 -0.163,-0.731c0.048,-0.569 0.412,-1.054 0.813,-1.084c0.23,-0.016 0.422,0.121 0.535,0.348c0.001,-0 0.001,-0 0.001,-0l17.946,29.862l-1.17,1.493l-17.962,-29.888Z" style="fill:#5c2d14;"/><path d="M73.342,75.31c-0.048,0.57 -0.412,1.055 -0.813,1.084c-0.401,0.029 -0.687,-0.409 -0.64,-0.978c0.048,-0.569 0.412,-1.055 0.813,-1.084c0.401,-0.029 0.688,0.409 0.64,0.978Z" style="fill:#723f24;"/></g></g><g><path d="M67.646,24.567c-1.564,0.157 -3.299,0.086 -4.866,-0.202l-0,-4.937l4.866,0l-0,5.139Z" style="fill-opacity:0.25;"/><path d="M72.176,20.484c-0.004,0.639 -0.619,1.256 -1.858,1.712c-2.606,0.959 -6.995,0.844 -9.793,-0.256c-1.511,-0.595 -2.251,-1.356 -2.202,-2.081l-0,-6.091l13.853,0.652c0,0 0,6.059 0,6.064Z" style="fill:#8c4e26;"/><path d="M60.178,12.117c2.607,-0.959 6.995,-0.844 9.794,0.257c2.798,1.1 2.953,2.772 0.346,3.731c-2.606,0.96 -6.995,0.845 -9.793,-0.256c-2.798,-1.1 -2.953,-2.772 -0.347,-3.732Z" style="fill:#5f391f;"/><path d="M72.881,14.737l0,0l0,1.098c0,0.005 0,0.01 0,0.015c-0.005,0.705 -0.682,1.385 -2.047,1.887c-2.872,1.056 -7.706,0.93 -10.789,-0.282c-1.665,-0.655 -2.481,-1.494 -2.427,-2.293l0,-0.993c0.051,0.753 0.866,1.529 2.427,2.143c3.083,1.212 7.917,1.339 10.789,0.282c1.346,-0.495 2.023,-1.163 2.047,-1.857Z" style="fill:#d9d9d9;"/><path d="M59.663,12.2c2.872,-1.057 7.706,-0.93 10.789,0.282c3.083,1.213 3.254,3.055 0.382,4.112c-2.872,1.057 -7.706,0.93 -10.789,-0.282c-3.083,-1.213 -3.254,-3.055 -0.382,-4.112Zm0.233,0.862c-0.453,0.167 -0.814,0.35 -1.076,0.558c-0.138,0.109 -0.247,0.21 -0.285,0.331c-0.053,0.169 0.072,0.311 0.225,0.48c0.336,0.371 0.906,0.711 1.687,1.018c2.902,1.141 7.45,1.278 10.153,0.283c0.454,-0.167 0.815,-0.35 1.077,-0.558c0.138,-0.109 0.247,-0.21 0.285,-0.331c0.053,-0.169 -0.072,-0.311 -0.225,-0.48c-0.336,-0.371 -0.906,-0.711 -1.687,-1.018c-2.902,-1.141 -7.45,-1.278 -10.154,-0.283Z" style="fill:#fff;"/><path d="M65.582,2.095l0,8.321c4.601,-2.664 8.578,1.753 15.3,0l-0,-8.294c-7.062,1.499 -10.151,-2.217 -15.3,-0.027Z" style="fill:#3b3b3b;"/><g><path id="rect1890" d="M73.862,5.47l-0,0.498c-0,0.114 0.119,0.23 0.266,0.26l0.166,0.033c0.148,0.029 0.266,-0.039 0.266,-0.153l0,-0.498c0,-0.115 -0.118,-0.231 -0.266,-0.26l-0.166,-0.033c-0.147,-0.03 -0.266,0.039 -0.266,0.153Zm-0.979,-0.196l0,0.498c0,0.114 0.119,0.23 0.266,0.26l0.166,0.033c0.148,0.029 0.266,-0.039 0.266,-0.153l0,-0.498c0,-0.115 -0.118,-0.231 -0.266,-0.26l-0.166,-0.033c-0.147,-0.03 -0.266,0.039 -0.266,0.153Zm-0.979,-0.196l0,0.498c0,0.114 0.119,0.23 0.266,0.26l0.166,0.033c0.148,0.029 0.266,-0.039 0.266,-0.154l0,-0.497c0,-0.115 -0.118,-0.231 -0.266,-0.26l-0.166,-0.033c-0.147,-0.03 -0.266,0.039 -0.266,0.153Z" style="fill:#fff;fill-rule:nonzero;"/><path id="rect1832" d="M74.933,4.43c0.084,0.702 -0.406,1.411 -0.93,1.326l-1.542,-0.309c-0.704,-0.286 -1.028,-1.071 -0.93,-1.698c0.124,-1.758 3.268,-1.107 3.402,0.681Zm-3.096,-0.209c-0,0.265 0.302,0.507 0.567,0.56c0.264,0.053 0.479,-0.118 0.479,-0.383c-0.093,-0.68 -0.994,-1.232 -1.046,-0.177Zm1.711,0.31c-0,0.259 0.21,0.511 0.469,0.563c0.259,0.052 0.546,-0.101 0.546,-0.36c-0.044,-1.117 -0.96,-0.813 -1.015,-0.203Z" style="fill:#fff;fill-rule:nonzero;"/><g id="g2095"><path id="rect1959" d="M75.506,9.338l0.266,-0.153c0.196,-0.112 0.253,-0.356 0.128,-0.543c-0.126,-0.187 -0.386,-0.247 -0.582,-0.135l-0.19,0.109l-3.422,-2.661l0.038,-0.272c0.031,-0.216 -0.11,-0.447 -0.313,-0.515c-0.203,-0.068 -0.392,0.051 -0.422,0.267l-0.051,0.365l-0.266,0.153c-0.196,0.112 -0.253,0.356 -0.128,0.543c0.126,0.187 0.387,0.247 0.582,0.135l0.188,-0.108l3.424,2.662l-0.038,0.27c-0.03,0.216 0.11,0.447 0.313,0.515c0.203,0.068 0.392,-0.051 0.422,-0.267l0.051,-0.365Z" style="fill:#fff;"/></g><g id="g2119"><path id="rect2109" d="M75.506,6.711l-0.06,-0.453c-0.025,-0.191 -0.198,-0.355 -0.386,-0.367l-0.054,-0.004c-0.188,-0.012 -0.32,0.133 -0.295,0.324l0.047,0.355l-3.422,1.291l-0.303,-0.296c-0.133,-0.13 -0.343,-0.124 -0.469,0.013c-0.125,0.137 -0.119,0.353 0.014,0.483l0.38,0.37l0.06,0.453c0.025,0.191 0.198,0.355 0.387,0.367l0.053,0.004c0.188,0.012 0.321,-0.133 0.295,-0.324l-0.046,-0.353l3.423,-1.291l0.301,0.294c0.133,0.13 0.343,0.124 0.469,-0.013c0.125,-0.137 0.119,-0.353 -0.014,-0.483l-0.38,-0.37Z" style="fill:#fff;"/></g></g><path d="M63.899,16.267l0,-15.743l2.698,0.097l0,15.773c-0.891,0.022 -1.808,-0.021 -2.698,-0.127Z" style="fill:#9f6036;"/><path d="M64.258,0.174c0.509,-0.187 1.365,-0.165 1.911,0.05c0.546,0.215 0.576,0.541 0.068,0.728c-0.509,0.187 -1.365,0.165 -1.911,-0.05c-0.546,-0.215 -0.577,-0.541 -0.068,-0.728Z" style="fill:#5f391f;"/></g></g></g></g></g></svg>