<?xml version="1.0" encoding="UTF-8" standalone="no"?><!DOCTYPE svg PUBLIC "-//W3C//DTD SVG 1.1//EN" "http://www.w3.org/Graphics/SVG/1.1/DTD/svg11.dtd"><svg width="100%" height="100%" viewBox="0 0 100 121" version="1.1" xmlns="http://www.w3.org/2000/svg" xmlns:xlink="http://www.w3.org/1999/xlink" xml:space="preserve" xmlns:serif="http://www.serif.com/" style="fill-rule:evenodd;clip-rule:evenodd;stroke-linejoin:round;stroke-miterlimit:2;"><g><g id="_5" serif:id="5"><g id="Front-5" serif:id="Front 5"><g><g><path d="M86.41,73.549l-8.072,19.461l-42.352,-0c-0.162,-0.007 -0.325,-0.016 -0.489,-0.028c-1.787,-0.126 -3.646,-0.532 -5.582,-1.18c-2.556,-0.855 -5.246,-2.132 -8.087,-3.743l-3.437,-19.881c5.188,2.942 9.877,4.77 14.158,4.951l45.908,-0l0.258,0.42l7.695,0Z" style="fill:#8c4e26;"/><path d="M35.497,92.982c-1.787,-0.126 -3.646,-0.532 -5.582,-1.18c-2.556,-0.855 -5.246,-2.132 -8.087,-3.743l-5.426,-31.391c5.188,2.943 9.876,4.771 14.158,4.951l6.694,0l-0.586,9.588l0.049,-0l-1.22,21.775Z" style="fill:#8c4e26;"/><path d="M33.902,59.72l2.214,-0l1.138,1.899l-6.694,0c-4.282,-0.18 -8.97,-2.008 -14.158,-4.951c0.127,-0.224 0.258,-0.442 0.395,-0.653l2.383,0c-0.001,0.002 -0.003,0.004 -0.005,0.006c4.14,2.178 7.922,3.543 11.427,3.699l3.3,-0Z" style="fill:#fff;"/><path d="M86.41,73.549l-7.14,17.214l-43.058,-0c-4.282,-0.18 -8.97,-2.008 -14.158,-4.951l-0,2.374c-0.075,-0.042 -0.151,-0.085 -0.226,-0.127l-3.437,-19.881c5.188,2.942 9.877,4.77 14.158,4.951l45.908,-0l0.258,0.42l7.695,0Z" style="fill:#9f6036;"/><path d="M86.41,73.549l-6.445,15.537l-43.979,0.022c-4.281,-0.18 -8.97,-2.008 -14.158,-4.951l-3.437,-15.979c5.188,2.942 9.877,4.77 14.158,4.951l45.908,-0l0.258,0.42l7.695,0Z" style="fill:#8c4e26;"/><path d="M86.41,73.549l-5.31,12.801l-48.551,0c-3.38,-0.142 -7.014,-1.311 -10.947,-3.245l-3.211,-14.927c5.188,2.942 9.877,4.77 14.158,4.951l45.908,-0l0.258,0.42l7.695,0Z" style="fill:#9f6036;"/><path d="M86.41,73.549l-4.539,10.943l-49.322,-0c-3.508,-0.148 -7.289,-1.402 -11.395,-3.469l-2.763,-12.845c5.188,2.942 9.877,4.77 14.158,4.951l45.908,-0l0.258,0.42l7.695,0Z" style="fill:#8c4e26;"/><path d="M86.41,73.549l-3.637,8.767l-50.224,-0c-3.657,-0.154 -7.612,-1.511 -11.921,-3.737l-2.237,-10.401c5.188,2.942 9.877,4.77 14.158,4.951l45.908,-0l0.258,0.42l7.695,0Z" style="fill:#9f6036;"/><path d="M86.41,73.549l-2.485,5.992l-51.376,-0c-3.847,-0.162 -8.022,-1.654 -12.593,-4.09l-1.565,-7.273c5.188,2.942 9.877,4.77 14.158,4.951l45.908,-0l0.258,0.42l7.695,0Z" style="fill:#8c4e26;"/><path d="M86.41,73.549l-1.583,3.816l-52.278,-0c-4.057,-0.171 -8.48,-1.822 -13.347,-4.499l-0.811,-4.688c5.188,2.942 9.877,4.77 14.158,4.951l45.908,-0l0.258,0.42l7.695,0Z" style="fill:#9f6036;"/></g><g><path d="M47.38,85.169l0,-1.197c0,-2.834 2.301,-5.135 5.135,-5.135c2.835,0 5.136,2.301 5.136,5.135l-0,1.197c-0,2.834 -2.301,5.135 -5.136,5.135c-2.834,-0 -5.135,-2.301 -5.135,-5.135Z" style="fill-opacity:0.25;"/><path d="M47.38,82.776c0,-2.834 2.301,-5.135 5.135,-5.135c2.835,0 5.136,2.301 5.136,5.135l-0,1.196l-0.141,0c-0.539,2.259 -2.572,3.94 -4.995,3.94c-2.422,-0 -4.455,-1.681 -4.994,-3.94l-0.141,0l0,-1.196Z" style="fill:#c1af49;"/><circle cx="52.515" cy="83.972" r="5.135" style="fill:#d6fffe;"/><path d="M47.696,85.749l3.302,-6.382l2.308,-0l-4.314,8.34c-0.571,-0.539 -1.019,-1.208 -1.296,-1.958Zm9.275,-4.331l-3.359,6.494l-0.582,-0l3.616,-6.99c0.117,0.158 0.226,0.324 0.325,0.496Zm-1.496,-1.642l-4.208,8.136l-1.251,-0l4.42,-8.545l0.351,-0c0.241,0.119 0.471,0.256 0.688,0.409Z" style="fill:#fff;"/><path d="M52.515,78.02c2.835,-0 5.136,2.301 5.136,5.135c-0,2.834 -2.301,5.135 -5.136,5.135c-2.834,0 -5.135,-2.301 -5.135,-5.135c0,-2.834 2.301,-5.135 5.135,-5.135Zm0,1.251c-2.143,0 -3.884,1.74 -3.884,3.884c0,2.144 1.741,3.884 3.884,3.884c2.144,0 3.885,-1.74 3.885,-3.884c-0,-2.144 -1.741,-3.884 -3.885,-3.884Z" style="fill:#c1af49;"/><path d="M52.515,78.837c2.835,0 5.136,2.301 5.136,5.135c-0,2.835 -2.301,5.136 -5.136,5.136c-2.834,-0 -5.135,-2.301 -5.135,-5.136c0,-2.834 2.301,-5.135 5.135,-5.135Zm0,1.251c-2.143,0 -3.884,1.741 -3.884,3.884c0,2.144 1.741,3.885 3.884,3.885c2.144,-0 3.885,-1.741 3.885,-3.885c-0,-2.143 -1.741,-3.884 -3.885,-3.884Z" style="fill:#ead767;"/></g><g><path d="M63.316,85.169l0,-1.197c0,-2.834 2.301,-5.135 5.135,-5.135c2.835,0 5.136,2.301 5.136,5.135l-0,1.197c-0,2.834 -2.301,5.135 -5.136,5.135c-2.834,-0 -5.135,-2.301 -5.135,-5.135Z" style="fill-opacity:0.25;"/><path d="M63.316,82.776c0,-2.834 2.301,-5.135 5.135,-5.135c2.835,0 5.136,2.301 5.136,5.135l-0,1.196l-0.141,0c-0.539,2.259 -2.572,3.94 -4.995,3.94c-2.422,-0 -4.455,-1.681 -4.995,-3.94l-0.14,0l0,-1.196Z" style="fill:#c1af49;"/><circle cx="68.451" cy="83.972" r="5.135" style="fill:#d6fffe;"/><path d="M63.632,85.749l3.302,-6.382l2.307,-0l-4.313,8.34c-0.571,-0.539 -1.019,-1.208 -1.296,-1.958Zm9.275,-4.331l-3.359,6.494l-0.582,-0l3.615,-6.99c0.118,0.158 0.227,0.324 0.326,0.496Zm-1.496,-1.642l-4.208,8.136l-1.251,-0l4.42,-8.545l0.351,-0c0.241,0.119 0.471,0.256 0.688,0.409Z" style="fill:#fff;"/><path d="M68.451,78.02c2.835,-0 5.136,2.301 5.136,5.135c-0,2.834 -2.301,5.135 -5.136,5.135c-2.834,0 -5.135,-2.301 -5.135,-5.135c0,-2.834 2.301,-5.135 5.135,-5.135Zm0,1.251c-2.143,0 -3.884,1.74 -3.884,3.884c0,2.144 1.741,3.884 3.884,3.884c2.144,0 3.885,-1.74 3.885,-3.884c-0,-2.144 -1.741,-3.884 -3.885,-3.884Z" style="fill:#c1af49;"/><path d="M68.451,78.837c2.835,0 5.136,2.301 5.136,5.135c-0,2.835 -2.301,5.136 -5.136,5.136c-2.834,-0 -5.135,-2.301 -5.135,-5.136c0,-2.834 2.301,-5.135 5.135,-5.135Zm0,1.251c-2.143,0 -3.884,1.741 -3.884,3.884c0,2.144 1.741,3.885 3.884,3.885c2.144,-0 3.885,-1.741 3.885,-3.885c-0,-2.143 -1.741,-3.884 -3.885,-3.884Z" style="fill:#ead767;"/></g><g><path d="M31.389,85.169l-0,-1.197c-0,-2.834 2.301,-5.135 5.135,-5.135c2.834,0 5.135,2.301 5.135,5.135l0,1.197c0,2.834 -2.301,5.135 -5.135,5.135c-2.834,-0 -5.135,-2.301 -5.135,-5.135Z" style="fill-opacity:0.25;"/><path d="M31.389,82.776c-0,-2.834 2.301,-5.135 5.135,-5.135c2.834,0 5.135,2.301 5.135,5.135l0,1.196l-0.14,0c-0.54,2.259 -2.573,3.94 -4.995,3.94c-2.422,-0 -4.455,-1.681 -4.995,-3.94l-0.14,0l-0,-1.196Z" style="fill:#c1af49;"/><circle cx="36.524" cy="83.972" r="5.135" style="fill:#d6fffe;"/><path d="M31.705,85.749l3.301,-6.382l2.308,-0l-4.314,8.34c-0.571,-0.539 -1.018,-1.208 -1.295,-1.958Zm9.274,-4.331l-3.358,6.494l-0.582,-0l3.615,-6.99c0.118,0.158 0.226,0.324 0.325,0.496Zm-1.495,-1.642l-4.208,8.136l-1.251,-0l4.42,-8.545l0.351,-0c0.24,0.119 0.47,0.256 0.688,0.409Z" style="fill:#fff;"/><path d="M36.524,78.02c2.834,-0 5.135,2.301 5.135,5.135c0,2.834 -2.301,5.135 -5.135,5.135c-2.834,0 -5.135,-2.301 -5.135,-5.135c-0,-2.834 2.301,-5.135 5.135,-5.135Zm0,1.251c-2.144,0 -3.884,1.74 -3.884,3.884c-0,2.144 1.74,3.884 3.884,3.884c2.144,0 3.884,-1.74 3.884,-3.884c0,-2.144 -1.74,-3.884 -3.884,-3.884Z" style="fill:#c1af49;"/><path d="M36.524,78.837c2.834,0 5.135,2.301 5.135,5.135c0,2.835 -2.301,5.136 -5.135,5.136c-2.834,-0 -5.135,-2.301 -5.135,-5.136c-0,-2.834 2.301,-5.135 5.135,-5.135Zm0,1.251c-2.144,0 -3.884,1.741 -3.884,3.884c-0,2.144 1.74,3.885 3.884,3.885c2.144,-0 3.884,-1.741 3.884,-3.885c0,-2.143 -1.74,-3.884 -3.884,-3.884Z" style="fill:#ead767;"/></g><g><g><path d="M36.911,67.231l-6.351,0c-4.282,-0.18 -8.97,-2.008 -14.158,-4.951l-0,-3.521c5.188,2.943 9.876,4.771 14.158,4.951l6.566,0l-0.215,3.521Z" style="fill-opacity:0.25;"/><path d="M37.126,63.71l-6.566,0c-4.282,-0.18 -8.97,-2.008 -14.158,-4.951l-0,-2.091c5.188,2.943 9.876,4.771 14.158,4.951l6.694,0l-0.128,2.091Z" style="fill:#d9d9d9;"/></g><g><g><path d="M29.915,91.802c-1.859,-0.258 -3.639,-0.326 -5.434,-0.871c-1.941,-0.589 -4.566,-3.199 -5.306,-7.004l-4.44,-23.567l0.207,-1.89l-1.026,-2.455l4.426,0l1.47,2.455l-0.087,2.164c-0.019,0.956 4.48,25.042 5.726,27.401c0.927,1.755 1.9,2.719 4.464,3.767Z" style="fill:#724e21;"/><path d="M29.915,91.802c-1.859,-0.258 -3.639,-0.326 -5.434,-0.871c-1.069,-0.325 -3.35,-4.18 -3.845,-6.89c-0.821,-4.499 -3.76,-20.862 -4.792,-25.571l3.968,0l-0.087,2.164c-0.019,0.956 4.476,25.034 5.726,27.401c0.927,1.755 1.9,2.719 4.464,3.767Z" style="fill:#8e6532;"/></g><g><path d="M19.725,60.634l-5.184,0.019l0.047,-2.183l5.224,0l-0.087,2.164Z" style="fill:#b3b3b3;"/><path d="M18.342,56.015l1.47,2.455l-5.224,0l-1.47,-2.455l5.224,0Z" style="fill:#fff;"/></g></g></g><g><path d="M77.843,72.13l-41.178,0l0.052,-0.923l40.572,0.022l0.554,0.901Z" style="fill:#733a1c;"/><path d="M78.457,73.129l-41.848,-0l0.107,-1.9l40.573,-0l1.168,1.9Z" style="fill:#fff;"/></g></g><path d="M21.883,89.691c-0.018,-0.009 -0.025,-0.032 -0.016,-0.05c0.01,-0.019 0.032,-0.026 0.051,-0.016c1.511,0.594 3.113,1.054 4.75,1.446c1.599,0.382 3.208,0.68 4.793,0.76l3.56,-0.139l10.343,0.083c0.669,-0.005 1.338,-0.041 2.007,-0.089c1.633,-0.118 3.266,-0.312 4.899,-0.377c1.537,-0.055 3.081,-0.024 4.626,0.041c1.357,0.056 2.717,0.107 4.072,0.193c0.894,0.057 1.781,0.146 2.672,0.187c1.092,0.051 2.183,0.104 3.279,0.072c2.605,-0.078 5.204,-0.387 7.805,-0.343c1.428,0.059 2.867,0.126 4.303,0.227c0.608,0.042 1.214,0.08 1.819,0.148c0.546,0.061 1.072,0.142 1.613,0.23c0.845,0.137 1.616,0.311 2.463,0.415c0.02,-0.002 0.039,0.013 0.041,0.034c0.002,0.02 -0.013,0.038 -0.033,0.041c-0.823,0.279 -1.59,0.531 -2.444,0.709c-0.553,0.116 -1.098,0.193 -1.663,0.241c-0.62,0.053 -1.243,0.052 -1.867,0.049c-1.435,-0.009 -2.869,-0.106 -4.292,-0.135c-1.812,-0.084 -3.63,-0.039 -5.447,0.034c-0.738,0.03 -1.476,0.044 -2.212,0.096c-1.121,0.081 -2.232,0.218 -3.35,0.285c-0.768,0.048 -1.535,0.095 -2.307,0.097c-2.995,0.008 -6.002,-0.277 -8.98,-0.138c-1.607,0.063 -3.213,0.257 -4.821,0.37c-0.722,0.05 -1.445,0.085 -2.168,0.088c-1.402,0.005 -2.8,0.005 -4.194,-0.042c-2.091,-0.071 -4.173,-0.225 -6.267,-0.379c-0.828,-0.097 -1.664,-0.131 -2.496,-0.215c-0.383,-0.038 -0.762,-0.082 -1.139,-0.149c-1.655,-0.28 -3.334,-0.724 -4.941,-1.387c-1.585,-0.654 -3.067,-1.493 -4.459,-2.387Z" style="fill:#fff;"/></g></g></g></svg>