<?xml version="1.0" encoding="UTF-8" standalone="no"?><!DOCTYPE svg PUBLIC "-//W3C//DTD SVG 1.1//EN" "http://www.w3.org/Graphics/SVG/1.1/DTD/svg11.dtd"><svg width="100%" height="100%" viewBox="0 0 100 121" version="1.1" xmlns="http://www.w3.org/2000/svg" xmlns:xlink="http://www.w3.org/1999/xlink" xml:space="preserve" xmlns:serif="http://www.serif.com/" style="fill-rule:evenodd;clip-rule:evenodd;stroke-linejoin:round;stroke-miterlimit:2;"><g><g id="_4" serif:id="4"><g id="Front-4" serif:id="Front 4"><g><g><path d="M81.644,73.549l-8.071,19.461l-34.854,-0c-1.938,-0.082 -3.958,-0.501 -6.071,-1.208c-2.556,-0.855 -5.247,-2.132 -8.087,-3.743l-3.437,-19.881c5.188,2.942 9.876,4.77 14.158,4.951l38.41,-0l0.258,0.42l7.694,0Z" style="fill:#8c4e26;"/><path d="M81.644,73.549l-7.139,17.214l-35.561,-0c-4.281,-0.18 -8.97,-2.008 -14.158,-4.951l0,2.374c-0.075,-0.042 -0.15,-0.085 -0.225,-0.127l-3.437,-19.881c5.188,2.942 9.876,4.77 14.158,4.951l38.41,-0l0.258,0.42l7.694,0Z" style="fill:#9f6036;"/><path d="M81.644,73.549l-6.444,15.537l-36.481,0.022c-4.282,-0.18 -8.971,-2.008 -14.158,-4.951l-3.437,-15.979c5.188,2.942 9.876,4.77 14.158,4.951l38.41,-0l0.258,0.42l7.694,0Z" style="fill:#8c4e26;"/><path d="M81.644,73.549l-5.309,12.801l-41.053,0c-3.38,-0.142 -7.015,-1.311 -10.948,-3.245l-3.21,-14.927c5.188,2.942 9.876,4.77 14.158,4.951l38.41,-0l0.258,0.42l7.694,0Z" style="fill:#9f6036;"/><path d="M81.644,73.549l-4.538,10.943l-41.824,-0c-3.508,-0.148 -7.29,-1.402 -11.395,-3.469l-2.763,-12.845c5.188,2.942 9.876,4.77 14.158,4.951l38.41,-0l0.258,0.42l7.694,0Z" style="fill:#8c4e26;"/><path d="M81.644,73.549l-3.636,8.767l-42.726,-0c-3.658,-0.154 -7.612,-1.511 -11.921,-3.737l-2.237,-10.401c5.188,2.942 9.876,4.77 14.158,4.951l38.41,-0l0.258,0.42l7.694,0Z" style="fill:#9f6036;"/><path d="M81.644,73.549l-2.485,5.992l-43.877,-0c-3.847,-0.162 -8.023,-1.654 -12.594,-4.09l-1.564,-7.273c5.188,2.942 9.876,4.77 14.158,4.951l38.41,-0l0.258,0.42l7.694,0Z" style="fill:#8c4e26;"/><path d="M81.644,73.549l-1.582,3.816l-44.78,-0c-4.058,-0.171 -8.481,-1.822 -13.348,-4.499l-0.81,-4.688c5.188,2.942 9.876,4.77 14.158,4.951l38.41,-0l0.258,0.42l7.694,0Z" style="fill:#9f6036;"/></g><g><path d="M39.341,85.169l0,-1.197c0,-2.834 2.301,-5.135 5.135,-5.135c2.835,0 5.136,2.301 5.136,5.135l-0,1.197c-0,2.834 -2.301,5.135 -5.136,5.135c-2.834,-0 -5.135,-2.301 -5.135,-5.135Z" style="fill-opacity:0.25;"/><path d="M39.341,82.776c0,-2.834 2.301,-5.135 5.135,-5.135c2.835,0 5.136,2.301 5.136,5.135l-0,1.196l-0.141,0c-0.539,2.259 -2.572,3.94 -4.995,3.94c-2.422,-0 -4.455,-1.681 -4.995,-3.94l-0.14,0l0,-1.196Z" style="fill:#c1af49;"/><circle cx="44.476" cy="83.972" r="5.135" style="fill:#d6fffe;"/><path d="M39.657,85.749l3.302,-6.382l2.307,-0l-4.313,8.34c-0.571,-0.539 -1.019,-1.208 -1.296,-1.958Zm9.275,-4.331l-3.359,6.494l-0.582,-0l3.615,-6.99c0.118,0.158 0.227,0.324 0.326,0.496Zm-1.496,-1.642l-4.208,8.136l-1.251,-0l4.42,-8.545l0.351,-0c0.241,0.119 0.471,0.256 0.688,0.409Z" style="fill:#fff;"/><path d="M44.476,78.02c2.835,-0 5.136,2.301 5.136,5.135c-0,2.834 -2.301,5.135 -5.136,5.135c-2.834,0 -5.135,-2.301 -5.135,-5.135c0,-2.834 2.301,-5.135 5.135,-5.135Zm0,1.251c-2.143,0 -3.884,1.74 -3.884,3.884c0,2.144 1.741,3.884 3.884,3.884c2.144,0 3.885,-1.74 3.885,-3.884c-0,-2.144 -1.741,-3.884 -3.885,-3.884Z" style="fill:#c1af49;"/><path d="M44.476,78.837c2.835,0 5.136,2.301 5.136,5.135c-0,2.835 -2.301,5.136 -5.136,5.136c-2.834,-0 -5.135,-2.301 -5.135,-5.136c0,-2.834 2.301,-5.135 5.135,-5.135Zm0,1.251c-2.143,0 -3.884,1.741 -3.884,3.884c0,2.144 1.741,3.885 3.884,3.885c2.144,-0 3.885,-1.741 3.885,-3.885c-0,-2.143 -1.741,-3.884 -3.885,-3.884Z" style="fill:#ead767;"/></g><g><path d="M57.792,85.169l0,-1.197c0,-2.834 2.301,-5.135 5.135,-5.135c2.835,0 5.136,2.301 5.136,5.135l-0,1.197c-0,2.834 -2.301,5.135 -5.136,5.135c-2.834,-0 -5.135,-2.301 -5.135,-5.135Z" style="fill-opacity:0.25;"/><path d="M57.792,82.776c0,-2.834 2.301,-5.135 5.135,-5.135c2.835,0 5.136,2.301 5.136,5.135l-0,1.196l-0.141,0c-0.539,2.259 -2.572,3.94 -4.995,3.94c-2.422,-0 -4.455,-1.681 -4.995,-3.94l-0.14,0l0,-1.196Z" style="fill:#c1af49;"/><circle cx="62.927" cy="83.972" r="5.135" style="fill:#d6fffe;"/><path d="M58.108,85.749l3.301,-6.382l2.308,-0l-4.313,8.34c-0.571,-0.539 -1.019,-1.208 -1.296,-1.958Zm9.274,-4.331l-3.358,6.494l-0.582,-0l3.615,-6.99c0.118,0.158 0.227,0.324 0.325,0.496Zm-1.495,-1.642l-4.208,8.136l-1.251,-0l4.42,-8.545l0.351,-0c0.241,0.119 0.471,0.256 0.688,0.409Z" style="fill:#fff;"/><path d="M62.927,78.02c2.835,-0 5.136,2.301 5.136,5.135c-0,2.834 -2.301,5.135 -5.136,5.135c-2.834,0 -5.135,-2.301 -5.135,-5.135c0,-2.834 2.301,-5.135 5.135,-5.135Zm0,1.251c-2.143,0 -3.884,1.74 -3.884,3.884c0,2.144 1.741,3.884 3.884,3.884c2.144,0 3.884,-1.74 3.884,-3.884c0,-2.144 -1.74,-3.884 -3.884,-3.884Z" style="fill:#c1af49;"/><path d="M62.927,78.837c2.835,0 5.136,2.301 5.136,5.135c-0,2.835 -2.301,5.136 -5.136,5.136c-2.834,-0 -5.135,-2.301 -5.135,-5.136c0,-2.834 2.301,-5.135 5.135,-5.135Zm0,1.251c-2.143,0 -3.884,1.741 -3.884,3.884c0,2.144 1.741,3.885 3.884,3.885c2.144,-0 3.884,-1.741 3.884,-3.885c0,-2.143 -1.74,-3.884 -3.884,-3.884Z" style="fill:#ead767;"/></g><g><g><path d="M81.637,73.549l-1.345,3.101l-45.01,-0c-4.282,-0.181 -8.97,-2.009 -14.158,-4.952l-0,-3.52c5.188,2.942 9.876,4.77 14.158,4.951l38.41,-0l0.258,0.42l7.687,0Z" style="fill-opacity:0.25;"/><path d="M83.588,73.549l-0.724,1.67l-47.582,0c-4.282,-0.18 -8.97,-2.008 -14.158,-4.951l-0,-2.09c5.188,2.942 9.876,4.77 14.158,4.951l38.41,-0l0.258,0.42l9.638,0Z" style="fill:#d9d9d9;"/></g><g><g><path d="M32.648,91.802c-1.86,-0.258 -3.64,-0.326 -5.435,-0.871c-1.941,-0.589 -4.565,-3.199 -5.305,-7.004l-3.22,-16.394l4.411,-0l1.478,2.468l-0.087,2.164c-0.019,0.956 2.448,13.511 3.694,15.87c0.927,1.755 1.9,2.719 4.464,3.767Z" style="fill:#724e21;"/><path d="M32.648,91.802c-1.86,-0.258 -3.64,-0.326 -5.435,-0.871c-1.068,-0.325 -3.349,-4.18 -3.844,-6.89c-0.822,-4.499 -1.728,-9.331 -2.76,-14.04l3.968,0l-0.087,2.164c-0.019,0.956 2.444,13.503 3.694,15.87c0.927,1.755 1.9,2.719 4.464,3.767Z" style="fill:#8e6532;"/></g><g><path d="M19.306,72.184l-2.091,-3.568l0,-1.267l0.729,0.184l5.155,-0l1.478,2.468l-5.224,0l-0.047,2.183Z" style="fill:#d9d9d9;"/><path d="M24.49,72.165l-5.184,0.019l0.047,-2.183l5.224,0l-0.087,2.164Z" style="fill:#b3b3b3;"/><path d="M23.099,67.533l1.478,2.468l-5.224,0l-1.49,-2.489l0.081,0.021l5.155,-0Z" style="fill:#fff;"/><path d="M5.796,68.187l-1.031,-1.798l0,-2.186l13.098,3.309l0.935,1.561l-12.954,-3.068l-0.048,2.182Z" style="fill:#d9d9d9;"/><path d="M18.798,69.073l-0.087,2.164l-12.915,-3.05l0.048,-2.182l12.954,3.068Z" style="fill:#b3b3b3;"/><path d="M17.863,67.512l0.935,1.561l-12.954,-3.068l-1.079,-1.802l13.098,3.309Z" style="fill:#fff;"/></g></g></g><g><path d="M73.692,73.129l-38.41,-0c-4.282,-0.181 -8.97,-2.009 -14.158,-4.951c0.125,-0.222 0.255,-0.437 0.39,-0.645l2.389,-0c4.137,2.176 7.918,3.54 11.421,3.696l37.2,-0l1.168,1.9Z" style="fill:#fff;"/></g></g><path d="M24.544,89.798c-0.017,-0.01 -0.022,-0.031 -0.012,-0.048c0.01,-0.016 0.032,-0.022 0.048,-0.012c0.175,0.071 0.349,0.123 0.523,0.191c0.684,0.264 1.366,0.506 2.082,0.657c1.348,0.286 2.743,0.368 4.107,0.508c1.195,0.095 2.386,0.324 3.59,0.446c0.488,0.05 0.969,0.066 1.455,0.064l7.088,0.039c2.171,0.041 4.339,0.259 6.509,0.359c0.901,0.041 1.803,0.056 2.704,0.037c2.185,-0.046 4.369,-0.292 6.56,-0.478c0.956,-0.081 1.914,-0.151 2.872,-0.191c1.391,-0.059 2.779,-0.053 4.166,0.008c0.957,0.021 1.926,0.072 2.898,0.137c1.434,0.097 2.874,0.224 4.283,0.34c0.708,0.146 1.35,0.284 1.999,0.454c0.439,0.116 0.841,0.249 1.293,0.351c0.464,0.105 0.912,0.189 1.43,0.241c0.003,-0.001 0.005,0.001 0.006,0.004c0,0.003 -0.002,0.005 -0.005,0.006c-0.865,0.29 -1.616,0.45 -2.428,0.541c-0.788,0.087 -1.553,0.085 -2.406,0.159c-1.402,-0.062 -2.835,-0.136 -4.262,-0.173c-0.942,-0.024 -1.881,-0.03 -2.807,-0.009c-1.245,0.058 -2.482,0.196 -3.725,0.321c-0.94,0.095 -1.881,0.19 -2.823,0.277c-0.954,0.088 -1.909,0.157 -2.863,0.223c-1.388,0.096 -2.774,0.165 -4.159,0.169c-0.636,0.002 -1.272,-0.016 -1.908,-0.042c-2.461,-0.101 -4.919,-0.366 -7.381,-0.421c-1.433,-0.035 -2.868,0.018 -4.3,-0.035c-0.989,-0.036 -1.973,-0.13 -2.955,-0.271c-0.36,-0.078 -0.712,-0.165 -1.069,-0.265c-1.326,-0.375 -2.62,-0.877 -3.943,-1.232c-1.354,-0.326 -2.742,-0.61 -4.065,-1.071c-0.714,-0.25 -1.426,-0.511 -2.057,-0.932c-0.159,-0.106 -0.298,-0.227 -0.445,-0.352Z" style="fill:#fff;"/></g></g></g></svg>