<?xml version="1.0" encoding="UTF-8" standalone="no"?><!DOCTYPE svg PUBLIC "-//W3C//DTD SVG 1.1//EN" "http://www.w3.org/Graphics/SVG/1.1/DTD/svg11.dtd"><svg width="100%" height="100%" viewBox="0 0 100 121" version="1.1" xmlns="http://www.w3.org/2000/svg" xmlns:xlink="http://www.w3.org/1999/xlink" xml:space="preserve" xmlns:serif="http://www.serif.com/" style="fill-rule:evenodd;clip-rule:evenodd;stroke-linejoin:round;stroke-miterlimit:2;"><g><g id="_3" serif:id="3"><g id="Front-3" serif:id="Front 3"><g><g><path d="M81.255,73.488l-3.541,11.085l-42.867,0c-1.937,-0.081 -3.958,-0.5 -6.071,-1.207c-2.556,-0.856 -5.247,-2.133 -8.087,-3.744l0.013,-11.086c5.188,2.943 9.877,4.771 14.158,4.952l46.395,-0Z" style="fill:#8c4e26;"/><path d="M81.255,73.488l-2.823,8.838l-43.359,-0c-4.282,-0.18 -8.971,-2.008 -14.159,-4.951l0,2.374c-0.075,-0.042 -0.15,-0.084 -0.225,-0.127l0.013,-11.086c5.188,2.943 9.877,4.771 14.158,4.952l46.395,-0Z" style="fill:#9f6036;"/><path d="M81.255,73.488l-2.295,7.183l-44.113,-0c-4.282,-0.18 -8.97,-2.008 -14.158,-4.951l0.013,-7.184c5.188,2.943 9.877,4.771 14.158,4.952l46.395,-0Z" style="fill:#8c4e26;"/><path d="M81.255,73.488l-1.591,4.98l-44.804,-0c-4.281,-0.181 -8.97,-2.009 -14.158,-4.951l-0.004,2.208l-0.009,-0.005l0.013,-7.184c5.188,2.943 9.877,4.771 14.158,4.952l46.395,-0Z" style="fill:#9f6036;"/></g><g><path d="M81.255,73.488l-1.132,3.544l-45.27,-0c-4.282,-0.181 -8.97,-2.009 -14.158,-4.952l0.007,-3.544c5.188,2.943 9.877,4.771 14.158,4.952l46.395,-0Z" style="fill-opacity:0.25;"/><path d="M83.206,73.488l-0.906,2.09l-47.44,0c-4.281,-0.18 -8.97,-2.008 -14.158,-4.951l0,-2.091c5.188,2.943 9.877,4.771 14.158,4.952l48.346,-0Z" style="fill:#d9d9d9;"/><g><path d="M28.776,83.366c-1.859,-0.259 -3.639,-0.327 -5.434,-0.872c-1.941,-0.589 -5.306,-3.199 -5.306,-7.004l0.012,-7.608l4.624,0l1.483,2.478l-0.087,2.164c-0.018,0.956 0.247,5.905 0.865,7.074c0.926,1.756 1.279,2.72 3.843,3.768Z" style="fill:#724e21;"/><path d="M28.776,83.366c-1.859,-0.259 -3.639,-0.327 -5.434,-0.872c-1.941,-0.589 -3.215,-3.199 -3.215,-7.004l0.061,-5.13l3.967,0l-0.087,2.164c-0.018,0.956 0.247,5.905 0.865,7.074c0.926,1.756 1.279,2.72 3.843,3.768Z" style="fill:#8e6532;"/><path d="M18.884,72.543l-2.09,-3.568l-0,-1.093l5.878,0l1.483,2.478l-5.223,0l-0.048,2.183Z" style="fill:#d9d9d9;"/><path d="M24.155,70.36l-0.087,2.164l-5.184,0.019l0.048,-2.183l5.223,0Z" style="fill:#b3b3b3;"/><path d="M22.672,67.882l1.483,2.478l-5.223,0l-1.484,-2.478l5.224,0Z" style="fill:#fff;"/></g></g><g><g><path d="M79.855,67.89l3.351,5.598l-48.346,-0c-4.281,-0.181 -8.97,-2.009 -14.158,-4.952c0.127,-0.224 0.259,-0.442 0.396,-0.654l2.384,0l-0.006,0.007c4.139,2.178 7.922,3.543 11.426,3.699l30.611,-0l14.342,-0l-0,-3.698Z" style="fill:#fff;"/></g></g></g><path d="M21.311,81.821c-0.024,-0.012 -0.033,-0.04 -0.021,-0.064c0.012,-0.023 0.041,-0.032 0.064,-0.02c0.63,0.249 1.262,0.427 1.898,0.6c0.639,0.174 1.271,0.354 1.92,0.455c1.18,0.184 2.363,0.18 3.566,0.232c0.801,0.034 1.599,0.084 2.404,0.131c1.016,0.066 2.023,0.117 3.031,0.198c1.407,0.113 2.805,0.25 4.206,0.367c0.928,0.077 1.856,0.162 2.787,0.221c1.409,0.089 2.824,0.141 4.252,0.136c0.758,-0.002 1.513,-0.063 2.266,-0.144c1.881,-0.203 3.756,-0.543 5.645,-0.626c2.179,-0.091 4.379,-0.241 6.574,-0.33c1.488,-0.06 2.974,-0.092 4.451,-0.068c1.417,0.028 2.829,0.056 4.235,0.153c1.637,0.113 3.254,0.337 4.888,0.439c1.457,0.091 2.919,0.042 4.382,0.103c0.164,0.007 0.324,0.026 0.487,0.04c0.156,0.014 0.311,0.01 0.464,0.044c0.287,0.063 0.503,0.153 0.77,0.274c0.139,0.064 0.203,0.117 0.336,0.192c0.054,-0.003 0.101,0.04 0.104,0.094c0.003,0.055 -0.039,0.102 -0.094,0.105c-0.143,0.099 -0.21,0.169 -0.364,0.252c-0.289,0.155 -0.548,0.257 -0.867,0.338c-0.308,0.078 -0.625,0.092 -0.941,0.114c-0.315,0.023 -0.63,0.014 -0.944,0.019c-1.006,0.016 -2.01,-0.009 -3.014,0.004c-1.504,0.018 -2.998,0.117 -4.504,0.119c-1.648,0.003 -3.297,-0.063 -4.955,-0.049c-1.076,0.001 -2.156,0.035 -3.239,0.084c-2.554,0.116 -5.119,0.323 -7.657,0.458c-1.84,0.092 -3.664,0.45 -5.498,0.648c-0.84,0.09 -1.684,0.146 -2.53,0.141c-2.468,-0.018 -4.902,-0.172 -7.323,-0.455c-1.443,-0.169 -2.882,-0.369 -4.32,-0.614c-0.951,-0.163 -1.892,-0.362 -2.845,-0.544c-0.692,-0.133 -1.382,-0.245 -2.069,-0.389c-1.317,-0.277 -2.581,-0.647 -3.854,-1.046c-0.317,-0.099 -0.637,-0.186 -0.953,-0.293c-0.385,-0.13 -0.769,-0.264 -1.142,-0.432c-0.552,-0.248 -1.074,-0.551 -1.596,-0.887Z" style="fill:#fff;"/></g></g></g></svg>