<?xml version="1.0" encoding="UTF-8" standalone="no"?><!DOCTYPE svg PUBLIC "-//W3C//DTD SVG 1.1//EN" "http://www.w3.org/Graphics/SVG/1.1/DTD/svg11.dtd"><svg width="100%" height="100%" viewBox="0 0 100 121" version="1.1" xmlns="http://www.w3.org/2000/svg" xmlns:xlink="http://www.w3.org/1999/xlink" xml:space="preserve" xmlns:serif="http://www.serif.com/" style="fill-rule:evenodd;clip-rule:evenodd;stroke-linejoin:round;stroke-miterlimit:2;"><g><g id="_3" serif:id="3"><g id="Back-3" serif:id="Back 3"><path d="M77.714,84.573l-42.867,0c-4.282,-0.18 -8.97,-2.008 -14.158,-4.951l0.013,-11.086c5.188,2.943 9.877,4.771 14.158,4.952l46.395,-0l-3.541,11.085Z" style="fill:#8c4e26;"/><g><path d="M20.695,72.08l0.007,-3.544c5.188,2.943 9.877,4.771 14.158,4.952l46.395,-0l-1.132,3.544l-45.27,-0c-4.282,-0.181 -8.97,-2.009 -14.158,-4.952Z" style="fill-opacity:0.25;"/><path d="M20.702,70.627l0,-2.091c5.188,2.943 9.877,4.771 14.158,4.952l48.346,-0l-0.906,2.09l-47.44,0c-4.281,-0.18 -8.97,-2.008 -14.158,-4.951Z" style="fill:#d9d9d9;"/><g><path d="M18.049,66.789l3.968,-0l2.138,3.571l-0.087,2.164c-0.018,0.956 0.247,5.905 0.865,7.074c0.926,1.756 1.279,2.72 3.843,3.768c-1.859,-0.259 -3.639,-0.327 -5.434,-0.872c-1.941,-0.589 -5.306,-3.199 -5.306,-7.004l0.013,-8.701Z" style="fill:#724e21;"/><path d="M24.155,70.36l-0.087,2.164c-0.018,0.956 0.247,5.905 0.865,7.074c0.926,1.756 1.279,2.72 3.843,3.768c-1.859,-0.259 -3.639,-0.327 -5.434,-0.872c-1.941,-0.589 -3.215,-3.199 -3.215,-7.004l0.061,-5.13l3.967,0Z" style="fill:#8e6532;"/><path d="M18.884,72.543l-2.09,-3.568l-0,-2.186l5.223,-0l2.138,3.571l-5.223,0l-0.048,2.183Z" style="fill:#d9d9d9;"/><path d="M24.155,70.36l-0.087,2.164l-5.184,0.019l0.048,-2.183l5.223,0Z" style="fill:#b3b3b3;"/><path d="M16.794,66.789l5.223,-0l2.138,3.571l-5.223,0l-2.138,-3.571Z" style="fill:#fff;"/></g></g><g><g><path d="M34.882,72.489c-3.891,-0.168 -8.12,-1.762 -12.777,-4.313c1.482,-2.138 3.614,-3.443 6.846,-3.592c0.004,-0 47.761,-0 47.761,-0c0,-0 4.733,7.905 4.733,7.905l-46.563,0Z" style="fill:#733a1c;"/><path d="M73.933,72.489l2.779,-7.905c0,-0 4.733,7.905 4.733,7.905l-7.512,0Z" style="fill:#5c2d14;"/><path d="M21.734,68.382c1.628,-2.034 3.896,-3.267 7.198,-3.413l48.346,-0l4.534,7.574l-3.099,-0l-3.397,-5.675c-4.434,0 -46.235,-0 -46.327,-0c-2.327,0.108 -4.024,0.875 -5.29,2.167c-0,-0 -1.43,-0.468 -1.965,-0.653Z" style="fill:#d9d9d9;"/><path d="M75.316,66.868l0.885,-1.383l1.077,-0.516l4.534,7.574l-3.099,-0l-3.397,-5.675Z" style="fill:#b5b5b5;"/><path d="M34.86,73.488c-4.281,-0.181 -8.97,-2.009 -14.158,-4.952c1.664,-2.942 4.164,-4.77 8.23,-4.951l48.346,0l5.928,9.903l-48.346,-0Zm41.341,-8.003c-4.434,-0 -47.12,-0.001 -47.212,-0.001c-2.467,0.115 -4.225,0.97 -5.513,2.405c4.139,2.178 7.922,3.543 11.426,3.699l44.953,-0l-3.654,-6.103Z" style="fill:#fff;"/></g><g><g><path d="M76.201,54.502l-14.342,-3.361l-0,20.447l17.996,-0l-0,-10.983l-3.654,-6.103Z" style="fill:#ff3644;"/><path d="M62.474,56.684l2.456,4.102c0,11.392 0,7.181 0,10.802l-2.456,-0l-0,-14.904Z" style="fill:#0a0909;"/><path d="M63.702,71.588l-1.228,-0l-0,-14.904l1.228,2.051l0,12.853Z" style="fill:#351805;"/><path d="M79.855,60.605l-14.342,-3.361l-0,14.344l14.342,-0l-0,-10.983Z" style="fill:#c41522;"/><g><path d="M68.715,66.733l-0.128,-0.717c-0.303,-1.698 0.829,-3.076 2.527,-3.076c1.698,-0 3.323,1.378 3.626,3.076l0.128,0.717c0.304,1.698 -0.828,3.077 -2.526,3.077c-1.698,-0 -3.323,-1.379 -3.627,-3.077Z" style="fill-opacity:0.25;"/><circle cx="71.615" cy="65.202" r="3.077" style="fill:#c1af49;"/><circle cx="72.022" cy="65.571" r="3.077" style="fill:#d6fffe;"/><path d="M69.135,66.635l1.978,-3.824l1.382,0l-2.584,4.997c-0.342,-0.323 -0.61,-0.723 -0.776,-1.173Zm5.556,-2.594l-2.012,3.89l-0.349,-0l2.166,-4.188c0.071,0.095 0.136,0.195 0.195,0.298Zm-0.896,-0.984l-2.521,4.874l-0.749,-0l2.648,-5.12l0.21,0c0.144,0.072 0.282,0.154 0.412,0.246Z" style="fill:#fff;"/><path d="M74.81,66.384c-0.491,1.047 -1.555,1.774 -2.788,1.774c-1.324,-0 -2.454,-0.838 -2.887,-2.012l-0,-1.065l0.56,0c-0,1.285 1.043,2.327 2.327,2.327c1.284,0 2.327,-1.042 2.327,-2.327l0.461,0l-0,1.303Z" style="fill:#c1af49;"/><path d="M72.022,62.494c1.698,0 3.076,1.379 3.076,3.077c0,1.698 -1.378,3.076 -3.076,3.076c-1.698,0 -3.077,-1.378 -3.077,-3.076c0,-1.698 1.379,-3.077 3.077,-3.077Zm-0,0.75c-1.284,-0 -2.327,1.043 -2.327,2.327c-0,1.284 1.043,2.327 2.327,2.327c1.284,-0 2.327,-1.043 2.327,-2.327c-0,-1.284 -1.043,-2.327 -2.327,-2.327Z" style="fill:#ead767;"/></g><path d="M76.201,54.502l-14.342,-3.361l-0,3.033l3.654,6.103l14.342,2.262l-0,-1.934l-3.654,-6.103Z" style="fill-opacity:0.25;"/></g><g><path d="M81.331,61.604l-16.009,-3.752l-4.383,-7.32l0,-1.875l16.009,3.751l4.383,7.321l-0,1.875Z" style="fill:#d9d9d9;"/><path d="M81.331,59.729l-16.009,-3.752l-4.383,-7.32l16.009,3.751l4.383,7.321Z" style="fill:#fff;"/></g><g><path d="M74.639,56.337c0.016,0.469 -0.563,0.673 -1.501,0.46c-1.184,-0.27 -2.496,-1.102 -2.928,-1.858c-0.097,-0.17 -0.141,-0.322 -0.138,-0.452l-0.001,-10.615l4.569,1.849l-0,10.616l-0.001,-0Z" style="fill:#c41522;"/><path d="M74.64,50.565l-0,5.772c0.015,0.47 -0.564,0.673 -1.502,0.46c-1.184,-0.27 -2.496,-1.102 -2.928,-1.858c-0.097,-0.17 -0.141,-0.322 -0.138,-0.452l-0.001,-5.771c0.002,0.126 0.046,0.271 0.139,0.433c0.432,0.756 1.744,1.588 2.928,1.858c0.926,0.21 1.502,0.015 1.502,-0.442Z" style="fill:#434343;"/><path d="M74.64,46.913l-0,1.744c0.015,0.47 -0.564,0.673 -1.502,0.46c-1.184,-0.269 -2.496,-1.102 -2.928,-1.858c-0.097,-0.17 -0.141,-0.321 -0.138,-0.451l-0.001,-1.743c0.002,0.125 0.046,0.271 0.139,0.433c0.432,0.756 1.744,1.588 2.928,1.857c0.926,0.211 1.502,0.015 1.502,-0.442Z" style="fill:#434343;"/><path d="M71.573,43.424c1.184,0.269 2.496,1.102 2.928,1.858c0.432,0.755 -0.179,1.15 -1.363,0.881c-1.184,-0.269 -2.496,-1.102 -2.928,-1.858c-0.432,-0.756 0.179,-1.15 1.363,-0.881Z" style="fill:#7a0009;"/><path d="M71.573,43.424c1.184,0.269 2.496,1.102 2.928,1.858c0.432,0.755 -0.179,1.15 -1.363,0.881c-1.184,-0.269 -2.496,-1.102 -2.928,-1.858c-0.432,-0.756 0.179,-1.15 1.363,-0.881Zm-0.835,0.551c0.004,0.008 0.008,0.015 0.012,0.022c0.37,0.647 1.512,1.329 2.526,1.56c0.231,0.053 0.434,0.076 0.604,0.067c0.029,-0.001 0.062,-0.006 0.093,-0.012c-0.004,-0.008 -0.008,-0.015 -0.012,-0.022c-0.37,-0.647 -1.512,-1.329 -2.526,-1.56c-0.231,-0.053 -0.434,-0.076 -0.604,-0.068c-0.029,0.002 -0.062,0.007 -0.093,0.013Z" style="fill:#a3000c;"/></g></g></g></g></g></g></svg>