<?xml version="1.0" encoding="UTF-8" standalone="no"?><!DOCTYPE svg PUBLIC "-//W3C//DTD SVG 1.1//EN" "http://www.w3.org/Graphics/SVG/1.1/DTD/svg11.dtd"><svg width="100%" height="100%" viewBox="0 0 100 100" version="1.1" xmlns="http://www.w3.org/2000/svg" xmlns:xlink="http://www.w3.org/1999/xlink" xml:space="preserve" xmlns:serif="http://www.serif.com/" style="fill-rule:evenodd;clip-rule:evenodd;stroke-linejoin:round;stroke-miterlimit:2;"><g id="_1" serif:id="1"><g><g><path d="M29.952,56.23l40.985,-0l-0.907,2.091l-40.984,-0l0.906,-2.091Z" style="fill:#8c4e26;"/><path d="M27.967,52.913l40.984,0l1.986,3.317l-40.985,-0l-1.985,-3.317Z" style="fill:#733a1c;"/><path d="M27.967,52.913l-0.907,2.091l1.986,3.317l0.906,-2.091l-1.985,-3.317Z" style="fill:#5d270b;"/></g><g><path d="M27.718,60.519l40.632,0l-0.907,2.091l-40.631,-0l0.906,-2.091Z" style="fill:#8c4e26;"/><path d="M25.629,57.051l40.632,-0l2.089,3.468l-40.632,0l-2.089,-3.468Z" style="fill:#733a1c;"/><path d="M25.629,57.051l-0.906,2.09l2.089,3.469l0.906,-2.091l-2.089,-3.468Z" style="fill:#5d270b;"/></g><g><path d="M32.541,64.492l41.018,0l-0.907,2.091l-41.018,0l0.907,-2.091Z" style="fill:#8c4e26;"/><path d="M30.555,61.175l41.018,0l1.986,3.317l-41.018,0l-1.986,-3.317Z" style="fill:#733a1c;"/><path d="M30.555,61.175l-0.906,2.091l1.985,3.317l0.907,-2.091l-1.986,-3.317Z" style="fill:#5d270b;"/></g><g><path d="M67.128,65.155l2.622,0l-0.252,0.583l-2.622,-0l0.252,-0.583Z" style="fill:#8e6532;"/><path d="M58.991,51.564l2.622,-0l8.137,13.591l-2.622,0l-8.137,-13.591Z" style="fill:#a37237;"/><path d="M58.991,51.564l-0.252,0.582l8.137,13.592l0.252,-0.583l-8.137,-13.591Z" style="fill:#724e21;"/></g><g><path d="M37.228,65.155l2.622,0l-0.252,0.583l-2.622,-0l0.252,-0.583Z" style="fill:#8e6532;"/><path d="M29.091,51.564l2.622,-0l8.137,13.591l-2.622,0l-8.137,-13.591Z" style="fill:#a37237;"/><path d="M29.091,51.564l-0.252,0.582l8.137,13.592l0.252,-0.583l-8.137,-13.591Z" style="fill:#724e21;"/></g><g><path d="M68.35,63.111c-0,0.301 -0.449,0.489 -1.001,0.421c-0.552,-0.068 -1,-0.368 -1,-0.669c-0,-0.009 0,-0.019 0.001,-0.029l-0.001,-0l0.051,-0.247l2.001,0.247l-0.051,0.277Z" style="fill:#555;"/><path d="M67.401,62.165c0.552,0.068 1,0.368 1,0.669c0,0.301 -0.448,0.49 -1,0.421c-0.552,-0.068 -1.001,-0.368 -1.001,-0.668c0,-0.301 0.449,-0.49 1.001,-0.422Z" style="fill:#646464;"/><path d="M67.444,62.227c0.473,0.058 0.857,0.315 0.857,0.572c-0,0.258 -0.384,0.419 -0.857,0.361c-0.473,-0.058 -0.856,-0.315 -0.856,-0.572c-0,-0.258 0.383,-0.42 0.856,-0.361Z" style="fill:#7a7a7a;"/></g><g><path d="M62.789,54.193c0,0.301 -0.448,0.49 -1,0.422c-0.553,-0.069 -1.001,-0.368 -1.001,-0.669c0,-0.01 0.001,-0.02 0.002,-0.029l-0.002,-0.001l0.052,-0.247l2.001,0.247l-0.052,0.277Z" style="fill:#555;"/><path d="M61.84,53.248c0.552,0.068 1.001,0.368 1.001,0.668c-0,0.301 -0.449,0.49 -1.001,0.422c-0.552,-0.068 -1,-0.368 -1,-0.669c-0,-0.301 0.448,-0.489 1,-0.421Z" style="fill:#646464;"/><path d="M61.884,53.309c0.472,0.059 0.856,0.315 0.856,0.573c0,0.257 -0.384,0.419 -0.856,0.361c-0.473,-0.059 -0.857,-0.315 -0.857,-0.573c0,-0.257 0.384,-0.419 0.857,-0.361Z" style="fill:#7a7a7a;"/></g><g><path d="M32.886,54.193c-0,0.301 -0.448,0.49 -1.001,0.422c-0.552,-0.069 -1,-0.368 -1,-0.669c-0,-0.01 0,-0.02 0.001,-0.029l-0.001,-0.001l0.052,-0.247l2,0.247l-0.051,0.277Z" style="fill:#555;"/><path d="M31.937,53.248c0.552,0.068 1,0.368 1,0.668c0,0.301 -0.448,0.49 -1,0.422c-0.552,-0.068 -1,-0.368 -1,-0.669c-0,-0.301 0.448,-0.489 1,-0.421Z" style="fill:#646464;"/><path d="M31.98,53.309c0.473,0.059 0.857,0.315 0.857,0.573c-0,0.257 -0.384,0.419 -0.857,0.361c-0.472,-0.059 -0.856,-0.315 -0.856,-0.573c-0,-0.257 0.384,-0.419 0.856,-0.361Z" style="fill:#7a7a7a;"/></g><g><path d="M38.089,62.849c0,0.301 -0.448,0.489 -1,0.421c-0.552,-0.068 -1,-0.368 -1,-0.669c-0,-0.009 0,-0.019 0.001,-0.029l-0.001,-0l0.051,-0.247l2.001,0.247l-0.052,0.277Z" style="fill:#555;"/><path d="M37.141,61.903c0.552,0.068 1,0.368 1,0.669c0,0.301 -0.448,0.49 -1,0.421c-0.553,-0.068 -1.001,-0.368 -1.001,-0.668c0,-0.301 0.448,-0.49 1.001,-0.422Z" style="fill:#646464;"/><path d="M37.184,61.965c0.473,0.058 0.856,0.315 0.856,0.572c0,0.258 -0.383,0.419 -0.856,0.361c-0.473,-0.058 -0.856,-0.315 -0.856,-0.572c-0,-0.258 0.383,-0.42 0.856,-0.361Z" style="fill:#7a7a7a;"/></g></g><path d="M30.662,66.659c-0.077,-0.012 -0.128,-0.084 -0.116,-0.16c0.013,-0.077 0.085,-0.128 0.161,-0.116c0.816,0.107 1.609,0.129 2.399,0.093c0.169,-0.008 0.338,-0.014 0.506,-0.035c0.691,-0.088 1.336,-0.293 2.036,-0.381c0.369,-0.046 0.742,-0.048 1.12,-0.06c2.234,0.016 4.446,0.09 6.668,0.116c0.94,0.011 1.882,0.018 2.828,-0.002c2.203,-0.035 4.404,0.022 6.608,0.017c0.93,-0.002 1.86,-0.014 2.792,-0.052c2.09,-0.062 4.18,-0.337 6.276,-0.472c1.433,-0.093 2.863,-0.106 4.292,-0.051c2.414,0.058 4.834,0.264 7.243,0.504c0.485,0.048 0.971,0.044 1.436,0.187c0.151,0.046 0.225,0.12 0.366,0.192c-0.136,0.083 -0.207,0.16 -0.357,0.213c-0.466,0.166 -0.965,0.158 -1.459,0.189c-2.402,0.152 -4.819,-0.124 -7.218,-0.022c-1.457,0.082 -2.902,0.292 -4.357,0.475c-0.979,0.124 -1.961,0.233 -2.944,0.332c-1.069,0.107 -2.141,0.185 -3.211,0.226c-0.955,0.033 -1.91,0.042 -2.864,0.035c-2.197,-0.018 -4.391,-0.113 -6.588,-0.108c-1.289,-0.004 -2.569,-0.042 -3.846,-0.111c-1.899,-0.101 -3.791,-0.259 -5.702,-0.357c-0.449,-0.046 -0.891,-0.059 -1.331,-0.101c-0.7,-0.067 -1.357,-0.217 -2.05,-0.28c-0.488,-0.044 -0.978,-0.038 -1.471,-0.089c-0.404,-0.042 -0.808,-0.099 -1.217,-0.182Z" style="fill:#fff;"/></g></svg>