<svg id="Layer_1" data-name="Layer 1" xmlns="http://www.w3.org/2000/svg" xmlns:xlink="http://www.w3.org/1999/xlink" viewBox="0 0 45.62 50"><defs><style>.cls-1{fill:#2f8093;}.cls-2{fill:#64cdd8;}.cls-3{fill:#1d5777;}.cls-4{fill:#653dd3;}.cls-5{fill:#2b28b2;}.cls-6{fill:#ce84f4;}.cls-7{fill:#212435;}.cls-8{fill:url(#linear-gradient);}.cls-9{fill:url(#linear-gradient-2);}.cls-10{fill:url(#linear-gradient-3);}.cls-11{fill:#413c88;}.cls-12{fill:#d9a6f7;}.cls-13{fill:url(#linear-gradient-4);}.cls-14{fill:#a96ace;}.cls-15{fill:url(#linear-gradient-5);}.cls-16{fill:url(#linear-gradient-6);}</style><linearGradient id="linear-gradient" x1="22.68" y1="2.33" x2="22.68" y2="10.46" gradientUnits="userSpaceOnUse"><stop offset="0" stop-color="#6d49d5"/><stop offset="1" stop-color="#433b8a"/></linearGradient><linearGradient id="linear-gradient-2" x1="22.81" y1="9.53" x2="22.81" y2="24.04" gradientUnits="userSpaceOnUse"><stop offset="0" stop-color="#bf61f1"/><stop offset="1" stop-color="#6949ce"/></linearGradient><linearGradient id="linear-gradient-3" x1="22.78" y1="12.75" x2="22.78" y2="26.64" xlink:href="#linear-gradient"/><linearGradient id="linear-gradient-4" x1="17.98" y1="13.56" x2="17.98" y2="28.95" xlink:href="#linear-gradient"/><linearGradient id="linear-gradient-5" x1="27.64" y1="13.56" x2="27.64" y2="28.95" xlink:href="#linear-gradient"/><linearGradient id="linear-gradient-6" x1="22.81" y1="32.34" x2="22.81" y2="16.82" xlink:href="#linear-gradient"/></defs><polygon class="cls-1" points="12.42 42.07 11.94 40.27 15.51 33.27 29.66 32.88 33.51 39.66 33.3 41.47 32.44 42.36 30.18 42.36 27.83 44.63 23.63 49.27 22.47 49.55 21.19 48.79 18.52 45.43 16.07 42.43 14.25 42.55 12.42 42.07"/><path class="cls-2" d="M31.4,35.93l-.48-1.84-1.15.8-.61-1.23a1.76,1.76,0,0,0-1.55-1H17.94a1.73,1.73,0,0,0-1.54,1l-1.62,3.23H13.49L11.94,41c.41,1.53,2.18,1.25,2.31,1.21s2.55,1.11,2.55,1.11l1.37,2,2,2,1.59,2,1.09.38,1.51-.93,2-2.42,2.1-2.59L30,42.46l2.42-.1,1.07-1V39.66ZM17.05,34a1,1,0,0,1,.89-.57h9.67a1,1,0,0,1,.9.57l2.4,4.8a1.12,1.12,0,0,1,0,1,1,1,0,0,1-.81.55l-1.25.09a1.71,1.71,0,0,0-1.19.64l-4.11,5a1,1,0,0,1-1.52,0l-4.11-5a1.71,1.71,0,0,0-1.2-.64l-1.24-.09a1,1,0,0,1-.81-.55,1.09,1.09,0,0,1,0-1Z"/><path class="cls-3" d="M22.78,50a2.23,2.23,0,0,1-1.66-.75L16,43.3a1.27,1.27,0,0,0-.87-.44l-1.56-.11a2.18,2.18,0,0,1-1.76-1.12,2.21,2.21,0,0,1,0-2.09l3-5.69a2.19,2.19,0,0,1,1.94-1.17H28.85a2.19,2.19,0,0,1,1.94,1.17l3,5.69A2.19,2.19,0,0,1,32,42.75l-1.56.11a1.27,1.27,0,0,0-.86.44l-5.17,6A2.21,2.21,0,0,1,22.78,50ZM16.71,33.61a1.25,1.25,0,0,0-1.12.67l-3,5.69a1.27,1.27,0,0,0,1,1.86l1.56.11a2.2,2.2,0,0,1,1.5.75l5.16,6a1.31,1.31,0,0,0,1.91,0l5.17-6a2.16,2.16,0,0,1,1.5-.75L32,41.83A1.28,1.28,0,0,0,33,40l-3-5.69a1.25,1.25,0,0,0-1.12-.67Z"/><path class="cls-2" d="M23.86,42l2.5-2.51a1.6,1.6,0,0,0-1.14-2.73h-5a1.6,1.6,0,0,0-1.14,2.73L21.59,42A1.6,1.6,0,0,0,23.86,42Z"/><path class="cls-4" d="M27.09,14.49V34l2.19,2.48,2.48.82,2.81-.54,1.07-1,.51-.48.36-1.14,2.05-.47,2.12-1.38.62-1.78-.62-1.59-.37-1.12v0l2.3-1.56.63-1.08.93-1.61v-.11l0-.48.19-1.7-.87-.92-.32-.61-.12-.22,1.58-3h0l.23-.43-.1-1.37h0l-.09-1.16h0l-.06-.78-1.37-.43H41.8l.17-.59.89-3.08-1.12-4-.59-.87L39.93,1.88H38.56l-2,3L34.45,9l-3.53,4.68Z"/><path class="cls-5" d="M36.92,23.47l1.18-.35,4.43-2.85.7-.62-.12-.22,1.58-3h0l.13-1.8h0l.1-1.49s-.06.12-.19.33h0a19.68,19.68,0,0,1-9.08,7.42C29,23.67,36.92,23.47,36.92,23.47Z"/><path class="cls-5" d="M32.24,28.62l3.91-.28,2.51-.11,1.65-.49,1.75-.52,1.18-2.14.94-1.72,0-.48c-1.4,1-6.57,4.4-9.93,2.62C30.38,23.42,32.24,28.62,32.24,28.62Z"/><path class="cls-5" d="M30.46,31.3l2.74.91,1.5,1,2.1.42h1.76l2.12-1.38.62-1.78s-2,1.42-6.8,0S30.46,31.3,30.46,31.3Z"/><path class="cls-5" d="M27.09,33v1l2.19,2.48,2.48.82,2.81-.54,1.07-1c-1.86,0-4.59-.46-5.73-2.37C29.13,32,28.06,32.28,27.09,33Z"/><path class="cls-5" d="M33.73,17.13l4.77-2.19,2.81-2L42,11.64l.89-3.08-1.12-4-.59-.87c-.38,3.2-1.9,7.63-7,9.7C25.59,16.84,33.73,17.13,33.73,17.13Z"/><path class="cls-6" d="M27.28,33.12c.19-.53,1.06-.3.87.23-.37,1,1,1.87,1.82,2.25a6.26,6.26,0,0,0,3.25.57c1.05-.09,2.4-.45,2.74-1.54a2.19,2.19,0,0,0,.08-.84,4.42,4.42,0,0,1-1.36-.44,3.54,3.54,0,0,1-1.91-2.71c-.05-.56.85-.56.9,0a2.75,2.75,0,0,0,1.93,2.15l.17.06a4.25,4.25,0,0,0,1,.15,6.63,6.63,0,0,0,2.68-.55,2.49,2.49,0,0,0,1.31-1,2,2,0,0,0,.11-1.53,6,6,0,0,0-.9-1.47c-.08,0-.1-.89.21-1a6.42,6.42,0,0,0,2.4-1.8A6.25,6.25,0,0,0,44,22.46c.08-.63-.06-1.17-.75-1.35a1.26,1.26,0,0,0-.28,0,15.73,15.73,0,0,1-6.8,3.4.44.44,0,0,1-.24-.84,17.08,17.08,0,0,0,4.92-2,8.59,8.59,0,0,0,1.72-1.39,6.74,6.74,0,0,0,.93-1.13,6.45,6.45,0,0,0,1.17-4c0-.68-.16-1.65-1.07-1.6a5.08,5.08,0,0,0-1.84.52l-.12.16c-1.65,2.07-4.3,2.69-6.82,3.18-.56.11-.81-.73-.24-.84,2-.39,4.13-.79,5.67-2.15.12-.11.23-.22.34-.34h0a6.13,6.13,0,0,0,.57-.69A6.51,6.51,0,0,0,42.28,9.3a7.52,7.52,0,0,0-.82-2.93A7.14,7.14,0,0,0,39.71,4c-1-.79-1.49,1-1.81,1.61-.44.91-.94,1.81-1.47,2.68a34.07,34.07,0,0,1-4.29,5.58c-.4.42-1.53-.78-1.15-1.19A32.72,32.72,0,0,0,35.73,7c.61-1,1.34-1.76,1.87-2.84.38-.79.61-2.62,1.61-2.29s2.13,2.56,2.63,3.36a8.9,8.9,0,0,1,.87,3.2c.28,1.53-.25,2.4-.91,3.81,1.11-.32,2.62-.62,3.12.52.66,1.5-.12,4.12-.79,5.54a7.81,7.81,0,0,1-1.27,1.82,11.29,11.29,0,0,1,1.34.48c1.06.74.19,2-.14,3.05A7.47,7.47,0,0,1,40.24,28a6.86,6.86,0,0,1,.91,1.42,3,3,0,0,1-.39,3,3.58,3.58,0,0,1-2.53,1.32,13.82,13.82,0,0,1-1.93,0,3.43,3.43,0,0,1,0,1.39A3.15,3.15,0,0,1,33.36,37a7.23,7.23,0,0,1-4.09-.8C28.16,35.65,26.79,34.49,27.28,33.12Z"/><path class="cls-7" d="M26.78,33.41c.19-.56,1.09-.32.89.24-.38,1.11,1,2,1.87,2.4a6.31,6.31,0,0,0,3.34.6c1.08-.1,2.47-.48,2.81-1.64a2.43,2.43,0,0,0,.09-.88,4.74,4.74,0,0,1-1.4-.48,3.75,3.75,0,0,1-2-2.88c-.05-.59.87-.59.93,0a2.89,2.89,0,0,0,2,2.29l.18.06a4,4,0,0,0,1,.16,6.5,6.5,0,0,0,2.75-.58,2.57,2.57,0,0,0,1.35-1.05A2.16,2.16,0,0,0,40.75,30a3.7,3.7,0,0,0-.92-1.56h0l-.25.09a7.91,7.91,0,0,1-4.42.08.46.46,0,0,1,.24-.89,7,7,0,0,0,3.66,0,6.76,6.76,0,0,0,1-.36,6.62,6.62,0,0,0,2.47-1.9A6.82,6.82,0,0,0,44,22.09c.08-.67-.05-1.25-.76-1.44a1,1,0,0,0-.29,0,15.93,15.93,0,0,1-7,3.61.46.46,0,0,1-.25-.89,17.28,17.28,0,0,0,5.06-2.15,9.29,9.29,0,0,0,1.77-1.47,8.65,8.65,0,0,0,1-1.21,7.11,7.11,0,0,0,1.19-4.22c0-.72-.16-1.75-1.09-1.7a5.27,5.27,0,0,0-1.89.55l-.13.18c-1.69,2.19-4.42,2.85-7,3.38-.58.12-.83-.78-.25-.9,2-.41,4.25-.84,5.82-2.28l.36-.36h0a5.1,5.1,0,0,0,.57-.73A7,7,0,0,0,42.19,8.1,8.29,8.29,0,0,0,41.34,5a7.55,7.55,0,0,0-1.8-2.53c-1-.84-1.52,1-1.85,1.71A31.14,31.14,0,0,1,36.17,7a35.46,35.46,0,0,1-4.4,5.93c-.4.44-1.06-.22-.66-.66A34.63,34.63,0,0,0,35.68,6c.63-1.1,1.16-2.24,1.7-3.39.39-.84,1.09-1.62,2.11-1.28s1.73,1.56,2.25,2.42A9.62,9.62,0,0,1,43,7a8.18,8.18,0,0,1-.57,4.81c1.14-.34,2.35-.33,2.86.88a6.69,6.69,0,0,1-.41,5.11,8.67,8.67,0,0,1-1.23,2,1.81,1.81,0,0,1,.53.28c1.09.78.78,2.3.43,3.4a7.74,7.74,0,0,1-3.87,4.59,4.51,4.51,0,0,1,.74,1.18,3.17,3.17,0,0,1-.22,3.15A5.33,5.33,0,0,1,38,34.06a6.6,6.6,0,0,1-1.33.14,2.91,2.91,0,0,1-.21,1.32c-.55,1.38-2.1,1.89-3.46,2a7.16,7.16,0,0,1-4.21-.85C27.68,36.09,26.28,34.87,26.78,33.41Z"/><polygon class="cls-8" points="16.77 12.48 12.22 4.05 13.08 3.35 15.39 3.69 16.96 3.69 21.22 0.65 23.86 0.51 27.3 2.8 29.41 4.01 32.74 3.19 33.15 3.83 32.33 6.01 29.31 10.9 16.77 12.48"/><path class="cls-4" d="M18.52,14.49V34l-2.18,2.48-2.48.82L11,36.74,10,35.7l-.51-.48-.36-1.14-2.06-.47L4.94,32.23l-.63-1.78.63-1.59.37-1.12v0L3,26.16l-.62-1.08-.93-1.61v-.11l-.06-.48-.18-1.7.87-.92.32-.61.11-.22-1.57-3h0L.7,16l.1-1.37h0l.09-1.16h0L1,12.66l1.37-.43H3.81l-.17-.59L2.75,8.56l1.13-4,.58-.87L5.68,1.88H7.05l2,3L11.17,9l3.53,4.68Z"/><path class="cls-5" d="M8.7,23.47l-1.18-.35L3.08,20.27l-.69-.62.11-.22-1.57-3h0L.8,14.61h0L.7,13.11s.06.12.19.33h0A19.68,19.68,0,0,0,10,20.86C16.66,23.67,8.7,23.47,8.7,23.47Z"/><path class="cls-5" d="M13.37,28.62l-3.9-.28L7,28.23l-1.65-.49-1.75-.52L2.38,25.08l-.94-1.72-.06-.48c1.41,1,6.57,4.4,9.93,2.62C15.23,23.42,13.37,28.62,13.37,28.62Z"/><path class="cls-5" d="M15.16,31.3l-2.74.91-1.5,1-2.11.42H7.05L4.94,32.23l-.63-1.78s2.06,1.42,6.8,0S15.16,31.3,15.16,31.3Z"/><path class="cls-5" d="M18.52,33v1l-2.18,2.48-2.48.82L11,36.74,10,35.7c1.86,0,4.59-.46,5.73-2.37C16.48,32,17.55,32.28,18.52,33Z"/><path class="cls-5" d="M11.89,17.13,7.12,14.94l-2.81-2-.67-1.27L2.75,8.56l1.13-4,.58-.87c.39,3.2,1.91,7.63,7,9.7C20,16.84,11.89,17.13,11.89,17.13Z"/><path class="cls-6" d="M18.34,33.12c-.19-.53-1.06-.3-.87.23.37,1-1,1.87-1.82,2.25a6.28,6.28,0,0,1-3.25.57c-1.05-.09-2.4-.45-2.74-1.54a2,2,0,0,1-.08-.84,4.42,4.42,0,0,0,1.36-.44,3.56,3.56,0,0,0,1.91-2.71c.05-.56-.85-.56-.91,0A2.72,2.72,0,0,1,10,32.79l-.17.06a4.33,4.33,0,0,1-1,.15,6.63,6.63,0,0,1-2.68-.55,2.49,2.49,0,0,1-1.31-1,2,2,0,0,1-.11-1.53,6,6,0,0,1,.9-1.47c.08,0,.1-.89-.21-1A6.53,6.53,0,0,1,3,25.65a6.24,6.24,0,0,1-1.41-3.19c-.08-.63,0-1.17.75-1.35a1.26,1.26,0,0,1,.28,0,15.67,15.67,0,0,0,6.8,3.4.44.44,0,0,0,.24-.84,17.26,17.26,0,0,1-4.93-2A8.88,8.88,0,0,1,3,20.22a7.88,7.88,0,0,1-.93-1.13,6.51,6.51,0,0,1-1.16-4c0-.68.16-1.65,1.07-1.6A5,5,0,0,1,3.84,14L4,14.2c1.65,2.07,4.3,2.69,6.82,3.18.56.11.8-.73.24-.84-2-.39-4.14-.79-5.67-2.15A3.64,3.64,0,0,1,5,14.05H5a5.21,5.21,0,0,1-.57-.69A6.45,6.45,0,0,1,3.34,9.3a7.52,7.52,0,0,1,.82-2.93A7,7,0,0,1,5.91,4c1-.79,1.48,1,1.8,1.61.45.91,1,1.81,1.48,2.68a34.07,34.07,0,0,0,4.29,5.58c.39.42,1.53-.78,1.14-1.19A32.66,32.66,0,0,1,9.89,7C9.27,6,8.54,5.23,8,4.15c-.38-.79-.61-2.62-1.61-2.29S4.28,4.42,3.78,5.22a8.9,8.9,0,0,0-.87,3.2c-.28,1.53.25,2.4.9,3.81-1.1-.32-2.61-.62-3.11.52-.66,1.5.12,4.12.78,5.54a8.12,8.12,0,0,0,1.27,1.82,11.82,11.82,0,0,0-1.33.48c-1.06.74-.2,2,.14,3.05A7.49,7.49,0,0,0,5.37,28a7.25,7.25,0,0,0-.9,1.42,3,3,0,0,0,.39,3,3.56,3.56,0,0,0,2.53,1.32,13.79,13.79,0,0,0,1.93,0,3.26,3.26,0,0,0,0,1.39A3.15,3.15,0,0,0,12.26,37a7.23,7.23,0,0,0,4.09-.8C17.46,35.65,18.82,34.49,18.34,33.12Z"/><path class="cls-7" d="M18.84,33.41c-.19-.56-1.09-.32-.89.24.38,1.11-1.05,2-1.87,2.4a6.34,6.34,0,0,1-3.35.6c-1.07-.1-2.46-.48-2.81-1.64a2.42,2.42,0,0,1-.08-.88,4.68,4.68,0,0,0,1.39-.48,3.76,3.76,0,0,0,2-2.88c.05-.59-.87-.59-.93,0a2.89,2.89,0,0,1-2,2.29l-.19.06a4,4,0,0,1-1,.16,6.5,6.5,0,0,1-2.75-.58A2.57,2.57,0,0,1,5,31.65,2.16,2.16,0,0,1,4.87,30a3.7,3.7,0,0,1,.92-1.56h0l.25.09a7.91,7.91,0,0,0,4.42.08.46.46,0,0,0-.24-.89,7,7,0,0,1-3.66,0,6.35,6.35,0,0,1-1-.36,6.62,6.62,0,0,1-2.47-1.9,6.83,6.83,0,0,1-1.46-3.39c-.08-.67.06-1.25.77-1.44a.92.92,0,0,1,.29,0,15.93,15.93,0,0,0,7,3.61.46.46,0,0,0,.24-.89,17.51,17.51,0,0,1-5.06-2.15,9.54,9.54,0,0,1-1.76-1.47,8,8,0,0,1-1-1.21A7.19,7.19,0,0,1,1,14.28c.05-.72.17-1.75,1.1-1.7A5.33,5.33,0,0,1,4,13.13l.13.18c1.69,2.19,4.41,2.85,7,3.38.58.12.83-.78.25-.9-2-.41-4.25-.84-5.82-2.28q-.2-.18-.36-.36h0a5.17,5.17,0,0,1-.58-.73A7,7,0,0,1,3.43,8.1,8.47,8.47,0,0,1,4.27,5a7.84,7.84,0,0,1,1.8-2.53c1-.84,1.53,1,1.86,1.71A31,31,0,0,0,9.44,7a35.51,35.51,0,0,0,4.41,5.93c.4.44,1.06-.22.66-.66A34.16,34.16,0,0,1,9.94,6c-.63-1.1-1.16-2.24-1.7-3.39C7.85,1.79,7.15,1,6.12,1.35A5.32,5.32,0,0,0,3.88,3.77,9.85,9.85,0,0,0,2.63,7a8.34,8.34,0,0,0,.57,4.81c-1.13-.34-2.34-.33-2.85.88a6.64,6.64,0,0,0,.41,5.11,8.34,8.34,0,0,0,1.23,2,1.81,1.81,0,0,0-.53.28C.37,20.88.68,22.4,1,23.5A7.79,7.79,0,0,0,4.9,28.09a4.51,4.51,0,0,0-.74,1.18,3.19,3.19,0,0,0,.21,3.15,5.39,5.39,0,0,0,3.22,1.64,6.6,6.6,0,0,0,1.33.14,3,3,0,0,0,.2,1.32c.55,1.38,2.11,1.89,3.47,2a7.16,7.16,0,0,0,4.21-.85C17.94,36.09,19.34,34.87,18.84,33.41Z"/><path class="cls-6" d="M27.29,12.66h-.07l-4.43-.32-4.45.32a1,1,0,0,1-.95-.55L13.46,6.59c-.2-.39-1.06-2.87-.81-3.22s2.34.22,2.74.32H17c.07,0,.54-.52.6-.57L20.92.93c1.21-.88,3.46-.22,4.67.66l2.92,2.1A6.41,6.41,0,0,0,29.4,4h1.1c.4-.1,2.15-.94,2.4-.59S32.35,6,32.15,6.33l-4,5.78A1,1,0,0,1,27.29,12.66Zm-4.51-1.13h.07l4.42.31a.22.22,0,0,0,.23-.13L31,5.22a.29.29,0,0,0,0-.3.25.25,0,0,0-.26-.1l-2.19.58a1,1,0,0,1-.82-.15h0L24.34,2.83a2.61,2.61,0,0,0-3.12,0L17.88,5.25a.94.94,0,0,1-.81.15l-2.2-.58a.26.26,0,0,0-.26.1.28.28,0,0,0,0,.3l3.45,6.49a.24.24,0,0,0,.24.13l4.42-.31Z"/><path class="cls-7" d="M28.24,12.66h-.08L22.8,12.3l-5.4.36A1.26,1.26,0,0,1,16.25,12L12.06,4.68a1.23,1.23,0,0,1,1.36-1.8l2.66.66a.31.31,0,0,0,.25,0l4-2.74a4.25,4.25,0,0,1,4.82,0l4,2.74a.3.3,0,0,0,.24,0l2.67-.66a1.23,1.23,0,0,1,1.36,1.8L29.31,12A1.24,1.24,0,0,1,28.24,12.66Zm-5.46-1.28h.08l5.36.35a.28.28,0,0,0,.28-.15l4.2-7.36a.3.3,0,0,0,0-.33.29.29,0,0,0-.31-.11l-2.66.66a1.24,1.24,0,0,1-1-.18h0l-4-2.75a3.35,3.35,0,0,0-3.78,0l-4,2.75a1.24,1.24,0,0,1-1,.18L13.2,3.78a.3.3,0,0,0-.34.44l4.19,7.36a.3.3,0,0,0,.28.15l5.37-.35Z"/><path class="cls-7" d="M37.54,22.35A14.73,14.73,0,0,1,13.76,34h0A14.73,14.73,0,1,1,37.54,22.35Z"/><path class="cls-9" d="M36.59,22.35A13.78,13.78,0,0,1,14.34,33.22h0A13.73,13.73,0,0,1,9,22.35c0-.35,0-.69,0-1A13.79,13.79,0,0,1,22.78,8.56h0A13.78,13.78,0,0,1,36.59,22.35Z"/><path class="cls-10" d="M35.33,23.6a13.16,13.16,0,0,1-4.45,9.92,13.78,13.78,0,0,1-16.54-.3h0a13.2,13.2,0,0,1-4.11-9.62,12.78,12.78,0,0,1,12.55-13A12.78,12.78,0,0,1,35.33,23.6Z"/><circle class="cls-11" cx="22.81" cy="22.35" r="8.11"/><path class="cls-7" d="M22.81,31.3a9,9,0,1,1,9-8.95A9,9,0,0,1,22.81,31.3Zm0-16.61a7.66,7.66,0,1,0,7.65,7.66A7.66,7.66,0,0,0,22.81,14.69Z"/><path class="cls-12" d="M36.55,21.32A13.78,13.78,0,0,0,23.1,8.57h-.42A13.79,13.79,0,0,0,9.07,21.32c1-4,4.15-11.17,13.61-11.22h.18C32.38,10.1,35.54,17.28,36.55,21.32Z"/><path class="cls-13" d="M20,22.8l-.1,0a.69.69,0,0,0-.46-.35.68.68,0,0,0,.27-.26.7.7,0,0,0-.25-.94L17.57,20a1.45,1.45,0,0,0-1.08-.28,1,1,0,0,0-.82,1,1.86,1.86,0,0,0,.47,1.13h0a1.05,1.05,0,0,0-.22,1.07,1.47,1.47,0,0,0,1,.87.94.94,0,0,0,.2,1.06A1.71,1.71,0,0,0,19,24.9a2.71,2.71,0,0,0,1.24-1.15A.71.71,0,0,0,20,22.8Z"/><path class="cls-14" d="M16.29,20.44a11.32,11.32,0,0,1,2.8,2.8,9.36,9.36,0,0,0,0-1.91L16.94,20Z"/><path class="cls-15" d="M25.66,22.8l.11,0a.67.67,0,0,1,.46-.35.57.57,0,0,1-.27-.26.69.69,0,0,1,.24-.94L28,20a1.48,1.48,0,0,1,1.09-.28,1,1,0,0,1,.82,1,1.86,1.86,0,0,1-.47,1.13h0a1.07,1.07,0,0,1,.22,1.07,1.47,1.47,0,0,1-1,.87.93.93,0,0,1-.21,1.06,1.71,1.71,0,0,1-1.87.06,2.69,2.69,0,0,1-1.23-1.15A.7.7,0,0,1,25.66,22.8Z"/><path class="cls-7" d="M16.71,20.37a.84.84,0,0,1,.48.19c.41.27.82.54,1.22.82l.62.41,0,0v0a1.37,1.37,0,0,0,.18,1.24l.13.25.24.08h0a2,2,0,0,1-1.67,1,.45.45,0,0,1-.35-.11c-.05-.05-.11-.11,0-.32l.25-.67-.68-.23a.75.75,0,0,1-.55-.45.36.36,0,0,1,.06-.35v0l.42-.44-.38-.47a1.21,1.21,0,0,1-.31-.7.33.33,0,0,1,.25-.32h.1m0-.69-.22,0a1,1,0,0,0-.82,1,1.86,1.86,0,0,0,.47,1.13h0a1.05,1.05,0,0,0-.22,1.07,1.47,1.47,0,0,0,1,.87.94.94,0,0,0,.2,1.06,1.14,1.14,0,0,0,.83.31,2.74,2.74,0,0,0,1-.25,2.71,2.71,0,0,0,1.24-1.15A.71.71,0,0,0,20,22.8l-.1,0c-.09-.18-.25-.5-.19-.61a.7.7,0,0,0-.25-.94L17.57,20a1.52,1.52,0,0,0-.86-.3Z"/><path class="cls-14" d="M29.15,20.44a11.42,11.42,0,0,0-2.81,2.8,9.36,9.36,0,0,1,0-1.91L28.49,20Z"/><path class="cls-7" d="M28.9,20.37H29a.34.34,0,0,1,.25.32,1.17,1.17,0,0,1-.32.7l-.37.47.41.44h0a.39.39,0,0,1,.06.36.77.77,0,0,1-.56.45l-.67.23.25.67c.08.21,0,.27,0,.32s-.13.11-.34.11a2,2,0,0,1-.76-.19,2,2,0,0,1-.92-.85h0l.25-.09.12-.26a1.32,1.32,0,0,0,.18-1.22v0h0l0,0,.61-.41,1.22-.82a.87.87,0,0,1,.48-.19m0-.69A1.54,1.54,0,0,0,28,20L26.2,21.22a.69.69,0,0,0-.24.94c.05.11-.1.43-.19.61l-.11,0a.7.7,0,0,0-.24.95,2.69,2.69,0,0,0,1.23,1.15,2.84,2.84,0,0,0,1.05.25,1.11,1.11,0,0,0,.82-.31.93.93,0,0,0,.21-1.06,1.47,1.47,0,0,0,1-.87,1.07,1.07,0,0,0-.22-1.07h0A1.86,1.86,0,0,0,30,20.7a1,1,0,0,0-.82-1l-.23,0Z"/><rect class="cls-16" x="18.78" y="18.32" width="8.05" height="8.05" rx="2.94"/><path class="cls-14" d="M26.29,18.9v2h0c-.12-.78-1.63-1.39-3.47-1.39s-3.35.61-3.47,1.39h0v-2Z"/><path class="cls-7" d="M25.48,19a.67.67,0,0,1,.67.66V25a.67.67,0,0,1-.67.66H20.13a.67.67,0,0,1-.66-.66V19.67a.67.67,0,0,1,.66-.66h5.35m0-.69H20.13a1.35,1.35,0,0,0-1.35,1.35V25a1.35,1.35,0,0,0,1.35,1.35h5.35A1.35,1.35,0,0,0,26.84,25V19.67a1.35,1.35,0,0,0-1.36-1.35Z"/></svg>