<?xml version="1.0" encoding="UTF-8" standalone="no"?>
<!-- Created with Inkscape (http://www.inkscape.org/) -->

<svg
   width="100"
   height="100"
   viewBox="0 0 26.458333 26.458333"
   version="1.1"
   id="svg28445"
   xml:space="preserve"
   inkscape:version="1.2 (dc2aedaf03, 2022-05-15)"
   sodipodi:docname="burger icon.svg"
   xmlns:inkscape="http://www.inkscape.org/namespaces/inkscape"
   xmlns:sodipodi="http://sodipodi.sourceforge.net/DTD/sodipodi-0.dtd"
   xmlns="http://www.w3.org/2000/svg"
   xmlns:svg="http://www.w3.org/2000/svg"><sodipodi:namedview
     id="namedview28447"
     pagecolor="#505050"
     bordercolor="#ffffff"
     borderopacity="1"
     inkscape:showpageshadow="0"
     inkscape:pageopacity="0"
     inkscape:pagecheckerboard="1"
     inkscape:deskcolor="#505050"
     inkscape:document-units="mm"
     showgrid="false"
     inkscape:zoom="3.1190492"
     inkscape:cx="-16.190831"
     inkscape:cy="59.312947"
     inkscape:window-width="1366"
     inkscape:window-height="705"
     inkscape:window-x="-8"
     inkscape:window-y="-8"
     inkscape:window-maximized="1"
     inkscape:current-layer="layer1" /><defs
     id="defs28442"><inkscape:path-effect
       effect="fillet_chamfer"
       id="path-effect40569"
       is_visible="true"
       lpeversion="1"
       nodesatellites_param="F,0,0,1,0,1.4013134,0,1 @ F,0,0,1,0,0,0,1 @ F,0,0,1,0,0,0,1 @ F,0,0,1,0,0,0,1 @ F,0,0,1,0,2.6042124,0,1"
       unit="px"
       method="auto"
       mode="F"
       radius="0"
       chamfer_steps="1"
       flexible="false"
       use_knot_distance="true"
       apply_no_radius="true"
       apply_with_radius="true"
       only_selected="false"
       hide_knots="false" /><inkscape:path-effect
       effect="fillet_chamfer"
       id="path-effect31742"
       is_visible="true"
       lpeversion="1"
       nodesatellites_param="F,0,0,1,0,0,0,1 @ F,0,0,1,0,0,0,1 @ F,0,0,1,0,0.94117062,0,1 @ F,0,0,1,0,1.2294091,0,1 @ F,0,0,1,0,1.2070569,0,1 @ F,0,0,1,0,0,0,1"
       unit="px"
       method="auto"
       mode="F"
       radius="0"
       chamfer_steps="1"
       flexible="false"
       use_knot_distance="true"
       apply_no_radius="true"
       apply_with_radius="true"
       only_selected="false"
       hide_knots="false" /></defs><g
     inkscape:label="Layer 1"
     inkscape:groupmode="layer"
     id="layer1"><g
       id="g45857"><path
         id="path31207"
         style="fill:#d6661a;fill-opacity:1;fill-rule:evenodd;stroke-width:0.236691"
         d="m 3.5079845,18.795584 c -2.94314752,0.307033 -2.63969277,2.209587 -1.1715014,3.827857 0.4590358,0.495192 1.4627914,0.811419 2.139048,0.811419 H 20.885344 c 0.697928,0 1.73492,-0.32558 2.205017,-0.840005 1.564,-1.627617 1.102015,-3.753333 -1.124773,-3.799271 z"
         sodipodi:nodetypes="ccssccc" /><path
         id="path41983"
         style="display:inline;mix-blend-mode:normal;fill:#9f3f11;fill-opacity:1;stroke:none;stroke-width:0.547434;stroke-linecap:square;stroke-linejoin:round;stroke-dasharray:none;stroke-opacity:1;stop-color:#000000"
         d="m 3.5079846,18.795584 c -1.9812574,0.206688 -2.4899371,1.136707 -2.1637863,2.216012 0.9384205,0.753668 2.2367255,0.801595 4.2236713,0.503564 2.4262191,-0.363917 1.9522217,-1.075923 2.883949,-1.213281 0.9317274,-0.137359 1.4131797,1.268938 2.2885784,1.289696 0.945231,0.02241 1.355761,-2.095742 2.533762,-1.274304 0.745314,0.236207 1.129673,1.105071 3.731653,1.19679 2.601978,0.09172 2.4963,-1.202824 3.24348,-1.586007 1.173416,1.150787 2.81692,1.293594 3.759688,0.749848 0.04489,-1.018899 -0.656925,-1.853715 -2.043392,-1.882318 z" /><path
         id="path31255"
         style="display:inline;fill:#65a82f;fill-opacity:1;stroke:none;stroke-width:0.547434;stroke-linecap:square;stroke-linejoin:round;stroke-dasharray:none;stroke-opacity:1;stop-color:#000000"
         d="m 3.6632442,16.72129 c -0.9657896,0.145249 -2.1270846,0.11024 -2.71799981,0.853624 -0.4715566,0.593228 -0.6227944,1.655877 -0.17433518,2.266753 0.97124349,1.322994 2.37058219,1.474471 4.79680369,1.110551 2.4262216,-0.363918 1.9524768,-1.076189 2.884205,-1.213548 0.9317283,-0.137359 1.4128751,1.269429 2.2882741,1.290186 0.945232,0.02241 1.356068,-2.095875 2.53407,-1.274435 0.745315,0.236206 1.129511,1.105154 3.731492,1.196873 2.601982,0.09172 2.4962,-1.203173 3.243382,-1.586357 1.924435,1.887324 5.114106,1.064635 4.401547,-1.053943 -0.361503,-0.98208 -1.722137,-1.70654 -3.118431,-1.589739 0,0 -12.0347373,-0.877393 -17.8690078,4.3e-5 z"
         sodipodi:nodetypes="aaaczaccccaaa" /><path
         id="rect43781"
         style="display:inline;fill:#707e25;fill-opacity:1;stroke:none;stroke-width:0.516629;stroke-linecap:square;stroke-linejoin:round;stroke-dasharray:none;stroke-opacity:1;stop-color:#000000"
         d="m 11.13731,16.331639 c -0.303475,-6.86e-4 -0.606609,2.54e-4 -0.909274,0.0022 -0.08055,5.16e-4 -0.160933,0.0015 -0.241336,0.0022 -0.2692839,0.0024 -0.5381452,0.0056 -0.8048233,0.01043 -0.044836,8.02e-4 -0.089949,0.0013 -0.134687,0.0022 -0.1061997,0.002 -0.2116157,0.0047 -0.3172014,0.0071 -0.1006604,0.0023 -0.2006893,0.005 -0.3007091,0.0077 -0.1094473,0.003 -0.2190649,0.0059 -0.3276465,0.0094 -0.041908,0.0014 -0.083023,0.003 -0.1247915,0.0044 -0.1291529,0.0044 -0.2582191,0.0093 -0.3859193,0.0143 -0.1019189,0.004 -0.2025656,0.0081 -0.3034578,0.01265 -0.1143153,0.0051 -0.2279668,0.01078 -0.3408404,0.01649 -0.074552,0.0038 -0.1493191,0.0074 -0.2231954,0.01154 -0.1949863,0.01069 -0.3879817,0.02252 -0.5777793,0.03518 -0.040151,0.0027 -0.079394,0.0054 -0.1192941,0.0083 -0.1621983,0.01127 -0.3221488,0.02292 -0.4799252,0.03573 -0.051939,0.0043 -0.1041498,0.0083 -0.1555771,0.01264 -0.1788357,0.01525 -0.3549711,0.03153 -0.5272031,0.04892 -0.00596,6.01e-4 -0.011646,0.001 -0.017591,0.0017 -0.036309,0.0037 -0.071205,0.0083 -0.1071999,0.01209 -0.1364316,0.01435 -0.2701422,0.02929 -0.4018617,0.04507 -0.079609,0.0096 -0.1591507,0.01851 -0.236939,0.02858 -0.031041,0.004 -0.062163,0.008 -0.092906,0.0121 -0.1167273,0.01561 -0.2318754,0.03204 -0.3441388,0.04893 -0.060362,0.009 -0.121362,0.01738 -0.1830642,0.02529 -0.061701,0.0079 -0.1242448,0.01534 -0.1869125,0.02254 -0.1251622,0.01437 -0.251995,0.02797 -0.3787725,0.04233 -0.063478,0.0072 -0.1274384,0.01465 -0.1907606,0.02254 -0.063143,0.0079 -0.1264956,0.01626 -0.1891114,0.02529 -0.1154687,0.01666 -0.2295071,0.03598 -0.3413901,0.05882 -0.0098,0.002 -0.019921,0.0034 -0.029686,0.0055 -0.060434,0.01277 -0.1204244,0.02701 -0.1792161,0.04233 -0.07448,0.01941 -0.1470784,0.04216 -0.2182477,0.06652 -0.06968,0.02385 -0.138162,0.04913 -0.2039545,0.07862 -0.026599,0.01192 -0.052731,0.02445 -0.078613,0.03738 -0.051763,0.02588 -0.1020136,0.05379 -0.1506294,0.0841 -0.024309,0.01516 -0.048014,0.03091 -0.071466,0.04728 -0.070144,0.04894 -0.1368131,0.103669 -0.198457,0.164373 -0.041202,0.04062 -0.0807129,0.08438 -0.11764496,0.130839 -0.0290656,0.03656 -0.056994,0.07443 -0.0835607,0.114347 -5.0904e-4,7.65e-4 -0.001138,0.0014 -0.001649,0.0022 -2.268e-4,3.41e-4 -3.2297e-4,7.56e-4 -5.4967e-4,0.0011 0.0578152,0.971613 0.85885463,1.736637 1.84548543,1.736637 h 8.6183128 c 0.158278,0.302359 0.311689,0.574068 0.461784,0.822415 0.408093,-0.493024 0.827843,-0.958729 1.489251,-0.497518 0.567153,0.179744 0.926313,0.725782 2.211614,1.017024 0.204178,-0.386846 0.398947,-0.838596 0.585476,-1.341921 h 4.072492 c 0.01585,-0.01106 0.03228,-0.02173 0.04893,-0.03188 0.0183,-0.01131 0.03717,-0.02246 0.05663,-0.03244 0.02241,0.02198 0.04487,0.04307 0.06762,0.06432 h 2.209415 c 0.947731,0 1.724017,-0.706022 1.83504,-1.62284 -9e-5,-1.13e-4 9.1e-5,-4.36e-4 0,-5.49e-4 -0.0018,-0.0022 -0.0037,-0.0044 -0.0055,-0.0066 -0.0095,-0.01181 -0.01936,-0.02351 -0.02914,-0.03518 -0.01118,-0.01335 -0.02251,-0.02642 -0.03409,-0.03958 -0.0043,-0.0049 -0.0083,-0.01 -0.01265,-0.01484 -0.0039,-0.0045 -0.0081,-0.0088 -0.01209,-0.01319 -0.01011,-0.01107 -0.02045,-0.02204 -0.03079,-0.03299 -0.03441,-0.03645 -0.06988,-0.07235 -0.1072,-0.1072 -0.002,-0.0018 -0.004,-0.0036 -0.0061,-0.0055 -6.64e-4,-6.16e-4 -0.0015,-10e-4 -0.0022,-0.0016 -0.04008,-0.0371 -0.08159,-0.07313 -0.124792,-0.108299 -0.003,-0.0024 -0.0057,-0.0052 -0.0088,-0.0077 -0.0019,-0.0016 -0.0041,-0.0029 -0.0061,-0.0044 -0.0431,-0.03458 -0.08767,-0.06805 -0.133588,-0.100606 -0.0024,-0.0017 -0.0047,-0.0037 -0.0071,-0.0055 -0.0038,-0.0028 -0.0082,-0.005 -0.01209,-0.0077 -0.04,-0.02787 -0.08119,-0.05511 -0.123142,-0.08136 -0.0078,-0.0049 -0.01522,-0.01 -0.02308,-0.01484 -0.007,-0.0044 -0.01434,-0.0084 -0.02144,-0.01264 -0.04322,-0.02604 -0.08742,-0.05103 -0.132488,-0.07532 -0.0035,-0.0019 -0.0069,-0.0041 -0.01043,-0.0061 -0.0021,-0.0012 -0.0045,-0.0021 -0.0066,-0.0033 -0.05052,-0.02683 -0.10186,-0.05299 -0.154478,-0.07751 -0.01305,-0.0061 -0.0264,-0.01165 -0.03958,-0.0176 -0.106814,-0.04814 -0.217497,-0.09118 -0.331494,-0.12919 -0.008,-0.0027 -0.01567,-0.0056 -0.02364,-0.0083 -0.05868,-0.01912 -0.118416,-0.03707 -0.178667,-0.05333 -0.0013,-3.47e-4 -0.0026,-7.54e-4 -0.0038,-0.0011 -0.0035,-9.3e-4 -0.007,-0.0018 -0.01043,-0.0028 -0.05776,-0.01533 -0.115822,-0.02864 -0.174818,-0.04123 -0.0046,-9.87e-4 -0.0091,-0.0023 -0.01375,-0.0033 -0.002,-4.18e-4 -0.004,-6.84e-4 -0.0061,-0.0011 -0.06044,-0.01255 -0.121542,-0.02341 -0.183065,-0.03299 -0.01133,-0.0018 -0.02272,-0.0033 -0.03409,-0.005 -0.05877,-0.0086 -0.118007,-0.01678 -0.177567,-0.02254 -0.0036,-3.54e-4 -0.0073,-7.56e-4 -0.01099,-0.0011 -0.0056,-5.28e-4 -0.01139,-5.95e-4 -0.01704,-0.0011 -0.06362,-0.0056 -0.127564,-0.0098 -0.191861,-0.0121 -5.49e-4,-2e-5 -0.0011,1.9e-5 -0.0017,0 -1.82e-4,-6e-6 -3.67e-4,6e-6 -5.5e-4,0 -0.06382,-0.0022 -0.128108,-0.0028 -0.192409,-0.0016 -0.01411,2.49e-4 -0.0282,6.82e-4 -0.04233,0.0011 -0.06369,0.0019 -0.127381,0.0051 -0.191311,0.01042 0,0 -0.334831,-0.02389 -0.813618,-0.05442 -0.02554,-0.0016 -0.05086,-0.0033 -0.07751,-0.005 -0.02377,-0.0015 -0.06115,-0.0034 -0.08576,-0.005 -0.247567,-0.01543 -0.535782,-0.03303 -0.862546,-0.05168 -0.02703,-0.0015 -0.04779,-0.0029 -0.07532,-0.0044 -0.003,-1.66e-4 -0.0069,-3.83e-4 -0.0099,-5.5e-4 -0.380163,-0.02148 -0.810151,-0.04404 -1.274853,-0.06706 -0.01397,-6.93e-4 -0.02939,-0.0015 -0.04342,-0.0022 -0.273901,-0.01351 -0.549688,-0.02681 -0.847702,-0.04013 -0.0082,-3.67e-4 -0.01705,-7.32e-4 -0.02529,-0.0011 -0.0282,-0.0013 -0.06012,-0.0026 -0.08851,-0.0038 -0.29468,-0.01299 -0.604643,-0.02513 -0.91862,-0.03738 -0.134928,-0.0052 -0.269318,-0.01088 -0.407359,-0.01595 -0.359159,-0.01317 -0.72747,-0.0255 -1.104433,-0.03683 -0.270125,-0.0081 -0.54359,-0.01622 -0.820765,-0.02308 -0.0082,-2.02e-4 -0.01602,-3.49e-4 -0.02419,-5.5e-4 -0.0067,-1.65e-4 -0.01362,-3.85e-4 -0.02034,-5.5e-4 -0.03082,-7.54e-4 -0.06256,-0.0015 -0.09346,-0.0022 -0.261812,-0.0063 -0.525873,-0.0116 -0.792178,-0.01649 -0.02194,-4.03e-4 -0.044,-7.06e-4 -0.06597,-0.0011 -0.03112,-5.58e-4 -0.06284,-0.0011 -0.09401,-0.0017 -0.225449,-0.0038 -0.452541,-0.0071 -0.680032,-0.0099 -0.09729,-0.0012 -0.194367,-0.0023 -0.291913,-0.0033 -0.29181,-0.0029 -0.58448,-0.0048 -0.877389,-0.0055 z" /><rect
         style="display:inline;fill:#b1583f;fill-opacity:1;stroke:none;stroke-width:0.516629;stroke-linecap:square;stroke-linejoin:round;stroke-dasharray:none;stroke-opacity:1;stop-color:#000000"
         id="rect31232"
         width="23.51963"
         height="3.698359"
         x="0.85586423"
         y="15.167979"
         ry="1.8491795" /><path
         id="path43771"
         style="color:#000000;fill:#803623;stroke-width:0.713393;stroke-linecap:square;stroke-linejoin:round"
         d="m 2.7048109,15.167834 c -1.0244444,0 -1.84878391,0.824889 -1.84878391,1.849334 0,0.29207 0.0667726,0.567948 0.18636271,0.813068 4.2679524,-1.543442 6.572465,-1.079029 8.2620795,0.07421 0.4100171,0.279858 0.7841838,0.606622 1.1396168,0.96205 h 6.48861 c 0.452638,-0.60082 0.929674,-1.141573 1.468361,-1.55852 0.783072,-0.606098 1.676987,-0.969656 2.86306,-0.936761 0.86024,0.02386 1.881263,0.266531 3.103845,0.808121 0.0046,-0.05344 0.0077,-0.107509 0.0077,-0.162174 0,-1.024444 -0.824889,-1.849333 -1.849334,-1.849333 z" /><path
         id="rect31323"
         style="fill:#f2b70e;fill-opacity:1;stroke-width:0.722408;stroke-linecap:square;stroke-linejoin:round;stop-color:#000000"
         d="M 2.6204414,12.91996 22.925158,12.84744 c 1.339356,0.815893 2.412123,1.853942 2.986208,3.307561 0.190729,0.482939 -0.09093,0.692485 -0.557695,0.463861 -6.5563,-3.21133 -8.359535,0.876693 -10.682035,4.16727 -0.391032,0.554023 -1.159033,0.62335 -1.625909,0.130794 C 10.400346,18.126036 8.706708,14.32572 1.2247587,16.664524 0.58862491,16.863374 0.32462632,16.570263 0.60654661,15.966227 1.1273115,14.850448 1.6552168,13.739429 2.6204414,12.919957 Z"
         sodipodi:nodetypes="cccccc"
         inkscape:path-effect="#path-effect31742"
         inkscape:original-d="M 2.6204414,12.91996 22.925158,12.84744 c 1.600313,0.97486 2.820034,2.266878 3.263258,4.205977 C 18.229774,12.675984 16.77594,18.288081 13.933069,21.767011 10.552493,18.884554 9.4034594,13.635309 0.08235169,17.053416 0.8285619,15.60905 1.3392601,14.007675 2.6204414,12.919957 Z" /><path
         id="rect31234"
         style="display:inline;fill:#d50f18;fill-opacity:1;stroke:none;stroke-width:0.522479;stroke-linecap:square;stroke-linejoin:round;stroke-dasharray:none;stroke-opacity:1;stop-color:#000000"
         d="m 3.6113362,11.625435 c -1.8639111,0.737072 -3.83652604,3.026013 -2.4180007,3.692539 1.3592432,0.595834 1.10474,-1.191692 2.0562469,-1.20261 0.4463859,-0.0051 -0.097482,1.186461 0.5225042,1.233114 0.7880347,0.0593 0.351679,-1.462251 1.1431571,-1.431358 0.5332299,0.02082 0.1762761,0.800266 0.6059015,1.018036 0.3133347,0.158824 0.7849268,0.157831 1.1639206,0.07149 0.77695,-0.177006 1.1691503,-1.038647 2.0871322,-1.165641 0.9179822,-0.126996 1.44052,1.467258 2.253582,1.042762 2.223795,-1.161033 2.558404,0.268052 3.230432,0.474365 0.699633,0.214786 1.531517,-1.046009 1.848346,-1.184987 0.526182,-0.230811 0.899169,0.772994 1.700332,0.9173 1.894476,0.341235 1.368835,-0.873383 2.147635,-1.020838 0.714566,-0.135293 1.46456,0.299864 2.176518,0.15146 0.794881,-0.165687 2.546644,-0.249498 2.16009,-1.12588 -0.356169,-0.90798 -1.696729,-1.577777 -3.072422,-1.46979 0,0 -12.0291378,-1.8287262 -17.6053748,3.9e-5 z"
         sodipodi:nodetypes="ccsaaaazssssaacac" /><path
         id="path42102"
         style="display:inline;fill:#c31821;fill-opacity:1;stroke:none;stroke-width:0.522479;stroke-linecap:square;stroke-linejoin:round;stroke-dasharray:none;stroke-opacity:1;stop-color:#000000"
         d="m 24.282203,13.078262 c -0.287894,0.483136 -1.522052,0.566245 -2.153342,0.702571 -0.711957,0.153747 -1.461865,-0.29684 -2.17643,-0.156677 -0.778799,0.152764 -0.252821,1.410678 -2.147294,1.057155 -0.801162,-0.149501 -1.174173,-1.189075 -1.700353,-0.949955 -0.316829,0.143982 -1.149152,1.450096 -1.848785,1.227575 -0.672027,-0.213741 -1.006493,-1.694307 -3.230286,-0.491469 -0.813061,0.43978 -1.3354136,-1.211813 -2.2533946,-1.080244 -0.9179809,0.131566 -1.3104228,1.023856 -2.0873721,1.207234 -0.3789934,0.08946 -0.8504705,0.09088 -1.1638048,-0.07367 C 5.0915165,14.295171 5.4485555,13.487389 4.9153254,13.465825 4.1238481,13.433815 4.5598949,15.010466 3.7718611,14.94903 3.1518757,14.9007 3.6959911,13.66611 3.2496057,13.671429 2.2980998,13.682739 2.5528107,15.534433 1.1935689,14.917146 0.93398804,14.790785 0.78844549,14.608174 0.73453392,14.389393 c -0.0803011,0.395819 0.0419431,0.732535 0.45903498,0.928515 1.3592418,0.595834 1.1045309,-1.191368 2.0560368,-1.202286 0.4463853,-0.0051 -0.09773,1.186419 0.5222554,1.233072 0.7880338,0.0593 0.351987,-1.462423 1.1434643,-1.431529 0.5332293,0.02082 0.1761911,0.800353 0.6058161,1.018122 0.3133343,0.158824 0.7848114,0.15781 1.1638048,0.07147 0.7769493,-0.177005 1.1693912,-1.03901 2.0873721,-1.166003 0.917981,-0.126996 1.4403336,1.467356 2.2533946,1.04286 2.223793,-1.161031 2.558259,0.268116 3.230286,0.474428 0.699633,0.214787 1.531956,-1.045717 1.848785,-1.184695 0.52618,-0.230811 0.899191,0.772665 1.700353,0.916971 1.894473,0.341235 1.368495,-0.873418 2.147294,-1.020873 0.714565,-0.135291 1.464473,0.300133 2.17643,0.151729 0.79488,-0.165686 2.547042,-0.249491 2.160488,-1.125872 -0.0022,-0.0057 -0.0048,-0.01137 -0.0071,-0.01704 z" /><path
         id="path42028"
         style="display:inline;fill:#400507;fill-opacity:0.416667;fill-rule:evenodd;stroke-width:0.281468"
         d="m 10.898723,10.813323 c -2.6911113,-0.01288 -5.3705572,0.183333 -7.2873868,0.81197 -0.6883658,0.27221 -1.3911677,0.756253 -1.9328945,1.291895 0.5524754,0.636693 1.4918354,0.904373 2.3303583,0.821315 6.050874,-0.0063 12.102549,0.01254 18.153046,-0.0094 0.727131,-0.0595 1.456774,-0.507319 1.802056,-1.145662 -0.569615,-0.632774 -1.646637,-1.044581 -2.747064,-0.958202 0,0 -5.180541,-0.787369 -10.318115,-0.81197 z" /><path
         id="path31140"
         style="display:inline;fill:#f19a38;fill-opacity:1;fill-rule:evenodd;stroke-width:0.281468"
         d="M 12.700228,3.0234729 C 9.1444802,3.0296252 5.3886091,4.1971619 2.9739398,6.9185542 1.8585781,8.2104288 1.0769419,9.9434574 1.2963039,11.673915 c 0.3555806,1.123459 1.6202117,1.609869 2.7127249,1.501652 6.0508802,-0.0063 12.1023612,0.01253 18.1528652,-0.0094 1.082731,-0.08861 2.172621,-1.037459 1.98764,-2.195752 C 24.021105,8.3207881 22.103963,6.1092021 19.881563,4.8483714 17.714753,3.595146 15.191572,3.025252 12.700228,3.0234729 Z" /><path
         id="path40564"
         style="display:inline;fill:#d6661a;fill-opacity:0.745098;fill-rule:evenodd;stroke-width:0.270863"
         d="M 4.398956,7.0285548 C 3.2046554,8.1814575 2.0381455,9.6011834 2.1349626,11.114072 c 0.072297,0.915484 0.987023,1.517774 1.8303235,1.649104 0.7250017,0.08472 1.4588584,0.0015 2.1882192,0.02871 2.3636291,-0.0012 4.7272587,4.41e-4 7.0908877,0.0012 1.438266,4.83e-4 1.449489,-0.161716 0.02903,-0.387298 C 9.9390302,11.876288 6.8151802,11.038646 5.7264832,7.4500575 5.5020912,6.7104111 4.9557266,6.4910835 4.398956,7.0285548 Z"
         inkscape:path-effect="#path-effect40569"
         inkscape:original-d="M 5.4319958,6.0818686 C 4.0033464,7.3514662 2.0095685,9.154631 2.1349626,11.114072 c 0.072297,0.915484 0.987023,1.517774 1.8303235,1.649104 0.7250017,0.08472 1.4588584,0.0015 2.1882192,0.02871 3.2316997,-0.0016 6.4633997,0.002 9.6950987,0.0016 C 11.287862,12.063058 6.2424558,11.932107 5.4319958,6.0818686 Z"
         sodipodi:nodetypes="cccccc" /><path
         id="path39715"
         style="fill:#f7e27c;fill-opacity:1;fill-rule:evenodd;stroke-width:0.0624401"
         d="m 16.883767,9.2851251 c -0.518781,-0.062712 -0.728831,-0.6298922 -0.61723,-0.8230887 0.111603,-0.1931976 0.70787,-0.2946048 1.021375,0.1234601 l 0.308911,0.4119407 a 0.21942221,0.21942221 0 0 1 -0.201879,0.3494776 z"
         sodipodi:nodetypes="ssscs" /><path
         id="path39717"
         style="fill:#f7e27c;fill-opacity:1;fill-rule:evenodd;stroke-width:0.0624401"
         d="m 13.12537,9.8315226 c 0.305938,0.4236364 0.03182,0.9627804 -0.185824,1.0118874 -0.217644,0.04911 -0.696714,-0.320092 -0.602332,-0.834052 l 0.093,-0.5064303 a 0.21942221,0.21942221 0 0 1 0.393699,-0.088829 z"
         sodipodi:nodetypes="ssscs" /><path
         id="path39719"
         style="fill:#f7e27c;fill-opacity:1;fill-rule:evenodd;stroke-width:0.0624401"
         d="m 13.242733,7.0724104 c 0.522554,0.0018 0.797305,0.5406143 0.708991,0.745506 -0.08832,0.204892 -0.668688,0.3751318 -1.028802,-0.00353 L 12.568086,7.4412752 a 0.21942221,0.21942221 0 0 1 0.159752,-0.3706333 z"
         sodipodi:nodetypes="ssscs" /><path
         id="path39733"
         style="fill:#f7e27c;fill-opacity:1;fill-rule:evenodd;stroke-width:0.0624401"
         d="M 9.595253,8.224451 C 9.9215146,7.8162609 10.514367,7.9360272 10.619952,8.1325768 10.725535,8.3291274 10.498077,8.8895555 9.9776086,8.936222 L 9.4647684,8.9822044 A 0.21942221,0.21942221 0 0 1 9.273774,8.6266588 Z"
         sodipodi:nodetypes="ssscs" /><path
         id="path39735"
         style="fill:#f7e27c;fill-opacity:1;fill-rule:evenodd;stroke-width:0.0624401"
         d="m 3.5907017,10.739177 c 0.3262616,-0.408189 0.9191138,-0.288423 1.0246987,-0.09187 0.1055838,0.19655 -0.1218751,0.756978 -0.6423431,0.803644 L 3.460217,11.496931 A 0.21942221,0.21942221 0 0 1 3.2692227,11.141385 Z"
         sodipodi:nodetypes="ssscs" /><path
         id="path39737"
         style="fill:#f7e27c;fill-opacity:1;fill-rule:evenodd;stroke-width:0.0624401"
         d="M 4.2065531,7.9165253 C 4.5328147,7.5083351 5.1256669,7.6281015 5.2312518,7.8246509 5.3368356,8.0212014 5.1093767,8.5816296 4.5889087,8.628296 L 4.0760685,8.6742742 A 0.21942221,0.21942221 0 0 1 3.8850741,8.3187328 Z"
         sodipodi:nodetypes="ssscs" /><path
         id="path39739"
         style="fill:#f7e27c;fill-opacity:1;fill-rule:evenodd;stroke-width:0.0624401"
         d="M 19.910764,6.3255758 C 20.237026,5.9173857 20.829878,6.0371521 20.935463,6.2337014 21.041047,6.430252 20.813588,6.9906801 20.29312,7.0373466 L 19.78028,7.083329 A 0.21942221,0.21942221 0 0 1 19.589285,6.7277834 Z"
         sodipodi:nodetypes="ssscs" /><path
         id="path39741"
         style="fill:#f7e27c;fill-opacity:1;fill-rule:evenodd;stroke-width:0.0624401"
         d="m 16.010372,11.303709 c 0.326262,-0.408191 0.919114,-0.288424 1.024699,-0.09187 0.105584,0.196551 -0.121875,0.756979 -0.642343,0.803646 l -0.51284,0.04598 a 0.21942221,0.21942221 0 0 1 -0.190995,-0.355546 z"
         sodipodi:nodetypes="ssscs" /><path
         id="path39743"
         style="fill:#f7e27c;fill-opacity:1;fill-rule:evenodd;stroke-width:0.0624401"
         d="m 9.595253,11.201066 c 0.3262616,-0.40819 0.919114,-0.288424 1.024699,-0.09187 0.105583,0.196551 -0.121875,0.756979 -0.6423434,0.803645 l -0.5128402,0.04598 A 0.21942221,0.21942221 0 0 1 9.273774,11.603274 Z"
         sodipodi:nodetypes="ssscs" /><path
         id="path39721"
         style="fill:#f7e27c;fill-opacity:1;fill-rule:evenodd;stroke-width:0.0624401"
         d="m 22.014923,11.457671 c 0.326262,-0.40819 0.919114,-0.288424 1.024699,-0.09187 0.105584,0.19655 -0.121875,0.756978 -0.642343,0.803645 l -0.51284,0.04598 A 0.21942221,0.21942221 0 0 1 21.693444,11.85988 Z"
         sodipodi:nodetypes="ssscs" /><path
         id="path39723"
         style="fill:#f7e27c;fill-opacity:1;fill-rule:evenodd;stroke-width:0.0624401"
         d="M 7.8095285,6.7690239 C 7.7440189,7.2874584 7.1757099,7.4944425 6.9831186,7.3817995 6.7905268,7.2691559 6.6923408,6.6723504 7.1120929,6.3611069 L 7.5256944,6.0544251 a 0.21942221,0.21942221 0 0 1 0.3483828,0.2037625 z"
         sodipodi:nodetypes="ssscs" /><path
         id="path39725"
         style="fill:#f7e27c;fill-opacity:1;fill-rule:evenodd;stroke-width:0.0624401"
         d="M 6.7379015,10.565752 C 6.2870589,10.301542 6.3203779,9.6976328 6.4997167,9.5648961 6.6790476,9.4321605 7.2663478,9.5767151 7.3873304,10.085072 L 7.506541,10.58598 a 0.21942221,0.21942221 0 0 1 -0.3244026,0.240109 z"
         sodipodi:nodetypes="ssscs" /><path
         id="path39727"
         style="fill:#f7e27c;fill-opacity:1;fill-rule:evenodd;stroke-width:0.0624401"
         d="m 20.077257,9.7309196 c 0.43464,0.2900924 0.366104,0.8910254 0.179322,1.0130594 -0.186783,0.122035 -0.764636,-0.05657 -0.855719,-0.571132 L 19.311116,9.66583 A 0.21942221,0.21942221 0 0 1 19.64899,9.4450795 Z"
         sodipodi:nodetypes="ssscs" /><path
         id="path39729"
         style="fill:#f7e27c;fill-opacity:1;fill-rule:evenodd;stroke-width:0.0624401"
         d="M 15.760833,5.6297899 C 15.295297,5.3924227 15.29321,4.7875978 15.464468,4.6445918 15.635726,4.5015857 16.23048,4.6115146 16.381011,5.1119191 l 0.148325,0.4930718 a 0.21942221,0.21942221 0 0 1 -0.309792,0.2586866 z"
         sodipodi:nodetypes="ssscs" /><path
         id="path39731"
         style="fill:#f7e27c;fill-opacity:1;fill-rule:evenodd;stroke-width:0.0624401"
         d="m 11.691137,4.784165 c 0.505114,0.1338855 0.634667,0.7246763 0.497408,0.9005735 -0.137259,0.1758973 -0.741822,0.1938284 -0.994467,-0.2635932 L 10.945135,4.9704266 a 0.21942221,0.21942221 0 0 1 0.24829,-0.3181843 z"
         sodipodi:nodetypes="ssscs" /></g></g></svg>
