<?xml version="1.0" encoding="UTF-8" standalone="no"?>
<!-- Created with Inkscape (http://www.inkscape.org/) -->

<svg
   width="100"
   height="100"
   viewBox="0 0 26.458333 26.458333"
   version="1.1"
   id="svg28445"
   xml:space="preserve"
   inkscape:version="1.2 (dc2aedaf03, 2022-05-15)"
   sodipodi:docname="burger icon5.svg"
   xmlns:inkscape="http://www.inkscape.org/namespaces/inkscape"
   xmlns:sodipodi="http://sodipodi.sourceforge.net/DTD/sodipodi-0.dtd"
   xmlns="http://www.w3.org/2000/svg"
   xmlns:svg="http://www.w3.org/2000/svg"><sodipodi:namedview
     id="namedview28447"
     pagecolor="#505050"
     bordercolor="#ffffff"
     borderopacity="1"
     inkscape:showpageshadow="0"
     inkscape:pageopacity="0"
     inkscape:pagecheckerboard="1"
     inkscape:deskcolor="#505050"
     inkscape:document-units="mm"
     showgrid="false"
     inkscape:zoom="2.1875"
     inkscape:cx="22.628571"
     inkscape:cy="79.085714"
     inkscape:window-width="1366"
     inkscape:window-height="705"
     inkscape:window-x="-8"
     inkscape:window-y="-8"
     inkscape:window-maximized="1"
     inkscape:current-layer="layer1" /><defs
     id="defs28442" /><g
     inkscape:label="Layer 1"
     inkscape:groupmode="layer"
     id="layer1"><path
       id="path747"
       style="fill:#f5c773;fill-opacity:1;fill-rule:evenodd;stroke:#f5c773;stroke-width:0.123174;stroke-dasharray:none;stroke-opacity:1"
       d="M 6.6108966,20.998442 H 5.237117 c -0.097708,0.221659 -0.1600772,0.460772 -0.176444,0.718626 -0.016941,0.659528 0.3873896,1.251916 0.8848071,1.669277 -0.3965441,-0.800794 0.1268174,-1.605844 0.6654165,-2.387903 z" /><path
       id="path5593"
       style="fill:#4e581a;fill-opacity:1;fill-rule:evenodd;stroke-width:0.125;stroke:#4e581a;stroke-opacity:1;stroke-dasharray:none"
       d="M 7.6532796 18.945614 C 6.7232791 19.373418 5.6631967 20.018263 5.2430908 20.987349 C 5.241372 20.991314 5.2396205 20.995259 5.2379232 20.999235 L 6.6099325 20.999235 C 6.6126155 20.995213 6.615517 20.991371 6.6182007 20.987349 C 6.8512274 20.638172 7.0860408 20.293396 7.2496867 19.955371 C 7.2022167 18.791901 7.9618424 19.040318 7.6532796 18.945614 z " /><path
       id="path875"
       style="fill:#712815;fill-opacity:1;fill-rule:evenodd;stroke-width:0.125;stroke:#712815;stroke-opacity:1;stroke-dasharray:none"
       d="M 5.2095011 15.934428 C 5.1072548 16.147297 5.0437938 16.380897 5.0327677 16.638778 C 5.1313792 17.752648 6.2653006 18.342363 7.1912923 18.713586 C 6.3241482 18.32429 6.2830784 17.303544 6.2151245 16.488916 C 6.1989789 16.296296 6.2121851 16.111092 6.2497477 15.934428 L 5.2095011 15.934428 z " /><path
       id="path3581"
       style="fill:#de7009;fill-opacity:1;fill-rule:evenodd;stroke-width:0.125;stroke:#de7009;stroke-opacity:1;stroke-dasharray:none"
       d="M 6.0275391 14.997017 C 5.6874624 15.253413 5.3939105 15.556968 5.2151855 15.922542 C 5.2132597 15.926482 5.2114002 15.930474 5.2095011 15.934428 L 6.2497477 15.934428 C 6.250579 15.930518 6.2509595 15.926444 6.2518148 15.922542 C 6.3270115 15.579502 6.4948264 15.26881 6.7194865 14.997017 L 6.0275391 14.997017 z " /><path
       id="path873"
       style="fill:#f5c773;fill-opacity:1;fill-rule:evenodd;stroke:#f5c773;stroke-width:0.125;stroke-dasharray:none;stroke-opacity:1"
       d="m 1.7228923,8.9126343 c 0.081409,0.3894698 0.232077,0.6292166 0.5782592,0.8909017 0.9901042,0.569181 2.1626975,0.038378 3.0649292,-0.460437 -0.4137033,1.229292 -0.5495584,2.788082 0.4294312,3.787882 0.00375,0.0038 0.00759,0.0076 0.011369,0.01137 h 0.8722982 c -0.00383,-0.0038 -0.00755,-0.0076 -0.011369,-0.01137 C 6.0643425,12.534751 5.6567823,11.758436 5.6601196,10.883573 5.5350132,10.249174 5.8642415,8.7989461 5.8642415,8.7989461 c 0,0 -2.0418916,0.9409392 -2.9595092,0.3886068 -0.136588,-0.1174247 -0.148027,-0.048622 -0.237744,-0.1892005 z"
       sodipodi:nodetypes="cccscccccccc" /><path
       id="path2021"
       style="fill:#78090d;fill-opacity:1;fill-rule:evenodd;stroke-width:0.125;stroke:#78090d;stroke-opacity:1;stroke-dasharray:none"
       d="M 5.8068807 13.14235 C 5.8281194 13.16376 5.8497116 13.185031 5.871993 13.205912 C 6.1676447 13.688437 7.3535628 14.016428 7.2812093 14.275614 C 6.8765472 14.466655 6.4309423 14.695965 6.0435588 14.985132 C 6.0382177 14.989119 6.0328577 14.993008 6.0275391 14.997017 L 6.7194865 14.997017 C 6.7227629 14.993054 6.7260044 14.989079 6.729305 14.985132 C 7.0749755 14.57176 7.5529207 14.249967 8.0387858 14.044621 C 7.5426458 13.834208 7.0704191 13.525844 6.6791789 13.14235 L 5.8068807 13.14235 z " /><path
       id="path31207"
       style="fill:#d6661a;fill-opacity:1;fill-rule:evenodd;stroke-width:0.236691"
       d="M 3.5077962 18.795752 C 0.56465759 19.102785 0.86810454 21.005161 2.3362915 22.623425 C 2.7953258 23.118617 3.7994413 23.434745 4.4756958 23.434745 L 5.9143677 23.434745 A 3.644694 7.5201029 87.888082 0 1 5.0854777 22.06377 A 3.644694 7.5201029 87.888082 0 1 7.7411296 18.903756 A 3.1316433 7.5165146 87.335975 0 1 7.4150513 18.795752 L 3.5077962 18.795752 z " /><path
       id="path41983"
       style="display:inline;mix-blend-mode:normal;fill:#9f3f11;fill-opacity:1;stroke:none;stroke-width:0.547434;stroke-linecap:square;stroke-linejoin:round;stroke-dasharray:none;stroke-opacity:1;stop-color:#000000"
       d="M 3.5077962 18.795752 C 3.4485323 18.801934 3.3908091 18.808961 3.3341634 18.816423 C 3.3261423 18.817479 3.3183612 18.818958 3.3103923 18.82004 C 3.2721543 18.825231 3.2347823 18.830292 3.1977376 18.83606 C 3.1724005 18.840002 3.1470739 18.844254 3.12229 18.848462 C 3.1074162 18.850987 3.0930407 18.853593 3.0783651 18.856213 C 3.0273729 18.865318 2.9776379 18.874921 2.9290202 18.885152 C 2.9062008 18.889958 2.8831079 18.894572 2.8608073 18.899622 C 2.8357428 18.905293 2.8113244 18.911216 2.78691 18.917192 C 2.7610854 18.923517 2.7355302 18.930168 2.7104289 18.936829 C 2.6999838 18.9396 2.6892268 18.942268 2.6789062 18.945097 C 2.6356119 18.956965 2.5934193 18.968923 2.552299 18.981787 C 2.549752 18.982584 2.5470863 18.98357 2.5445475 18.984371 C 2.5048668 18.996885 2.4664635 19.010223 2.4287923 19.023645 C 2.4174712 19.027676 2.406344 19.031936 2.3952026 19.036047 C 2.3586665 19.04954 2.3228496 19.063043 2.2882324 19.077389 C 2.2480828 19.094026 2.2090479 19.111312 2.1714437 19.129065 C 2.1366881 19.145473 2.1032879 19.162376 2.0706746 19.179708 C 2.0649306 19.18276 2.0592995 19.185929 2.0536214 19.18901 C 2.028324 19.202735 2.0037227 19.216592 1.9797241 19.230868 C 1.9706451 19.236262 1.9612306 19.241416 1.9523356 19.246887 C 1.9504476 19.248049 1.948531 19.24934 1.9466512 19.250505 C 1.9198544 19.267135 1.8937438 19.284339 1.8686198 19.301664 C 1.8664765 19.303142 1.8645498 19.304832 1.8624186 19.306315 C 1.8337728 19.326248 1.8062167 19.346478 1.7797363 19.367293 C 1.6962994 19.43288 1.6232596 19.502854 1.5606283 19.576583 C 1.5397511 19.601159 1.5198436 19.626103 1.5012004 19.651514 C 1.4639137 19.702336 1.4310831 19.75466 1.4024984 19.80861 C 1.2166973 20.159288 1.2116056 20.573172 1.344104 21.011637 C 2.2018285 21.700498 3.3620024 21.798804 5.0720418 21.583179 A 3.644694 7.5201029 87.888082 0 1 7.7411296 18.903756 A 3.1316433 7.5165146 87.335975 0 1 7.4150513 18.795752 L 3.5077962 18.795752 z " /><path
       id="path31255"
       style="display:inline;fill:#65a82f;fill-opacity:1;stroke:none;stroke-width:0.547434;stroke-linecap:square;stroke-linejoin:round;stroke-dasharray:none;stroke-opacity:1;stop-color:#000000"
       d="M 5.0358683 16.556612 C 4.5505084 16.603007 4.0896112 16.657352 3.6633423 16.72146 C 2.6975567 16.866709 1.5360748 16.831771 0.94516195 17.575155 C 0.47360723 18.168379 0.32255495 19.230811 0.77101237 19.841683 C 1.6961362 21.101855 3.0118074 21.297849 5.2312052 20.999235 A 3.644694 7.5201029 87.888082 0 1 5.249292 20.965645 A 3.644694 7.5201029 87.888082 0 1 5.3634969 20.747571 A 3.644694 7.5201029 87.888082 0 1 5.4301595 20.638534 A 3.644694 7.5201029 87.888082 0 1 5.5960409 20.411157 A 3.644694 7.5201029 87.888082 0 1 5.6828573 20.305737 A 3.644694 7.5201029 87.888082 0 1 5.9009318 20.076294 A 3.644694 7.5201029 87.888082 0 1 5.9892985 19.992578 A 3.644694 7.5201029 87.888082 0 1 6.277653 19.750732 A 3.644694 7.5201029 87.888082 0 1 6.3293294 19.709391 A 3.644694 7.5201029 87.888082 0 1 6.3391479 19.702157 A 3.644694 7.5201029 87.888082 0 1 6.7076009 19.448425 A 3.644694 7.5201029 87.888082 0 1 6.7494588 19.421037 A 3.644694 7.5201029 87.888082 0 1 6.7582438 19.415869 A 3.644694 7.5201029 87.888082 0 1 7.2057617 19.160071 A 3.644694 7.5201029 87.888082 0 1 7.2197144 19.152836 A 3.644694 7.5201029 87.888082 0 1 7.2212646 19.151803 A 3.644694 7.5201029 87.888082 0 1 7.7411296 18.903756 A 3.1316433 7.5165146 87.335975 0 1 7.2750081 18.744592 A 3.1316433 7.5165146 87.335975 0 1 7.2295329 18.728056 A 3.1316433 7.5165146 87.335975 0 1 6.828007 18.561141 A 3.1316433 7.5165146 87.335975 0 1 6.7675456 18.534269 A 3.1316433 7.5165146 87.335975 0 1 6.4089111 18.351851 A 3.1316433 7.5165146 87.335975 0 1 6.3582682 18.323946 A 3.1316433 7.5165146 87.335975 0 1 6.0440755 18.128609 A 3.1316433 7.5165146 87.335975 0 1 6.0011841 18.098637 A 3.1316433 7.5165146 87.335975 0 1 5.7314331 17.889347 A 3.1316433 7.5165146 87.335975 0 1 5.6937093 17.856274 A 3.1316433 7.5165146 87.335975 0 1 5.4730509 17.637166 A 3.1316433 7.5165146 87.335975 0 1 5.4435954 17.602026 A 3.1316433 7.5165146 87.335975 0 1 5.2715129 17.371549 A 3.1316433 7.5165146 87.335975 0 1 5.2534261 17.34106 A 3.1316433 7.5165146 87.335975 0 1 5.1294027 17.095597 A 3.1316433 7.5165146 87.335975 0 1 5.124235 17.081128 A 3.1316433 7.5165146 87.335975 0 1 5.0503377 16.814994 A 3.1316433 7.5165146 87.335975 0 1 5.0358683 16.556612 z " /><path
       id="rect43781"
       style="display:inline;fill:#707e25;fill-opacity:1;stroke:none;stroke-width:0.516629;stroke-linecap:square;stroke-linejoin:round;stroke-dasharray:none;stroke-opacity:1;stop-color:#000000"
       d="M 5.0358683 16.557129 C 4.9788645 16.562597 4.9200141 16.567471 4.8637858 16.573149 C 4.8578258 16.57375 4.8521608 16.574049 4.8462158 16.574699 C 4.8099069 16.578399 4.7747238 16.582804 4.7387288 16.586584 C 4.6022978 16.600934 4.4689219 16.61628 4.337203 16.63206 C 4.257594 16.64166 4.1777964 16.650412 4.1000081 16.660482 C 4.0689672 16.664482 4.0377335 16.668277 4.0069906 16.672367 C 3.8902636 16.687977 3.7750886 16.70457 3.6628255 16.72146 C 3.6024636 16.73046 3.5415929 16.738871 3.479891 16.746781 C 3.41819 16.754681 3.3554897 16.762319 3.2928223 16.769519 C 3.1676604 16.783889 3.0408112 16.797534 2.914034 16.811894 C 2.8505561 16.819094 2.7866699 16.826225 2.723348 16.834115 C 2.660205 16.842015 2.596828 16.850406 2.5342122 16.859436 C 2.4187441 16.876096 2.3050305 16.895507 2.1931478 16.918347 C 2.1833478 16.920347 2.1729394 16.921932 2.1631755 16.924032 C 2.1027415 16.936802 2.0426499 16.95057 1.9838582 16.965889 C 1.9093783 16.985299 1.8369527 17.008192 1.7657837 17.032552 C 1.6961038 17.056402 1.627454 17.08161 1.5616618 17.1111 C 1.5350628 17.12302 1.5089956 17.135894 1.4831136 17.148824 C 1.4313507 17.174704 1.3813507 17.20223 1.3327352 17.23254 C 1.3084262 17.2477 1.2848727 17.263712 1.2614217 17.280082 C 1.1912778 17.329022 1.1246281 17.383709 1.0629842 17.444413 C 1.0217823 17.485033 0.98209386 17.528693 0.94516195 17.575155 C 0.91609648 17.611715 0.8880127 17.649445 0.86144613 17.68936 C 0.86093709 17.690125 0.86040683 17.691143 0.85989583 17.691943 C 0.85966903 17.692284 0.85960577 17.692667 0.85937907 17.692977 C 0.91719411 18.664587 1.7181167 19.429305 2.7047445 19.429305 L 6.7355062 19.429305 A 3.644694 7.5201029 87.888082 0 1 7.7411296 18.903756 A 3.1316433 7.5165146 87.335975 0 1 5.0503377 16.814994 A 3.1316433 7.5165146 87.335975 0 1 5.0358683 16.557129 z " /><path
       id="rect31232"
       style="display:inline;fill:#b1583f;fill-opacity:1;stroke:none;stroke-width:0.516629;stroke-linecap:square;stroke-linejoin:round;stroke-dasharray:none;stroke-opacity:1;stop-color:#000000"
       d="M 2.7052612 15.168066 C 1.680819 15.168066 0.85576172 15.992607 0.85576172 17.017049 C 0.85576172 18.041492 1.680819 18.866549 2.7052612 18.866549 L 7.6320923 18.866549 A 3.1316433 7.5165146 87.335975 0 1 5.0503377 16.814994 A 3.1316433 7.5165146 87.335975 0 1 5.8332357 15.168066 L 2.7052612 15.168066 z " /><path
       id="path43771"
       style="color:#000000;fill:#803623;stroke-width:0.713393;stroke-linecap:square;stroke-linejoin:round"
       d="M 2.7047445 15.168066 C 1.6803031 15.168066 0.85627848 15.992607 0.85627848 17.017049 C 0.85627848 17.309119 0.92272397 17.585316 1.0423136 17.830436 C 2.6333438 17.255064 3.9511868 16.958572 5.0663574 16.872872 A 3.1316433 7.5165146 87.335975 0 1 5.0503377 16.814994 A 3.1316433 7.5165146 87.335975 0 1 5.8332357 15.168066 L 2.7047445 15.168066 z " /><path
       id="rect31323"
       style="fill:#f2b70e;fill-opacity:1;stroke-width:0.722408;stroke-linecap:square;stroke-linejoin:round;stop-color:#000000"
       d="M 5.6167114 12.90929 L 2.6205119 12.920142 C 1.65529 13.739611 1.1274447 14.850691 0.60668132 15.966467 C 0.32476187 16.570503 0.5885997 16.863466 1.2247314 16.664616 C 2.7814537 16.177995 4.0870252 15.958034 5.2033 15.938562 A 3.1316433 7.5165146 87.335975 0 1 7.4352051 14.208435 A 3.3864028 6.5298308 88.235625 0 1 5.6167114 12.90929 z " /><path
       id="rect31234"
       style="display:inline;fill:#d50f18;fill-opacity:1;stroke:none;stroke-width:0.522479;stroke-linecap:square;stroke-linejoin:round;stroke-dasharray:none;stroke-opacity:1;stop-color:#000000"
       d="M 5.0544718 11.25616 C 4.538891 11.35809 4.0544486 11.480264 3.6111491 11.625647 C 1.7472437 12.362716 -0.22531222 14.651405 1.1932088 15.317928 C 2.5524481 15.913759 2.2979099 14.126335 3.2494141 14.115417 C 3.6957985 14.110317 3.1518784 15.301764 3.7718628 15.348417 C 4.5598951 15.407717 4.1239865 13.886087 4.9154622 13.91698 C 5.4486906 13.9378 5.0914861 14.717236 5.52111 14.935006 C 5.6490101 14.999836 5.8035339 15.037673 5.9670776 15.054378 A 3.1316433 7.5165146 87.335975 0 1 7.4352051 14.208435 A 3.3864028 6.5298308 88.235625 0 1 5.4425618 12.655042 A 3.4258327 6.8000557 39.510388 0 1 5.0544718 11.25616 z " /><path
       id="path42102"
       style="display:inline;fill:#c31821;fill-opacity:1;stroke:none;stroke-width:0.522479;stroke-linecap:square;stroke-linejoin:round;stroke-dasharray:none;stroke-opacity:1;stop-color:#000000"
       d="M 4.8792887 13.465328 C 4.1373479 13.48252 4.5475812 15.009434 3.7718628 14.948958 C 3.1518792 14.900628 3.695798 13.666198 3.2494141 13.671517 C 2.2979109 13.682827 2.5529632 15.534203 1.1937256 14.916919 C 0.93414549 14.790558 0.78823352 14.608081 0.7343221 14.389303 C 0.65402126 14.785119 0.7766349 15.121948 1.1937256 15.317928 C 2.5529632 15.913759 2.2979109 14.126335 3.2494141 14.115417 C 3.6957979 14.110317 3.1518793 15.302281 3.7718628 15.348934 C 4.5598942 15.408234 4.1239873 13.886086 4.9154622 13.91698 C 5.44869 13.9378 5.0914865 14.717756 5.52111 14.935522 C 5.6488763 15.000285 5.8032074 15.038264 5.9665609 15.054895 A 3.1316433 7.5165146 87.335975 0 1 6.6430054 14.60376 C 6.2716595 14.683655 5.8230165 14.67911 5.52111 14.520561 C 5.0914864 14.294988 5.4486908 13.487409 4.9154622 13.465845 C 4.9030954 13.465345 4.8910656 13.465055 4.8792887 13.465328 z M 7.4083333 14.195516 C 7.3829398 14.216113 7.3575143 14.236627 7.3318522 14.256494 A 3.1316433 7.5165146 87.335975 0 1 7.4352051 14.208435 A 3.3864028 6.5298308 88.235625 0 1 7.4083333 14.195516 z " /><path
       id="path42028"
       style="display:inline;fill:#400507;fill-opacity:0.416667;fill-rule:evenodd;stroke-width:0.281468"
       d="M 5.0539551 11.25616 C 4.5386029 11.358017 4.0542365 11.479817 3.6111491 11.62513 C 2.9227854 11.89734 2.2201758 12.381402 1.6784505 12.917041 C 2.2309244 13.553731 3.1705374 13.821754 4.0090576 13.738696 C 4.8527462 13.737818 5.6964705 13.737797 6.5401693 13.737663 A 3.3864028 6.5298308 88.235625 0 1 5.4425618 12.655042 A 3.4258327 6.8000557 39.510388 0 1 5.0539551 11.25616 z " /><path
       id="path31140"
       style="display:inline;fill:#f19a38;fill-opacity:1;fill-rule:evenodd;stroke-width:0.281468"
       d="M 1.7228923 8.9126343 C 1.355439 9.7858356 1.1769393 10.730054 1.2965617 11.673706 C 1.6521411 12.797162 2.9165477 13.28364 4.0090576 13.175423 C 4.6219296 13.174784 5.234828 13.175107 5.8477051 13.174906 A 3.3864028 6.5298308 88.235625 0 1 5.4425618 12.655042 A 3.4258327 6.8000557 39.510388 0 1 5.3660807 9.343099 A 2.9430288 6.7981075 39.0561 0 1 2.3011515 9.803536 A 2.9430288 6.7981075 39.0561 0 1 1.7228923 8.9126343 z " /><path
       id="path40564"
       style="display:inline;fill:#d6661a;fill-opacity:0.745098;fill-rule:evenodd;stroke-width:0.270863"
       d="M 5.3660807 9.343099 A 2.9430288 6.7981075 39.0561 0 1 2.3404256 9.8236898 C 2.1856952 10.24311 2.1066348 10.674662 2.1347534 11.11405 C 2.2070502 12.029532 3.1218339 12.631715 3.9651326 12.763045 C 4.4853079 12.82383 5.0101036 12.798638 5.5345459 12.7894 A 3.3864028 6.5298308 88.235625 0 1 5.4425618 12.655042 A 3.4258327 6.8000557 39.510388 0 1 5.3660807 9.343099 z " /><path
       id="path39735"
       style="fill:#f7e27c;fill-opacity:1;fill-rule:evenodd;stroke-width:0.0624401"
       d="m 3.5907017,10.739177 c 0.3262616,-0.408189 0.9191138,-0.288423 1.0246987,-0.09187 0.1055838,0.19655 -0.1218751,0.756978 -0.6423431,0.803644 L 3.460217,11.496931 A 0.21942221,0.21942221 0 0 1 3.2692227,11.141385 Z"
       sodipodi:nodetypes="ssscs" /></g></svg>
