<?xml version="1.0" encoding="UTF-8" standalone="no"?>
<!-- Created with Inkscape (http://www.inkscape.org/) -->

<svg
   width="100"
   height="100"
   viewBox="0 0 26.458333 26.458333"
   version="1.1"
   id="svg28445"
   xml:space="preserve"
   inkscape:version="1.2 (dc2aedaf03, 2022-05-15)"
   sodipodi:docname="burger icon4.svg"
   xmlns:inkscape="http://www.inkscape.org/namespaces/inkscape"
   xmlns:sodipodi="http://sodipodi.sourceforge.net/DTD/sodipodi-0.dtd"
   xmlns="http://www.w3.org/2000/svg"
   xmlns:svg="http://www.w3.org/2000/svg"><sodipodi:namedview
     id="namedview28447"
     pagecolor="#505050"
     bordercolor="#ffffff"
     borderopacity="1"
     inkscape:showpageshadow="0"
     inkscape:pageopacity="0"
     inkscape:pagecheckerboard="1"
     inkscape:deskcolor="#505050"
     inkscape:document-units="mm"
     showgrid="false"
     inkscape:zoom="14.305898"
     inkscape:cx="47.358089"
     inkscape:cy="65.637263"
     inkscape:window-width="1366"
     inkscape:window-height="705"
     inkscape:window-x="-8"
     inkscape:window-y="-8"
     inkscape:window-maximized="1"
     inkscape:current-layer="layer1" /><defs
     id="defs28442"><inkscape:path-effect
       effect="fillet_chamfer"
       id="path-effect40569"
       is_visible="true"
       lpeversion="1"
       nodesatellites_param="F,0,0,1,0,1.4013134,0,1 @ F,0,0,1,0,0,0,1 @ F,0,0,1,0,0,0,1 @ F,0,0,1,0,0,0,1 @ F,0,0,1,0,2.6042124,0,1"
       unit="px"
       method="auto"
       mode="F"
       radius="0"
       chamfer_steps="1"
       flexible="false"
       use_knot_distance="true"
       apply_no_radius="true"
       apply_with_radius="true"
       only_selected="false"
       hide_knots="false" /></defs><g
     inkscape:label="Layer 1"
     inkscape:groupmode="layer"
     id="layer1"><path
       id="path48952"
       style="fill:#f5c773;fill-opacity:1;fill-rule:evenodd;stroke:#f5c773;stroke-width:0.131425;stroke-dasharray:none;stroke-opacity:1"
       d="m 16.891591,21.046072 c -0.0019,1.9e-5 -0.0038,-1.9e-5 -0.0057,0 -0.02718,2.62e-4 -0.05423,5.75e-4 -0.08121,5.04e-4 -0.02699,-7e-5 -0.05391,-8.6e-5 -0.0807,-5.04e-4 -0.02679,-4.19e-4 -0.05308,-0.0013 -0.07966,-0.002 -0.02658,-7.84e-4 -0.0533,-0.0019 -0.07966,-0.003 -0.02636,-0.0012 -0.05249,-0.0024 -0.07863,-0.004 -0.02614,-0.0016 -0.05221,-0.003 -0.07811,-0.0051 -0.0259,-0.002 -0.05142,-0.0042 -0.07708,-0.0065 -0.02566,-0.0024 -0.05116,-0.0052 -0.07656,-0.0081 -0.0254,-0.0028 -0.05091,-0.0058 -0.07605,-0.0091 -0.02514,-0.0033 -0.05014,-0.0073 -0.07501,-0.01109 -0.02487,-0.0038 -0.04939,-0.0078 -0.07398,-0.0121 -0.02458,-0.0043 -0.04917,-0.0088 -0.07346,-0.01361 -0.02428,-0.0048 -0.04843,-0.0098 -0.07242,-0.01512 -0.02398,-0.0054 -0.503025,-0.01077 -0.526695,-0.01663 -0.02367,-0.0059 -0.04751,-0.01222 -0.07087,-0.01865 -0.02336,-0.0064 -0.04629,-0.01316 -0.06932,-0.02016 -0.02303,-0.007 -0.04611,-0.01408 -0.0688,-0.02167 -0.02269,-0.0076 -0.0449,-0.01549 -0.06725,-0.02369 -0.02235,-0.0082 -0.04473,-0.01689 -0.06673,-0.02571 -0.014,-0.0057 -0.02805,-0.01127 -0.0419,-0.01714 0.331994,0.517919 -1.255052,0.978864 -0.371974,1.324735 -0.722495,0.334593 0.262917,0.755764 -0.126021,1.230974 h 3.051437 c 0,0 -1.041648,-0.66336 -1.132947,-1.207745 -0.06734,-0.401506 0.766569,-0.612446 0.499269,-1.114631 z"
       sodipodi:nodetypes="cssssssssssssssssssssccccacc" /><path
       id="path56652"
       style="fill:#4e581a;fill-opacity:1;fill-rule:evenodd;stroke-width:0.133;stroke:#4e581a;stroke-opacity:1;stroke-dasharray:none"
       d="M 16.727144 18.547705 C 15.936689 18.823677 15.332795 19.286218 15.189771 20.209619 C 15.212117 20.33713 15.25157 20.462689 15.306559 20.585824 C 15.341071 20.663102 15.381594 20.739634 15.428516 20.81475 C 15.442354 20.820773 15.456388 20.826562 15.470374 20.83232 C 15.492344 20.841366 15.51471 20.850269 15.537036 20.858675 C 15.559362 20.867081 15.581545 20.87518 15.604215 20.882963 C 15.626887 20.890746 15.649937 20.898007 15.672945 20.905184 C 15.695954 20.912361 15.718855 20.919267 15.742192 20.925854 C 15.765528 20.932442 15.789334 20.938961 15.812988 20.944975 C 15.836643 20.950989 15.860338 20.956571 15.884302 20.962028 C 15.908266 20.967485 15.932385 20.972614 15.956649 20.977531 C 15.980913 20.982448 16.005475 20.98709 16.030029 20.991484 C 16.054584 20.995878 16.079091 20.999999 16.103927 21.003886 C 16.128763 21.007773 16.153749 21.011858 16.178857 21.015255 C 16.203966 21.018652 16.22945 21.021633 16.254822 21.024556 C 16.280193 21.02748 16.305677 21.030359 16.331303 21.032825 C 16.356928 21.035291 16.382431 21.037517 16.408301 21.039543 C 16.434171 21.041568 16.460226 21.043109 16.486332 21.04471 C 16.512438 21.046312 16.538548 21.04765 16.56488 21.048844 C 16.591212 21.050039 16.617913 21.051141 16.644462 21.051945 C 16.671011 21.052749 16.697287 21.053583 16.724044 21.054012 C 16.750801 21.054441 16.777703 21.054457 16.804659 21.054529 C 16.831615 21.054601 16.858646 21.054281 16.885791 21.054012 C 16.887681 21.053993 16.889585 21.054032 16.891475 21.054012 C 16.798339 20.882998 16.730514 20.706577 16.688904 20.526396 C 16.670281 20.445755 16.656479 20.364494 16.648596 20.282483 C 16.592976 19.696761 16.400883 19.086286 16.727144 18.547705 z " /><path
       id="path54504"
       style="fill:#de7009;fill-opacity:1;fill-rule:evenodd;stroke:#de7009;stroke-width:0.133;stroke-dasharray:none;stroke-opacity:1"
       d="m 12.269019,14.504024 c -0.243352,0.776213 -0.10639,1.673062 0.425292,2.300882 0.685873,0.829645 1.755122,1.218381 2.787753,1.391954 0.200496,0.05487 0.592832,0.04058 0.674827,0.10835 -0.547309,0.415726 -1.211217,1.015851 -1.15548,1.741533 0.01768,0.301949 0.02574,-0.446764 0.120964,-0.54765 0.232053,-0.550607 2.203429,-1.342301 1.705291,-1.313634 -0.883288,-0.0908 -1.804244,-0.406383 -2.365138,-1.133095 -0.505448,-0.671338 -0.838321,-1.514554 -0.771207,-2.365388 0.09088,-0.212083 -0.06947,-0.190885 -0.219559,-0.182959 z"
       sodipodi:nodetypes="cccsccccccc" /><path
       id="path51484"
       style="fill:#78090d;fill-opacity:1;fill-rule:evenodd;stroke-width:0.133;stroke:#78090d;stroke-opacity:1;stroke-dasharray:none"
       d="M 12.9651 13.160437 C 12.666006 13.559775 12.446803 13.965531 12.31191 14.366048 C 12.296417 14.412048 12.282278 14.458181 12.269019 14.504024 L 13.708724 14.504024 C 13.714307 14.458244 13.721443 14.412077 13.728878 14.366048 C 13.792914 13.969618 13.924959 13.564626 14.122652 13.160437 L 12.9651 13.160437 z " /><path
       id="path49838"
       style="fill:#f5c773;fill-opacity:1;fill-rule:evenodd;stroke:#f5c773;stroke-width:0.133;stroke-dasharray:none;stroke-opacity:1"
       d="M 9.604289,3.4159036 C 9.2248988,4.2702459 9.1260068,4.0137479 9.2375693,4.3851921 c 0.113366,0.5122761 0.420038,0.873035 0.6498638,1.3322489 0.5490229,0.8201885 1.5026759,1.2611907 2.4399809,1.466617 -0.771475,0.6812748 -1.534579,1.55819 -1.593957,2.6350595 -0.04705,0.8263795 0.569747,1.5300765 1.286335,1.8596605 0.58231,0.287125 1.226351,0.425928 1.868767,0.492572 -0.319911,0.291936 -0.712078,0.663878 -0.899744,0.989087 h 1.133838 c 0.316257,-0.643594 0.75872,-1.21916 1.263489,-1.725993 C 14.344083,11.313023 13.204038,10.942887 12.609833,10.015131 12.088028,9.2006149 12.273004,8.1392958 12.725657,7.3384616 13.020355,6.7948393 13.416265,6.3116419 13.855485,5.8787109 12.741673,5.6164894 11.645451,4.9067231 11.249443,3.788916 10.755195,3.8981442 10.089714,3.9542665 9.7948035,3.4438413 9.7559738,3.39275 9.6767066,3.4134647 9.604289,3.4159036 Z"
       sodipodi:nodetypes="cccccccccccccccc" /><path
       id="path31207"
       style="fill:#d6661a;fill-opacity:1;fill-rule:evenodd;stroke-width:0.236691"
       d="m 3.5077962,18.795752 c -2.94314158,0.307033 -2.63969313,2.209407 -1.1715047,3.827673 0.4590348,0.495192 1.4631491,0.81132 2.1394043,0.81132 H 15.591813 l -0.416888,-1.141673 c 0,0 0.08926,-1.368593 8.93e-4,-2.179054 -0.04732,-0.44695 0.11166,-0.897567 0.465088,-1.318266 z"
       sodipodi:nodetypes="ccsccccc" /><path
       id="path41983"
       style="display:inline;mix-blend-mode:normal;fill:#9f3f11;fill-opacity:1;stroke:none;stroke-width:0.547434;stroke-linecap:square;stroke-linejoin:round;stroke-dasharray:none;stroke-opacity:1;stop-color:#000000"
       d="M 3.5077962 18.795752 C 3.4485322 18.801934 3.3908091 18.808961 3.3341634 18.816423 C 3.3261423 18.817479 3.3183613 18.818958 3.3103923 18.82004 C 3.2721543 18.825231 3.2347823 18.830292 3.1977376 18.83606 C 3.1724004 18.840002 3.1470739 18.844254 3.12229 18.848462 C 3.1074161 18.850987 3.0930407 18.853593 3.0783651 18.856213 C 3.0273729 18.865318 2.977638 18.874921 2.9290202 18.885152 C 2.9062008 18.889958 2.8831079 18.894572 2.8608073 18.899622 C 2.8357428 18.905293 2.8113244 18.911216 2.78691 18.917192 C 2.7610854 18.923517 2.7355303 18.930168 2.7104289 18.936829 C 2.6999838 18.9396 2.6892268 18.942268 2.6789062 18.945097 C 2.6356118 18.956965 2.5934194 18.968923 2.552299 18.981787 C 2.549752 18.982584 2.5470863 18.98357 2.5445475 18.984371 C 2.5048667 18.996885 2.4664635 19.010223 2.4287923 19.023645 C 2.4174712 19.027676 2.406344 19.031936 2.3952026 19.036047 C 2.3586664 19.04954 2.3228496 19.063043 2.2882324 19.077389 C 2.2480827 19.094027 2.209048 19.111312 2.1714437 19.129065 C 2.1366881 19.145473 2.1032879 19.162376 2.0706746 19.179708 C 2.0649306 19.18276 2.0592995 19.185929 2.0536214 19.18901 C 2.028324 19.202735 2.0037227 19.216592 1.9797241 19.230868 C 1.9706451 19.236262 1.9612306 19.241416 1.9523356 19.246887 C 1.9504476 19.248049 1.948531 19.24934 1.9466512 19.250505 C 1.9198544 19.267135 1.8937438 19.284339 1.8686198 19.301664 C 1.8664765 19.303142 1.8645498 19.304832 1.8624186 19.306315 C 1.8337728 19.326248 1.8062167 19.346478 1.7797363 19.367293 C 1.6962993 19.43288 1.6232597 19.502854 1.5606283 19.576583 C 1.5397511 19.601159 1.5198437 19.626103 1.5012004 19.651514 C 1.4639137 19.702336 1.4310832 19.75466 1.4024984 19.80861 C 1.2166971 20.159288 1.2116055 20.573171 1.344104 21.011637 C 2.2825227 21.765305 3.580677 21.812997 5.5676188 21.514966 C 7.9938331 21.151049 7.519955 20.439478 8.4516805 20.30212 C 9.3834061 20.164761 9.8650325 21.570689 10.74043 21.591447 C 11.685659 21.613857 12.096126 19.49567 13.274125 20.317106 C 13.798798 20.483388 14.145821 20.962933 15.212508 21.264335 C 15.217787 20.875163 15.212287 20.448499 15.175818 20.114018 C 15.169081 20.050387 15.166992 19.986497 15.168583 19.922815 C 15.178171 19.539184 15.337794 19.156557 15.640906 18.795752 L 3.5077962 18.795752 z " /><path
       id="path31255"
       style="display:inline;fill:#65a82f;fill-opacity:1;stroke:none;stroke-width:0.547434;stroke-linecap:square;stroke-linejoin:round;stroke-dasharray:none;stroke-opacity:1;stop-color:#000000"
       d="M 11.137305 16.33182 C 8.4071285 16.325641 5.6688688 16.419842 3.6633423 16.72146 C 2.6975547 16.866709 1.536076 16.831771 0.94516195 17.575155 C 0.47360629 18.168381 0.32255405 19.230809 0.77101237 19.841683 C 1.7422539 21.164675 3.1414021 21.316129 5.5676188 20.952209 C 7.9938356 20.588293 7.5199541 19.876206 8.4516805 19.738847 C 9.383407 19.601488 9.8650322 21.007934 10.74043 21.028691 C 11.68566 21.051101 12.096125 18.932912 13.274125 19.75435 C 13.827579 19.929751 14.182683 20.453781 15.393892 20.749638 A 2.9796576 6.0660177 88.464994 0 1 15.175818 20.114018 A 2.9796576 6.0660177 88.464994 0 1 16.189193 18.280538 A 4.0490418 7.083861 72.948681 0 1 12.404411 16.342155 C 11.98367 16.336753 11.561209 16.332779 11.137305 16.33182 z " /><path
       id="rect43781"
       style="display:inline;fill:#707e25;fill-opacity:1;stroke:none;stroke-width:0.516629;stroke-linecap:square;stroke-linejoin:round;stroke-dasharray:none;stroke-opacity:1;stop-color:#000000"
       d="m 11.137305,16.331303 v 5.17e-4 c -0.303475,-6.86e-4 -0.606841,1.21e-4 -0.909506,0.0021 -0.08055,5.16e-4 -0.160926,0.0014 -0.2413285,0.0021 -0.2692833,0.0024 -0.5379245,0.0055 -0.804602,0.01033 -0.044836,8.02e-4 -0.090138,0.0017 -0.1348755,0.0026 -0.1061995,0.002 -0.211191,0.0043 -0.3167765,0.0067 -0.1006602,0.0023 -0.2007373,0.0051 -0.3007569,0.0078 -0.1094471,0.003 -0.2190473,0.0058 -0.3276285,0.0093 -0.041908,0.0014 -0.083289,0.0033 -0.125057,0.0047 -0.1291527,0.0044 -0.258323,0.0095 -0.386023,0.01447 -0.1019187,0.004 -0.2024486,0.0079 -0.3033406,0.0124 -0.1143151,0.0051 -0.2276743,0.01083 -0.3405477,0.01654 -0.074552,0.0038 -0.1493661,0.0072 -0.2232422,0.01137 -0.1949859,0.01069 -0.3879453,0.02248 -0.5777425,0.03514 -0.040151,0.0027 -0.079472,0.0054 -0.1193726,0.0083 -0.1621979,0.01127 -0.322298,0.02336 -0.480074,0.03617 -0.051939,0.0043 -0.1041188,0.0081 -0.1555461,0.0124 -0.1788353,0.01525 -0.354868,0.0317 -0.5270996,0.04909 -0.00596,6.01e-4 -0.011625,8.5e-4 -0.01757,0.0015 -0.036309,0.0037 -0.071492,0.0081 -0.107487,0.01188 -0.1364312,0.01435 -0.2698067,0.0297 -0.4015258,0.04548 -0.079609,0.0096 -0.1594066,0.01835 -0.2371949,0.02842 -0.031041,0.004 -0.062275,0.0078 -0.093018,0.01189 -0.1167271,0.01561 -0.2319019,0.0322 -0.3441651,0.04909 -0.060362,0.009 -0.1212325,0.01741 -0.1829345,0.02532 -0.061701,0.0079 -0.1244012,0.01554 -0.1870687,0.02274 -0.125162,0.01437 -0.252011,0.02801 -0.3787883,0.04237 -0.063478,0.0072 -0.127364,0.01433 -0.190686,0.02222 -0.063143,0.0079 -0.12652,0.01629 -0.1891358,0.02532 -0.1154683,0.01666 -0.2291816,0.03607 -0.3410644,0.05891 -0.0098,0.002 -0.020208,0.0036 -0.029972,0.0057 -0.060434,0.01277 -0.1205256,0.02654 -0.1793173,0.04186 -0.07448,0.01941 -0.1469054,0.0423 -0.2180745,0.06666 -0.06968,0.02385 -0.1383296,0.04906 -0.2041219,0.07855 -0.026599,0.01192 -0.052666,0.02479 -0.078548,0.03772 -0.051763,0.02588 -0.1017628,0.05341 -0.1503784,0.08372 -0.024309,0.01516 -0.047862,0.03117 -0.071313,0.04754 -0.070144,0.04894 -0.1367936,0.103627 -0.1984375,0.164331 -0.041202,0.04062 -0.0808903,0.08428 -0.11782225,0.130742 -0.0290655,0.03656 -0.0571492,0.07429 -0.0837158,0.114205 -5.0904e-4,7.65e-4 -0.001039,0.0018 -0.00155,0.0026 -2.268e-4,3.41e-4 -2.9006e-4,6.9e-4 -5.1676e-4,10e-4 0.0578151,0.971611 0.85873661,1.736328 1.84536541,1.736328 H 11.32334 c 0.158278,0.302359 0.311377,0.574342 0.46147,0.822689 0.408093,-0.493024 0.827909,-0.958855 1.489315,-0.497644 0.552843,0.175209 1.114152,0.919635 2.322176,1.215675 -0.119299,-0.205898 -0.395516,-0.640446 -0.420483,-0.856007 -0.06901,-0.640797 0.286478,-1.283967 1.013375,-1.83348 -1.859578,-0.140696 -3.246662,-0.851186 -3.785299,-1.9389 -0.03249,-4.18e-4 -0.06463,-0.0011 -0.09715,-0.0015 -0.09729,-0.0012 -0.194427,-0.0021 -0.291971,-0.0031 -0.29181,-0.0029 -0.584559,-0.005 -0.877466,-0.0057 z"
       sodipodi:nodetypes="ccscccccccccccccccscccccccccccsccssccccssccscccccccsccc" /><path
       id="rect31232"
       style="display:inline;fill:#b1583f;fill-opacity:1;stroke:none;stroke-width:0.516629;stroke-linecap:square;stroke-linejoin:round;stroke-dasharray:none;stroke-opacity:1;stop-color:#000000"
       d="M 2.7052612 15.168066 C 1.6808179 15.168066 0.85576172 15.992606 0.85576172 17.017049 C 0.85576172 18.041493 1.6808179 18.866549 2.7052612 18.866549 L 15.581995 18.866549 A 2.9796576 6.0660177 88.464994 0 1 16.189193 18.280538 A 4.0490418 7.083861 72.948681 0 1 12.326896 16.189193 A 4.0490418 7.083861 72.948681 0 1 12.162048 15.168066 L 2.7052612 15.168066 z " /><path
       id="path48944"
       style="color:#000000;fill:#803623;stroke-width:0.713393;stroke-linecap:square;stroke-linejoin:round"
       d="m 2.7047445,15.168066 c -1.0244424,0 -1.84846602,0.82454 -1.84846602,1.848983 0,0.29207 0.0664453,0.568267 0.18603512,0.813387 4.267944,-1.543438 6.5724169,-1.079338 8.262028,0.0739 0.4100163,0.279858 0.7845494,0.606788 1.1399824,0.962216 h 5.137671 a 2.9796576,6.0660177 88.464994 0 1 0.607198,-0.586011 4.0490418,7.083861 72.948681 0 1 -3.862297,-2.091345 4.0490418,7.083861 72.948681 0 1 -0.164848,-1.021127 z" /><path
       id="path43771"
       style="color:#000000;fill:#803623;stroke-width:0.713393;stroke-linecap:square;stroke-linejoin:round"
       d="M 2.7047445 15.168066 C 1.6803021 15.168066 0.85627848 15.992606 0.85627848 17.017049 C 0.85627848 17.309119 0.92272381 17.585316 1.0423136 17.830436 C 5.3102576 16.286998 7.6147305 16.751098 9.3043416 17.904333 C 9.7143579 18.184191 10.088891 18.511121 10.444324 18.866549 L 15.581995 18.866549 A 2.9796576 6.0660177 88.464994 0 1 16.189193 18.280538 A 4.0490418 7.083861 72.948681 0 1 12.326896 16.189193 A 4.0490418 7.083861 72.948681 0 1 12.162048 15.168066 L 2.7047445 15.168066 z " /><path
       id="rect31323"
       style="fill:#f2b70e;fill-opacity:1;stroke-width:0.722408;stroke-linecap:square;stroke-linejoin:round;stop-color:#000000"
       d="m 13.189893,12.881901 -10.5693811,0.03824 c -0.9652228,0.81947 -1.4930667,1.930548 -2.01383058,3.046325 -0.28191973,0.604036 -0.0180823,0.896999 0.61805008,0.698149 7.4819345,-2.3388 9.1756086,1.461569 11.8209836,4.252453 0.466876,0.492556 1.234709,0.423282 1.625741,-0.130741 0.170021,-0.24089 0.336798,-0.486509 0.503328,-0.732772 0.231905,-0.725289 2.39478,-1.885208 1.652882,-1.868097 -1.953539,-0.145891 -4.020387,-0.824245 -4.50077,-1.996266 -0.405208,-0.991775 -0.09501,-2.180561 0.862997,-3.307292 z"
       sodipodi:nodetypes="ccscsscccc" /><path
       id="rect31234"
       style="display:inline;fill:#d50f18;fill-opacity:1;stroke:none;stroke-width:0.522479;stroke-linecap:square;stroke-linejoin:round;stroke-dasharray:none;stroke-opacity:1;stop-color:#000000"
       d="M 10.394198 10.813293 C 7.8753979 10.826578 5.4081749 11.0363 3.6111491 11.625647 C 1.7472418 12.362717 -0.22531366 14.651404 1.1932088 15.317928 C 2.5524494 15.91376 2.297909 14.126335 3.2494141 14.115417 C 3.695799 14.110317 3.1518778 15.301764 3.7718628 15.348417 C 4.5598959 15.407717 4.1239857 13.886087 4.9154622 13.91698 C 5.4486911 13.9378 5.0914856 14.717236 5.52111 14.935006 C 5.8344441 15.09383 6.3058703 15.093177 6.6848633 15.006836 C 7.4618117 14.82983 7.8540943 13.968008 8.7720744 13.841016 C 9.6900548 13.71402 10.212622 15.308342 11.025684 14.883846 C 11.540205 14.615216 11.95245 14.486239 12.292273 14.447697 A 4.0490418 7.083861 72.948681 0 1 13.888558 12.17135 A 3.4785196 7.081606 72.356788 0 1 11.002946 10.814327 C 10.968119 10.814091 10.933388 10.81346 10.89856 10.813293 C 10.730365 10.812488 10.562118 10.812408 10.394198 10.813293 z " /><path
       id="path42102"
       style="display:inline;fill:#c31821;fill-opacity:1;stroke:none;stroke-width:0.522479;stroke-linecap:square;stroke-linejoin:round;stroke-dasharray:none;stroke-opacity:1;stop-color:#000000"
       d="M 8.8573405 13.380062 C 8.8294055 13.380809 8.8007614 13.383197 8.7720744 13.387297 C 7.8540953 13.518861 7.461811 14.41108 6.6848633 14.594458 C 6.3058707 14.683918 5.8344437 14.685111 5.52111 14.520561 C 5.0914859 14.294988 5.4486913 13.487409 4.9154622 13.465845 C 4.1239865 13.433835 4.559895 15.010394 3.7718628 14.948958 C 3.1518786 14.900628 3.6957985 13.666198 3.2494141 13.671517 C 2.29791 13.682827 2.5529646 15.534204 1.1937256 14.916919 C 0.93414524 14.790558 0.78823357 14.608082 0.7343221 14.389303 C 0.65402118 14.78512 0.7766345 15.121948 1.1937256 15.317928 C 2.5529646 15.91376 2.29791 14.126335 3.2494141 14.115417 C 3.6957984 14.110317 3.1518787 15.302281 3.7718628 15.348934 C 4.559895 15.408234 4.1239865 13.886086 4.9154622 13.91698 C 5.4486905 13.9378 5.091486 14.717755 5.52111 14.935522 C 5.8344437 15.094346 6.3058707 15.09318 6.6848633 15.006836 C 7.461811 14.829831 7.8540953 13.967492 8.7720744 13.840499 C 9.6900536 13.713503 10.212623 15.308342 11.025684 14.883846 C 11.538104 14.616314 11.949105 14.487342 12.288139 14.448214 A 4.0490418 7.083861 72.948681 0 1 12.458154 14.002763 C 12.089109 14.01373 11.626946 14.142114 11.025684 14.467334 C 10.238032 14.89337 9.7233281 13.356904 8.8573405 13.380062 z " /><path
       id="path42028"
       style="display:inline;fill:#400507;fill-opacity:0.416667;fill-rule:evenodd;stroke-width:0.281468"
       d="M 10.394714 10.813293 C 7.87592 10.826539 5.4081732 11.035785 3.6111491 11.62513 C 2.9227847 11.89734 2.2201763 12.381401 1.6784505 12.917041 C 2.2309249 13.553732 3.1705365 13.821754 4.0090576 13.738696 C 6.8701602 13.735717 9.7313294 13.737916 12.592513 13.739213 A 4.0490418 7.083861 72.948681 0 1 13.888558 12.17135 A 3.4785196 7.081606 72.356788 0 1 11.002946 10.814327 C 10.968134 10.814091 10.93337 10.81346 10.89856 10.813293 C 10.730365 10.812488 10.562634 10.81241 10.394714 10.813293 z " /><path
       id="path31140"
       style="display:inline;fill:#f19a38;fill-opacity:1;fill-rule:evenodd;stroke-width:0.281468"
       d="M 9.7317057 3.3047078 C 7.1664349 3.7960777 4.7197139 4.9509538 2.9739787 6.9184408 C 1.8586192 8.2103128 1.0772001 9.943252 1.2965617 11.673706 C 1.6521415 12.797163 2.9165466 13.28364 4.0090576 13.175423 C 6.9903952 13.172314 9.9717976 13.175169 12.953215 13.176457 A 4.0490418 7.083861 72.948681 0 1 13.888558 12.17135 A 3.4785196 7.081606 72.356788 0 1 10.861869 10.543542 A 3.4785196 7.081606 72.356788 0 1 12.327413 7.1840576 A 3.7624172 6.1505087 73.348474 0 1 9.6702108 5.3082031 A 3.7624172 6.1505087 73.348474 0 1 9.7317057 3.3047078 z " /><path
       id="path40564"
       style="display:inline;fill:#d6661a;fill-opacity:0.745098;fill-rule:evenodd;stroke-width:0.270863"
       d="M 5.0043457 6.7308553 C 4.8149139 6.732028 4.6074867 6.82696 4.3986979 7.0285116 C 3.2043985 8.1814131 2.0379364 9.6011632 2.1347534 11.11405 C 2.2070503 12.029533 3.121833 12.631715 3.9651326 12.763045 C 4.6901336 12.847765 5.4242695 12.764774 6.1536296 12.791984 C 8.5172563 12.790784 10.880526 12.792259 13.244153 12.793018 C 13.252996 12.793021 13.258672 12.79251 13.267407 12.792501 A 4.0490418 7.083861 72.948681 0 1 13.581083 12.459705 C 13.48333 12.442002 13.390874 12.424584 13.273608 12.405961 C 9.9392189 11.876462 6.8149614 11.038776 5.7262655 7.4501912 C 5.5860206 6.9879127 5.3200654 6.7289008 5.0043457 6.7308553 z " /><path
       id="path39733"
       style="fill:#f7e27c;fill-opacity:1;fill-rule:evenodd;stroke-width:0.0624401"
       d="M 9.595253,8.224451 C 9.9215146,7.8162609 10.514367,7.9360272 10.619952,8.1325768 10.725535,8.3291274 10.498077,8.8895555 9.9776086,8.936222 L 9.4647684,8.9822044 A 0.21942221,0.21942221 0 0 1 9.273774,8.6266588 Z"
       sodipodi:nodetypes="ssscs" /><path
       id="path39735"
       style="fill:#f7e27c;fill-opacity:1;fill-rule:evenodd;stroke-width:0.0624401"
       d="m 3.5907017,10.739177 c 0.3262616,-0.408189 0.9191138,-0.288423 1.0246987,-0.09187 0.1055838,0.19655 -0.1218751,0.756978 -0.6423431,0.803644 L 3.460217,11.496931 A 0.21942221,0.21942221 0 0 1 3.2692227,11.141385 Z"
       sodipodi:nodetypes="ssscs" /><path
       id="path39737"
       style="fill:#f7e27c;fill-opacity:1;fill-rule:evenodd;stroke-width:0.0624401"
       d="M 4.2065531,7.9165253 C 4.5328147,7.5083351 5.1256669,7.6281015 5.2312518,7.8246509 5.3368356,8.0212014 5.1093767,8.5816296 4.5889087,8.628296 L 4.0760685,8.6742742 A 0.21942221,0.21942221 0 0 1 3.8850741,8.3187328 Z"
       sodipodi:nodetypes="ssscs" /><path
       id="path39743"
       style="fill:#f7e27c;fill-opacity:1;fill-rule:evenodd;stroke-width:0.0624401"
       d="m 9.595253,11.201066 c 0.3262616,-0.40819 0.919114,-0.288424 1.024699,-0.09187 0.105583,0.196551 -0.121875,0.756979 -0.6423434,0.803645 l -0.5128402,0.04598 A 0.21942221,0.21942221 0 0 1 9.273774,11.603274 Z"
       sodipodi:nodetypes="ssscs" /><path
       id="path39723"
       style="fill:#f7e27c;fill-opacity:1;fill-rule:evenodd;stroke-width:0.0624401"
       d="M 7.8095285,6.7690239 C 7.7440189,7.2874584 7.1757099,7.4944425 6.9831186,7.3817995 6.7905268,7.2691559 6.6923408,6.6723504 7.1120929,6.3611069 L 7.5256944,6.0544251 a 0.21942221,0.21942221 0 0 1 0.3483828,0.2037625 z"
       sodipodi:nodetypes="ssscs" /><path
       id="path39725"
       style="fill:#f7e27c;fill-opacity:1;fill-rule:evenodd;stroke-width:0.0624401"
       d="M 6.7379015,10.565752 C 6.2870589,10.301542 6.3203779,9.6976328 6.4997167,9.5648961 6.6790476,9.4321605 7.2663478,9.5767151 7.3873304,10.085072 L 7.506541,10.58598 a 0.21942221,0.21942221 0 0 1 -0.3244026,0.240109 z"
       sodipodi:nodetypes="ssscs" /></g></svg>
