<?xml version="1.0" encoding="UTF-8" standalone="no"?>
<!-- Created with Inkscape (http://www.inkscape.org/) -->

<svg
   width="100"
   height="100"
   viewBox="0 0 26.458333 26.458333"
   version="1.1"
   id="svg28445"
   xml:space="preserve"
   inkscape:version="1.2 (dc2aedaf03, 2022-05-15)"
   sodipodi:docname="burger icon2.svg"
   xmlns:inkscape="http://www.inkscape.org/namespaces/inkscape"
   xmlns:sodipodi="http://sodipodi.sourceforge.net/DTD/sodipodi-0.dtd"
   xmlns="http://www.w3.org/2000/svg"
   xmlns:svg="http://www.w3.org/2000/svg"><sodipodi:namedview
     id="namedview28447"
     pagecolor="#505050"
     bordercolor="#ffffff"
     borderopacity="1"
     inkscape:showpageshadow="0"
     inkscape:pageopacity="0"
     inkscape:pagecheckerboard="1"
     inkscape:deskcolor="#505050"
     inkscape:document-units="mm"
     showgrid="false"
     inkscape:zoom="2.7244563"
     inkscape:cx="51.202877"
     inkscape:cy="67.536411"
     inkscape:window-width="1366"
     inkscape:window-height="705"
     inkscape:window-x="-8"
     inkscape:window-y="-8"
     inkscape:window-maximized="1"
     inkscape:current-layer="layer1" /><defs
     id="defs28442"><inkscape:path-effect
       effect="fillet_chamfer"
       id="path-effect40569"
       is_visible="true"
       lpeversion="1"
       nodesatellites_param="F,0,0,1,0,1.4013134,0,1 @ F,0,0,1,0,0,0,1 @ F,0,0,1,0,0,0,1 @ F,0,0,1,0,0,0,1 @ F,0,0,1,0,2.6042124,0,1"
       unit="px"
       method="auto"
       mode="F"
       radius="0"
       chamfer_steps="1"
       flexible="false"
       use_knot_distance="true"
       apply_no_radius="true"
       apply_with_radius="true"
       only_selected="false"
       hide_knots="false" /></defs><g
     inkscape:label="Layer 1"
     inkscape:groupmode="layer"
     id="layer1"><path
       id="path46552"
       style="fill:#f5c773;fill-opacity:1;fill-rule:evenodd;stroke:#f5c773;stroke-width:0.103;stroke-dasharray:none;stroke-opacity:1;paint-order:normal"
       d="m 18.306376,6.3406982 c -0.712674,1.0554703 -0.97576,2.7104567 0.102253,3.6295828 0.64458,0.565637 1.530168,0.756346 2.365814,0.761364 -0.478928,0.660704 -1.09618,1.669916 -0.891859,2.449468 0.456099,0 0.912199,0 1.368298,0 -1.056619,-1.265472 -0.134974,-3.032014 0.769465,-4.0948459 -1.633684,0.00336 -3.645219,-0.8769349 -3.713971,-2.7455689 z" /><path
       id="path44549"
       style="fill:#4e581a;fill-opacity:1;fill-rule:evenodd;stroke-width:0.103;stroke:#4e581a;stroke-opacity:1;stroke-dasharray:none"
       d="M 23.944275 18.864482 L 22.574333 18.864482 A 3.6853814 6.4476315 60.881023 0 0 24.263118 19.825146 L 24.263118 19.213298 A 4.4369092 7.8790662 63.804786 0 1 23.944275 18.864482 z " /><path
       id="path47943"
       style="fill:#712815;fill-opacity:1;fill-rule:evenodd;stroke-width:0.103;stroke:#712815;stroke-opacity:1;stroke-dasharray:none"
       d="M 22.634794 15.619718 A 3.6853814 6.4476315 60.881023 0 0 22.487516 18.747176 A 3.6853814 6.4476315 60.881023 0 0 22.529891 18.804537 A 3.6853814 6.4476315 60.881023 0 0 22.574333 18.864482 L 23.944275 18.864482 A 4.4369092 7.8790662 63.804786 0 1 23.901383 18.804537 A 4.4369092 7.8790662 63.804786 0 1 23.850224 18.733223 A 4.4369092 7.8790662 63.804786 0 1 23.727234 15.825907 L 22.634794 15.619718 z " /><path
       id="path46681"
       style="fill:#78090d;fill-opacity:1;fill-rule:evenodd;stroke-width:0.103;stroke:#78090d;stroke-opacity:1;stroke-dasharray:none"
       d="M 19.832381 13.181108 A 3.1661001 6.445579 60.28913 0 0 20.084562 13.962455 A 3.1661001 6.445579 60.28913 0 0 20.10885 14.001213 A 3.1661001 6.445579 60.28913 0 0 20.12487 14.0224 L 22.842533 14.0224 A 3.8127987 7.8743612 63.015741 0 1 22.602238 13.962455 A 3.8127987 7.8743612 63.015741 0 1 21.250899 13.181108 L 19.832381 13.181108 z " /><path
       id="path47730"
       style="fill:#de7009;fill-opacity:1;fill-rule:evenodd;stroke:#de7009;stroke-width:0.103;stroke-dasharray:none;stroke-opacity:1"
       d="m 20.12487,14.0224 c 0.496634,0.699637 1.574288,1.006606 2.987931,0.851111 -0.169126,0.229084 -0.318569,0.460073 -0.447001,0.690914 -0.01047,0.01843 -0.02081,0.03687 -0.03101,0.05529 l 1.09244,0.206189 0.02274,-0.05633 c -0.414104,-0.458977 -0.206524,-0.974471 0.192627,-1.50738 l -1.100066,-0.2398 z"
       sodipodi:nodetypes="ccccccccc" /><path
       id="path31207"
       style="fill:#d6661a;fill-opacity:1;fill-rule:evenodd;stroke-width:0.236691"
       d="M 3.5077962 18.795752 C 0.56465165 19.102785 0.8681016 21.005157 2.3362915 22.623425 C 2.7953268 23.118617 3.7994399 23.434745 4.4756958 23.434745 L 20.885547 23.434745 C 21.583474 23.434745 22.620484 23.109428 23.09058 22.595003 C 24.027076 21.620414 24.236038 20.467564 23.77581 19.689237 A 3.6853814 6.4476315 60.881023 0 1 22.578467 18.869649 C 22.391619 18.826182 22.187861 18.800337 21.965584 18.795752 L 3.5077962 18.795752 z " /><path
       id="path41983"
       style="display:inline;mix-blend-mode:normal;fill:#9f3f11;fill-opacity:1;stroke:none;stroke-width:0.547434;stroke-linecap:square;stroke-linejoin:round;stroke-dasharray:none;stroke-opacity:1;stop-color:#000000"
       d="m 3.5079846,18.795584 c -1.9812574,0.206688 -2.4899371,1.136707 -2.1637863,2.216012 0.9384205,0.753668 2.2367255,0.801595 4.2236713,0.503564 2.4262191,-0.363917 1.9522217,-1.075923 2.883949,-1.213281 0.9317274,-0.137359 1.4131797,1.268938 2.2885784,1.289696 0.945231,0.02241 1.355761,-2.095742 2.533762,-1.274304 0.745314,0.236207 1.129673,1.105071 3.731653,1.19679 2.601978,0.09172 2.4963,-1.202824 3.24348,-1.586007 1.173416,1.150787 2.81692,1.293594 3.759688,0.749848 0.0052,-0.117442 0.06402,-0.432877 -0.04414,-0.464002 -1.377421,-0.396392 -1.165225,-1.250237 -1.999257,-1.418316 z"
       sodipodi:nodetypes="ccssscsccscc" /><path
       id="path31255"
       style="display:inline;fill:#65a82f;fill-opacity:1;stroke:none;stroke-width:0.547434;stroke-linecap:square;stroke-linejoin:round;stroke-dasharray:none;stroke-opacity:1;stop-color:#000000"
       d="M 11.137305 16.33182 C 8.4071261 16.325641 5.6688708 16.419842 3.6633423 16.72146 C 2.6975537 16.866709 1.5360766 16.831771 0.94516195 17.575155 C 0.47360582 18.168382 0.3225536 19.230808 0.77101237 19.841683 C 1.7422549 21.164676 3.1413997 21.316129 5.5676188 20.952209 C 7.993838 20.588292 7.5199532 19.876206 8.4516805 19.738847 C 9.3834079 19.601488 9.8650316 21.007934 10.74043 21.028691 C 11.685661 21.051101 12.096124 18.932911 13.274125 19.75435 C 14.019439 19.990556 14.403702 20.859457 17.00568 20.951176 C 19.60766 21.042896 19.501712 19.747893 20.248893 19.364709 C 21.585926 20.675959 23.533729 20.679156 24.359237 19.848401 A 3.6853814 6.4476315 60.881023 0 1 22.487516 18.747176 A 3.6853814 6.4476315 60.881023 0 1 22.200712 16.728178 C 21.981521 16.705731 21.757099 16.702632 21.532019 16.72146 C 21.532019 16.72146 16.349464 16.343616 11.137305 16.33182 z " /><path
       id="rect43781"
       style="display:inline;fill:#707e25;fill-opacity:1;stroke:none;stroke-width:0.516629;stroke-linecap:square;stroke-linejoin:round;stroke-dasharray:none;stroke-opacity:1;stop-color:#000000"
       d="M 11.137305 16.331303 L 11.137305 16.33182 C 10.83383 16.331134 10.530464 16.331941 10.227799 16.333887 C 10.14725 16.334403 10.066873 16.335254 9.9864705 16.335954 C 9.7171869 16.338354 9.4485463 16.341459 9.1818685 16.346289 C 9.1370325 16.347091 9.091731 16.347973 9.046993 16.348873 C 8.9407934 16.350873 8.8358021 16.353191 8.7302165 16.355591 C 8.6295562 16.357891 8.5294793 16.360642 8.4294596 16.363342 C 8.3200124 16.366342 8.2104125 16.369144 8.1018311 16.372644 C 8.0599231 16.374044 8.0185425 16.375895 7.9767741 16.377295 C 7.8476213 16.381695 7.7184512 16.386764 7.5907511 16.391764 C 7.4888323 16.395764 7.3883026 16.399617 7.2874105 16.404167 C 7.1730953 16.409267 7.0597363 16.414993 6.9468628 16.420703 C 6.8723109 16.424503 6.7974968 16.427932 6.7236206 16.432072 C 6.5286345 16.442762 6.3356755 16.454552 6.1458781 16.467212 C 6.1057271 16.469912 6.0664056 16.47258 6.0265055 16.47548 C 5.8643074 16.48675 5.7042077 16.498844 5.5464315 16.511654 C 5.4944925 16.515954 5.4423127 16.519716 5.3908854 16.524056 C 5.2120499 16.539306 5.0360176 16.555759 4.8637858 16.573149 C 4.8578258 16.57375 4.8521608 16.573999 4.8462158 16.574699 C 4.8099069 16.578399 4.7747237 16.582794 4.7387288 16.586584 C 4.6022974 16.600934 4.4689223 16.61628 4.337203 16.63206 C 4.257594 16.64166 4.1777964 16.650412 4.1000081 16.660482 C 4.0689672 16.664482 4.0377335 16.668267 4.0069906 16.672367 C 3.8902634 16.687977 3.7750888 16.70457 3.6628255 16.72146 C 3.6024636 16.73046 3.5415931 16.738871 3.479891 16.746781 C 3.41819 16.754681 3.3554899 16.762319 3.2928223 16.769519 C 3.1676602 16.783889 3.0408114 16.797534 2.914034 16.811894 C 2.8505561 16.819094 2.7866701 16.826225 2.723348 16.834115 C 2.660205 16.842015 2.596828 16.850406 2.5342122 16.859436 C 2.4187437 16.876096 2.3050307 16.895507 2.1931478 16.918347 C 2.1833478 16.920347 2.1729404 16.921932 2.1631755 16.924032 C 2.1027415 16.936802 2.0426499 16.95057 1.9838582 16.965889 C 1.9093783 16.985299 1.8369529 17.008192 1.7657837 17.032552 C 1.6961038 17.056402 1.6274542 17.08161 1.5616618 17.1111 C 1.5350628 17.12302 1.5089956 17.135894 1.4831136 17.148824 C 1.4313507 17.174704 1.3813509 17.20223 1.3327352 17.23254 C 1.3084262 17.2477 1.2848737 17.263712 1.2614217 17.280082 C 1.1912778 17.329022 1.1246281 17.383709 1.0629842 17.444413 C 1.0217823 17.485033 0.98209397 17.528696 0.94516195 17.575155 C 0.91609638 17.611715 0.8880128 17.649443 0.86144613 17.68936 C 0.86093709 17.690125 0.86040683 17.691143 0.85989583 17.691943 C 0.85966903 17.692284 0.85960577 17.692633 0.85937907 17.692977 C 0.91719421 18.664589 1.7181147 19.429305 2.7047445 19.429305 L 11.32334 19.429305 C 11.481618 19.731664 11.634716 20.003647 11.78481 20.251994 C 12.192903 19.75897 12.612718 19.293139 13.274125 19.75435 C 13.841278 19.934094 14.200577 20.4801 15.485876 20.771342 C 15.690054 20.384496 15.884842 19.93263 16.07137 19.429305 L 20.14399 19.429305 C 20.15984 19.418245 20.175916 19.407932 20.192566 19.397782 C 20.210866 19.386472 20.22995 19.375206 20.24941 19.365226 C 20.27182 19.387206 20.294356 19.408055 20.317106 19.429305 L 22.526274 19.429305 C 22.722936 19.429305 22.912062 19.398866 23.089547 19.342489 A 3.6853814 6.4476315 60.881023 0 1 22.487516 18.747176 A 3.6853814 6.4476315 60.881023 0 1 22.200712 16.728178 C 22.193949 16.727463 22.18733 16.726249 22.180558 16.725594 C 22.176958 16.72524 22.173396 16.724905 22.169706 16.724561 C 22.164106 16.724033 22.158303 16.724032 22.152653 16.723527 C 22.089033 16.717927 22.024714 16.713941 21.960417 16.711641 C 21.959868 16.711621 21.959466 16.71166 21.958866 16.711641 L 21.95835 16.711641 C 21.89453 16.709441 21.830414 16.708374 21.766113 16.709574 C 21.752003 16.709823 21.737869 16.710707 21.723739 16.711125 C 21.660049 16.713025 21.596466 16.71614 21.532536 16.72146 C 21.532536 16.72146 21.197419 16.697213 20.718632 16.666683 C 20.693092 16.665083 20.667767 16.663732 20.641117 16.662032 C 20.617347 16.660532 20.579944 16.658464 20.555334 16.656864 C 20.307768 16.641434 20.019618 16.623838 19.692855 16.605188 C 19.665825 16.603688 19.644937 16.602554 19.617407 16.601054 C 19.614407 16.600888 19.610589 16.600187 19.607589 16.60002 C 19.227426 16.57854 18.797433 16.556378 18.332731 16.533358 C 18.318761 16.532665 18.303353 16.531474 18.289323 16.530774 C 18.015422 16.517264 17.739843 16.504303 17.441829 16.490983 C 17.433629 16.490616 17.424748 16.490318 17.416508 16.48995 C 17.388308 16.48865 17.356014 16.487015 17.327625 16.485815 C 17.032945 16.472825 16.723311 16.460858 16.409334 16.448608 C 16.274406 16.443408 16.140165 16.437659 16.002124 16.432589 C 15.642965 16.419419 15.274245 16.407228 14.897282 16.395898 C 14.627157 16.387798 14.353835 16.379504 14.07666 16.372644 C 14.06846 16.372442 14.060542 16.372328 14.052372 16.372127 C 14.045672 16.371962 14.038938 16.371776 14.032218 16.371611 C 14.001398 16.370857 13.969584 16.370243 13.938684 16.369543 C 13.676872 16.363243 13.412789 16.357897 13.146484 16.353007 C 13.124544 16.352604 13.102309 16.352367 13.080339 16.351973 C 13.049219 16.351415 13.017457 16.350506 12.986287 16.349906 C 12.760839 16.346106 12.534233 16.342888 12.306742 16.340088 C 12.209452 16.338888 12.112316 16.337987 12.014771 16.336987 C 11.722961 16.334087 11.430213 16.332003 11.137305 16.331303 z " /><path
       id="rect31232"
       style="display:inline;fill:#b1583f;fill-opacity:1;stroke:none;stroke-width:0.516629;stroke-linecap:square;stroke-linejoin:round;stroke-dasharray:none;stroke-opacity:1;stop-color:#000000"
       d="M 2.7052612 15.168066 C 1.6808168 15.168066 0.85576172 15.992605 0.85576172 17.017049 C 0.85576172 18.041494 1.6808168 18.866549 2.7052612 18.866549 L 22.526274 18.866549 C 22.542542 18.866549 22.558684 18.865412 22.574849 18.864998 A 3.6853814 6.4476315 60.881023 0 1 22.487516 18.747176 A 3.6853814 6.4476315 60.881023 0 1 22.886458 15.20269 C 22.77 15.179871 22.649613 15.168066 22.526274 15.168066 L 2.7052612 15.168066 z " /><path
       id="path43771"
       style="color:#000000;fill:#803623;stroke-width:0.713393;stroke-linecap:square;stroke-linejoin:round"
       d="M 2.7047445 15.168066 C 1.6803011 15.168066 0.85627848 15.992605 0.85627848 17.017049 C 0.85627848 17.309119 0.92272365 17.585316 1.0423136 17.830436 C 5.3102618 16.286996 7.6147288 16.751096 9.3043416 17.904333 C 9.7143583 18.184191 10.088891 18.511121 10.444324 18.866549 L 16.932817 18.866549 C 17.385454 18.265729 17.862258 17.724934 18.400944 17.307987 C 19.184015 16.70189 20.078263 16.338199 21.264335 16.371094 C 21.576447 16.379751 21.909952 16.417792 22.266341 16.487882 A 3.6853814 6.4476315 60.881023 0 1 22.886458 15.20269 C 22.769996 15.179867 22.649613 15.168066 22.526274 15.168066 L 2.7047445 15.168066 z " /><path
       id="rect31323"
       style="fill:#f2b70e;fill-opacity:1;stroke-width:0.722408;stroke-linecap:square;stroke-linejoin:round;stop-color:#000000"
       d="M 19.838066 12.85813 L 2.6205119 12.920142 C 1.6552882 13.739613 1.1274457 14.850689 0.60668132 15.966467 C 0.32476131 16.570503 0.58859829 16.863466 1.2247314 16.664616 C 8.7066733 14.325814 10.400337 18.126182 13.045715 20.917069 C 13.512591 21.409625 14.280424 21.340351 14.671456 20.786328 C 16.634784 18.004634 18.227544 14.652935 22.633761 15.622819 A 3.6853814 6.4476315 60.881023 0 1 23.112801 14.873511 A 3.1661001 6.445579 60.28913 0 1 20.10885 14.001213 A 3.1661001 6.445579 60.28913 0 1 19.838066 12.85813 z " /><path
       id="rect31234"
       style="display:inline;fill:#d50f18;fill-opacity:1;stroke:none;stroke-width:0.522479;stroke-linecap:square;stroke-linejoin:round;stroke-dasharray:none;stroke-opacity:1;stop-color:#000000"
       d="M 10.89856 10.813293 C 8.2074489 10.800408 5.5279786 10.99701 3.6111491 11.625647 C 1.7472399 12.362718 -0.2253151 14.651403 1.1932088 15.317928 C 2.5524507 15.913761 2.2979081 14.126335 3.2494141 14.115417 C 3.6957995 14.110317 3.1518772 15.301764 3.7718628 15.348417 C 4.5598967 15.407717 4.1239849 13.886087 4.9154622 13.91698 C 5.4486916 13.9378 5.0914851 14.717236 5.52111 14.935006 C 5.8344444 15.09383 6.3058699 15.093177 6.6848633 15.006836 C 7.4618125 14.82983 7.8540934 13.968009 8.7720744 13.841016 C 9.6900557 13.71402 10.212622 15.308342 11.025684 14.883846 C 13.249476 13.722814 13.58395 15.151923 14.255977 15.358236 C 14.95561 15.573021 15.787615 14.312273 16.104443 14.173295 C 16.630625 13.942484 17.003953 14.946246 17.805115 15.090552 C 19.699589 15.431786 19.173471 14.21688 19.952271 14.069425 C 20.016778 14.057212 20.08206 14.051486 20.147091 14.047721 A 3.1661001 6.445579 60.28913 0 1 20.10885 14.001213 A 3.1661001 6.445579 60.28913 0 1 20.278866 11.495939 C 18.5684 11.272218 14.733245 10.831655 10.89856 10.813293 z " /><path
       id="path42102"
       style="display:inline;fill:#c31821;fill-opacity:1;stroke:none;stroke-width:0.522479;stroke-linecap:square;stroke-linejoin:round;stroke-dasharray:none;stroke-opacity:1;stop-color:#000000"
       d="m 8.8573405,13.380062 c -0.027935,7.47e-4 -0.056579,0.0031 -0.085266,0.0072 -0.91798,0.131565 -1.3102626,1.023783 -2.0872111,1.207161 -0.378993,0.08946 -0.8504193,0.09065 -1.1637533,-0.0739 C 5.0914855,14.29495 5.4486918,13.487409 4.9154622,13.465845 4.1239857,13.433835 4.5598958,15.010394 3.7718628,14.948958 3.151878,14.900628 3.695799,13.666198 3.2494141,13.671517 2.2979091,13.682827 2.552966,15.534205 1.1937256,14.916919 0.93414499,14.790558 0.78823362,14.608083 0.7343221,14.389303 c -0.080301,0.395818 0.042312,0.732645 0.4594035,0.928625 1.3592404,0.595833 1.1041835,-1.191593 2.0556885,-1.202511 0.4463848,-0.0051 -0.097536,1.186864 0.5224487,1.233517 0.788033,0.0593 0.3521229,-1.462848 1.1435994,-1.431954 0.5332288,0.02082 0.1760233,0.800774 0.6056478,1.018542 0.313334,0.158824 0.7847603,0.157654 1.1637533,0.07131 0.7769485,-0.177005 1.1692311,-1.039344 2.0872111,-1.166337 0.9179801,-0.126996 1.4405486,1.467843 2.2536096,1.043347 2.22379,-1.16103 2.558267,0.268078 3.230293,0.47439 0.699633,0.214786 1.532154,-1.045963 1.848983,-1.184941 0.52618,-0.230811 0.898994,0.772951 1.700155,0.917257 1.894471,0.341234 1.368357,-0.873672 2.147156,-1.021127 0.06426,-0.01217 0.129006,-0.01845 0.193786,-0.02222 a 3.1661001,6.445579 60.28913 0 1 -0.03721,-0.04599 3.1661001,6.445579 60.28913 0 1 -0.181384,-0.371037 c -0.74169,0.175163 -0.249068,1.400667 -2.122351,1.051098 -0.801161,-0.1495 -1.173975,-1.188932 -1.700155,-0.949812 -0.316829,0.143981 -1.14935,1.449836 -1.848983,1.227315 -0.672026,-0.213741 -1.006503,-1.69428 -3.230293,-0.491443 -0.787652,0.426036 -1.302355,-1.11043 -2.1683435,-1.087272 z"
       sodipodi:insensitive="true" /><path
       id="path42028"
       style="display:inline;fill:#400507;fill-opacity:0.416667;fill-rule:evenodd;stroke-width:0.281468"
       d="M 10.394714 10.813293 C 7.8759171 10.826539 5.408175 11.035784 3.6111491 11.62513 C 2.922784 11.89734 2.2201768 12.3814 1.6784505 12.917041 C 2.2309254 13.553733 3.1705356 13.821754 4.0090576 13.738696 C 9.3281989 13.733158 14.647705 13.74706 19.96674 13.735596 A 3.1661001 6.445579 60.28913 0 1 20.280933 11.495939 C 18.561749 11.271553 14.720211 10.831593 10.89856 10.813293 C 10.730365 10.812488 10.562634 10.81241 10.394714 10.813293 z " /><path
       id="path31140"
       style="display:inline;fill:#f19a38;fill-opacity:1;fill-rule:evenodd;stroke-width:0.281468"
       d="M 12.7,3.0235881 C 9.1442558,3.0297403 5.3886456,4.1970512 2.9739787,6.9184408 1.8586181,8.2103141 1.0771999,9.9432502 1.2965617,11.673706 c 0.3555802,1.123458 1.6199838,1.609934 2.7124959,1.501717 5.2743614,-0.0055 10.5490944,0.0084 15.8233234,-0.0026 -0.04933,-0.710312 0.398729,-1.54393 1.06079,-2.421406 C 19.654846,10.74524 18.559084,10.307782 18.052128,9.5678914 17.183247,8.2956512 17.854785,6.3232858 19.694922,4.742863 17.570541,3.5632738 15.120172,3.0253163 12.7,3.0235881 Z"
       sodipodi:nodetypes="ccccccccc" /><path
       id="path40564"
       style="display:inline;fill:#d6661a;fill-opacity:0.745098;fill-rule:evenodd;stroke-width:0.270863"
       d="M 4.398956,7.0285548 C 3.2046554,8.1814575 2.0381455,9.6011834 2.1349626,11.114072 c 0.072297,0.915484 0.987023,1.517774 1.8303235,1.649104 0.7250017,0.08472 1.4588584,0.0015 2.1882192,0.02871 2.3636291,-0.0012 4.7272587,4.41e-4 7.0908877,0.0012 1.438266,4.83e-4 1.449489,-0.161716 0.02903,-0.387298 C 9.9390302,11.876288 6.8151802,11.038646 5.7264832,7.4500575 5.5020912,6.7104111 4.9557266,6.4910835 4.398956,7.0285548 Z"
       inkscape:path-effect="#path-effect40569"
       inkscape:original-d="M 5.4319958,6.0818686 C 4.0033464,7.3514662 2.0095685,9.154631 2.1349626,11.114072 c 0.072297,0.915484 0.987023,1.517774 1.8303235,1.649104 0.7250017,0.08472 1.4588584,0.0015 2.1882192,0.02871 3.2316997,-0.0016 6.4633997,0.002 9.6950987,0.0016 C 11.287862,12.063058 6.2424558,11.932107 5.4319958,6.0818686 Z"
       sodipodi:nodetypes="cccccc" /><path
       id="path39715"
       style="fill:#f7e27c;fill-opacity:1;fill-rule:evenodd;stroke-width:0.0624401"
       d="m 16.883767,9.2851251 c -0.518781,-0.062712 -0.728831,-0.6298922 -0.61723,-0.8230887 0.111603,-0.1931976 0.70787,-0.2946048 1.021375,0.1234601 l 0.308911,0.4119407 a 0.21942221,0.21942221 0 0 1 -0.201879,0.3494776 z"
       sodipodi:nodetypes="ssscs" /><path
       id="path39717"
       style="fill:#f7e27c;fill-opacity:1;fill-rule:evenodd;stroke-width:0.0624401"
       d="m 13.12537,9.8315226 c 0.305938,0.4236364 0.03182,0.9627804 -0.185824,1.0118874 -0.217644,0.04911 -0.696714,-0.320092 -0.602332,-0.834052 l 0.093,-0.5064303 a 0.21942221,0.21942221 0 0 1 0.393699,-0.088829 z"
       sodipodi:nodetypes="ssscs" /><path
       id="path39719"
       style="fill:#f7e27c;fill-opacity:1;fill-rule:evenodd;stroke-width:0.0624401"
       d="m 13.242733,7.0724104 c 0.522554,0.0018 0.797305,0.5406143 0.708991,0.745506 -0.08832,0.204892 -0.668688,0.3751318 -1.028802,-0.00353 L 12.568086,7.4412752 a 0.21942221,0.21942221 0 0 1 0.159752,-0.3706333 z"
       sodipodi:nodetypes="ssscs" /><path
       id="path39733"
       style="fill:#f7e27c;fill-opacity:1;fill-rule:evenodd;stroke-width:0.0624401"
       d="M 9.595253,8.224451 C 9.9215146,7.8162609 10.514367,7.9360272 10.619952,8.1325768 10.725535,8.3291274 10.498077,8.8895555 9.9776086,8.936222 L 9.4647684,8.9822044 A 0.21942221,0.21942221 0 0 1 9.273774,8.6266588 Z"
       sodipodi:nodetypes="ssscs" /><path
       id="path39735"
       style="fill:#f7e27c;fill-opacity:1;fill-rule:evenodd;stroke-width:0.0624401"
       d="m 3.5907017,10.739177 c 0.3262616,-0.408189 0.9191138,-0.288423 1.0246987,-0.09187 0.1055838,0.19655 -0.1218751,0.756978 -0.6423431,0.803644 L 3.460217,11.496931 A 0.21942221,0.21942221 0 0 1 3.2692227,11.141385 Z"
       sodipodi:nodetypes="ssscs" /><path
       id="path39737"
       style="fill:#f7e27c;fill-opacity:1;fill-rule:evenodd;stroke-width:0.0624401"
       d="M 4.2065531,7.9165253 C 4.5328147,7.5083351 5.1256669,7.6281015 5.2312518,7.8246509 5.3368356,8.0212014 5.1093767,8.5816296 4.5889087,8.628296 L 4.0760685,8.6742742 A 0.21942221,0.21942221 0 0 1 3.8850741,8.3187328 Z"
       sodipodi:nodetypes="ssscs" /><path
       id="path39741"
       style="fill:#f7e27c;fill-opacity:1;fill-rule:evenodd;stroke-width:0.0624401"
       d="m 16.010372,11.303709 c 0.326262,-0.408191 0.919114,-0.288424 1.024699,-0.09187 0.105584,0.196551 -0.121875,0.756979 -0.642343,0.803646 l -0.51284,0.04598 a 0.21942221,0.21942221 0 0 1 -0.190995,-0.355546 z"
       sodipodi:nodetypes="ssscs" /><path
       id="path39743"
       style="fill:#f7e27c;fill-opacity:1;fill-rule:evenodd;stroke-width:0.0624401"
       d="m 9.595253,11.201066 c 0.3262616,-0.40819 0.919114,-0.288424 1.024699,-0.09187 0.105583,0.196551 -0.121875,0.756979 -0.6423434,0.803645 l -0.5128402,0.04598 A 0.21942221,0.21942221 0 0 1 9.273774,11.603274 Z"
       sodipodi:nodetypes="ssscs" /><path
       id="path39723"
       style="fill:#f7e27c;fill-opacity:1;fill-rule:evenodd;stroke-width:0.0624401"
       d="M 7.8095285,6.7690239 C 7.7440189,7.2874584 7.1757099,7.4944425 6.9831186,7.3817995 6.7905268,7.2691559 6.6923408,6.6723504 7.1120929,6.3611069 L 7.5256944,6.0544251 a 0.21942221,0.21942221 0 0 1 0.3483828,0.2037625 z"
       sodipodi:nodetypes="ssscs" /><path
       id="path39725"
       style="fill:#f7e27c;fill-opacity:1;fill-rule:evenodd;stroke-width:0.0624401"
       d="M 6.7379015,10.565752 C 6.2870589,10.301542 6.3203779,9.6976328 6.4997167,9.5648961 6.6790476,9.4321605 7.2663478,9.5767151 7.3873304,10.085072 L 7.506541,10.58598 a 0.21942221,0.21942221 0 0 1 -0.3244026,0.240109 z"
       sodipodi:nodetypes="ssscs" /><path
       id="path39729"
       style="fill:#f7e27c;fill-opacity:1;fill-rule:evenodd;stroke-width:0.0624401"
       d="M 15.760833,5.6297899 C 15.295297,5.3924227 15.29321,4.7875978 15.464468,4.6445918 15.635726,4.5015857 16.23048,4.6115146 16.381011,5.1119191 l 0.148325,0.4930718 a 0.21942221,0.21942221 0 0 1 -0.309792,0.2586866 z"
       sodipodi:nodetypes="ssscs" /><path
       id="path39731"
       style="fill:#f7e27c;fill-opacity:1;fill-rule:evenodd;stroke-width:0.0624401"
       d="m 11.691137,4.784165 c 0.505114,0.1338855 0.634667,0.7246763 0.497408,0.9005735 -0.137259,0.1758973 -0.741822,0.1938284 -0.994467,-0.2635932 L 10.945135,4.9704266 a 0.21942221,0.21942221 0 0 1 0.24829,-0.3181843 z"
       sodipodi:nodetypes="ssscs" /></g></svg>
