<?xml version="1.0" encoding="UTF-8" standalone="no"?><!DOCTYPE svg PUBLIC "-//W3C//DTD SVG 1.1//EN" "http://www.w3.org/Graphics/SVG/1.1/DTD/svg11.dtd"><svg width="100%" height="100%" viewBox="0 0 1250 1438" version="1.1" xmlns="http://www.w3.org/2000/svg" xmlns:xlink="http://www.w3.org/1999/xlink" xml:space="preserve" xmlns:serif="http://www.serif.com/" style="fill-rule:evenodd;clip-rule:evenodd;stroke-miterlimit:10;"><g id="saint_patricks_v1"><path d="M1098.42,1436.71l-946.834,0c-83.156,0 -151.583,-68.427 -151.583,-151.583l0,-275l1250,0l0,275c0,83.156 -68.427,151.583 -151.583,151.583Z" style="fill:url(#_Linear1);fill-rule:nonzero;"/><rect x="443.961" y="1010.12" width="362.018" height="426.583" style="fill:#e0e0e0;"/><path d="M1250,338.292c0,-83.661 -67.922,-151.584 -151.583,-151.584l-946.834,0c-83.661,0 -151.583,67.923 -151.583,151.584l0,752.625c0,83.661 67.922,151.583 151.583,151.583l946.834,0c83.661,0 151.583,-67.922 151.583,-151.583l0,-752.625Z" style="fill:#ffcd05;"/><g><path d="M0,636.621l0,-298.329c0,-83.661 67.922,-151.584 151.583,-151.584l946.834,0c83.661,0 151.583,67.923 151.583,151.584l-0,298.329l-221.308,-264.772l-807.384,-0l-221.308,264.772Z" style="fill:#f26229;"/><path d="M534.64,367.049c-20.123,17.921 -27.214,40.496 -28.796,65.039c46.037,-2.16 84.538,-23.161 114.688,-65.039l60.074,107.737c49.035,-24.712 63.519,-62.498 63.55,-105.751l0,-20.491l-208.459,-0l-1.057,18.505Z" style="fill:#f26229;"/><path d="M937.205,356.632c16.533,26.373 40.506,48.283 74.657,64.086l1.982,-35.017c9.917,13.486 21.796,23.049 36.998,25.964l17.178,-16.714l0,-46.407l-130.815,8.088Z" style="fill:#f26229;"/><path d="M246.379,356.998c6.016,14.474 8.307,28.149 1.691,39.916l-28.076,-12.283c0.48,5.708 0.086,11.198 -3.045,16.004c-9.982,-3.091 -18.547,-10.433 -26.723,-18.943l24.355,-25.37l31.798,0.676Z" style="fill:#f26229;"/><path d="M541.98,368.188c-22.18,14.599 -47.389,27.253 -76.787,27.4c-2.227,-10.091 -0.817,-26.581 3.721,-39.266l73.743,-5.047l-0.677,16.913Z" style="fill:#f26229;"/><path d="M660.747,186.708c29.254,0.173 57.005,-7.169 82.876,-23.909c0.775,8.498 -1.198,16.539 -7.188,23.909c22.085,-7.695 43.033,-20.315 61.734,-42.671c6.406,15.67 8.681,30.386 0.423,42.671l-0,18.385l-528.896,-0l0,-18.385c-5.354,-4.393 -6.147,-11.375 -1.101,-20.849c9.568,9.288 14.727,10.869 24.7,13.229c-6.842,-8.064 -7.304,-17.629 1.558,-29.388c16.2,20.127 28.6,35.01 48.321,37.008" style="fill:#f26229;"/><path d="M1250,529.372l0,295.806c-2.934,5.2 -11.033,11.645 -22.484,11.952c-13.494,0.361 -33.096,-3.631 -36.613,-31.664c-1.885,-15.02 5.975,-26.5 5.975,-26.5c0,-0 -6.696,-0.922 -9.962,-3.874c-5.603,-5.065 -9.336,-10.934 -9.262,-20.672c0.083,-10.977 5.049,-20.554 10.048,-29.711c1.268,-2.322 5.378,-12.896 5.378,-12.896c0,-0 -14.556,-2.798 -14.517,-17.915c0.052,-19.765 16.394,-24.654 17.425,-67.944c0.759,-31.86 1.052,-64.525 -1.299,-96.582l55.311,0Z" style="fill:#f06227;"/><path d="M1184.17,550.647c-4.726,10.559 -5.192,22.757 -3.628,35.736l10.884,-4.898c-1.607,2.598 -1.72,5.685 0.725,12.516l13.968,-5.26l3.265,-29.024l-25.214,-9.07Z" style="fill:#f06227;"/><path d="M0,529.372l0,295.806c2.934,5.2 11.033,11.645 22.484,11.952c13.494,0.361 33.096,-3.631 36.613,-31.664c1.885,-15.02 -5.975,-26.5 -5.975,-26.5c-0,-0 6.696,-0.922 9.962,-3.874c5.603,-5.065 9.336,-10.934 9.262,-20.672c-0.083,-10.977 -5.049,-20.554 -10.048,-29.711c-1.268,-2.322 -5.378,-12.896 -5.378,-12.896c-0,-0 14.556,-2.798 14.517,-17.915c-0.052,-19.765 -16.394,-24.654 -17.425,-67.944c-0.759,-31.86 -1.052,-64.525 1.299,-96.582l-55.311,0Z" style="fill:#f06227;"/><path d="M65.833,550.647c4.726,10.559 5.192,22.757 3.628,35.736l-10.884,-4.898c1.607,2.598 1.72,5.685 -0.725,12.516l-13.968,-5.26l-3.265,-29.024l25.214,-9.07Z" style="fill:#f06227;"/></g><rect x="287.9" y="1143.15" width="652.927" height="99.345" style="fill:#e0e0e0;"/><path d="M443.947,1416.99l-0,-174.489l-56.721,-99.345l15.783,0l224.983,191.508l224.983,-191.508l9.799,0l-56.721,99.345l0,174.489l-0.074,0.001l-90.49,20.51l-77.875,-17.651l-12.644,-2.859l-0.007,0l-11.767,2.668l-78.738,17.842l-90.511,-20.511Z" style="fill:#1f614d;"/><path d="M624.97,1416.98l-0,0.013l-0.007,0l-11.767,2.668l-78.738,17.842l-90.511,-20.511l-0,-174.489l-56.721,-99.345l15.783,0l224.983,191.508l4.262,-0c2.577,-0 4.67,2.093 4.67,4.67l-0.004,72.974c0,2.577 -2.092,4.67 -4.67,4.67l-7.28,-0Z" style="fill:#37705f;"/><g><circle cx="604.567" cy="1373.59" r="30.118" style="fill:#1f614d;"/><circle cx="604.567" cy="1373.68" r="24.534" style="fill:#fabb13;"/><path d="M604.567,1346.12c15.208,0 27.554,12.347 27.554,27.554c0,15.208 -12.346,27.554 -27.554,27.554c-15.207,0 -27.554,-12.346 -27.554,-27.554c0,-15.207 12.347,-27.554 27.554,-27.554Zm0,6.04c-11.874,-0 -21.514,9.64 -21.514,21.514c-0,11.874 9.64,21.514 21.514,21.514c11.874,0 21.514,-9.64 21.514,-21.514c0,-11.874 -9.64,-21.514 -21.514,-21.514Z" style="fill:#d09700;"/><path d="M598.698,1363.97c2.346,-0 4.251,1.905 4.251,4.251c-0,2.346 -1.905,4.251 -4.251,4.251c-2.347,0 -4.251,-1.905 -4.251,-4.251c-0,-2.346 1.904,-4.251 4.251,-4.251Zm11.738,-0c2.347,-0 4.252,1.905 4.252,4.251c-0,2.346 -1.905,4.251 -4.252,4.251c-2.346,0 -4.251,-1.905 -4.251,-4.251c0,-2.346 1.905,-4.251 4.251,-4.251Zm-11.738,10.916c2.346,-0 4.251,1.905 4.251,4.251c-0,2.346 -1.905,4.251 -4.251,4.251c-2.347,0 -4.251,-1.905 -4.251,-4.251c-0,-2.346 1.904,-4.251 4.251,-4.251Zm11.738,-0c2.347,-0 4.252,1.905 4.252,4.251c-0,2.346 -1.905,4.251 -4.252,4.251c-2.346,0 -4.251,-1.905 -4.251,-4.251c0,-2.346 1.905,-4.251 4.251,-4.251Z" style="fill:#37705f;"/><path d="M598.698,1363.17c2.785,0 5.046,2.261 5.046,5.046c-0,2.785 -2.261,5.046 -5.046,5.046c-2.785,0 -5.046,-2.261 -5.046,-5.046c-0,-2.785 2.261,-5.046 5.046,-5.046Zm-0,1.59c-1.908,-0 -3.457,1.548 -3.457,3.456c0,1.908 1.549,3.457 3.457,3.457c1.907,-0 3.456,-1.549 3.456,-3.457c0,-1.908 -1.549,-3.456 -3.456,-3.456Zm11.738,-1.59c2.785,0 5.046,2.261 5.046,5.046c0,2.785 -2.261,5.046 -5.046,5.046c-2.784,0 -5.045,-2.261 -5.045,-5.046c-0,-2.785 2.261,-5.046 5.045,-5.046Zm0,1.59c-1.907,-0 -3.456,1.548 -3.456,3.456c0,1.908 1.549,3.457 3.456,3.457c1.908,-0 3.457,-1.549 3.457,-3.457c-0,-1.908 -1.549,-3.456 -3.457,-3.456Zm-11.738,9.326c2.785,0 5.046,2.261 5.046,5.046c-0,2.785 -2.261,5.046 -5.046,5.046c-2.785,-0 -5.046,-2.261 -5.046,-5.046c-0,-2.785 2.261,-5.046 5.046,-5.046Zm-0,1.59c-1.908,-0 -3.457,1.548 -3.457,3.456c0,1.908 1.549,3.457 3.457,3.457c1.907,-0 3.456,-1.549 3.456,-3.457c0,-1.908 -1.549,-3.456 -3.456,-3.456Zm11.738,-1.59c2.785,0 5.046,2.261 5.046,5.046c0,2.785 -2.261,5.046 -5.046,5.046c-2.784,-0 -5.045,-2.261 -5.045,-5.046c-0,-2.785 2.261,-5.046 5.045,-5.046Zm0,1.59c-1.907,-0 -3.456,1.548 -3.456,3.456c0,1.908 1.549,3.457 3.456,3.457c1.908,-0 3.457,-1.549 3.457,-3.457c-0,-1.908 -1.549,-3.456 -3.457,-3.456Z" style="fill:#d09700;"/><path d="M596.725,1370.5c-1.171,-1.104 -1.224,-2.952 -0.12,-4.123c1.105,-1.171 2.953,-1.224 4.123,-0.119l11.183,10.55c1.171,1.105 1.224,2.953 0.12,4.123c-1.105,1.171 -2.953,1.225 -4.123,0.12l-11.183,-10.551Z" style="fill:#2b5246;"/><path d="M600.899,1380.95c-1.183,1.092 -3.03,1.018 -4.122,-0.164c-1.092,-1.183 -1.018,-3.03 0.164,-4.122l11.294,-10.431c1.183,-1.092 3.03,-1.018 4.122,0.164c1.092,1.183 1.019,3.029 -0.164,4.122l-11.294,10.431Z" style="fill:#1f614d;"/></g><path d="M897.106,1143.7c-0.184,12.037 -6.475,23.464 -17.163,29.948l-102.742,62.334c-0.523,0.831 -1.084,1.655 -1.687,2.472c-13.061,17.717 -34.803,22.079 -55.01,17.313c-19.369,-4.568 -37.644,-15.606 -54.185,-27.439c-4.857,2.636 -10.366,4.249 -16.251,4.537l-44.572,2.18c-3.056,0.149 -6.047,-0.067 -8.925,-0.612c-15.228,13.316 -32.243,25.932 -50.951,32.33c-19.644,6.719 -41.707,4.505 -56.439,-11.849c-3.892,-4.319 -6.47,-9.002 -8.164,-13.946l-110.96,-67.32c-10.688,-6.484 -16.979,-17.911 -17.163,-29.948l544.212,-0Z" style="fill-opacity:0.15;"/><path d="M878.016,1143.15c0,5.685 -2.936,11.109 -7.977,14.168l-118.222,71.725c-5.282,3.205 -11.909,3.205 -17.191,0l-109.626,-66.51l-109.626,66.51c-5.282,3.205 -11.909,3.205 -17.191,0l-118.222,-71.725c-5.041,-3.059 -7.977,-8.483 -7.977,-14.168l506.032,0Z" style="fill:#fff;"/><g><path d="M649.06,1159.7c5.429,-6.958 10.702,-14.005 16.901,-20.31c4.686,-4.766 9.652,-9.216 15.048,-13.165c4.583,-3.354 9.466,-6.284 14.393,-9.1c3.723,-2.127 7.542,-4.152 11.473,-5.87c17.949,-7.842 48.088,-15.183 58.582,7.557c2.462,5.334 2.486,11.695 2.417,17.436c-0.159,13.394 -3.697,26.431 -4.69,39.749c-0.662,8.885 0.127,17.759 0.939,26.604c0.792,8.635 1.482,17.117 -3.977,24.521c-8.305,11.264 -22.412,13.09 -35.259,10.06c-21.749,-5.129 -41.721,-19.796 -59.259,-33.124c-9.025,-6.859 -29.324,-28.009 -16.568,-44.358Z" style="fill:#cb4e16;"/><path d="M607.326,1164.17c-6.084,-6.393 -12.021,-12.891 -18.807,-18.56c-5.13,-4.285 -10.507,-8.228 -16.263,-11.629c-4.89,-2.89 -10.035,-5.328 -15.215,-7.649c-3.912,-1.753 -7.911,-3.395 -11.991,-4.72c-18.631,-6.049 -49.342,-10.407 -57.563,13.25c-1.928,5.55 -1.329,11.883 -0.7,17.59c1.469,13.314 6.266,25.942 8.556,39.099c1.528,8.778 1.61,17.687 1.668,26.569c0.056,8.67 0.199,17.179 6.356,24.014c9.367,10.398 23.585,10.835 36.074,6.563c21.143,-7.232 39.584,-23.781 55.735,-38.761c8.311,-7.709 26.444,-30.743 12.15,-45.766Z" style="fill:#cb4e16;"/><path d="M603.295,1174.59c0.816,0.613 0.981,1.772 0.368,2.588c-0.612,0.817 -1.772,0.982 -2.588,0.369c-1.183,0.018 -1.666,0.399 -2.797,0.076c-0.302,-0.086 -0.528,-0.338 -0.787,-0.515c-7.925,-5.431 -15.801,-10.244 -24.005,-14.455c-4.605,-2.364 -9.31,-4.483 -14.073,-6.686c-4.745,-2.196 -9.356,-4.564 -14.414,-6.565c-0.615,-0.159 -0.986,-0.788 -0.827,-1.403c0.159,-0.615 0.788,-0.986 1.403,-0.827c5.54,0.718 10.831,1.466 16.004,2.906c5.29,1.473 10.312,3.554 15.21,5.862c8.716,4.108 17,9.186 24.961,15.302c0.258,0.198 0.579,0.341 0.758,0.613c0.659,0.998 0.468,1.574 0.787,2.735Z" style="fill:#a93704;"/><path d="M599.162,1178.97c0.628,-0.235 1.328,0.085 1.563,0.713c0.234,0.628 -0.086,1.328 -0.714,1.563c-0.093,1.212 0.124,0.338 -0.121,1.53c-0.163,0.796 0.058,0.864 -0.5,1.454c-0.248,0.263 -0.668,0.273 -1.004,0.406c-3.352,1.325 -6.716,2.607 -10.103,3.827c-4.124,1.486 -8.249,2.97 -12.416,4.327c-2.773,0.903 -5.55,1.747 -8.353,2.553c-0.908,0.26 -1.793,0.554 -2.724,0.712c-2.35,0.397 -4.444,0.336 -6.82,0.566c-0.572,0.237 -1.23,-0.036 -1.467,-0.608c-0.237,-0.573 0.035,-1.231 0.608,-1.468c1.906,-1.558 3.443,-3.097 5.529,-4.398c2.252,-1.405 4.733,-2.344 7.169,-3.392c2.416,-1.039 4.874,-1.967 7.344,-2.869c6.297,-2.3 12.632,-4.496 19.015,-6.581c0.212,-0.069 0.419,-0.218 0.641,-0.19c0.805,0.105 0.65,0.289 1.29,0.79c0.947,0.743 0.21,0.215 1.063,1.065Z" style="fill:#a93704;"/><path d="M630.537,1188.31c-0.252,0.25 -0.66,0.247 -0.91,-0.005c-0.25,-0.253 -0.248,-0.66 0.005,-0.91c-0.514,-1.418 -0.934,-0.308 -0.633,-1.785c0.214,-1.056 1.455,-1.583 2.212,-2.349c2.555,-2.582 5.252,-5.013 8.047,-7.325c6.51,-5.388 13.559,-10.114 20.897,-14.333c3.481,-2.002 7.023,-3.91 10.663,-5.614c3.635,-1.702 7.351,-3.214 11.109,-4.613c2.506,-0.933 5.009,-1.848 7.57,-2.598c2.581,-0.756 5.165,-1.319 7.78,-1.912c0.579,-0.199 1.211,0.111 1.41,0.691c0.199,0.579 -0.111,1.211 -0.691,1.41c-2.397,1.12 -4.705,2.332 -7.102,3.473c-2.362,1.124 -4.747,2.181 -7.113,3.31c-3.527,1.685 -7.001,3.468 -10.47,5.278c-3.455,1.803 -6.9,3.625 -10.271,5.576c-7.073,4.094 -13.839,8.68 -20.273,13.699c-2.756,2.15 -5.451,4.371 -8.103,6.657c-0.786,0.679 -1.341,1.841 -2.365,2.025c-1.479,0.266 -0.355,-0.147 -1.762,-0.675Z" style="fill:#a93704;"/><path d="M630.215,1184.89c-0.968,0.072 -1.814,-0.656 -1.886,-1.624c-0.072,-0.969 0.656,-1.814 1.625,-1.887c0.117,-0.239 -0.007,-0.17 0.178,-0.362c0.227,-0.234 0.48,-0.323 0.792,-0.417c0.328,-0.098 0.681,-0.067 1.022,-0.095c6.184,-0.52 12.359,-0.723 18.518,-0.537c6.879,0.207 13.734,0.95 20.573,2.276c2.988,0.619 5.954,1.326 8.871,2.205c2.89,0.871 5.742,1.852 8.564,2.93c1.5,0.572 3.001,1.113 4.448,1.808c2.233,1.075 4.206,2.346 6.378,3.533c0.229,0.072 0.356,0.316 0.284,0.545c-0.072,0.229 -0.317,0.357 -0.546,0.285c-2.464,-0.273 -4.803,-0.441 -7.253,-0.843c-0.594,-0.098 -1.172,-0.231 -1.758,-0.37c-3.366,-0.803 -6.695,-1.702 -10.052,-2.533c-3.307,-0.819 -6.609,-1.652 -9.967,-2.255c-5.241,-1.017 -10.493,-1.643 -15.757,-1.986c-4.298,-0.281 -8.605,-0.343 -12.922,-0.305c-2.879,0.026 -5.762,0.097 -8.653,0.207c-0.482,0.018 -0.969,0.125 -1.445,0.048c-0.307,-0.05 -0.551,-0.106 -0.796,-0.298c-0.206,-0.162 -0.071,-0.107 -0.218,-0.325Z" style="fill:#a93704;"/><path d="M665.268,1156.15c-0.51,-10.435 -9.397,-18.493 -19.832,-17.982l-44.571,2.18c-10.435,0.51 -18.493,9.396 -17.982,19.831l1.849,37.814c0.51,10.435 9.397,18.493 19.832,17.982l44.571,-2.179c10.435,-0.511 18.493,-9.397 17.982,-19.832l-1.849,-37.814Z" style="fill:#f26222;"/></g><path d="M443.961,1436.71l-0.014,-194.208l-65.159,-132.561l-378.788,-41.212l0,-11.277c0.405,-0 0.813,0.022 1.22,0.066l378.788,41.212c3.839,0.418 7.197,2.771 8.9,6.236l65.159,132.562c0.761,1.547 1.157,3.249 1.157,4.973l0.013,194.209l-11.276,0Zm350.741,0c0,-0.001 0,-0.003 0,-0.004l0.074,-194.208c0.001,-1.724 0.397,-3.424 1.157,-4.97l65.159,-132.562c1.703,-3.465 5.061,-5.818 8.9,-6.236l378.788,-41.212c0.407,-0.044 0.815,-0.066 1.22,-0.066l0,11.277l-378.788,41.212l-65.159,132.561l-0.074,194.208l-11.277,0Z" style="fill-opacity:0.15;"/><path d="M378.788,1109.94l-378.788,-41.212l0,22.19c0,83.661 67.922,151.583 151.583,151.583l292.364,-0l-65.159,-132.561Zm492.424,-0l-65.159,132.561l292.364,-0c83.661,-0 151.583,-67.922 151.583,-151.583l0,-22.19l-378.788,41.212Z" style="fill:#3bb54a;"/><g><path d="M362.564,1108.17c-6.077,15.302 -27.442,69.116 -29.745,75.139c-6.17,16.134 0.521,30.778 13.865,36.732c1.555,0.694 14.159,5.824 29.562,12.066c-5.559,13.238 -10.276,24.521 -11.65,27.947c-2.578,6.429 -3.572,12.724 -2.365,19.476c1.073,5.997 3.962,12.643 10.509,20.108c6.391,7.288 60.257,59.575 60.257,59.575c2.992,2.902 6.939,4.437 10.95,4.438l-0,-121.155l-65.159,-132.561l-16.224,-1.765Z" style="fill:#336b39;fill-opacity:0.25;"/><path d="M384.566,1289.27c6.296,7.179 59.381,58.654 59.381,58.654l-0,-105.424l-29.622,-60.263c0,0 -31.214,73.913 -35.129,83.677c-2.879,7.177 -2.858,13.974 5.37,23.356Z" style="fill:#77d365;"/><path d="M443.947,1242.5l-29.622,-60.263c0,0 -12.817,30.351 -23.055,54.724l52.677,5.539Z" style="fill:#70c760;"/><path d="M353.094,1205.68c4.221,1.883 90.853,36.82 90.853,36.82l-65.159,-132.561c-0,-0 -28.594,71.978 -31.277,78.993c-2.774,7.255 -0.418,14.071 5.583,16.748Z" style="fill:#77d365;"/></g><g><path d="M887.436,1108.17c6.077,15.302 27.442,69.116 29.745,75.139c6.17,16.134 -0.521,30.778 -13.865,36.732c-1.555,0.694 -14.159,5.824 -29.562,12.066c5.559,13.238 10.276,24.521 11.65,27.947c2.578,6.429 3.572,12.724 2.365,19.476c-1.073,5.997 -3.962,12.643 -10.509,20.108c-6.391,7.288 -60.257,59.575 -60.257,59.575c-2.992,2.902 -6.939,4.437 -10.95,4.438l0,-121.155l65.159,-132.561l16.224,-1.765Z" style="fill:#336b39;fill-opacity:0.25;"/><path d="M865.434,1289.27c-6.296,7.179 -59.381,58.654 -59.381,58.654l0,-105.424l29.622,-60.263c-0,0 31.214,73.913 35.129,83.677c2.879,7.177 2.858,13.974 -5.37,23.356Z" style="fill:#77d365;"/><path d="M806.053,1242.5l29.622,-60.263c-0,0 12.817,30.351 23.055,54.724l-52.677,5.539Z" style="fill:#70c760;"/><path d="M896.906,1205.68c-4.221,1.883 -90.853,36.82 -90.853,36.82l65.159,-132.561c0,-0 28.594,71.978 31.277,78.993c2.774,7.255 0.418,14.071 -5.583,16.748Z" style="fill:#77d365;"/></g><g id="name"><path d="M1179.72,1130.01c-0.98,-8.366 -8.572,-14.4 -16.943,-13.466l-217.645,24.272c-8.371,0.933 -14.372,8.483 -13.392,16.849l5.326,45.473c0.98,8.366 8.572,14.4 16.943,13.467l217.646,-24.272c8.371,-0.934 14.371,-8.483 13.391,-16.849l-5.326,-45.474Z" style="fill:#3d9147;"/><path d="M1178.85,1122.54c-0.98,-8.366 -8.571,-14.4 -16.942,-13.466l-217.646,24.271c-8.371,0.934 -14.372,8.484 -13.392,16.85l5.326,45.473c0.98,8.366 8.572,14.4 16.943,13.466l217.646,-24.271c8.371,-0.934 14.371,-8.484 13.391,-16.849l-5.326,-45.474Z" style="fill:#fff;"/><path d="M1175.07,1125.53c-0.882,-7.527 -7.861,-12.94 -15.574,-12.08l-211.726,23.612c-7.714,0.86 -13.261,7.669 -12.379,15.196l4.792,40.914c0.882,7.527 7.86,12.94 15.574,12.079l211.725,-23.611c7.714,-0.86 13.261,-7.67 12.38,-15.197l-4.792,-40.913Zm-3.828,0.426l4.792,40.914c0.641,5.466 -3.387,10.411 -8.989,11.035c0,0 -211.725,23.612 -211.725,23.612c-5.602,0.624 -10.669,-3.306 -11.309,-8.772c-0,0 -4.793,-40.914 -4.793,-40.914c-0.64,-5.465 3.388,-10.41 8.99,-11.035c-0,0 211.725,-23.611 211.725,-23.611c5.602,-0.625 10.669,3.306 11.309,8.771Z" style="fill:#cb4e16;"/><g transform="matrix(0.993983,-0.109538,0.109538,0.993983,-13.8042,-5.55329)"><g transform="matrix(50,0,0,50,992.059,1291.35)"></g><text x="879.909px" y="1291.35px" style="font-family:'Nunito-Regular', 'Nunito';font-size:50px;">Mark</text></g></g><g><path d="M526.042,1028.23c67.679,31.573 133.547,29.66 197.916,0" style="fill:none;fill-rule:nonzero;stroke:#cd8e2a;stroke-width:37.46px;"/><ellipse cx="1131.79" cy="956.689" rx="73.292" ry="57.792" style="fill:url(#_Linear2);"/><ellipse cx="118.208" cy="956.689" rx="73.292" ry="57.792" style="fill:url(#_Linear3);"/></g><g><circle cx="1010.75" cy="787.689" r="151.875" style="fill:#fabc2e;"/><circle cx="239.25" cy="787.689" r="151.875" style="fill:#fabc2e;"/><circle cx="1010.75" cy="829.856" r="151.875" style="fill:#fff;"/><circle cx="239.25" cy="829.856" r="151.875" style="fill:#fff;"/><path d="M371.583,807.814c-9.943,8.434 -22.566,13.067 -35.604,13.067c-30.195,0 -55.042,-24.847 -55.042,-55.042c0,-11.747 3.761,-23.192 10.73,-32.65c-4.543,-0.657 -9.127,-0.986 -13.718,-0.986c-52.572,-0 -95.833,43.26 -95.833,95.833c0,52.573 43.261,95.833 95.833,95.833c52.573,0 95.834,-43.26 95.834,-95.833c-0,-6.798 -0.724,-13.577 -2.158,-20.222l-0.042,0Zm-133.333,82.334c-0.014,-0 -0.028,-0 -0.042,-0c-12.48,-0 -22.75,-10.27 -22.75,-22.75c0,-12.48 10.27,-22.75 22.75,-22.75c12.481,-0 22.75,10.269 22.75,22.75c0,0.014 0,0.028 0,0.042c0,12.457 -10.251,22.708 -22.708,22.708c-0.056,0 -0.111,0 -0.167,-0l0.167,-0Z" style="fill:#414042;fill-rule:nonzero;"/><path d="M1065.12,807.273c-9.601,7.333 -21.354,11.308 -33.436,11.308c-30.217,0 -55.083,-24.865 -55.083,-55.083c0,-10.756 3.151,-21.28 9.061,-30.267c-4.583,-0.65 -9.205,-0.984 -13.834,-1c-0.083,-0 -0.166,-0 -0.25,-0c-52.572,-0 -95.833,43.26 -95.833,95.833c0,52.573 43.261,95.833 95.833,95.833c52.573,0 95.834,-43.26 95.834,-95.833c-0,-7.007 -0.769,-13.993 -2.292,-20.833l-0,0.042Zm-134.25,82.875c-12.48,-0 -22.75,-10.27 -22.75,-22.75c-0,-12.481 10.27,-22.75 22.75,-22.75c12.48,-0 22.75,10.269 22.75,22.75c0,0.014 0,0.028 0,0.041c0,12.458 -10.251,22.709 -22.708,22.709c-0.014,-0 -0.028,-0 -0.042,-0Z" style="fill:#414042;fill-rule:nonzero;"/><path d="M282.774,610.734c-27.64,5.619 -70.41,15.471 -103.141,12.765c-20.59,-1.702 -37.433,-16.773 -37.433,-37.433c-0,-19.792 15.394,-36.017 34.852,-37.345c7.642,-17.663 25.231,-30.034 45.687,-30.034c0.882,-0 1.759,0.023 2.63,0.068c8.658,-14.668 24.627,-24.516 42.878,-24.516c10.688,-0 20.594,3.378 28.707,9.123c6.464,-3.073 13.692,-4.793 21.32,-4.793c27.46,-0 49.754,22.294 49.754,49.753c-0,0.778 -0.018,1.552 -0.054,2.321c1.638,29.013 -35.551,49.998 -85.2,60.091Z" style="fill:#f06227;"/><path d="M967.226,610.734c27.64,5.619 70.41,15.471 103.141,12.765c20.59,-1.702 37.433,-16.773 37.433,-37.433c0,-19.792 -15.394,-36.017 -34.852,-37.345c-7.642,-17.663 -25.231,-30.034 -45.687,-30.034c-0.882,-0 -1.759,0.023 -2.63,0.068c-8.658,-14.668 -24.627,-24.516 -42.878,-24.516c-10.688,-0 -20.594,3.378 -28.707,9.123c-6.464,-3.073 -13.692,-4.793 -21.32,-4.793c-27.46,-0 -49.754,22.294 -49.754,49.753c0,0.778 0.018,1.552 0.054,2.321c-1.638,29.013 35.551,49.998 85.2,60.091Z" style="fill:#f06227;"/></g><g id="hat"><path d="M657.753,186.708l-287.81,0l0,-42.803c0,-79.423 64.482,-143.905 143.905,-143.905c79.423,0 143.905,64.482 143.905,143.905l-0,42.803Z" style="fill:#4fbb3b;"/><path d="M412.84,52.452c3.137,3.507 5.103,7.656 6.942,11.954c3.293,7.695 5.434,15.906 6.669,24.176c1.113,7.45 1.206,14.928 2.962,22.303" style="fill:none;stroke:#018f35;stroke-width:3.58px;stroke-linecap:square;stroke-linejoin:round;stroke-miterlimit:1.5;"/><path d="M369.832,82.159c3.736,-1.061 7.755,-1.359 11.619,-1.485c4.006,-0.131 8.05,-0.177 12.012,0.529c3.512,0.625 6.731,2.001 9.98,3.417c4.302,1.876 8.534,4.009 12.03,7.196c4.775,4.353 8.537,10.233 10.931,16.193" style="fill:none;stroke:#018f35;stroke-width:3.58px;stroke-linecap:square;stroke-linejoin:round;stroke-miterlimit:1.5;"/><path d="M648.609,93.354c5.911,15.73 9.144,32.766 9.144,50.551l-0,42.803l-287.81,0l0,-42.803c0,-17.785 3.234,-34.821 9.144,-50.551l269.522,0Z" style="fill:#148d01;"/><path d="M559.55,151.134c32.627,-1.14 65.361,-3.499 98.203,-7.097l-0,42.671l-287.81,0l0,-42.671c25.653,2.821 51.372,4.892 77.157,6.204l0.146,-50.307l-70.45,-0c0.712,-2.217 1.476,-4.411 2.291,-6.58l269.522,0c0.815,2.169 1.579,4.363 2.291,6.58l-91.35,-0l-0,51.2Zm-15.077,-16.714l0,-25.186c-0.038,-4.387 -0.665,-7.303 -1.659,-9.3l-82.879,-0l-0,50.897c27.556,1.131 55.188,1.396 82.898,0.781c1.051,-2.327 1.546,-4.987 1.64,-7.887l-35.68,0l-0,-9.305l35.68,-0Z" style="fill:#118000;"/><circle cx="508.793" cy="128.624" r="15.015" style="fill:#0f7300;"/><path d="M572.053,106.143l-0,44.961c-0,17.839 -14.484,32.323 -32.323,32.323l-51.763,0c-17.84,0 -32.324,-14.484 -32.324,-32.323l0,-44.961c0,-17.839 14.484,-32.323 32.324,-32.323l51.763,-0c17.839,-0 32.323,14.484 32.323,32.323Zm-19.687,0c0,-6.974 -5.662,-12.636 -12.636,-12.636l-51.763,-0c-6.975,-0 -12.637,5.662 -12.637,12.636l-0,44.961c-0,6.974 5.662,12.637 12.637,12.637l51.763,-0c6.974,-0 12.636,-5.663 12.636,-12.637l0,-44.961Z" style="fill:#fbcf18;"/><path d="M572.053,106.143l-0,44.961c-0,17.839 -14.484,32.323 -32.323,32.323l-51.763,0c-17.84,0 -32.324,-14.484 -32.324,-32.323l0,-44.961c0,-17.839 14.484,-32.323 32.324,-32.323l51.763,-0c17.839,-0 32.323,14.484 32.323,32.323Zm-9.533,3.682c0,-14.918 -12.111,-27.029 -27.029,-27.029l-43.285,-0c-14.918,-0 -27.03,12.111 -27.03,27.029l0,37.597c0,14.918 12.112,27.029 27.03,27.029l43.285,0c14.918,0 27.029,-12.111 27.029,-27.029l0,-37.597Z" style="fill:#ffda40;"/><path d="M559.55,125.186c-0,-5.045 -4.096,-9.141 -9.141,-9.141l-39.611,-0c-5.045,-0 -9.141,4.096 -9.141,9.141l-0,6.875c-0,5.045 4.096,9.141 9.141,9.141l39.611,0c5.045,0 9.141,-4.096 9.141,-9.141l-0,-6.875Z" style="fill:#fbcf18;"/><path d="M556.935,122.976c-0,-2.648 -2.15,-4.797 -4.797,-4.797l-41.029,0c-2.648,0 -4.797,2.149 -4.797,4.797l0,3.608c0,2.647 2.149,4.796 4.797,4.796l41.029,0c2.647,0 4.797,-2.149 4.797,-4.796l-0,-3.608Z" style="fill:#ffda40;"/><path d="M400.262,55.581c0.174,2.284 -0.122,4.724 -0.919,7.203c5.812,0.696 10.388,3.612 12.668,7.869c3.023,5.644 2.365,14.362 -3.727,19.807c3.263,7.493 0.222,15.69 -4.881,19.557c-3.851,2.918 -9.242,3.749 -14.783,1.98c-0.713,5.762 -3.636,10.278 -7.885,12.554c-2.75,1.472 -6.229,2.071 -9.705,1.594c3.255,-26.392 13.667,-50.582 29.232,-70.564Zm-18.097,47.332c0.119,-0.393 0.248,-0.802 0.386,-1.211c-0.684,-0.649 -1.254,-1.219 -1.254,-1.219c0,0 0.483,1.213 0.868,2.43Z" style="fill:#017129;fill-opacity:0.25;"/><g id="_4-clover" serif:id="4 clover"><path d="M359.845,67.023c-1.176,-1.834 -2.455,-3.43 -3.823,-4.619c-5.912,-5.45 -12.692,-6.933 -16.949,-3.706c-4.258,3.226 -5.993,11.161 0.214,16.676c-7.942,2.42 -9.677,10.356 -7.155,15.064c2.522,4.709 9.302,6.192 16.949,3.706c0.91,-0.266 1.845,-0.644 2.792,-1.112c0.863,-0.427 1.737,-0.929 2.612,-1.49c-1.835,1.177 -3.432,2.456 -4.62,3.825c-5.45,5.911 -6.933,12.691 -3.707,16.948c3.227,4.258 11.162,5.993 16.676,-0.214c2.421,7.942 10.356,9.677 15.065,7.155c4.709,-2.522 6.191,-9.302 3.706,-16.949c-0.509,-1.74 -1.426,-3.569 -2.602,-5.404c1.176,1.835 2.455,3.432 3.824,4.621c5.912,5.45 12.691,6.932 16.949,3.706c4.257,-3.227 5.992,-11.162 -0.214,-16.676c7.941,-2.421 9.677,-10.356 7.154,-15.065c-2.522,-4.709 -9.301,-6.191 -16.948,-3.706c-0.911,0.266 -1.845,0.644 -2.792,1.113c-0.863,0.426 -1.737,0.928 -2.612,1.489c1.835,-1.176 3.431,-2.455 4.62,-3.824c5.45,-5.912 6.932,-12.691 3.706,-16.949c-3.226,-4.257 -11.161,-5.992 -16.676,0.214c-2.42,-7.941 -10.355,-9.676 -15.064,-7.154c-4.709,2.522 -6.192,9.301 -3.706,16.949c0.509,1.739 1.425,3.568 2.601,5.402Z" style="fill:#68af23;"/><path d="M375.655,77.969c-0,0 7.719,-5.985 10.217,-8.955c4.557,-5.109 5.831,-10.936 3.186,-14.567c-2.646,-3.631 -9.212,-5.067 -13.824,0.295c-1.953,-6.797 -8.519,-8.233 -12.438,-6.037c-3.92,2.195 -5.194,8.022 -3.186,14.566c1.042,3.78 5.82,12.462 5.82,12.462c-0,0 -5.782,-8.051 -8.773,-10.568c-5.109,-4.557 -10.936,-5.831 -14.567,-3.185c-3.631,2.646 -5.067,9.211 0.295,13.823c-6.797,1.953 -8.233,8.519 -6.038,12.439c2.196,3.92 8.023,5.194 14.567,3.185c3.701,-1.02 12.28,-5.469 12.28,-5.469c-0,0 -7.757,5.763 -10.217,8.687c-4.557,5.109 -5.831,10.936 -3.185,14.567c2.646,3.631 9.211,5.067 13.824,-0.295c1.953,6.797 8.518,8.233 12.438,6.037c3.92,-2.195 5.194,-8.022 3.185,-14.566c-1.021,-3.708 -5.82,-12.194 -5.82,-12.194c-0,0 5.823,7.817 8.774,10.3c5.109,4.557 10.936,5.831 14.567,3.185c3.631,-2.646 5.067,-9.211 -0.295,-13.823c6.797,-1.954 8.233,-8.519 6.037,-12.439c-2.195,-3.92 -8.022,-5.194 -14.566,-3.185c-3.724,1.026 -12.281,5.737 -12.281,5.737Z" style="fill:#6fbe22;"/><path d="M369.363,81.869l-26.978,-6.066c-6.797,1.953 -8.233,8.519 -6.038,12.439c2.196,3.92 8.023,5.194 14.567,3.185c2.919,-0.804 8.869,-3.74 11.256,-4.946l1.024,-0.523c2.088,-1.314 4.149,-2.67 6.169,-4.089Zm-5.747,27.048c1.953,6.797 8.518,8.233 12.438,6.037c3.92,-2.195 5.194,-8.022 3.185,-14.566c-1.021,-3.708 -5.82,-12.194 -5.82,-12.194l-4.056,-6.325l-5.747,27.048Zm5.747,-27.048l5.871,-27.127c-1.953,-6.797 -8.519,-8.233 -12.438,-6.037c-3.92,2.195 -5.194,8.022 -3.186,14.566c1.042,3.78 5.82,12.462 5.82,12.462l3.933,6.136Zm0,-0l27.102,5.987c6.797,-1.954 8.233,-8.519 6.037,-12.439c-2.195,-3.92 -8.022,-5.194 -14.566,-3.185c-3.724,1.026 -12.281,5.737 -12.281,5.737l-6.292,3.9Z" style="fill:#79c82c;"/><path d="M383.997,103.015c5.598,4.71 11.967,5.565 16.001,2.508c4.293,-3.253 6.134,-11.137 0.272,-16.814c7.696,-2.713 9.314,-10.645 6.771,-15.393c-2.59,-4.835 -9.532,-6.434 -17.377,-3.886c-0.504,0.147 -1.015,0.328 -1.531,0.539c0.406,-0.38 0.782,-0.768 1.125,-1.163c5.593,-6.069 7.038,-13.045 3.725,-17.416c-3.253,-4.293 -11.136,-6.134 -16.814,-0.272c-2.713,-7.696 -10.645,-9.314 -15.393,-6.771c-4.834,2.59 -6.434,9.532 -3.884,17.382c0.147,0.502 0.327,1.011 0.537,1.526c-0.38,-0.406 -0.767,-0.782 -1.162,-1.125c-6.07,-5.593 -13.046,-7.038 -17.416,-3.725c-4.293,3.253 -6.134,11.136 -0.272,16.814c-7.697,2.713 -9.314,10.645 -6.771,15.393c2.589,4.834 9.531,6.434 17.382,3.884c0.502,-0.147 1.011,-0.327 1.526,-0.537c-0.407,0.381 -0.785,0.77 -1.129,1.166c-5.59,6.066 -7.034,13.042 -3.722,17.413c3.253,4.292 11.137,6.133 16.814,0.271c2.713,7.697 10.645,9.314 15.394,6.771c4.495,-2.408 6.21,-8.584 4.359,-15.745c-0.371,-1.434 -1.135,-3.352 -1.135,-3.352c0,0 1.646,1.645 2.7,2.532Zm-3.808,-3.463c0.445,0.976 0.794,1.941 1.063,2.858c0.001,0.004 0.002,0.007 0.003,0.011c2.419,7.442 1.053,14.056 -3.53,16.511c-4.548,2.436 -12.201,0.733 -14.539,-6.938c-0.039,-0.127 -0.143,-0.224 -0.273,-0.252c-0.13,-0.028 -0.265,0.016 -0.354,0.115c-5.326,5.995 -12.991,4.349 -16.107,0.236c-3.14,-4.143 -1.621,-10.724 3.683,-16.477c0.002,-0.003 0.005,-0.005 0.007,-0.008c0.609,-0.701 1.327,-1.377 2.13,-2.028c0.738,-0.598 1.523,-1.195 2.357,-1.828c0.403,-0.306 2.695,-2.03 2.695,-2.03c0,-0 -2.474,1.399 -2.95,1.647c-1.901,0.988 -3.687,1.922 -5.396,2.422c-0.004,0.001 -0.007,0.003 -0.011,0.004c-7.442,2.418 -14.056,1.052 -16.51,-3.53c-2.437,-4.549 -0.734,-12.201 6.937,-14.539c0.127,-0.039 0.224,-0.144 0.252,-0.274c0.029,-0.13 -0.015,-0.265 -0.115,-0.353c-5.995,-5.327 -4.348,-12.991 -0.236,-16.108c4.143,-3.14 10.724,-1.62 16.477,3.684c0.003,0.002 0.006,0.004 0.008,0.007c1.345,1.168 2.548,2.78 3.852,4.479c0.749,0.976 2.302,3.12 2.214,2.983c0.088,0.137 -1.212,-2.169 -1.787,-3.258c-1,-1.893 -1.962,-3.66 -2.462,-5.369c-0.001,-0.003 -0.002,-0.007 -0.004,-0.01c-2.418,-7.442 -1.052,-14.056 3.53,-16.511c4.549,-2.436 12.201,-0.734 14.539,6.938c0.039,0.127 0.144,0.223 0.274,0.252c0.13,0.028 0.265,-0.016 0.353,-0.115c5.327,-5.995 12.991,-4.349 16.108,-0.237c3.14,4.144 1.62,10.724 -3.683,16.478c-0.003,0.002 -0.005,0.005 -0.008,0.008c-1.168,1.344 -2.762,2.578 -4.453,3.892c-0.425,0.33 -2.729,1.994 -2.729,1.994c0,-0 2.524,-1.363 2.97,-1.602c0.923,-0.494 1.793,-0.958 2.645,-1.379c0.927,-0.458 1.841,-0.828 2.732,-1.089c0.003,-0.001 0.007,-0.002 0.01,-0.003c7.442,-2.418 14.057,-1.053 16.511,3.53c2.436,4.548 0.734,12.201 -6.937,14.539c-0.128,0.039 -0.224,0.143 -0.253,0.273c-0.028,0.13 0.016,0.265 0.115,0.354c5.996,5.326 4.349,12.991 0.237,16.107c-4.144,3.14 -10.724,1.621 -16.478,-3.683c-0.002,-0.002 -0.005,-0.005 -0.008,-0.007c-0.703,-0.611 -1.415,-1.31 -2.099,-2.096c-0.612,-0.805 -1.296,-1.727 -2.071,-2.803c-0.295,-0.409 -2.521,-3.539 -2.521,-3.539c-0,0 1.915,3.33 2.164,3.768c0.595,1.05 1.147,2.049 1.648,2.976Z" style="fill:#018f35;"/></g><path d="M434.241,24.035c2.339,2.319 3.961,5.599 3.938,9.418c6.561,1.602 10.24,7.786 10.008,12.998c-0.181,4.093 -2.78,7.953 -7.199,10.438c3.685,3.485 5.267,7.859 4.449,11.871c-1.042,5.113 -6.113,10.218 -12.865,10.177c-1.602,6.561 -7.786,10.24 -12.999,10.009c-4.091,-0.182 -8.017,-2.726 -10.487,-7.117c-3.47,3.644 -7.817,5.182 -11.822,4.366c-4.556,-0.929 -9.108,-5.058 -10.014,-10.726c1.046,-1.929 2.134,-3.831 3.264,-5.706c-6.069,0.009 -9.67,-5.019 -9.482,-9.256c0.203,-4.598 4.875,-8.329 11.736,-9.25c0.435,-0.071 0.887,-0.12 1.355,-0.148c-0.445,-0.14 -0.871,-0.297 -1.274,-0.471c-6.436,-2.562 -10.062,-7.315 -9.143,-11.825c0.903,-4.429 6.2,-8.685 12.624,-6.311c-0.742,-6.808 4.672,-10.912 9.188,-10.712c4.598,0.204 8.329,4.875 9.25,11.741c0.071,0.433 0.12,0.883 0.148,1.349c0.14,-0.445 0.297,-0.87 0.471,-1.273c2.561,-6.436 7.315,-10.062 11.825,-9.142c1.303,0.265 2.591,0.911 3.7,1.855c1.098,-0.777 2.208,-1.538 3.329,-2.285Zm-24.856,50.288l0.989,1.348c-0,0 0.15,-0.337 0.392,-0.842l-0.006,-0.032c-0.205,-1.138 -0.386,-3.082 -0.386,-3.082c-0,-0 -0.485,1.494 -0.989,2.608Z" style="fill:#017129;fill-opacity:0.25;"/><g id="_4-clover1" serif:id="4 clover"><path d="M414.456,38.609c0.224,-1.815 0.253,-3.532 0.007,-5.033c-0.897,-6.688 -4.48,-11.279 -8.959,-11.478c-4.478,-0.198 -9.852,3.996 -8.8,10.884c-6.426,-2.694 -11.8,1.5 -12.695,5.893c-0.895,4.392 2.688,8.984 8.958,11.478c0.731,0.316 1.537,0.573 2.399,0.778c0.787,0.187 1.62,0.331 2.486,0.438c-1.816,-0.224 -3.533,-0.254 -5.034,-0.007c-6.688,0.896 -11.279,4.48 -11.478,8.958c-0.198,4.479 3.996,9.853 10.883,8.801c-2.693,6.426 1.501,11.799 5.894,12.695c4.392,0.895 8.984,-2.688 11.478,-8.959c0.603,-1.396 0.992,-3.068 1.216,-4.884c-0.224,1.816 -0.254,3.532 -0.007,5.033c0.896,6.689 4.479,11.28 8.958,11.479c4.479,0.198 9.853,-3.996 8.8,-10.884c6.426,2.694 11.8,-1.5 12.696,-5.893c0.895,-4.393 -2.689,-8.984 -8.959,-11.478c-0.73,-0.316 -1.536,-0.573 -2.399,-0.778c-0.786,-0.187 -1.619,-0.331 -2.485,-0.438c1.815,0.224 3.532,0.253 5.033,0.007c6.689,-0.897 11.28,-4.48 11.478,-8.958c0.199,-4.479 -3.995,-9.853 -10.883,-8.801c2.694,-6.426 -1.5,-11.8 -5.893,-12.695c-4.393,-0.895 -8.984,2.688 -11.478,8.958c-0.604,1.397 -0.992,3.069 -1.216,4.884Z" style="fill:#68af23;"/><path d="M418.798,54.151c-0,0 8.193,0.273 11.398,-0.306c5.681,-0.856 9.627,-3.936 9.865,-7.699c0.238,-3.763 -3.232,-8.209 -9.085,-7.219c2.383,-5.437 -1.088,-9.883 -4.796,-10.566c-3.708,-0.683 -7.654,2.396 -9.865,7.699c-1.353,2.999 -2.922,11.167 -2.922,11.167c0,-0 0.583,-8.299 0,-11.527c-0.857,-5.681 -3.936,-9.627 -7.699,-9.865c-3.763,-0.238 -8.21,3.232 -7.219,9.085c-5.437,-2.383 -9.883,1.088 -10.567,4.796c-0.683,3.708 2.397,7.654 7.7,9.865c2.936,1.325 10.861,3.05 10.861,3.05c-0,0 -8.098,-0.436 -11.254,0.134c-5.681,0.856 -9.627,3.936 -9.865,7.699c-0.238,3.763 3.232,8.209 9.085,7.219c-2.382,5.436 1.088,9.883 4.796,10.566c3.708,0.683 7.654,-2.396 9.865,-7.699c1.328,-2.942 2.777,-10.994 2.777,-10.994c0,-0 -0.43,8.169 0.145,11.354c0.857,5.681 3.937,9.627 7.7,9.865c3.763,0.238 8.209,-3.232 7.219,-9.085c5.436,2.383 9.883,-1.088 10.566,-4.796c0.683,-3.708 -2.396,-7.654 -7.699,-9.865c-2.955,-1.333 -11.006,-2.878 -11.006,-2.878Z" style="fill:#6fbe22;"/><path d="M412.645,53.297l-14.17,-18.377c-5.437,-2.383 -9.883,1.088 -10.567,4.796c-0.683,3.708 2.397,7.654 7.7,9.865c2.315,1.045 7.732,2.338 9.92,2.839l0.941,0.211c2.052,0.271 4.11,0.5 6.176,0.666Zm-18.21,14.386c-2.382,5.436 1.088,9.883 4.796,10.566c3.708,0.683 7.654,-2.396 9.865,-7.699c1.328,-2.942 2.777,-10.994 2.777,-10.994l0.772,-6.259l-18.21,14.386Zm18.21,-14.386l18.331,-14.37c2.383,-5.437 -1.088,-9.883 -4.796,-10.566c-3.708,-0.683 -7.654,2.396 -9.865,7.699c-1.353,2.999 -2.922,11.167 -2.922,11.167l-0.748,6.07Zm-0,0l14.292,18.393c5.436,2.383 9.883,-1.088 10.566,-4.796c0.683,-3.708 -2.396,-7.654 -7.699,-9.865c-2.955,-1.333 -11.006,-2.878 -11.006,-2.878l-6.153,-0.854Z" style="fill:#79c82c;"/><path d="M410.76,74.797c1.09,6.042 4.744,10.008 8.988,10.196c4.516,0.2 9.931,-3.904 9.189,-10.712c6.424,2.373 11.72,-1.882 12.623,-6.311c0.919,-4.51 -2.707,-9.264 -9.138,-11.823c-0.405,-0.175 -0.832,-0.333 -1.278,-0.473c0.466,-0.028 0.917,-0.077 1.35,-0.148c6.865,-0.921 11.537,-4.652 11.741,-9.25c0.2,-4.516 -3.904,-9.93 -10.712,-9.188c2.373,-6.424 -1.882,-11.721 -6.311,-12.623c-4.51,-0.92 -9.264,2.706 -11.825,9.142c-0.174,0.403 -0.331,0.828 -0.471,1.273c-0.028,-0.466 -0.077,-0.916 -0.148,-1.349c-0.921,-6.866 -4.652,-11.537 -9.25,-11.741c-4.516,-0.2 -9.93,3.904 -9.188,10.712c-6.424,-2.374 -11.721,1.882 -12.624,6.311c-0.919,4.51 2.707,9.263 9.143,11.825c0.403,0.174 0.829,0.331 1.274,0.471c-0.468,0.028 -0.92,0.077 -1.355,0.148c-6.861,0.921 -11.533,4.652 -11.736,9.25c-0.201,4.515 3.903,9.93 10.712,9.188c-2.374,6.424 1.882,11.72 6.311,12.623c4.193,0.855 8.611,-2.214 11.255,-7.831c0.529,-1.124 1.064,-2.772 1.064,-2.772c-0,-0 0.181,1.944 0.386,3.082Zm-0.603,-4.278c-0.236,0.869 -0.527,1.679 -0.846,2.416c-0.001,0.003 -0.002,0.005 -0.003,0.008c-2.427,6.102 -6.855,9.641 -11.13,8.77c-4.243,-0.865 -8.272,-6.066 -5.67,-12.273c0.043,-0.103 0.027,-0.221 -0.041,-0.309c-0.069,-0.088 -0.18,-0.132 -0.29,-0.116c-6.653,1.017 -10.72,-4.155 -10.528,-8.481c0.193,-4.359 4.701,-7.794 11.21,-8.666c0.003,-0 0.006,-0.001 0.009,-0.001c0.769,-0.127 1.595,-0.179 2.463,-0.168c0.797,0.009 1.624,0.044 2.501,0.083c0.425,0.018 2.829,0.133 2.829,0.133c0,0 -2.347,-0.422 -2.788,-0.518c-1.757,-0.38 -3.411,-0.734 -4.783,-1.328c-0.003,-0.001 -0.006,-0.002 -0.009,-0.003c-6.102,-2.427 -9.641,-6.855 -8.769,-11.13c0.864,-4.243 6.066,-8.272 12.273,-5.67c0.103,0.043 0.221,0.028 0.309,-0.041c0.088,-0.069 0.132,-0.18 0.115,-0.29c-1.016,-6.653 4.156,-10.72 8.482,-10.528c4.358,0.193 7.793,4.701 8.666,11.21c0,0.003 0.001,0.006 0.001,0.009c0.242,1.475 0.155,3.161 0.086,4.957c-0.039,1.032 -0.186,3.249 -0.169,3.113c-0.017,0.136 0.38,-2.05 0.592,-3.061c0.37,-1.759 0.695,-3.415 1.288,-4.787c0.001,-0.003 0.003,-0.006 0.004,-0.008c2.427,-6.103 6.854,-9.642 11.129,-8.77c4.243,0.864 8.272,6.066 5.67,12.273c-0.043,0.103 -0.027,0.221 0.042,0.309c0.068,0.088 0.179,0.132 0.29,0.115c6.653,-1.016 10.72,4.156 10.528,8.482c-0.193,4.358 -4.702,7.793 -11.211,8.666c-0.003,0 -0.006,0.001 -0.009,0.001c-1.475,0.242 -3.166,0.184 -4.962,0.126c-0.451,-0.014 -2.831,-0.174 -2.831,-0.174c0,-0 2.361,0.472 2.777,0.557c0.86,0.176 1.671,0.343 2.447,0.527c0.844,0.201 1.633,0.452 2.348,0.761c0.002,0.002 0.005,0.003 0.008,0.004c6.102,2.427 9.641,6.855 8.77,11.129c-0.865,4.244 -6.066,8.272 -12.273,5.67c-0.103,-0.043 -0.221,-0.027 -0.309,0.042c-0.089,0.069 -0.133,0.179 -0.116,0.29c1.017,6.653 -4.155,10.72 -8.481,10.528c-4.359,-0.193 -7.794,-4.702 -8.666,-11.211c-0.001,-0.003 -0.001,-0.006 -0.002,-0.009c-0.126,-0.771 -0.211,-1.604 -0.232,-2.478c0.037,-0.848 0.089,-1.81 0.165,-2.92c0.029,-0.422 0.269,-3.637 0.269,-3.637c0,-0 -0.548,3.177 -0.622,3.593c-0.178,0.997 -0.358,1.938 -0.531,2.805Z" style="fill:#018f35;"/></g><path d="M699.828,154.705c0,-5.888 -4.78,-10.668 -10.668,-10.668c-115.933,24.26 -231.867,24.45 -347.8,-0c-5.888,-0 -10.668,4.78 -10.668,10.668l-0,21.335c-0,5.888 4.78,10.668 10.668,10.668c115.941,47.149 231.859,46.44 347.8,0c5.888,0 10.668,-4.78 10.668,-10.668l0,-21.335Z" style="fill:#c55122;"/><path d="M699.828,154.705c0,-5.888 -4.78,-10.668 -10.668,-10.668c-115.933,24.26 -231.867,24.45 -347.8,-0c-5.888,-0 -10.668,4.78 -10.668,10.668l-0,21.335c-0,5.888 4.78,10.668 10.668,10.668c115.369,20.86 231.303,20.86 347.8,0c5.888,0 10.668,-4.78 10.668,-10.668l0,-21.335Z" style="fill:#59cd44;"/></g></g><defs><linearGradient id="_Linear1" x1="0" y1="0" x2="1" y2="0" gradientUnits="userSpaceOnUse" gradientTransform="matrix(3.99541e-14,-652.5,652.5,3.99541e-14,625,1491.92)"><stop offset="0" style="stop-color:#3bb54a;stop-opacity:1"/><stop offset="0.41" style="stop-color:#2c9439;stop-opacity:1"/><stop offset="1" style="stop-color:#298c35;stop-opacity:1"/></linearGradient><linearGradient id="_Linear2" x1="0" y1="0" x2="1" y2="0" gradientUnits="userSpaceOnUse" gradientTransform="matrix(62.2083,227.125,-227.125,62.2083,1092.71,813.814)"><stop offset="0" style="stop-color:#fabc2e;stop-opacity:0.1"/><stop offset="1" style="stop-color:#f27ba5;stop-opacity:1"/></linearGradient><linearGradient id="_Linear3" x1="0" y1="0" x2="1" y2="0" gradientUnits="userSpaceOnUse" gradientTransform="matrix(-62.2083,227.125,227.125,62.2083,157.292,813.814)"><stop offset="0" style="stop-color:#fabc2e;stop-opacity:0.1"/><stop offset="1" style="stop-color:#f27ba5;stop-opacity:1"/></linearGradient></defs></svg>