<svg id="Layer_1" data-name="Layer 1" xmlns="http://www.w3.org/2000/svg" xmlns:xlink="http://www.w3.org/1999/xlink" viewBox="0 0 100 76.35032"><defs><style>.cls-1{fill:#313f49;}.cls-2{fill:#505b74;}.cls-12,.cls-3{opacity:0.56;}.cls-4{fill:#f68c2e;}.cls-5{opacity:0.45;}.cls-6{fill:#e95f24;}.cls-10,.cls-12,.cls-7{fill:#f7bc29;}.cls-8{opacity:0.26;}.cls-9{fill:#f15b31;}.cls-10{opacity:0.28;}.cls-11{fill:#5e7e9a;}.cls-13{fill:#7ea5ba;}.cls-14{fill:#3b4655;}.cls-15,.cls-20{fill:#292f39;}.cls-15{opacity:0.32;}.cls-16{opacity:0.17;}.cls-17{fill:#facf48;}.cls-18{fill:url(#linear-gradient);}.cls-19{opacity:0.73;fill:url(#radial-gradient);}.cls-21{fill:url(#radial-gradient-2);}.cls-22{fill:url(#radial-gradient-3);}.cls-23{fill:url(#radial-gradient-4);}.cls-24{opacity:0.69;}.cls-25{opacity:0.51;fill:url(#radial-gradient-5);}.cls-26{opacity:0.44;}.cls-27{fill:#f79c2f;}.cls-28{fill:#e47225;}</style><linearGradient id="linear-gradient" x1="49.87258" y1="56.47612" x2="49.87258" y2="36.98591" gradientUnits="userSpaceOnUse"><stop offset="0.13165" stop-color="#5e7e9a"/><stop offset="0.7109" stop-color="#3b4655"/></linearGradient><radialGradient id="radial-gradient" cx="49.99933" cy="-315.41457" r="24.69948" gradientTransform="translate(0 365.03918)" gradientUnits="userSpaceOnUse"><stop offset="0.576" stop-color="#c47d3c" stop-opacity="0"/><stop offset="0.63117" stop-color="#c47d3c" stop-opacity="0.01311"/><stop offset="0.66512" stop-color="#c47d3c" stop-opacity="0.0564"/><stop offset="0.69334" stop-color="#c47d3c" stop-opacity="0.13026"/><stop offset="0.71842" stop-color="#c47d3c" stop-opacity="0.23487"/><stop offset="0.74142" stop-color="#c47d3c" stop-opacity="0.37036"/><stop offset="0.76257" stop-color="#c47d3c" stop-opacity="0.53415"/><stop offset="0.78235" stop-color="#c47d3c" stop-opacity="0.72585"/><stop offset="0.81237" stop-color="#bc7b3f" stop-opacity="0.66675"/><stop offset="0.86609" stop-color="#a67547" stop-opacity="0.50927"/><stop offset="0.93672" stop-color="#846c55" stop-opacity="0.25602"/><stop offset="1" stop-color="#616262" stop-opacity="0"/></radialGradient><radialGradient id="radial-gradient-2" cx="42.72667" cy="-336.6645" r="4.11983" gradientTransform="translate(0 365.03918)" gradientUnits="userSpaceOnUse"><stop offset="0.56445" stop-color="#f68c2e"/><stop offset="0.59697" stop-color="#ee8a31" stop-opacity="0.95284"/><stop offset="0.65521" stop-color="#d9843a" stop-opacity="0.82704"/><stop offset="0.73243" stop-color="#b77a48" stop-opacity="0.62294"/><stop offset="0.82576" stop-color="#886c5c" stop-opacity="0.34025"/><stop offset="0.92737" stop-color="#505b74" stop-opacity="0"/></radialGradient><radialGradient id="radial-gradient-3" cx="-246.27662" cy="-336.6645" r="4.11983" gradientTransform="matrix(-1, 0, 0, 1, -189.15229, 365.03918)" xlink:href="#radial-gradient-2"/><radialGradient id="radial-gradient-4" cx="49.99933" cy="-315.41457" r="17.83214" gradientTransform="translate(0 365.03918)" gradientUnits="userSpaceOnUse"><stop offset="0" stop-color="#c47d3c" stop-opacity="0"/><stop offset="0.09901" stop-color="#c57e3c" stop-opacity="0.02301"/><stop offset="0.22629" stop-color="#c9803b" stop-opacity="0.08869"/><stop offset="0.3691" stop-color="#d08439" stop-opacity="0.19711"/><stop offset="0.5232" stop-color="#d98a37" stop-opacity="0.34835"/><stop offset="0.68641" stop-color="#e59135" stop-opacity="0.5426"/><stop offset="0.85482" stop-color="#f39a31" stop-opacity="0.77626"/><stop offset="0.87075" stop-color="#f49b31" stop-opacity="0.8"/><stop offset="1" stop-color="#616262" stop-opacity="0"/></radialGradient><radialGradient id="radial-gradient-5" cx="49.99933" cy="-315.37677" r="12.73984" gradientTransform="translate(0 365.03918)" gradientUnits="userSpaceOnUse"><stop offset="0.66789" stop-color="#ea882d"/><stop offset="1" stop-color="#f4b829"/></radialGradient></defs><path class="cls-1" d="M89.27058,22.30806a16.9774,16.9774,0,0,0-17.21914-2.352V16.95623a6.47383,6.47383,0,0,0-1.08605-3.5877,4.80639,4.80639,0,0,0,1.08605-3.18963V3.21239c.0303-2.46415-2.521-4.18316-4.37676-1.98315l-3.02675,3.4024A14.27292,14.27292,0,0,0,61.49086.404a1.45267,1.45267,0,0,0-2.44019,1.24012,15.17055,15.17055,0,0,1-1.50961,8.83523H54.79527A17.82277,17.82277,0,0,0,50.8003,5.452a1.46117,1.46117,0,0,0-2.10146-.02217,17.88269,17.88269,0,0,0-4.01826,5.04952H42.30991a15.15845,15.15845,0,0,1-1.50965-8.83526A1.4527,1.4527,0,0,0,38.36012.404a14.3006,14.3006,0,0,0-3.189,4.29137L32.08571,1.22888c-1.85543-2.19944-4.407-.48031-4.37645,1.98349l0,6.96406A4.8107,4.8107,0,0,0,28.78746,13.357a6.47211,6.47211,0,0,0-1.09372,3.59925v2.90491A16.9271,16.9271,0,0,0,10.7295,22.308C-2.034,32.31111.09306,41.78717.18989,42.18571a1.4502,1.4502,0,0,0,1.48477,1.10516,12.19236,12.19236,0,0,0,1.94559-.26408c.22734-.05141.45434-.10517.679-.169h.00006c-4.0997,9.04178.40784,18.786,8.36777,24.63919a1.449,1.449,0,0,0,1.91015-.14546,8.22446,8.22446,0,0,0,1.4015-2.1294c.06949-.1475.12914-.28773.1909-.43818,4.76243,7.83942,13.15748,10.98763,21.58912,11.55523a1.44973,1.44973,0,0,0,1.61268-1.29281,10.884,10.884,0,0,0-.06039-2.06619c-.05766-.54581-.14114-1.09465-.24356-1.63639l-.17674-.85122A35.20742,35.20742,0,0,0,36.072,62.806a58.71038,58.71038,0,0,0-5.84491-9.31106A6.44432,6.44432,0,0,0,34.17066,54.837H65.57452a6.4589,6.4589,0,0,0,4.68508-2.0091c-1.32527,1.78928-2.62807,3.56586-3.79244,5.44725a43.04419,43.04419,0,0,0-4.94375,10.6153c-.167.57556-.31507,1.15163-.44442,1.73665-.15275.70167-.28532,1.43809-.36741,2.14934l-.00094.00743c-.0081.07153-.01622.1406-.02312.209a10.0502,10.0502,0,0,0-.06593,1.93975,1.44951,1.44951,0,0,0,1.62365,1.406C70.684,75.76937,79.06842,72.62,83.83029,64.78392c.05857.14308.12452.29742.19.43629a8.2438,8.2438,0,0,0,1.40227,2.13117,1.44914,1.44914,0,0,0,1.91026.14567c7.95822-5.84938,12.46924-15.60186,8.36784-24.63928l.002.00059a12.11209,12.11209,0,0,0,1.582.33064l.00021.00009c.18125.02677.36134.0469.53548.06392.17273.01652.34344.02937.50493.03786a1.45033,1.45033,0,0,0,1.48483-1.10527C99.90688,41.78717,102.034,32.31111,89.27058,22.30806ZM71.88714,50.38583c-.13791.2274-.28862.46523-.4331.69034a6.43844,6.43844,0,0,0,.5974-2.71607V38.52442a7.25649,7.25649,0,0,1,.997.8084,4.9284,4.9284,0,0,1,1.25543,1.97525c.02455.07377.04693.15286.06958.22858.0197.07231.03822.14508.05343.21172.01822.08471.03557.16669.05037.25276C74.94036,44.81359,73.31412,48.02314,71.88714,50.38583ZM27.46138,49.26935c-1.18969-2.18407-2.43123-4.99658-1.88891-7.51815a4.81666,4.81666,0,0,1,.4124-1.12946c.03161-.061.06434-.12113.09907-.18128a5.78412,5.78412,0,0,1,1.6098-1.73559V48.3601a6.4638,6.4638,0,0,0,.22958,1.71188C27.75949,49.79716,27.60463,49.52812,27.46138,49.26935ZM37.84762,72.934Z"/><path class="cls-2" d="M62.07038,74.89956c5.39714-.52948,14.344-1.591,20.18782-10.35542a26.50017,26.50017,0,0,0,2.083-3.76855.09838.09838,0,0,1,.00777-.01683c.14759-.32236.29-.65377.42981-.99166a7.60767,7.60767,0,0,0,.51136,4.746c.01553.03494.03236.0699.0479.10356a6.80722,6.80722,0,0,0,1.12241,1.72311,23.8854,23.8854,0,0,0,8.07047-10.03437A15.88566,15.88566,0,0,0,91.32551,38.998,16.07618,16.07618,0,0,0,93.437,40.37674a12.238,12.238,0,0,0,3.32839,1.25187,10.63546,10.63546,0,0,0,1.63637.21491S100.552,32.9911,88.37643,23.44869a15.57346,15.57346,0,0,0-6.08069-2.99826,15.16135,15.16135,0,0,0-5.95122-.1696A24.93446,24.93446,0,0,0,65.8933,25.03974,27.06786,27.06786,0,0,0,62.91574,27.572l1.56127.62787-.50488.78063.49582.6007,1.42535,1.72826,2.27848,2.764,1.358,1.648c3.13679,1.08487,6.192,2.96719,6.46259,6.73964.20195,2.82608-1.15995,6.71372-5.22367,12.12252-4.66958,6.21662-6.84967,11.237-7.85945,14.73114A16.38143,16.38143,0,0,0,62.07038,74.89956Z"/><g class="cls-3"><path class="cls-4" d="M84.16741,59.89261s4.051-13.366-6.80748-23.70738l-.29317,22.55938-3.82444,12.0523,5.44079-3.34015Z"/></g><g class="cls-5"><path class="cls-6" d="M91.61036,43.25056a14.85384,14.85384,0,0,0-10.4726-7.33545,12.12692,12.12692,0,0,1,2.27522,1.73l4.18316,10.74949,2.16563,8.79148,5.38784-8.79148Z"/></g><path class="cls-7" d="M79.59491,63.70592s6.14039-12.41462-.12034-24.32406l-5.224,19.98593-5.67887,9.76067h4.89877Z"/><path class="cls-7" d="M83.413,59.98409s-2.29318.66146-2.43979,0-2.36647.80449-2.36647.80449l-1.07449,4.21487S82.31355,62.9073,83.413,59.98409Z"/><g class="cls-8"><path class="cls-9" d="M78.375,28.96823s2.30338-2.18176,12.634-1.24138l2.22515,1.24564,1.91546,7.5498L91.009,35.19548S82.32662,29.10139,78.375,28.96823Z"/></g><path class="cls-10" d="M91.009,28.37469s.37556,2.71448.36334,2.99625-6.46524-2.99625-11.77743-2.22a53.15808,53.15808,0,0,1,8.42551,3.34357l7.12919,5.15064S94.61043,30.0199,91.009,28.37469Z"/><path class="cls-11" d="M62.07038,74.89956c5.39714-.52948,14.344-1.591,20.18782-10.35542a26.50017,26.50017,0,0,0,2.083-3.76855.09838.09838,0,0,1,.00777-.01683c.14759-.32236.29-.65377.42981-.99166-.41039,1.97555.93322,2.61753,1.44976,3.75806l1.79189-6.59062-1.88751-2.50243s-2.08558,10.837-16.45682,13.16078a22.72472,22.72472,0,0,0-5.33438,1.23164A39.99434,39.99434,0,0,1,62.07038,74.89956Z"/><path class="cls-12" d="M91.85405,45.1546s-.78239,3.20586-1.13534,3.05982c0,0-.96427-5.6394-7.30573-10.56926l4.60744,9.80971-.38691,8.67243L91.009,57.18613S94.34234,47.88792,91.85405,45.1546Z"/><path class="cls-11" d="M86.22853,62.349c.51784,1.103.23191,3.99071.23191,3.99071a23.8854,23.8854,0,0,0,8.07047-10.03437A15.88566,15.88566,0,0,0,91.32551,38.998a3.3564,3.3564,0,0,0-3.33228-3.50317s7.492,8.58625,1.68615,18.32052C87.93558,56.7282,87.0739,60.67124,86.22853,62.349Z"/><path class="cls-11" d="M82.29574,20.45043C91.40836,24.074,93.67648,34.94724,93.67648,34.94724c-.00776,3.00474-.0625,3.43947,1.55186,4.92955.54761.11522,2.62967,1.93825,3.1734,1.96673,0,0,2.15031-8.85242-10.02531-18.39483A15.57346,15.57346,0,0,0,82.29574,20.45043Z"/><path class="cls-13" d="M86.46037,66.34022a24.37964,24.37964,0,0,0,7.68868-9.15129c-.09783.14855-4.4905,6.71882-4.47-3.37332-1.744,2.91315-2.60517,6.85532-3.45061,8.53292C86.74661,63.45242,86.46037,66.34022,86.46037,66.34022Z"/><path class="cls-13" d="M95.2288,39.8767c.54712.11473,2.62932,1.93848,3.17282,1.96625a12.73671,12.73671,0,0,0-.86235-6.87223c.02053,1.12806-.31886,3.36-3.86246-.023C93.66836,37.95151,93.614,38.38631,95.2288,39.8767Z"/><path class="cls-13" d="M72.41276,67.01414c-.85873.22708-1.76939.42272-2.73682.57853-.95413.1546-1.67034.26812-2.27906.38045-1.151.7452-2.36241,1.56528-3.52549,2.37207a37.77506,37.77506,0,0,1-1.80079,4.5545c3.68129-.36112,9.01361-.96984,13.88576-4.10159C75.82351,70.84882,67.14929,74.15934,72.41276,67.01414Z"/><path class="cls-14" d="M79.59491,29.151A46.80544,46.80544,0,0,1,91.32551,38.998a12.69251,12.69251,0,0,0,7.07623,2.8455A20.71309,20.71309,0,0,0,79.59491,29.151Z"/><path class="cls-11" d="M87.40756,26.72947c-3.92224-2.7398-6.15657-4.43448-14.58979-3.95239C79.99659,17.19342,87.40756,24.52047,87.40756,26.72947Z"/><path class="cls-14" d="M84.77877,59.7671a7.6085,7.6085,0,0,0,.55926,4.84953,6.80722,6.80722,0,0,0,1.12241,1.72311S95.62614,48.622,83.413,37.64516C83.47253,37.79534,88.735,51.05451,84.77877,59.7671Z"/><path class="cls-14" d="M62.07055,74.89994a46.53374,46.53374,0,0,0,7.41814-5.16807c3.82985-3.24527,8.0341-7.88552,9.66581-13.53307,1.09786-3.80089,2.93729-11.94368,0-17.47284-2.93731-5.528-8.6537-5.15-10.98229-4.65235L69.52975,35.721q.28263.09785.564.20411c5.2671,2.00371,9.83611,6.46642.67514,18.65888C61.28308,67.21006,62.07055,74.89994,62.07055,74.89994Z"/><path class="cls-15" d="M65.8933,25.03974v6.26969l2.27848,2.764,1.358,1.648c3.13679,1.08487,6.192,2.96719,6.46259,6.73964l.35213-22.18021A24.93446,24.93446,0,0,0,65.8933,25.03974Z"/><g class="cls-16"><path class="cls-4" d="M62.07055,74.89994a46.53374,46.53374,0,0,0,7.41814-5.16807l.00362-.0048s.36234-3.8021,4.40354-10.74918c10.8156-21.63123-3.69337-23.28345-3.69337-23.28345l-.1087.23067c5.2671,2.00371,9.83611,6.46642.67514,18.65888C61.28308,67.21006,62.07055,74.89994,62.07055,74.89994Z"/></g><path class="cls-2" d="M37.92957,74.89956c-5.39714-.52948-14.344-1.591-20.18783-10.35542a26.50116,26.50116,0,0,1-2.083-3.76855.09762.09762,0,0,0-.00777-.01683c-.14758-.32236-.29-.65377-.4298-.99166a7.60774,7.60774,0,0,1-.51136,4.746c-.01554.03494-.03237.0699-.0479.10356a6.80722,6.80722,0,0,1-1.12241,1.72311A23.88532,23.88532,0,0,1,5.469,56.30537,15.88565,15.88565,0,0,1,8.67444,38.998,16.07684,16.07684,0,0,1,6.563,40.37674a12.23808,12.23808,0,0,1-3.3284,1.25187,10.63534,10.63534,0,0,1-1.63636.21491S-.5521,32.9911,11.62351,23.44869a15.57359,15.57359,0,0,1,6.08069-2.99826,15.16135,15.16135,0,0,1,5.95122-.1696,24.9345,24.9345,0,0,1,10.45123,4.75891A27.06786,27.06786,0,0,1,37.08421,27.572l-1.56128.62787.50489.78063-.49583.6007-1.42534,1.72826-2.27848,2.764-1.358,1.648c-3.13679,1.08487-6.192,2.96719-6.46259,6.73964-.202,2.82608,1.15994,6.71372,5.22366,12.12252,4.66959,6.21662,6.84968,11.237,7.85946,14.73114A16.38143,16.38143,0,0,1,37.92957,74.89956Z"/><g class="cls-3"><path class="cls-4" d="M15.83254,59.89261s-4.051-13.366,6.80747-23.70738l.29318,22.55938,3.82444,12.0523-5.4408-3.34015Z"/></g><g class="cls-5"><path class="cls-6" d="M8.38958,43.25056a14.85387,14.85387,0,0,1,10.47261-7.33545,12.12692,12.12692,0,0,0-2.27522,1.73L12.40381,48.39465l-2.16563,8.79148L4.85033,48.39465Z"/></g><path class="cls-7" d="M20.405,63.70592s-6.14039-12.41462.12034-24.32406l5.224,19.98593,5.67886,9.76067H26.52952Z"/><path class="cls-7" d="M16.587,59.98409s2.29318.66146,2.43978,0,2.36648.80449,2.36648.80449l1.07449,4.21487S17.68639,62.9073,16.587,59.98409Z"/><g class="cls-8"><path class="cls-9" d="M21.625,28.96823s-2.30339-2.18176-12.634-1.24138L6.76579,28.97249l-1.91546,7.5498L8.991,35.19548S17.67333,29.10139,21.625,28.96823Z"/></g><path class="cls-10" d="M8.991,28.37469s-.37556,2.71448-.36335,2.99625,6.46524-2.99625,11.77744-2.22a53.158,53.158,0,0,0-8.42552,3.34357L4.85033,37.64516S5.38951,30.0199,8.991,28.37469Z"/><path class="cls-11" d="M37.9294,74.89969c-3.68129-.36112-9.01361-.96984-13.88576-4.10159l-.00121-.00121a21.47,21.47,0,0,1-6.30095-6.25264A26.55738,26.55738,0,0,1,15.65927,60.776c-.00362-.006-.00483-.01208-.00845-.01691-.14735-.32248-.28987-.65461-.43-.99159.41063,1.97472-.93241,2.61727-1.44933,3.7574l-1.79234-6.59083,1.88775-2.5025s1.81408,9.42788,13.7203,12.58136v.00121c.85873.22708,1.76939.42272,2.73682.57853.95413.1546,1.67034.26812,2.27906.38045a16.11392,16.11392,0,0,1,3.05567.85147c.1546.53265.31281,1.04112.46982,1.5206A37.77506,37.77506,0,0,0,37.9294,74.89969Z"/><path class="cls-12" d="M8.1459,45.1546s.78239,3.20586,1.13533,3.05982c0,0,.96428-5.6394,7.30574-10.56926l-4.60745,9.80971.38691,8.67243L8.991,57.18613S5.6576,47.88792,8.1459,45.1546Z"/><path class="cls-11" d="M13.53963,66.34022A24.37964,24.37964,0,0,1,5.851,57.18893l-.00121-.00121q-.2029-.44025-.38045-.88289a15.88343,15.88343,0,0,1,3.20544-17.3074A3.35594,3.35594,0,0,1,12.007,35.49489S4.51515,44.081,10.32092,53.81561c1.744,2.91315,2.60517,6.85532,3.45061,8.53292C13.25339,63.45242,13.53963,66.34022,13.53963,66.34022Z"/><path class="cls-11" d="M6.32319,34.94777c.00845,3.00374.0628,3.43854-1.552,4.92893-.54712.11473-2.62932,1.93848-3.17282,1.96625a12.73671,12.73671,0,0,1,.86235-6.87223c1.21019-3.23924,3.79361-7.31426,9.16337-11.52215A15.56046,15.56046,0,0,1,17.704,20.45088C8.59139,24.0742,6.32319,34.94777,6.32319,34.94777Z"/><path class="cls-13" d="M13.53963,66.34022A24.37964,24.37964,0,0,1,5.851,57.18893c.09783.14855,4.4905,6.71882,4.47-3.37332,1.744,2.91315,2.60517,6.85532,3.45061,8.53292C13.25339,63.45242,13.53963,66.34022,13.53963,66.34022Z"/><path class="cls-13" d="M4.7712,39.8767c-.54712.11473-2.62932,1.93848-3.17282,1.96625a12.73671,12.73671,0,0,1,.86235-6.87223c-.02053,1.12806.31886,3.36,3.86246-.023C6.33164,37.95151,6.386,38.38631,4.7712,39.8767Z"/><path class="cls-14" d="M20.405,29.151A46.80521,46.80521,0,0,0,8.67444,38.998a12.69253,12.69253,0,0,1-7.07623,2.8455A20.71309,20.71309,0,0,1,20.405,29.151Z"/><path class="cls-11" d="M12.59238,26.72947c3.92224-2.7398,6.15658-4.43448,14.58979-3.95239C20.00336,17.19342,12.59238,24.52047,12.59238,26.72947Z"/><path class="cls-14" d="M15.22118,59.7671a7.60857,7.60857,0,0,1-.55926,4.84953,6.80722,6.80722,0,0,1-1.12241,1.72311S4.37381,48.622,16.587,37.64516C16.52742,37.79534,11.26492,51.05451,15.22118,59.7671Z"/><path class="cls-13" d="M27.58724,67.01414c.85873.22708,1.76939.42272,2.73682.57853.95413.1546,1.67034.26812,2.27906.38045,1.151.7452,2.36241,1.56528,3.52549,2.37207a37.77506,37.77506,0,0,0,1.80079,4.5545c-3.68129-.36112-9.01361-.96984-13.88576-4.10159C24.17649,70.84882,32.85071,74.15934,27.58724,67.01414Z"/><path class="cls-14" d="M37.9294,74.89994a46.53322,46.53322,0,0,1-7.41814-5.16807c-3.82985-3.24527-8.03411-7.88552-9.66581-13.53307-1.09786-3.80089-2.9373-11.94368,0-17.47284,2.9373-5.528,8.65369-5.15,10.98228-4.65235L30.47019,35.721q-.28261.09785-.564.20411c-5.26709,2.00371-9.8361,6.46642-.67514,18.65888C38.71687,67.21006,37.9294,74.89994,37.9294,74.89994Z"/><path class="cls-15" d="M34.10665,25.03974v6.26969l-2.27848,2.764-1.358,1.648c-3.13679,1.08487-6.192,2.96719-6.46259,6.73964l-.35214-22.18021A24.9345,24.9345,0,0,1,34.10665,25.03974Z"/><g class="cls-16"><path class="cls-4" d="M37.9294,74.89994a46.53322,46.53322,0,0,1-7.41814-5.16807l-.00363-.0048S30.1453,65.925,26.1041,58.97789c-10.81561-21.63123,3.69336-23.28345,3.69336-23.28345l.1087.23067c-5.26709,2.00371-9.8361,6.46642-.67514,18.65888C38.71687,67.21006,37.9294,74.89994,37.9294,74.89994Z"/></g><path class="cls-4" d="M49.73969,6.44312V6.43979l-.00171.00167-.00173-.00167v.00333c-9.2182,8.78157.00173,8.29843.00173,8.29843S58.95789,15.22469,49.73969,6.44312Z"/><path class="cls-17" d="M49.7388,7.537V7.53562l-.00083.0007-.00082-.0007V7.537c-4.40446,3.71739.00082,3.51287.00082,3.51287S54.14326,11.25442,49.7388,7.537Z"/><path class="cls-11" d="M38.77967,10.93372l-4.25861,5.07265-1.66189-2.35878s-3.70062.08575-3.70062-3.47114v-6.964c0-1.20777.98675-2.14621,1.81166-1.0568l6.65121,7.47249Z"/><path class="cls-11" d="M60.981,10.93372l4.25861,5.07265L66.90146,13.65s3.70062.08575,3.70062-3.47114V3.21243c0-1.20777-.98675-2.14621-1.81166-1.0568L62.14284,9.62812Z"/><path class="cls-2" d="M60.981,10.93372l4.25861,5.07265L66.90146,13.65s3.70062.08575,3.70062-3.47114V7.0773c-.92757,2.00853-3.14021,5.05333-7.54134,2.93127a7.9398,7.9398,0,0,0-.9179-.38045Z"/><path class="cls-2" d="M38.77967,10.93372l-4.25861,5.07265-1.66189-2.35878s-3.70062.08575-3.70062-3.47114V7.0773c.92757,2.00853,3.14021,5.05333,7.54134,2.93127a7.93907,7.93907,0,0,1,.9179-.38045Z"/><ellipse class="cls-13" cx="67.51549" cy="6.24401" rx="2.96025" ry="1.10994" transform="translate(19.80275 54.41894) rotate(-50.56)"/><ellipse class="cls-13" cx="32.24306" cy="6.24853" rx="1.10994" ry="2.96025" transform="translate(3.37256 21.90589) rotate(-39.44)"/><ellipse class="cls-17" cx="32.75969" cy="6.43979" rx="0.73465" ry="1.993" transform="translate(2.67238 20.91121) rotate(-36.80786)"/><path class="cls-18" d="M65.57448,53.38765H34.17067a5.02759,5.02759,0,0,1-5.02759-5.02759h0v-6.838h41.459v6.838A5.0276,5.0276,0,0,1,65.57448,53.38765Z"/><path class="cls-11" d="M34.17067,11.92865H65.57448a5.0276,5.0276,0,0,1,5.0276,5.0276V41.91871a5.0276,5.0276,0,0,1-5.0276,5.0276H34.17067a5.02759,5.02759,0,0,1-5.02759-5.02759V16.95625A5.0276,5.0276,0,0,1,34.17067,11.92865Z"/><ellipse class="cls-2" cx="49.77199" cy="36.92257" rx="7.99792" ry="6.32799"/><ellipse class="cls-13" cx="49.77199" cy="35.19548" rx="7.99792" ry="6.32799"/><path class="cls-2" d="M35.41,23.261s.68239-3.639,5.60286-2.96267c6.40119,1.16791,6.96885,7.04977,5.69827,8.54982S35.41,23.261,35.41,23.261Z"/><path class="cls-14" d="M46.71112,28.84813A6.19708,6.19708,0,0,1,35.067,26.00383a5.89349,5.89349,0,0,1,1.24521-4.29,3.27936,3.27936,0,0,1,2.47715.03382c3.22958,1.03385,7.50389,4.82384,7.88434,5.3927A1.50863,1.50863,0,0,1,46.71112,28.84813Z"/><circle class="cls-19" cx="49.99933" cy="49.62461" r="24.69948"/><path class="cls-20" d="M46.71112,28.84813a6.20555,6.20555,0,0,1-3.54361,2.94335,6.1995,6.1995,0,0,1-5.38787-6.03887,6.21633,6.21633,0,0,1,1.00969-4.0098c3.22959,1.03385,7.5039,4.82384,7.88434,5.3927A1.516,1.516,0,0,1,46.71112,28.84813Z"/><circle class="cls-21" cx="42.72667" cy="28.37469" r="4.11983"/><path class="cls-20" d="M53.43721,32.33377l-.40219.42875a4.2756,4.2756,0,0,1-2.06771,1.22831,4.355,4.355,0,0,1-1.058.13889h-.029a4.35731,4.35731,0,0,1-1.05921-.13889A4.278,4.278,0,0,1,46.757,32.76252l-.40218-.42875a1.46624,1.46624,0,0,1,.76452-2.43971,14.17748,14.17748,0,0,1,2.761-.25484h.03141a14.17748,14.17748,0,0,1,2.761.25484,1.46624,1.46624,0,0,1,.76453,2.43971Z"/><path class="cls-20" d="M56.662,35.76022a3.9418,3.9418,0,0,1-3.33587,1.99765,4.2634,4.2634,0,0,1-1.593-.3273,4.86421,4.86421,0,0,1-1.85272-1.21381,4.89332,4.89332,0,0,1-1.85273,1.21381,4.268,4.268,0,0,1-1.59426.3273,3.93781,3.93781,0,0,1-3.33466-1.99765.98583.98583,0,0,1,1.71867-.96622h0a1.90577,1.90577,0,0,0,2.47714.80438c1.07371-.42876,1.44087-.95173,1.49522-1.60876a4.52987,4.52987,0,0,0-.12078-1.22831.98676.98676,0,0,1,.77321-1.16168l.001-.00019q.43881.01932.87805,0a.98916.98916,0,0,1,.77539,1.16187,4.48706,4.48706,0,0,0-.12078,1.22831c.05435.657.42272,1.18,1.49523,1.60876a1.90512,1.90512,0,0,0,2.47714-.80438.98635.98635,0,1,1,1.71987.96622H56.662Z"/><ellipse class="cls-2" cx="38.90233" cy="16.11424" rx="3.20664" ry="5.79731" transform="translate(19.84448 53.66231) rotate(-85.59)"/><circle class="cls-17" cx="42.72667" cy="28.37469" r="2.21989"/><ellipse class="cls-13" cx="35.44865" cy="32.69565" rx="2.09669" ry="3.57742" transform="translate(-12.77175 32.05891) rotate(-41.93)"/><ellipse class="cls-1" cx="45.5231" cy="21.49353" rx="1.73074" ry="3.39867" transform="translate(-3.28814 33.81374) rotate(-39.44)"/><path class="cls-2" d="M64.35064,23.261s-.68239-3.639-5.60286-2.96267c-6.4012,1.16791-6.96885,7.04977-5.69827,8.54982S64.35064,23.261,64.35064,23.261Z"/><path class="cls-14" d="M53.04951,28.84813a6.19708,6.19708,0,0,0,11.64414-2.8443,5.89349,5.89349,0,0,0-1.24521-4.29,3.27933,3.27933,0,0,0-2.47714.03382c-3.22959,1.03385-7.5039,4.82384-7.88434,5.3927A1.50861,1.50861,0,0,0,53.04951,28.84813Z"/><path class="cls-20" d="M53.04951,28.84813a6.20552,6.20552,0,0,0,3.54361,2.94335A6.1995,6.1995,0,0,0,61.981,25.75261a6.21633,6.21633,0,0,0-1.00969-4.0098c-3.22959,1.03385-7.5039,4.82384-7.88434,5.3927A1.516,1.516,0,0,0,53.04951,28.84813Z"/><ellipse class="cls-2" cx="60.85823" cy="16.11495" rx="5.79731" ry="3.20664" transform="translate(-1.05895 4.72729) rotate(-4.41)"/><circle class="cls-22" cx="57.12433" cy="28.37469" r="4.11983"/><circle class="cls-17" cx="57.03395" cy="28.37469" r="2.21989"/><ellipse class="cls-13" cx="64.30877" cy="32.68569" rx="3.57742" ry="2.09669" transform="translate(-2.98068 58.68765) rotate(-48.07)"/><ellipse class="cls-1" cx="54.2358" cy="21.4874" rx="3.39867" ry="1.73074" transform="translate(3.18692 49.72289) rotate(-50.56)"/><circle class="cls-13" cx="32.48838" cy="20.18466" r="2.34308"/><circle class="cls-13" cx="33.10435" cy="24.25486" r="0.98675"/><circle class="cls-23" cx="49.99933" cy="49.62461" r="17.83214"/><path class="cls-7" d="M46.49646,31.59944a9.912,9.912,0,0,0,6.85708,0,4.58,4.58,0,0,1-3.342,1.93235A5.13052,5.13052,0,0,1,46.49646,31.59944Z"/><path class="cls-7" d="M49.98646,37.48952h0c.29544,0,.59571.011.89245.0325A12.13424,12.13424,0,0,1,62.123,49.11552c.00839.16934.01164.33872.01164.51145a12.04944,12.04944,0,0,1-.57147,3.68457l-.02649.08374a12.10259,12.10259,0,0,1-11.53732,8.36337c-.30117,0-.59519-.0108-.87894-.03247a12.13429,12.13429,0,0,1,.86607-24.23666m-.00091-1.34278a13.47708,13.47708,0,0,0-.96246,26.9187c.32224.02463.6483.036.97624.036a13.48555,13.48555,0,0,0,12.843-9.37966v-.0019a13.40863,13.40863,0,0,0,.63507-4.0946c0-.19336-.0038-.3848-.01329-.57626A13.47677,13.47677,0,0,0,50.97617,36.18275q-.49886-.03625-.99062-.036Z"/><g class="cls-24"><path class="cls-7" d="M60.06767,53.80249A10.87974,10.87974,0,0,1,45.64691,59.1679c-5.4646-2.50093-6.4151-7.61151-3.91417-13.0761.21416,1.97032,1.857,5.13881,3.06172,3.98505s-.37364-2.68513,1.05765-6.77187,6.24354-4.53824,8.58714-3.35033c-2.61691.822-4.23528,4.78491-1.285,8.36861s4.78038-.47436,3.89514-2.72634C59.3454,47.97946,61.42174,50.75272,60.06767,53.80249Z"/></g><circle class="cls-25" cx="49.99933" cy="49.66241" r="12.73984"/><g class="cls-26"><circle class="cls-7" cx="44.79446" cy="43.30498" r="4.94471"/></g><g class="cls-26"><circle class="cls-7" cx="40.46332" cy="50.3978" r="2.00315"/></g><g class="cls-24"><path class="cls-7" d="M47.18776,58.82968a5.16922,5.16922,0,0,1-2.83211-6.31434s2.64076,3.46312,2.34808,1.72585.55194-5.86385,2.93945-7.73617c-.42845,3.46836,2.86648,6.84451,5.25936,7.21254,0,0,1.2648.19452,1.49611-1.76448.70485.63541,2.21549,2.44156.14866,4.9494S49.436,59.91031,47.18776,58.82968Z"/></g><path class="cls-2" d="M69.46364,46.43878c-.43306,1.29067-7.02985,5.92377-7.73127,5.654-.36207-.13773-1.187-2.01623-1.82739-3.9998l-.00142-.00427c-.59635-1.85438-1.03084-3.79819-.76958-4.49392a5.36841,5.36841,0,0,1,1.59311-2.22638A14.24157,14.24157,0,0,0,58.6924,39.4217l-.00284-.00142s4.068-1.56471,5.3984-1.143C65.417,38.699,69.89528,45.14811,69.46364,46.43878Z"/><path class="cls-14" d="M59.90356,48.08868c-.59635-1.85438-1.03084-3.79819-.76958-4.49392a5.36841,5.36841,0,0,1,1.59311-2.22638A14.24157,14.24157,0,0,0,58.6924,39.4217c1.97577.198,2.95807.18879,4.44677,1.61139S59.16948,44.90105,59.90356,48.08868Z"/><path class="cls-11" d="M64.96626,47.5967a6.82381,6.82381,0,0,0,.70675-4.25348.495.495,0,0,1,.83953-.42448,8.30135,8.30135,0,0,1,1.88607,2.65116c.32809,1.00165-1.408,2.0468-2.77475,2.69645A.49577.49577,0,0,1,64.96626,47.5967Z"/><path class="cls-2" d="M30.5363,46.43878c.43307,1.29067,7.02985,5.92377,7.73127,5.654.36207-.13773,1.187-2.01623,1.8274-3.9998l.00142-.00427c.59635-1.85438,1.03083-3.79819.76957-4.49392a5.36844,5.36844,0,0,0-1.5931-2.22638,14.24086,14.24086,0,0,1,2.03468-1.94668l.00285-.00142s-4.068-1.56471-5.39841-1.143C34.583,38.699,30.10466,45.14811,30.5363,46.43878Z"/><path class="cls-14" d="M40.09639,48.08868c.59635-1.85438,1.03083-3.79819.76957-4.49392a5.36844,5.36844,0,0,0-1.5931-2.22638,14.24086,14.24086,0,0,1,2.03468-1.94668c-1.97577.198-2.95807.18879-4.44677,1.61139S40.83046,44.90105,40.09639,48.08868Z"/><path class="cls-11" d="M35.03369,47.5967a6.8238,6.8238,0,0,1-.70676-4.25348.495.495,0,0,0-.83953-.42448,8.30133,8.30133,0,0,0-1.88606,2.65116c-.3281,1.00165,1.408,2.0468,2.77474,2.69645A.49577.49577,0,0,0,35.03369,47.5967Z"/><path class="cls-7" d="M61.595,45.23449a3.241,3.241,0,0,0-.91735,2.82883,7.39832,7.39832,0,0,0,1.31115,2.98047c.28516.38216,1.04121-.04141,1.094-.40255S61.2582,48.46178,61.595,45.23449Z"/><path class="cls-7" d="M38.40469,45.26966a3.241,3.241,0,0,1,.91735,2.82883A7.39826,7.39826,0,0,1,38.01089,51.079c-.28516.38216-1.04121-.04141-1.094-.40255S38.74145,48.497,38.40469,45.26966Z"/><ellipse class="cls-7" cx="36.23751" cy="33.53179" rx="1.3046" ry="2.22594" transform="translate(-13.1285 32.80013) rotate(-41.93)"/><circle class="cls-27" cx="43.11408" cy="28.97249" r="1.18679"/><circle class="cls-28" cx="41.82929" cy="27.25759" r="0.52811"/><circle class="cls-27" cx="56.7209" cy="28.97249" r="1.18679"/><circle class="cls-28" cx="58.00568" cy="27.25759" r="0.52811"/><ellipse class="cls-7" cx="63.76244" cy="33.53179" rx="2.22594" ry="1.3046" transform="translate(-3.79141 58.56192) rotate(-48.07)"/><path class="cls-17" d="M38.49011,18.1781c-1.91105-.05321-3.71783-.86071-4.152-2.93026,0,0-.29066-9.03637,5.02452-13.79617l.00144-.00233c-1.02232,7.54716,1.89189,12.09849,4.2913,13.955C44.00474,16.87242,41.14753,18.25325,38.49011,18.1781Z"/><path class="cls-4" d="M38.49011,18.1781a19.18955,19.18955,0,0,1,.87251-16.72643l.00144-.00233c-1.02232,7.54716,3.49225,12.57117,4.2913,13.955S41.14753,18.25325,38.49011,18.1781Z"/><path class="cls-4" d="M49.73917,12.8891v-.00333l-.0012.00167-.0012-.00167v.00333c-6.40232,8.78157.0012,8.29843.0012,8.29843S56.14149,21.67067,49.73917,12.8891Z"/><path class="cls-17" d="M49.77263,13.50419v-.00231L49.772,13.503l-.00064-.00116v.00231c-3.40378,6.08729.00064,5.75238.00064,5.75238S53.17641,19.59148,49.77263,13.50419Z"/><path class="cls-17" d="M39.85473,15.87649c-.96555-.75288-.774-2.91594-.5788-6.991,0,0,1.21021,4.73386,3.05451,6.38709C43.12191,16.63074,40.82028,16.62936,39.85473,15.87649Z"/><ellipse class="cls-17" cx="67.09131" cy="6.43979" rx="1.993" ry="0.73465" transform="translate(21.73865 56.2981) rotate(-53.19214)"/><path class="cls-17" d="M61.36089,18.1781c1.91105-.05321,3.71783-.86071,4.152-2.93026,0,0,.29066-9.03637-5.02452-13.79617l-.00144-.00233c1.02232,7.54716-1.89189,12.09849-4.2913,13.955C55.84626,16.87242,58.70347,18.25325,61.36089,18.1781Z"/><path class="cls-4" d="M61.36089,18.1781a19.18955,19.18955,0,0,0-.87251-16.72643l-.00144-.00233c1.02232,7.54716-3.49225,12.57117-4.2913,13.955S58.70347,18.25325,61.36089,18.1781Z"/><path class="cls-17" d="M59.99627,15.87649c.96555-.75288.774-2.91594.5788-6.991,0,0-1.21021,4.73386-3.05451,6.38709C56.72909,16.63074,59.03072,16.62936,59.99627,15.87649Z"/></svg>