<?xml version="1.0" encoding="UTF-8" standalone="no"?><!DOCTYPE svg PUBLIC "-//W3C//DTD SVG 1.1//EN" "http://www.w3.org/Graphics/SVG/1.1/DTD/svg11.dtd"><svg width="100%" height="100%" viewBox="0 0 1250 1438" version="1.1" xmlns="http://www.w3.org/2000/svg" xmlns:xlink="http://www.w3.org/1999/xlink" xml:space="preserve" xmlns:serif="http://www.serif.com/" style="fill-rule:evenodd;clip-rule:evenodd;stroke-linejoin:round;stroke-miterlimit:2;"><g id="Miner-v1.3" serif:id="Miner v1.3"><path id="CheeksMiner" d="M1042.29,1118.68c-31.017,21.141 -58.508,1.818 -60.099,-10.68c-2.814,-22.107 9.925,-25.067 16.827,-43.104c5.192,-13.567 -2.644,-30.102 12.99,-39.219c19.523,-11.384 53.45,3.922 68.771,-8.246c17.629,-14.001 47.886,-42.259 65.849,-16.672c9.114,12.981 -10.799,37.616 -14.757,47.025c-2.225,5.289 -0.904,29.442 -9.502,44.812c-17.28,30.888 -58.554,11.413 -80.079,26.084Zm-92.542,-30.318c-9.553,-7.534 -15.358,-19.429 -5.162,-30.185c5.78,-6.097 13.961,-6.521 17.766,-13.422c2.518,-4.567 11.984,-11.895 19.475,-4.365c6.043,6.074 -0.101,14.525 -1.578,18.2c-2.87,7.138 -0.354,14.953 -3.636,23.987c-3.069,8.444 -15.615,14.657 -26.865,5.785Zm195.946,-30.132c0.197,-1.401 2.482,-13.55 15.418,-15.016c4.822,-0.546 17.728,-0.791 28.07,4.536c7.253,3.735 5.825,12.441 1.591,17.267c-4.668,5.32 -13.808,11.457 -21.264,10.936c-4.171,-0.291 -9.178,-2.895 -12.481,-5.235c-5.299,-3.754 -12.587,-3.584 -11.334,-12.488Zm-987.942,32.27c-9.369,-2.659 -42.81,0.775 -60.815,-38.65c-7.084,-15.511 9.672,-44.524 7.289,-52.497c-1.752,-5.862 -7.874,-23.152 0.972,-36.124c12.415,-18.206 35.945,5.92 44.384,12.321c19.307,14.644 55.797,16.971 65.667,41.576c6.171,15.381 11.692,101.741 -23.357,93.386c-11.194,-2.669 -16.898,-15.118 -34.14,-20.012Zm72.957,-21.586c2.236,-17.26 13.453,-26.415 22.397,-24.97c6.196,1.001 25.865,25.392 29.561,36.026c3.056,8.794 -7.153,24.528 -17.367,24.289c-5.948,-0.14 -37.451,-13.269 -34.591,-35.345Zm62.611,9.135c-7.784,-11.908 9.97,-18.386 18.17,-10.308c10.367,10.215 -3.942,32.073 -18.17,10.308Z" style="fill:#353535;"/></g></svg>