<?xml version="1.0" encoding="UTF-8" standalone="no"?>
<svg
   id="Layer_1"
   data-name="Layer 1"
   viewBox="0 0 300 345"
   version="1.1"
   sodipodi:docname="Flamingo.svg"
   inkscape:version="1.2 (dc2aedaf03, 2022-05-15)"
   xml:space="preserve"
   xmlns:inkscape="http://www.inkscape.org/namespaces/inkscape"
   xmlns:sodipodi="http://sodipodi.sourceforge.net/DTD/sodipodi-0.dtd"
   xmlns="http://www.w3.org/2000/svg"
   xmlns:svg="http://www.w3.org/2000/svg"><sodipodi:namedview
     id="namedview64"
     pagecolor="#505050"
     bordercolor="#ffffff"
     borderopacity="1"
     inkscape:showpageshadow="0"
     inkscape:pageopacity="0"
     inkscape:pagecheckerboard="1"
     inkscape:deskcolor="#505050"
     showgrid="false"
     inkscape:zoom="0.79260187"
     inkscape:cx="59.298372"
     inkscape:cy="201.8668"
     inkscape:window-width="1366"
     inkscape:window-height="705"
     inkscape:window-x="-8"
     inkscape:window-y="-8"
     inkscape:window-maximized="1"
     inkscape:current-layer="Layer_1" /><defs
     id="defs21"><inkscape:path-effect
       effect="fillet_chamfer"
       id="path-effect1065"
       is_visible="true"
       lpeversion="1"
       nodesatellites_param="F,0,0,1,0,0,0,1 @ F,0,0,1,0,0,0,1 @ F,0,0,1,0,0,0,1 @ F,0,0,1,0,6.6650973,0,1 @ F,0,0,1,0,4.650391,0,1 @ F,0,0,1,0,0,0,1 @ F,0,0,1,0,9.0713811,0,1"
       unit="px"
       method="auto"
       mode="F"
       radius="0"
       chamfer_steps="1"
       flexible="false"
       use_knot_distance="true"
       apply_no_radius="true"
       apply_with_radius="true"
       only_selected="false"
       hide_knots="false" /><linearGradient
       id="linear-gradient"
       x1="-1777.04"
       y1="356.11"
       x2="-1777.04"
       y2="161.16"
       gradientTransform="matrix(-1, 0, 0, 1, -1627.04, 0)"
       gradientUnits="userSpaceOnUse"><stop
         offset="0"
         stop-color="#9bd4ee"
         id="stop2"
         style="stop-color:#342f77;stop-opacity:1;" /><stop
         offset="0.08"
         stop-color="#89cae6"
         id="stop4"
         style="stop-color:#1d1958;stop-opacity:1;" /><stop
         offset="0.23"
         stop-color="#5cb1d0"
         id="stop6"
         style="stop-color:#14122b;stop-opacity:1;" /><stop
         offset="0.30000001"
         stop-color="#46a5c6"
         id="stop8"
         style="stop-color:#000012;stop-opacity:1;" /></linearGradient><linearGradient
       id="linear-gradient-2"
       x1="-1749.01"
       y1="348.6"
       x2="-1749.01"
       y2="225.95"
       gradientTransform="matrix(-1, 0, 0, 1, -1627.04, 0)"
       gradientUnits="userSpaceOnUse"><stop
         offset="0"
         stop-color="#f38db6"
         id="stop11" /><stop
         offset="0.69"
         stop-color="#b53d7f"
         id="stop13" /></linearGradient><linearGradient
       id="linear-gradient-3"
       x1="152.14"
       y1="365.28"
       x2="152.14"
       y2="211.26"
       gradientUnits="userSpaceOnUse"><stop
         offset="0.01"
         stop-color="#cd488a"
         id="stop16" /><stop
         offset="0.69"
         stop-color="#871f5d"
         id="stop18" /></linearGradient></defs><path
     d="M36.38,345H263.62A36.38,36.38,0,0,0,300,308.62V259.14H0v49.48A36.38,36.38,0,0,0,36.38,345Z"
     fill="url(#linear-gradient)"
     id="path23" /><rect
     y="45"
     width="300"
     height="253.39"
     rx="36.38"
     fill="#9bd4ee"
     id="rect25"
     style="fill:#342f77;fill-opacity:1" /><circle
     style="fill:#ffffff;fill-opacity:1;fill-rule:evenodd;stroke-width:0.734375"
     id="circle3826"
     cx="69.187843"
     cy="107.38205"
     r="14.714154" /><circle
     style="fill:#ffffff;fill-opacity:1;fill-rule:evenodd;stroke-width:0.625003"
     id="circle3844"
     cx="229.16516"
     cy="143.3848"
     r="12.522684" /><path
     d="M89.69,95.66s-5.65,11-2.33,27.58c7.61,38.09,38,51.06,53.87,56.16s23,19.43,23,19.43l56.93-19.43a110.19,110.19,0,0,0,11.92-48.16c.36-28.61-18.3-77.7-75.75-80.51-47.82-2.34-83.85,26-83.8,79.27.06,57.63,27.89,77.46,27.89,142.6,0,49.28-22.21,72.4-22.21,72.4h77.1s8.9-18.69,8.9-63.21c0-54.39-24-102.39-24-102.39"
     fill="#f38db6"
     id="path27" /><path
     d="M164.75,298.39C163,331,156.29,345,156.29,345H79.19s14.4-15,20-46.61Z"
     fill="url(#linear-gradient-2)"
     id="path29" /><path
     d="M164.75,298.39A208.69,208.69,0,0,1,161.36,327h0c2-10.23,3.82-25.08,3.82-45.25a210.2,210.2,0,0,0-2.87-33.91c-2.49,11.43-8.94,32.11-14.35,50.51Z"
     fill="#e06ea2"
     id="path31" /><path
     d="M139.88,335.19c1.91,2.67,10.25.33,21.48-8.15a208.69,208.69,0,0,0,3.39-28.65H148C142.58,316.77,138.22,332.86,139.88,335.19Z"
     fill="url(#linear-gradient-3)"
     id="path33" /><path
     d="M89.69,95.66s-5.65,11-2.33,27.58a72.5,72.5,0,0,0,7.54,21c12.3,22.25,33.85,31.16,46.33,35.18,0,0,15.4,5.5,23,19.43"
     fill="none"
     stroke="#ba3873"
     stroke-linecap="round"
     stroke-miterlimit="10"
     stroke-width="3"
     id="path35" /><path
     d="M191.93,173.68c-31-11.16-26.51-48.27-26.51-48.27L150,160.13s28.25,6.56,14.21,38.7Z"
     fill="#fde8f1"
     id="path37" /><path
     d="M222.72,184.17a13.89,13.89,0,0,0-7.41-8.5c-6.05-2.8-16.72-5.27-31.7.53-13.19,5.12-17.43,14.33-18.78,19.27a8.11,8.11,0,0,0,.51,5.67c3,6.25,11,23.62,11.63,32.58.77,11.05-27.32,89.43-23.49,94.8s33.7-9.5,60.77-53.88c3.65-6,12.78-20.44,14.3-29C232.86,221.28,226,194.77,222.72,184.17Z"
     fill="#fde8f1"
     id="path39" /><path
     d="M151.38,158.67c-14.87-3.74-25.36-11.18-31.16-22.11-10.38-19.53-2.08-43-1.72-44l.14-.4.3-.31c.36-.37,9-9.23,21.48-9.23a28.68,28.68,0,0,1,16.87,5.81c8.23,5.9,12.58,17.91,11.94,32.93-.69,16.49-7.41,31.72-16.33,37l-.71.42Z"
     fill="#fff"
     id="path43" /><path
     d="M140.43,84.66a26.58,26.58,0,0,1,15.69,5.43c18.29,13.13,12.16,56.85-4.25,66.64-49.95-12.56-31.49-63.45-31.49-63.45s8.3-8.62,20.05-8.62m0-4c-13.29,0-22.54,9.44-22.93,9.85l-.59.61-.29.8c-.37,1-9,25.27,1.83,45.58,6.08,11.45,17,19.22,32.45,23.11l1.6.4,1.42-.85c11.11-6.62,16.7-24.2,17.31-38.68.67-15.7-4-28.33-12.77-34.64a30.65,30.65,0,0,0-18-6.18Z"
     fill="#15141a"
     id="path45" /><path
     d="M156.12,90.09c4.28,3.08,7.21,7.84,9,13.44a40.19,40.19,0,0,1,.26,4.56c0,20.67-15.58,37.43-34.81,37.43-.32,0-.63,0-.94,0-21.13-19.43-9.25-52.21-9.25-52.21S136.81,76.23,156.12,90.09Z"
     fill="#fbb040"
     id="path47" /><path
     d="M120.53,93.13c1.63-1.6,17.32-16.15,35.59-3,4.28,3.08,7.21,7.84,9,13.44a40.19,40.19,0,0,1,.26,4.56,39.2,39.2,0,0,1-6.45,21.7A61.39,61.39,0,0,0,120.53,93.13Z"
     fill="#654018"
     id="path49" /><ellipse
     cx="139.52"
     cy="113.09"
     rx="16.13"
     ry="11.29"
     transform="translate(-17.16 200.87) rotate(-68.29)"
     fill="#15141a"
     id="ellipse51" /><path
     d="M165.34,201.14c2.94,6.11,10.65,22.83,11.58,32,3.15-1.15,6.5-2.21,10-3.11-4.19-8.7-13.24-38.64-15.43-46a26.83,26.83,0,0,0-6.62,11.43A8.11,8.11,0,0,0,165.34,201.14Z"
     fill="#e0b1c7"
     id="path53" /><path
     d="M191.93,214.53s4.52,3,3.35,6.75C194.26,224.6,185.12,223.48,191.93,214.53Z"
     id="path57" /><path
     d="M206.87,70.11s7.94,8,21.83,6.41,3.19,18.22-12.07,16.86"
     fill="#f38db6"
     id="path59" /><path
     d="M213.7,81.78s7.94,8,21.84,6.41,3.19,18.22-12.08,16.85"
     fill="#f38db6"
     id="path61" /><circle
     style="fill:#ffffff;fill-opacity:1;fill-rule:evenodd;stroke-width:0.5625"
     id="circle3820"
     cx="32.558983"
     cy="72.631577"
     r="11.270416" /><circle
     style="fill:#ffffff;fill-opacity:1;fill-rule:evenodd;stroke-width:0.5625"
     id="circle3822"
     cx="259.84573"
     cy="183.45735"
     r="11.270416" /><circle
     style="fill:#ffffff;fill-opacity:1;fill-rule:evenodd;stroke-width:0.40625"
     id="circle3824"
     cx="70.127045"
     cy="204.74593"
     r="8.1397448" /><path
     id="circle3828"
     style="fill:#ffffff;fill-opacity:1;fill-rule:evenodd;stroke-width:0.53125"
     d="M 56.492188 45 A 10.644281 10.644281 0 0 0 56.351562 45.707031 A 10.644281 10.644281 0 0 0 66.996094 56.351562 A 10.644281 10.644281 0 0 0 77.640625 45.707031 A 10.644281 10.644281 0 0 0 77.5 45 L 56.492188 45 z M 269.70703 45.544922 A 12.835752 12.835752 0 0 0 269.23828 47.898438 A 12.835752 12.835752 0 0 0 282.07422 60.734375 A 12.835752 12.835752 0 0 0 290.83398 57.246094 C 285.45294 51.178379 278.08169 46.947472 269.70703 45.544922 z M 283.32617 84.527344 A 20.349363 20.349363 0 0 0 262.97656 104.87695 A 20.349363 20.349363 0 0 0 283.32617 125.22656 A 20.349363 20.349363 0 0 0 300 116.53125 L 300 93.222656 A 20.349363 20.349363 0 0 0 283.32617 84.527344 z M 293.03125 138.375 A 7.5136094 7.5136094 0 0 0 285.51758 145.88867 A 7.5136094 7.5136094 0 0 0 293.03125 153.40234 A 7.5136094 7.5136094 0 0 0 300 148.67383 L 300 143.10352 A 7.5136094 7.5136094 0 0 0 293.03125 138.375 z M 9.078125 164.04688 A 19.723228 19.723228 0 0 0 0 166.5332 L 0 201.00977 A 19.723228 19.723228 0 0 0 9.078125 203.49414 A 19.723228 19.723228 0 0 0 28.802734 183.76953 A 19.723228 19.723228 0 0 0 9.078125 164.04688 z " /><circle
     style="fill:#ffffff;fill-opacity:1;fill-rule:evenodd;stroke-width:0.53125"
     id="circle3830"
     cx="26.297646"
     cy="253.58441"
     r="10.644281" /><circle
     style="fill:#ffffff;fill-opacity:1;fill-rule:evenodd;stroke-width:0.359375"
     id="circle3832"
     cx="235.11343"
     cy="62.926514"
     r="7.2005429" /><circle
     style="fill:#ffffff;fill-opacity:1;fill-rule:evenodd;stroke-width:0.640625"
     id="circle3852"
     cx="55.412891"
     cy="162.48186"
     r="12.835752" /><circle
     style="fill:#ffffff;fill-opacity:0.519894;fill-rule:evenodd;stroke-width:0.640625"
     id="circle3856"
     cx="59.169697"
     cy="324.02451"
     r="12.835752" /><circle
     style="fill:#ffffff;fill-opacity:0.519894;fill-rule:evenodd;stroke-width:0.375"
     id="circle3858"
     cx="205.37207"
     cy="312.44101"
     r="7.5136099" /><circle
     style="fill:#ffffff;fill-opacity:0.519894;fill-rule:evenodd;stroke-width:0.375"
     id="circle3860"
     cx="26.297655"
     cy="314.94556"
     r="7.5136099" /><circle
     style="fill:#ffffff;fill-opacity:0.519894;fill-rule:evenodd;stroke-width:0.828125"
     id="circle3836"
     cx="254.52361"
     cy="319.64157"
     r="16.592558" /><circle
     style="fill:#ffffff;fill-opacity:1;fill-rule:evenodd;stroke-width:0.40625"
     id="circle3838"
     cx="19.410172"
     cy="124.60076"
     r="8.1397438" /><circle
     style="fill:#ffffff;fill-opacity:1;fill-rule:evenodd;stroke-width:1.01563"
     id="circle3842"
     cx="75.449203"
     cy="253.27138"
     r="20.349363" /><circle
     style="fill:#ffffff;fill-opacity:1;fill-rule:evenodd;stroke-width:0.98438"
     id="circle3846"
     cx="263.28946"
     cy="254.52364"
     r="19.723228" /><circle
     style="fill:#ffffff;fill-opacity:1;fill-rule:evenodd;stroke-width:0.375002"
     id="circle3850"
     cx="229.79126"
     cy="284.89114"
     r="7.5136094" /><circle
     style="fill:#ffffff;fill-opacity:1;fill-rule:evenodd;stroke-width:0.375002"
     id="path3818"
     cx="289.90015"
     cy="205.99823"
     r="7.5136094" /><path
     id="path2322"
     style="opacity:1;fill:#14612b;fill-opacity:1;stroke-width:2.5;stroke-linejoin:round;paint-order:markers fill stroke;stop-color:#000000"
     d="M 92.808594,219.70898 40.40625,258.85156 0,252.86523 v 9.14454 c 0,4.84499 0.93769588,9.46297 2.6422421,13.68311 5.386141,13.33507 18.4291029,22.69774 33.7386169,22.69774 h 24.65625 l 24.195313,-23.75585 30.935548,-12.62696 37.24805,-3.15625 v -35.98633 z"
     sodipodi:nodetypes="cccssscccccc" /><path
     id="path2257"
     style="opacity:1;fill:#0fa213;fill-opacity:1;stroke-width:2.5;stroke-linejoin:round;paint-order:markers fill stroke;stop-color:#000000"
     d="m 0,133.03125 v 112.59961 c 15.592511,8.18585 39.659295,-11.2534 58.785156,-8.5918 13.110051,1.82443 34.538896,15.94633 34.538896,15.94633 l 8.998218,-41.62601 c -1.04035,-13.52454 -30.912999,-21.05613 -40.335942,-25.28126 -15.689415,-7.03493 -18.15625,-48.2832 -18.15625,-48.2832 -2.140819,-2.80562 -0.743438,-6.4958 0.369496,-10.11486 l -2.854961,-2.05878 c -5.284967,3.66961 -7.108181,7.33923 -8.231777,11.00884 -3.163559,-3.49984 -4.84306,-7.21169 -2.152683,-11.5478 l -6.016494,-4.19894 c -2.336439,4.39429 -5.406044,8.29981 -5.370932,14.27513 l -3.81668,-12.64062 -4.458561,2.91644 c -1.03083,3.10635 0.0653,6.24602 -2.1857,7.48778 -1.3077765,0.72143 -2.1211161,-7.80952 -1.0061434,-8.54549 -0.5935144,-0.0195 -3.0362187,-0.78363 -3.9689588,-1.05601 C 1.987232,122.69292 -0.16362142,132.79239 0,133.03125 Z"
     sodipodi:nodetypes="ccsccscccccccccscsc" /><path
     style="opacity:1;fill:#0fa213;stroke-width:2.5;stroke-linejoin:round;paint-order:markers fill stroke;stop-color:#000000;fill-opacity:1"
     d="m 102.18393,211.12737 -8.880631,41.86811 c 15.507281,-11.49366 34.114811,-13.68661 52.931681,-15.2515 -21.78535,6.56855 -35.57713,17.13388 -48.710475,28.02843 -2.833047,2.35011 -6.207617,7.07091 -6.921591,10.67805 -1.727378,8.72706 -0.844146,18.32433 2.182161,28.63596 0.723198,2.46418 3.497928,4.37703 6.059233,4.1897 32.445322,-2.37311 54.505382,-18.92883 84.024802,-40.64049 -9.96565,-15.62678 -15.03484,-34.6889 -22.5863,-62.51117 -1.31229,-4.83497 -6.349,-7.85988 -11.28019,-6.97727 -16.0542,2.87347 -32.59145,4.5393 -46.81869,11.98018 z"
     id="path967"
     sodipodi:nodetypes="cccccccc"
     inkscape:path-effect="#path-effect1065"
     inkscape:original-d="m 102.18393,211.12737 -8.880631,41.86811 c 15.507281,-11.49366 34.114811,-13.68661 52.931681,-15.2515 -24.625,7.42474 -39.03674,19.9561 -53.828828,32.2973 -4.274218,11.53405 -3.254874,24.83262 1.794294,39.47447 35.032714,-1.06841 57.762304,-18.14836 88.668664,-40.88012 -10.9776,-17.21358 -16.01384,-38.59561 -24.97122,-71.26327 -18.71401,4.22827 -38.83891,4.92932 -55.71396,13.75501 z" /><path
     id="path2942"
     d="m 168.56055,236.2327 c 0.38551,11.15101 -12.13261,39.46849 -18.58008,55.32199 10.53128,-6.44601 21.11653,-14.26146 32.88867,-22.91992 -3.91726,-6.14252 -7.07348,-12.82797 -9.92578,-20.35547 z"
     style="fill:#14612b;fill-opacity:0.437811"
     sodipodi:nodetypes="ccccc" /><path
     d="M153.48,328.52c-3.83-5.37,24.26-83.75,23.49-94.8,0-.2,0-.42-.06-.62,13.17-4.8,29.66-8.17,44.45-3.39a19,19,0,0,1,8.37,5.67,90.59,90.59,0,0,1-1.18,10.25c-1.52,8.57-10.65,23-14.3,29C187.18,319,157.31,333.88,153.48,328.52Z"
     fill="#15141a"
     id="path41" /><path
     d="m 177,233.72 c -0.36678,7.042 -2.68709,13.80345 -4.41942,20.59859 -5.85634,21.06013 -12.86166,41.80214 -17.99058,63.06141 0.84205,3.24983 -2.60986,7.59874 -1.11,11.13 2.87634,2.38734 6.92905,0.15239 9.93486,-0.99383 L 163.92,327.28 c -4.35185,-5.54499 -1.85718,-11.94783 0.0225,-17.68776 7.39127,-22.54774 16.4127,-44.56871 22.71084,-67.46753 0.67961,-3.93282 2.86193,-8.48847 0.2267,-12.14471 -3.04223,1.19653 -8.15711,1.56412 -9.88,3.74 z"
     id="path55" /><path
     id="path3823"
     style="color:#000000;fill:#c9ffd9;stroke-linejoin:round;paint-order:markers fill stroke"
     d="M 5.9238281,147.92578 C 4.0554253,148.1389 1.264093,147.87881 0,148.96303 c 0,3.5924 0,7.1848 0,10.7772 2.7297207,-0.54074 5.5225528,-1.18424 8.3183594,-0.91015 2.8163486,0.93363 4.6796146,3.48219 6.6693696,5.5371 3.412833,3.9598 6.895843,8.3972 12.105769,9.98794 5.667423,1.76351 11.746103,-0.31962 16.431449,-3.60821 1.819776,-1.19859 3.473198,-2.6303 5.205214,-3.94029 0.290424,-1.60828 -1.09515,-4.07822 -1.344148,-6.05084 -0.552925,-1.35352 -0.445489,-3.77183 -1.321629,-4.47401 -3.35401,0.9809 -5.641473,3.7903 -8.642958,5.42244 -2.016262,1.08176 -4.088476,2.52115 -6.44723,2.56455 -2.747083,-0.68397 -4.501557,-3.17882 -6.355837,-5.13031 -3.345403,-4.02278 -6.806559,-8.41943 -11.945273,-10.17389 -2.158438,-0.76776 -4.4656177,-1.05935 -6.7492579,-1.03878 z" /><path
     id="path3846"
     style="color:#000000;fill:#c9ffd9;stroke-linejoin:round;paint-order:markers fill stroke"
     d="M 143.34961 200.11523 C 143.22109 200.13664 143.09338 200.16028 142.96484 200.18164 C 140.94843 200.51672 138.92921 200.84729 136.91406 201.18555 C 136.56222 201.24461 136.21293 201.3095 135.86133 201.36914 C 136.1471 202.18916 136.43631 203.02099 136.7207 203.93164 C 138.19051 208.63807 139.18438 214.4264 138.67383 216.86719 C 138.1173 219.5278 135.05563 222.35341 131.22461 225.63086 C 127.39359 228.90831 122.61347 232.96912 122.54688 239.43164 C 122.5423 239.87572 122.56316 240.3142 122.59766 240.75 C 123.49821 240.56794 124.39934 240.38838 125.30664 240.22656 C 126.44747 240.02309 127.59391 239.83543 128.74414 239.66016 C 129.17812 239.59403 129.6156 239.53909 130.05078 239.47656 C 130.0969 236.91858 132.40784 234.4884 136.09961 231.33008 C 139.80743 228.15802 144.72268 224.5836 146.01562 218.40234 C 147.16297 212.91724 145.4909 206.85707 143.87891 201.69531 C 143.70337 201.13322 143.52762 200.64859 143.34961 200.11523 z " /><path
     id="path3865"
     style="color:#000000;fill:#c9ffd9;stroke-linejoin:round;paint-order:markers fill stroke"
     d="M 125.72461 246.10352 C 125.38991 246.27933 125.04348 246.44909 124.71289 246.62695 C 123.66154 247.1926 122.62937 247.76828 121.61719 248.35352 C 120.605 248.93875 119.61136 249.53369 118.63477 250.13672 C 118.21381 250.39665 117.8074 250.66278 117.39258 250.92578 C 117.35634 252.42272 117.45965 253.90746 117.76172 255.35156 C 119.05467 261.53282 123.96993 265.10919 127.67773 268.28125 C 131.38555 271.45331 133.70593 273.88876 133.73242 276.45898 C 133.75692 278.83574 131.19144 283.7206 127.75781 287.88672 C 124.1314 292.28676 124.78879 297.84247 125.74805 301.94922 C 125.86464 302.44838 125.99121 302.93318 126.12305 303.40234 C 126.33601 303.32427 126.55128 303.25129 126.76367 303.17188 C 128.49474 302.52464 130.20644 301.8334 131.9043 301.09961 C 132.31496 300.92212 132.71791 300.7195 133.12695 300.53711 C 133.10252 300.43803 133.07421 300.34442 133.05078 300.24414 C 132.31645 297.10037 132.45812 293.97685 133.54492 292.6582 C 137.40979 287.96886 141.29628 282.58135 141.23242 276.38281 C 141.16582 269.92029 136.38569 265.85948 132.55469 262.58203 C 128.72367 259.30458 125.66005 256.47702 125.10352 253.81641 C 124.77426 252.24234 125.07778 249.27401 125.72461 246.10352 z " /><path
     id="path3938"
     style="color:#000000;fill:#64a778;stroke-width:0.777538;stroke-linejoin:round;paint-order:markers fill stroke;fill-opacity:1"
     d="M 9.2421875 254.23438 C 10.841155 256.9927 13.944621 259.60838 15.392578 262.01758 C 16.477278 263.8387 17.785497 265.6667 18.333984 267.96094 C 18.53976 270.73134 17.458128 272.77602 16.71875 274.8457 C 15.088862 278.64701 13.264253 282.61145 13.369141 287.85742 C 13.378816 288.68241 13.444911 289.51933 13.535156 290.35938 C 15.881247 292.2498 18.477263 293.83781 21.253906 295.10352 C 20.795717 293.69033 20.394653 292.25414 20.150391 290.78125 C 20.076441 287.90985 21.165235 285.75277 21.935547 283.53711 C 23.51336 279.67849 25.357818 275.68606 25.140625 270.39258 C 24.940549 265.07337 22.729252 259.85455 20.048828 255.83594 L 9.2421875 254.23438 z " /></svg>
