<?xml version="1.0" encoding="UTF-8"?>
<svg id="Layer_1" data-name="Layer 1" xmlns="http://www.w3.org/2000/svg" xmlns:xlink="http://www.w3.org/1999/xlink" viewBox="0 0 81.495 90.56423">
  <defs>
    <style>
      .cls-1 {
        fill: #802109;
      }

      .cls-2 {
        opacity: .49;
      }

      .cls-2, .cls-3 {
        fill: #9f603f;
      }

      .cls-4 {
        fill: #eae2d3;
      }

      .cls-5 {
        fill: #ac9a73;
      }

      .cls-6 {
        fill: #ae9c76;
      }

      .cls-7 {
        fill: #c22503;
      }

      .cls-8 {
        fill: #891d06;
      }

      .cls-9 {
        fill: url(#linear-gradient);
      }

      .cls-10 {
        fill: #aa2907;
      }
    </style>
    <linearGradient id="linear-gradient" x1="146.95429" y1="153.53979" x2="146.95429" y2="176.03795" gradientTransform="translate(-78.1512 -121.11269)" gradientUnits="userSpaceOnUse">
      <stop offset="0" stop-color="#656477" stop-opacity="0"/>
      <stop offset="1" stop-color="#1e1e28"/>
    </linearGradient>
  </defs>
  <rect class="cls-9" x="44.78191" y="32.59014" width="48.04235" height="25.38376" transform="translate(114.08511 -23.52106) rotate(90)"/>
  <g>
    <g>
      <polygon class="cls-10" points="56.11121 45.28212 54.94781 28.97517 61.71307 24.47718 58.51575 3.0807 36.9563 14.85621 36.9563 45.28212 36.9563 75.70802 58.51575 87.48353 61.71307 66.08705 54.94781 61.58906 56.11121 45.28212"/>
      <polygon class="cls-3" points="2.95496 28.97517 2.95496 45.2779 2.95496 45.28633 2.95496 61.58906 36.10968 61.58906 36.10968 45.28633 36.10968 45.2779 36.10968 28.97517 2.95496 28.97517"/>
      <polygon class="cls-10" points="17.06446 16.39147 29.95948 4.22961 56.1112 4.22961 54.94778 18.60308 17.06446 16.39147"/>
      <path class="cls-8" d="M50.09697,33.408s.54612-10.4247-3.97602-6.66825,5.06028-4.75163,5.06028-4.75163l.27751,9.47621-1.36177,1.94367Z"/>
      <polygon class="cls-3" points="5.60924 25.42657 18.0341 15.62667 51.45874 15.97667 49.88376 19.12664 36.95629 27.17655 5.60924 25.42657"/>
      <path class="cls-6" d="M52.74689,16.39147H17.8009L2.95495,25.33672l4.60957,.38761,10.16564-6.19497c.77634-.47311,1.66594-.72802,2.57503-.73787l29.17331-.31607,3.26839-2.08396Z"/>
      <polygon class="cls-5" points="54.94781 21.03663 58.72158 22.60636 58.20742 15.62667 52.30877 14.85621 52.74689 20.11641 54.94781 21.03663"/>
      <polygon class="cls-6" points="54.94781 21.03663 54.94781 17.64235 46.34229 20.73402 43.63275 23.80146 38.21777 23.80146 38.21777 45.2779 38.21777 45.28633 38.21777 66.76277 43.63275 66.76277 46.34229 69.83021 54.94781 72.92189 54.94781 69.5276 43.26892 61.98176 42.65118 45.28212 43.26892 28.58247 54.94781 21.03663"/>
      <path class="cls-7" d="M30.89653,5.6933l-5.4149,4.9554c-1.05957,.96966-.39232,2.75614,1.03373,2.76769l24.31708,.19686c.63436,.00514,1.20886-.37973,1.45407-.9741l2.08658-5.05777c.43052-1.04356-.32088-2.19668-1.43468-2.20169l-20.98875-.09449c-.38878-.00175-.76425,.14375-1.05312,.4081Z"/>
      <polygon class="cls-10" points="17.06446 74.17277 29.95948 86.33462 56.1112 86.33462 54.94778 71.96115 17.06446 74.17277"/>
      <path class="cls-8" d="M50.09697,57.15623s.54612,10.4247-3.97602,6.66825,5.06028,4.75163,5.06028,4.75163l.27751-9.47621-1.36177-1.94367Z"/>
      <polygon class="cls-3" points="5.60924 65.13766 18.0341 74.93756 51.45874 74.58756 49.88376 71.4376 36.95629 63.38768 5.60924 65.13766"/>
      <path class="cls-6" d="M52.74689,74.17277H17.8009l-14.84595-8.94525,4.60957-.38761,10.16564,6.19497c.77634,.47311,1.66594,.72802,2.57503,.73787l29.17331,.31607,3.26839,2.08396Z"/>
      <path class="cls-5" d="M55.35022,45.28633v-13.40698l5.60791-6.15503-2.63898-5.60791-6.62695,8.99646c-1.05231,1.42859-1.62,3.15637-1.62,4.93066v22.47717c0,1.77429,.56769,3.50208,1.62,4.93066l6.62695,8.99646,2.63898-5.60791-5.60791-6.15503v-13.39856Z"/>
      <path class="cls-6" d="M10.35883,34.15211c0-1.57001,1.46002-2.84003,3.26001-2.84003h27.97998v-4.67999H8.07886c-1.90002,0-3.42999,1.34003-3.42999,2.97998v31.34009c0,1.63995,1.52997,2.97998,3.42999,2.97998H41.59882v-4.67999H13.61884c-1.79999,0-3.26001-1.27002-3.26001-2.84003v-22.26001Z"/>
      <g>
        <path class="cls-2" d="M10.35883,35.96211v-1.81c0-1.57001,1.46002-2.84003,3.26001-2.84003h23.07001c.15997-.57001,.27002-.95996,.27002-.95996l-6.55005-3.72003s-26.39996,.82001-23.5,3.29999c2.90002,2.48004,3.45001,6.03003,3.45001,6.03003Z"/>
        <path class="cls-2" d="M13.61884,59.25215c-1.79999,0-3.26001-1.27002-3.26001-2.84003v-1.81s-.54999,3.54999-3.45001,6.03003c-2.89996,2.47998,23.5,3.29999,23.5,3.29999l6.55005-3.72003s-.11005-.38995-.27002-.95996H13.61884Z"/>
      </g>
      <polygon class="cls-5" points="54.94781 69.5276 58.72158 67.95787 58.20742 74.93756 52.30877 75.70802 52.74689 70.44783 54.94781 69.5276"/>
      <path class="cls-7" d="M30.89653,84.87093l-5.4149-4.9554c-1.05957-.96966-.39232-2.75614,1.03373-2.76769l24.31708-.19686c.63436-.00514,1.20886,.37973,1.45407,.9741l2.08658,5.05777c.43052,1.04356-.32088,2.19668-1.43468,2.20169l-20.98875,.09449c-.38878,.00175-.76425-.14375-1.05312-.4081Z"/>
      <path class="cls-8" d="M46.52032,32.17677l-1.24733,1.12036c-.19147,.172-.31687,.43622-.34589,.72894l-1.11687,11.25183h-.00086l.0004,.00421-.0004,.00421h.00086l1.11687,11.25183c.02901,.29272,.15442,.55695,.34589,.72894l1.24733,1.12036c.55919,.50226,1.33795,.00215,1.33795-.85931v-24.49207c0-.86145-.77876-1.36157-1.33795-.85931Z"/>
      <path class="cls-4" d="M53.09174,71.71418l-13.59943-8.84894V27.69899l13.59943-8.84894c.96588-.62848,1.12573-1.97876,.33331-2.81537l-1.11627-1.17847H18.87646c-.99036,0-1.96191,.27008-2.81018,.78119L1.78522,24.24226c-.11713,.06476-.23364,.12842-.34186,.20599l-.04803,.02893,.01379-.00067c-.85046,.62579-1.40912,1.62573-1.40912,2.76263V63.32508c0,1.1369,.55865,2.13684,1.40912,2.76263l-.01379-.00067,.04803,.02893c.10822,.07758,.22473,.14124,.34186,.20599l14.28107,8.60486c.84827,.51111,1.81982,.78119,2.81018,.78119H52.30878l1.11627-1.17847c.79242-.83661,.63257-2.18689-.33331-2.81537ZM17.40887,17.92292c.69989-.42651,1.50183-.65631,2.32141-.66522l28.99597-.31409-11.76996,6.85785H7.76251l9.64636-5.87854Zm15.31818,11.27368V61.36763H8.97461c-1.80286,0-3.2644-1.46149-3.2644-3.26434v-25.64233c0-1.80286,1.46155-3.26434,3.2644-3.26434h23.75244Zm-12.99677,44.10992c-.81958-.00891-1.62152-.23871-2.32141-.66522l-9.64636-5.87854h29.19379l11.76996,6.85785-28.99597-.31409Z"/>
      <path class="cls-4" d="M57.58679,45.28633v-13.40698l5.60791-6.15503-2.63898-5.60791-6.62695,8.99646c-1.05231,1.42859-1.62,3.15637-1.62,4.93066v22.47717c0,1.77429,.56769,3.50208,1.62,4.93066l6.62695,8.99646,2.63898-5.60791-5.60791-6.15503v-13.39856Z"/>
      <path class="cls-2" d="M62.11884,26.91212l-4.52997,4.96997c-7.43005-1.31-7.52002,2.5-7.52002,2.5v-.33997c0-1.77002,.57001-3.5,1.62-4.93005l5.87-7.96997,1.38731-1.80502,.86269,1.79501,2.31,5.78003Z"/>
      <path class="cls-2" d="M62.11884,63.65211l-4.52997-4.96997c-7.43005,1.31-7.52002-2.5-7.52002-2.5v.33997c0,1.77002,.57001,3.5,1.62,4.93005l5.87,7.96997,1.38731,1.80502,.86269-1.79501,2.31-5.78003Z"/>
      <g>
        <path class="cls-8" d="M63.04697,.22434s13.42678,3.4993,17.58321,9.6864c0,0,.86478,9.71467,.86478,12.53936s-1.27091,3.55056-1.27091,3.55056c0,0-16.4533,.03551-16.57406-.24148S59.39725,2.87678,59.39725,2.87678L63.04697,.22434Z"/>
        <path class="cls-10" d="M59.40835,2.73778s13.42678,3.4993,17.58321,9.6864c0,0,.86478,9.71467,.86478,12.53936s-1.35725,.98011-1.35725,.98011l-15.92075-.57482c-.12075-.27699-4.81971-19.9786-4.81971-19.9786l3.64972-2.65245Z"/>
        <path class="cls-3" d="M72.11633,14.04756c3.05951-3.01593,6.0932-5.4516,7.59723-5.05347,0,0-2.05389-3.56726-3.24292-3.24292-.54437,.14844-3.15253,3.17474-5.93872,6.28015C66.0105,6.18391,61.82153,.0279,61.82153,.0279c0,0-2.79327,7.84875,.14771,5.57874,1.28717-.99353,4.58026,2.71454,7.8725,7.19122-3.08868,3.41559-6.20575,6.64807-6.82935,5.95221-1.23608-1.37927,.21625,5.21558,.21625,5.21558,0,0,3.94647-4.91071,8.08667-9.1156,3.11566,4.43268,5.95416,9.03088,6.73999,10.32239,.14349,.23584,.21857,.36139,.21442,.35547l-.10809,.29303,2.10791,.91882v-4.48608c-1.72748-.63202-4.91119-4.15051-8.1532-8.20612Z"/>
        <path class="cls-5" d="M73.53064,14.48036c2.88647-2.78613,5.67725-4.94611,7.09955-4.56964,0,0-2.05383-3.5672-3.24292-3.24292-.51398,.1402-2.86786,2.84607-5.47406,5.76147C67.33258,6.52272,63.047,.22432,63.047,.22432c0,0-2.79327,7.84875,.14771,5.57867,1.30707-1.00885,4.68243,2.83105,8.02496,7.40009-3.23303,3.59528-6.63593,7.19415-7.29059,6.46362-1.23608-1.37927,.21619,5.21558,.21619,5.21558,0,0,4.25525-5.29425,8.56421-9.59564,3.04895,4.35736,5.79968,8.81396,6.57129,10.08215,.14349,.2359,.21857,.36145,.21442,.35553l-.10809,.29303,2.10791,.91882v-4.48608c-1.69391-.61975-4.78802-4.01428-7.96436-7.96973Z"/>
        <rect class="cls-5" x="59.37581" y=".23232" width="5.29204" height="25.6307" transform="translate(-1.15509 7.98551) rotate(-7.29907)"/>
        <polygon class="cls-5" points="61.71304 26.63149 81.49497 26.93617 81.06258 25.04445 62.84807 23.80148 61.71304 26.63149"/>
        <path class="cls-4" d="M63.76578,26.6631l-2.21784,.19631c-1.68026,.21522-2.30867-.27049-2.52388-1.95074l-2.91285-22.17089c-.21522-1.68026,.39542-1.90373,2.07568-2.11895l2.20678-.28266,3.37212,26.32693Z"/>
      </g>
      <g>
        <path class="cls-8" d="M63.04697,90.33989s13.42678-3.4993,17.58321-9.6864c0,0,.86478-9.71467,.86478-12.53936s-1.27091-3.55056-1.27091-3.55056c0,0-16.4533-.03551-16.57406,.24148s-4.25275,22.88239-4.25275,22.88239l3.64972,2.65245Z"/>
        <path class="cls-10" d="M59.40835,87.82646s13.42678-3.4993,17.58321-9.6864c0,0,.86478-9.71467,.86478-12.53936s-1.35725-.98011-1.35725-.98011l-15.92075,.57482c-.12075,.27699-4.81971,19.9786-4.81971,19.9786l3.64972,2.65245Z"/>
        <path class="cls-3" d="M72.11633,76.51667c3.05951,3.01593,6.0932,5.4516,7.59723,5.05347,0,0-2.05389,3.56726-3.24292,3.24292-.54437-.14844-3.15253-3.17474-5.93872-6.28015-4.52142,5.84741-8.71039,12.00342-8.71039,12.00342,0,0-2.79327-7.84875,.14771-5.57874,1.28717,.99353,4.58026-2.71454,7.8725-7.19122-3.08868-3.41559-6.20575-6.64807-6.82935-5.95221-1.23608,1.37927,.21625-5.21558,.21625-5.21558,0,0,3.94647,4.91071,8.08667,9.1156,3.11566-4.43268,5.95416-9.03088,6.73999-10.32239,.14349-.23584,.21857-.36139,.21442-.35547l-.10809-.29303,2.10791-.91882v4.48608c-1.72748,.63202-4.91119,4.15051-8.1532,8.20612Z"/>
        <path class="cls-5" d="M73.53064,76.08387c2.88647,2.78613,5.67725,4.94611,7.09955,4.56964,0,0-2.05383,3.5672-3.24292,3.24292-.51398-.1402-2.86786-2.84607-5.47406-5.76147-4.58063,5.90656-8.86621,12.20496-8.86621,12.20496,0,0-2.79327-7.84875,.14771-5.57867,1.30707,1.00885,4.68243-2.83105,8.02496-7.40009-3.23303-3.59528-6.63593-7.19415-7.29059-6.46362-1.23608,1.37927,.21619-5.21558,.21619-5.21558,0,0,4.25525,5.29425,8.56421,9.59564,3.04895-4.35736,5.79968-8.81396,6.57129-10.08215,.14349-.2359,.21857-.36145,.21442-.35553l-.10809-.29303,2.10791-.91882v4.48608c-1.69391,.61975-4.78802,4.01428-7.96436,7.96973Z"/>
        <rect class="cls-5" x="59.37581" y="64.70121" width="5.29204" height="25.6307" transform="translate(10.35095 -7.25162) rotate(7.29907)"/>
        <polygon class="cls-5" points="61.71304 63.93274 81.49497 63.62807 81.06258 65.51978 62.84807 66.76275 61.71304 63.93274"/>
        <path class="cls-4" d="M63.76578,63.90113l-2.21784-.19631c-1.68026-.21522-2.30867,.27049-2.52388,1.95074l-2.91285,22.17089c-.21522,1.68026,.39542,1.90373,2.07568,2.11895l2.20678,.28266,3.37212-26.32693Z"/>
      </g>
      <path class="cls-3" d="M11.99139,33.94844l-3.45007,3.45001v15.76733l3.45007,3.45001v-22.66736Z"/>
      <path class="cls-1" d="M8.63938,43.13569s-1.32502-10.62347,.68824-11.83859,23.39943-.95534,23.39943-.95534v1.63473s-19.24303-.1782-20.67179,1.43151-3.41588,9.72769-3.41588,9.72769Z"/>
      <path class="cls-1" d="M8.63938,47.42854s-1.32502,10.62347,.68824,11.83859,23.39943,.95534,23.39943,.95534v-1.63473s-19.24303,.1782-20.67179-1.43151-3.41588-9.72769-3.41588-9.72769Z"/>
    </g>
    <g>
      <path class="cls-10" d="M20.49286,54.99881c-.59207-.00947-1.15257-.26869-1.54321-.71371-.47011-.53158-.69375-1.23704-.61575-1.94238l.27838-2.74627-6.21173,.6817c-.08923,.00991-.17893,.01501-.26871,.01527-1.11095-.03448-2.09301-.73149-2.49219-1.76883l-1.75424-4.16937c-.42476-1.00461-.3255-2.15423,.26518-3.07116,.46423-.73892,1.27248-1.19091,2.14509-1.19958,.07012,0,.14092,.00284,.21174,.00972l7.19124,.59979-.54356-2.15758c-.20012-.74375-.04368-1.53827,.42346-2.15063,.38139-.50895,.97738-.81208,1.61332-.82055,.40721,.00345,.80386,.13002,1.13781,.36307l9.44738,6.43456c1.06032,.75381,1.68324,1.97994,1.66678,3.28081,.03607,1.26178-.54856,2.46113-1.56474,3.20999l-8.24713,5.77577c-.33234,.23802-.73034,.36708-1.13912,.36938Z"/>
      <path class="cls-4" d="M19.19224,36.2765c.26451,.00294,.52185,.08635,.73779,.23914l9.4475,6.43426c1.48945,1.10794,1.79873,3.21353,.69079,4.70298-.17189,.23107-.37275,.43909-.59767,.61896l-8.24602,5.77648c-.21301,.15397-.46871,.23771-.73152,.23958-.88902-.07876-1.54587-.8633-1.46711-1.75232,.00362-.0409,.0088-.08164,.01553-.12214l.36608-3.61923-7.08447,.77787c-.06321,.00695-.12675,.01043-.19034,.01043-.82549-.03327-1.55015-.55926-1.8376-1.33379l-1.75424-4.1692c-.56742-1.11925-.12008-2.48656,.99917-3.05399,.23674-.12002,.49268-.19763,.7562-.22931,.05006,0,.10094,.0021,.15212,.00637l8.18291,.68307-.78711-3.12236c-.27926-.83193,.16876-1.73274,1.00069-2.012,.11262-.03781,.22912-.06286,.34733-.0747m.00021-1.42173h0c-.85545,.00754-1.65893,.41181-2.1748,1.09426-.60261,.78503-.80654,1.80537-.552,2.76172l.30061,1.19245-6.19953-.51751c-.09108-.00759-.18143-.01137-.27035-.01137-1.11158,.00639-2.14346,.57815-2.73825,1.51724-.73001,1.11235-.85304,2.51682-.32755,3.73914l1.75427,4.1692c.50952,1.30178,1.75048,2.17065,3.14802,2.20413,.11545,0,.23082-.00632,.34558-.01894l5.3379-.58609-.18926,1.87115c-.09835,.90566,.19043,1.81074,.79514,2.49207,.52585,.59366,1.27795,.93765,2.07096,.9472,.55464-.00206,1.09507-.17561,1.54721-.49685l8.24602-5.77648c1.20789-.88252,1.90604-2.30139,1.86825-3.79684,.01516-1.53454-.7236-2.97884-1.97675-3.86464l-9.44753-6.4342c-.45199-.31317-.98804-.48249-1.53791-.48577l-.00002,.00012Z"/>
    </g>
  </g>
</svg>