<?xml version="1.0" encoding="UTF-8"?>
<svg id="Layer_1" data-name="Layer 1" xmlns="http://www.w3.org/2000/svg" xmlns:xlink="http://www.w3.org/1999/xlink" viewBox="0 0 66.99984 69.80949">
  <defs>
    <style>
      .cls-1 {
        fill: #297d3a;
      }

      .cls-2 {
        fill: #3f3f53;
      }

      .cls-3 {
        fill: #46505c;
      }

      .cls-4, .cls-5 {
        fill: #7e8e9b;
      }

      .cls-6 {
        fill: #515c66;
      }

      .cls-7 {
        fill: #8d9eae;
      }

      .cls-5 {
        opacity: .58;
      }

      .cls-8 {
        fill: #334;
      }

      .cls-9 {
        fill: url(#linear-gradient);
      }

      .cls-10 {
        fill: #abb6b8;
      }
    </style>
    <linearGradient id="linear-gradient" x1="33.13424" y1="-.10045" x2="33.13424" y2="13.76126" gradientUnits="userSpaceOnUse">
      <stop offset="0" stop-color="#656477" stop-opacity="0"/>
      <stop offset="1" stop-color="#1e1e28"/>
    </linearGradient>
  </defs>
  <rect class="cls-9" x="9.11307" width="48.04235" height="15.6396"/>
  <g>
    <g>
      <path class="cls-10" d="M63.82577,52.13126l-30.69153,11.99951L2.44277,52.13126s-.09607,2.30591,0,3.26666c.07153,.71582,6.59656,8.36505,9.91882,12.21869,1.20154,1.39374,2.94727,2.19287,4.78741,2.19287h31.97052c1.84009,0,3.58582-.79913,4.78735-2.19287,3.32233-3.85364,9.84729-11.50287,9.91888-12.21869,.09607-.96075,0-3.26666,0-3.26666Z"/>
      <path class="cls-7" d="M62.34426,47.15977l-5.85999,2.75-23.35004,10.95001-23.35004-10.95001-5.85999-2.75s-1.58002,4.01001-1.47998,4.97003c.07001,.71997,6.59998,8.37,9.91998,12.21997,.53998,.63,1.20001,1.14001,1.91998,1.5l.01001,.01001c.87,.44,1.84998,.67999,2.84998,.67999h31.9801c1,0,1.97998-.23999,2.84998-.67999l.01001-.01001c.71997-.35999,1.38-.87,1.91998-1.5,3.32001-3.84998,9.84998-11.5,9.91998-12.21997,.10004-.96002-1.47998-4.97003-1.47998-4.97003Z"/>
      <path class="cls-7" d="M64.16427,8.07975c-.03186-.08838-.08521-.15869-.12347-.24194l-.00653-.01801-.00183,.00165c-.88287-1.89038-3.36285-2.44458-4.95819-1.01166l-7.03998,6.38c-.53003,.46997-1.15997,.81-1.84003,.97998-.34998,.09998-.71997,.15002-1.08997,.15002H17.16421c-.37,0-.73999-.05005-1.08997-.15002-.68005-.16998-1.31-.51001-1.84003-.97998L7.19424,6.80979c-1.59534-1.43292-4.07532-.87872-4.95819,1.01166l-.00183-.00165-.00653,.01801c-.03827,.08325-.09161,.15356-.12347,.24194l-.64001,1.75,.03003,.03003,10.63,9.71002,2.23999,2.03998H51.90426l2.23999-2.03998,10.63-9.71002,.03003-.03003-.64001-1.75Z"/>
      <polygon class="cls-3" points="51.18429 24.16978 33.13424 24.16978 15.08419 24.16978 9.4642 36.97978 13.51424 55.40977 15.08419 62.52976 33.13424 62.52976 51.18429 62.52976 52.75423 55.40977 56.80428 36.97978 51.18429 24.16978"/>
      <path class="cls-4" d="M14.2842,65.84977c-.71997-.35999-1.38-.87-1.91998-1.5-3.32001-3.84998-9.84998-11.5-9.91998-12.21997-.10004-.96002,1.47998-4.97003,1.47998-4.97003l5.85999,2.75,5.29999,12.62s-3.06995,.84003-.79999,3.32001Z"/>
      <path class="cls-6" d="M26.91421,62.52976H15.08419l-1.56995-7.12c.50995-1.53998,1.06-2.70996,1.56995-2.89001,0,0,2.42004,7.65002,3.12,8.34003,.70001,.70001,8.71002,1.66998,8.71002,1.66998Z"/>
      <path class="cls-2" d="M15.08419,22.29978V62.52976c-2.14996-.83997-7.87-9.27997-10.20996-12.84998-.67004-1.02002-1.02002-2.21002-1.02002-3.42999V13.79978l11.22998,8.5Z"/>
      <path class="cls-8" d="M15.08419,53.55979v8.96997c-2.14996-.83997-7.87-9.27997-10.20996-12.84998-.67004-1.02002-1.02002-2.21002-1.02002-3.42999V14.89976l2.52002,3.73999s-.62,23.14001,1.85999,26.66003c2.47998,3.51001,6.84998,8.26001,6.84998,8.26001Z"/>
      <path class="cls-6" d="M13.77838,25.46877l1.30569,26.18215s.97233-22.38856,2.02591-23.61773,8.07744-2.27391,8.07744-2.27391l-11.40904-3.08178v2.79128Z"/>
      <path class="cls-4" d="M14.31423,20.51975l-2.19-.94995L1.4642,9.82975l.64001-1.75c.76001-2.10999,3.41998-2.76996,5.09003-1.26996l7.03998,6.38c.53003,.46997,1.15997,.81,1.84003,.97998-4.5,4.16998-1.94,6.21997-1.76001,6.34998Z"/>
      <path class="cls-4" d="M51.98428,65.84977c.71997-.35999,1.38-.87,1.91998-1.5,3.32001-3.84998,9.84998-11.5,9.91998-12.21997,.10004-.96002-1.47998-4.97003-1.47998-4.97003l-5.85999,2.75-5.29999,12.62s3.06995,.84003,.79999,3.32001Z"/>
      <path class="cls-6" d="M39.35427,62.52976h11.83002s1.56995-7.12,1.56995-7.12c-.50995-1.53998-1.06-2.70996-1.56995-2.89001,0,0-2.42004,7.65002-3.12,8.34003-.70001,.70001-8.71002,1.66998-8.71002,1.66998Z"/>
      <path class="cls-2" d="M51.18429,22.29978V62.52976c2.14996-.83997,7.87-9.27997,10.20996-12.84998,.67004-1.02002,1.02002-2.21002,1.02002-3.42999V13.79978s-11.22998,8.5-11.22998,8.5Z"/>
      <path class="cls-8" d="M51.18429,53.55979v8.96997c2.14996-.83997,7.87-9.27997,10.20996-12.84998,.67004-1.02002,1.02002-2.21002,1.02002-3.42999V14.89976s-2.52002,3.73999-2.52002,3.73999c0,0,.62,23.14001-1.85999,26.66003-2.47998,3.51001-6.84998,8.26001-6.84998,8.26001Z"/>
      <path class="cls-6" d="M52.4901,25.46877l-1.30569,26.18215s-.97233-22.38856-2.02591-23.61773-8.07744-2.27391-8.07744-2.27391l11.40904-3.08178v2.79128Z"/>
      <path class="cls-4" d="M51.95425,20.51975l2.19-.94995,10.66003-9.74005-.64001-1.75c-.76001-2.10999-3.41998-2.76996-5.09003-1.26996l-7.03998,6.38c-.53003,.46997-1.15997,.81-1.84003,.97998,4.5,4.16998,1.94,6.21997,1.76001,6.34998Z"/>
      <path class="cls-10" d="M65.00423,10.47978l-.22998-.62-.73999-2.03998-10.41998,9.41998c-.87,.78998-2.01001,1.22998-3.17999,1.22998H15.83419c-1.16998,0-2.31-.44-3.17999-1.22998L2.23422,7.8198l-.73999,2.03998-.22998,.62c-.77002,2.12-.19,4.5,1.47998,6.02002l7.94,7.25c1.41998,1.28998,3.26996,2.01001,5.19,2.01001H50.39425c1.92004,0,3.77002-.72003,5.19-2.01001l7.94-7.25c1.66998-1.52002,2.25-3.90002,1.47998-6.02002Z"/>
    </g>
    <g>
      <path class="cls-5" d="M39.28235,34.41804l5.1056,6.23195c.34462,.42069,.21791,1.08494-.27332,1.484-.12933,.10506-.27656,.18506-.43142,.23455l-4.46649,1.42724c-.55525,.1774-.88484,.72402-.74121,1.21455,.06662,.2275,.22864,.41379,.45168,.52062l4.25159,2.03661c.44086,.21118,.53966,.71731,.22772,1.12648-.03908,.05127-.08371,.09962-.13314,.14428l-4.97062,4.49118c-.32919,.29745-.88,.34566-1.23664,.10881-.07153-.0475-.13205-.10463-.1791-.16911l-2.65949-3.64464c-.27236-.37327-.85468-.4841-1.29387-.24484-.12481,.06799-.22853,.16002-.30269,.26837l-2.24635,3.2818c-.22782,.33285-.75684,.44276-1.18713,.24799-.06242-.02825-.12088-.06219-.17415-.10109l-5.9697-4.36039c-.43587-.31836-.5429-.84973-.23129-1.18713,.04175-.0452,.08995-.08548,.14373-.12008l4.24312-2.73016c.4456-.28669,.52602-.88314,.17111-1.3357-.08674-.1106-.19499-.20589-.31834-.28005l-3.96118-2.38172c-.5527-.33233-.79844-1.01303-.5401-1.52442,.03636-.07197,.08181-.13825,.13545-.19748l4.76746-5.26361c.45171-.49872,1.22155-.46719,1.70712,.06942,.02868,.0317,.05597,.06481,.08178,.09919l3.43476,4.57738c.37634,.50155,1.07595,.59851,1.57282,.21947,.08149-.06217,.15472-.13525,.21772-.21733l2.99711-3.90532c.43728-.56977,1.19929-.68024,1.69005-.24328,.04212,.03751,.08137,.07844,.11744,.12247Z"/>
      <path class="cls-10" d="M43.58956,47.0146l-4.2795-2.07697c-.06421-.0314-.10933-.08381-.12762-.14945-.03947-.13963,.05596-.2945,.21253-.34364l4.42372-1.39652c.26349-.08358,.5091-.21497,.73433-.39478,.40492-.3243,.68258-.76582,.77911-1.24289,.09724-.48432-.00435-.94888-.28915-1.30402l-5.08874-6.34276c-.00151-.00184-.00385-.00368-.00536-.00552-.02412-.02943-.16828-.18063-.19625-.20651-.84503-.76439-2.17404-.57411-2.92562,.4228l-3.04532,4.03047c-.1456,.1104-.34688,.08284-.45155-.06348l-3.4107-4.63843c-.01988-.02794-.12409-.15675-.14737-.18294-.83597-.94425-2.17879-.99807-2.95647-.12186l-4.7584,5.35938c-.09504,.10444-.17401,.22293-.23439,.34738-.21112,.43193-.22396,.94196-.03956,1.43655,.18087,.48717,.5314,.90194,.98592,1.1706l4.02649,2.41433c.06724,.08426,.06847,.16693,.06339,.20886-.00508,.04187-.02598,.11871-.10875,.17386l-4.26278,2.78093c-.09465,.06359-.17815,.13436-.24435,.2086-.2577,.28425-.35316,.65498-.27127,1.04209,.0808,.38192,.32491,.73479,.68502,.99401l5.95885,4.29758c.09161,.06648,.19138,.12415,.29864,.17211,.72975,.32661,1.63158,.14048,2.02333-.42025l2.35504-3.32445c.12475-.06403,.2882-.0342,.36674,.06938l2.6844,3.60816c.08179,.1093,.18531,.20479,.30649,.28378,.2532,.1667,.56867,.25435,.90263,.25435,.05536,0,.11097-.00282,.16676-.00753,.3963-.0339,.76388-.18608,1.03755-.42992l4.97934-4.43651c.08279-.07462,.15851-.15624,.22849-.24494,.54092-.69878,.38119-1.57482-.37565-1.94185Zm-.78411,1.45591l-4.9632,4.5485c-.07962,.07341-.26687,.09002-.40514-.01765l-2.63506-3.68392c-.29706-.41571-.82113-.64602-1.36212-.64602-.30011,0-.60449,.07124-.8748,.22004-.2118,.11734-.39028,.2783-.51655,.46643l-2.2237,3.31479c-.0649,.09617-.21829,.12782-.38897,.04267l-5.98012-4.42385c-.10589-.07823-.13923-.25652-.02221-.37206l4.22554-2.67994c.36776-.23264,.60574-.59491,.66758-1.02177,.06344-.43293-.06168-.88308-.35554-1.26445-.14909-.19316-.33337-.35786-.54556-.48657l-3.98806-2.42913c-.1015-.06276-.14464-.15021-.16106-.19787-.01645-.04773-.03684-.14186,.05098-.29209l4.77069-5.16809c.12902-.13576,.34505-.1285,.5051,.04875l3.45159,4.50828c.64531,.84156,1.83115,1.00148,2.6771,.368,.13775-.10495,.26242-.22755,.37082-.36483l3.01001-3.8466c.10469-.13481,.35894-.17215,.49047-.05493l.01981,.02127,5.12076,6.12441c.08496,.1002,.04514,.32452-.19731,.49063l-4.51162,1.45827c-.46555,.15085-.85284,.45582-1.09045,.85781-.23453,.39677-.29328,.83702-.17035,1.24117,.1186,.38854,.3951,.70007,.77764,.8804l4.2245,1.99806c.12436,.05862,.15397,.2023,.02923,.36032Z"/>
    </g>
  </g>
  <path class="cls-1" d="M58.96987,23.67592c-1.93973-2.40153,6.19809-8.06622,6.8002-4.97054,3.293,5.92277-9.77883,18.55754-4.42019,5.86049-.95001,.12006-1.89001-.06-2.38-.88995Z"/>
  <path class="cls-1" d="M66.99984,58.67592c-.91247,2.94033-3.2946-.73606-3.51996-2.23004-5.74625,4.46825,1.60126-15.71875,3.51996,2.23004Z"/>
  <path class="cls-1" d="M1.42983,28.14589c-3.14568,1.43804-.36557-6.33427,1.34017-6.47989,2.51461-.86589,5.18937,2.74655,2.15983,3.96988,.94926,1.24953,1.29926,4.10073-.62994,4.52002,.00995,.01001,.02997,.01001,.03998,.01001-.08002,.01001-.13,.01001-.15002,.01001,.01001,0,.02002,0,.03003-.01001-1.35815,.28134-2.05805-1.23719-2.45001-2.28003-.10999,.10004-.21997,.17999-.34003,.26001Z"/>
  <path class="cls-1" d="M7.49984,44.85592c.29346,1.10552-.57887,2.09418-1.71997,1.97998-.10219,4.13834-3.0232,2.60109-2.94-.73999-2.57162,2.04452-1.78667-.75757-.23968-1.73972,.83575-1.95932,4.47135-1.66419,4.89965,.49973Z"/>
  <path class="cls-1" d="M60.91988,51.89589c-.72596-.39147-.50399-1.29629-.35004-1.95001-2.05718,.93321-2.40142-1.69935-.61964-2.36984,1.48284-.61938,4.27171-2.58564,5.04965-.17026,.23346,1.24957-.36624,3.43966-1.95998,3.24012-.41851,.72799-1.17064,1.78647-2.12,1.25Z"/>
</svg>