<?xml version="1.0" encoding="UTF-8" standalone="no"?><!DOCTYPE svg PUBLIC "-//W3C//DTD SVG 1.1//EN" "http://www.w3.org/Graphics/SVG/1.1/DTD/svg11.dtd"><svg width="100%" height="100%" viewBox="0 0 300 345" version="1.1" xmlns="http://www.w3.org/2000/svg" xmlns:xlink="http://www.w3.org/1999/xlink" xml:space="preserve" xmlns:serif="http://www.serif.com/" style="fill-rule:evenodd;clip-rule:evenodd;stroke-linejoin:round;stroke-miterlimit:2;"><g id="Chest-3" serif:id="Chest 3"><g id="Chest-2" serif:id="Chest 2"><g><path d="M262.076,288.784c-11.909,8.228 -28.258,5.24 -36.486,-6.669c-8.229,-11.908 -5.241,-28.257 6.668,-36.486c11.909,-8.228 28.258,-5.24 36.486,6.669c8.229,11.909 5.24,28.258 -6.668,36.486Z" style="fill:#2f333c;"/><path d="M223.34,268.721c-0.401,-8.044 3.242,-16.108 10.35,-21.019c10.923,-7.548 25.92,-4.807 33.467,6.117c3.578,5.178 4.844,11.272 4.022,17.054l-5.805,-3.865c-0.087,-3.379 -1.123,-6.771 -3.186,-9.756c-5.653,-8.181 -16.884,-10.234 -25.065,-4.581c-6.146,4.247 -8.834,11.643 -7.392,18.529l-6.391,-2.479Zm7.679,6.355c0.425,0.913 0.932,1.803 1.523,2.659c5.653,8.181 16.884,10.234 25.065,4.581c4.91,-3.392 7.613,-8.795 7.766,-14.341l3.44,4.978l0.99,3.212c-0.509,1.322 -1.136,2.603 -1.878,3.826l-0.642,-1.339l-4.308,0.872l-1.391,4.206l2.379,1.181c-0.897,0.854 -1.872,1.649 -2.923,2.375c-10.923,7.547 -25.919,4.806 -33.467,-6.117c-0.391,-0.567 -0.755,-1.144 -1.091,-1.73l4.537,-4.363Z" style="fill:#7f7d94;"/><path d="M223.34,268.721c-0.401,-8.044 3.242,-16.108 10.35,-21.019c10.923,-7.548 25.92,-4.807 33.467,6.117c3.578,5.178 4.844,11.272 4.022,17.054c-0.047,-28.249 -40.096,-38.588 -47.839,-2.152Zm46.324,7.796c-0.483,1.197 -1.063,2.36 -1.739,3.474l-0.642,-1.339l-4.308,0.872l-1.391,4.206l2.379,1.181c-0.897,0.854 -1.872,1.649 -2.923,2.375c-10.923,7.547 -25.919,4.806 -33.467,-6.117c-0.391,-0.567 -0.755,-1.144 -1.091,-1.73l0.233,-0.224c8.207,11.943 24.347,15.547 35.819,6.129l-1.973,-1.025l2.001,-5.151l4.907,-1.318l0.451,1.242l1.744,-2.575Zm-38.73,-1.359l0.085,-0.082c0.425,0.913 0.932,1.803 1.523,2.659c5.653,8.181 16.884,10.234 25.065,4.581c4.91,-3.392 7.613,-8.795 7.766,-14.341l0.447,0.647c-0.312,6.943 -4.004,12.586 -8.975,15.114c-11.117,5.655 -22.256,0.953 -25.911,-8.578Zm34.905,-7.841l-0.465,-0.309c-0.087,-3.379 -1.123,-6.771 -3.186,-9.756c-5.653,-8.181 -16.884,-10.234 -25.065,-4.581c-6.058,4.186 -8.756,11.432 -7.452,18.232c-4.124,-12.976 7.349,-21.933 16.349,-22.714c7.761,-0.674 15.908,4.606 18.381,11.487c0.948,2.638 1.399,5.209 1.438,7.641Z" style="fill:#e2e1e6;"/><path d="M228.797,264.08c0.644,-3.504 2.273,-6.828 4.804,-9.518c0.753,-1.775 1.07,-3.265 0.194,-3.976c-0.775,-0.629 -1.546,-0.405 -2.307,0.092c-2.707,2.554 -5.515,5.807 -5.515,5.807c1.751,-3.412 4.344,-6.453 7.717,-8.783c4.357,-3.011 9.362,-4.384 14.283,-4.255c0,0 -1.304,0.28 -3.162,0.779c-2.941,1.366 -2.855,1.686 -3.543,2.921c-0.75,1.343 -2.409,1.568 -2.595,2.542c-0.107,0.56 -0.067,0.713 0.319,0.877c7.734,-3.835 17.206,-1.908 22.813,4.758c0.001,-0.022 0.004,-0.044 0.009,-0.065c0.152,-0.675 -0.468,-1.029 -0.304,-1.505c0.066,-0.189 0.305,-0.046 0.409,0.016c1.556,0.931 3.347,4.172 3.358,4.189c1.434,2.266 1.788,4.797 1.465,5.211c-0.2,0.256 -0.72,-1.211 -0.918,-1.412c-0.235,-0.239 -0.36,-0.116 -0.426,0.123c0.475,1.524 0.747,3.087 0.825,4.651c-0,0 4.253,2.833 4.253,2.833c0.143,-1.749 0.132,-8.092 0.132,-8.092c0.844,3.159 1.022,6.426 0.571,9.6l-5.805,-3.865c-0.087,-3.379 -1.123,-6.771 -3.186,-9.756c-5.653,-8.181 -16.884,-10.234 -25.065,-4.581c-6.146,4.247 -8.834,11.643 -7.392,18.529l-6.391,-2.479c-0.071,-1.425 -0.015,-2.851 0.165,-4.261c-0.08,2.025 0.173,2.899 0.679,3.66c-0,-0 1.564,0.606 2.837,1.1c0.456,0.011 0.932,-0.118 1.215,-0.79c0.098,-0.234 0.18,-0.552 0.248,-0.913c-0,-1.147 0.275,-3.228 0.313,-3.437Zm9.401,19.897c-2.459,-1.34 -4.653,-3.267 -6.368,-5.749c-0.386,-0.559 -0.738,-1.132 -1.056,-1.715l-3.688,2.345l3.933,-3.782c0.425,0.913 0.932,1.803 1.523,2.659c5.653,8.181 16.884,10.234 25.065,4.581c3.521,-2.433 5.908,-5.9 7.032,-9.713c-1.194,5.367 -4.215,8.47 -6.699,10.195c-4.548,3.159 -9.962,4.091 -14.926,2.985c-0.174,0.135 -0.111,0.423 0.555,0.997c0.105,0.091 3.39,3.013 6.918,3.695c3.505,-0.472 6.954,-1.755 10.061,-3.902c0.661,-0.457 1.291,-0.942 1.889,-1.452l1.526,-0.21c-0.897,0.854 -1.872,1.649 -2.923,2.375c-10.923,7.547 -25.919,4.806 -33.467,-6.117c-0.13,-0.189 -0.258,-0.379 -0.382,-0.571l1.434,0.556c2.27,3.118 5.184,5.508 8.432,7.115c0.628,0.068 1.427,-0.112 1.891,-1.469c0.339,-0.993 -0.171,-2.038 -0.75,-2.823Zm29.776,-5.847c0.667,-0.563 1.829,-1.965 1.829,-1.965c-0.509,1.322 -1.136,2.603 -1.878,3.826l-0.642,-1.339l-4.308,0.872l4.136,-1.721c0.332,-0.067 0.666,0.065 0.863,0.327Z" style="fill:#e2e1e6;"/><path d="M267.127,274.735c0.242,-0.688 0.028,-1.275 -0.305,-2.28c-0.043,-0.133 -0.519,-1.569 -0.751,-1.574c-0.205,-0.004 0.003,0.479 -0.171,1.202c-0.477,1.978 -0.931,3.1 -0.315,3.229c0.04,0.009 1.032,-0.04 1.319,-0.264c0.105,-0.081 0.18,-0.189 0.223,-0.313Z" style="fill:#e2e1e6;"/><path d="M234.025,273.438c-3.006,-6.326 -1.071,-14.086 4.875,-18.195c4.411,-3.048 9.919,-3.32 14.451,-1.198c-0.045,0.281 -0.17,0.403 -0.19,0.438c-2.321,4.225 -2.478,4.131 -2.632,4.52c-1.407,3.539 -4.202,2.729 -11.347,8.053c-1.228,0.914 -1.677,2.562 -1.692,2.59c-1.433,2.607 -2.451,3.401 -3.465,3.792Zm22.432,-17.423c0.998,0.829 1.901,1.806 2.674,2.925c4.562,6.604 2.906,15.669 -3.698,20.231c-6.154,4.252 -14.446,3.102 -19.239,-2.42c0.811,-0.789 1.63,-1.608 1.919,-1.78c0.887,-0.53 0.691,1.136 3.803,1.493c0.515,0.059 0.39,-1.288 0.797,-1.829c4.695,-6.249 4.71,-6.834 5.883,-8.968c1.303,-2.371 5.84,-2.896 6.433,-3.237c1.682,-0.966 -1.681,-4.112 -1.379,-4.874c0.431,-1.085 1.664,-1.539 2.807,-1.541Z" style="fill:#565c6c;"/><path d="M253.421,276.258c-4.837,3.342 -11.478,2.128 -14.82,-2.709c-3.343,-4.837 -2.129,-11.478 2.708,-14.82c4.838,-3.342 11.478,-2.128 14.82,2.709c3.343,4.837 2.129,11.478 -2.708,14.82Z" style="fill:#817e95;"/><path d="M237.086,264.704c0.635,-2.345 2.07,-4.487 4.223,-5.975c3.673,-2.537 8.384,-2.449 11.903,-0.143c-3.829,-1.535 -8.331,-1.184 -11.976,1.334c-1.83,1.264 -3.225,2.923 -4.15,4.784Zm3.442,-2.653c1.706,-1.173 4.42,-2.271 5.073,-1.754c1.015,0.803 -2.938,2.673 -3.592,3.111c-1.22,0.815 -1.305,1.311 -2.346,2.016c-1.276,0.865 -1.994,-1.407 0.865,-3.373Zm10.403,11.619c-1.663,0.916 -3.482,1.404 -6.438,1.059c-1.62,-0.189 -6.043,-2.525 -4.489,-6.816c0.704,-1.943 1.586,-1.208 3.94,-2.968c0.357,-0.266 1.483,-1.108 5.2,-1.979c5.148,-1.206 7.243,3.817 6.167,6.179c-0.62,1.362 -0.577,1.385 -1.593,2.467c-0.94,1.002 -2.665,1.991 -2.787,2.058Zm6.982,-7.672c0.544,3.866 -1.064,7.891 -4.492,10.26c-4.837,3.342 -11.478,2.128 -14.82,-2.709c-1.188,-1.718 -1.8,-3.664 -1.879,-5.609c0.223,1.588 0.81,3.15 1.784,4.559c3.342,4.837 9.983,6.051 14.82,2.709c3.118,-2.155 4.731,-5.681 4.587,-9.21Z" style="fill:#a9a6b5;"/></g><path d="M228.216,249.07c0.067,0.06 0.132,0.123 0.194,0.189c3.825,4.102 6.958,9.066 9.301,15c0.289,0.732 0.279,1.549 -0.029,2.274c-2.77,6.526 -6.118,12.585 -10.069,18.155c-0.718,-0.805 -1.395,-1.662 -2.023,-2.573c-7.201,-10.42 -5.812,-24.241 2.626,-33.045Zm34.737,39.082c-0.207,-0.351 -0.411,-0.702 -0.612,-1.054l-0.005,-0.01l1.136,0.663c-0.109,0.086 -0.219,0.171 -0.33,0.256c-0.295,-0.222 -0.551,-0.5 -0.751,-0.824c0.222,0.362 0.477,0.633 0.737,0.836c-0.058,0.044 -0.117,0.088 -0.175,0.133Zm-0.617,-1.064c-5.873,-10.282 -9.562,-21.526 -11.217,-33.664c-0.106,-0.78 0.098,-1.571 0.57,-2.202c2.161,-2.89 4.484,-5.415 6.957,-7.597c3.932,1.907 7.439,4.824 10.098,8.673c7.896,11.428 5.463,26.945 -5.27,35.451l-1.138,-0.661Zm2.729,-1.27c-0.067,0.042 -0.13,0.087 -0.188,0.133c0.062,-0.044 0.126,-0.086 0.192,-0.126l-0.004,-0.007Z" style="fill-opacity:0.25;"/><g><path d="M93.717,296.87c-14.196,-2.832 -23.421,-16.656 -20.589,-30.851c2.831,-14.196 16.655,-23.421 30.851,-20.589c14.195,2.831 23.421,16.655 20.589,30.851c-2.832,14.195 -16.656,23.421 -30.851,20.589Z" style="fill:#0e5183;"/><path d="M81.185,255.086c5.5,-5.884 13.829,-8.877 22.301,-7.186c13.021,2.597 21.483,15.277 18.885,28.298c-1.231,6.173 -4.729,11.321 -9.454,14.753l-1.261,-6.859c2.367,-2.413 4.082,-5.517 4.792,-9.076c1.945,-9.751 -4.392,-19.248 -14.144,-21.193c-7.327,-1.462 -14.51,1.753 -18.454,7.578l-2.665,-6.315Zm0.776,9.937c-0.36,0.94 -0.647,1.923 -0.85,2.944c-1.946,9.751 4.392,19.248 14.144,21.193c5.853,1.168 11.614,-0.649 15.705,-4.396l-1.183,5.934l-1.619,2.945c-1.304,0.554 -2.66,0.994 -4.055,1.312l0.515,-1.392l-3.623,-2.488l-3.989,1.926l0.806,2.531c-1.237,-0.051 -2.487,-0.199 -3.739,-0.448c-13.021,-2.598 -21.483,-15.278 -18.885,-28.299c0.134,-0.675 0.296,-1.337 0.483,-1.987l6.29,0.225Z" style="fill:#75bff7;"/><path d="M81.185,255.086c5.5,-5.884 13.829,-8.877 22.301,-7.186c13.021,2.597 21.483,15.277 18.885,28.298c-1.231,6.173 -4.729,11.321 -9.454,14.753c20.262,-19.685 -0.17,-55.648 -31.732,-35.865Zm26.623,38.702c-1.196,0.486 -2.435,0.878 -3.705,1.167l0.515,-1.392l-3.623,-2.488l-3.989,1.926l0.806,2.531c-1.237,-0.051 -2.487,-0.199 -3.739,-0.448c-13.021,-2.598 -21.483,-15.278 -18.885,-28.299c0.134,-0.675 0.296,-1.337 0.483,-1.987l0.324,0.012c-2.872,14.204 5.766,28.306 20.512,29.997l-0.636,-2.131l5.093,-2.146l4.36,2.608l-0.579,1.189l3.063,-0.539Zm-25.965,-28.769l0.118,0.004c-0.36,0.94 -0.647,1.923 -0.85,2.944c-1.946,9.751 4.392,19.248 14.144,21.193c5.853,1.168 11.614,-0.649 15.705,-4.396l-0.153,0.771c-5.206,4.605 -11.828,5.878 -17.102,4.066c-11.796,-4.054 -16.166,-15.327 -11.862,-24.582Zm29.914,19.622l-0.101,-0.549c2.367,-2.413 4.082,-5.517 4.792,-9.076c1.945,-9.751 -4.392,-19.248 -14.144,-21.193c-7.222,-1.441 -14.303,1.661 -18.282,7.329c6.453,-11.989 20.869,-9.978 27.691,-4.055c5.882,5.106 7.756,14.633 4.533,21.195c-1.236,2.516 -2.769,4.629 -4.489,6.349Z" style="fill:#b8dffd;"/><path d="M88.316,255.778c2.966,-1.975 6.487,-3.117 10.18,-3.17c1.798,-0.694 3.09,-1.502 2.991,-2.627c-0.088,-0.994 -0.785,-1.392 -1.671,-1.592c-3.718,-0.169 -8.008,0.077 -8.008,0.077c3.669,-1.116 7.657,-1.368 11.678,-0.566c5.193,1.036 9.661,3.676 12.992,7.301c-0,0 -1.108,-0.742 -2.759,-1.729c-3.028,-1.163 -3.197,-0.878 -4.563,-0.514c-1.487,0.396 -2.803,-0.64 -3.632,-0.096c-0.476,0.312 -0.559,0.448 -0.408,0.839c8.135,2.889 13.34,11.034 12.451,19.699c0.017,-0.014 0.034,-0.027 0.053,-0.038c0.59,-0.361 0.414,-1.053 0.869,-1.265c0.182,-0.085 0.246,0.186 0.274,0.304c0.413,1.766 -0.669,5.307 -0.674,5.326c-0.63,2.607 -2.202,4.622 -2.725,4.678c-0.322,0.034 0.37,-1.36 0.377,-1.642c0.008,-0.335 -0.168,-0.339 -0.385,-0.221c-0.765,1.402 -1.699,2.685 -2.768,3.829c-0,-0 0.924,5.026 0.923,5.026c1.356,-1.114 5.906,-5.534 5.906,-5.534c-1.683,2.804 -3.906,5.204 -6.5,7.088l-1.261,-6.859c2.367,-2.413 4.082,-5.517 4.792,-9.076c1.945,-9.751 -4.392,-19.248 -14.144,-21.193c-7.327,-1.462 -14.51,1.753 -18.454,7.578l-2.665,-6.315c0.975,-1.043 2.039,-1.995 3.176,-2.846c-1.51,1.35 -1.962,2.14 -2.156,3.033c-0,0 0.652,1.546 1.182,2.803c0.31,0.336 0.734,0.589 1.413,0.324c0.237,-0.092 0.522,-0.255 0.829,-0.457c0.823,-0.798 2.51,-2.047 2.687,-2.165Zm-7.755,20.594c-0.748,-2.699 -0.89,-5.615 -0.299,-8.575c0.132,-0.666 0.299,-1.316 0.497,-1.951l-4.25,-1.018l5.452,0.195c-0.36,0.94 -0.647,1.923 -0.85,2.944c-1.946,9.751 4.392,19.248 14.144,21.193c4.198,0.838 8.348,0.14 11.87,-1.704c-4.686,2.875 -9.017,2.863 -11.985,2.279c-5.433,-1.07 -9.868,-4.311 -12.527,-8.647c-0.218,-0.031 -0.38,0.214 -0.33,1.092c0.008,0.139 0.194,4.531 2.157,7.54c2.778,2.19 6.099,3.775 9.802,4.514c0.789,0.157 1.575,0.273 2.358,0.347l1.212,0.951c-1.237,-0.051 -2.487,-0.199 -3.739,-0.448c-13.021,-2.598 -21.483,-15.278 -18.885,-28.299c0.044,-0.225 0.092,-0.449 0.143,-0.671l0.598,1.417c-0.66,3.799 -0.35,7.555 0.755,11.007c0.388,0.498 1.073,0.947 2.37,0.337c0.95,-0.447 1.345,-1.541 1.507,-2.503Zm24.913,17.324c0.868,0.088 2.684,-0.053 2.684,-0.053c-1.304,0.554 -2.66,0.994 -4.055,1.312l0.515,-1.392l-3.623,-2.488l4.114,1.774c0.278,0.192 0.416,0.523 0.365,0.847Z" style="fill:#b8dffd;"/><path d="M107.324,290.726c0.662,-0.304 0.935,-0.867 1.426,-1.805c0.065,-0.123 0.766,-1.464 0.608,-1.634c-0.14,-0.151 -0.341,0.335 -0.983,0.713c-1.753,1.033 -2.874,1.488 -2.539,2.02c0.022,0.035 0.748,0.713 1.108,0.764c0.131,0.018 0.261,-0.003 0.38,-0.058Z" style="fill:#b8dffd;"/><path d="M85.23,266.043c2.453,-6.56 9.374,-10.569 16.463,-9.154c5.257,1.048 9.285,4.816 10.912,9.548c-0.233,0.164 -0.407,0.158 -0.447,0.169c-4.65,1.27 -4.691,1.092 -5.078,1.252c-3.521,1.452 -4.883,-1.12 -13.678,-2.55c-1.511,-0.246 -3.007,0.578 -3.038,0.586c-2.87,0.784 -4.149,0.605 -5.134,0.149Zm28.12,3.996c0.099,1.294 0.025,2.622 -0.241,3.956c-1.57,7.871 -9.235,12.986 -17.106,11.416c-7.336,-1.464 -12.278,-8.221 -11.645,-15.505c1.131,0.033 2.289,0.052 2.614,0.14c0.998,0.269 -0.336,1.287 1.573,3.771c0.315,0.411 1.196,-0.616 1.868,-0.7c7.755,-0.973 8.186,-1.37 10.535,-2.012c2.61,-0.713 6.143,2.181 6.8,2.37c1.865,0.537 1.785,-4.068 2.543,-4.381c1.079,-0.445 2.263,0.125 3.059,0.945Z" style="fill:#0b75c7;"/><path d="M96.695,281.939c-5.766,-1.151 -9.513,-6.766 -8.363,-12.532c1.151,-5.765 6.766,-9.513 12.532,-8.363c5.766,1.151 9.513,6.766 8.363,12.532c-1.151,5.766 -6.766,9.513 -12.532,8.363Z" style="fill:#258cdb;"/><path d="M93.633,262.166c2.127,-1.175 4.664,-1.634 7.231,-1.122c4.377,0.874 7.591,4.32 8.382,8.452c-1.56,-3.819 -4.945,-6.809 -9.289,-7.676c-2.181,-0.435 -4.343,-0.283 -6.324,0.346Z" style="fill:#6fb6eb;"/><path d="M97.933,262.794c-3.401,-0.687 -4.534,1.409 -3.024,1.725c1.23,0.257 1.645,-0.027 3.08,0.282c0.769,0.166 4.863,1.705 4.734,0.417c-0.083,-0.828 -2.76,-2.014 -4.79,-2.424Z" style="fill:#6fb6eb;"/><path d="M96.823,278.35c-1.815,-0.558 -3.431,-1.525 -5.239,-3.888c-0.991,-1.296 -2.39,-6.098 1.774,-7.967c1.885,-0.846 1.971,0.299 4.873,0.766c0.439,0.071 1.827,0.294 5.039,2.359c4.447,2.859 2.296,7.859 -0.149,8.729c-1.411,0.502 -1.397,0.548 -2.881,0.572c-1.374,0.021 -3.285,-0.531 -3.417,-0.571Z" style="fill:#6fb6eb;"/><path d="M107.192,278.029c-2.399,3.08 -6.41,4.725 -10.497,3.91c-5.766,-1.151 -9.513,-6.766 -8.363,-12.532c0.409,-2.048 1.381,-3.842 2.723,-5.252c-0.985,1.266 -1.699,2.774 -2.034,4.454c-1.151,5.766 2.597,11.381 8.363,12.531c3.717,0.742 7.372,-0.553 9.808,-3.111Z" style="fill:#6fb6eb;"/></g><path d="M82.693,250.495c3.759,4.539 6.02,10.363 6.02,16.712c-0,8.383 -3.942,15.853 -10.072,20.656c-4.85,-5.873 -7.118,-13.799 -5.513,-21.844c1.277,-6.403 4.79,-11.794 9.565,-15.524Z" style="fill:#003963;fill-opacity:0.5;"/><circle cx="56.006" cy="267.207" r="26.227" style="fill:#7b2300;"/><g><circle cx="56.006" cy="267.207" r="26.227" style="fill:#7b2300;"/><path d="M76.469,279.505c-4.242,6.846 -11.824,11.41 -20.463,11.41c-13.278,0 -24.057,-10.779 -24.057,-24.057c-0,-6.294 2.423,-12.028 6.386,-16.317l2.578,6.48c-1.849,2.829 -2.924,6.208 -2.924,9.837c-0,9.944 8.073,18.017 18.017,18.017c7.471,0 13.886,-4.558 16.615,-11.042l3.848,5.672Zm-2.705,-9.593c0.17,-0.993 0.259,-2.013 0.259,-3.054c-0,-9.943 -8.074,-18.017 -18.017,-18.017c-5.969,0 -11.263,2.909 -14.542,7.384l-0,-6.05l1.011,-3.205c1.17,-0.798 2.414,-1.496 3.72,-2.081l-0.233,1.467l4.04,1.731l3.535,-2.669l-1.286,-2.325c1.224,-0.192 2.478,-0.292 3.755,-0.292c13.277,0 24.057,10.78 24.057,24.057c-0,0.688 -0.029,1.37 -0.086,2.044l-6.213,1.01Z" style="fill:#ffc635;"/><path d="M76.469,279.505c-4.242,6.846 -11.824,11.41 -20.463,11.41c-13.278,0 -24.057,-10.779 -24.057,-24.057c-0,-6.294 2.423,-12.028 6.386,-16.317c-16.02,23.268 11.053,54.539 38.134,28.964Zm-33.68,-32.746c1.078,-0.711 2.217,-1.337 3.406,-1.87l-0.233,1.467l4.04,1.731l3.535,-2.669l-1.286,-2.325c1.224,-0.192 2.478,-0.292 3.755,-0.292c13.277,0 24.057,10.78 24.057,24.057c-0,0.688 -0.029,1.37 -0.086,2.044l-0.319,0.052c0.037,-14.492 -11.193,-26.632 -25.985,-25.405l1.04,1.965l-4.574,3.101l-4.786,-1.705l0.335,-1.278l-2.899,1.127Zm31.092,23.134l-0.117,0.019c0.17,-0.993 0.259,-2.013 0.259,-3.054c-0,-9.943 -8.074,-18.017 -18.017,-18.017c-5.969,0 -11.263,2.909 -14.542,7.384l-0,-0.786c4.204,-5.535 10.449,-8.078 15.975,-7.333c12.362,1.667 18.852,11.868 16.442,21.787Zm-33.174,-13.391l0.206,0.519c-1.849,2.829 -2.924,6.208 -2.924,9.837c-0,9.944 8.073,18.017 18.017,18.017c7.364,0 13.702,-4.428 16.495,-10.764c-3.983,13.02 -18.514,13.867 -26.362,9.394c-6.768,-3.857 -10.47,-12.832 -8.593,-19.899c0.72,-2.709 1.81,-5.081 3.161,-7.104Z" style="fill:#f87920;"/><path d="M69.342,280.222c-2.523,2.517 -5.752,4.325 -9.364,5.1c-1.627,1.032 -2.736,2.077 -2.419,3.161c0.28,0.958 1.042,1.212 1.95,1.235c3.68,-0.563 7.838,-1.643 7.838,-1.643c-3.38,1.812 -7.241,2.84 -11.341,2.84c-5.296,0 -10.194,-1.715 -14.17,-4.619c0,0 1.232,0.512 3.044,1.157c3.197,0.548 3.308,0.235 4.576,-0.389c1.38,-0.679 2.873,0.079 3.58,-0.617c0.406,-0.399 0.46,-0.548 0.236,-0.903c-8.543,-1.241 -15.24,-8.211 -16.064,-16.882c-0.014,0.018 -0.028,0.033 -0.044,0.048c-0.509,0.469 -0.2,1.113 -0.606,1.411c-0.161,0.118 -0.277,-0.135 -0.327,-0.245c-0.751,-1.651 -0.383,-5.335 -0.382,-5.355c0.109,-2.68 1.256,-4.963 1.758,-5.121c0.309,-0.096 -0.097,1.406 -0.049,1.684c0.058,0.331 0.231,0.3 0.421,0.141c0.476,-1.524 1.141,-2.965 1.966,-4.296c-0,0 -1.89,-4.748 -1.889,-4.748c-1.112,1.357 -4.709,6.582 -4.709,6.582c1.101,-3.078 2.812,-5.868 4.988,-8.222l2.578,6.48c-1.849,2.829 -2.924,6.208 -2.924,9.837c-0,9.944 8.073,18.017 18.017,18.017c7.471,0 13.886,-4.558 16.615,-11.042l3.848,5.672c-0.751,1.213 -1.608,2.355 -2.557,3.412c1.216,-1.62 1.505,-2.483 1.521,-3.397c0,0 -0.942,-1.388 -1.708,-2.517c-0.369,-0.269 -0.835,-0.433 -1.449,-0.041c-0.214,0.137 -0.462,0.352 -0.723,0.61c-0.652,0.944 -2.061,2.499 -2.211,2.65Zm3.576,-21.714c1.261,2.5 1.971,5.332 1.971,8.35c-0,0.679 -0.036,1.35 -0.107,2.011l4.368,0.167l-5.386,0.876c0.17,-0.993 0.259,-2.013 0.259,-3.054c-0,-9.943 -8.074,-18.017 -18.017,-18.017c-4.281,0 -8.215,1.497 -11.307,3.994c4.032,-3.736 8.282,-4.572 11.307,-4.579c5.537,-0.014 10.521,2.296 13.976,6.028c0.22,-0.012 0.332,-0.284 0.11,-1.135c-0.035,-0.135 -1.076,-4.405 -3.591,-6.973c-3.152,-1.604 -6.719,-2.509 -10.495,-2.509c-0.804,0 -1.598,0.041 -2.381,0.121l-1.374,-0.695c1.224,-0.192 2.478,-0.292 3.755,-0.292c13.277,0 24.057,10.78 24.057,24.057c-0,0.23 -0.004,0.459 -0.01,0.687l-0.864,-1.273c-0.096,-3.855 -1.134,-7.478 -2.893,-10.646c-0.478,-0.413 -1.237,-0.72 -2.391,0.133c-0.843,0.624 -1.018,1.774 -0.987,2.749Zm-27.822,-12.116c-0.868,0.084 -2.621,0.578 -2.621,0.578c1.17,-0.798 2.414,-1.496 3.72,-2.081l-0.233,1.467l4.04,1.731l-4.381,-0.935c-0.311,-0.134 -0.511,-0.432 -0.525,-0.76Z" style="fill:#fffbd9;"/><path d="M43.863,249.667c-0.59,0.428 -0.747,1.033 -1.045,2.049c-0.039,0.134 -0.465,1.586 -0.277,1.722c0.167,0.12 0.27,-0.396 0.825,-0.892c1.517,-1.356 2.527,-2.021 2.095,-2.477c-0.029,-0.031 -0.873,-0.554 -1.236,-0.533c-0.132,0.007 -0.255,0.053 -0.362,0.131Z" style="fill:#fffbd9;"/><path d="M70.36,269.551c-1.123,6.913 -7.126,12.198 -14.354,12.198c-5.361,-0 -10.048,-2.907 -12.57,-7.229c0.197,-0.206 0.369,-0.235 0.405,-0.253c4.312,-2.156 4.387,-1.989 4.735,-2.221c3.169,-2.113 5.008,0.142 13.914,-0.176c1.529,-0.054 2.835,-1.154 2.864,-1.169c2.661,-1.33 3.95,-1.405 5.006,-1.15Zm-28.359,1.582c-0.35,-1.249 -0.537,-2.566 -0.537,-3.926c-0,-8.026 6.516,-14.542 14.542,-14.542c7.48,-0 13.649,5.66 14.453,12.927c-1.116,0.189 -2.256,0.396 -2.591,0.374c-1.031,-0.069 0.077,-1.328 -2.28,-3.391c-0.39,-0.341 -1.053,0.838 -1.695,1.053c-7.415,2.471 -7.761,2.944 -9.938,4.033c-2.42,1.21 -6.451,-0.937 -7.132,-0.994c-1.935,-0.161 -0.955,4.339 -1.637,4.794c-0.972,0.648 -2.244,0.32 -3.185,-0.328Z" style="fill:#e06816;"/><circle cx="56.006" cy="266.858" r="10.653" style="fill:#fcdc4d;"/><path d="M62.877,274.997c-1.855,1.568 -4.254,2.514 -6.871,2.514c-4.464,0 -8.29,-2.751 -9.874,-6.648c2.277,3.44 6.181,5.71 10.611,5.71c2.224,0 4.315,-0.572 6.134,-1.576Z" style="fill:#feeea9;"/><path d="M58.537,275.222c3.47,0.008 4.171,-2.269 2.629,-2.283c-1.257,-0.011 -1.609,0.348 -3.076,0.326c-0.787,-0.012 -5.102,-0.721 -4.724,0.517c0.243,0.796 3.1,1.436 5.171,1.44Z" style="fill:#feeea9;"/><path d="M56.583,259.75c1.888,0.191 3.663,0.824 5.898,2.788c1.226,1.077 3.537,5.513 -0.181,8.16c-1.683,1.198 -1.991,0.092 -4.929,0.201c-0.444,0.017 -1.849,0.069 -5.403,-1.327c-4.92,-1.934 -3.789,-7.257 -1.561,-8.589c1.285,-0.768 1.263,-0.811 2.713,-1.124c1.343,-0.29 3.325,-0.123 3.463,-0.109Z" style="fill:#feeea9;"/><path d="M46.477,262.093c1.75,-3.49 5.362,-5.888 9.529,-5.888c5.879,0 10.653,4.774 10.653,10.653c-0,2.089 -0.603,4.038 -1.643,5.683c0.719,-1.434 1.124,-3.052 1.124,-4.765c-0,-5.879 -4.774,-10.653 -10.653,-10.653c-3.791,0 -7.122,1.984 -9.01,4.97Z" style="fill:#feeea9;"/></g><path d="M40.494,246.063c2.781,2.26 5.393,4.931 7.819,8.043c0.484,0.621 0.704,1.407 0.614,2.189c-1.298,11.22 -4.34,21.714 -9.246,31.434c-6.033,-4.807 -9.902,-12.216 -9.902,-20.522c-0,-8.673 4.219,-16.369 10.715,-21.144Z" style="fill:#1f1100;fill-opacity:0.35;"/><g><path d="M34.146,291.57l-0.003,0.005c-12.204,-3.138 -23.335,-8.853 -33.481,-16.941c-0.718,-5.933 -0.362,-11.419 0.958,-16.505c4.958,-3.115 10.099,-5.787 15.431,-7.994c5.337,-2.195 10.866,-3.925 16.578,-5.212c4.522,2.675 8.643,6.314 12.318,11.027c-1.491,12.889 -5.354,24.791 -11.795,35.621l-0.006,-0.001Z" style="fill:#c20043;"/><path d="M3.746,272.927c-0.423,-4.523 -0.168,-8.761 0.719,-12.739c4.455,-2.722 9.061,-5.078 13.825,-7.051c1.301,-0.535 2.615,-1.042 3.94,-1.52l-8.517,8.477l1.132,-3.904c-3.613,5.457 -5.94,6.991 -5.896,8.668c2.396,0.48 3.83,0.67 5.858,0.445c-2.469,0.895 -4.921,1.418 -7.081,1.118l-3.98,6.506Zm18.936,-21.472c3.386,-1.203 6.847,-2.224 10.381,-3.067c1.746,1.117 3.424,2.395 5.031,3.844l-2.23,0.583l-6.832,-1.23l-8.298,5.432l1.948,-5.562Z" style="fill:#ed0c10;"/><path d="M34.146,291.57l-0.003,0.005c-12.204,-3.138 -23.335,-8.853 -33.481,-16.941c-0.718,-5.933 -0.362,-11.419 0.958,-16.505c4.958,-3.115 10.099,-5.787 15.431,-7.994c5.337,-2.195 10.866,-3.925 16.578,-5.212c4.522,2.675 8.643,6.314 12.318,11.027c-1.491,12.889 -5.354,24.791 -11.795,35.621l-0.006,-0.001Zm-24.856,-26.625c-1.533,-0.537 -2.745,-1.489 -3.849,-2.579c-0.702,3.381 -0.635,6.52 0.076,9.891c2.225,0.12 4.627,0.013 7.126,-0.22l-3.353,-7.092Zm8.811,15.567c-1.824,-1.821 -3.958,-4.17 -4.757,-5.02c-1.47,-0.092 -2.979,-0.28 -4.491,-0.473c2.828,2.05 5.901,3.89 9.248,5.493Zm21.091,-18.801c0.921,-1.855 1.695,-3.584 1.698,-4.825c-1.027,-1.894 -2.221,-3.386 -3.482,-4.714l-2.799,4.711l3.532,5.261l1.051,-0.433Zm-25.101,11.849l20.078,-12.104l-0.679,-2.922l-19.855,6.915l0.47,6.656l-0.014,1.455Zm9.359,-0.942c-2.088,0.951 -3.936,1.697 -5.821,2.512c0.566,1.047 1.238,2.543 1.945,3.259c2.738,2.771 4.083,2.43 9.791,3.644c4.113,-7.273 4.105,-8.685 1.723,-11.523c-2.613,0.23 -5.127,0.966 -7.638,2.108Zm7.982,-16.9l2.859,-2.691l-2.459,-3.235c-8.574,2.656 -17.038,5.418 -23.597,9.981c0.142,1.508 2.28,3.909 5.708,4.214l17.489,-8.269Z" style="fill:#8c0031;"/><path d="M31.009,290.706c-10.983,-3.272 -21.076,-8.682 -30.347,-16.072c-0.718,-5.933 -0.362,-11.419 0.958,-16.505c4.958,-3.115 10.099,-5.787 15.431,-7.994c5.337,-2.195 10.866,-3.925 16.578,-5.212c4.522,2.675 8.643,6.314 12.318,11.027c-1.491,12.889 -5.354,24.791 -11.795,35.621l-0.006,-0.001l-0.003,0.005c-1.049,-0.27 -2.09,-0.558 -3.123,-0.866c0.07,-0.253 0.171,-0.5 0.304,-0.736c-0.012,0.013 -0.022,0.028 -0.032,0.045c-0.13,0.241 -0.223,0.47 -0.283,0.688Zm1.575,-2.923c5.264,-9.483 8.536,-19.794 9.972,-30.87c-2.889,-3.504 -6.059,-6.329 -9.493,-8.525c-5.078,1.212 -10.004,2.789 -14.773,4.749c-4.764,1.973 -9.37,4.329 -13.825,7.051c-0.887,3.978 -1.142,8.216 -0.719,12.739c8.827,6.84 18.418,11.844 28.838,14.856Z" style="fill:#72052a;"/><path d="M34.481,257.414l-19.857,7.693l4.829,-2.342l10.398,-6.888l-0.089,-0.579l1.988,-3.052l-1.355,-0.74l-7.741,5.092l4.901,-4.47l-10.095,2.067c5.146,-1.861 10.295,-3.715 15.584,-5.231l3.463,3.551l-2.026,4.899Z" style="fill:#fc8889;"/><path d="M31.587,285.451c0.905,-1.971 3.388,-7.682 5.322,-15.986c0.905,-3.883 1.114,-6.675 1.031,-4.538c-0.291,7.453 -2.822,18.007 -4.947,22.138c-0.22,0.428 -0.676,0.646 -1.167,0.513c-4.361,-1.184 -7.505,-2.718 -8.129,-3.022c-0.112,-0.055 -3.468,-2.797 -7.244,-8.687c-0.483,-0.754 -0.928,-1.491 -0.928,-1.492c-0.073,-0.354 0.619,0.768 3.141,3.482c2.374,2.554 4.492,4.289 5.577,5.143c0.209,0.164 0.372,0.293 3.102,1.185c0.287,0.094 0.291,0.1 4.242,1.264Z" style="fill:#d8002a;"/><path d="M14.002,274.544c-1.847,-0.029 -7.186,-0.659 -6.701,-0.729c0.803,-0.117 3.756,-0.485 6.33,-0.509c-0.075,-1.682 -0.009,-5.208 0.116,-5.221c0.096,-0.01 0.811,2.814 1.039,4.006c0.086,0.45 0.137,0.76 0.167,0.977c0.948,-0.333 3.377,-1.14 10.22,-3.145c0.01,-0.003 0.274,0.039 0.088,0.12c-0.769,0.335 -6.725,2.933 -9.824,4.14c0.44,0.574 1.359,1.864 3.333,4.99c0.078,0.123 -0.025,0.203 -0.128,0.104c-0.353,-0.34 -3.622,-3.484 -4.64,-4.733Z" style="fill:#fc8e8f;"/><path d="M33.335,258.637c-16.212,6.892 -19.888,6.891 -19.888,6.891c0,-0 -1.61,-0.069 -2.187,-0.152c-0.527,-0.076 -2.361,-0.409 -2.278,-0.469c0.179,-0.128 4.8,0.125 4.8,0.125c0,-0 1.716,-0.799 19.065,-8.766c0.709,-0.783 2.157,-1.59 3.014,-3.479l-2.991,-3.565c-0.014,-0.114 -0.099,-0.534 0.27,-0.288c0.06,0.039 3.187,2.397 4.166,3.148c0.157,0.121 0.653,0.502 -0.166,2.473c-0.447,1.076 -1.164,2.003 -1.664,2.601c0.695,0.755 1.405,1.496 2.097,2.255l1.792,2.059c0.881,-0.704 1.856,-1.733 3.136,-4.134c0.062,-0.117 0.168,-0.124 0.179,0.022c-0,0.005 -0.2,1.643 -0.622,2.911c-0.095,0.286 -0.674,2.028 -1.761,3.212c-0.421,4.683 -3.157,14.559 -5.972,20.683c1.662,-5.672 3.046,-14.448 3.566,-19.421c-1.361,0.519 -4.87,1.807 -7.797,2.748c-3.602,1.158 -3.603,1.145 -7.224,2.233c7.229,-3.668 7.377,-3.95 14.313,-7.076c-1.184,-1.208 -2.893,-2.981 -3.848,-4.011Z" style="fill:#f2d6cd;"/></g><g><path d="M213.546,296.201l-0.004,0.005c-10.822,-6.455 -19.888,-15.08 -27.339,-25.702c0.986,-5.895 2.876,-11.057 5.578,-15.564c5.636,-1.589 11.321,-2.701 17.059,-3.314c5.74,-0.599 11.533,-0.698 17.375,-0.321c3.584,3.843 6.51,8.497 8.705,14.056c-5.068,11.943 -12.133,22.272 -21.369,30.844l-0.005,-0.004Z" style="fill:#c20043;"/><path d="M189.644,269.736c0.87,-4.458 2.311,-8.452 4.285,-12.017c5.042,-1.355 10.126,-2.315 15.253,-2.863c1.4,-0.146 2.803,-0.261 4.209,-0.346l-10.564,5.728l2.188,-3.426c-5.006,4.216 -7.671,5.031 -8.102,6.652c2.163,1.137 3.485,1.724 5.494,2.08c-2.622,0.162 -5.121,-0.028 -7.109,-0.926l-5.654,5.118Zm24.226,-15.254c3.588,-0.199 7.196,-0.201 10.825,-0.012c1.36,1.564 2.608,3.264 3.741,5.107l-2.303,-0.069l-6.208,-3.109l-9.493,2.869l3.438,-4.786Z" style="fill:#ed0c10;"/><path d="M213.546,296.201l-0.004,0.005c-10.822,-6.455 -19.888,-15.08 -27.339,-25.702c0.986,-5.895 2.876,-11.057 5.578,-15.564c5.636,-1.589 11.321,-2.701 17.059,-3.314c5.74,-0.599 11.533,-0.698 17.375,-0.321c3.584,3.843 6.51,8.497 8.705,14.056c-5.068,11.943 -12.133,22.272 -21.369,30.844l-0.005,-0.004Zm-16.331,-32.557c-1.319,-0.949 -2.213,-2.203 -2.965,-3.56c-1.627,3.045 -2.449,6.074 -2.718,9.51c2.101,0.743 4.435,1.318 6.898,1.8l-1.215,-7.75Zm4.059,17.42c-1.236,-2.261 -2.619,-5.117 -3.146,-6.157c-1.385,-0.504 -2.78,-1.11 -4.176,-1.723c2.136,2.766 4.564,5.398 7.322,7.88Zm25.54,-12.084c1.407,-1.519 2.638,-2.959 2.991,-4.149c-0.45,-2.107 -1.175,-3.875 -2.01,-5.505l-4.014,3.73l1.903,6.044l1.13,-0.12Zm-27.425,4.283l22.678,-5.945l0.174,-2.994l-21,1.03l-1.427,6.518l-0.425,1.391Zm9.245,1.739c-2.271,0.322 -4.255,0.517 -6.294,0.766c0.249,1.164 0.47,2.789 0.947,3.676c1.844,3.431 3.231,3.483 8.364,6.259c5.998,-5.817 6.389,-7.174 4.905,-10.568c-2.572,-0.517 -5.191,-0.521 -7.922,-0.133Zm12.427,-13.961l3.502,-1.774l-1.445,-3.798c-8.976,0.129 -17.874,0.389 -25.455,2.916c-0.29,1.486 1.084,4.393 4.286,5.653l19.112,-2.997Z" style="fill:#8c0031;"/><path d="M210.781,294.487c-9.613,-6.238 -17.77,-14.277 -24.578,-23.983c0.986,-5.895 2.876,-11.057 5.578,-15.564c5.636,-1.589 11.321,-2.701 17.059,-3.314c5.74,-0.599 11.533,-0.698 17.375,-0.321c3.584,3.843 6.51,8.497 8.705,14.056c-5.068,11.943 -12.133,22.272 -21.369,30.844l-0.005,-0.004l-0.004,0.005c-0.93,-0.555 -1.847,-1.126 -2.752,-1.713c0.139,-0.223 0.305,-0.431 0.499,-0.619c-0.014,0.008 -0.029,0.02 -0.043,0.034c-0.193,0.194 -0.347,0.387 -0.465,0.579Zm2.335,-2.36c7.727,-7.611 13.776,-16.579 18.28,-26.8c-1.783,-4.177 -4.026,-7.782 -6.701,-10.857c-5.213,-0.271 -10.385,-0.149 -15.513,0.386c-5.127,0.548 -10.211,1.508 -15.253,2.863c-1.974,3.565 -3.415,7.559 -4.285,12.017c6.537,9.054 14.326,16.561 23.472,22.391Z" style="fill:#72052a;"/><path d="M223.508,263.529l-21.221,1.776l5.294,-0.884l11.918,-3.674l0.078,-0.58l2.769,-2.367l-1.091,-1.092l-8.863,2.7l5.963,-2.905l-10.267,-0.866c5.462,-0.333 10.924,-0.659 16.425,-0.62l2.321,4.384l-3.326,4.128Z" style="fill:#fc8889;"/><path d="M212.818,289.61c1.424,-1.636 5.418,-6.414 9.618,-13.835c1.963,-3.469 2.952,-6.089 2.269,-4.063c-2.382,7.068 -7.789,16.479 -10.993,19.843c-0.332,0.348 -0.831,0.429 -1.265,0.162c-3.849,-2.367 -6.433,-4.726 -6.945,-5.193c-0.092,-0.085 -2.538,-3.662 -4.498,-10.378c-0.251,-0.86 -0.47,-1.693 -0.469,-1.694c0.03,-0.36 0.377,0.912 2.031,4.227c1.556,3.12 3.098,5.383 3.898,6.508c0.154,0.217 0.275,0.386 2.641,2.012c0.249,0.171 0.251,0.178 3.713,2.411Z" style="fill:#d8002a;"/><path d="M199.027,274.182c-1.764,-0.548 -6.708,-2.66 -6.224,-2.59c0.804,0.114 3.741,0.595 6.217,1.298c0.402,-1.635 1.462,-4.998 1.585,-4.976c0.095,0.017 -0.017,2.928 -0.134,4.137c-0.045,0.456 -0.084,0.767 -0.115,0.984c1.003,-0.052 3.56,-0.141 10.692,-0.133c0.01,0 0.251,0.115 0.05,0.14c-0.833,0.105 -7.279,0.916 -10.592,1.199c0.259,0.675 0.777,2.172 1.788,5.728c0.04,0.14 -0.081,0.188 -0.152,0.064c-0.243,-0.426 -2.491,-4.365 -3.115,-5.851Z" style="fill:#fc8e8f;"/><path d="M222.063,264.379c-17.498,2.036 -21.024,0.997 -21.024,0.997c0,0 -1.525,-0.52 -2.055,-0.763c-0.484,-0.221 -2.15,-1.058 -2.053,-1.092c0.208,-0.073 4.569,1.474 4.569,1.474c0,-0 1.872,-0.282 20.764,-3.028c0.901,-0.552 2.518,-0.917 3.874,-2.487l-1.863,-4.265c0.018,-0.113 0.055,-0.54 0.34,-0.2c0.046,0.055 2.381,3.199 3.108,4.196c0.116,0.161 0.485,0.666 -0.858,2.325c-0.733,0.906 -1.681,1.594 -2.33,2.026c0.454,0.921 0.926,1.832 1.376,2.755l1.137,2.481c1.044,-0.426 2.27,-1.138 4.175,-3.08c0.093,-0.095 0.197,-0.072 0.166,0.071c-0.001,0.005 -0.655,1.52 -1.418,2.618c-0.171,0.247 -1.22,1.755 -2.597,2.584c-1.725,4.374 -7.137,13.075 -11.566,18.156c3.196,-4.972 7,-13.001 8.902,-17.625c-1.451,0.114 -5.181,0.359 -8.255,0.436c-3.782,0.094 -3.78,0.081 -7.561,0.103c7.971,-1.478 8.193,-1.707 15.729,-2.748c-0.795,-1.494 -1.935,-3.677 -2.56,-4.934Z" style="fill:#f2d6cd;"/></g><g><path d="M266.612,288.391l-0.005,0.002c-6.66,-10.697 -10.763,-22.519 -12.515,-35.374c3.578,-4.787 7.625,-8.509 12.092,-11.276c5.736,1.171 11.299,2.789 16.68,4.875c5.376,2.099 10.569,4.666 15.589,7.68c1.423,5.058 1.891,10.536 1.293,16.482c-9.979,8.291 -20.993,14.232 -33.131,17.616l-0.003,-0.005Z" style="fill:#c20043;"/><path d="M257.501,253.913c2.818,-3.563 5.929,-6.451 9.317,-8.716c5.103,1.108 10.061,2.585 14.869,4.448c1.311,0.512 2.61,1.053 3.899,1.622l-12.014,0.249l3.515,-2.042c-6.382,1.452 -9.123,0.954 -10.25,2.197c1.402,2.002 2.307,3.13 3.929,4.367c-2.404,-1.057 -4.538,-2.372 -5.894,-4.081l-7.371,1.956Zm28.524,-2.451c3.28,1.468 6.487,3.12 9.626,4.951c0.492,2.013 0.822,4.097 0.984,6.254l-2.016,-1.117l-4.092,-5.608l-9.752,-1.803l5.25,-2.677Z" style="fill:#ed0c10;"/><path d="M266.612,288.391l-0.005,0.002c-6.66,-10.697 -10.763,-22.519 -12.515,-35.374c3.578,-4.787 7.625,-8.509 12.092,-11.276c5.736,1.171 11.299,2.789 16.68,4.875c5.376,2.099 10.569,4.666 15.589,7.68c1.423,5.058 1.891,10.536 1.293,16.482c-9.979,8.291 -20.993,14.232 -33.131,17.616l-0.003,-0.005Zm0.411,-36.421c-0.737,-1.448 -0.957,-2.973 -1.003,-4.524c-2.842,1.961 -4.961,4.277 -6.775,7.206c1.526,1.624 3.337,3.205 5.305,4.763l2.473,-7.445Zm-4.378,17.343c-0.062,-2.577 0.017,-5.749 0.026,-6.915c-0.999,-1.083 -1.961,-2.261 -2.921,-3.445c0.63,3.437 1.581,6.889 2.895,10.36Zm28.238,0.968c1.946,-0.705 3.7,-1.421 4.559,-2.317c0.566,-2.078 0.733,-3.982 0.738,-5.814l-5.278,1.475l-1.079,6.244l1.06,0.412Zm-26.337,-8.765l22.88,5.112l1.527,-2.582l-19.136,-8.711l-4.256,5.138l-1.015,1.043Zm7.419,5.782c-2.166,-0.754 -4.019,-1.49 -5.945,-2.204c-0.313,1.149 -0.861,2.695 -0.844,3.701c0.066,3.895 1.275,4.577 4.565,9.398c7.997,-2.421 8.966,-3.448 9.203,-7.145c-2.048,-1.638 -4.374,-2.842 -6.979,-3.75Zm17.444,-6.711l3.926,0.029l0.456,-4.038c-8.035,-4 -16.063,-7.848 -23.959,-9.077c-0.939,1.188 -1.051,4.402 1.218,6.989l18.359,6.097Z" style="fill:#8c0031;"/><path d="M264.94,285.6c-5.683,-9.951 -9.247,-20.835 -10.848,-32.581c3.578,-4.787 7.625,-8.509 12.092,-11.276c5.736,1.171 11.299,2.789 16.68,4.875c5.376,2.099 10.569,4.666 15.589,7.68c1.423,5.058 1.891,10.536 1.293,16.482c-9.979,8.291 -20.993,14.232 -33.131,17.616l-0.003,-0.005l-0.005,0.002c-0.573,-0.919 -1.126,-1.847 -1.661,-2.783c0.225,-0.135 0.469,-0.244 0.728,-0.322c-0.017,0.001 -0.035,0.004 -0.054,0.01c-0.261,0.084 -0.486,0.186 -0.68,0.302Zm3.158,-1.027c10.356,-3.222 19.843,-8.419 28.531,-15.438c0.331,-4.53 -0.011,-8.762 -0.978,-12.722c-4.509,-2.63 -9.162,-4.892 -13.964,-6.768c-4.808,-1.863 -9.766,-3.34 -14.869,-4.448c-3.388,2.265 -6.499,5.153 -9.317,8.716c1.66,11.044 5.141,21.286 10.597,30.66Z" style="fill:#72052a;"/><path d="M290.443,263.92l-19.674,-8.149l5.11,1.641l12.277,2.199l0.335,-0.48l3.546,-0.835l-0.469,-1.471l-9.115,-1.663l6.631,0.152l-8.727,-5.477c5.006,2.208 10.01,4.423 14.882,6.979l0.052,4.961l-4.848,2.143Z" style="fill:#fc8889;"/><path d="M268.987,282.199c2.016,-0.801 7.755,-3.217 14.89,-7.886c3.335,-2.184 5.415,-4.059 3.879,-2.571c-5.358,5.19 -14.477,11.075 -18.866,12.595c-0.455,0.158 -0.936,0.001 -1.199,-0.435c-2.336,-3.868 -3.55,-7.149 -3.791,-7.8c-0.044,-0.117 -0.578,-4.417 0.759,-11.284c0.171,-0.88 0.359,-1.721 0.36,-1.721c0.191,-0.306 -0.083,0.983 -0.133,4.688c-0.047,3.486 0.286,6.204 0.481,7.571c0.038,0.263 0.067,0.468 1.425,2.999c0.143,0.266 0.142,0.273 2.195,3.844Z" style="fill:#d8002a;"/><path d="M263.802,262.166c-1.316,-1.296 -4.742,-5.439 -4.343,-5.155c0.661,0.47 3.052,2.243 4.93,4.004c1.107,-1.269 3.59,-3.773 3.689,-3.696c0.077,0.058 -1.357,2.594 -2.016,3.615c-0.248,0.384 -0.425,0.643 -0.553,0.822c0.916,0.413 3.229,1.507 9.563,4.783c0.01,0.005 0.172,0.217 -0.019,0.147c-0.788,-0.288 -6.889,-2.523 -9.963,-3.79c-0.079,0.719 -0.305,2.287 -1.037,5.911c-0.028,0.142 -0.158,0.129 -0.164,-0.013c-0.021,-0.49 -0.213,-5.022 -0.087,-6.628Z" style="fill:#fc8e8f;"/><path d="M288.77,264.013c-16.485,-6.211 -19.143,-8.751 -19.143,-8.751c0,0 -1.116,-1.162 -1.476,-1.62c-0.329,-0.419 -1.426,-1.926 -1.325,-1.912c0.219,0.031 3.386,3.405 3.386,3.405c0,-0 1.792,0.607 19.842,6.827c1.054,-0.077 2.658,0.339 4.583,-0.435l0.299,-4.644c0.068,-0.092 0.296,-0.455 0.394,-0.022c0.016,0.07 0.649,3.935 0.838,5.154c0.03,0.196 0.126,0.814 -1.827,1.674c-1.067,0.469 -2.225,0.645 -3,0.732c-0.019,1.026 -0.017,2.053 -0.041,3.079l-0.126,2.726c1.123,0.1 2.539,0.029 5.123,-0.824c0.126,-0.041 0.207,0.027 0.114,0.139c-0.003,0.005 -1.278,1.051 -2.46,1.677c-0.265,0.141 -1.888,1.001 -3.492,1.106c-3.538,3.097 -12.338,8.349 -18.603,10.835c5.12,-2.955 12.181,-8.346 15.992,-11.584c-1.343,-0.564 -4.77,-2.056 -7.537,-3.397c-3.405,-1.65 -3.396,-1.66 -6.767,-3.374c7.761,2.34 8.064,2.238 15.238,4.768c-0.021,-1.692 -0.034,-4.154 -0.012,-5.559Z" style="fill:#f2d6cd;"/></g><g id="Box-Body" serif:id="Box Body"><path d="M149.991,313.793l-149.991,0l-0,-45.643l149.991,-0l0,45.643Zm0.009,0l0,-45.643l149.991,-0l0,45.643l-149.991,0Z" style="fill:#7b2300;"/><path d="M149.991,333.236l-149.991,-0l-0,-45.643l149.991,-0l0,45.643Zm0.009,-0l0,-45.643l149.991,-0l0,45.643l-149.991,-0Z" style="fill:#48262d;"/><path d="M149.991,299.795l-130.747,0l-0,-10.864l130.747,-0l0,10.864Zm0,26.098l-130.747,-0l-0,-10.865l130.747,0l0,10.865Zm0,-12.931l-130.747,-0l-0,-10.865l130.747,0l0,10.865Zm0.009,-13.167l0,-10.864l130.747,-0l0,10.864l-130.747,0Zm0,26.098l0,-10.865l130.747,0l0,10.865l-130.747,-0Zm0,-12.931l0,-10.865l130.747,0l0,10.865l-130.747,-0Z" style="fill:#79533b;"/><path d="M19.244,310.234l-0,-7.253l130.747,-0l0,1.679c-14.179,2.818 -25.851,6.713 -50.337,3.642c-5.509,-0.691 -29.086,-1.815 -47.353,-1.123c-2.299,0.087 -6.127,-0.165 -12.202,0.094c-8.716,0.373 -17.593,2.148 -17.899,2.222c-1.024,0.245 -2.009,0.491 -2.956,0.739Zm130.756,-5.575l0,-1.678l10.4,-0c-3.725,0.436 -7.129,1.028 -10.4,1.678Zm37.644,-1.678l93.103,-0l0,0.502c-4.725,0.45 -13.596,0.471 -30.631,1.753c-9.364,0.704 -18.586,2.224 -26.75,2.193c-5.764,-0.023 -9.501,-0.569 -22.397,-2.678c-4.837,-0.791 -9.256,-1.369 -13.325,-1.77Zm60.842,-4.129l-98.486,-0l-0,-1.562c5.47,-0.574 11.2,-1.149 14.933,-1.492c9.951,-0.916 10.887,-0.846 16.508,-0.74c20.168,0.381 33.951,2.665 67.045,3.794Zm-98.495,-1.561l0,1.561l-13.902,-0c2.483,-0.331 8.043,-0.946 13.902,-1.561Zm-64.469,1.561l-42.142,-0c6.091,-1.007 13.292,-2.05 24.659,-1.809c5.418,0.115 11.359,0.924 17.483,1.809Zm-66.278,-2.76l-0,-3.087l130.747,-0l0,1.887c-7.49,0.547 -13.962,1.081 -15.319,1.263c-13.989,1.88 -21.808,1.588 -23.71,1.63c-9.261,0.206 -16.474,-0.656 -23.837,-1.451c-12.317,-1.329 -13.476,-1.101 -17.579,-1.356c-15.746,-0.976 -24.107,0.702 -31.637,1.607c-10.145,1.218 -14.054,0.077 -17.738,-0.374c-0.312,-0.038 -0.622,-0.078 -0.927,-0.119Zm130.756,-1.2l-0,-1.887l130.747,-0l0,3.094c-33.412,0.158 -50.633,-0.664 -66.987,-1.637c-26.186,-1.558 -31.394,-1.052 -38.449,-1.023c-4.241,0.018 -15.627,0.746 -25.311,1.453Zm130.747,12.146l0,5.924l-130.747,-0l-0,-4.497c1.769,-0.389 3.574,-0.763 5.447,-1.106c20.497,-3.761 37.368,-0.847 51.015,1.09c15.232,2.161 19.938,1.924 21.336,1.911c4.865,-0.048 16.185,-0.761 22.623,-1.303c16.206,-1.363 25.087,-1.497 30.326,-2.019Zm-130.756,1.428l0,4.496l-22.444,-0c8.355,-1.008 15.083,-2.878 22.444,-4.496Zm-48.784,4.496l-78.273,-0c3.508,-0.77 5.635,-1.433 11.994,-2.581c6.972,-1.259 16.317,-1.619 16.776,-1.609c2.467,0.053 13.88,0.29 32.452,2.171c10.573,1.071 14.261,1.717 14.415,1.735c0.895,0.103 1.774,0.197 2.636,0.284Zm-81.963,6.422l-0,-3.472l130.747,-0l0,0.635c-3.892,0.554 -6.574,1.159 -8.538,1.392c-5.216,0.619 -11.308,1.453 -18.683,2.001c-16.294,1.212 -16.301,1.047 -32.64,1.349c-15.812,0.292 -15.811,0.086 -17.184,0.156c-9.659,0.496 -14.494,0.051 -23.31,-1.782c-10.951,-2.277 -17.758,-1.311 -19.681,-1.264c-4.02,0.098 -7.578,0.518 -10.711,0.985Zm130.756,-2.839l-0,-0.633l5.515,-0c-2.071,0.182 -3.897,0.403 -5.515,0.633Zm28.669,-0.633l102.078,-0l0,4.856c-4.753,-0.85 -9.767,-1.799 -14.405,-2.432c-8.78,-1.196 -15.317,-0.82 -19.549,-0.863c-10.269,-0.104 -16.885,0.814 -24.201,1.249c-15.548,0.924 -26.995,-1.256 -31.602,-1.698c-2.532,-0.243 -6.914,-0.739 -12.321,-1.112Zm102.078,7.388l0,0.01l-130.747,0l0,-4.235c0.507,-0.05 1.024,-0.097 1.547,-0.141c18.175,-1.529 35.355,2.044 39.78,2.447c26.368,2.403 33.126,-0.496 48.629,-1.752c0.594,-0.048 5.235,-0.424 7.438,-0.417c11.857,0.039 17.231,1.024 17.391,1.047c5.534,0.804 10.968,1.989 15.962,3.041Zm-130.756,-4.224l0,4.234l-23.473,0c7.578,-1.396 15.089,-3.194 16.317,-3.365c1.411,-0.196 4.103,-0.571 7.156,-0.869Zm-101.249,4.234l-29.498,0l-0,-1.653c2.331,-0.428 4.858,-0.84 7.593,-1.112c2.263,-0.225 3.661,-0.356 7.443,-0.066c6.362,0.487 10.408,1.614 14.462,2.831Z" style="fill:#815a41;"/><path d="M19.244,293.005l-0,-4.074l130.747,-0l0,4.074l-130.747,-0Zm130.747,5.847l0,0.943l-130.747,0l-0,-0.943l130.747,-0Zm-130.747,17.06l-0,-0.884l130.747,0l0,0.884l-130.747,-0Zm130.747,7.398l0,2.583l-130.747,-0l-0,-2.583l130.747,0Zm-130.747,-20.329l-0,-0.884l130.747,0l0,0.884l-130.747,-0Zm261.503,-9.976l-130.747,-0l0,-4.074l130.747,-0l0,4.074Zm-130.747,5.847l130.747,-0l0,0.943l-130.747,0l0,-0.943Zm130.747,17.06l-130.747,-0l0,-0.884l130.747,0l0,0.884Zm-130.747,7.398l130.747,0l0,2.583l-130.747,-0l0,-2.583Zm130.747,-20.329l-130.747,-0l0,-0.884l130.747,0l0,0.884Z" style="fill:#937058;"/><path d="M149.991,341.98l-148.907,-0c-0.686,-1.047 -1.084,-2.299 -1.084,-3.644l-0,-68.875l149.991,0l0,22.524l-123.971,-0l0,32.507l123.971,-0l0,17.488Zm0.009,-0l0,-17.488l123.971,-0l-0,-32.507l-123.971,-0l0,-22.524l149.991,0l0,68.875c0,1.345 -0.398,2.597 -1.083,3.644l-148.908,-0Z" style="fill:#f87920;"/><path d="M-0,269.461l299.991,0l0,68.875c0,1.345 -0.398,2.597 -1.083,3.644l-297.824,-0c-0.686,-1.047 -1.084,-2.299 -1.084,-3.644l0,-68.875Zm276.747,18.534l-253.503,0l-0,36.497l253.503,-0l0,-36.497Z" style="fill:#ffc635;"/><path d="M298.908,341.98l-297.824,-0c-0.686,-1.047 -1.084,-2.299 -1.084,-3.644l-0,-68.875l299.991,0l0,68.875c0,1.345 -0.398,2.597 -1.083,3.644Zm-151.647,-3c0,-0 127.389,-0 147.071,-0c1.687,-0 2.659,-2.552 2.659,-5.718l0,-56.827c0,-0.953 -3.942,-2.386 -3.942,-2.386l-27.6,-0l-3.665,3.894l-5.116,-3.894l-1.909,2.367l-1.756,-2.367l-71.319,-0c-1.404,2.32 -3.304,2.362 -5.727,-0l-4.887,-0c-3.029,2.738 -6.058,2.962 -9.087,-0l-99.571,-0l-2.596,-1.285l-3.283,1.285l-48.006,-0l-5.527,2.625l-0,5.208l-1.02,1.987l1.02,1.664l-0,21.207l1.396,15.141l-1.396,2.362l-0,8.268l2.682,6.469l29.167,-0c2.299,-1.367 4.474,-1.367 6.525,-0l89.109,-0l3.653,-1.503l1.567,1.503l6.771,-1.725l4.787,1.725Zm15.988,-11.488l-100.039,-0l-4.614,1.468l-5.348,1.153l-7.655,-2.621l-22.711,-0l-2.638,-2.831l-0,-17.249l-3.134,-11.599l3.134,-5.069l-0,-3.963l2.822,-1.786l93.27,0l8.164,-1.187l7.32,1.187l3.327,-1.834l3.124,1.834l91.519,0c1.634,-2.116 4.173,-1.816 7.281,0c4.363,-2.212 7.128,-2.212 8.295,0l30.994,0l3.387,2.598l0,3.428l3.038,13.396l-3.038,5.997l0,12.108l-2.388,5.326l-7.78,-0.356l-72.25,-0l-15.134,1.963l-8.146,-1.963l-4.509,2.516l-6.291,-2.516Zm-140.005,-3l253.503,-0l0,-36.497l-253.503,0l-0,36.497Z" style="fill:#fcdc4d;"/><path d="M298.908,341.98l-56.594,-0c6.319,-7.628 15.744,-10.556 26.2,-17.488l8.233,-0l0,-6.288c3.565,-3.142 7.183,-6.958 10.781,-11.756c4.151,-5.535 8.433,-8.861 12.463,-10.918l0,42.806c0,1.345 -0.398,2.597 -1.083,3.644Zm-105.054,-0l-156.027,-0c13.727,-8.643 30.765,-3.003 54.709,-17.488l144.381,-0c-12.489,8.347 -26.524,8.376 -43.063,17.488Zm80.886,-53.985l-137.87,0c2.149,-1.319 4.721,-2.531 8.235,-3.826c19.172,-7.063 29.504,-10.531 37.256,-14.708l117.63,0l0,6.194c-5.219,4.25 -11.427,7.957 -18.43,9.708c-2.324,0.581 -4.609,1.493 -6.821,2.632Zm-274.74,36.535l-0,-27.805c3.674,-1.701 7.013,-3.538 9.046,-6.588c6.117,-9.175 20.655,-11.598 22.677,-11.935c8.383,-1.397 11.38,-4.407 18.246,-8.741l58.241,0c-1.216,0.906 -2.559,1.953 -4.082,3.171c-18.665,14.933 -31.323,13.508 -43.795,15.363l-37.089,0l-0,24.734c-7.607,6.101 -15.958,9.096 -23.244,11.801Z" style="fill:#eee;fill-opacity:0.15;"/><path d="M149.991,345l-143.327,0c-2.336,-0 -4.39,-1.201 -5.58,-3.02l148.907,-0l0,3.02Zm0.009,0l-0,-3.02l148.908,-0c-1.19,1.819 -3.245,3.02 -5.581,3.02l-143.327,0Z" style="fill:#f87920;"/></g></g></g></svg>