<?xml version="1.0" encoding="UTF-8" standalone="no"?><!DOCTYPE svg PUBLIC "-//W3C//DTD SVG 1.1//EN" "http://www.w3.org/Graphics/SVG/1.1/DTD/svg11.dtd"><svg width="100%" height="100%" viewBox="0 0 300 345" version="1.1" xmlns="http://www.w3.org/2000/svg" xmlns:xlink="http://www.w3.org/1999/xlink" xml:space="preserve" xmlns:serif="http://www.serif.com/" style="fill-rule:evenodd;clip-rule:evenodd;stroke-linejoin:round;stroke-miterlimit:2;"><g id="FlightAttendant"><g><path d="M263.62,345l-227.24,0c-19.957,0 -36.38,-16.423 -36.38,-36.38l0,-54.244c7.719,3.41 34.596,12.033 65.544,22.051c34.347,11.118 73.603,22.771 84.456,40.604c10.853,-17.833 50.109,-29.486 84.456,-40.604c30.948,-10.018 57.825,-18.641 65.544,-22.051l-0,54.244c-0,19.957 -16.423,36.38 -36.38,36.38Z" style="fill:#b8c9ea;"/><g><path id="base_body_2" d="M300,271.403c-50,25.738 -100,38.702 -150,60.709c-7.676,3.378 -19.669,9.004 -27.345,12.888l140.965,0c19.957,0 36.38,-16.423 36.38,-36.38l0,-37.217Z" style="fill:#1d2642;"/><path id="base_body_21" serif:id="base_body_2" d="M282.865,282.44c-38.604,22.727 -81.546,34.739 -131.486,51.894c-7.992,2.746 -17.523,6.706 -24.893,10.666l137.134,0c6.114,0 11.897,-1.541 16.977,-4.253c2.82,-2.428 5.819,-5.836 8.183,-10.563c1.877,-3.753 -1.479,-4.652 0.671,-6.802c2.765,-2.765 4.01,-9.87 -1.246,-10.921c-6.822,-1.364 -0.845,-3.885 1.629,-7.184c0.43,-0.574 4.119,-5.493 4.119,-7.952c0,-4.949 -0.758,-5.824 -2.49,-9.867c-1.123,-2.619 -4.822,-4.449 -8.598,-5.018Z" style="fill:#2c3b67;"/></g><g><path id="base_body_22" serif:id="base_body_2" d="M0,271.403c50,25.738 100,38.702 150,60.709c7.676,3.378 19.669,9.004 27.345,12.888l-140.965,0c-19.957,0 -36.38,-16.423 -36.38,-36.38l0,-37.217Z" style="fill:#1d2642;"/><path id="base_body_23" serif:id="base_body_2" d="M17.135,282.44c38.604,22.727 81.546,34.739 131.486,51.894c7.992,2.746 17.523,6.706 24.893,10.666l-137.134,0c-6.114,0 -11.897,-1.541 -16.977,-4.253c-2.82,-2.428 -5.819,-5.836 -8.183,-10.563c-1.877,-3.753 1.479,-4.652 -0.671,-6.802c-2.765,-2.765 -4.01,-9.87 1.246,-10.921c6.822,-1.364 0.845,-3.885 -1.629,-7.184c-0.43,-0.574 -4.119,-5.493 -4.119,-7.952c-0,-4.949 0.758,-5.824 2.49,-9.867c1.123,-2.619 4.822,-4.449 8.598,-5.018Z" style="fill:#2c3b67;"/></g><path d="M209.186,325.396c-0.03,-0.174 -0.022,-0.355 0.026,-0.532c0.126,-0.463 0.509,-0.811 0.982,-0.891l20.86,-3.559c1.415,-1.614 3.373,-2.772 5.652,-3.161c0.223,-0.038 0.445,-0.068 0.667,-0.09c0.919,-0.092 1.825,-0.052 2.697,0.107c1.068,0.195 2.087,0.568 3.016,1.092l20.86,-3.559c0.473,-0.08 0.95,0.121 1.222,0.516c0.104,0.15 0.171,0.319 0.201,0.492l0.313,1.835l-0.002,0c0.032,0.263 -0.022,0.535 -0.161,0.772l-0.917,1.56c-0.046,0.077 -0.092,0.152 -0.141,0.226c0.114,0.171 0.181,0.363 0.201,0.56l0.131,0.767l0.144,0.843c0.071,0.294 0.032,0.61 -0.119,0.885l-0.798,1.446c-0.046,0.083 -0.094,0.164 -0.143,0.244c0.013,0.017 0.027,0.034 0.039,0.052c0.109,0.148 0.181,0.316 0.215,0.491c0.003,0.018 0.006,0.037 0.009,0.055l0.292,1.714c0.004,0.022 0.008,0.043 0.011,0.065c0.036,0.251 -0.005,0.511 -0.126,0.744l-0.006,0.01c-1.245,2.394 -3.54,4.067 -6.2,4.521l-12.072,2.059c-0.801,0.957 -1.788,1.763 -2.918,2.357c-0.879,0.463 -1.846,0.796 -2.878,0.972c-1.715,0.293 -3.403,0.114 -4.93,-0.441c-0.572,-0.208 -1.121,-0.469 -1.641,-0.778l-12.072,2.059c-0.667,0.114 -1.338,0.148 -1.999,0.106c-1.978,-0.126 -3.874,-0.932 -5.35,-2.315l-0.008,-0.008c-0.19,-0.178 -0.315,-0.407 -0.365,-0.653c-0,-0.002 -0.001,-0.004 -0.001,-0.007c-0.004,-0.022 -0.008,-0.043 -0.012,-0.065l-0.292,-1.714c-0.003,-0.018 -0.007,-0.037 -0.009,-0.055c-0.026,-0.176 -0.014,-0.358 0.039,-0.535c0.006,-0.02 0.013,-0.041 0.02,-0.061c-0.073,-0.059 -0.145,-0.12 -0.216,-0.183l-1.232,-1.1c-0.234,-0.209 -0.375,-0.494 -0.406,-0.796l-0.024,-0.14l-0.253,-1.483c-0.009,-0.043 -0.017,-0.087 -0.023,-0.132c-0.018,-0.148 -0.008,-0.3 0.03,-0.449c-0.07,-0.054 -0.14,-0.11 -0.208,-0.167l-1.382,-1.168c-0.211,-0.177 -0.352,-0.416 -0.41,-0.674l-0.005,-0.031c-0.004,-0.02 -0.007,-0.039 -0.01,-0.059l-0.298,-1.744Zm-170.726,2.545l-0,-2.532l0.003,0c0.192,-5.984 7.993,-10.994 18.498,-12.433c1.98,-0.272 4.057,-0.416 6.196,-0.416c2.358,0 4.639,0.175 6.799,0.503c1.096,0.166 2.161,0.371 3.19,0.612c1.007,0.237 1.98,0.508 2.911,0.811c2.073,0.674 3.944,1.505 5.554,2.463c3.49,2.076 5.75,4.744 6.172,7.683c0.037,0.257 0.06,0.516 0.069,0.777l0.003,0l0,2.532c0,7.217 -11.066,13.075 -24.698,13.075c-13.631,0 -24.697,-5.858 -24.697,-13.075Z" style="fill:#11182b;fill-opacity:0.5;"/><g><path d="M233.672,334.708l-12.072,2.059c-2.661,0.454 -5.38,-0.364 -7.349,-2.209l-0.008,-0.008c-0.342,-0.321 -0.473,-0.807 -0.338,-1.255c0.135,-0.449 0.512,-0.782 0.974,-0.861l0.371,-0.063c-0.671,-0.24 -1.298,-0.608 -1.843,-1.095l-1.232,-1.099c-0.353,-0.316 -0.495,-0.806 -0.364,-1.261c0.131,-0.455 0.511,-0.796 0.978,-0.875l0.225,-0.039c-0.622,-0.223 -1.206,-0.556 -1.723,-0.993l-1.382,-1.167c-0.367,-0.31 -0.521,-0.804 -0.394,-1.267c0.126,-0.463 0.509,-0.81 0.982,-0.891l20.692,-3.53c1.425,-1.702 3.438,-2.926 5.796,-3.329c2.357,-0.402 4.663,0.086 6.571,1.22l20.692,-3.53c0.473,-0.081 0.95,0.12 1.223,0.515c0.272,0.395 0.291,0.912 0.048,1.326l-0.917,1.559c-0.343,0.583 -0.784,1.092 -1.297,1.508l0.225,-0.038c0.467,-0.08 0.939,0.115 1.213,0.501c0.275,0.387 0.304,0.896 0.075,1.311l-0.798,1.446c-0.353,0.639 -0.823,1.194 -1.376,1.643l0.371,-0.063c0.462,-0.079 0.928,0.111 1.204,0.489c0.276,0.378 0.314,0.88 0.098,1.296l-0.006,0.01c-1.245,2.394 -3.54,4.067 -6.2,4.521l-12.072,2.059c-1.425,1.702 -3.438,2.927 -5.796,3.329c-2.357,0.402 -4.663,-0.086 -6.571,-1.219Z" style="fill:#9a9a9a;"/><path d="M265.682,315.584l-56.183,9.584l-0.313,-1.835l56.183,-9.584l0.313,1.835Zm-0.732,4.807l-53.167,9.069l-0.313,-1.834l53.167,-9.07l0.313,1.835Zm-0.506,4.873l-50.568,8.626l-0.313,-1.835l50.568,-8.626l0.313,1.835Z" style="fill:#9a9a9a;"/><path d="M263.003,317.65l0.225,-0.039c0.467,-0.079 0.938,0.115 1.213,0.502c0.274,0.386 0.303,0.895 0.074,1.31l-0.798,1.446c-0.353,0.639 -0.822,1.195 -1.376,1.643l0.371,-0.063c0.462,-0.079 0.929,0.111 1.204,0.489c0.276,0.379 0.314,0.881 0.098,1.296l-0.005,0.01c-1.246,2.394 -3.54,4.067 -6.201,4.521l-36.511,6.228c-2.66,0.454 -5.38,-0.363 -7.348,-2.209l-0.009,-0.008c-0.341,-0.32 -0.472,-0.806 -0.337,-1.255c0.135,-0.448 0.512,-0.782 0.973,-0.861l0.372,-0.063c-0.671,-0.24 -1.298,-0.608 -1.843,-1.094l-1.232,-1.1c-0.354,-0.315 -0.495,-0.805 -0.365,-1.261c0.131,-0.455 0.511,-0.795 0.978,-0.875l0.226,-0.038c-0.622,-0.223 -1.207,-0.557 -1.724,-0.993l-1.382,-1.168c-0.367,-0.309 -0.52,-0.803 -0.394,-1.266c0.126,-0.463 0.509,-0.811 0.982,-0.892l53.752,-9.169c0.473,-0.081 0.95,0.12 1.222,0.515c0.273,0.395 0.292,0.912 0.048,1.326l-0.917,1.56c-0.343,0.582 -0.783,1.091 -1.296,1.508Z" style="fill:#b6b6b6;"/><path d="M263.135,324.304c-0.018,0.031 -0.037,0.061 -0.056,0.092l-0.746,-1.023c0.002,-0.003 0.003,-0.007 0.005,-0.01c0.092,-0.177 0.483,0.412 0.797,0.941Zm-48.259,8.315c-0.001,-0.001 -0.002,-0.002 -0.003,-0.003l0.359,-1.218c0.003,0.003 0.006,0.005 0.008,0.008l-0.364,1.213Zm1.507,-0.351l45.159,-7.703c-1.018,1.226 -2.449,2.065 -4.051,2.338l-36.512,6.229c-1.601,0.273 -3.23,-0.044 -4.596,-0.864Zm-4.481,-8.733l50.972,-8.695l-0.203,0.344c-0.554,0.943 -1.496,1.593 -2.574,1.777l-44.872,7.655c-1.078,0.183 -2.182,-0.118 -3.018,-0.823l-0.305,-0.258Zm2.244,4.365l48.058,-8.198l-0.141,0.254c-0.545,0.989 -1.511,1.675 -2.624,1.865l-41.982,7.162c-1.113,0.189 -2.252,-0.138 -3.095,-0.89l-0.216,-0.193Z" style="fill:#ccc;"/><path d="M212.712,326.229c-0.622,-0.223 -1.207,-0.557 -1.724,-0.993l-1.382,-1.168c-0.367,-0.309 -0.52,-0.803 -0.394,-1.266c0.126,-0.463 0.509,-0.811 0.982,-0.892l53.752,-9.169c0.473,-0.081 0.95,0.12 1.222,0.515c0.273,0.395 0.292,0.912 0.048,1.326l-0.917,1.56c-0.343,0.582 -0.783,1.091 -1.296,1.508l0.225,-0.039c0.467,-0.079 0.938,0.115 1.213,0.502c0.274,0.386 0.303,0.895 0.074,1.31l-0.798,1.446c-0.353,0.639 -0.822,1.195 -1.376,1.643l0.371,-0.063c0.462,-0.079 0.929,0.111 1.204,0.489c0.276,0.379 0.314,0.881 0.098,1.296l-0.005,0.01c-1.246,2.394 -3.54,4.067 -6.201,4.521l-36.511,6.228c-2.66,0.454 -5.38,-0.363 -7.348,-2.209l-0.009,-0.008c-0.341,-0.32 -0.472,-0.806 -0.337,-1.255c0.135,-0.448 0.512,-0.782 0.973,-0.861l0.372,-0.063c-0.671,-0.24 -1.298,-0.608 -1.843,-1.094l-1.232,-1.1c-0.354,-0.315 -0.495,-0.805 -0.365,-1.261c0.131,-0.455 0.511,-0.795 0.978,-0.875l0.226,-0.038Zm51.16,-7.161c0.093,-0.168 0.081,-0.374 -0.03,-0.53c-0.111,-0.156 -0.302,-0.235 -0.491,-0.203l-50.741,8.656c-0.189,0.032 -0.343,0.17 -0.396,0.354c-0.053,0.184 0.005,0.382 0.148,0.51l1.232,1.1c1.104,0.985 2.598,1.414 4.057,1.165l41.982,-7.161c1.459,-0.249 2.726,-1.149 3.441,-2.445l0.798,-1.446Zm-0.51,4.827c0.088,-0.168 0.073,-0.371 -0.039,-0.524c-0.112,-0.153 -0.3,-0.23 -0.487,-0.198l-48.136,8.212c-0.187,0.031 -0.339,0.166 -0.394,0.348c-0.054,0.181 -0.002,0.378 0.137,0.507l0.008,0.008c1.801,1.689 4.289,2.437 6.722,2.021l36.512,-6.228c2.434,-0.415 4.533,-1.946 5.672,-4.136l0.005,-0.01Zm1.221,-9.685c0.099,-0.168 0.091,-0.377 -0.019,-0.537c-0.111,-0.159 -0.303,-0.241 -0.495,-0.208l-53.751,9.169c-0.191,0.033 -0.346,0.174 -0.397,0.361c-0.051,0.187 0.011,0.387 0.159,0.512l1.382,1.168c1.096,0.925 2.544,1.319 3.957,1.078l44.872,-7.654c1.413,-0.241 2.648,-1.094 3.375,-2.33l0.917,-1.559Z" style="fill:#dfdfdf;"/><path d="M236.706,315.191c5.271,-0.899 10.281,2.65 11.18,7.922c0.899,5.271 -2.65,10.281 -7.922,11.18c-5.271,0.899 -10.28,-2.651 -11.18,-7.922c-0.899,-5.271 2.651,-10.281 7.922,-11.18Z" style="fill:#b6b6b6;"/><g transform="matrix(0.945504,-0.32561,0.32561,0.945504,-43.7678,-34.6331)"><g transform="matrix(15.7853,0,0,15.7853,155.711,437.15)"></g><text x="144.582px" y="437.15px" style="font-family:'TitanOne', 'Titan One';font-size:15.785px;fill:#dfdfdf;">B</text></g><path d="M236.706,315.191c5.271,-0.899 10.281,2.65 11.18,7.922c0.899,5.271 -2.65,10.281 -7.922,11.18c-5.271,0.899 -10.28,-2.651 -11.18,-7.922c-0.899,-5.271 2.651,-10.281 7.922,-11.18Zm0.123,0.724c-4.871,0.831 -8.152,5.461 -7.321,10.333c0.831,4.871 5.461,8.152 10.333,7.321c4.872,-0.831 8.152,-5.461 7.321,-10.333c-0.831,-4.871 -5.461,-8.152 -10.333,-7.321Z" style="fill:#dfdfdf;"/><path d="M211.745,329.241l-0.253,-1.483c-0.009,-0.044 -0.016,-0.088 -0.023,-0.132c-0.018,-0.148 -0.008,-0.3 0.03,-0.449c-0.07,-0.054 -0.14,-0.11 -0.208,-0.168l-1.382,-1.167c-0.211,-0.178 -0.352,-0.416 -0.409,-0.675l-0.314,-1.834c-0.03,-0.174 -0.022,-0.355 0.026,-0.531c0.126,-0.463 0.509,-0.811 0.982,-0.892l9.772,-1.667c-4.413,4.702 -6.354,6.642 -8.221,8.998Zm53.048,-9.772l0.144,0.843c0.071,0.294 0.032,0.61 -0.119,0.885l-0.798,1.446c-0.046,0.082 -0.094,0.164 -0.143,0.244c0.013,0.016 0.027,0.034 0.039,0.051c0.109,0.149 0.181,0.317 0.215,0.491c0.003,0.019 0.006,0.037 0.009,0.056l0.292,1.714c0.004,0.021 0.008,0.043 0.011,0.065c0.036,0.25 -0.005,0.511 -0.126,0.744l-0.006,0.01c-1.245,2.394 -3.54,4.067 -6.2,4.521l-1.178,0.201c1.974,-3.161 5.014,-7.411 7.86,-11.271Zm-15.799,12.625l-2.955,0.504c-0.801,0.957 -1.788,1.763 -2.918,2.357c4.008,-6.708 9.525,-15.029 13.548,-20.973l5.197,-0.886c-1.462,1.978 -3.07,4.172 -5.993,8.464c-3.742,5.493 -5.744,8.636 -6.879,10.534Zm-8.924,-16.886c1.068,0.195 2.087,0.568 3.016,1.091l6.719,-1.146c-4.65,6.178 -9.498,12.694 -14.492,20.333c-0.572,-0.208 -1.121,-0.469 -1.641,-0.778l-11.193,1.909c1.378,-1.517 3.25,-3.634 6.845,-8.255c3.534,-4.542 7.293,-8.972 10.746,-13.154Zm-20.469,21.665c-1.978,-0.127 -3.874,-0.932 -5.35,-2.315l-0.008,-0.008c-0.19,-0.178 -0.315,-0.407 -0.365,-0.653c3.152,-3.625 7.966,-8.796 13.431,-14.906l3.745,-0.639c1.415,-1.615 3.373,-2.772 5.652,-3.161c0.223,-0.038 0.445,-0.068 0.667,-0.09c-6.409,8.219 -14.601,17.908 -17.772,21.772Z" style="fill:#fff;fill-opacity:0.15;"/></g><g><path d="M38.46,324.727l-0,-2.532l49.395,0l0,2.532c0,7.216 -11.066,13.075 -24.698,13.075c-13.631,0 -24.697,-5.859 -24.697,-13.075Z" style="fill:#8f8f8f;"/><ellipse cx="63.157" cy="322.421" rx="24.698" ry="13.075" style="fill:#b6b6b6;"/><path d="M63.157,309.346c13.632,-0 24.698,5.859 24.698,13.075c0,7.216 -11.066,13.075 -24.698,13.075c-13.631,-0 -24.697,-5.859 -24.697,-13.075c-0,-7.216 11.066,-13.075 24.697,-13.075Zm0,0.588c-8.035,0 -15.168,2.055 -19.585,5.244c-2.821,2.037 -4.524,4.526 -4.524,7.243c0,2.717 1.703,5.206 4.524,7.243c4.417,3.189 11.55,5.243 19.585,5.243c8.036,0 15.169,-2.054 19.586,-5.243c2.821,-2.037 4.524,-4.526 4.524,-7.243c-0,-2.717 -1.703,-5.206 -4.524,-7.243c-4.417,-3.189 -11.55,-5.244 -19.586,-5.244Z" style="fill:#dfdfdf;"/><path d="M79.763,328.396c0.035,-0.244 0.128,-0.194 0.957,-1.079c3.785,-4.038 3.996,-7.647 -3.137,-11.228c-6.944,-3.486 -15.652,-3.884 -17.05,-3.948c-0.097,-0.005 -0.048,-0.096 -0.004,-0.105c0.109,-0.022 2.799,-0.245 4.937,-0.208c18.544,0.325 24.348,9.996 15.303,16.042c-0.918,0.613 -1.019,0.616 -1.006,0.526Zm-37.932,-4.761c0.278,0.373 1.543,2.071 4.179,4.045c2.9,2.173 5.49,3.026 6.453,3.365c-9.652,-1.69 -10.44,-6.679 -10.632,-7.41Z" style="fill:#dfdfdf;fill-opacity:0.5;"/><path d="M40.699,327.865c-1.438,-1.658 -2.239,-3.502 -2.239,-5.444c-0,-6.084 7.865,-11.202 18.501,-12.659l-16.262,18.103Zm29.257,-18.017c1.096,0.166 2.161,0.372 3.19,0.613l-21.207,23.609c-1.012,-0.273 -1.983,-0.583 -2.908,-0.926l20.925,-23.296Zm6.101,1.423c2.073,0.674 3.944,1.506 5.554,2.463l-19.536,21.75c-2.484,-0.057 -4.873,-0.309 -7.114,-0.726l21.096,-23.487Zm11.726,10.146c0.048,0.332 0.072,0.666 0.072,1.004c0,4.448 -4.204,8.38 -10.623,10.743l10.551,-11.747Z" style="fill:#ebebeb;fill-opacity:0.15;"/></g><path d="M150,324.677c-4.318,-9.649 -30.643,2.947 -53.601,1.527c5.453,-2.882 5.219,-19.294 13.113,-22.817c-32.189,-4.815 -65.165,26.809 -86.248,24.583c-5.579,-30.101 -22.276,-27.253 -23.264,-73.594c7.719,3.41 34.596,12.033 65.544,22.051c34.347,11.118 73.603,22.771 84.456,40.604c10.853,-17.833 50.109,-29.486 84.456,-40.604c30.948,-10.018 57.825,-18.641 65.544,-22.051c-0.988,46.341 -17.685,43.493 -23.264,73.594c-21.083,2.226 -54.059,-29.398 -86.248,-24.583c7.894,3.523 7.66,19.935 13.113,22.817c-22.958,1.42 -49.283,-11.176 -53.601,-1.527Z" style="fill:#435375;fill-opacity:0.15;"/><path d="M150,324.677c-4.318,-9.649 -29.386,-3.07 -52.343,-4.491c5.452,-2.881 7.673,-14.593 15.567,-18.116c-36.081,-8.707 -68.877,21.989 -89.96,19.763c-5.579,-30.101 -22.437,-28.657 -23.264,-67.457c7.719,3.41 34.596,12.033 65.544,22.051c34.347,11.118 73.603,22.771 84.456,40.604c10.853,-17.833 50.109,-29.486 84.456,-40.604c30.948,-10.018 57.825,-18.641 65.544,-22.051c-0.827,38.8 -17.685,37.356 -23.264,67.457c-21.083,2.226 -53.879,-28.47 -89.96,-19.763c7.894,3.523 10.115,15.235 15.567,18.116c-22.957,1.421 -48.025,-5.158 -52.343,4.491Z" style="fill:#c7d4ef;"/><path d="M26.314,307.592c-5.532,-6.675 -11.313,-16.996 -17.124,-24.908c5.343,3.287 10.263,9.136 15.277,10.809c5.787,1.932 12.219,1.172 16.575,3.715c-6.012,2.358 -10.952,5.79 -14.728,10.384Zm247.372,-0c-3.776,-4.594 -8.716,-8.026 -14.728,-10.384c4.356,-2.543 10.788,-1.783 16.575,-3.715c5.014,-1.673 9.934,-7.522 15.277,-10.809c-5.811,7.912 -11.592,18.233 -17.124,24.908Z" style="fill:#b8c9ea;"/><path d="M5.478,264.004c5.621,8.794 12.248,12.688 19.638,22.512c-15.117,-8.674 -19.54,-8.789 -19.638,-22.512Zm289.044,-0c-0.098,13.723 -4.521,13.838 -19.638,22.512c7.39,-9.824 14.017,-13.718 19.638,-22.512Z" style="fill:#b8c9ea;"/><path d="M150,324.677c-4.318,-9.649 -29.386,-3.07 -52.343,-4.491c22.555,-1.64 48.965,-10.573 52.343,4.491Zm0,-0c3.378,-15.064 29.788,-6.131 52.343,-4.491c-22.957,1.421 -48.025,-5.158 -52.343,4.491Zm-36.776,-22.607c-36.081,-8.707 -68.877,21.989 -89.96,19.763c25.936,-7.294 59.875,-35.906 89.96,-19.763Zm-0,-0l-4.951,3.86c1.393,-1.616 2.999,-2.989 4.951,-3.86Zm73.552,-0c30.085,-16.143 64.024,12.469 89.96,19.763c-21.083,2.226 -53.879,-28.47 -89.96,-19.763Zm0,-0c1.952,0.871 3.558,2.244 4.951,3.86l-4.951,-3.86Z" style="fill:#b8c9ea;"/><path d="M234.456,276.427c-26.014,7.653 -35.11,3.841 -57.243,10.089c-3.52,0.994 -12.293,3.253 -16.61,12.902c-4.422,-4.764 -20.766,-14.454 -43.404,-18.523c-10.226,-1.838 -21.026,-1.743 -33.305,-4.026c-14.166,-2.633 -29.194,-6.393 -35.139,-5.876c5.389,1.747 11.018,3.566 16.789,5.434c34.347,11.118 73.603,22.771 84.456,40.604c10.853,-17.833 50.109,-29.486 84.456,-40.604Z" style="fill:#163d71;"/><path d="M84.331,282.502c2.6,-1.335 5.17,-2.868 7.757,-4.389c1.899,0.231 3.764,0.426 5.599,0.602c-3.044,1.679 -6.031,3.525 -9.033,5.215c-1.438,-0.479 -2.879,-0.955 -4.323,-1.428Zm11.058,3.71c0.582,-0.83 1.85,-1.406 3.319,-1.406c2.02,-0 3.659,1.088 3.659,2.429c0,0.458 -0.192,0.887 -0.525,1.253c-2.127,-0.768 -4.281,-1.526 -6.453,-2.276Zm12.286,4.437c0.667,-0.598 1.737,-0.985 2.941,-0.985c2.02,0 3.659,1.089 3.659,2.429c0,0.364 -0.121,0.71 -0.338,1.02c-2.045,-0.834 -4.135,-1.655 -6.262,-2.464Zm12.941,5.316c4.682,-4.392 10,-7.653 15.893,-9.893c1.687,0.61 3.305,1.241 4.848,1.884c-6.525,1.918 -12.374,5.038 -17.455,9.524c-1.076,-0.51 -2.172,-1.015 -3.286,-1.515Zm5.24,-13.18c0.375,0.381 0.593,0.836 0.593,1.325c0,1.341 -1.639,2.429 -3.659,2.429c-2.019,0 -3.658,-1.088 -3.658,-2.429c-0,-1.087 1.078,-2.008 2.562,-2.318c1.416,0.311 2.804,0.643 4.162,0.993Zm-13.129,-2.579c0.012,0.08 0.018,0.161 0.018,0.243c0,1.341 -1.639,2.43 -3.659,2.43c-2.019,-0 -3.659,-1.089 -3.659,-2.43c0,-0.357 0.117,-0.696 0.326,-1.002c2.365,0.22 4.686,0.458 6.974,0.759Zm18.506,21.019c5.524,-4.534 12.73,-7.002 21.313,-7.745c1.838,1.081 3.426,2.126 4.742,3.094c-9.278,0.141 -17.077,2.086 -22.947,6.446c-1.005,-0.606 -2.042,-1.204 -3.108,-1.795Zm45.883,-4.223c-0.07,-0.187 -0.107,-0.383 -0.107,-0.585c-0,-1.34 1.639,-2.429 3.659,-2.429c0.809,0 1.558,0.175 2.164,0.471c-1.956,0.834 -3.865,1.681 -5.716,2.543Zm15.11,-6.316c-1.453,-3.089 -4.965,-4.696 -9.609,-5.564c2.381,-0.554 4.615,-0.994 6.752,-1.354c2.823,1.337 4.891,3.21 5.998,5.74c-1.055,0.39 -2.102,0.783 -3.141,1.178Zm-22.725,-1.137c0.586,-0.265 1.292,-0.419 2.053,-0.419c2.019,0 3.659,1.089 3.659,2.429c-0,1.341 -1.64,2.429 -3.659,2.429c-2.02,0 -3.659,-1.088 -3.659,-2.429c-0,-0.588 0.316,-1.128 0.841,-1.549c0.255,-0.161 0.511,-0.314 0.765,-0.461Z" style="fill:#edf5ff;"/><path d="M151.034,313.833c-6.31,5.579 -11.699,15.047 -14.569,28.217c14.187,-1.324 24.789,-6.444 23.883,-23.75c-2.595,-3.02 -5.832,-4.11 -9.314,-4.467Z" style="fill:#2b5d9f;"/><path d="M147.953,339.644c-0.705,-0.432 -1.355,-1.204 -1.764,-2.19c-0.773,-1.866 -0.396,-3.797 0.843,-4.311c1.238,-0.513 2.872,0.584 3.645,2.45c0.384,0.927 0.485,1.87 0.336,2.648c-0.962,0.529 -1.985,0.994 -3.06,1.403Zm8.347,-5.742c1.269,-9.089 -2.173,-14.341 -6.789,-18.629c0.501,-0.506 1.009,-0.986 1.523,-1.44c0.718,0.073 1.425,0.178 2.119,0.325c3.267,3.323 5.813,7.23 6.55,12.618c-0.682,2.855 -1.844,5.201 -3.403,7.126Zm-13.728,-9.018c0.894,0.015 1.94,0.457 2.824,1.274c1.482,1.371 1.947,3.283 1.037,4.268c-0.91,0.984 -2.853,0.67 -4.336,-0.701c-0.507,-0.469 -0.895,-1.002 -1.15,-1.539c0.519,-1.149 1.061,-2.249 1.625,-3.302Z" style="fill:#edf5ff;"/><path d="M159.217,319.764c10.523,13.787 13.026,18.278 31.001,18.028c-0.68,-12.896 -8.324,-20.642 -21.954,-23.959l-9.047,5.931Z" style="fill:#184784;"/><path d="M163.158,317.18c3.273,3.009 6.037,6.385 8.588,9.694c2.901,3.764 5.51,7.439 8.332,10.3c-2.353,-0.415 -4.326,-1.047 -6.09,-1.928c-1.595,-1.994 -3.194,-4.149 -4.881,-6.338c-2.598,-3.372 -5.419,-6.829 -8.828,-9.841l2.879,-1.887Zm19.874,10.468c0.773,1.866 0.396,3.797 -0.843,4.311c-1.238,0.513 -2.871,-0.585 -3.645,-2.45c-0.773,-1.865 -0.396,-3.797 0.843,-4.31c1.238,-0.514 2.871,0.584 3.645,2.449Zm-9.263,-10.137c1.591,1.244 2.212,3.111 1.386,4.168c-0.826,1.056 -2.788,0.903 -4.379,-0.341c-1.59,-1.244 -2.212,-3.111 -1.386,-4.167c0.826,-1.056 2.788,-0.904 4.379,0.34Z" style="fill:#edf5ff;"/><path d="M168.464,306.126c2.707,0.741 5.1,1.874 6.386,4.391c0.56,1.095 0.24,2.405 -0.532,3.459c-1.475,2.012 -2.389,4.327 -6.054,6.586c-1.087,0.67 -3.456,0.838 -4.391,0.932c-4.721,0.473 -8.817,-1.168 -8.581,-4.463c0.244,-3.414 10.875,-11.533 13.172,-10.905Z" style="fill:#163d71;"/><path d="M163.12,321.552c-1.097,-1.481 -1.243,-3.243 -0.29,-4.057c1.019,-0.871 2.912,-0.332 4.224,1.203c0.527,0.617 0.881,1.301 1.049,1.955c-1.145,0.595 -3.339,0.751 -4.23,0.841c-0.253,0.025 -0.504,0.044 -0.753,0.058Zm9.274,-4.747c-0.943,-1.765 -2.59,-3.43 -4.384,-4.777c-1.909,-1.433 -4.003,-2.529 -5.713,-2.879c1.244,-0.918 2.479,-1.711 3.538,-2.259c1.39,0.621 2.827,1.462 4.174,2.473c1.703,1.279 3.255,2.817 4.416,4.461c-0.035,0.052 -0.07,0.102 -0.107,0.152c-0.655,0.894 -1.2,1.847 -1.924,2.829Z" style="fill:#edf5ff;"/><path d="M163.674,314.442c-1.79,1.781 -4.234,3.662 -7.251,3.193c-4.292,-0.667 -7.537,-0.619 -8.516,0.665c-2.059,-0.512 -2.598,-2.524 -2.86,-4.656c-0.355,-2.891 0.537,-6.284 3.06,-8.848l3.26,-3.327c1.668,-1.686 3.928,-2.629 6.053,-2.794c3.594,-0.278 5.61,-0.498 8.316,1.464c1.566,1.135 2.708,2.704 3.792,4.191c0.995,1.365 1.346,3.354 -0.2,5.189c-1.268,1.506 -4.275,3.551 -5.654,4.923Z" style="fill:#184784;"/><path d="M150.039,317.327c-0.479,-0.72 -0.729,-1.769 -0.621,-2.906c0.191,-2.011 1.43,-3.54 2.764,-3.413c1.335,0.127 2.263,1.862 2.072,3.872c-0.09,0.946 -0.411,1.785 -0.865,2.395c-1.305,-0.097 -2.439,-0.087 -3.35,0.052Zm11.221,-0.884c-0.783,-7.331 0.546,-12.882 3.665,-16.84c0.265,0.157 0.534,0.335 0.811,0.536c0.648,0.469 1.223,1.013 1.752,1.595c-2.285,2.942 -3.316,6.937 -3.094,12.048c-0.269,0.233 -0.513,0.454 -0.72,0.66c-0.705,0.701 -1.511,1.418 -2.414,2.001Zm-4.008,-17.753c0.01,0.005 0.019,0.01 0.029,0.015c1.173,0.65 1.331,2.611 0.352,4.378c-0.978,1.766 -2.725,2.673 -3.897,2.024c-1.173,-0.65 -1.331,-2.611 -0.353,-4.378c0.284,-0.513 0.633,-0.953 1.013,-1.304c0.933,-0.397 1.906,-0.644 2.856,-0.735Z" style="fill:#edf5ff;"/></g></g></svg>