<?xml version="1.0" encoding="UTF-8" standalone="no"?><!DOCTYPE svg PUBLIC "-//W3C//DTD SVG 1.1//EN" "http://www.w3.org/Graphics/SVG/1.1/DTD/svg11.dtd"><svg width="100%" height="100%" viewBox="0 0 1250 1438" version="1.1" xmlns="http://www.w3.org/2000/svg" xmlns:xlink="http://www.w3.org/1999/xlink" xml:space="preserve" xmlns:serif="http://www.serif.com/" style="fill-rule:evenodd;clip-rule:evenodd;stroke-linejoin:round;stroke-miterlimit:2;"><g id="Mariachi"><g id="ClothingMariachi"><g><path d="M-0,1285.92l-0,-194.207c-0,83.132 68.408,151.54 151.542,151.54l946.875,0c83.156,0 151.583,-68.427 151.583,-151.583l0,194.25c0,83.156 -68.427,151.583 -151.583,151.583l-946.834,0c-83.156,0 -151.583,-68.427 -151.583,-151.583Z" style="fill:#cdcdcd;"/><g><path d="M863.161,1242.5l-233.934,0c0.112,0.268 0.238,0.531 0.376,0.787l-9.215,0c0.139,-0.256 0.264,-0.519 0.376,-0.787l-233.934,0c0.632,1.51 1.689,2.848 3.104,3.824l100.23,69.108c0.112,0.078 0.226,0.153 0.342,0.225c8.766,5.456 17.091,8.672 25.669,8.672c9.663,0 20.569,-4.583 28.829,-11.956l20.2,-18.334l-0,143.461l121.899,-0l-0,-141.359l17.884,16.232c8.26,7.373 19.166,11.956 28.829,11.956c8.578,0 16.904,-3.216 25.669,-8.672c0.116,-0.072 0.23,-0.147 0.342,-0.225l100.23,-69.108c1.416,-0.976 2.472,-2.314 3.104,-3.824Z" style="fill:#989898;fill-opacity:0.25;fill-rule:nonzero;"/><rect x="577.596" y="1243.29" width="94.8" height="194.213" style="fill:#dfdfdf;"/><path d="M608.97,1242.5l-69.792,63.345c-6.611,5.901 -15.27,9.734 -23.003,9.734c-7.058,0 -13.833,-2.861 -21.044,-7.351l-95.329,-65.728l209.168,0Z" style="fill:#f8f8f8;fill-rule:nonzero;"/><path d="M850.189,1242.5l-209.168,0l69.792,63.345c6.611,5.901 15.27,9.734 23.003,9.734c7.058,0 13.833,-2.861 21.045,-7.351l95.328,-65.728Z" style="fill:#f8f8f8;fill-rule:nonzero;"/></g></g><path d="M835.026,1243.25l263.391,0c83.156,0 151.583,-68.427 151.583,-151.583l-0,194.25c-0,83.156 -68.427,151.583 -151.583,151.583l-946.834,0c-83.156,0 -151.583,-68.427 -151.583,-151.583l-0,-194.207c-0,83.132 68.408,151.54 151.542,151.54l269.683,0l203.775,143.448l210.026,-143.448Z" style="fill:#111;"/><path d="M447.495,1323.65c3.725,3.783 7.98,6.802 12.808,8.494c3.596,1.26 8.272,1.733 12.628,1.09c1.504,3.492 3.322,6.867 5.469,9.981c4.262,6.181 9.814,11.339 16.74,14.474c4.045,1.831 8.901,2.878 13.57,2.808c1.446,3.294 3.269,6.431 5.456,9.252c4.275,5.514 9.925,9.83 16.836,11.884c4.111,1.222 9.103,1.5 13.988,0.787c1.082,-0.158 2.159,-0.365 3.219,-0.619c1.773,4.894 4.62,9.607 8.196,13.678c4.305,4.902 9.653,8.873 15.376,11.161c1.687,0.675 3.474,1.259 5.297,1.651c1.929,0.415 3.898,0.619 5.838,0.514c0.23,-0.012 0.46,-0.029 0.689,-0.049c1.207,2.865 2.876,5.556 4.882,8.018c5.321,6.53 13.02,11.391 20.421,13.509c-0.093,0.344 -0.182,0.689 -0.269,1.037c-0.499,2.014 -0.892,4.09 -1.148,6.175l4.748,0c0.309,-1.648 0.711,-3.281 1.186,-4.867c0.137,-0.459 0.28,-0.913 0.43,-1.363c3.479,0.352 8.573,0.257 12.595,-1.101c4.248,-1.434 7.32,-4.204 7.631,-8.537c0.348,-4.866 -2.432,-7.957 -6.263,-9.05c-4.328,-1.236 -10.244,0.337 -13.622,5.361c-1.216,1.88 -2.368,4.132 -3.373,6.622c-6.344,-1.8 -12.959,-6.04 -17.492,-11.7c-1.404,-1.752 -2.605,-3.647 -3.522,-5.654c1.085,-0.457 2.137,-1.004 3.145,-1.637c3.092,-1.938 6.123,-5.402 7.488,-9.221c1.036,-2.896 1.152,-5.974 -0.079,-8.831c-1.814,-4.209 -5.887,-5.807 -9.832,-4.901c-3.086,0.709 -6.129,3.025 -7.521,6.947c-1.535,4.339 -1.87,8.574 -1.275,12.585c-1.078,-0.02 -2.162,-0.173 -3.229,-0.409c-1.449,-0.32 -2.867,-0.799 -4.208,-1.344c-4.761,-1.935 -9.179,-5.303 -12.747,-9.411c-2.974,-3.426 -5.357,-7.375 -6.819,-11.479c1.226,-0.593 2.386,-1.263 3.458,-2.009c2.688,-1.87 5.48,-6.41 5.88,-10.97c0.281,-3.209 -0.54,-6.365 -2.888,-8.755c-2.88,-2.931 -6.259,-3.492 -9.243,-2.513c-2.608,0.855 -5.019,3.018 -6.371,6.248c-1.148,2.743 -1.346,5.387 -1.04,7.888c0.241,1.971 0.836,3.835 1.439,5.551c-0.663,0.142 -1.334,0.26 -2.006,0.356c-3.804,0.545 -7.692,0.366 -10.89,-0.594c-5.416,-1.627 -9.802,-5.076 -13.142,-9.411c-1.438,-1.866 -2.683,-3.896 -3.732,-6.025c0.625,-0.215 1.233,-0.46 1.821,-0.735c4.949,-2.317 8.666,-6.631 9.364,-13.686c0.454,-4.586 -2.12,-9.739 -6.028,-12.241c-2.929,-1.874 -6.509,-2.406 -10.147,-0.572c-3.38,1.703 -5.176,4.428 -5.965,7.606c-0.924,3.726 -0.277,8.195 0.519,11.8c0.113,0.515 0.236,1.03 0.367,1.544c-2.765,-0.264 -5.521,-1.02 -7.9,-2.102c-5.667,-2.578 -10.16,-6.86 -13.641,-11.928c-1.749,-2.546 -3.243,-5.292 -4.498,-8.135c3.99,-2.367 6.707,-6.246 6.578,-12.076c-0.055,-2.458 -0.778,-5.049 -2.046,-7.325c-1.311,-2.355 -3.196,-4.362 -5.434,-5.623c-1.402,-0.791 -3.705,-1.404 -5.706,-1.182c-2.037,0.227 -3.771,1.201 -4.812,2.929c-0.997,1.655 -1.41,3.748 -1.302,6.034c0.163,3.453 1.579,7.468 2.23,9.941c0.209,0.796 0.434,1.593 0.673,2.388c-2.624,0.17 -5.307,-0.209 -7.44,-0.959c-4.418,-1.555 -8.16,-4.612 -11.405,-8.298c-1.4,-1.59 -2.707,-3.297 -3.93,-5.068l0,12.067Zm140.483,77.1c-0.33,-2.89 -0.026,-5.917 1.099,-9.011c0.556,-1.536 1.676,-2.52 2.889,-2.791c0.951,-0.213 1.957,0.122 2.389,1.138c0.716,1.688 0.255,3.518 -0.59,5.154c-1.013,1.961 -2.652,3.675 -4.315,4.704c-0.478,0.296 -0.969,0.565 -1.472,0.806Zm-35.525,-28.12c-0.435,-1.278 -0.824,-2.638 -0.99,-4.064c-0.16,-1.374 -0.066,-2.829 0.573,-4.331c0.473,-1.112 1.181,-1.978 2.082,-2.268c0.666,-0.214 1.356,0.103 1.994,0.759c1.1,1.132 1.03,2.766 0.677,4.26c-0.46,1.95 -1.511,3.824 -2.677,4.63c-0.526,0.364 -1.081,0.702 -1.659,1.014Zm-75.077,-49.281c-0.17,-0.581 -0.33,-1.162 -0.482,-1.743c-0.42,-1.606 -1.237,-3.935 -1.7,-6.272c-0.218,-1.101 -0.484,-2.209 -0.326,-3.115c0.229,0.042 0.471,0.1 0.597,0.172c1.061,0.6 1.911,1.595 2.532,2.713c0.658,1.185 1.058,2.526 1.084,3.805c0.041,1.937 -0.629,3.383 -1.705,4.44Zm138.866,102.103c0.81,-1.621 1.684,-3.092 2.59,-4.356c1.546,-2.238 3.973,-3.271 6.113,-3.192c1.851,0.067 3.498,1.146 3.327,3.282c-0.2,2.5 -2.821,3.309 -5.465,3.842c-2.189,0.441 -4.556,0.525 -6.565,0.424Zm-102.704,-73.134c-0.229,-0.813 -0.432,-1.63 -0.61,-2.447c-0.484,-2.218 -0.992,-4.868 -0.74,-7.283c0.168,-1.616 0.701,-3.143 2.332,-3.961c1.354,-0.679 2.651,-0.112 3.602,0.81c1.24,1.202 2.056,3.011 1.888,4.677c-0.457,4.53 -3.08,7.074 -6.472,8.204Z" style="fill:#aeaeae;"/><path d="M835.026,1243.25l263.391,0c83.156,0 151.583,-68.427 151.583,-151.583l-0,194.25c-0,83.156 -68.427,151.583 -151.583,151.583l-502.012,0l-0,-30.724l238.621,-163.526Z"/><path d="M802.661,1323.65c-3.725,3.783 -7.98,6.802 -12.808,8.494c-3.595,1.26 -8.271,1.733 -12.628,1.09c-1.504,3.492 -3.322,6.867 -5.469,9.981c-4.262,6.181 -9.814,11.339 -16.74,14.474c-4.045,1.831 -8.901,2.878 -13.57,2.808c-1.446,3.294 -3.269,6.431 -5.456,9.252c-4.275,5.514 -9.925,9.83 -16.836,11.884c-4.111,1.222 -9.103,1.5 -13.988,0.787c-1.082,-0.158 -2.159,-0.365 -3.219,-0.619c-1.772,4.894 -4.62,9.607 -8.196,13.678c-4.305,4.902 -9.652,8.873 -15.375,11.161c-1.688,0.675 -3.475,1.259 -5.297,1.651c-1.93,0.415 -3.898,0.619 -5.839,0.514c-0.23,-0.012 -0.46,-0.029 -0.689,-0.049c-1.207,2.865 -2.876,5.556 -4.881,8.018c-5.322,6.53 -13.021,11.391 -20.422,13.509c0.093,0.344 0.183,0.689 0.269,1.037c0.499,2.014 0.892,4.09 1.148,6.175l-4.748,0c-0.309,-1.648 -0.711,-3.281 -1.185,-4.867c-0.137,-0.459 -0.281,-0.913 -0.43,-1.363c-3.48,0.352 -8.574,0.257 -12.596,-1.101c-4.247,-1.434 -7.32,-4.204 -7.631,-8.537c-0.348,-4.866 2.433,-7.957 6.263,-9.05c4.328,-1.236 10.244,0.337 13.622,5.361c1.216,1.88 2.369,4.132 3.373,6.622c6.345,-1.8 12.959,-6.04 17.493,-11.7c1.403,-1.752 2.604,-3.647 3.521,-5.654c-1.085,-0.457 -2.136,-1.004 -3.145,-1.637c-3.092,-1.938 -6.123,-5.402 -7.488,-9.221c-1.036,-2.896 -1.152,-5.974 0.08,-8.831c1.814,-4.209 5.886,-5.807 9.831,-4.901c3.086,0.709 6.129,3.025 7.522,6.947c1.535,4.339 1.869,8.574 1.274,12.585c1.079,-0.02 2.162,-0.173 3.229,-0.409c1.449,-0.32 2.867,-0.799 4.208,-1.344c4.761,-1.935 9.18,-5.303 12.747,-9.411c2.975,-3.426 5.357,-7.375 6.82,-11.479c-1.226,-0.593 -2.387,-1.263 -3.459,-2.009c-2.688,-1.87 -5.48,-6.41 -5.88,-10.97c-0.281,-3.209 0.54,-6.365 2.888,-8.755c2.88,-2.931 6.259,-3.492 9.243,-2.513c2.608,0.855 5.019,3.018 6.371,6.248c1.148,2.743 1.346,5.387 1.04,7.888c-0.241,1.971 -0.836,3.835 -1.439,5.551c0.664,0.142 1.334,0.26 2.006,0.356c3.804,0.545 7.692,0.366 10.89,-0.594c5.416,-1.627 9.802,-5.076 13.142,-9.411c1.438,-1.866 2.683,-3.896 3.733,-6.025c-0.625,-0.215 -1.234,-0.46 -1.822,-0.735c-4.949,-2.317 -8.666,-6.631 -9.364,-13.686c-0.454,-4.586 2.12,-9.739 6.029,-12.241c2.928,-1.874 6.509,-2.406 10.147,-0.572c3.379,1.703 5.176,4.428 5.964,7.606c0.925,3.726 0.277,8.195 -0.518,11.8c-0.114,0.515 -0.237,1.03 -0.368,1.544c2.765,-0.264 5.522,-1.02 7.9,-2.102c5.667,-2.578 10.16,-6.86 13.641,-11.928c1.749,-2.546 3.243,-5.292 4.498,-8.135c-3.99,-2.367 -6.707,-6.246 -6.578,-12.076c0.055,-2.458 0.778,-5.049 2.046,-7.325c1.311,-2.355 3.197,-4.362 5.434,-5.623c1.403,-0.791 3.706,-1.404 5.706,-1.182c2.038,0.227 3.772,1.201 4.812,2.929c0.997,1.655 1.41,3.748 1.302,6.034c-0.163,3.453 -1.579,7.468 -2.229,9.941c-0.21,0.796 -0.434,1.593 -0.673,2.388c2.623,0.17 5.307,-0.209 7.439,-0.959c4.418,-1.555 8.16,-4.612 11.406,-8.298c1.4,-1.59 2.707,-3.297 3.929,-5.068l0,12.067Zm-140.482,77.1c0.329,-2.89 0.025,-5.917 -1.099,-9.011c-0.556,-1.536 -1.677,-2.52 -2.89,-2.791c-0.951,-0.213 -1.957,0.122 -2.388,1.138c-0.717,1.688 -0.256,3.518 0.589,5.154c1.013,1.961 2.652,3.675 4.315,4.704c0.478,0.296 0.969,0.565 1.473,0.806Zm35.524,-28.12c0.435,-1.278 0.824,-2.638 0.99,-4.064c0.16,-1.374 0.066,-2.829 -0.573,-4.331c-0.473,-1.112 -1.181,-1.978 -2.082,-2.268c-0.666,-0.214 -1.356,0.103 -1.993,0.759c-1.101,1.132 -1.031,2.766 -0.678,4.26c0.46,1.95 1.511,3.824 2.677,4.63c0.527,0.364 1.081,0.702 1.659,1.014Zm75.078,-49.281c0.169,-0.581 0.33,-1.162 0.481,-1.743c0.421,-1.606 1.238,-3.935 1.7,-6.272c0.218,-1.101 0.485,-2.209 0.327,-3.115c-0.23,0.042 -0.472,0.1 -0.598,0.172c-1.061,0.6 -1.911,1.595 -2.532,2.713c-0.658,1.185 -1.057,2.526 -1.084,3.805c-0.04,1.937 0.629,3.383 1.706,4.44Zm-138.867,102.103c-0.809,-1.621 -1.684,-3.092 -2.589,-4.356c-1.547,-2.238 -3.974,-3.271 -6.114,-3.192c-1.851,0.067 -3.498,1.146 -3.327,3.282c0.2,2.5 2.821,3.309 5.465,3.842c2.189,0.441 4.556,0.525 6.565,0.424Zm102.704,-73.134c0.229,-0.813 0.433,-1.63 0.611,-2.447c0.483,-2.218 0.991,-4.868 0.74,-7.283c-0.168,-1.616 -0.702,-3.143 -2.333,-3.961c-1.354,-0.679 -2.651,-0.112 -3.602,0.81c-1.24,1.202 -2.056,3.011 -1.888,4.677c0.457,4.53 3.081,7.074 6.472,8.204Z" style="fill:#aeaeae;"/><g><path d="M445.306,1243.29l-102.584,-0c-83.156,-0 -342.722,-68.428 -342.722,-151.584c-0,-0.014 -0,-0.027 0,-0.041l0,194.208c-0,0.014 -0,0.028 -0,0.042c-0,83.156 68.427,151.583 151.583,151.583l305.334,0l-11.611,-194.208Z" style="fill-rule:nonzero;"/><g><path d="M98.869,1301l189.289,0l-0,58.25c-0,11.221 -9.11,20.331 -20.331,20.331l-148.627,-0c-11.221,-0 -20.331,-9.11 -20.331,-20.331l-0,-58.25Z" style="fill:#0c0c0c;"/><path d="M110.468,1314.31c0,-0 -2.389,-3.62 0.019,-3.62l1.84,-0c0.999,-0 1.81,0.811 1.81,1.81c0,0.999 -0.811,1.81 -1.81,1.81l-0.049,-0l0,0.544c0,0.999 -0.811,1.81 -1.81,1.81c-0.999,0 -1.81,-0.811 -1.81,-1.81l0,-2.329l1.81,1.785Zm167.876,-0.942c0.534,-0.885 1.278,-1.924 1.278,-0.843l-0,2.329c-0,0.999 -0.811,1.81 -1.81,1.81c-0.999,0 -1.81,-0.811 -1.81,-1.81l-0,-0.544l-0.049,-0c-0.999,-0 -1.81,-0.811 -1.81,-1.81c-0,-0.999 0.811,-1.81 1.81,-1.81l1.84,-0c1.604,-0 1.08,1.605 0.551,2.678Zm-0.532,43.327l-1.81,-1.836l-0,-2.329c-0,-0.999 0.811,-1.81 1.81,-1.81c0.999,0 1.81,0.811 1.81,1.81l-0,2.329c-0,0.009 -0,0.017 -0,0.026c-0,0.833 -0.073,1.652 -0.214,2.453c-0.174,0.984 -1.113,1.642 -2.097,1.468c-0.984,-0.173 -1.642,-1.113 -1.468,-2.096c0.105,-0.596 0.159,-1.205 0.159,-1.825l1.81,1.81Zm-17.974,11.174c0.667,-0 1.324,-0.033 1.97,-0.096c0.994,-0.098 1.88,0.63 1.978,1.624c0.097,0.995 -0.631,1.881 -1.625,1.978c-0.762,0.075 -1.537,0.114 -2.323,0.114l-1.825,-0c-0.999,-0 -1.81,-0.811 -1.81,-1.81c0,-0.999 0.811,-1.81 1.81,-1.81l1.806,-0c0.006,-0 0.013,-0 0.019,-0Zm-147.56,-12.984c-0,0.62 0.054,1.229 0.159,1.825c0.174,0.983 -0.484,1.923 -1.468,2.096c-0.984,0.174 -1.923,-0.484 -2.097,-1.468c-0.141,-0.801 -0.214,-1.62 -0.214,-2.453l1.81,1.81l-1.81,-1.836l0,-2.329c0,-0.999 0.811,-1.81 1.81,-1.81c0.999,0 1.81,0.811 1.81,1.81l0,2.329c0,0.009 0,0.017 -0,0.026Zm7.487,-40.575c-0.999,-0 -1.81,-0.811 -1.81,-1.81c-0,-0.999 0.811,-1.81 1.81,-1.81l3.719,-0c0.999,-0 1.81,0.811 1.81,1.81c-0,0.999 -0.811,1.81 -1.81,1.81l-3.719,-0Zm11.156,-0c-0.999,-0 -1.81,-0.811 -1.81,-1.81c0,-0.999 0.811,-1.81 1.81,-1.81l3.719,-0c0.999,-0 1.81,0.811 1.81,1.81c-0,0.999 -0.811,1.81 -1.81,1.81l-3.719,-0Zm11.157,-0c-0.999,-0 -1.81,-0.811 -1.81,-1.81c-0,-0.999 0.811,-1.81 1.81,-1.81l3.718,-0c0.999,-0 1.81,0.811 1.81,1.81c0,0.999 -0.811,1.81 -1.81,1.81l-3.718,-0Zm11.156,-0c-0.999,-0 -1.81,-0.811 -1.81,-1.81c-0,-0.999 0.811,-1.81 1.81,-1.81l3.719,-0c0.999,-0 1.81,0.811 1.81,1.81c-0,0.999 -0.811,1.81 -1.81,1.81l-3.719,-0Zm11.156,-0c-0.999,-0 -1.81,-0.811 -1.81,-1.81c-0,-0.999 0.811,-1.81 1.81,-1.81l3.719,-0c0.999,-0 1.81,0.811 1.81,1.81c-0,0.999 -0.811,1.81 -1.81,1.81l-3.719,-0Zm11.156,-0c-0.999,-0 -1.81,-0.811 -1.81,-1.81c0,-0.999 0.811,-1.81 1.81,-1.81l3.719,-0c0.999,-0 1.81,0.811 1.81,1.81c-0,0.999 -0.811,1.81 -1.81,1.81l-3.719,-0Zm11.157,-0c-0.999,-0 -1.81,-0.811 -1.81,-1.81c-0,-0.999 0.811,-1.81 1.81,-1.81l3.718,-0c0.999,-0 1.81,0.811 1.81,1.81c0,0.999 -0.811,1.81 -1.81,1.81l-3.718,-0Zm11.156,-0c-0.999,-0 -1.81,-0.811 -1.81,-1.81c-0,-0.999 0.811,-1.81 1.81,-1.81l3.718,-0c0.999,-0 1.81,0.811 1.81,1.81c0,0.999 -0.811,1.81 -1.81,1.81l-3.718,-0Zm11.156,-0c-0.999,-0 -1.81,-0.811 -1.81,-1.81c0,-0.999 0.811,-1.81 1.81,-1.81l3.719,-0c0.999,-0 1.81,0.811 1.81,1.81c-0,0.999 -0.811,1.81 -1.81,1.81l-3.719,-0Zm11.156,-0c-0.999,-0 -1.81,-0.811 -1.81,-1.81c0,-0.999 0.811,-1.81 1.81,-1.81l3.719,-0c0.999,-0 1.81,0.811 1.81,1.81c-0,0.999 -0.811,1.81 -1.81,1.81l-3.719,-0Zm11.156,-0c-0.999,-0 -1.81,-0.811 -1.81,-1.81c0,-0.999 0.811,-1.81 1.81,-1.81l3.719,-0c0.999,-0 1.81,0.811 1.81,1.81c0,0.999 -0.811,1.81 -1.81,1.81l-3.719,-0Zm11.157,-0c-0.999,-0 -1.81,-0.811 -1.81,-1.81c-0,-0.999 0.811,-1.81 1.81,-1.81l3.719,-0c0.998,-0 1.81,0.811 1.81,1.81c-0,0.999 -0.812,1.81 -1.81,1.81l-3.719,-0Zm11.156,-0c-0.999,-0 -1.81,-0.811 -1.81,-1.81c0,-0.999 0.811,-1.81 1.81,-1.81l3.719,-0c0.999,-0 1.81,0.811 1.81,1.81c-0,0.999 -0.811,1.81 -1.81,1.81l-3.719,-0Zm11.156,-0c-0.999,-0 -1.81,-0.811 -1.81,-1.81c0,-0.999 0.811,-1.81 1.81,-1.81l3.719,-0c0.999,-0 1.81,0.811 1.81,1.81c-0,0.999 -0.811,1.81 -1.81,1.81l-3.719,-0Zm11.206,9.963c-0,-0.999 0.811,-1.81 1.81,-1.81c0.999,0 1.81,0.811 1.81,1.81l-0,4.71c-0,0.999 -0.811,1.81 -1.81,1.81c-0.999,-0 -1.81,-0.811 -1.81,-1.81l-0,-4.71Zm-0,14.129c-0,-0.999 0.811,-1.81 1.81,-1.81c0.999,-0 1.81,0.811 1.81,1.81l-0,4.709c-0,0.999 -0.811,1.81 -1.81,1.81c-0.999,0 -1.81,-0.811 -1.81,-1.81l-0,-4.709Zm-3.707,24.739c0.717,-0.696 1.864,-0.679 2.56,0.037c0.696,0.717 0.679,1.864 -0.037,2.56c-1.108,1.076 -2.381,2.034 -3.788,2.844c-0.866,0.499 -1.973,0.201 -2.472,-0.665c-0.499,-0.865 -0.201,-1.973 0.665,-2.472c1.141,-0.657 2.174,-1.431 3.072,-2.304Zm-21.582,4.728c0.999,-0 1.81,0.811 1.81,1.81c0,0.999 -0.811,1.81 -1.81,1.81l-3.649,-0c-0.999,-0 -1.81,-0.811 -1.81,-1.81c-0,-0.999 0.811,-1.81 1.81,-1.81l3.649,-0Zm-10.949,-0c0.999,-0 1.81,0.811 1.81,1.81c-0,0.999 -0.811,1.81 -1.81,1.81l-3.65,-0c-0.999,-0 -1.81,-0.811 -1.81,-1.81c-0,-0.999 0.811,-1.81 1.81,-1.81l3.65,-0Zm-10.95,-0c0.999,-0 1.81,0.811 1.81,1.81c-0,0.999 -0.811,1.81 -1.81,1.81l-3.65,-0c-0.999,-0 -1.81,-0.811 -1.81,-1.81c0,-0.999 0.811,-1.81 1.81,-1.81l3.65,-0Zm-10.95,-0c0.999,-0 1.81,0.811 1.81,1.81c0,0.999 -0.811,1.81 -1.81,1.81l-3.65,-0c-0.998,-0 -1.81,-0.811 -1.81,-1.81c0,-0.999 0.812,-1.81 1.81,-1.81l3.65,-0Zm-10.949,-0c0.999,-0 1.81,0.811 1.81,1.81c-0,0.999 -0.811,1.81 -1.81,1.81l-3.65,-0c-0.999,-0 -1.81,-0.811 -1.81,-1.81c-0,-0.999 0.811,-1.81 1.81,-1.81l3.65,-0Zm-10.95,-0c0.999,-0 1.81,0.811 1.81,1.81c0,0.999 -0.811,1.81 -1.81,1.81l-3.65,-0c-0.999,-0 -1.81,-0.811 -1.81,-1.81c0,-0.999 0.811,-1.81 1.81,-1.81l3.65,-0Zm-10.95,-0c0.999,-0 1.81,0.811 1.81,1.81c0,0.999 -0.811,1.81 -1.81,1.81l-3.65,-0c-0.999,-0 -1.81,-0.811 -1.81,-1.81c0,-0.999 0.811,-1.81 1.81,-1.81l3.65,-0Zm-10.949,-0c0.999,-0 1.81,0.811 1.81,1.81c-0,0.999 -0.811,1.81 -1.81,1.81l-3.65,-0c-0.999,-0 -1.81,-0.811 -1.81,-1.81c-0,-0.999 0.811,-1.81 1.81,-1.81l3.65,-0Zm-10.95,-0c0.999,-0 1.81,0.811 1.81,1.81c-0,0.999 -0.811,1.81 -1.81,1.81l-3.65,-0c-0.999,-0 -1.81,-0.811 -1.81,-1.81c0,-0.999 0.811,-1.81 1.81,-1.81l3.65,-0Zm-10.95,-0c0.999,-0 1.81,0.811 1.81,1.81c0,0.999 -0.811,1.81 -1.81,1.81l-3.65,-0c-0.999,-0 -1.81,-0.811 -1.81,-1.81c0,-0.999 0.811,-1.81 1.81,-1.81l3.65,-0Zm-10.949,-0c0.999,-0 1.81,0.811 1.81,1.81c-0,0.999 -0.811,1.81 -1.81,1.81l-3.65,-0c-0.999,-0 -1.81,-0.811 -1.81,-1.81c-0,-0.999 0.811,-1.81 1.81,-1.81l3.65,-0Zm-10.95,-0c0.999,-0 1.81,0.811 1.81,1.81c-0,0.999 -0.811,1.81 -1.81,1.81l-1.825,-0c-0.786,-0 -1.561,-0.039 -2.323,-0.114c-0.994,-0.097 -1.722,-0.983 -1.625,-1.978c0.098,-0.994 0.984,-1.722 1.978,-1.624c0.638,0.062 1.287,0.095 1.953,0.096c0.012,-0 0.024,-0 0.036,-0l1.806,-0Zm-11.21,-2.424c0.866,0.499 1.164,1.607 0.665,2.472c-0.499,0.866 -1.606,1.164 -2.472,0.665c-1.407,-0.81 -2.68,-1.768 -3.788,-2.844c-0.716,-0.696 -0.733,-1.843 -0.037,-2.56c0.696,-0.716 1.843,-0.733 2.56,-0.037c0.898,0.873 1.931,1.647 3.072,2.304Zm-6.779,-22.334c0,0.999 -0.811,1.81 -1.81,1.81c-0.999,0 -1.81,-0.811 -1.81,-1.81l0,-4.709c0,-0.999 0.811,-1.81 1.81,-1.81c0.999,-0 1.81,0.811 1.81,1.81l0,4.709Zm0,-14.128c0,0.999 -0.811,1.81 -1.81,1.81c-0.999,-0 -1.81,-0.811 -1.81,-1.81l0,-4.71c0,-0.999 0.811,-1.81 1.81,-1.81c0.999,0 1.81,0.811 1.81,1.81l0,4.71Z" style="fill:#aeaeae;"/><path d="M294.739,1293.19c-0,-3.818 -3.101,-6.919 -6.919,-6.919l-186.574,0c-3.819,0 -6.919,3.101 -6.919,6.919l-0,27.852c-0,3.819 3.1,6.919 6.919,6.919l186.574,-0c3.818,-0 6.919,-3.1 6.919,-6.919l-0,-27.852Z" style="fill:#171717;"/><path d="M294.739,1296.17l-200.412,0l-0,-2.988c-0,-3.818 3.1,-6.919 6.919,-6.919l186.574,0c3.818,0 6.919,3.101 6.919,6.919l-0,2.988Z" style="fill:#aeaeae;"/><path d="M119.432,1312.34c-0.476,-0.906 -0.127,-1.206 0.057,-1.328c0.196,-0.128 0.708,-0.12 1.17,0.577c1.274,1.927 3.422,2.992 5.635,3.576c2.364,0.622 4.953,0.568 7.163,-0.522c1.069,-0.526 2.063,-1.168 3.024,-1.861c2.396,-1.728 4.769,-3.993 7.19,-5.669c1.703,-1.177 6.704,-3.728 11.443,-4.344c5.997,-0.779 10.784,1.443 12.622,3.927c2.267,3.063 2.257,6.27 0.852,9.057c-1.937,3.842 -6.641,6.727 -11.061,6.642c-1.021,-0.027 -3.789,-0.179 -5.63,-2.187c-1.516,-1.653 -1.403,-3.357 -0.575,-4.723c0.611,-1.007 1.845,-2.723 2.944,-2.255c2.453,1.045 0.041,2.758 0.132,4.195c0.075,1.205 1.767,1.919 3.277,1.851c2.586,-0.115 5.262,-1.84 6.925,-3.844c1.561,-1.879 1.534,-5.734 -0.404,-7.644c-2.804,-2.763 -7.111,-1.977 -8.577,-1.833c-3.839,0.379 -8.657,2.531 -10.181,3.547c-2.434,1.62 -4.892,3.953 -7.307,5.619c-1.105,0.763 -2.253,1.457 -3.479,2.025c-2.844,1.313 -6.194,1.516 -9.118,0.465c-2.603,-0.935 -4.804,-2.799 -6.102,-5.271Z" style="fill:#aeaeae;"/><path d="M267.595,1312.34c0.476,-0.906 0.127,-1.206 -0.058,-1.328c-0.195,-0.128 -0.708,-0.12 -1.169,0.577c-1.275,1.927 -3.422,2.992 -5.636,3.576c-2.363,0.622 -4.952,0.568 -7.162,-0.522c-1.069,-0.526 -2.063,-1.168 -3.024,-1.861c-2.396,-1.728 -4.77,-3.993 -7.191,-5.669c-1.703,-1.177 -6.703,-3.728 -11.443,-4.344c-5.996,-0.779 -10.783,1.443 -12.622,3.927c-2.266,3.063 -2.256,6.27 -0.851,9.057c1.937,3.842 6.641,6.727 11.06,6.642c1.021,-0.027 3.79,-0.179 5.631,-2.187c1.516,-1.653 1.403,-3.357 0.575,-4.723c-0.611,-1.007 -1.845,-2.723 -2.944,-2.255c-2.453,1.045 -0.041,2.758 -0.132,4.195c-0.076,1.205 -1.768,1.919 -3.278,1.851c-2.585,-0.115 -5.261,-1.84 -6.924,-3.844c-1.561,-1.879 -1.535,-5.734 0.403,-7.644c2.804,-2.763 7.112,-1.977 8.578,-1.833c3.839,0.379 8.656,2.531 10.18,3.547c2.435,1.62 4.892,3.953 7.308,5.619c1.105,0.763 2.253,1.457 3.479,2.025c2.844,1.313 6.193,1.516 9.118,0.465c2.603,-0.935 4.804,-2.799 6.102,-5.271Z" style="fill:#aeaeae;"/><path d="M194.57,1322.63c-1.961,0.965 -5.012,1.585 -8.435,1.585c-5.911,0 -10.71,-1.849 -10.71,-4.126c0,-1.562 2.259,-2.922 5.586,-3.623c-2.477,-2.246 -3.717,-4.519 -2.944,-5.857c0.78,-1.351 3.411,-1.402 6.637,-0.349c-1.053,-3.226 -1.003,-5.857 0.348,-6.637c1.339,-0.772 3.611,0.468 5.858,2.945c0.7,-3.327 2.06,-5.585 3.623,-5.585c0.025,-0.001 0.049,-0.001 0.074,-0c1.562,-0 2.923,2.258 3.623,5.585c2.246,-2.477 4.519,-3.717 5.857,-2.945c1.352,0.78 1.402,3.411 0.349,6.637c3.226,-1.053 5.857,-1.002 6.637,0.349c0.773,1.338 -0.467,3.611 -2.944,5.857c3.327,0.701 5.586,2.061 5.586,3.623c-0,2.277 -4.799,4.126 -10.71,4.126c-3.423,0 -6.474,-0.62 -8.435,-1.585Z" style="fill:#aeaeae;"/><path d="M107.502,1307.11c2.419,0 4.382,1.964 4.382,4.382c0,2.419 -1.963,4.382 -4.382,4.382c-2.418,0 -4.382,-1.963 -4.382,-4.382c0,-2.418 1.964,-4.382 4.382,-4.382Zm173.276,0c2.418,0 4.382,1.964 4.382,4.382c-0,2.419 -1.964,4.382 -4.382,4.382c-2.419,0 -4.382,-1.963 -4.382,-4.382c-0,-2.418 1.963,-4.382 4.382,-4.382Z" style="fill:#aeaeae;"/></g><g><path d="M448.618,1437.5l-105.333,0c-0,0 -16.508,-123.827 -25.961,-132.875l14.346,-61.673c3.959,0.225 7.653,0.34 11.052,0.34l94.16,-0l11.736,194.208Z" style="fill:#aeaeae;fill-rule:nonzero;"/><path d="M449.681,1243.29l-105.292,-0l-14.266,61.333c9.453,9.048 25.96,132.875 25.96,132.875l105.334,0l-11.736,-194.208Z" style="fill:#2f2c38;fill-rule:nonzero;"/><path d="M441.444,1373.87c-7.986,-2.422 -14.89,-6.025 -20.336,-11.25c-7.106,-6.818 -12.447,-16.556 -8.567,-25.39c4.894,-11.143 21.91,-14.87 27.322,-1.531c4.379,10.795 -4.3,27.542 1.581,38.171Zm-67.728,60.016c-13.819,-3.328 -13.049,-17.164 -2.801,-28.295c11.645,-12.647 32.575,-6.639 32.575,-6.639c0,-0 -7.858,10.209 -11.068,16.258c-3.549,6.686 -8.035,21.247 -18.706,18.676Zm20.026,3.615c0.086,-0.865 5.974,-15.159 11.457,-18.311c5.561,-3.198 26.541,5.944 27.471,10.303c0.567,2.659 0.718,5.617 -0.638,8.008l-5.981,0c0.151,-0.65 1.229,-5.129 0.856,-6.717c-0.634,-2.702 -14.553,-8.126 -18.158,-5.786c-3.628,2.355 -6.895,12.086 -6.921,12.503l-8.086,0Zm48.942,0c0.844,-4.5 0.568,-9.418 -0.513,-14.157c-3.177,-13.937 -20.399,-27.099 -32.27,-31.527c-13.348,-4.979 -23.644,-4.277 -33.223,-9.996c-8.421,-5.028 -18.502,-16.119 -21.047,-22.106c-3.828,-9.005 -4.349,-21.108 1.032,-29.487c4.688,-7.301 10.256,-10.474 18.29,-10.533c-9.317,-4.789 -17.376,-18.39 -14.161,-30.518c2.983,-11.255 10.545,-21.458 23.427,-20.757c3.36,0.042 6.903,1.295 9.826,3.382c2.988,2.132 5.332,5.099 6.2,8.52c0.512,1.997 0.712,6.566 -0.571,9.504c-0.595,1.363 -1.349,2.766 -2.614,3.083c-1.265,0.316 -4.953,-0.046 -2.652,-5.067c0.339,-0.739 1.855,-13.899 -10.141,-13.556c-8.864,0.254 -13.386,8.282 -14.095,16.254c-0.646,7.258 2.141,15.143 9.357,17.753c7.873,3.222 47.677,-8.825 47.677,-43.301c0,-9.799 -4.348,-17.248 -6.475,-21.699l7.043,-0c1.128,2.555 6.481,12.514 6.515,23.84c0.058,19.696 -4.987,32.777 -13.459,41.249c-8.471,8.472 -26.171,13.203 -30.856,13.633c3.339,1.305 7.711,5.785 9.948,10.658c3.969,8.644 -0.058,18.219 -6.284,25.101c-2.475,2.736 -5.312,0.552 -3.208,-2.45c4.046,-5.774 5.144,-13.35 2.346,-20.067c-0.374,-0.898 -6.944,-10.307 -17.366,-7.441c-4.935,1.357 -16.136,10.001 -11.76,25.976c2.723,9.938 10.715,18.188 18.782,22.189c8.303,4.117 18.368,3.378 31.082,8.346c13.015,5.085 35.037,21.444 38.505,36.781c1.235,5.463 1.567,11.104 0.837,16.393l-10.172,0Zm-68.007,-194.208l27.654,-0c2.942,8.143 0.441,15.687 -9.282,18.03c-10.339,2.49 -14.872,-11.1 -18.372,-18.03Z" style="fill:#aeaeae;"/></g></g><g><path d="M804.694,1243.29l102.584,-0c83.156,-0 342.722,-68.428 342.722,-151.584c0,-0.014 -0,-0.027 -0,-0.041l-0,194.208c-0,0.014 0,0.028 0,0.042c0,83.156 -68.427,151.583 -151.583,151.583l-305.334,0l11.611,-194.208Z" style="fill-rule:nonzero;"/><g><path d="M1083.68,1315.02c8.984,-8.985 8.984,-23.573 -0,-32.557l-33.717,-33.716c-8.984,-8.985 -23.572,-8.985 -32.556,-0l-33.717,33.716c-8.984,8.984 -8.984,23.572 0,32.557l33.717,33.716c8.984,8.984 23.572,8.984 32.556,0l33.717,-33.716Z" style="fill:#d23736;"/><path d="M1053.64,1252.43l30.037,30.036c8.984,8.984 8.984,23.572 -0,32.557l-33.717,33.716c-0.153,0.154 -0.309,0.305 -0.465,0.453l-30.037,-30.036c-8.984,-8.985 -8.984,-23.573 0,-32.557l33.717,-33.716c0.153,-0.154 0.308,-0.305 0.465,-0.453Z" style="fill:#c52726;"/><path d="M1129.03,1328.74c8.984,-8.984 8.984,-23.572 0,-32.556l-33.716,-33.717c-8.984,-8.984 -23.573,-8.984 -32.557,0l-33.716,33.717c-8.984,8.984 -8.984,23.572 -0,32.556l33.716,33.717c8.984,8.984 23.573,8.984 32.557,-0l33.716,-33.717Z" style="fill:#d23736;"/><path d="M1080.74,1262.31c-1.32,0.096 -4.325,6.666 -4.709,7.466c-0.318,0.66 -3.609,6.263 -2.697,8.085c2.48,4.96 9.216,5.617 14.108,6.266c1.915,0.254 5.164,0.877 6.565,-0.958c1.068,-1.398 -0.919,-4.088 -1.588,-5.254c-0.662,-1.153 -10.138,-15.717 -11.679,-15.605Z" style="fill:#c52726;"/><path d="M1028.09,1248.94c1.305,0.218 3.687,7.038 3.995,7.871c0.255,0.687 3.011,6.571 1.934,8.301c-2.93,4.708 -9.698,4.736 -14.629,4.928c-1.931,0.075 -5.223,0.393 -6.448,-1.564c-0.933,-1.492 1.295,-3.985 2.07,-5.084c0.766,-1.087 11.554,-14.707 13.078,-14.452Z" style="fill:#c52726;"/><path d="M1036.3,1247.95c0.168,2.353 0.771,3.822 1.031,5.808c0.165,1.265 1.312,4.581 1.586,4.842c0.48,0.455 5.03,-1.127 5.506,-2.523c0.308,-0.901 -0.156,-1.942 -0.536,-2.748c-0.9,-1.908 -2.773,-3.348 -4.419,-4.618c-0.552,-0.427 -3.28,-2.321 -3.168,-0.761Z" style="fill:#c52726;"/></g><g><path d="M1151.13,1301l-189.289,0l0,58.25c0,11.221 9.11,20.331 20.331,20.331l148.627,-0c11.221,-0 20.331,-9.11 20.331,-20.331l0,-58.25Z" style="fill:#0c0c0c;"/><path d="M1139.53,1314.31c-0,-0 2.389,-3.62 -0.019,-3.62l-1.84,-0c-0.999,-0 -1.81,0.811 -1.81,1.81c-0,0.999 0.811,1.81 1.81,1.81l0.049,-0l-0,0.544c-0,0.999 0.811,1.81 1.81,1.81c0.999,0 1.81,-0.811 1.81,-1.81l-0,-2.329l-1.81,1.785Zm-167.876,-0.942c-0.534,-0.885 -1.278,-1.924 -1.278,-0.843l0,2.329c0,0.999 0.811,1.81 1.81,1.81c0.999,0 1.81,-0.811 1.81,-1.81l0,-0.544l0.049,-0c0.999,-0 1.81,-0.811 1.81,-1.81c0,-0.999 -0.811,-1.81 -1.81,-1.81l-1.84,-0c-1.604,-0 -1.08,1.605 -0.551,2.678Zm0.532,43.327l1.81,-1.836l0,-2.329c0,-0.999 -0.811,-1.81 -1.81,-1.81c-0.999,0 -1.81,0.811 -1.81,1.81l0,2.329c0,0.009 0,0.017 0,0.026c0,0.833 0.073,1.652 0.214,2.453c0.174,0.984 1.113,1.642 2.097,1.468c0.984,-0.173 1.642,-1.113 1.468,-2.096c-0.105,-0.596 -0.159,-1.205 -0.159,-1.825l-1.81,1.81Zm17.974,11.174c-0.667,-0 -1.324,-0.033 -1.97,-0.096c-0.994,-0.098 -1.88,0.63 -1.978,1.624c-0.097,0.995 0.631,1.881 1.625,1.978c0.762,0.075 1.537,0.114 2.323,0.114l1.825,-0c0.999,-0 1.81,-0.811 1.81,-1.81c-0,-0.999 -0.811,-1.81 -1.81,-1.81l-1.806,-0c-0.006,-0 -0.013,-0 -0.019,-0Zm147.56,-12.984c0,0.62 -0.054,1.229 -0.159,1.825c-0.174,0.983 0.484,1.923 1.468,2.096c0.984,0.174 1.923,-0.484 2.097,-1.468c0.141,-0.801 0.214,-1.62 0.214,-2.453l-1.81,1.81l1.81,-1.836l-0,-2.329c-0,-0.999 -0.811,-1.81 -1.81,-1.81c-0.999,0 -1.81,0.811 -1.81,1.81l-0,2.329c-0,0.009 -0,0.017 0,0.026Zm-7.487,-40.575c0.999,-0 1.81,-0.811 1.81,-1.81c0,-0.999 -0.811,-1.81 -1.81,-1.81l-3.719,-0c-0.999,-0 -1.81,0.811 -1.81,1.81c0,0.999 0.811,1.81 1.81,1.81l3.719,-0Zm-11.156,-0c0.999,-0 1.81,-0.811 1.81,-1.81c-0,-0.999 -0.811,-1.81 -1.81,-1.81l-3.719,-0c-0.999,-0 -1.81,0.811 -1.81,1.81c0,0.999 0.811,1.81 1.81,1.81l3.719,-0Zm-11.157,-0c0.999,-0 1.81,-0.811 1.81,-1.81c0,-0.999 -0.811,-1.81 -1.81,-1.81l-3.718,-0c-0.999,-0 -1.81,0.811 -1.81,1.81c-0,0.999 0.811,1.81 1.81,1.81l3.718,-0Zm-11.156,-0c0.999,-0 1.81,-0.811 1.81,-1.81c0,-0.999 -0.811,-1.81 -1.81,-1.81l-3.719,-0c-0.999,-0 -1.81,0.811 -1.81,1.81c0,0.999 0.811,1.81 1.81,1.81l3.719,-0Zm-11.156,-0c0.999,-0 1.81,-0.811 1.81,-1.81c0,-0.999 -0.811,-1.81 -1.81,-1.81l-3.719,-0c-0.999,-0 -1.81,0.811 -1.81,1.81c0,0.999 0.811,1.81 1.81,1.81l3.719,-0Zm-11.156,-0c0.999,-0 1.81,-0.811 1.81,-1.81c-0,-0.999 -0.811,-1.81 -1.81,-1.81l-3.719,-0c-0.999,-0 -1.81,0.811 -1.81,1.81c0,0.999 0.811,1.81 1.81,1.81l3.719,-0Zm-11.157,-0c0.999,-0 1.81,-0.811 1.81,-1.81c0,-0.999 -0.811,-1.81 -1.81,-1.81l-3.718,-0c-0.999,-0 -1.81,0.811 -1.81,1.81c-0,0.999 0.811,1.81 1.81,1.81l3.718,-0Zm-11.156,-0c0.999,-0 1.81,-0.811 1.81,-1.81c0,-0.999 -0.811,-1.81 -1.81,-1.81l-3.718,-0c-0.999,-0 -1.81,0.811 -1.81,1.81c-0,0.999 0.811,1.81 1.81,1.81l3.718,-0Zm-11.156,-0c0.999,-0 1.81,-0.811 1.81,-1.81c-0,-0.999 -0.811,-1.81 -1.81,-1.81l-3.719,-0c-0.999,-0 -1.81,0.811 -1.81,1.81c0,0.999 0.811,1.81 1.81,1.81l3.719,-0Zm-11.156,-0c0.999,-0 1.81,-0.811 1.81,-1.81c-0,-0.999 -0.811,-1.81 -1.81,-1.81l-3.719,-0c-0.999,-0 -1.81,0.811 -1.81,1.81c0,0.999 0.811,1.81 1.81,1.81l3.719,-0Zm-11.156,-0c0.999,-0 1.81,-0.811 1.81,-1.81c-0,-0.999 -0.811,-1.81 -1.81,-1.81l-3.719,-0c-0.999,-0 -1.81,0.811 -1.81,1.81c-0,0.999 0.811,1.81 1.81,1.81l3.719,-0Zm-11.157,-0c0.999,-0 1.81,-0.811 1.81,-1.81c0,-0.999 -0.811,-1.81 -1.81,-1.81l-3.719,-0c-0.998,-0 -1.81,0.811 -1.81,1.81c0,0.999 0.812,1.81 1.81,1.81l3.719,-0Zm-11.156,-0c0.999,-0 1.81,-0.811 1.81,-1.81c-0,-0.999 -0.811,-1.81 -1.81,-1.81l-3.719,-0c-0.999,-0 -1.81,0.811 -1.81,1.81c0,0.999 0.811,1.81 1.81,1.81l3.719,-0Zm-11.156,-0c0.999,-0 1.81,-0.811 1.81,-1.81c-0,-0.999 -0.811,-1.81 -1.81,-1.81l-3.719,-0c-0.999,-0 -1.81,0.811 -1.81,1.81c0,0.999 0.811,1.81 1.81,1.81l3.719,-0Zm-11.206,9.963c0,-0.999 -0.811,-1.81 -1.81,-1.81c-0.999,0 -1.81,0.811 -1.81,1.81l0,4.71c0,0.999 0.811,1.81 1.81,1.81c0.999,-0 1.81,-0.811 1.81,-1.81l0,-4.71Zm0,14.129c0,-0.999 -0.811,-1.81 -1.81,-1.81c-0.999,-0 -1.81,0.811 -1.81,1.81l0,4.709c0,0.999 0.811,1.81 1.81,1.81c0.999,0 1.81,-0.811 1.81,-1.81l0,-4.709Zm3.707,24.739c-0.717,-0.696 -1.864,-0.679 -2.56,0.037c-0.696,0.717 -0.679,1.864 0.037,2.56c1.108,1.076 2.381,2.034 3.788,2.844c0.866,0.499 1.973,0.201 2.472,-0.665c0.499,-0.865 0.201,-1.973 -0.665,-2.472c-1.141,-0.657 -2.174,-1.431 -3.072,-2.304Zm21.582,4.728c-0.999,-0 -1.81,0.811 -1.81,1.81c-0,0.999 0.811,1.81 1.81,1.81l3.649,-0c0.999,-0 1.81,-0.811 1.81,-1.81c0,-0.999 -0.811,-1.81 -1.81,-1.81l-3.649,-0Zm10.949,-0c-0.999,-0 -1.81,0.811 -1.81,1.81c0,0.999 0.811,1.81 1.81,1.81l3.65,-0c0.999,-0 1.81,-0.811 1.81,-1.81c0,-0.999 -0.811,-1.81 -1.81,-1.81l-3.65,-0Zm10.95,-0c-0.999,-0 -1.81,0.811 -1.81,1.81c0,0.999 0.811,1.81 1.81,1.81l3.65,-0c0.999,-0 1.81,-0.811 1.81,-1.81c-0,-0.999 -0.811,-1.81 -1.81,-1.81l-3.65,-0Zm10.95,-0c-0.999,-0 -1.81,0.811 -1.81,1.81c-0,0.999 0.811,1.81 1.81,1.81l3.65,-0c0.998,-0 1.81,-0.811 1.81,-1.81c-0,-0.999 -0.812,-1.81 -1.81,-1.81l-3.65,-0Zm10.949,-0c-0.999,-0 -1.81,0.811 -1.81,1.81c0,0.999 0.811,1.81 1.81,1.81l3.65,-0c0.999,-0 1.81,-0.811 1.81,-1.81c0,-0.999 -0.811,-1.81 -1.81,-1.81l-3.65,-0Zm10.95,-0c-0.999,-0 -1.81,0.811 -1.81,1.81c-0,0.999 0.811,1.81 1.81,1.81l3.65,-0c0.999,-0 1.81,-0.811 1.81,-1.81c-0,-0.999 -0.811,-1.81 -1.81,-1.81l-3.65,-0Zm10.95,-0c-0.999,-0 -1.81,0.811 -1.81,1.81c-0,0.999 0.811,1.81 1.81,1.81l3.65,-0c0.999,-0 1.81,-0.811 1.81,-1.81c-0,-0.999 -0.811,-1.81 -1.81,-1.81l-3.65,-0Zm10.949,-0c-0.999,-0 -1.81,0.811 -1.81,1.81c0,0.999 0.811,1.81 1.81,1.81l3.65,-0c0.999,-0 1.81,-0.811 1.81,-1.81c0,-0.999 -0.811,-1.81 -1.81,-1.81l-3.65,-0Zm10.95,-0c-0.999,-0 -1.81,0.811 -1.81,1.81c0,0.999 0.811,1.81 1.81,1.81l3.65,-0c0.999,-0 1.81,-0.811 1.81,-1.81c-0,-0.999 -0.811,-1.81 -1.81,-1.81l-3.65,-0Zm10.95,-0c-0.999,-0 -1.81,0.811 -1.81,1.81c-0,0.999 0.811,1.81 1.81,1.81l3.65,-0c0.999,-0 1.81,-0.811 1.81,-1.81c-0,-0.999 -0.811,-1.81 -1.81,-1.81l-3.65,-0Zm10.949,-0c-0.999,-0 -1.81,0.811 -1.81,1.81c0,0.999 0.811,1.81 1.81,1.81l3.65,-0c0.999,-0 1.81,-0.811 1.81,-1.81c0,-0.999 -0.811,-1.81 -1.81,-1.81l-3.65,-0Zm10.95,-0c-0.999,-0 -1.81,0.811 -1.81,1.81c0,0.999 0.811,1.81 1.81,1.81l1.825,-0c0.786,-0 1.561,-0.039 2.323,-0.114c0.994,-0.097 1.722,-0.983 1.625,-1.978c-0.098,-0.994 -0.984,-1.722 -1.978,-1.624c-0.638,0.062 -1.287,0.095 -1.953,0.096c-0.012,-0 -0.024,-0 -0.036,-0l-1.806,-0Zm11.21,-2.424c-0.866,0.499 -1.164,1.607 -0.665,2.472c0.499,0.866 1.606,1.164 2.472,0.665c1.407,-0.81 2.68,-1.768 3.788,-2.844c0.716,-0.696 0.733,-1.843 0.037,-2.56c-0.697,-0.716 -1.843,-0.733 -2.56,-0.037c-0.898,0.873 -1.931,1.647 -3.072,2.304Zm6.779,-22.334c-0,0.999 0.811,1.81 1.81,1.81c0.999,0 1.81,-0.811 1.81,-1.81l-0,-4.709c-0,-0.999 -0.811,-1.81 -1.81,-1.81c-0.999,-0 -1.81,0.811 -1.81,1.81l-0,4.709Zm-0,-14.128c-0,0.999 0.811,1.81 1.81,1.81c0.999,-0 1.81,-0.811 1.81,-1.81l-0,-4.71c-0,-0.999 -0.811,-1.81 -1.81,-1.81c-0.999,0 -1.81,0.811 -1.81,1.81l-0,4.71Z" style="fill:#aeaeae;"/><path d="M955.261,1293.19c0,-3.818 3.101,-6.919 6.919,-6.919l186.574,0c3.819,0 6.919,3.101 6.919,6.919l0,27.852c0,3.819 -3.1,6.919 -6.919,6.919l-186.574,-0c-3.818,-0 -6.919,-3.1 -6.919,-6.919l0,-27.852Z" style="fill:#171717;"/><path d="M955.261,1296.17l200.412,0l0,-2.988c0,-3.818 -3.1,-6.919 -6.919,-6.919l-186.574,0c-3.818,0 -6.919,3.101 -6.919,6.919l0,2.988Z" style="fill:#aeaeae;"/><path d="M1130.57,1312.34c0.476,-0.906 0.127,-1.206 -0.057,-1.328c-0.196,-0.128 -0.708,-0.12 -1.17,0.577c-1.274,1.927 -3.422,2.992 -5.635,3.576c-2.364,0.622 -4.953,0.568 -7.163,-0.522c-1.069,-0.526 -2.063,-1.168 -3.024,-1.861c-2.396,-1.728 -4.769,-3.993 -7.19,-5.669c-1.703,-1.177 -6.704,-3.728 -11.443,-4.344c-5.997,-0.779 -10.784,1.443 -12.622,3.927c-2.267,3.063 -2.257,6.27 -0.852,9.057c1.937,3.842 6.641,6.727 11.061,6.642c1.021,-0.027 3.789,-0.179 5.63,-2.187c1.516,-1.653 1.403,-3.357 0.575,-4.723c-0.611,-1.007 -1.845,-2.723 -2.944,-2.255c-2.453,1.045 -0.041,2.758 -0.132,4.195c-0.075,1.205 -1.767,1.919 -3.277,1.851c-2.586,-0.115 -5.262,-1.84 -6.925,-3.844c-1.561,-1.879 -1.534,-5.734 0.404,-7.644c2.804,-2.763 7.111,-1.977 8.577,-1.833c3.839,0.379 8.657,2.531 10.181,3.547c2.434,1.62 4.892,3.953 7.307,5.619c1.105,0.763 2.253,1.457 3.479,2.025c2.844,1.313 6.194,1.516 9.118,0.465c2.603,-0.935 4.804,-2.799 6.102,-5.271Z" style="fill:#aeaeae;"/><path d="M982.405,1312.34c-0.476,-0.906 -0.127,-1.206 0.058,-1.328c0.195,-0.128 0.708,-0.12 1.169,0.577c1.275,1.927 3.422,2.992 5.635,3.576c2.364,0.622 4.953,0.568 7.163,-0.522c1.069,-0.526 2.063,-1.168 3.024,-1.861c2.396,-1.728 4.77,-3.993 7.191,-5.669c1.703,-1.177 6.703,-3.728 11.443,-4.344c5.996,-0.779 10.783,1.443 12.622,3.927c2.266,3.063 2.256,6.27 0.851,9.057c-1.937,3.842 -6.641,6.727 -11.06,6.642c-1.021,-0.027 -3.79,-0.179 -5.631,-2.187c-1.516,-1.653 -1.403,-3.357 -0.575,-4.723c0.611,-1.007 1.845,-2.723 2.944,-2.255c2.453,1.045 0.041,2.758 0.132,4.195c0.076,1.205 1.768,1.919 3.278,1.851c2.585,-0.115 5.261,-1.84 6.924,-3.844c1.561,-1.879 1.535,-5.734 -0.403,-7.644c-2.804,-2.763 -7.112,-1.977 -8.578,-1.833c-3.839,0.379 -8.656,2.531 -10.18,3.547c-2.435,1.62 -4.893,3.953 -7.308,5.619c-1.105,0.763 -2.253,1.457 -3.479,2.025c-2.844,1.313 -6.193,1.516 -9.118,0.465c-2.603,-0.935 -4.804,-2.799 -6.102,-5.271Z" style="fill:#aeaeae;"/><path d="M1055.43,1322.63c1.961,0.965 5.012,1.585 8.435,1.585c5.911,0 10.71,-1.849 10.71,-4.126c-0,-1.562 -2.259,-2.922 -5.586,-3.623c2.477,-2.246 3.717,-4.519 2.944,-5.857c-0.78,-1.351 -3.411,-1.402 -6.637,-0.349c1.053,-3.226 1.003,-5.857 -0.348,-6.637c-1.339,-0.772 -3.611,0.468 -5.858,2.945c-0.7,-3.327 -2.06,-5.585 -3.623,-5.585c-0.025,-0.001 -0.049,-0.001 -0.074,-0c-1.562,-0 -2.923,2.258 -3.623,5.585c-2.246,-2.477 -4.519,-3.717 -5.857,-2.945c-1.352,0.78 -1.402,3.411 -0.349,6.637c-3.226,-1.053 -5.857,-1.002 -6.637,0.349c-0.773,1.338 0.467,3.611 2.944,5.857c-3.327,0.701 -5.586,2.061 -5.586,3.623c0,2.277 4.799,4.126 10.71,4.126c3.423,0 6.474,-0.62 8.435,-1.585Z" style="fill:#aeaeae;"/><path d="M1142.5,1307.11c-2.419,0 -4.382,1.964 -4.382,4.382c-0,2.419 1.963,4.382 4.382,4.382c2.418,0 4.382,-1.963 4.382,-4.382c-0,-2.418 -1.964,-4.382 -4.382,-4.382Zm-173.276,0c-2.418,0 -4.382,1.964 -4.382,4.382c0,2.419 1.964,4.382 4.382,4.382c2.419,0 4.382,-1.963 4.382,-4.382c0,-2.418 -1.963,-4.382 -4.382,-4.382Z" style="fill:#aeaeae;"/></g><g><path d="M801.382,1437.5l105.333,0c0,0 16.508,-123.827 25.961,-132.875l-14.346,-61.673c-3.959,0.225 -7.653,0.34 -11.052,0.34l-94.16,-0l-11.736,194.208Z" style="fill:#aeaeae;fill-rule:nonzero;"/><path d="M800.319,1243.29l105.292,-0l14.266,61.333c-9.453,9.048 -25.96,132.875 -25.96,132.875l-105.334,0l11.736,-194.208Z" style="fill:#2f2c38;fill-rule:nonzero;"/><path d="M808.556,1373.87c7.986,-2.422 14.89,-6.025 20.336,-11.25c7.106,-6.818 12.447,-16.556 8.567,-25.39c-4.894,-11.143 -21.91,-14.87 -27.322,-1.531c-4.379,10.795 4.3,27.542 -1.581,38.171Zm67.728,60.016c13.819,-3.328 13.049,-17.164 2.801,-28.295c-11.645,-12.647 -32.575,-6.639 -32.575,-6.639c-0,-0 7.858,10.209 11.068,16.258c3.549,6.686 8.035,21.247 18.706,18.676Zm-20.026,3.615c-0.086,-0.865 -5.974,-15.159 -11.457,-18.311c-5.561,-3.198 -26.541,5.944 -27.471,10.303c-0.567,2.659 -0.718,5.617 0.638,8.008l5.981,0c-0.151,-0.65 -1.229,-5.129 -0.856,-6.717c0.634,-2.702 14.553,-8.126 18.157,-5.786c3.629,2.355 6.896,12.086 6.922,12.503l8.086,0Zm-48.942,0c-0.844,-4.5 -0.568,-9.418 0.513,-14.157c3.177,-13.937 20.399,-27.099 32.27,-31.527c13.348,-4.979 23.644,-4.277 33.223,-9.996c8.421,-5.028 18.502,-16.119 21.047,-22.106c3.828,-9.005 4.349,-21.108 -1.032,-29.487c-4.688,-7.301 -10.256,-10.474 -18.29,-10.533c9.317,-4.789 17.376,-18.39 14.161,-30.518c-2.983,-11.255 -10.545,-21.458 -23.427,-20.757c-3.36,0.042 -6.903,1.295 -9.826,3.382c-2.988,2.132 -5.332,5.099 -6.2,8.52c-0.512,1.997 -0.712,6.566 0.571,9.504c0.595,1.363 1.349,2.766 2.614,3.083c1.265,0.316 4.953,-0.046 2.652,-5.067c-0.339,-0.739 -1.855,-13.899 10.141,-13.556c8.864,0.254 13.386,8.282 14.095,16.254c0.646,7.258 -2.141,15.143 -9.357,17.753c-7.873,3.222 -47.677,-8.825 -47.677,-43.301c-0,-9.799 4.348,-17.248 6.475,-21.699l-7.043,-0c-1.128,2.555 -6.481,12.514 -6.515,23.84c-0.058,19.696 4.987,32.777 13.459,41.249c8.471,8.472 26.171,13.203 30.856,13.633c-3.339,1.305 -7.711,5.785 -9.948,10.658c-3.969,8.644 0.058,18.219 6.284,25.101c2.475,2.736 5.312,0.552 3.208,-2.45c-4.046,-5.774 -5.144,-13.35 -2.346,-20.067c0.374,-0.898 6.944,-10.307 17.366,-7.441c4.935,1.357 16.136,10.001 11.76,25.976c-2.723,9.938 -10.715,18.188 -18.782,22.189c-8.303,4.117 -18.368,3.378 -31.082,8.346c-13.015,5.085 -35.037,21.444 -38.505,36.781c-1.235,5.463 -1.567,11.104 -0.837,16.393l10.172,0Zm68.007,-194.208l-27.654,-0c-2.942,8.143 -0.441,15.687 9.282,18.03c10.339,2.49 14.872,-11.1 18.372,-18.03Z" style="fill:#aeaeae;"/></g></g><g><path d="M596.936,1249.31c-43.727,-1.816 -82.143,24.399 -109.924,64.275c8.598,15.312 28.933,46.923 28.933,46.923c-0,-0 36.028,11.554 55.431,16.115c26.7,-30.314 6.414,-76.666 25.56,-95.31l0,-32.003Z" style="fill:#8d1a19;"/><path d="M596.936,1249.31c-40.421,-1.679 -82.6,5.52 -110.691,38.115c-4.002,4.705 -3.991,11.621 0.026,16.312c16.447,18.937 36.794,36.977 61.806,53.98c3.81,2.58 8.537,3.421 13.003,2.314c4.467,-1.107 8.253,-4.058 10.418,-8.119c14.052,-26.698 9.276,-54.861 25.438,-70.599l0,-32.003Z" style="fill:#a63232;"/><path d="M575.461,1343.18c-6.486,-0.638 -13.078,-0.335 -19.855,1.665l-2.961,0.874l-1.609,-2.635c-3.71,-6.077 -5.557,-12.147 -6.448,-17.502c-7.511,-0.457 -14.556,-0.65 -21.172,-0.67l-2.614,-0.008l-1.053,-2.392c-4.963,-11.266 -5.725,-17.346 -5.88,-21.97c-6.211,-3.27 -11.496,-5.416 -15.876,-6.388l-2.239,-0.497l-0.712,-2.181c-1.194,-3.661 -1.727,-7.456 -1.855,-11.333c2.638,-2.503 5.374,-4.822 8.198,-6.968c-0.356,4.695 -0.351,9.314 0.713,13.727c4.963,1.406 10.863,3.953 17.679,7.685l2.06,1.129l0.029,2.349c0.049,4.034 0.125,8.87 4.225,18.823c6.972,0.069 14.399,0.331 22.322,0.886l3.371,0.236l0.348,3.36c0.456,4.406 1.594,9.616 4.319,14.94c7.381,-1.719 14.577,-1.792 21.67,-0.922c-0.774,2.588 -1.649,5.19 -2.66,7.792Zm4.869,-16.134c-26.74,-17.933 -49.53,-38.238 -68.797,-60.655c2.379,-1.392 4.806,-2.684 7.274,-3.881c17.921,20.612 38.929,39.372 63.367,56.074c-0.572,2.775 -1.17,5.602 -1.844,8.462Z" style="fill:#aeaeae;"/></g><g><path d="M653.055,1249.31c43.728,-1.816 82.144,24.399 109.924,64.275c-8.598,15.312 -28.933,46.923 -28.933,46.923c0,-0 -36.028,11.554 -55.431,16.115c-26.7,-30.314 -6.413,-76.666 -25.56,-95.31l0,-32.003Z" style="fill:#8d1a19;"/><path d="M653.055,1249.31c40.421,-1.679 82.6,5.52 110.691,38.115c4.002,4.705 3.991,11.621 -0.026,16.312c-16.447,18.937 -36.793,36.977 -61.806,53.98c-3.81,2.58 -8.537,3.421 -13.003,2.314c-4.467,-1.107 -8.253,-4.058 -10.418,-8.119c-14.052,-26.698 -9.276,-54.861 -25.438,-70.599l0,-32.003Z" style="fill:#a63232;"/><path d="M674.53,1343.18c6.486,-0.638 13.078,-0.335 19.855,1.665l2.961,0.874l1.609,-2.635c3.71,-6.077 5.557,-12.147 6.448,-17.502c7.511,-0.457 14.556,-0.65 21.172,-0.67l2.614,-0.008l1.054,-2.392c4.962,-11.266 5.724,-17.346 5.879,-21.97c6.211,-3.27 11.496,-5.416 15.876,-6.388l2.24,-0.497l0.711,-2.181c1.195,-3.661 1.728,-7.456 1.856,-11.333c-2.639,-2.503 -5.375,-4.822 -8.199,-6.968c0.357,4.695 0.351,9.314 -0.713,13.727c-4.963,1.406 -10.862,3.953 -17.679,7.685l-2.06,1.129l-0.029,2.349c-0.049,4.034 -0.125,8.87 -4.225,18.823c-6.972,0.069 -14.399,0.331 -22.322,0.886l-3.371,0.236l-0.348,3.36c-0.456,4.406 -1.594,9.616 -4.319,14.94c-7.381,-1.719 -14.577,-1.792 -21.67,-0.922c0.774,2.588 1.649,5.19 2.66,7.792Zm-4.869,-16.134c26.74,-17.933 49.53,-38.238 68.797,-60.655c-2.379,-1.392 -4.806,-2.684 -7.274,-3.881c-17.921,20.612 -38.929,39.372 -63.367,56.074c0.572,2.775 1.17,5.602 1.844,8.462Z" style="fill:#aeaeae;"/></g><path d="M659.082,1255.15c0,-6.55 -5.317,-11.868 -11.868,-11.868l-44.437,0c-6.55,0 -11.868,5.318 -11.868,11.868l-0,23.736c-0,6.55 5.318,11.868 11.868,11.868l44.437,-0c6.551,-0 11.868,-5.318 11.868,-11.868l0,-23.736Z" style="fill:#d23736;"/></g></g></svg>