<?xml version="1.0" encoding="UTF-8" standalone="no"?><!DOCTYPE svg PUBLIC "-//W3C//DTD SVG 1.1//EN" "http://www.w3.org/Graphics/SVG/1.1/DTD/svg11.dtd"><svg width="100%" height="100%" viewBox="0 0 1250 1438" version="1.1" xmlns="http://www.w3.org/2000/svg" xmlns:xlink="http://www.w3.org/1999/xlink" xml:space="preserve" xmlns:serif="http://www.serif.com/" style="fill-rule:evenodd;clip-rule:evenodd;stroke-linejoin:round;stroke-miterlimit:2;"><g id="Egyptian"><g id="ClothingEgyptian"><g><path d="M87.582,1229.14c19.448,9.081 41.137,14.155 64.001,14.155l135.994,-0c50.878,64.994 134.451,124.219 241.093,179.373l-486.703,-38.592c28.87,-45.704 41.823,-98.328 45.615,-154.936Z" style="fill:#e4e4e4;"/><path d="M87.582,1229.14c19.448,9.081 41.137,14.155 64.001,14.155l135.994,-0c50.878,64.994 134.451,124.219 241.093,179.373l-486.703,-38.592c28.87,-45.704 41.823,-98.328 45.615,-154.936Z" style="fill:#fff;"/><path d="M138.269,1242.71c-3.952,11.896 -7.385,24.568 -9.835,38.715c-0.423,2.486 -2.462,4.378 -4.973,4.615c-2.51,0.236 -4.866,-1.242 -5.746,-3.605c-5.155,-14.724 -9.296,-30.461 -13.069,-46.566c10.733,3.496 21.99,5.827 33.623,6.841Zm73.022,0.578c-2.432,11.136 -3.704,23.295 -4.233,37.156c-0.132,2.976 -2,5.596 -4.769,6.692c-2.769,1.096 -5.924,0.462 -8.056,-1.617c-16.458,-16.04 -29.179,-27.883 -40.733,-42.231l57.791,-0Zm59.062,-0c4.132,21.169 9.64,43.438 20.027,69.611c0.944,2.389 0.092,5.112 -2.044,6.536c-2.137,1.425 -4.978,1.165 -6.82,-0.625c-23.857,-23.625 -41.308,-49.38 -57.592,-75.522l46.429,-0Z" style="fill:#dfdfdf;"/><path d="M1223.41,1371.24c-27.424,39.893 -73.369,66.262 -124.99,66.262l-946.834,0c-51.621,0 -97.566,-26.369 -124.99,-66.262l1196.81,0Z" style="fill:#c4c4c4;"/><path d="M151.583,1437.5c-51.621,0 -97.566,-26.369 -124.99,-66.262l1196.81,0c-23.62,34.36 -60.981,58.687 -103.874,64.775c3.798,-5.725 6.036,-11.32 6.9,-16.8c0.341,-2.634 -0.998,-5.2 -3.354,-6.427c-2.355,-1.227 -5.226,-0.853 -7.188,0.937c-9.264,8.023 -19.024,16.016 -29.481,23.777l-152.673,-0c-0,-0 -14.588,-14.588 -24.585,-24.585c-5.067,-5.067 -13.282,-5.067 -18.348,0c-9.997,9.997 -24.585,24.585 -24.585,24.585l-210.457,-0c-0,-0 -13.696,-13.844 -22.333,-22.574c-1.822,-1.841 -4.302,-2.88 -6.892,-2.887c-2.59,-0.007 -5.076,1.019 -6.908,2.85c-8.727,8.728 -22.61,22.611 -22.61,22.611l-182.388,-0c0,-0 -14.518,-16.242 -23.224,-25.982c-1.636,-1.829 -3.967,-2.882 -6.421,-2.899c-2.453,-0.018 -4.8,1.003 -6.46,2.809c-8.946,9.729 -23.974,26.072 -23.974,26.072l-156.848,-0c-13.368,-10.683 -25.949,-19.751 -38.09,-27.966c-2.063,-1.392 -4.677,-1.684 -6.996,-0.783c-2.319,0.902 -4.049,2.883 -4.629,5.302c-1.684,8.075 -0.841,15.889 3.594,23.447Z" style="fill:#dfdfdf;"/><path d="M48.778,1396.91c-8.303,-7.703 -15.753,-16.315 -22.185,-25.671l1196.81,0c-6.432,9.356 -13.882,17.968 -22.185,25.671l-1152.44,-0Z" style="fill:#2e475c;"/><path d="M1208.03,1390.18c-2.2,2.311 -4.472,4.553 -6.811,6.724l-1152.44,-0c-2.339,-2.171 -4.611,-4.413 -6.811,-6.724l1166.07,-0Z" style="fill:#2e2e2f;"/><path d="M934.158,1369.11c-10.034,3.86 -18.078,13.564 -22.894,22.977c-5.271,10.302 -13.928,25.197 -9.474,33.882c4.974,9.697 22.498,11.473 30.35,11.532c9.365,0.07 11.803,-6.652 12.179,-9.632c0.517,-4.098 0.924,-8.226 1.655,-12.302c2.235,-12.463 10.158,-17.062 10.298,-17.686c0.599,-2.673 -16.628,-23.637 -22.114,-28.771Z" style="fill:#2e475c;"/><path d="M902.868,1427.7c7.159,5.895 20.251,7.116 26.74,7.165c9.366,0.07 11.803,-6.652 12.179,-9.632c0.518,-4.098 0.925,-8.226 1.655,-12.302c2.235,-12.463 10.158,-17.062 10.298,-17.686c0.514,-2.294 -12.092,-18.048 -19.148,-25.721c5.903,5.757 22.264,25.749 21.68,28.356c-0.14,0.624 -8.063,5.223 -10.298,17.686c-0.731,4.076 -1.138,8.204 -1.655,12.302c-0.376,2.98 -2.814,9.702 -12.179,9.632c-7.36,-0.055 -23.216,-1.619 -29.272,-9.8Z" style="fill:#283a49;"/><path d="M961.667,1352.11c3.621,-2.598 7.871,-4.139 11.952,-5.85c17.722,-7.426 39.642,-3.629 50.397,14.651c6.106,10.379 8.286,20.856 12.737,31.829c4.788,11.804 16.115,14.818 16.787,20.397c0.642,5.327 -34.417,17.757 -44.38,13.878c-15.18,-5.912 -16.575,-19.749 -17.766,-27.262c-0.623,-3.928 -0.598,-9.743 -3.124,-13.068c-1.771,-2.332 -4.848,-2.873 -7.6,-2.762c-1.64,0.066 -2.589,0.928 -4.166,0.103c-2.303,-1.204 -12.516,-27.053 -14.837,-31.916Z" style="fill:#2e597d;"/><path d="M1053.24,1411.97c0.151,0.378 0.254,0.764 0.302,1.164c0.642,5.327 -34.417,17.757 -44.38,13.878c-15.18,-5.912 -16.575,-19.749 -17.766,-27.262c-0.623,-3.928 -0.598,-9.743 -3.124,-13.068c-1.771,-2.332 -4.848,-2.873 -7.6,-2.762c-1.64,0.066 -2.589,0.928 -4.166,0.103c-2.303,-1.204 -12.516,-27.053 -14.837,-31.916c1.203,-0.863 2.476,-1.61 3.789,-2.285c3.48,8.056 11.701,28.389 13.738,29.454c1.577,0.825 2.526,-0.037 4.166,-0.103c2.752,-0.111 5.829,0.43 7.6,2.762c2.526,3.325 2.501,9.14 3.124,13.068c1.191,7.513 2.586,21.35 17.766,27.261c8.098,3.154 32.779,-4.469 41.388,-10.294Z" style="fill:#2b4d69;"/><path d="M972.918,1388.06c3.008,-2.644 3.304,-7.234 0.659,-10.242l-20.56,-23.391c-2.644,-3.009 -7.234,-3.304 -10.243,-0.66l-10.902,9.583c-3.009,2.645 -3.304,7.234 -0.66,10.243l20.561,23.391c2.644,3.008 7.234,3.304 10.242,0.659l10.903,-9.583Z" style="fill:#42586b;"/><path d="M979.939,1393.2c3.559,-1.837 4.958,-6.218 3.121,-9.778l-17.997,-34.874c-1.837,-3.56 -6.219,-4.958 -9.778,-3.121l-12.899,6.656c-3.56,1.837 -4.958,6.219 -3.122,9.778l17.998,34.875c1.837,3.559 6.218,4.958 9.778,3.121l12.899,-6.657Z" style="fill:#4f718d;"/></g><g><path d="M764.797,1243.29l185.13,-0c-41.864,60.173 -171.577,104.078 -324.927,104.078c-153.35,0 -283.063,-43.905 -324.927,-104.078l185.13,-0c42.635,8.323 89.968,12.958 139.797,12.958c49.829,0 97.162,-4.635 139.797,-12.958Z" style="fill:#b47e01;"/><path d="M764.797,1243.29l170.248,-0c-52.788,51.107 -171.814,86.782 -310.045,86.782c-138.231,-0 -257.257,-35.675 -310.045,-86.782l170.248,-0c42.635,8.323 89.968,12.958 139.797,12.958c49.829,0 97.162,-4.635 139.797,-12.958Z" style="fill:#d19200;"/><path d="M923.417,1243.29c-57.379,45.608 -169.552,76.612 -298.417,76.612c-128.865,-0 -241.038,-31.004 -298.417,-76.612l24.533,-0c61.713,36.313 161.445,59.917 273.884,59.917c112.439,0 212.171,-23.604 273.884,-59.917l24.533,-0Z" style="fill:#28945b;"/><path d="M343.331,1243.29l7.785,-0c61.713,36.313 161.445,59.917 273.884,59.917c112.439,0 212.171,-23.604 273.884,-59.917l6.926,-0c-59.784,37.945 -168.371,64.171 -280.81,64.171c-112.439,-0 -219.808,-24.594 -281.669,-64.171Z" style="fill:#2a8455;"/><path d="M857.239,1243.29c-60.7,24.573 -142.414,39.637 -232.239,39.637c-89.825,0 -171.539,-15.064 -232.239,-39.637l49.749,-0c52.7,14.521 115.328,22.943 182.49,22.943c67.162,-0 129.79,-8.422 182.49,-22.943l49.749,-0Z" style="fill:#226e46;"/><path d="M435.651,1243.29l6.859,-0c52.7,14.521 115.328,22.943 182.49,22.943c67.162,-0 129.79,-8.422 182.49,-22.943l11.553,-0c-51.869,17.251 -126.881,26.726 -194.043,26.726c-67.162,-0 -135.937,-9.713 -189.349,-26.726Z" style="fill:#005227;"/><path d="M875.035,1282.68c-56.399,26.487 -135.192,43.998 -223.412,46.953l-7.205,-73.615c33.521,-0.816 65.747,-3.732 95.978,-8.446l134.639,35.108Zm-281.551,46.774c-31.853,-1.266 -62.436,-4.432 -91.131,-9.231l58.459,-66.585c14.068,1.162 28.444,1.949 43.069,2.336l-10.397,73.48Z" style="fill:#ffeabb;fill-opacity:0.1;"/></g></g></g></svg>