<?xml version="1.0" encoding="UTF-8" standalone="no"?><!DOCTYPE svg PUBLIC "-//W3C//DTD SVG 1.1//EN" "http://www.w3.org/Graphics/SVG/1.1/DTD/svg11.dtd"><svg width="100%" height="100%" viewBox="0 0 5209 5992" version="1.1" xmlns="http://www.w3.org/2000/svg" xmlns:xlink="http://www.w3.org/1999/xlink" xml:space="preserve" xmlns:serif="http://www.serif.com/" style="fill-rule:evenodd;clip-rule:evenodd;stroke-linejoin:round;stroke-miterlimit:2;"><g id="saint_patricks_v1"><g id="clothes"><path d="M5208.33,4465.96l0,888.717c0,346.483 -285.112,631.596 -631.596,631.596l-3945.14,-0c-346.484,-0 -631.596,-285.113 -631.596,-631.596l-0,-888.717c-0,346.484 285.112,631.6 631.596,631.6l3945.14,0c346.484,0 631.596,-285.116 631.596,-631.6Z" style="fill:#3bb54a;fill-rule:nonzero;"/><rect x="1849.84" y="5111.25" width="1508.41" height="875.012" style="fill:#e0e0e0;"/><rect x="1199.58" y="5111.25" width="2720.53" height="65.813" style="fill:#e0e0e0;"/><path d="M1849.78,5904.12l0,-367.613l-210.159,-427.554l445.839,0l531.174,452.142l531.175,-452.142l420.906,0l-210.16,427.554l0,367.613l-0.308,0.004l-377.042,85.459l-324.479,-73.546l-52.683,-11.913l-0.03,0l-49.029,11.117l-328.075,74.342l-377.129,-85.463Z" style="fill:#1f614d;"/><path d="M2604.04,5904.08l-0,0.054l-0.029,0l-49.03,11.117l-328.075,74.342l-377.129,-85.463l0,-367.621l-210.159,-427.545l448.521,2.283l528.492,449.858l17.759,0c10.737,0 19.458,8.721 19.458,19.459l-0.017,304.058c0,10.737 -8.716,19.458 -19.458,19.458l-30.333,0Z" style="fill:#37705f;"/><g><circle cx="2519.03" cy="5723.29" r="125.492" style="fill:#1f614d;"/><circle cx="2519.03" cy="5723.67" r="102.225" style="fill:#fabb13;"/><path d="M2519.03,5608.83c63.367,0 114.809,51.446 114.809,114.809c-0.001,63.366 -51.442,114.808 -114.809,114.808c-63.362,0 -114.808,-51.442 -114.808,-114.808c-0,-63.363 51.446,-114.809 114.808,-114.809Zm0,25.167c-49.475,-0 -89.641,40.167 -89.641,89.642c-0,49.475 40.166,89.641 89.641,89.641c49.475,0 89.642,-40.166 89.642,-89.641c-0,-49.475 -40.167,-89.642 -89.642,-89.642Z" style="fill:#d09700;"/><path d="M2494.58,5683.21c9.775,0 17.712,7.938 17.712,17.713c0,9.775 -7.937,17.712 -17.712,17.712c-9.779,0 -17.713,-7.937 -17.713,-17.712c0.001,-9.775 7.934,-17.713 17.713,-17.713Zm48.908,0c9.779,0 17.717,7.938 17.717,17.713c-0,9.775 -7.938,17.712 -17.717,17.712c-9.775,0 -17.712,-7.937 -17.712,-17.712c-0,-9.775 7.937,-17.713 17.712,-17.713Zm-48.908,45.484c9.775,-0 17.712,7.937 17.712,17.712c0,9.775 -7.937,17.713 -17.712,17.713c-9.779,-0 -17.713,-7.938 -17.713,-17.713c0,-9.775 7.934,-17.712 17.713,-17.712Zm48.908,-0c9.779,-0 17.717,7.937 17.717,17.712c-0,9.775 -7.938,17.713 -17.717,17.713c-9.775,-0 -17.712,-7.938 -17.712,-17.713c-0,-9.775 7.937,-17.712 17.712,-17.712Z" style="fill:#37705f;"/><path d="M2494.58,5679.88c11.604,0 21.025,9.421 21.025,21.025c0,11.604 -9.421,21.025 -21.025,21.025c-11.604,0 -21.025,-9.421 -21.025,-21.025c-0,-11.604 9.421,-21.025 21.025,-21.025Zm0,6.625c-7.95,0 -14.404,6.45 -14.404,14.4c-0,7.95 6.454,14.404 14.404,14.404c7.946,0 14.4,-6.454 14.4,-14.404c0,-7.95 -6.454,-14.4 -14.4,-14.4Zm48.908,-6.625c11.604,0 21.025,9.421 21.025,21.025c0,11.604 -9.421,21.025 -21.025,21.025c-11.6,0 -21.021,-9.421 -21.021,-21.025c0.001,-11.604 9.421,-21.025 21.021,-21.025Zm0,6.625c-7.946,0 -14.4,6.45 -14.4,14.4c0,7.95 6.454,14.404 14.4,14.404c7.95,0 14.404,-6.454 14.404,-14.404c0,-7.95 -6.454,-14.4 -14.404,-14.4Zm-48.908,38.858c11.604,0 21.025,9.421 21.025,21.025c-0,11.605 -9.421,21.025 -21.025,21.025c-11.604,0 -21.025,-9.42 -21.025,-21.025c-0,-11.604 9.421,-21.025 21.025,-21.025Zm-0,6.625c-7.95,0 -14.404,6.45 -14.404,14.4c-0,7.95 6.454,14.405 14.404,14.405c7.946,-0 14.4,-6.455 14.4,-14.405c-0,-7.95 -6.454,-14.4 -14.4,-14.4Zm48.908,-6.625c11.604,0 21.025,9.421 21.025,21.025c0,11.605 -9.421,21.025 -21.025,21.025c-11.6,0 -21.021,-9.42 -21.021,-21.025c0.001,-11.604 9.421,-21.025 21.021,-21.025Zm0,6.625c-7.946,0 -14.4,6.45 -14.4,14.4c0,7.95 6.454,14.405 14.4,14.405c7.95,-0 14.404,-6.455 14.404,-14.405c0,-7.95 -6.454,-14.4 -14.404,-14.4Z" style="fill:#d09700;"/><path d="M2486.35,5710.42c-4.879,-4.6 -5.1,-12.3 -0.5,-17.18c4.604,-4.879 12.304,-5.099 17.179,-0.495l46.596,43.958c4.879,4.604 5.1,12.304 0.5,17.179c-4.604,4.879 -12.304,5.104 -17.179,0.5l-46.596,-43.962Z" style="fill:#2b5246;"/><path d="M2503.75,5753.96c-4.929,4.55 -12.625,4.242 -17.175,-0.683c-4.55,-4.929 -4.242,-12.625 0.683,-17.175l47.059,-43.463c4.929,-4.55 12.624,-4.241 17.175,0.684c4.549,4.929 4.245,12.621 -0.684,17.175l-47.058,43.462Z" style="fill:#1f614d;"/></g><path d="M3737.94,5094.58c-0.767,50.155 -26.979,97.767 -71.513,124.784l-428.091,259.725c-2.18,3.462 -4.517,6.896 -7.03,10.3c-54.42,73.821 -145.012,91.996 -229.208,72.137c-80.704,-19.033 -156.85,-65.025 -225.771,-114.329c-20.237,10.983 -43.191,17.704 -67.712,18.904l-185.717,9.084c-12.733,0.62 -25.196,-0.28 -37.187,-2.55c-63.45,55.483 -134.346,108.05 -212.296,134.708c-81.85,27.996 -173.779,18.771 -235.163,-49.371c-16.216,-17.996 -26.958,-37.508 -34.016,-58.108l-462.334,-280.5c-44.533,-27.017 -70.746,-74.629 -71.512,-124.784l2267.55,0Z" style="fill-opacity:0.15;"/><path d="M3658.4,5092.29c0,23.687 -12.233,46.287 -33.237,59.033l-492.592,298.854c-22.008,13.354 -49.621,13.354 -71.629,0l-456.775,-277.125l-456.775,277.125c-22.009,13.354 -49.621,13.354 -71.629,0l-492.592,-298.854c-21.004,-12.746 -33.238,-35.346 -33.238,-59.033l2108.47,-0Z" style="fill:#fff;"/><g><path d="M2704.42,5161.25c22.62,-28.992 44.591,-58.354 70.42,-84.625c19.525,-19.858 40.217,-38.4 62.7,-54.854c19.096,-13.975 39.442,-26.183 59.971,-37.917c15.513,-8.862 31.425,-17.3 47.804,-24.458c74.788,-32.675 200.367,-63.263 244.092,31.487c10.258,22.225 10.358,48.73 10.071,72.65c-0.662,55.809 -15.404,110.13 -19.542,165.621c-2.758,37.021 0.529,73.996 3.913,110.85c3.3,35.979 6.175,71.321 -16.571,102.171c-34.604,46.933 -93.383,54.542 -146.913,41.917c-90.62,-21.371 -173.837,-82.484 -246.912,-138.017c-37.604,-28.579 -122.183,-116.704 -69.033,-184.825Z" style="fill:#cb4e16;"/><path d="M2530.53,5179.88c-25.35,-26.637 -50.087,-53.712 -78.362,-77.333c-21.375,-17.854 -43.78,-34.284 -67.763,-48.454c-20.375,-12.042 -41.813,-22.2 -63.396,-31.871c-16.3,-7.304 -32.962,-14.146 -49.962,-19.667c-77.63,-25.204 -205.592,-43.362 -239.846,55.208c-8.034,23.125 -5.538,49.513 -2.917,73.292c6.121,55.475 26.109,108.092 35.65,162.913c6.367,36.575 6.708,73.695 6.95,110.704c0.233,36.125 0.829,71.579 26.484,100.058c39.029,43.325 98.27,45.146 150.308,27.346c88.096,-30.133 164.933,-99.088 232.229,-161.504c34.629,-32.121 110.183,-128.096 50.625,-190.692Z" style="fill:#cb4e16;"/><path d="M2513.73,5223.29c3.4,2.554 4.088,7.383 1.534,10.783c-2.55,3.404 -7.384,4.092 -10.784,1.537c-4.929,0.075 -6.941,1.663 -11.654,0.317c-1.258,-0.358 -2.2,-1.408 -3.279,-2.146c-33.021,-22.629 -65.838,-42.683 -100.021,-60.229c-19.188,-9.85 -38.792,-18.679 -58.637,-27.858c-19.771,-9.15 -38.984,-19.017 -60.059,-27.354c-2.562,-0.663 -4.108,-3.284 -3.446,-5.846c0.663,-2.563 3.284,-4.109 5.846,-3.446c23.084,2.992 45.129,6.108 66.684,12.108c22.041,6.138 42.966,14.809 63.375,24.425c36.316,17.117 70.833,38.275 104.004,63.759c1.075,0.825 2.412,1.42 3.158,2.554c2.746,4.158 1.95,6.558 3.279,11.396Z" style="fill:#a93704;"/><path d="M2496.51,5241.54c2.617,-0.979 5.534,0.354 6.513,2.971c0.975,2.616 -0.358,5.533 -2.975,6.512c-0.388,5.05 0.516,1.408 -0.504,6.375c-0.68,3.317 0.241,3.6 -2.084,6.058c-1.033,1.096 -2.783,1.138 -4.183,1.692c-13.967,5.521 -27.983,10.863 -42.096,15.946c-17.183,6.192 -34.371,12.375 -51.733,18.029c-11.554,3.763 -23.125,7.279 -34.804,10.638c-3.784,1.083 -7.471,2.308 -11.35,2.966c-9.792,1.654 -18.517,1.4 -28.417,2.359c-2.383,0.987 -5.125,-0.15 -6.113,-2.534c-0.987,-2.387 0.146,-5.129 2.534,-6.117c7.941,-6.491 14.346,-12.904 23.037,-18.324c9.384,-5.855 19.721,-9.767 29.871,-14.134c10.067,-4.329 20.308,-8.196 30.6,-11.954c26.238,-9.583 52.633,-18.733 79.229,-27.421c0.884,-0.287 1.746,-0.908 2.671,-0.791c3.354,0.437 2.708,1.204 5.375,3.291c3.946,3.096 0.875,0.896 4.429,4.438Z" style="fill:#a93704;"/><path d="M2627.24,5280.46c-1.05,1.042 -2.75,1.03 -3.792,-0.021c-1.042,-1.054 -1.033,-2.75 0.021,-3.791c-2.142,-5.909 -3.892,-1.284 -2.638,-7.438c0.892,-4.4 6.063,-6.596 9.217,-9.787c10.646,-10.759 21.883,-20.888 33.529,-30.521c27.125,-22.45 56.496,-42.142 87.071,-59.721c14.504,-8.342 29.262,-16.292 44.429,-23.392c15.146,-7.091 30.629,-13.391 46.288,-19.22c10.441,-3.888 20.87,-7.7 31.541,-10.825c10.754,-3.15 21.521,-5.496 32.417,-7.967c2.412,-0.829 5.046,0.462 5.875,2.879c0.829,2.413 -0.463,5.046 -2.879,5.875c-9.988,4.667 -19.604,9.717 -29.592,14.471c-9.842,4.683 -19.779,9.087 -29.637,13.792c-14.696,7.02 -29.171,14.45 -43.625,21.991c-14.396,7.513 -28.75,15.104 -42.796,23.234c-29.471,17.058 -57.663,36.166 -84.471,57.079c-11.483,8.958 -22.713,18.212 -33.763,27.737c-3.275,2.829 -5.587,7.671 -9.854,8.438c-6.162,1.108 -1.479,-0.613 -7.341,-2.813Z" style="fill:#a93704;"/><path d="M2625.9,5266.21c-4.033,0.3 -7.558,-2.733 -7.858,-6.766c-0.3,-4.038 2.733,-7.559 6.77,-7.863c0.488,-0.996 -0.029,-0.708 0.742,-1.508c0.946,-0.975 2,-1.346 3.3,-1.738c1.367,-0.408 2.838,-0.279 4.258,-0.395c25.767,-2.167 51.496,-3.013 77.159,-2.238c28.662,0.863 57.225,3.958 85.721,9.483c12.45,2.58 24.808,5.525 36.962,9.188c12.042,3.629 23.925,7.717 35.683,12.208c6.25,2.384 12.505,4.638 18.534,7.534c9.304,4.479 17.525,9.775 26.575,14.72c0.954,0.3 1.483,1.317 1.183,2.271c-0.3,0.954 -1.321,1.488 -2.275,1.188c-10.267,-1.138 -20.012,-1.838 -30.221,-3.513c-2.475,-0.408 -4.883,-0.962 -7.325,-1.541c-14.025,-3.346 -27.896,-7.092 -41.883,-10.555c-13.779,-3.412 -27.538,-6.883 -41.529,-9.395c-21.838,-4.238 -43.721,-6.846 -65.655,-8.275c-17.908,-1.171 -35.854,-1.43 -53.841,-1.271c-11.996,0.108 -24.008,0.404 -36.054,0.862c-2.009,0.075 -4.038,0.521 -6.021,0.2c-1.279,-0.208 -2.296,-0.441 -3.317,-1.241c-0.858,-0.675 -0.296,-0.446 -0.908,-1.355Z" style="fill:#a93704;"/><path d="M2771.95,5146.46c-2.125,-43.479 -39.154,-77.054 -82.633,-74.925l-185.713,9.084c-43.479,2.125 -77.054,39.15 -74.925,82.629l7.704,157.558c2.125,43.479 39.155,77.054 82.634,74.925l185.712,-9.079c43.479,-2.129 77.054,-39.154 74.925,-82.633l-7.704,-157.559Z" style="fill:#f26222;"/></g><path d="M1578.28,4984.17l-1578.28,-518.216l0,438.958c0,348.587 283.008,631.596 631.596,631.596l1218.18,-0l-271.496,-552.338Zm2051.77,0l-271.496,552.338l1218.18,-0c348.587,-0 631.595,-283.009 631.595,-631.596l0,-438.958l-1578.28,518.216Z" style="fill:#3bb54a;"/><g><path d="M1510.68,4976.8c-25.32,63.759 -114.341,287.984 -123.937,313.079c-25.708,67.225 2.171,128.242 57.771,153.05c6.479,2.892 58.996,24.267 123.175,50.275c-23.163,55.159 -42.817,102.171 -48.542,116.446c-10.742,26.788 -14.883,53.017 -9.854,81.15c4.471,24.988 16.508,52.679 43.787,83.784c26.63,30.366 251.071,248.229 251.071,248.229c12.467,12.091 28.913,18.487 45.625,18.491l0,-504.812l-271.496,-552.338l-67.6,-7.354Z" style="fill:#336b39;fill-opacity:0.25;"/><path d="M1602.36,5731.38c26.234,29.912 247.421,244.391 247.421,244.391l0,-439.266l-123.425,-251.096c0,-0 -130.058,307.971 -146.371,348.654c-11.995,29.904 -11.908,58.225 22.375,97.317Z" style="fill:#77d365;"/><path d="M1849.78,5536.51l-123.425,-251.096c0,-0 -53.404,126.462 -96.062,228.016l219.487,23.08Z" style="fill:#70c760;"/><path d="M1471.23,5383.09c17.587,7.846 378.554,153.417 378.554,153.417l-271.496,-552.338c0,0 -119.141,299.908 -130.321,329.138c-11.558,30.229 -1.741,58.629 23.263,69.783Z" style="fill:#77d365;"/></g><g><path d="M3697.65,4976.8c25.321,63.759 114.342,287.984 123.938,313.079c25.708,67.225 -2.171,128.242 -57.771,153.05c-6.479,2.892 -58.996,24.267 -123.175,50.275c23.162,55.159 42.816,102.171 48.541,116.446c10.742,26.788 14.884,53.017 9.855,81.15c-4.471,24.988 -16.509,52.679 -43.788,83.784c-26.629,30.366 -251.071,248.229 -251.071,248.229c-12.466,12.091 -28.912,18.487 -45.625,18.491l0,-504.812l271.496,-552.338l67.6,-7.354Z" style="fill:#336b39;fill-opacity:0.25;"/><path d="M3605.97,5731.38c-26.233,29.912 -247.421,244.391 -247.421,244.391l0,-439.266l123.425,-251.096c0,-0 130.058,307.971 146.371,348.654c11.996,29.904 11.908,58.225 -22.375,97.317Z" style="fill:#77d365;"/><path d="M3358.55,5536.51l123.425,-251.096c0,-0 53.404,126.462 96.063,228.016l-219.488,23.08Z" style="fill:#70c760;"/><path d="M3737.11,5383.09c-17.587,7.846 -378.554,153.417 -378.554,153.417l271.496,-552.338c0,0 119.142,299.908 130.321,329.138c11.558,30.229 1.742,58.629 -23.263,69.783Z" style="fill:#77d365;"/></g></g></g></svg>