<?xml version="1.0" encoding="UTF-8" standalone="no"?>
<!DOCTYPE svg PUBLIC "-//W3C//DTD SVG 1.1//EN" "http://www.w3.org/Graphics/SVG/1.1/DTD/svg11.dtd">
<svg width="100%" height="100%" viewBox="0 0 300 345" version="1.1" xmlns="http://www.w3.org/2000/svg" xmlns:xlink="http://www.w3.org/1999/xlink" xml:space="preserve" xmlns:serif="http://www.serif.com/" style="fill-rule:evenodd;clip-rule:evenodd;stroke-linejoin:round;stroke-miterlimit:2;">
    <g id="Snowman-2" serif:id="Snowman 2">
        <g id="Snowman">
            <g>
                <path id="base_body_2" d="M0,262.01C0,282.089 16.301,298.39 36.38,298.39L263.62,298.39C283.699,298.39 300,282.089 300,262.01L300,308.62C300,328.577 283.577,345 263.62,345L36.38,345C16.423,345 0,328.577 0,308.62L0,262.01Z" style="fill:url(#_Linear1);fill-rule:nonzero;"/>
                <path d="M0,262.01C0,282.089 16.301,298.39 36.38,298.39L263.62,298.39C283.699,298.39 300,282.089 300,262.01L300,308.62C300,328.577 283.577,345 263.62,345L36.38,345C16.423,345 0,328.577 0,308.62L0,262.01ZM297,282.902C290.033,294.003 277.682,301.39 263.62,301.39L36.38,301.39C22.318,301.39 9.967,294.003 3,282.902L3,308.62C3,326.932 18.068,342 36.38,342L263.62,342C281.932,342 297,326.932 297,308.62L297,282.902Z" style="fill:#98c1e8;"/>
                <g transform="matrix(1.72246,0,0,1.72246,-110.19,-251.668)">
                    <g transform="matrix(1.04519,0,0,0.831075,-5.68075,59.6834)">
                        <rect x="142.548" y="312.44" width="14.193" height="32.56" style="fill:#86aed4;"/>
                    </g>
                    <g transform="matrix(0.580565,0,0,0.580565,63.6414,146.11)">
                        <path d="M142.047,345L158.262,345L158.262,302.386C158.262,301.58 157.608,300.927 156.803,300.927L143.506,300.927C142.701,300.927 142.047,301.58 142.047,302.386L142.047,345Z" style="fill:#828282;"/>
                    </g>
                    <g transform="matrix(1,0,0,1,-1.21793,1.21793)">
                        <g transform="matrix(0.965926,0.258819,-0.258819,0.965926,155.734,-33.4552)">
                            <g transform="matrix(0.967365,-0.253389,0.253389,0.967365,-98.2279,67.1838)">
                                <path d="M111.522,314.314L111.522,314.212C111.522,313.727 111.916,313.333 112.402,313.333L114.161,313.333C114.647,313.333 115.041,313.727 115.041,314.212L115.041,316.647C115.041,317.133 114.647,317.527 114.161,317.527L112.402,317.527C111.916,317.527 111.522,317.133 111.522,316.647L111.522,316.545L111.071,316.545C110.779,316.848 110.369,317.036 109.916,317.036C109.029,317.036 108.309,316.316 108.309,315.43C108.309,314.543 109.029,313.823 109.916,313.823C110.369,313.823 110.779,314.011 111.071,314.314L111.522,314.314Z" style="fill:#747474;"/>
                            </g>
                            <g transform="matrix(0.967365,-0.253389,0.253389,0.967365,-98.3232,66.8198)">
                                <path d="M111.522,314.314L111.522,314.212C111.522,313.727 111.916,313.333 112.402,313.333L114.161,313.333C114.647,313.333 115.041,313.727 115.041,314.212L115.041,316.647C115.041,317.133 114.647,317.527 114.161,317.527L112.402,317.527C111.916,317.527 111.522,317.133 111.522,316.647L111.522,316.545L111.071,316.545C110.779,316.848 110.369,317.036 109.916,317.036C109.029,317.036 108.309,316.316 108.309,315.43C108.309,314.543 109.029,313.823 109.916,313.823C110.369,313.823 110.779,314.011 111.071,314.314L111.522,314.314Z" style="fill:#929292;"/>
                            </g>
                        </g>
                        <g transform="matrix(-0.965926,0.258819,0.258819,0.965926,148.334,-30.4159)">
                            <g transform="matrix(0.967365,-0.253389,0.253389,0.967365,-98.2279,67.1838)">
                                <path d="M111.522,314.314L111.522,314.212C111.522,313.727 111.916,313.333 112.402,313.333L114.161,313.333C114.647,313.333 115.041,313.727 115.041,314.212L115.041,316.647C115.041,317.133 114.647,317.527 114.161,317.527L112.402,317.527C111.916,317.527 111.522,317.133 111.522,316.647L111.522,316.545L111.071,316.545C110.779,316.848 110.369,317.036 109.916,317.036C109.029,317.036 108.309,316.316 108.309,315.43C108.309,314.543 109.029,313.823 109.916,313.823C110.369,313.823 110.779,314.011 111.071,314.314L111.522,314.314Z" style="fill:#747474;"/>
                            </g>
                            <g transform="matrix(0.967365,-0.253389,0.253389,0.967365,-98.3232,66.8198)">
                                <path d="M111.522,314.314L111.522,314.212C111.522,313.727 111.916,313.333 112.402,313.333L114.161,313.333C114.647,313.333 115.041,313.727 115.041,314.212L115.041,316.647C115.041,317.133 114.647,317.527 114.161,317.527L112.402,317.527C111.916,317.527 111.522,317.133 111.522,316.647L111.522,316.545L111.071,316.545C110.779,316.848 110.369,317.036 109.916,317.036C109.029,317.036 108.309,316.316 108.309,315.43C108.309,314.543 109.029,313.823 109.916,313.823C110.369,313.823 110.779,314.011 111.071,314.314L111.522,314.314Z" style="fill:#929292;"/>
                            </g>
                        </g>
                        <g transform="matrix(0.965926,0.258819,-0.258819,0.965926,155.734,-27.3779)">
                            <g transform="matrix(0.967365,-0.253389,0.253389,0.967365,-98.2279,67.1838)">
                                <path d="M111.522,314.314L111.522,314.212C111.522,313.727 111.916,313.333 112.402,313.333L114.161,313.333C114.647,313.333 115.041,313.727 115.041,314.212L115.041,316.647C115.041,317.133 114.647,317.527 114.161,317.527L112.402,317.527C111.916,317.527 111.522,317.133 111.522,316.647L111.522,316.545L111.071,316.545C110.779,316.848 110.369,317.036 109.916,317.036C109.029,317.036 108.309,316.316 108.309,315.43C108.309,314.543 109.029,313.823 109.916,313.823C110.369,313.823 110.779,314.011 111.071,314.314L111.522,314.314Z" style="fill:#747474;"/>
                            </g>
                            <g transform="matrix(0.967365,-0.253389,0.253389,0.967365,-98.3232,66.8198)">
                                <path d="M111.522,314.314L111.522,314.212C111.522,313.727 111.916,313.333 112.402,313.333L114.161,313.333C114.647,313.333 115.041,313.727 115.041,314.212L115.041,316.647C115.041,317.133 114.647,317.527 114.161,317.527L112.402,317.527C111.916,317.527 111.522,317.133 111.522,316.647L111.522,316.545L111.071,316.545C110.779,316.848 110.369,317.036 109.916,317.036C109.029,317.036 108.309,316.316 108.309,315.43C108.309,314.543 109.029,313.823 109.916,313.823C110.369,313.823 110.779,314.011 111.071,314.314L111.522,314.314Z" style="fill:#929292;"/>
                            </g>
                        </g>
                        <g transform="matrix(-0.965926,0.258819,0.258819,0.965926,148.334,-24.3386)">
                            <g transform="matrix(0.967365,-0.253389,0.253389,0.967365,-98.2279,67.1838)">
                                <path d="M111.522,314.314L111.522,314.212C111.522,313.727 111.916,313.333 112.402,313.333L114.161,313.333C114.647,313.333 115.041,313.727 115.041,314.212L115.041,316.647C115.041,317.133 114.647,317.527 114.161,317.527L112.402,317.527C111.916,317.527 111.522,317.133 111.522,316.647L111.522,316.545L111.071,316.545C110.779,316.848 110.369,317.036 109.916,317.036C109.029,317.036 108.309,316.316 108.309,315.43C108.309,314.543 109.029,313.823 109.916,313.823C110.369,313.823 110.779,314.011 111.071,314.314L111.522,314.314Z" style="fill:#747474;"/>
                            </g>
                            <g transform="matrix(0.967365,-0.253389,0.253389,0.967365,-98.3232,66.8198)">
                                <path d="M111.522,314.314L111.522,314.212C111.522,313.727 111.916,313.333 112.402,313.333L114.161,313.333C114.647,313.333 115.041,313.727 115.041,314.212L115.041,316.647C115.041,317.133 114.647,317.527 114.161,317.527L112.402,317.527C111.916,317.527 111.522,317.133 111.522,316.647L111.522,316.545L111.071,316.545C110.779,316.848 110.369,317.036 109.916,317.036C109.029,317.036 108.309,316.316 108.309,315.43C108.309,314.543 109.029,313.823 109.916,313.823C110.369,313.823 110.779,314.011 111.071,314.314L111.522,314.314Z" style="fill:#929292;"/>
                            </g>
                        </g>
                        <g transform="matrix(0.965926,0.258819,-0.258819,0.965926,155.734,-21.2856)">
                            <g transform="matrix(0.967365,-0.253389,0.253389,0.967365,-98.2279,67.1838)">
                                <path d="M111.522,314.314L111.522,314.212C111.522,313.727 111.916,313.333 112.402,313.333L114.161,313.333C114.647,313.333 115.041,313.727 115.041,314.212L115.041,316.647C115.041,317.133 114.647,317.527 114.161,317.527L112.402,317.527C111.916,317.527 111.522,317.133 111.522,316.647L111.522,316.545L111.071,316.545C110.779,316.848 110.369,317.036 109.916,317.036C109.029,317.036 108.309,316.316 108.309,315.43C108.309,314.543 109.029,313.823 109.916,313.823C110.369,313.823 110.779,314.011 111.071,314.314L111.522,314.314Z" style="fill:#747474;"/>
                            </g>
                            <g transform="matrix(0.967365,-0.253389,0.253389,0.967365,-98.3232,66.8198)">
                                <path d="M111.522,314.314L111.522,314.212C111.522,313.727 111.916,313.333 112.402,313.333L114.161,313.333C114.647,313.333 115.041,313.727 115.041,314.212L115.041,316.647C115.041,317.133 114.647,317.527 114.161,317.527L112.402,317.527C111.916,317.527 111.522,317.133 111.522,316.647L111.522,316.545L111.071,316.545C110.779,316.848 110.369,317.036 109.916,317.036C109.029,317.036 108.309,316.316 108.309,315.43C108.309,314.543 109.029,313.823 109.916,313.823C110.369,313.823 110.779,314.011 111.071,314.314L111.522,314.314Z" style="fill:#929292;"/>
                            </g>
                        </g>
                        <g transform="matrix(-0.965926,0.258819,0.258819,0.965926,148.334,-18.2462)">
                            <g transform="matrix(0.967365,-0.253389,0.253389,0.967365,-98.2279,67.1838)">
                                <path d="M111.522,314.314L111.522,314.212C111.522,313.727 111.916,313.333 112.402,313.333L114.161,313.333C114.647,313.333 115.041,313.727 115.041,314.212L115.041,316.647C115.041,317.133 114.647,317.527 114.161,317.527L112.402,317.527C111.916,317.527 111.522,317.133 111.522,316.647L111.522,316.545L111.071,316.545C110.779,316.848 110.369,317.036 109.916,317.036C109.029,317.036 108.309,316.316 108.309,315.43C108.309,314.543 109.029,313.823 109.916,313.823C110.369,313.823 110.779,314.011 111.071,314.314L111.522,314.314Z" style="fill:#747474;"/>
                            </g>
                            <g transform="matrix(0.967365,-0.253389,0.253389,0.967365,-98.3232,66.8198)">
                                <path d="M111.522,314.314L111.522,314.212C111.522,313.727 111.916,313.333 112.402,313.333L114.161,313.333C114.647,313.333 115.041,313.727 115.041,314.212L115.041,316.647C115.041,317.133 114.647,317.527 114.161,317.527L112.402,317.527C111.916,317.527 111.522,317.133 111.522,316.647L111.522,316.545L111.071,316.545C110.779,316.848 110.369,317.036 109.916,317.036C109.029,317.036 108.309,316.316 108.309,315.43C108.309,314.543 109.029,313.823 109.916,313.823C110.369,313.823 110.779,314.011 111.071,314.314L111.522,314.314Z" style="fill:#929292;"/>
                            </g>
                        </g>
                        <g transform="matrix(0.965926,0.258819,-0.258819,0.965926,155.734,-15.1963)">
                            <g transform="matrix(0.967365,-0.253389,0.253389,0.967365,-98.2279,67.1838)">
                                <path d="M111.522,314.314L111.522,314.212C111.522,313.727 111.916,313.333 112.402,313.333L114.161,313.333C114.647,313.333 115.041,313.727 115.041,314.212L115.041,316.647C115.041,317.133 114.647,317.527 114.161,317.527L112.402,317.527C111.916,317.527 111.522,317.133 111.522,316.647L111.522,316.545L111.071,316.545C110.779,316.848 110.369,317.036 109.916,317.036C109.029,317.036 108.309,316.316 108.309,315.43C108.309,314.543 109.029,313.823 109.916,313.823C110.369,313.823 110.779,314.011 111.071,314.314L111.522,314.314Z" style="fill:#747474;"/>
                            </g>
                            <g transform="matrix(0.967365,-0.253389,0.253389,0.967365,-98.3232,66.8198)">
                                <path d="M111.522,314.314L111.522,314.212C111.522,313.727 111.916,313.333 112.402,313.333L114.161,313.333C114.647,313.333 115.041,313.727 115.041,314.212L115.041,316.647C115.041,317.133 114.647,317.527 114.161,317.527L112.402,317.527C111.916,317.527 111.522,317.133 111.522,316.647L111.522,316.545L111.071,316.545C110.779,316.848 110.369,317.036 109.916,317.036C109.029,317.036 108.309,316.316 108.309,315.43C108.309,314.543 109.029,313.823 109.916,313.823C110.369,313.823 110.779,314.011 111.071,314.314L111.522,314.314Z" style="fill:#929292;"/>
                            </g>
                        </g>
                        <g transform="matrix(-0.965926,0.258819,0.258819,0.965926,148.334,-12.1569)">
                            <g transform="matrix(-0.560782,0.150261,0.150261,0.560782,121.277,130.093)">
                                <path d="M142.463,345L147.73,345C147.983,344.727 148.137,344.362 148.135,343.961L148.134,343.786L148.911,343.781C149.417,344.299 150.125,344.62 150.906,344.615C152.433,344.607 153.666,343.36 153.657,341.833C153.649,340.306 152.402,339.073 150.875,339.081C150.094,339.086 149.39,339.414 148.889,339.938L148.112,339.942L148.111,339.767C148.107,338.931 147.424,338.255 146.588,338.26L143.557,338.277C142.721,338.282 142.046,338.965 142.05,339.801L142.074,343.995C142.076,344.381 142.223,344.734 142.463,345Z" style="fill:#747474;"/>
                            </g>
                            <g transform="matrix(0.967365,-0.253389,0.253389,0.967365,-98.3232,66.8198)">
                                <path d="M111.522,314.314L111.522,314.212C111.522,313.727 111.916,313.333 112.402,313.333L114.161,313.333C114.647,313.333 115.041,313.727 115.041,314.212L115.041,316.647C115.041,317.133 114.647,317.527 114.161,317.527L112.402,317.527C111.916,317.527 111.522,317.133 111.522,316.647L111.522,316.545L111.071,316.545C110.779,316.848 110.369,317.036 109.916,317.036C109.029,317.036 108.309,316.316 108.309,315.43C108.309,314.543 109.029,313.823 109.916,313.823C110.369,313.823 110.779,314.011 111.071,314.314L111.522,314.314Z" style="fill:#929292;"/>
                            </g>
                        </g>
                    </g>
                    <path d="M146.109,327.722L146.109,328.583C145.739,328.596 145.444,328.9 145.444,329.272L145.444,331.723C145.444,332.103 145.752,332.412 146.133,332.412L155.629,332.412C156.009,332.412 156.318,332.103 156.318,331.723L156.318,329.272C156.318,328.933 156.073,328.651 155.75,328.594L155.75,327.711C156.073,327.653 156.318,327.371 156.318,327.031L156.318,324.496C156.264,321.236 145.384,321.053 145.444,324.496L145.444,327.031C145.444,327.404 145.739,327.708 146.109,327.722Z" style="fill:#b3b3b3;"/>
                    <g transform="matrix(0.951092,-0.308909,0.308909,0.951092,-94.6396,63.2486)">
                        <g transform="matrix(1,0,0,1,0,2.58729)">
                            <path d="M154.357,326.783C154.357,325.81 153.568,325.021 152.595,325.021L149.072,325.021C148.099,325.021 147.31,325.81 147.31,326.783L147.31,336.483C147.31,337.456 148.099,338.245 149.072,338.245L152.595,338.245C153.568,338.245 154.357,337.456 154.357,336.483L154.357,326.783ZM150.881,325.774C151.94,325.774 152.8,326.634 152.8,327.693C152.8,328.753 151.94,329.612 150.881,329.612C149.821,329.612 148.961,328.753 148.961,327.693C148.961,326.634 149.821,325.774 150.881,325.774Z" style="fill:#e4e4e4;"/>
                        </g>
                        <path d="M155.014,334.435C155.014,334.114 154.753,333.853 154.432,333.853L147.408,333.853C147.087,333.853 146.826,334.114 146.826,334.435L146.826,340.947C146.826,341.268 147.087,341.529 147.408,341.529L154.432,341.529C154.753,341.529 155.014,341.268 155.014,340.947L155.014,334.435Z" style="fill:#2b2b2b;"/>
                        <g transform="matrix(0.83904,0,0,0.48473,24.2921,175.362)">
                            <path d="M155.014,334.435C155.014,334.114 154.863,333.853 154.678,333.853L147.162,333.853C146.977,333.853 146.826,334.114 146.826,334.435L146.826,340.947C146.826,341.268 146.977,341.529 147.162,341.529L154.678,341.529C154.863,341.529 155.014,341.268 155.014,340.947L155.014,334.435Z"/>
                        </g>
                    </g>
                    <path d="M152.153,323.301C152.153,322.932 151.854,322.632 151.485,322.632L150.147,322.632C149.778,322.632 149.478,322.932 149.478,323.301L149.478,330.834C149.478,331.203 149.778,331.503 150.147,331.503L151.485,331.503C151.854,331.503 152.153,331.203 152.153,330.834L152.153,323.301Z" style="fill:#d5d5d5;"/>
                    <g transform="matrix(0.580565,0,0,0.580565,63.9725,146.11)">
                        <path d="M165.655,306.92L165.655,298.39L133.733,298.39L133.733,306.92C133.733,308.489 135.007,309.763 136.577,309.763L162.812,309.763C164.381,309.763 165.655,308.489 165.655,306.92Z" style="fill:#b4d1f5;"/>
                    </g>
                    <g transform="matrix(0.580565,0,0,0.580565,63.9725,146.11)">
                        <path d="M165.655,306.92C165.655,308.489 164.381,309.763 162.812,309.763L136.577,309.763C135.007,309.763 133.733,308.489 133.733,306.92L133.733,298.39L165.655,298.39L165.655,306.92ZM163.655,301.233C163.655,301.233 163.655,300.39 163.655,300.39L135.733,300.39L135.733,306.92C135.733,307.385 136.111,307.763 136.577,307.763L162.812,307.763C163.277,307.763 163.655,307.385 163.655,306.92L163.655,301.233Z" style="fill:#98c1e8;"/>
                    </g>
                </g>
            </g>
        </g>
    </g>
    <defs>
        <linearGradient id="_Linear1" x1="0" y1="0" x2="1" y2="0" gradientUnits="userSpaceOnUse" gradientTransform="matrix(2.85404e-15,46.61,-12.8939,7.89522e-16,150,298.39)"><stop offset="0" style="stop-color:#dae6f5;stop-opacity:1"/><stop offset="1" style="stop-color:#c3d9f0;stop-opacity:1"/></linearGradient>
    </defs>
</svg>
