<?xml version="1.0" encoding="UTF-8" standalone="no"?><!DOCTYPE svg PUBLIC "-//W3C//DTD SVG 1.1//EN" "http://www.w3.org/Graphics/SVG/1.1/DTD/svg11.dtd"><svg width="100%" height="100%" viewBox="0 0 300 345" version="1.1" xmlns="http://www.w3.org/2000/svg" xmlns:xlink="http://www.w3.org/1999/xlink" xml:space="preserve" xmlns:serif="http://www.serif.com/" style="fill-rule:evenodd;clip-rule:evenodd;stroke-linecap:round;stroke-linejoin:round;"><g id="Box"><g id="Box-Body" serif:id="Box Body"><g><path d="M53.056,279.834c0.675,8.458 -1.863,15.222 -6.836,19.028c-5.066,3.872 -12.432,4.503 -20.588,1.458c-0.052,-0.019 -0.103,-0.041 -0.152,-0.064c-7.475,-1.501 -14.507,-4.952 -18.349,-11.054c-0.537,-0.852 -1.012,-1.755 -1.42,-2.713c-1.09,-2.564 -2.53,-5.316 -4.296,-8.247c-3.291,-5.46 -7.701,-11.525 -13.099,-18.128c-0.769,-0.94 -1.159,-1.776 -1.301,-2.409l-0.08,-0.605l0.053,-0.685l0.389,-0.954l0.336,-0.415l0.396,-0.329l0.627,-0.321l0.606,-0.158c0.638,-0.104 1.564,-0.046 2.737,0.348c0.488,0.165 0.977,0.334 1.468,0.508c-0.881,-2.197 -1.452,-4.505 -1.648,-6.781c-0.262,-3.041 -0.269,-6.609 0.594,-9.628c0.658,-2.299 1.813,-4.291 3.61,-5.665c1.797,-1.374 4.023,-1.967 6.413,-1.999c3.139,-0.042 6.58,0.9 9.446,1.95c2.059,0.754 4.057,1.848 5.886,3.196c-0.031,-0.413 -0.059,-0.824 -0.083,-1.233c-0.075,-1.235 0.112,-2.144 0.379,-2.733l0.311,-0.543l0.475,-0.521l0.421,-0.296l0.488,-0.217l1.022,-0.125l0.675,0.128l0.563,0.235c0.574,0.303 1.279,0.898 1.986,1.886c4.961,6.937 9.661,12.78 14.071,17.384c2.366,2.471 4.646,4.581 6.835,6.304c0.818,0.643 1.566,1.339 2.248,2.08c5.038,5.47 6.466,13.481 5.817,21.318Z" style="fill:#467f26;"/><path d="M4.955,244.796c-8.063,6.168 -5.632,22.909 5.424,37.36c11.056,14.451 26.579,21.175 34.642,15.006c8.062,-6.168 5.632,-22.909 -5.424,-37.36c-11.057,-14.451 -26.579,-21.175 -34.642,-15.006Z" style="fill:#49921f;"/><path d="M-2.649,234.651c3.629,-2.775 9.497,-1.367 13.904,0.248c4.349,1.592 8.39,4.847 10.928,8.782c6.608,10.244 9.018,35.223 9.018,35.223c0,0 -23.48,-8.858 -31.639,-17.916c-3.135,-3.481 -5.219,-8.236 -5.617,-12.852c-0.404,-4.677 -0.225,-10.71 3.406,-13.485Z" style="fill:#6eb436;"/><path d="M2.39,241.444c-8.062,6.168 -5.863,22.607 4.908,36.686c10.772,14.079 26.063,20.501 34.126,14.332c8.063,-6.169 5.864,-22.607 -4.908,-36.686c-10.772,-14.079 -26.063,-20.501 -34.126,-14.332Z" style="fill:#ecca06;"/><path d="M2.39,241.444c2.314,-1.768 5.329,-2.552 8.795,-2.287c1.549,0.977 2.918,2.229 4.038,3.692c4.953,6.472 3.956,15.68 -2.208,20.397c-3.651,2.79 -8.51,3.545 -13.008,2.02c-4.011,-10.414 -3.089,-19.634 2.383,-23.822Z" style="fill:#ffe73a;"/><path d="M32.852,251.808c1.649,1.614 3.203,3.37 4.632,5.233c7.737,10.117 10.85,22.148 7.766,30.019l-10.041,7.682c-8.403,0.918 -19.201,-5.233 -26.943,-15.347c-1.311,-1.715 -2.508,-3.508 -3.571,-5.351c13.212,-3.209 22.429,-10.806 28.157,-22.236Z" style="fill:#c17c05;fill-rule:nonzero;"/><path d="M32.353,281.652c-2.226,1.801 -4.73,3.353 -7.688,4.438c1.129,2.481 2.609,4.85 5.533,6.696c0.692,0.437 1.535,1.193 2.316,1.958c-0.98,-0.082 -1.991,-0.246 -3.026,-0.493c-0.965,-1.073 -2.057,-2.053 -3.072,-2.626c-1.497,-0.847 -1.854,-3.534 -2.837,-4.483c-0.179,-0.173 -0.354,-0.347 -0.525,-0.522c-0.853,0.249 -1.742,0.461 -2.671,0.63l-0.58,-3.178c0.321,-0.059 0.637,-0.123 0.948,-0.193c-1.506,-2.067 -2.654,-4.244 -3.747,-6.431c-0.454,0.26 -0.914,0.516 -1.381,0.768l-1.533,-2.85c0.477,-0.256 0.946,-0.518 1.409,-0.786c-1.832,-3.183 -4.099,-6.099 -6.528,-8.912c-1.231,1.32 -2.397,2.719 -3.495,4.207l-2.601,-1.92c1.237,-1.676 2.554,-3.244 3.944,-4.716c-2.033,-2.247 -4.12,-4.457 -6.117,-6.717c-0.541,0.871 -1.034,1.768 -1.482,2.69l-1.141,-0.554c-0.217,-1.122 -0.37,-2.221 -0.459,-3.289c0.279,-0.466 0.57,-0.926 0.873,-1.379c-0.295,-0.297 -0.62,-0.584 -0.962,-0.864c0.006,-1.552 0.164,-3.015 0.47,-4.369c0.488,1.273 0.952,2.601 1.597,3.685c1.598,-2.101 3.49,-4.043 5.696,-5.809c0.019,-0.015 0.039,-0.031 0.059,-0.047c-1.471,-2.474 -3.64,-4.674 -4.361,-4.122l2.751,-2.105c0,0 2.218,3.303 2.845,5.285c2.22,-1.62 4.729,-3.076 7.544,-4.351c-0.278,-0.202 -0.572,-0.398 -0.883,-0.587c-0.576,-0.349 -1.256,-0.925 -1.911,-1.539c0.973,0.082 1.977,0.246 3.005,0.491c0.363,0.376 0.74,0.733 1.122,1.055c0.341,-0.143 0.687,-0.284 1.037,-0.422c1.436,0.481 2.9,1.107 4.373,1.87c-0.948,0.306 -1.863,0.627 -2.746,0.964c0.543,1.045 0.878,2.315 1.481,2.888c1.623,1.543 2.869,3.211 3.925,4.939c1.388,-0.724 2.8,-1.411 4.233,-2.068l1.346,2.939c-1.363,0.624 -2.702,1.275 -4.013,1.957c0.382,0.75 0.748,1.504 1.113,2.258c1.255,2.595 2.841,4.985 4.607,7.261c1.11,-0.885 2.229,-1.761 3.37,-2.618l1.938,2.584c-1.095,0.822 -2.178,1.673 -3.262,2.54c1.61,1.888 3.311,3.717 5.01,5.545c0.822,-0.951 1.654,-1.911 2.513,-2.865l2.402,2.164c-0.905,1.003 -1.799,2.044 -2.705,3.095c1.002,1.097 1.987,2.202 2.937,3.329c0.827,0.981 2.047,1.812 3.242,2.646c0.087,2.28 -0.136,4.386 -0.664,6.259c-1.72,-1.753 -2.11,-5.452 -3.706,-7.562c-0.902,-1.193 -1.878,-2.324 -2.884,-3.432c-1.683,1.929 -3.438,3.853 -5.402,5.599c0.611,0.922 1.245,1.828 1.923,2.703c2.055,2.656 7.096,4.106 6.767,7.468c-0.112,1.142 -1.62,2.298 -2.751,2.105c-3.458,-0.592 -3.622,-5.969 -5.609,-8.837c-0.539,-0.779 -1.067,-1.571 -1.587,-2.37Zm-25.68,-32.007c-1.974,1.665 -3.636,3.487 -5.027,5.454c2.024,2.388 4.245,4.615 6.309,6.974c1.626,-1.618 3.341,-3.113 5.133,-4.502c-1.108,-1.261 -2.129,-2.654 -3.002,-4.271c-0.612,-1.132 -3,-2.08 -3.413,-3.655Zm8.683,10.256c-1.867,1.428 -3.64,2.97 -5.307,4.647c2.468,2.943 4.937,5.89 7.297,8.919c2.324,-1.46 4.496,-3.042 6.605,-4.674c-1.766,-2.357 -3.693,-4.566 -5.917,-6.497c-0.902,-0.782 -1.802,-1.569 -2.678,-2.395Zm10.479,11.537c-2.057,1.589 -4.206,3.15 -6.519,4.615c0.571,0.767 1.132,1.54 1.684,2.322c1.045,1.48 1.749,3.095 2.418,4.732c2.767,-0.991 5.091,-2.453 7.188,-4.199c-1.569,-2.505 -3.115,-5.037 -4.771,-7.47Zm6.017,6.379c1.737,-1.598 3.338,-3.378 4.943,-5.221c-1.122,-1.198 -2.241,-2.4 -3.296,-3.654c-0.61,-0.725 -1.22,-1.448 -1.83,-2.173c-1.517,1.227 -3.046,2.478 -4.62,3.721c0.511,0.738 1.022,1.476 1.534,2.213c1.153,1.66 2.203,3.393 3.269,5.114Zm-6.662,-9.994c1.48,-1.169 2.936,-2.357 4.399,-3.536c-2.461,-2.957 -4.875,-5.953 -7.116,-9.076c-1.575,0.898 -3.106,1.849 -4.586,2.861c2.582,3.134 4.969,6.424 7.303,9.751Zm-9.609,-12.085c1.675,-1.168 3.407,-2.256 5.186,-3.274c-1.419,-2.871 -2.111,-6.053 -4.148,-8.737c-3.391,1.417 -6.283,3.073 -8.738,4.948c1.947,3.241 5.062,4.853 7.7,7.063Z" style="fill:#ac6b03;fill-opacity:0.5;"/><path d="M19.774,241.623c5.974,2.838 11.938,7.88 16.742,14.153c8.551,11.184 11.938,24.342 8.314,32.294c-1.565,-4.545 -4.094,-9.09 -9.698,-13.625c-10.072,-8.151 -14.183,-20.786 -15.358,-32.822Z" style="fill:#6e2900;fill-opacity:0.33;fill-rule:nonzero;"/><path d="M24.917,291.596c8.915,-2.193 15.508,-7.309 20.064,-14.988c1.913,8.069 0.936,14.121 -2.733,16.931c-3.72,2.841 -9.926,2.145 -17.331,-1.943Z" style="fill:#6e2900;fill-opacity:0.34;fill-rule:nonzero;"/><path d="M19.814,234.811c0.804,13.342 4.85,28.892 16.512,38.721c7.607,6.411 9.632,12.591 11.379,18.756l0.674,-0.515c3.761,-10.569 4.957,-26.159 -4.657,-33.723c-6.392,-5.029 -13.536,-13.242 -21.308,-24.107c-1.542,-2.156 -2.759,-1.778 -2.6,0.868Z" style="fill:#61a82e;fill-rule:nonzero;"/><path d="M25.764,259.615c5.743,-0.025 11.312,-0.192 10.909,-8.063c2.44,2.547 4.791,4.721 7.049,6.497c9.614,7.564 8.417,23.155 4.657,33.724l-0.674,0.515c-1.747,-6.166 -3.773,-12.345 -11.379,-18.756c-4.631,-3.902 -8.059,-8.707 -10.562,-13.917l0,0Z" style="fill:#61a82e;fill-rule:nonzero;"/><path d="M45.728,259.907c7.41,8.046 6.126,22.099 2.651,31.866l-0.674,0.515c-1.747,-6.166 -3.773,-12.345 -11.379,-18.756c-1.318,-1.111 -2.537,-2.296 -3.667,-3.542c6.385,-0.797 11.939,-2.596 13.069,-10.083l-0,-0Z" style="fill:#49921f;fill-rule:nonzero;"/><path d="M-2.428,258.609c1.177,6.509 4.484,13.583 9.283,19.861c8.558,11.178 20.372,17.889 28.995,16.47c-3.978,-2.699 -7.702,-6.329 -10.614,-12.923c-5.233,-11.854 -16.353,-19.127 -27.664,-23.408Z" style="fill:#6e2900;fill-opacity:0.33;fill-rule:nonzero;"/><g><path id="path61478" d="M-8.576,256.532c12.667,4.265 26.618,12.238 33.055,26.065c4.198,9.018 9.633,12.589 15.127,15.888l-0.674,0.516c-11.184,0.865 -26.545,-2.057 -31.331,-13.315c-3.182,-7.486 -9.241,-16.529 -17.695,-26.871c-1.678,-2.052 -0.994,-3.128 1.518,-2.283Z" style="fill:#61a82e;fill-rule:nonzero;"/><path id="path61480" d="M13.809,268.762c-1.527,5.536 -3.144,10.868 -10.636,8.421c1.821,3.02 3.304,5.859 4.428,8.502c4.786,11.258 20.147,14.18 31.332,13.315l0.673,-0.515c-5.495,-3.299 -10.929,-6.871 -15.127,-15.889c-2.555,-5.49 -6.297,-10.055 -10.67,-13.834l-0,0Z" style="fill:#61a82e;fill-rule:nonzero;"/><path id="path61482" d="M8.869,288.107c5.828,9.257 19.728,11.693 30.064,10.893l0.673,-0.515c-5.495,-3.299 -10.929,-6.871 -15.127,-15.889c-0.727,-1.563 -1.553,-3.049 -2.46,-4.465c-2.439,5.954 -5.628,10.844 -13.15,9.976l0,0Z" style="fill:#49921f;fill-rule:nonzero;"/></g><path d="M25.772,292.713c8.915,-2.193 15.508,-7.309 20.064,-14.988c1.913,8.069 0.936,14.122 -2.733,16.932c-3.72,2.841 -9.926,2.145 -17.331,-1.944Z" style="fill:#49921f;fill-rule:nonzero;stroke:#49921f;stroke-width:0.94px;"/><path d="M26.35,298.397c10.152,-3.785 18.285,-10.069 24.647,-18.545c0.649,7.706 -1.504,13.919 -6.024,17.379c-4.581,3.501 -11.25,3.918 -18.623,1.166l0,-0Z" style="fill:#376e17;fill-rule:nonzero;"/></g><g><path d="M276.952,247.313c-0,0 13.447,16.711 15.888,17.606l0.013,0.005c3.033,1.4 7.667,3.188 10.704,3.07c2.758,-0.106 5.907,-0.681 8.125,-1.91c1.797,-0.995 3.018,-2.416 3.321,-4.242c0.322,-1.951 -0.545,-3.791 -2.121,-5.342c0.423,-0.306 0.804,-0.63 1.132,-0.97c1.82,-1.891 3.569,-4.367 4.49,-6.987c1.002,-2.851 1.04,-5.863 -0.632,-8.578c-2.096,-3.402 -5.867,-4.599 -9.718,-4.541c0.786,-2.144 1.108,-4.227 0.74,-6.054c-1.032,-5.12 -5.563,-7.623 -12.301,-9.71c-6.741,-2.087 -14.071,-0.1 -17.565,4.871c-0.885,1.259 -1.393,2.907 -1.594,4.761c-0.016,0.005 -0.032,0.01 -0.049,0.016c-1.527,0.498 -2.593,1.723 -3.211,3.394c-0.737,1.994 -0.818,4.676 -0.556,6.974c0.264,2.32 3.334,7.637 3.334,7.637Z" style="fill:#488922;"/><path d="M296.141,221.121c6.077,1.882 10.323,3.933 11.253,8.551c1.568,7.782 -11.903,20.628 -11.903,20.628l-9.75,8.83l-3.773,-13.018c0,0 -5.67,-15.038 -1.689,-20.702c3.15,-4.481 9.785,-6.17 15.862,-4.289Z" style="fill:#4fa41d;fill-rule:nonzero;"/><path d="M307.244,233.201c0.294,-1.243 0.371,-2.436 0.15,-3.529c-0.93,-4.618 -5.176,-6.669 -11.253,-8.551c-6.077,-1.881 -12.712,-0.192 -15.862,4.289c-0.9,1.282 -1.307,3.043 -1.397,5.002c0.223,-1.043 0.584,-1.976 1.12,-2.738c3.15,-4.481 9.785,-6.171 15.862,-4.289c6.077,1.881 10.323,3.933 11.253,8.551c0.083,0.409 0.124,0.831 0.127,1.265Z" style="fill:#52bd15;"/><path d="M294.666,228.549c4.136,0.697 6.949,1.706 7.128,4.885c0.301,5.355 -10.654,15.881 -10.654,15.881l-7.881,7.288l-1.324,-8.838c0,-0 -2.465,-10.072 0.969,-14.508c2.717,-3.51 7.626,-5.405 11.762,-4.708l0,0Z" style="fill:#49921f;fill-rule:nonzero;"/><path d="M316.57,240.768c-2.832,-4.599 -9.26,-4.328 -13.882,-2.899c-4.995,1.544 -11.014,11.174 -11.014,11.174l-5.618,10.518l11.921,-0.285c-0,0 11.308,-1.041 14.935,-4.807c3.356,-3.485 6.49,-9.103 3.658,-13.701Z" style="fill:#4fa41d;fill-rule:nonzero;"/><path d="M307.903,247.921c-1.962,-3.163 -6.361,-3.011 -9.518,-2.056c-3.412,1.032 -7.483,7.596 -7.483,7.596l-3.792,7.173l8.159,-0.134c0,0 7.737,-0.655 10.2,-3.215c2.28,-2.369 4.397,-6.201 2.434,-9.364Z" style="fill:#49921f;fill-rule:nonzero;"/><path d="M313.494,261.593c0.568,-3.438 -3.99,-6.164 -7.942,-7.539c-4.271,-1.486 -13.662,0.409 -13.662,0.409l-9.602,2.493l8.336,5.158c-0,-0 8.328,4.528 12.874,4.352c4.206,-0.162 9.427,-1.435 9.996,-4.873l-0,-0Z" style="fill:#4fa41d;fill-rule:nonzero;"/><path d="M304.224,261.13c0.38,-2.301 -2.67,-4.125 -5.315,-5.045c-2.858,-0.995 -9.143,0.273 -9.143,0.273l-6.426,1.668l5.578,3.453c0,-0 5.574,3.03 8.617,2.912c2.815,-0.109 6.308,-0.96 6.689,-3.261l0,-0Z" style="fill:#49921f;fill-rule:nonzero;"/><path d="M277.86,230.762c2.728,-0.892 5.514,2.479 7.124,5.524c1.741,3.292 1.369,11.171 1.369,11.171l-0.835,8.125l-5.236,-6.142c0,0 -4.721,-6.215 -5.144,-9.936c-0.392,-3.444 -0.01,-7.851 2.722,-8.742l0,-0Z" style="fill:#4fa41d;fill-rule:nonzero;"/><path d="M279.232,237.174c1.923,-0.628 3.888,1.749 5.024,3.897c1.228,2.321 0.965,7.879 0.965,7.879l-0.588,5.73l-3.693,-4.332c-0,0 -3.33,-4.383 -3.629,-7.008c-0.276,-2.429 -0.008,-5.537 1.92,-6.166l0.001,0Z" style="fill:#49921f;fill-rule:nonzero;"/><path d="M296.497,258.3c6.681,6.802 6.777,16.832 0.203,22.92c-0.943,0.975 -2.033,1.867 -3.275,2.653c-14.667,9.277 -35.091,19.221 -44.239,9.907c-0.023,-0.026 -0.046,-0.053 -0.068,-0.079c-0.023,-0.025 -0.046,-0.048 -0.081,-0.073c-9.148,-9.315 1.165,-29.556 10.705,-44.053c0.811,-1.233 1.728,-2.31 2.726,-3.238c6.206,-6.449 16.224,-6.168 22.9,0.63l0.725,0.739l9.678,9.855l0.726,0.739Z" style="fill:#f28b47;fill-rule:nonzero;"/><path d="M297.094,257.713l-0.725,-0.739l-9.679,-9.855l-0.725,-0.738c-7.02,-7.149 -17.552,-7.411 -24.07,-0.655c-1.043,0.971 -2.004,2.099 -2.853,3.389c-5.78,8.784 -11.827,19.663 -13.756,28.988c-1.337,6.464 -0.689,12.199 3.154,16.112l0.051,0.052l0.023,0.017c0.017,0.019 0.036,0.04 0.061,0.068l0.014,0.014c3.843,3.913 9.564,4.665 16.052,3.445c9.358,-1.76 20.345,-7.609 29.232,-13.23c1.293,-0.819 2.429,-1.748 3.403,-2.753c6.911,-6.408 6.847,-16.959 -0.182,-24.115Zm-12.564,-10.753l0.257,0.611l0.708,0.721l9.679,9.856l-0.24,-0.595l0.257,0.612l0.709,0.721c6.33,6.446 6.46,15.951 0.231,21.719l-0.017,0.016l-0.016,0.017c-0.898,0.929 -1.937,1.779 -3.12,2.527c-8.714,5.511 -19.472,11.275 -28.647,13c-5.859,1.102 -11.057,0.568 -14.533,-2.957c-0.019,-0.022 -0.037,-0.043 -0.056,-0.064l-0.218,-0.198l0.111,0.095c-3.476,-3.539 -3.919,-8.752 -2.709,-14.599c1.891,-9.142 7.848,-19.794 13.516,-28.407c0.772,-1.174 1.646,-2.201 2.596,-3.085l0.017,-0.015l0.016,-0.017c5.881,-6.111 15.373,-5.806 21.699,0.636l-0.24,-0.594Z" style="fill:#dd4b1f;"/><path d="M295.394,258.247c4.579,4.662 3.39,12.767 -2.728,18.523c-0.89,0.909 -1.889,1.769 -2.999,2.561c-40.826,30.226 -50.86,14.016 -23.085,-23.506c0.816,-1.1 1.697,-2.088 2.626,-2.964c5.865,-6.002 13.983,-7.039 18.559,-2.38l7.129,7.26l0.34,0.345l0.158,0.161Z" style="fill:#e3662f;fill-rule:nonzero;"/><path d="M260.042,247.45l-4.47,7.925c5.122,0.499 9.62,1.814 13.914,3.397c-2.142,-5.254 -5.094,-9.316 -9.444,-11.322Z" style="fill:#dd4b1f;fill-rule:nonzero;"/><path d="M292.436,284.663l-6.506,3.866c1.13,-6.667 -0.152,-12.156 -2.853,-16.951c3.702,1.21 9.748,9.409 9.359,13.085Z" style="fill:#dd4b1f;fill-rule:nonzero;"/><path d="M247.271,274.434l-1.17,4.194c0,0 4.435,-0.255 7.051,0.318l10.601,1.366l-9.829,-4.072c-2.076,-0.861 -6.652,-1.806 -6.652,-1.806l-0.001,-0Z" style="fill:#dd4b1f;fill-rule:nonzero;"/></g><g><path d="M93.866,268.214c0,-0 -9.373,19.292 -9.14,21.882l0,0.014c0.029,3.34 0.39,8.294 1.792,10.991c1.273,2.448 3.136,5.051 5.194,6.532c1.667,1.2 3.473,1.699 5.254,1.193c1.902,-0.541 3.196,-2.111 3.926,-4.198c0.457,0.253 0.913,0.458 1.361,0.61c2.486,0.839 5.472,1.364 8.235,1.079c3.006,-0.311 5.746,-1.562 7.487,-4.233c2.183,-3.347 1.655,-7.269 -0.04,-10.726c2.274,-0.204 4.295,-0.802 5.79,-1.915c4.191,-3.118 4.521,-8.284 3.532,-15.268c-0.989,-6.987 -5.914,-12.768 -11.901,-13.807c-1.516,-0.263 -3.224,-0.018 -4.986,0.591c-0.012,-0.012 -0.023,-0.025 -0.035,-0.037c-1.103,-1.169 -2.666,-1.611 -4.44,-1.456c-2.118,0.184 -4.578,1.256 -6.545,2.474c-1.986,1.228 -5.484,6.274 -5.484,6.274Z" style="fill:#488922;"/><path d="M125.743,274.39c0.891,6.298 0.849,11.014 -2.931,13.826c-6.369,4.739 -23.734,-1.961 -23.734,-1.961l-12.147,-5.05l10.162,-8.967c0,-0 11.18,-11.546 18.002,-10.363c5.396,0.936 9.756,6.216 10.648,12.515Z" style="fill:#4fa41d;fill-rule:nonzero;"/><path d="M119.557,289.586c1.249,-0.264 2.361,-0.704 3.255,-1.37c3.78,-2.812 3.822,-7.528 2.931,-13.826c-0.892,-6.299 -5.252,-11.579 -10.648,-12.515c-1.544,-0.267 -3.31,0.117 -5.12,0.871c1.038,-0.243 2.036,-0.314 2.955,-0.155c5.396,0.936 9.756,6.216 10.647,12.514c0.892,6.299 0.849,11.014 -2.93,13.827c-0.335,0.249 -0.699,0.466 -1.09,0.654Z" style="fill:#52bd15;"/><path d="M118.396,276.226c1.135,4.038 1.423,7.012 -1.376,8.531c-4.715,2.557 -18.909,-2.858 -18.909,-2.858l-9.954,-4.017l7.428,-4.969c-0,0 8.057,-6.528 13.534,-5.315c4.333,0.959 8.142,4.59 9.277,8.628l-0,-0Z" style="fill:#49921f;fill-rule:nonzero;"/><path d="M116.694,301.249c2.95,-4.524 -0.038,-10.221 -3.303,-13.791c-3.528,-3.859 -14.806,-5.192 -14.806,-5.192l-11.91,-0.592l5.345,10.659c0,0 5.768,9.783 10.722,11.455c4.583,1.548 11.002,1.985 13.952,-2.539Z" style="fill:#4fa41d;fill-rule:nonzero;"/><path d="M101.105,302.978c0.55,0.351 1.098,0.629 1.637,0.81c4.583,1.548 11.002,1.985 13.952,-2.539c1.993,-3.057 1.275,-6.65 -0.408,-9.76c1.097,2.864 1.274,5.93 -0.468,8.613c-3.103,4.78 -9.773,4.452 -14.713,2.876Z" style="fill:#52bd15;"/><path d="M106.526,296.464c2.023,-3.124 0.008,-7.037 -2.203,-9.485c-2.389,-2.645 -10.063,-3.525 -10.063,-3.525l-8.106,-0.369l3.604,7.322c-0,0 3.894,6.717 7.261,7.852c3.115,1.051 7.484,1.33 9.507,-1.795Z" style="fill:#49921f;fill-rule:nonzero;"/><path d="M96.548,307.355c3.351,-0.953 3.871,-6.238 3.428,-10.399c-0.479,-4.497 -6.2,-12.181 -6.2,-12.181l-6.352,-7.62l-1.108,9.74c-0,-0 -0.54,9.464 1.559,13.5c1.942,3.735 5.32,7.912 8.672,6.96l0.001,-0Z" style="fill:#4fa41d;fill-rule:nonzero;"/><path d="M93.01,298.774c2.243,-0.638 2.591,-4.175 2.295,-6.959c-0.321,-3.01 -4.15,-8.153 -4.15,-8.153l-4.251,-5.099l-0.741,6.518c-0,0 -0.362,6.334 1.043,9.035c1.3,2.5 3.561,5.296 5.804,4.658l0,0Z" style="fill:#49921f;fill-rule:nonzero;"/><path d="M109.223,261.972c1.97,2.086 0.11,6.044 -1.956,8.8c-2.234,2.979 -9.519,6.005 -9.519,6.005l-7.704,2.713l3.32,-7.356c0,-0 3.606,-6.923 6.791,-8.894c2.947,-1.824 7.096,-3.359 9.068,-1.269l-0,0.001Z" style="fill:#4fa41d;fill-rule:nonzero;"/><path d="M104.009,265.948c1.389,1.472 0.078,4.263 -1.38,6.208c-1.575,2.101 -6.713,4.234 -6.713,4.234l-5.434,1.914l2.341,-5.188c0,-0 2.543,-4.883 4.79,-6.273c2.079,-1.286 5.004,-2.37 6.395,-0.895l0.001,0Z" style="fill:#49921f;fill-rule:nonzero;"/><path d="M92.272,290.578c-3.301,8.945 -12.33,13.312 -20.641,9.966c-1.285,-0.437 -2.557,-1.042 -3.797,-1.83c-14.649,-9.305 -32.359,-23.532 -27.84,-35.78c0.014,-0.031 0.028,-0.064 0.042,-0.095c0.013,-0.032 0.025,-0.063 0.032,-0.104c4.52,-12.249 27.226,-11.561 44.408,-9.12c1.461,0.208 2.827,0.577 4.092,1.083c8.481,2.861 12.502,12.04 9.203,20.979l-0.358,0.971l-4.783,12.959l-0.358,0.971Z" style="fill:#f28b47;fill-rule:nonzero;"/><path d="M93.058,290.868l0.358,-0.971l4.782,-12.959l0.359,-0.971c3.468,-9.399 -0.79,-19.036 -9.681,-22.047c-1.324,-0.53 -2.753,-0.917 -4.282,-1.134c-10.411,-1.479 -22.831,-2.305 -32.087,-0.07c-6.417,1.55 -11.326,4.584 -13.225,9.729l-0.025,0.069l-0.005,0.028c-0.01,0.023 -0.022,0.049 -0.036,0.084l-0.007,0.018c-1.899,5.146 -0.137,10.641 3.735,15.987c5.585,7.712 15.564,15.152 24.441,20.79c1.292,0.821 2.617,1.452 3.942,1.903c8.744,3.515 18.258,-1.046 21.731,-10.456Zm4.363,-15.951l-0.444,0.492l-0.35,0.949l-4.782,12.959l0.435,-0.471l-0.443,0.493l-0.35,0.949c-3.128,8.477 -11.668,12.65 -19.543,9.479l-0.022,-0.009l-0.022,-0.007c-1.223,-0.416 -2.435,-0.993 -3.617,-1.743c-8.703,-5.528 -18.507,-12.798 -23.982,-20.359c-3.498,-4.829 -5.233,-9.758 -3.528,-14.406c0.011,-0.025 0.023,-0.052 0.034,-0.077l0.085,-0.282l-0.038,0.141c1.717,-4.654 6.243,-7.279 12.046,-8.681c9.075,-2.191 21.251,-1.35 31.458,0.1c1.392,0.198 2.694,0.55 3.898,1.032l0.022,0.008l0.022,0.008c8.037,2.711 11.811,11.425 8.685,19.895l0.436,-0.47Z" style="fill:#dd4b1f;"/><path d="M91.849,289.559c-2.263,6.13 -10.099,8.514 -17.916,5.438c-1.201,-0.418 -2.406,-0.955 -3.596,-1.62c-44.758,-24.021 -34.381,-40.014 11.406,-30.909c1.343,0.269 2.613,0.644 3.802,1.11c7.931,2.743 12.333,9.642 10.072,15.768l-3.523,9.546l-0.167,0.455l-0.078,0.212Z" style="fill:#e3662f;fill-rule:nonzero;"/><path d="M86.525,252.98l-9.073,-0.661c1.734,4.845 2.464,9.474 2.866,14.033c3.837,-4.179 6.251,-8.583 6.207,-13.372Z" style="fill:#dd4b1f;fill-rule:nonzero;"/><path d="M66.697,298.157l-6.273,-4.233c6.512,-1.824 10.928,-5.326 14.113,-9.815c0.485,3.864 -4.35,12.831 -7.84,14.048Z" style="fill:#dd4b1f;fill-rule:nonzero;"/><path d="M56.673,252.946l-4.293,0.732c-0,0 2.124,3.902 2.722,6.512l3.288,10.17l-0.511,-10.626c-0.108,-2.246 -1.206,-6.788 -1.206,-6.788l-0,-0Z" style="fill:#dd4b1f;fill-rule:nonzero;"/></g><g><path d="M220.305,254.342c14.167,-8.203 30.595,-6.31 36.664,4.225c6.068,10.535 -0.507,25.748 -14.674,33.952c-14.167,8.203 -30.596,6.311 -36.664,-4.224c-6.068,-10.536 0.507,-25.749 14.674,-33.953Z" style="fill:#bf290b;"/><path d="M219.825,253.513c14.682,-8.502 31.685,-6.343 37.974,4.575c6.288,10.917 -0.344,26.759 -15.024,35.26c-14.683,8.502 -31.685,6.343 -37.974,-4.575c-6.288,-10.917 0.344,-26.759 15.024,-35.26Zm0.96,1.659c-8.255,4.78 -13.876,11.995 -15.763,19.225c-1.229,4.709 -0.864,9.42 1.439,13.419c2.303,3.998 6.189,6.669 10.871,7.955c7.188,1.975 16.228,0.698 24.482,-4.081c8.256,-4.781 13.877,-11.995 15.764,-19.226c1.229,-4.709 0.864,-9.42 -1.44,-13.419c-2.302,-3.998 -6.189,-6.669 -10.87,-7.955c-7.188,-1.974 -16.229,-0.698 -24.483,4.082Z" style="fill:#9e2007;"/><path d="M217.49,260.413c8.88,-6.291 20.158,-5.655 25.169,1.419c5.011,7.074 1.87,17.924 -7.01,24.214c-8.88,6.291 -20.157,5.655 -25.168,-1.419c-5.011,-7.073 -1.871,-17.923 7.009,-24.214Z" style="fill:#d74b1f;"/><path d="M215.579,263.92c6.015,-4.261 13.655,-3.83 17.049,0.961c3.395,4.792 1.267,12.142 -4.748,16.403c-6.015,4.262 -13.655,3.831 -17.049,-0.961c-3.395,-4.792 -1.267,-12.142 4.748,-16.403Z" style="fill:#e99a6b;"/><path d="M212.51,245.194c-0.242,0.174 -0.446,0.385 -0.58,0.618c-0.482,0.836 -0.979,1.897 -1.057,2.762c-0.107,1.195 -0.435,3.392 0.931,3.477c2.41,0.153 3.694,-0.667 4.744,0.669c0.471,0.598 0.894,1.37 1.27,2.298c-4.358,1.276 -9.369,2.79 -13.747,4.169c-0.655,0.206 -1.168,0.447 -1.54,0.71c-1.325,0.94 -0.841,2.162 1.426,3.096c5.999,2.473 11.957,4.83 17.937,1.304c4.623,2.876 8.454,4.199 12.826,4.66c4.066,0.429 4.806,-1.957 1.926,-4.858c-2.401,-2.417 -4.74,-4.582 -8.272,-5.294c4.556,-2.246 7.774,-4.786 10.749,-8.184c2.695,-3.078 1.307,-4.894 -2.704,-4.1c-5.238,1.037 -10.275,2.028 -13.984,6.658c-0.516,-1.276 -1.16,-2.457 -1.995,-3.519c-1.555,-1.978 -3.444,-4.136 -6.113,-4.887c-0.569,-0.16 -1.286,0.039 -1.817,0.421l-0,-0Z" style="fill:#2b850e;fill-rule:nonzero;"/><path d="M212.51,245.194c-0.241,0.174 -0.446,0.385 -0.58,0.618c-0.482,0.836 -0.979,1.897 -1.057,2.762c-0.108,1.195 -0.435,3.392 0.93,3.478c2.411,0.152 3.695,-0.667 4.745,0.668c0.471,0.599 0.894,1.369 1.271,2.298c-1.724,0.505 -3.558,1.051 -5.406,1.607c-0.037,0.011 -0.073,0.022 -0.11,0.033c-1.212,0.364 -2.43,0.735 -3.638,1.105c-0.26,0.08 -0.522,0.159 -0.781,0.239c-0.303,0.093 -0.603,0.186 -0.904,0.279c-0.987,0.305 -1.968,0.609 -2.91,0.906c-0.158,0.05 -0.306,0.101 -0.447,0.155c-0.005,0.002 -0.011,0.003 -0.017,0.005c-0,0.001 -0,0.001 -0.001,0.001c-0.004,0.002 -0.008,0.003 -0.013,0.005c-0.213,0.082 -0.408,0.169 -0.583,0.258c-0.12,0.062 -0.23,0.125 -0.332,0.189c-0.051,0.033 -0.099,0.065 -0.146,0.098c-0.078,0.055 -0.149,0.111 -0.214,0.168c-0.003,0.002 -0.006,0.005 -0.008,0.007c-0.014,0.012 -0.026,0.024 -0.039,0.036c-0.052,0.048 -0.101,0.096 -0.144,0.146c-0.001,0.001 -0.003,0.002 -0.004,0.004c-0.008,0.009 -0.015,0.019 -0.022,0.028c-0.019,0.022 -0.038,0.044 -0.055,0.067c-0.004,0.005 -0.007,0.01 -0.011,0.015c-0.02,0.027 -0.039,0.055 -0.057,0.083c-0.017,0.028 -0.033,0.056 -0.048,0.084c-0.016,0.031 -0.032,0.062 -0.045,0.094c-0.01,0.024 -0.019,0.048 -0.027,0.073c-0.004,0.01 -0.008,0.021 -0.012,0.032c-0.005,0.018 -0.009,0.037 -0.014,0.056c-0.003,0.013 -0.007,0.025 -0.01,0.038c-0.006,0.03 -0.009,0.061 -0.012,0.091c-0.004,0.033 -0.006,0.065 -0.006,0.098c0,0.065 0.007,0.131 0.021,0.197c0.046,0.226 0.173,0.454 0.378,0.678c0.034,0.037 0.069,0.074 0.107,0.111c0.002,0.002 0.005,0.004 0.007,0.006c0.061,0.059 0.129,0.118 0.202,0.176c0.006,0.005 0.01,0.01 0.016,0.014c0.072,0.057 0.151,0.113 0.233,0.169c0.012,0.008 0.023,0.018 0.036,0.026c0.083,0.056 0.173,0.11 0.267,0.164c0.012,0.007 0.023,0.014 0.035,0.021c0.091,0.051 0.187,0.103 0.286,0.153c0.023,0.012 0.046,0.023 0.069,0.035c0.11,0.054 0.224,0.106 0.344,0.158c0.005,0.002 0.009,0.005 0.014,0.007c1.474,0.096 7.169,1.288 8.82,0.989c3.13,-0.568 5.833,-1.048 7.318,-1.833c0.829,-0.281 1.611,-0.597 2.343,-0.948c1.587,2.041 6.937,4.588 11.178,4.701c1.502,0.04 2.986,-0.071 4.32,-0.325c-0.002,-0.003 -0.004,-0.005 -0.005,-0.007c-0.139,-0.223 -0.303,-0.451 -0.492,-0.685c-0.001,-0 -0.001,-0.001 -0.002,-0.002c-0.001,-0.001 -0.002,-0.003 -0.003,-0.005c-0.082,-0.1 -0.17,-0.202 -0.261,-0.305c-0.025,-0.027 -0.049,-0.055 -0.074,-0.083c-0.1,-0.11 -0.204,-0.219 -0.315,-0.331c-1.043,-1.05 -2.579,-2.406 -4.266,-3.657c-1.18,-0.752 -1.919,-1.231 -2.905,-1.801c-0.756,-0.438 -1.646,-0.994 -2.306,-1.244c0.342,-0.433 0.653,-0.891 0.929,-1.374c1.782,-0.785 4.012,-2.082 6.272,-3.215c2.877,-1.444 4.618,-4.266 5.589,-6.017c-0.002,-0.002 -0.004,-0.003 -0.006,-0.005c-0.032,-0.023 -0.066,-0.044 -0.1,-0.066c-0.016,-0.009 -0.031,-0.019 -0.047,-0.029c-0.035,-0.02 -0.071,-0.039 -0.108,-0.057c-0.003,-0.002 -0.007,-0.004 -0.01,-0.005c-0.006,-0.003 -0.013,-0.006 -0.019,-0.009c-0.044,-0.021 -0.089,-0.041 -0.136,-0.06c-0.108,-0.042 -0.223,-0.079 -0.348,-0.11c-0.057,-0.014 -0.118,-0.026 -0.179,-0.038c-0.005,-0.001 -0.009,-0.002 -0.014,-0.003c-0.002,-0.001 -0.005,-0.001 -0.007,-0.001c-0.054,-0.01 -0.11,-0.018 -0.167,-0.026c-0.01,-0.002 -0.02,-0.004 -0.03,-0.006c-0.013,-0.001 -0.026,-0.003 -0.038,-0.004c-0.05,-0.006 -0.101,-0.011 -0.152,-0.016c-0.03,-0.002 -0.061,-0.005 -0.091,-0.007c-0.053,-0.003 -0.105,-0.007 -0.159,-0.009c-0.002,-0 -0.004,-0 -0.006,-0c-0.078,-0.003 -0.157,-0.006 -0.239,-0.006c-0,0 -0.001,0.001 -0.001,0.001c-0.052,0 -0.106,0.003 -0.159,0.004c-0.031,0.001 -0.061,0.001 -0.093,0.002c-0.004,0 -0.008,0 -0.011,0.001c-0.051,0.002 -0.103,0.006 -0.154,0.009c-0.048,0.003 -0.096,0.006 -0.145,0.01c-0.06,0.005 -0.12,0.012 -0.181,0.018c-0.016,0.002 -0.032,0.002 -0.048,0.004c-0.011,0.001 -0.023,0.003 -0.035,0.005c-0.077,0.008 -0.154,0.018 -0.234,0.029c-0.005,0.001 -0.011,0.001 -0.016,0.002c-0.078,0.011 -0.157,0.022 -0.237,0.035c-0.008,0.001 -0.015,0.003 -0.023,0.004c-0.113,0.019 -0.227,0.04 -0.345,0.063c-0.53,0.105 -1.056,0.211 -1.58,0.319c-0.395,0.081 -0.789,0.162 -1.18,0.249c-0.022,0.005 -0.045,0.01 -0.067,0.015c-0.008,0.001 -0.016,0.003 -0.024,0.005c-0.084,0.019 -0.167,0.039 -0.25,0.058c-0.208,0.047 -0.416,0.096 -0.623,0.146c-0.085,0.021 -0.17,0.041 -0.255,0.062c-0.237,0.059 -0.474,0.121 -0.709,0.184c-0.057,0.015 -0.114,0.03 -0.17,0.046c-0.275,0.075 -0.549,0.154 -0.821,0.237c-0.177,0.054 -0.354,0.11 -0.53,0.167c-0.012,0.004 -0.023,0.008 -0.035,0.012c-0.024,0.008 -0.048,0.016 -0.072,0.024c-0.161,0.054 -0.321,0.109 -0.481,0.167c-0.068,0.024 -0.136,0.049 -0.203,0.074c-0.144,0.053 -0.286,0.108 -0.428,0.164c-0.045,0.018 -0.092,0.035 -0.138,0.053c-0.03,0.012 -0.06,0.025 -0.09,0.038c-0.155,0.062 -0.308,0.126 -0.46,0.193c-0.063,0.027 -0.124,0.056 -0.187,0.084c-0.153,0.069 -0.305,0.14 -0.457,0.214c-0.024,0.012 -0.049,0.022 -0.074,0.034c-0.016,0.008 -0.032,0.016 -0.048,0.024c-0.016,0.008 -0.031,0.017 -0.047,0.025c-0.119,0.059 -0.236,0.119 -0.354,0.182c-0.009,0.005 -0.019,0.009 -0.028,0.014c-0.008,0.004 -0.015,0.009 -0.022,0.013c-0.135,0.071 -0.269,0.144 -0.402,0.22c-0.141,0.08 -0.279,0.163 -0.417,0.248c-0.122,0.075 -0.243,0.152 -0.363,0.23c-0.028,0.019 -0.058,0.036 -0.086,0.055c-1.215,0.805 -2.351,1.811 -3.383,3.101c-0.517,-1.276 -1.161,-2.457 -1.996,-3.519c-1.555,-1.978 -3.443,-4.135 -6.113,-4.886c-0.569,-0.16 -1.285,0.039 -1.817,0.421Z" style="fill:#56aa1b;stroke:#2b850e;stroke-width:0.79px;"/></g><path d="M0,265.752l123.758,-0c1.795,2.341 3.051,5.258 3.499,8.423c0.989,6.984 0.659,12.15 -3.532,15.268c-1.495,1.113 -3.516,1.711 -5.79,1.915c1.695,3.457 2.223,7.379 0.04,10.726c-1.741,2.671 -4.481,3.922 -7.487,4.233c-2.763,0.285 -5.749,-0.24 -8.235,-1.079c-0.448,-0.152 -0.904,-0.357 -1.361,-0.61c-0.73,2.087 -2.024,3.657 -3.926,4.198c-1.781,0.506 -3.587,0.007 -5.254,-1.193c-2.058,-1.481 -3.921,-4.084 -5.194,-6.532c-0.188,-0.361 -0.357,-0.762 -0.509,-1.194c-4.264,2.776 -9.603,3.459 -14.682,1.417c-1.325,-0.451 -2.65,-1.082 -3.942,-1.903c-4.938,-3.137 -10.218,-6.831 -14.892,-10.82c-1.019,4.366 -3.173,7.888 -6.273,10.261c-5.066,3.872 -12.432,4.503 -20.588,1.458c-0.052,-0.019 -0.103,-0.041 -0.152,-0.064c-7.475,-1.501 -14.507,-4.952 -18.349,-11.054c-0.537,-0.852 -1.012,-1.755 -1.42,-2.713c-1.09,-2.564 -2.53,-5.316 -4.296,-8.247c-0.451,-0.748 -0.923,-1.507 -1.415,-2.278l0,-10.212Zm300,12.805c-0.738,1.172 -1.646,2.272 -2.724,3.271c-0.974,1.005 -2.11,1.934 -3.403,2.753c-8.887,5.621 -19.874,11.47 -29.232,13.23c-6.488,1.22 -12.209,0.468 -16.052,-3.445l-0.014,-0.014c-0.025,-0.028 -0.044,-0.049 -0.061,-0.068l-0.023,-0.017l-0.051,-0.052c-0.917,-0.934 -1.652,-1.971 -2.222,-3.097c-1.092,0.788 -2.24,1.534 -3.443,2.23c-14.683,8.502 -31.685,6.343 -37.974,-4.575c-3.892,-6.757 -2.835,-15.4 2.016,-23.021l93.183,-0l-0,12.805Z" style="fill-opacity:0.25;"/><rect x="-0" y="287.593" width="300" height="45.643" style="fill:#171fb1;"/><g><rect x="280.756" y="293.449" width="19.244" height="31.042" style="fill:#3876fa;"/><path d="M300,293.449l-0,31.043l-19.244,-0l0,-31.043l19.244,0Zm-2,2l-15.244,0l0,27.043l15.244,-0l-0,-27.043Z" style="fill:#2441d7;"/></g><g><rect x="0" y="293.449" width="19.244" height="31.042" style="fill:#3876fa;"/><path d="M19.244,293.449l-0,31.043l-19.244,-0l0,-31.043l19.244,0Zm-2,2l-15.244,0l0,27.043l15.244,-0l-0,-27.043Z" style="fill:#2441d7;"/></g><g><rect x="19.244" y="293.52" width="261.512" height="10.864" style="fill:#2b51e8;"/><rect x="19.244" y="301.352" width="261.512" height="3.032" style="fill:#2441d7;"/></g><g><rect x="19.244" y="306.569" width="261.512" height="10.864" style="fill:#2b51e8;"/><rect x="19.244" y="314.401" width="261.512" height="3.032" style="fill:#2441d7;"/></g><g><rect x="19.244" y="319.567" width="261.512" height="10.864" style="fill:#2b51e8;"/><rect x="19.244" y="327.399" width="261.512" height="3.032" style="fill:#2441d7;"/></g><g><path d="M-0,338.336l-0,-9.985l300,-0l0,9.949c0,1.777 -0.706,3.481 -1.962,4.738c-1.257,1.256 -2.961,1.962 -4.738,1.962l-286.636,0c-3.68,-0 -6.664,-2.984 -6.664,-6.664Z" style="fill:#1923b5;"/><path d="M-0,338.336l-0,-13.844l300,-0l0,13.808c0,1.318 -0.388,2.595 -1.101,3.68l-297.815,-0c-0.686,-1.047 -1.084,-2.299 -1.084,-3.644Z" style="fill:#286cff;"/><path d="M300,328.351l0,4.686c-7.969,2.057 -15.139,5.066 -21.579,8.943l-37.96,-0c12.705,-4.601 25.55,-9.734 38.316,-13.629l21.223,-0Zm-298.916,13.629c-0.485,-0.74 -0.826,-1.583 -0.984,-2.489c10.802,-3.382 22.134,-7.692 33.504,-11.14l71.914,-0c15.67,3.83 32.77,8.946 50.049,13.629l-69.036,-0c-6.497,-2.943 -14.214,-4.656 -23.469,-3.922c-7.235,0.237 -13.906,1.74 -20.257,3.922l-41.721,-0Zm166.338,-13.629l60.416,-0c-10.956,4.956 -22.772,10.191 -35.971,9.395c-10.639,-0.641 -18.467,-4.094 -24.445,-9.395Z" style="fill:#3876fa;"/><path d="M293.524,324.492l6.476,-0l0,4.893l-24.527,-0c6.038,-1.936 12.063,-3.629 18.051,-4.893Zm-129.877,-0l72.961,-0c-3.598,1.481 -7.279,3.196 -11.065,4.893l-56.902,-0c-1.82,-1.476 -3.477,-3.115 -4.994,-4.893Zm-115.243,-0l39.131,-0c6.969,1.23 14.394,2.927 22.131,4.893l-79.395,-0c6.045,-1.916 12.114,-3.637 18.133,-4.893Z" style="fill:#bde5ff;"/><rect x="-0" y="324.492" width="300" height="4.893" style="fill:#a8dbfc;"/></g><g><rect x="-0" y="269.461" width="300" height="23.988" style="fill:#1923b5;"/><rect x="-0" y="269.461" width="300" height="20.968" style="fill:#286cff;"/><rect x="-0" y="269.461" width="300" height="4.893" style="fill:#a8dbfc;"/><path d="M300,279.064l0,11.048c-37.626,-2.378 -64.374,-16.811 -97.217,-16.05c-40.559,0.939 -67.809,14.498 -105.85,19.387l-51.334,0c-15.847,-2.498 -31.045,-8.272 -45.599,-11.033l-0,-9.487c23.458,3.607 50.673,9.511 75.972,10.062c36.605,0.798 57.169,-9.009 79.853,-13.53l82.092,0c12.853,3.882 31.486,10.093 62.083,9.603Zm-65.915,14.385l-65.219,0c10.209,-4.991 20.697,-8.818 32.808,-8.464c16.108,0.471 24.973,3.76 32.411,8.464Z" style="fill:#3876fa;"/><path d="M234.085,293.449l-65.219,0c2.189,-1.07 4.391,-2.086 6.618,-3.02l53.138,0c1.946,0.92 3.743,1.932 5.463,3.02Zm-137.152,0l-51.334,0c-4.831,-0.761 -9.602,-1.827 -14.312,-3.02l83.642,0c-5.779,1.178 -11.742,2.216 -17.996,3.02Z" style="fill:#121b9e;"/><path d="M-0,274.354l-0,-1.425c2.894,0.445 5.846,0.925 8.843,1.425l-8.843,0Zm155.825,-4.893l82.092,0c4.839,1.462 10.498,3.253 17.307,4.893l-41.41,0c-3.614,-0.268 -7.283,-0.379 -11.031,-0.292c-2.387,0.055 -4.729,0.154 -7.03,0.292l-59.622,0c6.683,-1.817 13.099,-3.578 19.694,-4.893Z" style="fill:#bde5ff;"/></g></g></g></svg>