<?xml version="1.0" encoding="UTF-8" standalone="no"?><!DOCTYPE svg PUBLIC "-//W3C//DTD SVG 1.1//EN" "http://www.w3.org/Graphics/SVG/1.1/DTD/svg11.dtd"><svg width="100%" height="100%" viewBox="0 0 300 345" version="1.1" xmlns="http://www.w3.org/2000/svg" xmlns:xlink="http://www.w3.org/1999/xlink" xml:space="preserve" xmlns:serif="http://www.serif.com/" style="fill-rule:evenodd;clip-rule:evenodd;stroke-linejoin:round;stroke-miterlimit:2;"><g id="Luchador"><g id="LuchadorClothes"><path d="M263.62,345l-227.24,0c-8.857,0 -17.017,-3.234 -23.355,-8.576c15.738,-1.944 28.066,-17.371 32.245,-38.034l38.584,-0c6.479,17.191 33.651,30.107 66.146,30.107c32.495,-0 59.667,-12.916 66.146,-30.107l38.584,-0c4.179,20.663 16.507,36.09 32.245,38.034c-6.338,5.342 -14.498,8.576 -23.355,8.576Z" style="fill:#720012;"/><rect x="221.585" y="298.39" width="17.158" height="46.61" style="fill:#ff6f17;"/><path d="M221.585,345l-17.158,0l0,-31.971c5.624,-4.282 9.688,-9.251 11.719,-14.639l5.439,-0l-0,46.61Z" style="fill:#ffa317;"/><path d="M204.427,345l-17.157,0l-0,-22.802c6.629,-2.47 12.442,-5.578 17.157,-9.169l0,31.971Z" style="fill:#ffde17;"/><path d="M187.27,345l-17.158,0l-0,-18.216c6.14,-1.076 11.905,-2.63 17.158,-4.586l-0,22.802Z" style="fill:#fff9ad;"/><path d="M10.982,334.568c15.322,-2.144 27.392,-16.637 31.939,-36.178l4.644,0l-0.633,2.664c-4.251,16.497 -13.679,29.311 -25.675,35.008c-2.172,1.031 -4.433,1.566 -6.185,1.833c-0.339,-0.203 -0.674,-0.411 -1.005,-0.625c-1.078,-0.843 -2.108,-1.746 -3.085,-2.702Zm274.951,2.702c-0.331,0.214 -0.666,0.422 -1.005,0.625c-1.752,-0.267 -4.013,-0.802 -6.185,-1.833c-11.996,-5.697 -21.424,-18.511 -25.675,-35.008l-0.633,-2.664l4.644,-0c4.547,19.541 16.617,34.034 31.939,36.178c-0.977,0.956 -2.007,1.859 -3.085,2.702Zm-65.343,-38.88l-1.252,2.664c-3.374,6.563 -8.46,12.543 -16.653,17.386c-13.164,7.781 -31.894,12.721 -52.685,12.721c-20.791,-0 -39.521,-4.94 -52.685,-12.721c-8.193,-4.843 -13.193,-10.823 -16.568,-17.386l-1.251,-2.664l3.892,-0c7.775,16.29 34.668,28.318 66.612,28.318c31.944,0 58.837,-12.028 66.612,-28.318l3.978,0Z" style="fill:#a70c00;"/><path d="M150,332.949c-20.41,0 -38.796,-4.94 -51.719,-12.721c-8.043,-4.843 -14.011,-10.823 -17.324,-17.386l-2.053,-4.452l4.95,-0c6.479,17.191 33.651,30.107 66.146,30.107c32.495,-0 59.667,-12.916 66.146,-30.107l4.95,-0l-2.053,4.452c-3.313,6.563 -9.281,12.543 -17.324,17.386c-12.923,7.781 -31.309,12.721 -51.719,12.721Zm-132.454,6.735c-1.59,-0.973 -3.101,-2.064 -4.521,-3.26c15.738,-1.944 28.066,-17.371 32.245,-38.034l4.591,-0l-1.039,4.452c-4.173,16.497 -13.428,29.312 -25.204,35.008c-2.132,1.032 -4.352,1.566 -6.072,1.834Zm264.908,-0c-1.72,-0.268 -3.94,-0.802 -6.072,-1.834c-11.776,-5.696 -21.031,-18.511 -25.204,-35.008l-1.039,-4.452l4.591,-0c4.179,20.663 16.507,36.09 32.245,38.034c-1.42,1.196 -2.931,2.287 -4.521,3.26Z" style="fill:#f81201;"/></g></g></svg>