<?xml version="1.0" encoding="UTF-8" standalone="no"?><!DOCTYPE svg PUBLIC "-//W3C//DTD SVG 1.1//EN" "http://www.w3.org/Graphics/SVG/1.1/DTD/svg11.dtd"><svg width="100%" height="100%" viewBox="0 0 300 345" version="1.1" xmlns="http://www.w3.org/2000/svg" xmlns:xlink="http://www.w3.org/1999/xlink" xml:space="preserve" xmlns:serif="http://www.serif.com/" style="fill-rule:evenodd;clip-rule:evenodd;stroke-linejoin:round;stroke-miterlimit:2;"><g id="Cat"><g id="Cat-body" serif:id="Cat body"><path d="M300,262.01l0,46.61c0,19.957 -16.423,36.38 -36.38,36.38l-227.24,0c-19.957,0 -36.38,-16.423 -36.38,-36.38l0,-46.61c0,20.079 16.301,36.38 36.38,36.38l227.24,0c20.079,0 36.38,-16.301 36.38,-36.38Z" style="fill:#ece9d9;"/><path d="M300,302.07l0,6.55c0,19.957 -16.423,36.38 -36.38,36.38l-227.24,0c-19.957,0 -36.38,-16.423 -36.38,-36.38l0,-6.55c0,19.957 16.423,36.38 36.38,36.38l227.24,0c19.957,0 36.38,-16.423 36.38,-36.38Z" style="fill:#dbdab1;"/><path d="M129.573,315.412l-93.193,0c-20.079,0 -36.38,-16.301 -36.38,-36.38l-0,-21.147c-0,20.078 16.301,36.38 36.38,36.38l227.24,-0c20.079,-0 36.38,-16.302 36.38,-36.38l0,21.147c0,20.079 -16.301,36.38 -36.38,36.38l-93.193,0c0.883,2.014 1.366,4.193 1.366,6.467c0,10.227 -9.765,18.531 -21.793,18.531c-12.028,-0 -21.793,-8.304 -21.793,-18.531c-0,-2.274 0.483,-4.453 1.366,-6.467Z" style="fill:#dbdab1;"/><path d="M13.276,336.633c-8.088,-6.695 -13.276,-16.796 -13.276,-28.013l0,-46.61c0,19.856 15.943,36.019 35.715,36.374c-0.44,10.444 -1.543,12.319 -4.217,17.667c-2.872,5.744 -11.769,11.22 -11.914,11.328c-2.951,2.214 -5.275,5.511 -6.308,9.254Zm286.141,-21.548c-3.087,16.919 -18.043,29.915 -35.797,29.915l-10.511,-0c0.278,-2.038 0.941,-4.273 2.226,-6.292c6.324,-9.938 16.974,-5.893 21.876,-14.063c6.932,-11.554 15.136,-9.992 22.206,-9.56Z" style="fill:#e08300;"/><path d="M0,279.032l0,-17.022c0,19.856 15.943,36.019 35.715,36.374c-0.414,9.832 -1.416,12.07 -3.763,16.761c-17.994,-2.188 -31.952,-17.533 -31.952,-36.113Z" style="fill:#c67400;"/><path d="M299.417,315.085c-3.087,16.919 -18.043,29.915 -35.797,29.915l-10.511,0c0.278,-2.038 0.941,-4.273 2.226,-6.292c0.055,-0.087 0.111,-0.173 0.167,-0.258l8.118,0c15.428,0 28.744,-9.815 33.993,-23.49c0.609,0.044 1.21,0.088 1.804,0.125Zm-286.141,21.548c-8.088,-6.695 -13.276,-16.796 -13.276,-28.013l0,-6.55c0,12.207 6.144,23.091 15.482,29.704c-0.969,1.481 -1.727,3.122 -2.206,4.859Z" style="fill:#c67400;"/><path d="M0,305.832l0,-43.822c0,17.188 11.945,31.608 27.98,35.404c-3.303,5.782 -7.85,11.558 -14.388,14.575c-7.949,3.669 -11.406,-0.764 -13.592,-6.157Zm294.894,21.274c-3.738,6.266 -9.302,11.34 -15.936,14.463c-0.024,-0.237 -0.058,-0.517 -0.106,-0.855c-0.671,-4.697 -3.265,-4.958 -0.64,-8.896c0.277,-0.416 0.333,-0.35 9.216,-6.272c1.881,-1.254 4.392,-0.095 4.736,0.064c1.426,0.658 2.081,1.06 2.73,1.496Z" style="fill:#4f2200;"/><path d="M0,279.032l0,-17.022c0,17.188 11.945,31.608 27.98,35.404c-2.66,4.657 -6.128,9.311 -10.794,12.522c-10.315,-6.424 -17.186,-17.868 -17.186,-30.904Z" style="fill:#3d1a00;"/><path d="M294.894,327.106c-3.738,6.266 -9.302,11.34 -15.936,14.463c-0.024,-0.237 -0.058,-0.517 -0.106,-0.855c-0.355,-2.487 -1.25,-3.731 -1.624,-4.935c5.564,-2.273 10.457,-5.891 14.268,-10.44c0.338,0.118 0.578,0.229 0.668,0.271c1.426,0.658 2.081,1.06 2.73,1.496Zm-294.894,-21.274l0,-3.762c0,1.49 0.092,2.961 0.269,4.406c-0.092,-0.213 -0.181,-0.427 -0.269,-0.644Z" style="fill:#3d1a00;"/><path d="M300,260.575l0,15.232c0,20.079 -16.301,36.38 -36.38,36.38l-227.24,0c-20.079,0 -36.38,-16.301 -36.38,-36.38l0,-15.232c0,20.079 16.301,36.38 36.38,36.38l227.24,0c20.079,0 36.38,-16.301 36.38,-36.38Z" style="fill:#599400;"/><path d="M0,260.575c0,20.079 16.301,36.38 36.38,36.38l227.24,0c20.079,0 36.38,-16.301 36.38,-36.38l0,15.232c0,20.079 -16.301,36.38 -36.38,36.38l-227.24,0c-20.079,0 -36.38,-16.301 -36.38,-36.38l0,-15.232Zm297.665,18.175c-6.503,12.146 -19.316,20.415 -34.045,20.415l-227.24,0c-14.729,0 -27.542,-8.269 -34.045,-20.415c1.495,17.483 16.177,31.227 34.045,31.227l227.24,0c17.868,0 32.55,-13.744 34.045,-31.227Z" style="fill:#69af00;"/><path d="M0,260.575l0,-5.915c0,20.078 16.301,36.38 36.38,36.38l227.24,-0c20.079,-0 36.38,-16.302 36.38,-36.38l0,5.915c0,20.079 -16.301,36.38 -36.38,36.38l-227.24,0c-20.079,0 -36.38,-16.301 -36.38,-36.38Z" style="fill:#184d00;"/><g><g><path d="M149.561,303.419c2.791,-0.215 5.377,1.823 5.829,4.506c0.483,2.869 -1.63,5.432 -4.594,5.681c-2.98,0.251 -5.676,-1.931 -5.892,-4.835c-0.201,-2.715 1.85,-5.135 4.657,-5.352Zm0.389,3.21c0.97,-0.077 1.868,0.637 1.997,1.574c0.132,0.961 -0.582,1.82 -1.575,1.901c-0.995,0.081 -1.902,-0.647 -2.004,-1.613c-0.099,-0.943 0.608,-1.785 1.582,-1.862Z" style="fill:#e5c521;"/><path d="M149.561,303.419c2.791,-0.215 5.377,1.823 5.829,4.506c0.483,2.869 -1.63,5.432 -4.594,5.681c-2.98,0.251 -5.676,-1.931 -5.892,-4.835c-0.201,-2.715 1.85,-5.135 4.657,-5.352Zm0.091,0.754c-2.375,0.185 -4.107,2.233 -3.92,4.531c0.198,2.432 2.463,4.262 4.961,4.053c2.487,-0.208 4.264,-2.359 3.876,-4.766c-0.367,-2.275 -2.553,-4.002 -4.917,-3.818Zm0.204,1.677c1.414,-0.112 2.716,0.922 2.914,2.286c0.204,1.411 -0.842,2.671 -2.299,2.791c-1.46,0.12 -2.79,-0.95 -2.929,-2.369c-0.134,-1.373 0.896,-2.596 2.314,-2.708Zm0.094,0.779c-0.974,0.077 -1.681,0.919 -1.582,1.862c0.102,0.966 1.009,1.694 2.004,1.613c0.993,-0.081 1.707,-0.94 1.575,-1.901c-0.129,-0.937 -1.027,-1.651 -1.997,-1.574Z" style="fill:#964b09;"/><path d="M148.244,344.427c-8.267,-1.878 -14.284,-9.04 -14.116,-18.034c0.172,-9.217 6.881,-17.568 16,-18.301c8.973,-0.722 17.419,6.167 19.746,15.036c2.268,8.641 -1.855,16.599 -9.287,20.032c-1.582,0.609 -3.493,-0.185 -4.285,-1.882c-0.284,-0.625 -4.167,-0.232 -4.297,0.435c-0.372,1.82 -2.059,2.989 -3.761,2.714Z" style="fill:#471f01;"/><path d="M151.664,320.786c-4.025,0.477 -4.434,4.642 -1.649,7.057c0.828,0.718 0.955,1.611 1.018,2.511c0.324,3.031 0.648,6.061 0.973,9.092c0.198,1.246 0.034,2.089 -0.001,2.267c-0.386,1.892 -2.194,3.078 -3.964,2.675c-8.168,-1.957 -14.08,-9.08 -13.913,-17.995c0.172,-9.217 6.881,-17.568 16,-18.301c8.973,-0.722 17.419,6.167 19.746,15.036c2.248,8.565 -1.782,16.466 -9.101,19.953c-1.616,0.748 -3.648,-0.039 -4.471,-1.803c-0.076,-0.166 -0.435,-0.955 -0.537,-2.208c-0.402,-3.017 -0.805,-6.033 -1.208,-9.05c-0.15,-0.876 -0.245,-1.779 0.396,-2.637c2.135,-2.862 0.749,-6.836 -3.289,-6.597Z" style="fill:#ffe250;"/><path d="M167.914,318.302c0.843,1.497 1.54,3.224 1.96,4.826c0.375,1.429 0.501,2.628 0.525,2.859c-3.301,-7.838 -11.225,-13.718 -19.679,-13.01c-8.577,0.718 -15.024,7.989 -16.421,16.373c-0.032,-0.235 -0.199,-1.458 -0.171,-2.957c0.032,-1.724 0.31,-3.533 0.794,-5.182c2.851,-5.96 8.427,-10.682 15.432,-11.254c6.919,-0.566 13.43,3.078 17.56,8.345Z" style="fill:#e5c521;"/><path d="M151.664,320.786c-4.025,0.477 -4.434,4.642 -1.649,7.057c0.828,0.718 0.955,1.611 1.018,2.511c0.324,3.031 0.648,6.061 0.973,9.092c0.198,1.246 0.034,2.089 -0.001,2.267c-0.386,1.892 -2.194,3.078 -3.964,2.675c-8.168,-1.957 -14.08,-9.08 -13.913,-17.995c0.172,-9.217 6.881,-17.568 16,-18.301c8.973,-0.722 17.419,6.167 19.746,15.036c2.248,8.565 -1.782,16.466 -9.101,19.953c-1.616,0.748 -3.648,-0.039 -4.471,-1.803c-0.076,-0.166 -0.435,-0.955 -0.537,-2.208c-0.402,-3.017 -0.805,-6.033 -1.208,-9.05c-0.15,-0.876 -0.245,-1.779 0.396,-2.637c2.135,-2.862 0.749,-6.836 -3.289,-6.597Zm-0.085,-0.923c2.016,-0.119 3.471,0.701 4.295,1.722c1.323,1.642 1.456,4.281 -0.133,6.428c-0.508,0.686 -0.248,1.659 -0.206,1.894c0.427,3.03 0.854,6.059 1.281,9.088l0.003,0.03c0.092,1.04 0.38,1.665 0.442,1.8c0.563,1.179 1.922,1.709 3.009,1.211c6.903,-3.281 10.736,-10.736 8.675,-18.823c-2.156,-8.459 -10.182,-15.011 -18.72,-14.319c-8.669,0.702 -15.039,8.638 -15.139,17.411c-0.096,8.401 5.508,15.109 13.201,16.953c1.19,0.269 2.399,-0.528 2.67,-1.795c0.029,-0.146 0.162,-0.815 0.005,-1.851l-0.005,-0.03c-0.303,-3.052 -0.607,-6.103 -0.911,-9.155l-0.001,-0.019c-0.016,-0.254 0.003,-1.227 -0.654,-1.801c-2.084,-1.819 -2.579,-4.446 -1.672,-6.292c0.553,-1.124 1.77,-2.207 3.807,-2.447l0.026,-0.003l0.027,-0.002Z" style="fill:#964b09;"/></g></g><path d="M149.088,307.922c-0.385,-0.281 -0.635,-0.736 -0.635,-1.249l0,-5.234c0,-0.853 0.693,-1.546 1.547,-1.546c0.854,-0 1.547,0.693 1.547,1.546l-0,5.234c-0,0.513 -0.25,0.968 -0.635,1.249c-0.302,-0.014 -0.606,-0.022 -0.912,-0.022c-0.306,0 -0.61,0.008 -0.912,0.022Z" style="fill:#69af00;"/><path d="M244.871,326.974c0.229,-1.924 0.958,-3.525 2.51,-6.077c0.59,-0.97 1.412,-2.32 1.751,-3.955c0.014,-0.068 -0.004,-0.15 0.04,-0.204c0.105,-0.131 0.279,-0.195 0.384,-0.326c0.08,0.149 0.247,0.239 0.327,0.388c0.004,0.006 0.008,0.668 -0.079,1.304c-0.54,3.937 -2.085,6.205 -1.441,11.77c0.006,0.045 0.536,2.145 -1.267,2.895c-0.888,0.369 -1.914,0.353 -2.794,-0.716c-1.776,-2.158 -2.186,-2.701 -4.115,-4.513c-1.864,-1.751 -2.528,-4.132 -3.182,-7.171c-0.017,-0.078 -0.07,-0.158 -0.048,-0.235c0.072,-0.249 0.173,-0.199 0.244,-0.448c0.13,0.109 0.318,0.134 0.448,0.243c0.026,0.022 0.655,1.949 2.789,3.75c1.603,1.353 2.92,2.081 4.433,3.295Zm-34.049,6.161c0.182,1.881 0.737,3.656 -1.086,7.739c-0.354,0.792 -5.258,0.892 -5.683,0.01c-1.496,-3.108 -1.1,-3.766 -4.207,-6.999c-1.922,-2 -2.564,-4.117 -2.965,-7.285c-0.012,-0.098 -0.073,-0.205 -0.033,-0.296c0.133,-0.302 0.258,-0.216 0.39,-0.517c0.142,0.163 0.375,0.227 0.517,0.389c0.131,0.151 0.026,2.241 3.09,5.189c2.432,2.339 4.661,3.819 6.483,6.704c1.126,-2.548 1.955,-4.906 1.672,-8.068c-0.035,-0.387 0.425,-0.616 0.71,-0.304c1.33,1.46 2.671,2.273 3.903,2.853c0.263,-2.941 1.569,-4.444 1.217,-6.818c-0.006,-0.043 -0.034,-0.088 -0.02,-0.13c0.033,-0.103 0.121,-0.183 0.154,-0.286c0.084,0.07 0.204,0.086 0.288,0.157c0.01,0.008 0.3,0.701 0.406,1.444c0.314,2.201 0.28,3.508 0.673,6.335c0.048,0.345 0.519,3.183 -0.466,3.587c-0.248,0.101 -1.236,0.118 -3.318,-1.743c-0.891,-0.796 -1.087,-1.119 -1.725,-1.961Zm-104.312,-6.951c-0.112,0.32 -0.235,0.644 -0.366,0.948c-2.639,6.141 -4.426,4.83 -4.904,13.648c-0.003,0.06 -1.506,0.226 -2.176,0.599c-0.571,0.318 -2.95,0.34 -3.13,-0.409c-1.037,-4.3 -0.555,-5.233 -3.446,-11.676c-1.983,-4.42 -2.176,-7.722 -0.881,-12.381c0.019,-0.067 0.011,-0.15 0.059,-0.201c0.073,-0.08 0.206,-0.088 0.279,-0.168c0.015,0.108 0.154,0.172 0.168,0.28c0.034,0.241 -1.011,3.29 0.666,7.539c1.457,3.69 3.676,6.472 5.462,11.328c0.87,-2.943 2.4,-4.663 4.608,-7.092c2.582,-2.84 3.409,-4.625 4.128,-7.352c0.089,-0.338 0.585,-0.245 0.551,0.097c-0.127,1.297 -0.513,4.673 1.215,6.843c1.301,1.635 3.132,2.165 6.513,3.651c-0.895,-2.597 -0.462,-5.201 -0.332,-8.674c0.129,-3.454 -0.501,-4.159 -0.485,-4.363c0.009,-0.131 0.069,-0.255 0.079,-0.386c0.095,0.091 0.244,0.112 0.34,0.204c0.15,0.142 0.438,1.095 0.468,1.193c1.232,4.075 1.63,10.804 4.441,14.402c0.001,-0 0.812,1.055 -0.039,2.05c-0.674,0.788 -1.289,0.715 -1.79,0.458c-6.015,-3.082 -8.245,-4.636 -8.772,-5.037c-2.257,-1.722 -2.701,-2.684 -2.656,-5.501Zm-71.229,9.88c2.493,-3.718 5.252,-4.877 6.518,-8.991c0.027,-0.089 0.065,-0.4 0.267,-0.358c0.207,0.043 0.11,0.35 0.096,0.441c-0.74,4.783 -3.302,7.47 -5.513,12.332c-0.007,0.016 -1.057,-0.09 -1.658,-0.004c-0.975,0.14 -1.753,-0.248 -1.759,-0.364c-0.173,-3.441 -2.124,-7.106 -1.465,-11.159c0.017,-0.105 0.025,-0.384 0.233,-0.366c0.24,0.022 0.121,0.148 0.209,0.958c0.174,1.605 0.843,2.978 1.485,4.195c0.795,1.506 1.277,2.42 1.587,3.316Z" style="fill:#dbdab1;"/><path d="M244.871,326.974c0.229,-1.924 0.958,-3.525 2.51,-6.077c0.59,-0.97 1.412,-2.32 1.751,-3.955c0.014,-0.068 -0.004,-0.15 0.04,-0.204c0.105,-0.131 0.279,-0.195 0.384,-0.326c0.08,0.149 0.247,0.239 0.327,0.388c0.004,0.006 0.008,0.668 -0.079,1.304c-0.54,3.937 -3.073,5.789 -2.429,11.354c0.005,0.045 0.187,0.756 -0.279,1.282c-0.431,0.486 -1.302,0.646 -1.91,0.012c-1.835,-1.912 -1.873,-1.868 -3.802,-3.681c-1.864,-1.75 -3.725,-3.663 -4.379,-6.702c-0.017,-0.078 -0.07,-0.158 -0.048,-0.235c0.072,-0.249 0.173,-0.199 0.244,-0.448c0.13,0.109 0.318,0.134 0.448,0.243c0.026,0.022 0.655,1.949 2.789,3.75c1.603,1.353 2.92,2.081 4.433,3.295Zm-34.881,4.444c0.181,1.882 0.217,5.373 -1.607,9.456c-0.353,0.792 -1.512,0.886 -1.937,0.004c-1.496,-3.108 -2.193,-3.76 -5.299,-6.993c-1.922,-2 -3.865,-4.117 -4.266,-7.285c-0.012,-0.098 -0.073,-0.205 -0.033,-0.296c0.133,-0.302 0.258,-0.216 0.39,-0.517c0.142,0.163 0.375,0.227 0.517,0.389c0.131,0.151 0.026,2.241 3.09,5.189c2.432,2.339 4.661,3.819 6.483,6.704c1.126,-2.548 1.955,-4.906 1.672,-8.068c-0.035,-0.387 0.425,-0.616 0.71,-0.304c1.33,1.46 2.671,2.273 3.903,2.853c0.263,-2.941 1.569,-4.444 1.217,-6.818c-0.006,-0.043 -0.034,-0.088 -0.02,-0.13c0.033,-0.103 0.121,-0.183 0.154,-0.286c0.084,0.07 0.204,0.086 0.288,0.157c0.01,0.008 0.3,0.701 0.406,1.444c0.314,2.201 -0.344,3.612 0.049,6.439c0.047,0.345 0.415,1.519 -0.57,1.922c-0.248,0.102 -0.924,0.379 -3.006,-1.482c-0.891,-0.796 -1.503,-1.536 -2.141,-2.378Zm-103.224,-7.391c-0.112,0.319 -0.235,0.643 -0.366,0.947c-2.639,6.141 -6.291,6.22 -6.769,15.038c-0.003,0.06 0.103,0.994 -0.567,1.367c-0.571,0.318 -1.377,0.047 -1.558,-0.701c-1.036,-4.3 -1.176,-5.051 -4.067,-11.494c-1.984,-4.42 -3.127,-7.612 -1.832,-12.271c0.019,-0.067 0.011,-0.15 0.059,-0.201c0.073,-0.08 0.206,-0.088 0.279,-0.168c0.015,0.108 0.154,0.172 0.168,0.28c0.034,0.241 -1.011,3.29 0.666,7.539c1.457,3.69 3.676,6.472 5.462,11.328c0.87,-2.943 2.4,-4.663 4.608,-7.092c2.582,-2.84 3.409,-4.625 4.128,-7.352c0.089,-0.338 0.585,-0.245 0.551,0.097c-0.127,1.297 -0.513,4.673 1.215,6.843c1.301,1.635 3.132,2.165 6.513,3.651c-0.895,-2.597 -0.462,-5.201 -0.332,-8.674c0.129,-3.454 -0.501,-4.159 -0.485,-4.363c0.009,-0.131 0.069,-0.255 0.079,-0.386c0.095,0.091 0.244,0.112 0.34,0.204c0.15,0.142 0.438,1.095 0.468,1.193c1.232,4.075 -0.272,9.634 2.54,13.231c-0,0.001 0.506,0.474 0.289,1.064c-0.181,0.493 -0.777,0.751 -1.277,0.494c-6.015,-3.082 -6.71,-3.612 -7.236,-4.014c-2.257,-1.722 -2.921,-3.744 -2.876,-6.56Zm-71.485,12.037c2.493,-3.718 5.252,-4.877 6.518,-8.991c0.027,-0.089 0.065,-0.4 0.267,-0.358c0.207,0.043 0.11,0.35 0.096,0.441c-0.74,4.783 -4.169,6.721 -6.379,11.583c-0.007,0.016 -0.191,0.659 -0.792,0.745c-0.975,0.14 -1.028,-0.904 -1.033,-1.02c-0.173,-3.441 -2.85,-6.45 -2.191,-10.503c0.017,-0.105 0.025,-0.384 0.233,-0.366c0.24,0.022 0.121,0.148 0.209,0.958c0.174,1.605 0.843,2.978 1.485,4.195c0.795,1.506 1.277,2.42 1.587,3.316Z" style="fill:#c0b57e;"/></g></g></svg>