<?xml version="1.0" encoding="UTF-8" standalone="no"?>
<!DOCTYPE svg PUBLIC "-//W3C//DTD SVG 1.1//EN" "http://www.w3.org/Graphics/SVG/1.1/DTD/svg11.dtd">
<svg width="100%" height="100%" viewBox="0 0 300 345" version="1.1" xmlns="http://www.w3.org/2000/svg" xmlns:xlink="http://www.w3.org/1999/xlink" xml:space="preserve" xmlns:serif="http://www.serif.com/" style="fill-rule:evenodd;clip-rule:evenodd;stroke-linejoin:round;stroke-miterlimit:2;">
    <g>
        <g>
            <path d="M300,262.01L300,308.62C300,328.577 283.577,345 263.62,345L36.38,345C16.423,345 0,328.577 0,308.62L0,262.01C0,282.089 16.301,298.39 36.38,298.39L263.62,298.39C283.699,298.39 300,282.089 300,262.01Z" style="fill:#fff;"/>
            <path d="M300,262.01L300,308.62C300,328.577 283.577,345 263.62,345L36.38,345C16.423,345 0,328.577 0,308.62L0,262.01C0,282.089 16.301,298.39 36.38,298.39L263.62,298.39C283.699,298.39 300,282.089 300,262.01ZM150,330.528L234.196,298.566L65.805,298.566L150,330.528Z" style="fill:#151515;"/>
            <path d="M65.784,298.39L150,330.528L65.805,298.566L65.784,298.39ZM150,330.528L77.091,327.209L65.805,298.566L150,330.528Z" style="fill:#242424;"/>
            <g transform="matrix(-1,0,0,1,300,0)">
                <path d="M65.784,298.39L150,330.528L65.805,298.566L65.784,298.39ZM150,330.528L77.091,327.209L65.805,298.566L150,330.528Z" style="fill:#242424;"/>
            </g>
            <g>
                <g transform="matrix(0.997027,0.0770531,-0.0770531,0.997027,19.9211,-10.9649)">
                    <path d="M127.542,293.819C129.991,293.719 170.011,291.348 178.148,291.095C179.627,291.049 180.526,291.146 180.719,291.185C182.68,291.581 183.499,292.713 183.857,293.214C184.883,294.653 185.808,296.174 186.908,297.559C190.423,301.982 194.415,306.176 198.882,309.657C201.408,311.626 203.303,313.33 203.705,316.771C203.833,317.861 203.719,319.423 203.2,320.603C202.714,321.71 201.947,322.608 200.936,323.24C198.469,324.784 195.704,324.339 193.07,323.84C192.223,323.68 191.311,323.59 190.504,323.923C188.375,324.803 187.006,326.744 185.392,328.333C183.511,330.184 181.483,331.8 179.019,332.752C176.056,333.897 172.91,334.03 169.703,333.66C166.324,333.271 162.867,332.193 159.646,332.187C156.884,332.181 154.202,333.129 151.68,334.189C148.644,335.465 145.859,336.916 142.472,336.944C139.249,336.971 136.475,335.461 133.709,334.064C131.708,333.053 129.624,332.148 127.479,331.488C125.414,330.854 123.202,330.539 121.066,330.982C119.971,331.209 119.007,331.82 117.933,332.117C114.44,333.083 110.145,332.343 108.021,328.859C106.718,326.721 106.548,324.537 107.086,322.4C107.559,320.522 108.762,318.654 109.837,317.149C113.265,312.35 116.562,307.651 119.369,302.43C120.733,299.893 122.085,297.483 124.086,295.383C124.991,294.433 126.231,293.872 127.542,293.819Z" style="fill-opacity:0.25;"/>
                </g>
                <g transform="matrix(0.997027,0.0770531,-0.0770531,0.997027,19.9211,-10.9649)">
                    <path d="M127.747,298.872C126.065,300.637 124.97,302.692 123.823,304.825C120.913,310.237 117.505,315.114 113.953,320.088C112.728,321.804 111.034,324.085 112.339,326.227C113.228,327.685 115.123,327.647 116.585,327.243C117.764,326.916 118.836,326.279 120.039,326.03C123.01,325.414 126.094,325.772 128.965,326.654C131.382,327.398 133.734,328.411 135.989,329.55C138.044,330.588 140.036,331.907 142.431,331.887C145.131,331.865 147.301,330.544 149.721,329.527C152.859,328.208 156.219,327.122 159.657,327.129C165.325,327.141 171.704,330.157 177.196,328.035C181.726,326.284 184.011,321.135 188.572,319.25C190.286,318.541 192.214,318.531 194.011,318.871C195.428,319.14 196.927,319.783 198.254,318.953C198.737,318.65 198.74,317.848 198.682,317.359C198.461,315.471 197.16,314.727 195.773,313.646C190.992,309.92 186.711,305.44 182.949,300.705C181.794,299.252 180.817,297.661 179.739,296.151C179.524,295.848 130.466,298.761 127.747,298.872Z" style="fill:#6b1010;"/>
                </g>
                <g transform="matrix(0.997027,0.0770531,-0.0770531,0.997027,19.9211,-10.9649)">
                    <path d="M151.136,297.555C152.648,297.47 154.171,297.385 155.686,297.3L161.775,327.255C161.06,327.178 160.353,327.131 159.657,327.129C157.8,327.126 155.967,327.44 154.178,327.938L151.136,297.555ZM132.116,298.634C133.978,298.529 136.324,298.395 138.973,298.244L128.504,326.518C125.765,325.736 122.852,325.447 120.039,326.03C119.977,326.043 119.915,326.057 119.854,326.071L132.116,298.634ZM195.089,319.115C194.727,319.03 194.366,318.939 194.011,318.871C192.214,318.531 190.286,318.541 188.572,319.25C188.397,319.322 188.226,319.398 188.058,319.48C180.507,313.142 174.652,305.314 169.88,296.535C171.587,296.447 170.386,295.902 171.729,295.84C178.574,304.426 186.391,312.157 195.089,319.115Z" style="fill:#760a0a;"/>
                </g>
                <g transform="matrix(0.997027,0.0770531,-0.0770531,0.997027,19.9211,-10.9649)">
                    <path d="M183.254,323.304C181.415,325.173 179.63,327.094 177.196,328.035C174.142,329.215 170.814,328.806 167.486,328.209L160.099,297.057C161.559,296.977 162.991,296.899 164.374,296.825C170.299,307.575 176.414,317.332 183.254,323.304ZM149.619,329.57C147.24,330.581 145.093,331.865 142.431,331.887C140.083,331.906 138.122,330.639 136.109,329.611C139.187,321.397 144.077,303.827 145.195,297.89C146.009,297.844 146.835,297.797 147.67,297.75C147.642,308.109 148.751,318.573 149.619,329.57Z" style="fill:#570202;"/>
                </g>
                <g transform="matrix(1.72271,-1.57034e-16,-3.14069e-16,1.72271,45.7371,-191.756)">
                    <path d="M79.436,289.915C79.154,290.557 78.819,291.199 78.43,291.841C77.225,293.834 74.975,293.692 74.234,292.044C74.009,291.542 73.771,291.134 73.509,290.825C73.272,290.544 73.035,290.353 72.75,290.326C72.489,290.301 72.217,290.4 71.921,290.56C71.463,290.809 70.984,291.208 70.475,291.733C69.597,292.637 68.634,292.864 67.896,292.653C67.336,292.493 66.78,292.084 66.421,291.235C66.199,290.707 65.965,290.283 65.706,289.966C65.494,289.707 65.291,289.524 65.035,289.513C64.776,289.502 64.512,289.629 64.218,289.818C63.748,290.12 63.256,290.586 62.732,291.195C62.725,291.203 62.717,291.212 62.709,291.22C62.133,291.855 61.667,292.153 60.807,292.189C59.914,292.226 59.448,291.961 58.822,291.369C58.813,291.361 58.805,291.353 58.797,291.345C58.228,290.778 57.703,290.351 57.211,290.085C56.904,289.919 56.631,289.813 56.373,289.843C56.119,289.874 55.931,290.071 55.739,290.346C55.504,290.681 55.303,291.122 55.122,291.665C54.829,292.539 54.305,292.989 53.759,293.191C53.04,293.458 52.062,293.305 51.118,292.469C50.57,291.984 50.063,291.624 49.586,291.41C49.279,291.272 49.001,291.195 48.742,291.24C48.46,291.288 48.239,291.496 48.023,291.795C47.786,292.123 47.58,292.547 47.393,293.066C46.779,294.765 44.546,295.077 43.193,293.182C42.337,291.982 41.686,290.766 41.234,289.538C41.858,288.683 42.463,287.808 43.043,286.903C43.803,285.72 44.528,284.58 45.581,283.633C47.159,283.691 75.682,284.199 75.793,284.384C76.349,285.306 76.844,286.271 77.447,287.163C78.078,288.097 78.74,289.017 79.436,289.915Z" style="fill:#190100;fill-opacity:0.25;"/>
                </g>
            </g>
            <g>
                <path d="M46.796,345L36.38,345C16.423,345 0,328.577 0,308.62L0,262.01C0,282.089 16.301,298.39 36.38,298.39L150,298.39C123.918,298.39 47.666,319.128 46.796,345Z" style="fill:#2d2d2d;"/>
                <path d="M38.839,298.39L49.33,298.39C33.874,305.41 21.759,317.919 13.566,336.871C17.87,320.146 26.41,307.429 38.839,298.39ZM131.655,298.39C84.412,299.199 43.142,307.229 24.933,343.132C23.802,342.753 22.695,342.318 21.615,341.833C30.819,316.761 49.41,303.37 74.764,298.39L131.655,298.39Z" style="fill:#111;"/>
                <path d="M144.519,298.632C114.63,301.017 47.611,320.754 46.796,345L36.38,345C49.098,305.242 98.822,300.72 144.519,298.632Z" style="fill:#6b1010;"/>
                <path d="M-0,231.484C7.181,263.565 47.813,271.768 81.422,270.809C84.457,270.708 87.432,271.665 89.838,273.516C105.939,285.693 127.317,291.575 150,298.39L36.38,298.39C16.301,298.39 0,282.089 0,262.01L-0,231.484Z" style="fill:#141414;"/>
                <path d="M-0,252.038L-0,231.484C7.183,263.571 47.83,271.772 81.443,270.808C84.494,270.706 87.484,271.673 89.897,273.542C98.26,279.886 108.067,284.507 118.739,288.447L36.38,288.418C16.301,288.418 -0,272.117 -0,252.038Z" style="fill:#2d2d2d;"/>
                <path d="M73.958,270.866C76.491,270.9 79.003,270.878 81.477,270.807C84.497,270.717 87.455,271.674 89.85,273.516C105.946,285.695 127.32,291.576 150,298.39C120.298,297.925 94.87,288.911 73.958,270.866Z" style="fill:#891d1d;"/>
                <path d="M118.739,288.447C128.569,292.075 139.135,295.126 150,298.39C132.384,298.114 116.272,294.831 101.713,288.441L118.739,288.447Z" style="fill:#6b1010;"/>
            </g>
            <g transform="matrix(-1,0,0,1,300,0)">
                <path d="M46.796,345L36.38,345C16.423,345 0,328.577 0,308.62L0,262.01C0,282.089 16.301,298.39 36.38,298.39L150,298.39C123.918,298.39 47.666,319.128 46.796,345Z" style="fill:#2d2d2d;"/>
                <path d="M38.839,298.39L49.33,298.39C33.874,305.41 21.759,317.919 13.566,336.871C17.87,320.146 26.41,307.429 38.839,298.39ZM131.655,298.39C84.412,299.199 43.142,307.229 24.933,343.132C23.802,342.753 22.695,342.318 21.615,341.833C30.819,316.761 49.41,303.37 74.764,298.39L131.655,298.39Z" style="fill:#111;"/>
                <path d="M144.519,298.632C114.63,301.017 47.611,320.754 46.796,345L36.38,345C49.098,305.242 98.822,300.72 144.519,298.632Z" style="fill:#6b1010;"/>
                <path d="M-0,231.484C7.181,263.565 47.813,271.768 81.422,270.809C84.457,270.708 87.432,271.665 89.838,273.516C105.939,285.693 127.317,291.575 150,298.39L36.38,298.39C16.301,298.39 0,282.089 0,262.01L-0,231.484Z" style="fill:#141414;"/>
                <path d="M-0,252.038L-0,231.484C7.183,263.571 47.83,271.772 81.443,270.808C84.494,270.706 87.484,271.673 89.897,273.542C98.26,279.886 108.067,284.507 118.739,288.447L36.38,288.418C16.301,288.418 -0,272.117 -0,252.038Z" style="fill:#2d2d2d;"/>
                <path d="M73.958,270.866C76.491,270.9 79.003,270.878 81.477,270.807C84.497,270.717 87.455,271.674 89.85,273.516C105.946,285.695 127.32,291.576 150,298.39C120.298,297.925 94.87,288.911 73.958,270.866Z" style="fill:#891d1d;"/>
                <path d="M118.739,288.447C128.569,292.075 139.135,295.126 150,298.39C132.384,298.114 116.272,294.831 101.713,288.441L118.739,288.447Z" style="fill:#6b1010;"/>
            </g>
            <g>
                <g transform="matrix(1.72271,-1.57034e-16,-3.14069e-16,1.72271,45.7371,-191.756)">
                    <path d="M60.226,275.982C61.021,276.054 61.497,275.476 61.657,274.259C61.723,273.752 62.686,273.591 62.783,274.153C63.587,278.777 64.882,280.34 67.052,276.448C67.308,275.877 67.986,275.897 68.141,276.372C69.468,280.445 72.975,277.837 72.966,274.057C72.963,273.062 73.997,272.554 74.763,273.412C79.689,278.921 80.697,284.462 77.325,290.039C76.768,290.96 75.756,291.142 75.413,290.38C73.997,287.23 72.013,287.159 69.547,289.699C68.789,290.48 68.02,290.566 67.612,289.598C66.218,286.294 64.235,286.336 61.753,289.217C61.445,289.556 61.212,289.745 60.753,289.764C60.277,289.784 60.043,289.611 59.709,289.296C57.015,286.612 55.035,286.72 53.896,290.121C53.563,291.116 52.79,291.089 51.974,290.368C49.323,288.022 47.35,288.244 46.177,291.493C45.893,292.279 44.87,292.173 44.245,291.297C40.459,285.993 41.043,280.392 45.536,274.524C46.236,273.611 47.305,274.038 47.378,275.03C47.656,278.8 51.35,281.135 52.365,276.973C52.483,276.488 53.157,276.415 53.456,276.965C55.915,280.681 57.087,279.025 57.538,274.353C57.593,273.785 58.564,273.873 58.669,274.373C58.921,275.575 59.439,276.113 60.226,275.982Z" style="fill:#bd0c01;"/>
                </g>
                <g transform="matrix(1.72271,-1.57034e-16,-3.14069e-16,1.72271,45.7371,-191.756)">
                    <path d="M67.538,281.218C67.434,281.315 67.333,281.403 67.235,281.481C66.341,282.193 65.467,282.393 64.695,282.349C63.77,282.295 62.844,281.888 62.069,280.903C61.809,280.573 61.551,280.128 61.31,279.572C61.002,279.652 60.674,279.692 60.327,279.688C59.978,279.719 59.647,279.704 59.333,279.646L57.816,276.354L57.231,276.52C57.358,275.899 57.459,275.172 57.538,274.353C57.593,273.785 58.564,273.873 58.669,274.373C58.921,275.575 59.439,276.113 60.226,275.982C61.021,276.054 61.497,275.476 61.657,274.259C61.723,273.752 62.686,273.591 62.783,274.153C63.587,278.777 64.882,280.34 67.052,276.448C67.157,276.213 67.334,276.078 67.516,276.034L67.538,281.218ZM72.899,274.97C72.943,274.676 72.966,274.37 72.966,274.057C72.963,273.062 73.997,272.554 74.763,273.412C79.689,278.921 80.697,284.462 77.325,290.039C77.085,290.434 76.762,290.694 76.444,290.801L76.076,286.797C76.426,285.885 76.63,284.975 76.69,284.062C76.573,282.277 75.91,280.504 74.761,278.73L73.99,274.664L72.899,274.97ZM68.406,290.303C68.086,290.284 67.807,290.062 67.612,289.598C66.218,286.294 64.235,286.336 61.753,289.217C61.445,289.556 61.212,289.745 60.753,289.764L60.632,286.669C62.285,285.075 63.888,284.468 65.201,284.525C66.511,284.582 67.863,285.215 68.977,286.775L68.406,290.303ZM53.186,290.879C52.834,290.941 52.41,290.754 51.974,290.368C49.323,288.022 47.35,288.244 46.177,291.493C46.014,291.944 45.607,292.102 45.172,291.988L45.244,287.969C46.091,286.989 47.078,286.478 48.083,286.304C49.286,286.096 50.74,286.386 52.321,287.409L53.186,290.879ZM44.965,275.298C45.148,275.04 45.338,274.782 45.536,274.524C46.236,273.611 47.305,274.038 47.378,275.03C47.656,278.8 51.35,281.135 52.365,276.973C52.429,276.71 52.656,276.568 52.899,276.581L53.248,281.762C52.271,282.705 51.083,282.972 49.988,282.859C48.928,282.75 47.794,282.205 46.849,281.195C46.487,280.809 46.15,280.35 45.857,279.829L46.305,275.599L44.965,275.298Z" style="fill:#910800;"/>
                </g>
                <g transform="matrix(1.72271,-1.57034e-16,-3.14069e-16,1.72271,45.7371,-191.756)">
                    <path d="M60.632,286.669C58.859,285.204 57.217,284.723 55.915,284.879C54.613,285.035 53.313,285.769 52.321,287.409C50.74,286.386 49.286,286.096 48.083,286.304C47.078,286.478 46.091,286.989 45.244,287.969C44.725,286.873 44.429,285.763 44.356,284.635L44.355,284.632C44.456,283.056 44.97,281.457 45.857,279.829C46.15,280.35 46.487,280.809 46.849,281.195C47.794,282.205 48.928,282.75 49.988,282.859C51.083,282.972 52.271,282.705 53.248,281.762C53.358,281.851 53.466,281.931 53.57,282.002C54.515,282.644 55.401,282.777 56.168,282.674C57.086,282.55 57.978,282.074 58.677,281.033C58.911,280.684 59.134,280.22 59.333,279.646C59.647,279.704 59.978,279.719 60.327,279.688C60.674,279.692 61.002,279.652 61.31,279.572C61.551,280.128 61.809,280.573 62.069,280.903C62.844,281.888 63.77,282.295 64.695,282.349C65.467,282.393 66.341,282.193 67.235,281.481C67.333,281.403 67.434,281.315 67.538,281.218C68.583,282.084 69.788,282.26 70.872,282.064C71.92,281.875 73.009,281.245 73.875,280.167C74.206,279.755 74.508,279.271 74.761,278.73C75.91,280.504 76.573,282.277 76.69,284.062C76.63,284.975 76.426,285.885 76.076,286.797C75.157,285.883 74.134,285.449 73.119,285.351C71.903,285.235 70.475,285.635 68.977,286.775C67.863,285.215 66.511,284.582 65.201,284.525C63.888,284.468 62.285,285.075 60.632,286.669Z" style="fill:#db0d00;"/>
                </g>
                <g transform="matrix(1.72271,-1.57034e-16,-3.14069e-16,1.72271,45.7371,-191.756)">
                    <path d="M44.538,283.296C44.775,282.154 45.22,280.999 45.857,279.829C46.07,280.208 46.307,280.554 46.559,280.864L44.538,283.296ZM50.636,282.88C51.538,282.843 52.461,282.522 53.248,281.762C53.358,281.851 53.466,281.931 53.57,282.002C54.115,282.372 54.64,282.573 55.135,282.657L51.555,286.965C50.271,286.304 49.089,286.13 48.083,286.304C47.964,286.325 47.845,286.35 47.727,286.38L50.636,282.88ZM56.592,282.59C57.358,282.389 58.087,281.913 58.677,281.033C58.911,280.684 59.134,280.22 59.333,279.646C59.647,279.704 59.978,279.719 60.327,279.688C60.504,279.69 60.676,279.681 60.843,279.661L56.528,284.853C56.317,284.846 56.112,284.855 55.915,284.879C55.338,284.948 54.761,285.131 54.211,285.456L56.592,282.59ZM63.575,282.092C63.942,282.246 64.318,282.327 64.695,282.349C65.467,282.393 66.341,282.193 67.235,281.481C67.333,281.403 67.434,281.315 67.538,281.218C67.979,281.584 68.448,281.826 68.925,281.97L66.568,284.807C66.115,284.634 65.656,284.545 65.201,284.525C63.888,284.468 62.285,285.075 60.632,286.669C60.457,286.524 60.282,286.389 60.11,286.262L63.575,282.092ZM74.829,278.837C75.572,280.002 76.104,281.167 76.408,282.336L73.804,285.47C73.576,285.412 73.347,285.373 73.119,285.351C71.903,285.235 70.475,285.635 68.977,286.775C68.86,286.611 68.74,286.457 68.617,286.313L72.966,281.079C73.287,280.823 73.593,280.519 73.875,280.167C74.102,279.884 74.315,279.568 74.508,279.223L74.829,278.837ZM76.639,283.528C76.661,283.706 76.679,283.884 76.69,284.062C76.63,284.975 76.426,285.885 76.076,286.797C75.648,286.371 75.198,286.05 74.736,285.818L76.639,283.528Z" style="fill:#ff0f00;"/>
                </g>
                <g transform="matrix(1.72271,-1.57034e-16,-3.14069e-16,1.72271,45.7371,-189.802)">
                    <path d="M60.686,275.941C61.207,275.782 61.53,275.22 61.657,274.259C61.723,273.752 62.686,273.591 62.783,274.153C63.587,278.777 64.882,280.34 67.052,276.448C67.308,275.877 67.986,275.897 68.141,276.372C69.468,280.445 72.975,277.837 72.966,274.057C72.963,273.062 73.997,272.554 74.763,273.412C79.689,278.921 80.697,284.462 77.325,290.039C76.768,290.96 75.756,291.142 75.413,290.38C73.997,287.23 72.013,287.159 69.547,289.699C68.789,290.48 68.02,290.566 67.612,289.598C66.218,286.294 64.235,286.336 61.753,289.217C61.445,289.556 61.212,289.745 60.753,289.764C60.277,289.784 60.043,289.611 59.709,289.296C57.015,286.612 55.035,286.72 53.896,290.121C53.563,291.116 52.79,291.089 51.974,290.368C49.323,288.022 47.35,288.244 46.177,291.493C45.893,292.279 44.87,292.173 44.245,291.297C40.459,285.993 41.043,280.392 45.536,274.524C46.236,273.611 47.305,274.038 47.378,275.03C47.656,278.8 51.35,281.135 52.365,276.973C52.483,276.488 53.157,276.415 53.456,276.965C55.915,280.681 57.087,279.025 57.538,274.353C57.593,273.785 58.564,273.873 58.669,274.373C58.881,275.383 59.281,275.925 59.87,275.994C59.95,276.003 60.034,276.004 60.121,275.996C60.155,275.993 60.19,275.988 60.226,275.982C60.245,275.984 60.265,275.985 60.284,275.986C60.429,275.994 60.563,275.978 60.686,275.941ZM60.275,277.27C59.66,277.337 59.129,277.189 58.671,276.867C58.609,276.823 58.549,276.775 58.489,276.723C58.261,277.829 57.961,278.663 57.612,279.184C57.158,279.86 56.592,280.188 55.997,280.268C55.492,280.336 54.913,280.229 54.291,279.806C53.937,279.566 53.54,279.192 53.109,278.664C52.355,280.122 51.186,280.559 50.119,280.449C49.328,280.367 48.492,279.939 47.785,279.185C47.035,278.383 46.416,277.197 46.181,275.805C42.462,280.92 41.961,285.805 45.214,290.446C46.005,288.651 47.109,287.775 48.302,287.568C49.55,287.352 51.095,287.886 52.797,289.383C53.588,287.265 54.786,286.306 56.067,286.153C57.311,286.004 58.884,286.666 60.61,288.381C60.638,288.407 60.671,288.436 60.7,288.461C60.73,288.431 60.767,288.394 60.795,288.363C62.379,286.531 63.895,285.753 65.146,285.807C66.435,285.862 67.703,286.728 68.652,288.779C70.235,287.157 71.735,286.508 72.996,286.629C74.201,286.744 75.369,287.534 76.293,289.263C79.185,284.389 78.315,279.556 74.218,274.738C74.089,276.144 73.562,277.373 72.875,278.23C72.228,279.036 71.426,279.526 70.643,279.668C69.588,279.859 68.389,279.511 67.527,278.115C67.138,278.675 66.77,279.077 66.435,279.344C65.847,279.813 65.278,279.963 64.769,279.934C64.169,279.899 63.58,279.615 63.077,278.976C62.688,278.483 62.327,277.674 62.016,276.588C61.96,276.645 61.902,276.698 61.844,276.746C61.412,277.103 60.893,277.291 60.275,277.27Z" style="fill:#565656;"/>
                </g>
                <g transform="matrix(1.72271,-1.57034e-16,-3.14069e-16,1.72271,45.7371,-191.756)">
                    <path d="M60.686,275.941C61.207,275.782 61.53,275.22 61.657,274.259C61.723,273.752 62.686,273.591 62.783,274.153C63.587,278.777 64.882,280.34 67.052,276.448C67.308,275.877 67.986,275.897 68.141,276.372C69.468,280.445 72.975,277.837 72.966,274.057C72.963,273.062 73.997,272.554 74.763,273.412C79.689,278.921 80.697,284.462 77.325,290.039C76.768,290.96 75.756,291.142 75.413,290.38C73.997,287.23 72.013,287.159 69.547,289.699C68.789,290.48 68.02,290.566 67.612,289.598C66.218,286.294 64.235,286.336 61.753,289.217C61.445,289.556 61.212,289.745 60.753,289.764C60.277,289.784 60.043,289.611 59.709,289.296C57.015,286.612 55.035,286.72 53.896,290.121C53.563,291.116 52.79,291.089 51.974,290.368C49.323,288.022 47.35,288.244 46.177,291.493C45.893,292.279 44.87,292.173 44.245,291.297C40.459,285.993 41.043,280.392 45.536,274.524C46.236,273.611 47.305,274.038 47.378,275.03C47.656,278.8 51.35,281.135 52.365,276.973C52.483,276.488 53.157,276.415 53.456,276.965C55.915,280.681 57.087,279.025 57.538,274.353C57.593,273.785 58.564,273.873 58.669,274.373C58.881,275.383 59.281,275.925 59.87,275.994C59.95,276.003 60.034,276.004 60.121,275.996C60.155,275.993 60.19,275.988 60.226,275.982C60.245,275.984 60.265,275.985 60.284,275.986C60.429,275.994 60.563,275.978 60.686,275.941ZM60.275,277.27C59.66,277.337 59.129,277.189 58.671,276.867C58.609,276.823 58.549,276.775 58.489,276.723C58.261,277.829 57.961,278.663 57.612,279.184C57.158,279.86 56.592,280.188 55.997,280.268C55.492,280.336 54.913,280.229 54.291,279.806C53.937,279.566 53.54,279.192 53.109,278.664C52.355,280.122 51.186,280.559 50.119,280.449C49.328,280.367 48.492,279.939 47.785,279.185C47.035,278.383 46.416,277.197 46.181,275.805C42.462,280.92 41.961,285.805 45.214,290.446C46.005,288.651 47.109,287.775 48.302,287.568C49.55,287.352 51.095,287.886 52.797,289.383C53.588,287.265 54.786,286.306 56.067,286.153C57.311,286.004 58.884,286.666 60.61,288.381C60.638,288.407 60.671,288.436 60.7,288.461C60.73,288.431 60.767,288.394 60.795,288.363C62.379,286.531 63.895,285.753 65.146,285.807C66.435,285.862 67.703,286.728 68.652,288.779C70.235,287.157 71.735,286.508 72.996,286.629C74.201,286.744 75.369,287.534 76.293,289.263C79.185,284.389 78.315,279.556 74.218,274.738C74.089,276.144 73.562,277.373 72.875,278.23C72.228,279.036 71.426,279.526 70.643,279.668C69.588,279.859 68.389,279.511 67.527,278.115C67.138,278.675 66.77,279.077 66.435,279.344C65.847,279.813 65.278,279.963 64.769,279.934C64.169,279.899 63.58,279.615 63.077,278.976C62.688,278.483 62.327,277.674 62.016,276.588C61.96,276.645 61.902,276.698 61.844,276.746C61.412,277.103 60.893,277.291 60.275,277.27Z" style="fill:#737373;"/>
                </g>
            </g>
        </g>
    </g>
</svg>
