<?xml version="1.0" encoding="UTF-8" standalone="no"?><!DOCTYPE svg PUBLIC "-//W3C//DTD SVG 1.1//EN" "http://www.w3.org/Graphics/SVG/1.1/DTD/svg11.dtd"><svg width="100%" height="100%" viewBox="0 0 1250 1438" version="1.1" xmlns="http://www.w3.org/2000/svg" xmlns:xlink="http://www.w3.org/1999/xlink" xml:space="preserve" xmlns:serif="http://www.serif.com/" style="fill-rule:evenodd;clip-rule:evenodd;stroke-linejoin:round;stroke-miterlimit:2;"><g id="Pirate"><g id="ClothingPirate"><path d="M754.581,1295.93c14.236,-15.329 22.724,-33.356 23.404,-52.684l320.432,0c83.156,0 151.583,-68.427 151.583,-151.583l0,194.25c0,83.156 -68.427,151.583 -151.583,151.583l-946.834,0c-83.156,0 -151.583,-68.427 -151.583,-151.583l-0,-194.207c-0,83.132 68.408,151.54 151.542,151.54l320.473,0c1.974,56.117 69.767,101.265 152.985,101.265c23.955,0 46.632,-3.741 66.829,-10.408l33.531,46.767l-5.52,-58.713c3.397,-1.823 6.678,-3.741 9.833,-5.75l30.239,17.788l-5.331,-38.265Z" style="fill:#2e5c70;"/><path d="M711.236,1361.17l-690.999,-0c-12.857,-22.23 -20.237,-47.95 -20.237,-75.258l-0,-7.618l482.32,0c22.215,38.733 77.753,66.216 142.68,66.216c23.955,0 46.632,-3.741 66.829,-10.408l19.407,27.068Zm43.345,-65.241c5.151,-5.547 9.55,-11.447 13.099,-17.635l482.32,0l0,7.618c0,27.308 -7.38,53.028 -20.237,75.258l-506.255,-0l-3.668,-39.014c3.397,-1.823 6.678,-3.741 9.833,-5.75l30.239,17.788l-5.331,-38.265Zm-754.581,-100.51l-0,-103.714c-0,39.961 15.807,76.52 41.459,103.714l-41.459,0Zm1208.52,0c25.666,-27.203 41.483,-63.778 41.483,-103.757l0,103.757l-41.483,0Z" style="fill:#c4e6f5;"/><path d="M699.418,1344.69c-22.317,7.853 -47.604,12.323 -74.418,12.323c-54.21,0 -102.177,-18.269 -131.976,-45.832c-20.532,-18.992 -32.655,-42.407 -33.506,-67.606l25.021,-0c0.891,18.433 10.395,35.317 25.461,49.253c25.914,23.97 67.858,39.185 115,39.185c21.095,0 41.148,-3.046 59.191,-8.561l15.227,21.238Zm52.826,-65.53c7.857,-10.81 12.6,-22.827 13.217,-35.585l25.021,-0c-0.851,25.199 -12.974,48.614 -33.506,67.606c-0.08,0.074 -0.16,0.148 -0.24,0.221l-4.492,-32.242Zm-10.608,44.286c-6.341,4.398 -13.21,8.449 -20.538,12.1l-2.406,-25.596l22.944,13.496Z" style="fill:#102f3d;"/><g><path d="M367.6,1437.5l-216.017,0c-83.156,0 -151.583,-68.427 -151.583,-151.583l-0,-194.207c-0,83.132 68.408,151.54 151.542,151.54l182.723,0l33.335,194.25Z" style="fill:#5b1525;"/><path d="M89.436,1424.02c-52.536,-23.915 -89.436,-77.038 -89.436,-138.103l-0,-194.207c-0,71.105 50.047,131.439 116.549,147.408l-27.113,184.902Z" style="fill:#490b19;"/><path d="M12.5,1178.29c-4.608,-7.337 -10.114,-17.074 -12.5,-27.838l-0,-58.745c-0,83.132 68.408,151.54 151.542,151.54l182.723,0l33.335,194.25l-12.683,0c0,0 -31.189,-181.75 -31.189,-181.75l-172.186,0c-58.307,0 -109.923,-31.087 -139.042,-77.457Z" style="fill:#d08802;"/><path d="M347.943,1437.5l-30.01,-174.876l-166.391,-0c-60.744,-0 -114.527,-32.367 -144.863,-80.675c-2.171,-3.458 -4.515,-7.416 -6.679,-11.747l-0,-19.747c2.386,10.764 7.892,20.501 12.5,27.838c29.119,46.37 80.735,77.457 139.042,77.457l172.186,0l-0,6.874c-0,-0 0.321,-0.852 0.827,-2.053l30.362,176.929l-6.974,-0Z" style="fill:#3c141d;"/><g><path d="M293.64,1324.43l-84.333,7.903l1.992,21.255l84.332,-7.903l-1.991,-21.255Z" style="fill:#a6d5ea;"/><path d="M203.508,1358.32c-1.02,0.456 -2.13,0.755 -3.303,0.865c-5.77,0.54 -10.893,-3.705 -11.434,-9.475c-0.541,-5.77 3.705,-10.894 9.475,-11.435c1.173,-0.109 2.319,-0.022 3.405,0.237c1.374,-4.33 5.226,-7.641 10.03,-8.091l80,-7.497c4.735,-0.444 9.077,2.015 11.263,5.913c0.858,-0.323 1.773,-0.539 2.73,-0.629c5.77,-0.54 10.894,3.705 11.434,9.475c0.541,5.77 -3.705,10.894 -9.475,11.435c-0.956,0.089 -1.895,0.047 -2.798,-0.111c-1.425,4.237 -5.235,7.459 -9.969,7.903l-80,7.497c-4.804,0.45 -9.204,-2.088 -11.358,-6.087Zm9.644,-21.228l1.385,14.791l78.325,-7.34l-1.383,-14.791l-78.327,7.34Z" style="fill:#3c141d;"/><path d="M203.068,1353.63c-1.019,0.456 -2.129,0.755 -3.302,0.865c-5.77,0.541 -10.893,-3.705 -11.434,-9.475c-0.541,-5.77 3.705,-10.894 9.475,-11.434c1.173,-0.11 2.319,-0.022 3.405,0.236c1.374,-4.33 5.226,-7.641 10.03,-8.091l80,-7.497c4.734,-0.444 9.077,2.015 11.263,5.914c0.858,-0.324 1.773,-0.54 2.73,-0.629c5.77,-0.541 10.893,3.704 11.434,9.474c0.541,5.771 -3.705,10.894 -9.475,11.435c-0.956,0.089 -1.895,0.048 -2.799,-0.111c-1.424,4.237 -5.234,7.459 -9.968,7.903l-80,7.497c-4.804,0.45 -9.205,-2.088 -11.359,-6.087Zm10.178,-15.532l0.852,9.095l78.325,-7.34l-0.851,-9.095l-78.326,7.34Z" style="fill:#d08802;"/><path d="M316.413,1331.47c0.121,0.495 0.207,1.004 0.256,1.526c0.541,5.771 -3.705,10.894 -9.475,11.435c-0.956,0.089 -1.895,0.048 -2.799,-0.111c-1.424,4.237 -5.234,7.459 -9.968,7.903l-80,7.497c-4.804,0.45 -9.205,-2.088 -11.359,-6.087c-1.019,0.456 -2.129,0.755 -3.302,0.865c-5.77,0.541 -10.893,-3.705 -11.434,-9.475c-0.049,-0.522 -0.059,-1.039 -0.032,-1.547c1.217,4.972 5.93,8.44 11.178,7.948c1.173,-0.11 2.283,-0.409 3.302,-0.865c2.154,3.999 6.555,6.537 11.359,6.087l80,-7.497c4.734,-0.444 8.544,-3.666 9.968,-7.903c0.904,0.159 1.842,0.201 2.799,0.111c5.248,-0.492 9.235,-4.775 9.507,-9.887Zm-24.841,-0.709l-78.326,7.34l-0.288,-3.074l78.326,-7.34l0.288,3.074Z" style="fill:#ab6f00;"/></g><path d="M365.085,1189.38c-27.595,-33.659 -170.589,-45.872 -213.502,-45.872c-83.156,0 -151.583,-85.855 -151.583,-169.011l-0,117.215c-0,83.132 68.408,151.54 151.542,151.54l182.723,0l30.82,-53.872Z" style="fill:#410d19;"/><path d="M328.561,1181.95c-5.244,-1.854 -10.968,-3.6 -17.013,-5.288c-53.092,-14.824 -130.545,-20.66 -159.965,-20.66c-58.134,0 -109.888,-38.662 -139.083,-90.296c-6.154,-10.884 -9.468,-20.185 -12.5,-33.682l0,-57.533c0,83.156 68.427,169.011 151.583,169.011c42.913,0 185.907,12.213 213.502,45.872l-30.82,53.872l33.335,194.25l-12.683,0c0,0 -31.189,-181.75 -31.189,-181.75l-172.186,0c-58.307,0 -109.923,-31.087 -139.042,-77.457c-4.608,-7.337 -10.114,-17.074 -12.5,-27.838l-0,-58.745c-0,83.132 68.408,151.54 151.542,151.54l168.322,0l15.835,-27.679c-1.567,-0.089 -19.749,-7.698 -17.941,-14.284c1.166,-4.246 9.843,-18.836 10.803,-19.333Z" style="fill:#d08802;"/></g><g><path d="M882.4,1437.5l216.017,0c83.156,0 151.583,-68.427 151.583,-151.583l-0,-194.207c-0,83.132 -68.408,151.54 -151.542,151.54l-182.723,0l-33.335,194.25Z" style="fill:#5b1525;"/><path d="M1160.56,1424.02c52.536,-23.915 89.436,-77.038 89.436,-138.103l-0,-194.207c-0,71.105 -50.047,131.439 -116.549,147.408l27.113,184.902Z" style="fill:#490b19;"/><path d="M1237.5,1178.29c4.608,-7.337 10.114,-17.074 12.5,-27.838l-0,-58.745c-0,83.132 -68.408,151.54 -151.542,151.54l-182.723,0l-33.335,194.25l12.683,0c-0,0 31.189,-181.75 31.189,-181.75l172.186,0c58.307,0 109.922,-31.087 139.042,-77.457Z" style="fill:#d08802;"/><path d="M902.057,1437.5l30.01,-174.876l166.391,-0c60.744,-0 114.527,-32.367 144.863,-80.675c2.171,-3.458 4.515,-7.416 6.679,-11.747l-0,-19.747c-2.386,10.764 -7.892,20.501 -12.5,27.838c-29.12,46.37 -80.735,77.457 -139.042,77.457l-172.186,0l0,6.874c0,-0 -0.321,-0.852 -0.827,-2.053l-30.362,176.929l6.974,-0Z" style="fill:#3c141d;"/><g><path d="M1005.26,1301.79c24.463,4.638 40.559,28.263 35.922,52.726c-4.638,24.463 -28.263,40.559 -52.726,35.922c-24.463,-4.638 -40.559,-28.263 -35.921,-52.726c4.637,-24.463 28.263,-40.559 52.725,-35.922Z" style="fill:#3c141d;"/><path d="M1006.6,1294.75c24.463,4.637 40.559,28.263 35.922,52.726c-4.638,24.463 -28.263,40.558 -52.726,35.921c-24.463,-4.637 -40.559,-28.263 -35.922,-52.726c4.638,-24.463 28.263,-40.558 52.726,-35.921Z" style="fill:#a66c00;"/><g><path d="M991.751,1321.55c3.645,0.691 6.043,4.211 5.352,7.856c-0.691,3.645 -4.211,6.043 -7.856,5.352c-3.645,-0.691 -6.043,-4.211 -5.352,-7.856c0.691,-3.645 4.211,-6.043 7.856,-5.352Z" style="fill:#7c5100;"/><path d="M991.347,1323.67c3.057,0.579 5.069,3.532 4.489,6.589c-0.579,3.057 -3.532,5.069 -6.589,4.489c-3.057,-0.579 -5.069,-3.532 -4.489,-6.589c0.579,-3.057 3.532,-5.069 6.589,-4.489Z" style="fill:#613f00;"/></g><g><path d="M1010.61,1325.12c3.645,0.691 6.043,4.211 5.352,7.856c-0.691,3.645 -4.211,6.043 -7.856,5.352c-3.645,-0.691 -6.043,-4.211 -5.352,-7.856c0.691,-3.645 4.211,-6.043 7.856,-5.352Z" style="fill:#7c5100;"/><path d="M1010.21,1327.25c3.058,0.58 5.069,3.533 4.49,6.59c-0.58,3.057 -3.533,5.068 -6.59,4.489c-3.057,-0.58 -5.068,-3.532 -4.489,-6.589c0.58,-3.058 3.532,-5.069 6.589,-4.49Z" style="fill:#613f00;"/></g><g><path d="M988.287,1339.82c3.645,0.691 6.043,4.211 5.352,7.856c-0.691,3.645 -4.211,6.043 -7.856,5.352c-3.645,-0.691 -6.043,-4.211 -5.352,-7.856c0.691,-3.645 4.211,-6.043 7.856,-5.352Z" style="fill:#7c5100;"/><path d="M987.883,1341.95c3.057,0.58 5.069,3.532 4.489,6.589c-0.579,3.057 -3.532,5.069 -6.589,4.489c-3.057,-0.579 -5.069,-3.532 -4.489,-6.589c0.579,-3.057 3.532,-5.069 6.589,-4.489Z" style="fill:#613f00;"/></g><g><path d="M1007.15,1343.39c3.645,0.691 6.043,4.211 5.352,7.856c-0.691,3.645 -4.211,6.043 -7.856,5.352c-3.645,-0.691 -6.043,-4.211 -5.352,-7.856c0.691,-3.645 4.211,-6.043 7.856,-5.352Z" style="fill:#7c5100;"/><path d="M1006.75,1345.52c3.058,0.579 5.069,3.532 4.489,6.589c-0.579,3.057 -3.532,5.069 -6.589,4.489c-3.057,-0.579 -5.068,-3.532 -4.489,-6.589c0.58,-3.057 3.532,-5.069 6.589,-4.489Z" style="fill:#613f00;"/></g><path d="M990.5,1333.97c-0.916,-1.28 -0.621,-3.064 0.66,-3.98c1.28,-0.916 3.064,-0.621 3.98,0.66l10.692,14.94c0.916,1.281 0.621,3.064 -0.66,3.981c-1.28,0.916 -3.064,0.62 -3.98,-0.66l-10.692,-14.941Z" style="fill:#5b1525;"/><path d="M992.181,1347.31c-1.302,0.887 -3.078,0.55 -3.964,-0.751c-0.887,-1.302 -0.55,-3.078 0.751,-3.965l15.183,-10.344c1.302,-0.886 3.078,-0.549 3.964,0.752c0.887,1.301 0.55,3.077 -0.751,3.964l-15.183,10.344Z" style="fill:#791e33;"/><path d="M1006.6,1294.75c24.463,4.637 40.559,28.263 35.922,52.726c-4.638,24.463 -28.263,40.558 -52.726,35.921c-24.463,-4.637 -40.559,-28.263 -35.922,-52.726c4.638,-24.463 28.263,-40.558 52.726,-35.921Zm-2.328,12.281c-17.684,-3.352 -34.764,8.284 -38.116,25.968c-3.353,17.685 8.283,34.764 25.968,38.117c17.684,3.352 34.764,-8.284 38.116,-25.968c3.353,-17.685 -8.283,-34.764 -25.968,-38.117Z" style="fill:#d08802;"/><path d="M1042.91,1345.11c-0.106,0.788 -0.235,1.577 -0.384,2.367c-4.638,24.463 -28.263,40.558 -52.726,35.921c-24.463,-4.637 -40.559,-28.263 -35.922,-52.726c0.15,-0.79 0.32,-1.571 0.509,-2.343c-3.205,23.602 12.633,45.871 36.306,50.359c23.672,4.487 46.561,-10.441 52.217,-33.578Zm-12.305,-2.333c1.937,-16.815 -9.436,-32.543 -26.329,-35.745c-16.892,-3.202 -33.233,7.271 -37.584,23.629c0.09,-0.788 0.21,-1.579 0.361,-2.371c3.352,-17.685 20.432,-29.321 38.116,-25.968c17.685,3.352 29.321,20.432 25.968,38.116c-0.15,0.792 -0.328,1.572 -0.532,2.339Z" style="fill:#b27400;"/></g><path d="M884.915,1189.38c27.595,-33.659 170.589,-45.872 213.502,-45.872c83.156,0 151.583,-85.855 151.583,-169.011l-0,117.215c-0,83.132 -68.408,151.54 -151.542,151.54l-182.723,0l-30.82,-53.872Z" style="fill:#410d19;"/><path d="M921.439,1181.95c5.244,-1.854 10.968,-3.6 17.013,-5.288c53.092,-14.824 130.545,-20.66 159.965,-20.66c58.134,0 109.888,-38.662 139.083,-90.296c6.154,-10.884 9.468,-20.185 12.5,-33.682l-0,-57.533c-0,83.156 -68.427,169.011 -151.583,169.011c-42.913,0 -185.907,12.213 -213.502,45.872l30.82,53.872l-33.335,194.25l12.683,0c-0,0 31.189,-181.75 31.189,-181.75l172.186,0c58.307,0 109.922,-31.087 139.042,-77.457c4.608,-7.337 10.114,-17.074 12.5,-27.838l-0,-58.745c-0,83.132 -68.408,151.54 -151.542,151.54l-168.322,0l-15.835,-27.679c1.567,-0.089 19.749,-7.698 17.941,-14.284c-1.166,-4.246 -9.843,-18.836 -10.803,-19.333Z" style="fill:#d08802;"/></g></g></g></svg>