<?xml version="1.0" encoding="UTF-8" standalone="no"?><!DOCTYPE svg PUBLIC "-//W3C//DTD SVG 1.1//EN" "http://www.w3.org/Graphics/SVG/1.1/DTD/svg11.dtd"><svg width="100%" height="100%" viewBox="0 0 1250 1438" version="1.1" xmlns="http://www.w3.org/2000/svg" xmlns:xlink="http://www.w3.org/1999/xlink" xml:space="preserve" xmlns:serif="http://www.serif.com/" style="fill-rule:evenodd;clip-rule:evenodd;stroke-linejoin:round;stroke-miterlimit:2;"><g id="Tropical"><g id="ClothingTropical"><path d="M801.088,1243.25l297.329,0c83.156,0 151.583,-68.427 151.583,-151.583l0,194.25c0,83.156 -68.427,151.583 -151.583,151.583l-946.834,0c-83.156,0 -151.583,-68.427 -151.583,-151.583l-0,-194.207c-0,83.132 68.408,151.54 151.542,151.54l297.37,0c16.388,58.056 89.046,84.446 176.088,84.446c87.042,0 159.7,-26.39 176.088,-84.446Z" style="fill:#d8d8d8;"/><path d="M466.328,1243.25c10.358,31.904 80.036,67.779 158.672,67.779c78.636,0 148.314,-35.875 158.672,-67.779l17.416,0c-16.388,58.056 -89.046,84.446 -176.088,84.446c-87.042,0 -159.7,-26.39 -176.088,-84.446l17.416,0Z" style="fill:#f28c6c;"/><path d="M625,1437.5l-473.417,0c-83.156,0 -151.583,-68.427 -151.583,-151.583l-0,-194.207c-0,83.132 68.408,151.54 151.542,151.54l335.577,0c85.569,51.607 114.755,106.252 137.881,194.25Zm0,-0c8.933,-77.596 41.397,-143.947 92.924,-194.25l380.493,0c83.156,0 151.583,-68.427 151.583,-151.583l0,194.25c0,83.156 -68.427,151.583 -151.583,151.583l-473.417,-0Z" style="fill:#115383;"/><g><g><g><path d="M1189.88,1406.46c-21.205,2.684 -42.638,-3.137 -59.698,-18.435c-0.461,-39.017 27.47,-70.861 66.492,-78.824l-6.872,19.416c15.526,-12.113 34.714,-19.728 56.828,-23.748l-9.092,20.864c2.586,-0.894 5.17,-1.722 7.749,-2.477c-5.42,21.07 -15.305,40.43 -28.568,56.991c-1.063,0.239 -2.129,0.461 -3.198,0.666l2.009,0.8c-7.559,9.205 -16.173,17.518 -25.65,24.747Z" style="fill:#7bb032;"/><path d="M1202.86,1395.37c-22.16,7.209 -45.984,4.107 -64.651,-10.988c1.082,-28.592 19.284,-52.36 45.695,-63.037c-0.001,0 -10.759,30.394 -10.759,30.394l21.565,-16.823c10.915,-8.515 23.779,-14.611 38.271,-18.718c-0,0 -10.035,23.028 -10.035,23.028l17.197,-5.942c0.82,-0.284 1.64,-0.561 2.459,-0.83c-1.096,3.356 -2.308,6.661 -3.629,9.913l-11.599,6.624l7.577,2.412c-3.105,6.403 -6.649,12.561 -10.591,18.434c-4.066,1.355 -8.179,2.439 -12.343,3.236l-26.863,5.142l24.828,9.888c-2.294,2.5 -4.669,4.924 -7.122,7.267Z" style="fill:#84c52b;"/><path d="M1240.61,1338.17l-111.901,53.461c-4.793,1.774 -6.649,-3.691 -2.707,-5.967l115.434,-49.772c-0.269,0.762 -0.545,1.521 -0.826,2.278Z" style="fill:#527c19;"/></g><g><path d="M1116.03,1396.57c-16.005,5.664 -32.032,17.207 -49.324,10.759c-3.996,-1.49 -11.974,-3.378 -12.168,-12.28c-0.104,-4.758 5.39,-7.404 5.39,-7.404c-0,-0 -19.428,-4.046 -13.124,-26.413c5.972,-21.188 28.225,-13.05 28.225,-13.05c0,0 0.459,-7.448 8.28,-10.533c8.106,-3.197 15.491,3.128 20.466,8.813c2.117,2.418 16.818,26.472 18.691,32.417c0.82,2.602 1.732,5.648 1.267,8.407c-0.48,2.856 -4.138,8.023 -7.703,9.284Z" style="fill:#9f2a2a;"/><path d="M1111,1375.24c-6.82,-10.691 -10.076,-25.595 -7.583,-40.655c1.6,-9.666 9.045,-28.371 19.147,-25.728c4.414,1.154 4.001,5.478 4.001,5.478c-0,0 17.225,-25.85 38.607,-12.365c10.163,6.409 1.971,22.513 1.971,22.513c-0,-0 6.533,3.328 7.232,10.654c0.518,5.445 -3.176,9.806 -7.038,13.203c-6.755,5.94 -20.187,9.972 -26.811,23.488c-2.529,5.161 -5.245,13.4 -13.3,13.572c-5.126,0.109 -11.533,-2.804 -16.226,-10.16Z" style="fill:#c72929;"/><path d="M1130.78,1433.98c-10.441,2.307 -21.272,3.525 -32.364,3.525l-20.536,-0c0.457,-3.732 1.188,-6.226 1.188,-6.226c0,-0 -3.047,3.095 -6.768,0.454c-8.516,-6.043 1.034,-23.766 7.412,-31.203c9.938,-11.586 23.451,-18.667 36.026,-20.311c8.651,-1.13 15,1.908 18.21,5.907c5.044,6.282 0.476,13.657 -1.854,18.91c-4.716,10.636 -2.476,20.747 -1.314,28.944Z" style="fill:#c72929;"/><path d="M1069.49,1365.81c-1.551,0.31 -3.062,-0.697 -3.373,-2.247c-0.31,-1.551 0.697,-3.062 2.248,-3.373c12.002,-2.402 21.239,-1.525 28.724,1.318c11.158,4.237 18.47,12.916 25.161,22.222l4.481,6.233l-7.469,-1.772c-8.056,-1.912 -14.958,-3.747 -21.27,-4.177c-5.826,-0.397 -11.113,0.451 -16.357,3.803c-1.333,0.852 -3.106,0.461 -3.958,-0.871c-0.852,-1.333 -0.461,-3.106 0.871,-3.958c10.353,-6.617 20.819,-5.261 34.298,-2.194c-4.806,-5.918 -10.295,-11.082 -17.791,-13.928c-6.661,-2.53 -14.886,-3.194 -25.565,-1.056Z" style="fill:#ffc930;"/><circle cx="1076.93" cy="1388.09" r="6.645" style="fill:#c49100;"/><circle cx="1066.06" cy="1363.12" r="6.645" style="fill:#c49100;"/><path d="M1133.18,1433.42c-0.083,-0.06 -0.162,-0.12 -0.237,-0.18c-8.079,-6.349 -21.129,-22.274 -17.28,-43.035c3.528,-19.031 25.555,-25.468 45.981,-23.671c7.529,0.663 14.466,5.587 14.412,12.469c-0.046,5.808 -5.008,6.588 -5.008,6.588c-0,-0 17.292,7.661 14.855,23.345c-0.026,0.171 -0.054,0.34 -0.083,0.508c-15.648,11.144 -33.462,19.404 -52.64,23.976Z" style="fill:#f33;"/></g></g><g><g><path d="M765.977,1266.68c4.428,3.225 8.558,6.735 12.376,10.546l-4.228,-19.077c0.236,-0.237 0.473,-0.475 0.709,-0.712c37.217,12.918 60.626,47.666 55.46,86.016c-32.008,22.317 -73.251,15.817 -101.774,-11.976l19.92,-5.233c-6.947,-2.235 -13.666,-5.233 -20.175,-8.937c10.918,-18.282 23.531,-35.193 37.712,-50.627Z" style="fill:#7bb032;"/><path d="M760.624,1272.66c4.336,3.108 8.372,6.506 12.087,10.215l19.355,19.324c0,0 -6.975,-31.478 -6.976,-31.479c24.914,13.815 40.086,39.623 37.676,68.134c-24.217,15.112 -53.608,12.506 -77.132,-3.619l31.288,-8.22l-26.036,-8.375c-6.35,-2.042 -12.489,-4.775 -18.438,-8.14c8.472,-13.401 17.882,-26.029 28.176,-37.84Z" style="fill:#84c52b;"/><path d="M746.553,1290.05l88.178,51.568c3.636,2.74 1.127,7.938 -3.413,5.593l-86.326,-55.063c0.518,-0.701 1.038,-1.401 1.561,-2.098Z" style="fill:#527c19;"/></g><g><path d="M843.296,1353.66c-3.385,-1.687 -6.386,-7.261 -6.515,-10.153c-0.125,-2.796 1.151,-5.708 2.282,-8.191c2.583,-5.672 20.104,-27.757 22.5,-29.899c5.631,-5.037 13.731,-10.415 21.387,-6.255c7.387,4.015 6.935,11.463 6.935,11.463c0,0 23.079,-5.367 26.426,16.39c3.533,22.969 -16.243,24.618 -16.243,24.618c0,0 5.13,3.296 4.448,8.006c-1.276,8.812 -9.425,9.714 -13.572,10.706c-17.95,4.294 -32.452,-9.115 -47.648,-16.685Z" style="fill:#9f2a2a;"/><path d="M850.891,1333.1c-5.553,6.73 -12.268,8.841 -17.343,8.108c-7.973,-1.151 -9.666,-9.66 -11.547,-15.09c-4.929,-14.223 -17.77,-19.86 -23.751,-26.579c-3.42,-3.842 -6.556,-8.621 -5.377,-13.962c1.585,-7.186 8.475,-9.694 8.475,-9.694c0,0 -6.17,-16.982 4.698,-22.105c22.865,-10.78 36.814,16.975 36.814,16.975c-0,0 0.116,-4.342 4.638,-4.95c10.349,-1.393 15.46,18.08 15.871,27.868c0.641,15.252 -4.406,29.648 -12.478,39.429Z" style="fill:#c72929;"/><path d="M845.579,1337.46c12.281,3.163 24.831,11.837 33.284,24.547c5.425,8.158 12.745,26.913 3.556,31.874c-4.014,2.167 -6.662,-1.276 -6.662,-1.276c-0,0 5.045,30.651 -19.788,35.383c-11.802,2.249 -16.801,-15.114 -16.801,-15.114c0,-0 -7.047,2.025 -12.556,-2.855c-4.095,-3.626 -4.37,-9.335 -3.864,-14.453c0.885,-8.953 7.954,-21.064 3.574,-35.466c-1.673,-5.498 -5.309,-13.374 0.463,-18.996c3.673,-3.577 10.344,-5.82 18.794,-3.644Z" style="fill:#c72929;"/><path d="M893.235,1328.79c-10.34,-3.422 -18.584,-3.765 -25.504,-2.065c-7.786,1.912 -13.863,6.369 -19.355,11.657c13.753,-1.402 24.306,-1.473 33.776,6.355c1.219,1.008 1.39,2.816 0.382,4.035c-1.007,1.219 -2.815,1.39 -4.034,0.382c-4.797,-3.965 -9.941,-5.451 -15.773,-5.766c-6.317,-0.342 -13.391,0.639 -21.619,1.555l-7.63,0.849l5.207,-5.641c7.774,-8.421 16.09,-16.146 27.68,-18.992c7.775,-1.91 17.051,-1.656 28.671,2.191c1.501,0.496 2.317,2.119 1.82,3.62c-0.497,1.502 -2.12,2.317 -3.621,1.82Z" style="fill:#ffc930;"/><path d="M883.952,1343.41c3.64,0.447 6.233,3.765 5.786,7.405c-0.447,3.64 -3.765,6.233 -7.405,5.786c-3.64,-0.446 -6.233,-3.764 -5.786,-7.404c0.447,-3.641 3.765,-6.233 7.405,-5.787Z" style="fill:#c49100;"/><path d="M897.775,1319.95c3.64,0.447 6.233,3.765 5.786,7.405c-0.447,3.64 -3.765,6.233 -7.405,5.786c-3.64,-0.447 -6.233,-3.765 -5.786,-7.405c0.447,-3.64 3.765,-6.233 7.405,-5.786Z" style="fill:#c49100;"/><path d="M822.039,1388c-4.678,2.83 -21.165,6.977 -26.464,0.046c-2.928,-3.831 0.447,-8.356 0.447,-8.356c-0,-0 -22.868,0.201 -23.589,-22.263c-0.508,-15.864 17.588,-21.363 17.588,-21.363c0,0 -4.83,-1.378 -4.168,-7.148c0.784,-6.837 8.269,-10.88 15.824,-10.621c20.492,0.704 41.571,9.776 42.755,29.095c1.292,21.076 -13.6,35.292 -22.393,40.61Z" style="fill:#f33;"/></g></g><g><g><path d="M1104.98,1243.11c-2.185,17.736 -10.401,34.994 -24.064,48.988l-5.213,-19.926c-6.049,18.741 -17.652,35.815 -33.696,51.557l-4.189,-22.371c-9.448,12.637 -20.017,23.41 -32.54,30.933c0.992,-14.575 5.768,-28.891 12.714,-43.059l-21.823,6.462c6.538,-20.922 16.129,-38.662 29.519,-52.441l72.726,0c2.199,0 4.388,-0.048 6.566,-0.143Zm-82.987,0.143l-15.391,3.395c0.384,-1.144 0.788,-2.276 1.211,-3.395l14.18,0Z" style="fill:#7bb032;"/><path d="M1096.89,1243.25c-1.539,11.049 -5.675,21.869 -12.219,31.631c0.001,-0.001 -8.16,-31.193 -8.16,-31.193l-8.401,26.029c-4.253,13.174 -11.476,25.44 -21.163,36.975c0,-0 -4.623,-24.691 -4.623,-24.691l-10.895,14.573c-4.521,6.046 -9.304,11.65 -14.467,16.62c2.072,-6.861 4.882,-13.671 8.206,-20.45l8.009,-16.337l-24.086,7.132c5.855,-13.878 13.484,-25.896 23.275,-35.683l4.608,-4.606l59.916,0Z" style="fill:#84c52b;"/><path d="M1061.98,1243.25l-56.753,89.005l52.033,-89.005l4.72,0Z" style="fill:#527c19;"/></g><g><path d="M1148.2,1234.75c0.784,7.249 -0.328,14.1 -5.761,16.024c-4.301,1.522 -6.387,-2.288 -6.387,-2.288c0,-0 0.258,31.062 -25.007,31.907c-12.009,0.402 -14.269,-17.524 -14.269,-17.524c-0,-0 -7.276,0.913 -11.966,-4.757c-3.483,-4.21 -2.879,-9.886 -1.593,-14.861l15.197,0c17.405,0 34.164,-2.998 49.786,-8.501Z" style="fill:#c72929;"/></g></g><g><g><path d="M351.978,1243.11c-2.185,17.736 -10.401,34.994 -24.064,48.988l-5.213,-19.926c-6.049,18.741 -17.652,35.815 -33.696,51.557l-4.189,-22.371c-9.448,12.637 -20.017,23.41 -32.54,30.933c0.993,-14.575 5.768,-28.891 12.714,-43.059l-21.823,6.462c6.539,-20.922 16.13,-38.662 29.519,-52.441l72.726,0c2.199,0 4.388,-0.048 6.566,-0.143Zm-82.987,0.143l-15.391,3.395c0.385,-1.144 0.789,-2.276 1.211,-3.395l14.18,0Z" style="fill:#7bb032;"/><path d="M343.882,1243.25c-1.538,11.049 -5.675,21.869 -12.218,31.631c0,-0.001 -8.161,-31.193 -8.161,-31.193l-8.401,26.029c-4.253,13.174 -11.476,25.44 -21.163,36.975c0,-0 -4.623,-24.691 -4.623,-24.691l-10.895,14.573c-4.521,6.046 -9.303,11.65 -14.467,16.62c2.073,-6.861 4.882,-13.671 8.206,-20.45l8.009,-16.337l-24.086,7.132c5.855,-13.878 13.485,-25.896 23.275,-35.683l4.608,-4.606l59.916,0Z" style="fill:#84c52b;"/><path d="M308.975,1243.25l-56.753,89.005l52.033,-89.005l4.72,0Z" style="fill:#527c19;"/></g><g><path d="M395.048,1243.11c-0.69,3.657 -2.392,6.526 -5.611,7.666c-4.301,1.522 -6.386,-2.288 -6.386,-2.288c-0,-0 0.257,31.062 -25.008,31.907c-12.008,0.402 -14.269,-17.524 -14.269,-17.524c-0,-0 -7.276,0.913 -11.966,-4.757c-3.482,-4.21 -2.879,-9.886 -1.592,-14.861l15.196,0c2.199,0 4.388,-0.048 6.566,-0.143l43.07,0Z" style="fill:#c72929;"/></g></g><g><g><path d="M187.113,1243.25c-16.691,19.35 -41.04,29.965 -67.743,26.341c-7.192,-10.337 -11.518,-21.717 -13.143,-33.347c14.333,4.549 29.559,7.006 45.315,7.006l35.571,0Z" style="fill:#7bb032;"/><path d="M176.085,1243.25c-13.811,13.208 -32.101,20.499 -52.116,18.816c-4.614,-7.389 -7.664,-15.298 -9.227,-23.394c11.797,2.988 24.127,4.578 36.8,4.578l24.543,0Z" style="fill:#84c52b;"/><path d="M138.148,1242.65l-17.974,30.747c-2.971,4.158 -7.575,0.678 -5.59,-3.419l17.823,-27.952c1.903,0.244 3.817,0.453 5.741,0.624Z" style="fill:#527c19;"/></g><g><path d="M112.46,1284.61c-10.065,13.671 -16.848,32.221 -34.779,36.593c-4.143,1.01 -11.805,3.928 -16.963,-3.331c-2.756,-3.879 0.304,-9.153 0.304,-9.153c-0,-0 -18.349,7.558 -25.689,-14.491c-6.953,-20.886 16.032,-26.644 16.032,-26.644c-0,-0 -3.802,-6.421 0.939,-13.365c4.912,-7.196 14.575,-6.108 21.884,-4.197c3.109,0.813 28.779,12.466 33.666,16.334c2.14,1.693 4.604,3.702 5.769,6.246c1.205,2.633 1.079,8.962 -1.163,12.008Z" style="fill:#9f2a2a;"/><path d="M119.079,1239.7c-0.602,3.317 -0.781,6.867 -0.242,10.681c0.804,5.691 3.182,14.033 -3.387,18.697c-4.181,2.969 -11.118,4.155 -19.131,0.702c-11.647,-5.019 -22.708,-15.524 -29.1,-29.387c-2.937,-6.371 -5.997,-18.262 -3.882,-25.779c16.46,11.886 35.357,20.564 55.742,25.086Z" style="fill:#c72929;"/><path d="M103.035,1271.24c6.525,-5.793 13.485,-6.843 18.386,-5.336c7.7,2.367 8.06,11.035 9.082,16.69c2.676,14.813 14.494,22.363 19.367,29.925c2.787,4.323 5.148,9.528 3.16,14.624c-2.675,6.856 -9.87,8.27 -9.87,8.27c0,0 3.478,17.731 -8.05,21.117c-24.255,7.124 -33.756,-22.45 -33.756,-22.45c0,-0 -0.784,4.272 -5.346,4.175c-10.44,-0.22 -12.487,-20.248 -11.383,-29.982c1.719,-15.168 8.926,-28.614 18.41,-37.033Z" style="fill:#c72929;"/><path d="M56.678,1285.28c-1.109,1.127 -2.925,1.142 -4.053,0.033c-1.127,-1.109 -1.142,-2.925 -0.033,-4.052c8.584,-8.726 16.72,-13.186 24.511,-15.036c11.611,-2.757 22.536,0.32 33.296,4.265l7.208,2.642l-7.176,2.727c-7.74,2.941 -14.481,5.297 -19.946,8.484c-5.045,2.943 -8.944,6.612 -11.402,12.33c-0.624,1.453 -2.311,2.126 -3.764,1.501c-1.453,-0.624 -2.126,-2.311 -1.501,-3.764c4.852,-11.288 14.274,-16.041 27.152,-21.071c-7.301,-2.199 -14.742,-3.39 -22.543,-1.538c-6.932,1.646 -14.111,5.714 -21.749,13.479Z" style="fill:#ffc930;"/><path d="M71.608,1294.04c3.034,-2.059 7.17,-1.267 9.229,1.768c2.059,3.035 1.266,7.171 -1.769,9.23c-3.035,2.059 -7.17,1.266 -9.229,-1.769c-2.059,-3.035 -1.266,-7.17 1.769,-9.229Z" style="fill:#c49100;"/><path d="M48.6,1279.48c3.035,-2.059 7.17,-1.266 9.229,1.769c2.059,3.035 1.267,7.17 -1.768,9.229c-3.035,2.059 -7.171,1.267 -9.23,-1.768c-2.059,-3.035 -1.266,-7.171 1.769,-9.23Z" style="fill:#c49100;"/><path d="M152.844,1243.25c-0.481,0.885 -1.015,1.384 -1.015,1.384c0,-0 18.612,-3.368 25.4,10.98c9.612,20.316 -10.827,30.575 -10.827,30.575c0,-0 5.069,2.486 4.212,7.231c-1.551,8.585 -18.114,12.421 -23.567,12.038c-10.251,-0.718 -29.99,-6.571 -38.46,-25.912c-6.286,-14.353 2.094,-28.682 15.017,-38.914c9.065,1.718 18.405,2.618 27.938,2.618l1.302,0Z" style="fill:#f33;"/></g></g><g><g><path d="M313.279,1437.5l-153.933,-0c9.752,-4.241 20.405,-6.996 31.645,-8.783l-17.847,-14.123c21.401,-6.869 41.914,-9.188 61.315,-5.815l-15.206,-13.892c38.172,-11.354 77.81,3.583 95.779,38.219c-0.544,1.495 -1.129,2.96 -1.753,4.394Z" style="fill:#7bb032;"/><path d="M304.47,1437.5l-117.362,-0c1.697,-0.324 3.409,-0.622 5.137,-0.897l17.969,-2.857c0,0 -19.698,-15.588 -19.699,-15.588c14.719,-3.202 28.938,-3.883 42.577,-1.512l26.946,4.684c0,0 -23.804,-21.746 -23.805,-21.746c28.327,-3.019 55.578,9.374 69.998,34.088c-0.552,1.305 -1.14,2.581 -1.761,3.828Z" style="fill:#84c52b;"/><path d="M275.344,1437.5l-58.911,-0l101.174,-8.448c4.55,0.151 5.486,5.846 0.423,6.539l-42.686,1.909Z" style="fill:#527c19;"/></g><g><path d="M331.541,1433.98c-3.74,0.566 -9.4,-2.269 -11.169,-4.562c-1.709,-2.216 -2.339,-5.332 -2.841,-8.014c-1.148,-6.126 0.492,-34.269 1.22,-37.399c1.712,-7.359 5.248,-16.416 13.904,-17.413c8.352,-0.962 12.265,5.392 12.265,5.392c-0,-0 15.798,-17.66 31.044,-1.782c16.096,16.762 0.863,29.481 0.863,29.481c0,0 6.093,-0.252 8.242,3.993c4.022,7.945 -2.127,13.367 -4.95,16.563c-12.218,13.833 -31.793,11.199 -48.578,13.741Z" style="fill:#9f2a2a;"/><path d="M325.935,1412.8c-0.675,8.698 -4.955,14.286 -9.529,16.604c-7.186,3.642 -13.463,-2.347 -18.124,-5.708c-12.21,-8.804 -25.957,-6.035 -34.714,-8.094c-5.007,-1.177 -10.32,-3.285 -12.426,-8.332c-2.835,-6.791 1.361,-12.804 1.361,-12.804c0,-0 -14.811,-10.348 -8.865,-20.788c12.512,-21.966 39.882,-7.275 39.882,-7.275c-0,-0 -2.401,-3.62 0.949,-6.717c7.667,-7.089 23.044,5.905 29.008,13.678c9.292,12.111 13.439,26.792 12.458,39.436Z" style="fill:#c72929;"/><path d="M310.89,1437.5c-0.316,-1.308 -0.373,-2.733 -0.078,-4.298c0.949,-5.039 5.118,-10.709 13.283,-13.786c11.866,-4.473 27.122,-4.591 41.346,0.95c6.939,2.703 18.296,9.788 21.294,17.134l-75.845,-0Z" style="fill:#c72929;"/><path d="M358.106,1384.93c-10.427,3.144 -17.37,7.604 -22.055,12.972c-5.272,6.042 -7.682,13.182 -9.134,20.666c10.446,-9.054 19.04,-15.179 31.289,-14.218c1.576,0.124 2.756,1.504 2.632,3.081c-0.123,1.577 -1.504,2.756 -3.081,2.633c-6.205,-0.487 -11.267,1.255 -16.22,4.349c-5.366,3.352 -10.59,8.221 -16.796,13.702l-5.755,5.081l1.018,-7.609c1.519,-11.36 3.882,-22.461 11.729,-31.453c5.265,-6.033 13,-11.158 24.719,-14.691c1.514,-0.457 3.114,0.402 3.571,1.916c0.456,1.515 -0.402,3.115 -1.917,3.571Z" style="fill:#ffc930;"/><path d="M358.912,1402.22c3.235,-1.727 7.264,-0.503 8.991,2.732c1.728,3.235 0.503,7.264 -2.732,8.992c-3.235,1.727 -7.264,0.503 -8.991,-2.733c-1.728,-3.235 -0.503,-7.264 2.732,-8.991Z" style="fill:#c49100;"/><path d="M356.734,1375.08c3.235,-1.727 7.264,-0.503 8.992,2.733c1.727,3.235 0.503,7.264 -2.733,8.991c-3.235,1.727 -7.264,0.503 -8.991,-2.732c-1.727,-3.235 -0.503,-7.264 2.732,-8.992Z" style="fill:#c49100;"/><path d="M334.457,1437.5l-64.474,-0c1.286,-3.309 3.888,-6.387 7.17,-8.528c17.173,-11.206 39.635,-15.901 51.71,-0.775c2.401,3.008 4.231,6.138 5.594,9.303Z" style="fill:#f33;"/></g></g><g><g><path d="M490.567,1346.92c3.385,-1.687 6.386,-7.261 6.515,-10.153c0.125,-2.796 -1.151,-5.708 -2.282,-8.191c-2.583,-5.672 -20.104,-27.757 -22.499,-29.899c-5.631,-5.037 -13.732,-10.415 -21.387,-6.255c-7.388,4.015 -6.936,11.463 -6.936,11.463c-0,0 -23.079,-5.367 -26.426,16.39c-3.532,22.969 16.243,24.618 16.243,24.618c0,0 -5.13,3.296 -4.448,8.006c1.277,8.813 9.425,9.714 13.573,10.706c17.949,4.294 32.451,-9.115 47.647,-16.685Z" style="fill:#9f2a2a;"/><path d="M500.59,1251.7c15.405,10.07 28.799,20.316 40.549,30.958c-0.525,3.806 -2.944,7.239 -5.525,10.139c-5.982,6.719 -18.822,12.356 -23.751,26.579c-1.882,5.43 -3.574,13.939 -11.548,15.09c-5.075,0.733 -11.789,-1.378 -17.343,-8.107c-8.071,-9.782 -13.118,-24.178 -12.478,-39.43c0.411,-9.788 5.523,-29.261 15.871,-27.868c4.522,0.608 4.638,4.95 4.638,4.95c0,0 3.398,-6.76 9.587,-12.311Z" style="fill:#c72929;"/><path d="M488.285,1330.72c-12.281,3.163 -24.831,11.837 -33.284,24.548c-5.425,8.157 -12.745,26.912 -3.557,31.873c4.015,2.168 6.663,-1.276 6.663,-1.276c-0,0 -5.045,30.651 19.787,35.383c11.803,2.249 16.801,-15.114 16.801,-15.114c0,-0 7.048,2.025 12.557,-2.854c4.094,-3.627 4.369,-9.336 3.863,-14.454c-0.885,-8.953 -7.953,-21.064 -3.573,-35.466c1.672,-5.498 5.308,-13.374 -0.463,-18.995c-3.673,-3.578 -10.345,-5.82 -18.794,-3.645Z" style="fill:#c72929;"/><path d="M440.628,1322.06c10.34,-3.422 18.585,-3.765 25.504,-2.065c7.787,1.912 13.864,6.369 19.355,11.658c-13.753,-1.403 -24.306,-1.474 -33.775,6.354c-1.219,1.008 -1.391,2.816 -0.383,4.035c1.008,1.219 2.815,1.39 4.034,0.382c4.797,-3.965 9.941,-5.45 15.773,-5.766c6.317,-0.342 13.391,0.639 21.62,1.555l7.629,0.849l-5.207,-5.641c-7.774,-8.421 -16.089,-16.146 -27.679,-18.992c-7.776,-1.91 -17.051,-1.656 -28.672,2.191c-1.501,0.497 -2.316,2.119 -1.819,3.62c0.496,1.502 2.119,2.317 3.62,1.82Z" style="fill:#ffc930;"/><path d="M449.912,1336.67c-3.641,0.446 -6.233,3.764 -5.787,7.404c0.447,3.64 3.765,6.233 7.405,5.787c3.64,-0.447 6.233,-3.765 5.786,-7.405c-0.446,-3.64 -3.764,-6.233 -7.404,-5.786Z" style="fill:#c49100;"/><path d="M436.089,1313.21c-3.641,0.447 -6.233,3.765 -5.787,7.405c0.447,3.64 3.765,6.233 7.405,5.786c3.64,-0.447 6.233,-3.764 5.786,-7.405c-0.446,-3.64 -3.764,-6.232 -7.404,-5.786Z" style="fill:#c49100;"/><path d="M511.824,1381.26c4.678,2.829 21.166,6.976 26.464,0.045c2.928,-3.831 -0.446,-8.356 -0.446,-8.356c-0,-0 22.868,0.201 23.588,-22.263c0.509,-15.864 -17.588,-21.362 -17.588,-21.362c-0,-0 4.83,-1.379 4.168,-7.149c-0.784,-6.837 -8.269,-10.88 -15.823,-10.621c-20.493,0.704 -41.572,9.776 -42.756,29.095c-1.291,21.076 13.6,35.292 22.393,40.611Z" style="fill:#f33;"/></g></g></g><path d="M1115.46,1321.61c-62.295,-6.775 -123.837,-6.775 -184.626,0l-0,66.135c-0,10.488 7.749,19.362 18.141,20.775c26.887,3.654 74.172,10.081 74.172,10.081c0,0 47.334,-6.433 74.213,-10.087c10.368,-1.409 18.1,-10.263 18.1,-20.727c0,-24.83 0,-66.177 0,-66.177Z" style="fill:#00355c;"/><g><path d="M565.953,1383.22c13.447,-1.922 25.925,7.436 27.847,20.883c1.922,13.447 -7.436,25.925 -20.883,27.847c-13.448,1.922 -25.926,-7.436 -27.847,-20.883c-1.922,-13.447 7.435,-25.925 20.883,-27.847Z" style="fill:#002a48;fill-opacity:0.5;"/><path d="M565.683,1381.34c12.309,-1.759 23.731,6.806 25.49,19.116c1.759,12.309 -6.806,23.73 -19.115,25.49c-12.309,1.759 -23.731,-6.807 -25.49,-19.116c-1.759,-12.309 6.806,-23.731 19.115,-25.49Z" style="fill:#835c37;"/><path d="M561.812,1395.73c1.562,-0.223 3.011,0.864 3.234,2.426c0.224,1.562 -0.863,3.011 -2.425,3.234c-1.562,0.223 -3.012,-0.864 -3.235,-2.426c-0.223,-1.562 0.864,-3.011 2.426,-3.234Z" style="fill:#003154;"/><path d="M573.798,1393.51c1.562,-0.223 3.011,0.864 3.234,2.426c0.224,1.562 -0.863,3.011 -2.425,3.234c-1.562,0.223 -3.011,-0.863 -3.235,-2.425c-0.223,-1.562 0.864,-3.012 2.426,-3.235Z" style="fill:#003154;"/><path d="M575.738,1406.44c1.562,-0.223 3.011,0.864 3.234,2.426c0.224,1.562 -0.863,3.011 -2.425,3.234c-1.562,0.224 -3.011,-0.863 -3.235,-2.425c-0.223,-1.562 0.864,-3.012 2.426,-3.235Z" style="fill:#003154;"/><path d="M563.006,1408.06c1.562,-0.223 3.011,0.864 3.235,2.425c0.223,1.562 -0.864,3.012 -2.426,3.235c-1.562,0.223 -3.011,-0.864 -3.235,-2.426c-0.223,-1.562 0.864,-3.011 2.426,-3.234Z" style="fill:#003154;"/><path d="M565.388,1379.27c13.448,-1.922 25.926,7.435 27.848,20.883c1.921,13.447 -7.436,25.925 -20.884,27.847c-13.447,1.922 -25.925,-7.436 -27.847,-20.883c-1.921,-13.448 7.436,-25.925 20.883,-27.847Zm0.59,4.125c-11.171,1.596 -18.944,11.961 -17.348,23.132c1.597,11.171 11.962,18.945 23.133,17.348c11.171,-1.596 18.944,-11.962 17.348,-23.133c-1.597,-11.171 -11.962,-18.944 -23.133,-17.347Z" style="fill:#694829;"/><path d="M575.476,1404.81c-2.342,0.335 -3.971,2.507 -3.636,4.849c0.334,2.342 2.507,3.971 4.848,3.636c2.342,-0.334 3.971,-2.507 3.637,-4.849c-0.335,-2.341 -2.508,-3.971 -4.849,-3.636Zm-12.329,1.762c-2.341,0.335 -3.971,2.507 -3.636,4.849c0.335,2.341 2.507,3.971 4.849,3.636c2.341,-0.334 3.971,-2.507 3.636,-4.849c-0.334,-2.341 -2.507,-3.971 -4.849,-3.636Zm12.65,0.482c1.102,-0.157 2.126,0.61 2.283,1.713c0.158,1.103 -0.609,2.126 -1.712,2.284c-1.103,0.158 -2.126,-0.61 -2.284,-1.713c-0.158,-1.103 0.61,-2.126 1.713,-2.284Zm-12.329,1.762c1.103,-0.157 2.126,0.61 2.284,1.713c0.157,1.103 -0.61,2.126 -1.713,2.284c-1.103,0.157 -2.126,-0.61 -2.284,-1.713c-0.157,-1.103 0.61,-2.126 1.713,-2.284Zm-2.126,-14.879c-2.342,0.335 -3.971,2.507 -3.637,4.849c0.335,2.342 2.508,3.971 4.849,3.636c2.342,-0.334 3.971,-2.507 3.637,-4.849c-0.335,-2.341 -2.508,-3.971 -4.849,-3.636Zm12.328,-1.762c-2.341,0.335 -3.971,2.508 -3.636,4.849c0.335,2.342 2.507,3.971 4.849,3.636c2.341,-0.334 3.971,-2.507 3.636,-4.848c-0.334,-2.342 -2.507,-3.971 -4.849,-3.637Zm-12.008,4.006c1.103,-0.157 2.127,0.61 2.284,1.713c0.158,1.103 -0.61,2.126 -1.712,2.284c-1.103,0.158 -2.127,-0.61 -2.284,-1.713c-0.158,-1.103 0.61,-2.126 1.712,-2.284Zm12.329,-1.761c1.103,-0.158 2.126,0.609 2.284,1.712c0.157,1.103 -0.61,2.126 -1.713,2.284c-1.103,0.158 -2.126,-0.61 -2.284,-1.713c-0.157,-1.102 0.61,-2.126 1.713,-2.283Z" style="fill:#694829;"/><path d="M561.249,1399.9l12.884,10.047c0.789,0.616 1.93,0.475 2.545,-0.315c0.616,-0.789 0.475,-1.93 -0.315,-2.546l-12.883,-10.046c-0.789,-0.616 -1.93,-0.475 -2.545,0.314c-0.616,0.79 -0.475,1.93 0.314,2.546Z" style="fill:#003f6d;"/><path d="M575.054,1397.93l-9.553,13.254c-0.585,0.812 -1.72,0.996 -2.532,0.41c-0.812,-0.585 -0.996,-1.72 -0.411,-2.532l9.554,-13.253c0.585,-0.812 1.72,-0.996 2.532,-0.411c0.812,0.586 0.996,1.72 0.41,2.532Z" style="fill:#115383;"/></g><g><path d="M683.134,1403.1c17.983,1.332 32.332,5.803 32.023,9.978c-0.31,4.175 -15.161,6.482 -33.143,5.15c-17.983,-1.332 -32.332,-5.804 -32.023,-9.978c0.31,-4.175 15.161,-6.483 33.143,-5.15Z" style="fill:#d8d8d8;"/><path d="M683.345,1400.25c13.099,0.971 24.327,3.623 29.785,6.568c1.817,0.981 3.092,2.051 3.832,3.069c0.817,1.124 1.123,2.279 1.04,3.398c-0.083,1.118 -0.556,2.215 -1.53,3.207c-0.881,0.897 -2.3,1.768 -4.242,2.47c-5.832,2.109 -17.329,3.078 -30.427,2.107c-13.099,-0.97 -24.327,-3.623 -29.785,-6.568c-1.817,-0.98 -3.092,-2.051 -3.832,-3.068c-0.817,-1.125 -1.123,-2.279 -1.04,-3.398c0.083,-1.119 0.556,-2.216 1.53,-3.208c0.881,-0.897 2.3,-1.768 4.242,-2.47c5.832,-2.108 17.329,-3.077 30.427,-2.107Zm-30.103,8.236c0.159,0.143 0.339,0.293 0.505,0.406c0.836,0.565 1.94,1.107 3.263,1.637c5.602,2.241 14.779,4.076 25.214,4.85c10.436,0.773 19.783,0.31 25.654,-1.081c1.387,-0.329 2.559,-0.703 3.469,-1.139c0.181,-0.086 0.381,-0.208 0.559,-0.326c-0.159,-0.143 -0.339,-0.293 -0.505,-0.405c-0.836,-0.565 -1.94,-1.108 -3.263,-1.638c-5.602,-2.241 -14.779,-4.076 -25.214,-4.849c-10.436,-0.773 -19.783,-0.311 -25.654,1.081c-1.387,0.328 -2.559,0.702 -3.468,1.138c-0.182,0.087 -0.382,0.209 -0.56,0.326Z" style="fill:#002a48;"/></g><path d="M1115.15,1346.35c-62.084,-6.752 -123.418,-6.753 -184.002,-0c-0.807,0.09 -1.614,-0.168 -2.219,-0.71c-0.604,-0.541 -0.95,-1.314 -0.95,-2.126l-0,-21.899c-0,-1.453 1.092,-2.674 2.537,-2.835c60.995,-6.798 122.745,-6.799 185.251,-0.001c1.448,0.158 2.544,1.38 2.544,2.836l0,21.899c0,0.811 -0.344,1.583 -0.947,2.124c-0.604,0.541 -1.408,0.8 -2.214,0.712Z" style="fill:#002a48;"/><path d="M530.917,1339.47c-51.54,-8.722 -103.594,-10.245 -156.325,-2.296l-33.877,-93.923l146.404,0c54.767,33.031 86.438,67.306 108.205,110.773c-13.295,1.77 -55.122,10.053 -55.122,10.053c-0,0 -5.012,-13.677 -9.285,-24.607Zm153.432,16.891c1.87,7.606 -0.289,21.269 -4.224,28.151c-10.522,-7.899 -28.321,-13.03 -42.923,-7.001c15.543,-52.086 43.033,-97.466 80.722,-134.26l144.356,0c6.226,33.888 7.213,63.847 -0.678,87.148c-66.224,-0.27 -125.913,7.628 -177.253,25.962Z" style="fill:#0070c2;"/></g></g></svg>