<?xml version="1.0" encoding="UTF-8" standalone="no"?><!DOCTYPE svg PUBLIC "-//W3C//DTD SVG 1.1//EN" "http://www.w3.org/Graphics/SVG/1.1/DTD/svg11.dtd"><svg width="100%" height="100%" viewBox="0 0 1250 1438" version="1.1" xmlns="http://www.w3.org/2000/svg" xmlns:xlink="http://www.w3.org/1999/xlink" xml:space="preserve" xmlns:serif="http://www.serif.com/" style="fill-rule:evenodd;clip-rule:evenodd;stroke-linejoin:round;stroke-miterlimit:2;"><g id="BoyScout"><g id="ClothingBoyScout"><path d="M808.788,1243.25l289.629,0c83.156,0 151.583,-68.427 151.583,-151.583l0,194.25c0,83.156 -68.427,151.583 -151.583,151.583l-946.834,0c-83.156,0 -151.583,-68.427 -151.583,-151.583l-0,-194.207c-0,83.132 68.408,151.54 151.542,151.54l314.035,0l171.606,79.203l171.605,-79.203Z" style="fill:#b09770;"/><path d="M675.859,1437.5l-524.276,0c-83.156,0 -151.583,-68.427 -151.583,-151.583l-0,-194.207c-0,83.132 68.408,151.54 151.542,151.54l314.035,0l171.606,79.203l38.676,-0l-0,115.047Z" style="fill:#b09770;"/><path d="M675.859,1361.13c-0,-10.258 -4.075,-20.095 -11.328,-27.348c-7.253,-7.253 -17.09,-11.327 -27.347,-11.327c-0.001,-0 -0.001,-0 -0.001,-0l-0,115.047l38.676,-0l-0,-76.372Z" style="fill:#b09770;"/><path d="M675.859,1437.5l-0,-76.372c-0,-10.258 -4.075,-20.095 -11.328,-27.348c-7.253,-7.253 -17.091,-11.327 -27.348,-11.327l24.122,-11.134c5.514,2.67 10.597,6.262 15.011,10.676c10.379,10.379 16.21,24.455 16.21,39.133l-0,76.372l-16.667,-0Z" style="fill:#8b785f;"/><path d="M637.183,1331.73l-82.393,40.285c-2.363,1.156 -5.134,1.127 -7.473,-0.076c-2.339,-1.204 -3.973,-3.442 -4.407,-6.036l-7.513,-44.941l-106.229,16.201c-3.906,0.596 -7.693,-1.633 -9.068,-5.338l-31.808,-85.674c-0.35,-0.941 -0.522,-1.923 -0.521,-2.9l77.806,0l171.606,79.203l171.605,-79.203l77.807,0c0,0.977 -0.171,1.959 -0.521,2.9l-31.808,85.674c-1.375,3.705 -5.162,5.934 -9.068,5.338l-106.229,-16.201l-7.514,44.941c-0.433,2.594 -2.067,4.832 -4.406,6.036c-2.34,1.203 -5.11,1.232 -7.473,0.076l-82.393,-40.285Z" style="fill:#8b785f;"/><path d="M628.998,1358.48l24.564,3.573c22.383,-37.084 182.993,-54.949 293.203,-118.802l-136.514,0c-71.067,34.025 -164.77,72.259 -181.253,115.229Z" style="fill:#1e332a;"/><path d="M642.507,1354.24c-19.542,-37.923 -114.211,-76.712 -176.93,-110.986l-142.064,0c109.959,48.22 202.944,58.695 292.403,115.229l26.591,-4.243Z" style="fill:#1a4633;"/><g><path d="M637.183,1322.45l86.053,42.075l14.818,-88.631l-100.871,46.556" style="fill:#ffdc8e;"/><path d="M661.305,1311.32l68.57,13.502l8.179,-48.924l-76.749,35.422" style="fill:#ebc97c;"/><path d="M678.62,1303.33l167.834,25.596l31.808,-85.674l-69.474,0l-130.168,60.078" style="fill:#ffe4a8;"/></g><g><path d="M637.183,1322.45l-86.053,42.075l-14.818,-88.631l100.871,46.556" style="fill:#ffdc8e;"/><path d="M613.061,1311.32l-68.57,13.502l-8.179,-48.924l76.749,35.422" style="fill:#ebc97c;"/><path d="M595.746,1303.33l-167.834,25.596l-31.808,-85.674l69.473,0l130.169,60.078" style="fill:#ffe4a8;"/></g><path d="M627.025,1379.1l9.971,-0.447c2.2,-0.098 4.097,1.532 4.33,3.721c1.537,14.421 2.318,28.547 -2.463,39.809c-0.228,0.535 -0.564,1.017 -0.988,1.414c-13.67,12.796 -29.136,13.855 -45.413,9.704c-1.664,-0.424 -2.897,-1.826 -3.106,-3.531c-0.208,-1.705 0.651,-3.364 2.164,-4.177c15.142,-8.134 28.75,-28.87 31.606,-43.148c0.376,-1.879 1.985,-3.259 3.899,-3.345Z" style="fill:#1e332a;"/><path d="M650.991,1384.6c3.903,7.756 7.325,15.922 11.246,23.159c3.602,6.649 7.578,12.51 12.982,16.224c1.125,0.774 1.8,2.05 1.806,3.416c0.006,1.366 -0.658,2.647 -1.777,3.431c-5.042,3.531 -14.03,5.528 -21.635,4.266c-5.688,-0.943 -10.543,-3.675 -13.048,-8.268c-0.101,-0.184 -0.187,-0.375 -0.259,-0.572l-13.84,-38.088c-0.46,-1.266 -0.279,-2.677 0.485,-3.787c0.764,-1.109 2.017,-1.781 3.364,-1.802l16.887,-0.272c1.598,-0.026 3.07,0.865 3.789,2.293Z" style="fill:#1a4633;"/><path d="M615.481,1348.59l43.404,-0c2.127,-0 4.108,1.265 5.26,3.361c1.153,2.095 1.319,4.733 0.441,7.003l-10.851,28.073c-1.014,2.624 -3.244,4.309 -5.701,4.309l-21.702,0c-2.457,0 -4.687,-1.685 -5.701,-4.309l-10.851,-28.073c-0.878,-2.27 -0.712,-4.908 0.441,-7.003c1.152,-2.096 3.133,-3.361 5.26,-3.361Z" style="fill:#237736;"/><g><g><path d="M361.296,1323.6l-246.874,0l-0,62.981l15.455,15.456l215.963,-0l15.456,-15.456l-0,-62.981Z" style="fill:#1c1a2b;fill-opacity:0.25;"/><path d="M358.417,1318.62l0,62.981l-15.455,15.455l-210.305,0l-15.455,-15.455l0,-62.981l241.215,-0Z" style="fill:#937e5d;"/></g><g><path d="M363.191,1295.19c-0,-1.962 -1.593,-3.555 -3.555,-3.555l-244.732,0c-1.962,0 -3.554,1.593 -3.554,3.555l-0,34.717c-0,1.962 1.592,3.554 3.554,3.554l119.019,33.557c5.129,1.72 10.45,1.391 15.53,-0.12l110.183,-33.437c1.962,0 3.555,-1.592 3.555,-3.554l-0,-34.717Z" style="fill-opacity:0.25;"/><path d="M359.636,1284.82c1.962,0 3.555,1.593 3.555,3.555l-0,34.717c-0,1.962 -1.593,3.554 -3.555,3.554l-110.183,33.437c-5.08,1.511 -10.401,1.841 -15.53,0.12l-119.019,-33.557c-1.962,0 -3.554,-1.592 -3.554,-3.554l-0,-34.717c-0,-1.962 1.592,-3.555 3.554,-3.555l244.732,0Z" style="fill:#bba37d;"/></g></g><g><g><path d="M1136.76,1323.6l-246.875,0l0,62.981l15.456,15.456l215.963,-0l15.456,-15.456l-0,-62.981Z" style="fill:#1c1a2b;fill-opacity:0.25;"/><path d="M1133.88,1318.62l0,62.981l-15.455,15.455l-210.305,0l-15.455,-15.455l-0,-62.981l241.215,-0Z" style="fill:#937e5d;"/></g><g><path d="M1138.65,1295.19c0,-1.962 -1.592,-3.555 -3.554,-3.555l-244.732,0c-1.962,0 -3.555,1.593 -3.555,3.555l0,34.717c0,1.962 1.593,3.554 3.555,3.554l119.019,33.557c5.128,1.72 10.449,1.391 15.529,-0.12l110.184,-33.437c1.962,0 3.554,-1.592 3.554,-3.554l0,-34.717Z" style="fill-opacity:0.25;"/><path d="M1135.1,1284.82c1.962,0 3.554,1.593 3.554,3.555l0,34.717c0,1.962 -1.592,3.554 -3.554,3.554l-110.184,33.437c-5.08,1.511 -10.401,1.841 -15.529,0.12l-119.019,-33.557c-1.962,0 -3.555,-1.592 -3.555,-3.554l0,-34.717c0,-1.962 1.593,-3.555 3.555,-3.555l244.732,0Z" style="fill:#bba37d;"/></g></g><path d="M406.01,1243.25l223.833,186.243c2.425,2.017 3.754,4.972 3.755,8.007l-405.413,-0l-228.185,-190.91l-0,-154.88c-0,83.132 68.408,151.54 151.542,151.54l254.468,0Z" style="fill:#103e2a;fill-opacity:0.25;"/><path d="M389.724,1243.25l233.457,194.25l-378.762,-0l-244.419,-204.492l-0,-141.298c-0,83.132 68.408,151.54 151.542,151.54l238.182,0Z" style="fill:#103e2a;"/><path d="M389.724,1243.25l233.457,194.25l-356.972,-0l-266.209,-221.502l-0,-124.288c-0,83.132 68.408,151.54 151.542,151.54l238.182,0Z" style="fill:#1f4e3a;"/><g><ellipse cx="421.461" cy="1376.43" rx="60.283" ry="61.066" style="fill:#103e2a;fill-opacity:0.5;"/><ellipse cx="423.54" cy="1368.73" rx="52.677" ry="53.361" style="fill:#d5b2c5;"/><path d="M423.54,1307.66c33.271,0 60.283,27.363 60.283,61.066c-0,33.703 -27.012,61.066 -60.283,61.066c-33.271,-0 -60.283,-27.363 -60.283,-61.066c-0,-33.703 27.012,-61.066 60.283,-61.066Zm-0,7.705c-29.074,-0 -52.677,23.91 -52.677,53.361c-0,29.451 23.603,53.361 52.677,53.361c29.073,0 52.677,-23.91 52.677,-53.361c0,-29.451 -23.604,-53.361 -52.677,-53.361Z" style="fill:#621e52;"/><path d="M405.198,1391.95c-1.739,4.581 -2.55,9.46 -2.292,14.146c0.11,1.993 1.848,3.578 3.879,3.537c2.031,-0.041 3.591,-1.692 3.481,-3.685c-0.185,-3.357 0.32,-6.835 1.43,-10.156c3.667,1.485 7.527,1.986 11.433,1.29c6.853,-1.222 14.118,-6.297 20.42,-17.453c9.738,-17.239 4.53,-48.379 4.53,-48.379c-0.21,-1.206 -0.969,-2.27 -2.06,-2.887c-1.092,-0.616 -2.395,-0.718 -3.536,-0.274c0,-0 -29.359,11.613 -39.097,28.852c-6.302,11.156 -6.899,19.998 -4.408,26.499c0.851,2.219 2.061,4.203 3.575,5.947c3.994,-7.063 8.963,-13.576 14.874,-19.556c-5.035,6.097 -9.446,13.025 -12.229,22.119Z" style="fill:#488922;"/><path d="M404.002,1391.59l0.013,-0.038c0.574,-1.872 1.216,-3.655 1.926,-5.377c-0.8,1.259 -1.566,2.537 -2.299,3.834c-0.2,0.354 -0.559,0.588 -0.964,0.629c-0.404,0.04 -0.802,-0.118 -1.068,-0.424c-1.61,-1.854 -2.895,-3.962 -3.799,-6.32c-2.589,-6.757 -2.064,-15.965 4.486,-27.561c9.905,-17.534 39.726,-29.4 39.726,-29.4l0.007,-0.003c1.486,-0.576 3.183,-0.451 4.603,0.352c1.421,0.802 2.405,2.191 2.677,3.761l0.002,0.007c-0,0 5.23,31.667 -4.675,49.201c-6.55,11.596 -14.165,16.798 -21.289,18.068c-3.691,0.659 -7.345,0.312 -10.849,-0.886c-0.791,2.788 -1.139,5.664 -0.985,8.453c0.149,2.7 -1.952,4.948 -4.704,5.003c-2.702,0.055 -5.006,-2.065 -5.152,-4.717c-0.266,-4.829 0.562,-9.857 2.344,-14.582Zm2.365,0.81c-1.676,4.415 -2.461,9.118 -2.212,13.634c0.073,1.334 1.246,2.383 2.605,2.356c1.31,-0.026 2.329,-1.081 2.258,-2.367c-0.194,-3.51 0.332,-7.148 1.492,-10.62c0.109,-0.327 0.349,-0.595 0.662,-0.739c0.314,-0.145 0.673,-0.153 0.993,-0.024c3.446,1.396 7.074,1.873 10.744,1.218c6.583,-1.173 13.499,-6.122 19.552,-16.837c9.494,-16.808 4.468,-47.065 4.386,-47.552c-0.147,-0.842 -0.682,-1.58 -1.443,-2.01c-0.762,-0.431 -1.67,-0.507 -2.467,-0.199c-0.459,0.182 -28.969,11.495 -38.463,28.303c-6.053,10.715 -6.721,19.193 -4.329,25.436c0.579,1.51 1.335,2.903 2.249,4.177c3.88,-6.544 8.604,-12.611 14.144,-18.217c0.47,-0.476 1.231,-0.497 1.727,-0.049c0.496,0.449 0.552,1.208 0.126,1.724c-4.938,5.979 -9.268,12.77 -11.998,21.688c-0.008,0.027 -0.016,0.053 -0.026,0.078Z" style="fill:#426d29;"/></g><g><path d="M249.457,1263.13c35.473,-8.398 71.091,13.583 79.49,49.056c8.399,35.473 -13.582,71.091 -49.055,79.49c-35.473,8.399 -71.092,-13.582 -79.491,-49.055c-8.399,-35.473 13.582,-71.092 49.056,-79.491Z" style="fill:#002d1a;fill-opacity:0.5;"/><path d="M251.673,1262.61c30.998,-7.34 62.122,11.868 69.462,42.866c7.339,30.997 -11.869,62.122 -42.867,69.461c-30.997,7.339 -62.122,-11.868 -69.461,-42.866c-7.339,-30.998 11.869,-62.122 42.866,-69.461Z" style="fill:#d5b2c5;"/><path d="M249.753,1254.5c35.473,-8.399 71.092,13.582 79.491,49.055c8.399,35.473 -13.582,71.092 -49.056,79.49c-35.473,8.399 -71.091,-13.582 -79.49,-49.055c-8.399,-35.473 13.582,-71.092 49.055,-79.49Zm1.92,8.109c-30.997,7.339 -50.205,38.463 -42.866,69.461c7.339,30.998 38.464,50.205 69.461,42.866c30.998,-7.339 50.206,-38.464 42.867,-69.461c-7.34,-30.998 -38.464,-50.206 -69.462,-42.866Z" style="fill:#621e52;"/><g><path d="M260.3,1344.76l20.499,-4.854l3.697,15.615c0.474,2.002 -0.772,4.01 -2.781,4.486l-13.221,3.13c-2.009,0.476 -4.023,-0.761 -4.497,-2.762l-3.697,-15.615Z" style="fill:#704e3c;"/><path d="M303.212,1335.86c-0.154,0.052 -0.311,0.098 -0.471,0.136c0,-0 -20.438,4.839 -20.438,4.839l3.409,14.398c0.633,2.672 -1.026,5.355 -3.709,5.99l-13.221,3.13c-2.683,0.636 -5.368,-1.018 -6.001,-3.69l-3.409,-14.399l-20.438,4.839c-0.16,0.038 -0.321,0.068 -0.482,0.089l23.347,-5.527l3.415,14.422c0.315,1.331 1.656,2.15 2.992,1.834l13.221,-3.13c1.336,-0.317 2.167,-1.651 1.852,-2.982l-3.414,-14.422l23.347,-5.527Z" style="fill:#453026;"/><path d="M302.453,1334.78l-63.807,15.108c-1.398,0.331 -2.862,-0.165 -3.765,-1.276c-0.904,-1.111 -1.087,-2.641 -0.473,-3.936l6.478,-13.649l-0.539,0.128c-1.398,0.331 -2.862,-0.165 -3.765,-1.276c-0.904,-1.111 -1.087,-2.641 -0.473,-3.935l5.872,-12.372c-1.341,0.247 -2.716,-0.253 -3.58,-1.315c-0.903,-1.111 -1.087,-2.641 -0.473,-3.935l14.388,-30.313c0.486,-1.025 1.414,-1.775 2.521,-2.037c1.107,-0.262 2.273,-0.008 3.167,0.69l26.452,20.643c1.13,0.882 1.652,2.332 1.342,3.73c-0.295,1.337 -1.301,2.4 -2.61,2.78l10.796,8.426c1.13,0.882 1.651,2.331 1.342,3.729c-0.309,1.398 -1.395,2.498 -2.793,2.829l-0.54,0.128l11.911,9.295c1.13,0.882 1.651,2.331 1.342,3.73c-0.309,1.398 -1.395,2.497 -2.793,2.828Z" style="fill:#488922;"/><path d="M238.857,1332.44c-1.246,-0.158 -2.409,-0.785 -3.227,-1.791c-1.201,-1.477 -1.446,-3.512 -0.629,-5.234c0,-0 5.083,-10.709 5.083,-10.709c-1.018,-0.257 -1.948,-0.834 -2.634,-1.679c-1.202,-1.477 -1.447,-3.512 -0.629,-5.234l14.387,-30.313c0.646,-1.361 1.877,-2.356 3.347,-2.704c1.469,-0.348 3.016,-0.011 4.203,0.916l26.452,20.644c1.503,1.173 2.197,3.101 1.785,4.961c-0.235,1.062 -0.807,1.995 -1.602,2.681l9.345,7.293c1.503,1.173 2.197,3.101 1.785,4.961c-0.28,1.266 -1.038,2.348 -2.081,3.047l10.216,7.974c1.503,1.172 2.197,3.101 1.785,4.96c-0.41,1.857 -1.851,3.318 -3.707,3.757l-63.808,15.108c-1.856,0.439 -3.799,-0.221 -4.999,-1.696c-1.201,-1.478 -1.446,-3.512 -0.629,-5.234l5.557,-11.708Zm52.382,-12.55c-0.529,-0.397 -1.155,-1.816 0.487,-2.163l0.512,-0.121c0.025,-0.006 0.049,-0.011 0.08,-0.02c0.907,-0.241 1.608,-0.966 1.811,-1.884c0.207,-0.936 -0.143,-1.907 -0.899,-2.498l-10.796,-8.425c-0.363,-0.283 -0.537,-0.746 -0.45,-1.198c0.087,-0.452 0.42,-0.818 0.862,-0.946c0.88,-0.256 1.556,-0.97 1.755,-1.868c0.207,-0.936 -0.142,-1.907 -0.899,-2.498l-26.452,-20.644c-0.602,-0.469 -1.386,-0.639 -2.13,-0.463c-0.745,0.176 -1.369,0.68 -1.697,1.369l-14.387,30.313c-0.411,0.868 -0.289,1.892 0.316,2.636c0.581,0.714 1.506,1.049 2.407,0.883c0.453,-0.084 0.914,0.094 1.194,0.459c0.281,0.365 0.333,0.857 0.136,1.272l-5.872,12.372c-0.412,0.868 -0.289,1.892 0.316,2.636c0.607,0.747 1.591,1.079 2.531,0.857l0.423,-0.1c0.836,-0.279 2.023,0.548 1.507,1.691l-6.478,13.649c-0.412,0.867 -0.289,1.892 0.316,2.636c0.607,0.747 1.591,1.079 2.531,0.856l63.808,-15.107c0.939,-0.222 1.67,-0.961 1.878,-1.9c0.207,-0.937 -0.143,-1.908 -0.899,-2.498l-11.911,-9.296Z" style="fill:#426d29;"/></g></g><g><path d="M997.394,1307.75c8.568,-0.452 14.643,-3.907 18.403,-9.504c0.325,-0.483 0.861,-0.783 1.443,-0.806c0.583,-0.023 1.141,0.234 1.502,0.69c4.911,6.197 11.974,10.272 23.019,9.589c0.951,-0.059 1.787,0.624 1.92,1.568c3.083,21.983 -10.883,39.181 -25.95,42.734c-0.275,0.065 -0.562,0.065 -0.838,-0c-15.066,-3.553 -29.033,-20.751 -25.949,-42.734c0.132,-0.944 0.969,-1.627 1.92,-1.568c0.43,0.027 0.854,0.047 1.274,0.06c0.03,-0.133 0.06,-0.266 0.091,-0.4c1.084,0.167 2.139,0.29 3.165,0.371Zm42.889,3.894c-0.006,-0.07 -0.013,-0.139 -0.02,-0.209c-0.554,0.013 -1.098,0.014 -1.633,0.004c0.54,0.08 1.091,0.148 1.653,0.205Z" style="fill:#247e70;"/><path d="M1015,1346.81c-13.962,-4.661 -25.587,-22.208 -20.775,-42.76c11.679,1.794 20.063,-1.452 25.391,-8.011c4.623,7.064 11.719,12.117 23.53,12.458c1.028,21.083 -13.572,36.246 -28.146,38.313Z" style="fill:#34804e;"/><path d="M1016.89,1348.69c-15.066,-3.553 -29.033,-20.751 -25.949,-42.734c0.132,-0.943 0.969,-1.626 1.92,-1.567c10.99,0.679 18.542,-2.936 22.933,-9.473c0.325,-0.484 0.861,-0.783 1.443,-0.806c0.583,-0.023 1.141,0.233 1.502,0.69c4.911,6.197 11.974,10.272 23.019,9.589c0.951,-0.059 1.787,0.624 1.92,1.567c3.083,21.983 -10.883,39.181 -25.95,42.734c-0.275,0.065 -0.562,0.065 -0.838,0Zm0.418,-3.655l0.005,-0.001c13.043,-3.329 24.823,-18.091 22.947,-36.929c-10.492,0.235 -17.647,-3.525 -22.855,-9.24c-4.898,5.99 -12.471,9.508 -23.047,9.242c-1.875,18.838 9.906,33.6 22.95,36.928Z" style="fill:#c3e379;"/><path d="M1017.31,1305.31l5.199,9.898l11.02,1.885l-7.807,8.003l1.612,11.064l-10.024,-4.952l-10.024,4.952l1.613,-11.064l-7.808,-8.003l11.021,-1.885l5.198,-9.898Z" style="fill:#fff;"/><path d="M1017.96,1304.97l5.031,9.579l10.665,1.825c0.267,0.046 0.487,0.236 0.571,0.494c0.084,0.258 0.018,0.541 -0.171,0.735l-7.556,7.745l1.56,10.706c0.039,0.269 -0.074,0.537 -0.293,0.696c-0.219,0.16 -0.509,0.184 -0.752,0.064l-9.701,-4.792l-9.7,4.792c-0.243,0.12 -0.533,0.096 -0.753,-0.064c-0.219,-0.159 -0.332,-0.427 -0.293,-0.696l1.56,-10.706l-7.555,-7.745c-0.19,-0.194 -0.256,-0.477 -0.172,-0.735c0.084,-0.258 0.304,-0.448 0.571,-0.494l10.665,-1.825l5.031,-9.579c0.126,-0.24 0.375,-0.39 0.646,-0.39c0.271,-0 0.52,0.15 0.646,0.39Zm-0.646,1.91l-4.552,8.667c-0.106,0.202 -0.299,0.342 -0.523,0.38l-9.651,1.651l6.837,7.008c0.159,0.163 0.233,0.391 0.2,0.615l-1.412,9.689l8.778,-4.337c0.204,-0.101 0.443,-0.101 0.647,0l8.777,4.337l-1.412,-9.689c-0.032,-0.224 0.041,-0.452 0.2,-0.615l6.837,-7.008l-9.65,-1.651c-0.224,-0.038 -0.418,-0.178 -0.524,-0.38l-4.552,-8.667Z" style="fill:#3d684c;"/></g></g></g></svg>