<?xml version="1.0" encoding="UTF-8" standalone="no"?>
<!DOCTYPE svg PUBLIC "-//W3C//DTD SVG 1.1//EN" "http://www.w3.org/Graphics/SVG/1.1/DTD/svg11.dtd">
<svg width="100%" height="100%" viewBox="0 0 300 345" version="1.1" xmlns="http://www.w3.org/2000/svg" xmlns:xlink="http://www.w3.org/1999/xlink" xml:space="preserve" xmlns:serif="http://www.serif.com/" style="fill-rule:evenodd;clip-rule:evenodd;stroke-linejoin:round;stroke-miterlimit:2;">
    <g>
        <g>
            <g>
                <path d="M300,229.193L300,308.62C300,328.577 283.577,345 263.62,345L36.38,345C16.423,345 0,328.577 0,308.62L0,229.193C0,249.272 181.698,279.868 181.698,279.868C181.698,279.868 300,249.272 300,229.193Z" style="fill:#9c9c9c;"/>
                <path d="M300,233.42L300,308.62C300,328.577 283.577,345 263.62,345L36.38,345C16.423,345 0,328.577 0,308.62L0,233.42C0,253.498 181.698,284.095 181.698,284.095C181.698,284.095 300,253.498 300,233.42Z" style="fill:#b7b7b7;"/>
                <path d="M300,293.254L300,308.62C300,328.577 283.577,345 263.62,345L36.38,345C16.423,345 0,328.577 0,308.62L0,233.42C0,253.498 181.698,284.095 181.698,284.095C181.698,284.095 300,253.498 300,233.42L300,253.973C257.998,284.569 209.286,280.476 165.295,295.243C205.67,283.68 255.586,288.881 300,267.398L300,275.602C279.313,285.427 278.92,291.385 300,293.254Z" style="fill:#d0d0d0;"/>
                <path d="M0,245.884L0,229.193C-0.297,249.377 187.365,280.741 194.753,281.808C226.819,286.437 265.478,291.601 300,294.72L300,308.62C300,312.359 299.424,315.974 298.356,319.38L0,245.884Z" style="fill:#c1c1c1;"/>
                <path d="M96.167,345L36.38,345C16.423,345 0,328.577 0,308.62L0,233.42C0,253.498 181.698,284.095 181.698,284.095C221.45,289.868 260.566,296.17 300,298.39L300,308.62C300,328.577 283.577,345 263.62,345L127.671,345C89.58,324.637 74.626,326.133 96.167,345ZM60.015,327.882C63.016,327.881 65.368,326.224 66.335,325.555C70.714,322.526 64.467,319.689 62.159,318.492C61.278,318.035 60.775,317.755 59.876,317.334C53.939,314.554 47.991,311.837 41.628,310.164C38.83,309.429 34.383,308.185 31.366,309.404C26.979,311.176 32.763,315.736 34.514,316.957C39.115,320.162 44.197,322.797 49.319,325.052C52.724,326.551 56.241,327.883 60.015,327.882ZM183.117,336.242C186.638,339.082 191.727,342.406 194.187,341.111C195.992,340.161 193.579,337.591 191.708,336.038C190.04,334.652 184.667,332.343 182.516,332.542C180.331,332.744 181.754,335.142 183.117,336.242ZM158.11,333.005C161.933,335.441 166.951,336.817 170.774,335.832C174.705,334.82 175.656,329.927 172.92,327.12C170.589,324.729 166.948,323.231 163.91,322.019C160.519,320.666 157.143,319.241 153.684,318.069C150.885,317.121 147.868,317.003 145.397,317.971C142.449,319.126 145.132,321.768 146.431,323.331C149.62,327.165 153.852,330.293 158.11,333.005ZM74.335,337.111C79.621,338.828 82.258,336.056 80.891,334.473C79.502,332.865 76.881,331.768 74.812,331.667C74.308,331.642 73.801,331.708 73.318,331.85C69.615,332.946 71.564,336.21 74.335,337.111Z" style="fill:#e9e9e9;"/>
                <path d="M0,258.88L0,252.692C58.012,289.741 104.882,291.399 161.501,345L135.454,345C95.323,311.782 41.99,315.673 0,279.375L0,272.689C3.177,274.636 6.589,276.169 9.909,277.851C16.248,281.061 35.343,287.564 35.608,285.993C35.983,283.775 30.395,280.255 27.682,278.617C21.346,274.79 15.258,270.747 9.373,266.25C6.23,263.849 3.017,261.454 0,258.88ZM113.234,321.313C115.086,322.717 119.361,324.664 121.751,324.629C122.385,324.619 122.973,324.538 123.582,324.35C126.514,323.448 124.371,321.678 123.042,320.619C120.255,318.398 116.661,315.967 113.054,315.42C112.381,315.318 107.808,314.688 107.718,315.722C107.64,316.613 110.899,319.542 113.234,321.313ZM68.703,306.835C73.43,309.966 98.681,319.232 101.613,317.466C104.066,315.989 99.516,312.631 98.821,312.129C92.757,307.752 84.467,305.006 77.398,302.853C75.59,302.302 66.288,299.644 63.821,301.106C60.738,302.933 67.504,306.041 68.703,306.835ZM-0,300.353L-0,293.229C21.578,317.018 51.004,333.719 86.431,345L50.789,345C40.529,332.13 12.976,321.609 -0,300.353ZM298.085,320.209C297.577,321.699 296.975,323.148 296.285,324.547C222.43,307.524 205.056,311.529 247.852,345L226.963,345C153.756,306.908 63.758,284.855 -0,249.319L0,233.42C0,253.498 181.698,284.095 181.698,284.095C221.45,289.868 260.566,296.17 300,298.39L300,303.331C263.984,303.663 267.863,309.965 298.085,320.209ZM136.458,296.095C141.165,296.909 147.929,295.719 150.608,294.345C152.745,293.25 152.87,291.517 151.377,289.896C150.915,289.394 150.391,288.925 149.819,288.551C148.901,287.95 140.275,285.661 136.967,284.899C130.923,283.508 124.801,282.517 118.619,281.96C116.426,281.763 114.305,281.81 112.09,282.01C111.625,282.052 110.434,282.46 110.003,282.649C104.328,285.124 113.169,287.933 114.932,288.658C118.564,290.151 131.528,295.243 136.458,296.095ZM161.776,309.59C166.344,311.367 170.378,310.008 168.468,307.056C167.295,305.243 159.082,302.269 157.389,302.862C156.493,303.175 155.239,303.978 155.65,305.161C156.419,307.373 159.863,308.846 161.776,309.59ZM210.623,324.332C213.04,325.675 225.787,332.832 226.04,332.386C226.124,332.237 212.756,320.904 218.859,312.08C221.884,307.706 239.082,303.524 239.001,303.443C238.248,302.686 226.083,299.308 222.177,298.452C214.745,296.823 205.819,295.254 198.218,296.264C197.165,296.404 196.446,296.605 195.441,296.967C190.373,298.792 189.879,302.875 191.845,307.216C195.193,314.606 206.864,322.243 210.623,324.332Z" style="fill:#f8f8f8;"/>
            </g>
        </g>
    </g>
</svg>
