<?xml version="1.0" encoding="UTF-8" standalone="no"?>
<!DOCTYPE svg PUBLIC "-//W3C//DTD SVG 1.1//EN" "http://www.w3.org/Graphics/SVG/1.1/DTD/svg11.dtd">
<svg width="100%" height="100%" viewBox="0 0 300 345" version="1.1" xmlns="http://www.w3.org/2000/svg" xmlns:xlink="http://www.w3.org/1999/xlink" xml:space="preserve" xmlns:serif="http://www.serif.com/" style="fill-rule:evenodd;clip-rule:evenodd;stroke-linejoin:round;stroke-miterlimit:2;">
    <g id="elf">
        <g>
            <path id="base_body_2" d="M0,262.01C0,282.089 16.301,298.39 36.38,298.39L263.62,298.39C283.699,298.39 300,282.089 300,262.01L300,308.62C300,328.577 283.577,345 263.62,345L36.38,345C16.423,345 0,328.577 0,308.62L0,262.01Z" style="fill:#579639;fill-rule:nonzero;"/>
            <rect x="135.09" y="316.533" width="38.278" height="5.956" style="fill:#ac7e00;"/>
            <path id="base_body_21" serif:id="base_body_2" d="M297.221,322.489C291.723,335.651 278.678,345 263.62,345L36.38,345C21.322,345 8.277,335.651 2.779,322.489L297.221,322.489Z" style="fill:#2b2b2b;fill-rule:nonzero;"/>
            <path d="M127.867,345L180.344,345L180.344,318.525C180.344,315.892 178.207,313.755 175.574,313.755L132.636,313.755C130.004,313.755 127.867,315.892 127.867,318.525L127.867,345ZM135.419,321.307L135.419,344.415L172.792,344.415L172.792,321.307L135.419,321.307Z" style="fill:#ffc200;"/>
            <g id="base_body_22" serif:id="base_body_2" transform="matrix(1,0,0,1,0,2.31518)">
                <path d="M0.152,311.93C0.051,310.84 0,309.736 0,308.62L0,259.14C5.249,272.785 20.897,282.477 36.38,282.477L263.62,282.477C279.103,282.477 294.751,272.785 300,259.14L300,308.62C300,311.085 299.75,313.496 299.272,315.831L267.179,299.765L245.589,316.209L212.682,302.07L186.621,320.174L151.462,300.091L125.241,319.598L91.301,300.423L61.499,318.852L24.916,296.83L0.152,311.93Z" style="fill-opacity:0.25;fill-rule:nonzero;"/>
            </g>
            <path id="base_body_23" serif:id="base_body_2" d="M0.152,311.93C0.051,310.84 0,309.736 0,308.62L0,259.14C5.249,272.785 20.897,282.477 36.38,282.477L263.62,282.477C279.103,282.477 294.751,272.785 300,259.14L300,308.62C300,311.085 299.75,313.496 299.272,315.831L267.179,299.765L245.589,316.209L212.682,302.07L186.621,320.174L151.462,300.091L125.241,319.598L91.301,300.423L61.499,318.852L24.916,296.83L0.152,311.93Z" style="fill:#bf322b;fill-rule:nonzero;"/>
            <path d="M188.072,307.287C186.904,308.099 186.127,308.638 185.927,308.777C185.336,309.188 185.189,310.002 185.6,310.594C186.011,311.186 186.825,311.332 187.417,310.921C187.617,310.783 188.394,310.243 189.561,309.432C190.153,309.021 190.3,308.206 189.889,307.615C189.478,307.023 188.664,306.876 188.072,307.287ZM61.49,307.033L60.82,306.63C60.203,306.259 59.4,306.458 59.029,307.076C58.657,307.693 58.857,308.496 59.474,308.868C60.337,309.387 60.826,309.681 60.826,309.681C61.029,309.804 61.262,309.868 61.499,309.868C61.499,309.868 61.786,309.92 62.195,309.667C62.251,309.633 62.557,309.444 63.064,309.13C63.677,308.751 63.867,307.945 63.488,307.333C63.109,306.72 62.304,306.53 61.691,306.909L61.49,307.033ZM123.716,306.947C123.074,306.584 122.307,306.151 121.443,305.663C120.816,305.309 120.018,305.53 119.664,306.158C119.31,306.785 119.531,307.582 120.159,307.936C121.023,308.425 121.789,308.858 122.432,309.221C123.059,309.575 123.856,309.354 124.211,308.726C124.565,308.099 124.344,307.302 123.716,306.947ZM128.75,305.07C127.964,305.655 127.257,306.181 126.655,306.629C126.077,307.059 125.957,307.877 126.387,308.456C126.817,309.034 127.635,309.154 128.213,308.724C128.816,308.276 129.523,307.75 130.308,307.165C130.886,306.735 131.007,305.917 130.577,305.339C130.147,304.76 129.328,304.64 128.75,305.07ZM182.788,306.191C182.091,305.794 181.331,305.359 180.521,304.896C179.895,304.539 179.097,304.757 178.74,305.382C178.382,306.008 178.6,306.806 179.226,307.164C180.036,307.627 180.796,308.061 181.493,308.459C182.119,308.816 182.917,308.598 183.274,307.973C183.632,307.347 183.414,306.549 182.788,306.191ZM194.505,302.818C193.765,303.332 193.047,303.831 192.361,304.308C191.769,304.719 191.622,305.533 192.033,306.125C192.444,306.717 193.259,306.863 193.85,306.452C194.536,305.976 195.255,305.477 195.995,304.963C196.587,304.551 196.733,303.737 196.322,303.145C195.911,302.554 195.097,302.407 194.505,302.818ZM68.353,302.789C67.573,303.271 66.829,303.732 66.133,304.162C65.52,304.541 65.33,305.346 65.709,305.959C66.088,306.572 66.893,306.762 67.506,306.383C68.202,305.953 68.946,305.492 69.727,305.01C70.34,304.631 70.53,303.825 70.151,303.213C69.772,302.6 68.966,302.41 68.353,302.789ZM56.346,303.937C55.644,303.515 54.895,303.064 54.109,302.591C53.492,302.219 52.689,302.418 52.317,303.036C51.946,303.653 52.145,304.456 52.763,304.828C53.549,305.301 54.298,305.752 55,306.174C55.617,306.546 56.42,306.346 56.792,305.729C57.163,305.112 56.964,304.309 56.346,303.937ZM244.076,303.848C243.408,303.561 242.598,303.213 241.677,302.817C241.015,302.533 240.246,302.839 239.962,303.501C239.677,304.163 239.984,304.932 240.646,305.216C241.567,305.612 242.378,305.96 243.045,306.247C243.707,306.531 244.475,306.225 244.76,305.563C245.044,304.901 244.738,304.132 244.076,303.848ZM297.558,303.223C296.894,302.89 296.107,302.496 295.223,302.054C294.579,301.732 293.794,301.993 293.472,302.637C293.149,303.281 293.41,304.066 294.055,304.389C294.938,304.831 295.725,305.225 296.39,305.558C297.034,305.88 297.819,305.619 298.141,304.975C298.464,304.33 298.203,303.545 297.558,303.223ZM116.896,303.094C116.162,302.679 115.401,302.25 114.623,301.81C113.995,301.455 113.198,301.677 112.844,302.304C112.489,302.932 112.711,303.729 113.338,304.083C114.117,304.523 114.877,304.953 115.612,305.368C116.239,305.722 117.036,305.501 117.391,304.873C117.745,304.246 117.523,303.449 116.896,303.094ZM249.273,301.472C248.506,302.057 247.804,302.591 247.196,303.055C246.623,303.491 246.512,304.311 246.948,304.884C247.385,305.457 248.205,305.568 248.778,305.132C249.386,304.668 250.088,304.134 250.855,303.55C251.428,303.113 251.539,302.293 251.103,301.72C250.666,301.147 249.846,301.036 249.273,301.472ZM175.986,302.306C175.245,301.883 174.488,301.45 173.719,301.011C173.093,300.654 172.295,300.872 171.938,301.497C171.58,302.123 171.798,302.921 172.424,303.278C173.192,303.718 173.95,304.15 174.691,304.574C175.317,304.931 176.115,304.713 176.472,304.087C176.83,303.462 176.612,302.664 175.986,302.306ZM135.035,300.395C134.323,300.924 133.622,301.446 132.94,301.953C132.362,302.383 132.242,303.202 132.672,303.78C133.102,304.358 133.92,304.478 134.498,304.048C135.18,303.541 135.882,303.019 136.593,302.49C137.171,302.06 137.292,301.241 136.862,300.663C136.432,300.085 135.613,299.965 135.035,300.395ZM236.879,300.756C236.103,300.422 235.3,300.077 234.48,299.725C233.817,299.44 233.049,299.747 232.765,300.409C232.48,301.071 232.787,301.839 233.449,302.124C234.269,302.476 235.072,302.821 235.848,303.155C236.51,303.439 237.278,303.132 237.563,302.47C237.847,301.808 237.541,301.04 236.879,300.756ZM0,297.728L0,302.937C0.01,302.938 0.019,302.939 0.029,302.94L0.273,302.94C0.37,302.931 0.467,302.911 0.562,302.879C0.657,302.848 0.747,302.806 0.83,302.756L2.742,301.59C3.357,301.215 3.552,300.411 3.177,299.795C2.802,299.18 1.998,298.985 1.383,299.36L1.322,299.397C1.318,299.268 1.315,299.138 1.312,299.008C1.298,298.294 0.712,297.724 0,297.728ZM75.016,298.669C74.271,299.13 73.528,299.589 72.795,300.042C72.182,300.421 71.992,301.226 72.371,301.839C72.75,302.452 73.556,302.642 74.168,302.263C74.901,301.81 75.644,301.35 76.389,300.89C77.002,300.511 77.192,299.706 76.813,299.093C76.434,298.48 75.629,298.29 75.016,298.669ZM49.635,299.897C48.901,299.456 48.154,299.006 47.398,298.551C46.781,298.179 45.978,298.379 45.606,298.996C45.235,299.613 45.434,300.416 46.052,300.788C46.807,301.243 47.555,301.693 48.289,302.134C48.906,302.506 49.709,302.306 50.08,301.689C50.452,301.072 50.253,300.269 49.635,299.897ZM200.938,298.349C200.229,298.842 199.511,299.34 198.794,299.839C198.202,300.25 198.056,301.064 198.467,301.656C198.878,302.248 199.692,302.394 200.284,301.983C201.001,301.485 201.719,300.986 202.428,300.493C203.02,300.082 203.167,299.268 202.756,298.676C202.344,298.085 201.53,297.938 200.938,298.349ZM290.554,299.716C289.797,299.338 289.016,298.947 288.219,298.548C287.574,298.225 286.789,298.486 286.467,299.131C286.144,299.775 286.406,300.56 287.05,300.883C287.847,301.282 288.628,301.673 289.385,302.051C290.029,302.374 290.814,302.113 291.137,301.468C291.459,300.824 291.198,300.039 290.554,299.716ZM110.076,299.241C109.319,298.814 108.559,298.384 107.803,297.957C107.175,297.602 106.378,297.824 106.024,298.451C105.669,299.079 105.891,299.876 106.518,300.23C107.275,300.658 108.035,301.087 108.792,301.515C109.419,301.869 110.216,301.647 110.57,301.02C110.925,300.393 110.703,299.596 110.076,299.241ZM169.184,298.421C168.425,297.987 167.668,297.555 166.917,297.126C166.291,296.768 165.493,296.986 165.136,297.612C164.778,298.238 164.996,299.036 165.622,299.393C166.373,299.822 167.13,300.255 167.889,300.688C168.515,301.046 169.313,300.828 169.67,300.202C170.028,299.576 169.81,298.778 169.184,298.421ZM255.505,296.726C254.808,297.257 254.112,297.787 253.427,298.308C252.854,298.745 252.743,299.565 253.18,300.138C253.617,300.711 254.436,300.822 255.01,300.385C255.694,299.864 256.39,299.334 257.087,298.803C257.66,298.367 257.771,297.547 257.334,296.974C256.898,296.4 256.078,296.289 255.505,296.726ZM229.681,297.663C228.879,297.319 228.077,296.974 227.282,296.632C226.62,296.348 225.852,296.654 225.567,297.317C225.283,297.979 225.59,298.747 226.252,299.031C227.046,299.373 227.849,299.718 228.651,300.062C229.313,300.347 230.081,300.04 230.366,299.378C230.65,298.716 230.343,297.948 229.681,297.663ZM141.32,295.719C140.634,296.23 139.933,296.751 139.225,297.278C138.647,297.708 138.527,298.526 138.957,299.105C139.387,299.683 140.205,299.803 140.783,299.373C141.491,298.846 142.192,298.325 142.878,297.814C143.456,297.384 143.577,296.566 143.147,295.988C142.717,295.41 141.898,295.289 141.32,295.719ZM8.071,295.282C7.302,295.751 6.554,296.207 5.841,296.642C5.226,297.017 5.031,297.821 5.406,298.436C5.781,299.051 6.585,299.246 7.201,298.871C7.913,298.437 8.661,297.981 9.43,297.512C10.045,297.137 10.24,296.333 9.865,295.718C9.49,295.102 8.686,294.907 8.071,295.282ZM283.549,296.21C282.767,295.819 281.986,295.428 281.214,295.041C280.57,294.719 279.785,294.98 279.462,295.624C279.14,296.269 279.401,297.054 280.045,297.376C280.818,297.763 281.598,298.154 282.38,298.545C283.024,298.867 283.809,298.606 284.132,297.962C284.454,297.318 284.193,296.533 283.549,296.21ZM81.678,294.549C80.957,294.995 80.214,295.454 79.457,295.922C78.845,296.301 78.655,297.107 79.034,297.719C79.413,298.332 80.218,298.522 80.831,298.143C81.588,297.675 82.331,297.215 83.051,296.77C83.664,296.391 83.854,295.586 83.475,294.973C83.096,294.36 82.291,294.17 81.678,294.549ZM42.924,295.857C42.174,295.406 41.427,294.956 40.687,294.511C40.07,294.139 39.267,294.339 38.895,294.956C38.523,295.573 38.723,296.376 39.34,296.748C40.08,297.193 40.828,297.643 41.577,298.094C42.195,298.466 42.998,298.267 43.369,297.649C43.741,297.032 43.541,296.229 42.924,295.857ZM103.256,295.388C102.478,294.948 101.717,294.519 100.982,294.104C100.355,293.749 99.558,293.971 99.204,294.598C98.849,295.226 99.071,296.023 99.698,296.377C100.433,296.792 101.193,297.222 101.971,297.662C102.599,298.016 103.396,297.794 103.75,297.167C104.105,296.54 103.883,295.743 103.256,295.388ZM207.372,293.88C206.704,294.344 205.985,294.843 205.227,295.37C204.636,295.781 204.489,296.595 204.9,297.187C205.311,297.778 206.125,297.925 206.717,297.514C207.474,296.988 208.194,296.488 208.862,296.024C209.453,295.613 209.6,294.799 209.189,294.207C208.778,293.615 207.964,293.469 207.372,293.88ZM222.484,294.571C221.65,294.212 220.847,293.867 220.085,293.54C219.423,293.256 218.655,293.562 218.37,294.224C218.086,294.886 218.392,295.655 219.054,295.939C219.816,296.266 220.62,296.612 221.454,296.97C222.116,297.254 222.884,296.948 223.168,296.286C223.453,295.624 223.146,294.855 222.484,294.571ZM162.382,294.536C161.6,294.089 160.842,293.656 160.115,293.241C159.489,292.883 158.691,293.101 158.334,293.727C157.976,294.352 158.194,295.15 158.82,295.508C159.547,295.923 160.305,296.356 161.087,296.803C161.713,297.16 162.511,296.942 162.868,296.317C163.226,295.691 163.008,294.893 162.382,294.536ZM261.736,291.98C261.083,292.477 260.386,293.008 259.659,293.562C259.086,293.998 258.975,294.818 259.412,295.391C259.848,295.965 260.668,296.076 261.241,295.639C261.968,295.086 262.666,294.554 263.318,294.057C263.892,293.62 264.003,292.8 263.566,292.227C263.129,291.654 262.31,291.543 261.736,291.98ZM276.544,292.704C275.73,292.296 274.948,291.905 274.209,291.535C273.565,291.212 272.78,291.474 272.457,292.118C272.135,292.762 272.396,293.547 273.04,293.87C273.78,294.24 274.562,294.631 275.375,295.039C276.02,295.361 276.805,295.1 277.127,294.455C277.45,293.811 277.188,293.026 276.544,292.704ZM14.759,291.205C14.026,291.651 13.28,292.106 12.53,292.564C11.914,292.939 11.719,293.743 12.095,294.358C12.47,294.973 13.274,295.168 13.889,294.793C14.639,294.336 15.386,293.881 16.118,293.434C16.733,293.059 16.928,292.255 16.553,291.64C16.178,291.024 15.374,290.829 14.759,291.205ZM147.605,291.044C146.977,291.511 146.272,292.036 145.51,292.602C144.932,293.032 144.812,293.851 145.242,294.429C145.672,295.007 146.49,295.127 147.068,294.697C147.83,294.131 148.535,293.606 149.163,293.139C149.741,292.709 149.862,291.89 149.432,291.312C149.002,290.734 148.183,290.614 147.605,291.044ZM36.213,291.817C35.443,291.354 34.695,290.904 33.976,290.471C33.358,290.099 32.556,290.299 32.184,290.916C31.812,291.533 32.012,292.336 32.629,292.708C33.348,293.141 34.096,293.591 34.866,294.054C35.483,294.426 36.286,294.227 36.658,293.609C37.03,292.992 36.83,292.189 36.213,291.817ZM88.341,290.429C87.705,290.822 86.956,291.285 86.12,291.802C85.507,292.181 85.317,292.987 85.696,293.599C86.075,294.212 86.88,294.402 87.493,294.023C88.329,293.506 89.078,293.043 89.714,292.65C90.327,292.271 90.517,291.466 90.138,290.853C89.759,290.24 88.953,290.05 88.341,290.429ZM212.752,293.231L214.256,293.878C214.918,294.162 215.687,293.855 215.971,293.193C216.256,292.531 215.949,291.763 215.287,291.479C213.974,290.914 213.198,290.581 213.198,290.581C212.862,290.408 212.193,290.528 211.935,290.71C211.824,290.788 211.823,290.787 211.661,290.9C211.069,291.312 210.922,292.126 211.333,292.718C211.658,293.185 212.233,293.374 212.752,293.231ZM96.436,291.535C95.573,291.048 94.807,290.615 94.162,290.251C93.535,289.896 92.738,290.118 92.383,290.745C92.029,291.373 92.251,292.17 92.878,292.524C93.523,292.888 94.289,293.321 95.151,293.808C95.779,294.163 96.576,293.941 96.93,293.314C97.285,292.687 97.063,291.889 96.436,291.535ZM155.58,290.65C154.661,290.125 153.892,289.686 153.313,289.355C152.687,288.998 151.889,289.216 151.532,289.841C151.175,290.467 151.392,291.265 152.018,291.623C152.597,291.953 153.366,292.393 154.285,292.918C154.911,293.275 155.709,293.057 156.067,292.432C156.424,291.806 156.206,291.008 155.58,290.65ZM267.308,291L268.371,291.532C269.015,291.855 269.8,291.593 270.122,290.949C270.445,290.305 270.184,289.52 269.539,289.197C268.418,288.636 267.763,288.308 267.763,288.308C267.321,288.099 266.671,288.246 266.383,288.441C266.171,288.584 266.179,288.596 265.891,288.815C265.318,289.252 265.207,290.072 265.643,290.645C266.039,291.165 266.751,291.305 267.308,291ZM21.447,287.127C20.789,287.528 20.037,287.986 19.218,288.486C18.602,288.861 18.408,289.665 18.783,290.28C19.158,290.895 19.962,291.09 20.577,290.715C21.396,290.216 22.148,289.757 22.806,289.356C23.422,288.981 23.617,288.177 23.241,287.562C22.866,286.946 22.062,286.751 21.447,287.127ZM29.502,287.778C28.628,287.252 27.872,286.797 27.265,286.431C26.647,286.059 25.844,286.259 25.473,286.876C25.101,287.493 25.301,288.296 25.918,288.668C26.526,289.034 27.281,289.489 28.155,290.015C28.772,290.386 29.575,290.187 29.947,289.569C30.318,288.952 30.119,288.149 29.502,287.778Z" style="fill:#b21c13;"/>
            <path id="base_body_24" serif:id="base_body_2" d="M300,308.62C300,311.085 299.75,313.496 299.272,315.831L267.179,299.765L245.589,316.209L212.682,302.07L186.621,320.174L151.462,300.091L125.241,319.598L91.301,300.423L61.499,318.852L24.916,296.83L0.152,311.93C0.051,310.84 0,309.736 0,308.62L0,304.652C0,305.768 0.051,306.872 0.152,307.962L24.916,292.863L61.499,314.885L91.301,296.455L125.241,315.63L151.462,296.123L186.621,316.206L212.682,298.102L245.589,312.241L267.179,295.797L299.272,311.863C299.75,309.528 300,307.117 300,304.652L300,308.62Z" style="fill:#7d1913;fill-rule:nonzero;"/>
        </g>
    </g>
</svg>
