<?xml version="1.0" encoding="UTF-8" standalone="no"?><!DOCTYPE svg PUBLIC "-//W3C//DTD SVG 1.1//EN" "http://www.w3.org/Graphics/SVG/1.1/DTD/svg11.dtd"><svg width="100%" height="100%" viewBox="0 0 300 345" version="1.1" xmlns="http://www.w3.org/2000/svg" xmlns:xlink="http://www.w3.org/1999/xlink" xml:space="preserve" xmlns:serif="http://www.serif.com/" style="fill-rule:evenodd;clip-rule:evenodd;stroke-linejoin:round;stroke-miterlimit:2;"><g id="Cow"><g id="CowClothes"><path d="M188.124,298.39l75.496,0c20.079,0 36.38,-16.301 36.38,-36.38l0,46.514c0,19.958 -16.423,36.381 -36.38,36.381l-227.24,-0c-19.957,-0 -36.38,-16.423 -36.38,-36.381l0,-46.514c0,20.079 16.301,36.38 36.38,36.38l75.787,-0l37.979,30.345l37.978,-30.345Z" style="fill:#a42b27;"/><path d="M112.5,298.656l0,46.249l-15,-0l0,-46.515l14.667,-0l0.333,0.266Zm75.624,-0.266l14.376,-0l0,46.515l-15,-0l0,-46.016l0.624,-0.499Zm-15.624,12.484l0,34.031l-15,-0l0,-22.046l15,-11.985Zm-30,11.752l0,22.279l-15,-0l0,-34.264l15,11.985Zm-120,-26.982l0,46.173c-5.946,-2.495 -11.124,-6.526 -15,-11.68l0,-46.011c3.873,5.048 9.038,9.053 15,11.518Zm30,2.746l0,46.515l-15,-0l0,-46.515l15,-0Zm30,-0l0,46.515l-15,-0l0,-46.515l15,-0Zm150,-0l0,46.515l-15,-0l0,-46.515l15,-0Zm30,-0l0,46.515l-15,-0l0,-46.515l15,-0Zm30,-14.264l0,46.464c-3.896,5.097 -9.072,9.074 -15,11.526l0,-46.472c5.962,-2.465 11.127,-6.47 15,-11.518Z" style="fill:#781310;fill-opacity:0.37;"/><path d="M300,262.01l-0,2.598l-0.092,0c0.061,-0.858 0.092,-1.724 0.092,-2.598Zm-0,0l-0,-0c-0,0 -0,0 -0,0Zm-155.02,62.598l-140.98,0c-2.348,-4.665 -3.663,-9.781 -3.857,-15l126.064,0l18.773,15Zm29.104,-15l125.869,0c-0.155,5.209 -1.427,10.325 -3.73,15l-140.912,0l18.773,-15Zm-173.992,-45l-0.092,0l-0,-2.598c-0,0.874 0.031,1.74 0.092,2.598Zm295.37,15l4.538,0l-0,15l-20.221,0c6.625,-3.293 12.106,-8.547 15.683,-15Zm-275.241,15l-20.221,0l-0,-15l4.538,0c3.577,6.453 9.058,11.707 15.683,15Zm-2.584,45l264.838,0c-5.683,3.456 -12.205,5.288 -18.856,5.297l-227.238,-0c-6.613,-0.029 -13.094,-1.861 -18.744,-5.297Z" style="fill:#300605;fill-opacity:0.37;"/><g><path d="M66.074,309.981c-0.531,-0 -1.057,0.103 -1.549,0.304l-16.902,6.914c-0.554,0.228 -1.051,0.574 -1.457,1.014c-7.45,8.081 -13.974,9.008 -20.793,7.5c-6.585,-1.456 -14.063,-6.109 -21.732,-12.423c-0.895,-0.653 -2.018,-0.915 -3.11,-0.725c2.035,18.211 17.526,32.186 35.85,32.34l227.238,-0c18.464,-0.013 34.138,-14.079 36.141,-32.434c-1.341,-0.238 -2.716,0.209 -3.66,1.19c-7.47,8.033 -13.954,11.071 -20.914,11.345c-7.643,0.301 -14.545,-2.092 -22.438,-7.412c-0.192,-0.13 -0.394,-0.243 -0.605,-0.338l-15.368,-6.916c-0.526,-0.237 -1.098,-0.359 -1.675,-0.359l-169.026,-0Zm0.803,8.174l167.344,-0l14.306,6.437c8.21,5.505 16.692,5.635 25.842,6.553c4.635,0.465 9.376,-0.165 14.049,-2.082c-5.97,7.22 -14.911,11.743 -24.799,11.754l-227.219,0c-10.359,-0.048 -19.642,-5.064 -25.562,-12.924c4.532,2.294 9.183,3.793 14.002,4.108c9.02,0.589 18.135,1.215 26.508,-7.493l15.529,-6.353Z" style="fill:#161b38;fill-rule:nonzero;"/><path d="M1.043,316.444c3.695,16.57 18.361,28.382 35.338,28.461l227.238,-0c17.028,-0.016 31.766,-11.842 35.473,-28.461c-16.209,17.433 -32.418,15.464 -48.627,4.539l-15.366,-6.915l-169.025,-0l-16.903,6.915c-16.043,17.4 -32.085,8.67 -48.128,-4.539Z" style="fill:url(#_Linear1);fill-rule:nonzero;"/><path d="M215.253,314.068c0.145,1.159 1.023,4.072 1.169,5.151c0.15,0.887 0.227,2.071 -0.832,2.86c-1.164,0.868 -3.27,0.453 -4.154,0.284c-9.988,-1.813 -20.798,-5.009 -29.598,-8.295l33.415,-0Zm-100.169,-0c-7.397,1.823 -14.386,3.917 -22.693,5.541c-1.104,0.213 -3.118,0.274 -4.098,-0.277c-1.158,-0.65 -1.976,-1.807 -1.922,-3.948c0.003,-0.099 0.131,-1.218 0.124,-1.316l28.589,-0Z" style="fill:#1f2753;"/><path d="M68.379,298.39l-0,30.345l-22.281,0l-0,-30.345l22.281,0Zm185.523,0l0,30.345l-22.281,0l0,-30.345l22.281,0Z" style="fill:#2c3773;"/><path d="M70.926,298.39l0,41.21c0,1.164 -0.788,2.18 -1.915,2.468l-11.141,2.852c-0.414,0.107 -0.849,0.107 -1.264,0l-11.14,-2.852c-1.127,-0.288 -1.916,-1.304 -1.916,-2.468l0,-41.21l5.095,0l0,39.233l8.593,2.2c0,-0 8.593,-2.2 8.593,-2.2l0,-39.233l5.095,0Zm185.524,0l-0,41.21c-0,1.175 -0.803,2.197 -1.944,2.475l-11.141,2.717c-0.396,0.096 -0.81,0.096 -1.207,-0l-11.14,-2.717c-1.141,-0.278 -1.944,-1.3 -1.944,-2.475l-0,-41.21l5.095,0c-0,19.614 -0,39.209 -0,39.209l8.593,2.096l8.593,-2.096l-0,-39.209l5.095,0Z" style="fill:#161b38;"/><path d="M102.064,321.178c-0.137,-0.022 -0.276,-0.034 -0.415,-0.034c-1.397,0 -2.547,1.15 -2.547,2.548l-0,21.213l5.095,-0l0,-18.307c28.299,4.455 58.084,5.905 91.606,0.08l-0,18.227l5.095,-0l0,-21.213c-0,-1.397 -1.15,-2.547 -2.547,-2.547c-0.157,0 -0.313,0.015 -0.466,0.043c-35.254,6.546 -66.178,4.887 -95.821,-0.01l0,0Z" style="fill:#161b38;fill-rule:nonzero;"/><g><ellipse cx="57.141" cy="330.378" rx="8.122" ry="7.353" style="fill:#161b38;fill-opacity:0.73;"/><circle cx="57.141" cy="327.824" r="8.122" style="fill:#a8b6af;"/><ellipse cx="60.119" cy="324.03" rx="2.497" ry="2.593" style="fill:#d2d9d5;"/></g><g><path d="M250.98,330.378c0,4.034 -3.666,7.354 -8.121,7.354c-4.456,-0 -8.122,-3.32 -8.122,-7.354l-0,0c-0,-4.034 3.666,-7.353 8.122,-7.353c4.455,-0 8.121,3.319 8.121,7.353l0,0Z" style="fill:#161b38;fill-opacity:0.73;"/><path d="M250.98,327.824c0,0 0,0 0,0c0,4.456 -3.666,8.122 -8.121,8.122c-4.456,0 -8.122,-3.666 -8.122,-8.122c-0,0 -0,0 -0,0c-0,-4.455 3.666,-8.122 8.122,-8.122c4.455,0 8.121,3.667 8.121,8.122Z" style="fill:#a8b6af;"/><path d="M248.333,324.03c0,1.422 -1.127,2.593 -2.497,2.593c-1.369,-0 -2.496,-1.171 -2.496,-2.593c-0,-1.423 1.127,-2.593 2.496,-2.593c1.37,-0 2.497,1.17 2.497,2.593Z" style="fill:#d2d9d5;"/></g></g><path d="M84.131,298.39l28.036,-0l14.506,11.591c-12.425,5.803 -21.798,5.512 -34.233,7.942c-1.104,0.213 -2.246,-0.053 -3.142,-0.732c-0.895,-0.679 -1.459,-1.708 -1.551,-2.828c-0.406,-5.267 0.115,-10.4 -3.616,-15.973Zm89.487,11.591l14.506,-11.591l22.695,0c2.189,4.689 2.878,12.771 3.726,19.049c0.151,0.887 -0.143,1.792 -0.786,2.422c-0.642,0.63 -1.553,0.905 -2.437,0.737c-13.386,-2.43 -28.045,-4.173 -37.704,-10.617Z" style="fill:#84201d;"/><path d="M92.391,298.39l11.896,-0c1.853,2.74 3.851,5.066 6.29,7.092c0.157,0.127 0.197,0.351 0.093,0.526c-0.104,0.174 -0.32,0.245 -0.507,0.168c-6.563,-2.632 -12.838,-4.369 -17.772,-7.786Zm102.979,-0l9.905,0c-5.916,4.808 -12.333,6.322 -18.15,7.542c-0.275,0.059 -0.552,-0.088 -0.657,-0.348c-0.105,-0.261 -0.007,-0.559 0.232,-0.707c3.062,-1.921 5.941,-4.099 8.67,-6.487Z" style="fill:#94221e;"/><path d="M124.598,308.323l2.075,1.658c-12.425,5.803 -21.798,5.512 -34.233,7.942c-1.104,0.213 -2.246,-0.053 -3.142,-0.732c-0.645,-0.489 -1.118,-1.16 -1.366,-1.915c0.887,0.648 2.004,0.898 3.084,0.689c12.217,-2.387 21.478,-2.148 33.582,-7.642Zm89.959,9.19c0.122,0.863 -0.173,1.735 -0.798,2.348c-0.642,0.63 -1.553,0.905 -2.437,0.737c-13.386,-2.43 -28.045,-4.173 -37.704,-10.617l2.273,-1.816c9.646,5.823 23.658,7.521 36.499,9.852c0.766,0.146 1.552,-0.042 2.167,-0.504Z" style="fill:#6f1815;"/></g></g><defs><linearGradient id="_Linear1" x1="0" y1="0" x2="1" y2="0" gradientUnits="userSpaceOnUse" gradientTransform="matrix(0.65578,-57.3158,57.3158,0.65578,157.85,345.601)"><stop offset="0" style="stop-color:#252f60;stop-opacity:1"/><stop offset="0.19" style="stop-color:#252f60;stop-opacity:1"/><stop offset="0.72" style="stop-color:#2c3c9f;stop-opacity:1"/><stop offset="1" style="stop-color:#2c3c9f;stop-opacity:1"/></linearGradient></defs></svg>