<?xml version="1.0" encoding="UTF-8" standalone="no"?><!DOCTYPE svg PUBLIC "-//W3C//DTD SVG 1.1//EN" "http://www.w3.org/Graphics/SVG/1.1/DTD/svg11.dtd"><svg width="100%" height="100%" viewBox="0 0 1250 1438" version="1.1" xmlns="http://www.w3.org/2000/svg" xmlns:xlink="http://www.w3.org/1999/xlink" xml:space="preserve" xmlns:serif="http://www.serif.com/" style="fill-rule:evenodd;clip-rule:evenodd;stroke-linejoin:round;stroke-miterlimit:2;"><g id="Miner-v1.3" serif:id="Miner v1.3"><g id="CLothesMiner"><path id="base_body_2" d="M1250,1076.96l-0,194.209c-0,83.156 -68.427,151.583 -151.583,151.583l-946.834,0c-83.156,0 -151.583,-68.427 -151.583,-151.583l-0,-194.209c-0,83.662 67.922,151.584 151.583,151.584l946.834,-0c83.661,-0 151.583,-67.922 151.583,-151.584Z" style="fill:#e1e1e1;fill-rule:nonzero;"/><path id="base_body_21" serif:id="base_body_2" d="M796.1,1228.54l302.317,-0c83.661,-0 151.583,-67.922 151.583,-151.584l-0,194.209c-0,83.156 -68.427,151.583 -151.583,151.583l-946.834,0c-83.156,0 -151.583,-68.427 -151.583,-151.583l-0,-194.209c-0,83.662 67.922,151.584 151.583,151.584l292.404,-0l181.013,73.502l171.1,-73.502Z" style="fill:#2d2d2d;fill-rule:nonzero;"/><g><g><path id="base_body_22" serif:id="base_body_2" d="M576.415,1349.36l-0,73.388l-424.832,0c-52.564,0 -99.243,-27.341 -126.474,-68.461c43.476,-25.015 67.257,-69.724 68.03,-137.442c17.989,7.533 37.735,11.695 58.444,11.695l138.92,-0c-0,-0 171.507,88.407 285.912,120.82Z" style="fill:#ff4d00;fill-rule:nonzero;"/><path id="base_body_23" serif:id="base_body_2" d="M86.661,1270.36c4.066,-15.931 6.252,-33.74 6.478,-53.51c17.989,7.533 37.735,11.695 58.444,11.695l138.92,-0c-0,-0 36.032,18.573 86.081,41.815l-289.923,-0Z" style="fill:#5d1c00;fill-rule:nonzero;"/><path id="base_body_24" serif:id="base_body_2" d="M348.02,1256.9c16.961,8.108 36.738,17.358 58.022,26.922l-323.415,0c2.909,-8.378 5.228,-17.347 6.941,-26.922l258.452,-0Zm-298.859,125.617c-9.106,-8.39 -17.195,-17.87 -24.052,-28.224c1.856,-1.068 3.675,-2.171 5.458,-3.31l545.848,-0l-0,31.534l-527.254,-0Z" style="fill:#bcbcbc;"/><path id="base_body_25" serif:id="base_body_2" d="M396.045,1279.3c3.291,1.496 6.625,3.003 9.997,4.518l-323.415,0c0.516,-1.487 1.014,-2.994 1.494,-4.518l311.924,-0Zm180.37,99.288l-0,3.925l-527.254,-0c-1.392,-1.283 -2.761,-2.592 -4.105,-3.925l531.359,-0Z" style="fill:#8c8c8c;"/><path d="M15.306,1337.18c37.929,-21.84 57.441,-61.464 58.116,-120.558l0.111,-9.72c6.256,3.768 12.805,7.097 19.606,9.945c-0.773,67.718 -24.554,112.427 -68.03,137.442c-3.622,-5.47 -6.9,-11.184 -9.803,-17.109Zm561.109,85.57l-0,-73.388c-114.405,-32.413 -285.912,-120.82 -285.912,-120.82l44.126,-0c55.597,27.201 165.944,78.837 247.161,101.848l14.344,4.064l-0,88.296l-19.719,0Z" style="fill:#a03000;"/><path d="M581.581,1422.75l-5.166,0l-0,-73.388c-114.405,-32.413 -285.912,-120.82 -285.912,-120.82l12.137,-0c33.242,16.801 178.221,88.736 278.941,117.272l0,76.936Zm-491.926,-207.414c1.153,0.518 2.315,1.022 3.484,1.511c-0.773,67.718 -24.554,112.427 -68.03,137.442c-0.716,-1.082 -1.419,-2.174 -2.109,-3.274c42.404,-25.041 65.677,-69.212 66.655,-135.679Z" style="fill:#7e2600;"/></g><g><path id="base_body_26" serif:id="base_body_2" d="M673.585,1349.36l0,73.388l424.832,0c52.564,0 99.243,-27.341 126.474,-68.461c-43.476,-25.015 -67.257,-69.724 -68.03,-137.442c-17.989,7.533 -37.735,11.695 -58.444,11.695l-138.92,-0c0,-0 -171.507,88.407 -285.912,120.82Z" style="fill:#ff4d00;fill-rule:nonzero;"/><path id="base_body_27" serif:id="base_body_2" d="M1163.34,1270.36c-4.066,-15.931 -6.252,-33.74 -6.478,-53.51c-17.989,7.533 -37.735,11.695 -58.444,11.695l-138.92,-0c0,-0 -36.032,18.573 -86.081,41.815l289.923,-0Z" style="fill:#5d1c00;fill-rule:nonzero;"/><path id="base_body_28" serif:id="base_body_2" d="M901.98,1256.9c-16.961,8.108 -36.738,17.358 -58.022,26.922l323.415,0c-2.909,-8.378 -5.228,-17.347 -6.941,-26.922l-258.452,-0Zm298.859,125.617c9.106,-8.39 17.195,-17.87 24.052,-28.224c-1.856,-1.068 -3.675,-2.171 -5.458,-3.31l-545.848,-0l0,31.534l527.254,-0Z" style="fill:#bcbcbc;"/><path id="base_body_29" serif:id="base_body_2" d="M853.955,1279.3c-3.291,1.496 -6.625,3.003 -9.997,4.518l323.415,0c-0.516,-1.487 -1.014,-2.994 -1.494,-4.518l-311.924,-0Zm-180.37,99.288l0,3.925l527.254,-0c1.392,-1.283 2.761,-2.592 4.105,-3.925l-531.359,-0Z" style="fill:#8c8c8c;"/><path d="M1234.69,1337.18c-37.929,-21.84 -57.441,-61.464 -58.116,-120.558l-0.111,-9.72c-6.256,3.768 -12.805,7.097 -19.606,9.945c0.773,67.718 24.554,112.427 68.03,137.442c3.622,-5.47 6.9,-11.184 9.803,-17.109Zm-561.109,85.57l0,-73.388c114.405,-32.413 285.912,-120.82 285.912,-120.82l-44.126,-0c-55.597,27.201 -165.944,78.837 -247.161,101.848l-14.344,4.064l0,88.296l19.719,0Z" style="fill:#a03000;"/><path d="M668.419,1422.75l5.166,0l0,-73.388c114.405,-32.413 285.912,-120.82 285.912,-120.82l-12.137,-0c-33.242,16.801 -178.221,88.736 -278.941,117.272l-0,76.936Zm491.926,-207.414c-1.153,0.518 -2.315,1.022 -3.484,1.511c0.773,67.718 24.554,112.427 68.03,137.442c0.716,-1.082 1.419,-2.174 2.109,-3.274c-42.404,-25.041 -65.677,-69.212 -66.655,-135.679Z" style="fill:#7e2600;"/></g><path d="M596.142,1334.01c15.938,0 28.858,12.92 28.858,28.858c-0,25.907 -0,59.886 -0,59.886l-28.866,0l-0,-88.744l0.008,0Z" style="fill:#6a2000;"/><path d="M653.858,1334.01c-15.938,0 -28.858,12.92 -28.858,28.858c-0,25.907 -0,59.886 -0,59.886l28.866,0l0,-88.744l-0.008,0Z" style="fill:#6a2000;"/><g><path d="M636.693,1422.75l-23.713,0l-0,-58.826c-0,-1.178 0.956,-2.134 2.134,-2.134l19.445,0c1.178,0 2.134,0.956 2.134,2.134l0,58.826Z" style="fill:#828282;"/><g><g><path d="M627.823,1365.2l0.001,-0.256c0.007,-1.223 1.006,-2.21 2.229,-2.203l4.431,0.025c1.224,0.007 2.211,1.005 2.204,2.228l-0.034,6.133c-0.007,1.223 -1.006,2.211 -2.229,2.204l-4.432,-0.025c-1.223,-0.007 -2.21,-1.006 -2.203,-2.229l0.001,-0.256l-1.136,-0.006c-0.741,0.758 -1.775,1.226 -2.917,1.22c-2.233,-0.013 -4.036,-1.836 -4.024,-4.07c0.013,-2.233 1.836,-4.036 4.069,-4.023c1.142,0.006 2.172,0.486 2.903,1.252l1.137,0.006Z" style="fill:#747474;"/><path d="M627.828,1364.25l0.002,-0.256c0.006,-1.223 1.005,-2.211 2.228,-2.204l4.432,0.025c1.223,0.007 2.21,1.005 2.203,2.228l-0.034,6.133c-0.007,1.223 -1.006,2.211 -2.229,2.204l-4.431,-0.025c-1.223,-0.007 -2.211,-1.005 -2.204,-2.228l0.001,-0.257l-1.136,-0.006c-0.74,0.758 -1.775,1.226 -2.917,1.22c-2.233,-0.013 -4.036,-1.836 -4.024,-4.069c0.013,-2.234 1.836,-4.037 4.07,-4.024c1.141,0.006 2.171,0.486 2.903,1.252l1.136,0.007Z" style="fill:#929292;"/></g><g><path d="M621.85,1372.85l-0.001,-0.256c-0.007,-1.223 -1.005,-2.21 -2.228,-2.203l-4.432,0.025c-1.223,0.006 -2.211,1.005 -2.204,2.228l0.035,6.133c0.007,1.223 1.005,2.21 2.228,2.204l4.432,-0.025c1.223,-0.007 2.21,-1.006 2.203,-2.229l-0.001,-0.256l1.136,-0.006c0.741,0.758 1.776,1.226 2.917,1.219c2.234,-0.012 4.037,-1.835 4.024,-4.069c-0.012,-2.233 -1.836,-4.036 -4.069,-4.023c-1.142,0.006 -2.171,0.486 -2.903,1.252l-1.137,0.006Z" style="fill:#747474;"/><path d="M621.845,1371.91l-0.001,-0.257c-0.007,-1.223 -1.006,-2.21 -2.229,-2.203l-4.432,0.025c-1.223,0.007 -2.21,1.005 -2.203,2.228l0.034,6.133c0.007,1.223 1.006,2.211 2.229,2.204l4.432,-0.025c1.223,-0.007 2.21,-1.006 2.203,-2.229l-0.001,-0.256l1.136,-0.006c0.74,0.758 1.775,1.226 2.917,1.22c2.233,-0.013 4.036,-1.836 4.024,-4.07c-0.013,-2.233 -1.836,-4.036 -4.069,-4.023c-1.142,0.006 -2.172,0.486 -2.904,1.252l-1.136,0.007Z" style="fill:#929292;"/></g><g><path d="M627.823,1380.51l0.001,-0.256c0.007,-1.223 1.006,-2.211 2.229,-2.204l4.431,0.025c1.224,0.007 2.211,1.005 2.204,2.228l-0.034,6.133c-0.007,1.223 -1.006,2.211 -2.229,2.204l-4.432,-0.025c-1.223,-0.007 -2.21,-1.005 -2.203,-2.228l0.001,-0.257l-1.136,-0.006c-0.741,0.758 -1.775,1.226 -2.917,1.22c-2.233,-0.013 -4.036,-1.836 -4.024,-4.069c0.013,-2.234 1.836,-4.037 4.069,-4.024c1.142,0.006 2.172,0.486 2.903,1.252l1.137,0.007Z" style="fill:#747474;"/><path d="M627.828,1379.56l0.002,-0.256c0.006,-1.223 1.005,-2.211 2.228,-2.204l4.432,0.025c1.223,0.007 2.21,1.006 2.203,2.229l-0.034,6.133c-0.007,1.223 -1.006,2.21 -2.229,2.203l-4.431,-0.025c-1.223,-0.007 -2.211,-1.005 -2.204,-2.228l0.001,-0.256l-1.136,-0.007c-0.74,0.758 -1.775,1.226 -2.917,1.22c-2.233,-0.013 -4.036,-1.836 -4.024,-4.069c0.013,-2.233 1.836,-4.036 4.07,-4.024c1.141,0.007 2.171,0.486 2.903,1.253l1.136,0.006Z" style="fill:#929292;"/></g><g><path d="M621.85,1388.16l-0.001,-0.257c-0.007,-1.223 -1.005,-2.21 -2.228,-2.203l-4.432,0.025c-1.223,0.007 -2.211,1.005 -2.204,2.228l0.035,6.133c0.007,1.223 1.005,2.211 2.228,2.204l4.432,-0.025c1.223,-0.007 2.21,-1.006 2.203,-2.229l-0.001,-0.256l1.136,-0.006c0.741,0.758 1.776,1.226 2.917,1.22c2.234,-0.013 4.037,-1.836 4.024,-4.07c-0.012,-2.233 -1.836,-4.036 -4.069,-4.023c-1.142,0.006 -2.171,0.486 -2.903,1.252l-1.137,0.007Z" style="fill:#747474;"/><path d="M621.845,1387.21l-0.001,-0.256c-0.007,-1.223 -1.006,-2.211 -2.229,-2.204l-4.432,0.025c-1.223,0.007 -2.21,1.005 -2.203,2.228l0.034,6.133c0.007,1.223 1.006,2.211 2.229,2.204l4.432,-0.025c1.223,-0.007 2.21,-1.005 2.203,-2.228l-0.001,-0.256l1.136,-0.007c0.74,0.758 1.775,1.226 2.917,1.22c2.233,-0.013 4.036,-1.836 4.024,-4.069c-0.013,-2.234 -1.836,-4.037 -4.069,-4.024c-1.142,0.006 -2.172,0.486 -2.904,1.252l-1.136,0.007Z" style="fill:#929292;"/></g><g><path d="M627.823,1395.85l0.001,-0.256c0.007,-1.223 1.006,-2.211 2.229,-2.204l4.431,0.025c1.224,0.007 2.211,1.006 2.204,2.229l-0.034,6.133c-0.007,1.223 -1.006,2.21 -2.229,2.203l-4.432,-0.025c-1.223,-0.007 -2.21,-1.005 -2.203,-2.228l0.001,-0.256l-1.136,-0.007c-0.741,0.758 -1.775,1.226 -2.917,1.22c-2.233,-0.013 -4.036,-1.836 -4.024,-4.069c0.013,-2.233 1.836,-4.036 4.069,-4.024c1.142,0.007 2.172,0.486 2.903,1.252l1.137,0.007Z" style="fill:#747474;"/><path d="M627.828,1394.9l0.002,-0.256c0.006,-1.223 1.005,-2.21 2.228,-2.204l4.432,0.025c1.223,0.007 2.21,1.006 2.203,2.229l-0.034,6.133c-0.007,1.223 -1.006,2.21 -2.229,2.203l-4.431,-0.025c-1.223,-0.006 -2.211,-1.005 -2.204,-2.228l0.001,-0.256l-1.136,-0.007c-0.74,0.758 -1.775,1.227 -2.917,1.22c-2.233,-0.012 -4.036,-1.836 -4.024,-4.069c0.013,-2.233 1.836,-4.036 4.07,-4.024c1.141,0.007 2.171,0.487 2.903,1.253l1.136,0.006Z" style="fill:#929292;"/></g><g><path d="M621.85,1403.51l-0.001,-0.256c-0.007,-1.223 -1.005,-2.211 -2.228,-2.204l-4.432,0.025c-1.223,0.007 -2.211,1.005 -2.204,2.228l0.035,6.133c0.007,1.223 1.005,2.211 2.228,2.204l4.432,-0.025c1.223,-0.007 2.21,-1.005 2.203,-2.228l-0.001,-0.257l1.136,-0.006c0.741,0.758 1.776,1.226 2.917,1.22c2.234,-0.013 4.037,-1.836 4.024,-4.069c-0.012,-2.234 -1.836,-4.037 -4.069,-4.024c-1.142,0.006 -2.171,0.486 -2.903,1.252l-1.137,0.007Z" style="fill:#747474;"/><path d="M621.845,1402.56l-0.001,-0.256c-0.007,-1.223 -1.006,-2.211 -2.229,-2.204l-4.432,0.025c-1.223,0.007 -2.21,1.006 -2.203,2.229l0.034,6.133c0.007,1.223 1.006,2.21 2.229,2.203l4.432,-0.025c1.223,-0.007 2.21,-1.005 2.203,-2.228l-0.001,-0.256l1.136,-0.007c0.74,0.758 1.775,1.226 2.917,1.22c2.233,-0.013 4.036,-1.836 4.024,-4.069c-0.013,-2.233 -1.836,-4.036 -4.069,-4.024c-1.142,0.007 -2.172,0.486 -2.904,1.253l-1.136,0.006Z" style="fill:#929292;"/></g><path d="M627.823,1411.19l0.001,-0.256c0.007,-1.223 1.006,-2.21 2.229,-2.203l4.431,0.025c1.224,0.006 2.211,1.005 2.204,2.228l-0.034,6.133c-0.007,1.223 -1.006,2.21 -2.229,2.204l-4.432,-0.025c-1.223,-0.007 -2.21,-1.006 -2.203,-2.229l0.001,-0.256l-1.136,-0.006c-0.741,0.758 -1.775,1.226 -2.917,1.219c-2.233,-0.012 -4.036,-1.835 -4.024,-4.069c0.013,-2.233 1.836,-4.036 4.069,-4.023c1.142,0.006 2.172,0.486 2.903,1.252l1.137,0.006Z" style="fill:#747474;"/><path d="M627.828,1410.24l0.002,-0.257c0.006,-1.223 1.005,-2.21 2.228,-2.203l4.432,0.025c1.223,0.007 2.21,1.005 2.203,2.228l-0.034,6.133c-0.007,1.223 -1.006,2.211 -2.229,2.204l-4.431,-0.025c-1.223,-0.007 -2.211,-1.006 -2.204,-2.229l0.001,-0.256l-1.136,-0.006c-0.74,0.758 -1.775,1.226 -2.917,1.22c-2.233,-0.013 -4.036,-1.836 -4.024,-4.07c0.013,-2.233 1.836,-4.036 4.07,-4.023c1.141,0.006 2.171,0.486 2.903,1.252l1.136,0.007Z" style="fill:#929292;"/><path d="M629.803,1422.75l-16.795,0l-0.023,-4.11c-0.007,-1.223 0.981,-2.222 2.204,-2.229l4.432,-0.024c1.223,-0.007 2.221,0.98 2.228,2.203l0.001,0.256l1.137,-0.006c0.732,-0.766 1.761,-1.246 2.903,-1.253c2.233,-0.012 4.057,1.791 4.069,4.024c0.002,0.395 -0.052,0.777 -0.156,1.139Z" style="fill:#747474;"/><path d="M629.388,1422.75l-16.38,0l-0.028,-5.058c-0.007,-1.223 0.98,-2.222 2.203,-2.228l4.432,-0.025c1.223,-0.007 2.222,0.98 2.229,2.203l0.001,0.256l1.136,-0.006c0.732,-0.766 1.762,-1.246 2.904,-1.252c2.233,-0.013 4.056,1.79 4.069,4.023c0.004,0.762 -0.203,1.476 -0.566,2.087Z" style="fill:#929292;"/></g><path d="M639.977,1354.78c0,-1.577 -1.28,-2.858 -2.857,-2.858l-24.24,0c-1.577,0 -2.857,1.281 -2.857,2.858l-0,5.715c-0,1.577 1.28,2.858 2.857,2.858l24.24,-0c1.577,-0 2.857,-1.281 2.857,-2.858l0,-5.715Z" style="fill:#929292;"/><g><path d="M612.98,1371.85l-0,2.171c-0.93,0.032 -1.675,0.797 -1.675,1.735l-0,6.172c-0,0.958 0.777,1.736 1.736,1.736l23.919,0c0.958,0 1.736,-0.778 1.736,-1.736l0,-6.172c0,-0.854 -0.617,-1.565 -1.43,-1.709l0,-2.223c0.813,-0.146 1.43,-0.858 1.43,-1.712l0,-6.388c-0.135,-8.211 -27.543,-8.671 -27.391,0l-0,6.388c-0,0.938 0.745,1.704 1.675,1.738Z" style="fill:#b3b3b3;"/><g><path d="M633.427,1380.49c0.742,-2.334 -0.551,-4.831 -2.886,-5.573l-8.459,-2.686c-2.334,-0.742 -4.831,0.552 -5.572,2.886l-7.397,23.289c-0.742,2.335 0.552,4.832 2.886,5.573l8.459,2.687c2.334,0.741 4.831,-0.552 5.573,-2.887l7.396,-23.289Zm-7.577,-5.071c2.543,0.807 3.952,3.527 3.144,6.07c-0.807,2.543 -3.527,3.952 -6.07,3.144c-2.543,-0.807 -3.952,-3.528 -3.144,-6.07c0.808,-2.543 3.528,-3.952 6.07,-3.144Z" style="fill:#e4e4e4;"/><path d="M631.143,1393.15c0.245,-0.772 -0.183,-1.597 -0.954,-1.842l-16.862,-5.356c-0.772,-0.245 -1.597,0.183 -1.842,0.954l-4.965,15.633c-0.246,0.772 0.182,1.598 0.954,1.843l16.861,5.355c0.772,0.245 1.598,-0.182 1.843,-0.954l4.965,-15.633Z" style="fill:#323232;"/><path d="M627.245,1399.94c0.118,-0.374 -0.089,-0.774 -0.463,-0.893l-15.138,-4.808c-0.374,-0.119 -0.775,0.088 -0.893,0.462l-2.407,7.578c-0.119,0.374 0.088,0.774 0.462,0.893l15.139,4.808c0.374,0.119 0.774,-0.088 0.893,-0.462l2.407,-7.578Z" style="fill:#1a1a1a;"/></g><path d="M628.206,1360.71c0,-0.93 -0.755,-1.685 -1.685,-1.685l-3.369,0c-0.93,0 -1.685,0.755 -1.685,1.685l-0,18.975c-0,0.93 0.755,1.685 1.685,1.685l3.369,-0c0.93,-0 1.685,-0.755 1.685,-1.685l0,-18.975Z" style="fill:#d5d5d5;"/></g></g></g><path d="M443.987,1228.54l129.196,52.462c-112.82,-26.238 -150.029,29.02 -234.194,38.795c-35.778,-24.043 -92.29,-59.478 -102.504,-91.257l207.502,-0Zm352.113,-0l207.501,-0c-10.213,31.779 -66.725,67.214 -102.503,91.257c-84.165,-9.775 -114.299,-65.033 -227.119,-38.795l122.121,-52.462Z" style="fill:#414141;"/><path d="M964.892,1403.49c-4.333,-3.066 -7.333,-6.909 -9.762,-11.612c-1.878,-3.637 -3.086,-7.389 -3.935,-11.385c-4.53,-21.333 14.379,-28.123 23.944,-43.311c5.089,-8.08 6.087,-18.528 9.698,-27.291c8.046,-19.523 23.22,-32.52 44.532,-35.659c7.026,-1.034 14.393,0.129 20.91,2.92c15.328,6.565 19.614,22.363 31.012,33.099c16.68,15.712 43.059,12.641 54.043,35.856c1.419,3 2.384,6.337 2.885,9.611c0.635,4.147 0.689,8.531 -0.196,12.65c-8.88,41.357 -59.437,38.679 -91.776,37.944c-6.345,-0.144 -12.67,0.326 -18.973,1.04c-17.102,1.936 -44.962,8.459 -62.382,-3.862Zm134.335,-97.125c-11.517,-7.596 -16.886,-27.495 -1.34,-34.4c5.969,-2.651 13.981,-0.941 19.607,1.831c16.624,8.194 4.994,47.91 -18.267,32.569Zm-1003.8,105.478c10.241,-11.021 23.494,-11.304 37.44,-10.327c6.167,0.432 13.3,1.944 19.194,-0.628c9.806,-4.28 14.65,-15.572 21.544,-23.129c11.771,-12.905 31.444,-22.772 49.127,-21.78c24.777,1.389 43.096,20.162 65.646,28.102c19.754,6.956 39.921,4.86 58.616,15.865c9.01,5.304 19.281,12.984 24.649,22.807l-220.056,0c-19.796,0 -38.758,-3.878 -56.16,-10.91Zm356.109,-50.806c-4.651,-1.711 -9.999,-4.718 -11.842,-9.677c-4.148,-11.166 7.696,-21.146 18.362,-19.576c2.615,0.385 5.053,1.226 7.253,2.722c1.865,1.267 3.615,2.788 4.896,4.66c7.528,10.999 -3.831,27.327 -18.669,21.871Zm54.088,4.843c-4.698,-1.709 -9.972,-4.3 -11.693,-9.395c-2.607,-7.715 7.852,-12.784 13.745,-11.531c15.769,3.353 10.999,25.676 -2.052,20.926Z" style="fill:#353535;fill-opacity:0.75;"/></g></g></svg>