<?xml version="1.0" encoding="UTF-8" standalone="no"?><!DOCTYPE svg PUBLIC "-//W3C//DTD SVG 1.1//EN" "http://www.w3.org/Graphics/SVG/1.1/DTD/svg11.dtd"><svg width="100%" height="100%" viewBox="0 0 300 345" version="1.1" xmlns="http://www.w3.org/2000/svg" xmlns:xlink="http://www.w3.org/1999/xlink" xml:space="preserve" xmlns:serif="http://www.serif.com/" style="fill-rule:evenodd;clip-rule:evenodd;stroke-linejoin:round;stroke-miterlimit:2;"><g id="MarchingBand"><g><path d="M263.62,345l-227.24,0c-19.957,0 -36.38,-16.423 -36.38,-36.38l0,-46.61c0,20.079 16.301,36.38 36.38,36.38l227.24,0c20.079,0 36.38,-16.301 36.38,-36.38l0,46.61c0,19.957 -16.423,36.38 -36.38,36.38Z" style="fill:#1b191e;"/><path d="M263.62,345l-227.24,0c-19.957,0 -36.38,-16.423 -36.38,-36.38l0,-10.23l110.511,0c10.074,16.526 23.015,29.123 39.489,36.879c16.474,-7.756 29.415,-20.353 39.489,-36.879l110.511,0l0,10.23c0,19.957 -16.423,36.38 -36.38,36.38Z" style="fill:#c92e2b;"/><path d="M29.004,344.238c-16.473,-3.449 -29.004,-18.185 -29.004,-35.618l0,-46.61c8.667,10.856 26.746,18.052 36.38,18.052l20.031,0l-27.407,64.176Zm241.992,0l-27.407,-64.176l20.031,0c9.634,0 27.713,-7.196 36.38,-18.052l0,46.61c0,17.433 -12.531,32.169 -29.004,35.618Z" style="fill:#b11916;"/><path d="M34.529,342.938c-0.188,0.415 -0.677,0.599 -1.092,0.411c-0.415,-0.188 -0.599,-0.677 -0.411,-1.092l0.792,-1.747c0.188,-0.415 0.677,-0.599 1.092,-0.411c0.414,0.188 0.598,0.677 0.41,1.092l-0.791,1.747Zm2.375,-5.241c-0.188,0.415 -0.677,0.599 -1.092,0.411c-0.415,-0.188 -0.599,-0.677 -0.411,-1.092l1.584,-3.493c0.188,-0.415 0.677,-0.599 1.091,-0.411c0.415,0.188 0.599,0.677 0.411,1.092l-1.583,3.493Zm3.167,-6.987c-0.188,0.415 -0.678,0.599 -1.092,0.411c-0.415,-0.188 -0.599,-0.677 -0.411,-1.092l1.583,-3.494c0.188,-0.414 0.678,-0.599 1.092,-0.411c0.415,0.188 0.599,0.678 0.411,1.092l-1.583,3.494Zm3.166,-6.988c-0.188,0.415 -0.677,0.599 -1.091,0.411c-0.415,-0.188 -0.599,-0.677 -0.411,-1.092l1.583,-3.493c0.188,-0.415 0.677,-0.599 1.092,-0.411c0.415,0.188 0.599,0.677 0.411,1.092l-1.584,3.493Zm3.167,-6.987c-0.188,0.415 -0.677,0.599 -1.092,0.411c-0.414,-0.188 -0.598,-0.677 -0.41,-1.092l1.583,-3.494c0.188,-0.414 0.677,-0.598 1.092,-0.411c0.414,0.188 0.598,0.678 0.411,1.092l-1.584,3.494Zm3.167,-6.988c-0.188,0.415 -0.677,0.599 -1.092,0.411c-0.414,-0.188 -0.599,-0.677 -0.411,-1.091l1.584,-3.494c0.188,-0.415 0.677,-0.599 1.092,-0.411c0.414,0.188 0.598,0.677 0.41,1.092l-1.583,3.493Zm3.167,-6.987c-0.188,0.415 -0.677,0.599 -1.092,0.411c-0.415,-0.188 -0.599,-0.677 -0.411,-1.092l0.792,-1.747c0.188,-0.414 0.677,-0.599 1.092,-0.411c0.414,0.188 0.598,0.678 0.41,1.092l-0.791,1.747Zm212.733,40.178l-0.791,-1.747c-0.188,-0.415 -0.004,-0.904 0.41,-1.092c0.415,-0.188 0.904,-0.004 1.092,0.411l0.792,1.747c0.188,0.415 0.004,0.904 -0.411,1.092c-0.415,0.188 -0.904,0.004 -1.092,-0.411Zm-2.375,-5.241l-1.583,-3.493c-0.188,-0.415 -0.004,-0.904 0.411,-1.092c0.414,-0.188 0.903,-0.004 1.091,0.411l1.584,3.493c0.188,0.415 0.004,0.904 -0.411,1.092c-0.415,0.188 -0.904,0.004 -1.092,-0.411Zm-3.167,-6.987l-1.583,-3.494c-0.188,-0.414 -0.004,-0.904 0.411,-1.092c0.414,-0.188 0.904,-0.003 1.092,0.411l1.583,3.494c0.188,0.415 0.004,0.904 -0.411,1.092c-0.414,0.188 -0.904,0.004 -1.092,-0.411Zm-3.166,-6.988l-1.584,-3.493c-0.188,-0.415 -0.004,-0.904 0.411,-1.092c0.415,-0.188 0.904,-0.004 1.092,0.411l1.583,3.493c0.188,0.415 0.004,0.904 -0.411,1.092c-0.414,0.188 -0.903,0.004 -1.091,-0.411Zm-3.167,-6.987l-1.584,-3.494c-0.187,-0.414 -0.003,-0.904 0.411,-1.092c0.415,-0.187 0.904,-0.003 1.092,0.411l1.583,3.494c0.188,0.415 0.004,0.904 -0.41,1.092c-0.415,0.188 -0.904,0.004 -1.092,-0.411Zm-3.167,-6.988l-1.583,-3.493c-0.188,-0.415 -0.004,-0.904 0.41,-1.092c0.415,-0.188 0.904,-0.004 1.092,0.411l1.584,3.494c0.188,0.414 0.003,0.903 -0.411,1.091c-0.415,0.188 -0.904,0.004 -1.092,-0.411Zm-3.167,-6.987l-0.791,-1.747c-0.188,-0.414 -0.004,-0.904 0.41,-1.092c0.415,-0.188 0.904,-0.003 1.092,0.411l0.792,1.747c0.188,0.415 0.004,0.904 -0.411,1.092c-0.415,0.188 -0.904,0.004 -1.092,-0.411Z" style="fill:#b11916;"/><path d="M150,341.096c-18.279,-9.102 -32.79,-23.667 -44.214,-42.706l4.725,0c10.074,16.526 23.015,29.123 39.489,36.879c16.474,-7.756 29.415,-20.353 39.489,-36.879l4.725,0c-11.424,19.039 -25.935,33.604 -44.214,42.706Z" style="fill:#af1f1d;"/><path d="M165.807,309.121l-31.614,-0c-6.684,-0 -13.002,0.761 -18.843,3.154c1.95,2.527 3.298,4.141 5.398,6.452c-1.165,1.147 -3.956,2.004 -5.802,2.004c-6.797,0 -12.722,-5.608 -12.722,-11.687c-0,-3.179 2.048,-6.588 4.96,-8.371c1.638,2.62 3.337,5.151 5.099,7.59c6.484,-2.884 14.368,-3.646 21.91,-3.646l31.614,0c7.542,0 15.426,0.762 21.91,3.646c1.762,-2.439 3.461,-4.97 5.099,-7.59c2.912,1.783 4.96,5.192 4.96,8.371c0,6.079 -5.925,11.687 -12.722,11.687c-1.846,0 -4.637,-0.857 -5.802,-2.004c2.1,-2.311 3.448,-3.925 5.398,-6.452c-5.841,-2.393 -12.159,-3.154 -18.843,-3.154Zm-11.911,18.312l-7.792,-0c-5.408,-0 -8.476,1.383 -11.754,3.823c2.599,2.033 4.619,3.456 7.41,5.211c-1.566,1.929 -4.693,3.383 -7.549,3.383c-6.797,0 -13.131,-4.906 -13.131,-11.859c-0,-2.157 1.132,-4.753 2.683,-6.075c2.191,2.227 4.46,4.34 6.811,6.336c4.078,-3.273 8.665,-5.323 15.53,-5.323l7.792,0c6.865,0 11.452,2.05 15.53,5.323c2.351,-1.996 4.62,-4.109 6.811,-6.336c1.551,1.322 2.683,3.918 2.683,6.075c0,6.953 -6.334,11.859 -13.131,11.859c-2.856,0 -5.983,-1.454 -7.549,-3.383c2.791,-1.755 4.811,-3.178 7.41,-5.211c-3.278,-2.44 -6.346,-3.823 -11.754,-3.823Z" style="fill:#ce9b40;"/><path d="M165.807,308.509l-31.614,0c-6.684,0 -13.676,0.566 -19.518,2.959c1.95,2.527 3.973,4.948 6.073,7.259c-1.573,0.652 -3.324,1.016 -5.17,1.016c-6.797,-0 -12.315,-4.935 -12.315,-11.014c0,-3.179 1.509,-6.045 3.921,-8.056c1.638,2.62 3.337,5.151 5.099,7.59c6.484,-2.884 14.368,-3.646 21.91,-3.646l31.614,0c7.542,0 15.426,0.762 21.91,3.646c1.762,-2.439 3.461,-4.97 5.099,-7.59c2.412,2.011 3.921,4.877 3.921,8.056c-0,6.079 -5.518,11.014 -12.315,11.014c-1.846,-0 -3.597,-0.364 -5.17,-1.016c2.1,-2.311 4.123,-4.732 6.073,-7.259c-5.842,-2.393 -12.834,-2.959 -19.518,-2.959Zm-11.911,18.312l-7.792,0c-5.408,0 -9.15,1.521 -12.427,3.961c2.599,2.033 5.292,3.93 8.083,5.685c-2.091,1.463 -4.722,2.334 -7.579,2.334c-6.796,0 -12.315,-4.935 -12.315,-11.014c0,-2.157 0.696,-4.171 1.897,-5.871c2.191,2.227 4.46,4.34 6.811,6.336c4.078,-3.273 8.665,-5.323 15.53,-5.323l7.792,0c6.865,0 11.452,2.05 15.53,5.323c2.351,-1.996 4.62,-4.109 6.811,-6.336c1.201,1.7 1.897,3.714 1.897,5.871c-0,6.079 -5.519,11.014 -12.315,11.014c-2.857,0 -5.488,-0.871 -7.579,-2.334c2.791,-1.755 5.484,-3.652 8.083,-5.685c-3.277,-2.44 -7.019,-3.961 -12.427,-3.961Z" style="fill:#e2af53;"/><path d="M105.786,298.39l-105.786,0l0,-36.38c8.667,10.856 26.746,18.052 36.38,18.052l63.011,0l6.395,18.328Zm88.428,0l6.395,-18.328l63.011,0c9.634,0 27.713,-7.196 36.38,-18.052l0,36.38l-105.786,0Z" style="fill:#c92e2b;"/><path d="M105.786,298.39l-105.786,0l0,-36.38c8.667,10.856 25.216,19.274 34.85,19.274l63.483,-0.111l7.453,17.217Zm88.428,0l7.453,-17.217l63.483,0.111c9.634,0 26.183,-8.418 34.85,-19.274l0,36.38l-105.786,0Z" style="fill:#df4845;"/><path d="M55.255,286.248l-7.555,-3.892l45.638,0l6.448,16.034l-4.195,0l-4.882,-12.142l-35.454,-0Zm189.49,-0l-35.454,-0l-4.882,12.142l-4.195,0l6.448,-16.034l45.638,0l-7.555,3.892Z" style="fill:#e2af53;"/><path d="M57.353,284.924l-2.641,-1.294l38.399,0l5.222,12.985l-1.806,-0l-4.7,-11.691l-34.474,0Zm185.294,0l-34.474,0l-4.7,11.691l-1.806,-0l5.222,-12.985l38.399,0l-2.641,1.294Z" style="fill:#f6c671;"/><path d="M5.471,327.704c-0.782,-1.568 -1.453,-3.199 -2.003,-4.882c0.088,-1.738 0.216,-3.457 0.381,-5.157c-0.237,1.472 -0.448,2.926 -0.633,4.355c-0.993,-3.294 -1.527,-6.778 -1.527,-10.378l-0,-13.252l55.952,-0c-4.66,6.9 -6.107,15.297 -5.4,23.666l-5.872,0.496c0.085,0.918 0.197,1.844 0.337,2.775l-5.932,0.897c-0.042,-0.279 -0.082,-0.557 -0.12,-0.834l-5.843,0.786c-0.031,-0.235 -0.062,-0.47 -0.091,-0.703l-5.745,0.621c0.024,0.224 0.048,0.45 0.074,0.675l-5.961,0.68c-0.729,-6.393 -0.608,-12.417 0.208,-18.141c-1.018,6.381 -1.22,12.931 -0.592,19.369l-5.972,0.582c-0.591,-6.063 -0.497,-12.215 0.268,-18.26c-0.917,6.4 -1.327,13.165 -1.326,20.06l-6,0c-0.001,-8.838 0.68,-17.465 2.173,-25.46c-1.851,8.207 -2.745,17 -2.485,26.3l-0.831,0.023c-1.116,-1.33 -2.14,-2.739 -3.06,-4.218Zm289.058,0c-0.92,1.479 -1.944,2.888 -3.06,4.218l-0.831,-0.023c0.26,-9.3 -0.634,-18.093 -2.485,-26.3c1.493,7.995 2.174,16.622 2.173,25.46l-6,0c0.001,-6.895 -0.409,-13.66 -1.326,-20.06c0.765,6.045 0.859,12.197 0.268,18.26l-5.972,-0.582c0.628,-6.438 0.426,-12.988 -0.592,-19.369c0.816,5.724 0.937,11.748 0.208,18.141l-5.961,-0.68c0.026,-0.225 0.05,-0.451 0.074,-0.675l-5.745,-0.621c-0.029,0.233 -0.06,0.468 -0.091,0.703l-5.843,-0.786c-0.038,0.277 -0.078,0.555 -0.12,0.834l-5.932,-0.897c0.14,-0.931 0.252,-1.857 0.337,-2.775l-5.872,-0.496c0.707,-8.369 -0.74,-16.766 -5.4,-23.666l55.952,-0l0,13.252c0,3.6 -0.534,7.084 -1.527,10.378c-0.185,-1.429 -0.396,-2.883 -0.633,-4.355c0.165,1.7 0.293,3.419 0.381,5.157c-0.55,1.683 -1.221,3.314 -2.003,4.882Z" style="fill:#640200;fill-opacity:0.5;"/><g><path d="M-0,265.03c0.282,-0.504 0.566,-0.988 0.85,-1.448l1.172,0.725c1.478,1.534 3.136,2.98 4.915,4.329c-2.276,3.974 -4.429,9.48 -6.306,14.614l-0.631,-0.231l-0,-17.989Z" style="fill:#fecc71;"/><path d="M0,279.838c2.018,-4.719 4.13,-9.126 5.903,-12.008c1.544,1.239 3.194,2.401 4.908,3.478c-3.505,5.836 -8.264,17.614 -10.811,25.339l0,-16.809Z" style="fill:#deb161;"/><path d="M1.779,319.799c0.891,-17.46 5.702,-33.016 13.094,-46.153c1.798,0.947 3.629,1.801 5.448,2.555c-8.316,14.619 -13.215,32.449 -12.648,52.675l-1.414,0.04c-1.895,-2.792 -3.414,-5.856 -4.48,-9.117Z" style="fill:#deb161;"/><path d="M26.067,278.262l4.661,2.87c-7.931,12.881 -11.223,29.026 -9.713,44.523l-5.972,0.582c-1.632,-16.752 1.959,-34.192 10.505,-48.135c0.173,0.054 0.346,0.108 0.519,0.16Z" style="fill:#deb161;"/><path d="M35.886,283.08l5.041,3.254c-6.835,10.588 -9.2,22.361 -7.716,36.097l-5.965,0.645c-1.645,-15.227 1.063,-28.259 8.64,-39.996Z" style="fill:#deb161;"/><path d="M0,296.496c2.613,-9.423 6.1,-18.491 10.295,-25.516c1.681,1.081 3.429,2.081 5.202,2.99c-7.104,11.838 -12.005,29.87 -13.97,45.027c-0.993,-3.293 -1.527,-6.778 -1.527,-10.377l0,-12.124Z" style="fill:#fecc71;"/><path d="M25.846,278.195c-8.618,12.086 -11.862,30.453 -11.861,49.842l-6,0c-0.001,-20.045 3.501,-39.003 12.041,-51.959c1.968,0.827 3.926,1.536 5.82,2.117Z" style="fill:#fecc71;"/><path d="M30.731,279.969l5.253,2.899c-6.623,12.003 -10.405,25.241 -8.624,40.879l-5.961,0.679c-1.937,-17.003 2.13,-31.406 9.332,-44.457Z" style="fill:#fecc71;"/><path d="M40.553,286.528l5.129,3.114c-5.99,9.869 -8.283,20.298 -6.613,32.711l-5.947,0.8c-1.869,-13.9 0.723,-25.573 7.431,-36.625Z" style="fill:#fecc71;"/><path d="M45.838,289.395l5.046,3.247c-5.025,7.806 -7.588,18.277 -5.866,29.663l-5.933,0.897c-1.963,-12.982 1.025,-24.907 6.753,-33.807Z" style="fill:#deb161;"/><path d="M55.217,295.471l4.294,2.561c-2.791,4.679 -4.951,11.219 -4.215,18.583l-4.975,0.498c-0.858,-8.576 1.646,-16.194 4.896,-21.642Z" style="fill:#deb161;"/><path d="M51.522,291.229l4.881,3.49c-5.018,7.019 -6.58,15.682 -5.851,24.315l-5.979,0.505c-0.849,-10.063 1.101,-20.129 6.949,-28.31Z" style="fill:#fecc71;"/></g><g><path d="M300,265.03c-0.282,-0.504 -0.566,-0.988 -0.85,-1.448l-1.172,0.725c-1.478,1.534 -3.136,2.98 -4.915,4.329c2.276,3.974 4.429,9.48 6.306,14.614l0.631,-0.231l0,-17.989Z" style="fill:#fecc71;"/><path d="M300,279.838c-2.018,-4.719 -4.13,-9.126 -5.903,-12.008c-1.544,1.239 -3.194,2.401 -4.908,3.478c3.505,5.836 8.264,17.614 10.811,25.339l0,-16.809Z" style="fill:#deb161;"/><path d="M298.221,319.799c-0.891,-17.46 -5.702,-33.016 -13.094,-46.153c-1.798,0.947 -3.629,1.801 -5.448,2.555c8.316,14.619 13.215,32.449 12.648,52.675l1.414,0.04c1.895,-2.792 3.414,-5.856 4.48,-9.117Z" style="fill:#deb161;"/><path d="M273.933,278.262l-4.661,2.87c7.931,12.881 11.223,29.026 9.713,44.523l5.972,0.582c1.632,-16.752 -1.959,-34.192 -10.505,-48.135c-0.173,0.054 -0.346,0.108 -0.519,0.16Z" style="fill:#deb161;"/><path d="M264.114,283.08l-5.041,3.254c6.835,10.588 9.2,22.361 7.716,36.097l5.965,0.645c1.645,-15.227 -1.063,-28.259 -8.64,-39.996Z" style="fill:#deb161;"/><path d="M300,296.496c-2.613,-9.423 -6.1,-18.491 -10.295,-25.516c-1.681,1.081 -3.429,2.081 -5.202,2.99c7.104,11.838 12.005,29.87 13.97,45.027c0.993,-3.293 1.527,-6.778 1.527,-10.377l0,-12.124Z" style="fill:#fecc71;"/><path d="M274.154,278.195c8.618,12.086 11.862,30.453 11.861,49.842l6,0c0.001,-20.045 -3.501,-39.003 -12.041,-51.959c-1.968,0.827 -3.926,1.536 -5.82,2.117Z" style="fill:#fecc71;"/><path d="M269.269,279.969l-5.253,2.899c6.623,12.003 10.405,25.241 8.624,40.879l5.961,0.679c1.937,-17.003 -2.13,-31.406 -9.332,-44.457Z" style="fill:#fecc71;"/><path d="M259.447,286.528l-5.129,3.114c5.99,9.869 8.283,20.298 6.613,32.711l5.947,0.8c1.869,-13.9 -0.723,-25.573 -7.431,-36.625Z" style="fill:#fecc71;"/><path d="M254.162,289.395l-5.046,3.247c5.025,7.806 7.588,18.277 5.866,29.663l5.933,0.897c1.963,-12.982 -1.025,-24.907 -6.753,-33.807Z" style="fill:#deb161;"/><path d="M244.783,295.471l-4.294,2.561c2.791,4.679 4.951,11.219 4.215,18.583l4.975,0.498c0.858,-8.576 -1.646,-16.194 -4.896,-21.642Z" style="fill:#deb161;"/><path d="M248.478,291.229l-4.881,3.49c5.018,7.019 6.58,15.682 5.851,24.315l5.979,0.505c0.849,-10.063 -1.101,-20.129 -6.949,-28.31Z" style="fill:#fecc71;"/></g><path d="M59.318,298.39l-59.318,-32.599l0,-5.706l69.7,38.305l-10.382,0Zm181.364,0l-10.382,0l69.7,-38.305l0,5.706l-59.318,32.599Z" style="fill:#e2af53;"/></g></g></svg>