<?xml version="1.0" encoding="UTF-8" standalone="no"?><!DOCTYPE svg PUBLIC "-//W3C//DTD SVG 1.1//EN" "http://www.w3.org/Graphics/SVG/1.1/DTD/svg11.dtd"><svg width="100%" height="100%" viewBox="0 0 1250 1438" version="1.1" xmlns="http://www.w3.org/2000/svg" xmlns:xlink="http://www.w3.org/1999/xlink" xml:space="preserve" xmlns:serif="http://www.serif.com/" style="fill-rule:evenodd;clip-rule:evenodd;stroke-linejoin:round;stroke-miterlimit:2;"><g id="MagicKnight"><g id="ClothesMagicKnight"><path d="M1250,1091.71l0,194.209c0,83.156 -68.427,151.583 -151.583,151.583l-946.834,-0c-83.156,-0 -151.583,-68.427 -151.583,-151.583l0,-194.209c0,83.661 67.922,151.584 151.583,151.584l946.834,-0c83.661,-0 151.583,-67.923 151.583,-151.584Z" style="fill:#fff;fill-rule:nonzero;"/><path d="M1016.89,1243.29l81.526,-0c83.661,-0 151.583,-67.923 151.583,-151.584l-0,194.209c-0,83.156 -68.427,151.583 -151.583,151.583l-946.834,0c-83.156,0 -151.583,-68.427 -151.583,-151.583l-0,-194.209c-0,83.661 67.922,151.584 151.583,151.584l81.526,-0l391.891,86.216l391.891,-86.216Z" style="fill:#5d5d5d;fill-rule:nonzero;"/><path d="M0,1113.02l0,-21.309c0,83.661 67.922,151.584 151.583,151.584l81.526,-0l391.891,86.216l391.891,-86.216l81.526,-0c83.661,-0 151.583,-67.923 151.583,-151.584l-0,21.309c-0,83.661 -67.922,151.584 -151.583,151.584l-81.526,-0l-391.891,86.216l-391.891,-86.216l-81.526,-0c-83.661,-0 -151.583,-67.923 -151.583,-151.584Z" style="fill:#434343;fill-rule:nonzero;"/><g><path d="M383.154,1397.47l-0.117,-58.347l42.587,29.087l-0.059,-29.173l42.587,29.088l-0.059,-29.174l42.587,29.088l-0.059,-29.174l64.077,86.835l-63.959,-28.488l0.058,28.617l-42.586,-28.531l0.057,28.617l-42.585,-28.531l0.057,28.617l-42.586,-28.531Z" style="fill:#b8a075;"/><path d="M560.633,1406.64l14.065,19.06l-63.959,-28.488l3.041,-11.441l46.853,20.869Zm-49.864,5.693l0.028,13.496l-42.586,-28.531l3.041,-11.441l39.517,26.476Zm-42.528,0.086l0.027,13.496l-42.585,-28.531l3.041,-11.441l39.517,26.476Zm-42.528,0.085l0.027,13.497l-42.586,-28.531l-0.117,-58.347l3.068,2.095l0.09,44.811l39.518,26.475Zm-0.089,-44.294l-0.059,-29.173l3.068,2.096l0.032,15.636l-3.041,11.441Zm42.528,-0.085l-0.059,-29.174l3.068,2.096l0.032,15.637l-3.041,11.441Zm42.528,-0.086l-0.059,-29.174l3.072,4.164l0.028,13.569l-3.041,11.441Z" style="fill:#434343;"/></g><g><path d="M866.846,1397.47l0.117,-58.347l-42.587,29.087l0.059,-29.173l-42.587,29.088l0.059,-29.174l-42.587,29.088l0.059,-29.174l-64.077,86.835l63.959,-28.488l-0.058,28.617l42.586,-28.531l-0.057,28.617l42.585,-28.531l-0.057,28.617l42.586,-28.531Z" style="fill:#b8a075;"/><path d="M689.367,1406.64l-14.065,19.06l63.959,-28.488l-3.041,-11.441l-46.853,20.869Zm49.864,5.693l-0.028,13.496l42.586,-28.531l-3.041,-11.441l-39.517,26.476Zm42.528,0.086l-0.027,13.496l42.585,-28.531l-3.041,-11.441l-39.517,26.476Zm42.528,0.085l-0.027,13.497l42.586,-28.531l0.117,-58.347l-3.068,2.095l-0.09,44.811l-39.518,26.475Zm0.089,-44.294l0.059,-29.173l-3.068,2.096l-0.032,15.636l3.041,11.441Zm-42.528,-0.085l0.059,-29.174l-3.068,2.096l-0.032,15.637l3.041,11.441Zm-42.528,-0.086l0.059,-29.174l-3.072,4.164l-0.028,13.569l3.041,11.441Z" style="fill:#434343;"/></g><path d="M151.583,1437.5c-83.156,0 -151.583,-68.427 -151.583,-151.583l0,-194.209c0,83.661 67.922,151.584 151.583,151.584l473.417,-0c-153.071,107.346 -313.628,147.319 -473.417,194.208Zm473.417,-194.208l473.417,-0c83.661,-0 151.583,-67.923 151.583,-151.584l0,194.209c0,83.156 -68.427,151.583 -151.583,151.583c-165.271,-46.489 -340.098,-69.616 -473.417,-194.208Z" style="fill:#24436d;fill-rule:nonzero;"/><path d="M492.615,1264.6c-138.038,54.268 -274.886,88.306 -410.313,98.18c-27.313,-17.106 -40.257,-37.405 -44.067,-59.735c146.857,19.407 299.682,-2.963 454.38,-38.445Zm-167.931,0c-71.347,16.847 -139.66,23.29 -199.3,0l199.3,0Zm432.701,0c154.698,35.482 307.523,57.852 454.38,38.445c-3.81,22.33 -16.754,42.629 -44.067,59.735c-135.427,-9.874 -272.275,-43.912 -410.313,-98.18Zm167.931,0l199.3,0c-59.64,23.29 -127.953,16.847 -199.3,0Z" style="fill:#1e3a5f;"/></g></g></svg>