<?xml version="1.0" encoding="UTF-8" standalone="no"?><!DOCTYPE svg PUBLIC "-//W3C//DTD SVG 1.1//EN" "http://www.w3.org/Graphics/SVG/1.1/DTD/svg11.dtd"><svg width="100%" height="100%" viewBox="0 0 1250 1438" version="1.1" xmlns="http://www.w3.org/2000/svg" xmlns:xlink="http://www.w3.org/1999/xlink" xml:space="preserve" xmlns:serif="http://www.serif.com/" style="fill-rule:evenodd;clip-rule:evenodd;stroke-linejoin:round;stroke-miterlimit:2;"><g id="Firefighter"><g id="ClothingFirefighter"><rect x="495.195" y="1211.18" width="250.612" height="102.586" style="fill:#1f0400;"/><rect x="495.195" y="1202.2" width="250.612" height="17.972" style="fill:#342725;"/><path id="base_body_2" d="M1250,1091.71l0,194.209c0,83.156 -68.427,151.583 -151.583,151.583l-946.834,-0c-83.156,-0 -151.583,-68.427 -151.583,-151.583l0,-194.209c0,83.661 67.922,151.584 151.583,151.584l404.03,-0l69.387,31.359l69.387,-31.359l404.03,-0c83.661,-0 151.583,-67.923 151.583,-151.584Z" style="fill:#b32d18;fill-rule:nonzero;"/><g><path d="M5.041,1324.5l1239.92,0c-10.579,39.703 -37.039,73.215 -72.036,93.192l-1095.85,-0c-34.997,-19.977 -61.457,-53.489 -72.036,-93.192Z" style="fill:#1f0400;"/><path d="M5.041,1324.5l1239.92,0c-2.71,10.168 -6.46,19.93 -11.129,29.162l-1217.66,-0c-4.669,-9.232 -8.419,-18.994 -11.129,-29.162Z" style="fill:#accc0a;"/><path d="M40.417,1388.53l1169.17,0c-10.626,11.493 -22.992,21.36 -36.66,29.162l-1095.85,-0c-13.668,-7.802 -26.034,-17.669 -36.66,-29.162Z" style="fill:#accc0a;"/></g><path id="base_body_21" serif:id="base_body_2" d="M1069.78,1437.5l-565.772,0l-0,-151.168c-0,-18.059 14.661,-32.721 32.721,-32.721l41.722,-0l46.554,21.04l69.387,-31.359l404.03,-0c50.575,-0 95.399,-24.823 122.942,-62.939l-0,105.564c-0,83.156 -68.428,151.583 -151.584,151.583Z" style="fill:#330700;fill-opacity:0.25;"/><path id="base_body_22" serif:id="base_body_2" d="M1098.42,1437.5l-565.773,0l-0,-130.452c-0,-18.059 14.662,-32.721 32.721,-32.721l59.635,0l69.387,-31.035l404.03,-0c83.661,-0 151.583,-67.923 151.583,-151.584l0,194.209c0,83.156 -68.427,151.583 -151.583,151.583Z" style="fill:#e13014;"/><g><path d="M1244.96,1324.5c-10.579,39.703 -37.039,73.215 -72.036,93.192l-640.279,-0l-0,-93.192l712.315,0Z" style="fill:#1f0400;"/><path d="M1244.96,1324.5c-2.71,10.168 -6.46,19.93 -11.129,29.162l-701.186,-0l-0,-29.162l712.315,0Z" style="fill:#cdf212;"/><path d="M1209.58,1388.53c-10.626,11.493 -22.992,21.36 -36.66,29.162l-640.279,-0l-0,-29.162l676.939,0Z" style="fill:#cdf212;"/></g><path id="base_body_23" serif:id="base_body_2" d="M555.613,1243.29l-404.03,-0c-83.661,-0 -151.583,-67.923 -151.583,-151.584c-0,0 376.918,44.091 509.865,59.643c26.083,3.051 45.748,25.15 45.748,51.411c-0,20.688 -0,40.53 -0,40.53Zm138.774,-40.53c0,-26.261 19.665,-48.36 45.748,-51.411c132.947,-15.552 509.865,-59.643 509.865,-59.643c0,83.661 -67.922,151.584 -151.583,151.584l-404.03,-0l0,-40.53Z" style="fill:#5d2016;fill-rule:nonzero;"/><path id="base_body_24" serif:id="base_body_2" d="M1.514,1113.2c-0.998,-7.021 -1.514,-14.195 -1.514,-21.49l509.865,59.643c26.083,3.051 45.748,25.15 45.748,51.411l-0,21.313c-0,-26.261 -19.665,-48.361 -45.748,-51.412l-508.351,-59.465Zm692.873,110.877l0,-21.313c0,-26.261 19.665,-48.36 45.748,-51.411l509.865,-59.643c-0,7.295 -0.516,14.469 -1.514,21.49l-508.351,59.465c-26.083,3.051 -45.748,25.151 -45.748,51.412Z" style="fill:#401711;fill-rule:nonzero;"/><g><path d="M990.094,1276.7c1.276,-1.191 2.598,-2.332 3.963,-3.421l-6.187,-22.545l0.41,-5.58c-0,0 5.922,6.045 7.33,6.114l0.047,0.002c6.995,0.513 83.71,6.178 90.673,6.689l8.24,-5.005l-0.409,5.58l-9.411,21.4c1.191,1.277 2.332,2.599 3.421,3.963l22.545,-6.186l-0.575,7.831c-0.51,6.963 2.992,13.609 9.024,17.124c10.365,5.984 16.957,17.542 16.023,30.272c-0.934,12.73 -9.143,23.202 -20.257,27.642l-0.005,0.001c-6.466,2.593 -10.89,8.644 -11.403,15.639l-0.005,0.047c-0.137,1.402 -0.193,2.155 -0.193,2.155l-0.409,5.58l-21.401,-9.412c-1.276,1.192 -2.598,2.333 -3.963,3.422l6.596,16.965l-0.409,5.58l-7.831,-0.575c-6.963,-0.511 -13.609,2.992 -17.124,9.024c-5.984,10.365 -17.542,16.957 -30.272,16.023c-12.73,-0.934 -23.202,-9.143 -27.642,-20.257l-0.001,-0.005c-2.594,-6.466 -8.644,-10.89 -15.639,-11.403l-0.047,-0.005c-1.403,-0.137 -2.304,-0.204 -2.304,-0.204l-5.431,-0.398l0.41,-5.58l9.002,-15.821c-1.192,-1.276 -2.333,-2.598 -3.422,-3.963l-22.545,6.187l0.41,-5.58c-0,-0 0.055,-0.752 0.124,-2.16l0.002,-0.047c0.513,-6.995 -2.98,-13.627 -8.999,-17.136l-0.004,-0.002c-10.347,-6.014 -16.939,-17.573 -16.005,-30.303c0.934,-12.73 9.143,-23.202 20.27,-27.609c6.481,-2.597 10.916,-8.66 11.428,-15.623l0.574,-7.831l21.401,9.411Z" style="fill-opacity:0.25;"/><path d="M990.53,1270.75c1.277,-1.191 2.599,-2.333 3.963,-3.421l-6.186,-22.545l0.409,-5.58c0,-0 5.923,6.044 7.331,6.113l0.047,0.002c6.995,0.514 83.71,6.178 90.673,6.69l8.24,-5.005l-0.41,5.58l-9.411,21.4c1.191,1.276 2.333,2.598 3.421,3.963l22.545,-6.186l-0.574,7.83c-0.511,6.964 2.992,13.609 9.024,17.124c10.365,5.985 16.957,17.543 16.023,30.273c-0.934,12.73 -9.143,23.202 -20.257,27.641l-0.005,0.002c-6.466,2.593 -10.89,8.644 -11.404,15.639l-0.004,0.046c-0.137,1.403 -0.193,2.155 -0.193,2.155l-0.409,5.58l-21.401,-9.411c-1.276,1.191 -2.598,2.332 -3.963,3.421l6.596,16.965l-0.409,5.58l-7.831,-0.574c-6.963,-0.511 -13.609,2.991 -17.124,9.024c-5.984,10.365 -17.543,16.957 -30.273,16.022c-12.729,-0.934 -23.202,-9.142 -27.641,-20.257l-0.002,-0.004c-2.593,-6.466 -8.643,-10.891 -15.639,-11.404l-0.046,-0.004c-1.403,-0.138 -2.304,-0.204 -2.304,-0.204l-5.431,-0.399l0.409,-5.579l9.002,-15.821c-1.191,-1.276 -2.332,-2.598 -3.421,-3.963l-22.545,6.186l0.409,-5.579c0,-0 0.055,-0.753 0.124,-2.161l0.003,-0.046c0.513,-6.995 -2.981,-13.627 -8.999,-17.136l-0.004,-0.003c-10.348,-6.014 -16.939,-17.572 -16.005,-30.302c0.934,-12.73 9.143,-23.202 20.27,-27.609c6.481,-2.597 10.916,-8.66 11.427,-15.624l0.575,-7.83l21.4,9.411Z" style="fill:#836e49;"/><g><g><path d="M1005.29,1391.81c-3.138,-7.833 -10.466,-13.192 -18.882,-13.81c-1.459,-0.142 -2.397,-0.211 -2.397,-0.211l28.79,-65.465l47.714,3.501l18.924,68.966c0,0 -0.937,-0.068 -2.399,-0.176c-8.429,-0.618 -16.474,3.622 -20.729,10.924c-5.268,9.136 -15.451,14.946 -26.668,14.123c-11.216,-0.823 -20.443,-8.058 -24.353,-17.852Z" style="fill:#a8926b;"/><path d="M1076.75,1388.45c-6.963,-0.511 -13.608,2.991 -17.124,9.024c-5.984,10.365 -17.542,16.957 -30.272,16.023c-12.73,-0.934 -23.202,-9.143 -27.641,-20.257l-0.002,-0.005c-2.593,-6.466 -8.644,-10.89 -15.639,-11.404l-0.047,-0.004c-1.402,-0.138 -2.303,-0.204 -2.303,-0.204l-5.432,-0.398l32.075,-72.937l53.132,3.899l21.084,76.837l-7.831,-0.574Zm-71.468,3.359c3.91,9.794 13.137,17.029 24.353,17.852c11.217,0.823 21.4,-4.987 26.668,-14.123c4.255,-7.302 12.3,-11.542 20.729,-10.924l2.399,0.176l-18.924,-68.966l-47.714,-3.501l-28.79,65.465c0,-0 0.938,0.069 2.397,0.211c8.416,0.618 15.744,5.977 18.882,13.81Z" style="fill:#d2c0a0;"/></g><g><path d="M1016.96,1232.67c-4.248,7.291 -12.28,11.523 -20.696,10.905c-1.464,-0.071 -2.402,-0.14 -2.402,-0.14l18.925,68.966l47.714,3.502l28.789,-65.465c0,-0 -0.937,-0.069 -2.399,-0.176c-8.429,-0.62 -15.768,-5.988 -18.912,-13.833c-3.878,-9.807 -13.104,-17.042 -24.321,-17.865c-11.216,-0.823 -21.4,4.988 -26.698,14.106Z" style="fill:#a8926b;"/><path d="M1087.18,1246.43c-6.963,-0.511 -13.026,-4.946 -15.623,-11.427c-4.407,-11.128 -14.879,-19.336 -27.609,-20.27c-12.73,-0.934 -24.288,5.657 -30.302,16.005l-0.003,0.004c-3.509,6.018 -10.141,9.512 -17.136,8.999l-0.047,-0.003c-1.407,-0.069 -2.308,-0.134 -2.308,-0.134l-5.432,-0.399l21.085,76.837l53.131,3.899l32.075,-72.936l-7.831,-0.575Zm-70.212,-13.756c5.298,-9.118 15.482,-14.929 26.698,-14.106c11.217,0.823 20.443,8.058 24.321,17.865c3.144,7.845 10.483,13.213 18.912,13.833l2.399,0.176l-28.789,65.465l-47.714,-3.502l-18.925,-68.966c0,-0 0.938,0.069 2.402,0.14c8.416,0.618 16.448,-3.614 20.696,-10.905Z" style="fill:#d2c0a0;"/></g><g><path d="M1114.35,1345.48c-7.833,3.138 -13.193,10.466 -13.81,18.882c-0.143,1.459 -0.212,2.397 -0.212,2.397l-65.465,-28.79l3.501,-47.714l68.967,-18.924c-0,-0 -0.069,0.937 -0.176,2.399c-0.618,8.429 3.621,16.473 10.924,20.728c9.135,5.269 14.946,15.452 14.123,26.669c-0.823,11.216 -8.058,20.443 -17.852,24.353Z" style="fill:#a8926b;"/><path d="M1110.99,1274.01c-0.51,6.964 2.992,13.609 9.025,17.125c10.364,5.984 16.956,17.542 16.022,30.272c-0.934,12.73 -9.142,23.202 -20.257,27.641l-0.004,0.002c-6.467,2.593 -10.891,8.644 -11.404,15.639l-0.005,0.046c-0.137,1.403 -0.203,2.304 -0.203,2.304l-0.399,5.431l-72.936,-32.075l3.899,-53.131l76.837,-21.084l-0.575,7.83Zm3.36,71.469c9.794,-3.91 17.029,-13.137 17.852,-24.353c0.823,-11.217 -4.988,-21.4 -14.123,-26.669c-7.303,-4.255 -11.542,-12.299 -10.924,-20.728l0.176,-2.399l-68.967,18.924l-3.501,47.714l65.465,28.79c0,-0 0.069,-0.938 0.212,-2.397c0.617,-8.416 5.977,-15.744 13.81,-18.882Z" style="fill:#d2c0a0;"/></g><g><path d="M955.208,1333.8c7.291,4.248 11.524,12.28 10.906,20.696c-0.072,1.464 -0.141,2.402 -0.141,2.402l68.967,-18.925l3.501,-47.714l-65.465,-28.789c0,-0 -0.069,0.937 -0.176,2.399c-0.619,8.429 -5.987,15.768 -13.833,18.912c-9.806,3.878 -17.041,13.104 -17.864,24.321c-0.823,11.216 4.987,21.4 14.105,26.698Z" style="fill:#a8926b;"/><path d="M968.965,1263.59c-0.512,6.963 -4.947,13.026 -11.428,15.623c-11.127,4.407 -19.336,14.879 -20.27,27.609c-0.934,12.73 5.658,24.288 16.005,30.302l0.004,0.003c6.019,3.509 9.512,10.141 8.999,17.136l-0.002,0.047c-0.069,1.407 -0.135,2.308 -0.135,2.308l-0.399,5.432l76.838,-21.085l3.898,-53.131l-72.936,-32.075l-0.574,7.831Zm-13.757,70.212c-9.118,-5.298 -14.928,-15.482 -14.105,-26.698c0.823,-11.217 8.058,-20.443 17.864,-24.321c7.846,-3.144 13.214,-10.483 13.833,-18.912l0.176,-2.399l65.465,28.789l-3.501,47.714l-68.967,18.925c0,-0 0.069,-0.938 0.141,-2.402c0.618,-8.416 -3.615,-16.448 -10.906,-20.696Z" style="fill:#d2c0a0;"/></g><g><path d="M1040.93,1255.76c32.21,2.363 56.441,30.432 54.077,62.642c-2.364,32.209 -30.432,56.44 -62.642,54.076c-32.209,-2.363 -56.44,-30.432 -54.077,-62.641c2.364,-32.21 30.433,-56.441 62.642,-54.077Z" style="fill:#b3a180;"/><path d="M1041.16,1252.68c33.906,2.488 59.414,32.036 56.926,65.942c-2.488,33.907 -32.036,59.414 -65.942,56.926c-33.907,-2.488 -59.415,-32.036 -56.926,-65.942c2.488,-33.906 32.035,-59.414 65.942,-56.926Zm-0.451,6.15c-30.513,-2.239 -57.103,20.715 -59.342,51.227c-2.239,30.513 20.715,57.103 51.228,59.342c30.512,2.239 57.102,-20.716 59.341,-51.228c2.239,-30.512 -20.715,-57.102 -51.227,-59.341Z" style="fill:#a8926b;"/><path d="M1041.55,1247.31c36.87,2.706 64.607,34.836 61.902,71.706c-2.706,36.871 -34.836,64.608 -71.707,61.902c-36.87,-2.705 -64.607,-34.836 -61.901,-71.706c2.705,-36.87 34.836,-64.607 71.706,-61.902Zm-0.394,5.37c-33.907,-2.488 -63.454,23.02 -65.942,56.926c-2.489,33.906 23.019,63.454 56.926,65.942c33.906,2.488 63.454,-23.019 65.942,-56.926c2.488,-33.906 -23.02,-63.454 -56.926,-65.942Zm-0.451,6.15c30.512,2.239 53.466,28.829 51.227,59.341c-2.239,30.512 -28.829,53.467 -59.341,51.228c-30.513,-2.239 -53.467,-28.829 -51.228,-59.342c2.239,-30.512 28.829,-53.466 59.342,-51.227Zm-0.394,5.37c-27.549,-2.022 -51.556,18.703 -53.578,46.251c-2.021,27.549 18.703,51.556 46.252,53.578c27.548,2.021 51.556,-18.703 53.577,-46.252c2.022,-27.549 -18.703,-51.556 -46.251,-53.577Z" style="fill:#d2c0a0;"/></g><path d="M1032.91,1354.11c-16.444,-1.354 -24.897,-12.008 -27.212,-17.789c-4.925,-12.302 2.203,-23.499 7.712,-33.902c1.24,-2.341 2.488,-4.93 2.753,-7.601c0.032,-0.322 -0.308,-3.319 -0.088,-3.503c0.094,-0.079 2.576,1.724 3.246,2.423c3.026,3.159 4.11,7.129 4.326,11.395c0.01,0.191 0.215,-8.156 0.638,-10.454c1.307,-7.102 5.254,-13.601 10.191,-18.88c1.555,-1.662 5.135,-4.322 8.703,-6.267c-1.36,3.077 -3.352,12.01 -2.112,14.799c3.376,7.59 8.39,14.152 10.67,22.163c0.722,2.537 0.948,5.136 0.8,7.767c-0.052,0.916 -0.972,3.97 -0.64,3.799c2.698,-1.388 6.303,-8.965 6.303,-8.965c0,-0 2.245,5.687 2.803,8.606c1.479,7.735 1.661,17.921 -2.848,24.79c-4.636,7.064 -15.121,12.453 -25.245,11.619Z" style="fill:#a8926b;"/><path d="M1032.91,1354.11c-16.444,-1.354 -24.897,-12.008 -27.212,-17.789c-4.925,-12.302 2.203,-23.499 7.712,-33.902c1.24,-2.341 2.488,-4.93 2.753,-7.601c0.032,-0.322 -0.308,-3.319 -0.088,-3.503c0.094,-0.079 2.576,1.724 3.246,2.423c3.026,3.159 4.11,7.129 4.326,11.395c0.01,0.191 0.215,-8.156 0.638,-10.454c1.307,-7.102 5.254,-13.601 10.191,-18.88c1.555,-1.662 5.135,-4.322 8.703,-6.267c-1.36,3.077 -3.352,12.01 -2.112,14.799c3.376,7.59 8.39,14.152 10.67,22.163c0.722,2.537 0.948,5.136 0.8,7.767c-0.052,0.916 -0.972,3.97 -0.64,3.799c2.698,-1.388 6.303,-8.965 6.303,-8.965c0,-0 2.245,5.687 2.803,8.606c1.479,7.735 1.661,17.921 -2.848,24.79c-4.636,7.064 -15.121,12.453 -25.245,11.619Zm-14.193,-55.504c-0.838,3.024 -2.709,7.589 -4.772,11.447c-4.264,7.973 -7.684,15.531 -3.901,24.978c1.777,4.44 10.006,13.347 22.635,14.387c7.776,0.64 16.191,-2.563 21.318,-9.299c5.212,-6.848 3.249,-21.905 3.249,-21.905c-1.996,3.702 -7.3,7.204 -10.191,8.34c0.81,-5.605 2.153,-12.647 0.867,-18.014c-1.492,-6.22 -6.809,-14.078 -9.401,-19.907c-0.953,-2.142 -1.255,-8.172 -0.563,-11.392c-2.436,2.498 -4.492,5.841 -6.43,8.668c-6.407,9.35 -4.199,26.122 -7.96,35.868c-0.702,-7.299 -2.563,-20.946 -4.851,-23.171Z" style="fill:#d2c0a0;"/><path d="M1023.57,1321.78l0,-0Z" style="fill:#d2c0a0;"/><path d="M968.424,1266.86l10.699,-6.883l11.817,5.196c1.276,-1.191 2.598,-2.332 3.963,-3.421l-2.782,-10.137l56.32,-36.233c10.669,2.308 19.236,9.836 23.112,19.623c2.597,6.481 8.66,10.916 15.623,11.427l7.831,0.575l-5.539,12.595l-129.932,83.59c-1.537,-2.454 -3.664,-4.548 -6.26,-6.062l-0.004,-0.003c-10.347,-6.014 -16.939,-17.572 -16.005,-30.302c0.934,-12.73 9.143,-23.202 20.27,-27.609c5.443,-2.181 9.443,-6.806 10.887,-12.356Zm-6.675,95.069l148.09,-95.272l1.723,-0.473l-0.575,7.83c-0.483,6.597 2.634,12.908 8.093,16.543l-140.725,90.534l9.351,-21.262c-1.191,-1.276 -2.333,-2.598 -3.421,-3.963l-22.546,6.187l0.01,-0.124Zm41.605,34.797l131.957,-84.893c0.702,3.063 0.965,6.281 0.723,9.578c-0.934,12.73 -9.142,23.202 -20.257,27.641l-0.004,0.002c-6.467,2.593 -10.891,8.644 -11.404,15.639l-0.005,0.046c-0.137,1.403 -0.203,2.304 -0.203,2.304l-0.399,5.431l-21.4,-9.411c-1.277,1.191 -2.599,2.333 -3.963,3.421l6.186,22.545l-7.831,-0.574c-6.963,-0.511 -13.608,2.991 -17.124,9.024c-5.984,10.365 -17.542,16.957 -30.272,16.023c-11.36,-0.834 -20.923,-7.461 -26.004,-16.776Z" style="fill:#fff2db;fill-opacity:0.15;"/></g></g></g></g></svg>