<?xml version="1.0" encoding="UTF-8" standalone="no"?><!DOCTYPE svg PUBLIC "-//W3C//DTD SVG 1.1//EN" "http://www.w3.org/Graphics/SVG/1.1/DTD/svg11.dtd"><svg width="100%" height="100%" viewBox="0 0 1250 1438" version="1.1" xmlns="http://www.w3.org/2000/svg" xmlns:xlink="http://www.w3.org/1999/xlink" xml:space="preserve" xmlns:serif="http://www.serif.com/" style="fill-rule:evenodd;clip-rule:evenodd;stroke-linejoin:round;stroke-miterlimit:2;"><g id="Ciborg"><g><g><path id="base_body_2" d="M1048.4,1437.5l-846.802,0l0,-194.208l257.885,-0l103.723,96.161l61.793,0.686l61.793,-0.686l103.723,-96.161l257.885,-0l-0,194.208Z" style="fill:#868686;"/><path id="base_body_21" serif:id="base_body_2" d="M1048.4,1437.5l-846.802,0l0,-171.779c145.752,-3.128 245.264,-4.126 245.264,-4.126l103.723,94.943l74.414,0.686l74.414,-0.686l103.723,-94.943c-0,0 99.512,0.998 245.264,4.126l-0,171.779Z" style="fill:#a2a2a2;"/><path d="M627.899,1408.82c-0.852,0.496 -1.843,0.781 -2.899,0.781l-65.97,-0c-0.873,-0 -1.735,-0.198 -2.52,-0.579l-110.689,-53.701l-244.222,-0c-3.186,-0 -5.772,-2.587 -5.772,-5.772c-0,-3.186 2.586,-5.773 5.772,-5.773l245.548,0c0.873,0 1.735,0.198 2.52,0.579l110.689,53.701l64.644,0c1.056,0 2.047,0.284 2.899,0.781c0.852,-0.497 1.843,-0.781 2.899,-0.781l64.644,0l110.689,-53.701c0.786,-0.381 1.647,-0.579 2.52,-0.579l245.548,0c3.186,0 5.772,2.587 5.772,5.773c0,3.185 -2.586,5.772 -5.772,5.772l-244.222,-0l-110.689,53.701c-0.785,0.381 -1.647,0.579 -2.519,0.579l-65.971,-0c-1.056,-0 -2.047,-0.285 -2.899,-0.781Z" style="fill:#868686;"/><g><path d="M716.33,1296.09c11.066,9.328 14.295,28.622 7.809,41.56l-42.941,99.848l-112.396,0l-42.941,-99.848c-6.486,-12.938 -3.257,-32.232 7.809,-41.56l32.887,-27.718c5.645,-4.758 12.79,-7.368 20.173,-7.368l76.54,0c7.383,0 14.528,2.61 20.173,7.368l32.887,27.718Zm-13.461,15.971l-32.886,-27.719c-1.879,-1.583 -4.257,-2.451 -6.713,-2.451l-76.54,-0c-2.456,-0 -4.834,0.868 -6.713,2.451l-32.886,27.719c-3.683,3.103 -4.757,8.327 -2.599,12.633l35.512,86.169c1.767,3.524 5.371,5.749 9.312,5.749l71.288,-0c3.941,-0 7.545,-2.225 9.312,-5.749l35.512,-86.169c2.158,-4.306 1.084,-9.53 -2.599,-12.633Z" style="fill:#383838;fill-opacity:0.35;"/><path d="M702.869,1304.69c3.683,3.104 4.757,8.328 2.599,12.633c-8.249,16.454 -28.076,56.005 -35.512,70.838c-1.767,3.523 -5.371,5.748 -9.312,5.748c-15.659,-0 -55.629,-0 -71.288,-0c-3.941,0 -7.545,-2.225 -9.312,-5.748c-7.436,-14.833 -27.263,-54.384 -35.512,-70.838c-2.158,-4.305 -1.084,-9.529 2.599,-12.633c9.238,-7.787 26.128,-22.022 32.886,-27.718c1.879,-1.584 4.257,-2.452 6.713,-2.452c13.997,-0 62.543,-0 76.54,-0c2.456,-0 4.834,0.868 6.713,2.452c6.758,5.696 23.648,19.931 32.886,27.718Z" style="fill:#36bfda;"/><path d="M716.33,1296.09c11.066,9.328 14.295,28.622 7.809,41.56l-35.512,70.838c-5.308,10.589 -16.138,17.274 -27.983,17.274l-71.288,0c-11.845,0 -22.675,-6.685 -27.983,-17.274l-35.512,-70.838c-6.486,-12.938 -3.257,-32.232 7.809,-41.56l32.887,-27.718c5.645,-4.758 12.79,-7.368 20.173,-7.368l76.54,0c7.383,0 14.528,2.61 20.173,7.368l32.887,27.718Zm-13.461,15.971l-32.886,-27.719c-1.879,-1.583 -4.257,-2.451 -6.713,-2.451l-76.54,-0c-2.456,-0 -4.834,0.868 -6.713,2.451l-32.886,27.719c-3.683,3.103 -4.757,8.327 -2.599,12.633l35.512,74.433c1.767,3.524 5.371,5.749 9.312,5.749l71.288,-0c3.941,-0 7.545,-2.225 9.312,-5.749l35.512,-74.433c2.158,-4.306 1.084,-9.53 -2.599,-12.633Z" style="fill:#383838;"/><rect x="522.54" y="1313" width="11.995" height="10.265" style="fill:#383838;"/><rect x="715.466" y="1313" width="11.995" height="10.265" style="fill:#383838;"/><path d="M716.33,1288.73c11.066,9.327 14.295,25.025 7.809,37.963l-35.512,70.838c-5.308,10.589 -16.138,17.274 -27.983,17.274l-71.288,0c-11.845,0 -22.675,-6.685 -27.983,-17.274l-35.512,-70.838c-6.486,-12.938 -3.257,-28.636 7.809,-37.963l32.887,-27.719c5.645,-4.758 12.79,-7.367 20.173,-7.367l76.54,-0c7.383,-0 14.528,2.609 20.173,7.367l32.887,27.719Zm-13.461,15.97l-32.886,-27.718c-1.879,-1.584 -4.257,-2.452 -6.713,-2.452l-76.54,-0c-2.456,-0 -4.834,0.868 -6.713,2.452l-32.886,27.718c-3.683,3.104 -4.757,8.328 -2.599,12.633l35.512,70.838c1.767,3.523 5.371,5.748 9.312,5.748l71.288,-0c3.941,0 7.545,-2.225 9.312,-5.748l35.512,-70.838c2.158,-4.305 1.084,-9.529 -2.599,-12.633Z" style="fill:#5d5d5d;"/><path d="M566.557,1261.01l13.46,15.971l-32.886,27.718l-13.461,-15.97l32.887,-27.719Zm103.426,15.971l13.46,-15.971l32.887,27.719l-13.461,15.97l-32.886,-27.718Zm-9.339,116.937l-0,20.886l-71.288,0l0,-20.886l71.288,-0Z" style="fill:#898989;"/><path d="M683.555,1310.26c3.683,3.104 4.757,8.327 2.599,12.633c-6.517,13.001 -19.957,39.809 -25.855,51.574c-1.767,3.524 -5.371,5.749 -9.312,5.749c-12.416,-0 -39.558,-0 -51.974,-0c-3.941,-0 -7.545,-2.225 -9.312,-5.749c-5.898,-11.765 -19.338,-38.573 -25.855,-51.574c-2.158,-4.306 -1.084,-9.529 2.599,-12.633c7.001,-5.901 18.022,-15.191 23.229,-19.579c1.879,-1.584 4.256,-2.452 6.713,-2.452c11.488,0 45.738,0 57.226,0c2.457,0 4.834,0.868 6.713,2.452c5.207,4.388 16.228,13.678 23.229,19.579Z" style="fill:#61dbee;"/></g><path id="base_body_22" serif:id="base_body_2" d="M411.02,1437.5l-209.421,0l0,-194.208l209.421,-0l0,194.208Zm427.96,-194.208l209.421,-0l-0,194.208l-209.421,0l-0,-194.208Z" style="fill:#5d5d5d;fill-opacity:0.25;"/></g><g><path d="M-0,1091.71c-0,83.132 68.408,151.54 151.542,151.54l220.374,0l-0,194.25l-220.333,0c-83.156,0 -151.583,-68.427 -151.583,-151.583l0,-194.25l-0,0.043Zm878.084,151.54l220.333,0c83.156,0 151.583,-68.427 151.583,-151.583l-0,194.25c-0,83.156 -68.427,151.583 -151.583,151.583l-220.333,0l0,-194.25Z" style="fill:#eff8ff;fill-rule:nonzero;"/><g id="Pencil"><g><path d="M1095.72,1357.91l39.285,-68.045l-29.245,-16.885l-39.285,68.045l10.587,6.113l2.775,4.511l5.747,0.409l10.136,5.852Z" style="fill:#f69d34;"/><path d="M1095.72,1357.91l39.285,-68.045l-5.257,-3.035l-39.286,68.045l5.258,3.035Z" style="fill:#ffb256;"/><path d="M1071.48,1343.91l39.286,-68.045l-5.005,-2.89l-39.285,68.045l5.004,2.89Z" style="fill:#b26912;"/><path d="M1089.6,1300.97l38.993,-0l-32.872,56.937l-10.136,-5.852l-5.747,-0.409l-2.775,-4.511l-10.587,-6.113l23.124,-40.052Z" style="fill:#794200;fill-opacity:0.25;"/></g><g><path d="M1140.17,1279.29c3.086,-5.09 8.601,-14.287 8.927,-15.462c1.501,-5.411 -5.692,-11.566 -10.331,-14.244c-4.638,-2.678 -12.754,-4.473 -17.501,-1.824c-1.195,0.667 -5.923,10.282 -8.926,15.462l27.831,16.068Z" style="fill:#ec606d;"/><path d="M1138.77,1249.58c-6.009,-2.171 -11.529,-3.543 -14.355,-0.514l-5.838,10.112c10.161,2.276 18.135,7.623 24.316,15.587c-1.25,2.097 -1.72,2.873 -2.719,4.521l-27.831,-16.068c3.003,-5.18 7.731,-14.795 8.926,-15.462c4.747,-2.649 12.863,-0.854 17.501,1.824Z" style="fill:#da5561;"/><path d="M1145.95,1258.92c0.99,0.993 1.578,2.618 1.832,4.765l-4.831,8.101c-0.982,-1.287 -2.048,-2.428 -3.268,-3.303l6.267,-9.563Z" style="fill:#ff7582;"/></g><g><path d="M1132.48,1294.24c-7.563,-9.413 -17.297,-15.066 -29.245,-16.885l10.061,-17.426c11.948,1.819 21.682,7.472 29.245,16.885l-10.061,17.426Z" style="fill:#9c9e9d;"/><path d="M1139.33,1282.36c-7.563,-9.413 -17.297,-15.066 -29.245,-16.884l0.781,-1.352c11.947,1.818 21.682,7.471 29.245,16.884l-0.781,1.352Z" style="fill:#434343;"/><path d="M1135.5,1289c-7.563,-9.413 -17.297,-15.066 -29.245,-16.884l0.781,-1.352c11.947,1.819 21.681,7.472 29.244,16.885l-0.78,1.351Z" style="fill:#434343;"/><path d="M1132.58,1294.06c-7.563,-9.413 -17.297,-15.066 -29.245,-16.884l0.78,-1.352c11.948,1.819 21.682,7.472 29.245,16.885l-0.78,1.351Z" style="fill:#818181;"/><path d="M1111.71,1274.12c9.298,2.588 17.075,7.812 23.355,15.628l-0.78,1.352c-6.28,-7.816 -14.057,-13.04 -23.355,-15.628l0.78,-1.352Zm3.854,-6.675c9.298,2.588 17.075,7.812 23.355,15.628l-1.499,2.596c-6.28,-7.816 -14.057,-13.039 -23.355,-15.628l1.499,-2.596Zm3.143,-5.444c9.298,2.588 17.075,7.812 23.355,15.628l-1.499,2.596c-6.28,-7.816 -14.057,-13.04 -23.355,-15.628l1.499,-2.596Z" style="fill:#b9b9b9;"/></g></g><path d="M1139.42,1386.78c0,5.012 -2.994,9.54 -7.606,11.502c-13.723,5.839 -42.26,17.981 -53.694,22.846c-3.127,1.331 -6.661,1.331 -9.788,0c-11.435,-4.865 -39.972,-17.007 -53.695,-22.846c-4.612,-1.962 -7.606,-6.49 -7.606,-11.502c0,-17.483 0,-56.619 0,-56.619l132.389,-0l0,56.619Z" style="fill:#a4d5ff;fill-opacity:0.5;"/><path d="M1139.42,1381.41c0,5.012 -2.994,9.54 -7.606,11.502c-13.723,5.839 -42.26,17.981 -53.694,22.847c-3.127,1.33 -6.661,1.33 -9.788,-0c-11.435,-4.866 -39.972,-17.008 -53.695,-22.847c-4.612,-1.962 -7.606,-6.49 -7.606,-11.502c0,-17.483 0,-56.619 0,-56.619l132.389,-0l0,56.619Z" style="fill:#daeeff;"/><path d="M1135.26,1335l0,46.416c0,3.342 -1.996,6.36 -5.07,7.668l-53.695,22.847c-2.084,0.887 -4.44,0.887 -6.525,-0l-53.694,-22.847c-3.075,-1.308 -5.071,-4.326 -5.071,-7.668l-0,-46.416l4.166,0l0,46.417c0.001,1.67 0.999,3.179 2.536,3.833l53.694,22.847c1.043,0.443 2.221,0.443 3.263,-0l53.694,-22.847c1.538,-0.654 2.536,-2.163 2.536,-3.834l-0,-46.416l4.166,0Z" style="fill:#a4d5ff;"/><rect x="1007.03" y="1324.79" width="132.389" height="20.407" style="fill:#a4d5ff;fill-opacity:0.5;"/><path d="M1145.57,1313.64c0,-4.204 -3.413,-7.617 -7.618,-7.617l-129.449,-0c-4.205,-0 -7.618,3.413 -7.618,7.617l0,14.114c0,4.204 3.413,7.617 7.618,7.617l129.449,0c4.205,0 7.618,-3.413 7.618,-7.617l0,-14.114Z" style="fill:#daeeff;"/><g><path d="M881.308,1437.5c-0,0 91.34,-69.464 126.814,-96.442c8.247,-6.271 11.476,-17.165 7.98,-26.917c-9.057,-25.264 -25.399,-70.849 -25.399,-70.849l-108.893,7.417l-8.097,186.791l7.595,0Z" style="fill:#a4d5ff;fill-opacity:0.5;"/><path d="M873.713,1437.5c0,0 88.789,-82.207 119.619,-110.752c6.396,-5.922 9,-14.893 6.766,-23.32c-5.672,-21.402 -15.995,-60.354 -15.995,-60.354l-110.408,0.177l0.018,194.249Z" style="fill:#fff;"/></g><g><path d="M364.238,1437.5c-0,-0 -91.341,-69.464 -126.815,-96.442c-8.247,-6.271 -11.476,-17.165 -7.98,-26.917c9.057,-25.264 25.4,-70.849 25.4,-70.849l108.893,7.417l8.096,186.791l-7.594,-0Z" style="fill:#a4d5ff;fill-opacity:0.5;"/><path d="M371.832,1437.5c0,0 -88.788,-82.207 -119.618,-110.752c-6.397,-5.922 -9,-14.893 -6.767,-23.32c5.672,-21.402 15.995,-60.354 15.995,-60.354l110.409,0.177l-0.019,194.249Z" style="fill:#fff;"/></g></g></g></g></svg>