<?xml version="1.0" encoding="UTF-8" standalone="no"?><!DOCTYPE svg PUBLIC "-//W3C//DTD SVG 1.1//EN" "http://www.w3.org/Graphics/SVG/1.1/DTD/svg11.dtd"><svg width="100%" height="100%" viewBox="0 0 300 345" version="1.1" xmlns="http://www.w3.org/2000/svg" xmlns:xlink="http://www.w3.org/1999/xlink" xml:space="preserve" xmlns:serif="http://www.serif.com/" style="fill-rule:evenodd;clip-rule:evenodd;stroke-linejoin:round;stroke-miterlimit:2;"><g id="Fish"><g id="Fish-Body" serif:id="Fish Body"><path d="M300,262.01l0,46.61c0,19.957 -16.423,36.38 -36.38,36.38l-227.24,0c-19.957,0 -36.38,-16.423 -36.38,-36.38l0,-46.61c0,20.079 16.301,36.38 36.38,36.38l227.24,0c20.079,0 36.38,-16.301 36.38,-36.38Z" style="fill:#fe6c17;"/><path d="M0,265.292l0,-3.282c0,20.079 16.301,36.38 36.38,36.38l227.24,-0c20.079,-0 36.38,-16.301 36.38,-36.38l0,3.282c0,20.079 -16.301,36.38 -36.38,36.38l-227.24,0c-20.079,0 -36.38,-16.301 -36.38,-36.38Z" style="fill:#932a00;"/><path d="M-0,308.62l-0,-6.518c20.683,8.688 41.718,14.031 63.176,15.359c28.03,1.735 56.978,2.097 86.824,1.651c29.846,0.446 58.794,0.084 86.824,-1.651c21.458,-1.328 42.493,-6.671 63.176,-15.359l0,6.518c0,4.33 -0.773,8.493 -2.187,12.358c-13.857,7.091 -31.047,11.19 -56.333,13.177c-19.261,1.514 -62.019,2.115 -91.48,1.738c-29.461,0.377 -72.219,-0.224 -91.48,-1.738c-25.286,-1.987 -42.476,-6.086 -56.333,-13.177c-1.414,-3.865 -2.187,-8.028 -2.187,-12.358Z" style="fill:#71302a;"/><path d="M0.592,315.131c-0.389,-2.115 -0.592,-4.291 -0.592,-6.511l-0,-11.529c20.683,8.688 41.718,14.032 63.176,15.36c28.03,1.735 56.978,2.097 86.824,1.651c29.846,0.446 58.794,0.084 86.824,-1.651c21.458,-1.328 42.493,-6.672 63.176,-15.36l0,11.529c0,2.22 -0.203,4.396 -0.592,6.511c-14.132,7.607 -31.662,11.95 -57.928,14.014c-19.261,1.513 -62.019,2.115 -91.48,1.738c-29.461,0.377 -72.219,-0.225 -91.48,-1.738c-26.266,-2.064 -43.796,-6.407 -57.928,-14.014Z" style="fill:#fbdbca;"/><path d="M-0,307.871l-0,-6.738c20.683,8.689 41.718,14.032 63.176,15.36c28.03,1.735 56.978,2.097 86.824,1.651c29.846,0.446 58.794,0.084 86.824,-1.651c21.458,-1.328 42.493,-6.671 63.176,-15.36l0,6.738c-20.683,8.688 -41.718,14.031 -63.176,15.359c-28.03,1.735 -56.978,2.097 -86.824,1.651c-29.846,0.446 -58.794,0.084 -86.824,-1.651c-21.458,-1.328 -42.493,-6.671 -63.176,-15.359Z" style="fill:#ffe6d8;"/><path d="M168.453,342.122c-0,1.59 -1.289,2.878 -2.878,2.878c-6.497,-0 -27.008,0 -27.008,0l0,-43.328l18.625,0c6.219,0 11.261,5.042 11.261,11.261c-0,10.725 -0,22.86 -0,29.189Z" style="fill:#622600;fill-opacity:0.25;"/><path d="M164.771,342.122c-0,1.59 -1.289,2.878 -2.878,2.878c-6.497,0 -23.326,0 -23.326,0l0,-43.328l14.943,0c6.219,0 11.261,5.042 11.261,11.261c-0,10.725 -0,22.86 -0,29.189Z" style="fill:#932a00;"/><path d="M163.187,342.122c-0,1.59 -1.288,2.878 -2.878,2.878c-6.497,0 -21.742,0 -21.742,0l0,-43.328c0,0 6.875,1.087 13.359,1.087c6.219,0 11.261,3.955 11.261,10.174c-0,10.725 -0,22.86 -0,29.189Z" style="fill:#ff7f2f;"/><path d="M138.567,319.242c3.796,-0.029 20.244,-0.016 24.62,0.013l-0,16.739c-4.592,-2.381 -20.653,-2.609 -24.62,-0.006l0,-16.746Z" style="fill:#71302a;"/><path d="M138.567,314.232c3.796,-2.665 20.244,-2.475 24.62,0.013l-0,16.739c-4.592,-2.004 -20.653,-2.138 -24.62,-0.006l0,-16.746Z" style="fill:#fbdbca;"/><path d="M138.567,318.274c3.796,-2.6 20.244,-2.398 24.62,0.013l-0,6.737c-4.376,-2.606 -20.824,-2.842 -24.62,-0.012l0,-6.738Z" style="fill:#ffe6d8;"/><g><path d="M144.472,316.579l-0.17,-0.017l-0.264,-0.082l-0.238,-0.129l-0.206,-0.171l-0.171,-0.207l-0.129,-0.238l-0.082,-0.264l-0.029,-0.281l0.029,-0.282l0.082,-0.264l0.129,-0.238l0.171,-0.207l0.206,-0.17l0.238,-0.129l0.264,-0.082l0.173,-0.018c0.416,-3.164 3.125,-5.61 6.402,-5.61c3.277,0 5.986,2.446 6.403,5.61l0.172,0.018l0.264,0.082l0.238,0.129l0.206,0.17l0.171,0.207l0.129,0.238l0.082,0.264l0.029,0.282l-0.029,0.281l-0.082,0.264l-0.129,0.238l-0.171,0.207l-0.206,0.171l-0.238,0.129l-0.264,0.082l-0.17,0.017c-0.409,3.172 -3.123,5.625 -6.405,5.625c-3.282,0 -5.995,-2.453 -6.405,-5.625Z" style="fill:#632400;fill-opacity:0.15;"/><path d="M157.825,315.19c-0,0.361 -0.294,0.654 -0.655,0.654l-12.586,0c-0.361,0 -0.655,-0.293 -0.655,-0.654c0,-0.362 0.294,-0.655 0.655,-0.655l12.586,0c0.361,0 0.655,0.293 0.655,0.655Z" style="fill:#040200;"/><g><path d="M145.496,315.084l-0,-1.098l10.899,0l0,1.098c0,3.008 -2.442,5.45 -5.45,5.45c-3.007,-0 -5.449,-2.442 -5.449,-5.45Z" style="fill:#2a1100;"/><circle cx="150.945" cy="313.986" r="5.45" style="fill:#6c3814;"/><path d="M150.29,312.323l2.387,2.387c0.26,0.259 0.26,0.68 0,0.94c-0.259,0.259 -0.68,0.259 -0.939,-0l-2.388,-2.388c-0.259,-0.259 -0.259,-0.68 0,-0.939c0.26,-0.26 0.681,-0.26 0.94,-0Z" style="fill:#d0550e;"/><path d="M152.677,313.262l-2.387,2.388c-0.259,0.259 -0.68,0.259 -0.94,-0c-0.259,-0.26 -0.259,-0.681 0,-0.94l2.388,-2.387c0.259,-0.26 0.68,-0.26 0.939,-0c0.26,0.259 0.26,0.68 0,0.939Z" style="fill:#f96c1b;"/><path d="M150.945,308.892c3.008,-0 5.45,2.441 5.45,5.449c0,3.008 -2.442,5.45 -5.45,5.45c-3.007,-0 -5.449,-2.442 -5.449,-5.45c-0,-3.008 2.442,-5.449 5.449,-5.449Zm0,1.33c-2.273,0 -4.118,1.846 -4.118,4.119c-0,2.274 1.845,4.119 4.118,4.119c2.274,0 4.119,-1.845 4.119,-4.119c0,-2.273 -1.845,-4.119 -4.119,-4.119Z" style="fill:#2a1100;"/><path d="M150.945,308.537c3.008,-0 5.45,2.441 5.45,5.449c0,3.008 -2.442,5.45 -5.45,5.45c-3.007,-0 -5.449,-2.442 -5.449,-5.45c-0,-3.008 2.442,-5.449 5.449,-5.449Zm0,1.33c-2.273,0 -4.118,1.846 -4.118,4.119c-0,2.273 1.845,4.119 4.118,4.119c2.274,0 4.119,-1.846 4.119,-4.119c0,-2.273 -1.845,-4.119 -4.119,-4.119Z" style="fill:#461d00;"/></g></g><g><path d="M144.472,336.233l-0.17,-0.017l-0.264,-0.082l-0.238,-0.13l-0.206,-0.17l-0.171,-0.207l-0.129,-0.238l-0.082,-0.264l-0.029,-0.282l0.029,-0.281l0.082,-0.264l0.129,-0.238l0.171,-0.207l0.206,-0.17l0.238,-0.13l0.264,-0.082l0.173,-0.017c0.416,-3.164 3.125,-5.61 6.402,-5.61c3.277,0 5.986,2.446 6.403,5.61l0.172,0.017l0.264,0.082l0.238,0.13l0.206,0.17l0.171,0.207l0.129,0.238l0.082,0.264l0.029,0.281l-0.029,0.282l-0.082,0.264l-0.129,0.238l-0.171,0.207l-0.206,0.17l-0.238,0.13l-0.264,0.082l-0.17,0.017c-0.409,3.171 -3.123,5.625 -6.405,5.625c-3.282,0 -5.995,-2.454 -6.405,-5.625Z" style="fill:#632400;fill-opacity:0.15;"/><path d="M157.825,334.843c-0,0.362 -0.294,0.655 -0.655,0.655l-12.586,0c-0.361,0 -0.655,-0.293 -0.655,-0.655c0,-0.361 0.294,-0.654 0.655,-0.654l12.586,-0c0.361,-0 0.655,0.293 0.655,0.654Z" style="fill:#040200;"/><g><path d="M145.496,334.738l-0,-1.098l10.899,-0l0,1.098c0,3.008 -2.442,5.45 -5.45,5.45c-3.007,-0 -5.449,-2.442 -5.449,-5.45Z" style="fill:#2a1100;"/><circle cx="150.945" cy="333.64" r="5.45" style="fill:#6c3814;"/><path d="M150.29,331.976l2.387,2.388c0.26,0.259 0.26,0.68 0,0.94c-0.259,0.259 -0.68,0.259 -0.939,-0l-2.388,-2.388c-0.259,-0.259 -0.259,-0.68 0,-0.94c0.26,-0.259 0.681,-0.259 0.94,0Z" style="fill:#d0550e;"/><path d="M152.677,332.916l-2.387,2.388c-0.259,0.259 -0.68,0.259 -0.94,-0c-0.259,-0.26 -0.259,-0.681 0,-0.94l2.388,-2.388c0.259,-0.259 0.68,-0.259 0.939,0c0.26,0.26 0.26,0.681 0,0.94Z" style="fill:#f96c1b;"/><path d="M150.945,328.545c3.008,0 5.45,2.442 5.45,5.45c0,3.008 -2.442,5.45 -5.45,5.45c-3.007,-0 -5.449,-2.442 -5.449,-5.45c-0,-3.008 2.442,-5.45 5.449,-5.45Zm0,1.331c-2.273,0 -4.118,1.846 -4.118,4.119c-0,2.273 1.845,4.119 4.118,4.119c2.274,-0 4.119,-1.846 4.119,-4.119c0,-2.273 -1.845,-4.119 -4.119,-4.119Z" style="fill:#2a1100;"/><path d="M150.945,328.19c3.008,0 5.45,2.442 5.45,5.45c0,3.008 -2.442,5.449 -5.45,5.449c-3.007,0 -5.449,-2.441 -5.449,-5.449c-0,-3.008 2.442,-5.45 5.449,-5.45Zm0,1.331c-2.273,-0 -4.118,1.846 -4.118,4.119c-0,2.273 1.845,4.119 4.118,4.119c2.274,-0 4.119,-1.846 4.119,-4.119c0,-2.273 -1.845,-4.119 -4.119,-4.119Z" style="fill:#461d00;"/></g></g></g></g></svg>