<?xml version="1.0" encoding="UTF-8" standalone="no"?><!DOCTYPE svg PUBLIC "-//W3C//DTD SVG 1.1//EN" "http://www.w3.org/Graphics/SVG/1.1/DTD/svg11.dtd"><svg width="100%" height="100%" viewBox="0 0 1250 1438" version="1.1" xmlns="http://www.w3.org/2000/svg" xmlns:xlink="http://www.w3.org/1999/xlink" xml:space="preserve" xmlns:serif="http://www.serif.com/" style="fill-rule:evenodd;clip-rule:evenodd;stroke-linejoin:round;stroke-miterlimit:2;"><g id="ClothesMonk"><g><path id="base_body_2" d="M625,1437.5l-473.417,0c-46.714,0 -88.781,-21.595 -116.679,-55.264c26.404,-4.023 50.089,-19.108 64.965,-40.693c19.719,-28.614 37.037,-61.233 51.714,-98.251l258.13,-0l215.287,194.208Z" style="fill:#771617;fill-rule:nonzero;"/><path id="base_body_21" serif:id="base_body_2" d="M202.261,1243.29l23.021,-0c-1.678,34.829 -1.731,67.491 0.502,97.104c-13.617,-34.019 -20.616,-66.146 -23.523,-97.104Zm-0,-0c-10.034,26.894 -25.342,54.315 -50.678,82.739c9.549,-28.054 16.056,-55.727 17.277,-82.739l33.401,-0Zm-160.56,146.613c-2.349,-2.479 -4.616,-5.037 -6.797,-7.669c26.404,-4.023 50.089,-19.108 64.965,-40.693c19.719,-28.614 37.037,-61.233 51.714,-98.251l7.698,-0c-24.766,83.134 -57.809,146.614 -117.58,146.613Zm117.173,47.595l-7.291,0c-12.772,0 -25.197,-1.614 -37.08,-4.648c33.082,-18.737 57.175,-41.07 71.693,-67.233c-5.726,24.383 -14.963,48.327 -27.322,71.881Zm184.598,-0l-62.229,-0l28.308,-59.258l33.921,59.258Zm-67.504,-194.208l41.991,-0c29.142,46.927 70.144,89.669 121.832,128.638c-63.071,-30.184 -117.616,-73.158 -163.823,-128.638Zm62.844,-0l70.901,-0l215.287,194.208l-42.262,-0c-92.892,-52.509 -175.367,-116.014 -243.926,-194.208Z" style="fill:#601011;"/><path id="base_body_22" serif:id="base_body_2" d="M357.172,1243.29l52.541,-0l215.287,194.208c-97.869,-50.415 -188.319,-113.193 -267.828,-194.208Z" style="fill:#9c1f20;fill-rule:nonzero;"/></g><g><path id="base_body_23" serif:id="base_body_2" d="M738.951,1243.29l359.466,-0c83.661,-0 151.583,-67.923 151.583,-151.584l0,194.209c0,83.156 -68.427,151.583 -151.583,151.583l-946.834,0c197.718,-36.769 394.243,-90.842 587.368,-194.208Z" style="fill:#e36800;fill-rule:nonzero;"/><path id="base_body_24" serif:id="base_body_2" d="M362.411,1437.5l-210.828,0c197.718,-36.769 394.243,-90.842 587.368,-194.208l91.871,-0c-59.068,100.79 -211.997,166.717 -468.411,194.208Zm821.987,-27.049c-19.448,13.519 -42.151,22.62 -66.604,25.798c46.436,-53.313 80.008,-116.463 103.44,-187.367c-3.328,51.501 -14.301,105.013 -36.836,161.569Zm-190.758,27.049l-107.466,0c73.464,-41.38 161.58,-127.852 206.821,-194.208l5.422,-0c10.16,-0 20.088,-1.002 29.691,-2.912c-26.122,65.707 -68.764,131.413 -134.468,197.12Zm-116.821,-194.208l104.995,-0c-105.095,91.177 -202.736,120.855 -298.634,136.158c82.906,-23.584 147.452,-68.97 193.639,-136.158Z" style="fill:#c85e03;"/><path id="base_body_25" serif:id="base_body_2" d="M151.583,1437.5c197.718,-36.769 394.243,-90.842 587.368,-194.208l85.37,-0c-119.553,125.92 -376.271,171.679 -672.738,194.208Z" style="fill:#ff841b;fill-rule:nonzero;"/></g><g><path d="M996.371,1243.29c0.433,2.341 0.659,4.754 0.659,7.22c0,21.813 -17.708,39.521 -39.521,39.521c-5.747,0 -11.21,-1.229 -16.139,-3.44c-3.488,4.338 -7.273,8.592 -11.345,12.753c5.71,6.853 9.147,15.666 9.147,25.274c-0,21.812 -17.709,39.521 -39.521,39.521c-14.185,0 -26.634,-7.489 -33.606,-18.725c-4.156,2.176 -8.417,4.297 -12.78,6.361c1.282,3.89 1.976,8.047 1.976,12.364c0,21.812 -17.709,39.521 -39.521,39.521c-16.701,0 -30.996,-10.381 -36.779,-25.038c-4.288,1.147 -8.628,2.248 -13.018,3.301c0.094,1.11 0.142,2.233 0.142,3.367c-0,21.812 -17.709,39.521 -39.521,39.521c-18.497,-0 -34.044,-12.735 -38.342,-29.908c-5.477,0.544 -11,1.018 -16.565,1.422c-0.38,21.484 -17.94,38.809 -39.515,38.809c-21.282,0 -38.657,-16.857 -39.49,-37.936c-6.362,-0.318 -12.674,-0.728 -18.93,-1.229c-2.911,18.95 -19.303,33.482 -39.062,33.482c-21.812,0 -39.521,-17.708 -39.521,-39.521c0,-1.832 0.125,-3.635 0.367,-5.401c-5.114,-1.11 -10.166,-2.284 -15.153,-3.519c-6.334,13.383 -19.965,22.65 -35.743,22.65c-21.813,0 -39.521,-17.709 -39.521,-39.521c-0,-2.801 0.292,-5.534 0.847,-8.171c-4.691,-2.067 -9.275,-4.199 -13.747,-6.392c-7.25,8.885 -18.285,14.563 -30.636,14.563c-21.812,0 -39.521,-17.709 -39.521,-39.521c0,-6.766 1.704,-13.137 4.706,-18.708c-4.009,-3.722 -7.782,-7.526 -11.31,-11.404c-3.923,1.306 -8.119,2.013 -12.479,2.013c-21.812,0 -39.521,-17.708 -39.521,-39.521c0,-4.818 0.865,-9.437 2.446,-13.708l74.15,-0c1.582,4.271 2.446,8.89 2.446,13.708c0,12.76 -6.06,24.116 -15.456,31.344c2.389,2.522 4.891,5.009 7.503,7.46c7.071,-6.637 16.582,-10.705 27.036,-10.705c21.812,0 39.521,17.709 39.521,39.521c0,4.907 -0.896,9.607 -2.534,13.943c3.909,1.908 7.904,3.767 11.984,5.575c6.872,-11.675 19.57,-19.518 34.086,-19.518c21.812,0 39.521,17.709 39.521,39.521c-0,1.585 -0.094,3.149 -0.276,4.685c5.064,1.248 10.197,2.431 15.395,3.546c6.471,-13.011 19.904,-21.961 35.41,-21.961c19.524,0 35.76,14.188 38.952,32.806c6.795,0.554 13.657,1 20.581,1.334c4.79,-16.434 19.977,-28.457 37.949,-28.457c17.668,0 32.643,11.618 37.696,27.625c5.823,-0.412 11.597,-0.903 17.321,-1.471c1.556,-20.392 18.617,-36.477 39.405,-36.477c16.251,-0 30.225,9.83 36.293,23.864c4.528,-1.084 9.001,-2.22 13.417,-3.405c-0.037,-0.692 -0.055,-1.388 -0.055,-2.089c0,-21.812 17.709,-39.521 39.521,-39.521c12.96,0 24.472,6.252 31.681,15.902c4.712,-2.225 9.302,-4.52 13.765,-6.881c-0.678,-2.898 -1.036,-5.918 -1.036,-9.021c-0,-21.812 17.709,-39.521 39.521,-39.521c7.621,0 14.741,2.162 20.78,5.905c3.69,-3.732 7.13,-7.544 10.308,-11.428c-7.838,-7.224 -12.751,-17.575 -12.751,-29.064c0,-2.466 0.227,-4.879 0.66,-7.22l77.723,-0Z" style="fill-opacity:0.25;"/><path d="M959.893,1243.29c-11.296,24.646 -31.544,47.486 -59.181,67.244c-62.218,44.481 -162.527,73.76 -275.712,73.76c-113.185,-0 -213.494,-29.279 -275.712,-73.76c-27.637,-19.758 -47.885,-42.598 -59.181,-67.244l14.11,-0c38.542,73.905 167.642,128.291 320.783,128.291c153.141,0 282.241,-54.386 320.783,-128.291l14.11,-0Z"/><path d="M342.45,1243.29c0,21.812 -17.708,39.521 -39.521,39.521c-21.812,-0 -39.521,-17.709 -39.521,-39.521l79.042,-0Z" style="fill:#6a2d00;"/><path d="M337.35,1243.29c-0.3,6.489 -3.028,12.303 -8.077,15.827c-9.847,6.871 -24.819,2.451 -33.414,-9.865c-1.342,-1.923 -2.449,-3.926 -3.326,-5.962l44.817,-0Z" style="fill:#7e3500;"/><path d="M274.011,1243.29c3.099,18.73 19.387,33.033 38.99,33.033c5.726,-0 11.17,-1.221 16.084,-3.416c-6.971,6.162 -16.13,9.904 -26.156,9.904c-21.812,-0 -39.521,-17.709 -39.521,-39.521l10.603,-0Z" style="fill:#441d00;"/><circle cx="361.533" cy="1310.91" r="39.521" style="fill:#6a2d00;"/><path d="M349.03,1282.88c7.784,-9.143 23.387,-8.663 34.823,1.072c11.436,9.735 14.401,25.062 6.618,34.205c-7.784,9.143 -23.387,8.662 -34.823,-1.073c-11.436,-9.735 -14.401,-25.061 -6.618,-34.204Z" style="fill:#7e3500;"/><path d="M396.104,1330.07c-6.747,12.142 -19.706,20.367 -34.571,20.367c-21.812,-0 -39.521,-17.709 -39.521,-39.521c0,-11.557 4.971,-21.962 12.89,-29.191c-3.153,5.675 -4.95,12.206 -4.95,19.154c0,21.812 17.709,39.521 39.521,39.521c10.255,-0 19.604,-3.915 26.631,-10.33Z" style="fill:#441d00;"/><circle cx="444.59" cy="1350.43" r="39.521" style="fill:#6a2d00;"/><path d="M424.977,1328.74c4.953,-10.938 20.082,-14.788 33.763,-8.592c13.68,6.196 20.766,20.106 15.812,31.044c-4.954,10.938 -20.082,14.787 -33.763,8.592c-13.681,-6.196 -20.766,-20.107 -15.812,-31.044Z" style="fill:#7e3500;"/><path d="M481.807,1363.75c-5.471,15.269 -20.077,26.203 -37.217,26.203c-21.813,0 -39.521,-17.708 -39.521,-39.52c-0,-8.017 2.391,-15.479 6.5,-21.711c-1.491,4.161 -2.304,8.645 -2.304,13.317c0,21.813 17.709,39.521 39.521,39.521c13.796,0 25.95,-7.084 33.021,-17.81Z" style="fill:#441d00;"/><circle cx="534.64" cy="1376.22" r="39.521" style="fill:#6a2d00;"/><path d="M507.43,1363.02c-0.121,-12.006 11.973,-21.877 26.991,-22.029c15.017,-0.151 27.308,9.474 27.429,21.481c0.121,12.006 -11.973,21.877 -26.991,22.028c-15.017,0.152 -27.308,-9.473 -27.429,-21.48Z" style="fill:#7e3500;"/><path d="M573.962,1372.23c0.132,1.313 0.199,2.644 0.199,3.991c0,21.812 -17.709,39.521 -39.521,39.521c-21.812,-0 -39.521,-17.709 -39.521,-39.521c0,-1.347 0.068,-2.678 0.199,-3.991c2.004,19.941 18.857,35.531 39.322,35.531c20.465,-0 37.318,-15.59 39.322,-35.531Z" style="fill:#441d00;"/><circle cx="632.122" cy="1381.91" r="39.521" style="fill:#6a2d00;"/><path d="M604.79,1368.47c-0.121,-12.006 11.973,-21.877 26.99,-22.028c15.018,-0.152 27.308,9.473 27.429,21.48c0.121,12.006 -11.973,21.877 -26.99,22.029c-15.018,0.151 -27.308,-9.474 -27.429,-21.481Z" style="fill:#7e3500;"/><path d="M671.349,1377.07c0.194,1.585 0.294,3.199 0.294,4.836c-0,21.813 -17.709,39.521 -39.521,39.521c-21.812,0 -39.521,-17.708 -39.521,-39.521c0,-1.637 0.1,-3.251 0.294,-4.836c2.388,19.534 19.052,34.684 39.227,34.684c20.175,0 36.839,-15.15 39.227,-34.684Z" style="fill:#441d00;"/><circle cx="726.544" cy="1371.58" r="39.521" style="fill:#6a2d00;"/><path d="M695.048,1366.27c-3.247,-11.56 5.856,-24.242 20.315,-28.303c14.458,-4.061 28.833,2.027 32.08,13.587c3.247,11.559 -5.855,24.242 -20.314,28.303c-14.459,4.061 -28.834,-2.027 -32.081,-13.587Z" style="fill:#7e3500;"/><path d="M759.964,1350.49c3.864,6.106 6.101,13.34 6.101,21.093c-0,21.812 -17.709,39.521 -39.521,39.521c-17.267,0 -31.962,-11.096 -37.337,-26.541c7.007,11.071 19.361,18.428 33.42,18.428c21.812,-0 39.521,-17.709 39.521,-39.521c0,-4.546 -0.769,-8.913 -2.184,-12.98Z" style="fill:#441d00;"/><circle cx="815.72" cy="1350.43" r="39.521" style="fill:#6a2d00;"/><path d="M785.097,1352.06c-5.425,-10.712 1.049,-24.917 14.447,-31.702c13.399,-6.785 28.68,-3.596 34.105,7.116c5.424,10.712 -1.049,24.917 -14.448,31.702c-13.398,6.785 -28.68,3.596 -34.104,-7.116Z" style="fill:#7e3500;"/><path d="M845.814,1324.83c5.878,6.9 9.427,15.842 9.427,25.608c0,21.812 -17.709,39.52 -39.521,39.52c-15.506,0 -28.938,-8.949 -35.409,-21.96c7.251,8.512 18.047,13.913 30.094,13.913c21.812,0 39.521,-17.708 39.521,-39.52c-0,-6.306 -1.481,-12.27 -4.112,-17.561Z" style="fill:#441d00;"/><circle cx="899.651" cy="1310.91" r="39.521" style="fill:#6a2d00;"/><path d="M869.789,1318.4c-7.486,-9.389 -4.029,-24.612 7.714,-33.974c11.743,-9.362 27.354,-9.341 34.839,0.048c7.485,9.388 4.029,24.612 -7.714,33.974c-11.743,9.362 -27.354,9.341 -34.839,-0.048Z" style="fill:#7e3500;"/><path d="M919.234,1276.58c11.907,6.812 19.938,19.64 19.938,34.329c-0,21.812 -17.709,39.521 -39.521,39.521c-10.643,-0 -20.309,-4.216 -27.417,-11.068c5.774,3.304 12.46,5.192 19.583,5.192c21.812,0 39.521,-17.708 39.521,-39.521c0,-11.169 -4.643,-21.263 -12.104,-28.453Z" style="fill:#441d00;"/><path d="M996.499,1243.29c-3.098,18.73 -19.387,33.033 -38.99,33.033c-19.602,-0 -35.891,-14.303 -38.99,-33.033l77.98,-0Z" style="fill:#6a2d00;"/><path d="M965.276,1243.29c-9.452,11.622 -24.662,14.94 -33.978,7.399c-2.451,-1.984 -4.251,-4.522 -5.403,-7.399l39.381,-0Z" style="fill:#7e3500;"/><path d="M996.499,1243.29c-3.098,18.73 -19.387,33.033 -38.99,33.033c-13.222,-0 -24.936,-6.507 -32.112,-16.491c7.152,7.139 17.022,11.557 27.916,11.557c17.841,-0 32.937,-11.849 37.842,-28.099l5.344,-0Z" style="fill:#441d00;"/></g></g></svg>