<?xml version="1.0" encoding="UTF-8" standalone="no"?><!DOCTYPE svg PUBLIC "-//W3C//DTD SVG 1.1//EN" "http://www.w3.org/Graphics/SVG/1.1/DTD/svg11.dtd"><svg width="100%" height="100%" viewBox="0 0 1250 1438" version="1.1" xmlns="http://www.w3.org/2000/svg" xmlns:xlink="http://www.w3.org/1999/xlink" xml:space="preserve" xmlns:serif="http://www.serif.com/" style="fill-rule:evenodd;clip-rule:evenodd;stroke-linejoin:round;stroke-miterlimit:2;"><g id="Referee"><g id="ClothesReferee"><path d="M1250,1091.71l0,194.209c0,83.156 -68.427,151.583 -151.583,151.583l-946.834,-0c-83.156,-0 -151.583,-68.427 -151.583,-151.583l0,-194.209c0,83.661 67.922,151.584 151.583,151.584l440.673,-0l32.744,49.789l32.744,-49.789l440.673,-0c83.661,-0 151.583,-67.923 151.583,-151.584Z" style="fill:#e7e6e2;fill-rule:nonzero;"/><path d="M114.316,1432.8c-65.388,-16.786 -114.316,-76.571 -114.316,-146.887l0,-194.209c0,83.661 67.922,151.584 151.583,151.584l74.073,-0c-66.392,37.01 -111.34,107.939 -111.34,189.283l0,0.229Zm910.028,-189.512l74.073,-0c83.661,-0 151.583,-67.923 151.583,-151.584l-0,194.209c-0,70.316 -48.928,130.101 -114.316,146.887l-0,-0.229c-0,-81.344 -44.948,-152.273 -111.34,-189.283Zm-26.329,194.208l-106.576,-0l0,-194.208l106.576,-0l0,194.208Zm-213.151,-0l-106.576,-0l-0,-194.208l106.576,-0l-0,194.208Zm-213.152,-0l-106.576,-0l0,-194.208l106.576,-0l0,194.208Zm-213.151,-0l-106.576,-0l-0,-194.208l106.576,-0l-0,194.208Z" style="fill:#1e1c19;"/><g><path d="M654.183,1437.5l-59.181,0l-0,-146.809c-0,-2.94 2.386,-5.327 5.326,-5.327l48.528,0c2.94,0 5.327,2.387 5.327,5.327l-0,146.809Z" style="fill:#828282;"/><g><g><path d="M632.045,1293.87l0.003,-0.639c0.017,-3.052 2.509,-5.516 5.562,-5.499l11.06,0.062c3.052,0.017 5.516,2.509 5.499,5.561l-0.086,15.306c-0.017,3.053 -2.509,5.517 -5.561,5.5l-11.061,-0.063c-3.052,-0.017 -5.516,-2.509 -5.499,-5.561l0.004,-0.639l-2.836,-0.016c-1.848,1.891 -4.43,3.06 -7.28,3.044c-5.574,-0.031 -10.073,-4.582 -10.042,-10.155c0.032,-5.574 4.582,-10.073 10.155,-10.042c2.85,0.016 5.419,1.213 7.246,3.125l2.836,0.016Z" style="fill:#747474;"/><path d="M632.058,1291.5l0.003,-0.639c0.018,-3.052 2.51,-5.517 5.562,-5.499l11.06,0.062c3.053,0.017 5.517,2.509 5.499,5.561l-0.085,15.306c-0.018,3.052 -2.51,5.516 -5.562,5.499l-11.06,-0.062c-3.053,-0.017 -5.517,-2.509 -5.499,-5.561l0.003,-0.639l-2.836,-0.016c-1.848,1.891 -4.43,3.06 -7.28,3.044c-5.573,-0.032 -10.073,-4.582 -10.042,-10.156c0.032,-5.573 4.582,-10.073 10.156,-10.041c2.849,0.016 5.418,1.213 7.245,3.125l2.836,0.016Z" style="fill:#929292;"/></g><g><path d="M617.14,1312.98l-0.004,-0.64c-0.017,-3.052 -2.509,-5.516 -5.561,-5.499l-11.061,0.062c-3.052,0.018 -5.516,2.51 -5.499,5.562l0.086,15.306c0.017,3.052 2.509,5.516 5.561,5.499l11.061,-0.062c3.052,-0.017 5.516,-2.509 5.499,-5.562l-0.003,-0.639l2.835,-0.016c1.848,1.892 4.431,3.06 7.28,3.044c5.574,-0.031 10.074,-4.581 10.042,-10.155c-0.031,-5.574 -4.582,-10.073 -10.155,-10.042c-2.85,0.016 -5.419,1.214 -7.245,3.126l-2.836,0.016Z" style="fill:#747474;"/><path d="M617.127,1310.61l-0.004,-0.639c-0.017,-3.052 -2.509,-5.516 -5.561,-5.499l-11.061,0.062c-3.052,0.017 -5.516,2.509 -5.499,5.561l0.086,15.306c0.017,3.053 2.509,5.517 5.561,5.5l11.061,-0.063c3.052,-0.017 5.516,-2.509 5.499,-5.561l-0.004,-0.639l2.836,-0.016c1.848,1.891 4.43,3.06 7.28,3.044c5.574,-0.031 10.073,-4.582 10.042,-10.155c-0.031,-5.574 -4.582,-10.073 -10.155,-10.042c-2.85,0.016 -5.419,1.213 -7.246,3.125l-2.835,0.016Z" style="fill:#929292;"/></g><g><path d="M632.045,1332.07l0.003,-0.639c0.017,-3.052 2.509,-5.516 5.562,-5.499l11.06,0.062c3.052,0.017 5.516,2.509 5.499,5.561l-0.086,15.306c-0.017,3.053 -2.509,5.517 -5.561,5.5l-11.061,-0.063c-3.052,-0.017 -5.516,-2.509 -5.499,-5.561l0.004,-0.639l-2.836,-0.016c-1.848,1.891 -4.43,3.06 -7.28,3.044c-5.574,-0.031 -10.073,-4.582 -10.042,-10.155c0.032,-5.574 4.582,-10.073 10.155,-10.042c2.85,0.016 5.419,1.213 7.246,3.125l2.836,0.016Z" style="fill:#747474;"/><path d="M632.058,1329.71l0.003,-0.639c0.018,-3.052 2.51,-5.517 5.562,-5.499l11.06,0.062c3.053,0.017 5.517,2.509 5.499,5.561l-0.085,15.306c-0.018,3.052 -2.51,5.516 -5.562,5.499l-11.06,-0.062c-3.053,-0.017 -5.517,-2.509 -5.499,-5.561l0.003,-0.639l-2.836,-0.016c-1.848,1.891 -4.43,3.06 -7.28,3.044c-5.573,-0.032 -10.073,-4.582 -10.042,-10.156c0.032,-5.573 4.582,-10.073 10.156,-10.041c2.849,0.016 5.418,1.213 7.245,3.125l2.836,0.016Z" style="fill:#929292;"/></g><g><path d="M617.14,1351.18l-0.004,-0.639c-0.017,-3.053 -2.509,-5.517 -5.561,-5.5l-11.061,0.062c-3.052,0.018 -5.516,2.51 -5.499,5.562l0.086,15.306c0.017,3.052 2.509,5.516 5.561,5.499l11.061,-0.062c3.052,-0.017 5.516,-2.509 5.499,-5.561l-0.003,-0.64l2.835,-0.016c1.848,1.892 4.431,3.06 7.28,3.044c5.574,-0.031 10.074,-4.581 10.042,-10.155c-0.031,-5.573 -4.582,-10.073 -10.155,-10.042c-2.85,0.016 -5.419,1.214 -7.245,3.126l-2.836,0.016Z" style="fill:#747474;"/><path d="M617.127,1348.81l-0.004,-0.639c-0.017,-3.052 -2.509,-5.516 -5.561,-5.499l-11.061,0.062c-3.052,0.017 -5.516,2.509 -5.499,5.561l0.086,15.306c0.017,3.053 2.509,5.517 5.561,5.5l11.061,-0.063c3.052,-0.017 5.516,-2.509 5.499,-5.561l-0.004,-0.639l2.836,-0.016c1.848,1.891 4.43,3.06 7.28,3.044c5.574,-0.031 10.073,-4.582 10.042,-10.155c-0.031,-5.574 -4.582,-10.073 -10.155,-10.042c-2.85,0.016 -5.419,1.213 -7.246,3.125l-2.835,0.016Z" style="fill:#929292;"/></g><g><path d="M632.045,1370.37l0.003,-0.639c0.017,-3.052 2.509,-5.516 5.562,-5.499l11.06,0.062c3.052,0.017 5.516,2.509 5.499,5.561l-0.086,15.306c-0.017,3.052 -2.509,5.517 -5.561,5.499l-11.061,-0.062c-3.052,-0.017 -5.516,-2.509 -5.499,-5.561l0.004,-0.639l-2.836,-0.016c-1.848,1.891 -4.43,3.06 -7.28,3.044c-5.574,-0.032 -10.073,-4.582 -10.042,-10.156c0.032,-5.573 4.582,-10.073 10.155,-10.041c2.85,0.016 5.419,1.213 7.246,3.125l2.836,0.016Z" style="fill:#747474;"/><path d="M632.058,1368.01l0.003,-0.639c0.018,-3.053 2.51,-5.517 5.562,-5.5l11.06,0.063c3.053,0.017 5.517,2.509 5.499,5.561l-0.085,15.306c-0.018,3.052 -2.51,5.516 -5.562,5.499l-11.06,-0.062c-3.053,-0.017 -5.517,-2.509 -5.499,-5.561l0.003,-0.64l-2.836,-0.016c-1.848,1.892 -4.43,3.06 -7.28,3.044c-5.573,-0.031 -10.073,-4.581 -10.042,-10.155c0.032,-5.573 4.582,-10.073 10.156,-10.042c2.849,0.016 5.418,1.214 7.245,3.126l2.836,0.016Z" style="fill:#929292;"/></g><g><path d="M617.14,1389.48l-0.004,-0.64c-0.017,-3.052 -2.509,-5.516 -5.561,-5.499l-11.061,0.062c-3.052,0.017 -5.516,2.509 -5.499,5.562l0.086,15.306c0.017,3.052 2.509,5.516 5.561,5.499l11.061,-0.062c3.052,-0.018 5.516,-2.509 5.499,-5.562l-0.003,-0.639l2.835,-0.016c1.848,1.892 4.431,3.06 7.28,3.044c5.574,-0.031 10.074,-4.582 10.042,-10.155c-0.031,-5.574 -4.582,-10.073 -10.155,-10.042c-2.85,0.016 -5.419,1.213 -7.245,3.126l-2.836,0.016Z" style="fill:#747474;"/><path d="M617.127,1387.11l-0.004,-0.639c-0.017,-3.052 -2.509,-5.516 -5.561,-5.499l-11.061,0.062c-3.052,0.017 -5.516,2.509 -5.499,5.561l0.086,15.306c0.017,3.052 2.509,5.516 5.561,5.499l11.061,-0.062c3.052,-0.017 5.516,-2.509 5.499,-5.561l-0.004,-0.639l2.836,-0.016c1.848,1.891 4.43,3.06 7.28,3.044c5.574,-0.032 10.073,-4.582 10.042,-10.156c-0.031,-5.573 -4.582,-10.073 -10.155,-10.041c-2.85,0.016 -5.419,1.213 -7.246,3.125l-2.835,0.016Z" style="fill:#929292;"/></g><path d="M632.045,1408.65l0.003,-0.64c0.017,-3.052 2.509,-5.516 5.562,-5.499l11.06,0.062c3.052,0.018 5.516,2.509 5.499,5.562l-0.086,15.306c-0.017,3.052 -2.509,5.516 -5.561,5.499l-11.061,-0.062c-3.052,-0.017 -5.516,-2.509 -5.499,-5.562l0.004,-0.639l-2.836,-0.016c-1.848,1.892 -4.43,3.06 -7.28,3.044c-5.574,-0.031 -10.073,-4.581 -10.042,-10.155c0.032,-5.574 4.582,-10.073 10.155,-10.042c2.85,0.016 5.419,1.214 7.246,3.126l2.836,0.016Z" style="fill:#747474;"/><path d="M632.058,1406.29l0.003,-0.639c0.018,-3.052 2.51,-5.516 5.562,-5.499l11.06,0.062c3.053,0.017 5.517,2.509 5.499,5.561l-0.085,15.306c-0.018,3.053 -2.51,5.517 -5.562,5.5l-11.06,-0.063c-3.053,-0.017 -5.517,-2.509 -5.499,-5.561l0.003,-0.639l-2.836,-0.016c-1.848,1.891 -4.43,3.06 -7.28,3.044c-5.573,-0.031 -10.073,-4.582 -10.042,-10.155c0.032,-5.574 4.582,-10.073 10.156,-10.042c2.849,0.016 5.418,1.213 7.245,3.125l2.836,0.016Z" style="fill:#929292;"/><path d="M636.987,1437.5l-41.914,0l-0.058,-10.258c-0.017,-3.052 2.447,-5.544 5.499,-5.561l11.061,-0.062c3.052,-0.018 5.544,2.447 5.561,5.499l0.004,0.639l2.836,-0.016c1.826,-1.912 4.395,-3.109 7.245,-3.125c5.573,-0.032 10.124,4.468 10.155,10.041c0.006,0.986 -0.131,1.94 -0.389,2.843Z" style="fill:#747474;"/><path d="M635.95,1437.5l-40.877,0l-0.071,-12.623c-0.017,-3.053 2.447,-5.544 5.499,-5.562l11.061,-0.062c3.052,-0.017 5.544,2.447 5.561,5.499l0.004,0.64l2.835,-0.016c1.827,-1.912 4.396,-3.11 7.246,-3.126c5.573,-0.031 10.124,4.468 10.155,10.042c0.011,1.901 -0.506,3.684 -1.413,5.208Z" style="fill:#929292;"/></g><g><path d="M595.002,1310.46l-0,5.418c-2.321,0.079 -4.181,1.989 -4.181,4.329l-0,15.405c-0,2.391 1.941,4.333 4.332,4.333l59.695,-0c2.391,-0 4.333,-1.942 4.333,-4.333l-0,-15.405c-0,-2.13 -1.541,-3.904 -3.569,-4.265l-0,-5.547c2.028,-0.365 3.569,-2.14 3.569,-4.272l-0,-15.941c-0.338,-20.493 -68.737,-21.641 -68.36,-0l-0,15.941c-0,2.342 1.859,4.253 4.181,4.337Z" style="fill:#b3b3b3;"/><g><path d="M644.679,1317.41c-1.888,-5.814 -8.141,-9.001 -13.955,-7.113l-21.066,6.843c-5.814,1.888 -9,8.141 -7.112,13.954l18.838,58.001c1.888,5.813 8.141,9 13.954,7.112l21.067,-6.843c5.813,-1.888 9,-8.141 7.112,-13.954l-18.838,-58Zm-22.743,0.721c6.332,-2.056 13.144,1.415 15.2,7.748c2.057,6.332 -1.414,13.144 -7.747,15.2c-6.333,2.057 -13.144,-1.414 -15.201,-7.747c-2.056,-6.333 1.415,-13.144 7.748,-15.201Z" style="fill:#e4e4e4;"/><path d="M658.444,1346.42c-0.624,-1.922 -2.691,-2.976 -4.613,-2.351l-41.993,13.638c-1.922,0.625 -2.975,2.692 -2.351,4.614l12.645,38.933c0.624,1.922 2.692,2.975 4.613,2.351l41.993,-13.639c1.922,-0.624 2.976,-2.691 2.351,-4.613l-12.645,-38.933Z" style="fill:#323232;"/><path d="M660.403,1365.86c-0.303,-0.932 -1.305,-1.442 -2.236,-1.14l-37.701,12.245c-0.932,0.303 -1.443,1.305 -1.14,2.237l6.129,18.871c0.303,0.932 1.305,1.443 2.236,1.14l37.702,-12.245c0.931,-0.302 1.442,-1.305 1.139,-2.236l-6.129,-18.872Z" style="fill:#1a1a1a;"/></g><path d="M633.002,1282.67c-0,-2.321 -1.884,-4.205 -4.205,-4.205l-8.41,-0c-2.32,-0 -4.205,1.884 -4.205,4.205l0,47.354c0,2.321 1.885,4.205 4.205,4.205l8.41,0c2.321,0 4.205,-1.884 4.205,-4.205l-0,-47.354Z" style="fill:#d5d5d5;"/></g></g><path d="M351.879,1243.29l240.377,-0c-0.226,0.347 -0.458,0.692 -0.697,1.034l-58.713,83.886c-10.877,15.54 -32.324,19.326 -47.865,8.449l-130.369,-91.247c-0.956,-0.669 -1.867,-1.377 -2.733,-2.122Z" style="fill:#3b3b3b;"/><path d="M898.121,1243.29l-240.377,-0c0.226,0.347 0.458,0.692 0.697,1.034l58.713,83.886c10.877,15.54 32.324,19.326 47.865,8.449l130.369,-91.247c0.956,-0.669 1.867,-1.377 2.733,-2.122Z" style="fill:#3b3b3b;"/><path d="M1020.58,1306.87l-88.306,-21.952l-24.427,98.265l88.305,21.952l24.428,-98.265Z" style="fill:#fffec8;"/><path d="M995.932,1295.45l-90.782,-6.2l-6.9,101.02l90.782,6.201l6.9,-101.021Z" style="fill:#fffc90;"/><path d="M1027.62,1384.32c-0,9.88 -6.94,18.402 -16.616,20.402c-18.508,3.826 -47.341,9.786 -58.885,12.173c-3.315,0.685 -6.737,0.685 -10.053,-0c-11.565,-2.391 -40.487,-8.37 -58.99,-12.195c-9.614,-1.988 -16.51,-10.455 -16.51,-20.272c0,-24.319 0,-66.358 0,-66.358l161.054,-0l-0,66.25Z" style="fill:#3b3b3b;"/></g></g></svg>