<?xml version="1.0" encoding="UTF-8" standalone="no"?><!DOCTYPE svg PUBLIC "-//W3C//DTD SVG 1.1//EN" "http://www.w3.org/Graphics/SVG/1.1/DTD/svg11.dtd"><svg width="100%" height="100%" viewBox="0 0 300 345" version="1.1" xmlns="http://www.w3.org/2000/svg" xmlns:xlink="http://www.w3.org/1999/xlink" xml:space="preserve" xmlns:serif="http://www.serif.com/" style="fill-rule:evenodd;clip-rule:evenodd;stroke-linejoin:round;stroke-miterlimit:2;"><g id="Toxic-2" serif:id="Toxic 2"><g><path d="M300,262.01l0,46.61c0,19.957 -16.423,36.38 -36.38,36.38l-227.24,0c-19.957,0 -36.38,-16.423 -36.38,-36.38l0,-46.61c0,20.079 16.301,36.38 36.38,36.38l227.24,0c20.079,0 36.38,-16.301 36.38,-36.38Z" style="fill:#fae303;"/><path d="M176.325,345l-65.431,0c11.236,-10.716 11.83,-21.849 3.401,-28.515c-3.037,-2.402 -2.217,-4.035 0,-6.193c3.479,-3.385 2.813,-5.07 0.706,-6.787c-2.468,-2.01 -5.301,-3.655 -8.318,-5.115l65.903,-0c-5.488,6.412 -7.207,11.92 0.265,15.229c2.142,0.948 2.289,2.245 -0.705,4.232c-4.136,2.746 -5.526,12.063 3.605,19.284c-4.816,2.622 -4.364,5.243 0.574,7.865Zm95.283,-47.491c16.242,-3.645 28.392,-18.164 28.392,-35.499l0,46.61c0,18.963 -14.827,34.735 -33.425,36.259c11.27,-5.26 14.87,-9.551 11.663,-11.403c-1.933,-1.116 0.066,-2.003 1.693,-3.349c18.594,-15.376 16.656,-21.627 5.388,-23.73c5.166,-4.731 2.245,-5.476 -1.34,-6.316c-4.129,-0.967 -8.244,-1.83 -12.371,-2.572Zm-235.228,47.491c-19.957,-0 -36.38,-16.423 -36.38,-36.38l0,-46.61c0,14.386 8.368,26.833 20.499,32.735c-1.761,0.402 -3.433,1.008 -5.013,1.736c-5.384,2.479 -5.666,6.119 -1.149,10.813c1.932,2.007 1.681,2.91 -0.382,4.306c-9.785,6.616 4.835,26.828 22.425,33.4Zm173.39,-32.015c-0.138,0.142 -0.155,0.375 -0.293,0.517c-0.023,0.024 -7.411,3.904 -13.891,4.21c-6.312,0.297 -12.704,-1.287 -15.159,-1.91c-0.021,-0.005 -0.049,0 -0.064,-0.016c-0.161,-0.178 -0.294,-0.38 -0.455,-0.558c0.218,-0.102 0.341,-0.354 0.559,-0.455c0.046,-0.022 2.478,0.64 13.054,-0.626c5.966,-0.714 7.208,-0.861 15.684,-1.45c0.051,-0.004 0.04,0.02 0.565,0.288Zm66.425,-0.125c-0.187,0.211 -0.169,0.557 -0.357,0.767c-0.003,0.005 -6.777,4.134 -14.34,7.236c-17.05,6.994 -26.806,5.477 -28.772,5.231c-4.078,-0.508 -7.184,-1.455 -10.253,-2.703c-0.141,-0.057 -0.169,-0.253 -0.254,-0.38c0.145,-0.046 0.235,-0.207 0.381,-0.253c0.051,-0.016 2.694,-0.02 2.929,-0.02c2.311,-0.004 15.724,-0.538 23.824,-1.935c4.57,-0.789 13.249,-2.493 25.715,-7.967c0.099,-0.043 0.188,-0.133 0.296,-0.131c0.429,0.01 0.406,0.146 0.831,0.155Zm-169.502,1.491l0.437,0.73c-0.148,0.257 -0.252,0.538 -0.4,0.795c-0.008,0.014 -8.915,4.249 -17.335,5.078c-1.536,0.152 -7.464,0.818 -15.873,-1.912c-2.675,-0.868 -4.744,-1.838 -4.754,-1.846c-0.136,-0.116 -0.157,-0.333 -0.293,-0.45c0.178,-0.02 0.317,-0.186 0.495,-0.207c0.091,-0.01 6.103,1.288 15.256,0.722c5.236,-0.324 12.12,-0.398 22.028,-2.56c0.027,-0.006 0.06,0 0.082,-0.017c0.127,-0.102 0.229,-0.231 0.357,-0.333Zm-49.596,11.38c-0.667,0.19 -11.155,3.589 -21.882,1.173c-0.996,-0.224 -8.377,-1.549 -15.71,-9.671c-0.535,-0.592 -1.912,-2.278 -1.915,-2.302c-0.035,-0.37 -0.034,-0.744 -0.07,-1.114c0.386,0.06 0.786,-0.096 1.172,-0.036c0.11,0.017 4.125,2.662 11.737,5.785c8.67,3.557 14.723,6.115 26.668,6.165Z" style="fill:#e8d300;"/><path d="M166.582,345l-42.774,0l0,-46.61l36.565,-0c3.935,1.794 6.157,6.633 6.209,13.62l-0,32.99Z" style="fill:#ffec30;"/><path d="M162.401,345l-33.743,0l-0,-43.851l27.534,0c3.935,1.795 6.157,6.633 6.209,13.62l0,30.231Z" style="fill:#fae303;"/><path d="M132.249,340.644c-0.081,-0.184 -0.138,-0.374 -0.136,-0.574c0.001,-0.349 0.084,-0.732 0.26,-1.047c0.22,-2.116 0.655,-4.91 0.818,-5.682c0.309,-1.461 0.696,-2.904 1.005,-4.365c1.517,4.727 1.562,4.71 1.967,6.256c0.089,0.338 0.16,0.657 0.217,0.946c1.439,-0.867 2.886,-1.721 4.204,-2.755l0.334,0.338c-1,1.249 -1.838,2.617 -2.679,3.983c0.62,0.054 1.411,0.146 2.363,0.309c1.442,0.247 6.133,1.296 6.665,1.414c0.069,0.016 0.049,0.048 0.641,0.623c-0.286,0.085 -0.378,0.516 -0.665,0.601c-0.194,0.058 -5.464,0.875 -8.965,1.172c-1.32,0.112 -2.476,0.172 -3.417,0.204c-0.222,0.067 -0.456,0.098 -0.676,0.097c-0.003,-0 -0.074,-0.029 -0.182,-0.073c-1.145,0.022 -1.803,-0 -1.811,-0c0.035,-0.481 0.04,-0.964 0.057,-1.447Zm19.831,-22.744c-0.632,-3.336 -0.664,-5.177 -2.926,-5.601c-1.251,-0.235 -2.979,-0.609 -4.938,-1.179c-2.8,-0.813 -8.462,-2.895 -8.493,-2.931c-0.142,-0.167 -0.431,-0.301 -0.403,-0.519c0.027,-0.217 0.303,-0.362 0.519,-0.403c0.987,-0.186 2,-0.199 3.003,-0.259c6.918,-0.419 10.531,-0.315 13.475,-0.069c2.944,0.246 4.477,2.545 4.654,6.201c0.096,1.983 0.191,4.53 0.258,7.728c0.125,5.999 0.073,16.219 0.045,16.475c-0.025,0.231 -0.351,0.355 -0.376,0.586c-0.075,-0.219 -0.417,-0.271 -0.491,-0.49c-0.041,-0.119 -2.436,-10.476 -3.241,-14.217c-0.481,-2.235 -0.829,-3.964 -1.086,-5.322Z" style="fill:#ffec30;"/><path d="M34.85,306.728c-19.37,-0.803 -34.85,-16.782 -34.85,-36.348l0,-8.37c0,20.079 16.301,36.38 36.38,36.38l227.24,0c20.079,0 36.38,-16.301 36.38,-36.38l0,8.37c0,19.566 -15.48,35.545 -34.85,36.348c3.788,11.176 5.428,23.938 5.973,37.483c-2.424,0.517 -4.934,0.789 -7.503,0.789l-20.798,0c0,-0.054 0.001,-0.107 0.004,-0.161c0.437,-8.681 0.101,-16.708 -1.182,-23.952c-17.359,12.358 -38.504,15.82 -63.061,15.3c-0.905,-0 -20.175,-0 -28.583,-0c-8.408,-0 -27.676,-0 -28.583,-0c-24.557,0.52 -45.702,-2.942 -63.062,-15.3c-1.282,7.244 -1.618,15.271 -1.181,23.952c0.003,0.054 0.004,0.107 0.004,0.161l-20.798,0c-2.569,0 -5.079,-0.272 -7.503,-0.789c0.545,-13.545 2.185,-26.307 5.973,-37.483Zm197.148,0.032l-163.996,-0c14.546,10.475 32.497,12.785 53.199,12.338c0.023,-0 0.046,-0.001 0.069,-0.001l57.46,0c0.023,0 0.046,0.001 0.069,0.001c20.702,0.447 38.653,-1.863 53.199,-12.338Z" style="fill:#897816;fill-opacity:0.25;"/><path d="M150,332.98c-8.612,-0 -28.616,-0 -28.616,-0c-30.017,0.64 -54.824,-4.665 -73.566,-25.947c-1.947,-2.211 -1.732,-5.587 0.478,-7.534c2.211,-1.947 5.587,-1.732 7.534,0.478c16.598,18.849 38.793,22.903 65.44,22.327l57.46,0c26.647,0.576 48.842,-3.478 65.44,-22.327c1.947,-2.21 5.323,-2.425 7.534,-0.478c2.21,1.947 2.425,5.323 0.478,7.534c-18.742,21.282 -43.549,26.587 -73.566,25.947c0,-0 -20.004,-0 -28.616,-0Z" style="fill:#2f3b47;"/><path d="M150,332.98c-8.612,-0 -28.616,-0 -28.616,-0c-30.017,0.64 -54.824,-4.665 -73.566,-25.947c-1.257,-1.428 -1.613,-3.341 -1.112,-5.042c0.213,0.722 0.583,1.409 1.112,2.011c18.742,21.282 43.549,26.587 73.566,25.947c-0,-0 20.004,-0 28.616,-0c8.612,-0 28.616,-0 28.616,-0c30.017,0.64 54.824,-4.665 73.566,-25.947c0.529,-0.602 0.899,-1.289 1.112,-2.011c0.501,1.701 0.145,3.614 -1.112,5.042c-18.742,21.282 -43.549,26.587 -73.566,25.947c0,-0 -20.004,-0 -28.616,-0Z" style="fill:#202b36;"/><path d="M53.971,345l-17.591,0c-1.459,0 -2.898,-0.088 -4.314,-0.258c0.669,-17.344 3.099,-33.398 9.754,-46.352l21.694,0c-7.816,11.674 -10.498,27.627 -9.543,46.61Zm192.058,0c0.955,-18.983 -1.727,-34.936 -9.543,-46.61l21.694,0c6.655,12.954 9.085,29.008 9.754,46.352c-1.416,0.17 -2.855,0.258 -4.314,0.258l-17.591,0Z" style="fill:#161f28;"/><path d="M45.045,298.39l15.02,0c-7.816,11.674 -10.498,27.627 -9.543,46.61l-14.142,0c-0.23,0 -0.459,-0.002 -0.688,-0.007c0.8,-16.307 2.882,-32.186 9.353,-46.603Zm209.91,0c6.471,14.417 8.553,30.296 9.353,46.603c-0.229,0.005 -0.458,0.007 -0.688,0.007l-14.142,0c0.955,-18.983 -1.727,-34.936 -9.543,-46.61l15.02,0Z" style="fill:#2f3b47;"/></g></g></svg>