<?xml version="1.0" encoding="UTF-8" standalone="no"?><!DOCTYPE svg PUBLIC "-//W3C//DTD SVG 1.1//EN" "http://www.w3.org/Graphics/SVG/1.1/DTD/svg11.dtd"><svg width="100%" height="100%" viewBox="0 0 300 345" version="1.1" xmlns="http://www.w3.org/2000/svg" xmlns:xlink="http://www.w3.org/1999/xlink" xml:space="preserve" xmlns:serif="http://www.serif.com/" style="fill-rule:evenodd;clip-rule:evenodd;stroke-linejoin:round;stroke-miterlimit:2;"><g id="Robe"><g id="Robe1" serif:id="Robe"><g><path d="M150,300.602c43.13,10.472 133.577,44.398 113.62,44.398l-227.24,-0c-19.957,-0 -36.38,-16.423 -36.38,-36.38l0,-71.624c18.227,-0 42.57,12.537 68.154,25.338c24.672,12.345 47.631,29.961 81.846,38.268Z" style="fill:#e0eaff;"/><path d="M19.932,341.023c-4.057,-2.081 -7.683,-4.903 -10.693,-8.283l0,-94.824c3.418,0.632 6.99,1.571 10.693,2.755l-0,100.352Zm19.82,3.977l-3.372,0c-2.504,0 -4.953,-0.259 -7.32,-0.75l-0,-100.294c3.481,1.375 7.051,2.908 10.692,4.554l0,96.49Zm18.973,0l-10.692,0l-0,-92.623c3.517,1.687 7.085,3.446 10.692,5.242l0,87.381Zm19.927,0l-10.693,0l0,-82.763c0.065,0.033 0.13,0.065 0.195,0.097c3.522,1.763 7.008,3.632 10.498,5.566l-0,77.1Zm19.927,0l-10.693,0l0,-71.877c3.516,2.012 7.068,4.051 10.693,6.076l-0,65.801Zm19.714,0l-10.692,0l-0,-60.907c3.467,1.815 7.021,3.588 10.692,5.288l0,55.619Zm20.596,0l-10.693,0l0,-51.36c3.446,1.366 7.004,2.652 10.693,3.834l-0,47.526Zm19.608,0l-10.692,0l-0,-44.948c0.726,0.188 1.458,0.371 2.195,0.55c2.664,0.647 5.509,1.383 8.497,2.196l0,42.202Zm9.764,-39.432c45.929,13.524 112.799,39.432 95.359,39.432l-95.359,-0l0,-39.432Z" style="fill:#d3dcee;"/><path d="M105.582,321.057c-2.052,-0.118 -3.82,-0.935 -5.319,-2.414c-0.442,-0.087 -0.883,-0.176 -1.323,-0.267c-3.724,1.565 -6.636,0.514 -9.045,-2.158c-0.261,-0.071 -0.521,-0.143 -0.78,-0.215c-3.709,1.067 -6.696,0.365 -8.711,-2.724c-0.282,-0.098 -0.564,-0.198 -0.845,-0.297c-3.465,0.535 -6.336,-0.515 -8.537,-3.35c-0.452,-0.194 -0.902,-0.39 -1.35,-0.588c-3.647,0.318 -6.174,-1.126 -7.917,-3.801c-0.36,-0.187 -0.72,-0.375 -1.078,-0.564c-4.671,0.441 -6.973,-1.488 -8.084,-4.607c-0.216,-0.132 -0.431,-0.265 -0.646,-0.398c-0.067,-0.041 -0.134,-0.082 -0.2,-0.123c-3.483,0.112 -6.283,-1.326 -8.201,-4.77c-0.386,-0.211 -0.772,-0.42 -1.159,-0.628c-3.478,0.179 -6.101,-1.275 -8.032,-4.05c-0.314,-0.148 -0.629,-0.295 -0.943,-0.441c-3.377,0.22 -6.193,-0.963 -8.417,-3.624c-0.321,-0.128 -0.642,-0.255 -0.963,-0.38c-3.133,0.572 -5.794,-0.585 -8.132,-2.924c-0.602,-0.198 -1.205,-0.392 -1.809,-0.583c-3.154,0.703 -5.78,-0.252 -8.055,-2.31c-0.561,-0.144 -1.123,-0.286 -1.686,-0.424c-1.62,0.203 -3.076,-0.039 -4.35,-0.774l-0,-36.821c1.698,-2.547 6.218,-1.887 7.26,0.586c3.674,-2.181 6.839,-1.201 9.62,2.162c0.039,0.011 0.079,0.022 0.118,0.034c4.57,-1.944 7.933,-1.25 9.634,3.081c4.472,-1.516 7.792,-0.727 9.189,3.908c0.174,0.076 0.347,0.151 0.521,0.227c3.808,-1.191 6.565,0.044 8.251,3.75c0.1,0.047 0.201,0.095 0.302,0.142c4.777,-0.96 7.97,0.378 9.262,4.471l0.079,0.038c4.745,-0.986 8.375,0.344 10.248,5.101c4.32,-1.214 7.438,-0.165 8.683,4.41c5.308,-0.575 8.248,1.425 9.508,5.25c0.085,0.048 0.17,0.096 0.255,0.144c4.148,-0.652 6.966,0.585 7.896,4.506l0.305,0.175c4.318,-0.504 7.261,0.977 8.558,4.836c0.115,0.064 0.23,0.128 0.345,0.192c4.417,-0.362 7.743,0.616 8.6,4.623c0.205,0.106 0.411,0.213 0.617,0.319c4.117,-0.721 7.453,0.172 9.14,4.475c0.125,0.058 0.251,0.116 0.376,0.174c4.111,-0.905 7.219,0.275 9.137,3.925c0.084,0.033 0.167,0.066 0.251,0.099c3.986,-0.968 7.152,0.003 9.298,3.383c0.166,0.055 0.332,0.11 0.498,0.164c3.894,-1.017 7.032,-0.397 9.041,2.67c0.292,0.077 0.585,0.153 0.878,0.229c3.189,-0.84 5.956,-0.506 7.938,2.007c31.64,8.352 79.729,28.256 99.851,38.097c-35.173,0.612 -54.423,0 -91.787,0l-75.71,0c6.154,-8.53 11.454,-17.359 17.42,-23.943Z" style="fill:#c7d2e8;"/><path d="M0,236.996c1.698,-2.547 6.218,-1.888 7.26,0.586c3.674,-2.182 6.839,-1.201 9.62,2.161c0.039,0.011 0.079,0.023 0.118,0.034c4.57,-1.944 7.933,-1.25 9.634,3.081c4.472,-1.515 7.792,-0.726 9.189,3.909c0.174,0.075 0.347,0.151 0.521,0.227c3.808,-1.192 6.565,0.044 8.251,3.75c0.1,0.047 0.201,0.094 0.302,0.142c4.777,-0.961 7.97,0.377 9.262,4.47c0.026,0.013 0.052,0.026 0.079,0.039c4.745,-0.986 8.375,0.344 10.248,5.101c4.32,-1.214 7.438,-0.165 8.683,4.409c5.308,-0.574 8.248,1.426 9.508,5.25c0.085,0.048 0.17,0.096 0.255,0.145c4.148,-0.653 6.966,0.584 7.896,4.505c0.101,0.059 0.203,0.117 0.305,0.175c4.318,-0.503 7.261,0.977 8.558,4.837c0.115,0.064 0.23,0.128 0.345,0.191c4.417,-0.362 7.743,0.617 8.6,4.623c0.205,0.107 0.411,0.213 0.617,0.319c4.117,-0.72 7.453,0.173 9.14,4.475c0.125,0.058 0.251,0.116 0.376,0.174c4.111,-0.904 7.219,0.275 9.137,3.925c0.084,0.033 0.167,0.066 0.251,0.1c3.986,-0.968 7.152,0.002 9.298,3.383c0.166,0.055 0.332,0.109 0.498,0.163c3.894,-1.016 7.032,-0.397 9.041,2.671c0.292,0.076 0.585,0.153 0.878,0.228c3.189,-0.839 5.956,-0.506 7.938,2.008c31.64,8.352 81.73,26.255 101.852,36.096c-43.673,-14.587 -90.913,-16.518 -137.29,-21.557l-0.125,0.048c-3.68,1.218 -6.774,0.846 -9.279,-1.124c-0.228,-0.028 -0.455,-0.058 -0.682,-0.087c-4.163,1.475 -7.48,0.871 -10.021,-1.637c-0.442,-0.087 -0.883,-0.176 -1.323,-0.266c-3.724,1.565 -6.636,0.514 -9.045,-2.159c-0.261,-0.071 -0.521,-0.142 -0.78,-0.215c-3.709,1.068 -6.696,0.365 -8.711,-2.724c-0.282,-0.098 -0.564,-0.197 -0.845,-0.297c-3.465,0.536 -6.336,-0.514 -8.537,-3.349c-0.452,-0.194 -0.902,-0.391 -1.35,-0.589c-3.647,0.318 -6.174,-1.126 -7.917,-3.8c-0.36,-0.187 -0.72,-0.375 -1.078,-0.565c-4.671,0.441 -6.973,-1.488 -8.084,-4.607c-0.216,-0.132 -0.431,-0.264 -0.646,-0.397c-0.067,-0.042 -0.134,-0.083 -0.2,-0.124c-3.483,0.112 -6.283,-1.326 -8.201,-4.769c-0.386,-0.211 -0.772,-0.421 -1.159,-0.629c-3.478,0.179 -6.101,-1.274 -8.032,-4.049c-0.314,-0.148 -0.629,-0.295 -0.943,-0.441c-3.377,0.219 -6.193,-0.964 -8.417,-3.625c-0.321,-0.127 -0.642,-0.254 -0.963,-0.379c-3.133,0.571 -5.794,-0.585 -8.132,-2.925c-0.602,-0.198 -1.205,-0.392 -1.809,-0.583c-3.154,0.704 -5.78,-0.252 -8.055,-2.309c-0.561,-0.145 -1.123,-0.286 -1.686,-0.425c-1.62,0.203 -3.076,-0.038 -4.35,-0.774l0,-36.82Z" style="fill:#e0eaff;"/><path d="M147.244,300.247c3.75,-1.142 6.967,-0.802 9.09,2.578l-11.308,4.336l2.218,-6.914Zm-14.331,11.559l-12.668,4.858l7.733,-22.997c4.169,-1.064 7.455,-0.043 9.633,3.596l-4.698,14.543Zm-22.233,3.501c-4.674,1.781 -8.305,1 -10.989,-2.103l9.022,-28.152c4.44,-0.909 8.043,-0.087 9.768,4.613l-7.801,25.642Zm-21.097,-4.274c-4.084,1.317 -7.334,0.583 -9.429,-2.984l10.718,-33.036c4.539,-0.605 7.604,0.921 8.887,5.019l-10.176,31.001Zm-19.061,-6.919c-4.406,0.679 -7.285,-1.04 -9.158,-4.341l11.803,-34.868c5.389,-0.583 8.337,1.487 9.565,5.427l-12.21,33.782Zm-18.113,-9.429c-4.022,0.344 -7.193,-1.248 -9.225,-5.427l10.989,-33.85c4.776,-1.011 8.43,0.31 10.311,5.088l-12.075,34.189Zm-18.383,-9.904c-3.86,0.435 -7.017,-0.887 -9.429,-4.07l11.328,-33.579c4.089,-1.438 7.014,-0.189 8.751,3.799l-10.65,33.85Zm-18.926,-7.733c-3.918,1.268 -7.049,0.065 -9.701,-2.646l11.532,-34.596c4.604,-1.979 7.992,-1.3 9.701,3.052l-11.532,34.19Zm-15.1,-11.469l0,-28.583c1.698,-2.547 6.218,-1.888 7.26,0.586l-7.26,27.997Z" style="fill:#d3dcee;"/></g><g><path d="M96.157,345l167.463,0c19.957,0 36.38,-16.423 36.38,-36.38l0,-71.624c-18.227,-0 -42.57,12.537 -68.154,25.338c-24.672,12.345 -47.631,29.961 -81.846,38.268c-34.215,8.307 -47.274,34.573 -53.843,44.398Z" style="fill:#edf3ff;"/><path d="M109.935,325.31l-0,19.69l-13.778,0c2.903,-4.342 7.074,-11.895 13.778,-19.69Zm10.692,19.69l0,-30.079c2.929,-2.351 6.171,-4.592 9.764,-6.628l0,36.707l-9.764,0Zm20.457,0l-0,-41.677c2.8,-1.041 5.769,-1.957 8.916,-2.721l-0,44.398l-8.916,0Zm19.608,0l0,-47.392c3.408,-1.082 6.704,-2.253 9.903,-3.494l0,50.886l-9.903,0Zm20.596,0l-0,-55.426c3.084,-1.42 6.086,-2.892 9.022,-4.398l-0,59.824l-9.022,0Zm19.714,0l0,-65.568c3.126,-1.742 6.196,-3.495 9.235,-5.234l-0,70.802l-9.235,-0Zm19.927,-0l0,-76.867c3.073,-1.708 6.142,-3.367 9.234,-4.947l0,81.814l-9.234,-0Zm19.927,-0l-0,-87.172c2.784,-1.388 5.547,-2.754 8.28,-4.083l0,91.255l-8.28,-0Zm18.973,-0l-0,-96.3c3.097,-1.406 6.143,-2.731 9.128,-3.948l-0,99.852c-1.744,0.261 -3.526,0.396 -5.337,0.396l-3.791,-0Zm19.82,-3.765l0,-100.429c3.33,-1.079 6.555,-1.962 9.659,-2.605l-0,96.08c-2.809,2.811 -6.07,5.17 -9.659,6.954Z" style="fill:#e0eaff;"/><path d="M131.526,317.455c-9.493,3.956 -15.307,6.517 -22.226,8.601c4.001,-4.754 7.916,-6.583 14.071,-10.911c2.294,-3.617 5.753,-3.909 8.774,-3.751c0.52,-0.273 1.318,-0.474 1.852,-0.739c2.052,-2.455 4.394,-2.381 6.991,-2.005c0.745,-0.278 1.503,-0.547 2.272,-0.807c2.172,-2.47 5.025,-3.101 8.387,-2.359c0.46,-0.117 0.919,-0.236 1.375,-0.356c2.33,-2.831 5.422,-3.156 8.786,-2.588c0.155,-0.05 0.309,-0.1 0.463,-0.151c1.634,-2.501 4.102,-3.907 8.34,-2.99c0.15,-0.058 0.301,-0.117 0.451,-0.176c1.552,-3.569 4.707,-4.055 8.391,-3.524c0.145,-0.066 0.29,-0.131 0.435,-0.196c1.899,-3.968 5.365,-4.915 9.502,-4.566c0.277,-0.141 0.554,-0.282 0.83,-0.424c1.55,-3.453 4.613,-4.527 8.397,-4.469c0.064,-0.035 0.127,-0.07 0.191,-0.105c1.42,-3.847 4.602,-5.207 8.893,-5.001c0.17,-0.097 0.34,-0.194 0.51,-0.291c1.71,-3.465 4.475,-4.726 7.935,-4.532c0.177,-0.101 0.355,-0.202 0.532,-0.303c1.419,-3.258 4.258,-4.653 8.225,-4.566c0.167,-0.091 0.335,-0.182 0.503,-0.272c1.524,-3.671 4.411,-4.89 8.311,-4.285c0.242,-0.121 0.485,-0.243 0.727,-0.364c1.945,-4.254 5.489,-4.913 9.419,-4.7c0.007,-0.004 0.014,-0.007 0.021,-0.011c1.891,-4.653 5.276,-5.232 9.154,-4.465c1.679,-3.99 5.061,-4.819 9.201,-4.239c0.109,-0.049 0.218,-0.097 0.327,-0.145c1.695,-2.978 4.534,-4.311 8.75,-3.666c0.286,-0.112 0.571,-0.223 0.856,-0.333c1.756,-3.526 4.913,-4.145 8.814,-3.217c2.204,-2.92 5.441,-3.772 9.816,-2.35c2.574,-2.469 5.719,-2.422 9.198,-0.912l0,37.316c-0.34,0.014 -0.68,0.03 -1.02,0.047c-2.089,1.255 -4.179,1.13 -6.268,0.407c-0.359,0.03 -0.718,0.061 -1.077,0.093c-2.634,2.135 -5.613,2.836 -9.165,1.143c-0.262,0.043 -0.523,0.087 -0.784,0.131c-2.767,2.291 -5.678,2.999 -8.753,1.909c-0.217,0.058 -0.433,0.118 -0.649,0.178c-2.364,2.48 -5.149,3.634 -8.529,2.924c-0.384,0.159 -0.767,0.322 -1.149,0.488c-1.923,2.971 -4.735,4.165 -8.12,4.211c-0.198,0.111 -0.396,0.222 -0.594,0.332c-2.142,2.971 -5.175,4.323 -8.93,4.363c-0.427,0.183 -0.855,0.363 -1.285,0.54c-1.77,2.215 -4.519,3.256 -8.309,3.047c-0.465,0.15 -0.932,0.298 -1.4,0.444c-1.864,1.82 -4.697,2.671 -8.674,2.378c-0.263,0.063 -0.526,0.126 -0.79,0.188c-1.892,1.715 -4.657,2.355 -8.438,1.745c-0.431,0.078 -0.863,0.154 -1.295,0.23c-2.024,1.458 -4.912,2.051 -9.069,1.375c-0.532,0.07 -1.065,0.138 -1.598,0.205c-2.154,1.465 -4.746,2.01 -8.126,0.9c-0.736,0.072 -1.472,0.142 -2.208,0.21c-2.957,1.963 -6.493,2.104 -10.468,0.867c-2.653,1.589 -5.998,1.934 -10.239,0.667c-0.491,0.034 -0.98,0.068 -1.466,0.105c-2.526,1.324 -5.348,1.644 -8.502,0.837c-0.709,0.087 -1.41,0.179 -2.104,0.273c-2.591,1.356 -5.281,1.533 -8.004,1.312c-0.04,0.008 -0.081,0.016 -0.121,0.024c-3.218,2.058 -6.436,2.933 -9.654,3.023c-2.792,1.914 -5.892,2.902 -9.226,3.188l-2.46,0.068Z" style="fill:#d3dcee;"/><path d="M131.526,312.164c-9.493,3.956 -16.596,8.823 -22.226,13.892c4.001,-4.754 8.934,-9.635 15.088,-13.963c2.295,-3.618 5.007,-5.063 8.028,-4.905c0.52,-0.273 1.047,-0.542 1.581,-0.806c2.052,-2.455 4.394,-3.399 6.991,-3.023c0.745,-0.278 1.503,-0.548 2.272,-0.808c2.172,-2.469 5.025,-3.1 8.387,-2.358c0.46,-0.117 0.919,-0.236 1.375,-0.356c2.33,-2.831 5.422,-3.156 8.786,-2.588c0.155,-0.05 0.309,-0.101 0.463,-0.151c1.634,-2.501 4.102,-3.907 8.34,-2.99c0.15,-0.059 0.301,-0.117 0.451,-0.176c1.552,-3.569 4.707,-4.055 8.391,-3.525c0.145,-0.065 0.29,-0.13 0.435,-0.195c1.899,-3.968 5.365,-4.915 9.502,-4.566c0.277,-0.141 0.554,-0.282 0.83,-0.424c1.55,-3.453 4.613,-4.527 8.397,-4.469c0.064,-0.035 0.127,-0.07 0.191,-0.105c1.42,-3.847 4.602,-5.207 8.893,-5.001c0.17,-0.097 0.34,-0.194 0.51,-0.291c1.71,-3.465 4.475,-4.726 7.935,-4.533c0.177,-0.1 0.355,-0.201 0.532,-0.302c1.419,-3.259 4.258,-4.653 8.225,-4.567c0.167,-0.09 0.335,-0.181 0.503,-0.271c1.524,-3.671 4.411,-4.89 8.311,-4.285c0.242,-0.122 0.485,-0.243 0.727,-0.364c1.945,-4.254 5.489,-4.913 9.419,-4.7c0.007,-0.004 0.014,-0.007 0.021,-0.011c1.891,-4.653 5.276,-5.232 9.154,-4.465c1.679,-3.99 5.061,-4.819 9.201,-4.239c0.109,-0.049 0.218,-0.097 0.327,-0.145c1.695,-2.978 4.534,-4.311 8.75,-3.666c0.286,-0.112 0.571,-0.223 0.856,-0.333c1.756,-3.526 4.913,-4.145 8.814,-3.217c2.204,-2.92 5.441,-3.772 9.816,-2.35c2.574,-2.47 5.719,-2.423 9.198,-0.912l0,37.315c-0.34,0.015 -0.68,0.031 -1.02,0.047c-2.089,1.255 -4.179,1.131 -6.268,0.408c-0.359,0.03 -0.718,0.061 -1.077,0.093c-2.634,2.135 -5.613,2.835 -9.165,1.143c-0.262,0.043 -0.523,0.087 -0.784,0.131c-2.767,2.29 -5.678,2.999 -8.753,1.909c-0.217,0.058 -0.433,0.117 -0.649,0.178c-2.364,2.48 -5.149,3.634 -8.529,2.924c-0.384,0.159 -0.767,0.321 -1.149,0.488c-1.923,2.971 -4.735,4.165 -8.12,4.211c-0.198,0.111 -0.396,0.222 -0.594,0.332c-2.142,2.971 -5.175,4.323 -8.93,4.363c-0.427,0.183 -0.855,0.363 -1.285,0.54c-1.77,2.215 -4.519,3.256 -8.309,3.046c-0.465,0.151 -0.932,0.299 -1.4,0.445c-1.864,1.82 -4.697,2.671 -8.674,2.378c-0.263,0.063 -0.526,0.126 -0.79,0.188c-1.892,1.714 -4.657,2.355 -8.438,1.744c-0.431,0.079 -0.863,0.155 -1.295,0.231c-2.024,1.458 -4.912,2.051 -9.069,1.375c-0.532,0.07 -1.065,0.138 -1.598,0.205c-2.154,1.465 -4.746,2.01 -8.126,0.9c-0.736,0.072 -1.472,0.142 -2.208,0.21c-2.957,1.963 -6.493,2.103 -10.468,0.867c-2.653,1.589 -5.998,1.933 -10.239,0.667c-0.491,0.033 -0.98,0.068 -1.466,0.105c-2.526,1.323 -5.348,1.644 -8.502,0.837c-0.709,0.087 -1.41,0.178 -2.104,0.273c-2.591,1.356 -5.281,1.533 -8.004,1.312c-0.04,0.008 -0.081,0.016 -0.121,0.024c-3.218,2.058 -6.436,2.933 -9.654,3.022c-2.792,1.914 -5.892,2.903 -9.226,3.189l-2.46,0.068Z" style="fill:#edf3ff;"/><path d="M132.647,312.133l-1.121,0.031c-9.493,3.956 -16.596,8.823 -22.226,13.892c4.001,-4.754 8.934,-9.635 15.088,-13.963c2.295,-3.618 5.007,-5.063 8.028,-4.905c0.228,-0.12 0.457,-0.238 0.687,-0.356l-0.456,5.301Zm9.797,-9.301c0.271,-0.095 0.543,-0.188 0.816,-0.281c2.172,-2.469 5.025,-3.1 8.387,-2.358c0.311,-0.079 0.621,-0.159 0.931,-0.24l0.106,6.046c-3.131,1.96 -6.261,2.806 -9.392,2.906l-0.848,-6.073Zm19.603,-5.661c0.075,-0.024 0.15,-0.049 0.224,-0.073c1.629,-2.494 4.086,-3.898 8.3,-2.999l1.946,9.273c-0.308,0.021 -0.614,0.044 -0.92,0.067c-2.526,1.323 -5.348,1.644 -8.502,0.837c-0.327,0.04 -0.652,0.081 -0.975,0.123l-0.073,-7.228Zm17.62,-6.86c0.074,-0.033 0.148,-0.066 0.221,-0.099c1.899,-3.968 5.365,-4.915 9.502,-4.566c0.182,-0.093 0.363,-0.185 0.544,-0.278l5.073,16.316c-0.412,0.039 -0.825,0.078 -1.237,0.116c-2.957,1.963 -6.493,2.103 -10.468,0.867l-0.014,0.008l-3.621,-12.364Zm19.069,-9.624l0.072,-0.039c1.42,-3.847 4.602,-5.207 8.893,-5.001c0.091,-0.052 0.181,-0.103 0.272,-0.155l7.677,23.462c-0.293,0.053 -0.586,0.104 -0.879,0.156c-2.024,1.458 -4.912,2.051 -9.069,1.375c-0.288,0.038 -0.577,0.075 -0.865,0.112l-6.101,-19.91Zm17.746,-10.054c0.065,-0.037 0.131,-0.075 0.196,-0.112c1.419,-3.259 4.258,-4.653 8.225,-4.567l0.106,-0.057l10.134,28.3c-0.391,0.126 -0.782,0.25 -1.175,0.372c-1.864,1.82 -4.697,2.671 -8.674,2.378c-0.15,0.036 -0.3,0.072 -0.451,0.108l-8.361,-26.422Zm17.632,-9.434l0.33,-0.165c1.945,-4.254 5.489,-4.913 9.419,-4.7l0.021,-0.011c0.006,-0.013 0.011,-0.027 0.017,-0.04l10.744,29.557c-0.053,0.001 -0.106,0.002 -0.159,0.003c-0.198,0.111 -0.396,0.222 -0.594,0.332c-2.142,2.971 -5.175,4.323 -8.93,4.363c-0.21,0.09 -0.421,0.179 -0.632,0.268l-10.216,-29.607Zm18.924,-9.341c1.679,-3.99 5.061,-4.819 9.201,-4.239c0.055,-0.025 0.111,-0.05 0.167,-0.075l10.593,30.521c-0.022,-0.008 -0.044,-0.016 -0.066,-0.023c-0.217,0.058 -0.433,0.117 -0.649,0.178c-2.364,2.48 -5.149,3.634 -8.529,2.924c-0.091,0.038 -0.183,0.076 -0.275,0.114l-10.442,-29.4Zm18.57,-8.164c0.188,-0.074 0.376,-0.147 0.564,-0.219c1.756,-3.526 4.913,-4.145 8.814,-3.217l10.649,34.601c-2.634,2.135 -5.613,2.835 -9.165,1.143c-0.029,0.005 -0.058,0.01 -0.087,0.014l-10.775,-32.322Zm28.392,30.617l-9.198,-36.403c2.574,-2.47 5.719,-2.423 9.198,-0.912l-0,37.315Z" style="fill:#e0eaff;"/></g><g><path d="M0,299.283c1.394,-0.001 2.587,1.036 2.765,2.437c0.259,2.05 0.909,3.919 2.336,5.33c1.507,1.491 3.813,2.427 7.126,2.766c26.394,2.705 54.097,3.44 80.806,3.539c10.224,0.038 16.021,2.106 25.538,3.317c7.271,0.926 15.23,1.801 21.813,0.246c3.8,-0.897 7.305,-1.699 10.772,-3.101c6.361,-2.572 13.728,-2.656 21.225,-2.67c28.197,-0.053 55.259,0.689 81.561,-2.189c13.114,-1.434 24.777,-2.598 33.229,-4.497c5.039,-1.133 8.861,-2.413 10.883,-4.386c0.531,-0.518 1.233,-0.792 1.946,-0.792l0,9.337c0,5.912 -1.441,11.513 -3.988,16.47c-7.527,3.434 -19.892,5.24 -36.128,5.532c-29.784,0.534 -61.533,2.89 -92.928,3.166c-8.805,0.077 -15.389,-2.127 -22.984,-1.308c-9.24,0.995 -20.708,1.349 -31.061,3.264c-4.606,0.852 -12.873,0.523 -19.716,0.628c-10.61,0.162 -36.736,0.553 -62.793,0.387c-7.971,-0.05 -14.731,-0.868 -20.096,-2.871c-6.366,-6.565 -10.306,-15.493 -10.306,-25.268l0,-9.337Z" style="fill:#8696b4;fill-opacity:0.25;"/><path d="M5.959,328.467c-3.763,-5.723 -5.959,-12.548 -5.959,-19.847l0,-6.55c0.682,5.381 3.713,9.675 11.943,10.519c26.483,2.714 54.281,3.453 81.08,3.553c10.088,0.037 15.806,2.1 25.196,3.295c7.602,0.967 15.923,1.819 22.805,0.194c3.944,-0.932 7.578,-1.775 11.177,-3.231c6.046,-2.445 13.059,-2.453 20.185,-2.467c28.3,-0.053 55.46,0.684 81.859,-2.205c22.06,-2.413 40.048,-4.091 45.755,-9.658l0,6.55c0,4.303 -0.763,8.442 -2.161,12.287c-6.588,4.476 -19.773,6.601 -38.005,6.928c-29.776,0.535 -61.516,2.89 -92.903,3.166c-8.909,0.078 -15.572,-2.12 -23.258,-1.292c-9.301,1.002 -20.846,1.367 -31.269,3.295c-4.497,0.832 -12.571,0.479 -19.252,0.581c-10.599,0.163 -36.701,0.554 -62.732,0.388c-10.589,-0.068 -18.93,-1.424 -24.461,-5.506Z" style="fill:#f1f6ff;"/><path d="M99.209,345c-5.836,-2.842 -8.454,-6.869 -9.565,-11.362c1.306,-0.019 2.48,-0.037 3.508,-0.053c1.413,-0.021 2.888,-0.023 4.378,-0.019c0.69,0.596 1.393,1.053 2.236,1.42c2.394,1.041 4.053,-0.024 5.301,-1.437c2.84,-0.051 5.415,-0.19 7.337,-0.545c10.423,-1.928 21.968,-2.293 31.269,-3.295c7.686,-0.828 14.349,1.37 23.258,1.292c0.919,-0.008 1.839,-0.018 2.759,-0.029c1.711,3.846 3.847,6.364 8.234,7.987l7.004,2.593l-6.991,2.629c-0.774,0.291 -1.556,0.564 -2.347,0.819l-23.944,0c-2.649,-1.53 -4.977,-3.702 -6.908,-6.668c-3.776,2.243 -8.988,3.63 -14.668,4.583c-1.734,0.292 -3.444,-0.257 -5.056,-1.585c-1.204,1.363 -2.473,2.596 -3.84,3.67l-21.965,-0Zm22.865,-25.1c0.618,-1.389 1.778,-2.79 3.657,-4.128c3.437,-2.448 7.62,-4.512 11.984,-6.073c3.79,-1.357 7.065,-0.593 9.442,2.363c1.162,1.445 2.515,3.015 3.884,4.787c-3.222,1.189 -6.496,1.95 -10.017,2.782c-5.734,1.354 -12.466,0.988 -18.95,0.269Z" style="fill:#b9c6df;fill-opacity:0.25;"/><path d="M151.041,316.849c0.16,0.207 0.32,0.417 0.481,0.631c1.821,-0.175 3.679,-0.183 5.586,0.029l0.099,0.011l0.098,0.019c5.304,0.979 10.12,3.693 11.707,8.412c0.612,1.819 1.01,3.846 2.639,5c-0.92,0.011 -3.801,0.042 -4.72,0.05c-8.909,0.078 -15.572,-2.12 -23.258,-1.292c-9.301,1.002 -20.846,1.367 -31.269,3.295c-1.922,0.355 -6.164,0.494 -9.004,0.545c0.258,-0.292 1.096,-0.943 1.363,-1.214c1.881,-1.91 3.375,-3.561 4.119,-4.492c2.512,-3.145 5.334,-5.046 8.437,-5.482l0.43,-0.533c0.675,-0.69 1.64,-1.264 3.014,-1.521c0.368,-0.068 0.774,-0.117 1.209,-0.164c0.032,-0.081 0.066,-0.162 0.102,-0.243c6.484,0.719 13.216,1.085 18.95,-0.269c3.521,-0.832 6.795,-1.593 10.017,-2.782Zm-62.689,16.789c-0.114,-0.46 -0.212,-0.925 -0.296,-1.394l-0.551,-10.29l6.72,8.007c1.334,1.59 2.307,2.743 3.305,3.605c-1.49,-0.004 -2.965,-0.002 -4.378,0.019c-1.028,0.016 -3.495,0.034 -4.8,0.053Z" style="fill:#b9c6df;fill-opacity:0.25;"/><path d="M120.827,325.344c-3.774,-1.031 -6.958,0.721 -9.768,4.238c-1.823,2.282 -5.01,11.175 -12.404,7.959c-2.413,-1.049 -3.924,-2.643 -6.564,-5.788c1.064,5.939 4.892,10.893 16.022,13.247c4.652,0 8.035,0.324 11.066,-1.98c2.741,-2.084 5.035,-4.873 7.23,-8.063l-5.582,-9.613Z" style="fill:#f1f6ff;"/><path d="M122.597,339.854c-4.678,-4.911 -6.835,-9.529 -7.314,-13.951c1.703,-0.869 3.54,-1.106 5.544,-0.559l5.582,9.613c-1.22,1.774 -2.471,3.423 -3.812,4.897Z" style="fill:#9facc3;fill-opacity:0.25;"/><path d="M146.721,321.184c3.238,-0.849 6.565,-1.296 10.079,-0.905c4.202,0.776 7.167,2.98 8.424,6.719c2.589,7.697 4.834,12.021 11.732,14.575c-5.136,1.932 -10.661,3.011 -16.487,3.427c-7.189,-0.978 -12.934,-4.844 -16.125,-13.816l2.377,-10Z" style="fill:#fff;"/><path d="M146.889,336.515c-0.971,-1.533 -1.823,-3.301 -2.545,-5.331l2.377,-10c2.123,-0.557 4.284,-0.941 6.51,-1.029c7.597,10.309 5.674,15.858 -6.342,16.36Z" style="fill:#9facc3;fill-opacity:0.25;"/><path d="M124.299,322.679c-0.07,-1.546 0.878,-3.092 3.049,-4.638c3.241,-2.308 7.19,-4.246 11.306,-5.719c2.532,-0.906 4.743,-0.489 6.331,1.486c2.705,3.365 6.476,7.41 8.98,13.18c0.701,1.616 0.883,3.42 -2.003,5.039c-1.512,0.848 -3.842,0.913 -6.178,0.859c-0.105,-0.427 -0.431,-0.843 -0.993,-1.247c-4.532,-3.251 -7.829,-6.503 -10.466,-9.755c-1.203,-1.484 -5.492,-0.265 -8.593,0.517c-0.487,0.123 -0.968,0.21 -1.433,0.278Z" style="fill:#f1f6ff;"/><path d="M125.732,322.401c3.101,-0.782 7.39,-2.001 8.593,-0.517c2.637,3.252 5.934,6.504 10.466,9.755c1.693,1.215 1.236,2.544 -0.904,3.941c-3.548,2.316 -8.678,3.647 -14.278,4.587c-1.308,0.22 -2.506,-0.53 -3.683,-1.809c-2.663,-2.894 -5.242,-7.161 -6.589,-12.016c-0.447,-1.61 0.014,-2.936 1.938,-3.295c1.184,-0.221 2.779,-0.223 4.457,-0.646Z" style="fill:#fff;"/><path d="M133.902,323.083c-1.203,-1.485 -10.742,-0.239 -9.607,-0.404c0.467,-0.068 0.949,-0.155 1.437,-0.278c3.101,-0.782 7.39,-2.001 8.593,-0.517c2.637,3.252 5.934,6.504 10.466,9.755c1.16,0.833 1.311,1.718 0.603,2.643c-0.044,-0.496 -0.377,-0.979 -1.026,-1.444c-4.532,-3.252 -7.829,-6.504 -10.466,-9.755Z" style="fill:#dbdfe7;"/></g></g></g></svg>