<?xml version="1.0" encoding="UTF-8" standalone="no"?><!DOCTYPE svg PUBLIC "-//W3C//DTD SVG 1.1//EN" "http://www.w3.org/Graphics/SVG/1.1/DTD/svg11.dtd"><svg width="100%" height="100%" viewBox="0 0 300 345" version="1.1" xmlns="http://www.w3.org/2000/svg" xmlns:xlink="http://www.w3.org/1999/xlink" xml:space="preserve" xmlns:serif="http://www.serif.com/" style="fill-rule:evenodd;clip-rule:evenodd;stroke-linejoin:round;stroke-miterlimit:2;"><g id="_90s" serif:id="90s"><g><path d="M206,298.39l57.62,0c20.079,0 36.38,-16.301 36.38,-36.38l0,46.61c0,19.957 -16.423,36.38 -36.38,36.38l-227.24,0c-19.957,0 -36.38,-16.423 -36.38,-36.38l0,-46.61c0,20.079 16.301,36.38 36.38,36.38l57.62,-0c0,6.071 25.093,11 56,11c30.907,-0 56,-4.929 56,-11Z" style="fill:#f9d8ff;"/><path d="M82.586,298.39l11.414,-0c0,6.071 25.093,11 56,11c30.907,-0 56,-4.929 56,-11l11.414,-0c-1.79,9.246 -31.311,16.61 -67.414,16.61c-36.103,0 -65.624,-7.364 -67.414,-16.61Z" style="fill:#e2b4e9;"/><path d="M263.62,345l-227.24,0c-19.957,0 -36.38,-16.423 -36.38,-36.38l0,-46.61c0,20.079 16.301,36.38 36.38,36.38l54.378,0c14.74,-0.004 21.222,6.569 32.247,10.827c12.916,4.987 23.784,1.717 26.995,23.173c3.211,-21.456 14.079,-18.186 26.995,-23.173c11.025,-4.258 17.507,-10.831 32.247,-10.827l54.378,0c20.079,0 36.38,-16.301 36.38,-36.38l0,46.61c0,19.957 -16.423,36.38 -36.38,36.38Z" style="fill:#d24be9;"/><path d="M179.6,345l-33.518,0l-91.3,-46.61l35.976,0c14.74,-0.004 21.222,6.569 32.247,10.827c12.916,4.987 23.784,1.717 26.995,23.173c3.211,-21.456 14.079,-18.186 26.995,-23.173c11.025,-4.258 17.507,-10.831 32.247,-10.827l54.378,0c20.079,0 36.38,-16.301 36.38,-36.38l0,46.61c0,4.288 -0.758,8.413 -2.147,12.247l-118.253,24.133Z" style="fill:#f7ef64;"/><path d="M300,299.283l-148.739,27.117c4.26,-14.869 14.177,-12.72 25.734,-17.183c11.025,-4.258 17.507,-10.831 32.247,-10.827l54.378,-0c20.079,-0 36.38,-16.301 36.38,-36.38l0,37.273Zm-240.522,45.717l-23.098,-0c-2.741,-0 -5.415,-0.31 -7.989,-0.896l80.826,-41.466c4.475,2.093 8.635,4.589 13.788,6.579c11.582,4.472 21.518,2.305 25.762,17.282l-89.289,18.501Zm-59.419,-34.316c-0.039,-0.683 -0.059,-1.371 -0.059,-2.064l0,-46.61c0,12.25 6.068,23.095 15.36,29.689l0,18.301l-15.301,0.684Z" style="fill:#39c2e2;"/><path d="M13.793,337.054c-8.383,-6.689 -13.793,-16.979 -13.793,-28.434l0,-46.61c0,20.079 16.301,36.38 36.38,36.38l4.098,0c-13.94,11.999 -23.545,23.869 -26.685,38.664Zm272.414,-0c-3.14,-14.795 -12.745,-26.665 -26.685,-38.664l4.098,0c20.079,0 36.38,-16.301 36.38,-36.38l-0,46.61c-0,11.455 -5.41,21.745 -13.793,28.434Z" style="fill:#a145b0;"/><path d="M159,345l-18,0l0,-11.773c0.601,-10.938 -7.165,-15.016 -19,-16.227c-5.689,-0.582 -14.098,-7.112 -22,-10c-10.822,-3.954 -22.857,-6.926 -35.338,-8.61l26.096,0c14.74,-0.004 21.222,6.569 32.247,10.827c12.916,4.987 23.784,1.717 26.995,23.173c3.211,-21.456 14.079,-18.186 26.995,-23.173c11.025,-4.258 17.507,-10.831 32.247,-10.827l26.096,0c-12.481,1.684 -24.516,4.656 -35.338,8.61c-7.902,2.888 -16.311,9.418 -22,10c-11.835,1.211 -19.601,5.289 -19,16.227l-0,11.773Z" style="fill:#c92d6d;"/><path d="M0,262.057c0.025,20.057 16.317,36.333 36.38,36.333l54.378,0c14.74,-0.004 21.222,6.569 32.247,10.827c12.916,4.987 23.784,1.717 26.995,23.173c3.211,-21.456 14.079,-18.186 26.995,-23.173c11.025,-4.258 17.507,-10.831 32.247,-10.827l54.378,0c20.063,0 36.355,-16.276 36.38,-36.333c-0.006,25.258 -8.33,44.366 -30,49.943c-16.743,4.309 -32.496,5.408 -50,10c-12.472,3.272 -12.182,8.368 -10,14c-11.841,2.533 -24.317,2.146 -35,-11c-8.718,-10.728 -22.06,-7.116 -25,8c-2.94,-15.116 -15.282,-19.728 -24,-9c-10.683,13.146 -23.159,12.533 -35,10c2.182,-5.632 1.472,-8.728 -11,-12c-17.504,-4.592 -33.257,-5.691 -50,-10c-21.67,-5.577 -29.994,-24.685 -30,-49.943Z" style="fill:#5e2668;fill-opacity:0.25;"/><path d="M0,262.057c0.025,20.057 16.317,36.333 36.38,36.333l54.378,0c14.74,-0.004 21.222,6.569 32.247,10.827c12.916,4.987 23.784,1.717 26.995,23.173c3.211,-21.456 14.079,-18.186 26.995,-23.173c11.025,-4.258 17.507,-10.831 32.247,-10.827l54.378,0c20.063,0 36.355,-16.276 36.38,-36.333c-0.006,25.258 -10.33,42.366 -32,47.943c-16.743,4.309 -33.496,5.408 -51,10c-12.472,3.272 -13.182,6.368 -11,12c-11.841,2.533 -20.317,2.146 -31,-11c-8.718,-10.728 -22.06,-3.116 -25,12c-2.94,-15.116 -16.282,-22.728 -25,-12c-10.683,13.146 -19.159,13.533 -31,11c2.182,-5.632 1.472,-8.728 -11,-12c-17.504,-4.592 -34.257,-5.691 -51,-10c-21.67,-5.577 -31.994,-22.685 -32,-47.943Z" style="fill:#ff589c;"/><path d="M150,333c-2.94,-15.116 -16.282,-22.728 -25,-12c-10.683,13.146 -19.159,13.533 -31,11c1.233,-3.182 1.542,-5.554 -0.67,-7.606c7.328,0.348 14.015,-1.122 17.67,-6.394c3.508,-5.059 8.028,-7.454 12.877,-8.458c12.531,4.527 22.984,1.877 26.123,22.848c3.139,-20.971 13.592,-18.321 26.123,-22.848c4.849,1.004 9.369,3.399 12.877,8.458c3.655,5.272 10.342,6.742 17.67,6.394c-2.212,2.052 -1.903,4.424 -0.67,7.606c-11.841,2.533 -20.317,2.146 -31,-11c-8.718,-10.728 -22.06,-3.116 -25,12Zm-127.989,-37.562c4.409,1.899 9.267,2.952 14.369,2.952l14.919,0c-5.326,3.693 -9.798,7.987 -13.178,13.054c-2.041,-0.442 -4.081,-0.919 -6.121,-1.444c-6.585,-1.695 -12.122,-4.454 -16.64,-8.183c2.041,-2.505 4.258,-4.63 6.651,-6.379Zm58.77,2.952l9.977,0c8.659,-0.002 14.469,2.265 20.023,5c-4.648,-0.298 -8.162,0.614 -12.781,5.61c-7.029,7.602 -17.969,8.452 -28.129,8.081c-4.228,-0.801 -8.421,-1.493 -12.591,-2.177c4.83,-2.408 10.05,-5.276 13.72,-8.904c3.403,-3.364 6.493,-5.636 9.781,-7.61Zm197.208,-2.952c2.393,1.749 4.61,3.874 6.651,6.379c-4.518,3.729 -10.055,6.488 -16.64,8.183c-2.04,0.525 -4.08,1.002 -6.121,1.444c-3.38,-5.067 -7.852,-9.361 -13.178,-13.054l14.919,0c5.102,0 9.96,-1.053 14.369,-2.952Zm-58.77,2.952c3.288,1.974 6.378,4.246 9.781,7.61c3.67,3.628 8.89,6.496 13.72,8.904c-4.17,0.684 -8.363,1.376 -12.591,2.177c-10.16,0.371 -21.1,-0.479 -28.129,-8.081c-4.619,-4.996 -8.133,-5.908 -12.781,-5.61c5.554,-2.735 11.364,-5.002 20.023,-5l9.977,0Z" style="fill:#ff71ab;"/><path d="M150,333c-2.94,-15.116 -16.282,-22.728 -25,-12c-10.683,13.146 -19.159,13.533 -31,11c2.182,-5.632 1.472,-8.728 -11,-12c-17.504,-4.592 -34.257,-5.691 -51,-10c-21.67,-5.577 -31.994,-22.685 -32,-47.943c0.002,1.68 0.118,3.334 0.342,4.955c2.058,18.808 12.776,34.356 32.658,39.988c22.908,6.489 69.212,8.466 64,22c9.415,1.562 16.401,-0.754 22,-7.305c6.232,-7.292 12.076,-10.937 20.861,-7.211c4.875,2.456 8.502,6.967 10.139,17.906c1.637,-10.939 5.264,-15.45 10.139,-17.906c8.785,-3.726 14.629,-0.081 20.861,7.211c5.599,6.551 12.585,8.867 22,7.305c-5.212,-13.534 41.092,-15.511 64,-22c19.882,-5.632 30.6,-21.18 32.658,-39.988c0.224,-1.621 0.34,-3.275 0.342,-4.955c-0.006,25.258 -10.33,42.366 -32,47.943c-16.743,4.309 -33.496,5.408 -51,10c-12.472,3.272 -13.182,6.368 -11,12c-11.841,2.533 -20.317,2.146 -31,-11c-8.718,-10.728 -22.06,-3.116 -25,12Z" style="fill:#ea4589;"/></g></g></svg>