<?xml version="1.0" encoding="UTF-8" standalone="no"?><!DOCTYPE svg PUBLIC "-//W3C//DTD SVG 1.1//EN" "http://www.w3.org/Graphics/SVG/1.1/DTD/svg11.dtd"><svg width="100%" height="100%" viewBox="0 0 1250 1438" version="1.1" xmlns="http://www.w3.org/2000/svg" xmlns:xlink="http://www.w3.org/1999/xlink" xml:space="preserve" xmlns:serif="http://www.serif.com/" style="fill-rule:evenodd;clip-rule:evenodd;stroke-linejoin:round;stroke-miterlimit:2;"><g id="Caveman"><g id="ClothingCaveman"><path d="M1082.31,1350.85c57.682,-0.882 113.331,-3.382 156.503,-8.085c-22.677,55.338 -77.295,94.737 -140.394,94.737l-946.834,0c-72.826,0 -134.355,-52.483 -148.518,-121.378l74.203,-51.539c-7.019,-1.332 -14.905,-7.001 -23.838,-17.906c9.218,-5.454 17.69,-12.959 25.551,-22.146c21.601,11.918 46.349,18.719 72.561,18.719l416.969,0c3.195,1.157 6.364,2.322 9.506,3.494c-10.596,17.839 -24.58,30.03 -46.666,28.717c93.547,27.273 187.398,48.453 282.865,37.333c15.256,10.021 11.786,25.636 10.051,31.589c42.838,3.542 108.661,6.132 178.565,6.714c-7.077,-6.685 -8.833,-15.499 -9.208,-24.866c20.032,4.501 38.206,13.091 54.893,24.952c3.108,-0.015 6.216,-0.034 9.323,-0.057c6.048,-0.046 10.596,-3.813 14.813,-11.11c4.419,2.41 7.914,5.744 9.655,10.832Z" style="fill:#de701a;"/><g><path d="M213.482,1323.82c-3.041,13.737 -14.916,24.362 -29.648,25.187c-17.745,0.993 -32.959,-12.608 -33.953,-30.353c-0.459,-8.198 2.197,-15.856 6.938,-21.821c-5.377,-5.399 -8.871,-12.712 -9.33,-20.911c-0.993,-17.745 12.607,-32.959 30.353,-33.953c14.731,-0.824 27.718,8.408 32.273,21.721l198.644,-11.121c3.041,-13.738 14.916,-24.362 29.647,-25.187c17.746,-0.993 32.96,12.607 33.953,30.353c0.459,8.198 -2.197,15.856 -6.937,21.821c5.377,5.399 8.871,12.712 9.33,20.91c0.993,17.746 -12.608,32.96 -30.353,33.953c-14.732,0.825 -27.719,-8.408 -32.274,-21.72l-198.643,11.121Z" style="fill:#bb5d15;"/><path d="M218.659,1312.06c-3.041,13.737 -14.916,24.362 -29.648,25.187c-17.745,0.993 -32.959,-12.607 -33.953,-30.353c-0.458,-8.198 2.197,-15.856 6.938,-21.821c-5.377,-5.399 -8.871,-12.712 -9.33,-20.911c-0.993,-17.745 12.607,-32.959 30.353,-33.953c14.732,-0.824 27.718,8.408 32.273,21.721l198.644,-11.121c3.041,-13.738 14.916,-24.362 29.648,-25.187c17.745,-0.993 32.959,12.607 33.953,30.353c0.459,8.198 -2.197,15.856 -6.938,21.821c5.377,5.399 8.871,12.712 9.33,20.911c0.993,17.745 -12.607,32.959 -30.353,33.953c-14.732,0.824 -27.718,-8.408 -32.273,-21.721l-198.644,11.121Z" style="fill:#f3f1d9;"/><path d="M479.426,1284.54c0.254,1.357 0.424,2.746 0.503,4.161c0.993,17.745 -12.607,32.959 -30.353,33.953c-14.732,0.824 -27.718,-8.408 -32.273,-21.721l-198.644,11.121c-3.041,13.737 -14.916,24.362 -29.648,25.187c-17.745,0.993 -32.959,-12.607 -33.953,-30.353c-0.079,-1.415 -0.065,-2.814 0.036,-4.191c2.933,15.661 17.119,27.107 33.45,26.192c14.731,-0.824 26.606,-11.449 29.647,-25.187l198.644,-11.12c4.555,13.312 17.542,22.545 32.273,21.72c16.331,-0.914 29.151,-13.871 30.318,-29.762Z" style="fill:#d9d6b8;"/><path d="M224.63,1311.72c0.528,-8.939 -1.743,-17.412 -7.24,-25.347c-1.06,-1.529 -1.317,-3.475 -0.692,-5.227c0.625,-1.752 2.056,-3.095 3.845,-3.608c1.25,-0.359 2.504,-0.622 3.756,-0.79c-1.195,-2.618 -2.186,-5.47 -2.928,-8.606c-0.369,-1.558 -0.074,-3.199 0.814,-4.531c0.382,-0.574 0.86,-1.069 1.407,-1.466c-1.997,-4.072 -4.464,-7.622 -7.431,-10.27l14.329,-0.802c2.582,3.868 4.741,8.3 6.427,13.085c0.567,1.611 0.393,3.39 -0.478,4.859c-0.501,0.846 -1.202,1.539 -2.029,2.028c1.378,3.268 3.172,6.06 5.244,8.535c0.744,0.889 1.203,1.981 1.318,3.135c0.022,0.229 0.044,0.458 0.065,0.688c0.186,2.033 -0.717,4.014 -2.374,5.207c-1.657,1.194 -3.821,1.423 -5.692,0.604c-0.326,-0.143 -0.656,-0.273 -0.986,-0.387c3.166,7.122 4.525,14.546 4.241,22.243l-11.596,0.65Zm-9.737,-60.896c-0.322,-0.248 -0.65,-0.486 -0.984,-0.713c-1.954,-1.31 -2.925,-3.648 -2.508,-5.933c1.408,2.053 2.585,4.28 3.492,6.646Zm199.864,50.252c2.45,-4.142 4.289,-8.7 5.523,-13.435c0.48,-1.841 1.836,-3.327 3.625,-3.973c0.772,-0.279 1.581,-0.386 2.377,-0.328c0.07,-8.418 -1.478,-14.496 -4.348,-18.981c-1.138,-1.779 -1.213,-4.038 -0.197,-5.889c0.707,-1.287 1.863,-2.234 3.212,-2.69c-3.19,-2.679 -6.586,-5.454 -10.113,-7.859c-0.293,-0.2 -0.567,-0.427 -0.818,-0.677c-2.885,-2.87 -6.529,-4.911 -10.53,-5.856l10.448,-0.585c0.501,-2.264 1.242,-4.442 2.196,-6.507c2.023,1.253 3.911,2.72 5.628,4.375c7.088,4.904 13.659,11.191 19.091,15.228c1.57,1.167 2.442,3.049 2.317,5.001c-0.124,1.952 -1.229,3.708 -2.934,4.665c-1.628,0.915 -3.281,1.632 -4.955,2.17c2.364,6.953 3.262,16.002 1.867,28.01c-0.236,2.032 -1.53,3.786 -3.4,4.613c-1.555,0.688 -3.316,0.648 -4.821,-0.07c-1.704,4.298 -3.858,8.384 -6.451,12.129c-2.219,-2.812 -3.982,-6.009 -5.171,-9.484l-2.546,0.143Z" style="fill-opacity:0.25;"/></g><path d="M425.866,1289.1c-1.934,7.419 -7.716,19.18 -14.823,24.205l-186.498,10.462c2.074,-1.872 3.846,-4.19 5.325,-6.847c1.864,-12.017 -0.464,-23.336 -7.736,-33.831c4.459,-1.279 8.982,-0.988 13.155,0.841c-0.02,-0.214 -0.04,-0.428 -0.061,-0.641c-3.692,-4.411 -6.632,-9.682 -8.24,-16.474l4.485,-0.736c-3.116,-8.846 -7.949,-16.403 -14.349,-20.76c-0.037,-0.024 -0.054,-0.069 -0.042,-0.111c0.011,-0.042 0.048,-0.072 0.091,-0.076c7.089,-0.398 136.254,-7.654 179.662,-10.061c8.103,-0.455 15.766,2.625 21.253,8.084c7.181,4.897 13.832,11.302 19.32,15.38c-3.411,1.916 -6.96,2.726 -10.611,2.716c4.331,6.77 6.375,16.685 4.615,31.831l-5.546,-3.982Z" style="fill:#de701a;"/><path d="M247.027,1290.17c-0.718,-1.254 -1.503,-2.497 -2.356,-3.728c4.458,-1.279 8.981,-0.988 13.154,0.841c-0.02,-0.214 -0.04,-0.428 -0.061,-0.641c-3.692,-4.411 -6.632,-9.682 -8.24,-16.474l4.485,-0.736c-3.116,-8.846 -7.949,-16.403 -14.349,-20.76c-0.037,-0.024 -0.053,-0.069 -0.042,-0.111c0.011,-0.042 0.048,-0.072 0.091,-0.076c7.09,-0.398 94.836,-5.218 140.985,-10.061c8.072,-0.847 15.766,2.625 21.254,8.084c7.18,4.897 13.832,11.302 19.319,15.38c-3.411,1.916 -6.96,2.726 -10.611,2.716c2.576,4.027 4.343,9.166 4.982,15.857l-168.611,9.709Z" style="fill:#e97922;"/><path d="M224.397,1327.59c26.306,26.501 104.319,12.687 190.719,-7.665l-190.719,7.665Z" style="fill:#bb5d15;"/><path d="M743.86,1437.5c0.124,-4.721 0.793,-9.38 2.378,-13.881c4.095,-11.632 17.626,-15.447 28.499,-17.05c15.121,-2.23 34.454,-3.746 47.585,5.917c3.864,2.844 7.005,6.473 9.481,10.573c3.088,5.114 5.297,9.96 5.956,14.441l-93.899,-0Zm433.352,-89.856c2.783,11.626 -7.422,21.782 -19.761,27.794c-3.883,1.892 -10.948,6.101 -15.61,5.512c-4.635,-0.585 -8.941,-4.738 -12.632,-7.185c-2.346,-2.907 -14.063,-15.132 -12.765,-20.225c0.292,-1.149 0.879,-2.313 1.652,-3.462c20.424,-0.574 40.295,-1.376 59.116,-2.434Zm-155.674,-12.056c11.644,10.692 17.742,24.964 10.564,43.126c-6.401,16.197 -19.417,34.324 -38.926,33.226c-7.956,-0.448 -15.256,-4.523 -22.903,-6.385c-13.193,-3.213 -29.326,-9.363 -36.559,-21.762c-4.962,-8.506 -3.643,-21.372 -0.743,-33.965c22.293,0.632 45.836,1.069 69.861,1.269c-7.077,-6.685 -8.833,-15.499 -9.208,-24.866c9.729,2.186 19.019,5.336 27.914,9.357Zm-381.429,-32.732c4.102,7.506 7.003,16.107 9.424,24.161c2.248,7.482 7.456,22.968 0.722,29.725c-10.874,10.912 -33.667,23.724 -48.868,23.015c-7.454,-0.348 -12.69,-5.199 -17.954,-9.835c-11.757,-10.355 -25.576,-22.321 -26.116,-39.28c-0.237,-7.45 5.335,-13.213 9.418,-18.864c5.302,-7.338 10.477,-14.782 15.667,-22.206c19.209,4.96 38.441,9.463 57.707,13.284Zm-103.782,-59.606c-0.155,5.929 -4.148,14.251 -6.899,17.843c-9.655,12.609 -35.531,2.712 -40.827,-9.918c-0.813,-1.94 -0.637,-4.783 0.023,-7.925l47.703,0Zm-394.602,-0.319c-5.904,15.029 -18.158,31.287 -33.079,18.088c-2.428,-2.148 -5.123,-4.787 -5.997,-8.031c-1.454,-5.394 0.26,-11.601 2.133,-17.211c11.767,3.867 24.149,6.319 36.943,7.154Zm-45.252,130.091c-4.905,-4.097 -13.006,-10.369 -14.094,-17.408c-2.027,-13.12 10.755,-29.714 24.897,-26.143c6.752,1.705 17.803,8.254 19.566,15.799c2.667,11.411 -4.703,49.189 -30.369,27.752Zm197.515,19.589c4.081,-9.377 10.039,-32.281 21.993,-35.928c18.866,-5.756 50.287,13.159 44.008,35.513c-3.178,11.314 -21.563,29.223 -34.504,30.207c-11.957,0.908 -37.417,-16.189 -31.497,-29.792Zm175.727,15.356c2.482,-4.565 4.434,-10.416 9.169,-13.344c4.066,-2.513 9.282,-3.637 14.011,-2.752c3.797,0.71 7.217,2.169 10.442,4.287c2.133,1.402 4.177,3.113 5.661,5.21c9.905,13.994 -8.147,21.977 -19.276,23.021c-5.749,0.539 -26.801,-3.926 -20.007,-16.422Z" style="fill:#37180e;"/><path d="M3.126,1316.42c-0.02,-0.099 -0.041,-0.199 -0.061,-0.298l74.203,-51.539c-7.019,-1.332 -14.905,-7.001 -23.838,-17.906c9.218,-5.454 17.69,-12.959 25.551,-22.146c2.592,1.43 5.23,2.787 7.91,4.067c-4.302,6.944 -10.151,13.044 -18.226,17.93c5.028,9.467 15.275,15.889 28.965,20.303c-32.806,20.117 -65.608,37.558 -94.504,49.589Zm547.264,-73.17l18.121,0c3.195,1.157 6.364,2.322 9.506,3.494c-10.596,17.839 -24.58,30.03 -46.666,28.717c93.547,27.273 187.398,48.453 282.865,37.333c15.256,10.021 11.786,25.636 10.051,31.589c42.838,3.542 108.661,6.132 178.565,6.714c-7.077,-6.685 -8.833,-15.499 -9.208,-24.866c20.032,4.501 38.206,13.091 54.893,24.952c3.108,-0.015 6.216,-0.034 9.323,-0.057c6.048,-0.046 10.596,-3.813 14.813,-11.11c4.419,2.41 7.914,5.744 9.655,10.832c57.682,-0.882 113.331,-3.382 156.503,-8.085c-0.1,0.246 -0.202,0.491 -0.304,0.736c-52.93,11.858 -106.454,21.053 -157.665,19.713c2.176,-7.624 -0.551,-11.434 -6.172,-12.994c-7.591,10.31 -17.095,12.328 -27.287,11.369c-15.303,-12.323 -28.333,-20.427 -44.503,-24.948c2.49,10.279 8.77,20.084 18.191,29.496c-69.091,6.496 -153.973,0.817 -222.194,-4.872c10.899,-13.098 16.535,-25.668 10.104,-37.033c-74.91,16.396 -197.131,-8.477 -299.216,-50.026c23.843,-0.995 44.626,-11.132 52.01,-23.389l-11.385,-7.565Z" style="fill:#854a1c;fill-opacity:0.5;"/><path d="M582.402,1289.57c19.209,4.96 38.441,9.463 57.707,13.284c2.319,4.243 4.254,8.836 5.935,13.482c-23.016,-4.919 -46.431,-11.095 -69.573,-18.282c1.98,-2.826 3.954,-5.657 5.931,-8.484Zm350.569,60.256c22.293,0.632 45.836,1.069 69.861,1.269c-7.077,-6.685 -8.833,-15.499 -9.208,-24.866c9.729,2.186 19.019,5.336 27.914,9.357c4.778,4.388 8.622,9.378 10.999,14.992c-9.558,-6.353 -18.915,-10.938 -29.657,-13.941c2.49,10.279 8.77,20.084 18.191,29.496c-28.319,2.663 -59.291,3.28 -90.681,2.689c0.018,-5.985 1.091,-12.526 2.581,-18.996Zm185.125,0.25c20.424,-0.574 40.295,-1.376 59.116,-2.434c0.656,2.739 0.59,5.396 -0.054,7.937c-19.194,3.128 -38.319,5.509 -57.236,6.765c-2.328,-3.38 -4.014,-6.702 -3.478,-8.806c0.292,-1.149 0.879,-2.313 1.652,-3.462Z" style="fill-opacity:0.5;"/></g></g></svg>