<?xml version="1.0" encoding="UTF-8" standalone="no"?><!DOCTYPE svg PUBLIC "-//W3C//DTD SVG 1.1//EN" "http://www.w3.org/Graphics/SVG/1.1/DTD/svg11.dtd"><svg width="100%" height="100%" viewBox="0 0 1250 1438" version="1.1" xmlns="http://www.w3.org/2000/svg" xmlns:xlink="http://www.w3.org/1999/xlink" xml:space="preserve" xmlns:serif="http://www.serif.com/" style="fill-rule:evenodd;clip-rule:evenodd;stroke-linejoin:round;stroke-miterlimit:2;"><g id="Gnome"><g id="ClothingGnome"><path id="base_body_2" d="M1250,1091.71l0,194.209c0,83.156 -68.427,151.583 -151.583,151.583l-946.834,-0c-83.156,-0 -151.583,-68.427 -151.583,-151.583l0,-194.209c0,83.661 67.922,151.584 151.583,151.584l946.834,-0c83.661,-0 151.583,-67.923 151.583,-151.584Z" style="fill:#088cca;fill-rule:nonzero;"/><path d="M589.824,1437.5l0,-194.208l10.377,-0l0,194.208l-10.377,0Zm29.988,-0c-0,-0.019 -0,-0.039 -0,-0.058l-0,-5.377c-0,-2.863 2.324,-5.188 5.188,-5.188c2.864,-0 5.188,2.325 5.188,5.188l0,5.377c0,0.02 0,0.039 0,0.058l-10.376,-0Zm10.376,-194.208l0,3.995c0,2.864 -2.324,5.189 -5.188,5.189c-2.864,-0 -5.188,-2.325 -5.188,-5.189l-0,-3.995l10.376,-0Zm-10.376,58.342c-0,-2.864 2.324,-5.189 5.188,-5.189c2.864,0 5.188,2.325 5.188,5.189l0,10.869c0,2.864 -2.324,5.188 -5.188,5.188c-2.864,0 -5.188,-2.324 -5.188,-5.188l-0,-10.869Zm-0,-32.608c-0,-2.864 2.324,-5.189 5.188,-5.189c2.864,0 5.188,2.325 5.188,5.189l0,10.869c0,2.864 -2.324,5.189 -5.188,5.189c-2.864,-0 -5.188,-2.325 -5.188,-5.189l-0,-10.869Zm-0,65.216c-0,-2.864 2.324,-5.189 5.188,-5.189c2.864,0 5.188,2.325 5.188,5.189l0,10.869c0,2.863 -2.324,5.188 -5.188,5.188c-2.864,0 -5.188,-2.325 -5.188,-5.188l-0,-10.869Zm-0,32.608c-0,-2.864 2.324,-5.189 5.188,-5.189c2.864,0 5.188,2.325 5.188,5.189l0,10.869c0,2.864 -2.324,5.189 -5.188,5.189c-2.864,-0 -5.188,-2.325 -5.188,-5.189l-0,-10.869Zm-0,32.607c-0,-2.863 2.324,-5.188 5.188,-5.188c2.864,-0 5.188,2.325 5.188,5.188l0,10.87c0,2.863 -2.324,5.188 -5.188,5.188c-2.864,0 -5.188,-2.325 -5.188,-5.188l-0,-10.87Z" style="fill:#006b9e;"/><path id="base_body_21" serif:id="base_body_2" d="M43.72,1392c-26.981,-27.426 -43.72,-64.952 -43.72,-106.08l0,-194.209c0,67.706 44.485,125.104 105.797,144.534c-38.398,36.577 -62.342,88.193 -62.342,145.358c0,3.487 0.089,6.953 0.265,10.397Zm1100.48,-155.755c61.312,-19.43 105.797,-76.828 105.797,-144.534l0,194.209c0,41.128 -16.739,78.654 -43.72,106.08c0.176,-3.444 0.265,-6.91 0.265,-10.397c-0,-57.165 -23.944,-108.781 -62.342,-145.358Z" style="fill:#007bb5;fill-rule:nonzero;"/><path d="M68.291,1412.28c1.167,-1.65 3.041,-2.779 5.212,-2.922c3.822,-0.251 7.129,2.647 7.381,6.47c0.09,1.37 0.192,2.748 0.305,4.133c-4.431,-2.351 -8.735,-4.917 -12.898,-7.681Zm1100.52,7.681c0.113,-1.385 0.215,-2.763 0.305,-4.133c0.252,-3.823 3.559,-6.721 7.381,-6.47c2.171,0.143 4.045,1.272 5.212,2.922c-4.163,2.764 -8.467,5.33 -12.898,7.681Zm-55.959,-177.347c-0.274,1.238 -0.891,2.416 -1.85,3.382c-2.698,2.718 -7.096,2.733 -9.814,0.035c-0.923,-0.917 -1.852,-1.829 -2.788,-2.737l0.017,-0c4.868,-0 9.683,-0.23 14.435,-0.68Zm-961.252,0.68c-0.936,0.908 -1.865,1.82 -2.788,2.737c-2.718,2.698 -7.116,2.683 -9.814,-0.035c-0.959,-0.966 -1.576,-2.144 -1.85,-3.382c4.752,0.45 9.567,0.68 14.435,0.68l0.017,-0Zm-70.971,145.472c-0.19,3.825 -3.451,6.777 -7.276,6.586c-3.826,-0.19 -6.777,-3.45 -6.587,-7.276c0.242,-4.868 0.633,-9.644 1.167,-14.331c0.433,-3.806 3.875,-6.544 7.681,-6.111c3.805,0.434 6.543,3.875 6.11,7.681c-0.501,4.4 -0.868,8.882 -1.095,13.451Zm1068.81,-77.708c-1.996,-4.038 -4.122,-7.996 -6.371,-11.878c-1.92,-3.315 -0.787,-7.564 2.527,-9.484c3.315,-1.92 7.564,-0.788 9.484,2.527c2.402,4.146 4.672,8.373 6.803,12.686c1.697,3.434 0.287,7.6 -3.147,9.297c-3.434,1.696 -7.599,0.286 -9.296,-3.148Zm-21.332,-34.389c-2.712,-3.604 -5.531,-7.142 -8.449,-10.62c-2.462,-2.934 -2.079,-7.315 0.856,-9.777c2.934,-2.462 7.315,-2.078 9.777,0.856c3.076,3.666 6.047,7.396 8.906,11.195c2.303,3.06 1.689,7.415 -1.372,9.718c-3.06,2.303 -7.415,1.688 -9.718,-1.372Zm41.262,112.097c-0.227,-4.569 -0.594,-9.051 -1.095,-13.451c-0.433,-3.806 2.305,-7.247 6.11,-7.681c3.806,-0.433 7.248,2.305 7.681,6.111c0.534,4.687 0.925,9.463 1.167,14.331c0.19,3.826 -2.761,7.086 -6.587,7.276c-3.825,0.191 -7.086,-2.761 -7.276,-6.586Zm-1082.81,-39.927c-0.946,3.712 -4.727,5.957 -8.439,5.011c-3.711,-0.945 -5.957,-4.727 -5.011,-8.438c1.2,-4.708 2.553,-9.322 4.051,-13.845c1.205,-3.636 5.135,-5.61 8.771,-4.406c3.636,1.205 5.61,5.135 4.405,8.771c-1.397,4.217 -2.658,8.518 -3.777,12.907Zm14,-37.781c-1.697,3.434 -5.862,4.844 -9.296,3.148c-3.434,-1.697 -4.844,-5.863 -3.147,-9.297c2.131,-4.313 4.401,-8.54 6.803,-12.686c1.92,-3.315 6.169,-4.447 9.484,-2.527c3.314,1.92 4.447,6.169 2.527,9.484c-2.249,3.882 -4.375,7.84 -6.371,11.878Zm1062.88,37.781c-1.119,-4.389 -2.38,-8.69 -3.777,-12.907c-1.205,-3.636 0.769,-7.566 4.405,-8.771c3.636,-1.204 7.566,0.77 8.771,4.406c1.498,4.523 2.851,9.137 4.051,13.845c0.946,3.711 -1.3,7.493 -5.011,8.438c-3.712,0.946 -7.493,-1.299 -8.439,-5.011Zm-1041.55,-72.17c-2.303,3.06 -6.658,3.675 -9.718,1.372c-3.061,-2.303 -3.675,-6.658 -1.372,-9.718c2.859,-3.799 5.83,-7.529 8.906,-11.195c2.462,-2.934 6.843,-3.318 9.777,-0.856c2.935,2.462 3.318,6.843 0.856,9.777c-2.918,3.478 -5.737,7.016 -8.449,10.62Z" style="fill:#006b9e;"/><path d="M43.72,1392c-0.176,-3.444 -0.265,-6.91 -0.265,-10.397c0,-57.165 23.944,-108.781 62.342,-145.358c5.164,1.637 10.448,3.004 15.835,4.086l-6.262,5.964c-35.743,34.049 -58.035,82.095 -58.035,135.308c0,3.249 0.083,6.479 0.247,9.688l0.703,13.747c-5.128,-4.035 -9.993,-8.392 -14.565,-13.038Zm1148,13.038l0.703,-13.747c0.164,-3.209 0.247,-6.439 0.247,-9.688c-0,-53.213 -22.292,-101.259 -58.035,-135.308l-6.262,-5.964c5.387,-1.082 10.671,-2.449 15.835,-4.086c38.398,36.577 62.342,88.193 62.342,145.358c-0,3.487 -0.089,6.953 -0.265,10.397c-4.572,4.646 -9.437,9.003 -14.565,13.038Z" style="fill:#006b9e;"/><path id="base_body_22" serif:id="base_body_2" d="M34.38,1381.6c-14.117,-17.224 -24.544,-37.565 -30.023,-59.764l1241.29,-0c-5.479,22.199 -15.906,42.54 -30.023,59.764l-1181.24,-0Z" style="fill:#674032;fill-rule:nonzero;"/><path id="base_body_23" serif:id="base_body_2" d="M1221.88,1373.42c-1.996,2.798 -4.084,5.526 -6.26,8.181l-1181.24,-0c-2.176,-2.655 -4.264,-5.383 -6.26,-8.181l1193.76,-0Z" style="fill:#4d3026;fill-rule:nonzero;"/><rect x="199.876" y="1304.09" width="56.03" height="103.357" style="fill:#00aeff;"/><rect x="994.094" y="1304.09" width="56.03" height="103.357" style="fill:#00aeff;"/><path d="M261.612,1295.48l0,20.448c0,3.151 -2.555,5.706 -5.706,5.706l-56.03,-0c-3.152,-0 -5.706,-2.555 -5.706,-5.706l-0,-20.448c-0,-3.151 2.554,-5.706 5.706,-5.706l56.03,-0c3.151,-0 5.706,2.555 5.706,5.706Zm794.346,-0l-0,20.448c-0,3.221 -2.612,5.833 -5.834,5.833l-56.03,-0c-3.222,-0 -5.834,-2.612 -5.834,-5.833l0,-20.448c0,-3.222 2.612,-5.833 5.834,-5.833l56.03,-0c3.222,-0 5.834,2.611 5.834,5.833Z" style="fill:#38bfff;"/><path d="M261.612,1394.27l0,20.448c0,3.151 -2.555,5.705 -5.706,5.705l-56.03,0c-3.152,0 -5.706,-2.554 -5.706,-5.705l-0,-20.448c-0,-3.152 2.554,-5.706 5.706,-5.706l56.03,-0c3.151,-0 5.706,2.554 5.706,5.706Zm794.346,-0l-0,20.448c-0,3.221 -2.612,5.833 -5.834,5.833l-56.03,-0c-3.222,-0 -5.834,-2.612 -5.834,-5.833l0,-20.448c0,-3.222 2.612,-5.834 5.834,-5.834l56.03,0c3.222,0 5.834,2.612 5.834,5.834Z" style="fill:#38bfff;"/><g><path d="M690.386,1349.62c0.017,0.568 0.025,1.137 0.025,1.709c-0,25.146 -15.865,46.625 -37.396,46.625l-96.187,-0c-11.506,-0 -20.833,-9.328 -20.833,-20.834l-0,-55c-0,-11.506 9.327,-20.834 20.833,-20.834l96.187,0c21.531,0 37.396,21.479 37.396,46.625c-0,0.572 -0.008,1.141 -0.025,1.709Zm-133.558,27.5l96.187,0c11.53,0 17.04,-14.06 16.53,-27.5c0.51,-13.439 -5,-27.5 -16.53,-27.5l-96.187,-0l-0,55Z" style="fill:#95661b;"/><path d="M690.386,1343.82c0.017,0.567 0.025,1.137 0.025,1.709c-0,25.146 -15.865,46.624 -37.396,46.624l-96.187,0c-11.506,0 -20.833,-9.327 -20.833,-20.833l-0,-55.001c-0,-11.506 9.327,-20.833 20.833,-20.833l96.187,-0c21.531,-0 37.396,21.479 37.396,46.625c-0,0.571 -0.008,1.141 -0.025,1.709Zm-133.558,27.5l96.187,0c11.53,0 17.04,-14.061 16.53,-27.5c0.51,-13.44 -5,-27.501 -16.53,-27.501l-96.187,0l-0,55.001Z" style="fill:#b47c21;"/><circle cx="607.759" cy="1345.1" r="8.122" style="fill:#35211a;"/><path d="M674.732,1343.82l-0,2.102c-0,3.201 -2.599,5.8 -5.8,5.8l-60.729,-0c-3.2,-0 -5.799,-2.599 -5.799,-5.8l-0,-2.102l72.328,-0Z" style="fill:#c68924;"/><path d="M674.732,1343.82c-0,-3.201 -2.599,-5.8 -5.8,-5.8l-60.729,0c-3.2,0 -5.799,2.599 -5.799,5.8c-0,3.2 2.599,5.799 5.799,5.799l60.729,0c3.201,0 5.8,-2.599 5.8,-5.799Z" style="fill:#da9a33;"/></g></g></g></svg>