<?xml version="1.0" encoding="UTF-8" standalone="no"?><!DOCTYPE svg PUBLIC "-//W3C//DTD SVG 1.1//EN" "http://www.w3.org/Graphics/SVG/1.1/DTD/svg11.dtd"><svg width="100%" height="100%" viewBox="0 0 1250 1438" version="1.1" xmlns="http://www.w3.org/2000/svg" xmlns:xlink="http://www.w3.org/1999/xlink" xml:space="preserve" xmlns:serif="http://www.serif.com/" style="fill-rule:evenodd;clip-rule:evenodd;stroke-linejoin:round;stroke-miterlimit:2;"><g id="explorer"><g id="CloathingExplorer"><path d="M151.542,1243.25l946.875,0c83.156,0 151.583,-68.427 151.583,-151.583l0,194.25c0,83.156 -68.427,151.583 -151.583,151.583l-946.834,0c-83.156,0 -151.583,-68.427 -151.583,-151.583l-0,-194.207c-0,83.132 68.408,151.54 151.542,151.54Z" style="fill:#ebebeb;"/><path d="M543.699,1376.03l29.616,-106.724l103.37,0l29.616,106.724l-81.301,53.475l-81.301,-53.475Z" style="fill:#257bbd;"/><path d="M529.324,1243.25l191.352,0c-0,0 -15.817,24.096 -25.942,39.519c-5.16,7.862 -13.933,12.598 -23.338,12.598c-23.641,-0 -69.182,-0 -92.811,-0c-9.393,-0 -18.155,-4.73 -23.309,-12.582c-10.124,-15.423 -25.952,-39.535 -25.952,-39.535Z" style="fill:#3e99de;"/><path d="M277.356,1243.25l291.82,0c-38.732,23.006 -69.186,41.808 -107.601,61.451c-26.623,13.612 -51.917,14.023 -76.618,-0c-39.06,-22.177 -73.089,-40.55 -107.601,-61.451Zm389.545,0l291.82,0c-38.732,23.006 -69.186,41.808 -107.601,61.451c-26.623,13.612 -51.917,14.023 -76.618,-0c-39.06,-22.177 -73.089,-40.55 -107.601,-61.451Z" style="fill:#fff;"/><g><path d="M828.788,1243.25l269.629,0c83.156,0 151.583,-68.427 151.583,-151.583l0,194.25c0,83.156 -68.427,151.583 -151.583,151.583l-269.629,0l-0,-194.25Z" style="fill:#e8d1c3;fill-rule:nonzero;"/><g><path d="M1106.09,1278.58c0,-0.868 -0.704,-1.572 -1.571,-1.572l-22.902,0c-0.867,0 -1.571,0.704 -1.571,1.572l0,6.563c0,0.867 0.704,1.571 1.571,1.571l22.902,-0c0.867,-0 1.571,-0.704 1.571,-1.571l0,-6.563Z" style="fill:#c58d43;"/><path d="M1198.44,1303.4l-10.388,-10.388l-189.973,-0l-10.389,10.388l0,72.254l10.389,10.389l189.973,-0l10.388,-10.389l-0,-72.254Z" style="fill:#ddbca8;"/><path d="M1198.44,1286.69l-0,31.229c-12.315,0 -22.313,9.998 -22.313,22.313l-166.124,0c0,-12.315 -9.998,-22.313 -22.313,-22.313l0,-31.229l210.75,0Z" style="fill:#c3a28e;"/><rect x="1081.63" y="1286.69" width="22.864" height="69.877" style="fill:#c58d43;"/><path d="M1110.75,1336.24l0,6.563c0,4.316 -3.504,7.821 -7.821,7.821l-19.722,0c-4.316,0 -7.821,-3.505 -7.821,-7.821l0,-6.563c0,-4.317 3.505,-7.821 7.821,-7.821l19.722,-0c4.317,-0 7.821,3.504 7.821,7.821Zm-6.25,-0c0,-0.867 -0.704,-1.571 -1.571,-1.571l-19.722,-0c-0.867,-0 -1.571,0.704 -1.571,1.571l0,6.563c0,0.867 0.704,1.571 1.571,1.571l19.722,0c0.867,0 1.571,-0.704 1.571,-1.571l0,-6.563Z" style="fill:#b5b5b5;"/></g><g><path d="M987.69,1390.94c6.474,-0 11.801,-6.109 11.801,-13.532l0,-94.766c0,-7.424 -5.327,-13.532 -11.801,-13.532c-6.473,-0 -11.8,6.108 -11.8,13.532l-0,94.766c-0,7.423 5.327,13.532 11.8,13.532Z" style="fill:#c58d43;fill-rule:nonzero;"/><path d="M975.89,1357.93c1.356,-0.734 2.875,-1.116 4.417,-1.113l14.733,0c1.541,0.005 3.058,0.387 4.417,1.113l0,21.207c0,6.474 -5.327,11.801 -11.8,11.801c-6.474,-0 -11.801,-5.327 -11.801,-11.801l0.034,-21.207Z" style="fill:#b17729;fill-rule:nonzero;"/><path d="M978.587,1404.29l18.207,-0c0.002,-0 0.004,-0 0.006,-0c5.308,-0 9.676,-4.369 9.676,-9.677c0,-0.293 -0.013,-0.585 -0.039,-0.877l-1.72,-18.914c-0.451,-4.979 -4.677,-8.837 -9.677,-8.834l-14.767,0c-4.992,-0.002 -9.208,3.86 -9.643,8.834l-1.719,18.914c-0.027,0.292 -0.04,0.584 -0.04,0.877c-0,5.308 4.368,9.677 9.676,9.677c0.014,-0 0.027,-0 0.04,-0Z" style="fill:#c58d43;fill-rule:nonzero;"/><path d="M828.788,1437.5l-0,-193.717l269.67,0c-117.701,24.11 -200.634,81.996 -228.147,193.717l-41.523,0Z" style="fill:#e7d3c4;fill-rule:nonzero;"/><path d="M969.804,1243.78l128.654,0c-117.701,24.11 -200.634,81.996 -228.147,193.717l-41.523,-0c23.668,-93.337 69.179,-159.751 141.016,-193.717Z" style="fill:#ad917c;fill-rule:nonzero;"/><path d="M870.311,1437.5l-17.566,0l4.634,-16.133c22.147,-76.466 69.856,-128.158 137.031,-160.915c14.029,-6.178 28.454,-12.379 44.29,-17.201l59.758,-0.283c-117.701,24.11 -200.634,82.808 -228.147,194.532Z" style="fill:#b5b5b5;"/><g><g><path d="M955.524,1309.31l0.298,-0.301c1.424,-1.438 1.412,-3.761 -0.025,-5.184l-5.209,-5.159c-1.438,-1.423 -3.761,-1.412 -5.184,0.026l-7.139,7.208c-1.423,1.438 -1.412,3.761 0.026,5.184l5.209,5.159c1.437,1.423 3.76,1.412 5.184,-0.026l0.298,-0.301l1.336,1.323c-0.022,1.752 0.639,3.511 1.981,4.84c2.625,2.599 6.867,2.579 9.466,-0.046c2.6,-2.625 2.579,-6.867 -0.046,-9.466c-1.342,-1.329 -3.107,-1.974 -4.859,-1.935l-1.336,-1.322Z" style="fill:#747474;"/><path d="M956.627,1308.19l0.298,-0.301c1.424,-1.438 1.413,-3.761 -0.025,-5.184l-5.209,-5.159c-1.438,-1.423 -3.76,-1.412 -5.184,0.026l-7.138,7.208c-1.424,1.438 -1.413,3.761 0.025,5.184l5.209,5.159c1.438,1.423 3.76,1.412 5.184,-0.026l0.298,-0.301l1.336,1.323c-0.022,1.752 0.639,3.511 1.982,4.84c2.625,2.599 6.866,2.579 9.465,-0.046c2.6,-2.625 2.579,-6.867 -0.046,-9.466c-1.342,-1.329 -3.107,-1.974 -4.859,-1.935l-1.336,-1.322Z" style="fill:#929292;"/></g><g><path d="M942.512,1322.01l0.27,-0.327c1.289,-1.559 1.069,-3.872 -0.49,-5.16l-5.651,-4.671c-1.56,-1.288 -3.872,-1.069 -5.161,0.491l-6.463,7.82c-1.289,1.559 -1.069,3.872 0.491,5.161l5.651,4.67c1.559,1.289 3.871,1.069 5.16,-0.491l0.27,-0.326l1.449,1.197c0.136,1.748 0.952,3.44 2.408,4.643c2.848,2.353 7.07,1.952 9.424,-0.896c2.353,-2.847 1.952,-7.07 -0.896,-9.423c-1.456,-1.204 -3.271,-1.687 -5.013,-1.491l-1.449,-1.197Z" style="fill:#747474;"/><path d="M943.511,1320.8l0.27,-0.326c1.289,-1.56 1.069,-3.872 -0.491,-5.161l-5.651,-4.67c-1.559,-1.289 -3.872,-1.069 -5.16,0.49l-6.463,7.82c-1.289,1.56 -1.069,3.872 0.49,5.161l5.651,4.67c1.56,1.289 3.872,1.069 5.161,-0.49l0.27,-0.327l1.449,1.198c0.136,1.747 0.952,3.439 2.408,4.642c2.848,2.354 7.07,1.952 9.424,-0.895c2.353,-2.848 1.952,-7.07 -0.896,-9.424c-1.456,-1.203 -3.271,-1.686 -5.013,-1.49l-1.449,-1.198Z" style="fill:#929292;"/></g><g><path d="M930.483,1336.22l0.27,-0.326c1.288,-1.56 1.069,-3.872 -0.491,-5.161l-5.651,-4.67c-1.559,-1.289 -3.872,-1.069 -5.161,0.49l-6.462,7.821c-1.289,1.559 -1.069,3.871 0.49,5.16l5.651,4.67c1.56,1.289 3.872,1.069 5.161,-0.49l0.27,-0.327l1.449,1.198c0.135,1.747 0.952,3.439 2.408,4.642c2.847,2.354 7.07,1.953 9.423,-0.895c2.354,-2.848 1.952,-7.07 -0.895,-9.424c-1.456,-1.203 -3.272,-1.686 -5.013,-1.49l-1.449,-1.198Z" style="fill:#747474;"/><path d="M931.481,1335.01l0.27,-0.327c1.289,-1.559 1.069,-3.872 -0.49,-5.16l-5.651,-4.671c-1.56,-1.288 -3.872,-1.069 -5.161,0.491l-6.463,7.82c-1.288,1.559 -1.069,3.872 0.491,5.161l5.651,4.67c1.559,1.289 3.872,1.069 5.161,-0.491l0.269,-0.326l1.449,1.197c0.136,1.748 0.953,3.44 2.409,4.643c2.847,2.353 7.07,1.952 9.423,-0.896c2.353,-2.847 1.952,-7.07 -0.895,-9.423c-1.456,-1.203 -3.272,-1.687 -5.014,-1.491l-1.449,-1.197Z" style="fill:#929292;"/></g><g><path d="M918.369,1349.3l0.23,-0.355c1.099,-1.699 0.611,-3.97 -1.087,-5.069l-6.156,-3.982c-1.699,-1.098 -3.97,-0.611 -5.069,1.087l-5.509,8.519c-1.099,1.699 -0.612,3.97 1.087,5.069l6.155,3.981c1.699,1.099 3.97,0.612 5.069,-1.087l0.23,-0.356l1.578,1.021c0.338,1.72 1.346,3.305 2.932,4.331c3.102,2.007 7.249,1.117 9.255,-1.985c2.007,-3.102 1.117,-7.249 -1.985,-9.255c-1.586,-1.026 -3.445,-1.295 -5.152,-0.898l-1.578,-1.021Z" style="fill:#747474;"/><path d="M919.22,1347.98l0.23,-0.356c1.099,-1.699 0.612,-3.97 -1.087,-5.069l-6.156,-3.981c-1.698,-1.099 -3.969,-0.612 -5.068,1.087l-5.51,8.519c-1.099,1.698 -0.612,3.969 1.087,5.068l6.156,3.982c1.699,1.098 3.97,0.611 5.068,-1.087l0.231,-0.356l1.578,1.021c0.338,1.719 1.345,3.305 2.931,4.331c3.102,2.006 7.25,1.117 9.256,-1.985c2.006,-3.102 1.117,-7.249 -1.985,-9.256c-1.586,-1.026 -3.445,-1.294 -5.153,-0.897l-1.578,-1.021Z" style="fill:#929292;"/></g><g><path d="M907.398,1363.59l0.199,-0.374c0.948,-1.788 0.266,-4.008 -1.521,-4.956l-6.476,-3.435c-1.788,-0.948 -4.008,-0.267 -4.956,1.52l-4.754,8.963c-0.948,1.787 -0.266,4.008 1.521,4.956l6.476,3.435c1.788,0.948 4.008,0.266 4.956,-1.521l0.199,-0.374l1.66,0.881c0.485,1.684 1.626,3.176 3.295,4.061c3.263,1.731 7.318,0.487 9.049,-2.776c1.731,-3.264 0.487,-7.319 -2.777,-9.05c-1.668,-0.885 -3.544,-0.992 -5.21,-0.449l-1.661,-0.881Z" style="fill:#747474;"/><path d="M908.133,1362.2l0.198,-0.374c0.948,-1.788 0.267,-4.008 -1.52,-4.956l-6.477,-3.435c-1.787,-0.948 -4.008,-0.267 -4.956,1.52l-4.753,8.963c-0.948,1.787 -0.267,4.008 1.52,4.956l6.477,3.435c1.787,0.948 4.008,0.266 4.956,-1.521l0.198,-0.374l1.661,0.881c0.485,1.684 1.626,3.176 3.294,4.061c3.264,1.731 7.319,0.487 9.05,-2.776c1.731,-3.264 0.487,-7.319 -2.777,-9.05c-1.669,-0.885 -3.544,-0.992 -5.211,-0.449l-1.66,-0.881Z" style="fill:#929292;"/></g><g><path d="M898.249,1379.1l0.162,-0.392c0.77,-1.871 -0.124,-4.015 -1.995,-4.785l-6.78,-2.79c-1.871,-0.77 -4.015,0.124 -4.784,1.995l-3.861,9.382c-0.77,1.871 0.124,4.015 1.995,4.785l6.779,2.789c1.871,0.77 4.015,-0.124 4.785,-1.994l0.161,-0.392l1.739,0.715c0.646,1.629 1.926,3.004 3.673,3.723c3.416,1.405 7.331,-0.227 8.737,-3.643c1.406,-3.416 -0.226,-7.331 -3.643,-8.737c-1.746,-0.719 -3.623,-0.643 -5.229,0.059l-1.739,-0.715Z" style="fill:#747474;"/><path d="M898.846,1377.65l0.161,-0.392c0.77,-1.871 -0.124,-4.015 -1.995,-4.785l-6.779,-2.79c-1.871,-0.769 -4.015,0.124 -4.785,1.995l-3.86,9.382c-0.77,1.871 0.124,4.015 1.994,4.785l6.78,2.79c1.871,0.769 4.015,-0.124 4.785,-1.995l0.161,-0.392l1.738,0.715c0.647,1.629 1.927,3.004 3.674,3.723c3.416,1.406 7.331,-0.227 8.737,-3.643c1.406,-3.416 -0.227,-7.331 -3.643,-8.737c-1.747,-0.719 -3.624,-0.643 -5.23,0.059l-1.738,-0.715Z" style="fill:#929292;"/></g><g><path d="M890.329,1394.95l0.107,-0.41c0.513,-1.957 -0.66,-3.962 -2.617,-4.474l-7.092,-1.858c-1.957,-0.513 -3.962,0.66 -4.475,2.617l-2.57,9.814c-0.513,1.957 0.66,3.962 2.617,4.475l7.092,1.857c1.957,0.513 3.962,-0.66 4.474,-2.617l0.108,-0.41l1.818,0.477c0.859,1.528 2.311,2.719 4.139,3.197c3.573,0.936 7.235,-1.205 8.171,-4.779c0.936,-3.573 -1.206,-7.235 -4.779,-8.171c-1.827,-0.478 -3.678,-0.152 -5.175,0.758l-1.818,-0.476Z" style="fill:#747474;"/><path d="M890.726,1393.43l0.107,-0.409c0.513,-1.957 -0.66,-3.963 -2.617,-4.475l-7.092,-1.858c-1.957,-0.512 -3.962,0.66 -4.474,2.617l-2.571,9.814c-0.513,1.957 0.66,3.963 2.617,4.475l7.092,1.858c1.957,0.512 3.962,-0.66 4.475,-2.617l0.107,-0.41l1.818,0.476c0.859,1.528 2.312,2.719 4.139,3.198c3.574,0.936 7.235,-1.206 8.171,-4.779c0.936,-3.574 -1.205,-7.235 -4.779,-8.171c-1.827,-0.479 -3.677,-0.153 -5.175,0.758l-1.818,-0.477Z" style="fill:#929292;"/></g><g><path d="M884.567,1412.4l0.107,-0.41c0.513,-1.957 -0.66,-3.962 -2.617,-4.474l-7.092,-1.858c-1.957,-0.513 -3.962,0.66 -4.475,2.617l-2.57,9.814c-0.513,1.957 0.66,3.962 2.617,4.475l7.092,1.857c1.957,0.513 3.962,-0.66 4.474,-2.617l0.108,-0.41l1.818,0.477c0.859,1.528 2.312,2.719 4.139,3.197c3.573,0.937 7.235,-1.205 8.171,-4.779c0.936,-3.573 -1.205,-7.235 -4.779,-8.171c-1.827,-0.478 -3.677,-0.152 -5.175,0.758l-1.818,-0.476Z" style="fill:#747474;"/><path d="M884.964,1410.89l0.107,-0.41c0.513,-1.957 -0.66,-3.962 -2.617,-4.475l-7.092,-1.858c-1.957,-0.512 -3.962,0.66 -4.474,2.617l-2.571,9.814c-0.513,1.957 0.66,3.963 2.617,4.475l7.092,1.858c1.957,0.512 3.962,-0.66 4.475,-2.617l0.107,-0.41l1.818,0.476c0.859,1.528 2.312,2.719 4.139,3.198c3.574,0.936 7.235,-1.206 8.171,-4.779c0.936,-3.574 -1.205,-7.235 -4.779,-8.171c-1.827,-0.479 -3.677,-0.153 -5.175,0.758l-1.818,-0.476Z" style="fill:#929292;"/></g><g><path d="M889.699,1437.5l-28.319,0c-0.249,-0.678 -0.3,-1.437 -0.103,-2.188l2.57,-9.814c0.513,-1.957 2.518,-3.13 4.475,-2.617l7.092,1.857c1.957,0.513 3.13,2.518 2.617,4.475l-0.107,0.41l1.818,0.476c1.497,-0.911 3.348,-1.236 5.175,-0.758c3.569,0.935 5.71,4.589 4.782,8.159Z" style="fill:#747474;"/><path d="M889.498,1437.5l-12.008,0l-1.525,-0.399l-0.105,0.399l-13.034,0c-1.025,-0.886 -1.518,-2.307 -1.152,-3.705l2.571,-9.814c0.512,-1.957 2.517,-3.13 4.474,-2.617l7.092,1.858c1.957,0.512 3.13,2.517 2.617,4.474l-0.107,0.41l1.818,0.477c1.498,-0.911 3.348,-1.237 5.175,-0.759c3.574,0.937 5.715,4.598 4.779,8.172c-0.14,0.535 -0.342,1.038 -0.595,1.504Z" style="fill:#929292;"/></g></g><path d="M972.519,1298.24l2.785,-4.954c41.26,-23.554 85.854,-39.787 133.187,-50.037l-14.126,-0.283c-34.001,5.48 -92.175,23.311 -127.401,50.508l-5.521,-6.195l-10.625,10.738l11.302,11.184c1.482,1.466 3.875,1.454 5.341,-0.028l5.312,-5.368c1.466,-1.482 1.454,-3.875 -0.028,-5.341l-0.226,-0.224Z" style="fill:#d8b7a3;"/><path d="M865.548,1437.5l-8.527,0c0.017,-0.124 0.04,-0.248 0.068,-0.372c22.731,-98.943 104.263,-170.193 203.184,-193.877l20.16,-0c-0,-0 -0.708,0.329 -1.103,0.417c-118.092,26.478 -192.07,98.887 -213.782,193.832Z" style="fill:#808080;"/></g></g><g><path d="M421.212,1243.25l-269.629,0c-83.156,0 -151.583,-68.427 -151.583,-151.583l0,194.25c0,83.156 68.427,151.583 151.583,151.583l269.629,0l0,-194.25Z" style="fill:#e8d1c3;fill-rule:nonzero;"/><g><path d="M143.913,1278.58c-0,-0.868 0.704,-1.572 1.571,-1.572l22.902,0c0.867,0 1.571,0.704 1.571,1.572l-0,6.563c-0,0.867 -0.704,1.571 -1.571,1.571l-22.902,-0c-0.867,-0 -1.571,-0.704 -1.571,-1.571l-0,-6.563Z" style="fill:#c58d43;"/><path d="M51.56,1303.4l10.388,-10.388l189.973,-0l10.389,10.388l-0,72.254l-10.389,10.389l-189.973,-0l-10.388,-10.389l0,-72.254Z" style="fill:#ddbca8;"/><path d="M51.56,1286.69l0,31.229c12.315,0 22.313,9.998 22.313,22.313l166.124,0c-0,-12.315 9.998,-22.313 22.313,-22.313l-0,-31.229l-210.75,0Z" style="fill:#c3a28e;"/><rect x="145.503" y="1286.69" width="22.864" height="69.877" style="fill:#c58d43;"/><path d="M139.253,1336.24l-0,6.563c-0,4.316 3.504,7.821 7.821,7.821l19.722,0c4.316,0 7.821,-3.505 7.821,-7.821l-0,-6.563c-0,-4.317 -3.505,-7.821 -7.821,-7.821l-19.722,-0c-4.317,-0 -7.821,3.504 -7.821,7.821Zm6.25,-0c-0,-0.867 0.704,-1.571 1.571,-1.571l19.722,-0c0.867,-0 1.571,0.704 1.571,1.571l-0,6.563c-0,0.867 -0.704,1.571 -1.571,1.571l-19.722,0c-0.867,0 -1.571,-0.704 -1.571,-1.571l-0,-6.563Z" style="fill:#b5b5b5;"/></g><g><path d="M262.31,1390.94c-6.474,-0 -11.801,-6.109 -11.801,-13.532l-0,-94.766c-0,-7.424 5.327,-13.532 11.801,-13.532c6.473,-0 11.8,6.108 11.8,13.532l0,94.766c0,7.423 -5.327,13.532 -11.8,13.532Z" style="fill:#c58d43;fill-rule:nonzero;"/><path d="M274.11,1357.93c-1.356,-0.734 -2.875,-1.116 -4.417,-1.113l-14.733,0c-1.541,0.005 -3.058,0.387 -4.417,1.113l-0,21.207c-0,6.474 5.327,11.801 11.8,11.801c6.474,-0 11.801,-5.327 11.801,-11.801l-0.034,-21.207Z" style="fill:#b17729;fill-rule:nonzero;"/><path d="M271.413,1404.29l-18.207,-0c-0.002,-0 -0.004,-0 -0.006,-0c-5.308,-0 -9.676,-4.369 -9.676,-9.677c-0,-0.293 0.013,-0.585 0.039,-0.877l1.72,-18.914c0.451,-4.979 4.677,-8.837 9.677,-8.834l14.767,0c4.992,-0.002 9.208,3.86 9.643,8.834l1.719,18.914c0.027,0.292 0.04,0.584 0.04,0.877c0,5.308 -4.368,9.677 -9.676,9.677c-0.014,-0 -0.027,-0 -0.04,-0Z" style="fill:#c58d43;fill-rule:nonzero;"/><path d="M421.212,1437.5l0,-193.717l-269.67,0c117.701,24.11 200.634,81.996 228.147,193.717l41.523,0Z" style="fill:#e7d3c4;fill-rule:nonzero;"/><path d="M280.196,1243.78l-128.654,0c117.701,24.11 200.634,81.996 228.147,193.717l41.523,-0c-23.668,-93.337 -69.179,-159.751 -141.016,-193.717Z" style="fill:#ad917c;fill-rule:nonzero;"/><path d="M379.689,1437.5l17.566,0l-4.634,-16.133c-22.147,-76.466 -69.856,-128.158 -137.031,-160.915c-14.029,-6.178 -28.454,-12.379 -44.29,-17.201l-59.758,-0.283c117.701,24.11 200.634,82.808 228.147,194.532Z" style="fill:#b5b5b5;"/><g><g><path d="M294.476,1309.31l-0.298,-0.301c-1.424,-1.438 -1.412,-3.761 0.025,-5.184l5.209,-5.159c1.438,-1.423 3.761,-1.412 5.184,0.026l7.139,7.208c1.423,1.438 1.412,3.761 -0.026,5.184l-5.209,5.159c-1.437,1.423 -3.76,1.412 -5.184,-0.026l-0.298,-0.301l-1.336,1.323c0.022,1.752 -0.639,3.511 -1.981,4.84c-2.625,2.599 -6.867,2.579 -9.466,-0.046c-2.6,-2.625 -2.579,-6.867 0.046,-9.466c1.342,-1.329 3.107,-1.974 4.859,-1.935l1.336,-1.322Z" style="fill:#747474;"/><path d="M293.373,1308.19l-0.298,-0.301c-1.424,-1.438 -1.413,-3.761 0.025,-5.184l5.209,-5.159c1.438,-1.423 3.76,-1.412 5.184,0.026l7.138,7.208c1.424,1.438 1.413,3.761 -0.025,5.184l-5.209,5.159c-1.438,1.423 -3.76,1.412 -5.184,-0.026l-0.298,-0.301l-1.336,1.323c0.022,1.752 -0.639,3.511 -1.982,4.84c-2.625,2.599 -6.866,2.579 -9.465,-0.046c-2.6,-2.625 -2.579,-6.867 0.046,-9.466c1.342,-1.329 3.107,-1.974 4.859,-1.935l1.336,-1.322Z" style="fill:#929292;"/></g><g><path d="M307.488,1322.01l-0.27,-0.327c-1.289,-1.559 -1.069,-3.872 0.49,-5.16l5.651,-4.671c1.56,-1.288 3.872,-1.069 5.161,0.491l6.463,7.82c1.289,1.559 1.069,3.872 -0.491,5.161l-5.651,4.67c-1.559,1.289 -3.871,1.069 -5.16,-0.491l-0.27,-0.326l-1.449,1.197c-0.136,1.748 -0.952,3.44 -2.408,4.643c-2.848,2.353 -7.07,1.952 -9.424,-0.896c-2.353,-2.847 -1.952,-7.07 0.896,-9.423c1.456,-1.204 3.271,-1.687 5.013,-1.491l1.449,-1.197Z" style="fill:#747474;"/><path d="M306.489,1320.8l-0.27,-0.326c-1.289,-1.56 -1.069,-3.872 0.491,-5.161l5.651,-4.67c1.559,-1.289 3.872,-1.069 5.16,0.49l6.463,7.82c1.289,1.56 1.069,3.872 -0.49,5.161l-5.651,4.67c-1.56,1.289 -3.872,1.069 -5.161,-0.49l-0.27,-0.327l-1.449,1.198c-0.136,1.747 -0.952,3.439 -2.408,4.642c-2.848,2.354 -7.07,1.952 -9.424,-0.895c-2.353,-2.848 -1.952,-7.07 0.896,-9.424c1.456,-1.203 3.271,-1.686 5.013,-1.49l1.449,-1.198Z" style="fill:#929292;"/></g><g><path d="M319.517,1336.22l-0.27,-0.326c-1.288,-1.56 -1.069,-3.872 0.491,-5.161l5.651,-4.67c1.559,-1.289 3.872,-1.069 5.161,0.49l6.462,7.821c1.289,1.559 1.069,3.871 -0.49,5.16l-5.651,4.67c-1.56,1.289 -3.872,1.069 -5.161,-0.49l-0.27,-0.327l-1.449,1.198c-0.135,1.747 -0.952,3.439 -2.408,4.642c-2.847,2.354 -7.07,1.953 -9.423,-0.895c-2.354,-2.848 -1.952,-7.07 0.895,-9.424c1.456,-1.203 3.272,-1.686 5.013,-1.49l1.449,-1.198Z" style="fill:#747474;"/><path d="M318.519,1335.01l-0.27,-0.327c-1.289,-1.559 -1.069,-3.872 0.49,-5.16l5.651,-4.671c1.56,-1.288 3.872,-1.069 5.161,0.491l6.463,7.82c1.288,1.559 1.069,3.872 -0.491,5.161l-5.651,4.67c-1.559,1.289 -3.872,1.069 -5.161,-0.491l-0.269,-0.326l-1.449,1.197c-0.136,1.748 -0.953,3.44 -2.409,4.643c-2.847,2.353 -7.07,1.952 -9.423,-0.896c-2.353,-2.847 -1.952,-7.07 0.895,-9.423c1.456,-1.203 3.272,-1.687 5.014,-1.491l1.449,-1.197Z" style="fill:#929292;"/></g><g><path d="M331.631,1349.3l-0.23,-0.355c-1.099,-1.699 -0.611,-3.97 1.087,-5.069l6.156,-3.982c1.699,-1.098 3.97,-0.611 5.069,1.087l5.509,8.519c1.099,1.699 0.612,3.97 -1.087,5.069l-6.155,3.981c-1.699,1.099 -3.97,0.612 -5.069,-1.087l-0.23,-0.356l-1.578,1.021c-0.338,1.72 -1.346,3.305 -2.932,4.331c-3.102,2.007 -7.249,1.117 -9.255,-1.985c-2.007,-3.102 -1.117,-7.249 1.985,-9.255c1.586,-1.026 3.445,-1.295 5.152,-0.898l1.578,-1.021Z" style="fill:#747474;"/><path d="M330.78,1347.98l-0.23,-0.356c-1.099,-1.699 -0.612,-3.97 1.087,-5.069l6.156,-3.981c1.698,-1.099 3.969,-0.612 5.068,1.087l5.51,8.519c1.099,1.698 0.612,3.969 -1.087,5.068l-6.156,3.982c-1.699,1.098 -3.97,0.611 -5.068,-1.087l-0.231,-0.356l-1.578,1.021c-0.338,1.719 -1.345,3.305 -2.931,4.331c-3.102,2.006 -7.25,1.117 -9.256,-1.985c-2.006,-3.102 -1.117,-7.249 1.985,-9.256c1.586,-1.026 3.445,-1.294 5.153,-0.897l1.578,-1.021Z" style="fill:#929292;"/></g><g><path d="M342.602,1363.59l-0.199,-0.374c-0.948,-1.788 -0.266,-4.008 1.521,-4.956l6.476,-3.435c1.788,-0.948 4.008,-0.267 4.956,1.52l4.754,8.963c0.948,1.787 0.266,4.008 -1.521,4.956l-6.476,3.435c-1.788,0.948 -4.008,0.266 -4.956,-1.521l-0.199,-0.374l-1.66,0.881c-0.485,1.684 -1.626,3.176 -3.295,4.061c-3.263,1.731 -7.318,0.487 -9.049,-2.776c-1.731,-3.264 -0.487,-7.319 2.777,-9.05c1.668,-0.885 3.544,-0.992 5.21,-0.449l1.661,-0.881Z" style="fill:#747474;"/><path d="M341.867,1362.2l-0.198,-0.374c-0.948,-1.788 -0.267,-4.008 1.52,-4.956l6.477,-3.435c1.787,-0.948 4.008,-0.267 4.956,1.52l4.753,8.963c0.948,1.787 0.267,4.008 -1.52,4.956l-6.477,3.435c-1.787,0.948 -4.008,0.266 -4.956,-1.521l-0.198,-0.374l-1.661,0.881c-0.485,1.684 -1.626,3.176 -3.294,4.061c-3.264,1.731 -7.319,0.487 -9.05,-2.776c-1.731,-3.264 -0.487,-7.319 2.777,-9.05c1.669,-0.885 3.544,-0.992 5.211,-0.449l1.66,-0.881Z" style="fill:#929292;"/></g><g><path d="M351.751,1379.1l-0.162,-0.392c-0.77,-1.871 0.124,-4.015 1.995,-4.785l6.78,-2.79c1.871,-0.77 4.015,0.124 4.784,1.995l3.861,9.382c0.77,1.871 -0.124,4.015 -1.995,4.785l-6.779,2.789c-1.871,0.77 -4.015,-0.124 -4.785,-1.994l-0.161,-0.392l-1.739,0.715c-0.646,1.629 -1.926,3.004 -3.673,3.723c-3.416,1.405 -7.331,-0.227 -8.737,-3.643c-1.406,-3.416 0.226,-7.331 3.643,-8.737c1.746,-0.719 3.623,-0.643 5.229,0.059l1.739,-0.715Z" style="fill:#747474;"/><path d="M351.154,1377.65l-0.161,-0.392c-0.77,-1.871 0.124,-4.015 1.995,-4.785l6.779,-2.79c1.871,-0.769 4.015,0.124 4.785,1.995l3.86,9.382c0.77,1.871 -0.124,4.015 -1.994,4.785l-6.78,2.79c-1.871,0.769 -4.015,-0.124 -4.785,-1.995l-0.161,-0.392l-1.738,0.715c-0.647,1.629 -1.927,3.004 -3.674,3.723c-3.416,1.406 -7.331,-0.227 -8.737,-3.643c-1.406,-3.416 0.227,-7.331 3.643,-8.737c1.747,-0.719 3.624,-0.643 5.23,0.059l1.738,-0.715Z" style="fill:#929292;"/></g><g><path d="M359.671,1394.95l-0.107,-0.41c-0.513,-1.957 0.66,-3.962 2.617,-4.474l7.092,-1.858c1.957,-0.513 3.962,0.66 4.475,2.617l2.57,9.814c0.513,1.957 -0.66,3.962 -2.617,4.475l-7.092,1.857c-1.957,0.513 -3.962,-0.66 -4.474,-2.617l-0.108,-0.41l-1.818,0.477c-0.859,1.528 -2.311,2.719 -4.139,3.197c-3.573,0.936 -7.235,-1.205 -8.171,-4.779c-0.936,-3.573 1.206,-7.235 4.779,-8.171c1.827,-0.478 3.678,-0.152 5.175,0.758l1.818,-0.476Z" style="fill:#747474;"/><path d="M359.274,1393.43l-0.107,-0.409c-0.513,-1.957 0.66,-3.963 2.617,-4.475l7.092,-1.858c1.957,-0.512 3.962,0.66 4.474,2.617l2.571,9.814c0.513,1.957 -0.66,3.963 -2.617,4.475l-7.092,1.858c-1.957,0.512 -3.962,-0.66 -4.475,-2.617l-0.107,-0.41l-1.818,0.476c-0.859,1.528 -2.312,2.719 -4.139,3.198c-3.574,0.936 -7.235,-1.206 -8.171,-4.779c-0.936,-3.574 1.205,-7.235 4.779,-8.171c1.827,-0.479 3.677,-0.153 5.175,0.758l1.818,-0.477Z" style="fill:#929292;"/></g><g><path d="M365.433,1412.4l-0.107,-0.41c-0.513,-1.957 0.66,-3.962 2.617,-4.474l7.092,-1.858c1.957,-0.513 3.962,0.66 4.475,2.617l2.57,9.814c0.513,1.957 -0.66,3.962 -2.617,4.475l-7.092,1.857c-1.957,0.513 -3.962,-0.66 -4.474,-2.617l-0.108,-0.41l-1.818,0.477c-0.859,1.528 -2.312,2.719 -4.139,3.197c-3.573,0.937 -7.235,-1.205 -8.171,-4.779c-0.936,-3.573 1.205,-7.235 4.779,-8.171c1.827,-0.478 3.677,-0.152 5.175,0.758l1.818,-0.476Z" style="fill:#747474;"/><path d="M365.036,1410.89l-0.107,-0.41c-0.513,-1.957 0.66,-3.962 2.617,-4.475l7.092,-1.858c1.957,-0.512 3.962,0.66 4.474,2.617l2.571,9.814c0.513,1.957 -0.66,3.963 -2.617,4.475l-7.092,1.858c-1.957,0.512 -3.962,-0.66 -4.475,-2.617l-0.107,-0.41l-1.818,0.476c-0.859,1.528 -2.312,2.719 -4.139,3.198c-3.574,0.936 -7.235,-1.206 -8.171,-4.779c-0.936,-3.574 1.205,-7.235 4.779,-8.171c1.827,-0.479 3.677,-0.153 5.175,0.758l1.818,-0.476Z" style="fill:#929292;"/></g><g><path d="M360.301,1437.5l28.319,0c0.249,-0.678 0.3,-1.437 0.103,-2.188l-2.57,-9.814c-0.513,-1.957 -2.518,-3.13 -4.475,-2.617l-7.092,1.857c-1.957,0.513 -3.13,2.518 -2.617,4.475l0.107,0.41l-1.818,0.476c-1.497,-0.911 -3.348,-1.236 -5.175,-0.758c-3.569,0.935 -5.71,4.589 -4.782,8.159Z" style="fill:#747474;"/><path d="M360.502,1437.5l12.008,0l1.525,-0.399l0.105,0.399l13.034,0c1.025,-0.886 1.518,-2.307 1.152,-3.705l-2.571,-9.814c-0.512,-1.957 -2.517,-3.13 -4.474,-2.617l-7.092,1.858c-1.957,0.512 -3.13,2.517 -2.617,4.474l0.107,0.41l-1.818,0.477c-1.498,-0.911 -3.348,-1.237 -5.175,-0.759c-3.574,0.937 -5.715,4.598 -4.779,8.172c0.14,0.535 0.342,1.038 0.595,1.504Z" style="fill:#929292;"/></g></g><path d="M277.481,1298.24l-2.785,-4.954c-41.26,-23.554 -85.854,-39.787 -133.187,-50.037l14.126,-0.283c34.001,5.48 92.175,23.311 127.401,50.508l5.521,-6.195l10.625,10.738l-11.302,11.184c-1.482,1.466 -3.875,1.454 -5.341,-0.028l-5.312,-5.368c-1.466,-1.482 -1.454,-3.875 0.028,-5.341l0.226,-0.224Z" style="fill:#d8b7a3;"/><path d="M384.452,1437.5l8.527,0c-0.017,-0.124 -0.04,-0.248 -0.068,-0.372c-22.731,-98.943 -104.263,-170.193 -203.184,-193.877l-20.16,-0c0,-0 0.708,0.329 1.103,0.417c118.092,26.478 192.07,98.887 213.782,193.832Z" style="fill:#808080;"/></g></g></g></g></svg>