<?xml version="1.0" encoding="UTF-8" standalone="no"?><!DOCTYPE svg PUBLIC "-//W3C//DTD SVG 1.1//EN" "http://www.w3.org/Graphics/SVG/1.1/DTD/svg11.dtd"><svg width="100%" height="100%" viewBox="0 0 300 345" version="1.1" xmlns="http://www.w3.org/2000/svg" xmlns:xlink="http://www.w3.org/1999/xlink" xml:space="preserve" xmlns:serif="http://www.serif.com/" style="fill-rule:evenodd;clip-rule:evenodd;stroke-linejoin:round;stroke-miterlimit:2;"><g id="MailMan"><g><path d="M174.868,298.39l88.752,0c20.079,0 36.38,-16.301 36.38,-36.38l0,46.61c0,19.957 -16.423,36.38 -36.38,36.38l-227.24,0c-19.957,0 -36.38,-16.423 -36.38,-36.38l0,-46.61c0,20.079 16.301,36.38 36.38,36.38l88.752,0c4.196,4.606 13.756,7.826 24.868,7.826c11.112,0 20.672,-3.22 24.868,-7.826Z" style="fill:#c2c2c0;"/><path d="M115.249,298.39l9.883,0c4.196,4.606 13.756,7.826 24.868,7.826c11.112,0 20.672,-3.22 24.868,-7.826l9.883,0c-6.396,6.117 -19.562,12.568 -34.751,12.568c-15.189,-0 -28.355,-6.451 -34.751,-12.568Z" style="fill:#959595;"/><g><path d="M3.437,323.97c5.832,12.377 18.456,21.03 32.943,21.03l121.56,0l-0,-22.91c-0,-1.765 -0.968,-3.387 -2.52,-4.226l-36.024,-19.474l-83.016,0c-4.849,0 -9.478,-0.951 -13.71,-2.676l-7.084,20.173c-1.219,3.266 -2.87,6.101 -6.514,6.941c-1.997,0.46 -3.819,0.84 -5.635,1.142Z" style="fill:#1c518d;"/><path d="M6.686,323.355c-1.108,0.232 -2.18,0.437 -3.249,0.615c2.159,4.582 5.249,8.654 9.02,11.965l145.483,0l-0,-12.58l-151.254,0Z" style="fill:#e3e2c5;"/><path d="M149.564,345l8.376,0l-0,-22.91c-0,-1.765 -0.968,-3.387 -2.52,-4.226l-36.024,-19.474l-17.628,0l47.796,25.829l-0,20.781Zm-142.183,-14.52c4.79,0.471 7.436,-0.681 9.32,-2.031c3.178,-2.278 5.25,-5.663 6.732,-9.634c0.019,-0.051 0.038,-0.102 0.056,-0.153c-0,-0 4.456,-12.692 4.456,-12.692c0.755,-2.543 1.744,-5.874 2.263,-8.102c-2.618,-0.449 -5.142,-1.177 -7.538,-2.154l-7.084,20.173c-1.219,3.266 -2.87,6.101 -6.514,6.941c-1.997,0.46 -3.819,0.84 -5.635,1.142c1.088,2.31 2.414,4.491 3.944,6.51Z" style="fill:#1c2236;"/></g><g><path d="M296.563,323.97c-5.832,12.377 -18.456,21.03 -32.943,21.03l-121.56,0l0,-22.91c0,-1.765 0.968,-3.387 2.52,-4.226l36.024,-19.474l83.016,0c4.849,0 9.478,-0.951 13.71,-2.676l7.084,20.173c1.219,3.266 2.87,6.101 6.514,6.941c1.997,0.46 3.819,0.84 5.635,1.142Z" style="fill:#1c518d;"/><path d="M293.314,323.355c1.108,0.232 2.18,0.437 3.249,0.615c-2.159,4.582 -5.249,8.654 -9.02,11.965l-145.483,0l0,-12.58l151.254,0Z" style="fill:#e3e2c5;"/><g><rect x="205.013" y="301.995" width="45.021" height="38.974" style="fill:#1c2236;"/><rect x="205.013" y="301.995" width="45.021" height="38.974" style="fill:#e3e2c5;"/><rect x="210.504" y="307.812" width="33.908" height="21.195" style="fill:#1c518d;"/><path d="M210.504,316.706c11.771,-0.26 20.42,-3.395 23.316,-8.894l1.968,0c2.787,2.419 5.353,3.845 8.624,5.587l0,2.367c-3.669,5.552 -9.659,9.845 -16.621,13.241l-4.598,-0c-4.827,-3.382 -10.284,-6.039 -12.689,-10.627l-0,-1.674Z" style="fill:#e3e2c5;"/><path d="M210.695,318.73c-0.066,-0.116 -0.129,-0.232 -0.191,-0.35l-0,-1.674c11.771,-0.26 20.42,-3.395 23.316,-8.894l1.587,0c-0.198,3.523 -0.576,7.948 -1.054,10.597c-0.446,2.468 -1.621,2.417 -3.243,2.113c-6.511,-1.22 -13.756,-0.427 -20.415,-1.792Z" style="fill:#fafae6;"/><path d="M211.605,333.439c15.092,1.247 35.33,4.212 30.801,-2.301c-0.555,3.372 -8.959,2.212 -30.801,2.301Z" style="fill:#df5969;"/><path d="M239.268,331.138c0.432,1.616 -10.79,1.039 -24.473,-0l24.473,-0Z" style="fill:#df5969;"/><path d="M250.034,301.995l-0,38.974l-45.021,-0l0,-38.974l45.021,-0Zm-3.493,3.493l-38.035,-0c0,-0 0,31.988 0,31.988l38.035,-0l-0,-31.988Z" style="fill:#1c2236;"/></g><path d="M150.436,345l-8.376,0l0,-22.91c0,-1.765 0.968,-3.387 2.52,-4.226l36.024,-19.474l17.628,0l-47.796,25.829l0,20.781Zm142.183,-14.52c-4.79,0.471 -7.436,-0.681 -9.32,-2.031c-3.178,-2.278 -5.25,-5.663 -6.732,-9.634c-0.019,-0.051 -0.038,-0.102 -0.056,-0.153c0,-0 -4.456,-12.692 -4.456,-12.692c-0.755,-2.543 -1.744,-5.874 -2.263,-8.102c2.618,-0.449 5.142,-1.177 7.538,-2.154l7.084,20.173c1.219,3.266 2.87,6.101 6.514,6.941c1.997,0.46 3.819,0.84 5.635,1.142c-1.088,2.31 -2.414,4.491 -3.944,6.51Z" style="fill:#1c2236;"/></g></g></g></svg>