<?xml version="1.0" encoding="UTF-8" standalone="no"?><!DOCTYPE svg PUBLIC "-//W3C//DTD SVG 1.1//EN" "http://www.w3.org/Graphics/SVG/1.1/DTD/svg11.dtd"><svg width="100%" height="100%" viewBox="0 0 1250 1438" version="1.1" xmlns="http://www.w3.org/2000/svg" xmlns:xlink="http://www.w3.org/1999/xlink" xml:space="preserve" xmlns:serif="http://www.serif.com/" style="fill-rule:evenodd;clip-rule:evenodd;stroke-linejoin:round;stroke-miterlimit:2;"><g id="Mermaid"><g id="ClothesMermaid"><g><path id="base_body_2" d="M1250,1091.71l0,194.209c0,83.156 -68.427,151.583 -151.583,151.583l-946.834,-0c-83.156,-0 -151.583,-68.427 -151.583,-151.583l0,-194.209c0,83.661 67.922,151.584 151.583,151.584l946.834,-0c83.661,-0 151.583,-67.923 151.583,-151.584Z" style="fill:#3dce89;fill-rule:nonzero;"/><path id="base_body_21" serif:id="base_body_2" d="M-0,1136.1l0,-44.396c0,31.495 9.626,60.76 26.094,85.009c-15.391,-7.047 -26.094,-22.59 -26.094,-40.613Zm42.756,61.08c10.073,10.391 21.619,19.346 34.3,26.526c-8.139,8.593 -19.655,13.957 -32.413,13.957c-24.639,0 -44.643,-20.004 -44.643,-44.643l-0,-40.444c-0,24.007 18.991,43.614 42.756,44.604Zm1130.19,26.526c12.681,-7.18 24.227,-16.135 34.3,-26.526c23.765,-0.99 42.756,-20.597 42.756,-44.604l-0,40.444c-0,24.639 -20.004,44.643 -44.643,44.643c-12.758,0 -24.274,-5.364 -32.413,-13.957Zm77.056,46.909l-0,15.298c-0,21.499 -4.574,42.013 -12.793,60.615c-8.103,8.252 -19.383,13.373 -31.85,13.373c-24.639,0 -44.643,-20.004 -44.643,-44.643c0,24.639 -20.004,44.643 -44.643,44.643c-24.639,0 -44.642,-20.004 -44.642,-44.643c-0,24.639 -20.004,44.643 -44.643,44.643c-24.639,0 -44.643,-20.004 -44.643,-44.643c-0,24.639 -20.004,44.643 -44.643,44.643c-24.639,0 -44.643,-20.004 -44.643,-44.643c0,24.639 -20.004,44.643 -44.643,44.643c-24.639,0 -44.643,-20.004 -44.643,-44.643c0,24.639 -20.003,44.643 -44.642,44.643c-24.639,0 -44.643,-20.004 -44.643,-44.643c-0,24.639 -20.004,44.643 -44.643,44.643c-24.639,0 -44.643,-20.004 -44.643,-44.643c0,24.639 -20.004,44.643 -44.643,44.643c-24.639,0 -44.643,-20.004 -44.643,-44.643c0,24.639 -20.004,44.643 -44.643,44.643c-24.639,0 -44.642,-20.004 -44.642,-44.643c-0,24.639 -20.004,44.643 -44.643,44.643c-24.639,0 -44.643,-20.004 -44.643,-44.643c-0,24.639 -20.004,44.643 -44.643,44.643c-24.639,0 -44.643,-20.004 -44.643,-44.643c0,24.639 -20.004,44.643 -44.643,44.643c-24.639,0 -44.643,-20.004 -44.643,-44.643c0,24.639 -20.003,44.643 -44.642,44.643c-24.639,0 -44.643,-20.004 -44.643,-44.643c-0,24.639 -20.004,44.643 -44.643,44.643c-12.467,0 -23.747,-5.121 -31.85,-13.373c-8.219,-18.602 -12.793,-39.116 -12.793,-60.615l0,-15.298c0,24.639 20.004,44.643 44.643,44.643c24.639,0 44.643,-20.004 44.643,-44.643c-0,24.639 20.004,44.643 44.643,44.643c24.639,0 44.642,-20.004 44.642,-44.643c0,24.639 20.004,44.643 44.643,44.643c24.639,0 44.643,-20.004 44.643,-44.643c0,24.639 20.004,44.643 44.643,44.643c24.639,0 44.643,-20.004 44.643,-44.643c-0,24.639 20.004,44.643 44.643,44.643c24.639,0 44.643,-20.004 44.643,-44.643c-0,24.639 20.003,44.643 44.642,44.643c24.639,0 44.643,-20.004 44.643,-44.643c0,24.639 20.004,44.643 44.643,44.643c24.639,0 44.643,-20.004 44.643,-44.643c0,24.639 20.004,44.643 44.643,44.643c24.639,0 44.643,-20.004 44.643,-44.643c-0,24.639 20.004,44.643 44.643,44.643c24.639,0 44.642,-20.004 44.642,-44.643c0,24.639 20.004,44.643 44.643,44.643c24.639,0 44.643,-20.004 44.643,-44.643c0,24.639 20.004,44.643 44.643,44.643c24.639,0 44.643,-20.004 44.643,-44.643c-0,24.639 20.004,44.643 44.643,44.643c24.639,0 44.643,-20.004 44.643,-44.643c-0,24.639 20.003,44.643 44.642,44.643c24.639,0 44.643,-20.004 44.643,-44.643c0,24.639 20.004,44.643 44.643,44.643c24.639,0 44.643,-20.004 44.643,-44.643Zm-80.421,148.929c-10.422,5.607 -21.558,10.029 -33.224,13.082c14.455,-7.393 24.359,-22.435 24.359,-39.773c0,10.004 3.298,19.244 8.865,26.691Zm-59.741,17.519c-3.772,0.287 -7.581,0.433 -11.421,0.433l-71.631,-0c24.639,-0 44.643,-20.004 44.643,-44.643c-0,22.524 16.716,41.174 38.409,44.21Zm-83.052,0.433l-89.286,-0c24.639,-0 44.643,-20.004 44.643,-44.643c-0,24.639 20.004,44.643 44.643,44.643Zm-89.286,-0l-89.286,-0c24.639,-0 44.643,-20.004 44.643,-44.643c0,24.639 20.004,44.643 44.643,44.643Zm-89.286,-0l-89.285,-0c24.639,-0 44.642,-20.004 44.642,-44.643c0,24.639 20.004,44.643 44.643,44.643Zm-89.285,-0l-89.286,-0c24.639,-0 44.643,-20.004 44.643,-44.643c-0,24.639 20.004,44.643 44.643,44.643Zm-89.286,-0l-89.286,-0c24.639,-0 44.643,-20.004 44.643,-44.643c-0,24.639 20.004,44.643 44.643,44.643Zm-89.286,-0l-89.286,-0c24.639,-0 44.643,-20.004 44.643,-44.643c0,24.639 20.004,44.643 44.643,44.643Zm-89.286,-0l-89.285,-0c24.639,-0 44.643,-20.004 44.643,-44.643c-0,24.639 20.003,44.643 44.642,44.643Zm-89.285,-0l-89.286,-0c24.639,-0 44.643,-20.004 44.643,-44.643c-0,24.639 20.004,44.643 44.643,44.643Zm-89.286,-0l-89.286,-0c24.639,-0 44.643,-20.004 44.643,-44.643c0,24.639 20.004,44.643 44.643,44.643Zm-89.286,-0l-71.631,-0c-3.84,-0 -7.649,-0.146 -11.421,-0.433c21.693,-3.036 38.409,-21.686 38.409,-44.21c0,24.639 20.004,44.643 44.643,44.643Zm-109.569,-4.87c-11.666,-3.053 -22.802,-7.475 -33.224,-13.082c5.567,-7.447 8.865,-16.687 8.865,-26.691c-0,17.338 9.904,32.38 24.359,39.773Z" style="fill:#2cb273;fill-rule:nonzero;"/><path d="M-0,1152.58l-0,-16.476c-0,18.023 10.703,33.566 26.094,40.613c4.959,7.303 10.538,14.15 16.662,20.467c-23.765,-0.99 -42.756,-20.597 -42.756,-44.604Zm-0,56.92l-0,-16.476c-0,24.639 20.004,44.643 44.643,44.643c12.758,0 24.274,-5.364 32.413,-13.957c2.686,1.521 5.423,2.962 8.208,4.321c-7.044,15.401 -22.591,26.112 -40.621,26.112c-24.639,0 -44.643,-20.004 -44.643,-44.643Zm-0,61.119l-0,-16.476c-0,24.639 20.004,44.643 44.643,44.643c24.639,0 44.643,-20.004 44.643,-44.643c-0,24.639 20.004,44.643 44.643,44.643c24.639,0 44.642,-20.004 44.642,-44.643c0,24.639 20.004,44.643 44.643,44.643c24.639,0 44.643,-20.004 44.643,-44.643c0,24.639 20.004,44.643 44.643,44.643c24.639,0 44.643,-20.004 44.643,-44.643c-0,24.639 20.004,44.643 44.643,44.643c24.639,0 44.643,-20.004 44.643,-44.643c-0,24.639 20.003,44.643 44.642,44.643c24.639,0 44.643,-20.004 44.643,-44.643c0,24.639 20.004,44.643 44.643,44.643c24.639,0 44.643,-20.004 44.643,-44.643c0,24.639 20.004,44.643 44.643,44.643c24.639,0 44.643,-20.004 44.643,-44.643c-0,24.639 20.004,44.643 44.643,44.643c24.639,0 44.642,-20.004 44.642,-44.643c0,24.639 20.004,44.643 44.643,44.643c24.639,0 44.643,-20.004 44.643,-44.643c0,24.639 20.004,44.643 44.643,44.643c24.639,0 44.643,-20.004 44.643,-44.643c-0,24.639 20.004,44.643 44.643,44.643c24.639,0 44.643,-20.004 44.643,-44.643c-0,24.639 20.003,44.643 44.642,44.643c24.639,0 44.643,-20.004 44.643,-44.643c0,24.639 20.004,44.643 44.643,44.643c24.639,0 44.643,-20.004 44.643,-44.643l-0,16.476c-0,24.639 -20.004,44.643 -44.643,44.643c-24.639,0 -44.643,-20.004 -44.643,-44.643c0,24.639 -20.004,44.643 -44.643,44.643c-24.639,0 -44.642,-20.004 -44.642,-44.643c-0,24.639 -20.004,44.643 -44.643,44.643c-24.639,0 -44.643,-20.004 -44.643,-44.643c-0,24.639 -20.004,44.643 -44.643,44.643c-24.639,0 -44.643,-20.004 -44.643,-44.643c0,24.639 -20.004,44.643 -44.643,44.643c-24.639,0 -44.643,-20.004 -44.643,-44.643c0,24.639 -20.003,44.643 -44.642,44.643c-24.639,0 -44.643,-20.004 -44.643,-44.643c-0,24.639 -20.004,44.643 -44.643,44.643c-24.639,0 -44.643,-20.004 -44.643,-44.643c0,24.639 -20.004,44.643 -44.643,44.643c-24.639,0 -44.643,-20.004 -44.643,-44.643c0,24.639 -20.004,44.643 -44.643,44.643c-24.639,0 -44.642,-20.004 -44.642,-44.643c-0,24.639 -20.004,44.643 -44.643,44.643c-24.639,0 -44.643,-20.004 -44.643,-44.643c-0,24.639 -20.004,44.643 -44.643,44.643c-24.639,0 -44.643,-20.004 -44.643,-44.643c0,24.639 -20.004,44.643 -44.643,44.643c-24.639,0 -44.643,-20.004 -44.643,-44.643c0,24.639 -20.003,44.643 -44.642,44.643c-24.639,0 -44.643,-20.004 -44.643,-44.643c-0,24.639 -20.004,44.643 -44.643,44.643c-24.639,0 -44.643,-20.004 -44.643,-44.643Zm1250,-77.595l0,16.476c0,24.639 -20.004,44.643 -44.643,44.643c-18.03,0 -33.577,-10.711 -40.621,-26.112c2.785,-1.359 5.522,-2.8 8.208,-4.321c8.139,8.593 19.655,13.957 32.413,13.957c24.639,0 44.643,-20.004 44.643,-44.643Zm0,-56.92l0,16.476c0,24.007 -18.991,43.614 -42.756,44.604c6.124,-6.317 11.703,-13.164 16.662,-20.467c15.391,-7.047 26.094,-22.59 26.094,-40.613Zm-95.769,96.565c-7.837,12.871 -22.002,21.474 -38.16,21.474c-11.142,0 -21.337,-4.091 -29.162,-10.851l11.508,-0c19.705,-0 38.537,-3.768 55.814,-10.623Zm-98.283,10.623c-7.825,6.76 -18.02,10.851 -29.162,10.851c-11.143,0 -21.337,-4.091 -29.162,-10.851l58.324,-0Zm-89.286,-0c-7.825,6.76 -18.02,10.851 -29.162,10.851c-11.142,0 -21.337,-4.091 -29.162,-10.851l58.324,-0Zm-89.286,-0c-7.825,6.76 -18.019,10.851 -29.162,10.851c-11.142,0 -21.337,-4.091 -29.162,-10.851l58.324,-0Zm-89.285,-0c-7.825,6.76 -18.02,10.851 -29.162,10.851c-11.143,0 -21.337,-4.091 -29.163,-10.851l58.325,-0Zm-89.286,-0c-7.825,6.76 -18.02,10.851 -29.162,10.851c-11.143,0 -21.337,-4.091 -29.162,-10.851l58.324,-0Zm-89.286,-0c-7.825,6.76 -18.019,10.851 -29.162,10.851c-11.142,0 -21.337,-4.091 -29.162,-10.851l58.324,-0Zm-89.285,-0c-7.826,6.76 -18.02,10.851 -29.163,10.851c-11.142,0 -21.337,-4.091 -29.162,-10.851l58.325,-0Zm-89.286,-0c-7.825,6.76 -18.02,10.851 -29.162,10.851c-11.143,0 -21.337,-4.091 -29.162,-10.851l58.324,-0Zm-89.286,-0c-7.825,6.76 -18.02,10.851 -29.162,10.851c-11.142,0 -21.337,-4.091 -29.162,-10.851l58.324,-0Zm-89.286,-0c-7.825,6.76 -18.019,10.851 -29.162,10.851c-11.142,0 -21.337,-4.091 -29.162,-10.851l58.324,-0Zm-89.285,-0c-7.825,6.76 -18.02,10.851 -29.162,10.851c-16.158,0 -30.323,-8.603 -38.16,-21.474c17.277,6.855 36.109,10.623 55.814,10.623l11.508,-0Zm-150.298,103.24c8.103,8.252 19.383,13.373 31.85,13.373c24.639,0 44.643,-20.004 44.643,-44.643c-0,24.639 20.004,44.643 44.643,44.643c24.639,0 44.642,-20.004 44.642,-44.643c0,24.639 20.004,44.643 44.643,44.643c24.639,0 44.643,-20.004 44.643,-44.643c0,24.639 20.004,44.643 44.643,44.643c24.639,0 44.643,-20.004 44.643,-44.643c-0,24.639 20.004,44.643 44.643,44.643c24.639,0 44.643,-20.004 44.643,-44.643c-0,24.639 20.003,44.643 44.642,44.643c24.639,0 44.643,-20.004 44.643,-44.643c0,24.639 20.004,44.643 44.643,44.643c24.639,0 44.643,-20.004 44.643,-44.643c0,24.639 20.004,44.643 44.643,44.643c24.639,0 44.643,-20.004 44.643,-44.643c-0,24.639 20.004,44.643 44.643,44.643c24.639,0 44.642,-20.004 44.642,-44.643c0,24.639 20.004,44.643 44.643,44.643c24.639,0 44.643,-20.004 44.643,-44.643c0,24.639 20.004,44.643 44.643,44.643c24.639,0 44.643,-20.004 44.643,-44.643c-0,24.639 20.004,44.643 44.643,44.643c24.639,0 44.643,-20.004 44.643,-44.643c-0,24.639 20.003,44.643 44.642,44.643c24.639,0 44.643,-20.004 44.643,-44.643c0,24.639 20.004,44.643 44.643,44.643c12.467,0 23.747,-5.121 31.85,-13.373c-4.153,9.397 -9.235,18.306 -15.128,26.607c-5.166,2.091 -10.81,3.242 -16.722,3.242c-24.639,0 -44.643,-20.004 -44.643,-44.643c0,24.639 -20.004,44.643 -44.643,44.643c-24.639,0 -44.642,-20.004 -44.642,-44.643c-0,24.639 -20.004,44.643 -44.643,44.643c-24.639,0 -44.643,-20.004 -44.643,-44.643c-0,24.639 -20.004,44.643 -44.643,44.643c-24.639,0 -44.643,-20.004 -44.643,-44.643c0,24.639 -20.004,44.643 -44.643,44.643c-24.639,0 -44.643,-20.004 -44.643,-44.643c0,24.639 -20.003,44.643 -44.642,44.643c-24.639,0 -44.643,-20.004 -44.643,-44.643c-0,24.639 -20.004,44.643 -44.643,44.643c-24.639,0 -44.643,-20.004 -44.643,-44.643c0,24.639 -20.004,44.643 -44.643,44.643c-24.639,0 -44.643,-20.004 -44.643,-44.643c0,24.639 -20.004,44.643 -44.643,44.643c-24.639,0 -44.642,-20.004 -44.642,-44.643c-0,24.639 -20.004,44.643 -44.643,44.643c-24.639,0 -44.643,-20.004 -44.643,-44.643c-0,24.639 -20.004,44.643 -44.643,44.643c-24.639,0 -44.643,-20.004 -44.643,-44.643c0,24.639 -20.004,44.643 -44.643,44.643c-24.639,0 -44.643,-20.004 -44.643,-44.643c0,24.639 -20.003,44.643 -44.642,44.643c-24.639,0 -44.643,-20.004 -44.643,-44.643c-0,24.639 -20.004,44.643 -44.643,44.643c-5.912,0 -11.556,-1.151 -16.722,-3.242c-5.893,-8.301 -10.975,-17.21 -15.128,-26.607Zm56.999,66.73c11.766,-8.043 19.494,-21.566 19.494,-36.881c-0,24.639 20.004,44.643 44.643,44.643c24.639,-0 44.642,-20.004 44.642,-44.643c0,24.639 20.004,44.643 44.643,44.643c24.639,-0 44.643,-20.004 44.643,-44.643c0,24.639 20.004,44.643 44.643,44.643c24.639,-0 44.643,-20.004 44.643,-44.643c-0,24.639 20.004,44.643 44.643,44.643c24.639,-0 44.643,-20.004 44.643,-44.643c-0,24.639 20.003,44.643 44.642,44.643c24.639,-0 44.643,-20.004 44.643,-44.643c0,24.639 20.004,44.643 44.643,44.643c24.639,-0 44.643,-20.004 44.643,-44.643c0,24.639 20.004,44.643 44.643,44.643c24.639,-0 44.643,-20.004 44.643,-44.643c-0,24.639 20.004,44.643 44.643,44.643c24.639,-0 44.642,-20.004 44.642,-44.643c0,24.639 20.004,44.643 44.643,44.643c24.639,-0 44.643,-20.004 44.643,-44.643c0,24.639 20.004,44.643 44.643,44.643c24.639,-0 44.643,-20.004 44.643,-44.643c-0,24.639 20.004,44.643 44.643,44.643c24.639,-0 44.643,-20.004 44.643,-44.643c-0,24.639 20.003,44.643 44.642,44.643c24.639,-0 44.643,-20.004 44.643,-44.643c0,15.315 7.728,28.838 19.494,36.881c-3.451,2.234 -6.996,4.332 -10.629,6.286c-5.567,-7.447 -8.865,-16.687 -8.865,-26.691c0,17.338 -9.904,32.38 -24.359,39.773c-8.577,2.244 -17.441,3.748 -26.517,4.437c-21.693,-3.036 -38.409,-21.686 -38.409,-44.21c-0,24.639 -20.004,44.643 -44.643,44.643c-24.639,0 -44.643,-20.004 -44.643,-44.643c-0,24.639 -20.004,44.643 -44.643,44.643c-24.639,0 -44.643,-20.004 -44.643,-44.643c0,24.639 -20.004,44.643 -44.643,44.643c-24.639,0 -44.643,-20.004 -44.643,-44.643c0,24.639 -20.003,44.643 -44.642,44.643c-24.639,0 -44.643,-20.004 -44.643,-44.643c-0,24.639 -20.004,44.643 -44.643,44.643c-24.639,0 -44.643,-20.004 -44.643,-44.643c0,24.639 -20.004,44.643 -44.643,44.643c-24.639,0 -44.643,-20.004 -44.643,-44.643c0,24.639 -20.004,44.643 -44.643,44.643c-24.639,0 -44.642,-20.004 -44.642,-44.643c-0,24.639 -20.004,44.643 -44.643,44.643c-24.639,0 -44.643,-20.004 -44.643,-44.643c-0,24.639 -20.004,44.643 -44.643,44.643c-24.639,0 -44.643,-20.004 -44.643,-44.643c0,24.639 -20.004,44.643 -44.643,44.643c-24.639,0 -44.643,-20.004 -44.643,-44.643c0,22.524 -16.716,41.174 -38.409,44.21c-9.076,-0.689 -17.94,-2.193 -26.517,-4.437c-14.455,-7.393 -24.359,-22.435 -24.359,-39.773c-0,10.004 -3.298,19.244 -8.865,26.691c-3.633,-1.954 -7.178,-4.052 -10.629,-6.286Z" style="fill:url(#_Linear1);"/></g><g><g><path d="M625,1243.29c-244.512,5.044 -319.552,82.992 -473.417,50.477c-81.853,-17.297 -151.583,-89.235 -151.583,-172.896l0,-32.097c73.699,-21.866 284.96,114.071 625,154.516Z" style="fill:#156841;fill-opacity:0.25;fill-rule:nonzero;"/><path d="M625,1243.29c-244.512,5.044 -319.552,53.827 -473.417,21.312c-81.853,-17.297 -151.583,-89.235 -151.583,-172.896l0,-32.097c73.699,-21.866 284.96,143.236 625,183.681Z" style="fill:#acd3a3;fill-rule:nonzero;"/><path d="M25.796,1177.7c0.974,-41.485 25.284,-84.242 63.234,-101.269c9.403,3.589 19.359,7.601 29.867,11.954c-1.339,1.047 -2.953,1.781 -4.748,2.071c-43.827,7.079 -70.948,55.139 -67.222,97.356c0.687,7.785 2.155,15.253 4.716,22.123c-9.797,-9.832 -18.503,-20.645 -25.847,-32.235Zm95.683,77.901c-1.289,-6.316 -1.8,-12.871 -1.65,-19.563c0.776,-34.853 20.527,-73.725 38.916,-98.781c5.556,-7.57 11.821,-14.751 18.124,-21.702c0.562,-0.619 1.125,-1.238 1.69,-1.858c6.626,2.824 13.409,5.705 20.347,8.631c-2.236,2.398 -4.428,4.824 -6.605,7.223c-5.823,6.421 -11.628,13.04 -16.76,20.032c-13.623,18.562 -28.368,45.537 -33.271,71.959c-2.736,14.742 -2.333,29.363 3.812,41.809c-8.364,-2.03 -16.586,-4.629 -24.603,-7.75Zm110.327,19.555c-0.471,-5.915 -0.18,-11.962 0.732,-18.044c3.428,-22.868 15.908,-46.273 26.782,-63.505c4.601,-7.292 9.796,-14.209 14.886,-21.16c3.726,-5.089 7.427,-10.261 11.412,-15.186c6.815,2.586 13.738,5.169 20.769,7.743c-5.697,6.079 -10.46,13.042 -15.372,19.751c-4.807,6.564 -9.731,13.083 -14.076,19.969c-8.012,12.697 -17.197,29.102 -21.765,45.93c-2.282,8.405 -3.452,16.94 -2.395,25.04c-6.925,-0.029 -13.904,-0.201 -20.973,-0.538Zm115.22,-6.211c-0.126,-6.85 0.887,-14.002 2.237,-21.515c3.832,-21.329 12.176,-41.557 23.957,-59.516c6.853,2.184 13.792,4.342 20.817,6.47c-12.047,16.824 -20.577,36.182 -24.269,56.73c-0.949,5.285 -1.986,10.342 -2.15,15.177c-6.986,0.927 -13.84,1.816 -20.592,2.654Zm109.808,-14.204c1.853,-13.972 6.656,-27.277 13.73,-39.442c7.065,1.719 14.202,3.395 21.413,5.026c-6.587,9.787 -11.358,20.599 -13.645,32.053c-7.349,0.766 -14.509,1.556 -21.498,2.363Z" style="fill:#8cc37f;"/><path d="M625,1243.29c-244.512,5.044 -567.458,-171.97 -625,-151.584l0,-32.097c73.699,-21.866 284.96,143.236 625,183.681Z" style="fill:#c1d7bc;fill-rule:nonzero;"/></g><g><path d="M624.999,1243.29c244.512,5.044 319.552,82.992 473.416,50.477c81.854,-17.297 151.584,-89.235 151.584,-172.896l-0,-32.097c-73.699,-21.866 -284.96,114.071 -625,154.516Z" style="fill:#156841;fill-opacity:0.25;fill-rule:nonzero;"/><path d="M624.999,1243.29c244.512,5.044 319.552,53.827 473.416,21.312c81.854,-17.297 151.584,-89.235 151.584,-172.896l-0,-32.097c-73.699,-21.866 -284.96,143.236 -625,183.681Z" style="fill:#acd3a3;fill-rule:nonzero;"/><path d="M1224.2,1177.7c-0.973,-41.485 -25.283,-84.242 -63.233,-101.269c-9.403,3.589 -19.36,7.601 -29.867,11.954c1.339,1.047 2.952,1.781 4.747,2.071c43.828,7.079 70.949,55.139 67.223,97.356c-0.688,7.785 -2.155,15.253 -4.716,22.123c9.796,-9.832 18.502,-20.645 25.846,-32.235Zm-95.682,77.901c1.289,-6.316 1.799,-12.871 1.65,-19.563c-0.777,-34.853 -20.528,-73.725 -38.917,-98.781c-5.555,-7.57 -11.82,-14.751 -18.124,-21.702c-0.561,-0.619 -1.124,-1.238 -1.689,-1.858c-6.626,2.824 -13.409,5.705 -20.347,8.631c2.236,2.398 4.428,4.824 6.604,7.223c5.823,6.421 11.629,13.04 16.761,20.032c13.623,18.562 28.368,45.537 33.271,71.959c2.736,14.742 2.333,29.363 -3.812,41.809c8.364,-2.03 16.586,-4.629 24.603,-7.75Zm-110.328,19.555c0.472,-5.915 0.181,-11.962 -0.731,-18.044c-3.429,-22.868 -15.909,-46.273 -26.782,-63.505c-4.601,-7.292 -9.797,-14.209 -14.886,-21.16c-3.726,-5.089 -7.428,-10.261 -11.412,-15.186c-6.815,2.586 -13.738,5.169 -20.769,7.743c5.696,6.079 10.459,13.042 15.372,19.751c4.806,6.564 9.731,13.083 14.076,19.969c8.011,12.697 17.197,29.102 21.765,45.93c2.282,8.405 3.452,16.94 2.395,25.04c6.925,-0.029 13.903,-0.201 20.972,-0.538Zm-115.219,-6.211c0.125,-6.85 -0.888,-14.002 -2.237,-21.515c-3.833,-21.329 -12.176,-41.557 -23.957,-59.516c-6.854,2.184 -13.793,4.342 -20.817,6.47c12.047,16.824 20.577,36.182 24.269,56.73c0.949,5.285 1.986,10.342 2.15,15.177c6.986,0.927 13.84,1.816 20.592,2.654Zm-109.808,-14.204c-1.854,-13.972 -6.656,-27.277 -13.73,-39.442c-7.065,1.719 -14.203,3.395 -21.413,5.026c6.586,9.787 11.358,20.599 13.645,32.053c7.348,0.766 14.509,1.556 21.498,2.363Z" style="fill:#8cc37f;"/><path d="M624.999,1243.29c244.512,5.044 567.458,-171.97 625,-151.584l-0,-32.097c-73.699,-21.866 -284.96,143.236 -625,183.681Z" style="fill:#c1d7bc;fill-rule:nonzero;"/></g></g><g><path d="M1098.42,1437.5l-573.25,0c0,0 130.629,-8.676 172.753,-16.406c76.814,-14.098 128.198,-46.699 162.767,-75.037c51.074,-41.869 64.025,-99.69 75.645,-148.833c2.653,-11.221 5.219,-22.098 7.936,-32.456c87.063,-31.907 157.499,-65.252 210.916,-86.1c21.654,12.283 41.698,28.463 59.237,47.37c13.524,14.581 25.501,30.727 35.579,47.748l0,112.131c0,83.156 -68.427,151.583 -151.583,151.583Z" style="fill:#000100;fill-opacity:0.1;"/><path d="M1076.29,1174.31c-156.95,69.298 -166.878,-27.648 -210.16,-113.385c61.644,-12.109 117.215,-26.994 173.867,30.781c15.419,-54.803 61.957,-107.995 147.879,-123.646c-16.945,93.586 51.641,184.094 -111.586,206.25Z" style="fill:#addca9;fill-opacity:0.75;"/><path d="M866.127,1060.93c61.644,-12.109 117.215,-26.994 173.867,30.781c15.419,-54.803 61.957,-107.995 147.879,-123.646c-85.922,15.651 -127.122,94.348 -142.541,149.152c-56.652,-57.775 -117.561,-68.396 -179.205,-56.287Zm-0,-0c74.755,-2.136 109.633,62.267 185.528,84.807c-76.094,-11.367 -117.027,-73.313 -185.528,-84.807Zm321.746,-92.865c-25.182,64.865 -7.336,138.324 -77.235,165.567c62.307,-31.206 42.288,-108.229 77.235,-165.567Zm0,-0c-52.105,45.929 -66.814,108.79 -125.435,158.619c52.552,-59.212 60.821,-120.963 125.435,-158.619Zm-321.746,92.865c59.278,31.546 72.737,116.257 142.251,111.38c-74.029,12.154 -86.452,-56.042 -142.251,-111.38Z" style="fill:#c5ffc1;fill-opacity:0.85;"/><path d="M700.444,1437.5c361.727,-35.984 206.775,-338.999 354.291,-349.035c100.084,-6.809 192.063,104.52 195.264,198.337c-0.484,82.756 -68.722,150.698 -151.582,150.698l-397.973,0Z" style="fill:#2eeb91;"/><path d="M745.61,1431.18c32.185,-5.938 59.433,-14.365 82.599,-24.697c0.33,11.784 -3.999,22.758 -11.4,31.014l-66.459,0c-1.756,-1.954 -3.344,-4.067 -4.74,-6.317Zm82.769,-24.773c7.564,-3.379 14.692,-6.962 21.414,-10.727c6.87,3.167 14.636,4.63 22.704,3.893c24.537,-2.242 42.638,-23.982 40.397,-48.519c2.241,24.537 23.982,42.638 48.518,40.396c24.537,-2.241 42.639,-23.981 40.397,-48.518c2.242,24.537 23.982,42.638 48.519,40.396c24.537,-2.241 42.638,-23.982 40.397,-48.519c2.241,24.537 23.982,42.638 48.519,40.397c24.536,-2.241 42.638,-23.982 40.396,-48.519c2.178,23.839 22.761,41.603 46.432,40.539c-7.816,12.171 -17.32,23.176 -28.17,32.671c-7.853,-7.235 -13.154,-17.292 -14.201,-28.752c2.242,24.537 -15.859,46.277 -40.396,48.519c-24.537,2.241 -46.278,-15.86 -48.519,-40.397c2.241,24.537 -15.86,46.278 -40.397,48.519c-24.537,2.241 -46.277,-15.86 -48.519,-40.397c2.242,24.537 -15.859,46.278 -40.396,48.519c-24.537,2.242 -46.278,-15.86 -48.519,-40.396c1.587,17.373 -7.025,33.344 -20.898,41.985l-47.102,0c-10.736,-6.678 -18.532,-17.822 -20.576,-31.09Zm105.677,-95.098c7.534,-13.67 13.537,-27.744 18.535,-41.859c23.359,-3.344 40.269,-24.485 38.098,-48.249c2.242,24.536 23.982,42.638 48.519,40.396c24.537,-2.241 42.638,-23.982 40.397,-48.519c2.241,24.537 23.982,42.638 48.519,40.397c24.537,-2.241 42.638,-23.982 40.396,-48.519c2.242,24.537 23.982,42.638 48.519,40.397c8.844,-0.808 16.851,-4.149 23.372,-9.241c4.479,13.369 7.506,26.863 8.862,40.115c-7.188,7.513 -17.015,12.564 -28.173,13.584c-24.537,2.241 -46.277,-15.86 -48.519,-40.397c2.242,24.537 -15.859,46.277 -40.396,48.519c-24.537,2.241 -46.278,-15.86 -48.519,-40.397c2.241,24.537 -15.86,46.278 -40.397,48.519c-24.537,2.241 -46.277,-15.86 -48.519,-40.397c2.242,24.537 -15.859,46.278 -40.396,48.519c-7.14,0.652 -14.043,-0.418 -20.298,-2.868Zm50.777,-160.375c2.722,-8.059 5.754,-15.566 9.298,-22.383c8.927,8.048 21.056,12.494 33.957,11.315c24.537,-2.241 42.638,-23.982 40.397,-48.519c2.241,24.537 23.982,42.638 48.519,40.397c12.592,-1.15 23.49,-7.436 30.812,-16.6c21.282,13.879 40.45,32.258 56.284,53.088c-22.04,-0.876 -40.578,-17.994 -42.638,-40.549c2.241,24.537 -15.86,46.277 -40.397,48.519c-24.537,2.241 -46.278,-15.86 -48.519,-40.397c2.241,24.537 -15.86,46.278 -40.397,48.519c-22.135,2.022 -41.995,-12.511 -47.316,-33.39Z" style="fill:#26ca7c;"/><path d="M1000.55,1117.86c7.643,4.336 16.638,6.466 26.043,5.606c19.988,-1.825 35.705,-16.59 39.635,-35.266c1.377,0.029 2.752,0.079 4.125,0.151c7.385,17.37 25.361,28.801 45.156,26.993c7.63,-0.697 14.638,-3.279 20.606,-7.245c3.965,2.197 7.87,4.552 11.705,7.053c-7.322,9.164 -18.22,15.45 -30.812,16.6c-24.537,2.241 -46.278,-15.86 -48.519,-40.397c2.241,24.537 -15.86,46.278 -40.397,48.519c-12.901,1.179 -25.03,-3.267 -33.957,-11.315c1.968,-3.787 4.095,-7.362 6.415,-10.699Zm-15.713,33.082c5.321,20.879 25.181,35.412 47.316,33.39c24.537,-2.241 42.638,-23.982 40.397,-48.519c2.241,24.537 23.982,42.638 48.519,40.397c24.537,-2.242 42.638,-23.982 40.397,-48.519c2.06,22.555 20.598,39.673 42.638,40.549c3.89,5.118 7.58,10.384 11.05,15.768c-1.206,0.211 -2.43,0.374 -3.671,0.487c-24.537,2.242 -46.277,-15.859 -48.519,-40.396c2.242,24.537 -15.859,46.277 -40.396,48.518c-24.537,2.242 -46.278,-15.859 -48.519,-40.396c2.241,24.537 -15.86,46.277 -40.397,48.519c-24.537,2.241 -46.277,-15.86 -48.519,-40.397c1.226,13.423 -3.635,26.009 -12.307,35.023c2.544,-10.743 5.051,-21.079 7.812,-30.808c1.011,-2.524 1.798,-5.156 2.336,-7.868c0.606,-1.945 1.226,-3.862 1.863,-5.748Zm-26.332,100.395c19.417,-6.282 32.623,-25.368 30.689,-46.536c2.242,24.537 23.982,42.638 48.519,40.396c24.537,-2.241 42.638,-23.982 40.397,-48.518c2.241,24.536 23.982,42.638 48.519,40.396c24.537,-2.241 42.638,-23.982 40.396,-48.519c2.242,24.537 23.982,42.638 48.519,40.397c7.249,-0.662 13.936,-3.026 19.703,-6.661c1.891,4.584 3.616,9.199 5.168,13.828c-6.521,5.092 -14.528,8.433 -23.372,9.241c-24.537,2.241 -46.277,-15.86 -48.519,-40.397c2.242,24.537 -15.859,46.278 -40.396,48.519c-24.537,2.241 -46.278,-15.86 -48.519,-40.397c2.241,24.537 -15.86,46.278 -40.397,48.519c-24.537,2.242 -46.277,-15.86 -48.519,-40.396c2.171,23.764 -14.739,44.905 -38.098,48.249c2.14,-6.042 4.096,-12.092 5.91,-18.121Zm-24.445,59.98c6.255,2.45 13.158,3.52 20.298,2.868c24.537,-2.241 42.638,-23.982 40.396,-48.519c2.242,24.537 23.982,42.638 48.519,40.397c24.537,-2.241 42.638,-23.982 40.397,-48.519c2.241,24.537 23.982,42.638 48.519,40.397c24.537,-2.242 42.638,-23.982 40.396,-48.519c2.242,24.537 23.982,42.638 48.519,40.397c11.158,-1.02 20.985,-6.071 28.173,-13.584c0.363,3.544 0.606,7.07 0.726,10.572c-0.014,2.284 -0.079,4.556 -0.194,6.816c-7.091,6.971 -16.541,11.629 -27.206,12.603c-24.537,2.242 -46.277,-15.859 -48.519,-40.396c2.242,24.537 -15.86,46.277 -40.396,48.519c-24.537,2.241 -46.278,-15.86 -48.519,-40.397c2.241,24.537 -15.86,46.277 -40.397,48.519c-24.537,2.241 -46.277,-15.86 -48.519,-40.397c2.242,24.537 -15.86,46.278 -40.396,48.519c-10.584,0.967 -20.648,-1.851 -28.85,-7.338c2.492,-3.938 4.838,-7.921 7.053,-11.938Zm-21.113,31.62c5.791,20.191 25.289,34.094 46.971,32.114c24.537,-2.242 42.638,-23.982 40.396,-48.519c2.242,24.537 23.982,42.638 48.519,40.396c24.537,-2.241 42.638,-23.981 40.397,-48.518c2.241,24.537 23.982,42.638 48.519,40.396c24.537,-2.241 42.638,-23.982 40.396,-48.519c2.242,24.537 23.982,42.638 48.519,40.397c3.311,-0.302 6.505,-0.96 9.547,-1.931c-2.956,6.408 -6.347,12.582 -10.135,18.481c-23.671,1.064 -44.254,-16.7 -46.432,-40.539c2.242,24.537 -15.86,46.278 -40.396,48.519c-24.537,2.241 -46.278,-15.86 -48.519,-40.397c2.241,24.537 -15.86,46.278 -40.397,48.519c-24.537,2.242 -46.277,-15.859 -48.519,-40.396c2.242,24.537 -15.86,46.277 -40.397,48.518c-24.536,2.242 -46.277,-15.859 -48.518,-40.396c2.241,24.537 -15.86,46.277 -40.397,48.519c-8.068,0.737 -15.834,-0.726 -22.704,-3.893c7.039,-3.944 13.634,-8.088 19.817,-12.41c0.462,-0.028 0.924,-0.063 1.388,-0.105c20.954,-1.914 37.215,-18.049 40.121,-38.002c0.615,-0.742 1.223,-1.487 1.824,-2.234Zm-84.564,63.478c2.044,13.268 9.84,24.412 20.576,31.09l-14.082,0c-2.883,-5.232 -4.757,-11.13 -5.335,-17.455c0.555,6.074 -0.137,11.977 -1.864,17.455l-10.865,0c7.401,-8.256 11.73,-19.23 11.4,-31.014c0.057,-0.025 0.113,-0.051 0.17,-0.076Zm67.678,31.09c13.873,-8.641 22.485,-24.612 20.898,-41.985c2.241,24.536 23.982,42.638 48.519,40.396c24.537,-2.241 42.638,-23.982 40.396,-48.519c2.242,24.537 23.982,42.638 48.519,40.397c24.537,-2.241 42.638,-23.982 40.397,-48.519c2.241,24.537 23.982,42.638 48.519,40.397c24.537,-2.242 42.638,-23.982 40.396,-48.519c1.047,11.46 6.348,21.517 14.201,28.752c-2.274,1.991 -4.608,3.914 -6.997,5.769c-3.093,-5.394 -5.103,-11.521 -5.705,-18.113c0.863,9.443 -1.288,18.473 -5.659,26.136c-15.439,9.882 -32.75,17.049 -51.236,20.808c-17.118,-4.977 -30.302,-20.007 -32.02,-38.822c1.577,17.264 -6.917,33.145 -20.638,41.822l-47.623,0c-11.338,-7.161 -19.342,-19.326 -20.655,-33.7c1.167,12.778 -3.182,24.798 -11.085,33.7l-66.75,0c-6.123,-6.882 -10.179,-15.709 -11.08,-25.578c0.841,9.216 -1.186,18.036 -5.346,25.578l-17.051,0Zm-153.571,0c-0.561,-1.788 -1.014,-3.629 -1.35,-5.514c1.502,-0.262 2.993,-0.53 4.474,-0.803c1.396,2.25 2.984,4.363 4.74,6.317l-7.864,0Zm-1.676,-5.457c0.009,1.843 -0.095,3.664 -0.307,5.457l-6.816,0c0.833,-1.495 1.582,-3.041 2.241,-4.631c1.64,-0.269 3.267,-0.544 4.882,-0.826Z" style="fill:url(#_Linear2);"/></g></g></g><defs><linearGradient id="_Linear1" x1="0" y1="0" x2="1" y2="0" gradientUnits="userSpaceOnUse" gradientTransform="matrix(-6.25588,377.226,-90.9554,-1.5084,631.256,1091.71)"><stop offset="0" style="stop-color:#20d881;stop-opacity:1"/><stop offset="0.48" style="stop-color:#1dba70;stop-opacity:1"/><stop offset="1" style="stop-color:#156841;stop-opacity:1"/></linearGradient><linearGradient id="_Linear2" x1="0" y1="0" x2="1" y2="0" gradientUnits="userSpaceOnUse" gradientTransform="matrix(-6.25588,377.226,-90.9554,-1.5084,631.256,1091.71)"><stop offset="0" style="stop-color:#22e589;stop-opacity:1"/><stop offset="0.48" style="stop-color:#21d07d;stop-opacity:1"/><stop offset="1" style="stop-color:#1f955d;stop-opacity:1"/></linearGradient></defs></svg>