<?xml version="1.0" encoding="UTF-8" standalone="no"?>
<!DOCTYPE svg PUBLIC "-//W3C//DTD SVG 1.1//EN" "http://www.w3.org/Graphics/SVG/1.1/DTD/svg11.dtd">
<svg width="100%" height="100%" viewBox="0 0 300 345" version="1.1" xmlns="http://www.w3.org/2000/svg" xmlns:xlink="http://www.w3.org/1999/xlink" xml:space="preserve" xmlns:serif="http://www.serif.com/" style="fill-rule:evenodd;clip-rule:evenodd;stroke-linejoin:round;stroke-miterlimit:2;">
    <g id="Rabbit">
        <g>
            <path d="M0,262.01C0,282.089 16.301,298.39 36.38,298.39L263.62,298.39C283.699,298.39 300,282.089 300,262.01L300,308.62C300,328.577 283.577,345 263.62,345L36.38,345C16.423,345 0,328.577 0,308.62L0,262.01Z" style="fill:#c9c9c9;fill-rule:nonzero;"/>
            <path d="M3.025,282.941L3,282.901L3,308.62C3,326.932 18.068,342 36.38,342L263.62,342C281.932,342 297,326.932 297,308.62L297,282.901C296.947,282.985 296.894,283.069 296.841,283.152L296.841,276.849C298.871,272.317 300,267.294 300,262.01L300,308.62C300,328.577 283.577,345 263.62,345L36.38,345C16.423,345 0,328.577 0,308.62L0,262.01C0,267.178 1.08,272.095 3.025,276.548L3.025,282.941Z" style="fill:#9b9b9b;"/>
            <g transform="matrix(1.06122,0,0,1.24452,-4.12827,-75.0748)">
                <path d="M200.614,337.54C200.614,322.827 175.82,310.9 145.236,310.9C114.652,310.9 89.859,322.827 89.859,337.54L200.614,337.54Z" style="fill:#f4b2b4;"/>
            </g>
            <path d="M96.624,345L91.232,345C91.232,326.69 117.543,311.847 150,311.847C182.457,311.847 208.768,326.69 208.768,345L203.359,345C203.233,342.886 202.922,341.421 202.213,339.543L202.213,339.543C200.744,335.944 197.88,332.653 194.101,329.745C184.168,322.101 168.088,317.304 150,317.304C131.912,317.304 115.832,322.101 105.899,329.745C102.12,332.653 99.256,335.944 97.787,339.543C97.022,341.417 96.765,343.241 96.624,345Z" style="fill:#ed9fa2;"/>
            <path d="M88.232,345L211.768,345L211.768,345C211.768,336.82 207.221,329.17 199.259,323.043C188.147,314.491 170.236,308.847 150,308.847C129.764,308.847 111.853,314.491 100.741,323.043C92.779,329.17 88.232,336.82 88.232,345ZM208.768,345C208.768,326.69 182.457,311.847 150,311.847C117.543,311.847 91.232,326.69 91.232,345L208.768,345Z" style="fill:#9b9b9b;"/>
            <path d="M237.895,334.316L237.957,334.355C238.843,334.967 239.654,335.833 240.434,336.118C241.335,336.448 242.768,336.206 243.17,334.676C243.415,333.744 243.637,332.723 243.608,331.254C243.591,330.425 243.412,330.167 243.412,330.167C243.305,330.96 243.029,334.795 241.471,335.158C240.64,335.352 237.988,333.339 237.826,333.42C237.542,333.563 236.731,336.097 235.783,335.942C234.474,335.729 232.277,330.137 232.195,330.173C232.112,330.208 232.063,331.071 232.183,331.552C232.563,333.086 233.391,334.491 234.247,335.822C234.304,335.91 234.902,336.82 235.221,337.077C235.529,337.325 235.825,337.281 235.99,337.196C236.385,336.994 236.717,336.693 236.993,336.335C237.356,335.865 237.59,335.3 237.796,334.777C237.828,334.656 237.887,334.487 237.895,334.316ZM226.794,334.306C226.141,334.128 225.759,333.264 225.419,331.962C225.259,331.349 225.039,330.057 224.888,330.079C224.737,330.101 224.756,331.718 224.763,332.059C224.781,332.873 224.978,334.419 225.566,335.228C226.072,335.924 226.754,336.191 227.658,335.604C227.658,335.604 229.471,334.472 229.875,332.353C229.913,332.153 229.955,331.594 229.856,331.54C229.757,331.485 229.632,331.925 229.515,332.156C229.372,332.438 228.118,334.374 226.794,334.306ZM75.171,331.169C75.975,332.003 76.685,333.15 77.471,333.955C78.052,334.552 78.684,334.977 79.355,335.117C80.234,335.299 81.372,335.167 82.331,333.905C83.086,332.911 84.224,331.021 84.288,329.142C84.309,328.542 84.284,327.653 84.15,327.677C84.15,327.677 83.803,328.875 83.728,329.062C82.99,330.889 82.402,331.757 81.367,332.791C80.593,333.564 79.79,333.582 79.221,333.227C78.029,332.483 76.96,330.744 75.734,329.786C75.317,329.38 75.132,329.499 74.724,329.818C74.476,330.013 72.512,333.029 71.613,332.106C70.721,331.19 71.702,327.033 71.466,327.009C71.231,326.985 69.25,331.529 71.224,333.299C72.652,334.579 75.062,331.472 75.171,331.169ZM31.382,314.326C31.493,315.189 31.709,316.35 32.122,317.245C32.425,317.902 32.886,318.363 33.353,318.587C34.107,318.948 35.217,318.881 35.991,317.434C36.592,316.309 36.758,313.199 36.711,313.188C36.665,313.178 35.468,317.245 34.007,317.31C33.025,317.353 32.073,314.66 31.71,313.927C31.69,313.858 31.519,313.469 31.369,313.387C31.178,313.282 30.938,313.352 30.833,313.543C30.833,313.543 27.859,318.785 25.422,317.41C23.944,316.576 24.277,310.089 24.098,309.833C24.104,309.653 23.963,309.501 23.783,309.495C23.602,309.489 23.451,309.63 23.445,309.81C23.263,310.015 22.882,316.736 24.138,318.298C24.951,319.312 25.986,319.827 28.09,318.465C29.067,317.833 30.144,316.728 30.601,316.021C30.944,315.491 31.166,314.918 31.382,314.326ZM272.53,311.655C271.448,311.589 267.898,306.696 267.725,306.776C267.552,306.856 270.909,313.674 272.675,313.751C274.127,313.814 275.558,310.766 275.747,310.262C275.801,310.279 278.544,312.877 279.675,312.628C283.225,311.847 284.621,303.021 284.359,302.965C284.097,302.91 281.418,310.431 279.248,310.884C278.033,311.137 275.721,308.325 275.517,308.398C275.487,308.409 273.894,311.738 272.53,311.655ZM110.869,306.036C111.416,306.534 113.589,308.241 114.32,308.053C115.087,307.855 115.261,303.951 115.245,303.952C115.229,303.953 114.511,306.987 113.944,307.168C113.418,307.337 111.443,305.722 110.87,305.3C110.672,305.155 108.348,307.902 107.941,307.713C107.464,307.491 107.243,302.407 107.137,302.38C107.03,302.354 106.306,308.125 107.259,308.847C108.122,309.5 110.869,306.036 110.869,306.036ZM16.01,308.509C15.847,308.423 15.966,313.066 16.748,313.886C17.793,314.982 20.902,310.187 20.734,309.93C20.566,309.672 18.683,312.741 17.315,312.767C16.602,312.78 16.174,308.596 16.01,308.509Z" style="fill:#9b9b9b;"/>
        </g>
    </g>
</svg>
