<?xml version="1.0" encoding="UTF-8" standalone="no"?><!DOCTYPE svg PUBLIC "-//W3C//DTD SVG 1.1//EN" "http://www.w3.org/Graphics/SVG/1.1/DTD/svg11.dtd"><svg width="100%" height="100%" viewBox="0 0 1250 1438" version="1.1" xmlns="http://www.w3.org/2000/svg" xmlns:xlink="http://www.w3.org/1999/xlink" xml:space="preserve" xmlns:serif="http://www.serif.com/" style="fill-rule:evenodd;clip-rule:evenodd;stroke-linejoin:round;stroke-miterlimit:2;"><g id="Mime"><g id="ClothingMime"><path d="M799.83,1243.25l298.587,0c83.156,0 151.583,-68.427 151.583,-151.583l0,194.25c0,83.156 -68.427,151.583 -151.583,151.583l-946.834,0c-83.156,0 -151.583,-68.427 -151.583,-151.583l-0,-194.207c-0,83.132 68.408,151.54 151.542,151.54l298.628,0c7.413,38.645 82.856,69.017 174.83,69.017c91.974,-0 167.417,-30.372 174.83,-69.017Z" style="fill:#d3d3d3;"/><path d="M-0,1233.37l-0,-35.538l43.782,-0c15.213,15.443 33.677,27.677 54.23,35.538l-98.012,-0Zm-0,-71.076l-0,-35.538l4.146,0c3.007,12.503 7.583,24.423 13.503,35.538l-17.649,0Zm1250,-35.538l0,35.538l-17.666,0c5.922,-11.115 10.501,-23.035 13.511,-35.538l4.155,0Zm0,71.076l0,35.538l-98.046,-0c20.555,-7.861 39.023,-20.095 54.24,-35.538l43.806,-0Zm0,71.076l0,17.007c0,6.268 -0.389,12.452 -1.143,18.53l-545.914,0c35.474,-7.561 64.137,-20.124 80.979,-35.537l466.078,-0Zm-1250,17.007l-0,-17.007l466.078,-0c16.842,15.413 45.505,27.976 80.979,35.537l-545.914,0c-0.754,-6.078 -1.143,-12.262 -1.143,-18.53Zm10.082,54.068l1229.84,0c-4.931,12.749 -11.546,24.688 -19.566,35.538l-1190.7,-0c-8.02,-10.85 -14.635,-22.789 -19.566,-35.538Zm56.404,71.076l1117.03,-0c-24.326,16.659 -53.659,26.439 -85.097,26.439l-946.834,0c-31.438,0 -60.771,-9.78 -85.097,-26.439Z" style="fill:#333;"/><path d="M1202.86,1395.36c-27.273,26.051 -64.128,42.136 -104.445,42.136l-946.834,0c-40.317,0 -77.172,-16.085 -104.445,-42.136l1155.72,0Z"/><g><path d="M285.376,1356.83l0,12.873c0,8.635 -7.01,15.645 -15.645,15.645l-70.495,0c-8.635,0 -15.646,-7.01 -15.646,-15.645l0,-12.873c0,-8.635 7.011,-15.646 15.646,-15.646l70.495,0c8.635,0 15.645,7.011 15.645,15.646Zm-9.209,-0c0,-3.553 -2.884,-6.437 -6.436,-6.437l-70.495,0c-3.552,0 -6.437,2.884 -6.437,6.437l0,12.873c0,3.552 2.885,6.436 6.437,6.436l70.495,0c3.552,0 6.436,-2.884 6.436,-6.436l0,-12.873Z" style="fill:#7b7b7b;"/><path d="M204.019,1373.84l60.929,0c-0,0 -0,3.839 -0,3.85c-0.003,0.799 -0.243,1.599 -0.722,2.336l-23.63,36.381c-1.158,1.782 -3.524,2.908 -6.113,2.908c-2.588,-0 -4.955,-1.126 -6.112,-2.908l-23.631,-36.381c-0.479,-0.737 -0.718,-1.537 -0.721,-2.336c-0,-0.011 -0,-3.85 -0,-3.85Z" style="fill:#6e6e6e;"/><path d="M228.371,1412.65l-23.631,-36.381c-1.059,-1.631 -0.946,-3.567 0.299,-5.118c1.246,-1.551 3.445,-2.496 5.814,-2.496l47.261,0c2.368,0 4.568,0.945 5.813,2.496c1.245,1.551 1.359,3.487 0.299,5.118l-23.63,36.381c-1.158,1.782 -3.524,2.908 -6.113,2.908c-2.588,-0 -4.955,-1.126 -6.112,-2.908Z" style="fill:#7b7b7b;"/><path d="M231.212,1408.78l-13.992,-30.819c-0.821,-1.382 -0.733,-3.023 0.232,-4.337c0.965,-1.314 2.669,-2.113 4.504,-2.113l32.301,-0c1.835,-0 3.539,0.799 4.504,2.113c0.965,1.314 1.052,2.955 0.232,4.337l-18.309,30.819c-0.897,1.51 -2.73,2.464 -4.736,2.464c-2.006,-0 -3.839,-0.954 -4.736,-2.464Z" style="fill:#8c8c8c;"/><rect x="201.016" y="1243.25" width="66.935" height="96.196" style="fill:#e1000e;"/><path d="M272.186,1300.94c0,-2.366 -1.921,-4.287 -4.287,-4.287l-66.831,-0c-2.367,-0 -4.288,1.921 -4.288,4.287l0,8.575c0,2.367 1.921,4.288 4.288,4.288l66.831,-0c2.366,-0 4.287,-1.921 4.287,-4.288l0,-8.575Z" style="fill:#6e6e6e;"/><path d="M272.186,1298.77c0,-2.366 -1.921,-4.287 -4.287,-4.287l-66.831,-0c-2.367,-0 -4.288,1.921 -4.288,4.287l0,8.575c0,2.366 1.921,4.288 4.288,4.288l66.831,-0c2.366,-0 4.287,-1.922 4.287,-4.288l0,-8.575Z" style="fill:#7b7b7b;"/><path d="M270.276,1299.31c-0,-1.469 -1.193,-2.661 -2.662,-2.661l-58.701,-0c-1.469,-0 -2.661,1.192 -2.661,2.661l-0,5.323c-0,1.469 1.192,2.661 2.661,2.661l58.701,0c1.469,0 2.662,-1.192 2.662,-2.661l-0,-5.323Z" style="fill:#8c8c8c;"/><path d="M270.276,1341.51c-0,-2.385 -1.936,-4.321 -4.321,-4.321l-62.943,-0c-2.385,-0 -4.321,1.936 -4.321,4.321l-0,8.567c-0,2.385 1.936,4.321 4.321,4.321l62.943,0c2.385,0 4.321,-1.936 4.321,-4.321l-0,-8.567Z" style="fill:#b4000b;"/></g><g><path d="M1066.41,1356.83l-0,12.873c-0,8.635 -7.011,15.645 -15.646,15.645l-70.495,0c-8.635,0 -15.645,-7.01 -15.645,-15.645l-0,-12.873c-0,-8.635 7.01,-15.646 15.645,-15.646l70.495,0c8.635,0 15.646,7.011 15.646,15.646Zm-9.209,-0c-0,-3.553 -2.885,-6.437 -6.437,-6.437l-70.495,0c-3.552,0 -6.436,2.884 -6.436,6.437l-0,12.873c-0,3.552 2.884,6.436 6.436,6.436l70.495,0c3.552,0 6.437,-2.884 6.437,-6.436l-0,-12.873Z" style="fill:#7b7b7b;"/><path d="M985.052,1373.84l60.929,0c0,0 0,3.839 0,3.85c-0.003,0.799 -0.242,1.599 -0.721,2.336l-23.631,36.381c-1.157,1.782 -3.524,2.908 -6.112,2.908c-2.589,-0 -4.955,-1.126 -6.113,-2.908l-23.63,-36.381c-0.479,-0.737 -0.719,-1.537 -0.722,-2.336c0,-0.011 0,-3.85 0,-3.85Z" style="fill:#6e6e6e;"/><path d="M1009.4,1412.65l-23.63,-36.381c-1.06,-1.631 -0.946,-3.567 0.299,-5.118c1.245,-1.551 3.445,-2.496 5.813,-2.496l47.261,0c2.369,0 4.568,0.945 5.814,2.496c1.245,1.551 1.358,3.487 0.299,5.118l-23.631,36.381c-1.157,1.782 -3.524,2.908 -6.112,2.908c-2.589,-0 -4.955,-1.126 -6.113,-2.908Z" style="fill:#7b7b7b;"/><path d="M1012.25,1408.78l-13.992,-30.819c-0.82,-1.382 -0.733,-3.023 0.232,-4.337c0.965,-1.314 2.669,-2.113 4.505,-2.113l32.3,-0c1.835,-0 3.54,0.799 4.504,2.113c0.965,1.314 1.053,2.955 0.232,4.337l-18.309,30.819c-0.896,1.51 -2.73,2.464 -4.736,2.464c-2.005,-0 -3.839,-0.954 -4.736,-2.464Z" style="fill:#8c8c8c;"/><rect x="982.049" y="1243.25" width="66.935" height="96.196" style="fill:#e1000e;"/><path d="M1053.22,1300.94c-0,-2.366 -1.921,-4.287 -4.288,-4.287l-66.831,-0c-2.366,-0 -4.287,1.921 -4.287,4.287l-0,8.575c-0,2.367 1.921,4.288 4.287,4.288l66.831,-0c2.367,-0 4.288,-1.921 4.288,-4.288l-0,-8.575Z" style="fill:#6e6e6e;"/><path d="M1053.22,1298.77c-0,-2.366 -1.921,-4.287 -4.288,-4.287l-66.831,-0c-2.366,-0 -4.287,1.921 -4.287,4.287l-0,8.575c-0,2.366 1.921,4.288 4.287,4.288l66.831,-0c2.367,-0 4.288,-1.922 4.288,-4.288l-0,-8.575Z" style="fill:#7b7b7b;"/><path d="M1051.31,1299.31c0,-1.469 -1.192,-2.661 -2.661,-2.661l-58.701,-0c-1.469,-0 -2.662,1.192 -2.662,2.661l0,5.323c0,1.469 1.193,2.661 2.662,2.661l58.701,0c1.469,0 2.661,-1.192 2.661,-2.661l0,-5.323Z" style="fill:#8c8c8c;"/><path d="M1051.31,1341.51c0,-2.385 -1.936,-4.321 -4.321,-4.321l-62.943,-0c-2.385,-0 -4.321,1.936 -4.321,4.321l0,8.567c0,2.385 1.936,4.321 4.321,4.321l62.943,0c2.385,0 4.321,-1.936 4.321,-4.321l0,-8.567Z" style="fill:#b4000b;"/></g><path d="M820.882,1243.25c-2.499,20.607 -17.325,40.692 -43.777,56.177c-34.321,20.091 -89.604,33.673 -152.105,33.673c-62.501,-0 -117.784,-13.582 -152.105,-33.673c-26.452,-15.485 -41.278,-35.57 -43.777,-56.177l21.052,0c7.413,38.645 82.856,69.017 174.83,69.017c91.974,-0 167.417,-30.372 174.83,-69.017l21.052,0Z"/></g></g></svg>