<?xml version="1.0" encoding="UTF-8" standalone="no"?>
<!DOCTYPE svg PUBLIC "-//W3C//DTD SVG 1.1//EN" "http://www.w3.org/Graphics/SVG/1.1/DTD/svg11.dtd">
<svg width="100%" height="100%" viewBox="0 0 300 345" version="1.1" xmlns="http://www.w3.org/2000/svg" xmlns:xlink="http://www.w3.org/1999/xlink" xml:space="preserve" xmlns:serif="http://www.serif.com/" style="fill-rule:evenodd;clip-rule:evenodd;stroke-linejoin:round;stroke-miterlimit:2;">
    <g id="Gift-2" serif:id="Gift 2">
        <g id="Gift-21" serif:id="Gift 2">
            <g>
                <path d="M0,217.039C0.678,216.699 1.459,216.772 2.343,217.533C3.619,218.631 4.045,220.731 4.394,222.302C5.304,226.403 4.516,230.767 5.603,234.831C6.456,238.022 12.219,238.723 14.64,240.412C20.17,244.271 19.004,253.6 26.683,255.213C31.572,256.24 36.169,254.294 40.987,256.379C46.056,258.573 48.454,264.019 54.595,263.922C57.836,263.87 61.317,262.358 64.341,261.282C67.78,260.057 71.461,259.299 75.084,258.935C80.738,258.366 86.727,260.93 92.206,259.753C97.726,258.568 102.211,255.295 108.087,255.432C112.37,255.531 115.989,258.143 120.152,258.717C125.912,259.512 131.708,258.095 137.483,258.498C141.813,258.799 145.906,260.408 150.256,260.586C156.85,260.855 162.989,257.468 169.537,256.953C172.707,256.704 176.065,256.592 179.191,257.254C182.992,258.059 186.572,259.5 190.496,259.63C193.342,259.724 196.2,258.685 198.969,258.148C202.605,257.444 206.556,257.39 210.254,257.534C215.903,257.754 220.922,261.044 226.64,260.853C232.396,260.66 237.368,257.389 243.266,257.315C247.752,257.259 253.015,259.999 257.337,258.347C261.354,256.811 263.911,253.046 267.779,251.314C272.098,249.379 276.638,250.535 280.851,247.573C283.449,245.748 284.232,242.289 286.633,240.189C289.031,238.092 291.945,238.119 294.707,236.956C297.857,235.63 295.831,230.663 297.211,228.254C297.634,227.516 298.785,226.602 300,226.078L300,274.249C299.621,274.274 4.685,274.761 -0,274.516L0,217.039Z" style="fill:#e5e5e5;"/>
                <path id="base_body_2" d="M0,226.126C0,246.205 16.301,262.506 36.38,262.506L263.62,262.506C283.699,262.506 300,246.205 300,226.126L300,308.62C300,328.577 283.577,345 263.62,345L36.38,345C16.423,345 0,328.577 0,308.62L0,226.126Z" style="fill:#7d1913;fill-rule:nonzero;"/>
                <path id="base_body_21" serif:id="base_body_2" d="M0,233.957C0,254.036 16.301,270.337 36.38,270.337L263.62,270.337C283.699,270.337 300,254.036 300,233.957L300,308.62C300,328.577 283.577,345 263.62,345L36.38,345C16.423,345 0,328.577 0,308.62L0,233.957Z" style="fill:#20561c;fill-rule:nonzero;"/>
                <path id="base_body_22" serif:id="base_body_2" d="M5.242,327.333C1.919,321.851 0,315.442 0,308.62L0,233.957C0,254.036 16.301,270.337 36.38,270.337L71.817,270.337L5.242,327.333ZM113.075,270.337L200.96,270.337L119.584,345L36.38,345C34.875,345 33.389,344.907 31.93,344.725L113.075,270.337ZM242.218,270.337L263.62,270.337C283.699,270.337 300,254.036 300,233.957L300,307.155L249.467,345L160.842,345L242.218,270.337Z" style="fill:#bf322b;"/>
                <path id="base_body_23" serif:id="base_body_2" d="M21.915,341.966C9.067,336.327 0,323.45 0,308.62L0,226.126C0,241.066 9.025,253.914 21.915,259.512L21.915,341.966ZM278.085,259.512C290.975,253.914 300,241.066 300,226.126L300,308.62C300,323.45 290.933,336.327 278.085,341.966L278.085,259.512Z" style="fill-opacity:0.25;"/>
                <g transform="matrix(4.42953,0,0,1.33832,-432.834,-95.4998)">
                    <rect x="126.208" y="267.504" width="11.425" height="61.64" style="fill-opacity:0.25;"/>
                </g>
                <g id="base_body_1" transform="matrix(1,0,0,-1,0,369.695)">
                    <path d="M172.42,77.497C171.591,89.847 175.627,102.966 184.565,116.858C193.086,130.103 196.308,139.491 193.545,151.559L179.938,163.977L179.115,153.559L168.674,162.14L165.624,150.088L153.644,163.977L152.313,145.067C155.146,134.023 150.082,122.353 142.773,115.088C132.833,105.209 130.282,92.005 130.628,77.497L130.628,24.695L172.42,24.695L172.42,77.497Z" style="fill:#3ba52a;"/>
                </g>
                <path d="M137.633,335.445L165.815,335.445L165.815,293.222C165.905,276.306 171.726,262.972 180.043,251.198C186.97,241.391 190.714,230.295 189.488,221.704L183.914,215.663L182.433,226.915L175.228,219.611L169.504,235.403L161.114,223.46C161.673,227.481 163.45,234.382 162.554,241.029C161.679,247.523 153.047,255.665 146.112,266C141.015,273.595 140.638,280.743 140.387,294.03L137.633,335.445Z" style="fill:#3bac29;"/>
                <g transform="matrix(0.740577,0,0,0.740577,20.9524,86.6936)">
                    <g transform="matrix(0.88361,0.468223,-0.468223,0.88361,124.737,-4.02633)">
                        <g transform="matrix(0.998223,0.0595828,-0.0595828,0.998223,17.9198,-0.874094)">
                            <path d="M66.38,315.36L53.079,304.758L53.079,283.553L66.38,272.95L135.778,272.95L135.778,315.36L66.38,315.36ZM60.162,290.887C58.338,290.887 56.856,292.369 56.856,294.194C56.856,296.019 58.338,297.5 60.162,297.5C61.987,297.5 63.469,296.019 63.469,294.194C63.469,292.369 61.987,290.887 60.162,290.887Z" style="fill-opacity:0.25;"/>
                        </g>
                        <g>
                            <path d="M52.237,293.387C52.788,293.403 53.223,293.865 53.206,294.417C53.189,294.968 52.727,295.402 52.176,295.386C50.939,295.348 49.599,295.386 48.457,295.226C47.532,295.096 46.724,294.831 46.123,294.378C44.51,293.166 44.245,291.74 44.16,290.1C44.097,288.89 44.159,287.533 43.334,286.08C42.495,284.602 39.515,282.714 34.511,284.862C31.615,286.105 28.872,284.867 27.134,283.22C25.906,282.057 25.225,280.68 25.192,279.866C25.17,279.315 25.599,278.849 26.151,278.827C26.702,278.805 27.168,279.234 27.19,279.786C27.196,279.936 27.275,280.117 27.381,280.322C27.615,280.779 28.007,281.293 28.509,281.768C29.742,282.936 31.668,283.906 33.722,283.024C40.204,280.242 43.986,283.178 45.074,285.093C46.083,286.87 46.08,288.515 46.157,289.996C46.212,291.048 46.29,292.002 47.324,292.78C47.795,293.133 48.488,293.238 49.248,293.302C50.202,293.382 51.254,293.357 52.237,293.387Z" style="fill:#b08958;"/>
                            <g transform="matrix(1,0,0,1,0.974516,0.750578)">
                                <circle cx="51.349" cy="293.499" r="1.571" style="fill:#906a3a;"/>
                            </g>
                            <path d="M66.38,315.36L53.079,304.758L53.079,283.553L66.38,272.95L135.778,272.95L135.778,315.36L66.38,315.36ZM60.162,290.887C58.338,290.887 56.856,292.369 56.856,294.194C56.856,296.019 58.338,297.5 60.162,297.5C61.987,297.5 63.469,296.019 63.469,294.194C63.469,292.369 61.987,290.887 60.162,290.887Z" style="fill:#fffddb;"/>
                            <g transform="matrix(0.871724,0,0,1.22358,7.21091,-65.5074)">
                                <path d="M58.182,294.019C58.182,293.451 57.534,292.99 56.736,292.99L52.709,292.99C51.911,292.99 51.264,293.451 51.264,294.019C51.264,294.588 51.911,295.049 52.709,295.049L56.736,295.049C57.534,295.049 58.182,294.588 58.182,294.019Z" style="fill:#b08958;"/>
                            </g>
                        </g>
                        <g transform="matrix(1,0,0,1,0.0784987,-0.0951728)">
                            <rect x="69.969" y="276.608" width="61.81" height="35.285" style="fill:#fff;"/>
                        </g>
                        <g transform="matrix(0.794979,0,0,0.706504,15.0274,83.4566)">
                            <path d="M77.046,288.598C77.193,287.873 77.359,287.142 77.543,286.404C77.728,285.666 77.907,284.934 78.082,284.209C78.156,283.908 78.221,283.634 78.277,283.387C78.333,283.141 78.381,282.917 78.419,282.716C78.458,282.515 78.487,282.333 78.507,282.169C78.526,282.005 78.536,281.853 78.536,281.714L78.536,281.625C78.536,281.592 78.534,281.552 78.53,281.504C78.491,281.504 78.405,281.528 78.271,281.576C78.137,281.624 77.98,281.687 77.799,281.766C77.619,281.845 77.429,281.933 77.229,282.031C77.029,282.13 76.844,282.229 76.673,282.329C76.537,282.408 76.424,282.474 76.332,282.526C76.241,282.578 76.163,282.619 76.097,282.647C76.031,282.675 75.971,282.695 75.916,282.706C75.862,282.717 75.806,282.722 75.747,282.722C75.627,282.722 75.523,282.67 75.436,282.565C75.349,282.46 75.305,282.325 75.305,282.159C75.305,282.063 75.314,281.979 75.331,281.907C75.349,281.835 75.376,281.77 75.413,281.714C75.45,281.657 75.499,281.603 75.561,281.553C75.623,281.503 75.699,281.452 75.788,281.399C76.77,280.823 77.764,280.4 78.769,280.132C79.774,279.863 80.783,279.729 81.796,279.729C81.877,279.729 81.974,279.731 82.087,279.735C82.199,279.74 82.315,279.747 82.433,279.758C82.552,279.769 82.667,279.785 82.78,279.804C82.892,279.824 82.991,279.847 83.076,279.873C83.166,279.904 83.243,279.967 83.309,280.063C83.375,280.159 83.408,280.262 83.408,280.371C83.408,280.458 83.402,280.543 83.388,280.626C83.374,280.709 83.35,280.781 83.315,280.842C83.28,280.904 83.235,280.953 83.178,280.99C83.122,281.027 83.053,281.046 82.972,281.046C82.832,281.028 82.672,281.006 82.491,280.98C82.311,280.954 82.13,280.941 81.947,280.941C81.582,280.941 81.219,280.951 80.856,280.97C80.493,280.99 80.121,281.048 79.741,281.144C79.721,281.153 79.709,281.175 79.703,281.213C79.697,281.25 79.692,281.297 79.688,281.353C79.677,281.589 79.659,281.797 79.636,281.976C79.613,282.155 79.581,282.334 79.54,282.513C79.499,282.692 79.45,282.885 79.392,283.093C79.333,283.3 79.265,283.549 79.188,283.839C79.11,284.13 79.02,284.477 78.917,284.881C78.814,285.285 78.701,285.773 78.577,286.345L78.297,287.616C78.231,287.908 78.18,288.171 78.143,288.405C78.106,288.638 78.074,288.869 78.047,289.096C78.031,289.17 77.972,289.24 77.869,289.306C77.766,289.371 77.645,289.404 77.505,289.404C77.424,289.404 77.35,289.379 77.284,289.328C77.218,289.278 77.164,289.214 77.121,289.135C77.079,289.057 77.049,288.97 77.034,288.876C77.018,288.783 77.022,288.69 77.046,288.598Z" style="fill:#7d1913;fill-rule:nonzero;"/>
                            <path d="M82.139,287.144C82.197,286.878 82.288,286.595 82.41,286.296C82.532,285.997 82.692,285.694 82.89,285.388C83.088,285.083 83.326,284.784 83.603,284.491C83.881,284.198 84.202,283.926 84.567,283.672C84.625,283.633 84.714,283.59 84.835,283.544C84.955,283.499 85.079,283.471 85.207,283.463C85.358,283.279 85.562,283.188 85.818,283.188C86.121,283.188 86.376,283.274 86.584,283.446C86.791,283.619 86.963,283.853 87.099,284.15C87.142,284.246 87.182,284.34 87.218,284.432C87.255,284.524 87.286,284.621 87.312,284.724C87.337,284.826 87.357,284.936 87.373,285.054C87.388,285.172 87.396,285.305 87.396,285.454C87.396,285.799 87.347,286.15 87.25,286.509C87.153,286.867 87.016,287.216 86.837,287.557C86.659,287.897 86.442,288.224 86.188,288.536C85.934,288.848 85.651,289.129 85.341,289.378C85.131,289.548 84.9,289.68 84.645,289.774C84.391,289.868 84.107,289.915 83.793,289.915C83.494,289.915 83.235,289.87 83.015,289.78C82.796,289.691 82.614,289.563 82.468,289.397C82.323,289.231 82.214,289.033 82.142,288.801C82.07,288.57 82.034,288.312 82.034,288.028C82.034,287.753 82.069,287.458 82.139,287.144ZM83.106,287.229C83.082,287.33 83.066,287.424 83.056,287.514C83.046,287.604 83.042,287.69 83.042,287.773C83.042,287.917 83.058,288.051 83.091,288.176C83.124,288.3 83.177,288.407 83.251,288.497C83.325,288.586 83.417,288.656 83.528,288.706C83.638,288.756 83.773,288.782 83.932,288.782C84.227,288.782 84.502,288.697 84.756,288.529C85.01,288.361 85.236,288.15 85.434,287.897C85.632,287.644 85.798,287.372 85.932,287.082C86.066,286.791 86.16,286.524 86.214,286.279C86.249,286.126 86.279,285.982 86.304,285.847C86.33,285.712 86.342,285.587 86.342,285.474C86.342,285.36 86.324,285.254 86.287,285.156C86.25,285.058 86.203,284.947 86.144,284.825C86.109,284.751 86.074,284.673 86.04,284.593C86.005,284.512 85.974,284.432 85.946,284.353C85.915,284.415 85.882,284.468 85.847,284.514C85.813,284.56 85.76,284.601 85.69,284.638C85.62,284.676 85.525,284.709 85.405,284.74C85.285,284.771 85.128,284.797 84.933,284.819C84.805,284.867 84.675,284.941 84.543,285.041C84.412,285.142 84.282,285.26 84.156,285.395C84.03,285.53 83.91,285.677 83.795,285.834C83.681,285.991 83.578,286.152 83.487,286.315C83.396,286.479 83.316,286.64 83.248,286.797C83.18,286.954 83.133,287.098 83.106,287.229Z" style="fill:#7d1913;fill-rule:nonzero;"/>
                            <path d="M91.133,284.15C91.133,284.447 91.03,284.707 90.825,284.93C90.619,285.153 90.384,285.264 90.12,285.264C89.919,285.264 89.747,285.184 89.605,285.025C89.463,284.865 89.393,284.672 89.393,284.445C89.393,284.148 89.499,283.884 89.713,283.653C89.926,283.421 90.165,283.305 90.429,283.305C90.631,283.305 90.798,283.386 90.932,283.548C91.066,283.709 91.133,283.91 91.133,284.15ZM90.01,288.592C90.01,288.893 89.907,289.154 89.701,289.374C89.495,289.595 89.261,289.705 88.997,289.705C88.795,289.705 88.623,289.625 88.482,289.466C88.34,289.307 88.269,289.113 88.269,288.886C88.269,288.585 88.377,288.32 88.592,288.09C88.808,287.861 89.045,287.747 89.305,287.747C89.507,287.747 89.675,287.827 89.809,287.989C89.943,288.15 90.01,288.351 90.01,288.592Z" style="fill:#7d1913;fill-rule:nonzero;"/>
                        </g>
                        <g transform="matrix(1.30874,0,0,0.706504,-22.6299,100.334)">
                            <path d="M75.719,282.578C75.7,282.631 75.676,282.721 75.646,282.85C75.617,282.979 75.586,283.127 75.554,283.296C75.523,283.464 75.491,283.642 75.459,283.829C75.427,284.017 75.398,284.193 75.371,284.357C75.343,284.521 75.32,284.665 75.302,284.789C75.283,284.914 75.271,284.995 75.266,285.035C75.262,285.083 75.253,285.155 75.24,285.251C75.227,285.347 75.216,285.43 75.206,285.5C75.47,285.334 75.731,285.196 75.989,285.087C76.247,284.978 76.506,284.923 76.766,284.923C76.806,284.923 76.859,284.926 76.925,284.93C76.991,284.934 77.055,284.951 77.119,284.979C77.183,285.007 77.238,285.052 77.284,285.113C77.33,285.174 77.353,285.262 77.353,285.375C77.353,285.38 77.351,285.407 77.349,285.457C77.347,285.507 77.34,285.565 77.328,285.631C77.316,285.696 77.298,285.762 77.273,285.827C77.248,285.893 77.215,285.941 77.172,285.971C77.146,285.967 77.121,285.965 77.096,285.965L77.02,285.965C76.853,285.965 76.685,285.992 76.516,286.047C76.348,286.101 76.178,286.176 76.007,286.269C75.836,286.363 75.666,286.475 75.496,286.604C75.326,286.732 75.157,286.869 74.987,287.013L74.63,289.875C74.625,289.95 74.606,290.016 74.571,290.075C74.537,290.134 74.504,290.164 74.471,290.164L74.386,290.164C74.296,290.164 74.234,290.096 74.2,289.961C74.166,289.825 74.149,289.651 74.149,289.437C74.149,289.257 74.157,289.062 74.174,288.85C74.19,288.638 74.209,288.432 74.23,288.231C74.251,288.03 74.27,287.847 74.287,287.681C74.303,287.515 74.311,287.388 74.311,287.301C74.283,287.227 74.255,287.148 74.227,287.065C74.198,286.982 74.184,286.88 74.184,286.757C74.184,286.565 74.211,286.412 74.266,286.299C74.32,286.185 74.392,286.074 74.481,285.965C74.491,285.952 74.501,285.928 74.511,285.893C74.522,285.858 74.531,285.819 74.54,285.775C74.548,285.731 74.555,285.688 74.561,285.644C74.567,285.6 74.572,285.563 74.577,285.533L74.722,284.563C74.778,284.183 74.829,283.85 74.874,283.564C74.919,283.278 74.96,283.022 74.997,282.794C75.035,282.567 75.07,282.363 75.102,282.182C75.134,282.001 75.165,281.825 75.196,281.655C75.205,281.598 75.221,281.517 75.243,281.412C75.266,281.308 75.293,281.205 75.325,281.104C75.356,281.004 75.392,280.917 75.432,280.842C75.472,280.768 75.516,280.731 75.563,280.731C75.669,280.731 75.742,280.747 75.781,280.78C75.82,280.813 75.845,280.856 75.857,280.908L75.889,281.052C75.926,281.043 75.98,281.027 76.049,281.003C76.119,280.979 76.191,280.952 76.265,280.921C76.339,280.891 76.408,280.861 76.472,280.833C76.536,280.804 76.582,280.781 76.61,280.764C76.768,280.685 76.913,280.618 77.045,280.561C77.177,280.504 77.302,280.457 77.42,280.42C77.538,280.383 77.651,280.356 77.759,280.338C77.868,280.321 77.977,280.312 78.088,280.312C78.14,280.312 78.188,280.316 78.233,280.325C78.278,280.334 78.316,280.35 78.348,280.374C78.38,280.398 78.405,280.433 78.424,280.479C78.443,280.525 78.452,280.585 78.452,280.659C78.452,280.698 78.448,280.747 78.438,280.806C78.429,280.865 78.413,280.924 78.392,280.983C78.371,281.042 78.342,281.098 78.306,281.15C78.269,281.203 78.224,281.242 78.169,281.268C78.153,281.277 78.123,281.289 78.081,281.304C78.039,281.32 77.99,281.336 77.934,281.353C77.879,281.371 77.82,281.389 77.757,281.409C77.695,281.429 77.635,281.447 77.579,281.465C77.489,281.504 77.388,281.547 77.276,281.592C77.165,281.638 77.048,281.69 76.926,281.746C76.805,281.803 76.683,281.864 76.56,281.93C76.438,281.995 76.322,282.063 76.214,282.133C76.105,282.203 76.008,282.275 75.922,282.349C75.836,282.423 75.768,282.5 75.719,282.578Z" style="fill:#7d1913;fill-rule:nonzero;"/>
                            <path d="M78.06,288.978C78.09,288.672 78.126,288.336 78.166,287.969C78.206,287.602 78.247,287.231 78.29,286.856C78.332,286.48 78.373,286.111 78.413,285.749C78.453,285.386 78.488,285.054 78.516,284.753C78.514,284.709 78.512,284.671 78.512,284.638L78.512,284.53C78.512,284.395 78.517,284.26 78.527,284.124C78.536,283.989 78.549,283.864 78.565,283.751C78.591,283.585 78.62,283.472 78.652,283.413C78.684,283.355 78.735,283.325 78.806,283.325C78.874,283.325 78.929,283.35 78.97,283.4C79.012,283.451 79.044,283.517 79.068,283.6C79.091,283.683 79.106,283.778 79.113,283.885C79.121,283.992 79.124,284.102 79.124,284.216C79.124,284.277 79.123,284.345 79.121,284.419C79.118,284.493 79.117,284.552 79.117,284.596C79.183,284.469 79.253,284.339 79.327,284.206C79.402,284.073 79.481,283.953 79.564,283.846C79.648,283.739 79.736,283.65 79.83,283.581C79.923,283.511 80.02,283.476 80.121,283.476C80.161,283.476 80.201,283.482 80.24,283.495C80.279,283.508 80.318,283.526 80.358,283.548C80.405,283.57 80.454,283.599 80.505,283.636C80.556,283.673 80.605,283.725 80.652,283.79C80.729,283.899 80.795,284.036 80.848,284.2C80.901,284.363 80.928,284.53 80.928,284.701C80.928,284.766 80.92,284.837 80.906,284.914C80.892,284.99 80.873,285.06 80.848,285.123C80.823,285.186 80.794,285.239 80.761,285.28C80.728,285.322 80.692,285.343 80.652,285.343C80.612,285.343 80.563,285.324 80.505,285.287C80.447,285.25 80.399,285.201 80.362,285.14C80.345,285.113 80.328,285.076 80.31,285.028C80.293,284.98 80.276,284.932 80.261,284.884C80.246,284.836 80.231,284.791 80.219,284.75C80.206,284.708 80.196,284.681 80.188,284.668C80.177,284.664 80.164,284.66 80.15,284.658C80.135,284.656 80.122,284.655 80.111,284.655C79.99,284.655 79.876,284.712 79.768,284.825C79.659,284.939 79.558,285.077 79.464,285.241C79.369,285.405 79.283,285.579 79.204,285.765C79.125,285.951 79.056,286.118 78.997,286.266C78.95,286.62 78.897,286.997 78.839,287.396C78.782,287.796 78.725,288.214 78.668,288.65L78.668,288.814C78.668,288.945 78.666,289.078 78.661,289.214C78.656,289.349 78.642,289.469 78.618,289.574C78.593,289.64 78.555,289.695 78.507,289.741C78.459,289.787 78.403,289.81 78.339,289.81C78.24,289.81 78.166,289.75 78.116,289.63C78.067,289.51 78.042,289.369 78.042,289.207C78.042,289.133 78.048,289.057 78.06,288.978Z" style="fill:#7d1913;fill-rule:nonzero;"/>
                            <path d="M81.108,287.144C81.143,286.878 81.198,286.595 81.272,286.296C81.347,285.997 81.444,285.694 81.564,285.388C81.684,285.083 81.829,284.784 81.997,284.491C82.166,284.198 82.361,283.926 82.582,283.672C82.618,283.633 82.672,283.59 82.745,283.544C82.818,283.499 82.894,283.471 82.971,283.463C83.063,283.279 83.187,283.188 83.343,283.188C83.527,283.188 83.682,283.274 83.808,283.446C83.934,283.619 84.038,283.853 84.121,284.15C84.147,284.246 84.171,284.34 84.193,284.432C84.215,284.524 84.234,284.621 84.25,284.724C84.265,284.826 84.277,284.936 84.287,285.054C84.296,285.172 84.301,285.305 84.301,285.454C84.301,285.799 84.271,286.15 84.213,286.509C84.154,286.867 84.07,287.216 83.961,287.557C83.853,287.897 83.722,288.224 83.567,288.536C83.413,288.848 83.241,289.129 83.053,289.378C82.925,289.548 82.785,289.68 82.63,289.774C82.476,289.868 82.303,289.915 82.112,289.915C81.931,289.915 81.773,289.87 81.64,289.78C81.507,289.691 81.396,289.563 81.308,289.397C81.219,289.231 81.153,289.033 81.11,288.801C81.066,288.57 81.044,288.312 81.044,288.028C81.044,287.753 81.065,287.458 81.108,287.144ZM81.695,287.229C81.681,287.33 81.671,287.424 81.665,287.514C81.659,287.604 81.656,287.69 81.656,287.773C81.656,287.917 81.666,288.051 81.686,288.176C81.706,288.3 81.738,288.407 81.783,288.497C81.828,288.586 81.884,288.656 81.951,288.706C82.018,288.756 82.1,288.782 82.197,288.782C82.376,288.782 82.543,288.697 82.697,288.529C82.852,288.361 82.989,288.15 83.109,287.897C83.23,287.644 83.33,287.372 83.412,287.082C83.493,286.791 83.55,286.524 83.583,286.279C83.604,286.126 83.623,285.982 83.638,285.847C83.653,285.712 83.661,285.587 83.661,285.474C83.661,285.36 83.65,285.254 83.627,285.156C83.605,285.058 83.576,284.947 83.541,284.825C83.519,284.751 83.498,284.673 83.477,284.593C83.456,284.512 83.437,284.432 83.42,284.353C83.402,284.415 83.382,284.468 83.36,284.514C83.339,284.56 83.307,284.601 83.265,284.638C83.222,284.676 83.165,284.709 83.092,284.74C83.019,284.771 82.923,284.797 82.805,284.819C82.727,284.867 82.648,284.941 82.568,285.041C82.488,285.142 82.41,285.26 82.333,285.395C82.257,285.53 82.183,285.677 82.114,285.834C82.044,285.991 81.982,286.152 81.926,286.315C81.871,286.479 81.823,286.64 81.781,286.797C81.74,286.954 81.711,287.098 81.695,287.229Z" style="fill:#7d1913;fill-rule:nonzero;"/>
                            <path d="M84.906,289.22C84.976,288.709 85.045,288.233 85.111,287.792C85.177,287.351 85.241,286.929 85.303,286.525C85.366,286.121 85.427,285.729 85.486,285.349C85.544,284.969 85.601,284.583 85.655,284.19C85.676,284.037 85.689,283.889 85.692,283.748C85.696,283.606 85.707,283.458 85.726,283.305C85.735,283.253 85.753,283.206 85.777,283.165C85.802,283.123 85.83,283.087 85.86,283.056C85.891,283.026 85.923,283.002 85.958,282.984C85.992,282.967 86.024,282.958 86.055,282.958C86.121,282.958 86.176,282.972 86.219,283.001C86.263,283.029 86.298,283.067 86.325,283.115C86.352,283.163 86.371,283.221 86.382,283.289C86.393,283.357 86.398,283.432 86.398,283.515C86.398,283.663 86.385,283.813 86.359,283.964C86.333,284.114 86.301,284.279 86.263,284.458C86.374,284.297 86.488,284.144 86.605,284C86.721,283.856 86.842,283.729 86.965,283.62C87.089,283.511 87.216,283.423 87.346,283.358C87.475,283.292 87.61,283.26 87.749,283.26C87.812,283.26 87.876,283.278 87.94,283.315C88.003,283.352 88.06,283.41 88.111,283.489C88.162,283.567 88.204,283.67 88.238,283.797C88.273,283.923 88.292,284.078 88.297,284.262C88.398,284.135 88.503,284.007 88.611,283.879C88.72,283.75 88.83,283.634 88.942,283.531C89.054,283.429 89.166,283.346 89.278,283.282C89.39,283.219 89.499,283.188 89.605,283.188C89.763,283.188 89.893,283.226 89.996,283.302C90.098,283.379 90.18,283.481 90.24,283.61C90.3,283.739 90.342,283.888 90.367,284.059C90.392,284.229 90.404,284.41 90.404,284.602C90.404,284.812 90.394,285.028 90.372,285.251C90.351,285.474 90.328,285.685 90.302,285.886C90.233,286.393 90.157,286.872 90.072,287.324C89.987,287.776 89.895,288.233 89.796,288.696C89.772,288.806 89.748,288.921 89.722,289.044C89.696,289.166 89.666,289.278 89.632,289.381C89.597,289.483 89.557,289.569 89.511,289.636C89.465,289.704 89.412,289.738 89.351,289.738C89.211,289.738 89.116,289.694 89.064,289.607C89.012,289.52 88.986,289.395 88.986,289.233C88.986,289.19 88.987,289.14 88.99,289.083C88.992,289.026 88.998,288.971 89.008,288.919C89.017,288.854 89.038,288.759 89.071,288.634C89.104,288.51 89.14,288.375 89.179,288.231C89.218,288.087 89.256,287.942 89.294,287.796C89.332,287.649 89.36,287.522 89.379,287.412C89.409,287.225 89.445,287.007 89.487,286.761C89.528,286.514 89.567,286.265 89.605,286.014C89.643,285.763 89.674,285.525 89.699,285.3C89.724,285.075 89.736,284.893 89.736,284.753C89.736,284.688 89.732,284.622 89.725,284.557C89.718,284.491 89.706,284.434 89.688,284.386C89.671,284.338 89.646,284.299 89.614,284.268C89.582,284.238 89.541,284.222 89.492,284.222C89.421,284.222 89.337,284.26 89.239,284.334C89.141,284.408 89.04,284.505 88.935,284.625C88.83,284.745 88.728,284.881 88.629,285.031C88.53,285.182 88.445,285.332 88.375,285.48C88.325,285.585 88.278,285.67 88.233,285.736C88.188,285.801 88.144,285.851 88.099,285.886C88.094,285.904 88.082,285.962 88.063,286.06C88.045,286.158 88.022,286.276 87.996,286.414C87.97,286.551 87.943,286.7 87.915,286.859C87.887,287.018 87.86,287.167 87.835,287.304C87.811,287.442 87.79,287.558 87.773,287.652C87.757,287.745 87.749,287.797 87.749,287.805C87.732,287.928 87.718,288.053 87.706,288.182C87.694,288.311 87.684,288.434 87.674,288.552C87.665,288.67 87.656,288.796 87.648,288.929C87.64,289.062 87.623,289.187 87.598,289.302C87.574,289.418 87.536,289.513 87.485,289.587C87.435,289.661 87.363,289.699 87.271,289.699C87.224,289.699 87.181,289.677 87.142,289.633C87.103,289.589 87.07,289.534 87.041,289.466C87.013,289.398 86.991,289.322 86.974,289.237C86.958,289.152 86.948,289.065 86.946,288.978C87,288.585 87.053,288.231 87.105,287.917C87.157,287.602 87.209,287.301 87.261,287.013C87.313,286.725 87.363,286.435 87.411,286.145C87.459,285.855 87.507,285.535 87.554,285.185C87.566,285.102 87.575,285.021 87.582,284.94C87.59,284.859 87.593,284.788 87.593,284.727C87.593,284.622 87.581,284.536 87.558,284.468C87.534,284.4 87.493,284.367 87.434,284.367C87.337,284.367 87.241,284.403 87.146,284.475C87.05,284.547 86.947,284.659 86.836,284.812C86.726,284.965 86.602,285.159 86.467,285.395C86.331,285.631 86.175,285.912 85.998,286.24C85.979,286.305 85.955,286.428 85.924,286.607C85.893,286.786 85.862,286.976 85.83,287.177C85.798,287.378 85.77,287.564 85.744,287.737C85.718,287.909 85.701,288.024 85.694,288.081C85.668,288.264 85.651,288.418 85.641,288.542C85.632,288.667 85.623,288.779 85.616,288.88C85.612,288.932 85.605,289.018 85.595,289.138C85.586,289.259 85.569,289.38 85.544,289.502C85.519,289.624 85.484,289.732 85.44,289.826C85.395,289.92 85.336,289.967 85.263,289.967C85.154,289.967 85.065,289.913 84.996,289.803C84.926,289.694 84.891,289.557 84.891,289.391C84.891,289.36 84.893,289.332 84.895,289.306C84.897,289.279 84.901,289.251 84.906,289.22Z" style="fill:#7d1913;fill-rule:nonzero;"/>
                            <path d="M92.791,284.15C92.791,284.447 92.729,284.707 92.604,284.93C92.479,285.153 92.336,285.264 92.176,285.264C92.053,285.264 91.949,285.184 91.863,285.025C91.777,284.865 91.734,284.672 91.734,284.445C91.734,284.148 91.799,283.884 91.928,283.653C92.058,283.421 92.203,283.305 92.363,283.305C92.486,283.305 92.588,283.386 92.669,283.548C92.75,283.709 92.791,283.91 92.791,284.15ZM92.109,288.592C92.109,288.893 92.046,289.154 91.921,289.374C91.796,289.595 91.654,289.705 91.493,289.705C91.371,289.705 91.266,289.625 91.18,289.466C91.094,289.307 91.051,289.113 91.051,288.886C91.051,288.585 91.117,288.32 91.248,288.09C91.378,287.861 91.523,287.747 91.681,287.747C91.803,287.747 91.905,287.827 91.987,287.989C92.068,288.15 92.109,288.351 92.109,288.592Z" style="fill:#7d1913;fill-rule:nonzero;"/>
                        </g>
                    </g>
                    <g transform="matrix(0.912116,-0.409932,0.409932,0.912116,-164.808,64.5603)">
                        <g transform="matrix(1,0,0,1,0,0.178041)">
                            <path d="M107.877,259.213L107.877,259.391L106.942,260.108L106.826,260.019L107.877,259.213ZM107.877,260.825L107.877,261.003L106.942,261.72L106.826,261.631L107.877,260.825ZM107.877,262.437L107.877,262.615L106.942,263.332L106.826,263.243L107.877,262.437ZM107.877,264.049L107.877,264.227L106.942,264.944L106.826,264.855L107.877,264.049ZM107.877,265.661L107.877,265.839L106.942,266.556L106.826,266.467L107.877,265.661ZM107.877,267.273L107.877,267.451L106.826,268.257L78.796,268.257L77.746,267.451L77.746,267.273L78.796,268.079L106.826,268.079L107.877,267.273ZM78.68,266.556L77.746,265.839L77.746,265.661L78.796,266.467L78.68,266.556ZM78.68,264.944L77.746,264.227L77.746,264.049L78.796,264.855L78.68,264.944ZM78.68,263.332L77.746,262.615L77.746,262.437L78.796,263.243L78.68,263.332ZM78.68,261.72L77.746,261.003L77.746,260.825L78.796,261.631L78.68,261.72ZM78.68,260.108L77.746,259.391L77.746,259.213L78.796,260.019L78.68,260.108Z" style="fill:#8fe1ff;fill-opacity:0.5;"/>
                        </g>
                        <path d="M78.796,260.197L77.746,259.391L78.796,258.585L106.826,258.585L107.877,259.391L106.826,260.197L107.877,261.003L106.826,261.809L107.877,262.615L106.826,263.421L107.877,264.227L106.826,265.033L107.877,265.839L106.826,266.645L107.877,267.451L106.826,268.257L78.796,268.257L77.746,267.451L78.796,266.645L77.746,265.839L78.796,265.033L77.746,264.227L78.796,263.421L77.746,262.615L78.796,261.809L77.746,261.003L78.796,260.197Z" style="fill:#8fe1ff;fill-opacity:0.25;"/>
                        <g transform="matrix(0.955658,5.55112e-17,0,0.774697,4.58862,59.0496)">
                            <rect x="80.025" y="258.585" width="26.058" height="2.433" style="fill:#fff;fill-opacity:0.08;"/>
                        </g>
                        <g transform="matrix(0.955658,1.15983e-16,3.24822e-17,0.334544,4.58862,175.716)">
                            <rect x="80.025" y="258.585" width="26.058" height="2.433" style="fill:#fff;fill-opacity:0.08;"/>
                        </g>
                    </g>
                </g>
            </g>
        </g>
    </g>
</svg>
