<?xml version="1.0" encoding="UTF-8" standalone="no"?><!DOCTYPE svg PUBLIC "-//W3C//DTD SVG 1.1//EN" "http://www.w3.org/Graphics/SVG/1.1/DTD/svg11.dtd"><svg width="100%" height="100%" viewBox="0 0 1250 1438" version="1.1" xmlns="http://www.w3.org/2000/svg" xmlns:xlink="http://www.w3.org/1999/xlink" xml:space="preserve" xmlns:serif="http://www.serif.com/" style="fill-rule:evenodd;clip-rule:evenodd;stroke-linejoin:round;stroke-miterlimit:2;"><g id="frog"><g id="ClothingFrog"><path d="M0,1091.71c0,83.661 67.922,151.584 151.583,151.584l946.834,-0c83.661,-0 151.583,-67.923 151.583,-151.584l-0,194.209c-0,83.156 -68.427,151.583 -151.583,151.583l-946.834,-0c-83.156,-0 -151.583,-68.427 -151.583,-151.583l-0,-194.209Z" style="fill:#749f1e;fill-rule:nonzero;"/><path d="M12.606,1178.92l-0.106,-0.168l0,107.163c0,76.299 62.784,139.083 139.083,139.083l946.834,-0c76.299,-0 139.083,-62.784 139.083,-139.083l-0,-107.163c-0.22,0.351 -0.441,0.7 -0.663,1.047l0,-26.262c8.459,-18.886 13.163,-39.813 13.163,-61.831l-0,194.209c-0,83.156 -68.427,151.583 -151.583,151.583l-946.834,-0c-83.156,-0 -151.583,-68.427 -151.583,-151.583l-0,-194.209c-0,21.532 4.499,42.021 12.606,60.576l0,26.638Z" style="fill:#587634;"/><path d="M869.867,1437.5c-0,-76.292 -109.631,-138.138 -244.867,-138.138c-135.236,-0 -244.867,61.846 -244.867,138.138l489.734,-0Z" style="fill:#e8ffb9;"/><path d="M402.6,1437.5l-22.467,0c0,-76.292 109.631,-138.138 244.867,-138.138c135.236,-0 244.867,61.846 244.867,138.138l-22.538,-0c-0.526,-8.807 -1.822,-14.913 -4.777,-22.738l0.001,0.001c-6.121,-14.998 -18.055,-28.709 -33.799,-40.826c-41.385,-31.851 -108.387,-51.837 -183.754,-51.837c-75.367,-0 -142.369,19.986 -183.754,51.837c-15.744,12.117 -27.678,25.828 -33.798,40.825c-3.188,7.81 -4.262,15.407 -4.848,22.738Z" style="fill:#ceeb92;"/><path d="M367.633,1437.5l514.734,0l-0,-0c-0,-34.083 -18.946,-65.956 -52.122,-91.489c-46.299,-35.632 -120.928,-59.149 -205.245,-59.149c-84.317,-0 -158.946,23.517 -205.245,59.149c-33.176,25.533 -52.122,57.406 -52.122,91.489Zm502.234,-0c-0,-76.292 -109.631,-138.138 -244.867,-138.138c-135.236,-0 -244.867,61.846 -244.867,138.138l489.734,-0Z" style="fill:#587634;"/></g></g></svg>