<?xml version="1.0" encoding="UTF-8" standalone="no"?>
<!-- Created with Inkscape (http://www.inkscape.org/) -->

<svg
   width="36"
   height="36"
   viewBox="0 0 9.5250001 9.5249999"
   version="1.1"
   id="svg5"
   xml:space="preserve"
   inkscape:version="1.2 (dc2aedaf03, 2022-05-15)"
   sodipodi:docname="sellIcon2.svg"
   xmlns:inkscape="http://www.inkscape.org/namespaces/inkscape"
   xmlns:sodipodi="http://sodipodi.sourceforge.net/DTD/sodipodi-0.dtd"
   xmlns="http://www.w3.org/2000/svg"
   xmlns:svg="http://www.w3.org/2000/svg"><sodipodi:namedview
     id="namedview7"
     pagecolor="#505050"
     bordercolor="#ffffff"
     borderopacity="1"
     inkscape:showpageshadow="0"
     inkscape:pageopacity="0"
     inkscape:pagecheckerboard="1"
     inkscape:deskcolor="#505050"
     inkscape:document-units="mm"
     showgrid="false"
     inkscape:zoom="7.5211951"
     inkscape:cx="10.769565"
     inkscape:cy="17.68336"
     inkscape:window-width="1366"
     inkscape:window-height="705"
     inkscape:window-x="-8"
     inkscape:window-y="-8"
     inkscape:window-maximized="1"
     inkscape:current-layer="layer1" /><defs
     id="defs2" /><g
     inkscape:label="Layer 1"
     inkscape:groupmode="layer"
     id="layer1"
     transform="translate(-144.13377,-114.75111)"><g
       id="g5144"
       transform="translate(0,-0.10826)"><path
         id="path2695"
         style="fill:#562605;fill-opacity:1;fill-rule:evenodd;stroke:#562605;stroke-width:0.753936;stroke-dasharray:none;stroke-opacity:1"
         d="m 148.89607,115.39796 c -2.27179,1.1e-4 -4.10756,1.90721 -4.10764,4.22391 8e-5,2.31671 1.83585,4.2238 4.10764,4.22391 2.27179,-1.1e-4 4.10795,-1.9072 4.10804,-4.22391 -9e-5,-2.3167 -1.83625,-4.2238 -4.10804,-4.22391 z" /><path
         id="path2692"
         style="fill:#db6c0b;fill-opacity:1;fill-rule:evenodd;stroke-width:0.206714"
         d="m 148.89607,115.2897 c -2.27179,1.1e-4 -4.10756,1.90721 -4.10764,4.22391 8e-5,2.31671 1.83585,4.2238 4.10764,4.22391 2.27179,-1.1e-4 4.10795,-1.9072 4.10804,-4.22391 -9e-5,-2.3167 -1.83625,-4.2238 -4.10804,-4.22391 z" /><path
         style="color:#000000;fill:#ffdf6a;fill-rule:evenodd;stroke-width:1.08442;stroke-linecap:round;stroke-linejoin:round;-inkscape-stroke:none;paint-order:stroke fill markers"
         d="m 148.89627,115.83273 a 3.5659814,3.6810129 0 0 0 -3.56582,3.68088 3.5659814,3.6810129 0 0 0 3.56582,3.68088 3.5659814,3.6810129 0 0 0 3.56581,-3.68088 3.5659814,3.6810129 0 0 0 -3.56581,-3.68088 z m 0,0.99723 a 2.5997154,2.6835772 0 0 1 2.59967,2.68365 2.5997154,2.6835772 0 0 1 -2.59967,2.68365 2.5997154,2.6835772 0 0 1 -2.59968,-2.68365 2.5997154,2.6835772 0 0 1 2.59968,-2.68365 z m 0.0311,0.42756 a 2.216516,2.2880167 0 0 0 -2.21652,2.28798 2.216516,2.2880167 0 0 0 2.21652,2.28799 2.216516,2.2880167 0 0 0 2.21654,-2.28799 2.216516,2.2880167 0 0 0 -2.21654,-2.28798 z m -0.0404,0.69443 c 0.12361,-0.005 0.25209,0.12309 0.35852,0.38275 0.10574,0.25792 0.19099,0.46676 0.18613,0.46348 -0.005,-0.004 0.28406,-0.002 0.61166,-7.8e-4 0.49933,0.002 0.59038,0.25156 0.20954,0.57452 -0.24985,0.21189 -0.47096,0.39921 -0.46914,0.39284 0.002,-0.005 0.0741,0.21829 0.16149,0.49135 0.16827,0.52532 -0.0641,0.70697 -0.53334,0.41706 -0.24393,-0.15069 -0.44403,-0.27474 -0.43805,-0.27495 0.006,-2.2e-4 -0.21943,0.16245 -0.47883,0.34924 -0.4138,0.29794 -0.63919,0.14656 -0.51841,-0.34883 0.0757,-0.31058 0.14191,-0.58102 0.14414,-0.57493 0.002,0.006 -0.23029,-0.16455 -0.49378,-0.35771 -0.40369,-0.29594 -0.33038,-0.55153 0.16877,-0.58905 0.32578,-0.0245 0.61323,-0.0465 0.60803,-0.0424 -0.005,0.004 0.0658,-0.21084 0.15301,-0.4756 0.0878,-0.26654 0.20666,-0.40259 0.33026,-0.40696 z"
         id="path2564" /></g></g></svg>
