<?xml version="1.0" encoding="UTF-8" standalone="no"?>
<svg
   viewBox="0 0 300 345"
   version="1.1"
   id="svg843"
   sodipodi:docname="cow.svg"
   xml:space="preserve"
   inkscape:version="1.2 (dc2aedaf03, 2022-05-15)"
   xmlns:inkscape="http://www.inkscape.org/namespaces/inkscape"
   xmlns:sodipodi="http://sodipodi.sourceforge.net/DTD/sodipodi-0.dtd"
   xmlns="http://www.w3.org/2000/svg"
   xmlns:svg="http://www.w3.org/2000/svg"
   xmlns:rdf="http://www.w3.org/1999/02/22-rdf-syntax-ns#"
   xmlns:cc="http://creativecommons.org/ns#"
   xmlns:dc="http://purl.org/dc/elements/1.1/"><sodipodi:namedview
     id="namedview18741"
     pagecolor="#505050"
     bordercolor="#ffffff"
     borderopacity="1"
     inkscape:showpageshadow="0"
     inkscape:pageopacity="0"
     inkscape:pagecheckerboard="1"
     inkscape:deskcolor="#505050"
     showgrid="false"
     inkscape:zoom="0.66711859"
     inkscape:cx="198.61536"
     inkscape:cy="203.86181"
     inkscape:window-width="1366"
     inkscape:window-height="705"
     inkscape:window-x="-8"
     inkscape:window-y="-8"
     inkscape:window-maximized="1"
     inkscape:current-layer="svg843" /><metadata
     id="metadata847"><rdf:RDF><cc:Work
         rdf:about=""><dc:format>image/svg+xml</dc:format><dc:type
           rdf:resource="http://purl.org/dc/dcmitype/StillImage" /></cc:Work></rdf:RDF></metadata><defs
     id="defs837"><linearGradient
       y2="161.16"
       x2="150"
       y1="356.11"
       x1="150"
       id="A"
       gradientUnits="userSpaceOnUse"><stop
         stop-color="#0bc2cf"
         offset="0"
         id="stop832"
         style="stop-color:#bfe7fb;stop-opacity:1;" /><stop
         stop-color="#0b4fac"
         offset="1"
         id="stop834"
         style="stop-color:#4cc9f5;stop-opacity:1;" /></linearGradient><linearGradient
       id="A-6"
       x1="150"
       y1="356.11"
       x2="150"
       y2="161.16"
       gradientUnits="userSpaceOnUse"
       gradientTransform="translate(344.84009,7.7397103)"><stop
         offset="0"
         stop-color="#414042"
         id="stop62424" /><stop
         offset=".52"
         stop-color="#353333"
         id="stop62426" /></linearGradient><linearGradient
       id="B"
       x1="150"
       y1="356.12"
       x2="150"
       y2="161.02"
       gradientUnits="userSpaceOnUse"
       gradientTransform="translate(344.84009,7.7397103)"><stop
         offset="0"
         stop-color="#bfe7fb"
         id="stop62429" /><stop
         offset=".69"
         stop-color="#4cc9f5"
         id="stop62431" /></linearGradient></defs><path
     d="M263.62,345H36.38A36.38,36.38,0,0,1,0,308.62V259.14H300v49.48A36.38,36.38,0,0,1,263.62,345Z"
     fill="url(#A)"
     id="path839" /><rect
     rx="36.38"
     height="253.39"
     width="300"
     y="45"
     fill="#0bc2cf"
     id="rect841"
     style="fill:#e4f5fd;fill-opacity:1" /><path
     id="path61140"
     style="fill:#58595b;fill-opacity:1;fill-rule:evenodd;stroke:#58595b;stroke-opacity:1"
     d="M 81.203125 45 C 78.790769 46.960668 76.759294 49.265837 75.414062 51.914062 C 71.205422 60.199217 81.376953 57.890437 81.376953 79.974609 C 81.376953 102.05879 90.831822 98.916016 107.68555 98.916016 C 124.53924 98.916019 136.79883 104.86544 136.79883 82.78125 C 136.79883 74.189941 127.88543 61.377355 121.33984 50.525391 C 120.03567 48.363146 118.51128 46.542408 116.8418 45 L 81.203125 45 z M 134.92578 45 C 133.71025 50.018159 133.92192 54.356376 136.01172 55.953125 C 140.89171 59.681813 157.26471 58.037222 168.49609 53.035156 C 174.88637 57.112389 182.5338 59.798869 186.72266 56.755859 C 191.10097 53.575227 193.85124 48.556364 195.41406 45 L 134.92578 45 z M 240.65234 58.224609 C 233.41905 58.272357 228.19236 59.047481 227.25977 64.494141 C 225.08293 77.207148 247.99451 90.51271 258.65234 87.119141 C 265.28046 85.008683 267.98438 78.761431 267.98438 68.453125 C 267.98438 58.144819 259.55994 58.273435 248.4707 58.273438 C 245.69842 58.273438 243.06345 58.208694 240.65234 58.224609 z M 56.105469 60.158203 C 53.610185 60.241327 50.897263 60.956194 48.054688 62.435547 C 35.166509 69.142896 24.552734 66.498282 24.552734 81.027344 C 24.552732 95.556404 30.017815 113.64844 44.546875 113.64844 C 59.075934 113.64844 56.892414 102.73779 65.242188 90.847656 C 75.55773 76.15827 69.201472 60.630206 57.162109 60.160156 C 56.81482 60.146597 56.461938 60.146328 56.105469 60.158203 z M 192.21875 67.347656 C 181.19085 66.903526 175.55438 77.907392 165.7793 87.277344 C 153.62997 98.923123 138.90234 107.89785 138.90234 127.32812 C 138.90234 143.32004 159.30069 155.38054 165.41016 167.74805 C 172.69613 182.49721 177.29197 196.20052 190.11328 197.12891 C 218.76805 199.20373 216.21172 172.96395 213.66406 151.58008 C 212.25293 139.73572 237.11719 132.87243 237.11719 120.3125 C 237.11719 104.71135 224.48937 99.529338 217.73438 90.017578 C 209.30756 78.151776 203.58676 67.805488 192.21875 67.347656 z M 284.5 94.017578 C 283.97377 93.992097 283.44637 94.031449 282.91602 94.142578 C 272.37571 96.351183 270.55501 106.16395 265.02734 112.36719 C 258.13169 120.10559 251.90253 125.68182 253.10547 133.91992 C 254.27244 141.91153 262.45712 144.40587 270.08789 150.10742 C 279.39011 157.05782 287.31442 166.08667 300 163.83789 L 300 104.60352 C 294.96979 101.00511 289.83988 94.276151 284.5 94.017578 z M 0 99.109375 L 0 132.51953 C 11.355288 132.64375 20.136491 132.66836 21.486328 124.78516 C 23.241096 114.53705 11.81909 104.07212 0 99.109375 z M 81.980469 112.29297 C 76.809096 112.50048 71.223019 114.91039 65.548828 120.52539 C 41.735549 155.01968 26.681226 133.87907 19.1875 145.58789 C 5.7610836 168.81295 -9.0679411 211.53317 42.150391 194.89453 C 48.976599 192.67697 54.033709 210.58382 62.744141 210.63672 C 74.935619 210.71081 98.156712 182.41183 105.30859 193.86133 C 117.10368 225.74789 137.55407 211.46381 156.80859 184.87305 C 160.21959 171.38811 141.96167 156.07784 122.13281 164.07031 C 108.86945 169.41645 109.37096 143.07548 108.10547 137.03516 C 105.71109 125.60644 95.196199 111.76267 81.980469 112.29297 z M 264.86914 167.3418 C 259.83111 167.40898 257.02868 172.24995 255.0957 175.33789 C 254.1097 176.91307 251.881 177.5373 249.61133 178.26367 C 244.7047 171.50804 239.00104 173.4955 233.5918 177.2168 C 228.08057 181.00818 225.08073 185.53431 230.04883 192.75586 C 231.98155 195.56526 235.41248 199.76569 239.99414 201.8418 C 244.14811 203.72408 250.27044 200.0499 255.06055 195.39844 C 265.63826 197.72157 280.0546 196.2352 283.60352 192.15234 C 286.86656 188.39839 280.70915 175.3537 271.35156 169.49609 C 269.30458 168.21475 267.5018 167.57319 265.90625 167.39453 C 265.5501 167.35466 265.20501 167.33732 264.86914 167.3418 z M 0 206.80273 L 0 259.14062 L 0 262.00977 C 0 263.26941 0.063734313 264.51428 0.1875 265.74023 C 0.31126569 266.9662 0.49480174 268.17311 0.73632812 269.35938 C 0.97785452 270.54563 1.2775772 271.711 1.6308594 272.85156 C 1.9841415 273.99213 2.3905764 275.1084 2.8496094 276.19727 C 3.3086422 277.28612 3.8201276 278.34776 4.3789062 279.37891 C 4.937685 280.41006 5.5447462 281.40952 6.1972656 282.37695 C 6.8497851 283.34439 7.546854 284.28003 8.2871094 285.17773 C 9.0273646 286.07545 9.8108268 286.93583 10.632812 287.75781 C 11.454799 288.5798 12.315179 289.36326 13.212891 290.10352 C 13.711218 290.51444 14.247355 290.87937 14.767578 291.26367 C 19.517739 288.41061 28.205353 288.33152 30.943359 287.67773 C 42.040622 285.02792 56.400145 269.87603 42.466797 253.82812 C 18.393061 234.88613 33.14625 222.90999 24.974609 216.94922 C 17.721775 212.17037 7.7706549 207.22181 0 206.80273 z M 261.97852 211.99023 C 253.26805 212.04313 248.20906 229.94998 241.38281 227.73242 C 190.16443 211.09376 204.99544 253.81402 218.42188 277.03906 C 225.61788 288.28272 239.80903 269.37756 262.00977 298.39062 L 263.61914 298.39062 C 264.8788 298.39062 266.12365 298.32689 267.34961 298.20312 C 268.57557 298.07937 269.78248 297.89582 270.96875 297.6543 C 272.15502 297.41277 273.32037 297.11305 274.46094 296.75977 C 275.6015 296.40648 276.71778 296.00005 277.80664 295.54102 C 278.8955 295.08198 279.95713 294.5705 280.98828 294.01172 C 282.01943 293.45294 283.01889 292.84588 283.98633 292.19336 C 284.95376 291.54084 285.8894 290.84376 286.78711 290.10352 C 287.68482 289.36326 288.5452 288.5798 289.36719 287.75781 C 290.18917 286.93583 290.97263 286.07545 291.71289 285.17773 C 292.45315 284.28003 293.15022 283.34439 293.80273 282.37695 C 294.45525 281.40952 295.06231 280.41006 295.62109 279.37891 C 296.17987 278.34776 296.69136 277.28612 297.15039 276.19727 C 297.60942 275.1084 298.01586 273.99213 298.36914 272.85156 C 298.72242 271.711 299.02215 270.54563 299.26367 269.35938 C 299.5052 268.17311 299.68873 266.9662 299.8125 265.74023 C 299.93627 264.51428 300 263.26941 300 262.00977 L 300 259.14062 L 300 231.40039 C 290.267 231.86588 272.23611 211.9279 261.97852 211.99023 z M 93.458984 212.34766 C 89.53798 212.4429 85.295187 215.19008 79.636719 222.15234 C 65.708181 239.29026 59.269989 231.08407 57.310547 240.16797 C 53.831159 256.29819 71.450096 277.63651 92.074219 270.21094 C 103.99811 265.91782 118.99552 261.59676 124.41406 254.92969 C 138.34262 237.79177 125.07695 234.6765 111.99805 224.04688 C 104.23242 217.73548 99.189686 212.20845 93.458984 212.34766 z M 171.01367 217.51172 C 170.05738 217.5177 169.14323 217.66457 168.29297 217.9707 C 163.04942 219.85859 158.88868 224.19119 156.50586 227.12305 C 150.3808 234.65942 153.29348 239.92325 159.04492 244.59766 C 164.7964 249.27204 163.57534 247.81623 173.11914 249.61328 C 181.05015 251.10666 190.27179 244.87294 191.36914 239.94336 C 193.46059 230.54793 180.25779 217.45386 171.01367 217.51172 z M 127.90234 279.66797 C 118.43196 279.55917 108.25958 281.97155 105.61719 285.55273 C 103.85991 287.93434 105.75923 293.34444 109.62109 298.39062 L 136.68164 298.39062 C 140.49833 295.79686 148.58245 295.70775 145.67773 286.77539 C 144.06768 281.82419 136.25859 279.76396 127.90234 279.66797 z M 187.08203 282.60156 C 185.75616 282.60425 184.29161 282.75664 182.67188 283.08398 C 172.60793 285.11767 162.85161 292.11285 158.36719 298.39062 L 200.67773 298.39062 C 199.62462 293.17744 198.26225 284.94391 190.66016 283.01562 C 189.59525 282.74556 188.40791 282.59887 187.08203 282.60156 z " /><path
     id="path61329"
     style="fill:#3e3d3e;fill-opacity:1;fill-rule:evenodd"
     d="M 136.68164 298.39062 L 109.62109 298.39062 C 112.20413 301.76579 115.64061 304.98105 119.53906 307.00781 C 129.26607 312.06478 132.89151 304.32195 135.16992 299.93945 C 135.49625 299.31176 136.0436 298.82423 136.68164 298.39062 z " /><path
     id="path61325"
     style="fill:#3e3d3e;fill-opacity:1;fill-rule:evenodd"
     d="M 200.67773 298.39062 L 158.36719 298.39062 C 156.2527 301.35071 155.29911 304.15254 156.05859 306.19727 C 158.63643 313.13744 176.38614 321.98862 191.05469 324.11133 C 194.94821 332.37811 201.02005 340.03581 207.24805 339.62695 C 214.11732 339.17602 220.53557 335.45208 224.36523 332.78516 C 234.20947 325.92972 232.54817 318.68458 227.31641 311.17188 C 222.1814 303.79813 215.83393 298.50274 206.29297 304.79102 C 203.73591 302.76665 201.18343 300.89326 200.67969 298.40039 C 200.6791 298.39746 200.67833 298.39355 200.67773 298.39062 z " /><path
     id="path61321"
     style="fill:#3e3d3e;fill-opacity:1;fill-rule:evenodd"
     d="M 300 300.54883 L 300 262.00977 C 300 263.26942 299.93627 264.51427 299.8125 265.74023 C 299.68873 266.9662 299.5052 268.17311 299.26367 269.35938 C 299.02215 270.54564 298.72242 271.711 298.36914 272.85156 C 298.01586 273.99213 297.60942 275.1084 297.15039 276.19727 C 296.69136 277.28613 296.17987 278.34776 295.62109 279.37891 C 295.06231 280.41006 294.45525 281.40952 293.80273 282.37695 C 293.15021 283.34439 292.45315 284.28002 291.71289 285.17773 C 290.97263 286.07545 290.18917 286.93583 289.36719 287.75781 C 288.5452 288.5798 287.68482 289.36326 286.78711 290.10352 C 285.8894 290.84377 284.95376 291.54084 283.98633 292.19336 C 283.01889 292.84588 282.01943 293.45294 280.98828 294.01172 C 279.95713 294.5705 278.8955 295.08198 277.80664 295.54102 C 276.71778 296.00005 275.6015 296.40648 274.46094 296.75977 C 273.32037 297.11305 272.15502 297.41277 270.96875 297.6543 C 269.78248 297.89582 268.57557 298.07936 267.34961 298.20312 C 266.12365 298.32689 264.8788 298.39062 263.61914 298.39062 L 262.00977 298.39062 C 262.92825 299.59095 263.83714 300.73116 264.7832 302.10156 C 278.62385 315.79788 291.93066 310.41276 300 300.54883 z " /><path
     id="path61319"
     style="fill:#3e3d3e;fill-opacity:1;fill-rule:evenodd"
     d="M 118.45508 345 L 183.93555 345 C 183.92329 344.80907 183.96541 344.63892 183.94141 344.44336 C 181.99136 328.55597 167.92305 332.77833 156.50781 336.47266 C 150.58019 338.391 144.56047 327.21444 138.17383 326.92383 C 137.74805 326.90445 137.31974 326.93309 136.89062 327.01758 C 128.36228 328.69682 126.89046 336.15858 122.41797 340.875 C 121.03547 342.33289 119.68828 343.68821 118.45508 345 z " /><path
     id="path61317"
     style="fill:#3e3d3e;fill-opacity:1;fill-rule:evenodd"
     d="M 14.767578 291.26367 C 14.247354 290.87937 13.711219 290.51444 13.212891 290.10352 C 12.315178 289.36326 11.454799 288.5798 10.632812 287.75781 C 9.8108255 286.93583 9.0273654 286.07545 8.2871094 285.17773 C 7.5468533 284.28002 6.8497857 283.34439 6.1972656 282.37695 C 5.5447455 281.40952 4.9376855 280.41006 4.3789062 279.37891 C 3.820127 278.34776 3.3086427 277.28613 2.8496094 276.19727 C 2.390576 275.1084 1.9841419 273.99213 1.6308594 272.85156 C 1.2775769 271.711 0.97785476 270.54564 0.73632812 269.35938 C 0.49480149 268.17311 0.31126581 266.9662 0.1875 265.74023 C 0.063734189 264.51427 0 263.26942 0 262.00977 L 0 308.61914 A 36.38 36.38 0 0 0 1.1542969 317.38867 A 36.38 36.38 0 0 0 4.3554688 325.55859 A 36.38 36.38 0 0 0 4.359375 325.57031 C 11.182995 322.01355 16.304598 310.79246 12.076172 298.83594 C 10.768412 295.13805 12.204128 292.80334 14.767578 291.26367 z M 56.525391 298.61133 C 54.584878 298.67273 52.348886 299.27404 49.757812 300.62109 C 37.912905 306.77914 29.231554 321.90616 32.802734 326.74609 C 38.859697 334.95497 77.403214 338.12218 81.585938 325.25977 C 85.714416 312.56414 71.565512 314.56523 68.791016 309.22852 C 66.623443 305.05921 63.455793 298.39205 56.525391 298.61133 z " /></svg>
