<?xml version="1.0" encoding="UTF-8" standalone="no"?>
<!-- Created with Inkscape (http://www.inkscape.org/) -->

<svg
   width="36"
   height="36"
   viewBox="0 0 9.5250001 9.5249999"
   version="1.1"
   id="svg5"
   xml:space="preserve"
   inkscape:version="1.2 (dc2aedaf03, 2022-05-15)"
   sodipodi:docname="liveDamageIcon.svg"
   xmlns:inkscape="http://www.inkscape.org/namespaces/inkscape"
   xmlns:sodipodi="http://sodipodi.sourceforge.net/DTD/sodipodi-0.dtd"
   xmlns="http://www.w3.org/2000/svg"
   xmlns:svg="http://www.w3.org/2000/svg"><sodipodi:namedview
     id="namedview7"
     pagecolor="#505050"
     bordercolor="#ffffff"
     borderopacity="1"
     inkscape:showpageshadow="0"
     inkscape:pageopacity="0"
     inkscape:pagecheckerboard="1"
     inkscape:deskcolor="#505050"
     inkscape:document-units="mm"
     showgrid="false"
     inkscape:zoom="11.28"
     inkscape:cx="12.101064"
     inkscape:cy="11.79078"
     inkscape:window-width="1366"
     inkscape:window-height="705"
     inkscape:window-x="-8"
     inkscape:window-y="-8"
     inkscape:window-maximized="1"
     inkscape:current-layer="layer1" /><defs
     id="defs2" /><g
     inkscape:label="Layer 1"
     inkscape:groupmode="layer"
     id="layer1"
     transform="translate(-144.13377,-114.75111)"><path
       style="color:#000000;fill:#562605;stroke-linecap:round;stroke-linejoin:round;-inkscape-stroke:none;paint-order:stroke fill markers"
       d="m 150.69922,115.07813 c -0.20738,-0.0106 -0.40917,0.0687 -0.55469,0.21679 l -0.62695,0.63477 c -0.12978,-0.14377 -0.1894,-0.36556 -0.36328,-0.39453 -0.33119,-0.0552 -0.74205,0.13303 -0.89649,0.48632 l -0.3164,0.72071 -1.81446,-1.20117 c -0.15404,-0.10275 -0.33879,-0.15255 -0.52343,-0.13868 -0.57455,0.0438 -0.9407,0.71013 -0.66993,1.21875 l 0.69727,1.31446 -0.22656,-0.0156 a 0.61742674,0.61742674 0 0 0 -0.002,0 c -0.38626,-0.0251 -0.74252,0.24901 -0.85156,0.56836 -0.10904,0.31935 0.005,0.75429 0.32617,0.9707 l 0.79297,0.53321 -1.29883,1.63476 c -0.24015,0.30195 -0.21391,0.75103 -0.0117,1.01953 0.2022,0.26851 0.62783,0.41692 0.98438,0.26954 l 0.54102,-0.22266 -0.0586,0.19336 c -0.10042,0.33262 0.0572,0.70366 0.31055,0.875 0.25286,0.17098 0.65646,0.17858 0.92773,-0.0371 l 0.44727,-0.35547 c 0.12611,0.29896 0.37306,0.56208 0.66211,0.58008 0.33496,0.0209 0.72327,-0.2065 0.84375,-0.57227 l 0.36914,-1.1289 1.40625,1.06836 a 0.61742674,0.61742674 0 0 0 0,0.002 c 0.30185,0.22833 0.75242,0.18541 1.0039,-0.0273 0.25149,-0.21276 0.36853,-0.65082 0.19336,-0.98633 l -0.26757,-0.51172 0.78906,0.0606 c 0.32468,0.0241 0.63842,-0.19905 0.74414,-0.4668 0.10572,-0.26775 0.0289,-0.64342 -0.22461,-0.84766 l -0.26367,-0.21093 0.16211,-0.0293 a 0.61742674,0.61742674 0 0 0 0.004,0 c 0.37186,-0.0673 0.64371,-0.42719 0.65821,-0.75586 0.0145,-0.32867 -0.22537,-0.71073 -0.58985,-0.81055 a 0.61742674,0.61742674 0 0 0 -0.002,0 l -1.31836,-0.35547 0.52148,-0.58593 c 0.2551,-0.28797 0.25447,-0.73823 0.0664,-1.01563 -0.18806,-0.27739 -0.60681,-0.44676 -0.96875,-0.31641 a 0.61742674,0.61742674 0 0 0 -0.002,0 l -0.0137,0.004 0.0937,-0.5332 c 0.0738,-0.41993 -0.25388,-0.82979 -0.67969,-0.85156 z m -1.6875,3.87304 0.0547,0.0547 a 0.61742674,0.61742674 0 0 0 -0.006,0.0234 L 149,119.08008 a 0.61742674,0.61742674 0 0 0 0.0117,-0.12891 z m -0.43945,0.0957 a 0.61742674,0.61742674 0 0 0 0.34179,0.10546 l -0.50586,0.42969 a 0.61742674,0.61742674 0 0 0 0.0508,0.0508 h 0.002 a 0.61742674,0.61742674 0 0 0 0.5332,-0.4707 0.61742674,0.61742674 0 0 0 0.0371,0.004 0.61742674,0.61742674 0 0 0 0.0957,0.20703 0.61742674,0.61742674 0 0 0 -0.28906,0.52148 0.61742674,0.61742674 0 0 0 -0.42969,0.16211 0.61742674,0.61742674 0 0 0 -0.41211,-0.13867 0.61742674,0.61742674 0 0 0 -0.0313,-0.51953 0.61742674,0.61742674 0 0 0 0.10157,-0.15821 0.61742674,0.61742674 0 0 0 0.29882,0.29883 l 0.0371,-0.44922 a 0.61742674,0.61742674 0 0 0 0.16993,-0.043 z m 2.96484,3.28515 c 5.2e-4,3.9e-4 10e-4,-3.9e-4 0.002,0 v 0.002 z"
       id="path14767" /><path
       style="color:#000000;fill:#562605;stroke-width:1.23473;stroke-linecap:round;stroke-linejoin:round;-inkscape-stroke:none;paint-order:stroke fill markers"
       d="m 150.66812,115.69401 a 0.10976278,0.10976278 0 0 0 -0.0839,0.0327 l -0.77171,0.78476 0.0995,0.45519 a 0.17596275,0.17596275 0 0 0 0.24115,0.1241 l 0.42756,-0.18389 0.18992,-1.0842 a 0.10976278,0.10976278 0 0 0 -0.1025,-0.12862 z m -5.01761,0.32456 a 0.21300932,0.21300932 0 0 0 -0.17182,0.31249 l 1.21635,2.29252 -1.33191,-0.0884 a 0.22549023,0.22549023 0 0 0 -0.14067,0.41197 l 1.34696,0.90686 -1.71423,2.15637 a 0.21699315,0.21699315 0 0 0 0.25272,0.33561 l 2.54371,-1.05155 0.36023,1.86395 a 0.2169917,0.2169917 0 0 0 0.41903,0.0261 l 0.63906,-1.95238 2.09607,1.59316 a 0.1861659,0.1861659 0 0 0 0.27734,-0.23463 l -1.27563,-2.43168 2.65526,-0.46775 a 0.18616586,0.18616586 0 0 0 0.016,-0.36274 l -2.28047,-0.61496 1.18219,-1.33189 a 0.21300684,0.21300684 0 0 0 -0.23162,-0.34165 l -2.15535,0.77824 -0.12359,-1.48112 a 0.21300807,0.21300807 0 0 0 -0.40747,-0.0679 l -0.61194,1.39068 -2.42615,-1.60622 a 0.21300932,0.21300932 0 0 0 -0.13415,-0.0352 z m 1.29673,1.60772 a 0.1151619,0.1151619 0 0 1 0.0723,0.0191 l 1.3118,0.86867 0.33059,-0.7521 a 0.11516122,0.11516122 0 0 1 0.22056,0.0366 l 0.0668,0.80084 1.16509,-0.42101 a 0.11516056,0.11516056 0 0 1 0.12511,0.18488 l -0.63908,0.71996 1.23292,0.3326 a 0.10064918,0.10064918 0 0 1 -0.009,0.19594 l -1.4354,0.25322 0.68931,1.31431 a 0.1006492,0.1006492 0 0 1 -0.14971,0.12711 l -1.13344,-0.86113 -0.34517,1.05506 a 0.11731494,0.11731494 0 0 1 -0.22658,-0.0141 l -0.19495,-1.00734 -1.3751,0.56823 a 0.11731573,0.11731573 0 0 1 -0.13666,-0.18137 l 0.92645,-1.16561 -0.72799,-0.49035 a 0.12190961,0.12190961 0 0 1 0.0758,-0.22307 l 0.72046,0.0477 -0.65765,-1.23946 a 0.1151619,0.1151619 0 0 1 0.0929,-0.16881 z m 1.51127,1.38917 v 5.1e-4 h 0.003 z m 3.36014,1.33994 -0.39238,0.12712 a 0.21978522,0.21978522 0 0 0 -0.1246,0.3155 l 0.19945,0.36074 1.05709,0.0793 a 0.12249245,0.12249245 0 0 0 0.0859,-0.21755 z m -4.69707,1.71122 a 0.24171132,0.24171132 0 0 0 -0.0698,0.01 l -0.37029,0.10903 -0.26527,0.87872 a 0.16671957,0.16671957 0 0 0 0.26377,0.17836 l 0.71695,-0.57276 -0.0367,-0.38434 a 0.24171132,0.24171132 0 0 0 -0.23865,-0.21855 z"
       id="path14769" /><rect
       style="fill:#db6c0b;fill-opacity:1;stroke:none;stroke-width:0.970613;stroke-linecap:round;stroke-linejoin:round;stroke-dasharray:none;stroke-opacity:1;paint-order:stroke fill markers;stop-color:#000000"
       id="rect6108"
       width="4.7432661"
       height="3.785491"
       x="146.58778"
       y="117.84805" /><path
       id="path14759"
       style="color:#000000;fill:#db6c0b;stroke-linecap:round;stroke-linejoin:round;paint-order:stroke fill markers"
       d="M 150.6357 115.18364 C 150.51582 115.19043 150.40112 115.24203 150.31634 115.32834 L 149.54688 116.10917 C 149.48688 115.87823 149.32396 115.67367 149.11538 115.63891 C 148.87973 115.59961 148.59135 115.72841 148.48027 115.98256 L 148.04671 116.96493 L 145.99205 115.60532 L 145.98999 115.60532 C 145.93519 115.56902 145.86738 115.57285 145.80447 115.55675 A 0.37434593 0.37434593 0 0 0 145.78121 115.53142 L 145.77915 115.54899 C 145.72555 115.53779 145.67833 115.50345 145.62308 115.50765 A 0.37434593 0.37434593 0 0 0 145.62102 115.50765 C 145.21235 115.53885 144.95558 116.00939 145.14818 116.37117 L 146.05045 118.06822 L 145.38847 118.02533 A 0.37434593 0.37434593 0 0 0 145.38641 118.02533 C 145.10701 118.00723 144.85933 118.20139 144.78128 118.42996 C 144.70328 118.65851 144.78117 118.96433 145.0133 119.12087 L 146.02513 119.80093 L 144.56217 121.64061 C 144.38909 121.85817 144.40844 122.1737 144.55235 122.36512 C 144.6965 122.55655 144.99254 122.66099 145.24946 122.55477 L 146.26336 122.13671 L 146.0582 122.82038 C 145.988 123.05289 146.09752 123.30522 146.27317 123.42397 C 146.4488 123.54272 146.72382 123.55039 146.91345 123.39864 L 147.59712 122.85139 L 147.64415 123.09169 A 0.37434593 0.37434593 0 0 0 147.64415 123.09375 C 147.69745 123.36603 147.94849 123.55528 148.18727 123.57021 C 148.42605 123.58511 148.69987 123.42755 148.78672 123.16403 L 149.26162 121.71089 L 150.93904 122.98627 C 151.15324 123.1483 151.46379 123.11804 151.64029 122.9687 C 151.8168 122.81938 151.89946 122.51948 151.77516 122.2814 A 0.37434593 0.37434593 0 0 0 151.77516 122.28088 A 0.37434593 0.37434593 0 0 0 151.77516 122.28037 A 0.37434593 0.37434593 0 0 0 151.77516 122.27985 A 0.37434593 0.37434593 0 0 0 151.77516 122.27933 L 151.22998 121.23805 A 0.37434593 0.37434593 0 0 0 151.47234 121.39463 L 152.52912 121.47473 A 0.37434593 0.37434593 0 0 0 152.53119 121.47473 C 152.75162 121.49103 152.95757 121.34255 153.02883 121.16209 C 153.10013 120.98163 153.05055 120.73026 152.87846 120.59158 L 152.19891 120.04484 L 152.88827 119.92392 A 0.37434593 0.37434593 0 0 0 152.89034 119.92185 C 153.15416 119.87405 153.33906 119.62695 153.34923 119.3963 C 153.35943 119.16566 153.19595 118.90078 152.93737 118.82993 A 0.37434593 0.37434593 0 0 0 152.9353 118.82993 L 151.2398 118.37311 L 152.02114 117.4941 A 0.37434593 0.37434593 0 0 0 152.02114 117.49358 A 0.37434593 0.37434593 0 0 0 152.02114 117.49306 A 0.37434593 0.37434593 0 0 0 152.02114 117.49254 A 0.37434593 0.37434593 0 0 0 152.02114 117.49203 C 152.20457 117.28493 152.19992 116.97056 152.0661 116.77321 C 151.9323 116.57585 151.64271 116.45676 151.38242 116.55048 L 150.97211 116.69931 L 151.13851 115.75002 C 151.18771 115.46986 150.97144 115.19818 150.68738 115.18364 C 150.67012 115.18277 150.65282 115.18267 150.6357 115.18364 z M 150.25381 116.45695 L 150.24606 116.50604 L 150.22642 116.51586 L 150.22022 116.49261 L 150.25381 116.45695 z M 146.10523 116.57787 L 146.9181 117.11737 C 146.68883 117.13497 146.68839 117.39227 146.65041 117.60365 L 146.10523 116.57787 z M 148.91022 116.86313 L 148.94536 117.29514 C 148.90096 117.27114 148.89469 117.19547 148.84769 117.18765 C 148.80859 117.18065 148.78364 117.24135 148.74227 117.24605 L 148.91022 116.86313 z M 146.92016 117.11531 L 146.9646 117.11531 A 0.37434593 0.37434593 0 0 0 146.92585 117.11737 C 146.924 117.11748 146.92201 117.11558 146.92016 117.11531 z M 151.03929 117.47084 L 150.54888 118.02326 C 150.53568 117.97316 150.5859 117.91544 150.5587 117.87495 C 150.4935 117.77865 150.34803 117.79427 150.2228 117.7654 L 151.03929 117.47084 z M 147.66224 118.38293 L 148.12526 118.68937 A 0.37434593 0.37434593 0 0 0 148.1697 118.69557 A 0.37434593 0.37434593 0 0 0 148.08392 118.87902 A 0.37434593 0.37434593 0 0 0 148.40431 119.19942 L 148.44152 118.73278 A 0.37434593 0.37434593 0 0 0 148.57226 118.61754 L 148.79498 118.84182 A 0.37434593 0.37434593 0 0 0 148.80119 118.78342 A 0.37434593 0.37434593 0 0 0 149.0761 118.81443 L 149.31278 118.72864 A 0.37434593 0.37434593 0 0 0 149.50192 119.30897 L 149.54533 119.32034 L 149.32415 119.35961 A 0.37434593 0.37434593 0 0 0 149.05698 119.90273 L 149.17377 120.12546 L 149.02184 120.01022 A 0.37434593 0.37434593 0 0 0 148.43945 120.1916 L 148.40276 120.30271 L 148.39656 120.2717 A 0.37434593 0.37434593 0 0 0 147.88496 119.99627 L 147.42763 120.18592 L 147.73613 119.79731 A 0.37434593 0.37434593 0 0 0 147.65242 119.25419 L 147.61935 119.23249 A 0.37434593 0.37434593 0 0 0 147.84207 118.72296 L 147.66224 118.38293 z M 148.46115 118.50592 L 148.47666 118.52142 A 0.37434593 0.37434593 0 0 0 148.45909 118.52762 L 148.46115 118.50592 z M 148.6229 118.57258 A 0.37434593 0.37434593 0 0 0 148.64047 118.60152 A 0.37434593 0.37434593 0 0 0 148.6136 118.57982 A 0.37434593 0.37434593 0 0 0 148.6229 118.57258 z M 145.8887 118.80874 L 146.3202 118.83613 C 146.2887 118.95106 146.3762 119.05954 146.43544 119.17565 L 145.8887 118.80874 z M 148.7893 118.91623 L 148.42756 119.22267 A 0.37434593 0.37434593 0 0 0 148.45909 119.25419 L 148.46115 119.25419 A 0.37434593 0.37434593 0 0 0 148.7893 118.91623 z M 151.06616 119.10175 L 151.92554 119.33223 L 151.23256 119.45522 C 151.23856 119.43052 151.28004 119.42287 151.28114 119.39837 C 151.28714 119.27872 151.15713 119.1992 151.06616 119.10175 z M 148.40018 119.24438 L 148.39656 119.24799 L 148.40018 119.24799 L 148.40018 119.24438 z M 151.22068 120.21693 C 151.05908 120.38381 150.90199 120.56815 150.99433 120.79105 L 150.73853 120.30064 L 151.22068 120.21693 z M 151.74002 120.63654 L 151.7793 120.66806 L 151.73072 120.66393 L 151.71884 120.64429 L 151.74002 120.63654 z M 146.22046 120.75798 C 146.21146 120.88077 146.14975 121.00827 146.21685 121.09749 C 146.29105 121.19589 146.4431 121.17873 146.57807 121.19723 L 145.52748 121.63079 L 146.22046 120.75798 z M 150.34941 121.17552 L 150.7189 121.87884 L 150.16234 121.45509 C 150.20574 121.43759 150.26306 121.47966 150.2967 121.45096 C 150.3668 121.39146 150.32471 121.27405 150.34941 121.17552 z M 148.13094 121.66232 C 148.20174 121.70792 148.23121 121.81356 148.30871 121.81838 C 148.37561 121.82238 148.40974 121.73017 148.47666 121.70314 L 148.26375 122.35375 L 148.13094 121.66232 z M 147.00388 122.34393 L 147.00595 122.36718 L 146.96667 122.39871 L 146.98062 122.35168 L 147.00388 122.34393 z " /><path
       style="color:#000000;fill:#ffdf6a;stroke-width:0.748617;stroke-linecap:round;stroke-linejoin:round;-inkscape-stroke:none;paint-order:stroke fill markers"
       d="m 150.66812,115.55719 a 0.10976278,0.10976278 0 0 0 -0.0839,0.0327 l -0.77171,0.78476 0.0995,0.45519 a 0.17596275,0.17596275 0 0 0 0.24115,0.12409 l 0.42756,-0.18388 0.18992,-1.08421 a 0.10976278,0.10976278 0 0 0 -0.1025,-0.12861 z m -5.01761,0.32456 a 0.21300932,0.21300932 0 0 0 -0.17182,0.31249 l 1.21635,2.29252 -1.33191,-0.0884 a 0.22549023,0.22549023 0 0 0 -0.14067,0.41197 l 1.34696,0.90686 -1.71423,2.15636 a 0.21699315,0.21699315 0 0 0 0.25272,0.33562 l 2.54371,-1.05156 0.36023,1.86395 a 0.2169917,0.2169917 0 0 0 0.41903,0.0262 l 0.63906,-1.95238 2.09607,1.59316 a 0.1861659,0.1861659 0 0 0 0.27734,-0.23463 l -1.27563,-2.43169 2.65526,-0.46775 a 0.18616586,0.18616586 0 0 0 0.016,-0.36273 l -2.28047,-0.61496 1.18219,-1.3319 a 0.21300684,0.21300684 0 0 0 -0.23162,-0.34164 l -2.15535,0.77824 -0.12359,-1.48112 a 0.21300807,0.21300807 0 0 0 -0.40747,-0.0679 l -0.61194,1.39067 -2.42615,-1.60621 a 0.21300932,0.21300932 0 0 0 -0.13415,-0.0352 z m 1.29673,1.60772 a 0.1151619,0.1151619 0 0 1 0.0723,0.0191 l 1.3118,0.86867 0.33059,-0.75211 a 0.11516122,0.11516122 0 0 1 0.22056,0.0367 l 0.0668,0.80084 1.16509,-0.42101 a 0.11516056,0.11516056 0 0 1 0.12511,0.18488 l -0.63908,0.71996 1.23292,0.3326 a 0.10064918,0.10064918 0 0 1 -0.009,0.19594 l -1.4354,0.25321 0.68931,1.31432 a 0.1006492,0.1006492 0 0 1 -0.14971,0.12711 l -1.13344,-0.86113 -0.34517,1.05506 a 0.11731494,0.11731494 0 0 1 -0.22658,-0.0141 l -0.19495,-1.00734 -1.3751,0.56823 a 0.11731573,0.11731573 0 0 1 -0.13666,-0.18137 l 0.92645,-1.16561 -0.72799,-0.49035 a 0.12190961,0.12190961 0 0 1 0.0758,-0.22307 l 0.72046,0.0477 -0.65765,-1.23945 a 0.1151619,0.1151619 0 0 1 0.0929,-0.16881 z m 1.51127,1.38917 v 5e-4 h 0.003 z m 3.36014,1.33994 -0.39238,0.12711 a 0.21978522,0.21978522 0 0 0 -0.1246,0.31551 l 0.19945,0.36074 1.05709,0.0793 a 0.12249245,0.12249245 0 0 0 0.0859,-0.21754 z m -4.69707,1.71122 a 0.24171132,0.24171132 0 0 0 -0.0698,0.01 l -0.37029,0.10903 -0.26527,0.87872 a 0.16671957,0.16671957 0 0 0 0.26377,0.17835 l 0.71695,-0.57275 -0.0367,-0.38434 a 0.24171132,0.24171132 0 0 0 -0.23865,-0.21856 z"
       id="path14761" /></g></svg>
