<?xml version="1.0" encoding="UTF-8" standalone="no"?>
<!-- Created with Inkscape (http://www.inkscape.org/) -->

<svg
   width="100"
   height="100"
   viewBox="0 0 26.458333 26.458333"
   version="1.1"
   id="svg6092"
   inkscape:version="1.2 (dc2aedaf03, 2022-05-15)"
   sodipodi:docname="dice1.svg"
   xmlns:inkscape="http://www.inkscape.org/namespaces/inkscape"
   xmlns:sodipodi="http://sodipodi.sourceforge.net/DTD/sodipodi-0.dtd"
   xmlns:xlink="http://www.w3.org/1999/xlink"
   xmlns="http://www.w3.org/2000/svg"
   xmlns:svg="http://www.w3.org/2000/svg">
  <sodipodi:namedview
     id="namedview6094"
     pagecolor="#505050"
     bordercolor="#ffffff"
     borderopacity="1"
     inkscape:showpageshadow="0"
     inkscape:pageopacity="0"
     inkscape:pagecheckerboard="1"
     inkscape:deskcolor="#505050"
     inkscape:document-units="px"
     showgrid="false"
     inkscape:zoom="0.49085999"
     inkscape:cx="149.7372"
     inkscape:cy="236.31993"
     inkscape:window-width="1366"
     inkscape:window-height="705"
     inkscape:window-x="-8"
     inkscape:window-y="-8"
     inkscape:window-maximized="1"
     inkscape:current-layer="layer1" />
  <defs
     id="defs6089">
    <linearGradient
       inkscape:collect="always"
       xlink:href="#linearGradient5237"
       id="linearGradient5440"
       gradientUnits="userSpaceOnUse"
       x1="13.116103"
       y1="-0.33761016"
       x2="12.763577"
       y2="17.214821"
       gradientTransform="translate(0,187.33838)" />
    <linearGradient
       inkscape:collect="always"
       id="linearGradient5237">
      <stop
         style="stop-color:#ffffff;stop-opacity:0;"
         offset="0"
         id="stop5235" />
      <stop
         style="stop-color:#ffffff;stop-opacity:0.63554215;"
         offset="1"
         id="stop5233" />
    </linearGradient>
  </defs>
  <g
     inkscape:label="Layer 1"
     inkscape:groupmode="layer"
     id="layer1">
    <g
       id="g6222"
       transform="translate(0,-187.33829)">
      <rect
         style="fill:#f8f4f2;fill-opacity:1;stroke:none;stroke-width:6.79238;stroke-linecap:round;stroke-linejoin:round;stop-color:#000000"
         id="rect5406"
         width="26.458332"
         height="26.458332"
         x="0"
         y="187.33829"
         ry="3.2155864" />
      <rect
         style="fill:#eee9e8;fill-opacity:1;stroke:none;stroke-width:5.89588;stroke-linecap:round;stroke-linejoin:round;stop-color:#000000"
         id="rect5408"
         width="23.582792"
         height="22.365767"
         x="1.43777"
         y="189.38457"
         ry="2.7182007" />
      <path
         id="path5410"
         style="fill:url(#linearGradient5440);fill-opacity:1;stroke:none;stroke-width:8.65991;stroke-linecap:round;stroke-linejoin:round;stop-color:#000000"
         d="M 3.2158243,187.33838 C 1.4343912,187.33838 0,188.49035 0,189.92103 v 9.80977 c 8.8245026,0.49387 17.629211,0.36764 26.458333,0 v -9.80977 c 0,-1.43068 -1.434391,-2.58265 -3.215824,-2.58265 z"
         sodipodi:nodetypes="ssccsss" />
      <g
         id="g5823"
         transform="translate(-6.9275963,109.47649)">
        <g
           transform="matrix(-0.91125049,0,0,0.91125049,32.211846,64.38684)"
           class="UnoptimicedTransforms"
           id="g5422">
          <path
             style="fill:#4c4751;fill-opacity:1;fill-rule:evenodd;stroke-width:0.264583"
             d="m 16.97378,29.305016 c 0,2.068093 -1.676521,3.744614 -3.744614,3.744614 -2.068093,0 -3.7446141,-1.676521 -3.7446141,-3.744614 0,-2.068094 1.6765211,-3.744615 3.7446141,-3.744615 2.068093,0 3.744614,1.676521 3.744614,3.744615 z"
             id="path5486" />
          <path
             style="fill:#3c3840;fill-rule:evenodd;stroke-width:0.203254"
             d="m 16.105803,29.305016 c 0,1.588723 -1.287914,2.876637 -2.876637,2.876637 -1.588723,0 -2.876637,-1.287914 -2.876637,-2.876637 0,-1.588723 1.287914,0.113063 2.876637,0.113063 1.588723,0 2.876637,-1.701786 2.876637,-0.113063 z"
             id="path5492" />
        </g>
        <path
           style="fill:#4c4751;fill-opacity:1;fill-rule:evenodd;stroke-width:0.241101"
           d="m 16.744481,58.469609 c 0,1.884551 1.527731,3.412281 3.412282,3.412281 1.884551,0 3.412281,-1.52773 3.412281,-3.412281 0,-1.884552 -1.52773,-3.412282 -3.412281,-3.412282 -1.884551,0 -3.412282,1.52773 -3.412282,3.412282 z"
           id="path5475"
           transform="translate(0,32.621442)" />
        <path
           style="fill:#3c3840;fill-rule:evenodd;stroke-width:0.185215"
           d="m 17.535426,91.091051 c 0,1.447725 1.173612,2.621337 2.621337,2.621337 1.447724,0 2.621337,-1.173612 2.621337,-2.621337 0,-1.447725 -1.173613,0.103029 -2.621337,0.103029 -1.447725,0 -2.621337,-1.550754 -2.621337,-0.103029 z"
           id="path5469" />
      </g>
    </g>
  </g>
</svg>
