<?xml version="1.0" encoding="UTF-8" standalone="no"?>
<!-- Created with Inkscape (http://www.inkscape.org/) -->

<svg
   width="36"
   height="36"
   viewBox="0 0 9.5250001 9.5249999"
   version="1.1"
   id="svg5"
   xml:space="preserve"
   inkscape:version="1.2 (dc2aedaf03, 2022-05-15)"
   sodipodi:docname="damageIcon.svg"
   xmlns:inkscape="http://www.inkscape.org/namespaces/inkscape"
   xmlns:sodipodi="http://sodipodi.sourceforge.net/DTD/sodipodi-0.dtd"
   xmlns="http://www.w3.org/2000/svg"
   xmlns:svg="http://www.w3.org/2000/svg"><sodipodi:namedview
     id="namedview7"
     pagecolor="#505050"
     bordercolor="#ffffff"
     borderopacity="1"
     inkscape:showpageshadow="0"
     inkscape:pageopacity="0"
     inkscape:pagecheckerboard="1"
     inkscape:deskcolor="#505050"
     inkscape:document-units="mm"
     showgrid="false"
     inkscape:zoom="2.6600826"
     inkscape:cx="32.517788"
     inkscape:cy="17.668624"
     inkscape:window-width="1366"
     inkscape:window-height="705"
     inkscape:window-x="-8"
     inkscape:window-y="-8"
     inkscape:window-maximized="1"
     inkscape:current-layer="layer1" /><defs
     id="defs2"><inkscape:path-effect
       effect="fillet_chamfer"
       id="path-effect15543"
       is_visible="true"
       lpeversion="1"
       nodesatellites_param="F,0,0,1,0,0,0,1 @ F,0,0,1,0,0,0,1 @ F,0,0,1,0,1.3486224,0,1 @ F,0,0,1,0,0,0,1 @ F,0,0,1,0,0,0,1 @ F,0,0,1,0,0,0,1 @ F,0,0,1,0,0,0,1"
       unit="px"
       method="auto"
       mode="F"
       radius="0"
       chamfer_steps="1"
       flexible="false"
       use_knot_distance="true"
       apply_no_radius="true"
       apply_with_radius="true"
       only_selected="false"
       hide_knots="false" /><inkscape:path-effect
       effect="fillet_chamfer"
       id="path-effect14647"
       is_visible="true"
       lpeversion="1"
       nodesatellites_param="F,0,0,1,0,0,0,1 @ F,0,0,1,0,0,0,1 @ F,0,0,1,0,1.3486224,0,1 @ F,0,0,1,0,0,0,1 @ F,0,0,1,0,0,0,1 @ F,0,0,1,0,0,0,1 @ F,0,0,1,0,0,0,1"
       unit="px"
       method="auto"
       mode="F"
       radius="0"
       chamfer_steps="1"
       flexible="false"
       use_knot_distance="true"
       apply_no_radius="true"
       apply_with_radius="true"
       only_selected="false"
       hide_knots="false" /></defs><g
     inkscape:label="Layer 1"
     inkscape:groupmode="layer"
     id="layer1"
     transform="translate(-144.13377,-114.75111)"><g
       id="g16536"
       transform="matrix(1.1246829,0,0,1.1246829,-18.593716,-14.853394)"><path
         id="path16450"
         style="opacity:1;fill:#562605;fill-opacity:1;stroke:#562605;stroke-width:1.18;stroke-linecap:round;stroke-dasharray:none;stroke-opacity:1;paint-order:stroke fill markers;stop-color:#000000"
         d="m 147.76972,116.13081 c -0.37091,-0.009 -0.67212,0.28719 -0.75547,0.63303 -0.14952,0.43017 -0.32357,0.85293 -0.45629,1.28817 0.0701,0.33171 -0.38697,0.20492 -0.53848,0.43834 -0.25803,0.2135 -0.31554,0.64566 -0.0968,0.91482 -0.0137,0.54631 -0.0528,1.09545 -0.0506,1.63998 0.41808,0.56538 0.93697,1.04845 1.41323,1.56441 0.18511,0.30931 0.57017,0.15772 0.87292,0.19508 0.66137,-0.006 1.32507,0.0261 1.98487,-0.015 0.70118,-0.10917 1.21203,-0.81683 1.14858,-1.51453 0.0675,-0.41296 -0.18786,-0.96434 0.25101,-1.1923 0.16907,-0.28863 0.24587,-0.62219 0.37139,-0.93192 0.10133,-0.28174 0.26243,-0.60023 0.0738,-0.88512 -0.19266,-0.36058 -0.73701,-0.41784 -1.00712,-0.11611 0.11688,-0.50823 -0.40565,-1.01001 -0.90751,-0.87094 -0.15771,0.008 -0.34041,0.26062 -0.31848,-0.0235 -0.10878,-0.48998 -0.75198,-0.72639 -1.15252,-0.42498 -0.15298,0.13759 -0.0716,-0.33615 -0.24448,-0.41652 -0.13937,-0.17801 -0.36238,-0.28426 -0.58803,-0.28291 z" /><path
         id="path15515"
         style="opacity:1;fill:#db6c0b;fill-opacity:1;stroke:#db6c0b;stroke-width:0.68;stroke-linecap:round;stroke-dasharray:none;stroke-opacity:1;paint-order:stroke fill markers;stop-color:#000000"
         d="m 147.76972,116.05542 c -0.37091,-0.009 -0.67212,0.28719 -0.75547,0.63303 -0.14952,0.43017 -0.32357,0.85293 -0.45629,1.28817 0.0701,0.33171 -0.38697,0.20492 -0.53848,0.43834 -0.25803,0.2135 -0.31554,0.64566 -0.0968,0.91482 -0.0137,0.54631 -0.0528,1.09545 -0.0506,1.63998 0.41808,0.56538 0.93697,1.04845 1.41323,1.56441 0.18511,0.30931 0.57017,0.15772 0.87292,0.19508 0.66137,-0.006 1.32507,0.0261 1.98487,-0.015 0.70118,-0.10917 1.21203,-0.81683 1.14858,-1.51453 0.0675,-0.41296 -0.18786,-0.96434 0.25101,-1.1923 0.16907,-0.28863 0.24587,-0.62219 0.37139,-0.93192 0.10133,-0.28174 0.26243,-0.60023 0.0738,-0.88512 -0.19266,-0.36058 -0.73701,-0.41784 -1.00712,-0.11611 0.11688,-0.50823 -0.40565,-1.01001 -0.90751,-0.87094 -0.15771,0.008 -0.34041,0.26062 -0.31848,-0.0235 -0.10878,-0.48998 -0.75198,-0.72639 -1.15252,-0.42498 -0.15298,0.13759 -0.0716,-0.33615 -0.24448,-0.41652 -0.13937,-0.17801 -0.36238,-0.28426 -0.58803,-0.28291 z" /><path
         id="rect14595"
         style="opacity:1;fill:#ffdf6a;fill-opacity:1;stroke-width:0.379927;stroke-linecap:round;paint-order:stroke fill markers;stop-color:#000000"
         d="m 147.46539,118.39069 h 3.77887 c 0.0477,0.0353 0.0509,1.69969 0.0466,2.94563 -0.003,0.74479 -0.60996,1.39103 -1.35358,1.39506 -1.09927,0.006 -2.47191,-0.008 -2.47191,-0.008 -0.48521,-0.51325 -1.6284,-1.68285 -1.60201,-1.78527 0.03,-0.82186 0.0601,-1.64372 0.0902,-2.46558 0.50159,-0.0491 1.51181,-0.082 1.51181,-0.082 z"
         sodipodi:nodetypes="sssscss"
         inkscape:path-effect="#path-effect14647"
         inkscape:original-d="m 147.46539,118.39069 h 3.77887 c 0.0764,0.0566 0.0387,4.29418 0.0387,4.29418 -0.0566,0.0764 -3.81757,0.0387 -3.81757,0.0387 -0.48521,-0.51325 -1.6284,-1.68285 -1.60201,-1.78527 0.03,-0.82186 0.0601,-1.64372 0.0902,-2.46558 0.50159,-0.0491 1.51181,-0.082 1.51181,-0.082 z" /><path
         style="color:#000000;fill:#db6c0b;fill-opacity:1;stroke-linecap:round;paint-order:stroke fill markers"
         d="m 151.65757,117.91496 c -0.32872,-0.11934 -0.69644,0.0525 -0.81578,0.38121 l -0.40058,1.10336 c -0.11934,0.32872 0.0532,0.69461 0.38188,0.81395 0.32871,0.11934 0.69577,-0.0507 0.81511,-0.37937 l 0.40058,-1.10337 c 0.11934,-0.32871 -0.0525,-0.69644 -0.38121,-0.81578 z m -0.11398,0.31394 c 0.16028,0.0582 0.23944,0.22759 0.18125,0.38787 l -0.40058,1.10336 c -0.0582,0.16027 -0.22759,0.23944 -0.38787,0.18125 -0.16027,-0.0582 -0.23944,-0.2276 -0.18125,-0.38787 l 0.40058,-1.10337 c 0.0582,-0.16027 0.2276,-0.23943 0.38787,-0.18124 z"
         id="path15495" /><path
         style="color:#000000;fill:#ffdf6a;fill-opacity:1;stroke-width:0.333889;stroke-linecap:round;paint-order:stroke fill markers"
         d="m 151.6001,118.07124 c 0.24449,0.0888 0.36986,0.35706 0.2811,0.60156 l -0.40057,1.10331 c -0.0888,0.24449 -0.35705,0.36987 -0.60154,0.2811 -0.2445,-0.0888 -0.36987,-0.35705 -0.28111,-0.60155 l 0.40057,-1.10331 c 0.0888,-0.2445 0.35705,-0.36987 0.60155,-0.28111 z"
         id="path15497" /><path
         style="color:#000000;fill:#db6c0b;fill-opacity:1;stroke-linecap:round;paint-order:stroke fill markers"
         d="m 150.49816,117.22807 c -0.38831,-0.14098 -0.82245,0.0619 -0.96342,0.4502 l -0.47323,1.30347 c -0.14098,0.38831 0.0619,0.82245 0.4502,0.96343 0.38831,0.14097 0.82244,-0.0619 0.96342,-0.45021 l 0.47323,-1.30347 c 0.14097,-0.38831 -0.0619,-0.82245 -0.4502,-0.96342 z m -0.13464,0.37084 c 0.18933,0.0687 0.28273,0.26861 0.21399,0.45794 l -0.47323,1.30348 c -0.0687,0.18933 -0.26861,0.28273 -0.45794,0.21399 -0.18932,-0.0687 -0.28272,-0.26861 -0.21399,-0.45794 l 0.47323,-1.30347 c 0.0687,-0.18933 0.26861,-0.28273 0.45794,-0.214 z"
         id="path15489" /><path
         style="color:#000000;fill:#ffdf6a;fill-opacity:1;stroke-width:0.394421;stroke-linecap:round;paint-order:stroke fill markers"
         d="m 150.43059,117.41332 c 0.28883,0.10486 0.43693,0.42179 0.33208,0.71061 l -0.47319,1.30334 c -0.10485,0.28882 -0.42179,0.43692 -0.71061,0.33206 -0.28882,-0.10486 -0.43692,-0.42179 -0.33206,-0.71061 l 0.47318,-1.30334 c 0.10485,-0.28882 0.42179,-0.43692 0.7106,-0.33206 z"
         id="path15491" /><path
         style="color:#000000;fill:#db6c0b;fill-opacity:1;stroke-linecap:round;paint-order:stroke fill markers"
         d="m 149.28541,116.66518 c -0.38831,-0.14097 -0.82244,0.0619 -0.96342,0.45021 l -0.47323,1.30347 c -0.14097,0.38831 0.0619,0.82245 0.4502,0.96342 0.38832,0.14098 0.82245,-0.0619 0.96342,-0.4502 l 0.47323,-1.30347 c 0.14098,-0.38831 -0.0619,-0.82245 -0.4502,-0.96343 z m -0.13463,0.37085 c 0.18933,0.0687 0.28273,0.26861 0.21399,0.45794 l -0.47323,1.30347 c -0.0687,0.18933 -0.26861,0.28273 -0.45794,0.214 -0.18933,-0.0687 -0.28273,-0.26861 -0.21399,-0.45794 l 0.47323,-1.30348 c 0.0687,-0.18933 0.26861,-0.28273 0.45794,-0.21399 z"
         id="path15483" /><path
         style="color:#000000;fill:#ffdf6a;fill-opacity:1;stroke-width:0.394421;stroke-linecap:round;paint-order:stroke fill markers"
         d="m 149.21741,116.85005 c 0.28882,0.10486 0.43692,0.42179 0.33206,0.71061 l -0.47318,1.30334 c -0.10486,0.28882 -0.42179,0.43692 -0.71061,0.33206 -0.28882,-0.10485 -0.43692,-0.42179 -0.33206,-0.71061 l 0.47318,-1.30334 c 0.10485,-0.28882 0.42179,-0.43692 0.71061,-0.33206 z"
         id="path15485" /><path
         style="color:#000000;fill:#db6c0b;fill-opacity:1;stroke-linecap:round;paint-order:stroke fill markers"
         d="m 148.02762,116.10049 c -0.38831,-0.14098 -0.82245,0.0619 -0.96342,0.4502 l -0.47323,1.30347 c -0.14098,0.38831 0.0619,0.82245 0.4502,0.96343 0.38831,0.14097 0.82244,-0.0619 0.96342,-0.45021 l 0.47323,-1.30347 c 0.14097,-0.38831 -0.0619,-0.82245 -0.4502,-0.96342 z m -0.13464,0.37085 c 0.18933,0.0687 0.28273,0.2686 0.21399,0.45793 l -0.47323,1.30348 c -0.0687,0.18933 -0.26861,0.28273 -0.45794,0.21399 -0.18933,-0.0687 -0.28272,-0.26861 -0.21399,-0.45794 l 0.47323,-1.30347 c 0.0687,-0.18933 0.26861,-0.28273 0.45794,-0.21399 z"
         id="path15477" /><path
         style="color:#000000;fill:#ffdf6a;fill-opacity:1;stroke-width:0.394421;stroke-linecap:round;paint-order:stroke fill markers"
         d="m 147.96089,116.28679 c 0.28882,0.10485 0.43692,0.42178 0.33207,0.7106 l -0.47318,1.30334 c -0.10486,0.28882 -0.4218,0.43692 -0.71061,0.33207 -0.28883,-0.10486 -0.43692,-0.42179 -0.33206,-0.71061 l 0.47318,-1.30334 c 0.10485,-0.28882 0.42178,-0.43692 0.7106,-0.33206 z"
         id="path15479" /><path
         style="color:#000000;fill:#db6c0b;fill-opacity:1;stroke-width:0.999991;stroke-linecap:round;paint-order:stroke fill markers"
         d="m 149.24079,118.9518 c 0.007,-0.44153 -0.40997,-0.75628 -0.87434,-0.76115 l -1.68155,-0.0177 c -0.46437,-0.005 -0.89175,0.30101 -0.89899,0.74254 -0.007,0.44153 0.40998,0.75628 0.87436,0.76115 l 1.68155,0.0177 c 0.46436,0.005 0.89174,-0.30101 0.89897,-0.74254 z m -0.4277,-0.004 c -0.003,0.15475 -0.19248,0.35748 -0.47306,0.35453 l -1.50568,0.5187 c -0.28059,-0.003 -0.62326,-0.74581 -0.62073,-0.90056 0.003,-0.15475 0.18369,-0.32231 0.46428,-0.31936 l 1.68154,0.0177 c 0.28058,0.003 0.45618,0.17424 0.45365,0.32899 z"
         id="path15501"
         sodipodi:nodetypes="cccccccccccccc" /><path
         style="color:#000000;fill:#ffdf6a;fill-opacity:1;stroke-width:0.427801;stroke-linecap:round;paint-order:stroke fill markers"
         d="m 149.02613,118.94884 c -0.005,0.29814 -0.30867,0.53501 -0.68114,0.5311 l -1.68084,-0.0176 c -0.37247,-0.004 -0.66839,-0.24708 -0.66351,-0.54522 0.005,-0.29815 0.30867,-0.53502 0.68114,-0.53111 l 1.68084,0.0176 c 0.37247,0.004 0.66839,0.24708 0.66351,0.54523 z"
         id="path15503" /><path
         id="rect14711"
         style="opacity:1;fill:#ffdf6a;fill-opacity:1;stroke-width:0.264297;stroke-linecap:round;paint-order:stroke fill markers;stop-color:#000000"
         d="m 146.04992,118.78751 1.20348,0.12311 v 1.51649 h -1.22107 c -0.0458,-0.51026 -0.26312,-1.34119 0.0176,-1.6396 z"
         sodipodi:nodetypes="ccccc" /><path
         id="rect14713"
         style="opacity:1;fill:#db6c0b;fill-opacity:1;stroke-width:0.338681;stroke-linecap:round;paint-order:stroke fill markers;stop-color:#000000"
         d="m 148.94321,119.25726 h 0.21664 l 0.0216,1.34333 -0.71463,0.6712 0.37784,-0.57456 0.13595,-0.51716 z"
         sodipodi:nodetypes="ccccccc" /></g></g></svg>
