<?xml version="1.0" encoding="UTF-8" standalone="no"?>
<!DOCTYPE svg PUBLIC "-//W3C//DTD SVG 1.1//EN" "http://www.w3.org/Graphics/SVG/1.1/DTD/svg11.dtd">
<svg width="100%" height="100%" viewBox="0 0 3750 2700" version="1.1" xmlns="http://www.w3.org/2000/svg" xmlns:xlink="http://www.w3.org/1999/xlink" xml:space="preserve" xmlns:serif="http://www.serif.com/" style="fill-rule:evenodd;clip-rule:evenodd;stroke-linejoin:round;stroke-miterlimit:2;">
    <g transform="matrix(0.925926,0,0,0.9,-153.967,5.88524)">
        <path id="dotted-line-2-new-new" serif:id="dotted line 2 new new" d="M543.641,2086.39L553.671,2079.93C555.739,2083.33 557.857,2086.73 560.024,2090.11C562.125,2093.39 564.325,2096.74 566.62,2100.14L556.899,2107.08C554.548,2103.59 552.295,2100.17 550.144,2096.81C547.926,2093.34 545.758,2089.87 543.641,2086.39ZM570.987,2127.13L580.452,2119.83C585.028,2126.1 589.86,2132.53 594.922,2139.09L585.659,2146.66C580.526,2140.01 575.626,2133.49 570.987,2127.13ZM600.776,2165.78L609.874,2158C614.825,2164.13 619.943,2170.34 625.208,2176.62L616.251,2184.57C610.938,2178.24 605.773,2171.97 600.776,2165.78ZM632.026,2203.07L640.859,2194.97C646.06,2200.98 651.373,2207.03 656.781,2213.1L648.06,2221.32C642.613,2215.21 637.263,2209.12 632.026,2203.07ZM664.324,2239.34L672.943,2231.01C678.333,2236.9 683.797,2242.81 689.32,2248.71L680.797,2257.15C675.241,2251.22 669.745,2245.28 664.324,2239.34ZM697.463,2274.77L705.895,2266.23C711.444,2272.03 717.036,2277.81 722.657,2283.56L714.315,2292.19C708.664,2286.41 703.042,2280.6 697.463,2274.77ZM731.345,2309.43L739.598,2300.71C745.293,2306.41 751.003,2312.07 756.713,2317.67L748.549,2326.48C742.81,2320.85 737.07,2315.16 731.345,2309.43ZM765.93,2343.35L774,2334.45C779.843,2340.05 785.669,2345.59 791.464,2351.02L783.491,2360.01C777.664,2354.55 771.805,2348.99 765.93,2343.35ZM801.243,2376.48L809.11,2367.39C815.116,2372.89 821.068,2378.27 826.949,2383.52L819.199,2392.71C813.279,2387.43 807.288,2382.01 801.243,2376.48ZM837.381,2408.7L844.998,2399.38C851.207,2404.76 857.309,2409.95 863.28,2414.94L855.823,2424.39C849.799,2419.36 843.644,2414.12 837.381,2408.7ZM874.576,2439.72L881.833,2430.11C888.344,2435.31 894.649,2440.22 900.712,2444.78L893.724,2454.6C887.575,2449.97 881.18,2445 874.576,2439.72ZM913.54,2468.85L919.953,2458.62C925.994,2462.63 932.734,2466.67 940.105,2470.73L934.522,2481.46C926.848,2477.24 919.83,2473.02 913.54,2468.85ZM956.124,2492.56L961.137,2481.53C967.968,2484.82 975.171,2488.1 982.708,2491.35L978.129,2502.57C970.44,2499.25 963.093,2495.91 956.124,2492.56ZM1000.43,2511.76L1004.65,2500.39C1011.83,2503.21 1019.25,2506.01 1026.87,2508.76L1022.95,2520.25C1015.22,2517.45 1007.71,2514.62 1000.43,2511.76ZM1045.66,2528.14L1049.31,2516.56C1056.7,2519.03 1064.25,2521.45 1071.93,2523.83L1068.53,2535.48C1060.76,2533.08 1053.13,2530.63 1045.66,2528.14ZM1091.54,2542.33L1094.71,2530.6C1102.24,2532.76 1109.88,2534.86 1117.61,2536.91L1114.66,2548.7C1106.86,2546.63 1099.14,2544.5 1091.54,2542.33ZM1137.91,2554.61L1140.64,2542.76C1148.28,2544.63 1155.99,2546.43 1163.76,2548.17L1161.25,2560.06C1153.41,2558.31 1145.62,2556.49 1137.91,2554.61ZM1184.69,2565.07L1186.98,2553.13C1194.72,2554.7 1202.49,2556.2 1210.29,2557.63L1208.22,2569.61C1200.35,2568.17 1192.5,2566.65 1184.69,2565.07ZM1231.83,2573.69L1233.67,2561.66C1241.49,2562.93 1249.31,2564.12 1257.13,2565.21L1255.53,2577.27C1247.63,2576.16 1239.72,2574.97 1231.83,2573.69ZM1279.3,2580.35L1280.64,2568.25C1288.52,2569.18 1296.38,2570.01 1304.21,2570.75L1303.14,2582.87C1295.21,2582.13 1287.26,2581.28 1279.3,2580.35ZM1327.04,2584.81L1327.82,2572.66C1335.75,2573.2 1343.63,2573.63 1351.45,2573.94L1350.99,2586.1C1343.06,2585.79 1335.07,2585.35 1327.04,2584.81ZM1374.99,2586.69L1375.09,2574.52C1383.06,2574.59 1390.94,2574.53 1398.72,2574.32L1399.02,2586.49C1391.1,2586.7 1383.09,2586.76 1374.99,2586.69ZM1423.05,2585.4L1422.29,2573.25C1430.26,2572.73 1438.09,2572.04 1445.77,2571.19L1447.05,2583.29C1439.19,2584.16 1431.19,2584.87 1423.05,2585.4ZM1470.97,2579.98L1469.08,2567.97C1476.96,2566.65 1484.65,2565.13 1492.11,2563.39L1494.72,2575.26C1487.03,2577.06 1479.1,2578.63 1470.97,2579.98ZM1518.18,2568.86L1514.7,2557.22C1522.31,2554.81 1529.62,2552.12 1536.59,2549.15L1541.13,2560.39C1533.82,2563.51 1526.16,2566.33 1518.18,2568.86ZM1563.2,2549.41L1557.4,2538.8C1564.24,2534.84 1570.63,2530.52 1576.53,2525.8L1583.79,2535.41C1577.44,2540.49 1570.56,2545.15 1563.2,2549.41ZM1602,2517.98L1593.17,2509.88C1598.2,2504.07 1602.64,2497.81 1606.41,2491.07L1616.66,2497.15C1612.48,2504.61 1607.58,2511.55 1602,2517.98ZM1626.82,2473.64L1615.57,2469.86C1616.71,2466.28 1617.69,2462.6 1618.51,2458.8C1619.38,2454.82 1620.1,2450.87 1620.67,2446.96L1632.37,2448.8C1631.75,2452.97 1630.98,2457.19 1630.06,2461.45C1629.15,2465.63 1628.07,2469.69 1626.82,2473.64ZM1634.33,2423.5L1622.5,2423.43C1622.55,2415.44 1621.99,2407.61 1620.89,2399.93L1632.59,2398.14C1633.78,2406.43 1634.38,2414.88 1634.33,2423.5ZM1627.14,2373.38L1615.83,2376.92C1613.6,2369.41 1610.85,2362.04 1607.62,2354.8L1618.38,2349.73C1621.83,2357.47 1624.77,2365.35 1627.14,2373.38ZM1606.88,2327.48L1596.76,2333.78C1592.81,2327.06 1588.47,2320.44 1583.77,2313.92L1593.28,2306.68C1598.19,2313.51 1602.74,2320.44 1606.88,2327.48ZM1578.09,2287.21L1569.13,2295.16C1564.1,2289.18 1558.79,2283.26 1553.24,2277.39L1561.72,2268.9C1567.43,2274.94 1572.9,2281.04 1578.09,2287.21ZM1544.48,2251.57L1536.4,2260.46C1530.73,2255.01 1524.86,2249.61 1518.84,2244.24L1526.59,2235.04C1532.72,2240.51 1538.69,2246.02 1544.48,2251.57ZM1508.22,2219.15L1500.73,2228.57C1494.67,2223.48 1488.49,2218.41 1482.21,2213.35L1489.5,2203.77C1495.85,2208.88 1502.1,2214 1508.22,2219.15ZM1470.54,2188.77L1463.4,2198.47C1457.12,2193.58 1450.77,2188.69 1444.37,2183.81L1451.42,2174.03C1457.85,2178.94 1464.23,2183.85 1470.54,2188.77ZM1432.21,2159.47L1425.21,2169.29C1418.83,2164.47 1412.41,2159.65 1405.99,2154.81L1412.98,2144.99C1419.4,2149.83 1425.82,2154.65 1432.21,2159.47ZM1393.79,2130.49L1386.77,2140.29C1380.36,2135.43 1373.96,2130.54 1367.61,2125.64L1374.71,2115.9C1381.04,2120.79 1387.41,2125.65 1393.79,2130.49ZM1355.79,2101.12L1348.57,2110.76C1342.23,2105.73 1335.94,2100.67 1329.74,2095.57L1337.12,2086.06C1343.27,2091.12 1349.5,2096.13 1355.79,2101.12ZM1318.78,2070.64L1311.18,2079.97C1305,2074.65 1298.93,2069.28 1293,2063.85L1300.86,2054.75C1306.71,2060.1 1312.69,2065.39 1318.78,2070.64ZM1283.48,2038.3L1275.31,2047.1C1269.45,2041.34 1263.75,2035.51 1258.26,2029.6L1266.8,2021.18C1272.18,2026.96 1277.75,2032.66 1283.48,2038.3ZM1250.99,2003.29L1242.02,2011.22C1238.15,2006.6 1234.42,2001.93 1230.83,1997.21C1229.46,1995.41 1228.12,1993.59 1226.8,1991.75L1236.34,1984.55C1237.58,1986.29 1238.85,1988.01 1240.14,1989.71C1243.62,1994.28 1247.24,1998.81 1250.99,2003.29ZM1223.76,1964.58L1213.48,1970.61C1209.44,1963.33 1205.8,1955.82 1202.55,1948.1L1213.4,1943.26C1216.48,1950.57 1219.93,1957.69 1223.76,1964.58ZM1205.31,1920.88L1194.02,1924.54C1191.59,1916.6 1189.53,1908.5 1187.85,1900.26L1199.42,1897.75C1201.03,1905.6 1202.99,1913.32 1205.31,1920.88ZM1195.68,1874.12L1183.93,1875.53C1183,1867.29 1182.41,1858.96 1182.16,1850.56L1193.99,1850.19C1194.23,1858.25 1194.79,1866.23 1195.68,1874.12ZM1194.25,1826.18L1182.44,1825.56C1182.85,1817.3 1183.58,1809 1184.63,1800.68L1196.37,1802.25C1195.36,1810.25 1194.65,1818.24 1194.25,1826.18ZM1200.24,1778.52L1188.65,1776.06C1190.28,1767.97 1192.2,1759.88 1194.41,1751.83L1205.8,1755.14C1203.66,1762.91 1201.81,1770.72 1200.24,1778.52ZM1212.95,1732.21L1201.82,1728.09C1204.54,1720.31 1207.54,1712.59 1210.81,1704.94L1221.64,1709.84C1218.48,1717.23 1215.58,1724.7 1212.95,1732.21ZM1231.8,1688.13L1221.32,1682.48C1225.05,1675.16 1229.03,1667.93 1233.28,1660.81L1243.36,1667.17C1239.26,1674.06 1235.4,1681.05 1231.8,1688.13ZM1256.28,1647.07L1246.63,1640.02C1251.28,1633.28 1256.18,1626.67 1261.32,1620.2L1270.48,1627.9C1265.51,1634.16 1260.78,1640.55 1256.28,1647.07ZM1285.91,1609.78L1277.28,1601.45C1282.77,1595.42 1288.49,1589.56 1294.44,1583.86L1302.5,1592.77C1296.75,1598.28 1291.22,1603.95 1285.91,1609.78ZM1320.18,1576.97L1312.73,1567.51C1318.96,1562.32 1325.4,1557.3 1332.06,1552.49L1338.87,1562.44C1332.43,1567.1 1326.2,1571.94 1320.18,1576.97ZM1358.47,1549.27L1352.34,1538.86C1359.19,1534.59 1366.24,1530.52 1373.48,1526.67L1378.91,1537.49C1371.91,1541.21 1365.1,1545.14 1358.47,1549.27ZM1400.07,1527.15L1395.35,1515.98C1402.68,1512.71 1410.18,1509.65 1417.87,1506.81L1421.86,1518.27C1414.42,1521.01 1407.16,1523.98 1400.07,1527.15ZM1444.17,1510.87L1440.9,1499.17C1448.56,1496.9 1456.37,1494.86 1464.35,1493.04L1466.9,1504.93C1459.17,1506.69 1451.59,1508.67 1444.17,1510.87ZM1489.96,1500.43L1488.11,1488.41C1490.19,1488.07 1492.28,1487.75 1494.39,1487.44C1500.32,1486.56 1506.22,1485.84 1512.09,1485.25L1513.24,1497.36C1507.54,1497.93 1501.82,1498.64 1496.06,1499.49C1494.02,1499.79 1491.99,1500.1 1489.96,1500.43ZM1536.64,1495.77L1536.23,1483.61C1544.37,1483.32 1552.44,1483.31 1560.44,1483.55L1560.09,1495.72C1552.34,1495.48 1544.52,1495.5 1536.64,1495.77ZM1583.48,1497.21L1584.6,1485.1C1592.67,1485.88 1600.68,1486.94 1608.61,1488.25L1606.73,1500.27C1599.05,1499 1591.3,1497.98 1583.48,1497.21ZM1629.75,1504.86L1632.37,1492.99C1640.25,1494.84 1648.05,1496.93 1655.78,1499.27L1652.44,1510.95C1644.95,1508.68 1637.38,1506.65 1629.75,1504.86ZM1674.74,1518.46L1678.76,1507.01C1686.33,1509.83 1693.82,1512.87 1701.24,1516.14L1696.59,1527.33C1689.38,1524.15 1682.1,1521.19 1674.74,1518.46ZM1717.93,1537.46L1723.17,1526.55C1730.36,1530.2 1737.47,1534.07 1744.52,1538.14L1738.72,1548.75C1731.86,1544.79 1724.93,1541.02 1717.93,1537.46ZM1758.95,1561.12L1765.24,1550.82C1772.02,1555.19 1778.72,1559.75 1785.35,1564.48L1778.61,1574.48C1772.13,1569.85 1765.57,1565.4 1758.95,1561.12ZM1797.69,1588.73L1804.84,1579.03C1811.19,1583.99 1817.49,1589.11 1823.71,1594.39L1816.19,1603.78C1810.09,1598.61 1803.92,1593.59 1797.69,1588.73ZM1834.12,1619.58L1841.98,1610.48C1847.94,1615.92 1853.83,1621.51 1859.66,1627.22L1851.5,1636.03C1845.77,1630.42 1839.98,1624.93 1834.12,1619.58ZM1868.35,1653.09L1876.78,1644.55C1882.37,1650.39 1887.89,1656.35 1893.35,1662.42L1884.67,1670.69C1879.29,1664.71 1873.85,1658.84 1868.35,1653.09ZM1900.49,1688.79L1909.4,1680.78C1914.64,1686.95 1919.82,1693.21 1924.94,1699.57L1915.83,1707.34C1910.78,1701.06 1905.66,1694.88 1900.49,1688.79ZM1930.7,1726.29L1940,1718.76C1944.93,1725.2 1949.79,1731.72 1954.6,1738.32L1945.13,1745.62C1940.38,1739.1 1935.57,1732.65 1930.7,1726.29ZM1959.13,1765.29L1968.75,1758.21C1973.39,1764.87 1977.96,1771.61 1982.48,1778.4L1972.72,1785.27C1968.25,1778.55 1963.72,1771.88 1959.13,1765.29ZM1985.91,1805.54L1995.8,1798.87C2000.17,1805.73 2004.48,1812.64 2008.73,1819.6L1998.72,1826.08C1994.5,1819.18 1990.23,1812.33 1985.91,1805.54ZM2011.15,1846.86L2021.28,1840.57C2025.4,1847.59 2029.47,1854.65 2033.47,1861.75L2023.24,1867.86C2019.27,1860.82 2015.24,1853.82 2011.15,1846.86ZM2034.98,1889.08L2045.31,1883.14C2049.2,1890.31 2053.03,1897.5 2056.81,1904.72L2046.39,1910.49C2042.64,1903.33 2038.84,1896.19 2034.98,1889.08ZM2057.48,1932.08L2067.98,1926.48C2071.66,1933.77 2075.27,1941.08 2078.83,1948.4L2068.25,1953.85C2064.72,1946.58 2061.13,1939.32 2057.48,1932.08ZM2079.02,1975.85L2089.5,1970.19C2093.16,1977.38 2096.97,1984.46 2100.9,1991.41L2090.68,1997.53C2086.66,1990.42 2082.77,1983.19 2079.02,1975.85ZM2103.24,2018.67L2113.2,2012.1C2117.46,2018.93 2121.85,2025.63 2126.36,2032.21L2116.69,2039.23C2112.08,2032.51 2107.59,2025.65 2103.24,2018.67ZM2131.01,2059.15L2140.37,2051.7C2145.2,2058.11 2150.14,2064.39 2155.2,2070.54L2146.18,2078.41C2141.01,2072.13 2135.95,2065.71 2131.01,2059.15ZM2162.16,2096.95L2170.84,2088.67C2176.2,2094.62 2181.66,2100.42 2187.24,2106.07L2178.93,2114.74C2173.23,2108.96 2167.64,2103.03 2162.16,2096.95ZM2196.47,2131.74L2204.39,2122.7C2210.24,2128.12 2216.19,2133.4 2222.24,2138.51L2214.72,2147.91C2208.54,2142.68 2202.45,2137.29 2196.47,2131.74ZM2233.67,2163.22L2240.77,2153.48C2247.07,2158.34 2253.46,2163.03 2259.94,2167.57L2253.28,2177.63C2246.66,2172.99 2240.12,2168.19 2233.67,2163.22ZM2273.51,2191.1L2279.71,2180.73C2286.41,2184.97 2293.2,2189.04 2300.05,2192.94L2294.33,2203.6C2287.31,2199.61 2280.37,2195.44 2273.51,2191.1ZM2315.69,2215.08L2320.92,2204.17C2327.98,2207.75 2335.1,2211.15 2342.28,2214.37L2337.55,2225.53C2330.2,2222.23 2322.91,2218.75 2315.69,2215.08ZM2359.88,2234.89L2364.08,2223.51C2371.43,2226.39 2378.83,2229.08 2386.28,2231.57L2382.61,2243.15C2374.98,2240.59 2367.4,2237.84 2359.88,2234.89ZM2405.72,2250.25L2408.83,2238.51C2416.41,2240.64 2424.03,2242.57 2431.68,2244.3L2429.14,2256.18C2421.29,2254.41 2413.48,2252.43 2405.72,2250.25ZM2452.82,2260.9L2454.78,2248.9C2462.51,2250.23 2470.28,2251.37 2478.07,2252.29L2476.71,2264.38C2468.72,2263.43 2460.76,2262.27 2452.82,2260.9ZM2500.74,2266.6L2501.49,2254.45C2509.32,2254.96 2517.15,2255.26 2524.99,2255.35L2524.86,2267.52C2516.82,2267.43 2508.77,2267.12 2500.74,2266.6ZM2549,2267.13L2548.5,2254.97C2553.48,2254.75 2558.46,2254.45 2563.43,2254.06C2566.34,2253.83 2569.24,2253.62 2572.13,2253.42L2572.92,2265.56C2570.07,2265.76 2567.21,2265.97 2564.34,2266.2C2559.23,2266.6 2554.11,2266.91 2549,2267.13ZM2596.56,2264.26L2596.09,2252.1C2604.17,2251.76 2612.17,2251.55 2620.07,2251.46L2620.21,2263.64C2612.41,2263.72 2604.53,2263.93 2596.56,2264.26ZM2643.85,2263.73L2644.08,2251.56C2652.18,2251.72 2660.18,2252.01 2668.09,2252.43L2667.47,2264.59C2659.7,2264.18 2651.82,2263.89 2643.85,2263.73ZM2691.04,2266.26L2692.06,2254.13C2700.13,2254.84 2708.1,2255.7 2715.97,2256.69L2714.53,2268.77C2706.8,2267.8 2698.97,2266.96 2691.04,2266.26ZM2737.89,2272.19L2739.78,2260.18C2747.78,2261.51 2755.68,2262.99 2763.46,2264.62L2761.1,2276.55C2753.47,2274.95 2745.74,2273.5 2737.89,2272.19ZM2784.1,2281.88L2786.94,2270.07C2794.81,2272.08 2802.56,2274.24 2810.19,2276.56L2806.84,2288.24C2799.37,2285.97 2791.79,2283.85 2784.1,2281.88ZM2829.26,2295.64L2833.14,2284.13C2840.79,2286.86 2848.32,2289.75 2855.72,2292.8L2851.32,2304.1C2844.09,2301.12 2836.74,2298.3 2829.26,2295.64ZM2872.95,2313.66L2877.88,2302.59C2885.23,2306.06 2892.45,2309.69 2899.55,2313.49L2894.09,2324.29C2887.16,2320.58 2880.12,2317.04 2872.95,2313.66ZM2914.68,2336.01L2920.66,2325.51C2927.62,2329.7 2934.45,2334.07 2941.15,2338.61L2934.66,2348.78C2928.12,2344.36 2921.46,2340.1 2914.68,2336.01ZM2953.99,2362.58L2960.97,2352.76C2967.46,2357.64 2973.83,2362.7 2980.07,2367.91L2972.62,2377.36C2966.53,2372.27 2960.32,2367.34 2953.99,2362.58ZM2990.52,2393.08L2998.41,2384.02C3004.39,2389.53 3010.24,2395.2 3015.97,2401.02L3007.66,2409.68C3002.06,2403.99 2996.35,2398.46 2990.52,2393.08ZM3024.03,2427.1L3032.72,2418.85C3038.15,2424.89 3043.46,2431.08 3048.67,2437.43L3039.62,2445.28C3034.53,2439.07 3029.34,2433.01 3024.03,2427.1ZM3054.44,2464.14L3063.8,2456.69C3068.68,2463.18 3073.46,2469.81 3078.13,2476.58L3068.49,2483.63C3063.91,2477 3059.22,2470.5 3054.44,2464.14ZM3082.09,2503.82L3091.68,2496.69C3096.27,2503.24 3101.12,2509.45 3106.19,2515.35L3097.34,2523.42C3092,2517.22 3086.91,2510.69 3082.09,2503.82ZM3114.42,2541.36L3122.45,2532.42C3128.17,2537.85 3134.12,2542.95 3140.28,2547.73L3133.17,2557.45C3126.69,2552.43 3120.43,2547.07 3114.42,2541.36ZM3153.33,2571.56L3159.51,2561.18C3166.12,2565.35 3172.92,2569.2 3179.9,2572.74L3174.66,2583.66C3167.36,2579.95 3160.24,2575.92 3153.33,2571.56ZM3196.91,2593.77L3201.23,2582.43C3208.44,2585.35 3215.8,2587.97 3223.3,2590.32L3219.85,2601.96C3212.06,2599.52 3204.4,2596.79 3196.91,2593.77ZM3243.29,2608.35L3245.91,2596.48C3253.48,2598.25 3261.15,2599.76 3268.92,2601.02L3267.07,2613.05C3259.05,2611.74 3251.11,2610.18 3243.29,2608.35ZM3291.07,2616.17L3292.2,2604.06C3299.95,2604.82 3307.76,2605.36 3315.64,2605.68L3315.17,2617.84C3307.07,2617.51 3299.03,2616.96 3291.07,2616.17ZM3339.31,2618.16L3339.15,2605.99C3346.96,2605.88 3354.8,2605.57 3362.67,2605.07L3363.4,2617.22C3355.34,2617.74 3347.3,2618.05 3339.31,2618.16ZM3387.41,2615.1L3386.13,2603C3393.92,2602.13 3401.71,2601.07 3409.5,2599.84L3411.3,2611.87C3403.34,2613.13 3395.37,2614.21 3387.41,2615.1ZM3435.01,2607.59L3432.72,2595.65C3440.43,2594.08 3448.11,2592.35 3455.76,2590.47L3458.52,2602.3C3450.72,2604.23 3442.87,2605.99 3435.01,2607.59ZM3481.8,2596.04L3478.59,2584.33C3486.16,2582.12 3493.69,2579.77 3501.16,2577.26L3504.82,2588.84C3497.21,2591.39 3489.53,2593.79 3481.8,2596.04ZM3527.55,2580.7L3523.44,2569.29C3530.84,2566.47 3538.16,2563.51 3545.39,2560.41L3549.94,2571.65C3542.57,2574.81 3535.1,2577.83 3527.55,2580.7ZM3571.97,2561.68L3566.98,2550.64C3574.15,2547.21 3581.22,2543.64 3588.15,2539.95L3593.58,2550.77C3586.5,2554.53 3579.29,2558.17 3571.97,2561.68ZM3614.73,2538.9L3608.84,2528.35C3615.71,2524.28 3622.43,2520.1 3628.97,2515.79L3635.35,2526.05C3628.64,2530.45 3621.76,2534.74 3614.73,2538.9ZM3655.34,2512.16L3648.47,2502.25C3654.93,2497.51 3661.19,2492.65 3667.22,2487.68L3674.62,2497.18C3668.41,2502.29 3661.98,2507.29 3655.34,2512.16ZM3693.03,2481.04L3685.08,2472.03C3690.95,2466.54 3696.55,2460.94 3701.85,2455.24L3710.4,2463.65C3704.91,2469.56 3699.11,2475.36 3693.03,2481.04ZM3726.49,2444.92L3717.31,2437.24C3722.3,2430.93 3726.92,2424.51 3731.14,2418L3740.98,2424.75C3736.56,2431.57 3731.72,2438.3 3726.49,2444.92ZM3753.43,2403.07L3742.92,2397.49C3746.51,2390.33 3749.6,2383.09 3752.15,2375.78L3763.29,2379.89C3760.56,2387.7 3757.26,2395.43 3753.43,2403.07ZM3769.88,2355.4L3758.27,2353.07C3759.73,2345.35 3760.57,2337.57 3760.74,2329.76L3772.57,2330.03C3772.38,2338.53 3771.48,2346.99 3769.88,2355.4ZM3770.9,2304.52L3759.21,2306.42C3758.63,2302.59 3757.87,2298.76 3756.95,2294.93C3756.92,2294.84 3756.9,2294.74 3756.88,2294.64C3756.14,2290.78 3755.28,2286.93 3754.3,2283.09L3765.75,2280.01C3766.77,2284.05 3767.68,2288.09 3768.46,2292.13C3769.45,2296.26 3770.27,2300.39 3770.9,2304.52ZM3758.29,2256.13L3747.23,2260.46C3744.52,2253.12 3741.43,2245.81 3738,2238.53L3748.64,2233.22C3752.23,2240.83 3755.46,2248.47 3758.29,2256.13ZM3737.3,2211.26L3727.05,2217.34C3723.2,2210.49 3719.09,2203.66 3714.75,2196.85L3724.64,2190.17C3729.11,2197.17 3733.34,2204.2 3737.3,2211.26ZM3710.97,2169.84L3701.39,2176.98C3696.83,2170.52 3692.1,2164.08 3687.21,2157.66L3696.52,2150.15C3701.5,2156.69 3706.33,2163.25 3710.97,2169.84ZM3681.49,2131L3672.39,2138.78C3667.39,2132.59 3662.28,2126.42 3657.08,2120.27L3666.01,2112.28C3671.27,2118.51 3676.43,2124.75 3681.49,2131ZM3650.2,2093.9L3641.4,2102.04C3636.14,2096.01 3630.82,2090.01 3625.46,2084.01L3634.18,2075.77C3639.56,2081.8 3644.91,2087.85 3650.2,2093.9ZM3618.01,2057.81L3609.35,2066.1C3603.96,2060.13 3598.55,2054.17 3593.16,2048.23L3601.81,2039.92C3607.2,2045.87 3612.61,2051.83 3618.01,2057.81ZM3585.64,2022.05L3576.96,2030.32C3571.54,2024.3 3566.16,2018.29 3560.85,2012.29L3569.59,2004.1C3574.88,2010.07 3580.24,2016.05 3585.64,2022.05ZM3553.77,1985.98L3544.91,1994.05C3539.58,1987.86 3534.35,1981.67 3529.26,1975.5L3538.28,1967.62C3543.32,1973.73 3548.49,1979.85 3553.77,1985.98ZM3523.26,1948.91L3514.02,1956.52C3508.95,1950 3504.05,1943.49 3499.37,1936.99L3508.88,1929.75C3513.47,1936.13 3518.27,1942.51 3523.26,1948.91ZM3495.36,1910.02L3485.52,1916.77C3480.96,1909.73 3476.7,1902.7 3472.77,1895.68L3483.02,1889.61C3486.82,1896.4 3490.95,1903.21 3495.36,1910.02ZM3472.26,1868.41L3461.54,1873.56C3458.02,1865.79 3454.97,1858.02 3452.43,1850.26L3463.64,1846.38C3466.04,1853.72 3468.93,1861.06 3472.26,1868.41ZM3457.86,1823.6L3446.22,1825.79C3444.72,1817.34 3443.9,1808.89 3443.83,1800.45L3455.66,1800.35C3455.72,1808.1 3456.48,1815.85 3457.86,1823.6ZM3457.62,1777.2L3445.99,1774.98C3447.46,1766.79 3449.72,1758.61 3452.81,1750.42L3463.84,1754.83C3461.02,1762.29 3458.97,1769.74 3457.62,1777.2ZM3473.85,1733.8L3463.67,1727.59C3464.45,1726.25 3465.25,1724.9 3466.08,1723.55C3469.57,1717.86 3473.23,1712.27 3477.05,1706.78L3486.67,1713.86C3482.99,1719.16 3479.45,1724.55 3476.09,1730.04C3475.32,1731.3 3474.57,1732.55 3473.85,1733.8ZM3500.88,1694.76L3491.72,1687.06C3496.77,1680.69 3502.04,1674.45 3507.49,1668.33L3516.21,1676.55C3510.91,1682.5 3505.8,1688.57 3500.88,1694.76ZM3532.49,1659.17L3524.18,1650.52C3529.84,1644.76 3535.66,1639.1 3541.61,1633.54L3549.56,1642.56C3543.74,1648 3538.04,1653.54 3532.49,1659.17ZM3567.29,1626.62L3559.66,1617.32C3565.74,1612.05 3571.93,1606.86 3578.21,1601.74L3585.55,1611.29C3579.37,1616.32 3573.28,1621.43 3567.29,1626.62ZM3604.25,1596.46L3597.14,1586.73C3603.49,1581.82 3609.91,1576.97 3616.38,1572.18L3623.29,1582.05C3616.89,1586.8 3610.53,1591.6 3604.25,1596.46ZM3642.61,1567.99L3635.84,1558C3642.36,1553.33 3648.91,1548.7 3655.47,1544.11L3662.12,1554.18C3655.6,1558.74 3649.09,1563.34 3642.61,1567.99ZM3681.78,1540.53L3675.19,1530.42C3681.8,1525.86 3688.39,1521.34 3694.95,1516.83L3701.52,1526.95C3694.97,1531.45 3688.38,1535.98 3681.78,1540.53ZM3721.28,1513.36L3714.69,1503.25C3721.3,1498.69 3727.86,1494.14 3734.34,1489.6L3741.01,1499.65C3734.5,1504.22 3727.92,1508.78 3721.28,1513.36ZM3760.62,1485.72L3753.82,1475.75C3760.35,1471.05 3766.76,1466.34 3773.06,1461.61L3780.04,1471.44C3773.68,1476.21 3767.2,1480.97 3760.62,1485.72ZM3799.17,1456.67L3791.93,1447.04C3798.24,1442.03 3804.37,1436.99 3810.32,1431.91L3817.88,1441.27C3811.83,1446.44 3805.58,1451.57 3799.17,1456.67ZM3836.01,1425.04L3828.03,1416.06C3833.89,1410.54 3839.51,1404.97 3844.84,1399.31L3853.33,1407.78C3847.84,1413.61 3842.05,1419.36 3836.01,1425.04ZM3869.52,1389.27L3860.42,1381.5C3865.44,1375.27 3870.1,1368.93 3874.36,1362.46L3884.16,1369.28C3879.69,1376.07 3874.8,1382.73 3869.52,1389.27ZM3896.65,1347.65L3886.13,1342.1C3889.65,1335.05 3892.67,1327.84 3895.16,1320.44L3906.34,1324.42C3903.67,1332.35 3900.43,1340.09 3896.65,1347.65ZM3912.56,1299.88L3900.92,1297.74C3902.23,1290.16 3902.98,1282.38 3903.13,1274.39L3914.96,1274.62C3914.8,1283.26 3913.99,1291.67 3912.56,1299.88ZM3913.59,1249.35L3901.85,1250.9C3900.91,1243.35 3899.45,1235.62 3897.45,1227.69L3908.9,1224.62C3911.03,1233.07 3912.59,1241.31 3913.59,1249.35ZM3901.48,1200.74L3890.41,1205.03C3889.29,1201.99 3888.1,1198.92 3886.83,1195.83C3885.07,1191.52 3883.19,1187.3 3881.21,1183.14L3891.83,1177.78C3893.91,1182.14 3895.88,1186.58 3897.74,1191.1C3899.06,1194.34 3900.31,1197.55 3901.48,1200.74ZM3880.13,1155.88L3870.03,1162.21C3866,1155.4 3861.68,1148.76 3857.13,1142.26L3866.73,1135.14C3871.46,1141.9 3875.94,1148.8 3880.13,1155.88ZM3851.99,1115.49L3842.85,1123.22C3837.92,1117.04 3832.79,1110.96 3827.5,1104.96L3836.26,1096.78C3841.68,1102.93 3846.94,1109.16 3851.99,1115.49ZM3819.84,1078.83L3811.36,1087.32C3805.91,1081.55 3800.33,1075.82 3794.68,1070.11L3802.97,1061.42C3808.69,1067.21 3814.32,1073 3819.84,1078.83ZM3785.88,1044.36L3777.68,1053.13C3772,1047.52 3766.28,1041.88 3760.54,1036.2L3768.74,1027.43C3774.48,1033.11 3780.2,1038.74 3785.88,1044.36ZM3751.73,1010.46L3743.45,1019.15C3737.79,1013.44 3732.15,1007.67 3726.55,1001.8L3735,993.273C3740.54,999.088 3746.13,1004.81 3751.73,1010.46ZM3718.71,975.72L3710.03,983.993C3704.63,977.99 3699.29,971.869 3694.06,965.607L3703.02,957.668C3708.17,963.817 3713.41,969.826 3718.71,975.72ZM3688.09,939.011L3678.79,946.529C3673.87,940.081 3669.07,933.472 3664.41,926.681L3674.08,919.669C3678.62,926.287 3683.3,932.727 3688.09,939.011ZM3661.14,899.595L3651.1,906.021C3646.89,899.064 3642.85,891.914 3639,884.55L3649.42,878.782C3653.15,885.92 3657.07,892.851 3661.14,899.595ZM3639.02,857.256L3628.26,862.311C3624.96,854.885 3621.86,847.248 3618.97,839.381L3630.03,835.076C3632.83,842.686 3635.83,850.073 3639.02,857.256ZM3622.5,812.327L3611.18,815.867C3608.89,808.094 3606.79,800.107 3604.92,791.889L3616.44,789.107C3618.25,797.065 3620.28,804.8 3622.5,812.327ZM3611.8,765.522L3600.14,767.568C3598.82,759.595 3597.7,751.416 3596.79,743.019L3608.55,741.671C3609.43,749.829 3610.52,757.776 3611.8,765.522ZM3606.59,717.646L3594.77,718.341C3594.33,710.293 3594.07,702.053 3594,693.614L3605.83,693.521C3605.89,701.755 3606.15,709.793 3606.59,717.646ZM3606.2,669.361L3594.37,668.902C3594.48,665.893 3594.62,662.86 3594.78,659.802C3595.04,654.71 3595.19,649.666 3595.22,644.671L3607.05,644.747C3607.02,649.933 3606.87,655.168 3606.59,660.453C3606.43,663.446 3606.3,666.416 3606.2,669.361ZM3606.26,619.85L3594.46,620.724C3593.9,612.66 3593.02,604.731 3591.85,596.937L3603.54,595.077C3604.76,603.194 3605.68,611.452 3606.26,619.85ZM3598.84,570.609L3587.34,573.469C3585.51,565.658 3583.36,557.994 3580.93,550.48L3592.15,546.629C3594.69,554.467 3596.93,562.461 3598.84,570.609ZM3583.52,523.318L3572.65,528.125C3569.58,520.776 3566.22,513.583 3562.59,506.548L3573.03,500.837C3576.82,508.167 3580.32,515.661 3583.52,523.318ZM3560.83,479.317L3550.85,485.863C3546.68,479.135 3542.25,472.567 3537.58,466.159L3547.04,458.855C3551.89,465.51 3556.49,472.331 3560.83,479.317ZM3531.84,439.513L3522.91,447.496C3517.83,441.474 3512.52,435.611 3507,429.906L3515.39,421.323C3521.1,427.222 3526.58,433.286 3531.84,439.513ZM3497.84,404.292L3489.99,413.404C3484.18,408.109 3478.19,402.969 3472.02,397.985L3479.33,388.413C3485.68,393.546 3491.86,398.84 3497.84,404.292ZM3459.98,373.661L3453.2,383.635C3446.83,379.049 3440.3,374.614 3433.64,370.331L3439.91,360.009C3446.75,364.404 3453.44,368.956 3459.98,373.661ZM3419.21,347.423L3413.44,358.048C3406.64,354.137 3399.72,350.374 3392.68,346.759L3397.97,335.871C3405.17,339.57 3412.25,343.421 3419.21,347.423ZM3376.26,325.319L3371.44,336.436C3364.31,333.164 3357.08,330.037 3349.77,327.056L3354.13,315.741C3361.59,318.785 3368.97,321.978 3376.26,325.319ZM3331.65,307.111L3327.74,318.598C3320.36,315.935 3312.9,313.416 3305.39,311.042L3308.87,299.407C3316.52,301.828 3324.12,304.396 3331.65,307.111ZM3285.81,292.613L3282.77,304.375C3275.2,302.301 3267.57,300.371 3259.92,298.586L3262.53,286.716C3270.33,288.534 3278.1,290.5 3285.81,292.613ZM3239.06,281.71L3236.87,293.671C3229.16,292.177 3221.41,290.829 3213.66,289.629L3215.42,277.593C3223.32,278.815 3231.2,280.188 3239.06,281.71ZM3191.66,274.368L3190.33,286.462C3182.51,285.552 3174.7,284.792 3166.89,284.182L3167.79,272.046C3175.74,272.666 3183.7,273.441 3191.66,274.368ZM3143.85,270.641L3143.4,282.803C3135.53,282.495 3127.69,282.342 3119.88,282.347L3119.87,270.175C3127.84,270.171 3135.83,270.326 3143.85,270.641ZM3095.89,270.678L3096.37,282.84C3088.49,283.168 3080.66,283.66 3072.9,284.318L3071.93,272.187C3079.86,271.516 3087.85,271.013 3095.89,270.678ZM3048.05,274.747L3049.53,286.822C3041.71,287.84 3033.96,289.034 3026.31,290.403L3024.28,278.412C3032.12,277.01 3040.04,275.789 3048.05,274.747ZM3000.7,283.247L3003.3,295.121C2997.68,296.426 2992.11,297.833 2986.61,299.341C2984.61,299.889 2982.59,300.454 2980.55,301.036L2977.39,289.309C2979.47,288.715 2981.52,288.139 2983.56,287.58C2989.21,286.032 2994.92,284.587 3000.7,283.247ZM2954.42,296.322L2957.98,307.931C2950.69,310.292 2943.22,312.839 2935.59,315.564L2931.71,304.067C2939.45,301.301 2947.03,298.717 2954.42,296.322ZM2909.23,312.448L2913.4,323.837C2906.16,326.645 2898.83,329.597 2891.41,332.688L2886.97,321.408C2894.47,318.279 2901.9,315.29 2909.23,312.448ZM2864.93,330.913L2869.64,342.082C2862.49,345.268 2855.29,348.575 2848.07,351.997L2843.12,340.943C2850.42,337.481 2857.7,334.136 2864.93,330.913ZM2821.54,351.493L2826.74,362.425C2819.71,365.968 2812.67,369.617 2805.66,373.366L2800.2,362.565C2807.3,358.771 2814.42,355.079 2821.54,351.493ZM2779.13,374.171L2784.84,384.829C2777.96,388.736 2771.11,392.738 2764.33,396.83L2758.34,386.33C2765.22,382.184 2772.15,378.129 2779.13,374.171ZM2737.88,399.069L2744.14,409.393C2737.45,413.692 2730.84,418.078 2724.34,422.548L2717.77,412.426C2724.37,407.887 2731.08,403.434 2737.88,399.069ZM2698.07,426.444L2704.96,436.336C2698.53,441.076 2692.24,445.9 2686.09,450.803L2678.84,441.183C2685.1,436.188 2691.52,431.274 2698.07,426.444ZM2660.18,456.709L2667.81,466.007C2661.76,471.265 2655.9,476.604 2650.24,482.017L2642.18,473.108C2647.97,467.563 2653.98,462.095 2660.18,456.709ZM2625.01,490.48L2633.54,498.911C2628.05,504.788 2622.83,510.743 2617.91,516.77L2608.85,508.937C2613.94,502.708 2619.34,496.553 2625.01,490.48ZM2593.99,528.608L2603.62,535.681C2599.03,542.284 2594.83,548.963 2591.03,555.71L2580.79,549.614C2584.77,542.538 2589.18,535.533 2593.99,528.608ZM2569.76,572.037L2580.62,576.875C2577.53,584.214 2574.95,591.623 2572.94,599.091L2561.54,595.845C2563.69,587.842 2566.45,579.902 2569.76,572.037ZM2556.86,620.777L2568.62,622.1C2567.8,629.829 2567.61,637.611 2568.12,645.436L2556.32,646.248C2555.76,637.708 2555.96,629.214 2556.86,620.777ZM2559.94,671.25L2571.51,668.735C2573.16,676.757 2575.12,684.438 2577.38,691.798L2566.09,695.459C2563.72,687.733 2561.66,679.671 2559.94,671.25ZM2574.66,718.949L2585.49,714.054C2588.65,721.454 2592.15,728.489 2595.96,735.19L2585.75,741.34C2581.71,734.241 2578.01,726.788 2574.66,718.949ZM2599.32,762.251L2608.76,754.91C2613.43,761.265 2618.42,767.283 2623.7,772.998L2615.13,781.387C2609.54,775.341 2604.26,768.974 2599.32,762.251ZM2632.82,798.61L2640.51,789.359C2646.36,794.507 2652.48,799.386 2658.83,804.03L2651.98,813.952C2645.34,809.096 2638.94,803.993 2632.82,798.61ZM2672.23,827.573L2678.34,817.15C2684.95,821.252 2691.76,825.164 2698.74,828.917L2693.26,839.705C2686.07,835.836 2679.05,831.802 2672.23,827.573ZM2714.84,850.604L2719.81,839.556C2726.86,842.913 2734.05,846.148 2741.36,849.29L2736.8,860.52C2729.35,857.319 2722.03,854.023 2714.84,850.604ZM2758.99,869.685L2763.26,858.332C2770.56,861.235 2777.94,864.076 2785.39,866.879L2781.33,878.311C2773.81,875.482 2766.36,872.615 2758.99,869.685ZM2803.75,886.59L2807.7,875.116C2815.12,877.82 2822.6,880.512 2830.09,883.214L2826.18,894.701C2818.67,891.994 2811.19,889.299 2803.75,886.59ZM2848.57,902.808L2852.52,891.337C2859.99,894.065 2867.47,896.826 2874.93,899.643L2870.86,911.07C2863.43,908.268 2856,905.521 2848.57,902.808ZM2892.99,919.64L2897.26,908.289C2904.7,911.25 2912.1,914.289 2919.45,917.431L2914.91,928.671C2907.65,925.568 2900.34,922.565 2892.99,919.64ZM2936.54,938.313L2941.42,927.226C2948.72,930.628 2955.94,934.156 2963.08,937.835L2957.78,948.716C2950.78,945.109 2943.69,941.649 2936.54,938.313ZM2978.52,960.029L2984.31,949.415C2991.32,953.465 2998.22,957.691 3004.98,962.118L2998.63,972.388C2992.05,968.081 2985.34,963.969 2978.52,960.029ZM3017.96,985.916L3024.93,976.077C3031.43,980.949 3037.78,986.048 3043.96,991.396L3036.35,1000.71C3030.38,995.545 3024.25,990.622 3017.96,985.916ZM3053.59,1016.82L3061.88,1008.13C3067.61,1013.92 3073.14,1019.96 3078.48,1026.29L3069.54,1034.26C3064.41,1028.18 3059.09,1022.38 3053.59,1016.82ZM3084.03,1052.98L3093.58,1045.8C3098.28,1052.42 3102.77,1059.33 3107.05,1066.54L3096.95,1072.88C3092.85,1065.96 3088.53,1059.33 3084.03,1052.98ZM3108.24,1093.81L3118.81,1088.33C3119.2,1089.14 3119.6,1089.95 3119.99,1090.77C3123.17,1097.41 3126.05,1104.25 3128.63,1111.28L3117.56,1115.58C3115.12,1108.92 3112.39,1102.44 3109.38,1096.15C3109,1095.37 3108.62,1094.59 3108.24,1093.81ZM3124.62,1138.26L3136.05,1135.13C3138.11,1143.09 3139.82,1151.25 3141.19,1159.56L3129.53,1161.59C3128.22,1153.65 3126.58,1145.87 3124.62,1138.26ZM3132.43,1185.32L3144.22,1184.31C3144.88,1192.49 3145.23,1200.79 3145.28,1209.19L3133.45,1209.26C3133.4,1201.18 3133.07,1193.19 3132.43,1185.32ZM3132.73,1233.25L3144.53,1234.06C3144,1242.23 3143.19,1250.48 3142.11,1258.78L3130.38,1257.15C3131.43,1249.13 3132.21,1241.15 3132.73,1233.25ZM3126.52,1280.87L3138.12,1283.26C3136.56,1291.29 3134.75,1299.35 3132.69,1307.42L3121.24,1304.32C3123.25,1296.49 3125.01,1288.67 3126.52,1280.87ZM3114.63,1327.43L3125.88,1331.2C3123.41,1338.99 3120.71,1346.77 3117.78,1354.53L3106.76,1350.12C3109.61,1342.58 3112.23,1335.01 3114.63,1327.43ZM3097.68,1372.35L3108.46,1377.37C3105.18,1384.83 3101.68,1392.27 3097.97,1399.65L3087.47,1394.06C3091.08,1386.87 3094.49,1379.63 3097.68,1372.35ZM3076.16,1415.19L3086.37,1421.34C3082.35,1428.41 3078.12,1435.43 3073.7,1442.37L3063.81,1435.7C3068.12,1428.93 3072.24,1422.09 3076.16,1415.19ZM3050.45,1455.54L3060.01,1462.72C3055.3,1469.34 3050.41,1475.88 3045.33,1482.32L3036.14,1474.65C3041.1,1468.37 3045.87,1462 3050.45,1455.54ZM3020.91,1493.01L3029.71,1501.14C3024.38,1507.24 3018.88,1513.24 3013.19,1519.12L3004.8,1510.55C3010.34,1504.81 3015.71,1498.96 3020.91,1493.01ZM2987.85,1527.23L2995.81,1536.23C2989.92,1541.75 2983.85,1547.15 2977.62,1552.42L2970.11,1543.01C2976.19,1537.88 2982.1,1532.61 2987.85,1527.23ZM2951.62,1557.86L2958.66,1567.64C2952.26,1572.52 2945.69,1577.26 2938.97,1581.86L2932.42,1571.73C2938.97,1567.24 2945.37,1562.62 2951.62,1557.86ZM2912.57,1584.59L2918.62,1595.05C2911.78,1599.24 2904.79,1603.28 2897.66,1607.17L2892.12,1596.41C2899.08,1592.62 2905.9,1588.68 2912.57,1584.59ZM2871.12,1607.17L2876.13,1618.2C2868.93,1621.66 2861.59,1624.98 2854.11,1628.12L2849.63,1616.86C2856.93,1613.79 2864.09,1610.56 2871.12,1607.17ZM2827.7,1625.45L2831.64,1636.92C2824.15,1639.65 2816.54,1642.21 2808.79,1644.6L2805.39,1632.95C2812.95,1630.61 2820.39,1628.11 2827.7,1625.45ZM2782.75,1639.35L2785.62,1651.16C2777.93,1653.14 2770.11,1654.95 2762.19,1656.6L2759.85,1644.67C2767.59,1643.06 2775.23,1641.29 2782.75,1639.35ZM2736.72,1648.92L2738.54,1660.94C2730.71,1662.2 2722.78,1663.29 2714.74,1664.21L2713.43,1652.11C2721.3,1651.21 2729.06,1650.14 2736.72,1648.92ZM2690.01,1654.29L2690.84,1666.43C2682.76,1667.02 2674.8,1667.48 2666.96,1667.83L2666.45,1655.67C2674.19,1655.33 2682.04,1654.87 2690.01,1654.29ZM2642.89,1656.35L2643.04,1668.52C2634.92,1668.63 2626.94,1668.6 2619.09,1668.45L2619.32,1656.28C2627.05,1656.43 2634.9,1656.46 2642.89,1656.35ZM2595.79,1655.39L2595.15,1667.55C2587.03,1667.1 2579.06,1666.5 2571.23,1665.76L2572.32,1653.64C2580,1654.36 2587.82,1654.95 2595.79,1655.39ZM2548.95,1650.94L2547.39,1663.01C2539.32,1661.9 2531.41,1660.64 2523.66,1659.23L2525.73,1647.24C2533.31,1648.63 2541.05,1649.86 2548.95,1650.94ZM2502.71,1642.47L2500.1,1654.35C2492.16,1652.5 2484.38,1650.48 2476.78,1648.3L2479.97,1636.57C2487.38,1638.7 2494.96,1640.67 2502.71,1642.47ZM2457.56,1629.48L2453.78,1641.02C2446.06,1638.34 2438.53,1635.48 2431.18,1632.45L2435.58,1621.16C2442.73,1624.1 2450.05,1626.88 2457.56,1629.48ZM2414.11,1611.56L2409.08,1622.57C2401.72,1619.01 2394.55,1615.27 2387.58,1611.35L2393.25,1600.67C2400.02,1604.47 2406.97,1608.1 2414.11,1611.56ZM2373.08,1588.49L2366.78,1598.79C2359.91,1594.34 2353.25,1589.71 2346.78,1584.91L2353.69,1575.04C2359.97,1579.69 2366.43,1584.17 2373.08,1588.49ZM2335.16,1560.37L2327.66,1569.79C2321.41,1564.51 2315.35,1559.07 2309.49,1553.47L2317.54,1544.55C2323.23,1549.98 2329.1,1555.26 2335.16,1560.37ZM2300.87,1527.65L2292.32,1536.06C2286.76,1530.08 2281.38,1523.94 2276.18,1517.66L2285.18,1509.77C2290.24,1515.87 2295.47,1521.83 2300.87,1527.65ZM2270.48,1491L2261.07,1498.38C2256.21,1491.82 2251.52,1485.13 2246.98,1478.32L2256.74,1471.44C2261.16,1478.08 2265.74,1484.6 2270.48,1491ZM2243.95,1451.19L2233.88,1457.59C2229.68,1450.59 2225.64,1443.49 2221.73,1436.28L2232.06,1430.35C2235.88,1437.4 2239.84,1444.35 2243.95,1451.19ZM2221.02,1408.99L2210.47,1414.48C2206.87,1407.16 2203.39,1399.75 2200.04,1392.27L2210.79,1387.18C2214.08,1394.53 2217.49,1401.8 2221.02,1408.99ZM2201.3,1365L2190.4,1369.71C2187.31,1362.16 2184.34,1354.54 2181.47,1346.86L2192.51,1342.49C2195.34,1350.05 2198.26,1357.56 2201.3,1365ZM2184.34,1319.72L2173.19,1323.78C2170.54,1316.06 2167.98,1308.29 2165.51,1300.49L2176.76,1296.72C2179.2,1304.42 2181.72,1312.09 2184.34,1319.72ZM2169.69,1273.53L2158.36,1277.04C2156.06,1269.21 2153.84,1261.34 2151.69,1253.46L2163.08,1250.17C2165.21,1257.98 2167.41,1265.77 2169.69,1273.53ZM2156.89,1226.68L2145.44,1229.78C2143.42,1221.85 2141.47,1213.93 2139.57,1206L2151.05,1203.09C2152.94,1210.95 2154.88,1218.82 2156.89,1226.68ZM2145.33,1179.28L2133.88,1182.35C2131.86,1174.36 2129.73,1166.6 2127.51,1159.06L2138.83,1155.53C2141.1,1163.22 2143.26,1171.13 2145.33,1179.28ZM2131.36,1132.04L2120.2,1136.09C2117.54,1128.33 2114.76,1120.81 2111.86,1113.53L2122.81,1108.92C2125.78,1116.38 2128.63,1124.09 2131.36,1132.04ZM2113.1,1086.26L2102.41,1091.47C2099,1084.08 2095.45,1076.94 2091.76,1070.03L2102.14,1064.17C2105.93,1071.29 2109.59,1078.64 2113.1,1086.26ZM2089.87,1042.8L2079.88,1049.31C2075.66,1042.46 2071.28,1035.84 2066.74,1029.43L2076.31,1022.26C2080.99,1028.88 2085.51,1035.72 2089.87,1042.8ZM2061.49,1002.67L2052.39,1010.45C2047.39,1004.26 2042.22,998.262 2036.89,992.431L2045.5,984.091C2051,990.103 2056.33,996.287 2061.49,1002.67ZM2028.5,966.54L2020.36,975.372C2014.71,969.863 2008.9,964.492 2002.92,959.229L2010.62,949.983C2016.75,955.381 2022.71,960.89 2028.5,966.54ZM1992.03,934.341L1984.74,943.924C1978.62,938.999 1972.36,934.15 1965.93,929.352L1972.88,919.503C1979.42,924.388 1985.81,929.326 1992.03,934.341ZM1953.31,905.342L1946.64,915.396C1940.23,910.89 1933.67,906.41 1926.98,901.932L1933.42,891.727C1940.19,896.255 1946.83,900.786 1953.31,905.342ZM1913.31,878.532L1907.03,888.845C1900.44,884.595 1893.72,880.328 1886.88,876.027L1893.05,865.642C1899.93,869.967 1906.68,874.257 1913.31,878.532ZM1872.7,852.954L1866.6,863.383C1859.92,859.249 1853.13,855.07 1846.24,850.829L1852.31,840.381C1859.21,844.628 1866.01,848.814 1872.7,852.954ZM1831.91,827.847L1825.84,838.294C1822.47,836.218 1819.07,834.126 1815.64,832.014C1815.49,831.917 1815.33,831.812 1815.18,831.7C1811.9,829.224 1808.66,826.756 1805.46,824.296L1812.53,814.539C1815.64,816.925 1818.78,819.319 1821.96,821.72C1825.3,823.78 1828.62,825.821 1831.91,827.847ZM1793.39,799.612L1786.17,809.252C1779.66,804.092 1773.31,798.968 1767.12,793.879L1774.5,784.367C1780.64,789.414 1786.94,794.495 1793.39,799.612ZM1755.88,768.785L1748.33,778.156C1741.99,772.755 1735.83,767.392 1729.83,762.066L1737.55,752.849C1743.5,758.124 1749.6,763.435 1755.88,768.785ZM1719.55,736.538L1711.64,745.587C1705.51,739.918 1699.57,734.29 1693.8,728.701L1701.9,719.837C1707.61,725.365 1713.49,730.931 1719.55,736.538ZM1684.64,702.727L1676.33,711.39C1670.46,705.431 1664.78,699.515 1659.28,693.639L1667.8,685.193C1673.23,690.997 1678.84,696.841 1684.64,702.727ZM1651.4,667.226L1642.67,675.437C1637.11,669.174 1631.74,662.955 1626.54,656.775L1635.49,648.813C1640.62,654.911 1645.91,661.047 1651.4,667.226ZM1620.09,629.956L1610.92,637.654C1605.71,631.09 1600.69,624.567 1595.84,618.082L1605.21,610.657C1610,617.051 1614.95,623.483 1620.09,629.956ZM1590.87,590.928L1581.3,598.078C1576.47,591.239 1571.82,584.438 1567.31,577.668L1577.07,570.791C1581.52,577.47 1586.11,584.18 1590.87,590.928ZM1563.79,550.275L1553.86,556.894C1549.42,549.837 1545.11,542.809 1540.92,535.804L1550.99,529.42C1555.14,536.346 1559.4,543.296 1563.79,550.275ZM1538.61,508.273L1528.42,514.456C1524.29,507.26 1520.26,500.082 1516.29,492.915L1526.56,486.887C1530.51,494.002 1534.51,501.128 1538.61,508.273ZM1514.76,465.323L1504.43,471.248C1500.5,464.005 1496.62,456.768 1492.73,449.527L1503.09,443.646C1506.97,450.872 1510.85,458.095 1514.76,465.323ZM1491.43,421.924L1481.08,427.822C1477.2,420.627 1473.3,413.422 1469.35,406.2L1479.66,400.225C1483.62,407.472 1487.54,414.703 1491.43,421.924ZM1467.66,378.619L1457.43,384.726C1453.44,377.661 1449.38,370.575 1445.21,363.459L1455.35,357.175C1459.55,364.35 1463.65,371.496 1467.66,378.619ZM1442.62,335.955L1432.62,342.455C1430.1,338.354 1427.54,334.241 1424.93,330.115C1423.18,327.359 1421.39,324.648 1419.56,321.98L1429.23,314.957C1431.14,317.75 1433.02,320.588 1434.84,323.473C1437.48,327.646 1440.07,331.806 1442.62,335.955ZM1414.08,294.945L1405.09,302.86C1399.97,296.7 1394.59,290.809 1388.97,285.181L1397.22,276.459C1403.09,282.344 1408.72,288.504 1414.08,294.945ZM1378.84,259.606L1371.36,269.034C1365.27,263.923 1358.97,259.068 1352.46,254.463L1359.16,244.434C1365.94,249.229 1372.5,254.284 1378.84,259.606ZM1338.4,230.937L1332.46,241.466C1325.67,237.413 1318.7,233.595 1311.56,230.006L1316.76,219.07C1324.15,222.787 1331.37,226.74 1338.4,230.937ZM1294.4,208.761L1289.91,220.022C1282.64,216.951 1275.22,214.093 1267.68,211.44L1271.5,199.923C1279.27,202.654 1286.91,205.598 1294.4,208.761ZM1248.17,192.463L1244.97,204.18C1237.38,201.984 1229.68,199.979 1221.89,198.159L1224.51,186.289C1232.49,188.155 1240.38,190.211 1248.17,192.463ZM1200.61,181.316L1198.53,193.299C1190.74,191.872 1182.88,190.617 1174.96,189.529L1176.53,177.464C1184.62,178.576 1192.65,179.858 1200.61,181.316ZM1152.33,174.662L1151.24,186.782C1143.35,186.033 1135.4,185.441 1127.42,185.001L1128.06,172.847C1136.19,173.295 1144.28,173.899 1152.33,174.662ZM1103.75,171.964L1103.54,184.133C1095.59,183.992 1087.62,183.994 1079.63,184.136L1079.43,171.966C1087.55,171.822 1095.66,171.82 1103.75,171.964ZM1055.14,172.816L1055.74,184.972C1047.78,185.386 1039.82,185.933 1031.87,186.61L1030.89,174.48C1038.97,173.792 1047.05,173.236 1055.14,172.816ZM1006.71,176.934L1008.06,189.027C1000.12,189.961 992.207,191.022 984.331,192.204L982.624,180.159C990.62,178.96 998.654,177.883 1006.71,176.934ZM958.645,184.144L960.71,196.129C952.824,197.567 944.988,199.125 937.215,200.797L934.793,188.883C942.685,187.185 950.639,185.604 958.645,184.144ZM911.093,194.379L913.874,206.21C906.072,208.151 898.348,210.207 890.715,212.373L887.569,200.64C895.322,198.44 903.168,196.351 911.093,194.379ZM864.247,207.685L867.768,219.305C860.087,221.768 852.517,224.344 845.073,227.027L841.162,215.539C848.733,212.811 856.433,210.191 864.247,207.685ZM818.351,224.244L822.672,235.575C815.163,238.606 807.808,241.748 800.624,244.994L795.866,233.851C803.192,230.54 810.693,227.335 818.351,224.244ZM773.773,244.428L779.004,255.346C771.75,259.025 764.71,262.815 757.905,266.709L752.155,256.072C759.127,252.082 766.34,248.198 773.773,244.428ZM731.128,268.902L737.459,279.185C730.611,283.647 724.067,288.222 717.854,292.901L710.866,283.079C717.288,278.243 724.051,273.514 731.128,268.902ZM691.614,298.814L699.358,308.016C693.234,313.471 687.56,319.042 682.374,324.716L673.755,316.378C679.209,310.411 685.174,304.551 691.614,298.814ZM657.896,336.1L667.512,343.191C662.859,349.869 658.896,356.659 655.687,363.545L645.019,358.282C648.516,350.779 652.827,343.376 657.896,336.1ZM636.595,382.927L648.137,385.597C646.477,393.198 645.775,400.882 646.112,408.621L634.293,409.167C633.909,400.347 634.702,391.59 636.595,382.927ZM638.854,435.083L650.124,431.38C652.326,438.475 655.437,445.591 659.498,452.71L649.295,458.871C644.766,450.933 641.31,442.994 638.854,435.083ZM663.851,479.884L672.902,472.045C677.537,477.71 682.797,483.363 688.706,488.998C688.837,489.123 688.968,489.248 689.099,489.373L681.054,498.297C680.923,498.173 680.793,498.048 680.663,497.924C674.377,491.929 668.783,485.911 663.851,479.884ZM698.536,515.239L706.717,506.447C712.512,512.154 718.299,517.947 724.065,523.827L715.736,532.472C710.019,526.642 704.282,520.898 698.536,515.239ZM732.621,550.016L741.108,541.536C746.711,547.472 752.283,553.492 757.812,559.597L749.156,567.894C743.683,561.85 738.167,555.891 732.621,550.016ZM765.306,586.129L774.141,578.034C779.501,584.226 784.809,590.503 790.053,596.865L781.031,604.738C775.848,598.451 770.603,592.248 765.306,586.129ZM796.291,623.738L805.509,616.109C810.57,622.581 815.558,629.139 820.463,635.782L811.042,643.144C806.204,636.591 801.283,630.123 796.291,623.738ZM825.239,662.969L834.868,655.897C839.566,662.668 844.172,669.524 848.675,676.466L838.833,683.222C834.4,676.386 829.865,669.636 825.239,662.969ZM851.774,703.91L861.83,697.497C866.094,704.574 870.247,711.739 874.278,718.991L864.009,725.033C860.047,717.906 855.965,710.865 851.774,703.91ZM875.482,746.589L885.964,740.945C889.719,748.327 893.345,755.797 896.83,763.355L886.141,768.572C882.722,761.158 879.166,753.831 875.482,746.589ZM895.93,790.966L906.818,786.203C909.987,793.871 913.009,801.626 915.873,809.471L904.799,813.752C901.993,806.07 899.034,798.475 895.93,790.966ZM912.696,836.904L923.943,833.129C926.454,841.045 928.802,849.049 930.979,857.14L919.577,860.388C917.448,852.474 915.151,844.646 912.696,836.904ZM925.404,884.165L936.94,881.464C938.734,889.574 940.354,897.77 941.793,906.052L930.146,908.192C928.741,900.099 927.157,892.09 925.404,884.165ZM933.781,932.421L945.513,930.85C946.555,939.083 947.416,947.4 948.088,955.801L936.297,956.799C935.64,948.591 934.799,940.466 933.781,932.421ZM937.691,981.274L949.514,980.848C949.656,985.009 949.751,989.189 949.799,993.389C949.8,993.422 949.8,993.454 949.8,993.486C949.783,997.636 949.701,1001.78 949.556,1005.92L937.733,1005.48C937.873,1001.49 937.952,997.488 937.969,993.483C937.922,989.394 937.829,985.325 937.691,981.274ZM936.163,1029.53L947.938,1030.72C947.152,1038.96 946.124,1047.18 944.865,1055.36L933.18,1053.45C934.402,1045.51 935.4,1037.53 936.163,1029.53ZM928.855,1077.18L940.418,1079.76C938.72,1087.82 936.804,1095.86 934.684,1103.85L923.271,1100.64C925.336,1092.86 927.201,1085.04 928.855,1077.18ZM916.51,1123.8L927.753,1127.59C925.259,1135.41 922.576,1143.2 919.714,1150.93L908.658,1146.6C911.453,1139.05 914.074,1131.44 916.51,1123.8ZM899.796,1169.03L910.656,1173.86C907.484,1181.41 904.149,1188.91 900.66,1196.36L890.003,1191.07C893.421,1183.78 896.689,1176.43 899.796,1169.03ZM879.353,1212.7L889.802,1218.41C886.054,1225.67 882.167,1232.87 878.152,1240.01L867.912,1233.91C871.855,1226.9 875.673,1219.83 879.353,1212.7ZM855.742,1254.71L865.772,1261.16C861.535,1268.13 857.181,1275.04 852.721,1281.87L842.899,1275.09C847.288,1268.36 851.572,1261.57 855.742,1254.71ZM829.433,1295.04L839.049,1302.13C834.391,1308.82 829.638,1315.43 824.8,1321.96L815.389,1314.59C820.157,1308.15 824.842,1301.63 829.433,1295.04ZM800.807,1333.72L810.016,1341.36C804.992,1347.77 799.893,1354.1 794.73,1360.34L785.721,1352.45C790.817,1346.29 795.849,1340.05 800.807,1333.72ZM770.164,1370.77L778.975,1378.89C773.626,1385.03 768.223,1391.08 762.776,1397.03L754.162,1388.69C759.543,1382.81 764.881,1376.84 770.164,1370.77ZM737.739,1406.21L746.156,1414.76C740.512,1420.64 734.834,1426.41 729.134,1432.07L720.915,1423.32C726.549,1417.72 732.161,1412.02 737.739,1406.21ZM703.707,1440.03L711.727,1448.98C705.806,1454.59 699.875,1460.09 693.946,1465.46L686.129,1456.32C691.99,1451.01 697.853,1445.58 703.707,1440.03ZM668.191,1472.19L675.801,1481.51C669.609,1486.87 663.435,1492.07 657.294,1497.13L649.899,1487.63C655.968,1482.63 662.071,1477.48 668.191,1472.19ZM631.413,1503.45L639.187,1512.62C633.247,1517.95 627.462,1523.39 621.836,1528.95L613.645,1520.17C619.406,1514.48 625.33,1508.9 631.413,1503.45ZM596.677,1537.75L605.275,1546.11C599.867,1552 594.628,1557.99 589.559,1564.09L580.568,1556.18C585.764,1549.93 591.135,1543.78 596.677,1537.75ZM565.374,1575.42L574.744,1582.85C569.942,1589.26 565.322,1595.76 560.884,1602.36L551.154,1595.44C555.707,1588.67 560.448,1581.99 565.374,1575.42ZM537.966,1616.2L548.037,1622.59C543.916,1629.46 539.988,1636.43 536.255,1643.48L525.866,1637.66C529.699,1630.42 533.734,1623.26 537.966,1616.2ZM514.909,1659.76L525.592,1664.99C522.222,1672.28 519.056,1679.64 516.097,1687.07L505.149,1682.46C508.191,1674.82 511.445,1667.25 514.909,1659.76ZM496.633,1705.68L507.816,1709.66C505.261,1717.27 502.92,1724.95 500.795,1732.68L489.41,1729.37C491.596,1721.41 494.005,1713.52 496.633,1705.68ZM483.517,1753.45L495.069,1756.08C493.38,1763.93 491.913,1771.83 490.67,1779.78L478.989,1777.85C480.269,1769.67 481.779,1761.53 483.517,1753.45ZM475.852,1802.47L487.623,1803.7C486.836,1811.68 486.275,1819.71 485.943,1827.76L474.123,1827.24C474.464,1818.95 475.042,1810.69 475.852,1802.47ZM473.811,1852.08L485.64,1851.88C485.768,1859.89 486.124,1867.93 486.712,1875.98L474.914,1876.89C474.309,1868.6 473.943,1860.33 473.811,1852.08ZM477.421,1901.59L489.147,1899.98C490.179,1907.91 491.437,1915.85 492.926,1923.79L481.309,1926.1C479.777,1917.92 478.482,1909.75 477.421,1901.59ZM486.548,1950.33L498.02,1947.35C499.92,1955.1 502.043,1962.85 504.391,1970.59L493.098,1974.22C490.684,1966.26 488.502,1958.3 486.548,1950.33ZM500.91,1997.69L511.995,1993.44C514.708,2000.92 517.637,2008.39 520.782,2015.84L509.931,2020.69C506.702,2013.04 503.696,2005.37 500.91,1997.69ZM520.102,2043.17L530.697,2037.75C534.151,2044.9 537.811,2052.03 541.68,2059.12L531.36,2065.08C527.395,2057.8 523.643,2050.5 520.102,2043.17Z" style="fill:rgb(0,102,139);"/>
    </g>
</svg>
