<?xml version="1.0" encoding="UTF-8" standalone="no"?>
<!-- Created with Inkscape (http://www.inkscape.org/) -->

<svg
   width="50.000004"
   height="50.000004"
   viewBox="0 0 13.229167 13.229168"
   version="1.1"
   id="svg38448"
   xml:space="preserve"
   inkscape:version="1.2 (dc2aedaf03, 2022-05-15)"
   sodipodi:docname="doubloon.svg"
   inkscape:export-filename="doubloon.png"
   inkscape:export-xdpi="768"
   inkscape:export-ydpi="768"
   xmlns:inkscape="http://www.inkscape.org/namespaces/inkscape"
   xmlns:sodipodi="http://sodipodi.sourceforge.net/DTD/sodipodi-0.dtd"
   xmlns:xlink="http://www.w3.org/1999/xlink"
   xmlns="http://www.w3.org/2000/svg"
   xmlns:svg="http://www.w3.org/2000/svg"><sodipodi:namedview
     id="namedview38450"
     pagecolor="#505050"
     bordercolor="#ffffff"
     borderopacity="1"
     inkscape:showpageshadow="0"
     inkscape:pageopacity="0"
     inkscape:pagecheckerboard="1"
     inkscape:deskcolor="#505050"
     inkscape:document-units="px"
     showgrid="false"
     inkscape:zoom="4.9264142"
     inkscape:cx="24.764462"
     inkscape:cy="14.209118"
     inkscape:window-width="1366"
     inkscape:window-height="705"
     inkscape:window-x="-8"
     inkscape:window-y="-8"
     inkscape:window-maximized="1"
     inkscape:current-layer="layer1" /><defs
     id="defs38445"><linearGradient
       inkscape:collect="always"
       id="linearGradient55186"><stop
         style="stop-color:#ffdd4a;stop-opacity:1;"
         offset="0.74092013"
         id="stop55182" /><stop
         style="stop-color:#ffc635;stop-opacity:1;"
         offset="0.87046003"
         id="stop56609" /><stop
         style="stop-color:#ffb520;stop-opacity:1;"
         offset="1"
         id="stop55184" /></linearGradient><radialGradient
       inkscape:collect="always"
       xlink:href="#linearGradient55186"
       id="radialGradient55188"
       cx="6.614583"
       cy="6.614583"
       fx="6.614583"
       fy="6.614583"
       r="5.6482339"
       gradientUnits="userSpaceOnUse"
       gradientTransform="matrix(1.1548595,0,0,1.1548595,-1.0243309,-1.0243309)" /></defs><g
     inkscape:label="Layer 1"
     inkscape:groupmode="layer"
     id="layer1"><path
       id="path39928"
       style="fill:url(#radialGradient55188);fill-opacity:1;fill-rule:evenodd;stroke-width:0.305556"
       d="M 6.6145832 0.091467284 A 6.523058 6.523058 0 0 0 6.1525959 0.10903727 C 6.1443263 0.1096308 6.1360575 0.1099626 6.1277913 0.11058756 A 6.523058 6.523058 0 0 0 5.6776895 0.16019694 C 5.6676713 0.16165826 5.6577277 0.16333999 5.6477172 0.16484782 A 6.523058 6.523058 0 0 0 5.1960652 0.24856364 A 6.523058 6.523058 0 0 0 4.7588826 0.36328531 C 4.7442594 0.36763713 4.7295517 0.37174954 4.7149576 0.37620442 A 6.523058 6.523058 0 0 0 4.2943115 0.52038167 C 4.2865258 0.52335196 4.2788323 0.52668289 4.2710571 0.52968342 A 6.523058 6.523058 0 0 0 3.8462768 0.71055093 C 3.8319152 0.76454828 3.8116023 0.81535487 3.7873657 0.86351317 A 0.74953106 0.77835923 0 0 1 3.7863321 0.86661376 C 3.7859481 0.86736909 3.7851682 0.86792707 3.7847819 0.86868082 C 3.759912 0.91720539 3.7304857 0.96267517 3.6969319 1.0040731 A 0.74953106 0.77835923 0 0 1 3.6958984 1.0056234 C 3.6954375 1.0061892 3.6948105 1.0066092 3.6943481 1.0071737 C 3.6596988 1.0494676 3.6213802 1.0878077 3.5791097 1.1213786 C 3.5373866 1.1545147 3.49192 1.1831686 3.4442342 1.2066447 A 0.74953106 0.77835923 0 0 1 3.438033 1.2097453 C 3.3916651 1.2320314 3.3428597 1.2492929 3.2923055 1.2614217 A 0.74953106 0.77835923 0 0 1 3.2824869 1.2634888 C 3.2320353 1.2748582 3.1801464 1.2813287 3.1269409 1.2815755 C 3.0912009 1.2809537 3.0556884 1.2776404 3.0204874 1.271757 C 2.9852865 1.2658735 2.950224 1.2574905 2.916101 1.2464355 A 6.523058 6.523058 0 0 0 2.5228434 1.5404744 C 2.5173084 1.5449314 2.5118271 1.5494354 2.5063069 1.5539103 A 6.523058 6.523058 0 0 0 2.1383707 1.8753377 A 6.523058 6.523058 0 0 0 2.1295857 1.8836059 A 6.523058 6.523058 0 0 0 1.7818034 2.2381063 C 1.7940063 2.2931212 1.8004336 2.3496015 1.8009236 2.4060547 A 0.74953106 0.77835923 0 0 1 1.7978231 2.4706502 C 1.7971338 2.4793295 1.7962008 2.487891 1.7952392 2.4964884 A 0.74953106 0.77835923 0 0 1 1.7859375 2.5590169 C 1.7858737 2.5593489 1.7860017 2.5597186 1.7859375 2.5600504 A 0.74953106 0.77835923 0 0 1 1.7859375 2.5605672 A 0.74953106 0.77835923 0 0 1 1.7714681 2.6220621 C 1.7711805 2.6230983 1.7707261 2.6241283 1.7704345 2.6251627 C 1.7669801 2.6374181 1.7630777 2.6493375 1.7590657 2.6613362 A 0.74953106 0.77835923 0 0 1 1.7549316 2.6737386 C 1.7540581 2.676214 1.752728 2.6785096 1.751831 2.6809733 C 1.7471934 2.6937107 1.7426151 2.7062865 1.7373616 2.7186971 A 0.74953106 0.77835923 0 0 1 1.7352946 2.7243815 C 1.7326272 2.7305507 1.7293261 2.736385 1.7265096 2.7424682 C 1.7217076 2.7528396 1.7172662 2.7633628 1.7120402 2.7734741 A 0.74953106 0.77835923 0 0 1 1.7032552 2.788977 A 0.74953106 0.77835923 0 0 1 1.679484 2.8303182 C 1.6785466 2.8318124 1.6778473 2.8334819 1.6769002 2.834969 A 0.74953106 0.77835923 0 0 1 1.6717326 2.8422037 A 0.74953106 0.77835923 0 0 1 1.6402099 2.8871622 C 1.6384217 2.8895202 1.6368562 2.892061 1.6350423 2.8943969 A 0.74953106 0.77835923 0 0 1 1.6319417 2.898531 A 0.74953106 0.77835923 0 0 1 1.5880167 2.949174 A 0.74953106 0.77835923 0 0 1 1.543575 2.9930989 C 1.5367003 2.9993229 1.5294805 3.0052211 1.5223877 3.0111857 A 0.74953106 0.77835923 0 0 1 1.4944824 3.0334065 C 1.4871352 3.0390162 1.4798105 3.0446081 1.4722615 3.049943 A 0.74953106 0.77835923 0 0 1 1.4345377 3.0742309 A 0.74953106 0.77835923 0 0 1 1.4221354 3.0824991 C 1.4115542 3.0887653 1.4004771 3.0943306 1.3895792 3.1000691 A 0.74953106 0.77835923 0 0 1 1.3751098 3.1078206 C 1.3740776 3.1083351 1.3730442 3.1088611 1.3720093 3.1093709 C 1.3616412 3.1144779 1.3511119 3.1192191 1.3404866 3.1238403 A 0.74953106 0.77835923 0 0 1 1.3037964 3.1383097 C 1.2963723 3.1410695 1.2891069 3.1440562 1.2815755 3.1465779 A 0.74953106 0.77835923 0 0 1 1.2774414 3.1481282 A 0.74953106 0.77835923 0 0 1 1.2226644 3.1641479 C 1.2170428 3.1655124 1.2112812 3.1665327 1.2056111 3.1677653 A 0.74953106 0.77835923 0 0 1 1.1611694 3.1755167 C 1.1507295 3.1771122 1.1402246 3.1785058 1.1296468 3.1796508 A 0.74953106 0.77835923 0 0 1 1.0702189 3.1843017 A 6.523058 6.523058 0 0 0 0.84594319 3.5760091 C 0.84565447 3.5765561 0.84519821 3.5770123 0.84490966 3.5775594 A 6.523058 6.523058 0 0 0 0.64905598 3.9827026 A 6.523058 6.523058 0 0 0 0.4909261 4.3749267 C 0.48451096 4.3924185 0.47858672 4.410093 0.47232258 4.4276367 A 6.523058 6.523058 0 0 0 0.34209798 4.8312296 A 6.523058 6.523058 0 0 0 0.23667806 5.2539428 C 0.23564497 5.2587621 0.23459967 5.2635904 0.23357747 5.2684122 C 0.23230269 5.2744255 0.23121796 5.2804818 0.22996012 5.286499 A 6.523058 6.523058 0 0 0 0.15502929 5.7143798 A 6.523058 6.523058 0 0 0 0.10955404 6.1453612 C 0.10861064 6.1582678 0.10783703 6.1712026 0.10697021 6.1841186 A 6.523058 6.523058 0 0 0 0.091467284 6.6145832 A 6.523058 6.523058 0 0 0 1.2252482 10.289294 A 6.523058 6.523058 0 0 0 1.5089518 10.673767 C 1.5134623 10.679433 1.5178588 10.68517 1.5223877 10.69082 A 6.523058 6.523058 0 0 0 1.8267619 11.04377 A 6.523058 6.523058 0 0 0 1.839681 11.057723 A 6.523058 6.523058 0 0 0 2.1714437 11.389486 A 6.523058 6.523058 0 0 0 2.1853963 11.402405 A 6.523058 6.523058 0 0 0 2.5383463 11.706779 C 2.5439967 11.711308 2.5497338 11.715704 2.5553995 11.720215 A 6.523058 6.523058 0 0 0 2.9398722 12.003918 A 6.523058 6.523058 0 0 0 6.6145832 13.137699 A 6.523058 6.523058 0 0 0 7.1148111 13.118062 A 6.523058 6.523058 0 0 0 8.1033812 12.964583 A 6.523058 6.523058 0 0 0 9.952364 12.216825 A 6.523058 6.523058 0 0 0 10.368359 11.946557 C 10.369572 11.945702 10.370764 11.944829 10.371977 11.943974 A 6.523058 6.523058 0 0 0 10.374044 11.942423 A 6.523058 6.523058 0 0 0 10.766785 11.642183 C 10.767819 11.641328 10.768851 11.640455 10.769885 11.639599 A 6.523058 6.523058 0 0 0 10.777637 11.632882 A 6.523058 6.523058 0 0 0 11.133687 11.314555 C 11.142976 11.305621 11.151839 11.296155 11.161076 11.287166 A 6.523058 6.523058 0 0 0 11.483537 10.950753 C 11.489068 10.944542 11.494048 10.937864 11.499556 10.931632 A 6.523058 6.523058 0 0 0 11.801347 10.565246 C 11.806502 10.55848 11.811203 10.551363 11.816333 10.544576 A 6.523058 6.523058 0 0 0 12.093835 10.147701 A 6.523058 6.523058 0 0 0 12.347567 9.7193033 C 12.347933 9.7186261 12.348234 9.7179135 12.3486 9.7172362 A 6.523058 6.523058 0 0 0 12.35015 9.7136188 A 6.523058 6.523058 0 0 0 12.569775 9.268168 A 6.523058 6.523058 0 0 0 12.735657 8.853723 C 12.379116 8.2676627 12.415811 7.9203084 12.531535 7.4677611 C 12.614225 7.1443864 12.934369 6.8143666 13.135632 6.6693603 C 13.136306 6.6510613 13.137199 6.6328872 13.137699 6.6145832 A 6.523058 6.523058 0 0 0 12.003918 2.9398722 A 6.523058 6.523058 0 0 0 11.720215 2.5553995 C 11.715704 2.5497338 11.711308 2.5439967 11.706779 2.5383463 A 6.523058 6.523058 0 0 0 11.402405 2.1853963 C 11.400249 2.1830667 11.398363 2.180488 11.396203 2.1781616 A 6.523058 6.523058 0 0 0 11.389486 2.1714437 A 6.523058 6.523058 0 0 0 11.057723 1.839681 C 11.055406 1.8375244 11.053325 1.8351162 11.051005 1.832963 A 6.523058 6.523058 0 0 0 11.04377 1.8267619 A 6.523058 6.523058 0 0 0 10.69082 1.5223877 C 10.68517 1.5178588 10.679433 1.5134623 10.673767 1.5089518 A 6.523058 6.523058 0 0 0 10.289294 1.2252482 A 6.523058 6.523058 0 0 0 6.6145832 0.091467284 z " /><path
       id="path59166"
       style="fill:#feeea9;fill-opacity:1;stroke-width:1.23317;stroke-linejoin:round;stop-color:#000000"
       d="M 13.129431 6.3918578 L 11.432377 6.9303262 C 11.424677 7.0737387 11.413958 7.2168127 11.400338 7.3592406 C 11.382838 7.5327374 11.360807 7.7054735 11.334709 7.8765217 C 11.311489 8.0258828 11.285334 8.1736563 11.255644 8.3204223 L 11.30732 8.4697671 C 11.765781 8.6683087 12.223826 8.86672 12.577527 9.248531 A 6.523058 6.523058 0 0 0 12.73669 8.8552733 C 12.379079 8.2682161 12.415703 7.9207321 12.531535 7.4677611 C 12.606802 7.1734137 12.878242 6.875667 13.078271 6.7148355 A 0.74953106 0.77835923 0 0 1 13.135632 6.6693603 C 13.136306 6.6510613 13.137199 6.6328872 13.137699 6.6145832 A 6.523058 6.523058 0 0 0 13.129431 6.3918578 z " /><path
       id="rect54522"
       style="fill:#fff7b2;fill-opacity:1;stroke-width:0.24823;stroke-linejoin:round;stroke-opacity:0.626113;stop-color:#000000"
       d="M 8.9641464,0.53150113 C 9.7093082,1.3028515 10.382891,3.3142902 7.7926472,4.2339874 4.3945998,5.4963802 6.4210097,8.4061022 5.9449848,10.504462 5.799159,11.147275 2.0659061,11.24541 4.1014999,12.38077 l 0.2954113,0.363446 c 0.710829,0.258687 1.4612364,0.391765 2.2176721,0.393284 0.2091023,-0.0013 0.4180212,-0.01265 0.626033,-0.03402 C 6.1621793,11.615596 10.169327,9.8538794 9.8145723,8.0910423 9.3399958,5.7327906 10.937365,2.4009803 12.188604,3.233767 11.441726,2.0016165 10.307912,1.05142 8.9641464,0.53150113 Z"
       sodipodi:nodetypes="ccsccccscc" /><circle
       style="fill:#e06816;fill-opacity:1;fill-rule:evenodd;stroke-width:0.216431"
       id="circle44898"
       cx="6.614583"
       cy="6.614583"
       r="4.6204023" /><path
       id="path54836"
       style="fill:#ffa020;fill-opacity:0.620178;stroke-width:0.213889;stroke-linejoin:round;stroke-opacity:0.626113;stop-color:#000000"
       d="M 8.6030883,2.2424986 C 8.6859771,3.0516147 9.4083469,4.237779 7.747888,4.8546492 4.8199406,5.9423985 4.9518482,8.8485521 6.1556518,10.258584 6.5243434,10.690438 5.9328943,10.981325 5.3696791,11.251046 a 4.803668,4.803668 0 0 0 1.2449042,0.167101 4.803668,4.803668 0 0 0 2.0207316,-0.447592 c 9.39e-5,-1.26e-4 -9.37e-5,-4.7e-4 0,-5.97e-4 C 9.2975774,10.078239 9.7181384,9.1286252 9.4899185,8.1787704 9.0543689,6.366009 8.9904679,5.3406298 10.841051,4.3318609 A 4.803668,4.803668 0 0 0 8.6030883,2.2424986 Z" /><path
       id="path54986"
       style="fill:#d84606;fill-rule:evenodd;stroke-width:0.271229"
       d="M 8.8150873,5.705918 C 8.3671337,5.8895196 8.4711945,6.0682458 8.5113522,6.2008212 c 0.082093,0.2710171 -1.293239,0.3072304 -1.293239,-0.077789 0,-0.3850199 0.3638876,-1.0763349 0.6185771,-1.0763349 0.2546895,0 1.3001874,0.5273296 0.978397,0.6592207 z"
       sodipodi:nodetypes="sssss" /><path
       id="path54845"
       style="fill:#d84606;fill-rule:evenodd;stroke-width:0.2399"
       d="M 4.8915715,6.5656935 C 5.2420179,6.3820919 5.1606083,6.2033657 5.1291919,6.0707903 5.0649682,5.7997732 6.1409281,5.7635599 6.1409281,6.1485793 c 0,0.3850199 -0.2846793,1.0763348 -0.4839298,1.0763348 -0.1992505,0 -1.0171722,-0.5273295 -0.7654268,-0.6592206 z"
       sodipodi:nodetypes="sssss" /><path
       id="circle48145"
       style="fill:#d53900;fill-opacity:0.709199;fill-rule:evenodd;stroke-width:0.216431"
       d="M 6.6145833,1.9942338 A 4.6204022,4.6204022 0 0 0 1.9942338,6.6145833 4.6204022,4.6204022 0 0 0 6.6145833,11.234933 4.6204022,4.6204022 0 0 0 11.234933,6.6145833 4.6204022,4.6204022 0 0 0 6.6145833,1.9942338 Z m 0,0.5186107 A 4.101496,4.101496 0 0 1 10.716322,6.6145833 4.101496,4.101496 0 0 1 6.6145833,10.716322 4.101496,4.101496 0 0 1 2.5128445,6.6145833 4.101496,4.101496 0 0 1 6.6145833,2.5128445 Z" /><path
       id="path51768"
       style="fill:#d84606;fill-opacity:1;stroke:#d84606;stroke-width:0.8342;stroke-linecap:round;stroke-linejoin:round;stroke-dasharray:none;stroke-opacity:1;paint-order:stroke markers fill;stop-color:#000000"
       class="UnoptimicedTransforms"
       d="m 84.371541,-406.60738 c -3.767306,10.28682 2.020613,23.73951 17.147789,24.63565 5.88868,0.56151 12.43309,-1.27759 16.57663,-4.10308 0.21378,0.0511 0.43621,0.081 0.66608,0.081 l 6.83829,-8.2e-4 c 1.57342,0 2.83969,-1.2654 2.83969,-2.83883 l 6.6e-4,-1.7785 c 0,-1.57342 -1.26641,-2.84044 -2.83984,-2.84044 l -3.30085,-9.1e-4 -0.002,-2.99936 3.30305,-6e-5 c 1.57343,0 2.84016,-1.26676 2.84016,-2.84018 l -0.001,-1.77886 c 0,-1.57343 -1.26688,-2.83909 -2.84031,-2.83909 l -3.30085,-9.2e-4 1.1e-4,-2.99899 3.30132,-4.3e-4 c 1.57343,0 2.84016,-1.26676 2.84016,-2.84017 l 6.6e-4,-1.7785 c 0,-1.57343 -1.26814,-2.8408 -2.84157,-2.8408 l -6.83829,8.2e-4 c -0.17148,0 -0.33937,0.018 -0.50232,0.0468 -4.1733,-3.3246 -10.68613,-4.70343 -16.73945,-3.98446 -9.187557,0.49658 -14.888045,5.52797 -17.148429,11.70006 z m 13.826512,-4.92116 c 0.768447,-1.82579 3.482047,-3.30842 8.969987,-3.51508 3.64039,6e-5 6.14327,3.22301 6.14338,6.05297 -1.1e-4,2.82996 -2.95224,5.12386 -6.59263,5.12392 -5.68083,-0.62387 -9.801481,-4.61882 -8.520737,-7.66181 z m -0.388608,20.22842 c 0.836539,-2.57813 4.643315,-5.17151 8.910535,-5.46912 3.56231,6.7e-4 6.44844,2.24535 6.44932,5.01462 2.6e-4,2.76988 -2.88651,5.82814 -6.44962,5.82881 -7.613379,-0.23381 -9.746774,-2.79619 -8.910235,-5.37431 z"
       transform="matrix(0.03152691,0.1125021,-0.15135493,0.03877757,-57.23611,10.337149)" /><path
       id="path10174-6"
       style="fill:#fcdc4d;fill-opacity:1;stroke:none;stroke-width:1.30004;stroke-linecap:round;stroke-linejoin:round;stroke-dasharray:none;stroke-opacity:1;paint-order:stroke markers fill;stop-color:#000000"
       class="UnoptimicedTransforms"
       d="m 84.371541,-406.60738 c -3.767306,10.28682 2.020613,23.73951 17.147789,24.63565 5.88868,0.56151 12.43309,-1.27759 16.57663,-4.10308 0.21378,0.0511 0.43621,0.081 0.66608,0.081 l 6.83829,-8.2e-4 c 1.57342,0 2.83969,-1.2654 2.83969,-2.83883 l 6.6e-4,-1.7785 c 0,-1.57342 -1.26641,-2.84044 -2.83984,-2.84044 l -3.30085,-9.1e-4 -0.002,-2.99936 3.30305,-6e-5 c 1.57343,0 2.84016,-1.26676 2.84016,-2.84018 l -0.001,-1.77886 c 0,-1.57343 -1.26688,-2.83909 -2.84031,-2.83909 l -3.30085,-9.2e-4 1.1e-4,-2.99899 3.30132,-4.3e-4 c 1.57343,0 2.84016,-1.26676 2.84016,-2.84017 l 6.6e-4,-1.7785 c 0,-1.57343 -1.26814,-2.8408 -2.84157,-2.8408 l -6.83829,8.2e-4 c -0.17148,0 -0.33937,0.018 -0.50232,0.0468 -4.1733,-3.3246 -10.68613,-4.70343 -16.73945,-3.98446 -9.187557,0.49658 -14.888045,5.52797 -17.148429,11.70006 z m 13.826512,-4.92116 c 0.768447,-1.82579 3.482047,-3.30842 8.969987,-3.51508 3.64039,6e-5 6.14327,3.22301 6.14338,6.05297 -1.1e-4,2.82996 -2.95224,5.12386 -6.59263,5.12392 -5.68083,-0.62387 -9.801481,-4.61882 -8.520737,-7.66181 z m -0.388608,20.22842 c 0.836539,-2.57813 4.643315,-5.17151 8.910535,-5.46912 3.56231,6.7e-4 6.44844,2.24535 6.44932,5.01462 2.6e-4,2.76988 -2.88651,5.82814 -6.44962,5.82881 -7.613379,-0.23381 -9.746774,-2.79619 -8.910235,-5.37431 z"
       transform="matrix(0.03000741,0.11198915,-0.14406005,0.03860077,-54.158668,10.041508)" /><path
       id="path54320"
       style="fill:#feeea9;fill-opacity:1;stroke-width:0.443887;stroke-linejoin:round;stroke-opacity:0.626113;stop-color:#000000"
       d="M 8.862508 6.2259765 C 8.8473167 6.3611313 8.7840596 6.4899285 8.691459 6.6016641 C 8.8868457 6.6632525 9.0797341 6.7643679 9.250598 6.904488 C 9.2913128 6.7782452 9.3179584 6.6472391 9.3343138 6.514331 C 9.1838224 6.404863 9.0275219 6.3063764 8.862508 6.2259765 z " /><path
       id="rect54033"
       style="fill:#e1741b;fill-opacity:1;stroke-width:0.428486;stroke-linejoin:round;stroke-opacity:0.626113;stop-color:#000000"
       d="M 8.8635415 6.2146077 C 8.8527207 6.3319945 8.8033652 6.4439073 8.7317666 6.5453368 C 8.9203498 6.5917519 9.1158487 6.6470737 9.3043415 6.7039835 C 9.3240371 6.6121127 9.3343225 6.5182496 9.3420653 6.4238972 C 9.1888582 6.3453216 9.0300238 6.2739694 8.8635415 6.2146077 z " /><g
       id="g380"
       transform="matrix(1.1308474,0,0,1.4272522,-0.91078165,-2.9108325)"><path
         id="path53643"
         style="display:inline;fill:#feeea9;fill-opacity:1;stroke-width:0.11297;stroke-linejoin:round;stroke-opacity:0.626113;stop-color:#000000"
         d="M 5.2827266,5.6134725 C 5.7002944,5.8026572 5.9692943,5.8221697 6.2354687,6.047968 6.4743118,6.250581 6.6161317,6.5526323 6.7595184,6.8278748 L 7.2761096,6.7260078 C 7.2454562,6.6614419 7.2414482,6.6332995 7.224503,6.558486 7.2152478,6.4687778 7.2139181,6.3802535 7.2179383,6.2930066 6.9886431,6.1186349 6.7805148,5.9065962 6.6020508,5.6420173 Z"
         sodipodi:nodetypes="cacccccc" /><path
         id="rect53043"
         style="fill:#e1741b;fill-opacity:1;stroke-width:0.103861;stroke-linejoin:round;stroke-opacity:0.626113;stop-color:#000000"
         d="m 4.9083603,5.5558777 c 0.4175678,0.159906 1.0371363,0.1834133 1.3991019,0.3307409 0.3446405,0.1402758 0.4382579,0.4022203 0.5816446,0.6348655 l 0.4099949,0.056696 C 7.2684483,6.5236063 7.2414482,6.4665547 7.224503,6.4033197 7.2152478,6.327495 7.2139181,6.2526708 7.2179383,6.1789266 6.9886431,6.0315411 6.7805148,5.852318 6.6020508,5.628686 Z"
         sodipodi:nodetypes="cscccccc" /><path
         id="rect53835"
         style="fill:#b03200;fill-opacity:0.881306;stroke-width:0.213889;stroke-linejoin:round;stroke-opacity:0.626113;stop-color:#000000"
         d="m 6.5993927,5.7452554 0.2874585,0.4527583 0.022267,0.2497488 0.351193,0.054625 C 7.2460289,6.4708216 7.2337955,6.4379935 7.2245035,6.40332 7.215253,6.3274954 7.2139134,6.2526711 7.2179439,6.1789269 7.2037529,6.1698035 7.189599,6.1602459 7.1755721,6.1508777 h -5.969e-4 l -0.089555,0.066985 z"
         sodipodi:nodetypes="cccccccccc" /></g><circle
       style="fill:none;fill-opacity:0.709199;fill-rule:evenodd;stroke:#fb7b0c;stroke-width:0.399668;stroke-dasharray:none;stroke-opacity:0.626113"
       id="circle51843"
       cx="6.614583"
       cy="6.614583"
       r="4.6204023" /><path
       id="path52890"
       style="fill:#feeea9;fill-opacity:1;stroke-width:1.13315;stroke-linejoin:round;stop-color:#000000"
       d="M 3.8830821,0.75002898 C 3.7736056,1.186126 3.3778408,1.5071258 2.9052155,1.5431643 2.8017463,1.5486696 2.698093,1.540177 2.5974062,1.5179443 l -0.00161,0.00168 -0.023622,0.7500688 C 3.0834737,2.3911481 3.7800702,2.6975994 4.0535763,2.5078164 4.3518301,2.3008611 4.7276254,1.8397325 4.8098309,1.3501776 Z"
       sodipodi:nodetypes="cccccscc" /><path
       id="path52540"
       style="fill:#ffffff;fill-opacity:0.519288;fill-rule:evenodd;stroke-width:0.213889;stroke-dasharray:none"
       d="M 6.6145832 0.091467284 A 6.523058 6.523058 0 0 0 6.1525959 0.10903727 C 6.1443263 0.1096308 6.1360575 0.1099626 6.1277913 0.11058756 A 6.523058 6.523058 0 0 0 5.6776895 0.16019694 C 5.6676713 0.16165826 5.6577277 0.16333999 5.6477172 0.16484782 A 6.523058 6.523058 0 0 0 5.1960652 0.24856364 A 6.523058 6.523058 0 0 0 4.7588826 0.36328531 C 4.7442594 0.36763713 4.7295517 0.37174954 4.7149576 0.37620442 A 6.523058 6.523058 0 0 0 4.2943115 0.52038167 C 4.2865258 0.52335196 4.2788323 0.52668289 4.2710571 0.52968342 A 6.523058 6.523058 0 0 0 3.8462768 0.71055093 C 3.8319152 0.76454828 3.8116023 0.81535487 3.7873657 0.86351317 A 0.74953106 0.77835923 0 0 1 3.7863321 0.86661376 C 3.7859481 0.86736909 3.7851682 0.86792707 3.7847819 0.86868082 C 3.759912 0.91720539 3.7304857 0.96267517 3.6969319 1.0040731 A 0.74953106 0.77835923 0 0 1 3.6958984 1.0056234 C 3.6954375 1.0061892 3.6948105 1.0066092 3.6943481 1.0071737 C 3.6596988 1.0494676 3.6213802 1.0878077 3.5791097 1.1213786 C 3.5373866 1.1545147 3.49192 1.1831686 3.4442342 1.2066447 A 0.74953106 0.77835923 0 0 1 3.438033 1.2097453 C 3.3916651 1.2320314 3.3428597 1.2492929 3.2923055 1.2614217 A 0.74953106 0.77835923 0 0 1 3.2824869 1.2634888 C 3.2320353 1.2748582 3.1801464 1.2813287 3.1269409 1.2815755 C 3.0912009 1.2809537 3.0556884 1.2776404 3.0204874 1.271757 C 2.9852865 1.2658735 2.950224 1.2574905 2.916101 1.2464355 A 6.523058 6.523058 0 0 0 2.5228434 1.5404744 C 2.5173084 1.5449314 2.5118271 1.5494354 2.5063069 1.5539103 A 6.523058 6.523058 0 0 0 2.1383707 1.8753377 A 6.523058 6.523058 0 0 0 2.1295857 1.8836059 A 6.523058 6.523058 0 0 0 1.7818034 2.2381063 C 1.7940063 2.2931212 1.8004336 2.3496015 1.8009236 2.4060547 A 0.74953106 0.77835923 0 0 1 1.7978231 2.4706502 C 1.7971338 2.4793295 1.7962008 2.487891 1.7952392 2.4964884 A 0.74953106 0.77835923 0 0 1 1.7859375 2.5590169 C 1.7858737 2.5593489 1.7860017 2.5597186 1.7859375 2.5600504 A 0.74953106 0.77835923 0 0 1 1.7859375 2.5605672 A 0.74953106 0.77835923 0 0 1 1.7714681 2.6220621 C 1.7711805 2.6230983 1.7707261 2.6241283 1.7704345 2.6251627 C 1.7669801 2.6374181 1.7630777 2.6493375 1.7590657 2.6613362 A 0.74953106 0.77835923 0 0 1 1.7549316 2.6737386 C 1.7540581 2.676214 1.752728 2.6785096 1.751831 2.6809733 C 1.7471934 2.6937107 1.7426151 2.7062865 1.7373616 2.7186971 A 0.74953106 0.77835923 0 0 1 1.7352946 2.7243815 C 1.7326272 2.7305507 1.7293261 2.736385 1.7265096 2.7424682 C 1.7217076 2.7528396 1.7172662 2.7633628 1.7120402 2.7734741 A 0.74953106 0.77835923 0 0 1 1.7032552 2.788977 A 0.74953106 0.77835923 0 0 1 1.679484 2.8303182 C 1.6785466 2.8318124 1.6778473 2.8334819 1.6769002 2.834969 A 0.74953106 0.77835923 0 0 1 1.6717326 2.8422037 A 0.74953106 0.77835923 0 0 1 1.6402099 2.8871622 C 1.6384217 2.8895202 1.6368562 2.892061 1.6350423 2.8943969 A 0.74953106 0.77835923 0 0 1 1.6319417 2.898531 A 0.74953106 0.77835923 0 0 1 1.5880167 2.949174 A 0.74953106 0.77835923 0 0 1 1.543575 2.9930989 C 1.5367003 2.9993229 1.5294805 3.0052211 1.5223877 3.0111857 A 0.74953106 0.77835923 0 0 1 1.4944824 3.0334065 C 1.4871352 3.0390162 1.4798105 3.0446081 1.4722615 3.049943 A 0.74953106 0.77835923 0 0 1 1.4345377 3.0742309 A 0.74953106 0.77835923 0 0 1 1.4221354 3.0824991 C 1.4115542 3.0887653 1.4004771 3.0943306 1.3895792 3.1000691 A 0.74953106 0.77835923 0 0 1 1.3751098 3.1078206 C 1.3740776 3.1083351 1.3730442 3.1088611 1.3720093 3.1093709 C 1.3616412 3.1144779 1.3511119 3.1192191 1.3404866 3.1238403 A 0.74953106 0.77835923 0 0 1 1.3037964 3.1383097 C 1.2963723 3.1410695 1.2891069 3.1440562 1.2815755 3.1465779 A 0.74953106 0.77835923 0 0 1 1.2774414 3.1481282 A 0.74953106 0.77835923 0 0 1 1.2226644 3.1641479 C 1.2170428 3.1655124 1.2112812 3.1665327 1.2056111 3.1677653 A 0.74953106 0.77835923 0 0 1 1.1611694 3.1755167 C 1.1507295 3.1771122 1.1402246 3.1785058 1.1296468 3.1796508 A 0.74953106 0.77835923 0 0 1 1.0702189 3.1843017 A 6.523058 6.523058 0 0 0 0.84594319 3.5760091 C 0.84565447 3.5765561 0.84519821 3.5770123 0.84490966 3.5775594 A 6.523058 6.523058 0 0 0 0.64905598 3.9827026 A 6.523058 6.523058 0 0 0 0.4909261 4.3749267 C 0.48451096 4.3924185 0.47858672 4.410093 0.47232258 4.4276367 A 6.523058 6.523058 0 0 0 0.34209798 4.8312296 A 6.523058 6.523058 0 0 0 0.23667806 5.2539428 C 0.23564497 5.2587621 0.23459967 5.2635904 0.23357747 5.2684122 C 0.23230269 5.2744255 0.23121796 5.2804818 0.22996012 5.286499 A 6.523058 6.523058 0 0 0 0.15502929 5.7143798 A 6.523058 6.523058 0 0 0 0.10955404 6.1453612 C 0.10861064 6.1582678 0.10783703 6.1712026 0.10697021 6.1841186 A 6.523058 6.523058 0 0 0 0.091467284 6.6145832 A 6.523058 6.523058 0 0 0 1.2252482 10.289294 A 6.523058 6.523058 0 0 0 1.5089518 10.673767 C 1.5134623 10.679433 1.5178588 10.68517 1.5223877 10.69082 A 6.523058 6.523058 0 0 0 1.8267619 11.04377 A 6.523058 6.523058 0 0 0 1.839681 11.057723 A 6.523058 6.523058 0 0 0 2.1714437 11.389486 A 6.523058 6.523058 0 0 0 2.1853963 11.402405 A 6.523058 6.523058 0 0 0 2.5383463 11.706779 C 2.5439967 11.711308 2.5497338 11.715704 2.5553995 11.720215 A 6.523058 6.523058 0 0 0 2.9398722 12.003918 A 6.523058 6.523058 0 0 0 6.6145832 13.137699 A 6.523058 6.523058 0 0 0 7.1148111 13.118062 A 6.523058 6.523058 0 0 0 8.1033812 12.964583 A 6.523058 6.523058 0 0 0 9.952364 12.216825 A 6.523058 6.523058 0 0 0 10.368359 11.946557 C 10.369572 11.945702 10.370764 11.944829 10.371977 11.943974 A 6.523058 6.523058 0 0 0 10.374044 11.942423 A 6.523058 6.523058 0 0 0 10.766785 11.642183 C 10.767819 11.641328 10.768851 11.640455 10.769885 11.639599 A 6.523058 6.523058 0 0 0 10.777637 11.632882 A 6.523058 6.523058 0 0 0 11.133687 11.314555 C 11.142976 11.305621 11.151839 11.296155 11.161076 11.287166 A 6.523058 6.523058 0 0 0 11.483537 10.950753 C 11.489068 10.944542 11.494048 10.937864 11.499556 10.931632 A 6.523058 6.523058 0 0 0 11.801347 10.565246 C 11.806502 10.55848 11.811203 10.551363 11.816333 10.544576 A 6.523058 6.523058 0 0 0 12.093835 10.147701 A 6.523058 6.523058 0 0 0 12.347567 9.7193033 C 12.347933 9.7186261 12.348234 9.7179135 12.3486 9.7172362 A 6.523058 6.523058 0 0 0 12.35015 9.7136188 A 6.523058 6.523058 0 0 0 12.569775 9.268168 A 6.523058 6.523058 0 0 0 12.735657 8.853723 C 12.645276 8.70516 12.580624 8.5720347 12.535669 8.4485798 A 6.2062796 6.2062796 0 0 1 6.6145832 12.820406 A 6.2062796 6.2062796 0 0 1 0.40876057 6.6145832 A 6.2062796 6.2062796 0 0 1 1.3394531 3.3506998 A 0.71313169 0.74055988 0 0 0 2.0350179 2.6101766 A 0.71313169 0.74055988 0 0 0 2.0164144 2.4510132 A 6.2062796 6.2062796 0 0 1 3.095935 1.5074015 A 0.71313169 0.74055988 0 0 0 3.2964396 1.5404744 A 0.71313169 0.74055988 0 0 0 3.9801188 0.99683837 A 6.2062796 6.2062796 0 0 1 6.6145832 0.40876057 A 6.2062796 6.2062796 0 0 1 12.820406 6.6145832 A 6.2062796 6.2062796 0 0 1 12.818856 6.6672932 A 0.71313169 0.74055988 0 0 0 12.512931 7.2734577 A 0.71313169 0.74055988 0 0 0 12.536702 7.4501911 C 12.626239 7.1325036 12.93802 6.8117366 13.135632 6.6693603 C 13.136306 6.6510613 13.137199 6.6328872 13.137699 6.6145832 A 6.523058 6.523058 0 0 0 12.003918 2.9398722 A 6.523058 6.523058 0 0 0 11.720215 2.5553995 C 11.715704 2.5497338 11.711308 2.5439967 11.706779 2.5383463 A 6.523058 6.523058 0 0 0 11.402405 2.1853963 C 11.400249 2.1830667 11.398363 2.180488 11.396203 2.1781616 A 6.523058 6.523058 0 0 0 11.389486 2.1714437 A 6.523058 6.523058 0 0 0 11.057723 1.839681 C 11.055406 1.8375244 11.053325 1.8351162 11.051005 1.832963 A 6.523058 6.523058 0 0 0 11.04377 1.8267619 A 6.523058 6.523058 0 0 0 10.69082 1.5223877 C 10.68517 1.5178588 10.679433 1.5134623 10.673767 1.5089518 A 6.523058 6.523058 0 0 0 10.289294 1.2252482 A 6.523058 6.523058 0 0 0 6.6145832 0.091467284 z " /><path
       id="path52535"
       style="fill:#feeea9;fill-opacity:1;stroke-width:1.22177;stroke-linejoin:round;stop-color:#000000"
       d="M 1.7018066,2.7915455 A 0.74953106,0.77835923 0 0 1 1.0704027,3.1842335 6.523058,6.523058 0 0 0 0.67473073,3.9296244 c 0.15807752,-0.019575 0.31347379,-0.024871 0.43028577,0.00119 0.474559,0.1058879 1.2281941,0.7871663 1.2281941,0.7871663 z" /><path
       id="path50825"
       style="fill:#f6781f;fill-opacity:1;stroke-width:0.991836;stroke-linejoin:round;stop-color:#000000"
       d="m 1.7949059,2.2251916 a 6.523058,6.523058 0 0 0 -0.01313,0.01313 0.74953106,0.77835923 0 0 1 0.019097,0.1676981 0.74953106,0.77835923 0 0 1 -0.7304711,0.7782144 6.523058,6.523058 0 0 0 -0.017307,0.029839 l 1.2801154,1.5039113 z" /><path
       id="rect50286"
       style="fill:#f6781f;fill-opacity:1;stroke-width:1.23317;stroke-linejoin:round;stop-color:#000000"
       d="M 13.129431 6.3918578 L 11.432377 6.9303262 A 4.6912748 7.0345315 0 0 1 11.400338 7.3592406 A 4.6912748 7.0345315 0 0 1 11.334709 7.8765217 A 4.6912748 7.0345315 0 0 1 11.255644 8.3204223 L 11.30732 8.4697671 L 12.689665 8.7746581 C 12.383454 8.2358831 12.42114 7.899472 12.531535 7.4677611 C 12.607473 7.1707895 12.882944 6.8704529 13.083439 6.7107014 A 0.74953106 0.77835923 0 0 1 13.135632 6.6693603 C 13.136306 6.6510613 13.137199 6.6328872 13.137699 6.6145832 A 6.523058 6.523058 0 0 0 13.129431 6.3918578 z " /><path
       id="path52988"
       style="fill:#b03200;fill-opacity:1;stroke-width:1.23317;stroke-linejoin:round;stop-color:#000000"
       d="m 11.255667,8.3206135 a 4.6912748,7.0345315 0 0 0 0.07938,-0.4443099 4.6912748,7.0345315 0 0 0 0.06544,-0.5169984 4.6912748,7.0345315 0 0 0 0.03212,-0.4288636 L 11.326579,6.96406 9.6135742,6.8095963 10.995128,7.568285 Z" /><path
       id="rect51762"
       style="fill:#f6781f;fill-opacity:1;stroke-width:1.04559;stroke-linejoin:round;stop-color:#000000"
       d="M 3.9700154,0.56158762 C 3.8750407,0.97945336 3.5254253,1.2854586 3.1061765,1.317674 c -0.091796,0.00476 -0.1838248,-0.0039 -0.2732898,-0.025736 l -0.00142,0.0016 -0.017215,0.7195348 C 3.2686087,2.1321622 3.8883312,2.4296679 4.1301043,2.2489475 4.393754,2.0518751 4.7249471,1.6113236 4.7954533,1.1420313 Z"
       sodipodi:nodetypes="cccccscc" /><path
       id="path51770"
       style="fill:none;fill-opacity:1;stroke:#fb7b0c;stroke-width:0.8342;stroke-linecap:round;stroke-linejoin:round;stroke-dasharray:none;stroke-opacity:0.626113;paint-order:stroke markers fill;stop-color:#000000"
       class="UnoptimicedTransforms"
       d="m 84.371541,-406.60738 c -3.767306,10.28682 2.020613,23.73951 17.147789,24.63565 5.88868,0.56151 12.43309,-1.27759 16.57663,-4.10308 0.21378,0.0511 0.43621,0.081 0.66608,0.081 l 6.83829,-8.2e-4 c 1.57342,0 2.83969,-1.2654 2.83969,-2.83883 l 6.6e-4,-1.7785 c 0,-1.57342 -1.26641,-2.84044 -2.83984,-2.84044 l -3.30085,-9.1e-4 -0.002,-2.99936 3.30305,-6e-5 c 1.57343,0 2.84016,-1.26676 2.84016,-2.84018 l -0.001,-1.77886 c 0,-1.57343 -1.26688,-2.83909 -2.84031,-2.83909 l -3.30085,-9.2e-4 1.1e-4,-2.99899 3.30132,-4.3e-4 c 1.57343,0 2.84016,-1.26676 2.84016,-2.84017 l 6.6e-4,-1.7785 c 0,-1.57343 -1.26814,-2.8408 -2.84157,-2.8408 l -6.83829,8.2e-4 c -0.17148,0 -0.33937,0.018 -0.50232,0.0468 -4.1733,-3.3246 -10.68613,-4.70343 -16.73945,-3.98446 -9.187557,0.49658 -14.888045,5.52797 -17.148429,11.70006 z m 13.826512,-4.92116 c 0.768447,-1.82579 3.482047,-3.30842 8.969987,-3.51508 3.64039,6e-5 6.14327,3.22301 6.14338,6.05297 -1.1e-4,2.82996 -2.95224,5.12386 -6.59263,5.12392 -5.68083,-0.62387 -9.801481,-4.61882 -8.520737,-7.66181 z m -0.388608,20.22842 c 0.836539,-2.57813 4.643315,-5.17151 8.910535,-5.46912 3.56231,6.7e-4 6.44844,2.24535 6.44932,5.01462 2.6e-4,2.76988 -2.88651,5.82814 -6.44962,5.82881 -7.613379,-0.23381 -9.746774,-2.79619 -8.910235,-5.37431 z"
       transform="matrix(0.03000741,0.11198915,-0.14406005,0.03860077,-54.158668,10.041508)" /><path
       id="path52984"
       style="fill:#feeea9;fill-rule:evenodd;stroke-width:0.200537"
       d="m 8.0468534,4.4193212 c -10e-8,0.1849637 -0.2051627,0.6326012 -1.079903,0.6326012 -0.8747404,0 -1.511864,-0.4625222 -1.511864,-0.6474861 0,-0.1849637 0.7331151,-0.528408 1.6078554,-0.528408 0.8747404,0 0.9839115,0.358329 0.9839116,0.5432929 z"
       sodipodi:nodetypes="sssss" /><path
       id="path53150"
       style="fill:#dd6109;fill-opacity:1;stroke-width:1.23317;stroke-linejoin:round;stop-color:#000000"
       d="M 13.129431 6.3918578 L 11.432377 6.9303262 A 4.6912748 7.0345315 0 0 1 11.400338 7.3592406 A 4.6912748 7.0345315 0 0 1 11.334709 7.8765217 A 4.6912748 7.0345315 0 0 1 11.255644 8.3204223 L 11.30732 8.4697671 L 12.689665 8.7746581 C 12.383454 8.2358831 12.42114 7.899472 12.531535 7.4677611 C 12.607473 7.1707895 12.882944 6.8704529 13.083439 6.7107014 A 0.74953106 0.77835923 0 0 1 13.135632 6.6693603 C 13.136306 6.6510613 13.137199 6.6328872 13.137699 6.6145832 A 6.523058 6.523058 0 0 0 13.129431 6.3918578 z " /><path
       id="path53152"
       style="fill:#ba4704;fill-opacity:1;stroke-width:0.944183;stroke-linejoin:round;stop-color:#000000"
       d="M 12.800769 6.9882038 L 11.41429 7.1923258 A 4.6912748 7.0345315 0 0 1 11.400338 7.3592406 A 4.6912748 7.0345315 0 0 1 11.335225 7.8765217 A 4.6912748 7.0345315 0 0 1 11.310937 8.0191487 L 12.459704 8.1364542 C 12.433089 7.9099348 12.4714 7.7029217 12.531535 7.4677611 C 12.574256 7.3006929 12.680392 7.1324134 12.800769 6.9882038 z " /><path
       id="path53979"
       style="fill:#7b2300;fill-opacity:1;stroke-width:1.23317;stroke-linejoin:round;stop-color:#000000"
       d="m 11.307355,8.0570938 c 0.02968,-0.1467653 0.01481,-0.2096921 0.03802,-0.3590532 0.0261,-0.1710494 0.03759,-0.1652384 0.0551,-0.3387354 0.01362,-0.1424278 0.0037,-0.045182 0.01149,-0.1885959 l -0.106036,0.033619 -0.622389,-0.061457 0.32195,0.2471507 z"
       sodipodi:nodetypes="cccccccc" /><path
       id="path54460"
       style="fill:#ba4704;fill-opacity:1;stroke-width:0.834408;stroke-linejoin:round;stop-color:#000000"
       d="M 3.8921007,0.78096093 C 3.7430948,1.0833582 3.4479233,1.291414 3.1061765,1.317674 c -0.036712,0.00191 -0.073432,0.00165 -0.110039,-7.189e-4 l 0.170829,0.6135387 c 0.188203,0.067554 0.4567698,0.2525194 0.6786593,0.3712749 0.1170693,0.010734 0.2161652,-0.00166 0.2847769,-0.052942 0.076633,-0.057282 0.1588401,-0.1350701 0.2388265,-0.2282198 6.08e-5,-2.33e-4 -1.127e-4,-5.192e-4 -5.2e-5,-7.524e-4 0.058746,-0.2255582 0.089423,-0.5093898 0.066864,-0.7690897 z" /><path
       id="path54465"
       style="fill:#ba4704;fill-opacity:1;stroke-width:0.834064;stroke-linejoin:round;stop-color:#000000"
       d="M 1.7680503,2.633993 A 0.74953106,0.77835923 0 0 1 1.1921479,3.1705073 l 0.9274118,1.0891421 z" /><path
       id="path55131"
       style="fill:#e06816;fill-opacity:1;fill-rule:evenodd;stroke-width:0.104072"
       d="m 6.4486521,10.290967 c -0.030395,0.163053 -0.246572,0.230691 -0.4254149,0.230691 -0.1788428,0 -0.3238234,-0.115088 -0.3238232,-0.257056 1e-7,-0.141966 0.2719702,-0.3361476 0.4508129,-0.3361476 0.1788426,0 0.3275146,0.2064586 0.2984252,0.3625126 z"
       sodipodi:nodetypes="asssa" /><path
       id="path55060"
       style="fill:#e06816;fill-opacity:1;fill-rule:evenodd;stroke-width:0.104072"
       d="m 10.051896,4.7095832 c 0.165087,-0.016008 0.290014,0.1729393 0.339602,0.3447698 0.04959,0.1718305 -0.02079,0.3430374 -0.157188,0.3824014 C 10.097909,5.4761181 9.8359315,5.2686534 9.7863429,5.096823 9.7367543,4.9249927 9.8938949,4.7249042 10.051896,4.7095832 Z"
       sodipodi:nodetypes="asssa" /><path
       id="path55133"
       style="fill:#e06816;fill-opacity:1;fill-rule:evenodd;stroke-width:0.0655066"
       d="m 6.2332312,9.7939232 c 0.016592,0.118335 0.1346048,0.1674227 0.2322361,0.1674227 0.097631,0 0.1767767,-0.083524 0.1767765,-0.1865567 0,-0.103032 -0.1484697,-0.2439576 -0.2461009,-0.2439576 -0.097631,0 -0.1787917,0.1498363 -0.1629117,0.2630916 z"
       sodipodi:nodetypes="asssa" /><path
       id="path55135"
       style="fill:#e06816;fill-opacity:1;fill-rule:evenodd;stroke-width:0.0655066"
       d="M 9.6340716,5.0543754 C 9.7431662,5.0056228 9.7576072,4.8786263 9.7305364,4.784823 9.7034658,4.6910204 9.6012715,4.6381368 9.5022788,4.6667053 9.4032867,4.6952735 9.3090536,4.876997 9.3361242,4.9708001 c 0.027071,0.093802 0.1935359,0.1302356 0.2979474,0.083575 z"
       sodipodi:nodetypes="asssa" /><path
       id="path55137"
       style="fill:#e06816;fill-opacity:1;fill-rule:evenodd;stroke-width:0.0834657"
       d="M 4.0582476,3.8712158 C 4.1972512,3.8090973 4.2156512,3.6472838 4.1811589,3.5277637 4.1466667,3.4082444 4.016455,3.3408625 3.8903228,3.3772632 3.7641913,3.4136635 3.6441236,3.6452078 3.6786158,3.7647277 3.713108,3.8842465 3.9252109,3.9306683 4.0582476,3.8712158 Z"
       sodipodi:nodetypes="asssa" /><path
       id="path54988"
       style="fill:#e06816;fill-opacity:1;fill-rule:evenodd;stroke-width:0.0834657"
       d="M 5.4818829,7.2825687 C 5.6208866,7.2204502 5.6392866,7.0586368 5.6047943,6.9391167 5.5703021,6.8195974 5.4400904,6.7522155 5.3139582,6.7886162 c -0.1261315,0.0364 -0.2461992,0.2679446 -0.211707,0.3874645 0.034492,0.1195188 0.246595,0.1659406 0.3796317,0.106488 z"
       sodipodi:nodetypes="asssa" /><path
       id="path58474"
       style="fill:none;fill-opacity:1;fill-rule:evenodd;stroke:#ad3100;stroke-width:0.183334;stroke-dasharray:none;stroke-opacity:1"
       d="M 6.6145833,0.09166673 C 5.6575208,0.09236151 4.7123355,0.30364785 3.8460738,0.71053819 3.7566573,1.046729 3.4627989,1.2801085 3.1269416,1.2816663 3.0554616,1.2804226 2.9845207,1.2685656 2.9162747,1.2464557 2.5010605,1.5321389 2.1203546,1.8649812 1.7817765,2.238321 c 0.012203,0.055015 0.018607,0.1112449 0.019097,0.1676981 5.58e-5,0.4222072 -0.3240327,0.767478 -0.7304711,0.7782144 C 0.43176398,4.2145332 0.09284425,5.4024053 0.09166673,6.6145833 0.09174476,10.217058 3.0121083,13.137422 6.6145833,13.1375 c 2.7718268,-0.0016 5.1967387,-1.746489 6.1225787,-4.2812187 -0.358277,-0.5876767 -0.32158,-0.9350659 -0.205681,-1.3883 0.08269,-0.3233751 0.402966,-0.6534867 0.604229,-0.7984932 6.74e-4,-0.018299 0.0013,-0.036601 0.0018,-0.054905 -7.8e-5,-3.602475 -2.920442,-6.52283854 -6.5229167,-6.52291657 z"
       sodipodi:nodetypes="ccccccccccaccc" /></g></svg>
