<svg xmlns="http://www.w3.org/2000/svg" viewBox="0 0 100 71"><defs><style>.cls-1{fill:#a3592f;}.cls-2{fill:#cc7236;}.cls-3{fill:#e88852;}.cls-4,.cls-5,.cls-6,.cls-7{fill:#6b311f;}.cls-5{opacity:0.37;}.cls-6{opacity:0.25;}.cls-7{opacity:0.6;}</style></defs><g id="Layer_1" data-name="Layer 1"><path class="cls-1" d="M28.14767,38.55037,20.63945,49.02571l-.3591.50739L2.94072,33.771A3.28408,3.28408,0,0,1,2.043,30.672l2.52451-8.60943a1.58627,1.58627,0,0,1,.457-.75838,1.24253,1.24253,0,0,1,1.68117.08186Z"/><path class="cls-2" d="M20.68286,44.1502,8.93969,32.14838a2.73238,2.73238,0,0,1-.66993-2.29113L9.67949,23.6353a.76451.76451,0,0,1,1.37648-.4354L25.51361,36.33923Z"/><path class="cls-3" d="M13.12851,30.4036a5.352,5.352,0,0,1,2.87267,1.97982c.77,1.39083,1.78313-.16536,1.85067-.32747S14.171,27.86107,14.171,27.86107H12.27183Z"/><path class="cls-3" d="M9.03123,25.75114A9.918,9.918,0,0,1,10.60984,28.36a14.97465,14.97465,0,0,1,.82458,3.36722,2.5784,2.5784,0,0,1,.01773,1.51511c-.154.35909-.95776.24453-1.93755-.50638l4.36831,4.50334,4.42683,4.57163-1.67518-4.2165a13.05386,13.05386,0,0,1-3.60719-5.70248c-.97819-3.44164-2.05318-6.34143-2.05318-6.34143Z"/><path class="cls-1" d="M10.01009,25.40325a19.80077,19.80077,0,0,1,2.26174,6.64114,32.4152,32.4152,0,0,0,3.35581,8.80935l2.6821,2.5558.83741-1.28145L17.472,37.91159a13.05388,13.05388,0,0,1-3.60718-5.70248c-.9782-3.44164-2.05318-6.34143-2.05318-6.34143Z"/><path class="cls-4" d="M17.69055,32.38521l-.11423.20729L20.449,34.88945ZM29.9703,37.87927a1.91856,1.91856,0,0,0-.60936-.85655l-.74538-.59471-5.66379-4.53385-3.39505-2.72249-3.2753-2.62429-5.94673-4.75756L8.53922,20.34945l-.61477-.491A3.31625,3.31625,0,0,0,4.845,19.19826a3.33289,3.33289,0,0,0-2.14909,2.3133L.17681,30.121a5.24687,5.24687,0,0,0,1.4527,5.10126L18.96914,50.98436a1.94589,1.94589,0,0,0,1.31121.5074c.06528,0,.136-.00547.2013-.01089a1.96437,1.96437,0,0,0,1.382-.8075l1.04461-1.45672,2.44834-3.42086,2.97606-4.15193,1.39828-1.95323A1.954,1.954,0,0,0,29.9703,37.87927ZM19.97022,46.61418,4.252,32.32517A1.35975,1.35975,0,0,1,3.9146,31.2231l2.27425-7.74739,1.50707,1.20573,1.333,1.06937.14691.11458L10.906,27.25118l.914.73111.67465.54013.31557.25641L14.301,29.96821l3.19916,2.56428.07618.06L20.449,34.88945l3.98807,3.19715.6964.55651.34821.27826-.23939.3328-2.67684,3.74274-2.45377,3.42086Zm-2.27967-14.229-.11423.20729L20.449,34.88945Z"/><path class="cls-5" d="M25.47083,36.4062l-3.81941-3.05532-.00544-.00546L21.64053,33.34l-3.074-2.46062L15.2912,28.26051l-5.6366-4.512-1.12079-.90024L6.7057,21.38609a1.24253,1.24253,0,0,0-1.68117-.08186,3.23315,3.23315,0,0,0-.272.66018l-2.3341,7.78012a4.66988,4.66988,0,0,0,1.34388,4.61025L19.80156,48.61106a1.76318,1.76318,0,0,0,.83789.41465l.86506-1.21123,2.45378-3.42086,2.74212-3.81913L27.843,38.98137l.30468-.431ZM7.97884,23.73758,9.40432,24.856l.28292.21825.4679.36554.21764.16913h.00542l.85964.682h.00545l.99022.78019.00544.00546,1.012.78565,1.56149,1.22212,1.67031,1.30943L18.1095,31.665l6.93694,5.4286.778.61109-.691.9384-.22306.30553-2.704,3.69366L20.72649,44.661l-2.04572-1.81683-3.77043-3.35539L12.5164,37.361,6.18885,31.736a1.18547,1.18547,0,0,1-.31012-.993l1.81719-6.06153Z"/><path class="cls-1" d="M36.521,28.7352,28.65365,39.71791,11.31947,23.95583a3.0682,3.0682,0,0,1-.73452-1.07483,3.19044,3.19044,0,0,1-.16322-2.02412l2.52451-8.60943a1.25434,1.25434,0,0,1,2.13821-.67653Z"/><path class="cls-2" d="M26.981,33.60142l-10.68739-11.337a2.66877,2.66877,0,0,1-.62933-2.14491l1.18936-5.78519c.14763-.71811.69842-.89233,1.23022-.38913L31.22166,26.37638Z"/><path class="cls-3" d="M20.45825,26.38664s-.75983-1.48043-1.222-2.46528a17.56506,17.56506,0,0,1-1.58655-5.52064,6.49661,6.49661,0,0,0-1.24824-3.27336s.97777-.90451,1.07049-.734S19.4193,16.8386,19.4193,16.8386l-.27215,2.58527v1.591l.75574,2.6146,2.16815,1.921-1.23287.56648Z"/><path class="cls-3" d="M19.10884,19.636s.21008-.88855.8074-.73254.147,2.16835,1.97194,3.38016c.78692-.05123.76013-.69059.18286-.9512s.34625-4.49384.34625-4.49384l-2.998-.31755Z"/><path class="cls-3" d="M24.15826,23.37477a11.28126,11.28126,0,0,0,1.58828.09947c.95636,0,.73027.65295.73027.65295L29.24755,25.937,27.5937,22.4478l-2.68482-1.18462Z"/><path class="cls-1" d="M21.67226,27.98438S16.29234,19.6527,19.1426,15.1172l1.32282.781s-3.11977,5.56533,1.45688,9.32339S21.67226,27.98438,21.67226,27.98438Z"/><ellipse class="cls-3" cx="23.42465" cy="20.86357" rx="2.42956" ry="3.41059" transform="translate(-7.79675 23.90115) rotate(-47.24732)"/><ellipse class="cls-1" cx="23.42465" cy="20.86357" rx="2.08985" ry="2.93372" transform="translate(-7.79675 23.90115) rotate(-47.24732)"/><ellipse class="cls-6" cx="24.11072" cy="20.95004" rx="1.68922" ry="2.36899" transform="translate(-7.63994 24.43234) rotate(-47.24667)"/><path class="cls-4" d="M26.42838,23.12106h-.04351l.34277.27279ZM37.84307,27.3003a.83942.83942,0,0,0-.10338-.09277l-3.395-2.717-3.25359-2.60791L29.214,20.38222l-9.78788-7.84016-1.71926-1.37487-1.40372-1.12391a3.19178,3.19178,0,0,0-5.22854,1.65312L8.55012,20.30583a.12837.12837,0,0,0-.0109.04362,4.92141,4.92141,0,0,0-.00541,2.49881,5.34384,5.34384,0,0,0,.89226,1.90957,5.075,5.075,0,0,0,.58216.64379l.00545.00546.23939.21825,1.10449.99841.00541.00546,1.05009.96025.30468.27279,1.83353,1.66951,3.10119,2.82069.03809.03277L20.449,34.88945l3.814,3.46994.64745.58925.33188.30553,1.45811,1.32032.64745.58924a1.94629,1.94629,0,0,0,.98477.48013,2.06469,2.06469,0,0,0,.321.02727,1.2818,1.2818,0,0,0,.20675-.01089,1.95782,1.95782,0,0,0,1.38194-.802L36.42846,32.216,37.571,30.61746l.53318-.742A1.95194,1.95194,0,0,0,37.84307,27.3003ZM28.61556,36.428l-.26659.371-5.3972-4.90485-3.259-2.96255L16.5589,26.07272l-3.92823-3.56818a1.34305,1.34305,0,0,1-.33732-1.09664l2.27422-7.75282,1.11535.89478.71818.57832.25028.19641L18.474,16.7813l.8542.68745.02178.01635.38627.30556,1.08815.87294.37.30006.75627.6056.17955.14732,2.59521,2.07324,1.03375.82931.01634.01635.35363.27825.25573.20733.34277.27279,2.11642,1.69678,2.1328,1.7077.21216.16913,2.21439,1.77317.457.36557-.33732.4692Z"/><path class="cls-5" d="M33.04433,25.94721l-3.55282-2.8425-1.49075-1.19485-.02175-.01638-.02179-.01635L26.0421,20.34945l-.00544-.00543-.77258-.622-.01634-.01638-.14691-.11455-.26114-.20733-.0272-.02185-.70729-.5674-.00544-.00546-.95213-.75838-.00545-.00543-.83245-.66563-.76713-.61652-3.27533-2.62429h-.00542l-.48423-.39281h-.00545l-.00544-.00546-.10882-.08731-.10338-.08728-2.47008-1.975a1.25434,1.25434,0,0,0-2.13821.67653l-2.52451,8.60943a2.64662,2.64662,0,0,0-.087.93294c.00542.08185.01086.15824.02175.24006a.42169.42169,0,0,1,.0109.08185c.0163.07639.02719.15275.04894.2346a3.2023,3.2023,0,0,0,.16867.53467.2564.2564,0,0,0,.02719.05458,3.0321,3.0321,0,0,0,.70733,1.02025l4.23287,3.85186,3.13932,2.85343L21.64053,33.34l.00545.00543.00544.00546,3.65616,3.32266L27.843,38.98137l.81066.73654,1.31665-1.83864,5.00549-6.989,1.14254-1.59311.40264-.56195ZM15.96585,13.57869l.89228.72564.272.21822,1.1371.922.05987.04912.4407.35461.84875.69291.4135.3328,1.5234,1.233.40806.33281.13057.10912.642.51832h.00544L26.004,21.71889l.06529.05458.00545.00546.09793.08182.23939.191,1.3221,1.06934.28834.2346.04353.03819.01089.01093,3.95543,3.20261,1.82808,1.484-.457.64925-.31013.4365-4.34714,6.14878-8.31888-7.66554-3.06859-2.82615-3.18826-2.94074a1.26358,1.26358,0,0,1-.31013-1.03117l1.82264-6.31245Z"/><path class="cls-1" d="M45.61787,19.79843,37.75055,30.78117,20.41637,15.01906a3.25776,3.25776,0,0,1-.89771-3.099l2.52448-8.60943a1.25336,1.25336,0,0,1,2.13821-.67653Z"/><path class="cls-2" d="M40.82458,17.43818l-4.23832,7.22907L34.9105,22.89408l-2.18174-2.31876-2.59524-2.74976L28.27279,15.856l-2.3776-2.52609a2.67206,2.67206,0,0,1-.62569-2.14963L26.45561,5.397c.14687-.72019.70184-.88932,1.22957-.38735Z"/><path class="cls-3" d="M25.88339,8.187s.67216-1.14908.8218.90335.7728-.50093.7728-.50093l.11939-2.99377L26.18061,6.73784Z"/><path class="cls-3" d="M30.13352,17.82556,28.27279,15.856A15.04425,15.04425,0,0,1,26.88,7.31748c.963-5.003,2.44833,1.06937,2.44833,1.06937C28.45235,8.90514,27.86474,14.001,30.13352,17.82556Z"/><path class="cls-3" d="M29.32171,11.58323s.07369-.68943.59927-.57848,2.38856.80443,2.59817,1.7753a12.93816,12.93816,0,0,0,1.01066,2.48332l1.34264-3.42645L30.52954,8.425l-1.282.22191S28.75011,10.60832,29.32171,11.58323Z"/><path class="cls-1" d="M31.6315,19.41084c-.061,1.00734-5.15517-6.31442-3.98515-12.36746C28.614,2.0374,30.09456,8.11,30.09456,8.11c-1.20792.721-1.872,10.22793,4.861,12.96188,5.90681,2.39844-1.92761,1.3049-1.92761,1.3049Z"/><path class="cls-1" d="M35.1787,19.05949s-4.26281-8.04465-.94982-7.86116,5.32031,2.91232,5.01254,3.49448-2.718,3.59385-2.718,3.59385Z"/><path class="cls-4" d="M46.83659,18.27075l-5.56586-4.45746-3.259-2.6079L25.39465,1.1065A3.31037,3.31037,0,0,0,22.31518.44633a3.31556,3.31556,0,0,0-2.14365,2.3133l-2.46464,8.40756-.05984.1964a4.8285,4.8285,0,0,0-.09252,2.18237v.00546a.84659.84659,0,0,0,.02179.11455,5.34508,5.34508,0,0,0,.63111,1.66954v.00543a.00533.00533,0,0,0,.00544.00546c.01631.03273.03809.06547.0544.0982a5.09682,5.09682,0,0,0,.42984.58925,3.81341,3.81341,0,0,0,.40805.431l.0435.0382.00545.00546.24484.22371.51688.4692,1.24591,1.12937.35367.32734.49509.44739.31557.28915,2.45378,2.23148,1.01741.92205.03265.03273.32643.29461.272.24552.29926.27279,2.30687,2.10055.00545.00543,1.7519,1.58768.01089.01092,2.29053,2.0787.42984.39827,1.45267,1.31486L36.42846,32.216l.01633.01092a1.94233,1.94233,0,0,0,1.30576.5074,1.31589,1.31589,0,0,0,.20675-.01089,1.93623,1.93623,0,0,0,1.37652-.802L47.20111,20.9387A1.95474,1.95474,0,0,0,46.83659,18.27075ZM34.1107,24.83422l-3.1012-2.82069L29.214,20.38222l-7.49187-6.81445a1.33843,1.33843,0,0,1-.33188-1.09661l2.26878-7.75285,1.0555.84566,1.46356,1.173.70729.56194.6257.50193.02175.02185L28.942,8.9521l.2122.16367.35366.28914,3.49295,2.79345,1.31665,1.053.31557.25641,1.2405.993,2.22525,1.77863.26114.21279.77261.61652,1.27856,1.02568h.00545L42.8703,20.104l.0816.06547-4.44508,6.20336-.51143.70926-.15232.21825-.40261.56194Z"/><path class="cls-5" d="M40.19888,15.461l-.51143-.41465a.00531.00531,0,0,1-.00541-.00546l-.4407-.34919-2.296-1.83863-.22305-.1746-.00545-.00542-1.71929-1.38036-.00541-.00547L30.66129,7.82272,29.818,7.14619,28.54483,6.12594l-.53318-.42558-.38631-.30552-.77257-.622-2.67142-2.1387a1.25336,1.25336,0,0,0-2.13821.67653l-2.52448,8.60943a2.7612,2.7612,0,0,0-.06532.30553,3.109,3.109,0,0,0-.02719.31642,3.17528,3.17528,0,0,0,.01634.45284q.01628.14732.04894.311a.89621.89621,0,0,0,.05443.20732,3.0827,3.0827,0,0,0,.87051,1.50584l1.99674,1.81682.00544.00543,1.7356,1.58222h.00545l1.61047,1.46218v.00546l.00544.00547,2.18171,1.98049.02179.01635.02175.01638,1.32209,1.20574L32.707,26.1982l3.41132,3.09895,1.4527,1.32031.17952.16371,7.86732-10.98274Zm-2.1926,11.632-.01089-.01092-3.31884-3.10441-3.07947-2.8807-8.43315-7.89471a1.32432,1.32432,0,0,1-.31554-1.06937L24.71456,5.564l.27749-.96571L26.38487,5.744l.506.42008.22305.18006.4407.36553.136.11459,1.56149,1.28216v.00542l.52232.42558.01631.01635,3.54192,2.91893,1.27315,1.04752.39716.32734,1.26771,1.04756,2.23613,1.8441.33732.27279.6529.54013L40.743,17.57788l2.47011,2.035-.34277.491-4.36348,6.26883Z"/><path class="cls-6" d="M36.52337,18.28666s-2.92478-3.43634-1.65092-5.28043,4.998,1.851,4.8229,2.12113S36.52337,18.28666,36.52337,18.28666Z"/><path class="cls-3" d="M34.9105,22.89408l-2.18174-2.31876a8.19987,8.19987,0,0,0,1.45811.7693C37.53839,22.7086,36.46654,22.9432,34.9105,22.89408Z"/><path class="cls-1" d="M71.85082,38.55037,79.359,49.02571l.35911.50739L97.05777,33.771a3.28413,3.28413,0,0,0,.89774-3.09895L95.431,22.06261a1.58634,1.58634,0,0,0-.457-.75838,1.24253,1.24253,0,0,0-1.68117.08186Z"/><path class="cls-2" d="M79.31562,44.1502,91.05879,32.14838a2.73231,2.73231,0,0,0,.66993-2.29113L90.319,23.6353a.76451.76451,0,0,0-1.37648-.4354L74.48488,36.33923Z"/><path class="cls-3" d="M86.87,30.4036a5.352,5.352,0,0,0-2.87268,1.97982c-.77,1.39083-1.78312-.16536-1.85066-.32747s3.68086-4.19488,3.68086-4.19488h1.89916Z"/><path class="cls-3" d="M90.96726,25.75114A9.918,9.918,0,0,0,89.38865,28.36a14.97463,14.97463,0,0,0-.82459,3.36722,2.57838,2.57838,0,0,0-.01772,1.51511c.154.35909.95776.24453,1.93755-.50638l-4.36832,4.50334-4.42683,4.57163,1.67519-4.2165a13.05378,13.05378,0,0,0,3.60718-5.70248c.9782-3.44164,2.05318-6.34143,2.05318-6.34143Z"/><path class="cls-1" d="M89.9884,25.40325a19.80077,19.80077,0,0,0-2.26174,6.64114,32.41543,32.41543,0,0,1-3.35582,8.80935l-2.6821,2.5558-.8374-1.28145,1.67518-4.2165a13.05386,13.05386,0,0,0,3.60719-5.70248c.97819-3.44164,2.05318-6.34143,2.05318-6.34143Z"/><path class="cls-4" d="M85.44409,29.53175l-3.10123,2.82069-.03809.03277.11971.20729.07073-.06,3.20457-2.55882ZM99.824,30.121l-2.52451-8.60943a3.18636,3.18636,0,0,0-5.22309-1.65312l-.62025.49647-1.79,1.43491-5.94672,4.763-3.27533,2.61883-3.395,2.72249L71.3852,36.428l-.74538.59471a1.9281,1.9281,0,0,0-.6148.85112,1.95127,1.95127,0,0,0,.24484,1.81679l1.39827,1.95323,2.97607,4.15193,2.44833,3.42086,1.04465,1.45672a1.9641,1.9641,0,0,0,1.37649.8075c.07073.00542.136.01089.20675.01089a1.95622,1.95622,0,0,0,1.31123-.5074L98.36584,35.22225A5.24972,5.24972,0,0,0,99.824,30.121ZM74.51907,38.92137l.34822-.27826.6964-.55651,3.97176-3.18077,2.889-2.31333.07073-.06,3.20457-2.55882,1.4799-1.18392.00545-.00546.321-.26187.67465-.54013.90318-.72565.00545-.00546L90.825,25.86539l.13058-.0982.01086-.01638,1.33843-1.06937,1.50709-1.20573,2.26878,7.74739a1.35506,1.35506,0,0,1-.33187,1.10207l-15.71831,14.289-.14146-.19641L77.4353,42.99691,74.753,39.25417Zm10.925-9.38962-3.10123,2.82069-.03809.03277-2.76932,2.52062,2.889-2.31333.07073-.06,3.20457-2.55882Z"/><path class="cls-5" d="M97.58237,29.74453l-2.33406-7.78012a3.23541,3.23541,0,0,0-.272-.66018,1.24257,1.24257,0,0,0-1.6812.08186l-1.83353,1.46764-1.11534.89477-5.63663,4.512-3.27531,2.61886L78.36023,33.34l-.00544.00543-.00545.00546L74.53,36.4062l-2.67684,2.14417.30468.431,1.14254,1.59312,2.74212,3.81913,2.44834,3.42086.87053,1.21123a1.76311,1.76311,0,0,0,.83787-.41465L96.23849,34.35478A4.66979,4.66979,0,0,0,97.58237,29.74453Zm-15.6911,1.92592L83.518,30.39379l1.67031-1.304,1.56149-1.22758,1.00656-.78565,1.00108-.78565h.00544l.85965-.682H89.628l.2176-.16913.00545-.00546.44615-.34373.29923-.2346,1.42547-1.11845.28293.94386L94.12207,30.743a1.18564,1.18564,0,0,1-.31013.993l-6.333,5.63046-2.3885,2.12236L81.32,42.84416,79.27427,44.661l-1.47986-2.02415-2.70407-3.6882-.22305-.30553-.691-.9384.778-.61109Z"/><path class="cls-1" d="M63.47751,28.7352l7.86732,10.98271L88.679,23.95583a3.06846,3.06846,0,0,0,.73452-1.07483,3.19037,3.19037,0,0,0,.16321-2.02412l-2.52451-8.60943a1.25433,1.25433,0,0,0-2.1382-.67653Z"/><path class="cls-2" d="M73.0175,33.60142l10.6874-11.337a2.66885,2.66885,0,0,0,.62933-2.14491l-1.18937-5.78519c-.14763-.71811-.69842-.89233-1.23021-.38913L68.77683,26.37638Z"/><path class="cls-3" d="M79.54023,26.38664s.75984-1.48043,1.222-2.46528a17.56506,17.56506,0,0,0,1.58655-5.52064A6.49661,6.49661,0,0,1,83.597,15.12736s-.97778-.90451-1.0705-.734-1.94733,2.44522-1.94733,2.44522l.27215,2.58527v1.591l-.75574,2.6146-2.16816,1.921,1.23287.56648Z"/><path class="cls-3" d="M80.88965,19.636s-.21009-.88855-.80741-.73254-.147,2.16835-1.97194,3.38016c-.78692-.05123-.76012-.69059-.18286-.9512s-.34624-4.49384-.34624-4.49384l2.998-.31755Z"/><path class="cls-3" d="M75.84023,23.37477a11.28133,11.28133,0,0,1-1.58829.09947c-.95636,0-.73027.65295-.73027.65295L70.75094,25.937l1.65385-3.48923,2.68482-1.18462Z"/><path class="cls-1" d="M78.32623,27.98438s5.37992-8.33168,2.52965-12.86718l-1.32281.781s3.11976,5.56533-1.45688,9.32339S78.32623,27.98438,78.32623,27.98438Z"/><ellipse class="cls-3" cx="76.57384" cy="20.86357" rx="3.41059" ry="2.42956" transform="translate(6.18345 57.52465) rotate(-42.75268)"/><ellipse class="cls-1" cx="76.57384" cy="20.86357" rx="2.93372" ry="2.08985" transform="translate(6.18345 57.52465) rotate(-42.75268)"/><ellipse class="cls-6" cx="75.88776" cy="20.95004" rx="2.36899" ry="1.68922" transform="translate(5.94287 57.08269) rotate(-42.75333)"/><path class="cls-4" d="M91.4561,20.35491a.15931.15931,0,0,0-.0109-.04908L88.92073,11.6964a3.18639,3.18639,0,0,0-5.22313-1.65312l-1.40372,1.12391-1.71926,1.37487L70.7432,20.415l-1.83353,1.46764L65.65612,24.4905l-3.395,2.717a.61382.61382,0,0,0-.10883.0982,1.95088,1.95088,0,0,0-.26117,2.56974l.53321.74746L63.56686,32.216l6.19157,8.64217a1.9577,1.9577,0,0,0,1.37652.802,1.35051,1.35051,0,0,0,.20675.01089,2.19454,2.19454,0,0,0,.32643-.02727,1.94629,1.94629,0,0,0,.98477-.48013l.64745-.58924L74.753,39.25417l.33732-.30553.64745-.58925,3.79766-3.45356,2.76932-2.52062.03809-.03277,3.10123-2.82069,1.839-1.66951.29923-.27279,1.061-.96571,1.099-.99841.23939-.21825.00545-.00546a4.52056,4.52056,0,0,0,.58761-.64925,5.37535,5.37535,0,0,0,.88684-1.89864A4.92144,4.92144,0,0,0,91.4561,20.35491ZM66.14036,29.1062l.457-.36557,2.21438-1.77317.2122-.16913,2.12187-1.70224,2.10556-1.68039.36455-.29464.2557-.20733.35366-.27825.01631-.01635,1.03375-.82931,2.5898-2.07324.17952-.14732.76172-.6056.37-.2946,1.08815-.8784.38631-.30556.02175-.01635.8542-.68745,1.82263-1.45671.25029-.19641.71818-.57832,1.11534-.89478,2.27423,7.75282a1.36194,1.36194,0,0,1-.33732,1.09664l-3.9282,3.57361-3.13932,2.85346L77.049,31.89416,71.65179,36.799l-.26659-.371-4.913-6.85261ZM73.839,22.87554l-.26659.24552-.321.29464.36455-.29464.2557-.20733C73.86073,22.90284,73.84987,22.88646,73.839,22.87554Z"/><path class="cls-5" d="M89.579,20.85688l-2.52451-8.60943a1.25433,1.25433,0,0,0-2.1382-.67653l-2.47553,1.9805-.2122.16913-.00541.00546h-.00545l-.49512.39827-.0272.02181-3.23725,2.597-.76713.61652-.83245.66563-.00544.00543-.95213.75838-.00541.00546-.26663.21279-.4298.34919h-.00545l-.01086.00542-.28293.22918-.19041.15274-.75627.6056-1.90971,1.52768-.02175.01635L72,21.90986l-1.49076,1.19485-3.55278,2.8425-3.47664,2.788.40261.56195L65.025,30.89026l5,6.98358,1.32209,1.84407.8107-.73654,2.53537-2.30783,3.65616-3.32266.00545-.00546.00544-.00543,2.94346-2.67887L84.443,27.80769l4.23835-3.85186a3.03186,3.03186,0,0,0,.70729-1.02025.25552.25552,0,0,0,.0272-.05458,3.80494,3.80494,0,0,0,.16866-.53467c.02175-.08185.03264-.15821.049-.2346a.42161.42161,0,0,1,.01086-.08185c.01089-.08182.01634-.15821.02178-.24006A2.64708,2.64708,0,0,0,89.579,20.85688Zm-5.54411-7.27819.28293.97117,1.82263,6.31245a1.2636,1.2636,0,0,1-.31012,1.03117l-3.19371,2.94074-3.06314,2.82615-8.31888,7.66554-4.34715-6.14878-.31012-.4365-.457-.64925,1.83352-1.484,3.95-3.20807.01089-.00547.03265-.02727.29923-.24552,1.31668-1.06391.2394-.1964.10878-.08728.06529-.05458,3.26444-2.6461.642-.52378.136-.10912.40805-.32735,1.5234-1.2385.41351-.3328.84875-.69291.4407-.35461.049-.0382,1.148-.933.26659-.21275Z"/><path class="cls-1" d="M54.38061,19.79843l7.86732,10.98274L79.58212,15.01906a3.25773,3.25773,0,0,0,.8977-3.099L77.95534,3.31068a1.25335,1.25335,0,0,0-2.1382-.67653Z"/><path class="cls-2" d="M59.1739,17.43818l4.23833,7.22907L65.088,22.89408l2.18175-2.31876L69.865,17.82556,71.72569,15.856l2.3776-2.52609a2.6721,2.6721,0,0,0,.6257-2.14963L73.54288,5.397c-.14688-.72019-.70184-.88932-1.22958-.38735Z"/><path class="cls-3" d="M74.11509,8.187s-.67216-1.14908-.82179.90335-.77281-.50093-.77281-.50093L72.4011,5.59565l1.41678,1.14219Z"/><path class="cls-3" d="M69.865,17.82556,71.72569,15.856a15.04434,15.04434,0,0,0,1.39283-8.53851c-.963-5.003-2.44833,1.06937-2.44833,1.06937C71.54614,8.90514,72.13375,14.001,69.865,17.82556Z"/><path class="cls-3" d="M70.67677,11.58323s-.07369-.68943-.59926-.57848-2.38857.80443-2.59818,1.7753a12.93768,12.93768,0,0,1-1.01065,2.48332L65.126,11.83692,69.469,8.425l1.282.22191S71.24838,10.60832,70.67677,11.58323Z"/><path class="cls-1" d="M68.367,19.41084c.061,1.00734,5.15517-6.31442,3.98515-12.36746C71.3845,2.0374,69.90392,8.11,69.90392,8.11c1.20793.721,1.87205,10.22793-4.861,12.96188-5.90682,2.39844,1.9276,1.3049,1.9276,1.3049Z"/><path class="cls-1" d="M64.81978,19.05949s4.26282-8.04465.94983-7.86116-5.32032,2.91232-5.01255,3.49448,2.718,3.59385,2.718,3.59385Z"/><path class="cls-4" d="M82.3483,11.36359l-.05442-.1964L79.82924,2.75963A3.19179,3.19179,0,0,0,74.6007,1.1065L61.98362,11.20539,58.73,13.81329l-5.56587,4.45746a1.96107,1.96107,0,0,0-.37,2.668l7.86732,10.98273a1.9578,1.9578,0,0,0,1.38193.802,1.24794,1.24794,0,0,0,.20131.01089A1.94581,1.94581,0,0,0,63.556,32.227l.01086-.01092L65.025,30.89026l1.44725-1.31486.43525-.39827L69.19805,27.093l.01086-.01092,1.74649-1.58222,2.296-2.08413.321-.29464.26659-.24552.32646-.30007.03806-.03274,1.01742-.922,2.44833-2.226.31557-.28915.49513-.45285.35907-.32188,1.24592-1.12937.51687-.47466.24484-.22371.00545-.00546.03809-.03274a3.9194,3.9194,0,0,0,.4135-.43646,4.828,4.828,0,0,0,.41892-.57287c.01633-.02727.03264-.05454.049-.08728a.0748.0748,0,0,0,.0163-.02184A5.40655,5.40655,0,0,0,82.419,13.666a.85266.85266,0,0,0,.02175-.11455A4.77985,4.77985,0,0,0,82.3483,11.36359ZM61.99993,27.08751l-.321-.44739-4.63552-6.47069.087-.06547,2.45378-1.9696,1.284-1.02568.76713-.61652.26114-.21279,2.22528-1.77863,1.24047-.993.321-.25641L67,12.1929l3.493-2.79342.34818-.28371.2122-.16914,1.40916-1.12937.0272-.01639.62566-.50193.70188-.56194V6.73154L75.28079,5.564l1.0555-.84566,2.27423,7.75285a1.34313,1.34313,0,0,1-.33732,1.09661l-7.53,6.84718-1.7519,1.59312-3.10668,2.82615-3.32973,3.028-.40261-.55651Z"/><path class="cls-5" d="M80.55287,12.27472c-.00545-.02727-.00545-.05454-.0109-.08182-.01633-.09277-.03808-.18551-.05984-.27279L77.95762,3.31068a1.25335,1.25335,0,0,0-2.1382-.67653L73.148,4.77285l-.77258.622-.38627.30552-.53322.42558L70.18282,7.14619l-.84334.67653L65.00867,11.2872l-.00544.00547L63.27852,12.673l-.00544.00542-.21765.1746-2.296,1.83863-.44615.35465a.00533.00533,0,0,1-.00544.00546l-.51143.40919-5.41355,4.33745,7.86732,10.98274.17411-.15824,1.45812-1.32578,3.41135-3.09895,3.38412-3.0826L72,21.90986l.02178-.01638.02175-.01635,2.17085-1.975,1.63767-1.48949,1.73015-1.5713.00545-.00543,1.99674-1.81682a3.083,3.083,0,0,0,.87054-1.50584.89613.89613,0,0,0,.05439-.20732q.03262-.16369.049-.311a3.18108,3.18108,0,0,0,.01631-.45284A2.218,2.218,0,0,0,80.55287,12.27472ZM59.25781,17.57788l1.24591-1.02572.6529-.53466.33732-.27826,2.23614-1.8441,1.2677-1.04756.39716-.32734,1.27315-1.04752L70.21,8.55379l.0163-.01635.52232-.42558V8.10644l1.56149-1.28216.136-.11459.4407-.36553.22309-.18006.506-.42008,1.39283-1.14576.272.96571,1.87162,6.56889a1.3245,1.3245,0,0,1-.31558,1.06937l-8.43859,7.89471-3.074,2.8807-3.32431,3.10987-.00545.00546-.31554-.45285L57.13046,20.104l-.34274-.491Z"/><path class="cls-6" d="M63.47511,18.28666s2.92479-3.43634,1.65092-5.28043-4.998,1.851-4.8229,2.12113S63.47511,18.28666,63.47511,18.28666Z"/><path class="cls-3" d="M65.088,22.89408l2.18175-2.31876a8.2,8.2,0,0,1-1.45812.7693C62.4601,22.7086,63.53194,22.9432,65.088,22.89408Z"/><path class="cls-7" d="M37.34794,12.22564c-1.84583,2.86353-3.89279,6.00757-5.75085,8.8713-.535.79019-1.02,1.9406-2.10561,2.00773-.25328.03222-8.204.01121-8.46062.01639-3.83549-.07307-4.97932,4.19954-6.72991,6.84716-6.37662,8.07208,3.872,13.87573,8.60728,19.24843l2.44834-3.42086c-2.058-2.03754-5.89415-5.92748-7.9816-7.99832-1.958-1.85928-.43155-4.31587.73476-6.13241.72492-1.24679,1.59519-2.7502,2.31752-4.00469.19077-.722,2.91874-.25811,3.40592-.38206,4.66473.07653,9.25737.72481,11.55036-4.38139,1.68964-2.63066,4.19672-6.473,5.8872-9.08363l-3.259-2.6079Z"/><path class="cls-7" d="M87.42994,33.40546c-.94751-2.594-2.69811-4.891-3.98789-7.32739-2.07223-5.83329-11.60151-.61752-14.5328-4.19481-2.26409-3.4937-4.65983-7.18927-6.92563-10.67787L58.73,13.81329c1.68392,2.60187,4.18815,6.46058,5.88686,9.07861,2.28535,5.1155,6.89446,4.46,11.551,4.38615.48238.12544,3.20745-.34022,3.40553.38219.716,1.26028,1.59689,2.75762,2.31784,4.01021,1.16219,1.80954,2.686,4.27887.7343,6.127-2.10507,2.06764-5.91258,5.95142-7.98136,7.99831l2.44833,3.42086C80.61688,44.73745,89.436,40.172,87.42994,33.40546Z"/><path class="cls-1" d="M71.95177,37.49581,91.81871,54.31957c1.5895,1.346,1.12611,3.71437-.92674,4.73645L74.23621,67.34868a7.95667,7.95667,0,0,1-6.25575.37506L50.05894,60.98188Z"/><path class="cls-2" d="M55.59389,57.96245,67.1446,62.27262a5.14883,5.14883,0,0,0,4.03157-.24552l.49509-.24552,2.851-1.41306s.00541-.00546.00541,0l4.88581-2.42788,1.43636-.71473.63111-.311.43525-.21821a1.839,1.839,0,0,0,.876-2.76069l-.03806-.03819a1.93184,1.93184,0,0,0-.234-.24006L69.7235,42.88236Z"/><path class="cls-3" d="M64.69082,55.56187s15.332-2.51516,14.777,1.87137c-.02175.18006-.04353.34919-.05439.5074l2.06747-1.02572.20675-.58378s-1.51254-5.09034-13.01423-2.06232Z"/><path class="cls-1" d="M80.85134,57.22733s-1.514-5.08685-13.01385-2.06265l-3.98456,1.29413S79.186,53.943,78.631,58.32909s1.40854,1.16513,1.40854,1.16513Z"/><path class="cls-3" d="M63.2871,58.52988s6.33847-2.79888,8.29713,2.98983c.03264.09274.05984.18.087.26187l2.851-1.41306c-1.75194-1.26577-6.11542-3.99919-9.73349-2.968C60.14778,58.72629,63.2871,58.52988,63.2871,58.52988Z"/><path class="cls-1" d="M74.8943,61.46189s-5.87678-4.88056-10.51558-3.55408S62.876,59.03775,62.876,59.03775s6.342-2.7982,8.29983,2.99056,2.28447,0,2.28447,0Z"/><path class="cls-4" d="M93.38755,52.45746,84.02406,44.53,73.518,35.63144a2.42945,2.42945,0,0,0-2.46467-.39827,2.40058,2.40058,0,0,0-.876.60014L50.52543,56.90946l-.52232.56744L48.33279,59.261l-.04894.05457a2.42666,2.42666,0,0,0-.58761,1.113,2.38041,2.38041,0,0,0-.00545,1.10756c.02175.09274.049.18.07618.26187a2.50306,2.50306,0,0,0,1.43636,1.46764l.79433.30007,10.91957,4.10285,6.2079,2.33511a9.85,9.85,0,0,0,3.49839.622,10.588,10.588,0,0,0,4.69536-1.09118l16.65409-8.293a5.67305,5.67305,0,0,0,3.19371-4.332A4.98635,4.98635,0,0,0,93.38755,52.45746ZM73.15344,65.16425a5.53532,5.53532,0,0,1-4.32.27825L64.6931,63.88758,54.31761,59.98114l.60936-.65472,1.11534-1.19484L70.025,43.13331l1.4962-1.60947.6257-.6711,8.42225,7.13633,9.6791,8.19478c.09793.07636.09248.11455.09248.14183-.01634.10912-.14146.35464-.52777.54559Z"/><path class="cls-5" d="M91.61386,54.14332a4.88279,4.88279,0,0,0-1.5234-2.43878L83.023,45.53392,71.65724,35.60963a2.14491,2.14491,0,0,0-.60391-.37646,2.19979,2.19979,0,0,0-2.50273.562L49.99766,56.32568l-.52774.57832-1.23505,1.36944a2.47127,2.47127,0,0,0-.34822.50739,2.395,2.395,0,0,0-.2013,1.615.0776.0776,0,0,0,.01089.03274,2.29261,2.29261,0,0,0,.65834,1.14576,2.21375,2.21375,0,0,0,.73449.47466l.90859.35461,1.38738.5347,10.27756,3.9828,4.05881,1.57674a8.96743,8.96743,0,0,0,3.24266.5947,9.53781,9.53781,0,0,0,4.358-1.04752l15.45716-7.9329a.63887.63887,0,0,0,.10338-.06.02826.02826,0,0,0,.02175-.01092A5.39068,5.39068,0,0,0,91.739,55.9656,4.96361,4.96361,0,0,0,91.61386,54.14332Zm-6.30035,1.9423a43.46644,43.46644,0,0,1-5.17959,3.14806c-.51688.28372-1.04461.57287-1.57238.85658-1.89881,1.02025-3.80307,2.00777-5.17956,2.717-.66924.34919-1.21876.62744-1.57783.8075-.31557.16367-.48968.251-.48968.251a4.99166,4.99166,0,0,1-4.00982.26733l-2.062-.802L54.927,59.32642l-1.08815-.42008,16.5453-18.30455s.42437.33827,1.1371.922c1.75738,1.44034,5.25033,4.34834,8.308,7.20723C83.35483,52.03188,86.29829,55.26723,85.31351,56.08562Z"/><ellipse class="cls-1" cx="78.63095" cy="50.86307" rx="1.53094" ry="2.63874" transform="translate(-9.47665 82.59522) rotate(-52.70373)"/><path class="cls-3" d="M80.84982,57.22591l.63111-.311.43525-.21821a1.839,1.839,0,0,0,.876-2.76069l-.03806-.03819s.01086,2.12232-1.382,1.82771C80.38189,55.51821,80.62673,56.593,80.84982,57.22591Z"/><path class="cls-1" d="M28.04672,37.49581,8.17977,54.31957c-1.5895,1.346-1.1261,3.71437.92674,4.73645l16.65576,8.29266a7.95667,7.95667,0,0,0,6.25575.37506l17.92152-6.74186Z"/><path class="cls-2" d="M44.4046,57.96245,32.85389,62.27262a5.14885,5.14885,0,0,1-4.03158-.24552l-.49509-.24552-2.851-1.41306s-.00542-.00546-.00542,0L20.585,57.94064l-1.43637-.71473-.63111-.311-.43525-.21821a1.839,1.839,0,0,1-.87595-2.76069l.03806-.03819a1.93113,1.93113,0,0,1,.234-.24006L30.275,42.88236Z"/><path class="cls-3" d="M35.30766,55.56187s-15.332-2.51516-14.777,1.87137c.02175.18006.04354.34919.0544.5074l-2.06748-1.02572-.20675-.58378S19.82334,51.2408,31.325,54.26882Z"/><path class="cls-1" d="M19.14715,57.22733s1.514-5.08685,13.01384-2.06265l3.98457,1.29413s-15.33307-2.51578-14.778,1.87028S19.959,59.49422,19.959,59.49422Z"/><path class="cls-3" d="M36.71138,58.52988s-6.33847-2.79888-8.29712,2.98983c-.03265.09274-.05984.18-.087.26187l-2.851-1.41306c1.75193-1.26577,6.11541-3.99919,9.73349-2.968C39.8507,58.72629,36.71138,58.52988,36.71138,58.52988Z"/><path class="cls-1" d="M25.10418,61.46189s5.87679-4.88056,10.51559-3.55408,1.50271,1.12994,1.50271,1.12994-6.342-2.7982-8.29984,2.99056-2.28447,0-2.28447,0Z"/><path class="cls-4" d="M52.30453,60.4176a2.39127,2.39127,0,0,0-.58758-1.10207l-.05443-.06L50.00311,57.4769l-.53319-.5729L29.82342,35.83331a2.3753,2.3753,0,0,0-.88143-.60014,2.42748,2.42748,0,0,0-2.46463.39827L15.97674,44.52459,6.61321,52.45746a4.95952,4.95952,0,0,0-1.77913,4.452,5.66094,5.66094,0,0,0,3.19371,4.332l16.65413,8.293a10.58782,10.58782,0,0,0,4.69536,1.09118,9.8207,9.8207,0,0,0,3.49294-.622l6.20787-2.33511,10.91957-4.10285.79436-.30007A2.465,2.465,0,0,0,52.22838,61.798c.0272-.08185.0544-.16913.07615-.26187A2.42728,2.42728,0,0,0,52.30453,60.4176ZM9.66,56.32568c-.00541-.02728-.00541-.06547.08707-.14183l9.67907-8.20024,8.42228-7.13087.62567.6711,1.50165,1.60947L43.953,58.13158l1.11534,1.20031.60936.64925-10.37549,3.901-4.1404,1.56038a5.538,5.538,0,0,1-4.31994-.27825l-16.6541-8.293C9.80148,56.68032,9.67635,56.4348,9.66,56.32568Z"/><path class="cls-5" d="M52.10867,58.78083v-.00542a2.23986,2.23986,0,0,0-.34822-.502l-1.235-1.364-.52777-.58378L31.44475,35.79514a2.198,2.198,0,0,0-2.50276-.562,2.39721,2.39721,0,0,0-.59846.37646L16.97781,45.52846l-7.073,6.17608A4.898,4.898,0,0,0,8.25633,55.9656,5.39936,5.39936,0,0,0,11.13447,60.063c.00544,0,.00544.00546.01089.00546.02175.01635.05439.02727.07618.04363L26.67322,68.045a9.55431,9.55431,0,0,0,4.358,1.04752,8.94629,8.94629,0,0,0,3.24269-.5947l4.06422-1.57674,10.27756-3.9828,1.38194-.5347.90863-.35461a2.28046,2.28046,0,0,0,.73993-.46924,2.31881,2.31881,0,0,0,.65831-1.16211c0-.00542.00544-.01635.00544-.02181A2.39057,2.39057,0,0,0,52.10867,58.78083ZM20.17153,48.73107c3.05228-2.85343,6.54522-5.76143,8.30257-7.20723.71273-.57835,1.14257-.922,1.14257-.922L46.162,58.90634l-1.0936.42555L34.75273,63.33107l-2.06206.802a4.993,4.993,0,0,1-4.00982-.26733s-.17411-.08728-.48423-.251c-.35908-.18006-.9086-.45831-1.58325-.8075-1.37652-.70926-3.28078-1.69678-5.17414-2.717-.52774-.28371-1.05551-.57286-1.57238-.85658a43.46234,43.46234,0,0,1-5.17957-3.14806C13.70251,55.26723,16.64594,52.03188,20.17153,48.73107Z"/><ellipse class="cls-1" cx="21.36753" cy="50.86307" rx="2.63874" ry="1.53094" transform="translate(-26.45041 23.34821) rotate(-37.29627)"/><path class="cls-3" d="M19.14866,57.22591l-.63111-.311-.43525-.21821a1.839,1.839,0,0,1-.87595-2.76069l.03806-.03819s-.01086,2.12232,1.382,1.82771C19.61659,55.51821,19.37175,56.593,19.14866,57.22591Z"/><path class="cls-7" d="M84.02406,44.53,83.023,45.53392l-.72363.72018-3.91189,3.9228-1.31665,1.31486L75.25359,53.314l-.89229.88932L72.827,55.74192,70.49295,58.077l-.47879.48013-.25573.25641-.4679.46923-2.75846,2.76069-1.28945,1.28758-.54952.55651-1.88792,1.88773-1.88795,1.89321L49.99766,63.56567,39.07809,67.66852l-.73993-.74746-1.148-1.14575-1.888-1.89319-.54949-.55105-1.28948-1.28758-2.753-2.76069-.46789-.46377-.2557-.26187-.47879-.48013-2.3341-2.33511-.89225-.89477-.642-.64379-.89228-.88932L22.93,51.49176,21.61333,50.1769l-.78891-.79658-.65289-.64925-4.19479-4.20648,10.50062-8.89315a2.42748,2.42748,0,0,1,2.46463-.39827,2.198,2.198,0,0,1,2.50276.562L49.99766,56.32568,68.5506,35.79514a2.19979,2.19979,0,0,1,2.50273-.562,2.42945,2.42945,0,0,1,2.46467.39827Z"/><path class="cls-1" d="M81.32,38.96172,63.84979,56.45881,52.11146,68.216a2.98525,2.98525,0,0,1-4.2276,0L36.14556,56.45881,18.68077,38.96172a4.93119,4.93119,0,0,1-.778-5.947l3.31883-5.72869A2.498,2.498,0,0,1,23.387,26.03669h7.56805a3.63081,3.63081,0,0,0,3.04611-1.65746l2.14438-3.3074L47.79062,3.1106a2.62885,2.62885,0,0,1,4.41448-.00026l11.64469,17.956,2.1491,3.31173a3.636,3.636,0,0,0,3.04965,1.65859h7.55979a2.50678,2.50678,0,0,1,2.17085,1.24939l3.31339,5.72869A4.93011,4.93011,0,0,1,81.32,38.96172Z"/><path class="cls-2" d="M33.028,31.08124V43.668a1.07392,1.07392,0,0,1-1.83352.76381l-4.9946-5.00852a3.74167,3.74167,0,0,1-.593-4.51747l2.08923-3.61727.4298-.73656a1.82849,1.82849,0,0,1,.4135-.49648c.05443-.04365.10883-.08185.16322-.12a1.8889,1.8889,0,0,1,1.07184-.33281H31.559A1.473,1.473,0,0,1,33.028,31.08124Z"/><path class="cls-2" d="M46.5972,17.37055v39.1461a1.38275,1.38275,0,0,1-2.36126.98206l-2.49732-2.50427-2.26878-2.26965-.15235-.14732-.01086-.01088a1.40293,1.40293,0,0,1-.40264-.98209V27.52944a2.79927,2.79927,0,0,1,.45159-1.52219l.11426-.18,2.19805-3.38813.16866-.25641.11427-.18L43.398,19.77113l.46248-.70926V19.0564l1.36019-2.095A.7482.7482,0,0,1,46.5972,17.37055Z"/><path class="cls-2" d="M61.09678,27.52944V51.5845a1.39573,1.39573,0,0,1-.33188.90569c-.02723.02728-.049.05455-.07073.0764l-.01089.01088-.15236.14732-2.26878,2.26965-.07073.07092-2.42655,2.43335a1.2964,1.2964,0,0,1-.51687.32734,1.38445,1.38445,0,0,1-1.84442-1.3094V17.37055a.74682.74682,0,0,1,1.37652-.40919l1.36018,2.095v.00547l.46245.70926L58.05,22.00261l.11426.18.16867.25641.19044.28918.37.57832,1.63763,2.52063.11427.18a2.86673,2.86673,0,0,1,.28837.57833A2.77805,2.77805,0,0,1,61.09678,27.52944Z"/><path class="cls-4" d="M49.99766,71a4.87277,4.87277,0,0,1-3.4597-1.43324L17.3349,40.31268A6.85489,6.85489,0,0,1,16.25472,32.058l3.32023-5.7311a4.41172,4.41172,0,0,1,3.812-2.19967h7.56815a1.72165,1.72165,0,0,0,1.44945-.78882l13.7894-21.2687a4.53049,4.53049,0,0,1,7.60747-.00053L67.59505,23.33651a1.72642,1.72642,0,0,0,1.45343.79068H76.6084A4.43217,4.43217,0,0,1,80.423,26.32233l3.31678,5.73456a6.8541,6.8541,0,0,1-1.07327,8.25525l-.00106.0008L53.45736,69.567A4.87471,4.87471,0,0,1,49.99766,71ZM23.38692,27.94632a.59514.59514,0,0,0-.51644.29517l-3.3213,5.7327a3.02171,3.02171,0,0,0,.47819,3.63718L49.22963,66.86465a1.08579,1.08579,0,0,0,1.53606.00027L79.97326,37.61137a3.02156,3.02156,0,0,0,.47155-3.63958L77.132,28.24416a.60225.60225,0,0,0-.52362-.29784H69.04848a5.52063,5.52063,0,0,1-4.64561-2.52655L50.60868,4.15133a.72754.72754,0,0,0-1.22151,0L35.5975,25.42a5.51422,5.51422,0,0,1-4.64243,2.52629Zm57.933,11.01543h0Z"/><rect class="cls-4" x="48.30726" y="2.26192" width="3.26444" height="65.50174"/><rect class="cls-4" x="34.43816" y="21.072" width="3.05563" height="36.04413"/><path class="cls-3" d="M46.5972,24.52869V17.37055a.7482.7482,0,0,0-1.37649-.40919l-1.36019,2.095v.00547s1.36836-1.7437,1.75735-.94386a20.76981,20.76981,0,0,1,.56808,4.86935c-.037.64215-.024,4.87488-3.66931,13.77892a47.42753,47.42753,0,0,0-3.19915,15.81119l.15235.14732,2.26878,2.26965c-1.69751-3.93369-.71818-11.21734,1.47445-16.084A65.50924,65.50924,0,0,0,46.5972,28.78429c.34821-1.38033.53321-2.25875.53321-2.25875Z"/><path class="cls-1" d="M39.74781,55.646a47.93587,47.93587,0,0,1,3.20664-18.15022c3.64275-8.90207,3.67838-13.73329,3.67838-13.73329l.93585,3.493a70.92054,70.92054,0,0,1-3.91857,12.3823c-2.47242,5.49323-3.39919,14.05363-.69566,17.42072S39.74781,55.646,39.74781,55.646Z"/><path class="cls-1" d="M38.904,36.79778S44.7565,24.0565,43.85886,19.05949s-1.64157,0-1.64157,0S43.0892,30.01393,38.473,32.59441l-.436,2.907Z"/><path class="cls-3" d="M43.398,19.77113c-.185,4.49569-3.22635,11.97571-4.49405,14.911v-3.71c1.93693-1.90956,2.57893-5.60322,2.7639-8.533Z"/><path class="cls-3" d="M31.48829,43.86987c-.03264.25642-.05987.49648-.09252.72019a1.06877,1.06877,0,0,1-.2013-.15824L29.93766,43.1715l-.02175-1.01479s2.14365-4.22286-1.76824-10.16981c-.16322-.25095-.31557-.48558-.45159-.69834l.4298-.73656a1.84294,1.84294,0,0,1,.57672-.61652A25.12637,25.12637,0,0,1,31.48829,43.86987Z"/><path class="cls-1" d="M29.06609,42.15944S31.209,37.93349,27.298,31.98509s.3709-2.38026.3709-2.38026a25.19771,25.19771,0,0,1,2.96646,14.26494c-.92667,7.67236-1.53128,0-1.53128,0Z"/><path class="cls-3" d="M46.5972,45.523v5.70142a.88.88,0,0,1-.43525.11459c-.876,0-1.58325-1.32578-1.58325-2.968,0-1.63677.70729-2.968,1.58325-2.968A.83205.83205,0,0,1,46.5972,45.523Z"/><ellipse class="cls-1" cx="46.5972" cy="49.25878" rx="1.58319" ry="2.96747"/><path class="cls-3" d="M28.95833,39.33056a3.44445,3.44445,0,0,1-.89773,1.95865L26.19987,39.4233a3.74343,3.74343,0,0,1-.6692-.91113c.29379-1.30943,1.16974-2.23148,2.05659-2.106C28.55028,36.53714,29.16508,37.84654,28.95833,39.33056Z"/><ellipse class="cls-1" cx="26.55598" cy="39.29803" rx="2.3952" ry="1.58327" transform="translate(-16.01377 60.21148) rotate(-82.11454)"/><path class="cls-3" d="M33.028,31.08124v1.08025c0-1.89864-1.25172-1.85983-1.60535-1.85983a4.152,4.152,0,0,0-1.6008.47951c-.59276.30188-.03651,1.51126-.03651,1.51126l-.11971.44193-1.02831-1.95319-.09793-.72565c.05443-.04365.10883-.08185.16322-.12a1.8889,1.8889,0,0,1,1.07184-.33281H31.559A1.473,1.473,0,0,1,33.028,31.08124Z"/><path class="cls-3" d="M42.26639,23.03378l-.70732.7038S40.5199,25.227,39.595,26.54738a3.78351,3.78351,0,0,0-.691,1.49491v-.51285a2.79927,2.79927,0,0,1,.45159-1.52219l.11426-.18,2.19805-3.38813.16866-.25641.11427-.18Z"/><path class="cls-3" d="M46.5972,37.80834v8.12931l-.43525.1964-.2666-.68744S46.5972,39.36329,46.5972,37.80834Z"/><path class="cls-2" d="M66.97049,31.08124V43.668a1.07394,1.07394,0,0,0,1.83353.76381l4.99459-5.00852a3.74167,3.74167,0,0,0,.593-4.51747l-2.08922-3.61727L71.8726,30.552a1.82831,1.82831,0,0,0-.4135-.49648c-.05443-.04365-.10882-.08185-.16321-.12a1.88893,1.88893,0,0,0-1.07185-.33281H68.4395A1.47306,1.47306,0,0,0,66.97049,31.08124Z"/><rect class="cls-4" x="62.5047" y="21.072" width="3.05563" height="36.04413"/><path class="cls-3" d="M68.5102,43.86987c.03264.25642.05987.49648.09251.72019a1.06882,1.06882,0,0,0,.20131-.15824l1.25681-1.26032.02175-1.01479s-2.14365-4.22286,1.76824-10.16981c.16321-.25095.31557-.48558.45159-.69834L71.8726,30.552a1.843,1.843,0,0,0-.57671-.61652A25.12637,25.12637,0,0,0,68.5102,43.86987Z"/><path class="cls-3" d="M71.04015,39.33056a3.44439,3.44439,0,0,0,.89774,1.95865l1.86072-1.86591a3.74317,3.74317,0,0,0,.6692-.91113c-.29379-1.30943-1.16974-2.23148-2.05658-2.106C71.44821,36.53714,70.8334,37.84654,71.04015,39.33056Z"/><path class="cls-1" d="M70.9324,42.15944s-2.14287-4.22595,1.7681-10.17435-.3709-2.38026-.3709-2.38026a25.19762,25.19762,0,0,0-2.96646,14.26494c.92667,7.67236,1.53127,0,1.53127,0Z"/><ellipse class="cls-1" cx="73.44251" cy="39.29803" rx="1.58327" ry="2.3952" transform="translate(-4.69697 10.44741) rotate(-7.88546)"/><path class="cls-3" d="M66.97049,31.08124v1.08025c0-1.89864,1.25173-1.85983,1.60535-1.85983a4.152,4.152,0,0,1,1.6008.47951c.59277.30188.03651,1.51126.03651,1.51126l.11971.44193,1.02831-1.95319.09793-.72565c-.05443-.04365-.10882-.08185-.16321-.12a1.88893,1.88893,0,0,0-1.07185-.33281H68.4395A1.47306,1.47306,0,0,0,66.97049,31.08124Z"/><path class="cls-5" d="M81.05885,32.37974l-3.05769-5.29223A4.10251,4.10251,0,0,0,74.481,25.06336H67.5114a1.56886,1.56886,0,0,1-1.284-.64925V21.32062H64.21431L53.45255,4.72923a4.17436,4.17436,0,0,0-7.01312,0L35.68308,21.32062H33.77337v2.94074l-.0417.06509a1.59845,1.59845,0,0,1-1.34568.73691H25.411a4.067,4.067,0,0,0-3.5147,2.02961l-3.06313,5.28677a6.314,6.314,0,0,0,.99563,7.611L33.77337,53.95783v2.49882h2.49187L46.755,66.96469a4.51613,4.51613,0,0,0,6.382,0l10.48972-10.508h2.60069V53.85417L80.06863,39.9907A6.31969,6.31969,0,0,0,81.05885,32.37974ZM33.77337,48.98205l-7.024-7.03813a2.74788,2.74788,0,0,0,.29379-.91658c.14691-1.04753-.29379-1.975-.99022-2.07324a1.37561,1.37561,0,0,0-1.30575.98206l-2.43748-2.43878a2.78208,2.78208,0,0,1-.4407-3.34993l3.06314-5.28677a.548.548,0,0,1,.47879-.2728h6.975a5.12954,5.12954,0,0,0,1.38738-.191Zm4.38524,3.619V23.96129l7.98353-12.31622a.74144.74144,0,0,1,1.36368.40538v47.814a1.18685,1.18685,0,0,1-2.02629.84235L38.704,53.92035A1.86738,1.86738,0,0,1,38.15861,52.601Zm23.13814,1.21021-6.90063,6.91191a1.18686,1.18686,0,0,1-2.02631-.84235V12.02209a.74144.74144,0,0,1,1.36359-.40553L61.84216,24.1195V52.4919A1.86735,1.86735,0,0,1,61.29675,53.81122ZM77.58766,37.49738,66.22739,48.87293V28.42421a5.02219,5.02219,0,0,0,1.284.16367H74.481a.55689.55689,0,0,1,.48424.2728L78.01746,34.142A2.78485,2.78485,0,0,1,77.58766,37.49738Z"/><path class="cls-3" d="M56.6789,26.13819a11.37254,11.37254,0,0,1-3.03727-7.09814c-.00352-.37472.10142-.88938.739-.75341.78031.16643,2.95943,3.26328,3.807,4.50591-.61772.388-.78519,1.5788-.34748,2.84367.47869,1.40763,1.5138,2.36242,2.30962,2.13874a1.29647,1.29647,0,0,0,.7838-1.18938,2.7721,2.7721,0,0,0-.31713-.57833l-.12566-.18-1.801-2.52063h.2035l-.56041-.8675-.16867-.25641-.11426-.18-1.44723-2.23148-.46245-.70926V19.0564l-1.36018-2.095a.74682.74682,0,0,0-1.37652.40919v6.10516a26.3946,26.3946,0,0,0,1.90426,2.94616c.73993,1.03664,2.44288,2.62429,3.37871,4.56659a45.819,45.819,0,0,1,2.41024,6.42161V33.39453A19.8536,19.8536,0,0,0,56.6789,26.13819Z"/><path class="cls-3" d="M61.09678,47.11068V51.5845a1.39573,1.39573,0,0,1-.33188.90569c-.24484-.04365-.46248-.24552-.49512.07093,0,0-.72363-12.21577-6.86621-13.77615V35.1077C53.99662,35.70783,59.64952,41.54565,61.09678,47.11068Z"/><path class="cls-1" d="M53.40129,36.39478s7.44645,7.77133,7.69321,14.16507c.19458,5.0418-1.0201,2.542-1.10422,3.338,0,0-.69353-12.28257-6.589-13.78421l-.56253-1.15187Z"/><ellipse class="cls-1" cx="59.72681" cy="25.55051" rx="1.36802" ry="2.66617" transform="translate(-4.89532 18.90966) rotate(-17.29337)"/><path class="cls-3" d="M58.19141,55.06536l-1.70253,2.05076c-.1578.15821-.64526.23283-.13383-.30184,2.85094-3.00075-2.79371-12.38246-2.79371-12.38246l-.15777-.33827V43.117h.15777C56.99444,47.43256,58.39816,54.378,58.19141,55.06536Z"/><path class="cls-1" d="M53.40357,47.48617s-.09081-2.1833.56514-1.19488,3.833,8.85268,1.79615,11.20742C53.16873,60.5,57.106,56.992,57.106,56.992l.487-1.16311c.30022-.26457-.95818-7.53566-4.18937-11.99451h-.56481Z"/><path class="cls-1" d="M53.40357,42.33539s-.28377-2.677,1.59524-1.48165-1.58739-2.526-1.58739-2.526a13.6715,13.6715,0,0,0-.57266,2.27614C52.922,40.82228,53.40357,42.33539,53.40357,42.33539Z"/><path class="cls-1" d="M44.9511,36.39478s1.6461-3.21907,1.6461.78071.53321-.37771.53321-.37771l-.20419-6.8623-1.9051,4.2638Z"/><path class="cls-1" d="M53.40129,17.37055s-.89449,5.89309,3.02053,9.85607a19.63825,19.63825,0,0,1,4.67268,8.09929,3.10285,3.10285,0,0,1,0,1.84958l.431,3.83571A50.73559,50.73559,0,0,0,58.43088,32.078c-.93688-1.94525-2.6369-3.52991-3.3811-4.56983-2.28754-3.19653-2.21071-3.74569-2.21071-3.74569Z"/><path class="cls-1" d="M53.40357,28.89347s.15837-3.17412,1.64621-1.38526-.32708-1.12157-.32708-1.12157L53.088,23.73758Z"/></g></svg>