<?xml version="1.0" encoding="UTF-8" standalone="no"?>
<!DOCTYPE svg PUBLIC "-//W3C//DTD SVG 1.1//EN" "http://www.w3.org/Graphics/SVG/1.1/DTD/svg11.dtd">
<svg width="100%" height="100%" viewBox="0 0 300 345" version="1.1" xmlns="http://www.w3.org/2000/svg" xmlns:xlink="http://www.w3.org/1999/xlink" xml:space="preserve" xmlns:serif="http://www.serif.com/" style="fill-rule:evenodd;clip-rule:evenodd;stroke-linejoin:round;stroke-miterlimit:2;">
    <path d="M278.53,248.83C278.53,228.751 262.229,212.45 242.15,212.45L57.85,212.45C37.771,212.45 21.47,228.751 21.47,248.83L21.47,308.62C21.47,328.699 37.771,345 57.85,345L242.15,345C262.229,345 278.53,328.699 278.53,308.62L278.53,248.83Z" style="fill:rgb(214,32,39);"/>
    <path d="M212.71,212.45L87.29,212.45C51.186,212.45 21.475,242.156 21.47,278.26C21.403,293.84 33.769,306.889 49.33,307.66L250.67,307.66C266.231,306.889 278.597,293.84 278.53,278.26C278.525,242.156 248.814,212.45 212.71,212.45Z" style="fill:rgb(142,25,27);fill-rule:nonzero;"/>
    <path d="M300,51.53C300,23.09 276.91,0 248.47,0L51.53,0C23.09,0 0,23.09 0,51.53L0,236.67C0,265.11 23.09,288.2 51.53,288.2L248.47,288.2C276.91,288.2 300,265.11 300,236.67L300,51.53Z" style="fill:url(#_Linear1);"/>
    <path d="M240.77,198.85L59.23,198.85C32.99,198.85 11.72,214.28 11.72,233.32L11.72,239.71C11.72,258.71 32.99,274.18 59.23,274.18L240.77,274.18C267.01,274.18 288.28,258.75 288.28,239.71L288.28,233.32C288.28,214.28 267,198.85 240.77,198.85Z" style="fill:rgb(218,230,245);fill-rule:nonzero;"/>
    <g transform="matrix(1.10327,0,0,1,-18.3708,1.81818)">
        <path d="M253.544,226.455C253.544,223.147 251.11,220.462 248.112,220.462L56.503,220.462C53.505,220.462 51.071,223.147 51.071,226.455L51.071,238.44C51.071,241.747 53.505,244.433 56.503,244.433L248.112,244.433C251.11,244.433 253.544,241.747 253.544,238.44L253.544,226.455Z" style="fill:rgb(157,198,234);"/>
    </g>
    <g>
        <path d="M144.828,84.176L144.837,84.177C148.73,78.443 150.971,78.976 154.502,84.177L256.324,234.265L43.006,234.265L144.828,84.176Z" style="fill:rgb(241,163,65);"/>
        <path d="M147.99,85.06L145.632,86.2L147.561,86.7L147.99,85.06Z" style="fill:rgb(212,118,48);"/>
        <path d="M139.829,119.75L129.124,119.75L138.666,123.241L139.829,119.75Z" style="fill:rgb(212,118,48);"/>
        <path d="M112.877,224.957L100.309,224.957L111.946,228.215L112.877,224.957Z" style="fill:rgb(212,118,48);"/>
        <path d="M121.487,191.212L116.367,191.212L121.084,192.841L121.487,191.212Z" style="fill:rgb(212,118,48);"/>
        <path d="M139.829,117.478L137.201,117.072L140.353,116.157L139.829,117.478Z" style="fill:rgb(212,118,48);"/>
        <path d="M148.848,80.22C150.696,79.587 152.362,81.024 154.502,84.177L256.324,234.265L43.006,234.265L109.199,234.265L148.848,80.22Z" style="fill:rgb(212,118,48);"/>
        <path d="M127.635,157.17L134.476,160.08L126.549,161.632L127.635,157.17Z" style="fill:rgb(241,163,65);"/>
        <path d="M117.551,198.185L121.487,199.303L116.367,200.047L117.551,198.185Z" style="fill:rgb(241,163,65);"/>
        <path d="M144.781,94.58C145.607,94.644 149.665,95.215 149.665,95.215L144.209,95.915C144.209,95.915 143.955,94.516 144.781,94.58Z" style="fill:rgb(241,163,65);"/>
        <path d="M151.95,83.812L248.708,228.172L180.551,228.172L179.455,222.641L188.397,222.477L186.3,215.198L193.676,214.826L191.334,206.762L199.864,207.404L193.414,190.765L187.48,190.841L185.096,183.338L190.54,183.352L185.556,170.496L190.475,170.248L188.261,164.573L183.626,164.81L172.758,137.485L166.033,137.216L164.353,130.846L159.762,130.805L158.765,124.809L163.195,124.369L156.754,101.135L159.111,101.003L158.067,97.531L155.776,97.609L151.95,83.812Z" style="fill:rgb(192,104,38);"/>
        <path d="M145.823,83.812L47.997,231.093L57.834,231.093L60.23,227.083L56.083,226.949L60.758,219.849L64.672,219.647L66.22,217.057L70.086,217.045L72.61,212.779L68.822,212.7L79.042,195.593L76.288,195.479L78.127,191.824L81.255,191.889L106.643,149.393L109.895,149.549L111.611,146.572L114.727,146.661L116.657,143.433L113.556,143.2L110.451,143.019L145.823,83.812Z" style="fill:rgb(245,178,94);"/>
    </g>
    <g>
        <path d="M41.17,234.265C41.296,233.492 41.744,232.922 43.006,232.869L47.447,232.869C48.723,232.855 49.347,233.371 49.506,234.265C49.618,233.796 49.977,233.584 50.526,233.569L52.325,233.569C52.876,233.566 53.284,233.752 53.444,234.265L53.444,234.804L41.141,234.804L41.17,234.265Z" style="fill:rgb(157,198,234);"/>
        <g transform="matrix(1,0,0,1,76.5578,0)">
            <path d="M41.17,234.265C41.296,233.492 41.744,232.922 43.006,232.869L47.447,232.869C48.723,232.855 49.347,233.371 49.506,234.265C49.618,233.796 49.977,233.584 50.526,233.569L52.325,233.569C52.876,233.566 53.284,233.752 53.444,234.265L53.444,234.804L41.141,234.804L41.17,234.265Z" style="fill:rgb(157,198,234);"/>
        </g>
        <g transform="matrix(1,0,0,1,205.023,0)">
            <path d="M41.17,234.265C41.296,233.492 41.744,232.922 43.006,232.869L47.447,232.869C48.723,232.855 49.347,233.371 49.506,234.265C49.618,233.796 49.977,233.584 50.526,233.569L52.325,233.569C52.876,233.566 53.284,233.752 53.444,234.265L53.444,234.804L41.141,234.804L41.17,234.265Z" style="fill:rgb(157,198,234);"/>
        </g>
        <g transform="matrix(-1.58737,0,0,1.58737,272.539,-137.918)">
            <path d="M41.17,234.265C41.296,233.492 41.744,232.922 43.006,232.869L47.447,232.869C48.723,232.855 49.347,233.371 49.506,234.265C49.618,233.796 49.977,233.584 50.526,233.569L52.325,233.569C52.876,233.566 53.284,233.752 53.444,234.265L53.444,234.804L41.141,234.804L41.17,234.265Z" style="fill:rgb(157,198,234);"/>
        </g>
    </g>
    <g>
        <circle cx="54.57" cy="69.95" r="10.8" style="fill:white;"/>
        <circle cx="92.22" cy="33.94" r="5.89" style="fill:white;"/>
        <g transform="matrix(0.31639,0,0,0.31639,112.778,89.9424)">
            <circle cx="150.54" cy="80.64" r="17.34" style="fill:white;"/>
        </g>
        <g transform="matrix(0.158195,0,0,0.158195,173.771,104.531)">
            <circle cx="150.54" cy="80.64" r="17.34" style="fill:white;"/>
        </g>
        <g transform="matrix(0.158195,0,0,0.158195,148.74,51.1593)">
            <circle cx="150.54" cy="80.64" r="17.34" style="fill:white;"/>
        </g>
        <g transform="matrix(0.158195,0,0,0.158195,222.15,107.274)">
            <circle cx="150.54" cy="80.64" r="17.34" style="fill:white;"/>
        </g>
        <g transform="matrix(0.158195,0,0,0.158195,-5.12119,47.4565)">
            <circle cx="150.54" cy="80.64" r="17.34" style="fill:white;"/>
        </g>
        <circle cx="108.07" cy="116.13" r="5.89" style="fill:white;"/>
        <circle cx="203" cy="32.42" r="4.36" style="fill:white;"/>
        <circle cx="256.26" cy="56.92" r="10.75" style="fill:white;"/>
        <g transform="matrix(0.672861,0,0,0.672861,41.8386,52.7456)">
            <circle cx="256.26" cy="56.92" r="10.75" style="fill:white;"/>
        </g>
        <g transform="matrix(0.672861,0,0,0.672861,-44.2215,11.9378)">
            <circle cx="256.26" cy="56.92" r="10.75" style="fill:white;"/>
        </g>
        <circle cx="267.68" cy="95.51" r="2.47" style="fill:white;"/>
        <circle cx="153.73" cy="156.31" r="3.73" style="fill:white;"/>
        <circle cx="79.48" cy="165.9" r="7.64" style="fill:white;"/>
        <circle cx="103.2" cy="75.04" r="5.09" style="fill:white;"/>
        <circle cx="155.89" cy="29.18" r="5.89" style="fill:white;"/>
        <circle cx="251.88" cy="155.75" r="7.03" style="fill:white;"/>
        <circle cx="215.42" cy="146.44" r="4.1" style="fill:white;"/>
        <circle cx="186.47" cy="201.32" r="7.76" style="fill:white;"/>
        <circle cx="276.33" cy="197.44" r="3.88" style="fill:white;"/>
        <circle cx="53.96" cy="115.22" r="6.11" style="fill:white;"/>
        <circle cx="37.43" cy="160.96" r="6.34" style="fill:white;"/>
        <circle cx="88.54" cy="130.11" r="2.21" style="fill:white;"/>
        <circle cx="117.97" cy="161.14" r="2.88" style="fill:white;"/>
        <circle cx="62.45" cy="188.47" r="1.47" style="fill:white;"/>
        <circle cx="20.56" cy="106.73" r="3.74" style="fill:white;"/>
        <circle cx="39.13" cy="27.49" r="1.7" style="fill:white;"/>
        <circle cx="280.52" cy="130.8" r="1.99" style="fill:white;"/>
        <circle cx="209.91" cy="54.37" r="2.55" style="fill:white;"/>
        <circle cx="241.8" cy="26.16" r="6.26" style="fill:white;"/>
        <circle cx="105.24" cy="200.47" r="5.77" style="fill:white;"/>
        <circle cx="55.09" cy="238.84" r="4.98" style="fill:white;"/>
        <circle cx="136.37" cy="229.28" r="6.79" style="fill:white;"/>
        <circle cx="114.92" cy="249.76" r="5.94" style="fill:white;"/>
        <circle cx="138.67" cy="197.44" r="3.88" style="fill:white;"/>
        <circle cx="32.79" cy="203.49" r="4.64" style="fill:white;"/>
    </g>
    <defs>
        <linearGradient id="_Linear1" x1="0" y1="0" x2="1" y2="0" gradientUnits="userSpaceOnUse" gradientTransform="matrix(-0.46,406.41,-406.41,-0.46,150.28,-102.84)"><stop offset="0" style="stop-color:rgb(199,233,246);stop-opacity:0.8"/><stop offset="0.3" style="stop-color:rgb(199,233,246);stop-opacity:0.8"/><stop offset="0.96" style="stop-color:rgb(16,175,209);stop-opacity:0.8"/><stop offset="1" style="stop-color:rgb(16,175,209);stop-opacity:0.8"/></linearGradient>
    </defs>
</svg>
