<?xml version="1.0" encoding="UTF-8" standalone="no"?><!DOCTYPE svg PUBLIC "-//W3C//DTD SVG 1.1//EN" "http://www.w3.org/Graphics/SVG/1.1/DTD/svg11.dtd"><svg width="100%" height="100%" viewBox="0 0 265 180" version="1.1" xmlns="http://www.w3.org/2000/svg" xmlns:xlink="http://www.w3.org/1999/xlink" xml:space="preserve" xmlns:serif="http://www.serif.com/" style="fill-rule:evenodd;clip-rule:evenodd;stroke-linejoin:round;stroke-miterlimit:2;"><g id="Originals"></g><g id="v5"><g id="ELA"><path d="M265.046,175.548c0,2.463 -2,4.463 -4.463,4.463l-256.168,0c-2.463,0 -4.463,-2 -4.463,-4.463l-0,-172.086c-0,-1.94 1.575,-3.515 3.515,-3.515l258.063,-0c1.94,-0 3.515,1.575 3.515,3.515l0,172.086l0,-0l0,-0l0.001,-0Z" style="fill:url(#_Radial1);"/><path d="M5,-0.054l4.505,0c-3.612,2.262 -6.907,5.192 -9.554,8.577l-0,-3.96c1.548,-1.68 3.245,-3.228 5.049,-4.617Zm41.398,0l5.781,0c2.214,1.181 4.438,2.315 6.96,2.865c6.612,1.443 13.715,0.364 19.559,-2.865l4.713,0c-6.905,5.225 -16.233,7.264 -24.823,5.39c-4.462,-0.973 -8.045,-3.661 -12.19,-5.39Zm118.255,0l3.829,0c1.91,1.669 3.903,3.067 6.772,3.522c3.856,0.612 7.188,-0.256 10.446,-1.508c1.604,-0.616 3.19,-1.323 4.805,-2.014l7.783,0c-0.381,0.079 -0.763,0.172 -1.146,0.282c-3.736,1.073 -7.084,2.827 -10.514,4.145c-3.672,1.411 -7.434,2.338 -11.779,1.649c-4.466,-0.709 -7.108,-3.34 -10.196,-6.076Zm77.129,0l2.778,0c1.984,4.983 4.221,10.67 7.331,15.269c3.184,4.708 7.311,8.252 13.155,8.381l0,2.599c-6.789,-0.091 -11.613,-4.086 -15.296,-9.532c-3.415,-5.05 -5.82,-11.374 -7.968,-16.717l0,0Zm-24.76,180.064l-2.745,0c0.266,-0.82 0.597,-1.619 0.99,-2.388c0.788,-1.54 1.8,-2.762 3.014,-3.984c5.164,-5.2 11.314,-4.777 17.6,-3.991c5.561,0.696 11.234,1.725 16.184,-2.047c2.839,-2.163 4.227,-5.475 5.14,-9.013c0.986,-3.818 1.41,-7.907 2.23,-11.325c0.962,-4.011 2.905,-7.632 5.611,-10.622l0,4.181c-1.429,2.12 -2.486,4.493 -3.098,7.044c-0.823,3.431 -1.25,7.536 -2.24,11.368c-1.063,4.114 -2.775,7.909 -6.077,10.423c-5.538,4.22 -11.849,3.335 -18.071,2.556c-5.498,-0.688 -10.929,-1.3 -15.445,3.248c-1.021,1.027 -1.885,2.044 -2.547,3.339c-0.202,0.395 -0.384,0.799 -0.546,1.211l-0,0Zm-217.071,-117.512c1.232,4.754 2.278,9.544 2.756,14.431c0.778,7.946 -0.816,15.362 -2.756,22.811l0,-12.662c0.398,-3.231 0.515,-6.514 0.184,-9.897c-0.054,-0.551 -0.115,-1.101 -0.184,-1.649l0,-13.034Zm0,96.038c1.127,1.903 2.496,3.68 4.172,5.285c2.502,2.397 5.71,3.757 9.079,4.429c9.552,1.906 17.18,-0.7 24.231,-7.258c4.447,-4.135 8.547,-9.465 13.314,-13.417c5.04,-4.179 10.803,-6.858 18.344,-5.393c5.301,1.03 9.416,4.167 13.145,7.889c3.518,3.512 6.688,7.546 10.314,10.586c1.422,1.193 3.07,2.569 4.866,3.625c1.641,0.965 3.406,1.67 5.235,1.6c3.071,-0.119 5.628,-1.889 7.878,-4.11c2.451,-2.42 4.532,-5.393 6.418,-7.722c6.08,-7.504 15.056,-13.018 25.113,-10.725c4.773,1.088 8.505,3.673 11.946,6.713c3.259,2.878 6.251,6.169 9.718,8.835c12.133,9.331 28.561,11.753 41.492,2.806c0.587,-0.406 1.392,-0.259 1.798,0.328c0.406,0.586 0.259,1.392 -0.327,1.798c-13.878,9.602 -31.517,7.131 -44.539,-2.883c-3.513,-2.702 -6.551,-6.03 -9.853,-8.947c-3.121,-2.756 -6.481,-5.143 -10.809,-6.13c-9.054,-2.064 -17.058,3.077 -22.53,9.832c-2.344,2.894 -4.998,6.732 -8.233,9.407c-2.336,1.93 -4.97,3.264 -7.973,3.38c-4.452,0.172 -8.696,-3.172 -11.861,-5.826c-3.681,-3.087 -6.908,-7.173 -10.48,-10.738c-3.362,-3.355 -7.031,-6.252 -11.811,-7.181c-6.67,-1.295 -11.743,1.15 -16.201,4.846c-4.73,3.921 -8.791,9.216 -13.204,13.32c-7.707,7.169 -16.056,9.983 -26.497,7.9c-3.851,-0.768 -7.501,-2.357 -10.362,-5.097c-0.866,-0.83 -1.658,-1.702 -2.383,-2.61l0,-4.542l0,0Zm4.578,-44.251c-0.518,0.17 -0.981,0.148 -1.387,-0.063c-0.406,-0.212 -0.69,-0.564 -0.85,-1.057c-0.157,-0.48 -0.133,-0.921 0.073,-1.326c0.205,-0.404 0.567,-0.69 1.085,-0.86c0.519,-0.169 0.974,-0.149 1.365,0.061c0.391,0.209 0.665,0.554 0.821,1.034c0.161,0.492 0.147,0.942 -0.044,1.348c-0.19,0.406 -0.544,0.694 -1.063,0.863Zm170.21,40.182c-0.757,-0.308 -1.257,-0.749 -1.499,-1.322c-0.242,-0.573 -0.209,-1.239 0.098,-1.996l6.426,-15.812c0.308,-0.757 0.748,-1.256 1.322,-1.498c0.573,-0.242 1.238,-0.21 1.995,0.098l10.163,4.13c0.583,0.236 0.963,0.566 1.142,0.99c0.178,0.423 0.153,0.916 -0.076,1.479c-0.236,0.582 -0.566,0.963 -0.989,1.141c-0.423,0.179 -0.926,0.15 -1.509,-0.087l-8.212,-3.337l-1.952,4.805l7.542,3.065c0.602,0.245 0.992,0.578 1.171,1.002c0.178,0.423 0.149,0.926 -0.087,1.508c-0.237,0.582 -0.567,0.963 -0.99,1.141c-0.423,0.179 -0.936,0.146 -1.538,-0.098l-7.542,-3.065l-2.082,5.125l8.212,3.337c0.582,0.237 0.963,0.567 1.141,0.99c0.179,0.423 0.154,0.916 -0.075,1.479c-0.237,0.582 -0.567,0.963 -0.99,1.142c-0.423,0.178 -0.926,0.149 -1.508,-0.088l-10.163,-4.129l-0,-0Zm-29.567,-122.29c-0.762,-0.007 -1.347,-0.224 -1.754,-0.65c-0.407,-0.425 -0.606,-1.039 -0.598,-1.842l0.17,-16.58c0.008,-0.783 0.225,-1.382 0.651,-1.799c0.425,-0.417 1.03,-0.622 1.812,-0.614l10.291,0.106c0.602,0.006 1.057,0.166 1.365,0.48c0.307,0.314 0.458,0.762 0.452,1.344c-0.006,0.602 -0.166,1.057 -0.48,1.364c-0.314,0.308 -0.772,0.459 -1.374,0.453l-8.065,-0.083l-0.053,5.176l7.403,0.076c0.602,0.006 1.061,0.166 1.379,0.481c0.318,0.314 0.474,0.762 0.468,1.344c-0.006,0.581 -0.171,1.031 -0.495,1.349c-0.325,0.318 -0.788,0.473 -1.389,0.467l-7.403,-0.076l-0.067,6.56c-0.017,1.645 -0.788,2.46 -2.313,2.444l0,0Zm115.736,10.204c-0.518,0.169 -0.981,0.148 -1.387,-0.064c-0.406,-0.212 -0.69,-0.564 -0.85,-1.057c-0.157,-0.479 -0.132,-0.921 0.073,-1.325c0.205,-0.404 0.567,-0.691 1.085,-0.86c0.519,-0.17 0.974,-0.149 1.365,0.06c0.391,0.21 0.665,0.554 0.821,1.034c0.161,0.492 0.147,0.942 -0.043,1.348c-0.191,0.407 -0.545,0.694 -1.064,0.864Zm-255.235,-26.981c-0.519,0.169 -0.981,0.147 -1.387,-0.064c-0.406,-0.212 -0.69,-0.564 -0.851,-1.057c-0.156,-0.479 -0.132,-0.921 0.073,-1.325c0.206,-0.405 0.568,-0.691 1.086,-0.86c0.519,-0.17 0.973,-0.15 1.365,0.06c0.391,0.209 0.665,0.554 0.821,1.034c0.161,0.492 0.146,0.942 -0.044,1.348c-0.19,0.406 -0.544,0.694 -1.063,0.864l0,-0Zm100.792,123.762c-0.53,-0.13 -0.911,-0.393 -1.144,-0.788c-0.232,-0.394 -0.288,-0.837 -0.167,-1.326c0.124,-0.503 0.38,-0.872 0.768,-1.106c0.388,-0.235 0.847,-0.287 1.377,-0.156c0.529,0.131 0.904,0.389 1.126,0.774c0.22,0.384 0.269,0.828 0.145,1.331c-0.121,0.49 -0.37,0.857 -0.746,1.101c-0.377,0.244 -0.83,0.301 -1.359,0.17Zm-1.778,6.526c-0.423,-0.143 -0.744,-0.381 -0.964,-0.713c-0.256,-0.386 -0.318,-0.844 -0.188,-1.374c0.121,-0.49 0.373,-0.853 0.754,-1.089c0.381,-0.235 0.837,-0.288 1.366,-0.157c0.543,0.134 0.922,0.421 1.136,0.86c0.215,0.439 0.241,0.99 0.077,1.652c-0.085,0.344 -0.204,0.687 -0.359,1.028c-0.154,0.341 -0.373,0.687 -0.657,1.039c-0.283,0.351 -0.666,0.706 -1.148,1.065c-0.257,0.189 -0.503,0.272 -0.736,0.25c-0.233,-0.023 -0.415,-0.113 -0.544,-0.271c-0.129,-0.159 -0.177,-0.35 -0.143,-0.573c0.034,-0.224 0.188,-0.435 0.462,-0.634c0.383,-0.299 0.671,-0.614 0.866,-0.945c0.027,-0.047 0.053,-0.093 0.078,-0.138Zm62.224,-101.092c-0.4,-0.198 -0.687,-0.475 -0.862,-0.833c-0.203,-0.417 -0.205,-0.879 -0.006,-1.387c0.184,-0.47 0.48,-0.797 0.889,-0.981c0.409,-0.184 0.868,-0.176 1.376,0.023c0.52,0.204 0.858,0.538 1.014,1.001c0.155,0.464 0.108,1.013 -0.141,1.648c-0.129,0.33 -0.293,0.654 -0.49,0.972c-0.198,0.318 -0.46,0.633 -0.787,0.944c-0.327,0.311 -0.753,0.613 -1.278,0.906c-0.28,0.153 -0.534,0.204 -0.762,0.151c-0.228,-0.052 -0.397,-0.166 -0.504,-0.34c-0.108,-0.174 -0.13,-0.369 -0.067,-0.586c0.063,-0.217 0.243,-0.407 0.541,-0.568c0.419,-0.246 0.746,-0.521 0.982,-0.824c0.033,-0.042 0.065,-0.085 0.095,-0.126Zm-90.726,82.463c-1.304,-0.474 -2.323,-1.146 -3.055,-2.016c-0.733,-0.869 -1.173,-1.876 -1.32,-3.021c-0.146,-1.146 0.019,-2.374 0.497,-3.687c0.357,-0.982 0.819,-1.815 1.386,-2.5c0.566,-0.684 1.22,-1.21 1.962,-1.576c0.743,-0.366 1.556,-0.562 2.44,-0.589c0.884,-0.026 1.812,0.138 2.784,0.492c0.572,0.208 1.126,0.493 1.661,0.855c0.535,0.362 0.971,0.759 1.306,1.189c0.226,0.27 0.345,0.547 0.358,0.833c0.012,0.286 -0.047,0.546 -0.177,0.78c-0.131,0.233 -0.305,0.411 -0.524,0.532c-0.22,0.121 -0.452,0.164 -0.698,0.128c-0.246,-0.036 -0.484,-0.183 -0.714,-0.441c-0.266,-0.338 -0.57,-0.622 -0.913,-0.854c-0.343,-0.232 -0.709,-0.419 -1.098,-0.561c-0.766,-0.279 -1.467,-0.356 -2.101,-0.232c-0.635,0.124 -1.191,0.434 -1.669,0.929c-0.479,0.496 -0.875,1.175 -1.189,2.039c-0.31,0.851 -0.443,1.627 -0.4,2.326c0.044,0.699 0.269,1.299 0.675,1.802c0.406,0.503 0.993,0.894 1.759,1.173c0.366,0.133 0.758,0.222 1.176,0.267c0.417,0.045 0.84,0.032 1.268,-0.04c0.353,-0.046 0.639,-0.006 0.859,0.121c0.219,0.127 0.375,0.304 0.467,0.532c0.092,0.228 0.115,0.467 0.069,0.718c-0.046,0.251 -0.158,0.478 -0.336,0.682c-0.177,0.203 -0.422,0.342 -0.734,0.416c-0.531,0.141 -1.135,0.182 -1.813,0.123c-0.678,-0.059 -1.32,-0.199 -1.926,-0.42Zm64.433,-7.911c-0.778,-0.25 -1.308,-0.652 -1.593,-1.205c-0.284,-0.553 -0.301,-1.219 -0.05,-1.997l5.225,-16.24c0.25,-0.777 0.652,-1.308 1.205,-1.592c0.553,-0.284 1.219,-0.301 1.997,-0.051l5.832,1.877c3.609,1.161 6.101,2.969 7.478,5.425c1.377,2.457 1.524,5.37 0.44,8.739c-0.546,1.695 -1.282,3.114 -2.211,4.256c-0.929,1.142 -2.016,2.008 -3.262,2.598c-1.245,0.589 -2.641,0.893 -4.188,0.913c-1.546,0.019 -3.227,-0.263 -5.041,-0.846l-5.832,-1.877l-0,0Zm3.435,-3.086l3.35,1.078c1.136,0.366 2.168,0.543 3.095,0.534c0.927,-0.01 1.76,-0.204 2.498,-0.583c0.738,-0.378 1.383,-0.947 1.934,-1.704c0.552,-0.758 1.011,-1.705 1.377,-2.841c0.731,-2.273 0.711,-4.144 -0.059,-5.613c-0.771,-1.469 -2.273,-2.563 -4.506,-3.282l-3.349,-1.077l-4.34,13.488Zm-11.933,55.309c-0.504,0.119 -0.922,0.07 -1.253,-0.146c-0.331,-0.216 -0.556,-0.577 -0.675,-1.081l-2.64,-11.21c-0.119,-0.504 -0.078,-0.927 0.121,-1.269c0.2,-0.341 0.552,-0.571 1.057,-0.69c0.491,-0.115 0.902,-0.065 1.233,0.151c0.331,0.216 0.556,0.577 0.675,1.081l0.994,4.221l6.531,-1.538l-0.994,-4.221c-0.119,-0.504 -0.078,-0.927 0.121,-1.269c0.2,-0.341 0.546,-0.569 1.037,-0.685c0.504,-0.119 0.922,-0.07 1.253,0.146c0.331,0.216 0.556,0.577 0.675,1.081l2.64,11.21c0.119,0.505 0.079,0.927 -0.121,1.269c-0.2,0.341 -0.552,0.571 -1.057,0.69c-0.491,0.115 -0.902,0.065 -1.233,-0.151c-0.331,-0.216 -0.556,-0.576 -0.675,-1.081l-1.041,-4.42l-6.531,1.538l1.041,4.42c0.119,0.505 0.082,0.927 -0.111,1.266c-0.194,0.34 -0.542,0.569 -1.047,0.688Zm116.611,-88.838c-2.612,1.218 -5.686,1.819 -8.927,1.58c-8.87,-0.655 -15.5,-7.335 -14.952,-14.748c0.547,-7.414 8.087,-13.047 16.956,-12.392c8.869,0.655 15.499,7.335 14.952,14.748c-0.184,2.488 -1.141,4.766 -2.673,6.678l1.679,5.446c0.175,0.566 -0.018,1.181 -0.485,1.547c-0.466,0.366 -1.11,0.406 -1.618,0.101c-0,-0 -3.966,-2.38 -4.932,-2.96l0,0Zm2.698,-5.425c1.415,-1.559 2.321,-3.476 2.477,-5.597c0.443,-5.991 -5.142,-11.155 -12.309,-11.684c-7.167,-0.53 -13.449,3.757 -13.892,9.749c-0.442,5.99 5.142,11.154 12.309,11.683c2.981,0.22 5.795,-0.393 8.113,-1.62c0.442,-0.234 0.975,-0.219 1.405,0.038l2.399,1.44l-0.81,-2.626c-0.149,-0.483 -0.032,-1.009 0.308,-1.383l-0,-0Zm-237.427,77.119l-1.505,4.365c-0.37,1.061 -0.782,1.836 -1.236,2.326c-0.454,0.49 -1.152,0.768 -2.093,0.833c-0.824,0.057 -1.506,-0.089 -2.048,-0.436c-0.541,-0.347 -0.9,-0.84 -1.078,-1.479c-0.177,-0.638 -0.101,-1.369 0.226,-2.19l9.586,-25.561c0.402,-1.033 0.91,-1.801 1.526,-2.302c0.616,-0.501 1.35,-0.781 2.203,-0.84c0.853,-0.059 1.62,0.117 2.298,0.529c0.679,0.412 1.274,1.103 1.784,2.074l13.098,23.993c0.438,0.769 0.627,1.488 0.57,2.158c-0.057,0.67 -0.323,1.206 -0.798,1.608c-0.474,0.403 -1.109,0.632 -1.903,0.687c-1.001,0.069 -1.789,-0.113 -2.366,-0.547c-0.577,-0.433 -1.106,-1.137 -1.587,-2.11l-2.122,-4.114l-14.555,1.006l0,-0Zm1.909,-5.502l9.98,-0.69l-5.777,-11.406l-0.088,0.006l-4.115,12.09Zm175.375,-104.708c-2.427,-3.909 -3.654,-8.38 -3.311,-13.035c0.986,-13.35 14.648,-23.377 30.62,-22.198c15.971,1.18 28.012,13.105 27.026,26.455c-0.986,13.35 -14.648,23.377 -30.619,22.198c-6.136,-0.453 -11.703,-2.494 -16.164,-5.588l-10.65,4.416c-0.547,0.227 -1.178,0.093 -1.586,-0.338c-0.408,-0.43 -0.508,-1.067 -0.252,-1.602l4.936,-10.308l-0,-0Zm2.925,0.514l-3.667,7.659l7.932,-3.287c0.462,-0.192 0.991,-0.128 1.395,0.168c4.163,3.061 9.468,5.079 15.341,5.512c14.27,1.054 26.674,-7.627 27.556,-19.555c0.881,-11.927 -10.114,-22.336 -24.384,-23.39c-14.269,-1.054 -26.674,7.627 -27.555,19.554c-0.317,4.288 0.916,8.39 3.281,11.926c0.281,0.42 0.32,0.957 0.101,1.413l0,0Zm-178.101,-20.081c-0.54,-1.654 -1.151,-3.561 -1.289,-4.018c-0.063,-0.206 -0.08,-0.33 -0.083,-0.351c-0.094,-0.733 0.275,-1.102 0.381,-1.219c0.403,-0.448 0.901,-0.607 1.496,-0.463c2.592,0.629 5.532,0.716 8.239,0.376c5.414,-0.679 8.38,-2.04 13.056,-2.948c11.055,-2.146 18.968,1.29 23.098,5.588c1.278,1.33 2.204,2.754 2.777,4.145c0.439,-1.88 1.275,-3.521 2.441,-4.962c8.174,-10.101 26.249,-11.09 39.578,-16.368c0.259,-0.107 0.54,-0.133 0.809,-0.08c0.128,0.018 0.256,0.052 0.382,0.105l6.498,2.737l4.156,-1.718c0.477,-0.198 1.017,-0.174 1.474,0.064c0.458,0.238 0.788,0.667 0.9,1.171l15.615,70.082c0.185,0.829 -0.253,1.671 -1.038,1.995l-49.363,20.415c-0.093,0.038 -0.189,0.068 -0.287,0.09l-11.281,2.514c-0.099,0.022 -0.199,0.035 -0.299,0.04l-53.36,2.473c-0.849,0.04 -1.603,-0.537 -1.787,-1.365l-15.616,-70.083c-0.112,-0.503 0.004,-1.031 0.318,-1.441c0.313,-0.41 0.792,-0.661 1.308,-0.685l4.492,-0.208l4.722,-5.237c0.091,-0.101 0.192,-0.187 0.301,-0.258c0.221,-0.162 0.486,-0.257 0.766,-0.27c0.528,-0.033 1.061,-0.073 1.596,-0.121l-0,-0l-0,-0Zm43.284,3.193c-0.784,-0.897 -1.782,-1.613 -3.025,-2.199c-12.037,-5.671 -27.192,1.124 -40.822,1.892l-2.524,2.801l44.418,-2.059l1.953,-0.435Zm-0.823,-4.347c-0.442,-0.435 -0.931,-0.858 -1.466,-1.262c-3.928,-2.966 -10.268,-4.824 -18.612,-3.204c-4.748,0.922 -7.761,2.29 -13.258,2.98c-2.198,0.276 -4.531,0.298 -6.758,0.026c0.24,0.744 0.504,1.555 0.738,2.268c13.164,-1.73 27.652,-6.58 38.082,-1.517c0.44,0.214 0.865,0.45 1.274,0.709l-0,-0Zm27.252,71.679l46.083,-19.058l-14.843,-66.619l-46.084,19.059l14.844,66.618l-0,0l-0,0Zm-14.693,3.274l-14.843,-66.619l-49.816,2.309l14.844,66.619l49.815,-2.309l0,-0Zm-4.657,-72.184l1.953,-0.435l41.091,-16.993l-3.475,-1.464c-12.666,5.091 -29.273,5.372 -37.763,15.617c-0.877,1.058 -1.477,2.13 -1.806,3.275l0,0Zm8.142,71.748l7.868,-1.753l-14.855,-66.67l-7.868,1.753l14.855,66.67l-0,-0Zm-2.848,64.602c0.745,0.119 1.375,0.405 1.891,0.857c0.653,0.574 1.062,1.388 1.227,2.441c0.219,1.394 -0.052,2.55 -0.812,3.467c-0.761,0.917 -1.914,1.497 -3.462,1.74l-5.151,0.807c-0.53,0.083 -0.961,-0.009 -1.295,-0.276c-0.334,-0.267 -0.547,-0.689 -0.637,-1.268l-1.894,-12.082c-0.09,-0.578 -0.018,-1.046 0.219,-1.402c0.236,-0.356 0.619,-0.576 1.148,-0.659l4.928,-0.772c1.018,-0.159 1.912,-0.132 2.683,0.081c0.77,0.214 1.39,0.595 1.858,1.145c0.469,0.55 0.77,1.247 0.902,2.093c0.147,0.934 0.026,1.766 -0.36,2.496c-0.291,0.55 -0.706,0.994 -1.245,1.332Zm-5.344,6.539l3.359,-0.526c0.815,-0.128 1.385,-0.396 1.71,-0.804c0.326,-0.408 0.435,-0.953 0.328,-1.636c-0.107,-0.682 -0.377,-1.164 -0.811,-1.446c-0.433,-0.281 -1.057,-0.358 -1.872,-0.231l-3.359,0.527l0.645,4.116Zm-1.046,-6.675l3.013,-0.472c0.787,-0.124 1.346,-0.378 1.674,-0.764c0.329,-0.386 0.443,-0.905 0.34,-1.558c-0.099,-0.638 -0.365,-1.09 -0.796,-1.357c-0.432,-0.267 -1.041,-0.338 -1.828,-0.215l-3.014,0.472l0.611,3.894l-0,0Zm178.827,-1.629l0.165,-1.5l-0.977,-0.107c-0.217,-0.024 -0.377,-0.096 -0.481,-0.218c-0.104,-0.121 -0.146,-0.275 -0.125,-0.463c0.021,-0.196 0.096,-0.34 0.223,-0.432c0.127,-0.092 0.299,-0.126 0.517,-0.102l1.703,0.186c0.217,0.024 0.375,0.1 0.475,0.228c0.099,0.128 0.137,0.301 0.113,0.518l-0.276,2.517c-0.021,0.188 -0.074,0.344 -0.161,0.466c-0.087,0.122 -0.22,0.203 -0.4,0.242c-0.338,0.079 -0.714,0.133 -1.127,0.161c-0.413,0.028 -0.818,0.02 -1.216,-0.023c-0.861,-0.095 -1.572,-0.337 -2.133,-0.728c-0.561,-0.391 -0.965,-0.897 -1.212,-1.517c-0.246,-0.62 -0.327,-1.324 -0.24,-2.113c0.067,-0.607 0.219,-1.145 0.457,-1.613c0.238,-0.469 0.551,-0.855 0.94,-1.16c0.388,-0.305 0.844,-0.524 1.368,-0.657c0.523,-0.133 1.103,-0.165 1.74,-0.095c0.39,0.043 0.776,0.129 1.157,0.259c0.381,0.129 0.742,0.316 1.081,0.558c0.142,0.103 0.233,0.225 0.273,0.365c0.04,0.139 0.039,0.282 -0.003,0.428c-0.042,0.145 -0.114,0.269 -0.216,0.371c-0.103,0.102 -0.227,0.162 -0.372,0.179c-0.144,0.017 -0.302,-0.027 -0.473,-0.134c-0.225,-0.157 -0.467,-0.28 -0.728,-0.371c-0.261,-0.091 -0.551,-0.154 -0.869,-0.189c-0.514,-0.056 -0.955,-0.007 -1.323,0.146c-0.368,0.154 -0.658,0.407 -0.869,0.761c-0.211,0.354 -0.346,0.802 -0.405,1.345c-0.09,0.818 0.039,1.458 0.387,1.92c0.349,0.463 0.91,0.737 1.684,0.822c0.26,0.029 0.531,0.032 0.811,0.012c0.171,-0.012 0.342,-0.033 0.512,-0.062Zm6.38,-41.507c-2.78,7.841 -5.349,16.162 -10.206,23.827c-0.844,1.332 -2.121,2.722 -4.646,3.763c-4.503,1.857 -10.049,2.206 -15.405,3.259c-2.587,3.986 -4.977,7.95 -7.058,11.786c-0.13,0.243 -0.416,0.358 -0.679,0.273c-0.262,-0.086 -0.426,-0.347 -0.388,-0.621c0.09,-0.644 0.145,-1.303 0.172,-2.082c0.044,-1.239 0.069,-2.525 0.656,-3.483c1.684,-2.747 3.401,-5.386 5.148,-7.931c6.416,-9.097 13.219,-17.251 19.97,-25.533c-7.022,7.403 -14.146,14.686 -20.251,23.151c-0.356,-3.259 -0.62,-6.635 -0.631,-8.556c-0.012,-2.141 0.881,-3.803 1.974,-5.029c3.008,-3.375 6.111,-6.447 9.297,-9.251c1.303,0.938 3.716,1.251 3.716,1.251c-0,0 -0.546,-1.718 -1.258,-3.348c8.21,-6.79 16.941,-11.905 26.012,-15.927c-1.896,3.093 -3.402,6.444 -4.761,9.943l-1.578,0.475l1.102,0.772c-0.085,0.226 -0.169,0.453 -0.253,0.679l-4.471,0.283l3.538,2.299l-0,0Z" style="fill:#980d00;fill-opacity:0.5;"/></g></g><defs><radialGradient id="_Radial1" cx="0" cy="0" r="1" gradientUnits="userSpaceOnUse" gradientTransform="matrix(8.11621e-15,132.548,-132.548,8.11621e-15,132.498,87.3299)"><stop offset="0" style="stop-color:#f05546;stop-opacity:1"/><stop offset="0.44" style="stop-color:#e64131;stop-opacity:1"/><stop offset="1" style="stop-color:#d01402;stop-opacity:1"/></radialGradient></defs></svg>