<?xml version="1.0" encoding="UTF-8" standalone="no"?>
<!DOCTYPE svg PUBLIC "-//W3C//DTD SVG 1.1//EN" "http://www.w3.org/Graphics/SVG/1.1/DTD/svg11.dtd">
<svg width="100%" height="100%" viewBox="0 0 300 345" version="1.1" xmlns="http://www.w3.org/2000/svg" xmlns:xlink="http://www.w3.org/1999/xlink" xml:space="preserve" xmlns:serif="http://www.serif.com/" style="fill-rule:evenodd;clip-rule:evenodd;stroke-linejoin:round;stroke-miterlimit:2;">
    <g>
        <g>
            <g>
                <g transform="matrix(0.821138,-0.117275,0.117275,0.821138,18.9672,48.9077)">
                    <path d="M200.047,140.983C200.885,157.286 208.29,162.46 223.848,159.481C237.621,156.843 249.498,145.377 266.763,153.49C263.273,146.227 256.605,137.805 247.525,135.803C239.864,134.115 230.206,138.131 220.271,140.736C211.408,143.061 206.239,144.619 200.047,140.983Z"/>
                </g>
                <g transform="matrix(0.821138,-0.117275,0.117275,0.821138,18.9672,48.9077)">
                    <path d="M208.24,158.599C225.181,154.681 227.974,142.797 236.364,136.289C239.094,135.7 241.712,135.343 244.172,135.409C233.169,140.433 233.803,153.018 221.734,159.843C216.091,160.687 211.623,160.328 208.24,158.599ZM236.523,155.249C241.088,148.043 250.136,144.779 255.985,139.822C256.643,140.317 257.281,140.843 257.896,141.395C254.55,145.332 249.944,148.433 245.864,151.898C242.67,152.778 239.586,154.01 236.523,155.249Z" style="fill:#383838;"/>
                </g>
            </g>
            <g transform="matrix(-1,0,0,1,300,0)">
                <g transform="matrix(0.821138,-0.117275,0.117275,0.821138,18.9672,48.9077)">
                    <path d="M200.047,140.983C200.885,157.286 208.29,162.46 223.848,159.481C237.621,156.843 249.498,145.377 266.763,153.49C263.273,146.227 256.605,137.805 247.525,135.803C239.864,134.115 230.206,138.131 220.271,140.736C211.408,143.061 206.239,144.619 200.047,140.983Z"/>
                </g>
                <g transform="matrix(0.821138,-0.117275,0.117275,0.821138,18.9672,48.9077)">
                    <path d="M208.24,158.599C225.181,154.681 227.974,142.797 236.364,136.289C239.094,135.7 241.712,135.343 244.172,135.409C233.169,140.433 233.803,153.018 221.734,159.843C216.091,160.687 211.623,160.328 208.24,158.599ZM236.523,155.249C241.088,148.043 250.136,144.779 255.985,139.822C256.643,140.317 257.281,140.843 257.896,141.395C254.55,145.332 249.944,148.433 245.864,151.898C242.67,152.778 239.586,154.01 236.523,155.249Z" style="fill:#383838;"/>
                </g>
            </g>
        </g>
    </g>
</svg>
