<?xml version="1.0" encoding="UTF-8" standalone="no"?><!DOCTYPE svg PUBLIC "-//W3C//DTD SVG 1.1//EN" "http://www.w3.org/Graphics/SVG/1.1/DTD/svg11.dtd"><svg width="100%" height="100%" viewBox="0 0 1250 1438" version="1.1" xmlns="http://www.w3.org/2000/svg" xmlns:xlink="http://www.w3.org/1999/xlink" xml:space="preserve" xmlns:serif="http://www.serif.com/" style="fill-rule:evenodd;clip-rule:evenodd;stroke-linejoin:round;stroke-miterlimit:2;"><g id="saint_patricks_v1"><path d="M282.767,610.296c-27.64,5.589 -70.411,15.39 -103.143,12.698c-20.59,-1.693 -37.433,-16.685 -37.433,-37.237c-0,-19.689 15.394,-35.829 34.852,-37.15c7.642,-17.571 25.232,-29.878 45.688,-29.878c0.882,0 1.759,0.023 2.63,0.068c8.658,-14.591 24.628,-24.388 42.879,-24.388c10.688,0 20.594,3.36 28.708,9.075c6.464,-3.056 13.692,-4.768 21.32,-4.768c27.461,0 49.755,22.178 49.755,49.494c0,0.774 -0.018,1.544 -0.054,2.309c1.638,28.861 -35.552,49.736 -85.202,59.777Zm684.466,-0c-49.65,-10.041 -86.84,-30.916 -85.202,-59.777c-0.036,-0.765 -0.054,-1.535 -0.054,-2.309c-0,-27.316 22.294,-49.494 49.755,-49.494c7.628,0 14.856,1.712 21.32,4.768c8.114,-5.715 18.02,-9.075 28.708,-9.075c18.251,0 34.221,9.797 42.879,24.388c0.871,-0.045 1.748,-0.068 2.63,-0.068c20.456,0 38.046,12.307 45.688,29.878c19.458,1.321 34.852,17.461 34.852,37.15c0,20.552 -16.843,35.544 -37.433,37.237c-32.732,2.692 -75.503,-7.109 -103.143,-12.698Z" style="fill:#3f1c12;"/></g></svg>