<?xml version="1.0" encoding="UTF-8" standalone="no"?>
<!DOCTYPE svg PUBLIC "-//W3C//DTD SVG 1.1//EN" "http://www.w3.org/Graphics/SVG/1.1/DTD/svg11.dtd">
<svg width="100%" height="100%" viewBox="0 0 300 345" version="1.1" xmlns="http://www.w3.org/2000/svg" xmlns:xlink="http://www.w3.org/1999/xlink" xml:space="preserve" xmlns:serif="http://www.serif.com/" style="fill-rule:evenodd;clip-rule:evenodd;stroke-linejoin:round;stroke-miterlimit:2;">
    <g>
        <g>
            <path d="M242.58,153.49C262.697,153.49 279.03,169.823 279.03,189.94C279.03,210.057 262.697,226.39 242.58,226.39C222.463,226.39 206.13,210.057 206.13,189.94C206.13,169.823 222.463,153.49 242.58,153.49ZM57.43,153.49C77.547,153.49 93.88,169.823 93.88,189.94C93.88,210.057 77.547,226.39 57.43,226.39C37.312,226.39 20.98,210.057 20.98,189.94C20.98,169.823 37.312,153.49 57.43,153.49Z" style="fill:#fabc2e;"/>
            <path d="M242.58,163.61C262.697,163.61 279.03,179.943 279.03,200.06C279.03,220.177 262.697,236.51 242.58,236.51C222.463,236.51 206.13,220.177 206.13,200.06C206.13,179.943 222.463,163.61 242.58,163.61ZM57.43,163.61C77.547,163.61 93.88,179.943 93.88,200.06C93.88,220.177 77.547,236.51 57.43,236.51C37.312,236.51 20.98,220.177 20.98,200.06C20.98,179.943 37.312,163.61 57.43,163.61Z" style="fill:#fff;"/>
            <path d="M255.63,194.64L255.63,194.63C255.996,196.272 256.18,197.948 256.18,199.63C256.18,212.247 245.797,222.63 233.18,222.63C220.563,222.63 210.18,212.247 210.18,199.63C210.18,187.012 220.563,176.63 233.18,176.63C233.2,176.63 233.22,176.63 233.24,176.63C234.351,176.634 235.46,176.714 236.56,176.87C235.142,179.027 234.385,181.553 234.385,184.134C234.385,191.386 240.353,197.354 247.605,197.354C250.505,197.354 253.326,196.4 255.63,194.64ZM44.38,194.64C46.684,196.4 49.504,197.354 52.404,197.354C59.656,197.354 65.624,191.386 65.624,184.134C65.624,181.553 64.868,179.027 63.45,176.87C64.549,176.714 65.659,176.634 66.77,176.63C66.79,176.63 66.81,176.63 66.83,176.63C79.447,176.63 89.83,187.012 89.83,199.63C89.83,212.247 79.447,222.63 66.83,222.63C54.212,222.63 43.83,212.247 43.83,199.63C43.83,197.948 44.014,196.272 44.38,194.63L44.38,194.64Z" style="fill:#141319;"/>
            <path d="M273.478,180.725L206.13,200.06C206.13,179.943 222.463,163.61 242.58,163.61C255.596,163.61 267.028,170.447 273.478,180.725ZM26.532,180.725C32.982,170.447 44.414,163.61 57.43,163.61C77.547,163.61 93.88,179.943 93.88,200.06L26.532,180.725Z" style="fill:#cd8e2a;"/>
            <g transform="matrix(0.97113,0,0,0.97113,8.05568,10.0903)">
                <path d="M278.964,197.855C279.008,198.584 279.03,199.32 279.03,200.06C279.03,220.177 262.697,236.51 242.58,236.51C227.714,236.51 214.915,227.592 209.246,214.818C215.799,225.794 227.795,233.151 241.496,233.151C261.461,233.151 277.805,217.53 278.964,197.855ZM13.374,197.855C14.533,217.53 30.878,233.151 50.842,233.151C64.543,233.151 76.539,225.794 83.092,214.818C77.423,227.592 64.624,236.51 49.758,236.51C29.641,236.51 13.308,220.177 13.308,200.06C13.308,199.32 13.33,198.584 13.374,197.855Z"/>
            </g>
        </g>
    </g>
</svg>
