<?xml version="1.0" encoding="UTF-8" standalone="no"?><!DOCTYPE svg PUBLIC "-//W3C//DTD SVG 1.1//EN" "http://www.w3.org/Graphics/SVG/1.1/DTD/svg11.dtd"><svg width="100%" height="100%" viewBox="0 0 300 345" version="1.1" xmlns="http://www.w3.org/2000/svg" xmlns:xlink="http://www.w3.org/1999/xlink" xml:space="preserve" xmlns:serif="http://www.serif.com/" style="fill-rule:evenodd;clip-rule:evenodd;stroke-linejoin:round;stroke-miterlimit:2;"><g id="Crying"><g id="CryingEyes"><g><path d="M201.259,298.39l62.371,0c4.859,0 9.496,-0.954 13.735,-2.686c1.471,-6.774 -0.686,-11.288 -2.665,-16.271c-0.801,-2.017 -1.245,-4.164 -0.612,-5.505c3.544,-7.495 3.278,-14.51 1.923,-19.137c-1.224,-4.177 -1.2,-8.132 -1.316,-11.523l1.228,-36.729l-68.945,-3.915l0,38.099c0.218,7.369 -1.217,11.169 -2.534,16.078c-1.198,4.463 -0.899,10.186 1.687,14.943c1.629,2.996 1.963,5.827 -0.988,9.699c-2.419,3.174 -4.36,6.121 -4.806,10.923c-0.205,2.209 0.202,4.193 0.922,6.024Z" style="fill:#74c6eb;"/><path d="M204.785,268.604c0.35,1.076 0.796,2.13 1.346,3.14c1.629,2.996 1.963,5.827 -0.988,9.699c-2.419,3.174 -4.36,6.121 -4.806,10.923c-0.205,2.209 0.202,4.193 0.922,6.024l62.371,0c4.859,0 9.496,-0.954 13.735,-2.686c1.471,-6.774 -0.686,-11.288 -2.665,-16.271c-0.801,-2.017 -1.245,-4.164 -0.612,-5.505c0.8,-1.691 1.406,-3.358 1.849,-4.978c-1.644,3.347 -3.193,4.511 -3.943,5.636c-1.393,2.09 -5.698,3.191 -9.787,0.466c-2.88,-1.921 -10.068,-2.889 -13.049,-1.399c-7.681,3.841 -13.288,15.909 -33.788,4.195c-4.803,-2.745 -8.203,-6.365 -10.585,-9.244Zm69.918,-25.095c-0.003,-0.081 -0.006,-0.161 -0.008,-0.241l1.228,-36.729l-68.945,-3.915l0,30.327c0.942,2.23 2.64,4.96 5.712,7.264c4.11,3.082 12.133,-3.679 20.273,1.748c1.213,0.808 5.468,4.454 5.709,4.776c4.865,6.487 12.927,0.518 16.778,-0.582c1.948,-0.557 6.169,0.967 6.641,1.282c4.219,2.812 9.615,0.988 12.612,-3.93Z" style="fill:#4daeda;"/><path d="M265.215,298.356c4.283,-0.184 8.374,-1.11 12.15,-2.652c1.471,-6.774 -0.686,-11.288 -2.665,-16.271c-0.801,-2.017 -1.245,-4.164 -0.612,-5.505c3.544,-7.495 3.278,-14.51 1.923,-19.137c-1.224,-4.177 -1.2,-8.132 -1.316,-11.523l1.228,-36.729l-12.673,-0.719c0.849,10.371 4.636,31.305 1.237,41.502c-3.791,11.371 1.803,17.289 3.262,24.584c1.895,9.476 -3.8,10.182 -2.796,24.234c0.06,0.843 0.151,1.577 0.262,2.216Zm-47.332,-95.113l-10.905,-0.619l0,38.099c0.218,7.369 -1.217,11.169 -2.534,16.078c-1.198,4.463 -0.899,10.186 1.687,14.943c1.629,2.996 1.963,5.827 -0.988,9.699c-2.419,3.174 -4.36,6.121 -4.806,10.923c-0.205,2.209 0.202,4.193 0.922,6.024l15.538,0c0.113,-3.292 0.741,-7.21 2.716,-10.173c5.449,-8.173 -1.74,-21.829 -1.864,-24.933c-0.468,-11.699 3.962,-11.285 3.962,-30.526c-0,-17.02 -2.785,-24.856 -3.728,-29.515Z" style="fill:#2583ad;fill-opacity:0.25;"/><path d="M229.839,298.39l13.88,0c1.113,-4.359 1.192,-4.455 1.31,-5.046c1.879,-9.394 -1.397,-17.815 -1.98,-23.069c-1.751,-15.752 6.274,-16.599 4.544,-33.905c-0.795,-7.946 -0.933,-7.928 -0.933,-8.622c0,-7.236 -1.885,-16.693 -1.531,-22.958l-12.632,-0.717c3.888,19.494 5.668,26.23 3.095,38.239c-2.483,11.586 -1.398,11.682 -1.398,23.535c-0,10.29 3.364,10.977 -1.748,19.924c-2.192,3.835 -2.745,9.11 -2.607,12.619Z" style="fill:#bdebff;fill-opacity:0.15;"/><path d="M283.859,292.245c3.356,-10.203 -3.133,-10.092 -12.755,-1.206c-4.429,-13.826 -9.116,-16.235 -14.244,0.699c-3.973,-5.355 -5.871,-5.247 -5.417,1.049c-6.399,-11.387 -11.748,-11.653 -15.817,1.66c-2.804,-5.932 -6.546,-6.447 -11.447,-0.262c-4.651,-9.381 -12.567,-12.508 -14.318,-11.166c-1.383,1.059 -1.018,3.791 1.91,8.807c-3.989,-2.95 -8.328,-5.159 -14.419,-3.67c-6.368,1.556 -4.827,5.455 0.462,10.234l65.816,0c7.484,0 14.443,-2.265 20.229,-6.145Zm4.896,-14.779c0.33,-4.12 -7.009,-4.167 -7.511,-0.393c-0.046,0.347 -0.349,2.625 3.158,3.024c0.905,0.103 4.227,-1.064 4.353,-2.631Zm-36.266,-14.138c-1.879,0.552 -4.841,3.396 -1.404,6.753c2.746,2.684 5.545,0.603 6.084,-1.706c0.917,-3.929 -3.301,-5.451 -4.68,-5.047Zm-57.995,11.565c-4.968,4.474 6.705,11.491 6.435,4.098c-0.047,-1.293 -1.216,-3.162 -2.367,-3.897c-1.088,-0.695 -3.133,-1.043 -4.068,-0.201Z" style="fill:#9cdcf9;"/><path d="M284.28,290.828c2.296,-8.755 -4.022,-8.243 -13.176,0.211c-4.429,-13.826 -9.116,-16.235 -14.244,0.699c-3.973,-5.355 -5.871,-5.247 -5.417,1.049c-6.399,-11.387 -11.748,-11.653 -15.817,1.66c-2.804,-5.932 -6.546,-6.447 -11.447,-0.262c-4.651,-9.381 -12.567,-12.508 -14.318,-11.166c-1.383,1.059 -1.018,3.791 1.91,8.807c-3.989,-2.95 -8.328,-5.159 -14.419,-3.67c-6.368,1.556 -4.827,5.455 0.462,10.234l0.018,-0c-4.249,-4.089 -6.172,-7.352 -0.48,-8.743c6.091,-1.488 12.673,1.818 16.662,4.768c-2.928,-5.016 -4.343,-8.559 -2.96,-9.618c1.751,-1.342 8.474,1.498 13.125,10.879c4.901,-6.184 8.643,-5.67 11.447,0.263c4.069,-13.314 9.991,-12.093 16.389,-0.706c-0.453,-6.296 0.872,-7.358 4.845,-2.003c5.128,-16.935 9.815,-14.525 14.244,-0.699c8.487,-7.838 14.24,-8.627 13.176,-1.703Zm4.369,-12.952c0.058,-0.133 0.095,-0.27 0.106,-0.41c0.33,-4.12 -7.009,-4.167 -7.511,-0.393c-0.018,0.138 -0.077,0.584 0.081,1.096c0.848,-3.032 6.441,-3.184 7.324,-0.293Zm-31.418,-9.807c0.635,-3.702 -3.399,-5.135 -4.742,-4.741c-1.414,0.415 -3.441,2.128 -2.894,4.381c0.374,-1.496 1.813,-2.572 2.894,-2.889c1.145,-0.336 4.246,0.655 4.742,3.249Zm-56.355,11.976c0.048,-0.312 0.067,-0.663 0.053,-1.054c-0.047,-1.293 -1.216,-3.162 -2.367,-3.897c-1.088,-0.695 -3.133,-1.043 -4.068,-0.201c-1.135,1.022 -1.401,2.176 -1.14,3.261c0.156,-0.607 0.517,-1.208 1.14,-1.769c0.935,-0.842 2.98,-0.494 4.068,0.2c1.026,0.656 2.067,2.214 2.314,3.46Z" style="fill:#bfebff;"/><path d="M206.978,210.467c3.592,16.353 18.177,28.607 35.603,28.607c14.54,-0 27.104,-8.533 32.952,-20.86l0.39,-11.675l-68.945,-3.915l0,7.843Z" style="fill:#006a9b;fill-opacity:0.25;"/><circle cx="242.581" cy="189.135" r="36.45" style="fill:#fabc2e;"/><circle cx="242.581" cy="199.255" r="36.45" style="fill:#fff;"/><path d="M210.74,193.835l0,-0.01c-0.365,1.642 -0.55,3.318 -0.55,5c0,12.618 10.383,23 23,23c12.618,0 23,-10.382 23,-23c0,-12.617 -10.382,-23 -23,-23c-0.02,0 -0.04,0 -0.06,0c-1.111,0.004 -2.22,0.084 -3.32,0.24c1.419,2.157 2.175,4.683 2.175,7.264c-0,7.253 -5.968,13.22 -13.22,13.22c-2.9,0 -5.72,-0.954 -8.025,-2.714Zm32.22,19.89l-0.01,0c-2.99,0 -5.45,-2.46 -5.45,-5.45l0,-0.01c0,-2.995 2.465,-5.46 5.46,-5.46c2.996,0 5.46,2.465 5.46,5.46c0,2.995 -2.464,5.46 -5.46,5.46Z" style="fill:#141319;"/><path d="M224.105,167.834c18.562,13.456 36.854,21.655 53.521,21.375c-4.366,-15.239 -18.412,-26.404 -35.045,-26.404c-6.741,-0 -13.057,1.834 -18.476,5.029Zm52.355,44.882c-21.593,-6.07 -47.647,1.691 -62.044,9.667c6.687,8.132 16.825,13.322 28.165,13.322c15.363,-0 28.52,-9.526 33.879,-22.989Z" style="fill:#cd8e2a;"/></g><g><path d="M98.751,298.39l-62.371,0c-4.858,0 -9.496,-0.954 -13.735,-2.686c-1.47,-6.774 0.686,-11.288 2.665,-16.271c0.802,-2.017 1.246,-4.164 0.612,-5.505c-3.544,-7.495 -3.278,-14.51 -1.923,-19.137c1.224,-4.177 1.2,-8.132 1.317,-11.523l-1.229,-36.729l68.945,-3.915l0,38.099c-0.217,7.369 1.217,11.169 2.534,16.078c1.198,4.463 0.9,10.186 -1.686,14.943c-1.63,2.996 -1.963,5.827 0.987,9.699c2.419,3.174 4.361,6.121 4.806,10.923c0.205,2.209 -0.202,4.193 -0.922,6.024Z" style="fill:#74c6eb;"/><path d="M95.225,268.604c-0.35,1.076 -0.796,2.13 -1.345,3.14c-1.63,2.996 -1.963,5.827 0.987,9.699c2.419,3.174 4.361,6.121 4.806,10.923c0.205,2.209 -0.202,4.193 -0.922,6.024l-62.371,0c-4.858,0 -9.496,-0.954 -13.735,-2.686c-1.47,-6.774 0.686,-11.288 2.665,-16.271c0.802,-2.017 1.246,-4.164 0.612,-5.505c-0.8,-1.691 -1.405,-3.358 -1.848,-4.978c1.643,3.347 3.192,4.511 3.942,5.636c1.394,2.09 5.699,3.191 9.787,0.466c2.88,-1.921 10.068,-2.889 13.049,-1.399c7.681,3.841 13.288,15.909 33.788,4.195c4.803,-2.745 8.203,-6.365 10.585,-9.244Zm-69.917,-25.095c0.002,-0.081 0.005,-0.161 0.008,-0.241l-1.229,-36.729l68.945,-3.915l0,30.327c-0.942,2.23 -2.64,4.96 -5.712,7.264c-4.11,3.082 -12.133,-3.679 -20.273,1.748c-1.213,0.808 -5.467,4.454 -5.709,4.776c-4.865,6.487 -12.927,0.518 -16.778,-0.582c-1.948,-0.557 -6.169,0.967 -6.641,1.282c-4.219,2.812 -9.615,0.988 -12.611,-3.93Z" style="fill:#4daeda;"/><path d="M34.795,298.356c-4.282,-0.184 -8.374,-1.11 -12.15,-2.652c-1.47,-6.774 0.686,-11.288 2.665,-16.271c0.802,-2.017 1.246,-4.164 0.612,-5.505c-3.544,-7.495 -3.278,-14.51 -1.923,-19.137c1.224,-4.177 1.2,-8.132 1.317,-11.523l-1.229,-36.729l12.673,-0.719c-0.849,10.371 -4.635,31.305 -1.236,41.502c3.79,11.371 -1.804,17.289 -3.263,24.584c-1.895,9.476 3.8,10.182 2.797,24.234c-0.061,0.843 -0.152,1.577 -0.263,2.216Zm47.332,-95.113l10.905,-0.619l0,38.099c-0.217,7.369 1.217,11.169 2.534,16.078c1.198,4.463 0.9,10.186 -1.686,14.943c-1.63,2.996 -1.963,5.827 0.987,9.699c2.419,3.174 4.361,6.121 4.806,10.923c0.205,2.209 -0.202,4.193 -0.922,6.024l-15.538,0c-0.113,-3.292 -0.741,-7.21 -2.716,-10.173c-5.449,-8.173 1.74,-21.829 1.864,-24.933c0.468,-11.699 -3.961,-11.285 -3.961,-30.526c-0,-17.02 2.784,-24.856 3.727,-29.515Z" style="fill:#2583ad;fill-opacity:0.25;"/><path d="M70.171,298.39l-13.88,0c-1.112,-4.359 -1.192,-4.455 -1.31,-5.046c-1.879,-9.394 1.397,-17.815 1.981,-23.069c1.75,-15.752 -6.275,-16.599 -4.544,-33.905c0.794,-7.946 0.932,-7.928 0.932,-8.622c-0,-7.236 1.885,-16.693 1.532,-22.958l12.631,-0.717c-3.888,19.494 -5.668,26.23 -3.095,38.239c2.483,11.586 1.398,11.682 1.398,23.535c0,10.29 -3.364,10.977 1.748,19.924c2.192,3.835 2.745,9.11 2.607,12.619Z" style="fill:#bdebff;fill-opacity:0.15;"/><path d="M16.151,292.245c-3.356,-10.203 3.133,-10.092 12.755,-1.206c4.429,-13.826 9.116,-16.235 14.244,0.699c3.974,-5.355 5.871,-5.247 5.418,1.049c6.398,-11.387 11.748,-11.653 15.816,1.66c2.804,-5.932 6.546,-6.447 11.447,-0.262c4.651,-9.381 12.567,-12.508 14.318,-11.166c1.383,1.059 1.018,3.791 -1.909,8.807c3.988,-2.95 8.327,-5.159 14.418,-3.67c6.369,1.556 4.827,5.455 -0.462,10.234l-65.816,0c-7.484,0 -14.443,-2.265 -20.229,-6.145Zm-4.896,-14.779c-0.33,-4.12 7.01,-4.167 7.511,-0.393c0.046,0.347 0.349,2.625 -3.157,3.024c-0.905,0.103 -4.228,-1.064 -4.354,-2.631Zm36.266,-14.138c1.88,0.552 4.841,3.396 1.405,6.753c-2.747,2.684 -5.546,0.603 -6.085,-1.706c-0.917,-3.929 3.301,-5.451 4.68,-5.047Zm57.995,11.565c4.968,4.474 -6.705,11.491 -6.435,4.098c0.048,-1.293 1.216,-3.162 2.368,-3.897c1.087,-0.695 3.133,-1.043 4.067,-0.201Z" style="fill:#9cdcf9;"/><path d="M15.731,290.828c-2.297,-8.755 4.021,-8.243 13.175,0.211c4.429,-13.826 9.116,-16.235 14.244,0.699c3.974,-5.355 5.871,-5.247 5.418,1.049c6.398,-11.387 11.748,-11.653 15.816,1.66c2.804,-5.932 6.546,-6.447 11.447,-0.262c4.651,-9.381 12.567,-12.508 14.318,-11.166c1.383,1.059 1.018,3.791 -1.909,8.807c3.988,-2.95 8.327,-5.159 14.418,-3.67c6.369,1.556 4.827,5.455 -0.462,10.234l-0.018,-0c4.249,-4.089 6.172,-7.352 0.48,-8.743c-6.091,-1.488 -12.673,1.818 -16.661,4.768c2.927,-5.016 4.342,-8.559 2.959,-9.618c-1.751,-1.342 -8.474,1.498 -13.125,10.879c-4.901,-6.184 -8.643,-5.67 -11.447,0.263c-4.068,-13.314 -9.99,-12.093 -16.389,-0.706c0.454,-6.296 -0.871,-7.358 -4.845,-2.003c-5.128,-16.935 -9.815,-14.525 -14.244,-0.699c-8.487,-7.838 -14.239,-8.627 -13.175,-1.703Zm-4.37,-12.952c-0.058,-0.133 -0.095,-0.27 -0.106,-0.41c-0.33,-4.12 7.01,-4.167 7.511,-0.393c0.018,0.138 0.078,0.584 -0.081,1.096c-0.848,-3.032 -6.441,-3.184 -7.324,-0.293Zm31.418,-9.807c-0.635,-3.702 3.399,-5.135 4.742,-4.741c1.414,0.415 3.441,2.128 2.894,4.381c-0.373,-1.496 -1.813,-2.572 -2.894,-2.889c-1.145,-0.336 -4.246,0.655 -4.742,3.249Zm56.355,11.976c-0.048,-0.312 -0.067,-0.663 -0.053,-1.054c0.048,-1.293 1.216,-3.162 2.368,-3.897c1.087,-0.695 3.133,-1.043 4.067,-0.201c1.135,1.022 1.401,2.176 1.141,3.261c-0.156,-0.607 -0.518,-1.208 -1.141,-1.769c-0.934,-0.842 -2.98,-0.494 -4.067,0.2c-1.027,0.656 -2.068,2.214 -2.315,3.46Z" style="fill:#bfebff;"/><path d="M93.032,210.467c-3.592,16.353 -18.177,28.607 -35.602,28.607c-14.541,-0 -27.105,-8.533 -32.953,-20.86l-0.39,-11.675l68.945,-3.915l0,7.843Z" style="fill:#006a9b;fill-opacity:0.25;"/><circle cx="57.43" cy="189.135" r="36.45" style="fill:#fabc2e;"/><circle cx="57.43" cy="199.255" r="36.45" style="fill:#fff;"/><path d="M89.27,193.835l-0,-0.01c0.366,1.642 0.55,3.318 0.55,5c-0,12.618 -10.383,23 -23,23c-12.617,0 -23,-10.382 -23,-23c-0,-12.617 10.383,-23 23,-23c0.02,0 0.04,0 0.06,0c1.111,0.004 2.22,0.084 3.32,0.24c-1.419,2.157 -2.175,4.683 -2.175,7.264c0,7.253 5.968,13.22 13.22,13.22c2.9,0 5.721,-0.954 8.025,-2.714Zm-32.22,19.89l0.01,0c2.99,0 5.45,-2.46 5.45,-5.45l-0,-0.01c-0,-2.995 -2.465,-5.46 -5.46,-5.46c-2.995,0 -5.46,2.465 -5.46,5.46c-0,2.995 2.465,5.46 5.46,5.46Z" style="fill:#141319;"/><path d="M75.905,167.834c-18.562,13.456 -36.854,21.655 -53.521,21.375c4.366,-15.239 18.412,-26.404 35.046,-26.404c6.74,-0 13.056,1.834 18.475,5.029Zm-52.355,44.882c21.593,-6.07 47.647,1.691 62.044,9.667c-6.687,8.132 -16.824,13.322 -28.164,13.322c-15.364,-0 -28.521,-9.526 -33.88,-22.989Z" style="fill:#cd8e2a;"/></g></g></g></svg>