<svg xmlns="http://www.w3.org/2000/svg" xmlns:xlink="http://www.w3.org/1999/xlink" viewBox="0 0 91.74596 68.29993"><defs><style>.cls-1{fill:url(#linear-gradient);}.cls-2{fill:#58241b;}.cls-3{fill:#793224;}.cls-4{fill:#eb472e;}.cls-5{fill:#471a15;}.cls-6{fill:#2b0e0c;}.cls-7{fill:#83392a;}.cls-8{fill:#5d261d;}.cls-9{fill:#ac3e2c;}.cls-10{fill:#9c4b3b;}.cls-11{fill:#7c372c;}.cls-12{fill:#af624e;}.cls-12,.cls-16{opacity:0.5;}.cls-13{fill:#c97c50;opacity:0.68;}.cls-14{fill:#c97263;}.cls-15{fill:#e29b5a;opacity:0.63;}.cls-16{fill:#7a382b;}.cls-17{fill:#7a3224;}.cls-18{fill:#ff5737;}.cls-19{fill:#ffb96d;}.cls-20{fill:#ff4e32;}</style><linearGradient id="linear-gradient" x1="1876.42423" y1="38.56144" x2="1876.42423" y2="66.65928" gradientTransform="matrix(1, 0, 0, -1, -1830.04953, 116.65737)" gradientUnits="userSpaceOnUse"><stop offset="0.4165" stop-color="#ffb269"/><stop offset="0.83542" stop-color="#ff4e32" stop-opacity="0"/></linearGradient></defs><g id="Layer_1" data-name="Layer 1"><rect class="cls-1" x="23.1668" y="48.35745" width="46.41581" height="19.94248" transform="translate(92.74941 116.65737) rotate(-180)"/><ellipse class="cls-2" cx="83.36462" cy="41.11785" rx="4.19855" ry="2.99709"/><ellipse class="cls-2" cx="86.6291" cy="51.96111" rx="5.11686" ry="3.65261"/><polygon class="cls-3" points="85.146 41.324 84.931 37.329 80.085 30.983 73.714 28.891 67.185 28.673 65.771 30.178 65.363 34.44 69.669 34.209 74.23 35.293 78.739 39.394 80.124 41.594 82.864 42.771 85.146 41.324"/><path class="cls-4" d="M74.68544,30.63216s-4.31872-.916-5.43468-.31788-1.7447.72973-1.85316,3.1443l-1.69592.91476-.47684-2.50485,1.75523-3.08259,6.11749-.32873,2.49228.97829Z"/><path class="cls-4" d="M81.03083,34.67525c-1.311-1.03127-2.52026-2.28489-3.87263-2.62376a4.16116,4.16116,0,0,0-2.86274,1.86005L73.921,32.43127l2.82705-2.8069,4.07364,2.36432S82.67692,34.06016,81.03083,34.67525Z"/><path class="cls-4" d="M84.315,42.14847s1.02543-1.82863-2.074-4.80653a19.55309,19.55309,0,0,1-3.53706.70179l-.8262-.44633L82.311,34.18054l1.57527,1.78015,1.40278,3.39173A1.7132,1.7132,0,0,1,84.315,42.14847Z"/><path class="cls-2" d="M64.68358,35.00163a.71706.71706,0,0,0,.97026.55714,10.15146,10.15146,0,0,1,7.22191-.02574l.209.09439a11.231,11.231,0,0,1,3.70319,2.65912,17.98065,17.98065,0,0,1,2.7519,3.91071,2.05656,2.05656,0,0,0,1.61555,1.30924,4.58534,4.58534,0,0,0,1.3354.118,4.15353,4.15353,0,0,0,3.053-1.44129c.65743-.83287,1.17715-2.33558-.081-4.76571a21.42012,21.42012,0,0,0-2.78052-4.38886,13.60089,13.60089,0,0,0-5.33188-3.93978,22.17136,22.17136,0,0,0-10.225-1.2153l-.1773.013-.15473.087C65.552,28.66856,63.51334,31.03234,64.68358,35.00163ZM78.704,38.04373a8.08344,8.08344,0,0,0,3.53966-2.95016,21.72894,21.72894,0,0,1,1.78746,3.04433c.60685,1.17421,1.04716,2.71628-.25934,3.49112a2.776,2.776,0,0,1-2.70064.10062l-.06709-.193A20.58,20.58,0,0,0,78.704,38.04373ZM74.2347,34.40245a4.26377,4.26377,0,0,1,2.77054-3.70234,11.96377,11.96377,0,0,1,4.1359,3.02547,6.32234,6.32234,0,0,1-3.583,3.07646A12.83662,12.83662,0,0,0,74.2347,34.40245ZM67.44818,29.4576q.28427-.01968.5634-.03467a22.53114,22.53114,0,0,1,7.00022.57026,5.6269,5.6269,0,0,0-2.345,3.77122,11.59619,11.59619,0,0,0-6.63321-.00107A4.12125,4.12125,0,0,1,67.44818,29.4576Z"/><polygon class="cls-3" points="89.234 52.053 89.234 48.052 84.735 41.455 78.486 39.024 71.978 38.456 70.485 39.884 69.849 44.117 74.161 44.117 78.657 45.445 82.94 49.781 84.205 52.053 86.878 53.375 89.234 52.053"/><path class="cls-4" d="M79.3621,40.81509s-4.26335-1.14645-5.40979-.609-1.78135.63506-2.01921,3.04034l-1.74257.82244L69.84879,41.542l1.9181-2.984h6.12632l2.4362,1.11062Z"/><path class="cls-4" d="M85.4814,45.19284c-1.25375-1.10013-2.394-2.41684-3.72627-2.82779a4.16117,4.16117,0,0,0-2.95841,1.70377l-.29446-1.49824,2.97359-2.65115,3.94091,2.5795S87.15813,44.667,85.4814,45.19284Z"/><path class="cls-4" d="M88.35985,52.83152s1.12208-1.771-1.81307-4.9109a19.55293,19.55293,0,0,1-3.56962.511l-.80106-.49,4.61017-3.17406,1.47748,1.86212,1.21876,3.4621A1.71321,1.71321,0,0,1,88.35985,52.83152Z"/><path class="cls-2" d="M69.14018,44.64157a.71706.71706,0,0,0,.939.6084,10.15147,10.15147,0,0,1,7.21289.36182l.20361.10546a11.23122,11.23122,0,0,1,3.55518,2.854A17.98017,17.98017,0,0,1,83.58891,52.624a2.05659,2.05659,0,0,0,1.543,1.39405,4.58538,4.58538,0,0,0,1.32715.18945,4.15351,4.15351,0,0,0,3.126-1.27539c.70117-.79639,1.30078-2.269.1748-4.76319a21.41965,21.41965,0,0,0-2.541-4.53173A13.60092,13.60092,0,0,0,82.106,39.417a22.17143,22.17143,0,0,0-10.145-1.76221l-.17774.00342-.15918.07862C70.34722,38.36423,68.18462,40.6152,69.14018,44.64157Zm13.837,3.79a8.08358,8.08358,0,0,0,3.69287-2.756,21.72835,21.72835,0,0,1,1.62152,3.13586c.543,1.20508.8999,2.76856-.44629,3.47217a2.776,2.776,0,0,1-2.70215-.04443l-.05664-.19629A20.5795,20.5795,0,0,0,82.97716,48.43161ZM78.7097,44.55575a4.26378,4.26378,0,0,1,2.96521-3.54834,11.96359,11.96359,0,0,1,3.96759,3.243,6.32231,6.32231,0,0,1-3.74292,2.87976A12.83688,12.83688,0,0,0,78.7097,44.55575Zm-6.51141-5.30188c.18994-.00292.37842-.00439.56445-.00439a22.5313,22.5313,0,0,1,6.95954.94507,5.62688,5.62688,0,0,0-2.54395,3.63995,11.59622,11.59622,0,0,0-6.62359-.357A4.12126,4.12126,0,0,1,72.19829,39.25387Z"/><ellipse class="cls-2" cx="8.38133" cy="41.11785" rx="4.19855" ry="2.99709"/><ellipse class="cls-2" cx="5.11686" cy="51.96111" rx="5.11686" ry="3.65261"/><polygon class="cls-3" points="6.6 41.324 6.815 37.329 11.661 30.983 18.032 28.891 24.561 28.673 25.975 30.178 26.383 34.44 22.077 34.209 17.516 35.293 13.007 39.394 11.622 41.594 8.882 42.771 6.6 41.324"/><path class="cls-4" d="M17.06052,30.63216s4.31872-.916,5.43468-.31788,1.7447.72973,1.85315,3.1443l1.69593.91476.47684-2.50485L24.76589,28.7859l-6.11749-.32873-2.49228.97829Z"/><path class="cls-4" d="M10.71513,34.67525c1.311-1.03127,2.52025-2.28489,3.87263-2.62376a4.16112,4.16112,0,0,1,2.86273,1.86005l.37443-1.48027-2.827-2.8069-4.07365,2.36432S9.069,34.06016,10.71513,34.67525Z"/><path class="cls-4" d="M7.43093,42.14847s-1.02542-1.82863,2.074-4.80653a19.55309,19.55309,0,0,0,3.53706.70179l.82619-.44633L9.435,34.18054,7.85969,35.96069,6.45691,39.35242A1.7132,1.7132,0,0,0,7.43093,42.14847Z"/><path class="cls-2" d="M24.95257,27.97351l-.15473-.087-.17729-.013a22.17139,22.17139,0,0,0-10.225,1.2153A13.60093,13.60093,0,0,0,9.06371,33.0286a21.41972,21.41972,0,0,0-2.78053,4.38886c-1.25818,2.43013-.73846,3.93284-.081,4.76571a4.15351,4.15351,0,0,0,3.053,1.44129,4.58537,4.58537,0,0,0,1.3354-.118,2.05659,2.05659,0,0,0,1.61555-1.30924A17.981,17.981,0,0,1,14.958,38.28654a11.23108,11.23108,0,0,1,3.7032-2.65912l.209-.09439a10.15146,10.15146,0,0,1,7.22191.02574.71706.71706,0,0,0,.97026-.55714C28.23262,31.03234,26.19392,28.66856,24.95257,27.97351ZM10.74191,41.53667l-.06709.193A2.776,2.776,0,0,1,7.97418,41.629c-1.30649-.77484-.86618-2.31691-.25933-3.49112A21.72893,21.72893,0,0,1,9.5023,35.09357,8.08352,8.08352,0,0,0,13.042,38.04373,20.58058,20.58058,0,0,0,10.74191,41.53667ZM14.18782,36.802a6.32232,6.32232,0,0,1-3.583-3.07646,11.96373,11.96373,0,0,1,4.13589-3.02547,4.26376,4.26376,0,0,1,2.77054,3.70234A12.837,12.837,0,0,0,14.18782,36.802Zm11.52451-3.0387a11.59619,11.59619,0,0,0-6.63321.00107,5.62691,5.62691,0,0,0-2.345-3.77122,22.53117,22.53117,0,0,1,7.00022-.57026q.27866.015.56341.03467A4.12125,4.12125,0,0,1,25.71233,33.76334Z"/><polygon class="cls-3" points="2.512 52.053 2.512 48.052 7.011 41.455 13.26 39.024 19.768 38.456 21.261 39.884 21.897 44.117 17.585 44.117 13.089 45.445 8.806 49.781 7.541 52.053 4.868 53.375 2.512 52.053"/><path class="cls-4" d="M12.38386,40.81509s4.26334-1.14645,5.40979-.609,1.78135.63506,2.01921,3.04034l1.74256.82244.34175-2.52683-1.91811-2.984H13.85274l-2.43619,1.11062Z"/><path class="cls-4" d="M6.26456,45.19284c1.25375-1.10013,2.394-2.41684,3.72626-2.82779a4.16118,4.16118,0,0,1,2.95842,1.70377l.29445-1.49824L10.2701,39.91943l-3.94091,2.5795S4.58783,44.667,6.26456,45.19284Z"/><path class="cls-4" d="M3.3861,52.83152s-1.12207-1.771,1.81307-4.9109a19.55313,19.55313,0,0,0,3.56963.511l.80105-.49L4.95969,44.76753,3.48221,46.62965l-1.21876,3.4621A1.7132,1.7132,0,0,0,3.3861,52.83152Z"/><path class="cls-2" d="M20.12188,37.73679l-.15918-.07862-.17773-.00342A22.1715,22.1715,0,0,0,9.64,39.417a13.60089,13.60089,0,0,0-5.11279,4.22022,21.41966,21.41966,0,0,0-2.541,4.53173c-1.126,2.49414-.52637,3.9668.17481,4.76319a4.15351,4.15351,0,0,0,3.126,1.27539A4.58528,4.58528,0,0,0,6.61407,54.018a2.05659,2.05659,0,0,0,1.543-1.394,17.98055,17.98055,0,0,1,2.53809-4.05273,11.23108,11.23108,0,0,1,3.55517-2.854l.20362-.10546A10.15147,10.15147,0,0,1,21.66681,45.25a.71705.71705,0,0,0,.939-.6084C23.56134,40.6152,21.39874,38.36423,20.12188,37.73679ZM6.65948,52.04294l-.05664.19629a2.776,2.776,0,0,1-2.70215.04443c-1.34619-.70361-.98925-2.26709-.44629-3.47217a21.72935,21.72935,0,0,1,1.62152-3.13586,8.08355,8.08355,0,0,0,3.69288,2.756A20.58015,20.58015,0,0,0,6.65948,52.04294Zm3.18689-4.91272a6.32234,6.32234,0,0,1-3.74292-2.87976,11.96369,11.96369,0,0,1,3.96759-3.243,4.26378,4.26378,0,0,1,2.96521,3.54834A12.83706,12.83706,0,0,0,9.84637,47.13022Zm11.34485-3.65271a11.59625,11.59625,0,0,0-6.6236.357,5.6269,5.6269,0,0,0-2.54394-3.63995,22.53119,22.53119,0,0,1,6.95953-.94507c.186,0,.37451.00147.56446.00439A4.12128,4.12128,0,0,1,21.19122,43.47751Z"/><path class="cls-5" d="M31.24249,50.23372l-3.41,9.88c-.71.71-1.37,1.43-2,2.18a35.19894,35.19894,0,0,0-3.87,5.54c-3.08-.07-5.63995-14.34-5.63995-14.34l7.8-4.67s.05.04.14.11a19.19308,19.19308,0,0,1,1.71,1.5l.13-.61Z"/><path class="cls-6" d="M31.24249,50.23372l-3.41,9.88c-.71.71-1.37,1.43-2,2.18.08-.24,1.58-4.28,1.37-6.46-.23-2.24-4.84,2.75-4.84,2.75l-.65,1.23c-.52-1.08,1.78-8.46,2.55-10.88a19.19308,19.19308,0,0,1,1.71,1.5l.13-.61Z"/><path class="cls-5" d="M60.36682,50.23372l3.41,9.88c.71.71,1.37,1.43,2,2.18a35.19821,35.19821,0,0,1,3.87,5.54c3.08-.07,5.64-14.34,5.64-14.34l-7.8-4.67s-.05.04-.14.11a19.19428,19.19428,0,0,0-1.71,1.5l-.13-.61Z"/><path class="cls-6" d="M60.36682,50.23372l3.41,9.88c.71.71,1.37,1.43,2,2.18-.08-.24-1.58-4.28-1.37006-6.46.23-2.24,4.84,2.75,4.84,2.75l.65,1.23c.52-1.08-1.78-8.46-2.55-10.88a19.19428,19.19428,0,0,0-1.71,1.5l-.13-.61Z"/><path class="cls-7" d="M21.95684,67.83369a38.52578,38.52578,0,0,1-.04-4.42c0-.27.02-.55.03-.84a47.46114,47.46114,0,0,1,1.22-8.6c2.12-8.82,7.62-18.67,21.52-19.18v.03c14.73,0,21.08,10.11,23.57,19.15a39.99381,39.99381,0,0,1,1.4,8.6c.01.29.04.57.04.84a39.70118,39.70118,0,0,1-.05,4.42c14.66,0,11.6-4.86,11.6-10.37s-6.14-32.42-9.55-40.2c-1.68-3.84-4.81-5.78-9.19-6.77-4.4-.99-10.03-1.01-16.7-1.01h-.51c-13.33,0-22.02.1-25.39,7.78-3.4,7.78-9.54,34.69-9.54,40.2S7.29681,67.83369,21.95684,67.83369Z"/><path class="cls-8" d="M68.51447,41.97812s8.60295,1.66642,8.35367-4.06016l.71264,4.81529c.31754.57283-5.254,3.2862-8.6273.921C66.15937,41.6952,68.51447,41.97812,68.51447,41.97812Z"/><path class="cls-8" d="M23.09707,41.97812S14.49412,43.64454,14.7434,37.918l-.71264,4.81529c-.31754.57283,5.254,3.2862,8.6273.921C25.45216,41.6952,23.09707,41.97812,23.09707,41.97812Z"/><path class="cls-9" d="M15.9168,62.93373l6,.48c0-.27.02-.55.03-.84a47.46114,47.46114,0,0,1,1.22-8.6c-1.72.31-3.1,3.33-3.1,3.33-3.46,1.02-2.32-4.24-2.32-4.24.49-3.58-1.92-3.81-1.92-3.81s-1.92,4.81994-2.11,5.06C13.52685,54.55372,15.9168,62.93373,15.9168,62.93373Z"/><path class="cls-9" d="M68.25286,53.94052v.03a40.26764,40.26764,0,0,1,1.40823,8.6c.01052.29.03156.57.03156.84l6.00086-.48s2.38566-8.38,2.1965-8.62-2.11241-5.06-2.11241-5.06-2.40664.23-1.91273,3.81c0,0,1.135,5.26-2.32255,4.24C71.54232,57.3005,70.04994,54.0505,68.25286,53.94052Z"/><path class="cls-8" d="M56.12659,28.32738s-2.77247-13.3788-5.04986-15.73423,2.695-1.1306,2.695-1.1306l-1.30877.94217S58.8619,26.1604,58.08835,28.32738,56.12659,28.32738,56.12659,28.32738Z"/><path class="cls-8" d="M10.36376,57.46047c0-5.50994,6.13755-32.42,9.5426-40.19995,3.39928-7.76678,12.23585-7.78,25.82732-7.78V9.48049h.068v.00006c13.59167,0,22.499.01319,25.89826,7.78,3.40505,7.78,9.5426,34.69,9.5426,40.2,0,5.51,3.06874,10.37-11.592,10.37a42.243,42.243,0,0,0,.01052-5.26s8.355-2.63,5.94839-8.23c-2.39619-5.6,1.5659-5.52,1.5659-5.52s-.48346-18.35-5.16018-18.7c-4.68718-.34-2.59581-3.31-2.59581-3.31a8.57856,8.57856,0,0,1-4.37717.17795c-1.443-.33257-2.34992-1.389-3.6621-2.278-1.34217-.90935-3.45857-1.21986-3.84951-2.36937-1.38725-4.11,3.18693-7.2906,1.14809-8.32063-2.02832-1.03-12.91981-1.39844-12.91981-1.39844h0c-.71374.02552-10.87444.40479-12.8313,1.39844-2.03883,1.03,2.84629,4.20877,1.459,8.31875-.40765,1.19866-2.29943,1.29362-4.25957,2.0941s-2.76116,2.38655-4.30085,2.76961a7.22023,7.22023,0,0,1-3.63931-.39242s2.09137,2.97-2.59581,3.31c-4.67672.35-5.16017,18.7-5.16017,18.7s3.96208-.08,1.5659,5.52c-2.40665,5.6,5.94838,8.23,5.94838,8.23a42.243,42.243,0,0,0,.01052,5.26C7.295,67.83047,10.36376,62.97048,10.36376,57.46047Z"/><path class="cls-10" d="M65.13152,24.71047c5.75922,1.66,6.95725-1.16,6.95725-1.16s6.6-10.65,7.46175-14.88a3.87616,3.87616,0,0,0,.09455-.79,7.86892,7.86892,0,0,0-.042-.88c-.26274-2.92-1.99682-4.6-7.33558-6.21-5.86429-1.76-10.23626-.29-11.077,1.57a10.53757,10.53757,0,0,0-.47294,2.22c-.72516,4.76-1.42927,14.97-1.42927,14.97S57.97459,22.75051,65.13152,24.71047Z"/><ellipse class="cls-8" cx="54.87954" cy="14.50815" rx="0.74823" ry="0.71196"/><ellipse class="cls-8" cx="56.03943" cy="16.94563" rx="0.95778" ry="0.91135"/><path class="cls-9" d="M70.25067,31.21047s3.09575.53136,3.97129,3.07a18.77786,18.77786,0,0,1,1.06031,5.735c0,.98889-2.891,2.225-3.52775,0S67.07533,28.25259,70.25067,31.21047Z"/><path class="cls-11" d="M65.13152,24.71047c5.75922,1.66,6.95725-1.16,6.95725-1.16s6.6-10.65,7.46175-14.88a3.87616,3.87616,0,0,0,.09455-.79,7.86892,7.86892,0,0,0-.042-.88l-6.32671,3.02s-1.9319,4.81887-2.715,6.58878-1.2812,6.92635-11.27308,2.94125C59.28827,19.5505,57.97459,22.75051,65.13152,24.71047Z"/><path class="cls-12" d="M59.83478,12.6205v.02c.19968,5.8.90166,5.84147,2.19432,6.28147,1.30318.44,1.73684-6.44214,4.04256-7.77775a15.32207,15.32207,0,0,1,4.178-1.71372l-8.85947-6.74s-.16815.12-.38885.3Z"/><path class="cls-13" d="M67.55321,8.20931a9.34514,9.34514,0,0,0-4.9861,6.34156c-.85541,4.49712-1.31484.26406-1.15585-.7877S61.71571,7.369,64.0998,6.33011C64.0998,6.33011,67.98455,6.82856,67.55321,8.20931Z"/><path class="cls-14" d="M60.71754,4.58047c.14714.53.18922,1.24005,2.54333,2.38a32.03315,32.03315,0,0,0,3.81494,1.5c.34676.12.72515.24006,1.114.37a29.07787,29.07787,0,0,0,5.08654,1.19c3.88851.51,5.9063-.36,6.27417-1.35a3.87616,3.87616,0,0,0,.09455-.79,8.08361,8.08361,0,0,0-.13663-1.56.05793.05793,0,0,0-.01052-.04,4.99833,4.99833,0,0,0-.34676-1.13995c-.81977-1.85-2.79555-3.12006-6.88368-4.35-.26274-.08-.515-.15-.76723-.21-5.47539-1.42-9.511,0-10.30977,1.78A10.53757,10.53757,0,0,0,60.71754,4.58047Z"/><path class="cls-8" d="M35.48271,28.32738s2.77247-13.3788,5.04986-15.73423-2.695-1.1306-2.695-1.1306l1.30877.94217S32.74741,26.1604,33.521,28.32738,35.48271,28.32738,35.48271,28.32738Z"/><ellipse class="cls-8" cx="36.72976" cy="14.50815" rx="0.74823" ry="0.71196"/><ellipse class="cls-8" cx="35.56988" cy="16.94563" rx="0.95778" ry="0.91135"/><path class="cls-9" d="M21.35863,31.21047s-3.09574.53136-3.97128,3.07a18.77765,18.77765,0,0,0-1.06032,5.735c0,.98889,2.891,2.225,3.52775,0S24.534,28.25259,21.35863,31.21047Z"/><path class="cls-9" d="M42.41625,13.82484c1.58975-.83789,5.66388-.55016,7.21867.39575s4.73876,7.88466,3.24729,6.63061c-2.9537-1.88267-10.2926-1.96709-14.17071.485C36.82536,22.84544,40.82651,14.66273,42.41625,13.82484Z"/><path class="cls-15" d="M63.26087,6.96047a32.03315,32.03315,0,0,0,3.81494,1.5,4.9024,4.9024,0,0,1,3.48908-1.2l-.11559-.47-2.31209-.77s1.072-.02-1.57642,0C63.91245,6.04049,63.26087,6.96047,63.26087,6.96047Z"/><path class="cls-15" d="M71.93117,1.98049c-.94588.16,3.29992,1.4,3.29992,1.4s2.81659.02,3.88851,1.71c.01052.02.021.03.03156.05-.81977-1.85-2.79555-3.12006-6.88368-4.35-.26274-.08-.515-.15-.76723-.21C71.64739.71047,72.82445,1.84048,71.93117,1.98049Z"/><path class="cls-16" d="M73.27635,10.02047c3.88851.51,5.9063-.36,6.27417-1.35a3.87616,3.87616,0,0,0,.09455-.79,8.08361,8.08361,0,0,0-.13663-1.56.05793.05793,0,0,0-.01052-.04,2.23293,2.23293,0,0,0-2.33306-1.19,12.828,12.828,0,0,0-4.38243,1.73l-.38884.75A1.77257,1.77257,0,0,1,73.27635,10.02047Z"/><path class="cls-17" d="M63.62868,4.07052a2.0322,2.0322,0,0,0,.14714.16,12.72536,12.72536,0,0,0,5.73812,2.8,13.45644,13.45644,0,0,0,6.26366.29,3.68186,3.68186,0,0,0,.39936-.13,1.71823,1.71823,0,0,0,1.1981-1.04c.40988-1.47-2.45924-3.44995-6.38977-4.43-3.941-.99-7.45116-.59-7.86105.88A1.62737,1.62737,0,0,0,63.62868,4.07052Z"/><path class="cls-18" d="M63.77582,4.23049a7.59262,7.59262,0,0,0,1.734,1.27,16.60749,16.60749,0,0,0,4.0041,1.53,16.6387,16.6387,0,0,0,3.86754.53,8.53629,8.53629,0,0,0,2.39612-.24c-.50443-1.28-2.6799-2.66-5.528-3.37C67.48563,3.26052,64.93184,3.41049,63.77582,4.23049Z"/><path class="cls-19" d="M65.50984,5.50051a16.60749,16.60749,0,0,0,4.0041,1.53,16.6387,16.6387,0,0,0,3.86754.53,6.61918,6.61918,0,0,0-3.857-2.5A4.705,4.705,0,0,0,65.50984,5.50051Z"/><path class="cls-10" d="M26.35505,24.71047c-5.75923,1.66-6.95725-1.16-6.95725-1.16s-6.6-10.65-7.46175-14.88a3.87616,3.87616,0,0,1-.09455-.79,7.86892,7.86892,0,0,1,.042-.88c.26274-2.92,1.99682-4.6,7.33558-6.21,5.86429-1.76,10.23626-.29,11.077,1.57a10.53823,10.53823,0,0,1,.47294,2.22c.72516,4.76,1.42927,14.97,1.42927,14.97S33.512,22.75051,26.35505,24.71047Z"/><path class="cls-11" d="M26.35505,24.71047c-5.75923,1.66-6.95725-1.16-6.95725-1.16s-6.6-10.65-7.46175-14.88a3.87616,3.87616,0,0,1-.09455-.79,7.86892,7.86892,0,0,1,.042-.88l6.32671,3.02s1.9319,4.81887,2.715,6.58878,1.2812,6.92635,11.27308,2.94125C32.1983,19.5505,33.512,22.75051,26.35505,24.71047Z"/><path class="cls-12" d="M30.48523,2.9905c-.22069-.18-.38885-.3-.38885-.3l-8.85946,6.74a15.32207,15.32207,0,0,1,4.178,1.71372c2.30571,1.33561,2.73938,8.21775,4.04255,7.77775,1.29267-.44,1.99464-.48147,2.19432-6.28147v-.02Z"/><path class="cls-13" d="M23.93336,8.20931a9.34514,9.34514,0,0,1,4.9861,6.34156c.85541,4.49712,1.31483.26406,1.15585-.7877S29.77086,7.369,27.38677,6.33011C27.38677,6.33011,23.502,6.82856,23.93336,8.20931Z"/><path class="cls-14" d="M30.769,4.58047c-.14715.53-.18923,1.24005-2.54333,2.38a32.03315,32.03315,0,0,1-3.81494,1.5c-.34676.12-.72515.24006-1.114.37a29.07787,29.07787,0,0,1-5.08654,1.19c-3.88851.51-5.9063-.36-6.27417-1.35a3.87616,3.87616,0,0,1-.09455-.79,8.08443,8.08443,0,0,1,.13662-1.56.05793.05793,0,0,1,.01052-.04,4.99834,4.99834,0,0,1,.34677-1.13995c.81977-1.85,2.79555-3.12006,6.88368-4.35.26273-.08.515-.15.76723-.21,5.47539-1.42,9.511,0,10.30977,1.78A10.53823,10.53823,0,0,1,30.769,4.58047Z"/><path class="cls-15" d="M28.2257,6.96047a32.03315,32.03315,0,0,1-3.81494,1.5,4.9024,4.9024,0,0,0-3.48908-1.2l.11559-.47,2.31209-.77s-1.072-.02,1.57642,0C27.57412,6.04049,28.2257,6.96047,28.2257,6.96047Z"/><path class="cls-15" d="M19.5554,1.98049c.94588.16-3.29992,1.4-3.29992,1.4s-2.81659.02-3.88851,1.71c-.01052.02-.021.03-.03156.05.81977-1.85,2.79555-3.12006,6.88368-4.35.26273-.08.515-.15.76723-.21C19.83917.71047,18.66212,1.84048,19.5554,1.98049Z"/><path class="cls-16" d="M18.21022,10.02047c-3.88851.51-5.9063-.36-6.27417-1.35a3.87616,3.87616,0,0,1-.09455-.79,8.08443,8.08443,0,0,1,.13662-1.56.05793.05793,0,0,1,.01052-.04,2.233,2.233,0,0,1,2.33307-1.19,12.828,12.828,0,0,1,4.38243,1.73l.38884.75A1.77257,1.77257,0,0,0,18.21022,10.02047Z"/><path class="cls-17" d="M27.85789,4.07052a2.03046,2.03046,0,0,1-.14715.16,12.72525,12.72525,0,0,1-5.73812,2.8,13.4564,13.4564,0,0,1-6.26365.29,3.68278,3.68278,0,0,1-.39937-.13,1.71823,1.71823,0,0,1-1.19809-1.04c-.40988-1.47,2.45924-3.44995,6.38977-4.43,3.941-.99,7.45116-.59,7.861.88A1.6274,1.6274,0,0,1,27.85789,4.07052Z"/><path class="cls-18" d="M27.71074,4.23049a7.59217,7.59217,0,0,1-1.734,1.27,16.60717,16.60717,0,0,1-4.0041,1.53,16.63855,16.63855,0,0,1-3.86753.53,8.53629,8.53629,0,0,1-2.39612-.24c.50443-1.28,2.6799-2.66,5.528-3.37C24.00094,3.26052,26.55473,3.41049,27.71074,4.23049Z"/><path class="cls-19" d="M25.97672,5.50051a16.60717,16.60717,0,0,1-4.0041,1.53,16.63855,16.63855,0,0,1-3.86753.53,6.61918,6.61918,0,0,1,3.857-2.5A4.705,4.705,0,0,1,25.97672,5.50051Z"/><path class="cls-10" d="M23.53128,53.06051l22.27334-3.35093L68.078,53.06051s3.97462-1.8627,5.45-4.071a2.44527,2.44527,0,0,0,.41832-2.2084s-3.281-9.54394-6.02247-14.65192l-.03307-.048a7.92538,7.92538,0,0,0-2.213-2.98607c-2.66449-1.39224-4.52519-3.25494-19.87323-3.25494S28.596,27.70278,25.93146,29.095c-2.66441,1.40185-8.26857,17.686-8.26857,17.686C16.57291,49.80557,23.53128,53.06051,23.53128,53.06051Z"/><path class="cls-14" d="M66.73477,45.92657,73.528,48.98946a2.44527,2.44527,0,0,0,.41832-2.2084s-3.281-9.54394-6.02247-14.65192l-.03307-.048s2.38924,9.32312,2.65347,11.349C70.79749,45.4561,66.73477,45.92657,66.73477,45.92657Z"/><path class="cls-17" d="M23.53128,53.06051s14.73147-1.133,22.27334-1.133c4.67928,0,12.14414.44164,17.12071.75851,3.03872.21126,5.1527.37447,5.1527.37447s6.95837-3.25494,5.86832-6.27945c0,0-2.68639-.41286-7.21158-.85449-5.05358-.48969-12.41932-1.00821-20.93015-1.00821a203.38787,203.38787,0,0,0-28.14173,1.8627C16.57291,49.80557,23.53128,53.06051,23.53128,53.06051Z"/><path class="cls-17" d="M42.06124,39.50313a3.80147,3.80147,0,0,0,7.48683,0,4.99484,4.99484,0,0,0,.13212-1.86271l-.09906-.78733-.5175-4.532a3.24491,3.24491,0,0,0-3.259-2.75564,3.37623,3.37623,0,0,0-2.15793.77772,3.06494,3.06494,0,0,0-1.101,1.97792l-.5175,4.532-.09906.78733A4.99464,4.99464,0,0,0,42.06124,39.50313Z"/><path class="cls-17" d="M51.56293,39.58951a2.902,2.902,0,0,0,.11008.51852,3.67767,3.67767,0,0,0,7.27763.00955,5.09049,5.09049,0,0,0,.13212-1.83387l-.60554-5.30007a2.83207,2.83207,0,0,0-.71561-1.60345,3.20615,3.20615,0,0,0-4.54717-.36486,3.003,3.003,0,0,0-1.068,1.96831l-.60554,5.30007A4.71177,4.71177,0,0,0,51.56293,39.58951Z"/><path class="cls-17" d="M60.91047,35.92171v.14405l.15416,2.05474.13211,1.87232a3.25625,3.25625,0,0,0,.64956,1.73787,3.33223,3.33223,0,0,0,3.237,1.373,2.94941,2.94941,0,0,0,2.23508-1.59389,3.19817,3.19817,0,0,0,.15415-2.49638l-1.28822-3.76379a2.49593,2.49593,0,0,0-1.75057-1.51706,3.1113,3.1113,0,0,0-1.29918-.06722A2.45551,2.45551,0,0,0,60.91047,35.92171Z"/><path class="cls-17" d="M32.6586,40.29046v.01916a3.68021,3.68021,0,0,0,7.2777-.01916,4.13837,4.13837,0,0,0,.11008-.52813,5.72988,5.72988,0,0,0,.022-1.3058l-.60554-5.29046a3.003,3.003,0,0,0-1.068-1.96831,3.21935,3.21935,0,0,0-4.55819.36487,2.89359,2.89359,0,0,0-.70459,1.60344l-.60561,5.29046A5.07791,5.07791,0,0,0,32.6586,40.29046Z"/><path class="cls-17" d="M24.291,41.50982a2.94941,2.94941,0,0,0,2.23508,1.59389,3.33229,3.33229,0,0,0,3.237-1.373,3.25625,3.25625,0,0,0,.64956-1.73787l.13211-1.87232.15416-2.05474v-.144a2.45551,2.45551,0,0,0-2.22405-2.25634,3.1113,3.1113,0,0,0-1.29918.06722A2.49593,2.49593,0,0,0,25.425,35.24965l-1.28822,3.76379A3.19817,3.19817,0,0,0,24.291,41.50982Z"/><path class="cls-20" d="M42.06124,39.50313a4.00308,4.00308,0,0,0,.22021.63367v.00961a3.73438,3.73438,0,0,0,7.04641,0V40.1368a4.00308,4.00308,0,0,0,.22021-.63367l-.48444-4.23432a3.2533,3.2533,0,0,0-3.259-2.75564,3.43043,3.43043,0,0,0-2.15793.77772,3.06482,3.06482,0,0,0-1.101,1.97792Z"/><path class="cls-20" d="M51.673,40.108a4.08778,4.08778,0,0,0,.20919.64329v.00961a3.60406,3.60406,0,0,0,6.85925,0,4.43845,4.43845,0,0,0,.20919-.64335l-.47342-4.18626a2.88986,2.88986,0,0,0-.71561-1.60344,3.20672,3.20672,0,0,0-2.44427-1.14259,3.2576,3.2576,0,0,0-2.1029.77772,3.003,3.003,0,0,0-1.068,1.96831Z"/><path class="cls-20" d="M61.06463,38.1205l.13211,1.87232a3.54517,3.54517,0,0,0,.64956,1.73787,3.33223,3.33223,0,0,0,3.237,1.373,3.10745,3.10745,0,0,0,1.65151-.797,3.21071,3.21071,0,0,0,.58357-.79694l-1.13407-3.31255a2.496,2.496,0,0,0-1.75057-1.517,3.1113,3.1113,0,0,0-1.29918-.06722A2.64332,2.64332,0,0,0,61.06463,38.1205Z"/><path class="cls-20" d="M32.6586,40.29046v.01916a6.41128,6.41128,0,0,0,.20919.64335,3.61059,3.61059,0,0,0,6.85932-.00961v-.00961a4.44867,4.44867,0,0,0,.20919-.64329l-.47342-4.17671a3.003,3.003,0,0,0-1.068-1.9683,3.21933,3.21933,0,0,0-4.55819.36486,2.92345,2.92345,0,0,0-.70459,1.60344Z"/><path class="cls-20" d="M24.291,41.50982a3.21046,3.21046,0,0,0,.58357.79694,3.10745,3.10745,0,0,0,1.65151.797,3.33229,3.33229,0,0,0,3.237-1.373,3.54517,3.54517,0,0,0,.64956-1.73787l.13211-1.87232a2.64332,2.64332,0,0,0-2.06989-1.50745,3.1113,3.1113,0,0,0-1.29918.06722,2.496,2.496,0,0,0-1.75057,1.517Z"/><path class="cls-19" d="M42.28145,40.1368v.00961a3.73438,3.73438,0,0,0,7.04641,0V40.1368l-.26423-2.35239a3.2533,3.2533,0,0,0-3.259-2.75564,3.43043,3.43043,0,0,0-2.15793.77772,3.06482,3.06482,0,0,0-1.101,1.97792Z"/><path class="cls-19" d="M51.8822,40.75132v.00961a3.60406,3.60406,0,0,0,6.85925,0l-.26423-2.314a2.89,2.89,0,0,0-.71561-1.60344,3.20672,3.20672,0,0,0-2.44427-1.14259,3.25755,3.25755,0,0,0-2.1029.77773,3.003,3.003,0,0,0-1.068,1.9683Z"/><path class="cls-19" d="M61.24076,40.30962a3.13323,3.13323,0,0,0,.60554,1.42107,3.33223,3.33223,0,0,0,3.237,1.373,3.10745,3.10745,0,0,0,1.65151-.797l-.5505-1.59383a2.496,2.496,0,0,0-1.75057-1.51706,3.11146,3.11146,0,0,0-1.29918-.06722A2.73216,2.73216,0,0,0,61.24076,40.30962Z"/><path class="cls-19" d="M32.86779,40.953a3.61059,3.61059,0,0,0,6.85932-.00961v-.00961l-.26423-2.3044a3.003,3.003,0,0,0-1.068-1.9683,3.21933,3.21933,0,0,0-4.55819.36486,2.92345,2.92345,0,0,0-.70459,1.60344Z"/><path class="cls-19" d="M24.87454,42.30676a3.10745,3.10745,0,0,0,1.65151.797,3.33229,3.33229,0,0,0,3.237-1.373,3.13323,3.13323,0,0,0,.60554-1.42107,2.7323,2.7323,0,0,0-1.89376-1.181,3.11146,3.11146,0,0,0-1.29918.06722A2.496,2.496,0,0,0,25.425,40.71293Z"/><path class="cls-10" d="M62.92533,52.686c3.03872.21126,5.1527.37447,5.1527.37447s6.95837-3.25494,5.86832-6.27945c0,0-2.68639-.41286-7.21158-.85449C70.40114,48.16369,63.28861,52.47483,62.92533,52.686Z"/><path class="cls-14" d="M24.87454,45.92657l-6.79326,3.06289a2.44524,2.44524,0,0,1-.41832-2.2084s3.281-9.54394,6.02247-14.65192l.03307-.048s-2.38924,9.32312-2.65347,11.349C20.81182,45.4561,24.87454,45.92657,24.87454,45.92657Z"/><path class="cls-10" d="M28.684,52.686c-3.03872.21126-5.1527.37447-5.1527.37447s-6.95837-3.25494-5.86832-6.27945c0,0,2.68639-.41286,7.21158-.85449C21.20817,48.16369,28.3207,52.47483,28.684,52.686Z"/><path class="cls-14" d="M65.626,29.06742c.03508.018.05188.0276.05188.0276Z"/><path class="cls-14" d="M25.98334,29.06742l-.05188.0276S25.94826,29.08541,25.98334,29.06742Z"/><path class="cls-14" d="M25.98334,29.06742c2.63727-1.38913,4.57358-3.22734,19.82128-3.22734h.00007c15.2477,0,17.184,1.83821,19.82128,3.22734-.52537-.26881-5.17683-2.41481-19.82135-2.41481C31.16017,26.65261,26.50871,28.79861,25.98334,29.06742Z"/><path class="cls-10" d="M37.99876,16.52642a1.43236,1.43236,0,0,1,.69148-.91226,2.47709,2.47709,0,0,1,1.49935-.34868l2.04993.17135-.20685-3.33828a.86745.86745,0,0,1,.00169-.13241,1.6396,1.6396,0,0,1,1.30908-1.20071L46.197,9.93a3.33573,3.33573,0,0,1,2.10984.09059,1.31745,1.31745,0,0,1,.92606.99154.71065.71065,0,0,1,.00261.102l-.1143,3.8183,1.6682-.311a2.74092,2.74092,0,0,1,1.74912.25151,1.48609,1.48609,0,0,1,.83647.9758.91246.91246,0,0,1-.17632.71181l-4.95187,6.794a3.925,3.925,0,0,1-5.96814-.10868l-4.11919-6.01476A.93594.93594,0,0,1,37.99876,16.52642Z"/><path class="cls-8" d="M52.78813,15.84521a.58959.58959,0,0,1-.12247.45806l-4.98178,6.70167a3.23993,3.23993,0,0,1-4.326.43263,2.85035,2.85035,0,0,1-.53486-.50825L38.6484,16.98217a.5989.5989,0,0,1-.11049-.45068,1.38967,1.38967,0,0,1,1.45452-.865q.0457.00345.09068.00965l2.73586.23446L42.52948,12.057a.604.604,0,0,1,.00026-.09386,1.2208,1.2208,0,0,1,.98422-.8932l2.87621-.84623a2.07308,2.07308,0,0,1,2.14454.43662.91235.91235,0,0,1,.19056.35728.59245.59245,0,0,1,.00135.07311L48.537,15.48058l2.44012-.4564a1.63111,1.63111,0,0,1,1.71432.60769.906.906,0,0,1,.09664.21336m1.17545.00758h0a2.0085,2.0085,0,0,0-1.13021-1.30673,3.52352,3.52352,0,0,0-2.22895-.3196l-.91224.1698.05485-3.2584a1.05876,1.05876,0,0,0-.00583-.13056,1.68558,1.68558,0,0,0-1.18379-1.25768,4.00717,4.00717,0,0,0-2.55016-.108l-2.831.82492a2.05942,2.05942,0,0,0-1.63541,1.5036,1.10034,1.10034,0,0,0-.00484.17019l.13886,2.83467-1.37947-.112a3.18248,3.18248,0,0,0-1.90745.44484,1.92566,1.92566,0,0,0-.92609,1.21391,1.27465,1.27465,0,0,0,.20285.96093l4.06382,6.08174a4.29258,4.29258,0,0,0,3.459,1.73991,4.24516,4.24516,0,0,0,3.63306-1.59309l4.91971-6.88891a1.23376,1.23376,0,0,0,.22338-.96953Z"/></g></svg>