<?xml version="1.0" encoding="UTF-8" standalone="no"?>
<!DOCTYPE svg PUBLIC "-//W3C//DTD SVG 1.1//EN" "http://www.w3.org/Graphics/SVG/1.1/DTD/svg11.dtd">
<svg width="100%" height="100%" viewBox="0 0 100 100" version="1.1" xmlns="http://www.w3.org/2000/svg" xmlns:xlink="http://www.w3.org/1999/xlink" xml:space="preserve" xmlns:serif="http://www.serif.com/" style="fill-rule:evenodd;clip-rule:evenodd;stroke-linejoin:round;stroke-miterlimit:2;">
    <g transform="matrix(2.6914,2.66649,2.66353,-2.68841,-719.782,-629.435)">
        <g transform="matrix(-0.125868,-0.192859,0.192859,-0.125868,129.926,-91.5421)">
            <path d="M-716.818,289.667C-723.046,299.638 -731.129,305.5 -741.45,306.402C-742.469,300.356 -741.545,293.884 -739.29,287.121C-749.117,291.21 -758.943,292.457 -768.77,289.552C-767.486,286.145 -765.711,283.416 -763.583,281.174C-761.328,278.798 -761.783,277.292 -763.966,274.87L-779.596,265.324C-774.643,261.486 -774.696,257.824 -779.362,254.322C-776.226,250.077 -778.201,245.997 -781.582,241.962C-775.805,244.203 -770.461,244.845 -766.966,238.645C-762.039,243.163 -757.375,245.376 -753.617,239.609C-743.512,257.952 -741.531,244.413 -755.165,228.969C-744.304,228.196 -739.912,222.502 -743.077,211.057C-737.495,211.393 -735.375,207.576 -735.077,201.574C-732.257,206.9 -728.405,208.625 -723.215,205.682C-722.002,215.864 -718.35,221.681 -708.868,217.062C-711.601,241.332 -705.188,247.097 -703.097,222.504C-697.768,225.005 -693.813,224.154 -692.184,217.621C-686.43,220.058 -681.099,218.098 -676.107,212.623C-678.079,218.867 -677.682,224.208 -671.858,227.482C-676.092,232.396 -676.349,236.982 -668.88,240.931L-678.908,251.622C-680.551,253.848 -680.692,257.812 -677.781,258.788C-673.372,260.266 -670.376,262.595 -668.915,265.847C-674.892,273.579 -686.162,277.361 -698.774,280.143C-693.526,284.811 -689.935,289.831 -690.064,295.643C-699.26,298.026 -708.235,296.938 -716.818,289.667Z" style="fill:#fbc000;"/>
        </g>
        <g transform="matrix(-0.125868,-0.192859,0.192859,-0.125868,129.926,-91.5421)">
            <path d="M-716.818,289.667C-722.716,276.308 -728.699,212.785 -735.077,201.574C-732.257,206.9 -728.405,208.625 -723.215,205.682C-722.002,215.864 -718.35,221.681 -708.868,217.062C-711.601,241.332 -705.188,247.097 -703.097,222.504C-697.768,225.005 -693.813,224.154 -692.184,217.621C-686.43,220.058 -681.099,218.098 -676.107,212.623C-678.079,218.867 -677.682,224.208 -671.858,227.482C-676.092,232.396 -676.349,236.982 -668.88,240.931L-678.908,251.622C-680.551,253.848 -680.692,257.812 -677.781,258.788C-673.372,260.266 -670.376,262.595 -668.915,265.847C-674.892,273.579 -686.162,277.361 -698.774,280.143C-693.526,284.811 -689.935,289.831 -690.064,295.643C-699.26,298.026 -708.235,296.938 -716.818,289.667Z" style="fill:#ffd23f;"/>
        </g>
        <g transform="matrix(0.187504,0.185975,0.185769,-0.187713,251.891,15.7087)">
            <path d="M49.526,80.95C43.648,87.661 36.509,89.913 28.639,89.58C28.383,89.569 28.166,89.39 28.107,89.141C26.963,84.357 28.808,79.555 32.136,74.762C21.155,74.622 11.18,73.301 4.789,67.908C4.627,67.772 4.554,67.558 4.598,67.352C5.276,64.172 7.477,61.503 11.126,59.34C12.063,58.785 12.337,57.815 12.214,56.831C12.082,55.768 11.502,54.68 10.712,53.969C10.708,53.965 0.223,46.703 0.223,46.703C0.076,46.601 -0.015,46.437 -0.023,46.26C-0.031,46.082 0.044,45.91 0.18,45.796C2.81,43.589 3.934,41.619 3.818,39.769C3.703,37.925 2.366,36.263 0.27,34.676C0.133,34.573 0.05,34.413 0.044,34.242C0.037,34.071 0.108,33.906 0.236,33.793C4.367,30.142 3.687,25.757 1.009,21.057C0.876,20.824 0.924,20.531 1.122,20.351C1.321,20.172 1.618,20.155 1.837,20.311C6.862,23.898 11.542,24.619 15.8,21.629C15.937,21.533 16.108,21.502 16.27,21.543C16.432,21.585 16.567,21.695 16.641,21.845C17.826,24.259 19.186,25.511 20.757,25.759C22.346,26.01 24.092,25.249 25.983,23.81C26.131,23.697 26.326,23.664 26.504,23.721C26.681,23.779 26.82,23.919 26.875,24.098C28.37,28.983 29.754,32.35 30.906,34.369C31.342,35.132 31.738,35.694 32.095,36.06C32.278,36.247 32.438,36.378 32.59,36.436C32.617,36.446 32.64,36.458 32.663,36.453C32.708,36.444 32.726,36.392 32.758,36.339C32.871,36.152 32.948,35.878 33.003,35.527C33.406,32.994 32.514,27.1 29.707,18.751C29.64,18.553 29.687,18.335 29.828,18.182C29.968,18.029 30.182,17.965 30.384,18.015C33.722,18.839 36.036,18.55 37.554,17.305C38.68,16.382 39.346,14.949 39.693,13.14C40.06,11.227 40.063,8.905 39.818,6.296C39.8,6.105 39.878,5.919 40.027,5.799C40.175,5.679 40.374,5.641 40.557,5.698C42.841,6.416 44.668,6.309 46.085,5.406C47.526,4.489 48.527,2.781 49.193,0.416C49.263,0.168 49.49,-0.002 49.747,0C50.004,0.002 50.228,0.175 50.295,0.424C51.06,3.28 52.173,5.418 53.928,6.386C55.058,7.009 56.447,7.119 58.151,6.644C58.329,6.595 58.52,6.634 58.663,6.75C58.807,6.865 58.886,7.043 58.875,7.227C58.591,12.175 59.544,15.633 61.745,17.681C63.939,19.723 67.335,20.324 71.821,19.691C72.036,19.66 72.25,19.755 72.373,19.934C72.496,20.113 72.506,20.346 72.4,20.536C68.109,28.187 66.928,34.727 67.516,37.235C67.563,37.433 67.62,37.601 67.692,37.733C67.739,37.817 67.771,37.893 67.84,37.908C67.894,37.92 67.95,37.886 68.017,37.848C68.185,37.753 68.362,37.588 68.557,37.359C69.522,36.224 70.715,33.704 71.991,29.447C72.049,29.255 72.203,29.107 72.397,29.058C72.592,29.009 72.798,29.065 72.94,29.206C74.107,30.364 75.207,30.969 76.272,31.104C77.491,31.259 78.642,30.79 79.76,29.933C80.971,29.005 82.133,27.629 83.275,26.018C83.376,25.876 83.536,25.787 83.71,25.778C83.884,25.769 84.052,25.839 84.168,25.97C85.7,27.698 87.269,28.524 88.881,28.698C91.364,28.965 93.911,27.726 96.496,26.027C96.713,25.884 97,25.906 97.193,26.082C97.386,26.257 97.436,26.54 97.315,26.771C95.31,30.571 94.333,34.169 97.566,37.02C97.802,37.228 97.826,37.586 97.62,37.823C96.106,39.566 95.435,41.127 95.758,42.543C96.085,43.971 97.4,45.188 99.658,46.272C99.827,46.353 99.946,46.512 99.975,46.698C100.004,46.883 99.941,47.071 99.805,47.2L88.296,58.14C87.582,59.392 87.201,60.3 87.493,61.138C87.69,61.7 88.183,62.202 88.996,62.758C91.281,64.321 93.349,66.374 95.115,69.115C95.201,69.248 95.228,69.411 95.189,69.565C95.15,69.719 95.048,69.849 94.909,69.925C87.297,74.073 78.977,74.945 70.162,73.513C73.02,78.601 74.784,83.686 75.014,88.761C75.027,89.059 74.81,89.316 74.515,89.353C65.684,90.455 57.794,87.162 50.704,80.169C50.515,81.139 50.297,82.105 50.115,83.073C49.371,87.03 49.076,91.136 50.284,95.027C50.719,96.428 51.43,98.062 52.437,99.16C52.623,99.364 52.609,99.68 52.406,99.867C52.202,100.053 51.886,100.039 51.699,99.836C50.598,98.634 49.805,96.856 49.329,95.323C48.072,91.275 48.358,87.005 49.132,82.888C49.253,82.242 49.392,81.597 49.526,80.95ZM49.897,78.7C44.158,86.14 37.035,88.689 29.125,88.454C28.201,83.816 30.298,79.185 33.699,74.538C33.826,74.365 33.845,74.136 33.748,73.944C33.651,73.752 33.456,73.631 33.241,73.63C22.283,73.566 12.235,72.491 5.793,67.257C6.493,64.507 8.511,62.218 11.709,60.322C13.074,59.513 13.526,58.124 13.348,56.691C13.18,55.349 12.443,53.974 11.439,53.088C11.422,53.073 11.404,53.059 11.386,53.046C11.386,53.046 1.476,46.183 1.476,46.183C4.071,43.844 5.082,41.68 4.958,39.698C4.835,37.734 3.587,35.896 1.492,34.185C5.014,30.733 4.962,26.728 3,22.431C7.6,25.141 11.926,25.446 15.915,22.926C17.258,25.395 18.849,26.613 20.58,26.887C22.238,27.149 24.072,26.536 26.019,25.194C28.182,32.075 30.145,35.848 31.469,37.041C31.986,37.506 32.464,37.642 32.846,37.581C33.155,37.531 33.437,37.361 33.665,37.04C34.017,36.541 34.248,35.532 34.233,34.045C34.202,31.077 33.281,26.017 31.106,19.343C34.383,19.974 36.702,19.482 38.279,18.188C39.336,17.321 40.074,16.084 40.531,14.534C41.125,12.52 41.246,9.958 41.025,7.014C43.331,7.58 45.207,7.32 46.699,6.37C47.973,5.559 48.978,4.227 49.72,2.411C50.573,4.765 51.764,6.496 53.378,7.386C54.566,8.041 55.99,8.261 57.701,7.925C57.538,12.905 58.686,16.393 60.967,18.517C63.185,20.581 66.506,21.389 70.868,20.956C67.685,26.922 66.374,32.163 66.251,35.329C66.198,36.699 66.378,37.711 66.691,38.282C66.927,38.711 67.246,38.946 67.594,39.023C67.931,39.098 68.327,39.03 68.756,38.731C69.225,38.404 69.783,37.746 70.378,36.689C71.121,35.369 71.954,33.389 72.819,30.642C73.965,31.606 75.07,32.102 76.13,32.237C77.636,32.428 79.074,31.899 80.456,30.84C81.6,29.962 82.711,28.715 83.798,27.244C85.411,28.878 87.074,29.652 88.76,29.833C90.942,30.068 93.186,29.288 95.45,28.009C93.939,31.5 93.667,34.775 96.405,37.496C94.851,39.428 94.283,41.209 94.645,42.796C94.994,44.325 96.225,45.725 98.433,46.928L87.448,57.37C87.408,57.408 87.374,57.451 87.346,57.499C86.388,59.168 86.03,60.408 86.415,61.513C86.675,62.256 87.278,62.966 88.352,63.7C90.373,65.083 92.215,66.872 93.812,69.215C86.234,73.165 77.942,73.805 69.162,72.18C68.942,72.14 68.718,72.231 68.59,72.415C68.462,72.598 68.453,72.839 68.567,73.032C71.576,78.121 73.502,83.203 73.843,88.281C65.373,89.164 57.824,85.781 51.026,78.876C51.247,76.885 51.342,74.878 51.408,72.87C51.57,72.906 51.746,72.871 51.886,72.76C56.994,68.689 60.763,63.2 64.62,57.992C64.807,57.738 64.754,57.381 64.5,57.193C64.247,57.005 63.889,57.058 63.702,57.311C59.972,62.347 56.338,67.662 51.445,71.648C51.473,70.67 51.499,69.693 51.535,68.719C51.906,58.495 51.588,48.246 50.42,38.075C50.384,37.762 50.101,37.537 49.788,37.573C49.475,37.608 49.25,37.891 49.286,38.204C50.447,48.318 50.763,58.51 50.394,68.676C50.362,69.541 50.338,70.407 50.314,71.274C45.276,68.115 40.64,63.755 37.277,58.845C37.099,58.585 36.743,58.518 36.483,58.696C36.223,58.874 36.157,59.229 36.335,59.489C39.911,64.711 44.888,69.326 50.275,72.591C50.21,74.632 50.12,76.674 49.897,78.7ZM48.724,33.021C48.413,29.932 47.819,26.884 47.442,23.804C47.403,23.491 47.626,23.206 47.939,23.168C48.252,23.13 48.537,23.353 48.575,23.666C48.954,26.754 49.548,29.811 49.86,32.908C49.892,33.221 49.663,33.501 49.35,33.533C49.036,33.564 48.756,33.335 48.724,33.021Z" style="fill:#d7a500;"/>
        </g>
    </g>
</svg>
