<svg id="Layer_1" data-name="Layer 1" xmlns="http://www.w3.org/2000/svg" xmlns:xlink="http://www.w3.org/1999/xlink" viewBox="0 0 300 345"><defs><style>.cls-1{fill:#f8cd76;opacity:0.62;isolation:isolate;}.cls-2{fill:#ffedcf;}.cls-3{fill:none;stroke:#f3b65d;stroke-width:10px;}.cls-15,.cls-3{stroke-linecap:round;stroke-linejoin:round;}.cls-4{fill:url(#linear-gradient);}.cls-5{fill:#967667;}.cls-6{fill:#b6978b;}.cls-7{fill:#65554e;}.cls-8{fill:url(#radial-gradient);}.cls-9{fill:#56647a;}.cls-10{fill:#915025;}.cls-11{fill:#574138;}.cls-12{fill:#7c401e;}.cls-13{fill:#412d23;}.cls-14{fill:#663514;}.cls-15,.cls-16{fill:#a96130;}.cls-15{stroke:#412d23;stroke-width:9.3px;}.cls-17{fill:#bdaca3;}.cls-18{fill:#fff;}.cls-19{fill:#d4c7c1;}.cls-20{fill:#c17939;}</style><linearGradient id="linear-gradient" x1="149.98691" y1="87.23999" x2="149.98691" y2="253.12" gradientTransform="matrix(1, 0, 0, -1, 0, 488)" gradientUnits="userSpaceOnUse"><stop offset="0" stop-color="#967667"/><stop offset="1" stop-color="#574138"/></linearGradient><radialGradient id="radial-gradient" cx="-664.54583" cy="958.5" r="41.84" gradientTransform="translate(1432.21998 -1672.96997) scale(1.93 2)" gradientUnits="userSpaceOnUse"><stop offset="0" stop-color="#412d23"/><stop offset="0.99441" stop-color="#412d23" stop-opacity="0"/></radialGradient></defs><polygon class="cls-1" points="293.019 105.582 263.528 141.036 238.872 116 270.887 49.694 290.716 68.913 285.597 96.727 293.019 105.582"/><polygon class="cls-2" points="287.395 114.554 267.736 104.749 277.566 75.478 270.808 54.6 287.395 65.694 287.395 86.957 293.946 104.533 288.317 112.946 287.395 114.554"/><polygon class="cls-3" points="270.887 49.694 293.019 71.145 284.095 95.7 293.946 104.533 261.696 141.036 237.555 114.554 270.887 49.694"/><polygon class="cls-3" points="284.095 95.7 237.555 114.554 254.282 82.005 293.019 71.145 284.095 95.7"/><polygon class="cls-1" points="6.98 105.582 36.472 141.036 61.127 116 29.112 49.694 9.283 68.913 14.403 96.727 6.98 105.582"/><polygon class="cls-2" points="12.605 114.554 32.264 104.749 22.434 75.478 29.192 54.6 12.605 65.694 12.605 86.957 6.054 104.533 11.683 112.946 12.605 114.554"/><polygon class="cls-3" points="29.112 49.694 6.98 71.145 15.904 95.7 6.054 104.533 38.304 141.036 62.445 114.554 29.112 49.694"/><polygon class="cls-3" points="15.904 95.7 62.445 114.554 45.718 82.005 6.98 71.145 15.904 95.7"/><path class="cls-4" d="M263.58691,345h-227.2a36.4,36.4,0,0,1-36.4-36.4h0V255.2h300v53.4A36.4,36.4,0,0,1,263.58691,345Z"/><path class="cls-5" d="M299.98688,195.5v66.1a36.4,36.4,0,0,1-36.4,36.4h-227.2a36.4,36.4,0,0,1-36.4-36.4V195.5c0-33.1,15.7-63.2,41.4-85.4.5-.5,1.1-.9,1.6-1.4,18.9-15.8,42.9-27.5,69.9-33.2a176.10053,176.10053,0,0,1,26.5-3.5c3.5-.2,7.1-.3,10.7-.3,46.6,0,88.2,17.5,115.7,45a.1.1,0,0,0,.1.1h0C287.18689,138.2,299.98688,165.6,299.98688,195.5Z"/><path class="cls-6" d="M100.5869,188.3c-3.5,4.4-14.9,1.2-25.4-7.1s-24.8-26.9-21.3-31.4,23.5,7,34,15.4S104.0869,183.9,100.5869,188.3Z"/><path class="cls-7" d="M256.98688,108.7c-18.9-15.9-42.9-27.6-69.9-33.2a176.09891,176.09891,0,0,0-26.5-3.5,14.69775,14.69775,0,0,1-1,1.3,102.5213,102.5213,0,0,0-9.6,14.7,96.20032,96.20032,0,0,0-9.6-14.7c-.3-.4-.7-.9-1-1.3a176.09925,176.09925,0,0,0-26.5,3.5c-27,5.7-51,17.4-69.9,33.2-.5.5-1.1.9-1.6,1.4a15.93083,15.93083,0,0,0,1.3,1.3c18.5,17.8,42.5,31.1,54,54.4a526.86645,526.86645,0,0,1,21.4,50s1,16.7,31.8,25c30.8-8.3,31.8-25,31.8-25a526.87264,526.87264,0,0,1,21.4-50c11.5-23.3,35.5-36.6,54-54.4a15.92118,15.92118,0,0,0,1.3-1.3A9.15879,9.15879,0,0,0,256.98688,108.7Z"/><ellipse class="cls-8" cx="149.98689" cy="245.7" rx="80.7" ry="83.8"/><path class="cls-9" d="M101.8869,218.6c-9,24.6-34.3,36.4-56.4,26.4s-32.8-38-23.8-62.5h0C30.5869,157.9,110.8869,194,101.8869,218.6Z"/><path class="cls-10" d="M102.69,202.23a50.49143,50.49143,0,0,0-5.2-13.07l.14-.02,6.57-13.7L93.46,164.67l-13.68,6.52-.02.02a49.9347,49.9347,0,0,0-13.07-5.11l-5.07-13.95H46.39L41.32,166.1a50.393,50.393,0,0,0-13.08,5.28l-.02-.1-13.7-6.57L3.76,175.46l6.51,13.69.03.02,4.09,8.33,4.88,9.95,9.89,2.27a25.38467,25.38467,0,0,1,50.23,5.2,25.72071,25.72071,0,0,1-.76,6.19l8.25,11.81,17.05-5.97,12.58-4.41V207.31Z"/><path class="cls-11" d="M76.60786,326.7a9.7,9.7,0,0,1-6.3,2c-5.1,0-11.2-2.7-16.2-5.5a89.53879,89.53879,0,0,1-9.4-6.2c-.4,4.7-2.2,8.5-5.8,10.3a8.71978,8.71978,0,0,1-4,.9c-9.4,0-22.8-11.7-28.9-23.6a48.49019,48.49019,0,0,1-5-20.1v-3.4c.2-4,1.2-13.7,7.1-16.7a7.22,7.22,0,0,1,3.2-.8c-.5-5.2,0-10.4,3.4-13.3,6-5,15.8,1.7,22.7,7.2a174.75032,174.75032,0,0,1,24.1,23.9C75.20786,297.9,85.80786,319.1,76.60786,326.7Z"/><path class="cls-11" d="M298.79514,281.10009c-.2-4-1.2-13.7-7.1-16.7a7.22012,7.22012,0,0,0-3.2-.8c.6-5.2.1-10.5-3.4-13.3-6-5-15.8,1.7-22.7,7.2a180.57312,180.57312,0,0,0-24.1,23.9c-13.7,16.5-24.3,37.7-15.2,45.3a9.79972,9.79972,0,0,0,6.2,2c6.9,0,16.6-4.7,25.7-11.6.4,4.7,2.2,8.5,5.8,10.3a8.46005,8.46005,0,0,0,4.1.9c4.9,0,10.1-3.2,13.3-5.5a52.92987,52.92987,0,0,0,15.5-18.1A49.70994,49.70994,0,0,0,298.79514,281.10009Z"/><path class="cls-6" d="M199.3869,188.3c3.5,4.4,14.9,1.2,25.4-7.1s24.8-26.9,21.3-31.4-23.5,7-34,15.4S195.8869,183.9,199.3869,188.3Z"/><path class="cls-12" d="M104.32,225.91c-.13.35-.25.7-.39,1.04l-17.05,5.97-8.25-11.81a25.72008,25.72008,0,0,0,.76-6.19,25.38467,25.38467,0,0,0-50.23-5.2l-9.89-2.27-4.88-9.95a58.62232,58.62232,0,0,1,2.85-11.39,12.12672,12.12672,0,0,1,6.41-6.92,25.587,25.587,0,0,1,11.09-2.12c11.93,0,27.65,5.14,41.15,12.55,8.58,4.65,16.28,10.3,21.63,16.2C103.54,212.47,106.55,219.51,104.32,225.91Z"/><path class="cls-13" d="M99.6869,224.3a42.1441,42.1441,0,0,1-78.1-31.7h0c2.1-5.1,8-7.2,15.7-7.2,10.7,0,24.8,4.1,36.9,10,7.7,3.7,14.6,8.2,19.4,12.9C98.9869,213.6,101.6869,219.2,99.6869,224.3Z"/><ellipse class="cls-6" cx="60.1346" cy="266.50869" rx="13.9" ry="20.39999" transform="translate(-212.01989 290.48759) rotate(-82.32)"/><path class="cls-14" d="M212.22479,26.49689,197.77119.21356c-16.99981,0-23.97729,10.00067-23.84925,14.70905l.49714,18.27856V45.12891A19.9463,19.9463,0,0,1,168.81989,59.022L149.98689,71.7l-18.833-12.678a19.94628,19.94628,0,0,1-5.59918-13.89312V33.20117l.49713-18.27856c.12811-4.70838-6.84943-14.709-23.84925-14.709L87.749,26.49689A12.18474,12.18474,0,0,0,81.71723,37.065V69.16486a12.27912,12.27912,0,0,0,3.44689,8.55279l32.46511,33.42908a37.98393,37.98393,0,0,1,1.897,3.59326c3.26819,7.17419,6.8396,15.53912,10.60175,23.80609,2.60827,8.98065,9.91119,19.89148,19.5241,23.119V161.9c.11335-.03338.22217-.08191.3349-.11743.11274.03552.2215.084.33484.11743v-.23486c9.61286-3.22754,16.91584-14.13837,19.524-23.119,3.7622-8.267,7.3336-16.6319,10.6018-23.80609a37.9704,37.9704,0,0,1,1.89691-3.59327L214.80968,77.7177a12.27887,12.27887,0,0,0,3.447-8.55279V37.065A12.18474,12.18474,0,0,0,212.22479,26.49689Z"/><path class="cls-15" d="M35.00786,284.7c7,13.8,8,27.4,2.2,30.3s-20.8-7.3-27.8-21.1-5.4-32.2.4-35.2S28.00786,270.9,35.00786,284.7Z"/><path class="cls-11" d="M200.48689,264.4a38.0797,38.0797,0,0,0-4.5-7.6,50.06965,50.06965,0,0,0-5.7-6.5,8.26075,8.26075,0,0,1,.7,1.3c-10-12.5-27-19.9-41-2.4-14-17.5-31-10.2-41,2.4.2-.4.5-.9.7-1.3a44.23954,44.23954,0,0,0-5.7,6.5,38.08017,38.08017,0,0,0-4.5,7.6,17.58018,17.58018,0,0,0-1.6,9.5,21.54048,21.54048,0,0,0,1.2,4.7c.5,1.4,1,2.8,1.6,4.2a161.41564,161.41564,0,0,0,7.7,15.6,166.14367,166.14367,0,0,0,9.2,14.9,71.72839,71.72839,0,0,0,5.7,7.2,33.192,33.192,0,0,0,3.8,3.6,15.64038,15.64038,0,0,0,3,1.9c.3.2.8.3,1.1.5s.5.1.7.2.5.1.8.2a2.76767,2.76767,0,0,0,.9.1h1.1c.5,0,.5,0,.7-.1l.5-.1a12.85853,12.85853,0,0,0,1.9-.4,8.64962,8.64962,0,0,0,1.7-.7,12.90079,12.90079,0,0,0,1.6-.9,7.10047,7.10047,0,0,0,1.4-1,15.84,15.84,0,0,0,2.2-2.3l.9-1.2a5.39063,5.39063,0,0,0,.7-1.3l.6-1.2c.2-.4.3-.8.5-1.2a23.40063,23.40063,0,0,0,.9-2.4l.8-2.3.6-2.3a11.62952,11.62952,0,0,0,.4-1.8,11.63066,11.63066,0,0,0,.4,1.8l.6,2.3.8,2.3a23.40531,23.40531,0,0,0,.9,2.4c.2.4.3.8.5,1.2l.6,1.2c.2.4.4.8.7,1.3l.9,1.2a15.839,15.839,0,0,0,2.2,2.3,7.1007,7.1007,0,0,0,1.4,1c.5.3,1,.6,1.6.9a12.19909,12.19909,0,0,0,1.7.7,10.61942,10.61942,0,0,0,1.9.4l.5.1a2.64086,2.64086,0,0,1,.7.1h1.1c.3,0,.6-.1.9-.1a1.88,1.88,0,0,0,.8-.2c.2-.1.5-.1.7-.2a3.69934,3.69934,0,0,0,1.1-.5,15.63976,15.63976,0,0,0,3-1.9,26.55,26.55,0,0,0,3.8-3.6,71.72973,71.72973,0,0,0,5.7-7.2,166.14148,166.14148,0,0,0,9.2-14.9c2.8-5.1,5.4-10.3,7.7-15.6.6-1.4,1.1-2.7,1.6-4.2a21.53991,21.53991,0,0,0,1.2-4.7A22.38012,22.38012,0,0,0,200.48689,264.4Z"/><path class="cls-16" d="M150.087,99.6203,117.7095,68.87738a26.21722,26.21722,0,0,1-8.309-19.0116V33.54358l.73773-25.01288c.19007-6.443-7.14617-10.61523-13.096-7.448L53.29764,24.36926a16.4696,16.4696,0,0,0-8.951,14.46161V82.75708a16.1395,16.1395,0,0,0,5.11518,11.70386l48.17743,45.74511a50.70932,50.70932,0,0,1,2.815,4.91712c4.84994,9.81734,10.14985,21.26414,15.73281,32.57683,3.96086,12.576,15.207,27.949,29.96715,31.958l3.9328-59.25134Z"/><path class="cls-15" d="M264.79514,284.70009c-7,13.8-8,27.4-2.2,30.3s20.8-7.3,27.8-21.1,5.4-32.2-.4-35.2S271.79514,270.90007,264.79514,284.70009Z"/><path class="cls-12" d="M150.087,99.6203l32.3775-30.74292a26.21723,26.21723,0,0,0,8.309-19.0116V33.54358L190.03574,8.5307c-.19007-6.443,7.14618-10.61523,13.09594-7.448l43.74457,23.28656a16.4696,16.4696,0,0,1,8.95105,14.46161V82.75708a16.13949,16.13949,0,0,1-5.11517,11.70386L202.5347,140.20605a50.7007,50.7007,0,0,0-2.815,4.91712c-4.84995,9.81734-10.14985,21.26414-15.73281,32.57683-3.96086,12.576-15.207,27.949-29.96715,31.958l-3.9328-59.25134Z"/><path class="cls-15" d="M59.298,280.284c6.21124,7.48874,31.53145-25.02886,32.05475-8.34507S76.72909,311.68228,73.70787,314.2c-5.4,4.5-27-7-41.1-24s-20.3-40.8-14.9-45.3S45.198,263.384,59.298,280.284Z"/><path class="cls-10" d="M183.46378,207.31v15.23l12.58,4.41,17.05,5.97,8.25-11.81a25.72106,25.72106,0,0,1-.76-6.19,25.38467,25.38467,0,0,1,50.23-5.2l9.89-2.27,4.88-9.95,4.09-8.33.03-.02,6.51-13.69-10.76-10.75-13.7,6.57-.02.1a50.39292,50.39292,0,0,0-13.08-5.28l-5.07-13.95h-15.23l-5.07,13.95a49.93463,49.93463,0,0,0-13.07,5.11l-.02-.02-13.68-6.52-10.74,10.77,6.57,13.7.14.02a50.49216,50.49216,0,0,0-5.2,13.07Z"/><path class="cls-12" d="M195.65376,225.91c.13.35.25.7.39,1.04l17.05,5.97,8.25-11.81a25.72107,25.72107,0,0,1-.76-6.19,25.38467,25.38467,0,0,1,50.23-5.2l9.89-2.27,4.88-9.95a58.62235,58.62235,0,0,0-2.85-11.39,12.12672,12.12672,0,0,0-6.41-6.92,25.587,25.587,0,0,0-11.09-2.12c-11.93,0-27.65,5.14-41.15,12.55-8.58,4.65-16.28,10.3-21.63,16.2C196.43382,212.47,193.42381,219.51,195.65376,225.91Z"/><ellipse class="cls-6" cx="239.87859" cy="266.50808" rx="20.39999" ry="13.89999" transform="translate(-33.46436 34.4479) rotate(-7.67997)"/><path class="cls-15" d="M282.09513,244.90007c5.4,4.5-.8,28.3-14.9,45.3s-35.7,28.5-41.1,24c-3.02122-2.5177-18.16811-25.57721-17.64482-42.261s25.8435,15.83381,32.05475,8.34507C254.60511,263.38408,276.69514,240.40007,282.09513,244.90007Z"/><path class="cls-13" d="M278.48688,192.5h0a42.1441,42.1441,0,0,1-78.1,31.7h0C191.58691,202.7,269.68689,171,278.48688,192.5Z"/><path class="cls-17" d="M149.98689,237.8c-21.4-26.7-49.6,4.4-49.6,23.6l12.9,25.5,21.2,23.2,9.8-8.7,5.7-14.8,5.7,14.8,9.8,8.7,21.2-23.2,12.9-25.5C199.58691,242.2,171.3869,211,149.98689,237.8Z"/><path class="cls-13" d="M190.2869,238.9a44.23933,44.23933,0,0,1,5.7,6.5,38.07977,38.07977,0,0,1,4.5,7.6,17.58,17.58,0,0,1,1.6,9.5,21.54,21.54,0,0,1-1.2,4.7c-.5,1.4-1,2.8-1.6,4.2a161.41235,161.41235,0,0,1-7.7,15.6,166.14132,166.14132,0,0,1-9.2,14.9,71.72852,71.72852,0,0,1-5.7,7.2,33.19109,33.19109,0,0,1-3.8,3.6,15.63981,15.63981,0,0,1-3,1.9c-.3.2-.8.3-1.1.5s-.5.1-.7.2-.5.1-.8.2a2.768,2.768,0,0,1-.9.1h-1.1c-.5,0-.5,0-.7-.1l-.5-.1a12.8589,12.8589,0,0,1-1.9-.4,8.64954,8.64954,0,0,1-1.7-.7,12.901,12.901,0,0,1-1.6-.9,7.1,7.1,0,0,1-1.4-1,15.83844,15.83844,0,0,1-2.2-2.3l-.9-1.2a5.38969,5.38969,0,0,1-.7-1.3l-.6-1.2c-.2-.4-.3-.8-.5-1.2a23.4004,23.4004,0,0,1-.9-2.4l-.8-2.3-.6-2.3c-.2-.8-.3-1.5-.5-2.3l-.4-2.3c-.2-1.5-.4-3-.5-4.5s-.2-3-.2-4.4v-4.4c.1-5.8.6-11.5,1.2-17.2.7,5.7,1.6,11.3,2.8,16.7l1.1,4,1.2,3.9c.4,1.3,1,2.5,1.4,3.8l.8,1.8a9.15144,9.15144,0,0,0,.9,1.7,12.83006,12.83006,0,0,0,4.5,5.4c.2.1.4.3.6.4l.6.3a6.88878,6.88878,0,0,0,1,.4c.6.1.9.3,1.2.3h-1l-.3.1c-.1,0-.1.1-.2.1s-.2.1-.1.1a1.54645,1.54645,0,0,0,.6-.3,18.09979,18.09979,0,0,0,2.5-2,73.27107,73.27107,0,0,0,5.5-5.6c3.6-4,7-8.4,10.4-12.8s6.6-9,9.5-13.6c.7-1.2,1.4-2.3,2.1-3.5a24.47906,24.47906,0,0,0,1.6-3.3,14.48006,14.48006,0,0,0,.1-7.2A52.00013,52.00013,0,0,0,190.2869,238.9Z"/><path class="cls-13" d="M109.6869,238.9c-2.9,4.9-5.4,10.1-6.5,15.3a14.47979,14.47979,0,0,0,.1,7.2,14.18847,14.18847,0,0,0,1.6,3.3c.7,1.2,1.4,2.3,2.1,3.5,2.9,4.7,6.2,9.2,9.5,13.6s6.8,8.8,10.4,12.8a73.00273,73.00273,0,0,0,5.5,5.6,31.06377,31.06377,0,0,0,2.5,2c.3.2.7.3.6.3l-.1-.1c-.1,0-.1-.1-.2-.1l-.3-.1h-1c.3,0,.6-.2,1.2-.3a6.88969,6.88969,0,0,0,1-.4l.6-.3c.2-.1.4-.3.6-.4a13.58986,13.58986,0,0,0,4.5-5.4c.3-.5.6-1.1.9-1.7l.8-1.8c.5-1.3,1-2.5,1.4-3.8s.9-2.6,1.2-3.9l1.1-4a157.24169,157.24169,0,0,0,2.8-16.7c.6,5.7,1.1,11.4,1.2,17.2v4.4c0,1.5-.1,2.9-.2,4.4s-.3,3-.5,4.5l-.4,2.3a18.92018,18.92018,0,0,1-.5,2.3l-.6,2.3-.8,2.3a23.39823,23.39823,0,0,1-.9,2.4c-.2.4-.3.8-.5,1.2l-.6,1.2c-.2.4-.4.8-.7,1.3l-.9,1.2a15.839,15.839,0,0,1-2.2,2.3,7.10047,7.10047,0,0,1-1.4,1c-.5.3-1,.6-1.6.9a12.19909,12.19909,0,0,1-1.7.7,10.62153,10.62153,0,0,1-1.9.4l-.5.1a2.64,2.64,0,0,0-.7.1h-1.1c-.3,0-.6-.1-.9-.1a1.88,1.88,0,0,1-.8-.2c-.2-.1-.5-.1-.7-.2a3.69964,3.69964,0,0,1-1.1-.5,15.64086,15.64086,0,0,1-3-1.9,26.55148,26.55148,0,0,1-3.8-3.6,71.73239,71.73239,0,0,1-5.7-7.2,166.14509,166.14509,0,0,1-9.2-14.9c-2.8-5.1-5.4-10.3-7.7-15.6-.6-1.4-1.1-2.7-1.6-4.2a21.54039,21.54039,0,0,1-1.2-4.7,17.41011,17.41011,0,0,1,1.6-9.5,38.07819,38.07819,0,0,1,4.5-7.6A33.57983,33.57983,0,0,1,109.6869,238.9Z"/><path class="cls-18" d="M93.4869,208.2a13.8,13.8,0,1,1-19.3-12.9C81.7869,199.1,88.6869,203.5,93.4869,208.2Z"/><circle class="cls-18" cx="46.1869" cy="229.10001" r="5.4"/><circle class="cls-18" cx="258.69739" cy="208.01096" r="13.79999"/><circle class="cls-18" cx="225.2869" cy="229.10001" r="5.39999"/><ellipse class="cls-19" cx="124.21408" cy="246.78829" rx="14.1" ry="10.29999" transform="translate(-132.64671 145.0232) rotate(-41.67)"/><ellipse class="cls-19" cx="175.76355" cy="246.81039" rx="10.3" ry="14.10001" transform="translate(-125.45497 214.01412) rotate(-48.33)"/><path class="cls-20" d="M115.9869,177.7s30.8,13.4,34.1-61.7l-.1,100.7C149.98689,216.6,121.3869,208.2,115.9869,177.7Z"/><path class="cls-16" d="M149.98689,216.7l.1-100.7c3.3,75.1,33.9,61.7,33.9,61.7C178.58688,208.2,149.98689,216.6,149.98689,216.7Z"/><path class="cls-20" d="M52.30385,55.41461V45.28056a18.36318,18.36318,0,0,1,9.23783-15.93532L80.53542,18.46848a3.25872,3.25872,0,0,1,4.36493,4.58322L62.33446,58.34706a5.444,5.444,0,0,1-10.03061-2.93245Z"/><path class="cls-16" d="M247.67,55.41461V45.28056a18.36319,18.36319,0,0,0-9.23783-15.93532L219.43839,18.46848a3.25872,3.25872,0,0,0-4.36493,4.58322l22.56588,35.29536A5.444,5.444,0,0,0,247.67,55.41461Z"/><path class="cls-13" d="M189.2869,166.87c-7.8,53.54644-39.2,52.23815-39.2,52.23815h-.1s-31.5,1.30829-39.2-52.23815c0,0,17.5,42.33253,39.2,42.51942h.1C171.7869,209.20258,189.2869,166.87,189.2869,166.87Z"/></svg>