<svg xmlns="http://www.w3.org/2000/svg" xmlns:xlink="http://www.w3.org/1999/xlink" viewBox="0 0 300 345"><defs><style>.cls-1{fill:url(#linear-gradient);}.cls-2{fill:#4a2a12;}.cls-3{fill:#af9480;}.cls-4{fill:#937864;}.cls-5{fill:#643919;}.cls-6{fill:#a56934;}.cls-7{fill:#e7995d;}.cls-8,.cls-9{fill:#2f251e;}.cls-8{opacity:0.38;}.cls-12,.cls-13,.cls-8{isolation:isolate;}.cls-10{fill:#724221;}.cls-11{fill:#844334;}.cls-12{fill:#19b4d3;opacity:0.46;}.cls-13{fill:#81dfef;opacity:0.71;}.cls-14{fill:none;stroke:#724221;stroke-miterlimit:10;stroke-width:3.887px;}.cls-15{fill:#f8ba8a;}</style><linearGradient id="linear-gradient" x1="150" y1="334.95647" x2="150" y2="250.80619" gradientUnits="userSpaceOnUse"><stop offset="0" stop-color="#937864"/><stop offset="0.69" stop-color="#745035"/></linearGradient></defs><g id="Layer_1" data-name="Layer 1"><path class="cls-1" d="M300,262.07v46.5a36.40852,36.40852,0,0,1-29.7,35.78c-.43.08-.86.15-1.3.21a4.51088,4.51088,0,0,1-.53.08q-.65991.105-1.32.15a1.503,1.503,0,0,1-.29.03c-.46.05-.93.08-1.39.1-.18994.01-.37.02-.56.02-.43.02-.87.03-1.31.03-.91-.56-1.84-1.1-2.79-1.63995a79.91323,79.91323,0,0,0-9.9-4.72,10.32353,10.32353,0,0,0,.47-6.49c-1.7-6.52-9.76-10.06-18-7.91-5.74,1.51-10.04,5.37-11.55,9.78a57.00244,57.00244,0,0,0-7.53,1.16c-1.61.36-3.23.79-4.85,1.32-.47.15-.94.3-1.41.47-.84.29-1.68.6-2.52.94-.73.29-1.46.6-2.2.94-.38.16-.74.33-1.11.5-.73.34-1.46.71-2.2,1.1-.37.18-.74.38-1.11.59-.73.4-1.46.82-2.2,1.26-3.4,2.2-11.4,4.1-15.2,1.4-6.9-5-15.1-11.7-31.5-11.7a50.69568,50.69568,0,0,0-10.75,1.09,11.44455,11.44455,0,1,0-20.28,10.27c-.16.11-.31.23-.47.34-3.8,2.7-11.8.8-15.2-1.4-.74-.44-1.47-.86005-2.2-1.26-.37-.21-.74-.41-1.11-.59-.74-.38995-1.47-.76-2.2-1.1-.37-.17-.73-.34-1.11-.5-.74-.34-1.47-.65-2.2-.94-.84-.34-1.68-.65-2.52-.94-.47-.17-.94-.32-1.41-.47-1.62-.53-3.24-.96-4.85-1.32-17.09-3.81-33.55.89-46.51,8.18-.95.54-1.88,1.07995-2.79,1.63995-.44,0-.88-.01-1.31-.03-.19,0-.37006-.01-.56-.02-.46-.02-.93-.05-1.39-.1a1.503,1.503,0,0,1-.29-.03q-.66-.045-1.32-.15a4.51088,4.51088,0,0,1-.53-.08c-.44-.06-.87-.13-1.3-.21A36.40852,36.40852,0,0,1,0,308.57v-46.5Z"/><path class="cls-2" d="M181.5,343.67112c3.8,2.7,11.8.8,15.2-1.4a59.127,59.127,0,0,1,17.6-7.12c-6-7.62,3.67-28.69,17.3-47.68,13.9-19.36-14.4.6-14.4.6S219.79,308.97111,181.5,343.67112Z"/><path class="cls-2" d="M260.81,343.3311c.95.54,1.88,1.08,2.79,1.64a36.06877,36.06877,0,0,0,6.7-.62c11.55-14.2,13.1-51.88,13.1-51.88s-38.08-13.65-19.8,5.9C281.88,317.92112,260.81,343.3311,260.81,343.3311Z"/><path class="cls-3" d="M300,61.02V83.35a11.29863,11.29863,0,0,0-1.76.5c-7.3,2.7-10.58,11.96-7.35,20.67a18.25744,18.25744,0,0,0,9.11,10.3v98.07a5.20175,5.20175,0,0,0-.78-.29c-5.85-1.78-12.43994,2.88-14.72,10.41-2.29,7.52.6,15.06,6.44,16.83a10.10982,10.10982,0,0,0,9.06-1.97v24.2a36.49678,36.49678,0,0,1-36.4,36.3,73.04431,73.04431,0,0,0-31.93-10.99h-.01c-.00995-.01-.00995-.01-.02-.01h-.04c-1.56995-.13-3.14-.2-4.73-.2a59.88324,59.88324,0,0,0-9.27.74H217.59c-.07.01-.13.02-.2.03-.06.01-.13.02-.19.03a59.31878,59.31878,0,0,0-20.5,7.7,20.54325,20.54325,0,0,1-9.77,2.68,9.50419,9.50419,0,0,1-5.43-1.28c-.47-.34-.94-.69-1.43-1.05a63.57459,63.57459,0,0,0-10.36-6.48c-.13-.06-.26-.13-.4-.19A44.66043,44.66043,0,0,0,150,285.37v-72.8l7.92,1.99,13.93,3.5,8.06,2.02,1.09.27,4.87,1.22.83.21,4.61,1.16c.01-.01.01,0,.01,0l.35.09.47.12,5.18,1.3,1.28.32L196.28,228.24l-.01.01-.51.77-.02.03-.41.6V229.66l-4.06,6.09-1.12,1.67L187.47,241.43l-.8,1.21a.0098.0098,0,0,0-.01.01l-2.75,4.1-.00995.02s.04.12.13.34a28.64842,28.64842,0,0,0,6.37,9.99,17.321,17.321,0,0,0,2.69,2.1c.25995.17.53.32.81.47a12.80519,12.80519,0,0,0,3.86,1.34c3.91.69,8.69-.44,14.44-4.94,12.6-9.9,13.9-18.5,13.3-23.4-.03-.26-.06-.52-.11-.76,0,0,.01,0,0-.00995a9.71345,9.71345,0,0,0-1.29-3.73v-.01l-1.24-2.56-.06-.12-.1-.21.11-.12,2.2-2.35,2.19-2.34,1.4-1.49,2.05,2.25,1.77,1.94.01.01.27.3v.1a45.53235,45.53235,0,0,0,1.7,6c.09.25.18.51.28.77.01.00995.01.00995.01.02,2.58,6.86,7.35,14.83,13.41,2.41,9.2-18.9,2.41-26.99,2.41-26.99h-.01v-.01l-.45-.51-3.44-3.89-1.51-1.7L248.03,190.53l1.31-4.09.36-3.03c.01-.00995,0-.00995,0-.00995l1.61-13.42v-.01l.01-.05c.14.08.3.18.5.28a2.40215,2.40215,0,0,0,.32.17c.21.11.44.22.7.34,5.22,2.45,19.59,6.52,21.25-18.33,1.57995-23.49-2.39-28.73-3.73-29.79a1.00619,1.00619,0,0,0-.18-.15l-.02-.02a.5806.5806,0,0,0-.06994-.04.07587.07587,0,0,1-.04-.02c-.01,0-.02-.01-.03-.01a.17276.17276,0,0,0-.07-.04h-.01L254.5,150.27l.5-1.7,3.2-10.9,2.4-8.1,3.27-11.14v-.01l.14-.46.29-.99-.79-2.68994-7.44-25.33v-.01l-4.63-15.75-1.23-6.2L246.64,49l20.15-1.61,3.53-.28,3.14,1.47a.00979.00979,0,0,0,.01.01l13.79,6.46Z"/><path class="cls-4" d="M248.03,190.53111a24.69814,24.69814,0,0,0,11.98,6.34c10.28,2.55,15.59.55,18.24-2.85a2.484,2.484,0,0,1,4.43,1.67,71.005,71.005,0,0,1-.95,8.58c-.45,2.68,3.37822,4.18992,4.56,1.74,20.30377-42.09149-12.73134-84.08574-12.73-86.78.00012-.24081-6.09-5.27-9.55-1.27l5.93,4.35s4.45064.80751,2.56069,28.8575c-1.88,28.06-18.38069,20.45249-21.18068,18.75248l-1.98,16.52Z"/><path class="cls-4" d="M283.4,130.52111s11.89683-9.44677-9.39839-47.68554C262.64691,58.94612,289.1325,54.61623,289.1325,54.61623l-22.2564-9.64512L240.11323,50.119V64.06031l19.89636,31.03054Z"/><path class="cls-4" d="M192.71575,267.82914a1.41041,1.41041,0,0,0,1.1,1.4c2.8.5,10,1.3,16.6-2.5a1.44927,1.44927,0,0,1,1.9,2.1c-.9,1.2-2,2.5-3.1,3.7a1.38473,1.38473,0,0,0,1.6,2.2c20.3-10,20.1-32.4,20.1-34v-.2l-1.8-11.6a1.42136,1.42136,0,0,0-.2-.6l-6.3-8.9a1.30267,1.30267,0,0,0-1.8-.4l-1.1.6,2.2,4.4,1.4,2.9a10.37438,10.37438,0,0,1,1.4,4.5c.6,4.9-.7,13.5-13.3,23.4-7.8,6.1-13.8,6-18.3,3.6Z"/><path class="cls-5" d="M300,192.27111s-19.9952-72.46922-30.05674-69.95785c-11.4,11-5.54326,2.15786-5.54326,2.15786l-4.3904-50.2164S299.9,165.67112,299.9,152.87112v39.4Z"/><path class="cls-4" d="M231.65855,245.43146a1.94959,1.94959,0,0,0,1.0839,1.74c2.54436.7653,9.33705,2.2028,14.99152-2.28094,1.09812-.94383,2.94026,1.15088,2.33914,2.78558a49.20524,49.20524,0,0,1-2.29971,4.72705c-.77772,1.42874.84988,4.05976,2.14548,3.1935,18.86237-12.37482,11.307-37.62173,10.86623-39.13919l-.05445-.18744L256.2948,206.33a1.38333,1.38333,0,0,0-.29964-.46439l-6.69424-6.13675a1.06174,1.06174,0,0,0-1.41059-.11379l-.72128.5248,2.3868,2.99738s6.75851,14.66083-3.20707,28.01227C238.58391,242.25233,232.7,223.47111,232.7,223.47111Z"/><path class="cls-5" d="M250.03806,205.67891S254.4,204.17111,267.1,241.77111s-3.5,56.6-3.5,56.6a36.28611,36.28611,0,0,0,19.8-5.9c3.2-32.8-18.84578-96.1-29.84578-116.2l-.55422,17.7c-3.5-6.3-2.50177-13.58484-2.50177-13.58484Z"/><path class="cls-5" d="M217.2,288.07112a58.36839,58.36839,0,0,1,14.4-.6c9.1-24.5,5.5-47.4,2.9-57.9-.9-3.5-1.6-5.6-1.7-6v-.1h0c-.7-.6-9.5-7.7-10,1.8v1c1.1,2.2,2.1,4.3,2.9,6.4C237.8,263.67112,221.5,286.8711,217.2,288.07112Z"/><path class="cls-5" d="M209.36585,230.67111a9.7334,9.7334,0,0,0,6.9-1.5c3.5-2,6.9-3.7,10.4-5.6,18.9-9.6,27.81218-35,20.85421-47.3s3.0471-21.21043,7.5458-27.8c6.54357-10.2,7.38845-16.2391,8.58845-24.5391C268.1204,99.12,252.531,70.0138,247.52007,62.58381c-20.6468-20.287,26.50169-19.864,46.4458-5.45987-30.20631-20.64734-51.60618-14.73115-57.481-12.65767s-13.00776,7.37984-10.20775,14.47985c.2.5,11.17938,8.63474,16.59672,17.81017s12.75792,26.92834,10.79205,44.71482-5.80118,23.12742-19.77594,36.6c-4.95824,4.78007-5.21661,10.43727-1.36325,15.39249,2.08751,2.68443,7.76527,5.61257,7.90386,12.08826.39439,18.42923-22.34249,19.32924-29.24249,18.42923-5-.8-8.62218,9.49-9.82218,14.49A9.95124,9.95124,0,0,0,209.36585,230.67111Z"/><path class="cls-2" d="M215.4,230.67111a9.73343,9.73343,0,0,0,6.9-1.5c3.5-2,6.9-3.7,10.4-5.6,18.9-9.6,27.81218-35,20.85421-47.3s3.0471-21.21043,7.54579-27.8c6.54357-10.2,7.38846-16.2391,8.58846-24.5391,4.46608-24.812-11.12334-53.91822-16.13425-61.3482C243.776,50.14637,266.9965,42.07254,300,63.52394v-6.4c-30.20631-20.64733-51.60617-14.73115-57.481-12.65767s-13.00776,7.37984-10.20775,14.47985c.2.5,11.17938,8.63474,16.59672,17.81017S261.66586,103.68463,259.7,121.47111s-5.80118,23.12742-19.77593,36.6c-4.95824,4.78007-5.21662,10.43727-1.36326,15.39249,2.08751,2.68443,7.76528,5.61257,7.90386,12.08826C246.85905,203.9811,225.5,211.97113,218.6,211.07112a9.92981,9.92981,0,0,0-3.2,19.6Z"/><path class="cls-2" d="M118.5,343.67112c-3.8,2.7-11.8.8-15.2-1.4a59.127,59.127,0,0,0-17.6-7.12c6-7.62-3.67-28.69-17.3-47.68-13.9-19.36,14.4.6,14.4.6S80.21,308.97111,118.5,343.67112Z"/><path class="cls-2" d="M39.19,343.3311c-.95.54-1.88,1.08-2.79,1.64a36.06877,36.06877,0,0,1-6.7-.62c-11.55-14.2-13.1-51.88-13.1-51.88s38.08-13.65,19.80005,5.9C18.12,317.92112,39.19,343.3311,39.19,343.3311Z"/><path class="cls-3" d="M150,212.57v72.8a44.66043,44.66043,0,0,0-19.31,3.98c-.14.06-.27.13-.4.19A62.958,62.958,0,0,0,119.96,296c-.5.37-.98.72-1.46,1.07a9.50419,9.50419,0,0,1-5.43,1.28,20.54325,20.54325,0,0,1-9.77-2.68,59.31878,59.31878,0,0,0-20.5-7.7c-.06-.01-.13-.02-.19-.03-.07-.01-.13-.02-.2-.03H82.4a59.88324,59.88324,0,0,0-9.27-.74c-1.59,0-3.16.07-4.73.2h-.04c-.01,0-.01,0-.02.01h-.01A73.04431,73.04431,0,0,0,36.4,298.37a36.286,36.286,0,0,1-19.8-5.9A35.97571,35.97571,0,0,1,0,262.07V249.39a12.03935,12.03935,0,0,0,12.04-12.04A12.03934,12.03934,0,0,0,0,225.31V124.14a8.55784,8.55784,0,1,0,.45-15.49q-.225.10493-.45.21v-7.4c3.66,2.76,7.75,3.74,11.2,2.24,6.24-2.7,8.01-12.48,3.95-21.84C11.82,74.16,5.58,69.15,0,69.11V61.02l12.74-5.97,13.79-6.46a.00979.00979,0,0,0,.00995-.01l3.14-1.47,3.53.28L53.36,49,49.79,66.99l-1.23,6.2L43.93,88.94v.01l-7.44,25.33L35.7,116.97l.29.99.14.46v.01l3.27,11.14,2.4,8.1,3.2,10.9.5,1.7L30.06,122.31h-.01c-.01.01-.04.01-.07.04-.01,0-.02.01-.03.01a.07587.07587,0,0,1-.04.02c-.02.01-.03.02-.05.03-.02.02-.03.02-.04.03a1.68267,1.68267,0,0,0-.23.2c-1.38,1.14-5.24,6.53-3.68006,29.74,1.66,24.85,16.03,20.78,21.25,18.33.26-.12.49-.23.7-.34a2.40215,2.40215,0,0,0,.32-.17c.2-.1.36-.2.5-.28l.01.05v.01L50.3,183.4s-.01,0,0,.00995l.36,3.03,1.31,4.09L54.9,199.67l-1.51,1.7-3.44,3.89-.45.51v.01h-.01s-6.79,8.09,2.41,26.99c6.06,12.42,10.83,4.45,13.41-2.41,0-.01,0-.01.01-.02.1-.26.19-.52.28-.77a45.53235,45.53235,0,0,0,1.7-6v-.1l.27-.3.01-.01,1.77-1.94,2.05-2.25,1.4,1.49,2.19,2.34,2.2,2.35.11.12-.1.21-.06.12-1.24,2.56v.01a9.71345,9.71345,0,0,0-1.29,3.73c-.01.00995,0,.00995,0,.00995-.05.24005-.08.5-.11.76-.6,4.9.7,13.5,13.3,23.4,5.75,4.5,10.53,5.63,14.44,4.94a12.80519,12.80519,0,0,0,3.86-1.34c.28-.15.55-.3.81-.47a17.321,17.321,0,0,0,2.69-2.1.23393.23393,0,0,1,.07-.07,29,29,0,0,0,6.43-10.26l-2.74-4.1-.77-1.15-2.51-3.76-6.27-9.38-.01-.01-2.4-3.6,1.32-.33,10.58-2.66,14.85-3.72,15.29-3.84Z"/><path class="cls-4" d="M51.97,190.53111a24.69814,24.69814,0,0,1-11.98,6.34c-10.28,2.55-15.59.55-18.24-2.85a2.484,2.484,0,0,0-4.43,1.67,71.005,71.005,0,0,0,.95,8.58c.45,2.68-3.37822,4.18992-4.56,1.74-20.30377-42.09149,12.73134-84.08574,12.73-86.78-.00012-.24081,6.09-5.27,9.55-1.27l-5.93,4.35s-4.45064.80751-2.56069,28.8575c1.88,28.06,18.38069,20.45249,21.18068,18.75248l1.98,16.52Z"/><path class="cls-4" d="M16.6,130.52111s-11.89683-9.44677,9.39839-47.68554C37.35309,58.94612,10.8675,54.61623,10.8675,54.61623l22.2564-9.64512L59.88677,50.119V64.06031L39.99041,95.09085Z"/><path class="cls-4" d="M107.28425,267.82914a1.41041,1.41041,0,0,1-1.1,1.4c-2.8.5-10,1.3-16.6-2.5a1.44927,1.44927,0,0,0-1.9,2.1c.9,1.2,2,2.5,3.1,3.7a1.38473,1.38473,0,0,1-1.6,2.2c-20.3-10-20.1-32.4-20.1-34v-.2l1.8-11.6a1.42136,1.42136,0,0,1,.2-.6l6.3-8.9a1.30267,1.30267,0,0,1,1.8-.4l1.1.6-2.2,4.4-1.4,2.9a10.37438,10.37438,0,0,0-1.4,4.5c-.6,4.9.7,13.5,13.3,23.4,7.8,6.1,13.8,6,18.3,3.6Z"/><path class="cls-5" d="M0,192.27111s19.9952-72.46922,30.05674-69.95785c11.4,11,5.54326,2.15786,5.54326,2.15786l4.3904-50.2164S.1,165.67112.1,152.87112v39.4Z"/><path class="cls-4" d="M68.34145,245.43146a1.94959,1.94959,0,0,1-1.0839,1.74c-2.54436.7653-9.337,2.2028-14.99152-2.28094-1.09812-.94383-2.94026,1.15088-2.33914,2.78558a49.20524,49.20524,0,0,0,2.29971,4.72705c.77772,1.42874-.84988,4.05976-2.14548,3.1935-18.86237-12.37482-11.307-37.62173-10.86623-39.13919l.05445-.18744L43.7052,206.33a1.38333,1.38333,0,0,1,.29964-.46439l6.69424-6.13675a1.06174,1.06174,0,0,1,1.41059-.11379l.72128.5248-2.3868,2.99738s-6.75851,14.66083,3.20707,28.01227C61.41609,242.25233,67.3,223.47111,67.3,223.47111Z"/><path class="cls-5" d="M49.96194,205.67891S45.6,204.17111,32.9,241.77111s3.5,56.6,3.5,56.6a36.28611,36.28611,0,0,1-19.8-5.9c-3.2-32.8,18.84578-96.1,29.84578-116.2l.55422,17.7c3.5-6.3,2.50177-13.58484,2.50177-13.58484Z"/><path class="cls-5" d="M82.8,288.07112a58.36839,58.36839,0,0,0-14.4-.6c-9.1-24.5-5.5-47.4-2.9-57.9.9-3.5,1.6-5.6,1.7-6v-.1h0c.7-.6,9.5-7.7,10,1.8v1c-1.1,2.2-2.1,4.3-2.9,6.4C62.2,263.67112,78.5,286.8711,82.8,288.07112Z"/><path class="cls-5" d="M90.63415,230.67111a9.7334,9.7334,0,0,1-6.9-1.5c-3.5-2-6.9-3.7-10.4-5.6-18.9-9.6-27.81218-35-20.85421-47.3s-3.0471-21.21043-7.5458-27.8c-6.54357-10.2-7.38845-16.2391-8.58845-24.5391C31.8796,99.12,47.469,70.0138,52.47993,62.58381c20.6468-20.287-26.50169-19.864-46.4458-5.45987,30.20631-20.64734,51.60618-14.73115,57.481-12.65767s13.00776,7.37984,10.20775,14.47985c-.2.5-11.17938,8.63474-16.59672,17.81017s-12.75792,26.92834-10.792,44.71482,5.80118,23.12742,19.77594,36.6c4.95824,4.78007,5.21661,10.43727,1.36325,15.39249-2.08751,2.68443-7.76527,5.61257-7.90386,12.08826C59.17509,203.9811,81.912,204.88111,88.812,203.9811c5-.8,8.62218,9.49,9.82218,14.49A9.95124,9.95124,0,0,1,90.63415,230.67111Z"/><path class="cls-2" d="M84.6,230.67111a9.73343,9.73343,0,0,1-6.9-1.5c-3.5-2-6.9-3.7-10.4-5.6-18.9-9.6-27.81218-35-20.85421-47.3s-3.0471-21.21043-7.54579-27.8c-6.54357-10.2-7.38846-16.2391-8.58846-24.5391C25.84546,99.12,41.43488,70.01379,46.44579,62.58381,56.224,50.14637,33.0035,42.07254,0,63.52394v-6.4C30.2063,36.47661,51.60616,42.39279,57.481,44.46627s13.00776,7.37984,10.20775,14.47985c-.2.5-11.17938,8.63474-16.59672,17.81017S38.33414,103.68463,40.3,121.47111s5.80118,23.12742,19.77593,36.6c4.95824,4.78007,5.21662,10.43727,1.36326,15.39249-2.08751,2.68443-7.76528,5.61257-7.90386,12.08826C53.141,203.9811,74.5,211.97113,81.4,211.07112a9.92981,9.92981,0,0,1,3.2,19.6Z"/><path class="cls-5" d="M227.64,165.9011c-14.55-37.03-4.06-55.11-3.76-58.22.3-3.12-.58-5.01-2.68-5.51a8.75026,8.75026,0,0,0-1.6-.2,7.03686,7.03686,0,0,0-5.1,2.2c-4.1,4.5-32.1,41.9-42.9,56.4a74.0577,74.0577,0,0,0-43.19995,0c-10.8-14.5-38.8-51.9-42.9-56.4a7.03687,7.03687,0,0,0-5.1-2.2,8.75015,8.75015,0,0,0-1.6.2c-2.1.5-2.98,2.39-2.68,5.51.3,3.11,10.79,21.19-3.76,58.22a6.98974,6.98974,0,0,0,3.55,8.82c15.66,7.55,7.19,22.85,7.19,22.85a47.82776,47.82776,0,0,0-4.8,20,54.76863,54.76863,0,0,0,.4,7c2,15.6,10.6,28.6,24.6,37.1a50.76981,50.76981,0,0,0,0,7.8,68.41518,68.41518,0,0,0,11.8,32c8.88,12.37,20.94,18.97,34.9,19,13.96-.03,26.02-6.63,34.9-19a68.41508,68.41508,0,0,0,11.8-32,50.77234,50.77234,0,0,0,0-7.8c14-8.5,22.6-21.5,24.6-37.1a54.77046,54.77046,0,0,0,.4-7,47.82793,47.82793,0,0,0-4.8-20s-8.47-15.3,7.19-22.85A6.98973,6.98973,0,0,0,227.64,165.9011Z"/><path class="cls-6" d="M189.7,268.67112h0c-1.5,16.9-13.3,44.6-39.7,44.6s-38.2-27.8-39.7-44.7c-.4-4.7,0-8.5,1-10.7a2.50654,2.50654,0,0,1,.4-.7c1.7-2.4,5.5-4,10.1-5,11.6-2.4,28.2-1.2,28.2-1.2s16.6-1.1,28.2,1.4c4.6,1,8.4,2.5,10.1,5a2.50629,2.50629,0,0,1,.4.7h0C189.8,260.17112,190.1,263.97111,189.7,268.67112Z"/><ellipse class="cls-7" cx="150.00001" cy="272.17112" rx="23.7" ry="31.29999"/><path class="cls-8" d="M188.7,257.97111c1,2.2,1.4,6,1,10.7h0c-10.1,5.3-23.3,8.3-39.7,8.3h0c-16.4,0-29.6-3-39.7-8.3-.4-4.7,0-8.5,1-10.7-15.3-7.5-23.8-20-25.6-34.4,3.6-24.8,32.7-48.1,64.4-48.1s60.8,23.3,64.4,48.1C212.6,237.97111,204.1,250.47111,188.7,257.97111Z"/><path class="cls-6" d="M125.4,166.64109c.17,4.3-10.24,23.1-14.3,26.3-.26.2-.43.4-.68.6a14.11565,14.11565,0,0,1-5.69,1.32,56.59124,56.59124,0,0,1-8.36-.12c-1.65-2.35-2.07,2.38-4.01.23,2.96-7.41,3.34-15.89-9.35-22.68a7.53081,7.53081,0,0,1-3-8.82,99.71812,99.71812,0,0,0,2.8-53.52.03092.03092,0,0,1-.01-.02C84.37,106.87113,125.4,166.64109,125.4,166.64109Z"/><path class="cls-6" d="M214.8,217.47111a41.67018,41.67018,0,0,1-.4,6.1c-1.8,14.4-10.3,26.9-25.7,34.4-10,4.9-22.8,7.7-38.7,7.7h0c-15.9,0-28.8-2.9-38.7-7.8-15.3-7.5-23.8-20-25.6-34.4a41.666,41.666,0,0,1-.4-6.1c0-26.6,30.9-53.2,64.8-53.2S214.8,190.8711,214.8,217.47111Z"/><path class="cls-5" d="M112.99227,190.091c-.7,2.78-10.94,5.92-17.4,4.04.27-.68.53-1.39.77-2.11005,2.37-7.17,2.66-16.24-8.86-22.41a7.53081,7.53081,0,0,1-3-8.82c7.91-23.8-1.66433-42.77028-3.88436-52.51027-4.91405-.47159,8.86189,2.77658,9.23189,3.41653,3.01,5.24,13.54248,24.33373,10.88245,45.32372a4.65385,4.65385,0,0,0,2.39,4.61005C109.22225,165.041,122.07229,174.501,112.99227,190.091Z"/><path class="cls-4" d="M108.5,192.7711c-.7,2.78-10.94,5.92-17.4,4.04.27-.68006.53-1.39.77-2.11005,2.37-7.17,2.66-16.24-8.86-22.41a7.53081,7.53081,0,0,1-3-8.82,99.71812,99.71812,0,0,0,2.8-53.52c.04.09.27.48.64,1.12,3.01,5.24,15.45,27.64,12.79,48.63a4.65386,4.65386,0,0,0,2.39,4.61005C104.73,167.72111,117.58,177.18113,108.5,192.7711Z"/><path class="cls-3" d="M95.3,192.61112c-.34.83-1.64,1.56-3.43,2.09,2.37-7.17,2.66-16.24-8.86-22.41a7.53081,7.53081,0,0,1-3-8.82,99.71812,99.71812,0,0,0,2.8-53.52c.04.09.27.48.64,1.12,3.15,8.64,9.47,29.21,4.51,47.04a4.6279,4.6279,0,0,0,1.7,4.91C95.2,167.28111,106.55,178.49113,95.3,192.61112Z"/><path class="cls-6" d="M174.6,166.64109c-.17,4.3,10.24,23.1,14.30005,26.3.26.2.43.4.68.6a14.11566,14.11566,0,0,0,5.69,1.32,56.59114,56.59114,0,0,0,8.36-.12c1.65-2.35,2.07,2.38,4.01.23-2.96-7.41-3.34-15.89,9.35-22.68a7.53082,7.53082,0,0,0,3-8.82,99.718,99.718,0,0,1-2.8-53.52.03092.03092,0,0,0,.01-.02C215.63,106.87113,174.6,166.64109,174.6,166.64109Z"/><path class="cls-5" d="M187.00771,190.091c.7,2.78,10.94,5.92,17.4,4.04-.27-.68-.53-1.39-.77-2.11005-2.37-7.17-2.66-16.24,8.86-22.41a7.5308,7.5308,0,0,0,3-8.82c-7.91-23.8,1.66434-42.77028,3.88437-52.51027,4.914-.47159-8.8619,2.77658-9.23189,3.41653-3.01,5.24-13.54249,24.33373-10.88246,45.32372a4.65385,4.65385,0,0,1-2.39,4.61005C190.77773,165.041,177.9277,174.501,187.00771,190.091Z"/><path class="cls-4" d="M191.5,192.7711c.7,2.78,10.94,5.92,17.4,4.04-.27-.68006-.53-1.39-.77-2.11005-2.37-7.17-2.66-16.24,8.86-22.41a7.53082,7.53082,0,0,0,3-8.82,99.718,99.718,0,0,1-2.8-53.52c-.04.09-.27.48-.64,1.12-3.01,5.24-15.45,27.64-12.79,48.63a4.65385,4.65385,0,0,1-2.39,4.61005C195.27,167.72111,182.42,177.18113,191.5,192.7711Z"/><path class="cls-3" d="M204.7,192.61112c.34.83,1.64,1.56,3.43,2.09-2.37-7.17-2.66-16.24,8.86-22.41a7.53082,7.53082,0,0,0,3-8.82,99.718,99.718,0,0,1-2.8-53.52c-.04.09-.27.48-.64,1.12-3.15,8.64-9.47,29.21-4.51,47.04a4.62792,4.62792,0,0,1-1.7,4.91C204.8,167.28111,193.45,178.49113,204.7,192.61112Z"/><path class="cls-7" d="M118.4,242.17111l.1,8.6a3.15906,3.15906,0,0,0,3.2,3.2h.3l4.4-.4a3.28045,3.28045,0,0,0,2.9-3.4l-.6-8.3Z"/><path class="cls-7" d="M181.6,241.97111l-.1,8.6a3.15906,3.15906,0,0,1-3.2,3.2H178l-4.4-.4a3.28043,3.28043,0,0,1-2.9-3.4l.6-8.3Z"/><path class="cls-7" d="M175.6,245.8711a49.0669,49.0669,0,0,1-7.7.9c-2.5.2-5.4-2.3-8.1-5.8a25.99159,25.99159,0,0,1-9.8-9.4,26.76827,26.76827,0,0,1-9.8,9.4c-2.7,3.5-5.6,6.1-8.1,5.8a49.06912,49.06912,0,0,1-7.7-.9c-11.3-2.1-30.4-8.6-24.3-29.6,4.1-11.6,12.8-21.2,26.6-21.2a26.40726,26.40726,0,0,1,13.7,3.5,5.00433,5.00433,0,0,1,2.5,4.6l-.4,7.9a4.935,4.935,0,0,0,4.7,5.2h.4l6.8-.2c2.7-.1,4.7-1.8,4.3-4.5a74.57827,74.57827,0,0,1-1-9.5c0-3.1,2.5-3.9,4.3-4.7a28.22362,28.22362,0,0,1,11.5-2.4c13.7,0,22.5,9.6,26.6,21.2C206,237.17111,186.9,243.77111,175.6,245.8711Z"/><path class="cls-9" d="M132.3,221.57112v.1c0,7.8-4.3,14.2-9.5,14.2s-9.5-6.4-9.5-14.2c0-5.2,1.9-9.8,4.7-12.2Z"/><path class="cls-9" d="M167.7,221.57112v.1c0,7.8,4.3,14.2,9.5,14.2s9.5-6.4,9.5-14.2c0-5.2-1.9-9.8-4.7-12.2Z"/><path class="cls-5" d="M91.7,197.07112l6.2-1.3c2-.4,3.8-.9,5.7-1.4a27.58564,27.58564,0,0,0,2.7-.8l.7-.2c.2-.1.5-.1.6-.2s.3-.1.4-.2l.5-.2a16.31021,16.31021,0,0,0,3.9-3.5,90.25865,90.25865,0,0,0,7-9.6c2.2-3.4,4.4-7,6.7-10.5a62.75436,62.75436,0,0,1-3.3,12.2,48.05763,48.05763,0,0,1-6.1,11.4,20.2219,20.2219,0,0,1-5.2,4.9l-.9.5c-.3.1-.7.3-1,.4l-.9.3-.8.2a19.094,19.094,0,0,1-3.3.6,21.53608,21.53608,0,0,1-6.7-.2A16.06887,16.06887,0,0,1,91.7,197.07112Z"/><ellipse class="cls-9" cx="150.10001" cy="162.8711" rx="17.60001" ry="8.39999"/><ellipse class="cls-10" cx="130.6895" cy="198.8696" rx="7.79983" ry="14.69967" transform="translate(-81.92709 91.99093) rotate(-30.00073)"/><path class="cls-7" d="M107.8,207.27111l-7.2-4.7a3.20218,3.20218,0,0,0-4.4.9c0,.1-.1.1-.1.2l-2.1,3.9a3.24079,3.24079,0,0,0,1.2,4.3l7.3,4Z"/><path class="cls-7" d="M101.6,220.3711l-8.4,2.2a3.23021,3.23021,0,0,0-2.3,3.9c0,.1,0,.2.1.2l1.4,4.1a3.30267,3.30267,0,0,0,4,2l7.9-2.6Z"/><path class="cls-7" d="M104.9,234.57112l-4.7,7.2a3.20218,3.20218,0,0,0,.9,4.4c.1,0,.1.1.2.1l3.9,2.1a3.24081,3.24081,0,0,0,4.3-1.2l4-7.3Z"/><ellipse class="cls-10" cx="169.2834" cy="198.69101" rx="14.69967" ry="7.79983" transform="translate(-87.43036 245.94597) rotate(-59.99927)"/><path class="cls-7" d="M192.2,207.07112l7.2-4.7a3.20218,3.20218,0,0,1,4.4.9c0,.1.1.1.1.2l2.1,3.9a3.24081,3.24081,0,0,1-1.2,4.3l-7.3,4Z"/><path class="cls-7" d="M198.5,220.17111l8.4,2.2a3.23021,3.23021,0,0,1,2.3,3.9c0,.1,0,.2-.1.2l-1.4,4.1a3.30265,3.30265,0,0,1-4,2l-7.9-2.6Z"/><path class="cls-7" d="M195.1,234.3711l4.7,7.2a3.20217,3.20217,0,0,1-.9,4.4c-.1,0-.1.1-.2.1l-3.9,2.1a3.24081,3.24081,0,0,1-4.3-1.2l-4-7.3Z"/><path class="cls-5" d="M208.5,197.07112a17.40518,17.40518,0,0,1-6.2,2.4,24.96035,24.96035,0,0,1-6.7.2,19.09423,19.09423,0,0,1-3.3-.6l-.8-.2-.9-.3c-.3-.1-.7-.3-1-.4l-.9-.5a20.22224,20.22224,0,0,1-5.2-4.9,44.70851,44.70851,0,0,1-6.1-11.4,56.6057,56.6057,0,0,1-3.4-12.2c2.3,3.5,4.5,7,6.7,10.5a84.297,84.297,0,0,0,7,9.6,18.75221,18.75221,0,0,0,3.9,3.5l.5.2c.1.1.3.1.4.2a1.42109,1.42109,0,0,0,.6.2l.7.2a27.58482,27.58482,0,0,0,2.7.8c1.8.5,3.7,1,5.7,1.4Z"/><ellipse class="cls-9" cx="149.9" cy="170.17111" rx="30.8" ry="12.2"/><ellipse class="cls-8" cx="149.9" cy="176.27111" rx="29.8" ry="12.2"/><polygon class="cls-9" points="174.6 138.271 149.9 138.271 149.9 138.471 125.4 138.471 134.2 166.771 150.1 166.771 150.1 166.571 165.8 166.571 174.6 138.271"/><path class="cls-11" d="M167.4,160.47111a10.21123,10.21123,0,0,1-3.8,2.4,36.45241,36.45241,0,0,1-13.5,2.2,38.62505,38.62505,0,0,1-13.5-2.2,10.21156,10.21156,0,0,1-3.8-2.4,3.19432,3.19432,0,0,1-1.1-2.4v4.8c0,3.9,8.2,7,18.4,7s18.4-3.1,18.4-7v-4.8A3.84956,3.84956,0,0,1,167.4,160.47111Z"/><ellipse class="cls-9" cx="150.10002" cy="138.47111" rx="24.6" ry="10.3"/><circle class="cls-12" cx="183.2" cy="233.47111" r="13.3"/><path class="cls-13" d="M170.8,240.17111s19.8-8.6,15.3-18.1,8.6,3.5,8.6,3.5l1.8,11.6s-7.4-6.1-20.4,6.9h-3.3Z"/><circle class="cls-14" cx="182.80001" cy="233.47111" r="13.7"/><path class="cls-15" d="M178.3,252.77111c0-.2,0-.3-.1-.4a12.91431,12.91431,0,0,0-2.5-6.3l-.1-.2-.3-.4-8.9-12-2.2-3a17.71978,17.71978,0,0,0-24.8-3.7h0a16.24009,16.24009,0,0,0-3.7,3.7l-2.2,3-8.9,12-.3.4-.1.2a14.916,14.916,0,0,0-2.5,6.3.60122.60122,0,0,1-.1.4,15.0375,15.0375,0,0,0,0,3,14.25958,14.25958,0,0,0,28.2,1,14.41133,14.41133,0,0,0,28.5-4Z"/><path class="cls-6" d="M143.8,251.47111c-2.3,6.6-8.4,10.1-11.9,8.5s-2.9-7.7.1-14.1a44.75678,44.75678,0,0,1,4.2-7l.1-.1c2.9-4,6.2-6.8,7.9-4.9a7.00489,7.00489,0,0,1,1.3,3.9A39.40319,39.40319,0,0,1,143.8,251.47111Z"/><path class="cls-6" d="M156.2,251.47111c2.3,6.6,8.4,10.1,11.9,8.5s2.9-7.7-.1-14.1a44.756,44.756,0,0,0-4.2-7l-.1-.1c-2.9-4-6.2-6.8-7.9-4.9a7.00482,7.00482,0,0,0-1.3,3.9A39.40319,39.40319,0,0,0,156.2,251.47111Z"/><path class="cls-9" d="M143.9,248.3711c-2,5.8-7.3,8.8-10.4,7.3s-2.6-6.7,0-12.2a32.998,32.998,0,0,1,2.6-4.5l.1-.1c2.9-4,6.2-6.8,7.9-4.9a7.00482,7.00482,0,0,1,1.3,3.9A34.20209,34.20209,0,0,1,143.9,248.3711Z"/><path class="cls-9" d="M156.1,248.3711c2,5.8,7.3,8.8,10.4,7.3s2.6-6.7,0-12.2a32.99912,32.99912,0,0,0-2.6-4.5l-.1-.1c-2.9-4-6.2-6.8-7.9-4.9a7.00488,7.00488,0,0,0-1.3,3.9A34.20208,34.20208,0,0,0,156.1,248.3711Z"/><path class="cls-9" d="M182.9,258.17112s3.5,13.1-10.4,5.8c-13.8-7.2-14.2-15-22.4-6.9-8.4-8.4-8.7-.6-22.6,6.7s-10.4-5.8-10.4-5.8c-11.6,33.3,21.5,16.3,21.5,16.3.3,1.1-2,3.1-4.5,5.7,12.1,0,15.2-5.5,15.9-7.8.7,2.2,3.5,8,16,8-2.5-2.7-4.9-4.7-4.5-5.7C161.4,274.47111,194.5,291.47111,182.9,258.17112Z"/><circle class="cls-5" cx="200.00001" cy="233.3711" r="3.5"/><path class="cls-5" d="M198.2,233.47111s-2,20.6,4.7,15.7,3.6-5.6,3.6-5.6-7.2,8.1-6.5-9Z"/></g></svg>