<svg id="Layer_1" data-name="Layer 1" xmlns="http://www.w3.org/2000/svg" xmlns:xlink="http://www.w3.org/1999/xlink" viewBox="0 0 300 345"><defs><style>.cls-1{fill:#743721;}.cls-2{fill:#572515;}.cls-3{fill:#d88a35;}.cls-4{fill:#a56b25;}.cls-5{fill:url(#linear-gradient);}.cls-6{fill:#7e4731;}.cls-7{fill:#7f4e18;}.cls-8{fill:#44372b;opacity:0.39;}.cls-9{fill:#00bf3b;}.cls-10{fill:#159f3a;}.cls-11{fill:#fff;}.cls-12{fill:#b5afaa;}.cls-13{fill:#c1bebc;}.cls-14{fill:#603729;}.cls-15{fill:#572718;}.cls-16{fill:#753722;}</style><linearGradient id="linear-gradient" x1="150" y1="414.66433" x2="150" y2="222.41839" gradientUnits="userSpaceOnUse"><stop offset="0" stop-color="#743721"/><stop offset="0.69" stop-color="#572718"/></linearGradient></defs><path class="cls-1" d="M265.12,45.03q-.75-.03-1.5-.03H36.38q-.75,0-1.5.03c-22.7.92-38.4,23.21-32.52,45.16l2.89,10.79,5.21,19.45,22.08,82.42,4.45,16.61,6.96,25.97c0,.02.01.04.01.06l.34,1.26,3.32,12.39.3,1.12c0,.2,0,.41-.01.61a23.85935,23.85935,0,0,1-1.71,7.87c-.31.82-.66,1.64-1.04,2.44-7.23,15.27-25.12994,27.21-8.78,27.21H263.62c16.35,0-1.55-11.94-8.78-27.21-.38-.8-.73-1.62-1.04-2.44a23.85935,23.85935,0,0,1-1.71-7.87c-.01-.2-.01-.41-.01-.61l.3-1.12,3.32-12.39.34-1.26c0-.02.01-.04.01-.06l6.96-25.97,4.45-16.61,22.08-82.42,5.21-19.45,2.89-10.79C303.52,68.24,287.82,45.95,265.12,45.03Z"/><path class="cls-2" d="M216.62109,169.459a59.58376,59.58376,0,0,0-34.94238,11.28736,18.15589,18.15589,0,0,0-3.35644-2.97l-.12891-.08692c-.29492-.19726-.58984-.37988-.92188-.58007l-.39746-.2295a18.20031,18.20031,0,0,0-8.81445-2.28027H131.93994a18.21627,18.21627,0,0,0-8.812,2.27832l-.45166.26269c-.28516.17286-.56885.34864-.854.53809l-.14454.09766a18.15562,18.15562,0,0,0-3.35656,2.97015A59.5842,59.5842,0,0,0,83.37842,169.459c-33.04395,0-33.04395,119.8545,0,119.8545a60.01,60.01,0,0,0,59.33264-51.57605c.63715-.52515,1.25421-1.07477,1.83777-1.65833A25.84171,25.84171,0,0,0,150,228.08984a25.82482,25.82482,0,0,0,5.45117,7.98926c.5838.5838,1.20105,1.13367,1.83783,1.65875a60.00932,60.00932,0,0,0,59.33209,51.57563C249.665,289.31348,249.665,169.459,216.62109,169.459ZM83.37842,264.31348a34.92725,34.92725,0,1,1,30.40185-52.08966v31.42657h1.46729A34.96909,34.96909,0,0,1,83.37842,264.31348Zm133.24267,0a34.96834,34.96834,0,0,1-31.86871-20.66309h1.46735V212.22357a34.92068,34.92068,0,1,1,30.40136,52.08991Z"/><path class="cls-2" d="M215.63513,75.09h22.18041a23.2509,23.2509,0,0,0,9.12667,10.265c.83441,7.6727,3.32811,12.44577,6.23792,15.40526-23.52878,9.90234-48.89789,31.50487-58.81077,78.0125-7.27114,3.68507-11.53759,7.35718-17.68256,14.90964v-4.23519c0-2.82346-2.03028-4.15724-1.53679-4.15724,6.78391,0,10.59975-3.162,12.60629-5.8145,3.012-3.98186,4.00453-9.43,2.96974-16.24413,5.46086-5.18805,7.119-13.71164,4.63139-24.30159,6.67924-6.91336,8.32218-18.15837,4.58614-32.13237A62.2458,62.2458,0,0,0,208.28124,92.332,46.58556,46.58556,0,0,0,215.63513,75.09m-55.179,97.76428h0M208.69,67.09a40.5112,40.5112,0,0,1-7.46,21.35c0,.01-.01.02-.02.03a54.55842,54.55842,0,0,1-10.16,16.52c2.6,7.81,6.62,24.76005-4.89,30.96,2.34,6.73,5.38,19.8-4.42,23.62,1.64,5.8,3.75,17.72-6.59,17.72-1.73,0-8.24117-9.82247-9.42117-10.4025v60.56278c4.11-15.31,20.76117-37.94025,35.66117-42.99024,10.29-55.02,42.93-73.96,66.73-80.38A35.73088,35.73088,0,0,1,267.7,96.97a9.0958,9.0958,0,0,1-3.13839.544c-3.79609,0-9.70846-2.39362-9.91161-17.224,0,0-10.67-3.76-10.35-13.19995Z"/><path class="cls-3" d="M175.15,138.29a23.89674,23.89674,0,0,1-9.42-1.53c-.23-.11-.46-.21-.67-.33-7.75-3.99-3.82-13.61.67-20.79a72.92762,72.92762,0,0,1,6.45-8.74l17.36-5.95a59.98838,59.98838,0,0,1,4.17,15.93C194.73,127.03,192.05,138.29,175.15,138.29Z"/><path class="cls-3" d="M180.74461,156.48315s8.06692,20.80866-5.5985,20.80866-8.43325-20.80866-8.43325-20.80866Z"/><path class="cls-3" d="M134.94,136.43c-.21.12-.44.22-.67.33a23.89674,23.89674,0,0,1-9.42,1.53c-16.9,0-19.58-11.26-18.56-21.41a59.98838,59.98838,0,0,1,4.17-15.93l17.36,5.95a72.92762,72.92762,0,0,1,6.45,8.74C138.76,122.82,142.69,132.44,134.94,136.43Z"/><path class="cls-2" d="M84.36487,75.09A46.58556,46.58556,0,0,0,91.71876,92.332a62.2458,62.2458,0,0,0,8.33767,14.46544c-3.736,13.974-2.0931,25.219,4.58614,32.13237-2.48759,10.59-.82947,19.11354,4.63139,24.30159-1.03479,6.81412-.04231,12.26227,2.96974,16.24413,2.00654,2.65254,5.82238,5.8145,12.60629,5.8145.49349,0-1.53679,1.33378-1.53679,4.15724v4.23519c-6.145-7.55246-10.41142-11.22457-17.68256-14.90964-9.91288-46.50763-35.282-68.11016-58.81077-78.0125,2.90981-2.95949,5.40351-7.73256,6.23792-15.40526A23.2509,23.2509,0,0,0,62.18446,75.09H84.36487m55.179,97.76428h0M91.31,67.09H55.7c.32,9.44-10.35,13.2-10.35,13.2-.20315,14.83038-6.11552,17.224-9.91161,17.224A9.0958,9.0958,0,0,1,32.3,96.97a35.73088,35.73088,0,0,1-.42,7.11005c23.8,6.42,56.44,25.36,66.73,80.38,14.9,5.05,31.55117,27.68025,35.66117,42.99024V166.88748c-1.18.58-7.69113,10.4025-9.42117,10.4025-10.34,0-8.23-11.92-6.59-17.72-9.79995-3.82-6.76-16.89-4.42-23.62-11.51-6.2-7.49-23.15-4.89-30.96A54.55842,54.55842,0,0,1,98.79,88.47c-.01-.01-.02-.02-.02-.03a40.5112,40.5112,0,0,1-7.46-21.35Z"/><path class="cls-3" d="M184.54984,131.867s13.53692,28.777-9.40373,28.777S164.333,133.34464,164.333,133.34464Z"/><path class="cls-3" d="M115.45016,131.867s-13.53692,28.777,9.40373,28.777S135.667,133.34464,135.667,133.34464Z"/><path class="cls-4" d="M178.59373,133.11746s11.20326,23.81607-7.78261,23.81607-8.949-22.59315-8.949-22.59315Z"/><path class="cls-4" d="M121.40627,133.11746s-11.20326,23.81607,7.78261,23.81607,8.949-22.59315,8.949-22.59315Z"/><path class="cls-3" d="M119.25539,156.48315s-8.06692,20.80866,5.5985,20.80866,8.43325-20.80866,8.43325-20.80866Z"/><path class="cls-4" d="M182.72709,107.53s13.56519,30.90184-11.916,30.90184-2.4524-25.98116-2.4524-25.98116Z"/><path class="cls-4" d="M175.4445,153.49s6.67624,17.22141-4.63338,17.22141S163.8317,153.49,163.8317,153.49Z"/><path class="cls-5" d="M300,262.01l0,46.61A36.38269,36.38269,0,0,1,263.62,345H36.38A36.38269,36.38269,0,0,1,0,308.62V259.14Z"/><path class="cls-4" d="M117.27291,107.53s-13.56519,30.90184,11.916,30.90184,2.4524-25.98116,2.4524-25.98116Z"/><path class="cls-4" d="M124.5555,153.49s-6.67624,17.22141,4.63338,17.22141S136.1683,153.49,136.1683,153.49Z"/><rect class="cls-6" x="134.27002" y="110.02002" width="31.45996" height="86.91998"/><rect class="cls-7" x="42.92457" y="45" width="63.0938" height="22.09144"/><path class="cls-6" d="M49.87,274.76l-4.71-3.58a25.65831,25.65831,0,0,0,2.76-10.92L5.25,100.98s79.61-6.71,94.3,88.96C114.25,285.61,49.87,274.76,49.87,274.76Z"/><path class="cls-4" d="M173.72,192.76v38.39a13.31045,13.31045,0,0,1-2.91-.32,12.23865,12.23865,0,0,1-1.6-.46,13.37847,13.37847,0,0,1-8.83-12.56v-9.69a5.66334,5.66334,0,0,0-5.66-5.67H145.28a5.66334,5.66334,0,0,0-5.66,5.67v9.69a13.37847,13.37847,0,0,1-8.83,12.56,12.23865,12.23865,0,0,1-1.6.46,13.31045,13.31045,0,0,1-2.91.32V192.76a5.64182,5.64182,0,0,1,2.46-4.67c.15-.1.3-.19.45-.28a5.65319,5.65319,0,0,1,2.75-.71h36.12a5.65319,5.65319,0,0,1,2.75.71c.15.09.3.18.45.28A5.64182,5.64182,0,0,1,173.72,192.76Z"/><path class="cls-8" d="M193.71,116.88a54.67656,54.67656,0,0,1-22.9,17.56,51.76972,51.76972,0,0,1-5.08,1.79c-.22.07-.44.14-.67.2-1.15.33-2.32.62-3.5.87a55.37654,55.37654,0,0,1-23.12,0c-1.18-.25-2.35-.54-3.5-.87-.23-.06-.45-.13-.67-.2a51.76972,51.76972,0,0,1-5.08-1.79,54.67656,54.67656,0,0,1-22.9-17.56,59.98838,59.98838,0,0,1,4.17-15.93l17.36,5.95a72.92762,72.92762,0,0,1,6.45,8.74v-5.62h31.46v5.62a72.92762,72.92762,0,0,1,6.45-8.74l17.36-5.95A59.98838,59.98838,0,0,1,193.71,116.88Z"/><path class="cls-7" d="M139.62,215.98v1.83a13.37847,13.37847,0,0,1-8.83,12.56,12.23865,12.23865,0,0,1-1.6.46,13.31045,13.31045,0,0,1-2.91.32V192.76a5.64182,5.64182,0,0,1,2.46-4.67C133.95,194.09,137.9,204.06,139.62,215.98Z"/><path class="cls-7" d="M173.72,192.76v38.39a13.31045,13.31045,0,0,1-2.91-.32,12.23865,12.23865,0,0,1-1.6-.46,13.37847,13.37847,0,0,1-8.83-12.56v-1.83c1.72-11.92,5.67-21.88995,10.88-27.88995A5.64182,5.64182,0,0,1,173.72,192.76Z"/><circle class="cls-4" cx="83.37862" cy="229.38588" r="47.42721"/><path class="cls-9" d="M119.82756,229.39a36.45224,36.45224,0,0,1-72.3,6.61,36.84853,36.84853,0,0,1-.6-6.61,36.45364,36.45364,0,0,1,71.19-11.06c0,.01.01.01.01.02A36.57839,36.57839,0,0,1,119.82756,229.39Z"/><path class="cls-3" d="M52.57,58.09c10.05,16.12-7.22,22.2-7.22,22.2-.3,21.9-13.05,16.68-13.05,16.68.86,26.13-21.84,23.46-21.84,23.46L9.1,115.34,5.25,100.98,2.36,90.19C-3.52,68.24,12.18,45.95,34.88,45.03q.75-.03,1.5-.03H63.49C63.49,56.92,52.57,58.09,52.57,58.09Z"/><path class="cls-4" d="M45.98,53.17c10.05,16.12-7.23,22.2-7.23,22.2-.29,21.9-13.04,16.68-13.04,16.68.59,17.97-9.96,22.32-16.61,23.29L5.25,100.98,2.36,90.19C-3.52,68.24,12.18,45.95,34.88,45.03q.75-.03,1.5-.03H56.15C53.7,52.34,45.98,53.17,45.98,53.17Z"/><rect class="cls-7" x="193.98164" y="45" width="63.0938" height="22.09144" transform="translate(451.05707 112.09144) rotate(-180)"/><path class="cls-6" d="M250.13,274.76l4.71-3.58a25.65831,25.65831,0,0,1-2.76-10.92l42.67-159.28s-79.61-6.71-94.3,88.96C185.75,285.61,250.13,274.76,250.13,274.76Z"/><path class="cls-10" d="M118.11753,218.33c-20.61-33.88-26.94995,37.37-26.94995,37.37l-15.44,9.33a36.47408,36.47408,0,0,1-28.2-29.03l.01.01c14.24,17.67,37.17-17.79,49.53-40.41A36.56209,36.56209,0,0,1,118.11753,218.33Z"/><circle class="cls-4" cx="216.62138" cy="229.38588" r="47.42721"/><circle class="cls-11" cx="216.62138" cy="229.38588" r="36.45"/><path class="cls-9" d="M253.06756,229.386a36.45529,36.45529,0,0,1-52.58,32.69c-.02-.01-.05-.02-.07-.03a36.46133,36.46133,0,1,1,52.65-32.66Z"/><path class="cls-10" d="M248.17754,211.136c-18.56-19.24-24.42,43.51-24.42,43.51l-16.45,9.46a39.78237,39.78237,0,0,1-6.82-2.03c-.02-.01-.05-.02-.07-.03a36.52922,36.52922,0,0,1-19.22-24.02c14.84,8.56,35.76-21.82,47.99-42.86A36.52686,36.52686,0,0,1,248.17754,211.136Z"/><circle class="cls-11" cx="202.78794" cy="239.44388" r="6.72365"/><circle class="cls-11" cx="228.05761" cy="212.76553" r="14.68475"/><path class="cls-3" d="M247.43,58.09c-10.05,16.12,7.2243,22.19906,7.2243,22.19906.29591,21.905,13.04136,16.67743,13.04136,16.67743-.86,26.13,21.84433,23.46347,21.84433,23.46347l5.21-19.45,2.89-10.79c5.88-21.95-9.82-44.24-32.52-45.16q-.75-.03-1.5-.03H236.51C236.51,56.92,247.43,58.09,247.43,58.09Z"/><path class="cls-4" d="M201.23,88.44c0,.01-.01.02-.02.03a54.98289,54.98289,0,0,1-30.4,30.85,53.36113,53.36113,0,0,1-9.25,2.86,55.37654,55.37654,0,0,1-23.12,0,53.36113,53.36113,0,0,1-9.25-2.86,54.98289,54.98289,0,0,1-30.4-30.85s-.02-.03-.05-.08c-20.78-28.42,7.56-75.21,9.64-73.21a34.60277,34.60277,0,0,1,7.43,10.13C115.84,25.28,139.67,0,150,0a6.78254,6.78254,0,0,1,.99.07c10.78,1.46,33.17,25.21,33.2,25.24a34.60277,34.60277,0,0,1,7.43-10.13C193.7,13.18,222.07,60.02,201.23,88.44Z"/><path class="cls-7" d="M187.10617,45.98189c-.11857-.18325-.23714-.35578-.3665-.52823a44.86674,44.86674,0,0,0-73.47934,0c-.12936.17245-.24793.345-.3665.52823a44.929,44.929,0,0,0-6.8456,34.27091v.01079a44.87667,44.87667,0,0,0,87.90354,0V80.2528a44.929,44.929,0,0,0-6.8456-34.27091Z"/><circle class="cls-11" cx="72.21309" cy="239.44388" r="6.72365"/><circle class="cls-11" cx="97.48276" cy="212.76553" r="14.68475"/><ellipse class="cls-4" cx="42.24982" cy="121.89209" rx="6.75705" ry="8.26498" transform="translate(-86.19136 109.82583) rotate(-65.516)"/><ellipse class="cls-4" cx="62.47991" cy="138.86072" rx="7.9072" ry="10.46643" transform="translate(-84.29356 98.31954) rotate(-50.33379)"/><ellipse class="cls-4" cx="78.93675" cy="164.92866" rx="8.79709" ry="11.7639" transform="translate(-65.69147 53.05752) rotate(-26.70144)"/><path class="cls-3" d="M115.81,25.31s-4.33-3.311-7.43-1.311C84.57,61.669,97.8,86.86,98.74,88.39c-20.78-28.42,7.56-75.21,9.64-73.21A34.60277,34.60277,0,0,1,115.81,25.31Z"/><path class="cls-3" d="M63.7616,188.00466c-3.13383-1.74465-21.60694,14.04891-14.67952,17.58462S66.89543,189.74932,63.7616,188.00466Z"/><circle class="cls-12" cx="150" cy="67.66501" r="41.50903"/><ellipse class="cls-13" cx="150.00051" cy="56.04572" rx="29.85382" ry="23.1897"/><circle class="cls-2" cx="121.58975" cy="55.25019" r="2.79635"/><circle class="cls-2" cx="132.96469" cy="42.32596" r="2.79635"/><rect class="cls-2" x="114.59257" y="67.54399" width="11.10722" height="5.5927" rx="2.79635"/><circle class="cls-2" cx="121.58975" cy="85.5515" r="2.79635"/><circle class="cls-2" cx="132.96469" cy="98.47574" r="2.79635"/><circle class="cls-2" cx="178.41025" cy="55.25019" r="2.79635"/><circle class="cls-2" cx="167.03531" cy="42.32596" r="2.79635"/><rect class="cls-2" x="174.30021" y="67.54399" width="11.10722" height="5.5927" rx="2.79635"/><rect class="cls-2" x="147.14314" y="94.70106" width="5.5927" height="11.10722" rx="2.79635"/><rect class="cls-2" x="147.14314" y="34.99342" width="5.5927" height="11.10722" rx="2.79635"/><circle class="cls-2" cx="178.41025" cy="85.5515" r="2.79635"/><circle class="cls-2" cx="167.03531" cy="98.47574" r="2.79635"/><circle class="cls-2" cx="150.00051" cy="70.40085" r="4.4968"/><circle class="cls-3" cx="40.54979" cy="121.11792" r="4.59838"/><circle class="cls-3" cx="60.83035" cy="137.49287" r="5.62589"/><circle class="cls-3" cx="77.87118" cy="162.81015" r="6.33532"/><rect class="cls-14" x="136.98268" y="127.15004" width="4.20391" height="15.96872" rx="2.10195"/><rect class="cls-14" x="136.98268" y="148.22875" width="4.20391" height="15.96872" rx="2.10195"/><rect class="cls-14" x="136.98268" y="169.30745" width="4.20391" height="15.96872" rx="2.10195"/><path class="cls-4" d="M254.02,53.17c-10.05,16.12,7.23,22.2,7.23,22.2.29,21.9,13.04,16.68,13.04,16.68-.59,17.97,9.96,22.32,16.61,23.29l3.85-14.36,2.89-10.79c5.88-21.95-9.82-44.24-32.52-45.16q-.75-.03-1.5-.03H243.85C246.3,52.34,254.02,53.17,254.02,53.17Z"/><ellipse class="cls-4" cx="257.75018" cy="121.89209" rx="8.26498" ry="6.75705" transform="translate(-27.33919 117.78265) rotate(-24.484)"/><ellipse class="cls-4" cx="237.52009" cy="138.86072" rx="10.46643" ry="7.9072" transform="translate(-33.95395 183.58142) rotate(-39.66621)"/><ellipse class="cls-4" cx="221.06325" cy="164.92866" rx="11.7639" ry="8.79709" transform="translate(-25.6103 288.30848) rotate(-63.29856)"/><path class="cls-3" d="M184.19,25.31s4.33-3.311,7.43-1.311c23.81,37.67,10.58,62.861,9.64,64.391,20.78-28.42-7.56-75.21-9.64-73.21A34.60277,34.60277,0,0,0,184.19,25.31Z"/><path class="cls-3" d="M150,0c-10.33,0-34.16,25.28-34.19,25.31,8.97406-7.31281,18.97271-11.92963,34.19-11.92963S175.21594,17.99719,184.19,25.31C184.16,25.28,160.33,0,150,0Z"/><path class="cls-3" d="M236.2384,188.00466c3.13383-1.74465,21.60694,14.04891,14.67952,17.58462S233.10457,189.74932,236.2384,188.00466Z"/><circle class="cls-3" cx="259.45021" cy="121.11792" r="4.59838"/><circle class="cls-3" cx="239.16965" cy="137.49287" r="5.62589"/><circle class="cls-3" cx="222.12882" cy="162.81015" r="6.33532"/><rect class="cls-14" x="158.81342" y="127.15004" width="4.20391" height="15.96872" rx="2.10195" transform="translate(321.83074 270.26881) rotate(180)"/><rect class="cls-14" x="158.81342" y="148.22875" width="4.20391" height="15.96872" rx="2.10195" transform="translate(321.83074 312.42621) rotate(-180)"/><rect class="cls-14" x="158.81342" y="169.30745" width="4.20391" height="15.96872" rx="2.10195" transform="translate(321.83074 354.58362) rotate(-180)"/><path class="cls-2" d="M147.03707,70.3435h0a2.42033,2.42033,0,0,1,2.23988-2.41359l20.9822-1.5686-.07793,8.07907L149.26312,72.756A2.42031,2.42031,0,0,1,147.03707,70.3435Z"/><path class="cls-2" d="M186.98852,68.59794l-17.73682-6.976c-2.47693-.97419-5.38545.69616-4.39484,2.52395l2.9992,5.53392a1.46888,1.46888,0,0,1,0,1.44208l-2.9992,5.53391c-.99061,1.8278,1.91791,3.49815,4.39484,2.524l17.73682-6.976C189.02586,71.40247,189.02586,69.39923,186.98852,68.59794Z"/><path class="cls-2" d="M149.87785,70.3761h0a2.52279,2.52279,0,0,1-2.594-2.2134L145.598,47.4286l8.68308.077-1.8103,20.67076A2.52434,2.52434,0,0,1,149.87785,70.3761Z"/><path class="cls-2" d="M147.095,30.897l-11.006,17.5271c-1.537,2.44765,1.09833,5.32177,3.982,4.34288l8.7308-2.96374a3.55516,3.55516,0,0,1,2.27516,0l8.7308,2.96374c2.88369.97889,5.519-1.89523,3.982-4.34288l-11.006-17.5271A3.43417,3.43417,0,0,0,147.095,30.897Z"/><path class="cls-15" d="M297.1,211.02a21.86618,21.86618,0,0,0-29.64-8.17,21.94913,21.94913,0,0,0-7.58,7.07,21.68489,21.68489,0,0,0-3.58,11.99v21.07a11.63821,11.63821,0,0,1-.25,2.45c0,.02-.01.04-.01.06a10.6144,10.6144,0,0,1-.34,1.26,12.16648,12.16648,0,0,1-11.57,8.39H55.87a12.16648,12.16648,0,0,1-11.57-8.39,10.6144,10.6144,0,0,1-.34-1.26c0-.02-.01-.04-.01-.06a11.63821,11.63821,0,0,1-.25-2.45V221.91a21.68489,21.68489,0,0,0-3.58-11.99,21.94913,21.94913,0,0,0-7.58-7.07A21.85863,21.85863,0,0,0,6.4,206.46,21.76185,21.76185,0,0,0,0,221.91v41.52a34.95731,34.95731,0,0,0,34.96,34.96H265.04A34.95731,34.95731,0,0,0,300,263.43V221.91A21.73856,21.73856,0,0,0,297.1,211.02Z"/><path class="cls-16" d="M2.9,211.02a24.71645,24.71645,0,0,1,4.42-.39c13.44,0,24.33,10.32,24.33,23.06v22.22a11.8803,11.8803,0,0,0,.44,3.23,13.43279,13.43279,0,0,0,13.11,9.6H254.8a13.43279,13.43279,0,0,0,13.11-9.6,11.8803,11.8803,0,0,0,.44-3.23V233.69c0-12.74,10.89-23.06,24.33-23.06a24.71645,24.71645,0,0,1,4.42.39A21.73856,21.73856,0,0,1,300,221.91v41.52a34.95731,34.95731,0,0,1-34.96,34.96H34.96A34.95731,34.95731,0,0,1,0,263.43V221.91A21.73856,21.73856,0,0,1,2.9,211.02Z"/></svg>