<?xml version="1.0" encoding="UTF-8" standalone="no"?>
<!-- Created with Inkscape (http://www.inkscape.org/) -->

<svg
   xmlns:dc="http://purl.org/dc/elements/1.1/"
   xmlns:cc="http://creativecommons.org/ns#"
   xmlns:rdf="http://www.w3.org/1999/02/22-rdf-syntax-ns#"
   xmlns:svg="http://www.w3.org/2000/svg"
   xmlns="http://www.w3.org/2000/svg"
   xmlns:sodipodi="http://sodipodi.sourceforge.net/DTD/sodipodi-0.dtd"
   xmlns:inkscape="http://www.inkscape.org/namespaces/inkscape"
   width="40.968906"
   height="250"
   viewBox="0 0 10.83969 66.145835"
   version="1.1"
   id="svg8"
   inkscape:version="0.92.4 (5da689c313, 2019-01-14)"
   sodipodi:docname="fishingRod.svg">
  <g
     inkscape:label="Layer 1"
     inkscape:groupmode="layer"
     id="layer1"
     transform="translate(-93.821836,-202.7401)">
    <g
       id="g1400"
       transform="matrix(0.07192892,0,0,0.07192892,8.3846662,200.53188)">
      <path
         id="path845"
         d="m 1216.3,649.3 -1.7,-1 78.6,-136 c -1.6,-6.6 -21.2,-92.4 0,-170.5 -0.9,-7 -15,-116.4 4.7,-147.4 -0.8,-8.8 -11.2,-128.6 0.1,-155.7 l 1.8,0.8 c -11.3,27.1 0,153.9 0.1,155.1 v 0.3 l -0.2,0.3 c -8.2,12.5 -11.6,41.8 -9.8,84.7 1.3,32.5 5.2,61.6 5.2,61.9 v 0.2 l -0.1,0.2 c -21.9,80.5 -0.2,169.2 0,170.1 l 0.1,0.4 -0.2,0.4 z"
         class="st3"
         inkscape:connector-curvature="0"
         style="fill:#9a9c9e" />
      <polygon
         id="polygon851"
         points="1293.4,661.6 1268.7,652.2 1268.7,702 1293.4,692.5 "
         class="st3"
         style="fill:#9a9c9e" />
      <path
         id="path1041"
         d="m 1338.5,779.3 h -58.6 v 144.4 c 0,14.7 11.9,26.6 26.6,26.6 h 5.3 c 14.7,0 26.6,-11.9 26.6,-26.6 V 779.3 Z"
         class="st7"
         inkscape:connector-curvature="0"
         style="fill:#de9525" />
      <path
         id="path1043"
         d="m 1324,779.3 v 144.4 c 0,13.1 -9.5,24.1 -22.1,26.2 1.5,0.3 3,0.4 4.6,0.4 h 5.3 c 14.7,0 26.6,-11.9 26.6,-26.6 V 779.3 Z"
         class="st12"
         inkscape:connector-curvature="0"
         style="fill:#c27b31" />
      <polygon
         id="polygon1045"
         points="1292.1,763.7 1279.9,779.3 1338.5,779.3 1326.4,763.7 "
         class="st0"
         style="fill:#6a6a6a" />
      <rect
         id="rect1047"
         height="50.700001"
         width="34.200001"
         class="st7"
         y="713.09998"
         x="1292.1"
         style="fill:#de9525" />
      <rect
         id="rect1049"
         height="50.700001"
         width="10.9"
         class="st12"
         y="713.09998"
         x="1315.4"
         style="fill:#c27b31" />
      <path
         id="path1051"
         d="m 1325.5,713.2 h -32.6 c -3.1,0 -5.6,-2.5 -5.6,-5.6 v -64.3 c 0,-3.1 2.5,-5.6 5.6,-5.6 h 32.6 c 3.1,0 5.6,2.5 5.6,5.6 v 64.3 c 0,3.1 -2.5,5.6 -5.6,5.6 z"
         class="st0"
         inkscape:connector-curvature="0"
         style="fill:#6a6a6a" />
      <path
         id="path1053"
         d="m 1331.1,653.8 v -10.5 c 0,-3.1 -2.5,-5.6 -5.6,-5.6 h -32.6 c -3.1,0 -5.6,2.5 -5.6,5.6 v 10.5 z"
         class="st0"
         inkscape:connector-curvature="0"
         style="fill:#6a6a6a" />
      <rect
         id="rect1055"
         height="607.09998"
         width="7.6999998"
         class="st11"
         y="30.700001"
         x="1305.4"
         style="fill:#b9bbbe" />
      <rect
         id="rect1057"
         height="3.3"
         width="7.6999998"
         class="st3"
         y="30.700001"
         x="1305.4"
         style="fill:#9a9c9e" />
      <rect
         id="rect1059"
         height="6.3000002"
         width="7.6999998"
         class="st4"
         y="35.900002"
         x="1305.4"
         style="fill:#82acdc" />
      <rect
         id="rect1061"
         height="449.89999"
         width="11.5"
         class="st11"
         y="187.8"
         x="1303.5"
         style="fill:#b9bbbe" />
      <rect
         id="rect1063"
         height="10.6"
         width="11.5"
         class="st4"
         y="187.8"
         x="1303.5"
         style="fill:#82acdc" />
      <rect
         id="rect1065"
         height="3.8"
         width="11.5"
         class="st3"
         y="187.8"
         x="1303.5"
         style="fill:#9a9c9e" />
      <rect
         id="rect1067"
         height="302.39999"
         width="15.6"
         class="st11"
         y="335.29999"
         x="1301.4"
         style="fill:#b9bbbe" />
      <rect
         id="rect1069"
         height="10.8"
         width="15.6"
         class="st4"
         y="335.29999"
         x="1301.4"
         style="fill:#82acdc" />
      <rect
         id="rect1071"
         height="2.8"
         width="15.6"
         class="st3"
         y="335.29999"
         x="1301.4"
         style="fill:#9a9c9e" />
      <rect
         id="rect1073"
         height="134.39999"
         width="19.1"
         class="st11"
         y="503.29999"
         x="1299.7"
         style="fill:#b9bbbe" />
      <rect
         id="rect1075"
         height="10.8"
         width="19.1"
         class="st4"
         y="507"
         x="1299.7"
         style="fill:#82acdc" />
      <rect
         id="rect1077"
         height="3.7"
         width="19.1"
         class="st3"
         y="503.29999"
         x="1299.7"
         style="fill:#9a9c9e" />
      <circle
         id="circle1079"
         r="46.299999"
         cy="677.79999"
         cx="1234.1"
         class="st4"
         style="fill:#82acdc" />
      <circle
         id="circle1081"
         r="20"
         cy="677.79999"
         cx="1234.1"
         class="st13"
         style="fill:#6594c4" />
      <g
         id="g1087">
        <circle
           id="circle1083"
           r="7.4000001"
           cy="644.20001"
           cx="1234.1"
           class="st14"
           style="opacity:0.3;fill:#ffffff" />
        <circle
           id="circle1085"
           r="7.4000001"
           cy="711.79999"
           cx="1234.1"
           class="st14"
           style="opacity:0.3;fill:#ffffff" />
      </g>
      <g
         id="g1093">
        <circle
           id="ellipse1089"
           cy="654.09998"
           cx="1210.1"
           class="st14"
           transform="matrix(0.7071,-0.7071,0.7071,0.7071,-108.0578,1047.2731)"
           r="7.4000001"
           style="opacity:0.3;fill:#ffffff" />
        <circle
           id="ellipse1091"
           cy="701.90002"
           cx="1258"
           class="st14"
           transform="matrix(0.7071,-0.7071,0.7071,0.7071,-127.877,1095.1206)"
           r="7.4000001"
           style="opacity:0.3;fill:#ffffff" />
      </g>
      <g
         id="g1099">
        <circle
           id="circle1095"
           r="7.4000001"
           cy="678"
           cx="1200.2"
           class="st14"
           style="opacity:0.3;fill:#ffffff" />
        <circle
           id="circle1097"
           r="7.4000001"
           cy="678"
           cx="1267.9"
           class="st14"
           style="opacity:0.3;fill:#ffffff" />
      </g>
      <g
         id="g1105">
        <circle
           id="ellipse1101"
           cy="701.90002"
           cx="1210.1"
           class="st14"
           transform="matrix(0.7071,-0.7071,0.7071,0.7071,-141.8912,1061.2874)"
           r="7.4000001"
           style="opacity:0.3;fill:#ffffff" />
        <circle
           id="ellipse1103"
           cy="654.09998"
           cx="1258"
           class="st14"
           transform="matrix(0.7071,-0.7071,0.7071,0.7071,-94.0436,1081.1064)"
           r="7.4000001"
           style="opacity:0.3;fill:#ffffff" />
      </g>
      <path
         id="path1107"
         d="m 1299.7,509.5 h -15.6 c -1.7,0 -3,1.4 -3,3 v 0.3 c 0,1.7 1.4,3 3,3 h 15.6 z"
         class="st4"
         inkscape:connector-curvature="0"
         style="fill:#82acdc" />
      <path
         id="path1109"
         d="m 1301.4,338.7 h -15.6 c -1.7,0 -3,1.4 -3,3 v 0.3 c 0,1.7 1.4,3 3,3 h 15.6 z"
         class="st4"
         inkscape:connector-curvature="0"
         style="fill:#82acdc" />
      <path
         id="path1111"
         d="m 1303.5,192.2 h -11.9 c -1.3,0 -2.3,1 -2.3,2.3 v 0.2 c 0,1.3 1,2.3 2.3,2.3 h 11.9 z"
         class="st4"
         inkscape:connector-curvature="0"
         style="fill:#82acdc" />
      <path
         id="path1113"
         d="m 1305.4,36.6 h -11.9 c -1.3,0 -2.3,1 -2.3,2.3 v 0.2 c 0,1.3 1,2.3 2.3,2.3 h 11.9 z"
         class="st4"
         inkscape:connector-curvature="0"
         style="fill:#82acdc" />
    </g>
  </g>
</svg>
