<svg id="Layer_1" data-name="Layer 1" xmlns="http://www.w3.org/2000/svg" viewBox="0 0 150 114"><defs><style>.cls-1{fill:#261917;}.cls-2{fill:#513831;}.cls-3{opacity:0.51;}.cls-4{fill:#322424;}.cls-5{fill:#735447;}.cls-6{fill:#a07e70;}.cls-7{fill:#7c594d;}</style></defs><path class="cls-1" d="M149.89553,44.28709l-.56371-7.33036a4.85615,4.85615,0,0,0-1.81785-3.99917,4.57645,4.57645,0,0,0,1.058-1.80145,3.00808,3.00808,0,0,0,.22928-1.40516l-.646-8.4037c-.00561-.07268-.01379-.14493-.02457-.21588a4.39664,4.39664,0,0,0-.16161-.89553,4.76531,4.76531,0,0,0-.365-.89943L145.17248,14.751a5.03679,5.03679,0,0,0-6.20172-2.29853l-4.358,1.69675q-.24565-.2466-.49993-.48886l-.44865-7.24731a2.864,2.864,0,0,0-.1629-.79256c-.02112-.10124-.04655-.20117-.075-.30024a4.84808,4.84808,0,0,0-3.01769-3.17416L125.34766.30445a4.76755,4.76755,0,0,0-6.106,2.57844l-1.483,3.64182a25.87694,25.87694,0,0,0-3.75809.01471l-1.92473-3.84775A4.80486,4.80486,0,0,0,109.618.41953a4.95131,4.95131,0,0,0-3.68052-.07614l-4.88553,1.84773A4.56641,4.56641,0,0,0,98.04328,6.4066c-.0056.09215-.00733.18517-.00474.27818l.20385,7.16467q-.15192.15965-.3.32144l-4.49678-1.67684a5.07833,5.07833,0,0,0-1.78639-.31582,4.7964,4.7964,0,0,0-4.38775,2.83585l-1.12657,2.5793c-.01982.04023-.03922.08133-.05732.12329l-.37452.85746-.58138-.52866a6.07706,6.07706,0,0,0-8.15016.00735l-6.21723,5.71236A37.56845,37.56845,0,0,0,63.346,20.89559l.13015-7.59514a5.422,5.422,0,0,0-1.5709-3.90788,5.98052,5.98052,0,0,0-4.25674-1.75991h-8.4764A5.88619,5.88619,0,0,0,43.219,13.14947l-.25557,7.705A39.46555,39.46555,0,0,0,35.2779,23.757l-5.8716-5.65569a6.06865,6.06865,0,0,0-8.14757-.10339l-6.42151,5.5817a5.797,5.797,0,0,0-1.97042,3.657c-.01681.10123-.02887.20246-.03577.30629l-.003.04154-.45468,6.88649c-.00517.07874-.00689.15661-.006.23535a5.51682,5.51682,0,0,0,1.62219,4.04762c.03491.03461.07068.06836.10774.10124l3.39651,3.37186q-.48742,1.10059-.89643,2.21936H7.43652A6.18377,6.18377,0,0,0,1.2348,50.05656L.01687,65.89749a5.914,5.914,0,0,0,.15084,1.83432A5.67253,5.67253,0,0,0,2.44412,71.031a5.89582,5.89582,0,0,0,3.40254,1.0556h8.95349c.05129,0,.10257-.00173.15343-.00433h.03232c.18532.76747.40469,1.54793.65336,2.32665L11.20539,78.4825a6.2566,6.2566,0,0,0-1.82862,3.01625c-.03275.12459-.05861.25005-.08145.385a3.00972,3.00972,0,0,0-.084.53386l-.00474.08133c-.00906.1021-.01552.2016-.016.22929L8.692,90.27754a5.92015,5.92015,0,0,0,1.57478,4.6109l6.15819,6.51184a5.7922,5.7922,0,0,0,.95935.81766,6.15825,6.15825,0,0,0,6.28921.3435,6.76745,6.76745,0,0,0,1.45756-1.0357l6.993-6.61135a.41931.41931,0,0,1,.19178-.10469.20888.20888,0,0,1,.11723-.00087c.67059.37379,1.33472.71816,1.94714,1.00975.0793.03893.16032.07527.23747.10729.21893.10469.44045.20246.66283.30024l.19006.08393q.75185.33615,1.52048.64114c.2922.11508.5857.2267.88436.33572.54734.20074,1.10071.3859,1.661.56154l.21936.07009c.19006.06143.38012.122.5676.17564.02542.00779.05128.01558.07671.0225l-.31677,9.56011A6.08469,6.08469,0,0,0,46.1725,114h9.431a6.19565,6.19565,0,0,0,3.21852-.90159,6.30076,6.30076,0,0,0,3.03363-5.27021l.16592-9.6674c.09395-.02682.18877-.05365.28488-.08133l.28789-.0822c.8641-.25612,1.70881-.53732,2.50956-.835l.35124-.13324c.30858-.11595.61716-.23189.915-.35475.26591-.10816.52708-.22583.78826-.34351l.76153-.34c.84514-.38763,1.58555-.75449,2.24839-1.11184l.14179-.05884.01465-.00346c.03147-.00173.06508-.00259.06508-.00259l.03448.00692.06551.02855,6.71544,6.652a6.36542,6.36542,0,0,0,.81971.6671c.09956.06835.20041.13238.28057.18084.10817.071.2185.13844.36245.21631a3.40224,3.40224,0,0,0,.39.17218,6.41866,6.41866,0,0,0,.71886.25958c.144.04585.28833.08739.42969.11853a6.10613,6.10613,0,0,0,.98391.13325,4.74173,4.74173,0,0,0,1.36964-.07527c.10472-.01644.20729-.03894.31762-.0649a6.006,6.006,0,0,0,.76024-.225c.10818-.03894.21463-.07874.33487-.13065a6.4861,6.4861,0,0,0,1.84974-1.23817c.01853-.01731.03663-.03548.0543-.05278l6.49306-6.5205a6.01045,6.01045,0,0,0,1.74717-3.94552,2.95986,2.95986,0,0,0,.01293-.32793l-.12325-7.79587c0-.01471-.00087-.07874-.0013-.09345l-.003-.2042a2.96513,2.96513,0,0,0-.09482-.70431,6.04375,6.04375,0,0,0-1.76182-3.339l-4.15632-4.0035q.43637-1.19664.793-2.44172h9.2582c.04654,0,.09352-.00087.14049-.00346a6.3228,6.3228,0,0,0,.94556-.09864c.11292-.02077.22195-.04586.30513-.06663a6.11385,6.11385,0,0,0,.76024-.22929c.097-.03634.19265-.07354.31461-.12632a5.7699,5.7699,0,0,0,.66025-.347,5.87519,5.87519,0,0,0,2.85219-4.76491l4.146,1.62061a4.95561,4.95561,0,0,0,3.72232-.019c.07284-.02942.14438-.0623.2142-.09777a4.809,4.809,0,0,0,2.44319-2.594l1.73553-4.43179c1.0046.04586,2.29666.0822,3.53658.04932.16248-.00346.32323-.00865.48872-.01558l2.23073,4.59187a5.05025,5.05025,0,0,0,6.4129,2.48152l5.14971-2.10082a4.83847,4.83847,0,0,0,1.2412-.74065,4.71492,4.71492,0,0,0,1.60581-4.6879l-.4551-7.36152c.07024-.0822.1392-.16526.20816-.24832l.16377-.19468,4.79459,1.8274a4.74,4.74,0,0,0,.86065.23967,5.33013,5.33013,0,0,0,.86152.09,4.84342,4.84342,0,0,0,4.1464-2.22714,4.65054,4.65054,0,0,0,.42408-.87563l1.77131-4.90681A4.63394,4.63394,0,0,0,149.89553,44.28709ZM115.41284,32.37178c.025-.00605.05-.01211.07456-.019.05689-.01211.11421-.02423.172-.03375.0543-.00865.10817-.019.162-.03114a5.82782,5.82782,0,0,1,1.18389-.08307,6.344,6.344,0,0,1,1.05589.10556l.00689.00087.34349.08739a6.50245,6.50245,0,0,1,.69.2042l.11335.04153c.17368.06662.34348.13757.50725.21717l.01035.0052.00991.00432a6.4184,6.4184,0,0,1,.67016.37725,5.48,5.48,0,0,1-.90677.45685,6.35557,6.35557,0,0,1-3.26592.35042,6.55315,6.55315,0,0,1-2.55826-.963,5.49176,5.49176,0,0,1,.9434-.475,5.827,5.827,0,0,1,.78825-.24573ZM60.102,54.26425a8.69606,8.69606,0,0,1-3.27928,3.31043c-.24566.1419-.49735.276-.75593.39542-.01293.00519-.02543.01125-.03836.01731a9.35927,9.35927,0,0,1-3.90463.84534,8.41059,8.41059,0,0,1-7.60325-4.46986q.19331-.17262.39478-.33658c.49519-.32447.87832-.61173,1.13432-.80382l.09913-.07441a11.94866,11.94866,0,0,1,6.31377-1.79279,11.24693,11.24693,0,0,1,7.5636,2.84061C60.0516,54.21839,60.07659,54.24175,60.102,54.26425Z"/><polygon class="cls-2" points="136.858 36.617 146.308 36.617 146.948 44.948 137.412 44.948 136.858 36.617"/><path class="cls-2" d="M145.70313,43.48439l-3.84327-1.44861h-.00449l-2.95778-1.11513h-.00451c.03162-.26149.05875-.52283.081-.78824a18.74789,18.74789,0,0,0-.18874-4.51371c-.09972-.60432-.23061-1.20784-.38814-1.81055L138.397,33.804l1.448-.57289,4.9173-1.9499a1.58269,1.58269,0,0,0,1.01433-1.29941h.04449l-.64611-8.40334h-9.63873l.24758,3.7396-.99314.38751-.47512.18773a22.3981,22.3981,0,0,0-5.61581-4.87656l.82228-2.09516,1.48537-3.79074a1.57615,1.57615,0,0,0,.1-.57761h.0656l-.492-7.95412h-4.24069l.29631,5.192-1.96293-.71948a.23835.23835,0,0,0-.0488-.01582,1.81658,1.81658,0,0,0-2.30078.92127l-2.35568,5.84439a23.118,23.118,0,0,0-7.46866.008L109.704,11.989a1.965,1.965,0,0,0-2.237-.95685,1.79755,1.79755,0,0,0-.194.05925l-1.82894.69974-.17242-5.192h-4.24505l.2261,7.95412h.00438a1.55819,1.55819,0,0,0,.15742.6095l1.81261,3.73873,1.03923,2.14355a19.67321,19.67321,0,0,0-5.16683,4.88913l-1.48-.559-.0914-3.79667H87.88939l.10669,7.96691a1.87406,1.87406,0,0,0,.00518.387l.00066.04942h.00443a1.796,1.796,0,0,0,1.15486,1.36553l6.59762,2.50651c-.00375.03325-.01188.07063-.01563.10388a18.14253,18.14253,0,0,0-.24238,2.65881H88.11318l.1118,8.3338h.00453a1.59648,1.59648,0,0,0,.05974.7411l.00005.00427a1.20154,1.20154,0,0,0,.07514.20038l1.5976,3.51447.63106,1.38566a1.91075,1.91075,0,0,0,1.29737,1.0571,1.95809,1.95809,0,0,0,1.22454-.07342l6.6174-2.62711c.10817.14175.21637.28355.329.42108a22.06572,22.06572,0,0,0,3.12059,3.16579h-.77548l.2491,8.741A1.88831,1.88831,0,0,0,103.4864,62.96a1.91681,1.91681,0,0,0,.42174.22564l3.83776,1.50253,1.51315.5908a2.00374,2.00374,0,0,0,1.49764-.00445l-.00016-.00445a1.787,1.787,0,0,0,1.00641-1.00789l2.27562-5.80975a.94457.94457,0,0,1,.26946-.36784,1.011,1.011,0,0,1,.71977-.232c.5427.035,1.34746.08314,2.24309.10939.28479.00876.57876.01753.88151.01753a27.116,27.116,0,0,0,3.20637-.09629,1.09168,1.09168,0,0,1,.68245.1663,1.07148,1.07148,0,0,1,.38371.42915c.809,1.66341,2.80317,5.77018,2.80317,5.77018a2.06547,2.06547,0,0,0,2.59524,1.00786l3.95382-1.61509.07661-.031,1.13041-.4604a1.798,1.798,0,0,0,.46266-.27868,1.72608,1.72608,0,0,0,.53345-1.88894l-.50926-8.243h-.78915c.08219-.07356.15979-.14711.23738-.22067a18.27169,18.27169,0,0,0,2.06548-2.231c.06785-.07748.13116-.15495.18963-.23671a1.49278,1.49278,0,0,1,.70436-.50316,1.7393,1.7393,0,0,1,1.18791.02149l5.64142,2.14986a2.027,2.027,0,0,0,.38112.10365,2.16368,2.16368,0,0,0,.33061.03456,1.80272,1.80272,0,0,0,1.56279-.80275,1.72519,1.72519,0,0,0,.15808-.3233l1.41716-3.91771.35457-.99028A1.88226,1.88226,0,0,0,145.70313,43.48439ZM121.012,45.05248a9.4965,9.4965,0,0,1-4.84466.5324,9.47509,9.47509,0,0,1-6.96794-5.03534,7.80925,7.80925,0,0,1-.58033-1.62849,7.72782,7.72782,0,0,1-.19516-2.455,7.60006,7.60006,0,0,1,.64087-2.46684,8.04486,8.04486,0,0,1,4.47563-4.17809,8.88178,8.88178,0,0,1,1.19-.37046l.00872-.00412c.14535-.0329.29516-.06582.44529-.0905.01318-.00411.02208-.00411.03523-.00823a9.08125,9.08125,0,0,1,1.82575-.14394h.00445a9.56592,9.56592,0,0,1,1.53677.15217h.00446a9.27152,9.27152,0,0,1,6.64465,4.86349,8.11,8.11,0,0,1,.44276,1.06978A7.75533,7.75533,0,0,1,121.012,45.05248Z"/><g class="cls-3"><polygon class="cls-4" points="91.742 43.175 91.88 51.187 101.588 48.162 101.279 37.003 94.485 38.879 91.742 43.175"/></g><g class="cls-3"><path class="cls-4" d="M96.10831,21.57846l.27256,12.11338-.63767.26588c.00375-.03325.01188-.07063.01563-.10388l-6.59762-2.50651a1.796,1.796,0,0,1-1.15486-1.36553h-.00443l-.00066-.04942a1.87406,1.87406,0,0,1-.00518-.387l-.10669-7.96691Z"/></g><g class="cls-3"><path class="cls-4" d="M107.467,11.03212l.21432,6.0361-4.45423,1.83324-1.81261-3.73873a1.55819,1.55819,0,0,1-.15742-.6095h-.00438l-.2261-7.95412h4.24505l.17242,5.192,1.82894-.69974A1.79755,1.79755,0,0,1,107.467,11.03212Z"/></g><g class="cls-3"><path class="cls-4" d="M117.58479,44.79713l-.0547.8943-.46658,7.57652.20737,4.69407c-.89563-.02625-1.70039-.07438-2.24309-.10939a1.011,1.011,0,0,0-.71977.232.94457.94457,0,0,0-.26946.36784l-2.27562,5.80975a1.787,1.787,0,0,1-1.00641,1.00789l-.32523-8.80236,2.33836-11.17679,1.6131-.16608Z"/></g><path class="cls-4" d="M121.59581,49.00681l.4454,9.04275a1.09168,1.09168,0,0,0-.68245-.1663,43.53166,43.53166,0,0,1-6.331-.03063,1.011,1.011,0,0,0-.71977.232l-.37232-9.07778Z"/><path class="cls-4" d="M109.016,46.36543,104.89085,53.268l-1.77725-.5283h.06844a22.06572,22.06572,0,0,1-3.12059-3.16579c-.11267-.13753-.22087-.27933-.329-.42108l-.222-8.62853,3.73881-1.1325Z"/><g class="cls-3"><path class="cls-4" d="M125.39105,53.74477l.60195,11.34311a2.01539,2.01539,0,0,1-.76491-.839s-1.99414-4.10677-2.80317-5.77018a1.07148,1.07148,0,0,0-.38371-.42915,1.09168,1.09168,0,0,0-.68245-.1663,27.116,27.116,0,0,1-3.20637.09629c-.7543-3.14054-1.67495-7.054-2.04371-8.10472-.61092-1.73874,4.90328-4.82235,4.90328-4.82235Z"/></g><g class="cls-3"><path class="cls-4" d="M142.75025,42.624l.66953,9.23365a2.16368,2.16368,0,0,1-.33061-.03456,2.027,2.027,0,0,1-.38112-.10365l-5.64142-2.14986a1.7393,1.7393,0,0,0-1.18791-.02149,1.49278,1.49278,0,0,0-.70436.50316c-.05847.08176-.12178.15923-.18963.23671l-1.15649-2.12614-.46395-7.42674,3.28075-2.13735,2.32907,1.5347,2.88126,1.90337h.00449Z"/></g><g class="cls-3"><path class="cls-4" d="M145.175,21.57846l.64611,8.40334h-.04449a1.58269,1.58269,0,0,1-1.01433,1.29941l-4.9173,1.9499-1.448.57289.00028.00415c.15753.60271.28842,1.20623.38814,1.81055h-3.34951l-.64514-9.91313.99314-.38751-.24758-3.7396Z"/></g><g class="cls-3"><path class="cls-4" d="M130.68112,6.59911l.492,7.95412h-.0656a1.57615,1.57615,0,0,1-.1.57761l-1.48537,3.79074h-4.36554l-.43152-7.86577a.23835.23835,0,0,1,.0488.01582l1.96293.71948-.29631-5.192Z"/></g><path class="cls-4" d="M135.293,40.47789l.58577,9.07018a1.49278,1.49278,0,0,0-.70436.50316,18.82487,18.82487,0,0,1-2.25511,2.46775h-1.72386l-7.48475-6.721,6.9852-6.919Z"/><g class="cls-3"><polygon class="cls-4" points="88.113 36.617 89.373 36.617 88.12 37.139 88.113 36.617"/></g><g class="cls-3"><path class="cls-4" d="M114.73038,29.45071a8.88178,8.88178,0,0,0-1.19.37046,8.04486,8.04486,0,0,0-4.47563,4.17809,7.60006,7.60006,0,0,0-.64087,2.46684l-7.13674.761-1.35533.14652,3.97608-15.66983h8.908S108.86554,30.48049,114.73038,29.45071Z"/></g><g class="cls-3"><path class="cls-4" d="M119.01254,29.45071a9.58157,9.58157,0,0,1,1.22344.37046,9.1472,9.1472,0,0,1,4.85267,4.17809,8.18975,8.18975,0,0,1,.8635,2.46684l7.20542.761,1.36855.14652-5.39019-15.66983h-8.908S124.97032,30.48049,119.01254,29.45071Z"/></g><g class="cls-3"><path class="cls-4" d="M117.04537,29.20392a9.08125,9.08125,0,0,0-1.82575.14394A4.19726,4.19726,0,0,1,117.04537,29.20392Z"/></g><path class="cls-5" d="M145.05838,34.96024l-6.74116-2.51672-.00475-.00415a18.30941,18.30941,0,0,0-.48688-6.98268l6.30866-2.481a1.55856,1.55856,0,0,0,.83139-2.22943l-2.434-4.58982a2.03375,2.03375,0,0,0-2.4799-.906l-6.26566,2.43875a22.13647,22.13647,0,0,0-5.56268-4.7929l2.29009-5.78069a1.68566,1.68566,0,0,0-1.12353-2.148l-5.05235-1.839a1.818,1.818,0,0,0-2.32907.88941l-2.33723,5.74029a23.22819,23.22819,0,0,0-7.40164.00788L109.4019,4.03347a1.95484,1.95484,0,0,0-2.40906-.88167l-4.88637,1.8469a1.5512,1.5512,0,0,0-.92112,2.14819l2.82479,5.78113a19.35058,19.35058,0,0,0-5.12155,4.79723l-1.46636-.54491-.00449-.004L92.403,15.30626a1.8848,1.8848,0,0,0-2.39378.91407l-1.17942,2.70125h-.0044l-.82728,1.89327a1.68228,1.68228,0,0,0,1.04148,2.22571l6.53712,2.46508a18.218,18.218,0,0,0,.16136,6.98758L89.233,35.02689a1.69569,1.69569,0,0,0-.98466,2.30072l2.20733,4.80968a1.9697,1.9697,0,0,0,2.49822.96119l6.55651-2.57423c.10713.13913.21419.27406.32589.41327a22.00659,22.00659,0,0,0,5.25066,4.67293l-2.55819,6.299a1.83764,1.83764,0,0,0,1.11,2.3821l5.30436,2.054a1.90056,1.90056,0,0,0,2.48077-.9933l2.51181-6.34545a23.479,23.479,0,0,0,3.84439.3178,22.64777,22.64777,0,0,0,3.87867-.33069l3.10309,6.34095a2.04376,2.04376,0,0,0,2.57023.98889l5.11329-2.06693a1.709,1.709,0,0,0,.88993-2.38626l-3.14927-6.29a19.28666,19.28666,0,0,0,5.10692-5.10272l6.79223,2.56127a1.829,1.829,0,0,0,2.41063-.96956l1.759-4.81317A1.8427,1.8427,0,0,0,145.05838,34.96024Zm-24.4641,1.53927a9.32893,9.32893,0,0,1-4.80011.5226,9.17626,9.17626,0,0,1-6.90185-4.94291,7.76994,7.76994,0,0,1-.57447-1.59871,7.447,7.447,0,0,1,1.84354-6.91223,8.177,8.177,0,0,1,3.036-2.02216,9.23771,9.23771,0,0,1,5.00036-.46068h.00441a9.191,9.191,0,0,1,6.5821,4.7793,8.03679,8.03679,0,0,1,.78442,2.51338l.00022.00411a7.51318,7.51318,0,0,1-3.30731,7.23232l.00021.00417A8.34711,8.34711,0,0,1,120.59428,36.49951Z"/><path class="cls-6" d="M92.403,15.30652l5.014,1.87153c-.15739-.00659-5.18066-.27467-5.68118-.36124-.49531-.0885-2.81236,2.01425-2.90692,2.10332l1.18-2.70084A1.88374,1.88374,0,0,1,92.403,15.30652Z"/><path class="cls-6" d="M109.40043,4.0325l1.871,3.74-2.25307-2.02091a4.20608,4.20608,0,0,0-2.64817-1.046L103.178,4.59416l3.81362-1.4432A1.95519,1.95519,0,0,1,109.40043,4.0325Z"/><path class="cls-6" d="M128.22489,12.89745a39.45526,39.45526,0,0,0,.44758-5.94581c-.1681-1.60053-2.91351-3.3041-2.91351-3.3041l3.63164,1.31955a1.68456,1.68456,0,0,1,1.12234,2.14878Z"/><path class="cls-6" d="M124.762,55.33677l-2.03056-4.15024,2.40171,2.23366a4.39983,4.39983,0,0,0,2.81746,1.16441l3.37578.12428L127.332,56.32555A2.05021,2.05021,0,0,1,124.762,55.33677Z"/><path class="cls-6" d="M105.08872,45.61426a44.94415,44.94415,0,0,0-.63213,6.477c.13123,1.774,2.98977,3.67681,2.98977,3.67681l-3.80507-1.47516A1.83893,1.83893,0,0,1,102.528,51.91Z"/><path class="cls-6" d="M144.13313,22.9773l-4.872,1.91555c.11037-.09847,3.66869-3.18858,4.07116-3.452.40045-.2585.207-3.27582.19652-3.40056l1.437,2.709A1.5558,1.5558,0,0,1,144.13313,22.9773Z"/><path class="cls-6" d="M142.0868,43.03963l-4.44109-1.67432,3.24706.04517a3.89194,3.89194,0,0,0,2.70283-.99829l2.27618-2.106-1.37706,3.76657A1.827,1.827,0,0,1,142.0868,43.03963Z"/><path class="cls-2" d="M90.26105,34.66884l.00237.14984h-.009A.83941.83941,0,0,0,90.26105,34.66884Z"/><path class="cls-2" d="M97.70292,54.66079H86.29831A31.80357,31.80357,0,0,0,81.56075,44.0532l7.86146-7.43249a2.58391,2.58391,0,0,0,.83225-1.802.83941.83941,0,0,0,.00659-.14984l-.11125-7.0454H83.78893l-.61267-.56108a3.1109,3.1109,0,0,0-4.15219,0L72.9512,32.6838l-1.78486,1.648a34.943,34.943,0,0,0-10.968-4.22644l.17417-10.16162a2.73018,2.73018,0,0,0-2.85948-2.6593H48.97336a2.89919,2.89919,0,0,0-2.98861,2.65526l-.33652,10.16154a36.71873,36.71873,0,0,0-11.185,4.23056l-7.49213-7.27354a3.119,3.119,0,0,0-4.15216,0L21.22227,28.4561l.04754-.79167H15.81865L15.356,34.66884h.00448a2.489,2.489,0,0,0,.73178,1.95187l.01292.00834,6.33406,6.2872L23.5804,44.049l-.00024.00423A33.71,33.71,0,0,0,18.3143,54.65647H6.90517a3.22471,3.22471,0,0,0-1.35237.29559,2.70714,2.70714,0,0,0-.38546.2,3.12719,3.12719,0,0,0-1.51008,2.39l-.66038,8.58658a2.85362,2.85362,0,0,0,.0714.878,2.6823,2.6823,0,0,0,1.08607,1.564,2.9276,2.9276,0,0,0,1.69242.515h8.95342a.00413.00413,0,0,1-.00436-.00448l1.601.00448a1.20675,1.20675,0,0,1,.99956.5021,1.066,1.066,0,0,1,.20362.46673c.17065.85832.37036,1.70469.61346,2.53451a31.52879,31.52879,0,0,0,3.3257,7.68069l-5.09905,4.72.14574-2.37039H12.19366l-.52175,7.90007a2.89621,2.89621,0,0,0,.76145,2.30117L18.599,99.34136a2.80478,2.80478,0,0,0,.47491.40092,3.01966,3.01966,0,0,0,1.71454.52548,3.33261,3.33261,0,0,0,1.49635-.36313,3.71237,3.71237,0,0,0,.797-.56327l6.99177-6.61027a3.39657,3.39657,0,0,1,1.51731-.83233,3.14669,3.14669,0,0,1,2.29283.28668c.58983.32921,1.19491.64451,1.80612.93646a35.10841,35.10841,0,0,0,7.77753,2.68759L43.071,107.77644a3.09,3.09,0,0,0,3.10151,3.2233h9.431a3.204,3.204,0,0,0,1.67106-.46874,3.30551,3.30551,0,0,0,1.17918-1.22345,3.23693,3.23693,0,0,0,.41329-1.53111l.20512-11.96695a36.75049,36.75049,0,0,0,9.76579-3.61934,3.2082,3.2082,0,0,1,3.78272.54094l6.65951,6.61027a3.17984,3.17984,0,0,0,4.48284,0l1.84451-1.85228,4.64886-4.66856a3.02532,3.02532,0,0,0,.88022-2.10436h.00475l-.12781-8.09688H86.61661l.02659,2.37039-4.85711-4.71543a33.65516,33.65516,0,0,0,2.68329-4.98743,32.77231,32.77231,0,0,0,1.80027-5.37149l-.0001-.009a1.09078,1.09078,0,0,1,1.07241-.82068H98.04061a2.92077,2.92077,0,0,0,2.99387-2.957l-.22868-8.58223A3.05164,3.05164,0,0,0,97.70292,54.66079ZM59.463,73.5514a14.95224,14.95224,0,0,1-7.68716,2.12143,13.62379,13.62379,0,0,1-13.849-11.978,7.58172,7.58172,0,0,0-.06235-1.08853c-.00318-.2651-.0065-.52565.00416-.79046A13.791,13.791,0,0,1,43.1643,51.58989c.63828-.40995,1.0783-.76351,1.28354-.91a1.08815,1.08815,0,0,1,.11639-.07757l.00925-.00429a14.92015,14.92015,0,0,1,7.88889-2.24333,14.2048,14.2048,0,0,1,9.5582,3.60662,13.04358,13.04358,0,0,1,4.08824,7.07415,12.854,12.854,0,0,1,.2707,2.78037A13.91546,13.91546,0,0,1,59.463,73.5514Z"/><g class="cls-3"><path class="cls-4" d="M21.87631,54.95206,20.85959,72.589H18.2135c-.2431-.82982-.44281-1.67619-.61346-2.53451a1.066,1.066,0,0,0-.20362-.46673,1.20675,1.20675,0,0,0-.99956-.5021l-1.601-.00448a.00413.00413,0,0,0,.00436.00448H5.84677a2.9276,2.9276,0,0,1-1.69242-.515L5.18244,54.95206Z"/></g><g class="cls-3"><path class="cls-4" d="M36.29707,78.38362,35.68984,93.1219c-.61121-.29195-1.21629-.60725-1.80612-.93646a3.14669,3.14669,0,0,0-2.29283-.28668,3.39657,3.39657,0,0,0-1.51731.83233l-6.99177,6.61027a3.71237,3.71237,0,0,1-.797.56327,3.33261,3.33261,0,0,1-1.49635.36313L22.016,78.38362Z"/></g><g class="cls-3"><path class="cls-4" d="M22.43926,42.91625l-6.33406-6.2872c.26818.15052,4.88958,2.72905,3.55578-3.879-1.35581-6.70572,8.80658,1.65247,9.02988,1.91875C28.82994,34.83533,25.18323,39.47586,22.43926,42.91625Z"/></g><path class="cls-4" d="M47.15,80.178,43.46737,95.80949a35.05951,35.05951,0,0,1-9.58365-3.624,3.14669,3.14669,0,0,0-2.29283-.28668L32.12381,80.178Z"/><path class="cls-4" d="M31.81961,61.64819,30.74635,84.63776h-13.926l4.71888-4.36808A31.75012,31.75012,0,0,1,17.6,70.05448a1.066,1.066,0,0,0-.20362-.46673l.48807-7.93956Z"/><g class="cls-3"><path class="cls-4" d="M82.71682,54.95206,82.84706,72.589h2.64609c.2848-.82982.52706-1.67619.74085-2.53451a1.12783,1.12783,0,0,1,.22708-.46673,1.27615,1.27615,0,0,1,1.0248-.5021l1.60125-.00448a.00436.00436,0,0,1-.00458.00448H98.036a3.04952,3.04952,0,0,0,1.7183-.515l-.34358-13.61861Z"/></g><g class="cls-3"><path class="cls-4" d="M67.11832,78.38362,66.98477,93.1219c.62588-.29195,1.24681-.60725,1.85319-.93646a3.2118,3.2118,0,0,1,3.78271.54565l6.65951,6.61027a3.458,3.458,0,0,0,.76873.56327,3.22112,3.22112,0,0,0,1.47809.36313l-.12759-21.88414Z"/></g><g class="cls-3"><path class="cls-4" d="M82.75883,42.91625l6.65007-6.2872c-.27575.15052-5.02676,2.72905-3.36082-3.879,1.69287-6.70572-8.88964,1.65247-9.12631,1.91875C76.77432,34.83533,80.18777,39.47586,82.75883,42.91625Z"/></g><path class="cls-4" d="M56.17516,80.178l2.897,15.63154a36.82923,36.82923,0,0,0,9.7658-3.624,3.20234,3.20234,0,0,1,2.30724-.28668L71.2014,80.178Z"/><path class="cls-4" d="M72.437,61.64819l-.08226,22.98957h13.926l-4.49933-4.36808A33.46069,33.46069,0,0,0,86.234,70.05448a1.12783,1.12783,0,0,1,.22708-.46673l-.089-7.93956Z"/><path class="cls-5" d="M81.49012,93.94219l.03688,6.32557a3.145,3.145,0,0,0,1.74095-.52548,3.01885,3.01885,0,0,0,.49507-.40092l6.16042-6.18648s-5.2229,4.17229-6.74355,4.42461C81.65844,97.83194,81.49012,93.94219,81.49012,93.94219Z"/><path class="cls-5" d="M97.534,47.44669H86.21739A31.19842,31.19842,0,0,0,81.51688,37.0012l7.80233-7.32a2.57225,2.57225,0,0,0-.057-3.83686l-2.53081-2.30045H86.727l-3.60594-3.27768a3.105,3.105,0,0,0-4.1211,0l-7.79864,7.16469A34.7467,34.7467,0,0,0,60.3156,23.26375l.17165-10.01433a2.70391,2.70391,0,0,0-2.8387-2.616H49.17214a2.869,2.869,0,0,0-2.96582,2.616l-.33151,10.01027A36.609,36.609,0,0,0,34.775,27.43088l-7.43852-7.16469a3.10411,3.10411,0,0,0-4.1211,0l-6.4218,5.58221a2.58341,2.58341,0,0,0-.24981,3.8369l7.43467,7.3159a33.88673,33.88673,0,0,0-3.05755,4.95844,32.35723,32.35723,0,0,0-2.16341,5.487H7.43633a3.21264,3.21264,0,0,0-3.22116,2.84125l-.64983,8.44934a2.72374,2.72374,0,0,0,2.82472,2.91091H17.88449a30.72461,30.72461,0,0,0,1.52477,5.72,31.351,31.351,0,0,0,2.55992,5.28849l-.00026.00452-8.74621,8.03523a3.02578,3.02578,0,0,0-.281,4.31638l6.11949,6.41161a3.16258,3.16258,0,0,0,4.44661,0l8.75115-8.2102A34.80717,34.80717,0,0,0,43.72756,87.954l-.39,11.774a3.02628,3.02628,0,0,0,.8624,2.23479,3.05708,3.05708,0,0,0,2.21477.93136h9.35389A3.24452,3.24452,0,0,0,59.005,99.72794l.20189-11.77864a36.47571,36.47571,0,0,0,11.70677-4.73507l8.33849,8.2102a3.16365,3.16365,0,0,0,4.44661,0l6.44175-6.41161a3.01233,3.01233,0,0,0-.06406-4.31638l-8.33765-8.03071,0-.00452a32.633,32.633,0,0,0,4.44892-10.19633c.06609-.27386.13221-.54314.189-.81669H97.8665a2.88752,2.88752,0,0,0,2.971-2.91091l-.22513-8.44934A3.01757,3.01757,0,0,0,97.534,47.44669ZM59.59158,66.04408a14.9213,14.9213,0,0,1-7.62625,2.08814c-7.25665,0-13.05462-5.16779-13.74352-11.791a12.92784,12.92784,0,0,1-.05831-1.84987,13.7016,13.7016,0,0,1,6.64069-11.04092l.00918-.00424a14.88808,14.88808,0,0,1,7.82787-2.209,14.16,14.16,0,0,1,9.48537,3.55145A12.82274,12.82274,0,0,1,66.184,51.754a12.56081,12.56081,0,0,1,.26882,2.73739A13.67983,13.67983,0,0,1,59.59158,66.04408Z"/><path class="cls-6" d="M18.7497,47.44852s-7.89806,1.57729-10.64041,2.73795C5.36011,51.35,3.75086,56.34309,3.75086,56.34309l.46555-6.05331a3.20934,3.20934,0,0,1,3.22116-2.84126Z"/><path class="cls-6" d="M27.33779,20.26792l5.7447,5.53325c-.22129-.09794-7.21562-3.29809-7.8638-3.70309-.6388-.40465-5.569,1.37039-5.77269,1.44755l3.77066-3.27771A3.10413,3.10413,0,0,1,27.33779,20.26792Z"/><path class="cls-6" d="M60.48417,13.25111l-.11173,6.51714-1.7497-4.217a5.65173,5.65173,0,0,0-3.055-2.99423L51.029,10.63509h6.62085A2.7,2.7,0,0,1,60.48417,13.25111Z"/><path class="cls-6" d="M81.51772,37.00276s4.2112-6.126,5.17366-8.61449c.95719-2.475-1.84683-6.55577-1.84683-6.55577L89.261,25.84693a2.568,2.568,0,0,1,.057,3.83775Z"/><path class="cls-6" d="M59.09661,94.38118,59.005,99.72794a3.24452,3.24452,0,0,1-3.23632,3.16615H46.41475a3.0564,3.0564,0,0,1-3.07238-3.16615l.25571-7.72112s.50559,8.78093,5.13055,8.55737a44.16819,44.16819,0,0,0,5.38691-.29643C58.14,99.87122,59.00519,94.98606,59.09661,94.38118Z"/><path class="cls-6" d="M21.964,72.66788s-4.854,6.70266-6.0718,9.47859c-1.22484,2.792,1.43657,7.465,1.43657,7.465L12.944,85.01379a3.02026,3.02026,0,0,1,.28107-4.31735Z"/><path class="cls-6" d="M97.86481,61.6506l-8.88326,0c.243-.08421,8.0187-2.67155,8.83318-2.83278.80787-.155,2.80864-4.87594,2.88738-5.07226l.1331,4.99477A2.88491,2.88491,0,0,1,97.86481,61.6506Z"/><path class="cls-6" d="M79.25631,91.42825,73.792,86.048l4.91032,2.09221a6.71135,6.71135,0,0,0,4.909.13188l5.12484-1.86288-5.03895,5.01906A3.16461,3.16461,0,0,1,79.25631,91.42825Z"/><path class="cls-6" d="M59.59108,66.046c.604-.15579,20.68363-5.30366,22.14721,6.61715A32.63315,32.63315,0,0,0,86.1872,62.46677a11.78079,11.78079,0,0,1-12.156-1.54392c-2.88362-2.17053-5.68679-5.86457-7.84772-9.167a12.559,12.559,0,0,1,.26881,2.7374A13.67993,13.67993,0,0,1,59.59108,66.046Z"/><path class="cls-6" d="M18.75694,47.44852s11.1004-1.6194,15.37645,1.16037a9.33,9.33,0,0,1,4.08791,7.7342,12.92635,12.92635,0,0,1-.05834-1.84987,13.7016,13.7016,0,0,1,6.64074-11.041c-.265.0891-5.44381,4.91318-11.83583,2.05381C22.10252,41.239,23.978,37.003,23.978,37.003A33.13893,33.13893,0,0,0,18.75694,47.44852Z"/><path class="cls-2" d="M52.8665,32.27376c-10.57393,0-19.793,6.65567-22.98192,15.888A21.53949,21.53949,0,0,0,42.28919,75.246a.01417.01417,0,0,0,.00919.00454,24.209,24.209,0,0,0,9.44062,1.8874c13.34974,0,24.17536-10.42556,24.174-22.97224C75.91159,41.947,65.59089,32.27376,52.8665,32.27376Zm-.833,33.14747c-6.53774,0-11.65-5.07243-11.41722-11.25555.22958-6.09814,5.5923-10.99087,11.9763-10.99087,6.3885,0,11.50535,4.89273,11.42845,10.99087C63.943,60.3488,58.5758,65.42123,52.03346,65.42123Z"/><g class="cls-3"><path class="cls-4" d="M61.28391,75.246C69.91107,71.67807,75.914,63.50437,75.913,54.16568a21.1457,21.1457,0,0,0-.86313-6.00388c-2.8317,3.33743-14.62958,17.56631-12.01178,19.97042C65.96859,70.81837,61.49713,75.0463,61.28391,75.246Z"/></g><g class="cls-3"><path class="cls-4" d="M42.28919,75.246A21.53949,21.53949,0,0,1,29.88458,48.1618c2.66394,3.33743,13.74664,17.56631,11.008,19.97042C37.82705,70.81837,42.086,75.0463,42.28919,75.246Z"/></g><path class="cls-7" d="M73.89219,41.67644l-.009-.0169a22.96706,22.96706,0,0,0-20.93274-12.727,24.94817,24.94817,0,0,0-7.56483,1.16869c-9.12081,2.89757-16.00428,10.92909-16.4895,20.56136a20.91166,20.91166,0,0,0,1.064,7.75913C32.90165,67.145,41.46119,73.461,51.83141,73.461a24.90714,24.90714,0,0,0,6.55326-.872h.00467c9.59485-2.60186,16.73682-10.69815,17.4596-20.30786.041-.5358.06368-1.07531.06362-1.6185A20.84767,20.84767,0,0,0,73.89219,41.67644Zm-16.57826,19.02a.32845.32845,0,0,0-.04643.022,12.38279,12.38279,0,0,1-5.14387,1.115c-6.51295,0-11.60655-5.0341-11.37551-11.17084.00567-.15076.01571-.2972.03033-.44355l.00016-.00431c.01346-.23668.04038-.469.07639-.70109a11.67532,11.67532,0,0,1,9.35613-9.51182,12.21079,12.21079,0,0,1,2.4674-.24836,11.1897,11.1897,0,0,1,11.15695,8.60119.0635.0635,0,0,0,.00432.01714,10.26377,10.26377,0,0,1,.22537,2.2908,11.23655,11.23655,0,0,1-5.74778,9.51028C57.99194,60.362,57.65742,60.538,57.31393,60.69644Z"/><path class="cls-6" d="M50.21113,40.00186A11.67532,11.67532,0,0,0,40.855,49.51368c.11586-1.75454-.12267-6.33765-6.81115-3.615-6.17665,2.84808-4.07916,12.523-4.07916,12.523h-.0046a20.91166,20.91166,0,0,1-1.064-7.75913c.48522-9.63227,7.36869-17.66379,16.4895-20.56136h.26259c-3.93371,2.35883-9.12465,5.79536-5.76972,8.45877C43.253,41.239,50.21113,40.00186,50.21113,40.00186Z"/><path class="cls-6" d="M75.91256,50.66263c.00006.54319-.02265,1.0827-.06362,1.6185-.72278,9.60971-7.86475,17.706-17.4596,20.30786.2831-.19856,8.02779-2.796,8.40008-9.86058.36679-6.96035-6.192-3.65786-8.472-2.5555a11.23655,11.23655,0,0,0,5.74778-9.51028,10.26377,10.26377,0,0,0-.22537-2.2908c.09976.36458,1.95531,6.93257,6.64355,5.37294,4.80484-1.59332,3.39986-12.08523,3.39986-12.08523l.009.0169A20.84767,20.84767,0,0,1,75.91256,50.66263Z"/><path class="cls-5" d="M58.914,105.03232l-.047,2.74412a3.23693,3.23693,0,0,1-.41329,1.53111,3.30551,3.30551,0,0,1-1.17918,1.22345,3.204,3.204,0,0,1-1.67106.46874h-9.431a3.09,3.09,0,0,1-3.10151-3.2233l.12076-3.64584.0053-.01444s-.16695,4.97066,2.64037,5.15213c2.80834.18153,8.87722-.07538,10.06306-.073S58.8586,108.26686,58.914,105.03232Z"/><path class="cls-5" d="M21.14326,93.94219l-.35483,6.32557a3.01966,3.01966,0,0,1-1.71454-.52548,2.80478,2.80478,0,0,1-.47491-.40092L12.7495,93.15488s5.0132,4.17229,6.52117,4.42461C20.77942,97.83194,21.14326,93.94219,21.14326,93.94219Z"/><path class="cls-6" d="M95.73592,32.49583a48.41317,48.41317,0,0,0-5.27937,3.89906c-1.2267,1.26163-.62673,4.381-.62673,4.381l-1.58363-3.44957a1.69735,1.69735,0,0,1,.98606-2.29976Z"/><path class="cls-5" d="M110.52811,59.08809l.22858,6.18643a2.00374,2.00374,0,0,1-1.49764.00445l-1.51315-.5908-3.83776-1.50253a1.91681,1.91681,0,0,1-.42174-.22564l-.00013-.0044c.42187.23,4.16457.55761,4.89744,0C109.11556,62.3942,110.52811,59.08809,110.52811,59.08809Z"/><path class="cls-5" d="M91.78287,45.61471l.1076,6.2386a1.91075,1.91075,0,0,1-1.29737-1.0571L89.962,49.41055l-1.5976-3.51447a1.20154,1.20154,0,0,1-.07514-.20038s1.794,1.5542,2.1575,1.3105A13.36958,13.36958,0,0,0,91.78287,45.61471Z"/><path class="cls-5" d="M133.44683,62.87157a1.798,1.798,0,0,1-.46266.27868l-1.13041.4604-.07661.031-3.95382,1.61509a2.032,2.032,0,0,1-1.83033-.16887l-.31839-5.99979s1.71015,3.30611,2.49253,3.86751C128.95021,63.51321,133.04577,63.10156,133.44683,62.87157Z"/><path class="cls-5" d="M146.55585,46.78823l.002.02564-1.41716,3.91771a1.72519,1.72519,0,0,1-.15808.3233,1.80272,1.80272,0,0,1-1.56279.80275l-.37347-5.15057a14.83241,14.83241,0,0,0,1.46282,1.39477C144.89527,48.3504,146.55585,46.78823,146.55585,46.78823Z"/><path class="cls-6" d="M110.16139,23.56826a7.4729,7.4729,0,0,0-2.05948,4.97l-.01317.00411c-1.40445-4.70967-6.69592-6.74544-9.34435,0-.57489-1.26884-.20136-9.8611,9.6309-14.58583C108.37529,13.9565,103.76016,24.77611,110.16139,23.56826Z"/><path class="cls-6" d="M122.77253,45.69143s.0539-.00853.16124-.0341C122.831,45.6829,122.77253,45.69143,122.77253,45.69143Z"/><path class="cls-6" d="M136.06349,30.75276a16.58284,16.58284,0,0,1-13.12972,14.90457,5.71,5.71,0,0,0,4.212-4.92227c.63567-4.27733-4.88392-5.11636-4.88392-5.11636l-.00021-.00417a7.51318,7.51318,0,0,0,3.30731-7.23232c.04055.17243,1.24079,5.60044,3.75459,7.23649C131.88823,37.28573,136.06349,30.75276,136.06349,30.75276Z"/></svg>