<svg id="Layer_1" data-name="Layer 1" xmlns="http://www.w3.org/2000/svg" viewBox="0 0 144 150"><defs><style>.cls-1{fill:#261917;}.cls-2{fill:#513831;}.cls-3{opacity:0.51;}.cls-4{fill:#322424;}.cls-5{fill:#735447;}.cls-6{fill:#3f2a25;}.cls-7{fill:#a07e70;}</style></defs><path class="cls-1" d="M143.98725,87.45918c-.00837-.37144-.01675-.74148-.00651-1.19928l-.014-5.696c.00279-.16993-.00093-.3394-.01209-.50933.00837-.15507.01116-.30783.00744-.45733-.00465-.15972-.01767-.31712-.0307-.43737a6.09644,6.09644,0,0,0-.08373-.61148c-.02884-.14672-.06512-.29065-.10605-.43458a5.85075,5.85075,0,0,0-.17676-.57248c-.053-.14486-.11443-.286-.21491-.49958-.06791-.15044-.14048-.299-.22886-.45455-.08372-.14811-.17769-.29065-.30235-.47265-.08652-.1314-.17676-.25955-.27165-.37748-.12-.15136-.25212-.29576-.39539-.44387-.09954-.10957-.20281-.21636-.32375-.32779a5.61635,5.61635,0,0,0-.47539-.38444,4.50009,4.50009,0,0,0-.36561-.27022,6.89689,6.89689,0,0,0-.94521-.51908L135.62741,71.811c.20839-.09286.39911-.17829.5675-.25305l.4205-.18711c1.79551-.79813,2.49046-1.10781,2.86631-1.30607a6.17094,6.17094,0,0,0,3.53242-5.64353q.00279-.04109.00279-.08218c.0214-.409.00744-.78791-.00651-1.1157l-.00931-5.911c0-.04782-.00093-.09518-.00372-.143-.00558-.12676.00093-.25165.00372-.37608.00745-.27951.01582-.612-.0093-.99081.00651-.143.00837-.29205.00465-.45269,0-.1119-.00372-.26326-.01116-.35891a5.64445,5.64445,0,0,0-.09024-.62448,4.69588,4.69588,0,0,0-.11629-.57108l-.5982-2.10884c-.1442-.5098-.29119-1.03677-.5033-1.80611a6.39154,6.39154,0,0,0-.87171-1.86369,6.60251,6.60251,0,0,0-5.47213-2.90232c-.026,0-.053,0-.08.00046l-8.20727.04968,1.802-2.15527a5.72027,5.72027,0,0,0,1.1201-1.95887,8.60693,8.60693,0,0,0,.34422-3.04068c-.00559-.22193-.013-.44294-.00279-.65976.00279-.04876.00465-.097.00465-.14579l.04-5.949a3.11271,3.11271,0,0,0-.00837-.344l-.00093-.04735a6.2033,6.2033,0,0,0,.013-.77677c-.00651-.14208-.0214-.28276-.04093-.42855a6.35718,6.35718,0,0,0-.13862-.77352c-.04465-.17736-.09675-.34961-.15257-.51212a6.77326,6.77326,0,0,0-.29212-.69969c-.07443-.15694-.1535-.31062-.22607-.43087a6.0503,6.0503,0,0,0-.51167-.73777c-.06327-.08636-.13118-.17225-.19351-.24329l-2.6942-3.06065a6.44033,6.44033,0,0,0-1.268-1.0897,6.58852,6.58852,0,0,0-4.76509-1.034,6.39126,6.39126,0,0,0-1.68946.50933l-7.10205,3.29512c-.04372.0181-.08745.03714-.13024.05711l-1.93413.92952-1.09406-.80881c-.24467-.18107-.47725-.35333-.71076-.526l.39166-1.64639c.04094-.15926.07164-.319.0949-.47126.03256-.20151.05582-.40626.07256-.60731.00558-.06639.0093-.13278.01023-.19918l.16653-7.71569c.00651-.195.00651-.383-.00186-.56412.00558-.08775.0093-.17318.01023-.25443a5.69968,5.69968,0,0,0-.02418-.65281c-.0121-.13-.027-.25907-.05861-.46244-.03443-.19454-.07815-.38443-.12467-.55251-.03907-.14207-.08-.28322-.13768-.44851-.05861-.16575-.12839-.32594-.21677-.51908-.06419-.14161-.133-.28183-.21955-.436-.07722-.137-.16281-.26883-.27166-.429-.08931-.13465-.18234-.26651-.28653-.39744-.09211-.11607-.19165-.227-.32375-.3654-.11722-.12861-.2391-.2549-.39818-.3993-.09489-.0845-.19537-.16436-.30608-.24886a5.80657,5.80657,0,0,0-.50051-.36726c-.05488-.03528-.12373-.07614-.19164-.11375a6.21569,6.21569,0,0,0-.69309-.36726l-3.70825-1.65429a6.52158,6.52158,0,0,0-7.66861,1.69654l-4.405,5.27349-.01024.01207-1.775,2.12184c-1.18709-.26279-2.016-.442-2.99749-.6542l-1.202-.26047L82.31,12.44084c-.00744-.03668-.01582-.07289-.02419-.10911l-1.763-7.54529A6.33586,6.33586,0,0,0,74.33341.01254c-2.03181-.01672-2.65606-.01672-4.65252,0A6.35179,6.35179,0,0,0,63.4673,4.81383l-1.97879,8.498-.02512.10215-.00186-.00047L61.3592,13.85l-1.2029.26047c-.98986.214-1.82529.39466-2.99749.6542l-1.775-2.12184-.0121-.01439L50.9722,7.361a6.00861,6.00861,0,0,0-.50982-.52837,6.51708,6.51708,0,0,0-7.16065-1.17235L39.57208,7.32336a6.55057,6.55057,0,0,0-1.45781.91327c-.07628.05943-.16745.13418-.22793.189a5.94393,5.94393,0,0,0-.44748.45547c-.094.09844-.18327.19965-.24281.2744a6.22062,6.22062,0,0,0-.37306.52327c-.07815.11654-.1535.2354-.20467.32826-.08838.15646-.1656.31665-.24653.49911-.06606.14394-.12839.28833-.19444.47127-.05768.16482-.1042.331-.1442.48565-.04372.16715-.0828.33522-.11257.51212-.02884.16947-.04651.3394-.06326.54369-.013.1704-.02047.3394-.01861.50887.00094.0975.00559.195.0121.29669a4.60917,4.60917,0,0,0-.00465.51815l.16745,7.7663c.00093.072.00559.14347.01117.215.02047.23726.05117.48055.08745.676.02047.12629.04558.25165.07628.37561l.39632,1.664c-.53586.40394-1.06521.807-1.73783,1.3265l-2.00856-.93c-.03814-.0181-.07722-.03482-.11536-.05107l-7.10577-3.297a4.24106,4.24106,0,0,0-.42422-.16808,6.67214,6.67214,0,0,0-7.317,1.795L15.194,26.2625c-.0614.06965-.12839.15508-.19165.24051a6.39863,6.39863,0,0,0-.52563.76284c-.07256.12443-.13582.24979-.2056.39558a5.956,5.956,0,0,0-.32.77955c-.04651.14022-.08931.27858-.12094.40533a5.81684,5.81684,0,0,0-.16373.94485c-.01024.08729-.01954.189-.02326.26233a6.09065,6.09065,0,0,0,.0093.78234c-.00744.11932-.01116.23772-.01023.35193l.04093,6.01637c0,.04968.00186.09936.00465.149.01117.21729.00372.43922,0,.66162a9.39616,9.39616,0,0,0,.21863,2.588,5.72206,5.72206,0,0,0,1.19825,2.35492l1.84575,2.2068-8.18866-.04922c-.026-.00046-.0521-.00046-.07722-.00046A6.66882,6.66882,0,0,0,4.58468,46.536a6.43131,6.43131,0,0,0-2.26811,3.35873c-.27538,1.00056-.44563,1.60415-.64006,2.29456l-.45028,1.60275a5.94286,5.94286,0,0,0-.21211,1.18953c-.00651.0845-.01116.18479-.01209.28043a6.09235,6.09235,0,0,0,.00837.61148c-.01861.32733-.013.617-.00744.86406.00186.12165.00837.24376,0,.36587-.00372.06964-.00651.13929-.00651.20893l-.00931,5.911a11.36453,11.36453,0,0,0-.00465,1.1482c0,.01672.00093.033.00186.04968a6.16985,6.16985,0,0,0,3.53149,5.64353c.3712.19594,1.05777.50191,2.8291,1.28936l.22048.098c.23909.10679.51075.22751.80473.35891L3.9409,73.79817a6.85167,6.85167,0,0,0-.9238.50933,5.885,5.885,0,0,0-.51261.38351c-.10326.07847-.20467.15972-.31166.25583a6.26161,6.26161,0,0,0-.49679.5098c-.0707.07521-.16652.18386-.22141.25165a6.295,6.295,0,0,0-.39725.5604c-.04465.06547-.12931.19826-.16931.267a5.8558,5.8558,0,0,0-.32283.64491c-.03535.07615-.10512.23865-.13489.31665a6.47726,6.47726,0,0,0-.20653.66116c-.03256.11886-.0614.23726-.08187.338a6.40906,6.40906,0,0,0-.09954.70062c-.013.13465-.02326.26837-.026.39233-.00465.149-.00186.29715.00651.45966-.01116.16947-.01489.34172-.01209.51583L.01775,86.35c.01023.397.00186.80092-.00558,1.20578-.00837.42669-.01582.85385-.01023,1.27636H.00287c.00186.0975.00744.19454.01767.29158.00744.14253.01861.2939.03256.46708.00465.12814.013.25583.026.38165.01024.0924.02419.18433.0428.27533L.92574,94.348a6.33007,6.33007,0,0,0,3.818,4.669,6.49439,6.49439,0,0,0,1.255.37469,4.21952,4.21952,0,0,0,.5526.06778,6.23675,6.23675,0,0,0,.7917.04968l7.7877-.10771-2.3472,2.73378a6.51993,6.51993,0,0,0-.73495,1.05859c-.07628.13419-.14327.2693-.22327.44109a6.84255,6.84255,0,0,0-.29677.73916c-.054.16343-.10234.32593-.14513.5a5.95659,5.95659,0,0,0-.13955.7958,4.16655,4.16655,0,0,0-.04373.42251,6.2565,6.2565,0,0,0,.014.85477,15.073,15.073,0,0,0-.00931,1.51361c.00838.26233.01954.5228.00745.7777-.00279.058-.00372.11607-.00372.17411l.02791,6.42819c-.00559.27487.0093.54973.0307.8246.00558.06268.01209.12489.02046.18711a6.6837,6.6837,0,0,0,1.29128,3.10614l2.65327,3.43627a6.49483,6.49483,0,0,0,4.33342,2.45613c.08373.013.16839.02321.24747.03064.04.00279.08373.00557.12652.00743a6.61323,6.61323,0,0,0,1.5127-.06871c.06326-.01022.12745-.02136.19071-.03436a5.72909,5.72909,0,0,0,.56657-.14022,6.531,6.531,0,0,0,1.13778-.42715l10.03254-4.89834,1.37781,1.0976-.71542,2.76071a3.80372,3.80372,0,0,0-.07163.37794,6.475,6.475,0,0,0-.11257.85059c-.00651.10958-.00744.21822-.00465.33058-.00279.18479.00093.36772.01116.5423-.0093.29529-.00186.58687.00837.87938.00465.11236.00931.22472.01024.39279l.1535,8.35642c.00093.09565.00744.19222.01767.28787a6.64606,6.64606,0,0,0,.21863,1.13474l.01675.06222c.9024,3.24915,3.76034,4.44425,5.65168,5.23541a12.44143,12.44143,0,0,1,1.522.70945c.093.05571.18792.10771.2856.15414a6.55738,6.55738,0,0,0,4.64973.41137c.03257-.00836.06513-.01764.09862-.02693a5.9293,5.9293,0,0,0,.60564-.21451,6.48174,6.48174,0,0,0,1.26988-.65651,6.72129,6.72129,0,0,0,1.52944-1.42539l6.91506-8.79193.01488-.01672.00651-.00093.04373-.01021c.02791-.00279.05954-.00372.10512-.00464a2.63891,2.63891,0,0,1,.27166.01764l.09861.013c.1442.02136.29026.04643.45772.08264l.73111-3.24683h0l-.62785,3.271c.46888.10771.94055.24608,1.43827.38908.24654.06871.49028.13093.801.20986.014.00372.09489.02414.10884.02693l.41679.09843c.31444.06965.60749.12536.88566.16715l.00093.00278.01489.05851L63.952,144.76737a7.19111,7.19111,0,0,0,.84008,2.07727A6.65232,6.65232,0,0,0,70.48,150c.06977,0,.13861-.00186.20839-.0065.35445-.02136.73867-.013,1.1294-.0065l.12187.00186q.05862.00278.11722,0l.12188-.00186c.39073-.0065.775-.01486,1.1294.0065.06978.00464.13862.0065.20839.0065a6.61164,6.61164,0,0,0,5.64145-3.08386,4.39937,4.39937,0,0,0,.33306-.60637c.0279-.0585.05488-.11793.07907-.17458.06233-.13.12187-.26093.16-.36029a6.3093,6.3093,0,0,0,.32282-1.0391l2.37417-10.95091c.28-.04179.56842-.09658.8624-.16251.1442-.03064.2884-.065.43725-.10214l.46795-.11979c.15258-.039.30515-.078.47726-.12629.46423-.13464.935-.27115,1.40571-.38072l.11722-.02693c.14513-.03157.2884-.05665.44934-.07986l.11071-.01486a2.453,2.453,0,0,1,.27909-.01578.96.96,0,0,1,.10327.00835c.02233.01672.04745.03622.05768.04272l6.89645,8.76871a6.6008,6.6008,0,0,0,3.42078,2.30477c.0307.00836.0614.01672.0921.02415a6.55509,6.55509,0,0,0,4.646-.4123c.09676-.04736.19165-.09843.28375-.15414a12.50754,12.50754,0,0,1,1.522-.70945c1.89134-.79116,4.75021-1.98534,5.65261-5.23541.00652-.02322.0121-.04643.01861-.06965a6.62222,6.62222,0,0,0,.21583-1.12731c.01024-.09565.01582-.19222.01768-.28787l.15443-8.41027c0-.11422.00465-.22658.00931-.33894.01023-.29529.01767-.58873.00744-.88681.00651-.10679.01023-.22193.01209-.35008a5.36114,5.36114,0,0,0-.00837-.624,13.97923,13.97923,0,0,0-.19072-1.16075l-.70518-2.71939,1.33315-1.10456c.00372.00139.07163.02415.11722.03993l9.95812,4.864a6.57193,6.57193,0,0,0,1.67737.5618c.04465.01021.08931.01857.134.02693a6.59326,6.59326,0,0,0,6.31779-2.42271l2.63466-3.41676a6.16374,6.16374,0,0,0,.70518-1.15563c.06233-.12165.12094-.24562.17118-.371h-.00093c.01675-.04225.03349-.085.04838-.12768a6.64011,6.64011,0,0,0,.37306-1.4565c.0093-.06871.0186-.16065.02418-.23029.01954-.2614.0335-.52326.02791-.78466l.02791-6.42866c0-.045-.00093-.08961-.00186-.13465-.0093-.25536.00186-.51676.01117-.77955a15.10143,15.10143,0,0,0-.00745-1.61111,6.49016,6.49016,0,0,0,.00466-.81809c-.00652-.13-.0214-.25908-.0335-.33708a6.70264,6.70264,0,0,0-.17211-.95135c-.03349-.12629-.0707-.25025-.11256-.37979a6.49583,6.49583,0,0,0-.33678-.83109c-.05675-.124-.11722-.24562-.18234-.36076a6.68133,6.68133,0,0,0-.74705-1.07857l-2.34347-2.72913,7.77839.10771a4.95555,4.95555,0,0,0,.77682-.04782,4.42733,4.42733,0,0,0,.56-.06639,6.604,6.604,0,0,0,1.28756-.38491,6.30966,6.30966,0,0,0,3.79756-4.63786l.80751-4.12482c.01768-.08728.0307-.175.04094-.26372.01767-.15229.027-.3069.03721-.52976.01116-.12118.02047-.24236.026-.36308q.01116-.11073.014-.22147h.00093C144.00586,88.40217,143.99748,87.93,143.98725,87.45918ZM140.33831,78.47h0l.00023-.00012ZM125.58742,99.40787l.10978-.04225h.0307C125.68138,99.3814,125.63487,99.39626,125.58742,99.40787ZM82.73977,71.44975a11.7922,11.7922,0,0,1-21.48384.01579A11.50187,11.50187,0,0,1,67.5086,65.464c.04186-.01439.08373-.02925.12466-.045a12.24039,12.24039,0,0,1,8.811.02693A11.34643,11.34643,0,0,1,82.73977,71.44975Zm57.54051,6.90068v-.00006l.00244-.00116ZM104.35472,11.45467Zm-.376-.45431-.00011-.00006.00221-.002Zm-.2863-.24886v-.00006l.00093-.0011ZM48.16711,9.24712h0l.00018-.00018Zm-8.54084,2.23413h0l-.00023-.00011ZM3.46109,79.035h0L3.46086,79.035Zm11.3832,26.01358ZM21.308,122.44194h0l.00006.00017Zm35.5289,10.32428.00093-.00093.03535-.01486A.37846.37846,0,0,0,56.83692,132.76622Zm25.54281,1.11246a.62987.62987,0,0,0,.02791-.091l.01582-.00185C82.41043,133.81832,82.39555,133.848,82.37973,133.87868Zm24.4301-8.0017Zm22.30361-20.91061v-.00005l.00082-.00035Z"/><path class="cls-2" d="M88.06752,60.508c-2.90373-4.38821-6.87947-7.96962-11.38064-9.488a14.435,14.435,0,0,0-4.68814-.7891,15.17207,15.17207,0,0,0-6.5873,1.56123c-6.78395,3.25683-12.095,11.13561-13.87139,18.78635a23.36426,23.36426,0,0,0-.64517,5.02072C50.741,86.92742,60.1912,96.23761,71.99874,96.23761c11.80747,0,21.25777-9.31019,21.10386-20.63844A29.12587,29.12587,0,0,0,88.06752,60.508ZM71.99874,90.18649A14.702,14.702,0,0,1,57.02483,75.59917c.0015-.15571.003-.31134.014-.46693a14.489,14.489,0,0,1,9.381-12.81692h.00936a15.53806,15.53806,0,0,1,11.2427.036,14.55535,14.55535,0,0,1,9.13947,11.263,13.72158,13.72158,0,0,1,.16125,1.98483A14.70194,14.70194,0,0,1,71.99874,90.18649Z"/><g class="cls-3"><path class="cls-4" d="M91.46205,69.65088l-4.65071,3.96346a14.55535,14.55535,0,0,0-9.13947-11.263s4.63643-.27-.13317-8.21139c-1.05327-1.76157-1.22417-2.70295-.85182-3.11995,1.29244-1.45342,9.19409,3.59214,9.19409,3.59214L88.06752,60.508Z"/></g><g class="cls-3"><path class="cls-4" d="M66.41981,62.31532a14.489,14.489,0,0,0-9.381,12.81692c-1.66834.76917-2.97526,1.34658-2.97526,1.34658s-1.23915-2.68175-2.52352-5.90037c-1.75335-4.35532-3.60387-9.66619-2.67656-10.69889,1.603-1.7837,15.255-11.021,15.255-11.021l1.293,2.93351,1.038,2.34782C66.00887,54.31809,61.59538,62.0363,66.41981,62.31532Z"/></g><path class="cls-2" d="M127.87546,71.78047c1.82509-1.06556,9.76849-4.46174,10.08014-4.67916a2.92767,2.92767,0,0,0,1.72544-2.83,8.3188,8.3188,0,0,0-.00506-.97411l-.00947-5.97981c-.02208-.50069.041-.98323-.01817-1.47434a1.99885,1.99885,0,0,0-.07666-.464c-.85407-2.405-.78637-6.20192-4.29618-6.26387l-10.575.06195a3.413,3.413,0,0,1-3.03657-1.87374c-.09923-.18532-.189-.37065-.27918-.56477l.2242-.26457,4.72355-5.64893c.9083-1.04086.58085-2.40319.64706-3.64112l.03959-6.02126c.00576-.095-.00693-.19012-.0104-.28514a.22765.22765,0,0,0-.01206-.07771c-.22689-1.93237-2.24794-3.13754-3.38765-4.72719a3.288,3.288,0,0,0-3.82-.81495l-5.14752,2.38738-4.09882,1.90334c-2.83522,1.1996-4.856-1.80012-7.01664-3.0894l.13506-.56657.90914-3.81761a2.61831,2.61831,0,0,0,.07989-.5377l.168-7.76611a3.38931,3.38931,0,0,0-.00947-.43051l-.00019-.00845c-.26308-2.45163-3.46379-2.89725-5.4931-3.99761a3.30312,3.30312,0,0,0-.99482-.26015,3.102,3.102,0,0,0-2.74437,1.058l-6.29357,7.53293a3.19579,3.19579,0,0,1-3.11466,1.01073c-2.37374-.773-5.98042-.34836-6.73459-3.13813L77.25655,6.20193c-.62381-2.3616-3.02221-2.31161-5.2578-2.24494-2.23564-.06667-4.634-.11666-5.2578,2.24494l-2.17684,9.33588c-.75417,2.78977-4.36084,2.36512-6.73453,3.13813a3.20911,3.20911,0,0,1-3.11472-1.01073l-6.28441-7.53293a3.1283,3.1283,0,0,0-2.75352-1.058,3.30244,3.30244,0,0,0-.99477.26015c-2.02936,1.10036-5.2302,1.55439-5.4846,4.0229-.0093.00845-.0093.00845-.00037.0169a1.9008,1.9008,0,0,0-.01785.39677l.168,7.76611a2.62248,2.62248,0,0,0,.07995.5377l.90913,3.81761.13507.56657c-2.16069,1.28928-4.1722,4.289-7.01665,3.0894L29.356,27.64508,24.21768,25.2577a3.29868,3.29868,0,0,0-3.82917.81495c-1.14922,1.59826-3.1795,2.80344-3.37938,4.75307a.10553.10553,0,0,0-.01111.05183,1.48269,1.48269,0,0,0-.01962.28514L17.018,37.184c.06621,1.23793-.26129,2.60026.64706,3.64112L22.38853,46.474l.22421.26457a4.60675,4.60675,0,0,1-.27912.56477,3.40962,3.40962,0,0,1-3.02724,1.87374L8.72193,49.11513C5.21218,49.17708,5.27987,52.974,4.43512,55.379a2.07786,2.07786,0,0,0-.07705.47294c-.05873.48218.00392.97367-.02709,1.46541l-.00947,5.97981a8.31882,8.31882,0,0,0-.00507.97411,2.92758,2.92758,0,0,0,1.72544,2.83c.31166.21742,8.25506,3.6136,10.08009,4.67916.25983.1458.39794.25518.36821.29163-.15319.57456-3.72864,2.19111-6.79718,3.52707-2.11611.91636-4.01035,1.6961-4.37167,1.92558a3.2873,3.2873,0,0,0-1.9388,2.60257,2.88748,2.88748,0,0,0-.01785.40542L3.35092,86.268c.02106.8267-.026,1.68228-.01495,2.52009a.06836.06836,0,0,0,.00835.028c.00774.26083.02458.53113.05143.79213L4.20411,93.731A2.99125,2.99125,0,0,0,6.022,95.93676h.00962a2.99773,2.99773,0,0,0,1.26855.24443l10.90839-.15046a3.11057,3.11057,0,0,1,2.51907,1.176,2.75045,2.75045,0,0,1,.30313.44265,3.98928,3.98928,0,0,1,.21615.46171l-.50064.594-1.08206,1.265-.7023.82244-3.64225,4.22939a3.108,3.108,0,0,0-.75483,1.8849c-.09753.82014.01667,1.67926-.02243,2.49157l.02827,6.48008a4.66347,4.66347,0,0,0,.02017.52068,3.16438,3.16438,0,0,0,.63682,1.53515c1.11885,1.46059,1.5112,1.96422,2.64292,3.41875a3.1905,3.1905,0,0,0,3.08844,1.17527.09019.09019,0,0,1,.04923-.00973,3.36873,3.36873,0,0,0,.87913-.29153l10.034-4.90137a3.42157,3.42157,0,0,1,1.28492-.34762,3.23336,3.23336,0,0,1,2.21472.705l2.6932,2.14763.41274.32946.1631.13571-.28723,1.12513L37.294,125.713a2.66077,2.66077,0,0,0-.09.537c-.02873.42.01164.82067.01234,1.2411l.154,8.35656a3.12573,3.12573,0,0,0,.13393.65254c.66928,2.41688,3.69441,2.77406,5.69767,3.99567a3.22143,3.22143,0,0,0,2.36959.17892h.0099a3.2589,3.2589,0,0,0,1.69837-1.15238L54.234,130.676a3.33264,3.33264,0,0,1,1.31687-.98132,3.57854,3.57854,0,0,1,1.35769-.27453,12.21122,12.21122,0,0,1,3.34309.65711,13.091,13.091,0,0,0,2.0697.4515,3.2972,3.2972,0,0,1,2.2514,1.80839,2.81871,2.81871,0,0,1,.25247.71865l2.3784,10.97631a3.69024,3.69024,0,0,0,.42315,1.05888,3.35393,3.35393,0,0,0,2.85367,1.58086c.47638-.03.99234-.02,1.5183-.01.5259-.01,1.04192-.02,1.51824.01a3.35386,3.35386,0,0,0,2.85367-1.58086,1.14079,1.14079,0,0,0,.09865-.1899,3.34745,3.34745,0,0,0,.3245-.869l2.37839-10.97631a2.8192,2.8192,0,0,1,.25254-.71865,3.2971,3.2971,0,0,1,2.25134-1.80839,13.08926,13.08926,0,0,0,2.0697-.4515,12.21126,12.21126,0,0,1,3.34315-.65711,3.54123,3.54123,0,0,1,1.3577.27453,3.33252,3.33252,0,0,1,1.3168.98132l6.9542,8.84639a3.24536,3.24536,0,0,0,1.70826,1.15238h.0099a3.19584,3.19584,0,0,0,2.35975-.17892c2.01316-1.22161,5.0284-1.57879,5.69768-3.99567a3.12573,3.12573,0,0,0,.13393-.65254l.154-8.35656c.0007-.42043.041-.82109.01234-1.2411a2.66077,2.66077,0,0,0-.09-.537l-1.09914-4.292-.297-1.12513.1631-.13571.41274-.32946,2.7029-2.14763a3.2031,3.2031,0,0,1,2.21471-.705,3.37523,3.37523,0,0,1,1.27524.34762L122.1198,122.227a3.146,3.146,0,0,0,.8792.29153c.01957,0,.02935,0,.03939.00973a3.20693,3.20693,0,0,0,3.09828-1.17527c1.12194-1.45453,1.51428-1.95816,2.63313-3.41875a3.1643,3.1643,0,0,0,.63683-1.53515,4.66586,4.66586,0,0,0,.02017-.52068l.02827-6.48008c-.02975-.82187.084-1.69053-.01383-2.52014a3.08032,3.08032,0,0,0-.76343-1.85633l-3.63259-4.22939-.712-.82244-1.082-1.265-.50065-.594a4.0022,4.0022,0,0,1,.21609-.46171,2.75469,2.75469,0,0,1,.30319-.44265,3.11057,3.11057,0,0,1,2.51907-1.176l10.90839.15046a3.07152,3.07152,0,0,0,1.27818-.24443h.00962a2.9996,2.9996,0,0,0,1.80827-2.20579l.8083-4.12279a7.32932,7.32932,0,0,0,.05148-.79213.06836.06836,0,0,0,.00835-.028c.02067-.83781-.036-1.69339-.01494-2.52009l-.01376-5.73525a3.02023,3.02023,0,0,0-.01826-.41464,3.27337,3.27337,0,0,0-1.93839-2.59335c-.36132-.22948-2.25556-1.00922-4.37167-1.92558-3.06854-1.336-6.644-2.95251-6.79718-3.52707C127.47757,72.03565,127.61568,71.92627,127.87546,71.78047Zm-16.30859,16.5234c-2.24622,3.70429-3.86383,8.91226-9.30726,8.52637-5.4675-.25406-7.72788-5.63534-9.88088-9.782.07534-.0836.15073-.16726.23568-.2509,1.64851-1.689,4.508-2.56927,8.45174-2.41184,5.00474.19455,8.48151,1.50189,10.28349,3.64849A3.07247,3.07247,0,0,1,111.56687,88.30387Zm.03419-30.208c-2.50172,2.86132-6.40935,2.54682-10.0632,2.64568C98.14108,60.508,94.448,60.499,92.332,57.541c.0826-.13421.15584-.26833.23847-.4025a15.1386,15.1386,0,0,1,2.86616-3.871c6.90031-7.61313,11.94995-2.948,15.9376,4.39875C111.44361,57.80941,111.52236,57.9526,111.60106,58.09586ZM81.67777,37.00975c-2.15523,3.89412-5.3402,9.40252-9.679,9.05877-4.33889.34375-7.52379-5.16465-9.67908-9.05877.06528-.0784.13049-.148.205-.22641,1.6-1.661,5.59484-2.59,9.47406-2.62473,3.87921.03474,7.874.9637,9.47406,2.62473C81.54733,36.86173,81.61255,36.93135,81.67777,37.00975ZM69.11583,49.50457a18.57693,18.57693,0,0,1,2.34182-.14161,19.01579,19.01579,0,0,1,3.20026.26558,18.36769,18.36769,0,0,1,15.689,17.654c.11968,10.077-8.33932,18.34511-18.90208,18.34511-10.5532,0-19.00639-8.2681-18.87963-18.34511C52.68073,58.09586,59.9081,50.59431,69.11583,49.50457Zm-5.73165,58.99555c.15736-.43921.33413-.88767.53016-1.355-.00871-.18107.17522-.19061.1662-.31452,1.78512-3.53734,3.68744-6.99274,7.9182-7.59708,4.23075.60434,6.133,4.05974,7.91818,7.59708-.00907.12391.17492.13345.17584.31452.1961.46735.36311.91581.52053,1.355.059.16236.11812.33431.17717.49673-1.53219,1.98062-4.48967,2.94881-8.79173,2.92007-4.302.02874-7.25959-.93945-8.79172-2.92007C63.26606,108.83443,63.32515,108.66248,63.38418,108.50012ZM32.43061,88.30387a3.07236,3.07236,0,0,1,.21722-.26989c1.802-2.1466,5.27876-3.45394,10.28344-3.64849,3.94372-.15743,6.81285.7228,8.4518,2.41184.08489.08364.16028.1673.23567.2509-2.153,4.14667-4.41344,9.52795-9.88094,9.782C36.30407,97.21613,34.67683,92.00816,32.43061,88.30387ZM51.67478,57.541c-2.12525,2.958-5.809,2.967-9.21515,3.20056-3.64445-.09886-7.55213.21564-10.06326-2.64568.07876-.14326.1575-.28645.22685-.4296,3.98765-7.34673,9.03729-12.01188,15.9376-4.39875a15.28745,15.28745,0,0,1,2.87567,3.862C51.51905,57.26369,51.59218,57.40677,51.67478,57.541Z"/><path class="cls-2" d="M73.95706,20.23294c-.65892-.02558-1.30864-.02558-1.95831-.02558-.64972,0-1.29945,0-1.95831.02558-27.015,1.02269-48.73917,22.54648-48.48333,48.8819a47.58806,47.58806,0,0,0,18.29239,36.868.16239.16239,0,0,0,.04759.03806,52.03365,52.03365,0,0,0,64.20329,0,.16316.16316,0,0,0,.04759-.03806,47.58829,47.58829,0,0,0,18.29241-36.868C122.69616,42.77942,100.972,21.25563,73.95706,20.23294ZM71.4448,85.62762c-10.5532,0-19.00639-8.2681-18.87963-18.34511.11556-9.18665,7.34293-16.6882,16.55066-17.77794a18.57693,18.57693,0,0,1,2.34182-.14161,19.01579,19.01579,0,0,1,3.20026.26558,18.36769,18.36769,0,0,1,15.689,17.654C90.46656,77.35952,82.00756,85.62762,71.4448,85.62762Z"/><g class="cls-3"><path class="cls-4" d="M45.67827,9.07079a3.27647,3.27647,0,0,0-.99316.26384c-2.14511,1.15569-5.59309,1.59613-5.504,4.43289l.16925,7.76819a2.75927,2.75927,0,0,0,.076.54337l1.04286,4.379c-2.16159,1.29392-4.17373,4.29223-7.01726,3.08865L29.3593,27.64409,24.21415,25.2549a3.31242,3.31242,0,0,0-3.82444.81367c-1.16342,1.61572-3.21666,2.82935-3.39653,4.81071-.00858.09529-.01716.19059-.01652.28555l.041,6.01631c.0641,1.24351-.26059,2.60005.64686,3.64059l4.94535,5.91439a5.4409,5.4409,0,0,1-.2738.56621l7.31505-.28093L29.40093,30.408,46.2211,29.769Z"/></g><g class="cls-3"><path class="cls-4" d="M25.17038,57.35441l.21225,17.62718-15.691.61359c3.07177-1.33621,6.64848-2.94537,6.7965-3.52538.25378-.31965-10.09987-4.72-10.44929-4.96886l.00378-9.007Z"/></g><g class="cls-3"><path class="cls-4" d="M20.58645,81.12949l.14338,16.08013A3.11591,3.11591,0,0,0,18.208,96.03073l-10.91118.1505a3.18872,3.18872,0,0,1-1.27969-.2405l.00606-14.23956Z"/></g><g class="cls-3"><path class="cls-4" d="M37.80658,104.28348l.30583,15.547-2.6954-2.14555a3.18019,3.18019,0,0,0-2.21616-.70273,3.42541,3.42541,0,0,0-1.28161.34106l-10.037,4.90668a3.22556,3.22556,0,0,1-.87783.28793l-.04889.002L20.799,104.96132Z"/></g><g class="cls-3"><path class="cls-4" d="M57.538,115.18513l-.49485,12.16577-.13146,2.07217a3.58014,3.58014,0,0,0-1.3576.27079,3.271,3.271,0,0,0-1.31724.986l-6.95659,8.84528a3.295,3.295,0,0,1-1.70267,1.1525l-.0099.0004-.23743-9.88273,8.36006-15.9663Z"/></g><g class="cls-3"><path class="cls-4" d="M67.25723,135.14611l.37355,9.94643a3.5722,3.5722,0,0,1-.42661-1.06219l-2.37924-10.976a2.97757,2.97757,0,0,0-.25233-.71872,3.27385,3.27385,0,0,0-2.24788-1.80684,13.20559,13.20559,0,0,1-2.07028-.45617c.65152-2.82911,2.74071-10.37193,2.83982-11.16054.11264-.95277,2.7656,1.40038,2.7656,1.40038Z"/></g><path class="cls-4" d="M64.22058,122.54457l.352,9.79107a3.27385,3.27385,0,0,0-2.24788-1.80684c-2.191-.24507-4.74386-1.69171-6.77067-.83494l-.01012-.00935L55.247,119.9158l5.054-3.94509Z"/><path class="cls-4" d="M27.77558,91.98734l.10282,7.65309L18.957,100.78851l2.29153-2.67674a3.20329,3.20329,0,0,0-1.86508-1.88329l-.102-12.647Z"/><path class="cls-4" d="M41.67637,113.11794l.17269,7.8514-3.45125.4495.2903-1.12709-3.2711-2.60686a3.18019,3.18019,0,0,0-2.21616-.70273l-.208-12.50683Z"/><path class="cls-5" d="M45.37341,132.593l.19424,8.085a3.221,3.221,0,0,1-2.369-.18174c-2.00477-1.21953-5.02715-1.5826-5.69585-3.99194.14.09319,2.92131,1.89119,4.7118,1.085C44.05216,136.76225,45.37341,132.593,45.37341,132.593Z"/><path class="cls-5" d="M20.87954,113.99956l.07606,8.53a3.20734,3.20734,0,0,1-3.09018-1.17641c-1.12367-1.45694-1.51741-1.95414-2.63844-3.41718a3.14273,3.14273,0,0,1-.63195-1.53776,8.40734,8.40734,0,0,0,3.50466,2.16635C19.96745,119.002,20.03464,116.53654,20.87954,113.99956Z"/><path class="cls-5" d="M6.03032,87.35628l-.0036,8.58407-.00957.00038a3.00219,3.00219,0,0,1-1.815-2.20709l-.808-4.12453a7.26172,7.26172,0,0,1-.04622-.78959c.08561.29449.84811,2.726,1.38562,2.546C5.3093,91.18411,6.03032,87.35628,6.03032,87.35628Z"/><path class="cls-5" d="M6.04118,61.48275l-.00236,5.61819a2.93069,2.93069,0,0,1-1.724-2.83291S6.03968,65.05815,6.04118,61.48275Z"/><g class="cls-3"><path class="cls-4" d="M98.31977,9.07079a3.27639,3.27639,0,0,1,.99316.26384c2.14511,1.15569,5.59309,1.59613,5.504,4.43289l-.16925,7.76819a2.75853,2.75853,0,0,1-.076.54337l-1.04286,4.379c2.1616,1.29392,4.17374,4.29223,7.01727,3.08865l4.09267-1.90266,5.14515-2.38919a3.31244,3.31244,0,0,1,3.82445.81367c1.16341,1.61572,3.21665,2.82935,3.39652,4.81071.00858.09529.01717.19059.01652.28555l-.041,6.01631c-.0641,1.24351.2606,2.60005-.64686,3.64059l-4.94534,5.91439a5.43883,5.43883,0,0,0,.27379.56621l-7.315-.28093.25022-16.61344L97.777,29.769Z"/></g><g class="cls-3"><path class="cls-4" d="M118.82766,57.35441l-.21225,17.62718,15.691.61359c-3.07177-1.33621-6.64847-2.94537-6.7965-3.52538-.25378-.31965,10.09988-4.72,10.44929-4.96886l-.00378-9.007Z"/></g><g class="cls-3"><path class="cls-4" d="M123.4116,81.12949l-.14339,16.08013A3.11594,3.11594,0,0,1,125.79,96.03073l10.91119.1505a3.1887,3.1887,0,0,0,1.27968-.2405l-.00606-14.23956Z"/></g><g class="cls-3"><path class="cls-4" d="M106.19146,104.28348l-.30583,15.547,2.6954-2.14555a3.18019,3.18019,0,0,1,2.21616-.70273,3.42541,3.42541,0,0,1,1.28161.34106l10.037,4.90668a3.22556,3.22556,0,0,0,.87783.28793l.04889.002.15656-17.55848Z"/></g><g class="cls-3"><path class="cls-4" d="M86.46009,115.18513l.49484,12.16577.13146,2.07217a3.58019,3.58019,0,0,1,1.35761.27079,3.27117,3.27117,0,0,1,1.31724.986l6.95659,8.84528a3.295,3.295,0,0,0,1.70267,1.1525l.00989.0004.23743-9.88273L90.30776,114.829Z"/></g><g class="cls-3"><path class="cls-4" d="M76.74081,135.14611l-.37354,9.94643a3.57218,3.57218,0,0,0,.4266-1.06219l2.37924-10.976a2.978,2.978,0,0,1,.25233-.71872,3.27385,3.27385,0,0,1,2.24788-1.80684,13.20559,13.20559,0,0,0,2.07028-.45617c-.65151-2.82911-2.7407-10.37193-2.83981-11.16054-.11265-.95277-2.7656,1.40038-2.7656,1.40038Z"/></g><path class="cls-4" d="M79.77747,122.54457l-.352,9.79107a3.27385,3.27385,0,0,1,2.24788-1.80684c2.191-.24507,4.74386-1.69171,6.77068-.83494l.01012-.00935.29692-9.76871-5.054-3.94509Z"/><path class="cls-4" d="M116.22246,91.98734l-.10282,7.65309,8.92139,1.14808-2.29152-2.67674a3.20324,3.20324,0,0,1,1.86508-1.88329l.102-12.647Z"/><path class="cls-4" d="M102.32167,113.11794l-.17269,7.8514,3.45125.4495-.2903-1.12709,3.2711-2.60686a3.18019,3.18019,0,0,1,2.21616-.70273l.20795-12.50683Z"/><path class="cls-6" d="M73.84153,23.03169c-.63262-.02562-1.23773-.02562-1.84278-.03418-.60511.00856-1.21016.00856-1.84278.03418-35.835,1.35194-45.09848,26.27816-44.80138,50.8385A44.23972,44.23972,0,0,0,39.8495,105.98284a.16239.16239,0,0,0,.04759.03806,47.57047,47.57047,0,0,0,64.20329,0,.16316.16316,0,0,0,.04759-.03806,44.23994,44.23994,0,0,0,14.49487-32.11265C118.94,49.30985,109.67651,24.38363,73.84153,23.03169Zm-4.7257,26.47288a6.84291,6.84291,0,0,1-1.86135-1.477,33.69529,33.69529,0,0,1-5.73531-8.99466,6.20992,6.20992,0,0,1-.17976-4.73542c.81625-1.94128,2.9354-3.22982,6.05224-3.70495,1.401-.22443,2.83826-.27623,4.07282-.44022.175.01723.35926.01723.53428.02586.175-.00863.35926-.00863.53423-.02586,1.23456.164,2.67181.21579,4.07287.44022,3.11683.47513,5.23593,1.76367,6.05218,3.70495a6.20985,6.20985,0,0,1-.17971,4.73542A33.69521,33.69521,0,0,1,76.743,48.02755a6.952,6.952,0,0,1-2.085,1.601,18.36769,18.36769,0,0,1,15.689,17.654c.11968,10.077-8.33932,18.34511-18.90208,18.34511-10.5532,0-19.00639-8.2681-18.87963-18.34511C52.68073,58.09586,59.9081,50.59431,69.11583,49.50457Zm2.8829,66.84633c-7.55682.00966-10.87523-3.17651-9.58369-9.43457a21.67654,21.67654,0,0,1,1.33826-4.16371c-.00867-.18012.18441-.18955.17544-.31277,1.79034-3.565,3.72623-7.0481,8.07-7.58333,4.34371.53523,6.27959,4.01838,8.07,7.58333.00063.12322.18411.13265.17538.31277a21.67234,21.67234,0,0,1,1.33826,4.16371C82.874,113.17439,79.55556,116.36056,71.99873,116.3509ZM31.44011,55.9412a26.46521,26.46521,0,0,1,2.85346-5.15184c4.1836-6.798,8.78588-7.32513,14.15278-1.62114a8.76075,8.76075,0,0,1,1.66987,1.94044,18.69391,18.69391,0,0,1,2.29074,4.1811,7.30489,7.30489,0,0,1-.25317,5.83818c-2.02389,3.50444-5.83955,3.48636-9.41613,3.78439-4.02128-.12645-8.386.33428-10.86973-3.46076A6.16344,6.16344,0,0,1,31.44011,55.9412Zm1.697,37.83663c-1.93188-3.23668-2.43245-6.05088-1.60037-8.2708,1.16865-3.175,5.054-5.14017,11.30263-5.38893,5.047-.20266,8.348,1.2907,9.52323,4.0266.94709,2.18823.55721,5.17449-1.36684,8.74311-2.07017,3.77307-4.25539,8.10329-9.15849,8.302C36.87112,101.56836,35.18687,97.26319,33.13712,93.77783Zm77.72323,0c-2.04018,3.48536-3.734,7.79053-8.70022,7.412-4.903-.19871-7.08825-4.52893-9.15843-8.302-1.924-3.56862-2.31392-6.55488-1.36689-8.74311,1.17525-2.7359,4.47622-4.22926,9.52329-4.0266,6.24864.24876,10.134,2.21393,11.30262,5.38893C113.29281,87.727,112.79218,90.54115,110.86035,93.77783Zm1.2692-32.32626c-2.48374,3.795-6.84844,3.33431-10.86972,3.46076-3.56722-.298-7.38288-.27995-9.41613-3.78439a7.30491,7.30491,0,0,1-.25323-5.83818,18.69655,18.69655,0,0,1,2.2908-4.1811,8.75761,8.75761,0,0,1,1.66987-1.94044c5.3669-5.704,9.96918-5.17684,14.15278,1.62114a26.46464,26.46464,0,0,1,2.85345,5.15184A6.16341,6.16341,0,0,1,112.12955,61.45157Z"/><path class="cls-5" d="M128.45813,62.36933l5.51675-2.48079.009-.009,3.97183-1.7837a2.8502,2.8502,0,0,0,1.69259-2.25285,2.95264,2.95264,0,0,0-.07842-1.14174c-.4763-1.6828-.64148-2.25181-1.10664-3.92079a3.26479,3.26479,0,0,0-3.18764-2.3375l-8.35174.053-2.21871.00879a3.27933,3.27933,0,0,1-2.918-1.70449c-.05962-.11468-.11894-.22051-.17826-.32633-.71337-1.33912-1.15863-2.1749-1.92852-3.598a2.79955,2.79955,0,0,1,.31857-3.14423l3.44792-4.10548c.10679-.12165.20437-.24333.30217-.3563l2.64986-3.15614a2.70627,2.70627,0,0,0,.59774-1.314,2.80628,2.80628,0,0,0-.702-2.34578c-1.14083-1.2991-1.54265-1.74592-2.68082-3.042a3.28139,3.28139,0,0,0-3.818-.80571l-7.20613,3.33989a.07377.07377,0,0,1-.02739.00856l-1.99978.92992a3.31268,3.31268,0,0,1-3.33061-.34456c-1.39425-1.03265-2.17934-1.60866-3.5708-2.6477-.00919,0-.01851-.00859-.02788-.01718a2.82892,2.82892,0,0,1-1.12526-2.9376l1.40665-5.824a.21822.21822,0,0,0,.00745-.0763l.83731-3.45213a1.162,1.162,0,0,0,.04927-.24474l-.00019-.00845a2.8674,2.8674,0,0,0-1.75625-2.97293c-1.59573-.70565-2.13674-.95751-3.72135-1.66232a3.19414,3.19414,0,0,0-3.73771.78873L91.182,14.768l-.009.00847-1.87054,2.23542a3.21812,3.21812,0,0,1-3.11326,1.01835c-1.721-.38205-2.68178-.58571-4.40139-.959a3.00222,3.00222,0,0,1-2.33033-2.18492l-.41879-1.79057,0-.00839L77.28146,5.567a3.028,3.028,0,0,0-2.97555-2.22635c-1.00429-.00833-1.62858-.00833-2.30716-.00833s-1.30286,0-2.29815.00833A3.03105,3.03105,0,0,0,66.716,5.567l-1.99912,8.58408a.06216.06216,0,0,0-.00925.02537l-.16759.70995a3.0023,3.0023,0,0,1-2.33038,2.18492c-1.71962.37327-2.68036.57693-4.40139.959a3.21807,3.21807,0,0,1-3.11321-1.01835L52.82446,14.7765l-.009-.00847-.19748-.23672L48.40432,9.48555a3.19108,3.19108,0,0,0-3.73766-.78873c-1.57556.70481-2.12561.95667-3.72134,1.66232a2.85761,2.85761,0,0,0-1.74776,2.99822c-.0093.00845-.0093.00845-.00037.0169a1.73316,1.73316,0,0,0,.0409.211l.8373,3.45213a.21733.21733,0,0,0,.00751.0763l1.4066,5.824a2.82881,2.82881,0,0,1-1.12521,2.9376c-.00937.00859-.01875.01718-.02789.01718-1.39151,1.039-2.16733,1.61505-3.57079,2.6477a3.29591,3.29591,0,0,1-3.32145.34456l-2.00895-.92992a.07382.07382,0,0,1-.02739-.00856l-7.197-3.33989a3.29506,3.29506,0,0,0-3.82722.80571c-1.13818,1.29609-1.54,1.74291-2.68077,3.042a2.82388,2.82388,0,0,0-.69371,2.37166,2.60738,2.60738,0,0,0,.58947,1.28813L20.24846,35.27c.0978.113.19532.23465.30211.3563l3.4572,4.10548a2.798,2.798,0,0,1,.30929,3.14423c-.76984,1.4231-1.21509,2.25888-1.92853,3.598-.05931.10582-.11864.21165-.17825.32633a3.27535,3.27535,0,0,1-2.9087,1.70449l-2.228-.00879-8.35174-.053a3.27291,3.27291,0,0,0-3.18764,2.3375c-.43249,1.56235-.60851,2.16683-1.00908,3.61777a2.71564,2.71564,0,0,0-.08819.303,2.67327,2.67327,0,0,0-.07887,1.15067,2.82638,2.82638,0,0,0,1.68367,2.24392l3.98123,1.7837.009.009,5.50735,2.48079a2.9389,2.9389,0,0,1,1.74618,2.75981c-.05247,1.74575-.08685,2.71531-.13956,4.46722a3.1208,3.1208,0,0,1-1.024,2.18411,3.19617,3.19617,0,0,1-.91211.61081L11.914,73.87019,5.32271,76.82731a3.252,3.252,0,0,0-1.94018,3.3,1.47539,1.47539,0,0,0,.02913.20265L4.2152,84.404a3.04853,3.04853,0,0,0,3.0773,2.4305l4.66705-.07434a.05719.05719,0,0,1,.03786.00929l6.13908-.09293a3.10712,3.10712,0,0,1,2.88625,1.75766c.76134,1.62164,1.18271,2.52715,1.9465,4.154a3.15362,3.15362,0,0,1-.49962,3.37669l-.64883.75239-.00993.00937-.0003.00941-.7798.91325-5.71425,6.65022a3.19506,3.19506,0,0,0-.75168,2.60722,2.96832,2.96832,0,0,0,.60733,1.42145c1.1221,1.43353,1.51173,1.94063,2.62717,3.36807a3.24726,3.24726,0,0,0,3.99226.87309l2.64209-1.2853h.00971l7.32236-3.56672a3.296,3.296,0,0,1,3.47852.35308l3.7072,2.94537a3.15726,3.15726,0,0,1,1.08924,3.27369l-.46418,1.78175s-.01072.04819-.022.12529L38.527,120.16013l-1.24635,4.8116A3.53185,3.53185,0,0,0,37.204,126.25a3.228,3.228,0,0,0,1.80153,2.45483c1.68189.81336,2.27537,1.0978,3.96939,1.91228a3.35782,3.35782,0,0,0,4.06294-.96162l2.07005-2.6239,4.84337-6.12482a3.33546,3.33546,0,0,1,3.33143-1.19228c1.84105.41659,2.86431.63955,4.70683,1.05648a3.24729,3.24729,0,0,1,2.4784,2.4867l.806,3.72506a.03.03,0,0,0,.00967.01951l1.54578,7.09817a3.32721,3.32721,0,0,0,3.266,2.60747c.789,0,1.361,0,1.90345-.00984.54242.00984,1.11446.00984,1.91332.00984a3.30564,3.30564,0,0,0,2.30538-.91951,3.34732,3.34732,0,0,0,.95073-1.688l1.54572-7.09817a.0299.0299,0,0,0,.00973-.01951l.806-3.72506a3.24711,3.24711,0,0,1,2.47839-2.4867c1.84253-.41693,2.86579-.63989,4.70677-1.05648a3.32857,3.32857,0,0,1,3.33143,1.19228l4.84338,6.12482,2.07987,2.6239a3.31308,3.31308,0,0,0,1.97427,1.20711,3.25739,3.25739,0,0,0,2.07884-.24549c.27263-.13741.52585-.25525.74984-.3632,1.17778-.55921,1.80992-.873,3.21961-1.54908a3.20627,3.20627,0,0,0,1.80153-2.45483,3.14507,3.14507,0,0,0-.07673-1.27822l-1.2463-4.8116-1.02751-3.96357c-.01131-.0771-.022-.12529-.022-.12529l-.46417-1.78175a3.17508,3.17508,0,0,1,1.08924-3.27369l3.70719-2.94537a3.29816,3.29816,0,0,1,3.47853-.35308l7.32235,3.56672h.00972l2.64209,1.2853a3.24724,3.24724,0,0,0,3.99225-.87309c1.11539-1.42744,1.51479-1.93454,2.62712-3.36807a2.94571,2.94571,0,0,0,.616-1.45,3.24258,3.24258,0,0,0-.76034-2.57865l-5.71425-6.65022-.77974-.91325-.0003-.00941-.00993-.00937-.64888-.75239a3.13242,3.13242,0,0,1-.49-3.37669c.75413-1.62688,1.17556-2.53239,1.93684-4.154a3.10726,3.10726,0,0,1,2.8863-1.75766l6.139.09293a.05741.05741,0,0,1,.03791-.00929l4.66706.07434a3.04116,3.04116,0,0,0,3.07724-2.4305l.8036-4.07406a1.62459,1.62459,0,0,0,.02872-.21187,3.23343,3.23343,0,0,0-1.93983-3.29079l-6.59118-2.95712-3.29591-1.47891a3.19712,3.19712,0,0,1-.91216-.61081,3.12072,3.12072,0,0,1-1.024-2.18411c-.05266-1.75191-.087-2.72147-.1395-4.46722A2.96872,2.96872,0,0,1,128.45813,62.36933ZM94.02729,46.35055a8.252,8.252,0,0,1,1.65518-1.92838,18.13116,18.13116,0,0,1,1.90428-1.77433c4.55228-3.67608,8.54285-2.56636,12.21392,3.38539,1.92257,3.05539,4.38143,6.3096,2.7567,9.908a5.91311,5.91311,0,0,1-.34738.68777,6.80576,6.80576,0,0,1-2.79039,2.42546c-2.31284,1.08539-5.15345.92383-7.8667,1.00464a2.24992,2.24992,0,0,1-.34775-.009c-3.19838-.26023-6.55233-.31406-8.63464-2.9116a5.69365,5.69365,0,0,1-.57357-.84007,8.0657,8.0657,0,0,1-.40647-1.00865C90.52,51.96083,92.20014,48.9913,94.02729,46.35055ZM67.2037,25.95253c1.28651-.1974,2.6092-.266,3.76651-.40328a3.36508,3.36508,0,0,1,.5877-.00858c.147.00858.29387.00858.44084.01717.14691-.00859.29387-.00859.44078-.01717a3.36565,3.36565,0,0,1,.58775.00858c1.15732.13728,2.48.20588,3.76646.40328,4.211.64393,6.60732,2.77712,6.40112,5.99694l.00007.00866a7.56343,7.56343,0,0,1-.5369,2.33934c-.00912.01738-.00906.026-.01818.04338-.34535.82488-.73746,1.642-1.167,2.44249a33.971,33.971,0,0,1-4.54014,6.50523,5.74021,5.74021,0,0,1-4.93392,2.084,5.74022,5.74022,0,0,1-4.93393-2.084,33.97091,33.97091,0,0,1-4.54013-6.50523c-.42964-.80053-.8217-1.61761-1.1671-2.44249-.00912-.01737-.00906-.026-.01818-.04338a7.27721,7.27721,0,0,1-.52761-2.33934l-.00917-.00866C60.59644,28.72965,63.00191,26.59646,67.2037,25.95253ZM34.20614,46.03323c3.66176-5.95175,7.66154-7.06147,12.2046-3.38539A18.124,18.124,0,0,1,48.315,44.42217a8.24945,8.24945,0,0,1,1.65519,1.92838c1.82715,2.64075,3.50731,5.61028,2.43681,8.93921a8.0657,8.0657,0,0,1-.40647,1.00865,6.3761,6.3761,0,0,1-.564.83112c-2.08243,2.60649-5.44577,2.66032-8.64421,2.92055a2.25,2.25,0,0,1-.34776.009c-2.70384-.08081-5.5538.08075-7.86664-1.00464a6.41824,6.41824,0,0,1-1.95466-1.38817,6.28146,6.28146,0,0,1-.83578-1.03729,5.922,5.922,0,0,1-.34733-.68777C29.81515,52.35172,32.2742,49.08862,34.20614,46.03323ZM52.36261,84.1447a16.048,16.048,0,0,1-.97954,2.65263c-.167.34382-.34388.69711-.54,1.05987-1.41451,2.59063-2.9049,5.45208-5.30214,7.03691a7.36179,7.36179,0,0,1-3.818,1.21185c-4.94083.38553-6.62877-3.90135-8.672-7.35511-.147-.24214-.28476-.47488-.40305-.71687A13.94649,13.94649,0,0,1,31.53675,85.507c-1.3397-4.172.20924-7.34853,4.26887-9.02821a.05945.05945,0,0,0,.03817-.00918,20.41527,20.41527,0,0,1,6.87956-1.30081C50.26919,74.876,53.88037,78.3515,52.36261,84.1447Zm29.21976,22.77163a5.21075,5.21075,0,0,1-.96908,1.58379c-1.18553,1.36686-3.11257,2.21877-5.7611,2.53483a20.49857,20.49857,0,0,1-2.85346.15334c-4.1351.03831-7.04315-.862-8.61455-2.68817a5.21072,5.21072,0,0,1-.96914-1.58379,8.20983,8.20983,0,0,1-.331-4.32486l.00006-.00948a20.67961,20.67961,0,0,1,1.48406-4.91384c-.00868-.17891.17421-.18834.1749-.32019a22.28219,22.28219,0,0,1,2.97968-4.78777,7.79793,7.79793,0,0,1,5.276-2.77483c4.48278.45711,6.44158,3.96432,8.26528,7.5626-.00894.13185.17394.14128.16533.32019a20.23888,20.23888,0,0,1,1.484,4.91384l.00005.00948A8.20973,8.20973,0,0,1,81.58237,106.91633ZM71.4448,85.62762c-10.5532,0-19.00639-8.2681-18.87963-18.34511A17.8075,17.8075,0,0,1,59.2947,53.63239a19.22487,19.22487,0,0,1,9.82113-4.12782,18.57693,18.57693,0,0,1,2.34182-.14161,19.01579,19.01579,0,0,1,3.20026.26558,18.36769,18.36769,0,0,1,15.689,17.654,17.32717,17.32717,0,0,1-.47024,4.23368A18.732,18.732,0,0,1,71.4448,85.62762Zm41.01592-.12059a13.94929,13.94929,0,0,1-1.11108,2.52695c-.11829.242-.256.47473-.403.71687-2.04327,3.45376-3.72158,7.74064-8.672,7.35511a7.36215,7.36215,0,0,1-3.81809-1.21185c-2.39718-1.58483-3.878-4.44628-5.30209-7.03691-.19615-.36276-.373-.71605-.54-1.05987a16.05307,16.05307,0,0,1-.9796-2.65263c-1.5177-5.7932,2.09343-9.26872,9.63932-8.97587a20.41484,20.41484,0,0,1,6.8795,1.30081.05961.05961,0,0,0,.03823.00918C112.25149,78.1585,113.80043,81.335,112.46072,85.507Z"/><path class="cls-5" d="M98.62463,132.593l-.19424,8.085a3.221,3.221,0,0,0,2.369-.18174c2.00478-1.21953,5.02715-1.5826,5.69585-3.99194-.14.09319-2.92131,1.89119-4.7118,1.085C99.94588,136.76225,98.62463,132.593,98.62463,132.593Z"/><path class="cls-5" d="M123.1185,113.99956l-.07606,8.53a3.20733,3.20733,0,0,0,3.09018-1.17641c1.12367-1.45694,1.51741-1.95414,2.63844-3.41718a3.14284,3.14284,0,0,0,.632-1.53776,8.40742,8.40742,0,0,1-3.50466,2.16635C124.03059,119.002,123.9634,116.53654,123.1185,113.99956Z"/><path class="cls-5" d="M137.96772,87.35628l.0036,8.58407.00957.00038a3.00219,3.00219,0,0,0,1.815-2.20709l.808-4.12453a7.26423,7.26423,0,0,0,.04621-.78959c-.08561.29449-.84811,2.726-1.38562,2.546C138.68874,91.18411,137.96772,87.35628,137.96772,87.35628Z"/><path class="cls-5" d="M137.95686,61.48275l.00236,5.61819a2.93067,2.93067,0,0,0,1.724-2.83291S137.95836,65.05815,137.95686,61.48275Z"/><path class="cls-7" d="M49.10562,127.03622l-2.07311,2.62029a3.34508,3.34508,0,0,1-4.05679.95928c-1.699-.81446-2.28481-1.09476-3.97173-1.90852a3.21659,3.21659,0,0,1-1.72127-3.73172l2.2687-8.779c-.22252,1.03178-1.64332,8.18853,1.06647,9.87363C43.55248,127.89667,45.966,129.44471,49.10562,127.03622Z"/><path class="cls-7" d="M24.43051,111.28557l-2.64,1.28495a3.24961,3.24961,0,0,1-3.99259-.87582c-1.11676-1.42983-1.50817-1.93056-2.62234-3.36647a3.17741,3.17741,0,0,1,.14289-4.03191l6.4949-7.56244c-.22693.43234-3.94174,7.5177-3.80482,9.08033C18.14613,107.43711,19.76079,111.68323,24.43051,111.28557Z"/><path class="cls-7" d="M11.961,86.76046l-4.66779.07245A3.03885,3.03885,0,0,1,4.21694,84.405l-.80329-4.07577a3.22079,3.22079,0,0,1,1.90826-3.50083l6.59565-2.9566s-4.92248,4.84561-5.046,6.18379C6.73827,81.39649,5.75358,86.1234,11.961,86.76046Z"/><path class="cls-7" d="M10.01846,59.88359,6.0426,58.0939a2.85462,2.85462,0,0,1-1.61005-3.392c.47042-1.68166.63948-2.25668,1.09915-3.92417a3.28183,3.28183,0,0,1,3.19292-2.33453l8.35154.05015s-7.19058,1.798-7.95473,3.00609C8.35607,52.7095,4.74944,55.991,10.01846,59.88359Z"/><path class="cls-7" d="M31.4075,27.94488c-.40619-.07066-5.51734-.96862-8.74991.43511-3.30295,1.43468-6.67573,1.53682-2.40607,6.88666l-2.64989-3.149a2.78281,2.78281,0,0,1,.10246-3.6617c1.1406-1.29867,1.54166-1.75185,2.6796-3.04751a3.30942,3.30942,0,0,1,3.82287-.80439Z"/><path class="cls-7" d="M52.81747,14.76751c-.18854-.19586-3.42932-3.44038-6.61295-2.99255-3.267.46807-7.14871.84135-6.12972,5.25914L39.241,13.588a2.84,2.84,0,0,1,1.7036-3.23115c1.59334-.70666,2.142-.95388,3.72421-1.65929A3.19672,3.19672,0,0,1,48.408,9.489Z"/><path class="cls-7" d="M94.89242,127.03622l2.07312,2.62029a3.34506,3.34506,0,0,0,4.05678.95928c1.699-.81446,2.28482-1.09476,3.97173-1.90852a3.21659,3.21659,0,0,0,1.72127-3.73172l-2.26869-8.779c.22251,1.03178,1.64331,8.18853-1.06648,9.87363C100.44556,127.89667,98.0321,129.44471,94.89242,127.03622Z"/><path class="cls-7" d="M119.56753,111.28557l2.64,1.28495a3.24961,3.24961,0,0,0,3.99259-.87582c1.11677-1.42983,1.50818-1.93056,2.62234-3.36647a3.1774,3.1774,0,0,0-.14289-4.03191l-6.4949-7.56244c.22693.43234,3.94174,7.5177,3.80483,9.08033C125.85192,107.43711,124.23725,111.68323,119.56753,111.28557Z"/><path class="cls-7" d="M132.037,86.76046l4.6678.07245A3.03885,3.03885,0,0,0,139.7811,84.405l.80329-4.07577a3.22079,3.22079,0,0,0-1.90825-3.50083l-6.59566-2.9566s4.92249,4.84561,5.046,6.18379C137.25977,81.39649,138.24446,86.1234,132.037,86.76046Z"/><path class="cls-7" d="M133.97958,59.88359l3.97586-1.78969a2.85462,2.85462,0,0,0,1.61005-3.392c-.47042-1.68166-.63948-2.25668-1.09915-3.92417a3.28183,3.28183,0,0,0-3.19292-2.33453l-8.35153.05015s7.19058,1.798,7.95472,3.00609C135.642,52.7095,139.2486,55.991,133.97958,59.88359Z"/><path class="cls-7" d="M112.59054,27.94488c.40619-.07066,5.51735-.96862,8.74992.43511,3.303,1.43468,6.67573,1.53682,2.40606,6.88666l2.64989-3.149a2.78281,2.78281,0,0,0-.10246-3.6617c-1.1406-1.29867-1.54165-1.75185-2.6796-3.04751a3.30942,3.30942,0,0,0-3.82287-.80439Z"/><path class="cls-7" d="M91.18057,14.76751c.18854-.19586,3.42932-3.44038,6.61295-2.99255,3.267.46807,7.14872.84135,6.12973,5.25914L104.757,13.588a2.84,2.84,0,0,0-1.7036-3.23115c-1.59334-.70666-2.142-.95388-3.72421-1.65929a3.19672,3.19672,0,0,0-3.73913.79144Z"/><path class="cls-7" d="M79.03808,13.08741c-.10138-.26146-2.17669-5.58047-3.45771-6.30017-1.307-.73574-3.76351-.42649-6.01212-.29274-2.17649.12545-4.69493,7.21742-4.852,7.65655L66.71543,5.567a3.03107,3.03107,0,0,1,2.98466-2.22635c.99524-.00833,1.61953-.00833,2.2981-.00833s1.30287,0,2.30716.00833A3.02806,3.02806,0,0,1,77.281,5.567Z"/><path class="cls-7" d="M78.71328,127.00219l-1.54573,7.09817a3.32441,3.32441,0,0,1-3.25611,2.60747c-.79886,0-1.3709,0-1.91332-.00984-.54243.00984-1.11447.00984-1.90345.00984a3.32721,3.32721,0,0,1-3.266-2.60747L65.283,127.00219c.15527.3813,1.88551,6.37307,5.05809,6.44481,3.17286.07174.00548.06917,3.48947.06917S78.57764,127.38349,78.71328,127.00219Z"/><path class="cls-5" d="M76.59092,139.07574l-.12225,5.82532a1.14,1.14,0,0,1-.09865.1899,3.35383,3.35383,0,0,1-2.85361,1.58086c-.47638-.03-.99234-.02-1.5183-.01-.526-.01-1.04192-.02-1.5183.01a3.3538,3.3538,0,0,1-2.8536-1.58086l-.248-6.878c.0863.89254.60788,5.66934,2.44042,5.74921h4.2203C75.416,143.9622,76.462,142.47618,76.59092,139.07574Z"/><path class="cls-5" d="M71.99875,47.39166A21.40548,21.40548,0,0,0,58.42827,52.174a19.78118,19.78118,0,0,0-7.42039,15.1085,19.34393,19.34393,0,0,0,2.14486,9.1413A20.54247,20.54247,0,0,0,60.775,84.58a21.5187,21.5187,0,0,0,11.22377,3.119,20.81776,20.81776,0,0,0,20.44149-15.554,19.1385,19.1385,0,0,0,.54938-4.86254C92.83952,56.23589,83.43978,47.39166,71.99875,47.39166Zm0,34.32165c-8.30714,0-14.97029-6.48956-14.89373-14.4308a13.997,13.997,0,0,1,4.646-10.24237A15.177,15.177,0,0,1,71.99874,53.1163c8.15475,0,14.8179,6.30572,14.89368,14.16621a13.41479,13.41479,0,0,1-.36556,3.28683A14.76481,14.76481,0,0,1,71.99874,81.71331Z"/></svg>