<?xml version="1.0" encoding="UTF-8" standalone="no"?>
<!-- Created with Inkscape (http://www.inkscape.org/) -->

<svg
   width="36"
   height="36"
   viewBox="0 0 9.5250001 9.5249999"
   version="1.1"
   id="svg5"
   xml:space="preserve"
   inkscape:version="1.2 (dc2aedaf03, 2022-05-15)"
   sodipodi:docname="ghostDetectIcon.svg"
   xmlns:inkscape="http://www.inkscape.org/namespaces/inkscape"
   xmlns:sodipodi="http://sodipodi.sourceforge.net/DTD/sodipodi-0.dtd"
   xmlns="http://www.w3.org/2000/svg"
   xmlns:svg="http://www.w3.org/2000/svg"><sodipodi:namedview
     id="namedview7"
     pagecolor="#505050"
     bordercolor="#ffffff"
     borderopacity="1"
     inkscape:showpageshadow="0"
     inkscape:pageopacity="0"
     inkscape:pagecheckerboard="1"
     inkscape:deskcolor="#505050"
     inkscape:document-units="mm"
     showgrid="false"
     inkscape:zoom="4.3"
     inkscape:cx="-2.2093023"
     inkscape:cy="11.860465"
     inkscape:window-width="1366"
     inkscape:window-height="705"
     inkscape:window-x="-8"
     inkscape:window-y="-8"
     inkscape:window-maximized="1"
     inkscape:current-layer="layer1" /><defs
     id="defs2" /><g
     inkscape:label="Layer 1"
     inkscape:groupmode="layer"
     id="layer1"
     transform="translate(-144.13377,-114.75111)"><path
       style="color:#000000;fill:#562605;stroke-linecap:round;stroke-linejoin:round;-inkscape-stroke:none;paint-order:stroke fill markers"
       d="m 150.15625,115.05859 c -1.45234,0.0359 -2.80371,1.05848 -3.10352,2.5293 -0.049,0.19816 -0.0539,0.35855 -0.0625,0.45117 -0.009,0.0982 -0.0211,0.11498 -0.0176,0.10938 a 0.58158813,0.58158813 0 0 0 -0.0137,0.0254 h -1.23828 c 0.0139,0 -6.9e-4,-3.4e-4 -0.0449,0.002 -0.4513,0.024 -0.82226,0.40789 -0.82226,0.86328 0,0.0835 0.13101,0.0772 0.15429,0.1543 -0.44774,0.028 -0.81836,0.40471 -0.81836,0.85742 0,0.44296 0.38411,0.77719 0.81836,0.81836 -0.0241,0.0786 -0.15429,0.0767 -0.15429,0.16211 0,0.3752 0.35196,0.57462 0.69335,0.69141 -0.0693,0.17282 -0.1365,0.35556 -0.20898,0.52734 -0.0264,0.0626 -0.0727,0.16785 -0.0996,0.32422 -0.0269,0.15636 -0.0487,0.44511 0.19141,0.69336 0.29625,0.30607 0.69643,0.3669 1.01562,0.35547 0.3192,-0.0114 0.61266,-0.0864 0.87696,-0.15821 0.22854,-0.0621 0.41173,-0.11245 0.55078,-0.14453 0.0352,0.0618 0.0477,0.11391 0.0957,0.17774 0.1356,0.18043 0.35548,0.3904 0.68555,0.44531 0.69818,0.11615 1.25508,-0.17391 1.56836,-0.39258 0.15663,-0.10933 0.27217,-0.1961 0.31054,-0.2168 0.0384,-0.0207 -0.0764,0.0157 -0.14843,-0.0117 l -0.20899,-0.13672 c 0.52786,0.54042 1.20347,0.81263 1.85156,0.7207 0.6481,-0.0919 1.21402,-0.57255 1.46485,-1.25391 0.16139,-0.43825 0.0976,-0.81107 0.0977,-1.03711 3.9e-4,-1.17 0.004,-2.34277 -0.004,-3.51757 a 0.58158813,0.58158813 0 0 0 0,-0.0156 c -0.0558,-1.58259 -1.36809,-2.84716 -2.89649,-2.99805 -0.13043,-0.0153 -0.26099,-0.0249 -0.39258,-0.0254 -0.045,-9.6e-4 -0.0923,-10e-4 -0.14062,0 z m 0.0293,1.16211 a 0.58158813,0.58158813 0 0 0 0.0156,0 c 0.0228,-3.3e-4 0.0453,-5.3e-4 0.0703,0 a 0.58158813,0.58158813 0 0 0 0.0137,0.002 c 0.0927,0 0.18504,0.004 0.27734,0.0156 a 0.58158813,0.58158813 0 0 0 0.0117,0.002 c 0.59848,0.0586 1.08024,0.46947 1.42578,0.97266 -0.003,-3e-5 -0.005,-0.004 -0.008,-0.004 a 0.58158813,0.58158813 0 0 0 -0.002,0 c -0.26398,6e-4 -0.39578,0.22935 -0.57812,0.38868 -0.11802,0.0744 -0.28022,0.0865 -0.35547,0.19336 l 0.0352,0.0215 c -0.0167,0.028 -0.0657,0.0238 -0.0801,0.0527 a 0.58158813,0.58158813 0 0 0 0.16601,0.56641 0.58158813,0.58158813 0 0 0 -0.28515,0.49024 c 0.006,0.0253 0.0299,0.0433 0.0371,0.0683 l -0.0156,0.004 c 0.005,0.0121 0.0263,0.0114 0.0313,0.0234 0.14413,0.46447 0.49944,0.89076 1.04688,0.89062 0.18547,-6e-5 0.28641,-0.14761 0.43359,-0.23242 3.2e-4,0.64622 0.002,1.29175 0.002,1.93945 -1.1e-4,0.31739 -9.3e-4,0.56306 -0.0273,0.63477 -0.12947,0.3517 -0.31536,0.47245 -0.53711,0.50391 -0.22175,0.0314 -0.53222,-0.0499 -0.85547,-0.38086 a 0.58158813,0.58158813 0 0 0 -0.20898,-0.13672 c -0.29936,-0.11408 -0.62971,-0.0265 -0.81641,0.0742 -0.18669,0.10068 -0.30724,0.20573 -0.42383,0.28711 -0.21853,0.15253 -0.36959,0.22176 -0.66797,0.18554 -0.0324,-0.0466 -0.077,-0.12997 -0.11328,-0.2207 a 0.58158813,0.58158813 0 0 0 -0.0449,-0.0879 c -0.14453,-0.23545 -0.40824,-0.32974 -0.57422,-0.34766 -0.16597,-0.0179 -0.29209,0.004 -0.41601,0.0274 -0.24786,0.0469 -0.48765,0.12504 -0.72461,0.18945 -0.19466,0.0529 -0.36087,0.0795 -0.50391,0.0957 0.52396,-1.2749 0.95202,-2.52753 1.48633,-3.75 l -0.041,0.0742 c 0.14454,-0.23129 0.17512,-0.46191 0.18946,-0.61719 0.0143,-0.15527 0.0204,-0.24857 0.0293,-0.28125 a 0.58158813,0.58158813 0 0 0 0.01,-0.0391 c 0.17559,-0.87947 1.08991,-1.58304 1.99805,-1.60547 z m -0.375,0.98828 c -0.26398,6e-4 -0.39578,0.22935 -0.57813,0.38868 -0.11801,0.0744 -0.28022,0.0865 -0.35547,0.19336 l 0.0352,0.0215 c -0.0167,0.028 -0.0657,0.0238 -0.0801,0.0527 a 0.58158813,0.58158813 0 0 0 0.16602,0.56641 0.58158813,0.58158813 0 0 0 -0.28516,0.49024 c 0.006,0.0253 0.0299,0.0433 0.0371,0.0683 l -0.0156,0.004 c 0.005,0.0121 0.0263,0.0114 0.0313,0.0234 0.14412,0.46446 0.49945,0.89075 1.04688,0.89062 0.37008,-5.6e-4 0.67975,-0.21211 0.86328,-0.46484 0.18353,-0.25273 0.27547,-0.55863 0.27539,-0.88477 -7e-5,-0.32598 -0.0918,-0.63219 -0.27539,-0.88476 -0.18354,-0.25258 -0.49337,-0.46428 -0.86328,-0.46485 a 0.58158813,0.58158813 0 0 0 -0.002,0 z m -0.0449,1.26563 c 9.5e-4,0.004 0.001,0.006 0.002,0.01 -0.021,0.0151 -0.04,0.0264 -0.082,0.0352 a 0.58158813,0.58158813 0 0 0 -0.0391,-0.0195 0.58158813,0.58158813 0 0 0 0.11914,-0.0254 z m 2.18165,0 c 9.4e-4,0.004 10e-4,0.006 0.002,0.01 -0.021,0.0153 -0.0411,0.0262 -0.084,0.0352 a 0.58158813,0.58158813 0 0 0 -0.0391,-0.0195 0.58158813,0.58158813 0 0 0 0.1211,-0.0254 z m -2.29493,0.0488 h 0.002 c 0.008,0 0.002,0.003 0.01,0.004 -0.005,3.8e-4 -0.004,0.004 -0.01,0.004 h -0.002 c -0.006,-10e-6 -0.004,-0.004 -0.01,-0.004 0.005,-3.7e-4 0.004,-0.004 0.01,-0.004 z m 2.17969,0 h 0.002 c 0.008,0 0.002,0.003 0.01,0.004 -0.006,3.8e-4 -0.004,0.004 -0.01,0.004 h -0.002 c -0.006,-10e-6 -0.004,-0.004 -0.01,-0.004 0.005,-3.7e-4 0.004,-0.004 0.01,-0.004 z m -6.79492,1.82031 a 0.58158813,0.58158813 0 0 0 0.004,0.004 c -0.008,-8e-5 0.009,2.5e-4 -0.004,0 z m 2.66016,2.65234 c 0.0104,0.026 0.0369,0.062 0.0488,0.0898 -0.001,-0.002 -0.003,-1.4e-4 -0.004,-0.002 z"
       id="path15993" /><path
       style="color:#000000;fill:#562605;stroke-width:1.16306;stroke-linecap:round;stroke-linejoin:round;-inkscape-stroke:none;paint-order:stroke fill markers"
       d="m 150.17056,115.64017 c -1.18219,0.0292 -2.31799,0.8937 -2.55325,2.07203 -0.0676,0.24867 -0.0101,0.51852 -0.15113,0.74421 -0.58562,1.33986 -1.02693,2.67941 -1.5923,4.01928 -0.0427,0.1012 -0.11623,0.29437 -0.0264,0.38725 0.5543,0.57267 2.17467,-0.4338 2.3897,-0.0835 0.0968,0.24192 0.25598,0.54683 0.51303,0.58959 1.04136,0.17324 1.38627,-0.76283 1.84087,-0.58959 0.85111,0.87136 1.9751,0.70543 2.3554,-0.32762 0.0939,-0.25498 0.062,-0.56446 0.0621,-0.83617 3.9e-4,-1.17107 0.004,-2.34224 -0.004,-3.5132 -0.0444,-1.25841 -1.13916,-2.32069 -2.3728,-2.4414 -0.11522,-0.0139 -0.23095,-0.0209 -0.347,-0.0209 h -4.9e-4 c -0.0378,-8.1e-4 -0.0756,-9.2e-4 -0.11335,0 z m -0.35893,2.15108 a 0.55840166,0.76780239 0 0 1 0.55778,0.76756 0.55840166,0.76780239 0 0 1 -0.55778,0.76807 0.55840166,0.76780239 0 0 1 -0.53242,-0.53591 0.42045829,0.57813022 0 0 0 0.37433,0.31468 0.42045829,0.57813022 0 0 0 0.42007,-0.57816 0.42045829,0.57813022 0 0 0 -0.42007,-0.57816 0.42045829,0.57813022 0 0 0 -0.30176,0.17598 0.55840166,0.76780239 0 0 1 0.45985,-0.33406 z m 2.17991,0 a 0.55840166,0.76780239 0 0 1 0.55827,0.76756 0.55840166,0.76780239 0 0 1 -0.55827,0.76807 0.55840166,0.76780239 0 0 1 -0.53243,-0.53591 0.42045829,0.57813022 0 0 0 0.37434,0.31468 0.42045829,0.57813022 0 0 0 0.42007,-0.57816 0.42045829,0.57813022 0 0 0 -0.42007,-0.57816 0.42045829,0.57813022 0 0 0 -0.30176,0.17598 0.55840166,0.76780239 0 0 1 0.45985,-0.33406 z m -6.2857,0.96443 c -0.15072,0.008 -0.26993,0.13168 -0.26993,0.28435 0,0.15761 0.12675,0.28436 0.28435,0.28436 h 1.07679 c 0.0192,-0.0479 0.0384,-0.0957 0.0577,-0.14367 0.017,-0.0418 0.034,-0.0839 0.0512,-0.12578 0.0172,-0.0418 0.0344,-0.0834 0.0518,-0.12527 0.0173,-0.0418 0.0351,-0.0839 0.0527,-0.12578 0.007,-0.0161 0.0136,-0.0321 0.0204,-0.0482 h -5e-4 -1.30992 c -0.005,0 -0.0101,-2.6e-4 -0.0144,0 z m -0.65621,1.01116 c -0.002,-4e-5 -0.005,3.6e-4 -0.008,4.8e-4 -0.15073,0.008 -0.26993,0.13169 -0.26993,0.28436 0,0.15761 0.12675,0.28436 0.28435,0.28436 h 1.34871 c 0.0191,-0.0502 0.038,-0.10039 0.0572,-0.15063 0.0319,-0.0837 0.0642,-0.16731 0.0965,-0.25105 0.0214,-0.0556 0.043,-0.1113 0.0646,-0.16704 h -1.56707 c -0.002,0 -0.005,-4.5e-4 -0.007,-4.8e-4 z m 0.66019,0.97984 c -9.6e-4,1e-5 -0.003,4.3e-4 -0.004,4.9e-4 -0.15072,0.008 -0.26993,0.13168 -0.26993,0.28436 0,0.1576 0.12675,0.28436 0.28435,0.28436 h 0.3117 c 0.0162,-0.0419 0.0326,-0.0839 0.0487,-0.12578 0.0321,-0.0837 0.064,-0.16731 0.0959,-0.25105 0.0243,-0.0639 0.0483,-0.12796 0.0726,-0.19189 h -0.52896 c -0.004,0 -0.007,-5.4e-4 -0.0104,-4.9e-4 z"
       id="path15995" /><path
       style="color:#000000;fill:#db6c0b;stroke-linecap:round;stroke-linejoin:round;-inkscape-stroke:none;paint-order:stroke fill markers"
       d="m 150.16406,115.22852 c -1.31934,0.0326 -2.56553,0.97921 -2.83203,2.30664 -0.041,0.16177 -0.0448,0.30429 -0.0547,0.41211 -0.0103,0.1124 -0.0254,0.18318 -0.0586,0.23632 a 0.29295879,0.29295879 0 0 0 -0.0215,0.0371 c -0.0236,0.0539 -0.0394,0.10634 -0.0625,0.16016 a 0.29295879,0.29295879 0 0 0 -0.10352,-0.0371 h -1.31055 c 0.005,0 -0.007,0.001 -0.0273,0.002 a 0.29295879,0.29295879 0 0 0 -0.004,0 c -0.001,6e-5 -9e-4,0.002 -0.002,0.002 -0.30056,0.0176 -0.54492,0.27035 -0.54492,0.57422 0,0.23693 0.22744,0.34745 0.43554,0.43554 h -0.52148 c 0,0 0,-0.002 0,-0.002 a 0.29295879,0.29295879 0 0 0 -0.002,0 h -0.006 c -0.0228,3.4e-4 -0.0353,0.003 -0.0215,0.002 -0.30193,0.016 -0.54882,0.2706 -0.54882,0.57617 0,0.31515 0.26362,0.57813 0.57812,0.57813 h 0.4668 c -0.1741,0.10033 -0.38086,0.19007 -0.38086,0.40234 0,0.3145 0.26364,0.57617 0.57812,0.57617 h 0.18164 c -0.0984,0.24952 -0.194,0.50546 -0.29882,0.75391 -0.0239,0.0566 -0.0623,0.14503 -0.082,0.25977 -0.0197,0.11473 -0.0279,0.29726 0.11524,0.44531 0.21802,0.22524 0.52227,0.2775 0.79883,0.26758 0.27655,-0.01 0.55299,-0.0784 0.81054,-0.14844 0.25756,-0.07 0.49805,-0.14311 0.66016,-0.17383 0.061,-0.0116 0.0914,-0.0111 0.11914,-0.0117 0.0473,0.10608 0.0924,0.2157 0.17383,0.32422 0.10989,0.14641 0.27187,0.29376 0.50195,0.33203 0.61009,0.10151 1.06394,-0.13896 1.35742,-0.34375 0.14675,-0.10239 0.26267,-0.19186 0.33789,-0.23242 0.0752,-0.0406 0.0698,-0.035 0.0899,-0.0273 l -0.10547,-0.0703 c 0.47709,0.48846 1.06316,0.71366 1.60547,0.63672 0.5423,-0.0769 1.01366,-0.46686 1.23437,-1.0664 0.12792,-0.34735 0.08,-0.68887 0.0801,-0.9375 3.9e-4,-1.17052 0.004,-2.34273 -0.004,-3.51563 a 0.29295879,0.29295879 0 0 0 0,-0.008 c -0.0502,-1.42218 -1.25405,-2.58735 -2.63671,-2.72266 -0.12238,-0.0145 -0.24478,-0.0232 -0.36914,-0.0234 -0.0376,-8.1e-4 -0.0762,-7.7e-4 -0.11524,0 a 0.29295879,0.29295879 0 0 0 -0.0117,0 z m 0.0137,0.58593 c 0.0325,-8e-4 0.0652,-7.3e-4 0.0996,0 a 0.29295879,0.29295879 0 0 0 0.008,0 c 0.10376,0 0.20632,0.007 0.31054,0.0195 a 0.29295879,0.29295879 0 0 0 0.008,0 c 0.88946,0.087 1.58054,0.80003 1.86914,1.63868 -0.16535,-0.17826 -0.35305,-0.35171 -0.60743,-0.35157 -0.31322,1.7e-4 -0.57735,0.18712 -0.74609,0.4336 -0.16874,0.24648 -0.26174,0.56148 -0.26172,0.90429 -2e-5,0.34281 0.093,0.65978 0.26172,0.90625 0.16874,0.24648 0.43288,0.43343 0.74609,0.4336 0.31338,1.7e-4 0.57915,-0.18708 0.74805,-0.4336 0.0637,-0.093 0.0585,-0.23134 0.0996,-0.34179 0.002,0.82429 0.002,1.64902 0.002,2.47461 -1e-4,0.29479 0.0169,0.57176 -0.043,0.73437 -0.15958,0.43349 -0.44003,0.64299 -0.76757,0.68946 -0.32755,0.0465 -0.7295,-0.0819 -1.10352,-0.46485 a 0.29295879,0.29295879 0 0 0 -0.10547,-0.0703 c -0.20721,-0.079 -0.42625,-0.0203 -0.57617,0.0606 -0.14991,0.0808 -0.26991,0.17925 -0.39648,0.26757 -0.25315,0.17665 -0.49259,0.31784 -0.92383,0.2461 -0.027,-0.004 -0.0729,-0.0282 -0.13086,-0.10547 -0.058,-0.0772 -0.11456,-0.19365 -0.1582,-0.30274 a 0.29295879,0.29295879 0 0 0 -0.0234,-0.0449 c -0.0862,-0.14035 -0.24302,-0.19838 -0.35938,-0.21093 -0.11635,-0.0126 -0.22029,6.7e-4 -0.33008,0.0215 -0.21957,0.0416 -0.46128,0.11927 -0.70507,0.18555 -0.24379,0.0663 -0.48779,0.12013 -0.67774,0.12695 -0.15976,0.006 -0.23555,-0.0319 -0.29883,-0.0762 0.009,-0.0283 0.0174,-0.054 0.0293,-0.082 0.57128,-1.35396 1.01127,-2.69384 1.58984,-4.01758 l -0.0195,0.0391 c 0.10772,-0.17253 0.13351,-0.3511 0.14649,-0.49219 0.013,-0.14108 0.0178,-0.25195 0.0391,-0.33007 a 0.29295879,0.29295879 0 0 0 0.004,-0.0195 c 0.2052,-1.02779 1.22932,-1.8121 2.27343,-1.83789 z m -0.45898,1.30664 c -0.31338,-1.7e-4 -0.57915,0.18708 -0.74805,0.4336 -0.16889,0.24652 -0.26174,0.56131 -0.26172,0.90429 -2e-5,0.34299 0.0928,0.65974 0.26172,0.90625 0.1689,0.24652 0.43467,0.43377 0.74805,0.4336 0.31322,-1.6e-4 0.5793,-0.18712 0.74805,-0.4336 0.16874,-0.24647 0.25978,-0.56343 0.25976,-0.90625 3e-5,-0.34281 -0.091,-0.65781 -0.25976,-0.90429 -0.16875,-0.24648 -0.43483,-0.43344 -0.74805,-0.4336 z m -0.14453,0.81446 h 0.002 c 0.0387,3.9e-4 0.091,0.0236 0.15235,0.11328 0.0619,0.0905 0.11332,0.23903 0.11328,0.41015 a 0.29295879,0.29295879 0 0 0 0,0.002 c 4e-5,0.17112 -0.0514,0.3197 -0.11328,0.41015 -0.0614,0.0897 -0.11364,0.11289 -0.15235,0.11329 -0.0388,0 -0.0924,-0.0229 -0.1543,-0.11329 -0.0619,-0.0904 -0.11331,-0.23892 -0.11328,-0.41015 a 0.29295879,0.29295879 0 0 0 0,-0.002 c -3e-5,-0.17123 0.0513,-0.31972 0.11328,-0.41015 0.0614,-0.0897 0.11361,-0.11294 0.15235,-0.11328 z m 2.14648,0 c 0.0388,-1e-5 0.0924,0.0228 0.1543,0.11328 0.0619,0.0904 0.11137,0.23892 0.11133,0.41015 a 0.29295879,0.29295879 0 0 0 0,0.002 c 4e-5,0.17123 -0.0494,0.31972 -0.11133,0.41015 -0.0619,0.0904 -0.11547,0.11329 -0.1543,0.11329 -0.0388,0 -0.0924,-0.0229 -0.15429,-0.11329 -0.0619,-0.0904 -0.11137,-0.23892 -0.11133,-0.41015 a 0.29295879,0.29295879 0 0 0 0,-0.002 c -4e-5,-0.17123 0.0494,-0.31972 0.11133,-0.41015 0.0619,-0.0904 0.11546,-0.11329 0.15429,-0.11328 z"
       id="path15987" /><path
       style="color:#000000;fill:#ffdf6a;stroke-width:0.585859;stroke-linecap:round;stroke-linejoin:round;-inkscape-stroke:none;paint-order:stroke fill markers"
       d="m 150.1706,115.5221 c -1.18219,0.0292 -2.31807,0.89389 -2.55333,2.07223 -0.0676,0.24866 -0.01,0.51846 -0.1509,0.74414 -0.58562,1.33987 -1.02732,2.67951 -1.59266,4.01939 -0.0427,0.10119 -0.11619,0.29418 -0.0264,0.38706 0.5543,0.57266 2.17501,-0.43403 2.39004,-0.0837 0.0968,0.24193 0.25558,0.54687 0.51263,0.58963 1.04133,0.17325 1.38663,-0.76286 1.84123,-0.58963 0.85111,0.87138 1.97511,0.70541 2.35541,-0.32763 0.0939,-0.25498 0.0619,-0.56441 0.062,-0.83612 3.9e-4,-1.17106 0.004,-2.34201 -0.004,-3.51297 -0.0444,-1.25838 -1.13935,-2.32047 -2.37299,-2.44119 -0.11522,-0.0139 -0.23069,-0.0212 -0.34674,-0.0212 h -5.2e-4 c -0.0379,-8.1e-4 -0.0753,-9.3e-4 -0.11317,0 z m -0.45217,1.89239 a 0.71596575,1.0453099 0 0 1 0.71572,1.04542 0.71596575,1.0453099 0 0 1 -0.71572,1.04541 0.71596575,1.0453099 0 0 1 -0.71623,-1.04541 0.71596575,1.0453099 0 0 1 0.71623,-1.04542 z m 2.14767,0 a 0.71596575,1.0453099 0 0 1 0.71624,1.04542 0.71596575,1.0453099 0 0 1 -0.71624,1.04541 0.71596575,1.0453099 0 0 1 -0.71571,-1.04541 0.71596575,1.0453099 0 0 1 0.71571,-1.04542 z m -2.29081,0.22893 a 0.55905753,0.81622392 0 0 0 -0.55914,0.81649 0.55905753,0.81622392 0 0 0 0.55914,0.81649 0.55905753,0.81622392 0 0 0 0.55862,-0.81649 0.55905753,0.81622392 0 0 0 -0.55862,-0.81649 z m 2.14509,0 a 0.55905753,0.81622392 0 0 0 -0.55914,0.81649 0.55905753,0.81622392 0 0 0 0.55914,0.81649 0.55905753,0.81622392 0 0 0 0.55914,-0.81649 0.55905753,0.81622392 0 0 0 -0.55914,-0.81649 z m -6.01462,0.99425 c -0.15072,0.008 -0.26975,0.13157 -0.26975,0.28422 0,0.1576 0.12662,0.28474 0.28422,0.28474 h 1.07693 c 0.0192,-0.0479 0.038,-0.0962 0.0574,-0.14418 0.017,-0.0418 0.0345,-0.0837 0.0517,-0.12557 0.0172,-0.0418 0.0344,-0.0832 0.0517,-0.12506 0.0173,-0.0418 0.0351,-0.0842 0.0527,-0.12609 0.007,-0.0161 0.0134,-0.032 0.0202,-0.0481 h -5.2e-4 -1.30999 c -0.005,0 -0.009,-2.5e-4 -0.0145,0 z m -0.65629,1.01131 c -0.002,-3e-5 -0.005,4e-4 -0.007,5.2e-4 -0.15073,0.008 -0.27027,0.13154 -0.27027,0.28422 0,0.1576 0.12714,0.28422 0.28474,0.28422 h 1.34875 c 0.0191,-0.0502 0.0377,-0.10015 0.0568,-0.15038 0.0319,-0.0837 0.0643,-0.16741 0.0966,-0.25115 0.0214,-0.0556 0.043,-0.11118 0.0646,-0.16691 h -1.56683 c -0.002,0 -0.005,-4.8e-4 -0.007,-5.2e-4 z m 0.66042,0.97979 c -0.001,1e-5 -0.003,4.4e-4 -0.004,5.1e-4 -0.15073,0.008 -0.26975,0.13155 -0.26975,0.28422 0,0.15761 0.12662,0.28422 0.28422,0.28422 h 0.31161 c 0.0162,-0.0419 0.0325,-0.0837 0.0486,-0.12557 0.0321,-0.0837 0.0643,-0.16742 0.0961,-0.25115 0.0243,-0.0639 0.0486,-0.12778 0.0729,-0.19172 h -0.52916 c -0.004,0 -0.007,-5.5e-4 -0.0103,-5.1e-4 z"
       id="path15989" /></g></svg>
