<svg id="Capa_1" enable-background="new 0 0 512 512" height="512" viewBox="0 0 512 512" width="512" xmlns="http://www.w3.org/2000/svg"><g><path d="m480.107 383.613-92.167 25.887-100.045 102.5h192.212z" fill="#0051bf"/><path d="m400.158 232.634-132.279 88.355 20.016 191.011 192.212-128.387v-130.963z" fill="#ebebf0"/><path d="m287.895 341.005 132.279-88.355-152.295-20.016z" fill="#0051bf"/><path d="m480.107 212.618-212.228-10.008 20.016 50.04h192.212z" fill="#00347b"/><path d="m256 512h31.895v-170.995-88.355l-51.911-20.016z" fill="#ffd422"/><path d="m204.093 232.634 20.016 279.366h31.891v-259.35z" fill="#fff47d"/><path d="m287.895 252.65v-40.032l-51.911-20.016 20.016 60.048z" fill="#ff9f22"/><path d="m224.109 252.65h31.891v-40.032l-51.907-20.016z" fill="#ffd422"/><path d="m224.109 383.61-82.109 20.822-110.107 107.568h192.216z" fill="#fff5f5"/><path d="m164.176 232.634-132.283 108.374v170.992l192.216-128.39v-130.96z" fill="#6e76e5"/><path d="m31.893 252.65v88.358l132.283-88.358-66.141-20.016z" fill="#fff5f5"/><path d="m31.893 192.602v60.048h192.216v-40.032z" fill="#0051bf"/><path d="m512 131.94h-192.215l-20.016 40.339 20.016 40.339h192.215z" fill="#0051bf"/><path d="m319.785 131.94h-63.785l-20.016 40.339 20.016 40.339h63.785z" fill="#ffd422"/><path d="m192.214 131.94-20.016 40.339 20.016 40.339h63.786v-80.678z" fill="#fff47d"/><path d="m0 131.94h192.214v80.678h-192.214z" fill="#6e76e5"/><path d="m314.47 0c-23.83 0-45.038 11.412-58.47 29.05l-10.008 102.89 10.008 15h58.471c40.511 0 73.47-32.959 73.47-73.471s-32.96-73.469-73.471-73.469zm0 116.94h-43.47v-43.47c0-23.97 19.5-43.47 43.47-43.47 23.969 0 43.47 19.501 43.47 43.471s-19.501 43.469-43.47 43.469z" fill="#ff9f22"/><path d="m197.53 0c-40.511 0-73.47 32.959-73.47 73.471s32.958 73.47 73.47 73.47h58.47v-117.892c-13.433-17.637-34.64-29.049-58.47-29.049zm43.47 116.94h-43.47c-23.969 0-43.47-19.501-43.47-43.471s19.5-43.469 43.47-43.469c23.969 0 43.47 19.5 43.47 43.47z" fill="#ffd422"/></g></svg>