<?xml version="1.0" encoding="UTF-8" standalone="no"?><!DOCTYPE svg PUBLIC "-//W3C//DTD SVG 1.1//EN" "http://www.w3.org/Graphics/SVG/1.1/DTD/svg11.dtd"><svg width="100%" height="100%" viewBox="0 0 300 345" version="1.1" xmlns="http://www.w3.org/2000/svg" xmlns:xlink="http://www.w3.org/1999/xlink" xml:space="preserve" xmlns:serif="http://www.serif.com/" style="fill-rule:evenodd;clip-rule:evenodd;stroke-linejoin:round;stroke-miterlimit:2;"><g id="Swimmer"><g id="SwimmingGlasses"><path d="M0,182.707c0,-23.279 15.389,-29.85 32.957,-30.228c12.896,-0.276 26.464,0.43 38.687,1.857c14.019,1.637 23.69,5.403 33.529,11.864c9.398,6.172 16.244,15.622 18.673,30.022c1.426,8.453 0.569,17.923 -4.539,28.886c-5.93,10.178 -16.393,14.836 -30.125,17.126c-14.33,2.389 -36.311,3.893 -49.21,1.444c-7.103,-1.349 -13.839,-4.532 -20.117,-10.007c-6.299,-5.494 -12.172,-13.485 -16.3,-24.141c-2.05,-5.289 -3.555,-11.636 -3.555,-17.022l0,-9.801Zm40.852,54.298c7.261,0.874 23.845,1.5 30.702,0.908c10.835,-0.937 22.635,-3.461 32.27,-7.841c11.234,-5.107 19.041,-15.962 17.167,-32.105c-1.187,-10.222 -6.241,-17.195 -14.526,-22.532c-16.658,-10.73 -31.841,-15.543 -60.001,-16.836c-10.994,-0.505 -21.785,0.838 -30.95,4.869c-11.196,4.925 -16.539,18.431 -11.142,36.067c2.435,7.957 8.913,19.537 16.176,26.741c5.582,5.535 11.866,9.713 20.304,10.729Zm259.105,-54.298l0,9.801c0,5.386 -1.505,11.733 -3.554,17.022c-4.129,10.656 -10.002,18.647 -16.301,24.141c-6.278,5.475 -13.014,8.658 -20.117,10.007c-12.899,2.449 -34.88,0.945 -49.21,-1.444c-13.732,-2.29 -24.195,-6.948 -30.125,-17.126c-5.107,-10.963 -5.965,-20.433 -4.539,-28.886c2.429,-14.4 9.275,-23.85 18.673,-30.022c9.839,-6.461 19.51,-10.227 33.529,-11.864c12.224,-1.427 25.792,-2.133 38.687,-1.857c17.568,0.378 32.957,6.949 32.957,30.228Zm-40.851,54.298c8.437,-1.016 14.721,-5.194 20.303,-10.729c7.263,-7.204 13.741,-18.784 16.176,-26.741c5.397,-17.636 0.054,-31.142 -11.142,-36.067c-9.165,-4.031 -19.956,-5.374 -30.95,-4.869c-28.16,1.293 -43.343,6.106 -60.001,16.836c-8.285,5.337 -13.339,12.31 -14.526,22.532c-1.874,16.143 5.933,26.998 17.167,32.105c9.635,4.38 21.436,6.904 32.27,7.841c6.857,0.592 23.441,-0.034 30.703,-0.908Z" style="fill:#4e4e4e;"/><path d="M3.6,209.648c-0.015,-0.039 -0.03,-0.079 -0.045,-0.118c-2.05,-5.289 -3.555,-11.636 -3.555,-17.022l0,-9.801c0,-1.279 0.046,-2.507 0.137,-3.687l2.884,0.222c-1.312,5.74 -0.995,12.626 1.351,20.293c0.222,0.726 0.478,1.482 0.765,2.262l-1.867,0.687l1.939,-0.493c0.705,1.894 1.592,3.925 2.624,6.009l-4.233,1.648Zm1.012,-35.211l-3.509,-1.566c0.755,-3.035 1.877,-5.654 3.306,-7.906l0.336,0.304l4.251,2.679c-1.798,1.827 -3.275,4.005 -4.384,6.489Zm8.745,-9.872l-4.125,-5.04c1.888,-1.546 4.01,-2.792 6.31,-3.78l0.068,0.157c0.857,-0.322 1.725,-0.625 2.603,-0.909l2.149,6.635c-1.659,0.537 -3.277,1.149 -4.848,1.84c-0.745,0.328 -1.465,0.694 -2.157,1.097Zm13.766,-4.683c-1.061,0.138 -2.104,0.31 -3.124,0.522l-1.417,-6.83c3.293,-0.682 6.788,-1.018 10.375,-1.095c0.166,-0.003 0.332,-0.007 0.499,-0.01l0.617,6.403c-2.359,0.227 -4.68,0.561 -6.95,1.01Zm10.176,-1.254l-0.029,-6.205c3.684,-0.017 7.404,0.042 11.114,0.171l-0.314,6.083c-0.531,-0.027 -1.066,-0.053 -1.606,-0.078c-3.081,-0.142 -6.147,-0.138 -9.165,0.029Zm14.435,0.264l0.291,-6.148c3.628,0.171 7.232,0.408 10.769,0.706l-0.762,6.38c-3.231,-0.386 -6.651,-0.697 -10.298,-0.938Zm14.366,1.479l0.645,-6.561c1.653,0.163 3.288,0.338 4.899,0.526c0.826,0.097 1.636,0.201 2.433,0.312l-0.004,0.029c1.135,0.229 2.249,0.471 3.343,0.725l-1.58,6.793c-3.062,-0.712 -6.29,-1.317 -9.736,-1.824Zm16.498,3.652l0.165,-0.532c-0.962,-0.261 -1.946,-0.505 -2.954,-0.731l1.529,-6.805c2.492,0.56 4.849,1.215 7.108,1.972l-0.208,0.621c1.201,0.425 2.384,0.87 3.552,1.338l-2.59,6.475c-2.139,-0.855 -4.33,-1.633 -6.602,-2.338Zm12.997,5.196l0.244,-0.494c-1.144,-0.619 -2.298,-1.201 -3.473,-1.745l2.934,-6.328c2.221,1.03 4.379,2.178 6.521,3.45l-0.217,0.366c1.226,0.655 2.448,1.339 3.67,2.052l-3.514,6.024c-2.048,-1.194 -4.093,-2.301 -6.165,-3.325Zm8.101,4.48l4.265,-5.511c3.286,2.543 6.194,5.56 8.63,9.137l-3.531,3.427c-1.893,-1.95 -4.097,-3.708 -6.595,-5.317c-0.927,-0.597 -1.849,-1.175 -2.769,-1.736Zm10.089,7.827l3.963,-2.402c2.236,3.69 4.002,7.932 5.209,12.805l-2.976,0.835c-1.226,-4.367 -3.314,-8.054 -6.196,-11.238Zm6.387,11.952l2.991,-0.69c0.256,1.112 0.484,2.256 0.683,3.434c0.578,3.424 0.781,7.016 0.478,10.806l-3.277,-0.373c0.307,-2.7 0.303,-5.597 -0.056,-8.688c-0.183,-1.571 -0.456,-3.065 -0.819,-4.489Zm0.815,13.668l3.302,0.294c-0.209,2.345 -0.612,4.765 -1.239,7.268l-0.254,-0.063l0.248,0.087c-0.831,3.308 -2.053,6.761 -3.737,10.376c-0.602,1.034 -1.251,2.01 -1.946,2.933l-4.929,-3.709c1.402,-1.332 2.672,-2.807 3.783,-4.424l1.037,0.413l-0.903,-0.609c2.382,-3.531 4.014,-7.726 4.638,-12.566Zm-9.245,17.82l4.243,4.768c-2.61,2.975 -5.759,5.328 -9.391,7.198l-3.192,-6.201c0.943,-0.486 1.847,-1.012 2.708,-1.582l-0.093,-0.171c2.065,-1.128 3.988,-2.466 5.725,-4.012Zm-12.124,6.853l2.472,6.521c-0.712,0.27 -1.433,0.533 -2.161,0.786l0.166,0.501c-2.148,0.711 -4.417,1.313 -6.798,1.825l-1.468,-6.818c0.417,-0.09 0.829,-0.182 1.237,-0.278l-0.096,-0.334c2.273,-0.655 4.499,-1.389 6.648,-2.203Zm-13.443,3.907l1.457,6.758c-2.569,0.402 -5.349,0.774 -8.253,1.1l-0.731,-6.499c2.506,-0.368 5.027,-0.82 7.527,-1.359Zm-13.843,2.117l0.593,6.371c-2.502,0.208 -5.046,0.377 -7.584,0.498l-0.314,-6.569c2.574,-0.013 4.843,-0.085 6.527,-0.23c0.259,-0.023 0.518,-0.046 0.778,-0.07Zm-14.002,0.223l-0.07,2.735l0.042,4.12c-2.41,0.024 -4.772,-0.004 -7.042,-0.093l0.002,-0.046c-0.094,-0.005 -0.187,-0.009 -0.281,-0.014l0.348,-6.966c2.284,0.114 4.667,0.205 7.001,0.264Zm-13.304,-0.661l-0.788,6.908c-1.506,-0.171 -2.934,-0.382 -4.266,-0.635c-1.37,-0.26 -2.726,-0.588 -4.068,-0.988l1.501,-6.299c1.108,0.264 2.256,0.471 3.447,0.614c1.174,0.141 2.593,0.276 4.174,0.4Zm-11.768,-2.33l-2.578,5.656c-3.226,-1.47 -6.359,-3.404 -9.389,-5.854l3.668,-4.677c2.54,1.992 5.27,3.662 8.299,4.875Zm-10.257,-6.504l-3.978,4.357c-2.874,-2.624 -5.646,-5.776 -8.188,-9.473l4.433,-3.319c1.676,2.238 3.453,4.327 5.28,6.14c0.802,0.795 1.618,1.562 2.453,2.295Zm-8.43,-9.383l-4.591,2.99c-2.285,-3.508 -4.364,-7.476 -6.138,-11.918l4.097,-2.046c1.828,3.661 4.101,7.473 6.632,10.974Zm281.786,-9.54l-4.232,-1.648c1.032,-2.084 1.918,-4.115 2.623,-6.009l1.94,0.493l-1.868,-0.687c0.287,-0.78 0.543,-1.536 0.765,-2.262c2.346,-7.667 2.663,-14.553 1.351,-20.293l2.884,-0.222c0.091,1.18 0.137,2.408 0.137,3.687l0,9.801c0,5.386 -1.505,11.733 -3.554,17.022c-0.016,0.039 -0.031,0.079 -0.046,0.118Zm-1.011,-35.211c-1.109,-2.484 -2.587,-4.662 -4.385,-6.489l4.252,-2.679l0.335,-0.304c1.429,2.252 2.551,4.871 3.306,7.906l-3.508,1.566Zm-8.746,-9.872c-0.692,-0.403 -1.411,-0.769 -2.157,-1.097c-1.57,-0.691 -3.189,-1.303 -4.848,-1.84l2.149,-6.635c0.878,0.284 1.746,0.587 2.604,0.909l0.067,-0.157c2.3,0.988 4.422,2.234 6.31,3.78l-4.125,5.04Zm-13.766,-4.683c-2.269,-0.449 -4.591,-0.783 -6.949,-1.01l0.616,-6.403c0.167,0.003 0.333,0.007 0.499,0.01c3.587,0.077 7.082,0.413 10.375,1.095l-1.416,6.83c-1.021,-0.212 -2.064,-0.384 -3.125,-0.522Zm-10.176,-1.254c-3.018,-0.167 -6.083,-0.171 -9.165,-0.029c-0.54,0.025 -1.075,0.051 -1.605,0.078l-0.315,-6.083c3.71,-0.129 7.43,-0.188 11.114,-0.171l-0.029,6.205Zm-14.435,0.264c-3.647,0.241 -7.067,0.552 -10.297,0.938l-0.763,-6.38c3.537,-0.298 7.141,-0.535 10.769,-0.706l0.291,6.148Zm-14.366,1.479c-3.446,0.507 -6.673,1.112 -9.735,1.824l-1.581,-6.793c1.094,-0.254 2.208,-0.496 3.344,-0.725l-0.004,-0.029c0.796,-0.111 1.606,-0.215 2.432,-0.312c1.611,-0.188 3.246,-0.363 4.899,-0.526l0.645,6.561Zm-16.497,3.652c-2.272,0.705 -4.464,1.483 -6.603,2.338l-2.59,-6.475c1.168,-0.468 2.351,-0.913 3.552,-1.338l-0.208,-0.621c2.259,-0.757 4.616,-1.412 7.108,-1.972l1.529,6.805c-1.008,0.226 -1.991,0.47 -2.953,0.731l0.165,0.532Zm-12.998,5.196c-2.071,1.024 -4.117,2.131 -6.165,3.325l-3.514,-6.024c1.222,-0.713 2.444,-1.397 3.67,-2.052l-0.216,-0.366c2.141,-1.272 4.299,-2.42 6.52,-3.45l2.934,6.328c-1.174,0.544 -2.329,1.126 -3.473,1.745l0.244,0.494Zm-8.101,4.48c-0.92,0.561 -1.842,1.139 -2.769,1.736c-2.498,1.609 -4.702,3.367 -6.594,5.317l-3.532,-3.427c2.436,-3.577 5.345,-6.594 8.63,-9.137l4.265,5.511Zm-10.089,7.827c-2.881,3.184 -4.97,6.871 -6.196,11.238l-2.976,-0.835c1.207,-4.873 2.974,-9.115 5.209,-12.805l3.963,2.402Zm-6.387,11.952c-0.362,1.424 -0.636,2.918 -0.819,4.489c-0.359,3.091 -0.362,5.988 -0.055,8.688l-3.278,0.373c-0.303,-3.79 -0.1,-7.382 0.478,-10.806c0.199,-1.178 0.427,-2.322 0.684,-3.434l2.99,0.69Zm-0.815,13.668c0.624,4.84 2.256,9.035 4.638,12.566l-0.903,0.609l1.037,-0.413c1.111,1.617 2.381,3.092 3.784,4.424l-4.93,3.709c-0.695,-0.923 -1.343,-1.899 -1.946,-2.933c-1.684,-3.615 -2.906,-7.068 -3.737,-10.376l0.248,-0.087l-0.254,0.063c-0.627,-2.503 -1.03,-4.923 -1.239,-7.268l3.302,-0.294Zm9.245,17.82c1.737,1.546 3.66,2.884 5.725,4.012l-0.093,0.171c0.861,0.57 1.765,1.096 2.709,1.582l-3.193,6.201c-3.631,-1.87 -6.78,-4.223 -9.391,-7.198l4.243,-4.768Zm12.124,6.853c2.149,0.814 4.375,1.548 6.648,2.203l-0.096,0.334c0.408,0.096 0.821,0.188 1.237,0.278l-1.467,6.818c-2.382,-0.512 -4.651,-1.114 -6.799,-1.825l0.166,-0.501c-0.728,-0.253 -1.448,-0.516 -2.161,-0.786l2.472,-6.521Zm13.443,3.907c2.5,0.539 5.021,0.991 7.527,1.359l-0.731,6.499c-2.904,-0.326 -5.684,-0.698 -8.253,-1.1l1.457,-6.758Zm13.843,2.117c0.26,0.024 0.519,0.047 0.778,0.07c1.684,0.145 3.954,0.217 6.528,0.23l-0.315,6.569c-2.538,-0.121 -5.082,-0.29 -7.584,-0.498l0.593,-6.371Zm14.003,0.223c2.333,-0.059 4.717,-0.15 7.001,-0.264l0.347,6.966c-0.093,0.005 -0.187,0.009 -0.281,0.014l0.002,0.046c-2.27,0.089 -4.631,0.117 -7.042,0.093l0.042,-4.12l-0.069,-2.735Zm13.303,-0.661c1.582,-0.124 3,-0.259 4.175,-0.4c1.19,-0.143 2.338,-0.35 3.447,-0.614l1.5,6.299c-1.342,0.4 -2.698,0.728 -4.068,0.988c-1.331,0.253 -2.759,0.464 -4.266,0.635l-0.788,-6.908Zm11.768,-2.33c3.029,-1.213 5.759,-2.883 8.299,-4.875l3.668,4.677c-3.03,2.45 -6.163,4.384 -9.389,5.854l-2.578,-5.656Zm10.257,-6.504c0.835,-0.733 1.651,-1.5 2.453,-2.295c1.827,-1.813 3.604,-3.902 5.28,-6.14l4.434,3.319c-2.543,3.697 -5.314,6.849 -8.188,9.473l-3.979,-4.357Zm8.431,-9.383c2.53,-3.501 4.803,-7.313 6.631,-10.974l4.097,2.046c-1.774,4.442 -3.853,8.41 -6.138,11.918l-4.59,-2.99Z" style="fill:#767676;"/><path d="M0,182.707c0,-23.279 15.389,-29.85 32.957,-30.228c12.896,-0.276 26.464,0.43 38.687,1.857c14.019,1.637 23.69,5.403 33.529,11.864c9.398,6.172 16.244,15.622 18.673,30.022c1.426,8.453 0.569,17.923 -4.539,28.886c-5.93,10.178 -16.393,14.836 -30.125,17.126c-14.33,2.389 -36.311,3.893 -49.21,1.444c-7.103,-1.349 -13.839,-4.532 -20.117,-10.007c-6.299,-5.494 -12.172,-13.485 -16.3,-24.141c-2.05,-5.289 -3.555,-11.636 -3.555,-17.022l0,-9.801Zm40.852,54.298c7.261,0.874 23.845,1.5 30.702,0.908c10.835,-0.937 22.635,-3.461 32.27,-7.841c11.234,-5.107 19.041,-15.962 17.167,-32.105c-1.187,-10.222 -6.241,-17.195 -14.526,-22.532c-16.658,-10.73 -31.841,-15.543 -60.001,-16.836c-10.994,-0.505 -21.785,0.838 -30.95,4.869c-11.196,4.925 -16.539,18.431 -11.142,36.067c2.435,7.957 8.913,19.537 16.176,26.741c5.582,5.535 11.866,9.713 20.304,10.729Zm-37.888,-63.618c2.469,-5.369 6.556,-9.391 11.773,-11.685c9.422,-4.145 20.513,-5.55 31.815,-5.031c28.614,1.314 44.032,6.239 60.958,17.142c4.48,2.885 8.064,6.225 10.669,10.241c-3.284,-7.083 -8.138,-12.348 -14.065,-16.24c-9.593,-6.3 -19.025,-9.965 -32.694,-11.561c-12.139,-1.417 -25.614,-2.119 -38.422,-1.844c-9.961,0.214 -19.226,2.41 -25.008,8.984c-2.292,2.607 -4.015,5.896 -5.026,9.994Zm117.957,41.828c-3.077,7.734 -9.019,13.305 -16.298,16.614c-9.825,4.466 -21.855,7.052 -32.903,8.006c-6.945,0.601 -23.744,-0.029 -31.099,-0.914c-8.898,-1.071 -15.546,-5.438 -21.432,-11.275c-6.806,-6.751 -12.943,-17.232 -15.884,-25.241c0.562,2.222 1.266,4.405 2.049,6.428c3.998,10.318 9.67,18.064 15.769,23.384c5.996,5.229 12.425,8.277 19.209,9.565c12.722,2.416 34.4,0.905 48.533,-1.452c13.05,-2.176 23.072,-6.474 28.732,-16.122c1.448,-3.12 2.54,-6.114 3.324,-8.993Zm179.036,-32.508l0,9.801c0,5.386 -1.505,11.733 -3.554,17.022c-4.129,10.656 -10.002,18.647 -16.301,24.141c-6.278,5.475 -13.014,8.658 -20.117,10.007c-12.899,2.449 -34.88,0.945 -49.21,-1.444c-13.732,-2.29 -24.195,-6.948 -30.125,-17.126c-5.107,-10.963 -5.965,-20.433 -4.539,-28.886c2.429,-14.4 9.275,-23.85 18.673,-30.022c9.839,-6.461 19.51,-10.227 33.529,-11.864c12.224,-1.427 25.792,-2.133 38.687,-1.857c17.568,0.378 32.957,6.949 32.957,30.228Zm-40.851,54.298c8.437,-1.016 14.721,-5.194 20.303,-10.729c7.263,-7.204 13.741,-18.784 16.176,-26.741c5.397,-17.636 0.054,-31.142 -11.142,-36.067c-9.165,-4.031 -19.956,-5.374 -30.95,-4.869c-28.16,1.293 -43.343,6.106 -60.001,16.836c-8.285,5.337 -13.339,12.31 -14.526,22.532c-1.874,16.143 5.933,26.998 17.167,32.105c9.635,4.38 21.436,6.904 32.27,7.841c6.857,0.592 23.441,-0.034 30.703,-0.908Zm-80.07,-21.79c0.784,2.879 1.876,5.873 3.324,8.993c5.66,9.648 15.682,13.946 28.732,16.122c14.133,2.357 35.811,3.868 48.533,1.452c6.784,-1.288 13.213,-4.336 19.209,-9.565c6.099,-5.32 11.771,-13.066 15.769,-23.384c0.784,-2.023 1.487,-4.206 2.049,-6.428c-2.941,8.009 -9.077,18.49 -15.884,25.241c-5.886,5.837 -12.534,10.204 -21.432,11.275c-7.355,0.885 -24.154,1.515 -31.099,0.914c-11.048,-0.954 -23.078,-3.54 -32.902,-8.006c-7.28,-3.309 -13.222,-8.88 -16.299,-16.614Zm117.958,-41.828c-1.012,-4.098 -2.735,-7.387 -5.027,-9.994c-5.782,-6.574 -15.047,-8.77 -25.008,-8.984c-12.807,-0.275 -26.282,0.427 -38.422,1.844c-13.669,1.596 -23.1,5.261 -32.693,11.561c-5.928,3.892 -10.782,9.157 -14.066,16.24c2.605,-4.016 6.189,-7.356 10.669,-10.241c16.926,-10.903 32.344,-15.828 60.958,-17.142c11.302,-0.519 22.393,0.886 31.815,5.031c5.217,2.294 9.304,6.316 11.774,11.685Z" style="fill:#606060;"/><path d="M4.117,167.149l-4.117,-4.753l0,-22.502c5.118,5.804 10.478,11.539 16.583,17.061l-12.466,10.194Zm291.723,0l-12.466,-10.194c6.105,-5.522 11.465,-11.257 16.583,-17.061l0,22.502l-4.117,4.753Z" style="fill:#8728ff;"/><path d="M4.117,167.149c-0.504,0.505 -4.622,-4.249 -4.117,-4.753l11.15,-10.589c0.625,-0.626 6.058,4.523 5.433,5.148l-12.466,10.194Zm291.723,0l-12.466,-10.194c-0.625,-0.625 4.808,-5.774 5.433,-5.148l11.15,10.589c0.505,0.504 -3.612,5.258 -4.117,4.753Z" style="fill:#5d358f;"/><path d="M5.517,176.578c-1.361,-3.106 -2.197,-6.587 -2.572,-10.398c2.926,-5.047 7.191,-8.755 12.793,-11.127c4.193,1.753 8.167,4.164 11.938,7.184l-22.159,14.341Zm288.923,-0l-22.158,-14.341c3.77,-3.02 7.744,-5.431 11.937,-7.184c5.602,2.372 9.867,6.08 12.793,11.127c-0.375,3.811 -1.211,7.292 -2.572,10.398Z" style="fill:#0a4390;"/><path d="M164.258,201.053l-28.559,0c-5.752,0 -10.197,3.345 -13.099,8.311c-2.39,4.088 -5.017,7.35 -8.24,10.071c4.754,-11.226 5.222,-21.664 0.774,-31.199c-1.993,-4.273 -5.458,-8.919 -8.669,-12.801c12.945,7.641 24.419,12.339 43.514,12.941c19.094,-0.602 30.568,-5.3 43.513,-12.941c-3.21,3.882 -6.676,8.528 -8.669,12.801c-4.448,9.535 -3.98,19.973 0.775,31.199c-3.224,-2.721 -5.851,-5.983 -8.24,-10.071c-2.903,-4.966 -7.348,-8.311 -13.1,-8.311Z" style="fill:#2778e5;"/><path d="M164.258,201.053l-28.559,0c-0.572,0 -1.132,0.034 -1.679,0.098l-5.708,-15.883c6.254,1.772 13.214,2.841 21.667,3.108c8.452,-0.267 15.412,-1.336 21.666,-3.108l-5.708,15.883c-0.547,-0.064 -1.106,-0.098 -1.679,-0.098Z" style="fill:#4f9aff;"/><path d="M40.852,237.005c-8.438,-1.016 -14.722,-5.194 -20.304,-10.729c-7.263,-7.204 -13.741,-18.784 -16.176,-26.741c-5.397,-17.636 -0.054,-31.142 11.142,-36.067c9.165,-4.031 19.956,-5.374 30.95,-4.869c28.16,1.293 43.343,6.106 60.001,16.836c8.285,5.337 13.339,12.31 14.526,22.532c1.874,16.143 -5.933,26.998 -17.167,32.105c-9.635,4.38 -21.435,6.904 -32.27,7.841c-6.857,0.592 -23.441,-0.034 -30.702,-0.908Zm-2.317,-8.09c21.79,4.439 47.64,2.776 65.304,-5.674c8.69,-4.156 11.003,-11.937 11.039,-21.149c0.024,-5.995 -1.309,-11.255 -4.23,-14.546c-12.748,-14.365 -33.923,-21.679 -63.24,-21.356c-10.727,0.119 -17.459,1.374 -24.244,5.505c-6.373,3.88 -9.75,6.945 -10.139,14.2c-0.674,12.555 4.121,22.78 11.686,33.632c3.132,4.493 7.146,8.028 13.824,9.388Zm220.571,8.09c-7.262,0.874 -23.846,1.5 -30.703,0.908c-10.834,-0.937 -22.635,-3.461 -32.27,-7.841c-11.234,-5.107 -19.041,-15.962 -17.167,-32.105c1.187,-10.222 6.241,-17.195 14.526,-22.532c16.658,-10.73 31.841,-15.543 60.001,-16.836c10.994,-0.505 21.785,0.838 30.95,4.869c11.196,4.925 16.539,18.431 11.142,36.067c-2.435,7.957 -8.913,19.537 -16.176,26.741c-5.582,5.535 -11.866,9.713 -20.303,10.729Zm2.316,-8.09c6.678,-1.36 10.692,-4.895 13.824,-9.388c7.565,-10.852 12.36,-21.077 11.687,-33.632c-0.39,-7.255 -3.767,-10.32 -10.14,-14.2c-6.785,-4.131 -13.516,-5.386 -24.244,-5.505c-29.317,-0.323 -50.492,6.991 -63.24,21.356c-2.921,3.291 -4.253,8.551 -4.23,14.546c0.036,9.212 2.349,16.993 11.039,21.149c17.664,8.45 43.514,10.113 65.304,5.674Z" style="fill:#1a64c8;"/><path d="M31.412,226.149l-4.364,5.582c-2.309,-1.576 -4.452,-3.424 -6.5,-5.455c-7.263,-7.204 -13.741,-18.784 -16.176,-26.741c-3.549,-11.597 -2.454,-21.409 1.896,-28.169l9.923,5.746c-1.904,2.243 -2.959,4.919 -3.166,8.783c-0.674,12.555 4.121,22.78 11.686,33.632c1.819,2.61 3.936,4.897 6.701,6.622Zm82.897,-30.486l5.88,-2.116c0.354,1.403 0.622,2.874 0.802,4.42c1.174,10.114 -1.452,18.152 -6.34,24.002l-4.492,-3.519c3.576,-4.279 4.694,-9.974 4.719,-16.358c0.009,-2.271 -0.177,-4.436 -0.569,-6.429Zm154.237,30.486c2.764,-1.725 4.881,-4.012 6.7,-6.622c7.565,-10.852 12.36,-21.077 11.687,-33.632c-0.208,-3.864 -1.263,-6.54 -3.167,-8.783l9.923,-5.746c4.35,6.76 5.445,16.572 1.896,28.169c-2.435,7.957 -8.913,19.537 -16.176,26.741c-2.048,2.031 -4.191,3.879 -6.499,5.455l-4.364,-5.582Zm-82.897,-30.486c-0.393,1.993 -0.579,4.158 -0.57,6.429c0.025,6.384 1.143,12.079 4.719,16.358l-4.492,3.519c-4.888,-5.85 -7.514,-13.888 -6.34,-24.002c0.18,-1.546 0.448,-3.017 0.802,-4.42l5.881,2.116Z" style="fill:#1255af;"/><path d="M38.535,228.915c-6.678,-1.36 -10.692,-4.895 -13.824,-9.388c-7.565,-10.852 -12.36,-21.077 -11.686,-33.632c0.389,-7.255 3.766,-10.32 10.139,-14.2c6.785,-4.131 13.517,-5.386 24.244,-5.505c29.317,-0.323 50.492,6.991 63.24,21.356c2.921,3.291 4.254,8.551 4.23,14.546c-0.036,9.212 -2.349,16.993 -11.039,21.149c-17.664,8.45 -43.514,10.113 -65.304,5.674Zm222.887,0c-21.79,4.439 -47.64,2.776 -65.304,-5.674c-8.69,-4.156 -11.003,-11.937 -11.039,-21.149c-0.023,-5.995 1.309,-11.255 4.23,-14.546c12.748,-14.365 33.923,-21.679 63.24,-21.356c10.728,0.119 17.459,1.374 24.244,5.505c6.373,3.88 9.75,6.945 10.14,14.2c0.673,12.555 -4.122,22.78 -11.687,33.632c-3.132,4.493 -7.146,8.028 -13.824,9.388Z" style="fill:#9ff2ff;fill-opacity:0.5;"/><path d="M12.966,188.808c-0.013,-0.957 0.006,-1.928 0.059,-2.913c0.389,-7.255 3.766,-10.32 10.139,-14.2c6.228,-3.792 12.411,-5.161 21.681,-5.451l-31.879,22.564Zm67.846,-18.811c4.045,1.122 7.817,2.488 11.313,4.095l-66.305,46.933c-0.383,-0.485 -0.752,-0.985 -1.109,-1.498c-1.579,-2.265 -3.037,-4.503 -4.351,-6.74l60.452,-42.79Zm18.153,7.762c4.464,2.776 8.36,6.042 11.683,9.787c2.781,3.133 4.122,8.051 4.224,13.69l-41.897,29.656c-11.467,0.946 -23.468,0.258 -34.44,-1.977c-2.999,-0.611 -5.462,-1.661 -7.548,-3.039l67.978,-48.117Zm15.064,32.582c-1.29,5.526 -4.251,10.059 -10.19,12.9c-4.674,2.236 -9.921,3.997 -15.515,5.295l25.705,-18.195Zm71.126,-5.657c-0.049,-0.85 -0.073,-1.714 -0.076,-2.592c-0.023,-5.995 1.309,-11.255 4.23,-14.546c10.678,-12.032 27.267,-19.117 49.6,-20.911l-53.754,38.049Zm66.414,-38.502c0.326,0.002 0.653,0.005 0.98,0.008c10.728,0.119 17.459,1.374 24.244,5.505c1.161,0.707 2.223,1.387 3.185,2.07l-74.868,52.993c-3.171,-1.003 -6.185,-2.174 -8.992,-3.517c-5.233,-2.503 -8.154,-6.32 -9.657,-10.973l65.108,-46.086Zm34.503,30.763c-0.836,3.895 -2.214,7.626 -4.025,11.309l-31.568,22.344c-4.271,0.456 -8.614,0.692 -12.949,0.706l48.542,-34.359Zm-12.21,24.424c-2.417,2.969 -5.4,5.374 -9.581,6.782l9.581,-6.782Z" style="fill:#d5f9ff;fill-opacity:0.25;"/><path d="M28.653,224.071c-1.496,-1.341 -2.78,-2.877 -3.942,-4.544c-7.565,-10.852 -12.36,-21.077 -11.686,-33.632c0.389,-7.255 3.766,-10.32 10.139,-14.2c6.785,-4.131 13.517,-5.386 24.244,-5.505c29.317,-0.323 50.492,6.991 63.24,21.356c2.246,2.531 3.553,6.226 4.027,10.525c-0.622,-1.614 -1.426,-3.034 -2.423,-4.205c-12.228,-14.365 -32.539,-21.679 -60.661,-21.356c-10.29,0.118 -16.747,1.373 -23.255,5.505c-6.113,3.88 -9.352,6.945 -9.726,14.2c-0.611,11.868 3.466,21.654 10.043,31.856Zm156.63,-26c0.473,-4.299 1.78,-7.994 4.026,-10.525c12.748,-14.365 33.923,-21.679 63.24,-21.356c10.728,0.119 17.459,1.374 24.244,5.505c6.373,3.88 9.75,6.945 10.14,14.2c0.673,12.555 -4.122,22.78 -11.687,33.632c-1.162,1.667 -2.446,3.203 -3.942,4.544c6.577,-10.202 10.654,-19.988 10.043,-31.856c-0.374,-7.255 -3.613,-10.32 -9.726,-14.2c-6.508,-4.132 -12.965,-5.387 -23.255,-5.505c-28.121,-0.323 -48.433,6.991 -60.661,21.356c-0.997,1.171 -1.801,2.591 -2.422,4.205Z" style="fill:#0296ad;fill-opacity:0.25;"/><path d="M38.535,228.915c-6.678,-1.36 -10.692,-4.895 -13.824,-9.388c-7.565,-10.852 -12.36,-21.077 -11.686,-33.632c0.389,-7.255 3.766,-10.32 10.139,-14.2c6.785,-4.131 13.517,-5.386 24.244,-5.505c29.317,-0.323 50.492,6.991 63.24,21.356c2.921,3.291 4.254,8.551 4.23,14.546c-0.036,9.212 -2.349,16.993 -11.039,21.149c-17.664,8.45 -43.514,10.113 -65.304,5.674Zm0.554,-2.715c21.204,4.32 46.365,2.764 63.555,-5.458c7.621,-3.646 9.432,-10.581 9.464,-18.661c0.02,-5.215 -0.991,-9.833 -3.532,-12.696c-12.311,-13.872 -32.826,-20.736 -61.138,-20.424c-10.095,0.111 -16.448,1.213 -22.833,5.101c-5.433,3.307 -8.482,5.797 -8.814,11.982c-0.639,11.92 4.01,21.595 11.193,31.899c2.746,3.939 6.248,7.064 12.105,8.257Zm222.333,2.715c-21.79,4.439 -47.64,2.776 -65.304,-5.674c-8.69,-4.156 -11.003,-11.937 -11.039,-21.149c-0.023,-5.995 1.309,-11.255 4.23,-14.546c12.748,-14.365 33.923,-21.679 63.24,-21.356c10.728,0.119 17.459,1.374 24.244,5.505c6.373,3.88 9.75,6.945 10.14,14.2c0.673,12.555 -4.122,22.78 -11.687,33.632c-3.132,4.493 -7.146,8.028 -13.824,9.388Zm-0.553,-2.715c5.856,-1.193 9.358,-4.318 12.104,-8.257c7.183,-10.304 11.832,-19.979 11.193,-31.899c-0.332,-6.185 -3.381,-8.675 -8.814,-11.982c-6.385,-3.888 -12.738,-4.99 -22.833,-5.101c-28.312,-0.312 -48.827,6.552 -61.138,20.424c-2.541,2.863 -3.552,7.481 -3.531,12.696c0.031,8.08 1.842,15.015 9.463,18.661c17.19,8.222 42.352,9.778 63.556,5.458Z" style="fill:#8e8e8e;"/><path d="M40.852,237.005c-8.438,-1.016 -14.722,-5.194 -20.304,-10.729c-7.263,-7.204 -13.741,-18.784 -16.176,-26.741c-5.397,-17.636 -0.054,-31.142 11.142,-36.067c9.165,-4.031 19.956,-5.374 30.95,-4.869c28.16,1.293 43.343,6.106 60.001,16.836c8.285,5.337 13.339,12.31 14.526,22.532c1.874,16.143 -5.933,26.998 -17.167,32.105c-9.635,4.38 -21.435,6.904 -32.27,7.841c-6.857,0.592 -23.441,-0.034 -30.702,-0.908Zm0.197,-1.638c7.181,0.864 23.582,1.488 30.363,0.902c10.652,-0.92 22.256,-3.393 31.729,-7.699c10.635,-4.834 17.985,-15.132 16.211,-30.413c-1.124,-9.685 -5.931,-16.279 -13.78,-21.335c-16.429,-10.582 -31.411,-15.299 -59.184,-16.575c-10.73,-0.493 -21.265,0.796 -30.21,4.731c-10.552,4.642 -15.315,17.454 -10.228,34.074c2.372,7.753 8.684,19.034 15.76,26.052c5.321,5.277 11.295,9.295 19.339,10.263Zm-2.843,-4.835c-7.168,-1.46 -11.487,-5.24 -14.848,-10.061c-7.793,-11.179 -12.675,-21.732 -11.981,-34.664c0.424,-7.893 3.996,-11.3 10.929,-15.521c7.023,-4.276 13.98,-5.623 25.084,-5.745c29.916,-0.33 51.483,7.251 64.492,21.91c3.147,3.546 4.671,9.188 4.646,15.648c-0.039,9.887 -2.651,18.169 -11.977,22.63c-17.946,8.585 -44.207,10.313 -66.345,5.803Zm0.329,-1.617c21.79,4.439 47.64,2.776 65.304,-5.674c8.69,-4.156 11.003,-11.937 11.039,-21.149c0.024,-5.995 -1.309,-11.255 -4.23,-14.546c-12.748,-14.365 -33.923,-21.679 -63.24,-21.356c-10.727,0.119 -17.459,1.374 -24.244,5.505c-6.373,3.88 -9.75,6.945 -10.139,14.2c-0.674,12.555 4.121,22.78 11.686,33.632c3.132,4.493 7.146,8.028 13.824,9.388Zm220.571,8.09c-7.262,0.874 -23.846,1.5 -30.703,0.908c-10.834,-0.937 -22.635,-3.461 -32.27,-7.841c-11.234,-5.107 -19.041,-15.962 -17.167,-32.105c1.187,-10.222 6.241,-17.195 14.526,-22.532c16.658,-10.73 31.841,-15.543 60.001,-16.836c10.994,-0.505 21.785,0.838 30.95,4.869c11.196,4.925 16.539,18.431 11.142,36.067c-2.435,7.957 -8.913,19.537 -16.176,26.741c-5.582,5.535 -11.866,9.713 -20.303,10.729Zm-0.197,-1.638c8.043,-0.968 14.017,-4.986 19.338,-10.263c7.077,-7.018 13.388,-18.299 15.761,-26.052c5.086,-16.62 0.323,-29.432 -10.229,-34.074c-8.945,-3.935 -19.48,-5.224 -30.21,-4.731c-27.773,1.276 -42.755,5.993 -59.184,16.575c-7.849,5.056 -12.655,11.65 -13.78,21.335c-1.774,15.281 5.576,25.579 16.211,30.413c9.473,4.306 21.077,6.779 31.73,7.699c6.78,0.586 23.181,-0.038 30.363,-0.902Zm2.842,-4.835c-22.138,4.51 -48.399,2.782 -66.345,-5.803c-9.326,-4.461 -11.938,-12.743 -11.977,-22.63c-0.025,-6.46 1.499,-12.102 4.646,-15.648c13.009,-14.659 34.576,-22.24 64.493,-21.91c11.103,0.122 18.06,1.469 25.083,5.745c6.933,4.221 10.505,7.628 10.929,15.521c0.694,12.932 -4.188,23.485 -11.981,34.664c-3.361,4.821 -7.68,8.601 -14.848,10.061Zm-0.329,-1.617c6.678,-1.36 10.692,-4.895 13.824,-9.388c7.565,-10.852 12.36,-21.077 11.687,-33.632c-0.39,-7.255 -3.767,-10.32 -10.14,-14.2c-6.785,-4.131 -13.516,-5.386 -24.244,-5.505c-29.317,-0.323 -50.492,6.991 -63.24,21.356c-2.921,3.291 -4.253,8.551 -4.23,14.546c0.036,9.212 2.349,16.993 11.039,21.149c17.664,8.45 43.514,10.113 65.304,5.674Z" style="fill:#00285e;fill-opacity:0.25;"/><path d="M12.261,170.867l-0.064,-0.056c0.66,-0.852 3.308,-4.267 11.453,-7.081c10.185,-3.518 24.452,-2.253 42.399,-0.133c-19.866,-0.871 -35.267,-1.396 -49.073,4.451c-2.833,1.2 -4.382,2.532 -4.715,2.819Zm64.557,63.279l-0.03,-0.161c9.963,-2.059 21.012,-4.504 28.627,-8.848c7.785,-4.441 9.664,-9.284 10.546,-11.426c-1.526,6.242 -5.428,11.771 -18.194,15.891c-7.205,2.325 -16.434,3.803 -20.949,4.544Zm-45.559,-3.847c-2.114,-1.285 -10.038,-6.001 -17.705,-18.243c-3.407,-5.44 -5.07,-11.008 -5.712,-13.27c-0.13,-0.46 0.154,0.174 3.123,5.094c5.358,8.877 10.332,19.086 20.294,26.419Zm256.437,-59.432c-0.333,-0.287 -1.882,-1.619 -4.715,-2.819c-13.806,-5.847 -29.207,-5.322 -49.073,-4.451c17.947,-2.12 32.214,-3.385 42.399,0.133c8.145,2.814 10.793,6.229 11.453,7.081l-0.064,0.056Zm-64.557,63.279c-4.515,-0.741 -13.744,-2.219 -20.949,-4.544c-12.766,-4.12 -16.667,-9.649 -18.194,-15.891c0.882,2.142 2.761,6.985 10.546,11.426c7.615,4.344 18.664,6.789 28.627,8.848l-0.03,0.161Zm45.559,-3.847c9.962,-7.333 14.936,-17.542 20.294,-26.419c2.969,-4.92 3.253,-5.554 3.123,-5.094c-0.642,2.262 -2.305,7.83 -5.712,13.27c-7.667,12.242 -15.591,16.958 -17.705,18.243Z" style="fill:#3e83e1;"/></g></g></svg>