<?xml version="1.0" encoding="UTF-8" standalone="no"?><!DOCTYPE svg PUBLIC "-//W3C//DTD SVG 1.1//EN" "http://www.w3.org/Graphics/SVG/1.1/DTD/svg11.dtd"><svg width="100%" height="100%" viewBox="0 0 300 345" version="1.1" xmlns="http://www.w3.org/2000/svg" xmlns:xlink="http://www.w3.org/1999/xlink" xml:space="preserve" xmlns:serif="http://www.serif.com/" style="fill-rule:evenodd;clip-rule:evenodd;stroke-linejoin:round;stroke-miterlimit:2;"><g id="TechGlasses"><g><path d="M21,159l-0,-13.79c-0,-10.602 8.608,-19.21 19.21,-19.21l72.58,-0c10.602,-0 19.21,8.608 19.21,19.21l-0,13.79l-14.599,-0l0,-13.79c0,-2.545 -2.066,-4.611 -4.611,-4.611l-72.58,-0c-2.545,-0 -4.611,2.066 -4.611,4.611l-0,13.79l-14.599,-0Z" style="fill:#6f8090;"/><path d="M113,126.001c10.436,0.112 18.887,8.563 18.999,18.999l-14.602,-0c-0.107,-2.378 -2.019,-4.29 -4.397,-4.397l0,-14.602Z" style="fill:#3f5263;"/><path d="M116.664,142.709c-0.305,-0.471 -0.693,-0.883 -1.145,-1.215l6.716,-13.012c3.39,1.919 6.14,4.839 7.847,8.357l-13.418,5.87Z" style="fill:#6f8090;"/><path d="M54,140.599l-6,-0l0,-14.599l6,-0l0,14.599Zm7,-14.599l6,-0l0,14.599l-6,-0l0,-14.599Zm71,23l-0,10l-14.599,-0l0,-10l14.599,0Z" style="fill:#4f5b66;"/><path d="M132,152l-0,7l-14.599,-0l0,-7l14.599,0Zm-96.401,-3.5l-0,10.5l-14.599,-0l-0,-10.5l14.599,-0Z" style="fill:#5c6e7f;"/><path d="M132,155l-0,4l-14.599,-0l0,-13.79c0,-2.545 -2.066,-4.611 -4.611,-4.611l-72.58,-0c-2.545,-0 -4.611,2.066 -4.611,4.611l-0,13.79l-14.599,-0l-0,-4l10.599,-0l-0,-9.79c-0,-5.545 5.066,-8.611 8.611,-8.611l72.58,-0c5.545,-0 9.611,2.066 9.611,8.611l0,9.79l9.599,-0Z" style="fill:#39434c;fill-opacity:0.5;"/></g><g><rect x="274" y="41" width="4" height="23" style="fill:#848484;"/><rect x="274" y="60" width="4" height="4" style="fill:#6d6d6d;"/><rect x="274" y="39" width="4" height="4" style="fill:#6d6d6d;"/><rect x="273" y="37" width="6" height="4" style="fill:#aaa;"/><rect x="273" y="66" width="6" height="40" style="fill:#848484;"/><rect x="273" y="92" width="6" height="14" style="fill:#6d6d6d;"/><rect x="273" y="64" width="6" height="5" style="fill:#6d6d6d;"/><rect x="272" y="62" width="8" height="4" style="fill:#aaa;"/><rect x="272" y="98" width="8" height="40" style="fill:#848484;"/><path d="M280,130l0,8l-8,0l0,-8l8,0Zm0,-33l0,5l-8,0l0,-5l8,0Z" style="fill:#6d6d6d;"/><rect x="271" y="95" width="10" height="4" style="fill:#aaa;"/><circle cx="276" cy="28.5" r="9.5" style="fill:#00ccc3;"/><circle cx="276.5" cy="28" r="8" style="fill:#13dcd4;"/><circle cx="277.5" cy="27" r="6" style="fill:#1ee4dc;"/><path d="M278.998,20.5c1.563,-0.276 3.281,0.844 3.833,2.5c0.552,1.656 -0.27,3.224 -1.833,3.5c-1.564,0.276 -3.282,-0.844 -3.834,-2.5c-0.552,-1.656 0.27,-3.224 1.834,-3.5Z" style="fill:#94fffb;fill-opacity:0.25;"/><path d="M281.487,28.023c0.909,-0.16 1.72,0.524 1.811,1.526c0.091,1.003 -0.573,1.947 -1.481,2.107c-0.909,0.16 -1.72,-0.523 -1.811,-1.526c-0.091,-1.002 0.573,-1.946 1.481,-2.107Z" style="fill:#94fffb;fill-opacity:0.25;"/></g><g><path d="M245,152l0,-10.313c0,-3.69 2.997,-6.687 6.687,-6.687l33.626,0c3.69,0 6.687,2.997 6.687,6.687l0,10.313l-47,0Z" style="fill:#6f8090;"/><path d="M246.92,137c1.213,-1.234 2.902,-2 4.767,-2l33.626,0c1.865,0 3.554,0.766 4.767,2l-43.16,-0Z" style="fill:#7d8e9e;"/><rect x="245" y="145" width="47" height="7" style="fill:#556371;"/><path d="M213,167l0,-12.706c0,-3.474 2.82,-6.294 6.294,-6.294l74.412,0c3.474,0 6.294,2.82 6.294,6.294l0,12.706l-87,0Z" style="fill:#6f8090;"/><path d="M213.931,151c1.108,-1.799 3.097,-3 5.363,-3l74.412,0c2.266,0 4.255,1.201 5.363,3l-85.138,-0Z" style="fill:#7d8e9e;"/></g><g><path d="M300,232.194l0,7.843c0,3.139 -1.247,6.149 -3.467,8.369c-2.219,2.22 -5.23,3.467 -8.369,3.467l-80.694,-0c-2.868,-0 -5.627,-1.102 -7.707,-3.077l-17.816,-16.923l-63.894,-0l-17.816,16.923c-2.08,1.975 -4.839,3.077 -7.707,3.077l-80.694,-0c-3.139,-0 -6.15,-1.247 -8.369,-3.467c-2.22,-2.22 -3.467,-5.23 -3.467,-8.369l0,-7.843c-0,3.139 1.247,6.149 3.467,8.369c2.219,2.219 5.23,3.466 8.369,3.466l80.694,0c2.868,0 5.627,-1.101 7.707,-3.077l17.816,-16.923l63.894,0l17.816,16.923c2.08,1.976 4.839,3.077 7.707,3.077l80.694,0c3.139,0 6.15,-1.247 8.369,-3.466c2.22,-2.22 3.467,-5.23 3.467,-8.369Z" style="fill:#1a3752;"/><path d="M49.607,244.029l42.923,0c2.868,0 5.627,-1.101 7.707,-3.077l17.816,-16.923l31.947,0l0,7.844l-31.947,-0l-17.816,16.923c-2.08,1.975 -4.839,3.077 -7.707,3.077l-42.923,-0l0,-7.844Zm181.776,0l56.781,0c3.139,0 6.15,-1.247 8.369,-3.466c2.22,-2.22 3.467,-5.23 3.467,-8.369l0,7.843c0,3.139 -1.247,6.149 -3.467,8.369c-2.219,2.22 -5.23,3.467 -8.369,3.467l-56.781,-0l0,-7.844Z" style="fill:#284560;"/><path d="M288.164,155.039c3.139,0 6.15,1.247 8.369,3.467c2.22,2.219 3.467,5.23 3.467,8.369l0,65.319c0,3.139 -1.247,6.149 -3.467,8.369c-2.219,2.219 -5.23,3.466 -8.369,3.466l-80.694,0c-2.868,0 -5.627,-1.101 -7.707,-3.077l-17.816,-16.923l-63.894,0l-17.816,16.923c-2.08,1.976 -4.839,3.077 -7.707,3.077l-80.694,0c-3.139,0 -6.15,-1.247 -8.369,-3.466c-2.22,-2.22 -3.467,-5.23 -3.467,-8.369l0,-65.319c-0,-3.139 1.247,-6.15 3.467,-8.369c2.219,-2.22 5.23,-3.467 8.369,-3.467l276.328,0Zm-270.328,19.825l-0,40.843c-0,1.429 0.567,2.799 1.577,3.809c1.01,1.01 2.38,1.577 3.808,1.577l68.612,-0l21.056,-20l74.222,-0l21.056,20l68.612,-0c1.428,-0 2.798,-0.567 3.808,-1.577c1.01,-1.01 1.577,-2.38 1.577,-3.809l0,-40.843c0,-2.974 -2.411,-5.385 -5.385,-5.385l-13.779,-0l0,6.524l-65,0l-6.09,-6.524l-168.689,-0c-2.974,-0 -5.385,2.411 -5.385,5.385Z" style="fill:#364d63;"/><path d="M267.049,155.039l21.115,0c3.139,0 6.15,1.247 8.369,3.467c2.22,2.219 3.467,5.23 3.467,8.369l0,65.319c0,3.139 -1.247,6.149 -3.467,8.369c-2.219,2.219 -5.23,3.466 -8.369,3.466l-56.789,0l0,-22.936l45.404,-0c1.428,-0 2.798,-0.567 3.808,-1.577c1.01,-1.01 1.577,-2.38 1.577,-3.809l0,-40.843c0,-2.974 -2.411,-5.385 -5.385,-5.385l-9.73,-0l0,-14.44Zm-117.049,14.44l-100.393,-0l0,-14.44l100.393,0l-0,14.44Zm-0,54.55l-31.947,0l-17.816,16.923c-2.08,1.976 -4.839,3.077 -7.707,3.077l-42.923,0l0,-22.936l42.226,-0l21.056,-20l37.111,-0l-0,22.936Z" style="fill:#4a6177;"/><path d="M282.164,208.249l0,-33.385c0,-2.974 -2.411,-5.385 -5.385,-5.385l-9.73,-0l0,-14.44l21.115,0c3.139,0 6.15,1.247 8.369,3.467c2.22,2.219 3.467,5.23 3.467,8.369l-0,41.374l-17.836,0Z" style="fill:#536a7f;"/><path d="M228.461,235.019c0.878,0 1.59,0.713 1.59,1.59c-0,0.877 -0.712,1.589 -1.59,1.589c-0.877,0 -1.589,-0.712 -1.589,-1.589c-0,-0.877 0.712,-1.59 1.589,-1.59Zm0,10.641c0.878,-0 1.59,0.712 1.59,1.589c-0,0.877 -0.712,1.59 -1.59,1.59c-0.877,-0 -1.589,-0.713 -1.589,-1.59c-0,-0.877 0.712,-1.589 1.589,-1.589Zm63.547,-43.064c0.877,0 1.589,0.712 1.589,1.59c0,0.877 -0.712,1.589 -1.589,1.589c-0.878,0 -1.59,-0.712 -1.59,-1.589c0,-0.878 0.712,-1.59 1.59,-1.59Zm-21.427,-45.65c0.878,0 1.59,0.713 1.59,1.59c-0,0.877 -0.712,1.589 -1.59,1.589c-0.877,0 -1.589,-0.712 -1.589,-1.589c-0,-0.877 0.712,-1.59 1.589,-1.59Zm-123.795,60.063c0.877,0 1.59,0.713 1.59,1.59c-0,0.877 -0.713,1.589 -1.59,1.589c-0.877,0 -1.589,-0.712 -1.589,-1.589c-0,-0.877 0.712,-1.59 1.589,-1.59Zm0,9.006c0.877,-0 1.59,0.712 1.59,1.589c-0,0.878 -0.713,1.59 -1.59,1.59c-0.877,-0 -1.589,-0.712 -1.589,-1.59c-0,-0.877 0.712,-1.589 1.589,-1.589Zm-101.862,19.225c0.877,0 1.59,0.712 1.59,1.59c-0,0.877 -0.713,1.589 -1.59,1.589c-0.877,0 -1.589,-0.712 -1.589,-1.589c-0,-0.878 0.712,-1.59 1.589,-1.59Zm0,-9.265c0.877,0 1.59,0.712 1.59,1.59c-0,0.877 -0.713,1.589 -1.59,1.589c-0.877,0 -1.589,-0.712 -1.589,-1.589c-0,-0.878 0.712,-1.59 1.589,-1.59Zm0,-78.033c0.877,-0 1.59,0.712 1.59,1.59c-0,0.877 -0.713,1.589 -1.59,1.589c-0.877,0 -1.589,-0.712 -1.589,-1.589c-0,-0.878 0.712,-1.59 1.589,-1.59Zm100.273,-0c0.877,-0 1.589,0.712 1.589,1.59c0,0.877 -0.712,1.589 -1.589,1.589c-0.878,0 -1.59,-0.712 -1.59,-1.589c0,-0.878 0.712,-1.59 1.59,-1.59Z" style="fill:#001020;"/><path d="M35,231l-0,25.029l-23.164,0c-3.139,0 -6.15,-1.247 -8.369,-3.466c-2.22,-2.22 -3.467,-5.23 -3.467,-8.369l0,-13.194l35,0Z" style="fill:#bfbfbf;"/><path d="M31,169.479l-7.779,-0c-2.974,-0 -5.385,2.411 -5.385,5.385l-0,40.843c-0,1.429 0.567,2.799 1.577,3.809c1.01,1.01 2.38,1.577 3.808,1.577l11.779,-0l-0,26.936l-23.164,0c-3.139,0 -6.15,-1.247 -8.369,-3.466c-2.22,-2.22 -3.467,-5.23 -3.467,-8.369l0,-73.319c-0,-3.139 1.247,-6.15 3.467,-8.369c2.219,-2.22 5.23,-3.467 8.369,-3.467l19.164,0l0,18.44Z" style="fill:#dbdbdb;"/><path d="M0,182l0,-19.125c-0,-0.291 0.011,-0.581 0.032,-0.869l8.875,8.461l-0,11.533l-8.907,0Zm8.907,6l-0,14l-8.907,0l0,-14l8.907,0Zm-0,20l-0,13.899l-8.907,9.101l0,-23l8.907,0Z" style="fill:#9d9d9d;"/><path d="M6.907,180l-0,-9.533l-6.907,-6.585l0,-1.007c-0,-0.291 0.011,-0.581 0.032,-0.869l8.875,8.461l-0,11.533l-8.907,0l0,-2l6.907,0Zm-0,10l-6.907,0l0,-2l8.907,0l-0,14l-8.907,0l0,-2l6.907,0l-0,-10Zm-6.907,18l8.907,0l-0,13.899l-8.907,9.101l0,-2.044l6.907,-7.057l-0,-11.899l-6.907,0l0,-2Z" style="fill:#bfbfbf;"/><path d="M276.779,161.976c5.183,-0 9.385,4.202 9.385,9.385l0,52.346c0,2.49 -0.989,4.877 -2.749,6.637c-1.76,1.76 -4.147,2.749 -6.636,2.749l-69.309,-0c-0.577,-0 -1.133,-0.222 -1.552,-0.62l-20.404,-19.38l-71.028,-0l-20.404,19.38c-0.419,0.398 -0.975,0.62 -1.552,0.62l-69.309,-0c-2.489,-0 -4.876,-0.989 -6.636,-2.749c-1.76,-1.76 -2.749,-4.147 -2.749,-6.637l-0,-52.346c-0,-5.183 4.202,-9.385 9.385,-9.385l253.558,-0Zm-258.943,12.888l-0,40.843c-0,1.429 0.567,2.799 1.577,3.809c1.01,1.01 2.38,1.577 3.808,1.577l68.612,-0l21.056,-20l74.222,-0l21.056,20l68.612,-0c1.428,-0 2.798,-0.567 3.808,-1.577c1.01,-1.01 1.577,-2.38 1.577,-3.809l0,-40.843c0,-2.974 -2.411,-5.385 -5.385,-5.385l-13.779,-0l0,6.524l-65,0l-6.09,-6.524l-168.689,-0c-2.974,-0 -5.385,2.411 -5.385,5.385Z" style="fill:#768390;"/><path d="M17.836,174.864c-0,-2.974 2.411,-5.385 5.385,-5.385l168.689,-0l6.09,6.524l65,0l0,-6.524l13.779,-0c2.974,-0 5.385,2.411 5.385,5.385l0,40.843c0,1.429 -0.567,2.799 -1.577,3.809c-1.01,1.01 -2.38,1.577 -3.808,1.577l-68.612,-0l-21.056,-20l-74.222,-0l-21.056,20l-68.612,-0c-1.428,-0 -2.798,-0.567 -3.808,-1.577c-1.01,-1.01 -1.577,-2.38 -1.577,-3.809l-0,-40.843Z" style="fill:#00ddb8;fill-opacity:0.5;"/><path d="M23.283,169.479l8.739,-0l-0,51.614l-8.739,-0l-0,-51.614Zm17.478,-0l8.739,-0l0,51.614l-8.739,-0l0,-51.614Zm17.478,-0l8.739,-0l0,51.614l-8.739,-0l0,-51.614Zm17.479,-0l8.739,-0l-0,51.614l-8.739,-0l-0,-51.614Zm17.478,-0l8.739,-0l-0,42.019l-8.739,8.3l-0,-50.319Zm17.478,-0l8.739,-0l0,31.614l-6.524,-0l-2.215,2.104l-0,-33.718Zm17.478,-0l8.739,-0l0,31.614l-8.739,-0l0,-31.614Zm17.478,-0l8.74,-0l-0,31.614l-8.74,-0l0,-31.614Zm17.479,-0l8.739,-0l-0,31.614l-8.739,-0l-0,-31.614Zm17.478,-0l8.739,-0l0,33.718l-2.215,-2.104l-6.524,-0l-0,-31.614Zm17.478,6.524l8.739,0l0,43.795l-8.739,-8.3l0,-35.495Zm17.478,0l8.739,0l0,45.09l-8.739,-0l0,-45.09Zm17.479,0l8.739,0l-0,45.09l-8.739,-0l-0,-45.09Zm17.478,0l8.739,0l-0,45.09l-8.739,-0l-0,-45.09Zm17.478,-6.524l8.739,-0l0,51.614l-8.739,-0l0,-51.614Z" style="fill:#00ddb8;fill-opacity:0.25;"/><path d="M282.164,178.218l0,8.739l-264.328,0l-0,-8.739l264.328,-0Zm0,17.478l0,8.739l-91.534,0l-3.519,-3.342l-74.222,-0l-3.519,3.342l-91.534,0l-0,-8.739l264.328,0Zm0,17.478l0,2.533c0,1.429 -0.567,2.799 -1.577,3.809c-1.01,1.01 -2.38,1.577 -3.808,1.577l-68.612,-0l-8.337,-7.919l82.334,0Zm-181.994,0l-8.337,7.919l-68.612,-0c-1.428,-0 -2.798,-0.567 -3.808,-1.577c-1.01,-1.01 -1.577,-2.38 -1.577,-3.809l-0,-2.533l82.334,0Z" style="fill:#00ddb8;fill-opacity:0.25;"/><path d="M276.779,161.976c5.183,-0 9.385,4.202 9.385,9.385l0,44.346c0,2.49 -0.989,4.877 -2.749,6.637c-1.76,1.76 -4.147,2.749 -6.636,2.749l-69.309,-0c-0.577,-0 -1.133,-0.222 -1.552,-0.62l-20.404,-19.38l-71.028,-0l-20.404,19.38c-0.419,0.398 -0.975,0.62 -1.552,0.62l-69.309,-0c-2.489,-0 -4.876,-0.989 -6.636,-2.749c-1.76,-1.76 -2.749,-4.147 -2.749,-6.637l-0,-44.346c-0,-5.183 4.202,-9.385 9.385,-9.385l253.558,-0Zm-84.869,4l-168.689,-0c-2.974,-0 -5.385,2.411 -5.385,5.385l-0,44.346c-0,1.429 0.567,2.799 1.577,3.809c1.01,1.01 2.38,1.577 3.808,1.577l68.612,-0l21.056,-20l74.222,-0l21.056,20l68.612,-0c1.428,-0 2.798,-0.567 3.808,-1.577c1.01,-1.01 1.577,-2.38 1.577,-3.809l0,-44.346c0,-2.974 -2.411,-5.385 -5.385,-5.385l-13.779,-0l0,6.524l-65,0l-6.09,-6.524Z" style="fill:#8d9195;"/><path d="M282.164,174.864c0,-2.974 -2.411,-5.385 -5.385,-5.385l-13.779,-0l0,-3.503l13.779,-0c2.974,-0 5.385,2.411 5.385,5.385l0,3.503Zm-19.164,-2.364l0,3.503l-65,0l-6.09,-6.524l-168.689,-0c-2.974,-0 -5.385,2.411 -5.385,5.385l-0,-3.503c-0,-2.974 2.411,-5.385 5.385,-5.385l168.689,-0l6.09,6.524l65,0Z" style="fill:#5a6d7f;"/><rect x="200" y="165" width="60" height="5" style="fill:#5a6d7f;"/><rect x="200" y="166" width="60" height="4" style="fill:#03d5b3;"/><path d="M205,166l0,4l-5,0l0,-4l5,0Zm8,0l0,4l-5,0l0,-4l5,0Zm8,0l0,4l-5,0l0,-4l5,0Zm8,0l0,4l-5,0l0,-4l5,0Zm8,0l0,4l-5,0l0,-4l5,0Zm8,0l0,4l-5,0l0,-4l5,0Zm8,0l0,4l-5,0l0,-4l5,0Zm7,0l0,4l-4,0l0,-4l4,0Z" style="fill:#09fcf9;"/></g></g></svg>