<?xml version="1.0" encoding="UTF-8" standalone="no"?><!DOCTYPE svg PUBLIC "-//W3C//DTD SVG 1.1//EN" "http://www.w3.org/Graphics/SVG/1.1/DTD/svg11.dtd"><svg width="100%" height="100%" viewBox="0 0 1250 1438" version="1.1" xmlns="http://www.w3.org/2000/svg" xmlns:xlink="http://www.w3.org/1999/xlink" xml:space="preserve" xmlns:serif="http://www.serif.com/" style="fill-rule:evenodd;clip-rule:evenodd;stroke-linejoin:round;stroke-miterlimit:2;"><g id="Glasseslaser"><rect x="0" y="887.943" width="427.745" height="91.484" style="fill:#350005;"/><rect x="826.44" y="887.943" width="423.56" height="91.484" style="fill:#350005;"/><path d="M795.946,965.327l-0,-89.369l-341.892,-0l0,89.369l-454.054,-0l0,-268.394l1250,-0l0,268.394l-454.054,-0Z" style="fill:#5b0009;"/><rect x="0" y="730.331" width="1250" height="66.797" style="fill:#83000d;"/><rect x="0" y="854.544" width="1250" height="66.797" style="fill:#83000d;"/><path d="M1002.55,1030.54l0,-47.419c6.208,0.674 12.518,-0.501 18.917,-0.501c87.524,-0 158.583,-64.72 158.583,-144.436c0,-79.716 -71.059,-144.436 -158.583,-144.436c-6.399,0 -12.303,-0.969 -18.917,-1.208l0,-46.712c6.226,-0.503 12.539,-0.76 18.917,-0.76c117.023,0 212.032,86.533 212.032,193.116c-0,106.584 -95.009,193.116 -212.032,193.116c-6.378,-0 -12.691,-0.257 -18.917,-0.76Zm-755.108,0c-6.226,0.503 -12.539,0.76 -18.917,0.76c-117.023,-0 -212.032,-86.532 -212.032,-193.116c0,-106.583 95.009,-193.116 212.032,-193.116c6.378,0 12.691,0.257 18.917,0.76l-0,46.712c-6.614,0.239 -12.518,1.208 -18.917,1.208c-87.524,0 -158.583,64.72 -158.583,144.436c-0,79.716 71.059,144.436 158.583,144.436c6.399,-0 12.709,1.175 18.917,0.501l-0,47.419Z"/><path d="M505.402,946.165c-38.014,53.223 -99.392,84.81 -164.796,84.81c-49.253,0.322 -92.831,0.322 -92.831,0.322c-0.11,0 -0.22,-0 -0.329,-0c-106.584,-0 -193.116,-86.532 -193.116,-193.116c-0,-106.583 86.532,-193.116 193.116,-193.116c0.109,0 0.219,0 0.329,0l751.506,0l0,0.027c1.089,-0.018 2.18,-0.027 3.273,-0.027c106.584,0 193.116,86.533 193.116,193.116c0,106.584 -86.532,193.116 -193.116,193.116c-1.093,-0 -2.184,-0.009 -3.273,-0.027l0,0.027c0,-0 -41.989,-0 -89.887,-0c-65.508,-0 -126.983,-31.638 -165.056,-84.946c-26.37,-37.515 -70.032,-61.872 -119.338,-61.872c-49.306,-0 -92.968,24.357 -119.598,61.686Z" style="fill:#606060;"/><path d="M1195.25,825.32c0.28,4.251 0.422,8.54 0.422,12.861c0,106.584 -86.532,193.116 -193.116,193.116c-1.093,-0 -2.184,-0.009 -3.273,-0.027l0,0.027l-89.887,-0c-65.508,-0 -126.983,-31.638 -165.056,-84.946c-26.37,-37.515 -70.032,-61.872 -119.338,-61.872c-49.306,-0 -92.968,24.357 -119.598,61.686c-38.014,53.223 -99.392,84.81 -164.796,84.81c-49.253,0.322 -92.831,0.322 -92.831,0.322c-0.11,0 -0.22,-0 -0.329,-0c-106.584,-0 -193.116,-86.532 -193.116,-193.116c-0,-4.321 0.142,-8.61 0.422,-12.861c6.628,100.597 90.432,180.255 192.694,180.255c0.109,-0 0.219,-0 0.329,-0c-0,-0 43.578,-0 92.831,-0.322c65.404,0 126.782,-31.587 164.796,-84.811c26.63,-37.328 70.292,-61.685 119.598,-61.685c49.306,-0 92.968,24.357 119.338,61.872c38.073,53.307 99.548,84.945 165.056,84.946l89.887,-0l0,-0.028c1.089,0.019 2.18,0.028 3.273,0.028c102.262,-0 186.066,-79.658 192.694,-180.255Z" style="fill:#454545;"/><path d="M87.223,805.043c14.325,-45.678 57.014,-78.854 107.391,-78.854l860.772,-0c50.377,-0 93.066,33.176 107.391,78.854l5.133,-0l-0,35.507l-0.015,-0c-0.983,61.257 -51.019,110.686 -112.509,110.686l-860.772,-0c-61.49,-0 -111.526,-49.429 -112.509,-110.686l-0.015,-0l0,-35.507l5.133,-0Z" style="fill:#7b7b7b;"/><path d="M1167.91,811.928c-0,-62.104 -50.42,-112.524 -112.524,-112.524l-860.772,0c-62.104,0 -112.524,50.42 -112.524,112.524c0,62.103 50.42,112.523 112.524,112.523l860.772,0c62.104,0 112.524,-50.42 112.524,-112.523Z" style="fill:#979797;"/><path d="M1103.74,811.928c0,-35.34 -28.691,-64.03 -64.03,-64.03l-829.414,-0c-35.339,-0 -64.03,28.69 -64.03,64.03c-0,35.339 28.691,64.03 64.03,64.03l829.414,-0c35.339,-0 64.03,-28.691 64.03,-64.03Z" style="fill:#c8110c;"/><path d="M1070.27,816.081c-0,-12.491 -10.141,-22.631 -22.632,-22.631l-771.891,-0c-12.49,-0 -22.631,10.14 -22.631,22.631c0,12.49 10.141,22.631 22.631,22.631l771.891,0c12.491,0 22.632,-10.141 22.632,-22.631Z" style="fill:#f8100a;"/><path d="M1103.05,821.311c-4.545,-30.898 -31.194,-54.647 -63.346,-54.647l-829.414,-0c-32.152,-0 -58.801,23.749 -63.346,54.647c-0.451,-3.063 -0.684,-6.196 -0.684,-9.383c-0,-35.34 28.691,-64.03 64.03,-64.03l829.414,-0c35.339,-0 64.03,28.69 64.03,64.03c0,3.187 -0.233,6.32 -0.684,9.383Z" style="fill:#7b7b7b;"/></g></svg>