<?xml version="1.0" encoding="UTF-8" standalone="no"?><!DOCTYPE svg PUBLIC "-//W3C//DTD SVG 1.1//EN" "http://www.w3.org/Graphics/SVG/1.1/DTD/svg11.dtd"><svg width="100%" height="100%" viewBox="0 0 300 345" version="1.1" xmlns="http://www.w3.org/2000/svg" xmlns:xlink="http://www.w3.org/1999/xlink" xml:space="preserve" xmlns:serif="http://www.serif.com/" style="fill-rule:evenodd;clip-rule:evenodd;stroke-linejoin:round;stroke-miterlimit:2;"><g id="fireGlasses"><path d="M6.542,193.57c-0.424,-1.162 -1.067,-2.142 -1.593,-2.968l0,-5.113c1.019,1.603 2.482,3.781 1.922,6.75c-0.089,0.473 -0.2,0.915 -0.329,1.331Zm16.424,4.347c-0.062,-0.159 -0.13,-0.32 -0.204,-0.48c-2.161,-4.726 -4.602,-5.603 -5.083,-11.619c-0.026,-0.324 -0.037,-0.65 -0.034,-0.977l0,-4.871c0.003,0.246 0.014,0.492 0.034,0.735c0.481,6.016 2.922,6.893 5.083,11.619c0.954,2.085 0.997,4.099 0.204,5.593Zm13.727,-22.921c-0.221,-2.38 -0.642,-4.995 -0.988,-7.547c-0.484,-3.582 -0.631,-6.936 -0.464,-10.052c0.081,1.595 0.235,3.242 0.464,4.94c0.622,4.595 1.491,9.394 0.988,12.659Zm34.724,-50.378l-0,5.112c-3.395,2.812 -5.903,6.045 -6.474,11.47c-0.765,-8.693 2.128,-12.983 6.474,-16.582Zm14.698,42.141c-0.13,-1.737 -0.381,-3.487 -0.73,-5.247l0,-5.113c0.693,3.503 1.004,6.964 0.73,10.36Zm23.192,9.034l-0,5.112c-0.051,0.168 -0.098,0.333 -0.142,0.497c-0.515,-1.742 -0.493,-3.529 0.142,-5.609Zm11.708,29.372l0.001,-0l0,5.015l-0.003,0.002c0.108,6.523 -2.548,13.157 -7.52,18.78c-7.815,8.837 -19.545,13.256 -32.741,13.256l-55.232,0c-13.042,0 -25.52,-9.818 -25.52,-22.86c-0.049,-1.322 -0.047,-2.528 -0,-3.632l-0,-1.481c-0,13.042 12.478,22.861 25.52,22.861l55.232,-0c13.196,-0 24.926,-4.419 32.741,-13.257c4.948,-5.595 7.601,-12.191 7.522,-18.684Zm172.408,-11.595c-0.13,-0.416 -0.241,-0.858 -0.33,-1.331c-0.56,-2.969 0.903,-5.147 1.922,-6.75l-0,5.113c-0.525,0.826 -1.169,1.806 -1.592,2.968Zm-16.425,4.347c-0.793,-1.494 -0.75,-3.508 0.204,-5.593c2.161,-4.726 4.602,-5.603 5.083,-11.619c0.02,-0.243 0.031,-0.489 0.034,-0.735l-0,4.871c0.003,0.327 -0.008,0.653 -0.034,0.977c-0.481,6.016 -2.922,6.893 -5.083,11.619c-0.074,0.16 -0.142,0.321 -0.204,0.48Zm-13.727,-22.921c-0.503,-3.265 0.366,-8.064 0.988,-12.659c0.229,-1.698 0.383,-3.345 0.464,-4.94c0.167,3.116 0.02,6.47 -0.464,10.052c-0.346,2.552 -0.767,5.167 -0.988,7.547Zm-34.724,-50.378c4.346,3.599 7.239,7.889 6.474,16.582c-0.57,-5.425 -3.079,-8.658 -6.474,-11.47l0,-5.112Zm-14.698,42.141c-0.274,-3.396 0.037,-6.857 0.73,-10.36l-0,5.113c-0.348,1.76 -0.6,3.51 -0.73,5.247Zm-23.192,9.034c0.635,2.08 0.657,3.867 0.142,5.609c-0.043,-0.164 -0.091,-0.329 -0.142,-0.497l0,-5.112Zm-11.708,29.372c-0.079,6.493 2.574,13.089 7.522,18.684c7.815,8.838 19.545,13.257 32.741,13.257l55.232,-0c13.042,-0 25.52,-9.819 25.52,-22.861l0,1.481c0.047,1.104 0.049,2.31 0,3.632c0,13.042 -12.478,22.86 -25.52,22.86l-55.232,0c-13.196,0 -24.926,-4.419 -32.741,-13.256c-4.972,-5.623 -7.627,-12.257 -7.52,-18.78l-0.003,-0.002l-0,-5.015l0.001,-0Z" style="fill:#b74600;fill-opacity:0.75;"/><path d="M80.752,237.106l-55.232,-0c-13.042,-0 -25.52,-9.819 -25.52,-22.861c-0.558,-14.996 5.554,-15.011 6.871,-22.006c0.56,-2.969 -0.903,-5.147 -1.922,-6.75c3.254,0.836 5.904,2.074 7.561,6.493c1.333,3.555 0.009,8.494 5.724,8.416c4.723,-0.065 6.424,-3.928 4.528,-8.074c-2.161,-4.726 -4.602,-5.603 -5.083,-11.619c-0.38,-4.756 2.47,-10.099 5.767,-13.242c0.111,4.422 1.969,12.224 9.654,11.534c5.426,-0.488 3.66,-8.867 2.605,-16.66c-3.611,-26.688 11.529,-40.727 35.712,-37.719c-4.457,3.691 -7.386,8.108 -6.408,17.258c1.604,11.717 18.691,18.224 18.838,33.789c2.791,-6.169 2.849,-12.641 1.538,-19.266c7.588,5.894 12.19,14.112 12.602,25.588c0.127,3.543 3.807,3.996 4.656,0.939c1.118,-4.026 3.048,-6.167 6.664,-7.133c-1.573,5.156 0.618,8.512 5.425,13.84c9.205,10.202 7.878,23.906 -1.239,34.216c-7.815,8.838 -19.545,13.257 -32.741,13.257Zm138.46,-0c-13.196,-0 -24.926,-4.419 -32.741,-13.257c-9.117,-10.31 -10.443,-24.014 -1.239,-34.216c4.807,-5.328 6.998,-8.684 5.425,-13.84c3.616,0.966 5.546,3.107 6.664,7.133c0.849,3.057 4.529,2.604 4.656,-0.939c0.412,-11.476 5.014,-19.694 12.602,-25.588c-1.311,6.625 -1.253,13.097 1.538,19.266c0.147,-15.565 17.234,-22.072 18.838,-33.789c0.978,-9.15 -1.951,-13.567 -6.408,-17.258c24.183,-3.008 39.323,11.031 35.712,37.719c-1.055,7.793 -2.821,16.172 2.605,16.66c7.686,0.69 9.543,-7.112 9.654,-11.534c3.297,3.143 6.147,8.486 5.767,13.242c-0.481,6.016 -2.922,6.893 -5.083,11.619c-1.896,4.146 -0.195,8.009 4.528,8.074c5.715,0.078 4.391,-4.861 5.724,-8.416c1.658,-4.419 4.307,-5.657 7.561,-6.493c-1.019,1.603 -2.482,3.781 -1.922,6.75c1.317,6.995 7.429,7.01 6.871,22.006c0,13.042 -12.478,22.861 -25.52,22.861l-55.232,-0Z" style="fill:url(#_Linear1);"/><path d="M63.232,124.259c2.591,-0.114 5.325,0.003 8.185,0.359c-4.457,3.691 -7.386,8.108 -6.408,17.258c0.034,0.25 0.076,0.498 0.124,0.743l-28.292,29.848c-0.039,-2.977 -0.66,-6.613 -1.136,-10.13c-0.404,-2.99 -0.573,-5.821 -0.521,-8.487l28.048,-29.591Zm12.383,33.793c2.261,2.576 4.425,5.296 5.966,8.394l-65.386,68.982c-3.297,-1.21 -6.333,-3.034 -8.863,-5.337l68.283,-72.039Zm10.501,3.61c-0.129,-1.742 -0.381,-3.497 -0.731,-5.263c1.108,0.861 2.152,1.771 3.129,2.733l-2.398,2.53Zm12.56,22.432c1.137,1.438 3.335,1.106 3.967,-1.168c1.118,-4.026 3.048,-6.167 6.664,-7.133c-1.573,5.156 0.618,8.512 5.425,13.84c2.726,3.022 4.529,6.351 5.479,9.809l-35.577,37.533c-1.278,0.087 -2.573,0.131 -3.882,0.131l-32.324,-0l50.248,-53.012Zm-98.7,27.266c0.283,-12.146 5.668,-12.607 6.895,-19.121c0.542,-2.875 -0.812,-5.008 -1.824,-6.595l0.098,-0.104c3.164,0.836 5.741,2.112 7.365,6.442c0.597,1.592 0.661,3.461 1.063,5.033l-13.597,14.345Zm21.028,-22.185c-1.573,-2.418 -2.973,-4.069 -3.325,-8.47c-0.38,-4.756 2.47,-10.099 5.767,-13.242c0.099,3.924 1.573,10.51 7.275,11.461l-9.717,10.251Zm241.771,-47.137c1.976,5.576 2.555,12.381 1.484,20.299c-1.055,7.793 -2.821,16.172 2.605,16.66c7.686,0.69 9.543,-7.112 9.654,-11.534c3.297,3.143 6.147,8.486 5.767,13.242c-0.254,3.183 -1.057,4.928 -2.077,6.565l-47.239,49.836l-13.757,-0c-13.196,-0 -24.926,-4.419 -32.741,-13.257c-0.201,-0.227 -0.398,-0.456 -0.592,-0.687l76.896,-81.124Zm32.478,55.189c1.799,2.724 4.041,5.313 4.61,11.819l-26.597,28.06l-15.812,-0l37.799,-39.879Z" style="fill:#ffd48c;fill-opacity:0.25;"/><path d="M184.999,210.177l-70.016,0c-1.883,0 -3.418,-1.497 -3.478,-3.365l-0.002,-0l-0,-3.128l3.48,-0l-0,-0.466l70.016,-0l0,0.466l3.48,-0l0,3.128l-0.002,-0c-0.06,1.868 -1.595,3.365 -3.478,3.365Z" style="fill:#848484;"/><path d="M184.999,207.182l-70.016,-0c-1.921,-0 -3.48,-1.559 -3.48,-3.48c-0,-1.921 1.559,-3.48 3.48,-3.48l70.016,0c1.921,0 3.48,1.559 3.48,3.48c0,1.921 -1.559,3.48 -3.48,3.48Z" style="fill:#a9a9a9;"/><rect x="125.731" y="200.222" width="48.502" height="6.96" style="fill:#b8b8b8;"/><path d="M6.074,218.73l0,-1.317l6.452,0l0,1.317l-0.001,-0c-0.056,1.731 -1.48,3.12 -3.225,3.12c-1.745,-0 -3.168,-1.389 -3.224,-3.12l-0.002,-0Zm6.452,-11.323c0,0.016 0,0.032 0,0.048c0,1.781 -1.445,3.226 -3.226,3.226c-1.78,0 -3.226,-1.445 -3.226,-3.226c0,-0.016 0,-0.032 0.001,-0.048l-0.001,-1.141l6.452,0l0,1.141Zm274.948,11.323l-0,-1.317l6.452,0l-0,1.317l-0.002,-0c-0.056,1.731 -1.479,3.12 -3.224,3.12c-1.745,-0 -3.169,-1.389 -3.225,-3.12l-0.001,-0Zm6.451,-11.323c0.001,0.016 0.001,0.032 0.001,0.048c-0,1.781 -1.446,3.226 -3.226,3.226c-1.781,0 -3.226,-1.445 -3.226,-3.226c-0,-0.016 -0,-0.032 -0,-0.048l-0,-1.141l6.452,0l-0.001,1.141Z" style="fill:#848484;"/><path d="M9.3,214.204c1.781,0 3.226,1.446 3.226,3.226c0,1.781 -1.445,3.226 -3.226,3.226c-1.78,0 -3.226,-1.445 -3.226,-3.226c0,-1.78 1.446,-3.226 3.226,-3.226Zm0,-11.169c1.781,0 3.226,1.446 3.226,3.226c0,1.781 -1.445,3.226 -3.226,3.226c-1.78,0 -3.226,-1.445 -3.226,-3.226c0,-1.78 1.446,-3.226 3.226,-3.226Zm281.4,11.169c1.78,0 3.226,1.446 3.226,3.226c-0,1.781 -1.446,3.226 -3.226,3.226c-1.781,0 -3.226,-1.445 -3.226,-3.226c-0,-1.78 1.445,-3.226 3.226,-3.226Zm-0,-11.169c1.78,0 3.226,1.446 3.226,3.226c-0,1.781 -1.446,3.226 -3.226,3.226c-1.781,0 -3.226,-1.445 -3.226,-3.226c-0,-1.78 1.445,-3.226 3.226,-3.226Z" style="fill:#a9a9a9;"/></g><defs><linearGradient id="_Linear1" x1="0" y1="0" x2="1" y2="0" gradientUnits="userSpaceOnUse" gradientTransform="matrix(6.8088e-15,111.196,-103.697,6.34962e-15,60.4903,125.909)"><stop offset="0" style="stop-color:#ff9f00;stop-opacity:0.75"/><stop offset="1" style="stop-color:#fd6304;stop-opacity:0.75"/></linearGradient></defs></svg>