<?xml version="1.0" encoding="UTF-8" standalone="no"?><!DOCTYPE svg PUBLIC "-//W3C//DTD SVG 1.1//EN" "http://www.w3.org/Graphics/SVG/1.1/DTD/svg11.dtd"><svg width="100%" height="100%" viewBox="0 0 300 345" version="1.1" xmlns="http://www.w3.org/2000/svg" xmlns:xlink="http://www.w3.org/1999/xlink" xml:space="preserve" xmlns:serif="http://www.serif.com/" style="fill-rule:evenodd;clip-rule:evenodd;stroke-linejoin:round;stroke-miterlimit:2;"><g id="glasses_10"><path d="M14.337,162.359c46.785,-6.385 81.586,3.377 103.968,29.869c-4.922,30.389 -26.129,52.957 -55.782,49.982c-33.995,-8.117 -49.833,-41.495 -48.186,-79.851Z" style="fill:#d9e5f4;fill-opacity:0.5;"/><path d="M2.358,173.403c-1.991,-13.989 -0.027,-17.108 13.6,-17.54c38.702,-1.225 73.05,4.715 103.84,24.276c4.251,5.007 4.729,11.162 1.184,18.542c-9.237,29.966 -26.513,47.305 -52.715,46.708c-30.724,-0.7 -54.357,-30.221 -65.909,-71.986Zm18.596,16.221c-2.377,-15.288 3.551,-25.283 17.953,-25.737c21.781,-0.688 44.078,2.517 62.438,13.981c11.971,7.475 15.001,17.91 9.533,31.457c-6.916,17.132 -23.022,31.557 -43.373,31.139c-24.052,-0.493 -42.059,-21.951 -46.551,-50.84Z" style="fill:#580000;"/><path d="M285.663,162.359c-46.785,-6.385 -81.586,3.377 -103.968,29.869c4.922,30.389 26.129,52.957 55.782,49.982c33.995,-8.117 49.833,-41.495 48.186,-79.851Z" style="fill:#d9e5f4;fill-opacity:0.5;"/><path d="M297.642,173.403c1.991,-13.989 0.027,-17.108 -13.6,-17.54c-38.702,-1.225 -73.05,4.715 -103.84,24.276c-4.251,5.007 -4.729,11.162 -1.184,18.542c9.237,29.966 26.513,47.305 52.715,46.708c30.724,-0.7 54.357,-30.221 65.909,-71.986Zm-18.596,16.221c2.377,-15.288 -3.551,-25.283 -17.953,-25.737c-21.781,-0.688 -44.078,2.517 -62.438,13.981c-11.971,7.475 -15.001,17.91 -9.533,31.457c6.916,17.132 23.022,31.557 43.373,31.139c24.052,-0.493 42.059,-21.951 46.551,-50.84Z" style="fill:#580000;"/><path d="M180.202,180.139c-20.086,-5.332 -40.727,-5.242 -61.897,0l-0,18.31c20.96,-11.943 41.786,-12.122 62.475,-0.204l-0.578,-18.106Z" style="fill:#580000;"/></g></svg>