<?xml version="1.0" encoding="UTF-8" standalone="no"?><!DOCTYPE svg PUBLIC "-//W3C//DTD SVG 1.1//EN" "http://www.w3.org/Graphics/SVG/1.1/DTD/svg11.dtd"><svg width="100%" height="100%" viewBox="0 0 300 345" version="1.1" xmlns="http://www.w3.org/2000/svg" xmlns:xlink="http://www.w3.org/1999/xlink" xml:space="preserve" xmlns:serif="http://www.serif.com/" style="fill-rule:evenodd;clip-rule:evenodd;stroke-linejoin:round;stroke-miterlimit:2;"><g id="Robe"><g id="Cucumber"><g><path d="M16.933,200.938l82.674,-1.375l0,4.292l-0.003,0.001c-0.101,3.369 -2.35,4.18 -3.906,9.701c-1.57,5.57 -1.942,9.806 -4.083,13.814c-2.298,4.302 -6.2,4.049 -11.547,8.404c-6.388,5.202 -5.909,5.936 -12.462,5.936l-9.764,0c-4.14,0 -8.876,-0.094 -13.329,-0.229c-4.453,-0.136 -9.532,-8.278 -12.578,-9.639c-6.196,-2.771 -7.163,-2.582 -8.574,-9.224c-1.728,-8.127 -6.518,-12.8 -6.428,-18.068l-0,-3.613Z" style="fill:#054600;"/><path d="M55.532,160.118c7.544,0.899 16.815,-3.772 21.673,1.193c5.456,5.576 4.705,4.918 13.332,12.908c5.262,4.873 6.78,6.548 6.79,13.731c0.005,3.788 0.573,3.673 1.589,7.351c2.13,7.712 -1.154,6.749 -3.218,14.072c-1.57,5.57 -1.942,9.806 -4.083,13.814c-2.298,4.302 -6.2,4.049 -11.547,8.404c-6.388,5.202 -5.909,5.936 -12.462,5.936l-9.764,0c-4.14,0 -8.876,-0.093 -13.329,-0.229c-4.453,-0.136 -9.532,-8.278 -12.578,-9.639c-6.196,-2.771 -7.163,-2.582 -8.574,-9.224c-2.259,-10.625 -9.752,-15.347 -4.733,-23.212c4.139,-6.487 1.335,-12.749 9.662,-20.015c14.066,-12.273 13.317,-15.437 19.146,-16.118c3.603,-0.42 4.852,0.642 8.096,1.028Z" style="fill:#dceab8;"/><path d="M60.913,201.479c0.623,0.432 2.566,1.78 6.353,7.036c0.055,0.076 3.236,3.342 0.428,6.796c-2.774,3.414 -7.321,0.568 -16.659,1.514c-0.059,0.006 -4.242,-0.084 -5.828,-1.523c-1.285,-1.165 -3.163,-4.505 -0.728,-6.993c2.504,-2.559 7.861,-6.661 10.612,-7.371c2.397,-0.618 4.018,-0.711 5.822,0.541Zm-11.135,-20.769c2.958,-1.815 6.229,-3.23 7.755,-1.353c1.57,1.93 0.946,11.84 0.918,12.044c-0.754,5.508 -5.385,5.299 -8.581,6.614c-0.195,0.08 -0.38,0.184 -0.577,0.259c-5.373,2.05 -8.258,0.026 -9.275,-2.873c-0.516,-1.473 3.692,-10.967 9.76,-14.691Zm22.798,1.12c6.06,1.751 10.504,13.185 8.897,18.077c-0.223,0.678 -1.405,6.998 -8.04,4.656c-1.837,-0.648 -1.918,-2.493 -6,-4.893c-2.781,-1.636 -7.826,-2.287 -2.413,-10.852c0.795,-1.259 3.782,-5.053 4.121,-5.484c0.939,-1.193 1.603,-2.033 3.435,-1.504Z" style="fill:#c7dd86;"/><path d="M78.833,204.299c-0.832,-1.8 -2.147,-3.009 -3.901,-3.682c-0.758,0.173 -1.627,0.084 -2.692,-0.461c-1.767,-1.465 -3.999,-2.222 -5.615,-3.769c-2.267,-2.169 -0.171,-4.801 2.769,-3.691c2.265,0.855 4.836,1.946 6.96,4.46c0.54,0.639 0.511,1.04 0.308,2.385c0.491,1.956 1.881,3.171 4.115,3.691l-0.615,2l-1.329,-0.933Z" style="fill:#dceab8;"/><path d="M55.54,177.838c-0.967,1.731 -1.172,3.506 -0.684,5.32c0.585,0.511 1.024,1.267 1.21,2.449c-0.146,2.291 0.554,4.541 0.253,6.757c-0.421,3.109 -3.783,2.962 -4.614,-0.068c-0.64,-2.336 -1.269,-5.056 -0.485,-8.253c0.199,-0.812 0.541,-1.025 1.748,-1.651c1.293,-1.547 1.459,-3.386 0.566,-5.499l1.979,-0.678l0.027,1.623Z" style="fill:#dceab8;"/><path d="M46.761,199.413c-0.578,-1.59 -0.5,-3.134 0.174,-4.637c0.571,-0.373 1.052,-0.973 1.378,-1.966c0.201,-1.98 1.117,-3.833 1.176,-5.766c0.082,-2.713 -2.803,-2.955 -3.941,-0.448c-0.877,1.932 -1.8,4.196 -1.586,7.023c0.055,0.718 0.316,0.938 1.255,1.607c0.882,1.469 0.762,3.064 -0.299,4.778l1.59,0.798l0.253,-1.389Z" style="fill:#dceab8;"/><path d="M52.388,202.048c1.84,0.53 3.217,1.651 4.172,3.308c-0.022,0.794 0.223,1.657 0.931,2.639c1.701,1.533 2.824,3.658 4.572,5.024c2.453,1.916 4.531,-0.653 2.946,-3.432c-1.221,-2.141 -2.72,-4.55 -5.47,-6.264c-0.698,-0.435 -1.068,-0.337 -2.291,0.099c-1.923,-0.159 -3.32,-1.354 -4.222,-3.521l-1.759,0.965l1.121,1.182Z" style="fill:#dceab8;"/><path d="M60.004,216.965c-1.639,-0.566 -2.831,-1.644 -3.617,-3.186c0.057,-0.718 -0.125,-1.51 -0.719,-2.431c-1.465,-1.466 -2.381,-3.439 -3.898,-4.756c-2.128,-1.848 -4.127,0.378 -2.824,2.965c1.004,1.993 2.246,4.241 4.652,5.92c0.611,0.426 0.95,0.354 2.076,0.017c1.732,0.235 2.939,1.38 3.652,3.382l1.637,-0.79l-0.959,-1.121Z" style="fill:#dceab8;"/><path d="M66.971,185.043c0.915,0.265 1.598,0.761 2,1.538c-0.275,0.731 -0.153,1.662 0.308,2.192c1.523,1.755 4.294,4.037 6.114,4.076c1.153,0.025 1.86,-0.396 1.577,-1.807c-0.245,-1.22 -3.458,-4.972 -4.538,-5.538c-0.771,-0.403 -1.639,-0.468 -2.615,-0.153c-0.923,-0.308 -1.461,-1.001 -1.769,-1.923l-1.077,1.615Z" style="fill:#dceab8;"/><path d="M31.966,218.548c-0.125,-0.481 -0.306,-1.202 -0.444,-1.847c-1.269,-5.971 -3.895,-10.328 -5.612,-14.252c-0.398,-0.908 -0.9,-1.716 -0.248,-2.738c2.23,-3.495 3.099,-6.892 3.894,-10.396c0.56,-2.467 1.061,-5.063 4.22,-7.82c7.335,-6.4 10.814,-10.419 13.213,-12.933c0.568,-0.595 0.695,-1.1 1.415,-1.184c1.424,-0.167 2.183,0.187 3.145,0.439c0.876,0.23 1.829,0.448 2.997,0.587c4.379,0.521 9.271,-0.418 13.762,-0.923c0.728,-0.082 1.443,-0.165 2.127,-0.194c0.297,-0.012 0.771,0.022 0.982,0.039c5.386,5.507 4.726,4.935 13.451,13.015c1.869,1.731 3.215,2.541 3.774,4.023c0.345,0.914 0.339,2.022 0.341,3.597c0.006,4.909 0.574,4.796 1.89,9.562c0.278,1.006 0.505,1.32 0.247,1.765c-1.048,1.804 -2.36,3.944 -3.453,7.822c-1.375,4.878 -1.537,8.636 -3.412,12.146c-0.253,0.474 -0.738,0.509 -1.164,0.733c-2.324,1.227 -5.075,2.512 -8.292,5.132c-3.823,3.113 -3.271,4.062 -7.193,4.062l-9.764,0c-3.762,0 -8.025,-0.079 -12.105,-0.197c-0.722,-0.529 -1.425,-1.227 -2.12,-1.928c-3.065,-3.086 -6.162,-6.071 -8.276,-7.016c-1.394,-0.624 -2.493,-1.069 -3.375,-1.494Zm-1.538,-17.583c1.767,3.944 4.267,8.349 5.605,14.213c0.384,0.166 0.796,0.345 1.24,0.543c2.451,1.096 6.149,4.426 9.702,8.002c0.192,0.194 0.382,0.389 0.575,0.579c3.51,0.09 7.085,0.149 10.292,0.149l9.764,-0c0.319,-0 0.704,-0.027 0.927,-0.045c0.246,-0.23 0.756,-0.71 1.174,-1.105c0.555,-0.525 1.229,-1.137 2.103,-1.849c3.392,-2.762 6.297,-4.193 8.78,-5.494c1.239,-2.934 1.396,-6.136 2.522,-10.132c0.967,-3.432 2.076,-5.673 3.082,-7.466c-1.4,-4.959 -1.936,-4.997 -1.944,-10.392c-0.001,-0.777 0.126,-1.349 0.002,-1.816c-0.105,-0.107 -0.368,-0.373 -0.549,-0.533c-0.586,-0.519 -1.274,-1.087 -2.051,-1.806c-7.967,-7.378 -8.205,-7.631 -12.176,-11.701c-0.211,0.023 -0.425,0.048 -0.64,0.072c-4.844,0.545 -10.126,1.482 -14.85,0.919c-1.418,-0.169 -2.574,-0.429 -3.638,-0.708c-0.123,-0.032 -0.238,-0.078 -0.353,-0.125c-2.443,2.593 -6.016,6.603 -13.108,12.791c-2.118,1.848 -2.341,3.648 -2.716,5.301c-0.813,3.584 -1.738,7.052 -3.743,10.603Z" style="fill:#b8de8d;"/><path d="M55.171,163.148c3.994,0.475 8.45,-0.466 12.545,-0.927c2.851,-0.32 5.518,-0.606 7.308,1.224c5.501,5.621 4.743,4.958 13.44,13.012c2.686,2.487 4.327,3.909 5.13,6.037c0.525,1.392 0.678,3.062 0.682,5.46c0.005,4.197 0.573,4.084 1.699,8.159c0.911,3.296 0.568,4.376 -0.278,5.832c-0.885,1.525 -2.012,3.324 -2.935,6.601c-1.499,5.316 -1.794,9.378 -3.838,13.204c-0.82,1.535 -1.984,2.193 -3.363,2.921c-2.075,1.095 -4.548,2.215 -7.42,4.554c-5.447,4.437 -4.946,5.251 -10.535,5.251l-9.764,0c-4.111,0 -8.814,-0.093 -13.236,-0.228c-0.588,-0.018 -1.153,-0.399 -1.761,-0.823c-1.011,-0.707 -2.013,-1.66 -2.984,-2.637c-2.52,-2.538 -4.942,-5.137 -6.681,-5.915c-1.783,-0.797 -3.116,-1.334 -4.143,-1.874c-0.585,-0.307 -1.03,-0.572 -1.352,-1.021c-0.612,-0.856 -0.9,-2.107 -1.34,-4.177c-1.18,-5.553 -3.687,-9.58 -5.284,-13.23c-1.114,-2.545 -1.689,-4.841 0.139,-7.707c1.866,-2.924 2.529,-5.789 3.194,-8.721c0.767,-3.377 1.577,-6.863 5.902,-10.636c7.143,-6.233 10.527,-10.151 12.863,-12.599c1.664,-1.744 2.523,-2.541 4.631,-2.788c3.29,-0.384 4.419,0.675 7.381,1.028Zm-23.205,55.4c0.882,0.425 1.981,0.87 3.375,1.494c2.114,0.945 5.211,3.93 8.276,7.016c0.695,0.701 1.398,1.399 2.12,1.928c4.08,0.118 8.343,0.197 12.105,0.197l9.764,0c3.922,0 3.37,-0.949 7.193,-4.062c3.217,-2.62 5.968,-3.905 8.292,-5.132c0.426,-0.224 0.911,-0.259 1.164,-0.733c1.875,-3.51 2.037,-7.268 3.412,-12.146c1.093,-3.878 2.405,-6.018 3.453,-7.822c0.258,-0.445 0.031,-0.759 -0.247,-1.765c-1.316,-4.766 -1.884,-4.653 -1.89,-9.562c-0.002,-1.575 0.004,-2.683 -0.341,-3.597c-0.559,-1.482 -1.905,-2.292 -3.774,-4.023c-8.725,-8.08 -8.065,-7.508 -13.451,-13.015c-0.211,-0.017 -0.685,-0.051 -0.982,-0.039c-0.684,0.029 -1.399,0.112 -2.127,0.194c-4.491,0.505 -9.383,1.444 -13.762,0.923c-1.168,-0.139 -2.121,-0.357 -2.997,-0.587c-0.962,-0.252 -1.721,-0.606 -3.145,-0.439c-0.72,0.084 -0.847,0.589 -1.415,1.184c-2.399,2.514 -5.878,6.533 -13.213,12.933c-3.159,2.757 -3.66,5.353 -4.22,7.82c-0.795,3.504 -1.664,6.901 -3.894,10.396c-0.652,1.022 -0.15,1.83 0.248,2.738c1.717,3.924 4.343,8.281 5.612,14.252c0.138,0.645 0.319,1.366 0.444,1.847Z" style="fill:#87d03b;"/><path d="M66.558,162.362c0.389,-0.05 0.775,-0.098 1.158,-0.141c2.851,-0.32 5.518,-0.606 7.308,1.224c0.354,0.361 0.681,0.696 0.987,1.009c-3.628,2.71 -7.851,5.525 -13.17,6.588c-12.448,2.49 -11.572,4.569 -23.237,15.726c-5.505,5.266 -11.774,6.521 -16.655,6.58c0.652,-1.729 1.048,-3.455 1.445,-5.205c0.767,-3.377 1.577,-6.863 5.902,-10.636c0.101,-0.088 0.201,-0.176 0.3,-0.263c8.777,-3.34 15.399,-9.921 21.448,-11.131c5.42,-1.084 9.606,-0.722 14.514,-3.751Zm24.777,52.101c-0.599,2.655 -1.196,5.013 -2.411,7.287c-0.82,1.535 -1.984,2.193 -3.363,2.921c-2.075,1.095 -4.548,2.215 -7.42,4.554c-5.447,4.437 -4.946,5.251 -10.535,5.251l-7.157,0c1.743,-1.311 3.563,-3.016 5.795,-5.694c5.804,-6.965 12.756,-8.095 19.364,-11.032c2.19,-0.973 4.074,-2.081 5.727,-3.287Zm-51.364,16.436c-0.036,-0.037 -0.073,-0.074 -0.11,-0.111c-2.52,-2.538 -4.942,-5.137 -6.681,-5.915c-1.783,-0.797 -3.116,-1.334 -4.143,-1.874c-0.585,-0.307 -1.03,-0.572 -1.352,-1.021c-0.612,-0.856 -0.9,-2.107 -1.34,-4.177c-1.046,-4.921 -3.134,-8.644 -4.707,-11.967c6.659,-4.865 12.746,-2.252 20.783,-11.438c7.856,-8.979 11.07,-15.987 24.879,-17.368c6.385,-0.639 9.351,-4.45 13.314,-7.922c1.574,1.53 3.564,3.382 7.85,7.351c2.686,2.487 4.327,3.909 5.13,6.037c0.525,1.392 0.678,3.062 0.682,5.46c0.003,2.377 0.186,3.371 0.549,4.527c-2.457,3.42 -4.505,6.931 -8.278,9.544c-9.75,6.749 -19.201,2.504 -31.686,17.486c-4.474,5.368 -10.148,9.249 -14.89,11.388Z" style="fill:#f6ffe0;fill-opacity:0.25;"/><path d="M55.532,160.118c7.544,0.899 16.815,-3.772 21.673,1.193c5.456,5.576 4.705,4.918 13.332,12.908c5.262,4.873 6.78,6.548 6.79,13.731c0.005,3.788 0.573,3.673 1.589,7.351c2.13,7.712 -1.154,6.749 -3.218,14.072c-1.57,5.57 -1.942,9.806 -4.083,13.814c-2.298,4.302 -6.2,4.049 -11.547,8.404c-6.388,5.202 -5.909,5.936 -12.462,5.936l-9.764,0c-4.14,0 -8.876,-0.093 -13.329,-0.229c-4.453,-0.136 -9.532,-8.278 -12.578,-9.639c-6.196,-2.771 -7.163,-2.582 -8.574,-9.224c-2.259,-10.625 -9.752,-15.347 -4.733,-23.212c4.139,-6.487 1.335,-12.749 9.662,-20.015c14.066,-12.273 13.317,-15.437 19.146,-16.118c3.603,-0.42 4.852,0.642 8.096,1.028Zm-0.361,3.03c-2.962,-0.353 -4.091,-1.412 -7.381,-1.028c-2.108,0.247 -2.967,1.044 -4.631,2.788c-2.336,2.448 -5.72,6.366 -12.863,12.599c-4.325,3.773 -5.135,7.259 -5.902,10.636c-0.665,2.932 -1.328,5.797 -3.194,8.721c-1.828,2.866 -1.253,5.162 -0.139,7.707c1.597,3.65 4.104,7.677 5.284,13.23c0.44,2.07 0.728,3.321 1.34,4.177c0.322,0.449 0.767,0.714 1.352,1.021c1.027,0.54 2.36,1.077 4.143,1.874c1.739,0.778 4.161,3.377 6.681,5.915c0.971,0.977 1.973,1.93 2.984,2.637c0.608,0.424 1.173,0.805 1.761,0.823c4.422,0.135 9.125,0.228 13.236,0.228l9.764,0c5.589,0 5.088,-0.814 10.535,-5.251c2.872,-2.339 5.345,-3.459 7.42,-4.554c1.379,-0.728 2.543,-1.386 3.363,-2.921c2.044,-3.826 2.339,-7.888 3.838,-13.204c0.923,-3.277 2.05,-5.076 2.935,-6.601c0.846,-1.456 1.189,-2.536 0.278,-5.832c-1.126,-4.075 -1.694,-3.962 -1.699,-8.159c-0.004,-2.398 -0.157,-4.068 -0.682,-5.46c-0.803,-2.128 -2.444,-3.55 -5.13,-6.037c-8.697,-8.054 -7.939,-7.391 -13.44,-13.012c-1.79,-1.83 -4.457,-1.544 -7.308,-1.224c-4.095,0.461 -8.551,1.402 -12.545,0.927Z" style="fill:#0b8e00;"/><path d="M55.532,160.118c7.544,0.899 16.815,-3.772 21.673,1.193c5.456,5.576 4.705,4.918 13.332,12.908c5.262,4.873 6.78,6.548 6.79,13.731c0.005,3.788 0.573,3.673 1.589,7.351c2.13,7.712 -1.154,6.749 -3.218,14.072c-1.57,5.57 -1.942,9.806 -4.083,13.814c-2.298,4.302 -6.2,4.049 -11.547,8.404c-6.388,5.202 -5.909,5.936 -12.462,5.936l-9.764,0c-4.14,0 -8.876,-0.093 -13.329,-0.229c-4.453,-0.136 -9.532,-8.278 -12.578,-9.639c-6.196,-2.771 -7.163,-2.582 -8.574,-9.224c-2.259,-10.625 -9.752,-15.347 -4.733,-23.212c4.139,-6.487 1.335,-12.749 9.662,-20.015c14.066,-12.273 13.317,-15.437 19.146,-16.118c3.603,-0.42 4.852,0.642 8.096,1.028Zm-0.129,1.082c-3.143,-0.375 -4.35,-1.436 -7.84,-1.028c-2.627,0.307 -3.751,1.21 -5.823,3.382c-2.313,2.424 -5.662,6.304 -12.734,12.475c-4.757,4.15 -5.682,7.965 -6.525,11.68c-0.617,2.719 -1.204,5.388 -2.934,8.1c-2.267,3.552 -1.664,6.395 -0.284,9.548c1.553,3.549 4.016,7.453 5.163,12.852c0.52,2.447 0.941,3.899 1.664,4.91c0.494,0.69 1.137,1.145 2.034,1.617c1.055,0.554 2.424,1.109 4.256,1.928c1.6,0.716 3.77,3.171 6.089,5.506c1.257,1.266 2.568,2.487 3.877,3.269c0.745,0.445 1.479,0.748 2.2,0.77c4.442,0.136 9.166,0.229 13.296,0.229l9.764,0c6.209,0 5.722,-0.763 11.774,-5.692c2.744,-2.235 5.114,-3.294 7.097,-4.34c1.734,-0.915 3.146,-1.801 4.177,-3.732c2.106,-3.943 2.452,-8.117 3.996,-13.596c0.86,-3.053 1.919,-4.727 2.744,-6.148c1.065,-1.835 1.619,-3.187 0.472,-7.339c-1.055,-3.82 -1.623,-3.706 -1.629,-7.64c-0.003,-2.703 -0.216,-4.58 -0.808,-6.149c-0.894,-2.369 -2.643,-4.016 -5.632,-6.784c-8.652,-8.013 -7.898,-7.353 -13.37,-12.945c-2.201,-2.249 -5.426,-2.195 -8.93,-1.801c-3.949,0.444 -8.242,1.386 -12.094,0.928Z" style="fill:#106c01;"/></g><g><path d="M199.434,199.913l82.684,0.675l-0.107,4.291l-0.003,0.001c-0.184,3.365 -2.453,4.121 -4.145,9.601c-1.707,5.529 -2.185,9.755 -4.425,13.709c-2.403,4.243 -6.298,3.894 -11.752,8.115c-6.515,5.042 -6.054,5.787 -12.605,5.625l-9.761,-0.242c-4.139,-0.103 -8.871,-0.314 -13.319,-0.56c-4.448,-0.247 -9.324,-8.511 -12.335,-9.948c-6.126,-2.923 -7.097,-2.759 -8.343,-9.433c-1.525,-8.168 -6.198,-12.958 -5.978,-18.222l0.089,-3.612Z" style="fill:#054600;"/><path d="M239.034,160.063c7.519,1.085 16.903,-3.355 21.637,1.73c5.316,5.71 4.581,5.033 13.008,13.234c5.14,5.002 6.615,6.714 6.447,13.895c-0.089,3.787 0.482,3.687 1.406,7.388c1.939,7.763 -1.321,6.718 -3.566,13.989c-1.707,5.528 -2.184,9.755 -4.424,13.708c-2.403,4.243 -6.299,3.894 -11.752,8.115c-6.515,5.042 -6.054,5.788 -12.605,5.625c-3.23,-0.08 -6.531,-0.162 -9.761,-0.242c-4.139,-0.102 -8.871,-0.314 -13.319,-0.56c-4.448,-0.246 -9.324,-8.511 -12.335,-9.948c-6.126,-2.923 -7.097,-2.758 -8.343,-9.433c-1.995,-10.678 -9.368,-15.584 -4.156,-23.323c4.299,-6.381 1.65,-12.711 10.155,-19.768c14.366,-11.921 13.696,-15.103 19.541,-15.639c3.611,-0.331 4.834,0.762 8.067,1.229Z" style="fill:#dceab8;"/><path d="M243.388,201.544c0.612,0.447 2.521,1.843 6.177,7.192c0.053,0.077 3.151,3.42 0.259,6.805c-2.858,3.343 -7.333,0.385 -16.692,1.099c-0.059,0.005 -4.239,-0.188 -5.788,-1.666c-1.255,-1.197 -3.051,-4.583 -0.555,-7.01c2.567,-2.496 8.024,-6.463 10.792,-7.105c2.412,-0.559 4.034,-0.611 5.807,0.685Zm-10.617,-21.038c3.003,-1.742 6.307,-3.075 7.787,-1.161c1.521,1.968 0.651,11.86 0.618,12.064c-0.89,5.487 -5.514,5.163 -8.742,6.398c-0.197,0.076 -0.384,0.175 -0.583,0.245c-5.422,1.916 -8.256,-0.178 -9.201,-3.102c-0.48,-1.485 3.963,-10.872 10.121,-14.444Zm22.763,1.685c6.016,1.9 10.175,13.441 8.446,18.292c-0.239,0.672 -1.578,6.961 -8.152,4.455c-1.821,-0.694 -1.856,-2.54 -5.877,-5.041c-2.74,-1.704 -7.767,-2.48 -2.144,-10.908c0.827,-1.239 3.906,-4.958 4.256,-5.381c0.969,-1.169 1.653,-1.992 3.471,-1.417Z" style="fill:#c7dd86;"/><path d="M261.232,204.807c-0.786,-1.82 -2.071,-3.061 -3.808,-3.776c-0.762,0.154 -1.629,0.043 -2.68,-0.528c-1.73,-1.509 -3.943,-2.321 -5.519,-3.907c-2.213,-2.225 -0.052,-4.805 2.859,-3.622c2.244,0.911 4.786,2.066 6.848,4.632c0.523,0.651 0.484,1.052 0.248,2.391c0.442,1.967 1.801,3.217 4.022,3.793l-0.665,1.984l-1.305,-0.967Z" style="fill:#dceab8;"/><path d="M238.602,177.777c-1.009,1.707 -1.258,3.476 -0.815,5.302c0.573,0.525 0.993,1.292 1.149,2.478c-0.203,2.286 0.441,4.553 0.086,6.761c-0.499,3.098 -3.856,2.867 -4.611,-0.183c-0.583,-2.35 -1.144,-5.086 -0.281,-8.262c0.219,-0.806 0.566,-1.011 1.788,-1.607c1.331,-1.515 1.543,-3.349 0.703,-5.483l1.995,-0.629l-0.014,1.623Z" style="fill:#dceab8;"/><path d="M229.292,199.128c-0.539,-1.604 -0.423,-3.146 0.288,-4.631c0.58,-0.359 1.076,-0.947 1.427,-1.932c0.25,-1.974 1.212,-3.804 1.318,-5.735c0.15,-2.709 -2.728,-3.024 -3.928,-0.545c-0.925,1.909 -1.903,4.15 -1.76,6.981c0.037,0.719 0.292,0.945 1.215,1.638c0.845,1.49 0.686,3.082 -0.418,4.769l1.57,0.838l0.288,-1.383Z" style="fill:#dceab8;"/><path d="M234.851,201.901c1.827,0.576 3.176,1.731 4.089,3.411c-0.041,0.794 0.182,1.662 0.866,2.662c1.662,1.574 2.731,3.726 4.446,5.135c2.404,1.977 4.545,-0.54 3.03,-3.357c-1.168,-2.171 -2.607,-4.617 -5.313,-6.398c-0.687,-0.452 -1.06,-0.363 -2.293,0.042c-1.919,-0.207 -3.286,-1.436 -4.133,-3.625l-1.783,0.921l1.091,1.209Z" style="fill:#dceab8;"/><path d="M242.096,217.003c-1.625,-0.607 -2.791,-1.714 -3.538,-3.275c0.075,-0.716 -0.087,-1.512 -0.658,-2.448c-1.429,-1.501 -2.295,-3.497 -3.779,-4.851c-2.082,-1.9 -4.136,0.276 -2.897,2.894c0.954,2.017 2.14,4.296 4.504,6.033c0.6,0.441 0.941,0.378 2.075,0.069c1.725,0.277 2.904,1.453 3.567,3.472l1.656,-0.75l-0.93,-1.144Z" style="fill:#dceab8;"/><path d="M249.852,185.264c0.908,0.287 1.578,0.8 1.961,1.587c-0.293,0.723 -0.194,1.657 0.253,2.199c1.479,1.792 4.193,4.142 6.011,4.226c1.152,0.054 1.87,-0.349 1.621,-1.767c-0.214,-1.226 -3.333,-5.057 -4.399,-5.649c-0.76,-0.422 -1.626,-0.508 -2.61,-0.218c-0.915,-0.33 -1.436,-1.037 -1.721,-1.966l-1.116,1.588Z" style="fill:#dceab8;"/><path d="M214.027,217.891c-0.113,-0.484 -0.277,-1.21 -0.398,-1.859c-1.121,-6 -3.638,-10.421 -5.258,-14.386c-0.374,-0.917 -0.856,-1.738 -0.179,-2.743c2.316,-3.439 3.268,-6.813 4.15,-10.297c0.621,-2.452 1.186,-5.035 4.412,-7.712c7.492,-6.217 11.07,-10.148 13.53,-12.602c0.583,-0.581 0.723,-1.083 1.444,-1.149c1.428,-0.131 2.178,0.242 3.134,0.518c0.87,0.251 1.816,0.492 2.981,0.66c4.365,0.63 9.278,-0.187 13.78,-0.581c0.731,-0.063 1.447,-0.129 2.132,-0.141c0.297,-0.005 0.77,0.041 0.98,0.063c5.248,5.639 4.603,5.051 13.124,13.344c1.827,1.778 3.151,2.621 3.674,4.116c0.322,0.922 0.288,2.03 0.251,3.605c-0.115,4.907 0.455,4.808 1.653,9.605c0.253,1.013 0.472,1.333 0.203,1.771c-1.092,1.778 -2.457,3.884 -3.646,7.734c-1.495,4.842 -1.75,8.595 -3.712,12.058c-0.265,0.467 -0.75,0.49 -1.182,0.704c-2.353,1.168 -5.136,2.385 -8.417,4.924c-3.899,3.018 -3.371,3.98 -7.291,3.883l-9.761,-0.242c-3.761,-0.093 -8.021,-0.278 -12.096,-0.497c-0.709,-0.547 -1.394,-1.263 -2.072,-1.98c-2.988,-3.161 -6.009,-6.223 -8.1,-7.22c-1.377,-0.658 -2.466,-1.13 -3.336,-1.576Zm-1.102,-17.617c1.668,3.987 4.058,8.452 5.251,14.348c0.38,0.175 0.787,0.365 1.226,0.574c2.423,1.156 6.038,4.576 9.5,8.24c0.187,0.198 0.373,0.398 0.561,0.592c3.506,0.178 7.079,0.325 10.285,0.405l9.761,0.242c0.319,0.008 0.705,-0.009 0.928,-0.021c0.251,-0.225 0.774,-0.692 1.201,-1.076c0.568,-0.511 1.257,-1.107 2.148,-1.797c3.459,-2.677 6.399,-4.035 8.914,-5.274c1.311,-2.902 1.547,-6.1 2.772,-10.066c1.052,-3.408 2.216,-5.621 3.266,-7.388c-1.276,-4.992 -1.812,-5.043 -1.685,-10.437c0.018,-0.777 0.159,-1.345 0.046,-1.816c-0.101,-0.109 -0.358,-0.381 -0.535,-0.546c-0.572,-0.533 -1.247,-1.118 -2.005,-1.856c-7.782,-7.574 -8.013,-7.832 -11.883,-12c-0.212,0.018 -0.425,0.038 -0.641,0.057c-4.856,0.424 -10.16,1.23 -14.868,0.55c-1.413,-0.204 -2.563,-0.493 -3.619,-0.798c-0.123,-0.035 -0.236,-0.084 -0.351,-0.134c-2.506,2.532 -6.177,6.452 -13.421,12.463c-2.162,1.794 -2.43,3.588 -2.846,5.232c-0.902,3.562 -1.912,7.006 -4.005,10.506Z" style="fill:#b8de8d;"/><path d="M238.599,163.082c3.98,0.575 8.458,-0.256 12.564,-0.615c2.857,-0.249 5.531,-0.469 7.275,1.405c5.359,5.756 4.618,5.074 13.113,13.341c2.623,2.553 4.228,4.016 4.978,6.163c0.491,1.405 0.603,3.077 0.547,5.475c-0.099,4.196 0.472,4.097 1.496,8.199c0.829,3.317 0.46,4.388 -0.422,5.823c-0.923,1.502 -2.094,3.273 -3.099,6.526c-1.629,5.277 -2.026,9.331 -4.163,13.104c-0.858,1.515 -2.038,2.144 -3.435,2.837c-2.101,1.043 -4.601,2.102 -7.53,4.369c-5.556,4.3 -5.076,5.127 -10.662,4.988l-9.761,-0.242c-4.11,-0.102 -8.809,-0.312 -13.227,-0.556c-0.587,-0.033 -1.143,-0.427 -1.74,-0.867c-0.993,-0.732 -1.971,-1.709 -2.917,-2.71c-2.457,-2.599 -4.813,-5.258 -6.532,-6.078c-1.763,-0.841 -3.083,-1.411 -4.096,-1.977c-0.577,-0.321 -1.015,-0.597 -1.326,-1.054c-0.591,-0.871 -0.848,-2.128 -1.236,-4.209c-1.042,-5.581 -3.449,-9.669 -4.955,-13.357c-1.05,-2.571 -1.568,-4.881 0.331,-7.701c1.937,-2.877 2.671,-5.725 3.409,-8.639c0.85,-3.357 1.747,-6.822 6.163,-10.487c7.296,-6.054 10.776,-9.886 13.172,-12.276c1.707,-1.702 2.585,-2.478 4.699,-2.672c3.298,-0.302 4.401,0.784 7.354,1.21Zm-24.572,54.809c0.87,0.446 1.959,0.918 3.336,1.576c2.091,0.997 5.112,4.059 8.1,7.22c0.678,0.717 1.363,1.433 2.072,1.98c4.075,0.219 8.335,0.404 12.096,0.497l9.761,0.242c3.92,0.097 3.392,-0.865 7.291,-3.883c3.281,-2.539 6.064,-3.756 8.417,-4.924c0.432,-0.214 0.917,-0.237 1.182,-0.704c1.962,-3.463 2.217,-7.216 3.712,-12.058c1.189,-3.85 2.554,-5.956 3.646,-7.734c0.269,-0.438 0.05,-0.758 -0.203,-1.771c-1.198,-4.797 -1.768,-4.698 -1.653,-9.605c0.037,-1.575 0.071,-2.683 -0.251,-3.605c-0.523,-1.495 -1.847,-2.338 -3.674,-4.116c-8.521,-8.293 -7.876,-7.705 -13.124,-13.344c-0.21,-0.022 -0.683,-0.068 -0.98,-0.063c-0.685,0.012 -1.401,0.078 -2.132,0.141c-4.502,0.394 -9.415,1.211 -13.78,0.581c-1.165,-0.168 -2.111,-0.409 -2.981,-0.66c-0.956,-0.276 -1.706,-0.649 -3.134,-0.518c-0.721,0.066 -0.861,0.568 -1.444,1.149c-2.46,2.454 -6.038,6.385 -13.53,12.602c-3.226,2.677 -3.791,5.26 -4.412,7.712c-0.882,3.484 -1.834,6.858 -4.15,10.297c-0.677,1.005 -0.195,1.826 0.179,2.743c1.62,3.965 4.137,8.386 5.258,14.386c0.121,0.649 0.285,1.375 0.398,1.859Z" style="fill:#87d03b;"/><path d="M250.002,162.579c0.389,-0.04 0.777,-0.078 1.161,-0.112c2.857,-0.249 5.531,-0.469 7.275,1.405c0.344,0.369 0.664,0.713 0.962,1.033c-3.695,2.619 -7.986,5.328 -13.33,6.26c-12.506,2.18 -11.682,4.28 -23.62,15.145c-5.633,5.127 -11.932,6.226 -16.812,6.164c0.694,-1.712 1.133,-3.428 1.573,-5.167c0.85,-3.357 1.747,-6.822 6.163,-10.487c0.104,-0.085 0.206,-0.17 0.308,-0.255c8.856,-3.122 15.639,-9.536 21.717,-10.595c5.445,-0.95 9.621,-0.484 14.603,-3.391Zm23.477,52.7c-0.665,2.639 -1.321,4.981 -2.591,7.224c-0.858,1.515 -2.038,2.144 -3.435,2.837c-2.101,1.043 -4.601,2.102 -7.53,4.369c-5.556,4.3 -5.076,5.127 -10.662,4.988l-7.156,-0.177c1.775,-1.268 3.638,-2.927 5.935,-5.549c5.975,-6.819 12.953,-7.776 19.632,-10.548c2.213,-0.919 4.124,-1.98 5.807,-3.144Zm-51.756,15.156c-0.036,-0.037 -0.072,-0.075 -0.107,-0.113c-2.457,-2.599 -4.813,-5.258 -6.532,-6.078c-1.763,-0.841 -3.083,-1.411 -4.096,-1.977c-0.577,-0.321 -1.015,-0.597 -1.326,-1.054c-0.591,-0.871 -0.848,-2.128 -1.236,-4.209c-0.924,-4.946 -2.919,-8.719 -4.409,-12.08c6.777,-4.698 12.798,-1.936 21.06,-10.919c8.077,-8.781 11.463,-15.708 25.303,-16.746c6.398,-0.48 9.458,-4.217 13.506,-7.589c1.536,1.569 3.479,3.469 7.665,7.543c2.623,2.553 4.228,4.016 4.978,6.163c0.491,1.405 0.603,3.077 0.547,5.475c-0.056,2.376 0.103,3.375 0.437,4.539c-2.542,3.358 -4.676,6.817 -8.513,9.335c-9.914,6.506 -19.257,2.028 -32.11,16.695c-4.605,5.256 -10.374,8.995 -15.167,11.015Z" style="fill:#f6ffe0;fill-opacity:0.25;"/><path d="M239.034,160.063c7.519,1.085 16.903,-3.355 21.637,1.73c5.316,5.71 4.581,5.033 13.008,13.234c5.14,5.002 6.615,6.714 6.447,13.895c-0.089,3.787 0.482,3.687 1.406,7.388c1.939,7.763 -1.321,6.718 -3.566,13.989c-1.707,5.528 -2.184,9.755 -4.424,13.708c-2.403,4.243 -6.299,3.894 -11.752,8.115c-6.515,5.042 -6.054,5.788 -12.605,5.625l-9.761,-0.242c-4.139,-0.102 -8.871,-0.314 -13.319,-0.56c-4.448,-0.246 -9.324,-8.511 -12.335,-9.948c-6.126,-2.923 -7.097,-2.758 -8.343,-9.433c-1.995,-10.678 -9.368,-15.584 -4.156,-23.323c4.299,-6.381 1.65,-12.711 10.155,-19.768c14.366,-11.921 13.696,-15.103 19.541,-15.639c3.611,-0.331 4.834,0.762 8.067,1.229Zm-0.435,3.019c-2.953,-0.426 -4.056,-1.512 -7.354,-1.21c-2.114,0.194 -2.992,0.97 -4.699,2.672c-2.396,2.39 -5.876,6.222 -13.172,12.276c-4.416,3.665 -5.313,7.13 -6.163,10.487c-0.738,2.914 -1.472,5.762 -3.409,8.639c-1.899,2.82 -1.381,5.13 -0.331,7.701c1.506,3.688 3.913,7.776 4.955,13.357c0.388,2.081 0.645,3.338 1.236,4.209c0.311,0.457 0.749,0.733 1.326,1.054c1.013,0.566 2.333,1.136 4.096,1.977c1.719,0.82 4.075,3.479 6.532,6.078c0.946,1.001 1.924,1.978 2.917,2.71c0.597,0.44 1.153,0.834 1.74,0.867c4.418,0.244 9.117,0.454 13.227,0.556l9.761,0.242c5.586,0.139 5.106,-0.688 10.662,-4.988c2.929,-2.267 5.429,-3.326 7.53,-4.369c1.397,-0.693 2.577,-1.322 3.435,-2.837c2.137,-3.773 2.534,-7.827 4.163,-13.104c1.005,-3.253 2.176,-5.024 3.099,-6.526c0.882,-1.435 1.251,-2.506 0.422,-5.823c-1.024,-4.102 -1.595,-4.003 -1.496,-8.199c0.056,-2.398 -0.056,-4.07 -0.547,-5.475c-0.75,-2.147 -2.355,-3.61 -4.978,-6.163c-8.495,-8.267 -7.754,-7.585 -13.113,-13.341c-1.744,-1.874 -4.418,-1.654 -7.275,-1.405c-4.106,0.359 -8.584,1.19 -12.564,0.615Z" style="fill:#0b8e00;"/><path d="M239.034,160.063c7.519,1.085 16.903,-3.355 21.637,1.73c5.316,5.71 4.581,5.033 13.008,13.234c5.14,5.002 6.615,6.714 6.447,13.895c-0.089,3.787 0.482,3.687 1.406,7.388c1.939,7.763 -1.321,6.718 -3.566,13.989c-1.707,5.528 -2.184,9.755 -4.424,13.708c-2.403,4.243 -6.299,3.894 -11.752,8.115c-6.515,5.042 -6.054,5.788 -12.605,5.625l-9.761,-0.242c-4.139,-0.102 -8.871,-0.314 -13.319,-0.56c-4.448,-0.246 -9.324,-8.511 -12.335,-9.948c-6.126,-2.923 -7.097,-2.758 -8.343,-9.433c-1.995,-10.678 -9.368,-15.584 -4.156,-23.323c4.299,-6.381 1.65,-12.711 10.155,-19.768c14.366,-11.921 13.696,-15.103 19.541,-15.639c3.611,-0.331 4.834,0.762 8.067,1.229Zm-0.155,1.078c-3.133,-0.452 -4.313,-1.543 -7.813,-1.222c-2.634,0.241 -3.779,1.116 -5.905,3.236c-2.372,2.366 -5.816,6.162 -13.039,12.156c-4.858,4.031 -5.878,7.822 -6.813,11.515c-0.684,2.703 -1.337,5.356 -3.134,8.024c-2.354,3.494 -1.822,6.352 -0.52,9.539c1.464,3.585 3.829,7.55 4.842,12.975c0.46,2.46 0.844,3.922 1.542,4.95c0.476,0.702 1.108,1.173 1.993,1.667c1.041,0.58 2.396,1.169 4.207,2.033c1.581,0.755 3.691,3.264 5.951,5.656c1.225,1.296 2.505,2.549 3.795,3.363c0.733,0.463 1.459,0.785 2.18,0.825c4.437,0.245 9.157,0.456 13.286,0.558l9.761,0.242c6.207,0.154 5.739,-0.62 11.911,-5.397c2.799,-2.167 5.195,-3.167 7.203,-4.164c1.756,-0.871 3.189,-1.722 4.268,-3.627c2.204,-3.889 2.652,-8.054 4.332,-13.493c0.936,-3.031 2.036,-4.677 2.896,-6.077c1.11,-1.808 1.697,-3.147 0.654,-7.326c-0.96,-3.844 -1.531,-3.744 -1.439,-7.677c0.063,-2.703 -0.102,-4.585 -0.656,-6.168c-0.835,-2.39 -2.543,-4.08 -5.462,-6.922c-8.451,-8.224 -7.714,-7.546 -13.045,-13.272c-2.144,-2.303 -5.37,-2.329 -8.882,-2.022c-3.959,0.346 -8.275,1.182 -12.113,0.628Z" style="fill:#106c01;"/></g></g></g></svg>