<?xml version="1.0" encoding="UTF-8" standalone="no"?><!DOCTYPE svg PUBLIC "-//W3C//DTD SVG 1.1//EN" "http://www.w3.org/Graphics/SVG/1.1/DTD/svg11.dtd"><svg width="100%" height="100%" viewBox="0 0 1250 1438" version="1.1" xmlns="http://www.w3.org/2000/svg" xmlns:xlink="http://www.w3.org/1999/xlink" xml:space="preserve" xmlns:serif="http://www.serif.com/" style="fill-rule:evenodd;clip-rule:evenodd;stroke-linejoin:round;stroke-miterlimit:2;"><g id="Pirate"><g id="glasses"><path d="M1250,997.335c-108.356,-72.058 -227.166,-123.044 -340.216,-184.304c-206.863,-112.097 -394.98,-257.509 -470.526,-617.973c-0.542,-2.586 -0.451,-5.159 0.166,-7.558l32.291,-0c0.061,0.238 0.117,0.478 0.168,0.72c72.82,347.461 254.381,487.451 453.782,595.504c107.555,58.283 220.154,107.568 324.335,173.907l-0,39.704Z"/><path d="M851.759,704.517l-67.298,85.019l-63.718,-50.437c8.286,-10.468 6.515,-25.693 -3.953,-33.978l37.273,-47.088c10.468,8.286 25.693,6.515 33.979,-3.953l63.717,50.437Z" style="fill:#1c1c1c;"/><path d="M1169.59,863.34l-57.219,92.104l69.027,42.883c7.045,-11.339 21.971,-14.826 33.31,-7.781l31.692,-51.012c-11.34,-7.045 -14.827,-21.971 -7.782,-33.311l-69.028,-42.883Z" style="fill:#1c1c1c;"/><g><path d="M1212.49,933.127c10.459,1.305 17.892,10.856 16.587,21.315c-1.305,10.459 -10.856,17.892 -21.315,16.587c-10.459,-1.305 -17.892,-10.855 -16.587,-21.315c1.305,-10.459 10.856,-17.892 21.315,-16.587Z" style="fill:#d08802;"/><path d="M1214.87,937.795c6.368,0.794 10.894,6.609 10.1,12.978c-0.795,6.368 -6.61,10.894 -12.979,10.099c-6.368,-0.794 -10.893,-6.609 -10.099,-12.978c0.794,-6.368 6.61,-10.894 12.978,-10.099Z" style="fill:#e99800;"/></g><g><path d="M760.012,678.804c10.459,1.304 17.892,10.855 16.587,21.315c-1.305,10.459 -10.856,17.891 -21.315,16.587c-10.459,-1.305 -17.892,-10.856 -16.587,-21.315c1.305,-10.46 10.855,-17.892 21.315,-16.587Z" style="fill:#d08802;"/><path d="M762.392,683.471c6.368,0.795 10.894,6.61 10.099,12.978c-0.794,6.369 -6.609,10.894 -12.978,10.1c-6.368,-0.795 -10.893,-6.61 -10.099,-12.978c0.794,-6.369 6.61,-10.894 12.978,-10.1Z" style="fill:#e99800;"/></g><path d="M1051.5,632.868c120.523,44.522 193.193,148.828 148.671,269.351c-44.522,120.523 -167.228,151.663 -287.751,107.141c-120.522,-44.522 -193.515,-147.955 -148.993,-268.478c44.522,-120.523 167.55,-152.536 288.073,-108.014Z" style="fill:#252525;"/><path d="M1051.5,632.868c120.523,44.522 193.193,148.828 148.671,269.351c-44.522,120.523 -167.228,151.663 -287.751,107.141c-120.522,-44.522 -193.515,-147.955 -148.993,-268.478c44.522,-120.523 167.55,-152.536 288.073,-108.014Zm-12.902,34.928c-99.961,-36.927 -203.317,-13.972 -240.243,85.988c-36.913,99.924 27.044,183.735 126.968,220.648c99.924,36.913 203.008,14.809 239.92,-85.115c36.927,-99.961 -26.685,-184.595 -126.645,-221.521Z" style="fill:#191919;"/><path d="M1213.25,838.515c0.95,24.763 -3.152,50.813 -13.073,77.668c-44.522,120.523 -167.228,151.663 -287.751,107.14c-98.734,-36.473 -165.57,-112.483 -162.031,-205.035c3.328,86.204 68.309,156.45 162.031,191.072c120.523,44.522 243.229,13.382 287.751,-107.141c8.073,-21.854 12.293,-43.176 13.073,-63.704Zm-37.558,1.066c-3.419,-71.351 -59.227,-129.059 -137.088,-157.822c-99.961,-36.926 -203.317,-13.972 -240.243,85.989c-6.281,17.001 -9.641,33.535 -10.401,49.452c-0.973,-20.135 2.262,-41.384 10.401,-63.416c36.926,-99.96 140.282,-122.915 240.243,-85.988c82.88,30.616 140.772,94.031 137.088,171.785Z"/></g></g></svg>