<?xml version="1.0" encoding="UTF-8" standalone="no"?><!DOCTYPE svg PUBLIC "-//W3C//DTD SVG 1.1//EN" "http://www.w3.org/Graphics/SVG/1.1/DTD/svg11.dtd"><svg width="100%" height="100%" viewBox="0 0 1250 1438" version="1.1" xmlns="http://www.w3.org/2000/svg" xmlns:xlink="http://www.w3.org/1999/xlink" xml:space="preserve" xmlns:serif="http://www.serif.com/" style="fill-rule:evenodd;clip-rule:evenodd;stroke-linejoin:round;stroke-miterlimit:2;"><g id="Bush"><g id="GlassesBush"><path d="M55.964,905.587c-10.338,-1.011 -20.473,-1.808 -30.622,-2.302c-8.39,-0.408 -16.786,-0.532 -25.342,-0.293l-0,-146.339c7.792,-5.869 13.163,-14.665 22.054,-19.08c2.154,-1.07 7.487,6.465 6.509,9.909c-2.739,9.645 -10.172,16.742 -14.216,25.872c-0.834,1.883 -1.548,3.697 -2.191,5.467c3.264,0.117 6.515,0.275 9.76,0.473c9.26,0.567 18.453,1.407 27.697,2.454c-4.269,16.884 -6.301,34.339 -5.968,51.882c-0.457,24.11 3.536,48.517 12.319,71.957Zm373.453,-122.169c9.807,-2.984 19.53,-6.121 29.163,-9.322c9.29,-2.971 17.997,-7.564 27.21,-11.146c25.621,-9.962 51.322,-20.277 77.967,-26.574c19.235,-4.545 37.599,-6.934 57.199,-5.788c41.987,-4.934 84.209,-2.403 125.337,4.675c12.803,2.204 84.24,7.675 86.894,8.316c-11.032,22.466 -17.361,46.172 -19.305,69.923c-1.22,-0.912 -28.386,-13.048 -38.527,-16.79c-49.391,-18.23 -97.187,-28 -147.519,-18.784c-15.123,5.425 -27.051,14.934 -40.881,23.367c-8.42,5.134 -16.716,10.539 -25.053,15.885c6.551,2.177 12.865,4.815 18.928,8.011c17.211,9.072 31.707,21.83 47.396,35.275c14.552,12.005 28.774,22.811 41.961,36.036c1.679,1.684 3.88,2.951 4.998,5.075c1.669,3.172 -9.484,15.862 -12.695,14.769c-19.103,-6.505 -34.363,-18.586 -52.524,-27.407c-14.15,-6.37 -27.824,-10.863 -41.504,-16.117c-8.465,-3.251 -16.744,-6.715 -25.524,-9.284c-8.742,-2.558 -17.826,-4.629 -27.61,-5.596c-13.758,-1.656 -27.535,-2.087 -41.321,-1.759c-13.478,2.986 -27.134,5.31 -40.896,7.297c1.372,-10.02 1.974,-20.163 1.781,-30.336c0.315,-16.572 -1.474,-33.284 -5.475,-49.726Zm772.994,17.632c15.734,-2.81 31.955,-6.22 47.589,-6.983l0,118.72c-5.903,7.173 -13.097,13.335 -20.326,19.18c-8.787,7.107 -18.244,11.845 -27.359,18.439c-3.954,4.496 -9.254,2.208 -13.751,-1.746c-4.497,-3.953 -6.108,-5.938 -2.545,-12.58c4.364,-8.134 8.38,-15.978 13.226,-23.575c-3.385,0.141 -6.742,0.345 -10.063,0.64c10.881,-25.724 15.838,-52.801 15.331,-79.515c0.208,-10.933 -0.503,-21.832 -2.102,-32.58Z" style="fill:#6d2f1d;"/><path d="M748.836,743.432c-27.541,-69.849 19.386,-130.913 79.607,-143.217c6.626,61.893 -2.796,116.937 -79.607,143.217Z" style="fill:#327836;"/><path d="M748.836,743.432c18.166,-57.946 44.62,-104.727 79.607,-143.217c6.626,61.893 -2.796,116.937 -79.607,143.217Z" style="fill:#2a9730;"/><path d="M746.641,734.624c-48.223,-13.81 -61.503,-63.517 -43.533,-100.439c35.5,21.659 60.842,49.039 43.533,100.439Z" style="fill:#327836;"/><path d="M746.641,734.624c-23.325,-33.195 -37.361,-66.242 -43.533,-100.439c35.5,21.659 60.842,49.039 43.533,100.439Z" style="fill:#2a9730;"/><path d="M0,797.352c7.179,-1.597 14.329,-3.278 21.457,-5.029c9.128,-2.243 18.222,-4.6 27.298,-7.045c-2.712,11.627 -4.37,23.506 -4.931,35.483c-4.809,1.253 -9.625,2.478 -14.45,3.672c-9.746,2.412 -19.531,4.695 -29.374,6.821l0,-33.902Zm-0,77.136c11.445,-0.781 22.903,-1.43 34.363,-2.066c4.101,-0.228 8.203,-0.452 12.304,-0.683c1.454,8.105 3.433,16.168 5.949,24.141c-17.532,0.655 -35.08,0.843 -52.616,1.234l-0,-22.626Zm784.553,-135.271c15.358,3.354 30.645,6.93 45.854,10.268c-2.715,6.029 -5.101,12.137 -7.161,18.304c-26.685,-6.418 -53.57,-13.659 -80.768,-18.572c-19.338,-3.493 -38.834,-5.75 -58.458,-5.915c-28.079,-0.086 -56.744,1.023 -85.154,4.172c-28.23,3.13 -56.192,8.292 -83.098,15.939c-28.633,8.336 -56.517,18.803 -84.232,29.808c-0.62,-3.276 -1.326,-6.545 -2.119,-9.803c9.807,-2.984 19.53,-6.121 29.163,-9.322c9.29,-2.971 17.997,-7.564 27.21,-11.146c25.621,-9.962 51.322,-20.277 77.967,-26.574c19.235,-4.545 37.599,-6.934 57.199,-5.788c41.987,-4.934 84.209,-2.403 125.337,4.675c5.435,0.936 21.439,2.46 38.26,3.954Zm419.783,81.577c15.302,0.629 30.584,0.633 45.664,-0.125l0,30.862c-15.191,0.62 -30.564,0.527 -45.954,-0.185c0.425,-5.91 0.579,-11.822 0.467,-17.716c0.082,-4.286 0.022,-8.567 -0.177,-12.836Zm-6.328,66.606c4.932,0.001 9.857,-0.084 14.766,-0.267c12.556,-0.468 25.02,-1.533 37.226,-3.582l-0,29.236c-0.076,0.092 -0.151,0.184 -0.227,0.275c-11.737,2.054 -23.685,3.304 -35.735,3.877c-5.899,0.281 -11.82,0.401 -17.749,0.388c0.956,-1.619 1.938,-3.226 2.956,-4.822c-3.385,0.141 -6.742,0.345 -10.063,0.64c3.577,-8.456 6.513,-17.058 8.826,-25.745Zm-384.063,-74.653c-2.212,-0.812 -4.43,-1.615 -6.655,-2.407c-8.99,-4.099 -24.743,-10.974 -31.935,-13.628c-35.439,-13.081 -70.058,-21.805 -105.381,-22.286c2.005,-0.511 4.018,-0.98 6.04,-1.408c16.654,-3.526 33.811,-4.126 51.109,-2.993c30.104,1.972 60.707,9.795 90.282,19.282c-1.639,7.779 -2.788,15.606 -3.46,23.44Zm-379.234,33.315c14.186,-2.234 28.423,-4.559 42.731,-5.776c13.064,-1.111 26.175,-1.27 39.307,-0.079c13.672,1.306 27.265,3.658 40.794,6.642c26.098,5.755 51.957,13.743 77.903,19.516c11.91,9.666 23.514,18.925 34.417,29.812c-9.252,-0.769 -18.306,-1.816 -27.029,-3.152c-14.585,-2.278 -29.165,-5.419 -43.762,-8.698c-10.331,-4.134 -20.469,-7.61 -30.61,-11.505c-8.465,-3.251 -16.744,-6.715 -25.524,-9.284c-8.742,-2.558 -17.826,-4.629 -27.61,-5.596c-13.758,-1.656 -27.535,-2.087 -41.321,-1.759c-13.478,2.986 -27.134,5.31 -40.896,7.297c0.79,-5.771 1.325,-11.583 1.6,-17.418Z" style="fill:#7d3720;"/><path d="M24.995,771.141c8.536,0.568 17.025,1.36 25.556,2.327c2.39,0.271 4.547,1.561 5.915,3.539c1.369,1.979 1.816,4.452 1.226,6.784c-4.087,16.167 -6.034,32.882 -5.715,49.681c0.002,0.105 0.002,0.211 0,0.316c-0.438,23.078 3.384,46.439 11.79,68.875c1.01,2.694 0.558,5.718 -1.194,8c-1.752,2.282 -4.557,3.498 -7.42,3.218c-10.201,-0.997 -20.202,-1.785 -30.216,-2.272c-8.179,-0.398 -16.364,-0.52 -24.704,-0.287c-2.25,0.062 -4.429,-0.787 -6.043,-2.356c-1.613,-1.569 -2.523,-3.724 -2.523,-5.974l-0,-146.339c-0,-2.617 1.229,-5.083 3.319,-6.657c3.569,-2.688 6.549,-6.081 9.689,-9.273c4.077,-4.144 8.385,-7.988 13.672,-10.614c2.862,-1.421 7.629,-1.571 11.89,2.348c2.555,2.351 5.237,6.575 6.236,10.241c0.716,2.628 0.665,5.094 0.107,7.061c-1.605,5.65 -4.499,10.597 -7.67,15.426c-1.3,1.981 -2.655,3.938 -3.915,5.956Zm30.969,134.446c-8.783,-23.44 -12.776,-47.847 -12.319,-71.957c-0.333,-17.543 1.699,-34.998 5.968,-51.882c-9.244,-1.047 -18.437,-1.887 -27.697,-2.454c-3.245,-0.198 -6.496,-0.356 -9.76,-0.473c0.643,-1.77 1.357,-3.584 2.191,-5.467c4.044,-9.13 11.477,-16.227 14.216,-25.872c0.978,-3.444 -4.355,-10.979 -6.509,-9.909c-8.891,4.415 -14.262,13.211 -22.054,19.08l0,146.339c8.556,-0.239 16.952,-0.115 25.342,0.293c10.149,0.494 20.284,1.291 30.622,2.302Zm753.541,-84.993c-0.102,-0.053 -0.278,-0.143 -0.422,-0.215c-5.265,-2.607 -27.684,-12.554 -36.613,-15.85c-47.706,-17.607 -93.857,-27.257 -142.462,-18.523c-14.277,5.27 -25.576,14.392 -38.715,22.404c-3.782,2.306 -7.538,4.667 -11.283,7.054c1.584,0.752 3.152,1.536 4.705,2.355c17.73,9.345 32.715,22.42 48.906,36.295c14.733,12.15 29.115,23.114 42.467,36.504c2.26,2.267 4.966,4.219 6.471,7.079c1.052,1.997 1.616,4.879 0.539,8.345c-0.845,2.719 -3.193,6.591 -6.139,9.983c-3.582,4.125 -8.051,7.356 -10.81,8.215c-2.464,0.768 -4.622,0.581 -6.345,-0.006c-19.397,-6.604 -34.941,-18.777 -53.417,-27.767c-13.945,-6.266 -27.428,-10.687 -40.913,-15.866c-8.252,-3.169 -16.317,-6.561 -24.876,-9.065c-8.262,-2.417 -16.843,-4.387 -26.09,-5.301c-0.059,-0.006 -0.117,-0.012 -0.176,-0.019c-13.093,-1.576 -26.204,-2.004 -39.321,-1.721c-13.421,2.947 -27.013,5.255 -40.71,7.232c-2.59,0.374 -5.205,-0.49 -7.062,-2.334c-1.857,-1.843 -2.74,-4.452 -2.385,-7.044c1.315,-9.594 1.891,-19.306 1.706,-29.047c-0.002,-0.105 -0.002,-0.211 0,-0.316c0.301,-15.863 -1.41,-31.859 -5.24,-47.598c-1.045,-4.293 1.444,-8.656 5.671,-9.942c9.739,-2.964 19.395,-6.079 28.961,-9.258c0.03,-0.01 0.06,-0.02 0.09,-0.03c9.128,-2.919 17.675,-7.455 26.728,-10.975c25.981,-10.102 52.052,-20.532 79.071,-26.917c19.802,-4.679 38.722,-7.132 58.856,-6.038c42.551,-4.916 85.332,-2.35 127.009,4.823c12.885,2.217 84.767,7.783 87.439,8.428c2.457,0.594 4.513,2.272 5.587,4.561c1.074,2.29 1.05,4.943 -0.065,7.213c-10.56,21.504 -16.618,44.195 -18.48,66.929c-0.247,3.022 -2.117,5.671 -4.881,6.917c-2.537,1.144 -5.46,0.94 -7.801,-0.505Zm-380.088,-37.176c4.001,16.442 5.79,33.154 5.475,49.726c0.193,10.173 -0.409,20.316 -1.781,30.336c13.762,-1.987 27.418,-4.311 40.896,-7.297c13.786,-0.328 27.563,0.103 41.321,1.759c9.784,0.967 18.868,3.038 27.61,5.596c8.78,2.569 17.059,6.033 25.524,9.284c13.68,5.254 27.354,9.747 41.504,16.117c18.161,8.821 33.421,20.902 52.524,27.407c3.211,1.093 14.364,-11.597 12.695,-14.769c-1.118,-2.124 -3.319,-3.391 -4.998,-5.075c-13.187,-13.225 -27.409,-24.031 -41.961,-36.036c-15.689,-13.445 -30.185,-26.203 -47.396,-35.275c-6.063,-3.196 -12.377,-5.834 -18.928,-8.011c8.337,-5.346 16.633,-10.751 25.053,-15.885c13.83,-8.433 25.758,-17.942 40.881,-23.367c50.332,-9.216 98.128,0.554 147.519,18.784c10.141,3.742 37.307,15.878 38.527,16.79c1.944,-23.751 8.273,-47.457 19.305,-69.923c-2.654,-0.641 -74.091,-6.112 -86.894,-8.316c-41.128,-7.078 -83.35,-9.609 -125.337,-4.675c-19.6,-1.146 -37.964,1.243 -57.199,5.788c-26.645,6.297 -52.346,16.612 -77.967,26.574c-9.213,3.582 -17.92,8.175 -27.21,11.146c-9.633,3.201 -19.356,6.338 -29.163,9.322Zm755.583,136.936c-0.987,-0.573 -1.86,-1.35 -2.554,-2.302c-1.722,-2.365 -2.079,-5.459 -0.939,-8.153c10.415,-24.623 15.16,-50.541 14.674,-76.111c-0.002,-0.105 -0.002,-0.211 0,-0.316c0.199,-10.469 -0.482,-20.905 -2.013,-31.196c-0.663,-4.459 2.34,-8.637 6.778,-9.43c16.082,-2.872 32.667,-6.323 48.648,-7.103c2.278,-0.111 4.502,0.716 6.153,2.289c1.652,1.573 2.586,3.754 2.586,6.035l0,118.72c0,1.932 -0.671,3.804 -1.898,5.295c-6.258,7.605 -13.857,14.168 -21.521,20.365c-8.698,7.034 -18.028,11.8 -27.055,18.232c-7.208,7.377 -16.782,5.286 -24.797,-1.76c-3.794,-3.335 -5.93,-6.181 -6.806,-9.254c-0.951,-3.333 -0.842,-7.445 2.42,-13.524c2.144,-3.997 4.208,-7.924 6.324,-11.787Zm17.411,-119.304c1.599,10.748 2.31,21.647 2.102,32.58c0.507,26.714 -4.45,53.791 -15.331,79.515c3.321,-0.295 6.678,-0.499 10.063,-0.64c-4.846,7.597 -8.862,15.441 -13.226,23.575c-3.563,6.642 -1.952,8.627 2.545,12.58c4.497,3.954 9.797,6.242 13.751,1.746c9.115,-6.594 18.572,-11.332 27.359,-18.439c7.229,-5.845 14.423,-12.007 20.326,-19.18l0,-118.72c-15.634,0.763 -31.855,4.173 -47.589,6.983Z" style="fill:#5c1a12;"/><g><circle cx="239.269" cy="829.674" r="170.952" style="fill:#d9e5f4;fill-opacity:0.5;"/><path d="M335.626,659.39c15.686,-10.053 34.332,-15.884 54.329,-15.884c55.676,0 100.878,45.202 100.878,100.878c-0,39.549 -22.808,73.813 -55.977,90.344c0.945,-34.892 -7.428,-70.463 -26.144,-102.881c-18.117,-31.379 -43.637,-55.841 -73.086,-72.457Z" style="fill:#3a2500;"/><path d="M456.122,559.609c-1.37,-8.555 4.463,-16.613 13.018,-17.984c8.554,-1.37 16.612,4.463 17.983,13.018c6.177,38.56 -1.989,85.772 -34.404,115.369c0,-0 24.331,37.328 24.331,37.328c34.657,-20.833 85.635,-24.261 122.124,-1.989c7.395,4.514 9.734,14.182 5.221,21.577c-4.514,7.396 -14.183,9.735 -21.578,5.221c-30.581,-18.665 -75.151,-12.456 -99.424,9.291l-13.632,12.213l-59.748,-91.665l13.072,-8.589c31.814,-20.901 38.178,-61.699 33.037,-93.79Z" style="fill:#3a2500;"/><path d="M408.712,739.272c53.992,93.518 21.903,213.278 -71.615,267.271c-93.519,53.992 -213.279,21.903 -267.271,-71.615c-53.993,-93.518 -21.903,-213.278 71.615,-267.271c93.518,-53.993 213.278,-21.903 267.271,71.615Zm-27.19,15.698c-45.329,-78.512 -145.872,-105.452 -224.383,-60.123c-78.512,45.328 -105.452,145.871 -60.123,224.383c45.328,78.511 145.871,105.452 224.383,60.123c78.511,-45.329 105.452,-145.871 60.123,-224.383Z" style="fill:#580105;"/><path d="M408.712,731.847c53.992,93.518 21.903,213.278 -71.615,267.27c-93.519,53.993 -213.279,21.903 -267.271,-71.615c-53.993,-93.518 -21.903,-213.278 71.615,-267.27c93.518,-53.993 213.278,-21.904 267.271,71.615Zm-27.19,15.698c-45.329,-78.512 -145.872,-105.452 -224.383,-60.124c-78.512,45.329 -105.452,145.872 -60.123,224.383c45.328,78.512 145.871,105.452 224.383,60.124c78.511,-45.329 105.452,-145.872 60.123,-224.383Z" style="fill:#d71b24;"/><path d="M241.93,634.037c-2.417,10.647 -9.092,20.295 -19.283,26.178c-18.743,10.822 -42.568,4.974 -54.262,-12.93c23.91,-9.319 48.875,-13.614 73.545,-13.248Zm-155.781,73.783c5.822,1.108 11.147,4.646 14.34,10.176c5.822,10.084 2.362,22.998 -7.722,28.82c-9.513,5.492 -21.544,2.724 -27.765,-6.072c5.892,-11.58 12.959,-22.621 21.147,-32.924Zm10.388,255.729c3.449,-6.453 8.681,-12.052 15.479,-15.976c2.901,-1.675 5.923,-2.951 9.004,-3.844c14.965,15.529 32.622,27.681 51.783,36.137c0.751,10.809 -2.863,21.621 -10.139,29.817c-24.626,-10.452 -47.249,-25.985 -66.127,-46.134Zm-17.191,-96.238c-0.576,0.441 -1.187,0.849 -1.831,1.221c-8.079,4.665 -18.425,1.892 -23.089,-6.186c-4.665,-8.079 -1.892,-18.425 6.186,-23.089c4.622,-2.669 9.986,-2.903 14.603,-1.103c0.493,9.747 1.859,19.505 4.131,29.157Zm181.998,-200.383c1.558,-1.229 3.223,-2.361 4.992,-3.382c19.863,-11.468 45.299,-4.652 56.767,15.21c2.321,4.021 3.894,8.27 4.76,12.585c-20.198,-12.902 -42.952,-21.196 -66.519,-24.413Zm141.489,147.43c7.895,-3.82 17.531,-0.945 21.986,6.771c4.664,8.079 1.892,18.424 -6.187,23.089c-5.033,2.905 -10.946,2.925 -15.816,0.573c0.942,-10.072 0.959,-20.261 0.017,-30.433Zm-36.395,119.33c10.351,2.674 20.115,7.605 28.488,14.577c-15.255,20.056 -34.656,37.473 -57.829,50.852c-19.099,11.027 -39.292,18.463 -59.796,22.519c-2.596,-10.628 -2.713,-21.56 -0.562,-31.999c15.306,-3.586 30.349,-9.447 44.66,-17.709c17.719,-10.231 32.811,-23.273 45.039,-38.24Zm-107.559,59.096c-2.343,7.05 -7.177,13.303 -14.111,17.306c-15.034,8.68 -34.287,3.522 -42.967,-11.512c-1.826,-3.164 -3.04,-6.514 -3.678,-9.914c19.672,5.093 40.287,6.563 60.756,4.12Z" style="fill:#622b2e;"/></g><g><circle cx="1008.89" cy="829.674" r="170.952" style="fill:#d9e5f4;fill-opacity:0.5;"/><path d="M826.155,778.08c-18.2,3.983 -35.508,13.044 -49.648,27.184c-39.369,39.369 -39.369,103.294 0,142.663c27.966,27.965 68.321,36.066 103.465,24.301c-25.341,-24.004 -44.573,-55.077 -54.262,-91.235c-9.377,-34.997 -8.629,-70.341 0.445,-102.913Z" style="fill:#3a2500;"/><path d="M674.025,863.982c-6.697,-5.497 -7.67,-15.397 -2.173,-22.093c5.497,-6.697 15.397,-7.67 22.094,-2.173c2.949,2.421 10.798,3.676 19.569,5.105c15.084,2.457 33.251,3.994 41.195,0.341l16.723,-7.69l29.532,105.675l-15.296,4.124c-20.072,5.411 -46.426,20.946 -56.884,37.506c-4.627,7.325 -14.33,9.517 -21.655,4.89c-7.326,-4.626 -9.517,-14.329 -4.891,-21.655c11.456,-18.139 36.751,-36.027 60.263,-45.851c-0,-0 -12.459,-44.581 -12.458,-44.581c-12.423,1.128 -27.874,0.46 -41.576,-1.771c-15.794,-2.573 -29.133,-7.467 -34.443,-11.827Z" style="fill:#3a2500;"/><path d="M839.447,739.272c-53.993,93.518 -21.903,213.278 71.615,267.271c93.518,53.992 213.278,21.903 267.271,-71.615c53.992,-93.518 21.903,-213.278 -71.615,-267.271c-93.518,-53.993 -213.278,-21.903 -267.271,71.615Zm27.19,15.698c45.328,-78.512 145.871,-105.452 224.383,-60.123c78.511,45.328 105.452,145.871 60.123,224.383c-45.329,78.511 -145.871,105.452 -224.383,60.123c-78.512,-45.329 -105.452,-145.871 -60.123,-224.383Z" style="fill:#580105;"/><path d="M839.447,731.847c-53.993,93.518 -21.903,213.278 71.615,267.27c93.518,53.993 213.278,21.903 267.271,-71.615c53.992,-93.518 21.903,-213.278 -71.615,-267.27c-93.518,-53.993 -213.278,-21.904 -267.271,71.615Zm27.19,15.698c45.328,-78.512 145.871,-105.452 224.383,-60.124c78.511,45.329 105.452,145.872 60.123,224.383c-45.329,78.512 -145.871,105.452 -224.383,60.124c-78.512,-45.329 -105.452,-145.872 -60.123,-224.383Z" style="fill:#d71b24;"/><path d="M1006.23,634.037c2.417,10.647 9.091,20.295 19.282,26.178c18.744,10.822 42.569,4.974 54.262,-12.93c-23.909,-9.319 -48.875,-13.614 -73.544,-13.248Zm155.78,73.783c-5.822,1.108 -11.147,4.646 -14.34,10.176c-5.822,10.084 -2.361,22.998 7.723,28.82c9.513,5.492 21.544,2.724 27.764,-6.072c-5.892,-11.58 -12.959,-22.621 -21.147,-32.924Zm-10.388,255.729c-3.448,-6.453 -8.681,-12.052 -15.478,-15.976c-2.901,-1.675 -5.924,-2.951 -9.004,-3.844c-14.966,15.529 -32.622,27.681 -51.783,36.137c-0.751,10.809 2.862,21.621 10.139,29.817c24.626,-10.452 47.249,-25.985 66.126,-46.134Zm17.192,-96.238c0.576,0.441 1.186,0.849 1.831,1.221c8.079,4.665 18.424,1.892 23.089,-6.186c4.664,-8.079 1.892,-18.425 -6.187,-23.089c-4.622,-2.669 -9.985,-2.903 -14.603,-1.103c-0.492,9.747 -1.859,19.505 -4.13,29.157Zm-181.999,-200.383c-1.558,-1.229 -3.223,-2.361 -4.992,-3.382c-19.862,-11.468 -45.299,-4.652 -56.767,15.21c-2.321,4.021 -3.893,8.27 -4.76,12.585c20.199,-12.902 42.952,-21.196 66.519,-24.413Zm-141.489,147.43c-7.894,-3.82 -17.531,-0.945 -21.986,6.771c-4.664,8.079 -1.892,18.424 6.187,23.089c5.033,2.905 10.946,2.925 15.817,0.573c-0.942,-10.072 -0.96,-20.261 -0.018,-30.433Zm36.396,119.33c-10.351,2.674 -20.115,7.605 -28.488,14.577c15.254,20.056 34.656,37.473 57.829,50.852c19.098,11.027 39.291,18.463 59.795,22.519c2.597,-10.628 2.713,-21.56 0.563,-31.999c-15.307,-3.586 -30.35,-9.447 -44.66,-17.709c-17.719,-10.231 -32.812,-23.273 -45.039,-38.24Zm107.558,59.096c2.344,7.05 7.177,13.303 14.111,17.306c15.034,8.68 34.287,3.522 42.967,-11.512c1.827,-3.164 3.04,-6.514 3.678,-9.914c-19.672,5.093 -40.287,6.563 -60.756,4.12Z" style="fill:#622b2e;"/></g></g></g></svg>