<?xml version="1.0" encoding="UTF-8" standalone="no"?><!DOCTYPE svg PUBLIC "-//W3C//DTD SVG 1.1//EN" "http://www.w3.org/Graphics/SVG/1.1/DTD/svg11.dtd"><svg width="100%" height="100%" viewBox="0 0 300 345" version="1.1" xmlns="http://www.w3.org/2000/svg" xmlns:xlink="http://www.w3.org/1999/xlink" xml:space="preserve" xmlns:serif="http://www.serif.com/" style="fill-rule:evenodd;clip-rule:evenodd;stroke-linejoin:round;stroke-miterlimit:2;"><g id="Witch"><g id="Witch-Glasses" serif:id="Witch Glasses"><path d="M103.91,194.49c-0.02,0.813 -0.048,1.636 -0.081,2.469c-0.433,6.31 -0.99,13.104 -2.987,19.784c-3.701,12.379 -13.524,20.561 -24.182,21.415c-13.766,1.102 -31.357,1.317 -42.945,-1.155c-12.191,-2.599 -17.432,-9.804 -19.822,-16.348c-2.293,-6.278 -3.514,-21.201 -3.863,-29.158c-0.015,-0.363 -0.029,-0.722 -0.041,-1.077c0.236,-6.033 1.433,-10.612 4.168,-14.15c6.234,-8.061 14.391,-9.811 23.586,-10.126c0.009,0 35.233,0 35.233,0c8.464,0.205 16.452,2.178 22.796,7.875c6.18,5.549 7.887,12.43 8.138,20.471Zm186.056,-4.07c-0.012,0.355 -0.026,0.714 -0.042,1.077c-0.348,7.957 -1.569,22.88 -3.862,29.158c-2.39,6.544 -7.631,13.749 -19.822,16.348c-11.589,2.472 -29.179,2.257 -42.945,1.155c-10.659,-0.854 -20.481,-9.036 -24.182,-21.415c-1.997,-6.68 -2.554,-13.474 -2.987,-19.784c-0.033,-0.833 -0.061,-1.656 -0.082,-2.469c0.252,-8.041 1.959,-14.922 8.139,-20.471c6.344,-5.697 14.332,-7.67 22.796,-7.875c-0,0 35.224,0 35.233,0c9.195,0.315 17.352,2.065 23.585,10.126c2.736,3.538 3.933,8.117 4.169,14.15Z" style="fill:#ffe6cf;fill-opacity:0.5;"/><path d="M38.348,166.144c2.982,0 16.332,0 25.557,0l-52.104,44.939c-0.976,-6.673 -1.549,-14.533 -1.771,-19.586c-0.013,-0.302 -0.025,-0.602 -0.035,-0.898l28.353,-24.455Zm37.786,0.164c7.283,0.594 14.089,2.728 19.638,7.711c3.045,2.734 5.004,5.792 6.239,9.153l-63.394,54.677c-1.724,-0.238 -3.366,-0.518 -4.902,-0.846c-12.191,-2.599 -17.432,-9.804 -19.822,-16.348c-0.06,-0.164 -0.119,-0.334 -0.178,-0.51l62.419,-53.837Zm27.096,37.828c-0.346,3.231 -0.839,6.525 -1.635,9.812l-28.359,24.46c-3.307,0.218 -6.775,0.382 -10.284,0.468l40.278,-34.74Zm92.83,-10.105c0.303,-7.845 2.061,-14.569 8.123,-20.012c6.344,-5.697 14.332,-7.67 22.796,-7.875c-0,0 0.512,0 1.414,0l-32.333,27.887Zm43.02,-27.887c1.314,0 2.674,0 4.045,0l-46.187,39.836c-0.134,-1.069 -0.248,-2.132 -0.35,-3.187l42.492,-36.649Zm39.283,3.649c2.7,1.493 5.192,3.577 7.434,6.477c2.736,3.538 3.933,8.117 4.169,14.15c-0.012,0.355 -0.026,0.714 -0.042,1.077c-0.071,1.625 -0.178,3.539 -0.324,5.611l-48.501,41.832c-6.127,-0.04 -12.274,-0.339 -17.804,-0.782c-5.761,-0.462 -11.278,-3.064 -15.716,-7.314l70.784,-61.051Zm10.263,37.731c-0.592,4.919 -1.38,9.592 -2.383,12.61l-19.405,16.737c-0.198,0.045 -0.397,0.09 -0.598,0.132c-3.998,0.853 -8.71,1.386 -13.732,1.673l36.118,-31.152Z" style="fill:#fff8f1;fill-opacity:0.15;"/><path d="M149.913,189.17c-6.075,0.064 -12.372,4.663 -12.372,13.031c0,2.762 -2.238,5 -5,5l-19.087,0c-0.495,5.656 -1.29,11.553 -3.031,17.377c-4.994,16.705 -18.582,27.367 -32.965,28.519c-14.691,1.177 -33.461,1.295 -45.828,-1.342c-16.784,-3.579 -23.84,-13.689 -27.13,-22.698c-2.531,-6.929 -4.075,-23.37 -4.46,-32.15c-0.534,-12.176 1.432,-20.579 6.207,-26.754c8.318,-10.757 18.975,-13.598 31.253,-14.006c0.055,-0.002 0.111,-0.003 0.166,-0.003l35.37,0c0.039,0 0.078,0.001 0.117,0.001c10.918,0.255 21.119,3.086 29.301,10.434c9.1,8.172 11.435,18.356 11.47,30.622c-0,0 14.077,0 14.077,0c2.238,-11.711 12.274,-17.942 21.835,-18.031c0.025,-0 0.051,-0 0.077,-0c0.043,-0.001 0.086,-0.001 0.129,-0c0.026,-0 0.051,-0 0.077,0c9.56,0.089 19.597,6.32 21.835,18.031c0,0 14.077,0 14.077,0c0.035,-12.266 2.37,-22.45 11.47,-30.622c8.182,-7.348 18.383,-10.179 29.301,-10.434c0.039,-0 0.078,-0.001 0.117,-0.001l35.37,0c0.055,0 0.111,0.001 0.166,0.003c12.278,0.408 22.935,3.249 31.253,14.006c4.775,6.175 6.741,14.578 6.207,26.754c-0.385,8.78 -1.929,25.221 -4.46,32.15c-3.29,9.009 -10.346,19.119 -27.13,22.698c-12.367,2.637 -31.137,2.519 -45.828,1.342c-14.384,-1.152 -27.971,-11.814 -32.965,-28.519c-1.741,-5.824 -2.537,-11.721 -3.031,-17.377l-19.087,0c-2.762,0 -5,-2.238 -5,-5c-0,-8.368 -6.297,-12.967 -12.372,-13.031c-0.043,-0 -0.086,-0 -0.129,-0Zm-46.084,12.76c0.449,-11.292 -0.049,-20.72 -8.057,-27.911c-6.344,-5.697 -14.332,-7.67 -22.796,-7.875c-0,0 -35.224,0 -35.233,0c-9.195,0.315 -17.352,2.065 -23.586,10.126c-3.584,4.635 -4.527,11.059 -4.127,20.199c0.349,7.956 1.57,22.879 3.863,29.158c2.39,6.544 7.631,13.748 19.822,16.348c11.588,2.471 29.179,2.256 42.945,1.154c10.658,-0.853 20.481,-9.036 24.182,-21.415c1.997,-6.68 2.554,-13.474 2.987,-19.784Zm92.297,0c0.433,6.31 0.99,13.104 2.987,19.784c3.701,12.379 13.523,20.562 24.182,21.415c13.766,1.102 31.356,1.317 42.945,-1.154c12.191,-2.6 17.432,-9.804 19.822,-16.348c2.293,-6.279 3.514,-21.202 3.862,-29.158c0.401,-9.14 -0.542,-15.564 -4.127,-20.199c-6.233,-8.061 -14.39,-9.811 -23.585,-10.126c-0.009,0 -35.233,0 -35.233,0c-8.464,0.205 -16.452,2.178 -22.796,7.875c-8.008,7.191 -8.506,16.619 -8.057,27.911Z" style="fill:#673427;"/><path d="M149.913,184.199c-6.075,0.064 -12.372,4.663 -12.372,13.031c0,2.761 -2.238,5 -5,5l-19.087,0c-0.495,5.656 -1.29,11.552 -3.031,17.377c-4.994,16.705 -18.582,27.367 -32.965,28.519c-14.691,1.176 -33.461,1.295 -45.828,-1.342c-16.784,-3.58 -23.84,-13.689 -27.13,-22.698c-2.531,-6.929 -4.075,-23.37 -4.46,-32.151c-0.534,-12.175 1.432,-20.578 6.207,-26.753c8.318,-10.757 18.975,-13.598 31.253,-14.006c0.055,-0.002 0.111,-0.003 0.166,-0.003l35.37,-0c0.039,-0 0.078,0 0.117,0.001c10.918,0.255 21.119,3.086 29.301,10.433c9.1,8.173 11.435,18.357 11.47,30.623c-0,0 14.077,0 14.077,0c2.238,-11.712 12.274,-17.943 21.835,-18.031c0.025,-0 0.051,-0.001 0.077,-0.001c0.043,0 0.086,0 0.129,0c0.026,0 0.051,0.001 0.077,0.001c9.56,0.088 19.597,6.319 21.835,18.031c0,0 14.077,0 14.077,0c0.035,-12.266 2.37,-22.45 11.47,-30.623c8.182,-7.347 18.383,-10.178 29.301,-10.433c0.039,-0.001 0.078,-0.001 0.117,-0.001l35.37,-0c0.055,-0 0.111,0.001 0.166,0.003c12.278,0.408 22.935,3.249 31.253,14.006c4.775,6.175 6.741,14.578 6.207,26.753c-0.385,8.781 -1.929,25.222 -4.46,32.151c-3.29,9.009 -10.346,19.118 -27.13,22.698c-12.367,2.637 -31.137,2.518 -45.828,1.342c-14.384,-1.152 -27.971,-11.814 -32.965,-28.519c-1.741,-5.825 -2.537,-11.721 -3.031,-17.377l-19.087,0c-2.762,0 -5,-2.239 -5,-5c-0,-8.368 -6.297,-12.967 -12.372,-13.031c-0.043,-0.001 -0.086,-0.001 -0.129,-0Zm-46.084,12.76c0.449,-11.293 -0.049,-20.72 -8.057,-27.911c-6.344,-5.698 -14.332,-7.67 -22.796,-7.875c-0,-0 -35.224,-0 -35.233,0c-9.195,0.315 -17.352,2.064 -23.586,10.126c-3.584,4.635 -4.527,11.059 -4.127,20.198c0.349,7.957 1.57,22.88 3.863,29.158c2.39,6.544 7.631,13.749 19.822,16.348c11.588,2.472 29.179,2.257 42.945,1.155c10.658,-0.854 20.481,-9.036 24.182,-21.415c1.997,-6.68 2.554,-13.474 2.987,-19.784Zm92.297,0c0.433,6.31 0.99,13.104 2.987,19.784c3.701,12.379 13.523,20.561 24.182,21.415c13.766,1.102 31.356,1.317 42.945,-1.155c12.191,-2.599 17.432,-9.804 19.822,-16.348c2.293,-6.278 3.514,-21.201 3.862,-29.158c0.401,-9.139 -0.542,-15.563 -4.127,-20.198c-6.233,-8.062 -14.39,-9.811 -23.585,-10.126c-0.009,-0 -35.233,-0 -35.233,-0c-8.464,0.205 -16.452,2.177 -22.796,7.875c-8.008,7.191 -8.506,16.618 -8.057,27.911Z" style="fill:#895c50;"/><path d="M0.051,192.187c-0.004,-0.084 -0.007,-0.168 -0.011,-0.252c-0.256,-5.84 0.063,-10.812 0.991,-15.087c2.783,0.311 6.138,0.673 9.975,1.063c-0.978,3.703 -1.213,8.167 -0.976,13.586c0.062,1.414 0.152,3.048 0.27,4.815c-2.861,-1.484 -6.342,-3.043 -10.249,-4.125Zm9.597,-30.851c7.748,-7.616 17.189,-9.806 27.852,-10.16c0.055,-0.002 0.111,-0.003 0.166,-0.003l35.37,-0c0.039,-0 0.078,0 0.117,0.001c10.918,0.255 21.119,3.086 29.301,10.433c1.04,0.935 1.993,1.896 2.863,2.883c-4.458,0.612 -8.948,1.161 -13.463,1.618c-5.581,-3.464 -12.076,-4.77 -18.878,-4.935c-0,-0 -35.224,-0 -35.233,0c-4.806,0.165 -9.329,0.721 -13.442,2.366c-4.934,-0.714 -10.012,-1.475 -14.653,-2.203Zm198.887,-6.639c5.664,-2.331 11.841,-3.373 18.267,-3.523c0.039,-0.001 0.078,-0.001 0.117,-0.001l35.37,-0c0.055,-0 0.111,0.001 0.166,0.003c12.278,0.408 22.935,3.249 31.253,14.006c0.478,0.617 0.927,1.258 1.349,1.921c-1.603,-0.047 -3.29,-0.133 -5.066,-0.261c-1.162,-0.083 -1.993,0.143 -7.238,0.249c-0.337,0.006 -0.673,0.012 -1.008,0.017c-5.556,-4.525 -12.216,-5.684 -19.533,-5.935c-0.008,-0 -24.879,-0 -32.824,-0c-0.012,-0.003 -0.023,-0.005 -0.035,-0.008c-1.629,-0.366 -1.639,-0.322 -3.212,-0.876c-6.47,-2.28 -12.115,-4.262 -17.606,-5.592Zm90.366,50.41c-0.733,6.922 -1.819,14.092 -3.226,18.344c-0.887,0.252 -3.642,1.037 -4.125,1.241c-0.26,0.11 -4.141,2.771 -4.499,3.016c-7.582,5.2 -12.695,9.44 -24.515,9.967c1.29,-0.198 2.528,-0.421 3.704,-0.672c12.191,-2.599 17.432,-9.804 19.822,-16.348c1.471,-4.026 2.5,-11.608 3.141,-18.628c3.158,1.05 6.411,2.095 9.698,3.08Zm-44.319,43.434c-10.406,0.691 -22.173,0.379 -32.085,-0.415c-8.39,-0.672 -16.51,-4.58 -22.811,-11.036c1.857,-0.131 3.794,-0.189 5.819,-0.159c14.45,0.209 26.149,4.53 34.069,6.627c7.942,2.104 8.033,1.787 8.673,2.103c2.21,1.092 4.317,2.048 6.335,2.88Zm-160.472,-6.321c-5.067,3.39 -10.794,5.437 -16.652,5.906c-11.982,0.959 -26.678,1.215 -38.399,-0.154c6.853,-2.468 13.033,-4.493 16.358,-5.508c9.972,-3.043 14.63,-3.535 14.728,-3.539c5.07,-0.216 9.974,0.093 16.276,1.366c2.414,0.487 4.888,1.119 7.689,1.929Zm-74.325,-12.242c3.155,3.091 7.608,5.677 13.93,7.025c2.502,0.534 5.284,0.942 8.247,1.244c-0.593,0.148 -1.195,0.301 -1.809,0.457l-18.494,4.734c-9.814,-4.754 -14.614,-12.382 -17.159,-19.352c-0.125,-0.343 -0.248,-0.708 -0.368,-1.095c5.194,3.379 7.834,5.262 14.709,6.786c0.315,0.07 0.629,0.137 0.944,0.201Zm70.646,2.569c4.686,-3.742 8.427,-9.17 10.411,-15.804c1.247,-4.174 1.933,-8.392 2.378,-12.508c7.484,-3.698 11.856,-5.311 17.314,-6.626l-0.001,-0.005c2.355,-0.453 8.499,0.32 16.75,1.215c-0.664,1.982 -2.536,3.411 -4.742,3.411l-19.087,0c-0.495,5.656 -1.29,11.552 -3.031,17.377c-1.634,5.465 -4.187,10.283 -7.387,14.333c-7.902,-1.042 -9.521,-1.09 -12.454,-1.379c-0.05,-0.005 -0.101,-0.009 -0.151,-0.014Zm12.945,-49c-0.417,-2.587 -1.105,-5.028 -2.191,-7.316c3.363,-0.616 6.7,-1.271 10.008,-1.953c0.805,2.137 1.398,4.367 1.822,6.689c-3.145,0.632 -6.366,1.517 -9.639,2.58Zm114.242,-21.271c-4.926,1.134 -9.497,3.235 -13.435,6.772c-5.695,5.113 -7.592,11.357 -8.051,18.599c-3.317,0.326 -6.493,0.496 -9.996,0.533c0.539,-10.476 3.286,-19.317 11.365,-26.573c1.166,-1.047 2.374,-2.003 3.618,-2.872c5.191,0.389 9.954,1.552 16.499,3.541Zm-84.561,19.474c4.34,-4.919 10.657,-7.494 16.779,-7.551c0.025,-0 0.051,-0.001 0.077,-0.001c0.043,0 0.086,0 0.129,0c0.026,0 0.051,0.001 0.077,0.001c8.232,0.076 16.817,4.706 20.473,13.469c-4.957,-0.371 -9.65,-0.932 -14.061,-1.584c-1.975,-1.22 -4.247,-1.862 -6.489,-1.885c-0.043,-0.001 -0.086,-0.001 -0.129,-0c-0.903,0.009 -1.811,0.119 -2.703,0.326c-5.245,-0.966 -9.977,-1.966 -14.153,-2.775Zm166.811,2.121c0.159,2.489 0.174,5.17 0.047,8.064c-0.092,2.093 -0.25,4.621 -0.471,7.351c-3.399,-0.771 -6.705,-1.601 -9.827,-2.424c0.137,-1.977 0.239,-3.805 0.307,-5.365c0.117,-2.66 0.12,-5.09 -0.023,-7.312c2.673,0.014 6.106,-0.033 9.967,-0.314Zm-110.793,34.126c-1.428,-5.298 -2.125,-10.631 -2.574,-15.767l-19.087,0c-1.393,0 -2.652,-0.569 -3.559,-1.487c7.809,0.165 19.292,-0.053 32.354,-2.584c0.426,5.967 1.033,12.325 2.904,18.584c0.18,0.601 0.374,1.192 0.582,1.773c-3.568,-0.403 -7.098,-0.569 -10.62,-0.519Z" style="fill:#9c6a5c;"/></g></g></svg>