<?xml version="1.0" encoding="UTF-8" standalone="no"?><!DOCTYPE svg PUBLIC "-//W3C//DTD SVG 1.1//EN" "http://www.w3.org/Graphics/SVG/1.1/DTD/svg11.dtd"><svg width="100%" height="100%" viewBox="0 0 1250 1438" version="1.1" xmlns="http://www.w3.org/2000/svg" xmlns:xlink="http://www.w3.org/1999/xlink" xml:space="preserve" xmlns:serif="http://www.serif.com/" style="fill-rule:evenodd;clip-rule:evenodd;stroke-linejoin:round;stroke-miterlimit:2;"><g id="GlassesHolographic"><path d="M497.34,968.127c-10.597,28.293 -38.628,46.168 -68.751,43.842c-101.889,-7.694 -309.078,-26.531 -428.589,-60.646l-0,-326.544c416.667,52.358 833.333,52.64 1250,-0l0,325.535c-119.956,35.516 -328.244,54.312 -429.728,61.753c-29.538,2.235 -56.979,-15.385 -67.237,-43.175c-19.248,-52.056 -69.332,-89.248 -128.035,-89.248c-58.404,0 -108.277,36.814 -127.66,88.483Z" style="fill:url(#_Linear1);"/><path d="M22.265,957.262l0,-7.639l-22.265,-0l0,-11.763l22.265,0l0,-35.758l-22.265,-0l0,-11.763l22.265,0l0,-33.876l-22.265,-0l0,-11.763l22.265,0l0,-35.758l-22.265,-0l0,-11.763l22.265,-0l0,-34.817l-22.265,-0l0,-11.763l22.265,-0l0,-35.759l-22.265,0l0,-11.762l22.265,-0l0,-33.877l-22.265,0l0,-11.762l22.265,-0l0,-29.912c3.921,0.475 7.842,0.946 11.763,1.412l0,28.5l35.759,-0l-0,-24.378c3.92,0.438 7.841,0.871 11.762,1.3l0,23.078l33.877,-0l-0,-19.489c3.921,0.403 7.841,0.8 11.762,1.193l0,18.296l35.759,-0l-0,-14.841c3.921,0.365 7.842,0.725 11.762,1.081l0,13.76l34.818,-0l-0,-10.725c3.921,0.329 7.842,0.652 11.762,0.971l0,9.754l35.759,-0l-0,-6.973c3.921,0.29 7.842,0.577 11.763,0.858l-0,6.115l33.876,-0l0,-3.797c3.921,0.255 7.842,0.505 11.763,0.751l-0,3.046l35.758,-0l0,-0.935c3.921,0.218 7.842,0.431 11.763,0.639l-0,0.296l5.629,-0c172.064,8.943 344.128,8.962 516.192,-0l26.083,-0l-0,-1.428c3.921,-0.225 7.842,-0.454 11.763,-0.689l-0,2.117l34.817,-0l-0,-4.319c3.921,-0.262 7.842,-0.529 11.763,-0.8l-0,5.119l35.758,-0l0,-7.722c3.921,-0.3 7.842,-0.604 11.763,-0.913l-0,8.635l33.876,-0l0,-11.421c3.921,-0.336 7.842,-0.676 11.763,-1.022l-0,12.443l35.758,-0l0,-15.721c3.921,-0.373 7.842,-0.752 11.763,-1.135l-0,16.856l34.817,-0l0,-20.38c3.921,-0.411 7.842,-0.826 11.763,-1.246l-0,21.626l35.758,-0l0,-25.587c3.921,-0.449 7.842,-0.902 11.763,-1.36l0,26.947l33.877,-0l-0,-31.02c3.92,-0.485 7.841,-0.974 11.762,-1.468l0,32.488l1.361,-0l0,11.762l-1.361,0l0,33.877l1.361,-0l0,11.762l-1.361,0l0,35.759l1.361,-0l0,11.763l-1.361,-0l0,34.817l1.361,-0l0,11.763l-1.361,-0l0,35.758l1.361,0l0,11.763l-1.361,-0l0,33.876l1.361,0l0,11.763l-1.361,-0l0,35.758l1.361,0l0,11.763l-1.361,-0l0,1.092c-3.834,1.125 -7.757,2.233 -11.762,3.325l-0,-4.417l-33.877,-0l0,12.841c-3.872,0.882 -7.794,1.752 -11.763,2.609l0,-15.45l-35.758,-0l-0,22.629c-3.893,0.728 -7.815,1.445 -11.763,2.153l0,-24.782l-34.817,-0l-0,30.662c-3.907,0.623 -7.829,1.236 -11.763,1.841l0,-32.503l-35.758,-0l-0,34.817l20.337,0c-30.258,4.438 -60.97,8.347 -90.795,11.763l-22.702,-0l-0,2.527c-3.945,0.426 -7.867,0.844 -11.763,1.253l-0,-3.78l-34.817,-0l-0,7.282c-3.963,0.381 -7.886,0.753 -11.763,1.116l-0,-8.398l-35.759,-0l0,11.592c-3.995,0.341 -7.918,0.671 -11.762,0.988l-0,-12.58l-33.877,-0l0,15.255c-2.806,0.211 -5.542,0.414 -8.205,0.609c-1.19,0.09 -2.376,0.148 -3.557,0.174l-0,-16.038l-35.759,-0l0,6.491c-7.678,-4.641 -14.409,-10.83 -19.703,-18.254l7.941,0l-0,-34.817l-25.051,-0c-2.269,-4.053 -4.738,-7.978 -7.395,-11.763l32.446,0l-0,-35.758l-32.701,-0l0,35.396c-3.593,-5.085 -7.525,-9.914 -11.762,-14.454l-0,-20.942l-24.783,-0c-7.14,-4.71 -14.748,-8.767 -22.738,-12.086l-0,-33.553l-33.877,-0l0,24.406c-3.872,-0.522 -7.795,-0.88 -11.762,-1.069l-0,-23.337l-35.759,-0l0,26.319c-3.989,0.872 -7.912,1.919 -11.762,3.132l-0,-29.451l-34.818,-0l0,33.876l22.791,0c-7.706,3.258 -15.051,7.205 -21.958,11.763l-0.833,-0l0,0.554c-4.082,2.737 -8.008,5.689 -11.763,8.839l0,-9.393l-35.758,-0l0,35.758l11.59,0c-2.652,3.785 -5.117,7.71 -7.38,11.763l-4.21,-0l0,8.175c-1.593,3.37 -3.053,6.815 -4.371,10.329c-1.921,5.13 -4.416,9.917 -7.392,14.303l0,-32.807l-33.876,-0l-0,34.817l32.458,0c-3.205,4.374 -6.904,8.316 -10.996,11.763l-21.462,-0l-0,12.215c-3.8,1.321 -7.735,2.31 -11.763,2.94l0,-15.155l-35.758,-0l-0,14.212c-3.819,-0.304 -7.742,-0.621 -11.763,-0.951l0,-13.261l-34.817,-0l-0,10.282c-3.865,-0.344 -7.788,-0.699 -11.763,-1.063l0,-9.219l-35.758,-0l-0,5.799c-3.889,-0.388 -7.811,-0.784 -11.763,-1.189l0,-4.61l-33.876,-0l-0,0.996c-34.59,-3.842 -70.591,-8.319 -105.864,-13.477l-0,-34.099l-35.759,-0l0,28.58c-3.941,-0.642 -7.863,-1.293 -11.762,-1.954l-0,-26.626l-33.877,-0l0,20.534c-3.957,-0.756 -7.879,-1.523 -11.762,-2.301l-0,-18.233l-35.759,-0l0,10.489c-3.985,-0.937 -7.908,-1.887 -11.763,-2.85Zm1027.35,-288.061l-33.876,0l-0,33.877l33.876,-0l0,-33.877Zm47.521,0l-35.758,0l-0,33.877l35.758,-0l0,-33.877Zm46.58,0l-34.817,0l-0,33.877l34.817,-0l0,-33.877Zm93.161,81.398l-0,-35.759l-33.877,0l0,35.759l33.877,-0Zm-0,139.74l-0,-33.876l-33.877,-0l0,33.876l33.877,0Zm-0,-93.16l-0,-34.817l-33.877,-0l0,34.817l33.877,-0Zm-1202.85,104.923l0,35.758l35.759,0l-0,-35.758l-35.759,-0Zm0,-93.16l0,35.758l35.759,0l-0,-35.758l-35.759,-0Zm0,-94.102l0,35.759l35.759,-0l-0,-35.759l-35.759,0Zm1157.21,-45.639l-35.758,0l-0,33.877l35.758,-0l0,-33.877Zm-746.928,0l-35.758,0l-0,33.877l35.758,-0l0,-33.877Zm232.901,0l-33.877,0l0,33.877l33.877,-0l-0,-33.877Zm-93.16,0l-34.818,0l0,33.877l34.818,-0l-0,-33.877Zm-327.002,0l-35.759,0l0,33.877l35.759,-0l-0,-33.877Zm280.421,0l-35.758,0l0,33.877l35.758,-0l0,-33.877Zm279.246,0l-35.759,0l0,33.877l35.759,-0l-0,-33.877Zm45.639,0l-33.877,0l0,33.877l33.877,-0l-0,-33.877Zm-828.326,187.262l0,33.876l35.759,0l-0,-33.876l-35.759,-0Zm0,-187.262l0,33.877l35.759,-0l-0,-33.877l-35.759,0Zm175.499,0l-34.818,0l0,33.877l34.818,-0l-0,-33.877Zm93.16,0l-33.876,0l-0,33.877l33.876,-0l0,-33.877Zm-268.659,93.161l0,34.817l35.759,-0l-0,-34.817l-35.759,-0Zm128.919,-93.161l-35.759,0l0,33.877l35.759,-0l-0,-33.877Zm327.001,0l-33.876,0l-0,33.877l33.876,-0l0,-33.877Zm-374.522,0l-33.877,0l0,33.877l33.877,-0l-0,-33.877Zm281.362,0l-34.817,0l-0,33.877l34.817,-0l0,-33.877Zm234.783,0l-35.759,0l0,33.877l35.759,-0l-0,-33.877Zm-281.363,0l-35.758,0l-0,33.877l35.758,-0l0,-33.877Zm374.523,0l-35.759,0l0,33.877l35.759,-0l-0,-33.877Zm44.463,0l-32.701,0l0,33.877l32.701,-0l-0,-33.877Zm140.681,0l-35.759,0l0,33.877l35.759,-0l-0,-33.877Zm327.002,175.499l-0,-35.758l-33.877,-0l0,35.758l33.877,0Zm-0,93.16l-0,-35.758l-33.877,-0l0,35.758l33.877,0Zm-1155.33,-223.02l0,35.759l33.877,-0l-0,-35.759l-33.877,0Zm840.089,269.6l34.817,0l-0,-34.817l-34.817,-0l-0,34.817Zm-513.087,0l35.758,0l0,-34.817l-35.758,-0l-0,34.817Zm-327.002,-175.498l0,35.758l33.877,0l-0,-35.758l-33.877,-0Zm93.16,175.498l34.818,0l-0,-34.817l-34.818,-0l0,34.817Zm-93.16,-82.338l0,35.758l33.877,0l-0,-35.758l-33.877,-0Zm127.978,-187.262l-34.818,0l0,35.759l34.818,-0l-0,-35.759Zm664.589,269.6l35.759,0l-0,-34.817l-35.759,-0l0,34.817Zm-559.666,0l35.758,0l0,-34.817l-35.758,-0l-0,34.817Zm-45.639,0l33.876,0l0,-34.817l-33.876,-0l-0,34.817Zm-187.262,-222.078l0,34.817l33.877,-0l-0,-34.817l-33.877,-0Zm175.499,-47.522l-35.759,0l0,35.759l35.759,-0l-0,-35.759Zm-35.759,269.6l35.759,0l-0,-34.817l-35.759,-0l0,34.817Zm128.919,-269.6l-35.758,0l-0,35.759l35.758,-0l0,-35.759Zm-187.261,0l-35.759,0l0,35.759l35.759,-0l-0,-35.759Zm233.841,0l-34.817,0l-0,35.759l34.817,-0l0,-35.759Zm-315.239,141.623l0,33.876l33.877,0l-0,-33.876l-33.877,-0Zm221.138,-141.623l-33.876,0l-0,35.759l33.876,-0l0,-35.759Zm141.622,0l-35.758,0l-0,35.759l35.758,-0l0,-35.759Zm523.909,269.6l35.758,0l0,-34.817l-35.758,-0l-0,34.817Zm-139.741,0l33.877,0l-0,-34.817l-33.877,-0l0,34.817Zm-47.521,0l35.759,0l-0,-34.817l-35.759,-0l0,34.817Zm-291.008,-269.6l-33.876,0l-0,35.759l33.876,-0l0,-35.759Zm47.521,0l-35.758,0l0,35.759l35.758,-0l0,-35.759Zm-175.498,269.6l34.817,0l0,-34.817l-34.817,-0l-0,34.817Zm222.079,-269.6l-34.818,0l0,35.759l34.818,-0l-0,-35.759Zm431.689,269.6l33.876,0l0,-34.817l-33.876,-0l-0,34.817Zm-384.168,-269.6l-35.759,0l0,35.759l35.759,-0l-0,-35.759Zm230.783,0l-33.877,0l0,35.759l33.877,-0l-0,-35.759Zm-453.803,223.02l35.758,0l0,-35.758l-35.758,-0l-0,35.758Zm-46.58,0l34.817,0l0,-35.758l-34.817,-0l-0,35.758Zm466.506,0l33.877,0l-0,-35.758l-33.877,-0l0,35.758Zm221.138,-223.02l-33.876,0l-0,35.759l33.876,-0l0,-35.759Zm-735.165,223.02l35.758,0l0,-35.758l-35.758,-0l-0,35.758Zm876.787,-93.16l0,-35.758l-35.758,-0l-0,35.758l35.758,0Zm-317.121,93.16l35.759,0l-0,-35.758l-35.759,-0l0,35.758Zm-418.044,0l33.876,0l0,-35.758l-33.876,-0l-0,35.758Zm-234.783,0l35.759,0l-0,-35.758l-35.759,-0l0,35.758Zm47.522,0l33.876,0l0,-35.758l-33.876,-0l-0,35.758Zm922.426,-47.521l0,-33.876l-35.758,-0l-0,33.876l35.758,0Zm-82.338,47.521l34.817,0l0,-35.758l-34.817,-0l-0,35.758Zm82.338,0l0,-35.758l-35.758,-0l-0,35.758l35.758,0Zm-129.859,0l35.758,0l0,-35.758l-35.758,-0l-0,35.758Zm-151.503,-223.02l-35.759,0l0,35.759l35.759,-0l-0,-35.759Zm58.343,223.02l35.758,0l0,-35.758l-35.758,-0l-0,35.758Zm-11.763,-223.02l-34.817,0l-0,35.759l34.817,-0l-0,-35.759Zm59.284,223.02l33.876,0l0,-35.758l-33.876,-0l-0,35.758Zm81.397,-223.02l-35.758,0l-0,35.759l35.758,-0l0,-35.759Zm-175.498,223.02l34.817,0l-0,-35.758l-34.817,-0l-0,35.758Zm-244.428,-223.02l-33.877,0l0,35.759l33.877,-0l-0,-35.759Zm103.746,223.02l35.759,0l-0,-35.758l-35.759,-0l0,35.758Zm-11.762,-223.02l-32.701,0l0,35.759l32.701,-0l-0,-35.759Zm422.043,82.339l0,-34.817l-35.758,-0l-0,34.817l35.758,-0Zm-374.522,-82.339l-35.759,0l0,35.759l35.759,-0l-0,-35.759Zm187.261,0l-35.758,0l-0,35.759l35.758,-0l0,-35.759Zm139.74,0l-34.817,0l-0,35.759l34.817,-0l0,-35.759Zm-418.985,0l-35.759,0l0,35.759l35.759,-0l-0,-35.759Zm466.506,0l-35.758,0l-0,35.759l35.758,-0l0,-35.759Zm-746.928,47.522l-35.758,-0l-0,34.817l35.758,-0l0,-34.817Zm187.262,-0l-35.759,-0l0,34.817l35.759,-0l-0,-34.817Zm137.623,-0l-32.701,-0l0,34.817l32.701,-0l-0,-34.817Zm-642.006,94.101l0,33.876l35.759,0l-0,-33.876l-35.759,-0Zm175.499,-94.101l-33.876,-0l-0,34.817l33.876,-0l0,-34.817Zm281.363,-0l-34.818,-0l0,34.817l34.818,-0l-0,-34.817Zm93.16,-0l-33.877,-0l0,34.817l33.877,-0l-0,-34.817Zm-502.501,175.498l34.818,0l-0,-35.758l-34.818,-0l0,35.758Zm315.239,-175.498l-33.876,-0l-0,34.817l33.876,-0l0,-34.817Zm47.521,-0l-35.758,-0l0,34.817l35.758,-0l0,-34.817Zm-327.942,-0l-34.818,-0l0,34.817l34.818,-0l-0,-34.817Zm140.681,-0l-35.758,-0l-0,34.817l35.758,-0l0,-34.817Zm-223.02,46.58l0,35.758l35.759,0l-0,-35.758l-35.759,-0Zm597.543,-46.58l-35.759,-0l0,34.817l35.759,-0l-0,-34.817Zm-597.543,-0l0,34.817l35.759,-0l-0,-34.817l-35.759,-0Zm269.6,-0l-34.817,-0l-0,34.817l34.817,-0l0,-34.817Zm-269.6,175.498l35.759,0l-0,-35.758l-35.759,-0l0,35.758Zm129.86,-175.498l-35.759,-0l0,34.817l35.759,-0l-0,-34.817Zm699.407,-93.161l-34.817,0l-0,33.877l34.817,-0l-0,-33.877Zm47.521,0l-35.758,0l-0,33.877l35.758,-0l0,-33.877Zm232.901,0l-33.877,0l0,33.877l33.877,-0l-0,-33.877Zm-327.002,93.161l-35.759,-0l0,34.817l35.759,-0l-0,-34.817Zm-408.164,127.977l35.758,0l0,-33.876l-35.758,-0l0,33.876Zm642.005,-45.639l0,-35.758l-34.817,-0l-0,35.758l34.817,0Zm-281.362,-82.338l-33.877,-0l0,34.817l33.877,-0l-0,-34.817Zm94.101,-0l-34.817,-0l-0,34.817l34.817,-0l-0,-34.817Zm-500.383,127.977l33.876,0l0,-33.876l-33.876,-0l-0,33.876Zm-47.521,0l35.758,0l0,-33.876l-35.758,-0l-0,33.876Zm-46.58,0l34.817,0l0,-33.876l-34.817,-0l-0,33.876Zm327.001,0l35.759,0l-0,-33.876l-35.759,-0l0,33.876Zm-374.522,0l35.758,0l0,-33.876l-35.758,-0l-0,33.876Zm653.768,0l35.758,0l0,-33.876l-35.758,-0l-0,33.876Zm-793.509,0l34.818,0l-0,-33.876l-34.818,-0l0,33.876Zm0,-81.397l0,35.758l34.818,0l-0,-35.758l-34.818,-0Zm127.978,-0l-33.876,-0l-0,35.758l33.876,0l0,-35.758Zm47.521,-0l-35.758,-0l-0,35.758l35.758,0l0,-35.758Zm46.58,-0l-34.817,-0l-0,35.758l34.817,0l0,-35.758Zm746.928,81.397l0,-33.876l-34.817,-0l-0,33.876l34.817,0Zm-407.223,0l32.701,0l-0,-33.876l-32.701,-0l0,33.876Zm324.885,0l35.758,0l0,-33.876l-35.758,-0l-0,33.876Zm-187.262,0l35.759,0l-0,-33.876l-35.759,-0l0,33.876Zm-57.401,-127.977l-35.759,-0l0,34.817l35.759,-0l-0,-34.817Zm327.001,-0l-34.817,-0l-0,34.817l34.817,-0l0,-34.817Zm-922.427,127.977l35.759,0l-0,-33.876l-35.759,-0l0,33.876Zm35.759,-81.397l-35.759,-0l0,35.758l35.759,0l-0,-35.758Zm523.908,81.397l35.759,0l-0,-33.876l-35.759,-0l0,33.876Zm47.521,0l33.877,0l-0,-33.876l-33.877,-0l0,33.876Zm-559.666,0l33.876,0l0,-33.876l-33.876,-0l-0,33.876Zm780.804,-127.977l-33.876,-0l-0,34.817l33.876,-0l0,-34.817Zm-45.639,-0l-35.758,-0l-0,34.817l35.758,-0l0,-34.817Zm11.763,127.977l33.876,0l0,-33.876l-33.876,-0l-0,33.876Zm81.397,-127.977l-35.758,-0l-0,34.817l35.758,-0l0,-34.817Zm-175.498,127.977l34.817,0l-0,-33.876l-34.817,-0l-0,33.876Zm-152.444,-81.397l-32.701,-0l0,35.758l32.701,0l-0,-35.758Zm-231.725,-0l-35.758,-0l0,35.758l35.758,0l0,-35.758Zm559.667,-0l-35.758,-0l-0,35.758l35.758,0l0,-35.758Zm-280.421,-0l-35.759,-0l0,35.758l35.759,0l-0,-35.758Zm139.74,-0l-34.817,-0l-0,35.758l34.817,0l-0,-35.758Zm-372.405,-0l-34.818,-0l0,35.758l34.818,0l-0,-35.758Zm325.825,-0l-35.759,-0l0,35.758l35.759,0l-0,-35.758Zm-47.521,-0l-33.877,-0l0,35.758l33.877,0l-0,-35.758Zm187.261,-0l-33.876,-0l-0,35.758l33.876,0l0,-35.758Zm-559.667,-0l-33.876,-0l-0,35.758l33.876,0l0,-35.758Zm141.623,-0l-35.759,-0l0,35.758l35.759,0l-0,-35.758Zm45.639,-0l-33.877,-0l0,35.758l33.877,0l-0,-35.758Zm47.521,-0l-35.759,-0l0,35.758l35.759,0l-0,-35.758Zm279.245,-0l-35.758,-0l-0,35.758l35.758,0l0,-35.758Zm-559.667,-0l-35.758,-0l-0,35.758l35.758,0l0,-35.758Z" style="fill:#00a692;fill-opacity:0.25;"/><path d="M495.641,739.37l-95.629,-2.217l-44.394,38.166c0.426,1.529 0.653,3.14 0.653,4.804c0,9.871 -8.013,17.884 -17.884,17.884c-9.871,0 -17.884,-8.013 -17.884,-17.884c-0,-9.871 8.013,-17.884 17.884,-17.884c2.019,-0 3.96,0.335 5.771,0.953l49.842,-42.85l102.298,2.372c2.197,-8.157 9.651,-14.168 18.498,-14.168l64.475,-0c10.572,-0 19.155,8.583 19.155,19.155l0,38.31c0,10.572 -8.583,19.155 -19.155,19.155l-64.475,-0c-10.572,-0 -19.155,-8.583 -19.155,-19.155l0,-26.641Zm226.025,69.873l31.82,-0l32.864,51.502l42.464,-3.336c2.678,-7.535 9.875,-12.936 18.323,-12.936c10.729,0 19.439,8.71 19.439,19.439c-0,10.728 -8.71,19.439 -19.439,19.439c-6.259,-0 -11.83,-2.965 -15.387,-7.564l-55.048,4.324l-33.384,-52.317l-21.652,-0l0,4.338c0,7.514 -6.1,13.615 -13.614,13.615l-45.825,-0c-7.514,-0 -13.615,-6.101 -13.615,-13.615l0,-27.228c0,-7.514 6.101,-13.614 13.615,-13.614l45.825,-0c7.514,-0 13.614,6.1 13.614,13.614l0,4.339Zm-451.271,4.951l-0,-34.071l22.163,-0l-0,34.071l34.071,0l-0,22.163l-34.071,-0l-0,34.071l-22.163,0l-0,-34.071l-34.071,-0l-0,-22.163l34.071,0Zm568.731,-54.188l-4.814,-50.398l50.721,-4.845l1.81,18.462l-32.3,3.086l3.046,31.885l-18.463,1.81Zm278.146,-77.428l53.684,-5.128l4.735,49.563l-18.463,1.81l-2.975,-31.142l-35.172,3.36l-1.809,-18.463Zm73.9,206.501l5.175,54.174l-55.999,5.349l-1.81,-18.463l37.578,-3.589l-3.406,-35.661l18.462,-1.81Zm-279.441,81.362l-52.028,4.97l-5.095,-53.339l18.462,-1.81l3.336,34.918l33.515,-3.202l1.81,18.463Zm-892.209,-54.95l50.502,-45.063c6.176,1.678 12.398,3.32 18.667,4.925l-50.147,45.156c-6.388,-1.635 -12.729,-3.308 -19.022,-5.018Zm38.299,9.807l49.788,-45.245c6.342,1.528 12.73,3.02 19.165,4.476l-49.429,45.33c-6.556,-1.484 -13.064,-3.004 -19.524,-4.561Zm39.293,8.895l49.07,-45.408c6.502,1.38 13.052,2.725 19.649,4.035l-48.71,45.483c-6.717,-1.335 -13.387,-2.705 -20.009,-4.11Zm40.253,7.997l48.35,-45.551c6.658,1.236 13.363,2.437 20.115,3.604l-47.991,45.616c-6.872,-1.189 -13.697,-2.411 -20.474,-3.669Zm41.175,7.121l47.632,-45.676c6.807,1.094 13.661,2.155 20.563,3.183l-47.276,45.731c-7.022,-1.046 -13.994,-2.125 -20.919,-3.238Zm42.053,6.265l46.921,-45.782c6.95,0.957 13.947,1.881 20.991,2.773l-46.569,45.828c-7.163,-0.907 -14.277,-1.847 -21.343,-2.819Zm42.89,5.434l46.22,-45.87c7.086,0.823 14.219,1.615 21.4,2.376l-45.873,45.908c-7.297,-0.773 -14.546,-1.578 -21.747,-2.414Zm43.687,4.631l45.53,-45.943c7.216,0.694 14.479,1.358 21.789,1.992l-45.191,45.975c-7.423,-0.644 -14.799,-1.319 -22.128,-2.024Zm44.439,3.857l44.855,-46.002c7.339,0.57 14.725,1.111 22.158,1.623l-44.524,46.026c-7.544,-0.52 -15.04,-1.069 -22.489,-1.647Zm-304.988,-284.586c14.958,-0 27.101,12.143 27.101,27.101c0,14.957 -12.143,27.101 -27.101,27.101c-14.958,0 -27.101,-12.144 -27.101,-27.101c-0,-14.958 12.143,-27.101 27.101,-27.101Zm-0,75.783c8.443,0 15.297,6.855 15.297,15.297c0,8.443 -6.854,15.298 -15.297,15.298c-8.443,-0 -15.297,-6.855 -15.297,-15.298c-0,-8.442 6.854,-15.297 15.297,-15.297Z" style="fill:#00ae99;fill-opacity:0.75;"/><path d="M0,646.993l0,-27.138c416.667,52.358 833.333,52.64 1250,-0l0,27.138c-416.667,52.64 -833.333,52.358 -1250,-0Z" style="fill:#463359;"/><path d="M0,637.056l0,-27.138c416.667,52.358 833.333,52.64 1250,-0l0,27.138c-416.667,52.64 -833.333,52.358 -1250,-0Z" style="fill:#5b2d88;"/></g><defs><linearGradient id="_Linear1" x1="0" y1="0" x2="1" y2="0" gradientUnits="userSpaceOnUse" gradientTransform="matrix(2.05625e-14,335.811,-105.085,6.4346e-15,625,676.43)"><stop offset="0" style="stop-color:#3100f9;stop-opacity:0.5"/><stop offset="0.54" style="stop-color:#0ea2d5;stop-opacity:0.5"/><stop offset="1" style="stop-color:#00e2c6;stop-opacity:0.5"/></linearGradient></defs></svg>