<?xml version="1.0" encoding="UTF-8" standalone="no"?><!DOCTYPE svg PUBLIC "-//W3C//DTD SVG 1.1//EN" "http://www.w3.org/Graphics/SVG/1.1/DTD/svg11.dtd"><svg width="100%" height="100%" viewBox="0 0 300 345" version="1.1" xmlns="http://www.w3.org/2000/svg" xmlns:xlink="http://www.w3.org/1999/xlink" xml:space="preserve" xmlns:serif="http://www.serif.com/" style="fill-rule:evenodd;clip-rule:evenodd;stroke-linejoin:round;stroke-miterlimit:2;"><g id="Targets"><g><g><path d="M88.405,149.231c0.806,1.949 0.548,4.264 -0.165,5.866c-0.254,0.571 -0.572,1.088 -0.94,1.555c2.108,-1.458 4.265,-2.69 6.487,-3.632c-0.434,-1.896 -0.663,-3.869 -0.663,-5.896c-0,-0.819 0.037,-1.629 0.11,-2.429c-1.351,-2.947 -1.786,-7.07 -0.11,-12.09c1.825,-5.469 6.721,-10.38 11.489,-12.632c4.936,-2.97 11.937,-2.591 15.478,0.826c3.095,0.073 6.058,0.681 8.801,1.736c2.61,-3.917 6.137,-6.477 10.183,-7.606c4.044,-1.128 8.644,-0.822 13.415,1.113c-1.115,0.822 -1.931,2.025 -2.255,3.417c-3.585,-1.311 -7.025,-1.531 -10.086,-0.677c-2.995,0.836 -5.596,2.704 -7.597,5.495c7.807,4.488 13.101,12.862 13.235,22.474c2.433,3.757 2.471,9.748 -0.13,14.138c-2.219,4.783 -7.097,9.713 -12.553,11.575c-3.864,1.32 -7.203,1.379 -9.885,0.726c-1.229,0.176 -2.485,0.267 -3.762,0.267c-1.59,0 -3.147,-0.141 -4.66,-0.411c-3.324,4.745 -7.405,8.735 -11.82,12.39l-19.623,-25.763c0.179,-0.15 0.357,-0.298 0.536,-0.444c-1.297,0.59 -2.704,0.94 -4.033,1.101l-0.16,-6.865l-6.408,2.593c-0.32,-3.02 0.214,-5.755 2.029,-8.062c2.034,-2.586 6.438,-3.995 10.517,-1.589l0.602,-1.232l1.666,3.433c0.114,0.202 0.214,0.411 0.302,0.623Zm29.697,40.533c0.546,1.13 0.812,2.378 0.734,3.618c0.221,3.498 -2.121,5.918 -6.581,6.354c-2.48,0.243 -5.833,-1.626 -8.583,-3.951l4.538,-3.898l-5.294,-3.31c2.216,-2.286 5.089,-3.392 8.445,-3.258c1.802,0.073 3.388,0.74 4.631,1.762l0.009,-1.52l2.005,4.012c0.032,0.063 0.064,0.127 0.096,0.191Z" style="fill:#003c89;"/><path d="M148.494,121.708l0,-4.21l11.806,-0l-0,4.21c-0,3.258 -2.645,5.903 -5.903,5.903c-3.258,-0 -5.903,-2.645 -5.903,-5.903Z" style="fill:#698740;"/><path d="M93.428,149.231l20.346,19.69c-3.422,5.111 -7.717,9.35 -12.385,13.215l-19.623,-25.763c3.724,-3.117 7.582,-5.628 11.662,-7.142Z" style="fill:#156ee1;"/><path d="M130.963,120.978c7.908,4.545 13.238,13.078 13.238,22.846c0,14.534 -11.799,26.333 -26.333,26.333c-14.534,0 -26.333,-11.799 -26.333,-26.333c-0,-14.533 11.799,-26.333 26.333,-26.333c3.324,0 6.506,0.618 9.436,1.744c2.61,-3.917 6.136,-6.477 10.182,-7.606c4.729,-1.319 10.216,-0.677 15.848,2.236c0.981,0.507 1.365,1.715 0.858,2.695c-0.507,0.981 -1.715,1.365 -2.695,0.858c-4.603,-2.381 -9.072,-3.014 -12.936,-1.936c-2.996,0.836 -5.597,2.704 -7.598,5.496Z" style="fill:#156ee1;"/><path d="M88.848,151.379c5.374,1.871 18.171,13.641 20.43,23.291c-2.424,2.695 -5.089,5.148 -7.889,7.466l-19.623,-25.763c2.302,-1.927 4.656,-3.623 7.082,-4.994" style="fill:#155ebb;"/><path d="M108.068,148.863c0.266,2.622 1.49,4.117 3.761,4.379c-1.537,-1.275 -2.401,-3.045 -2.168,-5.618c-0.652,0.352 -1.176,0.769 -1.593,1.239Z" style="fill:#008bfd;"/><path d="M115.935,135.904c2.189,-5.104 3.077,-10.207 2.025,-15.31c12.297,1.368 23.315,9.964 20.95,22.429c-3.176,-0.289 -6.352,-0.053 -9.528,0.738c-1.687,-4.855 -6.359,-7.322 -13.447,-7.857Z" style="fill:#008bfd;"/><circle cx="154.397" cy="117.498" r="5.903" style="fill:#b5e278;"/><circle cx="154.977" cy="116.427" r="3.837" style="fill:#c7f688;"/><path d="M106.595,150.165c-8.671,10.641 -6.169,14.1 4.071,4.339c-2.335,-0.379 -3.694,-1.823 -4.071,-4.339Z" style="fill:#81d1ed;"/><path d="M106.595,150.165c0.377,2.516 1.736,3.96 4.071,4.339c-10.24,9.761 -12.742,6.302 -4.071,-4.339Zm-4.26,9.065c0.203,-0.037 0.573,-0.119 0.888,-0.26c1.3,-0.583 3.143,-1.896 5.488,-4.014c-1.157,-0.541 -2.008,-1.417 -2.545,-2.634c-1.813,2.373 -2.974,4.294 -3.52,5.684c-0.151,0.383 -0.252,0.717 -0.296,1.002c-0.011,0.069 -0.014,0.151 -0.015,0.222Z" style="fill:#003c89;"/><g><path d="M102.739,116.85c5.495,-3.51 13.774,-2.72 16.821,1.919l-9.094,9.678l-7.727,-11.597Z" style="fill:#156ee1;"/><path d="M110.835,115.973c5.523,2.791 5.281,13.6 1.106,21.861c-4.176,8.262 -10.714,10.868 -16.237,8.077c-3.591,-1.815 -7.093,-7.843 -4.169,-16.606c2.93,-8.78 13.778,-16.123 19.3,-13.332Z" style="fill:#3f214a;"/><path d="M104.612,118.071c1.574,-0.367 4.514,-0.316 5.943,5.495c1.341,5.454 -3.037,16.614 -7.974,19.098c-1.417,0.713 -3.252,0.805 -4.636,0.291c-0.967,-0.36 -4.973,-2.505 -3.432,-11.775c0.262,-1.573 2.069,-6.257 4.81,-9.524c1.622,-1.933 4.261,-3.345 5.289,-3.585Z" style="fill:#591074;"/><path d="M111.662,127.254c0.018,1.215 -0.309,4.326 -2.396,5.652c-4.295,2.729 -6.657,-0.888 -4.912,-4.914c2.474,-5.709 1.728,-6.508 3.67,-7.038c1.049,-0.286 1.858,0.605 2.388,1.337c0.929,1.28 1.228,3.545 1.25,4.963Z" style="fill:#f9f7fa;"/><path d="M95.847,133.309c1.508,1.411 0.478,6.634 -1.583,5.013c-2.113,-1.661 0.292,-6.221 1.583,-5.013Z" style="fill:#f9f7fa;"/></g><g><path d="M143.894,157.875c3.472,-5.519 2.625,-13.792 -2.034,-16.807l-9.616,9.16l11.65,7.647Z" style="fill:#156ee1;"/><path d="M144.716,149.773c-2.829,-5.503 -13.636,-5.187 -21.869,-0.955c-8.233,4.232 -10.794,10.788 -7.965,16.291c1.84,3.579 7.892,7.04 16.634,4.055c8.76,-2.99 16.028,-13.888 13.2,-19.391Z" style="fill:#3f214a;"/><path d="M139.558,152.461c0.644,0.6 3.607,3.361 -5.781,9.361c-0.654,0.418 -5.996,3.044 -7.7,3.587c-2.383,0.758 -2.406,1.277 -4.789,0.563c-3.515,-1.053 -4.037,-4.106 -3.439,-5.689c0.422,-1.114 0.542,-2.326 5.081,-5.68c1.663,-1.229 6.904,-3.594 9.39,-3.62c5.588,-0.059 6.806,1.075 7.238,1.478Z" style="fill:#591074;"/><path d="M133.429,149.024c-1.216,-0.01 -4.324,0.339 -5.636,2.435c-2.699,4.313 0.934,6.651 4.948,4.878c5.692,-2.513 6.496,-1.773 7.013,-3.719c0.279,-1.05 -0.618,-1.853 -1.353,-2.379c-1.287,-0.919 -3.554,-1.203 -4.972,-1.215Z" style="fill:#f9f7fa;"/><path d="M127.483,164.88c-1.422,-1.498 -6.638,-0.433 -5.002,1.617c1.676,2.102 6.219,-0.335 5.002,-1.617Z" style="fill:#f9f7fa;"/></g></g><g><g><circle cx="55.821" cy="198.639" r="55.821" style="fill:#e0587d;"/><circle cx="55.821" cy="200.329" r="31.118" style="fill:#ffdcf6;"/><circle cx="55.821" cy="200.329" r="12.932" style="fill:#e0587d;"/><path d="M55.821,167.712c18.002,-0 32.618,14.615 32.618,32.617c-0,18.003 -14.616,32.618 -32.618,32.618c-18.002,0 -32.617,-14.615 -32.617,-32.618c-0,-18.002 14.615,-32.617 32.617,-32.617Zm0,3c-16.346,-0 -29.617,13.271 -29.617,29.617c-0,16.347 13.271,29.618 29.617,29.618c16.347,0 29.618,-13.271 29.618,-29.618c-0,-16.346 -13.271,-29.617 -29.618,-29.617Z" style="fill:#ce2b57;"/><path d="M55.821,185.897c7.966,0 14.433,6.467 14.433,14.432c-0,7.966 -6.467,14.433 -14.433,14.433c-7.965,-0 -14.432,-6.467 -14.432,-14.433c-0,-7.965 6.467,-14.432 14.432,-14.432Zm0,3c-6.309,0 -11.432,5.123 -11.432,11.432c-0,6.31 5.123,11.433 11.432,11.433c6.31,-0 11.433,-5.123 11.433,-11.433c-0,-6.309 -5.123,-11.432 -11.433,-11.432Z" style="fill:#ce2b57;"/></g><path d="M55.821,146.207c30.809,0 55.822,25.013 55.822,55.821c-0,30.809 -25.013,55.822 -55.822,55.822c-30.808,-0 -55.821,-25.013 -55.821,-55.822c0,-30.808 25.013,-55.821 55.821,-55.821Zm0,14.038c-23.06,0 -41.783,18.723 -41.783,41.783c0,23.061 18.723,41.783 41.783,41.783c23.061,0 41.783,-18.722 41.783,-41.783c0,-23.06 -18.722,-41.783 -41.783,-41.783Z" style="fill:#424242;"/><path d="M55.821,142.818c30.809,-0 55.822,25.012 55.822,55.821c-0,30.809 -25.013,55.821 -55.822,55.821c-30.808,0 -55.821,-25.012 -55.821,-55.821c0,-30.809 25.013,-55.821 55.821,-55.821Zm0,14.038c-23.06,-0 -41.783,18.722 -41.783,41.783c0,23.061 18.723,41.783 41.783,41.783c23.061,-0 41.783,-18.722 41.783,-41.783c0,-23.061 -18.722,-41.783 -41.783,-41.783Z" style="fill:#606060;"/><path d="M73.205,240.885c-0.159,0.203 -0.193,0.486 -0.353,0.688c-0,0.001 -2.418,1.373 -5.32,2.427c-14.188,5.15 -31.016,2.315 -42.413,-8.974c-6.584,-6.521 -9.013,-13.606 -9.848,-16.182c-0.013,-0.041 -0.051,-0.081 -0.038,-0.122c0.097,-0.303 0.164,-0.273 0.262,-0.577c0.151,0.147 0.426,0.114 0.577,0.262c0.216,0.21 5.717,15.969 25.186,23.232c8.772,3.273 19.962,4.044 30.602,-0.617c0.545,-0.239 0.533,-0.267 0.584,-0.262c0.256,0.025 0.505,0.101 0.761,0.125Z" style="fill:#737373;"/><path d="M105.422,191.462c-0.15,-0.181 -0.433,-0.219 -0.583,-0.401c-0.009,-0.012 -2.887,-15.291 -17.14,-27.078c-7.043,-5.823 -18.884,-12.527 -37.437,-10.948c-3.033,0.258 -23.935,1.539 -38.691,22.048c-1.233,1.714 -2.082,3.115 -2.089,3.119c-0.2,0.125 -0.469,0.317 -0.676,0.206c-0.571,-0.305 -0.3,-0.477 -0.029,-1.063c8.843,-19.125 27.509,-31.62 50.068,-30.321c4.143,0.239 15.308,1.449 26.329,9.623c12.165,9.023 18.938,22.418 20.587,33.785c0.021,0.148 0.108,0.303 0.062,0.446c-0.113,0.342 -0.287,0.238 -0.401,0.584Z" style="fill:#737373;"/></g><path d="M103.856,192.485l2.766,-2.375l-5.295,-3.311l0,-1.522l1.693,0.091c1.919,-1.311 4.195,-1.928 6.752,-1.826c4.549,0.183 7.721,4.156 7.476,8.063c0.22,3.498 -2.121,5.918 -6.582,6.354c-2.479,0.243 -5.832,-1.626 -8.583,-3.951l0,-1.523l1.773,0Zm-32.243,-39.697c0,-0.069 0,-0.137 0,-0.205l0,-1.618l0.118,-0.009c0.243,-1.72 0.876,-3.31 1.999,-4.738c2.141,-2.722 6.909,-4.14 11.159,-1.174c2.876,2.006 2.814,5.915 1.763,8.276c-1.489,3.344 -5.162,4.842 -8.384,5.233l-0.16,-6.865l-6.407,2.593c-0.054,-0.506 -0.084,-1.004 -0.088,-1.493Z" style="fill:#003c89;"/><path d="M106.622,188.587l-5.295,-3.31c2.217,-2.286 5.089,-3.392 8.445,-3.257c4.549,0.182 7.721,4.155 7.476,8.062c0.22,3.498 -2.121,5.918 -6.582,6.355c-2.479,0.242 -5.832,-1.627 -8.583,-3.952l4.539,-3.898Zm-28.514,-38.422l-6.407,2.593c-0.321,-3.019 0.213,-5.754 2.029,-8.062c2.141,-2.722 6.909,-4.141 11.159,-1.175c2.876,2.007 2.814,5.915 1.763,8.276c-1.489,3.345 -5.162,4.843 -8.384,5.233l-0.16,-6.865Z" style="fill:#156ee1;"/><path d="M104.492,184.972l4.672,3.114l-3.186,3.044c6.047,1.875 10.91,-0.339 9.061,-4.07c-1.974,-3.981 -6.884,-4.166 -10.547,-2.088Z" style="fill:#008bfd;"/><path d="M80.266,154.581l-0.575,-6.15l-4.469,1.062c0.548,-3.817 4.351,-6.59 7.433,-4.955c3.616,1.92 3.317,7.535 -2.389,10.043Z" style="fill:#008bfd;"/></g><g><g><path d="M216.167,144.265c3.805,-1.712 7.715,-0.327 9.597,2.065c1.815,2.308 2.349,5.043 2.029,8.063l-6.408,-2.593l-0.16,6.865c-3.222,-0.391 -6.895,-1.889 -8.383,-5.233c-0.936,-2.104 -1.088,-5.435 0.923,-7.556c0.159,-0.168 0.333,-0.329 0.521,-0.481l1.882,-1.74l-0.001,0.61Zm-31.18,40.607c0.4,-0.179 0.82,-0.327 1.258,-0.438c-1.556,-2.283 -2.969,-4.663 -4.184,-7.178c-3.903,0.77 -8.038,0.664 -12.128,-0.475c-1.231,-0.343 -2.417,-0.767 -3.553,-1.267c-2.759,-0.09 -5.96,-1.043 -9.329,-3.35c-4.756,-3.258 -8.133,-9.315 -8.988,-14.519c-1.328,-4.926 0.316,-10.688 3.667,-13.654c0.488,-1.663 1.127,-3.241 1.897,-4.725c-6.45,-1.416 -11.745,-5.297 -13.849,-10.668c-0.403,-1.027 0.104,-2.189 1.132,-2.591c1.028,-0.403 2.189,0.104 2.592,1.132c1.809,4.616 6.695,7.654 12.414,8.485c3.623,-4.831 8.805,-8.254 14.593,-9.733c1.308,-0.334 2.109,-0.482 2.828,-0.574c2.02,-5.473 2.285,-12.302 0.625,-17.382c-0.343,-1.05 0.231,-2.18 1.28,-2.523c1.05,-0.342 2.18,0.231 2.523,1.28c1.749,5.357 1.67,12.401 -0.136,18.39c1.926,0.047 3.875,0.308 5.817,0.8c4.328,-2.342 11.174,-0.829 15.133,3.356c3.989,3.449 7.388,9.493 7.679,15.251c0.268,5.286 -1.257,9.141 -3.349,11.617c-0.144,0.791 -0.325,1.581 -0.545,2.37c-0.099,0.356 -0.205,0.708 -0.318,1.056c3.875,3.68 8.19,7.599 10.964,11l-17.841,15.9c0.397,0.311 0.776,0.653 1.138,1.026l-5.294,3.31l4.538,3.898c-2.75,2.325 -6.103,4.194 -8.583,3.952c-4.46,-0.437 -6.802,-2.857 -6.581,-6.354c-0.154,-2.442 1.028,-4.91 3.046,-6.462l1.839,-1.738l-0.285,0.808Z" style="fill:#582d77;"/><path d="M203.192,156.184l-19.757,16.702c2.396,5.665 5.814,10.638 9.669,15.314l22.272,-19.85c-3.069,-3.763 -8.025,-8.159 -12.184,-12.166Z" style="fill:#aa51e7;"/><path d="M155.993,137.084c-6.451,-1.415 -11.745,-5.297 -13.85,-10.667c-0.403,-1.027 0.105,-2.189 1.132,-2.592c1.028,-0.402 2.19,0.105 2.592,1.133c1.809,4.616 6.696,7.653 12.414,8.484c3.623,-4.83 8.805,-8.254 14.593,-9.732c1.309,-0.335 2.11,-0.482 2.828,-0.574c2.021,-5.473 2.286,-12.302 0.626,-17.383c-0.343,-1.049 0.231,-2.179 1.28,-2.522c1.049,-0.343 2.179,0.231 2.522,1.28c1.75,5.356 1.67,12.401 -0.136,18.39c2.129,0.052 4.286,0.365 6.431,0.963c14.001,3.898 22.203,18.43 18.305,32.431c-3.899,14.001 -18.431,22.203 -32.432,18.305c-14.001,-3.899 -22.203,-18.431 -18.305,-32.432c0.5,-1.794 1.174,-3.493 2,-5.084Z" style="fill:#aa51e7;"/><path d="M159.391,142.782c1.87,-11.23 15.105,-17.444 25.855,-14.125c-2.312,4.319 -4.425,9.834 -1.486,17.566l-5.1,3.276c-5.642,-4.024 -11.791,-6.89 -19.269,-6.717Z" style="fill:#b964f4;"/><path d="M181.639,160.411c2.677,-0.78 4.785,-2.2 6.603,-3.946c-1.228,3.147 -3.55,4.236 -6.603,3.946Z" style="fill:#b964f4;"/><path d="M174.093,97.43l5.616,10.376c0,0 -4.299,2.477 -4.407,2.538c-1.293,0.691 -2.843,0.905 -4.365,0.481c-3.139,-0.873 -4.977,-4.131 -4.104,-7.269c0.423,-1.518 1.403,-2.732 2.658,-3.482c0.059,-0.035 4.602,-2.644 4.602,-2.644Zm-33.055,33.878c-1.829,-3.376 -4.375,-6.309 -7.433,-8.593c0.383,-0.581 0.862,-1.083 1.409,-1.489c0.351,-0.259 5.042,-2.941 5.042,-2.941l6.14,10.079l-4.334,2.474c-0.261,0.178 -0.537,0.336 -0.824,0.47Z" style="fill:#698740;"/><path d="M144.641,117.68c3.139,0.873 4.977,4.131 4.103,7.269c-0.873,3.139 -4.131,4.977 -7.269,4.104c-3.139,-0.874 -4.977,-4.132 -4.103,-7.27c0.873,-3.139 4.131,-4.977 7.269,-4.103Zm33.986,-20.826c3.139,0.874 4.977,4.132 4.103,7.27c-0.874,3.139 -4.131,4.977 -7.269,4.103c-3.139,-0.873 -4.977,-4.131 -4.104,-7.269c0.874,-3.139 4.132,-4.977 7.27,-4.104Z" style="fill:#b5e278;"/><circle cx="143.523" cy="122.427" r="3.837" style="fill:#c7f688;"/><circle cx="177.748" cy="101.696" r="3.837" style="fill:#c7f688;"/><path d="M188.52,158.364c5.499,12.577 2.161,15.238 -5.085,3.087c2.351,0.261 4.047,-0.765 5.085,-3.087Z" style="fill:#e74de7;"/><path d="M188.52,158.364c5.499,12.577 2.161,15.238 -5.085,3.087c2.351,0.261 4.047,-0.765 5.085,-3.087Zm1.673,9.875c0.018,-0.068 0.037,-0.148 0.045,-0.218c0.034,-0.286 0.026,-0.635 -0.016,-1.044c-0.154,-1.486 -0.757,-3.648 -1.866,-6.42c-0.844,1.028 -1.899,1.644 -3.159,1.854c1.691,2.67 3.114,4.429 4.21,5.34c0.266,0.22 0.6,0.398 0.786,0.488Z" style="fill:#582d77;"/><g><path d="M201.171,127.304c-4.352,-4.855 -12.539,-6.315 -16.719,-2.664l6.165,11.763l10.554,-9.099Z" style="fill:#aa51e7;"/><path d="M193.607,124.287c-6.068,1.208 -8.735,11.685 -6.929,20.764c1.807,9.079 7.407,13.343 13.475,12.136c3.946,-0.786 8.937,-5.654 8.471,-14.879c-0.468,-9.245 -8.948,-19.228 -15.017,-18.021Z" style="fill:#3f214a;"/><path d="M193.046,128.804c0.606,-0.539 4.235,-4.172 8.936,4.775c1.074,2.043 3.209,7.714 2.323,12.74c-0.334,1.894 -0.992,4.005 -2.449,4.951c-0.929,0.603 -3.079,1.235 -5.362,0.365c-8.424,-3.209 -6.935,-19.734 -3.448,-22.831Z" style="fill:#591074;"/><path d="M189.785,134.933c-0.344,1.166 -0.863,4.25 0.792,6.088c3.405,3.781 6.651,0.93 6.05,-3.417c-0.852,-6.164 0.081,-6.733 -1.648,-7.764c-0.933,-0.557 -1.951,0.084 -2.659,0.647c-1.238,0.984 -2.134,3.086 -2.535,4.446Z" style="fill:#f9f7fa;"/><path d="M203.396,145.008c-1.831,0.955 -2.24,6.263 0.18,5.254c2.481,-1.034 1.387,-6.072 -0.18,-5.254Z" style="fill:#f9f7fa;"/></g><g><path d="M150.52,155.787c-1.864,-6.248 1.171,-13.991 6.468,-15.646l6.806,11.403l-13.274,4.243Z" style="fill:#aa51e7;"/><path d="M151.902,147.761c4.201,-4.542 14.528,-1.34 21.324,4.946c6.795,6.285 7.504,13.288 3.303,17.831c-2.732,2.953 -9.491,4.664 -17.112,-0.556c-7.637,-5.23 -11.716,-17.678 -7.515,-22.221Z" style="fill:#3f214a;"/><path d="M160.497,151.786c6.577,1.425 10.503,4.589 11.276,5.213c2.34,1.886 3.818,5.353 3.438,7.571c-0.198,1.157 -1.121,2.532 -2.259,3.042c-1.434,0.642 -4.552,1.605 -10.533,-2.986c-5.981,-4.592 -8.172,-11.763 -5.408,-12.811c1.316,-0.5 3.213,-0.088 3.486,-0.029Z" style="fill:#591074;"/><path d="M162.976,150.067c1.174,0.316 4.074,1.486 4.776,3.857c1.444,4.879 -2.683,6.157 -6.075,3.372c-4.809,-3.948 -5.782,-3.45 -5.758,-5.463c0.013,-1.087 1.092,-1.62 1.941,-1.929c1.487,-0.541 3.747,-0.206 5.116,0.163Z" style="fill:#f9f7fa;"/><path d="M164.451,166.937c1.772,-1.062 6.511,1.363 4.385,2.9c-2.178,1.574 -5.901,-1.991 -4.385,-2.9Z" style="fill:#f9f7fa;"/></g><path d="M187.189,180.073c4.044,-10.311 9.735,-17.92 17.019,-22.916c3.927,3.736 8.345,7.733 11.168,11.193l-22.272,19.85c-2.14,-2.595 -4.145,-5.282 -5.915,-8.127Z" style="fill:#9448c8;"/></g><g><circle cx="244.179" cy="198.639" r="55.821" style="fill:#e0587d;"/><circle cx="244.179" cy="200.329" r="31.118" style="fill:#ffdcf6;"/><path d="M244.179,167.712c18.002,-0 32.617,14.615 32.617,32.617c0,18.003 -14.615,32.618 -32.617,32.618c-18.002,0 -32.618,-14.615 -32.618,-32.618c0,-18.002 14.616,-32.617 32.618,-32.617Zm-0,3c-16.347,-0 -29.618,13.271 -29.618,29.617c0,16.347 13.271,29.618 29.618,29.618c16.346,0 29.617,-13.271 29.617,-29.618c0,-16.346 -13.271,-29.617 -29.617,-29.617Z" style="fill:#ce2b57;"/><circle cx="244.179" cy="200.329" r="12.932" style="fill:#e0587d;"/><path d="M244.179,185.897c7.965,0 14.432,6.467 14.432,14.432c0,7.966 -6.467,14.433 -14.432,14.433c-7.966,-0 -14.433,-6.467 -14.433,-14.433c0,-7.965 6.467,-14.432 14.433,-14.432Zm-0,3c-6.31,0 -11.433,5.123 -11.433,11.432c0,6.31 5.123,11.433 11.433,11.433c6.309,-0 11.432,-5.123 11.432,-11.433c0,-6.309 -5.123,-11.432 -11.432,-11.432Z" style="fill:#ce2b57;"/><path d="M244.179,146.207c-30.809,0 -55.822,25.013 -55.822,55.821c0,30.809 25.013,55.822 55.822,55.822c30.808,-0 55.821,-25.013 55.821,-55.822c0,-30.808 -25.013,-55.821 -55.821,-55.821Zm-0,14.038c23.06,0 41.783,18.723 41.783,41.783c-0,23.061 -18.723,41.783 -41.783,41.783c-23.061,0 -41.783,-18.722 -41.783,-41.783c-0,-23.06 18.722,-41.783 41.783,-41.783Z" style="fill:#424242;"/><path d="M244.179,142.818c-30.809,-0 -55.822,25.012 -55.822,55.821c0,30.809 25.013,55.821 55.822,55.821c30.808,0 55.821,-25.012 55.821,-55.821c0,-30.809 -25.013,-55.821 -55.821,-55.821Zm-0,14.038c23.06,-0 41.783,18.722 41.783,41.783c-0,23.061 -18.723,41.783 -41.783,41.783c-23.061,-0 -41.783,-18.722 -41.783,-41.783c-0,-23.061 18.722,-41.783 41.783,-41.783Z" style="fill:#606060;"/><path d="M261.218,240.885c-0.16,0.203 -0.194,0.486 -0.354,0.688c0,0.001 -2.418,1.373 -5.32,2.427c-14.188,5.15 -31.016,2.315 -42.413,-8.974c-6.584,-6.521 -9.013,-13.606 -9.848,-16.182c-0.013,-0.041 -0.051,-0.081 -0.038,-0.122c0.097,-0.303 0.164,-0.273 0.262,-0.577c0.151,0.147 0.426,0.114 0.577,0.262c0.217,0.21 5.717,15.969 25.186,23.232c8.772,3.273 19.962,4.044 30.602,-0.617c0.545,-0.239 0.533,-0.267 0.584,-0.262c0.256,0.025 0.505,0.101 0.762,0.125Z" style="fill:#737373;"/><path d="M293.984,191.462c-0.15,-0.181 -0.432,-0.219 -0.582,-0.401c-0.01,-0.012 -2.888,-15.291 -17.141,-27.078c-7.042,-5.823 -18.883,-12.527 -37.436,-10.948c-3.033,0.258 -23.936,1.539 -38.692,22.048c-1.233,1.714 -2.082,3.115 -2.088,3.119c-0.2,0.125 -0.469,0.317 -0.677,0.206c-0.57,-0.305 -0.3,-0.477 -0.029,-1.063c8.843,-19.125 27.509,-31.62 50.068,-30.321c4.144,0.239 15.309,1.449 26.33,9.623c12.165,9.023 18.938,22.418 20.586,33.785c0.022,0.148 0.109,0.303 0.062,0.446c-0.113,0.342 -0.287,0.238 -0.401,0.584Z" style="fill:#737373;"/></g><path d="M196.144,192.485l-2.766,-2.375l5.295,-3.311l-0,-1.522l-1.693,0.091c-1.919,-1.311 -4.195,-1.928 -6.752,-1.826c-4.549,0.183 -7.721,4.156 -7.476,8.063c-0.22,3.498 2.121,5.918 6.582,6.354c2.479,0.243 5.832,-1.626 8.583,-3.951l-0,-1.523l-1.773,0Zm34.102,-40.244c-0,-0.068 -0,-0.136 -0,-0.204l-0,-1.619l-0.118,-0.009c-0.243,-1.72 -0.876,-3.31 -1.999,-4.737c-2.141,-2.722 -6.909,-4.141 -11.159,-1.175c-2.876,2.007 -2.814,5.915 -1.763,8.276c1.489,3.345 5.162,4.843 8.384,5.233l0.16,-6.865l6.407,2.593c0.054,-0.506 0.084,-1.004 0.088,-1.493Z" style="fill:#582d77;"/><path d="M193.378,188.587l5.295,-3.31c-2.217,-2.286 -5.089,-3.392 -8.445,-3.257c-4.549,0.182 -7.721,4.155 -7.476,8.062c-0.22,3.498 2.121,5.918 6.582,6.355c2.479,0.242 5.832,-1.627 8.583,-3.952l-4.539,-3.898Zm30.373,-38.968l6.407,2.593c0.321,-3.02 -0.213,-5.755 -2.029,-8.063c-2.141,-2.722 -6.909,-4.14 -11.159,-1.175c-2.876,2.007 -2.814,5.915 -1.763,8.277c1.489,3.344 5.162,4.842 8.384,5.232l0.16,-6.864Z" style="fill:#aa51e7;"/><path d="M222.107,151.914l0.838,-4.671l5.605,2.094c-0.013,-4.779 -5.184,-7.87 -9.084,-5.927c-3.262,1.624 -1.929,5.623 2.641,8.504Z" style="fill:#b964f4;"/><path d="M184.772,188.541c0.259,-3.925 5.158,-6.286 11.21,-3.64l-4.478,3.299l3.286,3.24c-5.107,1.574 -10.282,1.081 -10.018,-2.899Z" style="fill:#b964f4;"/></g></g></svg>