<?xml version="1.0" encoding="UTF-8" standalone="no"?>
<!DOCTYPE svg PUBLIC "-//W3C//DTD SVG 1.1//EN" "http://www.w3.org/Graphics/SVG/1.1/DTD/svg11.dtd">
<svg width="100%" height="100%" viewBox="0 0 216 189" version="1.1" xmlns="http://www.w3.org/2000/svg" xmlns:xlink="http://www.w3.org/1999/xlink" xml:space="preserve" xmlns:serif="http://www.serif.com/" style="fill-rule:evenodd;clip-rule:evenodd;stroke-linejoin:round;stroke-miterlimit:2;">
    <g transform="matrix(11.2316,-2.97498,2.97498,11.2316,-719.68,-127.379)">
        <path d="M63.609,31.108L63.001,30.947C61.388,30.52 59.736,31.346 59.081,32.825L57.628,31.592C57.153,31.229 56.719,31.142 56.386,31.253C56.134,31.337 55.897,31.533 55.733,31.911L55.72,31.941L54.246,37.116L54.241,37.149C54.175,37.604 54.27,37.885 54.454,38.067C54.61,38.221 54.893,38.343 55.412,38.34L55.437,38.34L57.654,38.108C57.38,39.79 58.424,41.438 60.104,41.884L62.261,42.455C62.049,43.28 61.894,43.924 61.894,43.924L61.758,44.492L62.34,44.539C63.533,44.577 65.039,43.582 65.306,43.261L66.394,43.55C67.917,43.953 69.474,43.239 70.195,41.914L70.208,41.891L70.986,42.082C71.564,42.224 72.148,41.871 72.29,41.293C72.29,41.293 72.566,40.171 72.566,40.171C72.708,39.594 72.354,39.01 71.777,38.868C71.777,38.868 71.143,38.712 71.143,38.712C71.143,38.712 71.673,36.711 71.673,36.711L71.75,36.336C71.771,36.187 71.783,36.039 71.785,35.891C71.786,35.779 71.782,35.668 71.772,35.558C71.742,35.224 71.663,34.9 71.539,34.596L71.503,34.509C71.456,34.402 71.403,34.297 71.345,34.195C71.323,34.156 71.3,34.118 71.277,34.08L71.275,34.083C71.274,34.077 71.272,34.072 71.269,34.068L70.977,33.672L70.79,33.47C70.387,33.071 69.878,32.769 69.291,32.613L68.966,32.527L68.94,32.322C68.707,31.018 67.759,29.289 64.451,28.413C64.074,28.313 62.801,28.047 62.36,28.078C61.851,28.114 61.591,28.382 61.498,28.598C61.411,28.8 61.423,29.009 61.526,29.195C61.602,29.332 61.737,29.465 61.951,29.541L62.118,29.569L62.002,29.556C62.002,29.556 62.476,29.687 62.868,29.855C63.103,29.956 63.344,30.068 63.464,30.21C63.704,30.495 63.699,30.809 63.609,31.108Z" style="fill:#c7c7c7;fill-rule:nonzero;"/>
    </g>
    <g transform="matrix(1.00827,0,9.34246e-17,1.00827,-55.9132,-115.073)">
        <path d="M70.558,245.823C63.406,247.755 61.862,246.436 61.228,240.919L62.369,179.686C63.369,173.106 67.853,172.187 74.634,175.001L109.36,191.57L109.36,231.081L70.558,245.823Z" style="fill:#f3e300;fill-rule:nonzero;"/>
    </g>
    <g transform="matrix(11.6189,0,1.07659e-15,11.6189,-637.93,-376.959)">
        <path d="M56.977,42.333L59.626,41.694L59.503,41.152L56.977,42.333ZM59.425,40.426L56.765,40.885L59.439,41.174L59.425,40.426ZM56.822,39.425L59.51,39.877L59.425,40.426L56.822,39.425Z" style="fill:#b8ab00;"/>
    </g>
    <g transform="matrix(1.00827,0,9.34246e-17,1.00827,-55.9132,-115.073)">
        <path d="M200.33,241.81C200.33,241.81 198.43,288.595 166.505,294.326C166.505,294.326 165.866,266.407 166.505,248.786L200.33,241.81Z" style="fill:#010050;fill-rule:nonzero;"/>
    </g>
    <g transform="matrix(11.343,-2.51716,2.51716,11.343,-722.2,-204.262)">
        <path d="M63.22,46.403C63.379,45.664 63.573,44.801 63.749,44.124L66.746,44.169C66.746,44.169 66.313,45.8 65.254,46.93L63.22,46.403Z" style="fill-rule:nonzero;"/>
    </g>
    <g transform="matrix(1.00827,0,9.34246e-17,1.00827,-55.9132,-115.073)">
        <path d="M203.64,165.44C203.64,165.44 207.35,119.89 143.46,119.89C139.314,119.89 125.497,120.5 121.042,122.025C115.63,123.877 115.71,128.027 119.408,128.329C119.408,128.329 135.239,128.263 141.071,132.346C152.874,140.609 146.147,156.077 143.46,165.44L203.64,165.44Z" style="fill:#eff4f9;fill-rule:nonzero;"/>
    </g>
    <g transform="matrix(11.343,-2.51716,2.51716,11.343,-722.2,-204.262)">
        <path d="M64.079,35.143L64.079,35.143C63.936,35.694 63.583,36.227 63.363,36.63L68.462,37.762C68.462,37.762 68.69,37.024 68.479,36.096L64.079,35.143Z" style="fill:#9f9f9f;fill-rule:nonzero;"/>
    </g>
    <g transform="matrix(1.00827,0,9.34246e-17,1.00827,-55.9132,-115.073)">
        <path d="M242.63,185.26C242.63,167.124 227.906,152.4 209.77,152.4L134.79,152.4C116.654,152.4 101.93,167.124 101.93,185.26L101.93,238.39C101.93,256.526 116.654,271.25 134.79,271.25L209.77,271.25C227.906,271.25 242.63,256.526 242.63,238.39L242.63,185.26Z" style="fill:#010050;"/>
    </g>
    <g transform="matrix(11.6189,0,1.07659e-15,11.6189,-637.93,-376.959)">
        <path d="M66.366,46.078L66.366,35.765L68.296,35.765C69.87,35.765 71.147,37.042 71.147,38.616L71.147,43.227C71.147,44.801 69.87,46.078 68.296,46.078L66.366,46.078ZM63.611,46.078L61.858,46.078L61.858,35.765L63.611,35.765L63.611,46.078Z" style="fill:#eff4f9;"/>
    </g>
    <g transform="matrix(12.8376,-0.228184,0.219718,12.3613,-728.892,-412.598)">
        <path d="M72.318,43.453C72.318,43.153 72.084,42.91 71.796,42.91L70.41,42.91C70.122,42.91 69.887,43.153 69.887,43.453L69.887,44.538C69.887,44.838 70.122,45.081 70.41,45.081L71.796,45.081C72.084,45.081 72.318,44.838 72.318,44.538L72.318,43.453Z" style="fill:#eff4f9;"/>
    </g>
    <g transform="matrix(0.442582,1.39926e-17,2.70161e-17,0.442582,56.831,41.8049)">
        <path d="M70.558,245.823C63.406,247.755 61.862,246.436 61.228,240.919L62.369,179.686C63.369,173.106 67.853,172.187 74.634,175.001L109.36,191.57C118.884,196.237 122.246,225.528 109.36,231.081L70.558,245.823Z" style="fill:#f3e300;fill-rule:nonzero;"/>
    </g>
    <g transform="matrix(11.6189,0,1.07659e-15,11.6189,-639.62,-377.18)">
        <path d="M63.078,43.196L63.997,43.617C64.166,43.674 64.214,44.523 63.997,44.598L63.206,44.93L63.87,44.39L63.206,44.174L63.884,43.904L63.078,43.196Z" style="fill:#b8ab00;"/>
    </g>
    <g transform="matrix(1.00827,0,9.34246e-17,1.00827,-55.9132,-115.073)">
        <circle cx="191.67" cy="201.61" r="31.15" style="fill:#9f9f9f;"/>
    </g>
    <g transform="matrix(1.00827,0,9.34246e-17,1.00827,-55.9132,-115.073)">
        <circle cx="191.67" cy="210.26" r="31.15" style="fill:#fff;"/>
    </g>
    <g transform="matrix(1.00827,0,9.34246e-17,1.00827,-55.9132,-115.073)">
        <path d="M180.06,209.84C180.06,220.592 188.908,229.44 199.66,229.44C210.412,229.44 219.26,220.592 219.26,209.84C219.26,199.088 210.412,190.24 199.66,190.24C198.709,190.239 197.76,190.309 196.82,190.45C198.038,192.288 198.685,194.445 198.68,196.65C198.68,196.664 198.68,196.677 198.68,196.691C198.68,202.884 193.584,207.981 187.39,207.981C184.906,207.981 182.491,207.161 180.52,205.65C180.215,207.026 180.061,208.431 180.06,209.84ZM203.39,218C203.39,215.444 205.494,213.34 208.05,213.34C210.606,213.34 212.71,215.444 212.71,218C212.71,220.556 210.606,222.66 208.05,222.66C205.494,222.66 203.39,220.556 203.39,218Z" style="fill:#414042;fill-rule:nonzero;"/>
    </g>
</svg>
