<?xml version="1.0" encoding="UTF-8" standalone="no"?>
<svg
   xmlns:dc="http://purl.org/dc/elements/1.1/"
   xmlns:cc="http://creativecommons.org/ns#"
   xmlns:rdf="http://www.w3.org/1999/02/22-rdf-syntax-ns#"
   xmlns:svg="http://www.w3.org/2000/svg"
   xmlns="http://www.w3.org/2000/svg"
   width="100"
   height="100"
   viewBox="0 0 26.458333 26.458333"
   version="1.1"
   id="svg8">
  <defs
     id="defs2">
    <clipPath
       clipPathUnits="userSpaceOnUse"
       id="clipPath9641">
      <rect
         y="226.62083"
         x="16.933338"
         height="8.4666662"
         width="16.933332"
         id="rect9643"
         style="fill:#f69fca;fill-opacity:1;fill-rule:nonzero;stroke-width:0.63436663" />
    </clipPath>
    <clipPath
       clipPathUnits="userSpaceOnUse"
       id="clipPath9661">
      <rect
         style="fill:#f69fca;fill-opacity:1;fill-rule:nonzero;stroke-width:0.63436663"
         id="rect9663"
         width="16.933332"
         height="8.4666662"
         x="16.933336"
         y="0.86666209" />
    </clipPath>
    <clipPath
       clipPathUnits="userSpaceOnUse"
       id="clipPath9665">
      <rect
         y="218.15417"
         x="16.933336"
         height="8.4666662"
         width="16.933332"
         id="rect9667"
         style="fill:#f69fca;fill-opacity:1;fill-rule:nonzero;stroke-width:0.63436663" />
    </clipPath>
  </defs>
  <metadata
     id="metadata5">
    <rdf:RDF>
      <cc:Work
         rdf:about="">
        <dc:format>image/svg+xml</dc:format>
        <dc:type
           rdf:resource="http://purl.org/dc/dcmitype/StillImage" />
        <dc:title></dc:title>
      </cc:Work>
    </rdf:RDF>
  </metadata>
  <g
     id="layer1"
     transform="matrix(3.3333333,0,0,3.3333333,-1.0222222e-7,-698.9584)">
    <g
       transform="matrix(0.46874999,0,0,0.46874999,-7.9374997,103.459)"
       id="g12018">
      <g
         id="g12016"
         transform="matrix(0.26458333,0,0,0.26458333,0,209.68752)">
        <path
           d="m 95.25,126.75 1.1,1.25 h 7.5 l 1.05,-3.2 -9.65,1.95 m 32.75,-9.6 v -3.5 l -2.9,2.4 2.9,1.1 m -64,-3.5 v 3.5 l 6.25,2.4 -1.6,-9.75 -4.65,3.85 m 3.45,-17.4 -3.45,0.7 v 8.25 l 0.3,0.35 3.15,-9.3 M 70,83 64,76.35 V 84.3 L 70,83 m 58,1.3 v -8 l -0.55,-0.6 -3,9.35 3.55,-0.75 m 0,12.65 -6.25,1.25 6.25,7.05 v -8.3 M 101.75,70.1 103.85,64 h -7.5 l 5.4,6.1 m 14.5,45.05 -4.3,8.85 9.8,-0.7 -5.5,-8.15 m -29.45,12.3 3.1,-9.3 -9.65,1.95 6.55,7.35 m 6.5,-23.1 6.05,0.3 -2.75,-5.45 -3.3,5.15 m 2.05,8.05 -3.4,5.1 6.1,0.35 -2.7,-5.45 m 12.5,2.55 -5.5,2.75 5.15,3.35 0.35,-6.1 m 2.65,-7.15 -8.35,-5.25 -0.3,9.85 8.65,-4.6 m 9.65,-2.65 -5.5,2.7 5.1,3.4 0.4,-6.1 m -40,-3.3 0.75,9.8 8.1,-5.55 -8.85,-4.25 m -1.7,19.7 -5.8,-1.95 1.25,6 4.55,-4.05 m -0.8,-18.85 -6,1.25 4.05,4.55 1.95,-5.8 m -4.9,-15.1 -0.35,9.85 8.65,-4.6 -8.3,-5.25 m 2.55,-3.45 2.6,-5.55 -6.15,0.6 3.55,4.95 m -2.05,-9.95 4.9,-8.5 h -9.8 l 4.9,8.5 m 54.3,-5.15 -5.8,-1.95 1.25,6 4.55,-4.05 m -11,9.2 -5.45,2.8 5.05,3.3 0.4,-6.1 m -14.1,7.15 4.9,-8.5 h -9.8 l 4.9,8.5 m 15.6,5.25 -9.65,1.95 6.5,7.35 3.15,-9.3 m -13.35,5.95 0.4,-6.1 -5.5,2.75 5.1,3.35 M 85.5,85 88.65,75.7 79,77.65 85.5,85 m 8.85,-5.8 -3.35,5.1 6.1,0.35 -2.75,-5.45 m -6.7,17.75 9.85,-0.35 -5.25,-8.35 -4.6,8.7 m -5,-30.45 1.25,6 4.55,-4.05 -5.8,-1.95 m 34.05,-0.15 -7,6.9 9.45,2.6 z"
           id="path12012"
           style="fill:#2cc46c;stroke:none" />
        <path
           d="m 103.85,64 -2.1,6.1 -5.4,-6.1 H 64 v 12.35 l 6,6.65 -6,1.3 v 12.65 l 3.45,-0.7 -3.15,9.3 -0.3,-0.35 v 8.45 l 4.65,-3.85 1.6,9.75 -6.25,-2.4 V 128 h 32.35 l -1.1,-1.25 9.65,-1.95 -1.05,3.2 H 128 v -10.85 l -2.9,-1.1 2.9,-2.4 v -8.4 L 121.75,98.2 128,96.95 V 84.3 l -3.55,0.75 3,-9.35 0.55,0.6 V 64 h -24.15 m 5.85,9.25 7,-6.9 2.45,9.5 -9.45,-2.6 m -25.8,-0.75 -1.25,-6 5.8,1.95 -4.55,4.05 m 13.6,24.1 -9.85,0.35 4.6,-8.7 5.25,8.35 M 91,84.3 94.35,79.2 97.1,84.65 91,84.3 M 88.65,75.7 85.5,85 79,77.65 88.65,75.7 m 16.45,14.8 -0.4,6.1 -5.1,-3.35 5.5,-2.75 m 3.3,2.1 9.65,-1.95 -3.15,9.3 -6.5,-7.35 m -1.05,-15.7 -4.9,8.5 -4.9,-8.5 h 9.8 m 3.75,4.15 5.45,-2.8 -0.4,6.1 -5.05,-3.3 m 10.65,-13.95 5.8,1.95 -4.55,4.05 -1.25,-6 m -43.6,-1.4 -4.9,8.5 -4.9,-8.5 h 9.8 M 77.9,78.6 75.3,84.15 71.75,79.2 77.9,78.6 m -5.5,18.85 0.35,-9.85 8.3,5.25 -8.65,4.6 m -0.75,6.5 6,-1.25 -1.95,5.8 -4.05,-4.55 m 1,15.65 5.8,1.95 -4.55,4.05 -1.25,-6 m 8.25,-7.95 -0.75,-9.8 8.85,4.25 -8.1,5.55 m 33.75,-3.8 5.5,-2.7 -0.4,6.1 -5.1,-3.4 m -12.5,-5.3 8.35,5.25 -8.65,4.6 0.3,-9.85 m 0.2,15.15 5.5,-2.75 -0.35,6.1 -5.15,-3.35 m -10.4,-0.2 3.4,-5.1 2.7,5.45 -6.1,-0.35 m 7.4,-12.85 -6.05,-0.3 3.3,-5.15 2.75,5.45 m -9.45,13.5 -3.1,9.3 -6.55,-7.35 9.65,-1.95 m 22.05,5.85 4.3,-8.85 5.5,8.15 z"
           id="path12014"
           style="fill:#2ecc71;stroke:none" />
      </g>
    </g>
    <g
       id="g14424"
       transform="matrix(0.46874999,0,0,0.46874999,-7.9374997,103.459)">
      <g
         transform="matrix(0.26458333,0,0,0.26458333,0,209.68752)"
         id="g14422">
        <path
           style="fill:#2cc46c;stroke:none"
           id="path14418"
           d="m 95.25,126.75 1.1,1.25 h 7.5 l 1.05,-3.2 -9.65,1.95 m 32.75,-9.6 v -3.5 l -2.9,2.4 2.9,1.1 m -64,-3.5 v 3.5 l 6.25,2.4 -1.6,-9.75 -4.65,3.85 m 3.45,-17.4 -3.45,0.7 v 8.25 l 0.3,0.35 3.15,-9.3 M 70,83 64,76.35 V 84.3 L 70,83 m 58,1.3 v -8 l -0.55,-0.6 -3,9.35 3.55,-0.75 m 0,12.65 -6.25,1.25 6.25,7.05 v -8.3 M 101.75,70.1 103.85,64 h -7.5 l 5.4,6.1 m 14.5,45.05 -4.3,8.85 9.8,-0.7 -5.5,-8.15 m -29.45,12.3 3.1,-9.3 -9.65,1.95 6.55,7.35 m 6.5,-23.1 6.05,0.3 -2.75,-5.45 -3.3,5.15 m 2.05,8.05 -3.4,5.1 6.1,0.35 -2.7,-5.45 m 12.5,2.55 -5.5,2.75 5.15,3.35 0.35,-6.1 m 2.65,-7.15 -8.35,-5.25 -0.3,9.85 8.65,-4.6 m 9.65,-2.65 -5.5,2.7 5.1,3.4 0.4,-6.1 m -40,-3.3 0.75,9.8 8.1,-5.55 -8.85,-4.25 m -1.7,19.7 -5.8,-1.95 1.25,6 4.55,-4.05 m -0.8,-18.85 -6,1.25 4.05,4.55 1.95,-5.8 m -4.9,-15.1 -0.35,9.85 8.65,-4.6 -8.3,-5.25 m 2.55,-3.45 2.6,-5.55 -6.15,0.6 3.55,4.95 m -2.05,-9.95 4.9,-8.5 h -9.8 l 4.9,8.5 m 54.3,-5.15 -5.8,-1.95 1.25,6 4.55,-4.05 m -11,9.2 -5.45,2.8 5.05,3.3 0.4,-6.1 m -14.1,7.15 4.9,-8.5 h -9.8 l 4.9,8.5 m 15.6,5.25 -9.65,1.95 6.5,7.35 3.15,-9.3 m -13.35,5.95 0.4,-6.1 -5.5,2.75 5.1,3.35 M 85.5,85 88.65,75.7 79,77.65 85.5,85 m 8.85,-5.8 -3.35,5.1 6.1,0.35 -2.75,-5.45 m -6.7,17.75 9.85,-0.35 -5.25,-8.35 -4.6,8.7 m -5,-30.45 1.25,6 4.55,-4.05 -5.8,-1.95 m 34.05,-0.15 -7,6.9 9.45,2.6 z" />
        <path
           style="fill:#2ecc71;stroke:none"
           id="path14420"
           d="m 103.85,64 -2.1,6.1 -5.4,-6.1 H 64 v 12.35 l 6,6.65 -6,1.3 v 12.65 l 3.45,-0.7 -3.15,9.3 -0.3,-0.35 v 8.45 l 4.65,-3.85 1.6,9.75 -6.25,-2.4 V 128 h 32.35 l -1.1,-1.25 9.65,-1.95 -1.05,3.2 H 128 v -10.85 l -2.9,-1.1 2.9,-2.4 v -8.4 L 121.75,98.2 128,96.95 V 84.3 l -3.55,0.75 3,-9.35 0.55,0.6 V 64 h -24.15 m 5.85,9.25 7,-6.9 2.45,9.5 -9.45,-2.6 m -25.8,-0.75 -1.25,-6 5.8,1.95 -4.55,4.05 m 13.6,24.1 -9.85,0.35 4.6,-8.7 5.25,8.35 M 91,84.3 94.35,79.2 97.1,84.65 91,84.3 M 88.65,75.7 85.5,85 79,77.65 88.65,75.7 m 16.45,14.8 -0.4,6.1 -5.1,-3.35 5.5,-2.75 m 3.3,2.1 9.65,-1.95 -3.15,9.3 -6.5,-7.35 m -1.05,-15.7 -4.9,8.5 -4.9,-8.5 h 9.8 m 3.75,4.15 5.45,-2.8 -0.4,6.1 -5.05,-3.3 m 10.65,-13.95 5.8,1.95 -4.55,4.05 -1.25,-6 m -43.6,-1.4 -4.9,8.5 -4.9,-8.5 h 9.8 M 77.9,78.6 75.3,84.15 71.75,79.2 77.9,78.6 m -5.5,18.85 0.35,-9.85 8.3,5.25 -8.65,4.6 m -0.75,6.5 6,-1.25 -1.95,5.8 -4.05,-4.55 m 1,15.65 5.8,1.95 -4.55,4.05 -1.25,-6 m 8.25,-7.95 -0.75,-9.8 8.85,4.25 -8.1,5.55 m 33.75,-3.8 5.5,-2.7 -0.4,6.1 -5.1,-3.4 m -12.5,-5.3 8.35,5.25 -8.65,4.6 0.3,-9.85 m 0.2,15.15 5.5,-2.75 -0.35,6.1 -5.15,-3.35 m -10.4,-0.2 3.4,-5.1 2.7,5.45 -6.1,-0.35 m 7.4,-12.85 -6.05,-0.3 3.3,-5.15 2.75,5.45 m -9.45,13.5 -3.1,9.3 -6.55,-7.35 9.65,-1.95 m 22.05,5.85 4.3,-8.85 5.5,8.15 z" />
      </g>
    </g>
  </g>
</svg>
