<?xml version="1.0" encoding="UTF-8" standalone="no"?>
<svg
   width="100%"
   height="100%"
   viewBox="0 0 300 300"
   version="1.1"
   xml:space="preserve"
   style="fill-rule:evenodd;clip-rule:evenodd;stroke-linejoin:round;stroke-miterlimit:2;"
   id="svg6026"
   xmlns="http://www.w3.org/2000/svg"
   xmlns:svg="http://www.w3.org/2000/svg"
   xmlns:serif="http://www.serif.com/"><defs
   id="defs6030" />
  <g
   id="Dotted-1"
   serif:id="Dotted 1">
    <rect
   x="0"
   y="-0"
   width="300"
   height="300"
   style="fill:#11b8fa;fill-opacity:0;"
   id="rect6021" />
    <path
   d="M69.808,80.201l-5.584,-0l0,-10.407l5.584,0l0,-5.584l10.406,0l0,5.584l5.585,0l-0,10.407l-5.585,-0l0,5.584l-10.406,-0l0,-5.584Zm43.91,-10.407l0,10.407l-11.168,-0l0,-10.407l11.168,0Zm27.92,0l0,10.407l-11.168,-0l0,-10.407l11.168,0Zm27.92,0l-0,10.407l-11.168,-0l-0,-10.407l11.168,0Zm27.919,0l0,10.407l-11.167,-0l-0,-10.407l11.167,0Zm22.336,10.407l-5.584,-0l0,-10.407l5.584,0l0,-5.584l10.407,0l-0,5.584l5.584,0l-0,10.407l-5.584,-0l-0,5.584l-10.407,-0l0,-5.584Zm10.407,33.503l-10.407,0l0,-11.168l10.407,0l-0,11.168Zm-0,27.92l-10.407,0l0,-11.168l10.407,0l-0,11.168Zm-0,27.92l-10.407,-0l0,-11.168l10.407,-0l-0,11.168Zm-0,27.92l-10.407,-0l0,-11.168l10.407,-0l-0,11.168Zm-10.407,32.742l-5.584,-0l0,-10.407l5.584,0l0,-5.584l10.407,0l-0,5.584l5.584,0l-0,10.407l-5.584,-0l-0,5.584l-10.407,-0l0,-5.584Zm-33.503,-0l-0,-10.407l11.167,0l0,10.407l-11.167,-0Zm-27.92,-0l-0,-10.407l11.168,0l-0,10.407l-11.168,-0Zm-27.92,-0l0,-10.407l11.168,0l0,10.407l-11.168,-0Zm-27.92,-0l0,-10.407l11.168,0l0,10.407l-11.168,-0Zm-32.742,-0l-5.584,-0l0,-10.407l5.584,0l0,-5.584l10.406,0l0,5.584l5.585,0l-0,10.407l-5.585,-0l0,5.584l-10.406,-0l0,-5.584Zm0,-43.91l10.406,-0l0,11.168l-10.406,-0l0,-11.168Zm0,-27.92l10.406,-0l0,11.168l-10.406,-0l0,-11.168Zm0,-27.92l10.406,0l0,11.168l-10.406,0l0,-11.168Zm0,-27.92l10.406,0l0,11.168l-10.406,0l0,-11.168Zm150.005,150.006l10.407,-0l-0,11.168l-10.407,-0l0,-11.168Zm0,27.919l10.407,0l-0,11.168l-10.407,0l0,-11.168Zm-139.599,11.168l-10.406,0l0,-11.168l10.406,0l0,11.168Zm0,-27.92l-10.406,0l0,-11.168l10.406,0l0,11.168Zm-71.829,-183.508l-0,-10.407l11.168,0l-0,10.407l-11.168,-0Zm27.92,-0l-0,-10.407l11.167,0l0,10.407l-11.167,-0Zm11.167,139.598l0,10.407l-11.168,-0l0,-10.407l11.168,0Zm-27.919,0l-0,10.407l-11.168,-0l-0,-10.407l11.168,0Zm233.003,-139.598l-0,-10.407l11.167,0l0,10.407l-11.167,-0Zm27.919,-0l0,-10.407l11.168,0l0,10.407l-11.168,-0Zm11.168,139.598l0,10.407l-11.168,-0l0,-10.407l11.168,0Zm-27.92,0l0,10.407l-11.168,-0l0,-10.407l11.168,0Zm-43.91,-211.428l10.407,-0l-0,11.168l-10.407,-0l0,-11.168Zm0,27.92l10.407,-0l-0,11.168l-10.407,-0l0,-11.168Zm-139.599,11.167l-10.406,0l0,-11.168l10.406,0l0,11.168Zm0,-27.919l-10.406,-0l0,-11.168l10.406,-0l0,11.168Z"
   style="fill:#fff;fill-opacity:0.25;"
   id="path6023" />
  </g>
</svg>
