<?xml version="1.0" encoding="UTF-8" standalone="no"?><!DOCTYPE svg PUBLIC "-//W3C//DTD SVG 1.1//EN" "http://www.w3.org/Graphics/SVG/1.1/DTD/svg11.dtd"><svg width="100%" height="100%" viewBox="0 0 300 345" version="1.1" xmlns="http://www.w3.org/2000/svg" xmlns:xlink="http://www.w3.org/1999/xlink" xml:space="preserve" xmlns:serif="http://www.serif.com/" style="fill-rule:evenodd;clip-rule:evenodd;stroke-linejoin:round;stroke-miterlimit:2;"><g id="hair_17"><path id="shadow_hair_17" d="M0,81.38l0,105.382l12.601,-48.756c3.117,-11.213 17.466,-25.88 32.141,-26.445c4.173,5.818 12.366,10.623 24.569,12.791c2.723,-7.871 6.277,-11.866 18.488,-13.898c0.68,8.08 14.215,17.292 26.57,23.183c4.743,-25.338 16.293,-44.001 35.631,-55.472c21.802,16.859 35.772,36.629 45.316,59.326c9.703,-7.003 19.882,-16.321 22.58,-27.41c8.232,2.233 10.768,5.859 15.497,14.513c9.017,-0.539 15.793,-3.964 20.119,-9.195c16.158,7.631 21.473,13.206 26.537,25.509l19.951,45.854l-0,-105.382c-0,-20.079 -16.301,-36.38 -36.38,-36.38l-227.24,0c-20.079,0 -36.38,16.301 -36.38,36.38Z" style="fill:#fabc2e;"/><path id="hair_171" serif:id="hair_17" d="M0,81.38l0,105.382l10.151,-51.473c3.116,-11.213 19.916,-28.487 34.591,-29.052c4.173,5.818 10.573,10.623 22.776,12.791c2.723,-7.871 11.747,-11.865 23.957,-13.898c0.681,8.08 7.848,14.944 20.203,20.835c4.743,-25.338 18.984,-41.652 38.322,-53.124c21.802,16.859 37.727,36.517 47.27,59.214c9.704,-7.003 15.632,-16.208 18.33,-27.298c8.232,2.233 15.001,7.15 19.73,15.804c9.017,-0.539 13.856,-5.255 18.182,-10.486c16.158,7.631 24.555,18.53 29.619,30.833l16.869,45.854l0,-105.382c0,-20.079 -16.301,-36.38 -36.38,-36.38l-227.24,0c-20.079,0 -36.38,16.301 -36.38,36.38Z" style="fill:#3f1c12;"/></g></svg>