<?xml version="1.0" encoding="UTF-8" standalone="no"?><!DOCTYPE svg PUBLIC "-//W3C//DTD SVG 1.1//EN" "http://www.w3.org/Graphics/SVG/1.1/DTD/svg11.dtd"><svg width="100%" height="100%" viewBox="0 0 1250 1438" version="1.1" xmlns="http://www.w3.org/2000/svg" xmlns:xlink="http://www.w3.org/1999/xlink" xml:space="preserve" xmlns:serif="http://www.serif.com/" style="fill-rule:evenodd;clip-rule:evenodd;stroke-linejoin:round;stroke-miterlimit:2;"><g id="Gym"><g id="HairGym2"><path d="M1249.8,366.697c0.135,2.621 0.203,5.259 0.203,7.913l0,286.624l-179.847,-182.027l-71.112,56.319l-74.808,-59.246l-74.808,59.246l-74.809,-59.246l-74.808,59.246l-74.808,-59.246l-74.808,59.246l-74.808,-59.246l-74.809,59.246l-74.808,-59.246l-74.808,59.246l-74.808,-59.246l-6.225,-0l-169.926,184.954l-0,-286.624c-0,-2.654 0.068,-5.292 0.203,-7.913l1249.59,0Z" style="fill:#fabc2e;"/><path d="M1233.94,271.159c10.272,20.437 16.056,43.51 16.056,67.924l0,286.625l-179.847,-182.027l-71.112,56.319l-74.808,-59.247l-74.808,59.247l-74.809,-59.247l-74.808,59.247l-74.808,-59.247l-74.808,59.247l-74.808,-59.247l-74.809,59.247l-74.808,-59.247l-74.808,59.247l-74.808,-59.247l-6.225,0l-169.926,184.955l-0,-286.625c-0,-32.883 10.494,-63.335 28.312,-88.187c27.514,-38.375 72.494,-63.396 123.271,-63.396l946.834,0c59.247,0 110.601,34.064 135.527,83.659Z" style="fill:#3f1c12;"/><path d="M41.037,120.447c-17.945,-8.145 -30.438,-26.226 -30.438,-47.202c0,-28.593 23.214,-51.807 51.808,-51.807c8.772,0 17.038,2.185 24.283,6.041c16.083,-16.923 38.803,-27.479 63.969,-27.479c48.707,-0 88.252,39.544 88.252,88.252c-0,3.408 -0.194,6.771 -0.57,10.078c9.818,9.43 15.932,22.688 15.932,37.363c0,28.593 -23.214,51.807 -51.807,51.807c-13.035,0 -24.952,-4.824 -34.062,-12.784c-5.733,1.173 -11.668,1.788 -17.745,1.788c-8.74,0 -17.185,-1.273 -25.159,-3.644c-9.232,9.054 -21.877,14.64 -35.816,14.64c-28.239,0 -51.166,-22.927 -51.166,-51.166c0,-5.545 0.884,-10.885 2.519,-15.887Zm969.378,0.996c-13.041,-12.868 -21.129,-30.744 -21.129,-50.495c-0,-39.157 31.791,-70.948 70.948,-70.948c15.363,0 29.591,4.893 41.211,13.204c13.404,-8.367 29.235,-13.204 46.187,-13.204c48.237,0 87.398,39.162 87.398,87.398c0,13.942 -3.271,27.127 -9.088,38.826c2.917,6.653 4.536,14.002 4.536,21.726c0,29.914 -24.286,54.2 -54.2,54.2c-10.596,-0 -20.486,-3.048 -28.841,-8.313c-10.407,9.887 -24.474,15.957 -39.948,15.957c-18.562,-0 -35.1,-8.735 -45.724,-22.316c-0.508,0.015 -1.019,0.022 -1.531,0.022c-28.593,0 -51.807,-23.214 -51.807,-51.807c0,-4.941 0.693,-9.722 1.988,-14.25Z" style="fill:#3f1c12;"/><path d="M273.653,187.5l-122.07,0c-40.655,0 -77.594,16.04 -104.828,42.132c-0.658,-45.167 33.26,-84.267 79.055,-89.164c9.911,-1.059 23.33,0.856 32.542,-0.129c9.617,-1.028 15.01,-4.955 24.556,-5.976c39.56,-4.23 75.853,18.36 90.745,53.137Z" style="fill:#3c80ec;"/><path d="M264.792,171.598l-59.336,0.364l50.64,-10.919c3.156,3.28 6.066,6.807 8.696,10.555Zm-18.013,-18.96c-27.356,6.238 -52.425,13.904 -93.801,11.379c37.935,-5.14 50.706,-14.596 75.968,-22.214c6.367,2.906 12.352,6.55 17.833,10.835Zm-183.488,24.317c22.067,-7.18 40.448,-8.12 57.908,-7.502c-25.794,4.108 -49.106,13.384 -69.288,29.183c2.785,-7.759 6.63,-15.051 11.38,-21.681Z" style="fill:#135fd7;"/><path d="M267.77,176.132c2.22,3.617 4.19,7.414 5.883,11.368l-122.07,0c-40.655,0 -77.594,16.04 -104.828,42.132c-0.079,-5.47 0.348,-10.851 1.242,-16.092c26.654,-23.291 61.524,-37.408 99.666,-37.408l120.107,-0Z" style="fill:#135fd7;"/><path d="M984.621,187.5c14.892,-34.777 51.185,-57.367 90.745,-53.137c9.317,0.996 13.4,3.541 18.46,4.931c8.96,2.461 24.066,-0.384 38.638,1.174c48.491,5.185 83.665,48.719 78.574,97.199c-27.753,-30.795 -67.943,-50.167 -112.621,-50.167l-113.796,-0Z" style="fill:#d981db;"/><path d="M1210.15,212.828c-26.055,-21.141 -55.473,-33.455 -87.308,-39.421c30.922,0.117 58.253,6.122 81.173,19.362c2.809,6.356 4.886,13.082 6.135,20.059Zm-16.85,-38.143c-11.916,-5.899 -24.631,-9.72 -38.01,-11.815c7.827,-1.582 15.867,-2.418 24.077,-2.659c5.184,4.289 9.858,9.15 13.933,14.474Zm-189.846,-14.942c17.8,-0.454 33.934,5.227 51.815,10.476c-20.44,-2.807 -39.86,-1.846 -60.041,-1.025c2.521,-3.348 5.272,-6.506 8.226,-9.451Z" style="fill:#bc64be;"/><path d="M1211.51,226.614c0.071,3.645 -0.082,7.334 -0.473,11.053c-27.753,-30.795 -67.943,-50.167 -112.621,-50.167l-113.796,0c1.181,-2.757 2.496,-5.438 3.937,-8.035l113.125,0c43.202,0 82.206,18.112 109.828,47.149Z" style="fill:#bc64be;"/></g></g></svg>