<?xml version="1.0" encoding="UTF-8" standalone="no"?><!DOCTYPE svg PUBLIC "-//W3C//DTD SVG 1.1//EN" "http://www.w3.org/Graphics/SVG/1.1/DTD/svg11.dtd"><svg width="100%" height="100%" viewBox="0 0 300 345" version="1.1" xmlns="http://www.w3.org/2000/svg" xmlns:xlink="http://www.w3.org/1999/xlink" xml:space="preserve" xmlns:serif="http://www.serif.com/" style="fill-rule:evenodd;clip-rule:evenodd;stroke-linejoin:round;stroke-miterlimit:2;"><g id="hair_14"><path id="shadow_hair_14" d="M113.55,140.849l-87.004,-0l-0,156.193c-15.308,-4.293 -26.546,-18.361 -26.546,-35.032l0,-180.63l300,0l0,180.63c0,16.671 -11.238,30.739 -26.546,35.032l0,-156.193l-86.284,-0l-0.036,-0.073l-3.112,-3.904l-1.647,3.977l-2.292,-0l-1.857,-12.092l-3.176,12.092l-36.451,-0l-3.019,-10.308l0.183,10.308l-20.446,-0l-0.01,-0.108l0.147,-6.93l-1.904,7.038Z" style="fill:#fabc2e;"/><path id="hair_141" serif:id="hair_14" d="M174.06,133.271l-34.13,-0l-6.703,-25.351l-0.744,25.351l-14.452,-0l0,-13.544l-4.915,13.405l0.08,0.139l-89.107,-0c-1.924,-12.269 -2.375,-24.312 0.907,-37.084c-5.627,9.895 -8.092,22.287 -7.728,36.912l0.005,0.172l-0,159.696c-10.364,-6.415 -17.273,-17.886 -17.273,-30.957l0,-180.63c0,-20.079 16.301,-36.38 36.38,-36.38l227.24,0c20.079,0 36.38,16.301 36.38,36.38l0,180.63c0,13.071 -6.909,24.542 -17.273,30.957l0,-159.664l0.048,-0.032c0.388,-14.7 -2.075,-27.15 -7.724,-37.084c3.282,12.772 2.832,24.815 0.908,37.084l-88.332,-0l-2.79,-3.416l-2.094,3.416l-0.983,-0l-2.218,-16.219l-5.482,16.219Z" style="fill:#3f1c12;"/></g></svg>