<?xml version="1.0" encoding="UTF-8" standalone="no"?><!DOCTYPE svg PUBLIC "-//W3C//DTD SVG 1.1//EN" "http://www.w3.org/Graphics/SVG/1.1/DTD/svg11.dtd"><svg width="100%" height="100%" viewBox="0 0 300 345" version="1.1" xmlns="http://www.w3.org/2000/svg" xmlns:xlink="http://www.w3.org/1999/xlink" xml:space="preserve" xmlns:serif="http://www.serif.com/" style="fill-rule:evenodd;clip-rule:evenodd;stroke-linejoin:round;stroke-miterlimit:2;"><g id="Witch"><g id="Witch-Hair" serif:id="Witch Hair"><path d="M263.62,50.98c20.079,0 36.38,16.302 36.38,36.38l0,2.624l0.084,0.013l0,183.028c-0.151,0.055 -11.044,3.267 -18.756,2.851c-7.202,-0.388 -18.449,-4.005 -25.38,-7.294c5.068,-17.349 16.774,-38.636 25.379,-54.225l0.613,-18.354c-8.058,-12.65 -14.003,-35.374 -10.509,-53.899c-17.699,-15.256 -15.062,-28.182 -20.136,-41.548c2.819,9.309 0.467,16.143 -3.667,23.714c-1.901,-4.974 -4.312,-5.448 -8.078,-7.288c-7.751,-3.789 -10.62,-7.75 -13.85,-15.712c-0.216,5.606 -1.74,9.063 -4.09,13.067c-3.725,6.347 -7.409,3.272 -1.362,10.887c6.759,8.51 -0.411,23.477 -9.017,29.688c-0.86,-11.187 0.055,-14.122 -6.096,-15.508c-5.893,-1.328 -10.395,-1.787 -11.249,-9.07c0.647,7.101 -5.136,11.231 -8.314,14.857c-1.321,-11.27 -4.183,-18.919 -14.515,-21.487c-7.751,-1.927 -11.875,-7.156 -11.602,-13.037c0.692,-14.899 -1.39,-21.56 -9.383,-27.427l-0.033,-0.02l-0.039,0.029l-0.039,-0.029l-0.033,0.02c-7.993,5.867 -10.075,12.528 -9.383,27.427c0.273,5.881 -3.851,11.11 -11.602,13.037c-10.332,2.568 -13.194,10.217 -14.515,21.487c-3.178,-3.626 -8.961,-7.756 -8.314,-14.857c-0.854,7.283 -5.356,7.742 -11.249,9.07c-6.151,1.386 -5.236,4.321 -6.096,15.508c-8.606,-6.211 -15.776,-21.178 -9.017,-29.688c6.047,-7.615 2.363,-4.54 -1.362,-10.887c-2.35,-4.004 -3.874,-7.461 -4.09,-13.067c-3.23,7.962 -6.099,11.923 -13.85,15.712c-3.766,1.84 -6.177,2.314 -8.078,7.288c-4.134,-7.571 -6.486,-14.405 -3.667,-23.714c-5.074,13.366 -2.437,26.292 -20.136,41.548c3.494,18.525 -2.451,41.249 -10.509,53.899l0.613,18.354c8.605,15.589 20.311,36.876 25.379,54.225c-6.931,3.289 -18.178,6.906 -25.38,7.294c-7.712,0.416 -18.605,-2.796 -18.756,-2.851l-0,-183.028l0.084,-0.013l-0,-2.624c-0,-20.078 16.301,-36.38 36.38,-36.38l227.24,0Z" style="fill:#fabc2e;"/><path d="M0,267.044l0,-185.664c0,-20.079 16.301,-36.38 36.38,-36.38l227.24,0c20.079,0 36.38,16.301 36.38,36.38l0,2.623l0.084,0.014l0,183.027c-0.151,0.055 -11.044,3.268 -18.756,2.852c-7.202,-0.389 -14.25,-2.43 -21.18,-5.72c5.067,-17.349 13.974,-33.824 22.579,-49.413l0,-19.404c-9.458,-14.925 -12.515,-34.937 -9.022,-53.462c-17.698,-15.255 -15.761,-37.28 -24.247,-47.321c2.819,9.309 3.091,17.98 -1.043,25.551c-1.901,-4.974 -5.099,-7.285 -8.865,-9.126c-7.751,-3.788 -12.282,-10.549 -15.513,-18.511c-0.216,5.606 -1.914,10.376 -3.389,14.992c-2.24,7.01 -5.135,6.334 0.913,13.948c6.758,8.511 3,22.078 -5.606,28.289c-0.859,-11.187 -4.669,-14.909 -10.82,-16.295c-5.893,-1.329 -11.27,-3.537 -12.124,-10.82c0.647,7.101 -1.254,11.888 -4.432,15.513c-1.321,-11.27 -3.226,-16.595 -13.558,-19.164c-7.751,-1.926 -11.875,-7.155 -11.602,-13.036c0.693,-14.899 -5.354,-22.79 -13.347,-28.657c-0.013,-0.008 -0.024,-0.014 -0.033,-0.02c-8.006,5.869 -14.067,13.761 -13.374,28.677c0.273,5.881 -3.85,11.11 -11.602,13.036c-10.332,2.569 -12.237,7.894 -13.558,19.164c-3.178,-3.625 -5.078,-8.412 -4.432,-15.513c-0.854,7.283 -6.23,9.491 -12.124,10.82c-6.15,1.386 -9.96,5.108 -10.82,16.295c-8.606,-6.211 -12.364,-19.778 -5.605,-28.289c6.047,-7.614 3.152,-6.938 0.912,-13.948c-1.474,-4.616 -3.173,-9.386 -3.389,-14.992c-3.23,7.962 -7.762,14.723 -15.513,18.511c-3.765,1.841 -6.963,4.152 -8.865,9.126c-4.133,-7.571 -3.862,-16.242 -1.042,-25.551c-8.486,10.041 -6.549,32.066 -24.248,47.321c3.504,18.58 0.418,38.656 -9.106,53.595l-0,19.118c8.631,15.634 17.579,32.16 22.664,49.566c-6.957,3.302 -14.032,5.347 -21.264,5.724c-7.761,0.405 -18.551,-2.812 -18.673,-2.856Z" style="fill:#3f1c12;"/></g></g></svg>