<?xml version="1.0" encoding="UTF-8" standalone="no"?><!DOCTYPE svg PUBLIC "-//W3C//DTD SVG 1.1//EN" "http://www.w3.org/Graphics/SVG/1.1/DTD/svg11.dtd"><svg width="100%" height="100%" viewBox="0 0 1250 1438" version="1.1" xmlns="http://www.w3.org/2000/svg" xmlns:xlink="http://www.w3.org/1999/xlink" xml:space="preserve" xmlns:serif="http://www.serif.com/" style="fill-rule:evenodd;clip-rule:evenodd;stroke-linejoin:round;stroke-miterlimit:2;"><g id="Pirate"><g id="HairPirate"><path d="M389.43,532.455c-71.579,49.658 -241.508,78.003 -302.015,63.828l0.018,0.717c-16.287,130.86 -46.174,211.335 -87.433,289.257l-0,-506.214c-0,-83.661 67.922,-151.584 151.583,-151.584l946.834,0c83.661,0 151.583,67.923 151.583,151.584l-0,506.214c-45.431,-30.594 -67.53,-72.228 -82.396,-148.677c-10.065,-0.434 -27.577,-10.54 -46.578,-26.866c23.032,31.302 25.456,65.181 17.454,100.362c-5.411,-36.209 -60.827,-56.221 -91.635,-62.316c-130.627,-25.843 -209.796,-88.885 -251.168,-205.922c12.304,90.222 -13.948,165.906 41.716,247.875c-74.797,-57.77 -80.665,-147.355 -101.316,-241.707c15.551,86.541 7.706,124.622 -31.046,164.617c-5.028,-89.079 -173.936,-174.022 -154.66,-296.106c-38.213,69.154 -81.933,130.964 -149.994,160.321c1.456,-15.592 -1.731,-30.761 -10.947,-45.383Z" style="fill:#fabc2e;"/><path d="M389.43,491.496c-77.849,38.014 -174.275,64.552 -289.061,63.8l-28.417,-0.718l0.018,0.718c-16.288,130.86 -41.137,238.889 -71.97,330.961l-0,-547.174c-0,-83.661 67.922,-151.583 151.583,-151.583l946.834,-0c83.661,-0 151.583,67.922 151.583,151.583l-0,547.174c-34.26,-42.509 -57.104,-104.996 -71.97,-181.445c-19.001,-5.646 -38.003,-18.732 -57.004,-35.057c23.032,31.302 25.456,65.18 17.454,100.362c-5.411,-36.209 -60.827,-56.222 -91.635,-62.317c-130.627,-25.842 -198.625,-94.098 -239.997,-211.134c12.304,90.222 -25.119,171.119 30.545,253.088c-74.797,-57.77 -70.984,-167.463 -91.635,-261.815c15.552,86.541 -1.975,144.729 -40.727,184.725c-5.028,-89.08 -173.936,-174.023 -154.66,-296.106c-38.213,69.153 -81.933,130.964 -149.994,160.321c1.456,-15.592 -1.731,-30.762 -10.947,-45.383Z" style="fill:#3f1c12;"/></g></g></svg>