<?xml version="1.0" encoding="UTF-8" standalone="no"?><!DOCTYPE svg PUBLIC "-//W3C//DTD SVG 1.1//EN" "http://www.w3.org/Graphics/SVG/1.1/DTD/svg11.dtd"><svg width="100%" height="100%" viewBox="0 0 1250 1438" version="1.1" xmlns="http://www.w3.org/2000/svg" xmlns:xlink="http://www.w3.org/1999/xlink" xml:space="preserve" xmlns:serif="http://www.serif.com/" style="fill-rule:evenodd;clip-rule:evenodd;stroke-linejoin:round;stroke-miterlimit:2;"><g id="saint_patricks_v1"><path d="M1250,848.184c-7.424,7.424 -36.285,12.452 -52.837,-4.1c-7.16,-7.16 -13.67,-17.297 -15.701,-33.483c-0.943,-7.514 -0.164,-14.406 1.251,-20.196c-8.908,-8.091 -14.747,-17.52 -14.629,-33.051c0.099,-13.013 5.155,-24.626 11,-35.562c-5.499,-5.194 -10.122,-13.072 -10.091,-24.877c0.022,-8.549 2.02,-15.201 5.04,-21.963c4.3,-9.628 4.658,-22.066 5.293,-48.726c0.162,-6.783 0.302,-13.602 0.4,-20.444c-0.627,-0.701 -1.194,-1.454 -1.695,-2.253c-1.974,-0.3 -3.902,-0.956 -5.686,-1.963c-4.617,-2.607 -7.718,-7.255 -8.353,-12.519c-1.199,-9.945 -1.29,-19.507 0.189,-28.442l-110.243,-131.894c-2.033,0.384 -4.146,0.392 -6.235,-0.008c-6.866,-1.317 -13.241,-3.64 -19.173,-6.86l-0.028,0.486c-0.312,5.511 -3.332,10.51 -8.065,13.35c-4.733,2.84 -10.565,3.152 -15.574,0.834c-26.998,-12.494 -48.145,-28.531 -64.644,-47.328c0,-0 -180.37,-0 -180.37,-0c-4.262,41.157 -23.264,76.722 -71.742,101.154c-7.978,4.02 -17.707,1.036 -22.058,-6.767l-48.122,-86.303c-30.743,33.266 -68.07,50.108 -111.302,52.137c-4.737,0.222 -9.345,-1.584 -12.668,-4.967c-3.324,-3.382 -5.05,-8.021 -4.745,-12.753c0.482,-7.489 1.437,-14.811 2.995,-21.917c-8.627,1.976 -17.596,3.108 -26.931,3.155c-7.852,0.039 -14.666,-5.407 -16.358,-13.075c-0.691,-3.129 -1.133,-6.748 -1.313,-10.664c0,-0 -179.375,-0 -179.375,-0.001c-0.828,5.751 -2.662,11.286 -5.633,16.569c-4.196,7.462 -13.364,10.531 -21.207,7.1c-0,-0 -9.446,-4.133 -9.446,-4.133c-0.325,0.565 -0.668,1.126 -1.03,1.682c-4.067,6.241 -11.781,9.027 -18.896,6.823c-1.651,-0.512 -3.276,-1.104 -4.876,-1.771c-0,-0 -121.323,145.151 -121.323,145.15c1.479,8.936 1.388,18.499 0.189,28.443c-0.635,5.264 -3.736,9.912 -8.353,12.519c-1.784,1.007 -3.712,1.663 -5.686,1.963c-0.501,0.799 -1.068,1.552 -1.695,2.253c0.098,6.842 0.238,13.661 0.4,20.444c0.635,26.66 1.617,36.707 5.916,46.335c3.02,6.762 5.018,13.414 5.041,21.963c0.03,11.805 -7.948,19.683 -13.448,24.877c5.845,10.936 10.902,22.549 11,35.562c0.118,15.532 -5.72,24.96 -14.629,33.051c1.415,5.79 2.194,12.682 1.251,20.196c-2.031,16.186 -8.29,26.583 -15.7,33.483c-11.246,10.471 -39.24,9.925 -50.105,-0.941l0,-500.663c0,-83.661 67.922,-151.583 151.583,-151.583l946.834,-0c83.661,-0 151.583,67.922 151.583,151.583l0,508.095Z" style="fill:#fabc2e;"/><path d="M0,825.847l0,-486.886c0,-83.661 67.922,-151.584 151.583,-151.584l118.113,0c-5.354,-4.393 -6.147,-11.375 -1.101,-20.849c9.568,9.288 14.727,10.869 24.7,13.229c-6.842,-8.064 -7.304,-17.629 1.558,-29.388c16.2,20.127 28.6,35.01 48.321,37.008l317.573,0c0.672,0.002 1.344,0.002 2.015,0c28.514,-0.169 55.585,-7.554 80.861,-23.909c0.775,8.498 -1.198,16.539 -7.188,23.909c22.085,-7.695 43.033,-20.315 61.734,-42.671c6.406,15.67 8.681,30.386 0.423,42.671l299.825,0c83.661,0 151.583,67.923 151.583,151.584l0,486.886c-2.934,5.2 -11.033,11.645 -22.484,11.952c-13.494,0.361 -33.096,-3.631 -36.613,-31.664c-1.885,-15.02 5.975,-26.5 5.975,-26.5c0,0 -6.696,-0.922 -9.962,-3.874c-5.603,-5.065 -9.336,-10.934 -9.262,-20.672c0.083,-10.977 5.049,-20.554 10.048,-29.711c1.268,-2.322 5.378,-12.896 5.378,-12.896c0,0 -14.556,-2.798 -14.517,-17.915c0.052,-19.765 16.394,-24.654 17.425,-67.944c0.265,-11.122 0.473,-22.341 0.532,-33.599l-4.372,1.646c-2.445,-6.831 -2.332,-9.918 -0.725,-12.516l-10.884,4.898c-1.325,-10.992 -1.193,-21.423 1.748,-30.773l-125.307,-149.917l-6.138,5.972c-15.202,-2.915 -27.081,-12.478 -36.998,-25.964l-1.982,35.017c-27.347,-12.655 -48.169,-29.226 -63.869,-48.869l-203.86,0c-0.655,42.077 -15.558,78.762 -63.527,102.937l-57.398,-102.937l-6.238,0c-29.6,38.686 -66.883,58.163 -111.126,60.239c1.236,-19.184 5.839,-37.166 17.4,-52.662c-17.425,9.304 -36.625,16.055 -58.051,16.162c-1.382,-6.262 -1.363,-14.988 -0.066,-23.739l-214.023,0c1.804,8.958 1.268,17.415 -3.034,25.065l-28.076,-12.283c0.48,5.708 0.086,11.198 -3.045,16.004c-4.862,-1.506 -9.387,-4.02 -13.696,-7.186l-135.54,162.161c2.941,9.35 3.073,19.781 1.748,30.773l-10.884,-4.898c1.607,2.598 1.72,5.685 -0.725,12.516l-4.372,-1.646c0.059,11.258 0.267,22.477 0.532,33.599c1.031,43.29 17.373,48.179 17.425,67.944c0.039,15.117 -14.517,17.915 -14.517,17.915c0,0 4.11,10.574 5.378,12.896c4.999,9.157 9.965,18.734 10.048,29.711c0.074,9.738 -3.659,15.607 -9.262,20.672c-3.266,2.952 -9.962,3.874 -9.962,3.874c0,0 7.86,11.48 5.975,26.5c-3.517,28.033 -23.119,32.025 -36.613,31.664c-11.451,-0.307 -19.55,-6.752 -22.484,-11.952Z" style="fill:#3f1c12;"/></g></svg>