<?xml version="1.0" encoding="UTF-8" standalone="no"?><!DOCTYPE svg PUBLIC "-//W3C//DTD SVG 1.1//EN" "http://www.w3.org/Graphics/SVG/1.1/DTD/svg11.dtd"><svg width="100%" height="100%" viewBox="0 0 300 345" version="1.1" xmlns="http://www.w3.org/2000/svg" xmlns:xlink="http://www.w3.org/1999/xlink" xml:space="preserve" xmlns:serif="http://www.serif.com/" style="fill-rule:evenodd;clip-rule:evenodd;stroke-linejoin:round;stroke-miterlimit:2;"><g id="hair_20"><path id="shadow_hair_20" d="M22.683,136.386c40.722,-9.176 61.328,-32.624 74.029,-51.724c5.213,21.911 36.862,53.191 69.408,55.43c-0.291,-11.388 8.159,-20.062 16.075,-31.85c2.983,7.692 8.137,21.195 20.154,24.921c2.671,-5.893 10.81,-13.449 16.521,-18.149c17.936,10.956 58.827,22.01 58.827,22.01l22.303,5.974l0,-61.618c0,-20.079 -16.301,-36.38 -36.38,-36.38l-227.24,0c-20.079,0 -36.38,16.301 -36.38,36.38l0,60.875l22.683,-5.869Z" style="fill:#fabc2e;"/><path id="hair_201" serif:id="hair_20" d="M17.225,133.271c40.722,-9.176 67.434,-36.653 80.136,-55.753c5.213,21.911 34.044,55.079 65.672,59.039c1.951,-10.687 12.232,-21.916 20.148,-33.704c2.983,7.692 7.48,22.016 17.477,26.201c5.053,-5.193 11.767,-13.633 17.477,-18.332c17.936,10.955 64.597,22.377 64.597,22.377l17.268,4.438l0,-56.157c0,-20.079 -16.301,-36.38 -36.38,-36.38l-227.24,0c-20.079,0 -36.38,16.301 -36.38,36.38l0,56.157l17.273,-4.234l-0.048,-0.032Z" style="fill:#3f1c12;"/></g></svg>