<?xml version="1.0" encoding="UTF-8" standalone="no"?>
<!DOCTYPE svg PUBLIC "-//W3C//DTD SVG 1.1//EN" "http://www.w3.org/Graphics/SVG/1.1/DTD/svg11.dtd">
<svg width="100%" height="100%" viewBox="0 0 300 345" version="1.1" xmlns="http://www.w3.org/2000/svg" xmlns:xlink="http://www.w3.org/1999/xlink" xml:space="preserve" xmlns:serif="http://www.serif.com/" style="fill-rule:evenodd;clip-rule:evenodd;stroke-linejoin:round;stroke-miterlimit:2;">
    <g>
        <g>
            <g transform="matrix(-1,0,0,1,300,5.58867)">
                <path d="M300,185.129L300,185.697C300.085,185.629 300.083,185.435 300,185.129ZM300,185.129L300,81.38C300,70.305 295.04,60.379 287.222,53.704C256.118,27.141 233.75,15.048 201.235,23.606C192.224,17.483 179.782,11.982 150.063,11.974L150,11.974C120.28,11.982 107.839,17.483 98.828,23.606C66.313,15.048 43.945,27.141 12.84,53.704C5.023,60.379 0.063,70.305 0.063,81.38L0.063,185.129C0.86,182.187 12.961,165.147 23.837,155.672C29.208,150.994 29.477,142.599 28.415,135.556C22.035,94.441 35.234,89.079 42.729,85.672C73.786,71.555 104.887,119.234 150,119.278C150.021,119.278 150.042,119.278 150.063,119.278C195.176,119.234 226.277,71.555 257.333,85.672C264.828,89.079 278.353,94.766 271.973,135.881C270.911,142.924 271.18,151.319 276.55,155.997C287.427,165.472 299.203,182.187 300,185.129ZM0.063,185.129C-0.02,185.435 -0.022,185.629 0.063,185.697L0.063,185.129Z" style="fill:#fabc2e;"/>
            </g>
            <g transform="matrix(-1,0,0,1,300,0)">
                <path d="M300,185.129L300,185.697C300.085,185.629 300.083,185.435 300,185.129ZM300,185.129L300,81.38C300,70.305 295.04,60.379 287.222,53.704C256.118,27.141 233.75,15.048 201.235,23.606C192.224,17.483 179.782,11.982 150.063,11.974L150,11.974C120.28,11.982 107.839,17.483 98.828,23.606C66.313,15.048 43.945,27.141 12.84,53.704C5.023,60.379 0.063,70.305 0.063,81.38L0.063,185.129C0.86,182.187 9.167,168.94 20.044,159.466C25.414,154.788 25.684,146.392 24.621,139.35C18.242,98.235 35.234,89.079 42.729,85.672C73.786,71.555 104.887,119.234 150,119.278C150.021,119.278 150.042,119.278 150.063,119.278C195.176,119.234 226.277,71.555 257.333,85.672C264.828,89.079 281.821,98.235 275.442,139.35C274.379,146.392 274.648,154.788 280.019,159.466C290.895,168.94 299.203,182.187 300,185.129ZM0.063,185.129C-0.02,185.435 -0.022,185.629 0.063,185.697L0.063,185.129Z"/>
            </g>
            <g transform="matrix(-1,0,0,1,300,0)">
                <path d="M300,185.129L300,185.697C300.085,185.629 300.083,185.435 300,185.129ZM300,185.129L300,184.449C295.449,172.623 293.398,155.268 284.994,148.695L294.207,148.044C288.395,144.772 287.519,131.121 282.068,125.608L287.162,128.426C280.994,122.119 278.71,101.601 269.108,94.609C274.85,102.008 279.198,115.137 275.442,139.35C274.379,146.392 274.648,154.788 280.019,159.466C290.895,168.94 299.203,182.187 300,185.129ZM137.481,12.349C116.54,13.686 106.455,18.423 98.828,23.606C66.313,15.048 43.945,27.141 12.84,53.704C8.079,57.769 4.378,63.04 2.212,69.042C6.08,64.008 9.865,61.653 13.77,59.75C18.206,66.176 23.667,64.321 29.012,64.831C29.352,57.606 28.715,51.22 31.553,45.694C34.319,47.3 37.085,47.701 39.851,47.049L40.698,39.428C46.716,44.553 55.728,42.166 64.577,43.154C61.698,39.757 60.343,35.091 60.173,29.436C67.269,33.801 81.653,36.885 89.133,37.904C90.144,34.007 91.294,30.005 91.843,26.896C94.34,30.331 98.433,31.534 103.189,31.807L100.649,26.896C105.673,27.242 109.512,24.807 115.721,24.525C114.248,23.904 112.004,23.283 109.625,22.662C114.651,17.314 125.171,14.943 137.481,12.349ZM0.063,93.895L0.063,102.93C7.703,102.192 12.253,96.879 16.311,90.911C9.325,94.783 3.923,95.753 0.063,93.895ZM0.063,102.961L0.063,111.742C4.191,112.181 6.934,107.414 10.045,103.444C6.497,104.408 3.165,104.225 0.063,102.961ZM23.614,113.905C21.001,121.887 17.634,129.113 12.855,134.928L18.444,133.574C11.82,140.054 11.909,150.293 6.589,155.42L15.226,151.694C7.262,159.667 4.617,172.058 1.024,182.94C3.626,177.983 10.934,167.401 20.044,159.466C25.414,154.788 25.684,146.392 24.621,139.35C23.005,128.935 22.889,120.57 23.738,113.831L23.614,113.905ZM293.345,60.411C291.589,57.928 289.53,55.674 287.222,53.704C256.118,27.141 233.75,15.048 201.235,23.606C197.234,20.887 192.557,18.291 185.991,16.244C190.599,18.486 194.911,20.938 198.461,23.935C199.197,27.374 198.773,30.648 197.486,33.798C200.957,32.43 203.519,29.244 205.832,25.561C203.507,29.974 204.791,34.859 202.797,39.651C210.846,37.329 216.218,29.819 223.607,25.452C219.176,30.668 218.969,38.807 216.454,47.238C228.811,42.356 237.479,37.488 245.609,40.952C244.497,43.427 245.71,47.075 244.634,51.682C250.229,49.64 254.394,45.956 258.399,45.937C252.984,50.044 255.926,58.688 251.246,63.713C264.55,56.197 278.595,55.21 293.345,60.411ZM38.984,87.588C40.365,86.777 41.646,86.164 42.729,85.672C73.786,71.555 104.887,119.234 150,119.278C150.021,119.278 150.042,119.278 150.063,119.278C195.176,119.234 226.277,71.555 257.333,85.672C240.899,74.079 220.358,74.122 195.253,87.097C201.381,81.482 202.539,72.118 210.292,64.336C197.769,66.613 186.325,71.452 176.692,80.594C177.499,76.113 178.911,71.481 181.163,66.639C175.266,69.185 170.17,72.763 166.802,78.561C166.941,66.335 161.587,56.414 157.725,40.626L155.286,50.787C154.53,41.985 152.562,33.667 150,25.587C146.783,45.948 139.562,61.057 142.009,88.587C135.681,79.204 125.846,75.028 117.215,68.671C116.401,75.491 116.493,81.858 118.57,87.232C109.871,78.313 96.38,77.002 85.106,70.297C86.031,75.617 88.155,80.422 91.609,84.658C68.028,75.259 53.927,74.643 38.984,87.588Z" style="fill:#001929;"/>
            </g>
            <g>
                <g transform="matrix(-1,0,0,1,300,0)">
                    <path d="M300,185.129L300,105.653C292.571,112.828 284.652,115.268 276.37,114.204C277.169,120.878 277.028,129.126 275.442,139.35C274.379,146.392 274.648,154.788 280.019,159.466C290.895,168.94 299.203,182.187 300,185.129ZM0.063,185.129C0.86,182.187 9.167,168.94 20.044,159.466C25.414,154.788 25.684,146.392 24.621,139.35C22.457,125.402 22.983,115.132 24.915,107.517C15.844,106.737 7.62,104.334 0.063,100.652L0.063,185.129ZM300,185.129L300,185.697C300.085,185.629 300.083,185.435 300,185.129ZM0.063,185.129C-0.02,185.435 -0.022,185.629 0.063,185.697L0.063,185.129Z" style="fill:#a3a3a3;"/>
                </g>
                <g transform="matrix(-1,0,0,1,300,0)">
                    <path d="M300,95.731L300,91.489C290.653,97.231 281.264,101.421 272.29,99.693C273.378,101.87 274.334,104.378 275.086,107.273C284.793,108.037 292.395,102.183 300,95.731ZM0.063,83.199L0.063,87.98C8.367,93.521 16.76,99.486 26.857,101.681C28.324,98.216 30.117,95.491 32.012,93.326C19.935,92.983 9.806,88.502 0.063,83.199Z" style="fill:#a3a3a3;"/>
                </g>
                <g transform="matrix(-1,0,0,1,300,0)">
                    <path d="M300,185.129L300,185.697C300.085,185.629 300.083,185.435 300,185.129ZM300,185.129L300,184.449C295.449,172.623 293.398,155.268 284.994,148.695L294.207,148.044C288.395,144.772 287.519,131.121 282.068,125.608L287.162,128.426C284.483,125.687 282.537,120.267 280.406,114.44C279.071,114.458 277.725,114.378 276.37,114.204C277.169,120.878 277.007,129.123 275.442,139.35C274.364,146.39 274.648,154.788 280.019,159.466C290.895,168.94 299.203,182.187 300,185.129ZM1.024,182.94C3.626,177.983 10.934,167.401 20.044,159.466C25.414,154.788 25.699,146.39 24.621,139.35C23.027,128.931 22.889,120.57 23.738,113.831L23.614,113.905C21.001,121.887 17.634,129.113 12.855,134.928L18.444,133.574C11.82,140.054 11.909,150.293 6.589,155.42L15.226,151.694C7.262,159.667 4.617,172.058 1.024,182.94ZM0.063,100.652L0.063,102.93C1.296,102.811 2.449,102.572 3.532,102.231C2.36,101.735 1.204,101.208 0.063,100.652ZM0.063,102.961L0.063,111.742C3.868,112.147 6.495,108.129 9.319,104.388C8.829,104.23 8.341,104.066 7.856,103.898C5.119,104.285 2.519,103.962 0.063,102.961Z" style="fill:#909090;"/>
                </g>
            </g>
            <path d="M244.918,83.06C231.038,83.198 216.785,92.636 200.945,101.842C205.899,94.267 208.637,85.556 212.149,76.776C214.347,71.281 214.978,63.979 219.426,59.576C223.21,55.83 228.312,54.188 232.988,52.63C234.611,52.088 236.706,52.493 238.28,51.968C240.759,51.142 244,52.275 246.549,51.637C253.653,49.861 261.321,46.977 266.726,41.383C267.428,40.657 268.088,39.878 268.706,39.057C274.592,43.275 280.687,48.176 287.16,53.704C291.767,57.638 295.382,62.701 297.574,68.463C295.854,71.407 293.448,73.803 290.211,75.783C283.395,79.953 272.756,78.614 265.403,76.776C261.921,75.905 260.15,73.659 256.142,74.46C252.363,75.216 247.761,78.864 244.918,83.06ZM162.152,118.133C158.214,118.864 154.167,119.274 150,119.278C149.979,119.278 149.958,119.278 149.937,119.278C149.575,119.278 149.213,119.274 148.852,119.268C149.341,114.991 148.983,110.098 147.318,106.214C141.534,92.718 129.921,80.359 127.803,65.53C126.446,56.031 127.282,45.314 129.126,36.091C130.176,30.844 132.22,25.795 133.095,20.545C133.534,17.914 133.77,15.266 133.769,12.625C138.516,12.207 143.866,11.976 149.937,11.974L150,11.974C155.812,11.976 160.962,12.187 165.556,12.572C163.722,15.604 162.311,19.652 163.195,23.191C165.721,33.293 173.876,37.873 179.734,45.683C183.14,50.225 182.711,57.844 182.711,63.214C182.711,75.334 176.981,84.44 170.472,93.976C165.732,100.92 162.992,109.64 162.152,118.133ZM140.776,118.622C100.523,112.936 71.576,72.531 42.667,85.672L42.609,85.698C42.035,85.24 41.437,84.801 40.811,84.383C30.986,77.834 16.919,77.773 7.403,70.16C5.7,68.798 4.482,67.248 3.611,65.569C5.821,61.002 8.958,56.965 12.778,53.704C30.774,38.336 45.845,27.811 61.649,23.327L61.649,23.522C61.649,26.877 61.256,30.599 62.311,33.776C65.857,44.456 72.268,51.069 80.834,57.922C90.023,65.273 101.4,71.451 108.618,81.076C115.724,90.549 119.548,102.851 129.126,110.514C132.739,113.404 136.74,116.206 140.776,118.622Z" style="fill:#666;fill-opacity:0.15;"/>
        </g>
    </g>
</svg>
