<?xml version="1.0" encoding="UTF-8" standalone="no"?><!DOCTYPE svg PUBLIC "-//W3C//DTD SVG 1.1//EN" "http://www.w3.org/Graphics/SVG/1.1/DTD/svg11.dtd"><svg width="100%" height="100%" viewBox="0 0 1250 1438" version="1.1" xmlns="http://www.w3.org/2000/svg" xmlns:xlink="http://www.w3.org/1999/xlink" xml:space="preserve" xmlns:serif="http://www.serif.com/" style="fill-rule:evenodd;clip-rule:evenodd;stroke-linejoin:round;stroke-miterlimit:2;"><g id="Mermaid"><g id="HairMermaid"><path d="M1250,341.517l0,662.357c-3.569,2.051 -8.204,2.678 -13.502,2.02c-4.759,-0.591 -10.241,-2.201 -15.614,-3.505c-3.983,-0.966 -7.868,-1.888 -11.098,-1.312c-8.022,1.433 -14.048,4.796 -20.112,6.874c-8.001,2.742 -16.013,3.826 -26.653,-0.654c-7.881,-3.318 -11.644,-7.846 -13.154,-12.676c-1.971,-6.304 0.323,-14.393 5.973,-23.817c10.075,-16.8 31.177,-40.549 29.818,-72.745c-0.894,-21.183 -7.074,-38.143 -12.435,-54.586c-5.882,-18.038 -10.81,-35.509 -8.588,-56.39c2.149,-20.194 6.399,-37.272 8.668,-53.179c2.075,-14.549 2.469,-28.038 -2.853,-42.231c-8.996,-23.994 -25.364,-31.817 -40.604,-38.028c-12.227,-4.983 -23.817,-9.241 -32.119,-17.36c-11.871,-11.611 -17.274,-26.273 -23.571,-40.28c-5.257,-11.694 -11.211,-22.925 -24.792,-30.029c-8.019,-4.195 -16.622,-5.37 -25.359,-5.891c-9.966,-0.594 -20.114,-0.33 -29.995,-1.601c-19.885,-2.556 -42.379,-11.935 -58.255,-24.235c-16.143,-12.507 -23.918,-30.375 -32.096,-48.048c-7.046,-15.228 -14.399,-30.343 -30.605,-39.845c-15.504,-9.09 -32.125,-2.303 -48.937,3.933c-20.925,7.762 -42.092,15.162 -62.009,5.836c-17.86,-8.361 -31.508,-26.185 -45.985,-41.807c-12.231,-13.198 -25.028,-24.928 -43.655,-23.744c-22.195,1.41 -41.988,22.848 -41.988,22.848c-1.368,1.454 -3.257,2.304 -5.252,2.365c-1.995,0.061 -3.932,-0.674 -5.385,-2.042c0,0 -8.555,-8.04 -19.789,-14.757c-6.957,-4.16 -14.962,-7.934 -22.522,-8.414c-18.627,-1.184 -31.424,10.546 -43.655,23.744c-14.477,15.622 -28.125,33.446 -45.985,41.807c-19.917,9.326 -41.084,1.926 -62.009,-5.836c-16.812,-6.236 -33.433,-13.023 -48.937,-3.933c-16.206,9.502 -23.559,24.617 -30.605,39.845c-8.178,17.673 -15.953,35.541 -32.096,48.048c-15.876,12.3 -38.37,21.679 -58.255,24.235c-9.881,1.271 -20.029,1.007 -29.995,1.601c-8.737,0.521 -17.34,1.696 -25.359,5.891c-13.581,7.104 -19.535,18.335 -24.792,30.029c-6.297,14.007 -11.7,28.669 -23.571,40.28c-8.302,8.119 -19.892,12.377 -32.119,17.36c-15.24,6.211 -31.608,14.034 -40.604,38.028c-5.322,14.193 -4.928,27.682 -2.853,42.231c2.269,15.907 6.519,32.985 8.668,53.179c2.222,20.881 -2.706,38.352 -8.588,56.39c-5.361,16.443 -11.541,33.403 -12.435,54.586c-1.359,32.196 19.743,55.945 29.818,72.745c5.65,9.424 7.944,17.513 5.973,23.817c-1.51,4.83 -5.273,9.358 -13.154,12.676c-10.64,4.48 -18.652,3.396 -26.653,0.654c-6.064,-2.078 -12.09,-5.441 -20.112,-6.874c-3.23,-0.576 -7.115,0.346 -11.098,1.312c-5.373,1.304 -10.855,2.914 -15.614,3.505c-5.298,0.658 -9.933,0.031 -13.502,-2.02l-0,-662.357l1250,-0Z" style="fill:#fabc2e;"/><path d="M671.991,383.065c-24.758,1.573 -46.991,25.202 -46.991,25.202c0,-0 -25.311,-23.825 -46.991,-25.202c-42.064,-2.672 -59.235,50.294 -93.307,66.246c-36.154,16.928 -76.532,-29.983 -111.561,-9.445c-35.305,20.698 -33.202,64.959 -63.504,88.435c-14.882,11.531 -35.966,20.325 -54.606,22.721c-19.425,2.497 -39.903,-1.119 -57.883,8.287c-30.587,16.002 -27.813,49.763 -50.136,71.597c-19.114,18.695 -57.89,13.803 -74.507,58.126c-11.579,30.883 1.102,58.66 5.379,98.847c4.199,39.461 -19.205,65.948 -21.059,109.862c-2.389,56.582 59.461,89.052 27.235,102.622c-17.001,7.158 -25.611,-3.672 -42.524,-6.692c-13.739,-2.454 -37.112,13.379 -41.536,-1.464l0,-653.124c0,-2.601 0.066,-5.188 0.195,-7.757c0.128,-22.037 -2.814,-44.424 5.317,-65.426c5.105,-13.187 16.553,-21.274 22.47,-34.22c9.171,-20.068 13.531,-41.864 36.16,-51.673c23.15,-10.035 49.351,-0.967 73.175,-7.764c24.172,-6.897 43.44,-23.579 69.718,-24.006c29.45,-0.479 53.601,20.144 83.216,20.305c29.311,0.16 56.009,-19.191 84.914,-23.227c40.881,-5.707 73.798,18.903 105.266,15.249c27.812,-3.229 52.203,-20.147 80.862,-17.109c45.805,4.854 61.814,38.415 63.707,44.045c1.893,-5.63 17.902,-39.191 63.707,-44.045c28.659,-3.038 53.05,13.88 80.862,17.109c31.468,3.654 64.385,-20.956 105.266,-15.249c28.905,4.036 55.603,23.387 84.914,23.227c29.615,-0.161 53.766,-20.784 83.216,-20.305c26.278,0.427 45.546,17.109 69.718,24.006c23.824,6.797 50.025,-2.271 73.175,7.764c22.629,9.809 26.989,31.605 36.16,51.673c5.917,12.946 17.365,21.033 22.47,34.22c8.131,21.002 5.189,43.389 5.317,65.426c0.129,2.569 0.195,5.156 0.195,7.757l-0,653.124c-4.424,14.843 -27.797,-0.99 -41.536,1.464c-16.913,3.02 -25.523,13.85 -42.524,6.692c-32.226,-13.57 29.624,-46.04 27.235,-102.622c-1.854,-43.914 -25.258,-70.401 -21.059,-109.862c4.277,-40.187 16.958,-67.964 5.379,-98.847c-16.617,-44.323 -55.393,-39.431 -74.507,-58.126c-22.323,-21.834 -19.549,-55.595 -50.136,-71.597c-17.98,-9.406 -38.458,-5.79 -57.883,-8.287c-18.64,-2.396 -39.724,-11.19 -54.606,-22.721c-30.302,-23.476 -28.199,-67.737 -63.504,-88.435c-35.029,-20.538 -75.407,26.373 -111.561,9.445c-34.072,-15.952 -51.243,-68.918 -93.307,-66.246Z" style="fill:#3f1c12;"/></g></g></svg>