<?xml version="1.0" encoding="UTF-8" standalone="no"?><!DOCTYPE svg PUBLIC "-//W3C//DTD SVG 1.1//EN" "http://www.w3.org/Graphics/SVG/1.1/DTD/svg11.dtd"><svg width="100%" height="100%" viewBox="0 0 1250 1438" version="1.1" xmlns="http://www.w3.org/2000/svg" xmlns:xlink="http://www.w3.org/1999/xlink" xml:space="preserve" xmlns:serif="http://www.serif.com/" style="fill-rule:evenodd;clip-rule:evenodd;stroke-linejoin:round;stroke-miterlimit:2;"><g id="Cheerleader"><g id="HairCheerleader"><path d="M151.583,142.458l946.834,0c83.156,0 151.583,68.428 151.583,151.584l-0,128.007l-0,308.653c-18.025,-126.029 -90.955,-124.971 -116.532,-217.34c-146.492,-13.018 -392.758,-56.017 -508.468,-197.542c-126.779,141.2 -365.555,184.363 -508.454,197.489c-25.562,92.422 -98.518,91.339 -116.546,217.393l-0,-308.653l-0,-128.007c-0,-83.156 68.427,-151.584 151.583,-151.584Z" style="fill:#fabc2e;"/><path d="M151.583,142.458l946.834,0c83.156,0 151.583,68.428 151.583,151.584l-0,128.007l-0,267.416c-18.025,-126.029 -90.955,-124.97 -116.532,-217.339c-146.492,-13.018 -392.758,-56.017 -508.468,-197.543c-126.779,141.201 -365.555,184.364 -508.454,197.489c-25.562,92.423 -98.518,91.34 -116.546,217.393l-0,-267.416l-0,-128.007c-0,-83.156 68.427,-151.584 151.583,-151.584Z" style="fill:#3f1c12;"/><path d="M80.745,164.679l197.876,13.756c8.16,-20.532 15.996,-42.692 19.093,-64.672c1.81,-12.848 1.271,-24.775 -0.998,-37.478c-1.983,-11.097 -4.714,-22.162 -9.346,-32.475c-21.542,-47.969 -77.731,-45.401 -121.672,-41.475c-20.501,1.832 -35.568,-0.809 -35.568,-0.809c-0,-0 9.079,10.636 15.2,11.474c-0,0 -21.316,3.634 -32.201,6.787c-21.55,6.241 -41.609,17.047 -55.969,34.553c-3.417,4.165 -6.438,8.679 -8.406,13.718c-11.104,28.436 4.85,45.571 18.867,67.991c5.67,9.071 9.436,18.63 13.124,28.63Z" style="fill:#3f1c12;"/><path d="M1176.6,170.115l-197.876,13.756c-8.16,-20.532 -15.996,-42.693 -19.093,-64.673c-1.811,-12.847 -1.272,-24.775 0.998,-37.477c1.983,-11.098 4.714,-22.163 9.346,-32.476c21.542,-47.968 77.731,-45.401 121.672,-41.474c20.501,1.832 35.568,-0.81 35.568,-0.81c-0,0 -9.079,10.637 -15.2,11.475c0,-0 21.316,3.634 32.201,6.786c21.55,6.242 41.608,17.048 55.969,34.553c3.417,4.165 6.438,8.679 8.406,13.719c11.104,28.436 -4.85,45.57 -18.867,67.991c-5.671,9.07 -9.436,18.629 -13.124,28.63Z" style="fill:#3f1c12;"/><g><path d="M256.455,148.215c37.127,9.978 70.805,17.825 108.026,50.821c29.732,26.359 64.501,46.754 88.755,76.99c-23.912,-0.123 -47.85,2.942 -71.842,12.854c-11.205,16.279 -18.116,37.66 -24.581,59.573c-16.894,-40.849 -53.585,-68.323 -79.299,-101.383c-16.122,-28.972 -0.207,-48.024 -6.821,-58.701l-10.3,-6.64l-3.938,-33.514Z" style="fill:#b9000c;"/><path d="M201.929,168.344c-22.549,31.137 -43.762,58.447 -51.882,107.52c-6.487,39.201 -20.641,76.944 -20.431,115.705c18.493,-15.159 39.015,-27.858 63.893,-35.274c18.957,5.583 37.794,17.835 56.618,30.781c-12.612,-42.367 -1.425,-86.818 -2.28,-128.692c-5.73,-32.656 -30.091,-37.427 -31.681,-49.886l3.817,-11.645l-18.054,-28.509Z" style="fill:#b9000c;"/><path d="M237.732,369.99c0.535,0.51 1.314,0.74 2.081,0.538c1.175,-0.309 1.878,-1.513 1.569,-2.688c-0.368,-1.402 -0.705,-2.8 -1.014,-4.195c-0.262,-1.186 -1.438,-1.936 -2.624,-1.674c-1.187,0.262 -1.937,1.438 -1.675,2.624c0.152,0.685 0.31,1.371 0.476,2.057c-2.309,-1.553 -4.593,-3.056 -6.859,-4.506c-1.024,-0.655 -2.386,-0.356 -3.041,0.668c-0.654,1.023 -0.355,2.386 0.668,3.04c2.414,1.545 4.848,3.151 7.312,4.812c1.007,0.679 2.376,0.412 3.055,-0.595l0.052,-0.081Zm1.097,-14.843c-0.411,-2.879 -0.712,-5.746 -0.922,-8.604c-0.088,-1.211 -1.144,-2.123 -2.356,-2.034c-1.212,0.089 -2.123,1.145 -2.034,2.357c0.216,2.956 0.529,5.923 0.954,8.903c0.171,1.203 1.287,2.04 2.49,1.868c1.203,-0.171 2.04,-1.287 1.868,-2.49Zm-22.717,3.961c1.257,0.703 2.514,1.427 3.773,2.169c1.046,0.618 2.397,0.27 3.014,-0.777c0.618,-1.046 0.269,-2.397 -0.777,-3.014c-1.288,-0.76 -2.575,-1.501 -3.861,-2.22c-1.06,-0.593 -2.402,-0.214 -2.996,0.846c-0.593,1.061 -0.213,2.403 0.847,2.996Zm-15.587,-7.547c2.659,1.069 5.287,2.245 7.9,3.518c1.092,0.532 2.411,0.077 2.943,-1.016c0.532,-1.092 0.077,-2.411 -1.015,-2.943c-2.708,-1.318 -5.431,-2.536 -8.185,-3.643c-1.128,-0.454 -2.411,0.093 -2.864,1.221c-0.453,1.127 0.094,2.41 1.221,2.863Zm-59.74,22.018c0.021,-1.114 -0.805,-2.087 -1.935,-2.224c-1.206,-0.147 -2.305,0.713 -2.452,1.919c-0.114,0.938 -0.224,1.88 -0.331,2.826c-0.101,0.89 0.348,1.752 1.135,2.18c0.787,0.428 1.755,0.337 2.448,-0.231c0.405,-0.332 0.81,-0.662 1.214,-0.991c0.943,-0.766 1.086,-2.153 0.32,-3.096c-0.119,-0.147 -0.254,-0.275 -0.399,-0.383Zm6.939,-1.927c2.335,-1.776 4.673,-3.483 7.04,-5.12c1,-0.691 1.25,-2.063 0.559,-3.063c-0.691,-0.999 -2.063,-1.249 -3.063,-0.558c-2.421,1.674 -4.813,3.42 -7.201,5.237c-0.967,0.735 -1.155,2.118 -0.42,3.085c0.736,0.967 2.118,1.154 3.085,0.419Zm89.811,-33.775c-0.021,-1.451 -0.023,-2.9 -0.007,-4.348c0.013,-1.214 -0.963,-2.211 -2.178,-2.224c-1.215,-0.013 -2.212,0.963 -2.225,2.178c-0.016,1.484 -0.014,2.97 0.008,4.458c0.017,1.214 1.018,2.186 2.233,2.169c1.215,-0.018 2.187,-1.018 2.169,-2.233Zm-75.499,23.92c1.23,-0.75 2.474,-1.482 3.734,-2.195c1.057,-0.599 1.429,-1.944 0.831,-3.001c-0.599,-1.057 -1.943,-1.429 -3,-0.831c-1.302,0.737 -2.586,1.493 -3.857,2.268c-1.037,0.632 -1.366,1.988 -0.733,3.025c0.632,1.038 1.988,1.367 3.025,0.734Zm27.483,-12.584c0.757,-0.243 1.521,-0.482 2.295,-0.717c0.201,0.058 0.395,0.117 0.589,0.177c1.161,0.358 2.395,-0.294 2.753,-1.454c0.358,-1.161 -0.293,-2.395 -1.454,-2.753c-0.42,-0.13 -0.841,-0.257 -1.263,-0.381c-0.409,-0.12 -0.843,-0.12 -1.251,0.002c-1.02,0.304 -2.026,0.616 -3.018,0.936c-1.157,0.372 -1.793,1.613 -1.421,2.77c0.372,1.156 1.614,1.793 2.77,1.42Zm-16.079,6.383c2.552,-1.223 5.188,-2.378 7.927,-3.463c1.13,-0.448 1.683,-1.728 1.236,-2.857c-0.448,-1.13 -1.728,-1.684 -2.858,-1.236c-2.836,1.124 -5.564,2.319 -8.207,3.585c-1.096,0.525 -1.559,1.841 -1.035,2.937c0.525,1.095 1.841,1.559 2.937,1.034Zm-34.458,0.152c-0.494,2.89 -0.962,5.802 -1.397,8.744c-0.178,1.202 0.653,2.322 1.855,2.5c1.202,0.178 2.322,-0.654 2.5,-1.856c0.43,-2.908 0.893,-5.788 1.382,-8.645c0.204,-1.198 -0.602,-2.337 -1.799,-2.541c-1.198,-0.205 -2.336,0.601 -2.541,1.798Zm98.826,-30.929c0.15,-2.91 0.351,-5.817 0.584,-8.723c0.097,-1.211 -0.808,-2.273 -2.019,-2.37c-1.211,-0.097 -2.273,0.808 -2.37,2.019c-0.236,2.947 -0.439,5.895 -0.592,8.847c-0.063,1.214 0.872,2.25 2.085,2.312c1.213,0.063 2.249,-0.871 2.312,-2.085Zm-96.406,17.886c-0.286,1.442 -0.568,2.888 -0.844,4.338c-0.227,1.194 0.557,2.347 1.751,2.575c1.193,0.227 2.347,-0.558 2.574,-1.751c0.274,-1.439 0.553,-2.874 0.837,-4.305c0.237,-1.192 -0.539,-2.351 -1.731,-2.588c-1.191,-0.236 -2.351,0.539 -2.587,1.731Zm97.766,-35.346c0.139,-1.458 0.281,-2.917 0.425,-4.376c0.119,-1.209 -0.767,-2.287 -1.976,-2.406c-1.209,-0.119 -2.287,0.766 -2.406,1.975c-0.144,1.464 -0.287,2.926 -0.426,4.389c-0.116,1.209 0.773,2.285 1.982,2.4c1.21,0.116 2.285,-0.773 2.401,-1.982Zm-94.138,18.07c-0.626,2.872 -1.247,5.744 -1.854,8.624c-0.251,1.189 0.511,2.358 1.7,2.609c1.188,0.25 2.357,-0.511 2.608,-1.7c0.605,-2.87 1.223,-5.732 1.848,-8.593c0.259,-1.187 -0.494,-2.362 -1.681,-2.621c-1.187,-0.259 -2.361,0.494 -2.621,1.681Zm95.417,-31.219c0.276,-2.929 0.538,-5.865 0.766,-8.808c0.094,-1.211 -0.813,-2.271 -2.024,-2.365c-1.212,-0.094 -2.271,0.813 -2.365,2.024c-0.227,2.92 -0.486,5.831 -0.76,8.736c-0.114,1.21 0.775,2.284 1.985,2.398c1.209,0.115 2.284,-0.775 2.398,-1.985Zm-92.579,18.317c-0.315,1.435 -0.631,2.867 -0.946,4.298c-0.262,1.187 0.489,2.362 1.676,2.624c1.186,0.261 2.362,-0.49 2.623,-1.676c0.316,-1.432 0.632,-2.866 0.947,-4.302c0.261,-1.186 -0.491,-2.361 -1.678,-2.622c-1.187,-0.26 -2.362,0.492 -2.622,1.678Zm93.912,-35.975c0.072,-1.478 0.131,-2.958 0.175,-4.441c0.036,-1.215 -0.92,-2.23 -2.135,-2.266c-1.214,-0.036 -2.229,0.921 -2.265,2.135c-0.044,1.456 -0.102,2.908 -0.172,4.358c-0.059,1.213 0.878,2.246 2.092,2.305c1.213,0.059 2.246,-0.878 2.305,-2.091Zm-90.25,18.785c-0.587,2.885 -1.188,5.748 -1.797,8.597c-0.254,1.188 0.505,2.359 1.693,2.613c1.188,0.254 2.359,-0.504 2.613,-1.692c0.612,-2.863 1.216,-5.742 1.805,-8.641c0.242,-1.191 -0.528,-2.354 -1.719,-2.596c-1.19,-0.242 -2.353,0.528 -2.595,1.719Zm90.492,-32.132l-0.045,-1.009c-0.522,-2.975 -1.213,-5.698 -2.035,-8.2c-0.379,-1.155 -1.624,-1.784 -2.778,-1.405c-1.154,0.378 -1.784,1.623 -1.405,2.778c0.743,2.262 1.369,4.718 1.847,7.396c0.008,0.188 0.011,0.35 0.014,0.513c0.02,1.214 1.022,2.184 2.237,2.164c1.215,-0.02 2.185,-1.022 2.165,-2.237Zm-88.01,19.211c-0.259,1.444 -0.524,2.881 -0.793,4.311c-0.225,1.194 0.562,2.346 1.755,2.571c1.194,0.225 2.346,-0.562 2.571,-1.756c0.272,-1.442 0.539,-2.892 0.801,-4.348c0.214,-1.196 -0.582,-2.341 -1.778,-2.556c-1.196,-0.215 -2.341,0.582 -2.556,1.778Zm3.186,-17.393c-0.602,2.814 -1.167,5.719 -1.695,8.723c-0.21,1.197 0.591,2.339 1.788,2.549c1.197,0.21 2.339,-0.591 2.549,-1.787c0.518,-2.95 1.072,-5.801 1.663,-8.564c0.254,-1.188 -0.504,-2.359 -1.692,-2.613c-1.189,-0.254 -2.359,0.504 -2.613,1.692Zm79.111,-19.471c-0.76,-1.396 -1.561,-2.705 -2.39,-3.938c-0.679,-1.008 -2.048,-1.276 -3.056,-0.598c-1.008,0.678 -1.276,2.047 -0.597,3.055c0.755,1.123 1.484,2.315 2.176,3.586c0.581,1.067 1.919,1.462 2.986,0.881c1.067,-0.581 1.462,-1.919 0.881,-2.986Zm-8.138,-11.067c-2.216,-2.345 -4.438,-4.36 -6.472,-6.211c-0.899,-0.817 -2.293,-0.751 -3.11,0.148c-0.818,0.898 -0.752,2.292 0.147,3.109c1.959,1.782 4.101,3.719 6.234,5.977c0.835,0.883 2.229,0.923 3.112,0.089c0.883,-0.835 0.923,-2.229 0.089,-3.112Zm-67.777,17.58c-0.397,1.409 -0.784,2.841 -1.159,4.298c-0.304,1.177 0.405,2.378 1.582,2.681c1.176,0.304 2.378,-0.406 2.681,-1.582c0.367,-1.425 0.745,-2.825 1.133,-4.203c0.33,-1.169 -0.352,-2.386 -1.521,-2.716c-1.17,-0.33 -2.387,0.352 -2.716,1.522Zm5.669,-16.898c-1.065,2.707 -2.081,5.495 -3.048,8.381c-0.385,1.152 0.237,2.401 1.389,2.786c1.152,0.386 2.4,-0.236 2.786,-1.388c0.942,-2.812 1.932,-5.529 2.97,-8.167c0.445,-1.131 -0.112,-2.41 -1.243,-2.855c-1.13,-0.445 -2.409,0.112 -2.854,1.243Zm49.762,-12.856c-0.759,-1.019 -1.341,-2.05 -1.651,-3.165c-0.326,-1.17 -1.54,-1.856 -2.711,-1.53c-1.17,0.325 -1.856,1.54 -1.53,2.71c0.45,1.62 1.26,3.137 2.363,4.616c0.726,0.974 2.106,1.175 3.08,0.449c0.974,-0.726 1.176,-2.106 0.449,-3.08Zm-44.375,0.61c-0.648,1.327 -1.282,2.671 -1.903,4.034c-0.504,1.105 -0.016,2.412 1.09,2.916c1.105,0.504 2.412,0.015 2.916,-1.09c0.605,-1.328 1.223,-2.637 1.854,-3.93c0.532,-1.092 0.078,-2.411 -1.014,-2.944c-1.092,-0.532 -2.411,-0.078 -2.943,1.014Zm41.306,-14.449l-0.712,2.174c-0.379,1.154 0.252,2.399 1.406,2.777c1.155,0.378 2.399,-0.252 2.778,-1.406c0.52,-1.588 1.022,-3.119 1.022,-3.119l-0.178,0.179c0.323,-0.561 0.458,-1.296 -0.076,-2.139c-0.21,-0.33 -1.334,-2.106 -2.897,-4.574c-0.65,-1.027 -2.011,-1.332 -3.038,-0.682c-1.026,0.65 -1.332,2.011 -0.682,3.037l2.377,3.753Zm-32.734,-1.161c-1.54,2.531 -3.029,5.091 -4.465,7.699c-0.586,1.065 -0.198,2.404 0.867,2.99c1.064,0.586 2.404,0.198 2.99,-0.867c1.405,-2.552 2.862,-5.056 4.369,-7.533c0.631,-1.038 0.301,-2.394 -0.736,-3.025c-1.038,-0.632 -2.394,-0.302 -3.025,0.736Zm29.366,-12.386c-0.791,-1.25 -1.587,-2.506 -2.356,-3.72c-0.65,-1.026 -2.011,-1.332 -3.037,-0.682c-1.027,0.65 -1.332,2.011 -0.682,3.038c0.769,1.214 1.564,2.47 2.355,3.719c0.65,1.027 2.011,1.332 3.038,0.682c1.026,-0.65 1.332,-2.011 0.682,-3.037Zm-22.151,1.197c-0.832,1.229 -1.652,2.457 -2.461,3.687c-0.667,1.015 -0.385,2.381 0.63,3.049c1.015,0.667 2.382,0.384 3.049,-0.631c0.797,-1.213 1.607,-2.424 2.427,-3.636c0.682,-1.006 0.418,-2.376 -0.587,-3.057c-1.006,-0.681 -2.376,-0.418 -3.058,0.588Zm11.958,-9.378c0.706,0.497 1.67,0.55 2.444,0.06c1.027,-0.65 1.332,-2.012 0.682,-3.038c-0.703,-1.11 -1.156,-1.825 -1.239,-1.957l-0.006,-0.009c-0.146,-0.235 -0.339,-0.446 -0.577,-0.618c-0.984,-0.713 -2.361,-0.492 -3.074,0.492c-1.754,2.423 -3.47,4.809 -5.144,7.176c-0.702,0.992 -0.466,2.366 0.525,3.068c0.992,0.702 2.367,0.466 3.069,-0.526c1.089,-1.539 2.196,-3.087 3.32,-4.648Z" style="fill:#96000a;"/><path d="M354.758,327.701c-0.094,0.733 -0.555,1.402 -1.277,1.729c-1.108,0.5 -2.413,0.007 -2.913,-1.1c-0.597,-1.321 -1.215,-2.619 -1.855,-3.896c-0.543,-1.087 -0.103,-2.41 0.984,-2.954c1.086,-0.544 2.41,-0.103 2.954,0.984c0.314,0.627 0.623,1.259 0.927,1.897c0.814,-2.661 1.64,-5.267 2.487,-7.821c0.383,-1.153 1.629,-1.779 2.782,-1.397c1.154,0.383 1.779,1.629 1.397,2.783c-0.902,2.72 -1.78,5.5 -2.647,8.342c-0.355,1.162 -1.586,1.817 -2.748,1.463l-0.091,-0.03Zm-10.203,-10.837c-1.495,-2.495 -3.066,-4.911 -4.704,-7.262c-0.694,-0.997 -0.448,-2.37 0.549,-3.065c0.997,-0.694 2.37,-0.448 3.064,0.549c1.695,2.433 3.321,4.934 4.868,7.516c0.624,1.042 0.285,2.395 -0.757,3.019c-1.042,0.625 -2.395,0.286 -3.02,-0.757Zm20.139,-11.234c-0.534,1.338 -1.054,2.691 -1.564,4.061c-0.423,1.139 -1.692,1.719 -2.831,1.296c-1.138,-0.424 -1.719,-1.693 -1.295,-2.831c0.522,-1.402 1.054,-2.787 1.6,-4.156c0.45,-1.129 1.731,-1.68 2.86,-1.23c1.128,0.45 1.679,1.731 1.23,2.86Zm7.351,-15.68c-1.392,2.505 -2.692,5.073 -3.92,7.708c-0.513,1.101 -1.824,1.579 -2.925,1.065c-1.101,-0.513 -1.579,-1.824 -1.065,-2.925c1.272,-2.73 2.619,-5.391 4.061,-7.986c0.59,-1.062 1.931,-1.445 2.993,-0.856c1.062,0.59 1.446,1.932 0.856,2.994Zm60.266,-20.534c-0.718,-0.852 -0.689,-2.128 0.102,-2.946c0.844,-0.874 2.239,-0.898 3.113,-0.054c0.68,0.657 1.359,1.318 2.037,1.985c0.639,0.629 0.834,1.581 0.492,2.409c-0.341,0.828 -1.151,1.367 -2.046,1.363c-0.525,-0.003 -1.047,-0.005 -1.568,-0.005c-1.215,-0.001 -2.2,-0.988 -2.199,-2.203c0,-0.19 0.024,-0.374 0.069,-0.549Zm-6.603,2.875c-2.932,0.091 -5.824,0.238 -8.693,0.458c-1.211,0.093 -2.27,-0.815 -2.363,-2.026c-0.093,-1.212 0.815,-2.271 2.027,-2.363c2.934,-0.225 5.892,-0.376 8.892,-0.47c1.214,-0.038 2.231,0.917 2.268,2.132c0.038,1.214 -0.917,2.231 -2.131,2.269Zm-91.027,30.345c-0.898,-1.14 -1.809,-2.266 -2.733,-3.381c-0.775,-0.935 -0.645,-2.324 0.29,-3.099c0.935,-0.776 2.324,-0.646 3.1,0.29c0.947,1.143 1.882,2.298 2.802,3.467c0.752,0.954 0.587,2.339 -0.368,3.091c-0.954,0.752 -2.339,0.587 -3.091,-0.368Zm73.704,-28.983c-1.428,0.192 -2.855,0.407 -4.283,0.647c-1.199,0.201 -2.335,-0.609 -2.536,-1.807c-0.201,-1.198 0.609,-2.334 1.807,-2.535c1.475,-0.247 2.949,-0.47 4.424,-0.668c1.204,-0.163 2.313,0.683 2.475,1.887c0.162,1.204 -0.683,2.314 -1.887,2.476Zm-29.272,7.54c-0.741,0.287 -1.485,0.583 -2.233,0.888c-0.121,0.172 -0.234,0.34 -0.347,0.509c-0.676,1.01 -2.044,1.281 -3.054,0.605c-1.01,-0.676 -1.281,-2.045 -0.605,-3.054c0.245,-0.365 0.492,-0.729 0.741,-1.092c0.242,-0.35 0.58,-0.624 0.973,-0.786c0.984,-0.407 1.961,-0.798 2.933,-1.175c1.133,-0.439 2.409,0.124 2.849,1.256c0.439,1.133 -0.124,2.41 -1.257,2.849Zm16.509,-5.172c-2.753,0.658 -5.527,1.421 -8.338,2.304c-1.16,0.364 -2.396,-0.282 -2.76,-1.441c-0.364,-1.159 0.282,-2.395 1.441,-2.759c2.911,-0.914 5.783,-1.705 8.633,-2.386c1.181,-0.283 2.37,0.447 2.653,1.629c0.282,1.181 -0.448,2.37 -1.629,2.653Zm26.857,-21.589c2.204,1.933 4.402,3.9 6.593,5.911c0.895,0.821 0.955,2.215 0.134,3.11c-0.822,0.895 -2.215,0.955 -3.11,0.134c-2.167,-1.988 -4.34,-3.933 -6.52,-5.845c-0.913,-0.801 -1.005,-2.193 -0.204,-3.106c0.801,-0.914 2.193,-1.005 3.107,-0.204Zm-96.235,38.235c-1.951,-2.165 -3.938,-4.296 -5.949,-6.407c-0.838,-0.879 -0.805,-2.274 0.075,-3.112c0.879,-0.838 2.274,-0.805 3.112,0.075c2.04,2.14 4.055,4.302 6.033,6.498c0.813,0.903 0.74,2.296 -0.163,3.109c-0.902,0.813 -2.295,0.74 -3.108,-0.163Zm86.139,-46.84c1.131,0.94 2.26,1.885 3.388,2.837c0.928,0.784 1.046,2.174 0.262,3.103c-0.784,0.928 -2.174,1.045 -3.102,0.261c-1.119,-0.945 -2.24,-1.883 -3.362,-2.815c-0.935,-0.777 -1.063,-2.166 -0.286,-3.1c0.776,-0.935 2.165,-1.063 3.1,-0.286Zm-98.195,34.137c-1.026,-1.045 -2.056,-2.088 -3.086,-3.131c-0.854,-0.864 -0.846,-2.259 0.018,-3.113c0.864,-0.854 2.259,-0.846 3.113,0.018c1.034,1.046 2.066,2.092 3.096,3.14c0.851,0.866 0.839,2.261 -0.028,3.113c-0.866,0.851 -2.261,0.839 -3.113,-0.027Zm84.494,-45.268c2.296,1.835 4.587,3.675 6.873,5.529c0.943,0.765 1.088,2.153 0.323,3.096c-0.765,0.944 -2.153,1.089 -3.096,0.324c-2.278,-1.848 -4.561,-3.682 -6.849,-5.51c-0.949,-0.759 -1.104,-2.145 -0.345,-3.094c0.759,-0.949 2.145,-1.104 3.094,-0.345Zm-93.77,35.862c-2.06,-2.101 -4.112,-4.216 -6.144,-6.358c-0.836,-0.882 -0.799,-2.276 0.082,-3.112c0.882,-0.837 2.276,-0.8 3.112,0.082c2.015,2.124 4.051,4.222 6.094,6.306c0.85,0.867 0.836,2.262 -0.031,3.113c-0.868,0.85 -2.263,0.836 -3.113,-0.031Zm83.439,-44.095c1.148,0.916 2.295,1.829 3.442,2.742c0.95,0.757 1.108,2.143 0.351,3.093c-0.757,0.951 -2.143,1.108 -3.093,0.352c-1.148,-0.914 -2.296,-1.828 -3.445,-2.745c-0.95,-0.757 -1.106,-2.144 -0.349,-3.093c0.758,-0.95 2.144,-1.107 3.094,-0.349Zm-95.599,31.22c-0.986,-1.102 -1.965,-2.214 -2.933,-3.338c-0.793,-0.921 -0.69,-2.312 0.231,-3.105c0.92,-0.793 2.311,-0.689 3.104,0.231c0.951,1.103 1.911,2.195 2.879,3.276c0.81,0.905 0.733,2.298 -0.173,3.109c-0.905,0.81 -2.298,0.733 -3.108,-0.173Zm81.925,-42.264c2.273,1.871 4.544,3.717 6.812,5.545c0.945,0.763 1.094,2.15 0.331,3.096c-0.762,0.946 -2.149,1.094 -3.095,0.332c-2.279,-1.838 -4.561,-3.693 -6.846,-5.574c-0.938,-0.772 -1.072,-2.161 -0.3,-3.099c0.772,-0.938 2.16,-1.072 3.098,-0.3Zm-90.52,32.051l-0.601,-0.812c-1.468,-2.639 -2.647,-5.189 -3.586,-7.65c-0.433,-1.136 0.138,-2.409 1.273,-2.842c1.135,-0.432 2.408,0.138 2.841,1.273c0.848,2.224 1.909,4.526 3.225,6.907c0.112,0.152 0.212,0.28 0.312,0.407c0.75,0.956 0.582,2.341 -0.374,3.091c-0.956,0.75 -2.341,0.582 -3.09,-0.374Zm80.453,-40.522c1.111,0.958 2.222,1.907 3.332,2.848c0.927,0.786 1.042,2.176 0.256,3.103c-0.786,0.927 -2.176,1.042 -3.103,0.256c-1.12,-0.949 -2.24,-1.906 -3.361,-2.873c-0.92,-0.794 -1.022,-2.185 -0.229,-3.105c0.794,-0.92 2.185,-1.023 3.105,-0.229Zm-13.43,-11.501c2.24,1.807 4.508,3.707 6.81,5.707c0.917,0.797 1.015,2.189 0.218,3.106c-0.797,0.917 -2.189,1.014 -3.106,0.217c-2.26,-1.964 -4.487,-3.829 -6.686,-5.603c-0.946,-0.763 -1.095,-2.15 -0.332,-3.095c0.763,-0.946 2.15,-1.095 3.096,-0.332Zm-73.707,34.715c-0.289,-1.564 -0.492,-3.085 -0.625,-4.565c-0.108,-1.21 0.787,-2.281 1.997,-2.389c1.21,-0.108 2.28,0.786 2.389,1.996c0.12,1.348 0.305,2.733 0.568,4.156c0.221,1.195 -0.569,2.345 -1.764,2.566c-1.195,0.221 -2.344,-0.57 -2.565,-1.764Zm-0.651,-13.723c0.243,-3.216 0.7,-6.181 1.114,-8.9c0.183,-1.201 1.307,-2.027 2.508,-1.844c1.201,0.183 2.027,1.306 1.844,2.507c-0.398,2.618 -0.842,5.472 -1.076,8.569c-0.092,1.212 -1.15,2.121 -2.361,2.029c-1.212,-0.091 -2.121,-1.149 -2.029,-2.361Zm63.712,-29.043c1.196,0.844 2.399,1.713 3.608,2.609c0.977,0.722 1.183,2.102 0.46,3.079c-0.723,0.976 -2.102,1.182 -3.079,0.46c-1.182,-0.876 -2.358,-1.725 -3.527,-2.55c-0.993,-0.701 -1.23,-2.076 -0.53,-3.068c0.701,-0.993 2.075,-1.23 3.068,-0.53Zm-15.048,-9.552c2.533,1.432 5.079,2.957 7.647,4.59c1.025,0.651 1.329,2.013 0.677,3.038c-0.652,1.026 -2.013,1.329 -3.039,0.677c-2.502,-1.59 -4.984,-3.077 -7.451,-4.472c-1.058,-0.598 -1.431,-1.942 -0.833,-3c0.598,-1.057 1.942,-1.431 2.999,-0.833Zm-46.746,21.364c-0.052,-1.269 -0.249,-2.437 -0.711,-3.498c-0.484,-1.114 0.027,-2.412 1.141,-2.897c1.115,-0.484 2.413,0.027 2.897,1.141c0.67,1.542 0.997,3.23 1.072,5.074c0.05,1.214 -0.895,2.24 -2.109,2.289c-1.214,0.05 -2.24,-0.895 -2.29,-2.109Zm34.849,-27.481c1.339,0.623 2.678,1.267 4.018,1.934c1.088,0.541 1.532,1.864 0.991,2.951c-0.541,1.088 -1.864,1.532 -2.952,0.991c-1.306,-0.65 -2.61,-1.277 -3.915,-1.884c-1.102,-0.513 -1.58,-1.823 -1.067,-2.925c0.513,-1.101 1.823,-1.58 2.925,-1.067Zm-41.182,14.8l1.922,1.239c1.021,0.658 1.316,2.022 0.657,3.043c-0.658,1.021 -2.022,1.316 -3.043,0.657c-1.404,-0.905 -2.758,-1.778 -2.758,-1.778l0.251,0.027c-0.605,-0.232 -1.172,-0.718 -1.288,-1.709c-0.046,-0.388 -0.291,-2.476 -0.632,-5.377c-0.142,-1.207 0.722,-2.302 1.929,-2.444c1.207,-0.141 2.301,0.723 2.443,1.93l0.519,4.412Zm24.691,-21.523c2.79,0.996 5.559,2.046 8.317,3.167c1.126,0.457 1.668,1.742 1.211,2.868c-0.458,1.125 -1.743,1.668 -2.868,1.21c-2.699,-1.097 -5.409,-2.124 -8.14,-3.098c-1.144,-0.409 -1.742,-1.669 -1.333,-2.813c0.408,-1.145 1.668,-1.742 2.813,-1.334Zm-30.61,8.879c-0.172,-1.468 -0.346,-2.945 -0.514,-4.372c-0.141,-1.207 0.723,-2.302 1.93,-2.443c1.206,-0.142 2.301,0.722 2.443,1.929c0.168,1.427 0.341,2.904 0.514,4.373c0.142,1.206 -0.723,2.301 -1.93,2.443c-1.206,0.142 -2.301,-0.723 -2.443,-1.93Zm17.957,-13.023c1.42,0.429 2.831,0.866 4.234,1.312c1.158,0.368 1.799,1.607 1.431,2.765c-0.368,1.158 -1.607,1.799 -2.764,1.431c-1.384,-0.44 -2.776,-0.871 -4.176,-1.295c-1.163,-0.352 -1.822,-1.581 -1.47,-2.744c0.352,-1.163 1.582,-1.821 2.745,-1.469Zm-15.194,0.249c-0.236,0.83 -0.951,1.479 -1.861,1.586c-1.207,0.142 -2.301,-0.723 -2.443,-1.929c-0.154,-1.306 -0.252,-2.146 -0.27,-2.301l-0.002,-0.011c-0.034,-0.274 -0.017,-0.56 0.059,-0.843c0.315,-1.173 1.524,-1.87 2.697,-1.555c2.889,0.777 5.725,1.55 8.516,2.333c1.17,0.328 1.853,1.544 1.525,2.714c-0.328,1.17 -1.545,1.853 -2.714,1.525c-1.816,-0.51 -3.651,-1.015 -5.507,-1.519Z" style="fill:#96000a;"/><path d="M253.614,126.676c-0.784,-25.414 6.555,-44.479 23.385,-56.129l80.276,-60.106c23.205,-16.917 38.578,-11.543 50.462,3.758l27.858,138.179c5.2,25.833 -5.136,45.981 -34.36,46.872c-46.419,-2.968 -65.739,7.647 -106.367,-6.244c-13.253,-4.531 -17.182,-11.224 -25.111,-20.801l-13.059,2.632l-14.288,-40.296l11.204,-7.865Z" style="fill:#e00210;"/><path d="M190.566,149.826c-15.4,-20.231 -33.111,-30.415 -53.52,-28.86l-100.209,3.89c-28.679,1.48 -37.232,15.337 -36.823,34.706l65.411,124.864c12.234,23.339 32.955,32.475 56.212,14.758c34.181,-31.548 55.872,-35.473 78.675,-71.856c7.438,-11.867 6.273,-19.541 6.398,-31.973l11.8,-6.182l-14.288,-40.296l-13.656,0.949Z" style="fill:#e00210;"/><path d="M411.046,190.936c3.143,-1.015 5.95,-2.343 8.465,-3.941c1.026,-0.651 1.33,-2.012 0.678,-3.038c-0.651,-1.026 -2.013,-1.329 -3.038,-0.678c-2.216,1.407 -4.691,2.573 -7.459,3.468c-1.156,0.374 -1.791,1.616 -1.418,2.772c0.374,1.156 1.616,1.791 2.772,1.417Zm-13.579,2.267c1.578,-0.062 3.096,-0.179 4.557,-0.349c1.207,-0.141 2.072,-1.235 1.932,-2.441c-0.141,-1.207 -1.234,-2.073 -2.441,-1.932c-1.353,0.157 -2.759,0.266 -4.221,0.323c-1.214,0.048 -2.161,1.072 -2.113,2.286c0.048,1.214 1.072,2.161 2.286,2.113Zm29.199,-12.258c1.041,-1.15 2.009,-2.368 2.911,-3.647c0.701,-0.992 0.463,-2.367 -0.53,-3.067c-0.992,-0.701 -2.367,-0.463 -3.067,0.53c-0.8,1.133 -1.657,2.211 -2.579,3.231c-0.815,0.901 -0.745,2.294 0.156,3.109c0.901,0.815 2.294,0.745 3.109,-0.156Zm-46.863,12.527c3.342,-0.047 6.341,-0.089 8.805,-0.124c1.214,-0.017 2.187,-1.017 2.17,-2.232c-0.017,-1.215 -1.017,-2.187 -2.232,-2.17c-2.464,0.035 -5.463,0.077 -8.805,0.124c-1.215,0.017 -2.187,1.017 -2.17,2.232c0.017,1.215 1.017,2.187 2.232,2.17Zm-13.207,0.185c1.488,-0.021 2.959,-0.041 4.403,-0.061c1.214,-0.017 2.187,-1.018 2.17,-2.232c-0.017,-1.215 -1.017,-2.188 -2.232,-2.171c-1.444,0.021 -2.915,0.041 -4.402,0.062c-1.215,0.017 -2.188,1.017 -2.171,2.232c0.017,1.215 1.018,2.187 2.232,2.17Zm-17.609,0.248c2.863,-0.041 5.826,-0.082 8.805,-0.124c1.215,-0.017 2.187,-1.017 2.17,-2.232c-0.017,-1.215 -1.017,-2.187 -2.232,-2.17c-2.979,0.042 -5.941,0.083 -8.804,0.123c-1.215,0.017 -2.188,1.018 -2.171,2.232c0.018,1.215 1.018,2.188 2.232,2.171Zm-13.206,0.185c1.387,-0.019 2.86,-0.04 4.402,-0.062c1.215,-0.017 2.187,-1.017 2.17,-2.232c-0.017,-1.215 -1.017,-2.187 -2.232,-2.17c-1.542,0.022 -3.015,0.042 -4.402,0.062c-1.215,0.017 -2.187,1.017 -2.17,2.232c0.017,1.215 1.017,2.187 2.232,2.17Zm-17.799,-0.052c1.86,0.139 3.758,0.214 5.695,0.222l0.745,-0.127c-0,0 -0.67,0.126 -0.67,0.126c0,-0 1.36,-0.019 3.224,-0.045c1.215,-0.017 2.188,-1.018 2.171,-2.232c-0.018,-1.215 -1.018,-2.188 -2.232,-2.171l-3.233,0.046c-1.828,-0.008 -3.618,-0.078 -5.373,-0.209c-1.211,-0.091 -2.268,0.82 -2.359,2.031c-0.09,1.212 0.82,2.269 2.032,2.359Zm-13.407,-2.223c1.45,0.381 2.924,0.719 4.424,1.015c1.192,0.234 2.35,-0.543 2.585,-1.735c0.235,-1.192 -0.543,-2.351 -1.735,-2.585c-1.409,-0.278 -2.795,-0.596 -4.157,-0.953c-1.175,-0.308 -2.38,0.395 -2.688,1.571c-0.308,1.175 0.396,2.379 1.571,2.687Zm-16.811,-6.7c2.643,1.436 5.371,2.728 8.196,3.858c1.128,0.451 2.41,-0.099 2.861,-1.227c0.451,-1.128 -0.098,-2.41 -1.227,-2.861c-2.663,-1.065 -5.236,-2.284 -7.728,-3.639c-1.068,-0.58 -2.405,-0.184 -2.985,0.884c-0.581,1.067 -0.185,2.405 0.883,2.985Zm-11.345,-7.369c1.2,0.91 2.416,1.79 3.651,2.639c1.001,0.688 2.373,0.434 3.061,-0.567c0.689,-1.001 0.435,-2.373 -0.567,-3.061c-1.179,-0.811 -2.34,-1.651 -3.485,-2.519c-0.968,-0.734 -2.35,-0.544 -3.084,0.424c-0.734,0.969 -0.544,2.351 0.424,3.084Zm-13.396,-11.89c2.109,2.139 4.263,4.203 6.472,6.174c0.906,0.809 2.299,0.73 3.108,-0.176c0.809,-0.906 0.73,-2.299 -0.176,-3.108c-2.14,-1.91 -4.226,-3.909 -6.268,-5.981c-0.853,-0.865 -2.248,-0.875 -3.113,-0.022c-0.866,0.853 -0.875,2.248 -0.023,3.113Z" style="fill:#b9000c;"/><path d="M107.154,299.484c-3.081,1.191 -6.098,1.929 -9.057,2.272c-1.207,0.14 -2.301,-0.726 -2.441,-1.932c-0.14,-1.207 0.726,-2.301 1.933,-2.441c2.607,-0.303 5.264,-0.956 7.977,-2.005c1.134,-0.438 2.409,0.126 2.847,1.259c0.438,1.133 -0.126,2.409 -1.259,2.847Zm11.974,-6.793c-1.265,0.945 -2.518,1.811 -3.76,2.599c-1.025,0.651 -2.387,0.347 -3.038,-0.679c-0.651,-1.026 -0.347,-2.387 0.679,-3.038c1.15,-0.73 2.31,-1.532 3.481,-2.408c0.973,-0.728 2.354,-0.529 3.082,0.444c0.728,0.973 0.529,2.354 -0.444,3.082Zm-30.399,8.873c-1.533,-0.237 -3.052,-0.573 -4.559,-0.998c-1.169,-0.33 -1.85,-1.547 -1.52,-2.716c0.329,-1.169 1.547,-1.851 2.716,-1.521c1.334,0.376 2.68,0.674 4.038,0.885c1.2,0.186 2.024,1.312 1.838,2.513c-0.187,1.2 -1.313,2.024 -2.513,1.837Zm44.286,-19.792c-2.625,2.069 -4.98,3.925 -6.915,5.45c-0.955,0.752 -2.34,0.588 -3.092,-0.366c-0.752,-0.954 -0.588,-2.34 0.366,-3.092c1.936,-1.525 4.291,-3.381 6.916,-5.45c0.954,-0.752 2.34,-0.588 3.092,0.366c0.752,0.955 0.588,2.34 -0.367,3.092Zm10.374,-8.176c-1.168,0.921 -2.324,1.832 -3.458,2.725c-0.954,0.752 -2.339,0.588 -3.091,-0.366c-0.752,-0.954 -0.588,-2.339 0.366,-3.091c1.134,-0.894 2.289,-1.805 3.458,-2.726c0.954,-0.752 2.339,-0.588 3.091,0.367c0.752,0.954 0.588,2.339 -0.366,3.091Zm13.831,-10.901c-2.248,1.773 -4.575,3.606 -6.915,5.451c-0.955,0.752 -2.34,0.588 -3.092,-0.366c-0.752,-0.955 -0.588,-2.34 0.366,-3.092c2.341,-1.844 4.667,-3.678 6.916,-5.45c0.954,-0.752 2.34,-0.588 3.092,0.366c0.752,0.954 0.588,2.339 -0.367,3.091Zm10.374,-8.175c-1.089,0.858 -2.247,1.771 -3.458,2.725c-0.954,0.752 -2.339,0.588 -3.091,-0.366c-0.752,-0.954 -0.588,-2.34 0.366,-3.092c1.211,-0.954 2.368,-1.866 3.458,-2.725c0.954,-0.752 2.339,-0.588 3.091,0.366c0.752,0.955 0.588,2.34 -0.366,3.092Zm13.791,-11.253c-1.358,1.28 -2.784,2.533 -4.284,3.76l-0.658,0.371c-0,-0 0.599,-0.324 0.599,-0.324c0,-0 -1.068,0.842 -2.532,1.996c-0.955,0.752 -2.34,0.587 -3.092,-0.367c-0.752,-0.954 -0.588,-2.339 0.367,-3.091l2.539,-2.001c1.414,-1.158 2.76,-2.34 4.04,-3.547c0.884,-0.834 2.279,-0.793 3.112,0.091c0.834,0.884 0.793,2.279 -0.091,3.112Zm9.011,-10.172c-0.886,1.209 -1.818,2.401 -2.796,3.575c-0.778,0.933 -2.168,1.059 -3.101,0.281c-0.933,-0.778 -1.059,-2.167 -0.281,-3.101c0.92,-1.103 1.795,-2.223 2.628,-3.359c0.719,-0.979 2.098,-1.191 3.077,-0.473c0.98,0.719 1.192,2.098 0.473,3.077Zm8.836,-15.794c-1.148,2.78 -2.453,5.502 -3.935,8.159c-0.592,1.061 -1.934,1.442 -2.995,0.85c-1.061,-0.592 -1.442,-1.934 -0.85,-2.995c1.398,-2.505 2.628,-5.072 3.71,-7.694c0.464,-1.123 1.752,-1.658 2.875,-1.195c1.123,0.464 1.658,1.752 1.195,2.875Zm4.168,-12.869c-0.358,1.462 -0.749,2.912 -1.173,4.349c-0.344,1.165 -1.569,1.832 -2.734,1.488c-1.166,-0.344 -1.832,-1.569 -1.488,-2.734c0.405,-1.373 0.777,-2.757 1.12,-4.152c0.289,-1.18 1.482,-1.903 2.662,-1.613c1.18,0.289 1.903,1.482 1.613,2.662Zm2.914,-17.673c-0.291,2.99 -0.663,5.949 -1.136,8.871c-0.195,1.2 -1.326,2.016 -2.525,1.822c-1.2,-0.195 -2.016,-1.326 -1.821,-2.525c0.458,-2.831 0.818,-5.698 1.1,-8.594c0.117,-1.209 1.194,-2.095 2.403,-1.978c1.21,0.117 2.096,1.194 1.979,2.404Z" style="fill:#b9000c;"/><path d="M257.561,155.689c5.065,5.344 8.576,8.85 13.445,11.275c4.869,2.425 11.097,3.769 21.594,4.79l-35.039,-16.065Zm2.061,-2.923c17.585,6.34 37.008,-16.322 74.174,-31.974l-76.516,27.131l2.342,4.843Zm-9.077,-9.283c9.199,-1.657 16.929,-5.497 23.263,-11.415c6.335,-5.919 11.272,-13.915 14.886,-23.881l-38.149,35.296Z" style="fill:#b9000c;"/><path d="M205.17,175.061c-0.568,7.341 -1.086,12.275 -3.34,17.226c-2.254,4.951 -6.243,9.917 -13.753,17.323l17.093,-34.549Zm-3.443,-0.972c-9.663,16.001 -39.023,10.637 -77.747,21.894l76.515,-27.131l1.232,5.237Zm1.202,-12.928c-8.187,4.508 -16.611,6.395 -25.258,5.789c-8.648,-0.606 -17.52,-3.705 -26.604,-9.169l51.862,3.38Z" style="fill:#b9000c;"/><path d="M260.924,111.826c12.455,-28.295 79.891,-59.508 125.905,-105.167c-5.581,-1.807 -11.902,-0.501 -19.654,4.937l-87.735,65.628c-11.92,11.134 -17.658,22.698 -18.516,34.602Z" style="fill:#b9000c;"/><path d="M175.068,143.063c-27.497,-14.129 -99.532,4.112 -164.032,-2.362c3.196,-4.919 8.929,-7.887 18.374,-8.547l109.481,-4.3c16.272,1.138 28.012,6.505 36.177,15.209Z" style="fill:#b9000c;"/><g><path d="M266.329,137.175c-2.924,-8.185 -11.954,-12.487 -20.152,-9.602l-49.575,17.449c-8.199,2.886 -12.481,11.874 -9.557,20.059l12.934,36.203c2.924,8.185 11.954,12.488 20.152,9.602l49.575,-17.449c8.199,-2.885 12.481,-11.873 9.557,-20.058l-12.934,-36.204Z" style="fill:#e00210;"/><path d="M269.35,193.563l-48.862,17.198c-8.396,2.954 -17.585,-1.292 -20.509,-9.477l0.384,-0.186c32.643,-15.9 45.798,-41.344 45.457,-73.399l0.197,-0.068c8.276,-2.799 17.27,1.357 20.243,9.355l0.069,0.189c4.551,17.93 6.736,36.339 3.108,55.925l-0.087,0.463Z" style="fill:#b9000c;"/></g></g><g><path d="M993.545,148.215c-37.127,9.978 -70.805,17.825 -108.026,50.821c-29.732,26.359 -64.501,46.754 -88.755,76.99c23.912,-0.123 47.85,2.942 71.842,12.854c11.205,16.279 18.116,37.66 24.581,59.573c16.894,-40.849 53.585,-68.323 79.299,-101.383c16.122,-28.972 0.207,-48.024 6.821,-58.701l10.3,-6.64l3.938,-33.514Z" style="fill:#b9000c;"/><path d="M1048.07,168.344c22.549,31.137 43.762,58.447 51.882,107.52c6.487,39.201 20.641,76.944 20.431,115.705c-18.493,-15.159 -39.015,-27.858 -63.893,-35.274c-18.957,5.583 -37.794,17.835 -56.618,30.781c12.612,-42.367 1.425,-86.818 2.28,-128.692c5.73,-32.656 30.091,-37.427 31.681,-49.886l-3.817,-11.645l18.054,-28.509Z" style="fill:#b9000c;"/><path d="M1012.27,369.99c-0.535,0.51 -1.314,0.74 -2.081,0.538c-1.175,-0.309 -1.878,-1.513 -1.569,-2.688c0.368,-1.402 0.705,-2.8 1.014,-4.195c0.262,-1.186 1.438,-1.936 2.624,-1.674c1.187,0.262 1.937,1.438 1.675,2.624c-0.152,0.685 -0.31,1.371 -0.476,2.057c2.309,-1.553 4.593,-3.056 6.859,-4.506c1.024,-0.655 2.386,-0.356 3.041,0.668c0.654,1.023 0.355,2.386 -0.668,3.04c-2.414,1.545 -4.848,3.151 -7.312,4.812c-1.007,0.679 -2.376,0.412 -3.055,-0.595l-0.052,-0.081Zm-1.097,-14.843c0.411,-2.879 0.712,-5.746 0.922,-8.604c0.088,-1.211 1.144,-2.123 2.356,-2.034c1.212,0.089 2.123,1.145 2.034,2.357c-0.216,2.956 -0.529,5.923 -0.954,8.903c-0.171,1.203 -1.287,2.04 -2.49,1.868c-1.203,-0.171 -2.04,-1.287 -1.868,-2.49Zm22.717,3.961c-1.257,0.703 -2.514,1.427 -3.773,2.169c-1.046,0.618 -2.397,0.27 -3.014,-0.777c-0.618,-1.046 -0.269,-2.397 0.777,-3.014c1.288,-0.76 2.575,-1.501 3.861,-2.22c1.06,-0.593 2.402,-0.214 2.996,0.846c0.593,1.061 0.213,2.403 -0.847,2.996Zm15.587,-7.547c-2.659,1.069 -5.287,2.245 -7.9,3.518c-1.092,0.532 -2.411,0.077 -2.943,-1.016c-0.532,-1.092 -0.077,-2.411 1.015,-2.943c2.708,-1.318 5.431,-2.536 8.185,-3.643c1.128,-0.454 2.411,0.093 2.864,1.221c0.453,1.127 -0.094,2.41 -1.221,2.863Zm59.74,22.018c-0.021,-1.114 0.805,-2.087 1.935,-2.224c1.206,-0.147 2.305,0.713 2.452,1.919c0.114,0.938 0.224,1.88 0.331,2.826c0.101,0.89 -0.348,1.752 -1.135,2.18c-0.787,0.428 -1.755,0.337 -2.448,-0.231c-0.405,-0.332 -0.81,-0.662 -1.214,-0.991c-0.943,-0.766 -1.086,-2.153 -0.32,-3.096c0.119,-0.147 0.254,-0.275 0.399,-0.383Zm-6.939,-1.927c-2.335,-1.776 -4.673,-3.483 -7.04,-5.12c-1,-0.691 -1.25,-2.063 -0.559,-3.063c0.691,-0.999 2.063,-1.249 3.063,-0.558c2.421,1.674 4.813,3.42 7.201,5.237c0.967,0.735 1.155,2.118 0.42,3.085c-0.736,0.967 -2.118,1.154 -3.085,0.419Zm-89.811,-33.775c0.021,-1.451 0.023,-2.9 0.007,-4.348c-0.013,-1.214 0.963,-2.211 2.178,-2.224c1.215,-0.013 2.212,0.963 2.225,2.178c0.016,1.484 0.014,2.97 -0.008,4.458c-0.017,1.214 -1.018,2.186 -2.233,2.169c-1.215,-0.018 -2.187,-1.018 -2.169,-2.233Zm75.499,23.92c-1.23,-0.75 -2.474,-1.482 -3.734,-2.195c-1.057,-0.599 -1.429,-1.944 -0.831,-3.001c0.599,-1.057 1.943,-1.429 3,-0.831c1.302,0.737 2.586,1.493 3.857,2.268c1.037,0.632 1.366,1.988 0.733,3.025c-0.632,1.038 -1.988,1.367 -3.025,0.734Zm-27.483,-12.584c-0.757,-0.243 -1.521,-0.482 -2.295,-0.717c-0.201,0.058 -0.395,0.117 -0.589,0.177c-1.161,0.358 -2.395,-0.294 -2.753,-1.454c-0.358,-1.161 0.293,-2.395 1.454,-2.753c0.42,-0.13 0.841,-0.257 1.263,-0.381c0.409,-0.12 0.843,-0.12 1.251,0.002c1.02,0.304 2.026,0.616 3.018,0.936c1.157,0.372 1.793,1.613 1.421,2.77c-0.372,1.156 -1.614,1.793 -2.77,1.42Zm16.079,6.383c-2.552,-1.223 -5.188,-2.378 -7.927,-3.463c-1.13,-0.448 -1.683,-1.728 -1.236,-2.857c0.448,-1.13 1.728,-1.684 2.858,-1.236c2.836,1.124 5.564,2.319 8.207,3.585c1.096,0.525 1.559,1.841 1.035,2.937c-0.525,1.095 -1.841,1.559 -2.937,1.034Zm34.458,0.152c0.494,2.89 0.962,5.802 1.397,8.744c0.178,1.202 -0.653,2.322 -1.855,2.5c-1.202,0.178 -2.322,-0.654 -2.5,-1.856c-0.43,-2.908 -0.893,-5.788 -1.382,-8.645c-0.204,-1.198 0.602,-2.337 1.799,-2.541c1.198,-0.205 2.336,0.601 2.541,1.798Zm-98.826,-30.929c-0.15,-2.91 -0.351,-5.817 -0.584,-8.723c-0.097,-1.211 0.808,-2.273 2.019,-2.37c1.211,-0.097 2.273,0.808 2.37,2.019c0.236,2.947 0.439,5.895 0.592,8.847c0.063,1.214 -0.872,2.25 -2.085,2.312c-1.213,0.063 -2.249,-0.871 -2.312,-2.085Zm96.406,17.886c0.286,1.442 0.568,2.888 0.844,4.338c0.227,1.194 -0.557,2.347 -1.751,2.575c-1.193,0.227 -2.347,-0.558 -2.574,-1.751c-0.274,-1.439 -0.553,-2.874 -0.837,-4.305c-0.237,-1.192 0.539,-2.351 1.731,-2.588c1.191,-0.236 2.351,0.539 2.587,1.731Zm-97.766,-35.346c-0.139,-1.458 -0.281,-2.917 -0.425,-4.376c-0.119,-1.209 0.767,-2.287 1.976,-2.406c1.209,-0.119 2.287,0.766 2.406,1.975c0.144,1.464 0.287,2.926 0.426,4.389c0.116,1.209 -0.773,2.285 -1.982,2.4c-1.21,0.116 -2.285,-0.773 -2.401,-1.982Zm94.138,18.07c0.626,2.872 1.247,5.744 1.854,8.624c0.251,1.189 -0.511,2.358 -1.7,2.609c-1.188,0.25 -2.357,-0.511 -2.608,-1.7c-0.605,-2.87 -1.223,-5.732 -1.848,-8.593c-0.259,-1.187 0.494,-2.362 1.681,-2.621c1.187,-0.259 2.361,0.494 2.621,1.681Zm-95.417,-31.219c-0.276,-2.929 -0.538,-5.865 -0.766,-8.808c-0.094,-1.211 0.813,-2.271 2.024,-2.365c1.212,-0.094 2.271,0.813 2.365,2.024c0.227,2.92 0.486,5.831 0.76,8.736c0.114,1.21 -0.775,2.284 -1.985,2.398c-1.209,0.115 -2.284,-0.775 -2.398,-1.985Zm92.579,18.317c0.315,1.435 0.631,2.867 0.946,4.298c0.262,1.187 -0.489,2.362 -1.676,2.624c-1.186,0.261 -2.362,-0.49 -2.623,-1.676c-0.316,-1.432 -0.632,-2.866 -0.947,-4.302c-0.261,-1.186 0.491,-2.361 1.678,-2.622c1.187,-0.26 2.362,0.492 2.622,1.678Zm-93.912,-35.975c-0.072,-1.478 -0.131,-2.958 -0.175,-4.441c-0.036,-1.215 0.92,-2.23 2.135,-2.266c1.214,-0.036 2.229,0.921 2.265,2.135c0.044,1.456 0.102,2.908 0.172,4.358c0.059,1.213 -0.878,2.246 -2.092,2.305c-1.213,0.059 -2.246,-0.878 -2.305,-2.091Zm90.25,18.785c0.587,2.885 1.188,5.748 1.797,8.597c0.254,1.188 -0.505,2.359 -1.693,2.613c-1.188,0.254 -2.359,-0.504 -2.613,-1.692c-0.612,-2.863 -1.216,-5.742 -1.805,-8.641c-0.242,-1.191 0.528,-2.354 1.719,-2.596c1.19,-0.242 2.353,0.528 2.595,1.719Zm-90.492,-32.132l0.045,-1.009c0.522,-2.975 1.213,-5.698 2.035,-8.2c0.379,-1.155 1.624,-1.784 2.778,-1.405c1.154,0.378 1.784,1.623 1.405,2.778c-0.743,2.262 -1.369,4.718 -1.847,7.396c-0.008,0.188 -0.011,0.35 -0.014,0.513c-0.02,1.214 -1.022,2.184 -2.237,2.164c-1.215,-0.02 -2.185,-1.022 -2.165,-2.237Zm88.01,19.211c0.259,1.444 0.524,2.881 0.793,4.311c0.225,1.194 -0.562,2.346 -1.755,2.571c-1.194,0.225 -2.346,-0.562 -2.571,-1.756c-0.272,-1.442 -0.539,-2.892 -0.801,-4.348c-0.214,-1.196 0.582,-2.341 1.778,-2.556c1.196,-0.215 2.341,0.582 2.556,1.778Zm-3.186,-17.393c0.602,2.814 1.167,5.719 1.695,8.723c0.21,1.197 -0.591,2.339 -1.788,2.549c-1.197,0.21 -2.339,-0.591 -2.549,-1.787c-0.518,-2.95 -1.072,-5.801 -1.663,-8.564c-0.254,-1.188 0.504,-2.359 1.692,-2.613c1.189,-0.254 2.359,0.504 2.613,1.692Zm-79.111,-19.471c0.76,-1.396 1.561,-2.705 2.39,-3.938c0.679,-1.008 2.048,-1.276 3.056,-0.598c1.008,0.678 1.276,2.047 0.597,3.055c-0.755,1.123 -1.484,2.315 -2.176,3.586c-0.581,1.067 -1.919,1.462 -2.986,0.881c-1.067,-0.581 -1.462,-1.919 -0.881,-2.986Zm8.138,-11.067c2.216,-2.345 4.438,-4.36 6.472,-6.211c0.899,-0.817 2.293,-0.751 3.11,0.148c0.818,0.898 0.752,2.292 -0.147,3.109c-1.959,1.782 -4.101,3.719 -6.234,5.977c-0.835,0.883 -2.229,0.923 -3.112,0.089c-0.883,-0.835 -0.923,-2.229 -0.089,-3.112Zm67.777,17.58c0.397,1.409 0.784,2.841 1.159,4.298c0.304,1.177 -0.405,2.378 -1.582,2.681c-1.176,0.304 -2.378,-0.406 -2.681,-1.582c-0.367,-1.425 -0.745,-2.825 -1.133,-4.203c-0.33,-1.169 0.352,-2.386 1.521,-2.716c1.17,-0.33 2.387,0.352 2.716,1.522Zm-5.669,-16.898c1.065,2.707 2.081,5.495 3.048,8.381c0.385,1.152 -0.237,2.401 -1.389,2.786c-1.152,0.386 -2.4,-0.236 -2.786,-1.388c-0.942,-2.812 -1.932,-5.529 -2.97,-8.167c-0.445,-1.131 0.112,-2.41 1.243,-2.855c1.13,-0.445 2.409,0.112 2.854,1.243Zm-49.762,-12.856c0.759,-1.019 1.341,-2.05 1.651,-3.165c0.326,-1.17 1.54,-1.856 2.711,-1.53c1.17,0.325 1.856,1.54 1.53,2.71c-0.45,1.62 -1.26,3.137 -2.363,4.616c-0.726,0.974 -2.106,1.175 -3.08,0.449c-0.974,-0.726 -1.176,-2.106 -0.449,-3.08Zm44.375,0.61c0.648,1.327 1.282,2.671 1.903,4.034c0.504,1.105 0.016,2.412 -1.09,2.916c-1.105,0.504 -2.412,0.015 -2.916,-1.09c-0.605,-1.328 -1.223,-2.637 -1.854,-3.93c-0.532,-1.092 -0.078,-2.411 1.014,-2.944c1.092,-0.532 2.411,-0.078 2.943,1.014Zm-41.306,-14.449l0.712,2.174c0.379,1.154 -0.252,2.399 -1.406,2.777c-1.155,0.378 -2.399,-0.252 -2.778,-1.406c-0.52,-1.588 -1.022,-3.119 -1.022,-3.119l0.178,0.179c-0.323,-0.561 -0.458,-1.296 0.076,-2.139c0.21,-0.33 1.334,-2.106 2.897,-4.574c0.65,-1.027 2.011,-1.332 3.038,-0.682c1.026,0.65 1.332,2.011 0.682,3.037l-2.377,3.753Zm32.734,-1.161c1.54,2.531 3.029,5.091 4.465,7.699c0.586,1.065 0.198,2.404 -0.867,2.99c-1.064,0.586 -2.404,0.198 -2.99,-0.867c-1.405,-2.552 -2.862,-5.056 -4.369,-7.533c-0.631,-1.038 -0.301,-2.394 0.736,-3.025c1.038,-0.632 2.394,-0.302 3.025,0.736Zm-29.366,-12.386c0.791,-1.25 1.587,-2.506 2.356,-3.72c0.65,-1.026 2.011,-1.332 3.037,-0.682c1.027,0.65 1.332,2.011 0.682,3.038c-0.769,1.214 -1.564,2.47 -2.355,3.719c-0.65,1.027 -2.011,1.332 -3.038,0.682c-1.026,-0.65 -1.332,-2.011 -0.682,-3.037Zm22.151,1.197c0.832,1.229 1.652,2.457 2.461,3.687c0.667,1.015 0.385,2.381 -0.63,3.049c-1.015,0.667 -2.382,0.384 -3.049,-0.631c-0.797,-1.213 -1.607,-2.424 -2.427,-3.636c-0.682,-1.006 -0.418,-2.376 0.587,-3.057c1.006,-0.681 2.376,-0.418 3.058,0.588Zm-11.958,-9.378c-0.706,0.497 -1.67,0.55 -2.444,0.06c-1.027,-0.65 -1.332,-2.012 -0.682,-3.038c0.703,-1.11 1.156,-1.825 1.239,-1.957l0.006,-0.009c0.146,-0.235 0.339,-0.446 0.577,-0.618c0.984,-0.713 2.361,-0.492 3.074,0.492c1.754,2.423 3.47,4.809 5.144,7.176c0.702,0.992 0.466,2.366 -0.525,3.068c-0.992,0.702 -2.367,0.466 -3.069,-0.526c-1.089,-1.539 -2.196,-3.087 -3.32,-4.648Z" style="fill:#96000a;"/><path d="M895.242,327.701c0.094,0.733 0.555,1.402 1.277,1.729c1.108,0.5 2.413,0.007 2.913,-1.1c0.597,-1.321 1.215,-2.619 1.855,-3.896c0.543,-1.087 0.103,-2.41 -0.984,-2.954c-1.086,-0.544 -2.41,-0.103 -2.954,0.984c-0.314,0.627 -0.623,1.259 -0.927,1.897c-0.814,-2.661 -1.64,-5.267 -2.487,-7.821c-0.383,-1.153 -1.629,-1.779 -2.782,-1.397c-1.154,0.383 -1.779,1.629 -1.397,2.783c0.902,2.72 1.78,5.5 2.647,8.342c0.355,1.162 1.586,1.817 2.748,1.463l0.091,-0.03Zm10.203,-10.837c1.495,-2.495 3.066,-4.911 4.704,-7.262c0.694,-0.997 0.448,-2.37 -0.549,-3.065c-0.997,-0.694 -2.37,-0.448 -3.064,0.549c-1.695,2.433 -3.321,4.934 -4.868,7.516c-0.624,1.042 -0.285,2.395 0.757,3.019c1.042,0.625 2.395,0.286 3.02,-0.757Zm-20.139,-11.234c0.534,1.338 1.054,2.691 1.564,4.061c0.423,1.139 1.692,1.719 2.831,1.296c1.138,-0.424 1.719,-1.693 1.295,-2.831c-0.522,-1.402 -1.054,-2.787 -1.6,-4.156c-0.45,-1.129 -1.731,-1.68 -2.86,-1.23c-1.128,0.45 -1.679,1.731 -1.23,2.86Zm-7.351,-15.68c1.392,2.505 2.692,5.073 3.92,7.708c0.513,1.101 1.824,1.579 2.925,1.065c1.101,-0.513 1.579,-1.824 1.065,-2.925c-1.272,-2.73 -2.619,-5.391 -4.061,-7.986c-0.59,-1.062 -1.931,-1.445 -2.993,-0.856c-1.062,0.59 -1.446,1.932 -0.856,2.994Zm-60.266,-20.534c0.718,-0.852 0.689,-2.128 -0.102,-2.946c-0.844,-0.874 -2.239,-0.898 -3.113,-0.054c-0.68,0.657 -1.359,1.318 -2.037,1.985c-0.639,0.629 -0.834,1.581 -0.492,2.409c0.341,0.828 1.151,1.367 2.046,1.363c0.525,-0.003 1.047,-0.005 1.568,-0.005c1.215,-0.001 2.2,-0.988 2.199,-2.203c-0,-0.19 -0.024,-0.374 -0.069,-0.549Zm6.603,2.875c2.932,0.091 5.824,0.238 8.693,0.458c1.211,0.093 2.27,-0.815 2.363,-2.026c0.093,-1.212 -0.815,-2.271 -2.027,-2.363c-2.934,-0.225 -5.892,-0.376 -8.892,-0.47c-1.214,-0.038 -2.231,0.917 -2.268,2.132c-0.038,1.214 0.917,2.231 2.131,2.269Zm91.027,30.345c0.898,-1.14 1.809,-2.266 2.733,-3.381c0.775,-0.935 0.645,-2.324 -0.29,-3.099c-0.935,-0.776 -2.324,-0.646 -3.1,0.29c-0.947,1.143 -1.882,2.298 -2.802,3.467c-0.752,0.954 -0.587,2.339 0.368,3.091c0.954,0.752 2.339,0.587 3.091,-0.368Zm-73.704,-28.983c1.428,0.192 2.855,0.407 4.283,0.647c1.199,0.201 2.335,-0.609 2.536,-1.807c0.201,-1.198 -0.609,-2.334 -1.807,-2.535c-1.475,-0.247 -2.949,-0.47 -4.424,-0.668c-1.204,-0.163 -2.313,0.683 -2.475,1.887c-0.162,1.204 0.683,2.314 1.887,2.476Zm29.272,7.54c0.741,0.287 1.485,0.583 2.233,0.888c0.121,0.172 0.234,0.34 0.347,0.509c0.676,1.01 2.044,1.281 3.054,0.605c1.01,-0.676 1.281,-2.045 0.605,-3.054c-0.245,-0.365 -0.492,-0.729 -0.741,-1.092c-0.242,-0.35 -0.58,-0.624 -0.973,-0.786c-0.984,-0.407 -1.961,-0.798 -2.933,-1.175c-1.133,-0.439 -2.409,0.124 -2.849,1.256c-0.439,1.133 0.124,2.41 1.257,2.849Zm-16.509,-5.172c2.753,0.658 5.527,1.421 8.338,2.304c1.16,0.364 2.396,-0.282 2.76,-1.441c0.364,-1.159 -0.282,-2.395 -1.441,-2.759c-2.911,-0.914 -5.783,-1.705 -8.633,-2.386c-1.181,-0.283 -2.37,0.447 -2.653,1.629c-0.282,1.181 0.448,2.37 1.629,2.653Zm-26.857,-21.589c-2.204,1.933 -4.402,3.9 -6.593,5.911c-0.895,0.821 -0.955,2.215 -0.134,3.11c0.822,0.895 2.215,0.955 3.11,0.134c2.167,-1.988 4.34,-3.933 6.52,-5.845c0.913,-0.801 1.005,-2.193 0.204,-3.106c-0.801,-0.914 -2.193,-1.005 -3.107,-0.204Zm96.235,38.235c1.951,-2.165 3.938,-4.296 5.949,-6.407c0.838,-0.879 0.805,-2.274 -0.075,-3.112c-0.879,-0.838 -2.274,-0.805 -3.112,0.075c-2.04,2.14 -4.055,4.302 -6.033,6.498c-0.813,0.903 -0.74,2.296 0.163,3.109c0.902,0.813 2.295,0.74 3.108,-0.163Zm-86.139,-46.84c-1.131,0.94 -2.26,1.885 -3.388,2.837c-0.928,0.784 -1.046,2.174 -0.262,3.103c0.784,0.928 2.174,1.045 3.102,0.261c1.119,-0.945 2.24,-1.883 3.362,-2.815c0.935,-0.777 1.063,-2.166 0.286,-3.1c-0.776,-0.935 -2.165,-1.063 -3.1,-0.286Zm98.195,34.137c1.026,-1.045 2.056,-2.088 3.086,-3.131c0.854,-0.864 0.846,-2.259 -0.018,-3.113c-0.864,-0.854 -2.259,-0.846 -3.113,0.018c-1.034,1.046 -2.066,2.092 -3.096,3.14c-0.851,0.866 -0.839,2.261 0.028,3.113c0.866,0.851 2.261,0.839 3.113,-0.027Zm-84.494,-45.268c-2.296,1.835 -4.587,3.675 -6.873,5.529c-0.943,0.765 -1.088,2.153 -0.323,3.096c0.765,0.944 2.153,1.089 3.096,0.324c2.278,-1.848 4.561,-3.682 6.849,-5.51c0.949,-0.759 1.104,-2.145 0.345,-3.094c-0.759,-0.949 -2.145,-1.104 -3.094,-0.345Zm93.77,35.862c2.06,-2.101 4.112,-4.216 6.144,-6.358c0.836,-0.882 0.799,-2.276 -0.082,-3.112c-0.882,-0.837 -2.276,-0.8 -3.112,0.082c-2.015,2.124 -4.051,4.222 -6.094,6.306c-0.85,0.867 -0.836,2.262 0.031,3.113c0.868,0.85 2.263,0.836 3.113,-0.031Zm-83.439,-44.095c-1.148,0.916 -2.295,1.829 -3.442,2.742c-0.95,0.757 -1.108,2.143 -0.351,3.093c0.757,0.951 2.143,1.108 3.093,0.352c1.148,-0.914 2.296,-1.828 3.445,-2.745c0.95,-0.757 1.106,-2.144 0.349,-3.093c-0.758,-0.95 -2.144,-1.107 -3.094,-0.349Zm95.599,31.22c0.986,-1.102 1.965,-2.214 2.933,-3.338c0.793,-0.921 0.69,-2.312 -0.231,-3.105c-0.92,-0.793 -2.311,-0.689 -3.104,0.231c-0.951,1.103 -1.911,2.195 -2.879,3.276c-0.81,0.905 -0.733,2.298 0.173,3.109c0.905,0.81 2.298,0.733 3.108,-0.173Zm-81.925,-42.264c-2.273,1.871 -4.544,3.717 -6.812,5.545c-0.945,0.763 -1.094,2.15 -0.331,3.096c0.762,0.946 2.149,1.094 3.095,0.332c2.279,-1.838 4.561,-3.693 6.846,-5.574c0.938,-0.772 1.072,-2.161 0.3,-3.099c-0.772,-0.938 -2.16,-1.072 -3.098,-0.3Zm90.52,32.051l0.601,-0.812c1.468,-2.639 2.647,-5.189 3.586,-7.65c0.433,-1.136 -0.138,-2.409 -1.273,-2.842c-1.135,-0.432 -2.408,0.138 -2.841,1.273c-0.848,2.224 -1.909,4.526 -3.225,6.907c-0.112,0.152 -0.212,0.28 -0.312,0.407c-0.75,0.956 -0.582,2.341 0.374,3.091c0.956,0.75 2.341,0.582 3.09,-0.374Zm-80.453,-40.522c-1.111,0.958 -2.222,1.907 -3.332,2.848c-0.927,0.786 -1.042,2.176 -0.256,3.103c0.786,0.927 2.176,1.042 3.103,0.256c1.12,-0.949 2.24,-1.906 3.361,-2.873c0.92,-0.794 1.022,-2.185 0.229,-3.105c-0.794,-0.92 -2.185,-1.023 -3.105,-0.229Zm13.43,-11.501c-2.24,1.807 -4.508,3.707 -6.81,5.707c-0.917,0.797 -1.015,2.189 -0.218,3.106c0.797,0.917 2.189,1.014 3.106,0.217c2.26,-1.964 4.487,-3.829 6.686,-5.603c0.946,-0.763 1.095,-2.15 0.332,-3.095c-0.763,-0.946 -2.15,-1.095 -3.096,-0.332Zm73.707,34.715c0.289,-1.564 0.492,-3.085 0.625,-4.565c0.108,-1.21 -0.787,-2.281 -1.997,-2.389c-1.21,-0.108 -2.28,0.786 -2.389,1.996c-0.12,1.348 -0.305,2.733 -0.568,4.156c-0.221,1.195 0.569,2.345 1.764,2.566c1.195,0.221 2.344,-0.57 2.565,-1.764Zm0.651,-13.723c-0.243,-3.216 -0.7,-6.181 -1.114,-8.9c-0.183,-1.201 -1.307,-2.027 -2.508,-1.844c-1.201,0.183 -2.027,1.306 -1.844,2.507c0.398,2.618 0.842,5.472 1.076,8.569c0.092,1.212 1.15,2.121 2.361,2.029c1.212,-0.091 2.121,-1.149 2.029,-2.361Zm-63.712,-29.043c-1.196,0.844 -2.399,1.713 -3.608,2.609c-0.977,0.722 -1.183,2.102 -0.46,3.079c0.723,0.976 2.102,1.182 3.079,0.46c1.182,-0.876 2.358,-1.725 3.527,-2.55c0.993,-0.701 1.23,-2.076 0.53,-3.068c-0.701,-0.993 -2.075,-1.23 -3.068,-0.53Zm15.048,-9.552c-2.533,1.432 -5.079,2.957 -7.647,4.59c-1.025,0.651 -1.329,2.013 -0.677,3.038c0.652,1.026 2.013,1.329 3.039,0.677c2.502,-1.59 4.984,-3.077 7.451,-4.472c1.058,-0.598 1.431,-1.942 0.833,-3c-0.598,-1.057 -1.942,-1.431 -2.999,-0.833Zm46.746,21.364c0.052,-1.269 0.249,-2.437 0.711,-3.498c0.484,-1.114 -0.027,-2.412 -1.141,-2.897c-1.115,-0.484 -2.413,0.027 -2.897,1.141c-0.67,1.542 -0.997,3.23 -1.072,5.074c-0.05,1.214 0.895,2.24 2.109,2.289c1.214,0.05 2.24,-0.895 2.29,-2.109Zm-34.849,-27.481c-1.339,0.623 -2.678,1.267 -4.018,1.934c-1.088,0.541 -1.532,1.864 -0.991,2.951c0.541,1.088 1.864,1.532 2.952,0.991c1.306,-0.65 2.61,-1.277 3.915,-1.884c1.102,-0.513 1.58,-1.823 1.067,-2.925c-0.513,-1.101 -1.823,-1.58 -2.925,-1.067Zm41.182,14.8l-1.922,1.239c-1.021,0.658 -1.316,2.022 -0.657,3.043c0.658,1.021 2.022,1.316 3.043,0.657c1.404,-0.905 2.758,-1.778 2.758,-1.778l-0.251,0.027c0.605,-0.232 1.172,-0.718 1.288,-1.709c0.046,-0.388 0.291,-2.476 0.632,-5.377c0.142,-1.207 -0.722,-2.302 -1.929,-2.444c-1.207,-0.141 -2.301,0.723 -2.443,1.93l-0.519,4.412Zm-24.691,-21.523c-2.79,0.996 -5.559,2.046 -8.317,3.167c-1.126,0.457 -1.668,1.742 -1.211,2.868c0.458,1.125 1.743,1.668 2.868,1.21c2.699,-1.097 5.409,-2.124 8.14,-3.098c1.144,-0.409 1.742,-1.669 1.333,-2.813c-0.408,-1.145 -1.668,-1.742 -2.813,-1.334Zm30.61,8.879c0.172,-1.468 0.346,-2.945 0.514,-4.372c0.141,-1.207 -0.723,-2.302 -1.93,-2.443c-1.206,-0.142 -2.301,0.722 -2.443,1.929c-0.168,1.427 -0.341,2.904 -0.514,4.373c-0.142,1.206 0.723,2.301 1.93,2.443c1.206,0.142 2.301,-0.723 2.443,-1.93Zm-17.957,-13.023c-1.42,0.429 -2.831,0.866 -4.234,1.312c-1.158,0.368 -1.799,1.607 -1.431,2.765c0.368,1.158 1.607,1.799 2.764,1.431c1.384,-0.44 2.776,-0.871 4.176,-1.295c1.163,-0.352 1.822,-1.581 1.47,-2.744c-0.352,-1.163 -1.582,-1.821 -2.745,-1.469Zm15.194,0.249c0.236,0.83 0.951,1.479 1.861,1.586c1.207,0.142 2.301,-0.723 2.443,-1.929c0.154,-1.306 0.252,-2.146 0.27,-2.301l0.002,-0.011c0.034,-0.274 0.017,-0.56 -0.059,-0.843c-0.315,-1.173 -1.524,-1.87 -2.697,-1.555c-2.889,0.777 -5.725,1.55 -8.516,2.333c-1.17,0.328 -1.853,1.544 -1.525,2.714c0.328,1.17 1.545,1.853 2.714,1.525c1.816,-0.51 3.651,-1.015 5.507,-1.519Z" style="fill:#96000a;"/><path d="M996.386,126.676c0.784,-25.414 -6.555,-44.479 -23.385,-56.129l-80.276,-60.106c-23.205,-16.917 -38.578,-11.543 -50.462,3.758l-27.858,138.179c-5.2,25.833 5.136,45.981 34.36,46.872c46.419,-2.968 65.739,7.647 106.367,-6.244c13.253,-4.531 17.182,-11.224 25.111,-20.801l13.059,2.632l14.288,-40.296l-11.204,-7.865Z" style="fill:#e00210;"/><path d="M1059.43,149.826c15.4,-20.231 33.111,-30.415 53.52,-28.86l100.209,3.89c28.679,1.48 37.232,15.337 36.823,34.706l-65.411,124.864c-12.234,23.339 -32.955,32.475 -56.212,14.758c-34.181,-31.548 -55.872,-35.473 -78.675,-71.856c-7.438,-11.867 -6.273,-19.541 -6.398,-31.973l-11.8,-6.182l14.288,-40.296l13.656,0.949Z" style="fill:#e00210;"/><path d="M838.954,190.936c-3.143,-1.015 -5.95,-2.343 -8.465,-3.941c-1.026,-0.651 -1.33,-2.012 -0.678,-3.038c0.651,-1.026 2.013,-1.329 3.038,-0.678c2.216,1.407 4.691,2.573 7.459,3.468c1.156,0.374 1.791,1.616 1.418,2.772c-0.374,1.156 -1.616,1.791 -2.772,1.417Zm13.579,2.267c-1.578,-0.062 -3.096,-0.179 -4.557,-0.349c-1.207,-0.141 -2.072,-1.235 -1.932,-2.441c0.141,-1.207 1.234,-2.073 2.441,-1.932c1.353,0.157 2.759,0.266 4.221,0.323c1.214,0.048 2.161,1.072 2.113,2.286c-0.048,1.214 -1.072,2.161 -2.286,2.113Zm-29.199,-12.258c-1.041,-1.15 -2.009,-2.368 -2.911,-3.647c-0.701,-0.992 -0.463,-2.367 0.53,-3.067c0.992,-0.701 2.367,-0.463 3.067,0.53c0.8,1.133 1.657,2.211 2.579,3.231c0.815,0.901 0.745,2.294 -0.156,3.109c-0.901,0.815 -2.294,0.745 -3.109,-0.156Zm46.863,12.527c-3.342,-0.047 -6.341,-0.089 -8.805,-0.124c-1.214,-0.017 -2.187,-1.017 -2.17,-2.232c0.017,-1.215 1.017,-2.187 2.232,-2.17c2.464,0.035 5.463,0.077 8.805,0.124c1.215,0.017 2.187,1.017 2.17,2.232c-0.017,1.215 -1.017,2.187 -2.232,2.17Zm13.207,0.185c-1.488,-0.021 -2.959,-0.041 -4.403,-0.061c-1.214,-0.017 -2.187,-1.018 -2.17,-2.232c0.017,-1.215 1.017,-2.188 2.232,-2.171c1.444,0.021 2.915,0.041 4.402,0.062c1.215,0.017 2.188,1.017 2.171,2.232c-0.017,1.215 -1.018,2.187 -2.232,2.17Zm17.609,0.248c-2.863,-0.041 -5.826,-0.082 -8.805,-0.124c-1.215,-0.017 -2.187,-1.017 -2.17,-2.232c0.017,-1.215 1.017,-2.187 2.232,-2.17c2.979,0.042 5.941,0.083 8.804,0.123c1.215,0.017 2.188,1.018 2.171,2.232c-0.018,1.215 -1.018,2.188 -2.232,2.171Zm13.206,0.185c-1.387,-0.019 -2.86,-0.04 -4.402,-0.062c-1.215,-0.017 -2.187,-1.017 -2.17,-2.232c0.017,-1.215 1.017,-2.187 2.232,-2.17c1.542,0.022 3.015,0.042 4.402,0.062c1.215,0.017 2.187,1.017 2.17,2.232c-0.017,1.215 -1.017,2.187 -2.232,2.17Zm17.799,-0.052c-1.86,0.139 -3.758,0.214 -5.695,0.222l-0.745,-0.127c0,0 0.67,0.126 0.67,0.126c-0,-0 -1.36,-0.019 -3.224,-0.045c-1.215,-0.017 -2.188,-1.018 -2.171,-2.232c0.018,-1.215 1.018,-2.188 2.232,-2.171l3.233,0.046c1.828,-0.008 3.618,-0.078 5.373,-0.209c1.211,-0.091 2.268,0.82 2.359,2.031c0.09,1.212 -0.82,2.269 -2.032,2.359Zm13.407,-2.223c-1.45,0.381 -2.924,0.719 -4.424,1.015c-1.192,0.234 -2.35,-0.543 -2.585,-1.735c-0.235,-1.192 0.543,-2.351 1.735,-2.585c1.409,-0.278 2.795,-0.596 4.157,-0.953c1.175,-0.308 2.38,0.395 2.688,1.571c0.308,1.175 -0.396,2.379 -1.571,2.687Zm16.811,-6.7c-2.643,1.436 -5.371,2.728 -8.196,3.858c-1.128,0.451 -2.41,-0.099 -2.861,-1.227c-0.451,-1.128 0.098,-2.41 1.227,-2.861c2.663,-1.065 5.236,-2.284 7.728,-3.639c1.068,-0.58 2.405,-0.184 2.985,0.884c0.581,1.067 0.185,2.405 -0.883,2.985Zm11.345,-7.369c-1.2,0.91 -2.416,1.79 -3.651,2.639c-1.001,0.688 -2.373,0.434 -3.061,-0.567c-0.689,-1.001 -0.435,-2.373 0.567,-3.061c1.179,-0.811 2.34,-1.651 3.485,-2.519c0.968,-0.734 2.35,-0.544 3.084,0.424c0.734,0.969 0.544,2.351 -0.424,3.084Zm13.396,-11.89c-2.109,2.139 -4.263,4.203 -6.472,6.174c-0.906,0.809 -2.299,0.73 -3.108,-0.176c-0.809,-0.906 -0.73,-2.299 0.176,-3.108c2.14,-1.91 4.226,-3.909 6.268,-5.981c0.853,-0.865 2.248,-0.875 3.113,-0.022c0.866,0.853 0.875,2.248 0.023,3.113Z" style="fill:#b9000c;"/><path d="M1142.85,299.484c3.081,1.191 6.098,1.929 9.057,2.272c1.207,0.14 2.301,-0.726 2.441,-1.932c0.14,-1.207 -0.726,-2.301 -1.933,-2.441c-2.607,-0.303 -5.264,-0.956 -7.977,-2.005c-1.134,-0.438 -2.409,0.126 -2.847,1.259c-0.438,1.133 0.126,2.409 1.259,2.847Zm-11.974,-6.793c1.265,0.945 2.518,1.811 3.76,2.599c1.025,0.651 2.387,0.347 3.038,-0.679c0.651,-1.026 0.347,-2.387 -0.679,-3.038c-1.15,-0.73 -2.31,-1.532 -3.481,-2.408c-0.973,-0.728 -2.354,-0.529 -3.082,0.444c-0.728,0.973 -0.529,2.354 0.444,3.082Zm30.399,8.873c1.533,-0.237 3.052,-0.573 4.559,-0.998c1.169,-0.33 1.85,-1.547 1.52,-2.716c-0.329,-1.169 -1.547,-1.851 -2.716,-1.521c-1.334,0.376 -2.68,0.674 -4.038,0.885c-1.2,0.186 -2.024,1.312 -1.838,2.513c0.187,1.2 1.313,2.024 2.513,1.837Zm-44.286,-19.792c2.625,2.069 4.98,3.925 6.915,5.45c0.955,0.752 2.34,0.588 3.092,-0.366c0.752,-0.954 0.588,-2.34 -0.366,-3.092c-1.936,-1.525 -4.291,-3.381 -6.916,-5.45c-0.954,-0.752 -2.34,-0.588 -3.092,0.366c-0.752,0.955 -0.588,2.34 0.367,3.092Zm-10.374,-8.176c1.168,0.921 2.324,1.832 3.458,2.725c0.954,0.752 2.339,0.588 3.091,-0.366c0.752,-0.954 0.588,-2.339 -0.366,-3.091c-1.134,-0.894 -2.289,-1.805 -3.458,-2.726c-0.954,-0.752 -2.339,-0.588 -3.091,0.367c-0.752,0.954 -0.588,2.339 0.366,3.091Zm-13.831,-10.901c2.248,1.773 4.575,3.606 6.915,5.451c0.955,0.752 2.34,0.588 3.092,-0.366c0.752,-0.955 0.588,-2.34 -0.366,-3.092c-2.341,-1.844 -4.667,-3.678 -6.916,-5.45c-0.954,-0.752 -2.34,-0.588 -3.092,0.366c-0.752,0.954 -0.588,2.339 0.367,3.091Zm-10.374,-8.175c1.089,0.858 2.247,1.771 3.458,2.725c0.954,0.752 2.339,0.588 3.091,-0.366c0.752,-0.954 0.588,-2.34 -0.366,-3.092c-1.211,-0.954 -2.368,-1.866 -3.458,-2.725c-0.954,-0.752 -2.339,-0.588 -3.091,0.366c-0.752,0.955 -0.588,2.34 0.366,3.092Zm-13.791,-11.253c1.358,1.28 2.784,2.533 4.284,3.76l0.658,0.371c0,-0 -0.599,-0.324 -0.599,-0.324c-0,-0 1.068,0.842 2.532,1.996c0.955,0.752 2.34,0.587 3.092,-0.367c0.752,-0.954 0.588,-2.339 -0.367,-3.091l-2.539,-2.001c-1.414,-1.158 -2.76,-2.34 -4.04,-3.547c-0.884,-0.834 -2.279,-0.793 -3.112,0.091c-0.834,0.884 -0.793,2.279 0.091,3.112Zm-9.011,-10.172c0.886,1.209 1.818,2.401 2.796,3.575c0.778,0.933 2.168,1.059 3.101,0.281c0.933,-0.778 1.059,-2.167 0.281,-3.101c-0.92,-1.103 -1.795,-2.223 -2.628,-3.359c-0.719,-0.979 -2.098,-1.191 -3.077,-0.473c-0.98,0.719 -1.192,2.098 -0.473,3.077Zm-8.836,-15.794c1.148,2.78 2.453,5.502 3.935,8.159c0.592,1.061 1.934,1.442 2.995,0.85c1.061,-0.592 1.442,-1.934 0.85,-2.995c-1.398,-2.505 -2.628,-5.072 -3.71,-7.694c-0.464,-1.123 -1.752,-1.658 -2.875,-1.195c-1.123,0.464 -1.658,1.752 -1.195,2.875Zm-4.168,-12.869c0.358,1.462 0.749,2.912 1.173,4.349c0.344,1.165 1.569,1.832 2.734,1.488c1.166,-0.344 1.832,-1.569 1.488,-2.734c-0.405,-1.373 -0.777,-2.757 -1.12,-4.152c-0.289,-1.18 -1.482,-1.903 -2.662,-1.613c-1.18,0.289 -1.903,1.482 -1.613,2.662Zm-2.914,-17.673c0.291,2.99 0.663,5.949 1.136,8.871c0.195,1.2 1.326,2.016 2.525,1.822c1.2,-0.195 2.016,-1.326 1.821,-2.525c-0.458,-2.831 -0.818,-5.698 -1.1,-8.594c-0.117,-1.209 -1.194,-2.095 -2.403,-1.978c-1.21,0.117 -2.096,1.194 -1.979,2.404Z" style="fill:#b9000c;"/><path d="M992.439,155.689c-5.065,5.344 -8.576,8.85 -13.445,11.275c-4.869,2.425 -11.097,3.769 -21.594,4.79l35.039,-16.065Zm-2.061,-2.923c-17.585,6.34 -37.008,-16.322 -74.174,-31.974l76.516,27.131l-2.342,4.843Zm9.077,-9.283c-9.199,-1.657 -16.929,-5.497 -23.263,-11.415c-6.335,-5.919 -11.272,-13.915 -14.886,-23.881l38.149,35.296Z" style="fill:#b9000c;"/><path d="M1044.83,175.061c0.568,7.341 1.086,12.275 3.34,17.226c2.254,4.951 6.243,9.917 13.753,17.323l-17.093,-34.549Zm3.443,-0.972c9.663,16.001 39.023,10.637 77.747,21.894l-76.515,-27.131l-1.232,5.237Zm-1.202,-12.928c8.187,4.508 16.611,6.395 25.258,5.789c8.648,-0.606 17.52,-3.705 26.604,-9.169l-51.862,3.38Z" style="fill:#b9000c;"/><path d="M989.076,111.826c-12.455,-28.295 -79.891,-59.508 -125.905,-105.167c5.581,-1.807 11.902,-0.501 19.654,4.937l87.735,65.628c11.92,11.134 17.658,22.698 18.516,34.602Z" style="fill:#b9000c;"/><path d="M1074.93,143.063c27.497,-14.129 99.532,4.112 164.032,-2.362c-3.196,-4.919 -8.929,-7.887 -18.374,-8.547l-109.481,-4.3c-16.272,1.138 -28.012,6.505 -36.177,15.209Z" style="fill:#b9000c;"/><g><path d="M983.671,137.175c2.924,-8.185 11.954,-12.487 20.152,-9.602l49.575,17.449c8.199,2.886 12.481,11.874 9.557,20.059l-12.934,36.203c-2.924,8.185 -11.954,12.488 -20.152,9.602l-49.575,-17.449c-8.199,-2.885 -12.481,-11.873 -9.557,-20.058l12.934,-36.204Z" style="fill:#e00210;"/><path d="M980.65,193.563l48.862,17.198c8.396,2.954 17.585,-1.292 20.509,-9.477l-0.384,-0.186c-32.643,-15.9 -45.798,-41.344 -45.457,-73.399l-0.197,-0.068c-8.276,-2.799 -17.27,1.357 -20.243,9.355l-0.069,0.189c-4.551,17.93 -6.736,36.339 -3.108,55.925l0.087,0.463Z" style="fill:#b9000c;"/></g></g></g></g></svg>