<?xml version="1.0" encoding="UTF-8" standalone="no"?><!DOCTYPE svg PUBLIC "-//W3C//DTD SVG 1.1//EN" "http://www.w3.org/Graphics/SVG/1.1/DTD/svg11.dtd"><svg width="100%" height="100%" viewBox="0 0 1250 1438" version="1.1" xmlns="http://www.w3.org/2000/svg" xmlns:xlink="http://www.w3.org/1999/xlink" xml:space="preserve" xmlns:serif="http://www.serif.com/" style="fill-rule:evenodd;clip-rule:evenodd;stroke-linejoin:round;stroke-miterlimit:2;"><g id="Caveman"><g id="hairCaveman"><path d="M1152.61,1233.3c-12.996,-6.284 -24.379,-14.989 -33.733,-26.733c-5.702,-7.16 -6.063,-17.204 -0.89,-24.755c22.03,-32.154 34.397,-67.929 38.286,-106.886c-13.318,-8.193 -25.451,-17.566 -36.986,-27.545c-8.397,-7.265 -9.621,-19.839 -2.783,-28.587c60.982,-78.006 53.517,-181.52 41.956,-287.353c-42.865,-26.062 -97.805,-78.695 -127.542,-117.178c-5.297,6.76 -9.296,14.598 -10.674,25.9c-0.819,6.72 -4.853,12.623 -10.816,15.829c-5.963,3.205 -13.112,3.313 -19.17,0.289c-99.717,-49.783 -150.148,-126.91 -191.162,-209.415c-53.555,105.673 -81.448,210.093 -85.56,313.42c-0.288,7.232 -4.308,13.796 -10.619,17.338c-6.31,3.543 -14.008,3.557 -20.331,0.037c-123.436,-68.713 -189.647,-182.994 -225.1,-321.602c-6.869,7.716 -14.724,15.243 -23.455,22.513c-36.246,30.185 -87.876,56.569 -141.648,75.617c-53.478,18.944 -125.618,30.65 -169.798,32.22c-15.27,0.542 -29.302,-0.206 -41.69,-2.163c6.216,34.926 14.987,65.857 28.654,89.744c4.536,7.928 3.378,17.886 -2.855,24.563c-10.811,11.579 -21.181,15.506 -30.093,16.37c-0.412,0.04 -0.822,0.073 -1.23,0.098c-1.964,94.859 4.886,213.944 57.874,285.458c3.398,4.586 4.766,10.365 3.783,15.988c-0.982,5.623 -4.229,10.596 -8.981,13.759c-15.551,10.348 -32.389,16.561 -47.363,18.348c10.433,33.324 39.579,67.106 57.298,89.645c4.348,5.53 5.611,12.881 3.359,19.545c-10.421,30.841 -47.927,53.152 -74.66,59.499c-40.223,-27.267 -66.676,-73.348 -66.676,-125.558l0,-752.625c0,-83.661 67.922,-151.583 151.583,-151.583l946.834,-0c83.661,-0 151.583,67.922 151.583,151.583l0,752.625c0,64.573 -40.463,119.769 -97.395,141.595Z" style="fill:#fabc2e;"/><path d="M1056.32,187.5l42.1,0c83.661,0 151.583,67.922 151.583,151.583l0,752.625c0,54.464 -28.786,102.257 -71.97,128.987c-17.072,-4.858 -31.806,-13.223 -42.861,-27.105c26.576,-38.79 40.347,-82.383 42.861,-130.196c-16.749,-8.879 -31.377,-19.878 -45.117,-31.766c66.216,-84.702 57.885,-197.69 45.117,-312.743l0.198,-0.135c-49.933,-26.45 -123.984,-100.332 -144.669,-137.502c-16.083,16.858 -30.629,28.75 -34,56.396c-109.77,-54.801 -156.451,-144.815 -199.482,-236.865c-67.863,121.088 -102.664,240.602 -107.363,358.682c-132.866,-73.963 -195.761,-203.49 -226.338,-358.682c-30.638,108.445 -337.036,197.022 -411.027,153.799l0.018,0.718c6.766,50.911 17.293,96.182 36.094,129.043c-15.415,16.51 -27.447,8.959 -36.094,2.159c-3.852,102.461 0.32,244.311 61.134,326.386c-24.1,16.037 -51.772,20.494 -65.646,8.859c13.229,44.79 45.723,97.528 70.744,129.355c-11.97,35.424 -70.881,54.461 -79.835,45.05c-25.876,-27.197 -41.764,-63.978 -41.764,-104.44l0,-752.625c0,-83.661 67.922,-151.583 151.583,-151.583l46.477,-0c-10.801,-12.548 -18.907,-24.925 -10.06,-44.184c50.637,28.904 116.839,0.691 156.647,38.259l12.994,-74.353c44.73,49.294 99.735,29.718 143.653,80.278c88.357,-90.986 225.981,-57.647 325.148,-96.486c5.486,30.676 5.102,58.837 -2.887,83.737c22.844,-8.873 46.696,-19.761 71.465,-32.484c9.291,10.828 16.728,21.656 14.438,32.484c42.258,-17.748 96.1,2.107 147.984,-10.828c1.995,8.017 1.874,15.893 -1.125,23.577Z" style="fill:#3f1c12;"/></g></g></svg>