<?xml version="1.0" encoding="UTF-8"?>
<svg id="Layer_1" data-name="Layer 1" xmlns="http://www.w3.org/2000/svg" xmlns:xlink="http://www.w3.org/1999/xlink" viewBox="0 0 300 345">
  <defs>
    <style>
      .cls-1 {
        fill: #dd7399;
      }

      .cls-2 {
        fill: #fff;
      }

      .cls-3 {
        fill: #92270b;
      }

      .cls-3, .cls-4 {
        isolation: isolate;
        opacity: .35;
      }

      .cls-5 {
        fill: #d84119;
      }

      .cls-6 {
        fill: #c4a9ab;
      }

      .cls-7 {
        fill: #34a541;
      }

      .cls-8 {
        fill: #af1515;
      }

      .cls-9 {
        fill: #930d17;
      }

      .cls-10 {
        fill: url(#radial-gradient);
      }

      .cls-11 {
        fill: #ee5d30;
      }

      .cls-12 {
        fill: #6c8eb1;
        opacity: .75;
      }

      .cls-13 {
        fill: #fffdfe;
      }

      .cls-14 {
        fill: #a5bed7;
      }

      .cls-15 {
        fill: #26822c;
      }

      .cls-16 {
        fill: #bed1e4;
      }

      .cls-17 {
        fill: #c3daed;
      }

      .cls-18 {
        fill: #b7785f;
      }

      .cls-19 {
        fill: #935844;
        opacity: .29;
      }

      .cls-20 {
        fill: #a40e0e;
      }

      .cls-21 {
        fill: url(#radial-gradient-2);
      }

      .cls-22 {
        fill: url(#radial-gradient-3);
      }

      .cls-23 {
        fill: #ce9176;
      }

      .cls-24 {
        fill: #d11921;
      }

      .cls-25 {
        fill: #c11010;
      }

      .cls-26 {
        fill: none;
        stroke: #49342b;
        stroke-linecap: round;
        stroke-miterlimit: 10;
        stroke-width: 12px;
      }

      .cls-27 {
        fill: url(#linear-gradient);
      }

      .cls-4 {
        fill: #196821;
      }

      .cls-28 {
        fill: #e7bf9a;
      }

      .cls-29 {
        fill: #d12626;
      }

      .cls-30 {
        fill: #b4161c;
      }

      .cls-31 {
        fill: #414042;
      }

      #present-1, #present-2 {
        animation: upAndDown 1.2s linear 0s infinite alternate;
      }
      @keyframes upAndDown {
        0% { transform: translateY(0%); }
        100% { transform: translateY(-7.5%); }
      }
      #snow {
        animation: snowFall 2s linear 0s infinite alternate;
      }
      @keyframes snowFall {
        0% { transform: translateY(0%); }
        100% { transform: translateY(3%); }
      }
    </style>
    <radialGradient id="radial-gradient" cx="150.00005" cy="171.69501" fx="150.00005" fy="171.69501" r="177.65207" gradientUnits="userSpaceOnUse">
      <stop offset=".29808" stop-color="#6c7296"/>
      <stop offset=".42112" stop-color="#5b6287"/>
      <stop offset=".7335" stop-color="#373f67"/>
      <stop offset=".89933" stop-color="#29325b"/>
    </radialGradient>
    <linearGradient id="linear-gradient" x1="150.00005" y1="-10.10999" x2="150.00005" y2="184.84" gradientTransform="translate(0 346) scale(1 -1)" gradientUnits="userSpaceOnUse">
      <stop offset="0" stop-color="#a2bad4"/>
      <stop offset=".55587" stop-color="#6589aa"/>
      <stop offset=".69" stop-color="#6c8eb1"/>
    </linearGradient>
    <radialGradient id="radial-gradient-2" cx="95.53005" cy="132.88" fx="95.53005" fy="132.88" r="22.79" gradientTransform="translate(0 346) scale(1 -1)" gradientUnits="userSpaceOnUse">
      <stop offset=".09" stop-color="#f080a5" stop-opacity=".97"/>
      <stop offset=".17" stop-color="#f083a5" stop-opacity=".93"/>
      <stop offset=".29" stop-color="#ef8aa3" stop-opacity=".84"/>
      <stop offset=".44" stop-color="#ed95a1" stop-opacity=".68"/>
      <stop offset=".62" stop-color="#eba59f" stop-opacity=".46"/>
      <stop offset=".81" stop-color="#e8b99b" stop-opacity=".2"/>
      <stop offset=".87" stop-color="#e7bf9a" stop-opacity=".1"/>
    </radialGradient>
    <radialGradient id="radial-gradient-3" cx="204.47005" fx="204.47005" xlink:href="#radial-gradient-2"/>
  </defs>
  <g>
    <rect class="cls-10" x=".00005" y="45" width="300" height="253.39001" rx="36.38" ry="36.38"/>
    <g id="snow">
      <circle class="cls-17" cx="275.96458" cy="57.58722" r="4.70661"/>
      <g>
        <circle class="cls-17" cx="32.1487" cy="149.44509" r="4.70661"/>
        <circle class="cls-17" cx="20.59837" cy="119.81798" r="6.39339"/>
        <circle class="cls-17" cx="45.70176" cy="99.94366" r="5.0287"/>
        <circle class="cls-17" cx="39.27234" cy="66.97372" r="6.8171"/>
        <circle class="cls-17" cx="58.37703" cy="58.46691" r="4.87491"/>
        <circle class="cls-17" cx="90.90397" cy="71.24465" r="6.8171"/>
      </g>
      <g>
        <circle class="cls-17" cx="58.62508" cy="184.45689" r="7.0594"/>
        <circle class="cls-17" cx="62.78055" cy="157.54512" r="5.6714"/>
        <circle class="cls-17" cx="27.66057" cy="177.46931" r="5.19186"/>
      </g>
      <g>
        <circle class="cls-17" cx="235.70015" cy="72.66104" r="4.70661"/>
        <circle class="cls-17" cx="264.817" cy="85.44325" r="6.39339"/>
        <circle class="cls-17" cx="261.11948" cy="117.2473" r="5.0287"/>
        <circle class="cls-17" cx="288.97904" cy="136.01428" r="6.8171"/>
        <circle class="cls-17" cx="281.48521" cy="155.53855" r="4.87491"/>
        <circle class="cls-17" cx="249.44995" cy="169.50335" r="6.8171"/>
      </g>
      <g>
        <circle class="cls-17" cx="175.26571" cy="69.91446" r="7.0594"/>
        <circle class="cls-17" cx="191.35684" cy="91.88232" r="5.6714"/>
        <circle class="cls-17" cx="202.10189" cy="52.96022" r="5.19186"/>
      </g>
    </g>
    <g>
      <path id="E" class="cls-27" d="M263.62004,345H36.38005C16.28793,345,.00005,328.71213,.00005,308.62h0v-49.47998H300.00005v49.48001c0,20.0921-16.2879,36.37997-36.38,36.37997Z"/>
      <g>
        <rect class="cls-14" x="-.00005" y="207.30484" width="300" height="91.08002" rx="36.38" ry="36.38"/>
        <path class="cls-14" d="M199.65585,213.63535s26.82401-40.87422,100.3442-40.87422v80.08372l-56.58083,.48001-43.76337-39.68951Z"/>
        <path class="cls-14" d="M86.50996,225.02488l-61.81995,32.94L-.00005,256.24485v-47.23999s25.28003-17.25,46.46008-15.54999c21.18005,1.71002,40.04993,31.57001,40.04993,31.57001Z"/>
        <g>
          <path class="cls-16" d="M288.71669,180.74866s-23.4973-6.53554-68.66697,24.84223c-45.16967,31.37777,33.01159-6.03327,39.06497-6.73275,0,0-32.65009,25.09932-11.67344,25.7017s62.17334-37.61282,41.27544-43.81118Z"/>
          <path class="cls-16" d="M-.00005,250.39487v-31.14001s17.65147-20.37554,47.00638-15.31037S26.39009,240.02488-.00005,250.39487Z"/>
          <path class="cls-16" d="M53.0104,228.68784s-24.44048-1.2942-34.75028,10.02529c-10.30981,11.31949,6.56779,12.36539,17.97238,7.4953,11.40459-4.8701,28.70274-18.07472,16.7779-17.52059Z"/>
          <path class="cls-16" d="M13.02262,271.65431c10.92499,20.73809,49.36681,20.07772,42.95064,9.16293-6.41617-10.91478-53.87563-29.90102-42.95064-9.16293Z"/>
          <path class="cls-16" d="M281.61903,230.26542s-32.38081-.00916-35.20943,15.29456-13.44584,35.72146,3.26738,27.17599c16.71323-8.54547,64.3347-46.24595,31.94205-42.47055Z"/>
          <path class="cls-16" d="M288.76124,269.11493c3.88141-10.74917-31.18974-16.43967-38.84891,7.18309-7.65917,23.62276,34.96749,3.56609,38.84891-7.18309Z"/>
        </g>
      </g>
    </g>
    <ellipse class="cls-12" cx="150.00508" cy="256.1355" rx="88.86746" ry="29.78595"/>
    <path class="cls-26" d="M228.9001,141.47489v49.34998h.01001c.16992,.08002,.34985,.16003,.53992,.25,.58997,.28003,1.26001,.66003,1.97998,1.16003,3.68005,2.56,8.43005,8.28998,7.25,20.56-1.02991,10.75995-6.98999,15.23999-12.13,17.08997-2.96997,7.94-8.62,14.59003-15.84998,18.83002,1.81995,2.48999,3.01001,5.52002,2.75,9.08997-.83997,11.42004-34.06995-2.28998-38.16003-4.01996h-50.57996c-4.08997,1.72998-37.31995,15.44-38.16003,4.01996-.26001-3.56995,.92993-6.59998,2.75-9.08997-7.20996-4.25-12.85999-10.88-15.83997-18.82001-5.14001-1.84998-11.09998-6.33002-12.14001-17.09998-1.17993-12.27002,3.57007-18,7.25-20.56,.71997-.5,1.40002-.88,1.98999-1.17004,.09009-.03998,.18994-.08997,.28003-.13,.08997-.03998,.17993-.07996,.27002-.12v-49.35999c-25.80005-7.91998-29.66003-58.75,12.76001-58.75,8.72998,0,16.20996,3.42999,22.30994,8,7.06995-7.54999,18.21008-18.16998,31.60999-26.52997-1.35999-1.72003-2.13989-3.76001-2.13989-5.93005,0-6.23999,6.42993-11.29999,14.34985-11.29999s14.3501,5.06,14.3501,11.29999c0,2.17004-.78003,4.21002-2.14001,5.93005,13.42004,8.37,24.56995,19.00995,31.64001,26.56,6.09998-4.59003,13.59998-8.03003,22.34998-8.03003,42.45007,0,38.55994,50.90997,12.70007,58.77002Z"/>
    <g>
      <path class="cls-23" d="M198.35005,239.8s16,5.83,15.10001,17.99998c-.89999,12.16998-38.57001-4.2-38.57001-4.2v-15.53999l23.47,1.74001Zm-96.7,0s-16,5.83-15.1,17.99998c.9,12.16998,38.57-4.2,38.57-4.2v-15.53999l-23.47,1.74001Z"/>
      <rect class="cls-23" x="71.11005" y="104.48" width="157.78999" height="149.3" rx="36.85" ry="36.85"/>
      <path class="cls-23" d="M221.93004,142.46001l-46.92999-28.76001s14.94-31,41.2-31c46.00002,0,37.58,59.78,5.77,59.78m-143.89999-.02l47-28.76s-14.94-31-41.2-31c-46,0-37.58,59.77999-5.77,59.77999"/>
    </g>
    <path class="cls-8" d="M188.88594,221.94559v7.33063H97.73115v-7.33063h-26.27222c2.448,17.97754,17.85181,31.83441,36.5011,31.83441h84.08997c18.64941,0,34.0531-13.85687,36.50122-31.83441h-39.66528Z"/>
    <path class="cls-28" d="M96.64005,234.77c-16.82,0-26.46-9.64-26.46-26.46001s9.64-26.47,26.46-26.47h1.55l26.46,52.92999-28.01,.00002Z"/>
    <path class="cls-23" d="M96.64005,184.34l24,47.92999h-24c-13.23,0-24-6.63-24-24s10.73-24,24-24m3.1-5h-3.1c-18.13,0-29,10.83-29,29s10.83,29,29,29h32.06l-3.62-7.27-25.38-50.7,.04-.03Z"/>
    <path class="cls-28" d="M175.35005,234.77l26.45999-52.93001h1.55c16.81999,0,26.46001,9.64999,26.46001,26.47s-9.64,26.45999-26.45999,26.45999l-28.01001,.00002Z"/>
    <path class="cls-23" d="M203.36005,184.34c13.23,0,24,6.63,24,24s-10.73,24-24,24h-24l24-47.92999m0-5h-3.10001l-1.38,2.77-27.62,55.16h32.06c18.13,0,29-10.83,29-29s-10.83-29-29-29l.04001,.06999Z"/>
    <path class="cls-29" d="M94.6374,232.21622c-4.48682-.23877-8.62598-1.29932-12.07654-3.34839h-7.91077c4.63208,5.04358,11.42725,7.96118,19.9873,8.35272v-5.00433Z"/>
    <path class="cls-29" d="M217.57759,228.86783c-3.56677,2.15302-7.88916,3.22925-12.58276,3.43024v5.00873c8.73682-.33289,15.6698-3.2876,20.36707-8.43896h-7.7843Z"/>
    <path class="cls-18" d="M123.80005,228.5s12.38,15.75999,1.84,22.5c-10.54001,6.73999-27.1-20.33-27.1-20.33l25.26-2.17Zm53.31999-1.5s-12.38,15.77-1.84,22.5c10.54001,6.72998,26.2-19.39999,26.2-19.39999l-24.36-3.10001Z"/>
    <g>
      <path class="cls-28" d="M114.60005,232.27h-24c-13.24,0-24-6.63-24-24s10.73-24,24-24l24,48Zm70.8,0h24c13.24001,0,24-6.63,24-24s-10.73-24-24-24l-24,48Z"/>
      <path class="cls-28" d="M123.55005,226.75999s11.17,10,1.66,15.24001c-9.50999,5.24001-20.07-9.73-20.07-9.73l18.41-5.51001Zm52.90001,0s-11.17,10-1.66,15.24001c9.50999,5.24001,20.07001-9.73,20.07001-9.73l-18.41-5.51001Z"/>
      <rect class="cls-28" x="78.12005" y="110.4" width="143.77001" height="121.87" rx="33.58001" ry="33.58001"/>
    </g>
    <g>
      <ellipse class="cls-18" cx="185.41587" cy="145.79301" rx="14.55999" ry="10.39" transform="translate(-35.11351 62.11841) rotate(-17.40002)"/>
      <ellipse class="cls-18" cx="114.59627" cy="145.78783" rx="10.39" ry="14.55999" transform="translate(-58.78934 211.54365) rotate(-72.59998)"/>
    </g>
    <ellipse class="cls-21" cx="95.53005" cy="213.12" rx="17.59" ry="13.87"/>
    <ellipse class="cls-22" cx="204.47005" cy="213.12" rx="17.59" ry="13.87"/>
    <circle class="cls-18" cx="202.98004" cy="179.16" r="22.49001"/>
    <circle class="cls-2" cx="202.98004" cy="185.41" r="22.49001"/>
    <path class="cls-31" d="M211.00005,182.06c-1.41403,1.10205-3.15724,1.69722-4.95,1.69-4.51216-.00671-8.16455-3.66998-8.15784-8.18214,.00237-1.58763,.46725-3.14018,1.33783-4.46785-.66267-.0936-1.33078-.14371-2-.14999-7.81483,0-14.15001,6.33516-14.15001,14.14999s6.33517,14.15001,14.14999,14.15001,14.15001-6.33517,14.15001-14.14999v-.00002c-.0141-1.02425-.14156-2.04379-.38-3.03999l.00002-.00002Zm-19.88,12.28c-1.86121,0-3.37-1.50879-3.37001-3.37,0-1.86121,1.5088-3.37,3.37-3.37001,1.86121,0,3.37001,1.5088,3.37001,3.37v.00002c.00554,1.85179-1.48824,3.35898-3.34,3.37h-.03Z"/>
    <circle class="cls-18" cx="97.02004" cy="179.16" r="22.49"/>
    <circle class="cls-2" cx="97.02004" cy="185.41" r="22.49"/>
    <path class="cls-31" d="M116.62005,182.14999c-3.44073,2.91054-8.58944,2.48074-11.49998-.95998-1.24621-1.47322-1.93002-3.34041-1.93002-5.27002-.00362-1.73608,.55412-3.42682,1.59-4.82001-.66187-.10092-1.33048-.15106-2-.14999-7.81483-.00552-14.15447,6.32516-14.16,14.14-.00552,7.81482,6.32516,14.15446,14.14,14.15999,7.81483,.00552,14.15447-6.32516,14.16-14.13998v-.01001c.00228-.99106-.09826-1.97969-.3-2.95Zm-19.77,12.2c-1.86119,.00552-3.37446-1.49879-3.37998-3.35999s1.49879-3.37447,3.35999-3.37999,3.37446,1.49879,3.37998,3.35999c0,.00334,.00002,.00667,.00002,.00999,0,1.8573-1.50271,3.36449-3.36,3.37Z"/>
    <g>
      <path class="cls-23" d="M125.80005,107.8l24.2,51.58,24.2-51.58s-48.4,0-48.39999,0Z"/>
      <path class="cls-23" d="M142.32006,107.16s7.56-26,28.42999-21.2l-6.05,26.35-22.37999-5.15Z"/>
      <path class="cls-23" d="M132.70004,112.94s-5.28-29.9,18.10001-35.4l7,29.5-25.10001,5.9Z"/>
    </g>
    <ellipse class="cls-19" cx="150.00508" cy="118.1231" rx="56.06057" ry="19.21417"/>
    <path class="cls-29" d="M202.12095,100.26432l-26.9433,17.383-25.18217-2.65016-25.173,2.65016-26.94319-17.383s22.46659-29.23989,52.11619-42.6771c29.65888,13.43721,52.12547,42.6771,52.12547,42.6771Z"/>
    <ellipse class="cls-13" cx="149.9992" cy="58.24622" rx="14.34601" ry="11.30389"/>
    <path class="cls-13" d="M205.18873,116.067c-.27798,.43188-.45414,.66744-.45414,.66744-5.54248,7.53824-27.94425,13.18206-54.72983,13.18206-26.79497,0-49.19674-5.64382-54.73922-13.18206,0,0-.17605-.23556-.45414-.66744-1.77946-2.67957-7.72065-12.81884-1.2976-19.80736,7.46099-8.11725,11.21474-3.99485,11.21474-3.99485,0,0,11.85825,15.20402,45.26694,15.20402s45.27611-15.20402,45.27611-15.20402c0,0,3.75363-4.1224,11.21474,3.99485,6.42294,6.98852,.48197,17.12779-1.2976,19.80736Z"/>
    <path class="cls-6" d="M238.67641,212.79964c-1.87167,19.51591-19.95556,18.37804-19.95556,18.37804-24.86793,22.26969-28.56194,6.29176-28.56194,6.29176-7.3781,11.54118-39.04964,11.87589-40.14904,11.88546h-.01983c-1.11899-.00957-32.78062-.34427-40.14892-11.88546,0,0-3.69401,15.97793-28.57173-6.29176,0,0-18.07399,1.13787-19.94577-18.37804-1.1885-12.27747,3.56526-18.00505,7.24935-20.5677,2.16894-1.51074,3.97133-1.9219,3.97133-1.9219,0,0-2.27787,14.209,2.38679,16.18832,0,0,1.39643-3.75783,5.14992-1.63511,3.62461,2.06541,7.25914,9.86791,7.47711,10.35557-.05936-.28685-.44573-2.73469,2.07972-3.61443,.01983-.01908,.03965-.01908,.05948-.01908,1.13881-.40164,2.86202-.46858,5.44695,.08602,8.83389,1.91238,22.58994,15.52855,54.84576,15.53812h.01983c32.25594-.00957,46.01199-13.62573,54.84601-15.53812,2.57478-.55461,4.29799-.48767,5.43704-.08602,.01983-.00957,.03953,0,.05936,.01908,2.52533,.87974,2.1392,3.31802,2.07972,3.61443,.21785-.48767,3.86241-8.29017,7.48714-10.35557,3.75349-2.12272,5.1498,1.63511,5.1498,1.63511,4.66454-1.97932,2.38679-16.18832,2.38679-16.18832,0,0,1.80239,.41116,3.97133,1.9219,3.68409,2.56265,8.43773,8.29023,7.24935,20.5677Z"/>
    <path class="cls-13" d="M235.60633,209.45297c-1.81231,18.76048-19.2724,17.67047-19.2724,17.67047-24.0062,21.40909-27.56143,6.05265-27.56143,6.05265-7.12072,11.08229-37.7029,11.40736-38.76264,11.41693h-.01983c-1.07933-.00957-31.65172-.33464-38.7624-11.41693,0,0-3.55546,15.35644-27.57158-6.05265,0,0-17.44994,1.09001-19.26236-17.67047-.85169-8.77783,1.47562-14.07512,4.17927-17.22102,2.16894-1.51074,3.97133-1.9219,3.97133-1.9219,0,0-2.27787,14.209,2.38679,16.18832,0,0,1.39643-3.75783,5.14992-1.63511,3.62461,2.06541,7.25914,9.86791,7.47711,10.35557-.05936-.28685-.44573-2.73469,2.07972-3.61443,.04957,.08608,.07931,.14345,.08922,.17211,0-.03823-.00991-.0956-.02974-.19119,1.13881-.40164,2.86202-.46858,5.44695,.08602,8.83389,1.91238,22.58994,15.52855,54.84576,15.53812h.01983c32.25594-.00957,46.01199-13.62573,54.84601-15.53812,2.57478-.55461,4.29799-.48767,5.43704-.08602-.01983,.0956-.02974,.15297-.02974,.19119,.00991-.02866,.03965-.08602,.0891-.17211,2.52533,.87974,2.1392,3.31802,2.07972,3.61443,.21785-.48767,3.86241-8.29017,7.48714-10.35557,3.75349-2.12272,5.1498,1.63511,5.1498,1.63511,4.66454-1.97932,2.38679-16.18832,2.38679-16.18832,0,0,1.80239,.41116,3.97133,1.9219,2.70365,3.14591,5.03096,8.44319,4.17927,17.22102Z"/>
    <ellipse class="cls-29" cx="150.66998" cy="213.86963" rx="16.26459" ry="13.92016"/>
    <path class="cls-6" d="M156.93916,195.08689h-13.83545c-25.62549,4.01544-35.39062,29.40167-23.59375,27.01147,9.19006-2.58698,9.53552-3.25317,15.41431-.00488,5.52173,3.05096,11.6166-3.9859,15.07568-3.9859s9.59521,7.01416,15.07593,3.9859c5.87866-3.24829,6.22412-2.58209,15.41418,.00488,11.79089,2.38904,2.04578-22.97644-23.5509-27.01147Z"/>
    <path class="cls-13" d="M156.44055,195.16057h-12.84124c-23.78406,3.32294-32.84748,24.33108-21.89832,22.3531,8.52967-2.14083,7.12358-1.16551,12.57992,1.52258,5.12494,2.5248,7.52449-3.09471,15.71909-3.09471s10.14116,5.74139,15.22804,3.23538c5.45623-2.68809,4.54141-3.80408,13.07108-1.66325,10.94361,1.97703,1.89877-19.01394-21.85855-22.3531Z"/>
    <path class="cls-1" d="M159.36005,187.60001c2.76141,.00819,4.99333,2.2534,4.98514,5.01482-.00543,1.83232-1.01268,3.51488-2.62514,4.38518-7.31848,3.93263-16.12152,3.93263-23.44,0-2.43007-1.31158-3.33676-4.34479-2.02518-6.77486,.8703-1.61244,2.55286-2.61971,4.38518-2.62514h18.72Z"/>
  </g>
  <g>
    <g id="present-1">
      <rect class="cls-15" x="206.23857" y="240.35332" width="52.58433" height="76.18594" rx="10.95549" ry="10.95549" transform="translate(-97.26849 429.55999) rotate(-74.75192)"/>
      <g>
        <path class="cls-24" d="M224.73423,207.63406c-27.28332-11.61194-26.24486,12.65041,20.29729,28.4162l1.98251-7.17487c-.09441-.09441,4.9091-9.62941-22.27982-21.24135l.00002,.00002Zm.18881,6.51401c9.34619,2.54897,20.10847,20.10848,20.10847,20.10848-26.15045-11.70635-29.45467-22.65744-20.10847-20.10848Z"/>
        <path class="cls-24" d="M245.78675,226.42087l-2.26575,8.40213c56.07716,11.70635,71.46535-12.08397,37.19597-16.52104-34.26938-4.43707-34.93022,8.11893-34.93022,8.11893v-.00002Zm-1.22728,6.60841s21.24136-11.32872,32.09805-8.30772c10.85669,3.021,1.13287,11.98956-32.09804,8.30772h-.00002Z"/>
      </g>
      <ellipse class="cls-25" cx="246.28358" cy="230.30552" rx="7.26929" ry="12.55605" transform="translate(-40.68664 407.3488) rotate(-74.75191)"/>
      <rect class="cls-7" x="208.76759" y="231.14849" width="52.58433" height="76.18594" rx="9.81843" ry="9.81843" transform="translate(-86.52381 425.216) rotate(-74.75192)"/>
      <rect class="cls-9" x="203.70263" y="262.59704" width="59.476" height="25.11209" transform="translate(-93.42063 428.01075) rotate(-74.75192)"/>
      <rect class="cls-24" x="206.22301" y="253.42366" width="59.476" height="25.11209" transform="translate(-82.71266 423.68161) rotate(-74.75192)"/>
      <path class="cls-4" d="M278.73443,253.89301l-10.10144,36.81831c-1.69931-22.56302-31.90922-36.62952-66.74504-44.55962l3.39862-12.27278,73.44786,20.01407v.00002Z"/>
      <rect class="cls-7" x="232.10153" y="200.17441" width="20.39177" height="84.96573" rx="4.50278" ry="4.50278" transform="translate(-55.54134 412.6063) rotate(-74.75192)"/>
      <rect class="cls-24" x="231.89306" y="231.90869" width="21.05263" height="21.05261" transform="translate(-55.237 412.56013) rotate(-74.75192)"/>
    </g>
    <g id="present-2">
      <rect class="cls-5" x="28.04395" y="256.86019" width="69.60195" height="48.10133" rx="8.1645" ry="8.1645" transform="translate(-120.15752 58.71613) rotate(-26.86484)"/>
      <g>
        <path class="cls-30" d="M14.09252,237.80083c-25.6,8.8-10,24.59999,31.1,6.8l-3.1-6.10001c.1,0-2.4-9.5-28-.7Zm4.2,4.3c7.9-4,25.9,1.3,25.9,1.3-24.9,8.10001-33.8,2.7-25.9-1.3Z"/>
        <path class="cls-30" d="M39.89252,237.60085l3.6,7.10001c45.2-26.39999,41.1-52,15.1-34-25.9,18-18.7,26.89999-18.7,26.89999Zm3.2,5.3s7.5-20.7,16.7-25.3c9.2-4.60001,8.09999,7.39999-16.7,25.3Z"/>
      </g>
      <ellipse class="cls-20" cx="42.57488" cy="239.91434" rx="11.50032" ry="6.60017" transform="translate(-103.81936 45.1318) rotate(-26.86484)"/>
      <rect class="cls-11" x="24.10461" y="249.19555" width="69.60195" height="48.10133" rx="8.96252" ry="8.96252" transform="translate(-117.11912 56.10878) rotate(-26.86484)"/>
      <rect class="cls-9" x="49.99458" y="251.09462" width="22.90064" height="54.30153" transform="translate(-119.10413 57.79581) rotate(-26.86484)"/>
      <rect class="cls-30" x="45.998" y="243.31862" width="22.90064" height="54.30153" transform="translate(-116.02158 55.15058) rotate(-26.86484)"/>
      <path class="cls-3" d="M79.09252,236.00085l15.8,31.09999c-15-14.2-44.2-5.29999-72.6,10.70001l-5.3-10.39999,62.1-31.39999v-.00002Z"/>
      <rect class="cls-11" x="8.69922" y="241.48747" width="77.70217" height="18.60051" rx="4.71314" ry="4.71314" transform="translate(-108.19594 48.55364) rotate(-26.86484)"/>
      <rect class="cls-30" x="37.78155" y="240.90093" width="19.20054" height="19.20055" transform="translate(-108.08464 48.44658) rotate(-26.86484)"/>
    </g>
  </g>
</svg>
