<svg xmlns="http://www.w3.org/2000/svg" xmlns:xlink="http://www.w3.org/1999/xlink" viewBox="0 0 100 72.49993"><defs><style>.cls-1{fill:none;}.cls-2{fill:#c76825;}.cls-3{fill:#ecc341;}.cls-15,.cls-4{fill:#a33f13;}.cls-5{fill:#fff466;}.cls-6{fill:url(#linear-gradient);}.cls-7{fill:url(#linear-gradient-2);}.cls-8{fill:url(#linear-gradient-3);}.cls-9{fill:url(#linear-gradient-4);}.cls-10{fill:url(#linear-gradient-5);}.cls-11{fill:url(#linear-gradient-6);}.cls-12{fill:url(#linear-gradient-7);}.cls-13{fill:url(#linear-gradient-8);}.cls-14{fill:#d37027;}.cls-15{opacity:0.67;}.cls-16{fill:#eec841;}.cls-17{fill:#e07928;}.cls-18,.cls-21,.cls-22{fill:#f3da44;}.cls-19{fill:#fff980;}.cls-20{fill:#ce6824;}.cls-21{opacity:0.68;}.cls-22{opacity:0.39;}.cls-23{fill:url(#linear-gradient-9);}.cls-24{fill:#b25618;}.cls-25{clip-path:url(#clip-path);}.cls-26{fill:url(#linear-gradient-10);}.cls-27{fill:url(#linear-gradient-11);}.cls-28{fill:url(#linear-gradient-12);}.cls-29{fill:#fffab6;opacity:0.51;}</style><linearGradient id="linear-gradient" x1="2068.66315" y1="71.19633" x2="2080.67596" y2="57.78202" gradientTransform="matrix(-1, 0, 0, 1, 2151.09521, 0)" gradientUnits="userSpaceOnUse"><stop offset="0" stop-color="#a43f1d"/><stop offset="1" stop-color="#5e2914"/></linearGradient><linearGradient id="linear-gradient-2" x1="2054.55816" y1="56.23133" x2="2075.44836" y2="43.03751" xlink:href="#linear-gradient"/><linearGradient id="linear-gradient-3" x1="2071.95313" y1="-5.25224" x2="2081.14461" y2="11.1462" xlink:href="#linear-gradient"/><linearGradient id="linear-gradient-4" x1="2042.75862" y1="7.37934" x2="2071.72599" y2="22.69662" xlink:href="#linear-gradient"/><linearGradient id="linear-gradient-5" x1="17.56794" y1="71.19633" x2="29.58075" y2="57.78202" gradientTransform="matrix(1, 0, 0, 1, 0, 0)" xlink:href="#linear-gradient"/><linearGradient id="linear-gradient-6" x1="3.46295" y1="56.23133" x2="24.35316" y2="43.03751" gradientTransform="matrix(1, 0, 0, 1, 0, 0)" xlink:href="#linear-gradient"/><linearGradient id="linear-gradient-7" x1="20.85792" y1="-5.25224" x2="30.0494" y2="11.1462" gradientTransform="matrix(1, 0, 0, 1, 0, 0)" xlink:href="#linear-gradient"/><linearGradient id="linear-gradient-8" x1="-8.33658" y1="7.37934" x2="20.63079" y2="22.69662" gradientTransform="matrix(1, 0, 0, 1, 0, 0)" xlink:href="#linear-gradient"/><linearGradient id="linear-gradient-9" x1="50.00018" y1="-8.27891" x2="50.00018" y2="31.91784" gradientTransform="matrix(1, 0, 0, 1, 0, 0)" xlink:href="#linear-gradient"/><clipPath id="clip-path"><path class="cls-1" d="M72.83851,25.27693a85.77841,85.77841,0,0,0-9.86864-12.00374A137.8001,137.8001,0,0,0,52.443,3.60686a3.81877,3.81877,0,0,0-4.88564,0,137.81144,137.81144,0,0,0-10.52688,9.66633,86.04947,86.04947,0,0,0-9.86864,12.00374,5.762,5.762,0,0,0,.24105,6.74221l4.042,5.19171a1.71531,1.71531,0,0,1,.343,1.31772l-.19932,1.31769a6.06351,6.06351,0,0,0,.55161,3.59l7.86155,16.12452a12.91234,12.91234,0,0,0,2.86464,3.85535L50.00018,70,57.134,63.41609a12.97191,12.97191,0,0,0,2.86467-3.85535l7.86152-16.12452a6.07272,6.07272,0,0,0,.55161-3.59459l-.19932-1.31306a1.71518,1.71518,0,0,1,.34765-1.32238l4.0374-5.187v-.00463A5.75455,5.75455,0,0,0,72.83851,25.27693Zm-2.79974,4.73538L66.006,35.19a5.00237,5.00237,0,0,0-1.00122,3.8321l.19932,1.3084a2.87454,2.87454,0,0,1-.25494,1.67157L57.08762,58.12662a9.71653,9.71653,0,0,1-2.15081,2.88687l-4.93663,4.56309-4.93665-4.56309a9.65763,9.65763,0,0,1-2.15081-2.88687L35.0512,42.0021a2.86446,2.86446,0,0,1-.25494-1.66691l.19932-1.31306a5.00271,5.00271,0,0,0-.99661-3.82744l-4.0374-5.18238a2.49885,2.49885,0,0,1-.102-2.91944l.00928-.014c.06487-.09313.40791-.60064.96877-1.40619a85.41347,85.41347,0,0,1,8.51048-10.118A133.22051,133.22051,0,0,1,49.62936,6.11654a.57674.57674,0,0,1,.74165,0A133.14289,133.14289,0,0,1,60.6522,15.55473a82.51658,82.51658,0,0,1,9.48856,11.53814A2.49885,2.49885,0,0,1,70.03877,30.01231Z"/></clipPath><linearGradient id="linear-gradient-10" x1="47.86671" y1="59.92764" x2="41.88543" y2="66.84178" gradientUnits="userSpaceOnUse"><stop offset="0.40782" stop-color="#612d1a" stop-opacity="0"/><stop offset="0.71629" stop-color="#d37027"/></linearGradient><linearGradient id="linear-gradient-11" x1="2098.96191" y1="59.92764" x2="2092.98064" y2="66.84178" gradientTransform="matrix(-1, 0, 0, 1, 2151.09521, 0)" xlink:href="#linear-gradient-10"/><linearGradient id="linear-gradient-12" x1="50.00013" y1="-1.47917" x2="50.00013" y2="36.40927" gradientTransform="matrix(1, 0, 0, 1, 0, 0)" xlink:href="#linear-gradient"/></defs><g id="Layer_1" data-name="Layer 1"><path class="cls-2" d="M59.51619,54.5553l1.44159.9452,3.14277,2.05341,9.5488,6.244c1.35351.8847,2.52627-.21883,1.82633-1.71815L69.853,49.96893l-1.00586-2.1605-.65824-1.42015a2.1325,2.1325,0,0,0-2.03025-1.341l-.11127.01861-1.78.27937L60.6982,45.904a1.0227,1.0227,0,0,0-.84828.80088L58.45932,52.297A2.27217,2.27217,0,0,0,59.51619,54.5553Z"/><polygon class="cls-3" points="74.311 62.349 63.008 49.687 65.511 47.981 68.8 50.392 71.672 51.843 75.478 62.077 74.311 62.349"/><polygon class="cls-4" points="68.54 58.526 65.511 54.573 67.556 54.858 63.84 50.619 61.566 52.984 61.066 55.99 67.181 58.526 68.54 58.526"/><polygon class="cls-5" points="69.243 52.476 69.737 55.526 64.881 51.785 74.31 62.615 71.684 53.266 69.243 52.476"/><path class="cls-6" d="M72.77273,65.15205l-14.1369-9.24356a3.88159,3.88159,0,0,1-1.73916-4.00463L58.28728,46.313a2.62826,2.62826,0,0,1,2.1624-2.005l5.45875-.85645a3.71,3.71,0,0,1,3.74042,2.25173l7.28754,15.69112a3.0576,3.0576,0,0,1-.5767,3.68429,2.641,2.641,0,0,1-1.75727.65046A3.35781,3.35781,0,0,1,72.77273,65.15205ZM61.32379,47.44315l-1.29871,5.20939a.84632.84632,0,0,0,.36711.54633l13.19263,8.62607-6.853-14.75465a.87215.87215,0,0,0-.39246-.414Zm4.99024-.79528Z"/><path class="cls-2" d="M85.5101,46.95281,67.79524,50.36564a1.40853,1.40853,0,0,1-1.55735-.84409L62.01571,40.5784a5.35329,5.35329,0,0,1,2.211-6.75433l8.60208-4.4366a1.385,1.385,0,0,1,1.73164.31169L86.61626,43.5737A2.171,2.171,0,0,1,85.5101,46.95281Z"/><polygon class="cls-4" points="74.311 41.218 77.921 44.149 68.554 46.125 69.243 41.452 71.318 40.269 66.608 38.775 64.881 46.648 66.314 50.058 77.921 48.933 87.046 45.034 74.311 41.218"/><polygon class="cls-3" points="86.346 45.034 66.608 38.775 70.564 31.982 77.993 33.322 86.346 45.034"/><polygon class="cls-5" points="76.312 34.594 78.684 40.34 71.318 40.269 86.346 45.034 80.867 37.388 77.76 33.784 76.312 34.594"/><path class="cls-7" d="M64.93293,50.14345l-4.22206-8.94323a6.79435,6.79435,0,0,1,2.8559-8.667l8.60209-4.43638a2.821,2.821,0,0,1,3.47968.64819l12.056,13.87456a3.52534,3.52534,0,0,1,.58621,3.456,3.36632,3.36632,0,0,1-2.5087,2.3022l-17.7148,3.41282a2.82951,2.82951,0,0,1-3.13429-1.64718Zm8.55592-19.465-8.60209,4.4366A3.892,3.892,0,0,0,63.321,39.95659l4.22251,8.94368a.30312.30312,0,0,0,.01765.03274l17.67678-3.40532a.59043.59043,0,0,0,.3214-.39764.67713.67713,0,0,0-.03124-.602l-12.0365-13.8516Z"/><path class="cls-2" d="M62.72848,14.85629l2.174,4.19993a.94682.94682,0,0,0,.839.52149l2.79049.00933.68138.00463,1.10786.00466a1.568,1.568,0,0,0,1.39524-1.28976l.12514-.55409.80193-3.55736L74.989,3.82569a.67923.67923,0,0,0-1.10321-.69378l-8.2463,7.56171L63.1642,12.96586a1.55918,1.55918,0,0,0-.24568.27937A1.612,1.612,0,0,0,62.72848,14.85629Z"/><polygon class="cls-3" points="73.286 5.456 65.376 18.272 62.79 13.969 69.314 6.797 73.286 5.456"/><polygon class="cls-4" points="67.619 14.638 70.564 11.864 69.813 15.918 68.038 16.609 67.181 15.348 65.822 17.551 68.038 19.597 72.185 14.92 74.31 3.734 67.619 14.638"/><polygon class="cls-5" points="67.425 14.953 73.599 5.041 67.81 8.794 68.429 11.154 67.425 14.953"/><path class="cls-8" d="M70.31608,20.90538l-4.58057-.01728a2.24816,2.24816,0,0,1-1.989-1.22908l-2.17191-4.20174a2.95374,2.95374,0,0,1,.71024-3.45989L73.00812,2.16747a1.9485,1.9485,0,0,1,2.31042-.25282,2.01647,2.01647,0,0,1,.94156,2.19853l-3.27236,14.485a2.84563,2.84563,0,0,1-2.66215,2.3072Zm-6.27491-6.97525a.51657.51657,0,0,0-.15481.321l2.07866,4.021,4.314.01614a.46375.46375,0,0,0,.16839-.26919L73.2856,5.45593Z"/><path class="cls-2" d="M97.80028,14.457,82.595,32.84312a2.53182,2.53182,0,0,1-2.23308.921l-11.26769-1.548c-2.98358-.40989-4.43855-3.32991-3.06005-6.14129l5.206-10.61739A2.597,2.597,0,0,1,73.232,14.05238l23.03734-2.66784A1.791,1.791,0,0,1,97.80028,14.457Z"/><polygon class="cls-4" points="71.318 31.013 77.993 33.323 82.596 32.843 95.208 16.607 98.333 13.045 96.474 13.05 96.516 13.385 82.558 21.012 88.501 19.596 80.88 29.975 75.476 27.763 78.363 23.307 78.354 23.312 73.286 26.081 71.318 31.013"/><polygon class="cls-3" points="96.516 13.386 73.286 26.081 68.586 22.576 71.494 13.386 96.269 11.385 96.516 13.386"/><path class="cls-5" d="M73.42321,15.71805s11.36961-.02827,11.76332.42371S79.6991,22.576,79.6991,22.576L98.33467,12.52593l-16.412.51888Z"/><path class="cls-9" d="M80.13541,35.42517,68.868,33.87712a5.727,5.727,0,0,1-4.37053-2.96062,6.09494,6.09494,0,0,1,.03938-5.58247L69.743,14.71655a4.25114,4.25114,0,0,1,3.29816-2.32947l23.0373-2.668a3.44064,3.44064,0,0,1,3.52064,1.73926,3.66244,3.66244,0,0,1-.51514,4.06988L83.879,33.914a4.21972,4.21972,0,0,1-3.22075,1.54669A3.84155,3.84155,0,0,1,80.13541,35.42517ZM96.46074,13.04982,73.42321,15.71805a.93065.93065,0,0,0-.68579.48018L67.53126,26.8157a2.77785,2.77785,0,0,0-.086,2.527A2.39889,2.39889,0,0,0,69.32066,30.555l11.26742,1.54806a.86653.86653,0,0,0,.72291-.33126L96.51642,13.38562a.58957.58957,0,0,0,.1573-.31943.27993.27993,0,0,0-.12856-.02138A.74138.74138,0,0,0,96.46074,13.04982Z"/><path class="cls-2" d="M40.48381,54.5553l-1.44159.9452-3.14277,2.05341-9.5488,6.244c-1.35351.8847-2.52627-.21883-1.82633-1.71815L30.147,49.96893l1.00586-2.1605.65824-1.42015a2.1325,2.1325,0,0,1,2.03025-1.341l.11127.01861,1.78.27937,3.56922.55875a1.0227,1.0227,0,0,1,.84828.80088l1.3906,5.59214A2.27217,2.27217,0,0,1,40.48381,54.5553Z"/><polygon class="cls-3" points="25.689 62.349 36.992 49.687 34.489 47.981 31.2 50.392 28.328 51.843 24.522 62.077 25.689 62.349"/><polygon class="cls-4" points="31.46 58.526 34.489 54.573 32.444 54.858 36.16 50.619 38.434 52.984 38.934 55.99 32.819 58.526 31.46 58.526"/><polygon class="cls-5" points="30.757 52.476 30.263 55.526 35.119 51.785 25.69 62.615 28.316 53.266 30.757 52.476"/><path class="cls-10" d="M25.39758,65.72908a2.641,2.641,0,0,1-1.75727-.65046,3.0576,3.0576,0,0,1-.5767-3.68429l7.28754-15.69112a3.71,3.71,0,0,1,3.74042-2.25173l5.45875.85645a2.62826,2.62826,0,0,1,2.1624,2.005l1.39061,5.59089a3.88159,3.88159,0,0,1-1.73916,4.00463l-14.1369,9.24356A3.35781,3.35781,0,0,1,25.39758,65.72908Zm8.263-19.0728a.87215.87215,0,0,0-.39246.414l-6.853,14.75465,13.19263-8.62607a.84632.84632,0,0,0,.36711-.54633l-1.29871-5.20939Zm.02535-.00841Z"/><path class="cls-2" d="M14.4899,46.95281l17.71486,3.41283a1.40853,1.40853,0,0,0,1.55735-.84409l4.22218-8.94315a5.35329,5.35329,0,0,0-2.211-6.75433l-8.60208-4.4366a1.385,1.385,0,0,0-1.73164.31169L13.38374,43.5737A2.171,2.171,0,0,0,14.4899,46.95281Z"/><polygon class="cls-4" points="25.689 41.218 22.079 44.149 31.446 46.125 30.757 41.452 28.682 40.269 33.392 38.775 35.119 46.648 33.686 50.058 22.079 48.933 12.954 45.034 25.689 41.218"/><polygon class="cls-3" points="13.654 45.034 33.392 38.775 29.436 31.982 22.007 33.322 13.654 45.034"/><polygon class="cls-5" points="23.688 34.594 21.316 40.34 28.682 40.269 13.654 45.034 19.133 37.388 22.24 33.784 23.688 34.594"/><path class="cls-11" d="M32.47327,51.8427a2.85045,2.85045,0,0,1-.54049-.05207L14.218,48.37781a3.36632,3.36632,0,0,1-2.5087-2.3022,3.52534,3.52534,0,0,1,.58621-3.456L24.35146,28.745a2.821,2.821,0,0,1,3.47968-.64819l8.60209,4.43638a6.79435,6.79435,0,0,1,2.8559,8.667l-4.22206,8.94323A2.87107,2.87107,0,0,1,32.47327,51.8427ZM26.50843,30.67641,14.47193,44.528a.67713.67713,0,0,0-.03124.602.59043.59043,0,0,0,.3214.39764L32.43887,48.933a.30312.30312,0,0,0,.01765-.03274L36.679,39.95659a3.892,3.892,0,0,0-1.56579-4.84153l-8.60209-4.4366Z"/><path class="cls-2" d="M37.27152,14.85629l-2.174,4.19993a.94682.94682,0,0,1-.839.52149l-2.79049.00933-.68138.00463-1.10786.00466a1.568,1.568,0,0,1-1.39524-1.28976l-.12514-.55409-.80193-3.55736L25.011,3.82569a.67923.67923,0,0,1,1.10321-.69378l8.2463,7.56171,2.47526,2.27224a1.55918,1.55918,0,0,1,.24568.27937A1.612,1.612,0,0,1,37.27152,14.85629Z"/><polygon class="cls-3" points="26.714 5.456 34.624 18.272 37.21 13.969 30.686 6.797 26.714 5.456"/><polygon class="cls-4" points="32.381 14.638 29.436 11.864 30.187 15.918 31.962 16.609 32.819 15.348 34.178 17.551 31.962 19.597 27.815 14.92 25.69 3.734 32.381 14.638"/><polygon class="cls-5" points="32.575 14.953 26.401 5.041 32.19 8.794 31.571 11.154 32.575 14.953"/><path class="cls-12" d="M29.67441,20.90538a2.84563,2.84563,0,0,1-2.66215-2.3072L23.7399,4.11318a2.01647,2.01647,0,0,1,.94156-2.19853,1.9485,1.9485,0,0,1,2.31042.25282l10.72331,9.82992a2.95374,2.95374,0,0,1,.71024,3.45989L36.25352,19.659a2.24816,2.24816,0,0,1-1.989,1.22908l-4.58057.01728Zm-2.96-15.44945,2.83824,12.56318a.46375.46375,0,0,0,.16839.26919l4.31395-.01614,2.07866-4.021a.51657.51657,0,0,0-.15481-.321Z"/><path class="cls-2" d="M2.19972,14.457,17.405,32.84312a2.53182,2.53182,0,0,0,2.23308.921l11.26769-1.548c2.98358-.40989,4.43855-3.32991,3.06005-6.14129l-5.206-10.61739A2.597,2.597,0,0,0,26.768,14.05238L3.73062,11.38454A1.791,1.791,0,0,0,2.19972,14.457Z"/><polygon class="cls-4" points="28.682 31.013 22.007 33.323 17.404 32.843 4.792 16.607 1.667 13.045 3.526 13.05 3.484 13.385 17.442 21.012 11.499 19.596 19.12 29.975 24.524 27.763 21.637 23.307 21.646 23.312 26.714 26.081 28.682 31.013"/><polygon class="cls-3" points="3.484 13.386 26.714 26.081 31.414 22.576 28.506 13.386 3.731 11.385 3.484 13.386"/><path class="cls-5" d="M26.57679,15.71805s-11.36961-.02827-11.76332.42371S20.3009,22.576,20.3009,22.576L1.66533,12.52593l16.412.51888Z"/><path class="cls-13" d="M19.34176,35.46064A4.21972,4.21972,0,0,1,16.121,33.914L.916,15.52821A3.66244,3.66244,0,0,1,.4009,11.45833,3.44064,3.44064,0,0,1,3.92154,9.71907l23.0373,2.668A4.25114,4.25114,0,0,1,30.257,14.71655L35.46316,25.334a6.09494,6.09494,0,0,1,.03938,5.58247A5.727,5.727,0,0,1,31.132,33.87712L19.86459,35.42517A3.84155,3.84155,0,0,1,19.34176,35.46064ZM3.45484,13.04481a.27993.27993,0,0,0-.12856.02138.58957.58957,0,0,0,.1573.31943L18.689,31.77181a.86653.86653,0,0,0,.72291.33126L30.67934,30.555a2.39889,2.39889,0,0,0,1.87541-1.21226,2.77785,2.77785,0,0,0-.086-2.527L27.26258,16.19823a.93065.93065,0,0,0-.68579-.48018L3.53926,13.04982A.74138.74138,0,0,0,3.45484,13.04481Z"/><path class="cls-14" d="M71.31813,31.01341l-4.0374,5.187a3.35688,3.35688,0,0,0-.67213,2.57487l.19935,1.31306a4.47693,4.47693,0,0,1-.4033,2.63078L59.257,57.38163l-.71327,1.46093a11.39507,11.39507,0,0,1-2.5083,3.37224l-6.0352,5.57349-6.03591-5.57413a11.38944,11.38944,0,0,1-2.507-3.37046l-.71386-1.46207-7.1477-14.66246a4.47715,4.47715,0,0,1-.40327-2.63078l.19932-1.31306a3.3568,3.3568,0,0,0-.67213-2.57487l-4.03737-5.187a4.134,4.134,0,0,1-.17153-4.82851,83.83921,83.83921,0,0,1,9.6786-11.771A135.17062,135.17062,0,0,1,48.59155,4.86071a2.2027,2.2027,0,0,1,2.81726,0A135.172,135.172,0,0,1,61.811,14.41394a83.83711,83.83711,0,0,1,9.6786,11.771A4.134,4.134,0,0,1,71.31813,31.01341Z"/><path class="cls-15" d="M28.23926,27.47264s6.01809.88824,7.87467,2.51768a2.25139,2.25139,0,0,0-1.62452,2.98374c.62941,1.61955,1.39546,4.72066,2.72035,5.36123s2.47438-2.04675,2.76517-2.68983c.55174-1.22016,2.73805,2.42226,2.73805,2.42226l-1.86939,2.57113L34.48941,43.5139Z"/><path class="cls-16" d="M34.81793,41.29574a15.35223,15.35223,0,0,0,6.76555-2.96045l4.1139,5.08253L46.86924,48.933c-.44684-1.655-3.4497-5.18291-4.55938-5.93908s-1.5163-.17059-1.78034.54252h0a10.04251,10.04251,0,0,0-.57713,4.46095l.494,5.06735-5.32757-6.41688Z"/><path class="cls-17" d="M61.10645,31.75373a124.4441,124.4441,0,0,0-8.30653,14.76491c-.29162.64213-1.54535,4.8973-2.79974,4.89537-1.25537-.00192-2.5114-4.26145-2.80437-4.90469a124.65029,124.65029,0,0,0-8.30192-14.75559,2.023,2.023,0,0,1,.15761-2.41192l8.14431-9.51267,1.07682-1.25867a2.27253,2.27253,0,0,1,3.45629-.001l1.071,1.2504,8.14895,9.522A2.023,2.023,0,0,1,61.10645,31.75373Z"/><path class="cls-15" d="M71.76074,27.47264s-6.01809.88824-7.87467,2.51768a2.25139,2.25139,0,0,1,1.62452,2.98374c-.62941,1.61955-1.39546,4.72066-2.72035,5.36123s-2.47438-2.04675-2.76517-2.68983c-.55174-1.22016-2.73805,2.42226-2.73805,2.42226l1.86939,2.57113,6.35418,2.87505Z"/><path class="cls-16" d="M65.18207,41.29574a15.35223,15.35223,0,0,1-6.76555-2.96045l-4.1139,5.08253L53.13076,48.933c.44684-1.655,3.4497-5.18291,4.55938-5.93908s1.5163-.17059,1.78034.54252h0a10.04251,10.04251,0,0,1,.57713,4.46095l-.494,5.06735,5.32757-6.41688Z"/><path class="cls-18" d="M71.41047,26.91127,68.518,22.40405l-1.09393-1.7042L52.11817,5.45537,50.00018,4.352v-.0002L50,4.35193l-.00019-.00009V4.352l-2.118,1.10333L32.57591,20.69985,31.482,22.40405l-2.89245,4.50722-.7602,1.18734c.18542.00466.36618.014.547.02793a19.8112,19.8112,0,0,1,8.79326,2.41193c.08344.04657.16223.09313.24566.13968H38.7131l1.01515-2.12787,6.5451-7.64555L50,17.51518l3.72664,3.38955,6.54511,7.64555,1.01514,2.12787h1.29789c.08343-.04655.16222-.09311.24566-.13968a19.8112,19.8112,0,0,1,8.79326-2.41193c.18078-.01395.36154-.02327.547-.02793Z"/><path class="cls-19" d="M67.42477,23.3189C67.54959,22.02371,54.3916,7.10929,54.3916,7.10929L50.00018,5.45608V5.45593L50,5.456l-.00019-.00006v.00015L45.60841,7.10929S32.45041,22.02371,32.57523,23.3189c0,0,12.504-11.4465,17.42478-11.44678C54.9208,11.8724,67.42477,23.3189,67.42477,23.3189Z"/><path class="cls-19" d="M32.94673,21.67768c1.44623-2.06271.06491-.81018-1.46475.72637-1.23763,1.2432-2.568,2.67267-2.568,2.67267l-.32448,1.83455-.21324,1.21527a21.70654,21.70654,0,0,1,9.19756,2.631l.86114-.07937S30.33242,25.41661,32.94673,21.67768Z"/><path class="cls-19" d="M71.41047,26.91127,71.086,25.07672s-1.33034-1.42947-2.568-2.67267c-1.52966-1.53655-2.911-2.78908-1.46475-.72637,2.61431,3.73893-5.48826,9.00047-5.48826,9.00047l.86114.07937a21.70654,21.70654,0,0,1,9.19756-2.631Z"/><path class="cls-4" d="M56.27994,59.48458s-4.39523-5.26673-4.96186-8.07056H48.68192C48.11529,54.21785,43.72,59.48458,43.72,59.48458c-.87871,2.22163,6.27175,7.75584,6.27979,7.762v.00028L50,67.24676l.00017.00014v-.00028C50.00822,67.24042,57.15868,61.70621,56.27994,59.48458Z"/><polygon class="cls-20" points="55.201 34.505 50 39.1 44.799 34.505 47.701 43.739 49.999 48.727 49.999 48.731 50 48.729 50.001 48.731 50.001 48.727 52.299 43.739 55.201 34.505"/><path class="cls-18" d="M50.001,19.59909V19.597L50,19.59806l-.001-.001v.00205l-9.15545,9.835v1.7433l6.881,11.479A72.12564,72.12564,0,0,0,44.305,32.65065a2.28751,2.28751,0,0,1,.62033-2.62206l3.58022-1.80323a3.3209,3.3209,0,0,1,2.989,0l3.58019,1.80322a2.28751,2.28751,0,0,1,.62033,2.62206A72.12564,72.12564,0,0,0,52.27539,42.6564l6.881-11.479v-1.7433Z"/><polygon class="cls-21" points="43.432 35.069 55.117 25.602 57.166 27.343 44.647 38.614 42.834 35.482 43.432 35.069"/><polygon class="cls-22" points="45.147 39.496 58.417 28.554 58.417 29.644 46.258 41.295 45.147 39.496"/><path class="cls-19" d="M41.97759,30.08183,53.08766,24.0025l-2.57154-4.40545-1.56707,1.13S42.04792,29.33122,41.97759,30.08183Z"/><path class="cls-18" d="M58.82,54.57263a56.00051,56.00051,0,0,1-4.54424,5.0653c-.91536.613-4.27372,2.7093-4.27576,2.71055-.002-.00125-3.36042-2.09757-4.27578-2.71055A56.00051,56.00051,0,0,1,41.18,54.57263l.7976,5.8152,8.02223,5.815V66.203L50,66.20289l.00017.00014v-.00025l8.02223-5.815Z"/><polygon class="cls-19" points="51.067 25.108 55.433 26.081 52.575 22.576 51.067 25.108"/><path class="cls-23" d="M72.83851,25.27693a85.77841,85.77841,0,0,0-9.86864-12.00374A137.8001,137.8001,0,0,0,52.443,3.60686a3.81877,3.81877,0,0,0-4.88564,0,137.81144,137.81144,0,0,0-10.52688,9.66633,86.04947,86.04947,0,0,0-9.86864,12.00374,5.762,5.762,0,0,0,.24105,6.74221l4.042,5.19171a1.71531,1.71531,0,0,1,.343,1.31772l-.19932,1.31769a6.06351,6.06351,0,0,0,.55161,3.59l7.86155,16.12452a12.91234,12.91234,0,0,0,2.86464,3.85535L50.00018,70,57.134,63.41609a12.97191,12.97191,0,0,0,2.86467-3.85535l7.86152-16.12452a6.07272,6.07272,0,0,0,.55161-3.59459l-.19932-1.31306a1.71518,1.71518,0,0,1,.34765-1.32238l4.0374-5.187v-.00463A5.75455,5.75455,0,0,0,72.83851,25.27693Zm-2.79974,4.73538L66.006,35.19a5.00237,5.00237,0,0,0-1.00122,3.8321l.19932,1.3084a2.87454,2.87454,0,0,1-.25494,1.67157L57.08762,58.12662a9.71653,9.71653,0,0,1-2.15081,2.88687l-4.93663,4.56309-4.93665-4.56309a9.65763,9.65763,0,0,1-2.15081-2.88687L35.0512,42.0021a2.86446,2.86446,0,0,1-.25494-1.66691l.19932-1.31306a5.00271,5.00271,0,0,0-.99661-3.82744l-4.0374-5.18238a2.49885,2.49885,0,0,1-.102-2.91944l.00928-.014c.06487-.09313.40791-.60064.96877-1.40619a85.41347,85.41347,0,0,1,8.51048-10.118A133.22051,133.22051,0,0,1,49.62936,6.11654a.57674.57674,0,0,1,.74165,0A133.14289,133.14289,0,0,1,60.6522,15.55473a82.51658,82.51658,0,0,1,9.48856,11.53814A2.49885,2.49885,0,0,1,70.03877,30.01231Z"/><path class="cls-24" d="M49.91641,50.95a22.62615,22.62615,0,0,1-2.948-5.125c-.07943-.23242-.13853-.41142-.17655-.49953a110.95206,110.95206,0,0,0-6.83447-12.80414,2.93474,2.93474,0,0,1,.20591-3.33584l7.66977-9.44518a8.48041,8.48041,0,0,1,2.1671-1.452,8.48976,8.48976,0,0,1,2.16825,1.45083l7.66714,9.44479a2.935,2.935,0,0,1,.20741,3.33743h0a110.8608,110.8608,0,0,0-6.83824,12.81212c-.03726.08691-.09561.26431-.17429.49494A20.76486,20.76486,0,0,1,49.91641,50.95ZM50.001,20.727h-.00037a.89763.89763,0,0,0-.70581.34365l-7.66865,9.444a.78591.78591,0,0,0-.05458.89162,110.71285,110.71285,0,0,1,6.973,13.07006c.06061.14013.13025.34484.236.65461a13.27023,13.27023,0,0,0,1.22,2.88095,13.22223,13.22223,0,0,0,1.217-2.87677c.105-.30737.17428-.51029.23414-.64962a110.63053,110.63053,0,0,1,6.97714-13.07923.78615.78615,0,0,0-.05609-.89321l-7.66526-9.4426A.89885.89885,0,0,0,50.001,20.727Z"/><g class="cls-25"><polygon class="cls-26" points="50.554 72.5 35.073 59.055 37.937 55.727 53.419 69.172 50.554 72.5"/><polygon class="cls-27" points="49.446 72.5 64.927 59.055 62.063 55.727 46.581 69.172 49.446 72.5"/></g><path class="cls-28" d="M50.00112,52.578H49.9984c-1.69887-.0025-2.69339-2.37335-3.644-5.01453-.09552-.2651-.16659-.46927-.21231-.56976a124.57814,124.57814,0,0,0-8.21868-14.60414,3.20815,3.20815,0,0,1,.24761-3.80478l9.22316-10.773a3.4269,3.4269,0,0,1,2.60557-1.2027h.00136a3.42886,3.42886,0,0,1,2.60647,1.20134l9.22,10.77253a3.20848,3.20848,0,0,1,.24942,3.8066h0a124.47627,124.47627,0,0,0-8.2232,14.61324c-.04482.09912-.115.30147-.20959.56452C52.695,50.20779,51.7018,52.578,50.00112,52.578Zm0-33.64079h-.00045a1.10188,1.10188,0,0,0-.84876.392l-9.2218,10.77162a.85907.85907,0,0,0-.06564,1.017,124.29433,124.29433,0,0,1,8.38527,14.90743c.07288.15983.15662.39333.28382.74664a14.74977,14.74977,0,0,0,1.46711,3.286,14.69651,14.69651,0,0,0,1.46348-3.28119c.12629-.35058.20958-.582.28156-.74095A124.20134,124.20134,0,0,1,60.136,31.11771a.8594.8594,0,0,0-.06744-1.01878l-9.21773-10.77A1.10345,1.10345,0,0,0,50.00112,18.93717Z"/><polygon class="cls-29" points="55.427 25.052 53.978 13.986 42.964 12.52 53.98 11.064 55.439 0 56.888 11.066 67.903 12.532 56.887 13.987 55.427 25.052"/></g></svg>