<?xml version="1.0" encoding="UTF-8" standalone="no"?><!DOCTYPE svg PUBLIC "-//W3C//DTD SVG 1.1//EN" "http://www.w3.org/Graphics/SVG/1.1/DTD/svg11.dtd"><svg width="100%" height="100%" viewBox="0 0 300 345" version="1.1" xmlns="http://www.w3.org/2000/svg" xmlns:xlink="http://www.w3.org/1999/xlink" xml:space="preserve" xmlns:serif="http://www.serif.com/" style="fill-rule:evenodd;clip-rule:evenodd;stroke-linejoin:round;stroke-miterlimit:2;"><g id="Chest-3" serif:id="Chest 3"><g id="Chest1"><path d="M241.791,-0c14.094,-0 25.25,7.975 30.011,21.241l2.965,8.261c1.245,3.471 4.875,8.023 7.575,10.33c13.206,11.283 17.658,21.439 17.658,31.795l-0,23.638l-300,0l-0,-23.638c-0,-10.356 4.452,-20.512 17.658,-31.795c2.7,-2.307 6.33,-6.859 7.575,-10.33l2.965,-8.261c4.761,-13.266 15.917,-21.241 30.011,-21.241l183.582,-0Z" style="fill:#48262d;"/><path d="M250.054,31.975l-200.108,0l0.931,-2.596c1.171,-3.26 3.868,-5.283 7.332,-5.283l183.582,-0c3.464,-0 6.161,2.023 7.332,5.283l0.931,2.596Zm-200.875,2.137l201.642,0l1.266,3.529c0.818,2.28 2.128,4.82 3.707,7.361l-211.588,0c1.579,-2.541 2.889,-5.081 3.707,-7.361l1.266,-3.529Zm-6.334,12.984l214.31,0c2.876,4.24 6.341,8.281 9.343,10.89l-89.89,0c-3.304,-1.265 -6.89,-1.958 -10.637,-1.958l-31.942,0c-3.747,0 -7.333,0.693 -10.637,1.958l-89.89,0c3.002,-2.609 6.467,-6.65 9.343,-10.89Zm138.156,13.001l87.9,-0c4.286,3.909 6.733,7.135 6.982,10.89l-84.075,-0c-2.592,-4.502 -6.327,-8.265 -10.807,-10.89Zm11.93,13.04l82.973,-0l0,8.254l-80.469,0c-0.435,-2.909 -1.29,-5.682 -2.504,-8.254Zm-168.835,-0l82.973,-0c-1.214,2.572 -2.069,5.345 -2.504,8.254l-80.469,0l-0,-2.966l-0,-5.288Zm84.096,-2.15l-84.075,-0c0.249,-3.755 2.696,-6.981 6.982,-10.89l87.9,-0c-4.48,2.625 -8.215,6.388 -10.807,10.89Z" style="fill:#79533b;"/><path d="M24.096,77.523l-0,-4.386l35.521,-0c-9.587,1.7 -16.502,4.628 -27.738,4.741c-3.054,0.031 -5.592,-0.117 -7.783,-0.355Zm64.933,-4.386l18.04,-0c-0.363,0.769 -0.694,1.556 -0.991,2.359c-9.506,-1.002 -12.643,-1.68 -13.002,-1.739c-1.394,-0.231 -2.742,-0.438 -4.047,-0.62Zm106.284,7.507c-0.462,-2.637 -1.273,-5.156 -2.382,-7.507l82.973,-0l0,1.75c-0.444,-0.018 -0.927,-0.04 -1.453,-0.065c-7.392,-0.35 -8.54,-0.009 -10.135,-0.157c-11.242,-1.039 -19.871,0.007 -29.096,1.452c-0.902,0.141 -10.534,1.649 -11.274,1.782c-11.167,1.994 -19.808,2.683 -28.633,2.745Zm79.377,-13.731c0.696,1.326 1.1,2.663 1.193,4.074l-84.075,-0c-0.788,-1.369 -1.681,-2.669 -2.669,-3.889c4.259,-0.283 8.432,-0.338 12.354,-0.04c5.895,0.448 6.983,0.563 11.302,1.221c7.942,1.209 7.928,1.289 15.908,2.189c4.386,0.495 8.872,0.747 26.92,-1.322c6.024,-0.691 12.658,-1.536 19.067,-2.233Zm-172.796,4.074l-77.777,-0c0.029,-0.436 0.087,-0.865 0.175,-1.289c1.354,-0.315 2.751,-0.644 4.183,-0.98c3.191,-0.75 3.145,-0.907 8.421,-2.378c10.576,-2.949 13.745,-2.653 14.016,-2.645c22.25,0.603 35.92,4.312 41.736,5.456c3.15,0.62 6.204,1.246 9.246,1.836Zm-62.547,-19.184c1.213,-1.494 2.399,-3.086 3.498,-4.707l4.214,0c0.428,0.104 0.868,0.215 1.323,0.336c20.863,5.527 22.855,7.128 49.954,-0.336l34.475,0c3.108,1.264 6.162,2.689 9.566,3.928c9.309,3.391 27.173,0.845 45.396,0.081c19.876,-0.832 26.591,1.23 29.529,1.709c15.524,2.533 26.475,0.935 29.399,0.793c4.98,-0.242 9.725,-0.795 14.194,-1.508c0.526,0.641 1.057,1.262 1.587,1.859c-3.067,1.308 -5.661,2.87 -9.124,4.028l-19.043,0c-1.341,-0.296 -2.414,-0.565 -3.115,-0.706c-19.608,-3.929 -28.673,-1.05 -34.368,0.136c-0.902,0.188 -1.785,0.38 -2.658,0.57l-17.566,0c-3.304,-1.265 -6.89,-1.958 -10.637,-1.958l-10.128,0c-14.449,-3.419 -23.399,-7.043 -33.293,-8.279c-3.224,-0.402 -9.581,-1.143 -20.938,1.487c-11.603,2.687 -14.855,5.339 -24.514,6.473c-3.89,0.456 -7.223,0.426 -7.234,0.425c-10.118,-0.593 -19.575,-2.951 -30.517,-4.331Zm8.957,-15.253l0.721,-2.009c4.366,0.018 9.377,-0.101 15.015,-0.429l102.608,0c5.346,1.15 11.032,2.29 17.317,3.216c5.549,0.817 19.471,3.61 41.786,2.838c0.829,-0.029 6.87,-0.238 10.354,-0.583c5.596,-0.553 10.898,-1.414 15.826,-2.378l0.156,0.436c0.199,0.554 0.427,1.124 0.681,1.705c-5.348,0.766 -10.983,1.579 -14.028,1.908c-55.216,5.973 -62.229,0.689 -93.668,-4.479c-10.151,-1.669 -19.297,-3.063 -34.952,-2.159c-17.922,1.036 -27.268,4.033 -35.799,4.534c-6.321,0.37 -13.871,-0.652 -26.017,-2.6Zm168.895,-12.454l24.592,-0c1.991,-0 3.73,0.668 5.07,1.856c-2.027,0.164 -4.1,0.252 -6.292,0.256c-6.619,0.011 -14.461,-0.804 -23.37,-2.112Zm31.509,4.306c0.154,0.312 0.293,0.638 0.415,0.977l0.931,2.596l-82.784,0c-6.47,-1.629 -12.432,-3.258 -18.504,-4.563c-12.904,-2.771 -19.728,-2.478 -21.271,-2.422c-9.498,0.341 -12.677,1.718 -28.603,4.175c-9.413,1.452 -17.129,2.329 -21.964,2.81l-26.982,0l0.931,-2.596c0.15,-0.416 0.324,-0.813 0.522,-1.188c1.561,0.1 3.271,0.163 5.163,0.169c6.213,0.018 11.941,-0.596 12.059,-0.611c7.973,-0.962 15.74,-2.472 21.27,-3.653l107.185,-0c10.273,1.646 21.368,3.518 32.274,4.417c8.025,0.662 13.824,0.587 19.358,-0.111Zm-72.486,5.71l74.599,0l0.149,0.416c-3.948,0.685 -8.161,1.298 -12.626,1.744c-8.797,0.877 -20.834,2.093 -35.935,1.339c-9.793,-0.488 -17.129,-1.675 -17.228,-1.693c-3.142,-0.564 -6.114,-1.173 -8.959,-1.806Zm77.166,6.574c0.686,1.406 1.502,2.861 2.406,4.316l-41.76,0c5.956,-0.454 12.638,-1.118 20.249,-2.03c11.482,-1.376 15.767,-1.878 19.105,-2.286Zm-74.291,4.316l-41.042,0c-9.256,-3.981 -18.296,-8.128 -36.514,-2.874c-3.878,1.119 -7.271,2.073 -10.285,2.874l-37.922,0c-3.076,-0.83 -5.45,-1.491 -7.971,-1.948c0.677,-1.199 1.281,-2.383 1.788,-3.523c19.21,2.961 24.352,3.442 35.225,1.604c4.335,-0.733 29.608,-6.177 52.596,-3.229c19.551,2.507 30.22,5.65 44.125,7.096Zm-35.924,2.094l48.687,0c-19.628,0.42 -38.969,3.532 -48.133,0.204c-0.186,-0.067 -0.37,-0.135 -0.554,-0.204Zm56.65,0l57.332,0c0.893,1.317 1.843,2.614 2.818,3.855c-1.087,0.193 -2.192,0.376 -3.314,0.547c-6.251,0.953 -10.747,1.166 -10.763,1.166c-15.919,0.011 -25.6,-3.093 -28.237,-3.662c-5.634,-1.216 -11.683,-1.756 -17.836,-1.906Zm64.888,9.224c0.608,0.603 1.206,1.161 1.787,1.666l-5.407,0c1.167,-0.582 2.352,-1.152 3.62,-1.666Zm-7.941,3.777l12.131,-0c1.326,1.209 2.475,2.353 3.439,3.467c-16.249,2.356 -33.715,5.691 -42.87,4.953c-2.72,-0.219 -16.125,-3.702 -19.774,-4.505c-0.494,-0.108 -4.399,-0.967 -6.217,-1.136c-4.663,-0.433 -10.058,-0.538 -18.207,0.257c-0.49,-0.418 -0.994,-0.82 -1.511,-1.206c0.183,-0.018 0.368,-0.037 0.553,-0.057c3.724,-0.404 6.492,-1.083 9.418,-1.773l33.205,-0c1.909,0.442 3.525,0.858 4.814,1.137c13.158,2.85 19.682,1.252 25.019,-1.137Zm19.134,19.073l0,2.221l-46.784,0c5.917,-1.309 13.055,-3.083 20.403,-4.009c8.812,-1.11 15.332,-0.644 15.375,-0.637c4.227,0.737 8.032,1.684 11.006,2.425Zm-170.926,0.024c-0.164,0.723 -0.302,1.456 -0.413,2.197l-80.469,0l-0,-1.6c0.47,0.06 0.958,0.117 1.464,0.17c25.114,2.621 30.323,-8.49 65.257,-2.816c1.2,0.194 4.714,0.961 14.161,2.049Zm-78.424,-14.25c1.141,-1.552 2.667,-3.134 4.545,-4.847l87.9,-0c-3.596,2.107 -6.712,4.947 -9.142,8.315c-7.017,-1.106 -12.768,-2.468 -16.85,-3.163c-25.331,-4.308 -40.722,-2.878 -43.262,-3.013c-5.306,-0.282 -12.511,0.782 -20.04,2.026c-0.623,0.103 -1.735,0.354 -3.151,0.682Zm118.017,-8.916l-10.542,0c-3.747,0 -7.333,0.693 -10.637,1.958l-89.89,0c0.755,-0.656 1.539,-1.402 2.335,-2.22c0.692,0.043 1.209,0.078 1.534,0.087c11.206,0.315 21.382,1.932 31.489,1.746c3.926,-0.073 10.65,0.477 20.057,-2.337c15.407,-4.609 22.034,-4.682 28.151,-4.607c9.08,0.111 16.722,2.559 27.503,5.373Zm-82.961,-8.932l20.966,0c-8.782,1.818 -13.819,1.612 -20.966,0Zm65.226,-2.094l-20.706,0c8.922,-2.041 15.227,-1.529 20.706,0Zm30.027,-13.027l-63.114,0c5.955,-0.588 12.836,-1.394 20.396,-2.506c9.249,-1.361 12.982,-0.97 15.783,-0.976c9.428,-0.019 17.9,1.539 26.935,3.482Z" style="fill:#815a41;"/><path d="M24.096,74.683l-0,-1.546l82.973,-0c-0.24,0.507 -0.466,1.023 -0.677,1.546l-82.296,0Zm169.512,0c-0.211,-0.523 -0.437,-1.039 -0.677,-1.546l82.973,-0l0,1.546l-82.296,0Zm82.296,5.392l0,1.316l-80.469,0c-0.066,-0.442 -0.142,-0.881 -0.227,-1.316l80.696,-0Zm-171.112,-0c-0.085,0.435 -0.161,0.874 -0.227,1.316l-80.469,0l-0,-1.316l80.696,-0Zm-74.517,-19.213c0.267,-0.252 0.541,-0.507 0.824,-0.765l87.9,-0c-0.418,0.245 -0.83,0.5 -1.235,0.765l-87.489,-0Zm151.961,-0c-0.405,-0.265 -0.817,-0.52 -1.235,-0.765l87.9,-0c0.283,0.258 0.557,0.513 0.824,0.765l-87.489,-0Zm93.482,8.885c0.082,0.408 0.138,0.82 0.165,1.24l-84.075,-0c-0.242,-0.42 -0.493,-0.833 -0.755,-1.24l84.665,-0Zm-166.771,-0c-0.262,0.407 -0.513,0.82 -0.755,1.24l-84.075,-0c0.027,-0.42 0.083,-0.832 0.165,-1.24l84.665,-0Zm-67.148,-21.154c0.356,-0.495 0.705,-0.994 1.046,-1.497l214.31,0c0.341,0.503 0.69,1.002 1.046,1.497l-216.402,0Zm223.32,8.126c0.468,0.452 0.929,0.876 1.379,1.267l-89.89,0c-1.366,-0.523 -2.779,-0.948 -4.233,-1.267l92.744,0Zm-137.494,0c-1.454,0.319 -2.867,0.744 -4.233,1.267l-89.89,0c0.45,-0.391 0.911,-0.815 1.379,-1.267l92.744,0Zm-78.874,-21.415l0.428,-1.192l201.642,0l0.428,1.192l-202.498,0Zm206.277,8.43c0.247,0.422 0.503,0.845 0.766,1.268l-211.588,0c0.263,-0.423 0.519,-0.846 0.766,-1.268l210.056,-0Zm-5.482,-13.176l0.508,1.417l-200.108,0l0.508,-1.417l199.092,0Z" style="fill:#937058;"/><path d="M283.159,95.265l0,-23.638c0,-6.36 -3.647,-12.062 -11.757,-18.991c-4.521,-3.863 -10.4,-11.633 -12.486,-17.446l-2.965,-8.261c-2.251,-6.273 -7.496,-10.088 -14.16,-10.088l-183.582,-0c-6.664,-0 -11.909,3.815 -14.16,10.088l-2.965,8.261c-2.086,5.813 -7.965,13.583 -12.486,17.446c-8.11,6.929 -11.757,12.631 -11.757,18.991l-0,6.798l-0,16.84l-16.841,0l-0,-23.638c-0,-10.356 4.452,-20.512 17.658,-31.795c2.7,-2.307 6.33,-6.859 7.575,-10.33l2.965,-8.261c4.761,-13.266 15.917,-21.241 30.011,-21.241l183.582,0c14.094,-0 25.25,7.975 30.011,21.241l2.965,8.261c1.245,3.471 4.875,8.023 7.575,10.33c13.206,11.283 17.658,21.439 17.658,31.795l-0,23.638l-16.841,0Z" style="fill:#ffc635;"/><path d="M16.841,89.019l-0,-10.594l-0,-6.798c-0,-6.36 3.647,-12.062 11.757,-18.991c4.521,-3.863 10.4,-11.633 12.486,-17.446l2.965,-8.261c2.251,-6.273 7.496,-10.088 14.16,-10.088l183.582,-0c6.664,-0 11.909,3.815 14.16,10.088l2.965,8.261c2.086,5.813 7.965,13.583 12.486,17.446c8.11,6.929 11.757,12.631 11.757,18.991l0,17.392l-7.255,0l0,-17.392c0,-4.648 -3.287,-8.411 -9.214,-13.475c-5.307,-4.534 -12.154,-13.689 -14.603,-20.511l-2.964,-8.262c-1.171,-3.26 -3.868,-5.283 -7.332,-5.283l-183.582,-0c-3.464,-0 -6.161,2.023 -7.332,5.283l-2.964,8.262c-2.449,6.822 -9.296,15.977 -14.603,20.511c-5.927,5.064 -9.214,8.827 -9.214,13.475l-0,6.798l-0,10.594l-7.255,0Z" style="fill:#f87920;"/><path d="M280.747,45.177c-0.868,-0.716 -0.322,-2.712 -1.297,-3.49c-4.44,-3.543 -8.698,-9.378 -10.561,-15.663c-0.689,-2.326 -1.509,-4.479 -2.462,-6.457l-6.912,-4.068l0.968,-4.44c-1.855,-1.835 -3.945,-3.357 -6.272,-4.561l-7.906,-0.255l-4.95,-3.045c-0.85,-0.05 -52.695,-0.075 -52.695,-0.075l-2.949,1.696l-11.642,-1.696l-41.892,-0l-9.276,1.696l-2.29,-1.696l-19.638,-0l-13.273,3.041l-12.415,-3.041l-14.035,-0c-2.32,-0 -4.515,0.171 -6.585,0.511l-6.109,4.992l-7.177,-1.066l-1.016,2.698c-4.188,3.788 -7.265,9.061 -9.252,15.766c-1.558,5.255 -4.79,10.196 -8.403,13.745l0.917,1.834l-2.927,1.582l3.322,1.424l-8.029,0.817c-11.661,9.895 -12.894,14.192 -15.991,26.201c-0,-10.356 4.452,-20.512 17.658,-31.795c2.7,-2.307 6.33,-6.859 7.575,-10.33l2.965,-8.261c4.761,-13.266 15.917,-21.241 30.011,-21.241l183.582,0c14.094,-0 25.25,7.975 30.011,21.241l2.965,8.261c1.245,3.471 4.875,8.023 7.575,10.33c13.206,11.283 17.658,21.439 17.658,31.795c-2.903,-11.257 -4.169,-15.738 -13.92,-24.405l-5.333,-2.045Z" style="fill:#fcdc4d;"/><rect x="0" y="92.875" width="300" height="24.201" style="fill:#7b2300;"/><rect x="0" y="90.698" width="300" height="24.201" style="fill:#f87920;"/><path d="M200.75,77.313l99.25,-0l0,24.201l-300,-0l0,-24.201l99.226,-0c2.141,-14.346 14.525,-25.364 29.463,-25.364l42.597,0c14.938,0 27.322,11.018 29.464,25.364Z" style="fill:#34191f;fill-opacity:0.25;"/><path d="M195.435,81.391l104.565,0l0,24.202l-300,-0l0,-24.202l104.565,0c2.141,-14.345 14.526,-25.363 29.464,-25.363l31.942,0c14.938,0 27.323,11.018 29.464,25.363Z" style="fill:#ffc635;"/><path d="M0,105.593l0,-24.202l104.565,0c2.141,-14.345 14.526,-25.363 29.464,-25.363l31.942,0c14.938,0 27.323,11.018 29.464,25.363l104.565,0l0,24.202l-5.761,-13.59l-7.521,-3.095l-16.712,-0.078l-8.974,-1.225l-21.772,1.303c-6.621,-0.036 -42.003,1.608 -42.003,1.608c-5.175,2.77 -7.274,0.401 -7.274,0.401c0,0 0.093,-5.68 0.017,-6.358c-1.604,-14.336 -11.25,-21.925 -23.849,-21.925l-24.823,-0c-1.253,-1.45 -2.637,-1.45 -4.153,-0l-3.326,-0c-11.738,-0 -20.914,6.588 -23.41,19.083c-0.442,2.213 -6.785,7.191 -6.785,7.191l-10.283,-1.681l-5.273,2.203l-16.679,-0.522c-4.179,0.629 -12.254,1.507 -12.254,1.507l-23.442,-1.507c-3.071,-1.754 -24.028,0 -24.028,0l-6.261,-3.173l-0.317,4.216l-5.117,15.642Z" style="fill:#fcdc4d;"/><path d="M251.312,105.593l-102.083,-0c3.57,-1.946 9.877,-4.992 21.399,-10.31c10.476,-4.834 29.049,-8.931 46.565,-13.892l64.562,0c-1.446,1.058 -2.952,2.208 -4.52,3.464l-25.923,20.738Zm48.688,-9.157l0,9.157l-16.159,-0c4.417,-2.947 10.266,-6.225 16.159,-9.157Zm-16.841,-16.055l0,-8.754c0,-6.322 -3.604,-11.995 -11.614,-18.869c4.857,-4.597 8.309,-8.488 12.506,-11.428c11.666,10.492 15.797,20.045 15.945,29.753c-4.69,1.831 -10.115,4.54 -16.837,9.298Zm-228.534,-80.204c1.172,-0.118 2.367,-0.177 3.584,-0.177l15.863,0c-6.976,2.678 -15.038,7.076 -25.983,16.198c-8.776,7.313 -16.468,11.165 -22.827,13.223l2.936,-8.18c0.875,-2.438 1.965,-4.696 3.25,-6.76c5.74,-1.573 9.011,-4.424 15.192,-8.133c3.526,-2.116 5.483,-4.117 7.985,-6.171Zm-16.194,81.214l66.134,0c2.141,-14.345 14.526,-25.363 29.464,-25.363l31.942,0c4.994,0 9.703,1.232 13.839,3.407c-3.761,0.649 -7.062,1.28 -9.761,1.955c-21.822,5.455 -19.455,10.168 -35.632,20.568c-20.241,13.012 -25.559,17.324 -45.013,23.635l-89.404,-0l-0,-9.877c7.255,-1.241 18.077,-3.38 38.431,-14.325Zm-38.431,4.501l-0,-14.265c-0,-8.927 3.308,-17.705 12.68,-27.185c8.336,-1.374 17.464,-2.245 25.909,-4.099c-2.741,4.662 -6.721,9.499 -9.991,12.293c-8.11,6.929 -11.757,12.631 -11.757,18.991l-0,6.798l-0,2.192c-6.925,2.668 -12.336,4.136 -16.841,5.275Zm156.148,-85.892l85.643,-0c14.094,-0 25.25,7.975 30.011,21.241l1.763,4.913c-4.106,4.099 -8.829,7.645 -13.962,10.728c-0.26,-0.578 -0.491,-1.143 -0.687,-1.692l-2.965,-8.261c-2.251,-6.273 -7.496,-10.088 -14.16,-10.088l-111.103,-0c4.268,-3.496 10.632,-8.355 25.46,-16.841Zm-39.358,16.841l-42.357,-0c6.557,-6.237 13.933,-12.244 24.733,-16.841l42.855,0c-7.946,4.261 -16.162,10.056 -25.231,16.841Z" style="fill:#f0f0f0;fill-opacity:0.15;"/><path d="M127.594,114.899l-2.587,-6.813c-5.283,-13.913 1.724,-29.497 15.636,-34.78c0.27,-0.102 0.54,-0.2 0.811,-0.293l-0,-4.911c-0,-4.717 3.829,-8.547 8.546,-8.547c4.717,0 8.546,3.83 8.546,8.547l0,4.772c7.497,2.442 13.863,8.132 16.877,16.069l3.935,10.366c0.574,1.51 -0.185,3.199 -1.694,3.774l-8.411,3.202c-0.726,0.276 -1.532,0.253 -2.241,-0.065c-0.708,-0.318 -1.261,-0.905 -1.537,-1.631l-3.939,-10.374c-0.669,-1.762 -1.705,-3.277 -2.99,-4.491l0,2.05c0,4.717 -3.829,8.546 -8.546,8.546c-4.717,0 -8.546,-3.829 -8.546,-8.546l-0,-1.623c-3.115,3.271 -4.27,8.161 -2.561,12.662l3.949,10.399c0.212,0.56 0.242,1.144 0.118,1.687l-15.366,0Z" style="fill-opacity:0.15;"/><g><path d="M131.694,117.454l-3.951,-10.407c-4.709,-12.403 1.537,-26.295 13.939,-31.005c12.403,-4.709 26.295,1.537 31.005,13.94l3.935,10.365l-8.411,3.203l-3.938,-10.373c-2.946,-7.759 -11.637,-11.667 -19.396,-8.721c-7.759,2.946 -11.666,11.637 -8.72,19.396l3.948,10.399l-8.411,3.203Z" style="fill:#b7b1ce;"/><path d="M169.75,95.336c-3.017,-6.376 -3.022,-6.375 -3.335,-6.891c-7.475,-12.3 -24.841,-10.565 -31.58,0.068c-0.412,0.65 -4.542,6.754 -2.596,15.328c0.177,0.78 0.208,0.767 1.782,5.927c0.015,0.052 0.089,0.199 -0.023,0.238c-0.042,0.015 -0.104,-0.017 -0.121,-0.058c-1.405,-3.434 -1.625,-3.357 -2.579,-6.939c-2.464,-9.258 2.098,-21.576 14.451,-24.53c6.921,-1.656 16.905,0.486 21.466,10.156c0.218,0.463 0.199,0.47 2.535,6.701Z" style="fill:#c4bfd8;"/><path d="M140.105,114.251l-8.411,3.203l-3.951,-10.407c-4.709,-12.403 1.537,-26.295 13.939,-31.005c12.403,-4.709 26.295,1.537 31.005,13.94l3.935,10.365l-8.411,3.203l-3.938,-10.373c-2.946,-7.759 -11.637,-11.667 -19.396,-8.721c-7.759,2.946 -11.666,11.637 -8.72,19.396l3.948,10.399Zm-7.415,1.059c0.484,-0.185 5.288,-2.014 5.288,-2.014l-3.363,-8.858c-3.27,-8.61 1.066,-18.255 9.676,-21.524c8.61,-3.269 18.255,1.067 21.524,9.677c-0,-0 3.353,8.83 3.353,8.83l5.327,-2.029l-3.351,-8.825c-0.476,-1.253 -1.052,-2.439 -1.717,-3.551c-5.992,-8.919 -17.041,-13.03 -26.91,-9.283c-11.623,4.413 -17.235,18.066 -12.526,30.468l2.699,7.109Z" style="fill:#a9a6b5;"/><path d="M138.254,109.374l1.851,4.877l-8.411,3.203l-1.839,-4.846c-0.829,-2.728 7.531,-5.46 8.399,-3.234Zm36.464,-14.042l1.904,5.015l-8.411,3.203l-1.892,-4.984c-1.317,-3.393 7.164,-6.477 8.399,-3.234Z" style="fill:#2c2548;fill-opacity:0.25;"/><path d="M183.626,98.6c0.445,0.199 0.792,0.566 0.966,1.02c2.025,5.292 14.733,38.504 16.758,43.796c0.174,0.455 0.16,0.96 -0.038,1.405c-0.214,0.478 -0.496,1.11 -0.709,1.588c-0.199,0.444 -0.566,0.792 -1.021,0.966c-5.961,2.281 -47.585,18.208 -53.547,20.489c-0.454,0.174 -0.96,0.16 -1.404,-0.038c-0.478,-0.214 -1.111,-0.496 -1.588,-0.709c-0.445,-0.199 -0.793,-0.566 -0.967,-1.021c-2.024,-5.291 -14.733,-38.504 -16.757,-43.795c-0.175,-0.455 -0.161,-0.96 0.038,-1.405c0.213,-0.478 0.496,-1.11 0.709,-1.588c0.198,-0.445 0.565,-0.792 1.02,-0.966c5.962,-2.281 47.586,-18.208 53.547,-20.489c0.455,-0.174 0.96,-0.161 1.405,0.038c0.478,0.213 1.11,0.496 1.588,0.709Z" style="fill:#2f333c;"/><path d="M178.445,100.582c0.445,0.199 0.793,0.566 0.967,1.021c2.024,5.291 14.499,38.593 16.524,43.885c0.174,0.454 0.16,0.96 -0.039,1.404c-0.213,0.478 -0.495,1.111 -0.709,1.589c-0.198,0.444 -0.565,0.792 -1.02,0.966c-5.962,2.281 -37.076,14.186 -43.038,16.467c-0.454,0.175 -0.96,0.161 -1.404,-0.038c-0.478,-0.213 -1.111,-0.496 -1.588,-0.709c-0.445,-0.198 -0.793,-0.565 -0.967,-1.02c-2.024,-5.292 -14.499,-38.594 -16.524,-43.885c-0.174,-0.455 -0.16,-0.96 0.039,-1.405c0.213,-0.478 0.495,-1.11 0.709,-1.588c0.198,-0.445 0.565,-0.792 1.02,-0.966c5.962,-2.281 37.076,-14.187 43.038,-16.468c0.454,-0.174 0.96,-0.16 1.404,0.038c0.478,0.214 1.111,0.496 1.588,0.709Z" style="fill:#605e6f;"/><path d="M183.626,98.6c0.445,0.199 0.792,0.566 0.966,1.02c2.025,5.292 11.119,29.059 13.144,34.35c0.174,0.455 0.16,0.961 -0.038,1.405c-0.214,0.478 -0.496,1.11 -0.709,1.588c-0.199,0.445 -0.566,0.793 -1.021,0.967c-5.961,2.281 -47.585,18.208 -53.547,20.489c-0.455,0.174 -0.96,0.16 -1.405,-0.039c-0.477,-0.213 -1.11,-0.495 -1.588,-0.709c-0.444,-0.198 -0.792,-0.565 -0.966,-1.02c-2.025,-5.292 -11.119,-29.059 -13.143,-34.35c-0.175,-0.455 -0.161,-0.96 0.038,-1.405c0.213,-0.478 0.496,-1.11 0.709,-1.588c0.198,-0.445 0.565,-0.792 1.02,-0.966c5.962,-2.281 47.586,-18.208 53.547,-20.489c0.455,-0.174 0.96,-0.161 1.405,0.038c0.478,0.213 1.11,0.496 1.588,0.709Z" style="fill:#7f7d94;"/><path d="M132.415,116.303l43.038,-16.468c0.454,-0.174 0.96,-0.16 1.404,0.038l1.588,0.709c0.445,0.199 0.793,0.566 0.967,1.021c1.775,4.639 10.531,28.034 14.026,37.295l-48.764,18.659c-3.495,-9.261 -12.251,-32.656 -14.027,-37.295c-0.174,-0.455 -0.16,-0.96 0.039,-1.405l0.709,-1.588c0.198,-0.445 0.565,-0.792 1.02,-0.966Z" style="fill:#a9a6b5;"/><path d="M132.464,119.608l0.677,-1.517l42.965,-16.44l1.517,0.678c1.698,4.441 9.508,25.3 13.332,35.452l-45.159,17.28c-3.828,-10.163 -11.634,-31.012 -13.332,-35.453Zm38.586,12.977c1.173,-1.226 1.587,-3.073 0.905,-4.745c-0.924,-2.267 -3.515,-3.358 -5.782,-2.434l-0.319,0.13l-0.494,-1.147c1.134,-1.464 1.809,-3.301 1.809,-5.295c-0,-4.778 -3.88,-8.658 -8.659,-8.658c-4.778,-0 -8.658,3.88 -8.658,8.658c0,4.298 3.139,7.869 7.247,8.544l5.576,12.943c0.007,0.017 0.014,0.034 0.021,0.051c0.955,2.217 3.514,3.265 5.749,2.353c0.018,-0.007 0.035,-0.014 0.052,-0.021l0.702,-0.286c1.239,1.461 3.338,2 5.178,1.187c2.239,-0.991 3.253,-3.613 2.263,-5.852l-1.236,-2.795c-0.774,-1.748 -2.543,-2.754 -4.354,-2.633Zm-12.632,-6.763c-3.671,-0.05 -6.636,-3.045 -6.636,-6.728c0,-3.713 3.015,-6.728 6.728,-6.728c3.714,-0 6.729,3.015 6.729,6.728c-0,1.942 -0.824,3.692 -2.141,4.921l1.732,4.022l2.071,-0.844c1.281,-0.522 2.745,0.094 3.267,1.375c0.522,1.281 -0.094,2.745 -1.375,3.267l-1.979,0.807l1.286,2.987l2.3,-0.937c1.256,-0.512 2.69,0.067 3.239,1.307l1.236,2.795c0.559,1.265 -0.014,2.746 -1.279,3.306c-1.265,0.559 -2.746,-0.014 -3.306,-1.279c0,0 -0.252,-0.569 -0.252,-0.569l-2.276,0.927c-0.015,0.007 -0.03,0.013 -0.045,0.019c-1.263,0.515 -2.709,-0.077 -3.248,-1.329c-0.007,-0.015 -0.013,-0.03 -0.019,-0.046l-6.032,-14.001Z" style="fill:#b0adbb;"/><path d="M158.418,125.822c-3.671,-0.05 -6.636,-3.045 -6.636,-6.728c0,-3.713 3.015,-6.728 6.728,-6.728c3.714,-0 6.729,3.015 6.729,6.728c-0,1.942 -0.824,3.692 -2.141,4.921l1.732,4.022l2.071,-0.844c1.281,-0.522 2.745,0.094 3.267,1.375c0.522,1.281 -0.094,2.745 -1.375,3.267l-1.979,0.807l1.286,2.987l2.3,-0.937c1.256,-0.512 2.69,0.067 3.239,1.307l1.236,2.795c0.559,1.265 -0.014,2.746 -1.279,3.306c-1.265,0.559 -2.746,-0.014 -3.306,-1.279c0,0 -0.252,-0.569 -0.252,-0.569l-2.276,0.927c-0.015,0.007 -0.03,0.013 -0.045,0.019c-1.263,0.515 -2.709,-0.077 -3.248,-1.329c-0.007,-0.015 -0.013,-0.03 -0.019,-0.046l-6.032,-14.001Z" style="fill:#0b0b0b;"/><path d="M152.754,122.577c-0.617,-1.016 -0.972,-2.208 -0.972,-3.483c0,-3.713 3.015,-6.728 6.728,-6.728c2.948,-0 5.456,1.9 6.364,4.54c-1.18,-1.944 -3.317,-3.245 -5.756,-3.245c-3.714,0 -6.728,3.015 -6.728,6.728c-0,0.766 0.128,1.502 0.364,2.188Zm12.076,5.46l2.071,-0.844c1.281,-0.522 2.745,0.094 3.267,1.375c0.077,0.189 0.129,0.381 0.158,0.574c-0.686,-0.77 -1.808,-1.065 -2.817,-0.654l-2.113,0.862l-0.566,-1.313Zm3.27,7.592l2.3,-0.937c1.256,-0.512 2.69,0.067 3.239,1.307l0.416,0.942c-0.643,-0.992 -1.918,-1.415 -3.047,-0.954l-2.342,0.954l-0.566,-1.312Zm-3.4,4.662c-0.089,-0.131 -0.166,-0.272 -0.231,-0.422c-0.007,-0.015 -0.013,-0.03 -0.019,-0.046l-5.474,-12.707c0.016,0.001 0.033,0.001 0.05,0.001l5.674,13.174Z" style="fill:#2f333c;"/><path d="M157.404,68.466l0,24.45c0,4.086 -3.317,7.404 -7.404,7.404c-4.087,0 -7.404,-3.318 -7.404,-7.404l-0,-24.45c-0,-4.086 3.317,-7.404 7.404,-7.404c4.087,0 7.404,3.318 7.404,7.404Z" style="fill:#f87920;"/><path d="M157.404,68.466l0,17.354c0,4.086 -3.317,7.404 -7.404,7.404c-4.087,0 -7.404,-3.318 -7.404,-7.404l-0,-17.354c-0,-4.086 3.317,-7.404 7.404,-7.404c4.087,0 7.404,3.318 7.404,7.404Z" style="fill:#ffc635;"/><path d="M150,63.338c-4.267,-0 -6.026,4.353 -6.026,7.076c-0,0 -1.378,16.323 -1.378,15.406l-0,-17.354c-0,-4.086 3.317,-7.404 7.404,-7.404c4.087,0 7.404,3.318 7.404,7.404l0,17.354c0,0.917 -1.378,-15.406 -1.378,-15.406c0,-2.723 -1.759,-7.076 -6.026,-7.076Z" style="fill:#fcdc4d;"/></g></g></g></svg>