<?xml version="1.0" encoding="UTF-8" standalone="no"?>
<svg
   width="100%"
   height="100%"
   viewBox="0 0 300 345"
   version="1.1"
   xml:space="preserve"
   style="fill-rule:evenodd;clip-rule:evenodd;stroke-linejoin:round;stroke-miterlimit:2;"
   id="svg357"
   sodipodi:docname="alien_head.svg"
   inkscape:version="1.2 (dc2aedaf03, 2022-05-15)"
   xmlns:inkscape="http://www.inkscape.org/namespaces/inkscape"
   xmlns:sodipodi="http://sodipodi.sourceforge.net/DTD/sodipodi-0.dtd"
   xmlns="http://www.w3.org/2000/svg"
   xmlns:svg="http://www.w3.org/2000/svg"><defs
   id="defs361"><inkscape:path-effect
   effect="mirror_symmetry"
   start_point="207.99691,109.15943"
   end_point="207.99691,179.87804"
   center_point="207.99691,144.51873"
   id="path-effect12562"
   is_visible="true"
   lpeversion="1.2"
   lpesatellites=""
   mode="vertical"
   discard_orig_path="false"
   fuse_paths="false"
   oposite_fuse="false"
   split_items="true"
   split_open="false"
   link_styles="false" /><inkscape:path-effect
   effect="mirror_symmetry"
   start_point="152.1875,40.181605"
   end_point="152.1875,298.45312"
   center_point="152.1875,169.31736"
   id="path-effect6556"
   is_visible="true"
   lpeversion="1.2"
   lpesatellites=""
   mode="vertical"
   discard_orig_path="false"
   fuse_paths="false"
   oposite_fuse="false"
   split_items="true"
   split_open="false"
   link_styles="false" />
        
    
            
            
            
            
            
            
            
            
            
            
        <linearGradient
   id="_Linear1"
   x1="0"
   y1="0"
   x2="1"
   y2="0"
   gradientUnits="userSpaceOnUse"
   gradientTransform="matrix(4.24154e-15,69.2697,-19.1623,1.17335e-15,150,275.73)"><stop
     offset="0"
     style="stop-color:#118b57;stop-opacity:1"
     id="stop16108" /><stop
     offset="1"
     style="stop-color:#11925d;stop-opacity:1"
     id="stop16110" /></linearGradient>
        
    
            
            
            
            
            
            
        </defs><sodipodi:namedview
   id="namedview359"
   pagecolor="#505050"
   bordercolor="#ffffff"
   borderopacity="1"
   inkscape:showpageshadow="0"
   inkscape:pageopacity="0"
   inkscape:pagecheckerboard="1"
   inkscape:deskcolor="#505050"
   showgrid="false"
   inkscape:zoom="1.2931178"
   inkscape:cx="104.01218"
   inkscape:cy="143.8384"
   inkscape:window-width="1366"
   inkscape:window-height="705"
   inkscape:window-x="-8"
   inkscape:window-y="-8"
   inkscape:window-maximized="1"
   inkscape:current-layer="svg357" />
    <path
   id="path14482"
   style="color:#000000;clip-rule:nonzero;fill:none;fill-rule:nonzero;stroke-linecap:round;paint-order:markers stroke fill;stroke:#6e2663;stroke-opacity:1;stroke-width:6;stroke-dasharray:none"
   d="M 54.251953 4.09375 C 52.636986 4.0913762 51.576693 4.7146836 50.876953 6.71875 C 48.933752 12.284113 53.85908 18.284626 60.978516 20.886719 C 60.645364 30.99795 63.282281 43.580793 70.369141 51.710938 C 73.090586 54.833846 77.828439 55.159147 80.951172 52.4375 C 84.074081 49.716055 84.399382 44.978202 81.677734 41.855469 C 76.354608 35.748702 75.201249 27.598743 75.722656 21.326172 C 82.75994 19.537567 87.71875 15.243947 87.71875 10.228516 C 87.71875 3.6075647 78.494053 5.8417969 67.835938 5.8417969 C 61.174615 5.8417969 56.943566 4.0977063 54.251953 4.09375 z " /><path
   id="path14345"
   style="color:#000000;clip-rule:nonzero;fill:none;fill-rule:nonzero;stroke:#6e2663;stroke-width:6;stroke-linecap:round;stroke-dasharray:none;stroke-opacity:1;paint-order:markers stroke fill"
   d="M 217.21094 3.6054688 C 216.73142 3.5954575 216.25062 3.6008607 215.76758 3.6269531 C 213.83542 3.7313239 211.86095 4.1541329 209.74609 5.1210938 C 204.44666 7.5441273 201.88713 12.334298 200.46484 16.673828 C 199.04257 21.013358 198.55335 25.502745 198.36328 29.712891 C 197.98314 38.133181 198.99609 45.664062 198.99609 45.664062 C 199.53382 49.771135 203.29917 52.664672 207.40625 52.126953 C 211.51419 51.589254 214.40803 47.822626 213.86914 43.714844 C 213.86914 43.714844 213.04078 37.18614 213.34766 30.388672 C 213.5011 26.989937 213.98639 23.580191 214.71875 21.345703 C 215.23345 19.775299 215.75032 19.110421 215.93945 18.875 C 216.32211 18.871209 217.7917 18.636503 219.23633 18.861328 C 221.1937 19.165951 223.24795 20.066117 223.81641 20.507812 C 224.90181 21.052737 225.99429 21.496209 227.07812 21.861328 C 222.77582 26.394445 221.02842 31.711647 223.0957 35.708984 C 226.13718 41.590005 233.30446 35.366721 242.77148 30.470703 C 252.23849 25.574685 258.2311 27.504506 257.43359 21.900391 C 256.53773 15.605206 248.31115 12.531075 240.17383 14.257812 C 238.7404 12.552766 236.43329 10.669449 233.01953 8.6640625 C 229.42113 5.8680811 225.44669 4.6465935 221.54297 4.0390625 C 220.07907 3.8112384 218.6495 3.6355026 217.21094 3.6054688 z " />
<path
   id="path4257"
   style="clip-rule:evenodd;fill:#bf5887;fill-opacity:1;fill-rule:evenodd;stroke-linejoin:round;stroke-miterlimit:2"
   class="UnoptimicedTransforms"
   d="M 27.695312,39.089878 C 11.804344,42.98687 0,57.336896 0,74.423862 V 262.07227 c 0,20.07896 16.301899,36.38085 36.380859,36.38085 h 111.431641 4.375 111.43164 C 283.6981,298.45312 300,282.15123 300,262.07227 V 74.423862 C 300,57.336896 288.19566,42.98687 272.30469,39.089878 l -23.875,-1.044922 h -96.24219 -4.375 -96.242188 z m -2.83789,81.121062 c 12.439032,-0.51751 40.67883,20.9642 59.064453,30.36718 23.408845,11.97202 48.271425,12.58189 66.015625,12.58204 0.0197,0 0.0427,-0.002 0.0625,-0.002 0.0198,9e-5 0.0428,0.002 0.0625,0.002 17.7442,-1.5e-4 42.60678,-0.61002 66.01562,-12.58204 18.38563,-9.40298 46.62543,-30.88469 59.06446,-30.36718 11.18468,0.46533 7.53515,33.82995 7.53515,40.64258 v 102.3789 c 0,7.72698 -6.27301,14 -14,14 l -116.49023,0 h -4.375 -116.490234 c -7.726986,0 -14,-6.27302 -14,-14 v -102.3789 c 0,-6.81263 -3.649531,-40.17725 7.535156,-40.64258 z"
   sodipodi:nodetypes="csssccsssccccccsssccssssccccsss" /><ellipse
   style="opacity:1;fill:#a84c89;fill-opacity:1;stroke:none;stroke-width:3.67952;stroke-linecap:round;stroke-linejoin:round;stroke-dasharray:7.35904, 11.0386;stroke-dashoffset:0;stroke-opacity:1;stop-color:#000000"
   id="circle14609"
   cx="252.44952"
   cy="80.962257"
   rx="20.055368"
   ry="19.505751" /><ellipse
   style="opacity:1;fill:#a84c89;fill-opacity:1;stroke:none;stroke-width:3.50711;stroke-linecap:round;stroke-linejoin:round;stroke-dasharray:7.01423, 17.5356;stroke-dashoffset:0;stroke-opacity:1;stop-color:#000000"
   id="circle14680"
   cx="222.92554"
   cy="115.67532"
   rx="10.825068"
   ry="9.725832" /><ellipse
   style="opacity:1;fill:#a84c89;fill-opacity:1;stroke:none;stroke-width:1.13583;stroke-linecap:round;stroke-linejoin:round;stroke-dashoffset:459.891;stop-color:#000000"
   id="circle14682"
   cx="150"
   cy="106.10809"
   rx="47.96748"
   ry="47.143051" /><path
   id="path10991"
   style="opacity:1;fill:#a84c89;fill-opacity:1;stroke:none;stroke-width:3.7;stroke-linecap:round;stroke-linejoin:round;stroke-dasharray:7.4, 18.5;stroke-dashoffset:0;stroke-opacity:1;stop-color:#000000"
   class="UnoptimicedTransforms"
   d="M 33.080078 109.16797 C 28.756405 109.02658 23.826174 110.77829 21.089844 114.12891 C 18.336896 117.49987 18.243159 122.61223 18.607422 126.94922 C 18.607802 126.95375 18.608992 126.95836 18.609375 126.96289 C 19.823725 123.04356 21.75669 120.33994 24.857422 120.21094 C 37.296441 119.69343 65.53627 141.17515 83.921875 150.57812 C 107.3307 162.55013 132.19332 163.16001 149.9375 163.16016 C 149.9572 163.16016 149.9802 163.1582 150 163.1582 C 150.0198 163.15829 150.0428 163.16016 150.0625 163.16016 C 167.80668 163.16001 192.66931 162.55013 216.07812 150.57812 C 234.46374 141.17515 262.70356 119.69343 275.14258 120.21094 C 278.24331 120.33994 280.17628 123.04356 281.39062 126.96289 C 281.39101 126.95836 281.3922 126.95375 281.39258 126.94922 C 281.75684 122.61223 281.6631 117.49987 278.91016 114.12891 C 276.17382 110.77829 271.2436 109.02658 266.91992 109.16797 C 235.74482 110.18743 213.23892 142.96203 182.97656 150.51953 C 174.1893 152.714 162.07201 153.66594 150 153.99609 C 137.92799 153.66594 125.8107 152.714 117.02344 150.51953 C 86.761079 142.96203 64.255176 110.18743 33.080078 109.16797 z " /><g
   transform="translate(3.17319,0.06214699)"
   id="g4261"
   style="clip-rule:evenodd;fill-rule:evenodd;stroke-linejoin:round;stroke-miterlimit:2;fill:#a84c89;fill-opacity:1">
                <path
   d="m 132.129,296.5 c -1.925,-0.357 -3.931,-0.41 -5.878,-0.705 -0.724,-0.11 -1.606,-0.047 -2.272,-0.396 -1.392,-0.731 -2.186,-2.382 -2.673,-3.801 -1.068,-3.113 -1.755,-7.292 0.476,-10.07 1.822,-2.268 5.182,-2.519 7.886,-2.429 0.534,0.018 2.35,-0.242 2.665,0.322 0.305,0.546 0.221,1.288 0.205,1.889 -0.031,1.137 -0.075,2.275 -0.131,3.411 -0.188,3.773 -0.109,7.795 -0.278,11.779 z"
   style="fill:#a84c89;fill-opacity:1"
   id="path4259" />
            </g><path
   d="m 752.36704,255.44683 h -162.707 c -20.079,0 -36.38,-16.301 -36.38,-36.38 V 38.436822 c 0,-17.087 11.805,-31.4379997 27.696,-35.3349997 0.249,-2.94300002 1.516,-5.938 4.631,-5.926 2.595,0.01 4.175,1.89699998 5.694,3.72599998 0.316,0.38000002 0.626,0.76500002 0.929,1.15500002 h 1.87 c 0.067,-0.159 0.135,-0.312 0.209,-0.453 0.638,-1.22400002 1.537,-2.53200002 2.635,-3.389 1.57,-1.225 3.222,-0.911 4.764,0.219 1.257,0.92099998 2.275,2.23899998 3.143,3.623 h 188.555 c 0.286,-0.418 0.597,-0.819 0.935,-1.20600002 0.476,-0.545 0.973,-1.073 1.466,-1.603 1.837,-1.97199998 4.707,-5.34699998 7.833,-4.05199998 1.246,0.516 2.246,1.647 2.691,2.911 0.15,0.426 0.239,0.865 0.29,1.31399998 0.018,0.154 0.033,0.309 0.048,0.463 0.007,0.065 -0.043,0.217 0.02,0.197 1.078,-0.345 1.816,-1.31299998 3.016,-1.31799998 0.601,-0.003 1.236,0.30399998 1.77,0.56299998 1.232,0.599 2.194,1.616 3.021,2.73100002 h 2.404 c 20.079,0 36.38,16.3009997 36.38,36.3799997 V 219.06683 c 0,20.079 -16.301,36.38 -36.38,36.38 h -41.912 c -0.099,0.348 -0.218,0.694 -0.367,1.037 -0.856,1.971 -2.874,3.696 -5.079,3.839 -0.715,0.046 -1.482,-0.194 -2.147,-0.347 -0.945,-0.217 -1.773,-1.149 -2.383,-1.841 -0.348,-0.395 -0.592,-0.939 -1.069,-1.161 -0.07,-0.033 -0.089,0.127 -0.134,0.191 -0.102,0.146 -0.204,0.29 -0.307,0.435 -0.465,0.655 -0.957,1.291 -1.482,1.9 -1.499,1.739 -3.172,3.223 -5.615,2.825 -3.363,-0.548 -4.454,-3.852 -4.038,-6.878 z m 57.388,-253.6050077 c 0.138,0.059 0.306,0.133 0.409,0.182 0.801,0.39 1.385,1.095 1.923,1.82 0.566,0.763 1.459,1.213 2.409,1.213 h 2.404 c 18.423,0 33.38,14.9569997 33.38,33.3799997 0,0 0,180.630008 0,180.630008 0,18.423 -14.957,33.38 -33.38,33.38 0,0 -41.912,0 -41.912,0 -1.341,0 -2.52,0.89 -2.886,2.18 -0.063,0.222 -0.138,0.443 -0.233,0.662 -0.436,1.004 -1.398,1.967 -2.521,2.04 -0.381,0.025 -0.776,-0.138 -1.139,-0.24 -0.109,-0.102 -0.701,-0.659 -0.945,-0.936 -0.616,-0.7 -1.208,-1.504 -2.052,-1.897 -1.472,-0.688 -4.173,1.77 -4.173,1.77 0,0 0.207,-0.431 0.313,-0.582 -0.098,0.139 -0.196,0.279 -0.295,0.418 -0.411,0.579 -0.845,1.141 -1.309,1.68 -0.809,0.938 -1.543,2.037 -2.861,1.822 -1.617,-0.264 -1.748,-2.054 -1.548,-3.509 0.118,-0.858 -0.141,-1.726 -0.711,-2.38 -0.57,-0.653 -1.394,-1.028 -2.261,-1.028 h -162.707 c -18.423,0 -33.38,-14.957 -33.38,-33.38 V 38.436822 c 0,-15.678 10.831,-28.8459997 25.411,-32.4219997 1.251,-0.306 2.167,-1.378 2.275,-2.661 0.068,-0.809 0.227,-1.63 0.556,-2.316 0.216,-0.45000002 0.511,-0.86400002 1.073,-0.86200002 0.744,0.003 1.281,0.397 1.774,0.84600002 0.587,0.534 1.106,1.173 1.625,1.797 0.295,0.355 0.584,0.715 0.867,1.079 0.569,0.731 1.443,1.159 2.369,1.159 h 1.87 c 1.208,0 2.298,-0.724 2.766,-1.837 0.033,-0.08 0.066,-0.158 0.103,-0.229 0.449,-0.861 1.048,-1.807 1.82,-2.41000002 0.388,-0.303 0.766,-0.006 1.147,0.273 0.961,0.70500002 1.71,1.73900002 2.374,2.79800002 0.549,0.874 1.509,1.405 2.541,1.405 h 188.555 c 0.99,0 1.916,-0.489 2.476,-1.306 0.219,-0.321 0.458,-0.629 0.717,-0.926 0.456,-0.521 0.932,-1.026 1.404,-1.532 0.794,-0.85300002 1.791,-2.02900002 2.947,-2.831 0.485,-0.336 0.976,-0.728 1.542,-0.494 0.477,0.198 0.838,0.65 1.009,1.13399998 0.075,0.215 0.114,0.437 0.14,0.664 0.016,0.138 0.029,0.277 0.043,0.416 -0.016,-0.158 0.004,-0.598 0.004,-0.598 0,0 0.532,2.30900002 0.918,2.67400002 0.357,0.338 0.777,0.579 1.267,0.715 0.463,0.128 1.036,0.187 1.729,-0.035 0.553,-0.177 1.061,-0.435 1.547,-0.73 z M 635.80104,236.27283 c 0.567,0.609 1.362,0.955 2.194,0.955 h 183.963 c 9.383,0 17,-7.618 17,-17 v -102.379 c 0,-7.869 -5.566,-16.974 -15.904,-25.622005 -22.473,-18.8 -67.715,-36.272003 -119.836,-36.272003 -52.122,0 -97.303,17.473003 -119.74,36.273003 -10.322,8.648005 -15.876,17.752005 -15.876,25.621005 0,0 0,102.379 0,102.379 0,9.382 7.617,17 17,17 0,0 24.075,0 24.075,0 0.888,0 1.73,-0.393 2.3,-1.074 0.454,-0.541 0.948,-1.048 1.426,-1.571 1.427,-1.56 2.792,-3.193 4.741,-4.098 0.389,-0.181 0.799,-0.479 1.237,-0.425 0.227,0.028 0.419,0.188 0.626,0.281 1.157,0.52 2.142,1.455 2.903,2.459 0.348,0.459 0.684,0.945 0.986,1.435 0.02,0.033 0.32,0.54 0.39,0.638 1.36,1.914 3.348,1.153 3.617,1.04 0.491,-0.206 0.955,-0.519 1.376,-0.921 0.332,-0.319 0.613,-0.759 0.909,-1.042 0.395,-0.378 0.863,-0.718 1.392,-0.866 0.966,-0.269 1.776,0.352 2.567,0.894 0.99,0.679 1.854,1.437 2.654,2.295 z m 2.194,-2.045 h 183.963 c 7.727,0 14,-6.273 14,-14 v -102.379 c 0,-24.036005 -59.497,-58.894005 -132.74,-58.894005 -73.242,0 -132.616,34.858 -132.616,58.894005 v 102.379 c 0,7.727 6.273,14 14,14 h 24.075 c 0.481,-0.575 1.005,-1.115 1.513,-1.67 1.694,-1.852 3.376,-3.719 5.69,-4.794 0.876,-0.407 1.881,-0.803 2.868,-0.682 0.523,0.065 1.013,0.309 1.488,0.523 1.609,0.722 3.007,1.988 4.065,3.383 0.406,0.535 0.796,1.101 1.149,1.673 0.016,0.027 0.28,0.491 0.292,0.486 0.554,-0.233 0.949,-0.96 1.371,-1.365 0.747,-0.714 1.661,-1.309 2.661,-1.587 1.861,-0.52 3.546,0.264 5.069,1.309 1.176,0.806 2.202,1.704 3.152,2.724 z"
   style="clip-rule:evenodd;fill:#6e2663;fill-opacity:1;fill-rule:evenodd;stroke-linejoin:round;stroke-miterlimit:2"
   id="path4263" /><path
   id="path4265"
   style="clip-rule:evenodd;fill:#bf5887;fill-opacity:1;fill-rule:evenodd;stroke-linejoin:round;stroke-miterlimit:2"
   d="m 282.67773,234.875 v 28.35742 c 0,7.72699 -6.273,14 -14,14 h -98.31835 c -2.099,-0.551 -4.19474,-1.17047 -6.30274,-1.85547 -6.32899,-2.05799 -12.74374,-5.15671 -19.55273,-4.01172 -9.50099,1.599 -20.90425,11.07678 -15.90625,21.63477 0.766,1.62 1.91197,3.19466 3.16796,4.47266 1.833,1.86299 4.37205,3.2352 6.74805,4.2832 3.123,1.378 6.76301,1.55775 10.125,1.59375 2.243,0.024 4.52008,0.0527 6.70508,-0.52734 2.548,-0.677 4.82674,-1.9979 7.30273,-2.83789 2.519,-0.855 5.27315,-1.37026 7.99414,-1.53126 h 92.97852 C 283.69812,298.45312 300,282.15125 300,262.07227 V 234.875 Z"
   sodipodi:nodetypes="cssccccccsccccscc" /><path
   id="path4267"
   style="clip-rule:evenodd;fill:#6e2663;fill-opacity:1;fill-rule:evenodd;stroke-linejoin:round;stroke-miterlimit:2"
   d="m 282.67773,196.14453 v 67.08789 c 0,7.72699 -6.273,14 -14,14 h -98.31835 c -2.099,-0.551 -4.19474,-1.17047 -6.30274,-1.85547 -6.32899,-2.05799 -12.74374,-5.15671 -19.55273,-4.01172 -9.50099,1.599 -20.90425,11.07678 -15.90625,21.63477 0.766,1.62 1.91197,3.19466 3.16796,4.47266 1.833,1.86299 4.37205,3.2352 6.74805,4.2832 3.123,1.378 6.76301,1.55775 10.125,1.59375 2.243,0.024 4.52008,0.0527 6.70508,-0.52734 2.548,-0.677 4.82674,-1.9979 7.30273,-2.83789 2.519,-0.855 5.27315,-1.37026 7.99414,-1.53126 h 92.97852 C 283.69812,298.45312 300,282.15125 300,262.07227 v -65.92774 h -3 v 65.92774 c 0,18.42298 -14.95788,33.38085 -33.38086,33.38085 h -92.97852 l -0.17773,0.004 c -2.989,0.177 -6.0123,0.7485 -8.7793,1.6875 -2.41199,0.819 -4.62737,2.11835 -7.10937,2.77735 -1.923,0.50999 -3.9303,0.44973 -5.9043,0.42773 -2.967,-0.032 -6.18931,-0.12189 -8.94531,-1.33789 -2.041,-0.9 -4.24631,-2.04258 -5.82031,-3.64258 -1.027,-1.044 -1.96871,-2.32834 -2.59571,-3.65234 -1.92699,-4.073 -0.5744,-7.91407 2.0586,-10.91407 2.96499,-3.37799 7.50581,-5.78451 11.63281,-6.47851 6.32699,-1.064 12.24991,1.99425 18.12891,3.90625 2.16299,0.703 4.31375,1.3393 6.46875,1.9043 0.248,0.066 0.50472,0.0976 0.76172,0.0976 h 98.31835 c 9.38299,0 17,-7.61801 17,-17 v -67.08789 z"
   sodipodi:nodetypes="cssccccccsccccsccscccccccsccsccssscc" /><g
   transform="matrix(1.74006,0.190745,-0.190745,1.74006,-54.2541,-279.66385)"
   id="g4293"
   style="clip-rule:evenodd;fill-rule:evenodd;stroke-linejoin:round;stroke-miterlimit:2">
                <g
   transform="matrix(1.28965,0,0,1.28965,-44.2385,-89.5897)"
   id="g4271">
                    <circle
   cx="150.259"
   cy="309.59201"
   r="4.9689999"
   style="fill:#a84c89;fill-opacity:1"
   id="circle4269" />
                </g>
                <g
   transform="translate(-0.716108,0.0832963)"
   id="g4275">
                    <circle
   cx="150.259"
   cy="309.59201"
   r="4.9689999"
   style="fill:#996040"
   id="circle4273" />
                </g>
                <g
   transform="translate(-0.716108,0.0832963)"
   id="g4279">
                    <path
   d="m 150.259,303.909 c -3.136,0 -5.683,2.547 -5.683,5.683 0,3.136 2.547,5.683 5.683,5.683 3.136,0 5.683,-2.547 5.683,-5.683 0,-3.136 -2.547,-5.683 -5.683,-5.683 z m 0,1.429 c 2.348,0 4.254,1.906 4.254,4.254 0,2.348 -1.906,4.254 -4.254,4.254 -2.348,0 -4.254,-1.906 -4.254,-4.254 0,-2.348 1.906,-4.254 4.254,-4.254 z"
   style="fill:#6a3e26"
   id="path4277" />
                </g>
                <g
   transform="matrix(1.22835,0,0,1.22835,-34.1876,-70.7142)"
   id="g4283">
                    <path
   d="m 150.948,310.137 c -0.521,0 -0.945,0.424 -0.945,0.946 0,0.521 0.424,0.945 0.945,0.945 0.522,0 0.946,-0.424 0.946,-0.945 0,-0.522 -0.424,-0.946 -0.946,-0.946 z m -2.746,0 c -0.522,0 -0.945,0.424 -0.945,0.946 0,0.521 0.423,0.945 0.945,0.945 0.522,0 0.945,-0.424 0.945,-0.945 0,-0.522 -0.423,-0.946 -0.945,-0.946 z m 2.746,0.5 c 0.246,0 0.446,0.2 0.446,0.446 0,0.245 -0.2,0.445 -0.446,0.445 -0.245,0 -0.445,-0.2 -0.445,-0.445 0,-0.246 0.2,-0.446 0.445,-0.446 z m -2.746,0 c 0.246,0 0.445,0.2 0.445,0.446 0,0.245 -0.199,0.445 -0.445,0.445 -0.246,0 -0.445,-0.2 -0.445,-0.445 0,-0.246 0.199,-0.446 0.445,-0.446 z m 0,-3.314 c -0.522,0 -0.945,0.423 -0.945,0.945 0,0.522 0.423,0.945 0.945,0.945 0.522,0 0.945,-0.423 0.945,-0.945 0,-0.522 -0.423,-0.945 -0.945,-0.945 z m 2.746,0 c -0.521,0 -0.945,0.423 -0.945,0.945 0,0.522 0.424,0.945 0.945,0.945 0.522,0 0.946,-0.423 0.946,-0.945 0,-0.522 -0.424,-0.945 -0.946,-0.945 z m -2.746,0.5 c 0.246,0 0.445,0.199 0.445,0.445 0,0.246 -0.199,0.445 -0.445,0.445 -0.246,0 -0.445,-0.199 -0.445,-0.445 0,-0.246 0.199,-0.445 0.445,-0.445 z m 2.746,0 c 0.246,0 0.446,0.199 0.446,0.445 0,0.246 -0.2,0.445 -0.446,0.445 -0.245,0 -0.445,-0.199 -0.445,-0.445 0,-0.246 0.2,-0.445 0.445,-0.445 z"
   style="fill:#6a3e26"
   id="path4281" />
                </g>
                <g
   transform="matrix(1.22835,0,0,1.22835,-34.1876,-70.7142)"
   id="g4287">
                    <path
   d="m 147.996,308.622 2.499,2.596 c 0.153,0.159 0.406,0.164 0.565,0.01 0.159,-0.153 0.164,-0.406 0.011,-0.565 l -2.499,-2.596 c -0.153,-0.159 -0.407,-0.163 -0.566,-0.01 -0.159,0.153 -0.164,0.406 -0.01,0.565 z"
   style="fill:#6a3e26"
   id="path4285" />
                </g>
                <g
   transform="matrix(-1.22835,0,0,1.22835,333.171,-70.7142)"
   id="g4291">
                    <path
   d="m 147.996,308.622 2.499,2.596 c 0.153,0.159 0.406,0.164 0.565,0.01 0.159,-0.153 0.164,-0.406 0.011,-0.565 l -2.499,-2.596 c -0.153,-0.159 -0.407,-0.163 -0.566,-0.01 -0.159,0.153 -0.164,0.406 -0.01,0.565 z"
   style="fill:#6a3e26"
   id="path4289" />
                </g>
            </g><circle
   style="opacity:1;fill:#fdfdfd;fill-opacity:1;stroke:none;stroke-width:1.14572;stroke-linecap:round;stroke-linejoin:round;stroke-dashoffset:459.891;stop-color:#000000"
   id="path6613"
   cx="150"
   cy="97.589005"
   r="47.96748" /><path
   id="circle7797"
   style="opacity:1;fill:#9de93a;fill-opacity:1;stroke:none;stroke-width:0.849413;stroke-linecap:round;stroke-linejoin:round;stroke-dashoffset:459.891;stop-color:#000000"
   d="M 157.44336 52.929688 A 35.562096 35.562096 0 0 0 121.88086 88.492188 A 35.562096 35.562096 0 0 0 157.44336 124.05469 A 35.562096 35.562096 0 0 0 193.00586 88.492188 A 35.562096 35.562096 0 0 0 190.28711 74.855469 A 19.021585 19.021585 0 0 1 171.50195 90.972656 A 19.021585 19.021585 0 0 1 152.48047 71.951172 A 19.021585 19.021585 0 0 1 165.625 53.892578 A 35.562096 35.562096 0 0 0 157.44336 52.929688 z " /><circle
   style="opacity:1;fill:none;fill-opacity:1;stroke:#6e2663;stroke-width:4;stroke-linecap:round;stroke-linejoin:round;stroke-dashoffset:459.891;stop-color:#000000;stroke-opacity:1;stroke-dasharray:none"
   id="circle8630"
   cx="150"
   cy="97.589005"
   r="47.96748" /><path
   style="color:#000000;clip-rule:nonzero;fill:#3d1537;fill-rule:nonzero;stroke-linecap:round;-inkscape-stroke:none"
   d="m 50.337942,87.211727 c -2.009367,9.486985 -0.516166,18.473403 3.773025,26.094793 5.933231,10.54266 16.949387,18.43976 30.68164,22.50782 1.588921,0.4705 3.258371,-0.43637 3.728516,-2.0254 0.470649,-1.58834 -0.435204,-3.25752 -2.023438,-3.72851 -12.540082,-3.71488 -22.160572,-10.8151 -27.158203,-19.69531 -3.730217,-6.62816 -5.033127,-14.267318 -2.995013,-22.709228 z"
   id="path8851"
   sodipodi:nodetypes="cscccscc" /><path
   style="opacity:1;fill:none;fill-opacity:1;stroke:#3d1537;stroke-width:6;stroke-linecap:round;stroke-linejoin:round;stroke-dasharray:none;stroke-dashoffset:0;stroke-opacity:1;stop-color:#000000"
   d="M 32.122183,96.550002 C 46.742066,82.374207 61.36195,81.886549 75.981833,98.889182"
   id="path8916"
   sodipodi:nodetypes="cc" /><path
   id="path9401"
   style="color:#000000;clip-rule:nonzero;fill:#6e2663;fill-rule:nonzero;stroke-linecap:round;-inkscape-stroke:none"
   d="M 94.087891 38.044922 C 93.929875 38.583487 93.762256 39.11846 93.607422 39.658203 A 1.5 1.5 0 0 0 94.636719 41.513672 A 1.5 1.5 0 0 0 96.492188 40.486328 C 96.726114 39.670875 96.977659 38.859061 97.21875 38.044922 L 94.087891 38.044922 z M 102.07031 38.044922 C 84.771308 96.762146 93.013935 131.1619 107.56445 159.09961 C 108.85867 159.40762 110.15141 159.73955 111.43555 160.00195 C 96.270949 131.9632 87.234946 98.360093 105.19922 38.044922 L 102.07031 38.044922 z M 91.613281 53.126953 A 1.5 1.5 0 0 0 89.814453 54.25 C 89.360939 56.21007 88.929847 58.176282 88.525391 60.148438 A 1.5 1.5 0 0 0 89.693359 61.917969 A 1.5 1.5 0 0 0 91.464844 60.75 C 91.863988 58.803747 92.288169 56.862706 92.736328 54.925781 A 1.5 1.5 0 0 0 91.613281 53.126953 z M 87.673828 73.746094 A 1.5 1.5 0 0 0 85.986328 75.033203 C 85.717725 77.031385 85.482325 79.033505 85.28125 81.041016 A 1.5 1.5 0 0 0 86.625 82.683594 A 1.5 1.5 0 0 0 88.265625 81.341797 C 88.463193 79.369302 88.696653 77.397702 88.960938 75.431641 A 1.5 1.5 0 0 0 87.673828 73.746094 z M 85.947266 94.662109 A 1.5 1.5 0 0 0 84.431641 96.148438 C 84.412401 98.169343 84.436136 100.19012 84.503906 102.21094 A 1.5 1.5 0 0 0 86.052734 103.66016 A 1.5 1.5 0 0 0 87.501953 102.11133 C 87.435673 100.13447 87.412801 98.154587 87.431641 96.175781 A 1.5 1.5 0 0 0 85.947266 94.662109 z M 87.119141 115.60938 A 1.5 1.5 0 0 0 85.853516 117.3125 C 86.150112 119.31592 86.497294 121.31302 86.894531 123.29883 A 1.5 1.5 0 0 0 88.660156 124.47461 A 1.5 1.5 0 0 0 89.837891 122.71094 C 89.450531 120.77452 89.111455 118.82642 88.822266 116.87305 A 1.5 1.5 0 0 0 87.119141 115.60938 z M 91.738281 136.07031 A 1.5 1.5 0 0 0 90.789062 137.9668 C 91.427813 139.88861 92.114883 141.79288 92.845703 143.67969 A 1.5 1.5 0 0 0 94.785156 144.53711 A 1.5 1.5 0 0 0 95.642578 142.5957 C 94.928691 140.75261 94.257598 138.89348 93.634766 137.01953 A 1.5 1.5 0 0 0 91.738281 136.07031 z M 100.86328 155.38086 A 1.5 1.5 0 0 0 99.71875 155.47266 A 1.5 1.5 0 0 0 99.007812 156.76562 C 100.22913 157.1591 101.44592 157.51283 102.66406 157.85938 C 102.35904 157.27944 102.0368 156.7082 101.73828 156.125 A 1.5 1.5 0 0 0 100.86328 155.38086 z " /><circle
   style="opacity:1;fill:#5a017c;fill-opacity:1;stroke:#3d1537;stroke-width:3.731;stroke-linecap:round;stroke-linejoin:round;stroke-dasharray:7.462, 11.193;stroke-dashoffset:0;stroke-opacity:1;stop-color:#000000"
   id="path9467"
   cx="252.44952"
   cy="75.46608"
   r="20.055368" /><path
   style="opacity:1;fill:none;fill-opacity:1;stroke:#3d1537;stroke-width:4;stroke-linecap:round;stroke-linejoin:round;stroke-dasharray:none;stroke-dashoffset:0;stroke-opacity:1;stop-color:#000000"
   d="m 239.25992,77.851941 c -3.10061,-0.973976 -7.43912,-1.262909 -12.96408,2.683298"
   id="path10811"
   sodipodi:nodetypes="cc" /><path
   style="opacity:1;fill:none;fill-opacity:1;stroke:#3d1537;stroke-width:4;stroke-linecap:round;stroke-linejoin:round;stroke-dasharray:none;stroke-dashoffset:0;stroke-opacity:1;stop-color:#000000"
   d="m 276.48191,83.908781 c -1.34255,-2.959726 -4.02119,-6.384785 -10.64654,-7.868834"
   id="path10813"
   sodipodi:nodetypes="cc" /><path
   style="opacity:1;fill:none;fill-opacity:1;stroke:#3d1537;stroke-width:3.72119;stroke-linecap:round;stroke-linejoin:round;stroke-dasharray:none;stroke-dashoffset:0;stroke-opacity:1;stop-color:#000000"
   d="m 256.82604,61.440531 c 0.67014,-2.593112 0.47193,-6.126186 -4.34391,-10.242521"
   id="path10809"
   sodipodi:nodetypes="cc" /><circle
   style="opacity:1;fill:#5a017c;fill-opacity:1;stroke:#3d1537;stroke-width:3.7;stroke-linecap:round;stroke-linejoin:round;stroke-dasharray:7.4000001, 18.50000024;stroke-dashoffset:0;stroke-opacity:1;stop-color:#000000"
   id="circle10953"
   cx="222.92554"
   cy="111.69058"
   r="10.825068" /><path
   id="path13260"
   style="color:#000000;fill:#6e2663;paint-order:markers stroke fill"
   d="m 51.570312,38.044922 -23.875,1.044922 C 11.804376,42.986828 0,57.336896 0,74.423828 V 262.07227 c 0,20.07892 16.301939,36.38085 36.380859,36.38085 H 132.8125 v -3 H 36.380859 C 17.925734,295.45312 3,280.52739 3,262.07227 V 74.423828 C 3,58.792661 13.744716,45.716219 28.210938,42.070312 l 23.425781,-1.02539 h 96.175781 4.375 96.17578 l 23.42578,1.02539 C 286.25529,45.716219 297,58.79266 297,74.423828 V 262.07227 c 0,14.61146 -9.37161,26.97687 -22.42773,31.50781 v 3.18554 C 289.30476,292.11257 300,278.33432 300,262.07227 V 74.423828 c 0,-17.086932 -11.80438,-31.437 -27.69531,-35.333984 l -23.875,-1.044922 h -96.24219 -4.375 z m -26.83789,79.167968 c -2.145298,0.0892 -4.127937,1.07392 -5.53125,2.47656 -1.403315,1.40265 -2.337002,3.1487 -3.050781,5.0625 -1.427561,3.82765 -1.999013,8.46177 -2.25,13.24219 -0.501978,9.56085 0.421875,19.98876 0.421875,22.85938 v 102.3789 c 0,9.35062 7.649376,17 17,17 H 132.8125 v -3 H 31.322266 c -7.726972,0 -14,-6.27304 -14,-14 v -102.3789 c 0,-6.81263 -3.649509,-40.17725 7.535156,-40.64258 12.439006,-0.51751 40.678866,20.96422 59.064453,30.36718 23.408805,11.972 48.271465,12.58189 66.015625,12.58204 0.0197,0 0.0427,-0.002 0.0625,-0.002 0.0198,9e-5 0.0428,0.002 0.0625,0.002 17.74416,-1.5e-4 42.60684,-0.61004 66.01562,-12.58204 18.38561,-9.40296 46.62545,-30.88469 59.06446,-30.36718 11.18466,0.46533 7.53515,33.82995 7.53515,40.64258 v 102.3789 c 0,5.61372 -3.33139,10.42531 -8.10546,12.65625 v 3.22266 c 6.45572,-2.41599 11.10546,-8.60652 11.10546,-15.87891 v -102.3789 c 0,-2.87062 0.92386,-13.29853 0.42188,-22.85938 -0.25099,-4.78042 -0.82244,-9.41454 -2.25,-13.24219 -0.71378,-1.9138 -1.64747,-3.65985 -3.05078,-5.0625 -1.40332,-1.40264 -3.38595,-2.38731 -5.53125,-2.47656 -4.0181,-0.16717 -8.36531,1.29058 -13.23828,3.46289 -4.873,2.17231 -10.21768,5.15177 -15.72071,8.41992 -11.00603,6.53636 -22.6731,14.24725 -31.5957,18.81055 -22.67886,11.59868 -46.97496,12.25376 -64.65039,12.25391 0.17421,0 0.15331,-9.6e-4 -0.0488,-0.002 -0.005,-1e-5 -0.009,-1e-5 -0.0137,0 -0.22182,0 -0.24585,0.002 -0.0625,0.002 -17.67543,-1.5e-4 -41.97153,-0.65523 -64.650391,-12.25391 -8.922594,-4.5633 -20.589676,-12.27419 -31.595703,-18.81055 -5.503012,-3.26815 -10.847719,-6.24761 -15.720703,-8.41992 -4.872984,-2.17231 -9.220189,-3.63006 -13.238281,-3.46289 z"
   sodipodi:nodetypes="ccsssccsssccccccssccssccccccsssssccccsssssccssssccssssssscscsccsssc" /><path
   style="color:#000000;clip-rule:nonzero;fill:#bf5887;fill-rule:nonzero;stroke-linecap:round;paint-order:markers stroke fill"
   d="M 71.795732,6.2812841 C 67.836426,5.06392 63.639921,7.2867826 62.422686,11.246128 59.3154,21.351674 60.730125,40.652923 70.369141,51.710937 c 2.721448,3.122912 7.459295,3.448213 10.582031,0.726563 3.122912,-2.721448 3.448212,-7.459295 0.726562,-10.582031 -7.163281,-8.217818 -6.78242,-20.141265 -4.919111,-26.201138 1.21752,-3.95873 -1.00433,-8.1549748 -4.962891,-9.3730469 z"
   id="path13599"
   sodipodi:nodetypes="ccccccc" /><path
   style="color:#000000;clip-rule:nonzero;fill:#bf5887;fill-rule:nonzero;stroke-linecap:round;-inkscape-stroke:none;paint-order:markers stroke fill"
   d="m 215.76758,3.6269531 c -1.93216,0.1043709 -3.90663,0.5271789 -6.02149,1.4941407 -5.29944,2.423036 -7.85896,7.2132002 -9.28125,11.5527342 -1.42228,4.339534 -1.91149,8.828913 -2.10156,13.039063 -0.38014,8.420299 0.63281,15.951171 0.63281,15.951171 0.53773,4.107077 4.30308,7.00061 8.41016,6.462891 4.10794,-0.5377 7.00178,-4.304323 6.46289,-8.412109 0,0 -0.82836,-6.528697 -0.52148,-13.326172 0.15344,-3.398738 0.63873,-6.808479 1.37109,-9.042969 0.73236,-2.23449 1.50638,-2.694063 1.26562,-2.583984 -0.73668,0.336832 1.29459,-0.205014 3.25196,0.09961 1.95737,0.304623 4.01162,1.204788 4.58008,1.646484 18.17094,22.929847 29.67175,4.456467 9.20312,-11.8437495 -3.5984,-2.7959842 -7.57283,-4.0174684 -11.47656,-4.625 -1.95187,-0.3037658 -3.84323,-0.5164803 -5.77539,-0.4121104 z"
   id="path13944"
   sodipodi:nodetypes="sssscccssssccss" /><path
   id="path13998"
   style="opacity:1;fill:#bf5887;stroke-width:16.0893;stroke-linecap:round;paint-order:markers stroke fill;stop-color:#000000"
   d="m 87.719302,10.228413 c 0,6.620957 -8.640118,11.988304 -19.298244,11.988304 -10.658126,0 -20.115987,-8.130456 -17.543859,-15.4970759 1.865974,-5.3441825 6.300937,-0.877193 16.959064,-0.877193 10.658126,0 19.883039,-2.2349926 19.883039,4.3859649 z"
   sodipodi:nodetypes="ssass" /><path
   id="path14487"
   style="opacity:1;fill:#a84c89;fill-opacity:1;stroke:none;stroke-width:6;stroke-linecap:round;stroke-linejoin:round;stroke-dasharray:none;stroke-dashoffset:0;stroke-opacity:1;paint-order:markers stroke fill;stop-color:#000000"
   d="M 50.458984 9.1230469 C 50.370951 15.748242 58.915459 22.216797 68.421875 22.216797 C 78.250035 22.216797 86.354783 17.652334 87.558594 11.75 C 83.148666 12.638232 76.788301 16.835636 72.027344 16.910156 C 67.154012 16.986435 62.149117 16.214527 57.623047 14.40625 C 54.896187 13.316802 52.927598 10.662505 50.458984 9.1230469 z " /><path
   id="path14053"
   style="opacity:1;fill:#bf5887;stroke-width:16.0893;stroke-linecap:round;paint-order:markers stroke fill;stop-color:#000000"
   d="m 223.09602,35.708078 c -3.04146,-5.881034 2.16747,-14.617561 11.6345,-19.513586 9.46703,-4.896026 21.60281,-2.018844 22.70214,5.706075 0.79751,5.604121 -5.19383,3.673627 -14.66085,8.56965 -9.46703,4.896023 -16.63431,11.11889 -19.67579,5.237863 z"
   sodipodi:nodetypes="ssass" /><path
   style="opacity:1;fill:#a84c89;fill-opacity:1;stroke:none;stroke-width:6;stroke-linecap:round;stroke-linejoin:round;stroke-dasharray:none;stroke-dashoffset:0;stroke-opacity:1;paint-order:markers stroke fill;stop-color:#000000"
   d="m 229.88468,32.789261 c -2.06614,-1.438647 -0.62453,-5.460449 0.84364,-7.505714 3.01355,-4.198124 8.90484,-7.122576 14.04286,-6.568875 2.86975,0.309255 7.36301,2.409847 6.88163,5.255795 -0.71397,4.22106 -8.24586,2.370626 -12.20266,4.004893 -3.29917,1.362648 -6.63614,6.853592 -9.56547,4.813901 z"
   id="path14347"
   sodipodi:nodetypes="aaaaaa" /><path
   style="color:#000000;clip-rule:nonzero;fill:none;fill-rule:nonzero;stroke-linecap:round;-inkscape-stroke:none;paint-order:markers stroke fill"
   d="m 218.0332,15.050781 c -2.51764,-0.181285 -5.33419,0.257183 -8.49218,2.185547 -7.28437,4.448045 -8.21556,11.425958 -9.31836,16.888672 -1.10281,5.462714 -1.28321,10.257812 -1.28321,10.257812 a 7.5,7.5 0 0 0 7.18555,7.800782 7.5,7.5 0 0 0 7.80078,-7.1875 c 0,0 0.17233,-3.802507 1,-7.902344 0.56682,-2.807745 1.89236,-5.25327 2.39844,-6.390625 0.74508,0.0063 2.04479,-0.04316 3.33203,0.320312 2.58508,0.729934 4.84766,1.759766 4.84766,1.759766 a 7.5,7.5 0 0 0 9.95703,-3.65625 7.5,7.5 0 0 0 -3.65625,-9.957031 c 0,0 -3.14913,-1.47428 -7.07227,-2.582031 -1.96157,-0.553876 -4.18157,-1.355825 -6.69922,-1.53711 z"
   id="path14266" /></svg>
