<?xml version="1.0" encoding="UTF-8" standalone="no"?><!DOCTYPE svg PUBLIC "-//W3C//DTD SVG 1.1//EN" "http://www.w3.org/Graphics/SVG/1.1/DTD/svg11.dtd"><svg width="100%" height="100%" viewBox="0 0 300 345" version="1.1" xmlns="http://www.w3.org/2000/svg" xmlns:xlink="http://www.w3.org/1999/xlink" xml:space="preserve" xmlns:serif="http://www.serif.com/" style="fill-rule:evenodd;clip-rule:evenodd;stroke-linejoin:round;stroke-miterlimit:2;"><g id="Witch"><g><g><path d="M300,114.712l-211.546,-20.976l-88.454,21.311l0,-33.667c0,-20.079 16.301,-36.38 36.38,-36.38l227.24,0c20.079,0 36.38,16.301 36.38,36.38l0,33.332Z" style="fill:#31001b;"/><path d="M0,97.661l20.694,-4.665l3.737,-5.141l-1.918,8.046l-22.513,5.161l0,-3.401Zm42.071,-8.69c0.115,-0.071 0.264,-0.056 0.364,0.036c0.099,0.092 0.126,0.238 0.065,0.359c-0.532,0.981 -1.33,1.835 -2.366,2.434c-2.96,1.712 -6.754,0.698 -8.466,-2.263c-1.712,-2.961 -0.698,-6.754 2.263,-8.466c1.036,-0.599 2.174,-0.864 3.289,-0.829c0.132,0.008 0.243,0.102 0.272,0.231c0.03,0.129 -0.03,0.262 -0.146,0.326c-0.031,0.023 -0.064,0.042 -0.098,0.062c-2.254,1.303 -3.026,4.192 -1.723,6.446c1.304,2.255 4.192,3.027 6.447,1.723c0.033,-0.019 0.066,-0.039 0.099,-0.059Zm-31.546,-3.892c-2.705,0.988 -4.004,4.248 -2.899,7.277c-1.105,-3.029 -4.2,-4.685 -6.905,-3.698c2.705,-0.987 4.005,-4.248 2.899,-7.276c1.106,3.028 4.2,4.685 6.905,3.697Z" style="fill:#b4a279;"/><path d="M260.264,45l3.356,0c20.079,0 36.38,16.301 36.38,36.38l0,33.332l-211.546,-20.976l-88.454,21.311l0,-10.333l260.264,-59.714Z" style="fill:#b4a279;"/><path d="M300,112.82l0,1.892l-211.546,-20.976l-88.454,21.311l0,-1.893l88.454,-21.311l211.546,20.977Z" style="fill:#967f48;"/><path d="M88.454,93.736l-88.454,-1.38l0,-10.976l0.224,3.607l88.23,8.749Z" style="fill:#31001b;fill-opacity:0.25;"/></g><g><path d="M300,114.712l-300,-29.747l0,-3.585c0,-20.079 16.301,-36.38 36.38,-36.38c37.876,-0 75.81,-3.017 113.589,-5.729c37.019,2.456 73.184,5.729 113.651,5.729c20.079,-0 36.38,16.301 36.38,36.38l0,33.332Z" style="fill:#600f3b;"/><path d="M6.244,61.005l61.466,6.182l8.948,-2.671l-8.511,6.316l-63.827,-6.651c0.588,-1.093 1.231,-2.153 1.924,-3.176Zm293.756,34.177l-66.477,-6.927l-2.879,-7.754l4.332,4.65l65.024,6.539l-0,3.492Zm-2.536,-27.163c-2.313,0.599 -4.04,2.921 -4.04,5.691c0,-3.223 -2.338,-5.841 -5.218,-5.841c2.88,0 5.218,-2.617 5.218,-5.84c0,2.715 1.66,5.001 3.905,5.653c0.046,0.112 0.091,0.225 0.135,0.337Zm-25.797,-22.124c0.252,2.961 2.484,5.281 5.196,5.281c-2.881,0 -5.219,2.617 -5.219,5.841c-0,-3.224 -2.339,-5.841 -5.219,-5.841c2.715,0 4.948,-2.325 5.196,-5.292c0.015,0.004 0.031,0.007 0.046,0.011Zm-64.435,-0.895c0.314,2.888 2.515,5.128 5.18,5.128c-2.88,-0 -5.219,2.617 -5.219,5.841c0,-3.224 -2.338,-5.841 -5.219,-5.841c2.665,-0 4.866,-2.24 5.181,-5.128l0.077,-0Zm-54.604,-0c0.954,1.169 2.327,1.902 3.852,1.902c-2.88,0 -5.219,2.617 -5.219,5.841c0,-3.224 -2.338,-5.841 -5.219,-5.841c1.525,0 2.898,-0.733 3.853,-1.902c0.82,-1.004 1.366,-1.688 1.366,-3.499c0,1.811 0.622,2.588 1.367,3.499Zm-135.398,5.449c0.955,1.371 2.445,2.254 4.118,2.254c-2.88,0 -5.219,2.617 -5.219,5.841c0,-2.287 -1.177,-4.269 -2.89,-5.228c1.262,-1.042 2.595,-2 3.991,-2.867Zm111.37,8.377c-2.88,-0 -5.219,2.617 -5.219,5.841c0,-3.224 -2.338,-5.841 -5.218,-5.841c2.88,-0 5.218,-2.617 5.218,-5.841c0,3.224 2.339,5.841 5.219,5.841Zm56.451,4.032c-2.881,0 -5.219,2.617 -5.219,5.841c-0,-3.224 -2.338,-5.841 -5.219,-5.841c2.881,0 5.219,-2.617 5.219,-5.841c-0,3.224 2.338,5.841 5.219,5.841Zm60.771,3.629c-2.881,0 -5.219,2.617 -5.219,5.841c-0,-3.224 -2.339,-5.841 -5.219,-5.841c2.88,0 5.219,-2.617 5.219,-5.841c-0,3.224 2.338,5.841 5.219,5.841Zm-154.66,7.7c0.136,-0.004 0.257,0.083 0.298,0.213c0.04,0.129 -0.011,0.27 -0.124,0.344c-0.951,0.583 -2.069,0.923 -3.266,0.923c-3.42,-0 -6.197,-2.777 -6.197,-6.197c0,-3.42 2.777,-6.197 6.197,-6.197c1.197,0 2.315,0.34 3.262,0.929c0.111,0.073 0.16,0.21 0.12,0.336c-0.039,0.127 -0.157,0.212 -0.289,0.209c-0.039,0.005 -0.077,0.004 -0.116,0.004c-2.604,0 -4.718,2.115 -4.718,4.719c-0,2.604 2.114,4.718 4.718,4.718c0.039,0 0.077,-0 0.115,-0.001Zm131.904,12.991c0.136,-0.003 0.257,0.084 0.297,0.213c0.041,0.13 -0.01,0.27 -0.123,0.344c-0.952,0.583 -2.07,0.923 -3.266,0.923c-3.42,0 -6.197,-2.776 -6.197,-6.197c0,-3.42 2.777,-6.196 6.197,-6.196c1.196,-0 2.314,0.34 3.262,0.928c0.111,0.073 0.16,0.21 0.12,0.337c-0.039,0.126 -0.157,0.211 -0.29,0.208c-0.038,0.005 -0.077,0.005 -0.115,0.005c-2.604,-0 -4.719,2.114 -4.719,4.718c0,2.605 2.115,4.719 4.719,4.719c0.038,-0 0.077,-0.001 0.115,-0.002Zm-156.347,-30.99c-2.88,-0 -5.219,2.617 -5.219,5.841c0,-3.224 -2.338,-5.841 -5.219,-5.841c2.881,-0 5.219,-2.618 5.219,-5.841c0,3.223 2.339,5.841 5.219,5.841Zm141.659,22.67l-8.512,6.316l-96.62,-10.068l-2.88,-7.754l4.332,4.65l94.731,9.527l8.949,-2.671Z" style="fill:#b4a279;"/><path d="M300,99.135l0,15.577l-300,-29.747l0,-3.585c0,-3.822 0.591,-7.507 1.685,-10.969l298.315,28.724Z" style="fill:#b4a279;"/><path d="M300,112.204l0,2.508l-300,-29.747l0,-1.647l300,28.886Z" style="fill:#967f48;"/></g><path d="M295.672,64.167c-0.093,-0.11 -0.187,-0.22 -0.282,-0.329c-3.569,-4.099 -14.743,-9.515 -20.7,-9.569c-4.914,2.768 -15.712,6.89 -20.542,7.825c-0.621,0.12 -1.245,0.229 -1.872,0.327c1.298,3.123 2.116,6.572 2.531,10.568c3.571,0.3 6.38,3.297 6.38,6.945c0,2.878 -1.748,5.351 -4.24,6.414c0.235,3.681 -0.136,8.15 -0.081,12.389c0.38,0.289 0.687,0.677 0.878,1.136c0.001,0.005 0.003,0.009 0.005,0.013c1.657,4.147 4.533,7.466 8.084,9.253c0.003,0.002 0.007,0.004 0.011,0.006c0.907,0.471 1.476,1.408 1.476,2.43c-0,1.023 -0.569,1.96 -1.477,2.43c-0.003,0.002 -0.007,0.004 -0.011,0.006c-3.55,1.788 -6.426,5.107 -8.083,9.254c-0.001,0.004 -0.003,0.009 -0.005,0.013c-0.427,1.027 -1.43,1.696 -2.542,1.696c-1.112,-0 -2.115,-0.669 -2.542,-1.696c-0.002,-0.005 -0.003,-0.009 -0.005,-0.013c-1.658,-4.147 -4.534,-7.466 -8.084,-9.253c-0.004,-0.002 -0.007,-0.004 -0.011,-0.006c-0.907,-0.471 -1.476,-1.408 -1.476,-2.43c-0,-1.023 0.569,-1.96 1.476,-2.431c0.004,-0.001 0.008,-0.003 0.011,-0.005c3.55,-1.788 6.426,-5.107 8.083,-9.254c0.002,-0.004 0.004,-0.009 0.006,-0.013c0.163,-0.393 0.411,-0.734 0.717,-1.004c-0.043,-4.106 0.299,-8.414 0.096,-12.005c-3.497,-0.372 -6.225,-3.335 -6.225,-6.93c-0,-2.824 1.683,-5.259 4.101,-6.353c-0.409,-4.112 -1.276,-7.588 -2.713,-10.714c-17.801,1.595 -38.029,-4.817 -64.898,-11.539c-12.52,-3.132 -25.474,-1.856 -37.011,-2.05c-21.793,-0.367 -45.654,16.9 -59.668,17.209c-9.53,0.21 -19.15,-1.094 -29.671,-3.414c-1.912,-0.422 -11.192,-2.667 -19.52,-5.294c-5.72,-1.804 -10.99,-3.788 -13.117,-5.485c-8.008,1.885 -14.998,6.419 -19.994,12.624c-0.781,0.97 -1.512,1.98 -2.192,3.027c5.349,-13.437 18.481,-22.945 33.815,-22.945l227.24,-0c13.853,-0 25.909,7.76 32.052,19.167Z" style="fill-opacity:0.25;"/><g><path d="M215.484,33.484c0.823,0.088 1.42,0.828 1.332,1.651c-0.088,0.823 -0.828,1.42 -1.651,1.332c-5.398,-0.578 -10.897,-1.056 -16.509,-1.42c-0.826,-0.053 -1.453,-0.767 -1.4,-1.594c0.054,-0.826 0.768,-1.453 1.594,-1.399c5.655,0.367 11.195,0.847 16.634,1.43Z" style="fill:#967f48;"/><path d="M215.511,33.235c0.96,0.103 1.656,0.966 1.554,1.926c-0.103,0.961 -0.966,1.657 -1.927,1.554c-5.394,-0.577 -10.89,-1.054 -16.498,-1.418c-0.964,-0.063 -1.696,-0.896 -1.633,-1.86c0.063,-0.964 0.896,-1.695 1.86,-1.633c5.658,0.367 11.201,0.849 16.644,1.431Zm-0.053,0.497c-5.436,-0.582 -10.973,-1.062 -16.624,-1.429c-0.688,-0.045 -1.283,0.478 -1.328,1.167c-0.045,0.688 0.478,1.283 1.166,1.328c5.616,0.364 11.118,0.842 16.52,1.42c0.686,0.073 1.302,-0.424 1.376,-1.11c0.073,-0.686 -0.424,-1.302 -1.11,-1.376Z" style="fill:#624705;"/><path d="M28.024,45.966c-10.138,2.386 -18.646,9.019 -23.54,17.914c-5.421,-5.386 -4.484,-17.57 -4.484,-17.57c-0,-6.852 10.851,-7.032 17.639,-6.097c14.723,2.03 28.085,4.691 38.615,1.943c8.634,-2.252 16.697,-4.96 24.252,-8.075c4.32,-5.997 8.804,-11.912 13.556,-17.694c-3.119,-2.105 -4.883,-4.792 -4.982,-8.192c-0.107,-3.678 6.54,-3.114 13.243,-2.181c9.946,1.384 13.135,-6.014 28.954,-6.014l26.488,-0c7.503,-0 13.469,2.928 18.49,6.962c12.077,9.705 21.129,17.998 29.044,28.867c19.386,7.539 44.599,10.619 70.22,8.209c9.094,-0.855 14.311,-3.337 19.384,-2.621c2.431,0.343 5.097,2.859 5.097,5.452c0,-0 -0.074,11.002 -5.603,15.116c-3.912,-6.191 -9.64,-11.123 -16.433,-14.044c-4.915,2.768 -15.712,6.89 -20.543,7.825c-19.153,3.706 -40.729,-3.341 -70.41,-10.766c-12.52,-3.132 -25.474,-1.856 -37.011,-2.051c-21.793,-0.366 -45.654,16.901 -59.668,17.21c-9.53,0.21 -19.15,-1.094 -29.671,-3.414c-3.224,-0.712 -27.411,-6.61 -32.637,-10.779Z" style="fill:#420088;"/><path d="M99.257,28.245c-4.11,4.433 -8.135,7.916 -13.197,11.562c-12.333,8.884 -28.31,10.863 -44.919,11.644c-5.719,-1.804 -10.99,-3.788 -13.117,-5.485c-10.138,2.386 -18.646,9.019 -23.54,17.914c-5.421,-5.386 -4.484,-17.57 -4.484,-17.57c0,-6.852 10.851,-7.032 17.639,-6.097c14.723,2.03 28.085,4.691 38.615,1.943c8.634,-2.252 16.697,-4.96 24.252,-8.075c4.32,-5.997 8.804,-11.912 13.556,-17.694c-3.119,-2.105 -4.883,-4.792 -4.982,-8.192c-0.021,-0.721 0.218,-1.279 0.665,-1.703c-0.305,1.203 0.879,2.624 1.782,4.124c1.355,2.252 4.083,3.176 7.542,2.169c-0.861,3.41 -1.306,6.725 -1.068,9.882c17.524,-3.178 46.157,-2.947 84.218,0.177c-3.539,-7.806 -7.105,-14.855 -11.59,-19.623c2.007,1.061 3.874,2.334 5.626,3.741c12.077,9.705 21.129,17.998 29.044,28.867c17.111,6.654 38.762,9.835 61.226,8.833c-18.674,2.637 -37.265,1.581 -53.013,-2.371c-9.645,-2.42 -17.221,-7.396 -26.395,-8.466c-0.641,-1.416 -1.269,-2.83 -1.892,-4.234c-28.534,-2.639 -57.189,-3.1 -85.968,-1.346Zm11.154,6.177l0.075,10.408c-5.74,1.76 -11.414,6.221 -17.571,5.279c6.672,-2.964 10.293,-13.048 17.496,-15.687Z" style="fill:#2e0060;"/><path d="M294.903,41.417c2.431,0.343 5.097,2.859 5.097,5.452c0,-0 -0.074,11.002 -5.603,15.116c-3.912,-6.191 -9.64,-11.123 -16.433,-14.044c5.535,-2.638 10.115,-7.347 16.939,-6.524Z" style="fill:#2e0060;"/><path d="M286.465,43.119c2.54,-1.26 5.243,-2.087 8.438,-1.702c2.431,0.343 5.097,2.859 5.097,5.452c0,-0 -0.074,11.002 -5.603,15.116c-0.997,-1.578 -2.111,-3.073 -3.331,-4.475c4.945,-6.004 2.599,-13.69 -4.601,-14.391Z" style="fill:#7e30d1;"/><path d="M28.024,45.966c-10.138,2.386 -18.646,9.019 -23.54,17.914c-5.421,-5.386 -4.484,-17.57 -4.484,-17.57c-0,-6.852 10.851,-7.032 17.639,-6.097c3.412,1.231 6.743,3.144 10.385,5.753Z" style="fill:#2e0060;"/><path d="M8.03,58.59c-1.329,1.651 -2.518,3.421 -3.546,5.29c-5.421,-5.386 -4.484,-17.57 -4.484,-17.57c0,-6.852 10.851,-7.032 17.639,-6.097c-10.231,0.678 -15.579,7.547 -9.609,18.377Z" style="fill:#7e30d1;"/><path d="M277.964,47.941c-4.915,2.768 -15.712,6.89 -20.543,7.825c-19.153,3.706 -40.729,-3.341 -70.41,-10.766c-12.52,-3.132 -25.474,-1.856 -37.011,-2.051c-21.793,-0.366 -45.654,16.901 -59.668,17.21c-9.53,0.21 -19.15,-1.094 -29.671,-3.414c-3.224,-0.712 -27.411,-6.61 -32.637,-10.779c-3.642,-2.609 -6.973,-4.522 -10.385,-5.753c6.775,0.934 13.261,2.002 19.316,2.615c10.748,2.954 21.68,5.982 33.239,9.261c12.928,3.667 22.864,2.877 32.23,-1.077c21.596,-9.117 38.046,-15.353 58.495,-15.183c17.965,0.15 31.816,4.692 50.458,10.377c18.157,5.538 31.325,6.493 46.813,3.977c6.693,-1.086 12.34,-3.81 18.187,-6.231c8.569,-0.924 13.615,-3.228 18.526,-2.535c-6.824,-0.823 -11.404,3.886 -16.939,6.524Z" style="fill:#8f3ee5;"/><path d="M290.535,41.461c1.521,-0.194 2.95,-0.244 4.368,-0.044c-6.824,-0.823 -11.404,3.886 -16.939,6.524c-4.915,2.768 -15.712,6.89 -20.543,7.825c-19.153,3.706 -40.729,-3.341 -70.41,-10.766c-12.52,-3.132 -25.474,-1.856 -37.011,-2.051c-21.793,-0.366 -45.654,16.901 -59.668,17.21c-9.53,0.21 -19.15,-1.094 -29.671,-3.414c-3.224,-0.712 -27.411,-6.61 -32.637,-10.779c-3.642,-2.609 -6.973,-4.522 -10.385,-5.753c0.624,0.086 1.245,0.174 1.864,0.261c3.97,1.793 7.3,3.859 11.328,5.856c7.711,3.823 17.421,6.178 30.826,9.399c13.981,3.359 25.982,4.834 34.494,2.381c10.804,-3.113 23.115,-8.971 35.202,-13.321c7.412,-2.669 14.604,-3.474 24.004,-3.09c5.534,0.227 10.02,0.092 16.99,0c5.73,-0.074 11.712,1.524 17.504,2.961c10.792,2.676 23.4,6.289 35.717,8.752c12.942,2.588 23.313,2.706 32.564,1.03c16.028,-2.906 23.707,-10.861 32.403,-12.981Z" style="fill:#aa66f3;"/><path d="M80.475,33.628c-0.019,-0.073 -0.021,-0.148 0.031,-0.228c-0.014,0.07 -0.025,0.149 -0.031,0.228Zm0.031,-0.228c1.038,-1.6 2.209,-3.182 3.41,-4.791c9.878,-3.833 22.096,-5.597 34.871,-5.499c23.05,0.176 47.076,-0.366 69.183,3.003c4.982,0.759 9.737,2.046 13.364,3.998c1.403,1.679 2.822,3.14 4.151,4.94c-4.824,-1.321 -26.811,-3.612 -55.485,-4.641c-35.857,-1.287 -66.949,1.937 -69.494,2.99Zm124.979,1.651c0.03,0.041 0.043,0.083 0.044,0.128c-0.008,-0.043 -0.023,-0.086 -0.044,-0.128Z" style="fill:#833d0f;"/><path d="M81.839,31.444c0.668,-0.942 1.367,-1.884 2.077,-2.835c9.878,-3.833 22.096,-5.597 34.871,-5.499c23.05,0.176 47.076,-0.366 69.183,3.003c4.982,0.759 9.737,2.046 13.364,3.998c1.403,1.679 2.822,3.14 4.151,4.94c-0.024,-0.006 -0.048,-0.013 -0.072,-0.019c-1.039,-1.245 -2.113,-2.378 -3.178,-3.634c-3.683,-1.952 -8.512,-3.239 -13.571,-3.998c-22.448,-3.369 -46.845,-2.827 -70.251,-3.003c-12.972,-0.098 -25.379,1.666 -35.409,5.499c-0.393,0.518 -0.782,1.034 -1.165,1.548Zm123.646,3.607c0.028,0.039 0.041,0.079 0.044,0.121c-0.001,-0.001 -0.001,-0.002 -0.002,-0.002c-0.008,-0.04 -0.022,-0.08 -0.042,-0.119Z" style="fill:#bb6933;"/><path d="M205.485,35.051c0.137,0.27 -0.017,0.567 -0.186,0.778c-42.105,-3.375 -88.811,-5.903 -124.793,-1.748c-0.053,-0.137 -0.046,-0.453 0,-0.681c2.545,-1.053 33.637,-4.277 69.494,-2.99c28.674,1.029 50.661,3.32 55.485,4.641" style="fill:#3f1900;"/><path d="M250.539,56.645c-0.438,-0.729 -0.913,-1.442 -1.427,-2.143c-1.02,0.586 -2.203,0.921 -3.463,0.921c-3.846,-0 -6.969,-3.123 -6.969,-6.97c-0,-1.12 0.265,-2.179 0.735,-3.117c-1.159,-0.73 -2.344,-1.378 -3.553,-1.948c5.088,0.673 10.328,1.117 15.667,1.323c0.69,1.081 1.09,2.365 1.09,3.742c0,1.305 -0.359,2.527 -0.985,3.571c1.038,1.366 1.942,2.771 2.723,4.242c-1.261,0.168 -2.533,0.294 -3.818,0.379Zm-25.998,-15.185c-1.05,1.763 -2.975,2.945 -5.174,2.945c-3.034,0 -5.546,-2.25 -5.958,-5.171c-2.668,-0.274 -9.527,-3.493 -10.354,-4.436c0.796,0.06 1.589,0.123 2.381,0.187c0.016,0.022 0.033,0.044 0.049,0.066c0.028,0.039 0.041,0.079 0.044,0.121c-0,0.002 -0,0.005 -0,0.007c0.045,0.233 -0.088,0.472 -0.23,0.65c5.922,2.303 12.387,4.19 19.242,5.631Zm-25.325,-13.252c-0.863,0.479 -1.857,0.752 -2.914,0.752c-3.321,-0 -6.017,-2.696 -6.017,-6.017c0,-0.092 0.002,-0.182 0.006,-0.273c-4.825,-1.771 -10.967,-3.379 -15.96,-4.024c-0.927,2.13 -3.051,3.621 -5.521,3.621c-2.78,0 -5.123,-1.89 -5.812,-4.454c-7.572,-0.783 -14.744,-0.684 -22.163,0.333c-0.208,3.133 -2.819,5.614 -6.004,5.614c-2.421,0 -4.509,-1.432 -5.464,-3.495c-7.78,2.207 -13.662,4.879 -20.381,6.097c-0.366,2.971 -2.902,5.275 -5.972,5.275c-2.656,0 -4.911,-1.724 -5.709,-4.112c-4.169,1.007 -6.743,2.447 -9.106,3.713c-1.946,1.043 -3.768,1.976 -6.066,2.553c-0.252,2.718 -2.541,4.848 -5.324,4.848c-1.514,-0 -2.882,-0.631 -3.856,-1.643c2.573,-0.928 5.09,-1.9 7.553,-2.915c-0.037,-0.095 -0.045,-0.275 -0.031,-0.453c-0.019,-0.073 -0.021,-0.148 0.031,-0.228c0.424,-0.654 0.871,-1.305 1.333,-1.956c0.375,-0.53 0.76,-1.059 1.152,-1.59c1.252,-0.473 2.375,-1.068 3.555,-1.701c2.716,-1.455 5.694,-3.102 10.686,-4.204c0.725,-2.509 3.04,-4.346 5.782,-4.346c2.349,-0 4.385,1.349 5.376,3.313c6.756,-1.209 12.625,-3.952 20.503,-6.153c0.469,-2.856 2.951,-5.037 5.938,-5.037c2.221,-0 4.162,1.205 5.204,2.997c7.735,-1.087 15.201,-1.213 23.079,-0.417c0.809,-2.368 3.055,-4.073 5.696,-4.073c2.952,-0 5.411,2.13 5.92,4.937c4.814,0.622 10.64,2.088 15.486,3.76c3.215,3.015 6.193,6.061 9,9.278Zm-133.349,11.181c0.334,0.5 0.585,1.06 0.736,1.66c1.95,0.494 3.72,1.343 5.438,2.276c1.487,0.807 2.928,1.685 4.45,2.363c1.024,-2.344 3.364,-3.985 6.084,-3.985c3.662,0 6.635,2.974 6.635,6.635c-0,3.662 -2.973,6.635 -6.635,6.635c-3.347,0 -6.118,-2.483 -6.57,-5.706c-1.948,-0.768 -3.766,-1.852 -5.634,-2.866c-1.305,-0.709 -2.639,-1.384 -4.095,-1.818c-0.846,1.839 -2.705,3.117 -4.861,3.117c-2.951,0 -5.348,-2.396 -5.348,-5.348c0,-0.05 0.001,-0.099 0.002,-0.148c0.062,-0.016 0.123,-0.032 0.185,-0.048c3.285,-0.857 6.489,-1.78 9.613,-2.767Z" style="fill:#15002c;fill-opacity:0.5;"/><g><path d="M61.415,34.304c2.952,0 5.348,2.397 5.348,5.348c-0,2.952 -2.396,5.348 -5.348,5.348c-2.951,0 -5.348,-2.396 -5.348,-5.348c0,-2.951 2.397,-5.348 5.348,-5.348Zm0,0.701c-2.565,-0 -4.648,2.082 -4.648,4.647c0,2.565 2.083,4.648 4.648,4.648c2.565,-0 4.648,-2.083 4.648,-4.648c-0,-2.565 -2.083,-4.647 -4.648,-4.647Z" style="fill:#48000b;"/><circle cx="61.415" cy="39.652" r="4.648" style="fill:#7a0012;"/><circle cx="62.066" cy="39.138" r="3.094" style="fill:#971225;"/><circle cx="62.365" cy="38.706" r="1.613" style="fill:#ad2c3f;"/></g><path d="M63.314,41.152c-0.827,-0.021 -1.483,-0.709 -1.463,-1.536c0.021,-0.828 0.709,-1.484 1.536,-1.463c3.263,0.079 5.957,1.292 8.535,2.692c2.263,1.229 4.424,2.616 6.918,3.231c0.804,0.198 1.296,1.011 1.098,1.815c-0.199,0.804 -1.012,1.296 -1.816,1.098c-2.744,-0.677 -5.142,-2.156 -7.631,-3.508c-2.174,-1.18 -4.426,-2.262 -7.177,-2.329Z" style="fill:#967f48;"/><path d="M63.308,41.402c-0.965,-0.024 -1.73,-0.827 -1.707,-1.793c0.024,-0.965 0.827,-1.73 1.793,-1.706c3.305,0.08 6.035,1.304 8.647,2.722c2.245,1.219 4.385,2.598 6.859,3.208c0.938,0.231 1.511,1.18 1.28,2.118c-0.231,0.938 -1.18,1.512 -2.118,1.28c-2.764,-0.681 -5.182,-2.168 -7.691,-3.53c-2.14,-1.162 -4.355,-2.233 -7.063,-2.299Zm0.012,-0.5c2.793,0.068 5.082,1.161 7.29,2.36c2.47,1.341 4.849,2.813 7.572,3.484c0.67,0.165 1.348,-0.245 1.513,-0.915c0.165,-0.669 -0.245,-1.347 -0.915,-1.512c-2.515,-0.62 -4.695,-2.015 -6.977,-3.254c-2.545,-1.382 -5.202,-2.584 -8.422,-2.662c-0.689,-0.017 -1.263,0.529 -1.28,1.219c-0.017,0.689 0.53,1.263 1.219,1.28Z" style="fill:#624705;"/><g><path d="M82.575,39.003c3.662,0 6.635,2.973 6.635,6.635c-0,3.662 -2.973,6.635 -6.635,6.635c-3.662,0 -6.635,-2.973 -6.635,-6.635c-0,-3.662 2.973,-6.635 6.635,-6.635Zm-0,0.869c-3.183,0 -5.766,2.584 -5.766,5.766c-0,3.183 2.583,5.767 5.766,5.767c3.182,-0 5.766,-2.584 5.766,-5.767c0,-3.182 -2.584,-5.766 -5.766,-5.766Z" style="fill:#48000b;"/><circle cx="82.575" cy="45.638" r="5.766" style="fill:#7a0012;"/><circle cx="83.382" cy="45" r="3.839" style="fill:#971225;"/><circle cx="83.753" cy="44.465" r="2.002" style="fill:#ad2c3f;"/></g><g><path d="M76.809,25.243c2.951,0 5.348,2.396 5.348,5.348c-0,2.952 -2.397,5.348 -5.348,5.348c-2.952,-0 -5.348,-2.396 -5.348,-5.348c-0,-2.952 2.396,-5.348 5.348,-5.348Zm-0,0.7c-2.565,0 -4.648,2.083 -4.648,4.648c0,2.565 2.083,4.648 4.648,4.648c2.565,-0 4.647,-2.083 4.647,-4.648c0,-2.565 -2.082,-4.648 -4.647,-4.648Z" style="fill:#48000b;"/><circle cx="76.809" cy="30.591" r="4.648" style="fill:#7a0012;"/><circle cx="77.459" cy="30.076" r="3.094" style="fill:#971225;"/><circle cx="77.758" cy="29.645" r="1.613" style="fill:#ad2c3f;"/></g><path d="M97.468,21.454c0.809,-0.175 1.608,0.34 1.783,1.149c0.175,0.81 -0.341,1.608 -1.15,1.783c-4.707,1.017 -7.484,2.573 -10.02,3.932c-2.812,1.507 -5.359,2.783 -9.495,3.072c-0.826,0.058 -1.543,-0.565 -1.601,-1.391c-0.058,-0.826 0.566,-1.543 1.392,-1.601c3.615,-0.253 5.829,-1.407 8.287,-2.724c2.733,-1.465 5.732,-3.125 10.804,-4.22Z" style="fill:#967f48;"/><path d="M97.415,21.209c0.944,-0.203 1.876,0.397 2.08,1.342c0.204,0.944 -0.397,1.876 -1.341,2.08c-4.677,1.01 -7.435,2.557 -9.955,3.907c-2.841,1.523 -5.416,2.81 -9.596,3.102c-0.963,0.067 -1.8,-0.66 -1.868,-1.624c-0.067,-0.963 0.661,-1.8 1.624,-1.868c3.572,-0.249 5.759,-1.393 8.187,-2.695c2.749,-1.473 5.767,-3.142 10.869,-4.244Zm0.106,0.489c-5.042,1.089 -8.023,2.74 -10.739,4.196c-2.487,1.333 -4.729,2.497 -8.388,2.753c-0.688,0.048 -1.208,0.646 -1.16,1.334c0.048,0.689 0.646,1.208 1.334,1.16c4.093,-0.286 6.613,-1.553 9.395,-3.043c2.552,-1.368 5.348,-2.933 10.086,-3.956c0.674,-0.146 1.103,-0.812 0.957,-1.486c-0.145,-0.674 -0.811,-1.104 -1.485,-0.958Z" style="fill:#624705;"/><g><path d="M103.014,16.903c3.321,-0 6.017,2.696 6.017,6.017c0,3.321 -2.696,6.017 -6.017,6.017c-3.321,0 -6.017,-2.696 -6.017,-6.017c-0,-3.321 2.696,-6.017 6.017,-6.017Zm-0,0.788c-2.886,-0 -5.229,2.343 -5.229,5.229c-0,2.886 2.343,5.229 5.229,5.229c2.886,0 5.229,-2.343 5.229,-5.229c0,-2.886 -2.343,-5.229 -5.229,-5.229Z" style="fill:#48000b;"/><circle cx="103.014" cy="22.92" r="5.229" style="fill:#7a0012;"/><circle cx="103.746" cy="22.341" r="3.481" style="fill:#971225;"/><circle cx="104.082" cy="21.855" r="1.815" style="fill:#ad2c3f;"/></g><path d="M129.964,14.03c0.8,-0.214 1.622,0.262 1.836,1.061c0.214,0.8 -0.262,1.623 -1.062,1.837c-9.469,2.53 -16.056,5.876 -24.277,6.862c-0.822,0.098 -1.569,-0.489 -1.668,-1.311c-0.099,-0.822 0.489,-1.57 1.311,-1.668c8.083,-0.969 14.55,-4.294 23.86,-6.781Z" style="fill:#967f48;"/><path d="M129.899,13.788c0.933,-0.249 1.893,0.306 2.143,1.239c0.249,0.933 -0.306,1.893 -1.239,2.142c-9.482,2.534 -16.079,5.882 -24.312,6.869c-0.959,0.115 -1.831,-0.571 -1.946,-1.529c-0.115,-0.959 0.57,-1.831 1.529,-1.946c8.072,-0.968 14.529,-4.291 23.825,-6.775Zm0.129,0.483c-9.323,2.491 -15.799,5.818 -23.894,6.788c-0.685,0.082 -1.175,0.705 -1.093,1.39c0.082,0.685 0.705,1.174 1.39,1.092c8.21,-0.983 14.787,-4.328 24.243,-6.855c0.666,-0.178 1.063,-0.863 0.885,-1.53c-0.178,-0.666 -0.864,-1.063 -1.531,-0.885Z" style="fill:#624705;"/><g><path d="M134.831,9.026c3.321,-0 6.017,2.696 6.017,6.017c-0,3.321 -2.696,6.017 -6.017,6.017c-3.321,0 -6.017,-2.696 -6.017,-6.017c-0,-3.321 2.696,-6.017 6.017,-6.017Zm-0,0.788c-2.886,-0 -5.229,2.343 -5.229,5.229c-0,2.886 2.343,5.229 5.229,5.229c2.886,0 5.229,-2.343 5.229,-5.229c0,-2.886 -2.343,-5.229 -5.229,-5.229Z" style="fill:#48000b;"/><circle cx="134.831" cy="15.043" r="5.229" style="fill:#7a0012;"/><circle cx="135.563" cy="14.464" r="3.481" style="fill:#971225;"/><circle cx="135.899" cy="13.978" r="1.815" style="fill:#ad2c3f;"/></g><path d="M164.957,12.06c0.822,0.098 1.411,0.844 1.313,1.666c-0.097,0.823 -0.844,1.411 -1.666,1.313c-8.834,-1.046 -17.074,-0.919 -25.718,0.441c-0.818,0.129 -1.586,-0.43 -1.715,-1.248c-0.129,-0.818 0.431,-1.587 1.249,-1.715c8.919,-1.404 17.421,-1.537 26.537,-0.457Z" style="fill:#967f48;"/><path d="M164.987,11.812c0.959,0.114 1.645,0.985 1.532,1.944c-0.114,0.959 -0.985,1.645 -1.944,1.532c-8.811,-1.044 -17.029,-0.917 -25.65,0.439c-0.954,0.15 -1.851,-0.502 -2.001,-1.456c-0.15,-0.955 0.503,-1.851 1.457,-2.001c8.942,-1.407 17.466,-1.541 26.606,-0.458Zm-0.059,0.497c-9.093,-1.078 -17.573,-0.945 -26.47,0.455c-0.681,0.107 -1.147,0.747 -1.04,1.429c0.107,0.681 0.748,1.148 1.429,1.04c8.667,-1.364 16.929,-1.491 25.787,-0.442c0.685,0.081 1.307,-0.409 1.388,-1.094c0.081,-0.685 -0.409,-1.307 -1.094,-1.388Z" style="fill:#624705;"/><g><path d="M168.81,7.533c3.321,-0 6.017,2.696 6.017,6.017c0,3.321 -2.696,6.017 -6.017,6.017c-3.321,0 -6.017,-2.696 -6.017,-6.017c-0,-3.321 2.696,-6.017 6.017,-6.017Zm0,0.788c-2.886,-0 -5.229,2.343 -5.229,5.229c-0,2.886 2.343,5.229 5.229,5.229c2.886,0 5.229,-2.343 5.229,-5.229c0,-2.886 -2.343,-5.229 -5.229,-5.229Z" style="fill:#48000b;"/><circle cx="168.81" cy="13.55" r="5.229" style="fill:#7a0012;"/><circle cx="169.542" cy="12.971" r="3.481" style="fill:#971225;"/><circle cx="169.878" cy="12.485" r="1.815" style="fill:#ad2c3f;"/></g><path d="M193.742,17.828c0.765,0.318 1.128,1.196 0.81,1.961c-0.317,0.764 -1.196,1.127 -1.96,0.81c-5.627,-2.338 -14.12,-4.615 -20.146,-5.105c-0.825,-0.068 -1.441,-0.792 -1.373,-1.617c0.067,-0.825 0.791,-1.441 1.616,-1.374c6.297,0.513 15.174,2.883 21.053,5.325Z" style="fill:#967f48;"/><path d="M193.838,17.597c0.892,0.371 1.316,1.396 0.945,2.288c-0.37,0.892 -1.395,1.315 -2.287,0.944c-5.606,-2.328 -14.067,-4.598 -20.07,-5.086c-0.963,-0.079 -1.681,-0.924 -1.603,-1.886c0.079,-0.963 0.924,-1.681 1.887,-1.603c6.318,0.515 15.228,2.892 21.128,5.343Zm-0.191,0.462c-5.859,-2.433 -14.704,-4.796 -20.978,-5.306c-0.688,-0.056 -1.291,0.457 -1.347,1.144c-0.056,0.688 0.457,1.291 1.144,1.347c6.048,0.493 14.574,2.778 20.222,5.124c0.637,0.264 1.369,-0.038 1.633,-0.675c0.265,-0.637 -0.037,-1.369 -0.674,-1.634Z" style="fill:#624705;"/><g><path d="M196.302,14.226c3.321,-0 6.017,2.696 6.017,6.017c0,3.321 -2.696,6.017 -6.017,6.017c-3.321,-0 -6.017,-2.696 -6.017,-6.017c0,-3.321 2.696,-6.017 6.017,-6.017Zm0,0.788c-2.886,-0 -5.229,2.343 -5.229,5.229c0,2.886 2.343,5.229 5.229,5.229c2.886,0 5.23,-2.343 5.23,-5.229c-0,-2.886 -2.344,-5.229 -5.23,-5.229Z" style="fill:#48000b;"/><circle cx="196.302" cy="20.243" r="5.229" style="fill:#7a0012;"/><circle cx="197.034" cy="19.664" r="3.481" style="fill:#971225;"/><circle cx="197.371" cy="19.178" r="1.815" style="fill:#ad2c3f;"/></g><g><path d="M219.367,29.671c3.321,-0 6.017,2.696 6.017,6.017c0,3.321 -2.696,6.017 -6.017,6.017c-3.321,0 -6.017,-2.696 -6.017,-6.017c-0,-3.321 2.696,-6.017 6.017,-6.017Zm-0,0.788c-2.886,-0 -5.229,2.343 -5.229,5.229c-0,2.886 2.343,5.229 5.229,5.229c2.886,0 5.229,-2.343 5.229,-5.229c0,-2.886 -2.343,-5.229 -5.229,-5.229Z" style="fill:#48000b;"/><circle cx="219.367" cy="35.688" r="5.229" style="fill:#7a0012;"/><circle cx="220.099" cy="35.109" r="3.481" style="fill:#971225;"/><circle cx="220.435" cy="34.623" r="1.815" style="fill:#ad2c3f;"/></g><path d="M221.857,37.187c-0.827,-0.026 -1.477,-0.72 -1.451,-1.547c0.027,-0.828 0.72,-1.478 1.548,-1.451c7.843,0.251 15.041,2.522 21.456,7.239c0.667,0.49 0.81,1.43 0.319,2.097c-0.49,0.667 -1.43,0.81 -2.097,0.32c-5.91,-4.347 -12.547,-6.426 -19.775,-6.658Z" style="fill:#967f48;"/><path d="M221.849,37.437c-0.965,-0.031 -1.724,-0.84 -1.693,-1.805c0.031,-0.966 0.84,-1.724 1.806,-1.693c7.895,0.253 15.139,2.539 21.596,7.288c0.778,0.572 0.945,1.668 0.373,2.446c-0.572,0.778 -1.669,0.945 -2.447,0.373c-5.869,-4.316 -12.459,-6.379 -19.635,-6.609Zm0.016,-0.5c7.279,0.234 13.963,2.329 19.915,6.706c0.556,0.409 1.339,0.29 1.748,-0.266c0.409,-0.556 0.289,-1.339 -0.266,-1.748c-6.373,-4.686 -13.524,-6.94 -21.317,-7.19c-0.689,-0.023 -1.267,0.519 -1.289,1.209c-0.022,0.689 0.52,1.267 1.209,1.289Z" style="fill:#624705;"/><g><path d="M245.649,38.783c3.847,0 6.97,3.123 6.97,6.97c0,3.847 -3.123,6.97 -6.97,6.97c-3.846,-0 -6.969,-3.123 -6.969,-6.97c-0,-3.847 3.123,-6.97 6.969,-6.97Zm0,0.913c-3.343,-0 -6.057,2.714 -6.057,6.057c0,3.343 2.714,6.057 6.057,6.057c3.343,-0 6.057,-2.714 6.057,-6.057c0,-3.343 -2.714,-6.057 -6.057,-6.057Z" style="fill:#48000b;"/><circle cx="245.649" cy="45.753" r="6.057" style="fill:#7a0012;"/><circle cx="246.497" cy="45.082" r="4.032" style="fill:#971225;"/><circle cx="246.887" cy="44.52" r="2.103" style="fill:#ad2c3f;"/></g><path d="M247.314,49.196c-0.553,-0.617 -0.5,-1.566 0.116,-2.118c0.617,-0.552 1.566,-0.5 2.118,0.117c5.23,5.839 7.774,12.138 8.434,21.203c0.06,0.826 -0.561,1.545 -1.387,1.605c-0.826,0.06 -1.545,-0.562 -1.605,-1.387c-0.604,-8.296 -2.89,-14.076 -7.676,-19.42Z" style="fill:#967f48;"/><path d="M247.128,49.363c-0.645,-0.72 -0.584,-1.827 0.136,-2.471c0.719,-0.645 1.826,-0.584 2.471,0.136c5.267,5.88 7.832,12.223 8.496,21.352c0.07,0.963 -0.655,1.802 -1.618,1.872c-0.963,0.07 -1.802,-0.655 -1.872,-1.618c-0.6,-8.231 -2.865,-13.969 -7.613,-19.271Zm0.372,-0.334c4.823,5.385 7.131,11.209 7.739,19.569c0.05,0.688 0.65,1.206 1.338,1.156c0.688,-0.051 1.206,-0.65 1.156,-1.338c-0.656,-9.001 -3.178,-15.257 -8.371,-21.055c-0.46,-0.514 -1.251,-0.557 -1.765,-0.097c-0.514,0.46 -0.557,1.251 -0.097,1.765Z" style="fill:#624705;"/><g><path d="M257.491,66.636c3.846,0 6.969,3.123 6.969,6.97c0,3.846 -3.123,6.969 -6.969,6.969c-3.847,0 -6.97,-3.123 -6.97,-6.969c0,-3.847 3.123,-6.97 6.97,-6.97Zm-0,0.913c-3.343,-0 -6.057,2.714 -6.057,6.057c-0,3.343 2.714,6.057 6.057,6.057c3.343,-0 6.057,-2.714 6.057,-6.057c-0,-3.343 -2.714,-6.057 -6.057,-6.057Z" style="fill:#48000b;"/><circle cx="257.491" cy="73.606" r="6.057" style="fill:#7a0012;"/><circle cx="258.339" cy="72.935" r="4.032" style="fill:#971225;"/><circle cx="258.728" cy="72.373" r="2.103" style="fill:#ad2c3f;"/></g><path d="M256.939,79.715c-0.069,-0.825 0.545,-1.551 1.37,-1.62c0.825,-0.069 1.551,0.544 1.62,1.369c0.394,4.705 -0.341,10.852 0.105,16.158c0.069,0.825 -0.545,1.551 -1.369,1.62c-0.825,0.069 -1.551,-0.544 -1.621,-1.369c-0.445,-5.306 0.29,-11.453 -0.105,-16.158Z" style="fill:#967f48;"/><path d="M256.69,79.735c-0.08,-0.962 0.636,-1.809 1.598,-1.889c0.963,-0.081 1.809,0.635 1.89,1.597c0.394,4.706 -0.341,10.852 0.105,16.158c0.081,0.962 -0.635,1.809 -1.598,1.89c-0.962,0.081 -1.809,-0.635 -1.89,-1.597c-0.446,-5.307 0.29,-11.453 -0.105,-16.159Zm0.499,-0.041c0.394,4.705 -0.341,10.852 0.104,16.158c0.058,0.687 0.663,1.198 1.351,1.141c0.687,-0.058 1.198,-0.663 1.141,-1.351c-0.446,-5.305 0.289,-11.452 -0.105,-16.157c-0.058,-0.687 -0.663,-1.199 -1.35,-1.141c-0.688,0.057 -1.199,0.662 -1.141,1.35Z" style="fill:#624705;"/><g><path d="M268.656,103.704c0.576,0.299 0.937,0.894 0.937,1.543c0,0.649 -0.361,1.244 -0.937,1.543c-3.755,1.891 -6.809,5.389 -8.562,9.776c-0.272,0.654 -0.911,1.08 -1.619,1.08c-0.708,-0 -1.347,-0.426 -1.618,-1.08c-1.753,-4.387 -4.808,-7.885 -8.563,-9.776c-0.576,-0.299 -0.937,-0.894 -0.937,-1.543c-0,-0.648 0.361,-1.243 0.937,-1.542c3.755,-1.891 6.81,-5.39 8.562,-9.776c0.272,-0.654 0.911,-1.08 1.619,-1.08c0.708,-0 1.347,0.426 1.619,1.08c1.753,4.386 4.807,7.885 8.562,9.775Z" style="fill:#7a0012;"/><path d="M266.643,104.07c0.439,0.228 0.715,0.682 0.715,1.177c-0,0.495 -0.276,0.949 -0.715,1.177c-2.865,1.442 -5.195,4.112 -6.532,7.458c-0.207,0.499 -0.694,0.824 -1.235,0.824c-0.54,-0 -1.027,-0.325 -1.234,-0.824c-1.338,-3.346 -3.668,-6.016 -6.533,-7.458c-0.439,-0.228 -0.715,-0.682 -0.715,-1.177c0.001,-0.495 0.276,-0.948 0.716,-1.176c2.864,-1.443 5.194,-4.112 6.531,-7.458c0.208,-0.499 0.695,-0.824 1.235,-0.824c0.54,-0 1.028,0.325 1.235,0.824c1.337,3.346 3.667,6.015 6.532,7.457Z" style="fill:#971225;"/><path d="M263.926,104.558c0.257,0.133 0.419,0.399 0.419,0.689c-0,0.29 -0.162,0.556 -0.419,0.689c-1.678,0.845 -3.042,2.408 -3.825,4.368c-0.122,0.292 -0.407,0.483 -0.723,0.483c-0.317,-0 -0.602,-0.191 -0.724,-0.483c-0.783,-1.96 -2.148,-3.523 -3.825,-4.367c-0.257,-0.134 -0.419,-0.4 -0.419,-0.69c0,-0.29 0.162,-0.555 0.419,-0.689c1.677,-0.845 3.042,-2.408 3.825,-4.368c0.122,-0.292 0.407,-0.482 0.723,-0.482c0.317,-0 0.602,0.19 0.724,0.482c0.783,1.96 2.147,3.523 3.825,4.368Z" style="fill:#ad2c3f;"/><path d="M269.117,102.817c0.907,0.471 1.476,1.408 1.476,2.43c0,1.022 -0.569,1.959 -1.476,2.43c-0.004,0.002 -0.008,0.004 -0.011,0.006c-3.55,1.788 -6.426,5.107 -8.083,9.254c-0.002,0.004 -0.004,0.008 -0.006,0.013c-0.427,1.027 -1.43,1.696 -2.542,1.696c-1.112,-0 -2.115,-0.67 -2.542,-1.697c-0.001,-0.004 -0.003,-0.008 -0.005,-0.012c-1.657,-4.147 -4.533,-7.466 -8.084,-9.254c-0.003,-0.002 -0.007,-0.003 -0.011,-0.005c-0.907,-0.471 -1.476,-1.409 -1.476,-2.431c0,-1.022 0.569,-1.959 1.477,-2.43c0.003,-0.002 0.007,-0.004 0.011,-0.005c3.55,-1.788 6.426,-5.107 8.083,-9.254c0.001,-0.005 0.003,-0.009 0.005,-0.013c0.427,-1.027 1.43,-1.696 2.542,-1.696c1.112,-0 2.115,0.669 2.542,1.696c0.002,0.004 0.003,0.008 0.005,0.013c1.658,4.147 4.533,7.466 8.084,9.253c0.004,0.002 0.007,0.004 0.011,0.006Zm-0.461,0.887c-3.755,-1.89 -6.809,-5.389 -8.562,-9.775c-0.272,-0.654 -0.911,-1.08 -1.619,-1.08c-0.708,-0 -1.347,0.426 -1.619,1.08c-1.752,4.386 -4.807,7.885 -8.562,9.776c-0.576,0.299 -0.937,0.894 -0.937,1.542c-0,0.649 0.361,1.244 0.937,1.543c3.755,1.891 6.81,5.389 8.563,9.776c0.271,0.654 0.91,1.08 1.618,1.08c0.708,-0 1.347,-0.426 1.619,-1.08c1.753,-4.387 4.807,-7.885 8.562,-9.776c0.576,-0.299 0.937,-0.894 0.937,-1.543c0,-0.649 -0.361,-1.244 -0.937,-1.543Z" style="fill:#48000b;"/></g></g></g></g></svg>