<?xml version="1.0" encoding="UTF-8" standalone="no"?><!DOCTYPE svg PUBLIC "-//W3C//DTD SVG 1.1//EN" "http://www.w3.org/Graphics/SVG/1.1/DTD/svg11.dtd"><svg width="100%" height="100%" viewBox="0 0 300 345" version="1.1" xmlns="http://www.w3.org/2000/svg" xmlns:xlink="http://www.w3.org/1999/xlink" xml:space="preserve" xmlns:serif="http://www.serif.com/" style="fill-rule:evenodd;clip-rule:evenodd;stroke-linejoin:round;stroke-miterlimit:2;"><g id="Slime"><path d="M10,110l0,-30l10,0l0,-10l10,0l0,-10l10,0l0,-10l10,0l0,-10l20,0l0,10l-10,0l0,10l-10,0l0,10l-10,0l0,10l-10,0l0,10l-10,0l0,20l-10,0Zm140,-80l0,-10l10,0l0,10l-10,0Zm-50,40l-30,0l0,-10l10,0l0,-10l10,0l0,-10l10,0l0,-10l10,0l0,-10l30,0l0,10l-10,0l0,10l-10,0l0,10l-10,0l0,10l-10,0l0,10Zm40,-40l10,0l0,10l-10,0l0,-10Zm0,10l0,10l-10,0l0,-10l10,0Zm-10,10l0,10l-10,0l0,-10l10,0Zm-10,10l0,10l-10,0l0,-10l10,0Zm-10,10l0,10l-10,0l0,-10l10,0Zm30,10l-10,0l0,-10l10,0l0,-10l10,0l0,-10l10,0l0,-10l10,0l0,-10l10,0l0,10l20,0l0,10l-10,0l0,10l-10,0l0,10l-10,0l0,10l-10,0l0,10l-20,0l0,-10Zm60,-40l0,-10l10,0l0,10l-10,0Zm10,0l10,0l0,-10l20,0l0,10l-10,0l0,10l-10,0l0,10l-10,0l0,10l-10,0l0,10l-10,0l0,10l-10,0l0,10l-10,0l0,10l-10,0l0,-20l10,0l0,-10l10,0l0,-10l10,0l0,-10l10,0l0,-10l10,0l0,-10Zm70,40l-50,0l0,-10l10,0l0,-10l10,0l0,-10l10,0l0,-10l20,0l0,10l10,0l0,20l-10,0l0,10Zm0,40l0,-30l10,0l0,30l-10,0Zm-260,-80l0,10l-10,0l0,-10l10,0Z" style="fill:#189c4e;"/><path d="M200,90l0,10l-10,0l0,10l-20,0l0,-10l10,0l0,-10l10,0l0,-10l10,0l0,-10l10,0l0,-10l10,0l0,-10l10,0l0,-10l30,0l0,10l-10,0l0,10l-10,0l0,10l-10,0l0,10l-20,0l0,10l-10,0Zm0,-40l0,-10l10,0l0,10l-10,0Zm-10,10l0,-10l10,0l0,10l-10,0Zm-30,30l0,10l-10,0l0,-10l10,0Zm50,-50l0,-10l10,0l0,10l-10,0Zm-40,40l0,-10l10,0l0,10l-10,0Zm-10,10l0,-10l10,0l0,10l-10,0Zm20,-20l0,-10l10,0l0,10l-10,0Zm-70,0l-10,0l0,-10l10,0l0,10Zm0,-10l0,-10l10,0l0,10l-10,0Zm10,-10l0,-10l10,0l0,10l-10,0Zm10,-10l0,-10l10,0l0,10l-10,0Zm10,-10l0,-10l10,0l0,10l-10,0Zm10,0l10,0l0,-10l10,0l0,20l-10,0l0,10l-10,0l0,10l-10,0l0,10l-10,0l0,10l-20,0l0,-10l10,0l0,-10l10,0l0,-10l10,0l0,-10l10,0l0,-10Zm140,60l-20,0l0,-10l10,0l0,-10l10,0l0,20Zm-230,-10l-20,0l0,-10l10,0l0,-10l10,0l0,-10l10,0l0,-10l10,0l0,-10l10,0l0,-10l20,0l0,10l-10,0l0,10l-10,0l0,10l-10,0l0,10l-10,0l0,10l-10,0l0,10Zm-50,0l0,-30l10,0l0,-20l20,0l0,10l10,0l0,10l-10,0l0,10l-10,0l0,10l-10,0l0,10l-10,0Z" style="fill:#6cbd53;"/><path d="M0,130l0,-90l10,0l0,70l10,0l0,10l-10,0l0,10l-10,0Zm10,-90l0,-10l10,0l0,10l-10,0Zm10,-10l0,-10l20,0l0,10l-20,0Zm20,0l40,0l0,10l-40,0l0,-10Zm40,0l0,-10l10,0l0,10l-10,0Zm10,-10l0,-10l80,0l0,10l-80,0Zm80,0l10,0l0,10l-10,0l0,-10Zm10,10l20,0l0,10l-20,0l0,-10Zm20,0l0,-10l40,0l0,10l-40,0Zm40,0l40,0l0,10l-40,0l0,-10Zm40,10l10,0l0,10l-10,0l0,-10Zm10,10l10,0l0,90l-10,0l0,-10l-10,0l0,-10l10,0l0,-70Zm-10,70l-10,0l0,-30l10,0l0,30Zm-10,-30l-60,0l0,-10l60,0l0,10Zm-60,0l0,10l-10,0l0,-10l10,0Zm-10,10l0,10l-10,0l0,-10l10,0Zm-10,10l0,10l-30,0l0,-10l30,0Zm-30,0l-10,0l0,-10l10,0l0,10Zm-10,-10l-10,0l0,-10l10,0l0,10Zm-10,-10l-40,0l0,-10l40,0l0,10Zm-40,-10l-40,0l0,-10l40,0l0,10Zm-40,0l0,10l-30,0l0,-10l30,0Zm-30,10l0,20l-10,0l0,-20l10,0Z" style="fill:#26af51;"/><path d="M60,120l0,-20l10,0l0,-10l20,0l0,10l-10,0l0,10l-10,0l0,10l-10,0Zm30,-20l10,0l0,30l-30,0l0,-10l20,0l0,-20Z" style="fill:#26af51;"/><path d="M80,110l0,10l-10,0l0,-10l10,0Zm0,0l0,-10l10,0l0,10l-10,0Z" style="fill:#189c4e;"/><rect x="80" y="110" width="10" height="10" style="fill:#6cbd53;"/><path d="M250,110l10,0l0,10l-10,0l0,-10Zm0,0l-10,0l0,-10l10,0l0,10Z" style="fill:#26af51;"/><rect x="250" y="100" width="10" height="10" style="fill:#189c4e;"/></g></svg>