<?xml version="1.0" encoding="UTF-8" standalone="no"?><!DOCTYPE svg PUBLIC "-//W3C//DTD SVG 1.1//EN" "http://www.w3.org/Graphics/SVG/1.1/DTD/svg11.dtd"><svg width="100%" height="100%" viewBox="0 0 300 345" version="1.1" xmlns="http://www.w3.org/2000/svg" xmlns:xlink="http://www.w3.org/1999/xlink" xml:space="preserve" xmlns:serif="http://www.serif.com/" style="fill-rule:evenodd;clip-rule:evenodd;stroke-linejoin:round;stroke-miterlimit:2;"><g id="MailMan"><g><path d="M150,126.348c-15.036,-0 -19.534,3.885 -29.827,5.475c-17.985,2.778 -37.681,1.916 -50.972,-6.257c-12.76,-7.848 -21.174,-19.507 -26.463,-33.764c7.065,-5.334 57.531,-4.571 107.262,-3.911c49.731,-0.66 100.197,-1.423 107.262,3.911c-5.289,14.257 -13.703,25.916 -26.463,33.764c-13.291,8.173 -32.987,9.035 -50.972,6.257c-10.293,-1.59 -14.791,-5.475 -29.827,-5.475Z" style="fill:#1b4473;"/><path d="M150,121.869l-4.452,0.146c-11.94,0.665 -16.622,3.951 -26.055,5.408c-16.912,2.612 -35.462,2.037 -47.96,-5.65c-10.646,-6.547 -18.007,-15.974 -22.97,-27.41c-1.524,-3.51 3.068,-5.051 3.068,-5.051c18.03,-2.547 58.436,-1.951 98.369,-1.421c39.933,-0.53 80.339,-1.126 98.369,1.421c0,-0 4.592,1.541 3.068,5.051c-4.963,11.436 -12.324,20.863 -22.97,27.41c-12.498,7.687 -31.048,8.262 -47.96,5.65c-9.433,-1.457 -14.115,-4.743 -26.055,-5.408l-4.452,-0.146Z" style="fill:#1c518d;"/><path d="M150,114.875c-0.486,0.001 -0.962,0.005 -1.429,0.013c-0.378,0.007 -0.69,-0.295 -0.697,-0.673c-0.006,-0.377 0.295,-0.69 0.673,-0.696c0.475,-0.008 0.959,-0.013 1.453,-0.013c0.494,0 0.978,0.005 1.453,0.013c0.378,0.006 0.679,0.319 0.673,0.696c-0.007,0.378 -0.319,0.68 -0.697,0.673c-0.467,-0.008 -0.943,-0.012 -1.429,-0.013Zm-96.701,-22.392c-0.145,-0.35 0.021,-0.75 0.37,-0.895c0.349,-0.145 0.75,0.021 0.895,0.371c0.182,0.44 0.369,0.877 0.56,1.311c0.152,0.346 -0.005,0.751 -0.351,0.903c-0.346,0.152 -0.751,-0.005 -0.903,-0.351c-0.195,-0.443 -0.385,-0.89 -0.571,-1.339Zm1.806,3.978c-0.168,-0.338 -0.03,-0.749 0.308,-0.917c0.339,-0.169 0.75,-0.031 0.918,0.308c0.425,0.854 0.869,1.693 1.332,2.516c0.185,0.329 0.069,0.747 -0.261,0.933c-0.329,0.185 -0.747,0.068 -0.932,-0.261c-0.475,-0.843 -0.93,-1.703 -1.365,-2.579Zm2.868,5.083c-0.204,-0.318 -0.111,-0.742 0.208,-0.946c0.318,-0.203 0.742,-0.11 0.945,0.208c0.512,0.801 1.046,1.583 1.602,2.347c0.222,0.305 0.154,0.734 -0.151,0.956c-0.306,0.223 -0.734,0.155 -0.957,-0.15c-0.572,-0.786 -1.121,-1.591 -1.647,-2.415Zm3.444,4.724c-0.242,-0.29 -0.202,-0.722 0.089,-0.964c0.29,-0.241 0.722,-0.201 0.964,0.089c0.604,0.727 1.231,1.433 1.884,2.119c0.261,0.274 0.25,0.708 -0.024,0.968c-0.273,0.261 -0.707,0.25 -0.968,-0.024c-0.674,-0.708 -1.322,-1.437 -1.945,-2.188Zm4.037,4.239c-0.279,-0.255 -0.298,-0.688 -0.043,-0.967c0.255,-0.279 0.688,-0.298 0.967,-0.043c0.693,0.634 1.412,1.247 2.157,1.837c0.296,0.235 0.346,0.666 0.111,0.962c-0.234,0.296 -0.665,0.346 -0.962,0.111c-0.77,-0.611 -1.513,-1.244 -2.23,-1.9Zm4.589,3.639c-0.312,-0.213 -0.392,-0.64 -0.179,-0.952c0.214,-0.312 0.64,-0.391 0.952,-0.178c0.772,0.528 1.569,1.035 2.393,1.52c0.326,0.191 0.435,0.611 0.243,0.937c-0.191,0.326 -0.611,0.435 -0.937,0.243c-0.851,-0.501 -1.675,-1.024 -2.472,-1.57Zm5.043,2.969c-0.337,-0.169 -0.474,-0.581 -0.304,-0.919c0.169,-0.338 0.581,-0.474 0.919,-0.304c0.833,0.418 1.692,0.816 2.576,1.193c0.348,0.148 0.51,0.55 0.362,0.898c-0.148,0.348 -0.551,0.51 -0.898,0.362c-0.912,-0.388 -1.796,-0.798 -2.655,-1.23Zm5.377,2.294c-0.356,-0.127 -0.542,-0.519 -0.415,-0.875c0.127,-0.356 0.52,-0.542 0.875,-0.415c0.867,0.31 1.769,0.605 2.705,0.883c0.362,0.107 0.569,0.489 0.461,0.851c-0.107,0.362 -0.489,0.569 -0.851,0.461c-0.96,-0.285 -1.886,-0.587 -2.775,-0.905Zm5.59,1.666c-0.367,-0.09 -0.592,-0.461 -0.503,-0.828c0.09,-0.367 0.461,-0.592 0.828,-0.502c0.905,0.221 1.834,0.426 2.785,0.613c0.37,0.074 0.612,0.434 0.539,0.805c-0.073,0.37 -0.434,0.612 -0.804,0.539c-0.972,-0.192 -1.921,-0.401 -2.845,-0.627Zm5.712,1.129c-0.373,-0.057 -0.63,-0.407 -0.573,-0.781c0.058,-0.373 0.407,-0.63 0.781,-0.573c0.927,0.142 1.871,0.267 2.829,0.374c0.376,0.041 0.647,0.38 0.605,0.756c-0.042,0.375 -0.38,0.646 -0.756,0.605c-0.978,-0.109 -1.94,-0.236 -2.886,-0.381Zm5.784,0.643c-0.377,-0.026 -0.661,-0.354 -0.635,-0.731c0.027,-0.377 0.354,-0.661 0.731,-0.635c0.94,0.066 1.891,0.114 2.851,0.143c0.378,0.011 0.675,0.327 0.664,0.705c-0.011,0.378 -0.327,0.675 -0.705,0.664c-0.979,-0.029 -1.948,-0.078 -2.906,-0.146Zm5.816,0.174c-0.378,0.004 -0.688,-0.3 -0.692,-0.678c-0.004,-0.377 0.3,-0.687 0.678,-0.691c0.944,-0.011 1.895,-0.04 2.852,-0.089c0.378,-0.02 0.7,0.271 0.72,0.648c0.019,0.378 -0.271,0.7 -0.649,0.719c-0.976,0.051 -1.946,0.081 -2.909,0.091Zm5.812,-0.301c-0.376,0.035 -0.71,-0.242 -0.745,-0.618c-0.035,-0.377 0.241,-0.711 0.618,-0.746c0.941,-0.088 1.886,-0.197 2.834,-0.327c0.374,-0.051 0.72,0.211 0.771,0.586c0.052,0.374 -0.211,0.72 -0.585,0.771c-0.967,0.133 -1.932,0.243 -2.893,0.334Zm5.769,-0.793c-0.372,0.068 -0.729,-0.179 -0.797,-0.551c-0.067,-0.371 0.179,-0.728 0.551,-0.796c0.931,-0.17 1.862,-0.361 2.793,-0.575c0.368,-0.084 0.736,0.146 0.82,0.515c0.085,0.368 -0.145,0.736 -0.514,0.82c-0.95,0.218 -1.902,0.414 -2.853,0.587Zm5.673,-1.294c-0.365,0.098 -0.741,-0.119 -0.839,-0.484c-0.098,-0.365 0.119,-0.741 0.484,-0.839c0.947,-0.254 1.862,-0.515 2.758,-0.779c0.362,-0.107 0.743,0.101 0.85,0.463c0.107,0.362 -0.1,0.744 -0.463,0.85c-0.906,0.268 -1.832,0.532 -2.79,0.789Zm5.557,-1.626c-0.361,0.111 -0.745,-0.092 -0.856,-0.453c-0.111,-0.361 0.092,-0.745 0.453,-0.856c0.926,-0.285 1.841,-0.568 2.759,-0.846c0.362,-0.109 0.744,0.095 0.854,0.457c0.109,0.362 -0.096,0.744 -0.458,0.854c-0.915,0.277 -1.828,0.56 -2.752,0.844Zm5.505,-1.649c-0.364,0.102 -0.742,-0.111 -0.844,-0.475c-0.101,-0.364 0.112,-0.742 0.476,-0.844c0.919,-0.256 1.853,-0.502 2.812,-0.734c0.368,-0.088 0.738,0.138 0.826,0.506c0.089,0.367 -0.137,0.737 -0.505,0.826c-0.943,0.227 -1.861,0.469 -2.765,0.721Zm5.551,-1.328c-0.371,0.072 -0.73,-0.171 -0.802,-0.542c-0.072,-0.371 0.17,-0.731 0.541,-0.803c0.925,-0.179 1.88,-0.343 2.874,-0.488c0.374,-0.054 0.722,0.206 0.776,0.58c0.054,0.373 -0.205,0.721 -0.579,0.776c-0.972,0.141 -1.906,0.301 -2.81,0.477Zm5.64,-0.821c-0.376,0.037 -0.712,-0.239 -0.749,-0.615c-0.037,-0.376 0.238,-0.711 0.615,-0.748c0.93,-0.092 1.895,-0.166 2.902,-0.222c0.378,-0.021 0.701,0.268 0.722,0.645c0.021,0.378 -0.268,0.701 -0.646,0.722c-0.987,0.055 -1.933,0.128 -2.844,0.218Zm103.829,-22.726c-0.186,0.449 -0.376,0.896 -0.571,1.339c-0.152,0.346 -0.557,0.503 -0.903,0.351c-0.346,-0.152 -0.503,-0.557 -0.351,-0.903c0.191,-0.434 0.378,-0.871 0.56,-1.311c0.145,-0.35 0.546,-0.516 0.895,-0.371c0.349,0.145 0.515,0.545 0.37,0.895Zm-1.806,3.978c-0.435,0.876 -0.89,1.736 -1.365,2.579c-0.185,0.329 -0.603,0.446 -0.932,0.261c-0.33,-0.186 -0.446,-0.604 -0.261,-0.933c0.463,-0.823 0.907,-1.662 1.332,-2.516c0.168,-0.339 0.579,-0.477 0.918,-0.308c0.338,0.168 0.476,0.579 0.308,0.917Zm-2.868,5.083c-0.526,0.824 -1.075,1.629 -1.647,2.415c-0.223,0.305 -0.651,0.373 -0.957,0.15c-0.305,-0.222 -0.373,-0.651 -0.151,-0.956c0.556,-0.764 1.09,-1.546 1.602,-2.347c0.203,-0.318 0.627,-0.411 0.945,-0.208c0.319,0.204 0.412,0.628 0.208,0.946Zm-3.444,4.724c-0.623,0.751 -1.271,1.48 -1.945,2.188c-0.261,0.274 -0.695,0.285 -0.968,0.024c-0.274,-0.26 -0.285,-0.694 -0.024,-0.968c0.653,-0.686 1.28,-1.392 1.884,-2.119c0.242,-0.29 0.674,-0.33 0.964,-0.089c0.291,0.242 0.331,0.674 0.089,0.964Zm-4.037,4.239c-0.717,0.656 -1.46,1.289 -2.23,1.9c-0.297,0.235 -0.728,0.185 -0.962,-0.111c-0.235,-0.296 -0.185,-0.727 0.111,-0.962c0.745,-0.59 1.464,-1.203 2.157,-1.837c0.279,-0.255 0.712,-0.236 0.967,0.043c0.255,0.279 0.236,0.712 -0.043,0.967Zm-4.589,3.639c-0.797,0.546 -1.621,1.069 -2.472,1.57c-0.326,0.192 -0.746,0.083 -0.937,-0.243c-0.192,-0.326 -0.083,-0.746 0.243,-0.937c0.824,-0.485 1.621,-0.992 2.393,-1.52c0.312,-0.213 0.738,-0.134 0.952,0.178c0.213,0.312 0.133,0.739 -0.179,0.952Zm-5.043,2.969c-0.859,0.432 -1.743,0.842 -2.655,1.23c-0.347,0.148 -0.75,-0.014 -0.898,-0.362c-0.148,-0.348 0.014,-0.75 0.362,-0.898c0.884,-0.377 1.743,-0.775 2.576,-1.193c0.338,-0.17 0.75,-0.034 0.919,0.304c0.17,0.338 0.033,0.75 -0.304,0.919Zm-5.377,2.294c-0.889,0.318 -1.815,0.62 -2.775,0.905c-0.362,0.108 -0.744,-0.099 -0.851,-0.461c-0.108,-0.362 0.099,-0.744 0.461,-0.851c0.936,-0.278 1.838,-0.573 2.705,-0.883c0.355,-0.127 0.748,0.059 0.875,0.415c0.127,0.356 -0.059,0.748 -0.415,0.875Zm-5.59,1.666c-0.924,0.226 -1.873,0.435 -2.845,0.627c-0.37,0.073 -0.731,-0.169 -0.804,-0.539c-0.073,-0.371 0.169,-0.731 0.539,-0.805c0.951,-0.187 1.88,-0.392 2.785,-0.613c0.367,-0.09 0.738,0.135 0.828,0.502c0.089,0.367 -0.136,0.738 -0.503,0.828Zm-5.712,1.129c-0.946,0.145 -1.908,0.272 -2.886,0.381c-0.376,0.041 -0.714,-0.23 -0.756,-0.605c-0.042,-0.376 0.229,-0.715 0.605,-0.756c0.958,-0.107 1.902,-0.232 2.829,-0.374c0.374,-0.057 0.723,0.2 0.781,0.573c0.057,0.374 -0.2,0.724 -0.573,0.781Zm-5.784,0.643c-0.958,0.068 -1.927,0.117 -2.906,0.146c-0.378,0.011 -0.694,-0.286 -0.705,-0.664c-0.011,-0.378 0.286,-0.694 0.664,-0.705c0.96,-0.029 1.911,-0.077 2.851,-0.143c0.377,-0.026 0.704,0.258 0.731,0.635c0.026,0.377 -0.258,0.705 -0.635,0.731Zm-5.816,0.174c-0.963,-0.01 -1.933,-0.04 -2.909,-0.091c-0.378,-0.019 -0.668,-0.341 -0.649,-0.719c0.02,-0.377 0.342,-0.668 0.72,-0.648c0.957,0.049 1.908,0.078 2.852,0.089c0.378,0.004 0.682,0.314 0.678,0.691c-0.004,0.378 -0.314,0.682 -0.692,0.678Zm-5.812,-0.301c-0.961,-0.091 -1.926,-0.201 -2.893,-0.334c-0.374,-0.051 -0.637,-0.397 -0.585,-0.771c0.051,-0.375 0.397,-0.637 0.771,-0.586c0.948,0.13 1.893,0.239 2.834,0.327c0.377,0.035 0.653,0.369 0.618,0.746c-0.035,0.376 -0.369,0.653 -0.745,0.618Zm-5.769,-0.793c-0.951,-0.173 -1.903,-0.369 -2.853,-0.587c-0.369,-0.084 -0.599,-0.452 -0.514,-0.82c0.084,-0.369 0.452,-0.599 0.82,-0.515c0.931,0.214 1.862,0.405 2.793,0.575c0.372,0.068 0.618,0.425 0.551,0.796c-0.068,0.372 -0.425,0.619 -0.797,0.551Zm-5.673,-1.294c-0.958,-0.257 -1.884,-0.521 -2.79,-0.789c-0.363,-0.106 -0.57,-0.488 -0.463,-0.85c0.107,-0.362 0.488,-0.57 0.85,-0.463c0.896,0.264 1.811,0.525 2.758,0.779c0.365,0.098 0.582,0.474 0.484,0.839c-0.098,0.365 -0.474,0.582 -0.839,0.484Zm-5.557,-1.626c-0.924,-0.284 -1.837,-0.567 -2.752,-0.844c-0.362,-0.11 -0.567,-0.492 -0.458,-0.854c0.11,-0.362 0.492,-0.566 0.854,-0.457c0.918,0.278 1.833,0.561 2.759,0.846c0.361,0.111 0.564,0.495 0.453,0.856c-0.111,0.361 -0.495,0.564 -0.856,0.453Zm-5.505,-1.649c-0.904,-0.252 -1.822,-0.494 -2.765,-0.721c-0.368,-0.089 -0.594,-0.459 -0.505,-0.826c0.088,-0.368 0.458,-0.594 0.826,-0.506c0.959,0.232 1.893,0.478 2.812,0.734c0.364,0.102 0.577,0.48 0.476,0.844c-0.102,0.364 -0.48,0.577 -0.844,0.475Zm-5.551,-1.328c-0.904,-0.176 -1.838,-0.336 -2.81,-0.477c-0.374,-0.055 -0.633,-0.403 -0.579,-0.776c0.054,-0.374 0.402,-0.634 0.776,-0.58c0.994,0.145 1.949,0.309 2.874,0.488c0.371,0.072 0.613,0.432 0.541,0.803c-0.072,0.371 -0.431,0.614 -0.802,0.542Zm-5.64,-0.821c-0.911,-0.09 -1.857,-0.163 -2.844,-0.218c-0.378,-0.021 -0.667,-0.344 -0.646,-0.722c0.021,-0.377 0.344,-0.666 0.722,-0.645c1.007,0.056 1.972,0.13 2.902,0.222c0.377,0.037 0.652,0.372 0.615,0.748c-0.037,0.376 -0.373,0.652 -0.749,0.615Z" style="fill:#1b4473;"/><path d="M149.662,91.9c-51.727,-0.007 -80.857,-1.641 -103.51,2.36c-1.937,0.342 -3.827,0.725 -5.679,1.155c-14.306,3.313 -26.695,11.055 -40.473,20.263l0,-32.947c0,-24.838 10.132,-43.606 32.714,-57.955c16.095,-10.227 33.883,-14.307 50.19,-15.332c22.468,-1.412 41.304,-1.83 66.758,-1.834l0.338,-0l0.338,-0c25.454,0.004 44.29,0.422 66.758,1.834c16.307,1.025 34.095,5.105 50.19,15.332c22.582,14.349 32.714,33.117 32.714,57.955l0,32.947c-13.778,-9.208 -26.167,-16.95 -40.473,-20.263c-1.852,-0.43 -3.742,-0.813 -5.679,-1.155c-22.653,-4.001 -51.783,-2.367 -103.51,-2.36l-0.338,-0l-0.338,-0Z" style="fill:#1c518d;"/><path d="M42.113,82.832c-0.001,0.378 -0.309,0.683 -0.687,0.682c-0.378,-0.001 -0.684,-0.309 -0.682,-0.687l0.005,-1.483c0.001,-0.378 0.309,-0.684 0.687,-0.683c0.378,0.002 0.684,0.31 0.682,0.688l-0.005,1.483Zm0.016,-4.45c-0.001,0.378 -0.309,0.684 -0.687,0.682c-0.378,-0.001 -0.684,-0.309 -0.683,-0.687l0.011,-2.966c0.001,-0.378 0.309,-0.684 0.687,-0.683c0.378,0.002 0.684,0.31 0.682,0.688l-0.01,2.966Zm0.021,-5.933c-0.001,0.378 -0.309,0.684 -0.687,0.682c-0.378,-0.001 -0.684,-0.309 -0.682,-0.687l0.01,-2.966c0.002,-0.378 0.309,-0.684 0.687,-0.682c0.378,0.001 0.684,0.309 0.683,0.687l-0.011,2.966Zm0.021,-5.933c-0.001,0.378 -0.309,0.684 -0.687,0.683c-0.378,-0.002 -0.684,-0.31 -0.682,-0.688l0.005,-1.57l0.022,-0.083c0.126,-0.482 0.255,-0.961 0.387,-1.438c0.101,-0.364 0.479,-0.578 0.843,-0.477c0.364,0.101 0.578,0.479 0.477,0.843c-0.123,0.442 -0.243,0.887 -0.36,1.334l-0.005,1.396Zm1.192,-5.548c-0.112,0.361 -0.496,0.563 -0.857,0.451c-0.361,-0.111 -0.563,-0.495 -0.451,-0.856c0.295,-0.954 0.604,-1.898 0.924,-2.831c0.122,-0.357 0.512,-0.548 0.87,-0.425c0.357,0.122 0.548,0.512 0.425,0.869c-0.316,0.921 -0.62,1.851 -0.911,2.792Zm1.906,-5.555c-0.134,0.354 -0.529,0.533 -0.882,0.4c-0.354,-0.134 -0.533,-0.529 -0.4,-0.883c0.353,-0.934 0.717,-1.857 1.092,-2.77c0.144,-0.349 0.545,-0.516 0.894,-0.372c0.349,0.143 0.516,0.544 0.373,0.893c-0.371,0.9 -0.73,1.811 -1.077,2.732Zm2.235,-5.43c-0.155,0.345 -0.56,0.5 -0.905,0.345c-0.345,-0.154 -0.5,-0.559 -0.346,-0.904c0.407,-0.911 0.826,-1.811 1.255,-2.7c0.164,-0.34 0.574,-0.483 0.914,-0.319c0.34,0.164 0.483,0.574 0.319,0.914c-0.423,0.877 -0.836,1.765 -1.237,2.664Zm2.552,-5.29c-0.174,0.336 -0.587,0.466 -0.923,0.292c-0.335,-0.174 -0.466,-0.588 -0.292,-0.923c0.46,-0.886 0.931,-1.76 1.411,-2.622c0.183,-0.33 0.601,-0.449 0.931,-0.265c0.33,0.184 0.449,0.601 0.265,0.931c-0.474,0.851 -0.938,1.713 -1.392,2.587Zm2.858,-5.132c-0.193,0.325 -0.614,0.431 -0.939,0.238c-0.324,-0.193 -0.431,-0.614 -0.238,-0.938c0.51,-0.858 1.03,-1.703 1.559,-2.536c0.202,-0.32 0.625,-0.414 0.944,-0.212c0.32,0.203 0.414,0.626 0.212,0.945c-0.521,0.822 -1.034,1.656 -1.538,2.503Zm3.146,-4.961c-0.211,0.313 -0.637,0.396 -0.95,0.184c-0.314,-0.211 -0.396,-0.637 -0.185,-0.95c0.558,-0.828 1.124,-1.643 1.698,-2.444c0.22,-0.308 0.648,-0.379 0.955,-0.159c0.308,0.22 0.379,0.648 0.159,0.956c-0.567,0.791 -1.126,1.595 -1.677,2.413Zm3.419,-4.779c-0.228,0.301 -0.658,0.36 -0.959,0.132c-0.301,-0.228 -0.361,-0.658 -0.132,-0.959c0.603,-0.796 1.213,-1.579 1.829,-2.348c0.236,-0.294 0.667,-0.342 0.962,-0.106c0.295,0.237 0.343,0.668 0.106,0.963c-0.608,0.759 -1.21,1.532 -1.806,2.318Zm3.675,-4.587c-0.245,0.288 -0.677,0.325 -0.965,0.08c-0.289,-0.244 -0.325,-0.676 -0.081,-0.964c0.646,-0.763 1.296,-1.512 1.952,-2.246c0.251,-0.282 0.684,-0.307 0.966,-0.055c0.282,0.251 0.307,0.684 0.055,0.966c-0.647,0.726 -1.29,1.465 -1.927,2.219Zm3.913,-4.386c-0.259,0.275 -0.693,0.289 -0.968,0.03c-0.275,-0.259 -0.289,-0.693 -0.03,-0.968c0.685,-0.729 1.374,-1.442 2.066,-2.141c0.266,-0.268 0.7,-0.27 0.968,-0.004c0.269,0.266 0.271,0.699 0.005,0.968c-0.683,0.69 -1.364,1.395 -2.041,2.115Zm4.136,-4.177c-0.273,0.262 -0.706,0.253 -0.968,-0.02c-0.262,-0.273 -0.253,-0.707 0.02,-0.968c0.36,-0.345 0.72,-0.686 1.08,-1.023c0.276,-0.258 0.71,-0.244 0.968,0.032c0.258,0.276 0.243,0.71 -0.033,0.968c-0.356,0.333 -0.712,0.67 -1.067,1.011Zm186.684,66.161l-0.005,-1.483c-0.002,-0.378 0.304,-0.686 0.682,-0.688c0.378,-0.001 0.686,0.305 0.687,0.683l0.005,1.483c0.002,0.378 -0.304,0.686 -0.682,0.687c-0.378,0.001 -0.686,-0.304 -0.687,-0.682Zm-0.016,-4.45l-0.01,-2.966c-0.002,-0.378 0.304,-0.686 0.682,-0.688c0.378,-0.001 0.686,0.305 0.687,0.683l0.011,2.966c0.001,0.378 -0.305,0.686 -0.683,0.687c-0.378,0.002 -0.686,-0.304 -0.687,-0.682Zm-0.021,-5.933l-0.011,-2.966c-0.001,-0.378 0.305,-0.686 0.683,-0.687c0.378,-0.002 0.685,0.304 0.687,0.682l0.01,2.966c0.002,0.378 -0.304,0.686 -0.682,0.687c-0.378,0.002 -0.686,-0.304 -0.687,-0.682Zm-0.021,-5.933l-0.005,-1.396c-0.117,-0.447 -0.237,-0.892 -0.36,-1.334c-0.101,-0.364 0.113,-0.742 0.477,-0.843c0.364,-0.101 0.742,0.113 0.843,0.477c0.132,0.477 0.261,0.956 0.387,1.438l0.022,0.083l0.005,1.57c0.002,0.378 -0.304,0.686 -0.682,0.688c-0.378,0.001 -0.686,-0.305 -0.687,-0.683Zm-1.192,-5.548c-0.291,-0.941 -0.595,-1.871 -0.911,-2.792c-0.123,-0.357 0.068,-0.747 0.425,-0.869c0.358,-0.123 0.748,0.068 0.87,0.425c0.32,0.933 0.629,1.877 0.924,2.831c0.112,0.361 -0.09,0.745 -0.451,0.856c-0.361,0.112 -0.745,-0.09 -0.857,-0.451Zm-1.906,-5.555c-0.347,-0.921 -0.706,-1.832 -1.077,-2.732c-0.143,-0.349 0.024,-0.75 0.373,-0.893c0.349,-0.144 0.75,0.023 0.894,0.372c0.375,0.913 0.739,1.836 1.092,2.77c0.133,0.354 -0.046,0.749 -0.4,0.883c-0.353,0.133 -0.748,-0.046 -0.882,-0.4Zm-2.235,-5.43c-0.401,-0.899 -0.814,-1.787 -1.237,-2.664c-0.164,-0.34 -0.021,-0.75 0.319,-0.914c0.34,-0.164 0.75,-0.021 0.914,0.319c0.429,0.889 0.848,1.789 1.255,2.7c0.154,0.345 -0.001,0.75 -0.346,0.904c-0.345,0.155 -0.75,-0 -0.905,-0.345Zm-2.552,-5.29c-0.454,-0.874 -0.918,-1.736 -1.392,-2.587c-0.184,-0.33 -0.065,-0.747 0.265,-0.931c0.33,-0.184 0.748,-0.065 0.931,0.265c0.48,0.862 0.951,1.736 1.411,2.622c0.174,0.335 0.043,0.749 -0.292,0.923c-0.336,0.174 -0.749,0.044 -0.923,-0.292Zm-2.858,-5.132c-0.504,-0.847 -1.017,-1.681 -1.538,-2.503c-0.202,-0.319 -0.108,-0.742 0.212,-0.945c0.319,-0.202 0.742,-0.108 0.944,0.212c0.529,0.833 1.049,1.678 1.559,2.536c0.193,0.324 0.086,0.745 -0.238,0.938c-0.325,0.193 -0.746,0.087 -0.939,-0.238Zm-3.146,-4.961c-0.551,-0.818 -1.11,-1.622 -1.677,-2.413c-0.22,-0.308 -0.149,-0.736 0.159,-0.956c0.307,-0.22 0.735,-0.149 0.955,0.159c0.574,0.801 1.14,1.616 1.698,2.444c0.211,0.313 0.129,0.739 -0.185,0.95c-0.313,0.212 -0.739,0.129 -0.95,-0.184Zm-3.419,-4.779c-0.596,-0.786 -1.198,-1.559 -1.806,-2.318c-0.237,-0.295 -0.189,-0.726 0.106,-0.963c0.295,-0.236 0.726,-0.188 0.962,0.106c0.616,0.769 1.226,1.552 1.829,2.348c0.229,0.301 0.169,0.731 -0.132,0.959c-0.301,0.228 -0.731,0.169 -0.959,-0.132Zm-3.675,-4.587c-0.637,-0.754 -1.28,-1.493 -1.927,-2.219c-0.252,-0.282 -0.227,-0.715 0.055,-0.966c0.282,-0.252 0.715,-0.227 0.966,0.055c0.656,0.734 1.306,1.483 1.952,2.246c0.244,0.288 0.208,0.72 -0.081,0.964c-0.288,0.245 -0.72,0.208 -0.965,-0.08Zm-3.913,-4.386c-0.677,-0.72 -1.358,-1.425 -2.041,-2.115c-0.266,-0.269 -0.264,-0.702 0.005,-0.968c0.268,-0.266 0.702,-0.264 0.968,0.004c0.692,0.699 1.381,1.412 2.066,2.141c0.259,0.275 0.245,0.709 -0.03,0.968c-0.275,0.259 -0.709,0.245 -0.968,-0.03Zm-4.136,-4.177c-0.355,-0.341 -0.711,-0.678 -1.067,-1.011c-0.276,-0.258 -0.291,-0.692 -0.033,-0.968c0.258,-0.276 0.692,-0.29 0.968,-0.032c0.36,0.337 0.72,0.678 1.08,1.023c0.273,0.261 0.282,0.695 0.02,0.968c-0.262,0.273 -0.695,0.282 -0.968,0.02Z" style="fill:#1b4473;"/><path d="M150,91.9c-51.938,-0 -81.146,-1.65 -103.848,2.36c-1.937,0.342 -3.827,0.725 -5.679,1.155c-14.306,3.313 -26.695,11.055 -40.473,20.263l0,-8.735c13.778,-9.208 26.167,-16.949 40.473,-20.263c1.852,-0.429 3.742,-0.812 5.679,-1.154c22.702,-4.01 51.91,-2.361 103.848,-2.361c51.938,0 81.146,-1.649 103.848,2.361c1.937,0.342 3.827,0.725 5.679,1.154c14.306,3.314 26.695,11.055 40.473,20.263l0,8.735c-13.778,-9.208 -26.167,-16.95 -40.473,-20.263c-1.852,-0.43 -3.742,-0.813 -5.679,-1.155c-22.702,-4.01 -51.91,-2.36 -103.848,-2.36Z" style="fill:#1b4473;"/><path d="M150,91.9c-51.938,-0 -81.146,-1.65 -103.848,2.36c-0,-7.872 -0.01,-6.872 -0.01,-14.744c0,-35.053 21.679,-57.303 36.762,-70.072c22.567,-1.418 41.47,-1.834 67.096,-1.834l0.338,-0c25.626,-0 44.529,0.416 67.096,1.834c15.083,12.769 36.762,35.019 36.762,70.072c-0,7.872 -0.01,6.872 -0.01,14.744c-22.702,-4.01 -51.91,-2.36 -103.848,-2.36l-0.338,-0Z" style="fill:#dfeeff;"/><path d="M148.529,7.61c0.488,0 0.978,-0 1.471,-0c0.493,-0 0.983,0 1.471,0l-0,84.289c-0.488,0.001 -0.979,0.001 -1.471,0.001c-0.492,-0 -0.983,-0 -1.471,-0.001l0,-84.289Z" style="fill:#b9d5f6;"/><g><rect x="115.198" y="20.866" width="71.829" height="62.182" style="fill:#1c2236;"/><rect x="115.198" y="20.866" width="71.829" height="62.182" style="fill:#e3e2c5;"/><rect x="123.959" y="30.147" width="54.1" height="33.816" style="fill:#1c518d;"/><path d="M123.959,44.337c18.78,-0.415 32.579,-5.417 37.2,-14.19l3.139,0c4.447,3.859 8.541,6.135 13.761,8.915l-0,3.776c-5.854,8.858 -15.412,15.707 -26.52,21.125l-7.335,0c-7.702,-5.396 -16.408,-9.634 -20.245,-16.954l-0,-2.672Z" style="fill:#e3e2c5;"/><path d="M124.263,47.566c-0.104,-0.184 -0.206,-0.369 -0.304,-0.557l-0,-2.672c18.78,-0.415 32.579,-5.417 37.2,-14.19l2.531,0c-0.316,5.621 -0.919,12.68 -1.681,16.908c-0.711,3.936 -2.586,3.856 -5.173,3.371c-10.389,-1.947 -21.948,-0.681 -32.573,-2.86Z" style="fill:#fafae6;"/><path d="M125.716,71.034c24.079,1.991 56.368,6.72 49.141,-3.671c-0.884,5.38 -14.293,3.53 -49.141,3.671Z" style="fill:#df5969;"/><path d="M169.851,67.363c0.69,2.578 -17.215,1.658 -39.046,-0l39.046,-0Z" style="fill:#df5969;"/><path d="M187.028,20.866l-0,62.182l-71.83,-0l0,-62.182l71.83,-0Zm-5.574,5.573l-60.682,-0c-0,-0 -0,51.036 -0,51.036l60.682,-0l0,-51.036Z" style="fill:#1c2236;"/></g></g></g></svg>