<?xml version="1.0" encoding="UTF-8" standalone="no"?><!DOCTYPE svg PUBLIC "-//W3C//DTD SVG 1.1//EN" "http://www.w3.org/Graphics/SVG/1.1/DTD/svg11.dtd"><svg width="100%" height="100%" viewBox="0 0 300 345" version="1.1" xmlns="http://www.w3.org/2000/svg" xmlns:xlink="http://www.w3.org/1999/xlink" xml:space="preserve" xmlns:serif="http://www.serif.com/" style="fill-rule:evenodd;clip-rule:evenodd;stroke-linejoin:round;stroke-miterlimit:2;"><g id="FlightAttendant"><g><path d="M210.054,26.2c8.99,-8.147 18.772,-13.597 29.495,-15.852c4.032,3.401 7.445,7.296 9.745,12.083c6.236,-3.9 12.473,-5.498 18.71,-5.587c6.7,7.361 11.447,16.374 13.643,27.546c-15.982,12.499 -32.914,22.717 -52.363,26.896c-9.623,-12.154 -16.19,-27.042 -19.23,-45.086Z" style="fill:#2c3b67;"/><path d="M229.284,71.286c-9.623,-12.154 -16.19,-27.042 -19.23,-45.086c8.99,-8.147 18.772,-13.597 29.495,-15.852c4.032,3.401 7.445,7.296 9.745,12.083c0.112,-0.07 0.224,-0.139 0.336,-0.208c-1.328,11.354 -8.442,17.37 -8.911,24.989c-5.404,5.636 -9.496,13.241 -11.435,24.074Z" style="fill:#1d2642;"/><path d="M278.743,34.228c1.22,3.174 2.195,6.555 2.904,10.162c-15.982,12.499 -32.914,22.717 -52.363,26.896c-9.623,-12.154 -16.19,-27.042 -19.23,-45.086c3.519,-3.189 7.159,-5.964 10.929,-8.297c-1.657,3.102 0.056,6.884 0.995,10.246c2.732,9.789 6.329,21.365 12.355,28.676c10.491,-1.976 22.269,-5.847 39.355,-17.541c2.569,-1.759 4.327,-3.288 5.055,-5.056Z" style="fill:#00081e;fill-opacity:0.25;"/><path d="M236.587,9.461c0.489,-0.989 1.69,-1.395 2.679,-0.906c0.99,0.489 1.396,1.69 0.907,2.679c-3.32,6.713 -4.615,19.398 -3.084,27.259c0.301,1.545 0.707,2.891 1.256,3.933c0.376,0.714 0.777,1.28 1.333,1.515c0.358,0.151 0.872,-0.032 1.526,-0.235c1.103,-0.342 2.409,-0.975 3.844,-1.842c7.151,-4.32 17.184,-14.3 20.922,-25.952c0.337,-1.051 1.464,-1.631 2.515,-1.294c1.052,0.338 1.631,1.465 1.294,2.516c-4.052,12.633 -14.909,23.47 -22.663,28.154c-2.141,1.294 -4.071,2.129 -5.588,2.471c-1.411,0.317 -2.57,0.22 -3.407,-0.134c-1.072,-0.453 -2.034,-1.29 -2.826,-2.502c-0.937,-1.432 -1.663,-3.453 -2.132,-5.866c-1.674,-8.594 -0.205,-22.457 3.424,-29.796Z" style="fill:#e9dba9;"/><path d="M236.139,9.24c0.611,-1.237 2.112,-1.745 3.349,-1.133c1.237,0.611 1.744,2.112 1.133,3.349c-3.281,6.634 -4.554,19.172 -3.041,26.941c0.29,1.491 0.678,2.791 1.207,3.795c0.314,0.596 0.621,1.092 1.086,1.288c0.098,0.042 0.217,0.015 0.357,-0.013c0.241,-0.05 0.517,-0.142 0.825,-0.238c1.072,-0.333 2.34,-0.95 3.734,-1.792c7.076,-4.276 17.007,-14.148 20.705,-25.678c0.422,-1.314 1.83,-2.038 3.144,-1.617c1.314,0.422 2.039,1.831 1.617,3.145c-4.092,12.755 -15.051,23.699 -22.88,28.429c-2.197,1.328 -4.18,2.18 -5.737,2.53c-1.537,0.347 -2.8,0.225 -3.712,-0.16c-1.155,-0.488 -2.196,-1.384 -3.05,-2.689c-0.965,-1.477 -1.72,-3.557 -2.204,-6.044c-1.691,-8.686 -0.201,-22.696 3.467,-30.113Zm0.896,0.443c-3.59,7.261 -5.037,20.976 -3.382,29.479c0.456,2.338 1.152,4.299 2.06,5.688c0.731,1.118 1.613,1.897 2.603,2.315c0.762,0.322 1.818,0.395 3.102,0.106c1.478,-0.333 3.355,-1.151 5.439,-2.411c7.679,-4.639 18.433,-15.369 22.446,-27.879c0.253,-0.788 -0.182,-1.634 -0.97,-1.886c-0.789,-0.253 -1.634,0.181 -1.887,0.97c-3.777,11.774 -13.913,21.861 -21.14,26.227c-1.475,0.892 -2.82,1.54 -3.954,1.892c-0.423,0.131 -0.792,0.251 -1.103,0.293c-0.293,0.041 -0.548,0.017 -0.765,-0.075c-0.649,-0.275 -1.143,-0.911 -1.582,-1.743c-0.567,-1.079 -0.992,-2.471 -1.304,-4.071c-1.548,-7.952 -0.232,-20.784 3.126,-27.575c0.367,-0.743 0.063,-1.643 -0.679,-2.01c-0.742,-0.367 -1.643,-0.062 -2.01,0.68Z" style="fill:#d1be7a;"/><path d="M300,80.066c0.101,-5.445 -0.797,-10.045 -2.541,-13.929c-2.533,-5.64 -5.015,-14.223 -6.646,-23.964c-0.821,-4.906 -4.278,-7.144 -8.622,-4.684c-14.836,10.347 -29.942,20.078 -47.273,24.721c-5.977,-0.794 -12.983,-16.987 -20.024,-42.975c-1.007,-3.715 -5.126,-5.599 -9.58,-2.329c-12.39,9.096 -25.055,20.587 -36.656,27.741c11.511,25.063 27.939,45.788 48.498,62.867c28.391,1.899 56.049,-6.639 82.844,-27.448Z" style="fill:#2c3b67;"/><path d="M234.918,62.21c-0.01,2.032 -1.602,4.539 -5.076,7.611c-2.795,2.471 -8.296,16.721 -10.822,28.975c-0.62,3.005 -0.799,6.814 -2.338,8.323c-20.338,-17.003 -36.601,-37.602 -48.024,-62.472c11.601,-7.154 24.266,-18.645 36.656,-27.741c4.454,-3.27 8.573,-1.386 9.58,2.329c7.041,25.988 14.047,42.181 20.024,42.975Z" style="fill:#1d2642;"/><path d="M176.893,39.048c4.166,17.242 24.485,43.759 41.381,57.9c1.164,0.961 2.607,1.52 4.115,1.596c31.312,1.475 55.185,-11.05 76.493,-28.404c0.798,2.949 1.186,6.244 1.118,9.926c-26.795,20.809 -54.453,29.347 -82.844,27.448c-20.559,-17.079 -36.987,-37.804 -48.498,-62.867c2.693,-1.66 5.444,-3.555 8.235,-5.599Zm113.38,1.108c-16.631,14.722 -35.377,25.371 -54.158,29.862c-3.793,0.88 -7.739,-0.645 -9.956,-3.846c-8.791,-13.562 -14.654,-31.668 -20.845,-49.266c4.454,-3.27 8.573,-1.386 9.58,2.329c7.041,25.988 14.047,42.181 20.024,42.975c17.331,-4.643 32.437,-14.374 47.273,-24.721c3.694,-2.092 6.746,-0.787 8.082,2.667Z" style="fill:#e9dba9;"/><path d="M176.893,39.048c4.166,17.242 24.485,43.759 41.381,57.9c1.164,0.961 2.607,1.52 4.115,1.596c31.312,1.475 55.185,-11.05 76.493,-28.404c0.798,2.949 1.186,6.244 1.118,9.926c-26.795,20.809 -54.453,29.347 -82.844,27.448c-20.559,-17.079 -36.987,-37.804 -48.498,-62.867c2.693,-1.66 5.444,-3.555 8.235,-5.599Zm-0.959,2.727c-1.741,1.238 -3.465,2.41 -5.167,3.497c11.294,24.077 27.213,44.074 47.032,60.631c27.601,1.717 54.489,-6.606 80.559,-26.654c0,-2.198 -0.173,-4.249 -0.51,-6.162c-21.092,16.729 -44.785,28.553 -75.539,27.105l-0.003,-0c-1.862,-0.094 -3.644,-0.785 -5.086,-1.975l-0.005,-0.004c-16.393,-13.72 -35.913,-38.96 -41.281,-56.438Zm114.339,-1.619c-16.631,14.722 -35.377,25.371 -54.158,29.862c-3.793,0.88 -7.739,-0.645 -9.956,-3.846c-8.791,-13.562 -14.654,-31.668 -20.845,-49.266c4.454,-3.27 8.573,-1.386 9.58,2.329c7.041,25.988 14.047,42.181 20.024,42.975c17.331,-4.643 32.437,-14.374 47.273,-24.721c3.694,-2.092 6.746,-0.787 8.082,2.667Zm-2.033,-0.41c-0.434,-0.698 -0.992,-1.205 -1.678,-1.449c-0.993,-0.355 -2.18,-0.138 -3.494,0.592c-14.973,10.44 -30.233,20.228 -47.723,24.915l-0.318,0.085l-0.326,-0.043c-2.119,-0.282 -4.47,-2.05 -6.776,-5.427c-4.614,-6.76 -9.628,-20.317 -14.624,-38.753c-0.347,-1.283 -1.206,-2.274 -2.389,-2.638c-1.045,-0.321 -2.285,-0.155 -3.609,0.562c5.984,17.071 11.712,34.518 20.241,47.683c1.836,2.617 5.076,3.86 8.193,3.139c18.184,-4.349 36.324,-14.563 52.503,-28.666Z" style="fill:#d1be7a;"/><path d="M206.436,82.78c-1.311,-0.914 -2.283,-2.262 -2.722,-3.833l-0.002,-0.009c-0.057,-0.202 -0.047,-0.413 0.021,-0.603c0,-0.002 0.001,-0.004 0.002,-0.005c0.006,-0.017 0.012,-0.034 0.019,-0.05l0.515,-1.304c0.005,-0.014 0.011,-0.029 0.017,-0.043c0.055,-0.132 0.14,-0.252 0.25,-0.352c0.013,-0.012 0.026,-0.023 0.04,-0.034c-0.026,-0.071 -0.05,-0.143 -0.072,-0.216l-0.391,-1.274c-0.074,-0.242 -0.052,-0.498 0.053,-0.718l0.042,-0.107l0.445,-1.129c0.012,-0.034 0.025,-0.068 0.04,-0.101c0.049,-0.109 0.119,-0.21 0.208,-0.297c-0.026,-0.067 -0.05,-0.134 -0.073,-0.202l-0.466,-1.384c-0.071,-0.21 -0.068,-0.434 0,-0.636c0.011,-0.03 0.023,-0.06 0.036,-0.09l0.514,-1.306c0.053,-0.133 0.134,-0.254 0.241,-0.356c0.28,-0.267 0.69,-0.346 1.05,-0.204l15.877,6.266c1.651,-0.522 3.485,-0.502 5.22,0.182c0.169,0.067 0.335,0.14 0.497,0.217c0.673,0.32 1.281,0.727 1.816,1.201c0.656,0.582 1.202,1.264 1.624,2.014l15.877,6.266c0.36,0.142 0.605,0.48 0.628,0.867c0.008,0.147 -0.016,0.291 -0.068,0.424l-0.552,1.396c-0.088,0.194 -0.239,0.359 -0.434,0.464l-1.285,0.693c-0.063,0.034 -0.127,0.066 -0.192,0.097c0.006,0.124 -0.012,0.246 -0.051,0.36c-0.012,0.034 -0.026,0.068 -0.04,0.101l-0.234,0.594l-0.254,0.641c-0.074,0.233 -0.232,0.434 -0.452,0.56l-1.155,0.664c-0.066,0.038 -0.133,0.074 -0.2,0.109c0.002,0.017 0.004,0.035 0.005,0.052c0.013,0.148 -0.008,0.294 -0.057,0.428c-0.006,0.015 -0.011,0.029 -0.017,0.043l-0.515,1.304c-0.006,0.017 -0.013,0.033 -0.019,0.049c-0.08,0.188 -0.218,0.351 -0.399,0.461l-0.008,0.005c-1.86,1.13 -4.142,1.325 -6.167,0.526l-9.188,-3.627c-0.953,0.326 -1.97,0.469 -2.998,0.406c-0.8,-0.048 -1.606,-0.222 -2.391,-0.532c-1.306,-0.516 -2.395,-1.344 -3.217,-2.366c-0.307,-0.382 -0.577,-0.792 -0.807,-1.223l-9.188,-3.626c-0.507,-0.2 -0.984,-0.457 -1.423,-0.763Z" style="fill:#000924;fill-opacity:0.5;"/><g><path d="M217.774,85.117l-9.188,-3.627c-2.025,-0.799 -3.559,-2.5 -4.145,-4.596l-0.003,-0.009c-0.102,-0.364 0.011,-0.754 0.292,-1.007c0.28,-0.253 0.68,-0.325 1.031,-0.186l0.283,0.111c-0.363,-0.446 -0.641,-0.962 -0.814,-1.525l-0.39,-1.274c-0.112,-0.365 -0.005,-0.762 0.276,-1.022c0.28,-0.259 0.685,-0.335 1.04,-0.195l0.172,0.068c-0.336,-0.414 -0.6,-0.888 -0.774,-1.405l-0.465,-1.383c-0.124,-0.367 -0.023,-0.772 0.257,-1.039c0.281,-0.266 0.691,-0.346 1.051,-0.204l15.749,6.216c1.694,-0.579 3.595,-0.582 5.389,0.126c1.795,0.709 3.181,2.009 4.024,3.589l15.749,6.216c0.36,0.142 0.605,0.48 0.627,0.866c0.023,0.386 -0.18,0.751 -0.521,0.935l-1.284,0.692c-0.48,0.259 -0.997,0.425 -1.525,0.498l0.171,0.068c0.356,0.14 0.599,0.472 0.627,0.853c0.028,0.381 -0.165,0.744 -0.496,0.935l-1.155,0.663c-0.511,0.294 -1.067,0.481 -1.636,0.559l0.282,0.112c0.352,0.138 0.594,0.464 0.626,0.84c0.032,0.377 -0.151,0.739 -0.474,0.935l-0.008,0.005c-1.86,1.13 -4.142,1.325 -6.167,0.526l-9.188,-3.626c-1.695,0.578 -3.595,0.581 -5.39,-0.127c-1.794,-0.708 -3.18,-2.008 -4.023,-3.588Z" style="fill:#9a9a9a;"/><path d="M247.85,85.307l-42.762,-16.877l0.551,-1.396l42.762,16.877l-0.551,1.396Zm-2.515,3.01l-40.466,-15.971l0.551,-1.396l40.466,15.971l-0.551,1.396Zm-2.386,3.15l-38.488,-15.19l0.551,-1.396l38.488,15.19l-0.551,1.396Z" style="fill:#9a9a9a;"/><path d="M245.138,85.612l0.171,0.068c0.356,0.14 0.599,0.472 0.627,0.853c0.028,0.381 -0.165,0.744 -0.496,0.935l-1.155,0.663c-0.511,0.294 -1.067,0.481 -1.636,0.559l0.282,0.112c0.351,0.138 0.594,0.464 0.626,0.84c0.032,0.377 -0.152,0.739 -0.474,0.935l-0.008,0.005c-1.86,1.13 -4.142,1.325 -6.167,0.526l-27.789,-10.968c-2.025,-0.799 -3.559,-2.5 -4.145,-4.596l-0.003,-0.009c-0.102,-0.364 0.011,-0.754 0.292,-1.007c0.28,-0.253 0.68,-0.325 1.031,-0.186l0.283,0.111c-0.363,-0.446 -0.641,-0.962 -0.814,-1.525l-0.39,-1.274c-0.112,-0.365 -0.005,-0.762 0.276,-1.022c0.28,-0.259 0.685,-0.335 1.04,-0.195l0.172,0.068c-0.336,-0.414 -0.6,-0.888 -0.774,-1.405l-0.465,-1.383c-0.124,-0.367 -0.023,-0.772 0.257,-1.039c0.281,-0.266 0.691,-0.346 1.051,-0.204l40.91,16.147c0.36,0.142 0.605,0.48 0.628,0.866c0.023,0.386 -0.18,0.751 -0.521,0.935l-1.285,0.692c-0.48,0.259 -0.996,0.425 -1.524,0.498Z" style="fill:#b6b6b6;"/><path d="M242.447,90.257c-0.025,0.014 -0.051,0.028 -0.077,0.041l-0.087,-1.018c0.003,-0.001 0.005,-0.003 0.008,-0.005c0.138,-0.083 0.161,0.487 0.156,0.982Zm-36.765,-14.439c-0,-0.001 -0.001,-0.002 -0.001,-0.004l0.757,-0.689c0.001,0.003 0.002,0.006 0.003,0.009l-0.759,0.684Zm1.186,0.388l34.371,13.566c-1.215,0.42 -2.553,0.4 -3.772,-0.081l-27.789,-10.968c-1.219,-0.481 -2.21,-1.38 -2.81,-2.517Zm0.56,-7.897l38.795,15.311l-0.283,0.153c-0.777,0.418 -1.698,0.473 -2.519,0.149l-34.152,-13.479c-0.821,-0.324 -1.457,-0.993 -1.738,-1.829l-0.103,-0.305Zm-0.277,3.948l36.578,14.437l-0.203,0.117c-0.79,0.453 -1.743,0.523 -2.591,0.189l-31.952,-12.611c-0.848,-0.335 -1.496,-1.037 -1.763,-1.907l-0.069,-0.225Z" style="fill:#ccc;"/><path d="M206.861,70.505c-0.336,-0.414 -0.6,-0.888 -0.774,-1.405l-0.465,-1.383c-0.124,-0.367 -0.023,-0.772 0.257,-1.039c0.281,-0.266 0.691,-0.346 1.051,-0.204l40.91,16.147c0.36,0.142 0.605,0.48 0.628,0.866c0.023,0.386 -0.18,0.751 -0.521,0.935l-1.285,0.692c-0.48,0.259 -0.996,0.425 -1.524,0.498l0.171,0.068c0.356,0.14 0.599,0.472 0.627,0.853c0.028,0.381 -0.165,0.744 -0.496,0.935l-1.155,0.663c-0.511,0.294 -1.067,0.481 -1.636,0.559l0.282,0.112c0.351,0.138 0.594,0.464 0.626,0.84c0.032,0.377 -0.152,0.739 -0.474,0.935l-0.008,0.005c-1.86,1.13 -4.142,1.325 -6.167,0.526l-27.789,-10.968c-2.025,-0.799 -3.559,-2.5 -4.145,-4.596l-0.003,-0.009c-0.102,-0.364 0.011,-0.754 0.292,-1.007c0.28,-0.253 0.68,-0.325 1.031,-0.186l0.283,0.111c-0.363,-0.446 -0.641,-0.962 -0.814,-1.525l-0.39,-1.274c-0.112,-0.365 -0.005,-0.762 0.276,-1.022c0.28,-0.259 0.685,-0.335 1.04,-0.195l0.172,0.068Zm38.283,16.449c0.134,-0.077 0.213,-0.224 0.201,-0.378c-0.011,-0.154 -0.11,-0.288 -0.253,-0.345l-38.62,-15.243c-0.144,-0.056 -0.308,-0.026 -0.421,0.079c-0.114,0.105 -0.157,0.266 -0.112,0.414l0.391,1.273c0.349,1.142 1.2,2.062 2.311,2.501l31.953,12.611c1.11,0.438 2.36,0.347 3.395,-0.248l1.155,-0.664Zm-2.369,3.117c0.13,-0.08 0.205,-0.226 0.192,-0.378c-0.013,-0.153 -0.111,-0.284 -0.253,-0.34l-36.637,-14.46c-0.142,-0.056 -0.304,-0.027 -0.417,0.075c-0.114,0.103 -0.16,0.26 -0.118,0.408l0.002,0.008c0.537,1.918 1.94,3.474 3.792,4.205l27.789,10.968c1.853,0.731 3.94,0.553 5.642,-0.482l0.008,-0.004Zm4.891,-6.171c0.138,-0.074 0.22,-0.222 0.211,-0.378c-0.009,-0.156 -0.108,-0.293 -0.254,-0.35l-40.911,-16.147c-0.145,-0.057 -0.311,-0.025 -0.425,0.083c-0.113,0.107 -0.154,0.271 -0.104,0.42l0.466,1.383c0.369,1.096 1.202,1.974 2.278,2.398l34.152,13.479c1.076,0.425 2.284,0.353 3.302,-0.196l1.285,-0.692Z" style="fill:#dfdfdf;"/><path d="M228.026,72.923c4.012,1.583 5.984,6.126 4.4,10.138c-1.583,4.012 -6.126,5.984 -10.138,4.4c-4.012,-1.583 -5.983,-6.126 -4.4,-10.138c1.583,-4.012 6.126,-5.984 10.138,-4.4Z" style="fill:#b6b6b6;"/><g transform="matrix(0.977356,0.211601,-0.211601,0.977356,-44.6279,-18.1795)"><g transform="matrix(12.7323,0,0,12.7323,289.329,43.4968)"></g><text x="280.353px" y="43.497px" style="font-family:'TitanOne', 'Titan One';font-size:12.732px;fill:#dfdfdf;">B</text></g><path d="M228.026,72.923c4.012,1.583 5.984,6.126 4.4,10.138c-1.583,4.012 -6.126,5.984 -10.138,4.4c-4.012,-1.583 -5.983,-6.126 -4.4,-10.138c1.583,-4.012 6.126,-5.984 10.138,-4.4Zm-0.217,0.551c-3.708,-1.464 -7.907,0.359 -9.37,4.066c-1.463,3.708 0.359,7.907 4.067,9.37c3.708,1.464 7.906,-0.359 9.369,-4.067c1.464,-3.707 -0.358,-7.906 -4.066,-9.369Z" style="fill:#dfdfdf;"/><path d="M204.935,72.179l0.445,-1.129c0.012,-0.034 0.025,-0.067 0.04,-0.1c0.049,-0.11 0.119,-0.211 0.208,-0.298c-0.026,-0.067 -0.051,-0.134 -0.074,-0.202l-0.465,-1.383c-0.071,-0.211 -0.069,-0.434 -0,-0.637l0.55,-1.396c0.052,-0.132 0.133,-0.254 0.24,-0.356c0.281,-0.266 0.691,-0.346 1.051,-0.204l7.437,2.935c-5.01,1.399 -7.16,1.926 -9.432,2.77Zm40.677,15.437l-0.253,0.641c-0.074,0.233 -0.233,0.435 -0.452,0.561l-1.155,0.663c-0.066,0.038 -0.133,0.075 -0.201,0.109c0.003,0.017 0.005,0.035 0.006,0.052c0.013,0.148 -0.008,0.294 -0.058,0.429c-0.005,0.014 -0.011,0.028 -0.016,0.042l-0.515,1.304c-0.006,0.017 -0.013,0.033 -0.02,0.05c-0.08,0.188 -0.217,0.35 -0.398,0.46l-0.008,0.005c-1.86,1.13 -4.142,1.325 -6.167,0.526l-0.897,-0.354c2.683,-1.354 6.557,-3.016 10.134,-4.488Zm-16.176,2.103l-2.249,-0.887c-0.953,0.325 -1.971,0.468 -2.998,0.406c5.569,-2.952 12.853,-6.385 18.113,-8.803l3.955,1.561c-1.835,0.753 -3.861,1.594 -7.672,3.332c-4.878,2.226 -7.573,3.557 -9.149,4.391Zm0.903,-15.379c0.656,0.582 1.203,1.265 1.625,2.014l5.114,2.019c-5.791,2.317 -11.858,4.785 -18.497,7.966c-0.307,-0.382 -0.577,-0.792 -0.807,-1.222l-8.519,-3.362c1.585,-0.471 3.761,-1.149 8.173,-2.833c4.337,-1.656 8.782,-3.14 12.911,-4.582Zm-23.176,6.387c-1.311,-0.913 -2.283,-2.262 -2.722,-3.833l-0.003,-0.009c-0.056,-0.202 -0.047,-0.412 0.021,-0.603c3.69,-1.182 9.173,-2.737 15.497,-4.667l2.85,1.125c1.652,-0.522 3.485,-0.502 5.22,0.183c0.17,0.067 0.336,0.139 0.498,0.216c-7.857,2.991 -17.559,6.249 -21.361,7.588Z" style="fill:#fff;fill-opacity:0.15;"/></g></g></g></svg>