<?xml version="1.0" encoding="UTF-8" standalone="no"?><!DOCTYPE svg PUBLIC "-//W3C//DTD SVG 1.1//EN" "http://www.w3.org/Graphics/SVG/1.1/DTD/svg11.dtd"><svg width="100%" height="100%" viewBox="0 0 300 345" version="1.1" xmlns="http://www.w3.org/2000/svg" xmlns:xlink="http://www.w3.org/1999/xlink" xml:space="preserve" xmlns:serif="http://www.serif.com/" style="fill-rule:evenodd;clip-rule:evenodd;stroke-linejoin:round;stroke-miterlimit:2;"><g id="Boss"><g id="Boss-Head" serif:id="Boss Head"><path d="M141.445,26.12l0,-4.135l0.005,-0c0.007,-0.123 0.022,-0.244 0.044,-0.364c0.456,-2.527 4.093,-4.498 8.506,-4.498c4.413,-0 8.05,1.971 8.506,4.498c0.022,0.12 0.037,0.241 0.044,0.364l0.005,-0l-0,4.135c-0,2.779 -3.834,5.036 -8.555,5.036c-4.721,-0 -8.555,-2.257 -8.555,-5.036Zm-47.649,-0l-0,-4.135l0.005,-0c0.007,-0.123 0.022,-0.244 0.043,-0.364c0.456,-2.527 4.093,-4.498 8.507,-4.498c4.413,-0 8.05,1.971 8.506,4.498c0.022,0.12 0.036,0.241 0.043,0.364l0.005,-0l0,4.135c0,2.779 -3.833,5.036 -8.554,5.036c-4.722,-0 -8.555,-2.257 -8.555,-5.036Zm-46.531,-0l0,-4.135l0.005,-0c0.007,-0.123 0.022,-0.244 0.043,-0.364c0.457,-2.527 4.094,-4.498 8.507,-4.498c4.413,-0 8.05,1.971 8.506,4.498c0.022,0.12 0.036,0.241 0.043,0.364l0.005,-0l0,4.135c0,2.779 -3.833,5.036 -8.554,5.036c-4.722,-0 -8.555,-2.257 -8.555,-5.036Zm-39.923,10.015c-0.751,-2.536 1.354,-6.471 4.974,-9.104c3.619,-2.634 7.479,-3.038 8.978,-1.048c0.072,0.095 0.137,0.195 0.198,0.3l0.004,-0.003l1.841,3.703c1.237,2.489 -0.902,6.797 -4.775,9.614c-3.872,2.817 -8.02,3.084 -9.257,0.595l-1.841,-3.703l0.004,-0.003c-0.048,-0.114 -0.091,-0.231 -0.126,-0.351Zm181.763,-14.15c0.007,-0.123 0.021,-0.244 0.043,-0.364c0.456,-2.527 4.093,-4.498 8.506,-4.498c4.413,-0 8.05,1.971 8.507,4.498c0.021,0.12 0.036,0.241 0.043,0.364l0.005,-0l-0,4.135c-0,2.779 -3.833,5.036 -8.555,5.036c-4.721,-0 -8.554,-2.257 -8.554,-5.036l-0,-4.135l0.005,-0Zm46.531,-0c0.007,-0.123 0.021,-0.244 0.043,-0.364c0.456,-2.527 4.093,-4.498 8.506,-4.498c4.413,-0 8.05,1.971 8.506,4.498c0.022,0.12 0.037,0.241 0.044,0.364l0.005,-0l-0,4.135c-0,2.779 -3.834,5.036 -8.555,5.036c-4.721,-0 -8.555,-2.257 -8.555,-5.036l0,-4.135l0.006,-0Zm42.873,4.295l0.004,0.003c0.06,-0.105 0.126,-0.205 0.197,-0.3c1.499,-1.99 5.36,-1.586 8.979,1.048c3.619,2.633 5.725,6.568 4.974,9.104c-0.036,0.12 -0.078,0.237 -0.126,0.351l0.004,0.003l-1.841,3.703c-1.237,2.489 -5.386,2.222 -9.258,-0.595c-3.872,-2.817 -6.011,-7.125 -4.774,-9.614l1.841,-3.703Z" style="fill:#3c526e;"/><path d="M171.183,156.512l-42.366,-0c-3.516,-0 -6.771,-1.854 -8.565,-4.877l-7.959,-13.409l-84.329,0l-7.959,13.409c-1.794,3.023 -5.049,4.877 -8.565,4.877l-11.438,-0l-0.002,-89.849c0,-20.078 16.301,-36.38 36.38,-36.38l227.24,0c20.079,0 36.38,16.302 36.38,36.38l-0.002,89.849l-11.438,-0c-3.516,-0 -6.771,-1.854 -8.565,-4.877l-7.959,-13.409l-84.329,0l-7.959,13.409c-1.794,3.023 -5.049,4.877 -8.565,4.877Z" style="fill:#5e2c10;"/><path d="M171.183,147.263l-42.366,-0c-3.516,-0 -6.771,-1.854 -8.565,-4.877l-7.959,-13.409l-84.329,0l-7.959,13.409c-1.794,3.023 -5.049,4.877 -8.565,4.877l-11.438,-0l-0.002,-89.849c0,-20.078 16.301,-36.38 36.38,-36.38l227.24,0c20.079,0 36.38,16.302 36.38,36.38l-0.002,89.849l-11.438,-0c-3.516,-0 -6.771,-1.854 -8.565,-4.877l-7.959,-13.409l-84.329,0l-7.959,13.409c-1.794,3.023 -5.049,4.877 -8.565,4.877Z" style="fill:#8e5029;"/><path d="M297.821,142.35l2.177,0l-0,4.913l-11.438,-0c-3.516,-0 -6.771,-1.854 -8.565,-4.877l-7.959,-13.409l-84.329,0l-7.959,13.409c-1.794,3.023 -5.049,4.877 -8.565,4.877l-42.366,-0c-3.516,-0 -6.771,-1.854 -8.565,-4.877l-7.959,-13.409l-84.329,0l-7.959,13.409c-1.794,3.023 -5.049,4.877 -8.565,4.877l-11.438,-0l0,-4.913l6.597,0c3.516,0 6.771,-1.853 8.565,-4.876l7.959,-13.409l15.666,-0c0.741,-1.319 2.525,-4.354 3.197,-4.175c1.089,0.29 2.031,2.804 2.465,4.175l71.9,-0l7.959,13.409c1.794,3.023 5.049,4.876 8.565,4.876l1.545,0c0.514,-1.623 1.572,-3.939 2.616,-4.102c1.258,-0.196 3.011,2.271 4.892,4.102l22.919,0c3.515,0 6.771,-1.853 8.565,-4.876l7.959,-13.409l93.716,-0l7.959,13.409c1.794,3.023 5.049,4.876 8.565,4.876l1.033,0c1.184,-1.97 1.98,-6.345 3.653,-4.586c0.278,0.292 0.31,0.325 1.524,4.586Z" style="fill:#cc9330;"/><path d="M87.488,32.203c0.35,8.549 5.578,15.239 18.456,19.015l-73.264,-0.559c-8.867,-0.293 -16.598,2.567 -21.699,10.738l-0,-8.725c0.516,-9.569 10.618,-19.182 21.028,-19.462l55.479,-1.007Zm110.342,0.069l71.141,0.938c10.41,0.28 20.512,9.893 21.028,19.462l0,8.725c-5.101,-8.171 -12.832,-11.031 -21.699,-10.738l-82.214,0.628c7.425,-4.196 11.395,-10.467 11.744,-19.015Zm0.597,80.659c-5.584,0 -7.012,-2.321 -5.598,-6.054c0.919,-2.424 3.114,-5.803 3.45,-9.438c0.259,-2.796 2.045,-4.439 4.557,-4.296c4.628,0.263 11.458,-0.649 15.622,-2.539c2.761,-1.252 5.581,-0.564 9.373,0.847c7.617,2.833 16.677,5.2 24.866,5.467c7.938,0.259 12.244,1.705 17.509,5.273c3.522,2.387 7.851,5.041 11.196,8.722c1.533,1.687 0.871,2.858 -2.018,2.929c-26.057,0.644 -52.969,-0.911 -78.957,-0.911Zm-92.886,2.734c-26.93,-0.041 -52.742,0.3 -79.803,0.13c-3.967,-0.025 -3.826,-3.559 -2.604,-5.207c2.402,-3.241 5.78,-5.336 8.397,-5.859c4.044,-0.808 5.935,-3.398 7.29,-5.272c1.91,-2.642 4.231,-4.262 6.9,-4.882c10.613,-2.465 22.98,-1.908 33.587,-2.148c2.075,-0.047 4.254,0.329 5.989,1.041c4.62,1.898 9.927,3.341 13.604,3.646c1.985,0.164 5.064,1.952 5.403,3.059c1.271,4.144 2.94,8.268 5.598,10.87c2.23,2.185 0.613,4.63 -4.361,4.622Z" style="fill:#a15a30;fill-opacity:0.5;"/><path d="M67.616,42.824c-4.625,0.001 -4.616,0.099 -11.072,-0.399c-7.902,-0.61 -9.447,-0.39 -26.248,0.439c-3.22,0.16 -2.564,-1.844 -1.244,-2.509c12.721,-6.403 17.3,-3.939 33.47,-3.914c3.653,0.006 9.112,0.214 8.589,2.313c-0.329,1.32 -0.482,2.266 -0.785,2.987c-0.382,0.908 -1.243,1.083 -2.71,1.083Zm11.977,0.864c-2.745,0.091 -4.856,1.049 -6.071,-1.224c-2.427,-4.543 6.9,-9.116 9.599,-4.56c3.333,5.626 -2.236,5.741 -3.528,5.784Zm129.483,-0.168c-3.845,0.134 -11.051,2.042 -9.473,-1.039c0.134,-0.262 0.269,-0.149 2.128,-2.993c0.605,-0.927 2.185,-4.566 31.542,-1.73c0.779,0.075 23.485,1.913 20.712,4.794c-1.241,1.29 -32.274,0.527 -44.909,0.968Zm-1.546,60.873c4.429,0.045 4.5,0.168 8.263,2.499c1.028,0.637 5.166,2.059 3.405,3.273c-0.501,0.345 -0.58,0 -7.595,0.417c-7.473,0.443 -7.364,-0.563 -9.931,-1.493c-2.361,-0.855 -2.854,-1.433 -1.615,-6.635c1.016,-4.267 5.301,-7.262 5.472,-3.273c0.079,1.835 0.012,4.456 0.126,4.601c0.289,0.367 1.186,0.604 1.875,0.611Zm-119.286,4.521c-0.073,-0.046 -2.868,-1.445 -2.222,-2.459c0.39,-0.613 1.935,-0.115 5.222,0.427c-0.26,-0.474 -2.315,-4.23 -2.247,-6.378c0.095,-3.004 2.825,-1.248 5.339,1.72c3.929,4.639 6.115,5.705 5.982,7.376c-0.141,1.79 -6.906,2.272 -8.59,2.283c-7.392,0.051 -7.383,0.253 -8.026,0.254c-14.281,0.024 -21.129,1.694 -22.548,0.264c-1.329,-1.339 3.559,-2.16 8.153,-3.38c9.774,-2.596 17.924,-0.488 18.937,-0.107Z" style="fill:#bf7c32;fill-opacity:0.25;"/><path d="M141.445,84.331l0,-4.135l0.005,-0c0.007,-0.123 0.022,-0.244 0.044,-0.364c0.456,-2.527 4.093,-4.498 8.506,-4.498c4.413,-0 8.05,1.971 8.506,4.498c0.022,0.12 0.037,0.241 0.044,0.364l0.005,-0l-0,4.135c-0,2.779 -3.834,5.036 -8.555,5.036c-4.721,-0 -8.555,-2.257 -8.555,-5.036Zm-47.649,-0l-0,-4.135l0.005,-0c0.007,-0.123 0.022,-0.244 0.043,-0.364c0.456,-2.527 4.093,-4.498 8.507,-4.498c4.413,-0 8.05,1.971 8.506,4.498c0.022,0.12 0.036,0.241 0.043,0.364l0.005,-0l0,4.135c0,2.779 -3.833,5.036 -8.554,5.036c-4.722,-0 -8.555,-2.257 -8.555,-5.036Zm-46.531,-0l0,-4.135l0.005,-0c0.007,-0.123 0.022,-0.244 0.043,-0.364c0.457,-2.527 4.094,-4.498 8.507,-4.498c4.413,-0 8.05,1.971 8.506,4.498c0.022,0.12 0.036,0.241 0.043,0.364l0.005,-0l0,4.135c0,2.779 -3.833,5.036 -8.554,5.036c-4.722,-0 -8.555,-2.257 -8.555,-5.036Zm-39.923,17.24c-0.751,-2.535 1.354,-6.471 4.974,-9.104c3.619,-2.633 7.479,-3.038 8.978,-1.047c0.072,0.094 0.137,0.194 0.198,0.299l0.004,-0.003l1.841,3.703c1.237,2.489 -0.902,6.797 -4.775,9.614c-3.872,2.817 -8.02,3.084 -9.257,0.595l-1.841,-3.703l0.004,-0.003c-0.048,-0.114 -0.091,-0.231 -0.126,-0.351Zm181.763,-21.375c0.007,-0.123 0.021,-0.244 0.043,-0.364c0.456,-2.527 4.093,-4.498 8.506,-4.498c4.413,-0 8.05,1.971 8.507,4.498c0.021,0.12 0.036,0.241 0.043,0.364l0.005,-0l-0,4.135c-0,2.779 -3.833,5.036 -8.555,5.036c-4.721,-0 -8.554,-2.257 -8.554,-5.036l-0,-4.135l0.005,-0Zm46.531,-0c0.007,-0.123 0.021,-0.244 0.043,-0.364c0.456,-2.527 4.093,-4.498 8.506,-4.498c4.413,-0 8.05,1.971 8.506,4.498c0.022,0.12 0.037,0.241 0.044,0.364l0.005,-0l-0,4.135c-0,2.779 -3.834,5.036 -8.555,5.036c-4.721,-0 -8.555,-2.257 -8.555,-5.036l0,-4.135l0.006,-0Zm42.873,11.52l0.004,0.003c0.06,-0.105 0.126,-0.205 0.197,-0.299c1.499,-1.991 5.36,-1.586 8.979,1.047c3.619,2.633 5.725,6.569 4.974,9.104c-0.036,0.12 -0.078,0.237 -0.126,0.351l0.004,0.003l-1.841,3.703c-1.237,2.489 -5.386,2.222 -9.258,-0.595c-3.872,-2.817 -6.011,-7.125 -4.774,-9.614l1.841,-3.703Z" style="fill:#763e1c;"/><g><g><path d="M141.445,81.343l0,-4.135l3.674,0c1.385,-0.568 3.067,-0.901 4.881,-0.901c1.814,0 3.496,0.333 4.881,0.901l3.674,0l-0,4.135c-0,2.78 -3.834,5.036 -8.555,5.036c-4.721,0 -8.555,-2.256 -8.555,-5.036Z" style="fill:#3c526e;"/><ellipse cx="150" cy="77.382" rx="8.555" ry="5.036" style="fill:#4d6482;"/><path d="M158.506,76.845c0.032,0.176 0.049,0.356 0.049,0.537c-0,2.78 -3.834,5.036 -8.555,5.036c-4.721,0 -8.555,-2.256 -8.555,-5.036c0,-0.181 0.017,-0.361 0.049,-0.537c0.456,2.527 4.093,4.498 8.506,4.498c4.413,0 8.05,-1.971 8.506,-4.498Z" style="fill:#879fbd;"/></g><g><path d="M93.796,81.343l-0,-4.135l3.673,0c1.385,-0.568 3.068,-0.901 4.882,-0.901c1.813,0 3.496,0.333 4.881,0.901l3.673,0l0,4.135c0,2.78 -3.833,5.036 -8.554,5.036c-4.722,0 -8.555,-2.256 -8.555,-5.036Z" style="fill:#3c526e;"/><ellipse cx="102.351" cy="77.382" rx="8.555" ry="5.036" style="fill:#4d6482;"/><path d="M110.857,76.845c0.032,0.176 0.048,0.356 0.048,0.537c0,2.78 -3.833,5.036 -8.554,5.036c-4.722,0 -8.555,-2.256 -8.555,-5.036c-0,-0.181 0.016,-0.361 0.048,-0.537c0.456,2.527 4.093,4.498 8.507,4.498c4.413,0 8.05,-1.971 8.506,-4.498Z" style="fill:#879fbd;"/></g><g><path d="M47.265,81.343l0,-4.135l3.674,0c1.384,-0.568 3.067,-0.901 4.881,-0.901c1.813,0 3.496,0.333 4.881,0.901l3.673,0l0,4.135c0,2.78 -3.833,5.036 -8.554,5.036c-4.722,0 -8.555,-2.256 -8.555,-5.036Z" style="fill:#3c526e;"/><ellipse cx="55.82" cy="77.382" rx="8.555" ry="5.036" style="fill:#4d6482;"/><path d="M64.326,76.845c0.032,0.176 0.048,0.356 0.048,0.537c0,2.78 -3.833,5.036 -8.554,5.036c-4.722,0 -8.555,-2.256 -8.555,-5.036c0,-0.181 0.016,-0.361 0.048,-0.537c0.457,2.527 4.094,4.498 8.507,4.498c4.413,0 8.05,-1.971 8.506,-4.498Z" style="fill:#879fbd;"/></g><g><path d="M9.305,102.641l-1.841,-3.703l3.013,-2.192c0.883,-1.335 2.114,-2.637 3.602,-3.719c1.487,-1.083 3.016,-1.789 4.404,-2.106l3.013,-2.192l1.841,3.703c1.237,2.489 -0.902,6.796 -4.775,9.614c-3.872,2.817 -8.02,3.083 -9.257,0.595Z" style="fill:#3c526e;"/><path d="M12.316,89.479c3.872,-2.817 8.02,-3.083 9.257,-0.594c1.237,2.488 -0.902,6.796 -4.774,9.614c-3.872,2.817 -8.02,3.083 -9.257,0.594c-1.238,-2.488 0.901,-6.796 4.774,-9.614Z" style="fill:#4d6482;"/><path d="M21.294,88.432c0.105,0.139 0.198,0.29 0.279,0.453c1.237,2.488 -0.902,6.796 -4.774,9.614c-3.872,2.817 -8.02,3.083 -9.257,0.594c-0.081,-0.162 -0.148,-0.332 -0.2,-0.51c1.499,1.991 5.359,1.586 8.979,-1.047c3.619,-2.633 5.724,-6.569 4.973,-9.104Z" style="fill:#879fbd;"/></g><g><path d="M206.209,81.343l-0,-4.135l-3.674,0c-1.384,-0.568 -3.067,-0.901 -4.881,-0.901c-1.814,0 -3.496,0.333 -4.881,0.901l-3.673,0l-0,4.135c-0,2.78 3.833,5.036 8.554,5.036c4.722,0 8.555,-2.256 8.555,-5.036Z" style="fill:#3c526e;"/><ellipse cx="197.654" cy="77.382" rx="8.555" ry="5.036" style="fill:#4d6482;"/><path d="M189.148,76.845c-0.032,0.176 -0.048,0.356 -0.048,0.537c-0,2.78 3.833,5.036 8.554,5.036c4.722,0 8.555,-2.256 8.555,-5.036c-0,-0.181 -0.017,-0.361 -0.048,-0.537c-0.457,2.527 -4.094,4.498 -8.507,4.498c-4.413,0 -8.05,-1.971 -8.506,-4.498Z" style="fill:#879fbd;"/></g><g><path d="M252.74,81.343l-0,-4.135l-3.674,0c-1.384,-0.568 -3.067,-0.901 -4.881,-0.901c-1.814,0 -3.496,0.333 -4.881,0.901l-3.674,0l0,4.135c0,2.78 3.834,5.036 8.555,5.036c4.721,0 8.555,-2.256 8.555,-5.036Z" style="fill:#3c526e;"/><ellipse cx="244.185" cy="77.382" rx="8.555" ry="5.036" style="fill:#4d6482;"/><path d="M235.679,76.845c-0.032,0.176 -0.049,0.356 -0.049,0.537c0,2.78 3.834,5.036 8.555,5.036c4.721,0 8.555,-2.256 8.555,-5.036c-0,-0.181 -0.017,-0.361 -0.049,-0.537c-0.456,2.527 -4.093,4.498 -8.506,4.498c-4.413,0 -8.05,-1.971 -8.506,-4.498Z" style="fill:#879fbd;"/></g><g><path d="M290.7,102.641l1.841,-3.703l-3.013,-2.192c-0.883,-1.335 -2.115,-2.637 -3.602,-3.719c-1.488,-1.083 -3.016,-1.789 -4.404,-2.106l-3.013,-2.192l-1.841,3.703c-1.237,2.489 0.902,6.796 4.774,9.614c3.872,2.817 8.021,3.083 9.258,0.595Z" style="fill:#3c526e;"/><path d="M287.689,89.479c-3.872,-2.817 -8.02,-3.083 -9.257,-0.594c-1.238,2.488 0.901,6.796 4.774,9.614c3.872,2.817 8.02,3.083 9.257,0.594c1.237,-2.488 -0.902,-6.796 -4.774,-9.614Z" style="fill:#4d6482;"/><path d="M278.71,88.432c-0.104,0.139 -0.198,0.29 -0.278,0.453c-1.238,2.488 0.901,6.796 4.774,9.614c3.872,2.817 8.02,3.083 9.257,0.594c0.081,-0.162 0.147,-0.332 0.2,-0.51c-1.499,1.991 -5.36,1.586 -8.979,-1.047c-3.619,-2.633 -5.725,-6.569 -4.974,-9.104Z" style="fill:#879fbd;"/></g></g><path d="M171.183,147.263l-42.366,-0c-3.516,-0 -6.771,-1.854 -8.565,-4.877l-7.959,-13.409l-84.329,0l-7.959,13.409c-1.794,3.023 -5.049,4.877 -8.565,4.877l-11.438,-0l-0.002,-89.849c0,-20.078 16.301,-36.38 36.38,-36.38l227.24,0c20.079,0 36.38,16.302 36.38,36.38l-0.002,89.849l-11.438,-0c-3.516,-0 -6.771,-1.854 -8.565,-4.877l-7.959,-13.409l-84.329,0l-7.959,13.409c-1.794,3.023 -5.049,4.877 -8.565,4.877Zm0,-2c2.81,-0 5.411,-1.481 6.845,-3.897l8.54,-14.389l86.606,0l8.541,14.389c1.434,2.416 4.035,3.897 6.845,3.897c-0,-0 9.438,-0 9.438,-0l0.002,-87.849c-0,-18.975 -15.405,-34.38 -34.38,-34.38l-227.24,0c-18.975,0 -34.38,15.405 -34.38,34.38l0.002,87.849l9.438,-0c2.81,-0 5.411,-1.481 6.845,-3.897l8.541,-14.389l86.606,0l8.54,14.389c1.434,2.416 4.035,3.897 6.845,3.897l42.366,-0Z" style="fill:#421600;"/><path d="M263.62,67.577l-227.24,0c-20.079,0 -36.38,16.302 -36.38,36.38l0,-8.847c0,-20.079 16.301,-36.38 36.38,-36.38l227.24,-0c20.079,-0 36.38,16.301 36.38,36.38l0,8.847c0,-20.078 -16.301,-36.38 -36.38,-36.38Z" style="fill:#5e2c10;"/><g><ellipse cx="150" cy="99.246" rx="36.465" ry="22.284" style="fill:#763e1c;"/><path d="M149.998,116.064c-17.264,-0 -31.28,-8.566 -31.28,-19.116c-0,-2.467 0.766,-4.824 2.16,-6.989c1.194,-1.856 2.85,-3.57 4.881,-5.089l17.963,-18.729c1.072,-1.467 3.48,-2.49 6.276,-2.491l0.002,0c2.796,0.001 5.204,1.024 6.276,2.491l17.963,18.729c2.031,1.519 3.686,3.233 4.881,5.089c1.394,2.165 2.16,4.522 2.16,6.989c-0,10.55 -14.016,19.116 -31.28,19.116l-0.002,0Z" style="fill:#4f6684;"/><path d="M149.998,117.876c-10.841,-0.001 -20.442,-3.283 -26.401,-8.25c-4.251,-3.544 -6.69,-7.952 -6.69,-12.678c-0,-2.811 0.859,-5.502 2.448,-7.97c1.28,-1.987 3.038,-3.832 5.198,-5.467c-0,-0 17.787,-18.546 17.785,-18.543c1.365,-1.771 4.253,-3.128 7.66,-3.129l0.001,1.811c-2.796,0.001 -5.205,1.024 -6.277,2.491l-17.963,18.729c-2.031,1.519 -3.687,3.233 -4.881,5.089c-1.394,2.165 -2.16,4.522 -2.16,6.989c-0,10.55 14.016,19.116 31.28,19.116c17.264,-0 31.282,-8.566 31.282,-19.116c-0,-2.467 -0.766,-4.824 -2.16,-6.989c-1.195,-1.856 -2.85,-3.57 -4.881,-5.089l-17.963,-18.729c-1.072,-1.467 -3.48,-2.49 -6.277,-2.491l0.001,-1.811c3.408,0.001 6.297,1.359 7.658,3.126c-0,-0 17.787,18.546 17.783,18.543c2.162,1.636 3.922,3.482 5.202,5.47c1.589,2.468 2.448,5.159 2.448,7.97c0,4.726 -2.439,9.134 -6.69,12.678c-5.959,4.967 -15.56,8.249 -26.401,8.25l-0.002,-0Z" style="fill:#19232f;"/><path d="M141.955,69.273c-0,0 -18.119,17.035 -16.196,15.597l17.256,-17.992c0.044,2.332 3.156,4.218 6.983,4.218c3.828,-0 6.941,-1.887 6.983,-4.22l17.258,17.994c1.921,1.437 -16.196,-15.599 -16.196,-15.599c-0.048,2.548 -3.634,4.607 -8.044,4.607c-4.409,0 -7.994,-2.058 -8.044,-4.605Z" style="fill:#3b506d;"/><path d="M164.126,101.652c0.357,0.16 0.58,0.524 0.558,0.915c-0.021,0.391 -0.281,0.729 -0.654,0.85c-15.304,4.84 -30.24,2.105 -37.875,-8.527c-0.227,-0.32 -0.233,-0.746 -0.017,-1.072c4.661,-7.025 10.181,-12.977 16.24,-18.256c0.26,-0.224 0.62,-0.291 0.943,-0.176c0.324,0.115 0.56,0.396 0.619,0.734c2.146,12.117 9.067,20.477 20.186,25.532Z" style="fill:#617692;"/><path d="M131.706,93.953c-0.105,0.245 -0.052,0.529 0.135,0.72c2.688,2.701 6.201,4.068 10.304,4.482c0.235,0.022 0.464,-0.084 0.599,-0.277c0.135,-0.194 0.155,-0.445 0.053,-0.658c-2.225,-4.689 -2.891,-9.258 -2.55,-13.749c0.023,-0.265 -0.116,-0.517 -0.351,-0.639c-0.236,-0.122 -0.522,-0.09 -0.724,0.081c-3.064,2.627 -5.661,5.839 -7.466,10.04Z" style="fill:#7487a2;"/><path d="M180.994,94.355c0.188,0.848 0.286,1.713 0.286,2.593c-0,10.55 -14.016,19.116 -31.28,19.116l-0.002,0c-17.264,-0 -31.28,-8.566 -31.28,-19.116c-0,-0.88 0.097,-1.745 0.286,-2.593c2.073,9.325 15.169,16.523 30.994,16.523l0.002,0c15.825,-0 28.921,-7.198 30.994,-16.523Z" style="fill:#3b506d;"/></g><g><ellipse cx="150" cy="33.752" rx="30.7" ry="18.761" style="fill:#763e1c;"/><path d="M149.998,47.912c-14.535,-0.001 -26.335,-7.212 -26.335,-16.095c-0,-2.076 0.645,-4.061 1.818,-5.884c1.006,-1.562 2.4,-3.005 4.11,-4.285l15.123,-15.768c0.903,-1.235 2.93,-2.096 5.284,-2.097l0.002,0c2.354,0.001 4.382,0.862 5.284,2.097l15.124,15.768c1.709,1.28 3.103,2.723 4.109,4.285c1.174,1.823 1.818,3.808 1.818,5.884c0,8.883 -11.8,16.094 -26.335,16.095l-0.002,-0Z" style="fill:#4f6684;"/><path d="M150,3.783l-0,-2c3.027,0.001 5.584,1.229 6.807,2.795c-0,0 14.933,15.57 14.932,15.569c1.853,1.408 3.36,2.995 4.459,4.703c1.389,2.157 2.137,4.51 2.137,6.967c0,4.112 -2.105,7.956 -5.803,11.039c-5.087,4.24 -13.278,7.056 -22.532,7.056l-0.002,-0c-9.254,-0 -17.445,-2.816 -22.532,-7.056c-3.698,-3.083 -5.803,-6.927 -5.803,-11.039c-0,-2.457 0.748,-4.81 2.137,-6.967c1.099,-1.708 2.607,-3.295 4.458,-4.702c0,0 14.934,-15.57 14.931,-15.567c1.227,-1.57 3.783,-2.797 6.809,-2.798l0,2c-2.352,0.001 -4.381,0.862 -5.284,2.097l-15.123,15.768c-1.71,1.28 -3.104,2.723 -4.11,4.285c-1.173,1.823 -1.818,3.808 -1.818,5.884c-0,8.883 11.8,16.094 26.335,16.095l0.002,-0c14.535,-0.001 26.335,-7.212 26.335,-16.095c0,-2.076 -0.644,-4.061 -1.818,-5.884c-1.006,-1.562 -2.4,-3.005 -4.109,-4.285l-15.124,-15.768c-0.902,-1.235 -2.93,-2.096 -5.284,-2.097Z" style="fill:#19232f;"/><path d="M143.226,8.517c0,0 -15.254,14.343 -13.635,13.131l14.528,-15.147c0.037,1.963 2.657,3.551 5.879,3.551c3.223,-0 5.844,-1.589 5.879,-3.553l14.531,15.149c1.617,1.211 -13.636,-13.133 -13.636,-13.133c-0.041,2.145 -3.06,3.879 -6.773,3.879c-3.712,0 -6.73,-1.733 -6.773,-3.877Z" style="fill:#3b506d;"/><path d="M161.549,35.619c0.355,0.163 0.573,0.528 0.549,0.918c-0.025,0.391 -0.287,0.725 -0.66,0.843c-12.712,3.901 -25.067,1.585 -31.451,-7.209c-0.229,-0.32 -0.236,-0.747 -0.018,-1.075c3.859,-5.8 8.416,-10.731 13.415,-15.11c0.258,-0.224 0.617,-0.292 0.94,-0.179c0.323,0.114 0.56,0.392 0.621,0.729c1.834,9.94 7.522,16.848 16.604,21.083Z" style="fill:#617692;"/><path d="M134.626,29.231c-0.106,0.246 -0.052,0.532 0.137,0.722c2.215,2.2 5.089,3.335 8.437,3.703c0.235,0.024 0.464,-0.08 0.601,-0.273c0.136,-0.192 0.159,-0.443 0.058,-0.657c-1.772,-3.806 -2.329,-7.519 -2.088,-11.17c0.021,-0.264 -0.12,-0.514 -0.356,-0.634c-0.236,-0.12 -0.522,-0.086 -0.723,0.086c-2.48,2.168 -4.585,4.805 -6.066,8.223Z" style="fill:#7487a2;"/><path d="M176.095,29.634c0.158,0.714 0.24,1.443 0.24,2.183c0,8.883 -11.8,16.094 -26.335,16.095l-0.002,-0c-14.535,-0.001 -26.335,-7.212 -26.335,-16.095c-0,-0.74 0.082,-1.469 0.241,-2.183c1.745,7.851 12.771,13.911 26.094,13.912l0.002,-0c13.323,-0.001 24.349,-6.061 26.095,-13.912Z" style="fill:#3b506d;"/></g></g></g></svg>