<?xml version="1.0" encoding="UTF-8" standalone="no"?><!DOCTYPE svg PUBLIC "-//W3C//DTD SVG 1.1//EN" "http://www.w3.org/Graphics/SVG/1.1/DTD/svg11.dtd"><svg width="100%" height="100%" viewBox="0 0 300 345" version="1.1" xmlns="http://www.w3.org/2000/svg" xmlns:xlink="http://www.w3.org/1999/xlink" xml:space="preserve" xmlns:serif="http://www.serif.com/" style="fill-rule:evenodd;clip-rule:evenodd;stroke-linecap:round;stroke-linejoin:round;stroke-miterlimit:50;"><g id="SkateHelmet"><path d="M49.414,87.775l-5.498,-9.522l1.028,-0.594l5.155,8.93l1.194,-2.068l-3.62,-6.268l1.028,-0.594l3.277,5.676l1.147,-1.987l-1.787,-3.095l1.028,-0.594l1.444,2.502l1.444,-2.502l0.468,0.27l0.467,-0.27l1.345,2.331l1.346,-2.331l0.731,0.422l0.731,-0.422l1.214,2.103l1.213,-2.103l0.679,0.392l0.679,-0.392l1.219,2.113l1.22,-2.113l0.725,0.419l0.725,-0.419l1.252,2.17l1.253,-2.17l0.725,0.419l0.725,-0.419l1.253,2.17l1.252,-2.17l0.725,0.419l0.725,-0.419l1.22,2.113l1.22,-2.113l0.678,0.392l0.679,-0.392l1.213,2.103l1.214,-2.103l0.731,0.422l0.731,-0.422l1.346,2.331l1.345,-2.331l0.467,0.27l0.468,-0.27l1.444,2.502l1.445,-2.502l1.027,0.594l-1.787,3.095l1.147,1.987l3.277,-5.676l1.028,0.594l-3.62,6.268l1.194,2.068l5.156,-8.93l1.027,0.594l-5.498,9.522l5.498,9.523l-1.027,0.593l-5.156,-8.929l-1.128,1.953l3.686,6.383l-1.028,0.593l-3.343,-5.789l-1.259,2.182l1.74,3.014l-1.027,0.593l-1.398,-2.421l-1.398,2.421l-0.5,-0.288l-0.501,0.288l-1.378,-2.387l-1.379,2.387l-0.599,-0.346l-0.599,0.346l-1.233,-2.135l-1.233,2.135l-0.745,-0.429l-0.744,0.429l-1.167,-2.021l-1.168,2.021l-0.777,-0.449l-0.778,0.449l-1.299,-2.25l-1.299,2.25l-0.593,-0.342l-0.593,0.342l-1.299,-2.25l-1.299,2.25l-0.778,-0.449l-0.777,0.449l-1.167,-2.021l-1.168,2.021l-0.744,-0.429l-0.745,0.429l-1.233,-2.135l-1.233,2.135l-0.599,-0.346l-0.599,0.346l-1.379,-2.387l-1.378,2.387l-0.5,-0.288l-0.501,0.288l-1.398,-2.421l-1.397,2.421l-1.028,-0.593l1.74,-3.014l-1.259,-2.182l-3.343,5.789l-1.027,-0.593l3.685,-6.383l-1.128,-1.953l-5.155,8.929l-1.028,-0.593l5.498,-9.523Zm24.495,-6.76l1.259,2.182l1.293,-2.239l-1.26,-2.181l-1.292,2.238Zm17.799,6.76l-1.194,-2.067l-1.127,1.953l1.193,2.068l1.128,-1.954Zm-1.813,3.14l-1.193,-2.067l-1.26,2.181l1.194,2.068l1.259,-2.182Zm-1.944,3.369l-1.194,-2.068l-1.213,2.101l1.194,2.068l1.213,-2.101Zm-10.12,-13.326l1.207,2.091l1.213,-2.101l-1.207,-2.091l-1.213,2.101Zm7.812,0.218l1.226,2.125l1.128,-1.953l-1.227,-2.125l-1.127,1.953Zm-1.469,13.141l-1.147,-1.987l-1.293,2.239l1.147,1.987l1.293,-2.239Zm-31.511,-9.796l1.128,1.954l1.147,-1.987l-1.128,-1.954l-1.147,1.987Zm1.832,-3.173l1.128,1.953l1.226,-2.125l-1.127,-1.953l-1.227,2.125Zm3.725,-0.172l1.259,2.182l1.392,-2.41l-1.26,-2.182l-1.391,2.41Zm4.021,-0.228l1.213,2.101l1.207,-2.091l-1.213,-2.101l-1.207,2.091Zm7.712,0.067l1.293,2.239l1.293,-2.239l-1.293,-2.238l-1.293,2.238Zm11.669,-0.067l1.391,2.41l1.26,-2.182l-1.392,-2.41l-1.259,2.182Zm-30.838,6.827l1.128,1.954l1.193,-2.068l-1.127,-1.953l-1.194,2.067Zm39.045,-3.254l-1.147,-1.987l-1.128,1.954l1.148,1.987l1.127,-1.954Zm-23.798,-3.563l1.293,2.239l1.259,-2.182l-1.292,-2.238l-1.26,2.181Zm-5.273,13.611l-1.292,-2.239l-1.148,1.987l1.293,2.239l1.147,-1.987Zm11.173,-10.128l1.26,2.181l1.292,-2.238l-1.259,-2.182l-1.293,2.239Zm-14.983,9.876l-1.213,-2.101l-1.193,2.068l1.213,2.101l1.193,-2.068Zm25.393,-3.173l-1.226,-2.125l-1.293,2.239l1.227,2.124l1.292,-2.238Zm-29.744,-0.229l1.259,2.182l1.194,-2.068l-1.259,-2.181l-1.194,2.067Zm35.419,-3.254l-1.147,-1.987l-1.259,2.182l1.147,1.987l1.259,-2.182Zm-13.618,3.426l-1.207,-2.091l-1.26,2.181l1.207,2.091l1.26,-2.181Zm-9.751,3.596l-1.292,-2.239l-1.227,2.125l1.293,2.239l1.226,-2.125Zm15.717,-0.114l-1.227,-2.125l-1.292,2.239l1.226,2.125l1.293,-2.239Zm-4.511,-10.185l1.208,2.091l1.292,-2.239l-1.207,-2.091l-1.293,2.239Zm3.87,-0.148l1.392,2.41l1.213,-2.101l-1.392,-2.41l-1.213,2.101Zm3.975,0.309l1.227,2.124l1.259,-2.181l-1.226,-2.125l-1.26,2.182Zm-24.917,6.599l-1.214,-2.101l-1.147,1.986l1.213,2.102l1.148,-1.987Zm9.228,-6.76l1.292,2.238l1.26,-2.181l-1.293,-2.239l-1.259,2.182Zm8.465,10.299l-1.391,-2.41l-1.26,2.182l1.392,2.41l1.259,-2.182Zm-18.221,-6.827l1.213,2.101l1.226,-2.125l-1.213,-2.101l-1.226,2.125Zm-3.777,-0.195l1.259,2.182l1.147,-1.987l-1.259,-2.182l-1.147,1.987Zm9.663,-3.425l1.292,2.239l1.208,-2.091l-1.293,-2.239l-1.207,2.091Zm2.585,6.851l-1.293,-2.239l-1.391,2.41l1.293,2.239l1.391,-2.41Zm-4.662,-3.255l1.293,2.239l1.391,-2.41l-1.292,-2.239l-1.392,2.41Zm4.055,-0.171l1.292,2.239l1.207,-2.091l-1.292,-2.239l-1.207,2.091Zm2.552,6.794l-1.26,-2.182l-1.391,2.41l1.259,2.182l1.392,-2.41Zm1.892,-3.278l-1.26,-2.181l-1.207,2.091l1.26,2.181l1.207,-2.091Zm7.891,0.081l-1.391,-2.41l-1.293,2.239l1.392,2.41l1.292,-2.239Zm-8.466,-3.449l1.26,2.182l1.26,-2.182l-1.26,-2.182l-1.26,2.182Zm16.086,3.22l-1.147,-1.986l-1.213,2.101l1.147,1.987l1.213,-2.102Zm-12.196,-3.22l1.207,2.091l1.293,-2.239l-1.208,-2.091l-1.292,2.239Zm-11.206,3.449l-1.293,-2.239l-1.226,2.125l1.292,2.238l1.227,-2.124Zm15.076,-3.597l1.391,2.41l1.293,-2.239l-1.392,-2.41l-1.292,2.239Zm-5.293,6.794l-1.207,-2.091l-1.207,2.091l1.207,2.091l1.207,-2.091Zm-16.145,-9.967l1.259,2.181l1.227,-2.124l-1.26,-2.182l-1.226,2.125Zm3.856,0.057l1.213,2.101l1.392,-2.41l-1.213,-2.101l-1.392,2.41Zm21.636,3.287l1.227,2.125l1.213,-2.101l-1.227,-2.125l-1.213,2.101Zm168.786,-0.057l5.498,9.523l-1.028,0.593l-5.155,-8.929l-1.128,1.953l3.685,6.383l-1.027,0.593l-3.343,-5.789l-1.259,2.182l1.74,3.014l-1.028,0.593l-1.397,-2.421l-1.398,2.421l-0.501,-0.288l-0.5,0.288l-1.378,-2.387l-1.379,2.387l-0.599,-0.346l-0.599,0.346l-1.233,-2.135l-1.233,2.135l-0.745,-0.429l-0.744,0.429l-1.168,-2.021l-1.167,2.021l-0.777,-0.449l-0.778,0.449l-1.299,-2.25l-1.299,2.25l-0.593,-0.342l-0.593,0.342l-1.299,-2.25l-1.299,2.25l-0.778,-0.449l-0.777,0.449l-1.168,-2.021l-1.167,2.021l-0.744,-0.429l-0.745,0.429l-1.233,-2.135l-1.233,2.135l-0.599,-0.346l-0.599,0.346l-1.379,-2.387l-1.378,2.387l-0.501,-0.288l-0.5,0.288l-1.398,-2.421l-1.398,2.421l-1.027,-0.593l1.74,-3.014l-1.259,-2.182l-3.343,5.789l-1.028,-0.593l3.686,-6.383l-1.128,-1.953l-5.156,8.929l-1.027,-0.593l5.498,-9.523l-5.498,-9.522l1.027,-0.594l5.156,8.93l1.194,-2.068l-3.62,-6.268l1.028,-0.594l3.277,5.676l1.147,-1.987l-1.787,-3.095l1.027,-0.594l1.445,2.502l1.444,-2.502l0.468,0.27l0.467,-0.27l1.345,2.331l1.346,-2.331l0.731,0.422l0.731,-0.422l1.214,2.103l1.213,-2.103l0.679,0.392l0.678,-0.392l1.22,2.113l1.22,-2.113l0.725,0.419l0.725,-0.419l1.252,2.17l1.253,-2.17l0.725,0.419l0.725,-0.419l1.253,2.17l1.252,-2.17l0.725,0.419l0.725,-0.419l1.22,2.113l1.219,-2.113l0.679,0.392l0.679,-0.392l1.213,2.103l1.214,-2.103l0.731,0.422l0.731,-0.422l1.346,2.331l1.345,-2.331l0.467,0.27l0.468,-0.27l1.444,2.502l1.444,-2.502l1.028,0.594l-1.787,3.095l1.147,1.987l3.277,-5.676l1.028,0.594l-3.62,6.268l1.194,2.068l5.155,-8.93l1.028,0.594l-5.498,9.522Zm-22.517,-3.334l-1.293,-2.239l-1.259,2.182l1.292,2.238l1.26,-2.181Zm3.922,-0.057l-1.259,-2.182l-1.293,2.239l1.26,2.181l1.292,-2.238Zm-1.977,3.425l-1.26,-2.182l-1.26,2.182l1.26,2.182l1.26,-2.182Zm-7.76,-0.148l-1.292,-2.239l-1.392,2.41l1.293,2.239l1.391,-2.41Zm1.893,-3.277l-1.293,-2.239l-1.207,2.091l1.292,2.239l1.208,-2.091Zm1.977,3.425l-1.292,-2.239l-1.208,2.091l1.293,2.239l1.207,-2.091Zm-9.822,-3.264l-1.26,-2.182l-1.226,2.125l1.259,2.181l1.227,-2.124Zm24.917,6.599l1.148,1.987l1.213,-2.102l-1.147,-1.986l-1.214,2.101Zm-23.019,-3.312l-1.213,-2.101l-1.227,2.125l1.213,2.101l1.227,-2.125Zm7.402,3.255l1.26,2.181l1.207,-2.091l-1.26,-2.181l-1.207,2.091Zm3.837,0.09l1.207,2.091l1.26,-2.181l-1.207,-2.091l-1.26,2.181Zm-15.511,-0.148l1.213,2.102l1.147,-1.987l-1.213,-2.101l-1.147,1.986Zm19.348,0.058l1.391,2.41l1.293,-2.239l-1.391,-2.41l-1.293,2.239Zm-11.728,0.171l1.292,2.239l1.392,-2.41l-1.293,-2.239l-1.391,2.41Zm-3.889,-0.114l1.292,2.238l1.227,-2.124l-1.293,-2.239l-1.226,2.125Zm2.618,-6.908l-1.213,-2.101l-1.392,2.41l1.213,2.101l1.392,-2.41Zm21.47,3.62l-1.226,-2.125l-1.213,2.101l1.226,2.125l1.213,-2.101Zm-3.809,-0.024l-1.392,-2.41l-1.292,2.239l1.391,2.41l1.293,-2.239Zm-4.055,-0.171l-1.207,-2.091l-1.292,2.239l1.207,2.091l1.292,-2.239Zm3.447,3.597l1.227,2.124l1.292,-2.238l-1.226,-2.125l-1.293,2.239Zm-25.346,-3.597l1.259,2.182l1.147,-1.987l-1.259,-2.182l-1.147,1.987Zm-1.879,3.254l1.259,2.182l1.194,-2.068l-1.26,-2.181l-1.193,2.067Zm1.944,3.369l1.213,2.101l1.194,-2.068l-1.213,-2.101l-1.194,2.068Zm35.288,-9.763l-1.147,-1.987l-1.128,1.954l1.147,1.987l1.128,-1.954Zm-28.959,-3.573l-1.259,-2.182l-1.392,2.41l1.26,2.182l1.391,-2.41Zm-2.552,13.369l1.293,2.239l1.147,-1.987l-1.293,-2.239l-1.147,1.987Zm33.39,-6.542l-1.194,-2.067l-1.127,1.953l1.193,2.068l1.128,-1.954Zm-29.58,6.794l1.293,2.239l1.226,-2.125l-1.292,-2.239l-1.227,2.125Zm22.144,-13.393l-1.391,-2.41l-1.26,2.182l1.392,2.41l1.259,-2.182Zm-15.689,-0.161l-1.292,-2.238l-1.26,2.181l1.293,2.239l1.259,-2.182Zm-17.799,6.76l1.128,1.954l1.193,-2.068l-1.127,-1.953l-1.194,2.067Zm15.234,6.908l1.259,2.182l1.392,-2.41l-1.26,-2.182l-1.391,2.41Zm14.233,-13.735l-1.207,-2.091l-1.213,2.101l1.207,2.091l1.213,-2.101Zm-10.212,13.507l1.207,2.091l1.207,-2.091l-1.207,-2.091l-1.207,2.091Zm3.784,-0l1.392,2.41l1.259,-2.182l-1.391,-2.41l-1.26,2.182Zm4.022,0.228l1.226,2.125l1.293,-2.239l-1.227,-2.125l-1.292,2.239Zm-20.996,-13.507l-1.127,-1.953l-1.227,2.125l1.128,1.953l1.226,-2.125Zm31.167,6.485l-1.147,-1.987l-1.259,2.182l1.147,1.987l1.259,-2.182Zm-0.019,-6.313l-1.227,-2.125l-1.127,1.953l1.226,2.125l1.128,-1.953Zm-11.536,-0.39l-1.26,-2.181l-1.292,2.238l1.259,2.182l1.293,-2.239Zm-3.922,0.057l-1.293,-2.238l-1.293,2.238l1.293,2.239l1.293,-2.239Zm-7.878,-0.057l-1.213,-2.101l-1.207,2.091l1.213,2.101l1.207,-2.091Zm-11.998,3.563l1.127,1.954l1.148,-1.987l-1.128,-1.954l-1.147,1.987Zm32.881,9.796l1.193,2.068l1.213,-2.101l-1.193,-2.068l-1.213,2.101Zm4.351,-3.402l-1.194,-2.067l-1.259,2.181l1.194,2.068l1.259,-2.182Zm-8.161,3.654l1.147,1.987l1.293,-2.239l-1.148,-1.987l-1.292,2.239Zm0.594,-10.024l-1.392,-2.41l-1.213,2.101l1.392,2.41l1.213,-2.101Zm-3.975,-0.309l-1.207,-2.091l-1.293,2.239l1.208,2.091l1.292,-2.239Zm7.831,0.252l-1.226,-2.125l-1.26,2.182l1.227,2.124l1.259,-2.181Z"/><path d="M49.414,86.302l-5.498,-9.523l1.028,-0.593l5.155,8.929l1.194,-2.067l-3.62,-6.269l1.028,-0.593l3.277,5.675l1.147,-1.987l-1.787,-3.095l1.028,-0.593l1.444,2.502l1.444,-2.502l0.468,0.27l0.467,-0.27l1.345,2.331l1.346,-2.331l0.731,0.422l0.731,-0.422l1.214,2.102l1.213,-2.102l0.679,0.392l0.679,-0.392l1.219,2.112l1.22,-2.112l0.725,0.419l0.725,-0.419l1.252,2.169l1.253,-2.169l0.725,0.419l0.725,-0.419l1.253,2.169l1.252,-2.169l0.725,0.419l0.725,-0.419l1.22,2.112l1.22,-2.112l0.678,0.392l0.679,-0.392l1.213,2.102l1.214,-2.102l0.731,0.422l0.731,-0.422l1.346,2.331l1.345,-2.331l0.467,0.27l0.468,-0.27l1.444,2.502l1.445,-2.502l1.027,0.593l-1.787,3.095l1.147,1.987l3.277,-5.675l1.028,0.593l-3.62,6.269l1.194,2.067l5.156,-8.929l1.027,0.593l-5.498,9.523l5.498,9.523l-1.027,0.593l-5.156,-8.929l-1.128,1.953l3.686,6.383l-1.028,0.593l-3.343,-5.79l-1.259,2.182l1.74,3.015l-1.027,0.593l-1.398,-2.421l-1.398,2.421l-0.5,-0.289l-0.501,0.289l-1.378,-2.388l-1.379,2.388l-0.599,-0.346l-0.599,0.346l-1.233,-2.136l-1.233,2.136l-0.745,-0.43l-0.744,0.43l-1.167,-2.022l-1.168,2.022l-0.777,-0.449l-0.778,0.449l-1.299,-2.25l-1.299,2.25l-0.593,-0.343l-0.593,0.343l-1.299,-2.25l-1.299,2.25l-0.778,-0.449l-0.777,0.449l-1.167,-2.022l-1.168,2.022l-0.744,-0.43l-0.745,0.43l-1.233,-2.136l-1.233,2.136l-0.599,-0.346l-0.599,0.346l-1.379,-2.388l-1.378,2.388l-0.5,-0.289l-0.501,0.289l-1.398,-2.421l-1.397,2.421l-1.028,-0.593l1.74,-3.015l-1.259,-2.182l-3.343,5.79l-1.027,-0.593l3.685,-6.383l-1.128,-1.953l-5.155,8.929l-1.028,-0.593l5.498,-9.523Zm32.208,-6.827l1.391,2.41l1.26,-2.182l-1.392,-2.41l-1.259,2.182Zm8.273,9.967l-1.193,-2.068l-1.26,2.182l1.194,2.068l1.259,-2.182Zm-1.944,3.368l-1.194,-2.067l-1.213,2.101l1.194,2.067l1.213,-2.101Zm-35.288,-9.762l1.128,1.953l1.147,-1.987l-1.128,-1.953l-1.147,1.987Zm25.168,-3.563l1.207,2.091l1.213,-2.101l-1.207,-2.091l-1.213,2.101Zm-11.8,-0l1.293,2.239l1.259,-2.182l-1.292,-2.239l-1.26,2.182Zm3.922,0.057l1.293,2.239l1.293,-2.239l-1.293,-2.239l-1.293,2.239Zm-7.712,-0.067l1.213,2.101l1.207,-2.091l-1.213,-2.101l-1.207,2.091Zm11.668,0.067l1.259,2.182l1.293,-2.239l-1.26,-2.182l-1.292,2.239Zm-15.689,0.161l1.259,2.182l1.392,-2.41l-1.26,-2.182l-1.391,2.41Zm31.609,3.345l-1.147,-1.987l-1.128,1.953l1.148,1.987l1.127,-1.953Zm-4.186,-3.345l1.226,2.125l1.128,-1.954l-1.227,-2.124l-1.127,1.953Zm-34.859,6.599l1.128,1.953l1.193,-2.067l-1.127,-1.954l-1.194,2.068Zm40.924,-0l-1.194,-2.068l-1.127,1.954l1.193,2.067l1.128,-1.953Zm-37.213,-6.428l1.128,1.954l1.226,-2.125l-1.127,-1.953l-1.227,2.124Zm-0.019,6.314l1.259,2.181l1.147,-1.986l-1.259,-2.182l-1.147,1.987Zm8.194,3.596l-1.293,-2.238l-1.226,2.124l1.292,2.239l1.227,-2.125Zm-1.912,3.312l-1.292,-2.239l-1.148,1.987l1.293,2.239l1.147,-1.987Zm3.889,0.114l-1.292,-2.239l-1.227,2.125l1.293,2.238l1.226,-2.124Zm-4.483,-10.139l1.213,2.101l1.392,-2.41l-1.213,-2.101l-1.392,2.41Zm11.767,-0.104l1.26,2.182l1.292,-2.239l-1.259,-2.181l-1.293,2.238Zm-7.792,-0.205l1.292,2.239l1.208,-2.091l-1.293,-2.239l-1.207,2.091Zm16.225,10.334l-1.227,-2.125l-1.292,2.239l1.226,2.124l1.293,-2.238Zm-0.641,-10.334l1.392,2.41l1.213,-2.101l-1.392,-2.41l-1.213,2.101Zm-23.415,0.252l1.259,2.182l1.227,-2.125l-1.26,-2.181l-1.226,2.124Zm19.545,-0.104l1.208,2.091l1.292,-2.239l-1.207,-2.091l-1.293,2.239Zm7.845,0.161l1.227,2.125l1.259,-2.182l-1.226,-2.124l-1.26,2.181Zm-16.974,6.542l-1.293,-2.239l-1.391,2.41l1.293,2.239l1.391,-2.41Zm19.348,-0.057l-1.147,-1.987l-1.213,2.101l1.147,1.987l1.213,-2.101Zm-16.086,-3.22l1.26,2.181l1.26,-2.181l-1.26,-2.182l-1.26,2.182Zm-17.389,3.106l1.259,2.182l1.194,-2.068l-1.259,-2.182l-1.194,2.068Zm21.279,-3.106l1.207,2.091l1.293,-2.239l-1.208,-2.091l-1.292,2.239Zm10.298,6.508l-1.147,-1.987l-1.293,2.239l1.147,1.987l1.293,-2.239Zm-27.226,-0l-1.213,-2.101l-1.193,2.067l1.213,2.101l1.193,-2.067Zm11.061,-9.934l1.292,2.239l1.26,-2.182l-1.293,-2.238l-1.259,2.181Zm14.332,6.76l-1.226,-2.124l-1.293,2.238l1.227,2.125l1.292,-2.239Zm5.675,-3.482l-1.147,-1.987l-1.259,2.182l1.147,1.986l1.259,-2.181Zm-13.618,3.425l-1.207,-2.091l-1.26,2.182l1.207,2.091l1.26,-2.182Zm2.076,3.597l-1.391,-2.41l-1.26,2.181l1.392,2.41l1.259,-2.181Zm-4.021,-0.229l-1.207,-2.091l-1.207,2.091l1.207,2.091l1.207,-2.091Zm-3.784,0l-1.26,-2.181l-1.391,2.41l1.259,2.181l1.392,-2.41Zm1.892,-3.277l-1.26,-2.182l-1.207,2.091l1.26,2.182l1.207,-2.091Zm7.891,0.08l-1.391,-2.41l-1.293,2.239l1.392,2.41l1.292,-2.239Zm-19.671,-0.114l-1.214,-2.101l-1.147,1.987l1.213,2.101l1.148,-1.987Zm-0.528,-3.287l1.213,2.101l1.226,-2.125l-1.213,-2.101l-1.226,2.125Zm7.864,-0.195l1.292,2.239l1.207,-2.091l-1.292,-2.239l-1.207,2.091Zm-4.055,0.171l1.293,2.239l1.391,-2.41l-1.292,-2.239l-1.392,2.41Zm19.738,0l1.227,2.125l1.213,-2.101l-1.227,-2.125l-1.213,2.101Zm-4.054,-0.171l1.391,2.41l1.293,-2.239l-1.392,-2.41l-1.292,2.239Zm172.84,0.114l5.498,9.523l-1.028,0.593l-5.155,-8.929l-1.128,1.953l3.685,6.383l-1.027,0.593l-3.343,-5.79l-1.259,2.182l1.74,3.015l-1.028,0.593l-1.397,-2.421l-1.398,2.421l-0.501,-0.289l-0.5,0.289l-1.378,-2.388l-1.379,2.388l-0.599,-0.346l-0.599,0.346l-1.233,-2.136l-1.233,2.136l-0.745,-0.43l-0.744,0.43l-1.168,-2.022l-1.167,2.022l-0.777,-0.449l-0.778,0.449l-1.299,-2.25l-1.299,2.25l-0.593,-0.343l-0.593,0.343l-1.299,-2.25l-1.299,2.25l-0.778,-0.449l-0.777,0.449l-1.168,-2.022l-1.167,2.022l-0.744,-0.43l-0.745,0.43l-1.233,-2.136l-1.233,2.136l-0.599,-0.346l-0.599,0.346l-1.379,-2.388l-1.378,2.388l-0.501,-0.289l-0.5,0.289l-1.398,-2.421l-1.398,2.421l-1.027,-0.593l1.74,-3.015l-1.259,-2.182l-3.343,5.79l-1.028,-0.593l3.686,-6.383l-1.128,-1.953l-5.156,8.929l-1.027,-0.593l5.498,-9.523l-5.498,-9.523l1.027,-0.593l5.156,8.929l1.194,-2.067l-3.62,-6.269l1.028,-0.593l3.277,5.675l1.147,-1.987l-1.787,-3.095l1.027,-0.593l1.445,2.502l1.444,-2.502l0.468,0.27l0.467,-0.27l1.345,2.331l1.346,-2.331l0.731,0.422l0.731,-0.422l1.214,2.102l1.213,-2.102l0.679,0.392l0.678,-0.392l1.22,2.112l1.22,-2.112l0.725,0.419l0.725,-0.419l1.252,2.169l1.253,-2.169l0.725,0.419l0.725,-0.419l1.253,2.169l1.252,-2.169l0.725,0.419l0.725,-0.419l1.22,2.112l1.219,-2.112l0.679,0.392l0.679,-0.392l1.213,2.102l1.214,-2.102l0.731,0.422l0.731,-0.422l1.346,2.331l1.345,-2.331l0.467,0.27l0.468,-0.27l1.444,2.502l1.444,-2.502l1.028,0.593l-1.787,3.095l1.147,1.987l3.277,-5.675l1.028,0.593l-3.62,6.269l1.194,2.067l5.155,-8.929l1.028,0.593l-5.498,9.523Zm-18.595,-3.392l-1.259,-2.181l-1.293,2.238l1.26,2.182l1.292,-2.239Zm3.87,-0.148l-1.207,-2.091l-1.293,2.239l1.208,2.091l1.292,-2.239Zm-13.692,-3.277l-1.213,-2.101l-1.207,2.091l1.213,2.101l1.207,-2.091Zm-3.791,-0.01l-1.259,-2.182l-1.392,2.41l1.26,2.182l1.391,-2.41Zm-8.207,3.573l1.127,1.953l1.148,-1.987l-1.128,-1.953l-1.147,1.987Zm15.92,-3.506l-1.292,-2.239l-1.26,2.182l1.293,2.239l1.259,-2.182Zm15.689,0.161l-1.391,-2.41l-1.26,2.182l1.392,2.41l1.259,-2.182Zm-25.954,13.141l1.293,2.239l1.147,-1.987l-1.293,-2.239l-1.147,1.987Zm3.81,0.252l1.293,2.238l1.226,-2.124l-1.292,-2.239l-1.227,2.125Zm7.911,-0.115l1.207,2.091l1.207,-2.091l-1.207,-2.091l-1.207,2.091Zm-15.498,-0.171l1.213,2.101l1.194,-2.067l-1.213,-2.101l-1.194,2.067Zm19.282,0.171l1.392,2.41l1.259,-2.181l-1.391,-2.41l-1.26,2.181Zm16.072,-3.539l-1.194,-2.068l-1.259,2.182l1.194,2.068l1.259,-2.182Zm-1.898,-9.568l-1.227,-2.124l-1.127,1.953l1.226,2.125l1.128,-1.954Zm1.832,3.174l-1.147,-1.987l-1.128,1.953l1.147,1.987l1.128,-1.953Zm-32.98,-3.345l-1.127,-1.953l-1.227,2.124l1.128,1.954l1.226,-2.125Zm-6.065,6.599l1.128,1.953l1.193,-2.067l-1.127,-1.954l-1.194,2.068Zm1.813,3.14l1.259,2.182l1.194,-2.068l-1.26,-2.182l-1.193,2.068Zm13.421,3.768l1.259,2.181l1.392,-2.41l-1.26,-2.181l-1.391,2.41Zm25.69,-6.908l-1.194,-2.068l-1.127,1.954l1.193,2.067l1.128,-1.953Zm-11.457,-6.827l-1.207,-2.091l-1.213,2.101l1.207,2.091l1.213,-2.101Zm-3.79,0.01l-1.26,-2.182l-1.292,2.239l1.259,2.182l1.293,-2.239Zm-3.922,0.057l-1.293,-2.239l-1.293,2.239l1.293,2.239l1.293,-2.239Zm5.306,13.668l1.226,2.124l1.293,-2.238l-1.227,-2.125l-1.292,2.239Zm3.889,-0.114l1.147,1.987l1.293,-2.239l-1.148,-1.987l-1.292,2.239Zm3.81,-0.252l1.193,2.067l1.213,-2.101l-1.193,-2.067l-1.213,2.101Zm-3.216,-9.773l-1.392,-2.41l-1.213,2.101l1.392,2.41l1.213,-2.101Zm-23.534,0l-1.26,-2.181l-1.226,2.124l1.259,2.182l1.227,-2.125Zm9.3,6.542l1.26,2.182l1.207,-2.091l-1.26,-2.182l-1.207,2.091Zm-5.325,-6.851l-1.213,-2.101l-1.392,2.41l1.213,2.101l1.392,-2.41Zm9.162,6.942l1.207,2.091l1.26,-2.182l-1.207,-2.091l-1.26,2.182Zm-7.891,0.08l1.292,2.239l1.392,-2.41l-1.293,-2.239l-1.391,2.41Zm11.728,-0.171l1.391,2.41l1.293,-2.239l-1.391,-2.41l-1.293,2.239Zm8.471,-3.23l-1.226,-2.125l-1.213,2.101l1.226,2.125l1.213,-2.101Zm-11.733,-0.047l-1.26,-2.182l-1.26,2.182l1.26,2.181l1.26,-2.181Zm-3.89,-0l-1.292,-2.239l-1.208,2.091l1.293,2.239l1.207,-2.091Zm-3.87,-0.148l-1.292,-2.239l-1.392,2.41l1.293,2.239l1.391,-2.41Zm-4.054,0.171l-1.213,-2.101l-1.227,2.125l1.213,2.101l1.227,-2.125Zm-0.541,3.311l1.292,2.239l1.227,-2.125l-1.293,-2.238l-1.226,2.124Zm6.488,-6.76l-1.293,-2.239l-1.207,2.091l1.292,2.239l1.208,-2.091Zm-10.219,6.646l1.213,2.101l1.147,-1.987l-1.213,-2.101l-1.147,1.987Zm23.402,0.228l1.227,2.125l1.292,-2.239l-1.226,-2.124l-1.293,2.238Zm0.608,-3.425l-1.392,-2.41l-1.292,2.239l1.391,2.41l1.293,-2.239Zm-4.055,-0.171l-1.207,-2.091l-1.292,2.239l1.207,2.091l1.292,-2.239Zm-5.814,-3.221l-1.293,-2.238l-1.259,2.181l1.292,2.239l1.26,-2.182Zm13.15,6.703l1.148,1.987l1.213,-2.101l-1.147,-1.987l-1.214,2.101Zm-29.235,-3.482l1.259,2.181l1.147,-1.986l-1.259,-2.182l-1.147,1.987Zm31.708,-3.174l-1.226,-2.124l-1.26,2.181l1.227,2.125l1.259,-2.182Zm1.832,3.174l-1.147,-1.987l-1.259,2.182l1.147,1.986l1.259,-2.181Z" style="fill:#2a2a2a;"/><path d="M251.694,117.208l-203.388,-0c-15.063,-0 -21.615,9.121 -22.408,21.99c-0.793,12.869 -16.159,20.925 -25.898,26.912l-0,-59.675l300,0l0,59.675c-9.739,-5.987 -25.105,-14.043 -25.898,-26.912c-0.793,-12.869 -7.345,-21.99 -22.408,-21.99Z" style="fill:#4f4f4f;"/><path d="M256.04,117.208l-212.08,-0c-15.063,-0 -20.673,5.717 -21.466,18.586c-0.976,15.846 -12.176,22.66 -22.494,30.316l-0,-59.675l300,0l0,59.675c-10.318,-7.656 -21.518,-14.47 -22.494,-30.316c-0.793,-12.869 -6.403,-18.586 -21.466,-18.586Z"/><path d="M6.824,219.292c3.968,2.334 8.386,3.877 12.582,5.795c5.027,2.298 9.749,5.093 13.488,9.585c1.765,2.121 1.477,5.277 -0.644,7.042c-2.121,1.765 -5.276,1.477 -7.042,-0.644c-2.736,-3.288 -6.281,-5.206 -9.959,-6.888c-4.508,-2.061 -9.234,-3.763 -13.496,-6.271c-1.148,-3.158 -1.774,-6.845 -1.774,-6.845c-0,-0 3.47,-1.299 6.845,-1.774Zm286.352,-0c3.375,0.475 6.845,1.774 6.845,1.774c0,-0 -0.626,3.687 -1.774,6.845c-4.262,2.508 -8.988,4.21 -13.496,6.271c-3.678,1.682 -7.223,3.6 -9.959,6.888c-1.766,2.121 -4.921,2.409 -7.042,0.644c-2.121,-1.765 -2.409,-4.921 -0.644,-7.042c3.739,-4.492 8.461,-7.287 13.488,-9.585c4.196,-1.918 8.614,-3.461 12.582,-5.795Z" style="fill:#222;"/><path d="M3.753,141.929c-1.288,-2.441 -0.352,-5.468 2.089,-6.755c2.441,-1.288 5.468,-0.352 6.756,2.089c9.14,17.324 11.694,33.768 2.61,48.372c-7.909,12.713 -5.019,28.99 10.327,41.663c11.737,9.692 23.058,24.932 27.048,37.909c0.811,2.638 -0.672,5.438 -3.309,6.249c-2.638,0.811 -5.438,-0.672 -6.249,-3.31c-3.499,-11.379 -13.567,-24.64 -23.857,-33.138c-20.041,-16.55 -22.78,-38.052 -12.451,-54.655c7.227,-11.618 4.307,-24.642 -2.964,-38.424Zm283.649,-4.666c1.288,-2.441 4.315,-3.377 6.756,-2.089c2.441,1.287 3.377,4.314 2.089,6.755c-7.271,13.782 -10.191,26.806 -2.964,38.424c10.329,16.603 7.59,38.105 -12.451,54.655c-10.29,8.498 -20.358,21.759 -23.857,33.138c-0.811,2.638 -3.611,4.121 -6.249,3.31c-2.637,-0.811 -4.12,-3.611 -3.309,-6.249c3.99,-12.977 15.311,-28.217 27.048,-37.909c15.346,-12.673 18.236,-28.95 10.327,-41.663c-9.084,-14.604 -6.53,-31.048 2.61,-48.372Z" style="fill:#222;"/><g><path d="M42.089,270.25l1.984,6.907l13.728,-3.944l-1.985,-6.907l-13.727,3.944Z" style="fill:#3d3e3d;"/><path d="M57.545,285.553c0.045,0.156 0.015,0.327 -0.085,0.476c-0.099,0.148 -0.259,0.261 -0.444,0.314c-1.327,0.382 -4.198,1.206 -5.525,1.588c-0.185,0.053 -0.381,0.042 -0.543,-0.031c-0.163,-0.073 -0.28,-0.202 -0.325,-0.359c-0.177,-0.617 -0.431,-1.5 -0.431,-1.5c0,-0 0,-0 0,-0c0.338,-0.097 0.629,-0.303 0.809,-0.573c0.181,-0.27 0.237,-0.582 0.155,-0.867c-0.809,-2.815 -2.928,-10.189 -2.928,-10.189l-1.058,0.304c0,-0 1.889,11.983 0.183,12.473c-1.733,0.498 -3.643,-0.846 -4.262,-3c-0.462,-1.609 -0.074,-3.217 0.874,-4.135l-1.731,-6.025c-0.397,0.1 -0.792,-0.084 -0.888,-0.42l-0.358,-1.247c-0.099,-0.344 0.151,-0.718 0.559,-0.835l15.19,-4.364c0.407,-0.117 0.818,0.067 0.917,0.411l0.359,1.247c0.098,0.344 -0.152,0.719 -0.56,0.836l0.249,-0.072l1.732,6.026c1.289,0.277 2.47,1.433 2.931,3.04c0.619,2.154 -0.286,4.307 -2.02,4.805c-1.733,0.498 -6.461,-10.669 -6.461,-10.669l-1.278,0.367c-0,0 2.118,7.374 2.927,10.189c0.082,0.285 0.294,0.52 0.591,0.653c0.296,0.133 0.652,0.153 0.99,0.056c-0,0 -0,0 -0,0c-0,0 0.254,0.884 0.431,1.501Zm-16.851,-21.057l13.034,-3.744c1.002,-0.288 2.014,0.165 2.257,1.012l0.881,3.067c0.243,0.847 -0.373,1.768 -1.375,2.056l-13.034,3.744c-1.003,0.288 -2.014,-0.165 -2.257,-1.012l-0.882,-3.067c-0.243,-0.847 0.373,-1.768 1.376,-2.056Z" style="fill:#565656;"/></g><path d="M239.402,271.84l1.335,-3.797c0.277,-0.786 1.438,-1.102 2.642,-0.744l0.002,-0.005l-0.035,-0.012c-1.15,-0.404 -1.869,-1.341 -1.606,-2.089l0.955,-2.714c0.263,-0.749 1.411,-1.028 2.56,-0.624l14.95,5.259c1.149,0.404 1.869,1.341 1.606,2.09l-0.955,2.713c-0.263,0.749 -1.411,1.029 -2.561,0.624l-0.106,-0.037l-0.001,0.001c1.206,0.464 1.947,1.461 1.665,2.263l-1.335,3.797c-0.022,-0.008 -0.043,-0.016 -0.065,-0.024c-2.547,-0.895 -5.311,0.359 -6.17,2.799c-0.858,2.44 0.512,5.149 3.059,6.045c0.022,0.008 0.043,0.015 0.065,0.022l-0.818,2.326l-19.116,-6.725l0.818,-2.325c2.537,0.871 5.279,-0.382 6.134,-2.811c0.854,-2.429 -0.5,-5.124 -3.023,-6.032Z" style="fill:#565656;"/><path d="M14.412,231.57c1.459,-3.84 4.185,-6.316 7.676,-7.969c3.881,2.09 7.173,5.02 9.961,8.672c-1.901,4.06 -4.701,6.977 -8.321,8.849c-3.873,-2.723 -7.005,-5.891 -9.316,-9.552Zm271.176,0c-2.311,3.661 -5.443,6.829 -9.316,9.552c-3.62,-1.872 -6.42,-4.789 -8.321,-8.849c2.788,-3.652 6.08,-6.582 9.961,-8.672c3.491,1.653 6.217,4.129 7.676,7.969Z" style="fill:none;stroke:#494949;stroke-width:3.33px;"/><path d="M256.04,117.208l-212.08,-0c-15.063,-0 -24.077,2.313 -24.87,15.182c-0.976,15.846 -9.217,24.878 -19.09,33.72l-0,-101.75c-0,-20.079 16.301,-36.38 36.38,-36.38l13.649,-0l0,3.041l42.919,-0l-0,-3.041l114.104,-0l0,3.041l42.919,-0l-0,-3.041l13.649,-0c20.079,-0 36.38,16.301 36.38,36.38l0,101.75c-9.873,-8.842 -18.114,-17.874 -19.09,-33.72c-0.793,-12.869 -9.807,-15.182 -24.87,-15.182Zm-163.092,-26.628l-0,-7.413c-0,-1.794 -1.455,-3.248 -3.249,-3.248l-36.421,-0c-1.794,-0 -3.248,1.454 -3.249,3.248l0,7.413c0.001,1.794 1.455,3.249 3.249,3.249l36.421,-0c1.794,-0 3.249,-1.455 3.249,-3.249Zm114.104,0c0,1.794 1.455,3.249 3.249,3.249l36.421,-0c1.794,-0 3.248,-1.455 3.249,-3.249l-0,-7.413c-0.001,-1.794 -1.455,-3.248 -3.249,-3.248l-36.421,-0c-1.794,-0 -3.249,1.454 -3.249,3.248l0,7.413Z" style="fill:#0d2c36;"/><path d="M256.04,112.862l-212.08,0c-15.063,0 -26.974,2.313 -27.767,15.182c-0.976,15.847 -7.902,27.444 -16.193,38.066l-0,-101.75c-0,-20.079 16.301,-36.38 36.38,-36.38l13.649,-0l0,5.763c0.001,1.794 1.455,3.248 3.249,3.248l36.421,0c1.794,0 3.249,-1.454 3.249,-3.248l-0,-5.763l114.104,-0l0,5.763c0,1.794 1.455,3.248 3.249,3.248l36.421,0c1.794,0 3.248,-1.454 3.249,-3.248l-0,-5.763l13.649,-0c20.079,-0 36.38,16.301 36.38,36.38l0,101.75c-8.291,-10.622 -15.217,-22.219 -16.193,-38.066c-0.793,-12.869 -12.704,-15.182 -27.767,-15.182Zm-163.092,-22.282l-0,-12.326c-0,-1.794 -1.455,-3.249 -3.249,-3.249l-36.421,0c-1.794,0 -3.248,1.455 -3.249,3.249l0,12.326c0.001,1.794 1.455,3.249 3.249,3.249l36.421,-0c1.794,-0 3.249,-1.455 3.249,-3.249Zm114.104,0c0,1.794 1.455,3.249 3.249,3.249l36.421,-0c1.794,-0 3.248,-1.455 3.249,-3.249l-0,-12.326c-0.001,-1.794 -1.455,-3.249 -3.249,-3.249l-36.421,0c-1.794,0 -3.249,1.455 -3.249,3.249l0,12.326Z" style="fill:#385863;"/><path d="M150,63.226c-21.354,-0 -39.444,9.223 -39.444,23.076c-0.393,7.302 2.618,12.902 10.225,16.203l-54.377,0c9.247,-0.509 18.592,-0.726 27.626,-1.875c3.892,-0.495 7.443,-2.648 7.443,-5.128l0,-26.659c0,-3.102 -2.515,-5.617 -5.617,-5.617l-56.234,-0c-4.238,-0 -8.226,3.569 -8.226,8.941l0,16.63l-8.941,0c-4.693,0 -7.652,4.526 -10.014,8.248c-1.614,2.543 -3.022,4.563 -5.186,7.846l0,-33.261c0,-14.916 11.523,-24.141 25.572,-24.141l117.173,0.06l117.173,-0.06c14.049,0 25.572,9.225 25.572,24.141l-0,33.261c-2.164,-3.283 -3.572,-5.303 -5.186,-7.846c-2.362,-3.722 -5.321,-8.248 -10.014,-8.248l-8.941,0l-0,-16.63c-0,-5.372 -3.988,-8.941 -8.226,-8.941l-56.234,-0c-3.102,-0 -5.617,2.515 -5.617,5.617l-0,26.659c-0,2.48 3.551,4.633 7.443,5.128c9.034,1.149 18.379,1.366 27.626,1.875l-54.377,0c7.607,-3.301 10.618,-8.901 10.225,-16.203c0,-13.853 -18.09,-23.076 -39.444,-23.076Z" style="fill:#43616b;"/><path d="M256.04,112.862l-212.08,0c-15.063,0 -26.974,2.313 -27.767,15.182c-0.976,15.847 -7.902,27.444 -16.193,38.066l-0,-101.75c-0,-20.079 16.301,-36.38 36.38,-36.38l13.649,-0l0,5.763c0.001,1.794 1.455,3.248 3.249,3.248l36.421,0c1.794,0 3.249,-1.454 3.249,-3.248l-0,-5.763l114.104,-0l0,5.763c0,1.794 1.455,3.248 3.249,3.248l36.421,0c1.794,0 3.248,-1.454 3.249,-3.248l-0,-5.763l13.649,-0c20.079,-0 36.38,16.301 36.38,36.38l0,101.75c-8.291,-10.622 -15.217,-22.219 -16.193,-38.066c-0.793,-12.869 -12.704,-15.182 -27.767,-15.182Zm-0,-2.771c6.308,0 12.085,0.415 16.803,1.742c7.971,2.242 13.168,6.937 13.729,16.041c0.735,11.92 5.012,21.321 10.657,29.737l0,-93.251c0,-18.549 -15.06,-33.609 -33.609,-33.609l-10.879,-0l0,2.992c0,3.324 -2.695,6.019 -6.019,6.019l-36.421,0c-3.325,0 -6.02,-2.695 -6.02,-6.019l0,-2.992l-108.562,-0l-0,2.992c-0,3.324 -2.695,6.019 -6.02,6.019l-36.421,0c-3.324,0 -6.019,-2.695 -6.019,-6.019l-0,-2.992l-10.879,-0c-18.549,-0 -33.609,15.06 -33.609,33.609c-0,-0 -0,93.251 -0.001,93.252c5.646,-8.417 9.923,-17.818 10.658,-29.738c0.561,-9.104 5.758,-13.799 13.729,-16.041c4.718,-1.327 10.495,-1.742 16.803,-1.742l212.08,0Zm-160.321,-19.511c-0,3.325 -2.695,6.02 -6.02,6.02l-36.421,-0c-3.324,-0 -6.019,-2.695 -6.019,-6.02l-0,-12.326c-0,-3.324 2.695,-6.019 6.019,-6.019l36.421,-0c3.325,-0 6.02,2.695 6.02,6.019l-0,12.326Zm-2.771,0l-0,-12.326c-0,-1.794 -1.455,-3.249 -3.249,-3.249l-36.421,0c-1.794,0 -3.248,1.455 -3.249,3.249l0,12.326c0.001,1.794 1.455,3.249 3.249,3.249l36.421,-0c1.794,-0 3.249,-1.455 3.249,-3.249Zm111.333,0l0,-12.326c0,-3.324 2.695,-6.019 6.02,-6.019l36.421,-0c3.324,-0 6.019,2.695 6.019,6.019l0,12.326c0,3.325 -2.695,6.02 -6.019,6.02l-36.421,-0c-3.325,-0 -6.02,-2.695 -6.02,-6.02Zm2.771,0c0,1.794 1.455,3.249 3.249,3.249l36.421,-0c1.794,-0 3.248,-1.455 3.249,-3.249l-0,-12.326c-0.001,-1.794 -1.455,-3.249 -3.249,-3.249l-36.421,0c-1.794,0 -3.249,1.455 -3.249,3.249l0,12.326Z" style="fill:#23404a;"/><g><path d="M300,98.224l-52.779,11.22l22.348,-22.123l-7.586,-6.628l25.49,-24.697l12.527,9.874l0,20.262l-4.003,2.281l4.003,3.181l0,6.63Z" style="fill:#ebebeb;"/><path d="M300,71.896l0,8.789l-12.426,7.08l8.204,6.518l-33.766,7.178l14.502,-14.356l-7.544,-6.592l18.824,-18.238l12.206,9.621Z" style="fill:#ffd206;"/><path d="M300,98.224l-5.033,1.07l3.11,-9.228l1.923,1.528l0,6.63Zm0,-12.092l-0.739,0.421l0.739,-2.192l0,1.771Zm-25.419,-17.644l8.076,-7.825l-14.975,44.431l-5.859,1.246l5.741,-17.034l2.005,-1.985l-1.032,-0.902l6.044,-17.931Zm15.047,-10.793l7.805,6.152l-12.679,37.618l-10.64,2.262l15.514,-46.032Z" style="fill:#ebebeb;fill-opacity:0.25;"/></g><g><path d="M219.379,36.991l7.776,17.472l-29.494,20.945l-55.762,-36.856l18.87,-10.572l46.283,-0l0,5.763c0,1.794 1.455,3.248 3.249,3.248l9.078,0Z" style="fill:#ebebeb;"/><path d="M170.451,27.98l36.601,-0l0,5.763c0,1.794 1.455,3.248 3.249,3.248l3.898,0l7.057,15.857l-23.691,16.824l-46.579,-30.786l19.465,-10.906Z" style="fill:#99d72b;"/><path d="M214.199,36.991l7.057,15.857l-23.691,16.824l-16.218,-10.72l3.18,-5.532l4.226,2.404l3.548,-8.126l11.33,10.529l-0.687,-18.776l-12.016,-10.899l-6.401,17.086l-10.08,-8.126l-5.849,13.014l-9.283,-6.135l5.471,-13.237l5.665,-3.174l7.45,-0l3.871,4.268l2.31,-4.268l22.97,-0l0,5.763c0,1.794 1.455,3.248 3.249,3.248l3.898,0Z" style="fill:#00cbcc;"/><path d="M200.853,27.98l6.199,-0l0,5.763c0,1.794 1.455,3.248 3.249,3.248l3.898,0l7.057,15.857l-23.691,16.824l3.288,-41.692Z" style="fill:#ff5668;"/><path d="M214.199,36.991l2.673,6.008c-0.291,3.562 -2.961,6.355 -6.207,6.355c-3.44,0 -6.233,-3.138 -6.233,-7.002c0,-2.79 1.455,-5.2 3.558,-6.326c0.589,0.596 1.407,0.965 2.311,0.965l3.898,0Zm-9.269,-9.011c0,0.036 0.001,0.072 0.001,0.108c-0,2.439 -1.763,4.42 -3.934,4.42c-0.169,-0 -0.335,-0.012 -0.499,-0.036l0.355,-4.492l4.077,-0Zm-6.6,31.993c0.809,-0.431 1.713,-0.672 2.667,-0.672c2.466,-0 4.6,1.612 5.61,3.949l-9.042,6.422l0.765,-9.699Zm15.046,-1.53c-0.258,-0.373 -0.411,-0.843 -0.411,-1.352c-0,-1.219 0.881,-2.21 1.967,-2.21c0.766,0 1.43,0.493 1.755,1.212l-3.311,2.35Z" style="fill:#b02bd7;"/><path d="M211.233,36.991l-12.751,37.834l-0.821,0.583l-7.567,-5.002l14.299,-42.426l2.659,-0l0,5.763c0,1.794 1.455,3.248 3.249,3.248l0.932,0Zm-12.811,-9.011l-13.211,39.199l-4.449,-2.94l12.221,-36.259l5.439,-0Zm-24.4,-0l-8.766,26.01l-23.357,-15.438l18.87,-10.572l13.253,-0Zm46.117,10.72l7.016,15.763l-16.208,11.51l9.192,-27.273Z" style="fill:#ebebeb;fill-opacity:0.25;"/></g><g><path d="M43.994,27.98c-0.119,0.557 -0.222,1.115 -0.306,1.673c-0.567,3.779 -0.092,7.598 3.744,10.748c6.084,4.998 9.247,10.904 9.774,16.775l1.467,-1.996l1.714,11.315c0.467,3.081 0.531,5.916 0.252,8.51l-7.361,0c-1.794,0 -3.248,1.455 -3.249,3.249l0,12.326c0,0.537 0.13,1.043 0.361,1.488c-10.576,6.979 -26.746,6.239 -36.51,-1.172c-13.186,-10.008 -16.028,-21.766 -12.319,-32.815c0.877,-2.613 2.57,-5.044 4.53,-7.667c2.095,-2.803 4.579,-5.944 5.583,-10.641l0.559,-2.615c1.694,-1.505 3.53,-2.855 5.485,-4.026l1.598,3.128c0.08,-0.232 0.166,-0.467 0.256,-0.704c0.601,-1.571 1.264,-3.043 1.984,-4.424c4.528,-2.025 9.546,-3.152 14.824,-3.152l7.614,-0Z" style="fill:#ebebeb;"/><path d="M55.821,75.005l-2.543,0c-1.794,0 -3.248,1.455 -3.249,3.249l0,8.01c-8.576,7.901 -24.262,7.713 -33.288,0.863c-11.114,-8.436 -13.819,-18.228 -10.693,-27.54c1.823,-5.434 8.3,-9.681 10.254,-18.825c2.42,4.737 5.999,5.943 5.881,11.441c-0.032,1.504 -0.464,2.641 -0.464,3.449c-0.002,2.301 2.186,2.701 2.567,0.346c1.055,-6.539 -3.226,-11.081 -0.293,-18.751c1.251,-3.273 2.81,-6.052 4.618,-8.434c2.503,-0.546 5.103,-0.833 7.769,-0.833l2.791,-0c-1.044,5.648 -0.481,11.365 5.257,16.079c10.574,8.684 10.863,20.418 0.659,29.005c3.946,0.579 7.457,-1.556 10.621,-5.86c0.433,2.857 0.447,5.455 0.113,7.801Z" style="fill:#d78c00;"/><path d="M36.169,45.499c9.742,8.837 11.074,18.447 -3.113,29.481c1.567,2.445 4.445,3.416 7.965,3.662c-3.31,0.993 -6.095,3.582 -8.606,4.304c-7.639,2.197 -12.937,1.01 -16.663,-4.578c-5.038,-7.555 -1.21,-15.297 7.324,-16.572c10.776,-1.61 15.013,-7.118 13.093,-16.297Z" style="fill:#ffcd00;"/><path d="M21.52,76.903c-2.71,-7.642 2.481,-10.741 9.888,-10.621c-2.693,2.182 -3.529,3.942 -2.86,9.614c0.473,4.005 -5.929,4.108 -7.028,1.007Z" style="fill:#fff479;"/><path d="M33.618,28.083l-27.236,55.666c-1.589,-1.967 -2.858,-3.975 -3.829,-6.007l23.639,-48.314c2.383,-0.695 4.868,-1.152 7.426,-1.345Zm-15.9,5.049l1.225,2.398l-18.189,37.177c-1.18,-4.875 -0.807,-9.818 0.807,-14.626c0.877,-2.613 2.57,-5.044 4.53,-7.667c2.095,-2.803 4.579,-5.944 5.583,-10.641l0.559,-2.615c1.694,-1.505 3.53,-2.855 5.485,-4.026Zm32.672,58.936c-1.88,1.241 -3.937,2.237 -6.103,2.996l5.742,-11.736l0,7.252c0,0.537 0.13,1.043 0.361,1.488Zm3.711,-17.063l5.784,-11.821l0.502,3.311c0.467,3.081 0.531,5.916 0.252,8.51l-6.538,0Zm-9.817,-38.684c0.606,1.438 1.605,2.813 3.148,4.08c5.05,4.148 8.087,8.922 9.275,13.782l-20.85,42.616c-6.715,0.511 -13.643,-0.887 -19.179,-4.056l27.606,-56.422Z" style="fill:#ebebeb;fill-opacity:0.25;"/></g><path d="M150,68.69c17.907,0 32.445,7.795 32.445,17.396c0,9.601 -14.538,17.396 -32.445,17.396c-17.907,-0 -32.445,-7.795 -32.445,-17.396c-0,-9.601 14.538,-17.396 32.445,-17.396Zm-25.998,13.292l-0.114,8.072l52.224,0l-0.114,-8.072l-51.996,0Zm7.085,13.126c5.08,2.304 11.701,3.641 18.913,3.641c7.212,0 13.833,-1.337 18.913,-3.641l-37.826,0Zm37.523,-18.179c-5.038,-2.221 -11.54,-3.506 -18.61,-3.506c-7.07,-0 -13.572,1.285 -18.61,3.506l37.22,-0Z" style="fill:#e0f7ff;"/><path d="M6.667,134.591c0.247,-0.065 0.504,-0.1 0.768,-0.1c1.947,0 3.527,1.868 3.527,4.169c0,2.3 -1.58,4.168 -3.527,4.168c-0.128,-0 -1.956,-0.426 -1.956,-0.426l-0.09,-7.472l1.278,-0.339Zm286.666,-0l1.278,0.339l-0.09,7.472c-0,0 -1.828,0.426 -1.956,0.426c-1.947,-0 -3.527,-1.868 -3.527,-4.168c-0,-2.301 1.58,-4.169 3.527,-4.169c0.264,0 0.521,0.035 0.768,0.1Z" style="fill:#a3a2a1;"/><path d="M5.835,134.894c1.758,-0 3.186,1.687 3.186,3.766c0,2.078 -1.428,3.766 -3.186,3.766c-1.759,-0 -3.187,-1.688 -3.187,-3.766c-0,-2.079 1.428,-3.766 3.187,-3.766Zm288.33,-0c1.759,-0 3.187,1.687 3.187,3.766c0,2.078 -1.428,3.766 -3.187,3.766c-1.758,-0 -3.186,-1.688 -3.186,-3.766c-0,-2.079 1.428,-3.766 3.186,-3.766Z" style="fill:#c0c0c0;"/></g></svg>