<?xml version="1.0" encoding="UTF-8" standalone="no"?><!DOCTYPE svg PUBLIC "-//W3C//DTD SVG 1.1//EN" "http://www.w3.org/Graphics/SVG/1.1/DTD/svg11.dtd"><svg width="100%" height="100%" viewBox="0 0 300 345" version="1.1" xmlns="http://www.w3.org/2000/svg" xmlns:xlink="http://www.w3.org/1999/xlink" xml:space="preserve" xmlns:serif="http://www.serif.com/" style="fill-rule:evenodd;clip-rule:evenodd;stroke-linejoin:round;stroke-miterlimit:2;"><g id="Biker"><g id="Helmet"><path d="M150,215.136c-10.874,-0.058 -20.703,3.687 -27.238,11.509c-11.174,13.373 -26.393,22.789 -50.287,26.129c-25.252,3.529 -43.008,-2.591 -53.728,-22.635c-4.5,-8.414 -4.519,-18.132 -4.894,-27.787l0.128,-1.454c0.316,8.494 0.805,16.911 4.766,24.316c10.72,20.044 28.476,26.164 53.728,22.635c23.894,-3.34 39.113,-12.756 50.287,-26.129c6.535,-7.822 16.364,-11.567 27.238,-11.509c10.874,-0.058 20.703,3.687 27.238,11.509c11.174,13.373 26.393,22.789 50.287,26.129c25.252,3.529 43.008,-2.591 53.728,-22.635c3.961,-7.405 4.45,-15.822 4.766,-24.316l0.128,1.454c-0.375,9.655 -0.394,19.373 -4.894,27.787c-10.72,20.044 -28.476,26.164 -53.728,22.635c-23.894,-3.34 -39.113,-12.756 -50.287,-26.129c-6.535,-7.822 -16.364,-11.567 -27.238,-11.509Z" style="fill:#348fa4;fill-opacity:0.5;"/><path d="M149.91,210.211c-10.838,-0.038 -20.631,3.708 -27.148,11.509c-11.174,13.373 -26.393,22.789 -50.287,26.129c-25.252,3.529 -43.008,-2.591 -53.728,-22.635c-4.5,-8.414 -4.519,-18.132 -4.894,-27.787l8.73,-99.189l127.327,-0.648l0.09,-0l127.326,0.648l8.731,99.189c-0.375,9.655 -0.394,19.373 -4.894,27.787c-10.72,20.044 -28.476,26.164 -53.728,22.635c-23.894,-3.34 -39.114,-12.756 -50.287,-26.129c-6.517,-7.801 -16.31,-11.547 -27.148,-11.509c-0.03,-0 -0.06,-0 -0.09,-0Z" style="fill:#adf0ff;fill-opacity:0.5;"/><path d="M85.182,97.919l27.163,-0.138l-98.445,99.114l2.627,-29.855l68.655,-69.121Zm89.384,-0.204l72.008,0.367l-116.549,117.34c-2.712,1.683 -5.159,3.779 -7.263,6.298c-11.174,13.373 -26.393,22.789 -50.287,26.129c-14.394,2.012 -26.353,0.888 -35.961,-4.163l141.543,-142.504l-3.491,-3.467Zm103.679,10.956l2.087,23.71l-96.094,96.747c-2.543,-2.306 -4.895,-4.78 -7.09,-7.408c-1.734,-2.075 -3.7,-3.864 -5.856,-5.37l106.953,-107.679Zm7.544,85.713l0.268,3.043c-0.191,4.911 -0.289,9.84 -0.933,14.605l-35.879,36.122c-5.224,0.771 -10.925,0.831 -17.108,0.247l53.652,-54.017Z" style="fill:#fff;fill-opacity:0.15;"/><path d="M253.596,122.253l-207.282,-0c-7.871,-0 -12.667,4.777 -13.85,10.011c-6.752,29.887 -13.339,59.329 -19.523,87.437c-0.745,3.388 -3.813,6.67 -7.258,8.259c-1.938,0.894 -3.82,1.675 -5.683,2.42c-0,-0 -0.09,-142.058 -0.09,-154.639c-0,-26.68 29.092,-75.717 150,-75.741l0.09,0c120.908,0.024 150,49.061 150,75.741c0,12.581 -0.09,154.639 -0.09,154.639c-1.863,-0.745 -3.745,-1.526 -5.683,-2.42c-3.445,-1.589 -6.513,-4.871 -7.258,-8.259c-6.184,-28.108 -12.771,-57.55 -19.523,-87.437c-1.183,-5.234 -5.979,-10.011 -13.85,-10.011Z" style="fill:#8a4a1e;"/><path d="M257.834,115.19l-215.758,-0c-7.871,-0 -12.667,4.778 -13.849,10.012c-6.752,29.887 -9.102,66.391 -15.286,94.499c-0.745,3.388 -3.813,6.67 -7.258,8.259c-1.938,0.894 -3.82,1.675 -5.683,2.42c-0,-0 -0.09,-142.058 -0.09,-154.639c-0,-26.68 29.092,-75.717 150,-75.741l0.09,0c120.908,0.024 150,49.061 150,75.741c0,12.581 -0.09,154.639 -0.09,154.639c-1.863,-0.745 -3.745,-1.526 -5.683,-2.42c-3.445,-1.589 -6.513,-4.871 -7.258,-8.259c-6.184,-28.108 -8.534,-64.612 -15.286,-94.499c-1.182,-5.234 -5.978,-10.012 -13.849,-10.012Z" style="fill:#eae3d1;"/><path d="M-0,230.38c-0,-0 -0.09,-142.058 -0.09,-154.639c-0,-0.847 0.029,-1.717 0.09,-2.607l-0,157.246Zm102.852,-227.487c7.31,-0.976 15.103,-1.725 23.409,-2.217l-0,114.514l-23.409,-0l-0,-112.297Zm70.887,-2.211c8.306,0.493 16.1,1.245 23.409,2.223l0,112.285l-23.409,-0l0,-114.508Z" style="fill:#5b94be;"/><path d="M126.261,0.676c7.463,-0.441 15.339,-0.674 23.649,-0.676l0.09,0c8.343,0.002 16.25,0.237 23.739,0.682l0,114.508l-47.478,-0l-0,-114.514Z" style="fill:#ce3e38;"/><path d="M148.937,58.255c0.2,-0.404 0.612,-0.66 1.063,-0.66c0.451,-0 0.863,0.256 1.063,0.66l5.478,11.06l12.211,1.792c0.446,0.065 0.817,0.378 0.956,0.807c0.14,0.429 0.024,0.899 -0.299,1.214l-8.826,8.628l2.069,12.168c0.076,0.444 -0.107,0.893 -0.472,1.158c-0.364,0.265 -0.848,0.3 -1.247,0.091l-10.933,-5.728l-10.933,5.728c-0.399,0.209 -0.883,0.174 -1.247,-0.091c-0.365,-0.265 -0.548,-0.714 -0.472,-1.158l2.069,-12.168l-8.826,-8.628c-0.323,-0.315 -0.439,-0.785 -0.299,-1.214c0.139,-0.429 0.51,-0.742 0.956,-0.807l12.211,-1.792l5.478,-11.06Zm0,-51.221c0.2,-0.404 0.612,-0.659 1.063,-0.659c0.451,-0 0.863,0.255 1.063,0.659l5.478,11.061l12.211,1.792c0.446,0.065 0.817,0.378 0.956,0.807c0.14,0.428 0.024,0.899 -0.299,1.214l-8.826,8.628l2.069,12.167c0.076,0.445 -0.107,0.894 -0.472,1.159c-0.364,0.265 -0.848,0.3 -1.247,0.091l-10.933,-5.729l-10.933,5.729c-0.399,0.209 -0.883,0.174 -1.247,-0.091c-0.365,-0.265 -0.548,-0.714 -0.472,-1.159l2.069,-12.167l-8.826,-8.628c-0.323,-0.315 -0.439,-0.786 -0.299,-1.214c0.139,-0.429 0.51,-0.742 0.956,-0.807l12.211,-1.792l5.478,-11.061Z" style="fill:#fff;"/><path d="M148.937,58.255c0.2,-0.404 0.612,-0.66 1.063,-0.66c0.451,-0 0.863,0.256 1.063,0.66l5.478,11.06l12.211,1.792c0.446,0.065 0.817,0.378 0.956,0.807c0.14,0.429 0.024,0.899 -0.299,1.214l-8.826,8.628l2.069,12.168c0.076,0.444 -0.107,0.893 -0.472,1.158c-0.364,0.265 -0.848,0.3 -1.247,0.091l-10.933,-5.728l-10.933,5.728c-0.399,0.209 -0.883,0.174 -1.247,-0.091c-0.365,-0.265 -0.548,-0.714 -0.472,-1.158l2.069,-12.168l-8.826,-8.628c-0.323,-0.315 -0.439,-0.785 -0.299,-1.214c0.139,-0.429 0.51,-0.742 0.956,-0.807l12.211,-1.792l5.478,-11.06Zm-15.923,14.543l8.475,8.285l-1.987,11.684l10.498,-5.501l10.498,5.501l-1.987,-11.684l8.475,-8.285l-11.726,-1.72l-5.26,-10.621l-5.26,10.621l-11.726,1.72Zm15.923,-65.764c0.2,-0.404 0.612,-0.659 1.063,-0.659c0.451,-0 0.863,0.255 1.063,0.659l5.478,11.061l12.211,1.792c0.446,0.065 0.817,0.378 0.956,0.807c0.14,0.428 0.024,0.899 -0.299,1.214l-8.826,8.628l2.069,12.167c0.076,0.445 -0.107,0.894 -0.472,1.159c-0.364,0.265 -0.848,0.3 -1.247,0.091l-10.933,-5.729l-10.933,5.729c-0.399,0.209 -0.883,0.174 -1.247,-0.091c-0.365,-0.265 -0.548,-0.714 -0.472,-1.159l2.069,-12.167l-8.826,-8.628c-0.323,-0.315 -0.439,-0.786 -0.299,-1.214c0.139,-0.429 0.51,-0.742 0.956,-0.807l12.211,-1.792l5.478,-11.061Zm-15.923,14.544l8.475,8.284l-1.987,11.684l10.498,-5.5l10.498,5.5l-1.987,-11.684l8.475,-8.284l-11.726,-1.72l-5.26,-10.621l-5.26,10.621l-11.726,1.72Z" style="fill:#7c2421;"/><path d="M53.907,25.398c19.747,-8.31 40.475,-13.227 49.559,-13.897c10.277,-0.758 12.957,0.323 16.137,4.336c0.749,0.945 6.164,10.495 -4.345,20.173c-9.776,9.005 -18.535,14.171 -27.81,34.051c-7.112,15.242 -17.072,11.057 -18.755,10.806c-12.599,-1.879 -14.451,-0.756 -20.735,2.498c-4.881,2.529 -6.958,12.169 -13.286,15.178c-3.949,1.878 -14.041,2.34 -18.441,0.349c-4.709,-2.132 -8.01,-7.009 -6.824,-17.624c0.129,-1.155 2.107,-14.425 3.109,-18.264c2.01,-7.702 11.852,-25.176 41.391,-37.606Zm58.953,51.617c6.736,-12.226 8.27,4.455 8.106,9.241c-0.305,8.893 -13.138,10.242 -14.714,7.054c-1.497,-3.027 0.867,-5.132 1.604,-6.024c3.371,-4.08 3.816,-8.115 5.004,-10.271Zm147.044,-48.391c18.981,11.452 26.935,21.744 31.946,47.083c2.447,12.369 3.621,34.419 -3.619,29.922c-3.361,-2.087 -0.275,-8.649 -19.648,-27.89c-1.705,-1.693 -6.804,-6.757 -29.624,-5.032c-7.371,0.558 -21.274,7.419 -34.744,8.811c-9.154,0.945 -11.024,0.03 -11.878,-0.388c-1.892,-0.926 -8.326,-8.854 -8.752,-20.805c-0.363,-10.213 -0.382,-17.585 2.056,-35.465c1.716,-12.584 8.935,-11.696 13.343,-11.926c4.302,-0.225 25.093,2.206 37.877,6.205c2.686,0.841 15.463,4.913 23.043,9.485Zm-3.913,53.85c4.447,0.871 13.749,2.621 11.973,13.342c-0.98,5.91 -11.261,-1.96 -19.481,-3.757c-6.985,-1.528 -13.909,-0.515 -10.163,-4.956c3.118,-3.698 11.773,-5.784 17.671,-4.629Z" style="fill:#fff;fill-opacity:0.15;"/><path d="M257.834,115.19l-215.758,-0c-7.871,-0 -12.667,4.778 -13.849,10.012c-6.752,29.887 -9.102,66.391 -15.286,94.499c-0.745,3.388 -3.813,6.67 -7.258,8.259c-1.938,0.894 -3.82,1.675 -5.683,2.42l0,-9.062c2.877,-1.217 5.454,-3.206 7.521,-12.942c5.592,-26.331 7.355,-58.271 13.356,-84.835c1.833,-8.113 8.998,-15.886 21.199,-15.886l107.924,-0l107.834,-0c12.201,-0 19.366,7.773 21.199,15.886c6.001,26.564 7.764,58.504 13.356,84.835c2.067,9.736 4.644,11.725 7.521,12.942l-0,9.062c-1.863,-0.745 -3.745,-1.526 -5.683,-2.42c-3.445,-1.589 -6.513,-4.871 -7.258,-8.259c-6.184,-28.108 -8.534,-64.612 -15.286,-94.499c-1.182,-5.234 -5.978,-10.012 -13.849,-10.012Z" style="fill:#898989;"/><path d="M254.667,115.19l-209.424,-0l1.925,-7.92c0.761,-3.132 3.566,-5.337 6.789,-5.337l191.996,-0c3.223,-0 6.028,2.205 6.789,5.337l1.925,7.92Z" style="fill:#333;"/><path d="M171.928,122.189l-43.946,-0c-12.627,-0 -23.994,2.397 -29.226,2.954c-11.372,1.21 -24.69,0.599 -32.671,-2.394c-4.642,-1.742 -8.842,-4.044 -12.085,-7.559c1.062,-0.923 2.5,-2.145 3.774,-3.115c1.984,-1.511 4.582,-1.919 8.411,-1.919l167.54,-0c3.829,-0 6.427,0.408 8.411,1.919c1.274,0.97 2.712,2.192 3.774,3.115c-3.243,3.515 -7.443,5.817 -12.085,7.559c-7.981,2.993 -21.299,3.604 -32.671,2.394c-5.232,-0.557 -16.599,-2.954 -29.226,-2.954Z" style="fill:#4c4c4c;"/><path d="M243.603,113.239c0.828,0.677 1.642,1.373 2.307,1.951c-0.207,-0.18 -5.142,4.352 -13.917,6.466c-8.814,2.123 -19.909,3.071 -30.138,1.355c-11.444,-1.919 -19.546,-3.768 -26.828,-4.257c-7.041,-0.473 -24.082,-0.222 -25.072,-0.207c-0.99,-0.015 -18.031,-0.266 -25.072,0.207c-7.282,0.489 -15.384,2.338 -26.829,4.257c-10.228,1.716 -21.323,0.768 -30.137,-1.355c-8.776,-2.114 -13.71,-6.646 -13.917,-6.466c0.665,-0.578 1.478,-1.274 2.306,-1.951c2.288,1.47 6.226,3.678 11.611,4.975c8.814,2.123 19.909,3.071 30.137,1.355c11.445,-1.919 19.547,-3.768 26.829,-4.257c7.041,-0.473 24.082,-0.222 25.072,-0.207c0.99,-0.015 18.031,-0.266 25.072,0.207c7.282,0.489 15.384,2.338 26.828,4.257c10.229,1.716 21.324,0.768 30.138,-1.355c5.385,-1.297 9.323,-3.505 11.61,-4.975Z" style="fill:#656565;"/><path d="M171.928,122.189l-43.946,-0c-12.627,-0 -23.994,2.397 -29.226,2.954c-11.372,1.21 -24.69,0.599 -32.671,-2.394c-4.642,-1.742 -8.842,-4.044 -12.085,-7.559c0.207,-0.18 5.141,4.352 13.917,6.466c8.814,2.123 19.909,3.071 30.137,1.355c11.445,-1.919 19.547,-3.768 26.829,-4.257c7.041,-0.473 24.082,-0.222 25.072,-0.207c0.99,-0.015 18.031,-0.266 25.072,0.207c7.282,0.489 15.384,2.338 26.828,4.257c10.229,1.716 21.324,0.768 30.138,-1.355c8.775,-2.114 13.71,-6.646 13.917,-6.466c-3.243,3.515 -7.443,5.817 -12.085,7.559c-7.981,2.993 -21.299,3.604 -32.671,2.394c-5.232,-0.557 -16.599,-2.954 -29.226,-2.954Z" style="fill:#1a1a1a;"/></g></g></svg>