<?xml version="1.0" encoding="UTF-8" standalone="no"?><!DOCTYPE svg PUBLIC "-//W3C//DTD SVG 1.1//EN" "http://www.w3.org/Graphics/SVG/1.1/DTD/svg11.dtd"><svg width="100%" height="100%" viewBox="0 0 300 345" version="1.1" xmlns="http://www.w3.org/2000/svg" xmlns:xlink="http://www.w3.org/1999/xlink" xml:space="preserve" xmlns:serif="http://www.serif.com/" style="fill-rule:evenodd;clip-rule:evenodd;stroke-linejoin:round;stroke-miterlimit:2;"><g id="Toxic-2" serif:id="Toxic 2"><g><path d="M263.62,298.39l-227.24,0c-20.079,0 -36.38,-16.301 -36.38,-36.38l0,-180.63c0,-27.52 23.869,-47.065 52.595,-52.495c6.367,-1.203 14.227,-1.331 20.84,-2.873c8.974,-2.092 16.501,-5.695 22.806,-7.941c8.981,-3.198 19.25,-4.576 28.783,-4.688l49.952,0c9.533,0.112 19.802,1.49 28.783,4.688c6.305,2.246 13.832,5.849 22.806,7.941c6.613,1.542 14.473,1.67 20.84,2.873c28.726,5.43 52.595,24.975 52.595,52.495l0,180.63c0,20.079 -16.301,36.38 -36.38,36.38Zm-94.213,-216.532l-38.814,0c-32.168,0.696 -66.804,7.192 -95.074,45.657c-11.126,15.139 -18.412,41.47 -20.602,62.44c-2.664,25.501 7.713,42.117 26.557,57.748c29.479,24.454 80.332,32.844 108.526,32.844c28.194,0 79.047,-8.39 108.526,-32.844c18.844,-15.631 29.221,-32.247 26.557,-57.748c-2.19,-20.97 -9.476,-47.301 -20.602,-62.44c-28.27,-38.465 -62.906,-44.961 -95.074,-45.657Z" style="fill:#fae303;"/><path d="M101.214,42.439c9.48,8.874 19.938,13.567 25.64,21.367c4.075,5.574 3.565,8.001 -4.273,5.081c-2.069,-0.77 -6.845,-8.251 -9.818,-13.051c-2.222,-3.588 -7.241,-8.234 -11.549,-13.397Zm-80.847,29.451c9.139,-1.542 19.234,2.274 29.913,9.356c2.93,1.942 5.829,4.319 9.009,7.276c3.475,3.23 -0.803,3.445 -4.158,2.425c-3.555,-1.081 -11.174,-8.135 -17.44,-13.051c-4.821,-3.782 -10.469,-5.547 -17.324,-6.006Zm39.268,199.924c-13.23,1.666 -26.346,-0.704 -39.268,-9.817c-3.433,-2.421 -0.358,-5.431 2.887,-3.581c11.755,6.701 24.01,10.399 36.381,13.398Zm34.072,13.397c-9.648,1.047 -14.913,4.424 -18.707,5.313c-9.153,2.144 -21.009,3.363 -28.3,1.386c-7.158,-1.941 -6.925,-4.147 1.386,-4.389c7.33,-0.213 14.958,0.065 19.057,-1.617c7.856,-3.224 17.156,-2.12 26.564,-0.693Zm105.079,-242.772c-4.308,5.163 -9.327,9.809 -11.549,13.397c-2.973,4.8 -7.749,12.281 -9.818,13.051c-7.838,2.92 -8.348,0.493 -4.273,-5.081c5.702,-7.8 16.16,-12.493 25.64,-21.367Zm80.847,29.451c-6.855,0.459 -12.503,2.224 -17.324,6.006c-6.266,4.916 -13.885,11.97 -17.44,13.051c-3.355,1.02 -7.633,0.805 -4.158,-2.425c3.18,-2.957 6.079,-5.334 9.009,-7.276c10.679,-7.082 20.774,-10.898 29.913,-9.356Zm-39.268,199.924c12.371,-2.999 24.626,-6.697 36.381,-13.398c3.245,-1.85 6.32,1.16 2.887,3.581c-12.922,9.113 -26.038,11.483 -39.268,9.817Zm-34.072,13.397c9.408,-1.427 18.708,-2.531 26.564,0.693c4.099,1.682 11.727,1.404 19.057,1.617c8.311,0.242 8.544,2.448 1.386,4.389c-7.291,1.977 -19.147,0.758 -28.3,-1.386c-3.794,-0.889 -9.059,-4.266 -18.707,-5.313Z" style="fill:#e8d300;"/><path d="M150,69.727c-2.452,-0.766 -5.06,-3.084 -7.821,-6.93c-6.104,-8.504 -14.516,-18.803 -24.831,-27.95c-6.201,-5.498 -2.355,-14.577 9.009,-10.048c5.626,2.243 11.656,4.617 16.284,-0.231c1.6,-1.675 4.274,-3.201 7.359,-3.349c3.085,0.148 5.759,1.674 7.359,3.349c4.628,4.848 10.658,2.474 16.284,0.231c11.364,-4.529 15.21,4.55 9.009,10.048c-10.315,9.147 -18.727,19.446 -24.831,27.95c-2.761,3.846 -5.369,6.164 -7.821,6.93Zm-131.138,75.221c-3.594,10.094 -10.003,7.122 -10.867,0.435c-0.535,-4.146 1.786,-8.972 3.947,-12.539c4.911,-8.107 2.84,-11.095 0.646,-13.675c-2.86,-3.363 -2.603,-6.703 -1.201,-9.701c2.914,-6.227 4.134,-12.476 2.957,-14.599c-2.825,-5.096 -0.629,-6.913 4.518,-6.006c7.172,1.264 16.342,3.215 20.891,9.425c3.271,4.466 4.389,8.141 -0.554,13.397c-8.919,9.483 -15.843,20.641 -20.337,33.263Zm48.361,-68.176c-10.498,-6.193 -22.227,-11.632 -28.99,-17.786c-5.102,-4.643 -1.065,-8.143 10.857,-9.933c4.122,-0.619 15.462,1.439 16.285,-4.62c0.186,-1.373 6.16,-2.502 14.552,-0.115c12.686,3.608 22.99,8.949 27.95,18.364c1.187,2.252 1.269,5.359 3.234,7.507c2.24,2.449 -0.256,4.745 -6.006,5.544c-8.253,1.146 -18.54,-0.37 -23.445,1.386c-4.248,1.52 -10.728,1.842 -14.437,-0.347Zm-56.804,103.519c-0.794,13.912 -0.373,28.137 5.417,44.128c3.477,9.606 9.309,20.288 22.642,29.972c0.046,0.034 0.148,0.072 0.12,0.121c-0.027,0.046 -4.595,-1.994 -8.591,-4.629c-4.097,-2.701 -16.708,-11.396 -21.3,-28.946c-2.307,-8.819 -1.749,-18.431 -1.655,-20.037c0.552,-9.505 2.569,-17.441 3.367,-20.609Zm270.719,-35.343c-4.494,-12.622 -11.418,-23.78 -20.337,-33.263c-4.943,-5.256 -3.825,-8.931 -0.554,-13.397c4.549,-6.21 13.719,-8.161 20.891,-9.425c5.147,-0.907 7.343,0.91 4.518,6.006c-1.177,2.123 0.043,8.372 2.957,14.599c1.402,2.998 1.659,6.338 -1.201,9.701c-2.194,2.58 -4.265,5.568 0.646,13.675c2.161,3.567 4.482,8.393 3.947,12.539c-0.864,6.687 -7.273,9.659 -10.867,-0.435Zm-48.361,-68.176c-3.709,2.189 -10.189,1.867 -14.437,0.347c-4.905,-1.756 -15.192,-0.24 -23.445,-1.386c-5.75,-0.799 -8.246,-3.095 -6.006,-5.544c1.965,-2.148 2.047,-5.255 3.234,-7.507c4.96,-9.415 15.264,-14.756 27.95,-18.364c8.392,-2.387 14.366,-1.258 14.552,0.115c0.823,6.059 12.163,4.001 16.285,4.62c11.922,1.79 15.959,5.29 10.857,9.933c-6.763,6.154 -18.492,11.593 -28.99,17.786Zm56.804,103.519c0.798,3.168 2.815,11.104 3.367,20.609c0.094,1.606 0.652,11.218 -1.655,20.037c-4.592,17.55 -17.203,26.245 -21.3,28.946c-3.996,2.635 -8.564,4.675 -8.591,4.629c-0.028,-0.049 0.074,-0.087 0.12,-0.121c13.333,-9.684 19.165,-20.366 22.642,-29.972c5.79,-15.991 6.211,-30.216 5.417,-44.128Z" style="fill:#ffec30;"/><path d="M150,280.547c-28.194,0 -79.047,-8.39 -108.526,-32.844c-18.844,-15.631 -29.221,-32.247 -26.557,-57.748c2.19,-20.97 9.476,-47.301 20.602,-62.44c28.27,-38.465 62.906,-44.961 95.074,-45.657l38.814,0c32.168,0.696 66.804,7.192 95.074,45.657c11.126,15.139 18.412,41.47 20.602,62.44c2.664,25.501 -7.713,42.117 -26.557,57.748c-29.479,24.454 -80.332,32.844 -108.526,32.844Zm19.407,-195.26l-38.814,0c-32.168,0.696 -64.278,8.635 -92.548,47.101c-11.126,15.138 -15.344,37.861 -17.534,58.831c-2.664,25.5 6.811,38.507 25.655,54.138c29.479,24.454 75.64,28.694 103.834,28.694c28.194,-0 74.355,-4.24 103.834,-28.694c18.844,-15.631 28.319,-28.638 25.655,-54.138c-2.19,-20.97 -6.408,-43.693 -17.534,-58.831c-28.27,-38.466 -60.38,-46.405 -92.548,-47.101Zm-169.407,35.871l0,-39.778c0,-27.52 23.869,-47.065 52.595,-52.495c6.367,-1.203 14.227,-1.331 20.84,-2.873c8.974,-2.092 16.501,-5.695 22.806,-7.941c8.656,-3.083 18.509,-4.474 27.746,-4.671c-15.902,4.001 -27.333,10.184 -28.817,17.846c-0.626,3.234 -4.215,3.732 -9.009,3.927c-19.759,0.802 -38.409,3.458 -52.319,9.827c-6.409,2.934 -13.967,7.625 -10.049,12.348c3.989,4.807 1.522,3.936 -6.814,9.471c-9.587,6.365 -12.97,11.002 -11.087,25.755c1.159,9.086 0.351,15.301 -2.195,19.403c-1.364,2.198 -2.634,5.578 -3.697,9.181Zm38.232,177.232l-1.852,-0c-20.079,-0 -36.38,-16.301 -36.38,-36.38l0,-37.738c2.06,7.332 5.633,14.722 12.244,22.258c3.622,4.129 2.221,7.155 -1.386,7.854c-7.886,1.527 -2.111,19.136 10.741,26.333c8.318,4.658 10.664,6.216 8.431,9.817c-1.779,2.869 2.198,5.419 8.202,7.856Zm261.768,-177.232c-1.063,-3.603 -2.333,-6.983 -3.697,-9.181c-2.546,-4.102 -3.354,-10.317 -2.195,-19.403c1.883,-14.753 -1.5,-19.39 -11.087,-25.755c-8.336,-5.535 -10.803,-4.664 -6.814,-9.471c3.918,-4.723 -3.64,-9.414 -10.049,-12.348c-13.91,-6.369 -32.56,-9.025 -52.319,-9.827c-4.794,-0.195 -8.383,-0.693 -9.009,-3.927c-1.484,-7.662 -12.915,-13.845 -28.817,-17.846c9.237,0.197 19.09,1.588 27.746,4.671c6.305,2.246 13.832,5.849 22.806,7.941c6.613,1.542 14.473,1.67 20.84,2.873c28.726,5.43 52.595,24.975 52.595,52.495l0,39.778Zm-38.232,177.232c6.004,-2.437 9.981,-4.987 8.202,-7.856c-2.233,-3.601 0.113,-5.159 8.431,-9.817c12.852,-7.197 18.627,-24.806 10.741,-26.333c-3.607,-0.699 -5.008,-3.725 -1.386,-7.854c6.611,-7.536 10.184,-14.926 12.244,-22.258l0,37.738c0,20.079 -16.301,36.38 -36.38,36.38l-1.852,-0Z" style="fill:#e8d300;"/><path d="M169.407,85.287c32.168,0.696 64.278,8.635 92.548,47.101c11.126,15.138 15.344,37.861 17.534,58.831c2.664,25.5 -6.811,38.507 -25.655,54.138c-29.479,24.454 -75.64,28.694 -103.834,28.694c-28.194,-0 -74.355,-4.24 -103.834,-28.694c-18.844,-15.631 -28.319,-28.638 -25.655,-54.138c2.19,-20.97 6.408,-43.693 17.534,-58.831c28.27,-38.466 60.38,-46.405 92.548,-47.101l38.814,0Z" style="fill:#27b4dd;fill-opacity:0.45;"/><path d="M200.745,269.024c-18.515,3.993 -36.821,5.027 -50.745,5.027c-2.194,-0 -4.497,-0.026 -6.892,-0.085c33.823,-45.346 78.374,-79.593 133.543,-102.857c1.251,6.681 2.146,13.483 2.838,20.11c0.364,3.481 0.501,6.73 0.419,9.785c-36.748,17.891 -60.266,41.889 -79.163,68.02Zm-103.363,-0.414c-18.36,-4.156 -36.787,-11.283 -51.216,-23.253c-8.335,-6.914 -14.837,-13.315 -19.267,-20.511c37.459,-62.349 101.524,-107.779 166.601,-137.308c23.085,4.184 45.643,15.215 66.243,41.912c-68.285,33.279 -120.401,81.521 -162.361,139.16Zm-75.907,-85.612c0.932,-7.082 2.159,-14.225 3.861,-21.083c28.995,-32.7 63.684,-59.282 100.545,-76.471c1.57,-0.072 3.141,-0.123 4.712,-0.157l19.755,0c-49.432,21.784 -97.787,55.389 -128.873,97.711Z" style="fill:#d9f6ff;fill-opacity:0.15;"/><path d="M39.694,161.671c0.396,0.311 1.063,0.079 1.459,0.39c0.025,0.02 -4.157,19.178 -3.212,40.134c0.027,0.59 0.165,3.191 0.181,3.232c4.774,12.194 13.506,22.888 15.314,25.141c0.024,0.03 0.068,0.052 0.071,0.09c0.037,0.458 -0.027,0.456 0.01,0.912c-0.327,-0.074 -0.677,0.013 -1.004,-0.06c-0.01,-0.003 -2.725,-2.11 -4.15,-3.359c-3.532,-3.098 -11.321,-10.089 -15.647,-20.511c-0.125,-0.3 -0.301,-0.584 -0.37,-0.902c-0.016,-0.071 -0.139,-2.522 -0.147,-3.131c-0.23,-19.072 6.495,-38.97 7.495,-41.936Zm220.318,4.359c-0.138,-0.184 -0.368,-0.287 -0.506,-0.472c-0.134,-0.179 -5.354,-16.182 -22.67,-32.136c-1.551,-1.429 -19.331,-18.718 -44.686,-23.981c-3.017,-0.626 -4.8,-1.015 -17.286,-1.777c-13.537,-0.826 -43.427,-1.801 -52.105,-1.606c-8.18,0.184 -15.388,0.857 -23.118,3.129c-0.159,0.047 -0.299,-0.144 -0.449,-0.216c0.117,-0.119 0.102,-0.33 0.219,-0.449c0.12,-0.123 2.711,-1.008 2.948,-1.089c12.413,-4.242 25.381,-4.677 39.634,-5.419c3.126,-0.163 23.926,-1.247 39.12,-0.833c7.305,0.199 20.738,0.441 37.978,10.572c1.283,0.753 7.135,4.371 12.508,9.016c7.436,6.43 12.662,12.753 16.743,18.679c3.134,4.548 7.386,12.094 9.83,19.14c0.565,1.628 1.222,3.642 1.885,6.32c0.037,0.148 0.113,0.293 0.107,0.445c-0.014,0.35 -0.138,0.326 -0.152,0.677Z" style="fill:#fff;fill-opacity:0.25;"/><path d="M169.407,85.287c32.168,0.696 64.278,8.635 92.548,47.101c11.126,15.138 15.344,37.861 17.534,58.831c2.664,25.5 -6.811,38.507 -25.655,54.138c-29.479,24.454 -75.64,28.694 -103.834,28.694c-28.194,-0 -74.355,-4.24 -103.834,-28.694c-18.844,-15.631 -28.319,-28.638 -25.655,-54.138c2.19,-20.97 6.408,-43.693 17.534,-58.831c28.27,-38.466 60.38,-46.405 92.548,-47.101l38.814,0Zm-0.074,6.694c0,0 -38.666,0 -38.67,0c-30.311,0.667 -60.586,8.127 -87.224,44.371c-10.493,14.277 -14.204,35.785 -16.27,55.562c-2.383,22.817 6.41,34.304 23.271,48.291c28.239,23.426 72.551,27.151 99.56,27.151c27.009,0 71.321,-3.725 99.56,-27.151c16.861,-13.987 25.654,-25.474 23.271,-48.291c-2.066,-19.777 -5.777,-41.285 -16.27,-55.562c-26.639,-36.246 -56.916,-43.704 -87.228,-44.371Z" style="fill:#63788f;"/><g><path d="M150,288.152l-16.649,-0.462c-11.941,-5.337 -23.516,-13.605 -34.533,-26.333c-11.956,-13.813 -8.364,-26.415 5.775,-29.787c6.03,-1.438 13.177,-7.149 18.133,-13.408c6.646,-8.395 11.263,-13.003 23.453,-13.398l7.642,-0c12.19,0.395 16.807,5.003 23.453,13.398c4.956,6.259 12.103,11.97 18.133,13.408c14.139,3.372 17.731,15.974 5.775,29.787c-11.017,12.728 -22.592,20.996 -34.533,26.333l-16.649,0.462Z" style="fill:#4e5f72;"/><path d="M150,255.421l-47.869,-23.135c0.781,-0.272 1.602,-0.511 2.462,-0.716c6.03,-1.438 13.177,-7.149 18.133,-13.408c3.448,-4.356 6.35,-7.692 10.047,-9.949l17.227,27.82l17.227,-27.82c3.697,2.257 6.599,5.593 10.047,9.949c4.956,6.259 12.103,11.97 18.133,13.408c0.86,0.205 1.681,0.444 2.462,0.716l-47.869,23.135Z" style="fill:#63788f;"/><path d="M150,288.152l-16.649,-0.462c-1.581,-0.455 -2.384,-2.933 -2.425,-7.392l-0,-12.935l-2.079,-10.51l-6.448,-11.944c-0.952,-1.765 -0.67,-3.942 0.702,-5.405l16.063,-17.133c0.86,-0.917 2.061,-1.438 3.319,-1.438l15.034,0c1.258,0 2.459,0.521 3.319,1.438l16.063,17.133c1.372,1.463 1.654,3.64 0.702,5.405l-6.448,11.944l-2.079,10.51l0,12.935c-0.041,4.459 -0.844,6.937 -2.425,7.392l-16.649,0.462Z" style="fill:#4c5a69;"/><path d="M150,288.152l-16.649,-0.462c-1.581,-0.455 -2.384,-2.933 -2.425,-7.392l-0,-12.935l-2.079,-10.51l-6.448,-11.944c-0.952,-1.765 -0.67,-3.942 0.702,-5.405l16.063,-17.133c0.86,-0.917 2.061,-1.438 3.319,-1.438l15.034,0c1.258,0 2.459,0.521 3.319,1.438l16.063,17.133c1.372,1.463 1.654,3.64 0.702,5.405l-6.448,11.944l-2.079,10.51l0,12.935c-0.041,4.459 -0.844,6.937 -2.425,7.392l-16.649,0.462Zm7.517,-63.047l-15.034,0c-0.104,0 -0.204,0.044 -0.275,0.12l-16.064,17.132c-0.144,0.155 -0.174,0.384 -0.073,0.57l6.746,12.498l2.281,11.529c-0,0 -0,13.322 0,13.342c0.014,1.158 0.206,2.455 0.35,3.279l14.552,0.403l14.552,-0.403c0.144,-0.824 0.336,-2.121 0.35,-3.279c0,-0.02 0,-13.342 0,-13.342l2.281,-11.529l6.746,-12.498c0.101,-0.186 0.071,-0.415 -0.073,-0.57l-16.064,-17.132c-0.071,-0.076 -0.171,-0.12 -0.275,-0.12Z" style="fill:#2f3b47;"/><path d="M151.542,256.793l-3.084,-0l-4.788,-25.962l0.261,-0.279l12.138,-0l0.261,0.279l-4.788,25.962Zm8.001,21.509l-19.086,0l-0,-16.187l19.086,-0l0,16.187Zm-15.328,-21.509l-4.276,-0l-7.244,-14.193l7.433,-7.971l4.087,22.164Zm11.57,-0l4.087,-22.164l7.433,7.971l-7.244,14.193l-4.276,-0Z" style="fill:#2f3b47;"/></g><g><path d="M88.486,236.3c7.225,-5.802 21.379,0.758 31.587,14.64c10.207,13.883 12.628,29.864 5.402,35.667c-0.614,0.493 -1.277,0.896 -1.985,1.214l-13.815,8.451l-36.989,-50.306l15.8,-9.666Z" style="fill:#63788f;"/><path d="M99.716,255.149c-8.587,-9.046 -18.61,-13.287 -25.045,-10.398l13.815,-8.451c6.252,-5.021 17.691,-0.785 27.273,9.441l-16.043,9.408Zm24.464,2.222c6.613,12.074 7.423,24.315 1.295,29.236c-0.614,0.493 -1.277,0.896 -1.985,1.214l-13.815,8.451c6.179,-4.961 5.304,-17.366 -1.462,-29.537l15.967,-9.364Z" style="fill:#6e8297;"/><path d="M88.877,246.66c-5.299,-2.826 -10.385,-3.624 -14.206,-1.909l13.815,-8.451c4.004,-3.215 10.136,-2.634 16.545,0.886l-16.154,9.474Zm40.532,25.836c0.791,6.152 -0.451,11.314 -3.934,14.111c-0.614,0.493 -1.277,0.896 -1.985,1.214l-13.815,8.451c3.553,-2.853 4.774,-8.166 3.884,-14.481l15.85,-9.295Z" style="fill:#536a83;"/><path d="M72.686,245.966c7.225,-5.803 21.379,0.757 31.587,14.64c10.207,13.882 12.628,29.864 5.402,35.666c-7.225,5.803 -21.379,-0.757 -31.586,-14.64c-10.208,-13.882 -12.629,-29.864 -5.403,-35.666Z" style="fill:#4e5f72;"/><path d="M86.034,265.698c1.601,-1.285 4.735,0.168 6.996,3.242c2.261,3.075 2.797,6.614 1.197,7.899c-1.601,1.285 -4.735,-0.168 -6.996,-3.242c-2.261,-3.075 -2.797,-6.614 -1.197,-7.899Zm-9.882,-9.92c-0.682,-0.927 -0.483,-2.234 0.445,-2.916c0.927,-0.682 2.234,-0.483 2.916,0.445l6.055,8.236c0.682,0.927 0.483,2.234 -0.445,2.916c-0.927,0.682 -2.234,0.482 -2.916,-0.445l-6.055,-8.236Zm19.18,26.086c-0.682,-0.928 -0.483,-2.235 0.445,-2.917c0.927,-0.682 2.234,-0.482 2.916,0.445l6.107,8.306c0.682,0.928 0.483,2.235 -0.445,2.917c-0.927,0.682 -2.234,0.482 -2.916,-0.445l-6.107,-8.306Zm-10.908,-3.627c-0.96,0.635 -2.255,0.37 -2.89,-0.59c-0.635,-0.961 -0.37,-2.256 0.591,-2.891l1.292,-0.854c0.961,-0.635 2.256,-0.37 2.891,0.591c0.634,0.96 0.37,2.255 -0.591,2.89l-1.293,0.854Zm13.121,-8.669c-0.961,0.635 -2.256,0.37 -2.891,-0.59c-0.634,-0.961 -0.37,-2.256 0.591,-2.891l2.634,-1.74c0.961,-0.635 2.256,-0.37 2.89,0.59c0.635,0.961 0.371,2.256 -0.59,2.89l-2.634,1.741Z" style="fill:#2f3b47;"/><path d="M72.686,245.966c7.225,-5.803 21.379,0.757 31.587,14.64c10.207,13.882 12.628,29.864 5.402,35.666c-7.225,5.803 -21.379,-0.757 -31.586,-14.64c-10.208,-13.882 -12.629,-29.864 -5.403,-35.666Zm2.612,3.253c-1.997,1.604 -2.654,4.43 -2.6,7.742c0.105,6.499 3.215,14.67 8.752,22.2c5.496,7.475 12.177,12.697 18.115,14.464c2.916,0.868 5.588,0.928 7.498,-0.606c1.998,-1.604 2.654,-4.431 2.601,-7.742c-0.106,-6.499 -3.216,-14.67 -8.752,-22.2c-5.497,-7.475 -12.178,-12.697 -18.116,-14.464c-2.916,-0.868 -5.588,-0.929 -7.498,0.606Z" style="fill:#2f3b47;"/></g><g><path d="M211.514,236.3c-7.225,-5.802 -21.379,0.758 -31.587,14.64c-10.207,13.883 -12.628,29.864 -5.402,35.667c0.614,0.493 1.277,0.896 1.985,1.214l13.815,8.451l36.989,-50.306l-15.8,-9.666Z" style="fill:#63788f;"/><path d="M200.284,255.149c8.587,-9.046 18.61,-13.287 25.045,-10.398l-13.815,-8.451c-6.252,-5.021 -17.691,-0.785 -27.273,9.441l16.043,9.408Zm-24.464,2.222c-6.613,12.074 -7.423,24.315 -1.295,29.236c0.614,0.493 1.277,0.896 1.985,1.214l13.815,8.451c-6.179,-4.961 -5.304,-17.366 1.462,-29.537l-15.967,-9.364Z" style="fill:#6e8297;"/><path d="M211.123,246.66c5.299,-2.826 10.385,-3.624 14.206,-1.909l-13.815,-8.451c-4.004,-3.215 -10.136,-2.634 -16.545,0.886l16.154,9.474Zm-40.532,25.836c-0.791,6.152 0.451,11.314 3.934,14.111c0.614,0.493 1.277,0.896 1.985,1.214l13.815,8.451c-3.553,-2.853 -4.774,-8.166 -3.884,-14.481l-15.85,-9.295Z" style="fill:#536a83;"/><path d="M227.314,245.966c-7.225,-5.803 -21.379,0.757 -31.587,14.64c-10.207,13.882 -12.628,29.864 -5.402,35.666c7.225,5.803 21.379,-0.757 31.586,-14.64c10.208,-13.882 12.629,-29.864 5.403,-35.666Z" style="fill:#4e5f72;"/><path d="M213.966,265.698c-1.601,-1.285 -4.735,0.168 -6.996,3.242c-2.261,3.075 -2.797,6.614 -1.197,7.899c1.601,1.285 4.735,-0.168 6.996,-3.242c2.261,-3.075 2.797,-6.614 1.197,-7.899Zm9.882,-9.92c0.682,-0.927 0.483,-2.234 -0.445,-2.916c-0.927,-0.682 -2.234,-0.483 -2.916,0.445l-6.055,8.236c-0.682,0.927 -0.483,2.234 0.445,2.916c0.927,0.682 2.234,0.482 2.916,-0.445l6.055,-8.236Zm-19.18,26.086c0.682,-0.928 0.483,-2.235 -0.445,-2.917c-0.927,-0.682 -2.234,-0.482 -2.916,0.445l-6.107,8.306c-0.682,0.928 -0.483,2.235 0.445,2.917c0.927,0.682 2.234,0.482 2.916,-0.445l6.107,-8.306Zm10.908,-3.627c0.96,0.635 2.255,0.37 2.89,-0.59c0.635,-0.961 0.37,-2.256 -0.591,-2.891l-1.292,-0.854c-0.961,-0.635 -2.256,-0.37 -2.891,0.591c-0.634,0.96 -0.37,2.255 0.591,2.89l1.293,0.854Zm-13.121,-8.669c0.961,0.635 2.256,0.37 2.891,-0.59c0.634,-0.961 0.37,-2.256 -0.591,-2.891l-2.634,-1.74c-0.961,-0.635 -2.256,-0.37 -2.89,0.59c-0.635,0.961 -0.371,2.256 0.59,2.89l2.634,1.741Z" style="fill:#2f3b47;"/><path d="M227.314,245.966c-7.225,-5.803 -21.379,0.757 -31.587,14.64c-10.207,13.882 -12.628,29.864 -5.402,35.666c7.225,5.803 21.379,-0.757 31.586,-14.64c10.208,-13.882 12.629,-29.864 5.403,-35.666Zm-2.612,3.253c1.997,1.604 2.654,4.43 2.6,7.742c-0.105,6.499 -3.215,14.67 -8.752,22.2c-5.496,7.475 -12.177,12.697 -18.115,14.464c-2.916,0.868 -5.588,0.928 -7.498,-0.606c-1.998,-1.604 -2.654,-4.431 -2.601,-7.742c0.106,-6.499 3.216,-14.67 8.752,-22.2c5.497,-7.475 12.178,-12.697 18.116,-14.464c2.916,-0.868 5.588,-0.929 7.498,0.606Z" style="fill:#2f3b47;"/></g></g></g></svg>