<?xml version="1.0" encoding="UTF-8" standalone="no"?><!DOCTYPE svg PUBLIC "-//W3C//DTD SVG 1.1//EN" "http://www.w3.org/Graphics/SVG/1.1/DTD/svg11.dtd"><svg width="100%" height="100%" viewBox="0 0 300 345" version="1.1" xmlns="http://www.w3.org/2000/svg" xmlns:xlink="http://www.w3.org/1999/xlink" xml:space="preserve" xmlns:serif="http://www.serif.com/" style="fill-rule:evenodd;clip-rule:evenodd;stroke-linejoin:round;stroke-miterlimit:2;"><g id="Fire"><path d="M160,10l0,-10l10,0l0,10l-10,0Zm-130,0l-10,0l0,-10l10,0l0,10Zm-10,120l0,10l-10,0l0,10l-10,0l0,-110l10,-0l0,-10l10,-0l0,-10l10,0l0,-10l20,0l0,20l10,-0l0,-10l20,0l0,-10l10,0l0,-10l20,0l0,10l10,0l0,10l20,0l0,-10l20,0l0,20l30,0l0,-10l10,0l0,-20l10,0l0,10l20,0l0,10l20,0l0,10l10,0l0,-10l10,0l0,-20l10,0l0,10l10,0l0,30l10,-0l0,100l-10,-0l0,-10l-10,0l0,-10l-10,0l0,-10l-10,0l0,-10l-10,0l0,10l-20,0l0,10l-20,0l0,-10l-10,0l0,-10l-10,0l0,10l-10,0l0,10l-10,0l0,10l-20,0l0,-10l-10,0l0,-10l-10,0l0,-10l-10,0l0,20l-10,0l0,10l-10,0l0,10l-10,0l0,-10l-10,0l0,-10l-10,0l0,-10l-10,0l0,-10l-10,0l0,10l-10,0l0,10l-10,0l0,10l-10,0Z" style="fill:#fd8e00;"/><path d="M30,80l0,-20l20,-0l0,10l-10,-0l0,10l-10,-0Zm50,-0l0,-20l10,-0l0,-10l10,-0l0,10l10,-0l0,10l-10,-0l0,10l-20,-0Zm60,-10l0,-20l10,-0l0,10l10,-0l0,10l10,-0l0,10l-20,-0l0,-10l-10,-0Zm80,-0l-30,-0l0,-10l20,-0l0,-10l10,-0l0,10l10,-0l0,20l-10,-0l0,-10Z" style="fill:#ffe957;"/><path d="M30,90l0,10l-10,0l0,-40l10,0l0,20l10,0l0,10l-10,0Zm0,-30l0,-20l10,0l0,10l20,0l0,10l10,0l0,-10l10,0l0,-10l20,0l0,-10l10,0l0,20l10,0l0,10l10,0l0,-10l10,-0l0,20l10,-0l0,10l20,0l0,-10l-10,-0l0,-10l10,-0l0,-10l10,-0l0,10l10,-0l0,10l30,0l0,10l10,0l0,10l-20,0l0,-10l-30,0l0,10l-20,0l0,10l-10,0l0,-10l-10,0l0,-10l-10,0l0,-10l-10,0l0,10l-10,0l0,10l-10,0l0,20l-10,-0l0,-10l-10,-0l0,-10l-10,-0l0,-10l-10,0l0,-10l-10,0l0,-10l-20,0Zm110,-10l0,-10l10,-0l0,10l-10,-0Zm10,-0l10,-0l0,10l-10,-0l0,-10Zm40,10l0,-10l10,-0l0,-10l10,-0l0,-10l10,-0l0,20l-10,-0l0,10l-20,-0Zm30,-10l10,-0l0,-10l10,-0l0,20l20,0l0,-10l10,0l0,20l10,-0l0,20l-10,-0l0,-10l-10,-0l0,-10l-10,0l0,10l-20,0l0,-20l-10,-0l0,-10Zm-170,20l0,10l-10,0l0,-10l10,0Zm30,-10l0,20l20,0l0,-10l10,0l0,-10l-10,0l0,-10l-10,0l0,10l-10,0Z" style="fill:#fbd901;"/><path d="M20,120l0,10l-10,0l0,-90l10,0l0,-10l10,0l0,-10l10,0l0,10l10,0l0,10l10,0l0,-10l20,0l0,-10l10,0l0,-10l20,0l0,10l10,0l0,10l20,0l0,-10l10,0l0,10l10,0l0,10l30,0l0,-10l10,0l0,-10l30,0l0,10l20,0l0,10l10,0l0,-10l10,0l0,-10l10,0l0,20l10,0l0,80l-10,0l0,-10l-10,0l0,-10l-10,0l0,-10l-20,0l0,10l-10,0l0,10l-20,0l0,-10l-10,0l0,-10l-10,0l0,10l-10,0l0,10l-10,0l0,10l-20,0l0,-10l-10,0l0,-10l-10,0l0,-10l-10,0l0,10l-10,0l0,20l-10,0l0,10l-10,0l0,-10l-10,0l0,-10l-10,0l0,-10l-10,0l0,-10l-10,0l0,10l-10,0l0,10l-10,0l0,10l-10,0Zm0,-60l0,40l10,0l-0,-10l10,0l0,-10l10,0l0,-10l10,0l0,10l10,0l0,10l10,0l0,10l10,0l0,10l10,0l0,-20l10,0l0,-10l10,0l0,-10l10,0l0,10l10,0l0,10l10,0l0,10l10,0l0,-10l20,0l0,-10l30,0l0,10l20,0l0,-10l20,0l0,-10l10,0l0,10l10,0l0,10l10,0l0,-20l-10,0l0,-20l-10,0l0,10l-20,0l0,-20l-10,0l0,10l-10,0l0,-20l-10,0l0,10l-10,0l0,10l-10,0l0,10l-10,0l0,-10l-10,0l0,10l-10,0l0,-10l-10,0l0,-10l-10,0l0,10l-10,0l0,10l-10,0l0,-10l-10,0l0,-20l-10,0l0,10l-20,0l0,10l-10,0l0,10l-10,0l0,-10l-20,0l0,-10l-10,0l0,20l-10,0Z" style="fill:#fd8e00;"/><path d="M30,10l-10,0l0,-10l10,0l0,10Zm130,0l0,-10l10,0l0,10l-10,0Zm-150,130l0,10l-10,0l0,-110l10,-0l0,90l10,0l0,10l-10,0Zm0,-100l0,-10l10,-0l0,10l-10,-0Zm10,-10l0,-10l10,0l0,10l-10,-0Zm10,-10l0,-10l20,0l0,20l-10,-0l0,-10l-10,0Zm20,10l10,-0l0,10l-10,-0l0,-10Zm10,-0l0,-10l20,-0l0,10l-20,-0Zm20,-10l0,-10l10,0l0,10l-10,-0Zm10,-10l0,-10l20,0l0,10l-20,0Zm20,0l10,0l0,10l-10,0l0,-10Zm10,10l20,0l0,10l-20,-0l0,-10Zm20,0l0,-10l20,0l0,20l-10,0l0,-10l-10,0Zm20,10l30,-0l0,10l-30,-0l0,-10Zm30,-0l0,-10l10,0l0,10l-10,-0Zm10,-10l0,-20l10,0l0,10l20,0l0,10l-30,0Zm30,0l20,0l0,10l-20,0l0,-10Zm20,10l10,-0l0,10l-10,-0l0,-10Zm10,-0l0,-10l10,-0l0,10l-10,-0Zm10,-10l0,-20l10,0l0,10l10,0l0,30l-10,-0l0,-20l-10,-0Zm20,20l10,-0l0,100l-10,-0l0,-10l-10,0l0,-10l10,0l0,-80Zm-10,80l-10,0l0,-10l10,0l0,10Zm-10,-10l-10,0l0,-10l10,0l0,10Zm-10,-10l-10,0l0,10l-20,0l0,-10l10,0l0,-10l20,0l0,10Zm-30,10l0,10l-20,0l0,-10l20,0Zm-20,0l-10,0l0,-10l10,0l0,10Zm-10,-10l-10,0l0,-10l10,0l0,10Zm-10,0l0,10l-10,0l0,-10l10,0Zm-10,10l0,10l-10,0l0,-10l10,0Zm-10,10l0,10l-20,0l0,-10l20,0Zm-20,0l-10,0l0,-10l10,0l0,10Zm-10,-10l-10,0l0,-10l10,0l0,10Zm-10,-10l-10,0l0,-10l10,0l0,10Zm-10,0l0,20l-10,0l0,-20l10,0Zm-10,20l0,10l-10,0l0,-10l10,0Zm-10,10l0,10l-10,0l0,-10l10,0Zm-10,0l-10,0l0,-10l10,0l0,10Zm-10,-10l-10,0l0,-10l10,0l0,10Zm-10,-10l-10,0l0,-10l10,0l0,10Zm-10,-10l-10,0l0,-10l10,0l0,10Zm-10,0l0,10l-10,0l0,-10l10,0Zm-10,10l0,10l-10,0l0,-10l10,0Zm-10,10l0,10l-10,0l0,-10l10,0Z" style="fill:#c73300;"/></g></svg>