<?xml version="1.0" encoding="UTF-8" standalone="no"?>
<!DOCTYPE svg PUBLIC "-//W3C//DTD SVG 1.1//EN" "http://www.w3.org/Graphics/SVG/1.1/DTD/svg11.dtd">
<svg width="100%" height="100%" viewBox="0 0 300 345" version="1.1" xmlns="http://www.w3.org/2000/svg" xmlns:xlink="http://www.w3.org/1999/xlink" xml:space="preserve" xmlns:serif="http://www.serif.com/" style="fill-rule:evenodd;clip-rule:evenodd;stroke-linejoin:round;stroke-miterlimit:2;">
    <g id="gator">
        <g>
            <g transform="matrix(1,0,0,1,0,2.73072)">
                <path d="M52.867,123.755C53.234,124.429 53.615,125.095 54.059,125.724C56.577,129.289 60.743,133.476 65.338,135.383C68.645,136.755 72.166,136.981 75.527,135.201C79.445,133.126 82.388,129.349 85.282,126.089C86.309,124.931 87.334,123.757 88.305,122.55C90.196,124.042 91.66,126.141 93.294,127.85C97.385,132.131 104.318,136.97 110.677,135.921C112.533,135.615 114.312,134.627 115.948,133.3C118.151,131.514 120.102,129.111 121.676,127.301C122.447,126.413 123.19,125.543 123.855,124.579C124.213,125.288 124.578,125.992 125.048,126.565C127.859,129.994 131.867,133.539 135.895,135.486C139.969,137.455 143.913,136.147 147.49,133.749C151.334,131.173 154.57,127.781 157.125,123.937L157.126,123.937C157.451,124.605 157.78,125.271 158.138,125.922C158.894,127.301 159.822,128.594 160.709,129.891C162.564,132.606 164.852,135.903 167.587,137.991C170.672,140.345 174.287,141.287 178.493,138.816C179.922,137.976 181.219,136.957 182.393,135.79C184.855,133.341 187.062,130.227 188.619,127.121C189.044,126.273 189.432,125.404 189.804,124.53C190.767,125.928 191.553,127.472 192.459,128.905C196.147,134.741 201.581,140.471 209.17,137.665C210.531,137.161 211.8,136.394 212.923,135.479C214.798,133.951 216.306,131.978 217.705,130.025C219.07,128.119 220.269,126.092 221.389,124.027C224.558,128.111 227.971,131.84 232.501,134.529C234.556,135.749 237.154,137.091 239.628,136.892C242.211,136.685 244.515,135.237 246.455,133.618C248.877,131.598 251.126,129.368 252.676,126.593C253.3,125.475 253.784,124.29 254.305,123.122C254.378,123.169 254.449,123.219 254.52,123.269C255.053,123.651 255.53,124.14 255.953,124.539C258.172,126.632 260.122,128.95 262.568,130.79C263.852,131.755 265.163,132.724 266.678,133.297C271.216,135.011 274.784,133.224 277.613,130.096C280.11,127.335 281.995,123.481 283.484,120.58C283.725,120.11 283.702,119.548 283.422,119.1C283.142,118.653 282.647,118.385 282.119,118.395L221.042,119.627C220.922,119.629 220.805,119.646 220.694,119.675L158.418,119.241C158.162,119.044 157.844,118.931 157.511,118.929L19.145,118.138C18.615,118.135 18.123,118.412 17.851,118.866C17.578,119.321 17.565,119.885 17.817,120.351C18.829,122.225 20.105,123.905 21.327,125.642C23.383,128.567 25.773,131.963 28.664,134.424C31.812,137.101 35.535,138.697 40.014,137.76C45.426,136.627 48.631,131.394 51.184,126.968C51.785,125.927 52.369,124.857 52.867,123.755Z" style="fill:#fff;"/>
            </g>
            <path d="M26.485,289.29C25.695,290.982 274.056,290.722 274.056,290.722C274.598,290.739 275.056,290.32 275.086,289.779C275.212,287.548 274.309,284.954 273.612,282.9C271.872,277.775 269.565,272.997 265.882,268.972C264.856,267.851 263.521,266.278 261.999,265.267C260.825,264.487 259.54,264.035 258.199,264.198C257.062,264.337 256.023,264.917 255.126,265.737C253.926,266.833 252.979,268.358 252.361,269.583C250.576,273.124 249.605,276.8 249.108,280.594C248.901,279.927 248.678,279.264 248.436,278.61C246.991,274.698 245.165,270.914 242.235,267.877C240.623,266.206 238.458,264.769 236.027,264.923C232.938,265.119 230.356,266.732 228.28,268.968C226.302,271.098 224.786,273.791 223.715,276.246C223.031,277.811 222.389,279.37 222.122,281.061C221.931,280.539 221.745,280.015 221.57,279.486C220.683,276.797 219.637,273.717 218.049,271.095C216.367,268.318 214.082,266.055 210.812,265.16C208.139,264.429 205.685,265.072 203.536,266.46C200.526,268.404 198.132,271.852 196.637,274.709C196.136,275.666 195.68,276.647 195.243,277.633C194.638,278.999 194.117,280.396 193.612,281.801C193.426,282.318 193.243,282.837 193.065,283.358C192.825,282.508 192.555,281.667 192.274,280.831C191.214,277.669 189.829,274.192 187.6,271.662C184.78,268.461 180.929,266.711 176.792,268.012C171.065,269.812 166.163,274.751 162.848,279.576C161.716,281.223 160.974,282.992 160.233,284.832C159.392,282.764 158.25,280.873 156.983,278.889C155.344,276.323 153.899,273.453 151.723,271.286C150.829,270.395 149.881,269.523 148.735,268.97C144.833,267.089 141.19,268.156 138.064,270.469C135.14,272.632 132.683,275.903 130.939,278.609C130.198,279.759 129.548,280.964 128.853,282.141C128.372,282.955 127.886,283.766 127.401,284.578C126.342,280.686 124.969,276.707 122.66,273.435C121.297,271.503 119.575,269.459 116.913,269.647C114.556,269.815 112.352,271.605 110.613,273.012C109.144,274.2 107.844,275.563 106.63,277.006C105.686,278.128 104.775,279.284 104.095,280.589C103.784,281.187 103.525,281.808 103.276,282.433C102.903,281.072 102.526,279.741 101.933,278.445C100.936,276.266 99.891,273.573 98.388,271.719C96.886,269.866 94.291,268.427 92.009,267.741C89.543,267 87.238,267.581 85.227,268.881C82.419,270.698 80.204,273.961 79.003,276.65C78.525,277.722 78.163,278.84 77.856,279.972C77.803,280.165 77.752,280.36 77.703,280.555C77.529,279.902 77.337,279.255 77.128,278.615C76.166,275.663 74.599,273.035 72.771,270.539C71.634,268.984 70.218,267.419 68.25,266.982C65.786,266.434 63.394,267.201 61.224,268.353C56.912,270.643 53.418,274.902 52.059,279.633C51.941,280.043 51.853,280.452 51.787,280.859C51.521,280.143 51.248,279.428 50.972,278.716C49.57,275.103 48.003,271.528 46.163,268.115C45.18,266.294 43.774,264.316 41.668,263.715C40.221,263.301 38.771,263.704 37.43,264.547C35.72,265.62 34.186,267.422 33.104,268.596C32.557,269.19 32.044,269.811 31.536,270.437C30.897,271.224 30.258,272.012 29.677,272.844C28.953,273.883 28.293,274.971 27.671,276.073C26.867,277.497 26.261,286.387 25.622,287.903C25.495,288.202 25.522,288.544 25.694,288.82C25.866,289.095 26.16,289.271 26.485,289.29Z" style="fill:#fff;"/>
            <path id="base_body_1" d="M35.344,45.015C36.264,39.957 37.452,35.438 39.932,30.635C41.95,26.726 46.126,21.584 50.151,18.85C55.114,15.48 60.834,12.629 66.691,11.281C82.979,7.529 102.949,14.049 118.837,17.608C127.124,19.465 135.19,21.91 143.778,21.669C153.219,21.404 163.836,20.138 173.257,17.689C186.315,14.295 198.175,9.413 211.247,8.795C223.795,8.202 235.835,11.748 245.458,20.459C249.781,24.372 252.219,27.337 254.645,32.675C256.319,36.359 257.582,40.694 258.534,45L263.62,45C283.699,45 300,61.301 300,81.38L300,262.01C300,282.089 283.699,298.39 263.62,298.39L36.38,298.39C16.301,298.39 0,282.089 0,262.01L0,81.38C0,61.649 15.742,45.565 35.344,45.015ZM282.057,122.385L18.049,122.385L18.049,239.988L18.053,239.988L18.053,249.839C18.053,269.918 34.354,286.219 54.433,286.219L245.567,286.219C265.646,286.219 281.947,269.918 281.947,249.839L281.947,239.988L282.057,239.988L282.057,122.385Z" style="fill:#2ca84e;"/>
            <path d="M92.797,101.276C102.949,98.161 123.848,95.811 139.084,95.522C168.441,94.966 193.967,100.212 202.675,102.574L135.191,99.891L92.797,101.276Z" style="fill:#0c8831;fill-opacity:0.5;"/>
            <path d="M112.321,65.724C112.327,64.757 112.435,63.809 112.591,62.856C113.017,60.24 113.53,56.268 115.601,54.321C116.958,53.045 118.965,52.725 120.747,52.587C124.104,52.327 127.775,52.052 131.056,52.955C134.089,53.79 135.949,56.119 138.614,57.512C141.601,59.075 145.625,59.405 148.959,59.437C153.933,59.485 156.324,55.048 160.377,52.98C162.137,52.081 164.343,51.897 166.284,51.865C169.723,51.807 174.671,51.984 176.583,55.418C177.619,57.277 177.785,59.315 178.287,61.325L176.229,58.39L168.443,56.677L161.201,56.911L158.787,59.091L156.685,61.972L154.271,63.295L146.329,63.373L139.555,63.685L135.272,62.517L131.301,58.39L127.641,57.456L118.686,57.533L115.572,59.714L113.392,65.787L112.321,65.724Z" style="fill:#127042;fill-opacity:0.5;"/>
            <g transform="matrix(1,0,0,1,0.286817,0.286817)">
                <path d="M162.404,67.769C160.947,66.847 161.948,65.213 163.036,64.522C164.539,63.568 166.464,63.275 168.185,62.967C169.041,62.814 170.084,62.639 170.871,63.121C172.332,64.017 171.605,65.547 170.407,66.294C168.822,67.282 166.919,67.448 165.135,67.807C164.451,67.944 163.051,68.141 162.404,67.769ZM128.645,67.769C130.101,66.847 129.1,65.213 128.012,64.522C126.51,63.568 124.584,63.275 122.863,62.967C122.008,62.814 120.964,62.639 120.178,63.121C118.716,64.017 119.443,65.547 120.641,66.294C122.226,67.282 124.129,67.448 125.913,67.807C126.597,67.944 127.997,68.141 128.645,67.769Z" style="fill:#1f6945;"/>
            </g>
            <path d="M35.344,45.015C36.264,39.957 37.452,35.438 39.932,30.635C41.95,26.726 46.126,21.584 50.151,18.85C55.114,15.48 60.834,12.629 66.691,11.281C82.979,7.529 102.949,14.049 118.837,17.608C127.124,19.465 135.19,21.91 143.778,21.669C153.219,21.404 163.836,20.138 173.257,17.689C186.315,14.295 198.175,9.413 211.247,8.795C223.795,8.202 235.835,11.748 245.458,20.459C249.781,24.372 252.219,27.337 254.645,32.675C256.319,36.359 257.582,40.694 258.534,45L263.62,45C283.699,45 300,61.301 300,81.38L300,262.01C300,282.089 283.699,298.39 263.62,298.39L36.38,298.39C16.301,298.39 0,282.089 0,262.01L0,81.38C0,61.649 15.742,45.565 35.344,45.015ZM133.542,101.764C130.758,101.78 127.977,101.81 125.196,101.853C117.844,101.968 110.488,102.311 103.142,102.63C99.344,102.794 95.575,103.215 91.768,103.155C90.94,103.142 90.279,102.459 90.292,101.631C90.305,100.804 90.988,100.142 91.815,100.155C95.564,100.214 99.273,99.795 103.012,99.632C110.386,99.313 117.77,98.969 125.15,98.854C128.409,98.803 131.669,98.771 134.927,98.756L134.927,98.756C135.093,98.713 135.27,98.697 135.451,98.715C135.528,98.722 135.604,98.735 135.676,98.754L138.497,98.748L135.485,98.754L134.927,98.756L143.431,99.044L143.426,98.76L141.52,98.752C140.512,98.749 139.505,98.748 138.497,98.748L138.514,98.748C138.576,92.242 138.48,85.737 138.14,79.238C137.883,74.318 137.352,69.479 137.402,64.541C137.117,64.495 136.851,64.444 136.604,64.39C135.726,64.197 135.055,63.933 134.634,63.654C133.461,62.875 132.578,61.819 131.654,60.806C130.965,60.051 130.255,59.313 129.214,58.909C128.278,58.546 127.199,58.607 126.21,58.62C124.813,58.639 123.029,58.548 121.319,58.714C119.912,58.851 118.541,59.127 117.634,59.975C116.004,61.499 115.09,64.738 114.455,66.764C114.208,67.554 113.365,67.994 112.575,67.746C111.785,67.499 111.345,66.656 111.593,65.866C112.356,63.43 113.625,59.616 115.585,57.784C116.693,56.747 118.213,56.162 119.883,55.878C122.007,55.518 124.384,55.645 126.169,55.62C127.532,55.602 129.009,55.611 130.3,56.112C131.801,56.695 132.876,57.695 133.87,58.784C134.63,59.617 135.329,60.514 136.293,61.154C136.593,61.353 137.155,61.46 137.868,61.579C138.617,61.704 139.503,61.797 140.471,61.865C140.296,58.203 140.376,54.537 140.123,50.872C139.794,46.092 139.13,41.32 139.075,36.523C139.03,32.53 139.549,28.574 139.619,24.589C132.334,24.133 125.335,22.138 118.181,20.536C102.692,17.066 83.244,10.547 67.364,14.204C61.863,15.471 56.498,18.166 51.837,21.332C48.193,23.807 44.425,28.473 42.597,32.011C40.263,36.532 39.161,40.791 38.296,45.551C38.042,46.947 36.846,47.974 35.428,48.013C17.443,48.519 3,63.276 3,81.38L3,262.01C3,280.433 17.957,295.39 36.38,295.39L136.418,295.39C136.382,293.335 136.548,291.273 136.601,289.219L54.433,289.219C32.699,289.219 15.053,271.574 15.053,249.839L15.053,123.038C10.985,121.443 7.965,117.754 7.324,113.3L10.366,113.3C11.195,117.618 14.996,120.885 19.554,120.885L134.013,120.885C133.195,116.102 133.039,109.459 133.239,105.114C133.302,103.754 133.412,102.603 133.542,101.764ZM141.92,120.885L278.235,120.885C282.793,120.885 286.595,117.618 287.424,113.3L290.465,113.3C289.947,116.902 287.873,120.004 284.947,121.902L284.947,249.839C284.947,271.574 267.301,289.219 245.567,289.219L143.101,289.219C143.089,290.043 143.078,290.867 143.081,291.69C143.083,292.242 142.636,292.692 142.085,292.694C141.533,292.696 141.083,292.249 141.081,291.697C141.078,290.871 141.089,290.045 141.101,289.219L139.6,289.219C139.543,291.273 139.369,293.336 139.416,295.39L141.289,295.39C141.41,295.006 141.758,294.717 142.184,294.691C142.652,294.663 143.064,294.962 143.198,295.39L263.62,295.39C282.043,295.39 297,280.433 297,262.01C297,262.01 297,81.38 297,81.38C297,62.957 282.043,48 263.62,48L258.534,48C257.126,48 255.908,47.021 255.604,45.647C254.699,41.55 253.507,37.421 251.914,33.917C249.681,29.003 247.424,26.285 243.445,22.683C234.431,14.523 223.142,11.236 211.389,11.792C198.523,12.4 186.863,17.252 174.012,20.592C165.441,22.82 155.903,24.095 147.105,24.54C147.052,25.595 146.997,26.653 146.947,27.712C146.92,28.263 146.451,28.689 145.9,28.663C145.349,28.636 144.923,28.167 144.949,27.616C144.997,26.619 145.048,25.622 145.098,24.628C144.683,24.643 144.272,24.657 143.862,24.668C143.446,24.68 143.031,24.685 142.618,24.685C142.544,28.626 142.03,32.539 142.075,36.489C142.129,41.228 142.791,45.943 143.116,50.666C143.376,54.443 143.286,58.222 143.481,61.996C147.044,62.073 150.911,61.922 153.165,61.703C153.771,61.644 154.454,61.528 154.602,61.502C155.698,60.887 156.362,59.797 157.114,58.807C158.218,57.353 159.44,56.05 161.368,55.541C162.249,55.309 163.168,55.196 164.076,55.147C167.433,54.965 170.426,55.399 173.652,56.096C175.129,56.415 176.825,56.774 177.921,57.93C179.123,59.197 180.584,62.994 180.778,64.711C180.871,65.534 180.278,66.277 179.455,66.37C178.633,66.463 177.889,65.87 177.797,65.048C177.653,63.775 176.636,60.934 175.745,59.995C175.473,59.708 175.109,59.556 174.734,59.434C174.17,59.249 173.569,59.147 173.019,59.028C170.06,58.389 167.317,57.975 164.238,58.142C163.533,58.18 162.818,58.262 162.134,58.442C160.906,58.766 160.206,59.695 159.503,60.621C158.468,61.984 157.457,63.389 155.917,64.202C155.707,64.313 155.187,64.474 154.407,64.58C152.526,64.835 148.521,65.044 144.625,65.013C144.68,65.892 144.736,66.772 144.794,67.651C144.83,68.202 144.412,68.678 143.862,68.715C143.311,68.751 142.834,68.333 142.798,67.782C142.737,66.846 142.677,65.91 142.619,64.974C141.853,64.949 141.107,64.914 140.399,64.865C140.374,69.638 140.887,74.321 141.136,79.082C141.479,85.634 141.576,92.192 141.514,98.752L143.426,98.76C143.41,97.716 143.445,96.67 143.501,95.622C143.531,95.071 144.003,94.648 144.554,94.678C145.105,94.708 145.528,95.179 145.498,95.73C145.443,96.746 145.409,97.761 145.426,98.773L146.654,98.783L148.565,98.802L150.133,98.822L150.992,98.832L151.663,98.842L150.133,98.822L147.298,98.79L145.426,98.773C145.428,98.886 145.431,98.999 145.434,99.112L202.97,101.061L199.438,100.814L196.567,100.624L194.115,100.468L193.449,100.428L190.42,100.247L189.828,100.213L187.169,100.064L183.901,99.894L182.333,99.816L181.052,99.754L178.364,99.63C178.364,99.63 177.418,99.589 177.418,99.589L174.465,99.466L172.935,99.406L170.252,99.307L171.869,99.364L173.712,99.435L175.484,99.506L178.039,99.615L180.461,99.725L181.579,99.778L183.315,99.863L184.714,99.934L187.169,100.064L189.587,100.198L192.004,100.339L194.152,100.47L196.837,100.641L199.824,100.84L202.97,101.061C203.796,101.12 204.418,101.839 204.359,102.664C204.299,103.49 203.581,104.112 202.755,104.053C182.441,102.592 162.026,101.819 141.636,101.753C141.566,102.822 141.484,103.901 141.408,104.986C141.369,105.537 140.891,105.952 140.34,105.914C139.79,105.875 139.374,105.396 139.413,104.846C139.486,103.807 139.564,102.773 139.632,101.748C138.644,101.747 137.654,101.748 136.664,101.751C136.612,102.282 136.508,102.739 136.369,103.121C136.316,103.713 136.274,104.436 136.236,105.252C136.036,109.578 136.188,116.295 137.06,120.885L139.892,120.885C139.689,119.72 139.526,118.442 139.399,117.111C139.347,116.562 139.75,116.073 140.3,116.021C140.849,115.968 141.338,116.372 141.39,116.921C141.521,118.297 141.692,119.615 141.909,120.8C141.914,120.828 141.918,120.856 141.92,120.885ZM281.947,123.316C280.775,123.686 279.528,123.885 278.235,123.885C278.235,123.885 19.554,123.885 19.554,123.885C19.046,123.885 18.545,123.854 18.053,123.794L18.053,249.839C18.053,269.918 34.354,286.219 54.433,286.219L245.567,286.219C265.646,286.219 281.947,269.918 281.947,249.839L281.947,123.316ZM139.302,113.3L141.142,113.3C141.201,113.163 141.23,113.01 141.221,112.851C141.147,111.557 141.148,110.25 141.19,108.942C141.207,108.39 140.774,107.928 140.222,107.91C139.67,107.893 139.208,108.326 139.191,108.878C139.147,110.246 139.147,111.612 139.224,112.965C139.231,113.084 139.258,113.196 139.302,113.3ZM24.988,106.001C30.418,105.378 35.809,104.472 41.246,103.886C42.069,103.797 42.665,103.057 42.576,102.233C42.488,101.41 41.747,100.814 40.924,100.903C35.48,101.49 30.083,102.397 24.647,103.02C23.824,103.114 23.233,103.859 23.327,104.681C23.421,105.504 24.166,106.095 24.988,106.001ZM244.252,105.718C248.702,105.741 253.157,105.551 257.606,105.635C260.335,105.687 263.057,105.921 265.787,105.979C266.614,105.997 267.301,105.34 267.319,104.512C267.336,103.684 266.679,102.998 265.851,102.98C263.119,102.921 260.394,102.687 257.662,102.636C253.2,102.551 248.732,102.741 244.267,102.718C243.439,102.714 242.764,103.382 242.76,104.21C242.755,105.038 243.424,105.714 244.252,105.718ZM168.984,99.263L170.165,99.304L168.416,99.243L164.925,99.133L162.18,99.057L160.126,99.005L159.308,98.986L162.348,99.061C162.348,99.061 164.925,99.133 164.925,99.133L168.984,99.263ZM158.532,98.969L157.389,98.943L155.385,98.904L153.408,98.869L152.531,98.855L154.207,98.884L156.551,98.928L158.532,98.969ZM143.85,87.705C143.852,87.864 143.855,88.024 143.858,88.183C143.875,89.329 143.828,90.477 143.76,91.625C143.727,92.176 144.148,92.65 144.699,92.683C145.25,92.716 145.724,92.295 145.757,91.744C145.828,90.545 145.876,89.348 145.857,88.152C145.855,87.991 145.852,87.83 145.849,87.669C145.839,87.117 145.383,86.677 144.831,86.687C144.279,86.697 143.839,87.153 143.85,87.705ZM143.553,79.746C143.623,81.072 143.685,82.399 143.736,83.727C143.757,84.278 144.222,84.709 144.773,84.688C145.325,84.667 145.755,84.202 145.734,83.65C145.683,82.314 145.621,80.977 145.55,79.64C145.521,79.089 145.05,78.665 144.499,78.694C143.948,78.723 143.524,79.194 143.553,79.746ZM143.064,71.774C143.152,73.103 143.239,74.432 143.322,75.762C143.356,76.313 143.831,76.732 144.382,76.698C144.933,76.663 145.353,76.188 145.318,75.637C145.235,74.305 145.148,72.973 145.059,71.642C145.023,71.091 144.546,70.673 143.995,70.71C143.444,70.747 143.027,71.224 143.064,71.774ZM145.972,55.63C146.001,56.97 146.035,58.311 146.094,59.65C146.118,60.201 146.585,60.629 147.136,60.605C147.688,60.581 148.116,60.114 148.092,59.562C148.034,58.238 148,56.912 147.971,55.586C147.959,55.034 147.501,54.596 146.949,54.608C146.398,54.62 145.96,55.078 145.972,55.63ZM145.692,47.693C145.719,48.041 145.743,48.39 145.762,48.739C145.814,49.705 145.85,50.671 145.879,51.639C145.895,52.19 146.356,52.625 146.908,52.609C147.459,52.592 147.894,52.131 147.878,51.58C147.849,50.596 147.812,49.614 147.759,48.632C147.739,48.266 147.714,47.9 147.685,47.535C147.642,46.985 147.16,46.573 146.609,46.617C146.059,46.661 145.648,47.143 145.692,47.693ZM144.865,39.726C144.958,41.072 145.113,42.413 145.272,43.754C145.337,44.302 145.835,44.695 146.383,44.63C146.931,44.565 147.324,44.067 147.259,43.519C147.103,42.21 146.951,40.901 146.86,39.588C146.822,39.038 146.344,38.622 145.793,38.66C145.243,38.698 144.827,39.176 144.865,39.726ZM144.788,31.631C144.748,32.977 144.726,34.322 144.734,35.666C144.737,36.218 145.188,36.663 145.739,36.66C146.291,36.657 146.737,36.206 146.734,35.654C146.726,34.334 146.748,33.012 146.787,31.69C146.803,31.139 146.369,30.677 145.817,30.661C145.265,30.645 144.804,31.079 144.788,31.631Z" style="fill:#126f42;"/>
            <g>
                <g transform="matrix(1.10453,0,0,1.10453,-8.83868,-3.11351)">
                    <circle cx="83.031" cy="45.158" r="22.89" style="fill:#1f8c48;"/>
                </g>
                <g transform="matrix(1,0,0,1,-2.55236,3.55271e-15)">
                    <circle cx="83.031" cy="45.158" r="22.89" style="fill:#fff;"/>
                </g>
                <g transform="matrix(1,0,0,1,-2.55236,3.55271e-15)">
                    <path d="M83.031,21.269C69.846,21.269 59.141,31.973 59.141,45.158C59.141,58.344 69.846,69.048 83.031,69.048C96.216,69.048 106.921,58.344 106.921,45.158C106.921,31.973 96.216,21.269 83.031,21.269ZM83.031,23.269C95.113,23.269 104.921,33.077 104.921,45.158C104.921,57.24 95.113,67.048 83.031,67.048C70.95,67.048 61.141,57.24 61.141,45.158C61.141,33.077 70.95,23.269 83.031,23.269Z" style="fill:#0d8830;"/>
                </g>
                <g transform="matrix(0.457336,0,0,0.457336,33.3173,20.5923)">
                    <circle cx="83.031" cy="45.158" r="22.89"/>
                </g>
            </g>
            <g transform="matrix(1,0,0,1,131.897,0)">
                <g transform="matrix(1.10978,0,0,1.10978,-12.8883,-1.33722)">
                    <circle cx="83.031" cy="45.158" r="22.89" style="fill:#1f8c48;"/>
                </g>
                <g transform="matrix(1,0,0,1,-2.55236,0)">
                    <circle cx="83.031" cy="45.158" r="22.89" style="fill:#fff;"/>
                </g>
                <g transform="matrix(1,0,0,1,-2.55236,0)">
                    <path d="M83.031,21.269C69.846,21.269 59.141,31.973 59.141,45.158C59.141,58.344 69.846,69.048 83.031,69.048C96.216,69.048 106.921,58.344 106.921,45.158C106.921,31.973 96.216,21.269 83.031,21.269ZM83.031,23.269C95.113,23.269 104.921,33.077 104.921,45.158C104.921,57.24 95.113,67.048 83.031,67.048C70.95,67.048 61.141,57.24 61.141,45.158C61.141,33.077 70.95,23.269 83.031,23.269Z" style="fill:#0d8830;"/>
                </g>
                <g transform="matrix(0.457336,0,0,0.457336,45.3708,34.556)">
                    <circle cx="83.031" cy="45.158" r="22.89"/>
                </g>
            </g>
        </g>
    </g>
</svg>
