<?xml version="1.0" encoding="UTF-8" standalone="no"?><!DOCTYPE svg PUBLIC "-//W3C//DTD SVG 1.1//EN" "http://www.w3.org/Graphics/SVG/1.1/DTD/svg11.dtd"><svg width="100%" height="100%" viewBox="0 0 1250 1438" version="1.1" xmlns="http://www.w3.org/2000/svg" xmlns:xlink="http://www.w3.org/1999/xlink" xml:space="preserve" xmlns:serif="http://www.serif.com/" style="fill-rule:evenodd;clip-rule:evenodd;stroke-linecap:square;stroke-linejoin:round;stroke-miterlimit:1.5;"><g id="saint_patricks_v1"><g id="hat"><path d="M657.753,186.708l-287.81,0l0,-42.803c0,-79.423 64.482,-143.905 143.905,-143.905c79.423,0 143.905,64.482 143.905,143.905l-0,42.803Z" style="fill:#4fbb3b;"/><path d="M412.84,52.452c3.137,3.507 5.103,7.656 6.942,11.954c3.293,7.695 5.434,15.906 6.669,24.176c1.113,7.45 1.206,14.928 2.962,22.303" style="fill:none;stroke:#018f35;stroke-width:3.58px;"/><path d="M369.832,82.159c3.736,-1.061 7.755,-1.359 11.619,-1.485c4.006,-0.131 8.05,-0.177 12.012,0.529c3.512,0.625 6.731,2.001 9.98,3.417c4.302,1.876 8.534,4.009 12.03,7.196c4.775,4.353 8.537,10.233 10.931,16.193" style="fill:none;stroke:#018f35;stroke-width:3.58px;"/><path d="M648.609,93.354c5.911,15.73 9.144,32.766 9.144,50.551l-0,42.803l-287.81,0l0,-42.803c0,-17.785 3.234,-34.821 9.144,-50.551l269.522,0Z" style="fill:#148d01;"/><path d="M559.55,151.134c32.627,-1.14 65.361,-3.499 98.203,-7.097l-0,42.671l-287.81,0l0,-42.671c25.653,2.821 51.372,4.892 77.157,6.204l0.146,-50.307l-70.45,-0c0.712,-2.217 1.476,-4.411 2.291,-6.58l269.522,0c0.815,2.169 1.579,4.363 2.291,6.58l-91.35,-0l-0,51.2Zm-15.077,-16.714l0,-25.186c-0.038,-4.387 -0.665,-7.303 -1.659,-9.3l-82.879,-0l-0,50.897c27.556,1.131 55.188,1.396 82.898,0.781c1.051,-2.327 1.546,-4.987 1.64,-7.887l-35.68,0l-0,-9.305l35.68,-0Z" style="fill:#118000;"/><circle cx="508.793" cy="128.624" r="15.015" style="fill:#0f7300;"/><path d="M572.053,106.143l-0,44.961c-0,17.839 -14.484,32.323 -32.323,32.323l-51.763,0c-17.84,0 -32.324,-14.484 -32.324,-32.323l0,-44.961c0,-17.839 14.484,-32.323 32.324,-32.323l51.763,-0c17.839,-0 32.323,14.484 32.323,32.323Zm-19.687,0c0,-6.974 -5.662,-12.636 -12.636,-12.636l-51.763,-0c-6.975,-0 -12.637,5.662 -12.637,12.636l-0,44.961c-0,6.974 5.662,12.637 12.637,12.637l51.763,-0c6.974,-0 12.636,-5.663 12.636,-12.637l0,-44.961Z" style="fill:#fbcf18;"/><path d="M572.053,106.143l-0,44.961c-0,17.839 -14.484,32.323 -32.323,32.323l-51.763,0c-17.84,0 -32.324,-14.484 -32.324,-32.323l0,-44.961c0,-17.839 14.484,-32.323 32.324,-32.323l51.763,-0c17.839,-0 32.323,14.484 32.323,32.323Zm-9.533,3.682c0,-14.918 -12.111,-27.029 -27.029,-27.029l-43.285,-0c-14.918,-0 -27.03,12.111 -27.03,27.029l0,37.597c0,14.918 12.112,27.029 27.03,27.029l43.285,0c14.918,0 27.029,-12.111 27.029,-27.029l0,-37.597Z" style="fill:#ffda40;"/><path d="M559.55,125.186c-0,-5.045 -4.096,-9.141 -9.141,-9.141l-39.611,-0c-5.045,-0 -9.141,4.096 -9.141,9.141l-0,6.875c-0,5.045 4.096,9.141 9.141,9.141l39.611,0c5.045,0 9.141,-4.096 9.141,-9.141l-0,-6.875Z" style="fill:#fbcf18;"/><path d="M556.935,122.976c-0,-2.648 -2.15,-4.797 -4.797,-4.797l-41.029,0c-2.648,0 -4.797,2.149 -4.797,4.797l0,3.608c0,2.647 2.149,4.796 4.797,4.796l41.029,0c2.647,0 4.797,-2.149 4.797,-4.796l-0,-3.608Z" style="fill:#ffda40;"/><path d="M400.262,55.581c0.174,2.284 -0.122,4.724 -0.919,7.203c5.812,0.696 10.388,3.612 12.668,7.869c3.023,5.644 2.365,14.362 -3.727,19.807c3.263,7.493 0.222,15.69 -4.881,19.557c-3.851,2.918 -9.242,3.749 -14.783,1.98c-0.713,5.762 -3.636,10.278 -7.885,12.554c-2.75,1.472 -6.229,2.071 -9.705,1.594c3.255,-26.392 13.667,-50.582 29.232,-70.564Zm-18.097,47.332c0.119,-0.393 0.248,-0.802 0.386,-1.211c-0.684,-0.649 -1.254,-1.219 -1.254,-1.219c0,0 0.483,1.213 0.868,2.43Z" style="fill:#017129;fill-opacity:0.25;"/><g id="_4-clover" serif:id="4 clover"><path d="M359.845,67.023c-1.176,-1.834 -2.455,-3.43 -3.823,-4.619c-5.912,-5.45 -12.692,-6.933 -16.949,-3.706c-4.258,3.226 -5.993,11.161 0.214,16.676c-7.942,2.42 -9.677,10.356 -7.155,15.064c2.522,4.709 9.302,6.192 16.949,3.706c0.91,-0.266 1.845,-0.644 2.792,-1.112c0.863,-0.427 1.737,-0.929 2.612,-1.49c-1.835,1.177 -3.432,2.456 -4.62,3.825c-5.45,5.911 -6.933,12.691 -3.707,16.948c3.227,4.258 11.162,5.993 16.676,-0.214c2.421,7.942 10.356,9.677 15.065,7.155c4.709,-2.522 6.191,-9.302 3.706,-16.949c-0.509,-1.74 -1.426,-3.569 -2.602,-5.404c1.176,1.835 2.455,3.432 3.824,4.621c5.912,5.45 12.691,6.932 16.949,3.706c4.257,-3.227 5.992,-11.162 -0.214,-16.676c7.941,-2.421 9.677,-10.356 7.154,-15.065c-2.522,-4.709 -9.301,-6.191 -16.948,-3.706c-0.911,0.266 -1.845,0.644 -2.792,1.113c-0.863,0.426 -1.737,0.928 -2.612,1.489c1.835,-1.176 3.431,-2.455 4.62,-3.824c5.45,-5.912 6.932,-12.691 3.706,-16.949c-3.226,-4.257 -11.161,-5.992 -16.676,0.214c-2.42,-7.941 -10.355,-9.676 -15.064,-7.154c-4.709,2.522 -6.192,9.301 -3.706,16.949c0.509,1.739 1.425,3.568 2.601,5.402Z" style="fill:#68af23;"/><path d="M375.655,77.969c-0,0 7.719,-5.985 10.217,-8.955c4.557,-5.109 5.831,-10.936 3.186,-14.567c-2.646,-3.631 -9.212,-5.067 -13.824,0.295c-1.953,-6.797 -8.519,-8.233 -12.438,-6.037c-3.92,2.195 -5.194,8.022 -3.186,14.566c1.042,3.78 5.82,12.462 5.82,12.462c-0,0 -5.782,-8.051 -8.773,-10.568c-5.109,-4.557 -10.936,-5.831 -14.567,-3.185c-3.631,2.646 -5.067,9.211 0.295,13.823c-6.797,1.953 -8.233,8.519 -6.038,12.439c2.196,3.92 8.023,5.194 14.567,3.185c3.701,-1.02 12.28,-5.469 12.28,-5.469c-0,0 -7.757,5.763 -10.217,8.687c-4.557,5.109 -5.831,10.936 -3.185,14.567c2.646,3.631 9.211,5.067 13.824,-0.295c1.953,6.797 8.518,8.233 12.438,6.037c3.92,-2.195 5.194,-8.022 3.185,-14.566c-1.021,-3.708 -5.82,-12.194 -5.82,-12.194c-0,0 5.823,7.817 8.774,10.3c5.109,4.557 10.936,5.831 14.567,3.185c3.631,-2.646 5.067,-9.211 -0.295,-13.823c6.797,-1.954 8.233,-8.519 6.037,-12.439c-2.195,-3.92 -8.022,-5.194 -14.566,-3.185c-3.724,1.026 -12.281,5.737 -12.281,5.737Z" style="fill:#6fbe22;"/><path d="M369.363,81.869l-26.978,-6.066c-6.797,1.953 -8.233,8.519 -6.038,12.439c2.196,3.92 8.023,5.194 14.567,3.185c2.919,-0.804 8.869,-3.74 11.256,-4.946l1.024,-0.523c2.088,-1.314 4.149,-2.67 6.169,-4.089Zm-5.747,27.048c1.953,6.797 8.518,8.233 12.438,6.037c3.92,-2.195 5.194,-8.022 3.185,-14.566c-1.021,-3.708 -5.82,-12.194 -5.82,-12.194l-4.056,-6.325l-5.747,27.048Zm5.747,-27.048l5.871,-27.127c-1.953,-6.797 -8.519,-8.233 -12.438,-6.037c-3.92,2.195 -5.194,8.022 -3.186,14.566c1.042,3.78 5.82,12.462 5.82,12.462l3.933,6.136Zm0,-0l27.102,5.987c6.797,-1.954 8.233,-8.519 6.037,-12.439c-2.195,-3.92 -8.022,-5.194 -14.566,-3.185c-3.724,1.026 -12.281,5.737 -12.281,5.737l-6.292,3.9Z" style="fill:#79c82c;"/><path d="M383.997,103.015c5.598,4.71 11.967,5.565 16.001,2.508c4.293,-3.253 6.134,-11.137 0.272,-16.814c7.696,-2.713 9.314,-10.645 6.771,-15.393c-2.59,-4.835 -9.532,-6.434 -17.377,-3.886c-0.504,0.147 -1.015,0.328 -1.531,0.539c0.406,-0.38 0.782,-0.768 1.125,-1.163c5.593,-6.069 7.038,-13.045 3.725,-17.416c-3.253,-4.293 -11.136,-6.134 -16.814,-0.272c-2.713,-7.696 -10.645,-9.314 -15.393,-6.771c-4.834,2.59 -6.434,9.532 -3.884,17.382c0.147,0.502 0.327,1.011 0.537,1.526c-0.38,-0.406 -0.767,-0.782 -1.162,-1.125c-6.07,-5.593 -13.046,-7.038 -17.416,-3.725c-4.293,3.253 -6.134,11.136 -0.272,16.814c-7.697,2.713 -9.314,10.645 -6.771,15.393c2.589,4.834 9.531,6.434 17.382,3.884c0.502,-0.147 1.011,-0.327 1.526,-0.537c-0.407,0.381 -0.785,0.77 -1.129,1.166c-5.59,6.066 -7.034,13.042 -3.722,17.413c3.253,4.292 11.137,6.133 16.814,0.271c2.713,7.697 10.645,9.314 15.394,6.771c4.495,-2.408 6.21,-8.584 4.359,-15.745c-0.371,-1.434 -1.135,-3.352 -1.135,-3.352c0,0 1.646,1.645 2.7,2.532Zm-3.808,-3.463c0.445,0.976 0.794,1.941 1.063,2.858c0.001,0.004 0.002,0.007 0.003,0.011c2.419,7.442 1.053,14.056 -3.53,16.511c-4.548,2.436 -12.201,0.733 -14.539,-6.938c-0.039,-0.127 -0.143,-0.224 -0.273,-0.252c-0.13,-0.028 -0.265,0.016 -0.354,0.115c-5.326,5.995 -12.991,4.349 -16.107,0.236c-3.14,-4.143 -1.621,-10.724 3.683,-16.477c0.002,-0.003 0.005,-0.005 0.007,-0.008c0.609,-0.701 1.327,-1.377 2.13,-2.028c0.738,-0.598 1.523,-1.195 2.357,-1.828c0.403,-0.306 2.695,-2.03 2.695,-2.03c0,-0 -2.474,1.399 -2.95,1.647c-1.901,0.988 -3.687,1.922 -5.396,2.422c-0.004,0.001 -0.007,0.003 -0.011,0.004c-7.442,2.418 -14.056,1.052 -16.51,-3.53c-2.437,-4.549 -0.734,-12.201 6.937,-14.539c0.127,-0.039 0.224,-0.144 0.252,-0.274c0.029,-0.13 -0.015,-0.265 -0.115,-0.353c-5.995,-5.327 -4.348,-12.991 -0.236,-16.108c4.143,-3.14 10.724,-1.62 16.477,3.684c0.003,0.002 0.006,0.004 0.008,0.007c1.345,1.168 2.548,2.78 3.852,4.479c0.749,0.976 2.302,3.12 2.214,2.983c0.088,0.137 -1.212,-2.169 -1.787,-3.258c-1,-1.893 -1.962,-3.66 -2.462,-5.369c-0.001,-0.003 -0.002,-0.007 -0.004,-0.01c-2.418,-7.442 -1.052,-14.056 3.53,-16.511c4.549,-2.436 12.201,-0.734 14.539,6.938c0.039,0.127 0.144,0.223 0.274,0.252c0.13,0.028 0.265,-0.016 0.353,-0.115c5.327,-5.995 12.991,-4.349 16.108,-0.237c3.14,4.144 1.62,10.724 -3.683,16.478c-0.003,0.002 -0.005,0.005 -0.008,0.008c-1.168,1.344 -2.762,2.578 -4.453,3.892c-0.425,0.33 -2.729,1.994 -2.729,1.994c0,-0 2.524,-1.363 2.97,-1.602c0.923,-0.494 1.793,-0.958 2.645,-1.379c0.927,-0.458 1.841,-0.828 2.732,-1.089c0.003,-0.001 0.007,-0.002 0.01,-0.003c7.442,-2.418 14.057,-1.053 16.511,3.53c2.436,4.548 0.734,12.201 -6.937,14.539c-0.128,0.039 -0.224,0.143 -0.253,0.273c-0.028,0.13 0.016,0.265 0.115,0.354c5.996,5.326 4.349,12.991 0.237,16.107c-4.144,3.14 -10.724,1.621 -16.478,-3.683c-0.002,-0.002 -0.005,-0.005 -0.008,-0.007c-0.703,-0.611 -1.415,-1.31 -2.099,-2.096c-0.612,-0.805 -1.296,-1.727 -2.071,-2.803c-0.295,-0.409 -2.521,-3.539 -2.521,-3.539c-0,0 1.915,3.33 2.164,3.768c0.595,1.05 1.147,2.049 1.648,2.976Z" style="fill:#018f35;"/></g><path d="M434.241,24.035c2.339,2.319 3.961,5.599 3.938,9.418c6.561,1.602 10.24,7.786 10.008,12.998c-0.181,4.093 -2.78,7.953 -7.199,10.438c3.685,3.485 5.267,7.859 4.449,11.871c-1.042,5.113 -6.113,10.218 -12.865,10.177c-1.602,6.561 -7.786,10.24 -12.999,10.009c-4.091,-0.182 -8.017,-2.726 -10.487,-7.117c-3.47,3.644 -7.817,5.182 -11.822,4.366c-4.556,-0.929 -9.108,-5.058 -10.014,-10.726c1.046,-1.929 2.134,-3.831 3.264,-5.706c-6.069,0.009 -9.67,-5.019 -9.482,-9.256c0.203,-4.598 4.875,-8.329 11.736,-9.25c0.435,-0.071 0.887,-0.12 1.355,-0.148c-0.445,-0.14 -0.871,-0.297 -1.274,-0.471c-6.436,-2.562 -10.062,-7.315 -9.143,-11.825c0.903,-4.429 6.2,-8.685 12.624,-6.311c-0.742,-6.808 4.672,-10.912 9.188,-10.712c4.598,0.204 8.329,4.875 9.25,11.741c0.071,0.433 0.12,0.883 0.148,1.349c0.14,-0.445 0.297,-0.87 0.471,-1.273c2.561,-6.436 7.315,-10.062 11.825,-9.142c1.303,0.265 2.591,0.911 3.7,1.855c1.098,-0.777 2.208,-1.538 3.329,-2.285Zm-24.856,50.288l0.989,1.348c-0,0 0.15,-0.337 0.392,-0.842l-0.006,-0.032c-0.205,-1.138 -0.386,-3.082 -0.386,-3.082c-0,-0 -0.485,1.494 -0.989,2.608Z" style="fill:#017129;fill-opacity:0.25;"/><g id="_4-clover1" serif:id="4 clover"><path d="M414.456,38.609c0.224,-1.815 0.253,-3.532 0.007,-5.033c-0.897,-6.688 -4.48,-11.279 -8.959,-11.478c-4.478,-0.198 -9.852,3.996 -8.8,10.884c-6.426,-2.694 -11.8,1.5 -12.695,5.893c-0.895,4.392 2.688,8.984 8.958,11.478c0.731,0.316 1.537,0.573 2.399,0.778c0.787,0.187 1.62,0.331 2.486,0.438c-1.816,-0.224 -3.533,-0.254 -5.034,-0.007c-6.688,0.896 -11.279,4.48 -11.478,8.958c-0.198,4.479 3.996,9.853 10.883,8.801c-2.693,6.426 1.501,11.799 5.894,12.695c4.392,0.895 8.984,-2.688 11.478,-8.959c0.603,-1.396 0.992,-3.068 1.216,-4.884c-0.224,1.816 -0.254,3.532 -0.007,5.033c0.896,6.689 4.479,11.28 8.958,11.479c4.479,0.198 9.853,-3.996 8.8,-10.884c6.426,2.694 11.8,-1.5 12.696,-5.893c0.895,-4.393 -2.689,-8.984 -8.959,-11.478c-0.73,-0.316 -1.536,-0.573 -2.399,-0.778c-0.786,-0.187 -1.619,-0.331 -2.485,-0.438c1.815,0.224 3.532,0.253 5.033,0.007c6.689,-0.897 11.28,-4.48 11.478,-8.958c0.199,-4.479 -3.995,-9.853 -10.883,-8.801c2.694,-6.426 -1.5,-11.8 -5.893,-12.695c-4.393,-0.895 -8.984,2.688 -11.478,8.958c-0.604,1.397 -0.992,3.069 -1.216,4.884Z" style="fill:#68af23;"/><path d="M418.798,54.151c-0,0 8.193,0.273 11.398,-0.306c5.681,-0.856 9.627,-3.936 9.865,-7.699c0.238,-3.763 -3.232,-8.209 -9.085,-7.219c2.383,-5.437 -1.088,-9.883 -4.796,-10.566c-3.708,-0.683 -7.654,2.396 -9.865,7.699c-1.353,2.999 -2.922,11.167 -2.922,11.167c0,-0 0.583,-8.299 0,-11.527c-0.857,-5.681 -3.936,-9.627 -7.699,-9.865c-3.763,-0.238 -8.21,3.232 -7.219,9.085c-5.437,-2.383 -9.883,1.088 -10.567,4.796c-0.683,3.708 2.397,7.654 7.7,9.865c2.936,1.325 10.861,3.05 10.861,3.05c-0,0 -8.098,-0.436 -11.254,0.134c-5.681,0.856 -9.627,3.936 -9.865,7.699c-0.238,3.763 3.232,8.209 9.085,7.219c-2.382,5.436 1.088,9.883 4.796,10.566c3.708,0.683 7.654,-2.396 9.865,-7.699c1.328,-2.942 2.777,-10.994 2.777,-10.994c0,-0 -0.43,8.169 0.145,11.354c0.857,5.681 3.937,9.627 7.7,9.865c3.763,0.238 8.209,-3.232 7.219,-9.085c5.436,2.383 9.883,-1.088 10.566,-4.796c0.683,-3.708 -2.396,-7.654 -7.699,-9.865c-2.955,-1.333 -11.006,-2.878 -11.006,-2.878Z" style="fill:#6fbe22;"/><path d="M412.645,53.297l-14.17,-18.377c-5.437,-2.383 -9.883,1.088 -10.567,4.796c-0.683,3.708 2.397,7.654 7.7,9.865c2.315,1.045 7.732,2.338 9.92,2.839l0.941,0.211c2.052,0.271 4.11,0.5 6.176,0.666Zm-18.21,14.386c-2.382,5.436 1.088,9.883 4.796,10.566c3.708,0.683 7.654,-2.396 9.865,-7.699c1.328,-2.942 2.777,-10.994 2.777,-10.994l0.772,-6.259l-18.21,14.386Zm18.21,-14.386l18.331,-14.37c2.383,-5.437 -1.088,-9.883 -4.796,-10.566c-3.708,-0.683 -7.654,2.396 -9.865,7.699c-1.353,2.999 -2.922,11.167 -2.922,11.167l-0.748,6.07Zm-0,0l14.292,18.393c5.436,2.383 9.883,-1.088 10.566,-4.796c0.683,-3.708 -2.396,-7.654 -7.699,-9.865c-2.955,-1.333 -11.006,-2.878 -11.006,-2.878l-6.153,-0.854Z" style="fill:#79c82c;"/><path d="M410.76,74.797c1.09,6.042 4.744,10.008 8.988,10.196c4.516,0.2 9.931,-3.904 9.189,-10.712c6.424,2.373 11.72,-1.882 12.623,-6.311c0.919,-4.51 -2.707,-9.264 -9.138,-11.823c-0.405,-0.175 -0.832,-0.333 -1.278,-0.473c0.466,-0.028 0.917,-0.077 1.35,-0.148c6.865,-0.921 11.537,-4.652 11.741,-9.25c0.2,-4.516 -3.904,-9.93 -10.712,-9.188c2.373,-6.424 -1.882,-11.721 -6.311,-12.623c-4.51,-0.92 -9.264,2.706 -11.825,9.142c-0.174,0.403 -0.331,0.828 -0.471,1.273c-0.028,-0.466 -0.077,-0.916 -0.148,-1.349c-0.921,-6.866 -4.652,-11.537 -9.25,-11.741c-4.516,-0.2 -9.93,3.904 -9.188,10.712c-6.424,-2.374 -11.721,1.882 -12.624,6.311c-0.919,4.51 2.707,9.263 9.143,11.825c0.403,0.174 0.829,0.331 1.274,0.471c-0.468,0.028 -0.92,0.077 -1.355,0.148c-6.861,0.921 -11.533,4.652 -11.736,9.25c-0.201,4.515 3.903,9.93 10.712,9.188c-2.374,6.424 1.882,11.72 6.311,12.623c4.193,0.855 8.611,-2.214 11.255,-7.831c0.529,-1.124 1.064,-2.772 1.064,-2.772c-0,-0 0.181,1.944 0.386,3.082Zm-0.603,-4.278c-0.236,0.869 -0.527,1.679 -0.846,2.416c-0.001,0.003 -0.002,0.005 -0.003,0.008c-2.427,6.102 -6.855,9.641 -11.13,8.77c-4.243,-0.865 -8.272,-6.066 -5.67,-12.273c0.043,-0.103 0.027,-0.221 -0.041,-0.309c-0.069,-0.088 -0.18,-0.132 -0.29,-0.116c-6.653,1.017 -10.72,-4.155 -10.528,-8.481c0.193,-4.359 4.701,-7.794 11.21,-8.666c0.003,-0 0.006,-0.001 0.009,-0.001c0.769,-0.127 1.595,-0.179 2.463,-0.168c0.797,0.009 1.624,0.044 2.501,0.083c0.425,0.018 2.829,0.133 2.829,0.133c0,0 -2.347,-0.422 -2.788,-0.518c-1.757,-0.38 -3.411,-0.734 -4.783,-1.328c-0.003,-0.001 -0.006,-0.002 -0.009,-0.003c-6.102,-2.427 -9.641,-6.855 -8.769,-11.13c0.864,-4.243 6.066,-8.272 12.273,-5.67c0.103,0.043 0.221,0.028 0.309,-0.041c0.088,-0.069 0.132,-0.18 0.115,-0.29c-1.016,-6.653 4.156,-10.72 8.482,-10.528c4.358,0.193 7.793,4.701 8.666,11.21c0,0.003 0.001,0.006 0.001,0.009c0.242,1.475 0.155,3.161 0.086,4.957c-0.039,1.032 -0.186,3.249 -0.169,3.113c-0.017,0.136 0.38,-2.05 0.592,-3.061c0.37,-1.759 0.695,-3.415 1.288,-4.787c0.001,-0.003 0.003,-0.006 0.004,-0.008c2.427,-6.103 6.854,-9.642 11.129,-8.77c4.243,0.864 8.272,6.066 5.67,12.273c-0.043,0.103 -0.027,0.221 0.042,0.309c0.068,0.088 0.179,0.132 0.29,0.115c6.653,-1.016 10.72,4.156 10.528,8.482c-0.193,4.358 -4.702,7.793 -11.211,8.666c-0.003,0 -0.006,0.001 -0.009,0.001c-1.475,0.242 -3.166,0.184 -4.962,0.126c-0.451,-0.014 -2.831,-0.174 -2.831,-0.174c0,-0 2.361,0.472 2.777,0.557c0.86,0.176 1.671,0.343 2.447,0.527c0.844,0.201 1.633,0.452 2.348,0.761c0.002,0.002 0.005,0.003 0.008,0.004c6.102,2.427 9.641,6.855 8.77,11.129c-0.865,4.244 -6.066,8.272 -12.273,5.67c-0.103,-0.043 -0.221,-0.027 -0.309,0.042c-0.089,0.069 -0.133,0.179 -0.116,0.29c1.017,6.653 -4.155,10.72 -8.481,10.528c-4.359,-0.193 -7.794,-4.702 -8.666,-11.211c-0.001,-0.003 -0.001,-0.006 -0.002,-0.009c-0.126,-0.771 -0.211,-1.604 -0.232,-2.478c0.037,-0.848 0.089,-1.81 0.165,-2.92c0.029,-0.422 0.269,-3.637 0.269,-3.637c0,-0 -0.548,3.177 -0.622,3.593c-0.178,0.997 -0.358,1.938 -0.531,2.805Z" style="fill:#018f35;"/></g><path d="M699.828,154.705c0,-5.888 -4.78,-10.668 -10.668,-10.668c-115.933,24.26 -231.867,24.45 -347.8,-0c-5.888,-0 -10.668,4.78 -10.668,10.668l-0,21.335c-0,5.888 4.78,10.668 10.668,10.668c115.369,20.86 231.303,20.86 347.8,0c5.888,0 10.668,-4.78 10.668,-10.668l0,-21.335Z" style="fill:#59cd44;"/></g></g></svg>