<?xml version="1.0" encoding="UTF-8" standalone="no"?>
<!DOCTYPE svg PUBLIC "-//W3C//DTD SVG 1.1//EN" "http://www.w3.org/Graphics/SVG/1.1/DTD/svg11.dtd">
<svg width="100%" height="100%" viewBox="0 0 300 345" version="1.1" xmlns="http://www.w3.org/2000/svg" xmlns:xlink="http://www.w3.org/1999/xlink" xml:space="preserve" xmlns:serif="http://www.serif.com/" style="fill-rule:evenodd;clip-rule:evenodd;stroke-linejoin:round;stroke-miterlimit:2;">
    <g id="elf">
        <g>
            <path id="base_body_1" d="M0,137.344C0,117.265 16.301,100.964 36.38,100.964L263.62,100.964C283.699,100.964 300,117.265 300,137.344L300,81.38C300,61.301 283.699,45 263.62,45L36.38,45C16.301,45 0,61.301 0,81.38L0,137.344Z" style="fill:#7d1913;"/>
            <path id="base_body_11" serif:id="base_body_1" d="M36.38,73.426C16.301,73.426 0,89.728 0,109.806L0,81.38C0,80.097 0.067,78.83 0.196,77.581C1.116,66.227 5.042,56.654 13.632,49.84L142.111,2.692C144.167,1.962 146.925,1.43 150,1.105L150.573,1.168C153.417,1.498 155.962,2.008 157.889,2.692L286.368,49.84C294.958,56.654 298.884,66.227 299.804,77.581C299.933,78.83 300,80.097 300,81.38L300,109.806C300,89.728 283.699,73.426 263.62,73.426L36.38,73.426Z" style="fill:#ececec;"/>
            <path id="base_body_12" serif:id="base_body_1" d="M256.347,38.823L286.368,49.84C294.958,56.654 298.884,66.227 299.804,77.581C299.933,78.83 300,80.097 300,81.38L300,109.806C300,89.728 283.699,73.426 263.62,73.426L36.38,73.426C16.301,73.426 0,89.728 0,109.806L0,81.38C0,80.097 0.067,78.83 0.196,77.581C1.116,66.227 5.042,56.654 13.632,49.84L43.653,38.823L256.347,38.823ZM103.242,16.956L142.111,2.692C144.167,1.962 146.925,1.43 150,1.105L150.573,1.168C153.417,1.498 155.962,2.008 157.889,2.692L196.758,16.956L103.242,16.956Z" style="fill:#579639;"/>
            <path id="base_body_13" serif:id="base_body_1" d="M97.143,19.194C97.877,20.476 98.297,21.961 98.297,23.543C98.297,26.253 97.066,28.677 95.133,30.287L123.537,58.651L149.141,30.75C146.862,29.165 145.37,26.527 145.37,23.543C145.37,18.701 149.302,14.769 154.144,14.769C158.987,14.769 162.919,18.701 162.919,23.543C162.919,26.17 161.763,28.528 159.932,30.137L190.169,58.218L220.822,30.149C219.26,28.782 218.187,26.872 217.899,24.714L218.302,24.862C219.492,21.427 222.758,18.957 226.595,18.957C230.717,18.957 234.178,21.805 235.117,25.638C234.714,27.284 233.845,28.749 232.658,29.884L265.034,58.668L276.615,46.261L279.528,47.329L288.03,38.222C287.109,37.861 286.264,37.349 285.525,36.717L288.03,34.033C285.4,33.003 283.386,30.739 282.704,27.955C283.643,24.121 287.104,21.274 291.226,21.274C295.347,21.274 298.808,24.121 299.748,27.955C299.222,30.1 297.906,31.935 296.128,33.136C296.337,34.374 296.538,35.621 296.731,36.879C296.537,37.036 296.335,37.185 296.128,37.325C298.302,50.199 299.628,64.095 299.937,79.216L299.995,80.793L300,81.38L300,126.049C300,105.97 283.699,89.669 263.62,89.669L36.38,89.669C16.301,89.669 0,105.97 0,126.049L0,81.38L0.022,80.101C0.194,64.974 1.371,50.398 3.95,36.589C3.724,36.439 3.505,36.28 3.294,36.111C3.502,34.867 3.72,33.63 3.95,32.4C2.132,31.2 0.786,29.343 0.252,27.167C1.191,23.334 4.653,20.486 8.774,20.486C12.896,20.486 16.358,23.334 17.297,27.167C16.706,29.574 15.121,31.593 13.002,32.761L15.635,34.728C14.915,35.631 14.02,36.388 13.002,36.95L24.783,45.747L28.544,44.367L46.323,57.643L83.941,30.312C82.386,29.028 81.28,27.218 80.896,25.156L81.163,25.058C82.295,21.521 85.612,18.957 89.522,18.957C91.226,18.957 92.818,19.444 94.165,20.287L97.143,19.194Z" style="fill-opacity:0.25;"/>
            <path id="base_body_14" serif:id="base_body_1" d="M300,130.238C300,110.159 283.699,93.858 263.62,93.858L36.38,93.858C16.301,93.858 0,110.159 0,130.238L0,84.065L0.001,83.256C0.038,66.266 1.299,49.944 4.333,34.593L10.226,34.877L46.323,61.831L85.063,33.686L94.067,33.411L123.537,62.839L149.694,34.335L159.405,33.835L190.169,62.406L220.906,34.26L232.636,34.052L265.034,62.856L289.613,36.526L295.973,36.418C298.474,50.906 299.898,66.69 300,84.065L300,130.238Z" style="fill:#bf322b;"/>
            <path d="M300,118.972L300,114.143L299.949,114.065C299.491,113.369 298.554,113.176 297.858,113.634C297.163,114.092 296.969,115.028 297.427,115.724C297.956,116.528 298.453,117.356 298.916,118.204C299.148,118.63 299.555,118.9 300,118.972ZM0,112.604L0,115.466C0.68,115.862 1.561,115.667 2.008,115.006C2.549,114.205 3.122,113.429 3.725,112.677C4.247,112.028 4.143,111.077 3.494,110.556C2.844,110.034 1.893,110.138 1.372,110.787C0.897,111.378 0.439,111.984 0,112.604ZM296.912,108.502C296.409,107.58 295.87,106.681 295.295,105.807C294.837,105.111 293.9,104.918 293.204,105.376C292.509,105.834 292.315,106.77 292.773,107.466C293.302,108.27 293.799,109.098 294.262,109.946C294.66,110.678 295.578,110.948 296.309,110.549C297.04,110.151 297.311,109.233 296.912,108.502ZM6.826,102.894C6.17,103.71 5.548,104.554 4.961,105.424C4.495,106.114 4.677,107.053 5.367,107.519C6.057,107.985 6.996,107.803 7.462,107.113C8.003,106.313 8.576,105.536 9.179,104.785C9.701,104.135 9.597,103.184 8.948,102.663C8.298,102.141 7.347,102.245 6.826,102.894ZM291.423,100.864C290.711,100.095 289.967,99.356 289.195,98.649C288.58,98.086 287.625,98.128 287.062,98.743C286.5,99.357 286.542,100.312 287.156,100.875C287.868,101.526 288.552,102.207 289.208,102.915C289.774,103.526 290.729,103.563 291.341,102.997C291.952,102.431 291.989,101.475 291.423,100.864ZM13.574,96.344C12.737,96.976 11.928,97.642 11.147,98.339C10.526,98.895 10.472,99.849 11.027,100.471C11.583,101.092 12.537,101.145 13.159,100.59C13.877,99.948 14.623,99.335 15.393,98.753C16.058,98.251 16.19,97.303 15.688,96.639C15.186,95.974 14.239,95.842 13.574,96.344ZM284.23,94.804C283.353,94.234 282.451,93.699 281.526,93.202C280.793,92.808 279.877,93.083 279.482,93.817C279.088,94.55 279.363,95.466 280.097,95.861C280.948,96.318 281.778,96.81 282.585,97.335C283.284,97.789 284.219,97.59 284.673,96.892C285.127,96.194 284.929,95.258 284.23,94.804ZM21.726,91.649C20.756,92.056 19.807,92.503 18.881,92.986C18.143,93.372 17.856,94.284 18.242,95.023C18.627,95.761 19.54,96.047 20.278,95.662C21.13,95.217 22.003,94.806 22.895,94.431C23.663,94.109 24.024,93.223 23.702,92.455C23.379,91.687 22.494,91.326 21.726,91.649ZM275.766,90.698C274.777,90.363 273.771,90.068 272.748,89.815C271.94,89.615 271.121,90.109 270.92,90.917C270.72,91.726 271.214,92.545 272.022,92.745C272.963,92.978 273.888,93.249 274.797,93.557C275.586,93.824 276.444,93.401 276.711,92.612C276.978,91.823 276.554,90.965 275.766,90.698ZM30.788,89.117C29.744,89.271 28.714,89.469 27.7,89.707C26.889,89.897 26.385,90.71 26.576,91.521C26.766,92.332 27.579,92.836 28.39,92.646C29.323,92.426 30.27,92.245 31.23,92.103C32.054,91.98 32.624,91.212 32.502,90.388C32.38,89.564 31.612,88.995 30.788,89.117ZM263.62,88.706C264.158,88.706 264.045,88.706 263.416,88.706C262.583,88.706 261.907,89.382 261.907,90.215C261.907,91.048 262.583,91.724 263.416,91.724L263.62,91.724C264.527,91.724 265.427,91.759 266.316,91.827C267.147,91.891 267.873,91.268 267.937,90.438C268,89.607 267.377,88.881 266.547,88.818C265.581,88.744 264.605,88.706 263.62,88.706ZM85.323,88.706L82.304,88.706C81.471,88.706 80.795,89.382 80.795,90.215C80.795,91.048 81.471,91.724 82.304,91.724L85.323,91.724C86.156,91.724 86.832,91.048 86.832,90.215C86.832,89.382 86.156,88.706 85.323,88.706ZM40.045,88.706L37.027,88.706C36.194,88.706 35.517,89.382 35.517,90.215C35.517,91.048 36.194,91.724 37.027,91.724L40.045,91.724C40.878,91.724 41.554,91.048 41.554,90.215C41.554,89.382 40.878,88.706 40.045,88.706ZM248.323,88.706L245.305,88.706C244.472,88.706 243.795,89.382 243.795,90.215C243.795,91.048 244.472,91.724 245.305,91.724L248.323,91.724C249.156,91.724 249.832,91.048 249.832,90.215C249.832,89.382 249.156,88.706 248.323,88.706ZM239.268,88.706L236.249,88.706C235.416,88.706 234.74,89.382 234.74,90.215C234.74,91.048 235.416,91.724 236.249,91.724L239.268,91.724C240.101,91.724 240.777,91.048 240.777,90.215C240.777,89.382 240.101,88.706 239.268,88.706ZM76.267,88.706L73.249,88.706C72.416,88.706 71.74,89.382 71.74,90.215C71.74,91.048 72.416,91.724 73.249,91.724L76.267,91.724C77.1,91.724 77.777,91.048 77.777,90.215C77.777,89.382 77.1,88.706 76.267,88.706ZM130.601,88.706L127.582,88.706C126.749,88.706 126.073,89.382 126.073,90.215C126.073,91.048 126.749,91.724 127.582,91.724L130.601,91.724C131.434,91.724 132.11,91.048 132.11,90.215C132.11,89.382 131.434,88.706 130.601,88.706ZM121.545,88.706L118.527,88.706C117.694,88.706 117.017,89.382 117.017,90.215C117.017,91.048 117.694,91.724 118.527,91.724L121.545,91.724C122.378,91.724 123.054,91.048 123.054,90.215C123.054,89.382 122.378,88.706 121.545,88.706ZM67.212,88.706L64.193,88.706C63.36,88.706 62.684,89.382 62.684,90.215C62.684,91.048 63.36,91.724 64.193,91.724L67.212,91.724C68.045,91.724 68.721,91.048 68.721,90.215C68.721,89.382 68.045,88.706 67.212,88.706ZM58.156,88.706L55.138,88.706C54.305,88.706 53.629,89.382 53.629,90.215C53.629,91.048 54.305,91.724 55.138,91.724L58.156,91.724C58.989,91.724 59.666,91.048 59.666,90.215C59.666,89.382 58.989,88.706 58.156,88.706ZM49.101,88.706L46.082,88.706C45.249,88.706 44.573,89.382 44.573,90.215C44.573,91.048 45.249,91.724 46.082,91.724L49.101,91.724C49.934,91.724 50.61,91.048 50.61,90.215C50.61,89.382 49.934,88.706 49.101,88.706ZM257.379,88.706L254.36,88.706C253.527,88.706 252.851,89.382 252.851,90.215C252.851,91.048 253.527,91.724 254.36,91.724L257.379,91.724C258.212,91.724 258.888,91.048 258.888,90.215C258.888,89.382 258.212,88.706 257.379,88.706ZM94.378,88.706L91.36,88.706C90.527,88.706 89.851,89.382 89.851,90.215C89.851,91.048 90.527,91.724 91.36,91.724L94.378,91.724C95.211,91.724 95.888,91.048 95.888,90.215C95.888,89.382 95.211,88.706 94.378,88.706ZM112.49,88.706L109.471,88.706C108.638,88.706 107.962,89.382 107.962,90.215C107.962,91.048 108.638,91.724 109.471,91.724L112.49,91.724C113.322,91.724 113.999,91.048 113.999,90.215C113.999,89.382 113.322,88.706 112.49,88.706ZM103.434,88.706L100.415,88.706C99.582,88.706 98.906,89.382 98.906,90.215C98.906,91.048 99.582,91.724 100.415,91.724L103.434,91.724C104.267,91.724 104.943,91.048 104.943,90.215C104.943,89.382 104.267,88.706 103.434,88.706ZM166.823,88.706L163.805,88.706C162.972,88.706 162.295,89.382 162.295,90.215C162.295,91.048 162.972,91.724 163.805,91.724L166.823,91.724C167.656,91.724 168.332,91.048 168.332,90.215C168.332,89.382 167.656,88.706 166.823,88.706ZM175.879,88.706L172.86,88.706C172.027,88.706 171.351,89.382 171.351,90.215C171.351,91.048 172.027,91.724 172.86,91.724L175.879,91.724C176.712,91.724 177.388,91.048 177.388,90.215C177.388,89.382 176.712,88.706 175.879,88.706ZM184.935,88.706L181.916,88.706C181.083,88.706 180.407,89.382 180.407,90.215C180.407,91.048 181.083,91.724 181.916,91.724L184.935,91.724C185.768,91.724 186.444,91.048 186.444,90.215C186.444,89.382 185.768,88.706 184.935,88.706ZM148.712,88.706L145.693,88.706C144.86,88.706 144.184,89.382 144.184,90.215C144.184,91.048 144.86,91.724 145.693,91.724L148.712,91.724C149.545,91.724 150.221,91.048 150.221,90.215C150.221,89.382 149.545,88.706 148.712,88.706ZM230.212,88.706L227.194,88.706C226.361,88.706 225.684,89.382 225.684,90.215C225.684,91.048 226.361,91.724 227.194,91.724L230.212,91.724C231.045,91.724 231.722,91.048 231.722,90.215C231.722,89.382 231.045,88.706 230.212,88.706ZM212.101,88.706L209.083,88.706C208.25,88.706 207.573,89.382 207.573,90.215C207.573,91.048 208.25,91.724 209.083,91.724L212.101,91.724C212.934,91.724 213.61,91.048 213.61,90.215C213.61,89.382 212.934,88.706 212.101,88.706ZM193.99,88.706L190.972,88.706C190.139,88.706 189.462,89.382 189.462,90.215C189.462,91.048 190.139,91.724 190.972,91.724L193.99,91.724C194.823,91.724 195.499,91.048 195.499,90.215C195.499,89.382 194.823,88.706 193.99,88.706ZM221.156,88.706L218.138,88.706C217.305,88.706 216.629,89.382 216.629,90.215C216.629,91.048 217.305,91.724 218.138,91.724L221.156,91.724C221.989,91.724 222.666,91.048 222.666,90.215C222.666,89.382 221.989,88.706 221.156,88.706ZM203.046,88.706L200.027,88.706C199.194,88.706 198.518,89.382 198.518,90.215C198.518,91.048 199.194,91.724 200.027,91.724L203.046,91.724C203.879,91.724 204.555,91.048 204.555,90.215C204.555,89.382 203.879,88.706 203.046,88.706ZM139.656,88.706L136.638,88.706C135.805,88.706 135.128,89.382 135.128,90.215C135.128,91.048 135.805,91.724 136.638,91.724L139.656,91.724C140.489,91.724 141.166,91.048 141.166,90.215C141.166,89.382 140.489,88.706 139.656,88.706ZM157.767,88.706L154.749,88.706C153.916,88.706 153.24,89.382 153.24,90.215C153.24,91.048 153.916,91.724 154.749,91.724L157.767,91.724C158.6,91.724 159.277,91.048 159.277,90.215C159.277,89.382 158.6,88.706 157.767,88.706Z" style="fill:#b21c13;"/>
            <path d="M291.226,21.274C296.068,21.274 300,25.206 300,30.048C300,34.891 296.068,38.823 291.226,38.823C286.383,38.823 282.451,34.891 282.451,30.048C282.451,25.206 286.383,21.274 291.226,21.274ZM8.774,20.486C13.617,20.486 17.549,24.417 17.549,29.26C17.549,34.103 13.617,38.035 8.774,38.035C3.932,38.035 -0,34.103 -0,29.26C-0,24.417 3.932,20.486 8.774,20.486ZM154.144,18.957C158.987,18.957 162.919,22.889 162.919,27.732C162.919,32.574 158.987,36.506 154.144,36.506C149.302,36.506 145.37,32.574 145.37,27.732C145.37,22.889 149.302,18.957 154.144,18.957ZM226.595,18.957C231.438,18.957 235.37,22.889 235.37,27.732C235.37,32.574 231.438,36.506 226.595,36.506C221.753,36.506 217.821,32.574 217.821,27.732C217.821,22.889 221.753,18.957 226.595,18.957ZM89.522,18.957C94.365,18.957 98.297,22.889 98.297,27.732C98.297,32.574 94.365,36.506 89.522,36.506C84.68,36.506 80.748,32.574 80.748,27.732C80.748,22.889 84.68,18.957 89.522,18.957Z" style="fill:#ffc200;"/>
        </g>
    </g>
</svg>
