<?xml version="1.0" encoding="UTF-8" standalone="no"?>
<!DOCTYPE svg PUBLIC "-//W3C//DTD SVG 1.1//EN" "http://www.w3.org/Graphics/SVG/1.1/DTD/svg11.dtd">
<svg width="100%" height="100%" viewBox="0 0 300 345" version="1.1" xmlns="http://www.w3.org/2000/svg" xmlns:xlink="http://www.w3.org/1999/xlink" xml:space="preserve" xmlns:serif="http://www.serif.com/" style="fill-rule:evenodd;clip-rule:evenodd;stroke-linejoin:round;stroke-miterlimit:2;">
    <g id="robot">
        <g transform="matrix(1.12745,0,0.381017,1.16749,-145.743,-55.6584)">
            <path d="M283.051,306.415L34.104,306.415L33.767,336.881L281.49,336.933L283.051,332.313L283.051,306.415Z" style="fill:#996a3c;"/>
        </g>
        <path d="M300,335.447L300,332.907L299.59,332.763L299.341,333.47C299.197,333.878 299.034,334.247 298.766,334.591C298.574,334.838 298.356,335.07 298.09,335.236C297.097,335.858 296.278,335.494 295.505,334.939C294.443,334.177 293.44,333.094 292.357,332.609C290.615,331.829 288.444,332.052 286.706,332.702C285.246,333.248 284.089,334.201 282.87,334.984C281.83,335.651 280.738,336.186 279.261,336.038C277.529,335.864 276.143,334.903 274.728,334.038C273.088,333.036 271.416,332.148 269.327,332.27C267.463,332.379 265.859,333.496 264.256,334.569C262.916,335.466 261.58,336.345 259.964,336.16C258.433,335.984 257.364,335.086 256.255,334.26C254.92,333.266 253.542,332.351 251.58,332.334C249.475,332.316 248.21,332.99 247.001,333.889C246.286,334.42 245.594,335.039 244.715,335.617C243.675,336.3 242.361,336.433 241.125,336.283L241.129,336.255L240.267,336.135L239.701,336.019C238.555,335.73 237.615,335.16 236.672,334.628C235.367,333.891 234.057,333.22 232.358,333.163C230.431,333.098 228.655,333.857 226.864,334.648C225.277,335.35 223.676,336.08 221.891,336.051C219.91,336.018 218.349,335.128 216.746,334.267C214.937,333.295 213.083,332.349 210.692,332.331C208.396,332.313 206.722,333.313 204.888,334.327C203.269,335.221 201.502,336.113 198.87,336.035C198.017,336.01 196.671,335.544 195.124,335.003C192.604,334.122 189.603,333.024 187.238,332.888C185.056,332.762 182.426,333.549 179.857,334.388C177.465,335.169 175.131,335.998 173.31,335.998C170.296,335.998 167.845,335.131 165.394,334.272C162.791,333.361 160.19,332.458 157.001,332.447C154.423,332.438 151.946,333.516 149.485,334.543C147.239,335.48 145.009,336.381 142.687,336.105C140.661,335.864 138.788,334.935 136.894,334.089C134.83,333.167 132.742,332.342 130.461,332.386C129.295,332.409 126.731,333.26 124.19,334.147C121.818,334.975 119.468,335.833 118.445,335.905C116.156,336.066 114.038,335.278 111.91,334.437C109.603,333.525 107.287,332.546 104.782,332.395C101.252,332.182 98.034,333.067 94.847,334.041C91.807,334.97 88.797,335.982 85.54,336.074C83.291,336.137 81.316,335.415 79.365,334.595C77.266,333.714 75.194,332.721 72.893,332.307C69.305,331.662 66.373,332.716 63.49,333.91C60.836,335.008 58.231,336.237 55.095,336.06C53.806,335.987 51.108,334.988 48.143,334.043C45.016,333.047 41.61,332.104 39.147,332.178C36.328,332.263 34.341,333.331 32.268,334.355C30.388,335.283 28.428,336.167 25.536,336.014C24.367,335.952 22.22,334.963 22.266,332.337L22.279,331.587L20.779,331.561L20.766,332.311C20.701,336.049 23.793,337.424 25.457,337.512C28.665,337.681 30.847,336.729 32.932,335.7C34.823,334.766 36.622,333.755 39.192,333.677C41.52,333.607 44.732,334.53 47.688,335.473C50.806,336.467 53.654,337.481 55.011,337.557C58.387,337.748 61.206,336.479 64.063,335.295C66.692,334.207 69.357,333.195 72.628,333.783C74.819,334.177 76.786,335.139 78.784,335.978C80.929,336.879 83.109,337.643 85.582,337.573C88.977,337.478 92.118,336.443 95.285,335.475C98.304,334.553 101.349,333.691 104.692,333.892C107.037,334.033 109.198,334.978 111.358,335.832C113.697,336.757 116.034,337.578 118.55,337.401C119.641,337.325 122.156,336.446 124.684,335.563C127.042,334.74 129.409,333.907 130.49,333.886C132.548,333.846 134.421,334.627 136.283,335.459C138.315,336.366 140.335,337.336 142.51,337.595C145.084,337.901 147.573,336.967 150.063,335.927C152.337,334.978 154.613,333.938 156.996,333.947C160,333.957 162.446,334.829 164.898,335.688C167.501,336.6 170.109,337.498 173.31,337.498C175.258,337.498 177.764,336.649 180.322,335.814C182.702,335.037 185.13,334.269 187.152,334.385C189.396,334.515 192.237,335.582 194.629,336.419C196.357,337.024 197.872,337.506 198.826,337.534C201.791,337.623 203.789,336.647 205.613,335.639C207.221,334.751 208.668,333.815 210.681,333.831C212.801,333.847 214.432,334.726 216.037,335.588C217.847,336.561 219.628,337.514 221.867,337.551C223.873,337.584 225.686,336.809 227.47,336.02C229.051,335.321 230.606,334.605 232.307,334.662C233.741,334.71 234.834,335.313 235.935,335.934C237.169,336.63 238.41,337.352 239.995,337.611L240.132,337.639C241.927,338.01 243.973,337.899 245.539,336.87C246.444,336.275 247.159,335.64 247.896,335.092C248.866,334.372 249.878,333.82 251.567,333.834C253.168,333.848 254.269,334.651 255.359,335.463C256.675,336.443 257.976,337.441 259.793,337.65C261.771,337.877 263.448,336.915 265.09,335.816C266.468,334.894 267.813,333.861 269.415,333.768C271.175,333.664 272.564,334.474 273.945,335.318C275.551,336.299 277.148,337.334 279.111,337.53C280.976,337.717 282.368,337.088 283.68,336.246C284.813,335.519 285.876,334.614 287.231,334.107C288.62,333.588 290.353,333.355 291.743,333.978C292.744,334.426 293.649,335.454 294.63,336.158C295.899,337.069 297.257,337.527 298.886,336.507C299.3,336.248 299.651,335.897 299.95,335.513C299.967,335.491 299.983,335.469 300,335.447Z" style="fill:#b28963;"/>
        <g transform="matrix(1.10787,0,0.381017,1.16749,-140.201,-55.6584)">
            <rect x="31.042" y="306.415" width="252.008" height="25.898" style="fill:#ac8057;"/>
        </g>
        <path d="M299.443,330.605L20.249,330.605L17.468,322.084L296.662,322.084L299.443,330.605ZM293.996,313.917L14.803,313.917L12.022,305.397L291.216,305.397L293.996,313.917Z" style="fill:#a67b53;"/>
        <path d="M297.167,323.632L17.973,323.632L20.807,332.313L300,332.313L297.167,323.632Z" style="fill:#ffcc75;"/>
        <g transform="matrix(0.88148,0,0,0.464566,17.778,128.65)">
            <path d="M304.538,73.278C304.538,52.919 295.826,36.39 285.096,36.39C285.096,36.39 14.904,36.39 14.904,36.39C4.174,36.39 -4.538,52.919 -4.538,73.278L-4.538,273.799C-4.538,294.158 4.174,310.687 14.904,310.687L285.096,310.687C295.826,310.687 304.538,294.158 304.538,273.799C304.538,273.799 304.538,73.278 304.538,73.278ZM295.462,73.278L295.462,273.799C295.462,284.654 290.817,293.467 285.096,293.467C285.096,293.467 14.904,293.467 14.904,293.467C9.183,293.467 4.538,284.654 4.538,273.799C4.538,273.799 4.538,73.278 4.538,73.278C4.538,62.423 9.183,53.61 14.904,53.61L285.096,53.61C290.817,53.61 295.462,62.423 295.462,73.278Z" style="fill:#ac8057;"/>
        </g>
        <g>
            <path d="M140.981,15.993C140.907,15.924 140.832,15.857 140.757,15.791C133.51,9.459 123.377,9.994 116.137,15.175C115.353,14.407 114.482,13.736 113.532,13.187C112.072,12.343 110.383,11.857 108.728,11.598C102.323,10.598 97.744,13.693 94.65,18.389C91.816,22.691 90.286,28.385 89.733,33.066C89.522,34.857 89.568,36.606 89.733,38.4C89.834,39.499 90.809,40.309 91.908,40.208C93.007,40.107 93.817,39.132 93.716,38.033C93.577,36.52 93.527,35.045 93.706,33.535C94.193,29.411 95.494,24.38 97.991,20.589C100.228,17.193 103.478,14.827 108.111,15.55C109.286,15.734 110.494,16.051 111.53,16.65C112.096,16.977 112.623,17.363 113.108,17.798C112.082,18.868 111.158,20.055 110.36,21.347C108.215,24.826 106.24,29.123 106.679,33.316C106.898,35.405 107.905,37.868 110.057,38.684C112.261,39.52 114.356,38.944 116.128,37.567C118.287,35.89 119.907,32.932 120.469,30.859C121.57,26.791 120.807,22.077 118.592,18.327C124.377,14.247 132.374,13.778 138.125,18.803C138.192,18.862 138.258,18.922 138.323,18.983C137.897,19.543 137.501,20.112 137.14,20.68C135.016,24.022 133.417,27.507 134.384,31.569C134.86,33.565 136.176,35.694 138.274,36.352C139.976,36.886 141.569,36.414 142.894,35.334C144.431,34.081 145.551,31.925 145.905,30.318C146.701,26.704 145.602,22.409 143.51,19.076C145.341,17.241 147.55,15.741 149.945,15.211C152.483,14.649 155.333,15.12 157.768,15.949C160.13,16.753 162.66,17.745 164.657,19.294C163.507,20.863 162.508,22.65 161.877,24.463C161.269,26.208 160.951,28.1 161.071,29.95C161.167,31.432 161.406,32.994 162.052,34.347C163.858,38.129 168.087,38.425 171.117,36.21C173.849,34.213 175.277,30.97 174.768,27.586C174.472,25.617 173.537,23.763 172.487,22.096C171.845,21.077 171.107,20.098 170.3,19.179C172.528,17.511 175.41,16.585 178.267,16.479C181.999,16.34 185.743,17.605 187.873,20.701C188.109,21.044 188.325,21.4 188.521,21.766C187.253,23.748 186.356,25.979 185.844,28.254C185.605,29.317 185.707,31.332 186.425,32.588C186.802,33.248 187.322,33.743 187.946,34.035C188.6,34.342 189.392,34.46 190.347,34.171C193.138,33.326 194.269,31.329 194.458,28.929C194.628,26.775 193.868,24.208 193.119,22.277C193.404,21.951 193.706,21.64 194.024,21.346C194.735,20.687 195.528,20.138 196.4,19.715C199.399,18.261 202,19.418 204.091,21.427C206.568,23.807 208.392,27.336 209.416,30.157C210.034,31.859 210.909,33.697 210.787,35.556C210.714,36.657 211.55,37.61 212.651,37.683C213.753,37.755 214.706,36.92 214.778,35.818C214.936,33.413 213.976,30.993 213.176,28.792C211.97,25.471 209.778,21.344 206.862,18.543C203.56,15.369 199.393,13.819 194.655,16.116C193.426,16.711 192.308,17.483 191.306,18.411L191.213,18.499L191.168,18.433C188.256,14.202 183.22,12.291 178.118,12.482C174.235,12.626 170.347,13.994 167.408,16.372C165.015,14.428 161.945,13.146 159.057,12.163C155.955,11.106 152.315,10.59 149.081,11.306C146.101,11.965 143.303,13.762 140.981,15.993ZM115.568,21.028C114.903,21.773 114.299,22.581 113.765,23.447C112.06,26.211 110.309,29.568 110.657,32.9C110.709,33.389 110.809,33.944 111.036,34.42C111.138,34.636 111.248,34.858 111.476,34.944C112.573,35.36 113.523,34.653 114.324,33.817C115.456,32.635 116.284,31.01 116.608,29.813C117.373,26.986 116.954,23.726 115.568,21.028ZM167.555,22.12C166.774,23.255 166.097,24.507 165.654,25.778C165.221,27.024 164.977,28.371 165.063,29.691C165.127,30.676 165.233,31.725 165.662,32.624C166.27,33.897 167.737,33.726 168.757,32.98C170.28,31.867 171.096,30.068 170.812,28.18C170.598,26.754 169.863,25.435 169.103,24.228C168.642,23.496 168.121,22.791 167.555,22.12ZM140.821,22.361C140.716,22.516 140.614,22.671 140.516,22.826C138.978,25.245 137.575,27.701 138.276,30.642C138.448,31.367 138.709,32.296 139.471,32.535C139.977,32.694 140.365,32.285 140.72,31.896C141.37,31.184 141.832,30.212 141.999,29.458C142.496,27.199 141.955,24.592 140.821,22.361ZM190.371,27.003C190.116,27.701 189.908,28.415 189.746,29.133C189.704,29.319 189.747,29.708 189.798,30.04C190.472,29.525 190.538,28.62 190.461,27.712C190.441,27.478 190.41,27.241 190.371,27.003Z" style="fill:#414141;"/>
            <path d="M140.971,15.315C133.663,9.025 123.543,9.469 116.185,14.531C115.451,13.852 114.648,13.254 113.782,12.754C112.269,11.88 110.521,11.372 108.805,11.104C102.179,10.07 97.433,13.256 94.233,18.114C91.357,22.48 89.798,28.256 89.237,33.007C89.021,34.833 89.067,36.617 89.235,38.445C89.361,39.819 90.58,40.832 91.954,40.706C93.328,40.579 94.34,39.361 94.214,37.987C94.078,36.51 94.028,35.069 94.202,33.593C94.681,29.539 95.954,24.591 98.408,20.864C100.539,17.63 103.623,15.356 108.033,16.045C109.149,16.219 110.297,16.515 111.28,17.083C111.668,17.307 112.036,17.56 112.384,17.839C111.478,18.832 110.656,19.916 109.935,21.085C107.735,24.653 105.732,29.067 106.182,33.368C106.419,35.629 107.551,38.268 109.88,39.151C112.258,40.054 114.522,39.447 116.435,37.962C118.68,36.218 120.368,33.145 120.951,30.99C122.047,26.943 121.357,22.274 119.255,18.479C124.774,14.8 132.215,14.427 137.648,19.052C137.317,19.503 137.007,19.958 136.718,20.412C134.52,23.87 132.897,27.482 133.898,31.685C134.412,33.841 135.859,36.118 138.124,36.829C139.997,37.416 141.752,36.909 143.21,35.721C144.833,34.398 146.019,32.123 146.393,30.425C147.188,26.815 146.167,22.545 144.144,19.154C145.849,17.513 147.868,16.183 150.053,15.699C152.504,15.157 155.256,15.622 157.607,16.422C159.768,17.159 162.077,18.05 163.965,19.402C162.909,20.91 161.998,22.594 161.405,24.298C160.775,26.106 160.448,28.067 160.572,29.983C160.672,31.527 160.928,33.153 161.601,34.563C163.557,38.659 168.13,39.012 171.412,36.614C174.295,34.507 175.799,31.083 175.262,27.511C174.956,25.475 173.996,23.553 172.911,21.83C172.351,20.942 171.721,20.084 171.036,19.269C173.118,17.856 175.713,17.074 178.285,16.978C181.847,16.846 185.429,18.031 187.462,20.984C187.632,21.233 187.792,21.488 187.94,21.749C186.725,23.716 185.859,25.909 185.356,28.144C185.097,29.295 185.213,31.476 185.991,32.836C186.422,33.591 187.02,34.153 187.734,34.488C188.485,34.84 189.395,34.981 190.492,34.649C193.52,33.734 194.751,31.571 194.957,28.968C195.124,26.849 194.43,24.34 193.695,22.384C193.909,22.151 194.132,21.927 194.364,21.713C195.038,21.088 195.79,20.566 196.618,20.165C199.4,18.816 201.805,19.924 203.744,21.787C206.166,24.115 207.944,27.569 208.946,30.328C209.542,31.967 210.405,33.733 210.288,35.523C210.197,36.9 211.242,38.091 212.618,38.182C213.995,38.272 215.186,37.228 215.277,35.851C215.44,33.378 214.468,30.885 213.646,28.621C212.417,25.237 210.179,21.036 207.209,18.182C203.755,14.863 199.392,13.263 194.437,15.666C193.296,16.219 192.246,16.919 191.294,17.75C188.248,13.655 183.209,11.792 178.099,11.982C174.246,12.125 170.388,13.444 167.409,15.735C165.02,13.892 162.036,12.649 159.218,11.689C156.032,10.604 152.294,10.082 148.973,10.817C146.049,11.465 143.292,13.169 140.971,15.315ZM190.755,18.715L190.796,18.776C190.966,19.029 191.213,18.999 191.213,18.999C191.213,18.999 191.384,19.026 191.559,18.86L191.647,18.776C192.612,17.883 193.69,17.139 194.873,16.565C199.394,14.374 203.365,15.876 206.516,18.903C209.377,21.652 211.523,25.704 212.706,28.963C213.483,31.102 214.433,33.449 214.279,35.785C214.225,36.611 213.51,37.238 212.684,37.184C211.858,37.129 211.231,36.415 211.286,35.589C211.412,33.662 210.527,31.751 209.886,29.987C208.839,27.103 206.969,23.499 204.437,21.066C202.195,18.912 199.398,17.706 196.182,19.265C195.265,19.709 194.431,20.287 193.684,20.979C193.353,21.285 193.039,21.609 192.743,21.948C192.621,22.088 192.586,22.284 192.653,22.458C193.377,24.325 194.124,26.806 193.96,28.89C193.786,31.086 192.757,32.919 190.203,33.692C189.39,33.938 188.715,33.844 188.158,33.582C187.624,33.332 187.182,32.905 186.859,32.34C186.201,31.188 186.112,29.339 186.332,28.364C186.831,26.145 187.705,23.969 188.942,22.036C189.039,21.884 189.047,21.691 188.962,21.531C188.758,21.148 188.532,20.776 188.285,20.417C186.057,17.18 182.152,15.834 178.248,15.979C175.29,16.089 172.307,17.052 170.001,18.779C169.889,18.863 169.818,18.989 169.803,19.127C169.789,19.266 169.833,19.404 169.925,19.509C170.714,20.408 171.436,21.365 172.064,22.363C173.078,23.972 173.987,25.759 174.273,27.66C174.754,30.858 173.403,33.92 170.822,35.806C168.044,37.837 164.16,37.599 162.504,34.132C161.885,32.836 161.662,31.338 161.57,29.918C161.454,28.134 161.763,26.31 162.349,24.627C162.964,22.86 163.94,21.119 165.06,19.589C165.22,19.371 165.177,19.065 164.963,18.899C162.924,17.317 160.342,16.297 157.929,15.476C155.411,14.618 152.462,14.142 149.837,14.723C147.352,15.273 145.055,16.819 143.156,18.723C142.991,18.888 142.963,19.144 143.086,19.342C145.11,22.565 146.186,26.715 145.417,30.21C145.083,31.727 144.029,33.764 142.578,34.946C141.386,35.918 139.955,36.355 138.424,35.875C136.493,35.269 135.309,33.29 134.871,31.453C133.936,27.531 135.511,24.175 137.562,20.948C137.916,20.392 138.303,19.835 138.721,19.285C138.877,19.081 138.852,18.792 138.665,18.617C138.595,18.552 138.525,18.489 138.454,18.427C132.521,13.243 124.272,13.709 118.304,17.918C118.091,18.068 118.029,18.357 118.162,18.581C120.308,22.216 121.053,26.785 119.986,30.728C119.447,32.719 117.895,35.562 115.821,37.172C114.189,38.44 112.264,38.986 110.235,38.216C108.26,37.467 107.377,35.181 107.176,33.264C106.749,29.179 108.696,24.999 110.786,21.61C111.564,20.347 112.467,19.189 113.469,18.144C113.562,18.046 113.612,17.914 113.607,17.779C113.602,17.643 113.542,17.516 113.442,17.425C112.931,16.968 112.377,16.561 111.78,16.217C110.691,15.588 109.423,15.249 108.188,15.056C103.334,14.299 99.918,16.755 97.573,20.314C95.034,24.169 93.704,29.283 93.209,33.476C93.027,35.022 93.076,36.531 93.218,38.079C93.294,38.903 92.686,39.634 91.862,39.71C91.038,39.786 90.307,39.178 90.231,38.354C90.069,36.595 90.023,34.88 90.23,33.124C90.774,28.513 92.276,22.902 95.068,18.664C98.054,14.131 102.468,11.127 108.651,12.092C110.246,12.342 111.875,12.807 113.281,13.619C114.195,14.148 115.033,14.794 115.787,15.532C115.961,15.702 116.231,15.723 116.428,15.582C123.485,10.531 133.364,9.995 140.428,16.168C140.499,16.23 140.571,16.294 140.641,16.36C140.835,16.54 141.136,16.537 141.327,16.353C143.583,14.187 146.295,12.434 149.189,11.794C152.336,11.097 155.877,11.608 158.896,12.636C161.73,13.601 164.744,14.853 167.093,16.76C167.277,16.909 167.539,16.909 167.723,16.761C170.58,14.449 174.361,13.122 178.136,12.981C183.067,12.797 187.941,14.627 190.755,18.715ZM116.012,20.799C115.937,20.653 115.794,20.553 115.631,20.532C115.467,20.511 115.304,20.572 115.194,20.695C114.511,21.462 113.889,22.294 113.339,23.185C111.58,26.038 109.8,29.512 110.16,32.952C110.217,33.494 110.333,34.107 110.584,34.636C110.743,34.967 110.947,35.278 111.299,35.411C112.591,35.902 113.742,35.148 114.685,34.163C115.877,32.918 116.749,31.205 117.09,29.944C117.887,27.001 117.455,23.608 116.012,20.799ZM115.447,21.94C116.515,24.383 116.796,27.205 116.125,29.683C115.818,30.815 115.034,32.353 113.963,33.471C113.605,33.845 113.218,34.195 112.794,34.4C112.441,34.57 112.061,34.631 111.653,34.476C111.621,34.464 111.609,34.432 111.591,34.404C111.552,34.342 111.519,34.273 111.487,34.205C111.284,33.78 111.2,33.284 111.155,32.847C110.817,29.623 112.541,26.384 114.191,23.709C114.574,23.089 114.994,22.498 115.447,21.94ZM167.937,21.798C167.836,21.679 167.686,21.613 167.53,21.621C167.375,21.629 167.231,21.708 167.143,21.837C166.336,23.008 165.639,24.301 165.182,25.614C164.727,26.922 164.474,28.337 164.564,29.723C164.632,30.77 164.754,31.884 165.211,32.839C165.968,34.425 167.782,34.313 169.052,33.384C170.726,32.161 171.619,30.18 171.307,28.106C171.082,26.612 170.322,25.226 169.526,23.962C169.053,23.21 168.518,22.486 167.937,21.798ZM141.267,22.134C141.186,21.977 141.029,21.873 140.852,21.862C140.675,21.851 140.506,21.934 140.407,22.081C140.299,22.24 140.195,22.399 140.094,22.558C138.483,25.092 137.055,27.677 137.789,30.758C137.905,31.246 138.066,31.813 138.353,32.249C138.588,32.606 138.903,32.881 139.322,33.012C139.73,33.14 140.092,33.053 140.422,32.842C140.661,32.689 140.882,32.46 141.089,32.233C141.8,31.454 142.305,30.391 142.487,29.565C143.007,27.201 142.453,24.47 141.267,22.134ZM167.597,22.963C167.986,23.457 168.349,23.969 168.68,24.495C169.404,25.644 170.113,26.897 170.318,28.255C170.573,29.955 169.834,31.574 168.462,32.577C167.691,33.14 166.573,33.37 166.113,32.408C165.711,31.566 165.622,30.581 165.562,29.659C165.48,28.405 165.715,27.125 166.127,25.943C166.484,24.918 166.998,23.907 167.597,22.963ZM140.75,23.392C141.571,25.323 141.926,27.464 141.51,29.35C141.36,30.034 140.939,30.914 140.351,31.559C140.227,31.694 140.101,31.834 139.963,31.942C139.86,32.024 139.754,32.1 139.621,32.058C139.37,31.98 139.216,31.773 139.097,31.542C138.933,31.225 138.84,30.852 138.762,30.526C138.123,27.846 139.358,25.6 140.75,23.392ZM190.864,26.921C190.827,26.697 190.644,26.526 190.417,26.505C190.191,26.484 189.979,26.618 189.901,26.831C189.639,27.55 189.425,28.284 189.258,29.023C189.208,29.247 189.242,29.717 189.303,30.116C189.33,30.29 189.447,30.437 189.611,30.503C189.774,30.569 189.961,30.544 190.101,30.437C190.908,29.821 191.051,28.757 190.959,27.67C190.938,27.422 190.906,27.172 190.864,26.921Z" style="fill:#282828;"/>
            <g transform="matrix(1.22597,0.19714,-0.185723,1.15497,-46.2133,-45.5913)">
                <rect x="213.282" y="14.002" width="9.229" height="30.998" style="fill:#9c8e88;"/>
            </g>
            <path d="M219.586,41.755L207.98,41.755L206.906,48.429L218.22,50.248L219.586,41.755Z" style="fill:#745e54;"/>
            <path d="M212.009,16.7L212.663,12.627L223.977,14.447L223.239,19.037C221.981,19.716 220.542,20.101 219.014,20.101C216.174,20.101 213.643,18.771 212.009,16.7Z" style="fill:#745e54;"/>
            <g transform="matrix(1,0,0,1,-2.28375,-3.32734)">
                <circle cx="222.051" cy="12.246" r="8.918" style="fill:#be0b00;"/>
            </g>
            <path d="M218.26,17.71C214.054,16.992 210.849,13.327 210.849,8.918C210.849,3.996 214.845,0 219.767,0C220.178,0 220.583,0.028 220.979,0.082C224.019,1.637 226.102,4.801 226.102,8.447C226.102,13.102 222.707,16.971 218.26,17.71Z" style="fill:#ff0e00;"/>
            <g transform="matrix(0.960909,-0.232561,0.275174,1.13698,-129.369,49.2937)">
                <rect x="213.282" y="14.002" width="9.229" height="30.998" style="fill:#9c8e88;"/>
            </g>
            <path d="M95.142,41.755L85.755,41.755L87.958,50.857L96.826,48.711L95.142,41.755Z" style="fill:#745e54;"/>
            <path d="M89.484,18.373C88.781,19.119 87.93,19.748 86.947,20.21C84.881,21.18 82.618,21.232 80.619,20.532L79.428,15.613L88.296,13.467L89.484,18.373Z" style="fill:#745e54;"/>
            <g transform="matrix(0.85019,-0.399245,0.399245,0.85019,-110.909,88.5794)">
                <circle cx="222.051" cy="12.246" r="8.918" style="fill:#be0b00;"/>
            </g>
            <path d="M79.463,2.639C83.593,0.865 88.423,2.678 90.348,6.777C91.731,9.724 91.248,13.071 89.379,15.48C88.907,15.85 88.386,16.173 87.82,16.438C83.769,18.341 78.934,16.596 77.031,12.545C75.377,9.02 76.481,4.904 79.463,2.639Z" style="fill:#ff0e00;"/>
        </g>
        <path d="M300,53.969C300,49.019 295.981,45 291.031,45L8.969,45C4.019,45 0,49.019 0,53.969L0,293.108C0,298.058 4.019,302.077 8.969,302.077L291.031,302.077C295.981,302.077 300,298.058 300,293.108L300,53.969ZM282.222,162.693C282.222,155.443 276.335,149.556 269.085,149.556L30.915,149.556C23.665,149.556 17.778,155.443 17.778,162.693L17.778,255.848C17.778,263.099 23.665,268.985 30.915,268.985L269.085,268.985C276.335,268.985 282.222,263.099 282.222,255.848L282.222,162.693Z" style="fill:#d1a174;"/>
        <path d="M300,292.737L0,292.737L0,284.216L300,284.216L300,292.737ZM274.757,267.699C273.04,268.523 271.116,268.985 269.085,268.985L30.915,268.985C28.884,268.985 26.96,268.523 25.243,267.699L0,267.699L0,276.22L300,276.22L300,267.699L274.757,267.699ZM17.778,250.841L0,250.841L0,259.362L18.254,259.362C17.944,258.243 17.778,257.065 17.778,255.848L17.778,250.841ZM282.222,250.841L282.222,255.848C282.222,257.065 282.056,258.243 281.746,259.362L300,259.362L300,250.841L282.222,250.841ZM17.778,242.675L0,242.675L0,234.154L17.778,234.154L17.778,242.675ZM300,242.675L282.222,242.675L282.222,234.154L300,234.154L300,242.675ZM17.778,226.157L0,226.157L0,217.637L17.778,217.637L17.778,226.157ZM300,226.157L282.222,226.157L282.222,217.637L300,217.637L300,226.157ZM17.778,209.3L0,209.3L0,200.779L17.778,200.779L17.778,209.3ZM300,209.3L282.222,209.3L282.222,200.779L300,200.779L300,209.3ZM17.778,192.941L0,192.941L0,184.421L17.778,184.421L17.778,192.941ZM300,192.941L282.222,192.941L282.222,184.421L300,184.421L300,192.941ZM17.778,176.424L0,176.424L0,167.903L17.778,167.903L17.778,176.424ZM300,176.424L282.222,176.424L282.222,167.903L300,167.903L300,176.424ZM24.837,151.046L0,151.046L0,159.566L18.153,159.566C19.059,155.863 21.536,152.773 24.837,151.046ZM275.163,151.046C278.463,152.773 280.941,155.863 281.847,159.566L300,159.566L300,151.046L275.163,151.046ZM300,142.879L0,142.879L0,134.358L300,134.358L300,142.879ZM300,126.362L0,126.362L0,117.841L300,117.841L300,126.362ZM300,109.504L0,109.504L0,100.983L300,100.983L300,109.504ZM300,91.958L0,91.958L0,83.437L300,83.437L300,91.958ZM300,75.441L0,75.441L0,66.92L300,66.92L300,75.441ZM299.105,50.062L0.895,50.062C0.321,51.244 0,52.569 0,53.969L0,58.583L300,58.583L300,53.969C300,52.569 299.679,51.244 299.105,50.062Z" style="fill:#d9a87b;"/>
        <path d="M182.051,268.269C187.176,273.349 194.011,269.92 200.277,270.509C203.834,270.843 207.013,272.415 210.696,271.987C215.458,271.433 219.633,268.626 224.459,268.348C230.169,268.02 235.659,269.712 241.342,269.798C245.438,269.86 249.644,268.323 253.74,267.943L182.051,268.269ZM69.763,268.451C71.459,270.394 72.247,272.843 74.899,270.564C75.271,270.245 75.612,269.894 75.94,269.531C76.446,268.967 76.901,268.362 77.386,267.782L69.763,268.451ZM18.676,203.074C18.515,206.937 16.471,209.871 15.861,213.543C15.198,217.536 15.972,221.798 15.89,225.832C15.835,228.508 14.896,231.077 14.916,233.762C14.965,240.206 18.514,246.211 18.836,252.656L18.676,203.074ZM18.831,179.373C17.755,178.263 16.367,177.017 15.849,175.506C14.523,171.646 17.852,166.725 18.648,163.015L18.831,179.373ZM281.534,173.776C282.568,174.552 284.636,175.286 283.334,176.694C283.114,176.931 282.816,177.211 282.551,177.423C282.115,177.772 281.631,178.07 281.135,178.327L281.534,173.776ZM280.603,162.968C282.368,164.05 284.095,165.163 285.905,166.171C286.054,166.254 286.61,166.568 286.859,166.715C286.893,166.735 287.457,167.024 287.448,167.091C287.339,167.981 286.013,168.784 285.405,169.238C284.794,169.695 284.154,170.112 283.498,170.502C282.594,171.038 281.638,171.569 280.623,171.864L280.603,162.968ZM83.735,150.982C89.061,150.534 93.874,148.01 99.313,147.966C103.021,147.936 106.754,148.88 110.402,149.443C116.315,150.354 122.156,151.157 128.12,151.643L83.735,150.982ZM166.116,150.892C171.827,150.733 177.262,148.939 182.992,148.812C187.451,148.713 191.918,150.332 196.338,149.955C201.328,149.531 206.073,147.93 211.103,147.839C216.686,147.738 222.025,149.922 227.592,149.735C233.241,149.546 238.735,147.374 244.392,147.54C250.489,147.719 256.115,150.72 262.272,151.081L166.116,150.892ZM45.274,150.318C45.965,149.4 46.67,148.494 47.391,147.6C48.442,146.298 50.047,143.054 52.087,144.548C52.435,144.803 52.719,145.092 53,145.417C53.412,145.893 53.764,146.42 54.105,146.948C54.599,147.715 55.063,148.502 55.526,149.288C55.67,149.533 55.696,150.085 55.972,150.015C57.086,149.732 57.835,148.578 58.556,147.767C58.694,147.612 59.266,146.808 59.501,146.815C60.099,146.831 60.793,147.429 61.231,147.776C61.598,148.067 61.964,148.383 62.276,148.735C62.703,149.216 63.009,149.745 63.36,150.278L45.274,150.318Z" style="fill:#ac8057;"/>
        <path d="M300,53.969C300,49.019 295.981,45 291.031,45L8.969,45C4.019,45 0,49.019 0,53.969L0,293.108C0,298.058 4.019,302.077 8.969,302.077L291.031,302.077C295.981,302.077 300,298.058 300,293.108L300,53.969ZM37.045,49.2L8.969,49.2C6.337,49.2 4.2,51.337 4.2,53.969L4.2,145.415C4.904,146.748 5.643,148.072 5.932,149.619C6.274,151.446 6.108,153.251 5.542,155.013C5.167,156.182 4.406,157.396 4.397,158.651C4.376,161.769 6.329,164.474 6.247,167.593C6.174,170.381 4.913,172.757 4.278,175.409C4.251,175.519 4.226,175.63 4.2,175.74L4.2,187.658C5.243,188.754 7.123,190.461 6.964,191.707C6.827,192.781 5.423,193.229 4.633,193.971C4.489,194.106 4.345,194.241 4.2,194.376L4.2,202.287C5.903,203.944 7.845,204.603 6.559,207.157C6.364,207.543 6.109,207.947 5.862,208.301C5.385,208.988 4.801,209.573 4.28,210.219L4.2,209.964L4.2,271.827C5.092,274.731 6.066,277.625 6.129,280.621C6.211,284.505 4.075,287.888 4.621,291.865C4.837,293.435 5.379,294.828 6.508,295.967C6.851,296.312 7.632,297.055 8.111,297.8C8.39,297.851 8.676,297.877 8.969,297.877L17.499,297.877C17.833,297.213 18.159,296.545 18.47,295.867C18.948,294.825 19.398,293.77 19.851,292.717C20.164,291.99 20.476,291.261 20.816,290.546C20.99,290.18 21.1,289.188 21.387,289.474C23.097,291.175 23.344,294.533 23.864,296.775C23.928,297.048 23.98,297.461 24.056,297.877L25.662,297.877C26.186,297.144 26.635,296.363 27.06,295.567C27.274,295.167 27.349,294.081 27.699,294.368C28.728,295.209 29.169,296.642 29.711,297.877L39.155,297.877C42.385,296.191 45.765,294.666 49.426,295.352C51.471,295.735 53.166,297.085 55.057,297.877L61.819,297.877C63.768,297.395 65.726,296.83 67.737,297.03C68.752,297.132 69.654,297.459 70.513,297.877L88.058,297.877C88.749,296.834 89.466,295.807 90.203,294.798C90.292,294.676 91.462,292.917 91.678,292.991C93.625,293.657 95.513,296.033 96.754,297.877L172.651,297.877C175.447,296.755 178.195,295.496 181.3,295.258C186.966,294.822 192.405,297.695 198.087,296.866C203.272,296.11 207.866,293.179 213.269,293.313C218.183,293.435 222.265,296.298 227.088,296.683C232.288,297.098 237.244,294.993 242.429,296.172C243.935,296.515 245.302,297.168 246.644,297.877L261.973,297.877C263.732,296.834 265.519,295.868 267.559,295.692C269.455,295.528 270.819,296.896 272.327,297.877L291.031,297.877C293.663,297.877 295.8,295.74 295.8,293.108L295.8,261.402C294.503,257.118 292.372,252.846 292.306,248.496C292.231,243.596 294.829,239.272 295.068,234.472C295.319,229.419 293.276,224.526 293.366,219.518C293.43,215.97 295.451,212.884 295.677,209.349C295.877,206.215 294.249,203.099 294.895,199.994C295.052,199.235 295.406,198.58 295.8,197.946L295.8,186.214C295.625,185.462 295.501,184.703 295.477,183.931C295.449,183.021 295.57,182.207 295.8,181.451L295.8,115.214C295.778,115.459 295.748,115.704 295.71,115.95L295.767,112.928C295.643,111.89 295.368,110.872 294.948,109.881C294.421,108.636 293.322,107.246 293.284,105.874C293.249,104.618 294.597,103.675 295.224,102.718C295.776,101.877 295.738,101.032 295.611,100.071C295.48,99.079 295.196,98.056 294.756,97.155C294.329,96.28 293.704,95.493 293.498,94.522C293.173,92.985 293.809,91.472 294.686,90.242C295.004,89.796 295.393,89.399 295.8,89.03L295.8,62.364C295.754,62.349 295.708,62.334 295.662,62.319C295.436,62.245 295.256,62.185 295.032,62.1C294.812,62.016 294.607,61.933 294.397,61.824C293.498,61.358 294.503,61.264 295.099,60.991C295.31,60.894 295.552,60.797 295.8,60.689L295.8,59.137C295.504,59.041 295.209,58.942 294.921,58.821C294.261,58.544 293.648,58.171 293.007,57.854C292.585,57.645 292.152,57.457 291.725,57.258C291.504,57.155 291.301,57.058 291.09,56.936C290.998,56.883 290.907,56.827 290.82,56.766C289.974,56.18 291.125,56.179 291.753,55.928C292.417,55.662 293.081,55.395 293.732,55.099C294.43,54.781 295.103,54.411 295.8,54.092L295.8,53.969C295.8,51.337 293.663,49.2 291.031,49.2L255.546,49.2C253.124,50.212 250.687,51.21 248.097,51.484C242.841,52.041 237.607,49.764 232.353,49.762C225.705,49.76 219.739,52.84 213.128,52.965C211.681,52.992 210.061,52.828 208.7,52.311C206.958,51.649 205.448,50.611 203.548,50.398C198.099,49.788 191.392,52.897 186.397,49.561C186.226,49.446 186.06,49.326 185.9,49.2L119.886,49.2C119.409,50.149 118.945,51.1 118.527,52.083C118.117,53.051 117.927,53.547 117.444,54.617C117.335,54.86 117.214,55.098 117.089,55.333C116.978,55.54 116.863,55.746 116.738,55.946C116.607,56.155 116.275,56.697 116.038,56.842C116.033,56.845 115.573,55.804 115.569,55.795C115.325,55.21 115.092,54.621 114.853,54.034C114.187,52.397 113.493,50.784 112.715,49.2L51.347,49.2C51.089,49.669 50.843,50.152 50.601,50.595C50.405,50.955 50.223,51.281 49.987,51.618C49.764,51.937 49.066,53.09 48.655,52.957C48.404,52.876 48.174,51.941 48.11,51.753C47.823,50.906 47.578,50.049 47.301,49.2L42.606,49.2C42.361,49.813 42.153,50.447 41.908,51.041C41.699,51.549 41.431,52.184 41.193,52.679C40.804,53.487 40.262,54.743 39.433,55.216C39.322,55.279 39.331,54.981 39.281,54.864C39.205,54.686 39.127,54.502 39.052,54.325C38.799,53.721 38.554,53.113 38.319,52.501C37.898,51.398 37.488,50.292 37.045,49.2ZM295.8,113.239L295.8,111.19L295.767,112.928C295.78,113.032 295.791,113.135 295.8,113.239Z" style="fill:#b68d66;"/>
        <g transform="matrix(1.01194,0,0,1,-3.66671,0)">
            <path d="M197.125,122.793C197.125,117.455 192.843,113.122 187.568,113.122L118.763,113.122C113.488,113.122 109.206,117.455 109.206,122.793C109.206,128.131 113.488,132.465 118.763,132.465L187.568,132.465C192.843,132.465 197.125,128.131 197.125,122.793Z" style="fill:#bbe5ff;"/>
        </g>
        <path d="M160.771,121.793L152.037,121.793L152.037,112.122L150.037,112.122L150.037,121.793L141.419,121.793L141.419,112.122L139.419,112.122L139.419,121.793L129.986,121.793L129.986,112.122L127.986,112.122L127.986,121.793L118.552,121.793L118.552,112.122L116.552,112.122L116.552,121.793L105.843,121.793L105.843,123.793L116.552,123.793L116.552,133.465L118.552,133.465L118.552,123.793L127.986,123.793L127.986,133.465L129.986,133.465L129.986,123.793L139.419,123.793L139.419,133.465L141.419,133.465L141.419,123.793L150.037,123.793L150.037,133.465L152.037,133.465L152.037,123.793L160.771,123.793L160.771,133.465L162.771,133.465L162.771,123.793L172.087,123.793L172.087,133.465L174.087,133.465L174.087,123.793L184.104,123.793L184.104,133.465L186.104,133.465L186.104,123.793L196.813,123.793L196.813,121.793L186.104,121.793L186.104,112.122L184.104,112.122L184.104,121.793L174.087,121.793L174.087,112.122L172.087,112.122L172.087,121.793L162.771,121.793L162.771,112.122L160.771,112.122L160.771,121.793Z" style="fill:#6eaace;"/>
        <g transform="matrix(1.01194,0,0,1,-3.66671,0)">
            <path d="M198.114,122.793C198.114,116.903 193.388,112.122 187.568,112.122L118.763,112.122C112.943,112.122 108.218,116.903 108.218,122.793C108.218,128.683 112.943,133.465 118.763,133.465C118.763,133.465 187.568,133.465 187.568,133.465C193.388,133.465 198.114,128.683 198.114,122.793ZM196.137,122.793C196.137,127.579 192.298,131.465 187.568,131.465L118.763,131.465C114.034,131.465 110.194,127.579 110.194,122.793C110.194,118.007 114.034,114.122 118.763,114.122C118.763,114.122 187.568,114.122 187.568,114.122C192.298,114.122 196.137,118.007 196.137,122.793Z" style="fill:#ac8057;"/>
        </g>
        <g>
            <path d="M272.341,90.915L269.873,91.711L275.389,93.89L269.606,96.184L275.389,99.74L269.223,101.536L274.592,105.864L244.041,103.115L244.041,88.368L272.341,90.915ZM196.211,63.414L197.125,67.042L191.89,67.281L193.802,70.946L188.532,71.517L188.504,71.564L189.74,74.389L186.197,75.452L207.195,88.368L215.106,75.037L196.211,63.414Z" style="fill:#ffcc76;"/>
            <g transform="matrix(1,0,0,1,1.89,-0.882001)">
                <circle cx="226.042" cy="91.236" r="29.807" style="fill:#8ac4e6;"/>
            </g>
            <path d="M225.276,85.959L225.276,79.643L211.98,79.643L211.98,105.358L231.593,105.358L231.593,85.959L225.276,85.959Z" style="fill:#126599;"/>
            <path d="M243.278,64.801C244.29,65.411 245.264,66.079 246.193,66.801L246.105,66.801L246.105,71.417L250.736,71.417L250.736,71.166C251.45,72.014 252.118,72.902 252.736,73.827L252.736,106.88C252.118,107.805 251.45,108.693 250.736,109.541L250.736,106.491L246.105,106.491C246.105,106.491 246.105,111.122 246.105,111.122L249.305,111.122C248.624,111.822 247.908,112.49 247.161,113.122L208.703,113.122C207.956,112.49 207.24,111.822 206.56,111.122L210.81,111.122L210.81,106.491L206.18,106.491L206.18,110.724C205.474,109.97 204.806,109.179 204.18,108.355L204.18,72.352C204.805,71.528 205.473,70.738 206.18,69.984L206.18,71.417L210.81,71.417L210.81,66.801L209.671,66.801C210.601,66.079 211.574,65.411 212.587,64.801L243.278,64.801ZM230.752,106.491L230.752,111.122C230.752,111.122 226.122,111.122 226.122,111.122C226.122,111.122 226.122,106.491 226.122,106.491L230.752,106.491ZM217.433,106.491L217.433,111.122L212.827,111.122C212.827,111.122 212.827,106.491 212.827,106.491L217.433,106.491ZM237.4,106.491L237.4,111.122C237.4,111.122 232.769,111.122 232.769,111.122C232.769,111.122 232.769,106.491 232.769,106.491L237.4,106.491ZM244.047,106.491L244.047,111.122C244.047,111.122 239.417,111.122 239.417,111.122C239.417,111.122 239.417,106.491 239.417,106.491L244.047,106.491ZM219.458,106.491L224.064,106.491L224.064,111.122L219.458,111.122L219.458,106.491ZM206.18,99.853L210.81,99.853L210.81,104.433C210.81,104.433 206.18,104.433 206.18,104.433L206.18,99.853ZM212.827,99.853L217.433,99.853L217.433,104.433L212.827,104.433L212.827,99.853ZM226.122,99.853L230.752,99.853L230.752,104.433C230.752,104.433 226.122,104.433 226.122,104.433L226.122,99.853ZM239.417,99.853L244.047,99.853L244.047,104.433C244.047,104.433 239.417,104.433 239.417,104.433L239.417,99.853ZM232.769,99.853L237.4,99.853L237.4,104.433C237.4,104.433 232.769,104.433 232.769,104.433L232.769,99.853ZM246.105,99.853L250.736,99.853L250.736,104.433C250.736,104.433 246.105,104.433 246.105,104.433L246.105,99.853ZM219.458,99.853L224.064,99.853L224.064,104.433L219.458,104.433L219.458,99.853ZM206.18,97.803L210.81,97.803L210.81,93.337L206.18,93.337L206.18,97.803ZM212.827,97.803L217.433,97.803L217.433,93.337L212.827,93.337L212.827,97.803ZM219.458,97.803L224.064,97.803L224.064,93.337L219.458,93.337L219.458,97.803ZM226.122,97.803L230.752,97.803L230.752,93.337L226.122,93.337L226.122,97.803ZM232.769,97.803L237.4,97.803L237.4,93.337L232.769,93.337L232.769,97.803ZM239.417,97.803L244.047,97.803L244.047,93.337L239.417,93.337L239.417,97.803ZM246.105,97.803L250.736,97.803L250.736,93.337L246.105,93.337L246.105,97.803ZM219.458,91.222L224.064,91.222L224.064,86.757L219.458,86.757L219.458,91.222ZM226.122,91.222L230.752,91.222L230.752,86.757L226.122,86.757L226.122,91.222ZM232.769,91.222L237.4,91.222L237.4,86.757L232.769,86.757L232.769,91.222ZM239.417,91.222L244.047,91.222L244.047,86.757L239.417,86.757L239.417,91.222ZM246.105,91.222L250.736,91.222L250.736,86.757L246.105,86.757L246.105,91.222ZM206.18,91.222L210.81,91.222L210.81,86.757L206.18,86.757L206.18,91.222ZM212.827,91.222L217.433,91.222L217.433,86.757L212.827,86.757L212.827,91.222ZM224.064,84.707L219.458,84.707L219.458,80.127L224.064,80.127L224.064,84.707ZM230.752,84.707L226.122,84.707L226.122,80.127L230.752,80.127L230.752,84.707ZM237.4,84.707L232.769,84.707L232.769,80.127L237.4,80.127L237.4,84.707ZM244.047,84.707L239.417,84.707L239.417,80.127L244.047,80.127L244.047,84.707ZM250.736,84.707L246.105,84.707L246.105,80.127L250.736,80.127L250.736,84.707ZM210.81,84.707L206.18,84.707L206.18,80.127L210.81,80.127L210.81,84.707ZM217.433,84.707L212.827,84.707L212.827,80.127L217.433,80.127L217.433,84.707ZM206.18,73.431L210.81,73.431L210.81,78.048C210.81,78.048 206.18,78.048 206.18,78.048L206.18,73.431ZM212.827,73.431L217.433,73.431L217.433,78.048L212.827,78.048L212.827,73.431ZM226.122,73.431L230.752,73.431L230.752,78.048C230.752,78.048 226.122,78.048 226.122,78.048L226.122,73.431ZM246.105,73.431L250.736,73.431L250.736,78.048C250.736,78.048 246.105,78.048 246.105,78.048L246.105,73.431ZM239.417,73.431L244.047,73.431L244.047,78.048C244.047,78.048 239.417,78.048 239.417,78.048L239.417,73.431ZM232.769,73.431L237.4,73.431L237.4,78.048C237.4,78.048 232.769,78.048 232.769,78.048L232.769,73.431ZM219.458,73.431L224.064,73.431L224.064,78.048L219.458,78.048L219.458,73.431ZM237.4,71.417L232.769,71.417L232.769,66.801L237.4,66.801L237.4,71.417ZM244.047,71.417L239.417,71.417L239.417,66.801L244.047,66.801L244.047,71.417ZM230.752,71.417L226.122,71.417L226.122,66.801L230.752,66.801L230.752,71.417ZM224.064,71.417L219.458,71.417L219.458,66.801L224.064,66.801L224.064,71.417ZM217.433,71.417L212.827,71.417L212.827,66.801L217.433,66.801L217.433,71.417Z" style="fill:#528fb5;fill-opacity:0.5;"/>
            <path d="M243.287,69.089L249.047,71.482L232.889,119.592L227.129,117.198L243.287,69.089ZM239.286,67.426L227.419,62.495L211.261,110.604L223.128,115.536L239.286,67.426Z" style="fill:#fff;fill-opacity:0.25;"/>
            <g transform="matrix(1,0,0,1,1.89,-0.882001)">
                <path d="M226.042,61.429C242.493,61.429 255.849,74.785 255.849,91.236C255.849,107.686 242.493,121.042 226.042,121.042C209.591,121.042 196.235,107.686 196.235,91.236C196.235,74.785 209.591,61.429 226.042,61.429ZM226.042,69.429C238.078,69.429 247.849,79.2 247.849,91.236C247.849,103.271 238.078,113.042 226.042,113.042C214.007,113.042 204.235,103.271 204.235,91.236C204.235,79.2 214.007,69.429 226.042,69.429Z" style="fill:#ea4545;"/>
            </g>
            <g transform="matrix(1,0,0,1,1.89,-0.882001)">
                <path d="M226.042,60.429C209.039,60.429 195.235,74.233 195.235,91.236C195.235,108.238 209.039,122.042 226.042,122.042C243.045,122.042 256.849,108.238 256.849,91.236C256.849,74.233 243.045,60.429 226.042,60.429ZM226.042,62.429C241.941,62.429 254.849,75.337 254.849,91.236C254.849,107.135 241.941,120.042 226.042,120.042C210.143,120.042 197.235,107.135 197.235,91.236C197.235,75.337 210.143,62.429 226.042,62.429ZM226.042,68.429C213.455,68.429 203.235,78.648 203.235,91.236C203.235,103.823 213.455,114.042 226.042,114.042C238.63,114.042 248.849,103.823 248.849,91.236C248.849,78.648 238.63,68.429 226.042,68.429ZM226.042,70.429C237.526,70.429 246.849,79.752 246.849,91.236C246.849,102.719 237.526,112.042 226.042,112.042C214.559,112.042 205.235,102.719 205.235,91.236C205.235,79.752 214.559,70.429 226.042,70.429Z" style="fill:#b62020;"/>
            </g>
            <path d="M232.401,110.678L228.886,121.146C228.57,121.156 228.252,121.16 227.932,121.16C226.11,121.16 224.324,121.002 222.588,120.698L225.827,111.055C226.519,111.125 227.221,111.16 227.932,111.16C229.466,111.16 230.962,110.994 232.401,110.678ZM208.772,98.473C211.207,104.207 216.142,108.626 222.207,110.361L219.02,119.849C213.406,118.153 208.465,114.896 204.705,110.582L208.772,98.473ZM241.988,62.937C243.872,63.906 245.643,65.063 247.278,66.385L243.761,76.855C242.331,75.179 240.638,73.733 238.749,72.58L241.988,62.937ZM221.628,60.194C223.662,59.77 225.771,59.547 227.932,59.547C231.693,59.547 235.298,60.222 238.632,61.459L235.445,70.947C233.114,70.042 230.58,69.547 227.932,69.547C224.154,69.547 220.61,70.556 217.556,72.318L221.628,60.194Z" style="fill:#fff;fill-opacity:0.1;"/>
            <g transform="matrix(1,0,0,1,1.89,-0.882001)">
                <path d="M226.042,56.648C206.953,56.648 191.454,72.146 191.454,91.236C191.454,110.325 206.953,125.823 226.042,125.823C245.132,125.823 260.63,110.325 260.63,91.236C260.63,72.146 245.132,56.648 226.042,56.648ZM226.042,60.429C209.039,60.429 195.235,74.233 195.235,91.236C195.235,108.238 209.039,122.042 226.042,122.042C243.045,122.042 256.849,108.238 256.849,91.236C256.849,74.233 243.045,60.429 226.042,60.429Z" style="fill-opacity:0.15;"/>
            </g>
            <path d="M248.272,85.952L258.635,87.807C258.704,88.648 258.739,89.497 258.739,90.354C258.739,94.533 257.905,98.519 256.395,102.153L246.194,100.327C247.816,97.365 248.739,93.966 248.739,90.354C248.739,88.843 248.578,87.371 248.272,85.952ZM204.013,70.946L213.606,75.27C209.863,78.826 207.439,83.762 207.154,89.258L197.598,84.952C198.528,79.706 200.787,74.917 204.013,70.946Z" style="fill:#ffcc76;"/>
        </g>
        <g transform="matrix(-0.916112,0,0,0.916112,284.634,7.57954)">
            <g transform="matrix(0.789417,-0.613857,0.613857,0.789417,-6.29289,159.854)">
                <path d="M196.211,63.414L197.125,67.042L191.89,67.281L193.802,70.946L188.532,71.517L188.504,71.564L189.74,74.389L186.197,75.452L207.195,88.368L215.106,75.037L196.211,63.414Z" style="fill:#ffcc76;"/>
            </g>
            <g transform="matrix(0.99996,-0.0089896,0.0089896,0.99996,-5.08042,-1.52002)">
                <path d="M272.341,90.915L269.873,91.711L275.389,93.89L269.606,96.184L275.389,99.74L269.223,101.536L274.592,105.864L244.041,103.115L244.041,88.368L272.341,90.915Z" style="fill:#ffcc76;"/>
            </g>
            <g transform="matrix(1,0,0,1,1.89,-0.882001)">
                <circle cx="226.042" cy="91.236" r="29.807" style="fill:#8ac4e6;"/>
            </g>
            <path d="M225.276,85.959L225.276,79.643L211.98,79.643L211.98,105.358L231.593,105.358L231.593,85.959L225.276,85.959Z" style="fill:#126599;"/>
            <path d="M243.278,64.801C244.29,65.411 245.264,66.079 246.193,66.801L246.105,66.801L246.105,71.417L250.736,71.417L250.736,71.166C251.45,72.014 252.118,72.902 252.736,73.827L252.736,106.88C252.118,107.805 251.45,108.693 250.736,109.541L250.736,106.491L246.105,106.491C246.105,106.491 246.105,111.122 246.105,111.122L249.305,111.122C248.624,111.822 247.908,112.49 247.161,113.122L208.703,113.122C207.956,112.49 207.24,111.822 206.56,111.122L210.81,111.122L210.81,106.491L206.18,106.491L206.18,110.724C205.474,109.97 204.806,109.179 204.18,108.355L204.18,72.352C204.805,71.528 205.473,70.738 206.18,69.984L206.18,71.417L210.81,71.417L210.81,66.801L209.671,66.801C210.601,66.079 211.574,65.411 212.587,64.801L243.278,64.801ZM230.752,106.491L230.752,111.122C230.752,111.122 226.122,111.122 226.122,111.122C226.122,111.122 226.122,106.491 226.122,106.491L230.752,106.491ZM217.433,106.491L217.433,111.122L212.827,111.122C212.827,111.122 212.827,106.491 212.827,106.491L217.433,106.491ZM237.4,106.491L237.4,111.122C237.4,111.122 232.769,111.122 232.769,111.122C232.769,111.122 232.769,106.491 232.769,106.491L237.4,106.491ZM244.047,106.491L244.047,111.122C244.047,111.122 239.417,111.122 239.417,111.122C239.417,111.122 239.417,106.491 239.417,106.491L244.047,106.491ZM219.458,106.491L224.064,106.491L224.064,111.122L219.458,111.122L219.458,106.491ZM206.18,99.853L210.81,99.853L210.81,104.433C210.81,104.433 206.18,104.433 206.18,104.433L206.18,99.853ZM212.827,99.853L217.433,99.853L217.433,104.433L212.827,104.433L212.827,99.853ZM226.122,99.853L230.752,99.853L230.752,104.433C230.752,104.433 226.122,104.433 226.122,104.433L226.122,99.853ZM239.417,99.853L244.047,99.853L244.047,104.433C244.047,104.433 239.417,104.433 239.417,104.433L239.417,99.853ZM232.769,99.853L237.4,99.853L237.4,104.433C237.4,104.433 232.769,104.433 232.769,104.433L232.769,99.853ZM246.105,99.853L250.736,99.853L250.736,104.433C250.736,104.433 246.105,104.433 246.105,104.433L246.105,99.853ZM219.458,99.853L224.064,99.853L224.064,104.433L219.458,104.433L219.458,99.853ZM206.18,97.803L210.81,97.803L210.81,93.337L206.18,93.337L206.18,97.803ZM212.827,97.803L217.433,97.803L217.433,93.337L212.827,93.337L212.827,97.803ZM219.458,97.803L224.064,97.803L224.064,93.337L219.458,93.337L219.458,97.803ZM226.122,97.803L230.752,97.803L230.752,93.337L226.122,93.337L226.122,97.803ZM232.769,97.803L237.4,97.803L237.4,93.337L232.769,93.337L232.769,97.803ZM239.417,97.803L244.047,97.803L244.047,93.337L239.417,93.337L239.417,97.803ZM246.105,97.803L250.736,97.803L250.736,93.337L246.105,93.337L246.105,97.803ZM219.458,91.222L224.064,91.222L224.064,86.757L219.458,86.757L219.458,91.222ZM226.122,91.222L230.752,91.222L230.752,86.757L226.122,86.757L226.122,91.222ZM232.769,91.222L237.4,91.222L237.4,86.757L232.769,86.757L232.769,91.222ZM239.417,91.222L244.047,91.222L244.047,86.757L239.417,86.757L239.417,91.222ZM246.105,91.222L250.736,91.222L250.736,86.757L246.105,86.757L246.105,91.222ZM206.18,91.222L210.81,91.222L210.81,86.757L206.18,86.757L206.18,91.222ZM212.827,91.222L217.433,91.222L217.433,86.757L212.827,86.757L212.827,91.222ZM224.064,84.707L219.458,84.707L219.458,80.127L224.064,80.127L224.064,84.707ZM230.752,84.707L226.122,84.707L226.122,80.127L230.752,80.127L230.752,84.707ZM237.4,84.707L232.769,84.707L232.769,80.127L237.4,80.127L237.4,84.707ZM244.047,84.707L239.417,84.707L239.417,80.127L244.047,80.127L244.047,84.707ZM250.736,84.707L246.105,84.707L246.105,80.127L250.736,80.127L250.736,84.707ZM210.81,84.707L206.18,84.707L206.18,80.127L210.81,80.127L210.81,84.707ZM217.433,84.707L212.827,84.707L212.827,80.127L217.433,80.127L217.433,84.707ZM206.18,73.431L210.81,73.431L210.81,78.048C210.81,78.048 206.18,78.048 206.18,78.048L206.18,73.431ZM212.827,73.431L217.433,73.431L217.433,78.048L212.827,78.048L212.827,73.431ZM226.122,73.431L230.752,73.431L230.752,78.048C230.752,78.048 226.122,78.048 226.122,78.048L226.122,73.431ZM246.105,73.431L250.736,73.431L250.736,78.048C250.736,78.048 246.105,78.048 246.105,78.048L246.105,73.431ZM239.417,73.431L244.047,73.431L244.047,78.048C244.047,78.048 239.417,78.048 239.417,78.048L239.417,73.431ZM232.769,73.431L237.4,73.431L237.4,78.048C237.4,78.048 232.769,78.048 232.769,78.048L232.769,73.431ZM219.458,73.431L224.064,73.431L224.064,78.048L219.458,78.048L219.458,73.431ZM237.4,71.417L232.769,71.417L232.769,66.801L237.4,66.801L237.4,71.417ZM244.047,71.417L239.417,71.417L239.417,66.801L244.047,66.801L244.047,71.417ZM230.752,71.417L226.122,71.417L226.122,66.801L230.752,66.801L230.752,71.417ZM224.064,71.417L219.458,71.417L219.458,66.801L224.064,66.801L224.064,71.417ZM217.433,71.417L212.827,71.417L212.827,66.801L217.433,66.801L217.433,71.417Z" style="fill:#528fb5;fill-opacity:0.5;"/>
            <path d="M243.287,69.089L249.047,71.482L232.889,119.592L227.129,117.198L243.287,69.089ZM239.286,67.426L227.419,62.495L211.261,110.604L223.128,115.536L239.286,67.426Z" style="fill:#fff;fill-opacity:0.25;"/>
            <g transform="matrix(1,0,0,1,1.89,-0.882001)">
                <path d="M226.042,61.429C242.493,61.429 255.849,74.785 255.849,91.236C255.849,107.686 242.493,121.042 226.042,121.042C209.591,121.042 196.235,107.686 196.235,91.236C196.235,74.785 209.591,61.429 226.042,61.429ZM226.042,69.429C238.078,69.429 247.849,79.2 247.849,91.236C247.849,103.271 238.078,113.042 226.042,113.042C214.007,113.042 204.235,103.271 204.235,91.236C204.235,79.2 214.007,69.429 226.042,69.429Z" style="fill:#ea4545;"/>
            </g>
            <g transform="matrix(1,0,0,1,1.89,-0.882001)">
                <path d="M226.042,60.429C209.039,60.429 195.235,74.233 195.235,91.236C195.235,108.238 209.039,122.042 226.042,122.042C243.045,122.042 256.849,108.238 256.849,91.236C256.849,74.233 243.045,60.429 226.042,60.429ZM226.042,62.429C241.941,62.429 254.849,75.337 254.849,91.236C254.849,107.135 241.941,120.042 226.042,120.042C210.143,120.042 197.235,107.135 197.235,91.236C197.235,75.337 210.143,62.429 226.042,62.429ZM226.042,68.429C213.455,68.429 203.235,78.648 203.235,91.236C203.235,103.823 213.455,114.042 226.042,114.042C238.63,114.042 248.849,103.823 248.849,91.236C248.849,78.648 238.63,68.429 226.042,68.429ZM226.042,70.429C237.526,70.429 246.849,79.752 246.849,91.236C246.849,102.719 237.526,112.042 226.042,112.042C214.559,112.042 205.235,102.719 205.235,91.236C205.235,79.752 214.559,70.429 226.042,70.429Z" style="fill:#b62020;"/>
            </g>
            <g transform="matrix(-1.09157,0,0,1.09157,310.698,-8.27359)">
                <path d="M94.501,86.536L103.888,87.365C103.992,88.347 104.045,89.344 104.045,90.354C104.045,93.981 103.359,97.45 102.111,100.635L92.392,99.776C93.978,96.997 94.884,93.78 94.884,90.354C94.884,89.046 94.752,87.769 94.501,86.536ZM57.756,84.264C57.111,86.176 56.761,88.224 56.761,90.354C56.761,93.15 57.365,95.806 58.449,98.201L48.902,98.846C48.057,96.167 47.6,93.313 47.6,90.354C47.6,88.494 47.78,86.676 48.125,84.915L57.756,84.264Z" style="fill:#ffcc75;"/>
            </g>
            <path d="M232.401,110.678L228.886,121.146C228.57,121.156 228.252,121.16 227.932,121.16C226.11,121.16 224.324,121.002 222.588,120.698L225.827,111.055C226.519,111.125 227.221,111.16 227.932,111.16C229.466,111.16 230.962,110.994 232.401,110.678ZM208.772,98.473C211.207,104.207 216.142,108.626 222.207,110.361L219.02,119.849C213.406,118.153 208.465,114.896 204.705,110.582L208.772,98.473ZM241.988,62.937C243.872,63.906 245.643,65.063 247.278,66.385L243.761,76.855C242.331,75.179 240.638,73.733 238.749,72.58L241.988,62.937ZM221.628,60.194C223.662,59.77 225.771,59.547 227.932,59.547C231.693,59.547 235.298,60.222 238.632,61.459L235.445,70.947C233.114,70.042 230.58,69.547 227.932,69.547C224.154,69.547 220.61,70.556 217.556,72.318L221.628,60.194Z" style="fill:#fff;fill-opacity:0.1;"/>
            <g transform="matrix(1,0,0,1,1.89,-0.882001)">
                <path d="M226.042,56.648C206.953,56.648 191.454,72.146 191.454,91.236C191.454,110.325 206.953,125.823 226.042,125.823C245.132,125.823 260.63,110.325 260.63,91.236C260.63,72.146 245.132,56.648 226.042,56.648ZM226.042,60.429C209.039,60.429 195.235,74.233 195.235,91.236C195.235,108.238 209.039,122.042 226.042,122.042C243.045,122.042 256.849,108.238 256.849,91.236C256.849,74.233 243.045,60.429 226.042,60.429Z" style="fill-opacity:0.15;"/>
            </g>
        </g>
        <g opacity="0.5">
            <g transform="matrix(1,0,0,1,-3.01346,0.56559)">
                <path d="M240.191,290.607C239.57,290.607 239.096,290.373 238.768,289.903C238.441,289.434 238.277,288.765 238.277,287.896C238.277,287.311 238.35,286.818 238.496,286.418C238.643,286.018 238.859,285.717 239.144,285.513C239.43,285.31 239.779,285.208 240.191,285.208C240.816,285.208 241.292,285.436 241.617,285.893C241.942,286.35 242.105,287.015 242.105,287.889C242.105,288.47 242.031,288.963 241.885,289.367C241.738,289.772 241.524,290.08 241.241,290.291C240.958,290.502 240.608,290.607 240.191,290.607ZM240.191,289.825C240.528,289.825 240.778,289.669 240.939,289.356C241.1,289.043 241.181,288.554 241.181,287.889C241.181,287.224 241.1,286.741 240.939,286.44C240.778,286.14 240.528,285.99 240.191,285.99C239.858,285.99 239.61,286.14 239.446,286.44C239.282,286.741 239.2,287.224 239.2,287.889C239.2,288.554 239.282,289.043 239.446,289.356C239.61,289.669 239.858,289.825 240.191,289.825Z" style="fill-rule:nonzero;"/>
                <path d="M244.659,290.607C244.038,290.607 243.564,290.373 243.237,289.903C242.909,289.434 242.745,288.765 242.745,287.896C242.745,287.311 242.818,286.818 242.965,286.418C243.111,286.018 243.327,285.717 243.613,285.513C243.898,285.31 244.247,285.208 244.659,285.208C245.285,285.208 245.76,285.436 246.085,285.893C246.41,286.35 246.573,287.015 246.573,287.889C246.573,288.47 246.5,288.963 246.353,289.367C246.207,289.772 245.992,290.08 245.709,290.291C245.426,290.502 245.076,290.607 244.659,290.607ZM244.659,289.825C244.997,289.825 245.246,289.669 245.407,289.356C245.569,289.043 245.649,288.554 245.649,287.889C245.649,287.224 245.569,286.741 245.407,286.44C245.246,286.14 244.997,285.99 244.659,285.99C244.326,285.99 244.078,286.14 243.914,286.44C243.75,286.741 243.669,287.224 243.669,287.889C243.669,288.554 243.75,289.043 243.914,289.356C244.078,289.669 244.326,289.825 244.659,289.825Z" style="fill-rule:nonzero;"/>
                <path d="M248.055,290.533C247.926,290.533 247.825,290.497 247.753,290.425C247.681,290.353 247.645,290.255 247.645,290.131C247.645,290.001 247.681,289.905 247.753,289.84C247.825,289.776 247.926,289.743 248.055,289.743L248.889,289.743L248.889,286.087L249.351,286.087L248.256,286.75C248.162,286.804 248.074,286.825 247.992,286.813C247.91,286.8 247.84,286.766 247.783,286.709C247.726,286.651 247.688,286.583 247.668,286.504C247.648,286.424 247.654,286.344 247.686,286.262C247.719,286.18 247.782,286.112 247.876,286.057L248.904,285.439C249.003,285.379 249.102,285.328 249.202,285.286C249.301,285.244 249.393,285.223 249.477,285.223C249.582,285.223 249.668,285.251 249.738,285.308C249.807,285.366 249.842,285.459 249.842,285.588L249.842,289.743L250.602,289.743C250.731,289.743 250.831,289.776 250.903,289.84C250.975,289.905 251.011,290.001 251.011,290.131C251.011,290.26 250.975,290.359 250.903,290.428C250.831,290.498 250.731,290.533 250.602,290.533L248.055,290.533Z" style="fill-rule:nonzero;"/>
                <path d="M253.596,290.607C252.975,290.607 252.501,290.373 252.173,289.903C251.846,289.434 251.682,288.765 251.682,287.896C251.682,287.311 251.755,286.818 251.901,286.418C252.048,286.018 252.264,285.717 252.549,285.513C252.835,285.31 253.184,285.208 253.596,285.208C254.221,285.208 254.697,285.436 255.022,285.893C255.347,286.35 255.51,287.015 255.51,287.889C255.51,288.47 255.436,288.963 255.29,289.367C255.143,289.772 254.929,290.08 254.646,290.291C254.363,290.502 254.013,290.607 253.596,290.607ZM253.596,289.825C253.933,289.825 254.183,289.669 254.344,289.356C254.505,289.043 254.586,288.554 254.586,287.889C254.586,287.224 254.505,286.741 254.344,286.44C254.183,286.14 253.933,285.99 253.596,285.99C253.263,285.99 253.015,286.14 252.851,286.44C252.687,286.741 252.605,287.224 252.605,287.889C252.605,288.554 252.687,289.043 252.851,289.356C253.015,289.669 253.263,289.825 253.596,289.825Z" style="fill-rule:nonzero;"/>
                <path d="M256.82,290.533C256.661,290.533 256.546,290.497 256.474,290.425C256.402,290.353 256.366,290.247 256.366,290.108C256.366,290.024 256.388,289.942 256.433,289.862C256.478,289.783 256.542,289.699 256.627,289.609L258.124,288.016C258.352,287.777 258.516,287.56 258.615,287.364C258.714,287.168 258.764,286.97 258.764,286.772C258.764,286.524 258.686,286.335 258.529,286.206C258.373,286.077 258.146,286.012 257.848,286.012C257.679,286.012 257.51,286.036 257.342,286.083C257.173,286.13 257.001,286.211 256.828,286.325C256.738,286.385 256.655,286.409 256.578,286.4C256.501,286.39 256.434,286.357 256.377,286.303C256.32,286.248 256.282,286.181 256.262,286.102C256.242,286.022 256.246,285.942 256.273,285.86C256.3,285.778 256.359,285.707 256.448,285.647C256.661,285.503 256.901,285.394 257.167,285.32C257.432,285.245 257.699,285.208 257.967,285.208C258.344,285.208 258.662,285.265 258.92,285.379C259.179,285.493 259.375,285.66 259.509,285.878C259.643,286.097 259.71,286.362 259.71,286.675C259.71,286.884 259.676,287.087 259.609,287.286C259.542,287.484 259.44,287.685 259.304,287.889C259.167,288.093 258.99,288.308 258.771,288.537L257.371,289.997L257.371,289.743L259.561,289.743C259.695,289.743 259.797,289.776 259.866,289.84C259.936,289.905 259.97,290.001 259.97,290.131C259.97,290.26 259.936,290.359 259.866,290.428C259.797,290.498 259.695,290.533 259.561,290.533L256.82,290.533Z" style="fill-rule:nonzero;"/>
                <path d="M262.532,290.607C261.912,290.607 261.438,290.373 261.11,289.903C260.782,289.434 260.618,288.765 260.618,287.896C260.618,287.311 260.692,286.818 260.838,286.418C260.984,286.018 261.2,285.717 261.486,285.513C261.771,285.31 262.12,285.208 262.532,285.208C263.158,285.208 263.633,285.436 263.958,285.893C264.284,286.35 264.446,287.015 264.446,287.889C264.446,288.47 264.373,288.963 264.226,289.367C264.08,289.772 263.865,290.08 263.582,290.291C263.299,290.502 262.949,290.607 262.532,290.607ZM262.532,289.825C262.87,289.825 263.119,289.669 263.281,289.356C263.442,289.043 263.523,288.554 263.523,287.889C263.523,287.224 263.442,286.741 263.281,286.44C263.119,286.14 262.87,285.99 262.532,285.99C262.2,285.99 261.951,286.14 261.788,286.44C261.624,286.741 261.542,287.224 261.542,287.889C261.542,288.554 261.624,289.043 261.788,289.356C261.951,289.669 262.2,289.825 262.532,289.825Z" style="fill-rule:nonzero;"/>
            </g>
            <path d="M231.665,268.985L226.881,268.985L226.881,282.846C226.881,283.506 227.417,284.042 228.077,284.042L230.469,284.042C231.13,284.042 231.665,283.506 231.665,282.846L231.665,268.985ZM247.483,268.985L245.794,268.985L245.794,283.62C245.794,283.853 245.984,284.042 246.217,284.042L247.061,284.042C247.294,284.042 247.483,283.853 247.483,283.62L247.483,268.985ZM250.287,268.985L248.599,268.985L248.599,283.62C248.599,283.853 248.788,284.042 249.021,284.042L249.865,284.042C250.098,284.042 250.287,283.853 250.287,283.62L250.287,268.985ZM256.672,268.985L254.68,268.985L254.68,283.544C254.68,283.819 254.903,284.042 255.178,284.042L256.174,284.042C256.449,284.042 256.672,283.819 256.672,283.544L256.672,268.985ZM235.361,268.985L233.322,268.985L233.322,283.532C233.322,283.813 233.55,284.042 233.831,284.042L234.851,284.042C235.132,284.042 235.361,283.813 235.361,283.532L235.361,268.985ZM239.584,268.985L237.545,268.985L237.545,283.532C237.545,283.813 237.773,284.042 238.054,284.042L239.074,284.042C239.355,284.042 239.584,283.813 239.584,283.532L239.584,268.985ZM253.801,268.985L251.2,268.985L251.2,283.392C251.2,283.75 251.491,284.042 251.85,284.042L253.15,284.042C253.509,284.042 253.801,283.75 253.801,283.392L253.801,268.985ZM269.815,268.965C269.573,268.979 269.33,268.985 269.085,268.985L266.876,268.985L266.876,283.307C266.876,283.713 267.205,284.042 267.611,284.042L269.08,284.042C269.485,284.042 269.815,283.713 269.815,283.307L269.815,268.965ZM244.915,268.985L241.504,268.985L241.504,283.189C241.504,283.66 241.886,284.042 242.357,284.042L244.062,284.042C244.533,284.042 244.915,283.66 244.915,283.189L244.915,268.985ZM265.896,268.985L257.889,268.985L257.889,283.241C257.889,283.683 258.248,284.042 258.69,284.042L265.095,284.042C265.537,284.042 265.896,283.683 265.896,283.241L265.896,268.985Z"/>
        </g>
        <g transform="matrix(1,0,0,1,-0.530426,0)">
            <g opacity="0.5">
                <g transform="matrix(1.03942,0,0,1.13488,-1.3502,-16.4703)">
                    <path d="M34.252,114.224C34.252,113.263 33.4,112.483 32.351,112.483L11.915,112.483C10.866,112.483 10.014,113.263 10.014,114.224L10.014,134.133C10.014,135.094 10.866,135.874 11.915,135.874L32.351,135.874C33.4,135.874 34.252,135.094 34.252,134.133L34.252,114.224Z"/>
                </g>
                <g transform="matrix(0.852991,0,0,1.07627,4.78015,-6.64802)">
                    <path d="M34.551,60.207C34.551,59.184 33.503,58.354 32.213,58.354C30.923,58.354 29.875,59.184 29.875,60.207L29.875,101.955C29.875,102.977 30.923,103.807 32.213,103.807C33.503,103.807 34.551,102.977 34.551,101.955L34.551,60.207Z"/>
                </g>
                <path d="M22.018,100.635L26.762,100.635C27.541,100.635 28.173,100.003 28.173,99.224L28.173,92.684C28.173,91.906 27.541,91.273 26.762,91.273L22.018,91.273L22.018,88.492C22.018,87.859 21.658,87.28 21.089,87.001C20.52,86.722 19.842,86.791 19.341,87.179L9.702,94.641C9.296,94.956 9.058,95.441 9.058,95.954C9.058,96.468 9.296,96.953 9.702,97.267L19.341,104.73C19.842,105.118 20.52,105.187 21.089,104.908C21.658,104.629 22.018,104.05 22.018,103.417L22.018,100.635Z"/>
                <g transform="matrix(6.12323e-17,-1,1,6.12323e-17,-48.8202,92.267)">
                    <path d="M14.96,76.993C13.824,76.993 12.824,76.846 11.96,76.55C11.097,76.254 10.369,75.815 9.778,75.231C9.186,74.647 8.743,73.92 8.447,73.048C8.151,72.177 8.003,71.165 8.003,70.013L8.003,61.633C8.003,61.119 8.132,60.738 8.389,60.489C8.645,60.24 9.015,60.115 9.497,60.115C9.98,60.115 10.35,60.24 10.606,60.489C10.863,60.738 10.992,61.119 10.992,61.633L10.992,69.99C10.992,71.469 11.33,72.577 12.007,73.317C12.684,74.056 13.668,74.426 14.96,74.426C16.252,74.426 17.232,74.056 17.902,73.317C18.571,72.577 18.905,71.469 18.905,69.99L18.905,61.633C18.905,61.119 19.034,60.738 19.291,60.489C19.547,60.24 19.917,60.115 20.399,60.115C20.866,60.115 21.228,60.24 21.485,60.489C21.742,60.738 21.87,61.119 21.87,61.633L21.87,70.013C21.87,71.539 21.609,72.823 21.088,73.865C20.567,74.908 19.792,75.69 18.765,76.211C17.738,76.733 16.47,76.993 14.96,76.993Z" style="fill-rule:nonzero;"/>
                    <path d="M24.812,76.947C24.329,76.947 23.959,76.811 23.703,76.538C23.446,76.266 23.317,75.888 23.317,75.406L23.317,61.819C23.317,61.321 23.45,60.944 23.714,60.687C23.979,60.43 24.352,60.302 24.835,60.302L30.461,60.302C32.266,60.302 33.659,60.753 34.64,61.656C35.62,62.559 36.11,63.819 36.11,65.438C36.11,67.056 35.62,68.321 34.64,69.231C33.659,70.142 32.266,70.597 30.461,70.597L26.306,70.597L26.306,75.406C26.306,75.888 26.181,76.266 25.932,76.538C25.683,76.811 25.31,76.947 24.812,76.947ZM26.306,68.239L29.994,68.239C31.052,68.239 31.854,68.002 32.399,67.527C32.943,67.053 33.216,66.356 33.216,65.438C33.216,64.52 32.943,63.827 32.399,63.36C31.854,62.893 31.052,62.66 29.994,62.66L26.306,62.66L26.306,68.239Z" style="fill-rule:nonzero;"/>
                </g>
            </g>
        </g>
        <path d="M175.788,78.705L175.846,78.705L176.523,86.273L168.375,80.044L164.58,86.273L160.326,79.291L156.072,86.273L151.828,79.306L147.584,86.273L143.581,79.704L139.579,86.273L135.361,79.35L131.471,86.273L130.794,78.705L130.802,78.705L127.078,45.072L172.064,45.072L175.788,78.705Z" style="fill:#ffcc76;"/>
        <path d="M148.847,45.072L151.828,79.306L147.584,86.273L143.581,79.704L139.579,86.273L135.361,79.35L131.471,86.273L130.794,78.705L130.802,78.705L127.078,45.072L148.847,45.072Z" style="fill:#f7c269;"/>
        <path d="M173.574,45.072L177.278,78.54L175.962,80.01L175.846,78.705L175.788,78.705L172.064,45.072L127.078,45.072L130.802,78.705L130.794,78.705L131.471,86.273L135.361,79.35L139.579,86.273L143.581,79.704L147.584,86.273L151.828,79.306L156.072,86.273L160.326,79.291L164.58,86.273L168.375,80.044L176.523,86.273L175.968,80.072L177.34,78.572L178.017,86.139C178.07,86.732 177.768,87.3 177.247,87.587C176.726,87.874 176.084,87.826 175.612,87.465C175.612,87.465 168.789,82.248 168.789,82.248L165.861,87.053C165.589,87.5 165.103,87.773 164.58,87.773C164.057,87.773 163.571,87.5 163.299,87.053C163.299,87.053 160.326,82.174 160.326,82.174L157.353,87.053C157.081,87.5 156.596,87.773 156.072,87.773C155.549,87.773 155.064,87.5 154.791,87.053C154.791,87.053 151.828,82.189 151.828,82.189L148.865,87.053C148.592,87.5 148.107,87.773 147.584,87.773C147.06,87.773 146.575,87.5 146.303,87.053C146.303,87.053 143.581,82.587 143.581,82.587L140.86,87.053C140.588,87.5 140.103,87.773 139.579,87.773C139.056,87.773 138.571,87.5 138.298,87.053C138.298,87.053 135.414,82.319 135.414,82.319L132.779,87.008C132.457,87.581 131.799,87.878 131.157,87.74C130.514,87.602 130.036,87.061 129.977,86.407L129.3,78.839C129.369,79.613 130.017,80.205 130.794,80.205L130.794,80.205C130.033,80.202 129.395,79.628 129.311,78.87L125.588,45.237C125.581,45.182 125.578,45.127 125.578,45.072L173.574,45.072Z" style="fill:#b28963;"/>
        <path d="M150,49.289L153.008,72.328" style="fill:none;"/>
    </g>
</svg>
