<?xml version="1.0" encoding="UTF-8" standalone="no"?><!DOCTYPE svg PUBLIC "-//W3C//DTD SVG 1.1//EN" "http://www.w3.org/Graphics/SVG/1.1/DTD/svg11.dtd"><svg width="100%" height="100%" viewBox="0 0 1250 1438" version="1.1" xmlns="http://www.w3.org/2000/svg" xmlns:xlink="http://www.w3.org/1999/xlink" xml:space="preserve" xmlns:serif="http://www.serif.com/" style="fill-rule:evenodd;clip-rule:evenodd;stroke-linejoin:round;stroke-miterlimit:2;"><g id="Referee"><g id="HatReferee"><path d="M0,488.947l0,-215.514l0.427,-0.726c5.862,-78.32 71.348,-140.131 151.156,-140.131l946.834,0c79.808,0 145.294,61.811 151.156,140.131l0.427,0.726l0,473.434l-32.039,0l-0,-452.088c-0.001,-66.019 -53.52,-119.538 -119.539,-119.54c-0.002,-0.002 -0.003,-0.002 -0.005,-0.002l-946.834,0c-0.002,0 -0.003,0 -0.005,0c-66.02,0.002 -119.539,53.522 -119.539,119.542c0,75.525 0,194.168 0,194.168l-32.039,0Z" style="fill:#4a4a4a;"/><path d="M0,457.475l0,-215.514l0.427,-0.726c5.862,-78.32 71.348,-140.13 151.156,-140.13l946.834,-0c79.808,-0 145.294,61.81 151.156,140.13l0.427,0.726l0,473.435l-32.039,-0l-0,-452.089c-0.001,-66.019 -53.52,-119.537 -119.539,-119.539c-0.002,-0.002 -0.003,-0.002 -0.005,-0.002l-946.834,-0c-0.002,-0 -0.003,-0 -0.005,-0c-66.02,0.001 -119.539,53.522 -119.539,119.541c0,75.526 0,194.168 0,194.168l-32.039,0Z" style="fill:#555;"/><path d="M0,506.446l0,-87.469l60.537,-0c12.069,-0 21.867,9.798 21.867,21.867l0,43.734c0,12.069 -9.798,21.868 -21.867,21.868l-60.537,-0Z" style="fill:#151515;"/><path d="M0,493.903l0,-87.469l60.537,0c12.069,0 21.867,9.799 21.867,21.868l0,43.734c0,12.069 -9.798,21.867 -21.867,21.867l-60.537,0Z" style="fill:#232323;"/><path d="M1250,718.75l0,56.235l-32.135,-0c-7.76,-0 -14.059,-6.3 -14.059,-14.059l-0,-28.117c-0,-7.76 6.299,-14.059 14.059,-14.059l32.135,-0Z" style="fill:#151515;"/><g><path d="M1245.26,768.3c-0.459,149.959 -47.505,277.285 -153.167,341.029c-3.004,1.813 -6.914,0.845 -8.726,-2.159c-1.812,-3.003 -0.844,-6.913 2.159,-8.726c102.149,-61.624 146.578,-185.172 147.022,-330.144l12.712,-0Z"/><g><path d="M1094.81,1100.16c-4.2,-10.478 -16.117,-15.576 -26.596,-11.376l-20.197,8.096c-10.479,4.199 -15.577,16.117 -11.377,26.595c4.2,10.479 16.117,15.576 26.596,11.377l20.198,-8.096c10.478,-4.2 15.576,-16.117 11.376,-26.596Z" style="fill:#373737;"/><path d="M1084.61,1104.25c-6.926,-17.281 -26.579,-25.687 -43.86,-18.761l-33.308,13.35c-17.281,6.926 -25.687,26.579 -18.761,43.86c6.926,17.28 26.579,25.687 43.859,18.761l33.309,-13.351c17.281,-6.926 25.687,-26.579 18.761,-43.859Z" style="fill:#020202;"/><path d="M1027.04,1090.98c12.293,2.735 23.075,11.289 28.11,23.851l0.844,2.106c5.035,12.562 3.146,26.195 -3.856,36.663l-19.601,7.857c-0.177,0.071 -0.355,0.14 -0.533,0.208c16.347,-6.876 24.233,-25.645 17.61,-42.17l-0.845,-2.107c-6.623,-16.525 -25.289,-24.652 -41.86,-18.334c0.176,-0.074 0.352,-0.147 0.53,-0.218l19.601,-7.856Z" style="fill:#6f6f6f;"/></g></g><path d="M1250,706.663l0,56.235l-32.135,0c-7.76,0 -14.059,-6.299 -14.059,-14.059l-0,-28.117c-0,-7.759 6.299,-14.059 14.059,-14.059l32.135,0Z" style="fill:#232323;"/></g></g></svg>