<?xml version="1.0" encoding="UTF-8" standalone="no"?>
<!DOCTYPE svg PUBLIC "-//W3C//DTD SVG 1.1//EN" "http://www.w3.org/Graphics/SVG/1.1/DTD/svg11.dtd">
<svg width="100%" height="100%" viewBox="0 0 300 345" version="1.1" xmlns="http://www.w3.org/2000/svg" xmlns:xlink="http://www.w3.org/1999/xlink" xml:space="preserve" xmlns:serif="http://www.serif.com/" style="fill-rule:evenodd;clip-rule:evenodd;stroke-linejoin:round;stroke-miterlimit:2;">
    <g id="avatar_hat_46_v2">
        <g>
            <path d="M94.299,51.953C92.434,49.658 90.166,47.768 88.24,45.534C86.345,43.338 84.715,40.833 83.042,38.459C81.939,36.895 80.849,35.257 79.932,33.576C76.825,27.881 75.721,17.905 83.051,14.946C84.388,14.406 85.764,14.146 87.198,14.022C89.034,13.864 90.832,14.401 92.56,14.965C96.47,16.239 99.142,19.301 101.75,22.32C104.113,25.056 106.498,27.73 108.627,30.657C109.174,31.409 109.723,32.16 110.31,32.881C110.728,33.393 111.153,33.9 111.579,34.406C112.582,35.595 113.796,36.34 113.62,38.131C113.414,40.222 96.846,48.799 94.299,51.953Z" style="fill:#ff7000;"/>
            <path d="M103.955,24.867C105.573,26.745 107.161,28.641 108.627,30.657C109.174,31.409 109.723,32.16 110.31,32.881C110.728,33.393 111.153,33.9 111.579,34.406C112.582,35.595 113.796,36.34 113.62,38.131C113.414,40.222 96.846,48.799 94.299,51.953C92.434,49.658 90.166,47.768 88.24,45.534C86.345,43.338 84.715,40.833 83.042,38.459C81.939,36.895 80.849,35.257 79.932,33.576C79.683,33.12 79.447,32.637 79.228,32.134C87.146,29.024 95.382,26.587 103.955,24.867Z" style="fill:#d56605;"/>
            <path d="M88.019,41.133C87.501,40.752 87.032,40.322 86.596,39.861C86.406,39.661 86.089,39.653 85.889,39.842C85.688,40.032 85.68,40.349 85.87,40.549C86.347,41.053 86.861,41.522 87.426,41.938C87.648,42.102 87.962,42.054 88.125,41.832C88.289,41.61 88.241,41.296 88.019,41.133ZM85.345,38.372C84.986,37.9 84.642,37.416 84.3,36.932C84.261,36.877 84.222,36.822 84.183,36.766C84.024,36.541 83.712,36.487 83.487,36.646C83.261,36.805 83.207,37.117 83.366,37.342C83.405,37.398 83.444,37.453 83.483,37.509C83.831,38.002 84.183,38.496 84.549,38.977C84.716,39.197 85.03,39.24 85.25,39.072C85.469,38.905 85.512,38.591 85.345,38.372ZM110.318,35.549C110.47,35.741 110.62,35.935 110.769,36.129C110.937,36.348 111.251,36.39 111.47,36.223C111.689,36.055 111.731,35.741 111.564,35.522C111.412,35.323 111.258,35.126 111.103,34.929C110.932,34.713 110.617,34.676 110.4,34.847C110.184,35.018 110.147,35.333 110.318,35.549ZM83.054,35.132C82.692,34.588 82.344,34.033 82.028,33.463C81.894,33.222 81.589,33.135 81.348,33.269C81.107,33.403 81.019,33.707 81.153,33.948C81.483,34.541 81.845,35.119 82.221,35.686C82.374,35.916 82.685,35.978 82.915,35.825C83.144,35.673 83.207,35.362 83.054,35.132ZM107.757,32.511C108.196,33.01 108.631,33.511 109.06,34.017C109.239,34.227 109.554,34.253 109.765,34.075C109.975,33.896 110.002,33.581 109.823,33.37C109.39,32.859 108.951,32.354 108.508,31.851C108.326,31.644 108.01,31.623 107.803,31.806C107.595,31.988 107.575,32.304 107.757,32.511ZM81.198,31.72C80.965,31.121 80.78,30.505 80.633,29.877C80.571,29.608 80.302,29.441 80.033,29.504C79.764,29.566 79.597,29.835 79.659,30.104C79.817,30.778 80.016,31.44 80.266,32.083C80.366,32.34 80.656,32.467 80.913,32.367C81.171,32.267 81.298,31.977 81.198,31.72ZM105.112,29.505C105.548,30.011 105.99,30.513 106.434,31.014C106.616,31.221 106.933,31.24 107.139,31.057C107.346,30.874 107.365,30.558 107.183,30.352C106.742,29.853 106.303,29.355 105.869,28.852C105.689,28.643 105.373,28.619 105.164,28.8C104.955,28.98 104.932,29.296 105.112,29.505ZM80.301,27.961C80.223,27.311 80.175,26.657 80.149,26.007C80.137,25.732 79.904,25.517 79.629,25.528C79.353,25.539 79.138,25.772 79.149,26.048C79.177,26.724 79.227,27.404 79.308,28.081C79.341,28.355 79.59,28.55 79.864,28.517C80.138,28.484 80.334,28.235 80.301,27.961ZM102.575,26.376C102.984,26.91 103.393,27.443 103.816,27.963C103.99,28.177 104.305,28.209 104.519,28.035C104.733,27.861 104.766,27.546 104.592,27.332C104.175,26.819 103.772,26.294 103.369,25.768C103.201,25.549 102.887,25.507 102.668,25.675C102.449,25.843 102.407,26.157 102.575,26.376ZM100.07,23.321C100.204,23.465 100.337,23.611 100.468,23.759C100.772,24.1 101.066,24.451 101.354,24.808C101.527,25.022 101.842,25.056 102.057,24.883C102.272,24.71 102.305,24.395 102.132,24.18C101.834,23.81 101.53,23.447 101.215,23.093C101.079,22.94 100.941,22.789 100.802,22.64C100.614,22.438 100.298,22.426 100.096,22.614C99.893,22.802 99.882,23.119 100.07,23.321ZM80.141,24.052C80.171,23.424 80.239,22.772 80.362,22.139C80.415,21.868 80.238,21.605 79.967,21.552C79.696,21.5 79.433,21.677 79.38,21.948C79.248,22.629 79.174,23.33 79.142,24.005C79.129,24.28 79.342,24.515 79.618,24.528C79.894,24.541 80.128,24.327 80.141,24.052ZM97.216,20.601C97.716,21.031 98.206,21.471 98.683,21.924C98.883,22.114 99.2,22.105 99.39,21.905C99.58,21.705 99.572,21.388 99.372,21.198C98.882,20.734 98.381,20.284 97.868,19.843C97.659,19.663 97.343,19.687 97.163,19.896C96.983,20.105 97.007,20.421 97.216,20.601ZM80.915,20.346C80.929,20.315 80.944,20.284 80.959,20.253C81.223,19.708 81.547,19.221 81.92,18.79C82.101,18.582 82.079,18.266 81.87,18.085C81.662,17.904 81.346,17.927 81.165,18.135C80.736,18.63 80.362,19.19 80.059,19.817C80.041,19.854 80.024,19.89 80.007,19.927C79.891,20.178 80.001,20.475 80.251,20.591C80.502,20.706 80.799,20.597 80.915,20.346ZM94.108,18.198C94.642,18.543 95.166,18.926 95.692,19.34C95.909,19.511 96.224,19.473 96.394,19.256C96.565,19.039 96.527,18.725 96.31,18.554C95.759,18.12 95.21,17.72 94.651,17.359C94.419,17.209 94.109,17.275 93.959,17.507C93.809,17.739 93.876,18.049 94.108,18.198ZM83.32,17.571C83.842,17.229 84.408,16.956 85.002,16.75C85.263,16.659 85.401,16.374 85.311,16.113C85.22,15.853 84.935,15.714 84.674,15.805C84.002,16.038 83.362,16.348 82.772,16.735C82.541,16.886 82.476,17.197 82.628,17.427C82.779,17.658 83.089,17.722 83.32,17.571ZM90.624,16.621C91.256,16.786 91.851,17.003 92.423,17.265C92.673,17.38 92.97,17.27 93.085,17.019C93.201,16.768 93.09,16.471 92.839,16.356C92.216,16.07 91.566,15.833 90.877,15.653C90.61,15.584 90.336,15.744 90.267,16.011C90.197,16.278 90.357,16.551 90.624,16.621ZM86.843,16.332C87.469,16.258 88.107,16.248 88.74,16.3C89.016,16.323 89.257,16.118 89.28,15.843C89.302,15.568 89.097,15.326 88.822,15.303C88.122,15.246 87.418,15.257 86.726,15.339C86.452,15.371 86.256,15.62 86.288,15.894C86.32,16.168 86.569,16.364 86.843,16.332Z" style="fill:#bc5300;"/>
            <g transform="matrix(-0.959167,-0.28284,-0.28284,0.959167,307.625,29.683)">
                <path d="M94.299,51.953C92.434,49.658 90.166,47.768 88.24,45.534C86.345,43.338 84.715,40.833 83.042,38.459C81.939,36.895 80.849,35.257 79.932,33.576C76.825,27.881 75.721,17.905 83.051,14.946C84.388,14.406 85.764,14.146 87.198,14.022C89.034,13.864 90.832,14.401 92.56,14.965C96.47,16.239 99.142,19.301 101.75,22.32C104.113,25.056 106.498,27.73 108.627,30.657C109.174,31.409 109.723,32.16 110.31,32.881C110.728,33.393 111.153,33.9 111.579,34.406C112.582,35.595 113.796,36.34 113.62,38.131C113.414,40.222 96.846,48.799 94.299,51.953Z" style="fill:#ff7000;"/>
            </g>
            <path d="M203.357,22.544C200.437,24.418 197.519,26.245 194.762,28.364C194.025,28.931 193.287,29.496 192.519,30.021C191.973,30.394 191.422,30.76 190.87,31.125C189.573,31.982 188.197,32.353 187.859,34.121C187.466,36.185 200.931,49.097 202.482,52.843C204.92,51.169 207.63,49.998 210.11,48.4C212.548,46.829 214.82,44.888 217.096,43.084C218.596,41.896 220.105,40.633 221.46,39.28C223.447,37.296 225.301,34.437 226.263,31.434C219.403,27.398 211.731,24.486 203.357,22.544Z" style="fill:#d56605;"/>
            <path d="M218.853,38.799C218.804,38.847 218.756,38.895 218.707,38.942C218.509,39.134 218.504,39.45 218.696,39.649C218.888,39.847 219.205,39.852 219.403,39.66C219.454,39.611 219.505,39.561 219.555,39.511C219.752,39.317 219.754,39 219.56,38.804C219.366,38.608 219.049,38.606 218.853,38.799ZM221.367,35.815C220.992,36.354 220.593,36.872 220.178,37.364C220,37.575 220.027,37.891 220.238,38.069C220.449,38.247 220.765,38.22 220.943,38.009C221.377,37.493 221.795,36.95 222.188,36.386C222.346,36.159 222.29,35.847 222.063,35.69C221.837,35.532 221.525,35.588 221.367,35.815ZM223.246,32.415C223.001,33.009 222.716,33.593 222.4,34.162C222.266,34.403 222.353,34.708 222.594,34.842C222.835,34.976 223.14,34.889 223.274,34.648C223.609,34.045 223.911,33.426 224.171,32.797C224.276,32.541 224.154,32.249 223.899,32.144C223.644,32.039 223.351,32.16 223.246,32.415ZM194.321,31.309C194.785,30.87 195.296,30.463 195.818,30.067C196.037,29.9 196.08,29.586 195.913,29.366C195.746,29.147 195.432,29.104 195.212,29.271C194.662,29.689 194.123,30.12 193.633,30.583C193.433,30.773 193.425,31.09 193.614,31.29C193.804,31.49 194.121,31.499 194.321,31.309ZM224.176,28.703C224.128,29.332 224.019,29.962 223.859,30.587C223.79,30.855 223.952,31.127 224.219,31.195C224.487,31.264 224.759,31.102 224.828,30.835C225.002,30.153 225.12,29.466 225.173,28.78C225.194,28.505 224.988,28.264 224.713,28.243C224.438,28.222 224.197,28.428 224.176,28.703ZM197.417,28.861C197.942,28.456 198.473,28.062 199.008,27.676C199.232,27.515 199.283,27.203 199.122,26.979C198.961,26.755 198.648,26.704 198.424,26.865C197.88,27.256 197.341,27.657 196.807,28.069C196.588,28.237 196.547,28.551 196.716,28.77C196.884,28.988 197.198,29.029 197.417,28.861ZM223.716,24.937C223.852,25.393 223.96,25.861 224.051,26.331C224.082,26.491 224.108,26.651 224.129,26.812C224.166,27.085 224.417,27.278 224.691,27.241C224.964,27.205 225.157,26.953 225.121,26.68C225.097,26.5 225.067,26.32 225.033,26.141C224.935,25.639 224.82,25.139 224.675,24.651C224.596,24.387 224.317,24.236 224.053,24.315C223.788,24.394 223.638,24.672 223.716,24.937ZM200.637,26.543C201.186,26.173 201.74,25.811 202.3,25.458C202.533,25.311 202.603,25.002 202.456,24.769C202.308,24.535 201.999,24.466 201.766,24.613C201.198,24.971 200.636,25.338 200.078,25.713C199.849,25.867 199.789,26.178 199.943,26.407C200.097,26.636 200.408,26.697 200.637,26.543ZM203.994,24.423C204.563,24.085 205.137,23.756 205.717,23.433C205.958,23.299 206.044,22.994 205.91,22.753C205.776,22.512 205.471,22.425 205.23,22.559C204.643,22.887 204.061,23.221 203.484,23.562C203.247,23.703 203.168,24.01 203.309,24.247C203.449,24.485 203.756,24.563 203.994,24.423ZM221.857,21.773C221.919,21.827 221.979,21.882 222.037,21.94C222.424,22.321 222.737,22.745 222.995,23.198C223.132,23.438 223.437,23.522 223.677,23.386C223.917,23.249 224.001,22.944 223.865,22.704C223.562,22.171 223.193,21.674 222.739,21.227C222.667,21.156 222.592,21.087 222.516,21.02C222.308,20.838 221.992,20.859 221.81,21.067C221.628,21.275 221.649,21.591 221.857,21.773ZM207.465,22.487C207.525,22.455 207.585,22.424 207.646,22.392C208.172,22.117 208.7,21.845 209.233,21.585C209.481,21.464 209.584,21.164 209.463,20.916C209.342,20.668 209.042,20.565 208.794,20.686C208.254,20.95 207.717,21.227 207.183,21.506C207.122,21.538 207.061,21.57 207,21.602C206.755,21.73 206.661,22.033 206.79,22.277C206.918,22.521 207.22,22.616 207.465,22.487ZM218.508,20.059C218.807,20.147 219.101,20.253 219.388,20.378C219.683,20.506 219.984,20.639 220.282,20.783C220.53,20.903 220.829,20.799 220.949,20.551C221.07,20.303 220.966,20.003 220.717,19.883C220.408,19.733 220.095,19.595 219.788,19.461C219.463,19.32 219.13,19.2 218.791,19.1C218.526,19.022 218.248,19.173 218.17,19.438C218.092,19.703 218.243,19.981 218.508,20.059ZM211.025,20.778C211.627,20.534 212.238,20.319 212.861,20.146C213.127,20.073 213.283,19.797 213.209,19.531C213.135,19.265 212.859,19.109 212.594,19.183C211.935,19.366 211.288,19.593 210.649,19.851C210.394,19.955 210.27,20.247 210.374,20.502C210.477,20.758 210.769,20.882 211.025,20.778ZM214.744,19.773C215.29,19.711 215.847,19.689 216.416,19.716C216.493,19.72 216.571,19.725 216.648,19.73C216.923,19.75 217.163,19.542 217.182,19.267C217.202,18.992 216.995,18.752 216.719,18.733C216.634,18.727 216.549,18.721 216.464,18.717C215.84,18.688 215.229,18.711 214.63,18.78C214.356,18.811 214.159,19.059 214.19,19.333C214.222,19.608 214.47,19.805 214.744,19.773Z" style="fill:#bc5300;"/>
            <path d="M112.1,36.676C110.93,31.499 110.058,26.579 110.014,21.259C109.971,16.064 110.809,10.458 113.891,6.131C117.506,1.054 125.87,-0.974 130.932,3.058C134.973,6.277 135.581,13.056 136.048,17.82C136.261,19.999 136.38,22.181 136.518,24.365C136.663,26.644 136.842,28.919 137.092,31.188C137.15,31.709 137.643,33.39 137.426,33.938C137.331,34.177 115.024,36.96 112.1,36.676Z" style="fill:#9c231b;"/>
            <path d="M136.202,19.587C136.327,21.178 136.417,22.771 136.518,24.365C136.663,26.644 136.842,28.919 137.092,31.188C137.15,31.709 137.643,33.39 137.426,33.938C137.331,34.177 115.024,36.96 112.1,36.676C111.006,31.833 110.172,27.214 110.033,22.281C118.394,20.39 127.211,19.747 136.202,19.587Z" style="fill:#841e18;"/>
            <path d="M114.007,34.87C113.813,34.237 113.638,33.604 113.483,32.97C113.417,32.702 113.146,32.538 112.878,32.604C112.61,32.669 112.446,32.94 112.512,33.208C112.672,33.86 112.851,34.512 113.051,35.164C113.132,35.428 113.412,35.576 113.676,35.495C113.94,35.414 114.088,35.134 114.007,34.87ZM133.622,30.922C133.666,31.555 133.719,32.187 133.784,32.819C133.812,33.094 134.057,33.294 134.332,33.266C134.606,33.238 134.807,32.992 134.779,32.718C134.715,32.096 134.663,31.475 134.62,30.853C134.6,30.577 134.361,30.369 134.086,30.389C133.811,30.408 133.603,30.647 133.622,30.922ZM113.068,31.043C112.947,30.394 112.845,29.745 112.76,29.094C112.724,28.821 112.473,28.627 112.199,28.663C111.926,28.699 111.733,28.95 111.768,29.224C111.856,29.893 111.961,30.56 112.085,31.226C112.135,31.497 112.397,31.676 112.668,31.626C112.939,31.575 113.119,31.314 113.068,31.043ZM133.442,26.904C133.459,27.574 133.48,28.243 133.509,28.912C133.521,29.188 133.755,29.402 134.031,29.39C134.306,29.378 134.521,29.145 134.509,28.869C134.48,28.206 134.458,27.543 134.442,26.879C134.435,26.603 134.205,26.385 133.929,26.392C133.653,26.399 133.435,26.628 133.442,26.904ZM112.554,27.131C112.502,26.475 112.466,25.817 112.445,25.157C112.436,24.881 112.204,24.665 111.929,24.674C111.653,24.683 111.436,24.914 111.445,25.19C111.467,25.865 111.504,26.539 111.558,27.21C111.579,27.485 111.821,27.69 112.096,27.669C112.371,27.647 112.576,27.406 112.554,27.131ZM133.378,22.898C133.386,23.565 133.394,24.232 133.403,24.899C133.408,25.175 133.635,25.396 133.911,25.392C134.187,25.388 134.407,25.161 134.403,24.885C134.394,24.219 134.386,23.552 134.378,22.886C134.374,22.61 134.148,22.389 133.872,22.392C133.596,22.396 133.375,22.622 133.378,22.898ZM112.422,23.178C112.429,22.521 112.448,21.861 112.479,21.198C112.491,20.922 112.278,20.688 112.002,20.675C111.727,20.662 111.492,20.876 111.48,21.151C111.448,21.827 111.429,22.5 111.422,23.169C111.42,23.445 111.642,23.671 111.918,23.674C112.194,23.676 112.42,23.454 112.422,23.178ZM133.302,18.909C133.323,19.573 133.338,20.237 133.349,20.901C133.354,21.177 133.582,21.397 133.858,21.392C134.134,21.388 134.354,21.16 134.349,20.884C134.337,20.215 134.322,19.546 134.302,18.878C134.293,18.602 134.062,18.385 133.786,18.393C133.511,18.402 133.294,18.633 133.302,18.909ZM112.611,19.224C112.67,18.569 112.745,17.915 112.84,17.265C112.88,16.992 112.69,16.738 112.417,16.698C112.144,16.658 111.89,16.848 111.85,17.121C111.753,17.789 111.675,18.461 111.615,19.134C111.59,19.409 111.793,19.652 112.068,19.677C112.343,19.702 112.586,19.499 112.611,19.224ZM133.093,14.937C133.12,15.294 133.144,15.651 133.167,16.009C133.187,16.313 133.205,16.617 133.221,16.921C133.235,17.197 133.47,17.409 133.746,17.394C134.022,17.38 134.234,17.144 134.219,16.869C134.203,16.56 134.185,16.252 134.165,15.944C134.142,15.583 134.117,15.221 134.09,14.861C134.069,14.586 133.828,14.379 133.553,14.4C133.278,14.421 133.072,14.662 133.093,14.937ZM113.186,15.33C113.324,14.69 113.484,14.056 113.671,13.43C113.749,13.166 113.599,12.887 113.334,12.808C113.07,12.729 112.791,12.88 112.712,13.144C112.518,13.795 112.351,14.454 112.208,15.12C112.151,15.39 112.323,15.656 112.592,15.714C112.862,15.771 113.128,15.599 113.186,15.33ZM132.587,11.038C132.72,11.673 132.821,12.318 132.902,12.97C132.936,13.244 133.186,13.439 133.46,13.405C133.733,13.371 133.928,13.121 133.894,12.847C133.81,12.168 133.705,11.495 133.566,10.832C133.509,10.562 133.244,10.389 132.974,10.446C132.703,10.502 132.53,10.768 132.587,11.038ZM114.311,11.584C114.552,10.983 114.821,10.392 115.123,9.812C115.251,9.568 115.156,9.265 114.911,9.138C114.667,9.01 114.364,9.105 114.237,9.35C113.919,9.959 113.635,10.581 113.383,11.213C113.28,11.469 113.405,11.76 113.662,11.863C113.918,11.965 114.209,11.84 114.311,11.584ZM131.322,7.405C131.625,7.976 131.873,8.565 132.08,9.168C132.169,9.429 132.454,9.569 132.715,9.479C132.976,9.39 133.115,9.105 133.026,8.844C132.803,8.192 132.533,7.555 132.205,6.937C132.076,6.693 131.773,6.6 131.529,6.729C131.285,6.858 131.192,7.161 131.322,7.405ZM116.116,8.151C116.473,7.638 116.879,7.131 117.325,6.646C117.512,6.443 117.499,6.126 117.296,5.94C117.092,5.753 116.776,5.766 116.589,5.969C116.111,6.488 115.677,7.031 115.295,7.58C115.137,7.807 115.193,8.118 115.42,8.276C115.647,8.434 115.958,8.378 116.116,8.151ZM128.97,4.436C129.452,4.846 129.892,5.305 130.283,5.804C130.453,6.021 130.768,6.059 130.985,5.889C131.202,5.718 131.24,5.404 131.07,5.187C130.637,4.635 130.151,4.127 129.617,3.674C129.407,3.495 129.091,3.521 128.912,3.731C128.734,3.942 128.759,4.257 128.97,4.436ZM118.724,5.312C119.218,4.9 119.742,4.521 120.286,4.188C120.522,4.044 120.596,3.736 120.452,3.5C120.308,3.265 120,3.191 119.765,3.334C119.179,3.693 118.615,4.101 118.083,4.544C117.871,4.721 117.843,5.037 118.02,5.249C118.196,5.461 118.512,5.489 118.724,5.312ZM125.661,2.848C126.253,2.935 126.841,3.113 127.416,3.394C127.663,3.516 127.963,3.413 128.085,3.166C128.206,2.918 128.103,2.618 127.856,2.496C127.184,2.168 126.498,1.96 125.807,1.858C125.534,1.818 125.279,2.007 125.239,2.28C125.199,2.553 125.388,2.807 125.661,2.848ZM121.993,3.335C122.588,3.104 123.197,2.937 123.811,2.85C124.084,2.811 124.274,2.558 124.236,2.285C124.197,2.012 123.944,1.821 123.671,1.86C122.982,1.957 122.299,2.144 121.631,2.403C121.374,2.503 121.246,2.793 121.346,3.05C121.446,3.307 121.736,3.435 121.993,3.335Z" style="fill:#71110b;"/>
            <g transform="matrix(0.984194,0.177094,-0.177094,0.984194,65.9006,-18.4634)">
                <path d="M112.1,36.676C110.93,31.499 110.058,26.579 110.014,21.259C109.971,16.064 110.809,10.458 113.891,6.131C117.506,1.054 125.87,-0.974 130.932,3.058C134.973,6.277 135.581,13.056 136.048,17.82C136.261,19.999 136.38,22.181 136.518,24.365C136.663,26.644 136.842,28.919 137.092,31.188C137.15,31.709 137.643,33.39 137.426,33.938C137.331,34.177 115.024,36.96 112.1,36.676Z" style="fill:#9c231b;"/>
            </g>
            <path d="M170.884,19.581C179.6,19.581 188.235,20.194 196.77,21.543C196.729,22.104 196.684,22.648 196.642,23.168C196.466,25.351 196.197,27.519 195.946,29.693C195.685,31.961 195.459,34.232 195.303,36.51C195.267,37.033 195.455,38.775 195.144,39.275C195.008,39.494 172.561,38.282 169.733,37.485C169.499,32.183 169.512,27.187 170.411,21.943C170.545,21.159 170.702,20.369 170.884,19.581Z" style="fill:#841e18;"/>
            <path d="M193.238,31.515C193.209,31.86 193.183,32.206 193.163,32.551C193.147,32.827 193.357,33.064 193.633,33.08C193.908,33.096 194.145,32.886 194.161,32.61C194.181,32.273 194.206,31.936 194.234,31.6C194.258,31.325 194.053,31.083 193.778,31.06C193.503,31.036 193.261,31.24 193.238,31.515ZM171.362,32.093C171.316,31.441 171.303,30.79 171.317,30.141C171.323,29.865 171.104,29.636 170.828,29.63C170.552,29.624 170.323,29.843 170.317,30.119C170.302,30.799 170.316,31.481 170.364,32.164C170.384,32.439 170.623,32.647 170.898,32.627C171.174,32.608 171.381,32.368 171.362,32.093ZM193.716,27.516C193.621,28.179 193.53,28.843 193.449,29.508C193.415,29.782 193.61,30.032 193.884,30.065C194.158,30.099 194.408,29.904 194.441,29.63C194.522,28.971 194.612,28.314 194.706,27.657C194.745,27.384 194.555,27.13 194.281,27.092C194.008,27.053 193.755,27.243 193.716,27.516ZM171.435,28.181C171.497,27.527 171.581,26.875 171.68,26.224C171.721,25.952 171.533,25.697 171.26,25.655C170.988,25.614 170.732,25.802 170.691,26.075C170.59,26.743 170.504,27.414 170.439,28.086C170.413,28.361 170.615,28.605 170.889,28.632C171.164,28.658 171.409,28.456 171.435,28.181ZM194.275,23.562C194.191,24.221 194.098,24.878 194.003,25.536C193.963,25.809 194.153,26.063 194.426,26.102C194.699,26.142 194.953,25.952 194.993,25.679C195.088,25.016 195.182,24.353 195.267,23.69C195.302,23.416 195.109,23.165 194.835,23.13C194.561,23.095 194.31,23.289 194.275,23.562ZM172.015,24.271C172.139,23.618 172.272,22.971 172.416,22.33C172.477,22.061 172.308,21.793 172.039,21.732C171.77,21.671 171.502,21.841 171.441,22.11C171.294,22.762 171.158,23.42 171.033,24.086C170.981,24.357 171.16,24.619 171.431,24.67C171.702,24.721 171.964,24.543 172.015,24.271ZM194.635,19.623C194.607,20.281 194.559,20.937 194.498,21.592C194.472,21.867 194.674,22.111 194.948,22.137C195.223,22.162 195.467,21.96 195.493,21.686C195.557,21.014 195.606,20.341 195.635,19.665C195.646,19.389 195.432,19.156 195.156,19.144C194.881,19.133 194.647,19.347 194.635,19.623ZM172.893,20.41C173.065,19.776 173.253,19.145 173.458,18.518C173.544,18.256 173.401,17.974 173.138,17.888C172.876,17.802 172.593,17.945 172.508,18.207C172.297,18.85 172.105,19.497 171.928,20.148C171.855,20.414 172.013,20.689 172.279,20.761C172.545,20.834 172.82,20.677 172.893,20.41ZM194.529,15.698C194.546,15.878 194.562,16.058 194.577,16.236C194.618,16.711 194.643,17.185 194.655,17.657C194.662,17.933 194.892,18.151 195.168,18.144C195.443,18.137 195.662,17.907 195.655,17.632C195.642,17.14 195.616,16.647 195.574,16.152C195.558,15.969 195.542,15.785 195.524,15.6C195.497,15.326 195.252,15.124 194.977,15.151C194.703,15.178 194.502,15.423 194.529,15.698ZM174.123,16.662C174.212,16.436 174.303,16.209 174.397,15.983C174.552,15.61 174.716,15.229 174.89,14.845C175.004,14.593 174.893,14.297 174.641,14.183C174.39,14.069 174.094,14.18 173.979,14.431C173.801,14.825 173.633,15.216 173.474,15.599C173.377,15.832 173.283,16.065 173.192,16.298C173.091,16.555 173.218,16.846 173.475,16.946C173.732,17.046 174.023,16.919 174.123,16.662ZM193.808,11.882C194.007,12.491 194.155,13.121 194.269,13.756C194.317,14.027 194.577,14.208 194.849,14.159C195.121,14.111 195.302,13.85 195.253,13.579C195.131,12.898 194.971,12.224 194.758,11.571C194.672,11.309 194.39,11.166 194.128,11.251C193.865,11.337 193.722,11.62 193.808,11.882ZM175.766,13.094C176.083,12.528 176.429,11.979 176.811,11.47C176.977,11.249 176.932,10.935 176.711,10.77C176.491,10.604 176.177,10.648 176.011,10.869C175.602,11.414 175.232,12.001 174.893,12.606C174.759,12.847 174.845,13.152 175.086,13.287C175.327,13.421 175.632,13.335 175.766,13.094ZM191.852,8.745C192.305,9.165 192.735,9.63 193.051,10.156C193.193,10.393 193.5,10.47 193.737,10.328C193.974,10.186 194.051,9.879 193.909,9.642C193.545,9.035 193.054,8.495 192.532,8.011C192.329,7.824 192.013,7.836 191.825,8.038C191.637,8.241 191.65,8.557 191.852,8.745ZM178.093,10.065C178.566,9.636 179.073,9.232 179.607,8.861C179.833,8.704 179.889,8.392 179.732,8.165C179.574,7.938 179.263,7.882 179.036,8.04C178.467,8.435 177.926,8.866 177.421,9.324C177.217,9.51 177.201,9.826 177.387,10.031C177.572,10.235 177.889,10.25 178.093,10.065ZM181.262,7.865C181.837,7.57 182.429,7.316 183.033,7.112C183.295,7.023 183.435,6.739 183.346,6.478C183.258,6.216 182.973,6.076 182.712,6.165C182.062,6.385 181.424,6.658 180.806,6.976C180.56,7.102 180.463,7.403 180.589,7.649C180.715,7.894 181.017,7.991 181.262,7.865ZM188.632,6.855C189.219,7.028 189.793,7.274 190.347,7.602C190.585,7.742 190.892,7.663 191.032,7.426C191.173,7.188 191.094,6.881 190.856,6.741C190.229,6.37 189.579,6.091 188.914,5.895C188.649,5.818 188.371,5.969 188.293,6.234C188.215,6.499 188.367,6.777 188.632,6.855ZM184.889,6.651C185.519,6.552 186.152,6.514 186.78,6.545C187.056,6.559 187.29,6.346 187.304,6.071C187.318,5.795 187.105,5.56 186.83,5.546C186.134,5.512 185.432,5.554 184.734,5.663C184.461,5.705 184.275,5.961 184.317,6.234C184.36,6.507 184.616,6.693 184.889,6.651Z" style="fill:#71110b;"/>
            <g transform="matrix(1,0,0,1,-1.14318,1.19096)">
                <path d="M138.481,39.224C137.603,33.172 137.439,26.672 138.233,20.605C138.793,16.329 140.024,12.497 142.114,8.732C145.805,2.085 152.988,-3.428 160.822,-0.282C161.855,0.133 162.966,0.576 163.866,1.244C165.115,2.172 166.159,3.624 167.001,4.915C169.047,8.053 169.528,11.804 170.004,15.436C170.401,18.474 170.835,21.506 171.127,24.557C171.468,28.117 171.596,31.702 171.77,35.274C171.828,36.482 143.824,39.361 138.481,39.224Z" style="fill:#ffc441;"/>
            </g>
            <path d="M137.441,19.618C144.983,18.475 161.967,17.413 169.223,19.357C169.505,21.483 169.78,23.611 169.984,25.748C170.325,29.308 170.453,32.893 170.627,36.465C170.685,37.673 142.681,40.552 137.338,40.415C136.46,34.363 136.296,27.863 137.09,21.795C137.187,21.057 137.303,20.332 137.441,19.618Z" style="fill:#ffae24;"/>
            <path d="M168.404,31.838C168.41,32.57 168.427,33.334 168.636,33.971C168.722,34.233 169.004,34.376 169.267,34.29C169.529,34.204 169.672,33.921 169.586,33.659C169.407,33.113 169.409,32.456 169.404,31.83C169.401,31.554 169.175,31.331 168.899,31.334C168.623,31.336 168.401,31.562 168.404,31.838ZM138.762,32.763C138.748,32.092 138.713,31.422 138.68,30.751C138.666,30.475 138.431,30.263 138.156,30.277C137.88,30.29 137.667,30.525 137.681,30.801C137.714,31.462 137.748,32.123 137.763,32.785C137.769,33.061 137.997,33.28 138.273,33.274C138.549,33.268 138.768,33.039 138.762,32.763ZM168.028,27.92C168.114,28.576 168.203,29.232 168.277,29.895C168.307,30.169 168.555,30.367 168.829,30.336C169.103,30.306 169.301,30.058 169.271,29.784C169.196,29.115 169.106,28.453 169.019,27.79C168.983,27.516 168.732,27.324 168.459,27.359C168.185,27.395 167.992,27.647 168.028,27.92ZM138.603,28.769C138.598,28.445 138.597,28.121 138.604,27.796C138.611,27.465 138.621,27.132 138.635,26.799C138.646,26.523 138.432,26.29 138.156,26.279C137.88,26.267 137.647,26.482 137.636,26.757C137.622,27.097 137.611,27.437 137.604,27.775C137.597,28.112 137.597,28.449 137.603,28.786C137.608,29.062 137.836,29.282 138.112,29.277C138.388,29.273 138.608,29.045 138.603,28.769ZM167.667,23.897C167.682,24.202 167.697,24.504 167.712,24.805C167.731,25.178 167.759,25.548 167.793,25.915C167.819,26.19 168.063,26.392 168.338,26.367C168.612,26.341 168.815,26.097 168.789,25.822C168.756,25.469 168.729,25.113 168.711,24.755C168.696,24.455 168.681,24.153 168.666,23.849C168.653,23.573 168.418,23.36 168.142,23.374C167.867,23.387 167.654,23.622 167.667,23.897ZM138.758,24.824C138.813,24.169 138.883,23.513 138.968,22.858C139.003,22.584 138.81,22.333 138.536,22.298C138.263,22.262 138.011,22.456 137.976,22.729C137.889,23.399 137.818,24.07 137.762,24.74C137.739,25.015 137.943,25.257 138.218,25.28C138.493,25.304 138.735,25.099 138.758,24.824ZM167.442,19.916C167.491,20.581 167.531,21.244 167.567,21.903C167.582,22.178 167.818,22.39 168.093,22.375C168.369,22.36 168.58,22.124 168.565,21.848C168.529,21.184 168.489,20.514 168.44,19.843C168.42,19.568 168.18,19.361 167.905,19.381C167.63,19.401 167.422,19.641 167.442,19.916ZM139.269,20.906C139.386,20.259 139.519,19.614 139.67,18.974C139.734,18.705 139.567,18.436 139.298,18.373C139.03,18.309 138.76,18.476 138.697,18.744C138.542,19.402 138.405,20.064 138.285,20.729C138.236,21 138.417,21.26 138.689,21.309C138.96,21.358 139.22,21.178 139.269,20.906ZM167.025,15.976C167.121,16.627 167.202,17.282 167.27,17.939C167.298,18.213 167.544,18.413 167.819,18.384C168.093,18.356 168.293,18.11 168.264,17.835C168.195,17.165 168.113,16.495 168.014,15.829C167.974,15.556 167.719,15.368 167.446,15.408C167.173,15.448 166.985,15.703 167.025,15.976ZM140.178,17.07C140.365,16.44 140.572,15.817 140.799,15.202C140.894,14.943 140.761,14.656 140.502,14.56C140.243,14.465 139.956,14.598 139.86,14.856C139.626,15.491 139.413,16.134 139.219,16.784C139.14,17.048 139.291,17.327 139.555,17.406C139.82,17.485 140.099,17.334 140.178,17.07ZM166.216,12.128C166.395,12.755 166.549,13.391 166.683,14.035C166.739,14.305 167.004,14.479 167.274,14.423C167.544,14.367 167.718,14.102 167.662,13.832C167.523,13.164 167.363,12.504 167.178,11.854C167.102,11.589 166.825,11.435 166.56,11.51C166.294,11.586 166.14,11.863 166.216,12.128ZM141.54,13.383C141.808,12.786 142.098,12.199 142.409,11.623C142.541,11.38 142.45,11.077 142.208,10.945C141.965,10.814 141.661,10.904 141.53,11.147C141.207,11.744 140.906,12.353 140.628,12.973C140.515,13.225 140.628,13.521 140.879,13.634C141.131,13.747 141.427,13.634 141.54,13.383ZM164.804,8.498C165.101,9.075 165.364,9.668 165.598,10.274C165.698,10.532 165.987,10.66 166.245,10.561C166.502,10.461 166.631,10.172 166.531,9.914C166.284,9.274 166.006,8.649 165.693,8.04C165.567,7.795 165.265,7.699 165.02,7.825C164.774,7.951 164.678,8.253 164.804,8.498ZM143.41,9.938C143.764,9.393 144.142,8.86 144.544,8.343C144.713,8.125 144.674,7.811 144.456,7.641C144.238,7.472 143.923,7.511 143.754,7.729C143.335,8.269 142.941,8.824 142.571,9.393C142.421,9.625 142.487,9.935 142.718,10.085C142.95,10.235 143.259,10.17 143.41,9.938ZM162.623,5.305C162.745,5.444 162.866,5.586 162.987,5.732C163.282,6.089 163.558,6.456 163.815,6.833C163.97,7.061 164.281,7.12 164.509,6.964C164.737,6.809 164.796,6.497 164.641,6.269C164.366,5.867 164.072,5.475 163.756,5.094C163.629,4.941 163.502,4.791 163.374,4.645C163.192,4.438 162.876,4.417 162.669,4.599C162.461,4.782 162.441,5.098 162.623,5.305ZM145.809,6.844C146.236,6.373 146.701,5.892 147.179,5.447C147.381,5.259 147.393,4.942 147.205,4.74C147.017,4.538 146.7,4.527 146.498,4.715C146,5.179 145.514,5.681 145.068,6.172C144.883,6.377 144.898,6.693 145.103,6.879C145.307,7.064 145.624,7.048 145.809,6.844ZM148.671,4.241C149.189,3.894 149.753,3.585 150.347,3.318C150.599,3.205 150.712,2.909 150.599,2.657C150.486,2.405 150.19,2.292 149.938,2.405C149.291,2.696 148.678,3.033 148.115,3.41C147.886,3.564 147.824,3.874 147.978,4.104C148.131,4.333 148.442,4.395 148.671,4.241ZM159.661,3.008C159.918,3.12 160.17,3.247 160.413,3.393C160.714,3.574 160.992,3.769 161.254,3.976C161.47,4.148 161.785,4.112 161.956,3.895C162.128,3.679 162.092,3.364 161.876,3.193C161.581,2.959 161.268,2.74 160.928,2.536C160.647,2.367 160.357,2.221 160.06,2.091C159.807,1.981 159.512,2.097 159.402,2.35C159.292,2.603 159.407,2.898 159.661,3.008ZM152.157,2.665C152.773,2.493 153.405,2.365 154.043,2.285C154.317,2.251 154.512,2 154.477,1.727C154.443,1.453 154.193,1.258 153.919,1.293C153.232,1.379 152.551,1.517 151.888,1.702C151.622,1.776 151.467,2.052 151.541,2.318C151.615,2.584 151.891,2.739 152.157,2.665ZM155.96,2.194C156.602,2.216 157.237,2.291 157.853,2.426C158.122,2.484 158.389,2.313 158.448,2.044C158.507,1.774 158.336,1.508 158.066,1.449C157.391,1.301 156.696,1.218 155.994,1.195C155.718,1.186 155.486,1.402 155.477,1.678C155.468,1.954 155.684,2.185 155.96,2.194Z" style="fill:#d2991a;"/>
        </g>
        <g transform="matrix(1,0,0,1,0,-6.74811)">
            <path d="M20.494,146.776C23.079,134.345 26.808,122.081 32.295,111.435C36.281,103.7 43.684,101.258 52.592,101.796C52.716,104.884 53.991,105.871 57.54,102.706C59.964,107.594 63.077,107.746 66.946,102.695C68.58,105.871 70.397,106.438 72.481,103.191C75.219,105.87 76.746,105.435 76.846,101.331L170.309,102.977C170.986,106.198 172.505,107.196 176.041,102.881C177.134,106.976 178.868,108.132 181.867,103.476C184.647,107.139 186.71,106.751 187.983,101.912L233.812,101.733C235.191,106.344 237.729,106.732 241.663,102.022C241.742,106.779 243.136,109.166 248.643,104.138C250.578,107.72 251.789,106.751 252.478,102.514C254.165,105.419 257.293,104.846 257.181,101.049C257.181,101.049 266.864,105.681 271.144,114.466C275.23,122.854 280.881,147.743 279.658,148.157L283.178,148.24L283.178,88.212L17.488,88.212L17.488,146.787L20.494,146.776Z" style="fill:#ffdca6;"/>
            <g>
                <path d="M300,213.868L300,182.041C299.608,181.072 299.029,180.183 298.173,179.433C297.965,179.252 283.504,179.024 283.322,179.231C282.371,180.318 281.911,181.733 281.72,183.256C281.449,185.411 281.717,187.785 281.745,189.646C281.869,197.831 282.716,205.899 281.559,214.062C280.759,219.712 279.819,225.877 276.462,230.645C273.122,235.39 267.836,238.055 263.791,242.089C256.902,248.962 255.378,256.762 256.346,265.979C255.769,266.259 254.954,267.1 254.527,267.524C253.309,268.732 252.203,269.95 251.18,271.345C250.251,272.612 249.392,273.97 248.664,275.363C248.084,276.471 247.642,277.64 247.275,278.834C245.572,284.372 245.577,291.355 250.383,295.387C252.287,296.983 254.586,297.977 257.103,297.924C260.903,297.843 264.352,295.156 265.54,291.641C265.936,292.476 266.445,293.27 267.098,294.006C267.81,294.809 268.649,295.56 269.587,296.088C270.314,296.497 271.109,296.854 271.93,297.019C273.189,297.272 274.466,297.089 275.672,296.686C279.169,295.515 281.588,292.472 282.654,288.996C283.872,285.028 283.227,280.462 281.849,276.626C281.431,275.464 280.881,274.366 280.357,273.255C281.008,273.377 281.715,273.383 282.408,273.284C283.6,273.112 284.748,272.629 285.506,271.936C287.255,270.336 287.907,267.812 287.099,265.599C286.619,264.285 285.473,263.404 284.292,262.748C282.021,261.486 279.818,261.035 277.272,260.846C277.534,259.455 277.913,258.095 278.607,256.78C280.664,252.885 283.996,249.832 287.301,246.744C290.691,243.576 294.051,240.37 296.078,236.253C298.453,231.426 299.502,223.875 299.764,218.589C299.842,217.016 299.921,215.442 300,213.868Z" style="fill:#ffa100;"/>
                <path d="M254.121,296.75C258.057,296.355 261.932,292.573 263.206,289.082C263.646,287.879 263.849,286.628 264.249,285.414C264.373,285.039 264.456,284.643 264.514,284.252C264.535,284.113 264.558,283.976 264.579,283.837C264.589,283.774 264.591,283.583 264.608,283.646C264.75,284.185 264.737,284.778 264.751,285.329C264.772,286.17 264.807,287.027 264.857,287.867C264.932,289.119 265.443,290.435 265.068,291.674C264.301,294.208 262.135,296.446 259.521,297.03C258.476,297.263 257.358,297.183 256.305,297.092C255.561,297.028 254.832,296.995 254.121,296.75ZM279.158,272.82C280.131,275.811 280.158,279.047 280.026,282.159C279.922,284.611 279.824,286.894 279.089,289.251C278.54,291.009 277.89,292.748 276.894,294.305C276.548,294.844 276.186,295.367 275.808,295.884C275.692,296.042 275.576,296.201 275.447,296.35C275.379,296.428 275.15,296.633 275.241,296.583C276.301,295.997 277.216,295.145 278.098,294.328C279.582,292.954 281.085,291.527 281.856,289.61C282.493,288.028 282.645,286.23 282.778,284.542C282.88,283.254 283.068,281.903 282.773,280.627C282.354,278.815 281.596,276.886 280.8,275.211C280.398,274.366 279.501,273.694 279.158,272.82C279.136,272.75 279.112,272.68 279.088,272.61C279.108,272.681 279.131,272.751 279.158,272.82ZM276.365,264.01C276.408,264.202 276.442,264.39 276.453,264.567C278.109,263.271 280.857,263.665 282.729,264.129C283.244,264.257 283.787,264.314 284.277,264.527C285.013,264.849 285.685,265.379 286.255,265.943C286.441,266.126 286.622,266.315 286.779,266.524C286.834,266.597 286.887,266.673 286.935,266.751C286.954,266.783 286.993,266.887 286.992,266.849C286.965,265.784 286.158,264.817 285.389,264.164C284.722,263.597 284.007,263.024 283.21,262.648C282.074,262.112 280.86,261.942 279.633,261.737C278.881,261.612 278.122,261.569 277.359,261.572C277.158,261.572 276.949,261.544 276.76,261.586C276.812,261.301 276.871,261.021 276.945,260.747C277.194,259.818 277.472,258.898 277.768,257.983C277.819,257.825 278.105,257.162 278.024,257.019C277.991,256.961 277.936,256.919 277.868,256.89C279.27,255.724 280.249,253.987 281.281,252.548C281.972,251.585 282.657,250.762 283.605,250.054C283.853,249.869 284.43,249.65 284.252,249.276C284.207,249.18 284.141,249.1 284.06,249.033C285.073,248.61 285.899,247.668 286.654,246.92C288.113,245.474 289.664,244.143 291.042,242.612C291.939,241.615 292.864,240.637 293.557,239.481C293.639,239.344 294.174,238.57 294.083,238.401C294.076,238.387 294.066,238.375 294.055,238.364C294.436,238.014 294.746,237.577 295.034,237.112C295.936,235.66 296.552,234.152 297.089,232.534C297.679,230.753 298.446,229.013 298.679,227.138C298.736,226.682 298.766,226.22 298.747,225.76C298.744,225.686 298.768,225.39 298.692,225.353C298.565,225.291 298.421,225.267 298.269,225.271C298.373,225.189 298.467,225.103 298.551,225.012C298.842,224.696 298.931,224.268 299.045,223.867C299.485,222.319 298.928,220.837 299.119,219.295C299.256,218.191 299.502,215.497 299.53,214.381C299.54,214.005 299.623,213.323 299.211,213.112C299.141,213.076 299.069,213.049 298.994,213.03C299.454,212.419 299.767,211.676 300,210.884L300,182.291C299.241,181.601 298.33,180.782 297.493,180.434C296.082,179.848 294.583,179.979 293.095,179.974C291.052,179.966 288.996,179.908 286.954,179.965C284.89,180.023 283.319,178.818 282.455,181.563C281.917,183.274 282.109,185 282.212,185.423C282.306,184.891 282.433,184.359 282.708,183.887C283.952,181.746 287.376,182.691 289.343,183.011C291.133,183.302 294.182,183.061 295.44,184.647C295.871,185.191 296.042,185.917 296.203,186.577C296.87,189.316 297.017,192.498 296.343,195.258C296.113,196.199 295.768,197.243 295.251,198.07C295.173,198.195 294.57,198.872 294.6,198.971C294.628,199.063 294.78,198.906 294.874,198.886C295.048,198.849 295.228,198.82 295.406,198.81C295.895,198.783 296.257,198.994 296.441,199.461C296.753,200.257 296.525,201.206 296.466,202.026C296.328,203.936 296.13,205.88 295.914,207.783C295.733,209.382 295.453,211.669 294.449,213.018C293.978,213.649 293.367,214.14 292.772,214.647C292.599,214.795 292.194,214.916 292.284,215.125C292.435,215.477 293.559,215.148 293.796,215.113C294.091,215.07 294.394,215.029 294.7,214.983C295.631,215.177 295.983,216.002 296.071,216.951C296.232,218.708 295.724,222.392 295.34,224.113C295.136,225.027 294.728,225.868 294.043,226.517C293.814,226.734 293.547,226.916 293.29,227.099C293.215,227.153 293.138,227.202 293.056,227.245C293.008,227.271 292.854,227.33 292.908,227.318C293.719,227.139 294.502,226.906 295.279,226.614C295.348,226.588 295.421,226.562 295.497,226.534C295.073,226.798 294.648,227.059 294.188,227.257C293.307,227.638 292.413,227.732 291.499,227.967L291.397,227.992C292.598,228.007 293.162,229.375 293.045,230.391C292.804,232.478 291.966,234.898 290.568,236.503C289.801,237.383 288.775,237.793 287.654,237.989C287.308,238.05 286.954,238.096 286.602,238.103C286.488,238.106 286.374,238.099 286.261,238.092C286.2,238.088 286.024,238.054 286.08,238.077C286.938,238.425 287.941,238.537 288.849,238.716C289.06,238.757 289.273,238.804 289.486,238.85C288.165,238.966 286.87,238.881 285.495,238.432L285.192,238.535C285.66,238.814 286.281,239.101 286.45,239.667C286.681,240.438 286.234,241.301 285.818,241.924C284.815,243.424 283.569,245.059 282.164,246.215C281.449,246.804 280.457,246.979 279.562,247.083C279.286,247.115 279.004,247.152 278.725,247.139C278.591,247.133 278.287,246.954 278.328,247.082C278.364,247.196 278.42,247.305 278.49,247.411L277.709,247.228C278.002,247.699 278.518,248.229 278.535,248.818C278.561,249.674 277.731,250.744 277.251,251.377C276.004,253.021 274.859,254.79 273.118,255.968C272.229,256.571 271.274,256.985 270.247,257.292C269.904,257.395 269.562,257.491 269.212,257.565C269.084,257.592 268.956,257.622 268.828,257.647C268.767,257.659 268.6,257.639 268.646,257.68C269.117,258.114 269.82,258.253 270.485,258.359C271.755,259.219 271.888,260.476 271.851,262.046C271.818,263.465 271.63,264.894 271.465,266.304C271.381,267.023 271.28,267.795 270.936,268.443C270.819,268.665 270.676,268.865 270.512,269.054C270.425,269.154 270.137,269.29 270.252,269.355C270.359,269.416 270.509,269.429 270.629,269.433C271.464,269.46 272.269,268.885 272.943,268.46C274.16,267.695 275.388,266.791 275.958,265.408C276.141,264.964 276.267,264.493 276.365,264.01Z" style="fill:#d17a00;fill-opacity:0.25;"/>
                <path d="M300,182.041C299.608,181.072 299.029,180.183 298.173,179.433C297.965,179.252 297.649,179.272 297.467,179.48C297.285,179.688 297.306,180.004 297.514,180.186C299.778,182.169 299.812,185.249 299.825,188.059C299.835,190.334 299.843,192.599 299.816,194.864C299.738,194.895 299.667,194.946 299.611,195.015C298.622,196.242 296.427,197.814 295.005,198.331C291.208,199.71 286.246,200.168 283.07,197.163C283.043,197.137 283.013,197.115 282.981,197.096C282.887,194.615 282.783,192.129 282.745,189.631C282.722,188.107 282.531,186.232 282.623,184.424C282.709,182.722 283.038,181.075 284.074,179.89C284.256,179.682 284.235,179.366 284.027,179.184C283.82,179.003 283.504,179.024 283.322,179.231C282.371,180.318 281.911,181.733 281.72,183.256C281.449,185.411 281.717,187.785 281.745,189.646C281.869,197.831 282.716,205.899 281.559,214.062C280.759,219.712 279.819,225.877 276.462,230.645C273.122,235.39 267.836,238.055 263.791,242.089C261.689,244.186 260.087,246.369 258.902,248.653C258.781,248.731 258.694,248.86 258.675,249.015C258.671,249.052 258.667,249.09 258.663,249.127C256.173,254.202 255.694,259.769 256.346,265.979C255.769,266.259 254.954,267.1 254.527,267.524C253.309,268.732 252.203,269.95 251.18,271.345C250.251,272.612 249.392,273.97 248.664,275.363C248.084,276.471 247.642,277.64 247.275,278.834C245.572,284.372 245.577,291.355 250.383,295.387C252.287,296.983 254.586,297.977 257.103,297.924C260.883,297.843 264.317,295.184 265.522,291.695C265.537,291.848 265.623,291.988 265.756,292.07C266.116,292.749 266.558,293.397 267.098,294.006C267.81,294.809 268.649,295.56 269.587,296.088C270.314,296.497 271.109,296.854 271.93,297.019C273.189,297.272 274.466,297.089 275.672,296.686C279.169,295.515 281.588,292.472 282.654,288.996C283.872,285.028 283.227,280.462 281.849,276.626C281.431,275.464 280.881,274.366 280.357,273.255C281.008,273.377 281.715,273.383 282.408,273.284C283.6,273.112 284.748,272.629 285.506,271.936C287.255,270.336 287.907,267.812 287.099,265.599C286.619,264.285 285.473,263.404 284.292,262.748C282.021,261.486 279.818,261.035 277.272,260.846C277.525,259.503 277.887,258.189 278.537,256.916C278.585,256.887 278.632,256.856 278.679,256.826C278.866,256.703 278.944,256.476 278.886,256.271C280.319,253.742 282.286,251.564 284.409,249.485C284.638,249.461 284.822,249.281 284.852,249.053C285.657,248.277 286.479,247.512 287.301,246.744C290.691,243.576 294.051,240.37 296.078,236.253C298.453,231.426 299.502,223.875 299.764,218.589C299.842,217.015 299.921,215.441 300,213.867L300,182.041ZM264.388,291.867C264.361,291.843 264.336,291.814 264.314,291.783C263.002,289.867 260.764,288.913 258.423,288.728C256.046,288.54 253.555,289.144 251.768,290.392C250.786,291.079 249.895,291.721 249.34,292.801C249.81,293.458 250.369,294.069 251.026,294.621C252.743,296.061 254.811,296.972 257.082,296.924C260.268,296.856 263.179,294.73 264.388,291.867ZM281.51,289.271L281.509,289.27C280.637,287.905 279.019,287.394 277.492,287.049C275.468,286.592 272.999,286.676 270.882,287.442C268.914,288.153 267.247,289.458 266.584,291.502C266.919,292.148 267.334,292.765 267.846,293.343C268.486,294.064 269.235,294.742 270.077,295.216C270.714,295.575 271.408,295.894 272.128,296.039C273.213,296.257 274.314,296.086 275.354,295.738C278.352,294.734 280.46,292.203 281.51,289.271ZM280.763,276.577C280.628,276.598 280.486,276.565 280.371,276.472C279.39,275.681 277.966,275.373 276.75,275.25C273.63,274.935 270.351,275.678 267.616,277.188C266.598,277.75 265.541,278.429 264.779,279.323C264.6,279.533 264.285,279.558 264.074,279.379C264.014,279.328 263.968,279.264 263.939,279.195C260.695,277.275 255.973,277.13 252.507,278.065C250.966,278.48 249.559,279.28 248.123,279.958C248.077,279.98 248.029,279.994 247.981,280.001C246.946,283.882 246.795,288.37 248.738,291.851C249.365,290.899 250.232,290.246 251.196,289.573C253.158,288.202 255.891,287.525 258.502,287.731C260.937,287.923 263.259,288.883 264.768,290.723C264.828,290.48 264.876,290.233 264.91,289.983C264.299,287.924 264.203,285.693 264.243,283.496C264.247,283.22 264.475,283 264.751,283.005C265.027,283.01 265.247,283.238 265.242,283.514C265.207,285.513 265.27,287.547 265.786,289.433C265.892,289.537 265.951,289.686 265.935,289.844C265.932,289.867 265.93,289.889 265.927,289.912C265.961,290.016 265.996,290.12 266.032,290.223C266.728,288.852 267.853,287.82 269.201,287.096C271.738,285.735 275.073,285.478 277.712,286.074C279.236,286.418 280.808,286.956 281.866,288.102C282.784,284.481 282.147,280.413 280.908,276.964C280.861,276.834 280.813,276.705 280.763,276.577ZM280.764,262.397C279.599,262.087 278.398,261.929 277.104,261.836C276.979,262.642 276.878,263.457 276.763,264.278C276.822,264.372 276.85,264.486 276.835,264.605C276.439,267.737 273.44,269.5 270.618,270.075C267.957,270.618 264.431,270.894 261.453,270.044C259.573,269.507 257.911,268.525 256.786,266.908C256.772,266.905 256.759,266.901 256.746,266.897C256.254,267.147 255.591,267.876 255.231,268.233C254.05,269.405 252.978,270.584 251.986,271.936C251.087,273.163 250.255,274.478 249.55,275.826C249.062,276.758 248.678,277.737 248.355,278.736C249.62,278.117 250.884,277.467 252.246,277.099C255.919,276.109 260.909,276.283 264.372,278.29C265.166,277.489 266.162,276.848 267.133,276.313C270.042,274.706 273.531,273.919 276.851,274.255C277.925,274.364 279.133,274.618 280.147,275.144C279.784,274.36 279.398,273.587 279.046,272.797L279.042,272.795C278.801,272.66 278.714,272.356 278.849,272.115L278.853,272.108C278.888,271.958 278.991,271.826 279.143,271.761C279.397,271.653 279.691,271.771 279.8,272.025L279.815,272.061C280.107,272.184 280.427,272.266 280.763,272.311C280.774,272.302 280.785,272.293 280.797,272.285C282.21,271.313 282.82,269.447 282.8,267.554C282.78,265.628 282.104,263.654 280.848,262.497C280.815,262.466 280.787,262.433 280.764,262.397ZM282.542,263.004C283.343,264.287 283.783,265.926 283.8,267.543C283.819,269.329 283.321,271.076 282.27,272.293C283.253,272.151 284.206,271.77 284.831,271.198C286.282,269.871 286.83,267.778 286.159,265.942C285.763,264.857 284.782,264.164 283.807,263.622C283.384,263.387 282.963,263.183 282.542,263.004ZM258.812,251.285C257.065,255.743 256.781,260.593 257.347,265.931C258.329,267.601 259.921,268.566 261.728,269.082C264.551,269.889 267.895,269.61 270.418,269.095C272.687,268.633 275.157,267.356 275.748,264.991C275.699,264.9 275.678,264.793 275.695,264.684C276.057,262.251 276.254,259.866 277.141,257.591C276.203,257.94 275.203,258.137 274.218,258.278C273.022,258.448 271.822,258.501 270.615,258.481C269.677,258.467 268.744,258.398 267.822,258.223C265.331,257.752 262.343,256.396 260.478,254.313C259.686,253.429 259.094,252.416 258.812,251.285ZM270.701,237.635C268.579,239.292 266.404,240.896 264.498,242.797C262.382,244.908 260.794,247.109 259.642,249.417C259.498,251.513 260.592,253.235 262.151,254.538C263.844,255.952 266.087,256.877 268.007,257.241C268.874,257.404 269.75,257.468 270.631,257.482C271.785,257.5 272.933,257.451 274.077,257.288C275.35,257.106 276.656,256.836 277.783,256.201C279.142,253.667 281.02,251.475 283.081,249.399C280.384,249.045 277.685,247.659 275.487,245.685C273.056,243.503 271.242,240.608 270.701,237.635ZM276.992,231.618C275.458,233.681 273.562,235.357 271.578,236.943C271.601,236.989 271.618,237.04 271.625,237.095C272.04,239.988 273.793,242.821 276.155,244.941C278.418,246.972 281.243,248.354 284.012,248.478C284.867,247.648 285.743,246.831 286.618,246.014C289.025,243.764 291.426,241.502 293.315,238.886C288.389,240.115 282.719,238.528 279.229,234.81C278.354,233.878 277.509,232.81 276.992,231.618ZM280.624,224.023C279.929,226.356 279,228.597 277.687,230.619L277.692,230.634C278.102,231.963 279.019,233.126 279.958,234.126C283.476,237.873 289.375,239.295 294.196,237.577C294.551,237.008 294.881,236.42 295.18,235.811C296.529,233.07 297.434,229.429 298.006,225.846C297.122,226.455 296.136,226.915 295.124,227.272C292.231,228.293 288.379,228.581 285.21,227.491C283.342,226.849 281.709,225.732 280.624,224.023ZM282.753,212.586C282.694,213.125 282.626,213.663 282.549,214.202C282.157,216.97 281.724,219.857 281.004,222.65C281.021,222.673 281.035,222.697 281.048,222.724C282.208,225.174 284.504,226.455 287.047,226.946C289.659,227.45 292.536,227.125 294.791,226.329C296.032,225.891 297.232,225.293 298.218,224.411C298.503,222.325 298.678,220.303 298.765,218.54C298.855,216.726 298.946,214.912 299.037,213.099C298.079,213.841 296.96,214.395 295.848,214.823C291.455,216.518 285.777,216.345 282.753,212.586ZM299.795,196.292C298.578,197.493 296.661,198.793 295.346,199.271C291.469,200.68 286.482,201.106 283.03,198.443C283.179,202.644 283.261,206.834 282.904,211.042C285.412,215.367 291.154,215.562 295.488,213.89C296.789,213.388 298.112,212.711 299.107,211.71C299.285,208.167 299.464,204.625 299.639,201.082C299.717,199.482 299.766,197.887 299.795,196.292Z" style="fill:#df8d00;"/>
            </g>
            <g>
                <path d="M0,182.004L0,223.945C0.681,233.665 2.623,243.204 8.102,251.346C12.538,257.939 19.368,262.31 24.561,268.293C23.502,269.101 22.682,270.072 21.89,271.164C21.33,271.937 20.832,272.785 20.567,273.707C20.368,274.399 20.266,275.147 20.265,275.867C20.261,278.51 22.355,280.175 24.905,280.163C27.247,280.151 29.435,279.397 31.098,277.826C31.396,280.422 31.865,282.969 33.115,285.316C34.235,287.418 36.18,289.383 38.367,290.377C42.05,292.05 47.497,291.61 49.49,287.608C50.621,285.335 50.752,282.94 50.265,280.616C50.988,281.038 51.729,281.444 52.524,281.699C55.581,282.676 59.623,282.099 61.507,279.306C62.043,278.512 62.417,277.626 62.675,276.706C62.951,275.722 63.099,274.76 63.03,273.735C62.91,271.953 62.233,270.241 61.411,268.678C58.86,263.832 53.982,260.435 48.854,258.738C46.92,258.098 44.929,257.891 42.97,257.411C40.196,253.64 35.651,251.728 32.017,248.996C27.066,245.274 23.009,240.294 20.911,234.436C16.609,222.424 17.899,208.597 17.883,196.065C17.876,190.876 18.878,184.732 17.048,179.729L17.043,179.715C16.776,179.032 16.109,178.474 15.196,178.059C13.336,177.215 10.424,176.916 8.721,176.778C7.564,176.684 6.436,176.731 5.294,176.949C4.549,177.09 3.797,177.27 3.093,177.558C0.928,178.447 0.253,179.958 0.029,181.747C0.018,181.832 0.009,181.918 0,182.004Z" style="fill:#ffa100;"/>
                <path d="M46.217,289.806C46.749,289.686 47.24,289.458 47.636,289.08C47.335,289.188 46.784,289.493 46.217,289.806C45.152,290.047 43.922,289.854 42.954,289.568C39.507,288.551 36.78,285.975 34.919,282.971C34.072,281.603 33.343,280.107 32.783,278.598C32.587,278.07 32.414,277.533 32.216,277.006C32.18,276.911 31.934,276.238 31.893,276.284C31.521,276.7 31.539,277.4 31.559,277.922C31.615,279.37 32.065,280.872 32.454,282.26C32.88,283.775 33.443,285.237 34.367,286.524C35.989,288.783 39.159,290.744 41.969,290.853C42.837,290.887 43.758,290.861 44.596,290.613C44.938,290.511 45.587,290.154 46.217,289.806ZM60.937,279.208C60.975,279.184 61.012,279.158 61.049,279.132C61.013,279.156 60.975,279.181 60.937,279.208C60.193,279.7 59.381,279.904 58.485,279.973C55.393,280.21 52.578,278.733 50.169,276.905C49.203,276.172 48.331,275.357 47.525,274.452C47.249,274.143 46.983,273.824 46.707,273.514C46.617,273.413 46.526,273.313 46.431,273.216C46.386,273.17 46.286,273.015 46.293,273.08C46.336,273.465 46.683,273.938 46.871,274.268C47.366,275.139 47.934,275.968 48.469,276.815C48.815,277.363 49.156,277.903 49.423,278.496C49.758,279.24 49.97,279.968 50.585,280.543C51.067,280.994 51.705,281.268 52.316,281.497C53.913,282.094 55.913,282.364 57.564,281.823C58.598,281.484 59.995,279.879 60.937,279.208ZM0,186.419C0.013,186.325 0.025,186.233 0.035,186.143C0.203,184.675 0.215,183.177 0.425,181.717C0.536,180.945 0.82,179.96 1.59,179.597C2.152,179.332 3.042,179.556 3.63,179.6C5.121,179.711 6.641,179.859 8.137,179.834C10.255,179.798 12.325,179.575 14.442,179.73C15.289,179.793 16.28,179.743 16.841,180.511C17.48,181.386 17.422,183.472 17.489,184.487C17.27,182.933 15.959,182.437 14.533,182.319C13.045,182.196 11.535,182.772 10.085,183.029C8.2,183.364 5.552,183.092 3.959,184.381C2.532,185.536 2.522,188.509 3.073,190.128C3.273,190.717 3.671,191.164 4.193,191.496C4.356,191.601 4.537,191.684 4.714,191.764C4.805,191.805 5.082,191.913 4.986,191.886C4.214,191.672 3.448,191.408 2.703,191.096C2.85,191.397 3.003,191.686 3.2,191.89L5.686,192.562C3.9,192.744 3.568,194.047 3.542,195.668C3.504,198.041 3.735,200.531 4.062,202.884C4.175,203.699 4.52,204.481 5.092,205.076C5.282,205.274 5.482,205.462 5.677,205.654C5.779,205.755 6.111,205.915 5.976,205.964C5.854,206.008 5.704,206.018 5.565,206.019L5.617,206.07C3.564,207.313 3.513,209.266 3.441,211.475C3.382,213.306 3.342,215.139 3.279,216.969C3.252,217.762 3.083,218.749 3.416,219.5C3.451,219.579 3.493,219.655 3.54,219.728L5.15,220.905C3.601,221.06 3.472,222.605 3.576,223.883C3.857,227.344 3.783,231.021 4.648,234.391C4.91,235.409 5.303,236.466 6.002,237.27C6.08,237.36 6.163,237.446 6.25,237.53L8.335,238.384C6.643,238.416 6.574,240.428 6.884,241.664C7.388,243.68 8.394,245.548 9.437,247.327C9.98,248.254 10.466,249.206 11.12,250.063C11.896,251.08 12.705,251.87 13.927,252.316C14.312,252.457 14.717,252.558 15.117,252.644C15.254,252.674 15.391,252.7 15.529,252.724C15.603,252.736 15.807,252.713 15.75,252.762C15.598,252.891 15.403,252.988 15.211,253.073L16.207,253.173C15.129,255.31 17.686,257.545 18.951,258.973C19.388,259.466 19.823,259.95 20.342,260.359C20.922,260.815 21.638,261.305 22.341,261.541C22.586,261.623 22.838,261.685 23.085,261.762C23.126,261.775 23.189,261.78 23.254,261.786L24.034,261.753C23.651,262.989 24.219,263.882 25.07,264.772C26.41,266.173 27.99,267.746 29.826,268.46C30.711,268.803 31.545,268.958 32.484,268.976C32.793,268.982 33.103,268.991 33.412,268.978C33.518,268.973 33.624,268.966 33.73,268.961C33.781,268.958 33.915,268.914 33.883,268.954C33.232,269.742 31.98,270.05 31.005,270.198C30.111,270.333 29.112,270.495 28.172,270.417C28.018,270.471 27.865,270.525 27.712,270.582C26.624,270.985 25.521,271.393 24.454,271.85C23.781,272.139 23.097,272.402 22.562,272.922C21.036,274.405 20.927,276.652 21.776,278.47L21.474,278.05C21.247,277.612 20.981,277.175 20.878,276.686C20.471,274.757 21.408,272.837 22.432,271.29C23.147,270.21 23.985,269.223 25.265,268.884C24.3,267.839 23.531,266.473 22.667,265.55C21.895,264.726 21.155,263.876 20.362,263.07C20.183,262.888 19.886,262.645 19.726,262.374C19.705,262.372 19.684,262.371 19.663,262.369C18.334,262.267 17.532,261.478 16.666,260.548C15.508,259.305 14.511,257.926 13.327,256.703C12.527,255.875 11.342,255.034 10.832,253.984C10.689,253.689 10.688,253.435 10.785,253.235C10.311,252.943 9.88,252.559 9.502,252.196C7.756,250.521 6.874,248.523 5.775,246.406C5.19,245.28 4.536,244.183 4.085,242.994C3.453,241.329 3.086,239.628 2.911,237.859C2.87,237.44 2.788,237.028 2.743,236.611C2.742,236.6 2.727,236.496 2.724,236.405C2.562,236.264 2.414,236.116 2.285,235.961C1.548,235.07 1.319,233.871 1.087,232.772C0.524,230.106 0.471,227.238 0.368,224.522C0.315,223.117 0.326,221.71 0.327,220.304C0.327,219.822 0.242,219.032 0.458,218.587C0.183,218.061 0.056,217.469 0,216.866L0,213.821C0.026,212.853 0.058,211.884 0.083,210.916C0.109,209.901 0.125,208.885 0.135,207.87C0.148,206.569 0.086,205.255 0.177,203.956C0.2,203.64 0.217,203.057 0.415,202.703C0.05,201.865 0.25,200.918 0.22,200.03C0.17,198.579 0.025,197.118 0,195.665L0,194.859C0.003,194.721 0.007,194.583 0.012,194.446C0.056,193.383 0.114,192.305 0.275,191.252C0.333,190.875 0.387,190.393 0.542,190.011C0.316,189.859 0.12,189.677 0,189.424L0,186.419Z" style="fill:#d17a00;fill-opacity:0.25;"/>
                <path d="M0,182.004L0,223.947C0.253,227.556 0.68,231.139 1.397,234.635L1.398,234.657C1.402,234.708 1.412,234.755 1.428,234.804L1.436,234.822C2.654,240.675 4.694,246.281 8.102,251.346C12.538,257.939 19.368,262.31 24.561,268.293C23.502,269.101 22.682,270.072 21.89,271.164C21.33,271.937 20.832,272.785 20.567,273.707C20.368,274.399 20.266,275.147 20.265,275.867C20.261,278.51 22.355,280.175 24.905,280.163C27.247,280.151 29.435,279.397 31.098,277.826C31.396,280.422 31.865,282.969 33.115,285.316C33.58,286.187 34.186,287.036 34.893,287.8C34.896,287.818 34.9,287.836 34.905,287.853C34.957,288.039 35.108,288.17 35.285,288.206C36.197,289.109 37.251,289.869 38.367,290.377C42.05,292.05 47.497,291.61 49.49,287.608C50.621,285.335 50.752,282.94 50.265,280.616C50.988,281.038 51.729,281.444 52.524,281.699C55.581,282.676 59.623,282.099 61.507,279.306C62.043,278.512 62.417,277.626 62.675,276.706C62.951,275.722 63.099,274.76 63.03,273.735C62.91,271.953 62.233,270.241 61.411,268.678C58.86,263.832 53.982,260.435 48.854,258.738C46.92,258.098 44.929,257.891 42.97,257.411C40.196,253.64 35.651,251.728 32.017,248.996C27.066,245.274 23.009,240.294 20.911,234.436C16.609,222.424 17.899,208.597 17.883,196.065C17.876,190.876 18.878,184.732 17.048,179.729L17.043,179.715C16.776,179.032 16.109,178.474 15.196,178.059C13.336,177.215 10.424,176.916 8.721,176.778C7.564,176.684 6.436,176.731 5.294,176.949C4.549,177.09 3.797,177.27 3.093,177.558C0.928,178.447 0.253,179.958 0.029,181.747C0.018,181.832 0.009,181.918 0,182.004ZM49.213,280.417C45.998,284.199 41.099,286.501 36.444,287.926C37.159,288.557 37.95,289.089 38.781,289.466C42.02,290.938 46.842,290.682 48.595,287.162C49.688,284.965 49.754,282.651 49.213,280.417ZM46.189,274.144C43.897,276.611 40.175,278.228 37.187,279.439C35.743,280.024 34.093,280.574 32.501,280.452C32.802,281.968 33.252,283.445 33.998,284.845C34.424,285.645 34.98,286.424 35.628,287.126C40.47,285.708 45.69,283.35 48.874,279.248C48.262,277.433 47.288,275.695 46.189,274.144ZM61.325,270.865C59.355,274.972 55.333,278.464 51.01,279.894C51.593,280.23 52.191,280.542 52.829,280.746C55.492,281.598 59.036,281.18 60.678,278.746C61.154,278.041 61.483,277.253 61.712,276.436C61.957,275.563 62.094,274.711 62.032,273.802C61.964,272.792 61.697,271.808 61.325,270.865ZM43.138,258.477C43.211,258.84 43.26,259.209 43.281,259.576C43.399,261.653 42.503,263.344 41.153,264.866C39.124,267.152 36.421,268.612 33.578,269.636C30.904,270.599 28.062,270.957 25.756,269.356C24.943,271.638 25.74,274.275 27.779,276.031C28.555,276.699 29.414,276.93 30.37,277.137C30.578,276.944 30.777,276.736 30.966,276.513C30.984,276.276 31.17,276.078 31.415,276.054C31.54,276.041 31.66,276.076 31.755,276.144C31.788,276.16 31.821,276.179 31.851,276.203C32.039,276.351 32.093,276.606 31.994,276.813C32.083,277.69 32.183,278.564 32.319,279.428C33.836,279.637 35.426,279.073 36.811,278.512C39.731,277.328 43.403,275.771 45.583,273.324C45.507,273.224 45.43,273.126 45.353,273.028C45.181,272.811 45.218,272.497 45.435,272.326C45.651,272.154 45.966,272.191 46.137,272.408C46.34,272.664 46.54,272.927 46.736,273.195C48.564,272.175 50.169,270.813 51.682,269.376C53.341,267.801 55.152,265.849 55.694,263.53C55.698,263.515 55.702,263.5 55.707,263.486C53.567,261.804 51.084,260.529 48.54,259.687C46.765,259.1 44.939,258.885 43.138,258.477ZM56.554,264.188C55.861,266.508 54.06,268.497 52.371,270.102C50.822,271.572 49.178,272.962 47.314,274.017C48.385,275.603 49.308,277.358 49.887,279.185C54.506,277.97 58.908,274.172 60.731,269.742C60.745,269.708 60.762,269.677 60.782,269.648C60.699,269.478 60.613,269.31 60.526,269.144C59.53,267.252 58.16,265.596 56.554,264.188ZM24.664,269.503C23.919,270.162 23.302,270.92 22.7,271.751C22.208,272.431 21.762,273.172 21.528,273.984C21.354,274.588 21.266,275.24 21.265,275.869C21.262,277.919 22.922,279.172 24.9,279.163C26.519,279.155 28.059,278.754 29.359,277.921C28.554,277.697 27.816,277.382 27.126,276.788C24.899,274.871 23.981,272.04 24.664,269.503ZM34.082,251.603C34.408,254.781 32.901,257.661 30.254,259.703C28.176,261.306 24.965,262.262 22.255,262.425C21.468,262.473 20.723,262.451 20.057,262.361C22.003,264.144 23.907,265.972 25.619,267.99L25.633,268.008C25.686,268.029 25.736,268.06 25.781,268.101C27.899,270.016 30.662,269.624 33.239,268.695C35.925,267.728 38.488,266.362 40.405,264.202C41.575,262.883 42.384,261.432 42.283,259.632C42.247,259.002 42.116,258.368 41.914,257.77C41.9,257.728 41.892,257.685 41.889,257.643C39.83,255.039 36.882,253.373 34.082,251.603ZM25.053,243.695C24.449,248.622 20.22,252.909 15.352,253.683C13.933,253.909 12.373,253.943 10.993,253.516C13.178,256.124 15.705,258.418 18.242,260.713C18.299,260.728 18.353,260.753 18.404,260.789C19.178,261.346 20.59,261.524 22.195,261.427C24.716,261.275 27.71,260.403 29.643,258.912C32.218,256.925 33.616,254.063 32.966,250.922C32.963,250.908 32.961,250.893 32.959,250.878C32.432,250.529 31.915,250.171 31.416,249.796C29.062,248.026 26.906,245.979 25.053,243.695ZM19.081,232.002C17.535,236.636 12.055,239.312 7.369,238.581C5.87,238.348 4.146,237.801 2.894,236.783C4.124,241.728 6.018,246.458 8.932,250.788C9.009,250.903 9.087,251.017 9.166,251.131C9.185,251.148 9.203,251.167 9.219,251.188C10.635,252.982 13.105,253.028 15.195,252.696C19.966,251.936 24.074,247.49 24.127,242.585C24.127,242.559 24.129,242.533 24.134,242.507C22.389,240.147 20.966,237.555 19.97,234.773C19.642,233.86 19.347,232.936 19.081,232.002ZM16.801,215.507C15.536,217.844 13.715,219.694 10.997,220.61C9.785,221.019 8.504,221.148 7.238,221.27C5.102,221.476 2.371,220.965 0.752,219.349C0.927,224.443 1.353,229.539 2.367,234.457C3.118,236.47 5.574,237.29 7.523,237.593C12.249,238.33 17.914,235.285 18.463,230.163C18.472,230.082 18.5,230.007 18.542,229.943C17.427,225.273 16.966,220.407 16.801,215.507ZM16.841,200.892C15.018,203.833 12.477,206.432 8.784,206.673C7.784,206.738 6.771,206.62 5.796,206.402C4.702,206.157 3.674,205.789 2.731,205.173C1.925,204.646 1.232,203.988 0.639,203.241C0.642,203.622 0.644,204.002 0.644,204.383C0.651,208.679 0.595,213.111 0.701,217.56C0.713,217.579 0.725,217.599 0.734,217.62C1.256,218.727 2.272,219.43 3.423,219.842C4.629,220.274 5.987,220.386 7.142,220.275C8.333,220.16 9.538,220.047 10.677,219.663C13.763,218.622 15.555,216.237 16.705,213.34C16.717,213.313 16.73,213.286 16.745,213.262C16.675,209.113 16.779,204.957 16.841,200.892ZM17.121,189.7C14.746,191.791 11.734,192.533 8.585,192.709C6.779,192.81 4.855,192.735 3.141,192.087C2.216,191.737 1.415,191.212 0.639,190.631C0.609,191.595 0.586,192.559 0.573,193.525C0.537,196.22 0.591,198.909 0.623,201.601C0.705,201.64 0.777,201.701 0.829,201.783C1.471,202.793 2.275,203.68 3.278,204.336C4.119,204.886 5.039,205.208 6.014,205.426C6.897,205.624 7.813,205.734 8.719,205.675C12.563,205.424 14.979,202.3 16.679,199.181C16.724,199.097 16.79,199.032 16.867,198.988C16.878,198.006 16.884,197.032 16.883,196.067C16.88,194.05 17.04,191.885 17.121,189.7ZM17.159,188.39C17.213,185.509 17.047,182.64 16.111,180.078C15.994,179.779 15.743,179.534 15.418,179.317C15.031,179.058 14.542,178.847 14.001,178.669C12.272,178.102 10.032,177.888 8.64,177.774C7.573,177.688 6.534,177.731 5.481,177.931C4.802,178.06 4.114,178.221 3.473,178.484C1.728,179.199 1.202,180.43 1.021,181.871C0.888,182.936 0.931,184.109 0.868,185.293C0.796,186.666 0.731,188.035 0.68,189.404C1.561,190.091 2.436,190.752 3.495,191.152C5.079,191.751 6.859,191.804 8.529,191.711C11.655,191.535 14.649,190.795 16.914,188.524C16.984,188.454 17.069,188.409 17.159,188.39Z" style="fill:#df8d00;"/>
            </g>
            <path d="M55.242,93.203C28.045,93.203 20.357,116.933 20.431,130.077L20.608,176.858C20.608,178.803 19.028,180.383 17.083,180.383L3.525,180.383C1.579,180.383 0,178.803 0,176.858L0,81.19C0,61.111 16.301,44.81 36.38,44.81L60.867,44.81C74.208,44.762 81.859,41.698 95.519,37.318C101.96,35.253 106.779,34.034 115.839,33.414C145.689,31.372 168.296,30.573 193.409,31.177C199.378,31.32 208.177,33.524 213.699,36.01C222.813,40.115 231.1,45.288 238.873,44.81L263.62,44.81C283.699,44.81 300,61.111 300,81.19L300,176.858C300,178.803 298.421,180.383 296.475,180.383L282.917,180.383C280.972,180.383 279.392,178.803 279.392,176.858L279.569,130.077C279.643,116.933 271.955,93.203 244.758,93.203L55.242,93.203Z" style="fill:#c48401;"/>
            <path d="M20.591,172.5L20.608,176.858C20.608,178.803 19.028,180.383 17.083,180.383L3.525,180.383C1.579,180.383 0,178.803 0,176.858L0,172.5L20.591,172.5ZM300,172.5L300,176.858C300,178.803 298.421,180.383 296.475,180.383L282.917,180.383C280.972,180.383 279.392,178.803 279.392,176.858L279.409,172.5L300,172.5Z" style="fill:#ec9f00;"/>
            <path d="M159.783,72.556C158.402,72.476 157.031,72.342 155.647,72.291C153.794,72.223 151.972,71.872 150.121,71.778C146.884,71.614 143.651,71.757 140.415,71.889C137.918,71.991 135.403,72.017 132.927,72.397C131.601,72.6 130.255,72.925 129.148,73.715C124.232,77.224 123.762,82.777 123.216,88.257C123.072,89.698 122.233,91.879 121.74,93.328C120.844,93.186 119.951,93.034 119.048,92.948C118.838,92.928 118.239,92.996 118.075,92.802C117.038,91.568 117.147,89.542 117.168,88.021C117.223,83.905 117.461,79.547 119.76,76.003C124.669,68.436 134.722,64.354 143.473,64.376C146.021,64.383 148.579,64.883 151.065,65.395C153.672,65.932 156.127,66.655 158.561,67.735C159.302,68.064 160.098,68.425 160.768,68.926C161.971,68.911 163.257,69.012 164.223,69.745C165.265,70.536 165.762,71.976 166.955,72.584C167.87,73.05 168.941,73.126 169.913,73.421C173.221,74.425 177.003,75.698 178.479,79.131C178.883,80.069 179.14,81.08 179.276,82.09C179.654,84.9 179.659,88.021 178.669,90.712C177.8,93.074 177.104,94.244 174.448,94.024C173.611,93.954 172.647,93.911 171.989,93.324C170.867,92.323 170.738,90.734 170.263,89.395C169.443,87.09 168.563,84.673 166.85,82.876C164.208,80.103 160.81,76.85 159.761,73.028L159.783,72.556Z" style="fill:#b77c04;"/>
            <path d="M0,172.412C-0.005,172.441 -0.008,172.47 -0.008,172.5C-0.008,172.53 -0.005,172.559 0,172.588L0,179.693C0.83,180.723 2.101,181.383 3.525,181.383L17.083,181.383C19.58,181.383 21.608,179.355 21.608,176.858L21.431,130.072C21.359,117.295 28.805,94.203 55.242,94.203L244.758,94.203C271.195,94.203 278.641,117.295 278.569,130.072L278.392,176.858C278.392,179.355 280.42,181.383 282.917,181.383L296.475,181.383C297.899,181.383 299.17,180.723 300,179.693L300,72.573C296.106,56.092 281.286,43.81 263.62,43.81C263.62,43.81 238.873,43.81 238.873,43.81C238.853,43.81 238.832,43.811 238.812,43.812C235.067,44.042 231.204,42.888 227.174,41.206C222.999,39.462 218.658,37.147 214.109,35.099C208.482,32.564 199.516,30.323 193.433,30.177C168.29,29.573 145.656,30.372 115.771,32.417C106.605,33.044 101.729,34.277 95.214,36.366C81.672,40.708 74.09,43.762 60.865,43.81C60.865,43.81 36.38,43.81 36.38,43.81C18.714,43.81 3.894,56.092 0,72.573L0,172.412ZM19.593,173L1,173L1,176.858C1,178.251 2.131,179.383 3.525,179.383C3.525,179.383 17.083,179.383 17.083,179.383C18.476,179.383 19.607,178.252 19.608,176.859L19.593,173ZM299,173L280.407,173L280.392,176.858C280.393,178.252 281.524,179.383 282.917,179.383C282.917,179.383 296.475,179.383 296.475,179.383C297.869,179.383 299,178.251 299,176.858L299,173ZM280.416,170.72L280.411,172L299,172L299,81.19C299,61.663 283.147,45.81 263.62,45.81C263.62,45.81 238.902,45.81 238.909,45.81C234.888,46.051 230.73,44.858 226.404,43.051C222.213,41.301 217.854,38.978 213.288,36.922C207.871,34.483 199.241,32.317 193.385,32.176C181.618,31.894 170.402,31.919 158.731,32.237C158.705,33.476 158.686,34.716 158.673,35.958C158.668,36.51 158.215,36.954 157.663,36.948C157.111,36.942 156.668,36.49 156.674,35.938C156.686,34.722 156.705,33.507 156.73,32.294C155.807,32.322 154.881,32.351 153.951,32.382C154.003,32.503 154.031,32.636 154.031,32.775C154.031,41.626 154.891,50.438 155.16,59.278C155.492,70.214 155.416,81.324 156.794,92.203L160.21,92.203C160.171,92.117 160.145,92.024 160.132,91.926C159.961,90.602 159.795,89.276 159.635,87.947C159.57,87.399 159.961,86.901 160.509,86.835C161.057,86.769 161.555,87.161 161.621,87.709C161.78,89.031 161.945,90.351 162.115,91.669C162.14,91.857 162.11,92.041 162.038,92.203L244.758,92.203C272.715,92.203 280.645,116.571 280.569,130.081L280.419,169.72L281.648,169.72C281.924,169.72 282.148,169.944 282.148,170.22C282.148,170.496 281.924,170.72 281.648,170.72L280.416,170.72ZM19.581,169.806L19.431,130.083C19.355,116.571 27.285,92.203 55.242,92.203L154.778,92.203C153.425,81.343 153.492,70.254 153.161,59.339C152.891,50.479 152.031,41.646 152.031,32.775C152.031,32.66 152.051,32.55 152.086,32.447C140.882,32.85 129.103,33.509 115.907,34.412C106.953,35.025 102.19,36.229 95.825,38.27C82.047,42.688 74.326,45.762 60.871,45.81L36.38,45.81C16.853,45.81 1,61.663 1,81.19L1,169.821C1.084,169.758 1.188,169.72 1.301,169.72L3.301,169.72C3.577,169.72 3.801,169.944 3.801,170.22C3.801,170.496 3.577,170.72 3.301,170.72L1.301,170.72C1.188,170.72 1.084,170.683 1,170.619L1,172L19.589,172L19.584,170.632C19.504,170.688 19.406,170.72 19.301,170.72L17.301,170.72C17.025,170.72 16.801,170.496 16.801,170.22C16.801,169.944 17.025,169.72 17.301,169.72L19.301,169.72C19.405,169.72 19.501,169.752 19.581,169.806ZM287.648,170.72L289.648,170.72C289.924,170.72 290.148,170.496 290.148,170.22C290.148,169.944 289.924,169.72 289.648,169.72L287.648,169.72C287.372,169.72 287.148,169.944 287.148,170.22C287.148,170.496 287.372,170.72 287.648,170.72ZM291.648,170.72L293.648,170.72C293.924,170.72 294.148,170.496 294.148,170.22C294.148,169.944 293.924,169.72 293.648,169.72L291.648,169.72C291.372,169.72 291.148,169.944 291.148,170.22C291.148,170.496 291.372,170.72 291.648,170.72ZM295.648,170.72L297.648,170.72C297.924,170.72 298.148,170.496 298.148,170.22C298.148,169.944 297.924,169.72 297.648,169.72L295.648,169.72C295.372,169.72 295.148,169.944 295.148,170.22C295.148,170.496 295.372,170.72 295.648,170.72ZM9.301,170.72L11.301,170.72C11.577,170.72 11.801,170.496 11.801,170.22C11.801,169.944 11.577,169.72 11.301,169.72L9.301,169.72C9.025,169.72 8.801,169.944 8.801,170.22C8.801,170.496 9.025,170.72 9.301,170.72ZM13.301,170.72L15.301,170.72C15.577,170.72 15.801,170.496 15.801,170.22C15.801,169.944 15.577,169.72 15.301,169.72L13.301,169.72C13.025,169.72 12.801,169.944 12.801,170.22C12.801,170.496 13.025,170.72 13.301,170.72ZM283.648,170.72L285.648,170.72C285.924,170.72 286.148,170.496 286.148,170.22C286.148,169.944 285.924,169.72 285.648,169.72L283.648,169.72C283.372,169.72 283.148,169.944 283.148,170.22C283.148,170.496 283.372,170.72 283.648,170.72ZM5.301,170.72L7.301,170.72C7.577,170.72 7.801,170.496 7.801,170.22C7.801,169.944 7.577,169.72 7.301,169.72L5.301,169.72C5.025,169.72 4.801,169.944 4.801,170.22C4.801,170.496 5.025,170.72 5.301,170.72ZM158.753,79.978C158.887,81.308 159.029,82.638 159.176,83.964C159.236,84.513 159.731,84.909 160.28,84.848C160.828,84.787 161.224,84.293 161.163,83.744C161.017,82.423 160.877,81.101 160.742,79.776C160.687,79.227 160.196,78.826 159.647,78.882C159.097,78.937 158.697,79.428 158.753,79.978ZM158.019,71.992C158.128,73.325 158.244,74.657 158.367,75.987C158.417,76.536 158.905,76.942 159.454,76.891C160.004,76.841 160.409,76.353 160.358,75.804C160.237,74.48 160.121,73.155 160.012,71.828C159.967,71.278 159.483,70.868 158.933,70.914C158.383,70.959 157.973,71.442 158.019,71.992ZM157.437,63.994C157.521,65.329 157.612,66.662 157.709,67.995C157.749,68.545 158.228,68.96 158.778,68.92C159.329,68.88 159.743,68.4 159.703,67.85C159.607,66.523 159.517,65.196 159.433,63.869C159.398,63.318 158.923,62.899 158.372,62.934C157.821,62.968 157.402,63.444 157.437,63.994ZM157.012,55.986C157.07,57.321 157.134,58.656 157.205,59.991C157.234,60.542 157.705,60.966 158.256,60.937C158.807,60.908 159.231,60.436 159.202,59.885C159.131,58.557 159.067,57.228 159.01,55.9C158.986,55.349 158.52,54.92 157.968,54.944C157.417,54.968 156.988,55.435 157.012,55.986ZM156.749,47.97C156.779,49.305 156.816,50.642 156.86,51.979C156.878,52.53 157.341,52.963 157.892,52.945C158.444,52.927 158.877,52.465 158.859,51.913C158.815,50.583 158.778,49.254 158.749,47.925C158.736,47.373 158.278,46.935 157.727,46.948C157.175,46.96 156.737,47.418 156.749,47.97ZM156.655,39.949C156.656,41.284 156.665,42.622 156.681,43.96C156.687,44.512 157.14,44.954 157.692,44.948C158.244,44.941 158.687,44.488 158.68,43.936C158.665,42.605 158.656,41.275 158.655,39.947C158.654,39.395 158.206,38.948 157.654,38.948C157.102,38.949 156.654,39.397 156.655,39.949Z" style="fill:#9e6a00;"/>
            <g>
                <path d="M137.168,102.137C138.464,107.913 142.157,114.649 139.328,120.54C136.538,126.35 129.488,129.137 122.792,125.909C120.048,124.586 116.575,122.404 116.284,115.954C115.994,109.528 119.836,103.969 120.437,97.644C120.873,93.063 119.797,88.441 120.413,83.879C121.027,79.325 122.722,74.984 126.464,72.156C128.732,70.442 133.389,68.575 138.665,68.276C145.034,67.914 155.514,69.74 156.278,69.938C158.66,70.554 163.158,71.102 163.747,74.189C164.087,75.972 160.892,76.2 159.778,76.384C155.118,77.155 150.384,76.775 145.697,77.35C143.461,77.624 141.225,78.089 139.062,78.716C137.573,79.148 136.124,79.73 134.782,80.513C133.883,81.038 133.035,81.716 132.32,82.475C128.13,86.922 133.21,92.664 135.347,97.057C135.838,98.065 136.698,101.119 137.168,102.137Z" style="fill:#cd301b;"/>
                <path d="M129.156,128.267C129.267,128.28 129.383,128.274 129.497,128.247C134.139,127.928 138.212,125.175 140.229,120.973C141.745,117.817 141.553,114.436 140.769,111.069C140.038,107.929 138.791,104.804 138.144,101.918C138.128,101.849 138.105,101.782 138.076,101.717C137.604,100.696 136.739,97.631 136.246,96.619C135.187,94.442 133.394,91.934 132.39,89.416C131.524,87.245 131.258,85.061 133.048,83.161C133.698,82.47 134.468,81.854 135.287,81.377C136.557,80.635 137.931,80.085 139.341,79.676C141.453,79.064 143.636,78.611 145.819,78.343C150.519,77.766 155.267,78.144 159.942,77.371C160.672,77.25 162.216,77.089 163.259,76.577C164.332,76.049 164.959,75.206 164.729,74.002C164.435,72.459 163.397,71.391 162.021,70.655C160.299,69.733 158.019,69.355 156.529,68.97C155.751,68.768 145.088,66.91 138.608,67.277C133.093,67.59 128.232,69.566 125.861,71.359C121.901,74.351 120.072,78.926 119.422,83.746C118.804,88.32 119.878,92.955 119.442,97.549C119.149,100.635 118.054,103.532 117.078,106.443C116.04,109.544 115.134,112.661 115.285,115.999C115.601,123.005 119.377,125.373 122.358,126.81C124.639,127.91 126.957,128.361 129.156,128.267ZM135.088,99.197C134.851,98.491 134.625,97.858 134.448,97.494C133.37,95.278 131.555,92.72 130.532,90.157C129.371,87.246 129.192,84.337 131.592,81.789C132.373,80.961 133.297,80.222 134.278,79.649C135.69,78.825 137.216,78.21 138.784,77.756C140.998,77.113 143.287,76.638 145.575,76.358C150.248,75.784 154.969,76.166 159.615,75.398C160.137,75.312 161.148,75.223 161.988,74.939C162.233,74.856 162.464,74.759 162.639,74.624C162.719,74.562 162.786,74.489 162.765,74.377C162.535,73.174 161.478,72.533 160.312,72.065C158.858,71.482 157.185,71.205 156.028,70.906C155.277,70.712 144.979,68.919 138.721,69.274C133.685,69.56 129.232,71.318 127.066,72.954C123.543,75.617 121.983,79.723 121.404,84.013C120.789,88.562 121.867,93.171 121.433,97.738C121.125,100.977 119.998,104.023 118.975,107.079C118.014,109.946 117.143,112.822 117.283,115.909C117.549,121.803 120.719,123.799 123.227,125.009C125.225,125.972 127.259,126.355 129.182,126.251C131.494,125.469 132.117,124.155 132.637,122.831C133.967,119.443 133.231,115.459 132.724,111.975C132.549,110.775 132.372,109.576 132.167,108.382C131.899,106.818 131.689,105.237 131.524,103.66C131.304,101.562 131.299,99.41 131.305,97.302C131.307,96.75 131.756,96.304 132.308,96.305C132.86,96.307 133.307,96.756 133.305,97.308C133.299,99.345 133.3,101.424 133.513,103.451C133.674,104.985 133.878,106.523 134.139,108.044C134.346,109.255 134.526,110.47 134.703,111.686C135.258,115.498 135.954,119.856 134.499,123.562C134.321,124.016 134.133,124.467 133.9,124.906C134.678,124.477 135.4,123.953 136.051,123.346C136.09,123.259 136.127,123.171 136.163,123.082C136.241,122.888 136.427,122.77 136.624,122.769C136.916,122.451 137.191,122.114 137.446,121.76C137.342,121.831 137.212,121.863 137.078,121.839C136.806,121.791 136.625,121.532 136.672,121.26C136.783,120.632 136.838,119.99 136.856,119.344C136.864,119.068 137.094,118.85 137.37,118.858C137.646,118.865 137.863,119.096 137.856,119.371C137.836,120.066 137.776,120.757 137.657,121.433C137.655,121.444 137.653,121.455 137.65,121.466C137.938,121.037 138.198,120.583 138.426,120.108C139.74,117.373 139.5,114.44 138.821,111.522C138.097,108.412 136.869,105.317 136.214,102.453C136.121,102.238 136.015,101.954 135.901,101.63C135.839,101.835 135.648,101.984 135.423,101.985C135.147,101.985 134.923,101.762 134.922,101.486C134.921,100.806 134.944,100.127 134.998,99.448C135.005,99.354 135.038,99.269 135.088,99.197ZM136.631,115.424C136.649,115.582 136.667,115.74 136.683,115.898C136.734,116.388 136.78,116.887 136.812,117.391C136.83,117.666 137.068,117.876 137.343,117.858C137.619,117.84 137.828,117.602 137.81,117.327C137.777,116.81 137.73,116.297 137.678,115.794C137.661,115.633 137.643,115.472 137.625,115.311C137.593,115.036 137.345,114.839 137.071,114.871C136.797,114.902 136.6,115.15 136.631,115.424ZM136.067,111.488C136.173,112.145 136.277,112.801 136.373,113.457C136.413,113.73 136.667,113.919 136.94,113.879C137.213,113.839 137.402,113.585 137.362,113.312C137.266,112.652 137.161,111.99 137.054,111.328C137.01,111.056 136.753,110.871 136.481,110.915C136.209,110.959 136.023,111.216 136.067,111.488ZM135.439,107.53C135.535,108.191 135.639,108.853 135.746,109.514C135.79,109.786 136.047,109.972 136.319,109.928C136.592,109.884 136.777,109.627 136.733,109.355C136.627,108.699 136.524,108.042 136.428,107.386C136.389,107.113 136.135,106.923 135.862,106.963C135.589,107.003 135.399,107.257 135.439,107.53ZM134.994,103.516C135.038,104.188 135.101,104.86 135.177,105.531C135.208,105.805 135.456,106.003 135.731,105.972C136.005,105.94 136.202,105.692 136.171,105.418C136.096,104.762 136.035,104.106 135.992,103.45C135.973,103.175 135.735,102.966 135.46,102.984C135.184,103.002 134.976,103.241 134.994,103.516Z" style="fill:#9c231b;"/>
            </g>
            <g>
                <path d="M150.419,111.893C148.806,111.719 147.16,111.51 145.637,110.928C140.827,109.091 137.432,105.126 134.447,101.131C132.172,98.086 130.103,94.994 128.514,91.514C126.938,88.06 124.542,83.726 126.764,80.06C128.368,77.416 131.099,76.307 133.896,75.451C137.748,74.271 143.688,73.339 150.333,73.175C156.739,73.017 166.149,73.811 170.756,76.303C173.718,77.904 176.134,79.759 176.928,83.492C177.797,87.573 174.387,91.607 172.234,94.676C170.728,96.825 164.828,104.684 163.305,106.427C161.921,108.009 159.648,109.804 157.701,110.698C155.354,111.775 152.914,111.808 150.419,111.893Z" style="fill:#ffa100;"/>
                <path d="M175.609,80.52C175.753,85.197 172.477,89.068 169.809,92.604C166.805,96.587 164.356,100.723 160.593,104.089C159.198,105.337 157.704,106.615 155.945,107.317C154.461,107.91 152.897,108.088 151.316,108.163C150.102,108.221 148.916,108.246 147.724,107.944C145.289,107.327 143.125,105.766 141.155,104.279C138.588,102.34 137.069,100.604 135.294,97.868C134.181,96.153 132.415,93.861 131.532,92.029C130.496,89.881 128.996,87.984 128.008,85.807C127.66,85.041 127.298,84.274 126.968,83.5C126.857,83.241 126.735,82.985 126.636,82.72C126.586,82.584 126.587,82.205 126.487,82.311C126.031,82.791 126.032,83.551 126.08,84.165C126.269,86.584 127.579,88.536 128.804,90.551C129.73,92.075 130.54,93.663 131.441,95.201C132.312,96.689 132.793,98.373 133.746,99.815C134.822,101.443 136.266,102.918 137.621,104.314C141.712,108.528 147.121,113.353 153.469,112.487C155.113,112.263 156.484,111.473 157.93,110.72C158.899,110.216 159.903,109.79 160.831,109.21C161.822,108.591 162.511,107.601 163.274,106.738C164.072,105.836 164.967,105.021 165.749,104.105C167.566,101.975 168.758,99.544 170.323,97.242C172.021,94.745 173.738,92.308 175.283,89.71C176.259,88.067 177.247,86.447 177.114,84.455C177.027,83.147 176.318,81.604 175.609,80.52Z" style="fill:#d88800;"/>
                <path d="M150.695,108.261C150.074,108.234 149.46,108.109 148.857,107.925C148.593,107.845 148.314,107.994 148.233,108.257C148.152,108.521 148.301,108.801 148.565,108.882C149.249,109.091 149.946,109.229 150.652,109.26C150.927,109.272 151.161,109.058 151.173,108.783C151.185,108.507 150.971,108.273 150.695,108.261ZM154.434,107.678C153.838,107.89 153.223,108.051 152.589,108.151C152.316,108.194 152.13,108.45 152.173,108.722C152.216,108.995 152.472,109.181 152.745,109.138C153.44,109.029 154.115,108.853 154.769,108.62C155.029,108.528 155.165,108.242 155.073,107.982C154.981,107.722 154.694,107.586 154.434,107.678ZM147.063,107.219C146.459,106.938 145.87,106.63 145.297,106.33C145.052,106.202 144.75,106.297 144.622,106.541C144.494,106.786 144.589,107.088 144.833,107.216C145.42,107.523 146.023,107.838 146.64,108.125C146.89,108.242 147.188,108.133 147.305,107.883C147.421,107.633 147.313,107.335 147.063,107.219ZM157.825,105.859C157.295,106.238 156.749,106.585 156.186,106.891C155.943,107.023 155.853,107.327 155.985,107.569C156.117,107.812 156.42,107.902 156.663,107.77C157.262,107.445 157.843,107.076 158.407,106.672C158.631,106.512 158.683,106.199 158.522,105.975C158.362,105.75 158.049,105.698 157.825,105.859ZM143.563,105.389C142.996,105.052 142.451,104.695 141.925,104.319C141.7,104.158 141.388,104.21 141.227,104.434C141.067,104.659 141.119,104.972 141.343,105.132C141.892,105.525 142.461,105.898 143.053,106.249C143.29,106.389 143.597,106.311 143.738,106.074C143.879,105.836 143.8,105.529 143.563,105.389ZM160.792,103.306C160.327,103.769 159.848,104.218 159.355,104.646C159.146,104.827 159.124,105.143 159.305,105.352C159.486,105.56 159.802,105.582 160.01,105.402C160.521,104.959 161.016,104.493 161.497,104.014C161.693,103.82 161.694,103.503 161.499,103.307C161.304,103.112 160.988,103.111 160.792,103.306ZM140.379,103.115C139.878,102.691 139.395,102.25 138.928,101.793C138.731,101.6 138.414,101.603 138.221,101.8C138.028,101.997 138.032,102.314 138.229,102.507C138.713,102.982 139.214,103.439 139.734,103.879C139.945,104.057 140.26,104.03 140.438,103.819C140.616,103.609 140.59,103.293 140.379,103.115ZM163.471,100.389C163.046,100.883 162.607,101.382 162.156,101.876C161.97,102.08 161.985,102.397 162.188,102.583C162.392,102.769 162.709,102.754 162.895,102.551C163.353,102.049 163.797,101.543 164.229,101.041C164.409,100.832 164.386,100.516 164.177,100.336C163.968,100.156 163.652,100.18 163.471,100.389ZM137.569,100.37C137.131,99.882 136.707,99.38 136.295,98.865C136.122,98.65 135.807,98.616 135.592,98.788C135.376,98.961 135.342,99.276 135.515,99.491C135.939,100.02 136.375,100.536 136.825,101.038C137.009,101.243 137.326,101.261 137.531,101.076C137.736,100.892 137.754,100.576 137.569,100.37ZM166.05,97.342C165.652,97.819 165.251,98.293 164.85,98.767C164.822,98.801 164.793,98.835 164.764,98.869C164.586,99.079 164.612,99.395 164.823,99.573C165.034,99.752 165.35,99.725 165.528,99.514C165.556,99.481 165.585,99.447 165.614,99.413C166.016,98.937 166.419,98.461 166.818,97.982C166.995,97.77 166.966,97.454 166.754,97.278C166.542,97.101 166.227,97.13 166.05,97.342ZM135.094,97.295C134.705,96.763 134.326,96.222 133.954,95.673C133.8,95.444 133.488,95.384 133.26,95.539C133.032,95.694 132.972,96.005 133.126,96.233C133.505,96.792 133.891,97.343 134.286,97.884C134.449,98.107 134.762,98.156 134.985,97.993C135.208,97.83 135.256,97.517 135.094,97.295ZM168.512,94.226C168.428,94.339 168.344,94.452 168.26,94.566C167.949,94.982 167.63,95.394 167.307,95.801C167.135,96.017 167.171,96.332 167.387,96.504C167.604,96.675 167.918,96.639 168.09,96.423C168.42,96.008 168.744,95.589 169.061,95.164C169.146,95.05 169.231,94.936 169.316,94.822C169.48,94.6 169.433,94.286 169.212,94.122C168.99,93.958 168.676,94.004 168.512,94.226ZM132.863,94.012C132.502,93.448 132.134,92.891 131.768,92.332C131.617,92.101 131.307,92.037 131.076,92.188C130.845,92.339 130.781,92.649 130.932,92.88C131.295,93.436 131.662,93.99 132.021,94.551C132.17,94.784 132.479,94.852 132.712,94.703C132.944,94.554 133.012,94.245 132.863,94.012ZM170.816,90.983C170.445,91.532 170.067,92.076 169.683,92.616C169.523,92.841 169.575,93.154 169.8,93.314C170.025,93.474 170.337,93.421 170.497,93.196C170.887,92.649 171.27,92.098 171.645,91.543C171.799,91.314 171.738,91.003 171.51,90.849C171.281,90.694 170.97,90.755 170.816,90.983ZM130.697,90.659C130.397,90.172 130.105,89.679 129.83,89.174C129.789,89.1 129.749,89.027 129.71,88.953C129.578,88.711 129.275,88.62 129.032,88.751C128.789,88.883 128.699,89.186 128.83,89.429C128.871,89.504 128.911,89.579 128.952,89.653C129.236,90.173 129.536,90.682 129.846,91.184C129.991,91.419 130.3,91.492 130.534,91.347C130.769,91.202 130.842,90.894 130.697,90.659ZM172.927,87.627C172.595,88.199 172.252,88.764 171.9,89.322C171.753,89.555 171.823,89.864 172.057,90.011C172.29,90.159 172.599,90.088 172.746,89.855C173.105,89.286 173.454,88.711 173.792,88.129C173.93,87.89 173.849,87.584 173.61,87.445C173.371,87.307 173.065,87.388 172.927,87.627ZM128.8,87.194C128.509,86.603 128.234,86.007 127.975,85.402C127.867,85.148 127.573,85.03 127.319,85.138C127.065,85.247 126.947,85.541 127.056,85.794C127.321,86.416 127.604,87.028 127.902,87.635C128.024,87.883 128.324,87.985 128.571,87.864C128.819,87.742 128.921,87.442 128.8,87.194ZM174.715,84.138C174.519,84.638 174.282,85.126 174.041,85.593C173.989,85.694 173.937,85.795 173.884,85.895C173.756,86.139 173.85,86.442 174.094,86.57C174.339,86.699 174.641,86.604 174.769,86.36C174.823,86.257 174.877,86.154 174.93,86.051C175.186,85.554 175.438,85.035 175.646,84.503C175.747,84.246 175.62,83.955 175.363,83.855C175.106,83.754 174.816,83.881 174.715,84.138ZM127.259,83.569C127.234,83.498 127.209,83.427 127.185,83.356C126.997,82.813 126.799,82.273 126.691,81.728C126.637,81.458 126.374,81.281 126.103,81.335C125.833,81.388 125.656,81.652 125.71,81.922C125.826,82.511 126.037,83.095 126.239,83.682C126.265,83.756 126.29,83.829 126.316,83.902C126.408,84.162 126.694,84.299 126.954,84.207C127.215,84.115 127.351,83.829 127.259,83.569ZM174.929,80.613C175.161,81.188 175.221,81.769 175.171,82.344C175.147,82.619 175.351,82.862 175.626,82.886C175.901,82.91 176.143,82.706 176.167,82.431C176.23,81.702 176.15,80.966 175.856,80.239C175.752,79.983 175.461,79.859 175.205,79.962C174.949,80.066 174.825,80.357 174.929,80.613Z" style="fill:#ab6c00;"/>
                <path d="M150.312,112.887C150.359,112.892 150.406,112.894 150.453,112.892C153.081,112.803 155.646,112.741 158.118,111.607C160.181,110.66 162.592,108.762 164.058,107.085C165.592,105.33 171.536,97.415 173.053,95.251C174.38,93.359 176.162,91.103 177.19,88.701C177.941,86.949 178.297,85.119 177.906,83.284C177.042,79.221 174.455,77.166 171.232,75.423C166.511,72.869 156.873,72.013 150.309,72.175C143.554,72.342 137.518,73.295 133.603,74.494C130.573,75.423 127.647,76.676 125.909,79.542C124.649,81.62 124.66,83.883 125.248,86.121C125.78,88.15 126.794,90.154 127.605,91.93C129.223,95.475 131.328,98.627 133.645,101.729C136.743,105.874 140.291,109.956 145.28,111.862C146.884,112.474 148.614,112.704 150.312,112.887ZM150.456,110.891C148.95,110.728 147.415,110.536 145.994,109.994C141.363,108.225 138.122,104.379 135.248,100.532C133.016,97.545 130.983,94.513 129.424,91.099C128.658,89.42 127.686,87.531 127.182,85.613C126.733,83.903 126.657,82.167 127.62,80.579C129.089,78.155 131.626,77.192 134.189,76.407C137.978,75.246 143.821,74.336 150.358,74.175C156.605,74.021 165.788,74.752 170.281,77.182C172.981,78.643 175.226,80.296 175.95,83.7C176.335,85.512 175.731,87.304 174.831,88.993C173.838,90.859 172.471,92.597 171.416,94.102C169.92,96.235 164.064,104.039 162.552,105.769C161.251,107.257 159.116,108.948 157.284,109.789C155.084,110.798 152.793,110.813 150.456,110.891Z" style="fill:#ab6c00;"/>
                <path d="M168.614,75.382C167.543,75.805 166.467,76.204 165.408,76.588C164.89,76.776 164.621,77.35 164.809,77.869C164.997,78.388 165.571,78.656 166.09,78.468C166.87,78.185 167.66,77.894 168.451,77.591C168.39,78.26 168.316,78.925 168.22,79.583C168.141,80.129 168.52,80.637 169.066,80.716C169.612,80.796 170.12,80.417 170.199,79.871C170.348,78.85 170.447,77.81 170.524,76.766C171.73,76.266 172.917,75.732 174.054,75.154C174.546,74.904 174.743,74.301 174.492,73.809C174.242,73.317 173.64,73.121 173.148,73.371C172.343,73.781 171.511,74.167 170.667,74.534C170.697,74.004 170.727,73.476 170.76,72.952C170.795,72.401 170.376,71.925 169.825,71.891C169.274,71.856 168.799,72.275 168.764,72.826C168.711,73.67 168.666,74.526 168.614,75.382ZM132.952,73.463C133.592,75.405 134.607,77.244 136.073,78.693C136.465,79.081 137.099,79.077 137.487,78.684C137.875,78.292 137.871,77.658 137.478,77.27C136.238,76.044 135.393,74.48 134.851,72.837C134.678,72.313 134.112,72.027 133.588,72.2C133.064,72.373 132.779,72.939 132.952,73.463ZM137.829,72.342C138.258,74.143 138.592,76.18 139.492,77.821C139.758,78.305 140.366,78.482 140.85,78.217C141.334,77.952 141.511,77.343 141.246,76.859C140.429,75.371 140.164,73.512 139.775,71.879C139.647,71.342 139.108,71.01 138.571,71.137C138.034,71.265 137.702,71.805 137.829,72.342Z" style="fill:#ab6c00;"/>
            </g>
            <g transform="matrix(1,0,0,1,4.54426,-2.53513)">
                <path d="M122.693,66.427C120.35,73.647 113.556,78.455 106.603,80.667C104.114,81.459 101.627,82.103 98.988,81.915C88.437,81.16 77.855,71.384 79.145,60.272C79.678,55.684 82.058,52.758 85.416,49.75C88.03,47.408 91.096,45.705 94.311,44.34C99.601,42.094 105.512,40.89 111.074,43.194C116.214,45.324 121.069,49.379 122.479,54.725C122.989,56.66 124.015,62.352 122.693,66.427Z" style="fill:#b77c04;"/>
            </g>
            <g transform="matrix(0.922445,0.132002,-0.130718,0.913473,21.1126,-20.7868)">
                <path d="M185.437,77.657C183.579,76.426 181.239,74.91 179.592,73.577C178.713,72.865 177.799,72.185 177.045,71.336C172.645,66.378 171.098,59.507 171.829,53.024C172.27,49.117 173.301,44.619 175.948,41.561C177.443,39.835 179.581,38.69 181.66,37.811C187.781,35.225 194.334,35.718 200.624,37.513C202.816,38.139 205.012,38.945 206.979,40.115C209.048,41.346 210.593,43.276 211.869,45.278C212.945,46.967 213.935,48.714 214.576,50.622C215.831,54.358 215.899,58.503 215.595,62.398C215.336,65.718 214.755,68.99 212.966,71.868C208.83,78.517 202.834,79.723 195.145,80.015C192.312,80.123 187.926,79.305 185.437,77.657Z" style="fill:#b77c04;"/>
            </g>
            <g>
                <path d="M189.101,73.647C186.369,72.937 184.151,71.927 182.245,70.46C180.205,68.891 178.156,67.143 176.792,64.921C174.875,61.801 174.495,57.528 175.021,53.976C175.713,49.311 178.792,44.619 182.703,41.95C186.98,39.03 193.076,39.333 196.439,40.259C200.386,41.345 204.173,44.116 206.766,48.23C207.99,50.17 208.958,52.301 209.452,54.559C210.584,59.727 209.051,65.756 205.359,69.58C203.075,71.947 200.194,72.891 197.069,73.597C194.65,74.144 191.518,74.274 189.101,73.647Z" style="fill:#fff;"/>
                <path d="M186.398,49.699L186.394,49.699C181.031,49.699 176.678,54.052 176.678,59.415C176.678,64.777 181.031,69.13 186.394,69.13C190.744,69.13 194.43,66.265 195.666,62.32C195.768,61.996 195.665,61.642 195.404,61.423C195.143,61.204 194.777,61.163 194.475,61.32C193.597,61.774 192.6,62.031 191.544,62.031C188.017,62.031 185.154,59.168 185.154,55.641C185.154,53.884 185.865,52.292 187.014,51.136L186.973,51.153C187.135,51 187.236,50.783 187.236,50.542C187.236,50.078 186.861,49.701 186.398,49.699ZM183.372,60.597C182.175,60.597 181.204,61.568 181.204,62.765C181.204,63.961 182.175,64.932 183.372,64.932C184.568,64.932 185.539,63.961 185.539,62.765C185.539,61.568 184.568,60.597 183.372,60.597Z" style="fill:#171717;"/>
                <path d="M188.912,74.373C191.437,75.028 194.708,74.9 197.234,74.329C200.505,73.59 203.508,72.578 205.899,70.101C209.759,66.103 211.368,59.802 210.185,54.399C209.672,52.055 208.67,49.843 207.401,47.83C204.7,43.545 200.749,40.667 196.638,39.536C193.122,38.568 186.752,38.278 182.28,41.33C178.205,44.112 175.001,49.005 174.28,53.866C173.728,57.582 174.148,62.05 176.153,65.314C177.565,67.613 179.677,69.431 181.787,71.054C183.77,72.579 186.072,73.635 188.912,74.373L188.912,74.373ZM189.289,72.921C186.666,72.239 184.533,71.274 182.702,69.865C180.734,68.351 178.748,66.672 177.431,64.529C175.603,61.553 175.261,57.474 175.763,54.086C176.426,49.618 179.38,45.126 183.126,42.569C187.208,39.783 193.03,40.098 196.24,40.982C200.023,42.023 203.646,44.687 206.132,48.63C207.309,50.497 208.244,52.546 208.72,54.72C209.8,59.653 208.344,65.409 204.82,69.059C202.641,71.316 199.883,72.192 196.904,72.866C194.592,73.388 191.6,73.52 189.289,72.921L189.289,72.921Z" style="fill:#9e6a00;"/>
                <path d="M186.267,70.344C185.452,71.789 184.686,73.302 184.041,74.833C183.88,75.215 184.06,75.655 184.441,75.816C184.822,75.976 185.263,75.797 185.423,75.416C186.046,73.938 186.786,72.477 187.573,71.082C187.777,70.721 187.65,70.263 187.289,70.06C186.929,69.856 186.471,69.984 186.267,70.344ZM205.43,51.494C206.661,50.067 208.48,48.919 210.214,48.207C210.597,48.05 210.781,47.612 210.623,47.229C210.466,46.846 210.028,46.662 209.645,46.82C207.702,47.617 205.673,48.916 204.294,50.515C204.024,50.828 204.059,51.302 204.372,51.573C204.686,51.843 205.16,51.808 205.43,51.494ZM203.383,49.855C204.271,47.372 206.113,45.334 207.783,43.353C208.049,43.037 208.009,42.563 207.693,42.297C207.376,42.03 206.903,42.07 206.636,42.387C204.853,44.501 202.919,46.699 201.971,49.35C201.831,49.739 202.034,50.169 202.424,50.308C202.814,50.448 203.244,50.245 203.383,49.855ZM178.175,44.396C177.359,44.43 176.543,44.504 175.727,44.614C175.317,44.669 175.029,45.047 175.084,45.457C175.139,45.867 175.517,46.155 175.927,46.1C176.758,45.989 177.59,45.916 178.421,45.887C178.557,46.584 178.722,47.276 178.921,47.96C179.037,48.357 179.453,48.586 179.851,48.471C180.248,48.355 180.477,47.939 180.362,47.541C180.202,46.993 180.066,46.439 179.95,45.882C180.735,45.905 181.521,45.967 182.306,46.072C182.716,46.127 183.094,45.838 183.149,45.428C183.203,45.017 182.915,44.64 182.504,44.585C181.565,44.46 180.626,44.391 179.687,44.376C179.572,43.572 179.493,42.763 179.444,41.951C179.419,41.538 179.064,41.223 178.65,41.247C178.237,41.272 177.922,41.628 177.947,42.041C177.995,42.829 178.069,43.615 178.175,44.396Z" style="fill:#9e6a00;"/>
            </g>
            <g>
                <path d="M101.337,76.142C98.911,75.673 97.016,74.687 94.948,73.376C93.106,72.208 91.507,71.111 90.184,69.331C89.286,68.122 88.585,66.739 88.059,65.329C87.623,64.161 87.349,62.987 87.248,61.743C86.636,54.161 92.723,48.672 98.825,45.372C102.409,43.434 106.787,41.963 110.914,42.558C115.041,43.153 120.125,45.376 121.992,49.242C123.202,51.749 124.177,54.805 124.426,57.533C124.69,60.443 124.234,63.842 122.125,66.969C118.234,72.738 108.897,77.605 101.337,76.142Z" style="fill:#fff;"/>
                <g transform="matrix(-1,0,0,1,299.686,0)">
                    <path d="M186.398,49.699L186.394,49.699C181.031,49.699 176.678,54.052 176.678,59.415C176.678,64.777 181.031,69.13 186.394,69.13C190.744,69.13 194.43,66.265 195.666,62.32C195.768,61.996 195.665,61.642 195.404,61.423C195.143,61.204 194.777,61.163 194.475,61.32C193.597,61.774 192.6,62.031 191.544,62.031C188.017,62.031 185.154,59.168 185.154,55.641C185.154,53.884 185.865,52.292 187.014,51.136L186.973,51.153C187.135,51 187.236,50.783 187.236,50.542C187.236,50.078 186.861,49.701 186.398,49.699ZM183.372,60.597C182.175,60.597 181.204,61.568 181.204,62.765C181.204,63.961 182.175,64.932 183.372,64.932C184.568,64.932 185.539,63.961 185.539,62.765C185.539,61.568 184.568,60.597 183.372,60.597Z" style="fill:#171717;"/>
                </g>
                <path d="M101.194,76.879C109.029,78.395 118.714,73.368 122.747,67.388C124.965,64.099 125.451,60.525 125.172,57.465C124.917,54.652 123.915,51.5 122.667,48.916C120.699,44.841 115.372,42.443 111.021,41.816C106.738,41.198 102.188,42.701 98.468,44.712C92.119,48.147 85.863,53.914 86.501,61.803C86.607,63.117 86.896,64.357 87.356,65.591C87.906,67.066 88.642,68.513 89.582,69.778C90.962,71.636 92.624,72.791 94.547,74.01C96.697,75.373 98.672,76.39 101.194,76.879L101.194,76.879ZM101.479,75.406C99.151,74.955 97.335,74.001 95.35,72.743C93.588,71.626 92.051,70.586 90.787,68.884C89.93,67.731 89.263,66.411 88.762,65.067C88.35,63.964 88.091,62.856 87.996,61.682C87.408,54.409 93.328,49.198 99.182,46.032C102.63,44.167 106.836,42.728 110.807,43.301C114.71,43.863 119.551,45.912 121.316,49.568C122.489,51.997 123.438,54.957 123.679,57.601C123.93,60.36 123.503,63.585 121.503,66.55C117.754,72.109 108.764,76.815 101.479,75.406L101.479,75.406Z" style="fill:#9e6a00;"/>
                <path d="M101.288,80.743C101.678,78.169 102.544,75.871 103.885,73.647C104.099,73.292 103.985,72.831 103.63,72.617C103.276,72.403 102.814,72.518 102.601,72.872C101.156,75.269 100.225,77.746 99.805,80.518C99.743,80.927 100.025,81.31 100.435,81.372C100.844,81.434 101.226,81.152 101.288,80.743ZM105.994,73.224C105.599,74.991 105.398,76.836 105.509,78.648C105.534,79.061 105.89,79.376 106.303,79.351C106.717,79.326 107.031,78.97 107.006,78.556C106.904,76.884 107.094,75.182 107.458,73.551C107.548,73.147 107.293,72.745 106.889,72.655C106.485,72.565 106.084,72.82 105.994,73.224ZM89.666,51.498C88.64,51.582 87.62,51.583 86.636,51.429C86.227,51.366 85.843,51.646 85.779,52.055C85.715,52.464 85.996,52.848 86.405,52.911C87.523,53.086 88.685,53.079 89.85,52.979C90.021,54.199 90.235,55.415 90.466,56.638C90.542,57.045 90.934,57.313 91.341,57.236C91.748,57.16 92.016,56.767 91.94,56.361C91.716,55.173 91.507,53.992 91.34,52.808C92.423,52.656 93.495,52.456 94.523,52.281C94.931,52.211 95.206,51.823 95.136,51.415C95.066,51.007 94.678,50.732 94.27,50.802C93.264,50.974 92.215,51.176 91.155,51.327C91.031,50.172 90.957,49.01 90.957,47.831C90.957,47.417 90.62,47.081 90.207,47.081C89.793,47.081 89.457,47.417 89.457,47.831C89.457,49.068 89.535,50.287 89.666,51.498ZM117.513,47.937C118.441,45.966 119.88,44.157 121.423,42.628C121.717,42.336 121.719,41.861 121.427,41.567C121.136,41.273 120.661,41.271 120.367,41.563C118.702,43.213 117.158,45.171 116.156,47.297C115.98,47.672 116.14,48.119 116.515,48.296C116.889,48.472 117.337,48.311 117.513,47.937Z" style="fill:#9e6a00;"/>
            </g>
        </g>
    </g>
</svg>
