<?xml version="1.0" encoding="UTF-8" standalone="no"?><!DOCTYPE svg PUBLIC "-//W3C//DTD SVG 1.1//EN" "http://www.w3.org/Graphics/SVG/1.1/DTD/svg11.dtd"><svg width="100%" height="100%" viewBox="0 0 1250 1438" version="1.1" xmlns="http://www.w3.org/2000/svg" xmlns:xlink="http://www.w3.org/1999/xlink" xml:space="preserve" xmlns:serif="http://www.serif.com/" style="fill-rule:evenodd;clip-rule:evenodd;stroke-linejoin:round;stroke-miterlimit:2;"><g id="Gnome"><g id="HatGnome"><path d="M1152.95,246.056l-1055.9,-0c134.474,-133.944 290.258,-185.149 527.95,-246.056c232.259,57.286 393.476,112.112 527.95,246.056Z" style="fill:#931d31;"/><path id="base_body_1" d="M1250,605.274c0,-83.661 -67.922,-151.583 -151.583,-151.583l-946.834,-0c-83.661,-0 -151.583,67.922 -151.583,151.583l0,-266.191c0,-83.661 67.922,-151.583 151.583,-151.583l946.834,0c83.661,0 151.583,67.922 151.583,151.583l0,266.191Z" style="fill:#b1233b;"/><path d="M48.423,396.387c30.222,-7.46 62.619,-13.832 101.075,-17.175c224.3,-19.495 451.114,-2.551 677.436,0c-227.256,-19.091 -456.601,-35.419 -675.892,-40.121c-54.999,-1.18 -84.913,18.867 -102.619,57.296Z" style="fill:#9b1c32;"/><path d="M687.985,283.637c132.075,10.445 260.199,14.963 400.25,37.373c44.619,7.14 86.98,31.047 122.969,59.073c-20.569,-47.166 -57.817,-88.848 -112.119,-95.24c-138.239,-16.273 -275.272,-9.805 -411.1,-1.206Z" style="fill:#9b1c32;"/><path id="base_body_11" serif:id="base_body_1" d="M1250,532.668l0,72.606c0,-83.661 -67.922,-151.583 -151.583,-151.583l-946.834,-0c-83.661,-0 -151.583,67.922 -151.583,151.583l0,-72.725c0,-55.773 67.922,-106.673 151.583,-106.673l946.834,0c83.661,0 151.583,62.53 151.583,106.792Z" style="fill:#931d31;"/></g></g></svg>