<?xml version="1.0" encoding="UTF-8" standalone="no"?><!DOCTYPE svg PUBLIC "-//W3C//DTD SVG 1.1//EN" "http://www.w3.org/Graphics/SVG/1.1/DTD/svg11.dtd"><svg width="100%" height="100%" viewBox="0 0 1250 1438" version="1.1" xmlns="http://www.w3.org/2000/svg" xmlns:xlink="http://www.w3.org/1999/xlink" xml:space="preserve" xmlns:serif="http://www.serif.com/" style="fill-rule:evenodd;clip-rule:evenodd;stroke-linejoin:round;stroke-miterlimit:2;"><g id="Firefighter"><g id="HatFirefighter"><g><path d="M-0,224.125l-0,-38.37c-0,-61.849 50.213,-112.062 112.062,-112.062l1025.88,-0c61.849,-0 112.062,50.213 112.062,112.062l0,38.37c0,163.729 -132.928,296.657 -296.657,296.657l-656.686,0c-163.729,0 -296.657,-132.928 -296.657,-296.657Z" style="fill:#a7200b;"/><path d="M1250,193.719l0,30.406c0,163.729 -132.928,296.657 -296.657,296.657l-656.686,0c-163.729,0 -296.657,-132.928 -296.657,-296.657l-0,-30.406c-0,163.73 132.928,296.657 296.657,296.657l656.686,0c163.729,0 296.657,-132.927 296.657,-296.657Z" style="fill:#841200;"/><path d="M625,379.606c-246.702,9.549 -484.232,-7.812 -536.864,-54.061c-35.821,-31.478 -66.052,-88.831 -66.052,-139.79c0,-61.849 50.214,-112.062 112.063,-112.062l981.706,-0c61.849,-0 112.063,50.213 112.063,112.062c-0,50.959 -30.231,108.312 -66.052,139.79c-52.632,46.249 -290.162,63.61 -536.864,54.061Z" style="fill:#841300;"/><path d="M625,418.813c-268.432,-2.308 -536.864,-37.68 -536.864,-99.188l0,-189.418c0,-71.863 58.344,-130.207 130.208,-130.207l813.312,0c71.864,0 130.208,58.344 130.208,130.207l-0,189.418c-0,61.508 -268.432,96.88 -536.864,99.188Z" style="fill:#e13014;"/><path d="M1135.76,307.917c-7.32,30.533 -56.962,41.762 -116.682,48.393l-0,-190.885c-0,-42.442 -14.297,-102.016 -41.167,-110.767l75.042,0c43.104,0 82.353,44.524 82.807,82.807c0.674,56.817 0.273,113.635 -0,170.452Zm-1009.6,0c-0.274,-56.817 -0.674,-113.635 0,-170.452c0.454,-38.283 39.703,-82.807 82.807,-82.807l75.042,0c-26.871,8.751 -41.167,68.325 -41.167,110.767l-0,190.885c-59.72,-6.631 -109.362,-17.86 -116.682,-48.393Z" style="fill:#e93c21;"/><path d="M362.256,29.047c-78.478,-0.004 -144.062,-0.007 -144.108,-0.007c-63.958,0.253 -115.276,51.674 -115.482,115.706l0,208.88c0,8.019 -6.51,14.53 -14.53,14.53c-8.019,-0 -14.53,-6.511 -14.53,-14.53l-0,-208.932l-0,-0.022c0.247,-80.175 64.591,-144.527 144.827,-144.694l375.852,0.021c7.78,-0.028 15.753,-0.027 23.922,0.001l7.003,0c0.093,0.001 0.185,0.004 0.278,0.007c2.929,-0 5.846,-0.003 7.151,-0.007c8.205,-0.028 16.204,-0.029 24.002,-0.001l389.456,-0.021c80.236,0.167 144.58,64.519 144.827,144.694l0,0.022l0,208.932c0,8.019 -6.51,14.53 -14.53,14.53c-8.019,-0 -14.53,-6.511 -14.53,-14.53l-0,-208.88c-0.205,-64.032 -51.524,-115.453 -115.481,-115.706c-0.05,-0 -73.897,0.003 -158.639,0.007c19.988,9.538 35.388,21.933 47.367,37.723c17.124,22.574 27.314,52.493 32.931,92.367c7.864,55.827 7.02,132.269 7.182,236.685c0.013,8.02 -6.488,14.54 -14.508,14.553c-8.019,0.012 -14.54,-6.488 -14.552,-14.508c-0.16,-102.645 0.832,-177.796 -6.899,-232.677c-4.78,-33.932 -12.734,-59.646 -27.307,-78.856c-17.913,-23.614 -45.762,-36.739 -87.95,-44.6c-41.5,-7.733 -95.706,-10.432 -167.334,-10.677c-10.785,0 -16.934,0 -16.934,0c-0.293,0.005 -0.584,0 -0.874,-0.013c-2.029,0.004 -4.072,0.009 -6.128,0.016c-2.664,0.009 -11.966,0.008 -14.63,-0.001c-5.38,-0 -13.823,-0.001 -24.649,-0.001c-71.424,0.26 -126.1,2.968 -167.467,10.676c-42.188,7.861 -70.037,20.986 -87.95,44.6c-14.573,19.21 -22.527,44.924 -27.307,78.856c-7.731,54.881 -6.739,130.032 -6.899,232.677c-0.012,8.02 -6.533,14.52 -14.552,14.508c-8.02,-0.013 -14.521,-6.533 -14.508,-14.553c0.162,-104.416 -0.682,-180.858 7.182,-236.685c5.617,-39.874 15.807,-69.793 32.931,-92.367c11.979,-15.79 27.379,-28.185 47.367,-37.723Z" style="fill:#a7200b;"/></g><g><path d="M824.134,458.922l-398.268,0c-0,0 -0.548,-14.58 -1.423,-37.454c-7.439,-8.248 -20.861,-26.619 -30.763,-40.51c-7.45,-10.139 -7.312,-23.98 0.34,-33.968c8.596,-11.187 19.576,-25.535 26.168,-34.541c-1.186,-29.7 -2.418,-59.896 -3.547,-86.303c-1.569,-34.456 12.479,-67.783 38.239,-90.72c48.614,-43.304 107.967,-78.518 169.943,-99.999l0.354,0c61.976,21.481 121.329,56.695 169.943,99.999c25.76,22.937 39.808,56.264 38.239,90.72c-1.129,26.407 -2.361,56.603 -3.547,86.303c6.592,9.006 17.572,23.354 26.168,34.541c7.652,9.988 7.79,23.829 0.34,33.968c-9.902,13.891 -23.324,32.262 -30.763,40.51c-0.875,22.874 -1.423,37.454 -1.423,37.454Z" style="fill:#a7200b;"/><path d="M388.965,370.804c-1.944,-8.112 -0.25,-16.889 5.055,-23.814c8.381,-10.908 19.029,-24.821 25.666,-33.857c0.168,4.175 0.336,8.353 0.502,12.521c-6.592,9.007 -17.572,23.354 -26.168,34.541c-2.467,3.22 -4.153,6.841 -5.055,10.609Zm27.741,-143.145c-0.022,-0.506 -0.043,-1.01 -0.065,-1.513c-1.569,-34.456 12.479,-67.783 38.239,-90.72c48.614,-43.304 107.967,-78.518 169.943,-99.999l0.354,0c61.976,21.481 121.329,56.695 169.943,99.999c25.76,22.937 39.808,56.264 38.239,90.72c-0.022,0.503 -0.043,1.007 -0.065,1.513c-1.711,-30.206 -15.342,-58.698 -38.174,-79.027c-48.614,-43.304 -107.967,-78.519 -169.943,-99.999l-0.354,-0c-61.976,21.48 -121.329,56.695 -169.943,99.999c-22.832,20.329 -36.463,48.821 -38.174,79.027Zm413.608,85.474c6.637,9.036 17.285,22.949 25.666,33.857c5.305,6.925 6.999,15.702 5.055,23.814c-0.902,-3.768 -2.588,-7.389 -5.055,-10.609c-8.596,-11.187 -19.576,-25.534 -26.168,-34.541c0.166,-4.168 0.334,-8.346 0.502,-12.521Z" style="fill:#841200;"/><path d="M791.776,428.371l-333.552,0c0,0 -0.458,-12.211 -1.191,-31.368c-6.23,-6.907 -17.471,-22.293 -25.764,-33.927c-6.24,-8.492 -6.124,-20.083 0.285,-28.448c7.198,-9.37 16.394,-21.386 21.915,-28.929c-0.993,-24.873 -2.025,-50.163 -2.97,-72.279c-1.314,-28.857 10.451,-56.768 32.025,-75.978c40.715,-36.267 90.423,-65.759 142.328,-83.749l0.296,-0c51.905,17.99 101.613,47.482 142.328,83.749c21.574,19.21 33.339,47.121 32.025,75.978c-0.945,22.116 -1.977,47.406 -2.97,72.279c5.521,7.543 14.717,19.559 21.915,28.929c6.409,8.365 6.525,19.956 0.285,28.448c-8.293,11.634 -19.534,27.02 -25.764,33.927c-0.733,19.157 -1.191,31.368 -1.191,31.368Z" style="fill:#38383a;"/><path d="M624.772,373.769c-44.945,-3.701 -68.048,-32.822 -74.374,-48.623c-13.462,-33.623 6.02,-64.225 21.077,-92.66c3.389,-6.399 6.801,-13.473 7.525,-20.773c0.088,-0.88 -0.842,-9.073 -0.242,-9.575c0.258,-0.216 7.042,4.711 8.873,6.623c8.271,8.633 11.232,19.485 11.823,31.143c0.027,0.523 0.588,-22.29 1.744,-28.572c3.572,-19.411 14.362,-37.175 27.855,-51.603c4.248,-4.543 14.034,-11.813 23.786,-17.128c-3.718,8.409 -9.161,32.825 -5.771,40.449c9.225,20.744 22.931,38.68 29.162,60.574c1.974,6.933 2.59,14.039 2.186,21.23c-0.141,2.503 -2.657,10.85 -1.748,10.383c7.373,-3.794 17.227,-24.505 17.227,-24.505c-0,0 6.136,15.544 7.662,23.524c4.042,21.14 4.538,48.981 -7.785,67.756c-12.672,19.307 -41.329,34.035 -69,31.757Z" style="fill:#a8926b;"/><path d="M704.051,304.479c0.531,16.131 -1.935,32.998 -10.279,45.711c-12.672,19.306 -41.329,34.034 -69,31.756c-44.945,-3.7 -68.048,-32.821 -74.374,-48.622c-3.751,-9.367 -4.944,-18.5 -4.389,-27.417c0.405,6.303 1.776,12.715 4.389,19.239c6.326,15.801 29.429,44.922 74.374,48.623c27.671,2.278 56.328,-12.45 69,-31.757c6.94,-10.574 9.814,-24.024 10.279,-37.533Zm-66.467,-131.598c-6.231,6.7 -11.556,15.316 -16.588,22.659c-17.514,25.554 -11.477,71.397 -21.756,98.033c-1.921,-19.949 -7.008,-57.25 -13.261,-63.33c-2.29,8.265 -7.402,20.742 -13.042,31.287c-7.43,13.893 -13.923,27.326 -14.973,41.93c-1.304,-17.862 6.178,-33.662 14.973,-50.107c5.64,-10.545 10.752,-23.023 13.042,-31.287c6.253,6.079 11.34,43.381 13.261,63.329c10.279,-26.636 4.242,-72.478 21.756,-98.033c5.295,-7.726 10.915,-16.863 17.573,-23.693c-0.551,2.569 -0.872,5.791 -0.985,9.212Zm54.64,124.565c-0.207,-8.009 -0.937,-13.61 -0.937,-13.61c-5.456,10.117 -19.953,19.688 -27.853,22.793c0.278,-1.921 -0.306,-6.151 0,-8.178c0.14,-0.922 0.949,-0.388 1.304,-0.545c8.102,-3.571 21.381,-12.665 26.549,-22.248c0,0 1.262,9.681 0.937,21.788Zm-25.057,-29.883c-0.172,-3.549 -0.598,-6.969 -1.365,-10.17c-4.076,-17.001 -18.61,-38.477 -25.695,-54.409c-1.931,-4.342 -2.884,-14.529 -2.476,-23.094c0.274,6.121 1.141,11.915 2.476,14.917c7.085,15.931 21.619,37.408 25.695,54.409c1.344,5.605 1.638,11.879 1.365,18.347Z" style="fill:#686868;"/><path d="M704.051,304.479c0.531,16.131 -1.935,32.998 -10.279,45.711c-12.672,19.306 -41.329,34.034 -69,31.756c-44.945,-3.7 -68.048,-32.821 -74.374,-48.622c-3.751,-9.367 -4.944,-18.5 -4.389,-27.417c0.405,6.303 1.776,12.715 4.389,19.239c6.326,15.801 29.429,44.922 74.374,48.623c27.671,2.278 56.328,-12.45 69,-31.757c6.94,-10.574 9.814,-24.024 10.279,-37.533Zm-66.467,-131.598c-6.231,6.7 -11.556,15.316 -16.588,22.659c-17.514,25.554 -11.477,71.397 -21.756,98.033c-1.921,-19.949 -7.008,-57.25 -13.261,-63.33c-2.29,8.265 -7.402,20.742 -13.042,31.287c-7.43,13.893 -13.923,27.326 -14.973,41.93c-1.304,-17.862 6.178,-33.662 14.973,-50.107c5.64,-10.545 10.752,-23.023 13.042,-31.287c6.253,6.079 11.34,43.381 13.261,63.329c10.279,-26.636 4.242,-72.478 21.756,-98.033c5.295,-7.726 10.915,-16.863 17.573,-23.693c-0.551,2.569 -0.872,5.791 -0.985,9.212Zm29.583,94.682c-0.172,-3.549 -0.598,-6.969 -1.365,-10.17c-4.076,-17.001 -18.61,-38.477 -25.695,-54.409c-1.931,-4.342 -2.884,-14.529 -2.476,-23.094c0.274,6.121 1.141,11.915 2.476,14.917c7.085,15.931 21.619,37.408 25.695,54.409c1.344,5.605 1.638,11.879 1.365,18.347Zm25.057,29.883c-0.207,-8.009 -0.937,-13.61 -0.937,-13.61c-5.456,10.117 -19.953,19.688 -27.853,22.793c0.278,-1.921 -0.306,-6.151 0,-8.178c0.14,-0.922 0.949,-0.388 1.304,-0.545c8.102,-3.571 21.381,-12.665 26.549,-22.248c0,0 1.262,9.681 0.937,21.788Z" style="fill:#836e49;"/><path d="M624.772,373.769c-44.945,-3.701 -68.048,-32.822 -74.374,-48.623c-13.462,-33.623 6.02,-64.225 21.077,-92.66c3.389,-6.399 6.801,-13.473 7.525,-20.773c0.088,-0.88 -0.842,-9.073 -0.242,-9.575c0.258,-0.216 7.042,4.711 8.873,6.623c8.271,8.633 11.232,19.485 11.823,31.143c0.027,0.523 0.588,-22.29 1.744,-28.572c3.572,-19.411 14.362,-37.175 27.855,-51.603c4.248,-4.543 14.034,-11.813 23.786,-17.128c-3.718,8.409 -9.161,32.825 -5.771,40.449c9.225,20.744 22.931,38.68 29.162,60.574c1.974,6.933 2.59,14.039 2.186,21.23c-0.141,2.503 -2.657,10.85 -1.748,10.383c7.373,-3.794 17.227,-24.505 17.227,-24.505c-0,0 6.136,15.544 7.662,23.524c4.042,21.14 4.538,48.981 -7.785,67.756c-12.672,19.307 -41.329,34.035 -69,31.757Zm-38.793,-151.703c-2.29,8.264 -7.402,20.742 -13.042,31.287c-11.654,21.79 -21.001,42.447 -10.662,68.269c4.858,12.135 27.349,36.479 61.867,39.321c21.251,1.75 44.252,-7.003 58.264,-25.415c14.246,-18.718 8.881,-59.87 8.881,-59.87c-5.456,10.118 -19.953,19.689 -27.853,22.793c2.214,-15.318 5.885,-34.566 2.368,-49.235c-4.076,-17.001 -18.61,-38.478 -25.695,-54.409c-2.603,-5.855 -3.429,-22.335 -1.538,-31.138c-6.658,6.83 -12.278,15.967 -17.573,23.693c-17.514,25.555 -11.477,71.397 -21.756,98.033c-1.921,-19.948 -7.008,-57.25 -13.261,-63.329Z" style="fill:#d2c0a0;"/><path d="M625.148,80.962c51.905,17.99 101.613,47.482 142.328,83.75c21.574,19.209 33.339,47.121 32.025,75.977c-0.945,22.116 -1.977,47.406 -2.97,72.279c5.521,7.544 14.717,19.56 21.915,28.929c6.409,8.365 6.525,19.956 0.285,28.448c-8.293,11.634 -19.534,27.02 -25.764,33.927c-0.733,19.157 -1.191,31.369 -1.191,31.369l-333.552,-0c0,-0 -0.458,-12.212 -1.191,-31.369c-6.23,-6.907 -17.471,-22.293 -25.764,-33.927c-6.24,-8.492 -6.124,-20.083 0.285,-28.448c7.198,-9.369 16.394,-21.385 21.915,-28.929c-0.993,-24.873 -2.025,-50.163 -2.97,-72.279c-1.314,-28.856 10.451,-56.768 32.025,-75.977c40.715,-36.268 90.423,-65.76 142.328,-83.75l0.296,0Zm-0.148,337.295l150.038,0c0.161,-4.229 0.348,-9.153 0.559,-14.649l0.241,-6.299l4.221,-4.68c5.939,-6.584 16.612,-21.284 24.59,-32.476l0.074,-0.101c1.663,-2.263 1.633,-5.352 -0.075,-7.582c-7.277,-9.471 -16.565,-21.612 -22.145,-29.235l-3.584,-4.897l0.242,-6.063c0.994,-24.89 2.027,-50.197 2.974,-72.352l0.001,-0.024c1.076,-23.626 -8.557,-46.478 -26.222,-62.206c-37.584,-33.48 -83.159,-60.944 -130.914,-78.336c-47.755,17.392 -93.33,44.856 -130.914,78.336c-17.665,15.728 -27.298,38.58 -26.222,62.206l0.001,0.024c0.947,22.155 1.98,47.462 2.974,72.352l0.242,6.063l-3.584,4.897c-5.58,7.623 -14.868,19.764 -22.145,29.235c-1.708,2.23 -1.738,5.319 -0.075,7.582l0.074,0.101c7.978,11.192 18.651,25.892 24.59,32.476l4.221,4.68l0.241,6.299c0.211,5.496 0.398,10.42 0.559,14.649l150.038,0Z" style="fill:#836e49;"/><path d="M625.148,73.693c51.905,17.99 101.613,47.482 142.328,83.749c21.574,19.21 33.339,47.121 32.025,75.978c-0.945,22.116 -1.977,47.406 -2.97,72.279c5.521,7.543 14.717,19.559 21.915,28.929c6.409,8.365 6.525,19.956 0.285,28.448c-8.293,11.634 -19.534,27.02 -25.764,33.927c-0.733,19.157 -1.191,31.368 -1.191,31.368l-333.552,0c0,0 -0.458,-12.211 -1.191,-31.368c-6.23,-6.907 -17.471,-22.293 -25.764,-33.927c-6.24,-8.492 -6.124,-20.083 0.285,-28.448c7.198,-9.37 16.394,-21.386 21.915,-28.929c-0.993,-24.873 -2.025,-50.163 -2.97,-72.279c-1.314,-28.857 10.451,-56.768 32.025,-75.978c40.715,-36.267 90.423,-65.759 142.328,-83.749l0.296,-0Zm-0.148,337.295l150.038,0c0.161,-4.229 0.348,-9.153 0.559,-14.65l0.241,-6.298l4.221,-4.68c5.939,-6.584 16.612,-21.284 24.59,-32.477l0.074,-0.1c1.663,-2.263 1.633,-5.352 -0.075,-7.582c-7.277,-9.471 -16.565,-21.612 -22.145,-29.235l-3.584,-4.897l0.242,-6.063c0.994,-24.891 2.027,-50.197 2.974,-72.352l0.001,-0.024c1.076,-23.626 -8.557,-46.478 -26.222,-62.207c-37.584,-33.479 -83.159,-60.944 -130.914,-78.335c-47.755,17.391 -93.33,44.856 -130.914,78.335c-17.665,15.729 -27.298,38.581 -26.222,62.207l0.001,0.024c0.947,22.155 1.98,47.461 2.974,72.352l0.242,6.063l-3.584,4.897c-5.58,7.623 -14.868,19.764 -22.145,29.235c-1.708,2.23 -1.738,5.319 -0.075,7.582l0.074,0.1c7.978,11.193 18.651,25.893 24.59,32.477l4.221,4.68l0.241,6.298c0.211,5.497 0.398,10.421 0.559,14.65l150.038,0Z" style="fill:#d2c0a0;"/></g></g></g></svg>