<?xml version="1.0" encoding="UTF-8" standalone="no"?><!DOCTYPE svg PUBLIC "-//W3C//DTD SVG 1.1//EN" "http://www.w3.org/Graphics/SVG/1.1/DTD/svg11.dtd"><svg width="100%" height="100%" viewBox="0 0 1250 1438" version="1.1" xmlns="http://www.w3.org/2000/svg" xmlns:xlink="http://www.w3.org/1999/xlink" xml:space="preserve" xmlns:serif="http://www.serif.com/" style="fill-rule:evenodd;clip-rule:evenodd;stroke-linejoin:round;stroke-miterlimit:2;"><g id="Bush"><g id="HatBush"><path id="base_body_1" d="M1228.32,132.54c13.763,22.82 21.684,49.554 21.684,78.124l0,211.727c-8.496,5.878 -18.052,2.217 -28.089,-5.781c2.246,15.33 -0.512,33.996 -7.515,55.491c-19.369,-4.948 -34.198,-21.246 -47.398,-41.618c2.863,25.642 -2.478,50.465 -15.029,74.566c-42.348,-16.491 -66.006,-42.618 -86.704,-69.942c15.589,32.433 16.396,69.3 1.156,110.982c-57.824,-43.243 -120.979,-67.354 -130.056,-112.716c-3.412,24.824 -13.348,42.038 -26.012,56.069c-28.958,-8.884 -55.626,-26.376 -68.785,-54.335c2.822,37.541 -12.048,70.364 -32.369,101.733c-31.601,-23.955 -52.803,-55.997 -70.52,-90.75c2.168,20.086 -3.902,39.257 -15.607,57.803c-43.538,-10.14 -73.047,-37.817 -98.072,-71.098c-6.909,53.97 -36.149,89.707 -69.556,109.825c-34.733,-48.226 -61.619,-83.569 -61.271,-113.293c-14.198,19.496 -33.778,30.021 -57.225,34.104c-4.179,-4.981 -7.19,-16.977 -9.826,-31.214c3.48,39.927 -11.745,69.332 -32.948,95.375c-40.327,-23.241 -64.879,-55.947 -82.08,-93.063c-2.794,11.416 -7.418,21.917 -13.295,31.792c-21.073,-1.213 -38.47,-15.91 -54.912,-34.104c20.545,37.607 -0.958,70.542 -22.543,103.467c-38.432,-17.411 -58.681,-50.986 -69.364,-93.062c-16.156,17.84 -36.637,25.318 -50.866,43.93c-21.652,-26.584 -22.648,-50.992 -15.003,-74.492c-24.713,15.472 -52.305,24.94 -69.968,46.168c-13.693,-19.34 -16.285,-45.295 -16.285,-67.051l0.142,-156.068l-0,-24.445c-0,-20.615 4.124,-40.274 11.591,-58.197c-17.944,-24.256 -4.621,-56.219 -6.168,-87.509c21.263,4.351 40.684,10.75 49.356,29.092c0.098,-0.082 0.197,-0.164 0.296,-0.246c-2.685,-10.619 -2.924,-20.748 1.215,-30.002c6.984,3.468 14.595,6.937 23.121,10.405c-4.62,-22.442 -0.781,-45.381 20.809,-69.364c20.301,10.72 39.452,22.59 52.022,41.04c0.301,-13.367 6.25,-21.893 17.341,-26.011c6.697,10.677 11.8,21.885 13.873,34.104c6.028,-34.552 41.634,-30.16 59.537,-47.399c9.369,17.501 13.367,35.003 10.404,52.504c9.241,-7.64 20.62,-14.423 37.572,-18.978c4.432,3.628 6.937,9.183 5.202,18.978c4.871,-24.657 16.902,-43.454 38.728,-54.238c21.597,12.39 39.307,27.96 43.93,54.238c3.962,-16.273 14.535,-28.138 32.37,-35.163c2.373,13.428 20.964,20.11 34.104,35.163c-8.78,-19.747 -10.674,-39.332 0.578,-59.081c39.218,14.691 78.285,16.98 108.091,59.081c1.312,-14.118 8.32,-28.753 26.589,-44.411c7.966,8.478 13.999,16.955 17.341,25.433c7.281,-14.763 20.078,-28.423 42.774,-40.103c18.089,12.149 34.906,26.206 46.821,47.617c-0.109,-12.704 4.925,-24.674 15.606,-35.837c31.567,18.746 79.644,17.856 112.138,47.301c-3.613,-13.07 -1.59,-26.139 8.67,-39.209c16.325,8.165 29.34,16.882 36.416,26.589c1.806,-16.191 5.901,-31.811 13.873,-46.461c26.663,14.07 49.455,29.689 60.693,49.929c9.439,-12.653 22.351,-22.991 41.04,-29.479c11.465,9.056 19.558,19.075 20.231,31.214c12.03,-27.319 38.258,-44.384 78.033,-51.664c17.001,19.694 22.691,39.387 19.653,59.081c11.789,-9.289 26.168,-15.471 45.665,-15.51c-0.067,9.123 1.713,13.762 -2.869,19.931c-0.104,0.122 -0.207,0.244 -0.31,0.368c0.008,0.003 0.016,0.005 0.024,0.007c0.098,-0.126 0.193,-0.251 0.286,-0.375c19.834,-23.336 57.111,-8.884 84.371,-20.509c5.262,21.735 2.263,44.805 -19.92,56.201c0.182,0.168 0.364,0.336 0.546,0.505c8.292,0.332 17.144,0.478 29.778,-0.637c5.401,8.819 5.32,19.631 -3.105,33.478Z" style="fill:#1b501b;"/><path id="base_body_11" serif:id="base_body_1" d="M1169.83,312.602c15.489,2.327 37.634,-5.431 37.634,-5.431c0,-0 -3.257,-31.206 -18.054,-41.339c23.525,-7.082 39.348,-30.424 48.076,-68.745c-25.499,-17.065 -44.377,-19.565 -61.64,-18.513c11.303,-12.316 15.414,-25.532 13.564,-39.493c-7.671,-3.519 -16.3,-1.328 -25.363,3.46c2.028,-9.177 -0.462,-20.351 -6.785,-33.22c-17.49,2.963 -30.88,12.719 -42.799,24.915c2.586,-15.351 -2.237,-30.211 -13.57,-44.639c-38.238,9.872 -59.601,25.513 -78.289,41.871c14.075,-19.416 14.804,-41.487 1.043,-66.44c-52.212,25.887 -109.238,40.322 -117.434,67.478c-3.081,-14.861 -12.052,-25.166 -23.487,-33.566c-26.148,5.319 -50.228,15.79 -62.11,32.528c2.548,-22.474 -10.878,-42.124 -29.228,-60.903c-28.534,14.341 -47.678,33.523 -63.676,54.328c1.958,-12.025 -3.522,-23.502 -14.092,-34.604c-39.313,6.07 -65.958,22.639 -88.554,42.563c-6.238,-32.309 -32.641,-53.704 -62.806,-65.748c-31.362,28.871 -55.638,50.03 -55.324,67.824c-12.82,-11.671 -30.501,-17.972 -51.672,-20.416c-3.773,2.982 -6.492,10.163 -8.872,18.686c3.143,-23.903 -10.605,-41.506 -29.75,-57.097c-36.414,13.913 -58.583,33.493 -74.115,55.713c-2.522,-6.834 -6.698,-13.121 -12.004,-19.032c-19.029,0.726 -34.737,9.524 -49.584,20.416c18.552,-22.513 -0.864,-42.23 -20.355,-61.941c-34.702,10.423 -52.985,30.523 -62.632,55.712c-14.588,-10.68 -33.081,-15.157 -45.929,-26.299c-19.551,15.915 -20.45,30.527 -13.547,44.595c-22.315,-9.262 -47.229,-14.93 -63.177,-27.639c-12.364,11.578 -14.705,27.117 -14.705,40.141c-15.548,-5.906 -44.016,23.1 -60.592,15.345c-1.575,40.463 20.503,60.891 56.404,65.755c-14.687,8.017 -45.552,46.267 -43.776,65.809c11.715,-0.607 37.635,2.531 58.558,-4.004c-16.203,14.521 -4.172,33.656 -5.569,52.388c19.199,-2.605 36.735,-6.436 44.565,-17.416c0.09,0.049 0.179,0.098 0.268,0.147c-2.425,6.357 -2.641,12.421 1.097,17.961c6.306,-2.076 13.178,-4.152 20.877,-6.229c-4.171,13.435 2.995,40.116 10.158,66.804c18.33,-6.417 44.254,-38.802 55.605,-49.848c0.272,8.003 5.644,13.107 15.658,15.572c6.047,-6.392 10.655,-13.101 12.526,-20.416c5.444,20.684 47.459,43.951 63.624,54.271c8.46,-10.477 2.205,-46.85 -0.47,-57.327c8.344,4.573 18.619,17.883 37.625,29.241c1.536,-12.037 2.565,-23.377 0.998,-29.241c4.398,14.761 23.277,52.526 37.436,78.095c13.951,-26.531 33.025,-62.364 37.2,-78.095c3.578,9.742 16.207,23.627 31.694,39.547c10.158,-12.355 20.78,-18.204 28.328,-39.547c-4.228,23.536 -5.322,37.727 -3.794,60.031c35.412,-8.795 75.004,-34.827 101.917,-60.031c1.184,8.451 7.513,17.212 24.009,26.587c7.193,-5.076 12.641,-10.151 15.658,-15.226c6.574,8.838 18.13,17.015 38.623,24.008c16.333,-7.273 31.518,-15.689 42.276,-28.507c-0.098,7.606 8.147,44.367 19.641,67.081c22.955,-23.554 73.764,-24.255 95.706,-73.943c-3.262,7.824 -1.435,15.648 7.829,23.472c14.741,-4.888 26.492,-10.107 32.882,-15.918c1.63,9.694 5.327,19.044 12.526,27.815c24.076,-8.423 44.656,-17.774 54.803,-29.891c8.523,7.575 20.182,13.764 37.057,17.648c10.352,-5.421 17.66,-11.419 18.267,-18.686c10.863,16.354 46.877,43.834 85.875,64.84c5.486,-32.753 5.075,-57.491 2.332,-69.28c10.644,5.561 23.627,9.261 41.232,9.285c-0.06,-5.462 1.547,-8.239 -2.59,-11.932c-0.094,-0.073 -0.187,-0.146 -0.28,-0.221c0.007,-0.001 0.015,-0.002 0.022,-0.003c0.088,0.075 0.174,0.15 0.258,0.224c17.909,13.97 55.268,29.981 79.882,36.94c4.752,-13.012 -1.656,-51.485 -21.686,-58.308c0.165,-0.1 0.329,-0.201 0.493,-0.302c7.487,-0.199 15.48,-0.286 26.888,0.382c4.877,-5.28 4.804,-11.753 -2.804,-20.042Z" style="fill:#2a5d2a;"/><g><path d="M73.716,368.493c30.499,-24.705 146.663,-51.63 94.95,-77.568c-42.444,-21.29 -92.293,11.344 -94.95,77.568Z" style="fill:#327836;"/><path d="M239.081,482.164c-9.005,-38.203 -84.405,-130.581 -27.632,-119.452c46.597,9.135 66.054,65.449 27.632,119.452Z" style="fill:#327836;"/><path d="M82.236,146.405c28.498,-1.664 104.072,32.632 89.04,-5.579c-12.338,-31.364 -55.113,-33.328 -89.04,5.579Z" style="fill:#327836;"/><path d="M118.365,242.178c17.597,-33.226 110.105,-101.516 54.534,-104.009c-45.612,-2.046 -77.311,45.542 -54.534,104.009Z" style="fill:#327836;"/><path d="M632.066,482.164c-1.96,-37.547 -57.083,-138.456 -5.635,-117.303c42.228,17.362 50.925,73.876 5.635,117.303Z" style="fill:#327836;"/><path d="M581.764,339.41c54.639,2.727 59.697,99.986 9.865,197.3c-53.92,-123.061 -79.169,-200.759 -9.865,-197.3Z" style="fill:#327836;"/><path d="M417.914,258.875c-21.136,-15.638 -42.442,17.828 -27.951,73.166c30.212,-24.389 54.78,-62.753 27.951,-73.166Z" style="fill:#327836;"/><path d="M452.232,220.581c-65.608,0.449 -8.289,50.709 35.124,108.391c21.05,-39.095 8.374,-108.689 -35.124,-108.391Z" style="fill:#327836;"/><path d="M916.097,404.384c41.035,-39.023 55.97,-93.477 26.306,-110.852c-38.88,-12.874 -61.16,52.74 -26.306,110.852Z" style="fill:#327836;"/><path d="M804.293,230.925c32.524,70.416 104.764,105.089 138.11,62.607c5.834,-60.039 -86.394,-79.602 -138.11,-62.607Z" style="fill:#327836;"/><path d="M1069.83,151.182c-5.423,-52.027 44.334,-70.742 81.387,-67.411c-5.978,51.415 -33.757,72.995 -81.387,67.411Z" style="fill:#327836;"/><path d="M618.702,152.04c-28.897,-38.788 -23.995,-73.82 6.298,-106.032c28.838,34.378 35.029,69.462 -6.298,106.032Z" style="fill:#327836;"/><path d="M495.469,83.399c62.258,5.054 113.666,20.507 123.233,76.057c-77.504,28.613 -105.078,-16.746 -123.233,-76.057Z" style="fill:#327836;"/><path d="M1082.09,320.907c-30.497,7.971 -18.572,66.562 28.23,103.582c20.322,-53.641 11.186,-106.665 -28.23,-103.582Z" style="fill:#327836;"/><path d="M1224.31,357.9c-70.392,28.799 -157.879,11.218 -142.221,-36.993c14.248,-43.868 91.969,-12.317 142.221,36.993Z" style="fill:#327836;"/></g><g><path d="M168.666,290.925c-42.502,12.592 -72.652,40.281 -94.95,77.568c2.657,-66.224 52.506,-98.858 94.95,-77.568Z" style="fill:#2a9730;"/><path d="M211.449,362.712c46.597,9.135 66.054,65.449 27.632,119.452c8.871,-45.468 -0.586,-85.208 -27.632,-119.452Z" style="fill:#2a9730;"/><path d="M171.276,140.826c-31.662,-12.017 -60.748,-5.998 -89.04,5.579c33.927,-38.907 76.702,-36.943 89.04,-5.579Z" style="fill:#2a9730;"/><path d="M172.899,138.169c-31.576,14.534 -49.896,51.31 -54.534,104.009c-22.777,-58.467 8.922,-106.055 54.534,-104.009Z" style="fill:#2a9730;"/><path d="M626.431,364.861c42.228,17.362 50.925,73.876 5.635,117.303c11.572,-35.258 14.234,-73.062 -5.635,-117.303Z" style="fill:#2a9730;"/><path d="M581.764,339.41c54.639,2.727 59.697,99.986 9.865,197.3c9.732,-73.482 10.721,-141.784 -9.865,-197.3Z" style="fill:#2a9730;"/><path d="M417.914,258.875c-16.473,16.041 -24.948,41.411 -27.951,73.166c-14.491,-55.338 6.815,-88.804 27.951,-73.166Z" style="fill:#2a9730;"/><path d="M452.232,220.581c23.7,27.278 34,64.448 35.124,108.391c-43.413,-57.682 -100.732,-107.942 -35.124,-108.391Z" style="fill:#2a9730;"/><path d="M942.403,293.532c-18.179,30.308 -27.209,67.075 -26.306,110.852c-34.854,-58.112 -12.574,-123.726 26.306,-110.852Z" style="fill:#2a9730;"/><path d="M942.403,293.532c-41.063,-28.685 -89.154,-46.326 -138.11,-62.607c51.716,-16.995 143.944,2.568 138.11,62.607Z" style="fill:#2a9730;"/><path d="M1069.83,151.182c-5.423,-52.027 44.334,-70.742 81.387,-67.411c-31.395,17.352 -59.572,38.565 -81.387,67.411Z" style="fill:#2a9730;"/><path d="M618.702,152.04c-28.897,-38.788 -23.995,-73.82 6.298,-106.032c2.92,31.998 1.558,66.851 -6.298,106.032Z" style="fill:#2a9730;"/><path d="M495.469,83.399c62.258,5.054 113.666,20.507 123.233,76.057c-36.453,-31.298 -78.847,-47.005 -123.233,-76.057Z" style="fill:#2a9730;"/><path d="M1110.32,424.489c-8.466,-42.685 -14.352,-76.501 -28.23,-103.582c39.416,-3.083 48.552,49.941 28.23,103.582Z" style="fill:#2a9730;"/><path d="M1082.09,320.907c14.248,-43.868 91.969,-12.317 142.221,36.993c-52.758,-15.559 -95.611,-32.632 -142.221,-36.993Z" style="fill:#2a9730;"/></g></g></g></svg>