<?xml version="1.0" encoding="UTF-8" standalone="no"?><!DOCTYPE svg PUBLIC "-//W3C//DTD SVG 1.1//EN" "http://www.w3.org/Graphics/SVG/1.1/DTD/svg11.dtd"><svg width="100%" height="100%" viewBox="0 0 1250 1438" version="1.1" xmlns="http://www.w3.org/2000/svg" xmlns:xlink="http://www.w3.org/1999/xlink" xml:space="preserve" xmlns:serif="http://www.serif.com/" style="fill-rule:evenodd;clip-rule:evenodd;stroke-linejoin:round;stroke-miterlimit:2;"><g id="frog"><g id="HatFrog"><path d="M164.083,1243.29l335.855,-0c-0,31.936 254.572,13.987 585.979,-0c83.661,-0 151.583,-67.923 151.583,-151.584l0,-752.625c0,-71.194 -49.188,-130.991 -115.402,-147.23c-9.976,-2.447 -20.338,-3.905 -30.977,-4.265c3.055,-11.935 4.679,-24.44 4.679,-37.321c-0,-82.935 -67.332,-150.267 -150.267,-150.267c-82.934,0 -150.266,67.332 -150.266,150.267c-0,12.849 1.616,25.325 4.657,37.233l-84.892,0c-104.943,-0.233 -190.158,-0.285 -285.755,-0.262c2.997,-11.829 4.59,-24.216 4.59,-36.971c0,-82.935 -67.332,-150.267 -150.266,-150.267c-82.935,0 -150.267,67.332 -150.267,150.267c0,13.623 1.817,26.825 5.222,39.377c-71.524,12.151 -126.056,74.477 -126.056,149.439l0,752.625c0,83.661 67.922,151.584 151.583,151.584Zm341.583,-88.414l-375.158,0c-32.196,0 -58.334,-26.138 -58.334,-58.333l0,-377.795c0,-100.121 247.763,-245.305 552.826,-245.389c0.085,-0 0.171,-0.001 0.256,-0.001c305.176,0 552.57,145.24 552.57,245.39l-0,377.795c-0,32.195 -26.138,58.333 -58.334,58.333c-191.605,-3.701 -380.308,10.006 -577.974,-30.061c-15.718,-3.186 -32.848,12.989 -35.852,30.061Z" style="fill:#a7d054;"/><path d="M499.938,1243.29c-0.533,-30.082 -2.327,-62.22 3.081,-90.796c3.873,-20.462 23.575,-34.835 39.293,-31.649c50.707,10.278 100.031,20.988 149.759,25.391l-0,113.701c-118.959,3.258 -192.133,0.475 -192.133,-16.647Z" style="fill:#93bb41;"/><path d="M530.861,1212.01c13.23,9.797 88.117,20.339 114.757,9.951c-0.049,-16.203 6.395,-37.841 4.658,-57.378c3.862,7.012 4.818,19.595 1.905,39.593c-1.055,7.241 -0.165,13.456 0.212,21.596c0.12,2.59 -3.295,6.255 -6.775,7.199c-35.147,5.636 -70.294,6.014 -105.441,-5.293c-5.929,-1.907 -9.128,-9.551 -9.316,-15.668Z" style="fill:#89aa48;"/><path d="M692.071,1255.12l-0,-116.615l18.176,-0l0,117.443l-18.176,-0.828Z" style="fill:#89aa48;"/><path d="M455.586,1243.29l48.804,-0c-4.236,-32.078 -4.022,-61.418 -0,-88.414l-48.804,0l0,88.414Z" style="fill:#2d3522;fill-opacity:0.25;"/><path d="M164.083,1255.79c-90.56,-0 -164.083,-73.524 -164.083,-164.084l0,-752.625c0,-76.575 52.574,-140.965 123.561,-159.03c-1.79,-9.657 -2.727,-19.614 -2.727,-29.786c0,-89.834 72.933,-162.767 162.767,-162.767c89.833,0 162.766,72.933 162.766,162.767c0,8.315 -0.625,16.486 -1.832,24.468c89.518,-0.014 171.178,0.044 270.511,0.265l69.593,0c-1.232,-8.066 -1.872,-16.326 -1.872,-24.733c-0,-89.834 72.933,-162.767 162.766,-162.767c89.834,0 162.767,72.933 162.767,162.767c-0,8.842 -0.707,17.521 -2.068,25.982c6.402,0.792 12.691,1.954 18.844,3.464c71.675,17.578 124.924,82.304 124.924,159.37l0,752.625c0,90.56 -73.523,164.084 -164.083,164.084c-367.641,-0 -579.461,24.436 -589.28,-0l-332.554,-0Zm530.933,-109.296l-0,104.826c98.585,-2.936 231.847,-8.03 390.901,-8.03c83.661,-0 151.583,-67.923 151.583,-151.584l0,-752.625c0,-71.194 -49.188,-130.991 -115.402,-147.23c-9.976,-2.447 -20.338,-3.905 -30.977,-4.265c3.055,-11.935 4.679,-24.44 4.679,-37.321c-0,-82.935 -67.332,-150.267 -150.267,-150.267c-82.934,0 -150.266,67.332 -150.266,150.267c-0,12.849 1.616,25.325 4.657,37.233l-84.892,0c-104.943,-0.233 -190.158,-0.285 -285.755,-0.262c2.997,-11.829 4.59,-24.216 4.59,-36.971c0,-82.935 -67.332,-150.267 -150.266,-150.267c-82.935,0 -150.267,67.332 -150.267,150.267c0,13.623 1.817,26.825 5.222,39.377c-71.524,12.151 -126.056,74.477 -126.056,149.439l0,752.625c0,83.661 67.922,151.584 151.583,151.584l330.432,-0c-4.165,-28.786 -5.373,-63.717 -1.407,-88.414l-362.6,0c-32.196,0 -58.334,-26.138 -58.334,-58.333l0,-377.795c0,-100.121 247.763,-245.305 552.826,-245.389c0.085,-0 0.171,-0.001 0.256,-0.001c305.176,0 552.57,145.24 552.57,245.39l-0,377.795c-0,32.195 -26.138,58.333 -58.334,58.333c-141.482,-2.733 -281.382,4.026 -424.476,-8.382Zm-6.25,105.01l-0,-105.564c-2.949,-0.267 -5.898,-0.543 -8.85,-0.827c-0.209,0.045 -0.427,0.068 -0.649,0.068c-0.435,-0 -0.849,-0.089 -1.225,-0.249c-45.123,-4.397 -90.582,-10.804 -136.524,-20.117c-14.699,-2.98 -30.633,10.973 -35.094,26.757c-5.112,24.062 -3.801,61.676 0.726,91.718c11.362,11.184 71.052,11.308 169.018,8.575c0.2,-1.533 1.512,-2.718 3.099,-2.718c1.526,-0 2.798,1.096 3.07,2.543c2.126,-0.06 4.269,-0.122 6.429,-0.186Zm-6.374,-50.852c-0,1.724 -1.401,3.125 -3.125,3.125c-1.725,-0 -3.125,-1.401 -3.125,-3.125l-0,-6.976c-0,-1.725 1.4,-3.125 3.125,-3.125c1.724,-0 3.125,1.4 3.125,3.125l-0,6.976Zm-0,-19.532c-0,1.725 -1.401,3.125 -3.125,3.125c-1.725,-0 -3.125,-1.4 -3.125,-3.125l-0,-6.976c-0,-1.725 1.4,-3.125 3.125,-3.125c1.724,0 3.125,1.4 3.125,3.125l-0,6.976Zm-0,-19.532c-0,1.725 -1.401,3.125 -3.125,3.125c-1.725,-0 -3.125,-1.4 -3.125,-3.125l-0,-6.976c-0,-1.725 1.4,-3.125 3.125,-3.125c1.724,0 3.125,1.4 3.125,3.125l-0,6.976Zm-0,58.596c-0,1.724 -1.401,3.125 -3.125,3.125c-1.725,-0 -3.125,-1.401 -3.125,-3.125l-0,-6.976c-0,-1.725 1.4,-3.125 3.125,-3.125c1.724,0 3.125,1.4 3.125,3.125l-0,6.976Zm-142.564,10.668c-6.764,-2.314 -11.678,-8.201 -12.746,-15.27l-0.001,-0.008c-2.929,-19.688 -2.674,-37.469 -0.434,-54.059c0.001,-0.014 0.003,-0.028 0.005,-0.042c0.811,-5.517 3.988,-10.406 8.701,-13.389c4.705,-2.977 10.474,-3.757 15.8,-2.138c28.776,8.54 57.808,12.126 87.135,10.114c5.772,-0.457 11.441,1.726 15.416,5.938c3.983,4.22 5.834,10.019 5.033,15.766l-0.002,0.015c-1.83,12.728 -2.342,25.339 -0.651,37.72c1.643,10.301 -5.304,20.011 -15.587,21.779l-0.008,0.001c-36.848,6.252 -71.044,4.017 -102.626,-6.415c-0.012,-0.004 -0.024,-0.008 -0.035,-0.012Zm2.304,-6.783c30.513,10.075 63.554,12.187 99.153,6.149c6.42,-1.106 10.755,-7.171 9.723,-13.603c-0.004,-0.027 -0.008,-0.055 -0.012,-0.082c-1.791,-13.072 -1.28,-26.354 0.646,-39.759c0.501,-3.594 -0.657,-7.22 -3.148,-9.859c-2.49,-2.639 -6.044,-4.005 -9.661,-3.712c-0.015,0.001 -0.029,0.002 -0.043,0.003c-30.183,2.072 -60.063,-1.604 -89.678,-10.393l-0.027,-0.008c-3.337,-1.02 -6.953,-0.533 -9.901,1.333c-2.945,1.863 -4.931,4.916 -5.442,8.362c-2.153,15.963 -2.394,33.073 0.424,52.015c0.669,4.42 3.739,8.102 7.966,9.554Zm12.003,-56.901c1.592,1.173 1.932,3.417 0.759,5.009c-1.173,1.591 -3.417,1.931 -5.008,0.758c-1.008,-0.742 -2.007,-1.488 -2.997,-2.238c-1.576,-1.194 -1.886,-3.442 -0.692,-5.018c1.193,-1.576 3.442,-1.886 5.018,-0.693c0.965,0.732 1.939,1.459 2.92,2.182Zm82.593,14.452c-1.7,1.009 -3.9,0.448 -4.908,-1.252c-1.009,-1.7 -0.448,-3.899 1.252,-4.908c1.223,-0.726 2.442,-1.462 3.656,-2.207c1.685,-1.035 3.893,-0.506 4.927,1.178c1.034,1.685 0.506,3.893 -1.179,4.927c-1.245,0.764 -2.494,1.518 -3.748,2.262Zm3.386,34.302c1.792,0.834 2.57,2.967 1.735,4.759c-0.834,1.792 -2.966,2.57 -4.759,1.735c-1.117,-0.52 -2.236,-1.043 -3.357,-1.571c-1.789,-0.841 -2.558,-2.976 -1.717,-4.765c0.841,-1.789 2.977,-2.559 4.766,-1.717c1.112,0.523 2.223,1.043 3.332,1.559Zm-24.969,-22.684c-1.779,0.863 -3.923,0.119 -4.786,-1.659c-0.864,-1.779 -0.12,-3.923 1.658,-4.786c2.554,-1.24 5.097,-2.521 7.628,-3.845c1.751,-0.916 3.917,-0.237 4.834,1.514c0.916,1.752 0.237,3.918 -1.515,4.834c-2.594,1.357 -5.201,2.671 -7.819,3.942Zm9.7,15.399c1.776,0.87 2.511,3.017 1.642,4.792c-0.869,1.776 -3.017,2.512 -4.792,1.642c-2.216,-1.085 -4.433,-2.183 -6.65,-3.296c-1.766,-0.887 -2.481,-3.041 -1.594,-4.808c0.887,-1.767 3.041,-2.481 4.808,-1.594c2.195,1.102 4.392,2.19 6.586,3.264Zm-55.479,2.091c-1.903,0.536 -3.883,-0.573 -4.419,-2.476c-0.537,-1.903 0.573,-3.883 2.475,-4.419c2.723,-0.768 5.447,-1.585 8.17,-2.451c1.884,-0.6 3.9,0.443 4.5,2.327c0.599,1.884 -0.444,3.9 -2.328,4.499c-2.799,0.891 -5.6,1.731 -8.398,2.52Zm-19.625,4.694c-1.94,0.38 -3.824,-0.886 -4.204,-2.826c-0.38,-1.94 0.886,-3.824 2.826,-4.204c1.388,-0.272 2.779,-0.558 4.172,-0.858c1.932,-0.416 3.839,0.816 4.255,2.749c0.415,1.932 -0.816,3.839 -2.749,4.255c-1.435,0.309 -2.869,0.603 -4.3,0.884Zm21.25,-36.67c1.662,1.07 2.143,3.288 1.073,4.95c-1.071,1.663 -3.289,2.143 -4.951,1.073c-2.101,-1.352 -4.179,-2.719 -6.231,-4.101c-1.64,-1.104 -2.075,-3.332 -0.971,-4.972c1.104,-1.64 3.332,-2.075 4.972,-0.971c2.012,1.355 4.049,2.695 6.108,4.021Zm24.964,22.948c-1.101,0.438 -2.203,0.868 -3.305,1.29c-1.846,0.708 -3.919,-0.217 -4.626,-2.063c-0.708,-1.846 0.217,-3.919 2.063,-4.626c2.647,-1.014 5.289,-2.074 7.924,-3.178c1.823,-0.765 3.924,0.095 4.688,1.918c0.324,0.772 0.356,1.593 0.148,2.342c1.216,0.652 2.433,1.299 3.653,1.942c1.749,0.923 2.42,3.091 1.498,4.84c-0.923,1.748 -3.091,2.419 -4.84,1.497c-2.19,-1.155 -4.375,-2.324 -6.551,-3.507c-0.238,-0.13 -0.456,-0.283 -0.652,-0.455Zm-7.448,-12.288c1.713,0.988 2.3,3.18 1.312,4.892c-0.988,1.712 -3.18,2.3 -4.892,1.312c-2.154,-1.243 -4.294,-2.5 -6.418,-3.771c-1.696,-1.015 -2.249,-3.217 -1.233,-4.913c1.015,-1.696 3.217,-2.249 4.913,-1.234c2.09,1.252 4.198,2.49 6.318,3.714Zm93.885,50.303c-0,1.725 -1.401,3.125 -3.125,3.125c-1.725,0 -3.125,-1.4 -3.125,-3.125l-0,-6.975c-0,-1.725 1.4,-3.125 3.125,-3.125c1.724,-0 3.125,1.4 3.125,3.125l-0,6.975Zm-185.927,-97.338c4.104,-9.616 11.252,-18.258 19.689,-23.75c8.601,-5.599 18.433,-7.971 27.847,-6.063c196.849,39.902 384.781,26.134 575.593,29.812c25.25,-0.055 45.732,-20.571 45.732,-45.833l-0,-377.795c-0,-27.31 -21.381,-57.573 -57.205,-87.589c-90.43,-75.77 -272.795,-145.301 -482.865,-145.301c-0.084,0 -0.168,0.001 -0.253,0.001c-209.998,0.057 -392.521,69.582 -483.054,145.334c-35.861,30.007 -57.275,60.254 -57.275,87.555l0,377.795c0,25.296 20.537,45.833 45.834,45.833l365.957,0.001Z" style="fill:#587634;"/><path d="M164.152,273.808c49.497,-0 89.683,40.186 89.683,89.683c-0,49.497 -40.186,89.683 -89.683,89.683c-49.497,-0 -89.683,-40.186 -89.683,-89.683c0,-49.497 40.186,-89.683 89.683,-89.683Zm942.562,-0c49.497,-0 89.683,40.186 89.683,89.683c-0,49.497 -40.186,89.683 -89.683,89.683c-49.498,-0 -89.683,-40.186 -89.683,-89.683c-0,-49.497 40.185,-89.683 89.683,-89.683Z" style="fill:#e573ac;"/><g><path d="M507.969,493.015c-0.243,-1.215 -0.471,-2.435 -0.685,-3.659c-5.739,-32.826 -1.043,-68.675 4.684,-94.673c0.297,-1.348 0.737,-2.638 1.302,-3.852c17.043,16.759 51.665,40.285 111.73,40.285c64.697,-0 99.88,-27.382 115.373,-44.172c1.829,2.248 3.149,4.942 3.774,7.92c5.585,26.606 9.874,62.532 3.842,95.244c-0.224,1.215 -0.462,2.424 -0.714,3.629c-39.314,-5.07 -80.246,-7.865 -122.278,-7.876c-0.085,-0 -0.169,-0.001 -0.253,-0.001c-40.083,0 -79.156,2.532 -116.775,7.155Z" style="fill:#2d3522;fill-opacity:0.25;"/><path d="M627.809,395.711c-42.76,-0 -74.524,1.298 -97.66,2.977c-12.599,57.191 -20.921,165.923 97.66,165.923c117.054,-0 110.411,-107.357 98.118,-165.923c-23.212,-1.679 -55.129,-2.977 -98.118,-2.977Z" style="fill:#e32b59;fill-rule:nonzero;"/><path d="M618.985,406.763c0,-4.87 3.954,-8.824 8.824,-8.824c4.87,-0 8.824,3.954 8.824,8.824l-0,74.696c-0,4.87 -3.954,8.824 -8.824,8.824c-4.87,-0 -8.824,-3.954 -8.824,-8.824l0,-74.696Z" style="fill:#b71e48;"/></g><path d="M499.792,374.36c-5.906,-9.865 -2.693,-22.67 7.172,-28.577c9.866,-5.906 22.67,-2.693 28.577,7.172c-0,0 23.891,36.494 89.459,36.494c65.556,0 89.442,-36.632 89.442,-36.632c5.891,-9.875 18.691,-13.108 28.565,-7.217c9.875,5.891 13.109,18.691 7.217,28.565c0,-0 -31.918,56.951 -125.224,56.951c-93.294,-0 -125.208,-56.756 -125.208,-56.756Z" style="fill:#587634;"/><g><path d="M285.023,26.725c68.184,0 123.541,55.357 123.541,123.542c0,68.184 -55.357,123.541 -123.541,123.541c-68.185,-0 -123.542,-55.357 -123.542,-123.541c0,-68.185 55.357,-123.542 123.542,-123.542Zm661.932,0c68.185,0 123.542,55.357 123.542,123.542c-0,68.184 -55.357,123.541 -123.542,123.541c-68.184,-0 -123.541,-55.357 -123.541,-123.541c-0,-68.185 55.357,-123.542 123.541,-123.542Z" style="fill:#fff;"/><path d="M285.023,45.276c57.945,0 104.99,47.045 104.99,104.991c0,57.945 -47.045,104.99 -104.99,104.99c-57.946,0 -104.991,-47.045 -104.991,-104.99c0,-57.946 47.045,-104.991 104.991,-104.991Zm661.932,0c57.946,0 104.991,47.045 104.991,104.991c-0,57.945 -47.045,104.99 -104.991,104.99c-57.946,0 -104.99,-47.045 -104.99,-104.99c-0,-57.946 47.044,-104.991 104.99,-104.991Z" style="fill:#404040;"/><path d="M997.577,56.222c28.21,0 51.112,22.903 51.112,51.112c0,28.21 -22.902,51.112 -51.112,51.112c-28.209,0 -51.112,-22.902 -51.112,-51.112c0,-28.209 22.903,-51.112 51.112,-51.112Zm-65.082,102.224c15.609,0 28.281,12.673 28.281,28.282c0,15.609 -12.672,28.282 -28.281,28.282c-15.61,-0 -28.282,-12.673 -28.282,-28.282c-0,-15.609 12.672,-28.282 28.282,-28.282Z" style="fill:#fff;"/><path d="M334.282,56.222c28.209,0 51.112,22.903 51.112,51.112c-0,28.21 -22.903,51.112 -51.112,51.112c-28.21,0 -51.112,-22.902 -51.112,-51.112c-0,-28.209 22.902,-51.112 51.112,-51.112Zm-65.083,102.224c15.609,0 28.282,12.673 28.282,28.282c-0,15.609 -12.673,28.282 -28.282,28.282c-15.609,-0 -28.282,-12.673 -28.282,-28.282c0,-15.609 12.673,-28.282 28.282,-28.282Z" style="fill:#fff;"/></g></g></g></svg>