<?xml version="1.0" encoding="UTF-8" standalone="no"?><!DOCTYPE svg PUBLIC "-//W3C//DTD SVG 1.1//EN" "http://www.w3.org/Graphics/SVG/1.1/DTD/svg11.dtd"><svg width="100%" height="100%" viewBox="0 0 1250 1438" version="1.1" xmlns="http://www.w3.org/2000/svg" xmlns:xlink="http://www.w3.org/1999/xlink" xml:space="preserve" xmlns:serif="http://www.serif.com/" style="fill-rule:evenodd;clip-rule:evenodd;stroke-linejoin:round;stroke-miterlimit:2;"><g id="BoyScout"><g id="HatBoyScout"><path d="M620.149,298.651c-117.649,-0.018 -227.663,-6.754 -315.859,-32.681c-65.6,-19.284 -65.747,-115.977 -27.179,-159.168c33.049,-37.01 80.551,-28.24 99.952,-24.331c15.122,3.047 8.274,27.929 3.039,28.89c-50.59,9.282 -50.588,47.248 -23.508,53.128c83.525,18.137 133.597,27.013 268.406,29.884c134.809,-2.871 269.357,-9.729 383.44,-45.694l71.354,-19.872c18.626,-4.445 30.091,30.251 20.668,42.327c-84.173,107.867 -268.321,127.802 -475.462,127.514l-4.851,0.003Z" style="fill:#d3a472;"/><path d="M380.102,111.361c-50.59,9.282 -50.588,47.248 -23.508,53.128c83.525,18.137 133.597,27.013 268.406,29.884c134.809,-2.871 269.357,-9.729 383.44,-45.694l71.354,-19.872c18.626,-4.445 30.091,30.251 20.668,42.327c-1.005,1.287 -2.023,2.562 -3.056,3.824l-32.387,-2.92c7.485,-19.678 -1.167,-28.673 -22.524,-22.489c-249.896,72.354 -455.199,127.64 -703.933,28.215c-41.845,-16.727 -15.293,-62.993 41.54,-66.403Z" style="fill:#cf9b64;"/><path d="M1079.79,128.807c18.626,-4.445 30.091,30.251 20.668,42.327c-84.173,107.867 -268.321,127.802 -475.462,127.514l-4.851,0.003c-117.649,-0.018 -227.663,-6.754 -315.859,-32.681c-65.6,-19.284 -65.747,-115.977 -27.179,-159.168c33.049,-37.01 80.551,-28.24 99.952,-24.331c15.122,3.047 8.274,27.929 3.039,28.89c-8.372,-7.5 -30.595,-9.189 -54.385,-2.989c-9.706,2.529 -19.419,7.622 -27.8,17.008c-14.552,16.296 -21.122,42.876 -18.544,67.009c2.216,20.753 11.501,40.564 32.784,46.821c85.989,25.278 193.283,31.531 307.99,31.548l4.836,-0.003l0.056,0c101.331,0.141 197.052,-4.494 277.72,-22.527c72.577,-16.224 132.666,-42.904 171.363,-88.888c9.757,-11.594 11.278,-21.718 5.672,-30.533Z" style="fill:#ad7d4a;"/><path d="M883.84,198.538c-63.394,37.865 -454.78,37.57 -517.68,0c22.89,-61.384 66.737,-141.433 95.037,-154.332c27.489,-12.529 59.692,-5.153 77.041,-11.223c36.627,-12.121 46.074,-32.364 86.762,-32.983l1.911,0.032c40.225,0.717 44.81,21.897 80.865,33.829c17.349,6.07 53.89,-4.167 81.027,10.345c26.567,14.208 72.147,92.948 95.037,154.332Z" style="fill:#d3a472;"/><path d="M531.186,80.581c-5.152,-2.332 -18.403,-5.812 -22.987,-9.128c-2.806,-2.028 -5.507,-4.161 -8.089,-6.469c-2.927,-2.616 -7.917,-6.719 -8.229,-11.02c-0.281,-3.873 4.648,-6.138 7.567,-7.101c9.885,-3.262 29.174,-3.467 39.273,-6.113c6.437,-1.687 12.962,-3.565 19.121,-6.107c4.51,-1.861 9.244,-5.059 14.235,-3.193c8.871,3.315 3.726,15.298 1.09,21.152c-4.777,10.608 -11.915,21.047 -22.039,27.183c-4.703,2.85 -12.233,4.285 -19.942,0.796Z" style="fill:#c9965f;"/><path d="M711.157,80.581c5.152,-2.332 18.403,-5.812 22.987,-9.128c2.806,-2.028 5.507,-4.161 8.089,-6.469c2.927,-2.616 7.917,-6.719 8.229,-11.02c0.281,-3.873 -4.648,-6.138 -7.567,-7.101c-9.885,-3.262 -29.174,-3.467 -39.273,-6.113c-6.437,-1.687 -12.962,-3.565 -19.121,-6.107c-4.51,-1.861 -9.244,-5.059 -14.235,-3.193c-8.871,3.315 -3.725,15.298 -1.09,21.152c4.777,10.608 11.915,21.047 22.039,27.183c4.703,2.85 12.233,4.285 19.942,0.796Z" style="fill:#c9965f;"/><path d="M852.789,171.512l-43.615,-76.169c-115.942,47.431 -231.885,46.886 -347.827,-1.636c-15.993,22.754 -30.168,47.78 -40.344,77.805c143.929,33.781 287.857,31.64 431.786,-0Z" style="fill:#ddac78;"/><path d="M1019.62,183.663c-109.978,72.838 -336.684,82.007 -622.6,58.879l32.711,-15.716c240.668,26.041 437.904,12.21 589.889,-43.163Z" style="fill:#ddac78;"/><path d="M878.328,184.475c6.059,-2.727 11.883,10.258 5.512,14.063c-63.394,37.865 -454.78,37.57 -517.68,0c-7.203,-4.302 -1.401,-17.174 5.484,-14.08c75.266,33.825 430.994,34.083 506.684,0.017Z" style="fill:#634321;"/><path d="M477.512,209.57c0.654,-3.387 3.934,-5.606 7.321,-4.952c3.387,0.654 5.606,3.935 4.952,7.321c-1.316,6.814 0.311,12.873 2.299,18.841c2.455,7.368 5.466,14.623 6.372,22.496c0.394,3.427 -2.068,6.529 -5.495,6.923c-3.427,0.394 -6.529,-2.068 -6.923,-5.495c-0.806,-7.004 -3.629,-13.418 -5.813,-19.974c-2.651,-7.956 -4.467,-16.076 -2.713,-25.16Z" style="fill:#634321;"/><path d="M473.626,207.174c2.217,-2.643 6.163,-2.988 8.806,-0.771c2.642,2.217 2.988,6.162 0.771,8.805c-13.477,16.064 -34.404,26.041 -54.758,30.276c-8.247,1.716 -17.214,0.941 -25.168,3.877c-3.236,1.195 -6.833,-0.463 -8.027,-3.699c-1.195,-3.236 0.463,-6.833 3.699,-8.027c8.528,-3.148 18.107,-2.549 26.949,-4.389c17.692,-3.681 36.014,-12.11 47.728,-26.072Z" style="fill:#634321;"/><circle cx="478.311" cy="210.316" r="23.527" style="fill:#ba9b20;"/><circle cx="472.48" cy="207.189" r="23.527" style="fill:#cfb039;"/><circle cx="473.313" cy="204.194" r="17.405" style="fill:#e4c54d;"/><circle cx="479.387" cy="202.047" r="13.38" style="fill:#f5d454;"/><g><circle cx="623.861" cy="136.202" r="66.05" style="fill-opacity:0.5;"/><circle cx="626.139" cy="127.868" r="57.717" style="fill:#38530b;"/><g transform="matrix(0.977021,0,0,1,-0.284606,0)"><g transform="matrix(84.3746,0,0,84.3746,670.477,158.243)"></g><text x="610.993px" y="158.243px" style="font-family:'TitanOne', 'Titan One';font-size:84.375px;fill:#fff;">B</text></g><path d="M626.139,61.818c36.454,0 66.05,29.596 66.05,66.05c-0,36.454 -29.596,66.05 -66.05,66.05c-36.454,0 -66.05,-29.596 -66.05,-66.05c0,-36.454 29.596,-66.05 66.05,-66.05Zm-0,8.334c-31.855,-0 -57.717,25.862 -57.717,57.716c0,31.855 25.862,57.717 57.717,57.717c31.855,-0 57.716,-25.862 57.716,-57.717c0,-31.854 -25.861,-57.716 -57.716,-57.716Z" style="fill:#456e00;"/></g></g></g></svg>