<?xml version="1.0" encoding="UTF-8" standalone="no"?><!DOCTYPE svg PUBLIC "-//W3C//DTD SVG 1.1//EN" "http://www.w3.org/Graphics/SVG/1.1/DTD/svg11.dtd"><svg width="100%" height="100%" viewBox="0 0 1250 1438" version="1.1" xmlns="http://www.w3.org/2000/svg" xmlns:xlink="http://www.w3.org/1999/xlink" xml:space="preserve" xmlns:serif="http://www.serif.com/" style="fill-rule:evenodd;clip-rule:evenodd;stroke-linecap:round;stroke-linejoin:round;stroke-miterlimit:12;"><g id="GirlScout"><g id="HatGirlScout"><path d="M1240.76,285.023c-8.313,-18.698 -19.141,-38.623 -23.313,-58.254c-4.048,-19.046 6.589,-35.857 21.472,-55.741l-1136.04,132.555c251.277,184.145 935.43,77.88 1137.86,-16.697c0.233,-0.109 0.621,-0.739 0.02,-1.863Z" style="fill:#247e70;"/><path d="M1240.76,285.023c-8.313,-18.698 -19.141,-38.623 -23.313,-58.254c-4.048,-19.046 6.589,-35.857 21.472,-55.741l-127.581,76.595c90.942,-34.518 91.899,-5.356 106.07,49.363c-0,0 16.147,-6.743 23.332,-10.1c0.233,-0.109 0.621,-0.739 0.02,-1.863Z" style="fill:#1d6157;"/><path d="M7.686,269.848c-4.59,-8.573 -8.497,-16.376 -7.686,-25.888c6.764,-79.346 1250,-179.139 1250,-99.297c0,15.036 -9.284,31.507 -28.353,46.299l-0.452,0.349c-16.288,12.111 -35.464,24.669 -71.829,40.92c-290.08,129.636 -1037.7,178.878 -1136.9,45.135c-2.652,-3.576 -3.068,-4.389 -4.765,-7.488c-0.006,-0.011 -0.013,-0.02 -0.016,-0.03Z" style="fill:#1d6157;"/><path d="M1250,144.663c-49.055,135.591 -1230.49,185.257 -1250,99.297c3.326,-79.564 278.841,-123.96 625,-210.021c334.756,-83.225 625,30.882 625,110.724" style="fill:#247e70;"/><path d="M1180.7,131.496c-36.187,100.024 -907.721,161.486 -922.115,98.075c2.454,-58.694 205.699,-102.822 461.058,-166.309c246.947,-61.395 461.057,9.335 461.057,68.234" style="fill:#449185;"/><g><path d="M618.244,45.004c-2.91,-15.298 -13.081,-28.267 -26.512,-36.939c-4.917,-3.175 -7.835,-6.405 -12.593,-4.59l-31.743,9.342c-9.042,1.883 -8.66,10.351 -0.89,14.257c17.137,8.616 27.825,17.442 36.627,29.633c7.45,10.319 38.081,3.909 35.111,-11.703Z" style="fill:#1d6157;"/><path d="M619.506,46.701c-2.693,-15.338 -9.203,-31.484 -22.634,-40.157c-4.917,-3.175 -7.835,-6.404 -12.593,-4.589l-31.743,9.341c-9.042,1.883 -9.631,8.13 -1.862,12.036c17.137,8.616 30.42,20.98 39.043,33.299c7.521,10.745 32.332,4.556 29.789,-9.93Z" style="fill:#247e70;"/></g><path d="M988.928,309.093c-0.734,-1.9 -2.873,-2.846 -4.772,-2.111l-6.884,2.662c-1.899,0.735 -2.845,2.873 -2.11,4.773l20.515,53.048c0.735,1.9 2.873,2.846 4.773,2.111l6.883,-2.662c1.9,-0.735 2.845,-2.873 2.111,-4.773l-20.516,-53.048Z" style="fill:#727272;stroke:#606060;stroke-width:2.5px;"/><path d="M1099.23,286.385c-0.735,-1.9 -2.873,-2.846 -4.773,-2.111l-6.883,2.662c-1.9,0.735 -2.845,2.873 -2.111,4.773l20.515,53.048c0.735,1.9 2.874,2.845 4.773,2.111l6.883,-2.662c1.9,-0.735 2.846,-2.873 2.111,-4.773l-20.515,-53.048Z" style="fill:#727272;stroke:#606060;stroke-width:2.5px;"/><g><path d="M1106.67,314.597c-0.121,0.794 -0.278,1.554 -0.47,2.27c-3.585,13.379 -17.358,21.331 -30.737,17.746c-13.38,-3.585 -21.331,-17.358 -17.746,-30.737c0.191,-0.716 0.436,-1.451 0.728,-2.2c-0.794,-0.121 -1.553,-0.277 -2.269,-0.469c-13.38,-3.585 -21.332,-17.358 -17.747,-30.737c3.585,-13.379 17.358,-21.331 30.738,-17.746c0.716,0.192 1.45,0.436 2.2,0.729c0.121,-0.795 0.277,-1.554 0.469,-2.27c3.585,-13.38 17.358,-21.331 30.737,-17.746c13.379,3.585 21.331,17.357 17.746,30.737c-0.192,0.716 -0.436,1.45 -0.729,2.2c0.795,0.121 1.554,0.277 2.27,0.469c13.379,3.585 21.331,17.358 17.746,30.737c-3.585,13.379 -17.358,21.331 -30.737,17.746c-0.716,-0.192 -1.451,-0.436 -2.199,-0.729Z" style="fill-opacity:0.15;"/><path d="M1100.8,240.044c9.733,2.608 15.517,12.627 12.909,22.359c-2.607,9.733 -18.341,23.324 -24.772,21.601c-6.432,-1.724 -13.103,-21.318 -10.496,-31.051c2.608,-9.732 12.627,-15.517 22.359,-12.909Z" style="fill:#fffad1;"/><path d="M1101.17,238.653c10.5,2.814 16.741,13.623 13.927,24.123c-1.903,7.102 -10.458,16.222 -17.752,20.41c-3.408,1.958 -6.59,2.797 -8.784,2.209c-2.196,-0.589 -4.519,-2.904 -6.472,-6.301c-4.173,-7.26 -6.945,-19.412 -5.042,-26.514c2.814,-10.5 13.623,-16.74 24.123,-13.927Zm-0.745,2.782c-8.965,-2.402 -18.194,2.926 -20.596,11.891c-1.498,5.591 0.269,14.572 3.199,21.226c1.15,2.613 2.48,4.866 3.893,6.385c0.788,0.846 1.577,1.459 2.385,1.676c0.811,0.217 1.805,0.081 2.918,-0.257c1.994,-0.607 4.29,-1.89 6.611,-3.574c5.908,-4.285 11.983,-11.162 13.48,-16.751c2.402,-8.965 -2.926,-18.194 -11.89,-20.596Z" style="fill:#efeabe;"/><path d="M1133,295.81c-2.608,9.732 -12.627,15.516 -22.36,12.909c-9.732,-2.608 -23.323,-18.342 -21.6,-24.773c1.723,-6.432 21.318,-13.103 31.051,-10.496c9.732,2.608 15.516,12.627 12.909,22.36Z" style="fill:#fffad1;"/><path d="M1134.39,296.182c-2.814,10.501 -13.623,16.741 -24.123,13.928c-7.103,-1.903 -16.222,-10.459 -20.411,-17.753c-1.957,-3.408 -2.796,-6.59 -2.208,-8.784c0.588,-2.196 2.903,-4.519 6.301,-6.472c7.26,-4.173 19.412,-6.944 26.513,-5.042c10.5,2.814 16.741,13.623 13.928,24.123Zm-2.783,-0.745c2.403,-8.965 -2.925,-18.193 -11.89,-20.595c-5.591,-1.499 -14.572,0.268 -21.226,3.198c-2.613,1.15 -4.866,2.481 -6.385,3.894c-0.846,0.787 -1.459,1.576 -1.676,2.385c-0.217,0.81 -0.081,1.804 0.257,2.918c0.607,1.993 1.89,4.289 3.574,6.611c4.285,5.907 11.161,11.982 16.751,13.48c8.965,2.402 18.193,-2.926 20.595,-11.891Z" style="fill:#efeabe;"/><path d="M1077.23,328.006c-9.732,-2.608 -15.517,-12.627 -12.909,-22.359c2.608,-9.733 18.341,-23.324 24.773,-21.601c6.431,1.723 13.103,21.318 10.495,31.051c-2.608,9.732 -12.626,15.517 -22.359,12.909Z" style="fill:#fffad1;"/><path d="M1076.86,329.397c-10.5,-2.814 -16.74,-13.623 -13.927,-24.123c1.903,-7.102 10.459,-16.222 17.752,-20.41c3.409,-1.958 6.591,-2.797 8.785,-2.209c2.196,0.588 4.519,2.904 6.472,6.301c4.173,7.26 6.944,19.412 5.041,26.513c-2.813,10.501 -13.622,16.741 -24.123,13.928Zm0.746,-2.782c8.965,2.402 18.193,-2.926 20.595,-11.891c1.498,-5.591 -0.268,-14.572 -3.198,-21.226c-1.151,-2.613 -2.481,-4.866 -3.894,-6.385c-0.788,-0.846 -1.576,-1.459 -2.385,-1.676c-0.81,-0.217 -1.805,-0.081 -2.918,0.257c-1.994,0.607 -4.29,1.89 -6.611,3.574c-5.907,4.285 -11.982,11.161 -13.48,16.751c-2.402,8.965 2.926,18.194 11.891,20.596Z" style="fill:#efeabe;"/><path d="M1045.04,272.24c2.608,-9.732 12.627,-15.516 22.359,-12.909c9.733,2.608 23.324,18.341 21.601,24.773c-1.724,6.432 -21.318,13.103 -31.051,10.495c-9.732,-2.607 -15.517,-12.626 -12.909,-22.359Z" style="fill:#fffad1;"/><path d="M1043.64,271.868c2.813,-10.501 13.623,-16.741 24.123,-13.928c7.102,1.903 16.221,10.459 20.41,17.752c1.958,3.409 2.796,6.591 2.209,8.785c-0.589,2.196 -2.904,4.519 -6.301,6.472c-7.261,4.173 -19.412,6.944 -26.514,5.041c-10.5,-2.813 -16.741,-13.622 -13.927,-24.122Zm2.782,0.745c-2.402,8.965 2.926,18.193 11.891,20.595c5.591,1.498 14.572,-0.268 21.226,-3.198c2.612,-1.151 4.866,-2.481 6.384,-3.894c0.847,-0.788 1.46,-1.576 1.677,-2.385c0.217,-0.81 0.081,-1.805 -0.258,-2.918c-0.606,-1.993 -1.889,-4.289 -3.573,-6.611c-4.285,-5.907 -11.162,-11.982 -16.752,-13.48c-8.964,-2.402 -18.193,2.926 -20.595,11.891Z" style="fill:#efeabe;"/><path d="M1074.6,280.163c2.131,-7.956 10.321,-12.684 18.276,-10.552c7.955,2.132 12.683,10.321 10.552,18.276c-2.132,7.956 -10.321,12.684 -18.276,10.552c-7.956,-2.132 -12.684,-10.321 -10.552,-18.276Z" style="fill:#fbe737;"/><path d="M1073.21,279.79c2.337,-8.723 11.317,-13.908 20.04,-11.57c8.723,2.337 13.907,11.317 11.57,20.04c-2.337,8.723 -11.317,13.907 -20.04,11.57c-8.723,-2.337 -13.908,-11.317 -11.57,-20.04Zm2.782,0.745c-1.926,7.188 2.346,14.587 9.533,16.513c7.188,1.926 14.587,-2.346 16.513,-9.534c1.926,-7.187 -2.346,-14.586 -9.534,-16.512c-7.187,-1.926 -14.586,2.346 -16.512,9.533Z" style="fill:#ead837;"/></g><g><path d="M948.868,312.301c-0.678,-0.431 -1.31,-0.881 -1.888,-1.345c-10.802,-8.671 -12.531,-24.48 -3.86,-35.282c8.671,-10.801 24.48,-12.531 35.282,-3.86c0.578,0.464 1.152,0.984 1.72,1.554c0.43,-0.679 0.879,-1.31 1.343,-1.889c8.672,-10.801 24.481,-12.531 35.282,-3.86c10.802,8.671 12.531,24.481 3.86,35.282c-0.464,0.578 -0.984,1.152 -1.553,1.72c0.678,0.431 1.31,0.879 1.888,1.344c10.802,8.671 12.531,24.48 3.86,35.281c-8.671,10.802 -24.48,12.531 -35.282,3.86c-0.578,-0.464 -1.152,-0.984 -1.72,-1.553c-0.43,0.678 -0.879,1.31 -1.343,1.889c-8.672,10.801 -24.481,12.53 -35.282,3.859c-10.801,-8.671 -12.531,-24.48 -3.86,-35.281c0.464,-0.578 0.984,-1.153 1.553,-1.719Z" style="fill-opacity:0.15;"/><path d="M1019.47,336.964c-6.308,7.857 -17.808,9.115 -25.665,2.808c-7.858,-6.308 -13.959,-26.183 -9.791,-31.375c4.169,-5.193 24.791,-3.405 32.648,2.902c7.857,6.308 9.115,17.808 2.808,25.665Z" style="fill:#fffad1;"/><path d="M1020.59,337.866c-6.806,8.477 -19.213,9.834 -27.69,3.029c-5.734,-4.603 -10.634,-16.108 -11.529,-24.47c-0.419,-3.909 0.096,-7.159 1.517,-8.93c1.423,-1.773 4.478,-2.967 8.374,-3.385c8.327,-0.895 20.565,1.464 26.298,6.066c8.477,6.805 9.835,19.213 3.03,27.69Zm-2.246,-1.803c5.81,-7.238 4.651,-17.831 -2.587,-23.641c-4.514,-3.623 -13.445,-5.624 -20.716,-5.623c-2.854,0 -5.453,0.31 -7.412,0.991c-1.092,0.38 -1.971,0.855 -2.495,1.508c-0.525,0.654 -0.801,1.619 -0.94,2.774c-0.248,2.069 0.001,4.688 0.608,7.491c1.542,7.133 5.388,15.463 9.901,19.086c7.238,5.81 17.831,4.651 23.641,-2.586Z" style="fill:#efeabe;"/><path d="M955.457,343.967c-7.857,-6.308 -9.115,-17.808 -2.808,-25.665c6.308,-7.857 26.184,-13.959 31.376,-9.79c5.192,4.168 3.405,24.79 -2.903,32.647c-6.307,7.857 -17.807,9.116 -25.665,2.808Z" style="fill:#fffad1;"/><path d="M954.556,345.09c-8.477,-6.805 -9.835,-19.212 -3.03,-27.689c4.603,-5.734 16.108,-10.634 24.471,-11.53c3.908,-0.418 7.158,0.096 8.929,1.518c1.773,1.423 2.967,4.478 3.386,8.374c0.894,8.326 -1.464,20.564 -6.067,26.298c-6.805,8.477 -19.212,9.834 -27.689,3.029Zm1.803,-2.246c7.237,5.81 17.83,4.651 23.64,-2.586c3.624,-4.514 5.625,-13.446 5.624,-20.716c-0.001,-2.855 -0.31,-5.454 -0.992,-7.412c-0.38,-1.093 -0.855,-1.971 -1.508,-2.495c-0.654,-0.526 -1.619,-0.802 -2.774,-0.94c-2.069,-0.249 -4.688,0.001 -7.49,0.607c-7.133,1.542 -15.464,5.389 -19.086,9.902c-5.811,7.237 -4.652,17.83 2.586,23.64Z" style="fill:#efeabe;"/><path d="M948.454,279.957c6.308,-7.858 17.808,-9.116 25.665,-2.808c7.858,6.307 13.959,26.183 9.791,31.375c-4.168,5.193 -24.791,3.405 -32.648,-2.903c-7.857,-6.307 -9.115,-17.807 -2.808,-25.664Z" style="fill:#fffad1;"/><path d="M947.331,279.055c6.806,-8.477 19.213,-9.834 27.69,-3.029c5.734,4.603 10.634,16.107 11.529,24.47c0.419,3.909 -0.096,7.159 -1.517,8.93c-1.423,1.773 -4.478,2.966 -8.374,3.385c-8.327,0.895 -20.565,-1.464 -26.298,-6.066c-8.477,-6.806 -9.835,-19.213 -3.03,-27.69Zm2.246,1.803c-5.81,7.238 -4.651,17.83 2.587,23.64c4.514,3.624 13.445,5.625 20.716,5.624c2.854,-0 5.453,-0.31 7.412,-0.992c1.092,-0.38 1.971,-0.854 2.495,-1.507c0.525,-0.655 0.801,-1.619 0.94,-2.775c0.248,-2.069 -0.001,-4.687 -0.607,-7.49c-1.543,-7.133 -5.389,-15.463 -9.902,-19.086c-7.238,-5.81 -17.831,-4.651 -23.641,2.586Z" style="fill:#efeabe;"/><path d="M1012.47,272.954c7.857,6.307 9.115,17.807 2.808,25.665c-6.308,7.857 -26.183,13.958 -31.376,9.79c-5.192,-4.168 -3.405,-24.79 2.903,-32.647c6.307,-7.858 17.808,-9.116 25.665,-2.808Z" style="fill:#fffad1;"/><path d="M1013.37,271.831c8.477,6.805 9.835,19.212 3.03,27.689c-4.603,5.734 -16.108,10.634 -24.471,11.53c-3.908,0.418 -7.158,-0.096 -8.929,-1.518c-1.773,-1.423 -2.967,-4.478 -3.386,-8.374c-0.894,-8.326 1.464,-20.565 6.067,-26.298c6.805,-8.477 19.212,-9.834 27.689,-3.029Zm-1.803,2.246c-7.237,-5.81 -17.83,-4.651 -23.64,2.586c-3.624,4.514 -5.625,13.445 -5.624,20.716c0.001,2.855 0.31,5.453 0.992,7.412c0.38,1.092 0.855,1.971 1.508,2.495c0.654,0.525 1.619,0.802 2.774,0.94c2.069,0.248 4.688,-0.001 7.49,-0.607c7.133,-1.542 15.464,-5.389 19.087,-9.902c5.81,-7.237 4.651,-17.83 -2.587,-23.64Z" style="fill:#efeabe;"/><path d="M993.303,296.824c6.422,5.155 7.451,14.556 2.295,20.978c-5.156,6.423 -14.556,7.451 -20.979,2.295c-6.422,-5.156 -7.451,-14.556 -2.295,-20.978c5.156,-6.423 14.556,-7.451 20.979,-2.295Z" style="fill:#fbe737;"/><path d="M994.204,295.701c7.043,5.653 8.17,15.96 2.517,23.003c-5.654,7.042 -15.961,8.17 -23.003,2.516c-7.043,-5.653 -8.17,-15.961 -2.517,-23.003c5.654,-7.042 15.961,-8.17 23.003,-2.516Zm-1.803,2.246c-5.803,-4.659 -14.295,-3.729 -18.954,2.073c-4.658,5.803 -3.729,14.296 2.074,18.954c5.803,4.658 14.296,3.729 18.954,-2.073c4.658,-5.803 3.729,-14.296 -2.074,-18.954Z" style="fill:#ead837;"/></g></g></g></svg>