<?xml version="1.0" encoding="UTF-8" standalone="no"?><!DOCTYPE svg PUBLIC "-//W3C//DTD SVG 1.1//EN" "http://www.w3.org/Graphics/SVG/1.1/DTD/svg11.dtd"><svg width="100%" height="100%" viewBox="0 0 1250 1438" version="1.1" xmlns="http://www.w3.org/2000/svg" xmlns:xlink="http://www.w3.org/1999/xlink" xml:space="preserve" xmlns:serif="http://www.serif.com/" style="fill-rule:evenodd;clip-rule:evenodd;stroke-linejoin:round;stroke-miterlimit:2;"><g id="Inuit"><g id="HatInuit"><path d="M625,224.382c-208.805,147.045 -512.808,136.139 -625,472.996l-0,-373.957c-7.804,-231.561 532.856,-323.421 625,-323.421c92.144,0 632.804,91.86 625,323.421l0,373.957c-112.192,-336.857 -416.195,-325.951 -625,-472.996Z" style="fill:#512213;"/><path d="M1250,313.536c0.111,3.266 0.112,6.561 0,9.885l0,-9.885Zm0,255.615l0,128.227c-112.192,-336.857 -416.195,-325.951 -625,-472.996c-208.805,147.045 -512.808,136.139 -625,472.996l-0,-128.227c112.192,-336.856 426.686,-427.825 625,-427.825c198.314,-0 512.808,90.969 625,427.825Zm-1250,-245.73c-0.112,-3.324 -0.111,-6.619 -0,-9.885l-0,9.885Z" style="fill:#6a3a2b;"/><path d="M-0,697.378c-1.078,-57.882 12.372,-100.186 16.871,-124.243c8.967,3.08 15.6,10.246 19.041,22.998c0.158,-0.318 0.316,-0.635 0.474,-0.951c-1.781,-46.884 17.456,-95.808 16.892,-133.656c19.4,17.706 41.189,1.99 64.458,18.502c17.458,-42.127 44.614,-75.848 85.945,-97.284c1.466,7.298 3.704,14.982 8.356,23.873c9.667,-34.188 34.1,-64.49 74.008,-90.719c6.366,12.434 11.738,25.365 14.921,39.391c0.609,-12.26 4.762,-22.158 14.921,-28.051c4.028,2.437 8.703,5.52 14.324,9.549c-6.069,-7.559 -9.65,-18.103 -7.759,-35.213c44.472,14.925 97.163,-19.826 145.031,-19.099c-7.721,-6.584 -8.791,-16.494 -0.596,-31.036c28.512,10.583 61.787,-15.967 94.3,-7.759c-1.02,-7 -0.97,-16.673 1.194,-31.632c14.335,-1.25 28.443,-1.362 41.181,5.371c-8.817,-16.929 14.285,-20.901 21.483,-35.81c10.544,26.859 51.955,16.883 51.332,51.925c37.119,17.168 74.687,27.606 113.399,20.889c-0.466,10.995 -2.302,21.441 -10.743,29.245c52.969,-18.767 109.569,38.257 169.502,36.408c6.025,12.533 10.911,25.067 8.952,37.6c24.869,-5.56 49.737,-8.201 74.605,-8.987c0.789,15.131 -0.976,30.263 -11.34,45.394c42.647,16.538 82.485,38.133 117.174,68.996c-6.963,4.277 -13.926,5.073 -20.89,2.984c25.635,8.312 48.175,42.419 74.605,52.522c-3.796,5.955 -8.311,11.911 -13.692,17.866c0.009,0.013 0.018,0.026 0.028,0.039c15.472,0.078 31.411,2.487 50.071,18.502c-2.763,11.937 -7.382,23.873 -14.921,35.81c12.981,8.566 25.576,18.288 36.963,31.633c-5.145,7.155 -11.036,12.445 -19.235,11.966c0.16,0.419 0.32,0.839 0.48,1.259l18.665,26.763l0,34.762l0.09,0.193l0,38.25c-6.621,-19.326 -40.969,-48.124 -41.385,-72.74c-6.848,9.746 -16.465,15.062 -30.774,12.87c-6.856,-23.475 -11.796,-49.824 -15.667,-77.776l-26.298,15.667c-2.101,-30.255 -28.908,-44.582 -40.287,-76.097c-6.365,8.522 -14.151,13.488 -23.5,14.548c-23.731,-18.858 -40.989,-32.992 -50.918,-53.715c-4.849,5.654 -9.699,10.947 -14.548,15.107c-12.333,-7.46 -20.68,-14.734 -21.262,-30.774c-3.21,9.051 -7.402,15.955 -17.346,24.62c-31.681,-24.273 -76.869,-42.313 -126.455,-48.68c1.309,18.176 -3.547,32.928 -15.667,43.644c-22.106,-25.771 -49.254,-44.944 -93.442,-60.43l-39.727,53.156c-23.116,-33.094 -61.467,-37.233 -67.145,-70.58c-0.223,-0.027 -0.446,-0.053 -0.669,-0.08c-1.588,0.191 -3.184,0.377 -4.79,0.558c-16.878,19.682 -73.778,22.449 -100.852,46.042c-5.709,-12.039 -5.788,-25.015 -3.174,-38.441l-1.299,0.078c-43.152,48.715 -95.464,42.494 -152.197,61.863c-3.031,-8.999 -5.176,-20.656 -6.715,-34.131c-11.021,18.394 -27.026,34.574 -51.477,47.001c-12.916,-7.694 -21.589,-18.418 -24.06,-33.573c-6.838,11.564 -14.367,23.128 -30.215,34.692c-6.995,-6.062 -10.911,-13.149 -13.429,-20.703c-36.289,39.963 -97.039,45.681 -128.133,95.121c-2.934,-2.678 -4.802,-7.841 -4.73,-17.531c-1.314,1.175 -2.624,2.362 -3.931,3.559c-13.882,30.921 -30.98,62.379 -52.329,94.545c-5.646,-3.536 -11.292,-8.954 -16.938,-15.106c-0.758,1.081 -1.514,2.167 -2.267,3.259l-12.688,84.587c-6.052,-0.094 -11.217,-1.959 -15.776,-5.036l0,-33.774Z" style="fill:#ececec;"/></g></g></svg>