<?xml version="1.0" encoding="UTF-8" standalone="no"?><!DOCTYPE svg PUBLIC "-//W3C//DTD SVG 1.1//EN" "http://www.w3.org/Graphics/SVG/1.1/DTD/svg11.dtd"><svg width="100%" height="100%" viewBox="0 0 1250 1438" version="1.1" xmlns="http://www.w3.org/2000/svg" xmlns:xlink="http://www.w3.org/1999/xlink" xml:space="preserve" xmlns:serif="http://www.serif.com/" style="fill-rule:evenodd;clip-rule:evenodd;stroke-linejoin:round;stroke-miterlimit:2;"><g id="Tropical"><g id="HatTropical"><path d="M0.022,262.842c1.569,-13.93 8.609,-28.797 29.325,-43.368c18.955,-13.333 51.432,-16.807 88.488,-29.835c53.717,-18.886 111.623,-45.531 106.555,-48.572l0.431,0c3.919,-1.366 24.956,-32.019 46.322,-64.405c31.721,-47.874 85.327,-76.662 142.757,-76.662c16.308,0 32.202,0 45.242,0.225c18.872,0 37.515,4.129 54.621,12.097c35.379,16.448 201.754,13.43 238.411,-1.099c18.933,-7.416 39.087,-11.223 59.422,-11.223c8.9,0 19.156,0 29.929,0.007c61.323,-0 117.964,32.79 148.501,85.968c16.401,28.721 31.512,53.858 34.827,55.092l0.413,0c-5.068,3.041 52.839,29.686 106.556,48.572c37.056,13.028 69.532,16.502 88.487,29.835c20.717,14.571 27.757,29.438 29.325,43.368c-1.761,18.534 -10.399,36.393 -25.454,49.462c-86.707,75.455 -357.02,79.321 -599.266,80.899l-0.086,-0l-0.086,-0c-242.246,-1.578 -512.559,-5.444 -599.266,-80.899c-15.054,-13.069 -23.692,-30.928 -25.454,-49.462Z" style="fill:#ebce81;"/><path d="M0.022,262.842c1.569,-13.93 8.609,-28.797 29.325,-43.368c18.955,-13.333 51.432,-16.807 88.488,-29.835c53.717,-18.886 111.623,-45.531 106.555,-48.572l0.431,0c3.919,-1.366 24.956,-32.019 46.322,-64.405c31.721,-47.874 85.327,-76.662 142.757,-76.662c16.308,0 32.202,0 45.242,0.225c18.872,0 37.515,4.129 54.621,12.097c35.379,16.448 201.754,13.43 238.411,-1.099c18.933,-7.416 39.087,-11.223 59.422,-11.223c8.9,0 19.156,0 29.929,0.007c61.323,-0 117.964,32.79 148.501,85.968c16.401,28.721 31.512,53.858 34.827,55.092l0.413,0c-5.068,3.041 52.839,29.686 106.556,48.572c37.056,13.028 69.532,16.502 88.487,29.835c20.717,14.571 27.757,29.438 29.325,43.368c-1.761,18.534 -10.399,36.393 -25.454,49.462c-86.707,75.455 -357.02,79.321 -599.266,80.899l-0.086,-0l-0.086,-0c-242.246,-1.578 -512.559,-5.444 -599.266,-80.899c-15.054,-13.069 -23.692,-30.928 -25.454,-49.462Z" style="fill:#ebce81;"/><path d="M46.683,327.34c0.539,-1.165 1.107,-2.322 1.704,-3.467c17.49,-33.531 55.24,-53.441 86.714,-71.759c31.308,-18.221 61.769,-37.88 92.674,-56.766c15.297,-9.348 37.205,-19.211 50.234,-32.203c2.836,-2.828 4.096,-7.017 5.229,-11.273c1.59,-5.977 2.674,-12.214 4.491,-17.262c6.069,-16.864 15.671,-32.546 26.154,-47.014c27.629,-38.131 70.955,-68.989 114.39,-87.59c11.134,0.014 21.706,0.061 30.869,0.219c6.173,0 12.321,0.442 18.398,1.315c-12.543,3.417 -25.12,6.627 -37.271,11.527c-42.551,17.159 -85.81,46.935 -112.89,84.308c-9.572,13.21 -18.427,27.48 -23.968,42.878c-2.064,5.734 -3.06,13.104 -5.172,19.702c-1.851,5.786 -4.496,11.037 -8.462,14.992c-13.88,13.841 -37.015,24.663 -53.311,34.622c-31.007,18.949 -61.57,38.668 -92.981,56.95c-28.905,16.822 -64.259,34.268 -80.32,65.061c-0.616,1.181 -1.193,2.375 -1.733,3.581c-5.196,-2.496 -10.117,-5.101 -14.749,-7.821Zm109.916,37.359c10.296,-7.094 19.547,-15.435 29.455,-23.33c27.024,-21.533 53.473,-43.849 79.808,-66.218c22.501,-19.111 44.711,-38.512 66.961,-57.908c10.703,-9.329 24.391,-19.086 32.874,-30.663c3.799,-5.184 5.436,-12.379 6.81,-19.716c1.676,-8.949 2.798,-18.16 5.048,-25.567c8.772,-28.875 23.36,-53.339 45.424,-74.099c25.376,-23.878 56.565,-41.98 89.08,-55.654c0.57,0.255 1.138,0.514 1.704,0.778c5.633,2.619 14.587,4.745 25.81,6.409c-38.098,13.618 -75.786,32.953 -105.173,60.605c-19.885,18.71 -32.992,40.782 -40.897,66.805c-2.555,8.408 -3.478,19.293 -5.731,29.232c-1.8,7.941 -4.43,15.324 -8.631,21.058c-9.177,12.523 -23.789,23.284 -35.367,33.376c-22.303,19.442 -44.567,38.89 -67.122,58.047c-26.468,22.481 -53.052,44.908 -80.212,66.55c-6.016,4.794 -11.823,9.718 -17.744,14.456c-7.539,-1.312 -14.909,-2.698 -22.097,-4.161Zm162.069,20.054c15.952,-25.194 30.732,-51.231 47.611,-75.814c26.825,-39.071 57.935,-77.032 81.846,-118.026c4.669,-8.005 4.435,-18.229 6.291,-27.078c3.09,-14.735 7.573,-29.531 14.496,-42.936c21.198,-41.05 53.484,-73.194 90.157,-99.916c8.323,0.741 17.316,1.309 26.72,1.711c-41.494,27.454 -78.871,60.931 -102.069,105.852c-6.237,12.079 -10.208,25.433 -12.992,38.71c-2.21,10.533 -2.649,22.526 -8.207,32.055c-24.115,41.343 -55.448,79.658 -82.502,119.061c-15.055,21.926 -28.444,45.006 -42.48,67.616c-6.333,-0.389 -12.625,-0.8 -18.871,-1.235Zm163.478,6.767c5.961,-31.825 13.559,-63.2 23.202,-94.332c8.881,-28.671 19.695,-56.739 28.105,-85.558c10.622,-36.402 15.611,-74.178 28.007,-110.135c9.376,-27.197 23.358,-53.885 39.903,-78.293c6.625,0.152 13.376,0.231 20.172,0.238c-18.501,25.588 -34.228,54.218 -44.318,83.487c-12.309,35.704 -17.217,73.226 -27.765,109.372c-8.435,28.906 -19.275,57.062 -28.183,85.82c-9.176,29.623 -16.46,59.47 -22.224,89.727c-5.638,-0.101 -11.272,-0.209 -16.899,-0.326Zm120.876,1.534c0.728,-19.937 0.84,-39.921 1.997,-59.811c6.016,-103.386 7.891,-206.773 18.802,-309.804c5.583,-0.008 11.19,-0.063 16.778,-0.166c-11.071,103.405 -12.904,207.173 -18.941,310.938c-1.141,19.607 -1.285,39.304 -1.984,58.958c-5.538,-0.036 -11.089,-0.075 -16.652,-0.115Zm153.13,-1.31c-4.23,-17.467 -10.422,-34.475 -17.157,-52.253c-10.862,-28.672 -20.43,-57.789 -30.907,-86.601c-5.327,-14.649 -12.362,-29.081 -16.241,-44.218c-3.965,-15.471 -2.387,-32.507 -4.686,-48.267c-6.664,-45.69 -15.817,-95.65 -37.442,-137.341c6.161,-0.169 12.268,-0.396 18.262,-0.677c19.988,41.86 29.118,90.678 35.672,135.613c2.216,15.188 0.517,31.624 4.339,46.534c3.745,14.614 10.616,28.518 15.759,42.66c10.452,28.743 19.994,57.79 30.83,86.393c7.445,19.652 14.167,38.442 18.572,57.814c-5.66,0.123 -11.328,0.237 -17.001,0.343Zm128.593,-4.223c-2.711,-6.315 -5.65,-12.568 -8.538,-18.883c-14.348,-31.371 -31.796,-61.98 -50.967,-90.635c-15.336,-22.922 -33.265,-44.381 -46.153,-68.874c-4.191,-7.964 -4.82,-17.43 -7.036,-26.074c-3.706,-14.456 -8.193,-29.071 -13.593,-42.968c-11.708,-30.129 -29.133,-58.338 -47.868,-84.556c-8.165,-11.426 -15.56,-23.317 -24.37,-34.194c6.851,-0.473 13.447,-1.022 19.683,-1.645c6.249,8.572 12.051,17.478 18.247,26.149c19.536,27.338 37.635,56.793 49.843,88.21c5.639,14.511 10.333,29.769 14.203,44.865c1.899,7.41 2.048,15.625 5.64,22.452c12.616,23.976 30.244,44.929 45.256,67.367c19.665,29.393 37.554,60.792 52.271,92.971c3.793,8.293 7.615,16.508 10.975,24.863c-5.833,0.335 -11.698,0.652 -17.593,0.952Zm134.505,-11.06c-13.909,-19.743 -28.654,-38.983 -43.808,-57.713c-29.183,-36.071 -62.368,-72.01 -85.927,-112.119c-10.522,-17.913 -14.962,-40.261 -24.483,-59.025c-26.212,-51.66 -68.942,-107.109 -122.344,-133.509c3.735,-0.899 6.927,-1.857 9.486,-2.872c4.003,-1.568 8.06,-2.974 12.162,-4.218c49.906,30.128 90.204,83.086 115.559,133.058c9.369,18.464 13.637,40.498 23.991,58.125c23.145,39.405 55.842,74.64 84.513,110.077c17.211,21.274 33.9,43.196 49.468,65.755c-6.12,0.852 -12.327,1.665 -18.617,2.441Zm167.935,-40.804c-2.244,-3.047 -4.607,-5.991 -7.086,-8.812c-20.358,-23.167 -51.562,-38.259 -76.84,-55c-24.566,-16.269 -47.687,-34.984 -73.256,-49.649c-19.883,-11.405 -42.91,-20.112 -60.474,-35.127c-3.072,-2.626 -5.629,-6.28 -7.8,-10.361c-2.411,-4.532 -4.325,-9.66 -6.609,-13.483c-10.731,-17.96 -20.873,-36.264 -33.601,-52.945c-33.289,-43.625 -77.418,-83.679 -127.106,-109.371c5.697,-0.605 11.433,-0.909 17.183,-0.909c4.594,0 9.549,0 14.75,0.001c41.952,26.31 79.21,61.885 108.423,100.169c13.111,17.182 23.605,36.006 34.658,54.506c2.065,3.457 3.894,7.876 5.951,12.102c1.419,2.918 2.852,5.802 4.981,7.622c16.788,14.351 38.932,22.438 57.937,33.339c25.877,14.842 49.303,33.745 74.166,50.21c26.45,17.517 58.855,33.652 80.157,57.894c3.351,3.814 6.514,7.828 9.483,12.005c-4.687,2.717 -9.664,5.318 -14.917,7.809Z" style="fill:#fedd87;"/><path d="M10.864,295.147c6.063,-25.699 21.761,-40.06 41.694,-50.81c12.812,-6.91 27.46,-12.263 42.144,-18.554c27.259,-11.679 54.193,-24.167 81.238,-36.332c19.514,-8.777 41.183,-16.182 57.944,-29.938c7.975,-6.545 13.399,-16.827 18.267,-27.521c5.532,-12.153 10.241,-24.908 15.887,-34.814c17.709,-31.067 39.082,-56.452 66.602,-77.731c24.109,-12.589 51.229,-19.447 79.26,-19.447c16.308,0 32.202,0 45.242,0.225c4.124,0 8.236,0.197 12.324,0.588c-1.802,1.614 -4.289,2.435 -6.863,2.028c-32.821,-5.185 -75.84,-0.024 -104.255,18.715c-33.45,22.059 -58.065,49.2 -77.831,83.876c-6.58,11.544 -11.782,27.105 -18.712,40.818c-5.214,10.317 -11.402,19.625 -19.348,26.147c-17.887,14.68 -40.854,22.886 -61.68,32.254c-27.136,12.206 -54.161,24.733 -81.511,36.451c-14.208,6.087 -28.401,11.219 -40.797,17.904c-16.729,9.022 -30.019,21.003 -34.16,43.691c-0.562,3.082 -0.982,6.154 -1.263,9.23c-5.657,-4.986 -10.393,-10.654 -14.182,-16.78Zm78.17,51.392c6.817,-16.182 18.732,-29.416 33.08,-40.791c20.961,-16.618 47.195,-29.165 68.415,-41.853c15.336,-9.17 30.292,-18.931 45.118,-28.901c20.84,-14.015 42.1,-27.411 63.292,-40.887c7.839,-4.985 19.344,-9.184 25.367,-16.427c3.594,-4.322 5.216,-9.396 6.387,-14.631c1.471,-6.57 2.22,-13.412 3.819,-19.929c4.07,-16.599 10.618,-32.872 18.734,-47.901c22.218,-41.143 58.81,-79.402 106.075,-89.893c7.16,-1.59 14.386,-2.62 21.651,-3.246c11.305,1.936 22.335,5.372 32.791,10.242c9.689,4.505 29.204,7.549 53.188,9.297c-1.743,0.574 -3.456,1.198 -5.124,1.895c-25.175,10.526 -50.378,25.736 -70.335,44.466c-24.165,22.679 -41.998,49.06 -55.404,79.21c-6.87,15.449 -10.047,35.605 -19.177,49.546c-11.221,17.132 -28.193,32.874 -42.585,47.126c-16.276,16.119 -31.126,33.614 -46.975,50.149c-17.75,18.518 -42.805,38.98 -62.46,62.123c-6.122,7.208 -11.737,14.674 -16.36,22.435c-6.022,-0.66 -11.978,-1.352 -17.861,-2.076c2.884,-5.545 6.23,-10.959 9.938,-16.246c20.754,-29.596 53.036,-55.155 74.711,-77.769c15.949,-16.64 30.901,-34.237 47.279,-50.458c13.6,-13.468 29.767,-28.226 40.37,-44.416c8.673,-13.242 11.365,-32.512 17.891,-47.186c14.322,-32.208 33.412,-60.364 59.228,-84.591c15.288,-14.348 33.432,-26.796 52.391,-36.848c-23.27,-1.383 -46.752,-2.442 -69.546,2.618c-42.563,9.447 -75.013,44.491 -95.021,81.541c-7.448,13.793 -13.477,28.718 -17.212,43.951c-1.572,6.409 -2.295,13.14 -3.741,19.601c-1.746,7.796 -4.485,15.21 -9.837,21.647c-7.041,8.467 -20.074,14.006 -29.239,19.834c-21.072,13.4 -42.213,26.718 -62.935,40.653c-15.071,10.135 -30.276,20.055 -45.865,29.376c-20.642,12.342 -46.224,24.444 -66.614,40.608c-11.705,9.28 -21.686,19.93 -27.505,32.987c-5.483,-1.681 -10.796,-3.432 -15.929,-5.256Zm304.665,42.309c5.879,-20.425 15.332,-39.879 24.935,-58.862c10.699,-21.149 20.424,-42.778 31.667,-63.655c11.882,-22.063 27.781,-44.083 37.584,-67.076c14.172,-33.242 22.148,-67.381 41.414,-98.515c16.173,-26.134 36.38,-50.721 55.829,-74.459c0.964,-1.176 1.976,-2.337 3.019,-3.49c7.209,0.285 14.644,0.474 22.193,0.571c-4.178,4.525 -8.578,8.915 -12.319,13.481c-18.989,23.177 -38.76,47.151 -54.549,72.667c-18.814,30.403 -26.416,63.819 -40.256,96.282c-9.996,23.445 -26.125,45.944 -38.241,68.442c-11.175,20.751 -20.835,42.253 -31.469,63.275c-8.516,16.834 -17.055,34.014 -22.669,52.008c-5.732,-0.209 -11.446,-0.432 -17.138,-0.669Zm157.997,3.746c3.919,-72.648 10.631,-145.555 22.535,-217.12c6.93,-41.66 12.031,-84.525 26.478,-124.438c3.458,-9.553 7.723,-18.639 12.201,-27.644c6.167,0.062 12.401,0.064 18.64,0.006c-5.528,10.885 -10.979,21.735 -15.17,33.311c-14.102,38.961 -18.943,80.833 -25.708,121.5c-11.764,70.72 -18.405,142.763 -22.295,214.557c-5.555,-0.053 -11.116,-0.11 -16.681,-0.172Zm107.345,0.365c-0.606,-8.242 -1.247,-16.398 -1.615,-24.298c-1.809,-38.878 -2.444,-77.803 -4.321,-116.687c-3.719,-77.048 2.646,-152.699 -13.541,-228.682c5.675,-0.098 11.332,-0.245 16.926,-0.438c15.523,75.852 9.549,151.389 13.263,228.316c1.877,38.894 2.512,77.829 4.322,116.716c0.377,8.107 1.015,16.474 1.613,24.932c-5.557,0.05 -11.107,0.097 -16.647,0.141Zm148.043,-2.409c-1.735,-6.137 -3.688,-12.073 -5.516,-17.548c-16.663,-49.905 -49.427,-92.077 -69.883,-140.118c-9.943,-23.352 -10.786,-50.619 -16.557,-75.183c-10.757,-45.782 -23.999,-93.856 -46.91,-135.325c6.257,-0.295 12.388,-0.649 18.327,-1.062c21.361,41.159 34.309,87.892 44.808,132.575c5.558,23.656 6.091,49.976 15.666,72.465c20.63,48.45 53.553,91.04 70.358,141.37c2.307,6.911 4.712,14.485 6.728,22.303c-5.658,0.186 -11.333,0.36 -17.021,0.523Zm137.822,-6.811c-8.067,-16.826 -18.575,-32.719 -28.826,-47.903c-25.349,-37.546 -52.535,-74.82 -76.251,-113.357c-10.695,-17.378 -14.245,-39.772 -20.925,-58.908c-8.916,-25.543 -20.89,-50.518 -35.327,-73.389c-17.229,-27.293 -40.305,-57.419 -70.435,-71.264c9.934,-1.139 18.742,-2.479 25.934,-4.007c24.043,17.064 43.528,42.508 58.594,66.374c15.108,23.933 27.64,50.065 36.97,76.794c6.298,18.043 9.299,39.279 19.383,55.665c23.594,38.338 50.652,75.413 75.87,112.766c11.861,17.569 23.851,36.107 32.596,55.809c-5.814,0.497 -11.676,0.97 -17.583,1.42Zm174.25,-24.904c-14.843,-28.955 -40.213,-49.447 -68.072,-71.209c-26.638,-20.809 -54.42,-40.168 -81.76,-60.032c-12.652,-9.192 -27.131,-17.141 -38.219,-28.284c-8.695,-8.738 -11.863,-19.724 -16.246,-30.984c-4.974,-12.775 -10.767,-25.252 -17.333,-37.288c-17.613,-32.287 -41.082,-60.491 -68.041,-85.431c-17.491,-16.18 -40.579,-31.66 -64.955,-38.66c9.628,-2.906 19.502,-4.913 29.493,-5.997c17.485,8.613 33.584,20.216 46.78,32.423c28.29,26.17 52.872,55.803 71.354,89.684c6.907,12.661 13.002,25.785 18.233,39.223c3.535,9.079 5.518,18.228 12.529,25.274c10.47,10.522 24.254,17.876 36.201,26.556c27.497,19.978 55.433,39.454 82.224,60.382c30.923,24.156 58.469,47.295 74.231,79.991c-5.33,1.51 -10.805,2.96 -16.419,4.352Zm126.25,-77.306c-2.196,-4.126 -4.73,-8.04 -7.772,-11.512c-18.042,-20.6 -47.162,-26.422 -71.895,-35.082c-18.155,-6.356 -35.971,-13.236 -54.602,-18.164c-12.787,-3.383 -25.841,-5.605 -38.548,-9.294c-19.542,-5.672 -39.457,-13.349 -57.74,-22.298c-22.528,-11.026 -24.476,-25.223 -35.381,-46.059c-7.067,-13.503 -15.906,-26.251 -25.079,-38.395c-38.707,-51.245 -92.506,-91.984 -154.675,-100.291c3.949,-0.289 7.912,-0.434 11.882,-0.434c8.9,0 19.156,0 29.929,0.007c6.319,-0 12.588,0.348 18.784,1.031c41.99,19.219 78.63,51.579 107.38,89.642c9.721,12.87 19.056,26.401 26.546,40.712c4.004,7.651 6.602,14.397 9.596,20.388c3.699,7.405 8.122,13.426 18.345,18.429c17.434,8.533 36.425,15.853 55.059,21.262c12.58,3.652 25.506,5.839 38.165,9.188c19.052,5.04 37.281,12.046 55.846,18.546c26.691,9.345 57.502,16.712 77.501,38.251c0.396,1.809 0.686,3.605 0.887,5.386c-0.605,6.364 -2.02,12.649 -4.228,18.687Z" style="fill:#debc61;"/><path d="M1177.23,202.919c5.779,1.546 11.267,3.058 16.41,4.656c-6.271,12.552 -15.942,23.317 -27.661,32.503c-28.069,22.004 -68.088,34.781 -97.103,42.287c-11.974,3.097 -23.978,5.551 -36.085,8.036c-16.17,3.319 -32.303,6.553 -48.66,8.842c-225.513,31.558 -452.438,16.805 -678.441,4.894c-17.504,-0.922 -34.953,-2.161 -52.383,-4.039c-14.165,-1.527 -28.273,-3.484 -42.178,-6.623c-10.895,-2.461 -21.789,-4.973 -32.573,-7.901c-27.133,-7.367 -66.82,-20.377 -91.889,-42.45c-11.887,-10.467 -20.63,-22.885 -23.96,-37.535c5.128,-1.463 10.544,-2.893 16.201,-4.396c2.468,11.536 9.463,21.224 18.773,29.422c23.203,20.431 60.128,32.056 85.242,38.874c10.553,2.866 21.215,5.321 31.877,7.728c13.283,3 26.762,4.852 40.293,6.31c17.128,1.845 34.274,3.06 51.474,3.967c224.941,11.854 450.801,26.653 675.254,-4.757c16.007,-2.24 31.795,-5.415 47.619,-8.662c11.831,-2.428 23.562,-4.819 35.263,-7.846c27.15,-7.023 64.728,-18.678 90.994,-39.268c8.819,-6.913 16.345,-14.851 21.533,-24.042Zm-105.495,-36.759c5.238,2.253 10.747,4.561 16.432,6.878c-11.475,12.684 -25.948,22.536 -40.981,31.042c-45.564,25.779 -96.225,37.474 -147.617,45.054c-57.295,8.45 -114.105,9.955 -171.766,13.144c-69.975,3.87 -138.708,6.581 -208.759,1.625c-53.748,-3.802 -106.431,-13.617 -159.63,-21.439c-52.084,-7.659 -103.041,-19.471 -152.456,-37.809c-17.69,-6.565 -36.774,-15.855 -51.421,-29.213c5.922,-2.37 11.692,-4.745 17.213,-7.078c12.017,9.179 26.59,15.686 40.006,20.665c48.32,17.932 98.154,29.457 149.083,36.945c52.784,7.761 105.052,17.531 158.381,21.304c69.348,4.906 137.39,2.19 206.662,-1.641c57.154,-3.161 113.465,-4.616 170.255,-12.992c49.36,-7.28 98.079,-18.311 141.842,-43.071c11.738,-6.642 23.217,-14.079 32.756,-23.414Zm-100.343,-106.534c-37.564,30.249 -90.64,39.26 -136.182,49.063c-126.221,27.17 -256.395,21.392 -383.95,9.479c-45.516,-4.251 -91.33,-12.739 -133.471,-30.932c-10.155,-4.385 -21.15,-11.087 -28.675,-19.826c-2.035,-2.363 -3.832,-4.866 -5.327,-7.506c3.961,-4.629 8.15,-9.025 12.544,-13.173c0.956,3.624 2.904,6.891 5.413,9.804c5.912,6.866 14.672,11.954 22.651,15.399c40.536,17.5 84.633,25.551 128.415,29.64c125.873,11.755 254.335,17.633 378.893,-9.178c42.719,-9.196 92.853,-16.75 128.211,-44.877c4.007,3.834 7.839,7.873 11.478,12.107Z" style="fill:#dab85e;"/><path d="M1191.12,206.807c0.849,0.254 1.689,0.51 2.52,0.768c-6.271,12.552 -15.942,23.317 -27.661,32.503c-28.069,22.004 -68.088,34.781 -97.103,42.287c-11.974,3.097 -23.978,5.551 -36.085,8.036c-16.17,3.319 -32.303,6.553 -48.66,8.842c-225.513,31.558 -452.438,16.805 -678.441,4.894c-17.504,-0.922 -34.953,-2.161 -52.383,-4.039c-14.165,-1.527 -28.273,-3.484 -42.178,-6.623c-10.895,-2.461 -21.789,-4.973 -32.573,-7.901c-27.133,-7.367 -66.82,-20.377 -91.889,-42.45c-11.887,-10.467 -20.63,-22.885 -23.96,-37.535c0.457,-0.131 0.917,-0.261 1.378,-0.391c4.029,12.491 12.078,23.264 22.582,32.513c25.069,22.073 64.756,35.083 91.889,42.45c10.784,2.928 21.678,5.441 32.573,7.901c13.905,3.14 28.013,5.096 42.178,6.623c17.43,1.878 34.879,3.117 52.383,4.039c226.003,11.911 452.928,26.665 678.441,-4.894c16.357,-2.289 32.49,-5.523 48.66,-8.842c12.107,-2.485 24.111,-4.939 36.085,-8.036c29.015,-7.506 69.034,-20.283 97.103,-42.287c10.247,-8.032 18.929,-17.272 25.141,-27.858Zm-106.656,-35.287c1.225,0.505 2.46,1.012 3.703,1.518c-11.475,12.684 -25.948,22.536 -40.981,31.042c-45.564,25.779 -96.225,37.474 -147.617,45.054c-57.295,8.45 -114.105,9.955 -171.766,13.144c-69.975,3.87 -138.708,6.581 -208.759,1.625c-53.748,-3.802 -106.431,-13.617 -159.63,-21.439c-52.084,-7.659 -103.041,-19.471 -152.456,-37.809c-17.69,-6.565 -36.774,-15.855 -51.421,-29.213c1.436,-0.575 2.862,-1.15 4.279,-1.724c13.973,11.405 31.128,19.581 47.142,25.524c49.415,18.338 100.372,30.151 152.456,37.809c53.199,7.822 105.882,17.637 159.63,21.439c70.051,4.956 138.784,2.245 208.759,-1.625c57.661,-3.189 114.471,-4.694 171.766,-13.144c51.392,-7.58 102.053,-19.274 147.617,-45.054c13.458,-7.615 26.468,-16.308 37.278,-27.147Zm-115.894,-115.096c0.953,1.054 1.894,2.121 2.822,3.202c-37.564,30.249 -90.64,39.26 -136.182,49.063c-126.221,27.17 -256.395,21.392 -383.95,9.479c-45.516,-4.251 -91.33,-12.739 -133.471,-30.932c-10.155,-4.385 -21.15,-11.087 -28.675,-19.826c-2.035,-2.363 -3.832,-4.866 -5.327,-7.506c0.65,-0.76 1.307,-1.514 1.969,-2.261c1.027,1.5 2.151,2.952 3.358,4.354c7.525,8.739 18.52,15.442 28.675,19.826c42.141,18.193 87.955,26.681 133.471,30.932c127.555,11.913 257.729,17.691 383.95,-9.478c44.413,-9.56 95.991,-18.368 133.36,-46.853Z" style="fill:#caa33b;"/><path d="M1246.71,250.574c3.404,9.04 3.705,17.85 2.945,26.124c-1.709,18.62 -10.356,36.576 -25.476,49.702c-86.707,75.455 -357.02,79.321 -599.266,80.899l-0.086,-0l-0.086,-0c-242.246,-1.578 -512.559,-5.444 -599.266,-80.899c-15.12,-13.126 -23.767,-31.082 -25.476,-49.702c-0.759,-8.274 -0.459,-17.084 2.946,-26.124c3.972,13.043 11.542,25.133 22.53,34.672c86.707,75.455 357.02,79.321 599.266,80.899l0.086,0l0.086,0c242.246,-1.578 512.559,-5.444 599.266,-80.899c10.988,-9.539 18.558,-21.629 22.531,-34.672Z" style="fill:#33322f;"/><path d="M1249.63,262.842c0.534,4.743 0.433,9.378 0.022,13.856c-1.709,18.62 -10.356,36.576 -25.476,49.702c-86.707,75.455 -357.02,79.321 -599.266,80.899l-0.086,-0l-0.086,-0c-242.246,-1.578 -512.559,-5.444 -599.266,-80.899c-15.12,-13.126 -23.767,-31.082 -25.476,-49.702c-0.411,-4.478 -0.511,-9.113 0.022,-13.856c1.762,18.534 10.4,36.393 25.454,49.462c86.707,75.455 357.02,79.321 599.266,80.899l0.086,-0l0.086,-0c242.246,-1.578 512.559,-5.444 599.266,-80.899c15.055,-13.069 23.693,-30.928 25.454,-49.462Z" style="fill:#121212;"/><path d="M1041.26,152.125c-0.326,0.483 -0.677,0.956 -1.051,1.417c-14.647,18.031 -50.628,34.401 -101.401,45.7c-106.063,23.603 -280.459,31.175 -431.272,23.411c-101.608,-5.231 -192.579,-17.554 -245.464,-36.113c-27.363,-9.603 -45.55,-21.961 -53.668,-34.42c-2.442,-3.749 25.982,-28.862 29.148,-26.202c1.532,1.287 2.893,2.831 4.015,4.615c2.737,4.351 8.524,7.74 16.01,11.428c10.594,5.22 24.286,9.895 40.451,14.163c51.961,13.721 128.026,22.712 211.542,27.011c147.09,7.572 317.198,0.503 420.642,-22.518c25.097,-5.585 46.076,-12.03 61.418,-19.602c7.912,-3.904 14.131,-7.826 17.865,-12.422c1.09,-1.342 2.32,-2.504 3.652,-3.482c4.953,-3.635 31.525,21.961 28.113,27.014Z" style="fill:#33322f;"/><path d="M1038.19,144.122c2.623,3.552 4.025,6.586 3.068,8.003c-0.326,0.483 -0.677,0.956 -1.051,1.417c-14.647,18.031 -50.628,34.401 -101.401,45.7c-106.063,23.603 -280.459,31.175 -431.272,23.411c-101.608,-5.231 -192.579,-17.554 -245.464,-36.113c-27.363,-9.603 -45.55,-21.961 -53.668,-34.42c-0.665,-1.021 0.959,-3.627 3.739,-6.824c9.34,10.751 26.178,21.162 49.929,29.497c52.885,18.56 143.856,30.883 245.464,36.113c150.813,7.764 325.209,0.193 431.272,-23.41c48.58,-10.811 83.618,-26.265 99.384,-43.374Z" style="fill:#121212;"/></g></g></svg>