<?xml version="1.0" encoding="UTF-8" standalone="no"?><!DOCTYPE svg PUBLIC "-//W3C//DTD SVG 1.1//EN" "http://www.w3.org/Graphics/SVG/1.1/DTD/svg11.dtd"><svg width="100%" height="100%" viewBox="0 0 1250 1438" version="1.1" xmlns="http://www.w3.org/2000/svg" xmlns:xlink="http://www.w3.org/1999/xlink" xml:space="preserve" xmlns:serif="http://www.serif.com/" style="fill-rule:evenodd;clip-rule:evenodd;stroke-linejoin:round;stroke-miterlimit:2;"><g id="Egyptian"><g id="HatEgyptian"><path d="M625,-3.354c247.879,2.581 397.928,83.446 498.408,59.591c60.04,25.896 105.282,73.166 126.592,155.004l0,876.22c-3.096,85.199 -29.231,69.031 -46.75,147.565c-7.264,28.817 -33.182,49.012 -62.9,49.012c-0.003,0.29 -0.005,0.29 -0.005,0.29l0,-719.694c0,-67.732 -54.907,-122.639 -122.638,-122.639l-785.414,0c-67.731,0 -122.638,54.907 -122.638,122.639l-0,719.694l-1.783,0c-28.939,-0.001 -54.146,-19.741 -61.081,-47.837c-17.251,-80.193 -43.677,-63.329 -46.791,-149.03l0,-876.22c21.31,-81.838 66.552,-129.108 126.592,-155.004c100.48,23.855 250.529,-57.01 498.408,-59.591Z" style="fill:#2e475c;"/><path d="M0,1054.95l0,-158.77c38.342,42.058 75.572,85.199 109.655,130.337l-0,86.497c-24.259,-13.014 -49.123,-24.94 -73.469,-37.718c-11.904,-6.247 -24.047,-13.147 -36.186,-20.346Zm-0,-256.699l0,-151.962c20.948,43.244 42.608,86.29 64.384,129.078c6.069,11.924 27.545,52.29 45.271,86.565l-0,58.022c-35.195,-41.7 -72.306,-82.02 -109.655,-121.703Zm0,-307.801l-0,-198.494c34.198,90.702 83.505,253.216 109.655,364.695l-0,60.606c-20.501,-40.532 -40.781,-81.284 -60.325,-122.207c-16.59,-34.74 -32.002,-70.24 -49.33,-104.6Zm17.733,-328.966c24.196,-51.464 61.282,-84.31 107.131,-104.496c25.766,136.961 17.302,278.525 24.516,417.279c-5.437,4.992 -35.26,39.991 -39.725,45.883c-11.108,-38.342 1.959,-106.405 -9.617,-142.395c-16.185,-50.319 -31.991,-95.653 -45.079,-128.493c-11.906,-29.873 -23.508,-59.404 -37.226,-87.778Zm175.132,-102.008c33.867,-2.935 72.284,-11.121 116.282,-20.657c11.994,133.878 12.154,268.78 15.115,403.174l-91.969,0c-5.987,0 -11.874,0.429 -17.632,1.259c-5.185,-127.825 -0.56,-257.538 -21.796,-383.776Zm181.945,-34.556c34.558,-6.948 72.076,-13.661 112.906,-18.809c5.836,43.285 3.606,88.294 5.242,131.323c3.694,97.174 6.715,193.169 2.039,290.301c-0.243,5.042 0.65,9.877 2.453,14.258l-106.507,0c-3.107,-139.032 -3.291,-278.604 -16.133,-417.073Zm178.763,-25.34c22.865,-1.639 46.657,-2.678 71.427,-2.936c24.77,0.258 48.562,1.297 71.427,2.936c-5.478,44.799 -4.317,90.962 -6.003,135.322c-3.767,99.094 -6.779,196.987 -2.01,296.039c0.188,3.908 1.043,7.627 2.45,11.052l-131.728,0c1.407,-3.425 2.262,-7.144 2.45,-11.052c4.769,-99.052 1.757,-196.945 -2.01,-296.039c-1.686,-44.36 -0.525,-90.523 -6.003,-135.322Zm208.711,6.531c40.83,5.148 78.348,11.861 112.906,18.809c-12.842,138.469 -13.026,278.041 -16.133,417.073l-106.507,0c1.803,-4.381 2.696,-9.216 2.453,-14.258c-4.676,-97.132 -1.655,-193.127 2.039,-290.301c1.636,-43.029 -0.594,-88.038 5.242,-131.323Zm178.569,32.708c43.998,9.536 82.415,17.722 116.282,20.657c-21.236,126.238 -16.611,255.951 -21.796,383.776c-5.758,-0.83 -11.645,-1.259 -17.632,-1.259l-91.969,0c2.961,-134.394 3.121,-269.296 15.115,-403.174Zm184.283,18.169c45.849,20.186 82.935,53.032 107.131,104.496c-13.718,28.374 -25.32,57.905 -37.226,87.778c-12.063,30.27 -26.363,70.915 -41.108,116.19c-12.859,39.482 -1.239,113.33 -13.588,156.045c-4.47,-5.902 -34.28,-42.231 -39.725,-47.23c7.214,-138.754 -1.25,-280.318 24.516,-417.279Zm124.864,234.963l0,198.499c-17.328,34.36 -32.74,69.86 -49.33,104.6c-19.544,40.923 -39.824,81.675 -60.325,122.207l0,-59.748c25.729,-110.932 75.158,-274.104 109.655,-365.558Zm0,354.338l0,151.962c-37.349,39.683 -74.46,80.003 -109.655,121.703l0,-58.491c16.287,-31.603 38.541,-72.873 45.271,-86.096c21.776,-42.788 43.436,-85.834 64.384,-129.078Zm0,249.891l0,158.77c-12.139,7.199 -24.282,14.099 -36.186,20.346c-24.346,12.778 -49.21,24.704 -73.469,37.718l0,-86.497c34.083,-45.138 71.313,-88.279 109.655,-130.337Zm-5.963,238.544c-9.427,35.697 -27.562,41.015 -40.787,100.3c-7.264,28.817 -33.182,49.012 -62.9,49.012c-0.003,0.29 -0.005,0.29 -0.005,0.29l0,-94.487c33.263,-20.711 69.048,-36.968 103.692,-55.115Zm-1134.38,55.115l-0,94.487l-1.783,0c-28.939,-0.001 -54.146,-19.741 -61.081,-47.837c-13.048,-60.655 -31.345,-65.785 -40.833,-101.767c34.646,18.147 70.432,34.405 103.697,55.117Z" style="fill:#d09100;"/><path d="M418.595,323.688l61.365,-1.805l-8.423,-291.182c-18.662,1.441 -38.09,5.176 -58.357,11.43c4.18,95.764 2.842,190.615 5.415,281.557Z" style="fill:#f7ad00;"/><path d="M601.486,122.146l-1.804,-96.86c23.713,-2.908 48.079,-1.504 71.592,-0l-4.211,83.023c-23.547,2.925 -45.239,7.704 -65.577,13.837Z" style="fill:#f7ad00;"/><path d="M802.426,111.919l4.813,-70.991c14.84,1.252 29.68,4.162 44.52,10.227l-4.212,76.216c-13.386,-7.632 -28.526,-12.633 -45.121,-15.452Z" style="fill:#f7ad00;"/><path d="M982.309,323.688l-5.414,-250.819c21.057,3.059 39.908,12.034 57.153,11.28l-14.438,239.539l-37.301,-0Z" style="fill:#f7ad00;"/><path d="M1137.92,349.486c17.246,-68.026 51.338,-126.552 77.007,-186.501c-14.419,-22.786 -33.307,-39.985 -54.145,-54.747c-7.658,68.735 -25.114,134.535 -33.691,235.833l10.829,5.415Z" style="fill:#f7ad00;"/><path d="M301.677,322.484l-46.926,1.204l-20.455,-252.022c18.096,-1.588 36.248,-9.362 57.153,-13.362c8.383,80.047 9.892,177.696 10.228,264.18Z" style="fill:#f7ad00;"/><path d="M129.615,349.486c-4.45,-95.022 -0.322,-198.291 -24.065,-258.695c-21.797,11.776 -39.169,28.53 -48.129,54.747c24.423,53.646 44.563,127.637 62.568,211.769l9.626,-7.821Z" style="fill:#f7ad00;"/><path d="M109.655,564.634c2.38,-146.765 -8.661,-178.766 -11.656,-192.026c-6.35,-28.109 -40.538,-119.43 -47.774,-134.831c-4.969,24.025 1.975,122.183 16.945,171.21c15.983,52.343 34.917,100.077 42.485,155.647Z" style="fill:#233544;"/><path d="M1140.35,564.634c-2.38,-146.765 7.698,-185.288 11.163,-198.434c17.88,-67.836 58.514,-167.305 58.222,-141.574c-10.059,55.435 -6.363,109.246 -18.305,161.778c-13.858,60.955 -43.175,120.186 -51.08,178.23Z" style="fill:#233544;"/><path d="M1140.35,539.848c0,-67.731 -54.907,-122.638 -122.638,-122.638l-785.414,-0c-67.731,-0 -122.638,54.907 -122.638,122.638l-0,-69.388c-0,-67.731 54.907,-122.638 122.638,-122.638l785.414,-0c67.731,-0 122.638,54.907 122.638,122.638l0,69.388Z" style="fill:#080600;fill-opacity:0.25;"/><path d="M1140.35,564.634c0,-67.732 -54.907,-122.639 -122.638,-122.639l-785.414,0c-67.731,0 -122.638,54.907 -122.638,122.639l-0,-69.388c-0,-67.731 54.907,-122.638 122.638,-122.638l785.414,-0c67.731,-0 122.638,54.907 122.638,122.638l0,69.388Z" style="fill:#b47e01;"/><path d="M1140.35,549.358c0,-67.731 -54.907,-122.638 -122.638,-122.638l-785.414,-0c-67.731,-0 -122.638,54.907 -122.638,122.638l-0,-54.112c-0,-67.731 54.907,-122.638 122.638,-122.638l785.414,-0c67.731,-0 122.638,54.907 122.638,122.638l0,54.112Z" style="fill:#d19200;"/><path d="M109.988,523.22c-0.221,3.005 -0.333,6.039 -0.333,9.1l-0,-9.1l0.333,-0Zm55.298,-118.672c19.261,-12.589 42.28,-19.908 67.007,-19.908l785.414,0c37.453,0 70.985,16.789 93.48,43.252l-0,25.042c-22.495,-26.463 -56.027,-43.252 -93.48,-43.252l-785.414,-0c-24.727,-0 -47.746,7.318 -67.007,19.908l-0,-25.042Z" style="fill:#f7ad00;"/><g><path d="M520.806,441.995c-5.433,-9.526 -8.497,-20.458 -8.587,-32.733l-0.003,-0.108c-0.292,-6.566 -2.598,-71.829 17.449,-137.09c22.195,-72.251 71.087,-143.582 174.774,-144.285c1.099,-0.134 2.197,-0.192 3.236,-0.199c38.07,-1.026 84.981,1.364 116.493,15.149c22.326,9.766 37.794,24.805 42.428,46.102c13.431,5.013 37.703,15.74 77.258,38.414c11.468,6.565 15.747,18.771 12.569,32.65c-1.917,8.375 -7.114,16.85 -12.374,22.838c-4.441,15.287 -18.586,26.466 -35.067,26.582c-0.043,0.001 -0.087,0.001 -0.131,0.001c0,-0 -184.141,-0 -184.141,-0l-0,99.386c-0,12.503 -3.075,23.623 -8.59,33.293l-195.314,0Z" style="fill-opacity:0.25;"/><path d="M530.766,408.702c-0,-0 -14.07,-262.381 175.273,-262.381c0.672,-0.192 1.32,-0.192 1.992,-0.192c59.137,-1.609 141.467,4.201 141.467,56.687c0,0 21.057,3.794 85.14,40.529c10.612,6.075 -1.345,27.227 -7.731,30.373c-0.613,9.486 -8.55,16.98 -18.056,17.047l-202.692,-0l-0,117.937c-0,79.892 -175.393,79.892 -175.393,-0Z" style="fill:#d19200;fill-rule:nonzero;"/><path d="M799.624,202.42c-14.783,2.553 -36.555,16.738 -87.247,42.678c-41.945,21.417 -82.234,-8.716 -82.234,-8.716c0,0 47.78,-8.139 82.835,-27.491c40.588,-22.458 75.763,-12.871 87.363,-8.568l0.576,-1.685c15.774,-1.618 31.986,-0.156 48.593,4.063c12.858,3.522 26.03,9.71 39.298,16.111c-30.676,-6.534 -61.31,-9.993 -91.985,-8.193l2.801,-8.199Zm127.283,71.298c-0.713,9.474 -8.723,16.881 -18.224,16.855l-77.72,-0c-4.625,0.005 -8.925,-2.425 -11.309,-6.387c-1.385,-2.264 -2.118,-4.867 -2.118,-7.52c0,-6.257 4.077,-11.832 10.041,-13.729c0.384,-0.17 0.807,-0.235 1.225,-0.192c53.062,13.59 97.552,11.261 98.105,10.973Zm-362.023,32.605c30.757,8.212 52.174,28.02 43.434,61.058c-8.74,33.038 -37.192,39.76 -67.948,31.621c-3.362,-0.888 -6.627,-1.921 -9.748,-3.073c0.091,-31.249 3.479,-62.405 10.108,-92.943c8.163,0.036 16.286,1.16 24.154,3.337Zm22.401,-103.843c24.25,6.411 41.129,22.089 34.238,48.116c-6.89,26.027 -29.316,31.309 -53.566,24.898c-6.142,-1.536 -12.053,-3.887 -17.575,-6.986c8.043,-23.602 19.28,-46.748 35.054,-66.484l1.849,0.456Z" style="fill:#ffbd0a;"/><circle cx="775.067" cy="200.103" r="37.912" style="fill:#b08206;"/><circle cx="775.067" cy="210.619" r="37.912" style="fill:#ffd259;"/><path d="M757.826,222.345c-0.938,-3.826 -1.487,-7.754 -1.63,-11.726c0.381,-10.855 3.8,-21.388 9.868,-30.396c1.856,-2.783 4.987,-4.459 8.331,-4.459c3.345,0 6.476,1.676 8.332,4.459c0.395,0.585 0.779,1.177 1.152,1.774c-2.785,1.94 -4.61,5.166 -4.61,8.814c0,5.924 4.809,10.733 10.733,10.733c0.532,-0 1.056,-0.039 1.568,-0.114c0.599,3.018 0.96,6.09 1.073,9.189c-0.377,10.863 -3.799,21.405 -9.868,30.421c-1.856,2.783 -4.987,4.459 -8.332,4.459c-3.344,-0 -6.475,-1.676 -8.331,-4.459c-0.736,-1.088 -1.432,-2.198 -2.089,-3.329c5.625,-0.637 9.916,-3.927 9.916,-7.884c-0,-4.412 -5.336,-7.995 -11.909,-7.995c-1.48,0 -2.897,0.182 -4.204,0.513Z" style="fill:#e9aa00;fill-rule:nonzero;"/><path d="M925.154,249.348c-0,-0 -12.485,7.731 -5.546,11.164c6.939,3.434 5.546,-11.164 5.546,-11.164Z" style="fill:#b08206;fill-rule:nonzero;"/><ellipse cx="574.519" cy="373.198" rx="17.943" ry="17.028" style="fill:#f0be13;"/><path d="M536.867,322.283l126.936,-171.049c12.814,-3.182 26.853,-4.913 42.236,-4.913c0.672,-0.192 1.32,-0.192 1.992,-0.192c1.827,-0.05 3.676,-0.093 5.544,-0.127l-183.024,246.627c0.163,-15.68 1.345,-41.356 6.316,-70.346Zm0.067,110.364l212.308,-286.088c50.124,2.766 100.256,15.301 100.256,56.257c0,0 4.018,0.724 13.883,4.6l-61.853,83.349l-95.369,-0l-0,117.937c-0,4.5 -0.557,8.747 -1.607,12.74l-22.136,29.828c-40.9,28.223 -122.475,22.015 -145.482,-18.623Z" style="fill:#ffb70f;fill-opacity:0.25;"/></g></g></g></svg>