<?xml version="1.0" encoding="UTF-8" standalone="no"?><!DOCTYPE svg PUBLIC "-//W3C//DTD SVG 1.1//EN" "http://www.w3.org/Graphics/SVG/1.1/DTD/svg11.dtd"><svg width="100%" height="100%" viewBox="0 0 1250 1438" version="1.1" xmlns="http://www.w3.org/2000/svg" xmlns:xlink="http://www.w3.org/1999/xlink" xml:space="preserve" xmlns:serif="http://www.serif.com/" style="fill-rule:evenodd;clip-rule:evenodd;stroke-linejoin:round;stroke-miterlimit:2;"><g id="Hippie"><g><g><path d="M972.263,255.424c-0,0 -22.08,66.105 -50.289,88.12c-28.208,22.014 -66.08,2.696 -66.08,2.696c0,-0 -9.537,-41.431 18.671,-63.445c28.208,-22.014 97.698,-27.371 97.698,-27.371Z" style="fill:#3f9342;"/><path d="M972.263,255.424c-0,0 -22.08,66.105 -50.289,88.12c-28.208,22.014 -66.08,2.696 -66.08,2.696l116.369,-90.816Z" style="fill:#337c36;"/><path d="M838.8,354.414c22.801,-17.295 53.927,-38.127 77.6,-55.394c-22.565,19.093 -47.95,44.596 -70.662,62.938c-6.532,5.275 -15.216,-1.265 -6.938,-7.544Z" style="fill:#346936;"/></g><g><path d="M325.638,277.222c-0,0 22.079,66.106 50.288,88.12c28.208,22.014 66.08,2.696 66.08,2.696c-0,-0 9.538,-41.431 -18.671,-63.445c-28.208,-22.014 -97.697,-27.371 -97.697,-27.371Z" style="fill:#3f9342;"/><path d="M325.638,277.222c-0,0 22.079,66.106 50.288,88.12c28.208,22.014 66.08,2.696 66.08,2.696l-116.368,-90.816Z" style="fill:#337c36;"/><path d="M459.1,376.212c-22.8,-17.294 -53.926,-38.127 -77.6,-55.393c22.565,19.092 47.95,44.595 70.662,62.937c6.532,5.275 15.216,-1.265 6.938,-7.544Z" style="fill:#346936;"/></g><g><path d="M653.127,563.687c0,-0 -22.08,-66.106 -50.288,-88.12c-28.208,-22.014 -66.08,-2.696 -66.08,-2.696c0,0 -9.538,41.431 18.671,63.445c28.208,22.014 97.697,27.371 97.697,27.371Z" style="fill:#3f9342;"/><path d="M653.127,563.687c0,-0 -22.08,-66.106 -50.288,-88.12c-28.208,-22.014 -66.08,-2.696 -66.08,-2.696l116.368,90.816Z" style="fill:#337c36;"/><path d="M519.664,464.697c22.801,17.294 53.927,38.127 77.6,55.393c-22.564,-19.092 -47.949,-44.595 -70.661,-62.937c-6.532,-5.275 -15.216,1.265 -6.939,7.544Z" style="fill:#346936;"/></g><g><path d="M1157.91,592.101c0,0 -19.539,-66.9 -8.91,-101.067c10.629,-34.167 52.757,-39.881 52.757,-39.881c0,-0 31.453,28.604 20.824,62.771c-10.629,34.166 -64.671,78.177 -64.671,78.177Z" style="fill:#3f9342;"/><path d="M1157.91,592.101c0,0 -19.539,-66.9 -8.91,-101.067c10.629,-34.167 52.757,-39.881 52.757,-39.881l-43.847,140.948Z" style="fill:#337c36;"/><path d="M1211.14,434.692c-8.876,27.207 -22.575,62.066 -32.184,89.746c7.657,-28.549 13.977,-63.973 22.183,-91.99c2.36,-8.057 13.223,-7.633 10.001,2.244Z" style="fill:#346936;"/></g><path d="M807.981,309.084c-3.721,-4.382 -3.184,-10.961 1.199,-14.682c4.383,-3.721 10.962,-3.183 14.682,1.199c25.112,29.579 32.495,71.389 30.038,109.218c-1.155,17.769 -6.006,35.101 -7.522,52.83c-3.027,35.399 -1.059,68.942 5.573,103.856c1.073,5.649 -2.642,11.105 -8.29,12.178c-5.648,1.073 -11.105,-2.642 -12.177,-8.29c-6.994,-36.818 -9.056,-72.19 -5.864,-109.519c1.504,-17.588 6.345,-34.778 7.49,-52.406c2.119,-32.618 -3.476,-68.878 -25.129,-94.384Z" style="fill:#409342;"/><path d="M492.023,285.204c4.065,-4.065 10.666,-4.065 14.731,0c4.065,4.065 4.065,10.666 0,14.732c-6.701,6.7 -14.468,12.192 -20.849,19.249c-6.749,7.465 -11.332,16.978 -13.93,26.655c-9.531,35.498 1.013,71.651 3.716,107.2c0.782,10.283 2.044,20.704 0.964,31.012c-1.629,15.542 -7.324,30.837 -14.738,44.513c-2.74,5.054 -9.068,6.933 -14.122,4.193c-5.055,-2.74 -6.933,-9.068 -4.193,-14.122c6.13,-11.307 10.986,-23.905 12.333,-36.755c0.95,-9.064 -0.33,-18.22 -1.018,-27.261c-2.878,-37.855 -13.212,-76.382 -3.063,-114.182c3.442,-12.817 9.659,-25.339 18.598,-35.225c6.616,-7.318 14.623,-13.061 21.571,-20.009Z" style="fill:#409342;"/><path d="M1250,356.804l-1250,-31.962l-0,164.806l1250,0l0,-132.844Z" style="fill:#ab6722;"/><path d="M1250,324.842c-336.705,21.639 -672.849,38.232 -1012.06,82.403l0,82.403l1012.06,0l0,-164.806Z" style="fill:#cf7a25;"/><rect x="-0" y="471.869" width="1250" height="17.779" style="fill:#88511a;"/><g><path d="M444.578,550.833c15.91,2.961 22.507,39.316 17.523,66.088c-4.984,26.771 -19.673,33.887 -35.583,30.925c-15.911,-2.962 -27.055,-14.887 -22.072,-41.658c4.984,-26.772 24.221,-58.317 40.132,-55.355Z" style="fill:#af0106;"/><path d="M444.578,550.833c10.52,-12.298 45.302,0.166 65.995,17.868c20.693,17.702 19.511,33.981 8.991,46.279c-10.52,12.297 -26.42,15.987 -47.113,-1.715c-20.693,-17.702 -38.394,-50.135 -27.873,-62.432Z" style="fill:#d72d31;"/><path d="M444.578,550.833c-9.156,-13.345 11.885,-43.716 34.34,-59.123c22.454,-15.406 37.873,-10.051 47.029,3.294c9.156,13.344 8.604,29.657 -13.85,45.064c-22.455,15.406 -58.364,24.109 -67.519,10.765Z" style="fill:#ff464b;"/><path d="M444.578,550.833c-15.26,5.39 -39.15,-22.796 -48.22,-48.473c-9.07,-25.676 0.094,-39.183 15.353,-44.574c15.26,-5.39 30.874,-0.635 39.944,25.042c9.069,25.677 8.182,62.614 -7.077,68.005Z" style="fill:#d72d31;"/><path d="M444.578,550.833c1.257,16.134 -32.152,31.916 -59.301,34.031c-27.149,2.115 -37.825,-10.232 -39.082,-26.367c-1.256,-16.135 7.378,-29.986 34.527,-32.101c27.149,-2.115 62.599,8.302 63.856,24.437Z" style="fill:#ff464b;"/><path d="M449.262,525.667c15.911,2.962 26.423,18.284 23.461,34.194c-2.962,15.91 -18.283,26.423 -34.194,23.461c-15.91,-2.962 -26.422,-18.284 -23.46,-34.194c2.961,-15.91 18.283,-26.423 34.193,-23.461Z" style="fill:#ffcd00;"/></g><path d="M168.42,413.693c-97.228,43.817 -147.988,129.975 -140.153,317.116l76.101,10.781c-7.099,-110.829 11.407,-205.451 94.492,-260.831l-30.44,-67.066Z" style="fill:#cf7a25;"/><path d="M171.576,502.442c-8.994,-11.563 -15.628,-25.015 -19.938,-40.325c-17.141,3.801 -33.908,1.996 -50.419,-3.656c18.996,-18.612 41.472,-33.173 67.201,-44.768l30.44,67.066c-10.009,6.671 -19.081,13.912 -27.284,21.683Z" style="fill:#a46628;fill-opacity:0.54;"/><path d="M1250,457.605c-0.754,0.19 -1.542,0.293 -2.354,0.298l-20.117,0.129c-5.441,0.035 -9.887,-4.354 -9.922,-9.796c-0.035,-5.441 4.354,-9.887 9.796,-9.922l20.117,-0.129c0.856,-0.006 1.687,0.098 2.48,0.299l0,19.121Zm-867.395,5.848c-5.441,0.035 -9.887,-4.354 -9.922,-9.795c-0.035,-5.442 4.354,-9.888 9.796,-9.923l20.116,-0.129c5.442,-0.035 9.888,4.355 9.923,9.796c0.035,5.441 -4.355,9.887 -9.796,9.922l-20.117,0.129Zm241.405,-1.548c-5.441,0.034 -9.887,-4.355 -9.922,-9.796c-0.035,-5.442 4.354,-9.888 9.796,-9.923l20.117,-0.129c5.441,-0.035 9.887,4.355 9.922,9.796c0.035,5.442 -4.355,9.888 -9.796,9.923l-20.117,0.129Zm120.705,-0.775c-5.442,0.035 -9.888,-4.354 -9.923,-9.796c-0.035,-5.441 4.355,-9.887 9.796,-9.922l20.118,-0.129c5.441,-0.035 9.887,4.354 9.922,9.796c0.035,5.441 -4.354,9.887 -9.795,9.922l-20.118,0.129Zm60.352,-0.387c-5.442,0.035 -9.888,-4.355 -9.923,-9.796c-0.035,-5.441 4.355,-9.887 9.796,-9.922l20.117,-0.129c5.442,-0.035 9.888,4.354 9.923,9.795c0.035,5.442 -4.355,9.888 -9.796,9.923l-20.117,0.129Zm60.351,-0.387c-5.442,0.035 -9.888,-4.355 -9.923,-9.796c-0.035,-5.442 4.355,-9.888 9.796,-9.923l20.118,-0.129c5.441,-0.035 9.887,4.355 9.922,9.796c0.035,5.442 -4.354,9.888 -9.796,9.923l-20.117,0.129Zm-422.462,2.71c-5.442,0.035 -9.888,-4.354 -9.923,-9.796c-0.035,-5.441 4.355,-9.887 9.796,-9.922l20.117,-0.129c5.442,-0.035 9.888,4.354 9.923,9.796c0.035,5.441 -4.355,9.887 -9.796,9.922l-20.117,0.129Zm482.814,-3.098c-5.441,0.035 -9.887,-4.354 -9.922,-9.795c-0.035,-5.442 4.354,-9.888 9.796,-9.923l20.117,-0.129c5.441,-0.035 9.888,4.355 9.922,9.796c0.035,5.441 -4.354,9.887 -9.795,9.922l-20.118,0.129Zm60.352,-0.387c-5.441,0.035 -9.887,-4.354 -9.922,-9.796c-0.035,-5.441 4.354,-9.887 9.796,-9.922l20.117,-0.129c5.441,-0.035 9.887,4.354 9.922,9.796c0.035,5.441 -4.354,9.887 -9.796,9.922l-20.117,0.129Zm-725.01,4.766c-5.438,0.198 -10.013,-4.056 -10.211,-9.494c-0.198,-5.438 4.056,-10.014 9.494,-10.212c3.756,-0.136 7.58,-0.202 11.471,-0.196l10.025,-0.064c5.442,-0.035 9.888,4.354 9.923,9.795c0.035,5.442 -4.355,9.888 -9.796,9.923l-10.059,0.064c-0.026,0.001 -0.053,0.001 -0.08,0.001c-3.653,-0.007 -7.241,0.055 -10.767,0.183Zm785.361,-5.153c-5.442,0.035 -9.888,-4.354 -9.923,-9.796c-0.034,-5.441 4.355,-9.887 9.796,-9.922l20.118,-0.129c5.441,-0.035 9.887,4.354 9.922,9.796c0.035,5.441 -4.354,9.887 -9.796,9.922l-20.117,0.129Zm-482.813,3.098c-5.441,0.035 -9.887,-4.355 -9.922,-9.796c-0.035,-5.441 4.354,-9.888 9.796,-9.922l20.116,-0.13c5.441,-0.034 9.887,4.355 9.922,9.796c0.035,5.442 -4.354,9.888 -9.796,9.923l-20.116,0.129Zm543.164,-3.485c-5.441,0.035 -9.887,-4.355 -9.922,-9.796c-0.035,-5.442 4.355,-9.888 9.796,-9.922l20.117,-0.13c5.442,-0.034 9.888,4.355 9.923,9.796c0.034,5.442 -4.355,9.888 -9.796,9.923l-20.118,0.129Zm60.353,-0.387c-5.441,0.034 -9.887,-4.355 -9.922,-9.796c-0.035,-5.442 4.354,-9.888 9.796,-9.923l20.117,-0.129c5.442,-0.035 9.888,4.355 9.923,9.796c0.034,5.441 -4.355,9.888 -9.796,9.922l-20.118,0.13Zm-844.924,5.421c-5.442,0.035 -9.888,-4.355 -9.923,-9.796c-0.035,-5.442 4.355,-9.888 9.796,-9.923l20.117,-0.129c5.441,-0.035 9.887,4.355 9.922,9.796c0.035,5.442 -4.354,9.888 -9.796,9.923l-20.116,0.129Zm362.111,-2.324c-5.442,0.035 -9.888,-4.354 -9.923,-9.796c-0.034,-5.441 4.355,-9.887 9.796,-9.922l20.117,-0.129c5.442,-0.035 9.888,4.354 9.923,9.796c0.035,5.441 -4.355,9.887 -9.796,9.922l-20.117,0.129Zm-181.057,1.162c-5.441,0.035 -9.887,-4.354 -9.922,-9.796c-0.035,-5.441 4.354,-9.887 9.796,-9.922l20.118,-0.129c5.441,-0.035 9.887,4.354 9.922,9.796c0.035,5.441 -4.354,9.887 -9.796,9.922l-20.118,0.129Zm-428.922,274.664c-0.034,-0.655 -0.067,-1.308 -0.099,-1.961c-0.27,-5.435 3.924,-10.066 9.359,-10.335c5.434,-0.27 10.066,3.924 10.335,9.359c0.095,1.911 0.196,3.83 0.305,5.756l-19.9,-2.819Zm122.423,-261.105c-4.554,0.73 -9.144,-1.832 -10.802,-6.321c-1.487,-4.023 -0.179,-8.4 2.941,-10.998l7.861,17.319Zm-50.025,33.168c-3.76,3.933 -10.006,4.074 -13.939,0.314c-3.934,-3.76 -4.074,-10.006 -0.314,-13.94c5.489,-5.742 11.397,-11.041 17.74,-15.877c4.327,-3.3 10.519,-2.466 13.818,1.861c3.3,4.327 2.466,10.519 -1.861,13.818c-5.522,4.211 -10.665,8.825 -15.444,13.824Zm-53.716,181.032c-0.059,5.441 -4.525,9.811 -9.967,9.751c-5.441,-0.06 -9.81,-4.526 -9.75,-9.967c0.084,-7.698 0.304,-15.251 0.665,-22.651c0.265,-5.435 4.893,-9.633 10.328,-9.368c5.435,0.265 9.633,4.893 9.368,10.328c-0.35,7.158 -0.562,14.462 -0.644,21.907Zm4.756,-65.32c-0.791,5.384 -5.803,9.113 -11.187,8.323c-5.384,-0.79 -9.113,-5.803 -8.323,-11.187c1.136,-7.735 2.473,-15.255 4.019,-22.552c1.127,-5.323 6.365,-8.73 11.688,-7.602c5.324,1.128 8.73,6.365 7.602,11.688c-1.462,6.901 -2.725,14.014 -3.799,21.33Zm15.939,-62.454c-1.999,5.061 -7.731,7.546 -12.792,5.547c-5.061,-2 -7.546,-7.732 -5.547,-12.793c2.93,-7.415 6.172,-14.499 9.736,-21.239c2.543,-4.81 8.514,-6.651 13.324,-4.107c4.811,2.543 6.651,8.514 4.107,13.324c-3.232,6.114 -6.17,12.542 -8.828,19.268Z" style="fill:#935a20;"/><path d="M175.223,355.322c-34.192,-10.51 -65.248,-25.511 -79.145,-64.432l-57.837,97.917c35.452,38.635 79.371,63.009 140.533,58.344l-3.551,-91.829Z" style="fill:#cf7a24;"/><path d="M145.938,446.79c-12.231,-36.95 -9.552,-70.171 4.102,-100.649c8.04,3.561 16.51,6.515 25.183,9.181l3.551,91.829c-11.539,0.88 -22.465,0.727 -32.836,-0.361Z" style="fill:#694017;fill-opacity:0.5;"/><path d="M306.505,394.038c39.312,-33.435 75.962,-48.671 109.575,-47.425c48.773,1.808 21.842,104.038 -28.538,173.99c-16.403,22.775 -73.294,-17.237 -97.029,-49.691l15.992,-76.874Z" style="fill:#e08429;"/><path d="M322.18,502.969c-12.401,-9.825 -23.838,-21.352 -31.667,-32.057l15.992,-76.874c16.685,-14.191 32.891,-25.103 48.589,-32.869c1.967,3.618 2.202,6.73 2.42,11.082c0.924,18.493 -20.154,96.515 -24.036,107.544c-2.775,7.884 -5.65,16.491 -11.298,23.174Z" style="fill:#9c5d1e;"/><path d="M301.916,473.393c35.247,36.037 58.959,49.684 70.654,40.003c12.21,-10.106 -39.374,-25.966 -70.654,-40.003Z" style="fill:#88511a;"/><g><path d="M309.997,375.717c-6.357,-41.461 -45.18,-69.96 -86.64,-63.603c-41.461,6.357 -69.961,45.18 -63.604,86.64l6.136,40.019c6.358,41.46 45.18,69.96 86.641,63.603c41.461,-6.357 69.96,-45.18 63.603,-86.641l-6.136,-40.018Z" style="fill:#cf7a25;"/><path d="M331.276,394.61c6.974,-41.361 -20.944,-80.604 -62.306,-87.578c-41.361,-6.975 -80.604,20.944 -87.578,62.305l-10.697,63.439c-6.974,41.362 20.944,80.604 62.305,87.578c41.362,6.975 80.604,-20.943 87.579,-62.305l10.697,-63.439Z" style="fill:#dd8b38;"/><path d="M243.083,521.377c-2.614,-0.091 -5.248,-0.317 -7.892,-0.685c1.155,-1.533 2.347,-2.938 2.679,-3.512c6.393,-11.043 11.972,-22.464 17.859,-33.769c13.476,-25.882 27.21,-51.578 42.211,-76.629c9.964,-16.64 20.374,-32.951 30.232,-49.622c4.04,11.649 5.297,24.445 3.104,37.45l-5.82,34.516c-7.311,9.493 -14.977,18.717 -22.971,27.66c-11.94,13.358 -24.483,26.197 -36.366,39.613c-7.415,8.372 -14.652,16.924 -22.729,24.677c-0.097,0.094 -0.2,0.194 -0.307,0.301Z" style="fill:#cf7a25;"/><path d="M241.177,521.287c-1.987,-0.119 -3.983,-0.317 -5.986,-0.595c1.155,-1.533 2.347,-2.938 2.679,-3.512c6.393,-11.043 11.972,-22.464 17.859,-33.769c13.476,-25.882 27.21,-51.578 42.211,-76.629c9.964,-16.64 20.374,-32.951 30.232,-49.622c0.733,2.113 1.374,4.264 1.92,6.447c-9.426,15.826 -19.308,31.356 -28.786,47.185c-15,25.05 -28.734,50.746 -42.211,76.628c-5.886,11.305 -11.465,22.727 -17.858,33.769c-0.018,0.03 -0.038,0.063 -0.06,0.098Z" style="fill:#9f5c19;"/><path d="M234.571,520.603c-0.523,-0.078 -1.047,-0.16 -1.571,-0.249c-0.91,-0.153 -1.813,-0.322 -2.71,-0.507c-0.956,-3.043 -2.014,-6.077 -2.81,-9.161c-4.523,-17.525 -6.621,-35.777 -5.52,-53.9c1.694,-27.879 10.495,-54.86 21.755,-80.201c10.553,-23.749 23.407,-45.913 39.349,-65.768c8.756,3.282 16.658,8.097 23.441,14.073c-2.68,4.064 -5.299,8.167 -7.844,12.316c-13.005,21.192 -24.271,43.72 -33.841,66.654c-7.244,17.362 -14.295,35.516 -18.507,53.9c-3.879,16.926 -7.304,34.179 -10.066,51.302c-0.616,3.822 -1,7.723 -1.676,11.541Z" style="fill:#cf7a25;"/><path d="M233.339,520.411c-0.113,-0.019 -0.226,-0.038 -0.339,-0.057c-0.91,-0.153 -1.813,-0.322 -2.71,-0.507c-0.956,-3.043 -2.014,-6.077 -2.81,-9.161c-4.523,-17.525 -6.621,-35.777 -5.52,-53.9c1.694,-27.879 10.495,-54.86 21.755,-80.201c10.553,-23.749 23.407,-45.913 39.349,-65.768c1.378,0.517 2.735,1.071 4.07,1.662c-15.333,19.427 -27.767,41.017 -38.026,64.106c-11.26,25.341 -20.061,52.322 -21.755,80.201c-1.102,18.123 0.833,43.827 5.355,61.352c0.197,0.76 0.409,1.518 0.631,2.273Z" style="fill:#9f5c19;"/></g><g><path d="M804.799,287.496c16.184,-0 29.323,34.533 29.323,61.764c-0,27.232 -13.139,36.916 -29.323,36.916c-16.183,-0 -29.322,-9.684 -29.322,-36.916c-0,-27.231 13.139,-61.764 29.322,-61.764Z" style="fill:#af35a5;"/><path d="M804.799,287.496c8.092,-14.016 44.568,-8.128 68.151,5.488c23.584,13.616 25.401,29.836 17.309,43.852c-8.092,14.015 -23.048,20.552 -46.631,6.936c-23.583,-13.616 -46.921,-42.261 -38.829,-56.276Z" style="fill:#871c7e;"/><path d="M804.799,287.496c-11.443,-11.444 3.685,-45.153 22.94,-64.409c19.256,-19.255 35.394,-16.812 46.838,-5.369c11.443,11.444 13.886,27.582 -5.369,46.838c-19.256,19.255 -52.965,34.383 -64.409,22.94Z" style="fill:#af35a5;"/><path d="M804.799,287.496c-14.015,8.092 -42.66,-15.246 -56.276,-38.829c-13.616,-23.583 -7.079,-38.539 6.936,-46.631c14.016,-8.092 30.236,-6.275 43.852,17.309c13.616,23.583 19.504,60.059 5.488,68.151Z" style="fill:#902788;"/><path d="M804.799,287.496c4.189,15.632 -25.767,37.261 -52.071,44.309c-26.303,7.048 -39.058,-3.137 -43.246,-18.769c-4.189,-15.632 1.764,-30.83 28.068,-37.878c26.303,-7.048 63.061,-3.294 67.249,12.338Z" style="fill:#af35a5;"/><circle cx="804.799" cy="291.221" r="29.323" style="fill:#ffcd00;"/></g></g></g></svg>