<?xml version="1.0" encoding="UTF-8" standalone="no"?><!DOCTYPE svg PUBLIC "-//W3C//DTD SVG 1.1//EN" "http://www.w3.org/Graphics/SVG/1.1/DTD/svg11.dtd"><svg width="100%" height="100%" viewBox="0 0 1250 1438" version="1.1" xmlns="http://www.w3.org/2000/svg" xmlns:xlink="http://www.w3.org/1999/xlink" xml:space="preserve" xmlns:serif="http://www.serif.com/" style="fill-rule:evenodd;clip-rule:evenodd;stroke-linejoin:round;stroke-miterlimit:2;"><g id="FossilsHat"><path d="M772.038,530.631c-3.33,8.189 -11.001,13.794 -19.815,14.478c-8.814,0.683 -17.258,-3.671 -21.811,-11.249l-50.742,-84.447l129.48,-10.044l-37.112,91.262Zm124.95,-19.089c-3.33,8.189 -11.001,13.794 -19.815,14.478c-8.814,0.683 -17.258,-3.671 -21.811,-11.249l-50.742,-84.447l129.48,-10.044l-37.112,91.262Zm129.481,-0c-3.33,8.189 -11.002,13.794 -19.816,14.478c-8.814,0.683 -17.257,-3.671 -21.811,-11.249l-50.742,-84.447l129.481,-10.044l-37.112,91.262Zm121.015,10.822c-3.331,8.19 -11.002,13.794 -19.816,14.478c-8.814,0.684 -17.258,-3.671 -21.811,-11.249l-50.742,-84.446l129.481,-10.044l-37.112,91.261Zm-574.708,29.516c-3.331,8.189 -11.002,13.794 -19.816,14.478c-8.814,0.684 -17.257,-3.671 -21.811,-11.249l-50.742,-84.447l129.481,-10.043l-37.112,91.261Z" style="fill:#b69880;"/><path d="M512.961,524.839l-32.554,-54.177l129.481,-10.043l-17.663,43.433c-25.382,5.88 -52.811,12.917 -79.264,20.787Zm188.034,-39.935l-21.325,-35.491l129.48,-10.044l-17.997,44.258c-42.215,0.297 -73.174,0.6 -90.158,1.277Zm135.47,-1.582l-31.845,-52.998l129.48,-10.044l-25.413,62.493c-25.986,0.228 -50.141,0.4 -72.222,0.549Zm128.81,-1.116l-31.175,-51.882l129.481,-10.044l-24.785,60.949c-25.546,0.392 -50.099,0.711 -73.521,0.977Zm113.528,-1.638l-23.688,-39.421l129.481,-10.044l-19.395,47.693c-29.711,0.695 -58.563,1.279 -86.398,1.772Z" style="fill:#9a7e67;"/><path d="M97.999,479.743c-57.326,-37.889 -97.999,-100.294 -97.999,-200.15c0,-154.312 106.543,-279.593 472.714,-279.593c185.665,0 267.764,126.413 423.777,155.65c59.313,11.115 139.462,12.512 210.772,8.854c96.813,-4.965 140.769,54.991 142.737,192.914c1.589,111.347 -90.409,91.576 -201.768,91.576c-119.322,-0 -233.08,-0.13 -347.81,8.855c-53.112,-0 -228.796,69.864 -366.432,74.773c-55.985,1.997 -121.553,-3.194 -179.698,-24.732l-1.329,-72.661l20.497,15.029l21.484,-164.16l-40.111,141.379l-19.921,-26.27l-21.049,86.272l-15.864,-7.736Z" style="fill:#b69880;"/><path d="M97.999,479.743c-57.326,-37.889 -97.999,-100.294 -97.999,-200.15c0,-154.312 106.543,-279.593 472.714,-279.593c185.665,0 267.764,126.413 423.777,155.65c59.313,11.115 139.462,12.512 210.772,8.854c96.813,-4.965 140.769,54.991 142.737,192.914c1.589,111.347 -90.409,91.576 -201.768,91.576c-119.322,-0 -233.08,-0.13 -347.81,8.855c-53.112,-0 -228.796,69.864 -366.432,74.773c-55.985,1.997 -121.553,-3.194 -179.698,-24.732l-1.329,-72.661l20.497,15.029l12.689,-183.75l-36.114,133.971l-19.521,-34.054l-32.515,113.318Z" style="fill:#e9d3c1;"/><path d="M78.314,97.989c69.725,-59.96 192.658,-97.989 394.4,-97.989c185.665,0 267.764,126.413 423.777,155.65c59.313,11.115 139.462,12.512 210.772,8.854c96.813,-4.965 140.769,54.991 142.737,192.914c0.594,41.651 -11.907,64.956 -33.618,77.811c12.927,-13.928 20.014,-34.967 19.563,-66.567c-1.968,-137.923 -45.924,-197.879 -142.737,-192.913c-71.311,3.657 -151.459,2.26 -210.772,-8.855c-156.013,-29.237 -238.112,-155.65 -423.777,-155.65c-188.824,0 -308.609,33.315 -380.345,86.745Z" style="fill:#ffeee1;"/><path d="M97.999,479.743c-57.326,-37.889 -97.999,-100.294 -97.999,-200.15c0,-63.444 18.01,-121.98 64.668,-168.92c-24.054,38.873 -33.922,83.148 -33.922,130.113c-0,90.142 33.144,149.765 81.764,188.384l-14.511,50.573Zm55.33,-24.507c65.014,33.193 144.96,40.949 211.406,38.578c137.637,-4.909 313.321,-74.773 366.433,-74.773c114.73,-8.984 156.307,18.679 317.064,29.953c-119.322,-0 -233.08,-0.13 -347.81,8.855c-53.112,-0 -228.796,69.864 -366.432,74.773c-55.985,1.997 -121.553,-3.194 -179.698,-24.732l-0.963,-52.654Z" style="fill:#e0bfa3;"/><path d="M431.03,78.89c88.934,0 210.468,81.68 210.468,158.244c-0,76.564 -130.103,119.205 -210.468,119.205c-80.365,-0 -141.079,-51.121 -152.537,-122.353c-7.1,-44.136 7.713,-155.096 152.537,-155.096Z" style="fill:#ffeee1;"/><path d="M425.033,88.976c88.934,0 210.468,81.68 210.468,158.244c-0,76.564 -130.103,119.205 -210.468,119.205c-80.365,-0 -141.079,-51.121 -152.537,-122.353c-7.1,-44.136 7.713,-155.096 152.537,-155.096Z" style="fill:#6e543e;"/><path d="M574.201,315.863l36.461,39.659l-4.478,-33.677l11.194,-7.901l-8.955,-34.222l-34.222,36.141Z" style="fill:#6e543e;"/><path d="M286.133,286.349c-6.57,-12.992 -11.209,-27.183 -13.637,-42.277c-7.1,-44.136 7.713,-155.096 152.537,-155.096c82.861,0 194.023,70.907 208.817,142.517c-33.122,-60.861 -126.258,-114.181 -198.112,-114.181c-144.824,-0 -159.638,110.959 -152.538,155.095c0.762,4.74 1.743,9.39 2.933,13.942Z" style="fill:#b69880;"/><path d="M1143.59,292.681c23.846,15.727 40.228,51.977 36.641,59.586c-3.945,8.37 -44.393,4.051 -68.239,-11.675c-23.845,-15.727 -26.89,-33.352 -18.17,-46.573c8.719,-13.221 25.923,-17.064 49.768,-1.338Z" style="fill:#6e543e;"/><path d="M1090.68,316.32c-2.631,-8.009 -1.21,-15.703 3.142,-22.301c8.719,-13.221 25.923,-17.064 49.768,-1.338c23.846,15.727 40.228,51.977 36.641,59.586c-0.374,0.795 -1.077,1.475 -2.064,2.042c-5.248,-14.242 -18.139,-34.835 -34.577,-45.676c-23.845,-15.727 -41.049,-11.884 -49.768,1.337c-1.333,2.021 -2.391,4.145 -3.142,6.35Z" style="fill:#b69880;"/></g></svg>