<?xml version="1.0" encoding="UTF-8" standalone="no"?><!DOCTYPE svg PUBLIC "-//W3C//DTD SVG 1.1//EN" "http://www.w3.org/Graphics/SVG/1.1/DTD/svg11.dtd"><svg width="100%" height="100%" viewBox="0 0 1250 1438" version="1.1" xmlns="http://www.w3.org/2000/svg" xmlns:xlink="http://www.w3.org/1999/xlink" xml:space="preserve" xmlns:serif="http://www.serif.com/" style="fill-rule:evenodd;clip-rule:evenodd;stroke-linejoin:round;stroke-miterlimit:2;"><g id="Pirate"><g id="HatPirate"><path d="M1102.34,438.215l-26.061,-31.09l-9.766,24.702c-0.153,-0.026 -0.306,-0.053 -0.459,-0.08l-26.136,-60.983l-10.12,54.862c-343.266,-56.335 -686.531,-66.754 -1029.8,-31.256l0,-55.287c0,-83.661 67.922,-151.583 151.583,-151.583l946.834,-0c83.661,-0 151.583,67.922 151.583,151.583l-0,128.981c-49.22,-10.894 -98.44,-20.843 -147.661,-29.849Z" style="fill:#a02f16;"/><path d="M9.902,285.122c3.24,3.417 5.229,8.033 5.229,13.109c-0,8.568 -5.665,15.822 -13.45,18.22c1.629,-10.862 4.412,-21.347 8.221,-31.329Zm244.139,91.36c-7.857,-2.353 -13.59,-9.643 -13.59,-18.262c0,-10.52 8.541,-19.06 19.06,-19.06c10.52,-0 19.061,8.54 19.061,19.06c-0,8.139 -5.113,15.093 -12.299,17.824c-4.077,0.139 -8.154,0.286 -12.232,0.438Zm71.745,-2.016c-5.454,-3.355 -9.094,-9.379 -9.094,-16.246c-0,-10.52 8.54,-19.06 19.06,-19.06c10.52,-0 19.06,8.54 19.06,19.06c0,6.648 -3.411,12.506 -8.577,15.917c-6.816,0.091 -13.633,0.201 -20.449,0.329Zm75.215,-0.677c-4.88,-3.453 -8.068,-9.142 -8.068,-15.569c-0,-10.52 8.54,-19.06 19.06,-19.06c10.519,-0 19.06,8.54 19.06,19.06c-0,6.476 -3.237,12.203 -8.18,15.648c-7.291,-0.047 -14.582,-0.074 -21.872,-0.079Zm77.535,0.84c-5.603,-3.321 -9.363,-9.429 -9.363,-16.409c0,-10.52 8.541,-19.06 19.06,-19.06c10.52,-0 19.061,8.54 19.061,19.06c-0,7.296 -4.109,13.64 -10.137,16.843c-6.207,-0.16 -12.414,-0.304 -18.621,-0.434Zm352.579,23.518c1.167,-0.224 2.371,-0.341 3.603,-0.341c2.748,0 5.361,0.583 7.722,1.632c-3.775,-0.436 -7.55,-0.866 -11.325,-1.291Zm64.248,7.764c3.451,-4.9 9.152,-8.105 15.595,-8.105c8.246,0 15.276,5.248 17.93,12.582c-11.175,-1.541 -22.35,-3.033 -33.525,-4.477Zm72.795,10.093c0.452,-10.12 8.811,-18.198 19.041,-18.198c10.52,0 19.06,8.541 19.06,19.06c0,1.683 -0.218,3.316 -0.629,4.87c-12.49,-1.971 -24.981,-3.882 -37.472,-5.732Zm84.719,-15.001c3.024,-2.019 6.657,-3.197 10.563,-3.197c9.667,0 17.662,7.212 18.895,16.545l-6.057,-7.226l-9.766,24.702l-0.459,-0.08l-13.176,-30.744Zm197.123,-23.734c-10.224,-0.337 -18.42,-8.744 -18.42,-19.049c-0,-10.306 8.196,-18.712 18.42,-19.05l0,38.099Zm-99.568,-180.595c-3.061,2.097 -6.764,3.324 -10.752,3.324c-7.471,0 -13.944,-4.308 -17.068,-10.574c9.604,1.543 18.907,3.99 27.82,7.25Zm-69.094,-9.174c-2.676,7.291 -9.684,12.498 -17.898,12.498c-8.215,0 -15.222,-5.207 -17.899,-12.498l35.797,-0Zm-76.24,-0c-2.677,7.291 -9.685,12.498 -17.899,12.498c-8.214,0 -15.222,-5.207 -17.899,-12.498l35.798,-0Zm-76.241,-0c-2.677,7.291 -9.684,12.498 -17.899,12.498c-8.214,0 -15.221,-5.207 -17.898,-12.498l35.797,-0Zm-76.24,-0c-2.677,7.291 -9.685,12.498 -17.899,12.498c-8.214,0 -15.222,-5.207 -17.899,-12.498l35.798,-0Zm-76.241,-0c-2.677,7.291 -9.685,12.498 -17.899,12.498c-8.214,0 -15.222,-5.207 -17.899,-12.498l35.798,-0Zm-76.241,-0c-2.677,7.291 -9.684,12.498 -17.898,12.498c-8.215,0 -15.222,-5.207 -17.899,-12.498l35.797,-0Zm-76.24,-0c-2.677,7.291 -9.685,12.498 -17.899,12.498c-8.214,0 -15.222,-5.207 -17.899,-12.498l35.798,-0Zm-76.241,-0c-2.677,7.291 -9.685,12.498 -17.899,12.498c-8.214,0 -15.222,-5.207 -17.899,-12.498l35.798,-0Zm-76.241,-0c-2.677,7.291 -9.684,12.498 -17.898,12.498c-8.215,0 -15.222,-5.207 -17.899,-12.498l35.797,-0Zm-76.24,-0c-2.677,7.291 -9.685,12.498 -17.899,12.498c-8.214,0 -15.222,-5.207 -17.899,-12.498l35.798,-0Zm-76.241,-0c-2.677,7.291 -9.684,12.498 -17.899,12.498c-8.214,0 -15.222,-5.207 -17.898,-12.498l35.797,-0Zm-76.241,-0c-2.677,7.291 -9.684,12.498 -17.898,12.498c-8.215,0 -15.222,-5.207 -17.899,-12.498l35.797,-0Zm-76.24,-0c-2.677,7.291 -9.685,12.498 -17.899,12.498c-7.694,0 -14.329,-4.568 -17.339,-11.138c6.663,-0.897 13.463,-1.36 20.37,-1.36l14.868,-0Zm-119.425,41.873c1.79,2.904 2.824,6.324 2.824,9.983c-0,10.519 -8.541,19.06 -19.061,19.06c-2.376,-0 -4.652,-0.436 -6.751,-1.233c6.545,-10.166 14.273,-19.501 22.988,-27.81Zm254.007,49.798c10.52,0 19.06,8.541 19.06,19.06c0,10.52 -8.54,19.061 -19.06,19.061c-10.519,-0 -19.06,-8.541 -19.06,-19.061c0,-10.519 8.541,-19.06 19.06,-19.06Zm-76.24,0c10.519,0 19.06,8.541 19.06,19.06c-0,10.52 -8.541,19.061 -19.06,19.061c-10.52,-0 -19.061,-8.541 -19.061,-19.061c0,-10.519 8.541,-19.06 19.061,-19.06Zm-76.241,0c10.52,0 19.06,8.541 19.06,19.06c0,10.52 -8.54,19.061 -19.06,19.061c-10.52,-0 -19.06,-8.541 -19.06,-19.061c-0,-10.519 8.54,-19.06 19.06,-19.06Zm381.203,0c10.52,0 19.06,8.541 19.06,19.06c0,10.52 -8.54,19.061 -19.06,19.061c-10.519,-0 -19.06,-8.541 -19.06,-19.061c0,-10.519 8.541,-19.06 19.06,-19.06Zm-76.24,0c10.519,0 19.06,8.541 19.06,19.06c-0,10.52 -8.541,19.061 -19.06,19.061c-10.52,-0 -19.061,-8.541 -19.061,-19.061c0,-10.519 8.541,-19.06 19.061,-19.06Zm-76.241,0c10.52,0 19.06,8.541 19.06,19.06c0,10.52 -8.54,19.061 -19.06,19.061c-10.52,-0 -19.06,-8.541 -19.06,-19.061c-0,-10.519 8.54,-19.06 19.06,-19.06Zm-304.963,0c10.52,0 19.06,8.541 19.06,19.06c0,10.52 -8.54,19.061 -19.06,19.061c-10.519,-0 -19.06,-8.541 -19.06,-19.061c0,-10.519 8.541,-19.06 19.06,-19.06Zm-41.522,59.989c10.52,-0 19.061,8.54 19.061,19.06c-0,10.519 -8.541,19.06 -19.061,19.06c-10.519,-0 -19.06,-8.541 -19.06,-19.06c0,-10.52 8.541,-19.06 19.06,-19.06Zm1143.61,-0c10.52,-0 19.06,8.54 19.06,19.06c0,10.519 -8.54,19.06 -19.06,19.06c-10.519,-0 -19.06,-8.541 -19.06,-19.06c0,-10.52 8.541,-19.06 19.06,-19.06Zm-76.24,-0c10.519,-0 19.06,8.54 19.06,19.06c-0,10.519 -8.541,19.06 -19.06,19.06c-10.52,-0 -19.061,-8.541 -19.061,-19.06c0,-10.52 8.541,-19.06 19.061,-19.06Zm-76.241,-0c10.519,-0 19.06,8.54 19.06,19.06c0,10.519 -8.541,19.06 -19.06,19.06c-10.52,-0 -19.06,-8.541 -19.06,-19.06c-0,-10.52 8.54,-19.06 19.06,-19.06Zm-76.241,-0c10.52,-0 19.06,8.54 19.06,19.06c0,10.519 -8.54,19.06 -19.06,19.06c-10.519,-0 -19.06,-8.541 -19.06,-19.06c0,-10.52 8.541,-19.06 19.06,-19.06Zm-762.406,-0c10.519,-0 19.06,8.54 19.06,19.06c-0,10.519 -8.541,19.06 -19.06,19.06c-10.52,-0 -19.06,-8.541 -19.06,-19.06c-0,-10.52 8.54,-19.06 19.06,-19.06Zm-76.241,-0c10.52,-0 19.06,8.54 19.06,19.06c0,10.519 -8.54,19.06 -19.06,19.06c-10.519,-0 -19.06,-8.541 -19.06,-19.06c-0,-10.52 8.541,-19.06 19.06,-19.06Zm609.925,-0c10.52,-0 19.06,8.54 19.06,19.06c0,10.519 -8.54,19.06 -19.06,19.06c-10.519,-0 -19.06,-8.541 -19.06,-19.06c0,-10.52 8.541,-19.06 19.06,-19.06Zm0,-118.864c10.52,-0 19.06,8.54 19.06,19.06c0,10.519 -8.54,19.06 -19.06,19.06c-10.519,-0 -19.06,-8.541 -19.06,-19.06c0,-10.52 8.541,-19.06 19.06,-19.06Zm-152.481,118.864c10.52,-0 19.06,8.54 19.06,19.06c0,10.519 -8.54,19.06 -19.06,19.06c-10.52,-0 -19.06,-8.541 -19.06,-19.06c-0,-10.52 8.54,-19.06 19.06,-19.06Zm228.722,-118.864c10.52,-0 19.06,8.54 19.06,19.06c0,10.519 -8.54,19.06 -19.06,19.06c-10.52,-0 -19.06,-8.541 -19.06,-19.06c-0,-10.52 8.54,-19.06 19.06,-19.06Zm76.241,-0c10.519,-0 19.06,8.54 19.06,19.06c-0,10.519 -8.541,19.06 -19.06,19.06c-10.52,-0 -19.061,-8.541 -19.061,-19.06c0,-10.52 8.541,-19.06 19.061,-19.06Zm-304.963,-0c10.52,-0 19.06,8.54 19.06,19.06c0,10.519 -8.54,19.06 -19.06,19.06c-10.52,-0 -19.06,-8.541 -19.06,-19.06c-0,-10.52 8.54,-19.06 19.06,-19.06Zm76.241,118.864c10.519,-0 19.06,8.54 19.06,19.06c-0,10.519 -8.541,19.06 -19.06,19.06c-10.52,-0 -19.06,-8.541 -19.06,-19.06c-0,-10.52 8.54,-19.06 19.06,-19.06Zm-304.963,-118.864c10.52,-0 19.06,8.54 19.06,19.06c0,10.519 -8.54,19.06 -19.06,19.06c-10.52,-0 -19.06,-8.541 -19.06,-19.06c-0,-10.52 8.54,-19.06 19.06,-19.06Zm609.925,-0c10.52,-0 19.06,8.54 19.06,19.06c0,10.519 -8.54,19.06 -19.06,19.06c-10.519,-0 -19.06,-8.541 -19.06,-19.06c0,-10.52 8.541,-19.06 19.06,-19.06Zm152.482,-0c10.519,-0 19.06,8.54 19.06,19.06c-0,10.519 -8.541,19.06 -19.06,19.06c-10.52,-0 -19.061,-8.541 -19.061,-19.06c0,-10.52 8.541,-19.06 19.061,-19.06Zm-609.926,-0c10.52,-0 19.061,8.54 19.061,19.06c-0,10.519 -8.541,19.06 -19.061,19.06c-10.519,-0 -19.06,-8.541 -19.06,-19.06c0,-10.52 8.541,-19.06 19.06,-19.06Zm-76.24,-0c10.519,-0 19.06,8.54 19.06,19.06c-0,10.519 -8.541,19.06 -19.06,19.06c-10.52,-0 -19.06,-8.541 -19.06,-19.06c-0,-10.52 8.54,-19.06 19.06,-19.06Zm-152.482,-0c10.52,-0 19.061,8.54 19.061,19.06c-0,10.519 -8.541,19.06 -19.061,19.06c-10.519,-0 -19.06,-8.541 -19.06,-19.06c0,-10.52 8.541,-19.06 19.06,-19.06Zm-76.24,-0c10.519,-0 19.06,8.54 19.06,19.06c-0,10.519 -8.541,19.06 -19.06,19.06c-10.52,-0 -19.06,-8.541 -19.06,-19.06c-0,-10.52 8.54,-19.06 19.06,-19.06Zm686.166,118.864c10.519,-0 19.06,8.54 19.06,19.06c-0,10.519 -8.541,19.06 -19.06,19.06c-10.52,-0 -19.061,-8.541 -19.061,-19.06c0,-10.52 8.541,-19.06 19.061,-19.06Zm152.481,-118.864c10.519,-0 19.06,8.54 19.06,19.06c0,10.519 -8.541,19.06 -19.06,19.06c-10.52,-0 -19.06,-8.541 -19.06,-19.06c-0,-10.52 8.54,-19.06 19.06,-19.06Zm117.762,177.51c10.52,0 19.061,8.541 19.061,19.06c-0,10.52 -8.541,19.061 -19.061,19.061c-10.519,-0 -19.06,-8.541 -19.06,-19.061c0,-10.519 8.541,-19.06 19.06,-19.06Zm34.719,-177.51c10.52,-0 19.06,8.54 19.06,19.06c0,10.519 -8.54,19.06 -19.06,19.06c-10.519,-0 -19.06,-8.541 -19.06,-19.06c0,-10.52 8.541,-19.06 19.06,-19.06Zm-381.203,118.864c10.52,-0 19.06,8.54 19.06,19.06c0,10.519 -8.54,19.06 -19.06,19.06c-10.52,-0 -19.06,-8.541 -19.06,-19.06c-0,-10.52 8.54,-19.06 19.06,-19.06Zm-152.481,-118.864c10.519,-0 19.06,8.54 19.06,19.06c-0,10.519 -8.541,19.06 -19.06,19.06c-10.52,-0 -19.06,-8.541 -19.06,-19.06c-0,-10.52 8.54,-19.06 19.06,-19.06Zm-533.685,-0c10.52,-0 19.06,8.54 19.06,19.06c0,10.519 -8.54,19.06 -19.06,19.06c-10.519,-0 -19.06,-8.541 -19.06,-19.06c-0,-10.52 8.541,-19.06 19.06,-19.06Zm1108.89,177.51c10.52,0 19.06,8.541 19.06,19.06c0,10.52 -8.54,19.061 -19.06,19.061c-10.52,-0 -19.06,-8.541 -19.06,-19.061c-0,-10.519 8.54,-19.06 19.06,-19.06Zm-381.203,-118.635c10.519,0 19.06,8.541 19.06,19.06c-0,10.52 -8.541,19.061 -19.06,19.061c-10.52,-0 -19.06,-8.541 -19.06,-19.061c-0,-10.519 8.54,-19.06 19.06,-19.06Zm-76.241,0c10.52,0 19.06,8.541 19.06,19.06c0,10.52 -8.54,19.061 -19.06,19.061c-10.519,-0 -19.06,-8.541 -19.06,-19.061c-0,-10.519 8.541,-19.06 19.06,-19.06Zm-76.24,0c10.519,0 19.06,8.541 19.06,19.06c-0,10.52 -8.541,19.061 -19.06,19.061c-10.52,-0 -19.061,-8.541 -19.061,-19.061c0,-10.519 8.541,-19.06 19.061,-19.06Zm533.684,0c10.52,0 19.06,8.541 19.06,19.06c0,10.52 -8.54,19.061 -19.06,19.061c-10.52,-0 -19.06,-8.541 -19.06,-19.061c-0,-10.519 8.54,-19.06 19.06,-19.06Zm-609.925,0c10.519,0 19.06,8.541 19.06,19.06c0,10.52 -8.541,19.061 -19.06,19.061c-10.52,-0 -19.06,-8.541 -19.06,-19.061c-0,-10.519 8.54,-19.06 19.06,-19.06Zm533.684,0c10.52,0 19.061,8.541 19.061,19.06c-0,10.52 -8.541,19.061 -19.061,19.061c-10.519,-0 -19.06,-8.541 -19.06,-19.061c0,-10.519 8.541,-19.06 19.06,-19.06Zm-152.481,0c10.52,0 19.06,8.541 19.06,19.06c0,10.52 -8.54,19.061 -19.06,19.061c-10.519,-0 -19.06,-8.541 -19.06,-19.061c-0,-10.519 8.541,-19.06 19.06,-19.06Zm76.241,0c10.519,0 19.06,8.541 19.06,19.06c-0,10.52 -8.541,19.061 -19.06,19.061c-10.52,-0 -19.06,-8.541 -19.06,-19.061c-0,-10.519 8.54,-19.06 19.06,-19.06Zm-152.482,0c10.52,0 19.061,8.541 19.061,19.06c-0,10.52 -8.541,19.061 -19.061,19.061c-10.519,-0 -19.06,-8.541 -19.06,-19.061c0,-10.519 8.541,-19.06 19.06,-19.06Z" style="fill:#ffdcd5;"/><path d="M1250,457.591l0,10.473c-49.22,-10.894 -98.44,-20.843 -147.661,-29.849l-26.061,-31.09l-9.766,24.702l-0.459,-0.08l-26.136,-60.983l-10.12,54.862c-343.266,-56.335 -686.531,-66.754 -1029.8,-31.256l0,-10.472c343.266,-35.498 675.472,-27.09 1018.74,29.245l19.839,-58.884l27.476,58.973l0.459,0.08l9.431,-25.373l33.099,40.474c49.22,9.005 91.738,18.285 140.958,29.178Z" style="fill:#310900;fill-opacity:0.5;"/><path d="M625,325.019c-126.197,0 -146.365,-1.234 -267.98,-22.653c-26.281,-4.629 -40.638,-59.905 -49.626,-103.297c-1.221,-5.78 0.709,-11.774 5.073,-15.755c4.364,-3.981 10.509,-5.355 16.153,-3.61c44.669,14.662 64.345,18.467 75.548,19.433c13.236,1.141 428.428,1.141 441.664,-0c11.203,-0.966 30.879,-4.771 75.554,-19.415c5.637,-1.743 11.776,-0.371 16.135,3.606c4.359,3.976 6.286,9.964 5.066,15.737c-8.969,43.396 -23.326,98.672 -49.607,103.301c-121.615,21.419 -141.783,22.653 -267.98,22.653Z" style="fill:#310900;fill-opacity:0.5;"/><path d="M878.32,251.506l-506.64,0c21.393,-124.85 153.23,-218.123 253.32,-218.123c100.09,-0 231.927,93.273 253.32,218.123Z" style="fill:#1b1b1b;"/><g><path d="M749.954,218.783c93.207,-184.452 173.805,-112.815 290.513,-167.027c-51.552,92.95 -138.592,156.689 -290.513,167.027Z" style="fill:#233f4b;"/><path d="M749.954,218.783c93.207,-184.452 173.805,-112.815 290.513,-167.027c-88.406,79.835 -210.069,66.953 -290.513,167.027Z" style="fill:#2e5c70;"/></g><g><path d="M720.905,240.033c39.274,-202.897 136.376,-156.002 233.836,-240.033c-24.2,103.497 -90.518,188.589 -233.836,240.033Z" style="fill:#37c1c5;"/><path d="M720.905,240.033c39.274,-202.897 136.376,-156.002 233.836,-240.033c-63.235,100.948 -183.789,121.792 -233.836,240.033Z" style="fill:#41d7db;"/></g><path d="M625,312.662c-126.197,0 -146.365,-1.234 -267.98,-22.653c-26.281,-4.629 -40.638,-59.905 -49.626,-103.297c-1.221,-5.78 0.709,-11.774 5.073,-15.755c4.364,-3.981 10.509,-5.355 16.153,-3.61c44.669,14.662 64.345,18.467 75.548,19.433c13.236,1.141 49.552,10.433 74.373,-35.327c15.641,-28.837 15.864,-77.316 36.615,-98.161c30.862,-31.004 66.098,-53.292 109.844,-53.292c43.746,0 78.982,22.288 109.844,53.292c20.751,20.845 20.974,69.324 36.615,98.161c24.821,45.76 61.137,36.468 74.373,35.327c11.203,-0.966 30.879,-4.771 75.554,-19.415c5.637,-1.743 11.776,-0.371 16.135,3.605c4.359,3.977 6.286,9.965 5.066,15.738c-8.969,43.396 -23.326,98.672 -49.607,103.301c-121.615,21.419 -141.783,22.653 -267.98,22.653Z" style="fill:#333;"/><path d="M941.737,177.035c1.218,3.019 1.546,6.381 0.85,9.673c-8.969,43.396 -23.326,98.672 -49.607,103.301c-121.615,21.419 -141.783,22.653 -267.98,22.653c-126.197,0 -146.365,-1.234 -267.98,-22.653c-26.281,-4.629 -40.638,-59.905 -49.626,-103.297c-0.696,-3.295 -0.368,-6.659 0.851,-9.68c9.038,42.703 23.308,94.747 48.775,99.232c121.615,21.418 141.783,22.653 267.98,22.653c126.197,-0 146.365,-1.235 267.98,-22.653c25.466,-4.485 39.736,-56.523 48.757,-99.229Z" style="fill:#1d1d1d;"/><path d="M624.754,193.857l-26.588,19.992c4.756,9.357 2.262,21.071 -6.415,27.595c-9.724,7.312 -23.556,5.353 -30.868,-4.372c-3.824,-5.085 -5.113,-11.293 -4.081,-17.104c-5.87,-0.623 -11.476,-3.585 -15.3,-8.67c-7.312,-9.725 -5.353,-23.556 4.372,-30.869c8.676,-6.524 20.622,-5.668 28.29,1.5l18.035,-13.561l-17.767,-13.911c-7.806,7.016 -19.766,7.638 -28.314,0.946c-9.58,-7.501 -11.268,-21.368 -3.767,-30.948c3.922,-5.01 9.585,-7.861 15.466,-8.369c-0.918,-5.831 0.492,-12.013 4.414,-17.022c7.501,-9.58 21.368,-11.268 30.948,-3.767c8.548,6.692 10.813,18.452 5.874,27.714l26.193,20.508l26.588,-19.992c-4.756,-9.357 -2.262,-21.07 6.415,-27.594c9.724,-7.313 23.556,-5.354 30.868,4.371c3.824,5.085 5.113,11.293 4.081,17.104c5.87,0.623 11.476,3.585 15.3,8.67c7.312,9.725 5.353,23.556 -4.372,30.869c-8.676,6.524 -20.622,5.668 -28.29,-1.5l-18.035,13.562l17.767,13.91c7.806,-7.016 19.766,-7.638 28.314,-0.946c9.58,7.501 11.268,21.369 3.767,30.948c-3.922,5.01 -9.585,7.861 -15.466,8.37c0.918,5.83 -0.492,12.012 -4.414,17.021c-7.501,9.58 -21.368,11.268 -30.948,3.767c-8.548,-6.692 -10.813,-18.452 -5.874,-27.714l-26.193,-20.508Z" style="fill:#e6e6e6;"/><path d="M307.394,186.712c-1.221,-5.78 0.709,-11.774 5.073,-15.755c4.364,-3.981 10.509,-5.355 16.153,-3.61c44.669,14.662 64.345,18.467 75.548,19.433c13.236,1.141 49.552,10.433 74.373,-35.327c15.641,-28.837 15.864,-77.316 36.615,-98.161c30.862,-31.004 66.098,-53.292 109.844,-53.292c43.746,0 78.982,22.288 109.844,53.292c20.751,20.845 20.974,69.324 36.615,98.161c24.821,45.76 61.137,36.468 74.373,35.327c11.203,-0.966 30.879,-4.771 75.554,-19.415c5.637,-1.743 11.776,-0.371 16.135,3.605c4.359,3.977 6.286,9.965 5.066,15.738c-5.611,-0.853 -11.502,-0.551 -21.87,2.776c-42.406,13.608 -61.82,17.08 -73.095,18.052c-9.836,0.848 -29.897,4.48 -51.064,-4.311c-14.804,-6.149 -30.512,-18.057 -43.412,-41.839c-8.566,-15.792 -13.24,-36.858 -18.284,-56.935c-3.6,-14.33 -6.671,-28.313 -14.783,-36.462c-26.828,-26.951 -57.051,-47.156 -95.079,-47.156c-38.028,0 -68.251,20.205 -95.079,47.156c-8.112,8.149 -11.183,22.132 -14.783,36.462c-5.044,20.077 -9.718,41.143 -18.284,56.935c-12.9,23.782 -28.608,35.69 -43.412,41.839c-21.167,8.791 -41.228,5.159 -51.064,4.311c-11.304,-0.975 -30.789,-4.461 -73.116,-18.077c-9.094,-2.925 -15.57,-5.298 -21.868,-2.747Z" style="fill:#d08802;"/></g></g></svg>