<?xml version="1.0" encoding="UTF-8" standalone="no"?><!DOCTYPE svg PUBLIC "-//W3C//DTD SVG 1.1//EN" "http://www.w3.org/Graphics/SVG/1.1/DTD/svg11.dtd"><svg width="100%" height="100%" viewBox="0 0 1250 1438" version="1.1" xmlns="http://www.w3.org/2000/svg" xmlns:xlink="http://www.w3.org/1999/xlink" xml:space="preserve" xmlns:serif="http://www.serif.com/" style="fill-rule:evenodd;clip-rule:evenodd;stroke-linejoin:round;stroke-miterlimit:2;"><g id="Ciborg"><g id="HatCiborg"><g><rect x="268.873" y="52.918" width="23.321" height="134.582" style="fill:#acacac;"/><circle cx="280.534" cy="33.646" r="33.646" style="fill:#ff5b5b;"/><circle cx="288.629" cy="27.644" r="19.756" style="fill:#ff7474;"/><path d="M513.735,187.5l-338.676,0l0,-37.661c0,-24.726 20.075,-44.801 44.802,-44.801l249.072,-0c24.727,-0 44.802,20.075 44.802,44.801l0,37.661Z" style="fill:#868686;"/><path d="M247.628,175.033l-0,24.934c-0,12.502 -10.15,22.652 -22.652,22.652c-12.502,0 -22.652,-10.15 -22.652,-22.652l-0,-24.934c-0,-12.502 10.15,-22.652 22.652,-22.652c12.502,-0 22.652,10.15 22.652,22.652Zm119.757,-0l0,24.934c0,12.502 -10.15,22.652 -22.652,22.652c-12.502,0 -22.652,-10.15 -22.652,-22.652l-0,-24.934c-0,-12.502 10.15,-22.652 22.652,-22.652c12.502,-0 22.652,10.15 22.652,22.652Zm123.269,-0l0,24.934c0,12.502 -10.15,22.652 -22.652,22.652c-12.502,0 -22.652,-10.15 -22.652,-22.652l0,-24.934c0,-12.502 10.15,-22.652 22.652,-22.652c12.502,-0 22.652,10.15 22.652,22.652Z" style="fill:#acacac;"/><path d="M241.222,174.498l-0,9.171c-0,6.748 -5.479,12.227 -12.227,12.227c-6.749,-0 -12.227,-5.479 -12.227,-12.227l-0,-9.171c-0,-6.748 5.478,-12.227 12.227,-12.227c6.748,0 12.227,5.479 12.227,12.227Zm120.473,0l0,9.171c0,6.748 -5.478,12.227 -12.227,12.227c-6.748,-0 -12.227,-5.479 -12.227,-12.227l0,-9.171c0,-6.748 5.479,-12.227 12.227,-12.227c6.749,0 12.227,5.479 12.227,12.227Zm123.89,0l0,9.171c0,6.748 -5.478,12.227 -12.227,12.227c-6.748,-0 -12.227,-5.479 -12.227,-12.227l-0,-9.171c-0,-6.748 5.479,-12.227 12.227,-12.227c6.749,0 12.227,5.479 12.227,12.227Z" style="fill:#c8c8c8;"/></g><g><path d="M1.722,332.425l129.291,0c19.337,-19.706 46.266,-31.938 76.029,-31.938c58.797,-0 106.533,47.736 106.533,106.533c0,58.797 -47.736,106.533 -106.533,106.533c-29.763,-0 -56.692,-12.232 -76.029,-31.939l-131.013,0l0,-126.288c0,-7.784 0.588,-15.431 1.722,-22.901Z" style="fill:#717171;"/><path d="M1.722,316.183l129.291,-0c19.337,-19.707 46.266,-31.939 76.029,-31.939c58.797,0 106.533,47.736 106.533,106.533c0,58.797 -47.736,106.533 -106.533,106.533c-29.763,0 -56.692,-12.232 -76.029,-31.938l-131.013,-0l0,-126.289c0,-7.783 0.588,-15.431 1.722,-22.9Z" style="fill:#868686;"/><path d="M93.626,316.183l-24.693,-0l-1.024,165.431l24.693,0l1.024,-165.431Z" style="fill:#36bfda;"/><path d="M93.626,316.183l-24.693,-0l-0.817,149.189l24.694,-0l0.816,-149.189Z" style="fill:#61dbee;"/><circle cx="206.815" cy="390.777" r="77.344" style="fill:#36bfda;"/><path d="M129.685,396.572c-0.142,-1.913 -0.214,-3.846 -0.214,-5.795c0,-42.687 34.657,-77.344 77.344,-77.344c42.687,0 77.343,34.657 77.343,77.344c0,1.949 -0.072,3.882 -0.214,5.795c-2.967,-39.985 -36.391,-71.549 -77.129,-71.549c-40.738,-0 -74.162,31.564 -77.13,71.549Z" style="fill:#717171;"/><circle cx="215.173" cy="390.777" r="53.111" style="fill:#61dbee;"/></g><g><path id="base_body_1" d="M1250,715.396l-625,-0l0,-527.896l473.417,0c83.661,0 151.583,67.922 151.583,151.583l0,376.313Z" style="fill:#61dbee;"/><path d="M1031.27,370.166l-254.488,0l-58.906,0l0,192.415l42.543,55.106l359.07,0l0,-102.927l-239.818,-0c-5.526,-0 -10.825,-2.195 -14.732,-6.102l-67.366,-67.367c-8.131,-8.13 -8.131,-21.332 -0,-29.463c8.13,-8.13 21.332,-8.13 29.462,0l61.265,61.265l361.697,0l0,41.667l-88.841,-0l0,102.927l88.841,0l-0,41.667l-625,-0l0,-41.667l82.783,0l-27.228,-35.269c-2.815,-3.647 -4.342,-8.124 -4.342,-12.731l-0,-220.354c-0,-11.506 9.327,-20.834 20.833,-20.834l58.905,0l0,-46.532l-36.386,-34.566c-8.336,-7.92 -8.674,-21.117 -0.755,-29.453c7.92,-8.337 21.117,-8.675 29.453,-0.756l26.233,24.922l26.055,-24.883c8.315,-7.942 21.513,-7.639 29.455,0.677c7.941,8.315 7.638,21.513 -0.678,29.455l-31.71,30.285l0,50.851l231.315,0c6.142,-8.874 16.394,-14.692 27.994,-14.692c18.777,0 34.022,15.245 34.022,34.022c-0,18.777 -15.245,34.022 -34.022,34.022c-10.232,0 -19.415,-4.527 -25.654,-11.685Zm-16.731,-182.666l0,42.183l143.789,0c11.506,0 20.834,9.328 20.834,20.834l-0,107.39c-0,5.525 -2.195,10.824 -6.102,14.731l-65.592,65.592c-8.13,8.13 -21.332,8.13 -29.463,-0c-8.13,-8.131 -8.13,-21.332 0,-29.463l59.49,-59.49l0,-77.927l-143.789,-0c-11.506,-0 -20.833,-9.328 -20.833,-20.833l-0,-63.017l41.666,0Zm-242.275,283.521c11.282,0 20.441,9.16 20.441,20.441c-0,11.282 -9.159,20.441 -20.441,20.441c-11.281,-0 -20.44,-9.159 -20.44,-20.441c-0,-11.281 9.159,-20.441 20.44,-20.441Zm0,60.362c11.282,-0 20.441,9.159 20.441,20.441c-0,11.281 -9.159,20.44 -20.441,20.44c-11.281,0 -20.44,-9.159 -20.44,-20.44c-0,-11.282 9.159,-20.441 20.44,-20.441Zm439.542,14.404c11.281,0 20.441,9.16 20.441,20.441c-0,11.281 -9.16,20.441 -20.441,20.441c-11.282,-0 -20.441,-9.16 -20.441,-20.441c0,-11.281 9.159,-20.441 20.441,-20.441Zm-288.226,-278.49l-0,37.048c-0,3.102 -2.519,5.621 -5.621,5.621l-37.048,-0c-3.102,-0 -5.621,-2.519 -5.621,-5.621l0,-37.048c0,-3.102 2.519,-5.62 5.621,-5.62l37.048,-0c3.102,-0 5.621,2.518 5.621,5.62Zm-0,-65.3l-0,37.048c-0,3.102 -2.519,5.621 -5.621,5.621l-37.048,-0c-3.102,-0 -5.621,-2.519 -5.621,-5.621l0,-37.048c0,-3.102 2.519,-5.62 5.621,-5.62l37.048,-0c3.102,-0 5.621,2.518 5.621,5.62Zm100.618,201.937l0,37.048c0,3.102 -2.518,5.62 -5.62,5.62l-105.641,0c-3.102,0 -5.621,-2.518 -5.621,-5.62l0,-37.048c0,-3.102 2.519,-5.621 5.621,-5.621l105.641,0c3.102,0 5.62,2.519 5.62,5.621Z" style="fill:#36bfda;"/><path d="M1147.87,1011.36l-66.6,231.936l-120.391,-45.943c34.518,-0 62.5,-27.983 62.5,-62.5l-0,-21.066l-421.152,-252.255c-18.848,-11.289 -30.384,-31.647 -30.384,-53.617l-0,-620.411l36.011,0l-0,527.896l540.016,295.96Z" style="fill:#717171;"/><path d="M1250,742.234l0,349.474c0,83.661 -67.922,151.584 -151.583,151.584l-824.201,-0l234.299,-60.166c10.841,-2.783 20.735,-8.427 28.65,-16.341l12.14,-12.14c11.721,-11.722 27.618,-18.306 44.194,-18.306l77.504,-0c16.576,-0 32.474,6.584 44.195,18.306l14.966,14.966c11.721,11.721 27.619,18.306 44.195,18.306l203.666,0c34.518,0 62.5,-27.982 62.5,-62.5l-0,-21.065l-421.151,-252.255c-18.849,-11.29 -30.385,-31.647 -30.385,-53.618l-0,-56.245l661.011,0Z" style="fill:#868686;"/><path d="M1242.4,1139.19c-19.943,60.435 -76.905,104.102 -143.985,104.102l-824.201,-0l234.299,-60.166c10.841,-2.783 20.735,-8.427 28.65,-16.341l12.14,-12.14c11.721,-11.722 27.618,-18.306 44.194,-18.306l77.504,-0c16.576,-0 32.474,6.584 44.195,18.306l14.966,14.966c11.721,11.721 27.619,18.306 44.195,18.306l203.666,0c34.518,0 62.5,-27.982 62.5,-62.5l-0,-15.401l201.877,29.174Z" style="fill:#a2a2a2;"/><path d="M1092.59,1134.27c12.775,-0.203 23.311,10.005 23.513,22.78c0.203,12.776 -10.005,23.312 -22.78,23.514c-12.775,0.202 -23.311,-10.005 -23.514,-22.78c-0.202,-12.776 10.005,-23.312 22.781,-23.514Z" style="fill:#868686;"/><path d="M1173.46,1148.76c12.776,-0.202 23.312,10.005 23.514,22.78c0.202,12.776 -10.005,23.312 -22.78,23.514c-12.776,0.203 -23.312,-10.005 -23.514,-22.78c-0.203,-12.775 10.005,-23.312 22.78,-23.514Z" style="fill:#868686;"/><path d="M588.989,742.234l-0,-554.734l36.011,0l0,527.896l625,-0l0,26.838l-661.011,0Z" style="fill:#acacac;"/><path d="M1250,731.661l-638.136,-0c-2.543,-0 -4.604,-2.062 -4.604,-4.605l-0,-539.556l9.209,0l-0,534.951l633.531,0l0,9.21Z" style="fill:#c8c8c8;"/></g><g><path d="M712.417,894.184c-2.393,-23.807 -1.551,-47.417 2.226,-70.311c5.334,-32.719 16.57,-63.466 32.577,-91.112c15.938,-27.685 36.948,-52.789 62.616,-73.768c17.939,-14.718 37.965,-27.252 59.779,-37.083c13.067,-5.919 26.688,-10.825 40.765,-14.618c14.661,-3.959 29.502,-6.626 44.368,-8.042c23.811,-2.314 47.419,-1.396 70.303,2.458c32.369,5.387 62.794,16.553 90.178,32.4c27.707,15.942 52.83,36.963 73.822,62.648c14.718,17.938 27.253,37.964 37.084,59.778c5.979,13.201 10.925,26.969 14.734,41.199c3.817,14.228 6.417,28.625 7.839,43.047c2.394,23.807 1.552,47.417 -2.226,70.311c-5.337,32.74 -16.584,63.506 -32.608,91.166c-15.792,27.416 -36.558,52.298 -61.896,73.148c-17.892,14.779 -37.878,27.379 -59.655,37.28c-13.583,6.207 -27.769,11.318 -42.446,15.219c-14.087,3.754 -28.336,6.316 -42.612,7.723c-23.807,2.394 -47.417,1.552 -70.311,-2.225c-32.719,-5.334 -63.466,-16.57 -91.112,-32.577c-27.685,-15.939 -52.789,-36.949 -73.768,-62.617c-14.718,-17.938 -27.252,-37.964 -37.083,-59.778c-5.98,-13.201 -10.926,-26.969 -14.735,-41.199c-3.816,-14.228 -6.417,-28.625 -7.839,-43.047Z" style="fill:#3d3d3d;"/><circle cx="980.563" cy="822.897" r="251.07" style="fill:#ef0051;"/><path d="M809.408,838.391c-0.457,-5.104 -0.691,-10.272 -0.691,-15.494c0,-94.844 77.002,-171.846 171.846,-171.846c94.844,0 171.845,77.002 171.845,171.846c0,5.222 -0.233,10.39 -0.69,15.494c-7.843,-87.596 -81.533,-156.352 -171.155,-156.352c-89.622,0 -163.312,68.756 -171.155,156.352Z" style="fill:#9f0036;"/><path d="M811.905,1008.82l-0,-11.478c-0,-2.083 1.691,-3.775 3.775,-3.775c13.42,0 18.304,7.993 22.963,16.298c3.403,6.067 6.576,12.442 16.379,12.442c10.385,0 13.845,-6.399 17.496,-12.527c4.912,-8.244 10.011,-16.213 23.982,-16.213c6.397,0 10.711,1.479 13.86,3.661c3.205,2.22 5.254,5.225 6.904,8.555c2.219,4.477 3.42,9.743 7.804,13.145c2.746,2.132 6.782,3.379 13.085,3.379c11.4,0 15.295,-6.432 19.329,-12.65c5.29,-8.152 10.715,-16.09 25.663,-16.09c6.185,0 10.577,1.432 13.926,3.592c4.854,3.13 7.522,7.922 10.063,12.812c3.153,6.068 6.165,12.336 17.29,12.336c4.323,0 7.388,-0.85 9.661,-2.359c3.562,-2.365 5.176,-6.161 6.931,-9.856c2.342,-4.928 4.824,-9.752 9.575,-12.906c3.269,-2.17 7.62,-3.619 13.836,-3.619c15.119,0 19.923,8.04 24.589,16.286c3.466,6.124 6.791,12.454 18.02,12.454c4.282,0 7.271,-0.827 9.44,-2.322c3.386,-2.334 4.754,-6.088 6.284,-9.734c2.089,-4.977 4.34,-9.843 8.962,-13.028c3.169,-2.184 7.468,-3.656 13.724,-3.656c2.083,0 3.775,1.692 3.775,3.775l-0,11.478c-17.926,16.273 -38.212,29.992 -60.28,40.581c-2.653,-2.769 -4.585,-6.109 -6.495,-9.483c-3.465,-6.124 -6.791,-12.454 -18.019,-12.454c-4.323,0 -7.387,0.85 -9.661,2.359c-3.562,2.365 -5.175,6.161 -6.931,9.856c-2.342,4.928 -4.824,9.752 -9.575,12.906c-3.269,2.17 -7.619,3.619 -13.836,3.619c-6.185,-0 -10.577,-1.432 -13.926,-3.592c-4.854,-3.13 -7.522,-7.922 -10.063,-12.812c-3.153,-6.068 -6.165,-12.336 -17.29,-12.336c-11.4,0 -15.296,6.432 -19.329,12.65c-5.29,8.152 -10.715,16.09 -25.663,16.09c-8.957,-0 -14.448,-2.246 -18.205,-5.359c-3.727,-3.088 -5.776,-7.146 -7.59,-11.264c-1.617,-3.669 -2.906,-7.451 -6.297,-9.8c-2.161,-1.497 -5.171,-2.317 -9.561,-2.317c-10.385,0 -13.845,6.399 -17.496,12.527c-2.011,3.374 -4.053,6.702 -6.721,9.457c-22.107,-10.595 -42.426,-24.331 -60.378,-40.628Zm337.3,-371.859c0.01,0.115 0.016,0.231 0.016,0.348l-0,26.347c-0,2.084 -1.692,3.775 -3.775,3.775c-4.283,-0 -7.271,0.827 -9.44,2.322c-3.387,2.334 -4.754,6.088 -6.285,9.734c-2.089,4.977 -4.339,9.843 -8.961,13.028c-3.169,2.184 -7.468,3.656 -13.724,3.656c-15.119,-0 -19.924,-8.04 -24.59,-16.286c-3.465,-6.124 -6.791,-12.454 -18.019,-12.454c-4.323,-0 -7.387,0.85 -9.661,2.359c-3.562,2.365 -5.175,6.161 -6.931,9.856c-2.342,4.928 -4.824,9.752 -9.575,12.906c-3.269,2.17 -7.619,3.619 -13.836,3.619c-6.185,-0 -10.577,-1.432 -13.926,-3.592c-4.854,-3.13 -7.522,-7.922 -10.063,-12.812c-3.153,-6.068 -6.165,-12.336 -17.29,-12.336c-11.4,-0 -15.296,6.432 -19.329,12.65c-5.29,8.152 -10.715,16.09 -25.663,16.09c-8.957,-0 -14.448,-2.246 -18.205,-5.359c-3.727,-3.088 -5.776,-7.146 -7.59,-11.264c-1.617,-3.669 -2.906,-7.452 -6.297,-9.8c-2.161,-1.497 -5.171,-2.317 -9.561,-2.317c-10.385,-0 -13.845,6.399 -17.496,12.527c-4.912,8.244 -10.011,16.213 -23.982,16.213c-13.421,-0 -18.305,-7.993 -22.963,-16.298c-3.403,-6.067 -6.576,-12.442 -16.379,-12.442c-2.084,-0 -3.775,-1.691 -3.775,-3.775l-0,-26.347c-0,-0.117 0.005,-0.233 0.016,-0.348c1.272,-1.155 2.557,-2.297 3.853,-3.426c13.349,0.037 18.221,8.012 22.869,16.297c3.403,6.067 6.576,12.442 16.379,12.442c10.385,-0 13.845,-6.399 17.496,-12.527c4.912,-8.244 10.011,-16.213 23.982,-16.213c6.397,0 10.711,1.479 13.86,3.661c3.205,2.22 5.254,5.225 6.904,8.555c2.219,4.477 3.42,9.742 7.804,13.145c2.746,2.131 6.782,3.379 13.085,3.379c11.4,-0 15.295,-6.432 19.329,-12.65c5.29,-8.152 10.715,-16.09 25.663,-16.09c6.185,0 10.577,1.432 13.926,3.592c4.854,3.13 7.522,7.922 10.063,12.812c3.153,6.068 6.165,12.336 17.29,12.336c4.323,-0 7.388,-0.85 9.661,-2.359c3.562,-2.365 5.176,-6.161 6.931,-9.856c2.342,-4.928 4.824,-9.752 9.575,-12.906c3.269,-2.17 7.62,-3.619 13.836,-3.619c15.119,0 19.923,8.04 24.589,16.286c3.466,6.124 6.791,12.454 18.02,12.454c4.282,-0 7.271,-0.827 9.44,-2.322c3.386,-2.334 4.754,-6.088 6.284,-9.734c2.089,-4.977 4.34,-9.843 8.962,-13.028c3.153,-2.173 7.424,-3.641 13.629,-3.656c1.296,1.13 2.581,2.272 3.854,3.427Zm-337.3,109.274l-0,-26.348c-0,-2.083 1.691,-3.774 3.775,-3.774c13.42,-0 18.304,7.992 22.963,16.298c3.403,6.066 6.576,12.441 16.379,12.441c10.385,0 13.845,-6.399 17.496,-12.527c4.912,-8.243 10.011,-16.212 23.982,-16.212c6.397,-0 10.711,1.479 13.86,3.66c3.205,2.22 5.254,5.225 6.904,8.555c2.219,4.477 3.42,9.743 7.804,13.145c2.746,2.132 6.782,3.379 13.085,3.379c11.4,0 15.295,-6.431 19.329,-12.649c5.29,-8.153 10.715,-16.09 25.663,-16.09c6.185,-0 10.577,1.432 13.926,3.591c4.854,3.13 7.522,7.922 10.063,12.813c3.153,6.068 6.165,12.335 17.29,12.335c4.323,0 7.388,-0.85 9.661,-2.359c3.562,-2.364 5.176,-6.161 6.931,-9.856c2.342,-4.927 4.824,-9.752 9.575,-12.906c3.269,-2.169 7.62,-3.618 13.836,-3.618c15.119,-0 19.923,8.039 24.589,16.285c3.466,6.125 6.791,12.454 18.02,12.454c4.282,0 7.271,-0.827 9.44,-2.322c3.386,-2.334 4.754,-6.087 6.284,-9.734c2.089,-4.976 4.34,-9.843 8.962,-13.028c3.169,-2.184 7.468,-3.655 13.724,-3.655c2.083,-0 3.775,1.691 3.775,3.774l-0,26.348c-0,2.083 -1.692,3.774 -3.775,3.774c-4.283,0 -7.271,0.828 -9.44,2.323c-3.387,2.333 -4.754,6.087 -6.285,9.733c-2.089,4.977 -4.339,9.844 -8.961,13.028c-3.169,2.184 -7.468,3.656 -13.724,3.656c-15.119,-0 -19.924,-8.039 -24.59,-16.286c-3.465,-6.124 -6.791,-12.454 -18.019,-12.454c-4.323,0 -7.387,0.851 -9.661,2.359c-3.562,2.365 -5.175,6.162 -6.931,9.857c-2.342,4.927 -4.824,9.752 -9.575,12.905c-3.269,2.17 -7.619,3.619 -13.836,3.619c-6.185,-0 -10.577,-1.432 -13.926,-3.591c-4.854,-3.13 -7.522,-7.923 -10.063,-12.813c-3.153,-6.068 -6.165,-12.336 -17.29,-12.336c-11.4,0 -15.296,6.432 -19.329,12.65c-5.29,8.153 -10.715,16.09 -25.663,16.09c-8.957,-0 -14.448,-2.245 -18.205,-5.359c-3.727,-3.088 -5.776,-7.146 -7.59,-11.263c-1.617,-3.669 -2.906,-7.452 -6.297,-9.8c-2.161,-1.498 -5.171,-2.318 -9.561,-2.318c-10.385,0 -13.845,6.4 -17.496,12.528c-4.912,8.243 -10.011,16.212 -23.982,16.212c-13.421,-0 -18.305,-7.993 -22.963,-16.298c-3.403,-6.066 -6.576,-12.442 -16.379,-12.442c-2.084,0 -3.775,-1.691 -3.775,-3.774Zm-0,95.025l-0,-26.347c-0,-2.084 1.691,-3.775 3.775,-3.775c13.42,0 18.304,7.993 22.963,16.298c3.403,6.066 6.576,12.442 16.379,12.442c10.385,-0 13.845,-6.4 17.496,-12.528c4.912,-8.243 10.011,-16.212 23.982,-16.212c6.397,0 10.711,1.479 13.86,3.661c3.205,2.22 5.254,5.224 6.904,8.554c2.219,4.477 3.42,9.743 7.804,13.146c2.746,2.131 6.782,3.379 13.085,3.379c11.4,-0 15.295,-6.432 19.329,-12.65c5.29,-8.153 10.715,-16.09 25.663,-16.09c6.185,0 10.577,1.432 13.926,3.591c4.854,3.13 7.522,7.923 10.063,12.813c3.153,6.068 6.165,12.336 17.29,12.336c4.323,-0 7.388,-0.851 9.661,-2.359c3.562,-2.365 5.176,-6.162 6.931,-9.856c2.342,-4.928 4.824,-9.752 9.575,-12.906c3.269,-2.17 7.62,-3.619 13.836,-3.619c15.119,0 19.923,8.039 24.589,16.286c3.466,6.124 6.791,12.454 18.02,12.454c4.282,-0 7.271,-0.828 9.44,-2.323c3.386,-2.333 4.754,-6.087 6.284,-9.733c2.089,-4.977 4.34,-9.843 8.962,-13.028c3.169,-2.184 7.468,-3.656 13.724,-3.656c2.083,0 3.775,1.691 3.775,3.775l-0,26.347c-0,2.083 -1.692,3.775 -3.775,3.775c-4.283,-0 -7.271,0.827 -9.44,2.322c-3.387,2.334 -4.754,6.087 -6.285,9.734c-2.089,4.976 -4.339,9.843 -8.961,13.028c-3.169,2.184 -7.468,3.655 -13.724,3.655c-15.119,0 -19.924,-8.039 -24.59,-16.285c-3.465,-6.124 -6.791,-12.454 -18.019,-12.454c-4.323,-0 -7.387,0.85 -9.661,2.359c-3.562,2.365 -5.175,6.161 -6.931,9.856c-2.342,4.928 -4.824,9.752 -9.575,12.906c-3.269,2.17 -7.619,3.618 -13.836,3.618c-6.185,0 -10.577,-1.432 -13.926,-3.591c-4.854,-3.13 -7.522,-7.922 -10.063,-12.813c-3.153,-6.068 -6.165,-12.335 -17.29,-12.335c-11.4,-0 -15.296,6.432 -19.329,12.649c-5.29,8.153 -10.715,16.09 -25.663,16.09c-8.957,0 -14.448,-2.245 -18.205,-5.358c-3.727,-3.089 -5.776,-7.146 -7.59,-11.264c-1.617,-3.669 -2.906,-7.452 -6.297,-9.8c-2.161,-1.497 -5.171,-2.317 -9.561,-2.317c-10.385,-0 -13.845,6.399 -17.496,12.527c-4.912,8.243 -10.011,16.212 -23.982,16.212c-13.421,0 -18.305,-7.992 -22.963,-16.297c-3.403,-6.067 -6.576,-12.442 -16.379,-12.442c-2.084,-0 -3.775,-1.692 -3.775,-3.775Zm-0,92.892l-0,-26.347c-0,-2.083 1.691,-3.775 3.775,-3.775c13.42,0 18.304,7.993 22.963,16.298c3.403,6.067 6.576,12.442 16.379,12.442c10.385,0 13.845,-6.399 17.496,-12.527c4.912,-8.244 10.011,-16.213 23.982,-16.213c6.397,0 10.711,1.479 13.86,3.661c3.205,2.22 5.254,5.225 6.904,8.555c2.219,4.477 3.42,9.743 7.804,13.145c2.746,2.131 6.782,3.379 13.085,3.379c11.4,0 15.295,-6.432 19.329,-12.65c5.29,-8.152 10.715,-16.09 25.663,-16.09c6.185,0 10.577,1.432 13.926,3.592c4.854,3.13 7.522,7.922 10.063,12.812c3.153,6.068 6.165,12.336 17.29,12.336c4.323,0 7.388,-0.85 9.661,-2.359c3.562,-2.365 5.176,-6.161 6.931,-9.856c2.342,-4.928 4.824,-9.752 9.575,-12.906c3.269,-2.17 7.62,-3.619 13.836,-3.619c15.119,0 19.923,8.04 24.589,16.286c3.466,6.124 6.791,12.454 18.02,12.454c4.282,0 7.271,-0.827 9.44,-2.322c3.386,-2.334 4.754,-6.088 6.284,-9.734c2.089,-4.977 4.34,-9.843 8.962,-13.028c3.169,-2.184 7.468,-3.656 13.724,-3.656c2.083,0 3.775,1.692 3.775,3.775l-0,26.347c-0,2.084 -1.692,3.775 -3.775,3.775c-4.283,0 -7.271,0.827 -9.44,2.322c-3.387,2.334 -4.754,6.088 -6.285,9.734c-2.089,4.977 -4.339,9.843 -8.961,13.028c-3.169,2.184 -7.468,3.656 -13.724,3.656c-15.119,-0 -19.924,-8.04 -24.59,-16.286c-3.465,-6.124 -6.791,-12.454 -18.019,-12.454c-4.323,0 -7.387,0.85 -9.661,2.359c-3.562,2.365 -5.175,6.161 -6.931,9.856c-2.342,4.928 -4.824,9.752 -9.575,12.906c-3.269,2.17 -7.619,3.619 -13.836,3.619c-6.185,-0 -10.577,-1.432 -13.926,-3.592c-4.854,-3.13 -7.522,-7.922 -10.063,-12.812c-3.153,-6.068 -6.165,-12.336 -17.29,-12.336c-11.4,0 -15.296,6.432 -19.329,12.65c-5.29,8.152 -10.715,16.09 -25.663,16.09c-8.957,-0 -14.448,-2.246 -18.205,-5.359c-3.727,-3.088 -5.776,-7.146 -7.59,-11.264c-1.617,-3.669 -2.906,-7.452 -6.297,-9.8c-2.161,-1.497 -5.171,-2.317 -9.561,-2.317c-10.385,0 -13.845,6.399 -17.496,12.527c-4.912,8.244 -10.011,16.213 -23.982,16.213c-13.421,-0 -18.305,-7.993 -22.963,-16.298c-3.403,-6.067 -6.576,-12.442 -16.379,-12.442c-2.084,0 -3.775,-1.691 -3.775,-3.775Z" style="fill:#fd488e;"/><path d="M1034.15,926.517c6.611,-7.65 18.19,-8.493 25.84,-1.882c7.651,6.612 8.494,18.191 1.882,25.841c-17.293,20.009 -36.687,26.021 -57.238,24.858c-10.095,-0.572 -17.827,-9.232 -17.256,-19.327c0.572,-10.095 9.232,-17.827 19.327,-17.256c9.895,0.56 19.118,-2.6 27.445,-12.234Zm-25.109,-208.697c-9.634,-3.069 -14.965,-13.383 -11.896,-23.017c3.069,-9.634 13.383,-14.965 23.017,-11.896c91.833,29.253 138.954,130.82 80.881,219.963c-5.519,8.472 -16.878,10.87 -25.351,5.35c-8.472,-5.519 -10.869,-16.878 -5.35,-25.35c43.628,-66.97 7.689,-143.074 -61.301,-165.05Z" style="fill:#ffa6c9;fill-opacity:0.25;"/><path d="M732.667,782.901c19.178,-119.589 122.937,-211.074 247.896,-211.074c5.077,-0 10.12,0.151 15.123,0.449l-263.019,210.625Zm336.814,-194.849c19.467,7.383 37.78,17.119 54.591,28.859l-375.931,301.045c-7.723,-18.842 -13.22,-38.829 -16.163,-59.632l337.503,-270.272Zm71.076,41.409c18.764,15.542 35.234,33.759 48.821,54.065l-390.43,312.655c-16.769,-17.567 -31.017,-37.561 -42.162,-59.398l383.771,-307.322Zm85.148,139c3.881,17.53 5.928,35.746 5.928,54.436c-0,138.569 -112.501,251.07 -251.07,251.07c-38.137,-0 -74.3,-8.522 -106.686,-23.763l351.828,-281.743Z" style="fill:#fff0f5;fill-opacity:0.15;"/><path d="M980.563,571.827c138.569,-0 251.07,112.5 251.07,251.07c-0,138.569 -112.501,251.07 -251.07,251.07c-138.57,-0 -251.07,-112.501 -251.07,-251.07c-0,-138.57 112.5,-251.07 251.07,-251.07Zm-0,61.706c-104.513,0 -189.364,84.851 -189.364,189.364c0,104.512 84.851,189.363 189.364,189.363c104.512,0 189.363,-84.851 189.363,-189.363c0,-104.513 -84.851,-189.364 -189.363,-189.364Z" style="fill:#868686;"/><path d="M980.563,553.46c148.706,-0 269.437,120.73 269.437,269.437c0,148.706 -120.731,269.437 -269.437,269.437c-148.707,0 -269.437,-120.731 -269.437,-269.437c-0,-148.707 120.73,-269.437 269.437,-269.437Zm-0,18.367c-138.57,-0 -251.07,112.5 -251.07,251.07c-0,138.569 112.5,251.07 251.07,251.07c138.569,-0 251.07,-112.501 251.07,-251.07c-0,-138.57 -112.501,-251.07 -251.07,-251.07Zm-0,61.706c104.512,0 189.363,84.851 189.363,189.364c0,104.512 -84.851,189.363 -189.363,189.363c-104.513,0 -189.364,-84.851 -189.364,-189.363c0,-104.513 84.851,-189.364 189.364,-189.364Zm-0,18.368c-94.376,-0 -170.996,76.62 -170.996,170.996c-0,94.375 76.62,170.996 170.996,170.996c94.375,-0 170.996,-76.621 170.996,-170.996c-0,-94.376 -76.621,-170.996 -170.996,-170.996Z" style="fill:#c2c2c2;"/><path d="M713.747,785.197c6.715,-47.875 26.032,-91.732 54.484,-128.105l13.09,13.09c-25.251,32.882 -42.55,72.182 -49.011,115.015l-18.563,-0Zm108.753,-180.467c36.547,-26.537 80.009,-44.119 127.152,-49.513l-0,18.497c-42.098,5.179 -80.986,20.794 -113.991,44.177l-13.161,-13.161Zm202.551,-47.608c45.233,7.528 86.67,26.341 121.316,53.443l-13.089,13.09c-31.137,-23.911 -68.03,-40.691 -108.227,-47.891l0,-18.642Zm173.679,107.712c25.257,34.786 42.403,75.837 48.648,120.363l-18.562,-0c-5.958,-39.49 -21.127,-75.979 -43.247,-107.202l13.161,-13.161Zm48.648,195.763c-6.245,44.526 -23.391,85.576 -48.648,120.363l-13.161,-13.161c22.12,-31.224 37.289,-67.712 43.247,-107.202l18.562,-0Zm-101.011,174.631c-34.646,27.102 -76.083,45.915 -121.316,53.444l0,-18.642c40.197,-7.2 77.09,-23.981 108.227,-47.891l13.089,13.089Zm-196.715,55.349c-47.143,-5.395 -90.605,-22.977 -127.152,-49.513l13.161,-13.161c33.005,23.382 71.893,38.998 113.991,44.176l-0,18.498Zm-181.421,-101.876c-28.452,-36.372 -47.769,-80.229 -54.484,-128.104l18.563,-0c6.461,42.832 23.76,82.133 49.011,115.015l-13.09,13.089Z" style="fill:#5d5d5d;"/><path d="M980.563,633.533c104.512,0 189.363,84.851 189.363,189.364c0,104.512 -84.851,189.363 -189.363,189.363c-104.513,0 -189.364,-84.851 -189.364,-189.363c0,-104.513 84.851,-189.364 189.364,-189.364Zm-0,18.368c-94.376,-0 -170.996,76.62 -170.996,170.996c-0,94.375 76.62,170.996 170.996,170.996c94.375,-0 170.996,-76.621 170.996,-170.996c-0,-94.376 -76.621,-170.996 -170.996,-170.996Z" style="fill:#424242;"/><path d="M794.959,785.197c5.249,-25.94 15.807,-49.964 30.489,-70.888l13.206,13.206c-11.627,17.257 -20.192,36.745 -24.91,57.682l-18.785,-0Zm85.176,-122.832c20.808,-13.053 44.328,-22.174 69.517,-26.316l-0,18.644c-20.174,3.689 -39.116,10.924 -56.156,21.033l-13.361,-13.361Zm144.916,-23.567c23.347,5.63 45.013,15.591 64.1,28.984l-13.207,13.206c-15.377,-10.361 -32.525,-18.29 -50.893,-23.233l0,-18.957Zm116.044,83.671c11.873,18.927 20.492,40.099 25.071,62.728l-18.784,-0c-3.976,-17.64 -10.681,-34.252 -19.649,-49.367l13.362,-13.361Zm25.071,138.128c-4.579,22.629 -13.198,43.801 -25.071,62.728l-13.362,-13.362c8.968,-15.115 15.673,-31.726 19.649,-49.366l18.784,-0Zm-77.015,117.415c-19.087,13.392 -40.753,23.353 -64.1,28.984l0,-18.958c18.368,-4.943 35.516,-12.872 50.893,-23.233l13.207,13.207Zm-139.499,31.733c-25.189,-4.143 -48.709,-13.263 -69.517,-26.316l13.361,-13.362c17.04,10.11 35.982,17.344 56.156,21.034l-0,18.644Zm-124.204,-78.26c-14.682,-20.924 -25.24,-44.948 -30.489,-70.888l18.785,-0c4.718,20.937 13.283,40.425 24.91,57.681l-13.206,13.207Z" style="fill:#2f2f2f;"/></g></g></g></svg>