<?xml version="1.0" encoding="UTF-8" standalone="no"?><!DOCTYPE svg PUBLIC "-//W3C//DTD SVG 1.1//EN" "http://www.w3.org/Graphics/SVG/1.1/DTD/svg11.dtd"><svg width="100%" height="100%" viewBox="0 0 1250 1438" version="1.1" xmlns="http://www.w3.org/2000/svg" xmlns:xlink="http://www.w3.org/1999/xlink" xml:space="preserve" xmlns:serif="http://www.serif.com/" style="fill-rule:evenodd;clip-rule:evenodd;stroke-linejoin:round;stroke-miterlimit:2;"><g id="MagicKnight"><g id="HatMagicKnight"><g><path d="M625,577.706l-348.251,9.039c-71.493,1.856 -129.036,59.326 -130.982,130.816l-11.39,360.071c-0.249,9.155 -4.839,17.645 -12.363,22.867c-7.523,5.223 -17.082,6.555 -25.747,3.587l-96.267,-32.972l0,-694.385c0,-83.661 67.922,-151.583 151.583,-151.583l946.834,-0c83.661,-0 151.583,67.922 151.583,151.583l0,694.385l-96.267,32.972c-8.665,2.968 -18.224,1.636 -25.747,-3.587c-7.524,-5.222 -12.114,-13.712 -12.363,-22.867l-11.39,-360.071c-1.946,-71.49 -59.489,-128.96 -130.982,-130.816l-348.251,-9.039Z" style="fill:#434343;"/><path d="M138.971,908.912l-4.594,168.72c-0.249,9.155 -4.839,17.645 -12.363,22.867c-7.523,5.223 -17.082,6.555 -25.747,3.587l-96.267,-32.972l-0,-215.312l138.971,53.11Zm972.058,-0l138.971,-53.11l0,215.312l-96.267,32.972c-8.665,2.968 -18.224,1.636 -25.747,-3.587c-7.524,-5.222 -12.114,-13.712 -12.363,-22.867l-4.594,-168.72Z" style="fill:#2d558a;"/><path d="M0,880.654l0,-24.852l138.971,53.11l-0.67,24.596l-138.301,-52.854Zm1250,0l-138.301,52.854l-0.67,-24.596l138.971,-53.11l0,24.852Z" style="fill:#cacaca;"/><path d="M625,540.06l-365.529,4.278c-72.253,0.845 -130.932,58.62 -132.898,130.852l-11.34,358.239c-0.249,9.155 -4.839,17.645 -12.363,22.868c-7.523,5.222 -17.082,6.554 -25.747,3.586l-77.123,-26.414l0,-694.386c0,-83.661 67.922,-151.583 151.583,-151.583l946.834,-0c83.661,-0 151.583,67.922 151.583,151.583l-0,694.386l-77.123,26.414c-8.665,2.968 -18.224,1.636 -25.747,-3.586c-7.524,-5.223 -12.114,-13.713 -12.363,-22.868l-11.34,-358.239c-1.966,-72.232 -60.645,-130.007 -132.898,-130.852l-365.529,-4.278Z" style="fill:#787878;"/><path d="M118.833,901.216l-3.6,132.213c-0.249,9.155 -4.839,17.645 -12.363,22.868c-7.523,5.222 -17.082,6.554 -25.747,3.586l-77.123,-26.414l0,-177.667l118.833,45.414Zm1012.33,-0l118.833,-45.414l-0,177.667l-77.123,26.414c-8.665,2.968 -18.224,1.636 -25.747,-3.586c-7.524,-5.223 -12.114,-13.713 -12.363,-22.868l-3.6,-132.213Z" style="fill:#5777af;"/><path d="M0,880.654l0,-24.852l118.833,45.414l-0.67,24.596l-118.163,-45.158Zm1250,0l-118.163,45.158l-0.67,-24.596l118.833,-45.414l0,24.852Z" style="fill:#fff;"/></g><g><path d="M1020.24,390.185c69.845,-0 126.55,56.705 126.55,126.55l0,84.119c0,54.965 -32.356,104.778 -82.572,127.124l-315.172,140.252c-39.481,17.569 -81.762,26.354 -124.042,26.354c-42.28,-0 -84.561,-8.785 -124.042,-26.354l-315.172,-140.252c-50.216,-22.346 -82.572,-72.159 -82.572,-127.124l-0,-84.119c-0,-69.845 56.705,-126.55 126.55,-126.55l790.472,-0Zm-764.346,154.346c-25.283,1.6 -44.511,23.425 -42.912,48.709c1.6,25.283 23.426,44.511 48.709,42.911c25.283,-1.6 44.511,-23.425 42.912,-48.709c-1.6,-25.283 -23.426,-44.511 -48.709,-42.911Zm182.043,-96.836c-25.283,1.599 -44.511,23.425 -42.911,48.708c1.6,25.284 23.425,44.512 48.708,42.912c25.284,-1.6 44.512,-23.425 42.912,-48.709c-1.6,-25.283 -23.425,-44.511 -48.709,-42.911Zm16.414,226.603c-25.284,1.6 -44.512,23.426 -42.912,48.709c1.6,25.283 23.426,44.511 48.709,42.912c25.283,-1.6 44.511,-23.426 42.911,-48.709c-1.599,-25.283 -23.425,-44.511 -48.708,-42.912Zm341.306,0c-25.283,-1.599 -47.109,17.629 -48.708,42.912c-1.6,25.283 17.628,47.109 42.911,48.709c25.283,1.599 47.109,-17.629 48.709,-42.912c1.6,-25.283 -17.628,-47.109 -42.912,-48.709Zm16.414,-226.603c-25.284,-1.6 -47.109,17.628 -48.709,42.911c-1.6,25.284 17.628,47.109 42.912,48.709c25.283,1.6 47.108,-17.628 48.708,-42.912c1.6,-25.283 -17.628,-47.109 -42.911,-48.708Zm182.043,96.836c-25.283,-1.6 -47.109,17.628 -48.709,42.911c-1.599,25.284 17.629,47.109 42.912,48.709c25.283,1.6 47.109,-17.628 48.709,-42.911c1.599,-25.284 -17.629,-47.109 -42.912,-48.709Z" style="fill:#5d5d5d;"/><path d="M502.058,730.09c-4.804,-21.7 -24.843,-37.291 -47.711,-35.844c-20.854,1.319 -37.588,16.398 -41.914,35.828c-0.508,-2.292 -0.845,-4.652 -0.998,-7.067c-1.6,-25.283 17.628,-47.109 42.912,-48.709c25.283,-1.599 47.109,17.629 48.708,42.912c0.281,4.43 -0.078,8.753 -0.997,12.88Zm-198.457,-129.767c-4.804,-21.7 -24.843,-37.292 -47.711,-35.845c-20.854,1.32 -37.588,16.399 -41.914,35.829c-0.507,-2.292 -0.845,-4.652 -0.998,-7.067c-1.599,-25.284 17.629,-47.109 42.912,-48.709c25.283,-1.6 47.109,17.628 48.709,42.911c0.28,4.43 -0.079,8.753 -0.998,12.881Zm182.043,-96.836c-4.803,-21.7 -24.843,-37.292 -47.711,-35.845c-20.853,1.32 -37.588,16.399 -41.914,35.829c-0.507,-2.292 -0.844,-4.652 -0.997,-7.068c-1.6,-25.283 17.628,-47.109 42.911,-48.708c25.284,-1.6 47.109,17.628 48.709,42.911c0.28,4.43 -0.079,8.753 -0.998,12.881Zm262.298,226.603c-0.919,-4.127 -1.278,-8.45 -0.997,-12.88c1.599,-25.283 23.425,-44.511 48.708,-42.912c25.284,1.6 44.512,23.426 42.912,48.709c-0.153,2.415 -0.49,4.775 -0.998,7.067c-4.326,-19.43 -21.06,-34.509 -41.914,-35.828c-22.868,-1.447 -42.907,14.144 -47.711,35.844Zm198.457,-129.767c-0.919,-4.128 -1.278,-8.451 -0.998,-12.881c1.6,-25.283 23.426,-44.511 48.709,-42.911c25.283,1.6 44.511,23.425 42.912,48.709c-0.153,2.415 -0.491,4.775 -0.998,7.067c-4.326,-19.43 -21.06,-34.509 -41.914,-35.829c-22.868,-1.447 -42.907,14.145 -47.711,35.845Zm-182.043,-96.836c-0.919,-4.128 -1.278,-8.451 -0.998,-12.881c1.6,-25.283 23.425,-44.511 48.709,-42.911c25.283,1.599 44.511,23.425 42.911,48.708c-0.153,2.416 -0.49,4.776 -0.997,7.068c-4.326,-19.43 -21.061,-34.509 -41.914,-35.829c-22.868,-1.447 -42.908,14.145 -47.711,35.845Z" style="fill:#434343;"/><path d="M625,861.189c42.28,0 84.561,-8.784 124.042,-26.353l315.172,-140.252c50.216,-22.346 82.572,-72.16 82.572,-127.124l0,33.394c0,54.965 -32.356,104.778 -82.572,127.124l-315.172,140.252c-39.481,17.569 -81.762,26.354 -124.042,26.354c-42.28,-0 -84.561,-8.785 -124.042,-26.354l-315.172,-140.252c-50.216,-22.346 -82.572,-72.159 -82.572,-127.124l-0,-33.394c-0,54.964 32.356,104.778 82.572,127.124l315.172,140.252c39.481,17.569 81.762,26.353 124.042,26.353Z" style="fill:#434343;"/><path d="M526.089,390.185l197.822,-0c0,-0 -39.409,396.322 -47.869,503.712c-0.895,11.373 -10.386,20.145 -21.793,20.145c-17.078,-0 -41.42,-0 -58.498,-0c-11.407,-0 -20.898,-8.772 -21.793,-20.145c-8.46,-107.39 -47.869,-503.712 -47.869,-503.712Z" style="fill:#434343;"/><path d="M593.771,869.411c-12.275,0 -22.486,-9.438 -23.45,-21.675c-8.322,-105.643 -44.232,-457.551 -44.232,-457.551l197.822,-0c0,-0 -35.91,351.908 -44.232,457.551c-0.964,12.237 -11.175,21.675 -23.45,21.675c-18.254,0 -44.204,0 -62.458,0Z" style="fill:#787878;"/></g><path d="M625,548.742c-176.088,-2.542 -303.558,-127.011 -346.662,-102.878c-38.399,21.498 -150.891,279.028 -227.574,448.72c-2.275,5.034 6.294,56.923 24.455,101.29c21.237,51.88 52.62,97.27 50.118,102.929c-3.297,7.458 -46.951,-37.397 -73.399,-89.37c-21.413,-42.082 -26.595,-93.626 -29.001,-88.005l80.277,-565.939l1043.57,0l80.277,565.939c-2.406,-5.621 -7.588,45.923 -29.001,88.005c-26.448,51.973 -70.102,96.828 -73.399,89.37c-2.502,-5.659 28.881,-51.049 50.118,-102.929c18.161,-44.367 26.73,-96.256 24.455,-101.29c-76.683,-169.692 -189.175,-427.222 -227.574,-448.72c-43.104,-24.133 -170.574,100.336 -346.662,102.878Z" style="fill-opacity:0.25;"/><path d="M1098.42,1243.29l-946.834,-0c-83.661,-0 -151.583,-67.923 -151.583,-151.584l0,-244.033c0,0 0.002,-315.447 0.002,-518.453c0,-259.403 423.37,-232.079 604.29,-323.863c6.44,-3.573 13.574,-5.359 20.708,-5.359c7.134,0 14.268,1.787 20.708,5.36c180.92,91.783 604.29,64.459 604.29,323.862c-0,203.006 0.002,518.453 0.002,518.453l0,244.033c0,83.661 -67.922,151.584 -151.583,151.584Zm-473.417,-753.861c-113.61,-0 -224.908,-74.576 -334.718,-99.246c-90.807,-20.401 -247.104,456.178 -247.104,456.178c-55.422,187.382 202.453,375.231 581.822,358.104c379.369,17.127 637.244,-170.722 581.822,-358.104c0,-0 -156.297,-476.579 -247.104,-456.178c-109.81,24.67 -221.108,99.246 -334.718,99.246Z" style="fill:#2d558a;"/><path d="M999.073,1223.61c85.516,-16.561 164.947,-53.405 227.99,-144.88c-11.328,107.149 -83.388,159.026 -227.99,144.88Zm-748.146,0c-144.602,14.146 -216.662,-37.731 -227.99,-144.88c63.043,91.475 142.474,128.319 227.99,144.88Z" style="fill:#2c486d;"/><path d="M625,187.5c-56.833,0 -139.078,-51.787 -207.571,-36.644c-271.691,60.067 -368.237,29.844 -417.428,343.817c0,-57.716 0.001,-115.049 0.001,-165.451c0,-259.403 423.37,-232.079 604.29,-323.863c6.44,-3.573 13.574,-5.359 20.708,-5.359c7.135,-0 14.269,1.786 20.709,5.359c180.92,91.784 604.29,64.46 604.29,323.863c-0,50.402 0.001,107.735 0.001,165.451c-49.191,-313.973 -145.737,-283.75 -417.428,-343.817c-99.518,-22.002 -150.739,36.644 -207.572,36.644Z" style="fill:#2c486d;"/><path d="M457.07,52.894c56.065,-12.966 107.49,-27.378 147.222,-47.535c6.44,-3.573 13.574,-5.359 20.708,-5.359c7.134,0 14.268,1.787 20.708,5.36c39.732,20.157 91.156,34.569 147.222,47.535l-50.302,414.745c-38.953,12.786 -78.151,21.791 -117.628,21.791c-39.477,-0 -78.675,-9.005 -117.628,-21.791l-50.302,-414.746Zm139.776,1152.48c9.307,-0.175 18.693,-0.475 28.154,-0.902c9.461,0.427 18.847,0.727 28.154,0.902l-4.6,37.923l-47.108,-0l-4.6,-37.923Z" style="fill:#bbd8ff;"/><path d="M457.07,52.894c56.065,-12.966 107.87,-26.647 147.222,-47.535c6.505,-3.453 13.574,-5.359 20.708,-5.359c7.134,0 14.203,1.906 20.709,5.36c39.351,20.889 91.156,34.568 147.221,47.534l-11.299,93.162c-67.857,2.614 -110.386,41.444 -156.631,41.444c-43.126,0 -100.884,-29.819 -156.163,-37.586l-11.767,-97.02Z" style="fill:#83b9ff;"/><path d="M0.079,323.231c1.491,-58.177 24.754,-101.592 61.88,-135.063l203.784,207.045c-15.529,8.87 -32.173,27.648 -49.11,52.729l-216.554,-124.711Zm182.695,181.901c-8.379,15.734 -16.697,32.422 -24.855,49.63l-157.917,-86.6c0,-18.84 0,-37.53 0,-55.84l182.772,92.81Z" style="fill:#bbd8ff;"/><path d="M0.079,323.231c1.491,-58.177 24.754,-101.592 61.88,-135.063l48.554,49.331c-31.198,23.201 -55.204,56.167 -74.27,106.559l-36.164,-20.827Zm-0.077,144.931l-0,-55.84l14.166,7.193c-3.592,15.765 -6.964,32.682 -10.143,50.853l-4.023,-2.206Z" style="fill:#83b9ff;"/><path d="M1249.92,323.231c-1.491,-58.177 -24.754,-101.592 -61.88,-135.063l-203.785,207.045c15.53,8.87 32.174,27.648 49.111,52.729l216.554,-124.711Zm-182.695,181.901c8.379,15.734 16.697,32.422 24.854,49.63l157.918,-86.6c-0.001,-18.84 -0.001,-37.53 -0.001,-55.84l-182.771,92.81Z" style="fill:#bbd8ff;"/><path d="M1249.92,323.231c-1.491,-58.177 -24.754,-101.592 -61.88,-135.063l-48.554,49.331c31.198,23.201 55.203,56.167 74.27,106.559l36.164,-20.827Zm0.077,144.931l-0,-55.84l-14.166,7.193c3.592,15.765 6.963,32.682 10.143,50.853l4.023,-2.206Z" style="fill:#83b9ff;"/><path d="M625,1236.14c-210.745,-4.419 -401.166,-14.242 -527.798,-120.259c-84.088,-70.399 -102.361,-142.806 -97.202,-257.964c-0,-48.233 48.692,-230.64 85.964,-320.631c27.145,-65.538 52.499,-141.007 82.761,-180.033c46.05,-59.388 99.802,-76.304 138.474,-67.616c58.523,13.148 117.615,39.106 177.041,62.265c46.605,18.163 93.275,35.104 140.76,35.104c47.485,-0 94.155,-16.941 140.76,-35.104c59.426,-23.159 118.518,-49.117 177.041,-62.265c38.672,-8.688 92.424,8.228 138.474,67.616c30.262,39.026 55.616,114.495 82.761,180.033c37.272,89.991 85.964,272.398 85.964,320.631c5.159,115.158 -13.114,187.565 -97.202,257.964c-126.632,106.017 -317.053,115.84 -527.798,120.259Zm0,-771.958c-113.61,-0 -224.908,-74.576 -334.718,-99.246c-90.807,-20.401 -255.37,491.668 -255.37,491.668c-55.422,187.382 210.719,375.232 590.088,358.104c379.369,17.128 647.577,-170.722 592.155,-358.104c-0,-0 -166.63,-512.069 -257.437,-491.668c-109.81,24.67 -221.108,99.246 -334.718,99.246Z" style="fill-opacity:0.25;"/><path d="M625,1225.9c-210.745,-4.419 -401.166,-14.243 -527.798,-120.26c-84.088,-70.398 -102.361,-142.805 -97.202,-257.964c-0,-48.232 48.692,-195.149 85.964,-285.14c27.145,-65.539 52.499,-141.007 82.761,-180.034c46.05,-59.387 99.802,-76.304 138.474,-67.615c58.523,13.148 117.615,39.105 177.041,62.265c46.605,18.162 93.275,35.103 140.76,35.103c47.485,0 94.155,-16.941 140.76,-35.103c59.426,-23.16 118.518,-49.117 177.041,-62.265c38.672,-8.689 92.424,8.228 138.474,67.615c30.262,39.027 55.616,114.495 82.761,180.034c37.272,89.991 85.964,236.908 85.964,285.14c5.159,115.159 -13.114,187.566 -97.202,257.964c-126.632,106.017 -317.053,115.841 -527.798,120.26Zm0,-736.468c-113.61,-0 -224.908,-74.576 -334.718,-99.246c-90.807,-20.401 -247.104,456.178 -247.104,456.178c-55.422,187.382 202.453,375.231 581.822,358.104c379.369,17.127 637.244,-170.722 581.822,-358.104c0,-0 -156.297,-476.579 -247.104,-456.178c-109.81,24.67 -221.108,99.246 -334.718,99.246Z" style="fill:#b8a075;"/><path d="M-0.588,897.056l40.666,-38.797c-2.019,8.954 -3.332,17.899 -3.959,26.812c-12.616,12.036 -25.377,24.209 -35.587,33.951c-0.543,-7.139 -0.911,-14.456 -1.12,-21.966Zm4.362,50.269l43.988,14.789c2.615,6.947 5.643,13.829 9.074,20.635l-49.489,-16.639c-1.381,-6.127 -2.568,-12.384 -3.573,-18.785Zm54.543,-145.14l-35.173,-62.184c2.141,-7.2 4.387,-14.542 6.718,-21.977l35.844,63.373c-2.673,7.444 -5.142,14.401 -7.389,20.788Zm-10.806,-137.603c22.446,-4.295 48.338,-9.25 67.926,-12.998c-2.531,6.172 -5.021,12.311 -7.465,18.397l-66.647,12.754c2.03,-6.051 4.096,-12.11 6.186,-18.153Zm85.586,-54.929l-30.985,-87.318c3.108,-7.877 6.21,-15.762 9.316,-23.583l31.461,88.659c-3.305,7.381 -6.571,14.806 -9.792,22.242Zm-10.617,-138.244c17.934,9.963 41.205,22.891 60.387,33.548c-2.579,4.84 -5.152,9.77 -7.716,14.779l-59.008,-32.782c2.107,-5.236 4.218,-10.425 6.337,-15.545Zm108.853,-43.684l13.649,-106.346c5.922,-2.37 11.777,-4.225 17.522,-5.598l-11.62,90.54c-6.399,5.83 -12.933,13.04 -19.551,21.404Zm49.992,-114.786l37.441,84.674c-6.906,-2.03 -13.805,-3.906 -20.699,-5.598l-33.881,-76.623c5.848,-1.307 11.576,-2.113 17.139,-2.453Zm113.318,111.572l59.332,-59.333c5.618,2.242 11.24,4.482 16.864,6.707l-59.342,59.342c-5.623,-2.255 -11.241,-4.499 -16.854,-6.716Zm140.88,-28.664l45.465,90.104c-6.863,-1.046 -13.717,-2.307 -20.564,-3.756c-17.071,-33.833 -34.645,-68.661 -47.515,-94.166c7.531,2.744 15.068,5.372 22.614,7.818Zm81.144,93.452l-0,-77.216c2.775,0.113 5.552,0.171 8.333,0.171c2.781,0 5.558,-0.058 8.333,-0.171l0,77.216c-2.776,0.087 -5.554,0.132 -8.333,0.132c-2.779,-0 -5.557,-0.045 -8.333,-0.132Zm52.345,-3.348l45.465,-90.104c7.546,-2.446 15.083,-5.074 22.614,-7.818c-12.87,25.505 -30.444,60.333 -47.515,94.166c-6.847,1.449 -13.701,2.71 -20.564,3.756Zm127.013,-120.773l59.332,59.333c-5.613,2.217 -11.231,4.461 -16.854,6.716l-59.342,-59.342c5.624,-2.225 11.246,-4.465 16.864,-6.707Zm135.209,32.435l37.441,-84.674c5.563,0.34 11.291,1.146 17.139,2.453l-33.881,76.623c-6.894,1.692 -13.793,3.568 -20.699,5.598Zm73.784,-76.234l13.649,106.346c-6.618,-8.364 -13.152,-15.574 -19.551,-21.404l-11.62,-90.54c5.745,1.373 11.6,3.228 17.522,5.598Zm62.115,183.578c19.182,-10.657 42.453,-23.585 60.387,-33.548c2.119,5.12 4.23,10.309 6.337,15.545l-59.008,32.782c-2.564,-5.009 -5.137,-9.939 -7.716,-14.779Zm80.755,17.378l-30.985,87.318c-3.221,-7.436 -6.487,-14.861 -9.792,-22.242l31.461,-88.659c3.106,7.821 6.208,15.706 9.316,23.583Zm-13.325,129.249c19.588,3.748 45.48,8.703 67.926,12.998c2.09,6.043 4.156,12.102 6.186,18.153l-66.647,-12.754c-2.444,-6.086 -4.934,-12.225 -7.465,-18.397Zm92.293,88.417l-35.173,62.184c-2.247,-6.387 -4.716,-13.344 -7.389,-20.788l35.844,-63.373c2.331,7.435 4.577,14.777 6.718,21.977Zm-16.934,118.258l40.666,38.797c-0.209,7.51 -0.577,14.827 -1.12,21.966c-10.21,-9.742 -22.971,-21.915 -35.587,-33.951c-0.627,-8.913 -1.94,-17.858 -3.959,-26.812Zm32.731,107.851l-49.489,16.639c3.431,-6.806 6.459,-13.688 9.074,-20.635l43.988,-14.789c-1.005,6.401 -2.192,12.658 -3.573,18.785Zm-94,78.807l13.723,52.441c-3.094,2.765 -6.285,5.525 -9.578,8.281c-1.495,1.252 -2.998,2.49 -4.511,3.715l-13.302,-50.834c4.754,-4.468 9.312,-9.004 13.668,-13.603Zm-41.97,93.597l-65.465,-14.231c7.505,-3.986 14.797,-8.089 21.87,-12.302l63.317,13.765c-6.437,4.457 -13.013,8.71 -19.722,12.768Zm-140.321,18.934l-13.511,39.875c-6.26,1.403 -12.578,2.733 -18.952,3.996l12.51,-36.918c6.757,-2.239 13.409,-4.558 19.953,-6.953Zm-101.024,54.746l-30.852,-20.052c8.01,-1.385 15.922,-2.87 23.734,-4.452l32.417,21.069c-8.353,1.237 -16.787,2.379 -25.299,3.435Zm-99.062,-10.979c-4.342,6.55 -8.95,13.501 -13.555,20.448c-6.853,0.36 -13.739,0.692 -20.659,0.999c4.188,-6.318 8.621,-13.005 13.046,-19.68c7.116,-0.514 14.172,-1.104 21.168,-1.767Zm-101.975,23.769l-13.278,-19.657c6.798,0.142 13.553,0.217 20.266,0.228l12.749,18.874c-6.555,0.198 -13.135,0.382 -19.737,0.555Zm-30.968,-20.173l0,20.91c-2.774,0.06 -5.552,0.12 -8.333,0.178c-2.781,-0.058 -5.559,-0.118 -8.333,-0.178l-0,-20.91c2.771,-0.103 5.549,-0.218 8.333,-0.344c2.784,0.126 5.562,0.241 8.333,0.344Zm-34.356,0.516l-13.278,19.657c-6.602,-0.173 -13.182,-0.357 -19.737,-0.555l12.749,-18.874c6.713,-0.011 13.468,-0.086 20.266,-0.228Zm-101.698,16.336c-4.605,-6.947 -9.213,-13.898 -13.555,-20.448c6.996,0.663 14.052,1.253 21.168,1.767c4.425,6.675 8.858,13.362 13.046,19.68c-6.92,-0.307 -13.806,-0.639 -20.659,-0.999Zm-81.765,-29.521l-30.852,20.052c-8.512,-1.056 -16.946,-2.198 -25.299,-3.435l32.417,-21.069c7.812,1.582 15.724,3.067 23.734,4.452Zm-118.365,5.181l-13.511,-39.875c6.544,2.395 13.196,4.714 19.953,6.953l12.51,36.918c-6.374,-1.263 -12.692,-2.593 -18.952,-3.996Zm-88.367,-73.04l-65.465,14.231c-6.709,-4.058 -13.285,-8.311 -19.722,-12.768l63.317,-13.765c7.073,4.213 14.365,8.316 21.87,12.302Zm-121.158,-26.925l13.723,-52.441c4.356,4.599 8.914,9.135 13.668,13.603l-13.302,50.834c-1.513,-1.225 -3.016,-2.463 -4.511,-3.715c-3.293,-2.756 -6.484,-5.516 -9.578,-8.281Z" style="fill:#fff;"/></g></g></svg>