<?xml version="1.0" encoding="UTF-8" standalone="no"?><!DOCTYPE svg PUBLIC "-//W3C//DTD SVG 1.1//EN" "http://www.w3.org/Graphics/SVG/1.1/DTD/svg11.dtd"><svg width="100%" height="100%" viewBox="0 0 1250 1438" version="1.1" xmlns="http://www.w3.org/2000/svg" xmlns:xlink="http://www.w3.org/1999/xlink" xml:space="preserve" xmlns:serif="http://www.serif.com/" style="fill-rule:evenodd;clip-rule:evenodd;stroke-linejoin:round;stroke-miterlimit:2;"><g id="Mermaid"><g id="HatMermaid"><path d="M55.45,444.292c1.779,-3.481 6.05,-4.863 9.531,-3.083c3.481,1.779 4.862,6.049 3.083,9.53c-11.223,21.959 -16.776,46.553 -13.664,71.298c3.495,27.793 15.24,53.467 17.135,81.624c0.806,11.969 -1.471,22.61 -4.481,33.107c-2.713,9.462 -6.052,18.796 -7.7,29.107c-0.617,3.86 -4.252,6.493 -8.112,5.876c-3.861,-0.617 -6.494,-4.252 -5.877,-8.113c1.742,-10.895 5.204,-20.776 8.071,-30.774c2.57,-8.964 4.652,-18.031 3.964,-28.251c-1.877,-27.882 -13.595,-53.287 -17.056,-80.808c-3.47,-27.588 2.593,-55.031 15.106,-79.513Z" style="fill:#41947d;"/><path d="M944.973,383.977c-0.911,-3.802 1.436,-7.628 5.238,-8.539c3.802,-0.911 7.628,1.437 8.539,5.238c2.708,11.306 4.953,23.217 9.67,33.89c6.404,14.49 15.738,27.265 20.946,42.308c1.279,3.694 -0.682,7.731 -4.376,9.011c-3.694,1.279 -7.732,-0.682 -9.011,-4.376c-5.079,-14.671 -14.271,-27.085 -20.516,-41.216c-5.06,-11.448 -7.585,-24.19 -10.49,-36.316Z" style="fill:#41947d;"/><path d="M763.247,470.72c3.677,1.329 5.583,5.393 4.254,9.07c-1.329,3.676 -5.393,5.582 -9.069,4.254c-3.895,-1.408 -7.522,-3.374 -10.868,-5.817c-8.923,-6.516 -12.426,-16.015 -12.553,-26.201c-0.112,-8.926 2.473,-18.381 5.729,-26.138c1.837,-4.375 4.115,-8.563 5.641,-13.065c2.219,-6.547 3.726,-13.343 5.466,-20.025c0.985,-3.784 4.856,-6.056 8.639,-5.071c3.784,0.985 6.056,4.856 5.071,8.64c-1.825,7.011 -3.431,14.135 -5.759,21.004c-1.633,4.818 -4.03,9.319 -5.995,14.001c-2.555,6.086 -4.714,13.474 -4.627,20.477c0.072,5.745 1.709,11.261 6.742,14.936c2.258,1.649 4.701,2.985 7.329,3.935Z" style="fill:#41947d;"/><path d="M792.32,500.894c-2.456,-3.042 -1.981,-7.505 1.06,-9.961c3.042,-2.456 7.505,-1.981 9.961,1.061c2.839,3.515 5.508,7.209 9.032,10.09c4.141,3.385 9.256,5.298 14.145,7.312c8.145,3.355 16.374,6.375 25.197,7.25c16.921,1.678 33.838,-5.548 44.506,-18.781c6.949,-8.621 12.635,-18.619 19.61,-26.957c8.02,-9.586 17.627,-17.1 31.576,-19.358c3.86,-0.625 7.5,2.001 8.125,5.86c0.625,3.859 -2.001,7.5 -5.86,8.124c-10.225,1.656 -17.097,7.438 -22.975,14.464c-6.921,8.274 -12.551,18.204 -19.447,26.758c-13.643,16.924 -35.293,26.134 -56.933,23.988c-10.209,-1.013 -19.77,-4.367 -29.195,-8.25c-6.164,-2.539 -12.494,-5.174 -17.714,-9.441c-4.283,-3.501 -7.639,-7.888 -11.088,-12.159Z" style="fill:#41947d;"/><g><circle cx="54.017" cy="653.742" r="27.427" style="fill:#ded8e0;"/><circle cx="57.623" cy="649.681" r="20.784" style="fill:#eaeaea;"/><path d="M59.639,633.446c4.687,-2.382 11.184,0.979 14.5,7.502c3.315,6.523 2.202,13.753 -2.485,16.136c-4.687,2.382 -11.184,-0.979 -14.5,-7.502c-3.316,-6.523 -2.202,-13.753 2.485,-16.136Z" style="fill:#fff;"/></g><g><path d="M323.254,573.368c-2.318,1.541 -5.309,1.639 -7.724,0.254c-2.415,-1.385 -3.84,-4.016 -3.681,-6.795l1.426,-24.933l30.781,17.655l-20.802,13.819Zm51.443,-13.94l-24.933,-1.426l17.655,-30.781l13.82,20.801c1.54,2.319 1.638,5.31 0.253,7.725c-1.385,2.414 -4.016,3.84 -6.795,3.681Z" style="fill:#e5dcd7;"/><path d="M342.172,558.469l1.884,1.08l-20.802,13.819c-2.318,1.541 -5.309,1.639 -7.724,0.254c-2.415,-1.385 -3.84,-4.016 -3.681,-6.795l1.426,-24.933l1.786,1.025l-1.156,20.21c-0.159,2.78 1.266,5.411 3.681,6.796c2.415,1.385 5.406,1.287 7.725,-0.254l16.861,-11.202Zm8.673,-2.35l20.21,1.156c2.78,0.158 5.41,-1.267 6.796,-3.682c1.385,-2.415 1.287,-5.405 -0.254,-7.724l-11.202,-16.862l1.024,-1.786l13.82,20.801c1.54,2.319 1.638,5.31 0.253,7.725c-1.385,2.414 -4.016,3.84 -6.795,3.681l-24.933,-1.426l1.081,-1.883Z" style="fill:#d2c5bd;"/><path d="M348.282,563.837c-7.64,2.072 -16.353,0.181 -26.425,-5.596c-31.331,-17.97 -66.688,-24.766 -101.601,-32.334c-7.454,-1.615 -14.554,-4.183 -15.629,-11.733c-0.452,-3.178 0.217,-6.258 1.706,-8.84c1.489,-2.582 2.141,-7.54 -0.525,-9.661c-2.666,-2.122 -4.558,-5.226 -5.076,-8.862c-0.928,-6.519 2.865,-12.631 8.779,-14.87c1.713,-0.649 3.277,-2.882 1.486,-5.435c-1.209,-1.724 -2.042,-3.751 -2.358,-5.977c-0.933,-6.554 2.731,-13.241 8.874,-14.906c2.843,-0.77 4.867,-4.856 4.097,-7.699c-0.178,-0.656 -0.343,-1.324 -0.441,-2.016c-1.075,-7.551 4.183,-14.554 11.734,-15.629c3.972,-0.565 6.206,-4.362 6.32,-7.603c0.232,-6.562 5.139,-12.224 11.865,-13.181c1.796,-0.256 3.561,-0.153 5.223,0.253c3.125,0.765 6.669,-2.101 7.128,-3.836c1.38,-5.205 5.753,-9.346 11.416,-10.152c2.443,-0.348 4.829,-0.033 6.975,0.809c2.698,1.057 6.714,-0.649 8.022,-3.133c1.611,-3.056 4.345,-5.478 7.736,-6.641l0.006,-0.001l0.005,-0.002c3.514,-0.708 7.097,0.001 10.031,1.827c2.383,1.483 6.711,0.928 8.506,-1.347c1.427,-1.81 3.328,-3.287 5.612,-4.22c5.296,-2.164 11.161,-0.798 14.98,2.999c1.273,1.266 5.779,1.95 8.09,-0.288c1.229,-1.19 2.701,-2.17 4.38,-2.856c6.29,-2.57 13.383,-0.16 16.897,5.387c1.735,2.74 5.58,4.889 9.295,3.372c7.06,-2.885 15.134,0.505 18.019,7.565c0.264,0.648 0.46,1.308 0.637,1.963c0.771,2.843 4.581,5.348 7.424,4.578c6.143,-1.665 12.682,2.257 15.186,8.386c0.851,2.081 1.156,4.251 0.982,6.349c-0.257,3.108 2.221,4.246 4.027,3.941c6.235,-1.053 12.595,2.307 15.086,8.403c1.389,3.4 1.323,7.035 0.093,10.212c-1.23,3.177 1.836,7.127 4.425,8.604c2.589,1.477 4.722,3.798 5.936,6.769c2.884,7.061 -1.948,12.861 -7.566,18.019c-26.315,24.161 -53.404,47.879 -71.374,79.209c-5.777,10.073 -12.343,16.105 -19.983,18.173Z" style="fill:#cbbeb6;"/><path d="M348.282,563.837c-7.64,2.072 -16.353,0.181 -26.425,-5.596c-29.894,-17.146 -63.454,-24.119 -96.796,-31.296c1.224,-2.696 1.572,-7.031 -0.874,-8.978c-2.666,-2.122 -4.559,-5.226 -5.076,-8.862c-0.928,-6.52 2.865,-12.631 8.779,-14.87c1.712,-0.649 3.276,-2.883 1.486,-5.435c-1.21,-1.724 -2.042,-3.751 -2.359,-5.977c-0.933,-6.554 2.732,-13.241 8.874,-14.906c2.843,-0.77 4.868,-4.857 4.097,-7.7c-0.177,-0.655 -0.342,-1.323 -0.441,-2.015c-1.074,-7.551 4.183,-14.554 11.734,-15.629c3.973,-0.565 6.206,-4.362 6.321,-7.603c0.232,-6.563 5.138,-12.224 11.864,-13.181c1.797,-0.256 3.562,-0.153 5.223,0.253c3.125,0.765 6.669,-2.101 7.129,-3.836c1.379,-5.206 5.752,-9.346 11.416,-10.152c2.443,-0.348 4.829,-0.033 6.975,0.809c1.755,0.688 4.069,0.206 5.832,-0.899c2.079,0.063 4.32,-0.689 5.487,-2.169c1.428,-1.81 3.328,-3.287 5.613,-4.22c5.295,-2.164 11.161,-0.798 14.979,2.999c1.273,1.266 5.779,1.95 8.091,-0.288c1.229,-1.19 2.7,-2.17 4.38,-2.856c6.289,-2.569 13.383,-0.16 16.896,5.387c1.736,2.74 5.581,4.889 9.295,3.372c7.06,-2.885 15.135,0.505 18.019,7.565c0.265,0.648 0.46,1.308 0.638,1.963c0.77,2.843 4.581,5.348 7.424,4.578c6.142,-1.665 12.682,2.257 15.186,8.386c0.85,2.081 1.155,4.251 0.982,6.349c-0.257,3.108 2.221,4.246 4.027,3.941c6.235,-1.053 12.594,2.307 15.085,8.403c1.389,3.4 1.324,7.035 0.094,10.212c-1.129,2.916 1.36,6.482 3.778,8.191c-25.156,23.03 -50.604,45.994 -67.75,75.887c-5.777,10.073 -12.343,16.105 -19.983,18.173Z" style="fill:#d6ccc6;"/><path d="M348.282,563.837c-7.64,2.072 -16.353,0.181 -26.425,-5.596c-24.827,-14.24 -52.182,-21.463 -79.841,-27.614c-0.189,-0.638 -0.333,-1.298 -0.43,-1.977c-0.928,-6.519 2.865,-12.631 8.779,-14.87c1.713,-0.649 3.277,-2.882 1.486,-5.435c-1.209,-1.724 -2.042,-3.751 -2.358,-5.977c-0.933,-6.554 2.731,-13.241 8.874,-14.906c2.843,-0.77 4.867,-4.856 4.097,-7.699c-0.178,-0.656 -0.343,-1.324 -0.441,-2.016c-1.075,-7.551 4.183,-14.554 11.733,-15.629c3.973,-0.565 6.207,-4.362 6.321,-7.603c0.232,-6.562 5.138,-12.224 11.865,-13.181c1.796,-0.256 3.561,-0.153 5.223,0.253c3.125,0.765 6.668,-2.101 7.128,-3.836c1.031,-3.89 3.734,-7.186 7.397,-8.939c4.048,-0.336 8.045,1.144 10.899,3.981c1.273,1.266 5.779,1.95 8.09,-0.288c1.229,-1.19 2.701,-2.17 4.38,-2.856c6.29,-2.57 13.383,-0.16 16.897,5.387c1.735,2.74 5.58,4.889 9.295,3.372c7.06,-2.885 15.134,0.505 18.019,7.565c0.264,0.648 0.46,1.308 0.637,1.963c0.771,2.843 4.581,5.348 7.424,4.578c6.143,-1.665 12.682,2.257 15.186,8.385c0.851,2.082 1.156,4.251 0.982,6.35c-0.257,3.107 2.221,4.246 4.027,3.941c6.235,-1.053 12.595,2.307 15.086,8.403c0.259,0.635 0.468,1.277 0.627,1.924c-20.769,19.274 -40.734,39.321 -54.974,64.147c-5.777,10.073 -12.343,16.105 -19.983,18.173Z" style="fill:#e5dcd7;"/><path d="M348.282,563.837c-7.64,2.072 -16.353,0.181 -26.425,-5.596c-14.021,-8.042 -28.848,-13.846 -44.08,-18.483c-0.085,-0.565 -0.322,-1.167 -0.758,-1.788c-1.209,-1.724 -2.042,-3.751 -2.358,-5.977c-0.933,-6.555 2.731,-13.241 8.874,-14.906c2.843,-0.771 4.867,-4.857 4.097,-7.7c-0.178,-0.655 -0.343,-1.324 -0.441,-2.016c-1.075,-7.551 4.183,-14.554 11.733,-15.628c3.973,-0.566 6.206,-4.362 6.321,-7.604c0.232,-6.562 5.138,-12.223 11.865,-13.181c1.796,-0.255 3.561,-0.153 5.223,0.254c0.291,0.071 0.585,0.111 0.881,0.123c0.249,-0.16 0.483,-0.343 0.699,-0.551c1.229,-1.19 2.7,-2.17 4.38,-2.856c6.289,-2.57 13.383,-0.161 16.896,5.387c1.736,2.739 5.581,4.889 9.295,3.371c7.06,-2.885 15.135,0.505 18.019,7.566c0.265,0.647 0.46,1.307 0.638,1.962c0.77,2.843 4.581,5.349 7.424,4.578c6.142,-1.664 12.682,2.257 15.186,8.386c0.85,2.081 1.155,4.251 0.982,6.35c-0.063,0.756 0.037,1.396 0.249,1.926c-10.807,11.694 -20.675,24.19 -28.717,38.21c-5.777,10.073 -12.343,16.105 -19.983,18.173Z" style="fill:#efe7e3;"/><path d="M215.197,474.464c1.45,-2.287 1.961,-4.628 1.693,-7.013c43.319,21.142 71.321,55.479 109.038,87.16c-39.524,-26.555 -66.367,-61.24 -110.731,-80.147Zm9.88,-23.616c2.429,-1.828 3.476,-4.206 3.378,-7.04c37.529,24.477 71.776,81.939 105.775,112.571c-35.563,-27.75 -71.357,-82.477 -109.153,-105.531Zm13.876,-24.473c2.863,-1.992 4.538,-4.595 5.015,-7.068c30.055,29.741 65.513,105.341 94.503,137.759c-31.24,-30.498 -69.491,-104.67 -99.518,-130.691Zm20.938,-20.263c2.24,0.013 4.514,-0.567 6.951,-3.998l74.692,155.161l-81.643,-151.163Zm24.595,-13.008c2.609,-0.409 5.245,-1.295 7.952,-3.424l50.871,167.114l-58.823,-163.69Zm28.511,155.92c-41.487,-19.411 -54.776,-28.462 -97.569,-40.159c1.213,-2.609 1.104,-5.744 -0.211,-9.358c43.139,15.596 56.61,26.621 97.78,49.517Zm105.035,-129.527c-28.748,38.72 -34.406,82.212 -55.113,125.09c16.56,-46.39 23.393,-90.167 50.109,-130.289c0.974,2.195 2.597,3.957 5.004,5.199Zm-20.453,-15.396c-20.984,38.982 -24.249,104.295 -40.934,146.203c13.88,-43.607 14.428,-110.498 34.464,-150.574c1.346,2.496 3.45,4.02 6.47,4.371Zm-24.335,-14.119c-12.779,37.622 -8.347,120.958 -19.913,163.057c8.655,-42.619 1.09,-125.779 12.017,-166.625c1.66,1.893 4.42,3.295 7.896,3.568Zm-28.303,-6.918l5.851,171.702l-13.87,-171.643c3.836,1.731 6.092,1.083 8.019,-0.059Zm-27.798,1.19l31.875,170.993l-40.468,-169.933c3.412,0.47 6.135,-0.096 8.593,-1.06Zm54.116,148.981c23.976,-40.55 30.038,-56.869 59.399,-92.112c0.691,3.784 2.179,6.545 4.543,8.184c-31.032,31.703 -37.932,46.226 -63.942,83.928Z" style="fill:#785656;fill-opacity:0.17;"/></g><path d="M340.839,566.85c0.944,2.593 -0.395,5.464 -2.988,6.408c-2.594,0.944 -5.465,-0.395 -6.409,-2.988c-15.23,-41.848 -11.148,-82.632 -2.565,-125.043c2.696,-13.318 5.274,-26.625 7.05,-40.1c1.296,-9.833 2.764,-20.321 0.257,-30.107c-0.685,-2.673 0.929,-5.4 3.602,-6.085c2.674,-0.685 5.4,0.93 6.085,3.603c2.823,11.017 1.429,22.825 -0.03,33.895c-1.806,13.703 -4.422,27.236 -7.162,40.778c-8.212,40.576 -12.411,79.601 2.16,119.639Z" style="fill:#41947d;"/><path d="M231.382,420.254c-2.395,-1.371 -3.227,-4.428 -1.856,-6.823c1.371,-2.395 4.428,-3.227 6.823,-1.856c6.97,3.988 29.36,23.288 34.134,27.608c19.302,17.465 35.462,38.227 54.318,56.178c11.376,10.829 23.956,20.925 37.734,28.525c5.674,3.131 11.718,4.776 17.515,7.474c2.501,1.165 3.587,4.141 2.422,6.643c-1.164,2.502 -4.141,3.588 -6.643,2.423c-6.004,-2.795 -12.246,-4.541 -18.125,-7.784c-14.522,-8.011 -27.806,-18.623 -39.798,-30.039c-18.795,-17.893 -34.893,-38.596 -54.132,-56.005c-4.541,-4.108 -25.763,-22.551 -32.392,-26.344Z" style="fill:#41947d;"/><path d="M44.376,618.368c2.419,-3.071 6.877,-3.6 9.948,-1.181c3.071,2.418 3.601,6.876 1.182,9.947c-0.952,1.209 -1.133,3.626 -1.418,6.214c-0.6,5.445 -0.37,11.746 0.271,14.938c2.37,11.804 9.198,18.457 17.774,23.278c3.408,1.916 4.62,6.238 2.704,9.645c-1.915,3.408 -6.237,4.62 -9.645,2.704c-12.037,-6.765 -21.396,-16.272 -24.723,-32.837c-0.969,-4.828 -1.335,-15.137 0.037,-22.773c0.766,-4.259 2.181,-7.789 3.87,-9.935Z" style="fill:#41947d;"/><path d="M32.945,678.166c-3.638,1.432 -7.754,-0.358 -9.186,-3.996c-1.433,-3.637 0.358,-7.753 3.995,-9.186c5.71,-2.248 11.948,-3.505 17.469,-6.189c4.176,-2.03 8.58,-4.064 12.383,-6.76c6.06,-4.294 11.418,-10.773 14.299,-17.647c1.511,-3.606 5.665,-5.306 9.27,-3.795c3.606,1.511 5.306,5.665 3.795,9.27c-3.869,9.234 -11.034,17.963 -19.172,23.731c-4.43,3.139 -9.519,5.578 -14.381,7.942c-5.848,2.842 -12.426,4.249 -18.472,6.63Z" style="fill:#41947d;"/><path d="M264.395,486.625c21.919,3.743 59.095,8.595 56.171,8.967c-8.854,1.127 -17.829,1.985 -26.119,5.066c-21.137,7.855 -27.926,28.184 -48.832,36.222c-20.743,7.976 -45.2,1.667 -64.88,11.594c-15.11,7.623 -19.858,22.844 -32.901,32.295c-9.721,7.045 -24.395,7.009 -32.293,16.357c-3.989,4.72 -6.329,10.585 -7.407,16.256c-0.305,1.607 0.297,7.379 -0.894,8.402c-0.754,0.648 -0.787,-1.691 -1.158,-2.543c-0.681,-1.562 -1.386,-3.112 -2.02,-4.688c-2.071,-5.149 -3.381,-10.325 -3.342,-15.783c0.059,-8.152 1.44,-16.594 4.929,-24.231c4.773,-10.445 12.255,-19.375 15.897,-30.29c4.675,-14.011 11.522,-27.664 29.48,-32.495c11.44,-3.078 24.175,-2.065 35.168,-6.463c8.058,-3.225 12.215,-10.25 19.575,-14.207c17.777,-9.558 38.813,-9.008 58.626,-4.459Zm238.883,8.745c3.609,-1.278 47.212,2.594 45.6,4.69c-5.098,6.629 -9.019,14.782 -10.167,23.112c-2.392,17.354 1.021,33.211 -7.279,49.652c-9.969,19.748 -34.228,28.467 -45.958,47.292c-3.791,6.084 -4.972,12.9 -4.872,19.973c0.04,2.821 1.137,6.793 0.503,9.443c-0.165,0.692 -0.738,-1.218 -1.096,-1.834c-0.63,-1.08 -1.236,-2.169 -1.832,-3.269c-1.767,-3.262 -3.444,-6.556 -4.876,-9.981c-4.655,-11.133 -7.375,-21.892 -7.069,-34.087c0.254,-10.102 2.581,-20.326 7.587,-29.141c4.591,-8.085 12.1,-15.262 14.279,-24.548c2.704,-11.522 -6.573,-23.413 -2.678,-34.56c2.941,-8.417 9.739,-13.659 17.858,-16.742Zm164.699,-37.579c-13.035,-5.186 -9.677,-19.692 -14.587,-30.265c-2.713,-5.842 -7.85,-9.718 -11.868,-14.593c-4.522,-5.487 -7.635,-12.639 -8.845,-19.634c-1.279,-7.391 -0.29,-14.953 2.967,-21.72c0.745,-1.548 1.496,-3.135 2.439,-4.573c0.05,-0.076 0.955,-1.544 1.059,-1.526c0.152,0.026 0.575,2.401 0.627,2.602c0.837,3.255 1.786,6.479 2.971,9.626c2.845,7.553 7.531,14.616 14.403,19.026c5.236,3.36 11.234,5.561 17.328,6.727c8.591,1.643 17.014,2.041 24.38,7.398c7.267,5.286 7.077,14.241 10.52,21.889c1.094,2.43 2.348,4.791 4.141,6.776c1.025,1.135 -33.342,12.696 -45.535,18.267Zm234.34,-23.11c7,2.867 121.98,42.696 126.025,45.564c3.737,2.649 4.422,8.2 8.05,11.384c10.433,9.157 25.147,13.852 26.77,29.956c0.56,5.548 -1.001,11.204 -1.357,16.724c-1.343,20.787 15.774,28.432 27.488,42.364c4.08,4.852 6.442,10.966 7.815,17.079c2.219,9.878 1.042,21.791 -3.897,30.623c-1.874,3.351 -4.802,6.561 -8.085,8.564c-0.113,0.069 -2.705,1.55 -2.86,1.252c-1.742,-3.334 -1.222,-8.526 -2.895,-12.206c-5.005,-11.012 -13.332,-19.723 -23.049,-26.768c-10.681,-7.744 -22.699,-12.804 -34.436,-18.636c-7.731,-3.842 -15.767,-7.689 -21.497,-14.358c-4.373,-5.09 -7.368,-10.924 -8.434,-17.579c-1.683,-10.511 -0.573,-20.93 -6.59,-30.276c-6.938,-10.776 -19.47,-15.749 -31.052,-19.589c-6.945,-2.303 -14.693,-3.92 -20.294,-8.972c-9.06,-8.172 -7.334,-19.519 -11.49,-29.856c-4.227,-10.514 -11.283,-18.787 -20.212,-25.27Z" style="fill:#256c59;"/><path d="M639.076,365.529c0.014,-0.043 0.054,-0.051 0.066,-0.049c0.152,0.026 0.575,2.401 0.627,2.602c0.837,3.255 1.786,6.479 2.971,9.626c2.845,7.553 7.531,14.616 14.403,19.026c5.236,3.36 11.234,5.561 17.328,6.727c8.591,1.643 17.014,2.041 24.38,7.398c7.267,5.286 7.077,14.241 10.52,21.889c1.094,2.43 2.348,4.791 4.141,6.776c0.584,0.647 -10.321,4.678 -22.069,9.057c-0.564,-1.323 -4.606,-21.088 -10.661,-27.143c-4.415,-4.415 -9.904,-6.696 -15.16,-9.913c-3.845,-2.352 -25.77,-14.655 -27.511,-26.817c-0.501,-3.501 -1.671,-11.17 0.965,-19.179Zm-531.836,256.255c-6.663,-24.852 2.999,-47.28 13.117,-54.025c6.555,-4.37 17.038,-5.628 21.638,-12.528c4.626,-6.939 9.256,-23.428 23.536,-29.61c14.917,-6.456 44.724,-6.521 59.6,-10.249c13.348,-3.345 17.242,-22.24 45.755,-27.675c22.018,3.537 52.332,7.558 49.68,7.895c-8.854,1.127 -17.829,1.985 -26.119,5.066c-21.137,7.855 -27.926,28.184 -48.832,36.222c-20.743,7.976 -45.2,1.667 -64.88,11.594c-15.11,7.623 -19.858,22.844 -32.901,32.295c-9.721,7.045 -24.395,7.009 -32.293,16.357c-3.989,4.72 -6.329,10.585 -7.407,16.256c-0.305,1.607 0.297,7.379 -0.894,8.402Zm414.026,-125.926c13.202,1.039 28.581,2.942 27.612,4.202c-5.098,6.629 -9.019,14.782 -10.167,23.112c-2.392,17.354 1.021,33.211 -7.279,49.652c-9.969,19.748 -34.228,28.467 -45.958,47.292c-3.791,6.084 -4.972,12.9 -4.872,19.973c0.039,2.727 1.066,6.532 0.56,9.176c-0.056,-0.092 -0.133,-0.171 -0.171,-0.269c-13.519,-34.645 -6.356,-48.908 -0.217,-56.878c8.339,-10.825 21.479,-16.398 25.651,-28.915c1.747,-5.239 3.922,-13.844 1.898,-22.777c-1.235,-5.451 -3.4,-14.868 -1.898,-20.878c2.431,-9.724 7.921,-17.244 14.841,-23.69Zm462.82,-32.123c23.179,8.268 42.634,15.36 44.256,16.51c3.737,2.649 4.422,8.2 8.05,11.384c10.433,9.157 25.147,13.852 26.77,29.956c0.56,5.548 -1.001,11.204 -1.357,16.724c-1.343,20.787 15.774,28.432 27.488,42.364c4.08,4.852 6.442,10.966 7.815,17.079c2.219,9.878 1.042,21.791 -3.897,30.623c-1.874,3.351 -4.802,6.561 -8.085,8.564c-0.026,0.016 -0.187,0.109 -0.42,0.237c0.101,-0.869 0.185,-1.738 0.252,-2.605c1.642,-21.354 -8.544,-42.595 -25.055,-55.804c-5.183,-4.146 -20.153,-14.895 -24.295,-23.156c-4.757,-9.489 -1.742,-20.111 -4.935,-28.092c-5.945,-14.859 -26.028,-18.472 -36.063,-34.165c-4.716,-7.374 -9.324,-27.961 -10.524,-29.619Z" style="fill:#41947d;"/><path d="M0,422.778c265.348,84.198 578.702,99.866 827.855,-42.456c4.324,-2.47 9.662,-2.33 13.851,0.362c107.757,69.246 236.794,111.948 408.294,102.032l0,26.783c-173.926,9.822 -305.673,-32.807 -415.923,-102.003c-251.9,140.339 -566.137,126.582 -834.077,43.291l0,-28.009Z" style="fill:#407868;"/><path d="M20.439,429.098c3.949,-2.08 8.349,-2.931 12.906,-2.854c9.286,0.157 19.27,4.398 26.322,8.881c3.391,2.156 6.419,4.748 9.192,7.642c-16.285,-4.291 -32.433,-8.854 -48.42,-13.669Zm71.233,46.953c5.717,8.494 12.309,15.83 22.668,18.537c7.144,1.867 14.562,0.089 21.722,-2.744c8.146,-3.223 15.96,-7.895 22.801,-11.489c27.529,-14.459 56.598,-31.852 89.211,-28.492c22.988,2.368 43.209,15.277 59.876,30.49c0.46,0.42 0.919,0.841 1.378,1.264c-6.662,-0.491 -13.321,-1.038 -19.975,-1.639c-12.486,-9.5 -26.7,-16.885 -42.474,-18.51c-30.283,-3.12 -57.029,13.79 -82.591,27.216c-8.695,4.567 -18.913,10.699 -29.396,13.942c-7.822,2.42 -15.794,3.264 -23.502,1.25c-15.858,-4.144 -25.234,-16.338 -33.601,-29.883c-0.809,-1.311 -1.608,-2.635 -2.404,-3.962c5.415,1.37 10.844,2.71 16.287,4.02Zm252.498,36.237c7.866,4.42 16.512,7.31 26.544,7.359c14.841,0.074 27.079,-7.903 39.045,-15.797c13.339,-8.799 25.477,-19.579 38.435,-28.73c13.761,-9.718 28.429,-17.62 46.06,-20.069c23.092,-3.207 46.618,1.858 69.989,8.588c6.365,1.834 12.719,3.79 19.049,5.715c-8.497,1.641 -17.021,3.16 -25.57,4.559c-20.679,-5.811 -41.44,-10.143 -61.863,-7.306c-15.698,2.18 -28.682,9.39 -40.936,18.043c-13.057,9.221 -25.298,20.072 -38.739,28.939c-13.881,9.156 -28.313,17.81 -45.528,17.725c-19.325,-0.095 -34.399,-8.906 -48.131,-20.152c7.213,0.44 14.428,0.815 21.645,1.126Zm300.953,-29.644c11.68,1.155 23.895,1.256 34.23,-3.189c22.718,-9.773 38.913,-32.222 55.45,-49.624c25.671,-27.013 61.621,-52.774 99.628,-57.53c14.691,-1.838 27.452,4.395 38.568,13.783c9.76,8.242 18.23,18.913 25.756,27.559c-10.933,-5.62 -21.642,-11.517 -32.147,-17.669c-0.377,-0.329 -0.756,-0.655 -1.137,-0.977c-5.187,-4.381 -10.775,-8.048 -16.888,-9.949c-2.302,-1.443 -4.594,-2.898 -6.877,-4.364c-4.189,-2.692 -9.527,-2.832 -13.851,-0.362c-6.889,3.935 -13.827,7.75 -20.812,11.445c-6.747,2.811 -13.328,6.21 -19.685,10.042c-2.119,1.042 -4.243,2.073 -6.371,3.094l1.429,0c-14.618,9.49 -27.919,21.141 -39.156,32.965c-17.572,18.49 -35.158,41.919 -59.297,52.304c-16.769,7.213 -37.915,4.469 -55.33,2.19c-4.562,-0.597 -9.155,-1.415 -13.772,-2.396c10.132,-2.266 20.222,-4.705 30.262,-7.322Zm371.057,-22.842c1.285,-0.265 2.57,-0.531 3.855,-0.797c18.083,-3.73 36.222,-7.192 55.1,-2.351c19.164,4.915 35.404,18.121 51.959,30.009c13.312,9.56 26.824,18.297 42.923,19.363l0,4.279c9.554,0.37 19.244,0.569 29.076,0.593c-6.915,3.86 -14.426,6.418 -22.72,6.828c-21.438,1.061 -39.034,-9.343 -56.084,-21.586c-15.37,-11.037 -30.259,-23.622 -48.052,-28.185c-9.881,-2.534 -19.533,-2.437 -29.082,-1.252c-9.135,-2.123 -18.125,-4.426 -26.975,-6.901Zm197.994,24.238c3.258,-3.206 6.403,-6.449 9.492,-9.509c5.291,-5.242 11.658,-11.63 18.826,-15.524c5.572,-3.027 11.613,-4.613 18.021,-3.678c3.186,0.465 5.395,3.429 4.93,6.615c-0.465,3.186 -3.429,5.395 -6.614,4.93c-4.941,-0.721 -9.442,1.31 -13.564,4.093c-5.039,3.401 -9.512,8.012 -13.389,11.853c-0.262,0.26 -0.525,0.521 -0.788,0.783c-5.686,0.204 -11.323,0.35 -16.914,0.437Zm-241.473,-9.725c-1.678,-0.279 -3.361,-0.62 -5.049,-1.027c-10.571,-2.546 -20.858,-6.898 -30.619,-12.466c11.644,4.803 23.527,9.308 35.668,13.493Z" style="fill:#41947d;"/><g><path d="M858.299,291.553c3.04,-3.608 7.791,-5.295 12.425,-4.411c4.635,0.884 8.431,4.202 9.929,8.676l22.458,67.086l65.543,26.628c4.372,1.776 7.444,5.773 8.035,10.454c0.591,4.681 -1.39,9.317 -5.183,12.124l-56.863,42.09l-5.07,70.563c-0.338,4.706 -3.191,8.864 -7.46,10.872c-4.269,2.009 -9.29,1.557 -13.132,-1.182l-57.601,-41.074l-68.677,16.983c-4.58,1.133 -9.415,-0.295 -12.645,-3.735c-3.23,-3.439 -4.352,-8.354 -2.934,-12.855l21.264,-67.474l-37.374,-60.067c-2.493,-4.007 -2.629,-9.046 -0.356,-13.181c2.273,-4.135 6.601,-6.72 11.32,-6.762l70.742,-0.628l45.579,-54.107Z" style="fill:#dd331c;"/><path d="M853.935,287.877c4.369,-5.186 11.197,-7.611 17.859,-6.34c6.661,1.271 12.117,6.039 14.27,12.47l21.625,64.598l63.113,25.64c6.283,2.553 10.698,8.298 11.548,15.026c0.85,6.728 -1.998,13.391 -7.449,17.425l-54.755,40.529l-4.882,67.947c-0.486,6.764 -4.585,12.739 -10.721,15.626c-6.137,2.888 -13.353,2.238 -18.875,-1.699l-55.465,-39.551l-66.13,16.353c-6.583,1.628 -13.533,-0.424 -18.175,-5.368c-4.642,-4.943 -6.254,-12.008 -4.216,-18.476l20.476,-64.972l-35.989,-57.84c-3.583,-5.758 -3.778,-13.001 -0.511,-18.944c3.267,-5.942 9.488,-9.659 16.269,-9.719l68.12,-0.604l43.888,-52.101Zm4.364,3.676l-45.579,54.107l-70.742,0.628c-4.719,0.042 -9.047,2.627 -11.32,6.762c-2.273,4.135 -2.137,9.174 0.356,13.181l37.374,60.067l-21.264,67.474c-1.418,4.501 -0.296,9.416 2.934,12.855c3.23,3.44 8.065,4.868 12.645,3.735l68.677,-16.983l57.601,41.074c3.842,2.739 8.863,3.191 13.132,1.182c4.269,-2.008 7.122,-6.166 7.46,-10.872l5.07,-70.563l56.863,-42.09c3.793,-2.807 5.774,-7.443 5.183,-12.124c-0.591,-4.681 -3.663,-8.678 -8.035,-10.454l-65.543,-26.628l-22.458,-67.086c-1.498,-4.474 -5.294,-7.792 -9.929,-8.676c-4.634,-0.884 -9.385,0.803 -12.425,4.411Z" style="fill:#8e1100;"/><path d="M883.873,518.613c-3.085,1.452 -6.713,1.125 -9.489,-0.855l-41.624,-29.68l-49.627,12.272c-3.31,0.819 -6.804,-0.213 -9.138,-2.699l66.672,-51.019l43.206,71.981Zm70.37,-106.841c0.425,3.383 -1.01,6.731 -3.752,8.758l-41.117,30.378l-3.708,50.988c-0.248,3.4 -2.312,6.402 -5.398,7.851l-27.851,-79.198l81.826,-18.777Zm-206.015,-39.302l69.166,47.582l-55.051,63.383c-2.337,-2.484 -3.15,-6.035 -2.128,-9.287l15.323,-48.772l-27.045,-43.382c-1.804,-2.894 -1.905,-6.535 -0.265,-9.524Zm8.288,-16.584c1.645,-2.986 4.774,-4.852 8.183,-4.88l51.121,-0.412l32.967,-39.073c2.198,-2.606 5.632,-3.822 8.981,-3.18l-24.014,80.445l-77.238,-32.9Zm194.714,37.146l-83.925,2.154l7.288,-83.635c3.35,0.636 6.095,3.031 7.18,6.263l16.267,48.465l47.378,19.204c3.16,1.28 5.382,4.167 5.812,7.549Z" style="fill:#c31e08;"/><path d="M734.441,371.739c1.46,-1.302 3.488,-1.934 5.556,-1.54c3.53,0.674 5.849,4.086 5.176,7.616c-0.43,2.253 -1.976,4.012 -3.955,4.815l-6.777,-10.891Zm13.82,22.212c1.276,-2.529 4.115,-4.018 7.034,-3.461c3.53,0.673 5.849,4.085 5.175,7.615c-0.591,3.099 -3.292,5.264 -6.331,5.291l-5.878,-9.445Zm14.714,23.647c0.008,-0.05 0.017,-0.101 0.027,-0.151c0.673,-3.529 4.085,-5.848 7.615,-5.175c3.53,0.673 5.849,4.086 5.175,7.615c-0.673,3.53 -4.085,5.849 -7.615,5.176c-0.224,-0.043 -0.444,-0.097 -0.657,-0.161l-4.545,-7.304Zm3.919,13.443c0.046,0.007 0.092,0.016 0.138,0.025c3.53,0.673 5.849,4.085 5.175,7.615c-0.673,3.53 -4.086,5.849 -7.615,5.175c-0.558,-0.106 -1.085,-0.281 -1.575,-0.513l3.877,-12.302Zm-5.74,18.214c0.774,-0.144 1.587,-0.149 2.406,0.008c3.53,0.673 5.849,4.085 5.176,7.615c-0.674,3.53 -4.086,5.849 -7.616,5.175c-1.352,-0.258 -2.526,-0.917 -3.422,-1.831l3.456,-10.967Zm-5.463,17.334c1.355,-0.871 3.033,-1.245 4.739,-0.919c3.53,0.673 5.849,4.085 5.176,7.615c-0.674,3.53 -4.086,5.849 -7.616,5.175c-2.241,-0.427 -3.994,-1.959 -4.803,-3.925l2.504,-7.946Zm-8.197,36.051c1.457,-1.845 3.867,-2.837 6.335,-2.366c3.529,0.673 5.848,4.086 5.175,7.615c-0.196,1.028 -0.624,1.954 -1.22,2.732c-2.91,-0.402 -5.65,-1.782 -7.726,-3.994c-1.109,-1.18 -1.969,-2.535 -2.564,-3.987Zm17.72,7.101c0.02,-0.216 0.05,-0.432 0.091,-0.65c0.674,-3.529 4.086,-5.848 7.616,-5.175c1.82,0.347 3.319,1.423 4.251,2.868l-11.958,2.957Zm27.345,-6.762c-3.352,-0.81 -5.514,-4.124 -4.861,-7.547c0.673,-3.53 4.086,-5.849 7.615,-5.176c3.53,0.674 5.849,4.086 5.176,7.616c-0.282,1.476 -1.043,2.741 -2.091,3.663l-5.839,1.444Zm15.127,-3.741c0.676,-3.526 4.087,-5.842 7.614,-5.169c1.587,0.303 2.929,1.159 3.865,2.331l-11.479,2.838Zm38.356,4.596c1.427,-2.027 3.956,-3.146 6.547,-2.651c3.53,0.673 5.849,4.086 5.176,7.615c-0.185,0.969 -0.577,1.847 -1.12,2.597l-10.603,-7.561Zm34.751,24.78c1.4,-2.148 4.006,-3.355 6.679,-2.845c3.53,0.674 5.849,4.086 5.176,7.616c-0.178,0.932 -0.547,1.78 -1.059,2.51c-0.91,-0.375 -1.786,-0.856 -2.608,-1.442l-8.188,-5.839Zm18.954,7.868c-0.044,-0.564 -0.014,-1.142 0.097,-1.724c0.673,-3.53 4.085,-5.849 7.615,-5.176c0.246,0.047 0.486,0.108 0.72,0.18c-1.294,2.534 -3.405,4.621 -6.066,5.873c-0.768,0.362 -1.561,0.644 -2.366,0.847Zm9.788,-11.295c-0.401,-0 -0.807,-0.038 -1.215,-0.116c-3.53,-0.673 -5.849,-4.086 -5.176,-7.615c0.656,-3.434 3.903,-5.723 7.329,-5.224l-0.9,12.531c-0.01,0.142 -0.023,0.284 -0.038,0.424Zm1.274,-17.627c-3.065,-1.003 -4.984,-4.155 -4.364,-7.406c0.521,-2.732 2.683,-4.738 5.269,-5.194l-0.905,12.6Zm1.249,-17.389c-1.92,-1.446 -2.963,-3.905 -2.483,-6.425c0.379,-1.984 1.623,-3.586 3.268,-4.488l-0.785,10.913Zm1.484,-20.65c-0.56,-1.197 -0.762,-2.575 -0.495,-3.972c0.165,-0.864 0.494,-1.657 0.949,-2.35l-0.454,6.322Zm4.262,-17.661c-1.049,-1.412 -1.527,-3.242 -1.172,-5.104c0.673,-3.53 4.086,-5.849 7.616,-5.176c1.677,0.32 3.081,1.259 4.02,2.535l-10.464,7.745Zm21.305,-15.77c-0.571,-1.204 -0.779,-2.594 -0.51,-4.003c0.673,-3.53 4.086,-5.849 7.615,-5.175c1.224,0.233 2.303,0.796 3.161,1.579l-10.266,7.599Zm21.366,-15.815c-0.009,-0.449 0.028,-0.906 0.115,-1.364c0.674,-3.53 4.086,-5.849 7.616,-5.176c0.281,0.054 0.554,0.125 0.819,0.212l-8.55,6.328Zm15.195,-13.359c-1.391,2.186 -4.02,3.419 -6.717,2.905c-3.53,-0.674 -5.849,-4.086 -5.176,-7.616c0.674,-3.53 4.086,-5.849 7.616,-5.175c3.079,0.587 5.237,3.259 5.29,6.275c-0.163,1.252 -0.506,2.468 -1.013,3.611Zm-2.191,-13.983c-0.423,0.004 -0.852,-0.034 -1.283,-0.116c-2.182,-0.416 -3.902,-1.88 -4.737,-3.771l1.195,0.486c1.88,0.763 3.52,1.938 4.825,3.401Zm-13.231,-6.816c-1.352,2.316 -4.062,3.645 -6.845,3.115c-3.53,-0.674 -5.849,-4.086 -5.176,-7.616c0.023,-0.119 0.049,-0.236 0.077,-0.351l11.944,4.852Zm-17.618,-7.158c0.027,0.515 -0.006,1.04 -0.107,1.569c-0.673,3.53 -4.086,5.849 -7.616,5.175c-3.529,-0.673 -5.848,-4.086 -5.175,-7.615c0.272,-1.424 0.989,-2.651 1.98,-3.564l10.918,4.435Zm-40.416,-18.734c-0.938,0.263 -1.949,0.319 -2.971,0.124c-3.529,-0.673 -5.848,-4.086 -5.175,-7.615c0.434,-2.277 2.008,-4.05 4.018,-4.841l4.128,12.332Zm-13.253,-39.59c-0.623,0.066 -1.266,0.043 -1.913,-0.08c-3.53,-0.674 -5.849,-4.086 -5.175,-7.616c0.362,-1.896 1.514,-3.443 3.051,-4.364l4.037,12.06Zm-9.55,-27.485c-0.865,3.276 -4.136,5.372 -7.514,4.728c-3.53,-0.674 -5.849,-4.086 -5.176,-7.616c0.251,-1.315 0.883,-2.463 1.759,-3.35c0.746,0.012 1.497,0.088 2.244,0.23c3.656,0.698 6.791,2.909 8.687,6.008Zm-18.382,-4.04c-0.004,0.021 -0.008,0.043 -0.012,0.064c-0.507,2.655 -2.563,4.625 -5.054,5.152l2.336,-2.773c0.802,-0.952 1.723,-1.77 2.73,-2.443Zm-10.299,11.429c0.482,-0.019 0.975,0.017 1.469,0.111c3.53,0.674 5.849,4.086 5.176,7.616c-0.674,3.53 -4.086,5.849 -7.616,5.175c-2.825,-0.539 -4.874,-2.832 -5.235,-5.536l6.206,-7.366Zm-16.55,19.646c0.033,0.533 0.001,1.078 -0.104,1.626c-0.549,2.879 -2.92,4.953 -5.692,5.254l5.796,-6.88Zm-10.713,12.718c0.603,-0.058 1.224,-0.033 1.849,0.087c3.529,0.673 5.848,4.085 5.175,7.615c-0.673,3.53 -4.086,5.849 -7.615,5.175c-2.956,-0.564 -5.063,-3.048 -5.275,-5.914l5.866,-6.963Zm-35.926,12.981c1.173,1.44 1.727,3.369 1.352,5.335c-0.674,3.53 -4.086,5.849 -7.616,5.176c-3.53,-0.674 -5.849,-4.086 -5.175,-7.616c0.202,-1.06 0.652,-2.012 1.277,-2.805l10.162,-0.09Zm-17.336,0.154c0.03,0.523 -0.003,1.058 -0.106,1.596c-0.673,3.53 -4.086,5.849 -7.616,5.175c-3.208,-0.612 -5.416,-3.487 -5.286,-6.656l13.008,-0.115Zm-19.397,0.172c-1.361,2.289 -4.054,3.598 -6.82,3.071c-1.787,-0.341 -3.264,-1.384 -4.199,-2.789c0.716,-0.128 1.447,-0.197 2.189,-0.204l8.83,-0.078Zm86.288,134.085c3.53,0.674 5.849,4.086 5.176,7.616c-0.674,3.53 -4.086,5.849 -7.616,5.175c-3.53,-0.673 -5.849,-4.085 -5.175,-7.615c0.673,-3.53 4.086,-5.849 7.615,-5.176Zm-57.574,-10.983c3.53,0.673 5.849,4.086 5.176,7.615c-0.674,3.53 -4.086,5.849 -7.616,5.176c-3.53,-0.674 -5.849,-4.086 -5.175,-7.616c0.673,-3.53 4.086,-5.848 7.615,-5.175Zm76.368,14.569c3.53,0.673 5.849,4.086 5.175,7.615c-0.673,3.53 -4.085,5.849 -7.615,5.176c-3.53,-0.674 -5.849,-4.086 -5.176,-7.616c0.674,-3.53 4.086,-5.849 7.616,-5.175Zm-79.669,2.733c3.53,0.673 5.849,4.086 5.176,7.615c-0.674,3.53 -4.086,5.849 -7.616,5.176c-3.529,-0.674 -5.848,-4.086 -5.175,-7.616c0.673,-3.529 4.086,-5.848 7.615,-5.175Zm117.853,4.551c3.53,0.674 5.849,4.086 5.175,7.616c-0.673,3.529 -4.086,5.848 -7.615,5.175c-3.53,-0.673 -5.849,-4.086 -5.176,-7.615c0.674,-3.53 4.086,-5.849 7.616,-5.176Zm-136.944,-8.193c3.529,0.673 5.848,4.085 5.175,7.615c-0.674,3.53 -4.086,5.849 -7.616,5.176c-3.529,-0.674 -5.848,-4.086 -5.175,-7.616c0.673,-3.53 4.086,-5.849 7.616,-5.175Zm41.484,-10.018c3.53,0.673 5.849,4.086 5.175,7.616c-0.673,3.529 -4.085,5.848 -7.615,5.175c-3.53,-0.673 -5.849,-4.086 -5.175,-7.616c0.673,-3.529 4.085,-5.848 7.615,-5.175Zm19.987,3.813c3.53,0.673 5.849,4.086 5.175,7.616c-0.673,3.529 -4.085,5.848 -7.615,5.175c-3.53,-0.673 -5.849,-4.086 -5.175,-7.616c0.673,-3.529 4.085,-5.848 7.615,-5.175Zm56.381,10.756c3.53,0.673 5.849,4.086 5.175,7.616c-0.673,3.529 -4.086,5.848 -7.615,5.175c-3.53,-0.674 -5.849,-4.086 -5.176,-7.616c0.674,-3.529 4.086,-5.848 7.616,-5.175Zm-3.301,17.302c3.53,0.673 5.849,4.086 5.175,7.616c-0.673,3.529 -4.085,5.848 -7.615,5.175c-3.53,-0.673 -5.849,-4.086 -5.175,-7.616c0.673,-3.529 4.085,-5.848 7.615,-5.175Zm19.092,3.642c3.53,0.674 5.849,4.086 5.175,7.616c-0.673,3.53 -4.085,5.849 -7.615,5.175c-3.53,-0.673 -5.849,-4.086 -5.175,-7.615c0.673,-3.53 4.085,-5.849 7.615,-5.176Zm9.902,-51.906c3.53,0.674 5.849,4.086 5.176,7.616c-0.674,3.529 -4.086,5.848 -7.616,5.175c-3.529,-0.673 -5.848,-4.086 -5.175,-7.616c0.673,-3.529 4.086,-5.848 7.615,-5.175Zm-60.449,7.327c3.53,0.674 5.849,4.086 5.176,7.616c-0.674,3.53 -4.086,5.849 -7.616,5.175c-3.529,-0.673 -5.848,-4.086 -5.175,-7.615c0.673,-3.53 4.086,-5.849 7.615,-5.176Zm18.794,3.586c3.53,0.673 5.849,4.085 5.175,7.615c-0.673,3.53 -4.085,5.849 -7.615,5.175c-3.53,-0.673 -5.849,-4.085 -5.175,-7.615c0.673,-3.53 4.085,-5.849 7.615,-5.175Zm19.092,3.642c3.53,0.673 5.849,4.086 5.175,7.615c-0.673,3.53 -4.085,5.849 -7.615,5.176c-3.53,-0.674 -5.849,-4.086 -5.176,-7.616c0.674,-3.529 4.086,-5.848 7.616,-5.175Zm-76.368,-14.569c3.53,0.673 5.849,4.086 5.176,7.615c-0.674,3.53 -4.086,5.849 -7.616,5.176c-3.53,-0.674 -5.849,-4.086 -5.175,-7.616c0.673,-3.529 4.085,-5.848 7.615,-5.175Zm-19.092,-3.642c3.53,0.673 5.849,4.086 5.176,7.615c-0.674,3.53 -4.086,5.849 -7.616,5.176c-3.53,-0.674 -5.849,-4.086 -5.175,-7.616c0.673,-3.53 4.086,-5.849 7.615,-5.175Zm39.079,7.455c3.53,0.673 5.849,4.086 5.175,7.615c-0.673,3.53 -4.085,5.849 -7.615,5.176c-3.53,-0.674 -5.849,-4.086 -5.175,-7.616c0.673,-3.529 4.085,-5.848 7.615,-5.175Zm-35.607,-25.652c3.529,0.673 5.848,4.086 5.175,7.615c-0.673,3.53 -4.086,5.849 -7.615,5.176c-3.53,-0.674 -5.849,-4.086 -5.176,-7.616c0.674,-3.53 4.086,-5.849 7.616,-5.175Zm39.079,7.455c3.529,0.673 5.848,4.086 5.175,7.615c-0.673,3.53 -4.086,5.849 -7.616,5.176c-3.529,-0.674 -5.848,-4.086 -5.175,-7.616c0.673,-3.529 4.086,-5.848 7.616,-5.175Zm18.495,3.528c3.53,0.674 5.849,4.086 5.175,7.616c-0.673,3.53 -4.086,5.849 -7.615,5.175c-3.53,-0.673 -5.849,-4.086 -5.176,-7.615c0.674,-3.53 4.086,-5.849 7.616,-5.176Zm18.794,3.586c3.529,0.673 5.848,4.085 5.175,7.615c-0.674,3.53 -4.086,5.849 -7.616,5.175c-3.529,-0.673 -5.848,-4.085 -5.175,-7.615c0.673,-3.53 4.086,-5.849 7.616,-5.175Zm19.091,3.642c3.53,0.673 5.849,4.086 5.176,7.615c-0.674,3.53 -4.086,5.849 -7.616,5.176c-3.529,-0.674 -5.848,-4.086 -5.175,-7.616c0.673,-3.529 4.086,-5.848 7.615,-5.175Zm15.621,21.839c3.53,0.674 5.849,4.086 5.175,7.616c-0.673,3.529 -4.086,5.848 -7.615,5.175c-3.53,-0.673 -5.849,-4.086 -5.176,-7.616c0.674,-3.529 4.086,-5.848 7.616,-5.175Zm-91.988,-36.408c3.529,0.673 5.848,4.086 5.175,7.615c-0.673,3.53 -4.086,5.849 -7.615,5.176c-3.53,-0.674 -5.849,-4.086 -5.176,-7.616c0.674,-3.529 4.086,-5.848 7.616,-5.175Zm23.572,-14.981c3.53,0.674 5.849,4.086 5.175,7.616c-0.673,3.53 -4.086,5.849 -7.615,5.175c-3.53,-0.673 -5.849,-4.086 -5.176,-7.615c0.674,-3.53 4.086,-5.849 7.616,-5.176Zm75.473,14.399c3.529,0.673 5.848,4.085 5.175,7.615c-0.673,3.53 -4.086,5.849 -7.615,5.175c-3.53,-0.673 -5.849,-4.085 -5.176,-7.615c0.674,-3.53 4.086,-5.849 7.616,-5.175Zm-111.08,-40.051c3.529,0.674 5.848,4.086 5.175,7.616c-0.673,3.529 -4.086,5.848 -7.616,5.175c-3.529,-0.673 -5.848,-4.086 -5.175,-7.616c0.673,-3.529 4.086,-5.848 7.616,-5.175Zm15.62,21.839c3.53,0.674 5.849,4.086 5.175,7.616c-0.673,3.53 -4.085,5.849 -7.615,5.175c-3.53,-0.673 -5.849,-4.086 -5.175,-7.615c0.673,-3.53 4.085,-5.849 7.615,-5.176Zm-34.712,-25.481c3.529,0.673 5.848,4.086 5.175,7.615c-0.673,3.53 -4.086,5.849 -7.615,5.176c-3.53,-0.674 -5.849,-4.086 -5.176,-7.616c0.674,-3.529 4.086,-5.848 7.616,-5.175Zm91.988,36.408c3.53,0.673 5.849,4.086 5.175,7.616c-0.673,3.529 -4.086,5.848 -7.615,5.175c-3.53,-0.674 -5.849,-4.086 -5.176,-7.616c0.674,-3.529 4.086,-5.848 7.616,-5.175Zm-53.804,-29.124c3.529,0.674 5.848,4.086 5.175,7.616c-0.674,3.53 -4.086,5.849 -7.616,5.175c-3.529,-0.673 -5.848,-4.086 -5.175,-7.615c0.673,-3.53 4.086,-5.849 7.616,-5.176Zm38.482,7.342c3.529,0.673 5.848,4.085 5.175,7.615c-0.673,3.53 -4.086,5.849 -7.615,5.176c-3.53,-0.674 -5.849,-4.086 -5.176,-7.616c0.674,-3.53 4.086,-5.849 7.616,-5.175Zm37.885,7.227c3.53,0.674 5.849,4.086 5.176,7.616c-0.674,3.529 -4.086,5.848 -7.616,5.175c-3.53,-0.673 -5.849,-4.086 -5.175,-7.615c0.673,-3.53 4.086,-5.849 7.615,-5.176Zm19.092,3.643c3.53,0.673 5.849,4.085 5.176,7.615c-0.674,3.53 -4.086,5.849 -7.616,5.175c-3.53,-0.673 -5.849,-4.085 -5.175,-7.615c0.673,-3.53 4.085,-5.849 7.615,-5.175Zm-60.449,7.327c3.53,0.673 5.849,4.085 5.176,7.615c-0.674,3.53 -4.086,5.849 -7.616,5.176c-3.53,-0.674 -5.849,-4.086 -5.175,-7.616c0.673,-3.53 4.085,-5.849 7.615,-5.175Zm80.436,-3.515c3.53,0.674 5.849,4.086 5.175,7.616c-0.673,3.53 -4.085,5.849 -7.615,5.175c-3.53,-0.673 -5.849,-4.085 -5.175,-7.615c0.673,-3.53 4.085,-5.849 7.615,-5.176Zm-95.46,-18.211c3.53,0.674 5.849,4.086 5.176,7.616c-0.674,3.53 -4.086,5.849 -7.616,5.175c-3.529,-0.673 -5.848,-4.086 -5.175,-7.615c0.673,-3.53 4.086,-5.849 7.615,-5.176Zm-42.55,10.742c3.53,0.674 5.849,4.086 5.175,7.616c-0.673,3.529 -4.085,5.848 -7.615,5.175c-3.53,-0.673 -5.849,-4.086 -5.175,-7.616c0.673,-3.529 4.085,-5.848 7.615,-5.175Zm79.839,-3.628c3.53,0.673 5.849,4.086 5.176,7.616c-0.674,3.529 -4.086,5.848 -7.616,5.175c-3.53,-0.674 -5.849,-4.086 -5.175,-7.616c0.673,-3.529 4.086,-5.848 7.615,-5.175Zm15.621,21.839c3.529,0.674 5.848,4.086 5.175,7.616c-0.673,3.529 -4.086,5.848 -7.615,5.175c-3.53,-0.673 -5.849,-4.086 -5.176,-7.615c0.674,-3.53 4.086,-5.849 7.616,-5.176Zm-104.696,-73.517c3.53,0.673 5.849,4.085 5.176,7.615c-0.674,3.53 -4.086,5.849 -7.616,5.175c-3.53,-0.673 -5.849,-4.085 -5.175,-7.615c0.673,-3.53 4.086,-5.849 7.615,-5.175Zm-21.98,13.12c3.529,0.673 5.848,4.085 5.175,7.615c-0.673,3.53 -4.086,5.849 -7.615,5.175c-3.53,-0.673 -5.849,-4.085 -5.176,-7.615c0.674,-3.53 4.086,-5.849 7.616,-5.175Zm18.793,3.585c3.53,0.673 5.849,4.086 5.176,7.615c-0.674,3.53 -4.086,5.849 -7.616,5.176c-3.529,-0.674 -5.848,-4.086 -5.175,-7.616c0.673,-3.529 4.086,-5.848 7.615,-5.175Zm38.184,7.284c3.53,0.674 5.849,4.086 5.176,7.616c-0.674,3.53 -4.086,5.849 -7.616,5.175c-3.53,-0.673 -5.849,-4.086 -5.175,-7.615c0.673,-3.53 4.086,-5.849 7.615,-5.176Zm38.482,7.342c3.53,0.673 5.849,4.086 5.176,7.615c-0.674,3.53 -4.086,5.849 -7.616,5.176c-3.529,-0.674 -5.848,-4.086 -5.175,-7.616c0.673,-3.53 4.086,-5.849 7.615,-5.175Zm95.46,18.211c3.53,0.673 5.849,4.086 5.175,7.615c-0.673,3.53 -4.085,5.849 -7.615,5.176c-3.53,-0.674 -5.849,-4.086 -5.175,-7.616c0.673,-3.529 4.085,-5.848 7.615,-5.175Zm-206.228,-56.656c3.53,0.673 5.849,4.086 5.176,7.615c-0.674,3.53 -4.086,5.849 -7.616,5.176c-3.529,-0.674 -5.848,-4.086 -5.175,-7.616c0.673,-3.53 4.086,-5.849 7.615,-5.175Zm187.733,53.128c3.53,0.673 5.849,4.085 5.175,7.615c-0.673,3.53 -4.086,5.849 -7.615,5.175c-3.53,-0.673 -5.849,-4.085 -5.176,-7.615c0.674,-3.53 4.086,-5.849 7.616,-5.175Zm-131.352,-42.372c3.53,0.673 5.849,4.085 5.176,7.615c-0.674,3.53 -4.086,5.849 -7.616,5.176c-3.53,-0.674 -5.849,-4.086 -5.175,-7.616c0.673,-3.53 4.086,-5.849 7.615,-5.175Zm73.181,31.274c3.53,0.673 5.849,4.086 5.175,7.616c-0.673,3.529 -4.085,5.848 -7.615,5.175c-3.53,-0.673 -5.849,-4.086 -5.175,-7.616c0.673,-3.529 4.085,-5.848 7.615,-5.175Zm-15.607,-20.291c3.53,0.674 5.849,4.086 5.176,7.616c-0.674,3.53 -4.086,5.849 -7.616,5.175c-3.529,-0.673 -5.848,-4.086 -5.175,-7.615c0.673,-3.53 4.086,-5.849 7.615,-5.176Zm37.886,7.228c3.53,0.673 5.849,4.086 5.175,7.615c-0.673,3.53 -4.085,5.849 -7.615,5.176c-3.53,-0.674 -5.849,-4.086 -5.176,-7.616c0.674,-3.53 4.086,-5.848 7.616,-5.175Zm15.905,20.348c3.53,0.673 5.849,4.085 5.175,7.615c-0.673,3.53 -4.085,5.849 -7.615,5.175c-3.53,-0.673 -5.849,-4.085 -5.176,-7.615c0.674,-3.53 4.086,-5.849 7.616,-5.175Zm41.669,-9.365c3.53,0.674 5.849,4.086 5.175,7.616c-0.673,3.53 -4.085,5.849 -7.615,5.175c-3.53,-0.673 -5.849,-4.085 -5.175,-7.615c0.673,-3.53 4.085,-5.849 7.615,-5.176Zm-117.142,-5.034c3.53,0.674 5.849,4.086 5.175,7.616c-0.673,3.53 -4.085,5.849 -7.615,5.175c-3.53,-0.673 -5.849,-4.086 -5.175,-7.615c0.673,-3.53 4.085,-5.849 7.615,-5.176Zm-73.777,-31.388c3.529,0.674 5.848,4.086 5.175,7.616c-0.673,3.529 -4.086,5.848 -7.615,5.175c-3.53,-0.673 -5.849,-4.086 -5.176,-7.615c0.674,-3.53 4.086,-5.849 7.616,-5.176Zm114.253,21.797c3.53,0.673 5.849,4.085 5.175,7.615c-0.673,3.53 -4.085,5.849 -7.615,5.175c-3.53,-0.673 -5.849,-4.085 -5.175,-7.615c0.673,-3.53 4.085,-5.849 7.615,-5.175Zm38.184,7.284c3.53,0.673 5.849,4.086 5.175,7.616c-0.673,3.529 -4.086,5.848 -7.615,5.175c-3.53,-0.673 -5.849,-4.086 -5.176,-7.616c0.674,-3.529 4.086,-5.848 7.616,-5.175Zm-117.739,-5.148c3.53,0.674 5.849,4.086 5.176,7.616c-0.674,3.529 -4.086,5.848 -7.616,5.175c-3.53,-0.673 -5.849,-4.086 -5.175,-7.615c0.673,-3.53 4.086,-5.849 7.615,-5.176Zm95.46,18.211c3.53,0.674 5.849,4.086 5.175,7.616c-0.673,3.53 -4.085,5.849 -7.615,5.175c-3.53,-0.673 -5.849,-4.086 -5.175,-7.615c0.673,-3.53 4.085,-5.849 7.615,-5.176Zm-73.181,-31.274c3.53,0.673 5.849,4.086 5.176,7.615c-0.674,3.53 -4.086,5.849 -7.616,5.176c-3.53,-0.674 -5.849,-4.086 -5.175,-7.616c0.673,-3.529 4.085,-5.848 7.615,-5.175Zm19.987,3.813c3.53,0.673 5.849,4.086 5.175,7.615c-0.673,3.53 -4.085,5.849 -7.615,5.176c-3.53,-0.674 -5.849,-4.086 -5.175,-7.616c0.673,-3.529 4.085,-5.848 7.615,-5.175Zm95.46,18.211c3.529,0.673 5.848,4.086 5.175,7.616c-0.673,3.529 -4.086,5.848 -7.615,5.175c-3.53,-0.673 -5.849,-4.086 -5.176,-7.616c0.674,-3.529 4.086,-5.848 7.616,-5.175Zm-73.721,-31.686c3.53,0.673 5.849,4.085 5.176,7.615c-0.674,3.53 -4.086,5.849 -7.616,5.175c-3.53,-0.673 -5.849,-4.085 -5.175,-7.615c0.673,-3.53 4.086,-5.849 7.615,-5.175Zm-18.495,-3.529c3.53,0.674 5.849,4.086 5.175,7.616c-0.673,3.529 -4.085,5.848 -7.615,5.175c-3.53,-0.673 -5.849,-4.086 -5.176,-7.615c0.674,-3.53 4.086,-5.849 7.616,-5.176Zm37.289,7.114c3.53,0.673 5.849,4.086 5.175,7.615c-0.673,3.53 -4.086,5.849 -7.615,5.176c-3.53,-0.674 -5.849,-4.086 -5.176,-7.616c0.674,-3.529 4.086,-5.848 7.616,-5.175Zm-76.368,-14.569c3.53,0.673 5.849,4.086 5.175,7.615c-0.673,3.53 -4.085,5.849 -7.615,5.176c-3.53,-0.674 -5.849,-4.086 -5.175,-7.616c0.673,-3.529 4.085,-5.848 7.615,-5.175Zm95.46,18.211c3.53,0.673 5.849,4.086 5.175,7.616c-0.673,3.529 -4.086,5.848 -7.615,5.175c-3.53,-0.673 -5.849,-4.086 -5.176,-7.616c0.674,-3.529 4.086,-5.848 7.616,-5.175Zm-76.368,-14.569c3.53,0.674 5.849,4.086 5.175,7.616c-0.673,3.529 -4.085,5.848 -7.615,5.175c-3.53,-0.673 -5.849,-4.086 -5.175,-7.615c0.673,-3.53 4.085,-5.849 7.615,-5.176Zm41.897,-10.557c3.53,0.673 5.849,4.086 5.175,7.615c-0.673,3.53 -4.086,5.849 -7.615,5.176c-3.53,-0.674 -5.849,-4.086 -5.176,-7.616c0.674,-3.529 4.086,-5.848 7.616,-5.175Zm-18.495,-3.529c3.529,0.674 5.848,4.086 5.175,7.616c-0.674,3.53 -4.086,5.849 -7.616,5.175c-3.529,-0.673 -5.848,-4.085 -5.175,-7.615c0.673,-3.53 4.086,-5.849 7.616,-5.176Zm72.058,32.297c3.529,0.674 5.848,4.086 5.175,7.616c-0.673,3.53 -4.086,5.849 -7.615,5.175c-3.53,-0.673 -5.849,-4.086 -5.176,-7.615c0.674,-3.53 4.086,-5.849 7.616,-5.176Zm-34.77,-25.183c3.53,0.674 5.849,4.086 5.176,7.616c-0.674,3.529 -4.086,5.848 -7.616,5.175c-3.529,-0.673 -5.848,-4.086 -5.175,-7.615c0.673,-3.53 4.086,-5.849 7.615,-5.176Zm-11.896,-39.737c3.529,0.673 5.848,4.085 5.175,7.615c-0.673,3.53 -4.086,5.849 -7.615,5.176c-3.53,-0.674 -5.849,-4.086 -5.176,-7.616c0.674,-3.53 4.086,-5.849 7.616,-5.175Zm-21.807,13.83c3.53,0.673 5.849,4.086 5.175,7.615c-0.673,3.53 -4.086,5.849 -7.615,5.176c-3.53,-0.674 -5.849,-4.086 -5.176,-7.616c0.674,-3.53 4.086,-5.849 7.616,-5.175Zm37.289,7.114c3.529,0.673 5.848,4.085 5.175,7.615c-0.673,3.53 -4.086,5.849 -7.615,5.175c-3.53,-0.673 -5.849,-4.085 -5.176,-7.615c0.674,-3.53 4.086,-5.849 7.616,-5.175Zm-18.794,-3.586c3.53,0.674 5.849,4.086 5.175,7.616c-0.673,3.529 -4.085,5.848 -7.615,5.175c-3.53,-0.673 -5.849,-4.086 -5.175,-7.615c0.673,-3.53 4.085,-5.849 7.615,-5.176Z" style="fill:#6c0d00;fill-opacity:0.25;"/><path d="M870.724,287.142l-10.178,115.732l116.143,-2.888l-113.213,26.084l38.637,109.565l-59.791,-99.611l-92.264,70.603l76.259,-87.646l-95.659,-65.931l106.923,45.443l33.143,-111.351Z" style="fill:#ff563f;"/><path d="M870.724,287.142l-20.196,124.799l126.161,-11.955l-125.272,18.995l50.696,116.654l-57.116,-113.633l-94.939,84.625l90.081,-89.798l-109.481,-63.779l112.9,57.561l27.166,-123.469Z" style="fill:#ff7a68;"/></g><path d="M745.746,394.76c0.178,3.905 -2.849,7.22 -6.754,7.398c-3.905,0.177 -7.22,-2.849 -7.398,-6.754c-0.429,-9.426 3.771,-18.065 8.731,-25.788c6.205,-9.662 13.827,-18.516 21.219,-27.286c2.717,-3.223 5.903,-6.077 8.254,-9.599c2.17,-3.252 6.571,-4.131 9.823,-1.961c3.252,2.171 4.13,6.572 1.96,9.824c-2.644,3.962 -6.148,7.24 -9.204,10.866c-7,8.305 -14.256,16.661 -20.132,25.812c-3.399,5.292 -6.793,11.028 -6.499,17.488Z" style="fill:#41947d;"/><path d="M942.466,375.413c-0.71,-3.845 1.835,-7.542 5.68,-8.252c3.844,-0.709 7.542,1.836 8.251,5.68c4.313,23.367 3.499,47.418 0.538,70.858c-1.171,9.27 -1.89,18.858 -4.917,27.779c-1.257,3.702 -5.283,5.687 -8.985,4.43c-3.702,-1.256 -5.687,-5.282 -4.43,-8.984c2.722,-8.021 3.224,-16.666 4.277,-25c2.779,-22.002 3.635,-44.579 -0.414,-66.511Z" style="fill:#41947d;"/><path d="M922.489,485.394c-5.13,6.983 -9.789,14.602 -15.239,21.362c-13.643,16.924 -35.293,26.134 -56.933,23.988c-2.408,-0.239 -4.78,-0.608 -7.122,-1.084l-7.316,-16.68c5.131,1.758 10.37,3.124 15.836,3.666c16.921,1.678 33.838,-5.548 44.506,-18.781c6.949,-8.621 12.635,-18.619 19.61,-26.957c1.765,-2.109 3.606,-4.117 5.553,-5.992l1.105,20.478Z" style="fill:#41947d;"/></g></g></svg>