<?xml version="1.0" encoding="UTF-8" standalone="no"?><!DOCTYPE svg PUBLIC "-//W3C//DTD SVG 1.1//EN" "http://www.w3.org/Graphics/SVG/1.1/DTD/svg11.dtd"><svg width="100%" height="100%" viewBox="0 0 1250 1438" version="1.1" xmlns="http://www.w3.org/2000/svg" xmlns:xlink="http://www.w3.org/1999/xlink" xml:space="preserve" xmlns:serif="http://www.serif.com/" style="fill-rule:evenodd;clip-rule:evenodd;stroke-linejoin:round;stroke-miterlimit:2;"><g id="Space-Cadet" serif:id="Space Cadet"><g id="HatSpaceCadet"><path d="M1250,318.238l0,752.625c0,83.661 -67.922,151.584 -151.583,151.584l-473.417,20.845l-473.417,-20.845c-83.661,-0 -151.583,-67.923 -151.583,-151.584l0,-752.625c0,-83.661 1250,-83.661 1250,0Zm-1187.52,583.693c0,45.414 18.041,88.969 50.154,121.081c32.112,32.113 369.701,199.435 512.364,199.435c142.663,-0 480.252,-167.322 512.364,-199.435c32.113,-32.112 50.154,-75.667 50.154,-121.081l-0,-382.202l-1125.04,-0l0,382.202Z" style="fill:#3f3f3f;"/><path d="M1250,339.083l0,752.625c0,83.661 -67.922,151.584 -151.583,151.584l-946.834,-0c-83.661,-0 -151.583,-67.923 -151.583,-151.584l0,-752.625c0,-83.661 67.922,-151.583 151.583,-151.583l946.834,-0c83.661,-0 151.583,67.922 151.583,151.583Zm-1187.52,583.693c0,45.414 18.041,88.969 50.154,121.081c32.112,32.113 369.701,199.435 512.364,199.435c142.663,-0 480.252,-167.322 512.364,-199.435c32.113,-32.112 50.154,-75.667 50.154,-121.081l-0,-382.202l-1125.04,-0l0,382.202Z" style="fill:#5d5d5d;"/><g><path d="M5.269,1131.44c-3.436,-12.664 -5.269,-25.984 -5.269,-39.729l0,-51.833l39.173,-12.342c8.109,-2.553 16.88,1.085 20.802,8.626c27.626,51.925 80.75,87.632 144.606,116.51c14.497,6.555 26.955,16.903 36.06,29.95c16.827,24.01 42.41,60.673 42.41,60.673l-131.468,-0c-7.007,-0 -13.904,-0.477 -20.66,-1.399l23.812,-27.259c4.974,-5.693 4.389,-14.352 -1.304,-19.326c-5.693,-4.973 -14.352,-4.388 -19.326,1.305l-33.188,37.991c-15.324,-5.441 -29.518,-13.279 -42.129,-23.062l39.997,-45.785c4.973,-5.693 4.388,-14.352 -1.305,-19.326c-5.693,-4.973 -14.352,-4.388 -19.325,1.305l-39.426,45.131c-8.778,-9.786 -16.304,-20.717 -22.323,-32.542l32.964,-37.735c4.973,-5.693 4.389,-14.353 -1.304,-19.326c-5.693,-4.973 -14.353,-4.389 -19.326,1.304l-23.471,26.869Z" style="fill:#989898;"/><path d="M5.269,1131.44c-3.436,-12.664 -5.269,-25.984 -5.269,-39.729l0,-52.101l21.386,-6.738c8.108,-2.552 16.879,1.085 20.801,8.627c27.626,51.925 80.75,87.631 144.606,116.509c14.497,6.555 26.955,16.903 36.06,29.951c12.911,18.421 30.976,44.291 38.686,55.336l-109.956,-0c-7.007,-0 -13.904,-0.477 -20.66,-1.399l23.812,-27.259c4.974,-5.693 4.389,-14.352 -1.304,-19.326c-5.693,-4.973 -14.352,-4.388 -19.326,1.305l-33.188,37.991c-15.324,-5.441 -29.518,-13.279 -42.129,-23.062l39.997,-45.785c4.973,-5.693 4.388,-14.352 -1.305,-19.326c-5.693,-4.973 -14.352,-4.388 -19.325,1.305l-39.426,45.131c-8.778,-9.786 -16.304,-20.717 -22.323,-32.542l32.964,-37.735c4.973,-5.693 4.389,-14.353 -1.304,-19.326c-5.693,-4.973 -14.353,-4.389 -19.326,1.304l-23.471,26.869Z" style="fill:#bbb;"/></g><g><path d="M1244.73,1131.44c3.436,-12.664 5.269,-25.984 5.269,-39.729l0,-51.833l-39.173,-12.342c-8.109,-2.553 -16.88,1.085 -20.802,8.626c-27.626,51.925 -80.75,87.632 -144.606,116.51c-14.497,6.555 -26.955,16.903 -36.06,29.95c-16.827,24.01 -42.41,60.673 -42.41,60.673l131.468,-0c7.007,-0 13.904,-0.477 20.66,-1.399l-23.812,-27.259c-4.974,-5.693 -4.389,-14.352 1.304,-19.326c5.693,-4.973 14.352,-4.388 19.326,1.305l33.188,37.991c15.324,-5.441 29.518,-13.279 42.129,-23.062l-39.997,-45.785c-4.973,-5.693 -4.388,-14.352 1.305,-19.326c5.693,-4.973 14.352,-4.388 19.325,1.305l39.426,45.131c8.778,-9.786 16.304,-20.717 22.323,-32.542l-32.964,-37.735c-4.973,-5.693 -4.389,-14.353 1.304,-19.326c5.693,-4.973 14.353,-4.389 19.326,1.304l23.471,26.869Z" style="fill:#989898;"/><path d="M1244.73,1131.44c3.436,-12.664 5.269,-25.984 5.269,-39.729l0,-52.101l-21.386,-6.738c-8.108,-2.552 -16.879,1.085 -20.801,8.627c-27.626,51.925 -80.75,87.631 -144.606,116.509c-14.497,6.555 -26.955,16.903 -36.06,29.951c-12.911,18.421 -30.976,44.291 -38.686,55.336l109.956,-0c7.007,-0 13.904,-0.477 20.66,-1.399l-23.812,-27.259c-4.974,-5.693 -4.389,-14.352 1.304,-19.326c5.693,-4.973 14.352,-4.388 19.326,1.305l33.188,37.991c15.324,-5.441 29.518,-13.279 42.129,-23.062l-39.997,-45.785c-4.973,-5.693 -4.388,-14.352 1.305,-19.326c5.693,-4.973 14.352,-4.388 19.325,1.305l39.426,45.131c8.778,-9.786 16.304,-20.717 22.323,-32.542l-32.964,-37.735c-4.973,-5.693 -4.389,-14.353 1.304,-19.326c5.693,-4.973 14.353,-4.389 19.326,1.304l23.471,26.869Z" style="fill:#bbb;"/></g><path d="M625,1162.12c-142.663,0 -480.252,-167.321 -512.364,-199.434c-32.113,-32.113 -50.154,-75.667 -50.154,-121.081l0,-301.036l1125.04,-0l-0,301.036c-0,45.414 -18.041,88.968 -50.154,121.081c-32.112,32.113 -369.701,199.434 -512.364,199.434Z" style="fill:#8fc9d2;fill-opacity:0.75;"/><path d="M1187.52,841.61l-0,23.071c-0,45.414 -18.041,88.968 -50.154,121.081c-32.112,32.112 -369.701,199.434 -512.364,199.434c-142.663,-0 -480.252,-167.322 -512.364,-199.434c-32.113,-32.113 -50.154,-75.667 -50.154,-121.081l0,-23.071c0,45.414 18.041,88.968 50.154,121.081c32.112,32.113 369.701,199.434 512.364,199.434c142.663,0 480.252,-167.321 512.364,-199.434c32.113,-32.113 50.154,-75.667 50.154,-121.081Z" style="fill:#81b3bb;fill-opacity:0.75;"/><path id="base_body_1" d="M0,862.034l0,-536.094c0,-181.872 147.437,-309.958 329.31,-309.958l591.38,-0c181.873,-0 329.31,128.086 329.31,309.958l-0,536.094l-11.083,0c-29.988,0 -55.807,-21.163 -61.693,-50.567l-44.375,-221.685l-1015.7,0l-44.375,221.685c-5.886,29.404 -31.705,50.567 -61.693,50.567l-11.083,0Z" style="fill:#bbb;"/><path id="base_body_11" serif:id="base_body_1" d="M891.303,15.982l-266.303,314.687l-266.303,-314.687l0,-0.007c0,-4.237 1.684,-8.3 4.679,-11.296c2.996,-2.996 7.06,-4.679 11.296,-4.679c78.443,-0 422.213,-0 500.656,-0c4.236,0 8.3,1.683 11.296,4.679c2.995,2.996 4.679,7.059 4.679,11.296c-0,0.005 -0,0.007 -0,0.007Zm-891.303,370.915l0,-60.957c0,-64.449 18.514,-122.144 50.515,-169.779l171.276,197.079c-78.836,9.09 -157.655,20.286 -221.791,33.657Zm1199.49,-230.736c32.001,47.635 50.515,105.33 50.515,169.779l-0,60.957c-64.136,-13.371 -142.955,-24.567 -221.791,-33.657l171.276,-197.079Z" style="fill:#d8d8d8;"/><g><path d="M400.515,501.449c0,0 -260.976,-312.253 -322.043,-385.318c-7.275,-8.703 -6.515,-21.567 1.736,-29.351c44.363,-40.758 99.185,-70.336 159.999,-84.14c7.716,-1.691 15.732,1.05 20.797,7.111c58.354,69.731 411.028,491.698 411.028,491.698l-271.517,0Z" style="fill:#ff9811;"/><path d="M602.287,501.449l-109.311,0l-382.213,-439.701c24.324,-17.835 51.028,-32.615 79.546,-43.776l411.978,483.477Z" style="fill:#ffd742;"/><path d="M519.221,501.449l-26.245,0l-382.213,-439.701c6.224,-4.563 12.603,-8.927 19.129,-13.081l389.329,452.782Zm-349.545,-474.627c6.763,-3.162 13.644,-6.115 20.633,-8.85l411.978,483.477l-24.498,0l-408.113,-474.627Z" style="fill:#de840e;"/><path d="M548.16,353.24l123.872,148.209l-271.517,0l-110.296,-131.967c85.981,-8.621 171.961,-14.035 257.941,-16.242Z" style="fill:#424242;fill-opacity:0.2;"/></g><g><path d="M849.485,501.449c-0,0 260.976,-312.253 322.043,-385.318c7.275,-8.703 6.515,-21.567 -1.736,-29.351c-44.363,-40.758 -99.185,-70.336 -159.999,-84.14c-7.716,-1.691 -15.732,1.05 -20.797,7.111c-58.354,69.731 -411.028,491.698 -411.028,491.698l271.517,0Z" style="fill:#ff9811;"/><path d="M647.713,501.449l109.311,0l382.213,-439.701c-24.324,-17.835 -51.028,-32.615 -79.546,-43.776l-411.978,483.477Z" style="fill:#ffd742;"/><path d="M730.779,501.449l26.245,0l382.213,-439.701c-6.224,-4.563 -12.603,-8.927 -19.129,-13.081l-389.329,452.782Zm349.545,-474.627c-6.763,-3.162 -13.644,-6.115 -20.633,-8.85l-411.978,483.477l24.498,0l408.113,-474.627Z" style="fill:#de840e;"/><path d="M701.84,353.24l-123.872,148.209l271.517,0l110.296,-131.967c-85.981,-8.621 -171.961,-14.035 -257.941,-16.242Z" style="fill:#424242;fill-opacity:0.2;"/></g><path id="base_body_12" serif:id="base_body_1" d="M1250,826.75l-0,35.284l-11.083,0c-29.988,0 -55.807,-21.163 -61.693,-50.567l-44.375,-221.685l-1015.7,0l-44.375,221.685c-5.886,29.404 -31.705,50.567 -61.693,50.567l-11.083,0l0,-35.284l11.083,-0c29.988,-0 40.521,-21.164 46.407,-50.568l44.374,-221.685l1047.49,0l44.375,221.685c5.886,29.404 15.203,50.568 45.191,50.568l11.083,-0Z" style="fill:#989898;"/><path d="M1142.39,635.355c-0,62.505 -231.836,113.251 -517.394,113.251c-285.558,0 -517.394,-50.746 -517.394,-113.251l0,-94.781l1034.79,-0l-0,94.781Z" style="fill:#bbb;"/><ellipse cx="625" cy="605.499" rx="517.394" ry="113.251" style="fill:#d8d8d8;"/><path d="M1137.92,567.207c2.952,4.892 4.475,9.881 4.475,14.948c-0,62.505 -231.836,113.251 -517.394,113.251c-285.558,0 -517.394,-50.746 -517.394,-113.251c0,-5.067 1.523,-10.056 4.475,-14.948c33.465,55.451 250.51,98.303 512.919,98.303c262.409,0 479.454,-42.852 512.919,-98.303Z" style="fill:#b1b1b1;"/><path d="M372.15,379.248l46.597,-72.138l412.506,-0l46.61,72.158c124.045,9.069 248.091,24.806 372.137,47.205l0,197.594c-416.667,-31.878 -833.333,-31.816 -1250,-0l-0,-197.594c124.05,-22.421 248.1,-38.161 372.15,-47.225Z" style="fill:#ce5027;"/><g><path d="M-0,456.53c117.631,-25.277 236.41,-39.063 355.551,-49.234c0,-0 -35.282,51.631 -55.607,81.377c-9.159,13.402 -21.804,24.049 -36.572,30.79c-24.122,11.012 -61.329,27.997 -79.428,36.259c-7.015,3.201 -14.541,5.138 -22.23,5.722c-52.457,3.99 -105.773,8.322 -161.714,13.704l-0,-118.618Z" style="fill:#7e3219;"/><path d="M-0,471.922l-0,-15.392c117.631,-25.277 236.41,-39.063 355.551,-49.234l-11.178,16.357c-115.392,10.08 -230.422,23.784 -344.373,48.269Z" style="fill:#a9411f;"/></g><g><path d="M1250,456.53c-117.631,-25.277 -236.41,-39.063 -355.551,-49.234c-0,-0 35.282,51.631 55.607,81.377c9.159,13.402 21.804,24.049 36.572,30.79c24.122,11.012 61.329,27.997 79.428,36.259c7.015,3.201 14.541,5.138 22.23,5.722c52.457,3.99 105.773,8.322 161.714,13.704l-0,-118.618Z" style="fill:#7e3219;"/><path d="M1250,471.922l-0,-15.392c-117.631,-25.277 -236.41,-39.063 -355.551,-49.234l11.178,16.357c115.392,10.08 230.422,23.784 344.373,48.269Z" style="fill:#a9411f;"/></g><path d="M917.286,555.911c-194.857,-10.553 -389.715,-10.574 -584.572,-0l118.374,-209.201l347.824,0l118.374,209.201Z" style="fill:#7e3219;"/><path d="M440.23,365.9l10.858,-19.19l347.824,0l10.858,19.19l-369.54,-0Z" style="fill:#a9411f;"/><path d="M557.345,324.629l-84.179,235.938l-38.199,0l84.179,-235.938l38.199,0Zm134.997,0l38.199,0l84.179,235.938l-38.199,0l-84.179,-235.938Zm-86.441,0l38.198,0l0,235.938l-38.198,0l-0,-235.938Z" style="fill:#ce5027;"/><path d="M-0,602.353c416.667,-31.815 833.333,-31.877 1250,0l0,21.714c-416.667,-31.878 -833.333,-31.816 -1250,-0l-0,-21.714Z" style="fill:#a9411f;"/></g></g></svg>