<?xml version="1.0" encoding="UTF-8" standalone="no"?><!DOCTYPE svg PUBLIC "-//W3C//DTD SVG 1.1//EN" "http://www.w3.org/Graphics/SVG/1.1/DTD/svg11.dtd"><svg width="100%" height="100%" viewBox="0 0 1250 1438" version="1.1" xmlns="http://www.w3.org/2000/svg" xmlns:xlink="http://www.w3.org/1999/xlink" xml:space="preserve" xmlns:serif="http://www.serif.com/" style="fill-rule:evenodd;clip-rule:evenodd;stroke-linejoin:round;stroke-miterlimit:2;"><g id="HatSpaghetti"><g><path d="M140.413,349.043c4.009,-10.229 8.675,-20.073 13.555,-29.217c4.894,-9.169 16.311,-12.64 25.48,-7.746c9.168,4.893 12.639,16.31 7.746,25.479c-9.95,18.642 -19.208,40.71 -21.381,62.452c-1.852,18.538 1.716,36.879 16.656,51.411c6.083,5.916 13.162,11.372 20.597,15.425c1.812,0.987 3.648,1.93 5.509,2.817c-1.219,-46.845 21.449,-92.657 47.286,-130.168c5.895,-8.559 17.631,-10.722 26.19,-4.826c8.559,5.895 10.722,17.63 4.826,26.19c-23.258,33.767 -45.262,75.097 -39.935,117.383c15.871,0.26 31.946,-2.167 47.915,-3.518c26.921,-2.276 53.494,-1.777 78.893,11.434c18.088,9.408 35.29,22.483 46.236,40.033c8.656,13.878 14.485,27.941 21.273,40.54c2.325,4.316 4.773,8.432 7.657,12.195c0.764,-3.293 1.504,-6.553 2.163,-9.801c2.318,-11.43 3.717,-22.68 -0.745,-35.255c-3.632,-10.235 -10.584,-18.222 -18.74,-25.391c-8.802,-7.735 -19.004,-14.509 -28.495,-21.749c-26.051,-19.873 -47.647,-42.25 -46.865,-78.756c0.326,-15.209 5.062,-31.237 10.003,-45.423c3.419,-9.815 14.163,-15.007 23.978,-11.588c9.814,3.418 15.007,14.162 11.588,23.977c-3.692,10.6 -7.672,22.476 -7.915,33.841c-0.493,22.993 15.645,35.488 32.053,48.005c24.145,18.419 49.916,36.392 59.886,64.489c9.751,27.478 2.655,50.632 -2.756,76.893c25.408,4.339 52.189,-2.576 75.297,-13.102c21.579,-9.829 40.416,-23.708 59.616,-36.695c-2.902,-3.689 -6.3,-7.199 -10.372,-10.478c-17.88,-14.399 -38.667,-23.477 -59.571,-32.279c-23.641,-9.955 -47.46,-19.526 -68.65,-33.757c-33.544,-22.527 -57.957,-54.458 -54.051,-97.199c1.222,-13.376 4.567,-26.519 9.068,-39.133c6.376,-17.866 15.045,-34.539 25.561,-50.279c5.774,-8.641 17.478,-10.969 26.119,-5.196c8.642,5.774 10.97,17.478 5.196,26.12c-8.791,13.158 -16.075,27.077 -21.404,42.012c-3.443,9.647 -6.1,19.674 -7.034,29.903c-2.561,28.022 15.55,47.738 37.542,62.507c19.183,12.883 40.867,21.3 62.269,30.312c24.137,10.164 47.931,21.03 68.577,37.656c7.68,6.184 13.834,12.868 18.927,19.932c3.326,-1.791 6.695,-3.507 10.116,-5.133c-0.316,-0.8 -0.675,-1.607 -1.079,-2.421c-9.938,-20.035 -30.134,-27.685 -48.629,-37.259c-26.554,-13.746 -50.865,-29.685 -60.239,-63.282c-13.179,-47.234 -0.06,-97.937 25.777,-138.516c5.582,-8.767 17.231,-11.353 25.998,-5.771c8.767,5.582 11.353,17.231 5.771,25.998c-20.215,31.75 -31.581,71.211 -21.27,108.167c5.433,19.473 19.793,28.64 35.079,36.73c-19.929,-18.997 -31.582,-49.597 -31.191,-76.062c0.153,-10.392 8.715,-18.704 19.107,-18.55c6.648,0.098 12.445,3.637 15.719,8.895c0.909,-6.714 5.421,-12.713 12.224,-15.19c9.767,-3.554 20.582,1.489 24.136,11.256c10.367,28.486 20.874,54.72 37.146,78.674c2.206,0.212 4.415,0.417 6.62,0.622c-11.79,-12.322 -20.728,-27.406 -25.462,-42.935c-3.716,-12.19 -5.072,-24.997 -2.433,-37.519c2.144,-10.17 12.141,-16.686 22.31,-14.542c10.17,2.144 16.686,12.141 14.542,22.31c-1.322,6.274 -0.256,12.661 1.606,18.768c0.471,1.548 1.007,3.091 1.602,4.624c0.29,-0.561 0.61,-1.112 0.962,-1.652c5.672,-8.709 17.347,-11.176 26.056,-5.504c12.617,8.217 25.186,16.991 38.836,23.45c6.327,2.994 13.255,5.379 20.459,7.018c0.965,-15.473 5.629,-30.768 12.872,-45.151c6.281,-12.472 14.21,-24.053 22.521,-35.238c6.199,-8.342 18.004,-10.081 26.346,-3.882c8.342,6.199 10.082,18.004 3.883,26.346c-7.021,9.449 -13.807,19.177 -19.112,29.713c-4.724,9.381 -8.05,19.325 -8.855,29.395c9.872,-1.812 19.218,-5.502 27.138,-11.512c10.422,-7.908 18.261,-18.19 26.718,-27.824c-0.168,-2.281 -0.304,-4.508 -0.397,-6.675c-0.446,-10.383 7.622,-19.175 18.005,-19.622c6.388,-0.274 12.174,2.673 15.784,7.4c0.727,-0.667 1.471,-1.321 2.233,-1.96c7.963,-6.678 19.851,-5.635 26.529,2.328c1.703,2.03 2.904,4.315 3.616,6.704c1.577,0.157 3.131,0.371 4.664,0.638c2.484,-5.776 7.802,-10.182 14.469,-11.198c4.365,-0.666 8.61,0.227 12.139,2.249c1.993,0.612 3.906,1.561 5.647,2.85c2.678,-5.409 7.903,-9.441 14.329,-10.321c10.296,-1.411 19.801,5.804 21.212,16.101c1.899,13.863 2.719,29.49 1.704,45.212c7.076,5.794 14.407,10.758 23.121,11.904c5.057,-28.363 20.319,-59.168 31.219,-84.145c4.157,-9.526 15.265,-13.885 24.791,-9.728c9.525,4.157 13.884,15.265 9.727,24.791c-5.781,13.248 -13.183,28.258 -19.187,43.558c9.801,-8.752 19.679,-17.375 30.239,-25.3c8.312,-6.238 20.126,-4.554 26.364,3.759c3.487,4.646 4.499,10.386 3.261,15.635c4.51,-3.546 8.853,-7.327 12.867,-11.565c2.248,-8.88 3.385,-17.981 0.825,-28.678c-2.419,-10.107 3.823,-20.277 13.931,-22.697c5.874,-1.405 11.769,0.113 16.147,3.616c0.955,-0.319 1.947,-0.566 2.972,-0.733c10.258,-1.668 19.941,5.307 21.609,15.565c4.904,30.17 7.287,60.552 9.137,91.031c2.673,44.058 4.896,89.866 -15.097,130.627c-6.515,13.281 -15.496,24.18 -25.23,34.365c7.904,12.807 14.091,26.579 17.608,41.823c5.116,22.175 1.549,43.51 -4.143,64.73c-4.574,17.051 -10.67,33.99 -11.817,51.547c-1.392,21.318 8.745,39.881 17.029,58.786c4.171,9.519 -0.172,20.634 -9.691,24.805c-9.52,4.171 -20.634,-0.171 -24.805,-9.691c-10.687,-24.389 -21.911,-48.851 -20.115,-76.355c1.307,-20.01 7.81,-39.416 13.023,-58.849c4.095,-15.266 7.502,-30.553 3.821,-46.506c-1.833,-7.946 -4.623,-15.358 -8.126,-22.367c-5.786,6.757 -10.876,14.185 -14.28,23.194c-3.673,9.723 -14.549,14.633 -24.271,10.96c-9.722,-3.674 -14.633,-14.55 -10.96,-24.272c6.299,-16.669 16.335,-29.721 27.567,-41.668c-8.006,-9.272 -16.791,-18.086 -25.571,-26.876c-2.083,0.768 -4.194,1.48 -6.335,2.142c-34.529,10.673 -70.861,8.466 -107.035,6.414c-24.528,-1.391 -48.981,-2.758 -72.491,2.145c-0.169,0.995 -0.352,1.987 -0.551,2.974c-6.154,30.55 -18.207,60.02 -41.837,81.406c-27.458,24.852 -67.061,26.506 -100.979,15.011c-14.261,25.688 -31.555,53.496 -36.758,82.429c-2.185,12.152 -2.742,24.252 0.827,36.204c4.263,14.275 11.662,26.104 18.29,38.343c8.326,15.373 15.643,31.25 17.96,50.841c1.22,10.321 -6.168,19.691 -16.489,20.912c-10.321,1.221 -19.692,-6.168 -20.912,-16.489c-1.709,-14.444 -7.537,-25.994 -13.676,-37.328c-7.836,-14.47 -16.221,-28.627 -21.26,-45.503c-5.29,-17.715 -5.046,-35.633 -1.807,-53.645c4.152,-23.091 14.667,-45.738 26.171,-67.286c-5.801,-0.161 -11.816,-0.85 -18.071,-2.134c-12.075,-2.481 -24.009,-6.607 -34.827,-12.557c-11.771,-6.475 -22.416,-14.477 -31.253,-24.234c2.677,5.653 6.491,10.808 10.849,15.633c9.225,10.214 20.816,19.069 31.77,27.519c8.229,6.348 9.756,18.182 3.409,26.412c-6.348,8.229 -18.183,9.756 -26.412,3.408c-16.203,-12.498 -33.274,-26.091 -44.953,-42.221c-13.81,-19.072 -20.846,-41.415 -13.618,-69.139c1.922,-7.369 5.093,-14.553 8.856,-21.63c-0.518,-1.521 -1.037,-3.038 -1.562,-4.55c-19.443,13.198 -38.804,26.82 -60.66,36.776c-28.988,13.204 -62.572,21.051 -94.579,16.365c0.287,8.569 1.307,17.15 2.903,25.939c1.857,10.226 -4.938,20.035 -15.164,21.892c-10.226,1.857 -20.035,-4.938 -21.892,-15.164c-2.803,-15.44 -4.092,-30.364 -3.423,-45.461c-15.692,-9.531 -25.419,-22.906 -33.722,-38.316c-6.434,-11.941 -11.868,-25.318 -20.073,-38.473c-7.395,-11.856 -19.438,-20.195 -31.659,-26.551c-18.733,-9.744 -38.484,-8.998 -58.341,-7.319c-13.387,1.132 -26.845,2.76 -40.225,3.34c2.863,7.554 5.77,15.096 8.122,22.67c7.962,25.641 10.297,51.459 -5.444,78.517c-5.227,8.983 -16.763,12.033 -25.747,6.807c-8.983,-5.226 -12.033,-16.763 -6.807,-25.746c9.691,-16.657 6.932,-32.624 2.03,-48.409c-3.827,-12.327 -8.928,-24.608 -13.118,-36.977c-11.119,-2.672 -21.757,-7.066 -31.8,-12.54c-10.391,-5.665 -20.33,-13.227 -28.831,-21.495c-23.984,-23.328 -30.846,-52.394 -27.872,-82.154c1.032,-10.328 3.3,-20.74 6.401,-30.949c-7.073,15.081 -15.133,31.868 -20.627,49.139c-5.563,17.492 -8.707,35.51 -3.174,52.305c4.121,12.511 12.698,22.3 20.368,32.648c10.712,14.452 20.153,29.615 22.81,48.997c2.419,17.649 -1.091,34.454 -5.843,51.137c-3.66,12.849 -8.192,25.59 -8.955,38.948c-0.594,10.376 -9.499,18.319 -19.875,17.726c-10.376,-0.593 -18.319,-9.499 -17.726,-19.875c0.922,-16.123 5.917,-31.608 10.335,-47.117c3.326,-11.675 6.444,-23.353 4.751,-35.704c-1.74,-12.69 -8.74,-22.223 -15.753,-31.684c-10.054,-13.564 -20.481,-26.893 -25.883,-43.293c-6.485,-19.685 -5.772,-40.544 -0.912,-61.224c6.361,-27.075 20,-53.857 30.193,-76.197c4.315,-9.455 15.494,-13.629 24.949,-9.315c6.952,3.172 11.049,10.054 11.016,17.235Zm598.489,131.904c9.353,8.942 18.947,17.87 28.077,27.155c2.693,0.205 5.388,0.424 8.083,0.649c8,0.667 16.007,1.395 23.989,1.907c-4.512,-1.813 -8.964,-3.78 -13.344,-5.877c-16.438,-7.873 -30.126,-17.792 -46.805,-23.834Zm211.814,57.782c21.425,-2.4 43.363,-1.535 65.381,-0.286c27.569,1.564 55.276,3.846 81.931,-1.743c-10.444,-12.041 -19.761,-24.628 -26.89,-38.33c-21.329,0.597 -43.675,-6.267 -60.319,-19.074c-0.487,0.601 -0.982,1.195 -1.485,1.782c-10.718,12.489 -23.563,22.196 -35.743,32.512c-8.611,7.294 -16.923,14.882 -22.875,25.139Zm-138.167,-63.221c4.726,1.93 9.533,3.663 14.397,5.149c-0.592,-0.979 -1.187,-1.956 -1.784,-2.932c-4.244,-0.634 -8.458,-1.388 -12.613,-2.217Zm221.596,-25.532c6.761,5.349 15.294,8.886 24.101,10.365c-0.227,-1.368 -0.43,-2.747 -0.611,-4.139c-8.374,-0.562 -16.139,-2.8 -23.49,-6.226Zm-95.916,-26.017c3.452,-9.463 6.838,-19.016 10.817,-28.241c-1.366,-0.777 -2.621,-1.719 -3.741,-2.796c-3.233,5.671 -5.693,11.935 -8.138,18.198c0.408,4.254 0.774,8.543 1.062,12.839Zm170.217,64.233c7.096,11.67 16.215,22.303 25.952,32.657c17.547,-14.239 21.944,-32.758 24.618,-52.232c1.548,-11.277 2.496,-22.895 4.025,-34.537c-4.078,3.192 -8.021,6.557 -11.712,10.264c-6.628,6.659 -12.22,14.619 -18.375,21.954c-7.142,8.512 -14.959,16.249 -24.508,21.894Zm-209.596,-20.696c-9.453,5.766 -19.706,9.179 -30.347,10.884c1.118,2.462 2.143,4.96 3.054,7.501c7.672,-0.752 15.295,-2.484 22.775,-5.402c2.016,-4.059 3.475,-8.418 4.518,-12.983Zm304.941,-47.642c-0.164,0.681 -0.325,1.366 -0.481,2.056c-5.003,22.145 -5.057,44.909 -9.337,65.891c-4.573,22.419 -13.309,43.027 -33.226,60.138c6.295,6.493 12.493,13.059 18.389,19.806c5.518,-6.12 10.543,-12.715 14.345,-20.468c17.08,-34.821 13.601,-74.124 11.318,-111.761c-0.317,-5.224 -0.649,-10.445 -1.008,-15.662Zm-390.676,123.352c-5.531,3.448 -11.236,6.608 -16.978,9.716c-2.338,-3.754 -4.826,-7.416 -7.442,-10.998c8.151,0.618 16.297,1.117 24.42,1.282Zm137.532,-59.53c10.269,-8.594 21.121,-16.655 30.106,-27.125c2.152,-2.507 4.059,-5.214 5.749,-8.079c-3.551,-6.983 -6.604,-14.452 -9.237,-22.137c-2.112,5.951 -4.138,11.936 -6.338,17.802c-5.321,14.185 -11.477,27.728 -20.28,39.539Zm-42.71,65.309c1.453,-8.171 3.501,-16.19 7.295,-23.771c3.831,-7.652 8.463,-14.364 13.633,-20.472c-2.716,1.858 -5.596,3.611 -8.656,5.25c-1.759,2.364 -3.664,4.642 -5.721,6.828c-13.461,14.299 -33.145,22.924 -52.705,27.527c-2.62,3.05 -5.496,5.941 -8.524,8.685c-11.587,10.496 -24.785,18.258 -38.218,25.681c1.504,4.213 2.816,8.539 3.915,12.988c1.546,6.261 2.269,12.318 2.318,18.219c5.753,-5.463 11.467,-11.026 17.269,-16.385c20.093,-18.558 43.829,-34.517 69.394,-44.55Zm-126.203,49.227c-3.403,2.398 -6.712,5.128 -9.158,8.359c-1.436,1.897 -2.593,4.043 -1.881,6.685c1.485,5.51 5.711,9.72 10.473,13.254c2.556,-8.099 3.504,-16.544 1.224,-25.781c-0.209,-0.845 -0.428,-1.684 -0.658,-2.517Zm54.607,48.977c13.643,0.421 26.973,-3.041 37.472,-12.543c11.828,-10.706 19.34,-24.351 24.387,-39.048c-12.285,7.277 -23.76,16.05 -34.104,25.604c-9.28,8.571 -18.401,17.573 -27.755,25.987Zm65.803,-234.467c-4.436,10.771 -9.502,20.82 -19.113,26.979c-11.563,7.408 -24.848,9.25 -38.386,8.488c-0.8,-1.448 -1.572,-2.907 -2.302,-4.383c16.64,-2.246 32.54,-8.029 45.692,-18.009c5.176,-3.928 9.765,-8.393 14.109,-13.075Zm-136.939,151.239c-4.666,-6.728 -9.906,-13.102 -15.458,-19.261c-13.732,-0.68 -27.38,-0.549 -40.827,1.902c-3.818,0.696 -7.53,1.571 -11.15,2.599c-2.116,8.289 -5.673,16.367 -10.03,24.334c-3.184,5.824 -6.875,11.562 -10.471,17.32c2.412,6.515 5.145,13.015 8.633,19.374c6.799,12.391 17.512,21.378 29.804,28.139c7.525,4.139 15.852,6.938 24.252,8.664c3.367,0.691 6.621,1.104 9.771,1.263c-7.098,-7.234 -12.824,-15.688 -15.398,-25.238c-7.058,-26.188 11.513,-46.473 30.874,-59.096Zm337.83,-120.607c-2.706,1.802 -5.5,3.459 -8.383,4.902c0.106,1.139 0.233,2.267 0.38,3.384c2.896,-2.49 5.491,-5.339 8.003,-8.286Zm-474.808,-67.835c0.761,14.861 6.836,31.288 17.312,42.206c-6.324,-13.51 -11.903,-27.571 -17.312,-42.206Zm30.247,91.861c14.011,9.21 26.355,20.476 34.463,36.822c1.11,2.237 2.072,4.451 2.898,6.643c2.085,-0.473 4.195,-0.905 6.331,-1.294c3.521,-0.642 7.053,-1.157 10.598,-1.563c-8.177,-7.805 -16.194,-15.608 -23.597,-23.649c-3.863,-4.196 -7.499,-8.457 -10.933,-12.784c-6.717,-0.984 -13.326,-2.305 -19.76,-4.175Zm-603.185,-153.84c5.873,-8.574 17.602,-10.768 26.177,-4.895c8.575,5.873 10.769,17.602 4.896,26.177c-17.409,25.418 -39.593,56.943 -42.262,88.881c-2.448,29.298 11.508,52.639 25.186,75.957c17.297,29.488 34.535,58.894 34.664,94.327c0.107,29.27 -9.101,54.578 -20.231,79.33c-9.541,21.216 -20.616,41.961 -25.939,65.451c-9.564,42.202 4.873,77.523 10.833,119.008c1.478,10.288 -5.674,19.84 -15.961,21.318c-10.288,1.478 -19.84,-5.675 -21.318,-15.962c-6.637,-46.202 -20.936,-85.688 -10.285,-132.688c5.89,-25.992 17.764,-49.096 28.321,-72.573c8.967,-19.941 17.005,-40.167 16.919,-63.747c-0.104,-28.549 -15.552,-51.65 -29.488,-75.408c-17.555,-29.926 -33.374,-60.55 -30.232,-98.149c3.189,-38.161 27.919,-76.655 48.72,-107.027Z" style="fill:#ddae45;"/><path d="M221.238,507.594c-11.744,-2.444 -22.945,-6.954 -33.466,-12.689c-9.944,-5.42 -19.449,-12.664 -27.584,-20.575c-22.613,-21.996 -28.976,-49.437 -26.172,-77.497c2.581,-25.825 13.168,-52.177 24.986,-74.32c3.411,-6.391 11.368,-8.81 17.759,-5.399c6.391,3.41 8.81,11.368 5.399,17.759c-10.283,19.267 -19.779,42.099 -22.024,64.571c-2.023,20.238 2.044,40.204 18.355,56.068c6.449,6.273 13.961,12.047 21.845,16.345c4.67,2.546 9.502,4.809 14.487,6.642c-4.668,-48.754 18.908,-96.815 45.737,-135.766c4.109,-5.966 12.289,-7.473 18.254,-3.364c5.966,4.109 7.473,12.288 3.364,18.254c-24.164,35.082 -46.666,78.186 -40.794,122.129c0.18,1.347 0.392,2.691 0.634,4.033c17.625,0.912 35.538,-1.871 53.32,-3.374c25.85,-2.186 51.391,-1.875 75.779,10.81c17.199,8.946 33.619,21.304 44.027,37.99c8.588,13.769 14.357,27.729 21.092,40.228c4.306,7.991 9.058,15.307 15.834,21.214c1.547,-6.968 3.244,-13.706 4.601,-20.393c2.519,-12.417 3.888,-24.636 -0.96,-38.297c-7.924,-22.331 -29.96,-35.129 -49.151,-49.769c-24.588,-18.755 -45.359,-39.642 -44.621,-74.097c0.313,-14.626 4.934,-30.025 9.687,-43.668c2.383,-6.841 9.871,-10.46 16.712,-8.077c6.841,2.383 10.46,9.871 8.077,16.712c-3.882,11.143 -7.976,23.649 -8.232,35.595c-0.536,25.036 16.432,39.037 34.297,52.665c23.26,17.742 48.365,34.795 57.97,61.86c10.054,28.333 1.164,51.88 -4.082,79.44c0.134,0.032 0.269,0.064 0.404,0.095c28.081,6.526 58.216,-0.732 83.962,-12.46c23.697,-10.794 44.148,-26.377 65.327,-40.433c-3.863,-5.849 -8.643,-11.362 -14.87,-16.376c-18.299,-14.736 -39.542,-24.085 -60.936,-33.094c-23.301,-9.811 -46.797,-19.208 -67.683,-33.234c-31.792,-21.352 -55.252,-51.435 -51.55,-91.944c1.179,-12.899 4.42,-25.57 8.76,-37.735c6.217,-17.422 14.676,-33.677 24.931,-49.026c4.025,-6.023 12.182,-7.646 18.205,-3.621c6.023,4.024 7.646,12.182 3.622,18.205c-9.053,13.549 -16.547,27.885 -22.035,43.264c-3.602,10.097 -6.363,20.596 -7.342,31.302c-2.764,30.249 16.304,51.819 40.044,67.763c19.487,13.087 41.495,21.679 63.235,30.834c23.648,9.957 46.986,20.552 67.213,36.841c8.746,7.043 15.398,14.771 20.725,22.99c6.105,-3.451 12.345,-6.66 18.786,-9.523c-0.562,-2.631 -1.491,-5.317 -2.856,-8.069c-10.509,-21.185 -31.562,-29.666 -51.118,-39.79c-25.174,-13.032 -48.479,-27.897 -57.366,-59.749c-12.745,-45.676 0.109,-94.676 25.094,-133.918c3.891,-6.11 12.01,-7.913 18.121,-4.022c6.11,3.89 7.912,12.01 4.022,18.12c-21.067,33.088 -32.699,74.252 -21.953,112.765c6.649,23.832 25.315,33.742 44.15,43.492c24.452,12.658 49.426,24.948 62.566,51.437c1.835,3.699 3.235,7.33 4.25,10.9c3.627,-0.954 7.328,-1.784 11.113,-2.474c7.541,-1.374 15.137,-2.147 22.772,-2.496c-11.234,-10.697 -22.493,-21.221 -32.596,-32.194c-4.296,-4.666 -8.305,-9.416 -12.065,-14.25c-17.385,-2.346 -34.102,-6.792 -48.794,-17.566c-23.03,-16.89 -36.719,-49.724 -36.307,-77.629c0.107,-7.244 6.074,-13.037 13.317,-12.93c7.243,0.107 13.037,6.074 12.93,13.317c-0.296,20.07 9.021,43.927 25.584,56.074c3.922,2.877 8.057,5.095 12.345,6.839c-11.408,-20.606 -20.189,-42.593 -28.724,-66.045c-2.478,-6.808 1.038,-14.345 7.845,-16.823c6.807,-2.477 14.345,1.038 16.822,7.845c10.855,29.828 21.907,57.206 39.311,82.143c9.083,0.908 18.23,1.604 27.181,2.882c-17.701,-12.921 -31.248,-32.204 -37.369,-52.279c-3.435,-11.268 -4.746,-23.103 -2.307,-34.678c1.495,-7.088 8.462,-11.63 15.55,-10.136c7.089,1.494 11.63,8.462 10.136,15.55c-1.522,7.22 -0.412,14.581 1.731,21.609c6.388,20.954 23.564,41.047 45.17,47.64c8.043,2.453 16.375,3.749 24.737,4.93c-3.664,-1.326 -7.226,-2.805 -10.661,-4.43c-14.949,-7.074 -28.789,-16.559 -42.607,-25.558c-6.07,-3.953 -7.789,-12.09 -3.836,-18.161c3.954,-6.07 12.091,-7.789 18.161,-3.836c12.832,8.357 25.627,17.258 39.509,23.827c8.659,4.097 18.381,7.119 28.425,8.747c-0.182,-16.933 4.536,-33.769 12.443,-49.472c6.133,-12.178 13.889,-23.479 22.005,-34.4c4.321,-5.815 12.549,-7.027 18.363,-2.706c5.814,4.32 7.027,12.548 2.706,18.363c-7.216,9.711 -14.175,19.72 -19.629,30.55c-6.16,12.232 -10.032,25.375 -9.622,38.551c13.276,-1.351 25.997,-5.623 36.452,-13.556c11.38,-8.636 19.809,-19.981 29.145,-30.403c-0.252,-3.059 -0.45,-6.027 -0.573,-8.887c-0.311,-7.237 5.312,-13.365 12.549,-13.676c5.542,-0.238 10.433,3.003 12.561,7.784c1.183,0.348 2.323,0.865 3.381,1.546c1.716,-1.835 3.542,-3.58 5.497,-5.219c5.55,-4.655 13.835,-3.928 18.49,1.622c2.129,2.539 3.132,5.649 3.064,8.723c0.998,-0.159 2.031,-0.203 3.083,-0.121c3.694,0.288 7.254,0.916 10.701,1.831c0.303,-6.102 4.862,-11.359 11.133,-12.315c3.261,-0.497 6.426,0.255 9.01,1.896c2.15,0.551 4.188,1.655 5.89,3.315c4.572,4.459 5.193,11.452 1.81,16.598c0.303,1.74 0.62,3.498 0.954,5.269c1.703,1.255 3.387,2.553 5.056,3.883c-0.299,-7.46 -0.996,-14.689 -1.913,-21.385c-0.983,-7.177 4.045,-13.802 11.222,-14.785c7.177,-0.983 13.802,4.045 14.785,11.222c1.967,14.359 2.749,30.658 1.455,46.949c10.098,8.522 20.62,15.723 33.868,15.333c3.915,-29.255 20.229,-61.737 31.604,-87.803c2.897,-6.639 10.639,-9.678 17.279,-6.78c6.639,2.897 9.677,10.639 6.78,17.279c-8.408,19.266 -20.165,42.227 -26.281,64.436c1.335,-1.129 2.641,-2.28 3.923,-3.422c13.802,-12.289 27.253,-24.795 42.064,-35.91c5.793,-4.348 14.027,-3.174 18.375,2.62c4.348,5.793 3.175,14.027 -2.619,18.375c-14.223,10.674 -27.11,22.719 -40.364,34.52c-7.562,6.734 -15.95,13.344 -25.352,17.322c-0.02,0.009 -0.041,0.017 -0.061,0.026c0.286,5.794 1.092,11.318 2.343,16.612c7.003,-3.773 12.363,-9.524 17.449,-15.584c6.738,-8.03 12.951,-16.669 20.207,-23.958c16.526,-16.6 38.187,-26.344 54.248,-43.831c2.706,-10.183 4.157,-20.551 1.215,-32.843c-1.686,-7.045 2.665,-14.133 9.71,-15.819c5.27,-1.262 10.564,0.855 13.603,4.95c1.497,-0.986 3.221,-1.679 5.104,-1.985c7.15,-1.162 13.898,3.699 15.061,10.849c4.873,29.981 7.235,60.172 9.073,90.461c2.614,43.084 5.028,87.908 -14.524,127.769c-6.935,14.138 -16.822,25.435 -27.336,36.138c8.712,13.338 15.559,27.73 19.277,43.844c4.899,21.233 1.356,41.652 -4.094,61.97c-4.671,17.412 -10.829,34.724 -12,52.653c-1.453,22.254 8.849,41.713 17.496,61.448c2.907,6.635 -0.119,14.382 -6.754,17.289c-6.635,2.907 -14.382,-0.119 -17.289,-6.754c-10.322,-23.559 -21.382,-47.128 -19.647,-73.694c1.283,-19.638 7.724,-38.67 12.84,-57.743c4.337,-16.168 7.768,-32.372 3.87,-49.267c-2.581,-11.185 -6.947,-21.371 -12.515,-30.877c-8.435,8.889 -16.09,18.535 -20.788,30.97c-2.561,6.777 -10.141,10.199 -16.917,7.639c-6.777,-2.561 -10.199,-10.141 -7.639,-16.917c6.668,-17.646 17.775,-31.015 29.902,-43.445c-9.738,-11.782 -20.846,-22.769 -31.835,-33.777c-3.075,1.246 -6.218,2.359 -9.429,3.351c-33.879,10.473 -69.534,8.183 -105.027,6.17c-26.385,-1.497 -52.681,-2.884 -77.858,3.123c-0.31,2.202 -0.663,4.394 -1.1,6.565c-5.915,29.36 -17.364,57.75 -40.073,78.303c-27.126,24.551 -66.851,24.765 -99.8,12.225c-0.172,0.315 -0.344,0.629 -0.517,0.944c-14.859,27.126 -33.673,56.716 -39.206,87.491c-2.345,13.04 -2.855,26.022 0.975,38.847c4.38,14.668 11.928,26.851 18.74,39.427c7.994,14.762 15.086,29.983 17.31,48.794c0.851,7.194 -4.299,13.725 -11.492,14.575c-7.194,0.851 -13.725,-4.299 -14.576,-11.492c-1.8,-15.223 -7.854,-27.429 -14.324,-39.376c-7.654,-14.131 -15.889,-27.936 -20.811,-44.418c-5.029,-16.841 -4.737,-33.878 -1.658,-51.002c4.608,-25.631 17.316,-50.671 30.273,-74.244c-8.37,0.668 -17.216,0.16 -26.641,-1.776c-11.518,-2.365 -22.906,-6.29 -33.225,-11.966c-17.642,-9.705 -32.66,-22.982 -42.418,-40.769c-0.329,-0.599 -0.651,-1.198 -0.969,-1.798c-2.144,17.325 5.34,30.988 15.998,42.789c9.449,10.462 21.3,19.558 32.52,28.213c5.735,4.424 6.8,12.673 2.376,18.409c-4.425,5.735 -12.674,6.8 -18.409,2.375c-15.775,-12.168 -32.446,-25.346 -43.817,-41.049c-12.855,-17.754 -19.446,-38.545 -12.717,-64.354c2.007,-7.698 5.483,-15.172 9.538,-22.546c-1.59,-4.682 -3.17,-9.332 -4.864,-13.917c-21.262,14.254 -42.082,29.566 -65.927,40.427c-30.016,13.672 -65.118,21.523 -97.991,14.752c-0.141,11.184 0.985,22.304 3.066,33.764c1.294,7.127 -3.442,13.965 -10.569,15.259c-7.127,1.294 -13.965,-3.442 -15.259,-10.569c-2.937,-16.181 -4.175,-31.776 -3.151,-47.632c-16.52,-9.04 -26.266,-22.393 -34.584,-37.832c-6.488,-12.041 -11.982,-25.522 -20.255,-38.786c-7.933,-12.719 -20.759,-21.776 -33.868,-28.595c-19.743,-10.268 -40.529,-9.711 -61.454,-7.941c-15.948,1.348 -31.997,3.418 -47.892,3.53c3.647,9.965 7.722,19.882 10.82,29.857c7.498,24.147 9.897,48.474 -4.927,73.955c-3.643,6.262 -11.684,8.388 -17.945,4.745c-6.262,-3.643 -8.388,-11.683 -4.745,-17.945c10.607,-18.232 7.912,-35.693 2.548,-52.971c-4.154,-13.377 -9.805,-26.703 -14.171,-40.145Zm531.152,31.531c-14.968,-0.835 -29.845,-0.806 -44.494,1.864c-5.153,0.939 -10.122,2.189 -14.939,3.698c-1.836,8.934 -5.56,17.584 -10.223,26.11c-3.569,6.528 -7.788,12.942 -11.777,19.401c2.743,7.654 5.845,15.306 9.943,22.775c7.326,13.355 18.809,23.108 32.056,30.394c8.024,4.414 16.897,7.414 25.854,9.254c9.034,1.855 17.33,1.862 25.069,0.484c-10.743,-8.15 -20.58,-18.7 -24.039,-31.533c-6.445,-23.912 11.537,-41.979 29.23,-53.315c1.366,-0.875 2.744,-1.731 4.13,-2.571c-5.997,-9.443 -13.136,-18.189 -20.81,-26.561Zm-32.355,-68.701c14.166,14.444 29.905,28.345 44.371,43.207c3.392,0.249 6.786,0.523 10.182,0.806c21.228,1.771 42.51,3.92 63.467,1.605c-17.157,-2.966 -34.01,-8.805 -49.883,-16.407c-20.547,-9.841 -36.94,-22.69 -59.833,-27.684c-2.739,-0.598 -5.51,-1.098 -8.304,-1.527Zm53.65,-8.109c8.399,4.521 16.764,9.305 25.826,13.645c12.425,5.951 25.568,10.776 38.959,13.536c-1.432,-2.895 -3.036,-5.723 -4.692,-8.531c-1.68,-2.85 -3.419,-5.679 -5.155,-8.509c-10.248,-1.4 -20.35,-3.567 -29.905,-5.85c-8.212,-1.963 -16.637,-3.072 -25.033,-4.291Zm128.459,-49.593c-4.344,4.682 -8.933,9.147 -14.109,13.075c-13.152,9.98 -29.052,15.763 -45.692,18.009c0.73,1.476 1.502,2.935 2.302,4.383c13.538,0.762 26.823,-1.08 38.386,-8.488c9.611,-6.159 14.677,-16.208 19.113,-26.979Zm43.419,-30.376c-6.429,8.016 -10.319,18.02 -14.207,27.97c1.353,13.78 2.304,27.98 1.573,41.561c3.084,-6.059 5.641,-12.466 8.077,-18.963c5.077,-13.533 9.665,-27.473 15.797,-40.539c-5.591,-0.657 -10.004,-4.779 -11.24,-10.029Zm117.204,68.281c-14.317,0.241 -26.664,-4.915 -38.155,-12.656c-0.713,2.679 -1.504,5.322 -2.376,7.92c9.498,12.773 26.484,20.287 43.11,20.903c-1.215,-5.204 -2.09,-10.585 -2.579,-16.167Zm108.063,-29.409c-8.224,5.878 -16.347,11.871 -23.545,19.101c-6.74,6.771 -12.443,14.852 -18.702,22.311c-7.66,9.129 -16.098,17.366 -26.896,22.748c-0.374,0.186 -0.749,0.369 -1.127,0.548c8.421,15.516 20.425,29.199 33.203,42.541c22.354,-15.648 27.834,-36.699 30.906,-59.074c2.153,-15.683 3.126,-32.027 6.161,-48.175Zm8.118,155.077c7.584,-7.848 14.616,-16.23 19.656,-26.505c17.521,-35.721 14.233,-76.011 11.89,-114.619c-0.913,-15.056 -1.953,-30.088 -3.384,-45.08c-0.184,0.227 -0.365,0.451 -0.543,0.669c-2.876,9.518 -6.392,19.134 -8.822,29.893c-5.013,22.185 -5.075,44.988 -9.363,66.008c-4.673,22.911 -13.86,43.873 -36.09,60.777c9.205,9.405 18.309,18.908 26.656,28.857Zm-237.72,-30.493c24.296,-4.048 49.368,-3.091 74.546,-1.662c31.326,1.777 62.822,4.338 92.824,-4.163c-13.517,-14.758 -25.605,-30.185 -34.036,-47.487c-23.044,1.63 -47.898,-6.215 -64.699,-21.416c-1.519,2.181 -3.137,4.28 -4.859,6.288c-10.517,12.255 -23.149,21.751 -35.101,31.874c-10.098,8.554 -19.727,17.562 -26.095,30.283c-1.028,2.053 -1.873,4.151 -2.58,6.283Zm-118.465,105.583c19.507,3.718 39.816,1.124 54.879,-12.509c16.088,-14.56 24.74,-34.204 29.884,-54.809c-17.278,8.479 -33.299,20.011 -47.302,32.944c-12.458,11.506 -24.619,23.798 -37.461,34.374Zm-9.648,-108.179c-8.123,-0.165 -16.269,-0.664 -24.42,-1.282c2.616,3.582 5.104,7.244 7.442,10.998c5.742,-3.108 11.447,-6.268 16.978,-9.716Zm-28.218,46.098c-0.557,0.349 -1.112,0.701 -1.666,1.056c-5.371,3.441 -11.261,7.559 -15.205,12.767c-2.471,3.265 -4.066,7.065 -2.84,11.614c2.445,9.071 10.847,15.491 18.81,20.573c4.692,-11.234 7.161,-22.887 3.936,-35.953c-0.851,-3.446 -1.869,-6.796 -3.035,-10.057Zm74.903,-115.627c3.139,5.858 5.842,11.882 7.727,18.224c10.421,-0.532 20.788,-2.693 30.886,-6.914c4.969,-9.04 7.246,-19.559 8.105,-30.669c-2.802,2.77 -5.889,5.283 -9.325,7.485c-11.437,7.328 -24.196,10.808 -37.393,11.874Zm118.105,-64.943c-4.638,10.866 -8.175,22.347 -12.321,33.399c-9.632,25.68 -21.94,49.306 -49.206,63.432c-1.834,2.555 -3.845,5.007 -6.044,7.344c-13.139,13.956 -32.614,22.064 -51.694,26.305c-2.772,3.397 -5.896,6.586 -9.212,9.589c-12.498,11.322 -26.948,19.336 -41.474,27.296c2.174,5.449 4.012,11.097 5.462,16.97c2.698,10.928 2.693,21.186 0.916,31.051c9.488,-8.471 18.67,-17.7 28.082,-26.393c19.817,-18.303 43.257,-34.032 68.515,-43.783c0.696,-0.269 1.394,-0.532 2.092,-0.789c1.397,-8.724 3.279,-17.327 7.314,-25.387c8.044,-16.069 19.846,-27.757 32.603,-38.562c10.903,-9.235 22.551,-17.759 32.145,-28.939c3.063,-3.57 5.68,-7.502 7.903,-11.71c-6.523,-12.115 -11.386,-25.916 -15.081,-39.823Zm-917.908,-91.969c4.093,-5.977 12.268,-7.506 18.245,-3.412c5.976,4.093 7.505,12.268 3.412,18.245c-17.923,26.168 -40.492,58.75 -43.24,91.63c-2.553,30.554 11.685,55 25.951,79.319c16.787,28.619 33.754,57.071 33.879,91.46c0.104,28.409 -8.927,52.947 -19.729,76.97c-9.695,21.559 -20.891,42.661 -26.3,66.53c-9.729,42.928 4.688,78.881 10.75,121.081c1.03,7.17 -3.955,13.828 -11.125,14.858c-7.17,1.03 -13.828,-3.955 -14.858,-11.125c-6.535,-45.487 -20.854,-84.343 -10.368,-130.616c5.804,-25.612 17.557,-48.36 27.96,-71.494c9.294,-20.669 17.51,-41.666 17.421,-66.108c-0.108,-29.591 -15.827,-53.649 -30.272,-78.274c-16.967,-28.925 -32.504,-58.446 -29.468,-94.787c3.11,-37.218 27.455,-74.657 47.742,-104.277Zm49.642,26.727c3.007,-6.591 10.799,-9.5 17.39,-6.493c6.59,3.007 9.499,10.799 6.492,17.389c-7.914,17.345 -18.218,37.498 -24.846,58.338c-5.936,18.664 -9.059,37.901 -3.157,55.82c4.316,13.1 13.173,23.426 21.204,34.261c10.152,13.695 19.223,28.006 21.741,46.374c2.309,16.846 -1.142,32.875 -5.678,48.799c-3.775,13.252 -8.377,26.409 -9.164,40.186c-0.413,7.232 -6.621,12.768 -13.853,12.354c-7.232,-0.413 -12.768,-6.62 -12.354,-13.852c0.897,-15.705 5.823,-30.774 10.126,-45.88c3.541,-12.433 6.719,-24.889 4.916,-38.042c-1.879,-13.703 -9.249,-24.09 -16.822,-34.307c-9.693,-13.076 -19.84,-25.87 -25.048,-41.68c-6.157,-18.691 -5.391,-38.499 -0.777,-58.134c6.275,-26.704 19.777,-53.099 29.83,-75.133Z" style="fill:#ffdf98;"/><path d="M311.942,326.476c38.056,1.728 749.909,-7.995 765.781,0.119c11.162,5.706 2.849,34.863 0.454,43.741c-4.96,18.389 -15.25,35.088 -18.503,53.964c-5.353,31.064 2.48,56.864 -22.228,82.279c-24.516,25.218 -56.392,23.755 -88.713,24.193c-30.609,0.414 -61.63,2.297 -91.423,9.817c-27.408,6.917 -51.339,24.13 -75.031,38.833c-30.05,18.649 -65.1,36.663 -100.915,39.21c-45.207,3.216 -96.261,-11.538 -128.578,-44.046c-29.16,-29.333 -43.624,-67.01 -80.801,-88.534c-38.832,-22.481 -91.543,-14.282 -126.013,-44.327c-10.061,-8.769 -17.194,-20.109 -23.154,-31.913c-5.749,-11.386 -8.06,-24.034 -10.485,-36.465c-3.001,-15.384 -1.673,-31.376 -0.391,-46.871Zm800.664,55.891c6.83,-0.684 117.764,-0.188 117.818,3.041c0.166,9.859 -2.162,19.646 -4.778,29.08c-6.174,22.265 -3.903,45.689 -9.388,68.007c-3.074,12.507 -8.445,25.335 -20.483,31.589c-11.662,6.059 -27.896,2.146 -36.233,-7.826c-12.489,-14.938 -9.346,-34.611 -15.643,-51.699c-8.322,-22.582 -37.803,-29.631 -34.682,-57.419c0.568,-5.061 1.583,-10.001 3.389,-14.773Zm-1082.58,-14.079c7.92,-1.241 162.746,5.673 162.344,7.28c-1.073,4.282 -2.794,8.37 -3.822,12.674c-1.594,6.672 -1.667,13.612 -2.743,20.37c-1.875,11.785 -6.023,24.995 -14.989,33.36c-7.036,6.564 -16.023,11.017 -25.048,14.11c-7.005,2.4 -14.394,3.955 -20.87,7.673c-6.323,3.63 -11.442,8.484 -15.543,14.515c-5.503,8.094 -10.031,18.679 -19.767,22.652c-3.778,1.542 -7.668,1.455 -11.623,0.682c-2.691,-0.525 -5.312,-1.464 -7.777,-2.655c-16.582,-8.01 -16.3,-28.023 -24.307,-42.256c-5.166,-9.181 -12.589,-16.832 -16.917,-26.494c-3.088,-6.896 -5.543,-13.943 -6.273,-21.496c-0.333,-3.449 0.202,-6.977 0.496,-10.413c0.88,-10.295 3.409,-20.275 6.839,-30.002Z" style="fill:#a82801;"/><path d="M371.479,343.13c26.837,-0.55 663.116,6.093 672.044,13.537c7.401,6.172 -0.453,21.36 -2.498,29.429c-6.81,26.871 -13.276,68.081 -38.974,83.873c-10.857,6.671 -24.715,9.091 -37.01,11.551c-42.421,8.488 -86.443,-0.536 -128.28,10.828c-49.383,13.414 -85.734,61.556 -137.382,67.651c-52.452,6.19 -77.667,-39.404 -111.289,-69.219c-12.173,-10.794 -26.941,-18.868 -42.383,-23.878c-56.878,-18.452 -144.406,-21.34 -168.493,-88.132c-4.111,-11.401 -5.239,-23.621 -5.735,-35.64Zm756.783,39.758c7.573,-1.14 94.422,4.148 94.272,6.059c-0.514,6.578 -1.756,12.605 -5.211,18.302c-3.954,6.518 -8.291,12.509 -9.784,20.13c-2.378,12.137 0.999,25.4 -0.198,37.812c-0.827,8.582 -3.925,21.463 -12.805,25.314c-8.495,3.683 -17.756,-3.013 -21.289,-10.378c-6.214,-12.959 -1.684,-28.898 -8.978,-41.74c-8.024,-14.129 -26.902,-17.922 -33.876,-32.555c-3.311,-6.948 -2.441,-15.505 -2.131,-22.944Zm-957.665,-7.253c0.966,7.912 1.288,15.985 0.863,23.946c-0.37,6.928 -1.18,13.796 -2.937,20.515c-7.061,27.004 -37.333,20.79 -59.147,31.738c-12.028,6.036 -23.944,37.12 -38.458,24.367c-10.371,-9.114 -4.174,-24.787 -7.644,-36.372c-4.926,-16.444 -17.323,-27.945 -13.617,-46.521c1.587,-7.957 3.526,-14.348 12.153,-16.595c4.523,-1.179 91.259,-3.03 108.787,-1.078Z" style="fill:#c4360a;"/><path d="M740.615,495.689c8.552,-0 15.495,6.943 15.495,15.495c0,8.552 -6.943,15.496 -15.495,15.496c-8.553,-0 -15.496,-6.944 -15.496,-15.496c0,-8.552 6.943,-15.495 15.496,-15.495Zm31.112,-24.498c6.201,-0 11.235,5.034 11.235,11.235c0,6.201 -5.034,11.236 -11.235,11.236c-6.201,-0 -11.236,-5.035 -11.236,-11.236c0,-6.201 5.035,-11.235 11.236,-11.235Zm-261.68,-82.592c12.941,-0 23.446,10.506 23.446,23.446c0,12.94 -10.505,23.446 -23.446,23.446c-12.94,0 -23.446,-10.506 -23.446,-23.446c0,-12.94 10.506,-23.446 23.446,-23.446Zm56.101,23.446c6.47,0 11.723,5.253 11.723,11.723c-0,6.47 -5.253,11.723 -11.723,11.723c-6.47,0 -11.723,-5.253 -11.723,-11.723c-0,-6.47 5.253,-11.723 11.723,-11.723Zm436.085,11.723c5.024,0 9.103,4.079 9.103,9.103c0,5.024 -4.079,9.103 -9.103,9.103c-5.024,0 -9.103,-4.079 -9.103,-9.103c0,-5.024 4.079,-9.103 9.103,-9.103Zm-52.59,-11.723c10.98,0 19.894,8.914 19.894,19.894c0,10.98 -8.914,19.895 -19.894,19.895c-10.98,-0 -19.894,-8.915 -19.894,-19.895c-0,-10.98 8.914,-19.894 19.894,-19.894Zm242.057,39.789c3.95,-0 7.157,3.207 7.157,7.157c0,3.95 -3.207,7.157 -7.157,7.157c-3.95,-0 -7.157,-3.207 -7.157,-7.157c0,-3.95 3.207,-7.157 7.157,-7.157Zm-11.189,-33.486c6.519,0 11.813,5.293 11.813,11.813c-0,6.52 -5.294,11.813 -11.813,11.813c-6.52,0 -11.813,-5.293 -11.813,-11.813c-0,-6.52 5.293,-11.813 11.813,-11.813Zm-1052.25,0c4.008,0 7.261,3.254 7.261,7.262c0,4.007 -3.253,7.261 -7.261,7.261c-4.008,0 -7.261,-3.254 -7.261,-7.261c-0,-4.008 3.253,-7.262 7.261,-7.262Zm-33.103,-29.789c10.224,-0 18.525,8.301 18.525,18.525c0,10.225 -8.301,18.526 -18.525,18.526c-10.225,-0 -18.526,-8.301 -18.526,-18.526c0,-10.224 8.301,-18.525 18.526,-18.525Z" style="fill:#a82801;"/><path d="M1116.27,421.114c-4.964,-6.397 -8.197,-13.794 -7.053,-23.974c0.568,-5.061 1.583,-10.001 3.389,-14.773c6.83,-0.684 117.764,-0.188 117.818,3.041c0.166,9.859 -2.162,19.646 -4.778,29.08c-0.61,2.198 -1.137,4.407 -1.597,6.626l-107.779,-0Zm-787.201,-0c-2.248,-3.67 -4.312,-7.462 -6.251,-11.302c-5.749,-11.386 -8.06,-24.034 -10.485,-36.465c-3.001,-15.384 -1.673,-31.376 -0.391,-46.871c38.056,1.728 749.909,-7.995 765.781,0.119c11.162,5.706 2.849,34.863 0.454,43.741c-4.679,17.348 -14.102,33.191 -17.885,50.778l-731.223,-0Zm-303.672,-0c-1.322,-4.018 -2.289,-8.133 -2.702,-12.411c-0.333,-3.449 0.202,-6.977 0.496,-10.413c0.88,-10.295 3.409,-20.275 6.839,-30.002c7.92,-1.241 162.746,5.673 162.344,7.28c-1.073,4.282 -2.794,8.37 -3.822,12.674c-1.594,6.672 -1.667,13.612 -2.743,20.37c-0.649,4.083 -1.572,8.337 -2.873,12.502l-157.539,-0Z" style="fill:#501300;fill-opacity:0.25;"/><path d="M664.202,473.382c1.254,3.974 -0.953,8.219 -4.927,9.473l-36.371,11.482c-3.973,1.255 -8.218,-0.953 -9.473,-4.927l-4.546,-14.4c-1.255,-3.974 0.953,-8.218 4.927,-9.473l36.37,-11.482c3.974,-1.255 8.219,0.953 9.473,4.927l4.547,14.4Zm152.485,-83.148c1.555,-3.866 5.956,-5.743 9.822,-4.189l35.387,14.227c3.866,1.555 5.743,5.956 4.189,9.822l-5.633,14.011c-1.555,3.866 -5.956,5.743 -9.822,4.189l-35.387,-14.227c-3.866,-1.555 -5.743,-5.956 -4.189,-9.822l5.633,-14.011Zm-738.862,59.828c1.002,-2.493 3.841,-3.704 6.334,-2.701l22.822,9.175c2.493,1.003 3.704,3.841 2.701,6.335l-3.633,9.035c-1.002,2.494 -3.84,3.704 -6.334,2.702l-22.821,-9.176c-2.494,-1.002 -3.704,-3.84 -2.702,-6.334l3.633,-9.036Zm1091.54,-30.352c0.741,2.583 -0.755,5.282 -3.338,6.023l-23.643,6.782c-2.584,0.741 -5.283,-0.754 -6.024,-3.338l-2.685,-9.361c-0.741,-2.583 0.755,-5.282 3.338,-6.023l23.643,-6.782c2.584,-0.741 5.283,0.754 6.024,3.338l2.685,9.361Zm-761.049,-34.879c0.024,0.13 0.045,0.262 0.062,0.395l4.95,37.818c0.541,4.132 -2.375,7.925 -6.507,8.466l-14.973,1.96c-4.132,0.541 -7.925,-2.375 -8.466,-6.507l-4.95,-37.817c-0.541,-4.132 2.375,-7.926 6.507,-8.466l14.973,-1.96c3.999,-0.524 7.681,2.19 8.404,6.111Z" style="fill:#501300;fill-opacity:0.5;"/><g><path d="M657.425,451.72c-1.254,-3.974 -5.499,-6.181 -9.473,-4.927l-36.37,11.482c-3.974,1.255 -6.182,5.5 -4.927,9.474l4.546,14.4c1.255,3.974 5.499,6.181 9.473,4.927l36.371,-11.482c3.973,-1.255 6.181,-5.5 4.927,-9.474l-4.547,-14.4Z" style="fill:#658933;"/><path d="M609.68,477.332c1.255,3.974 5.5,6.182 9.474,4.927l36.37,-11.482c3.974,-1.255 6.182,-5.499 4.927,-9.473l1.521,4.816c1.254,3.974 -0.954,8.219 -4.927,9.474l-36.371,11.482c-3.974,1.254 -8.218,-0.953 -9.473,-4.927l-1.521,-4.817Z" style="fill:#4c632b;"/></g><g><path d="M869.112,402.523c1.554,-3.867 -0.322,-8.268 -4.189,-9.822l-35.387,-14.228c-3.866,-1.554 -8.267,0.323 -9.822,4.189l-5.633,14.011c-1.554,3.866 0.323,8.268 4.189,9.822l35.387,14.227c3.866,1.555 8.267,-0.322 9.822,-4.189l5.633,-14.01Z" style="fill:#658933;"/><path d="M815.965,391.987c-1.554,3.866 0.323,8.267 4.189,9.822l35.387,14.227c3.867,1.554 8.268,-0.323 9.822,-4.189l-1.884,4.686c-1.555,3.867 -5.956,5.744 -9.822,4.189l-35.387,-14.227c-3.866,-1.554 -5.743,-5.956 -4.189,-9.822l1.884,-4.686Z" style="fill:#4c632b;"/></g><g><path d="M111.205,459.096c1.002,-2.494 -0.208,-5.332 -2.702,-6.335l-22.821,-9.175c-2.494,-1.003 -5.332,0.208 -6.335,2.701l-3.632,9.036c-1.003,2.494 0.207,5.332 2.701,6.334l22.821,9.176c2.494,1.002 5.332,-0.208 6.335,-2.702l3.633,-9.035Z" style="fill:#658933;"/><path d="M76.93,452.301c-1.003,2.493 0.208,5.332 2.701,6.334l22.822,9.175c2.493,1.003 5.331,-0.208 6.334,-2.701l-1.215,3.022c-1.003,2.494 -3.841,3.704 -6.335,2.702l-22.821,-9.176c-2.494,-1.002 -3.704,-3.84 -2.701,-6.334l1.215,-3.022Z" style="fill:#4c632b;"/></g><g><path d="M1165.48,406.213c-0.741,-2.583 -3.44,-4.079 -6.024,-3.338l-23.643,6.783c-2.583,0.741 -4.079,3.44 -3.338,6.023l2.685,9.361c0.742,2.583 3.44,4.079 6.024,3.338l23.643,-6.782c2.583,-0.741 4.079,-3.44 3.338,-6.024l-2.685,-9.361Z" style="fill:#658933;"/><path d="M1134.26,421.911c0.741,2.583 3.44,4.079 6.024,3.338l23.643,-6.782c2.583,-0.742 4.079,-3.44 3.338,-6.024l0.898,3.131c0.741,2.584 -0.755,5.283 -3.338,6.024l-23.643,6.782c-2.584,0.741 -5.282,-0.755 -6.024,-3.338l-0.898,-3.131Z" style="fill:#4c632b;"/></g><g><path d="M384.043,374.183c-4.132,0.54 -7.048,4.334 -6.507,8.466l4.95,37.817c0.541,4.132 4.334,7.048 8.466,6.507l14.973,-1.96c4.132,-0.541 7.048,-4.334 6.507,-8.466l-4.95,-37.818c-0.541,-4.131 -4.334,-7.047 -8.466,-6.506l-14.973,1.96Z" style="fill:#658933;"/><path d="M381.783,415.093c0.723,3.921 4.405,6.634 8.404,6.111l14.973,-1.96c4.132,-0.541 7.047,-4.334 6.506,-8.466l-4.246,-32.444c0.024,0.13 0.045,0.262 0.062,0.395l4.95,37.818c0.541,4.132 -2.375,7.925 -6.507,8.466l-14.973,1.96c-4.132,0.541 -7.925,-2.375 -8.466,-6.507l-0.703,-5.373Z" style="fill:#4c632b;"/></g></g><g><path d="M1240.7,294.053l-0,71.004l-1231.4,0l0,-71.004c0,-162.292 131.761,-294.053 294.054,-294.053l643.296,0c162.293,0 294.054,131.761 294.054,294.053Z" style="fill:#949fa9;"/><path d="M946.648,0c162.293,0 294.054,131.761 294.054,294.053l-0,71.004l-38.089,0c-2.023,-197.979 -80.301,-296.813 -255.965,-365.057Zm-870.636,365.057l-66.714,0l0,-71.004c0,-162.292 131.761,-294.053 294.054,-294.053c-139.546,50.272 -219.992,128.337 -226.755,362.898l-0.585,2.159Z" style="fill:#8694a1;"/><path d="M427.162,207.098c-0,-122.523 16.697,-183.746 152.282,-183.746l279.658,0c135.585,0 249.861,58.846 283.8,183.746l-715.74,-0Z" style="fill:#a4afba;"/><path d="M1235.07,234.394c3.693,18.598 5.63,37.825 5.63,57.5l-0,71.004l-1231.4,0l0,-71.004c0,-19.675 1.937,-38.902 5.63,-57.5l1220.14,0Z" style="fill:#8694a1;"/><rect x="0" y="286.949" width="1250" height="113.935" style="fill:#636e79;"/><path d="M1250,284.397c0,-9.96 -8.087,-18.047 -18.047,-18.047l-1213.91,0c-9.96,0 -18.047,8.087 -18.047,18.047l-0,77.841c-0,9.96 8.087,18.047 18.047,18.047l1213.91,-0c9.96,-0 18.047,-8.087 18.047,-18.047l0,-77.841Z" style="fill:#aab3bc;"/><path d="M1224.36,313.373c-0,-4.28 -3.475,-7.755 -7.755,-7.755l-1091.88,0c-4.28,0 -7.755,3.475 -7.755,7.755l-0,33.448c-0,4.28 3.475,7.755 7.755,7.755l1091.88,-0c4.28,-0 7.755,-3.475 7.755,-7.755l-0,-33.448Z" style="fill:#bac4cc;"/></g></g></svg>