<?xml version="1.0" encoding="UTF-8" standalone="no"?>
<!DOCTYPE svg PUBLIC "-//W3C//DTD SVG 1.1//EN" "http://www.w3.org/Graphics/SVG/1.1/DTD/svg11.dtd">
<svg width="100%" height="100%" viewBox="0 0 300 345" version="1.1" xmlns="http://www.w3.org/2000/svg" xmlns:xlink="http://www.w3.org/1999/xlink" xml:space="preserve" xmlns:serif="http://www.serif.com/" style="fill-rule:evenodd;clip-rule:evenodd;stroke-linejoin:round;stroke-miterlimit:2;">
    <g>
        <g>
            <g transform="matrix(1,0,0,1,0,4.07005)">
                <path d="M0,81.38L300,81.38L300,160.894L188.566,121.036C191.75,125.3 192.196,126.315 197.832,131.365C198.459,131.939 198.829,132.741 198.859,133.59C198.89,134.439 198.578,135.265 197.994,135.882C196.046,137.974 195.33,138.849 193.496,140.788C192.236,142.12 187.82,145.272 186.021,144.915C182.821,144.273 180.077,143.154 177.653,141.69C176.957,141.254 176.064,141.296 175.412,141.796C174.761,142.296 174.489,143.148 174.73,143.933C175.522,146.597 176.604,149.025 178.087,151.125C179.327,152.755 179.142,155.058 177.657,156.468C175.121,158.978 169.242,164.667 166.903,166.889C165.606,168.122 163.666,168.387 162.086,167.547C140.935,156.202 137.585,133.063 135.608,112.802C131.438,112.748 129.247,112.726 125.072,112.696L120.599,106.35C120.171,105.743 119.444,105.418 118.706,105.503C117.967,105.589 117.334,106.071 117.056,106.761L114.682,112.648C113.576,112.646 112.47,112.644 111.363,112.644L106.697,103.96C106.292,103.297 105.537,102.932 104.766,103.026C103.995,103.12 103.35,103.657 103.117,104.398L100.519,112.656C81.553,112.747 63.588,113.071 44.534,113.659L0,174.271L0,81.38Z" style="fill:#cf936a;"/>
            </g>
            <path d="M300,160.894L154.217,108.75L300,81.38L300,160.894Z" style="fill:#e7b893;"/>
            <g transform="matrix(0.856484,-0.516173,0.516173,0.856484,-53.0419,91.5245)">
                <path d="M164.338,171.058C164.559,173.094 163.212,174.97 161.212,175.412C157.745,176.252 152.628,177.382 149.478,178.078C147.731,178.464 145.932,177.69 145.013,176.155C124.553,141.717 168.215,107.632 159.698,83.233L205.168,83.233C217.89,126.09 178.788,125.378 190.79,164.489C191.03,165.304 190.934,166.181 190.521,166.924C190.109,167.667 189.416,168.214 188.597,168.441C185.849,169.227 181.928,170.315 179.356,171.029C177.59,171.519 175.695,171.068 174.339,169.834C171.93,167.632 170.157,165.257 168.837,162.753C168.466,162.02 167.679,161.594 166.863,161.686C166.047,161.778 165.374,162.368 165.176,163.165C164.479,165.855 164.152,168.493 164.338,171.058Z" style="fill:#e8d8c7;"/>
            </g>
            <g transform="matrix(0.809093,-0.587681,-0.587681,-0.809093,32.9142,264.218)">
                <path d="M164.338,171.058C164.559,173.094 163.212,174.97 161.212,175.412C157.745,176.252 152.628,177.382 149.478,178.078C147.731,178.464 145.932,177.69 145.013,176.155C124.553,141.717 168.215,107.632 159.698,83.233L205.168,83.233C217.89,126.09 178.788,125.378 190.79,164.489C191.03,165.304 190.934,166.181 190.521,166.924C190.109,167.667 189.416,168.214 188.597,168.441C185.849,169.227 181.928,170.315 179.356,171.029C177.59,171.519 175.695,171.068 174.339,169.834C171.93,167.632 170.157,165.257 168.837,162.753C168.466,162.02 167.679,161.594 166.863,161.686C166.047,161.778 165.374,162.368 165.176,163.165C164.479,165.855 164.152,168.493 164.338,171.058Z" style="fill:#e7b893;"/>
            </g>
            <path d="M0,172.5L0,81.38C0,61.301 16.301,45 36.38,45L92.924,45L0,172.5Z" style="fill:#e7b893;"/>
            <path d="M0,148.97L0,81.38C0,61.301 16.301,45 36.38,45L92.924,45L0,148.97Z" style="fill:#e8d8c7;"/>
            <path d="M99.892,112.668C66.729,112.826 33.43,113.754 0,115.424L0,81.38C0,61.301 16.301,45 36.38,45L263.62,45C283.699,45 300,61.301 300,81.38L300,121.465C242.143,115.98 183.824,113.112 125.072,112.696C125.072,112.696 122.533,109.094 120.599,106.35C120.171,105.743 119.444,105.418 118.706,105.503C117.967,105.589 117.334,106.071 117.056,106.761C115.983,109.422 114.682,112.648 114.682,112.648C113.576,112.646 112.47,112.644 111.363,112.644C111.363,112.644 108.298,107.622 106.07,103.971C105.665,103.308 104.91,102.943 104.139,103.037C103.368,103.132 102.723,103.668 102.49,104.409C101.355,108.018 99.892,112.668 99.892,112.668Z" style="fill:#daa682;"/>
            <path d="M20.221,100.848C13.489,101.529 6.749,102.253 0,103.023L0,81.38C0,61.301 16.301,45 36.38,45L263.62,45C283.699,45 300,61.301 300,81.38L300,92.212C211.341,90.422 122.196,91.221 31.604,99.738C31.604,99.738 27.156,95.183 24.071,92.022C23.554,91.493 22.777,91.315 22.081,91.565C21.386,91.816 20.902,92.45 20.842,93.187C20.566,96.586 20.221,100.848 20.221,100.848Z" style="fill:#e7b893;"/>
            <path d="M193.526,90.11C130.375,82.447 65.813,79.724 0,81.38C0,61.301 16.301,45 36.38,45L263.62,45C283.699,45 300,61.301 300,81.38L300,108.111C293.095,106.598 286.171,105.151 279.229,103.77C279.229,103.77 277.017,95.836 275.567,90.633C275.311,89.715 274.586,89.001 273.664,88.759C272.742,88.517 271.76,88.782 271.086,89.457C266.956,93.586 260.357,100.186 260.357,100.186C250.616,98.422 240.84,96.785 231.028,95.272C231.028,95.272 228.446,89.856 226.746,86.289C226.365,85.488 225.674,84.877 224.833,84.596C223.992,84.314 223.073,84.386 222.286,84.796C218.971,86.521 214.097,89.058 214.097,89.058C214.097,89.058 211.184,80.096 209.305,74.312C209.012,73.411 208.233,72.754 207.295,72.617C206.357,72.48 205.423,72.887 204.884,73.666C200.731,79.679 193.526,90.11 193.526,90.11Z" style="fill:#e8d8c7;"/>
        </g>
    </g>
</svg>
