<?xml version="1.0" encoding="UTF-8" standalone="no"?><!DOCTYPE svg PUBLIC "-//W3C//DTD SVG 1.1//EN" "http://www.w3.org/Graphics/SVG/1.1/DTD/svg11.dtd"><svg width="100%" height="100%" viewBox="0 0 300 345" version="1.1" xmlns="http://www.w3.org/2000/svg" xmlns:xlink="http://www.w3.org/1999/xlink" xml:space="preserve" xmlns:serif="http://www.serif.com/" style="fill-rule:evenodd;clip-rule:evenodd;stroke-linejoin:round;stroke-miterlimit:2;"><g id="SnakeHat"><path d="M21.618,43.62c1.04,-6.695 2.118,-13.241 3.337,-19.223c0.682,-3.35 2.535,-7.439 5.073,-9.945c5.558,-5.488 11.386,-9.642 21.425,-12.414c2.348,-0.649 8.979,-2.038 16.686,-2.038l15.351,0c6.459,0 11.608,0.748 15.886,2.038c5.207,1.569 9.436,3.787 13.015,7.542c3.426,3.593 6.722,7.737 8.877,12.748c1.419,3.299 3.341,7.349 5.14,11.28c7.967,1.721 17.573,3.018 26.965,4.405l2.269,4.472c-19.116,13.852 -39.261,23.792 -61.021,28.156c-37.405,7.5 -75.798,1.13 -94.621,-11.336l0,-4.606l21.618,-11.079Z" style="fill:#c1a37d;"/><path d="M4.752,54.285c-0.267,-0.145 -0.365,-0.479 -0.22,-0.746c0.145,-0.266 0.48,-0.365 0.746,-0.22c0.319,0.174 0.641,0.346 0.965,0.517c0.269,0.141 0.372,0.474 0.231,0.742c-0.141,0.269 -0.474,0.372 -0.743,0.231c-0.329,-0.173 -0.655,-0.347 -0.979,-0.524Zm2.96,1.529c-0.272,-0.133 -0.385,-0.463 -0.252,-0.736c0.134,-0.272 0.463,-0.385 0.736,-0.252c0.651,0.319 1.311,0.631 1.98,0.936c0.277,0.126 0.398,0.453 0.272,0.729c-0.126,0.276 -0.452,0.398 -0.728,0.272c-0.678,-0.31 -1.348,-0.626 -2.008,-0.949Zm4.039,1.844c-0.28,-0.119 -0.41,-0.442 -0.291,-0.722c0.119,-0.279 0.442,-0.409 0.721,-0.29c0.668,0.284 1.344,0.562 2.027,0.833c0.283,0.112 0.421,0.432 0.309,0.714c-0.112,0.282 -0.432,0.421 -0.714,0.309c-0.692,-0.275 -1.376,-0.556 -2.052,-0.844Zm4.123,1.638c-0.285,-0.106 -0.43,-0.422 -0.325,-0.707c0.105,-0.285 0.422,-0.43 0.707,-0.325c0.681,0.252 1.37,0.498 2.065,0.738c0.287,0.099 0.439,0.413 0.34,0.699c-0.099,0.287 -0.412,0.44 -0.699,0.341c-0.703,-0.242 -1.399,-0.491 -2.088,-0.746Zm4.192,1.446c-0.289,-0.092 -0.449,-0.402 -0.356,-0.691c0.093,-0.289 0.403,-0.449 0.692,-0.356c0.693,0.223 1.391,0.439 2.096,0.649c0.291,0.087 0.456,0.394 0.369,0.685c-0.086,0.291 -0.393,0.456 -0.684,0.369c-0.712,-0.212 -1.418,-0.431 -2.117,-0.656Zm4.247,1.269c-0.293,-0.081 -0.464,-0.384 -0.383,-0.676c0.081,-0.293 0.384,-0.465 0.677,-0.384c0.701,0.195 1.408,0.384 2.12,0.566c0.294,0.076 0.472,0.376 0.396,0.67c-0.075,0.294 -0.375,0.471 -0.669,0.396c-0.719,-0.185 -1.433,-0.375 -2.141,-0.572Zm4.292,1.103c-0.296,-0.07 -0.479,-0.367 -0.409,-0.662c0.07,-0.296 0.367,-0.478 0.662,-0.408c0.709,0.168 1.423,0.33 2.141,0.487c0.297,0.065 0.485,0.358 0.42,0.655c-0.065,0.296 -0.358,0.484 -0.654,0.42c-0.725,-0.159 -1.445,-0.322 -2.16,-0.492Zm4.328,0.945c-0.298,-0.059 -0.491,-0.349 -0.432,-0.647c0.06,-0.298 0.35,-0.491 0.647,-0.431c0.715,0.143 1.434,0.28 2.157,0.412c0.299,0.055 0.497,0.342 0.443,0.64c-0.055,0.299 -0.342,0.497 -0.64,0.442c-0.729,-0.133 -1.455,-0.271 -2.175,-0.416Zm4.356,0.796c-0.299,-0.049 -0.502,-0.333 -0.452,-0.632c0.049,-0.3 0.333,-0.502 0.632,-0.453c0.72,0.119 1.443,0.233 2.17,0.342c0.3,0.044 0.507,0.325 0.463,0.625c-0.045,0.3 -0.325,0.507 -0.625,0.463c-0.733,-0.11 -1.462,-0.224 -2.188,-0.345Zm4.38,0.654c-0.301,-0.04 -0.513,-0.317 -0.473,-0.618c0.04,-0.301 0.317,-0.512 0.618,-0.472c0.724,0.096 1.45,0.187 2.18,0.273c0.301,0.035 0.517,0.309 0.482,0.61c-0.035,0.302 -0.309,0.518 -0.61,0.482c-0.736,-0.086 -1.468,-0.178 -2.197,-0.275Zm4.397,0.517c-0.302,-0.031 -0.522,-0.301 -0.491,-0.603c0.03,-0.302 0.301,-0.522 0.603,-0.492c0.726,0.075 1.455,0.144 2.187,0.207c0.302,0.027 0.527,0.294 0.5,0.596c-0.026,0.302 -0.293,0.526 -0.595,0.5c-0.738,-0.064 -1.472,-0.134 -2.204,-0.208Zm4.41,0.384c-0.303,-0.022 -0.531,-0.286 -0.509,-0.588c0.022,-0.303 0.286,-0.531 0.588,-0.509c0.729,0.052 1.46,0.1 2.193,0.142c0.303,0.018 0.535,0.278 0.518,0.581c-0.018,0.303 -0.278,0.535 -0.581,0.517c-0.739,-0.042 -1.475,-0.09 -2.209,-0.143Zm4.419,0.255c-0.303,-0.013 -0.539,-0.27 -0.525,-0.573c0.013,-0.303 0.27,-0.539 0.573,-0.526c0.73,0.032 1.462,0.059 2.196,0.08c0.303,0.009 0.543,0.262 0.534,0.566c-0.009,0.303 -0.263,0.542 -0.566,0.533c-0.739,-0.021 -1.476,-0.048 -2.212,-0.08Zm4.424,0.13c-0.303,-0.005 -0.546,-0.255 -0.541,-0.559c0.004,-0.303 0.255,-0.546 0.558,-0.541c0.731,0.011 1.464,0.017 2.198,0.018c0.303,-0 0.549,0.247 0.549,0.55c-0,0.304 -0.247,0.55 -0.551,0.55c-0.739,-0.001 -1.476,-0.007 -2.213,-0.018Zm4.426,0.005c-0.303,0.004 -0.553,-0.24 -0.557,-0.543c-0.003,-0.304 0.24,-0.553 0.543,-0.557c0.732,-0.009 1.464,-0.024 2.198,-0.043c0.303,-0.008 0.556,0.232 0.564,0.535c0.008,0.304 -0.232,0.557 -0.535,0.565c-0.739,0.019 -1.476,0.034 -2.213,0.043Zm4.425,-0.117c-0.304,0.012 -0.56,-0.224 -0.572,-0.528c-0.012,-0.303 0.224,-0.559 0.527,-0.571c0.731,-0.03 1.463,-0.064 2.196,-0.104c0.303,-0.016 0.562,0.217 0.579,0.52c0.016,0.303 -0.217,0.562 -0.52,0.579c-0.737,0.039 -1.474,0.074 -2.21,0.104Zm4.419,-0.239c-0.303,0.021 -0.566,-0.209 -0.586,-0.511c-0.021,-0.303 0.208,-0.566 0.511,-0.586c0.731,-0.05 1.461,-0.104 2.192,-0.164c0.303,-0.025 0.568,0.201 0.593,0.503c0.025,0.303 -0.201,0.569 -0.504,0.593c-0.735,0.06 -1.471,0.115 -2.206,0.165Zm4.411,-0.36c-0.302,0.029 -0.571,-0.193 -0.6,-0.495c-0.029,-0.302 0.193,-0.571 0.495,-0.6c0.729,-0.069 1.458,-0.144 2.187,-0.224c0.301,-0.033 0.573,0.185 0.606,0.487c0.033,0.302 -0.185,0.574 -0.487,0.607c-0.733,0.08 -1.467,0.155 -2.201,0.225Zm4.399,-0.481c-0.301,0.037 -0.576,-0.178 -0.613,-0.479c-0.037,-0.301 0.177,-0.576 0.479,-0.613c0.726,-0.09 1.453,-0.185 2.179,-0.285c0.301,-0.041 0.578,0.17 0.62,0.47c0.041,0.301 -0.169,0.579 -0.47,0.62c-0.731,0.101 -1.463,0.196 -2.195,0.287Zm4.385,-0.604c-0.3,0.046 -0.581,-0.161 -0.626,-0.461c-0.046,-0.3 0.161,-0.581 0.461,-0.626c0.724,-0.11 1.447,-0.226 2.17,-0.346c0.3,-0.05 0.583,0.153 0.633,0.452c0.05,0.3 -0.153,0.583 -0.452,0.633c-0.728,0.121 -1.457,0.237 -2.186,0.348Zm4.366,-0.727c-0.299,0.054 -0.585,-0.144 -0.639,-0.443c-0.054,-0.299 0.144,-0.585 0.443,-0.639c0.721,-0.131 1.441,-0.266 2.159,-0.407c0.298,-0.059 0.588,0.136 0.646,0.434c0.058,0.297 -0.136,0.587 -0.434,0.645c-0.724,0.142 -1.449,0.279 -2.175,0.41Zm4.344,-0.852c-0.297,0.063 -0.589,-0.127 -0.652,-0.424c-0.062,-0.297 0.128,-0.589 0.425,-0.652c0.212,-0.045 0.423,-0.09 0.635,-0.135c0.504,-0.109 1.008,-0.221 1.51,-0.335c0.296,-0.068 0.591,0.118 0.659,0.414c0.067,0.296 -0.118,0.591 -0.414,0.658c-0.507,0.116 -1.015,0.228 -1.523,0.338c-0.213,0.046 -0.427,0.091 -0.64,0.136Zm4.318,-0.983c-0.295,0.073 -0.593,-0.108 -0.665,-0.403c-0.073,-0.295 0.108,-0.593 0.403,-0.665c0.712,-0.174 1.422,-0.354 2.129,-0.539c0.294,-0.077 0.595,0.099 0.672,0.393c0.077,0.293 -0.099,0.594 -0.393,0.671c-0.713,0.187 -1.429,0.368 -2.146,0.543Zm4.284,-1.121c-0.293,0.081 -0.597,-0.09 -0.678,-0.382c-0.082,-0.293 0.089,-0.596 0.382,-0.678c0.705,-0.197 1.409,-0.4 2.11,-0.608c0.291,-0.086 0.598,0.08 0.684,0.371c0.086,0.291 -0.08,0.597 -0.371,0.684c-0.707,0.21 -1.416,0.414 -2.127,0.613Zm4.245,-1.261c-0.29,0.091 -0.599,-0.07 -0.69,-0.359c-0.091,-0.29 0.07,-0.599 0.36,-0.69c0.699,-0.22 1.395,-0.446 2.089,-0.677c0.288,-0.096 0.6,0.06 0.696,0.348c0.096,0.288 -0.06,0.6 -0.348,0.696c-0.7,0.233 -1.402,0.46 -2.107,0.682Zm4.202,-1.399c-0.287,0.101 -0.601,-0.05 -0.701,-0.336c-0.101,-0.287 0.05,-0.601 0.336,-0.702c0.691,-0.242 1.38,-0.491 2.066,-0.745c0.285,-0.105 0.601,0.041 0.707,0.325c0.105,0.285 -0.04,0.602 -0.325,0.707c-0.692,0.256 -1.386,0.506 -2.083,0.751Zm4.153,-1.537c-0.283,0.11 -0.602,-0.03 -0.712,-0.313c-0.11,-0.283 0.03,-0.602 0.313,-0.712c0.683,-0.266 1.363,-0.537 2.04,-0.814c0.281,-0.114 0.603,0.021 0.717,0.302c0.115,0.281 -0.02,0.602 -0.301,0.717c-0.683,0.279 -1.368,0.552 -2.057,0.82Zm4.1,-1.675c-0.279,0.119 -0.602,-0.01 -0.722,-0.289c-0.119,-0.279 0.01,-0.603 0.289,-0.722c0.674,-0.289 1.344,-0.583 2.011,-0.882c0.277,-0.124 0.603,-0 0.727,0.277c0.124,0.277 0.001,0.602 -0.276,0.727c-0.673,0.301 -1.35,0.598 -2.029,0.889Zm4.041,-1.813c-0.274,0.129 -0.602,0.01 -0.731,-0.264c-0.129,-0.275 -0.011,-0.603 0.264,-0.732c0.663,-0.311 1.323,-0.628 1.98,-0.95c0.272,-0.134 0.602,-0.021 0.736,0.252c0.134,0.272 0.021,0.602 -0.252,0.736c-0.662,0.325 -1.328,0.644 -1.997,0.958Zm3.977,-1.951c-0.27,0.139 -0.602,0.032 -0.74,-0.239c-0.138,-0.27 -0.031,-0.601 0.239,-0.74c0.652,-0.334 1.301,-0.673 1.945,-1.018c0.268,-0.143 0.602,-0.042 0.745,0.226c0.143,0.268 0.042,0.601 -0.226,0.744c-0.651,0.348 -1.305,0.69 -1.963,1.027Zm3.907,-2.088c-0.265,0.148 -0.6,0.053 -0.748,-0.212c-0.148,-0.266 -0.052,-0.601 0.213,-0.749c0.64,-0.356 1.276,-0.718 1.908,-1.085c0.263,-0.153 0.6,-0.063 0.752,0.199c0.152,0.263 0.063,0.6 -0.199,0.752c-0.638,0.371 -1.28,0.736 -1.926,1.095Zm3.831,-2.224c-0.26,0.157 -0.598,0.073 -0.755,-0.186c-0.157,-0.26 -0.074,-0.599 0.186,-0.756c0.627,-0.379 1.249,-0.763 1.868,-1.153c0.257,-0.162 0.597,-0.084 0.759,0.173c0.161,0.256 0.084,0.596 -0.173,0.758c-0.624,0.393 -1.252,0.781 -1.885,1.164Zm3.749,-2.362c-0.254,0.167 -0.595,0.096 -0.761,-0.158c-0.167,-0.254 -0.096,-0.595 0.158,-0.761c0.613,-0.402 1.221,-0.809 1.825,-1.221c0.251,-0.171 0.593,-0.106 0.764,0.145c0.171,0.25 0.106,0.593 -0.144,0.764c-0.61,0.416 -1.224,0.826 -1.842,1.231Zm3.66,-2.496c-0.247,0.175 -0.591,0.117 -0.766,-0.131c-0.176,-0.247 -0.118,-0.591 0.13,-0.767c0.597,-0.423 1.19,-0.852 1.778,-1.287c0.244,-0.18 0.589,-0.128 0.769,0.116c0.18,0.245 0.128,0.589 -0.116,0.769c-0.594,0.439 -1.192,0.872 -1.795,1.3Zm3.565,-2.632c-0.24,0.185 -0.586,0.139 -0.771,-0.101c-0.185,-0.241 -0.139,-0.587 0.101,-0.772c0.291,-0.223 0.58,-0.447 0.868,-0.672c0.239,-0.187 0.585,-0.145 0.772,0.094c0.187,0.239 0.145,0.585 -0.094,0.772c-0.291,0.228 -0.583,0.454 -0.876,0.679Z" style="fill:#8d6d43;"/><path d="M21.618,43.62c1.04,-6.695 2.118,-13.241 3.337,-19.223c0.682,-3.35 2.535,-7.439 5.073,-9.945c5.558,-5.488 11.386,-9.642 21.425,-12.414c2.348,-0.649 8.979,-2.038 16.686,-2.038l15.351,0c6.459,0 11.608,0.748 15.886,2.038c5.207,1.569 9.436,3.787 13.015,7.542c3.426,3.593 6.722,7.737 8.877,12.748c1.419,3.299 3.341,7.349 5.14,11.28c-4.628,10.018 -29.118,22.42 -57.367,22.327c-33.794,-0.112 -37.421,-3.879 -47.423,-12.315Z" style="fill:#c1a37d;"/><path d="M26.895,18.909c0.85,-1.68 1.912,-3.251 3.133,-4.457c5.558,-5.488 11.386,-9.642 21.425,-12.414c2.348,-0.649 8.979,-2.038 16.686,-2.038l15.351,0c6.459,0 11.608,0.748 15.886,2.038c5.207,1.569 9.436,3.787 13.015,7.542c0.576,0.604 1.148,1.223 1.711,1.86c-11.035,9.379 -27.542,12.855 -41.291,13.964c-16.322,1.315 -37.913,-0.516 -45.916,-6.495Z" style="fill:#cbb294;"/><path d="M0,54.699c23.416,15.382 67.623,17.937 97.81,10.952c19.252,-4.455 38.564,-13.692 55.563,-27.638l2.269,4.472c-19.116,13.852 -39.261,23.792 -61.021,28.156c-37.405,7.5 -75.798,1.13 -94.621,-11.336l0,-4.606Z" style="fill:#a8875c;"/><path d="M103.251,42.246c7.67,-3.029 15.046,-6.928 21.72,-11.755c0.48,1.037 0.963,2.081 1.437,3.117c-4.628,10.018 -29.118,22.42 -57.367,22.327c-33.794,-0.112 -37.421,-3.879 -47.423,-12.315c0.202,-1.303 0.406,-2.599 0.612,-3.887c8.913,8.524 28.12,12.315 49.256,10.178c-6.49,-4.049 -10.812,-11.254 -10.812,-19.461c0,-12.652 10.272,-22.923 22.923,-22.923c12.652,0 22.923,10.271 22.923,22.923c-0,4.313 -1.194,8.349 -3.269,11.796Z" style="fill:#a8875c;"/><path d="M45.744,19.093c-0.897,0 -1.717,0.559 -2.398,1.308c-0.903,0.994 -1.541,2.374 -1.727,3.889c-0.168,1.366 0.05,2.615 0.644,3.511c0.364,0.55 0.887,0.942 1.545,0.942c0.897,-0 1.717,-0.559 2.398,-1.308c0.903,-0.994 1.541,-2.374 1.727,-3.889c0.168,-1.366 -0.05,-2.615 -0.644,-3.511c-0.364,-0.55 -0.887,-0.942 -1.545,-0.942Z" style="fill:#291700;"/><path d="M45.744,17.142c2.825,0 4.567,3.044 4.125,6.642c-0.461,3.755 -3.112,6.91 -6.061,6.91c-2.825,-0 -4.567,-3.044 -4.125,-6.642c0.461,-3.755 3.112,-6.91 6.061,-6.91Zm-0,1.951c-0.897,0 -1.717,0.559 -2.398,1.308c-0.903,0.994 -1.541,2.374 -1.727,3.889c-0.168,1.366 0.05,2.615 0.644,3.511c0.364,0.55 0.887,0.942 1.545,0.942c0.897,-0 1.717,-0.559 2.398,-1.308c0.903,-0.994 1.541,-2.374 1.727,-3.889c0.168,-1.366 -0.05,-2.615 -0.644,-3.511c-0.364,-0.55 -0.887,-0.942 -1.545,-0.942Z" style="fill:#8d6d43;"/><circle cx="85.495" cy="27.968" r="20.441" style="fill:#fdfa71;"/><circle cx="87.278" cy="28.422" r="15.518" style="fill:#fffeb1;"/><circle cx="87.931" cy="28.996" r="28.996" style="fill:#fffdb6;fill-opacity:0.25;"/><circle cx="86.43" cy="28.422" r="23.292" style="fill:#fffdb6;fill-opacity:0.25;"/></g></svg>