<?xml version="1.0" encoding="UTF-8" standalone="no"?>
<!DOCTYPE svg PUBLIC "-//W3C//DTD SVG 1.1//EN" "http://www.w3.org/Graphics/SVG/1.1/DTD/svg11.dtd">
<svg width="100%" height="100%" viewBox="0 0 300 345" version="1.1" xmlns="http://www.w3.org/2000/svg" xmlns:xlink="http://www.w3.org/1999/xlink" xml:space="preserve" xmlns:serif="http://www.serif.com/" style="fill-rule:evenodd;clip-rule:evenodd;stroke-linejoin:round;stroke-miterlimit:2;">
    <g transform="matrix(1,0,0,1,0,20.3054)">
        <g id="Gift-2" serif:id="Gift 2">
            <g id="Gift-21" serif:id="Gift 2">
                <g>
                    <g transform="matrix(-1,0,0,-1,300,310.342)">
                        <path d="M0,194.564C0.678,194.225 1.459,194.297 2.343,195.058C3.619,196.156 4.045,198.256 4.394,199.827C5.304,203.928 4.516,208.292 5.603,212.356C6.456,215.548 12.219,216.248 14.64,217.937C20.17,221.797 19.004,231.125 26.683,232.739C31.572,233.766 36.169,231.819 40.987,233.904C46.056,236.098 48.454,241.545 54.595,241.447C57.836,241.396 61.317,239.884 64.341,238.807C67.78,237.582 71.461,236.825 75.084,236.46C80.738,235.891 86.727,238.455 92.206,237.278C97.726,236.093 102.211,232.821 108.087,232.957C112.37,233.057 115.989,235.668 120.152,236.242C125.912,237.037 131.708,235.621 137.483,236.023C141.813,236.325 145.906,237.934 150.256,238.111C156.85,238.38 162.989,234.993 169.537,234.478C172.707,234.229 176.065,234.118 179.191,234.779C182.992,235.584 186.572,237.026 190.496,237.156C193.342,237.25 196.2,236.21 198.969,235.674C202.605,234.969 206.556,234.915 210.254,235.059C215.903,235.28 220.922,238.569 226.64,238.378C232.396,238.185 237.368,234.914 243.266,234.841C247.752,234.785 253.015,237.524 257.337,235.872C261.354,234.336 263.911,230.572 267.779,228.839C272.098,226.905 276.638,228.06 280.851,225.099C283.449,223.273 284.232,219.814 286.633,217.714C289.031,215.617 291.945,215.644 294.707,214.482C297.857,213.156 295.831,208.188 297.211,205.78C297.634,205.041 298.785,204.127 300,203.603L300,251.775C299.621,251.799 4.685,252.286 -0,252.041L0,194.564Z" style="fill:#e5e5e5;"/>
                    </g>
                    <path id="base_body_1" d="M0,107.224C0,87.145 16.301,70.844 36.38,70.844L263.62,70.844C283.699,70.844 300,87.145 300,107.224L300,81.38C300,61.301 283.699,45 263.62,45L36.38,45C16.301,45 0,61.301 0,81.38L0,107.224Z" style="fill:#7d1913;"/>
                    <g transform="matrix(1,0,0,1,0,-20.3054)">
                        <path d="M25.429,42.416C34.303,43.53 42.494,45 56.889,45L127.367,45L127.521,38.297C105.136,36.439 87.345,43.29 66.605,38.297C46.765,33.52 32.464,35.863 25.429,42.416Z" style="fill:#408e34;"/>
                    </g>
                    <g transform="matrix(-1,0,0,1,263.61,-20.3054)">
                        <path d="M25.429,42.416C34.303,43.53 42.494,45 56.889,45L127.367,45L127.521,38.297C105.136,36.439 87.345,43.29 66.605,38.297C46.765,33.52 32.464,35.863 25.429,42.416Z" style="fill:#408e34;"/>
                    </g>
                    <g transform="matrix(1,0,0,1,0,-20.3054)">
                        <path d="M118.615,45C114.695,42.879 110.746,40.729 106.767,38.55C113.37,38.013 120.2,37.689 127.521,38.297L127.367,45L118.615,45Z" style="fill:#3c6e35;"/>
                    </g>
                    <g>
                        <g transform="matrix(1,0,0,1,0,-20.3054)">
                            <path d="M172.357,56.603C244.158,48.957 280.419,16.552 266.833,14.714C227.411,9.381 196.324,30.356 171.196,52.47L169.098,45C191.654,15.907 224.241,1.597 255.267,0C268.551,-0.684 279.198,4.136 286.688,13.365C309.775,41.81 239.928,65.607 173.532,60.786L172.357,56.603Z" style="fill:#2f7724;"/>
                        </g>
                        <g transform="matrix(1,0,0,1,0,-20.3054)">
                            <path d="M266.833,14.714C227.411,9.381 196.324,30.356 171.196,52.47L169.098,45C191.654,15.907 224.241,1.597 255.267,0C268.551,-0.684 279.198,4.136 286.688,13.365C292.427,20.436 292.424,27.219 288.158,33.348C292.12,21.572 277.653,16.26 266.93,14.728C266.898,14.723 266.865,14.719 266.833,14.714Z" style="fill:#408e34;"/>
                        </g>
                    </g>
                    <g transform="matrix(-0.98556,0.169324,0.169324,0.98556,296.419,-31.4137)">
                        <g transform="matrix(1,0,0,1,0,-20.3054)">
                            <path d="M172.357,56.603C244.158,48.957 280.419,16.552 266.833,14.714C227.411,9.381 196.324,30.356 171.196,52.47L169.098,45C191.654,15.907 224.241,1.597 255.267,0C268.551,-0.684 279.198,4.136 286.688,13.365C309.775,41.81 239.928,65.607 173.532,60.786L172.357,56.603Z" style="fill:#2f7724;"/>
                        </g>
                        <g transform="matrix(1,0,0,1,0,-20.3054)">
                            <path d="M266.833,14.714C227.411,9.381 196.324,30.356 171.196,52.47L169.098,45C191.654,15.907 224.241,1.597 255.267,0C268.551,-0.684 279.198,4.136 286.688,13.365C292.427,20.436 292.424,27.219 288.158,33.348C292.12,21.572 277.653,16.26 266.93,14.728C266.898,14.723 266.865,14.719 266.833,14.714Z" style="fill:#408e34;"/>
                        </g>
                    </g>
                    <g transform="matrix(1,0,0,1,11.1175,-20.3054)">
                        <path d="M117.215,52.277C113.113,47.708 113.221,41.874 114.131,38.398C114.9,35.457 116.296,33.694 121.07,34.735C125.345,35.667 132.053,36.675 135.152,36.484C137.486,36.34 147.947,35.321 155.191,33C157.865,32.143 161.477,31.834 163.184,34.129C165.536,37.291 163.33,47.742 159.432,52.47L117.215,52.277Z" style="fill:#61a257;"/>
                    </g>
                    <path id="base_body_11" serif:id="base_body_1" d="M300,45.698L300,100.117C300,80.038 283.699,63.737 263.62,63.737L36.38,63.737C16.301,63.737 0,80.038 0,100.117L0,45.698C0,34.106 9.411,24.695 21.004,24.695L278.996,24.695C290.589,24.695 300,34.106 300,45.698Z" style="fill:#bf322b;"/>
                    <path id="base_body_12" serif:id="base_body_1" d="M64.596,24.695L105.854,24.695L73.146,63.737L36.38,63.737C34.77,63.737 33.185,63.842 31.631,64.045L64.596,24.695ZM193.739,24.695L234.997,24.695L202.289,63.737L161.032,63.737L193.739,24.695ZM300,52.892L300,100.117C300,88.051 294.113,77.349 285.057,70.729L300,52.892Z" style="fill:#20561c;"/>
                    <path id="base_body_13" serif:id="base_body_1" d="M21.692,66.828C8.921,72.477 0,85.264 0,100.117L0,45.698C0,34.106 9.411,24.695 21.004,24.695L21.692,24.695L21.692,66.828ZM277.753,24.695L278.996,24.695C290.589,24.695 300,34.106 300,45.698L300,100.117C300,85.049 290.82,72.109 277.753,66.588L277.753,24.695Z" style="fill-opacity:0.25;"/>
                    <g transform="matrix(1,0,0,1,0,-20.3054)">
                        <path d="M207.241,91.149L249.052,91.149C254.931,72.642 253.17,57.252 243.717,45L203.653,45C212.153,59.687 212.817,75.312 207.241,91.149Z" style="fill-opacity:0.25;"/>
                    </g>
                    <g transform="matrix(5.40331,0,0,1.01779,-568.596,-21.9793)">
                        <rect x="128.868" y="45.858" width="8.765" height="45.342" style="fill-opacity:0.25;"/>
                    </g>
                    <g transform="matrix(1,0,0,1,0,-20.3054)">
                        <path d="M54.096,91.149L46.109,91.149C43.621,73.354 44.42,57.15 53.59,45L60.903,45C52.391,56.504 49.974,71.795 54.096,91.149Z" style="fill-opacity:0.25;"/>
                    </g>
                    <path id="base_body_14" serif:id="base_body_1" d="M172.42,63.737C171.591,76.087 175.627,89.205 184.565,103.097L169.265,93.993L167.017,103.736L158.605,98.306L155.922,106.705L143.605,93.432L142.773,101.327C132.833,91.448 130.282,78.245 130.628,63.737L130.628,24.695L172.42,24.695L172.42,63.737Z" style="fill:#3ba52a;"/>
                    <g transform="matrix(1,0,0,1,0,-20.3054)">
                        <path d="M172.554,109.587C168.57,101.147 167.656,93.578 168.113,82.711L168.113,51.108L142.821,51.108L142.821,82.711C142.583,91.339 142.876,99.853 147.263,107.49L150,102.801L159.97,109.587L163.055,102.678L172.554,109.587Z" style="fill:#3bac29;"/>
                    </g>
                    <g transform="matrix(1,0,0,1,0,-20.3054)">
                        <path d="M66.605,38.297C46.765,33.52 32.464,35.863 25.429,42.416C16.774,50.478 7.447,66.306 20.186,105.165C23.934,116.598 23.165,130.018 8.62,141.715C22.61,138.061 33.289,131.891 36.995,120.422C43.488,131.006 43.56,141.258 38.538,153.589C56.486,144.883 60.722,125.387 54.268,101.464C47.336,75.769 46.837,58.389 56.889,45C58.412,42.973 61.535,38.244 66.605,38.297Z" style="fill:#3ba52a;"/>
                    </g>
                    <g transform="matrix(-1,0,0,1,263.61,-20.3054)">
                        <path d="M66.605,38.297C46.765,33.52 32.464,35.863 25.429,42.416C16.774,50.478 7.447,66.306 20.186,105.165C23.934,116.598 23.165,130.018 8.62,141.715C22.61,138.061 33.289,131.891 36.995,120.422C43.488,131.006 43.56,141.258 38.538,153.589C56.486,144.883 60.722,125.387 54.268,101.464C47.336,75.769 46.837,58.389 56.889,45C58.412,42.973 61.535,38.244 66.605,38.297Z" style="fill:#3ba52a;"/>
                    </g>
                    <g transform="matrix(1,0,0,1,0,-20.3054)">
                        <path d="M219.709,41.762C225.866,41.379 232.138,42.848 236.488,46.45C244.308,52.927 246.434,76.833 238.091,98.637C235.395,105.686 230.341,112.398 239.202,129.604C232.705,123.707 229.043,116.707 228.468,108.507C223.357,113.365 219.474,120.345 217.982,131.455C214.474,118.397 218.522,105.207 223.04,92.839C229.778,74.392 227.3,55.907 219.709,41.762Z" style="fill:#3bac29;"/>
                    </g>
                    <g transform="matrix(-1,0,0,1,261.672,-20.3054)">
                        <path d="M215.563,40.312C221.721,39.929 227.862,41.562 232.342,45C241.939,52.365 246.434,76.833 238.091,98.637C235.395,105.686 230.341,112.398 239.202,129.604C232.705,123.707 229.043,116.707 228.468,108.507C223.357,113.365 219.474,120.345 217.982,131.455C214.474,118.397 218.522,105.207 223.04,92.839C229.778,74.392 226.016,51.891 215.563,40.312Z" style="fill:#3bac29;"/>
                    </g>
                </g>
            </g>
        </g>
    </g>
</svg>
