<?xml version="1.0" encoding="UTF-8" standalone="no"?>
<!DOCTYPE svg PUBLIC "-//W3C//DTD SVG 1.1//EN" "http://www.w3.org/Graphics/SVG/1.1/DTD/svg11.dtd">
<svg width="100%" height="100%" viewBox="0 0 300 345" version="1.1" xmlns="http://www.w3.org/2000/svg" xmlns:xlink="http://www.w3.org/1999/xlink" xml:space="preserve" xmlns:serif="http://www.serif.com/" style="fill-rule:evenodd;clip-rule:evenodd;stroke-linejoin:round;stroke-miterlimit:2;">
    <g id="Snowman-2" serif:id="Snowman 2">
        <g id="Snowman">
            <g>
                <g transform="matrix(1.23753,0.185112,-0.185112,1.23753,22.8163,-20.4049)">
                    <g transform="matrix(0.647873,0.204326,-0.204326,0.647873,-10.217,-12.3083)">
                        <path d="M90.43,27.05C95.8,31.95 92.75,44.05 83.63,54.05C74.51,64.05 62.76,68.1 57.4,63.2C46.823,54.228 37.303,43.187 49.359,28.226C62.522,11.889 77.753,19.863 90.43,27.05Z" style="fill:#2f2c38;fill-rule:nonzero;"/>
                    </g>
                    <g transform="matrix(0.647873,0.204326,-0.204326,0.647873,-10.217,-12.3083)">
                        <path d="M78.291,20.983C82.487,22.608 86.577,24.865 90.43,27.05C95.8,31.95 92.75,44.05 83.63,54.05C74.51,64.05 62.76,68.1 57.4,63.2C54.385,60.643 51.456,57.917 49.088,54.981C52.969,41.171 65.194,28.346 78.291,20.983Z" style="fill:#d62027;"/>
                    </g>
                    <g transform="matrix(0.587867,-0.340442,0.340442,0.587867,-31.4673,32.1695)">
                        <ellipse cx="76.43" cy="47.42" rx="37.66" ry="17.78" style="fill:#15141a;"/>
                    </g>
                </g>
                <path d="M0,262.01L0,80.311C0,39.634 67.213,6.609 150,6.609C232.787,6.609 300,39.634 300,80.311L300,262.01C300,282.089 283.699,298.39 263.62,298.39L36.38,298.39C16.301,298.39 0,282.089 0,262.01ZM280.983,184.692C280.983,155.93 257.632,132.58 228.871,132.58L71.129,131.121C42.368,131.121 19.017,152.526 19.017,184.692L19.017,231.428C19.017,260.189 40.823,288.14 109.861,288.14L194.327,288.476C245.928,288.476 280.983,269.673 280.983,240.912L280.983,184.692Z" style="fill:#b7d5fa;"/>
                <path d="M0,262.01L0,80.311C0,39.634 67.213,6.609 150,6.609C232.787,6.609 300,39.634 300,80.311L300,262.01C300,282.089 283.699,298.39 263.62,298.39L36.38,298.39C16.301,298.39 0,282.089 0,262.01ZM47.014,275.917C61.192,283.442 81.557,288.14 109.861,288.14L194.327,288.476C219.671,288.476 241.023,283.94 256.191,275.917L259.204,275.917C267.123,274.213 274.175,270.97 278.046,262.942C282.297,254.125 285.897,241.888 286.081,235.016L285.929,178.348C284.828,146.93 263.253,124.642 229.306,123.847L69.593,123.847C38.34,124.623 13.635,146.844 13.045,175.847C12.76,189.872 13.047,224.172 13.273,235.016C13.428,242.493 15.441,249.174 18.427,255.438C23.365,265.796 32.942,272.049 44.403,275.917L47.014,275.917Z" style="fill:#dae6f5;"/>
                <path d="M148.117,8.603C147.895,7.805 148.362,6.978 149.16,6.756C149.957,6.534 150.785,7.001 151.007,7.799C151.279,8.775 151.539,9.752 151.787,10.731C151.991,11.533 151.505,12.35 150.702,12.554C149.9,12.757 149.083,12.271 148.879,11.469C148.637,10.512 148.382,9.557 148.117,8.603ZM150.196,17.246C150.033,16.434 150.559,15.642 151.37,15.479C152.182,15.315 152.973,15.841 153.137,16.652C153.338,17.645 153.525,18.641 153.699,19.639C153.842,20.455 153.295,21.232 152.48,21.375C151.664,21.517 150.886,20.971 150.744,20.155C150.574,19.183 150.392,18.213 150.196,17.246ZM151.603,26.009C151.505,25.187 152.094,24.441 152.916,24.343C153.738,24.246 154.484,24.834 154.582,25.656C154.701,26.661 154.806,27.669 154.897,28.682C154.972,29.507 154.362,30.236 153.538,30.311C152.713,30.385 151.984,29.776 151.909,28.951C151.821,27.966 151.718,26.986 151.603,26.009ZM152.271,34.853C152.244,34.026 152.894,33.332 153.721,33.305C154.549,33.278 155.242,33.928 155.269,34.756C155.302,35.764 155.32,36.778 155.324,37.798C155.328,38.626 154.658,39.301 153.83,39.304C153.002,39.307 152.328,38.638 152.324,37.81C152.321,36.819 152.303,35.834 152.271,34.853ZM152.181,43.723C152.224,42.896 152.93,42.26 153.757,42.303C154.584,42.347 155.22,43.053 155.177,43.88C155.124,44.885 155.057,45.896 154.976,46.914C154.91,47.739 154.187,48.356 153.362,48.29C152.536,48.224 151.92,47.501 151.986,46.676C152.065,45.685 152.129,44.701 152.181,43.723ZM151.359,52.563C151.468,51.742 152.223,51.165 153.043,51.274C153.864,51.382 154.442,52.137 154.333,52.958C154.201,53.953 154.055,54.954 153.896,55.963C153.766,56.781 152.997,57.34 152.18,57.211C151.362,57.081 150.803,56.312 150.932,55.495C151.088,54.511 151.23,53.533 151.359,52.563ZM149.867,61.327C150.034,60.516 150.829,59.994 151.639,60.162C152.45,60.33 152.972,61.124 152.805,61.935C152.602,62.915 152.386,63.903 152.158,64.898C151.972,65.705 151.166,66.209 150.36,66.024C149.553,65.838 149.048,65.033 149.234,64.226C149.458,63.252 149.668,62.286 149.867,61.327ZM148.38,70.715C148.201,69.906 148.713,69.105 149.521,68.927C150.33,68.749 151.131,69.26 151.309,70.069C151.519,71.019 151.725,72.012 151.925,73.043C152.083,73.855 151.552,74.643 150.739,74.802C149.927,74.96 149.139,74.428 148.981,73.616C148.785,72.61 148.584,71.642 148.38,70.715ZM149.99,79.467C149.866,78.648 150.429,77.883 151.248,77.758C152.066,77.634 152.832,78.197 152.956,79.016C153.105,79.996 153.248,80.996 153.383,82.014C153.492,82.834 152.915,83.589 152.094,83.698C151.273,83.807 150.519,83.23 150.409,82.409C150.277,81.41 150.137,80.428 149.99,79.467ZM151.086,88.316C151.007,87.492 151.611,86.758 152.435,86.679C153.259,86.6 153.993,87.204 154.072,88.028C154.168,89.025 154.256,90.031 154.334,91.045C154.398,91.87 153.78,92.592 152.955,92.656C152.129,92.72 151.407,92.102 151.343,91.277C151.266,90.282 151.18,89.294 151.086,88.316ZM151.689,97.208C151.657,96.381 152.303,95.683 153.13,95.651C153.957,95.62 154.655,96.265 154.687,97.093C154.726,98.101 154.754,99.112 154.772,100.123C154.786,100.951 154.126,101.634 153.298,101.649C152.47,101.663 151.786,101.003 151.772,100.175C151.755,99.185 151.727,98.196 151.689,97.208ZM151.738,106.103C151.763,105.276 152.455,104.624 153.283,104.649C154.11,104.674 154.762,105.366 154.737,106.194C154.706,107.212 154.662,108.225 154.605,109.231C154.557,110.058 153.848,110.69 153.021,110.643C152.194,110.595 151.562,109.886 151.609,109.059C151.666,108.08 151.708,107.094 151.738,106.103ZM151.088,114.938C151.189,114.116 151.938,113.531 152.76,113.632C153.582,113.733 154.167,114.482 154.066,115.304C153.94,116.328 153.797,117.339 153.635,118.332C153.502,119.149 152.73,119.704 151.913,119.571C151.096,119.438 150.541,118.667 150.674,117.849C150.83,116.894 150.967,115.923 151.088,114.938ZM149.461,123.569C149.676,122.769 150.499,122.294 151.299,122.509C152.098,122.724 152.573,123.547 152.359,124.347C152.085,125.365 151.786,126.354 151.46,127.312C151.194,128.096 150.341,128.515 149.557,128.248C148.773,127.982 148.354,127.129 148.62,126.345C148.926,125.449 149.205,124.522 149.461,123.569Z" style="fill:#98c1e8;"/>
                <g transform="matrix(1,0,0,1,-4.26338,0)">
                    <path d="M149.08,8.335C149.006,8.069 149.162,7.793 149.428,7.719C149.694,7.645 149.97,7.801 150.044,8.067C155.273,26.862 156.203,45.919 150.077,69.152C153.762,85.036 156.534,114.508 149.089,130.57C148.973,130.821 148.676,130.93 148.425,130.814C148.175,130.698 148.066,130.4 148.182,130.15C155.566,114.217 152.735,84.947 149.075,69.259C149.056,69.18 149.058,69.097 149.078,69.018C155.186,45.929 154.274,27.002 149.08,8.335Z" style="fill:#98c1e8;"/>
                </g>
                <path d="M0,262.01L0,80.311C0,39.634 67.213,6.609 150,6.609C232.787,6.609 300,39.634 300,80.311L300,262.01C300,282.089 283.699,298.39 263.62,298.39L36.38,298.39C16.301,298.39 0,282.089 0,262.01ZM3,262.01C3,280.433 17.957,295.39 36.38,295.39L263.62,295.39C282.043,295.39 297,280.433 297,262.01L297,80.311C297,64.915 286.597,50.83 269.373,39.287C242.449,21.246 198.978,9.609 150,9.609C101.022,9.609 57.551,21.246 30.627,39.287C13.403,50.83 3,64.915 3,80.311L3,262.01ZM283.983,184.692L283.983,240.912C283.983,253.335 278.009,264.082 267.175,272.453C251.729,284.387 226.103,291.476 194.327,291.476L194.315,291.476L109.854,291.14C38.155,291.139 16.017,261.3 16.017,231.428L16.017,184.692C16.017,150.7 40.735,128.121 71.129,128.121C71.139,128.121 71.148,128.121 71.157,128.121C71.157,128.121 227.379,129.566 228.887,129.58C259.297,129.589 283.983,154.28 283.983,184.692ZM280.983,184.692C280.983,155.93 257.632,132.58 228.871,132.58L71.129,131.121C42.368,131.121 19.017,152.526 19.017,184.692L19.017,231.428C19.017,260.189 40.823,288.14 109.861,288.14L194.327,288.476C245.928,288.476 280.983,269.673 280.983,240.912L280.983,184.692Z" style="fill:#98c1e8;"/>
                <path d="M69.365,124.861C68.994,124.866 68.623,124.874 68.254,124.885C67.721,124.9 67.276,124.48 67.261,123.948C67.245,123.416 67.665,122.971 68.197,122.955C68.582,122.944 68.967,122.936 69.354,122.932C69.36,122.932 69.367,122.932 69.373,122.932L70.155,122.932C70.688,122.932 71.12,123.364 71.12,123.896C71.12,124.429 70.688,124.861 70.155,124.861L69.371,124.861C69.369,124.861 69.367,124.861 69.365,124.861C69.365,124.861 68.24,123.159 69.166,122.952C68.726,123.044 68.397,123.436 68.4,123.902C68.403,124.433 68.834,124.861 69.365,124.861ZM149.448,124.83C149.436,124.85 149.43,124.861 149.43,124.861L149.282,124.861C148.75,124.861 148.317,124.429 148.317,123.896C148.317,123.364 148.75,122.932 149.282,122.932C149.393,122.932 149.485,122.946 149.562,122.972C149.639,122.946 149.731,122.932 149.841,122.932C150.374,122.932 150.806,123.364 150.806,123.896C150.806,124.429 150.374,124.861 149.841,124.861L149.694,124.861C149.609,124.861 149.526,124.85 149.448,124.83ZM22.56,264.267C22.794,264.745 22.596,265.324 22.118,265.558C21.639,265.792 21.061,265.594 20.827,265.115C20.544,264.538 20.264,263.951 19.988,263.354C19.764,262.871 19.975,262.297 20.458,262.073C20.941,261.849 21.515,262.06 21.739,262.543C22.01,263.127 22.284,263.702 22.56,264.267ZM20.206,259.045C20.41,259.537 20.176,260.102 19.684,260.305C19.191,260.509 18.627,260.275 18.423,259.783C18.176,259.186 17.934,258.583 17.696,257.973C17.503,257.477 17.748,256.917 18.245,256.724C18.741,256.53 19.301,256.776 19.494,257.272C19.727,257.869 19.965,258.46 20.206,259.045ZM18.181,253.686C18.353,254.19 18.084,254.739 17.581,254.911C17.077,255.084 16.528,254.815 16.355,254.311C16.145,253.699 15.941,253.081 15.742,252.46C15.58,251.952 15.861,251.409 16.368,251.247C16.876,251.085 17.419,251.366 17.581,251.873C17.775,252.482 17.975,253.086 18.181,253.686ZM16.501,248.212C16.64,248.726 16.336,249.257 15.822,249.396C15.308,249.535 14.777,249.231 14.638,248.717C14.468,248.089 14.305,247.459 14.15,246.826C14.023,246.309 14.339,245.786 14.856,245.659C15.374,245.532 15.897,245.848 16.024,246.366C16.176,246.984 16.335,247.599 16.501,248.212ZM15.204,242.643C15.306,243.166 14.964,243.673 14.441,243.774C13.918,243.875 13.411,243.533 13.31,243.01C13.186,242.37 13.07,241.728 12.963,241.086C12.875,240.561 13.231,240.063 13.756,239.976C14.282,239.888 14.779,240.244 14.867,240.769C14.971,241.395 15.083,242.019 15.204,242.643ZM14.348,237.001C14.405,237.53 14.021,238.006 13.492,238.064C12.962,238.121 12.486,237.737 12.429,237.208C12.359,236.557 12.299,235.906 12.249,235.256C12.208,234.725 12.606,234.261 13.138,234.22C13.669,234.18 14.133,234.578 14.173,235.109C14.221,235.739 14.28,236.37 14.348,237.001ZM14.011,231.319C14.015,231.852 13.586,232.288 13.054,232.292C12.521,232.296 12.085,231.867 12.081,231.334C12.076,230.677 12.083,230.021 12.103,229.368C12.119,228.836 12.564,228.417 13.096,228.433C13.629,228.449 14.048,228.894 14.032,229.426C14.013,230.055 14.006,230.686 14.011,231.319ZM14.195,225.576C14.176,226.108 13.728,226.525 13.196,226.505C12.663,226.486 12.247,226.038 12.266,225.506C12.289,224.867 12.31,224.227 12.328,223.585C12.343,223.053 12.787,222.632 13.319,222.647C13.852,222.662 14.272,223.107 14.257,223.639C14.239,224.286 14.218,224.932 14.195,225.576ZM14.337,219.766C14.33,220.299 13.891,220.725 13.359,220.718C12.826,220.71 12.4,220.272 12.407,219.74C12.416,219.099 12.423,218.458 12.428,217.816C12.432,217.283 12.868,216.854 13.401,216.858C13.933,216.862 14.362,217.298 14.358,217.831C14.353,218.477 14.346,219.122 14.337,219.766ZM14.369,213.961C14.37,214.494 13.938,214.927 13.405,214.928C12.873,214.929 12.44,214.498 12.439,213.965C12.437,213.324 12.435,212.682 12.431,212.039C12.428,211.506 12.858,211.072 13.39,211.068C13.923,211.065 14.358,211.495 14.361,212.028C14.365,212.673 14.367,213.318 14.369,213.961ZM14.326,208.162C14.332,208.695 13.905,209.132 13.372,209.139C12.84,209.145 12.402,208.717 12.396,208.185C12.389,207.543 12.38,206.9 12.372,206.257C12.364,205.725 12.791,205.286 13.323,205.279C13.856,205.272 14.294,205.698 14.301,206.231C14.31,206.875 14.318,207.519 14.326,208.162ZM14.244,202.369C14.252,202.902 13.827,203.341 13.294,203.349C12.761,203.358 12.322,202.932 12.314,202.4C12.304,201.757 12.294,201.114 12.283,200.47C12.275,199.938 12.7,199.498 13.233,199.49C13.765,199.481 14.205,199.907 14.213,200.439C14.223,201.083 14.233,201.726 14.244,202.369ZM14.154,196.581C14.162,197.114 13.735,197.553 13.203,197.56C12.67,197.568 12.232,197.142 12.224,196.609C12.215,195.965 12.206,195.322 12.198,194.678C12.191,194.145 12.618,193.707 13.151,193.701C13.683,193.694 14.121,194.121 14.128,194.653C14.136,195.296 14.145,195.939 14.154,196.581ZM14.088,190.799C14.092,191.331 13.663,191.767 13.131,191.771C12.598,191.775 12.162,191.346 12.158,190.813C12.154,190.168 12.15,189.524 12.147,188.88C12.145,188.347 12.576,187.913 13.108,187.911C13.641,187.909 14.075,188.34 14.077,188.872C14.08,189.514 14.084,190.156 14.088,190.799ZM14.078,185.021C14.076,185.553 13.641,185.984 13.109,185.981C12.576,185.978 12.146,185.544 12.148,185.011C12.151,184.366 12.156,183.721 12.163,183.076C12.168,182.544 12.605,182.116 13.138,182.121C13.67,182.127 14.098,182.564 14.093,183.096C14.086,183.737 14.081,184.379 14.078,185.021ZM14.156,179.249C14.144,179.781 13.701,180.204 13.169,180.192C12.636,180.179 12.214,179.737 12.226,179.205C12.241,178.559 12.258,177.913 12.278,177.268C12.294,176.736 12.739,176.317 13.271,176.333C13.804,176.349 14.223,176.794 14.207,177.327C14.187,177.967 14.17,178.608 14.156,179.249ZM14.425,173.531C14.378,174.062 13.908,174.454 13.378,174.406C12.847,174.358 12.456,173.889 12.503,173.358C12.562,172.703 12.632,172.053 12.712,171.407C12.777,170.879 13.259,170.503 13.788,170.568C14.316,170.633 14.692,171.116 14.627,171.644C14.55,172.269 14.483,172.898 14.425,173.531ZM15.219,167.897C15.118,168.42 14.612,168.762 14.089,168.661C13.566,168.56 13.223,168.054 13.324,167.531C13.449,166.886 13.584,166.245 13.73,165.61C13.849,165.091 14.367,164.766 14.886,164.885C15.405,165.004 15.73,165.522 15.611,166.042C15.47,166.655 15.34,167.274 15.219,167.897ZM16.588,162.379C16.433,162.888 15.893,163.175 15.383,163.02C14.874,162.865 14.587,162.325 14.742,161.816C14.934,161.187 15.136,160.564 15.349,159.947C15.522,159.444 16.072,159.176 16.576,159.349C17.079,159.523 17.347,160.073 17.173,160.576C16.968,161.171 16.773,161.772 16.588,162.379ZM18.537,157.041C18.327,157.531 17.76,157.758 17.27,157.548C16.78,157.339 16.553,156.771 16.763,156.281C17.021,155.678 17.29,155.08 17.569,154.489C17.797,154.008 18.372,153.801 18.854,154.029C19.335,154.256 19.542,154.832 19.314,155.313C19.045,155.883 18.786,156.459 18.537,157.041ZM21.057,151.95C20.794,152.414 20.205,152.577 19.742,152.315C19.278,152.052 19.115,151.463 19.377,151C19.7,150.428 20.033,149.864 20.376,149.307C20.656,148.854 21.251,148.712 21.704,148.992C22.158,149.271 22.299,149.866 22.02,150.319C21.689,150.856 21.368,151.4 21.057,151.95ZM24.124,147.17C23.812,147.602 23.208,147.699 22.777,147.386C22.345,147.074 22.248,146.471 22.56,146.039C22.944,145.508 23.338,144.984 23.741,144.468C24.069,144.048 24.676,143.974 25.096,144.302C25.516,144.63 25.59,145.237 25.262,145.656C24.874,146.153 24.494,146.658 24.124,147.17ZM27.703,142.76C27.345,143.154 26.734,143.184 26.34,142.826C25.946,142.468 25.916,141.857 26.274,141.463C26.714,140.977 27.164,140.501 27.622,140.032C27.994,139.651 28.605,139.644 28.986,140.016C29.367,140.389 29.374,141 29.002,141.381C28.56,141.833 28.127,142.292 27.703,142.76ZM31.747,138.77C31.348,139.123 30.738,139.085 30.385,138.686C30.032,138.287 30.07,137.677 30.469,137.324C30.959,136.891 31.458,136.466 31.965,136.05C32.376,135.712 32.985,135.771 33.323,136.183C33.661,136.594 33.601,137.203 33.189,137.541C32.701,137.942 32.22,138.352 31.747,138.77ZM36.203,135.242C35.768,135.55 35.165,135.447 34.858,135.012C34.55,134.578 34.653,133.975 35.088,133.667C35.621,133.289 36.162,132.921 36.711,132.561C37.156,132.269 37.755,132.394 38.047,132.839C38.339,133.284 38.215,133.883 37.769,134.175C37.24,134.522 36.718,134.878 36.203,135.242ZM41.011,132.209C40.546,132.469 39.958,132.303 39.697,131.838C39.437,131.373 39.603,130.785 40.068,130.525C40.638,130.206 41.214,129.896 41.797,129.595C42.271,129.351 42.853,129.538 43.097,130.011C43.341,130.485 43.155,131.067 42.681,131.311C42.118,131.601 41.561,131.9 41.011,132.209ZM46.111,129.69C45.622,129.901 45.054,129.675 44.842,129.186C44.631,128.698 44.857,128.129 45.346,127.918C45.945,127.659 46.55,127.41 47.16,127.171C47.656,126.976 48.216,127.221 48.411,127.716C48.606,128.212 48.361,128.773 47.865,128.967C47.275,129.199 46.69,129.44 46.111,129.69ZM51.442,127.698C50.935,127.86 50.392,127.579 50.23,127.071C50.069,126.564 50.35,126.021 50.858,125.859C51.479,125.662 52.105,125.474 52.736,125.295C53.248,125.151 53.782,125.449 53.927,125.962C54.072,126.474 53.773,127.008 53.261,127.153C52.65,127.325 52.044,127.507 51.442,127.698ZM56.946,126.238C56.426,126.35 55.912,126.018 55.8,125.497C55.689,124.976 56.021,124.463 56.541,124.351C57.178,124.214 57.819,124.087 58.464,123.97C58.988,123.874 59.491,124.222 59.586,124.746C59.682,125.27 59.334,125.773 58.81,125.868C58.184,125.982 57.563,126.105 56.946,126.238ZM62.567,125.303C62.039,125.366 61.558,124.988 61.495,124.459C61.432,123.931 61.81,123.45 62.339,123.387C62.985,123.31 63.635,123.243 64.288,123.185C64.818,123.138 65.287,123.53 65.334,124.061C65.381,124.591 64.988,125.06 64.458,125.107C63.824,125.163 63.194,125.229 62.567,125.303ZM74.015,124.861C73.482,124.861 73.05,124.429 73.05,123.896C73.05,123.364 73.482,122.932 74.015,122.932L75.945,122.932C76.478,122.932 76.91,123.364 76.91,123.896C76.91,124.429 76.478,124.861 75.945,124.861L74.015,124.861ZM79.805,124.861C79.272,124.861 78.84,124.429 78.84,123.896C78.84,123.364 79.272,122.932 79.805,122.932L81.735,122.932C82.267,122.932 82.7,123.364 82.7,123.896C82.7,124.429 82.267,124.861 81.735,124.861L79.805,124.861ZM85.595,124.861C85.062,124.861 84.63,124.429 84.63,123.896C84.63,123.364 85.062,122.932 85.595,122.932L87.525,122.932C88.057,122.932 88.49,123.364 88.49,123.896C88.49,124.429 88.057,124.861 87.525,124.861L85.595,124.861ZM91.384,124.861C90.852,124.861 90.419,124.429 90.419,123.896C90.419,123.364 90.852,122.932 91.384,122.932L93.314,122.932C93.847,122.932 94.279,123.364 94.279,123.896C94.279,124.429 93.847,124.861 93.314,124.861L91.384,124.861ZM97.174,124.861C96.642,124.861 96.209,124.429 96.209,123.896C96.209,123.364 96.642,122.932 97.174,122.932L99.104,122.932C99.637,122.932 100.069,123.364 100.069,123.896C100.069,124.429 99.637,124.861 99.104,124.861L97.174,124.861ZM102.964,124.861C102.431,124.861 101.999,124.429 101.999,123.896C101.999,123.364 102.431,122.932 102.964,122.932L104.894,122.932C105.426,122.932 105.859,123.364 105.859,123.896C105.859,124.429 105.426,124.861 104.894,124.861L102.964,124.861ZM108.754,124.861C108.221,124.861 107.789,124.429 107.789,123.896C107.789,123.364 108.221,122.932 108.754,122.932L110.684,122.932C111.216,122.932 111.649,123.364 111.649,123.896C111.649,124.429 111.216,124.861 110.684,124.861L108.754,124.861ZM114.544,124.861C114.011,124.861 113.579,124.429 113.579,123.896C113.579,123.364 114.011,122.932 114.544,122.932L116.473,122.932C117.006,122.932 117.438,123.364 117.438,123.896C117.438,124.429 117.006,124.861 116.473,124.861L114.544,124.861ZM120.333,124.861C119.801,124.861 119.368,124.429 119.368,123.896C119.368,123.364 119.801,122.932 120.333,122.932L122.263,122.932C122.796,122.932 123.228,123.364 123.228,123.896C123.228,124.429 122.796,124.861 122.263,124.861L120.333,124.861ZM126.123,124.861C125.591,124.861 125.158,124.429 125.158,123.896C125.158,123.364 125.591,122.932 126.123,122.932L128.053,122.932C128.586,122.932 129.018,123.364 129.018,123.896C129.018,124.429 128.586,124.861 128.053,124.861L126.123,124.861ZM131.913,124.861C131.38,124.861 130.948,124.429 130.948,123.896C130.948,123.364 131.38,122.932 131.913,122.932L133.843,122.932C134.375,122.932 134.808,123.364 134.808,123.896C134.808,124.429 134.375,124.861 133.843,124.861L131.913,124.861ZM137.703,124.861C137.17,124.861 136.738,124.429 136.738,123.896C136.738,123.364 137.17,122.932 137.703,122.932L139.633,122.932C140.165,122.932 140.598,123.364 140.598,123.896C140.598,124.429 140.165,124.861 139.633,124.861L137.703,124.861ZM143.493,124.861C142.96,124.861 142.528,124.429 142.528,123.896C142.528,123.364 142.96,122.932 143.493,122.932L145.423,122.932C145.955,122.932 146.387,123.364 146.387,123.896C146.387,124.429 145.955,124.861 145.423,124.861L143.493,124.861ZM229.77,122.932C230.157,122.936 230.542,122.944 230.926,122.955C231.459,122.971 231.878,123.416 231.863,123.948C231.847,124.48 231.402,124.9 230.87,124.885C230.501,124.874 230.13,124.866 229.759,124.861C229.756,124.861 229.754,124.861 229.752,124.861L228.968,124.861C228.436,124.861 228.004,124.429 228.004,123.896C228.004,123.364 228.436,122.932 228.968,122.932L229.75,122.932C229.757,122.932 229.764,122.932 229.77,122.932ZM278.297,265.115C278.063,265.594 277.484,265.792 277.006,265.558C276.528,265.324 276.329,264.745 276.564,264.267C276.84,263.702 277.114,263.127 277.384,262.543C277.608,262.06 278.182,261.849 278.666,262.073C279.149,262.297 279.359,262.871 279.136,263.354C278.859,263.951 278.58,264.538 278.297,265.115ZM280.701,259.783C280.497,260.275 279.932,260.509 279.44,260.305C278.948,260.102 278.714,259.537 278.917,259.045C279.159,258.46 279.397,257.869 279.63,257.272C279.823,256.776 280.383,256.53 280.879,256.724C281.375,256.917 281.621,257.477 281.428,257.973C281.19,258.583 280.948,259.186 280.701,259.783ZM282.769,254.311C282.596,254.815 282.047,255.084 281.543,254.911C281.039,254.739 280.77,254.19 280.943,253.686C281.149,253.086 281.349,252.482 281.543,251.873C281.705,251.366 282.248,251.085 282.755,251.247C283.263,251.409 283.543,251.952 283.381,252.46C283.183,253.081 282.979,253.699 282.769,254.311ZM284.485,248.717C284.346,249.231 283.816,249.535 283.302,249.396C282.788,249.257 282.483,248.726 282.623,248.212C282.789,247.599 282.948,246.984 283.1,246.366C283.227,245.848 283.75,245.532 284.267,245.659C284.784,245.786 285.101,246.309 284.974,246.826C284.818,247.459 284.655,248.089 284.485,248.717ZM285.814,243.01C285.713,243.533 285.206,243.875 284.683,243.774C284.16,243.673 283.818,243.166 283.919,242.643C284.04,242.019 284.153,241.395 284.257,240.769C284.345,240.244 284.842,239.888 285.368,239.976C285.893,240.063 286.248,240.561 286.161,241.086C286.054,241.728 285.938,242.37 285.814,243.01ZM286.695,237.208C286.638,237.737 286.161,238.121 285.632,238.064C285.102,238.006 284.719,237.53 284.776,237.001C284.844,236.37 284.902,235.739 284.95,235.109C284.991,234.578 285.455,234.18 285.986,234.22C286.517,234.261 286.915,234.725 286.875,235.256C286.825,235.906 286.765,236.557 286.695,237.208ZM287.042,231.334C287.038,231.867 286.603,232.296 286.07,232.292C285.537,232.288 285.108,231.852 285.112,231.319C285.117,230.686 285.111,230.055 285.092,229.426C285.076,228.894 285.495,228.449 286.027,228.433C286.56,228.417 287.005,228.836 287.021,229.368C287.04,230.021 287.047,230.677 287.042,231.334ZM286.858,225.506C286.877,226.038 286.46,226.486 285.928,226.505C285.396,226.525 284.948,226.108 284.929,225.576C284.905,224.932 284.885,224.286 284.867,223.639C284.852,223.107 285.272,222.662 285.804,222.647C286.337,222.632 286.781,223.053 286.796,223.585C286.814,224.227 286.834,224.867 286.858,225.506ZM286.716,219.74C286.724,220.272 286.297,220.71 285.765,220.718C285.232,220.725 284.794,220.299 284.787,219.766C284.778,219.122 284.771,218.477 284.766,217.831C284.761,217.298 285.19,216.862 285.723,216.858C286.256,216.854 286.691,217.283 286.696,217.816C286.701,218.458 286.707,219.099 286.716,219.74ZM286.685,213.965C286.684,214.498 286.251,214.929 285.718,214.928C285.186,214.927 284.754,214.494 284.755,213.961C284.756,213.318 284.759,212.673 284.763,212.028C284.766,211.495 285.201,211.065 285.733,211.068C286.266,211.072 286.696,211.506 286.693,212.039C286.689,212.682 286.686,213.324 286.685,213.965ZM286.728,208.185C286.721,208.717 286.284,209.145 285.751,209.139C285.219,209.132 284.791,208.695 284.798,208.162C284.805,207.519 284.814,206.875 284.822,206.231C284.83,205.698 285.268,205.272 285.8,205.279C286.333,205.286 286.759,205.725 286.752,206.257C286.743,206.9 286.735,207.543 286.728,208.185ZM286.81,202.4C286.801,202.932 286.362,203.358 285.83,203.349C285.297,203.341 284.872,202.902 284.88,202.369C284.89,201.726 284.9,201.083 284.911,200.439C284.919,199.907 285.358,199.481 285.891,199.49C286.423,199.498 286.849,199.938 286.84,200.47C286.83,201.114 286.82,201.757 286.81,202.4ZM286.9,196.609C286.892,197.142 286.453,197.568 285.921,197.56C285.388,197.553 284.962,197.114 284.97,196.581C284.979,195.939 284.988,195.296 284.996,194.653C285.003,194.121 285.44,193.694 285.973,193.701C286.505,193.707 286.932,194.145 286.926,194.678C286.918,195.322 286.909,195.965 286.9,196.609ZM286.965,190.813C286.961,191.346 286.526,191.775 285.993,191.771C285.461,191.767 285.031,191.331 285.035,190.799C285.04,190.156 285.044,189.514 285.046,188.872C285.049,188.34 285.483,187.909 286.015,187.911C286.548,187.913 286.978,188.347 286.976,188.88C286.974,189.524 286.97,190.168 286.965,190.813ZM286.975,185.011C286.978,185.544 286.548,185.978 286.015,185.981C285.483,185.984 285.048,185.553 285.045,185.021C285.042,184.379 285.038,183.737 285.031,183.096C285.026,182.564 285.453,182.127 285.986,182.121C286.519,182.116 286.955,182.544 286.961,183.076C286.967,183.721 286.972,184.366 286.975,185.011ZM286.897,179.205C286.91,179.737 286.487,180.179 285.955,180.192C285.422,180.204 284.98,179.781 284.968,179.249C284.953,178.608 284.936,177.967 284.917,177.327C284.901,176.794 285.32,176.349 285.852,176.333C286.385,176.317 286.83,176.736 286.846,177.268C286.866,177.913 286.883,178.559 286.897,179.205ZM286.62,173.358C286.668,173.889 286.276,174.358 285.746,174.406C285.215,174.454 284.746,174.062 284.698,173.531C284.641,172.898 284.574,172.269 284.497,171.644C284.431,171.116 284.808,170.633 285.336,170.568C285.865,170.503 286.347,170.879 286.412,171.407C286.492,172.053 286.561,172.703 286.62,173.358ZM285.799,167.531C285.9,168.054 285.558,168.56 285.035,168.661C284.512,168.762 284.006,168.42 283.905,167.897C283.784,167.274 283.653,166.655 283.513,166.042C283.394,165.522 283.718,165.004 284.237,164.885C284.757,164.766 285.275,165.091 285.394,165.61C285.539,166.245 285.675,166.886 285.799,167.531ZM284.382,161.816C284.537,162.325 284.25,162.865 283.74,163.02C283.231,163.175 282.691,162.888 282.536,162.379C282.351,161.772 282.156,161.171 281.95,160.576C281.777,160.073 282.045,159.523 282.548,159.349C283.052,159.176 283.601,159.444 283.775,159.947C283.988,160.564 284.19,161.187 284.382,161.816ZM282.361,156.281C282.571,156.771 282.343,157.339 281.854,157.548C281.364,157.758 280.796,157.531 280.587,157.041C280.338,156.459 280.078,155.883 279.809,155.313C279.582,154.832 279.788,154.256 280.27,154.029C280.752,153.801 281.327,154.008 281.555,154.489C281.834,155.08 282.102,155.678 282.361,156.281ZM279.747,151C280.009,151.463 279.846,152.052 279.382,152.315C278.919,152.577 278.329,152.414 278.067,151.95C277.756,151.4 277.434,150.856 277.104,150.319C276.825,149.866 276.966,149.271 277.42,148.992C277.873,148.712 278.468,148.854 278.747,149.307C279.09,149.864 279.423,150.428 279.747,151ZM276.564,146.039C276.876,146.471 276.779,147.074 276.347,147.386C275.916,147.699 275.312,147.602 275,147.17C274.629,146.658 274.25,146.153 273.861,145.656C273.534,145.237 273.608,144.63 274.028,144.302C274.447,143.974 275.054,144.048 275.382,144.468C275.785,144.984 276.179,145.508 276.564,146.039ZM272.85,141.463C273.208,141.857 273.178,142.468 272.784,142.826C272.39,143.184 271.779,143.154 271.421,142.76C270.996,142.292 270.563,141.833 270.122,141.381C269.75,141 269.757,140.389 270.138,140.016C270.518,139.644 271.13,139.651 271.502,140.032C271.96,140.501 272.409,140.977 272.85,141.463ZM268.655,137.324C269.054,137.677 269.091,138.287 268.739,138.686C268.386,139.085 267.776,139.123 267.377,138.77C266.904,138.352 266.423,137.942 265.934,137.541C265.523,137.203 265.463,136.594 265.801,136.183C266.139,135.771 266.748,135.712 267.159,136.05C267.666,136.466 268.164,136.891 268.655,137.324ZM264.036,133.667C264.471,133.975 264.574,134.578 264.266,135.012C263.958,135.447 263.356,135.55 262.921,135.242C262.406,134.878 261.884,134.522 261.355,134.175C260.909,133.883 260.785,133.284 261.077,132.839C261.369,132.394 261.968,132.269 262.413,132.561C262.961,132.921 263.502,133.289 264.036,133.667ZM259.056,130.525C259.52,130.785 259.686,131.373 259.426,131.838C259.166,132.303 258.578,132.469 258.113,132.209C257.562,131.9 257.005,131.601 256.442,131.311C255.969,131.067 255.783,130.485 256.026,130.011C256.27,129.538 256.853,129.351 257.326,129.595C257.909,129.896 258.486,130.206 259.056,130.525ZM253.778,127.918C254.267,128.129 254.492,128.698 254.281,129.186C254.07,129.675 253.502,129.901 253.013,129.69C252.434,129.44 251.849,129.199 251.258,128.967C250.763,128.773 250.518,128.212 250.713,127.716C250.907,127.221 251.468,126.976 251.963,127.171C252.574,127.41 253.179,127.659 253.778,127.918ZM248.266,125.859C248.774,126.021 249.055,126.564 248.893,127.071C248.732,127.579 248.189,127.86 247.681,127.698C247.08,127.507 246.474,127.325 245.863,127.153C245.35,127.008 245.052,126.474 245.197,125.962C245.342,125.449 245.875,125.151 246.388,125.295C247.019,125.474 247.645,125.662 248.266,125.859ZM242.582,124.351C243.103,124.463 243.435,124.976 243.323,125.497C243.211,126.018 242.698,126.35 242.177,126.238C241.56,126.105 240.939,125.982 240.314,125.868C239.79,125.773 239.442,125.27 239.537,124.746C239.633,124.222 240.136,123.874 240.66,123.97C241.305,124.087 241.946,124.214 242.582,124.351ZM236.785,123.387C237.313,123.45 237.692,123.931 237.629,124.459C237.566,124.988 237.085,125.366 236.556,125.303C235.93,125.229 235.299,125.163 234.666,125.107C234.135,125.06 233.743,124.591 233.79,124.061C233.837,123.53 234.306,123.138 234.836,123.185C235.489,123.243 236.139,123.31 236.785,123.387ZM225.109,122.932C225.641,122.932 226.074,123.364 226.074,123.896C226.074,124.429 225.641,124.861 225.109,124.861L223.179,124.861C222.646,124.861 222.214,124.429 222.214,123.896C222.214,123.364 222.646,122.932 223.179,122.932L225.109,122.932ZM219.319,122.932C219.851,122.932 220.284,123.364 220.284,123.896C220.284,124.429 219.851,124.861 219.319,124.861L217.389,124.861C216.856,124.861 216.424,124.429 216.424,123.896C216.424,123.364 216.856,122.932 217.389,122.932L219.319,122.932ZM213.529,122.932C214.062,122.932 214.494,123.364 214.494,123.896C214.494,124.429 214.062,124.861 213.529,124.861L211.599,124.861C211.067,124.861 210.634,124.429 210.634,123.896C210.634,123.364 211.067,122.932 211.599,122.932L213.529,122.932ZM207.739,122.932C208.272,122.932 208.704,123.364 208.704,123.896C208.704,124.429 208.272,124.861 207.739,124.861L205.809,124.861C205.277,124.861 204.844,124.429 204.844,123.896C204.844,123.364 205.277,122.932 205.809,122.932L207.739,122.932ZM201.95,122.932C202.482,122.932 202.914,123.364 202.914,123.896C202.914,124.429 202.482,124.861 201.95,124.861L200.02,124.861C199.487,124.861 199.055,124.429 199.055,123.896C199.055,123.364 199.487,122.932 200.02,122.932L201.95,122.932ZM196.16,122.932C196.692,122.932 197.125,123.364 197.125,123.896C197.125,124.429 196.692,124.861 196.16,124.861L194.23,124.861C193.697,124.861 193.265,124.429 193.265,123.896C193.265,123.364 193.697,122.932 194.23,122.932L196.16,122.932ZM190.37,122.932C190.903,122.932 191.335,123.364 191.335,123.896C191.335,124.429 190.903,124.861 190.37,124.861L188.44,124.861C187.907,124.861 187.475,124.429 187.475,123.896C187.475,123.364 187.907,122.932 188.44,122.932L190.37,122.932ZM184.58,122.932C185.113,122.932 185.545,123.364 185.545,123.896C185.545,124.429 185.113,124.861 184.58,124.861L182.65,124.861C182.118,124.861 181.685,124.429 181.685,123.896C181.685,123.364 182.118,122.932 182.65,122.932L184.58,122.932ZM178.79,122.932C179.323,122.932 179.755,123.364 179.755,123.896C179.755,124.429 179.323,124.861 178.79,124.861L176.86,124.861C176.328,124.861 175.895,124.429 175.895,123.896C175.895,123.364 176.328,122.932 176.86,122.932L178.79,122.932ZM173.001,122.932C173.533,122.932 173.966,123.364 173.966,123.896C173.966,124.429 173.533,124.861 173.001,124.861L171.071,124.861C170.538,124.861 170.106,124.429 170.106,123.896C170.106,123.364 170.538,122.932 171.071,122.932L173.001,122.932ZM167.211,122.932C167.743,122.932 168.176,123.364 168.176,123.896C168.176,124.429 167.743,124.861 167.211,124.861L165.281,124.861C164.748,124.861 164.316,124.429 164.316,123.896C164.316,123.364 164.748,122.932 165.281,122.932L167.211,122.932ZM161.421,122.932C161.953,122.932 162.386,123.364 162.386,123.896C162.386,124.429 161.953,124.861 161.421,124.861L159.491,124.861C158.958,124.861 158.526,124.429 158.526,123.896C158.526,123.364 158.958,122.932 159.491,122.932L161.421,122.932ZM155.631,122.932C156.164,122.932 156.596,123.364 156.596,123.896C156.596,124.429 156.164,124.861 155.631,124.861L153.701,124.861C153.169,124.861 152.736,124.429 152.736,123.896C152.736,123.364 153.169,122.932 153.701,122.932L155.631,122.932Z" style="fill:#98c1e8;"/>
                <path d="M150,269.794L194.327,269.97C234.803,269.97 261.422,273.303 281.37,253.178C293.82,240.617 300,200.691 300,196.919L300,262.01C300,282.089 283.699,298.39 263.62,298.39L36.38,298.39C16.301,298.39 0,282.089 0,262.01L0,196.919C0,200.691 6.18,240.617 18.63,253.178C38.578,273.303 65.197,269.97 105.673,269.97L150,269.794Z" style="fill:#8e191b;"/>
                <path d="M3.107,276.734C1.11,272.232 0,267.249 0,262.01L0,196.919C0,198.462 1.034,206.052 3.107,215.345L3.107,276.734ZM16.062,250.096C16.886,251.247 17.742,252.282 18.63,253.178C26.056,260.67 34.407,264.911 44.052,267.283L44.052,298.39L36.38,298.39C28.858,298.39 21.865,296.102 16.062,292.184L16.062,250.096ZM57.007,269.394C66.638,270.32 77.423,270.226 89.624,270.091L89.624,298.39L57.007,298.39L57.007,269.394ZM102.578,269.976C103.601,269.972 104.632,269.97 105.673,269.97L137.046,269.845L137.046,298.39L102.578,298.39L102.578,269.976ZM150,269.794L186.213,269.938L186.213,298.39L150,298.39L150,269.794ZM199.167,269.985C212.019,270.058 223.425,270.372 233.635,269.993L233.635,298.39L199.167,298.39L199.167,269.985ZM246.589,268.992C260.325,267.229 271.641,262.994 281.37,253.178C281.863,252.681 282.346,252.14 282.82,251.561L282.82,292.91C277.246,296.383 270.665,298.39 263.62,298.39L246.589,298.39L246.589,268.992ZM295.774,220.092C298.595,208.738 300,198.718 300,196.919L300,262.01C300,268.158 298.472,273.952 295.774,279.033L295.774,220.092Z" style="fill:#d62027;"/>
                <path d="M0,206.489L0,196.919C0,200.691 6.18,240.617 18.63,253.178C38.578,273.303 65.197,269.97 105.673,269.97L150,269.794L194.327,269.97C234.803,269.97 261.422,273.303 281.37,253.178C293.82,240.617 300,200.691 300,196.919L300,206.489C300,210.261 293.82,243.555 281.37,256.116C261.422,276.24 234.803,272.907 194.327,272.907L150,272.731L105.673,272.907C65.197,272.907 38.578,276.24 18.63,256.116C6.18,243.555 0,210.261 0,206.489Z" style="fill:#8e191b;"/>
                <path d="M262.36,298.39L206.44,298.39C206.647,288.553 205.988,279.111 204.536,270.028C226.736,270.247 244.45,270.809 259.095,266.428C260.998,276.186 262.059,286.869 262.36,298.39Z" style="fill:#3e0001;fill-opacity:0.15;"/>
                <path d="M216.943,316.446C217.239,318.075 216.157,319.638 214.528,319.934C212.899,320.23 211.336,319.148 211.04,317.519C210.171,312.74 212.63,307.692 215.319,303.943C216.284,302.598 218.16,302.289 219.505,303.254C220.851,304.219 221.159,306.095 220.194,307.441C218.386,309.962 216.359,313.232 216.943,316.446Z" style="fill:#d62027;"/>
                <path d="M217.252,307.033C217.819,305.477 219.542,304.674 221.098,305.241C222.654,305.808 223.457,307.531 222.89,309.087C222.528,310.08 222.76,311.26 222.757,312.299C222.751,314.991 222.693,317.668 222.613,320.356C222.564,322.011 221.181,323.315 219.526,323.266C217.871,323.217 216.567,321.833 216.616,320.178C216.694,317.544 216.751,314.922 216.757,312.285C216.762,310.58 216.659,308.662 217.252,307.033Z" style="fill:#b81b21;"/>
                <path d="M221.256,310.034C221.256,308.378 222.6,307.034 224.256,307.034C225.912,307.034 227.256,308.378 227.256,310.034C227.256,313.705 227.622,317.365 228.345,320.949C228.672,322.572 227.62,324.155 225.997,324.483C224.374,324.81 222.79,323.758 222.463,322.135C221.662,318.162 221.256,314.104 221.256,310.034Z" style="fill:#d62027;"/>
                <path d="M227.184,309.838C227.293,308.185 228.722,306.932 230.374,307.04C232.026,307.148 233.28,308.578 233.171,310.23C232.914,314.166 232.876,318.204 233,322.147C233.052,323.802 231.751,325.188 230.096,325.24C228.441,325.292 227.055,323.99 227.003,322.336C226.873,318.2 226.914,313.966 227.184,309.838Z" style="fill:#b81b21;"/>
                <path d="M231.836,312.087C231.836,310.431 233.181,309.087 234.836,309.087C236.492,309.087 237.836,310.431 237.836,312.087C237.836,315.481 237.756,318.865 238.019,322.247C238.147,323.898 236.911,325.342 235.26,325.471C233.61,325.599 232.165,324.363 232.037,322.712C231.762,319.175 231.836,315.636 231.836,312.087Z" style="fill:#d62027;"/>
                <path d="M236.176,312.441C235.806,310.827 236.816,309.216 238.43,308.847C240.044,308.477 241.655,309.487 242.025,311.101C242.585,313.547 242.872,316.156 243.116,318.636C243.188,319.373 243.09,320.201 243.331,320.911C243.865,322.479 243.025,324.184 241.457,324.717C239.89,325.251 238.184,324.411 237.651,322.843C237.265,321.707 237.261,320.402 237.145,319.223C236.925,316.991 236.68,314.642 236.176,312.441Z" style="fill:#b81b21;"/>
                <path d="M241.705,313C241.331,311.387 242.338,309.774 243.951,309.401C245.564,309.027 247.177,310.034 247.55,311.647C248.387,315.262 248.262,319.033 249.142,322.655C249.533,324.264 248.544,325.887 246.935,326.278C245.326,326.669 243.702,325.68 243.311,324.071C242.427,320.428 242.546,316.636 241.705,313Z" style="fill:#d62027;"/>
                <path d="M246.365,310.665C246.365,309.01 247.709,307.665 249.365,307.665C251.021,307.665 252.365,309.01 252.365,310.665C252.365,313.942 252.523,317.222 252.523,320.504C252.523,322.159 251.179,323.504 249.523,323.504C247.867,323.504 246.523,322.16 246.523,320.504C246.523,317.222 246.365,313.942 246.365,310.665Z" style="fill:#b81b21;"/>
                <path d="M250.271,310.503C250.012,308.868 251.129,307.33 252.765,307.071C254.4,306.812 255.938,307.929 256.197,309.564C256.614,312.199 257.25,314.763 258.101,317.286C258.63,318.855 257.786,320.558 256.217,321.087C254.648,321.616 252.945,320.772 252.415,319.203C251.457,316.361 250.741,313.471 250.271,310.503Z" style="fill:#d62027;"/>
                <path d="M199.536,269.987C201.709,266.364 204.507,263.277 208.892,261.55C221.154,256.722 243.208,257.887 248.991,261.143C253.969,263.946 255.007,269.397 255.912,275.408C257.47,285.747 258.318,295.23 257.926,305.847C257.346,321.558 211.495,316.96 211.498,304.662C211.501,289.345 210.349,278.754 208.773,270.073L199.536,269.987Z" style="fill:#d62027;"/>
                <path d="M254.609,268.895C255.203,270.908 255.567,273.117 255.912,275.408C256.271,277.785 256.591,280.117 256.868,282.429C245.234,279.407 222.752,279.263 210.534,282.769C210.068,278.017 209.461,273.863 208.773,270.073C221.016,263.218 246.866,263.116 254.609,268.895ZM257.926,305.847C257.346,321.558 211.495,316.96 211.498,304.662C217.241,300.948 254.329,302.705 257.926,305.847Z" style="fill:#8e191b;"/>
                <g transform="matrix(1,0,0,1,0,-32.0739)">
                    <path d="M150,134.93C152.754,134.93 154.99,137.166 154.99,139.92C154.99,142.674 152.754,144.91 150,144.91C147.246,144.91 145.01,142.674 145.01,139.92C145.01,137.166 147.246,134.93 150,134.93ZM166.92,133.22C169.674,133.22 171.91,135.456 171.91,138.21C171.91,140.964 169.674,143.2 166.92,143.2C164.166,143.2 161.93,140.964 161.93,138.21C161.93,135.456 164.166,133.22 166.92,133.22ZM182.88,128.23C185.634,128.23 187.87,130.466 187.87,133.22C187.87,135.974 185.634,138.21 182.88,138.21C180.126,138.21 177.89,135.974 177.89,133.22C177.89,130.466 180.126,128.23 182.88,128.23ZM133.08,133.22C135.834,133.22 138.07,135.456 138.07,138.21C138.07,140.964 135.834,143.2 133.08,143.2C130.326,143.2 128.09,140.964 128.09,138.21C128.09,135.456 130.326,133.22 133.08,133.22ZM117.12,128.23C119.874,128.23 122.11,130.466 122.11,133.22C122.11,135.974 119.874,138.21 117.12,138.21C114.366,138.21 112.13,135.974 112.13,133.22C112.13,130.466 114.366,128.23 117.12,128.23Z" style="fill:#7ca1d5;"/>
                </g>
                <g transform="matrix(1,0,0,1,0,-30.4972)">
                    <path d="M150,134.93C152.754,134.93 154.99,137.166 154.99,139.92C154.99,142.674 152.754,144.91 150,144.91C147.246,144.91 145.01,142.674 145.01,139.92C145.01,137.166 147.246,134.93 150,134.93ZM166.92,133.22C169.674,133.22 171.91,135.456 171.91,138.21C171.91,140.964 169.674,143.2 166.92,143.2C164.166,143.2 161.93,140.964 161.93,138.21C161.93,135.456 164.166,133.22 166.92,133.22ZM182.88,128.23C185.634,128.23 187.87,130.466 187.87,133.22C187.87,135.974 185.634,138.21 182.88,138.21C180.126,138.21 177.89,135.974 177.89,133.22C177.89,130.466 180.126,128.23 182.88,128.23ZM133.08,133.22C135.834,133.22 138.07,135.456 138.07,138.21C138.07,140.964 135.834,143.2 133.08,143.2C130.326,143.2 128.09,140.964 128.09,138.21C128.09,135.456 130.326,133.22 133.08,133.22ZM117.12,128.23C119.874,128.23 122.11,130.466 122.11,133.22C122.11,135.974 119.874,138.21 117.12,138.21C114.366,138.21 112.13,135.974 112.13,133.22C112.13,130.466 114.366,128.23 117.12,128.23Z" style="fill:#2f2c38;"/>
                </g>
                <g transform="matrix(-0.627174,0.778879,-0.778879,-0.627174,327.706,30.9827)">
                    <path d="M158.37,116.77C158.37,123.746 153.421,129.13 147.7,129.13C144.202,129.13 119.244,127.032 109.399,122.911C107.491,122.112 106.061,121.191 105.191,120.272C104.149,119.17 103.7,117.968 103.7,116.77C103.7,115.572 104.148,114.371 105.19,113.269C106.059,112.35 107.489,111.428 109.396,110.629C119.237,106.508 144.185,104.41 147.7,104.41C153.448,104.41 158.37,109.794 158.37,116.77Z" style="fill:#7ca1d5;"/>
                </g>
                <g transform="matrix(-0.627174,0.778879,-0.778879,-0.627174,329.049,29.3229)">
                    <path d="M155.37,116.77C155.37,121.94 151.94,126.13 147.7,126.13C143.46,126.13 106.7,123.02 106.7,116.77C106.7,110.52 143.44,107.41 147.7,107.41C151.96,107.41 155.37,111.6 155.37,116.77Z" style="fill:#f68b1f;fill-rule:nonzero;"/>
                </g>
                <g transform="matrix(-0.627174,0.778879,-0.778879,-0.627174,329.049,29.3229)">
                    <path d="M158.37,116.77C158.37,123.746 153.421,129.13 147.7,129.13C144.202,129.13 119.244,127.032 109.399,122.911C107.491,122.112 106.061,121.191 105.191,120.272C104.149,119.17 103.7,117.968 103.7,116.77C103.7,115.572 104.148,114.371 105.19,113.269C106.059,112.35 107.489,111.428 109.396,110.629C119.237,106.508 144.185,104.41 147.7,104.41C153.448,104.41 158.37,109.794 158.37,116.77ZM144.358,125.959C145.954,126.073 147.126,126.13 147.7,126.13C151.129,126.13 154.029,123.389 155.012,119.605C154.918,119.538 154.847,119.438 154.818,119.317C154.754,119.048 154.919,118.778 155.188,118.714C155.194,118.712 155.2,118.711 155.205,118.709C155.313,118.084 155.37,117.435 155.37,116.77C155.37,111.6 151.96,107.41 147.7,107.41C147.269,107.41 146.505,107.442 145.48,107.506C150.722,113.923 148.915,121.808 144.358,125.959ZM144.235,107.59C141.831,107.764 138.499,108.064 134.805,108.49C139.348,113.308 137.834,120.972 133.226,124.861C136.9,125.31 140.307,125.639 142.93,125.85C144.645,124.549 146.019,122.704 146.836,120.582C146.685,120.587 146.532,120.593 146.379,120.597C146.103,120.606 145.872,120.389 145.863,120.114C145.854,119.838 146.071,119.607 146.347,119.598C146.627,119.589 146.904,119.579 147.178,119.568C148.264,115.819 147.639,111.387 144.235,107.59ZM133.53,108.641C130.592,108.996 127.474,109.428 124.442,109.937C127,112.202 127.66,115.946 126.529,119.123C126.743,119.192 126.891,119.399 126.875,119.633C126.857,119.909 126.618,120.117 126.343,120.099C126.27,120.094 126.196,120.089 126.123,120.084C125.483,121.382 124.518,122.539 123.237,123.395C126.062,123.893 128.995,124.322 131.814,124.684C133.317,123.651 134.53,122.199 135.354,120.551C135.352,120.551 135.35,120.551 135.348,120.55C135.016,120.54 134.682,120.528 134.347,120.516C134.071,120.506 133.856,120.274 133.866,119.998C133.876,119.722 134.108,119.506 134.384,119.517C134.717,119.529 135.05,119.54 135.381,119.551C135.52,119.556 135.644,119.617 135.732,119.712C137.218,116.035 136.82,111.613 133.53,108.641ZM123.11,110.166C120.227,110.677 117.46,111.258 115.046,111.911C116.364,113.159 117.029,115.073 116.974,116.949C116.961,117.397 116.907,117.841 116.812,118.273C117.027,118.296 117.244,118.319 117.461,118.342C117.735,118.37 117.935,118.616 117.907,118.891C117.878,119.165 117.632,119.365 117.357,119.336C117.076,119.307 116.797,119.277 116.52,119.247C116.167,120.157 115.607,120.967 114.838,121.571C116.907,122.139 119.246,122.654 121.7,123.115C123.219,122.403 124.352,121.265 125.086,119.936C124.95,119.838 124.867,119.674 124.88,119.496C124.9,119.22 125.139,119.013 125.414,119.032C125.446,119.034 125.477,119.037 125.509,119.039C126.749,115.924 126.002,112.113 123.11,110.166ZM113.876,112.242C109.605,113.503 106.7,115.013 106.7,116.77C106.7,118.483 109.46,119.959 113.555,121.201C115.141,120.396 115.923,118.677 115.974,116.92C116.027,115.114 115.321,113.241 113.876,112.242ZM114.487,118.01C114.761,118.042 114.957,118.292 114.924,118.566C114.891,118.84 114.642,119.035 114.368,119.003C114.033,118.962 113.701,118.922 113.373,118.88C113.099,118.846 112.905,118.596 112.939,118.322C112.974,118.048 113.224,117.854 113.498,117.888C113.824,117.929 114.154,117.97 114.487,118.01ZM111.522,117.626C111.795,117.664 111.986,117.917 111.948,118.191C111.91,118.464 111.657,118.655 111.383,118.617C111.047,118.569 110.715,118.522 110.39,118.474C110.117,118.433 109.928,118.179 109.968,117.906C110.009,117.633 110.263,117.444 110.536,117.484C110.859,117.532 111.188,117.579 111.522,117.626ZM108.57,117.175C108.842,117.221 109.026,117.479 108.98,117.751C108.935,118.023 108.677,118.207 108.404,118.161C108.065,118.104 107.735,118.047 107.413,117.989C107.142,117.94 106.961,117.679 107.01,117.408C107.059,117.136 107.319,116.956 107.591,117.005C107.908,117.062 108.235,117.119 108.57,117.175ZM123.424,118.883C123.699,118.905 123.904,119.146 123.883,119.421C123.861,119.696 123.62,119.902 123.345,119.88C123.011,119.854 122.678,119.827 122.347,119.8C122.072,119.777 121.867,119.535 121.889,119.26C121.912,118.985 122.154,118.781 122.429,118.803C122.759,118.831 123.091,118.857 123.424,118.883ZM120.44,118.631C120.715,118.656 120.918,118.899 120.893,119.174C120.868,119.449 120.625,119.652 120.35,119.627C120.015,119.597 119.683,119.566 119.352,119.535C119.077,119.509 118.876,119.264 118.902,118.99C118.928,118.715 119.172,118.513 119.447,118.539C119.776,118.57 120.107,118.601 120.44,118.631ZM153.267,119.071C153.54,119.031 153.794,119.221 153.834,119.494C153.873,119.767 153.684,120.021 153.411,120.06C153.09,120.107 152.754,120.151 152.406,120.191C152.132,120.223 151.883,120.027 151.851,119.753C151.819,119.479 152.015,119.23 152.289,119.198C152.629,119.158 152.955,119.116 153.267,119.071ZM150.318,119.388C150.593,119.367 150.834,119.572 150.855,119.848C150.877,120.123 150.671,120.364 150.396,120.385C150.069,120.411 149.734,120.434 149.391,120.456C149.116,120.474 148.878,120.265 148.86,119.989C148.843,119.714 149.052,119.476 149.327,119.458C149.665,119.437 149.996,119.413 150.318,119.388ZM141.365,119.662C141.641,119.663 141.864,119.888 141.863,120.164C141.863,120.44 141.638,120.663 141.362,120.662C141.03,120.661 140.696,120.659 140.359,120.656C140.083,120.654 139.861,120.428 139.864,120.152C139.866,119.876 140.092,119.654 140.368,119.656C140.703,119.659 141.035,119.661 141.365,119.662ZM144.355,119.645C144.631,119.64 144.859,119.861 144.863,120.137C144.868,120.413 144.647,120.64 144.371,120.645C144.04,120.65 143.706,120.654 143.368,120.657C143.092,120.659 142.866,120.437 142.863,120.162C142.861,119.886 143.083,119.66 143.359,119.657C143.695,119.654 144.027,119.65 144.355,119.645ZM138.373,119.628C138.649,119.634 138.869,119.862 138.864,120.138C138.858,120.414 138.63,120.633 138.354,120.628C138.022,120.622 137.688,120.615 137.352,120.607C137.076,120.6 136.858,120.371 136.864,120.095C136.871,119.819 137.1,119.601 137.376,119.607C137.71,119.615 138.042,119.622 138.373,119.628ZM132.389,119.436C132.665,119.448 132.879,119.682 132.866,119.957C132.854,120.233 132.62,120.447 132.345,120.435C132.012,120.42 131.678,120.404 131.344,120.388C131.068,120.375 130.855,120.14 130.869,119.864C130.882,119.589 131.117,119.376 131.392,119.389C131.725,119.405 132.057,119.421 132.389,119.436ZM129.399,119.285C129.674,119.3 129.885,119.537 129.87,119.812C129.855,120.088 129.618,120.299 129.343,120.283C129.009,120.265 128.676,120.245 128.343,120.226C128.067,120.209 127.857,119.972 127.873,119.697C127.89,119.421 128.127,119.211 128.402,119.227C128.734,119.247 129.067,119.266 129.399,119.285Z" style="fill:#d16900;"/>
                </g>
                <g transform="matrix(1,0,0,1,0,-33.8171)">
                    <path d="M205.612,59.704C217.812,59.704 227.718,69.609 227.718,81.81C227.718,94.01 217.812,103.916 205.612,103.916C193.411,103.916 183.506,94.01 183.506,81.81C183.506,69.609 193.411,59.704 205.612,59.704ZM89.906,59.704C77.705,59.704 67.8,69.609 67.8,81.81C67.8,94.01 77.705,103.916 89.906,103.916C102.107,103.916 112.012,94.01 112.012,81.81C112.012,69.609 102.107,59.704 89.906,59.704Z" style="fill:#7ca1d5;"/>
                </g>
                <g transform="matrix(1,0,0,1,-2.12969,-27.4881)">
                    <path d="M207.741,57.806C219.942,57.806 229.847,67.712 229.847,79.913C229.847,92.113 219.942,102.019 207.741,102.019C195.541,102.019 185.635,92.113 185.635,79.913C185.635,67.712 195.541,57.806 207.741,57.806ZM92.036,57.806C104.236,57.806 114.142,67.712 114.142,79.913C114.142,92.113 104.236,102.019 92.036,102.019C79.835,102.019 69.93,92.113 69.93,79.913C69.93,67.712 79.835,57.806 92.036,57.806Z" style="fill:#2f2c38;"/>
                </g>
                <g transform="matrix(1.54657,0,0,1.54657,-116.288,-26.9649)">
                    <path d="M213.323,40.228C215.835,40.228 217.874,42.267 217.874,44.779C217.874,47.29 215.835,49.329 213.323,49.329C210.812,49.329 208.773,47.29 208.773,44.779C208.773,42.267 210.812,40.228 213.323,40.228ZM138.387,40.228C140.898,40.228 142.937,42.267 142.937,44.779C142.937,47.29 140.898,49.329 138.387,49.329C135.875,49.329 133.836,47.29 133.836,44.779C133.836,42.267 135.875,40.228 138.387,40.228Z" style="fill:#fff;"/>
                </g>
            </g>
        </g>
    </g>
</svg>
