<?xml version="1.0" encoding="UTF-8" standalone="no"?>
<!DOCTYPE svg PUBLIC "-//W3C//DTD SVG 1.1//EN" "http://www.w3.org/Graphics/SVG/1.1/DTD/svg11.dtd">
<svg width="100%" height="100%" viewBox="0 0 300 345" version="1.1" xmlns="http://www.w3.org/2000/svg" xmlns:xlink="http://www.w3.org/1999/xlink" xml:space="preserve" xmlns:serif="http://www.serif.com/" style="fill-rule:evenodd;clip-rule:evenodd;stroke-linejoin:round;stroke-miterlimit:2;">
    <g id="Cookie-2" serif:id="Cookie 2">
        <g id="Cookie">
            <g>
                <g>
                    <path d="M0,262.01L0,80.311C0,39.634 67.213,6.609 150,6.609C232.787,6.609 300,39.634 300,80.311L300,262.01C300,282.089 283.699,298.39 263.62,298.39L36.38,298.39C16.301,298.39 0,282.089 0,262.01ZM19.135,241.846C19.156,260.672 34.423,275.922 53.249,275.922C105.567,275.924 194.188,275.924 246.703,275.924C255.768,275.924 264.461,272.316 270.861,265.896C277.262,259.477 280.845,250.774 280.818,241.709C280.737,213.585 280.634,178.348 280.634,178.348C279.534,146.93 257.959,124.642 224.011,123.847L75.549,123.847C44.296,124.623 19.591,146.844 19.002,175.847C18.837,183.955 18.983,216.136 19.135,241.846Z" style="fill:#e3a764;"/>
                    <path d="M20.593,43.957C16.873,29.815 34.559,22.043 45.409,28.158L20.593,43.957Z" style="fill:#e3a764;"/>
                    <g transform="matrix(-0.951314,-0.308223,-0.308223,0.951314,319.425,18.1147)">
                        <path d="M20.593,43.957C16.873,29.815 34.559,22.043 45.409,28.158L20.593,43.957Z" style="fill:#e3a764;"/>
                    </g>
                    <path d="M278.858,34.247C283.456,31.898 286.1,28.03 287.232,22.985L283.049,21.397L270.701,26.884L272.433,33.309L278.858,34.247Z" style="fill:#e3a764;"/>
                    <path d="M283.276,23.732C279.841,26.89 276.581,28.652 273.562,28.482C275.959,31.262 281.125,41.894 283.201,48.145L24.886,42.771L53.252,24.004C75.952,7.594 86.94,0 127.055,0L220.55,0C240.117,0 255.027,16.448 275.446,12.723C275.441,12.576 275.438,12.429 275.438,12.281C275.438,5.503 280.941,0 287.719,0C294.497,0 300,5.503 300,12.281C300,19.059 294.497,24.562 287.719,24.562C286.153,24.562 284.654,24.268 283.276,23.732Z" style="fill:#e3a764;"/>
                    <path d="M280.634,171.739L280.634,178.348C279.534,146.93 257.959,124.642 224.011,123.847L75.549,123.847C44.296,124.623 19.591,146.844 19.002,175.847C18.959,177.952 18.937,181.679 18.931,186.494C18.922,178.49 18.941,172.227 19.002,169.238C19.591,140.235 44.296,118.014 75.549,117.238L224.011,117.238C257.959,118.033 279.534,140.321 280.634,171.739Z" style="fill:#c98b46;"/>
                    <path d="M37.535,137.723L37.535,131.114C38.255,130.51 38.992,129.924 39.745,129.354L39.745,135.963C38.992,136.533 38.255,137.119 37.535,137.723ZM65.534,124.855L65.534,118.247C66.265,118.116 67.002,117.997 67.744,117.89L67.744,124.499C67.002,124.606 66.265,124.724 65.534,124.855ZM69.908,124.225L69.908,117.616C70.641,117.536 71.377,117.467 72.118,117.411L72.118,124.02C71.377,124.076 70.641,124.145 69.908,124.225ZM119.139,123.847L119.139,117.238L121.349,117.238L121.349,123.847L119.139,123.847ZM131.446,123.847L131.446,117.238L133.656,117.238L133.656,123.847L131.446,123.847ZM136.054,123.847L136.054,117.238L138.264,117.238L138.264,123.847L136.054,123.847ZM179.043,123.847L179.043,117.238L181.253,117.238L181.253,123.847L179.043,123.847ZM187.559,123.847L187.559,117.238L189.77,117.238L189.77,123.847L187.559,123.847ZM191.176,123.847L191.176,117.238L193.386,117.238L193.386,123.847L191.176,123.847ZM209.025,123.847L209.025,117.238L211.235,117.238L211.235,123.847L209.025,123.847ZM224.19,123.852L224.19,117.243C224.933,117.262 225.67,117.291 226.401,117.331L226.401,123.94C225.67,123.9 224.933,123.871 224.19,123.852ZM243.381,126.978L243.381,120.369C244.127,120.609 244.864,120.861 245.591,121.126L245.591,127.735C244.864,127.47 244.127,127.217 243.381,126.978ZM248.047,128.695L248.047,122.086C248.795,122.399 249.532,122.725 250.258,123.065L250.258,129.674C249.532,129.334 248.795,129.008 248.047,128.695ZM261.113,136.462L261.113,129.853C261.87,130.468 262.607,131.103 263.323,131.758L263.323,138.366C262.607,137.712 261.87,137.077 261.113,136.462ZM264.438,139.416L264.438,132.807C265.199,133.547 265.936,134.309 266.648,135.094L266.648,141.703C265.936,140.918 265.199,140.156 264.438,139.416Z" style="fill:#b47c3c;"/>
                    <path d="M43.509,97.166C47.065,97.166 49.953,98.938 49.953,101.121C49.953,103.305 47.065,105.077 43.509,105.077C39.953,105.077 37.066,103.305 37.066,101.121C37.066,98.938 39.953,97.166 43.509,97.166ZM29.987,109.862C31.984,109.862 33.605,110.857 33.605,112.083C33.605,113.309 31.984,114.305 29.987,114.305C27.989,114.305 26.368,113.309 26.368,112.083C26.368,110.857 27.989,109.862 29.987,109.862ZM126.592,61.927C128.59,61.927 130.211,62.922 130.211,64.148C130.211,65.374 128.59,66.369 126.592,66.369C124.595,66.369 122.974,65.374 122.974,64.148C122.974,62.922 124.595,61.927 126.592,61.927ZM140.72,70.828C142.717,70.828 144.338,71.823 144.338,73.049C144.338,74.275 142.717,75.27 140.72,75.27C138.723,75.27 137.101,74.275 137.101,73.049C137.101,71.823 138.723,70.828 140.72,70.828ZM113.526,106.595C115.524,106.595 117.145,107.591 117.145,108.817C117.145,110.043 115.524,111.038 113.526,111.038C111.529,111.038 109.908,110.043 109.908,108.817C109.908,107.591 111.529,106.595 113.526,106.595ZM68.694,56.635C70.691,56.635 72.313,57.63 72.313,58.856C72.313,60.082 70.691,61.078 68.694,61.078C66.697,61.078 65.075,60.082 65.075,58.856C65.075,57.63 66.697,56.635 68.694,56.635ZM27.373,58.856C29.371,58.856 30.992,59.852 30.992,61.078C30.992,62.304 29.371,63.299 27.373,63.299C25.376,63.299 23.755,62.304 23.755,61.078C23.755,59.852 25.376,58.856 27.373,58.856ZM192.794,48.159C194.792,48.159 196.413,49.154 196.413,50.38C196.413,51.606 194.792,52.601 192.794,52.601C190.797,52.601 189.176,51.606 189.176,50.38C189.176,49.154 190.797,48.159 192.794,48.159ZM252.979,113.08C254.976,113.08 256.598,114.075 256.598,115.301C256.598,116.527 254.976,117.523 252.979,117.523C250.982,117.523 249.36,116.527 249.36,115.301C249.36,114.075 250.982,113.08 252.979,113.08ZM283.929,76.985C285.926,76.985 287.548,77.981 287.548,79.207C287.548,80.433 285.926,81.428 283.929,81.428C281.932,81.428 280.31,80.433 280.31,79.207C280.31,77.981 281.932,76.985 283.929,76.985ZM267.695,68.784C270.81,68.784 273.338,70.336 273.338,72.248C273.338,74.16 270.81,75.712 267.695,75.712C264.581,75.712 262.053,74.16 262.053,72.248C262.053,70.336 264.581,68.784 267.695,68.784ZM287.548,140.728C290.662,140.728 293.19,142.28 293.19,144.192C293.19,146.104 290.662,147.656 287.548,147.656C284.433,147.656 281.905,146.104 281.905,144.192C281.905,142.28 284.433,140.728 287.548,140.728ZM287.548,228.663C289.677,228.663 291.406,229.725 291.406,231.032C291.406,232.339 289.677,233.4 287.548,233.4C285.418,233.4 283.689,232.339 283.689,231.032C283.689,229.725 285.418,228.663 287.548,228.663ZM291.406,240.096C293.536,240.096 295.265,241.157 295.265,242.464C295.265,243.772 293.536,244.833 291.406,244.833C289.276,244.833 287.548,243.772 287.548,242.464C287.548,241.157 289.276,240.096 291.406,240.096ZM275.482,268.432C277.612,268.432 279.341,269.494 279.341,270.801C279.341,272.108 277.612,273.17 275.482,273.17C273.352,273.17 271.623,272.108 271.623,270.801C271.623,269.494 273.352,268.432 275.482,268.432ZM255.148,291.624C257.278,291.624 259.007,292.686 259.007,293.993C259.007,295.3 257.278,296.362 255.148,296.362C253.019,296.362 251.29,295.3 251.29,293.993C251.29,292.686 253.019,291.624 255.148,291.624ZM241.592,286.887C243.722,286.887 245.451,287.948 245.451,289.256C245.451,290.563 243.722,291.624 241.592,291.624C239.463,291.624 237.734,290.563 237.734,289.256C237.734,287.948 239.463,286.887 241.592,286.887ZM198.539,286.887C201.245,286.887 203.442,288.236 203.442,289.897C203.442,291.558 201.245,292.907 198.539,292.907C195.833,292.907 193.637,291.558 193.637,289.897C193.637,288.236 195.833,286.887 198.539,286.887ZM98.014,290.342C100.72,290.342 102.917,291.691 102.917,293.352C102.917,295.013 100.72,296.362 98.014,296.362C95.308,296.362 93.111,295.013 93.111,293.352C93.111,291.691 95.308,290.342 98.014,290.342ZM87.841,290.342C89.394,290.342 90.655,291.116 90.655,292.07C90.655,293.023 89.394,293.797 87.841,293.797C86.288,293.797 85.027,293.023 85.027,292.07C85.027,291.116 86.288,290.342 87.841,290.342ZM33.127,275.316C34.681,275.316 35.942,276.091 35.942,277.044C35.942,277.997 34.681,278.772 33.127,278.772C31.574,278.772 30.313,277.997 30.313,277.044C30.313,276.091 31.574,275.316 33.127,275.316ZM11.079,273.589C12.632,273.589 13.893,274.363 13.893,275.316C13.893,276.27 12.632,277.044 11.079,277.044C9.526,277.044 8.265,276.27 8.265,275.316C8.265,274.363 9.526,273.589 11.079,273.589ZM14.476,231.974C16.029,231.974 17.29,232.748 17.29,233.702C17.29,234.655 16.029,235.429 14.476,235.429C12.923,235.429 11.662,234.655 11.662,233.702C11.662,232.748 12.923,231.974 14.476,231.974ZM9.748,222.958C12.036,222.958 13.893,224.098 13.893,225.502C13.893,226.907 12.036,228.047 9.748,228.047C7.46,228.047 5.603,226.907 5.603,225.502C5.603,224.098 7.46,222.958 9.748,222.958ZM200.439,101.467C202.727,101.467 204.584,102.607 204.584,104.012C204.584,105.416 202.727,106.556 200.439,106.556C198.151,106.556 196.294,105.416 196.294,104.012C196.294,102.607 198.151,101.467 200.439,101.467ZM187.642,107.428C188.903,107.428 189.927,108.057 189.927,108.831C189.927,109.605 188.903,110.233 187.642,110.233C186.381,110.233 185.357,109.605 185.357,108.831C185.357,108.057 186.381,107.428 187.642,107.428ZM247.977,79.813C249.238,79.813 250.262,80.441 250.262,81.215C250.262,81.989 249.238,82.618 247.977,82.618C246.716,82.618 245.692,81.989 245.692,81.215C245.692,80.441 246.716,79.813 247.977,79.813Z" style="fill:#d49958;fill-opacity:0.6;"/>
                </g>
                <g>
                    <g transform="matrix(0.975307,0,0,0.975307,3.7039,5.71126)">
                        <path d="M286.468,51.795C287.506,51.629 288.554,52.025 289.223,52.836C296.172,61.331 300,70.603 300,80.311L300,255.224C300,275.303 283.699,291.604 263.62,291.604L36.38,291.604C16.301,291.604 0,275.303 0,255.224L0,80.311C0,67.416 6.754,55.291 18.616,44.743C19.523,43.941 20.824,43.767 21.909,44.303C21.91,44.301 21.911,44.301 21.911,44.302C22.807,44.744 23.424,45.604 23.556,46.595C23.688,47.586 23.318,48.577 22.569,49.239C12.135,58.474 6,68.966 6,80.311L6,255.224C6,271.991 19.613,285.604 36.38,285.604L263.62,285.604C280.387,285.604 294,271.991 294,255.224L294,80.311C294,71.883 290.614,63.926 284.597,56.604C283.926,55.793 283.741,54.684 284.113,53.699C284.484,52.713 285.355,52.003 286.395,51.836C286.417,51.803 286.443,51.799 286.468,51.795Z" style="fill:#d8882d;"/>
                    </g>
                    <g transform="matrix(0.975307,0,0,0.975307,3.7039,3.76561)">
                        <path d="M286.468,51.795C287.506,51.629 288.554,52.025 289.223,52.836C296.172,61.331 300,70.603 300,80.311L300,255.224C300,275.303 283.699,291.604 263.62,291.604L36.38,291.604C16.301,291.604 0,275.303 0,255.224L0,80.311C0,67.416 6.754,55.291 18.616,44.743C19.523,43.941 20.824,43.767 21.909,44.303C21.91,44.301 21.911,44.301 21.911,44.302C22.807,44.744 23.424,45.604 23.556,46.595C23.688,47.586 23.318,48.577 22.569,49.239C12.135,58.474 6,68.966 6,80.311L6,255.224C6,271.991 19.613,285.604 36.38,285.604L263.62,285.604C280.387,285.604 294,271.991 294,255.224L294,80.311C294,71.883 290.614,63.926 284.597,56.604C283.926,55.793 283.741,54.684 284.113,53.699C284.484,52.713 285.355,52.003 286.395,51.836C286.417,51.803 286.443,51.799 286.468,51.795Z" style="fill:#fff;"/>
                    </g>
                    <g transform="matrix(0.975307,0,0,0.975307,3.7039,3.76561)">
                        <path d="M300,254.529L300,255.224C300,275.303 283.699,291.604 263.62,291.604L36.38,291.604C16.301,291.604 0,275.303 0,255.224L0,254.529C0,274.607 16.301,290.909 36.38,290.909L263.62,290.909C283.699,290.909 300,274.607 300,254.529Z" style="fill:#e4e4e4;"/>
                    </g>
                </g>
                <g transform="matrix(19.1118,1.63521,-1.63521,19.1118,-1611.79,-1654.09)">
                    <g transform="matrix(0.0248008,0.242157,-0.242157,0.0248008,116.162,68.6905)">
                        <path d="M94.861,77.901C95.986,79.521 96.618,81.209 96.843,82.953C96.914,83.596 96.554,84.21 95.958,84.461C93.619,85.431 91.406,85.408 89.301,84.498C88.695,84.226 88.35,83.578 88.464,82.924C88.791,81.153 89.467,79.495 90.487,77.946C89.746,77.327 89.274,76.397 89.274,75.356C89.274,74.316 89.746,73.385 90.487,72.766C89.467,71.218 88.791,69.559 88.464,67.789C88.35,67.135 88.695,66.486 89.301,66.215C91.406,65.304 93.619,65.282 95.958,66.251C96.554,66.503 96.914,67.116 96.843,67.76C96.618,69.504 95.986,71.192 94.861,72.811C95.571,73.43 96.021,74.341 96.021,75.356C96.021,76.372 95.571,77.283 94.861,77.901Z" style="fill:#34c700;"/>
                    </g>
                    <g transform="matrix(0.0248008,0.242157,-0.242157,0.0248008,116.162,68.6905)">
                        <path d="M94.61,72.478C95.599,70.958 96.163,69.38 96.373,67.752C96.444,67.109 96.084,66.495 95.488,66.243C94.443,65.81 93.423,65.575 92.426,65.529C93.571,65.513 94.748,65.75 95.958,66.251C96.554,66.503 96.914,67.116 96.843,67.76C96.618,69.504 95.986,71.192 94.861,72.811C95.571,73.43 96.021,74.341 96.021,75.356C96.021,76.372 95.571,77.283 94.861,77.901C95.986,79.521 96.618,81.209 96.843,82.953C96.914,83.596 96.554,84.21 95.958,84.461C94.655,85.001 93.392,85.234 92.164,85.176C93.243,85.162 94.351,84.925 95.488,84.453C96.084,84.202 96.444,83.588 96.373,82.945C96.171,81.379 95.641,79.859 94.72,78.393C93.715,78.813 92.865,78.652 92.026,78.455C92.911,78.507 93.736,78.336 94.391,77.894C95.101,77.275 95.551,76.364 95.551,75.348C95.551,74.333 95.101,73.422 94.391,72.803C93.938,72.578 93.451,72.437 92.932,72.378C93.486,72.293 94.042,72.264 94.61,72.478Z" style="fill:#30b800;"/>
                    </g>
                    <g transform="matrix(0.242157,-0.0248008,0.0248008,0.242157,74.0463,76.9859)">
                        <circle cx="100.854" cy="75.496" r="1.673" style="fill:#38d700;"/>
                    </g>
                    <g transform="matrix(0.242157,-0.0248008,0.0248008,0.242157,74.1134,77.0906)">
                        <path d="M104.793,73.368C105.632,73.084 106.441,72.752 107.28,72.589C107.73,72.501 108.147,72.645 108.338,73.125C108.966,74.713 108.804,76.392 108.189,78.039C108.006,78.529 107.48,78.606 106.967,78.635L104.153,77.742C104.742,76.396 104.998,74.951 104.793,73.368Z" style="fill:#38d700;"/>
                    </g>
                    <g transform="matrix(0.242157,-0.0248008,0.0248008,0.242157,74.1134,77.0906)">
                        <path d="M95.471,76.713C95.503,75.532 95.817,74.638 96.26,73.706C95.254,73.137 94.17,72.606 92.686,72.276C92.298,72.19 91.829,72.381 91.629,72.857C91.219,73.833 91.049,74.926 91.078,76.172C92.5,76.316 93.627,76.465 95.471,76.713Z" style="fill:#38d700;"/>
                    </g>
                </g>
                <g transform="matrix(1,0,0,1,0,12.3966)">
                    <g transform="matrix(5.63894,0,0,5.63894,-292.619,-172.181)">
                        <path d="M89.258,37.967C91.377,37.967 93.097,39.687 93.097,41.806C93.097,43.925 91.377,45.645 89.258,45.645C87.14,45.645 85.419,43.925 85.419,41.806C85.419,39.687 87.14,37.967 89.258,37.967ZM68.213,37.967C70.331,37.967 72.052,39.687 72.052,41.806C72.052,43.925 70.331,45.645 68.213,45.645C66.094,45.645 64.374,43.925 64.374,41.806C64.374,39.687 66.094,37.967 68.213,37.967ZM74.172,44.773C74.093,44.448 74.292,44.12 74.617,44.04C74.943,43.961 75.271,44.16 75.35,44.485C75.73,46.039 77.201,46.817 78.62,46.83C80.009,46.842 81.387,46.11 81.626,44.538C81.676,44.207 81.985,43.979 82.316,44.03C82.647,44.08 82.875,44.389 82.825,44.72C82.486,46.952 80.582,48.06 78.609,48.043C76.665,48.025 74.693,46.902 74.172,44.773Z" style="fill:#d8882d;"/>
                    </g>
                    <g transform="matrix(5.63894,0,0,5.63894,-292.619,-174.254)">
                        <path d="M89.258,37.967C91.377,37.967 93.097,39.687 93.097,41.806C93.097,43.925 91.377,45.645 89.258,45.645C87.14,45.645 85.419,43.925 85.419,41.806C85.419,39.687 87.14,37.967 89.258,37.967ZM68.213,37.967C70.331,37.967 72.052,39.687 72.052,41.806C72.052,43.925 70.331,45.645 68.213,45.645C66.094,45.645 64.374,43.925 64.374,41.806C64.374,39.687 66.094,37.967 68.213,37.967ZM74.172,44.773C74.093,44.448 74.292,44.12 74.617,44.04C74.943,43.961 75.271,44.16 75.35,44.485C75.73,46.039 77.201,46.817 78.62,46.83C80.009,46.842 81.387,46.11 81.626,44.538C81.676,44.207 81.985,43.979 82.316,44.03C82.647,44.08 82.875,44.389 82.825,44.72C82.486,46.952 80.582,48.06 78.609,48.043C76.665,48.025 74.693,46.902 74.172,44.773Z" style="fill:#fff;"/>
                    </g>
                    <g transform="matrix(5.63894,0,0,5.63894,-292.619,-174.254)">
                        <path d="M93.096,41.697C93.097,41.733 93.097,41.77 93.097,41.806C93.097,43.925 91.377,45.645 89.258,45.645C87.14,45.645 85.419,43.925 85.419,41.806C85.419,41.77 85.42,41.733 85.421,41.697C85.479,43.765 87.176,45.427 89.258,45.427C91.341,45.427 93.038,43.765 93.096,41.697ZM72.05,41.697C72.051,41.733 72.052,41.77 72.052,41.806C72.052,43.925 70.331,45.645 68.213,45.645C66.094,45.645 64.374,43.925 64.374,41.806C64.374,41.77 64.374,41.733 64.375,41.697C64.433,43.765 66.13,45.427 68.213,45.427C70.295,45.427 71.992,43.765 72.05,41.697ZM82.822,44.52C82.834,44.585 82.835,44.652 82.825,44.72C82.486,46.952 80.582,48.06 78.609,48.043C76.665,48.025 74.693,46.902 74.172,44.773C74.151,44.687 74.15,44.601 74.165,44.52C74.167,44.532 74.169,44.543 74.172,44.555C74.693,46.684 76.665,47.807 78.609,47.824C80.577,47.842 82.476,46.74 82.822,44.52Z" style="fill:#e4e4e4;"/>
                    </g>
                </g>
                <g>
                    <g>
                        <g transform="matrix(1,0,0,1,0,1.31593)">
                            <path d="M47.495,32C47.101,31.98 46.772,31.693 46.697,31.306C46.622,30.918 46.821,30.53 47.179,30.364C49.772,29.174 52.6,28.049 55.633,27.095C58.744,26.116 67.734,18.702 73.273,15.639C86.506,8.322 99.965,5.293 127.055,5.293L220.55,5.293C229.614,5.293 237.553,9.264 245.638,12.642C255.292,16.676 265.1,19.99 276.396,17.93C277.924,17.651 279.171,16.878 279.981,15.487L282.121,17.604C279.112,25.872 273.414,28.763 265.516,27.255C265.516,27.255 269.554,31.938 269.554,31.939C269.724,32.136 269.764,32.414 269.656,32.652C269.548,32.889 269.313,33.042 269.052,33.044C267.513,33.068 266.005,33.275 264.512,33.582C262.219,34.052 259.988,34.887 257.615,34.979C251.312,35.222 245.324,32.368 239.024,32.08C232.2,31.767 225.938,34.402 219.245,34.646C216.095,34.761 213.093,34.036 210.095,33.313C206.174,32.367 202.261,31.386 198.208,31.216C189.548,30.852 181.326,33.933 172.743,33.563C167.915,33.355 163.181,31.992 158.345,31.735C148.364,31.205 138.356,33.008 128.37,32.524C122.175,32.224 116.305,29.65 110.149,29.325C101.187,28.853 92.27,30.969 83.468,32.273C76.558,33.297 70.275,30.54 63.502,30.187C59.913,29.999 56.165,30.228 52.634,30.881C50.958,31.191 49.21,32.09 47.497,32.001C47.496,32.001 47.496,32.001 47.495,32Z" style="fill:#d8882d;"/>
                        </g>
                        <path d="M47.495,32C47.101,31.98 46.772,31.693 46.697,31.306C46.622,30.918 46.821,30.53 47.179,30.364C49.772,29.174 52.6,28.049 55.633,27.095C58.744,26.116 67.734,18.702 73.273,15.639C86.506,8.322 99.965,5.293 127.055,5.293L220.55,5.293C229.614,5.293 237.553,9.264 245.638,12.642C255.292,16.676 265.1,19.99 276.396,17.93C277.924,17.651 279.171,16.878 279.981,15.487L282.121,17.604C279.112,25.872 273.414,28.763 265.516,27.255C265.516,27.255 269.554,31.938 269.554,31.939C269.724,32.136 269.764,32.414 269.656,32.652C269.548,32.889 269.313,33.042 269.052,33.044C267.513,33.068 266.005,33.275 264.512,33.582C262.219,34.052 259.988,34.887 257.615,34.979C251.312,35.222 245.324,32.368 239.024,32.08C232.2,31.767 225.938,34.402 219.245,34.646C216.095,34.761 213.093,34.036 210.095,33.313C206.174,32.367 202.261,31.386 198.208,31.216C189.548,30.852 181.326,33.933 172.743,33.563C167.915,33.355 163.181,31.992 158.345,31.735C148.364,31.205 138.356,33.008 128.37,32.524C122.175,32.224 116.305,29.65 110.149,29.325C101.187,28.853 92.27,30.969 83.468,32.273C76.558,33.297 70.275,30.54 63.502,30.187C59.913,29.999 56.165,30.228 52.634,30.881C50.958,31.191 49.21,32.09 47.497,32.001C47.496,32.001 47.496,32.001 47.495,32Z" style="fill:#d62e39;"/>
                        <path d="M281.678,17.166L282.121,17.604C279.314,25.316 274.169,28.349 267.081,27.499L265.516,27.255C264.948,26.372 265.084,25.825 266.388,25.936C274.022,26.587 278.57,24.564 281.678,17.166ZM269.146,31.466L269.553,31.938C269.723,32.136 269.764,32.414 269.656,32.652C269.548,32.889 269.313,33.042 269.052,33.044C267.513,33.068 266.005,33.275 264.512,33.582C262.219,34.052 259.988,34.887 257.615,34.979C251.312,35.222 245.324,32.368 239.024,32.08C232.2,31.767 225.938,34.402 219.245,34.646C216.095,34.761 213.093,34.036 210.095,33.313C206.174,32.367 202.261,31.386 198.208,31.216C189.548,30.852 181.326,33.933 172.743,33.563C167.915,33.355 163.181,31.992 158.345,31.735C148.364,31.205 138.356,33.008 128.37,32.524C122.175,32.224 116.305,29.65 110.149,29.325C101.187,28.853 92.27,30.969 83.468,32.273C76.558,33.297 70.275,30.54 63.502,30.187C59.913,29.999 56.165,30.228 52.634,30.881C50.958,31.191 49.21,32.09 47.497,32.001L47.495,32C47.101,31.98 46.772,31.693 46.697,31.306C46.622,30.918 46.821,30.53 47.179,30.364C47.183,30.361 47.188,30.359 47.193,30.357C47.286,30.399 47.388,30.424 47.495,30.43L47.497,30.43C49.21,30.519 50.958,29.621 52.634,29.31C56.165,28.657 59.913,28.429 63.502,28.616C70.275,28.969 76.558,31.726 83.468,30.702C92.27,29.398 101.187,27.282 110.149,27.755C116.305,28.079 122.175,30.653 128.37,30.953C138.356,31.437 148.364,29.634 158.345,30.164C163.181,30.421 167.915,31.784 172.743,31.992C181.326,32.362 189.548,29.281 198.208,29.645C202.261,29.815 206.174,30.796 210.095,31.742C213.093,32.466 216.095,33.19 219.245,33.075C225.938,32.831 232.2,30.196 239.024,30.509C245.324,30.797 251.312,33.651 257.615,33.408C259.988,33.316 262.219,32.481 264.512,32.011C266.005,31.704 267.513,31.498 269.052,31.473C269.084,31.473 269.115,31.47 269.146,31.466Z" style="fill:#b72630;"/>
                        <path d="M111.302,24.295C103.811,23.888 88.966,26.361 89.658,26.151C91.827,25.491 85.261,26.102 83.11,25.362C82.061,25.001 81.102,24.009 81.74,22.813C83.202,20.074 86.696,19.404 89.287,18.16C95.076,15.379 100.188,10.508 106.85,9.953C112.469,9.485 118.184,10.612 123.809,10.701C131.984,10.83 140.205,9.397 148.353,9.826C155.773,10.216 163.12,11.597 170.553,11.772C180.163,11.999 189.672,9.285 199.249,9.664C206.008,9.932 212.072,12.064 218.931,11.251C231.316,9.783 240.638,19.371 252.5,20.665C255.39,20.98 258.239,21.426 261.153,21.525C261.646,21.541 263.458,21.754 263.513,22.456C263.662,24.341 259.163,23.984 258.309,25.057C257.135,26.533 259.335,29.474 257.626,30.534C256.962,30.945 255.868,30.697 255.146,30.599C252.636,30.258 250.547,29.238 248.203,28.378C242.043,26.119 236.628,25.834 230.232,27.264C225.724,28.271 220.742,28.564 216.167,27.853C208.515,26.663 201.44,23.774 193.617,23.729C186.776,23.69 180.213,26.947 173.397,27.56C171.347,27.745 168.92,27.956 166.895,27.507C163.134,26.674 159.819,25.275 155.897,25.195C148.12,25.037 140.622,28.196 132.796,27.856C129.96,27.733 116.582,24.582 111.302,24.295Z" style="fill:#e43540;"/>
                    </g>
                    <g transform="matrix(1,0,0,1,0,1.1773)">
                        <path d="M36.712,43.768C34.107,45.802 30.335,45.389 28.235,42.816C26.106,40.208 26.495,36.362 29.103,34.233C32.362,31.572 35.947,31.126 39.69,31.867C42.335,32.39 45.058,34.039 47.497,34.166C49.21,34.255 50.958,33.357 52.634,33.047C56.165,32.394 59.913,32.165 63.502,32.352C70.275,32.706 76.558,35.462 83.468,34.439C92.27,33.134 101.187,31.019 110.149,31.491C116.305,31.816 122.175,34.389 128.37,34.69C138.356,35.174 148.364,33.37 158.345,33.9C163.181,34.157 167.915,35.52 172.743,35.729C181.326,36.099 189.548,33.018 198.208,33.381C202.261,33.552 206.174,34.532 210.095,35.479C213.093,36.202 216.095,36.927 219.245,36.812C225.938,36.568 232.2,33.933 239.024,34.245C245.324,34.534 251.312,37.387 257.615,37.144C259.988,37.053 262.219,36.218 264.512,35.747C266.941,35.249 269.408,35.015 271.99,35.392C274.868,35.812 277.476,37.118 279.965,38.534C282.892,40.199 283.916,43.926 282.251,46.852C280.587,49.779 276.86,50.803 273.933,49.139C272.752,48.466 271.592,47.663 270.226,47.464C268.253,47.175 266.434,47.802 264.587,48.255C262.453,48.78 260.306,49.25 258.085,49.335C251.441,49.591 245.106,46.737 238.465,46.433C231.981,46.136 226.049,48.772 219.689,49.004C215.408,49.16 211.307,48.322 207.233,47.338C204.082,46.578 200.953,45.707 197.697,45.571C189.032,45.207 180.805,48.287 172.218,47.917C167.349,47.707 162.575,46.342 157.698,46.083C147.736,45.554 137.747,47.359 127.779,46.875C121.567,46.574 115.68,44 109.507,43.674C101.355,43.244 93.262,45.321 85.256,46.507C77.52,47.653 70.45,44.931 62.867,44.536C60.22,44.398 57.457,44.562 54.854,45.043C52.273,45.521 49.501,46.487 46.863,46.35C44.547,46.229 41.998,45.344 39.46,44.465C38.798,44.236 38.136,44.013 37.479,43.868C37.259,43.819 36.885,43.783 36.712,43.768Z" style="fill:#d8882d;"/>
                    </g>
                    <path d="M36.712,43.768C34.107,45.802 30.335,45.389 28.235,42.816C26.106,40.208 26.495,36.362 29.103,34.233C32.362,31.572 35.947,31.126 39.69,31.867C42.335,32.39 45.058,34.039 47.497,34.166C49.21,34.255 50.958,33.357 52.634,33.047C56.165,32.394 59.913,32.165 63.502,32.352C70.275,32.706 76.558,35.462 83.468,34.439C92.27,33.134 101.187,31.019 110.149,31.491C116.305,31.816 122.175,34.389 128.37,34.69C138.356,35.174 148.364,33.37 158.345,33.9C163.181,34.157 167.915,35.52 172.743,35.729C181.326,36.099 189.548,33.018 198.208,33.381C202.261,33.552 206.174,34.532 210.095,35.479C213.093,36.202 216.095,36.927 219.245,36.812C225.938,36.568 232.2,33.933 239.024,34.245C245.324,34.534 251.312,37.387 257.615,37.144C259.988,37.053 262.219,36.218 264.512,35.747C266.941,35.249 269.408,35.015 271.99,35.392C274.868,35.812 277.476,37.118 279.965,38.534C282.892,40.199 283.916,43.926 282.251,46.852C280.587,49.779 276.86,50.803 273.933,49.139C272.752,48.466 271.592,47.663 270.226,47.464C268.253,47.175 266.434,47.802 264.587,48.255C262.453,48.78 260.306,49.25 258.085,49.335C251.441,49.591 245.106,46.737 238.465,46.433C231.981,46.136 226.049,48.772 219.689,49.004C215.408,49.16 211.307,48.322 207.233,47.338C204.082,46.578 200.953,45.707 197.697,45.571C189.032,45.207 180.805,48.287 172.218,47.917C167.349,47.707 162.575,46.342 157.698,46.083C147.736,45.554 137.747,47.359 127.779,46.875C121.567,46.574 115.68,44 109.507,43.674C101.355,43.244 93.262,45.321 85.256,46.507C77.52,47.653 70.45,44.931 62.867,44.536C60.22,44.398 57.457,44.562 54.854,45.043C52.273,45.521 49.501,46.487 46.863,46.35C44.547,46.229 41.998,45.344 39.46,44.465C38.798,44.236 38.136,44.013 37.479,43.868C37.259,43.819 36.885,43.783 36.712,43.768Z" style="fill:#fff;"/>
                    <path d="M283.031,43.374C283.122,44.546 282.876,45.755 282.251,46.852C280.587,49.779 276.86,50.803 273.933,49.139C272.752,48.466 271.592,47.663 270.226,47.464C268.253,47.175 266.434,47.802 264.587,48.255C262.453,48.78 260.306,49.25 258.085,49.335C251.441,49.591 245.106,46.737 238.465,46.433C231.981,46.136 226.049,48.772 219.689,49.004C215.408,49.16 211.307,48.322 207.233,47.338C204.082,46.578 200.953,45.707 197.697,45.571C189.032,45.207 180.805,48.287 172.218,47.917C167.349,47.707 162.575,46.342 157.698,46.083C147.736,45.554 137.747,47.359 127.779,46.875C121.567,46.574 115.68,44 109.507,43.674C101.355,43.244 93.262,45.321 85.256,46.507C77.52,47.653 70.45,44.931 62.867,44.536C60.22,44.398 57.457,44.562 54.854,45.043C52.273,45.521 49.501,46.487 46.863,46.35C44.547,46.229 41.998,45.344 39.46,44.465C38.798,44.236 38.136,44.013 37.479,43.868C37.259,43.819 36.885,43.783 36.712,43.768C34.107,45.802 30.335,45.389 28.235,42.816C27.204,41.553 26.764,40.001 26.879,38.493C26.971,39.692 27.418,40.876 28.235,41.877C30.335,44.45 34.107,44.863 36.712,42.829C36.885,42.844 37.259,42.88 37.479,42.929C38.136,43.075 38.798,43.298 39.46,43.527C41.998,44.405 44.547,45.291 46.863,45.411C49.501,45.548 52.273,44.582 54.854,44.105C57.457,43.623 60.22,43.459 62.867,43.597C70.45,43.993 77.52,46.714 85.256,45.568C93.262,44.382 101.355,42.306 109.507,42.736C115.68,43.061 121.567,45.636 127.779,45.937C137.747,46.42 147.736,44.616 157.698,45.145C162.575,45.404 167.349,46.769 172.218,46.979C180.805,47.349 189.032,44.268 197.697,44.632C200.953,44.769 204.082,45.639 207.233,46.4C211.307,47.383 215.408,48.221 219.689,48.065C226.049,47.833 231.981,45.197 238.465,45.494C245.106,45.798 251.441,48.653 258.085,48.397C260.306,48.311 262.453,47.841 264.587,47.317C266.434,46.863 268.253,46.237 270.226,46.525C271.592,46.724 272.752,47.528 273.933,48.2C276.86,49.864 280.587,48.84 282.251,45.914C282.71,45.108 282.964,44.242 283.031,43.374Z" style="fill:#e4e4e4;"/>
                    <path d="M284.996,21.335C283.921,21.042 282.358,19.841 281.622,19.04C281.293,18.683 281.078,18.246 280.691,17.938C279.698,17.149 278.645,17.126 278.457,15.601C278.305,14.369 279.087,13.487 279.141,12.331C279.169,11.709 278.766,11.072 278.654,10.464C278.397,9.058 278.86,7.706 279.821,6.653C280.19,6.248 280.61,5.867 281.091,5.599C281.812,5.198 282.727,5.118 283.399,4.633C283.865,4.298 283.962,3.692 284.366,3.304C285.33,2.377 286.966,2.075 288.248,2.28C289.979,2.557 290.851,3.687 292.121,4.711C293.725,6.002 296.2,6.527 296.595,8.912C296.793,10.108 296.192,11.159 296.311,12.346C296.437,13.597 297.003,14.73 296.697,16.019C296.282,17.765 294.774,18.656 293.41,19.584C292.052,20.507 291.026,22.213 289.135,22.035C288.336,21.96 286.638,21.783 284.996,21.335Z" style="fill:#fff;"/>
                    <path d="M296.766,14.827C296.803,15.215 296.794,15.609 296.697,16.019C296.282,17.765 294.774,18.656 293.41,19.584C292.052,20.507 291.026,22.213 289.135,22.035C288.336,21.96 286.638,21.783 284.996,21.335C283.921,21.042 282.358,19.841 281.622,19.04C281.293,18.683 281.078,18.246 280.691,17.938C279.698,17.149 278.645,17.126 278.457,15.601C278.426,15.35 278.434,15.113 278.466,14.885C278.678,16.34 279.714,16.375 280.691,17.151C281.078,17.459 281.293,17.896 281.622,18.253C282.358,19.054 283.921,20.255 284.996,20.548C286.638,20.996 288.336,21.172 289.135,21.248C291.026,21.426 292.052,19.72 293.41,18.796C294.774,17.869 296.282,16.978 296.697,15.232C296.729,15.095 296.752,14.96 296.766,14.827Z" style="fill:#e4e4e4;"/>
                </g>
            </g>
        </g>
    </g>
</svg>
