<?xml version="1.0" encoding="UTF-8" standalone="no"?><!DOCTYPE svg PUBLIC "-//W3C//DTD SVG 1.1//EN" "http://www.w3.org/Graphics/SVG/1.1/DTD/svg11.dtd"><svg width="100%" height="100%" viewBox="0 0 300 345" version="1.1" xmlns="http://www.w3.org/2000/svg" xmlns:xlink="http://www.w3.org/1999/xlink" xml:space="preserve" xmlns:serif="http://www.serif.com/" style="fill-rule:evenodd;clip-rule:evenodd;stroke-linejoin:round;stroke-miterlimit:2;"><g id="Cow"><g id="CowHat"><path d="M300,53.735c0,30.717 -67.157,67.102 -150,67.102c-82.843,0 -150,-35.773 -150,-67.102c0,-25.014 67.157,-27.76 150,-27.76c82.843,0 150,2.746 150,27.76Z" style="fill:#b39034;"/><path d="M300,53.735c0,25.014 -67.157,62.825 -150,62.825c-82.843,-0 -150,-37.811 -150,-62.825c-0,-25.014 67.157,-27.76 150,-27.76c82.843,0 150,2.746 150,27.76Z" style="fill:#cfae5a;"/><g><path d="M112.63,5.287c23.624,-7.048 51.116,-7.048 74.74,-0c12.693,3.786 27.97,8.791 32.059,21.543l7.147,22.284c2.271,7.081 -1.182,14.618 -8.56,18.682c-18.141,9.992 -39.463,15.326 -61.266,15.326l-12.757,-0c-22.287,-0 -44.084,-5.453 -62.628,-15.667c-7.105,-4.07 -10.309,-11.47 -7.941,-18.341l7.147,-22.284c4.089,-12.752 19.366,-17.757 32.059,-21.543Z" style="fill:#c9a544;fill-rule:nonzero;"/><path d="M222.278,35.714l4.298,13.4c2.271,7.081 -1.182,14.618 -8.56,18.682c-18.141,9.992 -39.463,15.326 -61.266,15.326l-12.757,-0c-22.287,-0 -44.084,-5.453 -62.628,-15.667c-7.105,-4.07 -10.309,-11.47 -7.941,-18.341l4.468,-13.931c38.584,28.404 118.416,18.288 144.386,0.531Z" style="fill:#b39034;"/><path d="M150,0c-3.195,0 -6.389,0.111 -9.568,0.331c-9.54,0.661 -18.944,2.313 -27.803,4.956c-6.48,1.933 -13.623,4.192 -19.611,7.634c-15.513,8.916 21.955,10.506 56.468,10.506c47.061,0 70.122,-2.459 59.264,-9.435c-6.315,-4.057 -14.249,-6.578 -21.379,-8.705c-1.476,-0.441 -2.968,-0.854 -4.473,-1.24c-0,0 -0.001,0 -0.002,0c-4.513,-1.156 -9.146,-2.065 -13.847,-2.725c-0.001,-0 -0.001,-0 -0.002,-0c-3.134,-0.441 -6.299,-0.771 -9.479,-0.991c-3.179,-0.22 -6.373,-0.331 -9.568,-0.331Z" style="fill:#cfae5a;"/></g><path d="M76.73,38.801c-1.301,0.491 -2.572,0.934 -2.577,4.912c-0.001,1.187 -0.19,3.981 -0.729,5.401c-2.368,6.87 0.836,14.27 7.941,18.341c18.544,10.214 40.34,15.667 62.627,15.667l12.758,-0c21.803,-0 43.125,-5.334 61.266,-15.327c7.377,-4.063 10.831,-11.6 8.56,-18.681c-0.444,-1.387 -0.154,-3.251 -0.143,-5.051c0.013,-2.319 -1.476,-4.484 -3.156,-5.235c-1.441,1.64 -3.223,3.055 -5.261,4.181c-18.141,9.993 -39.463,15.327 -61.266,15.327l-12.758,-0c-22.287,-0 -44.083,-5.453 -62.627,-15.667c-1.79,-1.072 -3.355,-2.379 -4.635,-3.868Z" style="fill:#343756;fill-rule:nonzero;"/><path d="M226.997,50.744c1.299,6.583 -2.168,13.299 -8.981,17.051c-18.141,9.993 -39.463,15.327 -61.266,15.327l-12.758,-0c-22.287,-0 -44.083,-5.453 -62.627,-15.667c-6.482,-3.714 -9.717,-10.199 -8.437,-16.524c0.882,4.371 3.845,8.393 8.437,11.024c18.544,10.214 40.34,15.667 62.627,15.667l12.758,0c21.803,-0 43.125,-5.334 61.266,-15.326c4.903,-2.701 8.073,-6.936 8.981,-11.552Z" style="fill:#282b48;"/><g><g><path id="path30573" d="M23.677,34.223l-8.762,26.631c-0,12.298 12.514,22.268 27.952,22.268c15.438,-0 27.952,-9.97 27.952,-22.268c0,-30.658 -47.142,-26.631 -47.142,-26.631Z" style="fill:#9e7f2e;fill-opacity:0.82;fill-rule:nonzero;"/><path id="path21196" d="M14.233,3.842c-2.37,-1.162 -3.614,0.78 -3.451,1.783l2.645,51.882c-0.003,0.138 -0.004,0.277 -0.004,0.415c-0,12.216 12.394,22.268 27.457,22.268c15.062,-0 27.457,-10.052 27.457,-22.268c-0,-0.138 -0.005,-0.277 -0.005,-0.415c-0,-29.244 -41.99,-47.728 -54.099,-53.665Z" style="fill:#414042;fill-rule:nonzero;"/><path id="path211961" serif:id="path21196" d="M17.998,70.166c4.937,6.022 13.378,10.024 22.882,10.024c15.062,-0 27.457,-10.052 27.457,-22.268c-0,-0.138 -0.005,-0.277 -0.005,-0.415c-0,-11.652 -6.666,-21.595 -15.452,-29.718c6.986,7.43 11.932,16.199 11.932,26.235c0,0.138 0.005,0.277 0.005,0.415c-0,12.216 -12.395,22.268 -27.457,22.268c-7.524,0 -14.382,-2.508 -19.362,-6.541Z" style="fill:#333;"/><path id="path211962" serif:id="path21196" d="M17.795,14.668l2.054,40.298c0.011,0.22 0.014,0.44 0.009,0.66c-0.001,0.07 -0.002,0.14 -0.002,0.21c-0,7.886 8.798,13.332 18.521,13.332c9.723,-0 18.52,-5.446 18.52,-13.332c0,-0.138 -0.004,-0.277 -0.004,-0.415c-0,-9.208 -5.717,-16.833 -12.674,-23.241c-8.237,-7.587 -18.452,-13.44 -26.424,-17.512Z" style="fill:#474747;"/></g><g><path id="path305731" serif:id="path30573" d="M276.323,34.223l8.762,26.631c0,12.298 -12.514,22.268 -27.952,22.268c-15.438,-0 -27.952,-9.97 -27.952,-22.268c-0,-30.658 47.142,-26.631 47.142,-26.631Z" style="fill:#9e7f2e;fill-opacity:0.82;fill-rule:nonzero;"/><path id="path211963" serif:id="path21196" d="M285.767,3.842c2.37,-1.162 3.614,0.78 3.451,1.783l-2.645,51.882c0.003,0.138 0.004,0.277 0.004,0.415c0,12.216 -12.394,22.268 -27.457,22.268c-15.062,-0 -27.457,-10.052 -27.457,-22.268c0,-0.138 0.005,-0.277 0.005,-0.415c0,-29.244 41.99,-47.728 54.099,-53.665Z" style="fill:#414042;fill-rule:nonzero;"/><path id="path211964" serif:id="path21196" d="M282.002,70.166c-4.937,6.022 -13.378,10.024 -22.882,10.024c-15.062,-0 -27.457,-10.052 -27.457,-22.268c0,-0.138 0.005,-0.277 0.005,-0.415c0,-11.652 6.666,-21.595 15.452,-29.718c-6.986,7.43 -11.932,16.199 -11.932,26.235c-0,0.138 -0.005,0.277 -0.005,0.415c0,12.216 12.395,22.268 27.457,22.268c7.524,0 14.382,-2.508 19.362,-6.541Z" style="fill:#333;"/><path id="path211965" serif:id="path21196" d="M282.205,14.668l-2.054,40.298c-0.011,0.22 -0.014,0.44 -0.009,0.66c0.001,0.07 0.002,0.14 0.002,0.21c0,7.886 -8.798,13.332 -18.521,13.332c-9.723,-0 -18.52,-5.446 -18.52,-13.332c-0,-0.138 0.004,-0.277 0.004,-0.415c0,-9.208 5.717,-16.833 12.674,-23.241c8.237,-7.587 18.452,-13.44 26.424,-17.512Z" style="fill:#474747;"/></g></g><path d="M79.532,92.046l-1.476,-1.18l-10.749,6.785l7.528,-9.536l-6.501,-7.643l9.056,3.895l10.465,-7.287l-5.993,9.508l1.651,1.563l10.984,-7.928l-7.014,10.478l10.251,9.285l-13.801,-5.645l-10.612,7.164l6.211,-9.459Z" style="fill:#b39034;"/><path d="M217.209,87.291l-14.439,3.089l11.735,-6.142l-5.031,-5.99l7.777,3.944l14.447,-3.937l-9.237,6.789l13.376,10.535l-18.628,-8.288Z" style="fill:#b39034;"/></g></g></svg>