<?xml version="1.0" encoding="UTF-8" standalone="no"?><!DOCTYPE svg PUBLIC "-//W3C//DTD SVG 1.1//EN" "http://www.w3.org/Graphics/SVG/1.1/DTD/svg11.dtd"><svg width="100%" height="100%" viewBox="0 0 300 345" version="1.1" xmlns="http://www.w3.org/2000/svg" xmlns:xlink="http://www.w3.org/1999/xlink" xml:space="preserve" xmlns:serif="http://www.serif.com/" style="fill-rule:evenodd;clip-rule:evenodd;stroke-linejoin:round;stroke-miterlimit:2;"><g id="Cat"><g id="Cat-Head" serif:id="Cat Head"><path d="M118.813,106.681l-82.433,0c-20.079,0 -36.38,16.302 -36.38,36.38l0,-54.182c0,-41.78 17.747,-64.032 43.38,-79.986c3.758,-2.33 8.602,-1.895 11.885,1.066c13.531,12.201 25.261,25.841 32.585,42.54l124.3,0c7.324,-16.699 19.054,-30.339 32.585,-42.54c3.283,-2.961 8.127,-3.396 11.885,-1.066c25.633,15.954 43.38,38.206 43.38,79.986l0,54.182c0,-20.078 -16.301,-36.38 -36.38,-36.38l-96.77,0c-2.566,8.283 -8.73,10.406 -12.883,15.339c-2.966,-2.353 -5.615,-5.341 -7.989,-8.878c-3.486,7.091 -7.231,9.633 -7.213,15.313c-8.663,-8.513 -18.657,-13.204 -19.952,-21.774Z" style="fill:#c0b57e;"/><path d="M118.813,99.182l-82.433,-0c-20.079,-0 -36.38,16.301 -36.38,36.38l0,-54.182c0,-41.78 17.747,-64.032 43.38,-79.987c3.758,-2.329 8.602,-1.895 11.885,1.067c13.531,12.2 25.261,25.84 32.585,42.54l124.3,-0c7.324,-16.7 19.054,-30.34 32.585,-42.54c3.283,-2.962 8.127,-3.396 11.885,-1.067c25.633,15.955 43.38,38.207 43.38,79.987l0,54.182c0,-20.079 -16.301,-36.38 -36.38,-36.38l-96.77,-0c-2.566,8.283 -8.73,10.406 -12.883,15.338c-2.966,-2.352 -5.615,-5.341 -7.989,-8.877c-3.486,7.091 -7.231,9.633 -7.213,15.313c-8.663,-8.514 -18.657,-13.205 -19.952,-21.774Z" style="fill:#ece9d9;"/><path d="M118.813,99.182l-82.433,-0c-20.079,-0 -36.38,16.301 -36.38,36.38l0,-54.182c0,-41.78 17.747,-64.032 43.38,-79.987c3.758,-2.329 8.602,-1.895 11.885,1.067c13.531,12.2 25.261,25.84 32.585,42.54l124.3,-0c7.324,-16.7 19.054,-30.34 32.585,-42.54c3.283,-2.962 8.127,-3.396 11.885,-1.067c25.633,15.955 43.38,38.207 43.38,79.987l0,54.182c0,-20.079 -16.301,-36.38 -36.38,-36.38l-96.77,-0c-2.566,8.283 -8.73,10.406 -12.883,15.338c-2.966,-2.352 -5.615,-5.341 -7.989,-8.877c-3.486,7.091 -7.231,9.633 -7.213,15.313c-8.663,-8.514 -18.657,-13.205 -19.952,-21.774Z" style="fill:#ece9d9;"/><path d="M3,81.38c0,0 -3,34.103 -3,54.182l0,-54.182c0,-41.78 17.747,-64.032 43.38,-79.987c3.758,-2.329 8.602,-1.895 11.885,1.067c13.531,12.2 25.261,25.84 32.585,42.54l124.3,-0c7.324,-16.7 19.054,-30.34 32.585,-42.54c3.283,-2.962 8.127,-3.396 11.885,-1.067c25.633,15.955 43.38,38.207 43.38,79.987l0,54.182c0,-20.079 -3,-54.182 -3,-54.182c0,-40.441 -17.151,-61.994 -41.963,-77.438c-2.622,-1.625 -6.002,-1.321 -8.293,0.746c-13.213,11.913 -24.695,25.21 -31.846,41.517l-0.788,1.795l-128.22,-0l-0.788,-1.795c-7.151,-16.307 -18.633,-29.604 -31.846,-41.518c-2.291,-2.066 -5.671,-2.37 -8.293,-0.745c-24.812,15.444 -41.963,36.997 -41.963,77.438Z" style="fill:#c0b57e;"/><path d="M72.354,20.139c6.195,7.552 11.501,15.751 15.496,24.861l111.236,-0c0.193,9.901 -1.256,22.68 -9.191,29.481c-46.417,39.786 -81.265,11.527 -102.006,1.156c-23.351,-11.675 -34.006,1.446 -56.927,11.27c-20.145,8.633 -20.844,-19.158 -10.114,-27.741c9.019,-7.216 9.511,-6.396 18.494,-13.582c9.6,-7.68 20.161,-21.979 33.012,-25.445Z" style="fill:#e08300;"/><path d="M72.354,20.139c6.195,7.552 11.501,15.751 15.496,24.861l111.236,-0c0.019,0.975 0.022,1.978 0.004,3l-113.2,-0l-0.788,-1.795c-4.037,-9.207 -9.456,-17.455 -15.787,-25.036c0.999,-0.406 2.012,-0.753 3.039,-1.03Z" style="fill:#c67400;"/><path d="M227.199,20.687c5.274,-6.501 11.208,-12.522 17.536,-18.227c3.283,-2.962 8.127,-3.396 11.885,-1.067c13.47,8.384 24.762,18.507 32.446,32.289c-8.335,3.636 -19.419,7.856 -29.24,7.279c-19.425,-1.143 -28.846,-12.585 -32.627,-20.274Zm-118.957,24.313l71.893,-0c-4.652,4.398 -11.496,9.234 -21.448,13.588c-12.305,5.383 -47.918,7.117 -56.35,-6.936c0.482,-0.661 2.776,-3.816 5.905,-6.652Z" style="fill:#4f2200;"/><path d="M227.199,20.687c5.274,-6.501 11.209,-12.521 17.536,-18.227c3.283,-2.961 8.129,-3.4 11.885,-1.067c13.477,8.373 24.762,18.507 32.446,32.289c-0.908,0.396 -1.848,0.799 -2.816,1.202c-7.427,-13.181 -18.279,-22.891 -31.213,-30.942c-2.622,-1.625 -6.002,-1.321 -8.293,0.746c-6.517,5.876 -12.613,12.089 -17.976,18.834c-0.605,-0.982 -1.126,-1.934 -1.569,-2.835Zm-118.957,24.313l71.893,-0c-1.038,0.982 -2.186,1.985 -3.452,3l-71.4,0c0.853,-0.957 1.854,-1.998 2.959,-3Z" style="fill:#3d1a00;"/><g><path d="M14.557,70.497c0,-22.942 11.099,-39.956 28.284,-51.327c2.519,-1.66 5.767,-1.35 7.967,0.76c9.072,8.696 16.581,24.188 21.49,36.09c-42.552,1.842 -48.277,4.44 -57.741,14.477Z" style="fill:#ff8688;"/><path d="M67.978,56.216c-31.179,1.482 -40.877,3.564 -48.259,9.403c2.899,-12.541 9.944,-21.858 20.595,-28.37c5.641,-3.448 9.617,-3.71 13.636,0.473c5.676,5.908 10.226,11.819 14.028,18.494Z" style="fill:#ff7e7f;"/><path d="M58.641,56.719c-14.323,0.881 -23.092,2.031 -29.237,3.933c2.61,-4.597 5.901,-7.928 9.585,-10.531c4.189,-2.959 10.1,-4.009 13.446,-1.036c2.324,2.065 4.34,4.586 6.206,7.634Z" style="fill:#ff7374;"/></g><g><path d="M285.443,70.497c-0,-22.942 -11.099,-39.956 -28.284,-51.327c-2.519,-1.66 -5.767,-1.35 -7.967,0.76c-9.072,8.696 -16.581,24.188 -21.49,36.09c42.552,1.842 48.277,4.44 57.741,14.477Z" style="fill:#ff8688;"/><path d="M232.022,56.216c31.179,1.482 40.877,3.564 48.259,9.403c-2.899,-12.541 -9.944,-21.858 -20.595,-28.37c-5.641,-3.448 -9.617,-3.71 -13.636,0.473c-5.676,5.908 -10.226,11.819 -14.028,18.494Z" style="fill:#ff7e7f;"/><path d="M241.359,56.719c14.323,0.881 23.092,2.031 29.237,3.933c-2.61,-4.597 -5.901,-7.928 -9.585,-10.531c-4.189,-2.959 -10.1,-4.009 -13.446,-1.036c-2.324,2.065 -4.34,4.586 -6.206,7.634Z" style="fill:#ff7374;"/></g></g></g></svg>