<?xml version="1.0" encoding="UTF-8" standalone="no"?><!DOCTYPE svg PUBLIC "-//W3C//DTD SVG 1.1//EN" "http://www.w3.org/Graphics/SVG/1.1/DTD/svg11.dtd"><svg width="100%" height="100%" viewBox="0 0 300 345" version="1.1" xmlns="http://www.w3.org/2000/svg" xmlns:xlink="http://www.w3.org/1999/xlink" xml:space="preserve" xmlns:serif="http://www.serif.com/" style="fill-rule:evenodd;clip-rule:evenodd;stroke-linejoin:round;stroke-miterlimit:2;"><g id="Chick-" serif:id="Chick "><path d="M0,141.813l0,-60.433c0,-11.866 1.765,-20.4 8.522,-28.015c-1.847,-1.18 -2.763,-4.467 -3.475,-6.782c2.841,0.359 4.171,-0.776 6.889,-0.139c-2.455,-1.905 -3.302,-6.062 -3.038,-10.191c4.019,1.12 10.603,0.666 14.684,3.178c2.658,-1.858 4.993,-3.666 7.943,-5.458c5.954,-3.617 13.634,-8.157 25.737,-12.825c-1.321,-2.954 -2.896,-6.348 -3.428,-9.948c7.528,-0.609 17.692,-1.477 24.197,1.799c2.453,-0.713 5.147,-1.595 8.551,-2.288c11.795,-2.403 26.082,-4.344 41.025,-5.253c7.466,-0.454 15.032,-0.673 22.393,-0.673c3.508,0 7.34,-0.088 10.908,0.013l-0.059,-0.151c4.902,-4.06 14.416,-3.427 22.185,-4.001c-0.189,2.703 -0.179,4.594 -1.332,6.125c13.478,0.983 22.15,1.851 32.753,4.493c2.505,0.624 4.991,1.298 7.445,2.012c6.505,-3.277 15.563,-2.685 23.091,-2.076c-0.532,3.6 -1.139,6.095 -2.46,9.05c12.103,4.667 19.714,9 25.668,12.617c2.949,1.792 5.699,4.291 8.357,6.149c4.081,-2.512 9.697,-1.782 13.716,-2.901c0.265,4.129 0.178,7.871 -2.277,9.776c2.718,-0.637 3.84,1.328 6.681,0.969c-0.712,2.315 -1.835,4.703 -3.681,5.883c6.756,7.614 9.005,16.771 9.005,28.637l0,60.532c-3.795,-18.807 -22.408,-28.893 -42.186,-28.893l-215.088,0c-20.472,0 -39.713,8.696 -42.726,28.794Z" style="fill:#b48972;"/><path d="M0,141.912l0,-44.205l300,0l0,44.205l-0,-0.099c-3.013,-20.098 -19.689,-30.903 -40.161,-30.903l-219.678,-0c-20.472,-0 -37.148,10.805 -40.161,30.903l0,0.099Z" style="fill:#d6b7a6;"/><path d="M0,141.912l0,-60.532c0,-21.726 13.564,-33.904 32.492,-45.402c9.86,-5.99 31.083,-15.837 53.952,-21.535c17.516,-4.364 41.461,-6.34 63.556,-6.34c22.095,-0 46.04,1.976 63.556,6.34c22.869,5.698 44.092,15.545 53.952,21.535c18.928,11.498 32.492,23.676 32.492,45.402l-0,60.532l-0,-5.939c-3.013,-20.098 -19.689,-30.903 -40.161,-30.903l-219.678,-0c-20.472,-0 -37.148,10.805 -40.161,30.903l-0,5.939Z" style="fill:#e4d0c4;"/><path d="M4.711,114.896c6.845,-8.972 15.329,-15.463 27.23,-16.781c1.412,-2.596 0.078,-4.466 -0.177,-7.518c-1.727,0.668 -3.435,1.885 -5.116,3.811c-2.807,-4.554 -7.427,-5.378 -11.718,-7.427c-0.474,2.701 -0.919,5.448 -0.882,8.993c-5.729,1.204 -6.954,2.41 -1.827,3.621c-7.313,6.159 -11.882,8.981 -5.831,9.575c-0.959,1.366 -1.52,3.273 -1.679,5.726Z" style="fill:#f4e8e0;"/><path d="M265.396,101.628c11.141,-0.485 20.481,3.698 28.373,11.633c2.033,2.044 5.876,-8.049 -5.111,-10.111c0.282,-0.97 0.583,-2.199 0.911,-3.79c-2.054,0.045 -5.054,-0.594 -7.302,0.776c0.935,-2.239 1.243,-4.796 1.067,-7.599c-4.783,0.828 -9.375,2.131 -13.181,5.39c-2.339,-5.01 -3.059,-2.012 -4.757,3.701Z" style="fill:#f4e8e0;"/><path d="M242.865,32.026c19.396,13.107 17.465,46.417 -5.522,55.525l-64.95,-78.775c14.943,0.909 29.483,2.757 41.163,5.667c22.869,5.698 44.092,15.545 53.952,21.535c2.949,1.791 5.768,3.599 8.426,5.457c4.081,-2.512 8.522,-2.058 12.541,-3.178c0.265,4.13 -0.79,7.18 -3.245,9.085c2.718,-0.637 4.946,0.637 7.787,0.278c-0.712,2.315 -1.973,4.081 -3.82,5.261c6.757,7.615 10.803,16.633 10.803,28.499l0,60.532c-0.204,-26.024 -1.121,-36.642 -6.964,-55.654c1.795,-0.517 2.012,-2.054 0.445,-4.747c4.893,-0.072 1.832,-3.872 -5.933,-9.878c6.63,-7.568 6.344,-7.738 -3.916,-6.823c0.111,-3.71 -0.604,-6.594 -1.602,-9.196c-1.062,1.398 -2.378,2.202 -3.915,2.492c-2.557,-5.946 -5.946,-10.347 -9.612,-14.235c0.456,2.219 -0.206,3.674 -0.018,5.577l-23.639,-19.24l-1.981,1.818Zm-218.799,9.409c2.658,-1.858 5.477,-3.666 8.426,-5.457c9.86,-5.99 31.083,-15.837 53.952,-21.535c11.68,-2.91 26.22,-4.758 41.163,-5.667l-64.95,78.775c-24.143,-9.566 -25.059,-45.83 -2.434,-57.343l-2.38,-3.84c-11.38,5.505 -21.468,11.32 -28.211,17.938c-3.911,3.838 -5.591,5.851 -1.947,10.638c-9.188,0.746 -12.018,0.783 -8.065,6.257c-8.378,2.056 -14.558,2.817 -4.936,7.342c-12.391,7.781 -13.729,19.918 -6.258,13.585c-7.105,19.433 -8.207,31.691 -8.426,59.685l0,-60.433c0,-11.866 4.046,-20.884 10.803,-28.499c-1.847,-1.18 -3.108,-2.946 -3.82,-5.261c2.841,0.359 5.069,-0.915 7.787,-0.278c-2.455,-1.905 -3.51,-4.955 -3.245,-9.085c4.019,1.12 8.46,0.666 12.541,3.178Z" style="fill:#d6b7a6;"/><path d="M250.379,85.231c7.861,-4.471 15.52,-5.859 17.091,-3.097c1.571,2.762 -3.536,8.635 -11.398,13.107c-7.861,4.472 -15.52,5.86 -17.091,3.098c-1.571,-2.763 3.536,-8.636 11.398,-13.108Zm-200.758,0c7.862,4.472 12.969,10.345 11.398,13.108c-1.571,2.762 -9.23,1.374 -17.091,-3.098c-7.862,-4.472 -12.969,-10.345 -11.398,-13.107c1.571,-2.762 9.23,-1.374 17.091,3.097Z" style="fill:#fda3a3;"/><g><circle cx="218.144" cy="62.724" r="32.517" style="fill:#fefffe;"/><path d="M194.214,71.068c0.656,9.273 8.396,16.602 17.835,16.602c9.868,0 17.879,-8.011 17.879,-17.879c0,-9.868 -8.011,-17.88 -17.879,-17.88c-3.979,0 -7.656,1.302 -10.628,3.504c0.008,-0 0.015,-0 0.023,-0c5.241,-0 9.497,4.255 9.497,9.497c-0,5.242 -4.256,9.497 -9.497,9.497c-2.894,0 -5.487,-1.297 -7.23,-3.341Zm21.549,1.699c2.05,-0 3.715,1.664 3.715,3.714c-0,2.051 -1.665,3.715 -3.715,3.715c-2.05,0 -3.714,-1.664 -3.714,-3.715c-0,-2.05 1.664,-3.714 3.714,-3.714Z" style="fill:#383349;"/></g><g><circle cx="81.856" cy="62.724" r="32.517" style="fill:#fefffe;"/><path d="M105.786,71.068c-0.656,9.273 -8.396,16.602 -17.835,16.602c-9.868,0 -17.879,-8.011 -17.879,-17.879c-0,-9.868 8.011,-17.88 17.879,-17.88c3.979,0 7.656,1.302 10.628,3.504c-0.008,-0 -0.015,-0 -0.023,-0c-5.241,-0 -9.497,4.255 -9.497,9.497c0,5.242 4.256,9.497 9.497,9.497c2.894,0 5.487,-1.297 7.23,-3.341Zm-21.549,1.699c-2.05,-0 -3.715,1.664 -3.715,3.714c0,2.051 1.665,3.715 3.715,3.715c2.05,0 3.714,-1.664 3.714,-3.715c0,-2.05 -1.664,-3.714 -3.714,-3.714Z" style="fill:#383349;"/></g><path d="M201.957,105.07l-107.948,-0c-1.831,-1.533 -3.255,-3.269 -4.097,-5.297c3.206,-1.892 6.792,-2.342 11.235,0.464c-1.133,-1.947 -1.432,-3.893 -0.835,-5.84c1.838,0.318 3.107,0.392 4.265,1.576c10.875,-17.152 17.215,-29.446 45.423,-32.817c28.208,3.371 34.548,15.665 45.423,32.817c0.613,0.965 1.606,2.539 2.089,3.315c3.732,-0.386 5.61,0.288 8.719,1.257c-0.841,2.027 -2.443,2.992 -4.274,4.525Z" style="fill:#d6b7a6;"/><path d="M184.276,68.543l-23.703,-60.44c4.902,-4.06 11.512,-4.74 19.282,-5.314c-0.239,3.401 -1.913,5.844 -5.117,7.268c6.129,-0.395 9.691,2.749 13.571,3.369c-0.547,1.045 -1.324,2.014 -2.551,2.832c5.141,-0.619 10.845,-0.55 16.977,0.043c-1.364,1.222 -2.494,2.601 -3.024,4.38c5.873,-1.684 12.004,-2.592 18.433,-2.608c7.255,-4.584 15.367,-5.914 24.013,-5.214c-2.016,13.643 -10.081,22.337 -21.275,28.471c4.367,-1.794 7.974,-1.613 10.95,0.209c-7.181,9.813 -33.178,23.276 -47.556,27.004Zm-68.552,-0c-14.378,-3.728 -40.375,-17.191 -47.556,-27.004c2.976,-1.822 6.583,-2.003 10.95,-0.209c-11.194,-6.134 -19.259,-14.828 -21.275,-28.471c8.646,-0.7 16.758,0.63 24.013,5.214c6.429,0.016 12.56,0.924 18.433,2.608c-0.53,-1.779 -1.66,-3.158 -3.024,-4.38c9.408,-0.909 17.81,-0.587 24.716,1.564l-6.257,50.678Z" style="fill:#e4d0c4;"/><g><path d="M124.904,133.963c-9.524,17.028 -5.885,33.257 7.823,22.245c-0.332,9.303 12.698,16.403 27.217,15.391c11.019,-0.768 14.689,-9.384 13.609,-21.547c9.76,3.179 8.647,-5.442 -0.364,-16.089l-48.285,-0Z" style="fill:#e8423b;"/><path d="M153.286,159.588c8.99,-0.46 10.558,-3.276 10.563,-15.487c6.19,11.083 4.504,17.365 -10.563,15.487Zm20.75,-14.243c1.025,-1.399 0.429,-3.663 -0.622,-6.169c3.224,4.145 4.591,7.004 0.622,6.169Zm-47.384,5.391c4.153,-3.163 7.15,-6.669 7.569,-10.938c3.879,5.27 2.031,7.223 -7.569,10.938Z" style="fill:#f37050;"/><path d="M124.904,133.963c-2.378,19.763 -3.94,25.75 10.626,16.423c0.871,9.361 5.394,14.422 16.136,14.322c14.074,-0.132 17.635,-0.59 18.469,-9.785c0.32,-3.536 0.369,-7.188 -0,-9.786c10.565,7.499 8.89,0.613 3.511,-10.627c8.589,10.393 9.499,18.666 -0.093,15.542c1.08,12.163 -2.59,20.779 -13.609,21.547c-14.519,1.012 -27.549,-6.088 -27.217,-15.391c-13.708,11.012 -17.347,-5.217 -7.823,-22.245Z" style="fill:#ca3a34;"/></g><g><path d="M150,147.029c-14.462,0 -42.927,-17.942 -42.927,-43.04c-0,-6.083 5.148,-13.725 12.458,-20.805c7.976,-7.725 18.625,-14.641 30.469,-14.641c11.844,-0 22.493,6.916 30.469,14.641c7.31,7.08 12.458,14.722 12.458,20.805c0,24.845 -28.465,43.04 -42.927,43.04Z" style="fill:#eb681f;"/><path d="M150,142.979c-14.462,0 -42.927,-18.449 -42.927,-38.99c-0,-6.083 5.148,-13.725 12.458,-20.805c7.976,-7.725 18.625,-14.641 30.469,-14.641c11.844,-0 22.493,6.916 30.469,14.641c7.31,7.08 12.458,14.722 12.458,20.805c0,20.541 -28.465,38.99 -42.927,38.99Z" style="fill:#fa9e11;"/><path d="M160.236,78.363c-4.214,6.994 -6.909,16.673 -9.015,27.398c-5.193,-8.314 -5.589,-19.026 -5.866,-29.798c5.34,-1.348 10.309,-0.6 14.881,2.4Zm22.244,6.841c6.226,6.49 10.447,13.277 10.447,18.785c0,20.541 -28.465,38.99 -42.927,38.99c-14.462,0 -42.927,-18.449 -42.927,-38.99c-0,-6.083 5.148,-13.725 12.458,-20.805c-4.886,10.946 -8.024,16.384 -3.246,25.891c5.155,10.259 12.644,20.318 24.508,25.811c9.5,4.399 12.651,1.357 18.12,-7.821c1.126,4.44 2.643,6.663 10.298,1.434c7.22,-4.932 12.66,-10.752 14.992,-19.555c2.104,-7.944 1,-16.214 -1.723,-23.74Zm-30.678,43.607c-0.49,0.791 -2.136,3.945 -3.559,2.926c-2.594,-1.856 -0.38,-6.116 1.735,-7.353c2.464,-1.442 3.215,2.184 1.824,4.427Z" style="fill:#fab412;"/><path d="M139.75,100.885c-1.071,-3.121 -2.296,-5.564 -3.731,-8.061c-0.772,-1.38 -2.133,-2.332 -3.694,-2.583c-0.422,-0.061 -0.853,-0.112 -1.268,-0.218c-0.451,-0.038 -0.835,-0.342 -0.977,-0.771c-0.142,-0.43 -0.015,-0.902 0.324,-1.202c1.903,-1.935 3.95,-2.089 6.653,-1.918c0.717,0.039 1.353,0.475 1.646,1.13c1.743,4.077 1.738,8.735 1.047,13.623Zm20.5,-0c-0.691,-4.888 -0.696,-9.546 1.047,-13.623c0.293,-0.655 0.929,-1.091 1.646,-1.13c2.703,-0.171 4.75,-0.017 6.653,1.918c0.339,0.3 0.466,0.772 0.324,1.202c-0.142,0.429 -0.526,0.733 -0.977,0.771c-0.415,0.106 -0.846,0.157 -1.268,0.218c-1.561,0.251 -2.922,1.203 -3.694,2.583c-1.435,2.497 -2.66,4.94 -3.731,8.061Z" style="fill:#eb681f;"/></g><g><path d="M113.708,24.371c0.208,14.202 -15.83,23.389 -3.616,30.314c4.277,2.424 9.782,-0.349 16.408,-2.318c9.214,-2.737 10.852,-2.722 13.998,0.978c3.928,4.62 9.93,3.72 15.852,-2.646c2.377,-2.556 3.194,-5.997 2.596,-9.178c-1.163,-6.182 0.538,-13.079 3.615,-17.613c2.56,-3.773 5.497,-7.649 4.45,-12.793c-0.655,-3.217 -3.852,-4.02 -6.118,-3.986l-47.185,17.242Z" style="fill:#d6b7a6;"/><path d="M146.135,-0l-11.211,-0c-9.335,-0 -17.404,4.393 -24.247,11.792c-12.612,13.634 -9.41,31.878 9.299,29.896c4.4,-0.466 9.654,-1.957 14.774,-2.781c4.252,-0.685 5.75,0.976 6.344,4.954c0.433,2.898 0.721,5.764 1.819,7.448c2.451,3.76 8.861,2.141 11.217,-3.451c1.878,-4.456 0.756,-11.307 1.739,-16.251c0.946,-4.765 3.232,-8.952 6.344,-13.384c3.818,-5.438 1.013,-10.661 -2.781,-13.992c-3.31,-2.907 -7.9,-4.278 -13.297,-4.231Z" style="fill:#e6413a;"/><path d="M104.12,34.226c2.421,4.063 7.16,5.627 15.595,3.203c9.919,-2.849 17.793,-7.553 24.247,-3.824c2.663,1.539 5.041,1.315 7.561,-1.564c-0.826,4.389 -4.222,8.619 -4.693,12.428c-0.542,4.382 0.092,8.314 3.347,7.938c-2.665,1.5 -5.735,1.247 -7.264,-1.098c-1.098,-1.684 -1.386,-4.55 -1.819,-7.448c-0.594,-3.978 -2.092,-5.639 -6.344,-4.954c-5.12,0.824 -10.374,2.315 -14.774,2.781c-8.482,0.898 -13.777,-2.36 -15.856,-7.462Zm55.553,-12.099c1.76,-9.591 -1.473,-15.959 -11.974,-17.636c-15.221,-2.429 -25.987,0.114 -36.363,6.601c6.701,-6.975 14.551,-11.092 23.588,-11.092l11.211,-0c5.397,-0.047 9.987,1.324 13.297,4.231c3.794,3.331 6.599,8.554 2.781,13.992c-0.924,1.316 -1.775,2.61 -2.54,3.904Z" style="fill:#ca3a34;"/><path d="M152.704,38.173c0.203,0.233 0.16,0.257 0.186,0.566c0.444,5.238 -0.688,7.349 -2.068,8.701c-0.952,0.932 -2.189,1.442 -1.701,0.865c1.084,-1.281 1.267,-2.802 2.088,-5.228c0.622,-1.842 1.147,-4.019 1.232,-4.373c0.03,-0.126 0.032,-0.263 0.09,-0.379c0.034,-0.069 0.123,-0.21 0.173,-0.152Zm-7.011,-17.171c-0.056,0.17 -0.016,0.362 -0.072,0.531c-0.002,0.008 -1.333,1.224 -3.108,2.179c-4.423,2.382 -7.278,1.982 -12.855,3.856c-4.644,1.56 -9.047,4.087 -13.599,4.3c-6.64,0.311 -8.786,-4.778 -6.84,-9.275c0.579,-1.337 0.885,-1.732 1.256,-2.279c0.08,-0.118 0.132,-0.081 0.171,0.03c0.272,0.772 1.012,4.836 2.512,6.008c2.921,2.283 9.529,-0.514 14.614,-1.614c7.076,-1.531 8.522,-0.493 13.225,-1.891c2.51,-0.746 4.146,-1.912 4.166,-1.915c0.176,-0.027 0.354,0.097 0.53,0.07Z" style="fill:#f37050;"/></g></g></svg>