<?xml version="1.0" encoding="UTF-8" standalone="no"?><!DOCTYPE svg PUBLIC "-//W3C//DTD SVG 1.1//EN" "http://www.w3.org/Graphics/SVG/1.1/DTD/svg11.dtd"><svg width="100%" height="100%" viewBox="0 0 300 345" version="1.1" xmlns="http://www.w3.org/2000/svg" xmlns:xlink="http://www.w3.org/1999/xlink" xml:space="preserve" xmlns:serif="http://www.serif.com/" style="fill-rule:evenodd;clip-rule:evenodd;stroke-linejoin:round;stroke-miterlimit:2;"><g id="Goat"><path id="_-" serif:id=" " d="M300,94.637l0,30.391c0,9.353 -0.179,11.603 -1.002,21.322c-1.24,14.641 -4.198,28.458 -9.428,37.924c-7.467,-25.937 -25.647,-43.036 -24.152,-58.04c-3.35,12.035 -8.274,3.647 -37.196,-5.858c0.802,9.267 0.69,10.706 -13.234,1.622c0.46,5.067 -1.211,11.055 -3.83,10.986c-0.773,-0.021 -4.777,-2.319 -9.084,-3.958c-7.062,-2.686 -12.938,-4.63 -16.993,-8.735c1.885,6.294 0.708,9.863 -1.699,11.401c-3.58,2.288 -11.051,-0.064 -16.82,-6.514c1.177,17.028 -4.575,25.696 -10.652,27.519c-7.896,2.368 -21.984,-7.687 -26.152,-30.495c-23.791,17.221 -29.531,15.099 -22.608,-2.796c-28.479,10.972 -28.137,14.122 -30.561,-0.508c-28.571,14.864 -36.874,11.318 -40.167,5.475c3.831,12.882 2.905,16.18 1.703,22.165c-1.924,9.579 -11.791,23.031 -20.395,36.407c-9.757,-14.317 -17.73,-30.271 -17.73,-56.812l0,-31.496l300,-0Z" style="fill:#5d290e;"/><path id="_-1" serif:id=" " d="M296.146,65.067c2.466,4.905 3.854,10.443 3.854,16.302l0,29.538c0,9.353 -0.808,19.223 -1.631,28.943c-1.24,14.64 -3.254,28.693 -8.484,38.159c-7.467,-25.937 -25.805,-35.573 -22.424,-61.889c-4.608,16.041 -9.375,11.11 -41.832,0.505c0.803,9.267 1.004,10.077 -12.919,0.993c0.46,5.067 1.067,11.605 -1.552,11.536c-0.773,-0.02 -4.777,-2.319 -9.084,-3.957c-7.062,-2.687 -15.923,-5.731 -19.978,-9.835c1.885,6.294 2.514,10.727 0.108,12.265c-3.58,2.288 -11.994,-1.007 -17.763,-7.457c1.177,17.028 -2.454,26.874 -8.531,28.698c-7.896,2.368 -20.413,-7.924 -24.581,-30.731c-23.791,17.221 -27.017,14.863 -20.094,-3.032c-28.479,10.972 -30.494,14.122 -32.918,-0.508c-28.571,14.864 -39.273,17.32 -47.091,-3.69c3.832,12.882 6.072,22.964 4.888,30.46c-1.75,11.08 -9.78,23.451 -18.384,36.826c-9.757,-14.316 -17.73,-33.622 -17.73,-67.286l-0,-29.538c-0,-6.459 1.687,-12.528 4.645,-17.789c-1.274,-3.328 -0.564,-8.28 -0.94,-12.461c2.203,1.9 4.489,3.203 6.851,4.635c6.594,-6.646 15.732,-10.765 25.824,-10.765l39.196,0c2.806,-5.687 7.295,-9.605 11.707,-14.252c2.816,4.866 5.998,8.204 7.581,14.252c2.288,-3.034 5.004,-5.025 8.451,-5.241c0.291,1.622 0.338,3.349 -0,5.241l20.389,0c-1.346,-5.047 1.04,-8.625 4.219,-11.891c2.632,4.432 5.381,8.729 9.124,11.891l0.381,0c2.62,-2.358 4.887,-5.28 6.714,-8.908c0.974,1.346 1.761,2.879 1.74,5.22c2.94,-3.957 4.723,-9.072 5.344,-15.349c5.516,4.766 9.314,10.77 10.688,18.518c2.491,-1.279 4.779,-3.03 6.773,-5.468c1.352,1.671 2.134,3.609 1.971,5.987l22.482,0c0.782,-3.907 3.354,-5.499 5.312,-8.286c0.824,2.314 1.648,4.642 2.472,8.286l0.455,0c0.588,-1.894 1.437,-3.319 2.666,-4.061c0.785,0.997 1.64,2.184 2.755,4.061l0.345,0c-1.063,-5.192 2.016,-7.346 4.792,-11.269c2.511,4.207 5.866,7.009 9.029,11.269l42.654,0c10.033,0 19.122,4.07 25.706,10.647c2.086,-1.617 4.536,-2.249 7.184,-2.342c-0.47,3.934 0.134,7.585 -0.364,11.773Z" style="fill:#9b6433;"/><path id="_-2" serif:id=" " d="M170.658,44.989l22.482,0l-24.401,4.118c0.382,-2.349 0.265,-4.036 -0.726,-5.562c-2.978,2.794 -5.952,4.649 -8.105,5.703c-1.446,-6.855 -2.556,-13.612 -6.759,-17.469c-1.692,6.304 -4.919,12.002 -8.715,15.652c0.361,-2.17 -0.052,-4.331 -0.881,-5.655c-1.734,3.845 -3.606,4.934 -6.256,7.13c-4.219,-3.15 -7.04,-5.682 -9.246,-10.205c-2.977,2.59 -2.58,5.217 -1.346,10.004c0,0 -23.265,-4.416 -23.39,-3.716l20.389,0c-1.346,-5.047 1.04,-8.625 4.219,-11.891c2.632,4.432 5.381,8.729 9.124,11.891l0.381,0c2.62,-2.358 4.887,-5.28 6.714,-8.908c0.974,1.346 1.761,2.879 1.74,5.22c2.94,-3.957 4.723,-9.072 5.344,-15.349c5.516,4.766 9.314,10.77 10.688,18.518c2.491,-1.279 4.779,-3.03 6.773,-5.468c1.352,1.671 2.134,3.609 1.971,5.987Z" style="fill:#7e4323;"/><path d="M136.97,96.058c-4.087,5.352 -6.23,3.894 -7.384,-1.021c-6.128,8.802 -8.432,7.328 -7.856,-1.885c-9.401,10.068 -19.526,12.261 -28.673,18.461c-1.526,-8.052 -0.674,-14.783 1.571,-20.739c-5.216,-0.057 -8.297,-1.252 -10.37,-2.986c4.39,-2.428 9.149,-5.689 15.162,-6.52c-4.716,-2.782 -6.719,-6.533 -8.484,-10.369c5.767,0.095 10.24,-1.872 15.633,-0.55c-3.565,-3.778 -5.234,-7.43 -5.657,-10.998c3.408,-0.088 6.386,0.899 8.956,2.906c-1.939,-3.874 -1.808,-6.156 -1.021,-7.934c5.539,3.615 10.123,2.573 14.769,5.735c-2.464,-3.951 -2.879,-7.083 -2.2,-9.776c4.161,3.345 8.148,3.756 11.469,7.89c0.84,-4.995 3.141,-5.086 6.913,-0.235c5.664,-5.164 10.582,-5.852 14.141,-10.606c1.312,2.999 1.359,6.167 -0.472,9.584c9.393,-4.901 17.386,-1.819 27.103,-6.633c0.995,3.274 1.073,6.894 0.392,10.797c11.632,-1.686 16.758,-1.642 9.427,6.363c4.452,-0.522 8.904,-0.447 13.355,0.079c-4.073,4.981 -9.177,7.771 -14.926,9.191c9.909,2.482 16.304,6.971 20.347,12.805c-7.133,-0.029 -14.027,2.155 -20.661,0.393c3.579,2.743 6.579,7.644 11.155,9.898c-12.201,3.291 -19.515,0.12 -25.217,-5.185c1.31,3.05 1.649,5.931 3.692,8.091c-7.818,0.958 -14.23,-2.867 -19.953,-9.034c-1.421,9.057 -5.733,13.181 -7.16,22.153c-5.689,-5.957 -11.768,-10.249 -14.051,-19.875Zm142.075,10.939c1.963,1.865 4.192,1.713 5.368,4.714c0.112,-7.321 2.81,-11.016 2.881,-16.235c1.584,2.199 2.3,4.398 2.487,6.597c0.33,-5.012 2.111,-8.572 4.19,-11.835c0.324,4.415 2.179,10.512 1.44,17.021c-1.346,11.872 -7.094,18.472 -8.117,27.888c-4.358,-9.399 -8.737,-16.916 -8.249,-28.15Z" style="fill:#b8783f;"/><path d="M16.271,138.175c3.15,-6.393 4.356,-9.077 4.976,-14.288c0.498,-4.182 -0.88,-7.796 -2.881,-17.152c-0.666,3.085 -3.965,4.11 -4.321,8.118c-0.418,-7.434 -6.608,-9.873 -9.296,-16.696c4.255,22.728 1.719,28.994 11.522,40.018Z" style="fill:#b8783f;"/><path d="M134.968,71.343c-0.339,-5.638 0.885,-6.721 4.399,-1.131c2.934,-2.871 5.699,-4.086 8.17,-7.353c1.848,1.37 3.076,3.302 3.08,6.348c4.692,-3.498 9.385,-6.14 14.077,-7.291c0.01,1.914 -0.742,4.099 -3.079,6.851c4.661,-0.682 9.467,0.227 14.706,-0.377c-3.258,3.538 -5.603,6.684 -9.678,6.913c2.094,1.435 2.932,4.672 6.284,6.379c-5.97,1.668 -11.941,1.317 -17.911,-1.54c-0.68,5.167 -2.818,5.873 -6.347,2.325c-2.689,7.799 -5.188,7.913 -7.542,2.137c-8.671,2.69 -14.896,0.285 -19.545,-5.405c1.737,-0.435 4.024,-1.471 6.348,-1.634c-2.982,-1.991 -4.98,-4.587 -5.782,-7.919c4.432,0.782 8.828,0.287 12.82,1.697Z" style="fill:#cd8a4f;"/><path id="_-3" serif:id=" " d="M300,98.157l0,12.75c0,9.353 -0.808,19.223 -1.631,28.943c-1.24,14.64 -3.254,28.693 -8.484,38.159c-7.467,-25.937 -25.805,-35.573 -22.424,-61.889c0.735,-5.46 2.496,-10.196 5.511,-14.047c-6.305,28.002 11.59,39.419 16.591,61.645c5.671,-19.095 9.995,-40.198 10.437,-65.561Zm-117.904,17.205c1.885,6.294 2.514,10.727 0.108,12.265c-3.58,2.288 -11.994,-1.007 -17.763,-7.457c1.177,17.028 -2.454,26.874 -8.531,28.698c-7.896,2.368 -20.413,-7.924 -24.581,-30.731c-23.791,17.221 -27.017,14.863 -20.094,-3.032c1.534,-2.682 3.409,-4.975 5.881,-6.585c-8.472,18 -0.008,17.763 18.753,0.855c3.045,23.172 12.59,32.083 18.333,29.455c4.632,-2.12 6.071,-11.551 5.197,-28.551c17.84,15.433 22.8,16.846 16.038,-4.223c2.676,2.451 5.324,5.364 6.659,9.306Zm-149.23,-0.492c-0.563,-1.215 -1.108,-2.535 -1.64,-3.963c3.832,12.882 6.072,22.964 4.888,30.46c-1.75,11.08 -9.78,23.451 -18.384,36.826c-9.757,-14.316 -17.73,-33.622 -17.73,-67.286c3.587,17.323 3.617,33.19 17.464,54.71c4.462,-7.984 10.992,-18.546 11.46,-27.417c0.81,-15.379 -3.031,-27.521 -5.254,-39.238c3.026,2.593 5.854,5.351 7.62,8.994c2.147,-1.562 4.294,-3.483 6.442,-5.883c0.26,5.007 -0.872,9.466 -4.866,12.797Zm22.795,9.892c-3.873,1.181 -7.179,1.666 -10.055,1.355l10.055,-1.355Z" style="fill:#7e4323;"/><g><path d="M79.643,43.864c1.798,-2.465 4.071,-4.14 6.974,-4.764c1.032,1.91 1.752,3.821 1.864,5.731c1.481,0.284 2.708,1.074 3.452,2.831c-1.065,1.793 -2.387,2.556 -4.004,2.14c-7.144,14.054 -14.592,22.189 -24.995,23.13l12.29,10.219c1.489,0.744 3.161,1.167 5.386,0.621c-2.805,5.284 -6.792,8.755 -12.359,9.804c-2.868,0.541 -5.839,1.726 -8.286,4.005c-1.335,1.244 -10.324,-1.94 -16.156,-4.695c0.394,1.448 1.202,3.151 3.995,6.076c-7.592,-1.533 -10.554,-3.974 -15.59,-6.047c-8.127,-3.347 -13.17,-3.214 -22.248,-15.081c2.162,1.24 4.362,2.329 6.708,2.831c-6.034,-6.745 -6.577,-9.48 -5.178,-21.749l68.147,-15.052Z" style="fill:#7e4323;"/><path d="M85.642,46.81c-3.635,-11.683 -7.246,-23.458 -11.024,-34.567c-1.299,-3.817 -3.54,-6.961 -6.473,-8.293c-2.809,-1.275 -5.689,-1.802 -8.815,-2.14l-13.671,-0c-4.273,-0.1 -7.42,0.666 -9.631,2.383c-7.758,6.024 -15.216,12.516 -20.766,21.759c-3.144,5.238 -4.26,12.124 -5.178,19.771c-0.175,1.459 -0.138,6.249 0,9.373c0.079,4.792 4.014,12.976 9.01,19.522c5.763,7.552 18.083,13.561 28.896,18.176c7.783,3.323 15.919,2.009 22.681,-2.796c8.993,-6.391 13.818,-14.073 12.79,-25.892c-5.47,11.877 -17.694,11.496 -25.166,1.813c3.14,0.612 6.353,0.648 9.631,0.155c8.121,-4.059 13.738,-10.787 17.716,-19.264Z" style="fill:#c19b7d;"/><path d="M83.576,65.97c0.384,10.774 -4.394,17.979 -12.905,24.028c-6.762,4.805 -14.898,6.119 -22.681,2.796c-10.813,-4.615 -23.133,-10.624 -28.896,-18.176c-4.996,-6.546 -8.931,-14.73 -9.01,-19.522c-0.138,-3.124 -0.175,-7.914 0,-9.373c0.918,-7.647 2.034,-14.533 5.178,-19.771c5.55,-9.243 13.008,-15.735 20.766,-21.759c2.211,-1.717 5.358,-2.483 9.631,-2.383l3.108,-0c-4.108,0.944 -7.27,2.506 -10.13,4.704c-2.525,1.941 -4.987,3.696 -7.314,6.084c-1.682,1.727 -2.245,3.753 -0.453,3.561c3.623,-0.39 7.036,0.216 9.968,3.107c3.916,3.86 8.315,8.188 11.652,12.169c0.149,0.179 0.29,0.353 0.422,0.525c-7.146,-6.278 -15.171,-14.515 -22.107,-13.342c-2.907,0.731 -4.752,2.139 -5.761,4.078c-2.153,4.14 -4.143,9.234 -6.343,13.723c-1.041,2.123 -1.429,4.636 -1.165,8.156c0.336,4.488 -0.302,9.094 1.942,11.845c1.301,-6.395 7.988,-12.401 22.59,-12.234c-10.58,1.791 -19.185,5.063 -20.778,13.594c-0.511,2.736 0.014,5.777 2.266,7.897c2.656,2.501 6.137,5.671 9.45,8.997c1.068,1.072 2.423,0.643 3.301,-0.971c1.821,-3.347 4.771,-6.536 8.286,-9.127c1.673,-1.233 3.318,-1.949 5.372,-2.265c-1.739,0.881 -2.964,2.505 -4.466,4.142c-1.989,2.169 -3.945,4.604 -5.761,8.156c-0.951,1.86 0.019,6.265 2.977,8.091c4.983,3.076 11.494,3.123 16.895,3.302c-0.283,-1.188 -0.774,-2.61 -0.712,-3.625c0.078,-1.273 1.152,-3.388 2.46,-4.596c2.218,-2.05 4.68,-4.197 7.453,-4.896c0.714,0.134 1.43,0.208 2.141,0.22c-2.819,1.312 -5.705,3.711 -7.588,5.582c-1.855,1.843 -0.902,3.427 1.101,4.79c2.486,1.693 3.819,1.365 7.702,-0.194c6.029,-2.42 9.298,-9.079 11.409,-17.313Zm-29.08,-30.198c3.338,-2.781 6.798,-5.717 9.839,-8.998c2.783,-3.002 4.46,-6.216 4.79,-9.515c0.49,-4.89 0.598,-9.463 -0.469,-13.055c0.938,0.507 1.8,1.203 2.576,2.048c1.175,3.716 0.453,8.246 0.417,11.589c-0.051,4.831 -2.234,7.559 -4.66,10.487c-2.456,2.964 -7.51,6.033 -7.897,7.573c-0.717,2.849 -2.135,5.079 -3.366,7.573c-0.568,1.152 -0.295,2.492 0.647,3.884c1.638,2.419 2.611,3.899 3.949,6.02c0.625,0.99 1.491,1.939 3.366,1.23c5.843,-2.211 11.064,-12.096 15.017,-20.066c0.993,-2.003 1.276,-4.005 1.233,-6.007c0.417,1.318 0.834,2.64 1.249,3.966c-0.226,1.262 -0.738,2.524 -1.43,3.788c-4.022,7.348 -7.602,15.684 -13.836,20.471c-1.404,1.078 -2.551,2.984 -2.185,4.369c0.767,2.897 2.047,4.665 4.19,4.945c-3.278,0.493 -6.491,0.457 -9.631,-0.155c-7.986,-10.497 -10.165,-17.109 -8.783,-19.109c0.953,-1.379 1.782,-2.55 2.848,-4.177c1.499,-2.287 2.191,-4.574 2.136,-6.861Z" style="fill:#a67d5d;"/><path d="M55.204,10.928c-0.268,-2.894 9.414,-2.701 10.63,-0.54c0.484,0.861 1.457,8.002 -1.959,11.959c-4.381,5.075 -6.695,7.372 -8.422,5.649c-2.765,-2.76 -4.332,-2.606 -4.928,-4.189c-1.973,-5.24 5.369,-5.412 4.679,-12.879Zm12.751,21.167c3.623,-3.761 4.524,-8.663 6.504,-5.428c4.101,6.699 1.53,7.243 -2.738,13.835c-0.303,0.469 -3.383,4.599 -3.372,-0.226c0.008,-3.236 -2.813,-5.669 -0.394,-8.181Zm10.914,18.223c-3.471,5.546 -5.714,3.53 -5.527,1.928c0.103,-0.885 4.314,-7.997 5.049,-8.308c1.287,-0.546 3.33,1.825 0.478,6.38Zm-32.806,-15.327c0.197,0.225 2.748,2.742 0.029,3.216c-3.971,0.692 -10.059,2.355 -10.992,0.975c-2.376,-3.512 0.176,-6.672 1.435,-9.806c1.5,-3.732 3.106,-2.07 5.509,1.164c2.453,3.303 2.758,3.01 4.019,4.451Zm-6.857,14.056c6.035,-1.241 6.914,3.981 7.075,4.419c2.013,5.457 2.398,6.794 0.405,7.68c-5.752,2.557 -7.433,4.795 -8.916,1.852c-3.924,-7.793 -4.767,-10.207 -3.568,-11.75c0.539,-0.694 4.541,-2.106 5.004,-2.201Zm16.678,19.752c4.994,5.064 6.975,5.156 5.123,7.069c-0.708,0.731 -4.639,3.421 -4.904,3.508c-2.72,0.895 -2.289,-1.411 -9.951,-3.598c-2.887,-0.824 -2.553,-2.384 0.817,-5.671c2.447,-2.387 6.592,-3.663 8.915,-1.308Zm15.637,7.732c3.087,0.277 3.13,0.252 3.294,0.462c1.456,1.857 -5.173,4.248 -5.9,3.834c-3.32,-1.891 1.817,-4.367 2.606,-4.296Z" style="fill:#d5aa88;"/></g><g><path d="M220.357,43.864c-1.798,-2.465 -4.071,-4.14 -6.974,-4.764c-1.032,1.91 -1.752,3.821 -1.864,5.731c-1.481,0.284 -2.708,1.074 -3.452,2.831c1.065,1.793 2.387,2.556 4.004,2.14c7.144,14.054 14.592,22.189 24.995,23.13l-12.29,10.219c-1.489,0.744 -3.161,1.167 -5.386,0.621c2.805,5.284 6.792,8.755 12.359,9.804c2.868,0.541 5.839,1.726 8.286,4.005c1.335,1.244 10.324,-1.94 16.156,-4.695c-0.394,1.448 -1.202,3.151 -3.995,6.076c7.592,-1.533 10.554,-3.974 15.59,-6.047c8.127,-3.347 13.17,-3.214 22.248,-15.081c-2.162,1.24 -4.362,2.329 -6.708,2.831c6.034,-6.745 6.577,-9.48 5.178,-21.749l-68.147,-15.052Z" style="fill:#7e4323;"/><path d="M214.358,46.81c3.635,-11.683 7.246,-23.458 11.024,-34.567c1.299,-3.817 3.54,-6.961 6.473,-8.293c2.809,-1.275 5.689,-1.802 8.815,-2.14l13.671,-0c4.273,-0.1 7.42,0.666 9.631,2.383c7.758,6.024 15.216,12.516 20.766,21.759c3.144,5.238 4.26,12.124 5.178,19.771c0.175,1.459 0.138,6.249 -0,9.373c-0.079,4.792 -4.014,12.976 -9.01,19.522c-5.763,7.552 -18.083,13.561 -28.896,18.176c-7.783,3.323 -15.919,2.009 -22.681,-2.796c-8.993,-6.391 -13.818,-14.073 -12.79,-25.892c5.47,11.877 17.694,11.496 25.166,1.813c-3.14,0.612 -6.353,0.648 -9.631,0.155c-8.121,-4.059 -13.738,-10.787 -17.716,-19.264Z" style="fill:#c19b7d;"/><path d="M216.424,65.97c-0.384,10.774 4.394,17.979 12.905,24.028c6.762,4.805 14.898,6.119 22.681,2.796c10.813,-4.615 23.133,-10.624 28.896,-18.176c4.996,-6.546 8.931,-14.73 9.01,-19.522c0.138,-3.124 0.175,-7.914 -0,-9.373c-0.918,-7.647 -2.034,-14.533 -5.178,-19.771c-5.55,-9.243 -13.008,-15.735 -20.766,-21.759c-2.211,-1.717 -5.358,-2.483 -9.631,-2.383l-3.108,-0c4.108,0.944 7.27,2.506 10.13,4.704c2.525,1.941 4.987,3.696 7.314,6.084c1.682,1.727 2.245,3.753 0.453,3.561c-3.623,-0.39 -7.036,0.216 -9.968,3.107c-3.916,3.86 -8.315,8.188 -11.652,12.169c-0.149,0.179 -0.29,0.353 -0.422,0.525c7.146,-6.278 15.171,-14.515 22.107,-13.342c2.907,0.731 4.752,2.139 5.761,4.078c2.153,4.14 4.143,9.234 6.343,13.723c1.041,2.123 1.429,4.636 1.165,8.156c-0.336,4.488 0.302,9.094 -1.942,11.845c-1.301,-6.395 -7.988,-12.401 -22.59,-12.234c10.58,1.791 19.185,5.063 20.778,13.594c0.511,2.736 -0.014,5.777 -2.266,7.897c-2.656,2.501 -6.137,5.671 -9.45,8.997c-1.068,1.072 -2.423,0.643 -3.301,-0.971c-1.821,-3.347 -4.771,-6.536 -8.286,-9.127c-1.673,-1.233 -3.318,-1.949 -5.372,-2.265c1.739,0.881 2.964,2.505 4.466,4.142c1.989,2.169 3.945,4.604 5.761,8.156c0.951,1.86 -0.019,6.265 -2.977,8.091c-4.983,3.076 -11.494,3.123 -16.895,3.302c0.283,-1.188 0.774,-2.61 0.712,-3.625c-0.078,-1.273 -1.152,-3.388 -2.46,-4.596c-2.218,-2.05 -4.68,-4.197 -7.453,-4.896c-0.714,0.134 -1.43,0.208 -2.141,0.22c2.819,1.312 5.705,3.711 7.588,5.582c1.855,1.843 0.902,3.427 -1.101,4.79c-2.486,1.693 -3.819,1.365 -7.702,-0.194c-6.029,-2.42 -9.298,-9.079 -11.409,-17.313Zm29.08,-30.198c-3.338,-2.781 -6.798,-5.717 -9.839,-8.998c-2.783,-3.002 -4.46,-6.216 -4.79,-9.515c-0.49,-4.89 -0.598,-9.463 0.469,-13.055c-0.938,0.507 -1.8,1.203 -2.576,2.048c-1.175,3.716 -0.453,8.246 -0.417,11.589c0.051,4.831 2.234,7.559 4.66,10.487c2.456,2.964 7.51,6.033 7.897,7.573c0.717,2.849 2.135,5.079 3.366,7.573c0.568,1.152 0.295,2.492 -0.647,3.884c-1.638,2.419 -2.611,3.899 -3.949,6.02c-0.625,0.99 -1.491,1.939 -3.366,1.23c-5.843,-2.211 -11.064,-12.096 -15.017,-20.066c-0.993,-2.003 -1.276,-4.005 -1.233,-6.007c-0.417,1.318 -0.834,2.64 -1.249,3.966c0.226,1.262 0.738,2.524 1.43,3.788c4.022,7.348 7.602,15.684 13.836,20.471c1.404,1.078 2.551,2.984 2.185,4.369c-0.767,2.897 -2.047,4.665 -4.19,4.945c3.278,0.493 6.491,0.457 9.631,-0.155c7.986,-10.497 10.165,-17.109 8.783,-19.109c-0.953,-1.379 -1.782,-2.55 -2.848,-4.177c-1.499,-2.287 -2.191,-4.574 -2.136,-6.861Z" style="fill:#a67d5d;"/><path d="M244.796,10.928c0.268,-2.894 -9.414,-2.701 -10.63,-0.54c-0.484,0.861 -1.457,8.002 1.959,11.959c4.381,5.075 6.695,7.372 8.422,5.649c2.765,-2.76 4.332,-2.606 4.928,-4.189c1.973,-5.24 -5.369,-5.412 -4.679,-12.879Zm-12.751,21.167c-3.623,-3.761 -4.524,-8.663 -6.504,-5.428c-4.101,6.699 -1.53,7.243 2.738,13.835c0.303,0.469 3.383,4.599 3.372,-0.226c-0.008,-3.236 2.813,-5.669 0.394,-8.181Zm-10.914,18.223c3.471,5.546 5.714,3.53 5.527,1.928c-0.103,-0.885 -4.314,-7.997 -5.049,-8.308c-1.287,-0.546 -3.33,1.825 -0.478,6.38Zm32.806,-15.327c-0.197,0.225 -2.748,2.742 -0.029,3.216c3.971,0.692 10.059,2.355 10.992,0.975c2.376,-3.512 -0.176,-6.672 -1.435,-9.806c-1.5,-3.732 -3.106,-2.07 -5.509,1.164c-2.453,3.303 -2.758,3.01 -4.019,4.451Zm6.857,14.056c-6.035,-1.241 -6.914,3.981 -7.075,4.419c-2.013,5.457 -2.398,6.794 -0.405,7.68c5.752,2.557 7.433,4.795 8.916,1.852c3.924,-7.793 4.767,-10.207 3.568,-11.75c-0.539,-0.694 -4.541,-2.106 -5.004,-2.201Zm-16.678,19.752c-4.994,5.064 -6.975,5.156 -5.123,7.069c0.708,0.731 4.639,3.421 4.904,3.508c2.72,0.895 2.289,-1.411 9.951,-3.598c2.887,-0.824 2.553,-2.384 -0.817,-5.671c-2.447,-2.387 -6.592,-3.663 -8.915,-1.308Zm-15.637,7.732c-3.087,0.277 -3.13,0.252 -3.294,0.462c-1.456,1.857 5.173,4.248 5.9,3.834c3.32,-1.891 -1.817,-4.367 -2.606,-4.296Z" style="fill:#d5aa88;"/></g><path d="M10.084,55.096c0.001,0.045 0.461,4.277 2.265,7.928c3.203,6.486 8.437,13.593 8.437,13.593c0,0 -5.277,-5.115 -9.045,-11.887c-1.861,-3.345 -3.051,-7.43 -3.494,-10.375c-0.113,-3.185 -0.122,-7.465 0.044,-8.847c0.952,-7.929 2.163,-15.055 5.423,-20.485c5.672,-9.447 13.277,-16.099 21.206,-22.257c2.476,-1.922 5.977,-2.87 10.759,-2.762l13.651,0c0.065,0 0.13,0.004 0.195,0.01c3.322,0.36 6.38,0.936 9.366,2.292c0.211,0.095 0.418,0.199 0.623,0.309c1.109,0.599 2.131,1.417 3.048,2.416c1.599,1.74 2.885,4.042 3.765,6.631c1.809,5.318 6.399,23.761 5.929,24.258c-2.508,-8.043 -5.034,-16.018 -7.638,-23.677c-1.299,-3.817 -3.54,-6.961 -6.473,-8.293c-2.809,-1.275 -5.689,-1.802 -8.815,-2.14l-13.671,-0c-4.273,-0.1 -7.42,0.666 -9.631,2.383c-7.758,6.024 -15.216,12.516 -20.766,21.759c-3.144,5.238 -4.26,12.124 -5.178,19.771c-0.175,1.459 -0.138,6.249 0,9.373Zm204.274,-8.449c0.331,-2.04 7.506,-29.667 9.315,-34.985c0.88,-2.589 2.166,-4.891 3.765,-6.631c0.917,-0.999 1.939,-1.817 3.048,-2.416c0.205,-0.11 0.412,-0.214 0.623,-0.309c2.986,-1.356 6.044,-1.932 9.366,-2.292c0.065,-0.006 0.13,-0.01 0.195,-0.01c-0,0 13.618,0 13.635,0c4.79,-0.11 8.296,0.837 10.775,2.762c7.929,6.158 15.534,12.81 21.206,22.257c3.26,5.43 4.471,12.556 5.423,20.485c0.164,1.367 0.157,5.568 0.048,8.726c-0.059,1.7 -2.69,8.327 -5.289,12.977c-1.863,3.333 -4.392,5.959 -4.392,5.959c-0,0 1.819,-2.832 3.47,-6.339c1.961,-4.168 3.447,-7.431 3.853,-8.95c0.155,-0.579 0.505,-2.068 0.517,-2.785c0.051,-3.127 0.175,-7.914 -0,-9.373c-0.918,-7.647 -2.034,-14.533 -5.178,-19.771c-5.55,-9.243 -13.008,-15.735 -20.766,-21.759c-2.211,-1.717 -5.358,-2.483 -9.631,-2.383l-13.671,-0c-3.126,0.338 -6.006,0.865 -8.815,2.14c-2.933,1.332 -5.174,4.476 -6.473,8.293c-3.015,8.867 -8.124,25.074 -11.024,34.404Z" style="fill:#6d594a;"/></g></svg>