<?xml version="1.0" encoding="UTF-8" standalone="no"?><!DOCTYPE svg PUBLIC "-//W3C//DTD SVG 1.1//EN" "http://www.w3.org/Graphics/SVG/1.1/DTD/svg11.dtd"><svg width="100%" height="100%" viewBox="0 0 300 345" version="1.1" xmlns="http://www.w3.org/2000/svg" xmlns:xlink="http://www.w3.org/1999/xlink" xml:space="preserve" xmlns:serif="http://www.serif.com/" style="fill-rule:evenodd;clip-rule:evenodd;stroke-linejoin:round;stroke-miterlimit:2;"><g id="Alpaca"><g><path d="M74.859,120.838c-7.315,9.329 -14.327,18.816 -10.537,33.903c1.341,5.342 11.795,11.539 21.762,11.988c5.618,0.253 9.859,-1.7 13.82,-6.261c5.317,-6.121 8.299,-14.092 9.24,-21.602c-13.076,-4.468 -25.078,-8.673 -34.285,-18.028Z" style="fill:#d55884;"/><path d="M93.909,133.212c-4,7.193 -8.727,13.752 -13.702,20.092c3.744,-8.506 6.147,-15.781 8.167,-22.707c1.796,0.935 3.643,1.799 5.535,2.615Z" style="fill:#b32f52;"/><path d="M77.364,123.201c-5.999,8.65 -11.395,16.164 -9.514,25.065c3.124,14.781 20.967,17.36 28.451,11.495c5.075,-3.977 8.75,-11.633 12.843,-20.895c-0.941,7.51 -3.923,15.481 -9.24,21.602c-3.961,4.561 -8.202,6.514 -13.82,6.261c-9.967,-0.449 -20.421,-6.646 -21.762,-11.988c-3.79,-15.087 3.222,-24.574 10.537,-33.903c0.813,0.826 1.649,1.613 2.505,2.363Z" style="fill:#cd466a;"/><path d="M95.186,142.857c3.148,0.65 5.833,1.813 7.514,4.092c-4.751,10.795 -12.04,15.209 -22.493,11.668c5.577,-3.56 11.042,-7.444 14.979,-15.76Z" style="fill:#d96890;"/><path d="M76.127,151.337l6.659,-15.383l-4.276,-3.36c-2.729,6.248 -5.065,12.495 -2.383,18.743Z" style="fill:#d96890;"/><path d="M106.987,148.034c-15.692,-3.976 -28.007,-10.919 -36.81,-20.945c1.471,-2.13 3.069,-4.194 4.682,-6.251c9.207,9.355 21.209,13.56 34.285,18.028c-0.38,3.032 -1.092,6.138 -2.157,9.168Z" style="fill:#b32f52;fill-opacity:0.25;"/></g><path d="M150,148.879c-35.198,-0 -62.615,-7.587 -80.451,-26.537l-41.049,0c-12.446,0 -22.785,6.139 -28.5,18.433l0,-59.395c0,-8.135 1.862,-15.049 5.256,-20.986c-1.251,-0.601 -2.271,-1.532 -3.139,-2.68c-0.566,-0.752 -0.727,-1.733 -0.433,-2.626c0.294,-0.894 1.007,-1.587 1.909,-1.855c4.227,-1.209 7.554,-3.583 9.115,-8.242c1.556,-4.643 3.328,-7.869 9.505,-10.714c-2.153,-2.746 -2.666,-5.578 -1.908,-8.478c0.141,-0.56 0.508,-1.037 1.013,-1.316c0.506,-0.279 1.105,-0.336 1.654,-0.156c8.013,2.701 13.669,2.046 17.904,-0.677c7.536,-4.847 16.469,-8.305 26.18,-9.505c-1.498,-1.52 -2.097,-3.386 -1.94,-5.543c0.037,-0.598 0.356,-1.143 0.859,-1.469c0.503,-0.325 1.131,-0.392 1.691,-0.181c4.303,1.5 8.842,1.621 12.956,3.823c-7.66,-9.033 4,-9.422 20.305,-3.709c11.553,-0.386 36.366,-0.226 49.073,0.08c12.707,-0.306 37.52,-0.466 49.073,-0.08c16.305,-5.713 27.965,-5.324 20.305,3.709c4.114,-2.202 8.653,-2.323 12.956,-3.823c0.56,-0.211 1.188,-0.144 1.691,0.181c0.503,0.326 0.822,0.871 0.859,1.469c0.157,2.157 -0.442,4.023 -1.94,5.543c9.711,1.2 18.644,4.658 26.18,9.505c4.235,2.723 9.891,3.378 17.904,0.677c0.549,-0.18 1.148,-0.123 1.654,0.156c0.505,0.279 0.872,0.756 1.013,1.316c0.758,2.9 0.245,5.732 -1.908,8.478c6.177,2.845 7.949,6.071 9.505,10.714c1.561,4.659 4.888,7.033 9.115,8.242c0.902,0.268 1.615,0.961 1.909,1.855c0.294,0.893 0.133,1.874 -0.433,2.626c-0.868,1.148 -1.888,2.079 -3.139,2.68c3.394,5.937 5.256,12.851 5.256,20.986l0,59.395c-5.715,-12.294 -16.054,-18.433 -28.5,-18.433l-41.049,0c-17.836,18.95 -45.253,26.537 -80.451,26.537Z" style="fill:#b17656;"/><path d="M150.397,94.207c4.31,-1.636 12.865,4.487 15.874,7.98c4.142,4.808 -0.596,8.732 -10.298,7.133c-2.276,-0.375 -4.892,-0.759 -5.973,-0.759c-4.455,0.001 -11.811,1.995 -14.633,-1.452c-1.871,-2.286 1.562,-4.968 2.458,-5.663c2.531,-1.966 3.007,-2.196 6.038,-3.968c0.504,-0.295 3.854,-2.253 6.534,-3.271Z" style="fill:#c48563;"/><path d="M162.764,6.935c12.637,-0.142 27.947,-0.148 36.309,0.131c16.305,-5.713 27.965,-5.324 20.305,3.709c4.114,-2.202 8.653,-2.323 12.956,-3.823c0.56,-0.211 1.188,-0.144 1.691,0.181c0.503,0.326 0.822,0.871 0.859,1.469c0.157,2.157 -0.442,4.023 -1.94,5.543c9.711,1.2 18.644,4.658 26.18,9.505c4.235,2.723 9.891,3.378 17.904,0.677c0.549,-0.18 1.148,-0.123 1.654,0.156c0.505,0.279 0.872,0.756 1.013,1.316c0.758,2.9 0.245,5.732 -1.908,8.478c6.177,2.845 7.949,6.071 9.505,10.714c1.561,4.659 4.888,7.033 9.115,8.242c0.902,0.268 1.615,0.961 1.909,1.855c0.294,0.893 0.133,1.874 -0.433,2.626c-0.868,1.148 -1.888,2.079 -3.139,2.68c3.394,5.937 5.256,12.851 5.256,20.986l0,59.395c-5.685,-12.23 -15.946,-18.368 -28.305,-18.432c-6.646,-10.783 -8.144,-11.516 2.454,-18.908c-2.162,-1.147 -4.138,-2.668 -5.724,-4.968c2.959,-6.569 7.518,-12.367 9.829,-18.793c-1.365,1.061 -2.955,1.821 -5.185,1.728c0.933,-7.873 1.587,-14.771 1.944,-20.628c-1.326,2.217 -2.993,3.866 -5.184,4.644c-2.262,-2.804 -4.038,-5.801 -4.86,-9.181c-10.509,1.463 -12.786,3.002 -9.504,-7.452c-6.285,2.436 -7.613,2.426 -8.209,-7.344c-7.431,-0.633 -11.757,-4.371 -12.852,-11.341c-4.177,2.711 -5.294,2.172 -8.324,-3.564c-3.768,5.585 -10.05,8.096 -19.002,7.344c4.402,9.196 5.537,10.103 -4.32,6.481c7.207,12.55 4.314,11.175 -11.556,5.832c2.315,21.168 -5.552,31.808 -15.769,14.473c-3.736,9.443 -9.574,18.036 -25.433,22.573c-15.859,-4.537 -21.697,-13.13 -25.433,-22.573c-10.217,17.335 -18.084,6.695 -15.769,-14.473c-15.87,5.343 -18.763,6.718 -11.556,-5.832c-9.857,3.622 -8.722,2.715 -4.32,-6.481c-8.952,0.752 -15.234,-1.759 -19.002,-7.344c-3.03,5.736 -4.147,6.275 -8.324,3.564c-1.095,6.97 -5.421,10.708 -12.852,11.341c-0.596,9.77 -1.924,9.78 -8.209,7.344c3.282,10.454 1.005,8.915 -9.504,7.452c-0.822,3.38 -2.598,6.377 -4.86,9.181c-2.191,-0.778 -3.858,-2.427 -5.184,-4.644c0.357,5.857 1.011,12.755 1.944,20.628c-2.23,0.093 -3.82,-0.667 -5.185,-1.728c2.311,6.426 6.87,12.224 9.829,18.793c-1.586,2.3 -3.562,3.821 -5.724,4.968c10.598,7.392 9.1,8.125 2.454,18.908c-12.359,0.064 -22.62,6.202 -28.305,18.432l0,-59.395c0,-8.135 1.862,-15.049 5.256,-20.986c-1.251,-0.601 -2.271,-1.532 -3.139,-2.68c-0.566,-0.752 -0.727,-1.733 -0.433,-2.626c0.294,-0.894 1.007,-1.587 1.909,-1.855c4.227,-1.209 7.554,-3.583 9.115,-8.242c1.556,-4.643 3.328,-7.869 9.505,-10.714c-2.153,-2.746 -2.666,-5.578 -1.908,-8.478c0.141,-0.56 0.508,-1.037 1.013,-1.316c0.506,-0.279 1.105,-0.336 1.654,-0.156c8.013,2.701 13.669,2.046 17.904,-0.677c7.536,-4.847 16.469,-8.305 26.18,-9.505c-1.498,-1.52 -2.097,-3.386 -1.94,-5.543c0.037,-0.598 0.356,-1.143 0.859,-1.469c0.503,-0.325 1.131,-0.392 1.691,-0.181c4.303,1.5 8.842,1.621 12.956,3.823c-7.66,-9.033 4,-9.422 20.305,-3.709c8.219,-0.274 23.149,-0.273 35.657,-0.139c-3.243,-3.977 1.366,-5.531 6.108,-1.568c-0.106,-2.907 0.881,-5.227 3.365,-5.359c3.344,-0.177 5.819,2.144 7.936,6.031c7.137,-5.583 10.02,-5.225 8.771,0.904Z" style="fill:#8f452c;"/><g><path d="M32.225,31.824c-6.636,-0.302 -11.085,-10.776 -16.686,-18.491c-1.789,-2.465 -3.099,-5.193 -6.707,-5.193c-2.984,-0 -4.53,1.695 -5.87,3.602c-1.318,1.875 -2.962,8.317 -2.962,12.544l-0,7.795c-0,5.733 3.781,11.076 9.483,13.852c13.215,6.434 21.097,5.007 29.056,-3.801l-2.384,-7.409l-3.93,-2.899Z" style="fill:#a1553a;"/><path d="M32.225,31.824c-6.636,-0.302 -12.373,-7.039 -17.975,-14.754c-3.273,-4.509 -6.461,-6.582 -9.986,-2.945c-1.595,1.647 -4.264,5.934 -4.264,10.161l-0,7.795c-0,5.733 3.781,11.076 9.483,13.852c13.215,6.434 21.097,5.007 29.056,-3.801l-2.384,-7.409l-3.93,-2.899Z" style="fill:#b17656;"/><path d="M37.492,41.568c-9.442,6.102 -17.221,5.318 -22.649,-0.873c-4.089,-4.663 -7.54,-12.696 -8.53,-21.131c-0.044,-0.427 -0.353,-0.78 -0.771,-0.88c-0.417,-0.099 -0.852,0.077 -1.084,0.438c-3.274,5.697 -2.643,12.984 -1.681,16.127c1.06,3.466 4.518,7.829 8.279,9.589c4.763,2.229 8.874,4.225 13.397,4.057c4.882,-0.182 9.197,-2.667 13.039,-7.327Z" style="fill:#d55985;"/><path d="M4.078,19.824c-0.305,0.618 -0.562,1.234 -0.797,1.827c0.094,-0.683 0.271,-1.379 0.532,-1.979c1.123,-2.588 2.885,-2.022 3.286,-0.251c0.07,0.31 0.361,2.399 2.756,8.546c0.255,0.657 2.219,5.51 3.902,8.41c1.648,2.841 4.411,6.913 9.013,8.339c4.375,1.357 8.757,-0.178 10.257,-0.714c-3.599,1.853 -14.123,6.833 -23.283,-8.76c-1.004,-1.708 -4.315,-7.038 -4.149,-15.587c0.003,-0.175 -0.044,-1.007 -0.661,-0.855c-0.457,0.113 -0.809,0.928 -0.856,1.024Z" style="fill:#a1553a;"/><path d="M31.13,30.857c-1.992,1.86 -2.217,5.313 -3.737,6.701c2.285,0.937 4.482,1.24 6.25,-1.611c-2.011,5.727 3.238,6.261 6.571,8.891c1.617,-1.674 2.657,-3.996 2.9,-7.216l-11.984,-6.765Z" style="fill:#8f452c;"/></g><g><path d="M267.775,31.824c6.636,-0.302 11.085,-10.776 16.686,-18.491c1.789,-2.465 3.099,-5.193 6.707,-5.193c2.984,-0 4.53,1.695 5.87,3.602c1.318,1.875 2.962,8.317 2.962,12.544l0,7.795c0,5.733 -3.781,11.076 -9.483,13.852c-13.215,6.434 -21.097,5.007 -29.056,-3.801l2.384,-7.409l3.93,-2.899Z" style="fill:#a1553a;"/><path d="M267.775,31.824c6.636,-0.302 12.373,-7.039 17.975,-14.754c3.273,-4.509 6.461,-6.582 9.986,-2.945c1.595,1.647 4.264,5.934 4.264,10.161l0,7.795c0,5.733 -3.781,11.076 -9.483,13.852c-13.215,6.434 -21.097,5.007 -29.056,-3.801l2.384,-7.409l3.93,-2.899Z" style="fill:#b17656;"/><path d="M262.508,41.568c9.442,6.102 17.221,5.318 22.649,-0.873c4.089,-4.663 7.54,-12.696 8.53,-21.131c0.044,-0.427 0.353,-0.78 0.771,-0.88c0.417,-0.099 0.852,0.077 1.084,0.438c3.274,5.697 2.643,12.984 1.681,16.127c-1.06,3.466 -4.518,7.829 -8.279,9.589c-4.763,2.229 -8.874,4.225 -13.397,4.057c-4.882,-0.182 -9.197,-2.667 -13.039,-7.327Z" style="fill:#d55985;"/><path d="M295.922,19.824c0.305,0.618 0.562,1.234 0.797,1.827c-0.094,-0.683 -0.271,-1.379 -0.532,-1.979c-1.123,-2.588 -2.885,-2.022 -3.286,-0.251c-0.07,0.31 -0.361,2.399 -2.756,8.546c-0.255,0.657 -2.219,5.51 -3.902,8.41c-1.648,2.841 -4.411,6.913 -9.013,8.339c-4.375,1.357 -8.757,-0.178 -10.257,-0.714c3.599,1.853 14.123,6.833 23.283,-8.76c1.004,-1.708 4.315,-7.038 4.149,-15.587c-0.003,-0.175 0.044,-1.007 0.661,-0.855c0.457,0.113 0.809,0.928 0.856,1.024Z" style="fill:#a1553a;"/><path d="M268.87,30.857c1.992,1.86 2.217,5.313 3.737,6.701c-2.285,0.937 -4.482,1.24 -6.25,-1.611c2.011,5.727 -3.238,6.261 -6.571,8.891c-1.617,-1.674 -2.657,-3.996 -2.9,-7.216l11.984,-6.765Z" style="fill:#8f452c;"/></g><path d="M150,83.239c-15.859,-4.537 -21.697,-13.13 -25.433,-22.573c-10.217,17.335 -18.084,6.695 -15.769,-14.473c-15.87,5.343 -18.763,6.718 -11.556,-5.832c-9.857,3.622 -8.722,2.715 -4.32,-6.481c-0.149,0.974 -1.544,6.13 -1.1,6.531c0.594,0.537 6.324,-2.115 10.078,-4.117c-7.64,13.391 -5.984,13.282 10.974,3.916c-2.615,26.532 1.505,32.264 13.802,12.741c4.888,13.801 12.774,21.907 23.324,24.95c10.55,-3.043 18.436,-11.149 23.324,-24.95c12.297,19.523 16.417,13.791 13.802,-12.741c16.958,9.366 18.614,9.475 10.974,-3.916c3.754,2.002 9.484,4.654 10.078,4.117c0.444,-0.401 -0.951,-5.557 -1.1,-6.531c4.402,9.196 5.537,10.103 -4.32,6.481c7.207,12.55 4.314,11.175 -11.556,5.832c2.315,21.168 -5.552,31.808 -15.769,14.473c-3.736,9.443 -9.574,18.036 -25.433,22.573Zm-138.355,43.76c-4.818,3.072 -8.803,7.663 -11.645,13.776l-0,-59.395c-0,-7.31 1.504,-13.633 4.271,-19.149c-1.641,8.15 1.266,12.241 3.276,16.488c-0.704,2.323 -1.772,3.554 -2.938,4.493c1.691,6.245 5.769,10.69 7.777,16.416c-2.759,1.032 -5.018,3.231 -7.085,5.876c2.88,0.05 5.846,1.045 8.64,0.778c0.5,6.652 -0.737,13.653 -2.296,20.717Zm276.71,0c-1.559,-7.064 -2.796,-14.065 -2.296,-20.717c2.794,0.267 5.76,-0.728 8.64,-0.778c-2.067,-2.645 -4.326,-4.844 -7.085,-5.876c2.008,-5.726 6.086,-10.171 7.777,-16.416c-1.166,-0.939 -2.234,-2.17 -2.938,-4.493c2.01,-4.247 4.917,-8.338 3.276,-16.488c2.767,5.516 4.271,11.839 4.271,19.149l-0,59.395c-2.842,-6.113 -6.827,-10.704 -11.645,-13.776Z" style="fill:#753f2b;"/><path d="M150,148.879c-35.198,-0 -62.615,-7.587 -80.451,-26.537l-41.049,0c-12.446,0 -22.785,6.139 -28.5,18.433l0,-8.505c4.635,-8.245 16.054,-15.733 28.5,-15.733l41.049,0c17.836,18.95 45.253,26.537 80.451,26.537c35.198,-0 62.615,-7.587 80.451,-26.537l41.049,0c12.446,0 23.865,7.488 28.5,15.733l0,8.505c-5.715,-12.294 -16.054,-18.433 -28.5,-18.433l-41.049,0c-17.836,18.95 -45.253,26.537 -80.451,26.537Z" style="fill:#633321;"/><g><g><path d="M77.623,48.309c10.637,1.632 18.794,10.832 18.794,21.923c-0,3.12 -0.646,6.09 -1.811,8.785c-8.279,-11.935 -22.695,-15.527 -42.312,-12.05c1.276,-8.635 7.537,-15.657 15.761,-18.042c-1.984,-0.722 -3.355,-2.014 -3.57,-3.63c-0.386,-2.913 3.13,-5.786 7.846,-6.411c4.716,-0.625 8.859,1.232 9.245,4.145c0.269,2.028 -1.352,4.035 -3.953,5.28Z" style="fill:#a1553a;"/><path d="M54.183,71.895c-3.833,3.218 -6.531,1.353 -5.195,-3.67c1.246,-4.688 4.289,-6.109 9.318,-5.731c8.932,0.67 17.447,1.993 25.483,4.824c3.147,1.109 5.405,3.344 7.422,5.731c0.926,1.097 1.991,1.12 2.721,0.206c0.859,-1.073 2.077,-1.938 2.485,-3.628c1.003,3.991 0.857,7.953 -2.32,11.834c-1.663,2.031 -6.492,-0.203 -5.773,-3.546c0.37,-1.717 -0.135,-2.96 -1.938,-4.123c-9.895,-6.391 -26.82,-6.418 -32.203,-1.897Z" style="fill:#613321;"/><path d="M68.809,37.828c3.505,-1.155 7.332,-2.07 10.803,-1.237c3.883,0.932 4.151,5.456 0.124,6.845c-3.713,1.28 -6.642,1.498 -10.391,1.113c-4.786,-0.491 -4.698,-5.35 -0.536,-6.721Z" style="fill:#613321;"/></g><g><path d="M222.377,48.309c-10.637,1.632 -18.794,10.832 -18.794,21.923c0,3.12 0.646,6.09 1.811,8.785c8.279,-11.935 22.695,-15.527 42.312,-12.05c-1.276,-8.635 -7.537,-15.657 -15.761,-18.042c1.984,-0.722 3.355,-2.014 3.57,-3.63c0.386,-2.913 -3.13,-5.786 -7.846,-6.411c-4.716,-0.625 -8.859,1.232 -9.245,4.145c-0.269,2.028 1.352,4.035 3.953,5.28Z" style="fill:#a1553a;"/><path d="M245.817,71.895c3.833,3.218 6.531,1.353 5.195,-3.67c-1.246,-4.688 -4.289,-6.109 -9.318,-5.731c-8.932,0.67 -17.447,1.993 -25.483,4.824c-3.147,1.109 -5.405,3.344 -7.422,5.731c-0.926,1.097 -1.991,1.12 -2.721,0.206c-0.859,-1.073 -2.077,-1.938 -2.485,-3.628c-1.003,3.991 -0.857,7.953 2.32,11.834c1.663,2.031 6.492,-0.203 5.773,-3.546c-0.37,-1.717 0.135,-2.96 1.938,-4.123c9.895,-6.391 26.82,-6.418 32.203,-1.897Z" style="fill:#613321;"/><path d="M231.191,37.828c-3.505,-1.155 -7.332,-2.07 -10.803,-1.237c-3.883,0.932 -4.151,5.456 -0.124,6.845c3.713,1.28 6.642,1.498 10.391,1.113c4.786,-0.491 4.698,-5.35 0.536,-6.721Z" style="fill:#613321;"/></g><path d="M57.978,81.028c9.105,-0.613 16.715,2.141 16.985,6.146c0.269,4.005 -6.904,7.754 -16.008,8.366c-9.105,0.613 -16.715,-2.141 -16.985,-6.146c-0.269,-4.004 6.904,-7.753 16.008,-8.366Zm184.044,0c9.104,0.613 16.277,4.362 16.008,8.366c-0.27,4.005 -7.88,6.759 -16.985,6.146c-9.104,-0.612 -16.277,-4.361 -16.008,-8.366c0.27,-4.005 7.88,-6.759 16.985,-6.146Z" style="fill:#d77296;"/><path d="M150,122.71c12.478,0 15.391,-0.553 19.702,-2.283c6.143,-2.464 8.966,-5.914 15.386,-6.293c-3.037,0.686 -6.792,6.788 -13.838,10.619c-5.722,3.111 -14.243,4.018 -21.25,4.018c-7.007,0 -15.528,-0.907 -21.25,-4.018c-7.046,-3.831 -10.801,-9.933 -13.838,-10.619c6.42,0.379 9.243,3.829 15.386,6.293c4.311,1.73 7.224,2.283 19.702,2.283Z" style="fill:#633422;"/><path d="M150,148.879c-35.198,-0 -62.615,-7.587 -80.451,-26.537c-4.377,-4.65 -6.057,-10.053 -7.434,-14.504c-1.14,0.88 -2.302,2.048 -3.341,3.985c-0.026,0.049 -0.034,0.111 -0.076,0.147c-0.198,0.168 -0.434,0.285 -0.631,0.453c-0.138,-0.232 -0.32,-0.436 -0.458,-0.668c-0.021,-0.036 -0.143,-1.271 -0.125,-1.898c0.133,-4.556 3.159,-9.226 9.79,-8.362c1.975,0.257 3.965,1.265 4.02,1.322c0.147,0.152 0.211,0.371 0.358,0.523c-0.19,0.09 -0.331,0.265 -0.521,0.355c-0.27,0.128 -2.934,0.081 -6.062,2.115c1.636,4.632 3.561,8.035 6.095,10.727c17.836,18.95 43.638,26.537 78.836,26.537c35.198,-0 61,-7.587 78.836,-26.537c2.534,-2.692 4.459,-6.095 6.095,-10.727c-3.128,-2.034 -5.792,-1.987 -6.062,-2.115c-0.19,-0.09 -0.331,-0.265 -0.521,-0.355c0.147,-0.152 0.211,-0.371 0.358,-0.523c0.055,-0.057 2.045,-1.065 4.02,-1.322c6.631,-0.864 9.657,3.806 9.79,8.362c0.018,0.627 -0.104,1.862 -0.125,1.898c-0.138,0.232 -0.32,0.436 -0.458,0.668c-0.197,-0.168 -0.433,-0.285 -0.631,-0.453c-0.042,-0.036 -0.05,-0.098 -0.076,-0.147c-1.039,-1.937 -2.201,-3.105 -3.341,-3.985c-1.377,4.451 -3.057,9.854 -7.434,14.504c-17.836,18.95 -45.253,26.537 -80.451,26.537Z" style="fill:#633321;"/></g></g></svg>