<?xml version="1.0" encoding="UTF-8" standalone="no"?><!DOCTYPE svg PUBLIC "-//W3C//DTD SVG 1.1//EN" "http://www.w3.org/Graphics/SVG/1.1/DTD/svg11.dtd"><svg width="100%" height="100%" viewBox="0 0 300 345" version="1.1" xmlns="http://www.w3.org/2000/svg" xmlns:xlink="http://www.w3.org/1999/xlink" xml:space="preserve" xmlns:serif="http://www.serif.com/" style="fill-rule:evenodd;clip-rule:evenodd;stroke-linejoin:round;stroke-miterlimit:2;"><g id="Bee"><g id="Bee-Hat" serif:id="Bee Hat"><path d="M300,115.359c0,-20.079 -16.301,-36.38 -36.38,-36.38l-227.24,-0c-20.079,-0 -36.38,16.301 -36.38,36.38l0,-15.891c0,-20.079 16.301,-36.38 36.38,-36.38l227.24,-0c20.079,-0 36.38,16.301 36.38,36.38l0,15.891Z" style="fill:#afa80a;"/><path d="M300,110.286c0,-20.079 -16.301,-36.38 -36.38,-36.38l-227.24,-0c-20.079,-0 -36.38,16.301 -36.38,36.38l0,-15.891c0,-20.078 16.301,-36.38 36.38,-36.38l227.24,0c20.079,0 36.38,16.302 36.38,36.38l0,15.891Z" style="fill:#fff739;"/><path d="M75.635,19.572c-2.505,2.947 -6.475,4.852 -10.941,4.852c-7.569,0 -13.714,-5.472 -13.714,-12.212c0,-6.74 6.145,-12.212 13.714,-12.212c6.134,-0 11.333,3.594 13.084,8.545c9.729,1.711 19.525,3.645 27.964,8.872c5.326,3.299 10.208,8.874 11.864,15.221c2.377,9.113 4.438,19.181 6.461,29.354c0.605,3.041 -1.373,6.001 -4.414,6.606c-3.041,0.605 -6.001,-1.373 -6.605,-4.414c-1.98,-9.95 -3.99,-19.798 -6.314,-28.711c-0.94,-3.603 -3.885,-6.631 -6.908,-8.504c-7.277,-4.508 -15.791,-5.952 -24.191,-7.397Zm149.915,0.39c-20.996,9.26 -32.393,28.197 -38.101,44.939c-1.001,2.935 -4.196,4.505 -7.13,3.504c-2.935,-1 -4.505,-4.195 -3.505,-7.13c6.757,-19.818 20.698,-42.054 46.142,-52.416c1.638,-5.112 6.926,-8.859 13.19,-8.859c7.569,-0 13.714,5.472 13.714,12.212c-0,6.74 -6.145,12.212 -13.714,12.212c-4.266,0 -8.08,-1.738 -10.596,-4.462Z" style="fill:#353535;"/><path d="M123.379,58.544c0.23,1.147 0.459,2.297 0.688,3.448c0.605,3.041 -1.373,6.001 -4.414,6.606c-3.041,0.605 -6.001,-1.373 -6.605,-4.414c-1.98,-9.95 -3.99,-19.798 -6.314,-28.711c-0.94,-3.603 -3.885,-6.631 -6.908,-8.504c-7.277,-4.508 -15.791,-5.952 -24.191,-7.397c-2.505,2.947 -6.475,4.852 -10.941,4.852c-5.813,0 -10.785,-3.227 -12.78,-7.778c5.682,6.517 20.831,6.808 26.482,-5.275c0.558,0.999 0.754,2.45 0.6,4.339c9.326,1.597 18.474,4.486 26.765,9.878c2.655,1.726 4.173,3.838 5.54,9.544c2.001,8.354 3.847,16.544 5.673,25.964c0.905,4.668 6.309,2.992 6.408,-0.867c0.013,-0.508 0.011,-1.073 -0.003,-1.685Zm126.461,-46.996c0.013,0.22 0.02,0.441 0.02,0.664c-0,6.74 -6.145,12.212 -13.714,12.212c-4.266,0 -8.08,-1.738 -10.596,-4.462c-20.996,9.26 -32.393,28.197 -38.101,44.939c-1.001,2.935 -4.196,4.505 -7.13,3.504c-2.935,-1 -4.505,-4.195 -3.505,-7.13c0.857,-2.512 1.829,-5.063 2.925,-7.624c-0.364,1.636 -0.783,3.515 -1.092,5.309c-0.847,4.917 4.188,6.763 6.341,1.869c9.596,-21.815 20.905,-35.05 36.776,-44.385c-0.27,-1.25 -0.152,-2.577 0.467,-4.005c3.445,9.088 25.762,12.542 27.609,-0.891Z"/><path d="M58.016,4.22c7.377,-4.569 13.906,0.384 10.598,2.444c-1.319,0.822 -4.436,-0.422 -6.553,3.439c-0.942,1.717 -1.658,3.728 -4.678,3.575c-0.622,-0.032 -2.764,-1.154 -2.892,-3.165c-0.036,-0.576 -0.415,-3.853 3.525,-6.293Zm186.239,0.202c4.672,4.912 1.648,8.218 -0.004,8.639c-0.889,0.226 -3.054,0.514 -3.819,-0.08c-2.329,-1.809 -1.815,-3.907 -5.818,-5.47c-1.953,-0.763 -4.221,-0.83 -3.694,-2.53c0.245,-0.789 2.754,-3.775 7.718,-3.024c1.449,0.22 4.079,0.848 5.617,2.465Z" style="fill:#454545;"/></g></g></svg>