<?xml version="1.0" encoding="UTF-8" standalone="no"?><!DOCTYPE svg PUBLIC "-//W3C//DTD SVG 1.1//EN" "http://www.w3.org/Graphics/SVG/1.1/DTD/svg11.dtd"><svg width="100%" height="100%" viewBox="0 0 300 345" version="1.1" xmlns="http://www.w3.org/2000/svg" xmlns:xlink="http://www.w3.org/1999/xlink" xml:space="preserve" xmlns:serif="http://www.serif.com/" style="fill-rule:evenodd;clip-rule:evenodd;stroke-linejoin:round;stroke-miterlimit:2;"><g id="Trex"><path d="M133.948,160.723c-0.877,0.836 -2.083,1.235 -3.286,1.086c-1.203,-0.15 -2.276,-0.831 -2.922,-1.857c-2.958,-5.255 -4.588,-11.856 -4.644,-17.327l19.877,2.61c-1.069,5.347 -4.539,11.216 -9.025,15.488Zm31.984,-0c-4.485,-4.272 -7.956,-10.141 -9.024,-15.488l19.877,-2.61c-0.056,5.471 -1.687,12.072 -4.645,17.327c-0.646,1.026 -1.718,1.707 -2.921,1.857c-1.203,0.149 -2.41,-0.25 -3.287,-1.086Zm-63.023,-6.56c-0.978,0.716 -2.226,0.955 -3.399,0.651c-1.174,-0.304 -2.149,-1.119 -2.656,-2.219c-2.253,-5.594 -3.015,-12.351 -2.363,-17.782l19.372,5.16c-1.752,5.165 -5.953,10.534 -10.954,14.19Zm93.443,-0c-5,-3.656 -9.201,-9.025 -10.954,-14.19l19.372,-5.16c0.653,5.431 -0.109,12.188 -2.362,17.782c-0.508,1.1 -1.483,1.915 -2.656,2.219c-1.174,0.304 -2.421,0.065 -3.4,-0.651Zm-116.426,-14.721c-0.772,0.618 -1.745,0.841 -2.65,0.608c-0.905,-0.234 -1.647,-0.9 -2.021,-1.815c-1.647,-4.653 -2.116,-10.31 -1.511,-14.88l14.939,3.98c-1.453,4.366 -4.811,8.948 -8.757,12.107Zm139.02,-0c-3.947,-3.159 -7.304,-7.741 -8.757,-12.107l14.939,-3.98c0.605,4.57 0.136,10.227 -1.511,14.88c-0.374,0.915 -1.116,1.581 -2.021,1.815c-0.905,0.233 -1.878,0.01 -2.65,-0.608Z" style="fill:#e8c56e;"/><path d="M216.102,136.815c-2.67,-2.822 -4.825,-6.212 -5.913,-9.48l14.939,-3.98c0.318,2.404 0.339,5.108 0.048,7.809c-2.981,2.013 -6.008,3.897 -9.074,5.651Zm-25.894,11.511c-2.157,-2.636 -3.85,-5.525 -4.81,-8.353l19.372,-5.16c0.291,2.415 0.301,5.092 0.025,7.813c-4.797,2.196 -9.667,4.095 -14.587,5.7Zm-29.445,6.08c-1.884,-2.969 -3.252,-6.153 -3.855,-9.171l19.877,-2.61c-0.031,3.009 -0.538,6.36 -1.481,9.641c-4.83,0.985 -9.684,1.697 -14.541,2.14Zm-36.053,-1.684c-1.028,-3.426 -1.582,-6.948 -1.614,-10.097l19.877,2.61c-0.616,3.079 -2.027,6.331 -3.971,9.352c-4.799,-0.359 -9.57,-0.981 -14.292,-1.865Zm-30.188,-9.586c-0.332,-2.895 -0.339,-5.757 -0.031,-8.323l19.372,5.16c-1.002,2.954 -2.805,5.974 -5.1,8.703c-4.836,-1.56 -9.591,-3.407 -14.241,-5.54Zm-20.829,-12.001c-0.288,-2.691 -0.266,-5.385 0.051,-7.78l14.939,3.98c-1.103,3.314 -3.304,6.753 -6.026,9.599c-3.05,-1.801 -6.041,-3.734 -8.964,-5.799Z" style="fill:#c19f4a;"/><path d="M136.708,163.618c-1.745,1.664 -4.146,2.457 -6.539,2.16c-2.394,-0.297 -4.528,-1.653 -5.813,-3.695c-0.035,-0.055 -0.069,-0.112 -0.101,-0.169c-3.286,-5.838 -5.097,-13.171 -5.159,-19.248c-0.012,-1.158 0.479,-2.265 1.347,-3.034c0.867,-0.769 2.025,-1.123 3.173,-0.973l19.877,2.61c1.098,0.144 2.087,0.736 2.732,1.636c0.644,0.901 0.887,2.028 0.67,3.113c-1.212,6.067 -5.099,12.753 -10.187,17.6Zm-2.76,-2.895c4.486,-4.272 7.956,-10.141 9.025,-15.488l-19.877,-2.61c0.056,5.471 1.686,12.072 4.644,17.327c0.646,1.026 1.719,1.707 2.922,1.857c1.203,0.149 2.409,-0.25 3.286,-1.086Zm29.224,2.895c-5.088,-4.847 -8.975,-11.533 -10.187,-17.6c-0.217,-1.085 0.026,-2.212 0.671,-3.113c0.644,-0.9 1.633,-1.492 2.731,-1.636l19.877,-2.61c1.149,-0.15 2.307,0.204 3.174,0.973c0.867,0.769 1.358,1.876 1.346,3.034c-0.062,6.077 -1.872,13.41 -5.158,19.248c-0.033,0.057 -0.066,0.114 -0.101,0.169c-1.286,2.042 -3.42,3.398 -5.813,3.695c-2.394,0.297 -4.795,-0.496 -6.54,-2.16Zm2.76,-2.895c0.877,0.836 2.084,1.235 3.287,1.086c1.203,-0.15 2.275,-0.831 2.921,-1.857c2.958,-5.255 4.589,-11.856 4.645,-17.327l-19.877,2.61c1.068,5.347 4.539,11.216 9.024,15.488Zm-60.661,-3.332c-1.946,1.424 -4.429,1.9 -6.764,1.295c-2.335,-0.604 -4.275,-2.226 -5.286,-4.416c-0.027,-0.06 -0.053,-0.12 -0.078,-0.181c-2.502,-6.214 -3.348,-13.72 -2.623,-19.754c0.138,-1.15 0.769,-2.184 1.728,-2.834c0.959,-0.65 2.153,-0.852 3.273,-0.554l19.372,5.161c1.07,0.285 1.974,1.001 2.496,1.977c0.523,0.976 0.618,2.125 0.262,3.174c-1.987,5.858 -6.707,11.985 -12.38,16.132Zm-2.362,-3.228c5.001,-3.656 9.202,-9.025 10.954,-14.19l-19.372,-5.16c-0.652,5.431 0.11,12.188 2.363,17.782c0.507,1.1 1.482,1.915 2.656,2.219c1.173,0.304 2.421,0.065 3.399,-0.651Zm91.081,3.228c-5.672,-4.147 -10.392,-10.274 -12.379,-16.132c-0.356,-1.049 -0.261,-2.198 0.261,-3.174c0.523,-0.976 1.427,-1.692 2.497,-1.977l19.372,-5.161c1.119,-0.298 2.313,-0.096 3.273,0.554c0.959,0.65 1.589,1.684 1.728,2.834c0.725,6.034 -0.121,13.54 -2.623,19.754c-0.025,0.061 -0.051,0.121 -0.079,0.181c-1.01,2.19 -2.95,3.812 -5.285,4.416c-2.335,0.605 -4.818,0.129 -6.765,-1.295Zm2.362,-3.228c0.979,0.716 2.226,0.955 3.4,0.651c1.173,-0.304 2.148,-1.119 2.656,-2.219c2.253,-5.594 3.015,-12.351 2.362,-17.782l-19.372,5.16c1.753,5.165 5.954,10.534 10.954,14.19Zm-113.925,-11.6l-1.361,0.863l-1.521,0.538l-1.622,0.176l-1.647,-0.217l-1.548,-0.608l-1.334,-0.941l-1.07,-1.208l-0.772,-1.416c-0.024,-0.06 -0.047,-0.12 -0.068,-0.18c-1.853,-5.236 -2.386,-11.598 -1.705,-16.74c0.151,-1.14 0.785,-2.16 1.742,-2.8c0.956,-0.639 2.141,-0.836 3.253,-0.54l14.939,3.98c1.066,0.284 1.967,0.996 2.491,1.967c0.523,0.971 0.623,2.115 0.274,3.162c-1.673,5.027 -5.507,10.327 -10.051,13.964Zm-2.501,-3.121c3.946,-3.159 7.304,-7.741 8.757,-12.107l-14.939,-3.98c-0.605,4.57 -0.136,10.227 1.511,14.88c0.374,0.915 1.116,1.581 2.021,1.815c0.905,0.233 1.878,0.01 2.65,-0.608Zm136.519,3.121c-4.545,-3.637 -8.378,-8.937 -10.051,-13.964c-0.349,-1.047 -0.249,-2.191 0.274,-3.162c0.524,-0.971 1.425,-1.683 2.491,-1.967l14.939,-3.98c1.111,-0.296 2.297,-0.099 3.253,0.54c0.956,0.64 1.591,1.66 1.742,2.8c0.681,5.142 0.147,11.504 -1.705,16.74c-0.022,0.06 -0.044,0.12 -0.069,0.18l-0.771,1.416l-1.07,1.208l-1.334,0.941l-1.548,0.608l-1.648,0.217l-1.621,-0.176l-1.521,-0.538l-1.361,-0.863Zm2.501,-3.121c0.772,0.618 1.745,0.841 2.65,0.608c0.905,-0.234 1.647,-0.9 2.021,-1.815c1.647,-4.653 2.116,-10.31 1.511,-14.88l-14.939,3.98c1.453,4.366 4.81,8.948 8.757,12.107Z" style="fill:#6c5623;"/><path d="M33.535,37.672c1.881,-8.43 9.401,-17.882 15.381,-20.588c8.583,-3.883 22.197,-5.751 34.269,-2.772c22.272,-7.215 44.72,-10.457 66.815,-10.457c22.095,-0 44.543,3.242 66.815,10.457c12.072,-2.979 25.686,-1.111 34.269,2.772c5.98,2.706 13.5,12.158 15.381,20.588l-232.93,0Z" style="fill:#325315;"/><path d="M150,148.879c-35.198,-0 -62.615,-7.587 -80.451,-26.537l-41.049,0c-12.446,0 -22.785,6.139 -28.5,18.433l0,-59.395c0,-21.726 13.284,-34.742 33.535,-43.708c1.881,-8.43 9.401,-17.882 15.381,-20.588c8.583,-3.883 22.197,-3.404 34.269,-0.425c22.272,-7.214 44.72,-8.556 66.815,-8.556c22.095,-0 44.543,1.342 66.815,8.556c12.072,-2.979 25.686,-3.458 34.269,0.425c5.98,2.706 13.5,12.158 15.381,20.588c20.251,8.966 33.535,21.982 33.535,43.708l-0,59.395c-5.715,-12.294 -16.054,-18.433 -28.5,-18.433l-41.049,0c-17.836,18.95 -45.253,26.537 -80.451,26.537Z" style="fill:#6aa000;"/><path d="M150,35.316c-7.99,-5.083 -13.121,-13.026 -17.097,-22.123c-18.077,0.496 -34.677,2.754 -48.146,8.749c-7.883,-0.747 -16.211,-0.898 -23.85,-0.836c-4.93,0.041 -5.807,0.296 -9.027,3.344c-4.352,4.118 -6.875,7.971 -9.418,11.98c-1.659,2.617 -1.69,3.539 -1.281,5.35c0.987,4.366 -1.353,7.515 -5.517,8.191c-3.967,0.645 -6.91,2.774 -9.584,6.328c2.547,2.333 1.757,6.652 -3.845,12.953c-3.92,4.408 -6.408,10.563 -6.297,16.55l-0,6.464c-0.064,1.821 0.754,2.96 1.616,3.678c1.929,1.606 2.937,4.047 3.079,6.561c0.254,4.541 1.995,3.864 6.046,5.656c7.164,3.17 9.864,8.099 9.633,14.181l-7.812,0c-12.446,0 -22.785,6.139 -28.5,18.433l0,-59.395c0,-21.726 13.284,-34.742 33.535,-43.708c1.881,-8.43 9.401,-17.882 15.381,-20.588c8.583,-3.883 22.197,-3.404 34.269,-0.425c22.272,-7.214 44.72,-8.556 66.815,-8.556c22.095,-0 44.543,1.342 66.815,8.556c12.072,-2.979 25.686,-3.458 34.269,0.425c5.98,2.706 13.5,12.158 15.381,20.588c20.251,8.966 33.535,21.982 33.535,43.708l-0,59.395c-5.715,-12.294 -16.054,-18.433 -28.5,-18.433l-7.812,0c-0.231,-6.082 2.469,-11.011 9.633,-14.181c4.051,-1.792 5.792,-1.115 6.046,-5.656c0.142,-2.514 1.15,-4.955 3.079,-6.561c0.862,-0.718 1.68,-1.857 1.616,-3.678l0,-6.464c0.111,-5.987 -2.377,-12.142 -6.297,-16.55c-5.602,-6.301 -6.392,-10.62 -3.845,-12.953c-2.674,-3.554 -5.617,-5.683 -9.584,-6.328c-4.164,-0.676 -6.504,-3.825 -5.517,-8.191c0.409,-1.811 0.378,-2.733 -1.281,-5.35c-2.543,-4.009 -5.066,-7.862 -9.418,-11.98c-3.22,-3.048 -4.097,-3.303 -9.027,-3.344c-7.639,-0.062 -15.967,0.089 -23.85,0.836c-13.469,-5.995 -30.069,-8.253 -48.146,-8.749c-3.976,9.097 -9.107,17.04 -17.097,22.123Zm-98.386,37.911l-15.406,-2.268c-0.274,-2.528 2.054,-3.531 5.642,-3.795c-2.935,-6.778 -4.295,-12.98 -0.299,-17.225c1.967,-2.09 3.425,-5.06 3.495,-7.689c0.11,-4.184 2.242,-7.342 5.492,-8.131c2.265,-0.551 3.859,-1.383 5.592,-3.453c2.788,-3.33 7.688,-5.116 11.933,-5.542c6.623,-0.664 8.138,1.636 8.737,4.693c0.408,2.081 1.467,4.313 4.244,5.243c4.515,1.511 8.095,6.079 8.838,12.133c0.596,4.863 -0.395,12.046 -3.215,17.018c-3.189,8.34 -11.271,14.269 -20.726,14.269c-5.46,0 -10.461,-1.977 -14.327,-5.253Zm196.772,-0c-3.866,3.276 -8.867,5.253 -14.327,5.253c-9.455,0 -17.537,-5.929 -20.726,-14.269c-2.82,-4.972 -3.811,-12.155 -3.215,-17.018c0.743,-6.054 4.323,-10.622 8.838,-12.133c2.777,-0.93 3.836,-3.162 4.244,-5.243c0.599,-3.057 2.114,-5.357 8.737,-4.693c4.245,0.426 9.145,2.212 11.933,5.542c1.733,2.07 3.327,2.902 5.592,3.453c3.25,0.789 5.382,3.947 5.492,8.131c0.07,2.629 1.528,5.599 3.495,7.689c3.996,4.245 2.636,10.447 -0.299,17.225c3.588,0.264 5.916,1.267 5.642,3.795l-15.406,2.268Z" style="fill:#3e8105;"/><path d="M0,140.775l0,-59.395c0,-21.726 13.284,-34.742 33.535,-43.708c-17.287,11.426 -30.671,25.672 -28.657,51.05c3.846,0.725 4.077,2.119 0.435,7.488c4.896,3.245 3.839,4.444 1.219,7.053c-2.196,2.186 -1.739,4.015 -1.48,7.488c0.199,2.675 0.899,4.469 2.525,5.137c1.738,0.714 2.838,2.654 3.517,5.398c4.99,-3.346 10.911,-5.018 17.406,-5.018l41.049,0l0,6.074l-41.049,0c-6.149,0 -11.784,1.499 -16.601,4.497c-4.932,3.071 -9.007,7.716 -11.899,13.936Zm288.101,-13.936c-4.817,-2.998 -10.452,-4.497 -16.601,-4.497l-41.049,0l-0,-6.074l41.049,0c6.495,0 12.416,1.672 17.406,5.018c0.679,-2.744 1.779,-4.684 3.517,-5.398c1.626,-0.668 2.326,-2.462 2.525,-5.137c0.259,-3.473 0.716,-5.302 -1.48,-7.488c-2.62,-2.609 -3.677,-3.808 1.219,-7.053c-3.642,-5.369 -3.411,-6.763 0.435,-7.488c2.014,-25.378 -11.37,-39.624 -28.657,-51.05c20.251,8.966 33.535,21.982 33.535,43.708l0,59.395c-2.892,-6.22 -6.967,-10.865 -11.899,-13.936Z" style="fill:#325215;"/><path d="M150,151.857c-31.601,-0.117 -70.678,-10.97 -84.731,-35.444c-1.526,-2.658 -2.513,-5.206 -3.096,-6.977c-2.794,2.108 -3.398,4.225 -3.966,4.509c-0.475,0.238 -0.504,0.032 -1.035,0.065c-0.233,-0.581 -0.603,-1.1 -0.836,-1.68c-0.016,-0.041 0.735,-10.133 10.393,-9.541c1.977,0.121 3.836,0.788 3.84,0.793c0.416,0.436 0.712,0.976 1.127,1.413c-1.02,0.808 -0.881,1.051 -1.448,1.127c-2.118,0.282 -3.524,0.649 -5.263,1.561c9.059,24.946 46.974,37.225 85.015,37.485c38.041,-0.26 75.956,-12.539 85.015,-37.485c-1.739,-0.912 -3.145,-1.279 -5.263,-1.561c-0.567,-0.076 -0.428,-0.319 -1.448,-1.127c0.415,-0.437 0.711,-0.977 1.127,-1.413c0.004,-0.005 1.863,-0.672 3.84,-0.793c9.658,-0.592 10.409,9.5 10.393,9.541c-0.233,0.58 -0.603,1.099 -0.836,1.68c-0.531,-0.033 -0.56,0.173 -1.035,-0.065c-0.568,-0.284 -1.172,-2.401 -3.966,-4.509c-0.583,1.771 -1.57,4.319 -3.096,6.977c-14.053,24.474 -53.13,35.327 -84.731,35.444Z" style="fill:#325215;"/><path d="M36.132,96.486c0.809,0.698 2.474,3.288 1.603,4.782c-1.161,1.99 -5.415,3.259 -7.193,2.014c-1.669,-1.169 -5.781,-3.52 -3.326,-6.047c0.134,-0.138 3.692,-2.191 5.584,-2.339c1.739,-0.136 3.14,1.425 3.332,1.59Zm-12.69,-14.065c3.862,-2.375 5.155,3.098 3.1,4.704c-2.003,1.566 -4.015,3.155 -4.806,0.34c-0.776,-2.758 0.905,-4.551 1.706,-5.044Zm32.357,10.834c3.415,1.359 1.73,4.444 -0.821,4.697c-2.298,0.227 -3.765,0.478 -4.564,-2.5c-0.446,-1.663 1.589,-3.707 5.385,-2.197Zm60.471,-6.052c0.065,0.023 3.068,0.822 5.264,2.911c1.535,1.46 0.693,4.011 -3.506,3.714c-3.402,-0.24 -5.531,0.867 -9.04,-4.786c-0.743,-1.198 1.499,-3.896 7.282,-1.839Zm29.036,20.344c0.888,0.124 0.902,0.023 1.703,0.435c2.299,1.185 0.017,6.812 -6.327,2.955c-3.454,-2.099 0.871,-3.91 4.624,-3.39Zm22.104,10.062c2.827,0.891 0.322,5.39 -3.617,5.164c-1.548,-0.088 -2.49,-1.564 -2.025,-2.834c0.535,-1.462 4.303,-2.752 5.642,-2.33Zm20.597,-31.039c5.533,-0.09 3.589,6.725 -6.575,7.786c-3.727,0.39 -2.98,-2.14 -2.185,-3.104c2.37,-2.876 6.315,-4.642 8.76,-4.682Zm-24.96,-3.857c1.91,-0.145 7.153,-1.364 7.044,2.872c-0.016,0.618 -0.907,3.472 -3.556,5.095c-4.725,2.896 -14.69,3.935 -16.258,2.87c-1.485,-1.009 -1.608,-3.192 -0.029,-5.24c2.756,-3.576 10.613,-5.43 12.799,-5.597Zm-29.344,-9.044c10.356,-0.004 10.541,3.956 7.888,5.915c-3.708,2.737 -7.472,1.108 -8.049,0.962c-0.546,-0.138 -6.231,-1.573 -5.751,-4.055c0.545,-2.82 5.388,-2.822 5.912,-2.822Zm-33.861,-17.446c3.644,0.706 5.46,2.958 2.122,4.39c-4.732,2.031 -7.379,-1.434 -7.533,-1.83c-0.802,-2.054 3.648,-2.902 5.411,-2.56Zm-2.627,-10.725c0.696,0.509 2.064,1.204 1.799,3.793c-0.164,1.603 -1.857,1.28 -2.301,1.034c-0.307,-0.17 -0.3,-0.166 -0.646,-0.199c-1.311,-0.126 -3.566,-2.179 -2.972,-3.429c0.471,-0.991 2.569,-2.332 4.12,-1.199Zm109.316,1.364c0.163,4.445 -4.961,4.556 -4.205,1.639c0.872,-3.362 4.131,-3.664 4.205,-1.639Zm-1.782,9.129c2.54,3.014 -4.438,6.736 -7.369,4.054c-0.255,-0.234 -1.329,-1.915 2.061,-4.057c1.398,-0.883 4.334,-1.154 5.308,0.003Zm43.651,36.935c4.914,1.95 -1.493,8.56 -5.417,3.15c-1.626,-2.242 4.035,-3.698 5.417,-3.15Zm24.555,3.809c3.508,4.305 -5.303,8.052 -6.576,6.53c-1.938,-2.316 -5.774,-4.396 0.609,-7.738c0.431,-0.226 3.493,-1.83 5.967,1.208Zm4.554,-13.638c2.244,4.153 -1.278,5.626 -2.182,5.386c-0.064,-0.017 -3.493,-2.515 -2.868,-4.836c0.673,-2.495 3.64,-3.158 5.05,-0.55Zm-9.592,-22.512c2.573,0.861 0.157,5.589 -2.282,5.213c-0.174,-0.027 0.043,-0.321 -1.763,-1.316c-4.141,-2.282 0.974,-4.925 4.045,-3.897Z" style="fill:#3f8206;"/><g><path d="M90.573,104.459c-0.773,0.939 -1.227,3.793 3.082,4.674c0.502,0.102 4.465,0.192 7.159,3.802c1.097,1.471 3.227,7.957 6.2,8.571c0.894,0.184 0.787,-0.429 0.444,-7.422c-0.099,-2.036 -0.159,-2.102 -4.129,-7.768c-0.154,-0.219 -2.002,-3.735 -6.834,-6.162c-1.876,-0.943 -4.951,-0.298 -5.718,2.164c-0.179,0.574 -0.185,0.556 -0.372,1.117" style="fill:#3f8206;"/><path d="M89.627,106.339c-0.021,-0.085 -0.097,-0.15 -0.118,-0.235c-0.001,-0.004 -0.324,-2.118 0.144,-3.897c0.077,-0.293 0.566,-2.681 3.454,-4.106c2.156,-1.064 5.241,-0.571 6.882,1.306c3.893,4.453 4.88,5.507 6.587,8.574c0.777,1.396 2.753,3.626 2.468,8.641c-0.088,1.569 -0.263,2.852 -0.541,5.478c-0.003,0.036 0.013,0.081 -0.011,0.108c-0.266,0.298 -0.308,0.251 -0.575,0.551c-0.118,-0.238 -0.432,-0.338 -0.55,-0.576c-0.12,-0.241 -0.017,-5.605 -0.911,-8.259c-0.726,-2.152 -2.065,-3.332 -2.828,-4.373c-1.346,-1.837 -2.131,-2.464 -6.874,-7.076c-0.234,-0.228 -1.374,-0.789 -3.175,-0.028c-0.01,0.005 -0.975,0.148 -2.573,2.161c-0.296,0.373 -1.125,1.54 -1.163,1.58c-0.059,0.065 -0.156,0.086 -0.216,0.151Z" style="fill:#325315;"/></g><g><path d="M209.427,104.459c0.773,0.939 1.227,3.793 -3.082,4.674c-0.502,0.102 -4.465,0.192 -7.159,3.802c-1.097,1.471 -3.227,7.957 -6.2,8.571c-0.894,0.184 -0.787,-0.429 -0.444,-7.422c0.099,-2.036 0.159,-2.102 4.129,-7.768c0.154,-0.219 2.002,-3.735 6.834,-6.162c1.876,-0.943 4.951,-0.298 5.718,2.164c0.179,0.574 0.185,0.556 0.372,1.117" style="fill:#3f8206;"/><path d="M210.373,106.339c0.021,-0.085 0.097,-0.15 0.118,-0.235c0.001,-0.004 0.324,-2.118 -0.144,-3.897c-0.077,-0.293 -0.566,-2.681 -3.454,-4.106c-2.156,-1.064 -5.241,-0.571 -6.882,1.306c-3.893,4.453 -4.88,5.507 -6.587,8.574c-0.777,1.396 -2.753,3.626 -2.468,8.641c0.088,1.569 0.263,2.852 0.541,5.478c0.003,0.036 -0.013,0.081 0.011,0.108c0.266,0.298 0.308,0.251 0.575,0.551c0.118,-0.238 0.432,-0.338 0.55,-0.576c0.12,-0.241 0.017,-5.605 0.911,-8.259c0.726,-2.152 2.065,-3.332 2.828,-4.373c1.346,-1.837 2.131,-2.464 6.874,-7.076c0.234,-0.228 1.374,-0.789 3.175,-0.028c0.01,0.005 0.975,0.148 2.573,2.161c0.296,0.373 1.125,1.54 1.163,1.58c0.059,0.065 0.156,0.086 0.216,0.151Z" style="fill:#325315;"/></g><g><path d="M150,32.544c-6.85,-7.19 -12.7,-14.706 -11.754,-24.441c0.104,-1.072 2.211,-2.665 4.482,-4.415c2.314,-1.781 4.814,-3.709 7.272,-3.688c2.458,-0.021 4.958,1.907 7.272,3.688c2.271,1.75 4.378,3.343 4.482,4.415c0.946,9.735 -4.904,17.251 -11.754,24.441Z" style="fill:#d26727;"/><path d="M150,24.735l0,-22.733c2.122,1.925 5.263,4.581 5.205,7.152c-0.122,5.38 -2.874,10.456 -5.205,15.581Z" style="fill:#e78346;"/><path d="M150,32.544c-6.85,-7.19 -12.7,-14.706 -11.754,-24.441c0.104,-1.072 2.211,-2.665 4.482,-4.415c1.432,-1.102 2.935,-2.261 4.456,-2.979c-2.85,2.471 -4.722,5.175 -5.416,7.394c-1.343,4.3 1.636,12.672 8.232,24.441Zm5.578,-30.133c0.573,0.415 1.139,0.85 1.694,1.277c2.271,1.75 4.378,3.343 4.482,4.415c0.946,9.735 -4.904,17.251 -11.754,24.441c7.961,-13.703 9.819,-16.961 5.578,-30.133Z" style="fill:#a7501b;"/></g><g><circle cx="65.941" cy="56.299" r="22.181" style="fill:#fefffe;"/><path d="M83.817,59.365c-0.492,6.953 -6.296,12.448 -13.373,12.448c-7.4,0 -13.407,-6.007 -13.407,-13.406c0,-7.4 6.007,-13.407 13.407,-13.407c2.983,0 5.74,0.977 7.968,2.627c-0.005,0 -0.011,0 -0.016,0c-3.931,0 -7.122,3.191 -7.122,7.121c0,3.931 3.191,7.122 7.122,7.122c2.17,-0 4.114,-0.973 5.421,-2.505Zm-16.158,1.273c-1.538,0 -2.786,1.248 -2.786,2.786c0,1.537 1.248,2.785 2.786,2.785c1.537,-0 2.785,-1.248 2.785,-2.785c-0,-1.538 -1.248,-2.786 -2.785,-2.786Z" style="fill:#383349;"/></g><g><circle cx="234.059" cy="56.299" r="22.181" style="fill:#fefffe;"/><path d="M216.183,59.365c0.492,6.953 6.296,12.448 13.373,12.448c7.4,0 13.407,-6.007 13.407,-13.406c-0,-7.4 -6.007,-13.407 -13.407,-13.407c-2.983,0 -5.74,0.977 -7.968,2.627c0.005,0 0.011,0 0.016,0c3.931,0 7.122,3.191 7.122,7.121c-0,3.931 -3.191,7.122 -7.122,7.122c-2.17,-0 -4.114,-0.973 -5.421,-2.505Zm16.158,1.273c1.538,0 2.786,1.248 2.786,2.786c-0,1.537 -1.248,2.785 -2.786,2.785c-1.537,-0 -2.785,-1.248 -2.785,-2.785c0,-1.538 1.248,-2.786 2.785,-2.786Z" style="fill:#383349;"/></g><path d="M76.656,85.875c33.742,-34.212 110.739,-36.115 146.688,0c-48.896,-27.001 -97.792,-26.749 -146.688,0Zm49.973,-30.881c15.789,-10.044 31.578,-10.044 47.367,0c-15.789,-3.937 -31.578,-3.937 -47.367,0Zm-94.099,15.62c15.932,-1.681 29.197,0.667 36.653,11.794c-11.114,-5.435 -23.467,-9.183 -36.653,-11.794Zm235.564,0c-13.186,2.611 -25.538,6.359 -36.652,11.794c7.455,-11.127 20.72,-13.475 36.652,-11.794Z" style="fill:#315014;"/></g></svg>