<?xml version="1.0" encoding="UTF-8" standalone="no"?>
<!-- Created with Inkscape (http://www.inkscape.org/) -->

<svg
   width="36"
   height="36"
   viewBox="0 0 9.5250001 9.5249999"
   version="1.1"
   id="svg5"
   xml:space="preserve"
   inkscape:version="1.2 (dc2aedaf03, 2022-05-15)"
   sodipodi:docname="healthIcon.svg"
   xmlns:inkscape="http://www.inkscape.org/namespaces/inkscape"
   xmlns:sodipodi="http://sodipodi.sourceforge.net/DTD/sodipodi-0.dtd"
   xmlns="http://www.w3.org/2000/svg"
   xmlns:svg="http://www.w3.org/2000/svg"><sodipodi:namedview
     id="namedview7"
     pagecolor="#505050"
     bordercolor="#ffffff"
     borderopacity="1"
     inkscape:showpageshadow="0"
     inkscape:pageopacity="0"
     inkscape:pagecheckerboard="1"
     inkscape:deskcolor="#505050"
     inkscape:document-units="mm"
     showgrid="false"
     inkscape:zoom="4.6464848"
     inkscape:cx="29.592263"
     inkscape:cy="8.1782253"
     inkscape:window-width="1366"
     inkscape:window-height="705"
     inkscape:window-x="-8"
     inkscape:window-y="-8"
     inkscape:window-maximized="1"
     inkscape:current-layer="layer1" /><defs
     id="defs2"><inkscape:path-effect
       effect="fillet_chamfer"
       id="path-effect6380"
       is_visible="true"
       lpeversion="1"
       nodesatellites_param="F,0,0,1,0,0,0,1 @ F,0,0,1,0,0,0,1 @ F,0,0,1,0,0.2099429,0,1"
       unit="px"
       method="auto"
       mode="F"
       radius="0"
       chamfer_steps="1"
       flexible="false"
       use_knot_distance="true"
       apply_no_radius="true"
       apply_with_radius="true"
       only_selected="false"
       hide_knots="false" /></defs><g
     inkscape:label="Layer 1"
     inkscape:groupmode="layer"
     id="layer1"
     transform="translate(-144.13377,-114.75111)"><g
       id="g6400"
       transform="translate(-0.00184415,0.50685645)"><path
         id="path5589"
         style="fill:#562605;fill-opacity:1;fill-rule:evenodd;stroke:#562605;stroke-width:1.131;stroke-dasharray:none;stroke-opacity:1"
         class="UnoptimicedTransforms"
         inkscape:transform-center-x="1.0454408"
         inkscape:transform-center-y="-3.1378624"
         d="m 147.55941,115.48026 c -0.82168,-0.0239 -1.62284,0.45605 -1.98892,1.19186 -0.52332,0.98873 -0.3769,2.27084 0.3306,3.13286 0.76292,1.02372 1.77941,1.85398 2.92078,2.42268 0.13824,0.0126 0.45716,-0.236 0.65553,-0.33251 1.05072,-0.65146 2.00246,-1.51132 2.63488,-2.58246 0.5846,-1.09762 0.38348,-2.63813 -0.63942,-3.40886 -0.7517,-0.57104 -1.79559,-0.50102 -2.62619,-0.15175 -0.4091,-0.16286 -0.84493,-0.27117 -1.28726,-0.27182 z"
         transform="translate(0.0496,0.15276298)" /><path
         id="path4355"
         style="fill:#ff95ae;fill-opacity:1;fill-rule:evenodd;stroke:#ff39a8;stroke-width:0.431;stroke-dasharray:none;stroke-opacity:1"
         class="UnoptimicedTransforms"
         inkscape:transform-center-x="1.0454408"
         inkscape:transform-center-y="-3.1378624"
         d="m 147.55941,115.48026 c -0.82168,-0.0239 -1.62284,0.45605 -1.98892,1.19186 -0.52332,0.98873 -0.3769,2.27084 0.3306,3.13286 0.76292,1.02372 1.77941,1.85398 2.92078,2.42268 0.13824,0.0126 0.45716,-0.236 0.65553,-0.33251 1.05072,-0.65146 2.00246,-1.51132 2.63488,-2.58246 0.5846,-1.09762 0.38348,-2.63813 -0.63942,-3.40886 -0.7517,-0.57104 -1.79559,-0.50102 -2.62619,-0.15175 -0.4091,-0.16286 -0.84493,-0.27117 -1.28726,-0.27182 z"
         transform="translate(0.0496)" /><rect
         style="opacity:1;fill:#ff39a8;fill-opacity:1;stroke:none;stroke-width:0.623654;stroke-linecap:round;stroke-dasharray:none;stroke-opacity:1;paint-order:stroke fill markers;stop-color:#000000"
         id="rect5647"
         width="0.4407374"
         height="1.4528396"
         x="184.68843"
         y="29.718529"
         ry="0.2203687"
         transform="rotate(29.261969)" /><path
         id="rect6374"
         style="opacity:1;fill:#ff39a8;stroke-width:0.623654;stroke-linecap:round;paint-order:stroke fill markers;stop-color:#000000"
         transform="rotate(29.261969)"
         d="m 185.68498,29.353679 c 0.12209,0 0.21999,0.09828 0.22037,0.220369 l 0.004,1.3949 c 3.8e-4,0.122083 -0.0983,0.220369 -0.22037,0.220369 -0.12208,0 -0.21999,-0.09829 -0.22037,-0.220369 l -0.004,-1.3949 c -3.8e-4,-0.122085 0.0983,-0.220369 0.22037,-0.220369 z"
         sodipodi:nodetypes="sssssss" /><path
         id="rect6377"
         style="opacity:1;fill:#ff39a8;stroke-width:0.673245;stroke-linecap:round;paint-order:stroke fill markers;stop-color:#000000"
         d="m 147.14924,115.4377 c 0.76833,0.30083 2.88738,0.45737 3.49405,0.0305 -0.68232,0.14306 -1.29794,0.34674 -1.65204,0.78818 -0.0724,0.0902 -0.1527,0.084 -0.22177,-0.009 -0.31346,-0.42105 -1.00408,-0.59065 -1.62024,-0.80989 z"
         sodipodi:nodetypes="cccc"
         inkscape:path-effect="#path-effect6380"
         inkscape:original-d="m 147.14924,115.4377 c 0.76833,0.30083 2.88738,0.45737 3.49405,0.0305 -0.7658,0.16056 -1.44758,0.39749 -1.76991,0.96121 -0.23255,-0.55868 -1.02613,-0.74334 -1.72414,-0.99171 z" /></g></g></svg>
