<?xml version="1.0" encoding="UTF-8" standalone="no"?><!DOCTYPE svg PUBLIC "-//W3C//DTD SVG 1.1//EN" "http://www.w3.org/Graphics/SVG/1.1/DTD/svg11.dtd"><svg width="100%" height="100%" viewBox="0 0 300 300" version="1.1" xmlns="http://www.w3.org/2000/svg" xmlns:xlink="http://www.w3.org/1999/xlink" xml:space="preserve" xmlns:serif="http://www.serif.com/" style="fill-rule:evenodd;clip-rule:evenodd;stroke-linejoin:round;stroke-miterlimit:2;"><g id="_250" serif:id="250"><g id="_13" serif:id="13"><g><path d="M172.639,214.414c-0.977,-5.994 -13.435,-6.887 -20.156,-6.391c-12.997,0.959 -22.957,2.972 -38.562,2.972c-45.005,0 -81.543,-19.278 -81.543,-43.024c-0,-23.745 36.538,-43.024 81.543,-43.024c13.936,0 27.059,1.849 38.538,5.106c1.618,0.495 3.376,0.193 4.736,-0.814c1.361,-1.007 2.163,-2.599 2.163,-4.292c0.033,0 0.033,0 0.033,0c-0,-9.796 15.074,-17.749 33.641,-17.749c18.567,-0 33.641,7.953 33.641,17.749c0,9.797 -15.074,17.75 -33.641,17.75c-0,0 -0,0 -0.001,0c-2.006,0 -3.834,1.153 -4.698,2.964c-0.865,1.811 -0.612,3.957 0.649,5.517c4.179,5.151 6.482,10.831 6.482,16.793c0,0 0,0 0,0c0,4.102 1.718,8.015 4.736,10.792c3.019,2.777 7.062,4.162 11.149,3.821c2.901,-0.331 5.885,-0.462 8.927,-0.462c30.203,-0 54.724,12.937 54.724,28.873c0,15.936 -24.521,28.874 -54.724,28.874c-30.203,-0 -47.637,-9.517 -47.637,-25.452c0,-0.001 0.001,-0.002 0,-0.003Z" style="fill:#f9e594;"/><path d="M172.639,214.414c-0.977,-5.994 -13.435,-6.887 -20.156,-6.391c-12.997,0.959 -22.957,2.972 -38.562,2.972c-45.005,0 -81.543,-19.278 -81.543,-43.024c-0,-23.745 36.538,-43.024 81.543,-43.024c13.936,0 27.059,1.849 38.538,5.106c1.618,0.495 3.376,0.193 4.736,-0.814c1.361,-1.007 2.163,-2.599 2.163,-4.292c0.033,0 0.033,0 0.033,0c-0,-9.796 15.074,-17.749 33.641,-17.749c18.567,-0 33.641,7.953 33.641,17.749c0,9.797 -15.074,17.75 -33.641,17.75c-2.007,0 -3.835,1.153 -4.699,2.964c-0.865,1.811 -0.612,3.957 0.649,5.517c4.179,5.151 6.482,10.831 6.482,16.793c0,4.102 1.718,8.015 4.736,10.792c3.019,2.777 7.062,4.162 11.149,3.821c2.901,-0.331 5.885,-0.462 8.927,-0.462c30.203,-0 54.724,12.937 54.724,28.873c0,15.936 -24.521,28.874 -54.724,28.874c-30.203,-0 -47.637,-9.517 -47.637,-25.452c0,-0.001 0.001,-0.002 0,-0.003Zm1.237,1.824c0.036,0.221 0.037,0.671 0.037,0.671c-0,-0 0.004,-0.11 0.004,-0.165c0,6.832 6.56,8.052 13.534,11.8c7.787,4.185 15.894,10.378 30.352,10.378c17.362,-0 35.261,-6.552 44.805,-13.419c5.7,-4.101 11.3,-7.219 11.3,-12.689c-0,-5.471 -3.927,-13.462 -9.627,-17.563c-9.544,-6.868 -26.425,-11.746 -43.787,-11.746c-2.921,0 -7.605,0.561 -10.682,1.096c-0.03,0.006 -0.062,0.007 -0.093,0.01c-4.959,0.414 -7.32,-2.431 -10.982,-5.8c-3.663,-3.369 -6.402,-5.863 -6.402,-10.84c0,-5.269 -0.125,-11.36 -3.819,-15.912l-0.004,-0.005c-2.019,-2.498 -4.387,-4.843 -3.003,-7.741c1.384,-2.899 6.565,-2.708 9.777,-2.708c10.38,-0 17.359,-4.611 23.065,-8.717c3.142,-2.261 7.23,-4.925 7.23,-7.941c-0,-3.015 -4.088,-5.679 -7.23,-7.94c-5.706,-4.106 -15.012,-8.79 -25.392,-8.79c-10.38,0 -19.54,4.684 -25.246,8.79c-3.142,2.261 -6.797,4.322 -7.072,9.662c-0.141,2.73 -0.06,3.957 -1.585,5.085c-2.147,1.589 -4.699,0.835 -7.284,0.058c-11.212,-3.176 -24.982,-5.29 -38.588,-5.29c-26.243,-0 -48.811,8.206 -63.237,18.587c-8.954,6.443 -16.695,14.486 -16.695,23.08c-0,8.595 7.741,16.202 16.695,22.645c14.426,10.38 32.64,18.996 58.883,18.996c15.512,-0 30.503,-3.975 43.423,-4.927c5.18,-0.383 13.441,0.096 18.309,2.614c2.877,1.489 2.869,5.991 3.314,8.721Z" style="fill:#dfc86d;"/><g><path d="M188.76,158.077c0.446,0.973 -0.001,1.761 -1.405,2.074l-33.903,7.576l8.514,5.365c0.233,0.147 0.455,0.294 0.665,0.441l1.837,0l0.928,3.02c0.027,0.083 0.052,0.165 0.074,0.247c0.271,1.113 -0.409,1.993 -2.103,2.372l-69.729,15.58c-3.361,0.751 -9.445,-0.754 -13.579,-3.359l-39.055,-24.61c-2.737,-1.724 -3.937,-3.501 -3.46,-4.723c0.039,-0.087 0.082,-0.173 0.13,-0.257l1.262,-2.49l2.466,0.988l52.819,-11.802c-2.996,-1.891 -3.449,-3.868 -1.009,-4.413l50.678,-11.323c2.442,-0.546 6.864,0.548 9.869,2.441l32.578,20.529c0.041,0.026 0.082,0.051 0.122,0.077l0.85,-0.657l1.383,2.787c0.024,0.046 0.047,0.092 0.068,0.137Z" style="fill:#669e2c;"/><path d="M94.591,145.714c-2.938,-1.855 -3.382,-3.793 -0.99,-4.327l49.691,-11.103c2.395,-0.535 6.731,0.537 9.676,2.394l31.945,20.129c2.945,1.856 3.392,3.797 0.998,4.332l-33.244,7.428l8.349,5.261c4.053,2.554 4.668,5.225 1.373,5.961l-68.371,15.277c-3.295,0.736 -9.26,-0.74 -13.313,-3.294l-38.295,-24.131c-4.053,-2.553 -4.669,-5.225 -1.374,-5.961l53.555,-11.966Z" style="fill:#8bc350;"/><path d="M267.247,210.006c0.112,0.37 -0.099,0.665 -0.654,0.788l-14.606,3.264l2.331,-0.052l1.681,3.778c0.213,0.461 0.002,0.834 -0.662,0.983l-44.163,9.868c-1.154,0.257 -3.242,-0.259 -4.66,-1.153l-18.66,-11.758c-0.916,-0.577 -1.33,-1.172 -1.198,-1.59l0.936,-3.707l4.319,2.197l10.654,-2.381l-13.479,-8.493c-0.828,-0.522 -1.186,-1.06 -1.03,-1.426l0.886,-3.27l4.688,1.768l33.538,-7.494c1.006,-0.225 2.826,0.225 4.063,1.005l8.988,5.663l4.477,-1c1.061,-0.237 2.982,0.238 4.287,1.061l13.061,8.229l3.04,0l1.911,3.288c0.127,0.151 0.211,0.297 0.252,0.432Z" style="fill:#669e2c;"/><path d="M202.902,206.534l-12.952,-8.161c-1.188,-0.749 -1.369,-1.533 -0.403,-1.748l36.997,-8.267c0.966,-0.216 2.716,0.217 3.904,0.966l8.637,5.442l4.302,-0.961c1.019,-0.228 2.865,0.229 4.119,1.019l16.497,10.395c1.254,0.79 1.445,1.617 0.425,1.845l-14.952,3.341l3.674,2.315c1.363,0.859 1.57,1.757 0.462,2.005l-42.437,9.482c-1.109,0.247 -3.115,-0.249 -4.478,-1.108l-17.93,-11.298c-1.364,-0.859 -1.571,-1.758 -0.462,-2.005l14.597,-3.262Z" style="fill:#8bc350;"/><path d="M218.003,125.57c0.066,0.33 -0.146,0.59 -0.655,0.704l-26.004,5.81c-1.036,0.232 -2.913,-0.232 -4.188,-1.036l-16.768,-10.566c-0.724,-0.456 -1.099,-0.923 -1.099,-1.285c-0,-0.095 0.026,-0.183 0.079,-0.262l0.745,-2.476l2.27,1.605l23.577,-5.267c1.036,-0.232 2.913,0.232 4.188,1.035l15.055,9.488l2.812,-0.329l-0,2.585l-0.012,-0.006Z" style="fill:#669e2c;"/><path d="M200.437,111.357l16.497,10.395c1.254,0.79 1.445,1.617 0.425,1.845l-25.582,5.716c-1.02,0.228 -2.866,-0.229 -4.12,-1.019l-16.497,-10.395c-1.254,-0.791 -1.445,-1.617 -0.425,-1.845l25.582,-5.716c1.02,-0.228 2.866,0.229 4.12,1.019Z" style="fill:#8bc350;"/><path d="M184.065,132.857c0.029,0.147 -0.065,0.263 -0.291,0.313l-11.54,2.579c-0.46,0.102 -1.293,-0.104 -1.859,-0.46l-7.441,-4.69c-0.321,-0.202 -0.488,-0.409 -0.488,-0.57c0,-0.042 0.012,-0.081 0.035,-0.116l0.331,-1.74l1.007,0.713l10.463,-2.338c0.46,-0.103 1.293,0.103 1.859,0.46l6.682,4.21l1.247,-0.146l0,1.788l-0.005,-0.003Z" style="fill:#669e2c;"/><path d="M176.269,125.909l7.322,4.613c0.556,0.351 0.641,0.718 0.188,0.819l-11.353,2.537c-0.453,0.101 -1.272,-0.102 -1.829,-0.452l-7.321,-4.614c-0.556,-0.35 -0.641,-0.717 -0.188,-0.818l11.353,-2.537c0.453,-0.101 1.272,0.101 1.828,0.452Z" style="fill:#8bc350;"/></g></g><path d="M105.541,210.592c0.261,-0.002 0.52,0.02 0.779,0.056c-0.261,-0.003 -0.521,-0.018 -0.779,-0.056Zm0,-0c-0.05,0 -0.1,0.001 -0.15,0.004c-0.233,0.01 -0.424,0.117 -0.656,0.145c-0.854,0.104 -1.711,0.049 -2.571,0.11c-0.6,0.179 -1.099,0.428 -1.722,0.547c-0.85,0.162 -1.731,0.119 -2.602,0.174c-2.255,0.143 -4.515,0.22 -6.723,-0.001c-4.334,-0.47 -8.636,-1.179 -12.839,-2.31c-2.799,-0.753 -5.544,-1.704 -8.247,-2.758c-0.607,-0.237 -1.218,-0.465 -1.808,-0.742c-2.375,-1.119 -4.516,-2.584 -6.818,-3.846c-2.834,-1.553 -5.74,-2.967 -8.526,-4.583c-0.372,-0.216 -0.795,-0.362 -1.115,-0.649c-0.254,-0.227 -0.356,-0.477 -0.558,-0.752c-0.097,-0.055 -0.13,-0.179 -0.074,-0.275c0.056,-0.097 0.179,-0.13 0.276,-0.074c0.303,0.033 0.54,0.007 0.835,0.089c0.165,0.045 0.312,0.139 0.465,0.216c2.734,1.376 5.389,2.937 8.22,4.131c0.71,0.299 1.431,0.552 2.158,0.806c2.263,0.791 4.563,1.34 6.848,2.063c1.501,0.475 2.974,1.031 4.47,1.521c1.68,0.55 3.37,1.066 5.064,1.572c3.957,1.18 7.946,2.239 12.022,2.947c2.758,0.507 5.67,0.19 8.485,0.554c0.778,0.1 1.451,0.346 2.198,0.547c0.869,0.08 1.741,0.101 2.587,0.31c0.227,0.057 0.403,0.188 0.633,0.229c0.049,0.009 0.098,0.018 0.148,0.025Zm0.779,0.056c0.98,0.009 1.975,-0.167 2.948,-0.032c0.334,0.046 0.628,0.175 0.954,0.262c0.015,0.001 0.027,0.013 0.026,0.029c-0,0.015 -0.013,0.027 -0.029,0.026c-0.333,0.058 -0.641,0.154 -0.979,0.161c-0.984,0.019 -1.947,-0.312 -2.92,-0.446Zm-18.065,6.654c-0.198,-0.018 -0.345,-0.193 -0.328,-0.391c0.018,-0.198 0.193,-0.345 0.391,-0.327c3.232,0.236 6.439,0.267 9.641,0.186c4.828,-0.122 9.64,-0.492 14.502,-0.736c0.287,-0.104 0.527,-0.209 0.825,-0.268c1.09,-0.216 2.203,-0.112 3.31,-0.045c3.003,0.182 5.972,0.855 8.985,0.747l6.707,-0.556c3.044,-0.114 6.071,-0.315 9.117,-0.153c0.785,0.042 1.514,0.171 2.295,0.258c0.114,-0.011 0.215,0.073 0.226,0.187c0.01,0.115 -0.074,0.216 -0.188,0.227c-0.751,0.229 -1.446,0.488 -2.211,0.671c-2.943,0.703 -5.932,1.051 -8.889,1.67c-1.6,0.277 -3.185,0.721 -4.8,0.954c-0.755,0.11 -1.517,0.157 -2.279,0.163c-1.397,-0.045 -2.779,-0.213 -4.153,-0.456c-1.219,-0.215 -2.434,-0.451 -3.642,-0.722c-1.402,-0.315 -2.79,-0.567 -4.198,-0.851c-0.369,-0.074 -0.687,-0.203 -1.056,-0.286c-4.875,0.069 -9.705,0.253 -14.542,0.214c-3.231,-0.026 -6.463,-0.148 -9.713,-0.486Zm103.175,18.723c-0.093,-0.037 -0.138,-0.142 -0.101,-0.234c0.037,-0.092 0.142,-0.137 0.234,-0.1c2.087,0.688 4.289,1.121 6.536,1.449c3.371,0.492 6.808,0.713 10.045,0.963c2.446,0.27 4.887,0.597 7.337,0.819c1.602,0.146 3.206,0.245 4.818,0.252c1.878,-0.061 3.722,-0.18 5.544,-0.452c3.036,-0.454 5.908,-1.379 8.909,-2.073c1.274,-0.294 2.571,-0.502 3.864,-0.769c1.976,-0.262 3.955,-0.61 5.947,-0.91c1.325,-0.2 2.633,-0.327 3.946,-0.566c0.822,-0.149 1.624,-0.304 2.433,-0.496c2.481,-0.756 5.3,-1.569 7.911,-2.802c2.011,-0.948 3.578,-2.545 5.404,-3.605c0.631,-0.365 1.137,-0.329 1.799,-0.615c0.009,-0.012 0.027,-0.014 0.039,-0.005c0.012,0.01 0.014,0.027 0.005,0.039c-0.103,0.68 -0.063,1.153 -0.394,1.763c-0.592,1.091 -1.791,1.744 -2.817,2.515c-3.294,2.473 -7.383,4.231 -10.864,5.687c-1.982,1.001 -3.99,1.896 -6.115,2.606c-2.075,0.692 -4.214,1.15 -6.319,1.653c-1.269,0.213 -2.523,0.474 -3.79,0.61c-1.298,0.139 -2.581,0.153 -3.879,0.202c-2.737,0.105 -5.426,0.056 -8.184,-0.024c-1.159,-0.033 -2.323,-0.022 -3.496,-0.087c-1.686,-0.065 -3.361,-0.225 -5.031,-0.436c-2.457,-0.312 -4.901,-0.73 -7.352,-1.091c-3.229,-0.586 -6.67,-1.13 -9.999,-2.008c-2.238,-0.59 -4.406,-1.327 -6.43,-2.285Zm34.925,-53.665c-0.151,-0.034 -0.247,-0.185 -0.213,-0.336c0.034,-0.152 0.185,-0.247 0.336,-0.213c1.74,0.329 3.393,0.487 5.003,0.467c0.306,-0.004 0.609,-0.003 0.909,-0.046c1.302,-0.186 2.384,-0.722 3.657,-0.915c1.036,-0.157 2.084,-0.117 3.136,-0.099c1.882,0.033 3.781,0.285 5.759,0.8c1.312,0.422 2.554,0.898 3.757,1.447c1.772,0.808 3.458,1.739 5.211,2.727c3.033,1.757 5.998,3.558 8.822,5.63c0.063,0.046 0.14,0.076 0.187,0.139c0.289,0.387 0.233,0.632 0.393,1.088c-0.479,0.029 -0.678,0.183 -1.146,0.08c-0.075,-0.016 -0.133,-0.073 -0.2,-0.11c-3.005,-1.663 -6.092,-3.091 -9.251,-4.446c-1.764,-0.78 -3.464,-1.497 -5.224,-2.121c-1.129,-0.401 -2.28,-0.756 -3.495,-1.045c-2.01,-0.608 -3.948,-0.763 -5.868,-0.947c-0.899,-0.086 -1.784,-0.162 -2.676,-0.316c-1.257,-0.218 -2.359,-0.695 -3.649,-0.924c-1.739,-0.308 -3.562,-0.367 -5.448,-0.86Zm5.151,66.02c-0.193,-0.011 -0.34,-0.178 -0.329,-0.371c0.012,-0.193 0.178,-0.34 0.371,-0.328c2.361,0.107 4.902,0.275 7.397,0.201c1.656,-0.05 3.288,-0.218 4.831,-0.534c0.698,-0.194 1.316,-0.471 1.916,-0.795c0.964,-0.522 1.825,-1.161 2.8,-1.768l3.884,-1.903c2.507,-1.058 5.123,-1.966 7.695,-2.904c1.056,-0.385 2.112,-0.726 3.136,-1.178c0.845,-0.374 1.673,-0.751 2.469,-1.25c1.623,-1.184 2.966,-2.837 4.356,-4.346c0.109,-0.119 0.202,-0.256 0.334,-0.346c0.401,-0.273 0.733,-0.308 1.175,-0.481c0.025,-0.03 0.07,-0.034 0.1,-0.008c0.03,0.025 0.034,0.07 0.008,0.1c-0.098,0.46 -0.062,0.789 -0.246,1.232c-0.06,0.147 -0.173,0.265 -0.265,0.395c-1.257,1.785 -2.625,3.588 -4.239,4.99c-1.511,1.479 -3.186,2.684 -5.063,3.599c-2.634,1.282 -5.559,1.969 -8.25,3.088l-4.052,1.257c-1.119,0.361 -2.139,0.755 -3.22,1.059c-0.751,0.211 -1.504,0.396 -2.33,0.456c-1.617,0.23 -3.315,0.276 -5.032,0.251c-2.516,-0.037 -5.071,-0.239 -7.446,-0.416Zm-198.616,-75.313c0.022,0.066 -0.014,0.138 -0.08,0.16c-0.066,0.023 -0.138,-0.013 -0.16,-0.079c-0.265,-0.515 -0.507,-1.018 -0.679,-1.565c-0.395,-1.254 -0.506,-2.576 -0.643,-3.888c-0.07,-0.593 -0.104,-1.193 -0.2,-1.788c-0.239,-1.484 -0.617,-2.883 -0.615,-4.38c0.001,-0.957 0.199,-1.891 0.436,-2.832c0.963,-2.725 2.448,-5.21 4.384,-7.357c1.052,-1.167 2.204,-2.259 3.472,-3.209c0.843,-0.631 1.755,-1.101 2.618,-1.693c0.91,-0.623 1.671,-1.456 2.63,-1.946c0.405,-0.206 0.786,-0.262 1.211,-0.402c0.167,-0.128 0.405,-0.096 0.533,0.07c0.128,0.166 0.097,0.405 -0.07,0.533c-0.243,0.373 -0.39,0.727 -0.688,1.066c-0.699,0.794 -1.663,1.339 -2.428,2.106c-0.709,0.713 -1.266,1.528 -1.934,2.289c-0.963,1.097 -1.926,2.18 -2.825,3.315c-1.54,1.945 -2.917,3.991 -3.723,6.336c-0.239,0.551 -0.409,1.115 -0.584,1.681c-0.289,0.939 -0.629,1.818 -0.785,2.792c-0.178,1.12 -0.222,2.237 -0.294,3.358c0.003,0.729 0.034,1.454 0.065,2.181c0.047,1.096 0.111,2.173 0.359,3.252Zm-5.953,-15.181c0.077,-0.161 0.269,-0.229 0.43,-0.153c0.161,0.077 0.229,0.27 0.153,0.431l-0.662,2.727c-0.037,0.592 -0.044,1.205 0.093,1.797c0.159,0.68 0.447,1.263 0.625,1.924c0.172,0.351 0.361,0.583 0.456,0.962c0.116,0.468 0.071,0.961 0.059,1.442c-0.044,1.828 -0.334,3.613 -0.319,5.46c-0.023,0.707 0.053,1.399 0.006,2.107c-0.053,0.799 -0.232,1.454 -0.374,2.24c0,0.003 -0.001,0.005 -0.003,0.005c-0.002,0 -0.004,-0.001 -0.005,-0.003c-0.368,-0.709 -0.767,-1.262 -1.074,-2.001c-0.288,-0.692 -0.413,-1.42 -0.583,-2.148c-0.332,-1.624 -0.612,-3.218 -0.685,-4.857c-0.033,-0.737 -0.121,-1.493 0.038,-2.216c0.082,-0.37 0.274,-0.595 0.425,-0.944c0.125,-0.499 0.278,-0.95 0.303,-1.474c0.039,-0.802 -0.11,-1.602 -0.019,-2.379c0.062,-0.638 0.203,-1.282 0.482,-1.867c0.182,-0.38 0.424,-0.712 0.654,-1.053Zm169.909,-14.94c-0.125,-0.015 -0.214,-0.128 -0.199,-0.253c0.015,-0.125 0.128,-0.214 0.253,-0.199c0.313,-0.06 0.573,-0.174 0.896,-0.211c1.127,-0.13 2.315,-0.071 3.481,-0.276c1.487,-0.26 2.944,-0.687 4.266,-1.123c1.494,-0.564 2.967,-1.149 4.447,-1.759c2.207,-0.909 4.371,-1.866 6.512,-2.9c1.219,-0.538 2.443,-1.064 3.614,-1.685c0.691,-0.367 1.364,-0.767 1.979,-1.27c1.292,-1.023 2.141,-2.473 2.799,-3.99c0.466,-1.073 0.979,-2.12 1.108,-3.285c0.132,-1.19 -0.123,-2.354 -0.302,-3.546c-0.113,-0.759 0.086,-1.428 -0.213,-2.154c-0.067,-0.162 -0.187,-0.295 -0.288,-0.44c-0.052,-0.068 -0.039,-0.167 0.029,-0.219c0.069,-0.052 0.167,-0.039 0.22,0.029c0.155,0.17 0.277,0.364 0.443,0.52c0.64,0.603 1.296,0.928 1.779,1.639c0.111,0.165 0.166,0.359 0.24,0.543c0.346,0.864 0.485,1.784 0.655,2.696c0.177,0.946 0.327,1.862 0.321,2.825c-0.005,0.971 -0.161,1.929 -0.448,2.855c-0.682,2.204 -2.144,4.112 -3.94,5.547c-0.846,0.655 -1.748,1.202 -2.706,1.642c-1.301,0.597 -2.682,1.018 -4.044,1.483c-1.555,0.477 -3.109,0.927 -4.69,1.333c-2.357,0.605 -4.714,1.125 -7.093,1.602c-1.683,0.42 -3.568,0.776 -5.437,0.92c-1.006,0.077 -2.035,0.269 -2.969,0.022c-0.276,-0.073 -0.465,-0.214 -0.713,-0.346Z" style="fill:#fff;"/><g><ellipse cx="222.889" cy="205.1" rx="10.026" ry="5.29" style="fill:#669e2c;"/><g><path d="M216.376,204.335c-0.283,-19.163 2.96,-36.242 15.193,-48.009l4.905,2.772c-6.56,13.036 -9.211,27.781 -6.869,44.711c0.049,0.172 0.075,0.347 0.075,0.526c-0,1.937 -2.981,3.51 -6.652,3.51c-3.671,-0 -6.652,-1.573 -6.652,-3.51Z" style="fill:#906344;"/><path d="M228.776,190.714c-0.006,0.409 -0.009,0.819 -0.009,1.231c-1.273,0.041 -2.584,-0.015 -3.838,-0.158c-2.739,-0.311 -5.488,-1.03 -7.917,-2.333c0.051,-0.461 0.106,-0.919 0.165,-1.376c0.825,0.551 1.71,1.023 2.66,1.395c1.733,0.678 3.66,0.966 5.501,1.145c0.808,0.079 1.606,0.081 2.417,0.085c0.342,0.002 0.684,0.015 1.021,0.011Z" style="fill:#b58767;"/><path d="M231.058,173.476c-0.051,0.196 -0.1,0.393 -0.149,0.59c-0.791,-0.209 -1.567,-0.476 -2.262,-0.845c-1.277,-0.679 -2.482,-1.425 -3.568,-2.379c-0.877,-0.771 -1.599,-1.657 -2.225,-2.61c0.179,-0.357 0.363,-0.712 0.55,-1.064c1.194,1.951 2.789,3.633 4.827,4.876c0.844,0.514 1.809,1.187 2.827,1.432Z" style="fill:#b58767;"/><path d="M233.561,165.664c-0.144,0.375 -0.285,0.751 -0.423,1.128c-0.39,-0.105 -0.775,-0.228 -1.153,-0.367c-2.313,-0.85 -4.169,-2.368 -5.447,-4.299c0.241,-0.334 0.487,-0.666 0.739,-0.995c0.932,1.193 2.089,2.185 3.357,3.049c0.833,0.567 1.936,1.248 2.927,1.484Z" style="fill:#b58767;"/><path d="M229.605,180.613c-0.033,0.213 -0.064,0.427 -0.094,0.642c-0.606,0.095 -1.245,0.091 -1.723,0.099c-0.262,0.005 -1.109,0.012 -1.464,-0.007c-2.597,-0.143 -5.333,-1.226 -7.247,-3.061c0.091,-0.338 0.185,-0.674 0.282,-1.008c1.799,1.918 4.437,3.103 7.062,3.241c0.86,0.045 2.113,0.262 3.184,0.094Z" style="fill:#b58767;"/><path d="M229.125,199.641c0.035,0.386 0.073,0.773 0.114,1.161c-1.419,0.465 -2.852,0.86 -4.348,1.032c-2.338,0.267 -4.994,0.093 -7.25,-0.627c-0.428,-0.137 -0.854,-0.325 -1.274,-0.537c0.001,-0.161 0.003,-0.323 0.006,-0.484c3.11,1.219 6.627,1.131 9.842,0.381c0.878,-0.205 1.697,-0.47 2.54,-0.789c0.118,-0.044 0.243,-0.089 0.37,-0.137Z" style="fill:#b58767;"/><path d="M222.287,169.405c2.266,-4.849 5.297,-9.246 9.282,-13.079l4.905,2.772c-2.456,4.88 -4.364,10 -5.667,15.384c-3.829,-0.288 -6.86,-1.906 -8.52,-5.077Z" style="fill:#6b4124;fill-opacity:0.5;"/></g><g><g><path d="M251.968,167.603c-1.579,-7.567 -6.763,-13.735 -15.396,-14.61c-2.803,4.286 -3.268,7.994 -2.413,11.309c3.298,-2.836 6.975,-2.906 10.862,-1.453c-3.913,0.579 -6.393,3.243 -7.727,7.573c1.614,2.155 3.591,4.158 5.499,6.085c1.943,-0.842 3.924,-1.121 5.95,-0.711c-1.305,0.661 -2.414,1.835 -3.397,3.333c1.862,1.989 3.424,3.933 4.172,5.925c2.014,-3.959 2.995,-8.327 2.965,-12.533c-1.613,-2.355 -3.498,-3.757 -5.558,-4.551c1.83,-1.044 3.511,-1.166 5.043,-0.367Z" style="fill:#bcf146;"/><path d="M248.743,175.796c-1.305,0.661 -2.414,1.835 -3.397,3.333c1.862,1.989 3.424,3.933 4.172,5.925c0.023,-2.749 -0.232,-5.952 -0.775,-9.258Zm0,0c-0.723,-4.41 -1.958,-9.004 -3.722,-12.947c-3.913,0.579 -6.393,3.243 -7.727,7.573c1.614,2.155 3.591,4.158 5.499,6.085c1.943,-0.842 3.924,-1.121 5.95,-0.711Zm-3.722,-12.947c-2.074,-4.636 -4.88,-8.373 -8.449,-9.856c-2.803,4.286 -3.268,7.994 -2.413,11.309c3.298,-2.836 6.975,-2.906 10.862,-1.453Z" style="fill:#a9de35;"/></g><g><path d="M222.557,164.572c-4.685,1.18 -10.326,2.827 -16.577,6.609c0.02,-2.098 0.262,-4.073 0.69,-5.915l2.804,0.041l-2.449,-1.396c0.538,-1.838 1.267,-3.53 2.149,-5.065c2.059,0.208 3.938,0.625 5.323,1.618c-0.596,-2.236 -2.325,-3.153 -3.989,-3.663c6.405,-8.712 18.203,-10.969 26.064,-3.808c-0.2,7.623 -4.197,9.128 -10.701,10.76c-1.829,-2.44 -3.941,-4.653 -6.24,-6.716c1.36,2.393 2.529,4.845 2.926,7.535Z" style="fill:#85b41c;"/><path d="M219.631,157.037c1.36,2.393 2.529,4.845 2.926,7.535c-4.685,1.18 -10.326,2.827 -16.577,6.609c2.169,-5.784 7.717,-10.783 13.651,-14.144Zm6.24,6.716c-1.829,-2.44 -3.941,-4.653 -6.24,-6.716c6.489,-3.677 13.441,-5.395 16.941,-4.044c-0.2,7.623 -4.197,9.128 -10.701,10.76Z" style="fill:#7ca916;"/></g><g><path d="M224.114,145.136c-0.293,-2.609 0.574,-5.218 2.267,-7.827c0.882,1.413 1.935,2.602 3.445,3.19c2.996,-1.081 6.78,-0.628 10.826,2.124c0.627,0.425 0.822,1.223 0.709,2.21c-2.053,-0.92 -4.156,-0.982 -6.303,-0.31c2.106,-0.164 4.045,0.501 5.742,2.379c-0.859,2.169 -2.535,4.6 -4.228,6.091c-5.573,-0.828 -10.334,-2.928 -11.796,-5.214c1.992,-3.241 4.408,-5.448 7.238,-6.641c-3.168,0.428 -6.095,1.263 -7.9,3.998Z" style="fill:#8bae3d;"/><path d="M232.014,141.138c3.198,2.322 7.084,9.63 4.558,11.855c-5.573,-0.828 -10.334,-2.928 -11.796,-5.214c1.992,-3.241 4.408,-5.448 7.238,-6.641Zm-7.9,3.998c-0.293,-2.609 0.574,-5.218 2.267,-7.827c0.882,1.413 1.935,2.602 3.445,3.19c0.607,-0.219 1.375,0.049 2.188,0.639c-3.168,0.428 -6.095,1.263 -7.9,3.998Z" style="fill:#749230;"/></g><g><path d="M233.74,145.358c1.328,1.718 2.302,4.136 2.832,7.635c-7.986,2.443 -14.039,1.211 -18.326,-2.119l4.454,-5.87l-6.786,3.666c-2.783,-3.171 -4.528,-7.412 -5.311,-11.993c7.86,4.333 15.384,3.312 20.379,6.258l-1.3,4.633l4.058,-2.21Z" style="fill:#accf5e;"/><path d="M222.7,145.004c2.419,0.887 4.771,1.565 6.982,2.564c2.514,1.136 4.847,2.686 6.89,5.425c-7.986,2.443 -14.039,1.211 -18.326,-2.119l4.454,-5.87Zm-0,0l-6.786,3.666c-2.783,-3.171 -4.528,-7.412 -5.311,-11.993c3.999,4.872 8.138,6.878 12.097,8.327Z" style="fill:#9dc73f;"/></g><g><path d="M255.528,155.581c2.058,1.861 4.129,3.799 6.226,5.385c-2.238,0.866 -4.393,1.5 -6.453,1.865l-2.063,-3.958l0.241,4.212c-1.278,0.127 -2.515,0.14 -3.708,0.029l0.502,-6.202l-3.22,5.708c-4.217,-1.171 -7.772,-4.207 -10.481,-9.627c2.936,-3.674 5.816,-4.651 8.676,-4.089l-0.487,4.32l2.952,-3.48c2.124,1.007 4.244,2.684 6.374,4.552l-2.298,3.607l3.739,-2.322Z" style="fill:#aeda4d;"/><path d="M247.053,162.62c-4.217,-1.171 -7.772,-4.207 -10.481,-9.627c4.312,-3.147 8.713,0.564 13.701,3.919l-3.22,5.708Zm3.22,-5.708c3.484,2.345 7.255,4.516 11.481,4.054c-2.238,0.866 -4.393,1.5 -6.453,1.865l-2.063,-3.958l0.241,4.212c-1.278,0.127 -2.515,0.14 -3.708,0.029l0.502,-6.202Z" style="fill:#a4cc4c;"/></g><g><path d="M245.583,141.138c5.39,-0.854 11.235,4.32 13.636,8.29c-1.26,-0.37 -2.399,-0.493 -3.468,-0.445l-2.706,-3.462l1.175,3.593l-3.983,-4.11l2.332,4.603c-2.532,0.835 -4.971,2.289 -8.221,3.075l-2.702,-5.004l0,5.458c-1.502,0.143 -3.174,0.123 -5.074,-0.143c1.6,-6.322 4.033,-9.677 6.743,-11.1l2.785,3.73l-0.517,-4.485Z" style="fill:#accf5e;"/><path d="M241.646,147.678l0,5.458c-1.502,0.143 -3.174,0.123 -5.074,-0.143c1.644,-2.351 3.358,-4.08 5.074,-5.315Zm0,-0c2.97,-2.138 5.95,-2.799 8.6,-2.654l2.323,4.583c-2.532,0.835 -4.971,2.289 -8.221,3.075l-2.702,-5.004Zm8.61,-2.654c4.47,0.248 8.001,2.788 8.963,4.404c-1.26,-0.37 -2.399,-0.493 -3.468,-0.445l-2.706,-3.462l1.175,3.593l-3.964,-4.09Z" style="fill:#9dc73f;"/></g><g><path d="M235.577,171.715c-1.678,2.563 -4.098,4.949 -7.302,7.146c-0.688,-2.515 -1.193,-4.866 -1.507,-7.045l3.421,-0.7l-3.61,-0.79c-0.145,-1.347 -0.211,-2.623 -0.196,-3.825l5.068,-0.574l-4.95,-1.537c0.362,-3.522 1.549,-6.301 3.626,-8.277l3.25,2.623l-2.035,-3.617c1.422,-0.998 3.161,-1.711 5.23,-2.126c2.359,5.928 2.572,11.341 0.398,16.184l-5.997,-1.488l4.604,4.026Z" style="fill:#accf5e;"/><path d="M230.973,167.689l4.604,4.026c-1.678,2.563 -4.098,4.949 -7.302,7.146c1.089,-3.996 1.913,-7.763 2.698,-11.172Zm5.997,1.488l-5.997,-1.488c1.493,-6.489 2.842,-11.683 5.599,-14.696c2.359,5.928 2.572,11.341 0.398,16.184Z" style="fill:#9dc73f;"/></g></g></g><g><ellipse cx="193.032" cy="119.621" rx="10.026" ry="5.29" style="fill:#669e2c;"/><g><path d="M199.545,118.856c0.283,-19.163 -2.96,-36.242 -15.193,-48.009l-4.905,2.773c6.56,13.035 9.211,27.781 6.869,44.711c-0.049,0.171 -0.075,0.347 -0.075,0.525c0,1.937 2.981,3.51 6.652,3.51c3.671,-0 6.652,-1.573 6.652,-3.51Z" style="fill:#906344;"/><path d="M187.145,105.235c0.006,0.409 0.009,0.819 0.009,1.231c1.273,0.042 2.584,-0.015 3.838,-0.157c2.739,-0.311 5.488,-1.03 7.917,-2.333c-0.051,-0.461 -0.106,-0.92 -0.165,-1.377c-0.825,0.552 -1.71,1.024 -2.66,1.395c-1.733,0.678 -3.66,0.966 -5.501,1.146c-0.808,0.079 -1.606,0.08 -2.417,0.084c-0.342,0.002 -0.684,0.015 -1.021,0.011Z" style="fill:#b58767;"/><path d="M184.863,87.997c0.051,0.197 0.1,0.393 0.149,0.59c0.791,-0.208 1.567,-0.476 2.262,-0.845c1.277,-0.678 2.482,-1.424 3.568,-2.379c0.877,-0.771 1.599,-1.657 2.225,-2.609c-0.179,-0.358 -0.363,-0.712 -0.55,-1.064c-1.194,1.95 -2.788,3.632 -4.827,4.875c-0.844,0.515 -1.809,1.187 -2.827,1.432Z" style="fill:#b58767;"/><path d="M182.36,80.186c0.144,0.374 0.285,0.75 0.423,1.127c0.39,-0.105 0.775,-0.228 1.154,-0.367c2.312,-0.85 4.168,-2.367 5.446,-4.298c-0.241,-0.335 -0.487,-0.667 -0.739,-0.995c-0.932,1.192 -2.089,2.184 -3.357,3.048c-0.833,0.567 -1.936,1.248 -2.927,1.485Z" style="fill:#b58767;"/><path d="M186.316,95.134c0.033,0.214 0.064,0.428 0.095,0.642c0.605,0.095 1.244,0.091 1.722,0.1c0.262,0.004 1.109,0.011 1.464,-0.008c2.597,-0.142 5.333,-1.226 7.247,-3.06c-0.091,-0.338 -0.185,-0.674 -0.282,-1.009c-1.799,1.919 -4.437,3.104 -7.062,3.241c-0.86,0.046 -2.113,0.263 -3.184,0.094Z" style="fill:#b58767;"/><path d="M186.796,114.162c-0.035,0.386 -0.073,0.773 -0.114,1.161c1.419,0.466 2.853,0.861 4.348,1.032c2.338,0.268 4.994,0.093 7.25,-0.627c0.428,-0.136 0.854,-0.324 1.274,-0.536c-0.001,-0.162 -0.003,-0.323 -0.006,-0.484c-3.11,1.219 -6.627,1.13 -9.842,0.38c-0.878,-0.204 -1.697,-0.47 -2.54,-0.789c-0.118,-0.044 -0.243,-0.089 -0.37,-0.137Z" style="fill:#b58767;"/><path d="M193.634,83.926c-2.266,-4.849 -5.297,-9.246 -9.282,-13.079l-4.905,2.773c2.456,4.88 4.364,9.999 5.667,15.384c3.829,-0.288 6.86,-1.906 8.52,-5.078Z" style="fill:#6b4124;fill-opacity:0.5;"/></g><g><g><path d="M163.953,82.124c1.579,-7.567 6.763,-13.735 15.396,-14.609c2.803,4.285 3.268,7.993 2.413,11.309c-3.298,-2.837 -6.975,-2.907 -10.862,-1.454c3.913,0.579 6.393,3.243 7.727,7.573c-1.614,2.156 -3.591,4.158 -5.499,6.085c-1.943,-0.841 -3.924,-1.121 -5.95,-0.71c1.305,0.661 2.414,1.835 3.397,3.333c-1.862,1.989 -3.424,3.933 -4.172,5.924c-2.014,-3.959 -2.995,-8.326 -2.965,-12.532c1.613,-2.355 3.499,-3.758 5.558,-4.552c-1.83,-1.043 -3.51,-1.166 -5.043,-0.367Z" style="fill:#bcf146;"/><path d="M167.178,90.318c1.305,0.661 2.414,1.835 3.397,3.333c-1.862,1.989 -3.424,3.933 -4.172,5.924c-0.023,-2.749 0.232,-5.952 0.775,-9.257Zm-0,-0c0.723,-4.411 1.958,-9.005 3.722,-12.948c3.913,0.579 6.393,3.243 7.727,7.573c-1.614,2.156 -3.591,4.158 -5.499,6.085c-1.943,-0.841 -3.924,-1.121 -5.95,-0.71Zm3.722,-12.948c2.074,-4.636 4.88,-8.373 8.449,-9.855c2.803,4.285 3.268,7.993 2.413,11.309c-3.298,-2.837 -6.975,-2.907 -10.862,-1.454Z" style="fill:#a9de35;"/></g><g><path d="M193.364,79.093c4.686,1.18 10.326,2.827 16.577,6.61c-0.02,-2.098 -0.262,-4.074 -0.69,-5.916l-2.804,0.041l2.449,-1.396c-0.538,-1.837 -1.266,-3.53 -2.149,-5.064c-2.059,0.207 -3.937,0.625 -5.323,1.618c0.596,-2.237 2.325,-3.154 3.989,-3.664c-6.405,-8.712 -18.203,-10.969 -26.064,-3.807c0.2,7.623 4.197,9.128 10.702,10.759c1.828,-2.44 3.94,-4.652 6.239,-6.716c-1.36,2.393 -2.528,4.846 -2.926,7.535Z" style="fill:#85b41c;"/><path d="M196.29,71.558c-1.36,2.393 -2.528,4.846 -2.926,7.535c4.686,1.18 10.326,2.827 16.577,6.61c-2.169,-5.785 -7.717,-10.783 -13.651,-14.145Zm-6.239,6.716c1.828,-2.44 3.94,-4.652 6.239,-6.716c-6.489,-3.676 -13.441,-5.395 -16.941,-4.043c0.2,7.623 4.197,9.128 10.702,10.759Z" style="fill:#7ca916;"/></g><g><path d="M191.807,59.658c0.293,-2.61 -0.574,-5.219 -2.267,-7.828c-0.882,1.413 -1.935,2.602 -3.445,3.19c-2.996,-1.081 -6.78,-0.627 -10.826,2.124c-0.626,0.426 -0.822,1.223 -0.709,2.211c2.053,-0.921 4.156,-0.982 6.303,-0.311c-2.106,-0.164 -4.045,0.501 -5.742,2.38c0.859,2.169 2.535,4.6 4.228,6.091c5.573,-0.829 10.334,-2.929 11.796,-5.214c-1.992,-3.242 -4.407,-5.449 -7.238,-6.641c3.168,0.427 6.095,1.262 7.9,3.998Z" style="fill:#8bae3d;"/><path d="M183.907,55.66c-3.198,2.322 -7.084,9.629 -4.558,11.855c5.573,-0.829 10.334,-2.929 11.796,-5.214c-1.992,-3.242 -4.407,-5.449 -7.238,-6.641Zm7.9,3.998c0.293,-2.61 -0.574,-5.219 -2.267,-7.828c-0.882,1.413 -1.935,2.602 -3.445,3.19c-0.607,-0.219 -1.375,0.049 -2.188,0.64c3.168,0.427 6.095,1.262 7.9,3.998Z" style="fill:#749230;"/></g><g><path d="M182.181,59.879c-1.328,1.718 -2.302,4.136 -2.832,7.636c7.986,2.442 14.039,1.21 18.326,-2.119l-4.453,-5.87l6.785,3.665c2.783,-3.171 4.528,-7.412 5.311,-11.993c-7.86,4.334 -15.384,3.312 -20.379,6.258l1.3,4.633l-4.058,-2.21Z" style="fill:#accf5e;"/><path d="M193.222,59.526c-2.42,0.886 -4.772,1.564 -6.983,2.563c-2.514,1.136 -4.847,2.686 -6.89,5.426c7.986,2.442 14.039,1.21 18.326,-2.119l-4.453,-5.87Zm-0,-0l6.785,3.665c2.783,-3.171 4.528,-7.412 5.311,-11.993c-3.999,4.873 -8.138,6.878 -12.096,8.328Z" style="fill:#9dc73f;"/></g><g><path d="M160.394,70.103c-2.059,1.86 -4.13,3.798 -6.227,5.384c2.238,0.867 4.393,1.501 6.453,1.865l2.063,-3.958l-0.24,4.212c1.277,0.128 2.514,0.141 3.707,0.03l-0.502,-6.202l3.22,5.708c4.217,-1.172 7.772,-4.208 10.481,-9.627c-2.936,-3.675 -5.816,-4.652 -8.676,-4.09l0.487,4.32l-2.952,-3.48c-2.124,1.007 -4.244,2.684 -6.374,4.552l2.298,3.607l-3.738,-2.321Z" style="fill:#aeda4d;"/><path d="M168.868,77.142c4.217,-1.172 7.772,-4.208 10.481,-9.627c-4.312,-3.148 -8.713,0.563 -13.701,3.919l3.22,5.708Zm-3.22,-5.708c-3.484,2.344 -7.255,4.516 -11.481,4.053c2.238,0.867 4.393,1.501 6.453,1.865l2.063,-3.958l-0.24,4.212c1.277,0.128 2.514,0.141 3.707,0.03l-0.502,-6.202Z" style="fill:#a4cc4c;"/></g><g><path d="M170.338,55.66c-5.39,-0.855 -11.235,4.32 -13.636,8.29c1.26,-0.37 2.399,-0.494 3.468,-0.446l2.706,-3.462l-1.175,3.593l3.983,-4.109l-2.332,4.603c2.532,0.835 4.971,2.288 8.221,3.074l2.702,-5.004l-0,5.458c1.502,0.143 3.174,0.123 5.074,-0.142c-1.599,-6.322 -4.033,-9.677 -6.743,-11.101l-2.785,3.73l0.517,-4.484Z" style="fill:#accf5e;"/><path d="M174.275,62.199l-0,5.458c1.502,0.143 3.174,0.123 5.074,-0.142c-1.644,-2.352 -3.358,-4.081 -5.074,-5.316Zm-0,-0c-2.97,-2.138 -5.95,-2.799 -8.6,-2.654l-2.323,4.584c2.532,0.835 4.971,2.288 8.221,3.074l2.702,-5.004Zm-8.61,-2.654c-4.47,0.248 -8.001,2.789 -8.963,4.405c1.26,-0.37 2.399,-0.494 3.468,-0.446l2.706,-3.462l-1.175,3.593l3.964,-4.09Z" style="fill:#9dc73f;"/></g><g><path d="M180.345,86.236c1.677,2.563 4.097,4.949 7.301,7.147c0.688,-2.515 1.193,-4.866 1.508,-7.045l-3.422,-0.701l3.61,-0.79c0.145,-1.347 0.211,-2.622 0.196,-3.825l-5.068,-0.573l4.95,-1.537c-0.362,-3.523 -1.549,-6.301 -3.626,-8.278l-3.25,2.624l2.035,-3.618c-1.422,-0.998 -3.161,-1.71 -5.23,-2.125c-2.359,5.927 -2.572,11.341 -0.398,16.183l5.997,-1.488l-4.603,4.026Z" style="fill:#accf5e;"/><path d="M184.948,82.21l-4.603,4.026c1.677,2.563 4.097,4.949 7.301,7.147c-1.089,-3.996 -1.913,-7.763 -2.698,-11.173Zm-5.997,1.488l5.997,-1.488c-1.493,-6.489 -2.842,-11.682 -5.599,-14.695c-2.359,5.927 -2.572,11.341 -0.398,16.183Z" style="fill:#9dc73f;"/></g></g></g></g></g></svg>