<?xml version="1.0" encoding="UTF-8" standalone="no"?><!DOCTYPE svg PUBLIC "-//W3C//DTD SVG 1.1//EN" "http://www.w3.org/Graphics/SVG/1.1/DTD/svg11.dtd"><svg width="100%" height="100%" viewBox="0 0 300 300" version="1.1" xmlns="http://www.w3.org/2000/svg" xmlns:xlink="http://www.w3.org/1999/xlink" xml:space="preserve" xmlns:serif="http://www.serif.com/" style="fill-rule:evenodd;clip-rule:evenodd;stroke-linejoin:round;stroke-miterlimit:2;"><g id="_250" serif:id="250"><g id="_12" serif:id="12"><g><g><path d="M193.7,104.621c30,-0 54.356,12.85 54.356,28.679c-0,15.828 -24.356,28.679 -54.356,28.679c-29.999,-0 -54.355,-12.851 -54.355,-28.679c-0,-15.829 24.356,-28.679 54.355,-28.679Zm-127.874,45.092c22.532,0 40.826,9.652 40.826,21.541c-0,11.888 -18.294,21.54 -40.826,21.54c-22.533,0 -40.826,-9.652 -40.826,-21.54c-0,-11.889 18.293,-21.541 40.826,-21.541Z" style="fill:#f9e594;"/><path d="M193.7,104.621c30,-0 54.356,12.85 54.356,28.679c-0,15.828 -24.356,28.679 -54.356,28.679c-29.999,-0 -54.355,-12.851 -54.355,-28.679c-0,-15.829 24.356,-28.679 54.355,-28.679Zm-1.682,0.945c-17.467,0 -31.298,5.671 -40.9,12.58c-5.937,4.272 -9.582,9.455 -9.582,15.154c0,5.698 3.645,10.881 9.582,15.153c9.602,6.91 25.115,11.334 42.582,11.334c17.468,-0 36.282,-4.331 44.638,-12.704c8.616,-8.633 6.311,-11.843 5.034,-17.396c-1.682,-7.318 -0.592,-8.453 -6.529,-12.725c-9.602,-6.909 -27.357,-11.396 -44.825,-11.396Zm-126.192,44.147c22.532,0 40.826,9.652 40.826,21.541c-0,11.888 -18.294,21.54 -40.826,21.54c-22.533,0 -40.826,-9.652 -40.826,-21.54c-0,-11.889 18.293,-21.541 40.826,-21.541Zm-1.682,0.697c-12.987,-0 -22.843,4.768 -29.982,9.905c-4.295,3.09 -3.918,7.314 -3.918,11.437c0,4.122 -0.377,7.35 3.918,10.441c7.139,5.137 24.969,9.219 37.956,9.219c12.987,0 18.233,-4.082 25.372,-9.219c4.295,-3.091 6.97,-6.817 6.97,-10.939c-0,-4.123 -2.675,-7.849 -6.97,-10.939c-7.139,-5.137 -20.359,-9.905 -33.346,-9.905Z" style="fill:#dfc86d;"/></g><g><g><path d="M218.396,165.351c0.077,0.86 -0.546,1.531 -1.911,1.836l-78.888,17.627c-2.982,0.666 -8.38,-0.669 -12.047,-2.98l-48.238,-30.396c-2.195,-1.383 -3.276,-2.804 -3.151,-3.865l-4.94,-35.652l155.004,19.052l-5.829,34.378Z" style="fill:#9f6036;"/><path d="M137.335,184.866c-1.986,0.353 -4.906,-0.097 -7.686,-1.081c-1.457,-0.516 -1.837,-33.544 0.004,-32.959c1.417,0.449 2.844,0.765 4.161,0.918c-0.558,4.398 -0.679,8.875 -0.267,12.994c0.163,1.506 0.473,2.981 0.856,4.441c0.81,3.089 1.97,6.106 2.504,9.262c0.36,2.089 0.429,4.252 0.428,6.425Zm0.759,-33.359l8.509,-1.901c0.547,1.763 1.301,3.267 1.831,4.888c0.332,1.014 0.563,2.076 0.616,3.275c0.047,1.087 0.03,2.173 -0.017,3.261c-0.079,1.813 -0.173,3.624 -0.284,5.43c-0.049,0.805 -0.126,1.594 -0.148,2.4c-0.001,0.829 0.004,1.65 0.041,2.477c0.072,1.624 0.206,3.238 0.323,4.859c0.113,1.573 0.231,3.146 0.235,4.73c0.004,0.428 -0.006,0.862 -0.024,1.301l-7.358,1.644c-0.041,-2.084 -0.224,-4.157 -0.556,-6.164c-0.551,-3.286 -1.729,-6.436 -2.572,-9.652c-0.327,-1.249 -0.601,-2.508 -0.741,-3.795c-0.439,-3.776 -0.317,-7.875 0.064,-11.928c0.025,-0.275 0.053,-0.55 0.081,-0.825Zm9.433,-2.107l21.556,-4.817c-0.282,1.71 -0.411,3.444 -0.335,5.235c0.11,2.363 0.717,4.627 1.073,6.945c0.13,0.846 0.221,1.699 0.218,2.573c0.001,1.131 -0.093,2.265 -0.231,3.399c-0.345,2.831 -0.971,5.663 -1.328,8.456c-0.283,2.267 -0.48,4.561 -0.608,6.858l-5.888,1.316c0.155,-0.821 0.297,-1.645 0.409,-2.474c0.064,-0.475 0.124,-0.953 0.138,-1.432c0.014,-0.489 -0.023,-0.97 -0.054,-1.459c-0.151,-1.572 -0.581,-3.094 -0.916,-4.679c-0.204,-0.962 -0.329,-1.934 -0.408,-2.895c-0.133,-1.953 -0.223,-3.912 -0.244,-5.88c-0.022,-1.971 0.118,-3.945 0.046,-5.912c-0.036,-1.001 -0.165,-1.976 -0.256,-2.97c0.003,-0.124 -0.095,-0.226 -0.218,-0.229c-0.124,-0.003 -0.227,0.095 -0.229,0.219c-0.135,0.986 -0.321,1.95 -0.418,2.946c-0.191,1.963 -0.184,3.946 -0.281,5.92c-0.098,1.991 -0.205,3.974 -0.23,5.957c-0.024,0.92 0.05,1.849 0.079,2.788c0.018,0.603 0.015,1.198 0.001,1.8c-0.023,0.961 -0.127,1.882 -0.294,2.807c-0.065,0.473 -0.17,0.932 -0.232,1.404c-0.042,0.315 -0.064,0.632 -0.09,0.948c-0.104,1.312 -0.213,2.62 -0.33,3.929l-5.945,1.328c-0.004,-0.211 -0.009,-0.421 -0.017,-0.629c-0.071,-1.672 -0.218,-3.331 -0.449,-4.981c-0.269,-1.93 -0.593,-3.845 -0.922,-5.769c-0.081,-0.476 -0.182,-0.942 -0.266,-1.419c-0.134,-0.71 -0.271,-1.408 -0.329,-2.129c-0.237,-2.943 0.052,-5.925 -0.249,-8.872c-0.094,-0.968 -0.299,-1.845 -0.559,-2.681c-0.595,-1.907 -1.509,-3.587 -2.194,-5.601Zm28.869,-6.451l11.494,-2.568c-0.047,0.221 -0.09,0.444 -0.132,0.666c-0.696,3.685 -0.311,7.613 -0.455,11.395c-0.036,0.952 -0.18,1.865 -0.295,2.786c-0.036,0.371 -0.099,0.734 -0.135,1.107c-0.141,1.477 -0.282,2.961 -0.517,4.445c-0.703,4.439 -2.299,8.855 -2.471,13.314c-0.005,0.127 -0.007,0.253 -0.005,0.379l-11.518,2.573c0.066,-1.143 0.142,-2.283 0.249,-3.419c0.09,-0.098 0.185,-0.213 0.297,-0.365c0.182,-0.246 0.295,-0.426 0.412,-0.711c0.239,-0.583 0.342,-1.179 0.482,-1.805c0.096,-0.432 0.18,-0.861 0.237,-1.305c0.219,-1.716 0.277,-3.484 0.424,-5.258c0.603,-7.299 1.347,-14.844 1.933,-21.234Zm12.909,-2.884l15.167,-3.389c-0.676,2.539 -1.381,5.072 -1.963,7.605c-0.276,1.382 -0.504,2.768 -0.539,4.167c-0.049,1.961 0.204,3.87 0.103,5.836c-0.059,0.571 -0.107,1.138 -0.186,1.706c-0.319,2.282 -0.761,4.533 -1.212,6.783c-0.554,2.77 -1.201,5.521 -1.665,8.319l-11.636,2.6c0.868,-4.086 1.499,-8.321 2.019,-12.482c0.199,-1.597 0.38,-3.192 0.335,-4.78c-0.011,-0.407 -0.056,-0.806 -0.098,-1.21c-0.137,-1.209 -0.364,-2.409 -0.498,-3.655c-0.296,-2.759 -0.385,-5.597 -0.222,-8.353c0.063,-1.064 0.21,-2.11 0.395,-3.147Zm19.983,-4.465l3.7,-0.827c-0.461,2.967 -0.6,5.989 -1.047,8.959c-0.118,0.785 -0.256,1.566 -0.435,2.34c-1.236,5.473 -3.071,10.857 -4.479,16.319c-0.499,1.934 -0.979,3.872 -1.298,5.837c-0.057,0.348 -0.145,0.694 -0.143,1.047c0.001,0.12 0.021,0.226 0.041,0.338l-4.448,0.994c0.482,-2.474 0.988,-4.934 1.572,-7.379c0.537,-2.25 1.083,-4.495 1.65,-6.748c0.143,-0.567 0.306,-1.125 0.454,-1.692c0.534,-1.64 0.919,-3.269 1.263,-4.954c0.097,-0.475 0.19,-0.946 0.265,-1.425c0.165,-1.053 0.286,-2.112 0.53,-3.156c0.678,-3.215 1.629,-6.42 2.375,-9.653Zm11.442,-2.557l1.436,-0.321c1.145,-0.255 1.804,-0.751 1.999,-1.397l-5.769,34.026c0.077,0.86 -0.546,1.531 -1.911,1.836l-1.279,0.286c1.136,-4.809 2.266,-9.614 3.164,-14.485c0.96,-5.352 1.426,-10.854 1.971,-16.322c0.12,-1.211 0.247,-2.419 0.389,-3.623Zm-10.438,35.528l-0.304,0.068c0.352,-1.733 0.727,-3.464 1.171,-5.181c0.505,-1.957 1.063,-3.904 1.627,-5.85c-0.778,3.589 -1.637,7.156 -2.442,10.74c-0.017,0.074 -0.034,0.149 -0.052,0.223Z" style="fill:#ab6638;"/><path d="M76.734,151.056c-1.806,-1.26 -2.686,-2.52 -2.573,-3.483l-4.9,-35.362c0.228,1.054 1.366,2.335 3.353,3.588l3.181,2.004c0.024,1.042 0.049,2.078 0.127,3.087c0.3,2.782 0.429,5.571 0.807,8.34c0.257,1.878 0.676,3.684 1.024,5.552c0.14,1.244 0.521,2.453 0.712,3.691c0.079,0.51 0.112,1.024 0.102,1.541c-0.022,0.819 -0.134,1.623 -0.294,2.419c-0.383,1.901 -1.024,3.757 -1.309,5.671c-0.149,0.987 -0.215,1.97 -0.23,2.952Zm2.22,-31.262l4.446,2.801c0.004,0.184 0.011,0.369 0.02,0.554c0.054,1.129 0.172,2.264 0.331,3.397c0.233,1.661 0.538,3.313 0.6,4.957c0.048,1.359 0.071,2.719 0.039,4.079c-0.074,3.21 -0.331,6.412 -0.314,9.62c0.156,3.588 0.18,7.157 0.362,10.726l-7.126,-4.49c-0.032,-0.02 -0.064,-0.04 -0.095,-0.06c0,-0.013 0,-0.026 0,-0.038c0.013,-1.052 0.078,-2.103 0.244,-3.16c0.302,-1.902 0.952,-3.746 1.359,-5.633c0.178,-0.826 0.311,-1.66 0.348,-2.512c0.092,-1.432 -0.262,-2.849 -0.357,-4.282c-0.023,-0.345 -0.007,-0.686 0.01,-1.031c0.136,-1.895 0.363,-3.735 0.413,-5.63c0.074,-2.81 -0.124,-5.614 -0.232,-8.427c-0.021,-0.288 -0.037,-0.579 -0.048,-0.871Zm5.336,3.362l4.109,2.589c0.488,2.754 0.801,5.53 1.146,8.31c0.39,2.659 0.671,5.34 0.861,8.027c0.189,2.677 0.286,5.36 0.236,8.04c-0.01,0.601 -0.068,1.201 -0.149,1.801c-0.213,1.586 -0.569,3.167 -0.733,4.747c-0.077,0.836 -0.136,1.672 -0.165,2.508l-3.22,-2.029c0.113,-4.006 -0.274,-8 -0.418,-12.022l-0.435,-13.673c-0.079,-1.689 -0.348,-3.394 -0.661,-5.089c-0.199,-1.074 -0.425,-2.14 -0.571,-3.209Zm9.094,5.73l21.108,13.301c-0.009,0.261 -0.016,0.523 -0.019,0.785c-0.016,1.381 0.071,2.759 0.263,4.121c0.379,2.616 0.989,5.235 1.405,7.865c0.176,1.117 0.316,2.236 0.39,3.357c0.062,1.027 0.007,2.075 -0.105,3.127c-0.101,0.954 -0.215,1.914 -0.364,2.858c-0.105,0.659 -0.24,1.298 -0.323,1.946c-0.22,1.324 -0.431,2.595 -0.57,3.903c-0.06,0.555 -0.103,1.106 -0.13,1.662c-0.052,1.101 -0.107,2.198 -0.155,3.302l-12.474,-7.86c-0.055,-2.214 -0.245,-4.472 -0.256,-6.704c-0.006,-1.119 0.035,-2.231 0.164,-3.327c0.087,-0.737 0.234,-1.454 0.409,-2.161c0.432,-1.745 1.031,-3.434 1.399,-5.211c0.217,-0.916 0.44,-1.838 0.501,-2.78c0.016,-0.235 -0.004,-0.467 -0.008,-0.703c-0.018,-1.216 -0.046,-2.418 -0.104,-3.632c-0.005,-0.104 -0,-0.207 -0.019,-0.309c-0.083,-0.462 -0.247,-0.811 -0.377,-1.26c-0.194,0.414 -0.397,0.731 -0.534,1.168c-0.052,0.166 -0.064,0.339 -0.094,0.511c-0.231,1.351 -0.509,2.68 -0.692,4.039c-0.118,0.88 -0.146,1.767 -0.291,2.642c-0.342,1.759 -0.916,3.435 -1.322,5.163c-0.182,0.773 -0.331,1.555 -0.417,2.359c-0.124,1.159 -0.157,2.334 -0.139,3.516c0.027,1.91 0.186,3.838 0.277,5.742l-4.992,-3.146c-0.002,-1.698 -0.092,-3.396 -0.048,-4.982c0.062,-3.64 0.578,-7.321 0.536,-10.998c-0.021,-1.776 -0.3,-3.505 -0.492,-5.261c-0.082,-0.752 -0.133,-1.504 -0.231,-2.253c-0.139,-1.354 -0.32,-2.765 -0.556,-4.152c-0.16,-0.94 -0.343,-1.87 -0.564,-2.762c-0.24,-0.97 -0.639,-1.896 -0.93,-2.85c-0.102,-0.334 -0.19,-0.671 -0.246,-1.016Zm21.939,13.825l4.532,2.856c-0.095,1.931 -0.037,3.861 0.173,5.787c0.158,1.329 0.391,2.61 0.685,3.872c0.416,1.786 0.938,3.516 1.252,5.317c0.2,1.149 0.322,2.326 0.29,3.563c-0.057,3.695 -0.744,7.316 -1.511,10.935c-0.234,1.102 -0.483,2.203 -0.729,3.305l-2.307,-1.453c0.017,-0.284 0.024,-0.569 0.035,-0.852c0.052,-1.32 0.087,-2.632 0.028,-3.944c-0.035,-0.78 -0.105,-1.552 -0.189,-2.333c-0.126,-1.161 -0.309,-2.29 -0.434,-3.475c-0.038,-0.52 -0.083,-1.039 -0.066,-1.57c0.068,-2.158 0.501,-4.355 0.332,-6.462c-0.075,-1.147 -0.22,-2.293 -0.398,-3.437c-0.41,-2.626 -1.005,-5.244 -1.374,-7.856l-0.319,-4.253Zm7.571,4.77l1.555,0.98c1.932,1.218 4.312,2.184 6.613,2.767c0.161,6.472 0.545,12.945 0.221,19.433c-0.123,2.456 0.348,5.118 -0,7.556c-0.279,1.954 -0.41,3.921 -0.541,5.925c-1.831,-0.55 -3.662,-1.344 -5.192,-2.308l-1.449,-0.913c1.199,-5.559 2.539,-11.096 2.582,-16.77c-0.009,-1.542 -0.191,-3.006 -0.496,-4.428c-0.406,-1.898 -0.978,-3.728 -1.578,-5.58c-0.364,-1.125 -0.764,-2.243 -1.056,-3.429c-0.273,-1.069 -0.493,-2.146 -0.659,-3.233Z" style="fill:#854f2b;"/></g><g><path d="M267.397,195.983c-0,0.511 -0.405,0.908 -1.236,1.094l-50.852,11.362c-1.922,0.429 -5.401,-0.431 -7.766,-1.921l-31.094,-19.593c-1.572,-0.991 -2.257,-2.012 -1.975,-2.711l0.61,-31.94l99.916,12.361l-7.603,31.348Zm-148.779,-5.357c0.044,0.55 -0.358,0.979 -1.232,1.174l-18.853,4.212c-1.922,0.43 -5.401,-0.431 -7.765,-1.921l-31.095,-19.593c-1.533,-0.966 -2.223,-1.961 -1.994,-2.658l-6.208,-33.822l65.533,19.959l1.614,32.649Z" style="fill:#9f6036;"/><path d="M218.724,207.676l-3.415,0.763c-1.428,0.319 -3.715,-0.074 -5.767,-0.908c-0.709,-0.289 4.154,-30.074 5.739,-29.71c1.421,0.326 2.771,0.418 3.747,0.2l5.15,-1.151c-0.115,1.309 -0.196,2.623 -0.32,3.927c-0.074,0.781 -0.147,1.562 -0.219,2.343c-0.106,1.148 -0.196,2.295 -0.383,3.439c-0.121,0.807 -0.318,1.593 -0.57,2.369c-0.663,2.04 -1.575,4.011 -2.035,6.102c-0.971,3.93 -1.54,7.996 -1.88,12.075c-0.015,0.184 -0.031,0.367 -0.047,0.551Zm9.291,-31.664l19.721,-4.406c-0.183,0.82 -0.356,1.643 -0.541,2.461c-0.398,1.767 -0.752,3.538 -0.972,5.323c-0.334,2.734 -0.207,5.502 -0.395,8.238c-0.073,1.057 -0.199,2.109 -0.435,3.152c-0.31,1.372 -0.645,2.721 -1.015,4.06c-0.368,1.329 -0.772,2.649 -1.225,3.973c-0.249,0.729 -0.558,1.444 -0.797,2.183c-0.16,0.498 -0.339,0.996 -0.463,1.503l-9.922,2.217c0.288,-0.662 0.6,-1.312 0.903,-1.973c0.391,-0.853 0.773,-1.715 1.159,-2.59c0.129,-0.295 0.265,-0.589 0.379,-0.893c0.453,-1.219 0.796,-2.489 1.116,-3.819c0.093,-0.465 0.241,-0.919 0.217,-1.39c-0.018,-0.345 -0.169,-0.587 -0.188,-0.932c-0.056,-1.023 0.201,-2.039 0.386,-3.046c0.487,-2.478 1.067,-4.935 1.511,-7.422c0.089,-0.501 0.17,-1 0.231,-1.505c0.145,-1.193 0.211,-2.362 0.294,-3.56c0.006,-0.03 -0.013,-0.059 -0.043,-0.065c-0.03,-0.006 -0.059,0.013 -0.065,0.043c-0.391,1.131 -0.82,2.216 -1.205,3.349c-0.163,0.48 -0.31,0.961 -0.452,1.447c-0.708,2.428 -1.34,4.874 -1.986,7.318c-0.282,1.018 -0.268,2.119 -0.678,3.093c-0.122,0.288 -0.358,0.421 -0.502,0.699c-0.169,0.329 -0.268,0.681 -0.425,1.018c-0.526,1.269 -1.174,2.419 -1.714,3.605c-0.435,0.954 -0.819,1.915 -1.155,2.884c-0.356,1.026 -0.608,2.064 -0.851,3.118c-0.105,0.454 -0.203,0.91 -0.29,1.371l-8.238,1.841c0.17,-1.317 0.361,-2.632 0.609,-3.937c0.498,-2.608 1.14,-5.177 1.94,-7.679c0.675,-1.952 1.78,-3.733 2.648,-5.612c0.418,-0.906 0.77,-1.83 1.034,-2.792c0.318,-1.227 0.58,-2.459 0.76,-3.708c0.117,-0.816 0.196,-1.637 0.259,-2.459c0.131,-1.704 0.26,-3.405 0.39,-5.108Zm27.879,-6.229l3.442,-0.769c-0.281,0.694 -0.518,1.404 -0.732,2.12c-0.242,0.817 -0.389,1.638 -0.489,2.464c-0.222,1.839 -0.2,3.692 -0.576,5.528l-1.931,7.325c-0.239,1.237 -0.449,2.482 -0.689,3.722c-0.358,1.857 -0.778,3.701 -1.115,5.566c-0.257,1.419 -0.512,2.84 -0.738,4.264l-3.253,0.726c0.852,-5.021 1.199,-10.19 1.953,-15.255c0.549,-3.691 1.214,-7.345 2.28,-10.88c0.384,-1.319 0.876,-2.59 1.419,-3.843c0.14,-0.323 0.283,-0.646 0.429,-0.968Zm4.893,-1.093l6.299,-1.407c-1.168,5.589 -1.887,11.263 -3.1,16.895c-0.996,4.772 -2.655,9.414 -3.607,14.19l-5.106,1.141c0.162,-1.155 0.309,-2.314 0.459,-3.471c0.241,-1.873 0.408,-3.751 0.671,-5.617c0.176,-1.245 0.394,-2.481 0.604,-3.716c0.084,-0.482 0.186,-0.96 0.302,-1.435c0.481,-1.969 1.166,-3.889 1.557,-5.879c0.367,-1.876 0.34,-3.766 0.544,-5.645c0.082,-0.756 0.202,-1.511 0.412,-2.261c0.262,-0.945 0.628,-1.856 0.96,-2.781c0.001,-0.005 0.003,-0.009 0.005,-0.014Zm10.544,-2.356l2.086,-0.466c-0.697,1.975 -1.396,3.949 -2.061,5.936c-0.583,1.742 -1.137,3.494 -1.645,5.263c-0.118,0.46 -0.233,0.921 -0.344,1.383c0.422,-2.558 0.813,-5.115 1.222,-7.667c0.238,-1.485 0.479,-2.968 0.742,-4.449Zm-3.472,27.741l-0.462,1.908c-0,0.244 -0.093,0.463 -0.281,0.645c0.235,-0.855 0.482,-1.703 0.743,-2.553Zm-2.079,3.087l-0.476,0.106c0.986,-3.9 1.949,-7.807 2.771,-11.742c-0.185,1.437 -0.348,2.874 -0.565,4.314c-0.084,0.554 -0.157,1.098 -0.274,1.635c-0.42,1.942 -1.062,3.774 -1.456,5.687Zm-164.786,-1.699l-2.461,0.549c-1.066,0.239 -2.611,0.08 -4.18,-0.363c-1.259,-0.356 -5.077,-32.853 -3.872,-32.475c1.834,0.575 3.69,0.802 4.937,0.523l1.791,-0.4c0.018,1.314 0.111,2.623 0.331,3.904c0.558,2.976 1.687,5.766 2.42,8.667c0.274,1.087 0.491,2.192 0.566,3.338c0.097,1.24 0.117,2.479 0.131,3.717c0.021,1.917 -0.058,3.829 -0.042,5.747c0.019,2.215 0.195,4.387 0.364,6.594c0.005,0.066 0.01,0.132 0.015,0.199Zm0.431,-33.108l6.172,-1.379c0.2,2.284 0.386,4.569 0.622,6.849c0.144,1.399 0.307,2.796 0.504,4.188c0.264,1.905 0.897,3.747 1.292,5.627c0.161,0.77 0.28,1.547 0.312,2.338c0.054,1.551 0.239,3.128 -0.056,4.654c-0.086,0.445 -0.33,0.785 -0.436,1.227c-0.148,0.609 -0.19,1.234 -0.256,1.858c-0.209,1.971 -0.418,3.952 -0.477,5.934l-5.376,1.201c0.274,-2.035 0.588,-4.059 0.866,-6.111c0.118,-0.87 0.19,-1.743 0.262,-2.618c0.197,-2.399 0.267,-4.805 0.154,-7.221c-0.099,-1.424 -0.358,-2.8 -0.711,-4.149c-0.736,-2.812 -1.896,-5.501 -2.477,-8.384c-0.285,-1.309 -0.365,-2.659 -0.395,-4.014Zm7.042,-1.574l5.383,-1.202c0.027,0.591 0.077,1.182 0.12,1.773c0.057,0.8 0.226,1.568 0.293,2.366c0.071,0.85 0.062,1.703 0.136,2.548c0.083,1.126 0.228,2.239 0.339,3.355c0.111,1.106 0.208,2.211 0.273,3.322c0.085,1.451 0.086,2.897 0.032,4.368c-0.038,1.894 -0.212,3.785 -0.339,5.694c-0.06,0.897 -0.133,1.795 -0.141,2.696c-0.003,0.39 0.027,0.777 0.042,1.167c0.075,1.835 0.172,3.661 0.373,5.47l-3.171,0.709c0.091,-1.728 0.167,-3.456 0.195,-5.185c0.011,-0.636 0.04,-1.273 -0.05,-1.902c-0.066,-0.458 -0.278,-0.824 -0.334,-1.282c-0.194,-1.578 0.017,-3.176 -0.086,-4.76c-0.052,-0.857 -0.197,-1.696 -0.389,-2.527c-0.426,-1.849 -1.088,-3.655 -1.385,-5.531c-0.214,-1.378 -0.396,-2.759 -0.56,-4.144c-0.272,-2.308 -0.494,-4.622 -0.731,-6.935Zm8.115,-1.99c0.289,-0.218 0.428,-0.496 0.422,-0.814l1.614,32.649c0.042,0.525 -0.323,0.94 -1.117,1.146c0.065,-1.898 0.23,-3.8 0.334,-5.715c0.018,-0.345 0.018,-0.69 0.022,-1.036c0.015,-1.294 0.03,-2.587 -0.011,-3.877c-0.043,-1.319 -0.151,-2.621 -0.286,-3.924c-0.173,-1.597 -0.461,-3.147 -0.729,-4.711c-0.175,-1.024 -0.347,-2.046 -0.484,-3.076c-0.144,-1.086 -0.232,-2.181 -0.304,-3.281c-0.042,-0.813 -0.1,-1.632 -0.046,-2.45c0.051,-0.779 0.241,-1.525 0.328,-2.304c0.097,-0.868 0.225,-1.738 0.257,-2.607Z" style="fill:#ab6638;"/><path d="M179.899,189.098l-3.45,-2.173c-1.572,-0.991 -2.257,-2.012 -1.975,-2.711l0.608,-31.844c0.019,0.716 0.766,1.636 2.189,2.532l1.09,0.687c-0.028,0.304 -0.053,0.609 -0.074,0.915c-0.072,1.059 -0.078,2.123 -0.021,3.189c0.12,2.286 0.481,4.573 0.572,6.843c0.141,0.979 0.184,1.927 0.155,2.9c-0.029,0.969 -0.043,1.913 -0.116,2.877c-0.05,0.664 -0.153,1.321 -0.176,1.988c-0.042,0.794 -0.012,1.602 0.057,2.415c0.15,1.773 0.494,3.572 0.665,5.293c0.059,0.522 0.089,1.053 0.136,1.587c0.111,1.253 0.272,2.515 0.315,3.787c0.02,0.574 0.023,1.147 0.025,1.715Zm2.457,-30.992l5.662,3.568c-0.108,0.488 -0.21,0.977 -0.304,1.468c-0.225,1.173 -0.399,2.355 -0.48,3.555c-0.202,3.389 -0.282,6.801 -0.134,10.198c0.097,2.225 0.392,4.415 0.407,6.63c0.01,1.407 -0.053,2.808 -0.19,4.206c-0.28,0.82 -0.57,1.64 -0.848,2.467c-0.278,0.844 -0.485,1.746 -0.588,2.67l-4.658,-2.935c-0.006,-0.838 0.001,-1.689 0.041,-2.542c0.058,-1.238 0.212,-2.469 0.216,-3.696c0.002,-0.633 -0.043,-1.261 -0.091,-1.88c-0.167,-1.71 -0.511,-3.499 -0.651,-5.261c-0.057,-0.721 -0.078,-1.436 -0.035,-2.139c0.039,-0.499 0.08,-0.998 0.186,-1.486c0.473,-2.172 1.366,-4.182 1.627,-6.434c0.041,-2.292 -0.153,-4.618 -0.175,-6.929c-0.004,-0.487 -0.002,-0.974 0.015,-1.46Zm11.912,7.507l10.31,6.496c-0.193,0.926 -0.387,1.852 -0.568,2.769c-0.203,1.031 -0.357,2.042 -0.576,3.024c-0.619,2.11 -1.435,4.142 -2.111,6.225c-0.295,0.909 -0.568,1.826 -0.78,2.765c-0.248,1.195 -0.379,2.419 -0.499,3.653c-0.178,1.814 -0.312,3.646 -0.516,5.427c-0.143,1.228 -0.371,2.453 -0.648,3.671c-0.093,0.411 -0.192,0.821 -0.295,1.23l-8.798,-5.544c0.11,-0.457 0.194,-0.927 0.284,-1.394c0.156,-0.814 0.214,-1.641 0.464,-2.389c0.573,-1.758 1.196,-3.482 1.67,-5.251c0.338,-1.257 0.603,-2.535 0.74,-3.856l0.512,-9.847c0.201,-2.335 0.542,-4.653 0.811,-6.979Zm12.238,7.711l4.177,2.632c0.316,0.199 0.65,0.388 0.998,0.565c-0.275,1.401 -0.547,2.803 -0.969,4.137c-0.119,0.382 -0.273,0.757 -0.443,1.129c-0.421,0.921 -0.936,1.822 -1.324,2.735c-0.543,1.276 -1.051,2.67 -1.505,4.08c-0.454,1.411 -0.855,2.838 -1.168,4.187c-1.099,3.459 -1.833,6.926 -2.598,10.419c-0.056,0.255 -0.112,0.511 -0.168,0.766l-4.411,-2.78c0.125,-0.471 0.245,-0.944 0.358,-1.418c0.294,-1.236 0.54,-2.48 0.699,-3.728c0.268,-2.071 0.369,-4.223 0.718,-6.312c0.149,-0.89 0.363,-1.76 0.613,-2.614c0.237,-0.9 0.528,-1.777 0.85,-2.643c0.77,-2.065 1.704,-4.061 2.432,-6.151c0.367,-0.847 0.741,-1.706 1.047,-2.618c0.261,-0.779 0.488,-1.579 0.694,-2.386Zm6.386,3.745c1.543,0.62 3.204,1.008 4.583,1.063c-0.619,2.121 -1.193,4.27 -1.827,6.383c-0.682,2.271 -1.167,4.539 -1.552,6.843c-0.113,0.682 -0.54,1.323 -0.638,2.008c-0.195,1.364 -0.483,2.908 -0.913,4.198c-0.411,1.234 -0.142,2.972 -0.274,4.289c-0.21,2.099 -0.532,4.209 -0.809,6.312c-1.365,-0.351 -2.773,-0.925 -3.919,-1.647l-0.927,-0.585c0.164,-1.072 0.282,-2.15 0.366,-3.232c0.248,-3.197 0.229,-6.379 0.652,-9.606c0.286,-1.317 0.651,-2.713 1.079,-4.09c0.428,-1.375 0.917,-2.731 1.436,-3.976c0.378,-0.905 0.883,-1.797 1.294,-2.71c0.189,-0.423 0.36,-0.849 0.493,-1.283c0.393,-1.284 0.698,-2.619 0.956,-3.967Zm-148.201,0.591l-5.018,-3.162c-1.533,-0.966 -2.223,-1.961 -1.994,-2.658l-6.13,-33.398c0.226,0.644 0.939,1.398 2.111,2.136l7.606,4.793c0.301,2.08 0.649,4.173 1.023,6.23c0.119,0.653 0.227,1.303 0.368,1.943c0.483,2.238 1.372,4.373 1.941,6.591c0.137,0.534 0.272,1.065 0.359,1.613c0.052,0.416 0.058,0.83 0.027,1.244c-0.079,1.039 -0.333,2.069 -0.374,3.112c-0.083,1.906 -0.085,3.844 -0.057,5.787c0.028,1.928 0.088,3.861 0.138,5.769Zm-0.831,-30.654l3.03,1.909c0.682,2.861 1.399,5.791 1.972,8.733c0.521,2.675 0.922,5.359 1.04,8.01c0.094,1.896 0.064,3.787 -0.011,5.678c-0.122,3.089 -0.377,6.176 -0.524,9.27l-3.776,-2.379c-0.056,-2.096 -0.128,-4.225 -0.158,-6.349c-0.027,-1.925 -0.017,-3.846 0.069,-5.734c0.051,-1.03 0.29,-2.045 0.401,-3.068c0.051,-0.472 0.08,-0.944 0.048,-1.423c-0.032,-0.893 -0.14,-1.769 -0.323,-2.637c-0.408,-1.937 -1.119,-3.809 -1.45,-5.761c-0.265,-2.04 -0.278,-4.147 -0.318,-6.249Zm9.559,6.023l5.503,3.468c-0.105,1.324 -0.207,2.653 -0.126,3.961c0.063,1.001 0.152,2.002 0.259,3.002c0.422,3.941 1.11,7.877 1.395,11.834c0.393,4.254 0.396,8.504 0.723,12.751l-4.97,-3.131c0.036,-0.47 0.058,-0.942 0.059,-1.416c0.004,-2.544 -0.369,-5.111 -0.469,-7.604c-0.139,-3.286 0.08,-6.607 0.044,-9.908c-0.016,-1.491 -0.083,-2.976 -0.244,-4.453c-0.166,-1.378 -0.414,-2.706 -0.761,-4.005c-0.405,-1.516 -0.919,-2.987 -1.413,-4.499Zm6.781,4.273l5.313,3.348c-0.018,0.731 -0.007,1.462 0.107,2.19c0.348,2.163 1.035,4.255 1.486,6.395c0.184,0.875 0.325,1.758 0.384,2.659c0.054,0.861 0.084,1.723 0.092,2.584c0.016,1.747 -0.024,3.493 -0.063,5.24c-0.04,1.787 -0.079,3.568 0.032,5.358c0.128,2.382 0.136,4.771 0.267,7.157l-5.841,-3.681c-0.041,-0.644 -0.07,-1.289 -0.087,-1.934c-0.071,-2.66 0.063,-5.315 0.02,-7.977c-0.019,-1.146 -0.082,-2.293 -0.16,-3.44c-0.286,-3.973 -0.97,-7.925 -1.401,-11.881c-0.106,-0.981 -0.199,-1.963 -0.264,-2.945c-0.067,-1.015 0.021,-2.044 0.115,-3.073Zm6.692,4.217l0.181,0.114c1.479,0.932 3.365,1.635 5.09,1.968c0.062,0.329 0.12,0.656 0.167,0.982c0.531,3.719 1.397,7.378 2.008,11.042c1.003,6.018 1.587,12.008 1.916,18.25c0.038,0.729 0.09,1.458 0.145,2.187c-1.658,-0.19 -3.61,-0.813 -5.183,-1.703l-1.324,-9.534c-0.198,-1.274 -0.342,-2.547 -0.417,-3.829c-0.18,-3.071 -0.097,-6.153 -0.395,-9.223c-0.085,-0.973 -0.259,-1.926 -0.477,-2.869c-0.489,-2.109 -1.207,-4.166 -1.591,-6.301c-0.066,-0.36 -0.102,-0.722 -0.12,-1.084Z" style="fill:#854f2b;"/></g><g><path d="M168.995,94.263l51.835,32.663c3.941,2.483 4.54,5.081 1.336,5.796l-84.771,18.942c-3.204,0.716 -9.005,-0.719 -12.946,-3.203l-51.835,-32.662c-3.941,-2.484 -4.539,-5.081 -1.335,-5.797l84.771,-18.941c3.204,-0.716 9.005,0.719 12.945,3.202Zm70.403,46.757l33.413,21.055c2.54,1.6 2.926,3.275 0.861,3.736l-54.644,12.21c-2.065,0.461 -5.804,-0.464 -8.345,-2.065l-33.412,-21.054c-2.541,-1.601 -2.927,-3.275 -0.861,-3.737l54.643,-12.209c2.066,-0.462 5.805,0.463 8.345,2.064Zm-157.996,-6.64l33.413,21.054c2.541,1.601 2.926,3.275 0.861,3.737l-20.258,4.526c-2.065,0.462 -5.805,-0.463 -8.345,-2.064l-33.413,-21.055c-2.54,-1.6 -2.926,-3.275 -0.861,-3.736l20.259,-4.526c2.065,-0.462 5.804,0.463 8.344,2.064Z" style="fill:#8bc350;"/><path d="M223.542,134.997c-0.254,0.087 -0.527,0.163 -0.817,0.228l-84.771,18.941c-3.673,0.821 -10.355,-0.689 -14.872,-3.535l-51.835,-32.663c-0.479,-0.302 -0.917,-0.608 -1.315,-0.915l-0.671,-4.842c0.228,1.054 1.366,2.335 3.353,3.588l51.835,32.662c3.941,2.484 9.742,3.919 12.946,3.203l84.771,-18.942c1.145,-0.255 1.804,-0.751 1.999,-1.397l-0.623,3.672Z" style="fill:#669c2c;"/><path d="M274.101,168.343l-54.514,12.18c-2.534,0.566 -7.154,-0.433 -10.271,-2.397l-33.413,-21.055c-0.326,-0.205 -0.625,-0.415 -0.899,-0.627l0.078,-4.074c0.019,0.716 0.766,1.636 2.189,2.532l33.412,21.054c2.541,1.601 6.28,2.526 8.345,2.065l54.644,-12.21c0.639,-0.143 1.044,-0.402 1.222,-0.74l-0.793,3.272Zm-156.928,-6.958c-0.282,0.114 -0.594,0.211 -0.938,0.288l-20.258,4.527c-2.534,0.566 -7.154,-0.434 -10.271,-2.398l-33.361,-21.021l-0.796,-4.339c0.226,0.644 0.939,1.398 2.111,2.136l33.413,21.055c2.54,1.601 6.28,2.526 8.345,2.064l20.258,-4.526c0.903,-0.202 1.338,-0.636 1.328,-1.194l0.169,3.408Z" style="fill:#669c2c;"/></g></g><g><path d="M158.831,191.876l-2.328,-1.467c-0.491,-0.309 -0.681,-0.629 -0.542,-0.829c0.004,-0.006 0.008,-0.011 0.012,-0.017l3.026,-5.236l4.223,-2.152l3.58,-4.562l1.663,-4.647l22.237,6.794l8.793,1.096l-0,8.413l-1.79,2.172l0.302,2.436l-0.001,3.345l-1.943,2.656l-0.011,-0.002c-0.043,0.172 -0.211,0.304 -0.511,0.371l-21.484,4.8c-0.812,0.182 -2.282,-0.182 -3.28,-0.811l-13.137,-8.278c-0.723,-0.456 -1.002,-0.927 -0.793,-1.221l1.984,-2.861Z" style="fill:#adadad;"/><path d="M175.982,200.248l-2.317,4.845c-0.837,0.025 -2.035,-0.319 -2.888,-0.857l-13.137,-8.278c-0.723,-0.456 -1.002,-0.927 -0.793,-1.221l1.984,-2.861l-2.328,-1.467c-0.491,-0.309 -0.681,-0.629 -0.542,-0.829c0.004,-0.006 0.008,-0.011 0.012,-0.017l3.026,-5.236l4.223,-2.152l3.58,-4.562l1.638,-4.576c-0.022,0.153 0.133,0.359 0.451,0.56l3.86,2.432l-3.242,0.724c-0.628,0.141 -0.51,0.65 0.262,1.137l10.162,6.403c0.455,0.286 1.035,0.502 1.563,0.602l-0.313,5.828l-9.817,-5.083l-4.785,-2.741l0.15,1.046l1.707,1.04l1.532,2.05l9.773,5.806l-0.254,0.374l-0.897,2.541l-3.638,-1.245l-3.788,-3.489l-5.282,-1.196l-0.15,0.847l4.386,2.243l0.697,2.143l4.585,4.634l0.58,0.555Zm23.513,-10.979l-1.781,2.16l-2.128,0.091l-7.824,1.745l1.644,-1.196l1.745,-0.798l2.292,-1.744l6.052,-0.258Zm-1.489,7.769l-0,0.184l-0.984,1.345l-4.127,0.18l-1.545,0.996l-4.485,1.147l0.598,-0.698l2.292,-1.794l8.251,-1.36Z" style="fill:#a1a1a1;"/><path d="M158.831,191.876l-2.328,-1.467c-0.491,-0.309 -0.681,-0.629 -0.542,-0.829c0.004,-0.006 0.008,-0.011 0.012,-0.017l3.026,-5.236l4.223,-2.152l3.58,-4.562l1.638,-4.576c-0.022,0.153 0.133,0.359 0.451,0.56l3.86,2.432l-3.242,0.724c-0.275,0.062 -0.407,0.194 -0.403,0.364l-0.007,0.001l-1.316,1.953l-1.993,2.712l-0.598,1.953l-3.11,2.791l-3.251,5.349Z" style="fill:#939393;"/><path d="M197.251,198.253l-1.188,1.625l-0.011,-0.002c-0.043,0.172 -0.211,0.304 -0.511,0.371l-21.484,4.8c-0.812,0.182 -2.282,-0.182 -3.28,-0.811l-13.137,-8.278c-0.723,-0.456 -1.002,-0.927 -0.793,-1.221l1.984,-2.861l-2.328,-1.467c-0.491,-0.309 -0.681,-0.629 -0.542,-0.829c0.004,-0.006 0.008,-0.011 0.012,-0.017l1.301,-2.251l3.294,2.076l-2.041,2.946c-0.216,0.303 0.071,0.788 0.816,1.257l13.522,8.521c1.029,0.648 2.542,1.022 3.378,0.835l21.008,-4.694Z" style="fill:#878787;"/><path d="M185.625,173.152l0.504,-0.112c0.628,-0.14 1.765,0.141 2.538,0.628l10.162,6.403c0.773,0.487 0.89,0.996 0.262,1.137l-16.62,3.713c-0.628,0.14 -1.765,-0.141 -2.538,-0.628l-10.162,-6.403c-0.772,-0.487 -0.89,-0.996 -0.262,-1.137l3.242,-0.724l-3.86,-2.432c-0.526,-0.332 -0.606,-0.679 -0.178,-0.774l11.323,-2.531c0.428,-0.095 1.203,0.097 1.73,0.428l3.859,2.432Z" style="fill:#b5b5b5;"/></g></g><path d="M33.056,186.526c-0,0 -5.689,-7.592 -5.469,-7.784c0.219,-0.191 3.222,3.266 4.743,4.608c0.64,0.564 1.36,0.942 2.084,1.301c0.588,0.289 1.184,0.477 1.766,0.76c1.329,0.647 2.616,1.344 3.982,1.882c0.887,0.349 1.799,0.633 2.696,0.969c2.153,0.807 4.253,1.669 6.495,2.313l5.717,1.126c1.293,0.299 2.637,0.618 4.049,0.785c2.083,0.247 4.222,0.238 6.183,0.269c0.021,-0 0.039,0.017 0.04,0.038c-0,0.022 -0.017,0.04 -0.039,0.04l-10.392,0.308c-0.407,-0.03 -0.816,-0.071 -1.223,-0.146c-1.527,-0.281 -3.034,-0.841 -4.54,-1.11c-2.024,-0.056 -4,-0.135 -5.974,-0.468c-0.859,-0.144 -1.703,-0.345 -2.531,-0.602c-1.958,-0.606 -3.878,-1.391 -5.573,-2.554c-0.733,-0.503 -1.366,-1.106 -2.014,-1.735Zm62.259,10.112c-0.791,-0.229 -2.557,-1.329 -2.445,-1.556c0.111,-0.226 1.981,0.259 2.71,0.378c0.708,0.115 1.425,0.14 2.109,0.057l4.938,-0.927c0.742,-0.123 1.503,-0.066 2.237,-0.218c0.171,-0.035 0.329,-0.109 0.493,-0.171c0.815,-0.398 1.535,-0.847 2.367,-1.213c0.533,-0.235 1.088,-0.404 1.639,-0.595c0.831,-0.288 1.656,-0.593 2.506,-0.816c0.574,-0.151 1.159,-0.238 1.741,-0.347c1.155,-0.185 3.74,-0.607 5.582,-0.793c0.434,-0.044 3.236,-0.02 3.257,0.032c0.021,0.052 -2.45,1.177 -2.873,1.372c-1.683,0.777 -4.248,1.403 -5.351,1.794c-0.772,0.234 -1.526,0.522 -2.306,0.733c-1.187,0.322 -2.38,0.621 -3.598,0.781c-0.917,0.121 -1.783,0.093 -2.706,0.114l-2.72,0.51c-0.983,0.29 -1.944,0.7 -2.951,0.944c-0.711,0.172 -1.438,0.244 -2.163,0.265c-0.813,0.006 -1.653,-0.109 -2.466,-0.344Zm36.405,-11.403c-1.146,-0.44 -3.563,-1.924 -3.527,-2.011c0.035,-0.088 3.026,1.114 4.446,1.288c0.927,0.113 1.831,0.07 2.723,-0.052l5.314,-1.602l2.742,-0.758l4.029,-1.065c1.185,-0.315 2.627,-0.746 4.162,-0.844c0.609,-0.039 1.182,0.095 1.794,0.072c0.899,-0.034 1.768,-0.302 2.6,-0.306c0.713,-0.003 2.008,0.098 2.615,0.16c-0.613,0.26 -1.909,0.633 -2.66,0.868c-0.757,0.237 -1.609,0.282 -2.424,0.521c-0.817,0.239 -1.541,0.651 -2.337,0.892c-1.114,0.339 -2.215,0.508 -3.117,0.787l-3.866,1.527l-2.713,0.714c-1.363,0.406 -2.75,0.959 -4.185,1.022c-0.672,0.03 -1.3,-0.07 -1.959,-0.212c-1.231,-0.159 -2.431,-0.537 -3.637,-1.001Zm33.348,15.912c-0.089,-0.065 -1.728,-1.532 -1.711,-1.562c0.018,-0.031 2.001,0.834 2.103,0.877c1.48,0.632 2.878,1.426 4.311,2.16c0.779,0.313 1.533,0.653 2.343,0.878c0.728,0.202 1.44,0.21 2.209,0.162l5.356,-1.303l5.422,-0.768l3.057,-0.644c0.594,-0.072 1.181,-0.223 1.777,-0.185c0.245,0.016 4.567,-0.339 4.579,-0.295c0.012,0.043 -4.06,1.513 -4.29,1.636c-0.526,0.28 -1.139,0.326 -1.708,0.505l-2.871,1.051l-5.196,1.589c-1.161,0.404 -2.244,1.126 -3.446,1.428c-1.018,0.255 -2.063,0.257 -3.113,-0.003c-0.597,-0.218 -1.136,-0.442 -1.671,-0.757c-1.099,-0.646 -2.085,-1.398 -3.077,-2.202c-1.353,-0.869 -2.778,-1.615 -4.074,-2.567Zm48.344,7.836c-0.301,-0.03 -1.96,-0.741 -1.954,-0.809c0.006,-0.069 1.259,-0.144 1.348,-0.144c1.282,0.003 2.622,0.115 3.883,-0.164c0.353,-0.078 0.673,-0.218 1.007,-0.347l4.906,-2.347c0.59,-0.176 1.18,-0.349 1.782,-0.478c2.276,-0.486 4.612,-0.662 6.872,-1.208c1.357,-0.328 2.706,-0.679 4.007,-1.168c1.374,-0.517 2.678,-1.163 4.059,-1.673c1.5,-0.437 2.999,-0.825 4.531,-0.93c1.474,-0.1 2.908,0.078 4.398,0.06l6.307,-1.27l4.961,-0.724c0.32,-0.053 0.782,-0.201 1.325,-0.218c0.463,-0.015 0.892,0.172 1.397,0.138c0.457,-0.03 0.885,-0.236 1.296,-0.31c0.402,-0.072 0.762,-0.161 1.057,-0.134c0.149,0.013 1.512,-0.193 1.525,-0.155c0.013,0.039 -1.211,0.559 -1.316,0.653c-0.184,0.167 -0.491,0.237 -0.811,0.346c-0.494,0.17 -1.118,0.207 -1.672,0.44c-0.459,0.192 -0.752,0.534 -1.169,0.707c-0.481,0.199 -0.946,0.235 -1.249,0.312l-4.847,0.973l-6.422,1.669c-1.44,0.447 -2.818,0.914 -4.283,1.21c-1.343,0.271 -2.716,0.362 -4.065,0.715c-0.833,0.127 -1.654,0.22 -2.466,0.437c-1.961,0.523 -3.829,1.34 -5.8,1.859l-8.661,1.774l-5.35,0.783c-1.5,0.222 -3.066,0.156 -4.596,0.003Zm28.052,-88.988c-0.192,-0.118 -0.251,-0.369 -0.134,-0.56c0.118,-0.191 0.369,-0.251 0.56,-0.133l1.334,0.969l2.612,2.349c0.395,0.376 0.732,0.787 1.112,1.17c0.59,0.597 1.187,1.097 1.717,1.751c0.208,0.257 0.373,0.541 0.559,0.816c0.54,0.934 1.055,1.902 1.387,2.931c0.353,1.095 0.514,2.24 0.49,3.405c-0.067,2.152 -0.702,4.296 -1.766,6.271c-0.394,0.731 -0.747,1.505 -1.314,2.11c-0.474,0.507 -1.038,0.708 -1.532,1.175c-0.352,0.334 -0.537,0.818 -0.909,1.105c-0.12,0.092 -0.225,0.109 -0.36,0.174c-0.078,0.103 -0.224,0.123 -0.327,0.046c-0.104,-0.077 -0.124,-0.224 -0.047,-0.327c0.024,-0.146 0.008,-0.25 0.06,-0.391c0.159,-0.428 0.541,-0.754 0.715,-1.194c0.237,-0.6 0.146,-1.171 0.351,-1.797c0.342,-1.047 0.892,-2.019 1.216,-3.066c0.412,-1.33 0.634,-2.687 0.533,-4.029c-0.046,-0.645 -0.223,-1.257 -0.402,-1.869c-0.291,-0.994 -0.672,-1.968 -1.149,-2.886c-0.333,-1.05 -0.606,-2.055 -1.092,-3.037c-0.2,-0.404 -0.434,-0.783 -0.683,-1.165l-1.955,-2.726l-0.976,-1.092Zm-195.343,76.231c0,0 -7.38,-1.005 -7.372,-1.138c0.008,-0.133 3.055,-0.37 3.414,-0.388c0.53,-0.027 1.058,0.034 1.585,0.071c0.895,0.065 1.784,0.186 2.669,0.416c0.853,0.211 1.552,0.704 2.341,1.008c0.306,0.117 0.616,0.148 0.946,0.197c0.975,0.124 1.895,0.142 2.877,0.293c1.278,0.197 2.534,0.462 3.808,0.676c0.83,0.139 1.651,0.311 2.481,0.409c1.343,0.207 2.672,0.191 4.003,0.103c2.19,-0.146 4.37,-0.478 6.567,-0.647l4.272,-0.375c1.138,-0.024 2.291,-0.121 3.417,0.058c0.778,0.124 7.114,1.589 7.123,1.894c0.009,0.305 -6.36,0.328 -7.168,0.424c-1.092,0.13 -2.199,-0.031 -3.295,0.016l-3.997,0.641c-2.583,0.488 -5.112,1.266 -7.713,1.546c-1.206,0.13 -2.423,0.126 -3.654,0.007c-1.976,-0.324 -3.985,-0.699 -5.84,-1.498c-1.248,-0.538 -2.319,-1.262 -3.465,-1.964c-0.668,-0.348 -1.215,-0.821 -1.842,-1.217c-0.355,-0.224 -0.74,-0.401 -1.157,-0.532Zm92.263,-6.312c-0.016,0.009 -0.036,0.004 -0.045,-0.012c-0.01,-0.016 -0.004,-0.036 0.012,-0.045c0.462,-0.284 0.946,-0.509 1.441,-0.703c0.994,-0.389 2.058,-0.557 3.099,-0.845c1.053,-0.292 2.014,-0.694 3.003,-1.119c0.422,-0.171 0.796,-0.394 1.217,-0.551c1.7,-0.637 3.418,-1.14 5.151,-1.717l4.086,-1.165c0.37,-0.12 0.697,-0.343 1.075,-0.444c0.52,-0.14 0.894,-0.078 1.428,-0.1c0.028,-0.016 0.064,-0.006 0.08,0.022c0.016,0.028 0.006,0.064 -0.022,0.08c-0.29,0.447 -0.381,0.824 -0.744,1.22c-0.315,0.344 -0.759,0.528 -1.169,0.747l-4.068,1.607c-1.534,0.537 -3.006,1.172 -4.551,1.621c-0.409,0.119 -0.819,0.256 -1.247,0.302c-0.301,0.033 -0.578,0.006 -0.883,-0.004c-0.438,-0.024 -0.828,-0.084 -1.271,-0.097c-0.94,-0.029 -1.872,0.008 -2.81,0.102c-1.32,0.133 -2.598,0.474 -3.782,1.101Zm103.065,-74.609c-0.065,-0.037 -0.088,-0.12 -0.051,-0.185c0.037,-0.066 0.12,-0.089 0.185,-0.052c1.553,0.799 3.195,1.521 4.762,2.345c0.69,0.363 1.364,0.738 2.006,1.163c0.571,0.239 1.11,0.46 1.626,0.827c0.717,0.511 1.281,1.215 1.874,1.835c0.441,0.521 0.914,1.035 1.312,1.596c0.298,0.419 0.56,0.859 0.755,1.337c0.265,0.689 0.461,1.399 0.559,2.133c0.097,0.719 0.184,1.434 0.167,2.157c-0.008,0.335 -0.082,0.609 -0.108,0.94c0.034,0.132 -0.046,0.267 -0.178,0.301c-0.133,0.034 -0.267,-0.046 -0.301,-0.178c-0.201,-0.32 -0.397,-0.588 -0.543,-0.941c-0.498,-1.2 -0.645,-2.526 -1.274,-3.661c-0.165,-0.336 -0.385,-0.635 -0.617,-0.926c-0.398,-0.497 -0.853,-0.954 -1.283,-1.417c-0.437,-0.512 -0.945,-0.988 -1.373,-1.532c-0.443,-0.562 -0.748,-1.16 -1.2,-1.693c-0.564,-0.478 -1.156,-0.924 -1.779,-1.336c-1.472,-0.973 -3.062,-1.794 -4.539,-2.713Z" style="fill:#fff;"/><g><ellipse cx="224.766" cy="157.478" rx="8.216" ry="4.335" style="fill:#669e2c;"/><g><path d="M219.429,156.852c-0.232,-15.704 2.426,-29.701 12.45,-39.344l4.02,2.272c-5.376,10.683 -7.548,22.767 -5.629,36.641c0.041,0.14 0.061,0.284 0.061,0.431c0,1.587 -2.442,2.876 -5.451,2.876c-3.008,-0 -5.451,-1.289 -5.451,-2.876Z" style="fill:#906344;"/><path d="M229.591,145.689c-0.005,0.335 -0.008,0.671 -0.008,1.009c-1.043,0.034 -2.118,-0.012 -3.145,-0.129c-2.244,-0.255 -4.498,-0.844 -6.488,-1.912c0.042,-0.378 0.087,-0.754 0.135,-1.128c0.677,0.452 1.402,0.839 2.181,1.143c1.42,0.556 2.999,0.792 4.507,0.939c0.663,0.065 1.316,0.066 1.981,0.069c0.281,0.001 0.561,0.012 0.837,0.009Z" style="fill:#b58767;"/><path d="M231.461,131.563c-0.042,0.16 -0.082,0.322 -0.122,0.483c-0.648,-0.171 -1.284,-0.39 -1.854,-0.693c-1.046,-0.556 -2.034,-1.167 -2.924,-1.949c-0.718,-0.632 -1.31,-1.358 -1.823,-2.138c0.147,-0.293 0.297,-0.584 0.451,-0.873c0.978,1.599 2.285,2.978 3.955,3.996c0.692,0.422 1.483,0.973 2.317,1.174Z" style="fill:#b58767;"/><path d="M233.512,125.161c-0.118,0.307 -0.234,0.615 -0.347,0.924c-0.319,-0.086 -0.634,-0.187 -0.945,-0.301c-1.895,-0.697 -3.416,-1.94 -4.463,-3.522c0.197,-0.275 0.399,-0.546 0.605,-0.816c0.764,0.978 1.712,1.79 2.752,2.498c0.682,0.465 1.586,1.023 2.398,1.217Z" style="fill:#b58767;"/><path d="M230.27,137.411c-0.027,0.175 -0.052,0.351 -0.077,0.526c-0.496,0.078 -1.02,0.075 -1.412,0.082c-0.214,0.004 -0.909,0.01 -1.2,-0.006c-2.128,-0.117 -4.37,-1.005 -5.938,-2.508c0.074,-0.277 0.151,-0.553 0.23,-0.827c1.474,1.573 3.637,2.543 5.788,2.656c0.705,0.037 1.732,0.215 2.609,0.077Z" style="fill:#b58767;"/><path d="M229.877,153.005c0.029,0.316 0.06,0.633 0.093,0.951c-1.163,0.382 -2.337,0.705 -3.563,0.846c-1.916,0.219 -4.092,0.076 -5.941,-0.514c-0.351,-0.112 -0.7,-0.266 -1.045,-0.439c0.002,-0.133 0.003,-0.265 0.005,-0.397c2.549,0.999 5.432,0.926 8.066,0.312c0.72,-0.168 1.391,-0.386 2.082,-0.647c0.096,-0.036 0.199,-0.073 0.303,-0.112Z" style="fill:#b58767;"/><path d="M224.273,128.226c1.857,-3.974 4.341,-7.577 7.606,-10.718l4.02,2.272c-2.013,3.999 -3.576,8.195 -4.644,12.607c-3.137,-0.236 -5.621,-1.562 -6.982,-4.161Z" style="fill:#6b4124;fill-opacity:0.5;"/></g><g><g><path d="M248.596,126.75c-1.293,-6.202 -5.542,-11.256 -12.616,-11.973c-2.298,3.512 -2.678,6.551 -1.978,9.268c2.703,-2.325 5.716,-2.382 8.901,-1.191c-3.206,0.474 -5.239,2.657 -6.332,6.206c1.323,1.766 2.943,3.407 4.507,4.986c1.592,-0.689 3.215,-0.918 4.876,-0.582c-1.07,0.542 -1.978,1.504 -2.784,2.731c1.526,1.631 2.806,3.224 3.419,4.856c1.65,-3.245 2.454,-6.824 2.43,-10.271c-1.322,-1.93 -2.867,-3.079 -4.555,-3.729c1.499,-0.856 2.877,-0.956 4.132,-0.301Z" style="fill:#bcf146;"/><path d="M245.954,133.464c-1.07,0.542 -1.978,1.504 -2.784,2.731c1.526,1.631 2.806,3.224 3.419,4.856c0.019,-2.253 -0.19,-4.878 -0.635,-7.587Zm0,0c-0.593,-3.614 -1.605,-7.379 -3.051,-10.61c-3.206,0.474 -5.239,2.657 -6.332,6.206c1.323,1.766 2.943,3.407 4.507,4.986c1.592,-0.689 3.215,-0.918 4.876,-0.582Zm-3.051,-10.61c-1.699,-3.8 -3.999,-6.862 -6.923,-8.077c-2.298,3.512 -2.678,6.551 -1.978,9.268c2.703,-2.325 5.716,-2.382 8.901,-1.191Z" style="fill:#a9de35;"/></g><g><path d="M224.494,124.266c-3.839,0.967 -8.462,2.316 -13.585,5.416c0.017,-1.719 0.215,-3.338 0.566,-4.847l2.298,0.033l-2.007,-1.144c0.44,-1.506 1.038,-2.893 1.761,-4.15c1.687,0.17 3.227,0.512 4.362,1.326c-0.489,-1.833 -1.906,-2.585 -3.269,-3.003c5.249,-7.139 14.918,-8.988 21.36,-3.12c-0.164,6.247 -3.44,7.481 -8.77,8.817c-1.499,-1.999 -3.23,-3.812 -5.114,-5.503c1.115,1.961 2.073,3.971 2.398,6.175Z" style="fill:#85b41c;"/><path d="M222.096,118.091c1.115,1.961 2.073,3.971 2.398,6.175c-3.839,0.967 -8.462,2.316 -13.585,5.416c1.778,-4.74 6.324,-8.836 11.187,-11.591Zm5.114,5.503c-1.499,-1.999 -3.23,-3.812 -5.114,-5.503c5.319,-3.013 11.015,-4.422 13.884,-3.314c-0.164,6.247 -3.44,7.481 -8.77,8.817Z" style="fill:#7ca916;"/></g><g><path d="M225.77,108.338c-0.24,-2.138 0.47,-4.276 1.858,-6.415c0.723,1.158 1.586,2.133 2.823,2.615c2.456,-0.886 5.557,-0.514 8.873,1.74c0.513,0.349 0.673,1.003 0.58,1.812c-1.682,-0.754 -3.406,-0.805 -5.165,-0.254c1.726,-0.135 3.315,0.41 4.706,1.95c-0.704,1.777 -2.078,3.769 -3.465,4.991c-4.568,-0.679 -8.469,-2.4 -9.667,-4.273c1.632,-2.656 3.612,-4.465 5.931,-5.442c-2.596,0.35 -4.995,1.035 -6.474,3.276Z" style="fill:#8bae3d;"/><path d="M232.244,105.062c2.621,1.903 5.806,7.891 3.736,9.715c-4.568,-0.679 -8.469,-2.4 -9.667,-4.273c1.632,-2.656 3.612,-4.465 5.931,-5.442Zm-6.474,3.276c-0.24,-2.138 0.47,-4.276 1.858,-6.415c0.723,1.158 1.586,2.133 2.823,2.615c0.498,-0.179 1.127,0.04 1.793,0.524c-2.596,0.35 -4.995,1.035 -6.474,3.276Z" style="fill:#749230;"/></g><g><path d="M233.659,108.52c1.088,1.408 1.886,3.39 2.321,6.257c-6.545,2.002 -11.506,0.992 -15.018,-1.737l3.649,-4.81l-5.561,3.004c-2.281,-2.598 -3.71,-6.074 -4.352,-9.828c6.442,3.551 12.607,2.714 16.7,5.128l-1.065,3.797l3.326,-1.811Z" style="fill:#accf5e;"/><path d="M224.611,108.23c1.983,0.726 3.91,1.282 5.722,2.101c2.061,0.931 3.972,2.201 5.647,4.446c-6.545,2.002 -11.506,0.992 -15.018,-1.737l3.649,-4.81Zm0,0l-5.561,3.004c-2.281,-2.598 -3.71,-6.074 -4.352,-9.828c3.277,3.993 6.669,5.636 9.913,6.824Z" style="fill:#9dc73f;"/></g><g><path d="M251.514,116.898c1.687,1.525 3.384,3.113 5.103,4.413c-1.834,0.71 -3.601,1.229 -5.289,1.528l-1.691,-3.244l0.197,3.452c-1.046,0.105 -2.06,0.115 -3.037,0.024l0.41,-5.082l-2.638,4.678c-3.456,-0.961 -6.37,-3.449 -8.589,-7.89c2.406,-3.011 4.766,-3.812 7.11,-3.351l-0.4,3.54l2.419,-2.852c1.741,0.825 3.479,2.2 5.224,3.731l-1.883,2.955l3.064,-1.902Z" style="fill:#aeda4d;"/><path d="M244.569,122.667c-3.456,-0.961 -6.37,-3.449 -8.589,-7.89c3.533,-2.579 7.14,0.462 11.227,3.212l-2.638,4.678Zm2.638,-4.678c2.856,1.921 5.946,3.7 9.41,3.322c-1.834,0.71 -3.601,1.229 -5.289,1.528l-1.691,-3.244l0.197,3.452c-1.046,0.105 -2.06,0.115 -3.037,0.024l0.41,-5.082Z" style="fill:#a4cc4c;"/></g><g><path d="M243.364,105.062c4.417,-0.7 9.207,3.54 11.175,6.794c-1.033,-0.304 -1.966,-0.405 -2.842,-0.365l-2.218,-2.838l0.963,2.945l-3.264,-3.368l1.911,3.772c-2.075,0.685 -4.074,1.876 -6.737,2.52l-2.214,-4.101l-0,4.473c-1.231,0.117 -2.601,0.101 -4.158,-0.117c1.31,-5.181 3.305,-7.93 5.526,-9.097l2.282,3.057l-0.424,-3.675Z" style="fill:#accf5e;"/><path d="M240.138,110.421l-0,4.473c-1.231,0.117 -2.601,0.101 -4.158,-0.117c1.347,-1.927 2.751,-3.344 4.158,-4.356Zm-0,-0c2.434,-1.752 4.876,-2.294 7.048,-2.175l1.903,3.756c-2.075,0.685 -4.074,1.876 -6.737,2.52l-2.214,-4.101Zm7.055,-2.175c3.664,0.203 6.558,2.285 7.346,3.61c-1.033,-0.304 -1.966,-0.405 -2.842,-0.365l-2.218,-2.838l0.963,2.945l-3.249,-3.352Z" style="fill:#9dc73f;"/></g><g><path d="M235.164,130.119c-1.375,2.101 -3.358,4.056 -5.984,5.857c-0.563,-2.061 -0.977,-3.988 -1.235,-5.774l2.804,-0.574l-2.959,-0.647c-0.118,-1.104 -0.172,-2.149 -0.16,-3.134l4.153,-0.47l-4.056,-1.26c0.296,-2.887 1.269,-5.164 2.971,-6.784l2.663,2.15l-1.668,-2.964c1.166,-0.818 2.591,-1.402 4.287,-1.742c1.933,4.858 2.108,9.294 0.326,13.262l-4.915,-1.219l3.773,3.299Z" style="fill:#accf5e;"/><path d="M231.391,126.82l3.773,3.299c-1.375,2.101 -3.358,4.056 -5.984,5.857c0.893,-3.275 1.568,-6.362 2.211,-9.156Zm4.915,1.219l-4.915,-1.219c1.224,-5.318 2.329,-9.574 4.589,-12.043c1.933,4.858 2.108,9.294 0.326,13.262Z" style="fill:#9dc73f;"/></g></g></g></g></g></svg>