<?xml version="1.0" encoding="UTF-8" standalone="no"?><!DOCTYPE svg PUBLIC "-//W3C//DTD SVG 1.1//EN" "http://www.w3.org/Graphics/SVG/1.1/DTD/svg11.dtd"><svg width="100%" height="100%" viewBox="0 0 300 300" version="1.1" xmlns="http://www.w3.org/2000/svg" xmlns:xlink="http://www.w3.org/1999/xlink" xml:space="preserve" xmlns:serif="http://www.serif.com/" style="fill-rule:evenodd;clip-rule:evenodd;stroke-linejoin:round;stroke-miterlimit:2;"><g id="_250" serif:id="250"><g id="_11" serif:id="11"><g><path d="M135.894,129.525c47.991,0 86.954,20.558 86.954,45.879c-0,25.321 -38.963,45.878 -86.954,45.878c-47.991,0 -86.953,-20.557 -86.953,-45.878c-0,-25.321 38.962,-45.879 86.953,-45.879Zm-82.825,87.613c15.491,0 28.069,6.636 28.069,14.81c-0,8.173 -12.578,14.809 -28.069,14.809c-15.492,0 -28.069,-6.636 -28.069,-14.809c0,-8.174 12.577,-14.81 28.069,-14.81Zm200.981,-30.315c11.563,0 20.95,4.953 20.95,11.054c0,6.1 -9.387,11.053 -20.95,11.053c-11.563,0 -20.95,-4.953 -20.95,-11.053c0,-6.101 9.387,-11.054 20.95,-11.054Zm-172.937,-58.773c-1.084,0 -2.129,0.41 -2.923,1.148c-3.633,3.266 -10.34,5.441 -18.002,5.441c-11.563,-0 -20.95,-4.953 -20.95,-11.054c-0,-4.325 4.718,-8.073 11.585,-9.889c0.529,-0.139 0.897,-0.617 0.897,-1.164c0.006,0 0.006,-0 0.006,-0c0,-8.565 13.179,-15.518 29.412,-15.518c16.232,-0 29.411,6.953 29.411,15.518c-0,8.564 -13.179,15.518 -29.411,15.518c-0.009,-0 -0.017,-0 -0.025,-0Z" style="fill:#f9e594;"/><path d="M81.113,128.05c-1.084,0 -2.129,0.41 -2.923,1.148c-3.633,3.266 -10.34,5.441 -18.002,5.441c-11.563,-0 -20.95,-4.953 -20.95,-11.054c-0,-4.325 4.718,-8.073 11.585,-9.889c0.529,-0.139 0.897,-0.617 0.897,-1.164c0.006,0 0.006,-0 0.006,-0c0,-8.565 13.179,-15.518 29.412,-15.518c16.232,-0 29.411,6.953 29.411,15.518c-0,8.564 -13.179,15.518 -29.411,15.518l-0.025,-0Zm-27.697,-16.572c-0.142,1.615 -0.318,4.385 -1.909,4.805c-3.003,0.794 -6.565,0.869 -8.347,2.36c-1.352,1.131 -0.379,1.772 -0.379,3.207c0,1.668 -2.422,4.55 0.714,7.247c3.229,2.776 6.884,2.637 13.172,2.637c3.071,-0 9.75,0.82 12.503,0.6c3.411,-0.272 5.796,-2.144 7.6,-3.761c1.288,-1.188 2.975,-1.849 4.728,-1.85l0.025,0.001c9.09,-0 16.74,-1.582 21.785,-7.202c2.275,-2.535 6.397,-4.096 6.397,-6.749c-0,-2.654 -3.102,-6.978 -5.867,-8.967c-4.996,-3.595 -13.611,-4.116 -22.7,-4.116c-9.09,-0 -18.139,0.569 -23.135,4.164c-2.765,1.989 -4.565,4.626 -4.565,7.28c0,0.115 -0.007,0.23 -0.022,0.344Zm82.478,18.047c47.991,0 86.954,20.558 86.954,45.879c-0,25.321 -38.963,45.878 -86.954,45.878c-47.991,0 -86.953,-20.557 -86.953,-45.878c-0,-25.321 38.962,-45.879 86.953,-45.879Zm-0.151,1.245c-28.144,0 -51.102,9.804 -66.573,20.936c-9.747,7.014 -19.211,13.589 -19.211,22.944c0,9.356 7.584,18.656 17.331,25.669c15.471,11.133 40.384,19.342 68.529,19.342c28.144,-0 50.497,-10.652 65.967,-21.784c9.747,-7.014 20.118,-12.063 20.118,-21.419c0,-9.355 -7.659,-18.956 -17.406,-25.97c-15.471,-11.133 -40.61,-19.718 -68.755,-19.718Zm-82.674,86.368c15.491,0 28.069,6.636 28.069,14.81c-0,8.173 -12.578,14.809 -28.069,14.809c-15.492,0 -28.069,-6.636 -28.069,-14.809c0,-8.174 12.577,-14.81 28.069,-14.81Zm-0.241,0.989c-8.645,-0 -17.119,2.263 -21.871,5.682c-2.601,1.872 -5.089,6.305 -5.089,8.802c0,2.497 3.512,4.037 6.114,5.909c4.752,3.419 12.261,7.249 20.906,7.249c8.645,-0 16.516,-3.83 21.268,-7.249c2.602,-1.872 6.053,-3.774 6.053,-6.271c0,-2.497 -3.451,-5.001 -6.053,-6.873c-4.752,-3.42 -12.683,-7.249 -21.328,-7.249Zm201.222,-31.304c11.563,0 20.95,4.953 20.95,11.054c0,6.1 -9.387,11.053 -20.95,11.053c-11.563,0 -20.95,-4.953 -20.95,-11.053c0,-6.101 9.387,-11.054 20.95,-11.054Zm-0.289,0.94c-6.288,0 -13.333,2.067 -16.789,4.554c-1.738,1.251 -3.269,3.843 -1.967,5.56c1.008,1.329 1.338,4.598 3.076,5.848c3.456,2.487 9.682,1.661 15.969,1.661c6.287,0 12.754,0.875 16.21,-1.612c1.739,-1.251 3.8,-4.229 3.8,-5.897c-0,-1.669 -2.592,-4.647 -4.33,-5.897c-3.456,-2.487 -9.682,-4.217 -15.969,-4.217Z" style="fill:#dfc86d;"/><g><path d="M99.981,149.845c-1.37,-0.45 -3.185,-1.681 -3.744,-3.093c-0.533,-1.347 -0.414,-3.465 0.629,-4.585c0.406,-0.435 1,-0.473 1.516,-0.681c0.501,-0.202 0.903,-0.506 1.461,-0.566c1.394,-0.148 2.321,0.688 3.287,1.565c0.501,0.455 1.099,0.989 1.37,1.628c0.233,0.548 0.251,1.199 0.333,1.782c0.088,0.636 0.349,1.505 0.068,2.119c-0.409,0.896 -2.15,1.791 -3.032,1.966c-0.306,0.061 -1.33,0.048 -1.888,-0.135Z" style="fill:#a5a39d;"/><path d="M105.026,147.426c-0.008,0.21 -0.044,0.41 -0.125,0.588c-0.409,0.896 -2.15,1.791 -3.032,1.966c-0.306,0.061 -1.33,0.048 -1.888,-0.135c-1.37,-0.45 -3.185,-1.681 -3.744,-3.093c-0.442,-1.115 -0.436,-2.759 0.171,-3.927c-0.244,1.013 -0.165,2.158 0.169,3.002c0.558,1.412 2.374,2.642 3.743,3.092c0.558,0.184 1.582,0.197 1.889,0.136c0.77,-0.154 2.196,-0.856 2.817,-1.629Z" style="fill:#878787;"/><path d="M102.606,146.216c-0.18,0.062 -0.367,0.084 -0.557,0.092c-0.124,0.005 -0.248,-0.011 -0.371,-0.025c-0.735,-0.084 -0.775,-0.574 -1.142,-1.147c-0.227,-0.354 -0.517,-0.662 -0.742,-1.017c-0.293,-0.462 -0.914,-1.45 -0.233,-1.871c0.136,-0.084 0.291,-0.145 0.443,-0.192c1.616,-0.498 2.495,1.024 3.348,2.142c0.192,0.251 0.434,0.501 0.538,0.807c0.169,0.491 -0.422,0.913 -1.284,1.211Z" style="fill:#aeaeae;"/></g><g><path d="M89.509,160.029c-1.735,0.536 -4.264,0.935 -6.132,0.638c-0.992,-0.159 -1.827,-0.681 -2.61,-1.287c-2.1,-1.622 -6.187,-5.141 -4.67,-8.22c0.512,-1.04 1.611,-1.604 2.606,-2.097c2.062,-1.023 4.33,-2.117 6.532,-2.788c1.763,-0.538 3.449,0.009 5.108,0.604c2.438,0.874 4.718,1.721 6.905,3.148c2.061,1.344 3.228,3.481 1.423,5.576c-1.494,1.735 -7.364,3.87 -9.162,4.426Z" style="fill:#a5a39d;"/><path d="M85.984,146.988c-0.401,0.215 -0.717,0.517 -1.033,0.843c-0.38,0.394 -0.912,0.892 -1.141,1.406c-0.43,0.966 -0.228,2.243 -0.272,3.267c-0.026,0.6 -0.249,1.549 0.02,2.12c0.117,0.248 0.389,0.459 0.602,0.62c0.148,0.112 0.31,0.217 0.481,0.29c1.489,0.643 3.291,0.097 4.788,-0.217c1.327,-0.279 2.649,-0.559 3.972,-0.851c0.799,-0.177 1.606,-0.291 2.371,-0.595c0.78,-0.31 2.275,-1.168 1.54,-2.249c-0.499,-0.734 -1.743,-0.969 -2.506,-1.333c-1.71,-0.815 -3.373,-1.678 -5.118,-2.418c-0.857,-0.364 -2.812,-1.728 -3.704,-0.883Z" style="fill:#aeaeae;"/><path d="M99.416,152.553c0.315,0.959 0.152,2.01 -0.745,3.05c-1.494,1.735 -7.364,3.87 -9.162,4.426c-1.735,0.536 -4.264,0.935 -6.132,0.638c-0.992,-0.159 -1.827,-0.681 -2.61,-1.287c-1.977,-1.527 -5.714,-4.735 -4.881,-7.674c0.598,2.372 3.301,4.665 4.881,5.885c0.783,0.606 1.618,1.128 2.61,1.286c1.868,0.298 4.397,-0.101 6.132,-0.637c1.798,-0.556 7.668,-2.691 9.162,-4.426c0.363,-0.421 0.606,-0.843 0.745,-1.261Z" style="fill:#878787;"/></g><g><path d="M102.563,111.958c0.132,0.313 -0.02,0.565 -0.475,0.666l-17.902,4l1.799,0.274l0.181,2.192c0.021,0.167 -0.096,0.298 -0.359,0.356l-14.855,3.32c-0.561,0.125 -1.578,-0.126 -2.269,-0.562l-9.083,-5.723c-0.459,-0.289 -0.659,-0.587 -0.577,-0.792l0.732,-2.071l1.984,1.317l2.082,-0.466l-4.221,-2.66c-0.452,-0.284 -0.653,-0.578 -0.581,-0.782c0.002,-0.004 0.728,-1.895 0.728,-1.895l2.041,1.12l4.091,-0.914l-1.569,-0.989c-0.667,-0.42 -0.955,-0.853 -0.829,-1.148l0.566,-1.735l1.687,1.026l19.653,-4.392c0.809,-0.18 2.274,0.182 3.27,0.809l11.746,7.402l1.427,-0.302l0.733,1.949Z" style="fill:#669e2c;"/><path d="M66.383,107.474l-1.516,-0.955c-0.962,-0.607 -1.108,-1.241 -0.326,-1.415l20.691,-4.624c0.782,-0.174 2.198,0.176 3.16,0.782l12.652,7.973c0.962,0.606 1.108,1.24 0.326,1.414l-18.353,4.101l2.395,1.51c0.668,0.42 0.769,0.86 0.227,0.981l-14.354,3.207c-0.543,0.122 -1.525,-0.121 -2.192,-0.542l-8.778,-5.53c-0.667,-0.421 -0.768,-0.861 -0.226,-0.982l4.305,-0.962l-4.079,-2.57c-0.667,-0.421 -0.768,-0.86 -0.226,-0.982l6.294,-1.406Z" style="fill:#8bc350;"/><path d="M208.203,168.012c0.512,0.826 0.224,1.511 -0.929,1.769l-29.492,6.59l9.112,5.741l1.847,0.028l1.03,2.456c0.106,0.186 0.181,0.366 0.225,0.539c0.207,0.811 -0.282,1.452 -1.513,1.727l-64.134,14.33c-2.424,0.542 -6.812,-0.544 -9.794,-2.422l-39.216,-24.712c-2.061,-1.298 -2.913,-2.638 -2.443,-3.52c0.04,-0.076 0.09,-0.149 0.151,-0.218l1.476,-2.127l2.068,0.975l44.232,-9.884l-6.476,-4.08c-1.456,-0.918 -2.11,-1.862 -1.89,-2.524l0.698,-2.12l2.154,0.962l46.5,-10.39c1.822,-0.407 5.122,0.409 7.364,1.821l36.807,23.193l0.665,-0.376l1.401,2.015c0.056,0.076 0.108,0.152 0.157,0.227Z" style="fill:#669e2c;"/><path d="M121.33,156.907l-6.31,-3.976c-2.184,-1.376 -2.516,-2.816 -0.74,-3.213l46.986,-10.498c1.775,-0.397 4.99,0.398 7.175,1.775l36.385,22.927c2.184,1.376 2.516,2.816 0.74,3.213l-28.736,6.42l9.442,5.95c2.905,1.831 3.346,3.745 0.984,4.273l-62.49,13.963c-2.362,0.528 -6.638,-0.53 -9.543,-2.361l-38.211,-24.078c-2.905,-1.83 -3.346,-3.745 -0.985,-4.273l45.303,-10.122Z" style="fill:#8bc350;"/></g></g><path d="M212.083,196.549c0.222,-0.164 3.092,-2.382 3.132,-2.333c0.039,0.05 -2.471,3.485 -2.841,3.799c-1.47,1.248 -3.023,2.413 -4.472,3.71c-2.218,1.984 -4.157,4.179 -6.481,6.031c-1.852,1.476 -3.863,2.714 -5.862,3.947c-2.994,1.934 -6.056,3.748 -9.283,5.293c-4.839,2.318 -9.949,4.041 -15.085,5.49c-1.167,0.367 -2.318,0.801 -3.511,1.115c-1.905,0.5 -3.859,0.795 -5.806,0.994c-1.61,0.072 -3.206,0.28 -4.796,0.096c-0.735,-0.086 -1.331,-0.391 -2.066,-0.47c-2.228,-0.239 -4.48,0.177 -6.708,-0.009c-2.425,-0.203 -4.726,-0.833 -7.144,-1.14c-3.522,-0.447 -16.473,-1.872 -16.987,-2.204c0.62,-0.306 6.765,-0.508 7.116,-0.501c3.158,0.063 6.306,0.3 9.448,0.157c2.388,-0.109 4.67,-0.625 7.049,-0.818c2.309,-0.186 4.676,0.128 6.941,-0.386c0.683,-0.155 1.192,-0.549 1.867,-0.739c1.425,-0.401 2.895,-0.547 4.349,-0.878l8.55,-1.906c3.266,-0.72 6.513,-1.581 9.705,-2.64c1.913,-0.634 3.772,-1.415 5.67,-2.093c1.155,-0.413 2.333,-0.694 3.475,-1.139c1.703,-0.663 3.336,-1.477 4.967,-2.29c2.006,-0.988 3.924,-2.149 5.912,-3.211c2.036,-1.088 4.138,-1.932 6.116,-3.134c2.36,-1.434 4.55,-3.112 6.745,-4.741Zm-137.165,44.197c0.592,-0.335 1.975,-1.027 2.006,-0.978c0.032,0.05 -0.988,1.271 -1.508,1.701c-1.202,0.995 -2.555,1.804 -3.956,2.475c-2.605,1.489 -5.391,2.735 -8.343,3.617c-4.414,1.318 -9.084,1.833 -13.551,1.954c-2.181,0.066 -4.6,0.206 -6.92,-0.144c-1.652,-0.249 -3.226,-0.766 -4.659,-1.422c-1.099,-0.556 -2.172,-1.168 -3.137,-1.968c-0.779,-0.647 -1.42,-1.391 -2.147,-2.108c-1.043,-1.028 -2.458,-1.757 -3.126,-3.014c-0.198,-0.373 -1.963,-2.315 -2.044,-2.723c0.386,0.007 2.991,1.926 3.116,2.015c1.201,0.853 2.375,1.797 3.669,2.568c1.561,0.93 3.209,1.587 4.926,2.01c0.93,0.297 1.928,0.421 2.939,0.592c2.467,0.417 5.073,0.675 7.419,0.768c3.534,0.174 7.198,-0.026 10.82,-0.506c3.668,-0.486 7.272,-1.227 10.629,-2.513c1.367,-0.623 2.554,-1.582 3.867,-2.324Zm198.596,-39.205c0.211,-0.203 0.924,-1.162 0.957,-1.142c0.032,0.02 -0.326,1.391 -0.485,1.715c-0.937,1.91 -2.729,3.221 -4.382,4.572c-0.717,0.587 -1.412,1.174 -2.181,1.703c-1.143,0.788 -2.324,1.494 -3.605,2.031c-1.942,0.814 -4.021,1.218 -6.025,1.499c-1.2,0.152 -2.41,0.186 -3.618,0.133c-1.16,-0.051 -2.317,-0.187 -3.463,-0.327c-1.673,-0.4 -3.527,-1.103 -5.266,-2.019c-0.777,-0.409 -1.609,-0.706 -2.202,-1.279c-0.365,-0.353 -3.911,-2.472 -4.168,-2.874c0.409,-0.061 4.085,1.629 4.52,1.657c2.463,0.156 5.18,1.321 7.505,1.303c1.28,0.157 2.576,0.29 3.872,0.335c0.825,0.029 1.651,0.029 2.474,-0.05c1.811,-0.149 3.646,-0.567 5.478,-1.034c1.852,-0.473 3.713,-0.883 5.394,-1.771c2.044,-1.082 3.535,-2.856 5.195,-4.452Zm-168.986,-80.469c2.011,-1.396 5.391,-5.801 5.569,-5.717c0.179,0.083 -2.159,5.649 -4.036,7.544c-1.882,1.901 -4.18,3.368 -6.603,4.675c-1.175,0.543 -2.365,1.051 -3.59,1.446c-1.271,0.41 -2.578,0.699 -3.92,0.849l-8.313,0.115l-2.807,0.047c-0.593,0.077 -1.12,0.212 -1.627,0.413c-0.916,0.362 -1.761,0.815 -2.721,1.247c0,0 -5.344,1.531 -5.42,1.351c-0.075,-0.18 4.446,-2.987 4.446,-2.987c0.88,-0.671 1.629,-1.348 2.492,-1.92c0.648,-0.428 1.357,-0.75 2.168,-1.017l3.356,-0.394l8.005,-0.444c1.109,-0.136 2.181,-0.409 3.236,-0.739c1.101,-0.345 2.185,-0.751 3.25,-1.208c2.334,-0.835 4.535,-1.888 6.515,-3.261Zm-47.746,13.221c0.986,0.159 3.374,0.235 3.394,0.346c0.019,0.111 -2.418,0.476 -3.47,0.442c-1.545,-0.051 -3.103,-0.319 -4.551,-0.542c-1.458,-0.242 -2.918,-0.356 -4.353,-0.659c-0.647,-0.136 -1.284,-0.321 -1.916,-0.55c-0.795,-0.293 -1.532,-0.643 -2.217,-1.08c-0.671,-0.429 -1.285,-0.944 -1.898,-1.495l-1.559,-1.729l-1.086,-3.119c-0.144,-0.619 -0.525,-1.149 -0.367,-1.73c0.073,-0.267 0.568,-1.925 0.63,-1.929c0.062,-0.003 0.264,1.547 0.407,1.758c0.306,0.454 0.375,0.959 0.597,1.493l1.306,2.518l1.389,1.221l3.527,2.282l5.832,1.687c1.374,0.394 2.847,0.847 4.335,1.086Zm35.565,80.558c0.495,0.263 1.686,0.762 1.684,0.768c-0.002,0.006 -1.436,0.252 -2.006,0.197c-4.663,-0.449 -9.222,-1.923 -13.658,-3.561c-4.994,-1.844 -9.634,-4.511 -13.878,-7.708c-0.876,-0.698 -1.698,-1.423 -2.454,-2.21c-1.104,-1.148 -2.084,-2.387 -3.101,-3.653c-0.968,-1.262 -1.911,-2.488 -2.805,-3.768c-0.145,-0.208 -1.333,-2.517 -1.507,-2.968c-0.334,-0.864 -0.987,-1.567 -1.44,-2.399c0.567,0.753 1.038,1.584 1.765,2.15c0.415,0.323 4.557,4.117 5.833,5.311l5.65,4.958c2.423,1.797 5.02,3.318 7.694,4.701c1.884,0.973 3.832,1.821 5.762,2.718c4.135,1.922 8.474,3.343 12.461,5.464Zm-11.442,2.797c-0.214,-0.192 -3.4,-2.146 -3.334,-2.268c0.067,-0.123 3.689,1.154 3.989,1.229c2.233,0.552 4.197,1.852 6.405,2.454c1.075,0.293 2.159,0.472 3.25,0.709c1.57,0.199 3.08,0.22 4.644,0.518c0.373,0.071 0.735,0.193 1.098,0.308c4.238,1.342 8.437,2.805 12.754,3.761l5.198,0.679c0.476,0.055 0.956,0.076 1.425,0.176c1.136,0.243 2.118,0.745 3.251,1.008c1.028,0.239 2.081,0.313 3.123,0.463c0.015,0.001 0.025,0.013 0.024,0.028c-0.001,0.014 -0.014,0.024 -0.028,0.023c-1.318,-0.016 -2.633,-0.17 -3.95,-0.065c-0.838,0.068 -1.559,0.368 -2.397,0.443c-0.52,0.047 -1.041,-0.006 -1.562,-0.003l-5.504,-0.179c-4.534,-0.481 -9.082,-1.166 -13.502,-2.379c-0.377,-0.103 -0.758,-0.203 -1.118,-0.356c-1.493,-0.635 -2.767,-1.5 -4.167,-2.3c-0.535,-0.283 -1.032,-0.589 -1.584,-0.833c-2.183,-0.967 -4.465,-1.66 -6.612,-2.702c-0.471,-0.229 -1.011,-0.362 -1.403,-0.714Zm153.854,-5.893c-0.056,-0.036 -0.074,-0.11 -0.038,-0.167c0.035,-0.057 0.11,-0.074 0.166,-0.038c1.678,0.806 3.308,1.475 4.999,2.072c1.671,0.59 3.347,1.073 5.136,1.5l6.233,0.997l5.262,0.039l2.843,-0.153c1.134,-0.196 2.18,-0.781 3.319,-1.131c0.913,-0.281 1.727,-0.333 2.638,-0.433c0.023,-0.011 0.05,-0.001 0.061,0.022c0.01,0.023 0,0.05 -0.023,0.061c-0.825,0.746 -1.408,1.604 -2.314,2.33c-0.904,0.726 -1.992,1.162 -3.054,1.519l-3.083,0.64c-1.154,0.318 -2.248,0.717 -3.421,0.875c-0.838,0.113 -1.692,0.058 -2.552,-0.025c-0.972,-0.142 -1.945,-0.336 -2.893,-0.648c-1.351,-0.444 -2.636,-1.04 -3.889,-1.637c-1.723,-0.829 -3.323,-1.683 -4.888,-2.655c-1.549,-0.963 -3.016,-1.994 -4.502,-3.168Zm-66.763,-78.62c-0,-0 -5.056,-1.287 -5.043,-1.354c0.014,-0.067 5.304,0.108 5.304,0.108c2.601,0.256 5.118,0.613 7.643,1.193c1.049,0.241 2.075,0.576 3.123,0.844l7.712,2.393c1.521,0.564 3.069,1.095 4.419,1.981c0.841,0.552 4.267,3.46 4.332,3.69c-0.22,0.093 -4.301,-1.434 -5.257,-1.732c-1.458,-0.453 -2.809,-1.188 -4.275,-1.642l-7.735,-1.755c-1.058,-0.309 -2.123,-0.588 -3.153,-0.965c-2.388,-0.874 -4.632,-1.965 -7.07,-2.761Z" style="fill:#fff;"/><g><ellipse cx="78.559" cy="108.919" rx="8.575" ry="4.524" style="fill:#669e2c;"/><g><path d="M84.128,108.265c0.243,-16.389 -2.531,-30.996 -12.993,-41.059l-4.194,2.371c5.61,11.148 7.877,23.759 5.874,38.238c-0.042,0.147 -0.064,0.297 -0.064,0.45c0,1.656 2.549,3.001 5.689,3.001c3.139,0 5.688,-1.345 5.688,-3.001Z" style="fill:#906344;"/><path d="M73.524,96.615c0.005,0.35 0.008,0.701 0.008,1.053c1.088,0.036 2.21,-0.013 3.282,-0.134c2.342,-0.266 4.694,-0.881 6.771,-1.996c-0.044,-0.394 -0.091,-0.786 -0.141,-1.177c-0.706,0.472 -1.463,0.875 -2.276,1.193c-1.482,0.58 -3.13,0.826 -4.704,0.98c-0.691,0.067 -1.373,0.069 -2.067,0.072c-0.293,0.002 -0.585,0.013 -0.873,0.009Z" style="fill:#b58767;"/><path d="M71.572,81.873c0.043,0.168 0.086,0.336 0.128,0.505c0.676,-0.179 1.34,-0.407 1.934,-0.723c1.092,-0.58 2.123,-1.218 3.051,-2.034c0.75,-0.66 1.368,-1.418 1.903,-2.232c-0.153,-0.306 -0.31,-0.609 -0.47,-0.91c-1.021,1.668 -2.385,3.107 -4.128,4.169c-0.722,0.44 -1.547,1.015 -2.418,1.225Z" style="fill:#b58767;"/><path d="M69.431,75.192c0.124,0.321 0.244,0.642 0.363,0.965c0.333,-0.09 0.662,-0.195 0.986,-0.314c1.978,-0.727 3.565,-2.025 4.658,-3.676c-0.207,-0.287 -0.417,-0.57 -0.632,-0.851c-0.797,1.02 -1.786,1.868 -2.872,2.607c-0.712,0.485 -1.655,1.067 -2.503,1.269Z" style="fill:#b58767;"/><path d="M72.815,87.977c0.028,0.182 0.055,0.365 0.081,0.549c0.517,0.081 1.064,0.078 1.472,0.085c0.225,0.004 0.949,0.01 1.253,-0.007c2.221,-0.121 4.56,-1.048 6.197,-2.617c-0.078,-0.289 -0.158,-0.576 -0.24,-0.863c-1.539,1.641 -3.795,2.655 -6.04,2.773c-0.736,0.038 -1.807,0.224 -2.723,0.08Z" style="fill:#b58767;"/><path d="M73.225,104.25c-0.03,0.33 -0.062,0.661 -0.097,0.993c1.214,0.398 2.439,0.736 3.719,0.882c1.999,0.229 4.27,0.08 6.2,-0.536c0.365,-0.116 0.73,-0.277 1.089,-0.458c-0.001,-0.139 -0.003,-0.277 -0.004,-0.415c-2.66,1.043 -5.669,0.967 -8.418,0.326c-0.751,-0.175 -1.451,-0.402 -2.173,-0.675c-0.1,-0.038 -0.207,-0.076 -0.316,-0.117Z" style="fill:#b58767;"/><path d="M79.073,78.391c-1.938,-4.147 -4.53,-7.907 -7.938,-11.185l-4.194,2.371c2.1,4.173 3.732,8.552 4.846,13.157c3.274,-0.246 5.867,-1.63 7.286,-4.343Z" style="fill:#6b4124;fill-opacity:0.5;"/></g><g><g><path d="M53.69,76.85c1.349,-6.471 5.783,-11.746 13.166,-12.494c2.398,3.665 2.795,6.836 2.064,9.672c-2.82,-2.426 -5.965,-2.486 -9.289,-1.243c3.346,0.495 5.467,2.773 6.608,6.476c-1.381,1.844 -3.071,3.556 -4.703,5.204c-1.662,-0.719 -3.356,-0.958 -5.089,-0.607c1.117,0.565 2.065,1.569 2.906,2.85c-1.593,1.701 -2.929,3.364 -3.568,5.067c-1.723,-3.386 -2.562,-7.121 -2.536,-10.718c1.379,-2.014 2.992,-3.214 4.753,-3.893c-1.564,-0.892 -3.002,-0.997 -4.312,-0.314Z" style="fill:#bcf146;"/><path d="M56.447,83.858c1.117,0.565 2.065,1.569 2.906,2.85c-1.593,1.701 -2.929,3.364 -3.568,5.067c-0.02,-2.351 0.198,-5.09 0.662,-7.917Zm0,-0c0.619,-3.772 1.675,-7.701 3.184,-11.073c3.346,0.495 5.467,2.773 6.608,6.476c-1.381,1.844 -3.071,3.556 -4.703,5.204c-1.662,-0.719 -3.356,-0.958 -5.089,-0.607Zm3.184,-11.073c1.774,-3.965 4.173,-7.161 7.225,-8.429c2.398,3.665 2.795,6.836 2.064,9.672c-2.82,-2.426 -5.965,-2.486 -9.289,-1.243Z" style="fill:#a9de35;"/></g><g><path d="M78.842,74.258c4.008,1.009 8.831,2.418 14.178,5.653c-0.018,-1.794 -0.224,-3.484 -0.59,-5.059l-2.399,0.035l2.095,-1.194c-0.46,-1.572 -1.083,-3.019 -1.838,-4.331c-1.761,0.177 -3.367,0.534 -4.552,1.383c0.51,-1.912 1.988,-2.697 3.411,-3.133c-5.478,-7.45 -15.568,-9.381 -22.291,-3.256c0.172,6.519 3.59,7.806 9.153,9.201c1.563,-2.086 3.37,-3.978 5.336,-5.743c-1.163,2.047 -2.163,4.144 -2.503,6.444Z" style="fill:#85b41c;"/><path d="M81.345,67.814c-1.163,2.047 -2.163,4.144 -2.503,6.444c4.008,1.009 8.831,2.418 14.178,5.653c-1.856,-4.947 -6.6,-9.222 -11.675,-12.097Zm-5.336,5.743c1.563,-2.086 3.37,-3.978 5.336,-5.743c-5.55,-3.144 -11.495,-4.614 -14.489,-3.458c0.172,6.519 3.59,7.806 9.153,9.201Z" style="fill:#7ca916;"/></g><g><path d="M77.511,57.636c0.25,-2.231 -0.491,-4.463 -1.939,-6.694c-0.754,1.208 -1.655,2.225 -2.946,2.728c-2.563,-0.924 -5.799,-0.536 -9.259,1.817c-0.536,0.364 -0.703,1.046 -0.606,1.89c1.755,-0.787 3.554,-0.839 5.39,-0.265c-1.801,-0.141 -3.459,0.428 -4.911,2.035c0.735,1.855 2.169,3.934 3.616,5.209c4.767,-0.709 8.838,-2.505 10.089,-4.459c-1.704,-2.773 -3.77,-4.66 -6.19,-5.68c2.709,0.366 5.213,1.08 6.756,3.419Z" style="fill:#8bae3d;"/><path d="M70.755,54.217c-2.735,1.986 -6.059,8.236 -3.899,10.139c4.767,-0.709 8.838,-2.505 10.089,-4.459c-1.704,-2.773 -3.77,-4.66 -6.19,-5.68Zm6.756,3.419c0.25,-2.231 -0.491,-4.463 -1.939,-6.694c-0.754,1.208 -1.655,2.225 -2.946,2.728c-0.52,-0.187 -1.176,0.042 -1.871,0.547c2.709,0.366 5.213,1.08 6.756,3.419Z" style="fill:#749230;"/></g><g><path d="M69.279,57.826c-1.136,1.469 -1.969,3.537 -2.423,6.53c6.831,2.089 12.007,1.035 15.673,-1.812l-3.808,-5.02l5.803,3.134c2.38,-2.711 3.872,-6.339 4.542,-10.257c-6.723,3.707 -13.157,2.833 -17.429,5.353l1.112,3.962l-3.47,-1.89Z" style="fill:#accf5e;"/><path d="M78.721,57.524c-2.069,0.757 -4.081,1.338 -5.972,2.192c-2.15,0.971 -4.145,2.297 -5.893,4.64c6.831,2.089 12.007,1.035 15.673,-1.812l-3.808,-5.02Zm-0,-0l5.803,3.134c2.38,-2.711 3.872,-6.339 4.542,-10.257c-3.421,4.168 -6.96,5.883 -10.345,7.123Z" style="fill:#9dc73f;"/></g><g><path d="M50.645,66.569c-1.76,1.591 -3.531,3.249 -5.325,4.605c1.914,0.741 3.757,1.284 5.519,1.595l1.764,-3.385l-0.205,3.602c1.092,0.109 2.15,0.121 3.17,0.026l-0.429,-5.304l2.754,4.881c3.607,-1.002 6.647,-3.598 8.963,-8.233c-2.511,-3.142 -4.974,-3.978 -7.42,-3.498l0.417,3.695l-2.524,-2.976c-1.817,0.861 -3.63,2.295 -5.452,3.893l1.966,3.084l-3.198,-1.985Z" style="fill:#aeda4d;"/><path d="M57.893,72.589c3.607,-1.002 6.647,-3.598 8.963,-8.233c-3.687,-2.692 -7.451,0.482 -11.717,3.352l2.754,4.881Zm-2.754,-4.881c-2.98,2.005 -6.205,3.862 -9.819,3.466c1.914,0.741 3.757,1.284 5.519,1.595l1.764,-3.385l-0.205,3.602c1.092,0.109 2.15,0.121 3.17,0.026l-0.429,-5.304Z" style="fill:#a4cc4c;"/></g><g><path d="M59.15,54.217c-4.61,-0.73 -9.608,3.695 -11.662,7.09c1.078,-0.316 2.051,-0.422 2.966,-0.381l2.314,-2.961l-1.004,3.073l3.406,-3.514l-1.995,3.936c2.166,0.714 4.252,1.957 7.031,2.63l2.311,-4.28l-0,4.668c1.285,0.122 2.714,0.105 4.339,-0.122c-1.367,-5.407 -3.449,-8.276 -5.766,-9.494l-2.382,3.191l0.442,-3.836Z" style="fill:#accf5e;"/><path d="M62.517,59.81l-0,4.668c1.285,0.122 2.714,0.105 4.339,-0.122c-1.406,-2.011 -2.871,-3.49 -4.339,-4.546Zm-0,-0c-2.54,-1.829 -5.088,-2.394 -7.355,-2.27l-1.987,3.92c2.166,0.714 4.252,1.957 7.031,2.63l2.311,-4.28Zm-7.363,-2.27c-3.823,0.212 -6.843,2.385 -7.666,3.767c1.078,-0.316 2.051,-0.422 2.966,-0.381l2.314,-2.961l-1.004,3.073l3.39,-3.498Z" style="fill:#9dc73f;"/></g><g><path d="M67.708,80.367c1.434,2.192 3.504,4.232 6.245,6.112c0.587,-2.151 1.019,-4.162 1.289,-6.025l-2.927,-0.599l3.088,-0.676c0.124,-1.152 0.18,-2.243 0.167,-3.271l-4.334,-0.491l4.233,-1.314c-0.309,-3.012 -1.324,-5.389 -3.101,-7.079l-2.779,2.243l1.741,-3.093c-1.217,-0.854 -2.704,-1.463 -4.474,-1.818c-2.017,5.069 -2.199,9.699 -0.34,13.84l5.129,-1.272l-3.937,3.443Z" style="fill:#accf5e;"/><path d="M71.645,76.924l-3.937,3.443c1.434,2.192 3.504,4.232 6.245,6.112c-0.932,-3.418 -1.637,-6.639 -2.308,-9.555Zm-5.129,1.272l5.129,-1.272c-1.277,-5.55 -2.43,-9.991 -4.789,-12.568c-2.017,5.069 -2.199,9.699 -0.34,13.84Z" style="fill:#9dc73f;"/></g></g></g></g></g></svg>