<?xml version="1.0" encoding="UTF-8" standalone="no"?><!DOCTYPE svg PUBLIC "-//W3C//DTD SVG 1.1//EN" "http://www.w3.org/Graphics/SVG/1.1/DTD/svg11.dtd"><svg width="100%" height="100%" viewBox="0 0 300 300" version="1.1" xmlns="http://www.w3.org/2000/svg" xmlns:xlink="http://www.w3.org/1999/xlink" xml:space="preserve" xmlns:serif="http://www.serif.com/" style="fill-rule:evenodd;clip-rule:evenodd;stroke-linejoin:round;stroke-miterlimit:2;"><g id="_250" serif:id="250"><g id="_1" serif:id="1"><g><g><path d="M147.85,178.158c-4.993,0.598 -14.604,3.163 -20.77,6.084c-10.331,4.895 -22.85,16.715 -44.15,16.715c-24.649,-0 -44.662,-10.559 -44.662,-23.565c0,-3.02 1.079,-5.908 3.045,-8.562c6.059,-8.267 7.936,-18.878 5.083,-28.721c-0.66,-2.296 -1.008,-4.645 -1.008,-7.037c0,-25.35 39.008,-45.931 87.054,-45.931c6.543,-0 12.919,0.382 19.051,1.105c3.714,0.456 7.483,0.107 11.05,-1.02c8.562,-2.621 18.472,-4.083 29.024,-4.083c32.633,0 59.126,13.979 59.126,31.196c0,0.836 -0.062,1.665 -0.185,2.485c-1.275,8.865 2.824,17.643 10.44,22.356c8.734,5.566 14.052,12.63 14.052,20.344c-0,17.218 -26.493,31.196 -59.126,31.196c-14.823,0 -28.38,-2.884 -38.762,-7.646c-9.153,-4.181 -19.245,-5.876 -29.262,-4.916Z" style="fill:#f9e594;"/><path d="M147.85,178.158c-4.993,0.598 -14.604,3.163 -20.77,6.084c-10.331,4.895 -22.85,16.715 -44.15,16.715c-24.649,-0 -44.662,-10.559 -44.662,-23.565c0,-3.02 1.079,-5.908 3.045,-8.562c6.059,-8.267 7.936,-18.878 5.083,-28.721c-0.66,-2.296 -1.008,-4.645 -1.008,-7.037c0,-25.35 39.008,-45.931 87.054,-45.931c6.543,-0 12.919,0.382 19.051,1.105c3.714,0.456 7.483,0.107 11.05,-1.02c8.562,-2.621 18.472,-4.083 29.024,-4.083c32.633,0 59.126,13.979 59.126,31.196c0,0.836 -0.062,1.665 -0.185,2.485c-1.275,8.865 2.824,17.643 10.44,22.356c8.734,5.566 14.052,12.63 14.052,20.344c-0,17.218 -26.493,31.196 -59.126,31.196c-14.823,0 -28.38,-2.884 -38.762,-7.646c-9.153,-4.181 -19.245,-5.876 -29.262,-4.916Zm-0.328,-3.425c10.618,-1.018 21.317,0.779 31.02,5.211l0.005,0.002c9.996,4.585 24.05,-1.023 38.322,-1.023c18.744,-0 29.927,7.621 40.23,0.207c6.14,-4.419 9.486,-13.215 9.486,-19.108c-0,-6.685 -3.988,-9.925 -11.552,-14.748c-8.763,-5.438 -9.399,-18.731 -7.931,-28.94l0.003,-0.02c0.098,-0.651 0.147,-1.31 0.147,-1.975c0,-5.893 -3.843,-11.208 -9.983,-15.626c-10.303,-7.414 -26.958,-12.129 -45.702,-12.129c-10.183,-0 -19.749,1.401 -28.011,3.93c-4.031,1.27 -8.287,1.662 -12.466,1.149c-6.003,-0.708 -16.254,4.321 -22.628,3.694c-27.295,-2.686 -48.871,2.317 -64.258,13.389c-9.529,6.857 -15.375,15.18 -15.375,24.326c0,2.068 0.302,4.1 0.872,6.079c3.151,10.869 1.077,22.585 -5.613,31.713l-0.01,0.013c-1.499,2.025 -2.369,4.211 -2.369,6.515c0,4.209 2.806,7.965 7.191,11.12c7.671,5.52 19.878,2.338 33.831,2.338c20.626,0 32.872,-4.978 42.876,-9.717c6.481,-3.071 16.585,-5.763 21.834,-6.391c0.027,-0.003 0.054,-0.006 0.081,-0.009Z" style="fill:#dfc86d;"/><path d="M238.462,115.704c0.644,0.746 0.505,1.393 -0.493,1.616l-17.594,3.931l23.224,14.634c0.046,0.03 0.092,0.059 0.138,0.088l0.642,-0.61l2.048,2.813c0.311,0.35 0.559,0.692 0.743,1.022c0.905,1.62 0.276,2.95 -2.01,3.461l-96.58,21.58l4.559,0.145l-0,4.708c-0,0.444 -0.351,0.788 -1.073,0.95l-46.681,10.43c-1.669,0.373 -4.69,-0.375 -6.742,-1.668l-26.997,-17.011c-1.309,-0.825 -1.91,-1.674 -1.74,-2.278c0.032,-0.117 0.094,-0.225 0.186,-0.322l2.412,-4.169l5.303,2.218l9.455,-2.113l-16.067,-10.124c-1.042,-0.657 -1.481,-1.334 -1.263,-1.786c0.026,-0.046 0.055,-0.09 0.088,-0.132l2.458,-3.682l3.944,2.067l13.472,-3.01l-23.356,-14.718c-3.135,-1.975 -4.46,-4.012 -3.805,-5.376c0.135,-0.281 0.354,-0.533 0.659,-0.751l2.176,-2.478l170.405,-2.323l2.489,2.888Z" style="fill:#669e2c;"/><path d="M187.044,101.477l20.785,-4.644c1.333,-0.298 3.745,0.299 5.384,1.332l21.558,13.584c1.639,1.032 1.887,2.113 0.555,2.41l-16.926,3.782l22.5,14.178c4.462,2.811 5.14,5.752 1.512,6.563l-94.854,21.194l3.867,2.437c1.989,1.253 2.291,2.564 0.674,2.925l-45.226,10.105c-1.616,0.361 -4.543,-0.363 -6.532,-1.616l-26.155,-16.481c-1.989,-1.253 -2.291,-2.564 -0.674,-2.925l15.803,-3.531l-15.566,-9.809c-1.482,-0.933 -1.707,-1.91 -0.502,-2.179l18.618,-4.16l-22.629,-14.259c-4.461,-2.811 -5.139,-5.752 -1.512,-6.562l95.975,-21.445c3.628,-0.81 10.195,0.814 14.657,3.626l8.688,5.475Z" style="fill:#8bc350;"/><path d="M250.546,111.941c-0.277,-0.857 -2.5,-6.984 -5.906,-10.989c-2.843,-3.342 -7.058,-6.241 -10.861,-8.266c-6.078,-3.236 -20.466,-7.315 -20.447,-7.388c0.019,-0.074 14.886,1.294 21.435,4.069c4.576,1.938 8.469,5.099 11.6,9.075c1.202,1.713 2.118,3.589 2.854,5.565c0.483,1.297 1.12,2.56 1.31,3.919c0.089,0.632 -0.091,3.395 0.015,4.015Zm-0,-0c0.026,0.079 0.035,0.113 0.026,0.097c-0.01,-0.021 -0.019,-0.054 -0.026,-0.097Zm-208.483,75.496c-0.817,-0.848 -2.346,-3.658 -2.206,-3.731c0.139,-0.074 2.021,2.438 2.703,3.295c0.684,0.857 1.637,1.442 2.471,2.16c3.205,2.631 6.76,4.36 10.537,5.787c2.793,1.055 5.671,1.784 8.596,2.518c2.947,0.74 5.9,1.469 8.851,2.05c2.056,0.447 4.11,0.77 6.175,0.945c2.005,0.17 4.021,0.188 6.062,-0.002c2.256,-0.192 4.476,-0.559 6.669,-1.047c2.205,-0.492 4.386,-1.103 6.533,-1.869l6.088,-2.832c6.152,-2.617 11.822,-6.692 17.931,-9.354c2.748,-1.198 5.481,-1.971 8.365,-2.812c0.005,-0.003 0.012,-0.001 0.014,0.004c0.003,0.005 0.001,0.012 -0.004,0.014c-3.127,2.376 -5.825,4.988 -8.872,7.454c-4.543,3.677 -9.417,7.427 -14.4,10.517l-6.699,3.593c-2.417,0.918 -4.871,1.69 -7.369,2.269c-2.513,0.582 -5.071,0.965 -7.663,1.177c-2.473,0.182 -4.913,0.129 -7.333,-0.136c-2.361,-0.259 -4.702,-0.708 -7.041,-1.29c-5.125,-1.489 -10.383,-3.012 -15.098,-5.554c-4.813,-2.596 -8.967,-6.025 -12.301,-10.521c-0.681,-0.879 -1.24,-1.838 -2.009,-2.635Zm149.082,2.376c-2.536,-1.071 -8.359,-4.156 -8.246,-4.398c0.113,-0.241 6.179,1.976 8.819,2.42c1.892,0.319 3.748,0.218 5.657,0.388c4.313,0.384 8.627,0.872 13.03,0.927l8.202,-0.003l10.067,-0.811c2.957,-0.081 5.933,0.063 8.926,-0.287c2.319,-0.271 4.52,-1.091 6.772,-1.609c1.534,-0.353 6.267,-2.048 7.036,-1.962c-0.484,0.627 -5.71,3.399 -6.36,3.853c-1.787,1.251 -4.18,1.259 -6.304,1.842c-3.169,0.871 -6.277,1.793 -9.391,2.645c-1.707,0.417 -3.359,0.913 -5.07,1.232c-1.755,0.327 -3.541,0.461 -5.345,0.575l-8.816,-0.39c-4.679,-0.462 -9.357,-0.831 -13.772,-2.205c-1.827,-0.569 -3.439,-1.471 -5.205,-2.217Zm-142.236,-66.272c-1.726,3.945 -2.997,13.054 -3.222,13.073c-0.224,0.019 -1.385,-9.861 -0.04,-14.279c1.365,-4.484 4.079,-8.5 7.474,-11.914c1.424,-1.235 5.834,-5.101 9.347,-6.477c1.377,-0.54 8.687,-3.774 9.416,-3.881c-0.363,0.634 -6.898,4.931 -7.831,6.065c-2.287,2.779 -6.963,5.804 -8.181,7.127c-3.103,2.907 -5.303,6.493 -6.963,10.286Zm34.073,93.417c-0.107,-0.017 -0.181,-0.118 -0.164,-0.225c0.017,-0.107 0.118,-0.18 0.225,-0.163c2.387,0.233 4.735,0.542 7.091,0.469c1.502,-0.046 2.988,-0.266 4.489,-0.749c1.466,-0.476 2.874,-1.063 4.186,-1.849c1.571,-0.941 2.834,-2.226 4.322,-3.308c1.504,-1.094 3.116,-2.027 4.657,-3.018c4.411,-2.792 9.035,-5.83 14.009,-7.756c1.103,-0.427 2.195,-0.997 3.366,-1.055c1.467,-0.073 2.404,0.38 3.814,0.747c0.219,-0.051 0.439,0.087 0.489,0.306c0.051,0.22 -0.086,0.439 -0.306,0.49c-0.983,0.884 -1.357,1.712 -2.448,2.478c-0.349,0.245 -0.766,0.365 -1.162,0.528c-5.33,2.192 -10.588,5.052 -15.417,8.037c-1.829,1.065 -3.616,2.271 -5.536,3.232c-3.013,1.508 -6.163,2.571 -9.516,3.009c-1.702,0.304 -3.348,0.32 -4.988,0.161c-2.389,-0.232 -4.727,-0.808 -7.111,-1.334Zm-17.605,-3.99c0.022,0.007 0.035,0.03 0.028,0.053c-0.006,0.022 -0.03,0.035 -0.052,0.029c-2.735,-0.252 -5.168,-0.716 -7.486,-1.861c-1.782,-0.881 -3.565,-1.939 -4.964,-3.449c-0.384,-0.415 -5.888,-6.655 -5.888,-6.655c0,-0 8.441,4.692 8.919,5.03c1.276,0.901 2.543,1.762 3.748,2.7c1.863,1.449 3.475,2.985 5.695,4.153Zm166.647,-129.326c-2.293,-0.582 -10.184,-1.346 -10.17,-1.498c0.014,-0.151 8.078,-0.642 10.476,-0.515c1.648,0.088 3.267,0.31 4.905,0.683c1.411,0.39 2.9,0.754 4.17,1.547c1.293,0.807 5.254,5.095 5.076,5.405c-0.177,0.31 -5.176,-1.927 -6.552,-2.463c-1.251,-0.488 -2.366,-1.265 -3.594,-1.729c-1.415,-0.609 -2.843,-1.058 -4.311,-1.43Zm-186.28,23.73c-0.079,0.095 -0.219,0.108 -0.314,0.03c-0.095,-0.079 -0.108,-0.219 -0.03,-0.314c2.435,-3.296 5.789,-5.701 9.074,-8.237c0.866,-0.669 1.511,-1.48 2.432,-2.072c2.947,-1.892 6.438,-2.786 9.71,-3.717c1.462,-0.374 2.94,-0.826 4.463,-0.921c1.551,-0.097 10.749,-0.675 10.825,-0.263c0.076,0.411 -8.712,3.286 -10.198,3.737c-1.369,0.416 -2.805,0.557 -4.171,0.929c-3.257,0.793 -6.453,2.139 -9.689,3.339c-1.431,0.531 -2.891,0.765 -4.261,1.42c-3.021,1.445 -5.595,3.63 -7.841,6.069Zm170.657,95.086c-0.301,-0.005 -0.542,-0.254 -0.537,-0.555c0.005,-0.302 0.253,-0.543 0.555,-0.538c2.384,-0.122 4.669,-0.433 6.947,-0.87c2.276,-0.437 4.512,-1.009 6.794,-1.671l17.592,-6.081c-0,-0 -7.967,6.433 -9.017,7.021c-2.37,1.327 -5.06,1.501 -7.933,1.976c-2.426,0.37 -4.793,0.659 -7.184,0.794c-2.387,0.135 -4.765,0.13 -7.217,-0.076Z" style="fill:#fff;"/></g></g><g><path d="M234.858,162.283l-0.912,-1.71c-0.211,-0.395 -0.008,-0.769 0.53,-0.974c0.538,-0.206 1.325,-0.212 2.054,-0.014l3.149,0.853l2.717,-0.601c0.629,-0.139 1.439,-0.066 2.115,0.192c0.676,0.258 1.109,0.659 1.131,1.047l0.094,1.674l2.591,1.337c0.599,0.31 0.897,0.729 0.777,1.094c-0.12,0.366 -0.64,0.619 -1.355,0.661l-3.091,0.181l-1.116,1.428c-0.258,0.331 -0.885,0.516 -1.635,0.484c-0.75,-0.032 -1.504,-0.277 -1.968,-0.638l-2.004,-1.562l-3.281,-0.455c-0.759,-0.106 -1.444,-0.41 -1.787,-0.796c-0.344,-0.385 -0.291,-0.789 0.138,-1.054l1.853,-1.147Zm-0.017,1.935l3.824,0.531c0.222,0.03 0.428,0.109 0.564,0.215l2.336,1.821l1.301,-1.665c0.075,-0.096 0.24,-0.159 0.449,-0.172l3.603,-0.211l-3.02,-1.559c-0.175,-0.091 -0.28,-0.209 -0.286,-0.322l-0.11,-1.951l-3.167,0.701c-0.184,0.04 -0.413,0.03 -0.626,-0.027l-3.671,-0.995l1.063,1.993c0.061,0.115 0.025,0.227 -0.101,0.304l-2.159,1.337Zm5.503,-3.547c0.008,0.006 0.016,0.012 0.024,0.018l0.002,-0c-0.009,-0.006 -0.017,-0.012 -0.026,-0.018Z" style="fill:#e5d079;"/><path d="M244.973,160.606c0.008,0.027 0.012,0.053 0.014,0.079c-0,0 0.106,1.893 0.106,1.893l3.28,1.516l0.157,0.487l0.001,0.004c0.024,0.076 0.025,0.152 0.001,0.224c-0.079,0.24 -0.42,0.406 -0.89,0.434l-3.495,0.205l-1.261,1.614c-0.169,0.218 -0.581,0.339 -1.074,0.318c-0.493,-0.021 -0.988,-0.182 -1.293,-0.419l-2.266,-1.766l-3.709,-0.515c-0.498,-0.069 -0.948,-0.269 -1.174,-0.522c-0.121,-0.136 -0.167,-0.275 -0.14,-0.402c0.007,-0.024 0.015,-0.048 0.024,-0.072l0.147,-0.447l2.155,-1.068l-1.031,-1.933c-0.057,-0.105 -0.068,-0.209 -0.038,-0.303c0.003,-0.008 0.158,-0.441 0.158,-0.441l5.138,1.06l5.104,-0.366l0.086,0.42Z" style="fill:#b6341e;"/><path d="M234.659,159.825c-0.136,-0.254 -0.005,-0.494 0.341,-0.626c0.346,-0.133 0.852,-0.136 1.321,-0.009c-0,-0 3.485,0.944 3.485,0.944l3.007,-0.666c0.404,-0.089 0.925,-0.042 1.36,0.124c0.434,0.166 0.713,0.424 0.727,0.673c-0,0 0.104,1.853 0.104,1.853l2.867,1.48c0.386,0.199 0.577,0.469 0.5,0.704c-0.078,0.235 -0.412,0.397 -0.871,0.424c-0,0 -3.421,0.201 -3.422,0.201l-1.234,1.58c-0.166,0.213 -0.569,0.332 -1.051,0.311c-0.483,-0.02 -0.968,-0.178 -1.266,-0.41c-0,0 -2.218,-1.729 -2.218,-1.729l-3.631,-0.503c-0.488,-0.068 -0.928,-0.264 -1.149,-0.512c-0.221,-0.247 -0.187,-0.507 0.089,-0.678c-0,0 2.05,-1.269 2.05,-1.269l-1.009,-1.892Zm0.633,-0.015l1.096,2.053l-2.226,1.378c-0.14,0.087 -0.157,0.219 -0.045,0.344c0.112,0.126 0.335,0.225 0.583,0.26l3.941,0.546l2.408,1.877c0.151,0.118 0.397,0.197 0.642,0.208c0.244,0.01 0.449,-0.05 0.533,-0.158l1.34,-1.715l3.714,-0.218c0.233,-0.014 0.403,-0.097 0.442,-0.216c0.039,-0.119 -0.058,-0.256 -0.253,-0.357l-3.113,-1.607l-0.113,-2.011c-0.007,-0.126 -0.148,-0.257 -0.369,-0.341c-0.22,-0.084 -0.485,-0.108 -0.69,-0.063l-3.264,0.723l-3.783,-1.025c-0.238,-0.065 -0.494,-0.063 -0.67,0.004c-0.175,0.067 -0.242,0.189 -0.173,0.318Z" style="fill:#df3e22;"/><path d="M235.292,159.81c-0.069,-0.129 -0.002,-0.251 0.173,-0.318c0.176,-0.067 0.432,-0.069 0.67,-0.004l3.783,1.025l3.264,-0.723c0.205,-0.045 0.47,-0.021 0.69,0.063c0.221,0.084 0.362,0.215 0.369,0.341l0.113,2.011l3.113,1.607c0.195,0.101 0.292,0.238 0.253,0.357c-0.039,0.119 -0.209,0.202 -0.442,0.216l-3.714,0.218l-1.34,1.715c-0.084,0.108 -0.289,0.168 -0.533,0.158c-0.245,-0.011 -0.491,-0.09 -0.642,-0.208l-2.408,-1.877l-3.941,-0.546c-0.248,-0.035 -0.471,-0.134 -0.583,-0.26c-0.112,-0.125 -0.095,-0.257 0.045,-0.344l2.226,-1.378l-1.096,-2.053Z" style="fill:#ff6045;"/><path d="M236.388,161.863l-1.096,-2.053c-0.069,-0.129 -0.002,-0.251 0.173,-0.318l5.421,2.284l-4.498,0.087Zm4.498,-0.087l-0.968,-1.263l3.264,-0.723c0.205,-0.045 0.47,-0.021 0.69,0.063l-2.986,1.923Zm0,0l3.468,0.429l3.113,1.607c0.195,0.101 0.292,0.238 0.253,0.357l-6.834,-2.393Zm0,0l2.678,2.827l-1.34,1.715c-0.084,0.108 -0.289,0.168 -0.533,0.158l-0.805,-4.7Zm0,0l-2.245,2.615l-3.941,-0.546c-0.248,-0.035 -0.471,-0.134 -0.583,-0.26l6.769,-1.809Z" style="fill:#eb5137;"/><path d="M240.099,161.28c0.421,-0.161 1.103,-0.077 1.522,0.187c0.419,0.265 0.418,0.61 -0.003,0.771c-0.421,0.161 -1.103,0.077 -1.522,-0.187c-0.419,-0.265 -0.418,-0.61 0.003,-0.771Z" style="fill:#df3e22;"/></g><g><ellipse cx="66.83" cy="176.024" rx="10.791" ry="5.694" style="fill:#dac16b;"/><g><path d="M73.839,175.201c0.305,-20.624 -3.185,-39.006 -16.351,-51.671l-5.279,2.984c7.06,14.03 9.913,29.9 7.392,48.122c-0.052,0.184 -0.08,0.373 -0.08,0.565c0,2.085 3.208,3.777 7.159,3.777c3.951,0 7.159,-1.692 7.159,-3.777Z" style="fill:#906344;"/><path d="M60.494,160.541c0.006,0.44 0.01,0.882 0.01,1.325c1.37,0.045 2.781,-0.016 4.13,-0.169c2.948,-0.335 5.907,-1.109 8.521,-2.512c-0.055,-0.496 -0.114,-0.989 -0.177,-1.481c-0.889,0.594 -1.841,1.102 -2.864,1.502c-1.865,0.729 -3.939,1.039 -5.92,1.232c-0.87,0.085 -1.728,0.087 -2.602,0.091c-0.368,0.002 -0.736,0.016 -1.098,0.012Z" style="fill:#b58767;"/><path d="M58.038,141.988c0.054,0.212 0.108,0.423 0.16,0.635c0.851,-0.224 1.687,-0.512 2.435,-0.909c1.374,-0.731 2.671,-1.533 3.839,-2.56c0.944,-0.83 1.722,-1.784 2.395,-2.809c-0.193,-0.385 -0.39,-0.766 -0.592,-1.145c-1.285,2.099 -3.001,3.91 -5.194,5.247c-0.909,0.554 -1.948,1.277 -3.043,1.541Z" style="fill:#b58767;"/><path d="M55.343,133.581c0.156,0.403 0.308,0.808 0.456,1.214c0.42,-0.113 0.834,-0.246 1.242,-0.396c2.489,-0.915 4.486,-2.548 5.861,-4.626c-0.259,-0.36 -0.524,-0.717 -0.795,-1.071c-1.003,1.284 -2.248,2.351 -3.613,3.281c-0.897,0.611 -2.084,1.344 -3.151,1.598Z" style="fill:#b58767;"/><path d="M59.602,149.669c0.035,0.23 0.068,0.461 0.101,0.692c0.652,0.102 1.34,0.097 1.854,0.107c0.282,0.005 1.194,0.012 1.576,-0.009c2.795,-0.153 5.739,-1.319 7.799,-3.293c-0.098,-0.364 -0.199,-0.726 -0.303,-1.086c-1.936,2.065 -4.775,3.34 -7.601,3.489c-0.926,0.048 -2.274,0.282 -3.426,0.1Z" style="fill:#b58767;"/><path d="M60.118,170.149c-0.038,0.415 -0.079,0.832 -0.123,1.25c1.528,0.501 3.071,0.926 4.681,1.11c2.515,0.288 5.374,0.101 7.802,-0.675c0.46,-0.147 0.919,-0.349 1.371,-0.577c-0.001,-0.174 -0.003,-0.348 -0.006,-0.521c-3.347,1.312 -7.133,1.217 -10.593,0.41c-0.945,-0.221 -1.826,-0.507 -2.734,-0.849c-0.127,-0.048 -0.261,-0.096 -0.398,-0.148Z" style="fill:#b58767;"/><path d="M67.477,137.606c-2.438,-5.218 -5.7,-9.95 -9.989,-14.076l-5.279,2.984c2.643,5.252 4.697,10.763 6.099,16.557c4.121,-0.309 7.383,-2.051 9.169,-5.465Z" style="fill:#6b4124;fill-opacity:0.5;"/></g><g><g><path d="M35.533,135.667c1.699,-8.144 7.279,-14.782 16.57,-15.724c3.017,4.613 3.517,8.604 2.598,12.172c-3.55,-3.053 -7.508,-3.128 -11.691,-1.564c4.211,0.623 6.881,3.49 8.316,8.151c-1.737,2.319 -3.865,4.474 -5.919,6.548c-2.091,-0.905 -4.223,-1.206 -6.404,-0.764c1.406,0.711 2.598,1.975 3.657,3.587c-2.004,2.141 -3.686,4.233 -4.49,6.376c-2.168,-4.261 -3.224,-8.961 -3.192,-13.488c1.736,-2.535 3.766,-4.044 5.982,-4.898c-1.969,-1.124 -3.778,-1.256 -5.427,-0.396Z" style="fill:#bcf146;"/><path d="M39.003,144.486c1.406,0.711 2.598,1.975 3.657,3.587c-2.004,2.141 -3.686,4.233 -4.49,6.376c-0.026,-2.958 0.249,-6.405 0.833,-9.963Zm0,-0c0.779,-4.747 2.108,-9.691 4.007,-13.935c4.211,0.623 6.881,3.49 8.316,8.151c-1.737,2.319 -3.865,4.474 -5.919,6.548c-2.091,-0.905 -4.223,-1.206 -6.404,-0.764Zm4.007,-13.935c2.232,-4.99 5.252,-9.012 9.093,-10.608c3.017,4.613 3.517,8.604 2.598,12.172c-3.55,-3.053 -7.508,-3.128 -11.691,-1.564Z" style="fill:#a9de35;"/></g><g><path d="M67.187,132.405c5.043,1.27 11.114,3.043 17.842,7.114c-0.022,-2.258 -0.282,-4.384 -0.743,-6.367l-3.018,0.044l2.636,-1.502c-0.579,-1.978 -1.363,-3.799 -2.313,-5.451c-2.216,0.223 -4.238,0.673 -5.729,1.742c0.642,-2.408 2.503,-3.395 4.293,-3.944c-6.893,-9.376 -19.591,-11.805 -28.052,-4.098c0.216,8.205 4.517,9.825 11.518,11.58c1.968,-2.625 4.241,-5.007 6.715,-7.228c-1.463,2.576 -2.721,5.216 -3.149,8.11Z" style="fill:#85b41c;"/><path d="M70.336,124.295c-1.463,2.576 -2.721,5.216 -3.149,8.11c5.043,1.27 11.114,3.043 17.842,7.114c-2.335,-6.226 -8.306,-11.606 -14.693,-15.224Zm-6.715,7.228c1.968,-2.625 4.241,-5.007 6.715,-7.228c-6.984,-3.956 -14.466,-5.806 -18.233,-4.352c0.216,8.205 4.517,9.825 11.518,11.58Z" style="fill:#7ca916;"/></g><g><path d="M65.511,111.487c0.315,-2.808 -0.617,-5.616 -2.44,-8.425c-0.949,1.521 -2.082,2.801 -3.707,3.434c-3.225,-1.163 -7.298,-0.675 -11.653,2.286c-0.673,0.458 -0.884,1.316 -0.762,2.379c2.209,-0.991 4.473,-1.057 6.783,-0.334c-2.266,-0.177 -4.353,0.539 -6.18,2.561c0.925,2.334 2.729,4.951 4.551,6.555c5.999,-0.891 11.122,-3.151 12.696,-5.611c-2.144,-3.489 -4.744,-5.864 -7.79,-7.148c3.409,0.461 6.56,1.359 8.502,4.303Z" style="fill:#8bae3d;"/><path d="M57.009,107.184c-3.442,2.499 -7.625,10.364 -4.906,12.759c5.999,-0.891 11.122,-3.151 12.696,-5.611c-2.144,-3.489 -4.744,-5.864 -7.79,-7.148Zm8.502,4.303c0.315,-2.808 -0.617,-5.616 -2.44,-8.425c-0.949,1.521 -2.082,2.801 -3.707,3.434c-0.654,-0.236 -1.481,0.053 -2.355,0.688c3.409,0.461 6.56,1.359 8.502,4.303Z" style="fill:#749230;"/></g><g><path d="M55.151,111.725c-1.429,1.85 -2.477,4.452 -3.048,8.218c8.596,2.629 15.11,1.304 19.724,-2.28l-4.793,-6.318l7.303,3.945c2.995,-3.412 4.873,-7.977 5.716,-12.908c-8.46,4.665 -16.557,3.565 -21.933,6.736l1.399,4.986l-4.368,-2.379Z" style="fill:#accf5e;"/><path d="M67.034,111.345c-2.604,0.954 -5.135,1.684 -7.515,2.759c-2.706,1.223 -5.217,2.891 -7.416,5.839c8.596,2.629 15.11,1.304 19.724,-2.28l-4.793,-6.318Zm-0,0l7.303,3.945c2.995,-3.412 4.873,-7.977 5.716,-12.908c-4.305,5.245 -8.759,7.403 -13.019,8.963Z" style="fill:#9dc73f;"/></g><g><path d="M31.702,122.729c-2.216,2.002 -4.445,4.088 -6.702,5.795c2.409,0.933 4.729,1.615 6.945,2.008l2.221,-4.261l-0.259,4.534c1.375,0.137 2.706,0.151 3.99,0.031l-0.539,-6.674l3.464,6.143c4.54,-1.261 8.366,-4.529 11.281,-10.362c-3.16,-3.954 -6.26,-5.006 -9.338,-4.401l0.525,4.65l-3.177,-3.746c-2.287,1.084 -4.568,2.889 -6.861,4.899l2.474,3.882l-4.024,-2.498Z" style="fill:#aeda4d;"/><path d="M40.822,130.305c4.54,-1.261 8.366,-4.529 11.281,-10.362c-4.641,-3.387 -9.378,0.607 -14.745,4.219l3.464,6.143Zm-3.464,-6.143c-3.751,2.523 -7.809,4.86 -12.358,4.362c2.409,0.933 4.729,1.615 6.945,2.008l2.221,-4.261l-0.259,4.534c1.375,0.137 2.706,0.151 3.99,0.031l-0.539,-6.674Z" style="fill:#a4cc4c;"/></g><g><path d="M42.405,107.184c-5.802,-0.919 -12.092,4.65 -14.676,8.923c1.356,-0.399 2.581,-0.531 3.732,-0.48l2.912,-3.726l-1.264,3.867l4.287,-4.423l-2.51,4.954c2.725,0.899 5.351,2.463 8.848,3.309l2.908,-5.386l0,5.875c1.617,0.154 3.416,0.132 5.461,-0.154c-1.721,-6.804 -4.341,-10.415 -7.257,-11.947l-2.998,4.015l0.557,-4.827Z" style="fill:#accf5e;"/><path d="M46.642,114.222l0,5.875c1.617,0.154 3.416,0.132 5.461,-0.154c-1.77,-2.53 -3.614,-4.391 -5.461,-5.721Zm0,0c-3.196,-2.3 -6.404,-3.012 -9.256,-2.856l-2.5,4.933c2.725,0.899 5.351,2.463 8.848,3.309l2.908,-5.386Zm-9.266,-2.856c-4.811,0.267 -8.612,3.001 -9.647,4.741c1.356,-0.399 2.581,-0.531 3.732,-0.48l2.912,-3.726l-1.264,3.867l4.267,-4.402Z" style="fill:#9dc73f;"/></g><g><path d="M53.175,140.093c1.805,2.759 4.41,5.326 7.858,7.692c0.74,-2.707 1.284,-5.237 1.622,-7.583l-3.682,-0.754l3.885,-0.85c0.156,-1.449 0.227,-2.822 0.211,-4.117l-5.454,-0.617l5.327,-1.654c-0.39,-3.791 -1.667,-6.782 -3.902,-8.909l-3.498,2.824l2.19,-3.894c-1.531,-1.074 -3.402,-1.841 -5.629,-2.288c-2.539,6.38 -2.768,12.207 -0.429,17.418l6.455,-1.601l-4.954,4.333Z" style="fill:#accf5e;"/><path d="M58.129,135.76l-4.954,4.333c1.805,2.759 4.41,5.326 7.858,7.692c-1.172,-4.301 -2.059,-8.355 -2.904,-12.025Zm-6.455,1.601l6.455,-1.601c-1.607,-6.984 -3.058,-12.574 -6.026,-15.817c-2.539,6.38 -2.768,12.207 -0.429,17.418Z" style="fill:#9dc73f;"/></g></g></g></g></g></svg>