<?xml version="1.0" encoding="UTF-8" standalone="no"?><!DOCTYPE svg PUBLIC "-//W3C//DTD SVG 1.1//EN" "http://www.w3.org/Graphics/SVG/1.1/DTD/svg11.dtd"><svg width="100%" height="100%" viewBox="0 0 300 300" version="1.1" xmlns="http://www.w3.org/2000/svg" xmlns:xlink="http://www.w3.org/1999/xlink" xml:space="preserve" xmlns:serif="http://www.serif.com/" style="fill-rule:evenodd;clip-rule:evenodd;stroke-linejoin:round;stroke-miterlimit:2;"><g id="_250" serif:id="250"><g id="_3" serif:id="3"><g><path d="M226.316,215.898c-0.008,-0.085 -0.252,-1.734 -0.17,-1.75c0.081,-0.017 0.673,1.556 0.685,1.639c0.192,1.292 -0.297,2.229 -0.915,3.117c-0.315,0.453 -0.611,0.874 -1.018,1.301c-0.118,0.123 -0.222,0.241 -0.361,0.345c-0.295,0.22 -0.649,0.361 -0.996,0.507c-1.142,0.48 -2.395,0.745 -3.426,0.979l-1.932,0.271c0,-0 -4.722,1.22 -4.76,1.148c-0.038,-0.073 2.449,-1.246 2.785,-1.483c0.502,-0.355 1.054,-0.607 1.623,-0.849l1.905,-0.566c1.125,-0.311 2.509,-0.741 3.72,-1.334c0.097,-0.048 0.191,-0.102 0.291,-0.139c0.447,-0.163 0.885,-0.179 1.273,-0.403c0.29,-0.168 0.543,-0.376 0.744,-0.629c0.444,-0.56 0.635,-1.289 0.552,-2.154Zm2.529,3.583c0.066,-0.215 0.295,-0.337 0.511,-0.27c0.216,0.066 0.337,0.295 0.271,0.511c-0.073,0.379 -0.157,0.729 -0.306,1.04c-0.25,0.52 -0.625,0.922 -1.023,1.278c-0.905,0.81 -2.069,1.298 -3.403,1.807c-0.097,0.045 -0.212,0.003 -0.257,-0.094c-0.045,-0.097 -0.002,-0.212 0.095,-0.257c0.972,-0.53 1.833,-1.032 2.532,-1.67c0.417,-0.381 0.728,-0.834 1.033,-1.342c0.186,-0.309 0.394,-0.621 0.547,-1.003Z" style="fill:#fff;"/></g><g><g><path d="M215.621,168.025c3.484,2.53 7.882,4.193 10.961,7.242c1.876,1.856 1.919,4.456 2.226,6.906c0.519,4.143 2.619,7.63 4.015,11.48c0.666,1.838 1.461,4.118 0.687,6.07c-0.421,1.06 -2.344,1.424 -3.283,1.642c-3.325,0.773 -6.547,1.287 -9.963,1.604c-1.161,0.108 -3.218,0.782 -4.04,-0.15c-1.334,-1.514 -1.491,-3.939 -1.629,-5.846c-0.365,-5.04 0.932,-23.9 1.026,-28.948Z" style="fill:#a5a39d;"/><path d="M233.743,198.91c-0.052,0.276 -0.128,0.548 -0.233,0.813c-0.421,1.06 -2.344,1.424 -3.283,1.642c-3.325,0.773 -6.547,1.287 -9.963,1.604c-1.161,0.108 -3.218,0.782 -4.04,-0.15c-1.334,-1.514 -1.491,-3.939 -1.629,-5.846c-0.365,-5.04 0.932,-23.9 1.026,-28.948c2.145,1.558 4.636,2.787 6.953,4.213c-0.391,7.601 -0.955,17.966 -0.699,21.508c0.138,1.906 0.295,4.332 1.629,5.845c0.822,0.933 2.879,0.259 4.04,0.151c2.117,-0.197 4.16,-0.469 6.199,-0.832Z" style="fill:#878787;"/><path d="M226.026,179.264c-0.987,1.591 -1.48,3.844 -1.021,5.705c0.242,0.983 0.742,1.881 1.06,2.837c0.313,0.94 0.439,1.936 0.77,2.869c0.394,1.113 0.991,1.883 1.778,2.74c0.23,0.251 0.611,0.771 1.018,0.656c0.45,-0.128 0.602,-0.598 0.63,-1.028c0.057,-0.896 -0.352,-1.836 -0.667,-2.653c-0.809,-2.101 -1.714,-4.205 -1.953,-6.468c-0.088,-0.831 -0.148,-1.721 -0.1,-2.557c0.037,-0.653 0.247,-1.295 0.149,-1.951c-0.079,-0.529 -0.327,-1.636 -0.851,-1.936c-0.089,-0.05 -0.302,0.076 -0.371,0.122c-0.387,0.259 -0.378,1.225 -0.442,1.664Z" style="fill:#aeaeae;"/></g></g><path d="M63.023,191.053c0.044,-2.469 -1.463,-4.7 -3.77,-5.583c-14.494,-5.549 -23.922,-14.562 -23.922,-24.728c0,-16.866 25.953,-30.559 57.919,-30.559c7.312,-0 14.308,0.716 20.751,2.023c5.828,1.182 11.873,0.674 17.422,-1.464c8.714,-3.422 19.486,-5.42 31.136,-5.42c15.628,-0 29.676,3.596 39.331,9.305c5.827,3.47 12.517,5.222 19.297,5.052c0.706,-0.034 1.417,-0.044 2.133,-0.044c21.602,0 39.139,9.254 39.139,20.651c0,11.397 -17.537,20.651 -39.139,20.651c-7.298,-0 -14.132,-1.056 -19.983,-2.895c-5.297,-1.66 -10.959,-1.761 -16.311,-0.289c-7.312,2.036 -15.637,3.184 -24.467,3.184c-7.21,-0 -14.084,-0.766 -20.346,-2.151c-1.059,-0.24 -2.171,-0.026 -3.066,0.59c-0.002,0.001 -0.004,0.002 -0.006,0.004c-0.674,0.464 -1.129,1.184 -1.259,1.993c-0.131,0.808 0.075,1.635 0.569,2.288c1.855,2.337 2.848,4.928 2.848,7.641c0,11.397 -17.537,20.65 -39.139,20.65c-21.602,0 -39.14,-9.253 -39.14,-20.65c0,-0.083 0.001,-0.166 0.003,-0.249Z" style="fill:#f9e594;"/><g><ellipse cx="234.303" cy="156.309" rx="10.499" ry="5.539" style="fill:#dfc86d;"/><g><path d="M227.484,155.508c-0.297,-20.066 3.099,-37.949 15.908,-50.271l5.136,2.903c-6.869,13.65 -9.645,29.09 -7.192,46.818c0.051,0.18 0.078,0.363 0.078,0.55c-0,2.029 -3.121,3.675 -6.965,3.675c-3.844,0 -6.965,-1.646 -6.965,-3.675Z" style="fill:#906344;"/><path d="M240.468,141.245c-0.007,0.428 -0.01,0.858 -0.01,1.289c-1.333,0.044 -2.706,-0.015 -4.019,-0.164c-2.867,-0.326 -5.746,-1.079 -8.29,-2.444c0.054,-0.482 0.112,-0.963 0.173,-1.441c0.864,0.578 1.791,1.072 2.786,1.461c1.815,0.71 3.832,1.012 5.759,1.199c0.847,0.083 1.682,0.085 2.532,0.089c0.358,0.002 0.716,0.015 1.069,0.011Z" style="fill:#b58767;"/><path d="M242.857,123.195c-0.053,0.206 -0.105,0.412 -0.156,0.618c-0.828,-0.218 -1.641,-0.498 -2.369,-0.885c-1.336,-0.711 -2.598,-1.491 -3.735,-2.491c-0.919,-0.807 -1.675,-1.735 -2.33,-2.732c0.188,-0.375 0.379,-0.746 0.576,-1.115c1.25,2.043 2.92,3.804 5.054,5.105c0.884,0.54 1.895,1.243 2.96,1.5Z" style="fill:#b58767;"/><path d="M245.479,115.015c-0.151,0.393 -0.299,0.786 -0.444,1.181c-0.408,-0.11 -0.811,-0.239 -1.208,-0.384c-2.421,-0.89 -4.364,-2.479 -5.702,-4.501c0.252,-0.351 0.51,-0.698 0.773,-1.042c0.976,1.249 2.187,2.287 3.516,3.192c0.872,0.594 2.026,1.307 3.065,1.554Z" style="fill:#b58767;"/><path d="M241.335,130.668c-0.033,0.224 -0.066,0.448 -0.098,0.673c-0.634,0.099 -1.303,0.095 -1.803,0.104c-0.275,0.005 -1.162,0.012 -1.534,-0.008c-2.719,-0.149 -5.584,-1.283 -7.588,-3.205c0.096,-0.353 0.194,-0.706 0.295,-1.056c1.883,2.009 4.646,3.25 7.395,3.394c0.901,0.047 2.213,0.275 3.333,0.098Z" style="fill:#b58767;"/><path d="M240.833,150.593c0.037,0.404 0.077,0.809 0.12,1.216c-1.486,0.487 -2.987,0.901 -4.554,1.08c-2.447,0.28 -5.228,0.098 -7.591,-0.656c-0.448,-0.143 -0.894,-0.34 -1.334,-0.562c0.002,-0.169 0.004,-0.338 0.006,-0.507c3.257,1.276 6.94,1.184 10.306,0.399c0.92,-0.215 1.777,-0.493 2.66,-0.827c0.123,-0.046 0.254,-0.093 0.387,-0.143Z" style="fill:#b58767;"/><path d="M233.673,118.932c2.373,-5.077 5.547,-9.681 9.719,-13.695l5.136,2.903c-2.572,5.11 -4.569,10.471 -5.934,16.109c-4.009,-0.301 -7.183,-1.996 -8.921,-5.317Z" style="fill:#6b4124;fill-opacity:0.5;"/></g><g><g><path d="M264.752,117.045c-1.652,-7.923 -7.081,-14.382 -16.121,-15.298c-2.935,4.488 -3.422,8.371 -2.527,11.842c3.453,-2.97 7.304,-3.043 11.374,-1.522c-4.097,0.607 -6.694,3.396 -8.091,7.93c1.691,2.257 3.76,4.354 5.759,6.372c2.034,-0.881 4.108,-1.174 6.23,-0.744c-1.367,0.692 -2.528,1.922 -3.558,3.49c1.95,2.083 3.586,4.118 4.369,6.204c2.109,-4.146 3.136,-8.719 3.105,-13.123c-1.689,-2.466 -3.664,-3.935 -5.82,-4.766c1.916,-1.093 3.676,-1.221 5.28,-0.385Z" style="fill:#bcf146;"/><path d="M261.376,125.625c-1.367,0.692 -2.528,1.922 -3.558,3.49c1.95,2.083 3.586,4.118 4.369,6.204c0.025,-2.879 -0.243,-6.233 -0.811,-9.694Zm-0,-0c-0.758,-4.619 -2.051,-9.429 -3.898,-13.558c-4.097,0.607 -6.694,3.396 -8.091,7.93c1.691,2.257 3.76,4.354 5.759,6.372c2.034,-0.881 4.108,-1.174 6.23,-0.744Zm-3.898,-13.558c-2.172,-4.854 -5.11,-8.767 -8.847,-10.32c-2.935,4.488 -3.422,8.371 -2.527,11.842c3.453,-2.97 7.304,-3.043 11.374,-1.522Z" style="fill:#a9de35;"/></g><g><path d="M233.956,113.872c-4.907,1.235 -10.813,2.96 -17.359,6.92c0.022,-2.196 0.275,-4.265 0.723,-6.194l2.936,0.043l-2.564,-1.461c0.563,-1.925 1.326,-3.697 2.25,-5.304c2.156,0.218 4.123,0.655 5.574,1.695c-0.624,-2.342 -2.435,-3.302 -4.177,-3.837c6.707,-9.122 19.061,-11.485 27.292,-3.987c-0.21,7.983 -4.394,9.559 -11.206,11.267c-1.914,-2.555 -4.126,-4.872 -6.533,-7.033c1.424,2.507 2.648,5.074 3.064,7.891Z" style="fill:#85b41c;"/><path d="M230.892,105.981c1.424,2.507 2.648,5.074 3.064,7.891c-4.907,1.235 -10.813,2.96 -17.359,6.92c2.272,-6.057 8.081,-11.291 14.295,-14.811Zm6.533,7.033c-1.914,-2.555 -4.126,-4.872 -6.533,-7.033c6.795,-3.849 14.074,-5.649 17.739,-4.234c-0.21,7.983 -4.394,9.559 -11.206,11.267Z" style="fill:#7ca916;"/></g><g><path d="M235.586,93.52c-0.306,-2.732 0.601,-5.464 2.374,-8.196c0.924,1.479 2.026,2.724 3.607,3.341c3.138,-1.133 7.1,-0.658 11.337,2.223c0.655,0.446 0.86,1.281 0.742,2.315c-2.15,-0.964 -4.352,-1.028 -6.6,-0.325c2.205,-0.172 4.236,0.525 6.013,2.492c-0.9,2.271 -2.655,4.816 -4.428,6.377c-5.836,-0.867 -10.821,-3.066 -12.352,-5.459c2.086,-3.394 4.615,-5.705 7.579,-6.954c-3.317,0.448 -6.382,1.322 -8.272,4.186Z" style="fill:#8bae3d;"/><path d="M243.858,89.334c3.349,2.431 7.418,10.083 4.773,12.413c-5.836,-0.867 -10.821,-3.066 -12.352,-5.459c2.086,-3.394 4.615,-5.705 7.579,-6.954Zm-8.272,4.186c-0.306,-2.732 0.601,-5.464 2.374,-8.196c0.924,1.479 2.026,2.724 3.607,3.341c0.636,-0.23 1.44,0.051 2.291,0.669c-3.317,0.448 -6.382,1.322 -8.272,4.186Z" style="fill:#749230;"/></g><g><path d="M245.666,93.752c1.39,1.799 2.41,4.331 2.965,7.995c-8.363,2.558 -14.701,1.268 -19.189,-2.218l4.663,-6.147l-7.105,3.838c-2.915,-3.32 -4.741,-7.761 -5.562,-12.558c8.231,4.538 16.109,3.468 21.34,6.553l-1.362,4.852l4.25,-2.315Z" style="fill:#accf5e;"/><path d="M234.105,93.382c2.533,0.928 4.996,1.639 7.311,2.685c2.633,1.189 5.076,2.812 7.215,5.68c-8.363,2.558 -14.701,1.268 -19.189,-2.218l4.663,-6.147Zm-0,0l-7.105,3.838c-2.915,-3.32 -4.741,-7.761 -5.562,-12.558c4.188,5.102 8.522,7.202 12.667,8.72Z" style="fill:#9dc73f;"/></g><g><path d="M268.48,104.458c2.155,1.948 4.324,3.977 6.52,5.638c-2.343,0.907 -4.601,1.571 -6.757,1.953l-2.161,-4.145l0.252,4.41c-1.338,0.134 -2.633,0.148 -3.882,0.031l0.525,-6.494l-3.371,5.977c-4.416,-1.227 -8.139,-4.406 -10.975,-10.081c3.075,-3.847 6.09,-4.87 9.085,-4.282l-0.51,4.524l3.091,-3.644c2.224,1.054 4.444,2.81 6.674,4.766l-2.406,3.777l3.915,-2.43Z" style="fill:#aeda4d;"/><path d="M259.606,111.828c-4.416,-1.227 -8.139,-4.406 -10.975,-10.081c4.515,-3.295 9.124,0.59 14.346,4.104l-3.371,5.977Zm3.371,-5.977c3.649,2.455 7.597,4.729 12.023,4.245c-2.343,0.907 -4.601,1.571 -6.757,1.953l-2.161,-4.145l0.252,4.41c-1.338,0.134 -2.633,0.148 -3.882,0.031l0.525,-6.494Z" style="fill:#a4cc4c;"/></g><g><path d="M258.067,89.334c5.644,-0.895 11.764,4.523 14.278,8.681c-1.319,-0.388 -2.511,-0.517 -3.631,-0.467l-2.833,-3.625l1.229,3.763l-4.17,-4.304l2.442,4.82c-2.652,0.874 -5.206,2.396 -8.608,3.219l-2.83,-5.24l0,5.716c-1.573,0.149 -3.323,0.129 -5.313,-0.15c1.675,-6.619 4.223,-10.132 7.061,-11.623l2.916,3.906l-0.541,-4.696Z" style="fill:#accf5e;"/><path d="M253.944,96.181l0,5.716c-1.573,0.149 -3.323,0.129 -5.313,-0.15c1.722,-2.462 3.516,-4.272 5.313,-5.566Zm0,0c3.11,-2.238 6.23,-2.931 9.006,-2.779l2.432,4.8c-2.652,0.874 -5.206,2.396 -8.608,3.219l-2.83,-5.24Zm9.016,-2.778c4.68,0.259 8.378,2.919 9.385,4.612c-1.319,-0.388 -2.511,-0.517 -3.631,-0.467l-2.833,-3.625l1.229,3.763l-4.15,-4.283Z" style="fill:#9dc73f;"/></g><g><path d="M247.589,121.351c-1.757,2.684 -4.291,5.182 -7.646,7.483c-0.72,-2.633 -1.249,-5.095 -1.578,-7.377l3.582,-0.733l-3.78,-0.827c-0.151,-1.411 -0.221,-2.746 -0.205,-4.005l5.307,-0.601l-5.183,-1.61c0.379,-3.688 1.622,-6.598 3.796,-8.667l3.403,2.747l-2.131,-3.788c1.49,-1.045 3.311,-1.791 5.477,-2.226c2.471,6.207 2.694,11.876 0.417,16.946l-6.28,-1.557l4.821,4.215Z" style="fill:#accf5e;"/><path d="M242.768,117.136l4.821,4.215c-1.757,2.684 -4.291,5.182 -7.646,7.483c1.141,-4.184 2.004,-8.128 2.825,-11.698Zm6.28,1.557l-6.28,-1.557c1.564,-6.795 2.976,-12.233 5.863,-15.389c2.471,6.207 2.694,11.876 0.417,16.946Z" style="fill:#9dc73f;"/></g></g></g><g><ellipse cx="65.697" cy="147.939" rx="10.499" ry="5.539" style="fill:#dfc86d;"/><g><path d="M72.516,147.139c0.297,-20.066 -3.099,-37.95 -15.908,-50.271l-5.136,2.902c6.869,13.65 9.645,29.091 7.192,46.818c-0.051,0.18 -0.078,0.364 -0.078,0.551c0,2.028 3.121,3.675 6.965,3.675c3.844,-0 6.965,-1.647 6.965,-3.675Z" style="fill:#906344;"/><path d="M59.532,132.876c0.007,0.428 0.01,0.857 0.01,1.288c1.333,0.044 2.706,-0.015 4.019,-0.164c2.867,-0.326 5.746,-1.079 8.29,-2.443c-0.054,-0.483 -0.112,-0.963 -0.173,-1.441c-0.864,0.577 -1.791,1.071 -2.786,1.461c-1.815,0.71 -3.832,1.011 -5.759,1.199c-0.847,0.082 -1.682,0.084 -2.532,0.088c-0.358,0.002 -0.716,0.016 -1.069,0.012Z" style="fill:#b58767;"/><path d="M57.143,114.826c0.053,0.205 0.105,0.411 0.156,0.618c0.828,-0.219 1.641,-0.499 2.369,-0.886c1.336,-0.71 2.598,-1.491 3.735,-2.49c0.919,-0.808 1.675,-1.736 2.33,-2.733c-0.188,-0.374 -0.379,-0.746 -0.576,-1.114c-1.25,2.042 -2.92,3.804 -5.054,5.105c-0.884,0.539 -1.895,1.243 -2.96,1.5Z" style="fill:#b58767;"/><path d="M54.521,106.646c0.151,0.392 0.299,0.786 0.444,1.181c0.408,-0.11 0.811,-0.239 1.208,-0.385c2.421,-0.89 4.364,-2.479 5.702,-4.501c-0.252,-0.35 -0.51,-0.697 -0.773,-1.041c-0.976,1.248 -2.187,2.287 -3.516,3.191c-0.872,0.594 -2.026,1.307 -3.065,1.555Z" style="fill:#b58767;"/><path d="M58.665,122.299c0.033,0.223 0.066,0.447 0.098,0.672c0.634,0.1 1.303,0.095 1.803,0.104c0.275,0.005 1.162,0.013 1.534,-0.008c2.719,-0.149 5.584,-1.283 7.588,-3.204c-0.096,-0.354 -0.194,-0.706 -0.295,-1.057c-1.883,2.01 -4.646,3.25 -7.395,3.395c-0.901,0.047 -2.213,0.274 -3.333,0.098Z" style="fill:#b58767;"/><path d="M59.167,142.224c-0.037,0.404 -0.077,0.809 -0.12,1.215c1.486,0.488 2.987,0.901 4.554,1.081c2.447,0.28 5.228,0.097 7.591,-0.657c0.448,-0.143 0.894,-0.34 1.334,-0.562c-0.002,-0.169 -0.004,-0.338 -0.006,-0.507c-3.257,1.277 -6.94,1.184 -10.306,0.399c-0.92,-0.214 -1.777,-0.492 -2.66,-0.826c-0.123,-0.047 -0.254,-0.093 -0.387,-0.143Z" style="fill:#b58767;"/><path d="M66.327,110.562c-2.373,-5.077 -5.547,-9.681 -9.719,-13.694l-5.136,2.902c2.572,5.11 4.569,10.471 5.934,16.109c4.009,-0.301 7.183,-1.995 8.921,-5.317Z" style="fill:#6b4124;fill-opacity:0.5;"/></g><g><g><path d="M35.248,108.676c1.652,-7.924 7.081,-14.382 16.121,-15.298c2.935,4.487 3.422,8.37 2.527,11.842c-3.453,-2.97 -7.304,-3.044 -11.374,-1.522c4.097,0.606 6.694,3.395 8.091,7.93c-1.691,2.257 -3.76,4.353 -5.759,6.371c-2.034,-0.881 -4.108,-1.173 -6.23,-0.744c1.367,0.693 2.528,1.922 3.558,3.49c-1.95,2.083 -3.586,4.119 -4.369,6.204c-2.109,-4.146 -3.136,-8.719 -3.105,-13.123c1.689,-2.466 3.664,-3.934 5.82,-4.766c-1.916,-1.093 -3.676,-1.221 -5.28,-0.384Z" style="fill:#bcf146;"/><path d="M38.624,117.255c1.367,0.693 2.528,1.922 3.558,3.49c-1.95,2.083 -3.586,4.119 -4.369,6.204c-0.025,-2.878 0.243,-6.232 0.811,-9.694Zm0,0c0.758,-4.618 2.051,-9.428 3.898,-13.557c4.097,0.606 6.694,3.395 8.091,7.93c-1.691,2.257 -3.76,4.353 -5.759,6.371c-2.034,-0.881 -4.108,-1.173 -6.23,-0.744Zm3.898,-13.557c2.172,-4.855 5.11,-8.768 8.847,-10.32c2.935,4.487 3.422,8.37 2.527,11.842c-3.453,-2.97 -7.304,-3.044 -11.374,-1.522Z" style="fill:#a9de35;"/></g><g><path d="M66.044,105.502c4.907,1.235 10.813,2.96 17.359,6.921c-0.022,-2.197 -0.275,-4.265 -0.723,-6.194l-2.936,0.043l2.564,-1.462c-0.563,-1.924 -1.326,-3.696 -2.25,-5.303c-2.156,0.217 -4.123,0.654 -5.574,1.694c0.624,-2.342 2.435,-3.302 4.177,-3.836c-6.707,-9.122 -19.061,-11.486 -27.292,-3.987c0.21,7.982 4.394,9.558 11.206,11.266c1.914,-2.554 4.126,-4.871 6.533,-7.032c-1.424,2.506 -2.648,5.074 -3.064,7.89Z" style="fill:#85b41c;"/><path d="M69.108,97.612c-1.424,2.506 -2.648,5.074 -3.064,7.89c4.907,1.235 10.813,2.96 17.359,6.921c-2.272,-6.057 -8.081,-11.291 -14.295,-14.811Zm-6.533,7.032c1.914,-2.554 4.126,-4.871 6.533,-7.032c-6.795,-3.85 -14.074,-5.649 -17.739,-4.234c0.21,7.982 4.394,9.558 11.206,11.266Z" style="fill:#7ca916;"/></g><g><path d="M64.414,85.151c0.306,-2.732 -0.601,-5.465 -2.374,-8.197c-0.924,1.48 -2.026,2.725 -3.607,3.341c-3.138,-1.132 -7.1,-0.657 -11.337,2.224c-0.655,0.446 -0.86,1.281 -0.742,2.314c2.15,-0.964 4.352,-1.028 6.6,-0.324c-2.205,-0.173 -4.236,0.524 -6.013,2.491c0.9,2.271 2.655,4.817 4.428,6.378c5.836,-0.868 10.821,-3.066 12.352,-5.46c-2.086,-3.394 -4.615,-5.705 -7.579,-6.954c3.317,0.448 6.382,1.322 8.272,4.187Z" style="fill:#8bae3d;"/><path d="M56.142,80.964c-3.349,2.432 -7.418,10.084 -4.773,12.414c5.836,-0.868 10.821,-3.066 12.352,-5.46c-2.086,-3.394 -4.615,-5.705 -7.579,-6.954Zm8.272,4.187c0.306,-2.732 -0.601,-5.465 -2.374,-8.197c-0.924,1.48 -2.026,2.725 -3.607,3.341c-0.636,-0.229 -1.44,0.051 -2.291,0.669c3.317,0.448 6.382,1.322 8.272,4.187Z" style="fill:#749230;"/></g><g><path d="M54.334,85.382c-1.39,1.8 -2.41,4.332 -2.965,7.996c8.363,2.558 14.701,1.268 19.189,-2.219l-4.663,-6.146l7.105,3.838c2.915,-3.32 4.741,-7.762 5.562,-12.559c-8.231,4.538 -16.109,3.469 -21.34,6.553l1.362,4.852l-4.25,-2.315Z" style="fill:#accf5e;"/><path d="M65.895,85.013c-2.533,0.928 -4.996,1.638 -7.311,2.684c-2.633,1.189 -5.076,2.812 -7.215,5.681c8.363,2.558 14.701,1.268 19.189,-2.219l-4.663,-6.146Zm0,-0l7.105,3.838c2.915,-3.32 4.741,-7.762 5.562,-12.559c-4.188,5.103 -8.522,7.203 -12.667,8.721Z" style="fill:#9dc73f;"/></g><g><path d="M31.52,96.088c-2.155,1.948 -4.324,3.977 -6.52,5.638c2.343,0.907 4.601,1.571 6.757,1.953l2.161,-4.145l-0.252,4.411c1.338,0.133 2.633,0.147 3.882,0.031l-0.525,-6.494l3.371,5.977c4.416,-1.227 8.139,-4.406 10.975,-10.081c-3.075,-3.847 -6.09,-4.871 -9.085,-4.282l0.51,4.523l-3.091,-3.644c-2.224,1.055 -4.444,2.811 -6.674,4.767l2.406,3.776l-3.915,-2.43Z" style="fill:#aeda4d;"/><path d="M40.394,103.459c4.416,-1.227 8.139,-4.406 10.975,-10.081c-4.515,-3.296 -9.124,0.59 -14.346,4.104l3.371,5.977Zm-3.371,-5.977c-3.649,2.455 -7.597,4.728 -12.023,4.244c2.343,0.907 4.601,1.571 6.757,1.953l2.161,-4.145l-0.252,4.411c1.338,0.133 2.633,0.147 3.882,0.031l-0.525,-6.494Z" style="fill:#a4cc4c;"/></g><g><path d="M41.933,80.964c-5.644,-0.894 -11.764,4.524 -14.278,8.681c1.319,-0.387 2.511,-0.517 3.631,-0.467l2.833,-3.625l-1.229,3.763l4.17,-4.303l-2.442,4.82c2.652,0.874 5.206,2.396 8.608,3.219l2.83,-5.24l-0,5.715c1.573,0.15 3.323,0.129 5.313,-0.149c-1.675,-6.62 -4.223,-10.133 -7.061,-11.624l-2.916,3.906l0.541,-4.696Z" style="fill:#accf5e;"/><path d="M46.056,87.812l-0,5.715c1.573,0.15 3.323,0.129 5.313,-0.149c-1.722,-2.462 -3.516,-4.273 -5.313,-5.566Zm-0,-0c-3.11,-2.239 -6.23,-2.931 -9.006,-2.779l-2.432,4.8c2.652,0.874 5.206,2.396 8.608,3.219l2.83,-5.24Zm-9.016,-2.779c-4.68,0.26 -8.378,2.92 -9.385,4.612c1.319,-0.387 2.511,-0.517 3.631,-0.467l2.833,-3.625l-1.229,3.763l4.15,-4.283Z" style="fill:#9dc73f;"/></g><g><path d="M52.411,112.981c1.757,2.685 4.291,5.182 7.646,7.484c0.72,-2.634 1.249,-5.095 1.578,-7.377l-3.582,-0.734l3.78,-0.827c0.151,-1.41 0.221,-2.746 0.205,-4.005l-5.307,-0.601l5.183,-1.609c-0.379,-3.688 -1.622,-6.598 -3.796,-8.668l-3.403,2.748l2.131,-3.788c-1.49,-1.045 -3.311,-1.791 -5.477,-2.226c-2.471,6.207 -2.694,11.875 -0.417,16.946l6.28,-1.558l-4.821,4.215Z" style="fill:#accf5e;"/><path d="M57.232,108.766l-4.821,4.215c1.757,2.685 4.291,5.182 7.646,7.484c-1.141,-4.185 -2.004,-8.129 -2.825,-11.699Zm-6.28,1.558l6.28,-1.558c-1.564,-6.795 -2.976,-12.233 -5.863,-15.388c-2.471,6.207 -2.694,11.875 -0.417,16.946Z" style="fill:#9dc73f;"/></g></g></g><g><path d="M102.493,187.556c-1.379,-0.869 -2.094,-1.761 -2.094,-2.45l-12.199,-78.71l38.983,-6.819l0.064,-9.708l43.197,5.046l22.402,14.294l47.643,-5.304l-11.548,78.69c0.151,0.649 -0.251,1.161 -1.24,1.382l-24.28,5.425l-99.269,-0.643l-1.659,-1.203Z" style="fill:#63381c;"/><path d="M205.127,189.021l-1.706,0.381l-32.977,-94.487l22.402,14.294l28.033,-3.121c-0.626,3.631 -0.664,7.382 -1.776,10.86c-1.633,4.12 -3.927,7.657 -5.644,11.693c-0.437,1.028 -0.729,2.113 -1.077,3.183c-0.601,1.941 -1.117,3.92 -1.562,5.919c-0.647,2.909 -1.143,5.859 -1.617,8.771c-0.54,3.499 -0.956,7.012 -1.299,10.533c-0.783,8.026 -1.196,16.09 -1.979,24.115c-0.237,2.622 -0.514,5.241 -0.798,7.859Zm17.967,-83.179l7.05,-0.785c-0.354,2.101 -0.53,4.224 -0.706,6.345c-0.739,8.911 -0.419,17.876 -1.598,26.809c-0.364,3.301 -0.887,6.569 -1.475,9.823c-1.399,7.738 -3.216,15.393 -4.605,23.15c-0.835,4.835 -1.501,9.641 -1.622,14.483l-6.245,1.395c0.179,-1.679 0.361,-3.357 0.548,-5.035c0.846,-8.019 1.326,-16.079 2.167,-24.099c0.352,-3.356 0.767,-6.705 1.305,-10.039l2.706,-13.629c0.364,-1.566 0.835,-3.089 1.157,-4.651c0.806,-3.909 1.249,-7.702 1.476,-11.736c0.513,-3.959 -0.027,-8.006 -0.158,-12.031Zm10.021,-1.116l7.374,-0.821l-11.548,78.69c0.151,0.649 -0.251,1.161 -1.24,1.382l-2.091,0.467c0.351,-4.111 0.566,-8.233 1.343,-12.342c1.356,-7.763 3.173,-15.42 4.505,-23.169c0.581,-3.378 1.064,-6.774 1.397,-10.2c0.24,-2.627 0.396,-5.251 0.425,-7.875c0.09,-8.23 -0.357,-16.401 -0.184,-24.626c0.01,-0.503 0.016,-1.005 0.019,-1.506Z" style="fill:#854f2b;"/><path d="M93.25,114.892c1.702,-0.38 138.618,16.051 138.618,16.051l-11.421,74.711c0.026,0.55 -0.389,0.977 -1.27,1.174l-56.332,12.587c-1.976,0.441 -5.553,-0.443 -7.983,-1.975l-8.311,-5.236l-5.667,1.266c-1.702,0.38 -4.783,-0.382 -6.876,-1.701l-27.534,-17.35c-1.329,-0.838 -1.943,-1.7 -1.777,-2.315l-11.447,-77.212Z" style="fill:#9f6036;"/><path d="M231.868,130.943l-11.421,74.711c0.026,0.55 -0.388,0.977 -1.269,1.174c0.379,-4.953 0.985,-9.957 1.123,-14.906c0.049,-1.771 -0.178,-3.493 -0.254,-5.231c-0.04,-2.41 0.25,-4.805 0.21,-7.217c-0.011,-0.677 -0.041,-1.339 -0.109,-2.012c-0.08,-0.707 -0.184,-1.392 -0.352,-2.089c-0.531,-2.201 -1.478,-4.349 -1.775,-6.597c-0.145,-1.531 -0.178,-3.105 -0.402,-4.686c-0.096,-0.684 -0.329,-1.314 -0.411,-2.006c-0.427,-3.619 0.085,-7.353 -0.024,-10.954c-0.049,-1.645 -0.299,-3.18 -0.375,-4.765c0.004,-0.024 -0.014,-0.047 -0.038,-0.05c-0.025,-0.003 -0.047,0.014 -0.051,0.039c-0.48,1.529 -1.011,3.013 -1.306,4.649c-0.121,0.668 -0.145,1.353 -0.202,2.037c-0.22,2.622 -0.318,5.292 -0.371,7.937c-0.009,0.425 0.02,0.85 -0.021,1.27c-0.065,0.66 -0.274,1.259 -0.341,1.912c-0.164,1.611 -0.077,3.21 -0.094,4.77c-0.059,1.824 0.356,3.646 0.536,5.484c0.098,1 0.036,1.969 -0.114,2.942l-1.774,8.854c-0.317,1.734 -0.758,3.438 -0.929,5.225c-0.392,4.085 -0.16,8.264 -0.009,12.402c0.055,1.517 0.104,3.03 0.187,4.533l-19.144,4.277c0.118,-1.18 0.239,-2.359 0.358,-3.534c0.326,-3.224 0.575,-6.42 0.815,-9.541c0.257,-7.496 0.006,-15.002 0.094,-22.556c0.057,-4.978 0.362,-9.944 0.565,-14.883c0.093,-2.297 -0.084,-4.492 -0.531,-6.641c-0.426,-2.048 -1.088,-4.024 -1.606,-6.11c-0.649,-3.446 -0.969,-6.83 -1.148,-10.24l14.477,-2.954c-0.153,1.135 -0.278,2.279 -0.378,3.428c-0.34,3.899 -0.395,7.852 -0.357,11.692l0.403,7.486c-0.18,8.552 -2.209,16.907 -3.211,25.363c-0.202,1.711 -0.544,3.423 -0.467,5.145c0.021,0.451 0.13,0.86 0.204,1.306c-0.003,0.05 0.036,0.094 0.087,0.096c0.051,0.003 0.094,-0.035 0.097,-0.086c0.123,-0.431 0.287,-0.818 0.375,-1.258c0.085,-0.417 0.087,-0.847 0.138,-1.27c0.912,-7.645 3.076,-15.104 4.307,-22.717c0.347,-2.144 0.619,-4.298 0.775,-6.472c0.025,-0.813 -0.013,-1.618 -0.09,-2.418c-0.17,-1.752 -0.519,-3.48 -0.619,-5.245c-0.228,-3.781 -0.368,-7.677 -0.232,-11.536c0.045,-1.263 0.118,-2.522 0.228,-3.771l24.446,-4.987Zm-42.352,8.641c0.042,3.394 0.26,6.773 0.767,10.223c0.309,2.939 0.74,5.739 0.9,8.625c0.064,1.142 0.108,2.295 0.021,3.483c-0.492,6.156 -0.726,12.379 -1.44,18.559c-0.572,4.945 -1.623,9.762 -2.405,14.653c-0.195,1.213 -0.342,2.429 -0.524,3.641c-0.441,3.194 -1.002,6.452 -1.436,9.763c-0.261,1.987 -0.49,3.99 -0.68,5.996l-7.206,1.611c1.411,-10.318 3.36,-20.591 3.191,-30.979c-0.079,-3.576 -0.385,-7.051 -0.926,-10.492c-0.529,-3.368 -1.273,-6.699 -2.103,-10.086c-0.612,-2.156 -1.374,-4.373 -1.986,-6.615c-0.361,-1.323 -0.705,-2.635 -0.858,-3.956c-0.242,-2.205 -0.314,-4.433 -0.186,-6.668c0.093,-1.628 0.327,-3.239 0.586,-4.844l14.285,-2.914Zm-25.552,5.213c2.067,0.217 3.529,0.186 4.506,-0.023c-0.654,3.183 -0.99,6.409 -1,9.626c-0.016,1.714 0.182,3.45 0.442,5.199c0.346,2.329 0.867,4.648 1.236,6.889c0.781,3.817 1.401,7.563 1.813,11.354c0.268,2.455 0.452,4.929 0.477,7.463c0.182,11.064 -2.28,21.981 -3.569,32.987l-5.024,1.123c-0.147,0.033 -0.302,0.058 -0.465,0.077c0.021,-1.312 0.061,-2.622 0.153,-3.928c0.268,-3.56 0.86,-7.096 1.257,-10.646c0.182,-1.625 0.326,-3.252 0.39,-4.884c0.098,-2.501 0.058,-4.993 -0.088,-7.478c-0.552,-9.443 -2.541,-18.779 -2.424,-28.267c-0.035,-4.036 0.678,-8.027 1.153,-12.049c0.216,-1.825 0.335,-3.636 0.436,-5.464c0.035,-0.62 0.059,-1.23 0.077,-1.85l0.63,-0.129Zm-5.312,1.084c-0.014,0.054 -0.029,0.109 -0.043,0.164c-0.378,1.44 -0.808,2.855 -1.188,4.296l-0.369,-4.133l1.6,-0.327Z" style="fill:#ab6638;"/><path d="M147.929,213.072l-1.378,-0.868l-3.4,-75.482c1.035,0.46 1.614,0.718 1.614,0.718l0.902,0.568c-0.01,-0 -0.021,0 -0.032,0.002c-0.152,0.018 -0.262,0.156 -0.243,0.309c-0.107,0.028 -0.169,0.03 -0.202,0.019c0.218,-0.317 -0.136,-0.045 -0,0c-0.009,0.013 -0.019,0.027 -0.029,0.041c-0.026,0.035 0.004,0.086 0.007,0.13c0.038,0.485 0.088,0.969 0.131,1.454c0.429,4.87 0.529,9.784 1.01,14.659c0.266,3.607 0.812,7.153 1.132,10.744c0.135,1.508 0.22,3.021 0.241,4.55c0.087,4.941 -0.283,9.864 -0.424,14.797c-0.062,2.145 -0.053,4.289 -0.005,6.433l0.588,17.459c0.04,1.496 0.057,2.983 0.088,4.467Zm-2.009,-74.905l0.132,0.083c-0.029,0.003 -0.064,0.004 -0.107,0.003c-0.004,-0.031 -0.013,-0.06 -0.025,-0.086Zm0.284,0.179l7.577,4.766c-0.07,0.223 -0.154,0.41 -0.191,0.641c-0.135,0.847 -0.034,1.709 0.023,2.562c0.274,4.156 1.391,8.23 1.415,12.401c0.007,0.731 -0.039,1.462 -0.107,2.193c-0.165,1.768 -0.476,3.534 -0.659,5.286c-0.105,1.263 -0.173,2.53 -0.196,3.799c-0.035,1.886 0.018,3.773 0.06,5.656l0.632,11.217c0.2,2.009 0.449,3.965 0.619,5.938c0.112,1.301 0.19,2.609 0.201,3.945c0.002,1.823 0.062,3.658 -0.189,5.465c-0.257,1.852 -0.953,3.555 -1.254,5.402c-0.481,2.954 -0.621,5.951 -0.672,8.942l-3.292,-2.075c0.134,-1.949 0.146,-3.908 0.218,-5.879c0.08,-3.518 0.151,-7.024 0.149,-10.535c-0.001,-2.341 -0.043,-4.682 -0.091,-7.027c-0.259,-4.929 -0.136,-9.871 -0.273,-14.81c-0.06,-2.145 -0.185,-4.283 -0.37,-6.422c-0.134,-1.571 -0.343,-3.119 -0.58,-4.662c-0.548,-3.558 -1.265,-7.066 -1.732,-10.647c-0.513,-4.87 -0.578,-9.788 -1.104,-14.646c-0.053,-0.491 -0.107,-0.981 -0.182,-1.468c-0.002,-0.013 -0.002,-0.028 -0.002,-0.042Zm8.338,5.245l4.071,2.56c-0,0 2.631,73.41 1.651,73.264c-1.312,-0.196 -2.766,-0.637 -4.068,-1.249c0.128,-3.34 0.499,-6.672 0.515,-10.022c0.008,-1.935 -0.399,-3.787 -0.435,-5.719c-0.035,-1.895 0.162,-3.786 0.14,-5.68c-0.007,-1.358 -0.084,-2.688 -0.192,-4.011c-0.161,-1.977 -0.394,-3.938 -0.582,-5.953c-0.164,-1.838 -0.269,-3.692 -0.241,-5.546c0.028,-1.869 0.191,-3.727 0.296,-5.581l0.486,-9.28c0.145,-1.763 0.424,-3.542 0.544,-5.32c0.053,-0.794 0.075,-1.587 0.045,-2.379c-0.064,-1.609 -0.268,-3.2 -0.533,-4.785c-0.422,-2.52 -0.939,-5.029 -1.315,-7.558c-0.127,-0.856 -0.162,-1.722 -0.338,-2.573c-0.012,-0.059 -0.027,-0.114 -0.044,-0.168Zm-42.511,54.33l-5.557,-3.502c-1.329,-0.838 -1.943,-1.7 -1.777,-2.315l-11.447,-77.212c0.107,-0.024 2.701,1.131 6.53,2.877c-0.073,0.219 -0.141,0.441 -0.199,0.671c-0.132,0.519 -0.187,1.054 -0.263,1.585c-0.294,2.062 -0.445,4.143 -0.311,6.221c0.089,0.77 0.208,1.523 0.387,2.262c0.395,1.639 0.977,3.198 1.4,4.852c0.347,1.658 0.654,3.286 0.915,4.919c0.237,1.48 0.367,2.966 0.584,4.461c0.145,1.001 0.36,1.97 0.506,2.993c0.001,0.061 0.051,0.111 0.112,0.11c0.062,-0 0.111,-0.051 0.111,-0.112c0.117,-0.862 0.248,-1.688 0.288,-2.541c0.041,-0.853 -0.008,-1.699 -0.046,-2.543c-0.115,-2.526 -0.411,-5.019 -0.765,-7.583c-0.127,-1.218 -0.331,-2.402 -0.501,-3.597c-0.159,-1.124 -0.278,-2.245 -0.276,-3.404c-0.166,-2.238 0.276,-4.459 0.356,-6.701c0.007,-0.182 0.008,-0.361 0.006,-0.54c11.93,5.465 31.712,14.696 31.712,14.696l5.76,80.042c-1.708,-0.08 -3.925,-0.768 -5.548,-1.791l-2.487,-1.567c0.084,-0.261 0.168,-0.504 0.22,-0.794c0.153,-0.849 0.168,-1.692 0.222,-2.554c0.177,-2.879 0.209,-5.744 0.123,-8.62c-0.205,-2.74 -0.525,-5.432 -0.899,-8.123c-0.242,-1.747 -0.523,-3.488 -0.718,-5.253c-0.118,-1.072 -0.216,-2.152 -0.275,-3.243c-0.175,-2.748 -0.166,-5.504 -0.214,-8.261c-0.033,-1.862 -0.106,-3.719 -0.167,-5.582c-0.102,-3.138 -0.245,-6.259 -0.511,-9.383c-0.109,-1.499 -0.285,-2.979 -0.435,-4.461c-0.349,-3.446 -0.694,-6.862 -0.796,-10.28c-0.067,-2.254 0.088,-4.5 0.295,-6.781c0.087,-0.965 0.133,-1.929 0.273,-2.911c0.045,-0.19 -0.072,-0.38 -0.262,-0.426c-0.189,-0.045 -0.38,0.072 -0.425,0.262c-0.26,0.722 -0.517,1.424 -0.687,2.157c-0.4,1.73 -0.492,3.487 -0.569,5.227c-0.178,4.036 0.228,8.06 0.418,12.138c0.079,1.703 0.09,3.41 0.064,5.132c-0.133,4.652 -0.666,9.272 -0.898,13.925c-0.157,3.152 -0.133,6.306 -0.008,9.453c0.124,2.33 0.371,4.617 0.737,6.879c0.535,3.302 1.282,6.547 1.745,9.894c0.62,3.169 0.843,6.384 1.416,9.567c0.084,0.469 0.154,0.926 0.302,1.376l-14.942,-9.414c0.131,-0.328 0.247,-0.674 0.341,-1.06c0.066,-0.271 0.062,-0.55 0.07,-0.83c0.063,-2.213 -0.083,-4.428 -0.147,-6.64c-0.027,-0.93 -0.094,-1.856 -0.108,-2.787l-1.289,-25.734c-0.036,-0.636 -0.139,-1.265 -0.279,-1.888c-0.304,-1.359 -0.787,-2.696 -1.08,-4.045c-0.368,-1.691 -0.676,-3.381 -0.921,-5.077c-0.259,-1.782 -0.325,-3.579 -0.516,-5.38c-0.083,-0.787 -0.252,-1.536 -0.346,-2.329c0.002,-0.068 -0.051,-0.126 -0.12,-0.128c-0.068,-0.003 -0.126,0.051 -0.128,0.119c-0.168,0.884 -0.356,1.732 -0.408,2.62c-0.052,0.879 0.037,1.757 0.095,2.632c0.176,2.616 0.575,5.206 1.086,7.804c0.268,1.355 0.731,2.7 1.004,4.066c0.11,0.551 0.185,1.106 0.201,1.665c0.066,4.293 0.127,8.546 -0.044,12.798c-0.171,4.258 -0.577,8.478 -0.984,12.759c-0.077,0.983 -0.152,1.963 -0.159,2.948c-0.017,2.094 0.044,4.195 0.233,6.282Zm7.615,-68.023c-0.361,0.807 -0.785,1.02 -0.963,1.887c-0.028,0.134 0.019,0.272 0.03,0.408c0.355,4.361 -0.429,8.858 -0.583,13.323c-0.071,2.045 0.068,4.071 0.314,6.051c0.433,2.35 1.01,4.648 1.453,7.003c0.431,2.296 0.724,4.612 0.94,6.939l0.243,10.078c0.342,4.107 0.694,8.294 0.942,12.461c0.106,1.78 0.088,3.56 0.249,5.322c0.063,0.681 0.216,1.312 0.31,1.987c-0.007,0.158 0.115,0.292 0.273,0.3c0.158,0.008 0.292,-0.114 0.3,-0.272c0.156,-0.605 0.344,-1.167 0.433,-1.788c0.2,-1.387 0.15,-2.802 0.144,-4.213c-0.02,-4.657 -0.5,-9.345 -0.823,-13.938l-0.056,-10.051c-0.05,-2.387 -0.301,-4.757 -0.45,-7.138c-0.148,-2.357 -0.191,-4.692 -0.209,-7.047c-0.095,-1.632 0.016,-3.283 0.044,-4.955c0.067,-4.07 0.177,-8.227 -0.315,-12.219c-0.111,-0.907 -0.026,-1.889 -0.467,-2.68c-0.449,-0.802 -0.906,-0.911 -1.608,-1.504c-0.012,-0.055 -0.068,-0.09 -0.123,-0.077c-0.056,0.012 -0.091,0.068 -0.078,0.123Z" style="fill:#854f2b;"/><path d="M94.047,120.266l-0.748,-5.046c0.186,0.654 0.9,1.434 2.111,2.197l32.965,20.772c2.507,1.579 6.196,2.492 8.233,2.036l6.785,-1.516l9.95,6.27c2.91,1.834 7.193,2.893 9.558,2.365l67.446,-15.07c0.843,-0.189 1.329,-0.554 1.475,-1.029l-0.715,4.675c-0.209,0.108 -0.463,0.196 -0.76,0.263l-67.446,15.07c-2.365,0.528 -6.648,-0.531 -9.558,-2.365l-9.95,-6.269l-6.785,1.516c-2.037,0.455 -5.726,-0.458 -8.233,-2.037l-32.965,-20.772c-0.562,-0.355 -1.018,-0.713 -1.363,-1.06Z" style="fill:#669e2c;"/><path d="M173.316,147.688c-0.485,1.898 -0.757,3.797 1.12,5.695c1.619,-1.507 2.171,-3.681 2.082,-6.255l-3.202,0.56Z" style="fill:#669e2c;"/><path d="M180.681,147.128c0.39,1.708 1.211,2.914 2.882,3.127c0.807,-1.716 0.474,-3.306 -0.641,-4.809l-2.241,1.682Z" style="fill:#669e2c;"/><path d="M94.497,119.088c-1.686,0.107 -2.839,0.747 -2.818,2.562c1.38,1.031 2.911,1.255 4.804,-0.448c-0.449,1.462 -0.363,2.658 0.896,3.266c0.636,-0.416 1.094,-1.185 1.217,-2.626l-1.601,-2.433l-2.498,-0.321Z" style="fill:#669e2c;"/><path d="M132.797,142.593c-1.472,1.075 -2.138,2.434 -0.705,4.535c0.95,-0.24 2.21,-1.199 2.178,-2.293c0.272,1.369 0.923,2.501 2.562,3.016c0.874,-1.458 0.855,-2.989 -0.321,-4.617l-3.714,-0.641Z" style="fill:#669e2c;"/><path d="M230.772,132.995c1.883,-0.059 3.413,0.588 4.202,2.715c-1.747,1.387 -3.667,1.227 -5.687,0.154c0.701,1.148 1.024,2.371 0.358,3.792c-1.491,-0.442 -2.266,-1.779 -2.664,-3.587l3.791,-3.074Z" style="fill:#669e2c;"/><path d="M133.747,95.392l-4.009,-2.526c-2.879,-1.814 -3.316,-3.712 -0.976,-4.235l61.925,-13.836c2.34,-0.523 6.577,0.525 9.456,2.339l37.865,23.86c2.879,1.814 3.316,3.711 0.976,4.234l-33.776,7.547l24.153,15.219c2.909,1.833 3.351,3.751 0.986,4.28l-67.446,15.07c-2.365,0.528 -6.648,-0.531 -9.558,-2.365l-9.95,-6.27l-6.785,1.516c-2.037,0.456 -5.726,-0.457 -8.233,-2.036l-32.965,-20.772c-2.506,-1.58 -2.887,-3.231 -0.849,-3.687l2.128,-0.475l-6.011,-3.787c-2.879,-1.815 -3.316,-3.712 -0.975,-4.235l44.044,-9.841Z" style="fill:#8bc350;"/><path d="M222.068,205.856c0.161,-0.046 0.328,0.046 0.374,0.206c0.045,0.16 -0.047,0.328 -0.207,0.374c-1.083,0.415 -2.159,0.794 -3.265,1.103c-0.738,0.207 -1.481,0.376 -2.228,0.536c-2.219,0.474 -4.456,0.844 -6.7,1.243c-0.552,0.098 -1.107,0.186 -1.661,0.287c-1.126,0.205 -2.237,0.467 -3.341,0.749c-2.64,0.676 -5.242,1.483 -7.907,2.066c-2.914,0.625 -5.879,0.986 -8.813,1.505c-1.233,0.218 -2.461,0.464 -3.677,0.772c-2.375,0.617 -4.742,1.193 -7.111,1.746c-3.555,0.829 -7.115,1.602 -10.711,2.368c-1.537,0.293 -3.275,1.054 -4.952,1.41c-0.829,0.175 -1.645,0.261 -2.421,0.169c-0.644,-0.064 -1.231,-0.266 -1.786,-0.544c-0.745,-0.372 -1.432,-0.883 -2.143,-1.322c-0.992,-0.611 -2.03,-1.155 -3.04,-1.737c-0.446,-0.257 -0.888,-0.522 -1.318,-0.803c-0.666,-0.431 -1.357,-1.002 -2.079,-1.484c-0.443,-0.295 -0.898,-0.552 -1.36,-0.718c-0.541,-0.194 -1.135,-0.203 -1.738,-0.138c-1.022,0.109 -2.063,0.436 -2.979,0.603c-1.016,0.177 -2.034,0.213 -3.044,0.122c-0.995,-0.09 -1.979,-0.308 -2.944,-0.594c-0.975,-0.29 -1.865,-0.724 -2.712,-1.236c-1.19,-0.721 -7.146,-4.589 -6.945,-4.926c0.207,-0.348 6.641,2.783 7.813,3.486c0.728,0.437 1.487,0.819 2.323,1.068c0.863,0.259 1.745,0.443 2.633,0.542c0.873,0.098 1.754,0.12 2.64,0.002c1.122,-0.142 2.435,-0.473 3.661,-0.463c0.613,0.006 1.206,0.084 1.756,0.3c0.419,0.164 0.831,0.393 1.238,0.653c0.839,0.537 1.652,1.22 2.424,1.724c0.412,0.266 0.835,0.517 1.263,0.761c1.023,0.583 2.075,1.128 3.08,1.741c0.681,0.416 1.335,0.905 2.048,1.256c0.416,0.206 0.854,0.362 1.336,0.407c0.638,0.049 1.302,-0.058 1.976,-0.231c1.675,-0.431 3.394,-1.274 4.932,-1.636c3.587,-0.762 7.136,-1.531 10.682,-2.356c2.356,-0.548 4.71,-1.122 7.073,-1.734c1.25,-0.332 2.514,-0.601 3.784,-0.841c2.906,-0.549 5.845,-0.94 8.73,-1.595c2.643,-0.59 5.221,-1.415 7.841,-2.087c1.146,-0.294 2.301,-0.557 3.471,-0.766c2.302,-0.373 4.599,-0.676 6.896,-0.971c0.978,-0.126 1.955,-0.241 2.932,-0.38c0.418,-0.059 0.833,-0.123 1.252,-0.182c0.977,-0.138 1.947,-0.267 2.924,-0.455Zm-68.382,15.994c-0.057,-0.045 -0.221,-0.342 -0.2,-0.372c0.021,-0.03 0.381,0.046 0.465,0.102c0.877,0.586 1.743,1.341 2.696,1.867c0.441,0.244 0.901,0.425 1.376,0.538c0.226,0.054 0.454,0.09 0.682,0.13c0.909,0.162 1.843,0.245 2.785,0.176c0.887,-0.065 1.762,-0.271 2.638,-0.442c0.91,-0.177 1.812,-0.348 2.676,-0.515c0.739,-0.138 1.475,-0.292 2.214,-0.438c1.731,-0.343 3.462,-0.69 5.196,-1.022c0.831,-0.159 1.662,-0.318 2.497,-0.45c0.84,-0.132 1.682,-0.237 2.526,-0.331c0.544,-0.06 1.087,-0.132 1.635,-0.153c1.29,-0.05 2.553,0.044 3.846,0.147c0.123,-0.005 0.227,0.091 0.232,0.214c0.006,0.123 -0.09,0.227 -0.213,0.233c-1.148,0.197 -2.248,0.472 -3.383,0.715c-0.28,0.06 -0.561,0.11 -0.842,0.161c-1.314,0.236 -2.622,0.49 -3.934,0.745c-1.978,0.384 -3.958,0.767 -5.942,1.13c-1.19,0.217 -2.384,0.409 -3.579,0.586c-0.88,0.12 -1.794,0.278 -2.726,0.37c-0.62,0.061 -1.243,0.09 -1.867,0.098c-0.315,0.004 -0.628,-0.008 -0.942,-0.012c-1.027,-0.013 -2.049,-0.038 -3.019,-0.294c-0.249,-0.065 -0.49,-0.15 -0.73,-0.242c-0.679,-0.257 -1.3,-0.662 -1.899,-1.124c-0.755,-0.583 -1.474,-1.248 -2.188,-1.817Zm29.766,3.249c-0.228,0.017 -2.786,0.327 -2.81,0.187c-0.023,-0.14 2.454,-0.855 2.669,-0.911c1.876,-0.488 3.803,-0.77 5.721,-1.058c0.367,-0.055 0.735,-0.094 1.105,-0.125c0.561,-0.046 1.113,-0.059 1.676,-0.083c0.071,-0.012 0.139,0.037 0.15,0.109c0.012,0.071 -0.037,0.139 -0.108,0.15c-0.72,0.2 -1.417,0.434 -2.142,0.613c-0.478,0.117 -0.964,0.202 -1.448,0.294c-1.453,0.276 -2.913,0.521 -4.373,0.756c-0.147,0.023 -0.292,0.057 -0.44,0.068Zm30.46,-13.434c-0.103,0.026 -0.207,-0.036 -0.232,-0.138c-0.026,-0.102 0.036,-0.206 0.138,-0.232c0.118,-0.054 0.227,-0.113 0.351,-0.159c0.462,-0.17 0.957,-0.282 1.462,-0.399c1.629,-0.378 3.415,-0.606 5.147,-1.032c0.725,-0.178 1.433,-0.402 2.13,-0.636c0.468,-0.157 0.923,-0.332 1.374,-0.508c1.068,-0.417 2.063,-0.92 2.971,-1.526c0.131,-0.088 2.046,-1.476 2.154,-1.36c0.109,0.116 -0.769,1.724 -1.22,2.101c-0.981,0.821 -2.181,1.395 -3.453,1.834c-1.105,0.381 -2.288,0.6 -3.475,0.829c-1.751,0.338 -3.523,0.651 -5.188,0.919c-0.59,0.095 -1.16,0.209 -1.719,0.278c-0.15,0.018 -0.293,0.018 -0.44,0.029Z" style="fill:#fff;"/><g><g><g><path d="M195.585,214.036c-0.993,-3.792 -0.274,-6.679 1.262,-10.154c0.986,-2.232 1.829,-4.569 2.441,-6.921c0.236,-0.908 0.365,-2.173 1.296,-2.73c1.215,-0.728 2.297,-0.61 3.658,-0.609c1.051,-0 2.208,-0.215 3.247,-0.016c2.588,0.495 4.225,2.205 6.482,3.328c1.278,0.636 3.525,1.014 4.316,2.237c1.258,1.944 0.488,4.551 1.384,6.616c0.708,1.629 2.603,2.539 3.081,4.24c0.333,1.188 -0.041,2.048 -0.557,3.13c-0.371,0.779 -0.639,1.655 -1.246,2.313c-1.355,1.47 -3.953,2.25 -5.866,2.67c-1.955,0.429 -4.032,1.345 -6.041,1.387c-2.772,0.058 -5.466,-0.03 -8.154,-0.772c-1.495,-0.413 -4.762,-2.649 -5.303,-4.719Z" style="fill:#a5a39d;"/><path d="M215.007,212.32c-0.784,-0.093 -1.575,-0.148 -2.362,-0.058c-1.214,0.139 -2.432,0.451 -3.631,0.067c-1.113,-0.357 -1.93,-1.592 -2.492,-2.548c-0.496,-0.844 -1.214,-1.668 -1.507,-2.62c-0.216,-0.7 -0.128,-1.5 -0.083,-2.213c0.075,-1.181 0.276,-2.285 0.511,-3.443c0.263,-1.301 0.392,-2.629 0.637,-3.933c0.103,-0.547 0.275,-1.299 0.869,-1.501c0.7,-0.237 1.464,-0.042 2.143,0.152c0.823,0.235 1.637,0.509 2.387,0.933c0.531,0.3 1.013,0.682 1.534,1.001c0.804,0.495 1.608,0.87 2.529,1.096c0.402,0.1 0.812,0.185 1.21,0.302c0.165,0.048 0.401,0.072 0.536,0.194c0.438,0.393 0.457,1.183 0.581,1.719c0.245,1.058 0.339,2.167 0.435,3.246c0.049,0.557 0.081,1.122 0.238,1.662c0.221,0.766 0.963,1.535 0.761,2.384c-0.149,0.631 -0.894,1.27 -1.394,1.633c-0.617,0.447 -1.221,0.95 -1.805,1.441c-0.249,0.209 -0.754,0.527 -1.097,0.486Z" style="fill:#aeaeae;"/><path d="M222.007,213.576c-0.288,0.662 -0.558,1.352 -1.058,1.894c-1.355,1.47 -3.953,2.25 -5.866,2.67c-1.955,0.429 -4.032,1.345 -6.041,1.387c-2.772,0.058 -5.466,-0.03 -8.154,-0.772c-1.495,-0.413 -4.762,-2.649 -5.303,-4.719c-0.993,-3.792 -0.274,-6.679 1.262,-10.154c0.986,-2.232 1.829,-4.569 2.441,-6.921c0.236,-0.908 0.365,-2.173 1.296,-2.73c0.079,-0.048 0.158,-0.091 0.236,-0.132c-0.274,0.667 -0.267,1.482 -0.337,2.133c-0.261,2.415 -0.751,4.851 -1.4,7.204c-1.009,3.662 -1.297,6.624 0.241,10.229c0.839,1.969 4.399,3.701 5.938,3.89c2.769,0.34 5.446,0.032 8.18,-0.432c1.98,-0.337 3.901,-1.547 5.772,-2.259c0.86,-0.327 1.859,-0.755 2.793,-1.288Z" style="fill:#878787;"/></g><g><path d="M181.477,217.08c0.004,-1.354 1.14,-4.023 1.929,-5.249c0.433,-0.673 1.179,-1.109 1.645,-1.784c0.527,-0.766 0.936,-1.898 1.782,-2.36c1.49,-0.814 3.28,-0.709 4.923,-0.676c1.489,0.031 3.739,0.074 4.838,1.255c1.112,1.197 0.711,3.425 0.751,4.917c0.027,1.021 0.196,2.032 0.246,3.051c0.022,0.439 0.109,0.963 -0.105,1.366c-0.652,1.225 -2.16,1.479 -3.379,1.795c-0.864,0.224 -1.694,0.517 -2.585,0.633c-1.833,0.239 -3.773,-0.094 -5.468,-0.809c-0.594,-0.25 -4.58,-1.249 -4.577,-2.139Z" style="fill:#a5a39d;"/><path d="M194.676,216.15c-1.222,-0.19 -2.478,-0.219 -3.643,-0.662c-0.507,-0.193 -0.759,-0.786 -0.983,-1.234c-0.327,-0.654 -0.767,-1.245 -1.091,-1.895c-0.307,-0.615 -0.459,-1.375 -0.502,-2.06c-0.032,-0.49 0.026,-1.323 0.588,-1.527c0.471,-0.171 0.943,-0.149 1.434,-0.136c0.805,0.023 1.637,0.12 2.44,0.057c0.713,-0.056 1.443,-0.171 2.156,-0.053c0.23,0.039 0.502,0.075 0.691,0.225c0.229,0.184 0.295,0.482 0.348,0.758c0.105,0.553 0.062,1.115 0.083,1.674c0.026,0.732 0.08,1.474 0.14,2.204c0.032,0.386 0.097,0.804 -0.054,1.173c-0.23,0.566 -1.127,1.108 -1.607,1.476Z" style="fill:#aeaeae;"/><path d="M197.495,217.582c-0.003,0.006 -0.006,0.012 -0.009,0.018c-0.652,1.225 -2.16,1.479 -3.379,1.795c-0.864,0.224 -1.694,0.517 -2.585,0.633c-1.833,0.239 -3.773,-0.094 -5.468,-0.809c-0.594,-0.25 -4.58,-1.249 -4.577,-2.139c0.004,-1.354 1.14,-4.023 1.929,-5.249c0.433,-0.673 1.179,-1.109 1.645,-1.784c0.527,-0.766 0.936,-1.898 1.782,-2.36c0.165,-0.09 0.333,-0.169 0.505,-0.238c-0.287,0.449 -0.529,0.945 -0.802,1.341c-0.466,0.675 -1.212,1.111 -1.645,1.784c-0.789,1.226 -1.925,3.895 -1.929,5.249c-0.003,0.89 3.983,1.889 4.577,2.14c1.695,0.714 3.635,1.047 5.468,0.808c0.891,-0.116 1.721,-0.409 2.585,-0.633c0.61,-0.157 1.292,-0.3 1.903,-0.556Z" style="fill:#878787;"/></g></g></g></g><path d="M93.25,177.733c13.481,5.58 28.024,3.422 33.617,29.645l-17.057,0.775l-16.56,-30.42Z" style="fill:#f9e594;"/><g><ellipse cx="94.898" cy="192.628" rx="10.499" ry="5.539" style="fill:#dfc86d;"/><g><path d="M101.717,191.827c0.297,-20.066 -3.098,-37.95 -15.908,-50.271l-5.136,2.903c6.869,13.65 9.645,29.09 7.192,46.818c-0.051,0.18 -0.078,0.363 -0.078,0.55c0,2.028 3.121,3.675 6.965,3.675c3.845,0 6.965,-1.647 6.965,-3.675Z" style="fill:#906344;"/><path d="M88.733,177.564c0.007,0.428 0.01,0.858 0.01,1.289c1.333,0.044 2.706,-0.015 4.019,-0.164c2.867,-0.326 5.747,-1.079 8.29,-2.444c-0.054,-0.482 -0.112,-0.963 -0.173,-1.441c-0.864,0.578 -1.79,1.072 -2.786,1.461c-1.814,0.71 -3.832,1.012 -5.759,1.199c-0.847,0.083 -1.682,0.085 -2.531,0.089c-0.359,0.002 -0.717,0.015 -1.07,0.011Z" style="fill:#b58767;"/><path d="M86.344,159.514c0.053,0.206 0.105,0.412 0.156,0.618c0.828,-0.218 1.641,-0.498 2.369,-0.885c1.337,-0.711 2.599,-1.491 3.735,-2.491c0.919,-0.807 1.675,-1.735 2.33,-2.732c-0.187,-0.375 -0.379,-0.746 -0.576,-1.115c-1.25,2.043 -2.919,3.804 -5.053,5.105c-0.885,0.539 -1.895,1.243 -2.961,1.5Z" style="fill:#b58767;"/><path d="M83.723,151.334c0.151,0.393 0.299,0.786 0.443,1.181c0.408,-0.11 0.811,-0.239 1.208,-0.384c2.422,-0.89 4.365,-2.479 5.703,-4.501c-0.253,-0.351 -0.51,-0.698 -0.774,-1.042c-0.976,1.249 -2.187,2.287 -3.515,3.192c-0.873,0.594 -2.027,1.307 -3.065,1.554Z" style="fill:#b58767;"/><path d="M87.866,166.987c0.034,0.224 0.067,0.448 0.098,0.673c0.634,0.099 1.304,0.095 1.804,0.104c0.274,0.005 1.162,0.012 1.533,-0.008c2.719,-0.149 5.584,-1.284 7.588,-3.205c-0.095,-0.354 -0.193,-0.706 -0.295,-1.056c-1.883,2.009 -4.646,3.25 -7.395,3.394c-0.9,0.047 -2.212,0.275 -3.333,0.098Z" style="fill:#b58767;"/><path d="M88.368,186.912c-0.037,0.404 -0.077,0.809 -0.119,1.216c1.486,0.487 2.987,0.901 4.553,1.08c2.448,0.28 5.229,0.098 7.591,-0.656c0.448,-0.143 0.894,-0.34 1.334,-0.562c-0.001,-0.169 -0.003,-0.338 -0.006,-0.507c-3.256,1.276 -6.94,1.184 -10.306,0.399c-0.919,-0.215 -1.777,-0.493 -2.66,-0.827c-0.123,-0.046 -0.254,-0.093 -0.387,-0.143Z" style="fill:#b58767;"/><path d="M95.528,155.251c-2.372,-5.077 -5.546,-9.681 -9.719,-13.695l-5.136,2.903c2.572,5.11 4.57,10.471 5.934,16.109c4.009,-0.301 7.183,-1.996 8.921,-5.317Z" style="fill:#6b4124;fill-opacity:0.5;"/></g><g><g><path d="M64.449,153.364c1.653,-7.923 7.082,-14.382 16.121,-15.298c2.936,4.488 3.422,8.371 2.527,11.842c-3.453,-2.97 -7.304,-3.043 -11.374,-1.522c4.098,0.607 6.695,3.396 8.092,7.93c-1.691,2.257 -3.761,4.354 -5.759,6.372c-2.035,-0.881 -4.109,-1.174 -6.231,-0.744c1.367,0.692 2.528,1.922 3.558,3.49c-1.95,2.083 -3.586,4.118 -4.369,6.204c-2.109,-4.146 -3.136,-8.719 -3.105,-13.123c1.689,-2.466 3.664,-3.935 5.82,-4.766c-1.915,-1.093 -3.675,-1.221 -5.28,-0.385Z" style="fill:#bcf146;"/><path d="M67.825,161.944c1.367,0.692 2.528,1.922 3.558,3.49c-1.95,2.083 -3.586,4.118 -4.369,6.204c-0.024,-2.879 0.243,-6.233 0.811,-9.694Zm0,-0c0.758,-4.619 2.051,-9.429 3.898,-13.558c4.098,0.607 6.695,3.396 8.092,7.93c-1.691,2.257 -3.761,4.354 -5.759,6.372c-2.035,-0.881 -4.109,-1.174 -6.231,-0.744Zm3.898,-13.558c2.172,-4.854 5.11,-8.767 8.847,-10.32c2.936,4.488 3.422,8.371 2.527,11.842c-3.453,-2.97 -7.304,-3.043 -11.374,-1.522Z" style="fill:#a9de35;"/></g><g><path d="M95.246,150.191c4.906,1.235 10.812,2.96 17.358,6.92c-0.022,-2.196 -0.274,-4.265 -0.723,-6.194l-2.936,0.043l2.565,-1.461c-0.563,-1.925 -1.327,-3.697 -2.251,-5.304c-2.156,0.218 -4.123,0.655 -5.573,1.695c0.624,-2.342 2.434,-3.302 4.177,-3.837c-6.707,-9.122 -19.062,-11.485 -27.293,-3.987c0.21,7.983 4.395,9.559 11.206,11.267c1.915,-2.555 4.126,-4.872 6.534,-7.033c-1.425,2.507 -2.648,5.074 -3.064,7.891Z" style="fill:#85b41c;"/><path d="M98.31,142.3c-1.425,2.507 -2.648,5.074 -3.064,7.891c4.906,1.235 10.812,2.96 17.358,6.92c-2.272,-6.057 -8.081,-11.291 -14.294,-14.811Zm-6.534,7.033c1.915,-2.555 4.126,-4.872 6.534,-7.033c-6.796,-3.849 -14.075,-5.649 -17.74,-4.234c0.21,7.983 4.395,9.559 11.206,11.267Z" style="fill:#7ca916;"/></g><g><path d="M93.615,129.839c0.307,-2.732 -0.601,-5.464 -2.374,-8.196c-0.923,1.479 -2.026,2.724 -3.607,3.341c-3.137,-1.133 -7.1,-0.658 -11.336,2.223c-0.656,0.446 -0.861,1.281 -0.742,2.315c2.149,-0.964 4.352,-1.028 6.599,-0.325c-2.204,-0.172 -4.235,0.525 -6.012,2.492c0.899,2.271 2.655,4.816 4.427,6.377c5.836,-0.867 10.821,-3.066 12.352,-5.459c-2.086,-3.394 -4.615,-5.705 -7.579,-6.954c3.317,0.448 6.383,1.322 8.272,4.186Z" style="fill:#8bae3d;"/><path d="M85.343,125.653c-3.348,2.431 -7.418,10.083 -4.773,12.413c5.836,-0.867 10.821,-3.066 12.352,-5.459c-2.086,-3.394 -4.615,-5.705 -7.579,-6.954Zm8.272,4.186c0.307,-2.732 -0.601,-5.464 -2.374,-8.196c-0.923,1.479 -2.026,2.724 -3.607,3.341c-0.636,-0.23 -1.44,0.051 -2.291,0.669c3.317,0.448 6.383,1.322 8.272,4.186Z" style="fill:#749230;"/></g><g><path d="M83.536,130.071c-1.391,1.799 -2.41,4.331 -2.966,7.995c8.363,2.558 14.701,1.268 19.189,-2.218l-4.663,-6.147l7.106,3.838c2.914,-3.32 4.741,-7.761 5.561,-12.558c-8.231,4.538 -16.109,3.468 -21.339,6.553l1.361,4.852l-4.249,-2.315Z" style="fill:#accf5e;"/><path d="M95.096,129.701c-2.533,0.928 -4.996,1.639 -7.311,2.685c-2.633,1.189 -5.075,2.812 -7.215,5.68c8.363,2.558 14.701,1.268 19.189,-2.218l-4.663,-6.147Zm0,0l7.106,3.838c2.914,-3.32 4.741,-7.761 5.561,-12.558c-4.188,5.102 -8.522,7.202 -12.667,8.72Z" style="fill:#9dc73f;"/></g><g><path d="M60.722,140.777c-2.156,1.948 -4.325,3.977 -6.521,5.638c2.344,0.907 4.601,1.571 6.758,1.953l2.16,-4.145l-0.252,4.41c1.338,0.134 2.633,0.148 3.882,0.031l-0.525,-6.494l3.371,5.977c4.416,-1.227 8.139,-4.406 10.975,-10.081c-3.074,-3.847 -6.09,-4.87 -9.085,-4.282l0.511,4.524l-3.091,-3.644c-2.225,1.054 -4.445,2.81 -6.675,4.766l2.406,3.777l-3.914,-2.43Z" style="fill:#aeda4d;"/><path d="M69.595,148.147c4.416,-1.227 8.139,-4.406 10.975,-10.081c-4.515,-3.295 -9.123,0.59 -14.346,4.104l3.371,5.977Zm-3.371,-5.977c-3.649,2.455 -7.597,4.729 -12.023,4.245c2.344,0.907 4.601,1.571 6.758,1.953l2.16,-4.145l-0.252,4.41c1.338,0.134 2.633,0.148 3.882,0.031l-0.525,-6.494Z" style="fill:#a4cc4c;"/></g><g><path d="M71.135,125.653c-5.645,-0.895 -11.765,4.523 -14.279,8.681c1.32,-0.388 2.512,-0.517 3.631,-0.467l2.834,-3.625l-1.23,3.763l4.171,-4.304l-2.443,4.82c2.652,0.874 5.206,2.396 8.609,3.219l2.829,-5.24l0,5.716c1.573,0.149 3.323,0.129 5.313,-0.15c-1.675,-6.619 -4.223,-10.132 -7.061,-11.623l-2.916,3.906l0.542,-4.696Z" style="fill:#accf5e;"/><path d="M75.257,132.5l0,5.716c1.573,0.149 3.323,0.129 5.313,-0.15c-1.722,-2.462 -3.516,-4.272 -5.313,-5.566Zm0,0c-3.11,-2.238 -6.23,-2.931 -9.005,-2.779l-2.433,4.8c2.652,0.874 5.206,2.396 8.609,3.219l2.829,-5.24Zm-9.015,-2.778c-4.681,0.259 -8.379,2.919 -9.386,4.612c1.32,-0.388 2.512,-0.517 3.631,-0.467l2.834,-3.625l-1.23,3.763l4.151,-4.283Z" style="fill:#9dc73f;"/></g><g><path d="M81.613,157.67c1.756,2.684 4.291,5.182 7.646,7.483c0.719,-2.633 1.248,-5.095 1.578,-7.377l-3.583,-0.733l3.78,-0.827c0.152,-1.411 0.221,-2.746 0.205,-4.005l-5.307,-0.601l5.184,-1.61c-0.38,-3.688 -1.622,-6.598 -3.797,-8.667l-3.403,2.747l2.131,-3.788c-1.49,-1.045 -3.311,-1.791 -5.477,-2.226c-2.47,6.207 -2.693,11.876 -0.417,16.946l6.28,-1.557l-4.82,4.215Z" style="fill:#accf5e;"/><path d="M86.433,153.455l-4.82,4.215c1.756,2.684 4.291,5.182 7.646,7.483c-1.141,-4.184 -2.004,-8.128 -2.826,-11.698Zm-6.28,1.557l6.28,-1.557c-1.563,-6.795 -2.976,-12.233 -5.863,-15.389c-2.47,6.207 -2.693,11.876 -0.417,16.946Z" style="fill:#9dc73f;"/></g></g></g><path d="M30.032,169.676c0.085,0.686 2.508,6.711 2.508,6.711c-0,-0 -2.561,-3.641 -2.96,-4.124c-0.508,-0.615 -1.201,-1.269 -1.556,-1.961c-0.721,-1.708 -1.217,-3.467 -1.211,-5.283c0.006,-1.761 0.517,-3.487 1.026,-5.192c0.406,-1.034 0.834,-2.028 1.412,-2.982c0.571,-0.942 1.207,-1.789 2.01,-2.555c0.044,-0.06 0.13,-0.072 0.19,-0.028c0.06,0.045 0.072,0.13 0.028,0.19c-0.378,0.746 -0.634,1.5 -0.847,2.302c-0.314,1.179 -0.444,2.359 -0.511,3.573c-0.224,1.579 -0.181,3.16 -0.223,4.738c-0.04,1.545 -0.186,3.066 0.134,4.611Zm4.843,-10.208c0.366,-1.774 1.045,-3.476 1.121,-3.468c0.077,0.008 -0.067,2.747 -0.011,3.643c0.146,2.34 0.7,4.596 1.699,6.713c1.095,2.317 2.655,4.425 4.473,6.192l5.778,4.521c1.926,1.645 3.962,3.071 5.825,4.76c0.867,0.786 3.374,2.742 3.349,2.794c-0.024,0.051 -3.383,-0.432 -4.522,-0.841c-2.433,-0.873 -4.493,-2.481 -6.73,-3.816c-1.06,-0.744 -2.159,-1.458 -3.185,-2.263c-1.091,-0.856 -2.103,-1.801 -3.011,-2.845c-2.216,-2.669 -4.011,-5.838 -4.814,-9.241c-0.481,-2.04 -0.397,-4.085 0.028,-6.149Zm46.856,49.611c0,0 -3.735,-1.52 -3.727,-1.536c0.007,-0.016 4.044,0.599 4.044,0.599c0.739,0.158 3.956,0.398 4.36,0.438l8.164,0.801l9.028,0.611l5.748,-0.369c1.769,-0.065 3.548,-0.205 5.278,0.13c0.863,0.167 3.114,0.279 4.04,0.274c-0.757,0.548 -3.046,1.521 -3.926,1.794c-1.644,0.512 -3.428,0.207 -5.137,0.472l-5.864,0.824c-1.287,0.09 -2.581,0.119 -3.875,0.072c-1.899,-0.07 -3.795,-0.291 -5.67,-0.504c-1.924,-0.245 -3.897,-0.373 -5.827,-0.698c-0.864,-0.145 -1.712,-0.343 -2.552,-0.567c-0.476,-0.153 -3.419,-2.027 -4.084,-2.341Zm179.409,-53.122c-0.272,-0.767 -1.127,-2.616 -0.998,-2.715c0.129,-0.099 1.426,1.583 1.82,2.365c0.391,0.777 0.703,1.591 0.974,2.422l0.881,4.019c0.129,0.974 0.191,1.979 0.036,3.026c-0.227,1.53 -0.923,2.987 -1.63,4.24l-2.586,2.814c-1.879,1.715 -3.877,3.159 -6.098,4.172c-2.18,0.995 -4.499,1.58 -6.912,2.076c0,-0 -7.876,1.077 -7.885,0.89c-0.009,-0.188 7.439,-2.3 7.439,-2.3c1.268,-0.601 2.426,-1.29 3.631,-1.948c1.176,-0.642 2.342,-1.267 3.455,-2.001c1.433,-0.945 2.793,-2.012 4.043,-3.29l2.05,-2.122l2.357,-5.672c0.106,-0.453 0.222,-0.913 0.239,-1.41c0.025,-0.747 -0.086,-1.502 -0.21,-2.191c-0.15,-0.806 -0.334,-1.604 -0.606,-2.375Zm2.113,17.885c0.876,-0.906 2.672,-2.726 2.726,-2.698c0.053,0.028 -0.71,2.606 -1.396,3.727c-1.002,1.639 -2.448,2.986 -3.946,4.208c-1.992,1.625 -4.146,3.362 -6.652,3.812c-0.738,0.132 -6.441,0.392 -6.453,0.354c-0.012,-0.037 5.186,-1.568 5.785,-1.98c1.952,-1.341 4.216,-2.226 6.086,-3.716c1.401,-1.116 2.612,-2.428 3.85,-3.707Z" style="fill:#fff;"/></g></g></svg>