<?xml version="1.0" encoding="UTF-8" standalone="no"?><!DOCTYPE svg PUBLIC "-//W3C//DTD SVG 1.1//EN" "http://www.w3.org/Graphics/SVG/1.1/DTD/svg11.dtd"><svg width="100%" height="100%" viewBox="0 0 300 300" version="1.1" xmlns="http://www.w3.org/2000/svg" xmlns:xlink="http://www.w3.org/1999/xlink" xml:space="preserve" xmlns:serif="http://www.serif.com/" style="fill-rule:evenodd;clip-rule:evenodd;stroke-linejoin:round;stroke-miterlimit:2;"><g id="_250" serif:id="250"><g id="_10" serif:id="10"><g><path d="M163.753,208.884c-8.617,1.531 -16.613,5.508 -23.034,11.456c-10.67,9.722 -30.658,16.328 -53.547,16.328c-33.97,0 -61.549,-14.551 -61.549,-32.474c-0,-3.921 1.319,-7.68 3.737,-11.161c5.138,-7.446 6.539,-16.852 3.792,-25.473c-0.96,-2.916 -1.453,-5.918 -1.453,-8.98c-0,-29.245 45,-52.988 100.429,-52.988c9.26,0 18.228,0.663 26.745,1.903c4.503,0.683 9.096,0.474 13.518,-0.615c9.024,-2.159 19.021,-3.333 29.534,-3.333c40.331,0 73.075,17.277 73.075,38.556c-0,14.72 -15.668,27.524 -38.678,34.02c-6.775,1.901 -13.042,5.289 -18.342,9.918c-12.255,10.663 -31.435,18.851 -54.227,22.843Z" style="fill:#f9e594;"/><path d="M163.753,208.884c-8.617,1.531 -16.613,5.508 -23.034,11.456c-10.67,9.722 -30.658,16.328 -53.547,16.328c-33.97,0 -61.549,-14.551 -61.549,-32.474c-0,-3.921 1.319,-7.68 3.737,-11.161c5.138,-7.446 6.539,-16.852 3.792,-25.473c-0.96,-2.916 -1.453,-5.918 -1.453,-8.98c-0,-29.245 45,-52.988 100.429,-52.988c9.26,0 18.228,0.663 26.745,1.903c4.503,0.683 9.096,0.474 13.518,-0.615c9.024,-2.159 19.021,-3.333 29.534,-3.333c40.331,0 73.075,17.277 73.075,38.556c-0,14.72 -15.668,27.524 -38.678,34.02c-6.775,1.901 -13.042,5.289 -18.342,9.918c-12.255,10.663 -31.435,18.851 -54.227,22.843Zm-0.203,-1.663c21.836,-3.825 38.303,-16.353 50.037,-26.562c5.818,-5.081 15.663,-4.604 23.093,-6.688c10.769,-3.041 19.849,-7.926 26.208,-13.405c5.649,-4.866 2.749,-12.259 2.749,-18.378c-0,-7.179 1.651,-16.604 -5.829,-21.986c-12.685,-9.129 -34.636,-14.583 -57.714,-14.583c-10.126,-0 -19.927,3.668 -28.621,5.747c-4.996,1.228 -11.203,-1.249 -16.29,-2.019c-8.303,-1.208 -16.029,0.86 -25.055,0.86c-32.136,0 -64.073,6.596 -81.738,19.307c-10.799,7.771 -15.772,18.447 -15.772,28.812c-0,2.57 3.469,11.279 4.274,13.727c0.005,0.014 0.009,0.028 0.014,0.042c3.18,9.981 -12.229,22.907 -11.636,32.099c0.376,5.824 6.086,13.51 12.167,17.886c10.588,7.619 28.474,7.429 47.735,7.429c21.524,0 32.03,4.18 50.411,-12.555c7.07,-6.549 16.467,-8.045 25.956,-9.731l0.011,-0.002Z" style="fill:#dfc86d;"/><path d="M50.297,131.701l63.024,-14.082c2.442,-0.545 6.862,0.548 9.865,2.44l25.296,15.94l25.125,-5.614c3.487,-0.779 9.8,0.782 14.088,3.485l36.182,22.799c0.281,0.177 0.545,0.354 0.794,0.531l0.775,-0.492l1.643,2.853c0.059,0.099 0.115,0.197 0.169,0.295c0.761,1.462 0.154,2.656 -1.927,3.121l-94.146,21.036c-2.442,0.546 -6.862,-0.548 -9.865,-2.44l-71.578,-45.103c-2.138,-1.348 -2.985,-2.739 -2.414,-3.626c0.022,-0.033 0.046,-0.065 0.071,-0.098l1.663,-2.381l1.235,1.336Z" style="fill:#669e2c;"/><path d="M148.266,133.439l24.638,-5.506c3.419,-0.763 9.609,0.768 13.815,3.418l35.48,22.357c4.206,2.65 4.844,5.422 1.425,6.186l-92.319,20.627c-2.394,0.535 -6.729,-0.537 -9.674,-2.392l-70.189,-44.229c-2.945,-1.855 -3.392,-3.796 -0.998,-4.331l63.344,-14.154c2.394,-0.534 6.728,0.538 9.673,2.393l24.805,15.631Z" style="fill:#8bc350;"/><path d="M118.187,196.653c0.195,0.405 0.015,0.734 -0.567,0.864l-5.156,1.171l0.887,2.603c0.026,0.069 0.047,0.137 0.064,0.203c0.098,0.474 -0.205,0.848 -0.933,1.011l-39.142,8.745c-1.479,0.331 -4.158,-0.332 -5.978,-1.478l-23.933,-15.082c-1.111,-0.699 -1.647,-1.419 -1.559,-1.948l-0.01,-0.003l0.021,-0.053c0.017,-0.051 0.036,-0.101 0.059,-0.15l1.047,-2.661l4.408,1.115l34.559,-7.722c1.479,-0.331 4.157,0.332 5.977,1.479l2.125,1.338l6.956,-1.554c0.999,-0.223 2.807,0.224 4.035,0.998l14.184,8.938l1.91,-0.578l1.046,2.764Z" style="fill:#669e2c;"/><path d="M89.767,183.478l6.756,-1.51c0.97,-0.217 2.726,0.218 3.918,0.969l15.69,9.887c1.193,0.752 1.374,1.538 0.405,1.755l-6.756,1.509l1.167,0.735c1.767,1.114 2.035,2.279 0.598,2.6l-38.011,8.493c-1.437,0.321 -4.038,-0.323 -5.805,-1.436l-23.243,-14.646c-1.767,-1.114 -2.035,-2.278 -0.598,-2.599l38.011,-8.493c1.437,-0.321 4.038,0.322 5.805,1.435l2.063,1.301Z" style="fill:#8bc350;"/></g><g><path d="M242.016,145.957l-0.724,-1.357c-0.167,-0.314 -0.006,-0.611 0.421,-0.774c0.428,-0.163 1.053,-0.168 1.631,-0.011l2.5,0.678l2.158,-0.478c0.499,-0.11 1.142,-0.052 1.679,0.153c0.536,0.205 0.881,0.523 0.898,0.831l0.074,1.329l2.057,1.062c0.476,0.246 0.713,0.579 0.617,0.869c-0.095,0.29 -0.508,0.491 -1.075,0.524l-2.455,0.144l-0.885,1.134c-0.205,0.262 -0.703,0.409 -1.299,0.384c-0.595,-0.026 -1.194,-0.22 -1.562,-0.507l-1.592,-1.24l-2.604,-0.362c-0.603,-0.083 -1.147,-0.325 -1.419,-0.631c-0.273,-0.306 -0.231,-0.627 0.109,-0.837l1.471,-0.911Zm-0.013,1.537l3.036,0.421c0.176,0.024 0.34,0.087 0.448,0.171l1.855,1.446l1.033,-1.322c0.059,-0.077 0.19,-0.127 0.356,-0.137l2.861,-0.167l-2.398,-1.238c-0.139,-0.072 -0.222,-0.166 -0.227,-0.256l-0.087,-1.549l-2.515,0.557c-0.146,0.032 -0.328,0.024 -0.497,-0.022l-2.915,-0.79l0.844,1.583c0.049,0.091 0.02,0.18 -0.079,0.241l-1.715,1.062Zm4.369,-2.816c0.007,0.004 0.013,0.009 0.019,0.014l0.002,-0c-0.007,-0.005 -0.014,-0.01 -0.021,-0.014Z" style="fill:#e5d079;"/><path d="M250.048,144.626c0.006,0.021 0.009,0.042 0.01,0.063c0,-0 0.084,1.503 0.084,1.503l2.605,1.203l0.124,0.387l0.001,0.003c0.019,0.06 0.02,0.12 0.001,0.178c-0.062,0.19 -0.333,0.322 -0.706,0.344l-2.775,0.163l-1.001,1.282c-0.135,0.172 -0.462,0.269 -0.853,0.252c-0.391,-0.017 -0.785,-0.144 -1.027,-0.333l-1.799,-1.402l-2.944,-0.408c-0.396,-0.055 -0.753,-0.214 -0.932,-0.415c-0.096,-0.108 -0.133,-0.218 -0.112,-0.319c0.005,-0.019 0.012,-0.039 0.019,-0.058l0.117,-0.354l1.711,-0.848l-0.819,-1.535c-0.045,-0.084 -0.054,-0.166 -0.03,-0.241c0.002,-0.006 0.125,-0.35 0.125,-0.35l4.08,0.842l4.052,-0.291l0.069,0.334Z" style="fill:#b6341e;"/><path d="M241.859,144.006c-0.108,-0.202 -0.004,-0.393 0.27,-0.498c0.275,-0.105 0.677,-0.107 1.049,-0.007c-0,0 2.767,0.75 2.767,0.75l2.387,-0.528c0.321,-0.071 0.735,-0.034 1.08,0.098c0.345,0.132 0.566,0.336 0.578,0.534c-0,0 0.082,1.471 0.082,1.471l2.277,1.176c0.306,0.158 0.458,0.372 0.396,0.558c-0.061,0.187 -0.326,0.316 -0.691,0.337c-0,0 -2.717,0.16 -2.717,0.16l-0.98,1.254c-0.132,0.169 -0.452,0.264 -0.835,0.247c-0.383,-0.016 -0.768,-0.141 -1.004,-0.326c-0,0 -1.762,-1.372 -1.762,-1.372l-2.882,-0.4c-0.387,-0.054 -0.737,-0.209 -0.912,-0.406c-0.176,-0.196 -0.149,-0.403 0.07,-0.538c0,-0 1.628,-1.008 1.628,-1.008l-0.801,-1.502Zm0.502,-0.012l0.87,1.63l-1.767,1.094c-0.111,0.069 -0.125,0.174 -0.036,0.273c0.089,0.1 0.267,0.179 0.463,0.206l3.129,0.434l1.912,1.49c0.12,0.094 0.315,0.157 0.51,0.165c0.194,0.009 0.356,-0.039 0.423,-0.125l1.064,-1.362l2.949,-0.173c0.185,-0.011 0.319,-0.076 0.351,-0.171c0.031,-0.095 -0.046,-0.203 -0.202,-0.283l-2.471,-1.276l-0.09,-1.597c-0.005,-0.1 -0.117,-0.204 -0.292,-0.271c-0.175,-0.067 -0.385,-0.086 -0.548,-0.05l-2.592,0.574l-3.003,-0.814c-0.189,-0.051 -0.393,-0.05 -0.532,0.003c-0.14,0.054 -0.192,0.15 -0.138,0.253Z" style="fill:#df3e22;"/><path d="M242.361,143.994c-0.054,-0.103 -0.002,-0.199 0.138,-0.253c0.139,-0.053 0.343,-0.054 0.532,-0.003l3.003,0.814l2.592,-0.574c0.163,-0.036 0.373,-0.017 0.548,0.05c0.175,0.067 0.287,0.171 0.292,0.271l0.09,1.597l2.471,1.276c0.156,0.08 0.233,0.188 0.202,0.283c-0.032,0.095 -0.166,0.16 -0.351,0.171l-2.949,0.173l-1.064,1.362c-0.067,0.086 -0.229,0.134 -0.423,0.125c-0.195,-0.008 -0.39,-0.071 -0.51,-0.165l-1.912,-1.49l-3.129,-0.434c-0.196,-0.027 -0.374,-0.106 -0.463,-0.206c-0.089,-0.099 -0.075,-0.204 0.036,-0.273l1.767,-1.094l-0.87,-1.63Z" style="fill:#ff6045;"/><path d="M243.231,145.624l-0.87,-1.63c-0.054,-0.103 -0.002,-0.199 0.138,-0.253l4.304,1.814l-3.572,0.069Zm3.572,-0.069l-0.769,-1.003l2.592,-0.574c0.163,-0.036 0.373,-0.017 0.548,0.05l-2.371,1.527Zm-0,0l2.753,0.341l2.471,1.276c0.156,0.08 0.233,0.188 0.202,0.283l-5.426,-1.9Zm-0,0l2.126,2.244l-1.064,1.362c-0.067,0.086 -0.229,0.134 -0.423,0.125l-0.639,-3.731Zm-0,0l-1.783,2.076l-3.129,-0.434c-0.196,-0.027 -0.374,-0.106 -0.463,-0.206l5.375,-1.436Z" style="fill:#eb5137;"/><path d="M246.178,145.161c0.334,-0.128 0.876,-0.061 1.208,0.149c0.333,0.21 0.332,0.484 -0.002,0.612c-0.334,0.128 -0.876,0.061 -1.209,-0.149c-0.332,-0.21 -0.331,-0.484 0.003,-0.612Z" style="fill:#df3e22;"/></g><path d="M121.534,230.997c0.115,-0.041 0.242,0.02 0.282,0.135c0.041,0.116 -0.02,0.242 -0.135,0.283c-1.008,0.508 -1.978,1.047 -3.021,1.503c-2.391,1.048 -4.897,1.845 -7.398,2.638c-1.804,0.572 -3.633,1.029 -5.455,1.509c-1.87,0.493 -3.706,0.981 -5.603,1.322c-2.473,0.229 -4.956,0.377 -7.442,0.413c-2.487,0.037 -4.976,-0.04 -7.456,-0.197l-5.268,-0.531l-6.495,0.394c-1.532,-0.052 -3.084,-0.18 -4.623,-0.408c-1.483,-0.22 -2.95,-0.531 -4.399,-0.81c-0.456,-0.122 -0.927,-0.185 -1.356,-0.385c-0.707,-0.33 -1.129,-0.853 -1.831,-1.2c-0.999,-0.495 -2.169,-0.581 -3.169,-1.084c-1.049,-0.528 -1.795,-1.341 -2.831,-1.887c-0.87,-0.46 -1.975,-0.459 -2.738,-1.064c-0.134,-0.106 -0.133,-0.197 -0.229,-0.338c-0.042,-0.014 -0.064,-0.06 -0.05,-0.101c0.015,-0.041 0.06,-0.064 0.101,-0.05c0.161,-0.054 0.213,-0.127 0.383,-0.128c0.956,-0.01 1.797,0.698 2.746,0.882c1.118,0.216 2.166,0.013 3.293,0.195c0.886,0.143 1.722,0.496 2.599,0.668c0.264,0.052 0.524,0.114 0.792,0.118c0.702,0.01 1.239,-0.293 1.938,-0.309c0.365,-0.008 0.723,0.076 1.085,0.106l8.463,0.902l6.623,0.488l5.236,0.671c2.384,0.182 4.777,0.267 7.171,0.283c2.396,0.016 4.791,-0.033 7.18,-0.183c2.179,0.029 4.341,-0.035 6.509,-0.334c4.08,-0.563 8.032,-1.887 12.021,-2.868c1.029,-0.254 2.048,-0.417 3.077,-0.633Zm80.408,-33.73c-0.117,0.061 -0.261,0.016 -0.322,-0.1c-0.061,-0.117 -0.015,-0.261 0.101,-0.322c0.26,-0.237 0.466,-0.485 0.75,-0.698c2.333,-1.75 5.071,-3.073 7.386,-4.932c1.117,-0.896 2.121,-1.877 3.134,-2.844c1.062,-1.074 1.997,-2.19 3.053,-3.228c1.081,-1.063 2.236,-2.03 3.41,-2.979c1.602,-1.294 3.311,-2.462 5.166,-3.507c2.928,-1.543 5.945,-2.847 9.055,-3.894c4.25,-1.431 8.569,-2.598 12.891,-3.792c1.3,-0.36 2.609,-0.561 3.884,-1.003c1.251,-0.433 2.414,-1.087 3.633,-1.618c0.136,-0.06 0.265,-0.153 0.414,-0.162c0.274,-0.015 0.319,0.088 0.585,0.157c0.085,-0.045 0.191,-0.013 0.237,0.072c0.045,0.085 0.013,0.191 -0.072,0.237c-0.097,0.281 -0.029,0.389 -0.219,0.617c-0.104,0.124 -0.28,0.162 -0.422,0.239c-1.024,0.554 -2.117,0.964 -3.138,1.515c-1.1,0.593 -2.05,1.361 -3.171,1.911c-0.47,0.23 -0.973,0.383 -1.456,0.584c-4.129,1.715 -8.236,3.44 -12.353,5.184c-2.652,1.124 -5.303,2.25 -7.832,3.68c-3.046,1.563 -5.524,3.718 -8.248,5.624c-1.239,0.867 -2.536,1.59 -3.868,2.364c-0.874,0.514 -1.767,0.971 -2.653,1.501c-2,1.197 -3.97,2.503 -6.021,3.628c-1.013,0.556 -1.971,1.227 -3.046,1.594c-0.296,0.101 -0.573,0.115 -0.878,0.172Zm-167.165,-23.381c0.012,0.139 -0.092,0.261 -0.23,0.272c-0.139,0.011 -0.261,-0.092 -0.272,-0.231c-0.158,-0.106 -0.194,-0.035 -0.299,-0.194c-0.162,-0.245 -0.122,-0.57 -0.178,-0.857c-0.514,-2.639 -1.237,-5.234 -1.904,-7.827c-0.176,-0.686 -0.375,-1.352 -0.52,-2.046c-0.274,-1.413 -0.589,-2.905 -0.733,-4.434c-0.148,-1.578 -0.095,-3.165 0.073,-4.649c0.616,-3.417 1.735,-6.93 3.469,-10.112c1.203,-2.208 2.562,-4.359 4.365,-6.02c0.812,-0.747 1.694,-1.281 2.62,-1.845c0.011,-0.011 0.029,-0.011 0.039,0.001c0.011,0.011 0.011,0.029 -0.001,0.039c-0.59,0.874 -1.016,1.774 -1.573,2.693c-1.193,1.972 -2.391,3.98 -3.3,6.162c-1.286,3.083 -2.184,6.343 -2.524,9.526c-0.133,0.783 -0.195,1.602 -0.255,2.435c-0.147,2.014 -0.192,4.093 -0.152,6.005c-0.007,0.655 -0.015,1.3 0.063,1.95c0.323,2.674 1.318,5.259 1.542,7.954c0.026,0.308 0.15,0.639 0.03,0.926c-0.075,0.178 -0.119,0.12 -0.26,0.252Zm-6.809,-9.243c0.008,0.022 -0.003,0.046 -0.025,0.054c-0.022,0.008 -0.046,-0.004 -0.054,-0.025c-0.467,-1.134 -0.836,-2.345 -1.269,-3.539c-0.295,-0.814 -0.629,-1.582 -0.895,-2.4c-0.298,-0.914 -0.519,-1.805 -0.691,-2.726c-0.162,-2.565 0.259,-5.183 1.133,-7.64c0.288,-0.81 0.549,-1.649 1.021,-2.361c0.3,-0.453 0.598,-0.881 1.051,-1.171c0.482,-0.308 0.688,-0.252 1.229,-0.419c0.033,-0.051 0.1,-0.066 0.152,-0.034c0.051,0.033 0.066,0.101 0.033,0.152c0.044,0.614 0.207,0.865 0.158,1.486c-0.029,0.369 -0.135,0.7 -0.261,1.05c-0.117,0.326 -0.29,0.629 -0.437,0.944c-1.168,2.505 -2.04,5.207 -2.059,7.94c-0.198,1.438 -0.32,2.886 -0.142,4.375c0.178,1.488 0.633,2.93 1.056,4.314Zm204.631,23.046c-0.225,0.135 -0.518,0.061 -0.653,-0.165c-0.134,-0.225 -0.06,-0.518 0.165,-0.653c0.173,-0.215 0.285,-0.418 0.497,-0.594c0.749,-0.62 1.719,-0.904 2.604,-1.304c1.314,-0.593 2.672,-1.086 4.027,-1.603c3.104,-1.185 6.23,-2.312 9.242,-3.62c2.144,-0.821 4.216,-1.733 6.259,-2.713c2.034,-0.976 4.034,-2.023 6.001,-3.189l6.435,-3.8c1.808,-1.175 3.249,-2.84 5.006,-4.122c0.526,-0.384 1.019,-0.551 1.582,-0.863c0.074,-0.092 0.21,-0.106 0.302,-0.031c0.092,0.075 0.106,0.21 0.031,0.302c-0.164,0.568 -0.219,1.032 -0.466,1.578c-0.142,0.314 -0.359,0.578 -0.55,0.867c-1.14,1.723 -2.415,3.331 -3.846,4.786c-0.815,0.756 -1.669,1.455 -2.586,2.078c-1.305,0.886 -2.717,1.612 -4.079,2.4c-2.1,1.16 -4.22,2.22 -6.397,3.153c-2.169,0.93 -4.389,1.737 -6.666,2.47c-3.418,0.935 -6.994,1.435 -10.424,2.466c-2.004,0.602 -3.775,1.771 -5.75,2.441c-0.25,0.085 -0.473,0.069 -0.734,0.116Zm-45.213,-83.385c-0.036,0.004 -0.069,-0.022 -0.073,-0.057c-0.004,-0.036 0.021,-0.069 0.057,-0.073c0.877,-0.248 1.712,-0.539 2.607,-0.715c3.499,-0.686 7.106,-0.64 10.656,-1.035c1.929,-0.214 3.795,-0.653 5.728,-0.794c1.598,-0.116 3.202,-0.052 4.8,-0.046c2.218,0.033 4.455,0.019 6.68,0.146c1.525,0.087 3.044,0.241 4.548,0.507c1.544,0.28 3.091,0.592 4.622,0.967c1.538,0.376 3.061,0.813 4.558,1.308l3.719,1.748c1.13,0.474 2.309,0.836 3.411,1.382c0.348,0.173 0.733,0.288 0.985,0.582c0.214,0.249 0.145,0.326 0.267,0.629c0.054,0.022 0.08,0.084 0.058,0.137c-0.021,0.054 -0.083,0.08 -0.136,0.058c-0.307,0.121 -0.334,0.254 -0.664,0.275c-1.576,0.102 -3.07,-0.696 -4.604,-1.06l-3.795,-1.328c-1.16,-0.344 -2.335,-0.645 -3.518,-0.922c-1.78,-0.417 -3.577,-0.772 -5.373,-1.067c-1.4,-0.238 -2.813,-0.365 -4.231,-0.44c-2.187,-0.117 -4.386,-0.108 -6.567,-0.139c-1.573,-0.038 -3.15,0.01 -4.725,-0.052c-2.386,-0.094 -4.732,-0.432 -7.122,-0.442c-3.169,-0.013 -6.318,0.533 -9.479,0.569c-0.817,0.01 -1.595,-0.097 -2.409,-0.138Zm49.514,-2.275c-0.032,-0.012 -0.048,-0.046 -0.037,-0.078c0.012,-0.031 0.047,-0.048 0.078,-0.036c0.247,-0.005 0.449,-0.048 0.692,-0.006c1.895,0.324 3.583,1.399 5.435,1.93l8.636,2.065c3.222,1.269 6.318,2.772 9.291,4.502c1.769,1.029 3.522,2.094 5.196,3.278c0.671,0.475 1.351,0.93 1.945,1.499c0.431,0.412 0.716,0.847 1.102,1.302c0.198,0.125 0.258,0.388 0.133,0.586c-0.125,0.199 -0.388,0.258 -0.586,0.133c-0.577,-0.151 -1.093,-0.222 -1.651,-0.434c-0.766,-0.291 -1.469,-0.705 -2.186,-1.101c-2.825,-1.564 -5.565,-3.26 -8.402,-4.789c-1.872,-1.008 -3.742,-2.02 -5.701,-2.884c-1.303,-0.683 -2.587,-1.271 -3.919,-1.791c-1.355,-0.53 -2.729,-0.986 -4.122,-1.521c-1.843,-0.623 -3.744,-1.173 -5.389,-2.201c-0.208,-0.13 -0.33,-0.294 -0.515,-0.454Z" style="fill:#fff;"/><g><g><path d="M54.16,130.979l0.907,-3.232l0.173,-4.414l-4.986,-11.772l0.496,-8.241l87.677,2.559l1.154,5.379l-1.788,7.398l0.865,6.72l3.273,2.895l1.537,5.436l-0.008,0c0.077,0.65 -0.38,1.158 -1.401,1.386l-57.977,12.954c-2.191,0.49 -6.158,-0.492 -8.853,-2.19l-18.797,-11.844c-1.75,-1.103 -2.537,-2.239 -2.272,-3.034Z" style="fill:#adadad;"/><path d="M141.962,128.379l0.892,3.157c-0.654,0.232 -1.202,0.765 -1.848,0.981c-0.849,0.282 -2.281,-0 -3.18,-0c-0.129,-0 -1.529,0.06 -1.689,-0.1c-0.179,-0.179 0.43,-0.331 0.497,-0.397c0.533,-0.534 1.815,-0.425 2.384,-0.994c0.684,-0.684 1.926,-1.627 2.882,-2.583c0.02,-0.02 0.041,-0.042 0.062,-0.064Zm-2.412,-17.265l0.031,0.144l-0.98,4.055c-0.421,0.212 -0.893,0.421 -1.272,0.61c-0.555,0.277 -1.149,0.624 -1.689,0.894c-0.386,0.193 -0.92,-0.099 -1.292,-0.099l-3.775,-0c-0.278,-0 -1.914,0.372 -2.186,0.099c-0.122,-0.122 0.654,-0.257 0.695,-0.298c0.516,-0.516 1.872,-0.524 2.683,-0.795c0.953,-0.318 2.025,-0.466 2.881,-0.894c0.514,-0.257 0.921,-0.722 1.193,-0.994c0.505,-0.505 1.233,-0.636 1.689,-1.093c0.21,-0.21 0.495,-0.694 0.894,-0.894c0.379,-0.189 0.748,-0.479 1.128,-0.735Zm-1.667,7.168l-0.09,0.374l0.865,6.72l0.269,0.238c-0.12,0.053 -0.232,0.109 -0.306,0.146c-0.627,0.314 -1.375,0.359 -2.087,0.596c-0.258,0.086 -1.225,0.033 -1.391,0.199c-0.327,0.327 -1.264,0.234 -1.788,0.497c-0.759,0.379 -1.515,0.807 -2.286,1.192c-0.672,0.336 -1.47,0.238 -2.186,0.596c-0.483,0.242 -1.36,-0.132 -1.887,0c-0.473,0.118 -0.908,0.26 -1.392,0.398c-1.002,0.286 -2.092,0.247 -3.08,-0c-0.306,-0.077 -0.671,-0.1 -0.993,-0.1c-0.169,0 -0.497,-0.099 -0.497,-0.099c-0,-0 0.37,-0.073 0.497,-0.199c0.292,-0.292 0.974,-0.676 1.391,-1.093c0.977,-0.977 2.492,-1.794 3.676,-2.583c0.619,-0.413 1.131,-0.963 1.59,-1.193c0.273,-0.136 0.505,-0.599 0.795,-0.695c1.19,-0.397 2.739,-1.508 3.776,-2.286c0.863,-0.647 2.089,-0.782 2.98,-1.391c0.673,-0.459 1.456,-0.844 2.144,-1.317Zm-87.629,-6.728l0.496,-8.234l27.041,0.789c-0.016,0.693 -0.043,1.387 -0.08,2.076c-0.157,3.001 -0.264,6.058 -0.596,9.042c-0.403,3.629 -0.067,7.304 -0.397,10.93c-0.123,1.35 13.97,4.631 13.97,4.631l-7.761,1.585c-0,-0 -6.216,-0.376 -6.169,-0.238c-1.435,-0.559 -2.923,-1.144 -4.237,-1.92c-2.867,-1.692 -5.912,-3.146 -8.585,-5.151c-1.479,-1.109 -2.712,-2.654 -4.261,-3.815c-0.374,-0.281 -0.681,-0.745 -1.017,-1.081c-1.129,-1.129 -2.176,-2.367 -3.307,-3.498c-0.93,-0.93 -2.074,-1.671 -2.989,-2.607c-0.761,-0.78 -1.279,-1.793 -2.108,-2.509Zm30.433,33.623c-0.033,0.802 -0.212,1.801 -0.252,2.73c-1.777,-0.368 -3.692,-1.096 -5.206,-2.05l-18.797,-11.844c-1.75,-1.103 -2.537,-2.239 -2.272,-3.034l0.907,-3.232l0.164,-4.178c0.384,0.335 0.775,0.661 1.201,0.923c0.925,0.57 2.011,0.828 2.925,1.399c0.53,0.331 1.043,0.871 1.59,1.145c1.496,0.748 3.332,1.965 5.087,2.989c0.835,0.487 1.731,0.705 2.608,1.081c2.077,0.89 4.421,1.45 6.677,2.352c0.588,0.236 0.873,0.564 1.399,0.827c0.345,0.173 0.692,0.351 1.041,0.534c0.187,0.465 14.797,1.805 14.797,1.805l5.656,2.286c-0,-0 -17.891,1.606 -17.366,2.658c-0.04,-0.012 -0.081,-0.023 -0.122,-0.033c-1.633,-0.409 -2.978,-0.949 -4.388,-1.654c-0.938,-0.469 -2.273,-0.578 -3.243,-1.208c-0.897,-0.582 -1.948,-0.967 -2.862,-1.526c-1.442,-0.883 -2.889,-1.799 -4.26,-2.735c-1.11,-0.757 -2.382,-1.509 -3.561,-2.098c-0.5,-0.25 -0.987,-0.711 -1.527,-0.89c-0.598,-0.2 -1.299,-0.428 -1.844,-0.7c-0.239,-0.119 -0.441,-0.187 -0.572,-0.318c-0.048,-0.047 -0.191,-0.064 -0.191,-0.064l0.254,0.255c0.201,0.2 0.33,0.421 0.509,0.636c0.456,0.547 0.973,1.02 1.526,1.462c0.763,0.61 1.513,1.262 2.29,1.845c0.388,0.291 0.935,0.476 1.272,0.826c0.418,0.435 1.032,0.994 1.589,1.272c1.373,0.686 2.413,1.938 3.752,2.607c0.414,0.207 0.763,0.742 1.209,0.891c0.751,0.25 1.447,1.012 2.225,1.272c0.968,0.322 1.943,0.753 2.926,1.081c0.397,0.132 0.773,0.514 1.144,0.699c0.766,0.383 1.598,0.936 2.417,1.208c0.317,0.106 0.682,0.391 0.954,0.573c0.109,0.073 0.224,0.142 0.344,0.208Zm17.758,-16.166c9.381,-2.101 17.495,-7.983 26.571,-9.898c-5.716,3.068 -10.733,6.94 -17.527,9.111c-1.602,0.511 -5.971,0.554 -9.044,0.787Z" style="fill:#a1a1a1;"/><path d="M117.705,91.582c-2.644,-1.667 -6.537,-2.63 -8.687,-2.149l-56.887,12.71c-2.15,0.481 -1.748,2.224 0.897,3.89l18.443,11.622c2.644,1.666 6.537,2.629 8.687,2.149l56.886,-12.711c2.15,-0.48 1.749,-2.223 -0.896,-3.89l-18.443,-11.621Z" style="fill:#b5b5b5;"/></g><g><path d="M66.477,101.274c0.077,-0.217 0.266,-0.397 0.572,-0.524l3.006,-3.36l6.333,-3.387l1.687,-3.337l54.861,1.638l0.003,4.411l-3.837,4.325l0,2.268c-0.005,0.403 -0.329,0.716 -0.988,0.863l-40.657,9.085c-1.537,0.343 -4.319,-0.345 -6.209,-1.536l-13.182,-8.306c-1.21,-0.762 -1.763,-1.547 -1.601,-2.103l-0.027,-0.001l0.039,-0.036Z" style="fill:#adadad;"/><path d="M132.939,96.682l-0,0.033l-3.837,4.325l0,0.149c-0.294,0.095 -0.582,0.204 -0.864,0.345c-0.175,0.088 -0.503,-0.02 -0.678,0.068c-0.915,0.458 -2.456,0.312 -3.459,0.814c-0.367,0.183 -0.923,0.02 -1.289,0.203c-0.355,0.178 -0.762,0.141 -1.153,0.272c-1.281,0.427 -2.749,0.582 -4.138,0.814c-2.478,0.413 -4.91,1.348 -7.326,1.831c-1.23,0.246 -2.562,-0.07 -3.798,0.136c-0.856,0.142 -1.898,-0.069 -2.714,0.203c-2.047,0.683 -4.386,1.236 -6.579,1.967c-0.949,0.317 -1.912,0.643 -2.849,1.018c-0.335,0.134 -0.676,0.225 -1.018,0.339c-0.135,0.045 -0.407,0.279 -0.407,0.136c0,-0.091 0.238,-0.125 0.272,-0.136c0.405,-0.135 0.885,-0.612 1.288,-0.814c1.834,-0.917 3.874,-1.326 5.698,-2.238c3.52,-1.76 7.586,-1.992 11.532,-2.781c0.93,-0.187 2.026,-0.043 2.916,-0.34c1.183,-0.394 2.433,-0.358 3.595,-0.746c1.648,-0.549 3.439,-0.927 5.156,-1.356c0.584,-0.147 1.168,-0.424 1.763,-0.543c0.579,-0.116 1.106,-0.667 1.696,-0.814c1.362,-0.341 2.711,-0.993 3.866,-1.764c0.661,-0.44 1.548,-0.739 2.239,-1.085c0.018,-0.009 0.048,-0.021 0.088,-0.036Zm-0.002,-2.719l0.001,2.112c-0.466,0.192 -0.946,0.383 -1.444,0.507c-1.002,0.251 -2.627,0.728 -3.323,1.425c-0.142,0.141 -0.748,0 -0.95,0.068c-0.739,0.246 -1.988,0.203 -2.781,0.203c-0.958,0 -1.901,0.204 -2.849,0.204l-1.425,-0c0,-0 0.376,-0.053 0.543,-0.136c0.279,-0.139 0.688,-0.273 1.018,-0.339c1.249,-0.25 2.535,-0.426 3.798,-0.679c1.477,-0.295 2.295,-1.104 3.663,-1.56c0.787,-0.262 1.868,-0.638 2.578,-1.085c0.337,-0.213 0.765,-0.53 1.171,-0.72Z" style="fill:#a1a1a1;"/><path d="M76.294,94.053l0.094,-0.05l1.687,-3.337l20.344,0.607c-0.669,2.351 -3.42,11.155 -4.362,13.038c-0.022,0.044 -0.245,0.23 -0.594,0.505c-0.079,-0.018 -0.153,-0.042 -0.218,-0.074c-0.359,-0.18 -0.859,-0.301 -1.259,-0.434c-0.326,-0.109 -0.65,-0.362 -0.998,-0.478c-1.449,-0.483 -2.909,-1.102 -4.385,-1.693c-0.503,-0.201 -0.792,-0.534 -1.259,-0.651c-0.56,-0.14 -1.012,-0.485 -1.519,-0.738c-0.974,-0.487 -1.934,-0.903 -2.778,-1.606c-1.177,-0.981 -2.362,-1.554 -3.039,-2.909c-0.337,-0.673 -0.947,-1.3 -1.433,-1.867c-0.082,-0.095 -0.181,-0.2 -0.281,-0.313Z" style="fill:#a1a1a1;"/><path d="M88.218,108.957c-0.008,0.007 -0.015,0.014 -0.022,0.021c-0.76,0.761 -2.489,3.766 -2.777,4.273c-1.381,-0.211 -2.959,-0.767 -4.171,-1.531l-13.182,-8.306c-1.21,-0.762 -1.763,-1.547 -1.601,-2.103l-0.027,-0.001l0.039,-0.036c0.077,-0.217 0.266,-0.397 0.572,-0.524l2.805,-3.135c0.116,0.013 0.245,0.004 0.339,0.051c0.429,0.214 0.944,0.068 1.39,0.217c0.416,0.138 0.872,0.197 1.259,0.391c0.69,0.345 1.164,0.946 1.779,1.562c0.825,0.825 1.671,1.684 2.605,2.431c0.661,0.529 1.458,1.098 2.214,1.476c0.258,0.129 0.58,0.199 0.825,0.348c1.045,0.633 2.105,1.29 3.169,1.91c0.424,0.247 0.835,0.639 1.256,0.85c0.291,0.145 0.741,0.343 0.958,0.583c0.218,0.24 0.57,0.588 0.868,0.738c0.287,0.143 0.569,0.371 0.869,0.52c0.265,0.133 0.572,0.134 0.825,0.261c0.002,0.001 0.005,0.003 0.008,0.004Z" style="fill:#a1a1a1;"/><path d="M119.972,83.304c-1.655,-1.043 -4.09,-1.646 -5.436,-1.345l-35.595,7.954c-1.346,0.3 -1.095,1.391 0.56,2.434l11.541,7.271c1.655,1.043 4.09,1.646 5.436,1.345l35.595,-7.953c1.346,-0.301 1.094,-1.392 -0.56,-2.434l-11.541,-7.272Z" style="fill:#b5b5b5;"/></g><g><path d="M92.764,82.831l30.732,0.8l1.831,2.5l0.073,1.81l2.674,1.239l0.756,1.442c0.458,0.547 0.346,1.019 -0.389,1.184l-27.205,6.078c-1.028,0.23 -2.889,-0.231 -4.154,-1.028l-8.82,-5.557c-0.875,-0.552 -1.237,-1.121 -1.036,-1.495l-0.054,-0.001l0.686,-2.518l1.635,-1.202l1.867,-0.7l0.618,-1.429l0.786,-1.123Z" style="fill:#adadad;"/><path d="M125.319,86.12l0.008,0.011l0.068,1.687c-0.402,0.131 -0.797,0.266 -1.169,0.452c-0.318,0.159 -0.713,0.152 -1.077,0.243c-0.691,0.173 -1.353,0.417 -2.049,0.556c-1.31,0.262 -2.651,0.564 -3.959,0.938c-0.522,0.149 -1.116,0.221 -1.598,0.382c-0.163,0.054 -0.359,-0.019 -0.521,0.035c-0.969,0.323 -2.259,0 -3.195,0.312c-1.365,0.455 -2.826,0.986 -4.272,1.528c-0.486,0.183 -0.996,0.359 -1.458,0.591c-0.146,0.072 -0.33,0.107 -0.487,0.139c-0.09,0.018 -0.277,-0 -0.277,-0c-0,-0 0.195,-0.05 0.277,-0.105c0.137,-0.091 0.329,-0.18 0.487,-0.243c0.486,-0.194 0.985,-0.423 1.458,-0.66c0.543,-0.271 1.136,-0.502 1.633,-0.833c0.253,-0.169 0.594,-0.237 0.833,-0.417c0.557,-0.418 1.162,-0.841 1.771,-1.146c0.219,-0.109 0.547,-0.065 0.764,-0.174c0.339,-0.169 1.031,-0.196 1.494,-0.243c1.005,-0.1 2.034,-0.323 3.021,-0.521c0.572,-0.114 1.166,-0.12 1.737,-0.243c0.689,-0.147 1.396,-0.279 2.084,-0.417c0.443,-0.088 0.849,-0.337 1.215,-0.52c0.939,-0.47 2,-0.842 3.022,-1.251c0.068,-0.027 0.131,-0.062 0.19,-0.101Zm2.791,3.129l0.72,1.373c0.007,0.008 0.013,0.016 0.02,0.024c-0.282,0.021 -0.608,0.068 -0.7,0.16c-0.035,0.034 -0.174,-0.035 -0.208,-0c-0.184,0.183 -0.621,0.153 -0.869,0.277c-0.57,0.286 -1.253,0.505 -1.875,0.66c-0.311,0.078 -0.63,0.21 -0.938,0.313c-0.233,0.077 -0.527,-0.01 -0.764,0.069c-0.562,0.188 -1.167,0.17 -1.736,0.313c-0.373,0.093 -0.807,-0.024 -1.181,0.069c-1.058,0.265 -2.246,0.147 -3.265,0.487c-0.378,0.126 -0.864,0.007 -1.25,0.104c-1.031,0.257 -2.079,0.467 -3.126,0.729c-0.338,0.085 -0.652,0.243 -1.007,0.243l-0.59,0c-0,0 0.301,-0.067 0.451,-0.104c0.333,-0.083 0.647,-0.196 0.973,-0.278c0.938,-0.234 1.885,-0.571 2.848,-0.764c1.146,-0.229 2.265,-0.47 3.403,-0.66c0.502,-0.083 0.981,-0.325 1.494,-0.382c0.637,-0.071 1.259,-0.214 1.875,-0.382c0.611,-0.166 1.265,-0.181 1.875,-0.347c1.046,-0.285 2.293,-0.418 2.987,-1.111c0.271,-0.271 0.594,-0.526 0.863,-0.793Zm-36.029,-5.442l0.684,-0.976c-0.023,0.267 0.251,0.621 0.798,0.966l6.468,4.075c0.514,0.324 1.162,0.572 1.767,0.7c-0.028,0.276 -0.062,0.55 -0.116,0.824c-0.076,0.379 -0.092,0.812 -0.09,1.245c-1.602,-1.58 -3.855,-2.102 -5.741,-3.517c-0.596,-0.447 -1.607,-0.715 -1.91,-1.32c-0.098,-0.195 -0.372,-0.281 -0.486,-0.451c-0.231,-0.347 -0.504,-0.573 -0.729,-0.799c-0.068,-0.067 -0.238,-0.093 -0.278,-0.173c-0.042,-0.083 -0.074,-0.191 -0.139,-0.278c-0.031,-0.042 -0.129,-0.166 -0.228,-0.296Zm-2.325,2.178l1.604,-0.602l0.002,-0.005c0.805,0.803 1.638,1.605 2.475,2.163c0.304,0.203 0.735,0.28 1.077,0.417c0.647,0.259 1.293,0.538 1.944,0.799c0.489,0.195 0.921,0.434 1.39,0.59c0.387,0.129 0.642,0.399 1.007,0.521c0.205,0.068 0.372,0.329 0.556,0.451c0.659,0.44 1.165,1.1 1.803,1.568c0.014,0.241 0.091,0.692 -0.002,0.877c-0.109,0.219 -0.263,0.46 -0.423,0.703c-0.664,-0.387 -1.325,-0.838 -2.004,-1.064c-0.961,-0.32 -1.926,-0.833 -2.882,-1.215c-0.744,-0.298 -1.518,-0.533 -2.188,-0.938c-0.172,-0.104 -0.377,-0.227 -0.556,-0.313c-0.055,-0.026 -0.203,-0.029 -0.243,-0.069c-0.342,-0.342 -0.806,-0.831 -1.146,-1.285c-0.09,-0.12 -0.239,-0.345 -0.382,-0.417c-0.281,-0.141 -0.758,-0.654 -1.077,-0.972c-0.271,-0.271 -0.405,-0.688 -0.674,-0.957c-0.089,-0.089 -0.184,-0.172 -0.281,-0.252Zm10.961,8.232c-0.028,0.049 -0.054,0.098 -0.077,0.145c-0.094,0.188 -0.301,1.077 -0.382,1.32c-0.211,0.631 -0.703,2.062 -0.726,2.138c-0.835,-0.172 -1.737,-0.515 -2.45,-0.964l-8.82,-5.557c-0.875,-0.552 -1.237,-1.121 -1.036,-1.495l-0.054,-0.001l0.686,-2.518l0.074,-0.055c0.05,0.044 0.098,0.088 0.14,0.137c0.359,0.42 0.892,0.863 1.389,1.112c0.295,0.147 0.725,0.295 0.972,0.555c0.624,0.655 1.662,1.161 2.466,1.563c0.385,0.192 0.739,0.422 1.077,0.591c0.638,0.319 1.468,0.619 2.188,0.798c0.216,0.054 0.42,0.21 0.625,0.278c0.714,0.238 1.387,0.572 2.049,0.903c0.634,0.317 1.283,0.625 1.879,1.05Z" style="fill:#a1a1a1;"/><path d="M116.244,78.729c-0.928,-0.584 -2.293,-0.922 -3.047,-0.753l-19.948,4.457c-0.754,0.168 -0.613,0.78 0.314,1.364l6.468,4.075c0.927,0.585 2.292,0.922 3.046,0.754l19.948,-4.457c0.754,-0.169 0.614,-0.78 -0.314,-1.364l-6.467,-4.076Z" style="fill:#b5b5b5;"/></g></g><g><ellipse cx="207.535" cy="119.659" rx="8.567" ry="4.52" style="fill:#dfc96e;"/><g><path d="M201.97,119.005c-0.242,-16.374 2.529,-30.969 12.982,-41.024l4.191,2.369c-5.605,11.139 -7.87,23.739 -5.869,38.206c0.042,0.147 0.064,0.297 0.064,0.449c-0,1.656 -2.547,2.999 -5.684,2.999c-3.137,0 -5.684,-1.343 -5.684,-2.999Z" style="fill:#906344;"/><path d="M212.566,107.366c-0.006,0.349 -0.008,0.7 -0.008,1.052c-1.088,0.035 -2.209,-0.013 -3.28,-0.135c-2.34,-0.265 -4.69,-0.88 -6.765,-1.993c0.044,-0.394 0.091,-0.786 0.141,-1.176c0.705,0.471 1.461,0.874 2.273,1.192c1.481,0.579 3.128,0.825 4.7,0.979c0.691,0.067 1.373,0.068 2.066,0.072c0.293,0.001 0.585,0.012 0.873,0.009Z" style="fill:#b58767;"/><path d="M214.516,92.636c-0.044,0.168 -0.086,0.336 -0.128,0.504c-0.675,-0.178 -1.339,-0.406 -1.933,-0.722c-1.091,-0.58 -2.121,-1.217 -3.048,-2.033c-0.75,-0.658 -1.367,-1.416 -1.902,-2.23c0.153,-0.305 0.31,-0.608 0.471,-0.909c1.02,1.667 2.382,3.104 4.123,4.166c0.722,0.44 1.547,1.015 2.417,1.224Z" style="fill:#b58767;"/><path d="M216.655,85.961c-0.124,0.32 -0.244,0.641 -0.362,0.964c-0.333,-0.09 -0.662,-0.195 -0.986,-0.314c-1.976,-0.727 -3.562,-2.023 -4.654,-3.673c0.206,-0.286 0.417,-0.57 0.631,-0.85c0.797,1.019 1.785,1.866 2.87,2.604c0.711,0.485 1.653,1.067 2.501,1.269Z" style="fill:#b58767;"/><path d="M213.274,98.734c-0.028,0.183 -0.055,0.366 -0.081,0.549c-0.517,0.081 -1.063,0.078 -1.471,0.085c-0.224,0.004 -0.949,0.01 -1.252,-0.006c-2.219,-0.122 -4.557,-1.048 -6.192,-2.615c0.078,-0.289 0.158,-0.576 0.24,-0.862c1.538,1.639 3.792,2.652 6.035,2.77c0.735,0.038 1.806,0.224 2.721,0.079Z" style="fill:#b58767;"/><path d="M212.864,114.994c0.03,0.33 0.063,0.661 0.097,0.993c-1.212,0.397 -2.437,0.735 -3.716,0.881c-1.997,0.229 -4.266,0.08 -6.194,-0.536c-0.366,-0.116 -0.73,-0.277 -1.089,-0.458c0.001,-0.138 0.003,-0.276 0.005,-0.414c2.657,1.042 5.663,0.966 8.41,0.326c0.751,-0.175 1.45,-0.402 2.171,-0.675c0.1,-0.038 0.207,-0.076 0.316,-0.117Z" style="fill:#b58767;"/><path d="M207.021,89.157c1.936,-4.143 4.526,-7.9 7.931,-11.176l4.191,2.369c-2.098,4.17 -3.729,8.545 -4.842,13.146c-3.272,-0.246 -5.862,-1.629 -7.28,-4.339Z" style="fill:#6b4124;fill-opacity:0.5;"/></g><g><g><path d="M232.383,87.618c-1.349,-6.467 -5.779,-11.737 -13.155,-12.485c-2.396,3.662 -2.793,6.831 -2.063,9.664c2.818,-2.424 5.961,-2.483 9.282,-1.242c-3.344,0.495 -5.463,2.771 -6.603,6.472c1.38,1.841 3.069,3.552 4.699,5.199c1.661,-0.719 3.353,-0.958 5.085,-0.607c-1.116,0.565 -2.063,1.568 -2.904,2.848c1.592,1.7 2.927,3.361 3.566,5.063c1.721,-3.384 2.559,-7.116 2.534,-10.71c-1.379,-2.012 -2.99,-3.21 -4.75,-3.889c1.563,-0.892 3,-0.996 4.309,-0.313Z" style="fill:#bcf146;"/><path d="M229.628,94.619c-1.116,0.565 -2.063,1.568 -2.904,2.848c1.592,1.7 2.927,3.361 3.566,5.063c0.02,-2.349 -0.199,-5.086 -0.662,-7.911Zm-0,-0c-0.619,-3.769 -1.674,-7.694 -3.181,-11.064c-3.344,0.495 -5.463,2.771 -6.603,6.472c1.38,1.841 3.069,3.552 4.699,5.199c1.661,-0.719 3.353,-0.958 5.085,-0.607Zm-3.181,-11.064c-1.772,-3.961 -4.17,-7.154 -7.219,-8.422c-2.396,3.662 -2.793,6.831 -2.063,9.664c2.818,-2.424 5.961,-2.483 9.282,-1.242Z" style="fill:#a9de35;"/></g><g><path d="M207.251,85.027c-4.003,1.009 -8.823,2.416 -14.165,5.648c0.018,-1.792 0.224,-3.48 0.59,-5.054l2.396,0.035l-2.093,-1.193c0.459,-1.571 1.082,-3.017 1.837,-4.328c1.759,0.177 3.364,0.534 4.548,1.383c-0.51,-1.912 -1.987,-2.695 -3.409,-3.131c5.473,-7.444 15.555,-9.373 22.273,-3.254c-0.172,6.515 -3.587,7.801 -9.145,9.194c-1.563,-2.084 -3.368,-3.975 -5.332,-5.738c1.162,2.045 2.161,4.14 2.5,6.438Z" style="fill:#85b41c;"/><path d="M204.751,78.589c1.162,2.045 2.161,4.14 2.5,6.438c-4.003,1.009 -8.823,2.416 -14.165,5.648c1.854,-4.943 6.594,-9.214 11.665,-12.086Zm5.332,5.738c-1.563,-2.084 -3.368,-3.975 -5.332,-5.738c5.545,-3.142 11.485,-4.61 14.477,-3.456c-0.172,6.515 -3.587,7.801 -9.145,9.194Z" style="fill:#7ca916;"/></g><g><path d="M208.582,68.42c-0.25,-2.23 0.49,-4.46 1.937,-6.689c0.754,1.207 1.653,2.223 2.944,2.726c2.56,-0.924 5.794,-0.536 9.251,1.815c0.535,0.364 0.702,1.045 0.605,1.889c-1.754,-0.787 -3.551,-0.839 -5.385,-0.265c1.799,-0.141 3.456,0.428 4.906,2.033c-0.734,1.853 -2.166,3.93 -3.612,5.204c-4.763,-0.707 -8.831,-2.502 -10.081,-4.455c1.703,-2.77 3.767,-4.656 6.185,-5.675c-2.707,0.366 -5.208,1.079 -6.75,3.417Z" style="fill:#8bae3d;"/><path d="M215.332,65.003c2.733,1.984 6.054,8.229 3.896,10.13c-4.763,-0.707 -8.831,-2.502 -10.081,-4.455c1.703,-2.77 3.767,-4.656 6.185,-5.675Zm-6.75,3.417c-0.25,-2.23 0.49,-4.46 1.937,-6.689c0.754,1.207 1.653,2.223 2.944,2.726c0.519,-0.187 1.175,0.042 1.869,0.546c-2.707,0.366 -5.208,1.079 -6.75,3.417Z" style="fill:#749230;"/></g><g><path d="M216.807,68.609c1.135,1.468 1.967,3.534 2.421,6.524c-6.825,2.088 -11.997,1.035 -15.66,-1.81l3.805,-5.016l-5.798,3.132c-2.378,-2.709 -3.869,-6.334 -4.539,-10.248c6.717,3.703 13.146,2.83 17.414,5.347l-1.11,3.96l3.467,-1.889Z" style="fill:#accf5e;"/><path d="M207.373,68.307c2.067,0.757 4.077,1.337 5.967,2.191c2.148,0.97 4.141,2.294 5.888,4.635c-6.825,2.088 -11.997,1.035 -15.66,-1.81l3.805,-5.016Zm0,-0l-5.798,3.132c-2.378,-2.709 -3.869,-6.334 -4.539,-10.248c3.418,4.164 6.955,5.877 10.337,7.116Z" style="fill:#9dc73f;"/></g><g><path d="M235.425,77.345c1.759,1.59 3.529,3.246 5.321,4.601c-1.913,0.74 -3.754,1.282 -5.514,1.594l-1.764,-3.382l0.206,3.599c-1.092,0.109 -2.148,0.12 -3.168,0.025l0.429,-5.3l-2.751,4.878c-3.604,-1.001 -6.642,-3.596 -8.956,-8.227c2.508,-3.139 4.969,-3.974 7.413,-3.494l-0.416,3.692l2.522,-2.974c1.816,0.86 3.627,2.293 5.447,3.89l-1.964,3.082l3.195,-1.984Z" style="fill:#aeda4d;"/><path d="M228.184,83.36c-3.604,-1.001 -6.642,-3.596 -8.956,-8.227c3.684,-2.689 7.445,0.482 11.707,3.349l-2.751,4.878Zm2.751,-4.878c2.977,2.004 6.199,3.859 9.811,3.464c-1.913,0.74 -3.754,1.282 -5.514,1.594l-1.764,-3.382l0.206,3.599c-1.092,0.109 -2.148,0.12 -3.168,0.025l0.429,-5.3Z" style="fill:#a4cc4c;"/></g><g><path d="M226.927,65.003c4.606,-0.73 9.601,3.692 11.653,7.084c-1.077,-0.316 -2.05,-0.421 -2.964,-0.38l-2.312,-2.959l1.004,3.071l-3.404,-3.512l1.993,3.933c-2.164,0.714 -4.248,1.956 -7.025,2.627l-2.309,-4.276l0,4.664c-1.283,0.122 -2.712,0.106 -4.335,-0.122c1.366,-5.402 3.446,-8.269 5.761,-9.485l2.38,3.188l-0.442,-3.833Z" style="fill:#accf5e;"/><path d="M223.563,70.591l0,4.664c-1.283,0.122 -2.712,0.106 -4.335,-0.122c1.405,-2.009 2.868,-3.486 4.335,-4.542Zm0,0c2.538,-1.827 5.084,-2.392 7.349,-2.268l1.985,3.917c-2.164,0.714 -4.248,1.956 -7.025,2.627l-2.309,-4.276Zm7.357,-2.267c3.82,0.212 6.837,2.382 7.66,3.763c-1.077,-0.316 -2.05,-0.421 -2.964,-0.38l-2.312,-2.959l1.004,3.071l-3.388,-3.495Z" style="fill:#9dc73f;"/></g><g><path d="M218.377,91.131c-1.434,2.19 -3.502,4.229 -6.24,6.107c-0.587,-2.149 -1.019,-4.158 -1.288,-6.02l2.924,-0.599l-3.085,-0.675c-0.124,-1.15 -0.18,-2.241 -0.167,-3.268l4.331,-0.49l-4.23,-1.314c0.309,-3.009 1.323,-5.384 3.098,-7.073l2.777,2.242l-1.739,-3.091c1.216,-0.853 2.702,-1.462 4.47,-1.817c2.015,5.066 2.197,9.692 0.34,13.829l-5.125,-1.271l3.934,3.44Z" style="fill:#accf5e;"/><path d="M214.443,87.691l3.934,3.44c-1.434,2.19 -3.502,4.229 -6.24,6.107c0.931,-3.415 1.635,-6.634 2.306,-9.547Zm5.125,1.271l-5.125,-1.271c1.276,-5.545 2.428,-9.983 4.785,-12.558c2.015,5.066 2.197,9.692 0.34,13.829Z" style="fill:#9dc73f;"/></g></g></g><g><ellipse cx="77.716" cy="192.739" rx="8.567" ry="4.52" style="fill:#669e2c;"/><g><path d="M83.282,192.085c0.242,-16.374 -2.529,-30.969 -12.982,-41.024l-4.192,2.369c5.606,11.139 7.871,23.739 5.869,38.206c-0.041,0.147 -0.063,0.297 -0.063,0.449c-0,1.656 2.547,2.999 5.684,2.999c3.137,0 5.684,-1.343 5.684,-2.999Z" style="fill:#906344;"/><path d="M72.686,180.446c0.005,0.349 0.008,0.7 0.008,1.052c1.088,0.035 2.208,-0.013 3.279,-0.135c2.34,-0.265 4.69,-0.88 6.766,-1.993c-0.044,-0.394 -0.091,-0.786 -0.141,-1.176c-0.706,0.471 -1.462,0.874 -2.274,1.192c-1.481,0.579 -3.127,0.825 -4.7,0.979c-0.691,0.067 -1.372,0.068 -2.066,0.072c-0.292,0.001 -0.584,0.012 -0.872,0.009Z" style="fill:#b58767;"/><path d="M70.736,165.716c0.043,0.168 0.086,0.336 0.128,0.504c0.675,-0.178 1.338,-0.406 1.933,-0.722c1.09,-0.58 2.12,-1.217 3.048,-2.032c0.749,-0.659 1.367,-1.417 1.901,-2.231c-0.153,-0.305 -0.309,-0.608 -0.47,-0.909c-1.02,1.667 -2.382,3.104 -4.124,4.166c-0.722,0.44 -1.546,1.015 -2.416,1.224Z" style="fill:#b58767;"/><path d="M68.597,159.041c0.123,0.32 0.244,0.641 0.362,0.964c0.333,-0.09 0.662,-0.195 0.985,-0.314c1.977,-0.727 3.562,-2.023 4.654,-3.673c-0.206,-0.286 -0.416,-0.57 -0.631,-0.85c-0.797,1.019 -1.785,1.866 -2.869,2.604c-0.712,0.485 -1.654,1.067 -2.501,1.269Z" style="fill:#b58767;"/><path d="M71.978,171.814c0.028,0.183 0.054,0.366 0.08,0.549c0.518,0.081 1.064,0.078 1.472,0.085c0.224,0.004 0.948,0.01 1.252,-0.006c2.218,-0.122 4.556,-1.047 6.192,-2.615c-0.078,-0.289 -0.158,-0.576 -0.241,-0.862c-1.537,1.639 -3.791,2.652 -6.035,2.77c-0.735,0.038 -1.805,0.224 -2.72,0.079Z" style="fill:#b58767;"/><path d="M72.388,188.074c-0.03,0.33 -0.063,0.661 -0.098,0.993c1.213,0.397 2.438,0.735 3.716,0.881c1.998,0.229 4.267,0.08 6.195,-0.536c0.365,-0.116 0.73,-0.277 1.089,-0.458c-0.002,-0.138 -0.003,-0.276 -0.005,-0.414c-2.658,1.042 -5.664,0.966 -8.41,0.326c-0.751,-0.175 -1.451,-0.402 -2.171,-0.675c-0.101,-0.038 -0.208,-0.076 -0.316,-0.117Z" style="fill:#b58767;"/><path d="M78.231,162.237c-1.936,-4.143 -4.526,-7.9 -7.931,-11.176l-4.192,2.369c2.099,4.17 3.729,8.545 4.843,13.146c3.271,-0.246 5.861,-1.629 7.28,-4.339Z" style="fill:#6b4124;fill-opacity:0.5;"/></g><g><g><path d="M52.869,160.698c1.348,-6.467 5.778,-11.737 13.155,-12.485c2.396,3.662 2.793,6.831 2.063,9.664c-2.819,-2.424 -5.961,-2.483 -9.282,-1.242c3.343,0.495 5.463,2.771 6.603,6.472c-1.38,1.841 -3.069,3.552 -4.7,5.199c-1.66,-0.719 -3.353,-0.958 -5.084,-0.607c1.115,0.565 2.062,1.568 2.903,2.848c-1.591,1.7 -2.926,3.361 -3.565,5.063c-1.721,-3.384 -2.559,-7.116 -2.534,-10.71c1.378,-2.012 2.99,-3.21 4.749,-3.889c-1.563,-0.892 -2.999,-0.996 -4.308,-0.313Z" style="fill:#bcf146;"/><path d="M55.624,167.699c1.115,0.565 2.062,1.568 2.903,2.848c-1.591,1.7 -2.926,3.361 -3.565,5.063c-0.02,-2.349 0.198,-5.086 0.662,-7.911Zm-0,-0c0.618,-3.769 1.673,-7.694 3.181,-11.064c3.343,0.495 5.463,2.771 6.603,6.472c-1.38,1.841 -3.069,3.552 -4.7,5.199c-1.66,-0.719 -3.353,-0.958 -5.084,-0.607Zm3.181,-11.064c1.772,-3.961 4.17,-7.154 7.219,-8.422c2.396,3.662 2.793,6.831 2.063,9.664c-2.819,-2.424 -5.961,-2.483 -9.282,-1.242Z" style="fill:#a9de35;"/></g><g><path d="M78,158.107c4.004,1.009 8.824,2.416 14.166,5.648c-0.018,-1.792 -0.224,-3.48 -0.59,-5.054l-2.396,0.035l2.093,-1.193c-0.46,-1.571 -1.083,-3.017 -1.837,-4.328c-1.759,0.177 -3.365,0.534 -4.548,1.383c0.509,-1.912 1.987,-2.695 3.408,-3.131c-5.473,-7.444 -15.555,-9.373 -22.272,-3.254c0.171,6.515 3.586,7.801 9.145,9.194c1.562,-2.084 3.367,-3.975 5.332,-5.738c-1.163,2.045 -2.161,4.14 -2.501,6.438Z" style="fill:#85b41c;"/><path d="M80.501,151.669c-1.163,2.045 -2.161,4.14 -2.501,6.438c4.004,1.009 8.824,2.416 14.166,5.648c-1.854,-4.943 -6.595,-9.214 -11.665,-12.086Zm-5.332,5.738c1.562,-2.084 3.367,-3.975 5.332,-5.738c-5.546,-3.142 -11.486,-4.61 -14.477,-3.456c0.171,6.515 3.586,7.801 9.145,9.194Z" style="fill:#7ca916;"/></g><g><path d="M76.67,141.5c0.25,-2.23 -0.491,-4.46 -1.938,-6.689c-0.753,1.207 -1.653,2.223 -2.943,2.726c-2.56,-0.924 -5.794,-0.536 -9.252,1.815c-0.534,0.364 -0.702,1.045 -0.605,1.889c1.754,-0.787 3.552,-0.839 5.386,-0.265c-1.799,-0.141 -3.457,0.428 -4.907,2.033c0.734,1.853 2.167,3.93 3.613,5.204c4.763,-0.707 8.831,-2.502 10.08,-4.455c-1.702,-2.77 -3.766,-4.656 -6.185,-5.675c2.707,0.366 5.209,1.079 6.751,3.417Z" style="fill:#8bae3d;"/><path d="M69.919,138.083c-2.732,1.984 -6.053,8.229 -3.895,10.13c4.763,-0.707 8.831,-2.502 10.08,-4.455c-1.702,-2.77 -3.766,-4.656 -6.185,-5.675Zm6.751,3.417c0.25,-2.23 -0.491,-4.46 -1.938,-6.689c-0.753,1.207 -1.653,2.223 -2.943,2.726c-0.519,-0.187 -1.175,0.042 -1.87,0.546c2.707,0.366 5.209,1.079 6.751,3.417Z" style="fill:#749230;"/></g><g><path d="M68.444,141.689c-1.134,1.468 -1.967,3.534 -2.42,6.524c6.825,2.088 11.997,1.035 15.66,-1.81l-3.806,-5.016l5.799,3.132c2.378,-2.709 3.869,-6.334 4.538,-10.248c-6.717,3.703 -13.145,2.83 -17.414,5.347l1.111,3.96l-3.468,-1.889Z" style="fill:#accf5e;"/><path d="M77.878,141.387c-2.067,0.757 -4.076,1.337 -5.966,2.191c-2.148,0.97 -4.142,2.294 -5.888,4.635c6.825,2.088 11.997,1.035 15.66,-1.81l-3.806,-5.016Zm0,-0l5.799,3.132c2.378,-2.709 3.869,-6.334 4.538,-10.248c-3.417,4.164 -6.954,5.877 -10.337,7.116Z" style="fill:#9dc73f;"/></g><g><path d="M49.827,150.425c-1.759,1.59 -3.529,3.246 -5.321,4.601c1.912,0.74 3.754,1.282 5.514,1.594l1.763,-3.382l-0.205,3.599c1.091,0.109 2.148,0.12 3.167,0.025l-0.428,-5.3l2.751,4.878c3.604,-1.001 6.642,-3.596 8.956,-8.227c-2.509,-3.139 -4.97,-3.974 -7.414,-3.494l0.417,3.692l-2.522,-2.974c-1.816,0.86 -3.627,2.293 -5.447,3.89l1.963,3.082l-3.194,-1.984Z" style="fill:#aeda4d;"/><path d="M57.068,156.44c3.604,-1.001 6.642,-3.596 8.956,-8.227c-3.684,-2.689 -7.445,0.482 -11.707,3.349l2.751,4.878Zm-2.751,-4.878c-2.978,2.004 -6.2,3.859 -9.811,3.464c1.912,0.74 3.754,1.282 5.514,1.594l1.763,-3.382l-0.205,3.599c1.091,0.109 2.148,0.12 3.167,0.025l-0.428,-5.3Z" style="fill:#a4cc4c;"/></g><g><path d="M58.324,138.083c-4.606,-0.73 -9.6,3.692 -11.652,7.084c1.077,-0.316 2.05,-0.421 2.964,-0.38l2.312,-2.959l-1.004,3.071l3.404,-3.512l-1.994,3.933c2.165,0.714 4.249,1.956 7.026,2.627l2.308,-4.276l0,4.664c1.284,0.122 2.712,0.106 4.336,-0.122c-1.367,-5.402 -3.446,-8.269 -5.762,-9.485l-2.38,3.188l0.442,-3.833Z" style="fill:#accf5e;"/><path d="M61.688,143.671l0,4.664c1.284,0.122 2.712,0.106 4.336,-0.122c-1.405,-2.009 -2.869,-3.486 -4.336,-4.542Zm0,0c-2.537,-1.826 -5.084,-2.392 -7.349,-2.268l-1.985,3.917c2.165,0.714 4.249,1.956 7.026,2.627l2.308,-4.276Zm-7.357,-2.267c-3.819,0.212 -6.837,2.382 -7.659,3.763c1.077,-0.316 2.05,-0.421 2.964,-0.38l2.312,-2.959l-1.004,3.071l3.387,-3.495Z" style="fill:#9dc73f;"/></g><g><path d="M66.875,164.211c1.433,2.191 3.502,4.229 6.239,6.107c0.588,-2.149 1.019,-4.158 1.288,-6.02l-2.924,-0.599l3.085,-0.675c0.124,-1.15 0.181,-2.241 0.168,-3.268l-4.331,-0.49l4.23,-1.314c-0.31,-3.009 -1.324,-5.384 -3.098,-7.073l-2.777,2.242l1.739,-3.091c-1.216,-0.853 -2.702,-1.462 -4.47,-1.817c-2.016,5.066 -2.198,9.692 -0.34,13.829l5.125,-1.271l-3.934,3.44Z" style="fill:#accf5e;"/><path d="M70.809,160.771l-3.934,3.44c1.433,2.191 3.502,4.229 6.239,6.107c-0.931,-3.415 -1.635,-6.634 -2.305,-9.547Zm-5.125,1.271l5.125,-1.271c-1.276,-5.545 -2.429,-9.983 -4.785,-12.558c-2.016,5.066 -2.198,9.692 -0.34,13.829Z" style="fill:#9dc73f;"/></g></g></g></g></g></svg>