<?xml version="1.0" encoding="UTF-8" standalone="no"?><!DOCTYPE svg PUBLIC "-//W3C//DTD SVG 1.1//EN" "http://www.w3.org/Graphics/SVG/1.1/DTD/svg11.dtd"><svg width="100%" height="100%" viewBox="0 0 300 300" version="1.1" xmlns="http://www.w3.org/2000/svg" xmlns:xlink="http://www.w3.org/1999/xlink" xml:space="preserve" xmlns:serif="http://www.serif.com/" style="fill-rule:evenodd;clip-rule:evenodd;stroke-linejoin:round;stroke-miterlimit:2;"><g id="_250" serif:id="250"><g id="_14" serif:id="14"><ellipse cx="178.566" cy="151.704" rx="68.523" ry="36.154" style="fill:#f9e594;"/><path d="M178.566,114.869c22.856,-0 43.128,5.895 55.692,14.936c8.521,6.131 13.511,13.721 13.511,21.899c0,8.178 -4.99,15.768 -13.511,21.899c-12.564,9.041 -32.836,14.936 -55.692,14.936c-22.857,0 -43.128,-5.895 -55.693,-14.936c-8.52,-6.131 -13.511,-13.721 -13.511,-21.899c-0,-8.178 4.991,-15.768 13.511,-21.899c12.565,-9.041 32.836,-14.936 55.693,-14.936Zm-0,1.362c-22.526,0 -42.515,5.77 -54.897,14.68c-8.111,5.836 -12.945,13.008 -12.945,20.793c0,7.785 4.834,14.957 12.945,20.793c12.382,8.91 32.371,14.68 54.897,14.68c22.525,-0 42.514,-5.77 54.896,-14.68c8.111,-5.836 12.945,-13.008 12.945,-20.793c0,-7.785 -4.834,-14.957 -12.945,-20.793c-7.446,-5.358 -18.181,-6.883 -30.025,-9.398c-7.853,-1.668 -15.891,-5.282 -24.871,-5.282Z" style="fill:#dfc86d;"/><path d="M77.289,201.746c-3.209,-4.421 -7.868,-7.574 -13.164,-8.912c-23.129,-5.784 -39.125,-18.23 -39.125,-32.633c0,-19.954 30.704,-36.154 68.523,-36.154c32.975,0 60.54,12.316 67.061,28.698c1.629,4.111 4.993,7.291 9.189,8.688c17.854,5.857 29.726,16.325 29.726,28.245c0,18.416 -28.337,33.366 -63.239,33.366c-26.839,0 -49.796,-8.84 -58.971,-21.298Z" style="fill:#f9e594;"/><path d="M78.128,202.828c-4.15,-5.109 -9.785,-8.802 -16.125,-10.571c-21.982,-5.98 -37.003,-18.1 -37.003,-32.056c0,-19.954 30.704,-36.154 68.523,-36.154c32.082,0 59.044,11.658 66.485,27.377c2.28,4.932 6.438,8.748 11.547,10.597c16.856,5.974 27.944,16.138 27.944,27.657c0,18.416 -28.337,33.366 -63.239,33.366c-26.055,0 -48.451,-8.331 -58.132,-20.216Zm6.174,-4.349l0.003,0.003c9.176,11.261 28.462,23.608 53.151,23.608c20.025,-0 35.341,-9.991 46.348,-17.912c6.539,-4.705 15.082,-8.736 15.082,-15.013c0,-4.8 -2.437,-9.257 -6.503,-13.197c-4.545,-4.403 -14.238,-7.607 -22.088,-10.389c-0.008,-0.002 -0.016,-0.005 -0.024,-0.008c-6.05,-2.19 -10.975,-6.705 -13.687,-12.558c-2.689,-5.661 -8.275,-10.643 -15.753,-14.698c-11.993,-6.503 -30.393,-13.228 -48.932,-13.228c-21.774,0 -39.497,8.219 -51.466,16.832c-7.18,5.166 -13.538,11.561 -13.538,18.453c-0,5.957 3.376,12.454 8.927,17.167c6.144,5.218 16.787,8.251 27.172,11.076c0.008,0.002 0.015,0.004 0.023,0.006c7.092,1.978 16.642,4.144 21.285,9.858Z" style="fill:#dfc86d;"/><g><ellipse cx="181.373" cy="125.346" rx="8.425" ry="4.445" style="fill:#ddc56e;"/><g><path d="M175.901,124.703c-0.238,-16.103 2.487,-30.455 12.766,-40.343l4.122,2.33c-5.513,10.954 -7.74,23.345 -5.772,37.572c0.041,0.144 0.063,0.291 0.063,0.441c-0,1.628 -2.505,2.949 -5.59,2.949c-3.085,0 -5.589,-1.321 -5.589,-2.949Z" style="fill:#906344;"/><path d="M186.321,113.257c-0.006,0.343 -0.008,0.688 -0.008,1.034c-1.07,0.035 -2.172,-0.012 -3.225,-0.132c-2.302,-0.261 -4.612,-0.866 -6.653,-1.961c0.043,-0.387 0.089,-0.772 0.138,-1.156c0.694,0.463 1.437,0.86 2.236,1.172c1.456,0.57 3.076,0.812 4.622,0.963c0.68,0.066 1.35,0.067 2.032,0.071c0.287,0.001 0.574,0.012 0.858,0.009Z" style="fill:#b58767;"/><path d="M188.238,98.771c-0.042,0.165 -0.084,0.331 -0.125,0.496c-0.665,-0.175 -1.317,-0.4 -1.901,-0.71c-1.073,-0.57 -2.086,-1.197 -2.998,-1.999c-0.737,-0.648 -1.344,-1.392 -1.87,-2.193c0.151,-0.3 0.305,-0.598 0.463,-0.894c1.003,1.639 2.342,3.053 4.055,4.097c0.71,0.433 1.521,0.997 2.376,1.203Z" style="fill:#b58767;"/><path d="M190.342,92.207c-0.122,0.315 -0.24,0.631 -0.356,0.948c-0.328,-0.088 -0.651,-0.192 -0.969,-0.309c-1.944,-0.714 -3.503,-1.989 -4.577,-3.612c0.203,-0.281 0.409,-0.56 0.621,-0.836c0.783,1.002 1.755,1.836 2.821,2.562c0.7,0.476 1.627,1.049 2.46,1.247Z" style="fill:#b58767;"/><path d="M187.017,104.769c-0.027,0.179 -0.054,0.359 -0.079,0.539c-0.509,0.08 -1.046,0.077 -1.447,0.084c-0.221,0.004 -0.933,0.01 -1.231,-0.007c-2.182,-0.119 -4.481,-1.029 -6.09,-2.571c0.077,-0.284 0.156,-0.567 0.237,-0.848c1.511,1.613 3.729,2.608 5.935,2.724c0.722,0.038 1.775,0.22 2.675,0.079Z" style="fill:#b58767;"/><path d="M186.614,120.759c0.029,0.324 0.061,0.649 0.096,0.975c-1.193,0.391 -2.398,0.723 -3.655,0.867c-1.964,0.225 -4.196,0.079 -6.092,-0.527c-0.359,-0.114 -0.717,-0.272 -1.07,-0.45c0.001,-0.136 0.003,-0.272 0.005,-0.407c2.613,1.024 5.569,0.95 8.27,0.32c0.738,-0.172 1.426,-0.396 2.135,-0.663c0.099,-0.038 0.204,-0.075 0.311,-0.115Z" style="fill:#b58767;"/><path d="M180.868,95.35c1.904,-4.074 4.451,-7.769 7.799,-10.99l4.122,2.33c-2.064,4.1 -3.667,8.403 -4.762,12.927c-3.217,-0.242 -5.764,-1.601 -7.159,-4.267Z" style="fill:#6b4124;fill-opacity:0.5;"/></g><g><g><path d="M205.809,93.836c-1.326,-6.359 -5.683,-11.542 -12.937,-12.277c-2.356,3.602 -2.747,6.718 -2.028,9.504c2.771,-2.384 5.861,-2.443 9.127,-1.222c-3.288,0.487 -5.372,2.725 -6.493,6.364c1.357,1.811 3.018,3.494 4.621,5.113c1.633,-0.707 3.298,-0.941 5,-0.597c-1.097,0.556 -2.028,1.543 -2.855,2.801c1.565,1.672 2.878,3.305 3.506,4.979c1.693,-3.327 2.517,-6.997 2.492,-10.532c-1.355,-1.979 -2.94,-3.157 -4.67,-3.824c1.537,-0.877 2.949,-0.98 4.237,-0.309Z" style="fill:#bcf146;"/><path d="M203.099,100.721c-1.097,0.556 -2.028,1.543 -2.855,2.801c1.565,1.672 2.878,3.305 3.506,4.979c0.02,-2.31 -0.195,-5.002 -0.651,-7.78Zm0,0c-0.608,-3.706 -1.645,-7.566 -3.128,-10.88c-3.288,0.487 -5.372,2.725 -6.493,6.364c1.357,1.811 3.018,3.494 4.621,5.113c1.633,-0.707 3.298,-0.941 5,-0.597Zm-3.128,-10.88c-1.743,-3.895 -4.101,-7.036 -7.099,-8.282c-2.356,3.602 -2.747,6.718 -2.028,9.504c2.771,-2.384 5.861,-2.443 9.127,-1.222Z" style="fill:#a9de35;"/></g><g><path d="M181.094,91.289c-3.937,0.992 -8.677,2.376 -13.93,5.554c0.018,-1.763 0.22,-3.422 0.58,-4.97l2.356,0.034l-2.058,-1.173c0.452,-1.544 1.065,-2.966 1.807,-4.256c1.729,0.174 3.308,0.525 4.472,1.36c-0.501,-1.88 -1.954,-2.65 -3.352,-3.079c5.383,-7.321 15.297,-9.217 21.903,-3.2c-0.169,6.406 -3.527,7.671 -8.993,9.042c-1.537,-2.05 -3.312,-3.91 -5.243,-5.644c1.143,2.011 2.124,4.072 2.458,6.332Z" style="fill:#85b41c;"/><path d="M178.636,84.957c1.143,2.011 2.124,4.072 2.458,6.332c-3.937,0.992 -8.677,2.376 -13.93,5.554c1.823,-4.861 6.485,-9.061 11.472,-11.886Zm5.243,5.644c-1.537,-2.05 -3.312,-3.91 -5.243,-5.644c5.453,-3.089 11.294,-4.533 14.236,-3.398c-0.169,6.406 -3.527,7.671 -8.993,9.042Z" style="fill:#7ca916;"/></g><g><path d="M182.403,74.957c-0.246,-2.192 0.482,-4.385 1.905,-6.578c0.741,1.188 1.626,2.187 2.895,2.681c2.517,-0.908 5.697,-0.527 9.097,1.785c0.527,0.358 0.691,1.028 0.596,1.857c-1.725,-0.773 -3.493,-0.825 -5.296,-0.26c1.769,-0.138 3.399,0.421 4.825,1.999c-0.722,1.823 -2.131,3.866 -3.553,5.118c-4.684,-0.696 -8.684,-2.46 -9.913,-4.381c1.674,-2.724 3.704,-4.578 6.082,-5.581c-2.662,0.36 -5.122,1.062 -6.638,3.36Z" style="fill:#8bae3d;"/><path d="M189.041,71.597c2.687,1.952 5.953,8.093 3.831,9.962c-4.684,-0.696 -8.684,-2.46 -9.913,-4.381c1.674,-2.724 3.704,-4.578 6.082,-5.581Zm-6.638,3.36c-0.246,-2.192 0.482,-4.385 1.905,-6.578c0.741,1.188 1.626,2.187 2.895,2.681c0.51,-0.184 1.156,0.042 1.838,0.537c-2.662,0.36 -5.122,1.062 -6.638,3.36Z" style="fill:#749230;"/></g><g><path d="M190.492,75.143c1.115,1.444 1.934,3.476 2.38,6.416c-6.712,2.053 -11.798,1.018 -15.4,-1.78l3.742,-4.933l-5.702,3.081c-2.339,-2.665 -3.805,-6.229 -4.463,-10.079c6.606,3.642 12.927,2.783 17.125,5.259l-1.092,3.894l3.41,-1.858Z" style="fill:#accf5e;"/><path d="M181.214,74.846c2.033,0.745 4.009,1.315 5.868,2.155c2.112,0.954 4.073,2.256 5.79,4.558c-6.712,2.053 -11.798,1.018 -15.4,-1.78l3.742,-4.933Zm0,0l-5.702,3.081c-2.339,-2.665 -3.805,-6.229 -4.463,-10.079c3.361,4.095 6.839,5.78 10.165,6.998Z" style="fill:#9dc73f;"/></g><g><path d="M208.8,83.734c1.73,1.564 3.47,3.192 5.233,4.525c-1.881,0.728 -3.692,1.261 -5.423,1.567l-1.734,-3.326l0.202,3.54c-1.073,0.107 -2.112,0.118 -3.115,0.024l0.421,-5.211l-2.705,4.796c-3.544,-0.984 -6.531,-3.535 -8.807,-8.09c2.467,-3.087 4.887,-3.908 7.29,-3.436l-0.409,3.63l2.48,-2.924c1.786,0.846 3.567,2.255 5.357,3.825l-1.931,3.031l3.141,-1.951Z" style="fill:#aeda4d;"/><path d="M201.679,89.649c-3.544,-0.984 -6.531,-3.535 -8.807,-8.09c3.623,-2.644 7.321,0.474 11.512,3.294l-2.705,4.796Zm2.705,-4.796c2.929,1.97 6.097,3.795 9.649,3.406c-1.881,0.728 -3.692,1.261 -5.423,1.567l-1.734,-3.326l0.202,3.54c-1.073,0.107 -2.112,0.118 -3.115,0.024l0.421,-5.211Z" style="fill:#a4cc4c;"/></g><g><path d="M200.444,71.597c4.529,-0.717 9.441,3.631 11.458,6.967c-1.059,-0.311 -2.015,-0.415 -2.914,-0.375l-2.274,-2.909l0.987,3.02l-3.347,-3.454l1.96,3.868c-2.128,0.702 -4.177,1.923 -6.908,2.584l-2.271,-4.205l0,4.586c-1.262,0.12 -2.667,0.104 -4.263,-0.12c1.344,-5.312 3.389,-8.131 5.666,-9.327l2.34,3.134l-0.434,-3.769Z" style="fill:#accf5e;"/><path d="M197.135,77.093l0,4.586c-1.262,0.12 -2.667,0.104 -4.263,-0.12c1.381,-1.975 2.821,-3.428 4.263,-4.466Zm0,-0c2.496,-1.797 5,-2.352 7.227,-2.231l1.952,3.852c-2.128,0.702 -4.177,1.923 -6.908,2.584l-2.271,-4.205Zm7.235,-2.23c3.757,0.208 6.724,2.343 7.532,3.701c-1.059,-0.311 -2.015,-0.415 -2.914,-0.375l-2.274,-2.909l0.987,3.02l-3.331,-3.437Z" style="fill:#9dc73f;"/></g><g><path d="M192.035,97.291c-1.41,2.155 -3.443,4.159 -6.136,6.006c-0.578,-2.113 -1.002,-4.089 -1.266,-5.92l2.875,-0.589l-3.034,-0.663c-0.122,-1.132 -0.177,-2.204 -0.164,-3.215l4.258,-0.482l-4.159,-1.291c0.304,-2.96 1.301,-5.295 3.047,-6.956l2.731,2.204l-1.711,-3.039c1.196,-0.839 2.657,-1.438 4.396,-1.787c1.982,4.982 2.161,9.531 0.334,13.6l-5.039,-1.25l3.868,3.382Z" style="fill:#accf5e;"/><path d="M188.167,93.909l3.868,3.382c-1.41,2.155 -3.443,4.159 -6.136,6.006c0.916,-3.358 1.608,-6.523 2.268,-9.388Zm5.039,1.25l-5.039,-1.25c1.254,-5.453 2.388,-9.817 4.705,-12.35c1.982,4.982 2.161,9.531 0.334,13.6Z" style="fill:#9dc73f;"/></g></g></g><g><path d="M50.539,145.005l1.15,-3.316l2.886,1.564l87.753,-19.608c3.392,-0.758 9.532,0.761 13.704,3.39l54.871,34.576c4.172,2.629 4.805,5.378 1.414,6.136l-89.737,20.051c-3.391,0.757 -9.532,-0.762 -13.703,-3.39l-54.871,-34.576c-2.808,-1.769 -4.013,-3.593 -3.467,-4.827Z" style="fill:#669e2c;"/><path d="M155.691,123.896c-4.111,-2.591 -10.163,-4.088 -13.505,-3.341l-88.44,19.76c-3.342,0.747 -2.718,3.457 1.394,6.048l54.077,34.076c4.112,2.59 10.164,4.087 13.506,3.341l88.439,-19.761c3.343,-0.747 2.719,-3.457 -1.393,-6.047l-54.078,-34.076Z" style="fill:#8bc350;"/></g><g><g><path d="M179.227,170.981c-1.279,-0 -4.757,-0.8 -6.027,-0.643c-0.496,0.061 -1.109,0.177 -1.548,-0.123c-1.125,-0.768 -0.826,-2.759 -0.936,-3.931c-0.172,-1.82 1.026,-3.504 2.412,-5.029c0.89,-0.979 4.59,-4.741 5.999,-4.956c1.559,-0.237 3.426,0.084 4.893,0.628c0.561,0.208 1.179,0.457 1.595,0.906c1.302,1.402 1.121,4.005 1.085,5.747c-0.022,1.072 0.045,2.135 0.118,3.204c0.048,0.703 0.197,1.515 -0.068,2.192c-0.341,0.874 -1.162,1.441 -2.005,1.771c-0.679,0.266 -3.807,0.235 -5.518,0.234Z" style="fill:#a5a39d;"/><path d="M186.671,169.157c-0.378,0.772 -1.142,1.284 -1.926,1.59c-0.679,0.266 -3.807,0.235 -5.518,0.234c-1.279,-0 -4.757,-0.8 -6.027,-0.643c-0.496,0.061 -1.109,0.177 -1.548,-0.123c-1.125,-0.768 -0.826,-2.759 -0.936,-3.931c-0.172,-1.82 1.026,-3.504 2.412,-5.029c0.527,-0.58 2.04,-2.135 3.478,-3.352c-0.837,0.8 -1.547,1.54 -1.875,1.901c-1.387,1.525 -2.584,3.209 -2.413,5.029c0.111,1.171 -0.188,3.163 0.936,3.931c0.439,0.3 1.052,0.183 1.549,0.122c1.269,-0.156 4.747,0.643 6.026,0.644c1.712,0.001 4.84,0.031 5.518,-0.234c0.109,-0.043 0.217,-0.089 0.324,-0.139Z" style="fill:#878787;"/><path d="M181.255,156.277c0.964,0.103 1.929,0.34 2.765,0.65c0.561,0.208 1.179,0.457 1.595,0.906c1.302,1.402 1.121,4.005 1.085,5.747c-0.022,1.072 0.045,2.135 0.118,3.204c0.048,0.703 0.197,1.515 -0.068,2.192c-0.341,0.874 -1.162,1.441 -2.005,1.771c-0.679,0.266 -3.807,0.235 -5.518,0.234c-0.521,-0 -1.407,-0.133 -2.36,-0.28l-0.068,-8.142l4.456,-6.282Z" style="fill-opacity:0.1;"/></g><g><path d="M269.307,182.06c-0.014,0.466 -0.395,0.828 -1.16,0.999l-51.181,11.436c-1.805,0.403 -5.072,-0.405 -7.292,-1.804l-29.196,-18.397c-1.353,-0.853 -2.007,-1.73 -1.901,-2.375c0.004,-0.023 0.008,-0.045 0.013,-0.067l0.236,-9.513l5.472,-8.435l1.837,-8.614l-0.422,-7.98l1.566,-7.598l46.031,9.256l2.112,-5.702l-0.593,-10.724l0.593,-6.416l31.756,5.599l0.429,12.176l-2.449,6.972l0.866,16.626l2.592,10.056l0.687,14.382c0.003,0.041 0.004,0.082 0.004,0.123Z" style="fill:#adadad;"/><path d="M266.062,157.646l2.49,9.663c-0.041,0.008 -0.082,0.019 -0.122,0.032c-0.974,0.325 -2.052,0.748 -3.098,0.748c-1.275,0 -1.222,-0.902 -1.923,-1.602c-0.26,-0.26 -1.02,-0.589 -1.495,-0.748c-0.448,-0.149 -1.036,0.115 -1.495,0c-0.821,-0.205 -1.467,-0.748 -2.35,-0.748c-0.501,0 -1.032,0.107 -1.496,0.107c-0.259,0 -0.748,0.214 -0.748,0.214c0,-0 0.84,-0.527 1.282,-0.748c0.686,-0.342 1.849,-0.89 2.839,-1.22c2.376,-0.792 2.967,-2.343 4.425,-3.8c0.575,-0.576 1.097,-1.265 1.691,-1.898Zm1.536,-23.719l-2.383,6.784c-0.636,0.066 -1.263,0.165 -1.912,0.247c-1.058,0.132 -2.051,0.582 -3.098,0.32c-0.298,-0.074 -0.796,0.136 -1.068,0c-0.601,-0.3 -1.298,-0.885 -2.03,-1.068c-0.778,-0.195 -1.449,-0.397 -2.136,-0.855c-0.409,-0.272 -1.844,-0.376 -2.03,-0.747c-0.166,-0.333 1.581,-0.534 1.923,-0.534c1.525,-0 3.707,-0.488 5.127,-0.962c0.459,-0.153 1.306,0.083 1.602,-0.213c1.068,-1.067 3.068,-1.168 4.487,-2.137c0.493,-0.337 0.985,-0.611 1.518,-0.835Zm-19.217,7.379c0.023,0.716 0.08,1.399 0.181,2.002c0.24,1.443 0.14,2.944 0.427,4.379c0.361,1.807 0.949,3.582 1.389,5.341c0.556,2.227 0.249,4.807 0.961,6.943c0.107,0.32 -0.082,0.74 0,1.068c0.489,1.958 -0.011,4.283 0.214,6.302c0.41,3.693 0.055,7.401 0.32,11.109c0.194,2.718 0.191,5.465 0.159,8.21l-35.066,7.835c-1.805,0.403 -5.072,-0.405 -7.292,-1.804l-29.196,-18.397c-1.353,-0.853 -2.007,-1.73 -1.901,-2.375c0.004,-0.023 0.008,-0.045 0.013,-0.067l0.236,-9.513l5.472,-8.435l1.837,-8.614l-0.422,-7.98l1.566,-7.598l46.031,9.256l2.112,-5.702l-0.209,-3.774c0.096,0.16 0.199,0.316 0.317,0.464c0.964,1.205 1.899,2.837 2.564,4.165c0.257,0.515 0.477,1.681 0.961,1.923c3.129,1.564 6.379,3.184 9.326,5.262Zm-13.325,-14.655l-0.227,-4.109l0.072,-0.785c0.229,0.1 0.469,0.223 0.736,0.401c0.662,0.441 0.884,1.243 1.602,1.602c1.305,0.653 1.437,1.68 2.564,2.243c1.477,0.739 2.823,2.091 4.166,3.098c1.153,0.865 2.185,1.244 3.204,1.923c0.805,0.536 1.521,1.112 2.251,1.642l-0.008,0.067c-0.132,1.194 -0.579,2.349 -0.747,3.525c-0.121,0.845 -0.218,1.847 -0.267,2.875c-0.825,-0.583 -1.745,-0.97 -2.617,-1.487c-1.819,-1.077 -3.632,-2.456 -5.341,-3.738c-0.433,-0.325 -1.351,-0.389 -1.602,-0.641c-1.03,-1.029 -1.959,-3.452 -2.885,-5.02c-0.287,-0.488 -0.553,-1.083 -0.901,-1.596Z" style="fill:#a1a1a1;"/><path d="M257.31,184.74c-0.015,0.467 -0.395,0.829 -1.161,1l-39.183,8.755c-1.805,0.403 -5.072,-0.405 -7.292,-1.804l-29.196,-18.397c-1.353,-0.853 -2.007,-1.73 -1.901,-2.375c0.004,-0.023 0.008,-0.045 0.013,-0.067l0.236,-9.513l5.472,-8.435l1.837,-8.614l-0.422,-7.98l1.566,-7.598l55.332,11.126l2.218,11.329l7.912,7.501l2.127,14.952l2.173,3.345l0.264,6.653c0.003,0.041 0.005,0.082 0.005,0.122Z" style="fill:#adadad;"/><path d="M244.793,151.984l0.036,0.183l7.858,7.449c-1.199,0.363 -2.358,0.579 -3.734,1.038c-1.361,0.454 -3.005,0.862 -4.273,1.496c-0.883,0.441 -2.657,-0.163 -3.632,-0c-2.659,0.443 -5.037,0.29 -7.37,1.068c-1.833,0.611 -3.631,1.623 -5.448,2.35c-0.19,0.076 -1.658,0.692 -1.816,0.534c-0.135,-0.136 0.818,-0.545 0.962,-0.641c0.734,-0.49 1.428,-1.178 2.136,-1.709c2.167,-1.625 3.091,-2.775 5.661,-3.632c1.1,-0.366 2.241,-0.818 3.312,-1.175c0.563,-0.188 1.63,-0.349 2.029,-0.748c1.335,-1.334 2.573,-3.929 3.952,-5.768c0.073,-0.097 0.19,-0.262 0.327,-0.445Zm10.017,22.224l0.058,0.412l2.146,3.304c-0.891,0.56 -1.763,1.158 -2.721,1.637c-0.942,0.471 -1.845,0.655 -2.67,1.068c-0.422,0.211 -1.209,0.107 -1.709,0.107c-1.375,-0 -3.043,-0.268 -4.38,-0c-1.096,0.219 -2.287,0.427 -3.418,0.427c-0.221,-0 -1.247,-0.141 -1.388,-0c-0.391,0.391 -1.501,0.536 -2.137,0.748c-1.419,0.473 -2.858,1.162 -4.165,1.816c-1.444,0.721 -3.172,1.141 -4.166,2.136c-0.194,0.194 -0.9,0.045 -1.069,0.214c-0.29,0.29 -0.657,0.008 -1.068,0.213c-0.981,0.491 -2.681,0.214 -3.738,0.214c-0.677,-0 -1.363,-0.187 -2.03,-0.321c-0.279,-0.056 -0.854,0 -0.854,0c-0,0 0.352,-0.106 0.534,-0.106c0.121,-0 0.641,-0.161 0.854,-0.214c0.961,-0.24 1.972,-0.92 2.991,-1.175c2.796,-0.699 5.257,-1.895 8.225,-2.884c1.433,-0.478 2.742,-1.235 4.166,-1.709c0.505,-0.168 1.515,-0.341 1.816,-0.641c0.186,-0.187 1.023,-0.021 1.282,-0.107c1.343,-0.448 2.965,-0.405 4.379,-0.641c0.986,-0.164 2.098,-0.427 3.098,-0.427c0.174,-0 1.151,0.131 1.282,-0c0.46,-0.46 1.17,-0.958 1.815,-1.389c1.008,-0.671 1.979,-1.714 2.867,-2.682Zm-69.085,-36.666l-0.012,-0.232l1.566,-7.598l29.415,5.914l-0,5.908c-0,2.123 -0.265,4.194 -0.427,6.302c-0.235,3.055 0.165,6.158 -0.214,9.186c-0.031,0.248 -0.055,0.496 -0.074,0.746c-1.562,-0.939 -3.085,-1.886 -4.412,-2.882c-1.301,-0.975 -3.126,-1.253 -4.487,-2.136c-1.562,-1.015 -3.61,-1.209 -5.234,-2.137c-1.379,-0.788 -3.487,-1.884 -4.486,-2.884c-1.486,-1.485 -3.321,-3.345 -5.127,-4.7c-0.888,-0.665 -1.799,-1.332 -2.671,-2.029c-0.776,-0.621 -1.326,-1.529 -2.136,-2.137c-0.665,-0.499 -1.218,-0.902 -1.701,-1.321Zm29.193,49.092c0.01,0.353 0.029,0.702 0.067,1.045c0.254,2.29 0.354,4.606 0.529,6.909c-1.804,-0.094 -4.132,-0.821 -5.84,-1.897l-29.196,-18.397c-1.353,-0.853 -2.007,-1.73 -1.901,-2.375c0.004,-0.023 0.008,-0.045 0.013,-0.067l0.235,-9.483c0.445,0.25 0.887,0.463 1.231,0.635c2.236,1.118 4.615,2.553 6.622,4.059c3.106,2.329 7.141,4.478 9.934,5.875c0.603,0.301 1.178,0.749 1.816,0.961c0.842,0.281 1.932,1.582 2.671,2.137c0.774,0.58 1.575,1.128 2.35,1.709c0.661,0.496 1.201,1.295 1.816,1.602c0.474,0.237 0.844,0.951 1.174,1.282c0.701,0.7 1.258,1.544 2.03,2.243c0.868,0.785 2,1.573 2.67,2.243c0.3,0.3 1.575,0.383 2.03,0.534c0.611,0.204 1.185,0.638 1.749,0.985Zm-30.522,-33.188l1.695,-7.948c0.234,0.25 0.466,0.497 0.694,0.736c0.952,0.999 2.552,1.852 3.312,2.991c0.421,0.632 0.98,1.301 1.495,1.816c1.247,1.247 2.752,2.494 3.845,3.952c0.954,1.271 2.015,2.869 2.991,3.845c0.484,0.484 0.835,1.272 1.496,1.602c1.065,0.533 2.115,1.165 3.204,1.71c2.488,1.243 5.032,1.934 6.73,3.631c1.203,1.204 1.681,3.354 2.35,4.914c0.522,1.218 1.317,2.249 1.922,3.418c0.17,0.327 0.317,0.632 0.452,0.918c-0.089,0.792 -0.188,1.59 -0.332,2.33c-1.713,-1.166 -2.854,-2.593 -4.499,-3.141c-3.843,-1.281 -8.099,-1.981 -11.536,-4.273c-1.129,-0.752 -2.047,-1.895 -2.991,-3.311c-0.22,-0.33 -0.676,-0.687 -0.962,-0.962c-0.458,-0.44 -0.923,-1.17 -1.281,-1.709c-0.694,-1.04 -1.837,-1.839 -2.671,-2.777c-0.575,-0.647 -0.962,-1.363 -1.495,-2.029c-1.368,-1.709 -2.57,-3.506 -3.953,-5.234c-0.124,-0.156 -0.286,-0.316 -0.466,-0.479Z" style="fill:#a1a1a1;"/><path d="M253.87,113.144c-0.95,-0.598 -2.348,-0.944 -3.12,-0.772l-14.832,3.314c-0.772,0.173 -0.627,0.799 0.322,1.397l12.49,7.87c0.95,0.599 2.347,0.944 3.119,0.772l14.832,-3.314c0.772,-0.173 0.628,-0.798 -0.322,-1.397l-12.489,-7.87Z" style="fill:#b5b5b5;"/><path d="M218.907,124.905c-1.693,-1.067 -4.186,-1.683 -5.562,-1.376l-25.226,5.637c-1.377,0.307 -1.12,1.423 0.574,2.491l22.273,14.034c1.693,1.067 4.185,1.684 5.562,1.376l25.226,-5.636c1.377,-0.308 1.119,-1.424 -0.574,-2.491l-22.273,-14.035Z" style="fill:#b5b5b5;"/><path d="M269.097,177.636l0.206,4.301c0.003,0.041 0.004,0.082 0.004,0.123c-0.014,0.466 -0.395,0.828 -1.16,0.999l-51.181,11.436c-1.805,0.403 -5.072,-0.405 -7.292,-1.804l-29.196,-18.397c-1.353,-0.853 -2.007,-1.73 -1.901,-2.375c0.004,-0.023 0.008,-0.045 0.013,-0.067l0.108,-4.351c0.323,0.35 0.772,0.714 1.343,1.074l29.82,18.79c2.267,1.429 5.604,2.254 7.447,1.842l51.789,-11.571Z" style="fill:#878787;"/></g><g><path d="M216.648,137.795c-1.761,-0.046 -11.346,-2.881 -12.15,-3.423c-0.593,-0.401 -1.167,-0.822 -1.707,-1.294c-1.436,-1.255 -2.057,-1.994 -3.384,-3.366c-0.597,-0.617 -0.41,-2.702 -0.372,-3.598c0.082,-1.945 2.079,-3.58 3.071,-5.125c0.997,-1.552 1.812,-3.028 3.588,-3.749c2.768,-1.124 4.895,-0.383 7.624,0.307c2.556,0.647 4.643,1.061 6.808,2.665c1.079,0.8 1.731,1.797 2.464,2.893c0.609,0.909 1.324,1.74 1.9,2.675c0.91,1.478 1.596,3.081 2.528,4.558c0.753,1.192 1.512,2.792 0.976,4.216c-0.414,1.1 -2.517,1.724 -3.494,2.172c-1.466,0.671 -2.856,1.242 -4.488,1.31c-1.112,0.046 -2.249,-0.211 -3.364,-0.241Z" style="fill:#a5a39d;"/><path d="M228.17,133.703c-0.016,0.287 -0.071,0.572 -0.176,0.851c-0.414,1.1 -2.517,1.724 -3.494,2.172c-1.466,0.671 -2.856,1.242 -4.488,1.31c-1.112,0.046 -2.249,-0.211 -3.364,-0.241c-1.761,-0.046 -11.346,-2.881 -12.15,-3.423c-0.593,-0.401 -1.167,-0.822 -1.707,-1.294c-1.436,-1.255 -2.057,-1.994 -3.384,-3.366c-0.597,-0.617 -0.41,-2.702 -0.372,-3.598c0.037,-0.889 0.475,-1.713 1.034,-2.493c-0.078,0.259 -0.127,0.525 -0.139,0.796c-0.037,0.896 -0.225,2.981 0.372,3.598c1.328,1.372 1.949,2.111 3.385,3.366c0.54,0.472 1.113,0.893 1.707,1.294c0.803,0.543 10.389,3.377 12.149,3.424c1.116,0.029 2.253,0.286 3.364,0.24c1.633,-0.068 3.023,-0.639 4.489,-1.31c0.693,-0.317 1.952,-0.724 2.774,-1.326Z" style="fill:#878787;"/><path d="M222.39,131.953c-1.803,-0.124 -8.737,-2.089 -10.525,-2.371c-0.956,-0.15 -1.86,-0.321 -2.749,-0.716c-1.179,-0.523 -2.716,-3.07 -3.065,-4.32c-0.257,-0.919 -1.088,-5.285 1.684,-6.127c2.355,-0.715 6.514,1.174 9.237,2.089c2.136,0.718 2.872,4.5 4.546,6.113c0.66,0.636 1.103,1.364 1.717,2.03c1.083,1.177 0.739,3.411 -0.845,3.302Z" style="fill:#aeaeae;"/></g><g><path d="M47.091,170.8c-0.82,0.258 -1.636,0.355 -2.488,0.237c-1.018,-0.141 -2.404,-0.137 -3.311,-0.696c-1.72,-1.059 -2.611,-3.545 -3.646,-5.203c-0.88,-1.412 -2.142,-3.046 -2.378,-4.734c-0.13,-0.929 0.197,-1.879 0.476,-2.755c0.598,-1.88 1.072,-3.617 3.109,-4.369c1.418,-0.523 3.098,-0.347 4.576,-0.611c1.085,-0.193 2.105,-0.626 3.196,-0.79c3.476,-0.521 6.638,0.093 9.516,2.196c1.204,0.88 1.358,3.191 1.516,4.513c0.114,0.95 0.116,1.912 0.126,2.867c0.009,0.942 0.076,2.056 -0.157,2.981c-0.607,2.405 -2.114,5.812 -4.241,6.182c-0.619,0.107 -5.696,-0.017 -6.294,0.182Z" style="fill:#a5a39d;"/><path d="M57.798,162.402c0.006,0.689 -0.014,1.405 -0.172,2.034c-0.607,2.405 -2.114,5.812 -4.241,6.182c-0.619,0.107 -5.696,-0.017 -6.294,0.182c-0.82,0.258 -1.636,0.355 -2.488,0.237c-1.018,-0.141 -2.404,-0.137 -3.311,-0.696c-1.72,-1.059 -2.611,-3.545 -3.646,-5.203c-0.88,-1.412 -2.142,-3.046 -2.378,-4.734c-0.119,-0.849 0.144,-1.715 0.403,-2.527c0.307,1.612 1.5,3.169 2.343,4.521c1.035,1.658 1.926,4.144 3.646,5.203c0.907,0.559 2.293,0.555 3.311,0.696c0.852,0.118 1.668,0.021 2.488,-0.237c0.598,-0.199 5.675,-0.075 6.294,-0.182c1.926,-0.335 3.343,-3.16 4.045,-5.476Z" style="fill:#878787;"/><path d="M54.667,154.491c0.278,0.278 0.529,0.61 0.776,0.916c0.204,0.254 0.496,0.634 0.49,0.982c-0.008,0.567 -0.783,0.978 -1.221,1.114c-1.53,0.474 -3.192,0.198 -4.733,0.593c-1.032,0.264 -2.059,0.625 -3.055,1.003c-0.815,0.309 -1.592,0.625 -2.466,0.721c-0.576,0.064 -1.239,0.105 -1.79,-0.114c-1.334,-0.529 -2.033,-1.866 -2.339,-3.163c-0.11,-0.468 -0.373,-0.994 -0.062,-1.435c0.703,-0.997 2.125,-0.876 3.18,-1.003c1.192,-0.143 2.244,-0.801 3.437,-0.934c0.881,-0.099 1.83,-0.109 2.691,0.108c0.717,0.179 1.425,0.399 2.152,0.527c0.239,0.041 2.468,0.214 2.94,0.685Z" style="fill:#aeaeae;"/><path d="M57.766,160.24c0.01,0.406 0.013,0.811 0.017,1.215c0.009,0.942 0.076,2.056 -0.157,2.981c-0.607,2.405 -2.114,5.812 -4.241,6.182c-0.619,0.107 -5.696,-0.017 -6.294,0.182c-0.82,0.258 -1.636,0.355 -2.488,0.237c-0.085,-0.012 -0.237,0.054 -0.262,-0.033c-0.763,-2.645 0.069,-6.074 0.657,-7.05c0.803,-1.333 3.977,-3.348 5.512,-3.889c3.042,-1.073 6.766,-0.036 7.256,0.175Z" style="fill:#6e6e6e;fill-opacity:0.25;"/></g><g><path d="M50.873,175.616c-4.398,-1.291 -6.157,-4.425 -5.282,-8.845c0.181,-0.914 0.409,-2.065 1.006,-2.815c1.749,-2.197 5.336,-3.302 8.071,-3.189c3.281,0.136 5.195,3.532 7.353,5.532c1.07,0.992 2.518,1.916 3.097,3.311c0.517,1.244 0.243,2.734 -0.552,3.814c-2.15,2.92 -10.479,1.934 -13.693,2.192Z" style="fill:#a5a39d;"/><path d="M65.279,170.1c0.277,1.13 -0.02,2.383 -0.713,3.324c-2.15,2.92 -10.479,1.934 -13.693,2.192c-3.994,-1.172 -5.811,-3.864 -5.457,-7.658c0.297,2.865 2.115,4.91 5.457,5.891c3.214,-0.258 11.543,0.729 13.693,-2.192c0.34,-0.461 0.584,-0.997 0.713,-1.557Z" style="fill:#878787;"/><path d="M62.375,171.228c-1.637,2.224 -15.117,-1.7 -14.451,-5.066c0.138,-0.696 0.312,-1.573 0.767,-2.144c1.332,-1.673 4.063,-2.514 6.146,-2.428c2.498,0.103 3.957,2.689 5.6,4.213c0.815,0.755 1.918,1.459 2.358,2.521c0.394,0.948 0.185,2.082 -0.42,2.904Z" style="fill:#aeaeae;"/></g></g><path d="M158.7,179.788c8.306,-1.854 14.171,-10.561 22.751,-9.899c3.898,0.3 13.56,12.723 17.501,16.188l-40.252,-6.289Z" style="fill:#f9e594;"/><path d="M83.701,208.535c-0.078,-0.064 -0.09,-0.18 -0.025,-0.259c0.064,-0.078 0.18,-0.09 0.259,-0.025c1.797,1.283 3.745,2.26 5.774,3.109c3.067,1.282 6.276,2.233 9.372,3.36c3.391,1.269 6.846,2.569 10.341,3.727c2.27,0.752 4.544,1.449 6.853,1.932c2.526,0.555 5.008,0.87 7.484,1.074c1.907,0.157 3.814,0.172 5.732,0.278c1.927,0.106 3.85,0.317 5.826,0.436c1.957,0.25 3.866,0.467 5.831,0.412c1.981,-0.055 3.948,-0.365 5.934,-0.541c1.667,-0.123 3.352,-0.444 5.063,-0.612c1.767,-0.173 3.49,-0.183 5.222,-0.221c-1.971,0.637 -3.88,1.472 -5.92,2.048c-1.363,0.385 -2.76,0.59 -4.124,0.798l-11.989,2.089c-2.024,0.14 -4.001,0.33 -5.98,0.327c-1.35,-0.002 -2.691,-0.119 -4.029,-0.235c-3.345,-0.292 -6.667,-0.824 -10.052,-1.719c-2.436,-0.673 -4.846,-1.513 -7.198,-2.528c-3.434,-1.483 -6.739,-3.267 -10.019,-4.932c-2.94,-1.525 -6.02,-2.885 -8.908,-4.568c-1.949,-1.135 -3.794,-2.399 -5.447,-3.95Zm54.297,23.189c-0.099,0.006 -0.183,-0.069 -0.19,-0.167c-0.006,-0.098 0.069,-0.183 0.167,-0.189c0.383,-0.164 0.682,-0.36 1.089,-0.453c2.58,-0.588 5.331,-0.005 7.946,-0.416c0.662,-0.104 1.278,-0.314 1.922,-0.493c1.652,-0.447 3.206,-1.069 4.883,-1.506c3.068,-0.801 6.207,-1.426 9.312,-1.986c0.796,-0.144 1.595,-0.225 2.391,-0.33c2.064,-0.241 4.109,-0.03 6.179,-0.112c0.795,-0.031 1.588,-0.133 2.379,-0.296c3.15,-0.641 5.817,-2.369 8.839,-3.328c0.872,-0.277 1.647,-0.251 2.557,-0.401c0.01,-0.006 0.024,-0.002 0.03,0.009c0.006,0.01 0.002,0.024 -0.008,0.03c-0.604,0.706 -1.007,1.372 -1.709,1.967c-0.634,0.538 -1.4,0.885 -2.125,1.281c-2.213,1.208 -4.548,2.136 -7.042,2.762l-8.433,1.474c-0.766,0.202 -1.523,0.438 -2.301,0.618c-3.109,0.72 -6.275,1.462 -9.468,1.752c-1.778,0.162 -3.503,0.051 -5.265,-0.015c-0.691,-0.03 -1.354,-0.121 -2.047,-0.128c-2.658,-0.03 -5.349,0.589 -7.984,0.256c-0.411,-0.052 -0.725,-0.217 -1.122,-0.329Zm-86.564,-43.148c0.023,0.011 0.034,0.039 0.024,0.062c-0.011,0.024 -0.039,0.035 -0.063,0.024c-0.529,-0.067 -1.003,-0.065 -1.52,-0.196c-4.346,-1.102 -8.351,-3.265 -12.167,-5.533c-2.895,-1.721 -5.55,-3.808 -7.909,-6.358c-1.05,-1.43 -2.425,-3.184 -3.274,-5.085c-0.487,-1.091 -1.04,-2.192 -0.891,-3.262c0.055,-0.389 0.19,-0.56 0.368,-0.898c-0.009,-0.101 0.065,-0.191 0.166,-0.2c0.101,-0.01 0.191,0.065 0.2,0.166c0.216,0.27 0.419,0.332 0.614,0.63c0.499,0.762 0.888,1.622 1.485,2.433c1.14,1.549 2.548,3.018 3.707,4.177c1.998,2.509 4.338,4.561 6.856,6.387c3.513,2.547 7.612,4.201 11.243,6.653c0.442,0.298 0.757,0.653 1.161,1Zm147.066,-2.436c-0.196,-0.12 -0.257,-0.376 -0.137,-0.571c0.12,-0.196 0.376,-0.257 0.571,-0.137c1.71,0.945 3.277,2.12 5.021,2.992c1.088,0.544 2.234,0.73 3.322,1.278c0.679,0.341 1.281,0.819 1.931,1.214c1.391,0.855 2.877,1.665 4.441,2.202c0.258,0.088 0.51,0.204 0.779,0.24c0.424,0.059 0.806,-0.063 1.231,-0.107l4.942,-0.739c1.261,-0.137 2.545,-0.296 3.821,-0.507c1.24,-0.204 2.473,-0.452 3.664,-0.775l8.557,-2.589c2.822,-0.745 5.615,-1.635 8.465,-2.28c1.248,-0.282 2.5,-0.477 3.76,-0.683c1.567,-0.237 3.141,-0.327 4.72,-0.543c1.507,-0.205 2.992,-0.533 4.451,-0.913l9.768,-2.92c0.853,-0.28 1.707,-0.563 2.584,-0.748c1.285,-0.27 2.571,-0.38 3.853,-0.689c0.29,-0.108 0.613,0.04 0.721,0.33c0.108,0.29 -0.04,0.613 -0.33,0.72c-1.005,0.535 -1.996,1.028 -3.06,1.418c-1.01,0.371 -2.058,0.625 -3.068,0.999l-9.807,3.239c-1.799,0.558 -3.673,0.885 -5.509,1.37c-1.186,0.314 -2.322,0.727 -3.467,1.146l-11.825,3.915l-8.496,2.861c-1.074,0.321 -2.18,0.588 -3.298,0.821c-1.628,0.338 -3.283,0.593 -4.901,0.81c-1.159,0.078 -2.396,0.24 -3.603,0.106c-0.905,-0.1 -1.741,-0.304 -2.56,-0.61c-0.5,-0.23 -0.923,-0.482 -1.429,-0.699c-1.054,-0.454 -2.18,-0.746 -3.218,-1.257c-0.956,-0.471 -1.88,-1.006 -2.768,-1.559c-0.67,-0.422 -1.382,-0.787 -1.985,-1.296c-0.941,-0.794 -1.544,-1.804 -2.456,-2.63c-1.433,-1.297 -3.082,-2.321 -4.685,-3.409Zm-10.978,23.358c-0.138,0.061 -0.299,-0.002 -0.36,-0.14c-0.06,-0.138 0.002,-0.299 0.14,-0.36c0.645,-0.338 1.202,-0.787 1.722,-1.288c0.809,-0.778 1.506,-1.675 2.258,-2.486c0.485,-0.559 0.902,-1.145 1.316,-1.747c0.99,-1.442 1.814,-2.962 2.691,-4.485l2.757,-3.498c0.457,-0.604 0.803,-1.323 0.934,-2.134c0.173,-1.073 -0.15,-2.237 0.037,-3.269c0.061,-0.336 0.217,-0.567 0.342,-0.863c0.013,-0.408 0.354,-0.728 0.761,-0.716c0.408,0.013 0.728,0.354 0.716,0.761c0.095,0.33 0.261,0.606 0.304,0.969c0.092,0.781 -0.173,1.601 -0.208,2.419c-0.024,0.583 0.01,1.153 -0.039,1.714c-0.077,0.88 -0.308,1.693 -0.664,2.443c-0.215,0.451 -0.44,0.887 -0.711,1.303c-0.576,0.879 -1.294,1.656 -1.898,2.518c-0.826,0.987 -1.606,1.993 -2.475,2.933c-0.9,0.973 -1.85,1.863 -2.932,2.658c-0.876,0.696 -1.718,1.477 -2.642,2.139c-0.639,0.457 -1.303,0.861 -2.049,1.129Z" style="fill:#fff;"/></g></g></svg>