<?xml version="1.0" encoding="UTF-8" standalone="no"?><!DOCTYPE svg PUBLIC "-//W3C//DTD SVG 1.1//EN" "http://www.w3.org/Graphics/SVG/1.1/DTD/svg11.dtd"><svg width="100%" height="100%" viewBox="0 0 300 300" version="1.1" xmlns="http://www.w3.org/2000/svg" xmlns:xlink="http://www.w3.org/1999/xlink" xml:space="preserve" xmlns:serif="http://www.serif.com/" style="fill-rule:evenodd;clip-rule:evenodd;stroke-linejoin:round;stroke-miterlimit:2;"><g id="_250" serif:id="250"><g id="_8" serif:id="8"><g><g><path d="M77.233,213.282c-0.888,-1.035 -2.631,-4.119 -6.083,-5.806c-3.696,-1.807 -9.137,-2.194 -10.857,-2.405c-20.212,-2.476 -35.293,-12.046 -35.293,-23.459c-0,-13.292 20.452,-24.083 45.644,-24.083c25.191,-0 45.644,10.791 45.644,24.083c-0,2.796 -0.905,5.482 -2.57,7.979c14.489,1.691 25.341,8.514 25.341,16.664c0,9.419 -14.493,17.066 -32.345,17.066c-13.106,0 -24.401,-4.121 -29.481,-10.039Zm115.952,-43.062c-12.552,-4.05 -20.935,-11.35 -20.935,-19.674c-0,-12.719 19.571,-23.045 43.678,-23.045c24.106,-0 43.678,10.326 43.678,23.045c-0,1.436 -0.25,2.841 -0.727,4.204c-2.068,5.77 0.157,12.203 5.349,15.461c6.714,4.281 10.772,9.75 10.772,15.714c0,13.491 -20.758,24.443 -46.327,24.443c-25.568,0 -46.327,-10.952 -46.327,-24.443c0,-5.977 4.076,-11.456 10.839,-15.705Z" style="fill:#f9e594;"/><path d="M77.233,213.282c-0.888,-1.035 -2.631,-4.119 -6.083,-5.806c-3.696,-1.807 -9.137,-2.194 -10.857,-2.405c-20.212,-2.476 -35.293,-12.046 -35.293,-23.459c-0,-13.292 20.452,-24.083 45.644,-24.083c25.191,-0 45.644,10.791 45.644,24.083c-0,2.796 -0.905,5.482 -2.57,7.979c14.489,1.691 25.341,8.514 25.341,16.664c0,9.419 -14.493,17.066 -32.345,17.066c-13.106,0 -24.401,-4.121 -29.481,-10.039Zm1.544,-0.066c4.544,5.293 15.455,4.973 27.177,4.973c9.748,0 20.686,1.122 26.045,-2.734c2.734,-1.967 6.022,-6.575 6.022,-9.2c0,-2.195 -1.635,-5.438 -3.662,-7.183c-4.04,-3.479 -13.322,-4.638 -21.1,-5.545c-1.369,-0.16 -2.557,-1.02 -3.136,-2.271c-0.58,-1.252 -0.467,-2.714 0.298,-3.861c1.209,-1.815 1.905,-3.753 1.905,-5.783c-0,-4.173 -2.816,-7.875 -7.164,-11.003c-7.779,-5.599 -20.6,-11.926 -34.752,-11.926c-14.152,0 -26.505,6.327 -34.284,11.926c-4.348,3.128 -9.387,6.362 -9.387,10.535c0,3.504 4.246,7.158 7.462,9.952c5.81,5.048 14.833,10.722 26.047,12.097c1.923,0.235 7.985,0.757 12.116,2.777c4.106,2.008 5.356,6.015 6.413,7.246Zm114.408,-42.996c-12.552,-4.05 -20.935,-11.35 -20.935,-19.674c-0,-12.719 19.571,-23.045 43.678,-23.045c24.106,-0 43.678,10.326 43.678,23.045c-0,0.842 -0.086,1.674 -0.254,2.494c-1.416,7.046 1.362,14.277 7.132,18.563c5.324,4.133 8.516,9.032 8.516,14.322c0,13.491 -20.758,24.443 -46.327,24.443c-25.568,0 -46.327,-10.952 -46.327,-24.443c0,-5.977 4.076,-11.456 10.839,-15.705Zm2.107,3.355c-5.412,3.401 -11.469,7.859 -11.469,12.643c-0,4.252 2.865,8.027 7.295,11.215c7.904,5.688 23.177,8.973 37.555,8.973c14.379,-0 28.701,-1.384 36.605,-7.072c4.43,-3.188 8.538,-8.864 8.538,-13.116c0,-4.18 -5.534,-8.197 -9.723,-11.455c-6.982,-5.204 -8.002,-13.965 -6.286,-22.504l0.003,-0.013c0.114,-0.558 0.173,-1.126 0.173,-1.7c0,-3.944 -4.722,-8.092 -8.831,-11.049c-2.854,-2.054 -6.124,-4.706 -10.106,-6.653c-6.372,-3.116 -15.102,-4.013 -23.411,-4.013c-13.501,-0 -25.217,5.984 -32.639,11.324c-4.109,2.957 -6.784,6.447 -6.784,10.391c-0,3.129 1.726,5.989 4.481,8.524c3.305,3.04 8.049,5.553 13.708,7.379c1.466,0.473 2.524,1.752 2.715,3.279c0.191,1.528 -0.52,3.028 -1.824,3.847Z" style="fill:#dfc86d;"/></g><g><path d="M232.928,176.672c-0.081,0.681 -0.68,1.207 -1.826,1.463l-75.498,16.869c-1.682,0.376 -4.168,0.086 -6.644,-0.668l-39.004,8.715c-2.459,0.55 -6.912,-0.552 -9.937,-2.458l-39.791,-25.073c-1.755,-1.106 -2.646,-2.241 -2.606,-3.107l-12.015,-21.867l198.753,4.21l-11.432,21.916Z" style="fill:#ab6638;"/><path d="M115.435,201.827l-5.479,1.224l-5.165,-18.684l5.503,-1.23c0.08,0.311 0.166,0.621 0.257,0.928c0.438,1.481 0.999,2.924 1.678,4.33c0.264,0.561 0.593,1.082 0.854,1.638c0.174,0.371 0.289,0.749 0.433,1.131c0.33,0.873 0.583,1.735 0.682,2.693c0.433,1.97 0.719,3.955 0.983,5.946c0.089,0.674 0.174,1.349 0.254,2.024Zm-4.397,-18.856l6.941,-1.551c-0.106,1.529 -0.061,3.189 0.127,4.837c0.118,1.033 0.269,2.067 0.513,3.049c0.172,0.69 0.394,1.348 0.621,1.98c0.196,0.496 0.382,0.995 0.658,1.452c0.38,0.631 0.856,1.122 1.204,1.771c0.232,0.522 0.467,1.028 0.642,1.59c0.113,0.363 0.201,0.734 0.273,1.113c0.191,1.002 0.316,2.029 0.425,3.049l-4.136,0.925c-0.093,-0.61 -0.194,-1.219 -0.304,-1.826c-0.373,-2.058 -0.865,-4.09 -1.46,-6.105c-0.253,-0.652 -0.525,-1.264 -0.905,-1.824c-0.424,-0.625 -0.942,-1.129 -1.401,-1.731c-0.419,-0.551 -0.767,-1.154 -1.114,-1.761c-0.719,-1.331 -1.329,-2.7 -1.811,-4.115c-0.096,-0.283 -0.187,-0.567 -0.273,-0.853Zm10.094,-2.255l11.436,-2.556c0.033,0.364 0.065,0.728 0.096,1.093c0.117,1.405 0.304,2.818 0.273,4.232c-0.025,1.152 -0.288,2.239 -0.405,3.378c-0.075,0.736 -0.105,1.469 -0.187,2.2c-0.059,0.793 -0.214,1.577 -0.273,2.373c-0.041,0.549 -0.033,1.094 -0.022,1.645c0.003,0.122 -0.002,0.24 0.021,0.36c0.107,0.566 0.304,0.946 0.494,1.488c-0.022,0.237 0.152,0.447 0.389,0.469c0.237,0.022 0.447,-0.152 0.469,-0.388c0.282,-0.489 0.572,-0.8 0.793,-1.322c0.125,-0.294 0.169,-0.606 0.243,-0.917c0.083,-0.35 0.167,-0.697 0.215,-1.053c0.117,-0.847 0.116,-1.704 0.122,-2.555c-0.024,-0.778 -0.033,-1.556 -0.136,-2.333c-0.155,-1.164 -0.524,-2.249 -0.715,-3.416c-0.23,-1.403 -0.31,-2.828 -0.455,-4.238c-0.041,-0.399 -0.079,-0.798 -0.114,-1.196l7.241,-1.618c-0.023,0.098 -0.043,0.197 -0.061,0.297c-0.062,0.339 -0.077,0.683 -0.102,1.025c-0.15,2.017 0.124,4.032 0.122,6.062c-0.002,1.296 -0.182,2.544 -0.447,3.82c-0.094,0.52 -0.285,0.998 -0.46,1.491c-0.129,0.363 -0.28,0.714 -0.419,1.074c-0.355,0.92 -0.718,1.842 -1.059,2.759c-0.485,1.349 -0.964,2.737 -1.335,4.151l-13.741,3.07c-0.107,-1.003 -0.207,-2.016 -0.31,-3.014c-0.04,-0.394 -0.076,-0.782 -0.097,-1.172c-0.034,-0.618 -0.039,-1.205 -0.089,-1.805c-0.017,-0.274 -0.073,-0.529 -0.098,-0.802c-0.038,-0.413 -0.027,-0.781 -0.101,-1.191c-0.102,-0.566 -0.294,-1.101 -0.394,-1.667c-0.137,-0.583 -0.232,-1.194 -0.348,-1.817c-0.166,-0.896 -0.337,-1.818 -0.447,-2.748c-0.184,-1.569 -0.254,-3.148 -0.147,-4.585c0.013,-0.195 0.03,-0.393 0.048,-0.594Zm20.385,-4.555l2.212,-0.494c0,0.295 0,0.59 -0.001,0.886c-0.004,0.745 0.008,1.489 0.061,2.234c0.035,0.489 0.092,0.974 0.162,1.457c0.275,1.88 0.756,3.723 0.913,5.616c0.091,1.078 0.129,2.195 0.141,3.326c0.021,2.026 -0.044,4.092 -0.055,6.046l-4.092,0.914c0.214,-0.701 0.443,-1.394 0.679,-2.076c0.38,-1.18 0.885,-2.341 1.157,-3.556c0.204,-0.914 0.297,-1.833 0.253,-2.777c-0.125,-1.593 -0.503,-3.088 -0.813,-4.647c-0.194,-0.977 -0.317,-1.963 -0.439,-2.948c-0.139,-1.128 -0.17,-2.255 -0.171,-3.396c0,-0.196 -0.004,-0.391 -0.007,-0.585Zm3.266,-0.73l4.303,-0.961c2.812,0.856 5.635,1.185 7.545,0.758l7.61,-1.7c-0.103,0.519 -0.18,1.04 -0.222,1.577c-0.113,1.43 -0.049,2.863 0.019,4.31c0.063,1.327 0.183,2.654 0.071,3.996c-0.012,0.507 -0.109,1 -0.251,1.489c-0.415,1.423 -1.103,2.804 -1.441,4.217c-0.182,1.029 -0.229,2.065 -0.288,3.133c-0.024,0.439 -0.058,0.878 -0.091,1.316l-6.434,1.438c-1.682,0.376 -4.168,0.086 -6.644,-0.668l-3.116,0.696c0.029,-1.896 0.105,-3.893 0.101,-5.852c-0.003,-1.154 -0.033,-2.296 -0.117,-3.397c-0.147,-1.913 -0.618,-3.779 -0.884,-5.681c-0.064,-0.459 -0.116,-0.921 -0.148,-1.386c-0.076,-1.094 -0.031,-2.19 -0.013,-3.285Zm20.951,-2.237l2.947,-0.658c0.032,0.305 0.066,0.609 0.079,0.912c0.03,0.662 0.165,1.287 0.217,1.945c0.035,0.438 0.028,0.877 0.067,1.315c0.105,1.872 0.399,3.747 0.544,5.625c0.061,0.784 0.108,1.566 0.079,2.353c-0.051,0.953 -0.142,1.952 -0.279,2.957c-0.206,1.512 -0.488,3.036 -0.748,4.448l-5.298,1.184c0.053,-0.376 0.117,-0.749 0.209,-1.116c0.211,-0.848 0.539,-1.632 0.899,-2.408c0.156,-0.369 0.36,-0.717 0.552,-1.08c0.497,-0.939 1.028,-1.884 1.429,-2.861c0.292,-0.71 0.485,-1.444 0.57,-2.204c0.072,-1.21 0.05,-2.413 -0.094,-3.602c-0.137,-1.135 -0.359,-2.25 -0.566,-3.367c-0.134,-0.727 -0.27,-1.437 -0.389,-2.163c-0.072,-0.433 -0.156,-0.854 -0.218,-1.28Zm5.304,-1.185l12.056,-2.694c0.242,1.291 0.515,2.706 0.707,4.128c0.179,1.317 0.273,2.639 0.239,3.855c-0.004,0.418 -0.104,0.816 -0.209,1.215c-0.364,1.386 -0.936,2.748 -1.073,4.175c-0.159,2.081 -0.267,4.197 -0.312,6.318l-13.044,2.915c0.195,-1.019 0.402,-2.091 0.596,-3.168c0.243,-1.352 0.471,-2.711 0.596,-3.996c0.097,-0.824 0.133,-1.65 0.117,-2.479c-0.036,-1.876 -0.3,-3.753 -0.337,-5.621c0.004,-0.391 0,-0.784 0.054,-1.173c0.084,-0.611 0.3,-1.17 0.411,-1.779c0.103,-0.561 0.16,-1.127 0.199,-1.696Zm15.358,-3.431l2.406,-0.538c0.038,0.764 0.087,1.5 0.16,2.235c0.082,0.835 0.194,1.67 0.363,2.547c0.131,0.808 0.351,1.55 0.448,2.304c0.073,0.568 0.013,1.107 0.02,1.684c0.007,0.502 0.012,1.008 -0.049,1.551c-0.079,1.475 -0.09,2.996 -0.205,4.492c-0.046,0.603 -0.105,1.202 -0.206,1.79c-0.159,0.939 -0.39,1.94 -0.567,2.951l-3.296,0.737c0.21,-1.747 0.446,-3.485 0.763,-5.189c0.246,-1.492 1.128,-2.836 1.43,-4.312c0.103,-0.503 0.143,-1.017 0.126,-1.539c-0.044,-1.393 -0.258,-2.894 -0.527,-4.393c-0.267,-1.49 -0.588,-2.976 -0.866,-4.32Zm3.488,-0.78l20.504,-4.581c-0.047,0.601 -0.078,1.203 -0.089,1.807c0.008,0.594 0.059,1.186 0.157,1.772c0.101,0.605 0.224,1.207 0.363,1.802c0.125,0.535 0.308,1.04 0.362,1.586c0.086,0.577 0.142,1.125 0.113,1.702c-0.067,1.334 -0.473,2.628 -0.336,3.96c0.017,0.167 0.061,0.3 0.103,0.463c-0.009,0.095 0.06,0.18 0.156,0.189c0.095,0.009 0.179,-0.06 0.189,-0.155c0.078,-0.166 0.166,-0.291 0.235,-0.46c0.586,-1.421 1.142,-2.805 1.637,-4.253c0.155,-0.452 0.268,-0.893 0.369,-1.364c0.105,-0.604 0.136,-1.198 0.117,-1.809c-0.016,-0.512 -0.083,-1.021 -0.156,-1.531c-0.095,-0.66 -0.231,-1.314 -0.251,-1.979c-0.057,-0.794 -0.068,-1.588 -0.053,-2.382l9.211,-2.058c-0.072,0.248 -0.143,0.497 -0.212,0.747c-0.358,1.293 -0.663,2.595 -0.824,3.77c-0.127,0.917 -0.194,1.833 -0.223,2.748c-0.107,3.406 0.349,6.801 -0.035,10.192c-0.1,0.887 -0.378,1.708 -0.662,2.527l-15.152,3.385c0.404,-1.889 0.992,-3.672 1.539,-5.52c0.08,-0.268 0.158,-0.539 0.217,-0.815c0.233,-1.107 0.351,-2.226 0.489,-3.402c0.113,-0.664 0.162,-1.321 0.176,-1.985c0.024,-1.169 -0.043,-2.328 0.074,-3.5c0.011,-0.113 0.037,-0.225 0.038,-0.339c0.002,-0.191 -0.042,-0.35 -0.054,-0.542c0.022,-0.081 -0.026,-0.165 -0.106,-0.187c-0.081,-0.022 -0.165,0.026 -0.187,0.107c-0.11,0.16 -0.215,0.284 -0.293,0.46c-0.107,0.239 -0.137,0.501 -0.194,0.755c-0.366,1.62 -0.422,3.269 -0.951,4.857c-0.421,1.08 -0.934,2.056 -1.304,3.1c-0.58,1.635 -0.946,3.295 -1.275,4.97c-0.163,0.832 -0.306,1.675 -0.397,2.539l-11.438,2.556c0.1,-0.633 0.204,-1.255 0.298,-1.851c0.135,-0.903 0.204,-1.826 0.214,-2.755c0.014,-1.307 -0.074,-2.622 -0.087,-3.906c-0.043,-0.682 -0.104,-1.319 -0.278,-1.921c-0.204,-0.709 -0.544,-1.314 -0.8,-2.001c-0.228,-0.61 -0.38,-1.256 -0.549,-1.932c-0.192,-0.831 -0.332,-1.624 -0.434,-2.418c-0.099,-0.77 -0.165,-1.542 -0.221,-2.348Zm40.405,-9.028l4.558,-1.018c-0.089,0.458 -0.146,0.932 -0.196,1.401c-0.073,0.692 -0.084,1.377 -0.022,2.011c0.109,1.014 0.333,1.912 0.424,2.844c0.054,0.555 0.053,1.123 -0.059,1.74c-0.105,0.531 -0.242,1.05 -0.436,1.549c-0.489,1.257 -1.194,2.394 -1.72,3.639c-0.366,0.949 -0.749,1.905 -1.057,2.905c-0.442,1.439 -0.779,2.925 -1.084,4.384l-3.997,0.894c0.26,-0.684 0.505,-1.379 0.745,-2.077c0.705,-2.047 1.223,-4.142 1.516,-6.193c0.05,-0.445 0.063,-0.89 0.05,-1.335c-0.041,-1.413 -0.408,-2.813 -0.23,-4.216c0.263,-2.28 1.217,-4.306 1.508,-6.528Zm5.417,-1.21l6.666,-1.49c0.918,-0.205 1.527,-0.562 1.838,-1.026l-9.4,18.019c0.09,-0.491 0.181,-0.978 0.285,-1.459l1.2,-5.651c0.1,-0.747 0.071,-1.428 -0.023,-2.091c-0.133,-0.932 -0.394,-1.826 -0.546,-2.84c-0.065,-0.425 -0.08,-0.879 -0.085,-1.344c-0.007,-0.701 0.051,-1.422 0.065,-2.118Z" style="fill:#9f6036;"/><path d="M61.821,176.524l-1.593,-1.004c-1.755,-1.106 -2.646,-2.241 -2.606,-3.107l-11.946,-21.741c0.44,0.759 1.327,1.601 2.64,2.428l6.884,4.338l1.171,2.871c0.531,1.25 1.226,2.407 1.822,3.626c0.243,0.498 0.461,1.007 0.653,1.534c0.155,0.428 0.275,0.86 0.384,1.297c0.273,1.087 0.458,2.186 0.768,3.269c0.461,1.55 0.869,3.075 1.297,4.593c0.178,0.631 0.355,1.262 0.526,1.896Zm-5.484,-18.369l4.659,2.936c0.159,0.314 0.313,0.63 0.46,0.95c0.386,0.843 0.681,1.705 0.88,2.62c0.305,0.929 0.549,1.876 0.812,2.82c0.53,1.906 1.076,3.81 1.488,5.757c0.405,1.919 0.714,3.86 1.13,5.771l-1.054,-0.664c-0.068,-0.29 -0.146,-0.577 -0.216,-0.865c-0.34,-1.392 -0.732,-2.758 -1.201,-4.106c-0.461,-1.323 -1.005,-2.618 -1.541,-3.947c-0.419,-1.022 -0.716,-2.073 -1.097,-3.103c-0.173,-0.466 -0.358,-0.928 -0.58,-1.38c-0.178,-0.361 -0.369,-0.711 -0.57,-1.057c-0.774,-1.333 -1.681,-2.565 -2.402,-3.927l-0.768,-1.805Zm6.841,4.31l2.912,1.835c0.557,1.852 1.101,3.696 1.595,5.557c0.345,1.299 0.635,2.609 0.952,3.923c0.135,0.64 0.341,1.27 0.512,1.917c0.24,0.905 0.415,1.806 0.484,2.713c0.218,1.11 0.373,2.23 0.504,3.354l-3.079,-1.941c-0.011,-0.058 -0.023,-0.117 -0.033,-0.176c-0.359,-1.955 -0.734,-3.917 -1.031,-5.891c-0.3,-2.001 -0.516,-4.009 -0.937,-5.976c-0.266,-1.248 -0.62,-2.474 -1.012,-3.686c-0.255,-0.569 -0.541,-1.109 -0.867,-1.629Zm3.977,2.506l2.189,1.379c0.306,1.186 0.693,2.35 1.137,3.49c0.536,1.388 1.35,2.656 1.996,3.996c0.267,0.553 0.487,1.123 0.673,1.707c0.321,0.845 0.592,1.727 0.838,2.621c0.374,1.356 0.692,2.74 1.035,4.067c0.111,0.424 0.176,0.856 0.217,1.292c0.048,0.5 0.066,1.005 0.085,1.51l-2.575,-1.623c-0.244,-1.829 -0.519,-3.653 -0.92,-5.454c-0.104,-0.338 -0.21,-0.675 -0.353,-1.004c-0.318,-0.73 -0.742,-1.401 -1.095,-2.125c-0.222,-0.453 -0.402,-0.918 -0.567,-1.383c-0.425,-1.284 -0.874,-2.55 -1.276,-3.834c-0.481,-1.539 -0.933,-3.086 -1.384,-4.639Zm3.444,2.17l8.859,5.582c0.459,1.321 0.918,2.654 1.358,3.992c0.602,1.833 1.166,3.674 1.636,5.5l0.931,4.997l0.804,3.405l-7.998,-5.04c-0.01,-0.709 0.006,-1.421 -0.038,-2.126c-0.031,-0.488 -0.092,-0.971 -0.202,-1.448c-0.314,-1.341 -0.602,-2.737 -0.948,-4.106c-0.236,-0.933 -0.499,-1.853 -0.814,-2.735c-0.55,-1.391 -1.386,-2.649 -2.094,-3.973c-0.291,-0.544 -0.549,-1.103 -0.77,-1.678c-0.302,-0.769 -0.513,-1.569 -0.724,-2.37Zm17.068,10.755l5.838,3.679c0.156,0.098 0.315,0.195 0.477,0.289c0.415,1.381 0.865,2.751 1.334,4.112c0.133,0.371 0.291,0.736 0.462,1.098c0.357,0.753 0.757,1.499 1.142,2.24c0.22,0.422 0.461,0.826 0.613,1.268c0.18,0.441 0.315,0.886 0.406,1.353c0.163,0.845 0.257,1.691 0.458,2.521c0.366,1.95 0.727,3.935 1.222,5.885l-9.52,-5.999c-0.002,-0.903 0.034,-1.801 0.104,-2.69c0.07,-1.143 0.241,-2.292 0.28,-3.443c0.019,-0.558 0,-1.115 -0.051,-1.671c-0.08,-0.799 -0.281,-1.565 -0.547,-2.313c-0.264,-0.746 -0.579,-1.481 -0.907,-2.206c-0.274,-0.604 -0.579,-1.189 -0.753,-1.823c-0.191,-0.78 -0.361,-1.545 -0.558,-2.3Zm9.837,5.562c1.252,0.433 2.53,0.749 3.722,0.921c0.038,0.703 0.185,1.386 0.327,2.061c0.505,2.39 1.463,4.648 2.024,7.102c0.101,0.922 0.003,1.805 -0.066,2.717c-0.073,0.96 -0.154,1.912 -0.165,2.875c-0.006,0.515 0.03,1.027 0.083,1.541c0.075,0.55 0.174,1.095 0.292,1.638c-0.996,-0.334 -1.978,-0.752 -2.875,-1.237c-0.009,-0.154 -0.019,-0.308 -0.029,-0.463c-0.135,-2.14 -0.386,-4.277 -0.504,-6.389c-0.003,-0.982 0.141,-1.954 0.148,-2.941c0.003,-0.5 -0.053,-0.986 -0.134,-1.481c-0.127,-0.598 -0.318,-1.182 -0.574,-1.747c-0.487,-1.078 -1.209,-2.07 -1.642,-3.153c-0.206,-0.48 -0.408,-0.961 -0.607,-1.444Zm4.439,1.008c1.073,0.104 2.052,0.079 2.848,-0.099l5.165,18.684c-0.894,0.2 -2.053,0.181 -3.31,-0.015c-0.287,-0.902 -0.554,-1.807 -0.708,-2.74c-0.306,-1.353 -0.311,-2.739 -0.508,-4.108c-0.146,-1.007 -0.381,-1.968 -0.774,-2.922c-0.59,-2.08 -1.479,-3.997 -2.102,-5.996c-0.284,-0.91 -0.468,-1.841 -0.611,-2.804Zm47.075,0.742l0.032,-5.062c0.124,0.667 0.175,1.367 0.181,2.068c0.005,0.72 -0.039,1.442 -0.106,2.132c-0.027,0.289 -0.063,0.576 -0.107,0.862Zm0.052,-8.223l0.016,-2.515c1.369,0.416 2.74,0.708 4.007,0.849c-0.028,0.445 -0.023,0.889 0.005,1.333c0.134,2.101 0.788,4.176 0.633,6.343c-0.068,1.043 -0.222,2.084 -0.496,3.101c-0.431,1.598 -1.059,3.127 -1.372,4.74c-0.166,1.345 -0.288,2.724 -0.337,4.112c-0.833,-0.141 -1.7,-0.348 -2.566,-0.612l0.025,-3.858c0.222,-0.96 0.457,-1.915 0.676,-2.875c0.238,-1.042 0.433,-2.092 0.519,-3.164c0.057,-0.727 0.089,-1.486 0.069,-2.242c-0.02,-0.769 -0.092,-1.535 -0.244,-2.262c-0.081,-0.394 -0.181,-0.783 -0.305,-1.165c-0.196,-0.599 -0.434,-1.183 -0.63,-1.785Zm4.845,-1.595c1.015,0.06 1.941,0.012 2.716,-0.162l-1.027,19.776c-0.596,0.133 -1.292,0.183 -2.053,0.158c-0.031,-1.394 -0.025,-2.78 0.09,-4.137c0.009,-1.047 0.109,-2.081 0.262,-3.125c0.071,-0.481 0.141,-0.959 0.232,-1.436c0.218,-1.136 0.482,-2.259 0.557,-3.406c0.094,-1.284 -0.054,-2.541 -0.266,-3.783c-0.204,-1.198 -0.469,-2.378 -0.506,-3.582c-0.003,-0.101 -0.005,-0.202 -0.005,-0.303Z" style="fill:#854f2b;"/><path d="M90.297,138.406c-3.241,-2.335 -3.544,-4.644 -0.538,-5.316l85.741,-19.158c3.24,-0.724 9.107,0.727 13.093,3.239l52.429,33.037c3.986,2.511 4.591,5.138 1.35,5.862l-85.741,19.158c-1.91,0.427 -4.733,0.098 -7.545,-0.758l-44.295,9.897c-2.793,0.624 -7.85,-0.627 -11.286,-2.792l-45.189,-28.475c-3.436,-2.165 -3.958,-4.429 -1.165,-5.053l43.146,-9.641Z" style="fill:#8bc350;"/></g><path d="M53.928,170.867c5.399,-0.199 11.265,2.757 17.639,9.139c1.181,1.183 7.675,1.536 11.698,6.946c2.167,2.912 9.165,2.642 16.908,8.225c10.27,7.405 12.599,2.469 23.123,5.301l-18.096,5.575l-51.455,-31.805l0.183,-3.381Zm130.348,17.888c13.569,-4.675 25.382,-12.617 40.879,-11.886c1.338,0.063 8.338,-5.012 12.354,-5.213l1.198,7.561l-54.431,9.538Z" style="fill:#f9e594;"/><path d="M232.822,210.301c0.289,-0.04 0.586,-0.029 0.883,-0.013c-0.296,0.021 -0.592,0.041 -0.883,0.013Zm0.883,-0.013c0.237,-0.018 0.473,-0.037 0.707,-0.034c0.016,-0 0.03,0.013 0.03,0.029c-0,0.016 -0.013,0.029 -0.029,0.029c-0.234,0.004 -0.471,-0.012 -0.708,-0.024Zm-0.883,0.013c-0.102,0.014 -0.203,0.035 -0.303,0.064c-0.111,0.032 -0.153,0.113 -0.261,0.153c-0.198,0.074 -0.406,0.088 -0.616,0.115c-1.17,0.151 -2.352,0.185 -3.533,0.252c-2.125,0.119 -4.252,0.154 -6.363,0.059c-1.04,-0.043 -2.083,-0.124 -3.13,-0.188c-2.447,-0.149 -4.903,-0.288 -7.33,-0.692c-1.396,-0.233 -2.777,-0.537 -4.133,-0.916c-0.912,-0.255 -1.805,-0.565 -2.691,-0.883c-0.472,-0.17 -0.956,-0.318 -1.431,-0.498c-0.725,-0.275 -1.43,-0.596 -2.146,-0.907c-1.225,-0.534 -2.428,-1.091 -3.549,-1.785c-1.181,-0.688 -2.358,-1.378 -3.445,-2.199c-0.767,-0.579 -1.435,-1.248 -2.169,-1.868c-1.68,-1.421 -3.374,-2.82 -4.926,-4.39c-0.008,-0.007 -0.009,-0.02 -0.001,-0.027c0.007,-0.008 0.019,-0.009 0.027,-0.001c1.697,1.463 3.431,2.88 5.34,4.036c0.769,0.465 1.584,0.811 2.378,1.234c1.168,0.623 2.315,1.283 3.515,1.855c0.672,0.303 1.364,0.559 2.073,0.786c1.179,0.378 2.397,0.621 3.587,0.958c0.526,0.149 1.04,0.332 1.552,0.504c0.891,0.304 1.798,0.566 2.706,0.836c1.36,0.405 2.732,0.779 4.113,1.133c0.993,0.254 1.975,0.526 2.975,0.752c1.118,0.251 2.231,0.491 3.359,0.668c1.134,0.177 2.273,0.29 3.406,0.399c2.905,0.277 5.852,0.211 8.788,0.254c0.381,0.005 0.76,0.004 1.139,0.035c0.155,0.013 0.308,0.015 0.457,0.061c0.123,0.037 0.181,0.123 0.307,0.152c0.101,0.023 0.203,0.038 0.305,0.048Zm-204.477,-19.33c-0.045,-0.048 -0.042,-0.124 0.006,-0.168c0.048,-0.045 0.124,-0.042 0.168,0.006c0.326,0.32 0.669,0.621 1.024,0.912c0.833,0.685 1.718,1.309 2.552,1.982c0.943,0.734 1.855,1.512 2.832,2.21c0.576,0.411 1.183,0.753 1.788,1.117c0.39,0.235 0.776,0.475 1.181,0.686c0.843,0.458 1.725,0.825 2.615,1.174c1.378,0.54 2.786,1.013 4.178,1.507l4.473,1.51l2.886,1.035c1.356,0.434 2.811,0.881 4.315,1.23c1.19,0.275 2.387,0.479 3.535,0.655c0.12,0.018 0.242,0.019 0.356,0.053c0.2,0.06 0.339,0.158 0.525,0.242c-0.196,0.061 -0.348,0.139 -0.555,0.169c-0.413,0.059 -0.84,-0.009 -1.272,-0.021c-0.954,-0.025 -1.928,-0.091 -2.908,-0.144c-1.512,-0.083 -2.997,-0.167 -4.387,-0.307c-0.35,-0.062 -0.696,-0.148 -1.039,-0.255c-0.715,-0.224 -1.409,-0.537 -2.109,-0.777l-4.5,-1.531c-1.407,-0.529 -2.842,-1.011 -4.223,-1.614c-0.95,-0.415 -1.871,-0.888 -2.755,-1.435c-0.63,-0.422 -1.234,-0.87 -1.795,-1.376c-0.641,-0.577 -1.207,-1.215 -1.807,-1.837c-0.586,-0.607 -1.188,-1.193 -1.786,-1.782c-0.765,-0.75 -1.584,-1.457 -2.347,-2.218c-0.332,-0.33 -0.651,-0.667 -0.951,-1.023Zm2.156,8.11c-0.058,-0.049 -0.065,-0.137 -0.015,-0.195c0.05,-0.058 0.137,-0.065 0.195,-0.015c0.127,0.064 0.249,0.114 0.365,0.197c0.953,0.685 1.619,1.72 2.584,2.397c0.598,0.406 1.205,0.816 1.89,1.045c0.554,0.186 1.106,0.145 1.669,0.305c0.542,0.154 1.043,0.421 1.556,0.647l3.25,1.66c0.554,0.332 1.107,0.623 1.688,0.877c0.603,0.263 1.214,0.488 1.833,0.732l2.15,0.785c0.694,0.19 1.444,0.343 2.211,0.453c0.908,0.131 1.839,0.123 2.714,0.208c0.242,0.024 0.457,0.087 0.69,0.121c0.068,-0.005 0.127,0.047 0.132,0.115c0.005,0.068 -0.047,0.127 -0.115,0.132c-0.23,0.069 -0.446,0.15 -0.692,0.188c-0.528,0.082 -1.084,0.041 -1.641,0.026c-1.197,-0.034 -2.413,-0.181 -3.501,-0.415l-2.242,-0.642c-0.935,-0.195 -1.844,-0.381 -2.758,-0.623c-0.406,-0.108 -0.803,-0.227 -1.206,-0.366c-0.353,-0.144 -0.705,-0.287 -1.045,-0.457c-0.761,-0.381 -1.481,-0.837 -2.238,-1.231c-0.477,-0.262 -0.992,-0.459 -1.449,-0.759c-0.467,-0.306 -0.787,-0.717 -1.243,-1.038c-0.65,-0.458 -1.369,-0.8 -1.993,-1.294c-0.436,-0.327 -0.826,-0.705 -1.203,-1.098c-0.49,-0.512 -1.05,-0.966 -1.473,-1.531c-0.053,-0.072 -0.071,-0.144 -0.113,-0.224Zm53.281,19.317c-0.018,-0.012 -0.022,-0.036 -0.01,-0.053c0.012,-0.017 0.036,-0.021 0.053,-0.009c0.578,0.333 1.198,0.585 1.845,0.8c0.971,0.324 1.975,0.55 2.932,0.803c1.149,0.35 2.264,0.777 3.412,1.118c0.471,0.14 0.945,0.261 1.43,0.358c0.444,0.087 0.89,0.141 1.339,0.176c0.718,0.057 1.433,0.062 2.153,0.108l4.922,0.623l3.217,0.111l3.395,0.241c0.737,0.003 1.456,-0.054 2.173,-0.142c1.144,-0.142 2.27,-0.344 3.428,-0.489c0.422,-0.05 0.84,-0.104 1.264,-0.12c0.63,-0.024 1.244,0.049 1.874,0.009c0.435,-0.028 0.863,-0.117 1.293,-0.192l2.443,-0.623c0.18,-0.044 0.358,-0.098 0.541,-0.127c0.433,-0.07 0.862,-0.056 1.297,-0.113c0.608,-0.08 1.204,-0.22 1.8,-0.36c0.019,-0.006 0.039,0.005 0.044,0.024c0.006,0.019 -0.005,0.039 -0.024,0.044l-3.491,1.179l-2.47,0.704c-0.438,0.092 -0.884,0.142 -1.32,0.241c-0.614,0.14 -1.187,0.363 -1.797,0.519c-0.392,0.1 -0.785,0.178 -1.176,0.281c-1.136,0.29 -2.232,0.64 -3.357,0.917c-0.788,0.195 -1.584,0.344 -2.408,0.434l-3.574,0.09c-0.672,-0.021 -1.351,-0.024 -2.027,-0.061c-0.479,-0.026 -0.957,-0.069 -1.431,-0.137l-4.911,-1.003l-3.586,-0.818c-0.515,-0.163 -1.016,-0.35 -1.511,-0.558c-1.11,-0.467 -2.177,-1.015 -3.287,-1.49c-0.905,-0.427 -1.86,-0.836 -2.767,-1.337c-0.611,-0.337 -1.189,-0.706 -1.708,-1.148Zm67.672,-23.321c-0.021,-0.007 -0.032,-0.03 -0.025,-0.05c0.007,-0.021 0.03,-0.032 0.051,-0.025c0.153,-0.008 0.274,-0.047 0.428,-0.037c0.93,0.063 1.867,0.321 2.833,0.192c0.239,-0.032 0.467,-0.099 0.704,-0.159c0.974,-0.243 1.9,-0.613 2.845,-0.961c0.581,-0.214 1.146,-0.427 1.707,-0.613c0.4,-0.132 0.798,-0.234 1.18,-0.343c1.553,-0.407 3.095,-0.86 4.659,-1.223c2.569,-0.596 5.167,-1.003 7.757,-1.486c1.11,-0.206 2.216,-0.43 3.329,-0.626c1.254,-0.234 2.486,-0.79 3.754,-1.023c0.478,-0.088 0.967,-0.198 1.443,-0.106c0.135,0.026 0.235,0.077 0.363,0.131c0.214,0.009 0.381,0.189 0.372,0.403c-0.008,0.214 -0.189,0.381 -0.403,0.373c-0.147,0.042 -0.26,0.114 -0.407,0.147c-0.54,0.121 -1.087,0.191 -1.624,0.351c-1.085,0.322 -2.163,0.746 -3.252,0.972c-1.041,0.227 -2.082,0.454 -3.115,0.718c-2.484,0.634 -4.91,1.454 -7.386,2.131c-1.651,0.452 -3.323,0.824 -4.985,1.235c-0.944,0.171 -1.955,0.42 -3.014,0.556c-0.696,0.089 -1.388,0.117 -2.095,0.129c-0.642,0.011 -1.26,-0.04 -1.888,-0.062c-0.96,-0.034 -1.955,0.095 -2.789,-0.296c-0.177,-0.083 -0.29,-0.205 -0.442,-0.328Zm-16.68,2.805c-0.058,0.029 -0.13,0.006 -0.16,-0.052c-0.03,-0.059 -0.007,-0.131 0.052,-0.16c0.624,-0.365 1.275,-0.634 1.942,-0.862c1.539,-0.526 3.152,-0.793 4.715,-1.269c0.502,-0.176 0.973,-0.418 1.476,-0.615c0.792,-0.311 1.612,-0.561 2.439,-0.736c0.076,-0.017 0.151,-0.044 0.229,-0.045c0.204,-0.001 0.396,-0.013 0.567,0.097c0.336,0.216 0.143,0.158 0.372,0.486c0.038,-0.003 0.07,0.025 0.073,0.062c0.003,0.037 -0.025,0.07 -0.062,0.073c-0.174,0.349 0.026,0.263 -0.242,0.545c-0.121,0.128 -0.263,0.189 -0.428,0.25c-0.062,0.024 -0.129,0.026 -0.194,0.04c-0.773,0.159 -1.523,0.445 -2.293,0.646c-0.558,0.145 -1.117,0.232 -1.681,0.3c-1.387,0.223 -2.79,0.275 -4.171,0.498c-0.899,0.146 -1.78,0.366 -2.634,0.742Zm20.906,1.117c-0.054,0.001 -0.099,-0.042 -0.101,-0.097c-0.001,-0.054 0.042,-0.099 0.097,-0.101c1.417,-0.081 2.812,-0.334 4.176,-0.724c1.375,-0.393 2.702,-0.92 4.044,-1.388c0.891,-0.293 1.779,-0.585 2.684,-0.836c1.347,-0.374 2.705,-0.718 4.076,-1.002c0.729,-0.151 1.461,-0.272 2.197,-0.386c1.108,-0.172 2.209,-0.301 3.317,-0.467c0.185,-0.027 0.365,-0.08 0.552,-0.082c0.323,-0.002 0.572,0.076 0.892,0.116c-0.243,0.186 -0.406,0.367 -0.676,0.512c-0.099,0.054 -0.211,0.077 -0.318,0.114c-1.417,0.494 -2.822,0.988 -4.274,1.382c-1.076,0.292 -2.167,0.527 -3.258,0.753c-1.636,0.338 -3.279,0.605 -4.904,0.967c-1.961,0.397 -3.931,0.827 -5.926,1.062c-0.856,0.101 -1.713,0.183 -2.578,0.177Zm68.993,17.045c-0.06,-0.001 -0.108,-0.05 -0.107,-0.11c0.001,-0.06 0.05,-0.108 0.109,-0.107c2.176,-0.04 4.343,0.2 6.516,0.244c0.538,0.011 1.074,0.008 1.612,-0.013c1.755,-0.075 3.521,-0.225 5.281,-0.494c1.424,-0.218 2.821,-0.564 4.234,-0.862c1.408,-0.296 2.813,-0.593 4.206,-0.916c0.482,-0.112 0.956,-0.256 1.445,-0.318c0.79,-0.101 1.513,-0.045 2.302,-0.095c0.076,-0.025 0.159,0.017 0.184,0.093c0.026,0.077 -0.016,0.159 -0.093,0.185c-0.64,0.423 -1.186,0.863 -1.887,1.191c-0.61,0.286 -1.274,0.441 -1.927,0.622c-0.972,0.27 -1.963,0.49 -2.962,0.665c-3.567,0.624 -7.215,0.775 -10.78,0.635l-8.133,-0.72Zm34.81,-68.504c0.022,0.071 -0.017,0.146 -0.088,0.168c-0.071,0.022 -0.147,-0.017 -0.169,-0.088c-0.533,-1.571 -1.171,-3.082 -2.083,-4.406c-0.399,-0.58 -0.886,-1.07 -1.347,-1.598c-0.677,-0.779 -1.379,-1.525 -2.122,-2.244c-1.698,-1.645 -3.594,-3.118 -5.719,-4.295c-0.789,-0.559 -1.605,-1.051 -2.476,-1.464c-0.891,-0.421 -1.816,-0.76 -2.732,-1.115c-1.375,-0.532 -2.776,-1.022 -4.101,-1.673c-0.157,-0.077 -0.282,-0.175 -0.432,-0.265c-0.004,-0.002 -0.007,-0.007 -0.006,-0.011c0.001,-0.005 0.006,-0.007 0.011,-0.006c0.145,-0.006 0.27,-0.027 0.414,-0.011c0.197,0.022 0.383,0.097 0.575,0.149c1.265,0.341 2.509,0.764 3.772,1.105c1.364,0.35 2.72,0.725 4.051,1.193c0.589,0.207 1.165,0.427 1.735,0.686c2.634,1.58 5.054,3.468 6.852,5.848c0.908,1.202 1.553,2.552 2.21,3.917c0.633,1.317 1.238,2.664 1.655,4.11Zm-3.935,-11.122c-0.083,-0.067 -0.096,-0.19 -0.029,-0.273c0.068,-0.084 0.19,-0.097 0.274,-0.029l4.191,3.577c0.388,0.378 0.769,0.75 1.096,1.187c0.474,0.635 0.853,1.348 1.193,2.074c0.503,1.071 0.91,2.189 1.232,3.319c0.219,0.772 0.357,1.532 0.53,2.291c0.026,0.069 -0.008,0.146 -0.077,0.173c-0.069,0.027 -0.146,-0.008 -0.173,-0.076c-0.325,-0.563 -0.671,-1.099 -0.984,-1.689c-0.712,-1.337 -1.404,-2.707 -2.162,-4.03c-0.249,-0.434 -0.495,-0.867 -0.731,-1.303c-0.243,-0.446 -0.444,-0.898 -0.702,-1.33c-0.373,-0.595 -0.77,-1.185 -1.258,-1.721c-0.732,-0.805 -1.599,-1.494 -2.4,-2.17Zm-228.822,38.644c-0.015,0.027 -0.048,0.038 -0.075,0.023c-0.027,-0.014 -0.037,-0.047 -0.023,-0.074c-0.002,-0.099 -0.022,-0.162 -0.001,-0.258c0.064,-0.299 0.257,-0.549 0.403,-0.814c0.42,-0.762 0.912,-1.471 1.364,-2.224c0.444,-0.691 0.907,-1.425 1.426,-2.106c0.36,-0.473 0.748,-0.916 1.169,-1.309c0.754,-0.685 1.539,-1.354 2.415,-1.871c0.595,-0.351 1.229,-0.618 1.879,-0.844c0.761,-0.214 1.492,-0.443 2.188,-0.771c1.088,-0.514 2.078,-1.166 3.16,-1.573c0.145,-0.055 0.282,-0.159 0.437,-0.154c0.109,0.004 0.134,0.053 0.235,0.095c-0.051,0.091 -0.028,0.13 -0.108,0.197c-0.041,0.035 -0.1,0.036 -0.151,0.053c-0.902,0.313 -1.766,0.74 -2.625,1.218c-0.283,0.157 -0.572,0.307 -0.848,0.483c-0.651,0.415 -1.26,0.878 -1.951,1.268c-0.351,0.185 -0.675,0.407 -1.015,0.614c-0.337,0.205 -0.681,0.399 -1.012,0.618c-0.665,0.441 -1.303,0.929 -1.907,1.451c-0.397,0.336 -0.764,0.723 -1.111,1.132c-0.538,0.634 -1.029,1.319 -1.499,1.965c-0.694,0.884 -1.305,1.794 -2.053,2.626c-0.092,0.104 -0.193,0.162 -0.297,0.255Z" style="fill:#fff;"/><g><ellipse cx="199.861" cy="135.4" rx="8.843" ry="4.666" style="fill:#669e2c;"/><g><path d="M194.117,134.726c-0.25,-16.902 2.61,-31.966 13.4,-42.345l4.326,2.445c-5.786,11.498 -8.124,24.503 -6.058,39.436c0.043,0.151 0.065,0.306 0.065,0.464c0,1.708 -2.629,3.095 -5.866,3.095c-3.238,0 -5.867,-1.387 -5.867,-3.095Z" style="fill:#906344;"/><path d="M205.054,122.711c-0.006,0.361 -0.009,0.723 -0.009,1.086c-1.123,0.037 -2.279,-0.013 -3.385,-0.139c-2.415,-0.274 -4.841,-0.908 -6.983,-2.057c0.046,-0.407 0.094,-0.812 0.146,-1.214c0.728,0.486 1.508,0.902 2.346,1.23c1.529,0.598 3.228,0.852 4.852,1.01c0.713,0.07 1.416,0.071 2.132,0.075c0.302,0.001 0.603,0.013 0.901,0.009Z" style="fill:#b58767;"/><path d="M207.066,107.507c-0.045,0.174 -0.088,0.347 -0.132,0.521c-0.697,-0.184 -1.382,-0.42 -1.995,-0.746c-1.126,-0.598 -2.189,-1.256 -3.146,-2.098c-0.774,-0.68 -1.411,-1.461 -1.963,-2.301c0.158,-0.316 0.32,-0.628 0.486,-0.939c1.052,1.721 2.459,3.204 4.256,4.3c0.745,0.454 1.596,1.047 2.494,1.263Z" style="fill:#b58767;"/><path d="M209.274,100.617c-0.127,0.331 -0.252,0.662 -0.374,0.995c-0.343,-0.093 -0.682,-0.201 -1.017,-0.324c-2.04,-0.75 -3.676,-2.088 -4.803,-3.791c0.212,-0.295 0.429,-0.588 0.651,-0.878c0.822,1.052 1.842,1.927 2.962,2.689c0.734,0.5 1.707,1.101 2.581,1.309Z" style="fill:#b58767;"/><path d="M205.784,113.802c-0.028,0.189 -0.056,0.377 -0.083,0.567c-0.534,0.083 -1.098,0.08 -1.519,0.087c-0.231,0.004 -0.978,0.011 -1.292,-0.006c-2.29,-0.126 -4.703,-1.081 -6.391,-2.7c0.08,-0.298 0.163,-0.594 0.248,-0.889c1.587,1.692 3.914,2.737 6.229,2.859c0.759,0.039 1.864,0.231 2.808,0.082Z" style="fill:#b58767;"/><path d="M205.361,130.585c0.031,0.341 0.065,0.682 0.101,1.025c-1.252,0.41 -2.516,0.758 -3.836,0.909c-2.061,0.236 -4.404,0.083 -6.394,-0.553c-0.377,-0.12 -0.753,-0.286 -1.124,-0.473c0.002,-0.142 0.003,-0.284 0.005,-0.427c2.744,1.075 5.846,0.997 8.681,0.336c0.775,-0.18 1.497,-0.415 2.241,-0.696c0.104,-0.039 0.214,-0.078 0.326,-0.121Z" style="fill:#b58767;"/><path d="M199.33,103.916c1.999,-4.276 4.672,-8.154 8.187,-11.535l4.326,2.445c-2.166,4.304 -3.849,8.82 -4.999,13.569c-3.376,-0.254 -6.05,-1.681 -7.514,-4.479Z" style="fill:#6b4124;fill-opacity:0.5;"/></g><g><g><path d="M225.509,102.327c-1.392,-6.674 -5.965,-12.114 -13.579,-12.886c-2.473,3.78 -2.883,7.051 -2.129,9.975c2.909,-2.502 6.152,-2.563 9.581,-1.282c-3.452,0.511 -5.639,2.86 -6.816,6.68c1.424,1.901 3.168,3.667 4.851,5.366c1.714,-0.741 3.46,-0.988 5.248,-0.626c-1.152,0.583 -2.129,1.619 -2.997,2.94c1.643,1.754 3.021,3.469 3.68,5.225c1.777,-3.492 2.642,-7.344 2.616,-11.054c-1.423,-2.077 -3.086,-3.313 -4.903,-4.014c1.614,-0.92 3.096,-1.028 4.448,-0.324Z" style="fill:#bcf146;"/><path d="M222.665,109.554c-1.152,0.583 -2.129,1.619 -2.997,2.94c1.643,1.754 3.021,3.469 3.68,5.225c0.021,-2.424 -0.205,-5.249 -0.683,-8.165Zm-0,0c-0.638,-3.89 -1.727,-7.942 -3.283,-11.42c-3.452,0.511 -5.639,2.86 -6.816,6.68c1.424,1.901 3.168,3.667 4.851,5.366c1.714,-0.741 3.46,-0.988 5.248,-0.626Zm-3.283,-11.42c-1.83,-4.089 -4.305,-7.385 -7.452,-8.693c-2.473,3.78 -2.883,7.051 -2.129,9.975c2.909,-2.502 6.152,-2.563 9.581,-1.282Z" style="fill:#a9de35;"/></g><g><path d="M199.568,99.654c-4.133,1.041 -9.108,2.493 -14.621,5.829c0.018,-1.85 0.231,-3.592 0.608,-5.217l2.474,0.036l-2.16,-1.231c0.474,-1.621 1.117,-3.113 1.895,-4.467c1.816,0.183 3.473,0.551 4.695,1.427c-0.526,-1.973 -2.051,-2.781 -3.519,-3.231c5.65,-7.684 16.056,-9.675 22.99,-3.359c-0.177,6.724 -3.702,8.052 -9.439,9.49c-1.613,-2.152 -3.476,-4.103 -5.504,-5.923c1.2,2.111 2.231,4.274 2.581,6.646Z" style="fill:#85b41c;"/><path d="M196.987,93.008c1.2,2.111 2.231,4.274 2.581,6.646c-4.133,1.041 -9.108,2.493 -14.621,5.829c1.913,-5.101 6.806,-9.51 12.04,-12.475Zm5.504,5.923c-1.613,-2.152 -3.476,-4.103 -5.504,-5.923c5.724,-3.243 11.855,-4.759 14.943,-3.567c-0.177,6.724 -3.702,8.052 -9.439,9.49Z" style="fill:#7ca916;"/></g><g><path d="M200.941,82.511c-0.258,-2.301 0.506,-4.602 2,-6.904c0.778,1.247 1.706,2.295 3.039,2.814c2.642,-0.953 5.98,-0.553 9.549,1.874c0.552,0.375 0.724,1.078 0.624,1.949c-1.81,-0.812 -3.665,-0.866 -5.559,-0.273c1.857,-0.145 3.568,0.442 5.065,2.098c-0.758,1.913 -2.236,4.057 -3.729,5.372c-4.916,-0.73 -9.115,-2.582 -10.405,-4.598c1.757,-2.859 3.888,-4.806 6.384,-5.858c-2.794,0.377 -5.376,1.114 -6.968,3.526Z" style="fill:#8bae3d;"/><path d="M207.909,78.985c2.821,2.048 6.249,8.494 4.021,10.456c-4.916,-0.73 -9.115,-2.582 -10.405,-4.598c1.757,-2.859 3.888,-4.806 6.384,-5.858Zm-6.968,3.526c-0.258,-2.301 0.506,-4.602 2,-6.904c0.778,1.247 1.706,2.295 3.039,2.814c0.535,-0.193 1.213,0.044 1.929,0.564c-2.794,0.377 -5.376,1.114 -6.968,3.526Z" style="fill:#749230;"/></g><g><path d="M209.432,82.707c1.171,1.515 2.03,3.648 2.498,6.734c-7.045,2.155 -12.383,1.068 -16.164,-1.869l3.928,-5.177l-5.985,3.233c-2.455,-2.797 -3.994,-6.538 -4.685,-10.578c6.933,3.822 13.569,2.921 17.975,5.52l-1.147,4.086l3.58,-1.949Z" style="fill:#accf5e;"/><path d="M199.694,82.395c2.134,0.782 4.208,1.38 6.158,2.261c2.218,1.002 4.275,2.369 6.078,4.785c-7.045,2.155 -12.383,1.068 -16.164,-1.869l3.928,-5.177Zm-0,0l-5.985,3.233c-2.455,-2.797 -3.994,-6.538 -4.685,-10.578c3.528,4.298 7.179,6.066 10.67,7.345Z" style="fill:#9dc73f;"/></g><g><path d="M228.649,91.724c1.815,1.641 3.642,3.35 5.492,4.749c-1.974,0.765 -3.875,1.324 -5.692,1.645l-1.82,-3.491l0.212,3.715c-1.126,0.113 -2.217,0.124 -3.269,0.026l0.442,-5.47l-2.84,5.035c-3.72,-1.034 -6.855,-3.712 -9.244,-8.492c2.589,-3.24 5.129,-4.102 7.652,-3.606l-0.43,3.81l2.604,-3.07c1.874,0.889 3.743,2.368 5.622,4.015l-2.027,3.181l3.298,-2.047Z" style="fill:#aeda4d;"/><path d="M221.174,97.933c-3.72,-1.034 -6.855,-3.712 -9.244,-8.492c3.803,-2.776 7.685,0.497 12.084,3.457l-2.84,5.035Zm2.84,-5.035c3.073,2.068 6.399,3.983 10.127,3.575c-1.974,0.765 -3.875,1.324 -5.692,1.645l-1.82,-3.491l0.212,3.715c-1.126,0.113 -2.217,0.124 -3.269,0.026l0.442,-5.47Z" style="fill:#a4cc4c;"/></g><g><path d="M219.877,78.985c4.755,-0.753 9.91,3.81 12.028,7.312c-1.112,-0.326 -2.116,-0.435 -3.059,-0.393l-2.387,-3.053l1.036,3.169l-3.513,-3.625l2.057,4.06c-2.233,0.737 -4.385,2.019 -7.251,2.712l-2.383,-4.414l-0,4.814c-1.325,0.126 -2.799,0.109 -4.475,-0.126c1.41,-5.576 3.557,-8.535 5.947,-9.79l2.457,3.29l-0.457,-3.956Z" style="fill:#accf5e;"/><path d="M216.405,84.753l-0,4.814c-1.325,0.126 -2.799,0.109 -4.475,-0.126c1.45,-2.074 2.961,-3.598 4.475,-4.688Zm-0,-0c2.619,-1.886 5.248,-2.469 7.586,-2.341l2.048,4.043c-2.233,0.737 -4.385,2.019 -7.251,2.712l-2.383,-4.414Zm7.594,-2.341c3.942,0.219 7.057,2.46 7.906,3.885c-1.112,-0.326 -2.116,-0.435 -3.059,-0.393l-2.387,-3.053l1.036,3.169l-3.496,-3.608Z" style="fill:#9dc73f;"/></g><g><path d="M211.051,105.954c-1.479,2.261 -3.614,4.365 -6.44,6.304c-0.606,-2.219 -1.052,-4.292 -1.329,-6.214l3.018,-0.618l-3.184,-0.697c-0.128,-1.188 -0.186,-2.313 -0.173,-3.374l4.47,-0.506l-4.366,-1.355c0.319,-3.107 1.366,-5.558 3.198,-7.301l2.866,2.314l-1.795,-3.191c1.255,-0.88 2.789,-1.508 4.614,-1.875c2.081,5.229 2.268,10.004 0.351,14.274l-5.29,-1.312l4.06,3.551Z" style="fill:#accf5e;"/><path d="M206.991,102.403l4.06,3.551c-1.479,2.261 -3.614,4.365 -6.44,6.304c0.961,-3.525 1.688,-6.848 2.38,-9.855Zm5.29,1.312l-5.29,-1.312c1.317,-5.723 2.507,-10.304 4.939,-12.962c2.081,5.229 2.268,10.004 0.351,14.274Z" style="fill:#9dc73f;"/></g></g></g><g><path d="M192.262,147.629c0.037,-1.768 0.518,-4.404 1.84,-5.585c1.442,-1.289 3.536,-1.811 4.882,-3.228c1.55,-1.631 2.9,-3.454 4.641,-4.908c2.702,-2.257 2.749,-2.432 6.07,-3.482c1.659,-0.524 23.307,2.788 23.397,3.197c0.295,1.335 0.659,9.185 0.938,11.053c0.207,1.384 1.22,2.586 1.57,3.952c0.194,0.758 1.508,3.875 1.727,4.697c0.013,0.046 0.022,0.087 0.027,0.122c0.003,0.021 0.004,0.04 0.003,0.055c0,0.249 -0.197,0.442 -0.601,0.532l-24.734,5.527c-0.935,0.209 -2.627,-0.21 -3.777,-0.934l-15.124,-9.53c-0.886,-0.559 -1.193,-1.137 -0.859,-1.468Z" style="fill:#adadad;"/><path d="M233.584,139.187c0.157,2.287 0.312,4.586 0.446,5.489c0.161,1.076 0.81,2.043 1.255,3.062c-1.071,0.484 -2.185,0.903 -3.308,1.184c-0.853,0.213 -2.396,0.17 -3.248,-0c-0.706,-0.142 -1.475,0.035 -2.182,-0.107c-1.549,-0.31 -2.977,-0.594 -4.526,-0.852c-0.618,-0.103 -1.21,0.093 -1.81,0.16c-0.35,0.039 -0.732,-0.027 -1.065,0.106c-0.16,0.064 -0.896,0.542 -1.065,0.373c-0.084,-0.084 0.529,-0.291 0.586,-0.319c0.323,-0.162 0.624,-0.403 0.958,-0.586c0.712,-0.389 1.436,-1.024 2.236,-1.224c1.025,-0.257 2.051,-0.507 3.088,-0.852c1.143,-0.381 2.187,-0.967 3.301,-1.385c0.806,-0.302 1.594,-0.618 2.183,-1.224c0.879,-0.905 1.661,-1.967 2.502,-2.928c0.247,-0.283 0.445,-0.593 0.649,-0.897Z" style="fill:#a5a39d;"/><path d="M198.822,138.979c0.055,-0.053 0.109,-0.107 0.162,-0.163c1.55,-1.631 2.9,-3.454 4.641,-4.908c2.702,-2.257 2.749,-2.432 6.07,-3.482c0.831,-0.262 6.675,0.437 12.314,1.252c-0.169,0.39 -0.393,0.784 -0.52,1.165c-0.179,0.537 -0.5,1.163 -0.799,1.65c-0.254,0.415 -0.404,0.983 -0.585,1.438c-0.303,0.756 -0.746,1.545 -1.119,2.289c-0.008,0.017 -0.016,0.034 -0.025,0.05c-0.223,-0.043 -0.445,-0.096 -0.691,-0.137c-0.466,-0.078 -0.979,0.038 -1.438,-0.054c-0.995,-0.198 -2.028,-0.819 -2.715,-1.277c-0.58,-0.387 -1.136,-0.852 -1.704,-1.278c-0.324,-0.243 -0.865,-0.439 -1.118,-0.692c-0.149,-0.15 -0.522,-0.639 -0.745,-0.639c-0.089,-0 0.097,0.15 0.159,0.213c0.134,0.133 0.187,0.293 0.32,0.426c0.334,0.334 0.703,0.747 1.011,1.118c0.561,0.673 1.277,1.249 1.757,1.97c0.255,0.381 0.549,0.993 0.905,1.171c0.394,0.197 0.913,0.189 1.362,0.338c0.605,0.202 1.172,0.583 1.797,0.804c-0.348,0.561 -0.721,1.112 -1.11,1.633c-0.896,-0.229 -1.712,-0.658 -2.474,-0.912c-0.463,-0.154 -0.808,-0.643 -1.225,-0.851c-0.051,-0.026 -0.315,-0.271 -0.373,-0.213c-0.095,0.095 0.479,0.835 0.533,0.905c0.085,0.109 0.186,0.206 0.266,0.319c0.082,0.117 0.134,0.254 0.213,0.373c0.552,0.828 1.134,1.568 1.642,2.112c-0.765,0.94 -1.442,1.909 -1.884,3.086c-0.052,0.14 -0.101,0.28 -0.147,0.422c-0.513,-0.252 -1.003,-0.565 -1.528,-0.775c-1.681,-0.673 -3.341,-1.307 -5.164,-2.077c-1.082,-0.457 -2.099,-1.079 -3.194,-1.49c-0.601,-0.226 -1.114,-0.441 -1.651,-0.799c-0.143,-0.095 -0.397,-0.131 -0.479,-0.213c-0.413,-0.413 -0.931,-0.987 -1.384,-1.491c-0.375,-0.416 -0.729,-0.848 -1.08,-1.283Z" style="fill:#a5a39d;"/><path d="M212.652,150.545c-0.099,0.971 -0.161,1.946 -0.267,2.902c-0.216,1.938 -0.895,3.859 -1.331,5.75c-0.03,0.128 -0.061,0.256 -0.093,0.385c-0.881,-0.104 -1.926,-0.458 -2.716,-0.955l-15.124,-9.53c-0.886,-0.559 -1.193,-1.137 -0.859,-1.468c0.037,-1.768 0.518,-4.404 1.84,-5.585c0.201,-0.18 0.415,-0.345 0.638,-0.499c0.167,0.335 0.425,0.902 0.636,1.113c0.11,0.11 0.092,0.392 0.266,0.479c0.173,0.087 0.445,0.01 0.639,0.107c0.879,0.439 1.712,1.032 2.556,1.544c1.632,0.989 3.312,1.914 5.058,2.662c0.663,0.284 1.249,0.66 1.863,1.011c0.255,0.146 0.608,0.183 0.745,0.32c0.077,0.076 0.582,0.079 0.693,0.106c0.572,0.143 1.189,0.362 1.757,0.533c1.243,0.373 2.505,0.712 3.699,1.125Z" style="fill:#a5a39d;"/><path d="M224.643,128.019c-0.603,-0.38 -1.49,-0.6 -1.98,-0.49l-12.968,2.897c-0.49,0.11 -0.399,0.507 0.204,0.887l7.93,4.997c0.603,0.38 1.49,0.599 1.98,0.49l12.968,-2.898c0.49,-0.11 0.399,-0.507 -0.204,-0.887l-7.93,-4.996Z" style="fill:#b5b5b5;"/></g></g></g></g></svg>