<?xml version="1.0" encoding="UTF-8" standalone="no"?><!DOCTYPE svg PUBLIC "-//W3C//DTD SVG 1.1//EN" "http://www.w3.org/Graphics/SVG/1.1/DTD/svg11.dtd"><svg width="100%" height="100%" viewBox="0 0 300 300" version="1.1" xmlns="http://www.w3.org/2000/svg" xmlns:xlink="http://www.w3.org/1999/xlink" xml:space="preserve" xmlns:serif="http://www.serif.com/" style="fill-rule:evenodd;clip-rule:evenodd;stroke-linejoin:round;stroke-miterlimit:2;"><g id="_250" serif:id="250"><g id="_4" serif:id="4"><g><path d="M95.36,132.583c0.011,0.473 -0.354,0.841 -1.118,1.012l-30.673,7.329c-1.738,0.388 -4.885,-0.39 -7.022,-1.737l-5.11,-3.22l-10.642,2.542c-1.29,0.289 -3.627,-0.289 -5.214,-1.289l-7.708,-4.857c-1.055,-0.665 -1.515,-1.35 -1.326,-1.819l4.636,-15.688l4.234,-3.573l4.188,-21.078l53.03,1.511l2.466,9.068l-2.466,13.153l5.079,6.959l-2.36,11.611c0.003,0.026 0.004,0.051 0.006,0.076Z" style="fill:#adadad;"/><path d="M59.853,90.782l9.589,0.273c-0.649,2.646 -1.334,5.312 -2.285,7.846c-1.022,2.726 -1.772,5.551 -2.788,8.26c-0.406,1.083 -1.011,2.271 -1.239,3.407c-0.177,0.886 -0.344,1.858 -0.619,2.685c-0.214,0.642 -0.095,1.393 -0.206,2.065c-0.469,2.812 0.123,5.614 0.516,8.363c0.16,1.123 0.02,2.291 0.206,3.407c0.465,2.789 -0.527,5.67 -0.826,8.363c-0.201,1.808 -0.409,3.658 -0.577,5.516c-1.643,-0.191 -3.601,-0.85 -5.077,-1.78l-5.11,-3.22l-0.052,0.012c0.06,-0.518 0.129,-1.035 0.182,-1.561c0.148,-1.481 -0.004,-2.969 0.206,-4.439c0.15,-1.047 -0.131,-2.152 0,-3.201c0.421,-3.367 0.576,-6.801 1.239,-10.118c0.442,-2.208 1.437,-4.306 2.065,-6.505c0.858,-3.002 1.769,-6.161 2.375,-9.189c0.174,-0.871 0.197,-1.819 0.413,-2.684c0.326,-1.306 0.705,-2.615 1.032,-3.924c0.268,-1.07 0.304,-2.259 0.826,-3.303c0.045,-0.09 0.089,-0.181 0.13,-0.273Z" style="fill:#a1a1a1;"/><path d="M37.877,138.233c-0.809,-0.238 -1.62,-0.588 -2.296,-1.013l-7.708,-4.857c-1.055,-0.665 -1.515,-1.35 -1.326,-1.819l4.636,-15.688l4.234,-3.573l4.188,-21.078l11.268,0.321c-0.389,1.621 -0.776,3.209 -1.165,4.762c-0.655,2.62 -1.06,5.151 -1.445,7.846c-0.411,2.875 -1.778,5.598 -2.065,8.467c-0.216,2.159 -0.415,4.343 -0.929,6.401c-1.037,4.146 -4.422,7.587 -5.679,11.357c-0.831,2.493 -1.389,5.427 -1.652,8.053c-0.027,0.269 -0.044,0.544 -0.061,0.821Z" style="fill:#a1a1a1;"/><path d="M92.722,113.472l-0.087,0.465l5.079,6.959l-0.213,1.045c-1.258,0.706 -2.918,1.207 -4.222,1.533c-1.573,0.393 -3.223,0.103 -4.853,0.103c-2.756,0 -5.813,0.107 -8.57,0.413c-2.297,0.256 -4.893,1.242 -7.227,0.723c-0.162,-0.036 -0.391,-0.288 -0.516,-0.413c-0.96,-0.96 0.668,-1.315 1.549,-1.755c2.992,-1.496 6.1,-2.732 9.189,-4.027c1.11,-0.465 2.207,-0.947 3.304,-1.445c1.375,-0.626 2.711,-1.32 4.026,-2.065c0.864,-0.49 1.719,-0.984 2.541,-1.536Z" style="fill:#a1a1a1;"/><path d="M62.92,87.157l14.893,-3.559c1.339,-0.299 3.762,0.301 5.408,1.338l7.995,5.038c1.647,1.038 1.897,2.123 0.558,2.422l-23.624,5.644c-1.338,0.299 -3.761,-0.3 -5.408,-1.338l-3.935,-2.48l-8.197,1.959c-0.993,0.222 -2.793,-0.223 -4.015,-0.994l-5.937,-3.74c-1.222,-0.771 -1.408,-1.576 -0.414,-1.798l17.541,-4.191c0.994,-0.222 2.793,0.223 4.016,0.993l1.119,0.706Z" style="fill:#b5b5b5;"/><path d="M96.262,128.04l-0.908,4.467c0.003,0.026 0.004,0.051 0.006,0.076c0.011,0.473 -0.354,0.841 -1.118,1.012l-30.673,7.329c-0.538,0.12 -1.21,0.128 -1.945,0.043c-1.643,-0.191 -3.601,-0.85 -5.077,-1.78l-5.11,-3.22l-10.642,2.542c-0.741,0.166 -1.827,0.046 -2.918,-0.276c-0.809,-0.238 -1.62,-0.588 -2.296,-1.013l-7.708,-4.857c-1.055,-0.665 -1.515,-1.35 -1.326,-1.819l1.392,-4.711c0.235,0.271 0.582,0.556 1.039,0.837l7.882,4.857c0.691,0.426 1.521,0.775 2.348,1.014c1.116,0.322 2.226,0.442 2.984,0.276l10.883,-2.543l5.226,3.22c1.509,0.931 3.512,1.59 5.191,1.78c0.752,0.086 1.44,0.077 1.989,-0.043l30.781,-7.191Zm-59.742,-22.307l3.085,-15.528c0.003,-0.178 0.103,-0.329 0.303,-0.437l-3.216,15.822l-0.172,0.143Z" style="fill:#878787;"/></g><path d="M189.486,200.322c-2.644,-0.299 -5.321,0.053 -7.798,1.026c-12.441,4.81 -27.784,7.65 -44.375,7.65c-41.506,0 -75.203,-17.779 -75.203,-39.679c-0,-13.095 12.049,-24.717 30.612,-31.945c3.785,-1.479 7.234,-3.704 10.142,-6.542c7.262,-7.094 21.46,-11.891 37.765,-11.891c2.094,-0 4.154,0.079 6.169,0.232c2.122,0.166 4.237,-0.385 6.007,-1.566c9.954,-6.48 25.146,-10.612 42.152,-10.612c29.985,-0 54.329,12.844 54.329,28.665c-0,1.933 -0.364,3.822 -1.057,5.649c-2.618,6.846 -1.559,14.555 2.807,20.443c2.431,3.249 3.765,6.789 3.765,10.492c0,15.821 -24.344,28.665 -54.328,28.665c-3.764,0 -7.438,-0.202 -10.987,-0.587Z" style="fill:#f9e594;"/><path d="M189.486,200.322c-2.644,-0.299 -5.321,0.053 -7.798,1.026c-12.441,4.81 -27.784,7.65 -44.375,7.65c-41.506,0 -75.203,-17.779 -75.203,-39.679c-0,-13.095 12.049,-24.717 30.612,-31.945c3.785,-1.479 7.234,-3.704 10.142,-6.542c7.262,-7.094 21.46,-11.891 37.765,-11.891c2.094,-0 4.154,0.079 6.169,0.232c2.122,0.166 4.237,-0.385 6.007,-1.566c9.954,-6.48 25.146,-10.612 42.152,-10.612c29.985,-0 54.329,12.844 54.329,28.665c-0,1.933 -0.364,3.822 -1.057,5.649c-2.618,6.846 -1.559,14.555 2.807,20.443c2.431,3.249 3.765,6.789 3.765,10.492c0,15.821 -24.344,28.665 -54.328,28.665c-3.764,0 -7.438,-0.202 -10.987,-0.587Zm0.465,-4.261c10.058,-1.358 32.193,6.602 53.114,-7.422c5.427,-3.638 9.583,-10.927 9.583,-16.018c0,-2.805 -3.203,-5.841 -5.044,-8.301c-0.003,-0.005 -0.007,-0.01 -0.011,-0.015c-5.238,-7.063 -5.237,-10.264 -2.179,-20.501c0.863,-2.888 -2.611,-8.174 -3.113,-10.341c-1.149,-4.959 0.929,-9.942 -4.375,-13.758c-9.317,-6.705 -26.019,-8.424 -42.969,-8.424c-16.046,0 -29.527,0.598 -38.923,6.71c-2.564,1.702 -7.758,3.186 -10.815,2.946c-1.909,-0.145 -3.861,-0.22 -5.845,-0.22c-14.978,0 -26.844,6.665 -33.515,13.181l-0.001,0.001c-3.32,3.24 -11.021,4.775 -15.341,6.463l-0.005,0.002c-8.641,3.365 -13.097,10.343 -18.062,15.413c-4.469,4.565 -8.752,8.682 -8.752,14.17c-0,7.522 5.4,15.438 13.237,21.078c13.117,9.439 36.767,8.667 60.629,8.667c16.01,-0 30.694,5.25 42.7,0.609c3.117,-1.221 6.369,-3.793 9.687,-4.24Z" style="fill:#dfc86d;"/><g><path d="M121.895,131.089l62.493,-13.963c2.463,-0.551 6.923,0.553 9.954,2.462l37.779,23.806l1.806,-0.313l2.238,3.253c1.087,1.306 0.816,2.434 -0.94,2.826l-19.919,4.451l19.197,12.096c0.869,-0.399 1.93,-0.96 1.93,-0.96l2.394,4.052c0.8,1.03 0.55,1.908 -0.845,2.22l-53.379,11.927c-2.017,0.451 -5.67,-0.453 -8.151,-2.016l-8.694,-5.478l-33.411,7.465c-2.517,0.563 -7.073,-0.564 -10.169,-2.515l-40.716,-25.656c-2.153,-1.357 -3.036,-2.757 -2.527,-3.673c0.038,-0.069 0.084,-0.135 0.138,-0.198l2.518,-3.605l3.508,1.875l39.688,-8.867l-6.555,-4.131c-2.1,-1.323 -2.965,-2.689 -2.479,-3.586l1.399,-3.213l2.743,1.741Z" style="fill:#669e2c;"/><path d="M127.94,136.646l-6.327,-3.987c-2.926,-1.843 -3.37,-3.771 -0.992,-4.302l62.922,-14.06c2.378,-0.531 6.684,0.534 9.609,2.377l38.475,24.244c2.925,1.844 3.369,3.772 0.991,4.303l-19.228,4.296l21.077,13.282c2.396,1.509 2.76,3.088 0.812,3.523l-51.528,11.513c-1.947,0.436 -5.473,-0.437 -7.869,-1.946l-8.391,-5.288l-32.253,7.207c-2.43,0.542 -6.828,-0.546 -9.816,-2.429l-39.305,-24.766c-2.988,-1.883 -3.442,-3.853 -1.012,-4.395l42.835,-9.572Z" style="fill:#8bc350;"/></g><g><path d="M230.886,196.023l-4.204,-2.649c-1.214,-0.765 -1.399,-1.566 -0.412,-1.786l26.115,-5.835c0.987,-0.221 2.774,0.221 3.988,0.986l15.968,10.062c1.214,0.765 1.398,1.565 0.411,1.786l-17.707,3.956l2.76,1.74c1.118,0.704 1.287,1.44 0.379,1.643l-24.039,5.371c-0.908,0.203 -2.553,-0.203 -3.671,-0.908l-14.698,-9.262c-1.118,-0.704 -1.288,-1.44 -0.379,-1.643l15.489,-3.461Z" style="fill:#adadad;"/><path d="M273.383,198.085c-0.03,0.233 -0.237,0.414 -0.631,0.502l-17.707,3.956l-24.159,-6.52l-4.204,-2.649c-0.792,-0.5 -1.146,-1.014 -1.022,-1.372l5.684,-17.737l7.74,-4.673l1.478,-7.281l32.825,4.12l-0.88,8.086l2.493,5.984l-1.613,11.686l-0,5.898l-0.004,-0Z" style="fill:#adadad;"/><path d="M273.464,191.63l-0.077,0.557l-0,4.484c-0.749,0.119 -1.414,0.225 -2.116,0.459c-0.754,0.251 -1.46,0.971 -2.131,1.306c-0.256,0.128 -0.642,0.012 -0.894,0.138c-0.848,0.424 -2.032,0.173 -2.955,0.481c-0.945,0.315 -2.035,0.041 -3.025,0.206c-0.506,0.085 -0.991,0.275 -1.512,0.275l-2.337,0c-0,0 0.227,-0.069 0.344,-0.069c0.246,0 0.461,-0.012 0.687,-0.068c0.549,-0.138 1.829,-0.386 2.2,-0.757c0.293,-0.293 0.716,-0.261 1.168,-0.412c0.942,-0.314 1.829,-0.522 2.818,-0.687c1.368,-0.228 2.17,-1.043 3.162,-1.788c0.557,-0.417 1.229,-1.019 1.65,-1.581c0.135,-0.18 0.485,-0.654 0.687,-0.756c0.478,-0.238 1.286,-0.945 1.994,-1.512c0.113,-0.09 0.225,-0.183 0.337,-0.276Z" style="fill:#a1a1a1;"/><path d="M272.559,174.041l-0.052,0.476l2.493,5.984l-0.026,0.187c-0.374,0.173 -0.757,0.326 -1.16,0.426c-2.313,0.579 -3.818,-0.497 -5.911,-0.687c-1.011,-0.092 -2.023,0.194 -3.025,0.069c-0.707,-0.089 -1.669,-0.525 -2.131,-0.756c-0.204,-0.103 1.105,-0.453 1.306,-0.482c1.102,-0.157 2.323,-0.404 3.3,-0.962c0.699,-0.4 1.211,-1.074 1.65,-1.512c0.624,-0.624 1.853,-1.068 2.612,-1.719c0.313,-0.268 0.611,-0.685 0.944,-1.024Z" style="fill:#a1a1a1;"/><path d="M247.994,200.64l-17.108,-4.617l-4.204,-2.649c-0.792,-0.5 -1.146,-1.014 -1.022,-1.372l5.684,-17.737l7.74,-4.673l1.478,-7.281l15.419,1.936c-0.12,0.423 -0.243,0.846 -0.382,1.264c-0.957,2.87 -1.988,5.755 -2.819,8.661c-0.566,1.984 -0.046,3.887 0.207,5.911c0.22,1.76 -0.102,3.629 -0.275,5.362c-0.153,1.522 -0.15,3.129 -0.619,4.536c-0.321,0.962 -0.925,1.867 -1.306,2.819c-1.013,2.532 -1.947,5.102 -2.749,7.698c-0.015,0.047 -0.029,0.094 -0.044,0.142Z" style="fill:#a1a1a1;"/><path d="M273.387,194.939l-0,3.146l-0.004,-0c-0.03,0.233 -0.237,0.414 -0.631,0.502l-17.707,3.956l-24.159,-6.52l-4.204,-2.649c-0.792,-0.5 -1.146,-1.014 -1.022,-1.372l0.905,-2.823c0.171,0.182 0.407,0.371 0.703,0.558l4.205,2.649l24.159,6.521l17.707,-3.957c0.016,-0.003 0.032,-0.007 0.048,-0.011Z" style="fill:#878787;"/><path d="M258.589,201.752l-0.314,-5.097l3.505,-7.219l1.549,-9.983l-30.221,-3.847l-1.603,5.087l-3.202,3.061l3.023,-9.432c-0,-0 14.357,-3.246 18.114,-4.095c0.572,-0.13 1.172,-0.039 1.681,0.254c2.735,1.575 11.787,6.786 14.824,8.535c0.6,0.345 0.912,1.034 0.776,1.713c-0.53,2.64 -1.8,8.973 -1.8,8.973l-3.265,6.358l0.619,4.868l-3.686,0.824Z" style="fill-opacity:0.06;"/><path d="M258.768,205.41c-0,0.241 -0.192,0.429 -0.584,0.516l-24.039,5.371c-0.908,0.203 -2.553,-0.203 -3.671,-0.908l-14.698,-9.262c-0.739,-0.465 -1.064,-0.945 -0.936,-1.275l4.166,-11.17l5.758,-1.545l6.741,-6.444l1.603,-5.087l30.221,3.847l-1.549,9.983l-3.505,7.219l0.54,8.761l-0.047,-0.006Z" style="fill:#adadad;"/><path d="M261.68,189.643l-3.405,7.012l0.038,0.611c-0.423,0.026 -0.848,0.026 -1.249,0.026c-2.785,-0 -5.49,1.699 -8.317,2.405c-0.742,0.186 -1.544,0.309 -2.269,0.55c-0.313,0.105 -0.651,0.22 -0.962,0.344c-0.143,0.057 -0.413,0.36 -0.413,0.206c0,-0.202 1.001,-0.696 1.169,-0.825c1.026,-0.786 2.21,-1.297 3.231,-2.062c1.145,-0.859 2.433,-1.853 3.437,-2.887c0.769,-0.792 1.463,-1.807 2.199,-2.543c0.478,-0.478 1.608,-0.646 2.268,-0.894c0.68,-0.255 1.246,-0.707 1.925,-0.962c0.749,-0.281 1.62,-0.595 2.348,-0.981Zm-30.146,-9.043l1.574,-4.994l13.938,1.774c-0.082,1.189 -0.259,2.35 -0.499,3.552c-0.747,3.734 -1.266,7.565 -1.993,11.204c-0.23,1.147 -0.252,2.336 -0.619,3.437c-0.075,0.226 -0.331,0.443 -0.413,0.687c-0.019,0.059 -0.038,0.139 -0.061,0.222c-0.241,-0.232 -0.497,-0.47 -0.763,-0.703c-0.877,-0.767 -1.586,-1.787 -2.544,-2.474c-0.69,-0.495 -1.449,-0.831 -2.062,-1.444c-1.074,-1.074 -2.377,-2.417 -3.024,-3.712c-0.677,-1.353 -0.975,-3.187 -1.719,-4.674c-0.442,-0.884 -1.058,-1.637 -1.581,-2.474c-0.079,-0.128 -0.157,-0.263 -0.234,-0.401Zm4.132,17.685c-0.018,0.011 -0.035,0.024 -0.048,0.038c-0.872,0.871 -0.249,2.627 -0.757,3.643c-0.131,0.263 0.137,0.963 -0.068,1.168c-0.22,0.22 -0.248,0.894 -0.413,1.306c-0.398,0.995 -0.722,2.017 -1.099,3.025c-0.449,1.197 -0.978,2.368 -1.491,3.542c-0.467,-0.16 -0.924,-0.371 -1.316,-0.618l-14.698,-9.262c-0.739,-0.465 -1.064,-0.945 -0.936,-1.275l4.047,-10.853c0.128,0.27 0.238,0.544 0.302,0.8c0.366,1.463 1.816,3.829 2.956,4.399c0.265,0.133 0.546,0.388 0.825,0.481c1.707,0.569 3.505,0.928 5.293,1.375c1.165,0.291 2.383,0.745 3.574,0.894c0.905,0.113 2.024,0.29 2.818,0.687c0.186,0.093 0.5,0.087 0.619,0.206c0.131,0.131 0.261,0.28 0.392,0.444Zm-16.673,-9.569l0.013,-0.034l5.758,-1.545l0.131,-0.125c0.047,0.058 0.093,0.117 0.137,0.175c0.676,0.901 1.398,1.81 2.131,2.543c0.387,0.388 1.602,0.698 2.131,0.963c2.461,1.23 5.047,2.153 7.561,3.23c0.667,0.286 1.161,0.925 1.787,1.238c0.848,0.424 1.835,1.085 2.759,1.798c-0.251,0.11 -0.502,0.229 -0.75,0.342c-0.479,-0.148 -1.003,-0.27 -1.459,-0.422c-0.252,-0.084 -0.496,-0.279 -0.756,-0.344c-0.223,-0.055 -0.739,-0.189 -0.894,-0.343c-0.202,-0.202 -0.649,-0.24 -0.962,-0.344c-0.945,-0.315 -1.993,-0.577 -2.956,-0.962c-1.408,-0.564 -2.808,-1.263 -4.193,-1.856c-0.744,-0.319 -1.639,-0.295 -2.406,-0.55c-0.936,-0.312 -1.91,-0.63 -2.887,-0.825c-1.484,-0.297 -3.131,-0.795 -4.193,-1.856c-0.343,-0.344 -0.626,-0.73 -0.952,-1.083Z" style="fill:#a1a1a1;"/><path d="M258.585,201.682l0.23,3.734l-0.047,-0.006c-0,0.241 -0.192,0.429 -0.584,0.516l-24.039,5.371c-0.908,0.203 -2.553,-0.203 -3.671,-0.908l-14.698,-9.262c-0.739,-0.465 -1.064,-0.945 -0.936,-1.275l1.222,-3.276c0.106,0.084 0.226,0.168 0.359,0.252l14.699,9.262c1.117,0.704 2.762,1.111 3.671,0.908l23.794,-5.316Z" style="fill:#878787;"/><path d="M252.555,172.28c-0.769,-0.485 -1.9,-0.765 -2.525,-0.625l-16.538,3.695c-0.625,0.14 -0.508,0.646 0.261,1.131l10.112,6.372c0.769,0.484 1.9,0.764 2.525,0.624l16.538,-3.695c0.625,-0.139 0.508,-0.646 -0.261,-1.13l-10.112,-6.372Z" style="fill:#b5b5b5;"/><path d="M261.682,158.714c-0.835,-0.526 -2.065,-0.83 -2.744,-0.678l-17.965,4.014c-0.679,0.152 -0.552,0.702 0.283,1.228l10.985,6.922c0.835,0.527 2.065,0.831 2.744,0.679l17.965,-4.014c0.679,-0.152 0.552,-0.702 -0.283,-1.229l-10.985,-6.922Z" style="fill:#b5b5b5;"/></g><g><path d="M99.385,189.688c-1.003,0.315 -2.002,0.435 -3.045,0.29c-1.246,-0.173 -2.942,-0.167 -4.053,-0.851c-2.105,-1.297 -3.195,-4.339 -4.462,-6.369c-1.078,-1.728 -2.621,-3.728 -2.911,-5.794c-0.159,-1.137 0.242,-2.3 0.583,-3.372c0.732,-2.301 1.312,-4.428 3.805,-5.347c1.736,-0.64 3.792,-0.425 5.601,-0.748c1.328,-0.237 2.576,-0.767 3.912,-0.967c4.254,-0.638 8.124,0.114 11.647,2.687c1.474,1.077 1.662,3.906 1.856,5.525c0.139,1.162 0.142,2.34 0.153,3.508c0.012,1.153 0.094,2.516 -0.192,3.649c-0.743,2.944 -2.586,7.113 -5.191,7.566c-0.757,0.132 -6.97,-0.02 -7.703,0.223Z" style="fill:#a5a39d;"/><path d="M112.49,179.409c0.008,0.844 -0.016,1.72 -0.211,2.49c-0.743,2.944 -2.586,7.113 -5.191,7.566c-0.757,0.132 -6.97,-0.02 -7.703,0.223c-1.003,0.315 -2.002,0.435 -3.045,0.29c-1.246,-0.173 -2.942,-0.167 -4.053,-0.851c-2.105,-1.297 -3.195,-4.339 -4.462,-6.369c-1.078,-1.728 -2.621,-3.728 -2.911,-5.794c-0.145,-1.039 0.177,-2.099 0.494,-3.093c0.375,1.973 1.835,3.878 2.868,5.533c1.266,2.03 2.357,5.073 4.462,6.369c1.111,0.684 2.806,0.679 4.052,0.851c1.044,0.145 2.042,0.026 3.046,-0.289c0.732,-0.244 6.946,-0.092 7.703,-0.223c2.358,-0.41 4.092,-3.868 4.951,-6.703Z" style="fill:#878787;"/><path d="M108.658,169.727c0.34,0.34 0.648,0.747 0.949,1.121c0.25,0.311 0.607,0.776 0.601,1.202c-0.011,0.694 -0.959,1.196 -1.495,1.363c-1.872,0.581 -3.906,0.242 -5.793,0.726c-1.263,0.324 -2.52,0.765 -3.739,1.228c-0.998,0.378 -1.949,0.765 -3.018,0.882c-0.706,0.078 -1.517,0.128 -2.191,-0.139c-1.633,-0.648 -2.488,-2.284 -2.863,-3.872c-0.135,-0.573 -0.457,-1.216 -0.076,-1.756c0.861,-1.22 2.601,-1.072 3.893,-1.228c1.458,-0.175 2.746,-0.98 4.206,-1.143c1.078,-0.121 2.239,-0.133 3.294,0.132c0.877,0.22 1.743,0.489 2.634,0.645c0.292,0.051 3.021,0.262 3.598,0.839Z" style="fill:#aeaeae;"/><path d="M112.451,176.764c0.012,0.496 0.015,0.992 0.02,1.486c0.012,1.153 0.094,2.516 -0.192,3.649c-0.743,2.944 -2.586,7.113 -5.191,7.566c-0.757,0.132 -6.97,-0.02 -7.703,0.223c-1.003,0.315 -2.002,0.435 -3.045,0.29c-0.104,-0.014 -0.29,0.066 -0.321,-0.04c-0.933,-3.237 0.085,-7.435 0.804,-8.629c0.983,-1.631 4.868,-4.097 6.747,-4.76c3.724,-1.314 8.281,-0.044 8.881,0.215Z" style="fill:#6e6e6e;fill-opacity:0.25;"/></g><g><path d="M104.014,195.583c-5.383,-1.58 -7.536,-5.416 -6.465,-10.826c0.222,-1.119 0.501,-2.528 1.232,-3.446c2.141,-2.689 6.531,-4.041 9.879,-3.902c4.015,0.166 6.358,4.322 8.999,6.771c1.31,1.213 3.082,2.345 3.791,4.052c0.632,1.523 0.297,3.346 -0.676,4.667c-2.631,3.575 -12.825,2.368 -16.76,2.684Z" style="fill:#a5a39d;"/><path d="M121.646,188.831c0.339,1.383 -0.024,2.917 -0.872,4.068c-2.631,3.575 -12.825,2.368 -16.76,2.684c-4.888,-1.435 -7.112,-4.729 -6.679,-9.373c0.363,3.507 2.589,6.01 6.679,7.211c3.935,-0.316 14.129,0.891 16.76,-2.684c0.416,-0.564 0.715,-1.221 0.872,-1.906Z" style="fill:#878787;"/><path d="M118.092,190.212c-2.004,2.723 -18.502,-2.08 -17.687,-6.2c0.169,-0.853 0.382,-1.925 0.938,-2.625c1.631,-2.047 4.974,-3.077 7.523,-2.972c3.058,0.127 4.843,3.292 6.854,5.157c0.997,0.924 2.347,1.786 2.887,3.086c0.481,1.159 0.226,2.548 -0.515,3.554Z" style="fill:#aeaeae;"/></g><path d="M68.142,185.188c-0.059,-0.074 -0.047,-0.182 0.027,-0.241c0.074,-0.059 0.182,-0.047 0.241,0.027c1.96,2.197 3.909,4.456 6.205,6.319c1.509,1.224 3.157,2.185 4.909,3.053c0.657,0.374 1.328,0.698 1.991,1.039c1.011,0.519 2.016,1.031 3.043,1.495c2.639,1.192 5.35,2.199 8.062,3.344c2.836,1.202 5.757,2.473 8.741,3.484c1.923,0.652 3.872,1.192 5.844,1.517c1.741,0.296 3.487,0.448 5.233,0.548c4.259,0.245 8.536,0.121 12.814,0.358l13.713,1.374l6.177,0.139c1.09,0.066 2.173,0.114 3.238,0.319c0.724,0.139 1.354,0.388 2.088,0.517c0.165,-0.012 0.309,0.113 0.321,0.278c0.012,0.165 -0.112,0.309 -0.277,0.322c-0.743,0.247 -1.419,0.472 -2.189,0.566c-1.051,0.129 -2.111,0.021 -3.175,0.093l-6.206,0.642c-1.875,0.091 -3.745,0.124 -5.625,0.097c-2.767,-0.04 -5.527,-0.195 -8.289,-0.244c-4.289,-0.231 -8.577,-0.057 -12.844,-0.338c-1.902,-0.125 -3.799,-0.347 -5.69,-0.704c-2.173,-0.421 -4.318,-1.068 -6.425,-1.854c-3.041,-1.135 -6.005,-2.545 -8.883,-3.879c-3.156,-1.468 -6.34,-2.706 -9.348,-4.353c-1.322,-0.724 -2.598,-1.535 -3.845,-2.439c-1.197,-1.017 -2.283,-2.091 -3.313,-3.263c-0.471,-0.537 -0.908,-1.085 -1.37,-1.631c-1.806,-2.133 -3.546,-4.325 -5.168,-6.585Zm149.655,17.306c-0.068,-0.064 -0.072,-0.171 -0.008,-0.239c0.064,-0.068 0.171,-0.071 0.239,-0.007c0.166,0.088 0.328,0.142 0.482,0.245c1.344,0.895 2.514,1.902 3.857,2.677c0.911,0.525 1.81,1.081 2.777,1.549c0.655,0.318 1.323,0.551 2.002,0.873c0.58,0.295 1.163,0.645 1.737,1.069c0.723,0.534 1.405,1.161 2.16,1.588c0.456,0.258 0.931,0.445 1.443,0.483c0.803,0.068 1.616,-0.096 2.429,-0.309c1.386,-0.363 2.768,-0.918 4.026,-1.338c0.851,-0.235 1.707,-0.376 2.576,-0.483c0.133,-0.016 0.263,-0.053 0.396,-0.048c0.229,0.01 0.395,0.113 0.624,0.125c0.485,0.025 0.959,-0.086 1.439,-0.158c1.425,-0.296 2.824,-0.829 4.282,-0.897c0.388,-0.018 0.742,0.043 1.128,0.092c0.025,-0.003 0.048,0.015 0.051,0.04c0.002,0.025 -0.016,0.047 -0.04,0.05c-0.358,0.13 -0.663,0.299 -1.021,0.425c-1.365,0.478 -2.752,0.892 -4.125,1.333c-0.507,0.195 -1.052,0.27 -1.535,0.519c-0.145,0.075 -0.205,0.191 -0.351,0.264c-0.838,0.418 -1.787,0.523 -2.647,0.916c-1.3,0.494 -2.713,1.177 -4.164,1.567c-1.1,0.295 -2.218,0.421 -3.303,0.299c-1.111,-0.134 -2.125,-0.633 -3.047,-1.346c-0.671,-0.519 -1.329,-1.108 -1.913,-1.73c-0.377,-0.402 -0.681,-0.826 -1.045,-1.176c-0.626,-0.604 -1.202,-1.196 -1.883,-1.687c-1.63,-1.175 -3.418,-1.999 -5.02,-3.204c-0.396,-0.298 -0.83,-0.569 -1.171,-0.946c-0.151,-0.168 -0.25,-0.355 -0.375,-0.546Zm43.114,-1.107c-0.076,0.008 -0.144,-0.048 -0.152,-0.125c-0.007,-0.076 0.049,-0.144 0.126,-0.151c0.489,-0.065 0.999,-0.121 1.494,-0.223c0.322,-0.066 0.636,-0.153 0.935,-0.276l2.781,-1.201c0.401,-0.155 0.822,-0.183 1.235,-0.31c0.386,-0.119 0.64,-0.343 1.027,-0.459c0.192,-0.057 0.39,-0.073 0.582,-0.123c0.696,-0.137 1.365,-0.427 2.074,-0.585c0.507,-0.113 1.002,-0.128 1.518,-0.188c0.409,-0.047 0.778,-0.126 1.183,-0.105c0.18,0.009 0.298,-0.002 0.453,0.087c0.209,0.12 0.018,0.02 0.177,0.2c-0.01,0.265 0.088,0.049 -0.011,0.295c-0.07,0.175 -0.186,0.25 -0.329,0.374c-0.583,0.505 -1.223,0.868 -1.919,1.227c-0.342,0.177 -0.7,0.314 -1.067,0.424c-0.569,0.171 -1.156,0.247 -1.735,0.315c-0.231,0.018 -0.464,0.062 -0.693,0.025c-0.453,-0.072 -0.777,-0.305 -1.226,-0.405c-0.366,-0.082 -0.733,-0.083 -1.105,-0.053l-2.783,0.925c-0.332,0.108 -0.679,0.177 -1.032,0.222c-0.511,0.065 -1.032,0.082 -1.533,0.11Zm-206.96,-63.744c-0.018,-0.014 -0.02,-0.04 -0.006,-0.058c0.015,-0.018 0.041,-0.021 0.059,-0.006c1.433,1.03 2.975,2.076 4.681,2.627c1.093,0.352 2.222,0.439 3.39,0.32c0.567,0.007 1.135,-0.073 1.696,-0.201c0.923,-0.212 1.826,-0.546 2.715,-0.79c1.679,-0.563 3.267,-1.292 4.927,-1.908c0.415,-0.154 0.836,-0.294 1.264,-0.412c1.449,-0.401 2.916,-0.669 4.392,-0.97c0.669,-0.165 1.337,-0.335 2.016,-0.458c1.017,-0.183 2.038,-0.247 3.061,-0.412c2.503,-0.404 4.987,-0.948 7.459,-1.478c2.453,-0.522 4.844,-1.056 7.258,-1.716c0.135,-0.036 0.266,-0.084 0.407,-0.082c0.21,0.003 0.291,0.076 0.496,0.123c0.047,-0.02 0.101,0.002 0.121,0.049c0.02,0.046 -0.002,0.1 -0.048,0.12c-0.135,0.195 -0.171,0.335 -0.351,0.486c-0.31,0.259 -0.72,0.352 -1.094,0.495c-2.099,0.803 -4.322,1.142 -6.522,1.681c-2.458,0.608 -4.975,1.022 -7.418,1.713c-0.977,0.277 -1.901,0.67 -2.861,0.994c-0.631,0.212 -1.267,0.401 -1.896,0.619c-1.209,0.488 -2.362,1.062 -3.584,1.514c-0.525,0.194 -1.061,0.356 -1.602,0.497c-1.842,0.479 -3.701,0.773 -5.587,1.031c-1.082,0.211 -2.2,0.515 -3.318,0.665c-0.526,0.07 -1.05,0.117 -1.575,0.096c-1.634,-0.231 -3.077,-0.891 -4.451,-1.755c-1.296,-0.815 -2.521,-1.77 -3.629,-2.784Zm-4.54,-1.321c0.067,-0.02 0.139,0.018 0.159,0.086c0.02,0.067 -0.018,0.138 -0.085,0.158c-0.038,0.233 0.097,0.122 -0.05,0.305c-0.115,0.143 -0.336,0.14 -0.508,0.201c-1.934,0.688 -3.874,1.146 -5.868,1.673c-0.793,0.219 -1.655,0.39 -2.502,0.614c-0.611,0.162 -1.177,0.368 -1.79,0.45c-0.41,0.055 -0.817,0.029 -1.222,0.004c-1.045,-0.166 -2.053,-0.532 -2.965,-1.116c-1.856,-1.187 -3.34,-3.114 -4.805,-4.546c-0.887,-0.786 -2.725,-1.869 -3.937,-2.912c-0.249,-0.215 -0.501,-0.401 -0.638,-0.642c-0.098,-0.173 -0.088,-0.275 -0.129,-0.445c-0.088,-0.08 -0.095,-0.217 -0.015,-0.305c0.08,-0.088 0.216,-0.095 0.305,-0.015c0.163,0.022 0.256,-0.021 0.434,0.037c0.247,0.08 0.477,0.251 0.74,0.411c1.396,0.849 3.212,2.026 4.156,2.786c1.356,0.986 2.789,2.272 4.36,3.211c0.288,0.173 0.589,0.31 0.88,0.465c0.645,0.341 1.289,0.657 1.994,0.783c0.737,0.243 1.509,0.406 2.318,0.375c0.868,-0.033 1.726,-0.239 2.529,-0.387c2.003,-0.405 3.918,-0.866 5.902,-1.314c0.176,-0.04 0.357,-0.16 0.529,-0.104c0.223,0.073 0.049,0.054 0.208,0.227Zm193.857,-13.79c-0.039,-0.045 -0.034,-0.113 0.011,-0.152c0.044,-0.039 0.112,-0.034 0.151,0.011l2.838,3.21c0.403,0.464 0.844,0.92 1.254,1.397c0.292,0.339 0.562,0.688 0.792,1.063l1.715,2.733c0.33,1.184 0.555,2.372 0.631,3.573c0.077,1.216 -0.014,2.438 -0.222,3.667c-0.34,1.34 -0.702,2.571 -1.154,3.767c-0.447,1.187 -1.018,2.281 -1.372,3.563c-0.33,1.199 -0.362,2.516 -0.55,3.989c-0.044,0.346 -0.139,0.663 -0.201,1.026c0.001,0.022 -0.016,0.042 -0.038,0.043c-0.023,0.001 -0.042,-0.016 -0.043,-0.038c-0.117,-0.403 -0.244,-0.762 -0.3,-1.152c-0.141,-0.968 -0.035,-1.88 0.019,-2.74c0.047,-0.762 0.149,-1.48 0.226,-2.19c0.121,-1.127 0.179,-2.189 0.36,-3.28c0.186,-1.121 0.453,-2.235 0.609,-3.452c0.22,-1.046 0.308,-2.09 0.314,-3.135c0.007,-1.064 -0.055,-2.127 -0.242,-3.197c0.017,-0.365 0.064,-0.707 -0.022,-1.077c-0.134,-0.576 -0.416,-1.109 -0.628,-1.63c-0.116,-0.265 -0.247,-0.522 -0.403,-0.771c-0.383,-0.611 -0.853,-1.176 -1.26,-1.755l-2.485,-3.473Zm11.513,12.25c-0.023,-0.122 0.057,-0.24 0.179,-0.263c0.122,-0.023 0.24,0.057 0.263,0.179c0.288,1.16 0.335,2.289 0.239,3.406c-0.144,1.681 -0.638,3.317 -1.23,4.964l-1.258,4.076c-0.165,0.752 0.008,1.471 0.032,2.215c0.021,0.651 -0.12,1.18 -0.173,1.837c0.046,0.164 -0.049,0.335 -0.213,0.382c-0.165,0.046 -0.336,-0.049 -0.382,-0.214c-0.404,-0.552 -0.826,-0.948 -1.109,-1.563c-0.427,-0.928 -0.419,-1.98 -0.283,-3.028c0.132,-0.677 0.324,-1.334 0.636,-1.94c0.42,-0.817 0.998,-1.525 1.463,-2.316c0.618,-1.233 1.18,-2.462 1.53,-3.746c0.349,-1.278 0.496,-2.592 0.306,-3.989Zm-124.908,81.077c-0.093,-0.012 -0.159,-0.097 -0.147,-0.19c0.011,-0.094 0.097,-0.16 0.19,-0.148c2.43,0.273 4.887,0.312 7.339,0.2c0.49,-0.023 0.981,-0.039 1.469,-0.091c1.152,-0.123 2.271,-0.35 3.407,-0.543c1.085,-0.182 2.145,-0.413 3.23,-0.584c0.462,-0.072 0.926,-0.121 1.389,-0.177c3.606,-0.44 7.193,-0.974 10.775,-1.561c3.416,-0.558 6.833,-1.127 10.241,-1.779c0.824,-0.144 1.641,-0.316 2.465,-0.458c1.251,-0.214 2.498,-0.397 3.755,-0.569c2.111,-0.288 4.202,-0.495 6.335,-0.586c0.027,-0.004 0.053,0.015 0.057,0.043c0.004,0.027 -0.016,0.053 -0.043,0.057c-3.306,0.753 -6.445,1.932 -9.699,2.859c-0.816,0.233 -1.645,0.413 -2.472,0.606c-5.136,1.087 -10.272,2.131 -15.461,2.819c-2.429,0.321 -4.865,0.633 -7.318,0.712c-1.058,0.034 -2.103,-0.029 -3.163,-0.063c-1.16,-0.036 -2.305,-0.127 -3.471,-0.146c-1.73,-0.029 -3.462,0.03 -5.187,-0.062c-1.236,-0.065 -2.468,-0.169 -3.691,-0.339Z" style="fill:#fff;"/></g></g></svg>