<?xml version="1.0" encoding="UTF-8" standalone="no"?><!DOCTYPE svg PUBLIC "-//W3C//DTD SVG 1.1//EN" "http://www.w3.org/Graphics/SVG/1.1/DTD/svg11.dtd"><svg width="100%" height="100%" viewBox="0 0 300 300" version="1.1" xmlns="http://www.w3.org/2000/svg" xmlns:xlink="http://www.w3.org/1999/xlink" xml:space="preserve" xmlns:serif="http://www.serif.com/" style="fill-rule:evenodd;clip-rule:evenodd;stroke-linejoin:round;stroke-miterlimit:2;"><g id="_250" serif:id="250"><g id="_9" serif:id="9"><g><path d="M33.856,215.563c0.587,-2.916 -0.242,-5.939 -2.236,-8.147c-4.216,-4.737 -6.62,-9.978 -6.62,-15.514c0,-13.537 14.374,-25.316 35.501,-31.317c9.792,-2.769 18.738,-7.94 26.026,-15.042c7.735,-7.527 22.839,-12.638 40.188,-12.638c6.512,-0 12.709,0.72 18.318,2.018c6.525,1.538 13.374,0.914 19.514,-1.778c7.199,-3.158 16.456,-5.064 26.55,-5.064c22.894,-0 41.481,9.806 41.481,21.886c0,0.061 -0,0.122 -0.001,0.184c-0.042,3.484 2.548,6.44 6.008,6.857c20.849,2.508 36.415,12.366 36.415,24.127c-0,13.673 -21.04,24.774 -46.955,24.774c-10.658,-0 -20.491,-1.878 -28.375,-5.039c-5.095,-2.032 -18.66,-2.999 -26.02,-1.623c-23.111,4.323 -30.232,13.869 -30.416,19.557c-0.001,0.014 -0.014,0.004 -0.014,0.006c0,15.973 -24.579,28.941 -54.853,28.941c-30.274,0 -54.853,-12.968 -54.853,-28.941c0,-1.098 0.116,-2.181 0.342,-3.247Z" style="fill:#f9e594;"/><path d="M144.277,214.943c-0.683,1.395 -1.006,2.707 -1.043,3.861c-0.001,0.014 -0.014,0.004 -0.014,0.006c0,15.973 -24.579,28.941 -54.853,28.941c-30.274,0 -54.853,-12.968 -54.853,-28.941c0,-1.098 0.116,-2.181 0.342,-3.247c0.587,-2.916 -0.242,-5.939 -2.236,-8.147c-4.216,-4.737 -6.62,-9.978 -6.62,-15.514c0,-13.537 14.374,-25.316 35.501,-31.317c9.792,-2.769 18.738,-7.94 26.026,-15.042c7.735,-7.527 22.839,-12.638 40.188,-12.638c6.512,-0 12.709,0.72 18.318,2.018c6.525,1.538 13.374,0.914 19.514,-1.778c7.199,-3.158 16.456,-5.064 26.55,-5.064c22.894,-0 41.481,9.806 41.481,21.886c0,0.061 -0,0.122 -0.001,0.184c-0.042,3.484 2.548,6.44 6.008,6.857c20.849,2.508 36.415,12.366 36.415,24.127c0,13.673 -21.04,24.774 -46.955,24.774c-10.658,-0 -20.491,-1.878 -28.375,-5.039c-5.095,-2.032 -18.66,-2.999 -26.02,-1.623c-18.402,3.442 -26.666,10.196 -29.363,15.676c-0.004,0.008 -0.006,0.013 -0.01,0.02Zm-3.057,3.404c0.257,-2.925 -0.329,-6.876 3.227,-10.501c4.677,-4.768 13.983,-6.46 29.033,-9.275c8.002,-1.496 21.728,-0.704 27.268,1.505l0.007,0.003c7.461,2.992 16.963,0.291 27.048,0.291c14.556,0 30.165,0.109 38.166,-5.649c4.47,-3.216 7.656,-9.587 7.656,-13.877c-0,-3.609 -2.959,-8.997 -6.275,-11.871c-5.996,-5.197 -17.688,-6.517 -29.253,-7.908c-5.531,-0.666 -9.673,-5.392 -9.606,-10.963l0,-0.015c0.001,-0.04 0.001,-0.08 0.001,-0.12c0,-3.653 -2.503,-6.867 -6.308,-9.606c-7.005,-5.041 -18.343,-8.194 -31.087,-8.194c-9.468,-0 -18.156,1.758 -24.909,4.72c-6.947,3.047 -14.696,3.754 -22.08,2.016c-5.326,-1.232 -11.209,-1.912 -17.393,-1.912c-16.086,0 -30.166,4.501 -37.336,11.479c-7.775,7.577 -17.319,13.092 -27.761,16.046c-9.914,2.816 -20.01,4.227 -25.861,9.282c-5.224,4.514 -6.671,12.433 -6.671,18.104c0,4.582 5.001,8.586 8.471,12.485c2.862,3.169 2.358,7.41 1.515,11.596c-0.003,0.013 -0.005,0.027 -0.008,0.04c-1.232,5.484 0.546,15.17 5.974,19.075c9.439,6.793 26.448,11.278 43.62,11.278c17.171,0 28.661,-9.084 38.1,-15.877c5.428,-3.905 14.409,-6.189 14.409,-11.399c0,-0.265 0.018,-0.516 0.053,-0.753Z" style="fill:#dfc86d;"/><path d="M241.982,171.06c1.043,1.396 0.677,2.581 -1.225,3.006l-105.62,23.6l7.963,2.918l-0.131,3.505c0.062,0.799 -0.523,1.422 -1.794,1.705l-40.845,9.127c-2.796,0.625 -7.858,-0.628 -11.296,-2.794l-33,-20.794c-2.371,-1.495 -3.356,-3.036 -2.821,-4.054c0.078,-0.149 0.189,-0.287 0.332,-0.411l2.121,-2.625l17.473,-2.051l-17.105,-10.778c-2.378,-1.499 -3.361,-3.045 -2.817,-4.063c0.115,-0.215 0.299,-0.406 0.552,-0.569l1.919,-1.981l183.538,3.23l2.04,2.242c0.285,0.267 0.524,0.531 0.716,0.787Z" style="fill:#669e2c;"/><path d="M135.471,194.267l4.745,2.99c3.348,2.109 3.856,4.316 1.134,4.924l-39.768,8.886c-2.721,0.608 -7.65,-0.611 -10.998,-2.721l-32.129,-20.245c-3.348,-2.11 -3.856,-4.316 -1.134,-4.925l17.788,-3.974l-16.654,-10.494c-3.348,-2.11 -3.856,-4.317 -1.134,-4.925l124.813,-27.888c2.722,-0.608 7.65,0.611 10.998,2.721l44.038,27.749c3.348,2.11 3.857,4.317 1.135,4.925l-102.834,22.977Z" style="fill:#8bc350;"/></g><g><path d="M186.558,136.048l3.38,-76.235l68.858,15.057l1.888,91.359c0.001,0.015 0.002,0.029 0.002,0.044c0.018,0.624 -0.462,1.109 -1.468,1.334l-16.971,3.792l-0.089,-0.084c-0.053,-0.084 -0.112,-0.169 -0.176,-0.255c-0.192,-0.256 -0.431,-0.52 -0.716,-0.787l-2.04,-2.242c-0.482,-0.541 -1.169,-1.107 -2.056,-1.666l-0.845,-0.532l-0.09,-0.085l-0.11,-0.041l-42.993,-27.091c-1.911,-1.204 -4.337,-2.118 -6.574,-2.568Z" style="fill:#9f6036;"/><path d="M240.565,82.46c-0.107,1.249 -0.197,2.502 -0.243,3.75c-0.045,1.217 -0.057,2.429 0.023,3.63c0.197,3.34 1.368,6.55 1.795,9.875c0.121,0.942 0.147,1.881 0.143,2.832c0.155,3.164 0.074,6.309 -0.098,9.46c-0.389,7.107 -1.279,14.192 -1.171,21.349c0.231,8.072 2.228,15.892 2.188,23.901c-0.01,2.057 -0.347,4.031 -0.655,6.087c-0.336,-2.029 -0.887,-3.924 -1.235,-5.929c-1.375,-7.934 -2.606,-15.821 -3.166,-23.919c-0.594,-7.194 -0.124,-14.385 -0.277,-21.561c-0.064,-2.984 -0.261,-5.954 -0.66,-8.923c-0.156,-0.822 -0.416,-1.606 -0.608,-2.418c-0.486,-2.048 -0.948,-4.108 -1.365,-6.166c-0.283,-1.394 -0.503,-2.797 -0.601,-4.215c-0.119,-1.865 -0.087,-3.752 0.059,-5.639c0.019,-0.242 0.04,-0.484 0.062,-0.726l5.809,-1.388Zm12.076,-2.885c0.025,0.115 0.049,0.231 0.074,0.348c0.265,1.233 0.407,2.494 0.516,3.706c0.184,2.256 0.189,4.569 0.367,6.849c0.068,0.88 0.156,1.754 0.309,2.615c0.267,1.556 0.87,3.002 1.117,4.522c0.21,1.293 0.257,2.576 0.026,3.927c-0.314,2.712 -0.832,5.338 -1.496,7.957c-0.195,0.77 -0.351,1.538 -0.616,2.286c-0.12,0.337 -0.32,0.605 -0.419,0.949c-0.677,2.344 -0.689,4.828 -0.804,7.272c-0.087,2.689 -0.02,5.367 0.118,8.041c0.328,6.356 1.053,12.683 1.137,19.055c-0.008,5.183 -0.156,10.643 0.194,15.959c0.127,1.944 0.299,3.871 0.621,5.76l-3.063,0.684c-0.56,-1.994 -0.944,-4.044 -1.167,-6.133c-0.577,-5.407 -0.12,-11.001 -0.065,-16.29c0.158,-6.325 -0.322,-12.628 -0.407,-18.946c-0.037,-2.749 -0.002,-5.499 0.192,-8.255c0.14,-2.525 0.831,-4.988 0.892,-7.509c0.009,-0.36 -0.1,-0.678 -0.111,-1.037c-0.024,-0.788 0.061,-1.561 0.102,-2.348c0.13,-2.528 0.248,-5.029 0.098,-7.581l-2.185,-7.16c-0.228,-1.053 -0.385,-2.122 -0.504,-3.201c-0.25,-2.27 -0.306,-4.58 -0.55,-6.826c-0.104,-1.044 -0.376,-2.104 -0.489,-3.184l6.113,-1.46Zm2.856,88.863c-0.128,-1.434 -0.188,-2.875 -0.232,-4.307c0.092,-1.817 0.208,-3.618 0.544,-5.4c0.067,-0.356 0.14,-0.695 0.253,-1.039c0.183,-0.556 0.474,-0.97 0.638,-1.532c0.245,-0.843 0.342,-1.706 0.428,-2.58c0.084,-0.856 0.07,-1.72 0.06,-2.584c-0.15,-4.575 -1.206,-8.908 -1.324,-13.433c-0.026,-1.019 -0.005,-2.047 0.097,-3.086c0.005,-0.046 -0.011,-0.099 0.016,-0.137c0.163,-0.229 0.118,-0.059 0.373,-0.18c0.003,-0.037 0.035,-0.065 0.072,-0.063c0.037,0.003 0.065,0.035 0.062,0.072c0.169,0.178 0.254,0.13 0.347,0.357c0.168,0.414 0.023,0.888 0.033,1.33c0.117,5.138 1.307,9.957 1.542,15.092c0.046,0.801 0.025,1.601 0.063,2.399c0.038,0.806 0.079,1.597 0.182,2.397c0.142,1.111 0.49,2.087 0.6,3.2c0.168,1.695 0.069,3.391 0.233,5.092c0.027,1.143 0.115,2.284 0.224,3.426c-0.146,0.056 -0.31,0.105 -0.49,0.145l-3.721,0.831Z" style="fill:#ab6638;"/><path d="M189.914,137.028c-1.109,-0.425 -2.255,-0.759 -3.356,-0.98l3.38,-76.235l5.009,1.095c-0.218,2.621 -0.446,5.243 -0.483,7.881c-0.032,4.024 0.307,8.017 0.347,12.029c0.016,1.64 -0.015,3.282 -0.162,4.931l-1.663,12.249c-0.186,3.137 -0.294,6.254 -0.351,9.37c-0.037,2.048 -0.035,4.088 -0.127,6.14c-0.056,1.265 -0.126,2.528 -0.246,3.799c-0.422,3.376 -1.48,6.752 -2.019,10.132c-0.144,0.903 -0.266,1.803 -0.319,2.708c-0.132,2.276 -0.119,4.578 -0.01,6.881Zm7.899,-75.493l18.67,4.082c-0.709,7.519 -1.252,15.065 -2.175,22.556c-0.53,4.417 -1.451,8.713 -2.026,13.086c-0.25,1.892 -0.433,3.798 -0.499,5.733c-0.102,3.412 -0.134,6.83 -0.117,10.25c0.026,5.115 0.151,10.234 0.205,15.338c0.037,3.134 0.506,6.222 0.648,9.345c0.014,0.307 -0.001,0.615 0.054,0.918c0.093,0.514 0.293,0.906 0.427,1.416c0.229,-0.487 0.468,-0.869 0.592,-1.388c0.075,-0.311 0.062,-0.635 0.071,-0.954c0.094,-3.12 -0.499,-6.212 -0.48,-9.34c0.025,-5.103 -0.002,-10.221 0.031,-15.334c0.022,-3.402 0.067,-6.803 0.194,-10.196c0.063,-1.883 0.243,-3.737 0.48,-5.579c0.564,-4.38 1.456,-8.687 1.967,-13.113c0.838,-7.458 1.334,-14.965 1.941,-22.45l3.772,0.824l-0.123,0.592c-0.464,2.991 -0.928,6.06 -1.265,9.112c-0.148,1.343 -0.287,2.675 -0.35,4.008c-0.175,2.647 -0.278,5.272 -0.358,7.922c-0.112,3.664 -0.277,7.296 -0.354,10.96c-0.051,2.385 -0.021,4.771 -0.141,7.159c-0.101,2.745 -0.428,5.466 -0.645,8.198c-0.148,1.863 -0.216,3.724 -0.323,5.59c-0.183,3.167 -0.336,6.316 -0.375,9.49c-0.115,3.724 0.347,7.384 0.579,11.075c0.096,1.514 0.12,3.033 0.097,4.554c-0.065,2.856 -0.479,5.698 -0.882,8.537l-11.328,-7.138c0.23,-1.037 0.385,-2.102 0.656,-3.132c0.386,-1.544 0.844,-3.089 1.162,-4.676c0.33,-1.649 0.503,-3.325 0.591,-4.981c0.042,-0.893 -0.015,-1.8 -0.141,-2.71c-0.244,-1.761 -0.758,-3.535 -0.931,-5.26c-0.138,-1.328 -0.183,-2.68 -0.193,-4.039c-0.016,-2.118 0.054,-4.249 0.085,-6.329l0.453,-8.519c0.056,-2.614 -0.084,-5.274 0.082,-7.916c0.07,-1.109 0.224,-2.206 0.406,-3.291c0.325,-1.843 0.944,-3.597 1.4,-5.403c0.205,-0.812 0.38,-1.635 0.486,-2.479c0.34,-2.728 0.499,-5.492 0.612,-8.259c0.056,-1.369 0.151,-2.736 0.155,-4.103c0.003,-1.379 -0.09,-2.736 -0.096,-4.106c0.018,-0.212 -0.139,-0.399 -0.352,-0.417c-0.212,-0.018 -0.399,0.139 -0.417,0.351c-0.199,1.09 -0.419,2.165 -0.542,3.271c-0.482,4.333 -0.445,8.743 -1.065,13.038c-0.107,0.771 -0.278,1.522 -0.477,2.263c-0.494,1.842 -1.154,3.628 -1.517,5.51l-1.683,11.274l-1.253,8.639c-0.131,2.112 -0.321,4.273 -0.388,6.427c-0.046,1.499 -0.026,2.993 0.082,4.463c0.138,1.789 0.592,3.642 0.83,5.467c0.085,0.652 0.146,1.298 0.12,1.937l-0.958,9.216c-0.058,0.604 -0.137,1.205 -0.215,1.805l-5.596,-3.527c0.454,-2.049 1.102,-4.049 1.418,-6.142l0.609,-7.835l2.183,-17.01l-0.079,-7.421l0.866,-9.606c0.038,-1.387 0.037,-2.77 0.006,-4.15c-0.073,-3.204 -0.285,-6.395 -0.334,-9.61c-0.077,-4.118 0.194,-8.262 0.071,-12.395c-0.031,-1.043 -0.146,-2.071 -0.231,-3.109c-0,-0.17 -0.138,-0.308 -0.308,-0.308c-0.17,0.001 -0.308,0.139 -0.307,0.309c-0.081,1.035 -0.211,2.057 -0.265,3.096c-0.217,4.139 -0.19,8.297 -0.134,12.426l0.41,13.72l-0.514,9.602c-0.062,1.486 -0.004,2.962 -0.091,4.435c-0.058,0.973 -0.203,1.93 -0.364,2.901l-2.182,16.978l-0.592,7.789c-0.284,1.915 -0.852,3.752 -1.286,5.623l-3.14,-1.979c-0.242,-0.153 -0.493,-0.301 -0.751,-0.444c-0.121,-2.637 -0.249,-5.273 -0.057,-7.875c0.082,-1.228 0.277,-2.453 0.555,-3.67c0.68,-2.978 1.751,-5.914 2.277,-8.887c0.533,-2.608 0.933,-5.206 1.195,-7.828c0.385,-3.847 0.509,-7.708 0.893,-11.587c0.268,-3.264 1.064,-6.45 1.468,-9.684c0.108,-0.865 0.178,-1.734 0.221,-2.606c0.08,-1.799 0.052,-3.584 -0.058,-5.363c-0.248,-3.994 -0.857,-7.947 -1.064,-11.957c-0.138,-2.393 -0.054,-4.789 0.002,-7.18Zm25.6,5.598l7.7,1.684c0.085,1.83 0.193,3.664 0.235,5.501c-0.09,-0.09 -0.214,-0.147 -0.351,-0.146c-0.27,-0 -0.49,0.22 -0.49,0.491c-0.275,0.68 -0.606,1.171 -0.789,1.884c-0.157,0.614 -0.158,1.253 -0.201,1.886c-0.349,5.119 -0.442,10.295 -0.023,15.389c0.324,3.951 1.1,7.817 1.589,11.724c0.136,1.537 0.273,3.07 0.394,4.6c0.022,0.62 0.029,1.243 0.019,1.868c-0.021,1.265 -0.13,2.525 -0.281,3.78c-0.232,1.945 -0.561,3.881 -0.821,5.812c-0.285,2.077 -0.519,4.186 -0.738,6.303c-0.327,3.159 -0.608,6.336 -0.832,9.458c-0.472,4.183 -0.713,8.397 -0.816,12.626c-0.027,1.12 -0.063,2.238 -0.044,3.358c0.027,1.674 0.15,3.344 0.23,5.009c0.055,0.806 0.089,1.612 0.108,2.418l-7.522,-4.74c0.369,-3.51 0.601,-7.036 0.712,-10.562c0.155,-3.138 -0.039,-6.267 -0.008,-9.401c0.02,-2 0.168,-3.987 0.437,-5.984c0.646,-4.646 1.709,-9.195 2.357,-13.836c0.442,-3.173 0.628,-6.377 0.728,-9.586c0.021,-2.68 0.011,-5.357 -0.196,-8.023c-0.476,-6.116 -1.547,-12.12 -2.078,-18.238c-0.116,-1.684 -0.162,-3.384 -0.085,-5.096c0.116,-2.601 0.453,-5.201 0.715,-7.749c0.015,-0.143 0.032,-0.287 0.051,-0.43Zm8.252,68.63c0.022,0.17 0.045,0.34 0.069,0.509c0.481,3.37 0.213,7.058 1.034,10.343c1.349,5.396 1.921,10.926 1.921,16.695c0,0.504 0.008,1.005 0.021,1.505l-2.486,-1.566c0.074,-1.677 0.111,-3.355 0.093,-5.036c-0.06,-1.934 -0.067,-3.876 -0.164,-5.817c-0.143,-2.896 -0.416,-5.778 -0.517,-8.674c-0.072,-2.066 -0.101,-4.123 -0.067,-6.182c0.031,-0.59 0.063,-1.183 0.096,-1.777Z" style="fill:#854f2b;"/><path d="M232.044,86.345c-3.824,0.608 -8.21,0.301 -10.6,-0.606c-1.052,-0.399 -2.06,-0.885 -2.954,-1.448l-28.832,-18.168l0.276,-6.232c-0.002,0.689 0.712,1.581 2.092,2.451l28.842,18.174c2.428,1.53 6.001,2.414 7.975,1.973l28.684,-6.41c0.9,-0.201 1.313,-0.643 1.266,-1.209l0.003,0l0.258,5.421c-0.178,0.052 -0.362,0.1 -0.554,0.143l-26.456,5.911Z" style="fill:#669e2c;"/><path d="M227.863,54.335l28.842,18.174c2.427,1.529 2.796,3.129 0.822,3.57l-28.684,6.41c-1.974,0.441 -5.547,-0.443 -7.975,-1.973l-28.842,-18.174c-2.427,-1.53 -2.796,-3.13 -0.822,-3.571l28.684,-6.409c1.974,-0.441 5.547,0.443 7.975,1.973Z" style="fill:#8bc350;"/><path d="M193.046,58.36c-0.704,-1.099 -0.812,-2.283 -0.607,-3.512c1.739,0.607 3.112,1.615 3.553,3.65c-0.224,-1.445 -0.07,-2.724 0.876,-3.65c1.136,0.528 1.784,1.435 1.752,2.872l-0.049,1.557l-5.548,0.614l0.023,-1.531Z" style="fill:#8bc350;"/></g><g><ellipse cx="211.783" cy="165.135" rx="8.283" ry="4.37" style="fill:#669e2c;"/><g><path d="M206.403,164.503c-0.234,-15.83 2.445,-29.939 12.551,-39.659l4.051,2.29c-5.419,10.768 -7.608,22.949 -5.673,36.935c0.04,0.142 0.061,0.287 0.061,0.434c0,1.601 -2.462,2.9 -5.495,2.9c-3.032,-0 -5.495,-1.299 -5.495,-2.9Z" style="fill:#906344;"/><path d="M216.647,153.251c-0.005,0.338 -0.008,0.677 -0.008,1.017c-1.052,0.034 -2.135,-0.012 -3.171,-0.13c-2.262,-0.257 -4.533,-0.851 -6.54,-1.927c0.043,-0.381 0.088,-0.76 0.137,-1.137c0.682,0.455 1.412,0.845 2.197,1.152c1.432,0.56 3.024,0.798 4.544,0.946c0.668,0.066 1.327,0.067 1.997,0.07c0.283,0.002 0.565,0.012 0.844,0.009Z" style="fill:#b58767;"/><path d="M218.532,139.011c-0.042,0.162 -0.083,0.325 -0.124,0.488c-0.653,-0.173 -1.294,-0.394 -1.868,-0.699c-1.055,-0.56 -2.05,-1.176 -2.947,-1.965c-0.725,-0.637 -1.322,-1.369 -1.838,-2.156c0.148,-0.295 0.299,-0.588 0.454,-0.879c0.986,1.612 2.303,3.001 3.987,4.028c0.698,0.425 1.495,0.98 2.336,1.183Z" style="fill:#b58767;"/><path d="M220.6,132.558c-0.119,0.309 -0.236,0.62 -0.35,0.932c-0.322,-0.087 -0.64,-0.189 -0.953,-0.304c-1.911,-0.702 -3.443,-1.955 -4.499,-3.551c0.199,-0.276 0.402,-0.55 0.61,-0.822c0.77,0.986 1.726,1.805 2.774,2.519c0.688,0.468 1.599,1.031 2.418,1.226Z" style="fill:#b58767;"/><path d="M217.331,144.907c-0.027,0.176 -0.052,0.353 -0.078,0.53c-0.5,0.079 -1.028,0.075 -1.422,0.082c-0.217,0.004 -0.917,0.01 -1.21,-0.006c-2.145,-0.117 -4.405,-1.012 -5.986,-2.528c0.075,-0.279 0.152,-0.557 0.232,-0.833c1.486,1.585 3.666,2.563 5.834,2.677c0.711,0.038 1.746,0.217 2.63,0.078Z" style="fill:#b58767;"/><path d="M216.935,160.626c0.029,0.319 0.061,0.638 0.094,0.959c-1.172,0.384 -2.356,0.711 -3.592,0.852c-1.931,0.221 -4.125,0.077 -5.989,-0.518c-0.353,-0.112 -0.705,-0.268 -1.053,-0.443c0.002,-0.133 0.003,-0.267 0.005,-0.4c2.569,1.007 5.475,0.934 8.131,0.315c0.725,-0.169 1.402,-0.389 2.099,-0.652c0.097,-0.037 0.2,-0.074 0.305,-0.113Z" style="fill:#b58767;"/><path d="M211.286,135.648c1.872,-4.006 4.376,-7.638 7.668,-10.804l4.051,2.29c-2.028,4.031 -3.604,8.261 -4.681,12.708c-3.162,-0.237 -5.666,-1.574 -7.038,-4.194Z" style="fill:#6b4124;fill-opacity:0.5;"/></g><g><g><path d="M235.805,134.159c-1.304,-6.251 -5.587,-11.346 -12.718,-12.068c-2.316,3.54 -2.7,6.603 -1.994,9.342c2.725,-2.343 5.763,-2.401 8.973,-1.201c-3.232,0.479 -5.281,2.679 -6.383,6.256c1.334,1.781 2.967,3.435 4.543,5.027c1.605,-0.695 3.241,-0.926 4.915,-0.587c-1.078,0.546 -1.994,1.516 -2.806,2.753c1.538,1.643 2.829,3.249 3.446,4.895c1.664,-3.271 2.474,-6.879 2.45,-10.354c-1.333,-1.945 -2.89,-3.103 -4.592,-3.759c1.512,-0.863 2.9,-0.964 4.166,-0.304Z" style="fill:#bcf146;"/><path d="M233.141,140.928c-1.078,0.546 -1.994,1.516 -2.806,2.753c1.538,1.643 2.829,3.249 3.446,4.895c0.02,-2.271 -0.191,-4.917 -0.64,-7.648Zm0,-0c-0.597,-3.644 -1.617,-7.438 -3.075,-10.696c-3.232,0.479 -5.281,2.679 -6.383,6.256c1.334,1.781 2.967,3.435 4.543,5.027c1.605,-0.695 3.241,-0.926 4.915,-0.587Zm-3.075,-10.696c-1.713,-3.83 -4.031,-6.917 -6.979,-8.141c-2.316,3.54 -2.7,6.603 -1.994,9.342c2.725,-2.343 5.763,-2.401 8.973,-1.201Z" style="fill:#a9de35;"/></g><g><path d="M211.509,131.656c-3.871,0.974 -8.53,2.335 -13.694,5.459c0.017,-1.732 0.216,-3.364 0.57,-4.886l2.316,0.034l-2.023,-1.153c0.444,-1.519 1.047,-2.916 1.776,-4.184c1.7,0.171 3.252,0.516 4.397,1.337c-0.493,-1.848 -1.921,-2.606 -3.296,-3.027c5.292,-7.197 15.038,-9.061 21.532,-3.145c-0.166,6.297 -3.467,7.54 -8.841,8.888c-1.51,-2.016 -3.255,-3.844 -5.154,-5.548c1.123,1.977 2.089,4.003 2.417,6.225Z" style="fill:#85b41c;"/><path d="M209.092,125.431c1.123,1.977 2.089,4.003 2.417,6.225c-3.871,0.974 -8.53,2.335 -13.694,5.459c1.792,-4.778 6.375,-8.907 11.277,-11.684Zm5.154,5.548c-1.51,-2.016 -3.255,-3.844 -5.154,-5.548c5.361,-3.037 11.103,-4.457 13.995,-3.34c-0.166,6.297 -3.467,7.54 -8.841,8.888Z" style="fill:#7ca916;"/></g><g><path d="M212.795,115.6c-0.242,-2.155 0.474,-4.311 1.873,-6.466c0.729,1.167 1.598,2.149 2.846,2.635c2.475,-0.893 5.601,-0.518 8.944,1.755c0.517,0.351 0.678,1.01 0.585,1.826c-1.696,-0.761 -3.433,-0.811 -5.207,-0.257c1.74,-0.135 3.342,0.414 4.744,1.966c-0.71,1.792 -2.095,3.8 -3.493,5.032c-4.604,-0.685 -8.537,-2.42 -9.745,-4.308c1.646,-2.677 3.641,-4.501 5.979,-5.486c-2.617,0.354 -5.035,1.043 -6.526,3.303Z" style="fill:#8bae3d;"/><path d="M219.321,112.297c2.642,1.918 5.853,7.955 3.766,9.794c-4.604,-0.685 -8.537,-2.42 -9.745,-4.308c1.646,-2.677 3.641,-4.501 5.979,-5.486Zm-6.526,3.303c-0.242,-2.155 0.474,-4.311 1.873,-6.466c0.729,1.167 1.598,2.149 2.846,2.635c0.502,-0.181 1.136,0.041 1.807,0.528c-2.617,0.354 -5.035,1.043 -6.526,3.303Z" style="fill:#749230;"/></g><g><path d="M220.747,115.783c1.097,1.419 1.902,3.417 2.34,6.308c-6.598,2.017 -11.598,1 -15.139,-1.751l3.679,-4.849l-5.606,3.028c-2.299,-2.619 -3.74,-6.123 -4.387,-9.908c6.493,3.581 12.708,2.737 16.835,5.17l-1.074,3.828l3.352,-1.826Z" style="fill:#accf5e;"/><path d="M211.627,115.491c1.998,0.732 3.941,1.293 5.768,2.118c2.077,0.938 4.004,2.218 5.692,4.482c-6.598,2.017 -11.598,1 -15.139,-1.751l3.679,-4.849Zm-0,0l-5.606,3.028c-2.299,-2.619 -3.74,-6.123 -4.387,-9.908c3.304,4.026 6.723,5.682 9.993,6.88Z" style="fill:#9dc73f;"/></g><g><path d="M238.746,124.229c1.7,1.537 3.411,3.137 5.144,4.448c-1.849,0.715 -3.63,1.239 -5.331,1.54l-1.705,-3.269l0.199,3.479c-1.055,0.105 -2.077,0.116 -3.062,0.024l0.414,-5.123l-2.66,4.715c-3.484,-0.967 -6.421,-3.476 -8.658,-7.952c2.425,-3.036 4.804,-3.843 7.167,-3.379l-0.402,3.569l2.438,-2.875c1.755,0.832 3.506,2.218 5.266,3.761l-1.899,2.979l3.089,-1.917Z" style="fill:#aeda4d;"/><path d="M231.745,130.043c-3.484,-0.967 -6.421,-3.476 -8.658,-7.952c3.562,-2.6 7.198,0.465 11.318,3.237l-2.66,4.715Zm2.66,-4.715c2.878,1.937 5.993,3.731 9.485,3.349c-1.849,0.715 -3.63,1.239 -5.331,1.54l-1.705,-3.269l0.199,3.479c-1.055,0.105 -2.077,0.116 -3.062,0.024l0.414,-5.123Z" style="fill:#a4cc4c;"/></g><g><path d="M230.531,112.297c4.453,-0.705 9.281,3.569 11.264,6.849c-1.041,-0.306 -1.981,-0.408 -2.864,-0.368l-2.236,-2.86l0.97,2.968l-3.29,-3.395l1.927,3.803c-2.092,0.689 -4.107,1.89 -6.791,2.539l-2.233,-4.134l0,4.509c-1.24,0.118 -2.621,0.102 -4.191,-0.117c1.321,-5.223 3.331,-7.994 5.57,-9.17l2.301,3.081l-0.427,-3.705Z" style="fill:#accf5e;"/><path d="M227.278,117.699l0,4.509c-1.24,0.118 -2.621,0.102 -4.191,-0.117c1.358,-1.943 2.773,-3.371 4.191,-4.392Zm0,0c2.454,-1.766 4.915,-2.312 7.105,-2.192l1.919,3.787c-2.092,0.689 -4.107,1.89 -6.791,2.539l-2.233,-4.134Zm7.113,-2.192c3.692,0.205 6.61,2.304 7.404,3.639c-1.041,-0.306 -1.981,-0.408 -2.864,-0.368l-2.236,-2.86l0.97,2.968l-3.274,-3.379Z" style="fill:#9dc73f;"/></g><g><path d="M222.264,137.556c-1.385,2.118 -3.385,4.088 -6.032,5.904c-0.567,-2.078 -0.985,-4.02 -1.245,-5.82l2.827,-0.579l-2.982,-0.652c-0.12,-1.113 -0.175,-2.166 -0.162,-3.16l4.187,-0.474l-4.09,-1.269c0.3,-2.91 1.28,-5.206 2.996,-6.839l2.684,2.168l-1.681,-2.988c1.175,-0.825 2.612,-1.414 4.321,-1.756c1.949,4.896 2.125,9.368 0.329,13.368l-4.955,-1.228l3.803,3.325Z" style="fill:#accf5e;"/><path d="M218.461,134.231l3.803,3.325c-1.385,2.118 -3.385,4.088 -6.032,5.904c0.9,-3.301 1.581,-6.413 2.229,-9.229Zm4.955,1.228l-4.955,-1.228c1.234,-5.361 2.348,-9.651 4.626,-12.14c1.949,4.896 2.125,9.368 0.329,13.368Z" style="fill:#9dc73f;"/></g></g></g><g><g><path d="M93.65,218.371c0.016,0.529 -0.391,0.939 -1.243,1.13l-19.182,4.286l-22.248,-3.414l-3.643,-2.295c-1.514,-0.954 -2.21,-1.936 -2.019,-2.635l3.146,-70.954l41.797,2.348c0,-0 3.392,71.522 3.392,71.534Z" style="fill:#9f6036;"/><path d="M78.968,222.504l-3.955,0.883c-0.018,-0.218 -0.046,-0.433 -0.088,-0.644c-0.403,-2.014 0.15,-4.193 -0.189,-6.226c-0.288,-1.728 -0.254,-3.541 -0.471,-5.282c-0.252,-2.015 0.193,-4.12 -0.095,-6.131c-0.305,-2.141 -0.108,-4.355 -0.377,-6.508c-0.407,-3.26 -0.615,-6.532 -0.943,-9.81c-0.377,-3.772 -0.98,-7.477 -1.604,-11.225c-0.488,-2.932 -0.505,-5.94 -1.037,-8.866c-0.422,-2.318 -0.993,-4.642 -1.226,-6.98c-0.103,-1.022 -0.548,-2.002 -0.661,-3.019c-0.209,-1.885 0.114,-3.892 0.283,-5.753c0.222,-2.442 0.405,-4.85 0.457,-7.297l6.361,0.358c-0.7,1.957 -0.852,3.974 -1.064,6.09c-0.376,3.764 -0.607,7.645 -0.189,11.413c0.225,2.019 0.984,4.416 1.698,6.32c0.518,1.381 0.782,3.076 0.944,4.527c0.157,1.421 0.596,2.821 0.754,4.245c0.831,7.479 0.65,15.173 -0.283,22.638c-0.213,1.707 -0.089,3.805 0.189,5.471c0.211,1.265 0.007,2.597 0.188,3.867c0.353,2.47 0.505,5.049 0.755,7.546c0.147,1.472 0.351,2.927 0.553,4.383Zm8.972,-2.005l-6.343,1.417c-0.024,-0.102 -0.047,-0.203 -0.069,-0.305c-0.705,-3.17 0.159,-5.933 0.471,-9.055c0.253,-2.524 0.818,-5.029 1.132,-7.546c0.568,-4.543 0.185,-8.99 -0.377,-13.489c-0.243,-1.941 0.101,-4.089 0.472,-5.942c0.433,-2.168 0.512,-4.406 1.037,-6.508c0.462,-1.849 0.377,-3.866 0.755,-5.754c0.169,-0.847 -0.17,-1.795 -0,-2.641c0.194,-0.972 0.182,-1.95 0.377,-2.924c0.066,-0.332 0.094,-0.697 0.094,-1.038l0,1.887c0,1.459 0.017,2.995 -0.188,4.433c-0.509,3.563 -0.755,7.117 -0.755,10.753c0,1.236 -0.242,2.752 0,3.961c0.285,1.425 0.31,2.978 0.472,4.434c0.242,2.176 0.796,4.358 1.226,6.508c0.447,2.235 0.59,4.459 1.038,6.697c0.301,1.506 0.094,3.274 0.094,4.811c-0,2.752 0.074,5.669 0.377,8.395c0.071,0.634 0.129,1.27 0.187,1.906Zm-7.021,-74.187l5.01,0.282c-0.119,1.027 -0.299,2.06 -0.44,3.047c-0.221,1.547 -0.475,3.033 -0.849,4.528c-0.277,1.111 -1.253,1.968 -1.603,3.018c-0.445,1.334 -1.228,2.658 -1.415,4.151c-0.177,1.414 -0.218,2.852 -0.566,4.244c-0.121,0.486 -0.283,1.104 -0.283,1.604c0,0.253 -0.094,0.754 -0.094,0.754c-0,0 0.037,-0.381 -0,-0.566c-0.093,-0.465 -0.076,-0.965 -0.189,-1.415c-0.322,-1.29 -0.209,-2.743 -0.471,-4.056c-0.148,-0.737 -0.007,-1.535 -0.189,-2.263c-0.105,-0.42 -0.345,-1.229 -0.189,-1.698c0.208,-0.622 0.295,-1.416 0.378,-2.075c0.233,-1.867 0.849,-3.666 0.849,-5.565c-0,-1.248 -0.084,-2.711 0.051,-3.99Z" style="fill:#ab6638;"/><path d="M47.277,218.042c-1.474,-0.943 -2.151,-1.908 -1.962,-2.599l3.146,-70.954l2.034,0.114l-0,2.209c-0,2.553 0.305,5.359 -0.189,7.828c-0.249,1.249 0.063,2.612 -0.188,3.868c-0.115,0.574 0.115,1.218 -0,1.792c-0.454,2.267 -0.1,4.737 -0.661,6.98c-0.998,3.994 -0.978,8.346 -1.98,12.357c-0.173,0.691 -0,1.641 -0,2.358c-0,1.827 0.017,3.546 0.397,5.249c0.671,-3.524 1.751,-7.041 2.527,-10.532c0.249,-1.12 0.687,-2.264 0.849,-3.395c0.448,-3.14 0.774,-6.273 1.226,-9.433c0.181,-1.266 -0.087,-2.601 0.094,-3.867c0.325,-2.277 0.242,-4.59 0.472,-6.886c0.277,-2.776 0.457,-5.561 0.53,-8.355l1.999,0.113c-0.266,2.694 -0.265,5.409 -0.265,8.148c-0,1.371 0.018,2.923 0.283,4.245c0.184,0.922 -0,2.078 -0,3.018c-0,2.781 -0.218,5.523 -0.755,8.206c-0.406,2.031 -1.294,4.019 -1.698,6.037c-0.16,0.8 -0.686,1.543 -0.849,2.358c-0.698,3.488 -2.15,6.866 -2.735,10.376c-0.46,2.755 -0.661,5.575 -0.661,8.489c0,6.322 0.523,12.431 1.415,18.676c0.265,1.856 0.289,3.789 0.378,5.66c0.001,0.03 0.003,0.059 0.004,0.089l-3.354,-2.113c-0.019,-0.012 -0.038,-0.024 -0.057,-0.036Zm9.81,-73.068l2.935,0.165l-0,2.238c-0,4.885 0.566,9.722 0.566,14.621c-0,2.766 0.114,5.57 -0.189,8.3c-0.107,0.961 -0.488,1.88 -0.66,2.83c-0.586,3.219 -1.144,6.556 -1.415,9.81c-0.697,8.358 -1.1,16.724 -1.698,25.09c-0.313,4.378 -0.064,8.816 -0.01,13.211l-0.748,-0.115c0.007,-0.662 0.003,-1.321 0.003,-1.965c0,-4.414 0.289,-9.122 -0.565,-13.395c-0.19,-0.948 0.064,-1.968 -0.095,-2.924c-0.304,-1.824 -0.209,-3.73 -0.471,-5.565c-0.236,-1.65 -0,-3.522 -0,-5.188c-0,-5.243 1.055,-10.122 1.792,-15.28c0.227,-1.593 0.243,-3.215 0.471,-4.811c0.206,-1.441 0,-3.073 0,-4.527c0,-2.476 0.117,-5.01 -0.188,-7.452c-0.173,-1.384 0.094,-2.863 0.094,-4.245c0,-3.601 0.137,-7.224 0.178,-10.798Z" style="fill:#854f2b;"/><path d="M67.606,156.553c-3.238,0.515 -6.952,0.254 -8.976,-0.513c-0.89,-0.338 -1.744,-0.749 -2.501,-1.227l-7.905,-4.981l0.234,-5.277c-0.003,0.584 0.602,1.339 1.771,2.076l7.914,4.986c2.055,1.296 5.081,2.044 6.752,1.671l24.288,-5.427c0.762,-0.171 1.112,-0.545 1.072,-1.024l0.003,-0l0.218,4.59c-0.151,0.044 -0.307,0.084 -0.469,0.12l-22.401,5.006Z" style="fill:#669e2c;"/><path d="M80.573,139.851l7.914,4.986c2.055,1.295 2.367,2.65 0.696,3.024l-24.288,5.427c-1.671,0.373 -4.697,-0.375 -6.752,-1.671l-7.914,-4.986c-2.055,-1.296 -2.368,-2.65 -0.697,-3.024l24.289,-5.427c1.671,-0.373 4.697,0.375 6.752,1.671Z" style="fill:#8bc350;"/><path d="M51.092,143.259c-0.596,-0.931 -0.687,-1.933 -0.514,-2.974c1.473,0.514 2.635,1.368 3.009,3.091c-0.189,-1.224 -0.059,-2.306 0.741,-3.091c0.962,0.447 1.511,1.216 1.484,2.432l-0.041,1.318l-4.698,0.52l0.019,-1.296Z" style="fill:#8bc350;"/></g><g><path d="M98.92,223.66c-0.005,0.383 -0.312,0.681 -0.939,0.821l-21.23,4.744c-1.46,0.326 -4.105,-0.328 -5.901,-1.46l-6.918,-4.359c-1.095,-0.69 -1.624,-1.4 -1.539,-1.923l4.074,-59.72l31.63,1.791c0,-0 0.823,60.092 0.823,60.106Z" style="fill:#9f6036;"/><g><path d="M89.183,163.049l4.548,0.257c-0.171,1.101 -0.38,2.194 -0.62,3.274c-0.249,1.118 -0.18,2.528 -0.66,3.49c-0.217,0.434 -0,1.581 -0,2.075c-0,2.112 0.814,4.1 0.282,6.226c-0.226,0.906 0.061,1.902 -0.094,2.829c-0.345,2.068 -0.125,4.243 -0.471,6.32c-0.265,1.588 -0.157,3.488 -0.661,4.999c-0.557,1.673 -1.169,3.488 -1.509,5.188c-0.403,2.018 -0.824,4.027 -1.226,6.037c-0.455,2.273 -0.204,4.722 -0.849,6.98c-0.085,0.299 -0.136,0.619 -0.163,0.951c-0.001,-2.346 0.098,-4.683 0.54,-6.894c0.228,-1.14 0.053,-2.341 0.283,-3.49c0.249,-1.244 -0.114,-2.614 0.095,-3.867c0.466,-2.799 0.476,-5.686 0.943,-8.489c0.216,-1.299 0.064,-2.982 -0.189,-4.245c-0.489,-2.446 0.353,-5.168 0,-7.64c-0.123,-0.862 -0.688,-1.405 -0.943,-2.169c-0.249,-0.748 -0.223,-1.682 -0.377,-2.453c-0.288,-1.438 0.369,-2.867 0.566,-4.245c0.186,-1.308 0.119,-2.649 0.283,-3.961c0.049,-0.395 0.128,-0.785 0.222,-1.173Zm4.737,62.34l-3.188,0.712c-0.113,-1.971 -0.24,-4.082 0.021,-6.039c0.381,-2.857 1.379,-5.515 2.075,-8.301c0.741,-2.964 1.089,-6.198 1.698,-9.243c0.397,-1.987 0.394,-4.109 1.037,-6.037c0.061,-0.184 0.16,-1.792 0.283,-1.792l0,1.037c0,0.65 0.127,1.443 0,2.075c-0.398,1.992 -0.361,4.071 -0.754,6.037c-0.197,0.984 0.009,2.03 -0.189,3.019c-0.355,1.774 0.072,3.695 -0.283,5.47c-0.848,4.239 -0.815,8.645 -0.7,13.062Zm-12.458,2.783l-2.358,0.527c-0.11,-2.104 0.047,-4.275 0.047,-6.373c-0,-2.237 -0.087,-4.496 0.188,-6.697c0.117,-0.929 -0.103,-1.899 0,-2.83c0.95,-8.549 1.294,-17.238 2.359,-25.751c0.147,-1.183 0.072,-2.603 -0.095,-3.773c-0.251,-1.76 -0.094,-3.683 -0.094,-5.47c-0,-1.602 -0.177,-3.315 -0,-4.905c0.296,-2.667 0.342,-5.335 0.566,-8.018c0.062,-0.747 0.188,-1.483 0.314,-2.218l1.803,0.102c-0.056,0.278 -0.112,0.51 -0.136,0.607c-0.371,1.482 -0.303,3.105 -0.472,4.622c-0.152,1.371 -0.585,2.701 -0.755,4.056c-0.404,3.237 0.144,6.334 0.661,9.432c0.281,1.69 0.326,3.415 0.566,5.094c0.157,1.102 0.566,2.546 0.283,3.678c-1.184,4.734 -1.841,9.631 -2.641,14.432c-0.687,4.117 -0.378,8.354 -0.378,12.545c0,3.65 0.086,7.295 0.142,10.94Z" style="fill:#ab6638;"/><path d="M63.385,206.942l3.082,-45.179l5.536,0.313c-0.156,1.661 -0.31,3.317 -0.587,4.976c-0.38,2.282 -0.098,4.732 -0.66,6.98c-0.5,1.997 -1.318,3.858 -1.981,5.848c-0.317,0.951 -0.426,2.078 -0.849,2.924c-0.223,0.447 0.159,1.221 0,1.698c-0.183,0.548 0.05,1.213 -0.094,1.792c-0.284,1.135 -0.095,2.581 -0.095,3.773c0,1.594 -0.186,3.386 -0.565,4.905c-0.255,1.016 0.234,2.315 -0.095,3.301c-0.458,1.375 -0.094,3.491 -0.094,4.999c-0,2.084 -0.406,4.698 0.094,6.697c0.318,1.272 0.189,2.717 0.189,4.056c-0,0.634 0.103,1.387 -0.094,1.981c-0.126,0.377 -0,1.01 -0,1.415c-0,1.001 0.003,1.961 -0.189,2.924c-0.306,1.529 -0.168,3.238 -0.24,4.832l-2.811,-1.771c-0.203,-0.128 -0.387,-0.257 -0.551,-0.385c0.033,-0.298 0.07,-0.592 0.112,-0.884c0.1,-0.702 -0.078,-1.481 0.094,-2.169c0.393,-1.57 0.189,-3.438 0.189,-5.094c-0,-0.635 0.152,-1.466 -0,-2.075c-0.461,-1.842 -0.141,-3.86 -0.377,-5.754c-0.005,-0.034 -0.009,-0.069 -0.014,-0.103Z" style="fill:#854f2b;"/><path d="M73.319,162.151l4.044,0.229c-0.001,0.016 -0.003,0.033 -0.004,0.05c-0.195,1.943 -0.295,3.903 -0.472,5.848c-0.323,3.552 -0.815,7.1 -1.038,10.658c-0.125,2.006 0.033,4.042 -0.188,6.037c-0.428,3.853 -0.378,7.801 -0.378,11.697c0,2.036 0.144,4.234 -0.188,6.225c-0.623,3.735 -0.132,7.677 -0.755,11.413c-0.235,1.412 0.108,2.922 -0.094,4.339c-0.322,2.256 -0.029,4.671 -0.472,6.886c-0.224,1.122 -0.155,2.275 -0.184,3.42c-0.962,-0.271 -1.936,-0.682 -2.74,-1.188l-1.183,-0.746c0.077,-1.383 0.058,-2.761 -0.137,-4.127c-0.776,-5.429 -0.849,-11.057 -0.849,-16.601c-0,-2.841 -0.275,-5.896 0.188,-8.678c0.117,-0.703 -0.078,-1.461 0,-2.17c0.285,-2.558 -0.125,-5.317 0.378,-7.829c1.048,-5.239 2.137,-10.365 2.735,-15.752c0.137,-1.236 0.631,-2.438 0.755,-3.679c0.203,-2.036 0.457,-4.014 0.582,-6.032Z" style="fill:#854f2b;"/></g><path d="M66.122,166.816l0.345,-5.053l0.006,0c-0.062,0.451 0.395,1.057 1.332,1.648l5.978,3.767c1.553,0.978 3.839,1.544 5.101,1.261l18.348,-4.099c0.583,-0.131 0.847,-0.42 0.808,-0.79l0.057,0.004l0.061,4.449c-0.034,0.008 -0.068,0.016 -0.103,0.024l-18.347,4.099c-1.953,0.437 -5.536,-0.238 -7.939,-1.752l-5.647,-3.558Z" style="fill:#669e2c;"/><path d="M90.727,158.289l5.978,3.767c1.553,0.978 1.789,2.002 0.527,2.284l-18.348,4.099c-1.262,0.283 -3.548,-0.283 -5.101,-1.261l-5.978,-3.767c-1.553,-0.979 -1.788,-2.002 -0.526,-2.284l18.348,-4.1c1.262,-0.282 3.548,0.284 5.1,1.262Z" style="fill:#8bc350;"/><path d="M93.701,160.469c-0.164,-0.835 0.086,-1.346 0.554,-1.688c0.541,0.722 0.629,1.062 0.607,2.136c0.407,-1.168 1.202,-1.69 2.453,-1.451c0.319,1.163 0.317,2.232 -1.055,2.902l-2.559,-1.899Z" style="fill:#8bc350;"/></g></g></g></g></svg>