<?xml version="1.0" encoding="UTF-8" standalone="no"?><!DOCTYPE svg PUBLIC "-//W3C//DTD SVG 1.1//EN" "http://www.w3.org/Graphics/SVG/1.1/DTD/svg11.dtd"><svg width="100%" height="100%" viewBox="0 0 1250 1438" version="1.1" xmlns="http://www.w3.org/2000/svg" xmlns:xlink="http://www.w3.org/1999/xlink" xml:space="preserve" xmlns:serif="http://www.serif.com/" style="fill-rule:evenodd;clip-rule:evenodd;stroke-linejoin:round;stroke-miterlimit:2;"><g id="Caveman"><g><path d="M288.903,1396.88c0.386,2.501 0.78,5.012 0.489,7.586c-0.989,8.75 -10.918,14.007 -22.171,10.505c-9.534,-2.967 -17.373,-10.353 -21.88,-16.673c-9.588,-13.445 -11.065,-29.601 -16.482,-44.254c-7.358,-19.906 -19.819,-38.402 -30.158,-57.392c-9.178,-16.86 -17.571,-33.931 -28.685,-50.127c-12.255,-17.86 -29.644,-33.56 -43.292,-50.842c-15.735,-19.923 -27.823,-42.014 -40.107,-63.262c-4.283,-7.408 -11.167,-13.653 -15.863,-20.867c-14.651,-22.51 -21.058,-44.184 -13.051,-70.294c2.461,-8.026 4.16,-16.052 5.207,-24.11c3.943,-30.344 -1.325,-78.997 53.385,-93.241c43.684,-11.372 78.56,21.746 93.157,43.174c3.476,5.105 6.906,10.228 9.727,15.569c3.602,6.819 5.683,14.333 6.597,21.754c1.994,16.182 -3.969,33.05 -0.347,49.176c1.968,8.758 7.128,16.744 10.613,25.117c6.152,14.78 11.649,29.414 13.894,45.073c8.598,59.97 3.074,121.953 12.353,181.862c3.976,25.668 22.985,67.714 26.614,91.246Z" style="fill:#8e522d;"/><path d="M297.139,1395.61c0.498,3.226 0.909,6.472 0.534,9.792c-1.504,13.304 -15.819,22.85 -32.928,17.526c-11.377,-3.54 -20.81,-12.249 -26.189,-19.791c-10.032,-14.068 -11.846,-30.872 -17.513,-46.204c-7.222,-19.537 -19.514,-37.658 -29.661,-56.297c-9.042,-16.609 -17.288,-33.44 -28.237,-49.396c-12.153,-17.711 -29.426,-33.254 -42.961,-50.392c-15.987,-20.243 -28.3,-42.667 -40.781,-64.256c-4.212,-7.285 -11.016,-13.399 -15.633,-20.492c-16.096,-24.731 -22.83,-48.597 -14.034,-77.283c2.321,-7.57 3.922,-15.14 4.91,-22.741c1.601,-12.322 1.741,-27.614 4.845,-42.459c5.156,-24.655 17.806,-48.166 54.704,-57.772c47.758,-12.433 86.186,23.12 102.144,46.547c3.653,5.364 7.244,10.755 10.209,16.368c4.078,7.722 6.463,16.223 7.499,24.627c1.07,8.686 0.087,17.558 -0.76,26.42c-0.704,7.375 -1.345,14.746 0.273,21.948c1.864,8.297 6.874,15.81 10.176,23.741c6.425,15.437 12.104,30.74 14.449,47.093c8.594,59.94 3.065,121.892 12.339,181.77c3.976,25.669 22.986,67.717 26.615,91.251Zm-8.236,1.27c-3.629,-23.532 -22.638,-65.578 -26.614,-91.246c-9.279,-59.909 -3.755,-121.892 -12.353,-181.862c-2.245,-15.659 -7.742,-30.293 -13.894,-45.073c-3.485,-8.373 -8.645,-16.359 -10.613,-25.117c-3.622,-16.126 2.341,-32.994 0.347,-49.176c-0.914,-7.421 -2.995,-14.935 -6.597,-21.754c-2.821,-5.341 -6.251,-10.464 -9.727,-15.569c-14.597,-21.428 -49.473,-54.546 -93.157,-43.174c-54.71,14.244 -49.442,62.897 -53.385,93.241c-1.047,8.058 -2.746,16.084 -5.207,24.11c-8.007,26.11 -1.6,47.784 13.051,70.294c4.696,7.214 11.58,13.459 15.863,20.867c12.284,21.248 24.372,43.339 40.107,63.262c13.648,17.282 31.037,32.982 43.292,50.842c11.114,16.196 19.507,33.267 28.685,50.127c10.339,18.99 22.8,37.486 30.158,57.392c5.417,14.653 6.894,30.809 16.482,44.254c4.507,6.32 12.346,13.706 21.88,16.673c11.253,3.502 21.182,-1.755 22.171,-10.505c0.291,-2.574 -0.103,-5.085 -0.489,-7.586Z" style="fill:#612703;"/><path d="M93.772,933.553c6.078,-3.996 13.481,-7.29 22.523,-9.644c11.853,-3.085 23.057,-2.896 33.384,-0.553c-0.904,4.554 -1.709,9.259 -2.376,14.022c-2.248,16.067 -2.446,32.749 0.974,46.843c1.675,7.04 3.712,14.413 6.186,21.622c1.521,4.429 3.456,8.685 5.145,12.965c1.215,3.079 2.306,6.07 3.616,9.019c2.315,5.297 5.076,10.163 8.084,15.082c3.944,6.45 8.277,12.524 11.96,19.129c7.308,11.352 14.183,23.715 20.633,36.169c4.231,8.17 8.307,16.355 11.702,24.547c6.178,14.743 12.292,30.226 17.679,45.814c3.538,10.234 6.761,20.513 9.413,30.672l12.221,54.621c1.011,3.674 1.959,7.356 3.024,10.995c0.918,13.667 2.258,27.275 4.349,40.778c3.976,25.668 22.985,67.714 26.614,91.246c0.088,0.572 0.177,1.144 0.258,1.718c-1.541,-2.25 -3.047,-4.525 -4.515,-6.831c-11.514,-18.092 -21.492,-37.321 -29.717,-57.833c-2.756,-6.227 -5.029,-12.573 -6.979,-19.041c-4.951,-16.423 -8.265,-33.29 -13.483,-49.673l-16.366,-45.044c-4.508,-12.929 -9.467,-25.159 -13.866,-37.567c-3.061,-8.63 -5.694,-17.247 -9.104,-25.923c-2.116,-5.382 -4.428,-10.643 -6.951,-16.053c-6.577,-13.308 -15.286,-24.73 -25.371,-35.152c-13.33,-13.774 -29.212,-25.136 -42.776,-38.758c-6.383,-6.048 -11.918,-12.796 -16.666,-20.066c-4.855,-7.433 -8.888,-15.411 -12.165,-23.754c-2.321,-5.909 -4.621,-12.158 -6.368,-18.53c-1.498,-5.466 -2.626,-11.019 -2.734,-16.501c-0.458,-17.841 5.818,-36.414 11.672,-54.319Zm72.002,-4.615c19.897,9.328 35.204,25.706 43.678,38.145c3.476,5.105 6.906,10.228 9.727,15.569c3.602,6.819 5.683,14.333 6.597,21.754c1.994,16.182 -3.969,33.05 -0.347,49.176c1.968,8.758 7.128,16.744 10.613,25.117c2.867,6.888 5.592,13.745 7.912,20.689c-3.975,-8.295 -8.392,-16.582 -13.317,-24.572c-6.682,-10.843 -14.186,-21.128 -21.664,-30.817c-2.662,-3.306 -5.298,-6.61 -8.285,-9.626c-6.179,-6.238 -13.024,-11.423 -18.661,-18.181c-3,-4.075 -5.873,-8.417 -8.07,-13.207c-3.46,-7.541 -5.734,-15.703 -7.818,-23.32c-4.139,-15.106 -2.463,-33.702 -0.365,-50.727Zm97.414,484.481c-7.703,-3.533 -13.993,-9.717 -17.847,-15.121c-9.588,-13.445 -11.065,-29.601 -16.482,-44.254c-7.358,-19.906 -19.819,-38.402 -30.158,-57.392c-9.178,-16.86 -17.571,-33.931 -28.685,-50.127c-12.255,-17.86 -29.644,-33.56 -43.292,-50.842c-15.735,-19.923 -27.823,-42.014 -40.107,-63.262c-4.283,-7.408 -11.167,-13.653 -15.863,-20.867c-13.985,-21.487 -20.458,-42.212 -14.054,-66.762c3.69,8.324 7.999,16.321 12.946,23.893c6.458,9.886 14.004,19.048 22.684,27.272c8.711,7.889 17.933,15.256 27.326,22.38c8.537,6.474 17.106,12.779 25.078,19.812c6.331,5.586 12.585,11.16 17.719,18.132c8.336,10.86 15.883,21.311 21.639,32.997c5.895,11.97 9.923,24.775 14.703,37.804c3.19,8.86 6.827,17.519 9.738,26.435c1.866,5.717 3.293,11.551 4.602,17.457c3.715,16.72 5.469,33.754 8.934,50.486c1.602,7.74 3.623,15.364 6.198,22.904c9.427,24.59 21,47.655 34.921,69.055Z" style="fill:#7e431f;"/><path d="M286.205,1411.35c-3.986,4.257 -11.165,6.052 -18.984,3.619c-9.534,-2.967 -17.373,-10.353 -21.88,-16.673c-9.588,-13.445 -11.065,-29.601 -16.482,-44.254c-7.358,-19.906 -19.819,-38.402 -30.158,-57.392c-9.178,-16.86 -17.571,-33.931 -28.685,-50.127c-12.255,-17.86 -29.644,-33.56 -43.292,-50.842c-15.735,-19.923 -27.823,-42.014 -40.107,-63.262c-4.283,-7.408 -11.167,-13.653 -15.863,-20.867c-14.651,-22.51 -21.058,-44.184 -13.051,-70.294c2.461,-8.026 4.16,-16.052 5.207,-24.11c3.943,-30.344 -1.325,-78.997 53.385,-93.241c9.227,-2.402 18.062,-2.819 26.395,-1.78c-0.615,0.143 -1.232,0.295 -1.852,0.456c-54.709,14.244 -49.441,62.897 -53.384,93.24c-1.047,8.059 -2.746,16.085 -5.207,24.11c-8.007,26.111 -1.6,47.785 13.051,70.295c4.696,7.214 11.58,13.459 15.863,20.867c12.284,21.248 24.372,43.339 40.107,63.262c13.648,17.282 31.037,32.982 43.292,50.842c11.114,16.196 19.507,33.267 28.685,50.127c10.339,18.99 22.8,37.486 30.158,57.392c5.416,14.653 6.894,30.809 16.482,44.254c3.596,5.043 9.313,10.764 16.32,14.378Z" style="fill:#642600;fill-opacity:0.5;"/></g></g></svg>