<?xml version="1.0" encoding="UTF-8" standalone="no"?>
<!DOCTYPE svg PUBLIC "-//W3C//DTD SVG 1.1//EN" "http://www.w3.org/Graphics/SVG/1.1/DTD/svg11.dtd">
<svg width="100%" height="100%" viewBox="0 0 300 345" version="1.1" xmlns="http://www.w3.org/2000/svg" xmlns:xlink="http://www.w3.org/1999/xlink" xml:space="preserve" xmlns:serif="http://www.serif.com/" style="fill-rule:evenodd;clip-rule:evenodd;stroke-linejoin:round;stroke-miterlimit:2;">
    <g id="candy-cane-2" serif:id="candy cane 2">
        <path d="M35.039,333.428L14.313,275.486C9.765,262.487 15.365,252.15 23.622,247.152C27.245,244.958 30.819,243.253 34.931,242.389C47.889,239.669 57.215,245.97 62.342,259.351C67.662,271.532 53.79,276.871 49.754,269.892C45.931,263.284 43.209,259.012 36.827,262.354C32.848,264.438 31.388,268.634 33.661,276.758L51.68,323.708C58.564,338.243 40.055,345 35.039,333.428Z" style="fill:#eef8fe;"/>
        <path d="M49.107,317.004L51.68,323.708C58.129,337.325 42.293,344.115 36.142,335.405C37.077,324.355 41.888,318.932 49.107,317.004ZM40.286,294.02L45.468,307.522C38.583,306.88 32.016,312.478 31.163,322.591L26.145,308.562C28.349,299.41 32.79,294.094 40.286,294.02ZM18.103,286.081C17.541,277.2 25.982,271.94 32.979,273.88C33.149,274.779 33.376,275.738 33.661,276.758L36.859,285.091C30.434,283.325 23.521,288.445 22.293,297.793L18.103,286.081ZM15.608,255.295C23.717,251.225 33.135,253.252 36.212,262.706C34.731,263.631 33.663,264.907 33.085,266.651C27.031,260.556 14.472,265.257 14.313,275.486C11.542,267.566 12.538,260.634 15.608,255.295ZM62.715,260.277C62.068,266.13 56.341,270.87 49.894,270.124C53.992,276.577 66.906,271.665 62.715,260.277ZM46.557,264.817C45.326,263.174 44.06,261.989 42.567,261.475C45.635,251.898 42.154,245.894 33.435,242.746C33.926,242.615 34.425,242.496 34.931,242.389C44.197,240.444 51.606,243.112 56.951,249.683C58.271,256.701 54.464,263.724 46.557,264.817Z" style="fill:#d60a00;"/>
    </g>
</svg>
