<?xml version="1.0" encoding="UTF-8" standalone="no"?><!DOCTYPE svg PUBLIC "-//W3C//DTD SVG 1.1//EN" "http://www.w3.org/Graphics/SVG/1.1/DTD/svg11.dtd"><svg width="100%" height="100%" viewBox="0 0 300 345" version="1.1" xmlns="http://www.w3.org/2000/svg" xmlns:xlink="http://www.w3.org/1999/xlink" xml:space="preserve" xmlns:serif="http://www.serif.com/" style="fill-rule:evenodd;clip-rule:evenodd;stroke-linejoin:round;stroke-miterlimit:2;"><g id="ItemDonut"><path d="M54.22,243.356c24.876,0 45.073,20.197 45.073,45.073c-0,24.876 -20.197,45.073 -45.073,45.073c-24.876,-0 -45.073,-20.197 -45.073,-45.073c0,-24.876 20.197,-45.073 45.073,-45.073Zm-0,30.77c7.894,0 14.303,6.409 14.303,14.303c-0,7.894 -6.409,14.303 -14.303,14.303c-7.894,-0 -14.303,-6.409 -14.303,-14.303c0,-7.894 6.409,-14.303 14.303,-14.303Z" style="fill:#eb9929;"/><path d="M99.25,286.447c0.028,0.657 0.043,1.318 0.043,1.982c-0,24.876 -20.197,45.073 -45.073,45.073c-24.876,-0 -45.073,-20.197 -45.073,-45.073c0,-0.664 0.015,-1.325 0.043,-1.982c1.039,23.959 20.818,43.092 45.03,43.092c24.212,-0 43.991,-19.133 45.03,-43.092Zm-59.196,0c-0.09,-0.647 -0.137,-1.309 -0.137,-1.981c0,-7.894 6.409,-14.303 14.303,-14.303c7.894,0 14.303,6.409 14.303,14.303c-0,0.672 -0.047,1.334 -0.137,1.981c-0.966,-6.957 -6.944,-12.321 -14.166,-12.321c-7.222,0 -13.2,5.364 -14.166,12.321Z" style="fill:#e78317;"/><path d="M9.147,288.429c0,-24.876 20.197,-45.073 45.073,-45.073c24.876,0 45.073,20.197 45.073,45.073c-0,1.846 -0.111,3.665 -0.327,5.453c-0.787,1.899 -1.774,3.633 -2.39,5.308c-2.017,5.486 -2.522,9.959 -5.033,12.276c-4.241,3.912 -10.899,2.742 -14.671,6.258c-3.863,3.601 -7.375,6.351 -11.78,6.512c-7.983,0.292 -11.771,-3.567 -17.27,-2.926c-11.665,1.359 -18.842,-0.701 -20.848,-5.784c-2,-5.069 -5.455,-8.488 -8.54,-9.208c-3.897,-0.91 -6.126,-2.701 -7.41,-4.987c-1.009,-3.377 -1.632,-6.92 -1.818,-10.578c-0.015,-0.777 -0.03,-1.555 -0.059,-2.324Zm30.77,0c0,7.894 6.409,14.303 14.303,14.303c7.679,-0 13.952,-6.064 14.288,-13.66c0.439,-3.839 -0.552,-7.411 0.015,-11.203c0.558,-3.733 -5.148,-7.131 -8.293,-6.64c-5.136,0.803 -5.828,-1.64 -7.992,-2.035c-8.563,-1.563 -8.162,1.567 -11.824,4.932c-2.502,2.3 -4.402,4.982 -3.122,7.247c1.216,2.151 2.496,3.506 2.625,7.056Z" style="fill:#69462c;"/><path d="M77.934,276.542c0.298,-0.421 0.801,-0.648 1.313,-0.592c0.513,0.056 0.955,0.386 1.154,0.861c1.838,4.345 3.891,8.531 6.936,12.01c2.74,3.13 -5.475,9.918 -7.199,18.928c-0.301,1.569 -4.451,4.212 -9.359,6.319c-2.919,1.252 -5.857,3.91 -9.759,3.919c-4.307,0.011 -9.079,-2.213 -14.238,-2.079c-6.048,0.156 -10.979,0.933 -13.679,-2.32c-3.015,-3.634 -5.215,-8.989 -8.239,-11.199c-4.844,-3.542 -9.829,-3.759 -11.678,-9.279c-1.998,-5.964 -0.541,-12.434 2,-17.038c4.05,-7.339 5.443,-12.581 9.198,-17.438c4.651,-6.013 10.73,-9.456 17.278,-11.778c7.366,-2.003 15.839,-3.088 24.683,-0.174c0.441,0.152 0.726,0.58 0.696,1.046c-0.03,0.465 -0.369,0.853 -0.826,0.945c-9.053,1.838 -17.915,4.16 -25.673,9.321c-2.529,1.683 -2.603,5.793 -5.014,10.559c-1.201,2.374 -3.779,3.761 -5.064,8.079c-1.179,3.959 2.188,7.349 3.679,11.797c0.835,2.49 -0.101,5.581 1.385,7.801c3.313,4.948 8.789,1.544 15.573,5.759c4.757,2.955 10.68,-1.359 16.309,-4.719c3.794,-2.264 8.783,-6.004 8.008,-10.692c-0.653,-3.954 0.386,-7.03 2.516,-10.036Z" style="fill:#854f2c;"/><path d="M69.121,285.135l-0.548,0c-0.128,-2.418 -0.419,-4.795 -0.05,-7.266c0.558,-3.733 -5.148,-7.131 -8.293,-6.64c-5.136,0.803 -5.828,-1.64 -7.992,-2.035c-8.563,-1.563 -8.162,1.567 -11.824,4.932c-2.502,2.3 -4.402,4.982 -3.122,7.247c-1.957,-2.087 -2.472,-4.654 -0.589,-8.02c1.247,-2.23 3.247,-2.98 6.719,-6.88c2.691,-3.022 6.095,-3.034 11.119,-0.4c4.062,2.131 11.461,0.935 14.398,5.44c3.987,6.116 2.372,8.671 0.182,13.622Zm6.766,-36.232c13.946,7.667 23.406,22.501 23.406,39.526c-0,1.846 -0.111,3.665 -0.327,5.453c-0.787,1.899 -1.774,3.633 -2.39,5.308c-2.017,5.486 -2.522,9.959 -5.033,12.276c-4.241,3.912 -10.899,2.742 -14.671,6.258c-1.281,1.195 -2.524,2.296 -3.774,3.24c3.505,-7.651 13.723,-12.233 14.759,-15.335c1.585,-4.748 4.126,-9.093 5.499,-12.499c2.837,-7.036 1.927,-13.484 -0.4,-16.798c-2.58,-3.675 -2.924,-6.126 -4.099,-8.699c-2.148,-4.703 -4.999,-8.75 -8.267,-12.408c-1.517,-2.086 -3.237,-4.416 -4.703,-6.322Zm-5.105,73.605c-1.787,1.019 -3.642,1.653 -5.69,1.728c-2.253,0.082 -4.172,-0.166 -5.89,-0.55l11.58,-1.178Z" style="fill:#56321c;"/><path d="M9.182,290.219c0.117,-0.107 0.255,-0.195 0.411,-0.255l5.657,-2.184c0.669,-0.259 1.422,0.075 1.681,0.744c0.258,0.669 -0.075,1.422 -0.745,1.68l-5.657,2.184c-0.423,0.164 -0.879,0.091 -1.223,-0.155c-0.041,-0.491 -0.075,-0.984 -0.1,-1.48c-0.009,-0.177 -0.017,-0.356 -0.024,-0.534Zm27.821,25.477c0.321,0.641 0.06,1.422 -0.581,1.743l-5.424,2.712c-0.641,0.321 -1.423,0.061 -1.743,-0.581c-0.321,-0.641 -0.061,-1.422 0.581,-1.743l5.424,-2.712c0.641,-0.321 1.422,-0.061 1.743,0.581Zm44.074,-58.536c-0.2,0.689 -0.921,1.086 -1.61,0.887l-5.825,-1.687c-0.688,-0.2 -1.086,-0.921 -0.886,-1.61c0.199,-0.689 0.92,-1.086 1.609,-0.887l5.825,1.687c0.689,0.2 1.087,0.921 0.887,1.61Zm-46.176,40.159c0,0.717 -0.582,1.3 -1.299,1.3l-6.064,-0c-0.718,-0 -1.3,-0.583 -1.3,-1.3c0,-0.717 0.582,-1.299 1.3,-1.299l6.064,-0c0.717,-0 1.299,0.582 1.299,1.299Zm7.598,-37.027c-0.409,0.589 -1.219,0.736 -1.808,0.327l-4.983,-3.457c-0.589,-0.409 -0.736,-1.219 -0.327,-1.808c0.409,-0.59 1.219,-0.736 1.809,-0.327l4.982,3.457c0.59,0.408 0.736,1.219 0.327,1.808Zm24.485,6.472c0.209,0.686 -0.179,1.413 -0.865,1.622l-5.802,1.765c-0.686,0.208 -1.412,-0.179 -1.621,-0.865c-0.209,-0.686 0.179,-1.413 0.865,-1.622l5.802,-1.765c0.686,-0.209 1.412,0.179 1.621,0.865Zm4.734,52.479c-0.683,0.219 -1.415,-0.158 -1.634,-0.841l-1.849,-5.776c-0.219,-0.683 0.159,-1.415 0.842,-1.634c0.683,-0.218 1.415,0.159 1.633,0.842l1.849,5.775c0.219,0.683 -0.158,1.415 -0.841,1.634Zm-43.764,-40.061c-0.114,0.708 -0.781,1.19 -1.489,1.076l-5.987,-0.962c-0.709,-0.114 -1.191,-0.782 -1.077,-1.49c0.114,-0.708 0.781,-1.19 1.489,-1.076l5.988,0.962c0.708,0.114 1.19,0.782 1.076,1.49Zm20.69,31.716c-0.337,0.633 -1.125,0.873 -1.758,0.536l-5.352,-2.851c-0.633,-0.337 -0.873,-1.125 -0.536,-1.758c0.337,-0.633 1.125,-0.873 1.758,-0.536l5.352,2.851c0.633,0.338 0.873,1.125 0.536,1.758Zm31.77,-12.009c-0.103,-0.709 0.389,-1.37 1.098,-1.473l6.001,-0.877c0.709,-0.104 1.37,0.388 1.473,1.098c0.104,0.71 -0.388,1.37 -1.097,1.474l-6.001,0.876c-0.71,0.104 -1.37,-0.388 -1.474,-1.098Zm14.499,-25.197c0,0.717 -0.582,1.3 -1.299,1.3l-6.065,-0c-0.717,-0 -1.299,-0.583 -1.299,-1.3c-0,-0.717 0.582,-1.299 1.299,-1.299l6.065,-0c0.717,-0 1.299,0.582 1.299,1.299Zm-77.416,-10.452c-0.104,-0.71 0.388,-1.37 1.098,-1.474l6.001,-0.877c0.709,-0.103 1.37,0.389 1.473,1.098c0.104,0.71 -0.388,1.37 -1.098,1.474l-6,0.877c-0.71,0.104 -1.37,-0.388 -1.474,-1.098Zm50.748,28.005l5.418,-2.092c0.669,-0.258 1.422,0.075 1.68,0.744c0.258,0.669 -0.075,1.422 -0.744,1.681l-5.658,2.184c-0.476,0.184 -0.995,0.068 -1.347,-0.256c0.276,-0.727 0.495,-1.483 0.651,-2.261Zm-11.77,-44.455c0.463,0.548 0.393,1.368 -0.155,1.831l-4.635,3.91c-0.548,0.463 -1.369,0.393 -1.831,-0.155c-0.463,-0.548 -0.393,-1.369 0.155,-1.831l4.635,-3.911c0.548,-0.462 1.369,-0.392 1.831,0.156Zm-13.15,21.541c0,0.717 -0.582,1.299 -1.299,1.299l-6.065,0c-0.717,0 -1.299,-0.582 -1.299,-1.299c-0,-0.717 0.582,-1.3 1.299,-1.3l6.065,0c0.717,0 1.299,0.583 1.299,1.3Zm45.169,13.665c0.049,0.716 -0.491,1.337 -1.206,1.387l-6.05,0.421c-0.715,0.05 -1.337,-0.491 -1.387,-1.206c-0.049,-0.715 0.491,-1.337 1.206,-1.387l6.05,-0.421c0.715,-0.05 1.337,0.491 1.387,1.206Z" style="fill:#341d0f;fill-opacity:0.5;"/><path d="M17.125,262.468c0.103,0.71 0.764,1.202 1.473,1.098l6.001,-0.876c0.709,-0.104 1.201,-0.765 1.098,-1.474c-0.104,-0.71 -0.764,-1.202 -1.474,-1.098l-6,0.877c-0.71,0.103 -1.202,0.764 -1.098,1.473Z" style="fill:#298647;"/><path d="M17.125,262.468c0.103,0.71 0.764,1.202 1.473,1.098l0.018,-0.002c0.709,-0.104 1.201,-0.764 1.098,-1.474c-0.104,-0.71 -0.765,-1.202 -1.474,-1.098l-0.017,0.003c-0.71,0.103 -1.202,0.764 -1.098,1.473Z" style="fill:#1e753a;"/><path d="M79.962,297.852c0.104,0.709 0.764,1.201 1.474,1.098l6,-0.877c0.71,-0.104 1.202,-0.764 1.098,-1.474c-0.104,-0.709 -0.764,-1.201 -1.474,-1.098l-6,0.877c-0.71,0.104 -1.202,0.764 -1.098,1.474Z" style="fill:#298647;"/><path d="M79.962,297.852c0.104,0.709 0.764,1.201 1.474,1.098l0.052,-0.008c0.71,-0.104 1.202,-0.764 1.098,-1.474c-0.103,-0.709 -0.764,-1.201 -1.473,-1.098l-0.053,0.008c-0.71,0.104 -1.202,0.764 -1.098,1.474Z" style="fill:#1e753a;"/><path d="M16.292,287.699c-0.258,-0.669 -1.011,-1.003 -1.68,-0.744l-5.657,2.184c-0.67,0.258 -1.003,1.011 -0.745,1.68c0.259,0.67 1.012,1.003 1.681,0.745l5.657,-2.185c0.669,-0.258 1.002,-1.011 0.744,-1.68Z" style="fill:#ee1989;"/><path d="M10.533,289.874c-0.25,-0.646 -0.976,-0.968 -1.621,-0.718c-0.646,0.249 -0.967,0.975 -0.718,1.621l0.033,0.085c0.249,0.646 0.975,0.967 1.621,0.718c0.645,-0.249 0.967,-0.975 0.718,-1.621l-0.033,-0.085Z" style="fill:#bf1b72;"/><path d="M74.731,288.993c-0.258,-0.669 -1.011,-1.003 -1.68,-0.745l-5.658,2.185c-0.669,0.258 -1.002,1.011 -0.744,1.68c0.258,0.669 1.011,1.003 1.68,0.744l5.658,-2.184c0.669,-0.258 1.002,-1.011 0.744,-1.68Z" style="fill:#ee1989;"/><path d="M74.731,288.993c-0.258,-0.669 -1.011,-1.003 -1.68,-0.745l-0.071,0.028c-0.669,0.258 -1.002,1.011 -0.744,1.68c0.259,0.669 1.012,1.002 1.681,0.744l0.07,-0.027c0.669,-0.258 1.002,-1.011 0.744,-1.68Z" style="fill:#bf1b72;"/><path d="M56.103,245.991c-0.463,-0.548 -1.283,-0.617 -1.831,-0.155l-4.635,3.911c-0.549,0.462 -0.618,1.283 -0.156,1.831c0.463,0.548 1.283,0.617 1.831,0.155l4.636,-3.91c0.548,-0.463 0.617,-1.283 0.155,-1.832Z" style="fill:#ee1989;"/><path d="M51.452,249.906c-0.46,-0.545 -1.276,-0.615 -1.821,-0.155c-0.545,0.46 -0.614,1.276 -0.154,1.821l0.009,0.011c0.46,0.545 1.276,0.615 1.821,0.155c0.545,-0.46 0.614,-1.276 0.154,-1.821l-0.009,-0.011Z" style="fill:#bf1b72;"/><path d="M43.272,267.506c-0,-0.717 -0.582,-1.299 -1.3,-1.299l-6.064,-0c-0.717,-0 -1.299,0.582 -1.299,1.299c-0,0.717 0.582,1.3 1.299,1.3l6.064,-0c0.718,-0 1.3,-0.583 1.3,-1.3Z" style="fill:#e9e5e5;"/><path d="M43.272,267.498c-0,-0.713 -0.579,-1.291 -1.292,-1.291c-0.713,-0 -1.292,0.578 -1.292,1.291l0,0.016c0,0.713 0.579,1.292 1.292,1.292c0.713,-0 1.292,-0.579 1.292,-1.292l-0,-0.016Z" style="fill:#c9c9c9;"/><path d="M36.498,315.11c-0.321,-0.641 -1.102,-0.901 -1.744,-0.581l-5.424,2.712c-0.641,0.321 -0.902,1.102 -0.581,1.744c0.321,0.641 1.102,0.902 1.743,0.581l5.424,-2.712c0.642,-0.321 0.902,-1.102 0.582,-1.744Z" style="fill:#e9e5e5;"/><path d="M31.052,317.823c-0.319,-0.637 -1.094,-0.896 -1.731,-0.577c-0.636,0.318 -0.895,1.094 -0.576,1.73l0.008,0.018c0.319,0.636 1.094,0.895 1.731,0.576c0.636,-0.318 0.895,-1.093 0.576,-1.73l-0.008,-0.017Z" style="fill:#c9c9c9;"/><path d="M88.201,281.141c-0.05,-0.716 -0.671,-1.256 -1.387,-1.207l-6.049,0.422c-0.716,0.05 -1.256,0.671 -1.206,1.386c0.049,0.716 0.671,1.256 1.386,1.207l6.05,-0.422c0.715,-0.05 1.256,-0.671 1.206,-1.386Z" style="fill:#e9e5e5;"/><path d="M82.242,281.556c-0.05,-0.716 -0.671,-1.256 -1.387,-1.206l-0.09,0.006c-0.716,0.05 -1.256,0.671 -1.206,1.386c0.049,0.716 0.671,1.256 1.386,1.207l0.091,-0.007c0.715,-0.05 1.256,-0.671 1.206,-1.386Z" style="fill:#c9c9c9;"/><path d="M80.917,256.175c0.2,-0.688 -0.197,-1.41 -0.886,-1.609l-5.825,-1.687c-0.689,-0.2 -1.41,0.198 -1.61,0.887c-0.199,0.688 0.198,1.41 0.887,1.609l5.825,1.687c0.689,0.2 1.41,-0.198 1.609,-0.887Z" style="fill:#e9e5e5;"/><path d="M80.989,256.121c0.188,-0.651 -0.187,-1.332 -0.837,-1.52c-0.651,-0.188 -1.332,0.187 -1.52,0.837l-0.04,0.139c-0.189,0.651 0.186,1.332 0.837,1.52c0.65,0.189 1.331,-0.186 1.52,-0.837l0.04,-0.139Z" style="fill:#c9c9c9;"/><path d="M34.609,296.787c-0,-0.717 -0.583,-1.299 -1.3,-1.299l-6.064,-0c-0.717,-0 -1.3,0.582 -1.3,1.299c0,0.717 0.583,1.299 1.3,1.299l6.064,0c0.717,0 1.3,-0.582 1.3,-1.299Z" style="fill:#1a9ada;"/><path d="M34.609,296.777c-0,-0.712 -0.578,-1.289 -1.29,-1.289c-0.712,-0 -1.289,0.577 -1.289,1.289l-0,0.02c-0,0.712 0.577,1.289 1.289,1.289c0.712,0 1.29,-0.577 1.29,-1.289l-0,-0.02Z" style="fill:#177eb2;"/><path d="M94.674,272.761c-0,-0.717 -0.583,-1.3 -1.3,-1.3l-6.064,0c-0.717,0 -1.3,0.583 -1.3,1.3c0,0.717 0.583,1.299 1.3,1.299l6.064,0c0.717,0 1.3,-0.582 1.3,-1.299Z" style="fill:#1a9ada;"/><path d="M88.727,272.761c-0,-0.717 -0.583,-1.3 -1.3,-1.3l-0.117,0c-0.717,0 -1.3,0.583 -1.3,1.3c0,0.717 0.583,1.299 1.3,1.299l0.117,0c0.717,0 1.3,-0.582 1.3,-1.299Z" style="fill:#177eb2;"/><path d="M72.011,318.285c0.683,-0.219 1.06,-0.951 0.841,-1.634l-1.849,-5.775c-0.219,-0.683 -0.951,-1.06 -1.634,-0.842c-0.683,0.219 -1.06,0.951 -0.841,1.634l1.849,5.776c0.219,0.683 0.951,1.06 1.634,0.841Z" style="fill:#1a9ada;"/><path d="M72.037,318.277c0.669,-0.214 1.038,-0.931 0.824,-1.599c-0.214,-0.669 -0.931,-1.038 -1.599,-0.824l-0.053,0.017c-0.669,0.214 -1.038,0.931 -0.824,1.599c0.214,0.669 0.931,1.037 1.599,0.823l0.053,-0.016Z" style="fill:#177eb2;"/><path d="M42.499,259.254c0.409,-0.589 0.263,-1.399 -0.327,-1.808l-4.982,-3.457c-0.59,-0.409 -1.4,-0.262 -1.809,0.327c-0.409,0.589 -0.262,1.399 0.327,1.808l4.983,3.457c0.589,0.409 1.399,0.262 1.808,-0.327Z" style="fill:#1a9ada;"/><path d="M42.556,259.172c0.377,-0.544 0.242,-1.292 -0.302,-1.669c-0.544,-0.378 -1.292,-0.242 -1.669,0.302l-0.114,0.164c-0.377,0.544 -0.242,1.292 0.302,1.669c0.544,0.377 1.292,0.242 1.669,-0.302l0.114,-0.164Z" style="fill:#177eb2;"/><path d="M66.505,266.072c-0.209,-0.686 -0.935,-1.073 -1.621,-0.865l-5.802,1.765c-0.686,0.209 -1.074,0.936 -0.865,1.622c0.209,0.686 0.935,1.074 1.621,0.865l5.802,-1.765c0.686,-0.209 1.074,-0.935 0.865,-1.622Z" style="fill:#f8d302;"/><path d="M60.605,267.821c-0.202,-0.663 -0.903,-1.037 -1.566,-0.835c-0.662,0.201 -1.037,0.903 -0.835,1.565l0.026,0.086c0.202,0.662 0.903,1.037 1.566,0.835c0.662,-0.202 1.036,-0.903 0.835,-1.566l-0.026,-0.085Z" style="fill:#d3b300;"/><path d="M27.582,278.437c0.114,-0.708 -0.369,-1.376 -1.077,-1.49l-5.987,-0.962c-0.708,-0.114 -1.376,0.368 -1.49,1.076c-0.113,0.708 0.369,1.376 1.077,1.49l5.987,0.962c0.709,0.114 1.376,-0.368 1.49,-1.076Z" style="fill:#f8d302;"/><path d="M27.582,278.437c0.114,-0.708 -0.369,-1.376 -1.077,-1.49l-0.093,-0.014c-0.708,-0.114 -1.375,0.368 -1.489,1.076c-0.114,0.708 0.369,1.376 1.077,1.49l0.092,0.014c0.709,0.114 1.376,-0.368 1.49,-1.076Z" style="fill:#d3b300;"/><path d="M48.511,310.047c0.337,-0.633 0.097,-1.421 -0.536,-1.758l-5.352,-2.851c-0.633,-0.337 -1.421,-0.097 -1.758,0.536c-0.337,0.633 -0.097,1.421 0.536,1.758l5.352,2.851c0.633,0.337 1.421,0.097 1.758,-0.536Z" style="fill:#f8d302;"/><path d="M48.516,310.037c0.335,-0.627 0.096,-1.409 -0.531,-1.743c-0.628,-0.334 -1.41,-0.096 -1.744,0.532l-0.01,0.018c-0.334,0.628 -0.096,1.409 0.532,1.744c0.627,0.334 1.409,0.096 1.743,-0.532l0.01,-0.019Z" style="fill:#d3b300;"/></g></svg>