<?xml version="1.0" encoding="UTF-8" standalone="no"?>
<!DOCTYPE svg PUBLIC "-//W3C//DTD SVG 1.1//EN" "http://www.w3.org/Graphics/SVG/1.1/DTD/svg11.dtd">
<svg width="100%" height="100%" viewBox="0 0 300 345" version="1.1" xmlns="http://www.w3.org/2000/svg" xmlns:xlink="http://www.w3.org/1999/xlink" xml:space="preserve" xmlns:serif="http://www.serif.com/" style="fill-rule:evenodd;clip-rule:evenodd;stroke-linejoin:round;stroke-miterlimit:2;">
    <g id="HotChocolate" transform="matrix(-1.96009,0.222705,0.222705,1.96009,227.211,64.1139)">
        <g transform="matrix(1.26098,3.41427e-18,0,1.21811,-25.9823,-24.6572)">
            <path d="M108.153,95.123L110.39,95.123C114.456,95.123 117.757,98.54 117.757,102.749L117.757,106.345C117.757,110.554 114.456,113.971 110.39,113.971L108.153,113.971L108.153,111.466L110.39,111.466C113.121,111.466 115.337,109.172 115.337,106.345L115.337,102.749C115.337,99.922 113.121,97.628 110.39,97.628L108.153,97.628L108.153,95.123Z" style="fill:#015039;"/>
        </g>
        <g transform="matrix(1.26098,3.41427e-18,0,1.21811,-25.9823,-22.6414)">
            <path d="M108.153,95.123L110.39,95.123C114.456,95.123 117.757,98.54 117.757,102.749L117.757,106.345C117.757,110.554 114.456,113.971 110.39,113.971L108.153,113.971L108.153,111.466L110.39,111.466C113.121,111.466 115.337,109.172 115.337,106.345L115.337,102.749C115.337,99.922 113.121,97.628 110.39,97.628L108.153,97.628L108.153,95.123Z" style="fill:#006547;"/>
        </g>
        <g transform="matrix(1.01009,0,0,1.55263,-1.1197,-18.4884)">
            <path d="M81.189,89.04L81.189,69.071L110.952,69.071L110.952,89.04C110.952,89.041 110.952,89.043 110.951,89.044C110.951,90.202 104.284,91.143 96.07,91.143C87.857,91.143 81.189,90.202 81.189,89.044C81.189,89.043 81.189,89.041 81.189,89.04Z" style="fill:#006f4e;"/>
        </g>
        <g transform="matrix(1.01009,0,0,1.55263,-1.1197,-18.4884)">
            <path d="M110.952,72.865L110.952,85.079C110.952,85.08 110.952,85.081 110.951,85.083C110.951,86.241 104.284,87.181 96.07,87.181C87.857,87.181 81.189,86.241 81.189,85.083C81.189,85.081 81.189,85.08 81.189,85.079L81.189,72.865C81.189,74.023 87.857,74.963 96.07,74.963C104.284,74.963 110.952,74.023 110.952,72.865Z" style="fill:#efeab3;"/>
        </g>
        <g transform="matrix(1.01009,0,0,1.55263,-1.1197,-18.4884)">
            <path d="M110.952,74.27L110.952,83.833C110.952,83.834 110.952,83.835 110.951,83.837C110.951,84.995 104.284,85.935 96.07,85.935C87.857,85.935 81.189,84.995 81.189,83.837C81.189,83.835 81.189,83.834 81.189,83.833L81.189,74.27C81.189,75.429 87.857,76.369 96.07,76.369C104.284,76.369 110.952,75.429 110.952,74.27Z" style="fill:#003a29;"/>
        </g>
        <g transform="matrix(1.01009,0,0,6.28125,-1.1197,-470.53)">
            <path d="M82.251,89.04C82.293,89.033 82.344,89.026 82.39,89.021C82.606,88.995 82.891,88.972 83.233,88.949C85.639,88.787 90.489,88.681 96.07,88.681C101.652,88.681 106.502,88.787 108.908,88.949C109.25,88.972 109.535,88.995 109.751,89.021C109.797,89.026 109.848,89.033 109.89,89.04C109.848,89.047 109.797,89.054 109.751,89.06C109.535,89.085 109.25,89.109 108.908,89.132C106.502,89.293 101.652,89.4 96.07,89.4C90.489,89.4 85.639,89.293 83.233,89.132C82.891,89.109 82.606,89.085 82.39,89.06C82.344,89.054 82.293,89.047 82.251,89.04Z" style="fill:#652f00;"/>
        </g>
        <g transform="matrix(1.01009,0,0,6.28125,-1.1197,-470.53)">
            <path d="M84.334,89.194C83.925,89.174 83.557,89.153 83.233,89.132C82.891,89.109 82.606,89.085 82.39,89.06C82.344,89.054 82.293,89.047 82.251,89.04C82.293,89.033 82.344,89.026 82.39,89.021C82.606,88.995 82.891,88.972 83.233,88.949C85.639,88.787 90.489,88.681 96.07,88.681C101.652,88.681 106.502,88.787 108.908,88.949C109.25,88.972 109.535,88.995 109.751,89.021C109.797,89.026 109.848,89.033 109.89,89.04C109.848,89.047 109.797,89.054 109.751,89.06C109.535,89.085 109.25,89.109 108.908,89.132C108.584,89.153 108.216,89.174 107.807,89.194C105.183,89.067 100.901,88.988 96.07,88.988C91.24,88.988 86.958,89.067 84.334,89.194Z" style="fill:#004631;"/>
        </g>
        <g transform="matrix(1.01009,0,0,6.28125,-1.1197,-470.53)">
            <path d="M96.07,88.521C104.284,88.521 110.952,88.754 110.952,89.04C110.952,89.326 104.284,89.559 96.07,89.559C87.857,89.559 81.189,89.326 81.189,89.04C81.189,88.754 87.857,88.521 96.07,88.521ZM82.251,89.04C82.293,89.047 82.344,89.054 82.39,89.06C82.606,89.085 82.891,89.109 83.233,89.132C85.639,89.293 90.489,89.4 96.07,89.4C101.652,89.4 106.502,89.293 108.908,89.132C109.25,89.109 109.535,89.085 109.751,89.06C109.797,89.054 109.848,89.047 109.89,89.04C109.848,89.033 109.797,89.026 109.751,89.021C109.535,88.995 109.25,88.972 108.908,88.949C106.502,88.787 101.652,88.681 96.07,88.681C90.489,88.681 85.639,88.787 83.233,88.949C82.891,88.972 82.606,88.995 82.39,89.021C82.344,89.026 82.293,89.033 82.251,89.04Z" style="fill:#006547;"/>
        </g>
        <g transform="matrix(0.951157,0.308708,-0.308708,0.951157,19.8589,-22.9557)">
            <path d="M117.332,80.606C116.421,80.629 115.348,80.737 114.154,80.925L114.154,70.366C114.154,69.928 114.51,69.572 114.949,69.572L116.537,69.572C116.976,69.572 117.332,69.928 117.332,70.366L117.332,80.606Z" style="fill:#9a9a9a;"/>
        </g>
        <g transform="matrix(0.951157,0.308708,-0.308708,0.951157,19.256,-23.1514)">
            <path d="M117.332,80.634C116.399,80.691 115.329,80.825 114.154,81.031L114.154,70.366C114.154,69.928 114.51,69.572 114.949,69.572L116.537,69.572C116.976,69.572 117.332,69.928 117.332,70.366L117.332,80.634Z" style="fill:#b8b8b8;"/>
        </g>
        <g transform="matrix(0.951157,0.308708,-0.308708,0.951157,19.256,-23.1514)">
            <path d="M116.88,80.634C115.947,80.691 115.772,80.825 114.598,81.031L114.598,70.849C114.598,70.41 114.954,70.054 115.392,70.054L116.085,70.054C116.524,70.054 116.88,70.41 116.88,70.849L116.88,80.634Z" style="fill:#c2c2c2;"/>
        </g>
        <path d="M102.665,89.182C102.647,89.186 102.629,89.174 102.625,89.156C102.621,89.138 102.633,89.12 102.651,89.116C102.667,89.107 102.68,89.099 102.698,89.093C102.713,89.088 102.73,89.089 102.747,89.087C102.821,89.081 102.896,89.084 102.969,89.086L103.635,89.102C103.863,89.103 104.087,89.107 104.313,89.125C104.538,89.143 104.762,89.175 104.986,89.208C105.113,89.229 105.243,89.235 105.369,89.26C105.43,89.272 105.49,89.29 105.549,89.31C105.673,89.36 105.795,89.411 105.911,89.476C106.055,89.557 106.179,89.658 106.326,89.736C106.419,89.785 106.52,89.819 106.618,89.858C106.638,89.865 106.661,89.866 106.676,89.881C106.694,89.9 106.682,89.9 106.69,89.925C106.698,89.927 106.703,89.935 106.701,89.943C106.698,89.952 106.69,89.956 106.682,89.954C106.661,89.97 106.671,89.974 106.645,89.982C106.641,89.984 106.637,89.982 106.633,89.982C106.603,89.977 106.575,89.966 106.546,89.958C106.471,89.936 106.398,89.908 106.323,89.887C106.171,89.846 106.021,89.825 105.868,89.784C105.724,89.745 105.584,89.699 105.438,89.667L104.917,89.567L103.618,89.296C103.486,89.272 103.357,89.24 103.225,89.22C103.139,89.206 103.052,89.2 102.965,89.194L102.665,89.182ZM97.395,88.975C97.387,88.975 97.381,88.969 97.381,88.962C97.381,88.954 97.387,88.948 97.395,88.948C97.449,88.941 97.501,88.934 97.556,88.934C97.679,88.933 97.802,88.95 97.924,88.943L98.394,88.901C98.467,88.897 98.538,88.907 98.612,88.909C98.644,88.91 98.673,88.904 98.704,88.906C98.767,88.911 98.828,88.928 98.89,88.933C98.987,88.946 99.084,88.955 99.181,88.968C99.279,88.981 99.376,88.995 99.473,89.012C99.651,89.043 99.832,89.053 99.999,89.12C100.022,89.129 100.035,89.142 100.055,89.154C100.057,89.154 100.059,89.156 100.058,89.158C100.058,89.16 100.056,89.161 100.055,89.161C100.032,89.169 100.017,89.179 99.993,89.184C99.816,89.216 99.637,89.197 99.457,89.196C99.358,89.196 99.259,89.192 99.16,89.186C99.06,89.18 98.961,89.168 98.863,89.156C98.795,89.146 98.725,89.136 98.66,89.113C98.631,89.102 98.608,89.085 98.579,89.073C98.517,89.049 98.453,89.034 98.387,89.023C98.327,89.015 98.267,89.008 98.207,89.008C98.114,89.008 98.021,89.019 97.928,89.022C97.803,89.026 97.676,89.019 97.552,89.002C97.499,88.995 97.448,88.982 97.395,88.975ZM92.471,90.264C92.468,90.264 92.466,90.261 92.466,90.259C92.466,90.256 92.468,90.253 92.471,90.253C92.77,90.237 93.068,90.204 93.367,90.179C93.39,90.178 93.412,90.178 93.435,90.173C93.469,90.167 93.496,90.15 93.53,90.144C93.551,90.14 93.572,90.141 93.594,90.14C93.636,90.138 93.678,90.139 93.721,90.139C93.751,90.141 93.781,90.144 93.811,90.151C93.865,90.163 93.916,90.185 93.971,90.194C94.05,90.215 94.128,90.23 94.208,90.24C94.291,90.249 94.372,90.254 94.456,90.254C94.467,90.252 94.477,90.259 94.479,90.27C94.481,90.281 94.473,90.292 94.462,90.293C94.379,90.319 94.297,90.339 94.211,90.354C94.124,90.369 94.038,90.376 93.949,90.378L93.712,90.336C93.651,90.331 93.589,90.334 93.529,90.323C93.496,90.317 93.47,90.3 93.437,90.294C93.406,90.288 93.375,90.289 93.344,90.287C93.053,90.273 92.761,90.28 92.471,90.264ZM90.438,89.234C90.433,89.234 90.43,89.229 90.43,89.224C90.431,89.22 90.435,89.216 90.44,89.216L90.652,89.228L90.935,89.215C91.071,89.231 91.199,89.221 91.331,89.259C91.348,89.264 91.356,89.275 91.373,89.284C91.39,89.284 91.404,89.298 91.403,89.315C91.403,89.332 91.389,89.346 91.372,89.346C91.351,89.356 91.338,89.366 91.316,89.37C91.288,89.375 91.259,89.367 91.232,89.363C91.127,89.348 91.03,89.317 90.923,89.295L90.651,89.274L90.438,89.234Z" style="fill:#7e4614;"/>
        <g transform="matrix(0.478031,0.192002,-0.192002,0.478031,74.4241,29.1564)">
            <g transform="matrix(1.35928,0,0,1.29804,-32.776,-25.2542)">
                <path d="M95.92,87.342C94.646,88.193 93.043,89.092 91.227,89.964L91.227,85.963C91.227,85.285 91.753,84.734 92.4,84.734L94.747,84.734C95.395,84.734 95.92,85.285 95.92,85.963L95.92,87.342Z" style="fill:#fffce7;"/>
            </g>
            <g transform="matrix(1.35928,0,0,0.592726,-32.776,34.5101)">
                <path d="M95.92,87.305L95.92,88.944C95.92,90.363 95.418,91.515 94.799,91.515L92.348,91.515C91.729,91.515 91.227,90.363 91.227,88.944L91.227,87.305C91.227,85.886 91.729,84.734 92.348,84.734L94.799,84.734C95.418,84.734 95.92,85.886 95.92,87.305Z" style="fill:#f8f4cf;"/>
            </g>
        </g>
        <g transform="matrix(0.453726,-0.232885,0.232885,0.453726,24.826,71.2008)">
            <g transform="matrix(1.35928,0,0,1.29804,-32.776,-25.2542)">
                <path d="M95.901,90.507C94.095,89.45 92.499,88.374 91.227,87.373L91.227,85.963C91.227,85.285 91.753,84.734 92.4,84.734L94.747,84.734C95.395,84.734 95.92,85.285 95.92,85.963L95.92,90.286C95.92,90.362 95.914,90.436 95.901,90.507Z" style="fill:#fffce7;"/>
            </g>
            <g transform="matrix(1.35928,0,0,0.592726,-32.776,34.5101)">
                <path d="M95.92,87.305L95.92,88.944C95.92,90.363 95.418,91.515 94.799,91.515L92.348,91.515C91.729,91.515 91.227,90.363 91.227,88.944L91.227,87.305C91.227,85.886 91.729,84.734 92.348,84.734L94.799,84.734C95.418,84.734 95.92,85.886 95.92,87.305Z" style="fill:#f8f4cf;"/>
            </g>
        </g>
        <g transform="matrix(0.442926,0.177902,-0.177902,0.442926,71.0062,35.3581)">
            <g transform="matrix(1.35928,0,0,1.29804,-32.776,-25.2542)">
                <path d="M95.892,85.692C95.297,85.967 94.683,86.238 94.053,86.502C93.089,86.908 92.142,87.277 91.227,87.606L91.227,85.963C91.227,85.285 91.753,84.734 92.4,84.734L94.747,84.734C95.306,84.734 95.774,85.144 95.892,85.692Z" style="fill:#fffce7;"/>
            </g>
            <g transform="matrix(1.35928,0,0,0.592726,-32.776,34.5101)">
                <path d="M95.901,86.823C95.303,87.428 94.686,88.024 94.053,88.606C93.204,89.389 92.368,90.108 91.555,90.761C91.352,90.296 91.227,89.653 91.227,88.944L91.227,87.305C91.227,85.886 91.729,84.734 92.348,84.734L94.799,84.734C95.346,84.734 95.802,85.634 95.901,86.823Z" style="fill:#f8f4cf;"/>
            </g>
        </g>
        <g transform="matrix(-0.442926,0.177902,0.177902,0.442926,119.985,33.9122)">
            <g transform="matrix(1.35928,0,0,1.29804,-32.776,-25.2542)">
                <path d="M95.892,85.692C95.297,85.967 94.683,86.238 94.053,86.502C93.089,86.908 92.142,87.277 91.227,87.606L91.227,85.963C91.227,85.285 91.753,84.734 92.4,84.734L94.747,84.734C95.306,84.734 95.774,85.144 95.892,85.692Z" style="fill:#fffce7;"/>
            </g>
            <g transform="matrix(1.35928,0,0,0.592726,-32.776,34.5101)">
                <path d="M95.901,86.823C95.303,87.428 94.686,88.024 94.053,88.606C93.204,89.389 92.368,90.108 91.555,90.761C91.352,90.296 91.227,89.653 91.227,88.944L91.227,87.305C91.227,85.886 91.729,84.734 92.348,84.734L94.799,84.734C95.346,84.734 95.802,85.634 95.901,86.823Z" style="fill:#f8f4cf;"/>
            </g>
        </g>
        <path d="M86.599,89.922C86.589,89.919 86.585,89.908 86.588,89.899C86.591,89.89 86.601,89.885 86.61,89.888C86.638,89.868 86.624,89.86 86.657,89.853C86.683,89.847 86.709,89.861 86.734,89.864C86.936,89.894 87.137,89.886 87.342,89.883C87.485,89.881 87.627,89.883 87.768,89.892L88.215,89.954L89.001,90.052C89.178,90.089 89.355,90.118 89.537,90.129C89.726,90.14 89.916,90.134 90.103,90.149L90.714,90.21C90.774,90.223 90.835,90.232 90.89,90.258C90.913,90.268 90.931,90.278 90.949,90.296C90.978,90.326 90.963,90.327 90.985,90.363C90.99,90.363 90.994,90.368 90.994,90.373C90.993,90.378 90.989,90.382 90.984,90.381C90.952,90.415 90.962,90.419 90.922,90.441C90.909,90.447 90.897,90.447 90.883,90.448C90.817,90.452 90.752,90.436 90.686,90.436L90.091,90.396C89.945,90.392 89.798,90.392 89.652,90.403C89.419,90.42 89.191,90.453 88.96,90.453C88.824,90.439 88.689,90.423 88.554,90.404C88.42,90.384 88.286,90.361 88.152,90.336L87.724,90.228C87.461,90.17 87.189,90.15 86.926,90.084C86.82,90.057 86.691,90.061 86.617,89.979C86.594,89.953 86.609,89.955 86.599,89.922ZM91.972,89.376C91.969,89.376 91.967,89.374 91.967,89.371C91.967,89.368 91.969,89.366 91.972,89.366C91.976,89.36 91.972,89.359 91.978,89.356C91.986,89.351 91.996,89.355 92.005,89.355C92.106,89.351 92.206,89.341 92.306,89.334C92.382,89.329 92.458,89.325 92.534,89.328C92.744,89.317 92.95,89.301 93.163,89.305C93.364,89.309 93.564,89.33 93.765,89.316L94.648,89.288C94.82,89.279 94.988,89.244 95.158,89.247C95.255,89.248 95.346,89.258 95.441,89.284C95.468,89.291 95.486,89.3 95.512,89.311C95.52,89.31 95.526,89.316 95.526,89.324C95.526,89.331 95.521,89.338 95.513,89.338C95.489,89.35 95.472,89.361 95.447,89.371C95.358,89.406 95.275,89.435 95.183,89.459C95.016,89.501 94.844,89.518 94.671,89.541C94.581,89.551 94.49,89.559 94.4,89.564C94.193,89.577 93.987,89.579 93.779,89.593C93.565,89.6 93.349,89.596 93.137,89.556C92.928,89.517 92.733,89.446 92.528,89.395C92.491,89.389 92.455,89.385 92.419,89.382C92.285,89.374 92.151,89.387 92.017,89.387C92.003,89.387 91.988,89.394 91.976,89.386C91.969,89.381 91.975,89.384 91.972,89.376ZM95.501,90.761C95.496,90.761 95.491,90.757 95.491,90.751C95.491,90.745 95.496,90.741 95.501,90.741C95.516,90.737 95.529,90.731 95.544,90.729C95.672,90.711 95.803,90.73 95.932,90.722C96.077,90.713 96.217,90.682 96.363,90.674C96.553,90.663 96.744,90.671 96.934,90.666C97.064,90.668 97.194,90.667 97.324,90.669C97.508,90.672 97.691,90.683 97.874,90.69C97.997,90.695 98.12,90.699 98.242,90.708C98.371,90.718 98.5,90.726 98.628,90.747C98.743,90.765 98.854,90.792 98.969,90.809C98.977,90.811 98.985,90.809 98.992,90.813C99.002,90.818 99,90.822 99.008,90.829C99.01,90.829 99.012,90.831 99.012,90.834C99.012,90.836 99.01,90.838 99.008,90.838C98.995,90.845 98.989,90.852 98.976,90.856C98.886,90.885 98.789,90.877 98.694,90.877C98.54,90.876 98.387,90.855 98.233,90.85C98.105,90.843 97.976,90.839 97.846,90.842C97.634,90.846 97.421,90.866 97.209,90.874C97.117,90.878 97.025,90.877 96.934,90.877C96.79,90.875 96.646,90.875 96.502,90.867C96.422,90.862 96.342,90.855 96.262,90.844C96.14,90.829 96.024,90.8 95.902,90.787C95.782,90.775 95.66,90.792 95.542,90.773C95.527,90.771 95.515,90.765 95.501,90.761ZM100.373,90.471C100.356,90.473 100.34,90.46 100.337,90.443C100.335,90.425 100.348,90.409 100.366,90.407C100.417,90.399 100.47,90.396 100.523,90.395C100.641,90.392 100.76,90.4 100.877,90.389L101.297,90.321C101.423,90.298 101.546,90.271 101.672,90.25C101.859,90.22 102.046,90.196 102.234,90.172C102.328,90.16 102.422,90.148 102.516,90.14C102.648,90.129 102.781,90.129 102.913,90.118C103.001,90.111 103.089,90.099 103.176,90.089C103.254,90.081 103.332,90.07 103.41,90.064C103.529,90.055 103.647,90.054 103.765,90.052C103.872,90.046 103.979,90.028 104.087,90.033C104.117,90.034 104.14,90.044 104.17,90.048C104.182,90.045 104.194,90.052 104.197,90.064C104.2,90.076 104.192,90.088 104.18,90.091C104.154,90.109 104.134,90.127 104.104,90.138C104.002,90.178 103.887,90.169 103.779,90.185C103.663,90.207 103.55,90.234 103.435,90.255C103.358,90.269 103.28,90.279 103.203,90.291C103.115,90.304 103.027,90.315 102.939,90.33C102.807,90.351 102.677,90.382 102.545,90.4C102.451,90.413 102.356,90.421 102.261,90.428C102.071,90.443 101.881,90.456 101.691,90.459C101.563,90.462 101.437,90.457 101.309,90.455L100.883,90.489C100.763,90.492 100.642,90.475 100.522,90.47C100.472,90.467 100.422,90.467 100.373,90.471Z" style="fill:#7e4614;"/>
        <g transform="matrix(0.517538,0,0,0.517538,49.2609,48.7135)">
            <path d="M105.662,102.021C106.231,102.021 106.693,102.484 106.693,103.053C106.693,103.622 106.231,104.085 105.662,104.085C105.092,104.085 104.63,103.622 104.63,103.053C104.63,102.484 105.092,102.021 105.662,102.021ZM114.573,120.314C115.142,120.314 115.604,120.777 115.604,121.346C115.604,121.915 115.142,122.378 114.573,122.378C114.003,122.378 113.541,121.915 113.541,121.346C113.541,120.777 114.003,120.314 114.573,120.314ZM101.562,123.708C102.131,123.708 102.594,124.17 102.594,124.74C102.594,125.309 102.131,125.771 101.562,125.771C100.992,125.771 100.53,125.309 100.53,124.74C100.53,124.17 100.992,123.708 101.562,123.708ZM76.792,102.021C77.361,102.021 77.824,102.484 77.824,103.053C77.824,103.622 77.361,104.085 76.792,104.085C76.222,104.085 75.76,103.622 75.76,103.053C75.76,102.484 76.222,102.021 76.792,102.021ZM66.036,119.283C66.605,119.283 67.068,119.745 67.068,120.314C67.068,120.884 66.605,121.346 66.036,121.346C65.466,121.346 65.004,120.884 65.004,120.314C65.004,119.745 65.466,119.283 66.036,119.283ZM76.792,123.708C77.077,123.708 77.308,123.939 77.308,124.224C77.308,124.509 77.077,124.74 76.792,124.74C76.507,124.74 76.276,124.509 76.276,124.224C76.276,123.939 76.507,123.708 76.792,123.708ZM64.55,99.613C64.835,99.613 65.066,99.844 65.066,100.129C65.066,100.413 64.835,100.645 64.55,100.645C64.265,100.645 64.034,100.413 64.034,100.129C64.034,99.844 64.265,99.613 64.55,99.613ZM98.039,101.506C98.324,101.506 98.555,101.737 98.555,102.021C98.555,102.306 98.324,102.537 98.039,102.537C97.754,102.537 97.523,102.306 97.523,102.021C97.523,101.737 97.754,101.506 98.039,101.506ZM108.246,119.798C108.53,119.798 108.761,120.03 108.761,120.314C108.761,120.599 108.53,120.83 108.246,120.83C107.961,120.83 107.73,120.599 107.73,120.314C107.73,120.03 107.961,119.798 108.246,119.798ZM116.371,99.097C116.656,99.097 116.887,99.328 116.887,99.613C116.887,99.898 116.656,100.129 116.371,100.129C116.087,100.129 115.856,99.898 115.856,99.613C115.856,99.328 116.087,99.097 116.371,99.097ZM82.99,110.705L80.113,111.564C79.733,111.678 79.333,111.462 79.22,111.082C79.107,110.703 79.322,110.303 79.702,110.19L81.281,109.718L79.586,108.739C79.243,108.541 79.125,108.102 79.323,107.759C79.521,107.416 79.961,107.299 80.303,107.497L82.18,108.58L81.728,106.679C81.637,106.294 81.875,105.907 82.261,105.816C82.646,105.724 83.033,105.963 83.124,106.348L83.889,109.567L84.746,110.061L84.294,108.161C84.202,107.775 84.441,107.388 84.826,107.297C85.211,107.205 85.598,107.444 85.69,107.829L86.455,111.048L87.239,111.501L86.725,109.451C86.648,109.14 86.785,108.816 87.063,108.655C87.34,108.495 87.69,108.538 87.92,108.761L89.439,110.231L89.439,109.156L87.144,106.989C86.857,106.717 86.844,106.263 87.116,105.975C87.387,105.687 87.842,105.674 88.13,105.946L89.439,107.183L89.439,106.194L87.144,104.027C86.857,103.755 86.844,103.301 87.116,103.013C87.387,102.725 87.842,102.712 88.13,102.984L89.439,104.22L89.439,102.222C89.439,101.826 89.76,101.505 90.156,101.505C90.552,101.505 90.874,101.826 90.874,102.222L90.874,104.22L92.183,102.984C92.471,102.712 92.925,102.725 93.197,103.013C93.469,103.301 93.456,103.755 93.168,104.027L90.874,106.194L90.874,107.183L92.183,105.946C92.471,105.674 92.925,105.687 93.197,105.975C93.469,106.263 93.456,106.717 93.168,106.989L90.874,109.156L90.874,110.231L92.392,108.761C92.622,108.538 92.972,108.495 93.25,108.655C93.527,108.816 93.665,109.14 93.587,109.451L93.073,111.501L93.858,111.048L94.623,107.829C94.714,107.444 95.101,107.205 95.486,107.297C95.872,107.388 96.11,107.775 96.019,108.161L95.567,110.061L96.423,109.567L97.188,106.348C97.28,105.963 97.667,105.724 98.052,105.816C98.437,105.907 98.676,106.294 98.584,106.679L98.133,108.58L100.009,107.497C100.352,107.299 100.791,107.416 100.989,107.759C101.187,108.102 101.069,108.541 100.727,108.739L99.032,109.718L100.611,110.19C100.99,110.303 101.206,110.703 101.093,111.082C100.979,111.462 100.579,111.678 100.2,111.564L97.323,110.705L96.466,111.199L98.045,111.671C98.425,111.784 98.641,112.184 98.527,112.564C98.414,112.943 98.014,113.159 97.634,113.046L94.757,112.186L93.791,112.744L95.823,113.324C96.131,113.412 96.344,113.693 96.344,114.014C96.344,114.334 96.131,114.616 95.823,114.704L93.791,115.284L94.464,115.672L97.634,114.725C98.014,114.612 98.414,114.828 98.527,115.207C98.641,115.586 98.425,115.987 98.045,116.1L96.173,116.659L97.03,117.154L100.2,116.206C100.579,116.093 100.979,116.309 101.093,116.688C101.206,117.068 100.99,117.468 100.611,117.581L98.739,118.14L100.727,119.288C101.069,119.486 101.187,119.925 100.989,120.268C100.791,120.611 100.352,120.729 100.009,120.531L98.203,119.488L98.584,121.091C98.676,121.477 98.437,121.864 98.052,121.955C97.667,122.047 97.28,121.808 97.188,121.423L96.494,118.501L95.638,118.007L96.019,119.61C96.11,119.995 95.872,120.382 95.486,120.474C95.101,120.565 94.714,120.327 94.623,119.942L93.928,117.02L93.073,116.526L93.587,118.576C93.665,118.887 93.527,119.212 93.25,119.372C92.972,119.532 92.622,119.489 92.392,119.266L90.874,117.796L90.874,118.615L93.168,120.781C93.456,121.053 93.469,121.508 93.197,121.796C92.925,122.083 92.471,122.096 92.183,121.825L90.874,120.588L90.874,121.577L93.168,123.744C93.456,124.016 93.469,124.47 93.197,124.758C92.925,125.046 92.471,125.059 92.183,124.787L90.874,123.551L90.874,125.805C90.874,126.201 90.552,126.522 90.156,126.522C89.76,126.522 89.439,126.201 89.439,125.805L89.439,123.551L88.13,124.787C87.842,125.059 87.387,125.046 87.116,124.758C86.844,124.47 86.857,124.016 87.144,123.744L89.439,121.577L89.439,120.588L88.13,121.825C87.842,122.096 87.387,122.083 87.116,121.796C86.844,121.508 86.857,121.053 87.144,120.781L89.439,118.615L89.439,117.796L87.92,119.266C87.69,119.489 87.34,119.532 87.063,119.372C86.785,119.212 86.648,118.887 86.725,118.576L87.239,116.526L86.384,117.02L85.69,119.942C85.598,120.327 85.211,120.565 84.826,120.474C84.441,120.382 84.202,119.995 84.294,119.61L84.675,118.007L83.819,118.501L83.124,121.423C83.033,121.808 82.646,122.047 82.261,121.955C81.875,121.864 81.637,121.477 81.728,121.091L82.109,119.488L80.303,120.531C79.961,120.729 79.521,120.611 79.323,120.268C79.125,119.925 79.243,119.486 79.586,119.288L81.574,118.14L79.702,117.581C79.322,117.468 79.107,117.068 79.22,116.688C79.333,116.309 79.733,116.093 80.113,116.206L83.283,117.154L84.139,116.659L82.267,116.1C81.888,115.987 81.672,115.586 81.785,115.207C81.899,114.828 82.299,114.612 82.678,114.725L85.848,115.672L86.522,115.284L84.49,114.704C84.182,114.616 83.969,114.334 83.969,114.014C83.969,113.693 84.182,113.412 84.49,113.324L86.522,112.744L85.556,112.186L82.678,113.046C82.299,113.159 81.899,112.943 81.785,112.564C81.672,112.184 81.888,111.784 82.267,111.671L83.846,111.199L82.99,110.705ZM90.874,115.799L91.584,116.487L91.344,115.528L90.874,115.256L90.874,115.799ZM88.969,115.528L88.728,116.487L89.439,115.799L89.439,115.256L88.969,115.528ZM92.061,114.285L93.012,114.014L92.061,113.742L91.591,114.014L92.061,114.285ZM88.251,113.742L87.301,114.014L88.251,114.285L88.721,114.014L88.251,113.742ZM89.439,112.228L88.728,111.541L88.969,112.5L89.439,112.771L89.439,112.228ZM91.344,112.5L91.584,111.541L90.874,112.228L90.874,112.771L91.344,112.5ZM108.339,109.453L106.983,109.859C106.804,109.912 106.615,109.81 106.562,109.631C106.508,109.453 106.61,109.264 106.789,109.211L107.533,108.988L106.734,108.527C106.573,108.433 106.517,108.226 106.611,108.065C106.704,107.903 106.911,107.848 107.073,107.941L107.957,108.452L107.744,107.556C107.701,107.374 107.814,107.192 107.995,107.149C108.177,107.105 108.359,107.218 108.403,107.399L108.763,108.917L109.167,109.15L108.954,108.254C108.911,108.072 109.023,107.89 109.205,107.847C109.386,107.804 109.569,107.916 109.612,108.098L109.972,109.615L110.342,109.829L110.1,108.862C110.063,108.716 110.128,108.563 110.259,108.487C110.39,108.412 110.555,108.432 110.663,108.537L111.379,109.23L111.379,108.723L110.298,107.702C110.162,107.574 110.156,107.359 110.284,107.224C110.412,107.088 110.626,107.082 110.762,107.21L111.379,107.793L111.379,107.327L110.298,106.305C110.162,106.177 110.156,105.963 110.284,105.827C110.412,105.691 110.626,105.685 110.762,105.814L111.379,106.396L111.379,105.455C111.379,105.268 111.531,105.116 111.717,105.116C111.904,105.116 112.056,105.268 112.056,105.455L112.056,106.396L112.673,105.814C112.809,105.685 113.023,105.691 113.151,105.827C113.279,105.963 113.273,106.177 113.137,106.305L112.056,107.327L112.056,107.793L112.673,107.21C112.809,107.082 113.023,107.088 113.151,107.224C113.279,107.359 113.273,107.574 113.137,107.702L112.056,108.723L112.056,109.23L112.771,108.537C112.88,108.432 113.045,108.412 113.176,108.487C113.307,108.563 113.371,108.716 113.335,108.862L113.092,109.829L113.462,109.615L113.823,108.098C113.866,107.916 114.049,107.804 114.23,107.847C114.412,107.89 114.524,108.072 114.481,108.254L114.268,109.15L114.672,108.917L115.032,107.399C115.075,107.218 115.258,107.105 115.44,107.149C115.621,107.192 115.734,107.374 115.69,107.556L115.478,108.452L116.362,107.941C116.524,107.848 116.731,107.903 116.824,108.065C116.918,108.226 116.862,108.433 116.7,108.527L115.901,108.988L116.646,109.211C116.825,109.264 116.926,109.453 116.873,109.631C116.82,109.81 116.631,109.912 116.452,109.859L115.096,109.453L114.692,109.686L115.436,109.909C115.615,109.962 115.717,110.151 115.664,110.33C115.61,110.508 115.422,110.61 115.243,110.557L113.886,110.152L113.431,110.415L114.389,110.688C114.534,110.729 114.634,110.862 114.634,111.013C114.634,111.164 114.534,111.297 114.389,111.338L113.431,111.612L113.748,111.795L115.243,111.349C115.422,111.295 115.61,111.397 115.664,111.576C115.717,111.755 115.615,111.943 115.436,111.997L114.554,112.26L114.958,112.493L116.452,112.047C116.631,111.993 116.82,112.095 116.873,112.274C116.926,112.453 116.825,112.642 116.646,112.695L115.763,112.959L116.7,113.5C116.862,113.593 116.918,113.8 116.824,113.962C116.731,114.123 116.524,114.179 116.362,114.085L115.511,113.594L115.69,114.35C115.734,114.531 115.621,114.714 115.44,114.757C115.258,114.8 115.075,114.688 115.032,114.506L114.705,113.129L114.301,112.896L114.481,113.651C114.524,113.833 114.412,114.016 114.23,114.059C114.049,114.102 113.866,113.989 113.823,113.808L113.496,112.43L113.092,112.198L113.335,113.164C113.371,113.311 113.307,113.464 113.176,113.539C113.045,113.615 112.88,113.594 112.771,113.489L112.056,112.796L112.056,113.182L113.137,114.204C113.273,114.332 113.279,114.546 113.151,114.682C113.023,114.817 112.809,114.824 112.673,114.695L112.056,114.113L112.056,114.579L113.137,115.6C113.273,115.728 113.279,115.943 113.151,116.078C113.023,116.214 112.809,116.22 112.673,116.092L112.056,115.509L112.056,116.572C112.056,116.758 111.904,116.91 111.717,116.91C111.531,116.91 111.379,116.758 111.379,116.572L111.379,115.509L110.762,116.092C110.626,116.22 110.412,116.214 110.284,116.078C110.156,115.943 110.162,115.728 110.298,115.6L111.379,114.579L111.379,114.113L110.762,114.695C110.626,114.824 110.412,114.817 110.284,114.682C110.156,114.546 110.162,114.332 110.298,114.204L111.379,113.182L111.379,112.796L110.663,113.489C110.555,113.594 110.39,113.615 110.259,113.539C110.128,113.464 110.063,113.311 110.1,113.164L110.342,112.198L109.939,112.43L109.612,113.808C109.569,113.989 109.386,114.102 109.205,114.059C109.023,114.016 108.911,113.833 108.954,113.651L109.133,112.896L108.73,113.129L108.403,114.506C108.359,114.688 108.177,114.8 107.995,114.757C107.814,114.714 107.701,114.531 107.744,114.35L107.924,113.594L107.073,114.085C106.911,114.179 106.704,114.123 106.611,113.962C106.517,113.8 106.573,113.593 106.734,113.5L107.671,112.959L106.789,112.695C106.61,112.642 106.508,112.453 106.562,112.274C106.615,112.095 106.804,111.993 106.983,112.047L108.477,112.493L108.881,112.26L107.998,111.997C107.82,111.943 107.718,111.755 107.771,111.576C107.825,111.397 108.013,111.295 108.192,111.349L109.687,111.795L110.004,111.612L109.046,111.338C108.901,111.297 108.801,111.164 108.801,111.013C108.801,110.862 108.901,110.729 109.046,110.688L110.004,110.415L109.549,110.152L108.192,110.557C108.013,110.61 107.825,110.508 107.771,110.33C107.718,110.151 107.82,109.962 107.998,109.909L108.743,109.686L108.339,109.453ZM112.615,111.141L113.064,111.013L112.615,110.885L112.394,111.013L112.615,111.141ZM112.277,110.3L112.391,109.847L112.056,110.172L112.056,110.427L112.277,110.3ZM111.379,110.172L111.044,109.847L111.158,110.3L111.379,110.427L111.379,110.172ZM112.056,111.855L112.391,112.179L112.277,111.727L112.056,111.599L112.056,111.855ZM111.158,111.727L111.044,112.179L111.379,111.855L111.379,111.599L111.158,111.727ZM110.819,110.885L110.371,111.013L110.819,111.141L111.041,111.013L110.819,110.885ZM65.826,108.422L64.469,108.827C64.29,108.88 64.102,108.779 64.048,108.6C63.995,108.421 64.097,108.232 64.276,108.179L65.02,107.956L64.221,107.495C64.059,107.402 64.004,107.195 64.097,107.033C64.191,106.871 64.398,106.816 64.559,106.909L65.444,107.42L65.231,106.524C65.188,106.342 65.3,106.16 65.482,106.117C65.664,106.074 65.846,106.186 65.889,106.368L66.25,107.885L66.653,108.118L66.44,107.222C66.397,107.041 66.51,106.858 66.691,106.815C66.873,106.772 67.055,106.884 67.099,107.066L67.459,108.584L67.829,108.797L67.587,107.831C67.55,107.684 67.615,107.531 67.746,107.456C67.876,107.38 68.041,107.4 68.15,107.505L68.866,108.198L68.866,107.692L67.784,106.67C67.649,106.542 67.642,106.328 67.771,106.192C67.899,106.056 68.113,106.05 68.249,106.178L68.866,106.761L68.866,106.295L67.784,105.274C67.649,105.145 67.642,104.931 67.771,104.796C67.899,104.66 68.113,104.654 68.249,104.782L68.866,105.365L68.866,104.423C68.866,104.236 69.017,104.085 69.204,104.085C69.391,104.085 69.542,104.236 69.542,104.423L69.542,105.365L70.159,104.782C70.295,104.654 70.509,104.66 70.637,104.796C70.766,104.931 70.76,105.145 70.624,105.274L69.542,106.295L69.542,106.761L70.159,106.178C70.295,106.05 70.509,106.056 70.637,106.192C70.766,106.328 70.76,106.542 70.624,106.67L69.542,107.692L69.542,108.198L70.258,107.505C70.367,107.4 70.532,107.38 70.662,107.456C70.793,107.531 70.858,107.684 70.821,107.831L70.579,108.797L70.949,108.584L71.309,107.066C71.353,106.884 71.535,106.772 71.717,106.815C71.898,106.858 72.011,107.041 71.968,107.222L71.755,108.118L72.158,107.885L72.519,106.368C72.562,106.186 72.745,106.074 72.926,106.117C73.108,106.16 73.22,106.342 73.177,106.524L72.964,107.42L73.849,106.909C74.01,106.816 74.217,106.871 74.311,107.033C74.404,107.195 74.349,107.402 74.187,107.495L73.388,107.956L74.132,108.179C74.311,108.232 74.413,108.421 74.36,108.6C74.306,108.779 74.118,108.88 73.939,108.827L72.582,108.422L72.179,108.655L72.923,108.877C73.102,108.931 73.204,109.119 73.15,109.298C73.097,109.477 72.908,109.579 72.729,109.525L71.373,109.12L70.917,109.383L71.875,109.656C72.021,109.698 72.121,109.83 72.121,109.982C72.121,110.133 72.021,110.265 71.875,110.307L70.917,110.58L71.235,110.763L72.729,110.317C72.908,110.263 73.097,110.365 73.15,110.544C73.204,110.723 73.102,110.912 72.923,110.965L72.041,111.229L72.444,111.462L73.939,111.015C74.118,110.962 74.306,111.064 74.36,111.242C74.413,111.421 74.311,111.61 74.132,111.663L73.25,111.927L74.187,112.468C74.349,112.561 74.404,112.768 74.311,112.93C74.217,113.092 74.01,113.147 73.849,113.054L72.997,112.562L73.177,113.318C73.22,113.5 73.108,113.682 72.926,113.725C72.745,113.768 72.562,113.656 72.519,113.474L72.192,112.097L71.788,111.864L71.968,112.62C72.011,112.801 71.898,112.984 71.717,113.027C71.535,113.07 71.353,112.958 71.309,112.776L70.982,111.399L70.579,111.166L70.821,112.132C70.858,112.279 70.793,112.432 70.662,112.508C70.532,112.583 70.367,112.563 70.258,112.458L69.542,111.765L69.542,112.15L70.624,113.172C70.76,113.3 70.766,113.514 70.637,113.65C70.509,113.786 70.295,113.792 70.159,113.664L69.542,113.081L69.542,113.547L70.624,114.568C70.76,114.697 70.766,114.911 70.637,115.047C70.509,115.182 70.295,115.188 70.159,115.06L69.542,114.477L69.542,115.54C69.542,115.727 69.391,115.878 69.204,115.878C69.017,115.878 68.866,115.727 68.866,115.54L68.866,114.477L68.249,115.06C68.113,115.188 67.899,115.182 67.771,115.047C67.642,114.911 67.649,114.697 67.784,114.568L68.866,113.547L68.866,113.081L68.249,113.664C68.113,113.792 67.899,113.786 67.771,113.65C67.642,113.514 67.649,113.3 67.784,113.172L68.866,112.15L68.866,111.765L68.15,112.458C68.041,112.563 67.876,112.583 67.746,112.508C67.615,112.432 67.55,112.279 67.587,112.132L67.829,111.166L67.426,111.399L67.099,112.776C67.055,112.958 66.873,113.07 66.691,113.027C66.51,112.984 66.397,112.801 66.44,112.62L66.62,111.864L66.216,112.097L65.889,113.474C65.846,113.656 65.664,113.768 65.482,113.725C65.3,113.682 65.188,113.5 65.231,113.318L65.411,112.562L64.559,113.054C64.398,113.147 64.191,113.092 64.097,112.93C64.004,112.768 64.059,112.561 64.221,112.468L65.158,111.927L64.276,111.663C64.097,111.61 63.995,111.421 64.048,111.242C64.102,111.064 64.29,110.962 64.469,111.015L65.964,111.462L66.367,111.229L65.485,110.965C65.306,110.912 65.204,110.723 65.258,110.544C65.311,110.365 65.5,110.263 65.679,110.317L67.173,110.763L67.491,110.58L66.533,110.307C66.387,110.265 66.287,110.133 66.287,109.982C66.287,109.83 66.387,109.698 66.533,109.656L67.491,109.383L67.035,109.12L65.679,109.525C65.5,109.579 65.311,109.477 65.258,109.298C65.204,109.119 65.306,108.931 65.485,108.877L66.229,108.655L65.826,108.422ZM68.866,109.14L68.531,108.816L68.644,109.268L68.866,109.396L68.866,109.14ZM68.644,110.695L68.531,111.147L68.866,110.823L68.866,110.567L68.644,110.695ZM69.542,110.823L69.877,111.147L69.764,110.695L69.542,110.567L69.542,110.823ZM70.102,110.109L70.55,109.982L70.102,109.854L69.88,109.982L70.102,110.109ZM68.306,109.854L67.858,109.982L68.306,110.109L68.528,109.982L68.306,109.854ZM69.764,109.268L69.877,108.816L69.542,109.14L69.542,109.396L69.764,109.268Z" style="fill:#fff;"/>
        </g>
    </g>
</svg>
