<?xml version="1.0" encoding="UTF-8" standalone="no"?><!DOCTYPE svg PUBLIC "-//W3C//DTD SVG 1.1//EN" "http://www.w3.org/Graphics/SVG/1.1/DTD/svg11.dtd"><svg width="100%" height="100%" viewBox="0 0 1250 1438" version="1.1" xmlns="http://www.w3.org/2000/svg" xmlns:xlink="http://www.w3.org/1999/xlink" xml:space="preserve" xmlns:serif="http://www.serif.com/" style="fill-rule:evenodd;clip-rule:evenodd;stroke-linejoin:round;stroke-miterlimit:2;"><g id="SteamPunk"><g id="ItemSteamPunk"><path d="M164.611,974.848l-118.256,39.633l-7.73,-23.064c-8.868,-26.46 5.414,-55.141 31.874,-64.009l22.372,-7.498c26.46,-8.868 55.142,5.414 64.01,31.874l7.73,23.064Z" style="fill:#737373;"/><g><path d="M229.503,1168.47c4.33,12.92 -2.238,23.358 -13.385,27.094c-11.148,3.736 -22.679,-0.636 -27.009,-13.556l-67.987,-202.855c-3.736,-11.147 2.281,-23.23 13.428,-26.966c11.147,-3.736 23.231,2.281 26.966,13.428l67.987,202.855Z" style="fill:#565656;"/><path d="M158.08,955.363c-3.736,-11.147 -15.819,-17.164 -26.966,-13.428c-11.147,3.736 -17.164,15.819 -13.428,26.966l67.503,201.414c3.736,11.147 15.819,17.164 26.967,13.428c11.147,-3.736 17.164,-15.819 13.428,-26.967l-67.504,-201.413Z" style="fill:#737373;"/><path d="M171.703,996.01l54.364,162.208c4.33,12.92 -1.205,26.442 -12.352,30.178c-11.147,3.736 -23.713,-3.72 -28.043,-16.64l-54.364,-162.208c-4.33,-12.92 1.205,-26.442 12.352,-30.178c11.147,-3.736 23.713,3.72 28.043,16.64Zm-5.868,1.966c-3.072,-9.166 -11.987,-14.456 -19.896,-11.805c-7.908,2.651 -11.835,12.244 -8.763,21.41l54.364,162.208c3.072,9.167 11.987,14.456 19.896,11.806c7.908,-2.651 11.835,-12.244 8.763,-21.411l-54.364,-162.208Z" style="fill:#969696;"/><path d="M176.999,1145.88l5.867,-1.966l2.479,7.394l-5.868,1.966l-2.478,-7.394Zm7.434,22.183l5.868,-1.967l1.226,3.659l0.013,0.038c0.33,0.986 0.728,1.927 1.185,2.819l-5.386,3.112c-0.643,-1.254 -1.202,-2.577 -1.667,-3.964l-1.239,-3.697Zm14.465,19.208l2.03,-6.472c1.681,0.809 3.465,1.307 5.274,1.446l0.133,7.063c-2.551,-0.195 -5.066,-0.896 -7.437,-2.037Zm21.254,-2.594l-4.151,-5.716c1.36,-1.201 2.484,-2.674 3.338,-4.333l5.52,3.942c-1.204,2.339 -2.789,4.414 -4.707,6.107Zm6.973,-22.288l-6.173,0.762c-0.173,-0.986 -0.423,-1.977 -0.753,-2.963l-0.013,-0.038l-1.226,-3.659l5.868,-1.966l1.239,3.697c0.464,1.386 0.816,2.78 1.058,4.167Zm-7.254,-22.653l-5.868,1.967l-2.478,-7.394l5.868,-1.967l2.478,7.394Zm-7.434,-22.182l-5.868,1.966l-2.478,-7.394l5.868,-1.966l2.478,7.394Z" style="fill:#616161;"/></g><g><path d="M114.128,1002.33l-2.749,7.11l-6.478,-4.018l-2.749,7.11l-6.478,-4.017l-2.749,7.109l-6.478,-4.017l-2.749,7.11l-6.478,-4.017l-2.749,7.109l-6.478,-4.017l-2.749,7.11l-6.478,-4.017l-2.749,7.109l-6.479,-4.017c0,0 -0.832,0.279 -1.849,0.62c-0.968,0.324 -2.025,0.251 -2.939,-0.204c-0.914,-0.455 -1.609,-1.255 -1.934,-2.222c-0.956,-2.853 -2.274,-6.786 -3.204,-9.562c-0.299,-0.892 -0.232,-1.865 0.188,-2.707c0.419,-0.842 1.155,-1.482 2.046,-1.781c13.333,-4.468 62.441,-20.927 76.323,-25.579c2.03,-0.681 4.228,0.414 4.909,2.444c1.636,4.883 4.322,12.896 4.322,12.896l-13.272,4.448Z" style="fill:#717171;"/><path d="M110.945,992.834l-2.749,7.11l-6.479,-4.017l-2.749,7.109l-6.478,-4.017l-2.749,7.11l-6.478,-4.017l-2.749,7.109l-6.478,-4.017l-2.749,7.11l-6.478,-4.018l-2.749,7.11l-6.478,-4.017l-2.749,7.11l-6.478,-4.018c-0,0 -0.833,0.279 -1.85,0.62c-0.968,0.325 -2.025,0.251 -2.939,-0.204c-0.914,-0.455 -1.609,-1.254 -1.934,-2.222c-0.956,-2.852 -2.274,-6.786 -3.204,-9.562c-0.299,-0.891 -0.231,-1.865 0.188,-2.707c0.419,-0.841 1.155,-1.482 2.047,-1.781c13.332,-4.468 62.44,-20.927 76.322,-25.579c2.03,-0.681 4.228,0.414 4.909,2.445c1.636,4.882 4.322,12.895 4.322,12.895l-13.271,4.448Z" style="fill:#969696;"/></g><g><path d="M190.599,1142.89c0.512,1.157 0.394,2.973 -0.477,5.215l-13.713,35.313c-0.219,0.564 -0.476,1.13 -0.765,1.691l66.993,199.892c2.52,7.517 -1.538,15.666 -9.056,18.185l-27.241,9.13c-7.518,2.52 -15.666,-1.538 -18.186,-9.056l-112.326,-335.152c-2.24,-6.684 0.72,-13.867 6.688,-17.149c0.958,-0.586 1.996,-1.074 3.106,-1.445l89.892,-30.128c7.951,-2.665 16.571,1.628 19.236,9.579l19.91,59.408c2.665,7.951 -1.627,16.571 -9.579,19.236l-49.816,16.696l4.079,12.171l26.166,-8.769l5.089,15.183Zm12.917,215.113c-5.714,1.915 -8.798,8.109 -6.883,13.823c1.915,5.714 8.108,8.798 13.822,6.883c5.714,-1.915 8.798,-8.109 6.883,-13.823c-1.915,-5.713 -8.108,-8.798 -13.822,-6.883Z" style="fill:#8e191b;"/><path d="M77.468,1035.9c0.959,-0.586 1.997,-1.074 3.107,-1.446l89.891,-30.127c7.952,-2.665 16.571,1.627 19.237,9.579l19.91,59.408c2.665,7.951 -1.627,16.571 -9.579,19.236l-49.816,16.696l8.446,25.202l23.039,-7.721c3.697,-1.239 5.207,1.593 3.372,6.319l-13.714,35.313c-0.219,0.564 -0.476,1.13 -0.765,1.691l66.994,199.891c2.519,7.518 -1.539,15.667 -9.056,18.186l-27.241,9.13c-7.518,2.519 -15.667,-1.538 -18.186,-9.056l-112.326,-335.152c-2.24,-6.684 0.719,-13.868 6.687,-17.149Zm121,307.044c-5.713,1.915 -8.798,8.109 -6.883,13.823c1.915,5.714 8.109,8.798 13.823,6.883c5.714,-1.915 8.798,-8.109 6.883,-13.823c-1.915,-5.714 -8.109,-8.798 -13.823,-6.883Z" style="fill:#d62e31;"/><path d="M222.434,1347.42l1.298,3.872c4.33,12.92 -1.205,26.442 -12.352,30.178c-11.147,3.736 -23.712,-3.72 -28.042,-16.64l-1.298,-3.872c4.33,12.92 16.895,20.375 28.042,16.64c11.148,-3.736 16.682,-17.259 12.352,-30.178Zm-95.242,-264.703c-3.072,-9.166 -11.987,-14.456 -19.895,-11.806c-7.909,2.651 -11.836,12.245 -8.764,21.411l-1.297,-3.873c-3.072,-9.166 0.854,-18.76 8.763,-21.41c7.908,-2.651 16.823,2.639 19.895,11.805l1.298,3.873Z" style="fill:#8e191b;"/><path d="M131.762,1076.88l90.672,270.543c4.33,12.919 -1.204,26.442 -12.352,30.178c-11.147,3.735 -23.712,-3.72 -28.042,-16.64l-90.672,-270.542c-4.33,-12.92 1.204,-26.442 12.352,-30.178c11.147,-3.736 23.712,3.72 28.042,16.639Zm-5.868,1.967c-3.072,-9.166 -11.987,-14.456 -19.895,-11.805c-7.909,2.65 -11.835,12.244 -8.763,21.41l90.672,270.542c3.072,9.166 11.986,14.456 19.895,11.806c7.909,-2.651 11.835,-12.245 8.763,-21.411l-90.672,-270.542Z" style="fill:#ff3c40;"/></g><g><path d="M74.412,1063.88l-6.099,2.044c-1.124,0.377 -2.352,0.291 -3.414,-0.237c-1.062,-0.529 -1.87,-1.458 -2.247,-2.582l-2.656,-7.927c-0.816,-2.434 0.496,-5.067 2.929,-5.882l0.205,-0.069l2.749,-7.11l4.594,2.849c-0.654,2.579 -0.6,5.37 0.308,8.078l3.631,10.836Z" style="fill:#717171;"/><path d="M60.439,1041.2l2.749,-7.11l6.478,4.017l2.749,-7.109l6.478,4.017l2.749,-7.11l6.479,4.017l2.748,-7.109l6.479,4.017l2.749,-7.11l6.478,4.017l2.749,-7.109l6.478,4.017l2.749,-7.11l6.478,4.018l8.661,-2.903c-0,-0 2.777,8.286 4.403,13.14c0.636,1.896 -0.386,3.948 -2.282,4.583c-12.866,4.312 -58.149,19.489 -71.003,23.797c-1.892,0.634 -3.939,-0.386 -4.574,-2.278c-0.939,-2.802 -2.262,-6.75 -3.213,-9.587c-0.316,-0.945 -0.245,-1.976 0.199,-2.867c0.444,-0.891 1.224,-1.569 2.168,-1.886c0.61,-0.204 1.051,-0.352 1.051,-0.352Z" style="fill:#969696;"/></g><g><path d="M217.823,1097.81c-1.867,-5.568 -7.902,-8.574 -13.47,-6.707l-41.678,13.968c-5.568,1.866 -8.574,7.902 -6.707,13.47l1.679,5.011c1.866,5.568 7.902,8.574 13.47,6.708l41.678,-13.968c5.568,-1.867 8.573,-7.902 6.707,-13.47l-1.679,-5.012Z" style="fill:#909090;"/><path d="M166.691,1130.76l-7.85,-23.423c0.662,-0.613 1.409,-1.146 2.231,-1.581l8.352,24.921c-0.918,0.148 -1.835,0.173 -2.733,0.083Zm10.365,-2.492l-8.442,-25.189l2.482,-0.831l8.442,25.188l-2.482,0.832Zm9.732,-3.261l-8.442,-25.189l2.482,-0.832l8.442,25.189l-2.482,0.832Zm9.289,-3.114l-8.442,-25.188l2.482,-0.832l8.442,25.189l-2.482,0.831Zm9.006,-3.018l-8.442,-25.189l2.481,-0.831l8.442,25.188l-2.481,0.832Zm9.315,-3.271l-8.352,-24.921c0.917,-0.148 1.835,-0.172 2.732,-0.083l7.851,23.424c-0.663,0.612 -1.41,1.145 -2.231,1.58Z" style="fill:#737373;fill-opacity:0.5;"/><path d="M158.159,1124.81c-0.195,-0.403 -0.366,-0.823 -0.512,-1.258l-1.679,-5.011c-0.218,-0.651 -0.37,-1.307 -0.459,-1.963l61.496,-20.611c0.325,0.577 0.6,1.193 0.818,1.843l1.679,5.012c0.146,0.435 0.262,0.873 0.35,1.311l-61.693,20.677Z" style="fill:#737373;"/></g></g></g></svg>