<?xml version="1.0" encoding="UTF-8" standalone="no"?>
<svg
   width="100%"
   height="100%"
   viewBox="0 0 300 345"
   version="1.1"
   xml:space="preserve"
   style="fill-rule:evenodd;clip-rule:evenodd;stroke-linejoin:round;stroke-miterlimit:2;"
   id="svg32209"
   sodipodi:docname="werewolf.svg"
   inkscape:version="1.2 (dc2aedaf03, 2022-05-15)"
   xmlns:inkscape="http://www.inkscape.org/namespaces/inkscape"
   xmlns:sodipodi="http://sodipodi.sourceforge.net/DTD/sodipodi-0.dtd"
   xmlns:xlink="http://www.w3.org/1999/xlink"
   xmlns="http://www.w3.org/2000/svg"
   xmlns:svg="http://www.w3.org/2000/svg"><defs
   id="defs32213"><inkscape:path-effect
     effect="fillet_chamfer"
     id="path-effect62431"
     is_visible="true"
     lpeversion="1"
     nodesatellites_param="F,0,0,1,0,0,0,1 @ F,0,0,1,0,0,0,1 @ F,0,0,1,0,0,0,1 @ F,0,0,1,0,3.7369774,0,1"
     unit="px"
     method="auto"
     mode="F"
     radius="0"
     chamfer_steps="1"
     flexible="false"
     use_knot_distance="true"
     apply_no_radius="true"
     apply_with_radius="true"
     only_selected="false"
     hide_knots="false" /><inkscape:path-effect
     effect="fillet_chamfer"
     id="path-effect60771"
     is_visible="true"
     lpeversion="1"
     nodesatellites_param="F,0,0,1,0,0,0,1 @ F,0,0,1,0,0,0,1 @ F,0,0,1,0,0,0,1 @ F,0,0,1,0,3.7369774,0,1"
     unit="px"
     method="auto"
     mode="F"
     radius="0"
     chamfer_steps="1"
     flexible="false"
     use_knot_distance="true"
     apply_no_radius="true"
     apply_with_radius="true"
     only_selected="false"
     hide_knots="false" /><inkscape:path-effect
     effect="fillet_chamfer"
     id="path-effect60611"
     is_visible="true"
     lpeversion="1"
     nodesatellites_param="F,0,0,1,0,0,0,1 @ F,0,0,1,0,0,0,1 @ F,0,0,1,0,0,0,1 @ F,0,0,1,0,3.7369774,0,1"
     unit="px"
     method="auto"
     mode="F"
     radius="0"
     chamfer_steps="1"
     flexible="false"
     use_knot_distance="true"
     apply_no_radius="true"
     apply_with_radius="true"
     only_selected="false"
     hide_knots="false" /><inkscape:path-effect
     effect="fillet_chamfer"
     id="path-effect56063"
     is_visible="true"
     lpeversion="1"
     nodesatellites_param="F,0,0,1,0,0,0,1 @ F,0,0,1,0,0,0,1 @ F,0,0,1,0,0,0,1 @ F,0,0,1,0,3.7369774,0,1"
     unit="px"
     method="auto"
     mode="F"
     radius="0"
     chamfer_steps="1"
     flexible="false"
     use_knot_distance="true"
     apply_no_radius="true"
     apply_with_radius="true"
     only_selected="false"
     hide_knots="false" /><inkscape:path-effect
     effect="fillet_chamfer"
     id="path-effect54949"
     is_visible="true"
     lpeversion="1"
     nodesatellites_param="F,0,0,1,0,2.0745011,0,1 @ F,0,0,1,0,0,0,1 @ F,0,0,1,0,3.2958125,0,1 @ F,0,0,1,0,0,0,1 @ F,0,0,1,0,2.4979437,0,1 @ F,0,0,1,0,0,0,1"
     unit="px"
     method="auto"
     mode="F"
     radius="0"
     chamfer_steps="1"
     flexible="false"
     use_knot_distance="true"
     apply_no_radius="true"
     apply_with_radius="true"
     only_selected="false"
     hide_knots="false" /><inkscape:path-effect
     effect="fillet_chamfer"
     id="path-effect54654"
     is_visible="true"
     lpeversion="1"
     nodesatellites_param="F,0,0,1,0,0,0,1 @ F,0,0,1,0,0,0,1 @ F,0,0,1,0,3.7660844,0,1 @ F,0,0,1,0,0,0,1 @ F,0,0,1,0,3.3817293,0,1 @ F,0,0,1,0,0,0,1 @ F,0,0,1,0,0,0,1 @ F,0,0,1,0,0,0,1"
     unit="px"
     method="auto"
     mode="F"
     radius="0"
     chamfer_steps="1"
     flexible="false"
     use_knot_distance="true"
     apply_no_radius="true"
     apply_with_radius="true"
     only_selected="false"
     hide_knots="false" /><inkscape:path-effect
     effect="fillet_chamfer"
     id="path-effect45904"
     is_visible="true"
     lpeversion="1"
     nodesatellites_param="F,0,0,1,0,0,0,1 @ F,0,0,1,0,0,0,1 @ F,0,0,1,0,0.34704967,0,1 @ F,0,0,1,0,0.38493187,0,1 @ F,0,0,1,0,0,0,1 @ F,0,0,1,0,0,0,1"
     unit="px"
     method="auto"
     mode="F"
     radius="0"
     chamfer_steps="1"
     flexible="false"
     use_knot_distance="true"
     apply_no_radius="true"
     apply_with_radius="true"
     only_selected="false"
     hide_knots="false" /><inkscape:path-effect
     effect="fillet_chamfer"
     id="path-effect29379"
     is_visible="true"
     lpeversion="1"
     nodesatellites_param="F,0,0,1,0,4,0,1 @ F,0,0,1,0,4,0,1 @ F,0,0,1,0,4,0,1 @ F,0,0,1,0,4,0,1"
     unit="px"
     method="auto"
     mode="F"
     radius="4"
     chamfer_steps="1"
     flexible="false"
     use_knot_distance="true"
     apply_no_radius="true"
     apply_with_radius="true"
     only_selected="false"
     hide_knots="false" /><inkscape:path-effect
     effect="fillet_chamfer"
     id="path-effect29383"
     is_visible="true"
     lpeversion="1"
     nodesatellites_param="F,0,0,1,0,4,0,1 @ F,0,0,1,0,4,0,1 @ F,0,0,1,0,4,0,1 @ F,0,0,1,0,4,0,1"
     unit="px"
     method="auto"
     mode="F"
     radius="4"
     chamfer_steps="1"
     flexible="false"
     use_knot_distance="true"
     apply_no_radius="true"
     apply_with_radius="true"
     only_selected="false"
     hide_knots="false" /><clipPath
     clipPathUnits="userSpaceOnUse"
     id="clipPath28126"><path
       style="opacity:1;fill:#757575;fill-opacity:1;stroke:none;stroke-width:2.58704;stroke-linecap:round;stroke-linejoin:round;stroke-dasharray:none;stroke-dashoffset:459.891;stroke-opacity:1;stop-color:#000000"
       d="m 63.088458,139.88154 -40.67654,-34.36807 -21.0197896,12.47084 -1.15500416,18.1172 -0.25389955,14.30977 13.02755531,2.97621 30.955142,-1.11725 z"
       id="path28128" /></clipPath><clipPath
     clipPathUnits="userSpaceOnUse"
     id="clipPath28076"><ellipse
       style="opacity:1;fill:#000000;fill-opacity:1;stroke:none;stroke-width:0.944682;stroke-linecap:round;stroke-linejoin:round;stroke-dasharray:none;stroke-dashoffset:459.891;stroke-opacity:1;stop-color:#000000"
       id="ellipse28078"
       cx="30.471481"
       cy="16.908646"
       rx="21.662758"
       ry="11.554724" /></clipPath><linearGradient
     id="linear-gradient"
     x1="150"
     y1="358.06"
     x2="150"
     y2="201.46001"
     gradientUnits="userSpaceOnUse"><stop
       offset="0"
       stop-color="#fabc2e"
       id="stop31210" /><stop
       offset="1"
       stop-color="#cd8029"
       id="stop31212" /></linearGradient><inkscape:path-effect
     effect="fillet_chamfer"
     id="path-effect87583"
     is_visible="true"
     lpeversion="1"
     nodesatellites_param="F,0,0,1,0,0,0,1 @ F,0,0,1,0,0,0,1 @ F,0,0,1,0,0.34704967,0,1 @ F,0,0,1,0,0.38493187,0,1 @ F,0,0,1,0,0,0,1 @ F,0,0,1,0,0,0,1"
     unit="px"
     method="auto"
     mode="F"
     radius="0"
     chamfer_steps="1"
     flexible="false"
     use_knot_distance="true"
     apply_no_radius="true"
     apply_with_radius="true"
     only_selected="false"
     hide_knots="false" /><inkscape:path-effect
     effect="fillet_chamfer"
     id="path-effect25636"
     is_visible="true"
     lpeversion="1"
     nodesatellites_param="F,0,0,1,0,0,0,1 @ F,0,0,1,0,0,0,1 @ F,0,0,1,0,0.34704967,0,1 @ F,0,0,1,0,0.38493187,0,1 @ F,0,0,1,0,0,0,1 @ F,0,0,1,0,0,0,1"
     unit="px"
     method="auto"
     mode="F"
     radius="0"
     chamfer_steps="1"
     flexible="false"
     use_knot_distance="true"
     apply_no_radius="true"
     apply_with_radius="true"
     only_selected="false"
     hide_knots="false" /><style
     id="style52635">.cls-1{fill:url(#linear-gradient);}.cls-2{fill:#594a42;}.cls-3{fill:#ce2235;}.cls-4{fill:url(#linear-gradient-2);}.cls-5{fill:#2f2c38;}.cls-5,.cls-6{fill-opacity:0.5;}.cls-6{fill:#15141a;}.cls-7{fill:#726658;}.cls-8{fill:#29211d;}.cls-9{fill:none;stroke:#29211d;stroke-miterlimit:10;stroke-width:4px;}.cls-10{fill:#e4d9cf;}.cls-11{fill:#8a9b9c;}.cls-12{fill:#ecf7fe;}.cls-13{fill:#3f312b;}</style><linearGradient
     id="linear-gradient-27"
     x1="150"
     y1="356.11"
     x2="150"
     y2="161.16"
     gradientUnits="userSpaceOnUse"><stop
       offset="0"
       stop-color="#594a42"
       id="stop52637" /><stop
       offset="0.69"
       stop-color="#281813"
       id="stop52639" /></linearGradient><linearGradient
     id="linear-gradient-2"
     x1="150"
     y1="359.3"
     x2="150"
     y2="45.31"
     gradientUnits="userSpaceOnUse"><stop
       offset="0.03"
       stop-color="#9d1c20"
       id="stop52642" /><stop
       offset="0.34"
       stop-color="#6a140e"
       id="stop52644" /></linearGradient><clipPath
     clipPathUnits="userSpaceOnUse"
     id="clipPath62223"><path
       style="opacity:1;fill:#ce2235;fill-opacity:1;stroke:none;stroke-width:2.1;stroke-linecap:round;stroke-linejoin:round;stroke-dasharray:none;stroke-dashoffset:459.891;stroke-opacity:1;stop-color:#000000"
       d="M 184.54717,177.3157 170.952,195.82827 c -0.34518,8.90682 8.38919,10.28392 14.7522,10.99183 l 5.78518,-12.72739"
       id="path62225"
       sodipodi:nodetypes="cccc" /></clipPath><clipPath
     clipPathUnits="userSpaceOnUse"
     id="clipPath62229"><path
       style="opacity:1;fill:#ce2235;fill-opacity:1;stroke:none;stroke-width:1.5;stroke-linecap:round;stroke-linejoin:round;stroke-dasharray:none;stroke-dashoffset:459.891;stroke-opacity:1;stop-color:#000000"
       d="m 184.54717,201.32419 c 0,0 12.86241,5.41592 19.6696,5.49591 5.86933,0.069 12.09291,-1.22129 17.06628,-4.33888 2.02927,-1.27206 4.36113,-3.11584 4.62813,-5.49592 0.74996,-6.68536 -4.40152,-14.04293 -9.25627,-17.93405 l -26.0333,-4.9174 -9.54555,9.8348 z"
       id="path62231"
       sodipodi:nodetypes="caaacccc" /></clipPath><style
     id="style31208">.cls-1{fill:url(#linear-gradient);}.cls-2{fill:#ffcd05;}.cls-3{fill:none;stroke:#cd8e2a;stroke-miterlimit:10;stroke-width:8.99px;}.cls-4{fill:#5a459c;}.cls-5{fill:url(#linear-gradient-2);}.cls-6{fill:url(#linear-gradient-3);}.cls-7{fill:#8b5e3c;}.cls-8{fill:#66402d;}.cls-9{fill:#42308b;}.cls-10{fill:#fabc2e;}.cls-11{fill:#fff;}.cls-12{fill:#414042;}</style><linearGradient
     id="linear-gradient-0"
     x1="150"
     y1="358.06"
     x2="150"
     y2="201.46"
     gradientUnits="userSpaceOnUse"><stop
       offset="0"
       stop-color="#fabc2e"
       id="stop31210-0" /><stop
       offset="1"
       stop-color="#cd8029"
       id="stop31212-9" /></linearGradient><linearGradient
     id="linear-gradient-2-3"
     x1="262.25"
     y1="228.77"
     x2="277.18"
     y2="283.28"
     gradientUnits="userSpaceOnUse"><stop
       offset="0"
       stop-color="#fabc2e"
       stop-opacity="0.1"
       id="stop31215" /><stop
       offset="1"
       stop-color="#f27ba5"
       id="stop31217" /></linearGradient><linearGradient
     id="linear-gradient-3"
     x1="42.75"
     y1="221.5"
     x2="19.53"
     y2="288.74"
     xlink:href="#linear-gradient-2-3" /></defs><sodipodi:namedview
   id="namedview32211"
   pagecolor="#505050"
   bordercolor="#ffffff"
   borderopacity="1"
   inkscape:showpageshadow="0"
   inkscape:pageopacity="0"
   inkscape:pagecheckerboard="1"
   inkscape:deskcolor="#505050"
   showgrid="false"
   inkscape:zoom="0.61007592"
   inkscape:cx="204.89253"
   inkscape:cy="211.44909"
   inkscape:window-width="1366"
   inkscape:window-height="705"
   inkscape:window-x="-8"
   inkscape:window-y="-8"
   inkscape:window-maximized="1"
   inkscape:current-layer="svg32209" />
    
<g
   id="g62427"
   transform="translate(-150.44004,111.10068)"><path
     style="opacity:1;fill:none;fill-opacity:1;stroke:#28201b;stroke-width:3;stroke-linecap:round;stroke-linejoin:round;stroke-dasharray:none;stroke-dashoffset:459.891;stroke-opacity:1;stop-color:#000000"
     d="m 212.3954,209.93242 c 0,0 9.69196,4.92815 14.92273,6.22988 2.5415,0.63248 5.60039,2.10886 7.82357,0.72441 3.3347,-2.07664 4.49303,-7.09333 4.20155,-11.01095 -0.29201,-3.92472 -2.32874,-8.42322 -5.79524,-10.28655 -1.19409,-0.64185 -2.96725,-0.51707 -4.05667,0.28977 -2.16219,1.60135 -0.5237,6.26736 -2.89762,7.5338 -2.88393,1.53853 -9.56213,-2.17321 -9.56213,-2.17321 l -8.40309,2.60786 0.86928,5.94011 z"
     id="path62299"
     sodipodi:nodetypes="caaaaaacccc" /><path
     style="opacity:1;fill:none;fill-opacity:1;stroke:#28201b;stroke-width:3;stroke-linecap:round;stroke-linejoin:round;stroke-dasharray:none;stroke-dashoffset:459.891;stroke-opacity:1;stop-color:#000000"
     d="m 186.02708,203.2679 c 0.69563,3.14407 2.63017,4.42977 3.94525,6.64465 2.35523,3.9667 4.77764,7.9446 7.06569,11.90011 l 10.72119,-15.35738 -15.21249,-7.38892 z"
     id="path62301"
     sodipodi:nodetypes="cacccc" /><ellipse
     style="opacity:1;fill:none;fill-opacity:1;stroke:#28201b;stroke-width:3;stroke-linecap:round;stroke-linejoin:round;stroke-dasharray:none;stroke-dashoffset:459.891;stroke-opacity:1;stop-color:#000000"
     id="ellipse62303"
     cx="176.34634"
     cy="205.55052"
     rx="9.1414051"
     ry="8.4027262" /><path
     style="opacity:1;fill:#594a42;fill-opacity:1;stroke:none;stroke-width:1.5;stroke-linecap:round;stroke-linejoin:round;stroke-dasharray:none;stroke-dashoffset:459.891;stroke-opacity:1;stop-color:#000000"
     d="m 186.02708,203.2679 c 0.69563,3.14407 2.63017,4.42977 3.94525,6.64465 2.35523,3.9667 4.77764,7.9446 7.06569,11.90011 l 10.72119,-15.35738 -15.21249,-7.38892 z"
     id="path62305"
     sodipodi:nodetypes="cacccc" /><path
     style="opacity:1;fill:#493c36;fill-opacity:1;stroke:none;stroke-width:1;stroke-linecap:round;stroke-linejoin:round;stroke-dasharray:none;stroke-dashoffset:459.891;stroke-opacity:1;stop-color:#000000"
     d="m 212.3954,209.93242 c 0,0 9.69196,4.92815 14.92273,6.22988 2.5415,0.63248 5.60039,2.10886 7.82357,0.72441 3.3347,-2.07664 4.49303,-7.09333 4.20155,-11.01095 -0.29201,-3.92472 -2.32874,-8.42322 -5.79524,-10.28655 -1.19409,-0.64185 -2.96725,-0.51707 -4.05667,0.28977 -2.16219,1.60135 -0.5237,6.26736 -2.89762,7.5338 -2.88393,1.53853 -9.56213,-2.17321 -9.56213,-2.17321 l -8.40309,2.60786 0.86928,5.94011 z"
     id="path62307"
     sodipodi:nodetypes="caaaaaacccc" /><path
     style="opacity:1;fill:#ce2235;fill-opacity:1;stroke:none;stroke-width:1.5;stroke-linecap:round;stroke-linejoin:round;stroke-dasharray:none;stroke-dashoffset:459.891;stroke-opacity:1;stop-color:#000000"
     d="m 184.54717,201.32419 c 0,0 12.86241,5.41592 19.6696,5.49591 5.86933,0.069 12.09291,-1.22129 17.06628,-4.33888 2.02927,-1.27206 4.36113,-3.11584 4.62813,-5.49592 0.74996,-6.68536 -4.40152,-14.04293 -9.25627,-17.93405 l -26.0333,-4.9174 -9.54555,9.8348 z"
     id="path62309"
     sodipodi:nodetypes="caaacccc" /><g
     id="g62323"
     clip-path="url(#clipPath62229)"><path
       class="cls-5"
       d="m 232.62065,181.73089 -5.12558,6.76728 -3.39719,4.48624 -10.25115,13.54539 a 19.689581,19.689581 0 0 0 4.25867,0.46596 h 5.58613 l 5.50484,-7.27117 3.39718,-4.48624 10.22948,-13.50746 z"
       id="path62311"
       style="clip-rule:evenodd;fill:#2f2c38;fill-opacity:0.5;fill-rule:evenodd;stroke-width:0.541816;stroke-linejoin:round;stroke-miterlimit:2" /><path
       class="cls-5"
       d="m 210.90205,185.00917 -5.12558,6.76728 -3.39719,4.48624 -10.25115,13.54539 a 19.689581,19.689581 0 0 0 4.25867,0.46596 h 5.58613 l 5.50484,-7.27117 3.39718,-4.48624 10.22948,-13.50746 z"
       id="path62313"
       style="clip-rule:evenodd;fill:#2f2c38;fill-opacity:0.5;fill-rule:evenodd;stroke-width:0.541816;stroke-linejoin:round;stroke-miterlimit:2" /><path
       class="cls-5"
       d="m 188.36387,185.00917 -5.12558,6.76728 -3.39719,4.48624 -10.25115,13.54539 a 19.689581,19.689581 0 0 0 4.25867,0.46596 h 5.58613 l 5.50484,-7.27117 3.39718,-4.48624 10.22948,-13.50746 z"
       id="path62315"
       style="clip-rule:evenodd;fill:#2f2c38;fill-opacity:0.5;fill-rule:evenodd;stroke-width:0.541816;stroke-linejoin:round;stroke-miterlimit:2" /><polygon
       class="cls-6"
       points="63.12,323.3 53.71,310.88 44.26,298.39 31.71,298.39 47.44,319.16 56.85,331.58 67.01,345 79.56,345 "
       id="polygon62317"
       style="clip-rule:evenodd;fill:#15141a;fill-opacity:0.5;fill-rule:evenodd;stroke-linejoin:round;stroke-miterlimit:2"
       transform="matrix(0.54181566,0,0,0.54181566,198.39414,20.058512)" /><polygon
       class="cls-6"
       points="53.71,310.88 44.26,298.39 31.71,298.39 47.44,319.16 56.85,331.58 67.01,345 79.56,345 63.12,323.3 "
       id="polygon62319"
       style="clip-rule:evenodd;fill:#15141a;fill-opacity:0.5;fill-rule:evenodd;stroke-linejoin:round;stroke-miterlimit:2"
       transform="matrix(0.54181566,0,0,0.54181566,176.67554,23.336793)" /><polygon
       class="cls-6"
       points="53.71,310.88 44.26,298.39 31.71,298.39 47.44,319.16 56.85,331.58 67.01,345 79.56,345 63.12,323.3 "
       id="polygon62321"
       style="clip-rule:evenodd;fill:#15141a;fill-opacity:0.5;fill-rule:evenodd;stroke-linejoin:round;stroke-miterlimit:2"
       transform="matrix(0.54181566,0,0,0.54181566,154.13736,23.336793)" /></g><ellipse
     style="opacity:1;fill:#594a42;fill-opacity:1;stroke:none;stroke-width:1.71481;stroke-linecap:round;stroke-linejoin:round;stroke-dasharray:none;stroke-dashoffset:459.891;stroke-opacity:1;stop-color:#000000"
     id="ellipse62325"
     cx="176.34634"
     cy="205.55052"
     rx="9.1414051"
     ry="8.4027262" /><path
     id="path62327"
     style="color:#000000;clip-rule:nonzero;fill:#3b2f28;fill-rule:nonzero;stroke-linecap:round;stroke-dashoffset:459.891"
     d="m 179.59375,201.12695 a 0.5,0.5 0 0 0 -0.5957,0.37891 c 0,0 -0.32384,1.4493 -0.88867,3.1582 -0.56484,1.7089 -1.40488,3.67894 -2.26758,4.59961 -0.99579,1.0627 -3.16678,2.1566 -5.06446,2.92383 a 9.1414051,8.4027262 0 0 0 1.05274,0.64648 c 1.769,-0.7525 3.64461,-1.7154 4.74219,-2.88671 1.10585,-1.18019 1.90612,-3.20749 2.48828,-4.96875 0.58215,-1.76129 0.91406,-3.25586 0.91406,-3.25586 a 0.5,0.5 0 0 0 -0.38086,-0.59571 z m 2.66406,2.04883 a 0.5,0.5 0 0 0 -0.5957,0.37891 c 0,0 -0.32383,1.4493 -0.88867,3.1582 -0.56484,1.7089 -1.40487,3.67893 -2.26758,4.59961 -0.80772,0.862 -2.3896,1.74106 -3.9707,2.45312 a 9.1414051,8.4027262 0 0 0 1.81054,0.1875 9.1414051,8.4027262 0 0 0 0.13477,-0.01 c 1.07747,-0.56862 2.0706,-1.21596 2.75586,-1.94727 1.10587,-1.18018 1.90417,-3.20746 2.48633,-4.96875 0.58215,-1.76126 0.91406,-3.25586 0.91406,-3.25586 a 0.5,0.5 0 0 0 -0.37891,-0.5957 z" /><path
     style="opacity:1;fill:none;fill-opacity:1;stroke:#5d0f18;stroke-width:1.5;stroke-linecap:round;stroke-linejoin:round;stroke-dasharray:none;stroke-dashoffset:459.891;stroke-opacity:1;stop-color:#000000"
     d="m 184.54717,201.32419 c 0,0 12.86241,5.41592 19.6696,5.49591 5.86933,0.069 12.09291,-1.22129 17.06628,-4.33888 2.02927,-1.27206 4.36113,-3.11584 4.62813,-5.49592 0.74996,-6.68536 -4.40152,-14.04293 -9.25627,-17.93405 l -26.0333,-4.9174 -9.54555,9.8348 z"
     id="path62329"
     sodipodi:nodetypes="caaacccc" /><path
     id="path62331"
     style="opacity:1;fill:none;fill-opacity:0.988235;stroke:#28201b;stroke-width:3;stroke-linecap:round;stroke-linejoin:round;stroke-dasharray:none;stroke-dashoffset:459.891;stroke-opacity:1;stop-color:#000000"
     d="m 205.6582,203.99219 c -4.25497,0.009 -6.95389,3.60339 -8.01758,8.33008 -1.27746,2.10626 -3.67559,4.6099 -3.5,6.59375 0.21732,2.45525 1.92766,5.13179 4.20118,6.08398 2.70145,1.13142 7.06477,1.48867 9.67382,0.0684 4.10991,-1.22877 6.98067,-5.48275 6.98829,-10.35547 -2.3e-4,-5.92135 -4.18453,-10.72127 -9.34571,-10.7207 z" /><path
     style="opacity:1;fill:#ce2235;fill-opacity:1;stroke:none;stroke-width:2.1;stroke-linecap:round;stroke-linejoin:round;stroke-dasharray:none;stroke-dashoffset:459.891;stroke-opacity:1;stop-color:#000000"
     d="M 184.54717,177.3157 170.952,195.82827 c -0.34518,8.90682 8.38919,10.28392 14.7522,10.99183 l 5.78518,-12.72739"
     id="path62333"
     sodipodi:nodetypes="cccc" /><g
     id="g62347"
     clip-path="url(#clipPath62223)"><path
       class="cls-5"
       d="m 232.62065,181.73089 -5.12558,6.76728 -3.39719,4.48624 -10.25115,13.54539 a 19.689581,19.689581 0 0 0 4.25867,0.46596 h 5.58613 l 5.50484,-7.27117 3.39718,-4.48624 10.22948,-13.50746 z"
       id="path62335"
       style="clip-rule:evenodd;fill:#2f2c38;fill-opacity:0.5;fill-rule:evenodd;stroke-width:0.541816;stroke-linejoin:round;stroke-miterlimit:2" /><path
       class="cls-5"
       d="m 211.55401,183.70524 -5.77754,8.07121 -3.39719,4.48624 -10.25115,13.54539 c 1.39838,0.30975 2.82639,0.466 4.25867,0.46596 h 5.58613 l 5.50484,-7.27117 3.39718,-4.48624 10.88144,-14.81139 z"
       id="path62337"
       style="clip-rule:evenodd;fill:#2f2c38;fill-opacity:0.5;fill-rule:evenodd;stroke-width:0.541816;stroke-linejoin:round;stroke-miterlimit:2"
       sodipodi:nodetypes="cccccccccc" /><path
       class="cls-5"
       d="m 188.36387,185.00917 -5.12558,6.76728 -3.39719,4.48624 -10.25115,13.54539 a 19.689581,19.689581 0 0 0 4.25867,0.46596 h 5.58613 l 5.50484,-7.27117 3.39718,-4.48624 10.22948,-13.50746 z"
       id="path62339"
       style="clip-rule:evenodd;fill:#2f2c38;fill-opacity:0.5;fill-rule:evenodd;stroke-width:0.541816;stroke-linejoin:round;stroke-miterlimit:2" /><polygon
       class="cls-6"
       points="63.12,323.3 53.71,310.88 44.26,298.39 31.71,298.39 47.44,319.16 56.85,331.58 67.01,345 79.56,345 "
       id="polygon62341"
       style="clip-rule:evenodd;fill:#15141a;fill-opacity:0.5;fill-rule:evenodd;stroke-linejoin:round;stroke-miterlimit:2"
       transform="matrix(0.54181566,0,0,0.54181566,198.39414,20.058512)" /><polygon
       class="cls-6"
       points="53.71,310.88 44.26,298.39 31.71,298.39 47.44,319.16 56.85,331.58 67.01,345 79.56,345 63.12,323.3 "
       id="polygon62343"
       style="clip-rule:evenodd;fill:#15141a;fill-opacity:0.5;fill-rule:evenodd;stroke-linejoin:round;stroke-miterlimit:2"
       transform="matrix(0.54181566,0,0,0.54181566,176.67554,23.336793)" /><polygon
       class="cls-6"
       points="53.71,310.88 44.26,298.39 31.71,298.39 47.44,319.16 56.85,331.58 67.01,345 79.56,345 63.12,323.3 "
       id="polygon62345"
       style="clip-rule:evenodd;fill:#15141a;fill-opacity:0.5;fill-rule:evenodd;stroke-linejoin:round;stroke-miterlimit:2"
       transform="matrix(0.54181566,0,0,0.54181566,154.13736,23.336793)" /></g><path
     style="opacity:1;fill:none;fill-opacity:1;stroke:#5d0f18;stroke-width:1.5;stroke-linecap:round;stroke-linejoin:round;stroke-dasharray:none;stroke-dashoffset:459.891;stroke-opacity:1;stop-color:#000000"
     d="M 184.54717,177.3157 170.952,195.82827 c -0.34518,8.90682 8.38919,10.28392 14.7522,10.99183 l 5.78518,-12.72739"
     id="path62349"
     sodipodi:nodetypes="cccc" /><path
     id="path62351"
     style="fill:none;fill-opacity:1;stroke:#28201b;stroke-width:3;stroke-linecap:round;stroke-linejoin:round;stroke-dasharray:none;stroke-dashoffset:459.891;stroke-opacity:1;stop-color:#000000"
     d="m 221.78711,124.55859 c -0.5106,-0.0165 -1.01717,0.069 -1.44141,0.25977 -4.17755,1.87884 -7.58102,8.78634 -9.52929,13.64258 -0.14265,-0.0351 -0.288,-0.0633 -0.43164,-0.0957 -0.14,-0.0315 -0.27901,-0.0648 -0.41993,-0.0937 -0.32171,-0.0662 -0.64442,-0.12713 -0.9707,-0.17968 -0.10615,-0.0171 -0.2137,-0.0293 -0.32031,-0.0449 -0.26549,-0.0389 -0.53253,-0.0738 -0.80078,-0.10352 -0.0987,-0.0109 -0.19778,-0.0216 -0.29688,-0.0313 -0.26975,-0.0264 -0.54018,-0.0475 -0.8125,-0.0645 -0.12291,-0.008 -0.24573,-0.0158 -0.36914,-0.0215 -0.3567,-0.0165 -0.71551,-0.0273 -1.07617,-0.0273 -1.29753,0.12581 -2.52648,0.28723 -3.70117,0.47851 -0.008,10e-4 -0.0158,0.003 -0.0234,0.004 -2.32761,-0.0916 -4.21801,0.25492 -5.86719,0.8418 -3.28476,-4.44364 -10.84383,-13.58284 -16.65429,-12.30664 -1.45389,0.31933 -1.71589,2.5322 -1.9961,3.99414 -1.46518,7.64429 0.71817,21.20694 1.93555,27.66601 -0.58776,1.95638 -1.11653,4.04128 -1.60352,6.28321 l -9.62109,1.92578 c -2.03953,0.40808 -2.69549,2.09799 -1.43945,3.75586 4.29783,5.67278 8.81406,10.76189 15.28906,10.6289 l -2.64649,5 c -0.87376,1.65068 -0.0769,2.82504 1.78516,2.68164 5.28491,-0.40702 10.60751,-0.75209 13.71094,-4.79492 0.49539,0.26685 1.00117,0.50905 1.51172,0.73828 0.01,0.004 0.0197,0.007 0.0293,0.0117 1.25097,0.55965 2.54245,1.00922 3.86328,1.33789 0.004,9.6e-4 0.008,0.001 0.0117,0.002 0.43168,0.10718 0.8657,0.20317 1.30274,0.28515 0.11419,0.0215 0.22923,0.0368 0.34375,0.0566 0.34104,0.0586 0.68181,0.11501 1.02539,0.15821 0.0798,0.0101 0.1603,0.0161 0.24023,0.0254 0.37601,0.0433 0.75258,0.0828 1.13086,0.10742 0.45646,0.0299 0.9142,0.0465 1.37305,0.0488 0.35123,0 0.69937,-0.0117 1.04687,-0.0274 0.13121,-0.006 0.26194,-0.0134 0.39258,-0.0215 0.26814,-0.0166 0.53513,-0.0387 0.80078,-0.0645 0.0865,-0.008 0.17356,-0.0141 0.25977,-0.0234 0.21656,-0.0235 0.4317,-0.0526 0.64648,-0.082 l 0.67969,1.47656 0.99609,-1.76563 c 0.044,-0.009 0.0869,-0.0216 0.13086,-0.0313 0.25486,-0.056 0.50802,-0.11721 0.75977,-0.18164 0.089,-0.0228 0.17894,-0.0426 0.26758,-0.0664 0.31804,-0.0855 0.63262,-0.1787 0.94531,-0.27735 0.10734,-0.0339 0.21363,-0.0701 0.32031,-0.10547 0.23837,-0.0791 0.47398,-0.1634 0.70899,-0.25 0.0957,-0.0353 0.19195,-0.069 0.28711,-0.10547 0.30649,-0.11759 0.61372,-0.24091 0.91406,-0.37109 0.0945,-0.041 0.1874,-0.0848 0.28125,-0.12695 0.20156,-0.0906 0.40101,-0.18507 0.59961,-0.28125 0.44528,-0.21562 0.88481,-0.44268 1.31445,-0.68555 0.0646,-0.0365 0.12718,-0.0762 0.19141,-0.11328 0.36741,-0.21233 0.72703,-0.43438 1.08203,-0.66602 0.11609,-0.0757 0.23099,-0.15269 0.3457,-0.23046 0.8264,-0.56018 1.61708,-1.17242 2.36719,-1.83204 0.0759,-0.0667 0.15153,-0.13347 0.22656,-0.20117 0.37146,-0.33503 0.73547,-0.67907 1.08594,-1.03711 0.005,-0.005 0.009,-0.009 0.0137,-0.0137 0.14293,-0.14624 0.28063,-0.29732 0.41992,-0.44726 l 2.1211,4.14648 3.85742,-12.42773 -1.22266,0.81836 c 0.13491,-0.33167 0.26379,-0.66696 0.38477,-1.00586 0.67497,-0.65219 1.12109,-1.11719 1.12109,-1.11719 l -0.80859,0.16992 c 0.21463,-0.68721 0.39877,-1.38928 0.55469,-2.10156 0.20262,-0.92564 0.67304,-2.22776 1.04296,-3.61719 0.52839,-1.98463 0.33089,-5.38951 -0.48632,-7.27344 -0.5276,-1.21629 -1.18798,-2.45829 -1.78907,-3.94531 -0.279,-0.69022 -0.58896,-1.36308 -0.92578,-2.01953 0.77009,-1.05831 1.3091,-2.20191 0.97461,-3.09766 -0.13365,-0.35791 -0.49351,-0.60844 -0.94336,-0.78906 0.99399,-6.83007 1.62863,-16.93956 -2.27539,-21.45312 -0.50718,-0.58637 -1.3697,-0.89832 -2.2207,-0.92579 z" /><path
     style="fill:#594a42;fill-opacity:1;stroke:none;stroke-width:1;stroke-linecap:round;stroke-linejoin:round;stroke-dasharray:none;stroke-dashoffset:459.891;stroke-opacity:1;stop-color:#000000"
     d="m 197.3794,141.46078 c 0,0 -10.67396,-16.32178 -18.30669,-14.64535 -1.45389,0.31933 -1.71689,2.53225 -1.9971,3.99419 -1.97034,10.27984 2.6628,31.28779 2.6628,31.28779 z"
     id="path62353"
     sodipodi:nodetypes="caacc" /><path
     style="fill:#3f312b;fill-opacity:1;stroke:none;stroke-width:1;stroke-linecap:round;stroke-linejoin:round;stroke-dasharray:none;stroke-dashoffset:459.891;stroke-opacity:1;stop-color:#000000"
     d="m 182.24351,151.41894 c 0,0 -5.19,-14.38906 -0.54078,-18.38659 0.76408,-0.65698 2.10032,0.0392 2.9743,0.54079 3.60352,2.06809 8.11173,9.46368 8.11173,9.46368 z"
     id="path62355"
     sodipodi:nodetypes="caacc" /><path
     id="path62357"
     style="fill:#726658;fill-opacity:0.983209;stroke:none;stroke-width:1.176;stroke-linecap:round;stroke-linejoin:round;stroke-dasharray:none;stroke-dashoffset:459.891;stroke-opacity:1;stop-color:#000000"
     d="m 205.31836,137.79883 c -18.84601,1.82735 -24.34137,10.53134 -27.91016,26.96094 l -9.62156,1.92516 c -2.03953,0.40808 -2.6955,2.09854 -1.43946,3.75641 4.29784,5.67279 8.81453,10.76196 15.28954,10.62897 l -2.64642,4.99946 c -0.87377,1.65068 -0.0766,2.8253 1.78544,2.6819 5.28491,-0.40702 10.60716,-0.75181 13.71059,-4.79464 3.34542,1.80203 7.0592,2.75224 10.83203,2.77149 13.07916,6e-5 23.68188,-10.95332 23.68164,-24.46485 2.4e-4,-13.51153 -10.60248,-24.4649 -23.68164,-24.46484 z"
     sodipodi:nodetypes="ccccccccc" /><path
     id="path62359"
     style="fill:#594a42;fill-opacity:1;stroke:none;stroke-width:2.1;stroke-linecap:round;stroke-linejoin:round;stroke-dasharray:none;stroke-dashoffset:459.891;stroke-opacity:1;stop-color:#000000"
     d="m 168.44346,170.35462 c 0,0 6.41657,6.58291 10.51552,8.41296 2.12382,0.94822 6.88282,1.14648 6.88282,1.14648 l -5.35358,6.69189 c 0,0 6.91023,0.0733 9.94147,-1.33811 1.71822,-0.80001 4.20766,-3.82442 4.20766,-3.82442 l 0.12437,2.65033 c 3.27411,1.70841 6.88584,2.61604 10.55664,2.63477 9.44351,4e-5 17.59394,-5.71024 21.39648,-13.97071 l -3.20703,1.99414 -13.38323,3.63372 c 0,0 -3.65551,3.96763 -6.11914,4.20655 -4.1482,0.40229 -8.44578,-2.10584 -11.47224,-4.97113 -1.03486,-0.97975 -0.71644,-3.04804 -1.91174,-3.82401 -2.40775,-1.56305 -5.75812,-0.001 -8.60336,-0.38212 -4.59744,-0.61539 -13.57464,-3.06034 -13.57464,-3.06034 z"
     sodipodi:nodetypes="caccaccccccaaaac" /><path
     style="fill:none;fill-opacity:1;stroke:#97908c;stroke-width:1;stroke-linecap:round;stroke-linejoin:round;stroke-dasharray:none;stroke-dashoffset:459.891;stroke-opacity:1;stop-color:#000000"
     d="m 203.36314,175.4341 5.78046,12.55234 6.75985,-11.99124 c -4.1801,1.43345 -8.36021,-0.0531 -12.54031,-0.5611 z"
     id="path62361"
     sodipodi:nodetypes="cccc" /><path
     style="fill:#dbd1cc;fill-opacity:1;stroke:none;stroke-width:2.1;stroke-linecap:round;stroke-linejoin:round;stroke-dasharray:none;stroke-dashoffset:459.891;stroke-opacity:1;stop-color:#000000"
     d="m 203.36314,175.4341 5.78046,12.55234 6.75985,-11.99124 z"
     id="path62363"
     sodipodi:nodetypes="cccc" /><path
     id="path62365"
     style="opacity:1;fill:#8a837e;fill-opacity:0.460821;stroke:none;stroke-width:3;stroke-linecap:round;stroke-linejoin:round;stroke-dasharray:none;stroke-dashoffset:459.891;stroke-opacity:1;stop-color:#000000"
     d="m 203.6543,176.06445 5.19726,11.28516 c -0.74461,-3.60518 -2.15153,-7.07771 -1.16406,-11.0293 z" /><path
     style="fill:#493c36;fill-opacity:1;stroke:none;stroke-width:1;stroke-linecap:round;stroke-linejoin:round;stroke-dasharray:none;stroke-dashoffset:459.891;stroke-opacity:1;stop-color:#000000"
     d="m 209.02911,143.45788 c 0,0 4.68776,-15.65812 11.31686,-18.63954 1.1313,-0.5088 2.84985,-0.27249 3.66134,0.6657 6.17332,7.13718 0.99855,28.29215 0.99855,28.29215 z"
     id="path62367"
     sodipodi:nodetypes="caacc" /><ellipse
     style="fill:#4c443b;fill-opacity:0.988235;stroke:none;stroke-width:0.988878;stroke-linecap:round;stroke-linejoin:round;stroke-dasharray:none;stroke-dashoffset:459.891;stroke-opacity:1;stop-color:#000000"
     id="ellipse62369"
     cx="196.87285"
     cy="165.60014"
     rx="5.273665"
     ry="9.057827" /><path
     id="path62371"
     style="fill:#594a42;fill-opacity:1;stroke:none;stroke-width:1;stroke-linecap:round;stroke-linejoin:round;stroke-dasharray:none;stroke-dashoffset:459.891;stroke-opacity:1;stop-color:#000000"
     d="m 205.31836,137.79883 c -1.30628,0.12666 -2.54281,0.2894 -3.72461,0.48242 -6.65296,-0.26169 -9.77341,3.00914 -13.71289,5.46094 -1.00799,0.80169 -1.92451,1.67973 -2.75977,2.63867 4.47167,0.0209 11.52188,0.39329 15.25391,2.40234 5.89164,3.17164 12.98047,15.31055 12.98047,15.31055 l 8.6543,0.66602 c 1.30793,-4.51135 3.13503,-8.24413 5.39062,-11.33399 -3.43083,-9.14226 -12.02051,-15.627 -22.08203,-15.62695 z"
     sodipodi:nodetypes="ccccscccc" /><path
     style="fill:#594a42;fill-opacity:1;stroke:none;stroke-width:1;stroke-linecap:round;stroke-linejoin:round;stroke-dasharray:none;stroke-dashoffset:459.891;stroke-opacity:1;stop-color:#000000"
     d="m 192.82682,138.73795 c 0,0 -5.24974,-3.46565 -6.89633,-1.75789 -1.10878,1.14996 1.35222,4.59756 1.35222,4.59756 0,0 -3.6267,0.74912 -3.651,2.16355 -0.023,1.33767 3.38055,2.16356 3.38055,2.16356 l 7.03156,-5.00323 -2.02834,-2.43399 z"
     id="path62373"
     sodipodi:nodetypes="cacacccc" /><ellipse
     style="fill:#29211d;fill-opacity:1;stroke:none;stroke-width:1;stroke-linecap:round;stroke-linejoin:round;stroke-dasharray:none;stroke-dashoffset:459.891;stroke-opacity:1;stop-color:#000000"
     id="ellipse62375"
     cx="196.87285"
     cy="163.55122"
     rx="5.273665"
     ry="9.2627192" /><path
     id="path62377"
     style="fill:#29211d;fill-opacity:1;stroke:none;stroke-width:1;stroke-linecap:round;stroke-linejoin:round;stroke-dasharray:none;stroke-dashoffset:459.891;stroke-opacity:1;stop-color:#000000"
     d="m 227.17773,152.84375 c -1.02369,1.74253 -1.60213,4.13873 -1.60351,6.64258 0.004,3.44488 1.09673,6.60098 2.83594,8.19336 0.20262,-0.92564 0.67325,-2.22796 1.04318,-3.61739 0.52839,-1.98463 0.3314,-5.39006 -0.48581,-7.27399 -0.5276,-1.21629 -1.18871,-2.45754 -1.7898,-3.94456 z"
     sodipodi:nodetypes="cccac"
     inkscape:path-effect="#path-effect62431"
     inkscape:original-d="m 227.17773,152.84375 c -1.02369,1.74253 -1.60213,4.13873 -1.60351,6.64258 0.004,3.44488 1.09673,6.60098 2.83594,8.19336 0.3816,-1.74325 1.71376,-4.82249 1.53362,-7.30357 -0.1937,-2.66771 -1.59398,-4.6328 -2.76605,-7.53237 z" /><path
     style="fill:#29211d;fill-opacity:1;stroke:none;stroke-width:1;stroke-linecap:round;stroke-linejoin:round;stroke-dasharray:none;stroke-dashoffset:459.891;stroke-opacity:1;stop-color:#000000"
     d="m 218.45776,169.05204 c -0.96016,-0.97079 -1.77383,-1.81074 -2.9965,-2.34161 -0.68045,-0.29544 -1.67589,-0.4715 -2.65853,-0.5761 -1.8088,-0.19254 -2.08186,-1.0009 -0.50924,-1.91655 2.01917,-1.17566 4.72365,-2.51695 6.64998,-2.58556 1.21803,-0.0434 2.95177,0.63564 4.3266,1.29206 1.24404,0.59398 1.62746,2.13588 0.82623,3.25873 -0.18062,0.25311 -0.35611,0.48721 -0.5099,0.67251 -0.52164,0.62853 -1.37259,1.48426 -2.11922,2.20671 -0.82229,0.79567 -2.20397,0.80418 -3.00942,-0.0102 z"
     id="path62379"
     sodipodi:nodetypes="cacacac" /><path
     style="fill:none;fill-opacity:1;stroke:#29211d;stroke-width:2.1;stroke-linecap:butt;stroke-linejoin:round;stroke-dasharray:none;stroke-dashoffset:459.891;stroke-opacity:1;stop-color:#000000"
     d="m 219.95911,169.32208 0.14509,6.09386"
     id="path62381" /><path
     style="fill:#dbd1cc;fill-opacity:1;stroke:none;stroke-width:1;stroke-linecap:round;stroke-linejoin:round;stroke-dasharray:none;stroke-dashoffset:459.891;stroke-opacity:1;stop-color:#000000"
     d="m 220.77415,176.01446 3.74918,7.32904 3.85801,-12.42652 z"
     id="path62383"
     sodipodi:nodetypes="cccc" /><path
     id="path62385"
     style="opacity:1;fill:#8a837e;fill-opacity:0.460821;stroke:none;stroke-width:3;stroke-linecap:round;stroke-linejoin:round;stroke-dasharray:none;stroke-dashoffset:459.891;stroke-opacity:1;stop-color:#000000"
     d="m 224.27539,174.4375 -2.52539,0.92188 -0.97656,0.65429 3.75,7.33008 0.0234,-0.0781 c -0.37474,-2.87201 -1.28337,-5.60947 -0.27149,-8.82812 z" /><path
     style="fill:none;fill-opacity:1;stroke:#97908c;stroke-width:0.5;stroke-linecap:round;stroke-linejoin:round;stroke-dasharray:none;stroke-dashoffset:459.891;stroke-opacity:1;stop-color:#000000"
     d="m 220.77415,176.01446 3.74918,7.32904 3.85801,-12.42652 z"
     id="path62387"
     sodipodi:nodetypes="cccc" /><path
     style="fill:none;fill-opacity:1;stroke:#29211d;stroke-width:2.1;stroke-linecap:round;stroke-linejoin:round;stroke-dasharray:none;stroke-dashoffset:459.891;stroke-opacity:1;stop-color:#000000"
     d="m 228.66462,169.61227 c 0,0 -5.0567,5.32732 -8.41533,6.38404 -5.8636,1.84486 -18.42665,-0.72546 -18.42665,-0.72546"
     id="path62389"
     sodipodi:nodetypes="cac" /><path
     style="opacity:1;fill:#594a42;fill-opacity:1;stroke:none;stroke-width:1.5;stroke-linecap:round;stroke-linejoin:round;stroke-dasharray:none;stroke-dashoffset:459.891;stroke-opacity:1;stop-color:#000000"
     d="m 215.95673,142.6052 c -0.18755,0.3751 3.97934,-3.31218 6.35167,-2.8685 2.23162,0.41737 0.81958,6.76146 0.81958,6.76146 0,0 3.59895,-0.10663 4.09784,1.22935 0.84842,2.27205 -3.89296,6.14678 -3.89296,6.14678 z"
     id="path62391"
     sodipodi:nodetypes="cscacc" /><path
     style="opacity:1;fill:#594a42;fill-opacity:1;stroke:none;stroke-width:1.5;stroke-linecap:round;stroke-linejoin:round;stroke-dasharray:none;stroke-dashoffset:459.891;stroke-opacity:1;stop-color:#000000"
     d="m 212.26866,140.55628 -3.27828,-6.76146"
     id="path62393" /><path
     style="opacity:1;fill:none;fill-opacity:0.988235;stroke:#3b2f28;stroke-width:1.5;stroke-linecap:round;stroke-linejoin:round;stroke-dasharray:none;stroke-dashoffset:459.891;stroke-opacity:1;stop-color:#000000"
     d="m 189.11581,148.85442 c 0.29563,-2.56538 1.97808,-3.28166 3.89295,-3.68806"
     id="path62395"
     sodipodi:nodetypes="cc" /><path
     style="opacity:1;fill:none;fill-opacity:0.988235;stroke:#3b2f28;stroke-width:1.5;stroke-linecap:round;stroke-linejoin:round;stroke-dasharray:none;stroke-dashoffset:459.891;stroke-opacity:1;stop-color:#000000"
     d="m 198.15664,150.49314 c 1.0988,-2.33692 2.92186,-2.47887 4.86631,-2.25298"
     id="path62397"
     sodipodi:nodetypes="cc" /><path
     style="opacity:1;fill:none;fill-opacity:0.988235;stroke:#3b2f28;stroke-width:1.5;stroke-linecap:round;stroke-linejoin:round;stroke-dasharray:none;stroke-dashoffset:459.891;stroke-opacity:1;stop-color:#000000"
     d="m 205.22543,157.76683 c 1.0988,-2.33692 2.92186,-2.47887 4.86631,-2.25298"
     id="path62399"
     sodipodi:nodetypes="cc" /><path
     style="opacity:1;fill:none;fill-opacity:0.988235;stroke:#3b2f28;stroke-width:1.5;stroke-linecap:round;stroke-linejoin:round;stroke-dasharray:none;stroke-dashoffset:459.891;stroke-opacity:1;stop-color:#000000"
     d="m 205.98146,153.04187 c 1.2545,1.56269 2.78342,4.70854 3.37989,6.30055"
     id="path62401"
     sodipodi:nodetypes="cc" /><ellipse
     style="opacity:1;fill:#dbd1cc;fill-opacity:1;stroke:none;stroke-width:1.31101;stroke-linecap:round;stroke-linejoin:round;stroke-dasharray:none;stroke-dashoffset:459.891;stroke-opacity:1;stop-color:#000000"
     id="ellipse62403"
     cx="199.00188"
     cy="160.68697"
     rx="1.6903634"
     ry="2.8172722" /><path
     id="path62405"
     style="opacity:1;fill:#716557;fill-opacity:0.988235;stroke:none;stroke-width:1.5;stroke-linecap:round;stroke-linejoin:round;stroke-dasharray:none;stroke-dashoffset:459.891;stroke-opacity:1;stop-color:#000000"
     d="m 205.6582,203.99219 c -4.25498,0.009 -6.95339,3.60408 -8.01708,8.33077 -1.27747,2.10627 -3.6761,4.60921 -3.5005,6.59306 0.21732,2.45526 1.92766,5.13179 4.20118,6.08398 2.70146,1.13142 7.06476,1.48871 9.67382,0.0684 4.10991,-1.22877 6.98067,-5.48275 6.98829,-10.35547 -2.3e-4,-5.92136 -4.18453,-10.72127 -9.34571,-10.7207 z"
     sodipodi:nodetypes="ccssccc" /><path
     id="path62407"
     style="opacity:1;fill:#29211d;stroke-width:1.5;stroke-linecap:round;stroke-dashoffset:459.891;stop-color:#000000"
     d="m 211.75643,219.74724 c -0.91107,2.3168 -3.69393,4.71253 -6.60778,4.71253 -2.91385,0 -5.99311,-1.7108 -5.9931,-4.2003 0,-2.4895 3.31728,-8.45857 4.96864,-10.8593 2.18003,-3.16932 7.70987,-1.62871 8.13052,2.73813 0.18135,1.88257 0.44245,5.21672 -0.49828,7.60894 z"
     sodipodi:nodetypes="ssssss" /><path
     style="opacity:1;fill:none;fill-opacity:1;stroke:#3b2f28;stroke-width:1.5;stroke-linecap:round;stroke-linejoin:round;stroke-dasharray:none;stroke-dashoffset:459.891;stroke-opacity:1;stop-color:#000000"
     d="m 201.96397,209.20802 3.18738,4.05667"
     id="path62409" /><path
     style="opacity:1;fill:none;fill-opacity:1;stroke:#3b2f28;stroke-width:1.5;stroke-linecap:round;stroke-linejoin:round;stroke-dasharray:none;stroke-dashoffset:459.891;stroke-opacity:1;stop-color:#000000"
     d="m 205.73087,209.64266 -4.05667,3.18738"
     id="path62411" /><path
     style="opacity:1;fill:none;fill-opacity:1;stroke:#3b2f28;stroke-width:1.5;stroke-linecap:round;stroke-linejoin:round;stroke-dasharray:none;stroke-dashoffset:459.891;stroke-opacity:1;stop-color:#000000"
     d="m 213.98908,214.42373 c -1.09762,2.59009 -2.58317,2.8526 -4.05667,3.18738"
     id="path62413"
     sodipodi:nodetypes="cc" /><path
     style="opacity:1;fill:none;fill-opacity:1;stroke:#3b2f28;stroke-width:1.5;stroke-linecap:round;stroke-linejoin:round;stroke-dasharray:none;stroke-dashoffset:459.891;stroke-opacity:1;stop-color:#000000"
     d="m 206.16549,206.45527 c 2.59009,1.09763 2.8526,2.58317 3.18738,4.05667"
     id="path62415"
     sodipodi:nodetypes="cc" /><path
     id="path62417"
     style="opacity:1;fill:#716557;fill-opacity:1;stroke:none;stroke-width:0.955943;stroke-linecap:round;stroke-linejoin:round;stroke-dasharray:none;stroke-dashoffset:459.891;stroke-opacity:1;stop-color:#000000"
     d="m 232.02734,195.18555 c -0.33452,-0.0182 -0.67364,0.007 -1.0039,0.0664 -1.66325,6.19384 -1.31071,15.30935 0.49414,19.89649 0.30221,0.7268 0.91556,1.54275 1.5957,2.30468 0.72094,-0.0214 1.40907,-0.18016 2.0293,-0.5664 3.33469,-2.07664 4.49265,-7.0941 4.20117,-11.01172 -0.29201,-3.92472 -2.32843,-8.42183 -5.79492,-10.28516 -0.44779,-0.24069 -0.97743,-0.37475 -1.52149,-0.40429 z" /><path
     id="path62419"
     style="opacity:1;fill:#29211d;fill-opacity:1;stroke:none;stroke-width:1;stroke-linecap:round;stroke-linejoin:round;stroke-dasharray:none;stroke-dashoffset:459.891;stroke-opacity:1;stop-color:#000000"
     d="m 234.59766,196.26758 c -0.41665,0.043 -0.79345,0.18639 -1.04883,0.48047 -1.74878,2.01375 0.51871,5.30946 0.72265,7.96875 0.2368,3.08775 -1.86351,7.36906 0.58008,9.27148 0.72164,0.56182 1.80047,0.55473 2.79297,0.23047 1.41389,-2.42201 1.90009,-5.64395 1.69922,-8.34375 -0.26117,-3.51025 -1.91897,-7.47532 -4.74609,-9.60742 z" /><path
     style="opacity:1;fill:none;fill-opacity:1;stroke:#3b2f28;stroke-width:1.5;stroke-linecap:round;stroke-linejoin:round;stroke-dasharray:none;stroke-dashoffset:459.891;stroke-opacity:1;stop-color:#000000"
     d="m 236.73539,205.58599 c -1.69028,-2.83145 -3.38055,-2.46562 -5.07083,-1.88345"
     id="path62421"
     sodipodi:nodetypes="cc" /><path
     style="opacity:1;fill:none;fill-opacity:1;stroke:#3b2f28;stroke-width:1.5;stroke-linecap:round;stroke-linejoin:round;stroke-dasharray:none;stroke-dashoffset:459.891;stroke-opacity:1;stop-color:#000000"
     d="m 236.54063,209.16852 -4.92182,-1.56379"
     id="path62423"
     sodipodi:nodetypes="cc" /><path
     id="path62425"
     style="opacity:1;fill:#dbd1cc;fill-opacity:1;stroke:none;stroke-width:3.01165;stroke-linecap:round;stroke-linejoin:round;stroke-dasharray:none;stroke-dashoffset:459.891;stroke-opacity:1;stop-color:#000000"
     d="m 208.50537,155.4386 a 1.5936899,3.5042014 0 0 0 -0.27612,1.95848 1.5936899,3.5042014 0 0 0 1.4624,3.48393 c 0.0133,-1.0775 -0.0874,-2.1012 -0.32349,-2.87178 -0.25149,-0.8208 -0.56076,-1.66045 -0.86279,-2.57063 z"
     transform="matrix(1,0,0.12403473,0.99227788,0,0)" /></g></svg>
