<?xml version="1.0" encoding="UTF-8" standalone="no"?><!DOCTYPE svg PUBLIC "-//W3C//DTD SVG 1.1//EN" "http://www.w3.org/Graphics/SVG/1.1/DTD/svg11.dtd"><svg width="100%" height="100%" viewBox="0 0 1250 1438" version="1.1" xmlns="http://www.w3.org/2000/svg" xmlns:xlink="http://www.w3.org/1999/xlink" xml:space="preserve" xmlns:serif="http://www.serif.com/" style="fill-rule:evenodd;clip-rule:evenodd;stroke-linejoin:round;stroke-miterlimit:2;"><g id="Cheerleader"><g id="CheerleaderItem"><path d="M25.675,1234.57c4.817,-7.691 4.498,-17.568 -1.709,-30.781c-0.836,-1.779 -1.016,-3.797 -0.508,-5.697c3.418,-12.773 9.866,-19.953 17.999,-23.927c-0.08,-0.309 -0.158,-0.62 -0.233,-0.932c-0.54,-2.247 -0.123,-4.617 1.152,-6.545c4.549,-6.879 8.713,-14.141 12.545,-21.738c-0.76,0.304 -1.526,0.622 -2.298,0.955c-3.847,1.656 -8.326,0.2 -10.463,-3.402c-2.137,-3.602 -1.269,-8.23 2.028,-10.813c14.283,-11.186 18.392,-22.288 19.288,-33.475c0.263,-3.276 2.428,-6.093 5.526,-7.189c15.911,-5.632 30.968,-5.682 45.281,-0.946c2.307,-1.682 4.655,-3.31 7.044,-4.881c-6.823,-11.941 -9.56,-26.214 -9.457,-42.032c0.014,-2.254 0.942,-4.406 2.57,-5.965c1.628,-1.559 3.818,-2.392 6.071,-2.308c13.834,0.511 28.104,0.002 44.209,-5.163c2.626,-0.843 5.499,-0.331 7.673,1.366c2.174,1.697 3.368,4.36 3.188,7.112c-0.293,4.477 -0.13,8.818 0.635,12.977l8.366,-11.155c1.089,-1.452 2.623,-2.509 4.367,-3.009l42.99,-12.344c2.321,-0.666 4.818,-0.293 6.843,1.024c2.025,1.317 3.379,3.448 3.711,5.84c0.194,1.401 0.306,2.822 0.338,4.259c11.192,-2.125 23.115,-2.55 35.95,-0.84c2.632,0.35 4.94,1.935 6.213,4.266c4.934,9.034 7.805,18.087 8.25,27.134c3.723,-2.498 7.296,-5.594 10.647,-9.568c1.609,-1.909 3.989,-2.995 6.485,-2.961c2.496,0.034 4.845,1.185 6.402,3.137c10.229,12.828 21.408,24.193 36.081,30.356c2.791,1.173 4.726,3.766 5.056,6.775c0.33,3.009 -0.997,5.96 -3.467,7.709c-0.481,0.34 -0.963,0.676 -1.447,1.007c10.485,2.001 21.072,5.525 30.259,9.262c2.894,1.177 4.886,3.873 5.161,6.985c1.029,11.629 3.964,22.813 13.32,32.361c2.464,2.515 3.082,6.306 1.544,9.472c-1.537,3.167 -4.898,5.026 -8.398,4.645c-0.12,-0.013 -0.24,-0.027 -0.361,-0.041c5.184,6.01 10.025,12.592 14.263,19.551c1.402,2.302 1.604,5.14 0.542,7.617l-12.218,28.509c-0.107,0.25 -0.226,0.493 -0.355,0.728c4.366,6.279 9.871,11.536 16.987,15.339c3.791,2.026 5.419,6.603 3.759,10.568c-3.732,8.911 -7.081,18.113 -7.505,29.229c-0.114,2.968 -1.799,5.652 -4.423,7.043c-1.133,0.602 -2.368,0.922 -3.608,0.967c1.068,6.673 1.521,13.501 1.242,20.512c-0.112,2.822 -1.646,5.395 -4.075,6.835l-23.595,13.998c2.776,5.519 6.602,10.637 11.9,16.891c2.748,3.243 2.614,8.034 -0.31,11.119l-28.735,30.319c-1.65,1.741 -3.971,2.687 -6.368,2.595c-2.397,-0.092 -4.639,-1.213 -6.151,-3.076c-0.668,-0.823 -1.315,-1.655 -1.942,-2.494c-0.773,2.207 -2.449,4.009 -4.642,4.928l-8.229,3.449c0.729,0.925 1.268,2.012 1.555,3.204c0.779,3.231 -0.437,6.616 -3.093,8.613l-30.093,22.626c-2.098,1.578 -4.817,2.074 -7.338,1.34c-8.128,-2.366 -14.844,-5.869 -20.436,-10.271c-1.798,4.525 -4.172,8.84 -7.082,12.961c-1.6,2.266 -4.224,3.587 -6.998,3.523l-39.369,-0.905c-3.505,-0.08 -6.585,-2.346 -7.705,-5.668c-0.017,-0.049 -0.033,-0.099 -0.049,-0.148l-18.982,-0.52c-3.379,-0.093 -6.367,-2.217 -7.565,-5.378l-2.296,-6.063l-28.189,-4.307c0.031,1.479 -0.331,2.961 -1.081,4.286c-1.353,2.386 -3.793,3.955 -6.526,4.193c-23.688,2.068 -41.913,-5.28 -56.003,-19.667c-1.74,-1.776 -2.596,-4.237 -2.333,-6.71c0.265,-2.498 0.626,-4.877 1.078,-7.139c-9.049,-6.353 -16.527,-16.915 -23.458,-28.404c-0.813,-1.348 -1.228,-2.898 -1.196,-4.472c0.132,-6.582 0.794,-12.464 1.905,-17.727c-5.251,1.873 -10.763,3.304 -16.488,4.367c-3.817,0.709 -7.618,-1.312 -9.165,-4.874l-19.459,-44.799c-1.068,-2.46 -0.887,-5.284 0.486,-7.587c1.373,-2.304 3.771,-3.806 6.443,-4.036c5.829,-0.502 11.23,-1.614 16.181,-3.39c-3.945,-1.645 -7.724,-3.457 -11.332,-5.439c-3.345,-1.837 -5.015,-5.711 -4.053,-9.404l1.444,-5.546c-2.437,0.452 -5.046,-0.185 -7.04,-1.945c-3.353,-2.96 -3.772,-8.038 -0.949,-11.507c1.304,-1.603 2.566,-3.198 3.798,-4.764Z" style="fill:#a22222;"/><path d="M32.478,1239.4c6.311,-9.735 6.944,-22.307 -0.969,-39.154c3.531,-13.199 11.111,-18.81 20.529,-20.973c-1.134,-2.518 -2.037,-5.182 -2.711,-7.988c7.824,-11.831 14.557,-24.753 20.423,-38.543c-6.279,0.4 -13.136,2.371 -20.423,5.509c16.756,-13.123 21.404,-26.247 22.456,-39.37c15.5,-5.486 30.082,-5.009 43.878,0.579c5.545,-4.267 11.36,-8.2 17.416,-11.767c-9.55,-11.866 -12.987,-27.171 -12.874,-44.472c14.729,0.545 29.916,-0.055 47.062,-5.555c-0.722,11.053 1.04,21.376 6.564,30.592l17.42,-23.227l42.989,-12.343c0.627,4.513 0.136,9.274 -1.189,14.145c13.574,-4.246 28.307,-5.786 44.632,-3.612c6.198,11.348 8.79,22.696 6.416,34.044c1.222,0.508 2.436,1.03 3.644,1.566c8.007,-3.556 15.659,-8.529 22.521,-16.667c11.123,13.949 23.416,26.143 39.37,32.844c-6.243,4.421 -12.798,8.008 -19.732,10.584c1.474,1.274 2.927,2.574 4.357,3.898c14.752,-0.601 32.003,4.669 45.863,10.307c1.194,13.494 4.813,26.381 15.669,37.46c-9.669,-1.052 -20.258,-5.353 -30.36,-9.045c0.629,1.071 1.246,2.149 1.852,3.234c12.493,9.062 25.005,22.527 34.391,37.94l-12.219,28.509l-1.594,-1.048c0.254,2.524 0.452,5.065 0.594,7.621c5.322,8.328 12.22,15.238 21.364,20.125c-4.098,9.788 -7.679,19.921 -8.145,32.129c-4.533,-2.824 -8.788,-5.961 -12.795,-9.377c4.202,12.079 6.534,24.625 6.007,37.886l-26.699,15.839l-1.033,-4.253c-0.852,1.52 -1.727,3.025 -2.624,4.516c3.106,9.857 8.076,17.333 16.554,27.34l-28.735,30.319c-5.616,-6.918 -9.554,-14.466 -12.148,-22.518l-4.129,22.518l-26.602,11.15c4.249,2.386 9.228,4.132 15.049,5.141l-30.093,22.626c-12.481,-3.634 -21.107,-10.352 -27.235,-19.07c-0.843,9.153 -4.104,17.427 -9.419,24.953l-39.37,-0.905c2.248,-1.794 4.217,-3.608 5.911,-5.442l-32.61,-0.893l-6.113,-16.139c-0.375,-0.076 -0.75,-0.152 -1.124,-0.229c-0.379,1.66 -0.831,3.344 -1.361,5.055l-32.581,-4.978c2.381,-2.714 3.951,-5.699 4.88,-8.897c-3.147,-1.275 -6.247,-2.642 -9.297,-4.097c-5.131,3.767 -6.813,10.119 -1.013,22.044c-20.847,1.82 -36.926,-4.534 -49.325,-17.195c0.472,-4.445 1.276,-8.467 2.4,-12.082c-10.589,-4.686 -18.437,-16.222 -25.931,-28.645c0.202,-10.09 1.734,-18.361 4.344,-25.156c-1.101,-1.696 -2.172,-3.413 -3.214,-5.15c-7.759,4.158 -16.366,6.876 -25.567,8.585l-19.458,-44.8c9.991,-0.861 18.867,-3.352 26.567,-7.561c-0.836,-3.175 -1.583,-6.387 -2.237,-9.632c-5.744,-2.065 -11.144,-4.475 -16.185,-7.243l9.457,-36.312c-4.576,3.914 -8.824,9.381 -13.465,15.28Zm76.046,123.823c0.087,-0.078 0.175,-0.154 0.264,-0.23c-0.092,-0.079 -0.183,-0.158 -0.275,-0.236c0.003,0.154 0.007,0.31 0.011,0.466Zm116.076,53.907c4.091,-4.518 6.52,-9.154 7.353,-13.905c-4.115,0.311 -8.27,0.474 -12.462,0.486c1.469,4.239 3.151,8.691 5.109,13.419Zm83.277,-27.932l-0.797,-10.125c-2.209,1.345 -4.452,2.641 -6.726,3.887c2.182,2.364 4.677,4.454 7.523,6.238Zm-228.816,-251.114c0.886,-1.289 1.789,-2.566 2.709,-3.829c-2.053,-0.735 -4.205,-1.204 -6.446,-1.429l3.737,5.258Zm146.215,-73.651c2.074,0.076 4.138,0.188 6.192,0.337l-2.362,-7.519c-1.14,2.396 -2.427,4.795 -3.83,7.182Zm-192.798,174.967c-1.185,1.828 -2.57,3.556 -4.137,5.193c1.423,-1.749 2.797,-3.489 4.137,-5.193Z" style="fill:#bf1818;"/><path d="M383.046,1217.59c-5.298,-8.173 -5.83,-18.729 0.814,-32.872c-2.965,-11.083 -9.328,-15.793 -17.236,-17.609c0.953,-2.114 1.71,-4.351 2.277,-6.707c-6.569,-9.933 -12.223,-20.782 -17.147,-32.36c5.271,0.336 11.028,1.991 17.147,4.625c-14.069,-11.018 -17.971,-22.036 -18.854,-33.053c-13.014,-4.607 -25.257,-4.206 -36.839,0.485c-4.656,-3.582 -9.538,-6.884 -14.623,-9.879c8.018,-9.962 10.904,-22.812 10.809,-37.338c-12.366,0.458 -25.116,-0.046 -39.512,-4.664c0.606,9.28 -0.873,17.947 -5.511,25.685l-14.626,-19.501l-36.093,-10.363c-0.526,3.789 -0.114,7.786 0.999,11.876c-11.396,-3.565 -23.766,-4.858 -37.472,-3.033c-5.204,9.528 -7.38,19.055 -5.387,28.583c-1.026,0.426 -2.046,0.865 -3.059,1.315c-6.723,-2.986 -13.148,-7.161 -18.909,-13.993c-9.338,11.711 -19.659,21.948 -33.054,27.575c5.241,3.712 10.745,6.723 16.567,8.885c-1.238,1.071 -2.458,2.162 -3.659,3.273c-12.385,-0.504 -26.868,3.92 -38.505,8.654c-1.003,11.329 -4.042,22.149 -13.156,31.45c8.118,-0.883 17.008,-4.494 25.49,-7.593c-0.528,0.899 -1.046,1.803 -1.555,2.715c-10.489,7.608 -20.993,18.913 -28.874,31.853l10.258,23.936l1.339,-0.88c-0.213,2.119 -0.38,4.253 -0.499,6.398c-4.468,6.992 -10.259,12.794 -17.936,16.898c3.441,8.217 6.447,16.724 6.838,26.975c3.806,-2.372 7.378,-5.005 10.742,-7.874c-3.528,10.142 -5.486,20.675 -5.043,31.809l22.416,13.298l0.867,-3.571c0.716,1.276 1.45,2.54 2.203,3.792c-2.607,8.276 -6.78,14.552 -13.898,22.954l24.126,25.456c4.715,-5.809 8.021,-12.146 10.199,-18.907l3.466,18.907l22.335,9.361c-3.567,2.002 -7.748,3.469 -12.635,4.316l25.266,18.996c10.479,-3.051 17.721,-8.692 22.865,-16.01c0.708,7.684 3.446,14.631 7.909,20.95l33.054,-0.76c-1.888,-1.507 -3.541,-3.03 -4.963,-4.569l27.378,-0.75l5.133,-13.55c0.315,-0.063 0.63,-0.128 0.944,-0.193c0.318,1.394 0.698,2.809 1.142,4.244l27.355,-4.179c-1.999,-2.278 -3.318,-4.784 -4.097,-7.47c2.642,-1.07 5.244,-2.218 7.805,-3.439c4.308,3.162 5.72,8.496 0.851,18.508c17.503,1.527 31.002,-3.807 41.412,-14.437c-0.396,-3.732 -1.071,-7.109 -2.015,-10.144c8.89,-3.934 15.48,-13.62 21.772,-24.05c-0.17,-8.471 -1.456,-15.416 -3.648,-21.12c0.925,-1.424 1.824,-2.866 2.698,-4.324c6.515,3.491 13.741,5.773 21.466,7.207l16.337,-37.613c-8.389,-0.722 -15.841,-2.814 -22.306,-6.347c0.703,-2.666 1.33,-5.363 1.879,-8.087c4.823,-1.734 9.356,-3.757 13.588,-6.082l-7.939,-30.487c3.842,3.287 7.408,7.877 11.304,12.829Zm-63.846,103.96c-0.074,-0.065 -0.148,-0.13 -0.222,-0.193c0.077,-0.066 0.154,-0.132 0.231,-0.199c-0.003,0.13 -0.006,0.261 -0.009,0.392Zm-97.455,45.259c-3.435,-3.793 -5.475,-7.686 -6.174,-11.674c3.455,0.261 6.944,0.398 10.463,0.408c-1.234,3.559 -2.646,7.297 -4.289,11.266Zm-69.918,-23.451l0.668,-8.501c1.855,1.13 3.738,2.218 5.647,3.263c-1.831,1.985 -3.926,3.741 -6.315,5.238Zm192.109,-210.83c-0.743,-1.083 -1.502,-2.155 -2.274,-3.215c1.724,-0.617 3.53,-1.011 5.412,-1.2l-3.138,4.415Zm-122.759,-61.836c-1.741,0.063 -3.475,0.157 -5.199,0.283l1.984,-6.314c0.956,2.012 2.037,4.026 3.215,6.031Zm161.869,146.898c0.995,1.535 2.158,2.986 3.474,4.361c-1.195,-1.469 -2.348,-2.93 -3.474,-4.361Z" style="fill:#e22727;"/><path d="M116.048,1208.25c5.137,6.141 6.801,14.784 3.236,27.193c3.642,8.802 9.21,11.969 15.652,12.575c-0.501,1.851 -0.833,3.78 -1.002,5.786c6.346,7.449 12.078,15.756 17.322,24.746c-4.191,0.318 -8.921,-0.398 -14.051,-1.881c12.38,7.499 16.754,16.143 18.749,25.127c10.793,2.331 20.389,0.622 28.959,-4.551c4.089,2.429 8.325,4.601 12.683,6.497c-5.141,9.117 -5.898,20.036 -4.111,32c9.686,-1.77 19.789,-2.791 31.673,-0.606c-1.572,-7.583 -1.429,-14.895 1.311,-21.797l13.82,14.43l29.652,4.477c-0.033,-3.183 -0.829,-6.432 -2.187,-9.678c9.396,1.654 19.292,1.327 29.872,-1.722c2.976,-8.441 3.566,-16.541 0.872,-24.171c0.758,-0.468 1.51,-0.944 2.255,-1.43c5.647,1.705 11.201,4.423 16.544,9.406c5.975,-10.707 12.897,-20.31 22.783,-26.458c-4.566,-2.469 -9.256,-4.332 -14.096,-5.459c0.849,-1.022 1.681,-2.059 2.495,-3.11c9.815,-0.98 20.702,-6.259 29.309,-11.473c-0.546,-9.453 0.571,-18.716 6.653,-27.411c-6.289,1.643 -12.866,5.621 -19.182,9.132c0.31,-0.8 0.612,-1.605 0.905,-2.413c7.365,-7.455 14.305,-17.959 18.986,-29.515l-10.902,-18.577l-0.951,0.876c-0.082,-1.771 -0.202,-3.549 -0.361,-5.331c2.694,-6.268 6.571,-11.704 12.135,-15.952c-3.68,-6.387 -7.051,-13.062 -8.568,-21.468c-2.718,2.384 -5.221,4.957 -7.533,7.701c1.583,-8.758 1.883,-17.663 0.221,-26.793l-19.224,-8.437l-0.262,3.041c-0.714,-0.971 -1.442,-1.93 -2.182,-2.877c1.077,-7.117 3.624,-12.762 8.24,-20.491l-22.005,-18.268c-3.029,5.321 -4.885,10.918 -5.804,16.736l-4.96,-15.196l-18.696,-5.201c2.574,-2.053 5.693,-3.733 9.443,-4.982l-22.141,-12.815c-7.894,3.696 -12.933,9.163 -16.122,15.776c-1.464,-6.256 -4.44,-11.674 -8.7,-16.381l-25.946,4.351c1.664,1.029 3.146,2.099 4.448,3.208l-21.477,3.703l-2.445,11.749c-0.24,0.088 -0.48,0.176 -0.72,0.265c-0.416,-1.113 -0.881,-2.236 -1.4,-3.37l-21.054,6.527c1.843,1.654 3.177,3.571 4.108,5.697c-1.955,1.18 -3.869,2.42 -5.742,3.716c-3.766,-2.123 -5.508,-6.36 -2.853,-15.163c-13.966,0.712 -23.97,6.631 -30.917,16.568c0.753,3.032 1.683,5.74 2.784,8.136c-6.538,4.245 -10.587,12.973 -14.312,22.281c1.133,6.964 2.964,12.545 5.363,17.001c-0.56,1.278 -1.098,2.568 -1.615,3.869c-5.543,-2.145 -11.504,-3.212 -17.758,-3.524l-8.432,32.85c6.693,-0.349 12.809,0.535 18.318,2.72c-0.239,2.277 -0.415,4.571 -0.526,6.879c-3.594,1.973 -6.926,4.152 -9.986,6.545l9.849,24.24c-3.414,-2.277 -6.764,-5.659 -10.417,-9.303Zm38.029,-92.901c0.066,0.045 0.132,0.089 0.198,0.134c-0.053,0.063 -0.106,0.126 -0.159,0.189c-0.013,-0.107 -0.026,-0.215 -0.039,-0.323Zm71.425,-48.294c3.153,2.74 5.218,5.719 6.24,8.929c-2.752,0.174 -5.517,0.454 -8.29,0.842c0.552,-3.073 1.224,-6.314 2.05,-9.771Zm57.837,11.456l0.476,7.083c-1.594,-0.722 -3.206,-1.406 -4.833,-2.053c1.209,-1.843 2.652,-3.526 4.357,-5.03Zm-126.454,195.461c0.713,0.809 1.437,1.607 2.171,2.394c-1.286,0.703 -2.662,1.231 -4.122,1.599l1.951,-3.993Zm103.986,37.148c1.364,-0.248 2.717,-0.521 4.061,-0.819l-0.818,5.428c-0.991,-1.55 -2.079,-3.089 -3.243,-4.609Zm-144.823,-102.87c-0.965,-1.153 -2.052,-2.218 -3.25,-3.204c1.114,1.076 2.195,2.151 3.25,3.204Z" style="fill:#fd3333;"/><path d="M197.256,1299.65c-1.386,10.58 -2.411,21.088 -0.695,31.047c7.953,-2.336 16.221,-2.143 24.791,0.463c-1.481,-8.667 1.539,-16.208 5.028,-23.632l14.898,18.767c7.728,-2.192 15.75,-1.439 24.096,2.548c-0.14,-8.629 -3.328,-16.242 -7.183,-23.632c9.488,9.311 15.227,21.658 12.975,32.9c-11.302,-2.972 -21.907,-4.744 -31.973,-5.244c-4.345,-4.662 -7.627,-8.629 -10.89,-13.987c-1.467,5.87 -1.39,12.975 0.232,21.316c-12.203,-3.089 -25.023,-3.089 -38.461,0c-1.229,-16.776 2.228,-29.335 7.182,-40.546Zm69.971,-129.284c3.842,-12.578 11.604,-22.638 24.096,-29.656c6.333,7 12.666,14.849 18.999,26.181c-5.992,2.722 -11.62,6.536 -15.755,14.828c7.668,-1.47 15.577,-0.538 23.864,4.171c-3.649,5.099 -5.464,10.887 -4.171,17.84c-7.404,-1.651 -14.529,-1.902 -21.315,-0.463c4.003,-3.577 8.431,-5.876 13.67,-5.746c-0.811,-3.336 -0.271,-6.673 1.39,-10.009c-6.796,-2.935 -13.593,-3.399 -20.389,-1.391c1.265,-10.184 5.609,-17.849 13.67,-22.474c-3.467,-5.732 -7.268,-10.795 -11.353,-15.291c-7.886,4.798 -15.438,12.27 -22.706,22.01Zm-162.638,-29.656c-11.199,9.066 -20.701,20.571 -29.471,31.51c0.338,6.882 2.443,13.765 7.229,20.647c3.577,-2.395 7.421,-2.918 11.492,-1.853c-3.578,18.231 -12.616,24.495 -22.057,32.066c2.67,4.758 4.379,9.944 2.595,16.681c6.479,-1.276 11.252,-6.07 15.755,-11.525c-1.02,13.23 -9.731,22.824 -9.824,40.441l16.496,9.638c3.44,-10.633 8.299,-14.518 13.717,-15.755c-5.109,5.497 -8.361,13.779 -8.527,26.691l-26.876,-15.755c-0.702,-13.193 3.171,-23.571 8.897,-32.808c-5.806,6.899 -11.37,11.143 -16.682,12.604c4.084,-13.433 -0.104,-24.385 -5.931,-34.846c12.279,-1.133 19.979,-9.896 26.32,-20.925l-8.897,6.209c-6.75,-10.503 -10.673,-21.007 -11.492,-31.51c9.887,-13.035 23.393,-22.451 37.256,-31.51Zm209.059,177.107c7.49,-0.031 13.703,2.809 17.238,11.677c6.503,-2.915 11.971,-9.194 16.497,-18.535c0.2,-13.774 -3.657,-24.227 -8.897,-33.549c9.074,5.704 18.666,9.597 28.729,11.841c6.671,-9.22 10.567,-19.365 11.307,-30.562c-7.383,-2.107 -12.821,-6.481 -17.238,-12.048c9.285,5.314 18.271,7.352 27.062,7.229c-4.487,14.858 -10.342,28.576 -17.794,40.963c-10.204,1.787 -18.342,-2.279 -25.579,-8.897c5.074,8.58 7.715,17.431 8.341,26.506c-6.951,13.77 -15.971,22.625 -26.876,27.005c-0.947,-12.185 -5.911,-18.344 -12.79,-21.63Zm-126.498,-214.941c-2.251,-6.646 -5.41,-12.384 -9.638,-17.052c5.748,-3.842 12.54,-6.848 20.759,-8.712l3.707,10.565c-0.91,-5.128 0.539,-13.778 1.298,-19.462c8.792,-3.999 16.289,-5.083 23.104,-4.634c0.303,7.18 -0.856,14.569 -4.013,22.243c0.403,-5.4 0.466,-10.544 -1.112,-14.458c-4.445,-2.182 -8.654,-1.772 -12.604,1.483c-1.168,8.835 -3.157,13.778 -3.336,24.467c-3.79,-4.511 -7.271,-9.021 -10.566,-13.531c-3.305,2.008 -6.209,3.244 -9.453,5.19c2.935,3.977 2.873,6.958 1.854,13.901Zm-4.652,112.104c-3.158,6.412 -8.469,12.511 -17.038,12.022l7.665,12.648c8.893,-1.148 16.128,-5.519 21.082,-13.027c3.104,5.08 5.636,13.01 5.674,21.157c5.327,1.587 10.559,1.577 15.633,-1.139c2.02,-4.533 2.654,-10.056 2.901,-15.856c3.127,5.633 4.681,12.053 3.76,19.71c-8.898,4.917 -18.133,5.798 -27.803,1.448c0.23,-4.404 -0.712,-9.979 -2.028,-15.929c-6.536,6.302 -14.892,8.965 -23.748,10.627l-12.164,-25.107c11.448,3.794 19.258,-0.295 26.066,-6.554Z" style="fill:#a22222;"/></g></g></svg>