<?xml version="1.0" encoding="UTF-8" standalone="no"?><!DOCTYPE svg PUBLIC "-//W3C//DTD SVG 1.1//EN" "http://www.w3.org/Graphics/SVG/1.1/DTD/svg11.dtd"><svg width="100%" height="100%" viewBox="0 0 1250 1438" version="1.1" xmlns="http://www.w3.org/2000/svg" xmlns:xlink="http://www.w3.org/1999/xlink" xml:space="preserve" xmlns:serif="http://www.serif.com/" style="fill-rule:evenodd;clip-rule:evenodd;stroke-linejoin:round;stroke-miterlimit:2;"><g id="ItemRacket"><path d="M238.205,1409.63c-29.821,7.986 -60.514,-9.742 -68.499,-39.562c-6.754,-25.222 -0.403,-33.981 -7.076,-63.761c-6.307,-28.15 -24.849,-49.205 -57.659,-80.467c-31.217,-29.743 -67.484,-55.223 -78.521,-96.438c-18.853,-70.406 23.001,-142.874 93.407,-161.727l15.884,-4.254l118.347,441.956l-15.883,4.253Z" style="fill:#45abd4;"/><path d="M254.088,1405.38c-29.82,7.985 -60.513,-9.742 -68.498,-39.562c-6.754,-25.222 -0.403,-33.982 -7.076,-63.762c-6.307,-28.149 -24.849,-49.204 -57.659,-80.466c-31.217,-29.744 -67.485,-55.224 -78.521,-96.438c-18.854,-70.407 23.001,-142.874 93.407,-161.728c70.406,-18.853 142.874,23.001 161.728,93.408c11.036,41.214 -7.645,81.408 -19.821,122.772c-12.797,43.474 -18.336,70.978 -9.732,98.512c9.102,29.13 18.981,33.543 25.735,58.765c7.985,29.82 -9.742,60.514 -39.563,68.499Z" style="fill:#73d0f5;"/><path d="M264.99,1233c-2.196,16.523 -1.542,30.814 2.926,45.113c8.515,27.25 17.709,32.871 24.389,54.131l-123.75,33.138c-4.838,-21.754 0.317,-31.217 -5.925,-59.075c-3.275,-14.619 -9.85,-27.324 -20.01,-40.539l122.37,-32.768Z" style="fill:#107097;fill-opacity:0.47;"/><path d="M140.562,981.423c61.241,-16.399 124.275,20.007 140.675,81.248c16.399,61.241 -20.007,124.276 -81.248,140.675c-61.242,16.399 -124.276,-20.007 -140.675,-81.248c-16.399,-61.242 20.007,-124.276 81.248,-140.675Zm3.484,13.011c-54.06,14.476 -86.198,70.119 -71.721,124.18c14.476,54.06 70.119,86.197 124.18,71.721c54.06,-14.477 86.197,-70.12 71.721,-124.18c-14.477,-54.06 -70.12,-86.198 -124.18,-71.721Zm4.747,25.734c40.153,-10.752 81.481,13.118 92.234,53.27c10.752,40.153 -13.118,81.482 -53.271,92.234c-40.153,10.752 -81.481,-13.117 -92.233,-53.27c-10.753,-40.153 13.117,-81.482 53.27,-92.234Zm3.484,13.011c-32.972,8.829 -52.573,42.767 -43.743,75.739c8.829,32.971 42.766,52.572 75.738,43.743c32.972,-8.829 52.573,-42.767 43.744,-75.738c-8.83,-32.972 -42.767,-52.573 -75.739,-43.744Zm8.037,22.007c20.531,-5.498 41.662,6.707 47.16,27.237c5.497,20.531 -6.707,41.662 -27.238,47.16c-20.53,5.497 -41.662,-6.707 -47.159,-27.238c-5.498,-20.53 6.707,-41.661 27.237,-47.159Z" style="fill:#fff;"/><path d="M399.95,808.442c16.754,-4.487 33.998,5.473 38.485,22.227c4.486,16.754 -5.474,33.998 -22.227,38.484c-16.754,4.487 -33.999,-5.473 -38.485,-22.227c-4.486,-16.754 5.473,-33.998 22.227,-38.484Z" style="fill:#ec322c;"/><path d="M402.397,812.699c10.196,-2.731 20.17,1.381 22.257,9.177c2.087,7.795 -4.496,16.341 -14.693,19.071c-10.196,2.731 -20.17,-1.381 -22.257,-9.177c-2.087,-7.795 4.496,-16.341 14.693,-19.071Z" style="fill:#ff433d;"/><path d="M438.471,830.804c4.396,16.711 -5.555,33.875 -22.263,38.349c-16.754,4.487 -33.999,-5.473 -38.485,-22.227c-0.967,-3.613 -1.263,-7.249 -0.964,-10.775c0.012,0.045 0.024,0.09 0.036,0.135c4.487,16.754 21.731,26.714 38.485,22.227c13.141,-3.518 22.101,-14.886 23.191,-27.709Z" style="fill:#a93632;"/><path d="M179.267,1092.12c-0.746,3.642 -4.308,5.993 -7.949,5.247c-3.642,-0.746 -5.993,-4.308 -5.247,-7.949c2.098,-10.242 7.793,-23.111 15.926,-31.723c9.443,-10 21.848,-14.646 35.843,-6.644c5.245,2.998 9.422,8.164 12.962,14.756c4.344,8.09 7.853,18.518 12.666,28.401c7.675,15.756 21.063,30.213 38.667,32.308c11.757,1.399 25.138,-2.886 39.782,-15.268c17.908,-15.141 20.829,-41.908 16.955,-56.985c-3.475,-13.525 -7.691,-27.16 -9.302,-40.197c-1.772,-14.355 -0.434,-28.022 7.369,-40.315c10.557,-16.631 26.055,-24.209 42.852,-32.221c14.782,-7.051 30.63,-14.582 43.815,-31.652c10.473,-13.56 6.804,-26.75 1.23,-36.323c-4.153,-7.134 -9.377,-12.452 -11.692,-14.927c-2.54,-2.715 -2.398,-6.98 0.317,-9.519c2.714,-2.54 6.979,-2.398 9.519,0.316c7.138,7.631 35.346,37.536 11.285,68.686c-14.706,19.041 -32.187,27.712 -48.675,35.576c-14.472,6.904 -28.183,12.953 -37.279,27.283c-6.074,9.568 -6.753,20.271 -5.373,31.445c1.543,12.49 5.65,25.538 8.979,38.495c4.807,18.707 0.915,51.838 -21.303,70.624c-18.328,15.496 -35.356,20.108 -50.07,18.357c-22.102,-2.63 -39.55,-20.003 -49.185,-39.785c-3.992,-8.197 -7.077,-16.773 -10.495,-24.064c-2.734,-5.831 -5.439,-10.857 -9.709,-13.298c-7.607,-4.35 -14.232,-1.237 -19.365,4.198c-6.443,6.823 -10.862,17.064 -12.523,25.178Z"/><path d="M172.321,1105.56c-4.826,1.354 -10.226,0.135 -14.019,-3.66c-5.59,-5.591 -5.588,-14.669 0.003,-20.258c1.678,-1.677 3.669,-2.851 5.786,-3.521l4.615,-1.467l-7.021,17.367l15.596,9.965l-4.046,1.284c-0.304,0.102 -0.608,0.198 -0.914,0.29Z" style="fill:#5e5e5e;"/><path d="M183.076,1080.47c1.625,1.687 2.858,3.797 3.506,6.219c2.045,7.637 -2.495,15.497 -10.132,17.542c-7.637,2.046 -15.497,-2.494 -17.543,-10.131c-2.045,-7.638 2.495,-15.498 10.132,-17.543c0.403,-0.108 0.805,-0.197 1.208,-0.269c-1.919,4.501 -3.336,9.024 -4.176,13.125c-0.746,3.641 1.605,7.203 5.247,7.949c3.641,0.746 7.203,-1.605 7.949,-5.247c0.742,-3.622 2.033,-7.668 3.809,-11.645Z" style="fill:#848484;"/><path d="M251.923,1275.27c2.687,-0.72 5.452,0.877 6.171,3.564l4.595,17.157c0.719,2.687 -0.878,5.452 -3.565,6.172c2.687,-0.72 5.453,0.878 6.172,3.565l4.594,17.156c0.72,2.687 -0.877,5.453 -3.564,6.172l-98.879,26.478c-2.687,0.72 -5.453,-0.878 -6.172,-3.564l-4.595,-17.157c-0.719,-2.687 0.878,-5.453 3.565,-6.172c-2.687,0.719 -5.452,-0.878 -6.172,-3.565l-4.594,-17.157c-0.72,-2.686 0.878,-5.452 3.565,-6.171c-2.687,0.719 -5.453,-0.878 -6.172,-3.565l-4.595,-17.157c-0.719,-2.687 0.878,-5.452 3.565,-6.172l98.879,-26.478c2.687,-0.719 5.453,0.878 6.172,3.565l4.594,17.157c0.72,2.687 -0.877,5.452 -3.564,6.172Z" style="fill:#424242;"/><path d="M255.487,1269.1c0.72,2.687 -0.877,5.452 -3.564,6.172l-98.879,26.478c-2.687,0.719 -5.453,-0.878 -6.172,-3.565l108.615,-29.085Zm7.202,26.893c0.719,2.687 -0.878,5.452 -3.565,6.172l-98.879,26.478c-2.687,0.719 -5.452,-0.878 -6.172,-3.565l108.616,-29.085Zm7.201,26.893c0.72,2.687 -0.877,5.453 -3.564,6.172l-98.879,26.478c-2.687,0.72 -5.453,-0.878 -6.172,-3.564l108.615,-29.086Z" style="fill:#2f2f2f;"/><path d="M273.676,1269.45c2.687,-0.719 5.453,0.878 6.172,3.565l4.594,17.157c0.72,2.687 -0.877,5.452 -3.564,6.172c2.687,-0.72 5.452,0.877 6.172,3.564l4.594,17.157c0.719,2.687 -0.878,5.452 -3.565,6.172l-98.879,26.478c-2.687,0.719 -5.452,-0.878 -6.172,-3.565l-4.594,-17.157c-0.719,-2.686 0.878,-5.452 3.565,-6.171c-2.687,0.719 -5.453,-0.878 -6.172,-3.565l-4.594,-17.157c-0.72,-2.687 0.877,-5.452 3.564,-6.172c-2.687,0.72 -5.452,-0.877 -6.172,-3.564l-4.594,-17.157c-0.719,-2.687 0.878,-5.452 3.565,-6.172l98.879,-26.478c2.687,-0.719 5.452,0.878 6.172,3.565l4.594,17.157c0.719,2.686 -0.878,5.452 -3.565,6.171Z" style="fill:#5e5e5e;"/><path d="M277.241,1263.28c0.719,2.686 -0.878,5.452 -3.565,6.171l-98.879,26.478c-2.687,0.72 -5.452,-0.877 -6.172,-3.564l108.616,-29.085Zm7.201,26.893c0.72,2.687 -0.877,5.452 -3.564,6.172l-98.879,26.478c-2.687,0.719 -5.453,-0.878 -6.172,-3.565l108.615,-29.085Zm7.202,26.893c0.719,2.687 -0.878,5.452 -3.565,6.172l-98.879,26.478c-2.687,0.719 -5.452,-0.878 -6.172,-3.565l108.616,-29.085Z" style="fill:#4c4c4c;"/></g></svg>