<?xml version="1.0" encoding="UTF-8" standalone="no"?><!DOCTYPE svg PUBLIC "-//W3C//DTD SVG 1.1//EN" "http://www.w3.org/Graphics/SVG/1.1/DTD/svg11.dtd"><svg width="100%" height="100%" viewBox="0 0 1250 1438" version="1.1" xmlns="http://www.w3.org/2000/svg" xmlns:xlink="http://www.w3.org/1999/xlink" xml:space="preserve" xmlns:serif="http://www.serif.com/" style="fill-rule:evenodd;clip-rule:evenodd;stroke-linejoin:round;stroke-miterlimit:2;"><g id="Miner-v1.3" serif:id="Miner v1.3"><g id="ItemMiner"><g><path d="M232.072,1154.92l-34.766,7.639l-3.704,0.48c-77.569,10.113 -141.545,22.158 -162.922,45.056c5.225,-58.727 91.462,-73.665 159.695,-85.939l32.66,-7.195l9.037,39.959Zm0.124,-0.028l34.67,-8.065l3.55,-1.161c74.371,-24.249 137.305,-40.905 166.455,-29.435c-29.987,-50.763 -114.26,-27.139 -181.135,-8.857l-32.577,7.559l9.037,39.959Z" style="fill:#535353;"/><path d="M224.734,1122.48l-33.982,7.466l-3.704,0.48c-77.568,10.113 -134.991,54.778 -156.368,77.676c5.225,-58.727 82.767,-106.636 151,-118.911l33.84,-7.455l9.214,40.744Zm0.124,-0.028l33.887,-7.883l3.55,-1.161c74.371,-24.249 145.426,-8.64 174.576,2.83c-29.987,-50.763 -120.599,-60.643 -187.473,-42.362l-33.755,7.832l9.215,40.744Z" style="fill:#8d8d8d;"/><path d="M229.818,1144.95l-34.595,7.601l-3.704,0.48c-77.568,10.113 -139.462,32.166 -160.839,55.064c35.885,-52.342 86.872,-84.606 155.105,-96.88l34.675,-7.639l9.358,41.374Zm0.123,-0.028l34.499,-8.025l3.55,-1.161c74.371,-24.249 139.731,-30.975 168.881,-19.505c-54.917,-31.807 -114.825,-38.99 -181.699,-20.709l-34.588,8.026l9.357,41.374Z" style="fill:#777;"/><path d="M174.243,1165.65c-1.805,-8.495 -13.319,-62.717 -14.907,-71.269c7.488,-2.128 14.97,-3.87 22.344,-5.197l33.84,-7.455l16.552,73.191l-34.766,7.639l-3.704,0.48c-6.556,0.854 -13.015,1.723 -19.359,2.611Zm41.403,-83.948l33.886,-7.863c7.184,-1.964 14.642,-3.603 22.27,-4.901c2.242,8.383 15.197,62.355 17.215,70.766c-6.066,1.916 -12.226,3.897 -18.466,5.932l-3.55,1.16l-0.876,0.204l-33.926,7.893l-16.553,-73.191Z" style="fill:#1f1f1f;fill-opacity:0.35;"/></g><g><path d="M251.461,1065.72c-1.645,-7.002 -2.255,-11.589 -6.247,-14.593c-2.535,-1.908 -5.333,-2.342 -9.096,-2.188c-2.521,0.103 -5,-1.614 -7.676,-1.042l-13.688,2.497c-3.128,0.669 -26.388,9.41 -28.953,10.449c-6.907,2.8 -10.278,5.118 -7.113,19.921l61.982,285.943c2.469,11.548 13.936,27.842 23.457,25.719c3.766,-0.84 8.341,0.947 12.123,0.138c9.198,-1.967 17.372,-4.42 24.579,-5.96c4.871,-1.042 9.764,-3.835 12.266,-7.545c1.9,-2.818 1.936,-6.13 2.342,-9.809c0.327,-2.962 -0.034,-6.647 -0.671,-9.625l-63.305,-293.905Z" style="fill:#c67f23;"/><path d="M292.458,1256.06l22.308,103.567c0.637,2.978 0.998,6.663 0.671,9.625c-0.406,3.679 -0.442,6.991 -2.342,9.809c-2.502,3.71 -7.395,6.503 -12.266,7.545l-0.653,0.141c-2.785,-26.806 -5.037,-35.128 -10.496,-58.046c-2.026,-8.506 -2.88,-27.997 -1.912,-35.438c1.636,-12.574 2.658,-24.957 4.69,-37.203Zm-54.688,-79.898c0.69,3.176 1.228,6.387 1.541,9.651c2.441,25.495 -3.413,50.697 -2.391,76.284c0.929,23.232 9.024,44.806 13.273,67.397c3.878,20.617 3.505,44.492 14.451,62.835c-0.174,0.028 -0.346,0.061 -0.517,0.099c-9.521,2.123 -20.988,-14.171 -23.457,-25.719l-25.679,-118.468c0.483,-13.432 3.633,-26.528 3.073,-40.054c-0.413,-9.969 -0.62,-20.541 -3.847,-30.104c-1.292,-3.827 -3.774,-7.118 -5.595,-10.694c-2.076,-4.076 -3.598,-8.378 -5.9,-12.349c-3.605,-6.219 -7.939,-11.985 -11.839,-18.016l-12.195,-56.258c-3.165,-14.803 0.206,-17.121 7.113,-19.921c1.142,-0.462 6.386,-2.452 12.127,-4.575c-0.008,0.095 -0.015,0.192 -0.021,0.29c-0.418,7.348 1.63,15.167 3.132,22.273c4.032,19.058 11.304,36.654 18.113,54.816c5.443,14.515 13.017,28.105 18.618,42.513Zm-9.274,-128.274c2.655,-0.538 5.117,1.155 7.622,1.053c3.763,-0.154 6.561,0.28 9.096,2.188c3.992,3.004 4.602,7.591 6.247,14.593l28.897,134.159c-15.53,-26.714 -34.193,-48.506 -41.776,-72.332c-4.602,-14.463 -6.262,-28.648 -6.068,-43.869c0.16,-12.572 2.948,-25.288 -4.018,-35.792Z" style="fill:#d79441;"/><path d="M248.465,1055.13c1.329,2.707 1.956,6.17 2.996,10.598l23.61,109.614l-72.118,16.847l-24.265,-111.417c-0.968,-4.528 -1.324,-7.887 -1.155,-10.45l70.932,-15.192Z" style="fill:#6c4717;fill-opacity:0.35;"/></g><g><path d="M268.345,1064.12c-0.831,-3.971 -4.73,-6.521 -8.702,-5.69l-92.361,19.333c-3.971,0.831 -6.521,4.73 -5.69,8.702l19.303,92.219c0.831,3.971 4.73,6.521 8.702,5.689l92.361,-19.332c3.972,-0.831 6.521,-4.731 5.69,-8.702l-19.303,-92.219Z" style="fill:#777;"/><path d="M269.469,1063.88c-0.961,-4.592 -5.469,-7.539 -10.061,-6.578l-92.361,19.332c-4.592,0.961 -7.54,5.469 -6.578,10.061c-0,-0 19.302,92.219 19.302,92.219c0.961,4.592 5.469,7.539 10.061,6.578c0,0 92.361,-19.332 92.361,-19.332c4.592,-0.961 7.54,-5.469 6.579,-10.061c-0,-0 -19.303,-92.219 -19.303,-92.219Zm-2.248,0.47l19.303,92.219c0.701,3.351 -1.45,6.642 -4.801,7.343c-0,0 -92.361,19.332 -92.361,19.332c-3.352,0.702 -6.642,-1.449 -7.343,-4.801c-0,0 -19.303,-92.219 -19.303,-92.219c-0.701,-3.351 1.45,-6.641 4.801,-7.342c0,-0 92.362,-19.333 92.362,-19.333c3.351,-0.701 6.641,1.45 7.342,4.801Z" style="fill:#5d5d5d;"/></g></g></g></svg>