<?xml version="1.0" encoding="UTF-8" standalone="no"?><!DOCTYPE svg PUBLIC "-//W3C//DTD SVG 1.1//EN" "http://www.w3.org/Graphics/SVG/1.1/DTD/svg11.dtd"><svg width="100%" height="100%" viewBox="0 0 1250 1438" version="1.1" xmlns="http://www.w3.org/2000/svg" xmlns:xlink="http://www.w3.org/1999/xlink" xml:space="preserve" xmlns:serif="http://www.serif.com/" style="fill-rule:evenodd;clip-rule:evenodd;stroke-linejoin:round;stroke-miterlimit:2;"><g id="Referee"><g id="ItemReferee"><path d="M178.733,1121.83c2.059,1.393 2.6,4.195 1.207,6.255c-1.392,2.059 -4.195,2.6 -6.254,1.207c-6.835,-4.623 -15.015,-0.572 -20.846,4.145c-5.379,4.352 -9.61,9.912 -14.414,14.845c-7.591,7.794 -15.783,15.039 -24.301,21.8c-5.461,4.335 -9.334,9.624 -22.984,13.493c-2.392,0.678 -4.884,-0.713 -5.562,-3.105c-0.678,-2.392 0.713,-4.884 3.105,-5.562c11.844,-3.358 15.101,-8.121 19.84,-11.882c8.218,-6.523 16.124,-13.509 23.448,-21.03c5.051,-5.186 9.546,-10.988 15.203,-15.563c8.749,-7.078 21.302,-11.54 31.558,-4.603Z"/><path d="M166.587,1126.62c0.7,-5.213 4.361,-9.797 9.722,-11.409l16.075,-4.83l-9.577,43.54l-5.11,1.064l-9.109,-5.985l-2.552,-6.12l0.459,-13.535c-0.061,-0.919 -0.028,-1.831 0.092,-2.725Z" style="fill:#1c4f82;"/><path d="M203.083,1136.9c2.195,7.304 -1.953,15.016 -9.257,17.21l-10.03,3.014c-7.303,2.195 -15.015,-1.953 -17.21,-9.257c-2.194,-7.304 1.954,-15.015 9.257,-17.21l10.03,-3.014c7.304,-2.194 15.015,1.954 17.21,9.257Zm-15.771,5.123c-1.332,-4.433 -6.013,-6.951 -10.447,-5.619l-0.483,0.145c-4.433,1.332 -6.951,6.013 -5.619,10.447c1.332,4.433 6.013,6.951 10.447,5.619l0.483,-0.145c4.433,-1.333 6.951,-6.014 5.619,-10.447Z" style="fill:#2566a7;"/><g><path d="M184.688,1138.03c-0.09,0.211 -0.198,0.417 -0.323,0.617c-9.631,15.396 -24.211,28.006 -41.522,33.807c-10.227,3.428 -20.946,4.293 -31.457,6.406c-8.179,1.644 -18.467,3.531 -27.555,7.273c-8.18,3.367 -15.45,8.195 -18.522,16.245c-0.886,2.323 -3.492,3.489 -5.814,2.602c-2.323,-0.886 -3.489,-3.492 -2.603,-5.814c3.207,-8.404 9.689,-14.36 17.657,-18.62c10.874,-5.813 24.573,-8.41 35.061,-10.518c10.144,-2.039 20.501,-2.808 30.37,-6.116c13.967,-4.68 25.879,-14.422 34.343,-26.424c0.626,-0.395 1.316,-0.713 2.059,-0.936l0.483,-0.145c2.815,-0.846 5.729,-0.14 7.823,1.623Z"/><path d="M59.321,1204.04c0.973,-0.729 2.237,-1.065 3.525,-0.826c2.445,0.454 4.06,2.808 3.606,5.252c-3.573,19.224 -5.179,52.857 3.55,82.643c8.454,28.85 26.751,54.14 63.267,57.859c23.513,2.394 41.129,-7.435 60.605,-18.361c20.787,-11.662 43.52,-24.648 76.273,-27.726c17.383,-1.634 69.393,1.12 101.721,20.141c17.222,10.134 29,30.587 18.94,50.552c-10.378,20.596 -30.493,22.4 -50.578,15.355c-27.326,-9.584 -55.448,-24.695 -85.059,-24.45c-24.951,0.205 -43.56,6.441 -62.072,12.459c-19.357,6.293 -38.612,12.357 -64.255,11.867c-60.4,-1.156 -91.217,-54.542 -88.591,-109.306c1.364,-28.455 9.23,-63.807 13.2,-73.073c0.972,-2.27 3.594,-3.331 5.868,-2.386Zm-4.676,33.571c-2.519,13.074 -4.733,28.545 -5.394,42.319c-2.385,49.748 24.897,98.818 79.765,99.867c24.471,0.468 42.826,-5.421 61.297,-11.426c19.316,-6.28 38.751,-12.686 64.784,-12.901c30.641,-0.253 59.838,15.04 88.114,24.958c15.591,5.468 31.497,5.079 39.552,-10.907c7.772,-15.425 -2.158,-30.905 -15.464,-38.734c-30.599,-18.005 -79.855,-20.483 -96.309,-18.937c-31.248,2.936 -52.876,15.488 -72.708,26.614c-21.142,11.86 -40.402,22.065 -65.925,19.466c-40.795,-4.154 -61.556,-32.057 -71,-64.287c-5.449,-18.592 -7.076,-38.61 -6.712,-56.032Z" style="fill:#954e00;"/><path d="M74.351,1202.89c0.367,-1.553 -0.597,-3.112 -2.15,-3.478l-18.837,-4.444c-1.553,-0.367 -3.111,0.597 -3.477,2.15l-2.858,12.114c-0.367,1.553 0.597,3.111 2.15,3.477l18.837,4.445c1.553,0.366 3.111,-0.597 3.477,-2.15l2.858,-12.114Z" style="fill:#2566a7;"/></g><g><path d="M311.816,1112.56c-0.206,3.245 -0.687,6.516 -1.458,9.785c-0.35,1.484 -0.754,2.941 -1.209,4.37l-14.577,52.704l-34.721,-12.286c-6.506,0.731 -13.245,0.376 -19.978,-1.213c-7.683,-1.813 -14.654,-5.065 -20.695,-9.403l-36.891,-10.066c-0,-0 17.865,-66.942 18.476,-68.733c4.61,-13.524 13.836,-24.436 25.454,-31.361c17.81,-10.617 113.595,-25.211 170.152,-37.75l11.135,32.504l-17.201,62.629l-78.487,8.82Z" style="fill:#2f88e2;"/><g><path d="M254.056,1085.99l-17.954,4.525c-0,-0 12.748,-43.704 12.748,-43.704l16.994,-3.739l-11.788,42.918Z" style="fill:#17395b;"/><path d="M243.434,1088.66l-7.332,1.848c-0,-0 12.748,-43.704 12.748,-43.704l2.881,-0.634l1.161,8.127l-9.458,34.363Z" style="fill:#275d93;"/><path d="M248.85,1046.81l16.994,-3.739l-2.622,9.547l-10.33,1.685l-4.042,-7.493Z" style="fill:#1c4f82;"/></g><g><path d="M379.168,1071.24l17.201,-62.628l11.135,32.504l-17.201,62.629l-11.135,-32.505Z" style="fill:#2a92fc;"/><path d="M385.128,1071.05l11.84,-43.109c0,-0 4.576,13.355 4.576,13.355l-11.84,43.11c-0,-0 -4.576,-13.356 -4.576,-13.356Z" style="fill:#2566a7;"/><path d="M392.761,1043.26l4.207,-15.319c0,-0 4.576,13.355 4.576,13.355l-8.783,1.964Z" style="fill:#1c4f82;"/></g><path d="M287.684,1126.85c8.966,13.128 12.597,29.835 8.662,46.512c-7.426,31.476 -39.009,51.001 -70.485,43.575c-31.475,-7.426 -51.001,-39.01 -43.574,-70.485c3.791,-16.071 13.881,-29.027 27.038,-36.87c17.81,-10.617 113.286,-25.807 169.843,-38.346l11.135,32.505l-102.619,23.109Z" style="fill:#2566a7;"/><path d="M248.782,1122.46c21.518,5.077 34.865,26.668 29.789,48.186c-5.077,21.517 -26.668,34.865 -48.185,29.788c-21.518,-5.076 -34.866,-26.667 -29.789,-48.185c5.077,-21.517 26.668,-34.865 48.185,-29.789Z" style="fill:#275d93;"/><path d="M248.782,1122.46c21.518,5.077 34.865,26.668 29.789,48.186c-5.077,21.517 -26.668,34.865 -48.185,29.788c-21.518,-5.076 -34.866,-26.667 -29.789,-48.185c5.077,-21.517 26.668,-34.865 48.185,-29.789Zm-2.069,8.769c-16.678,-3.935 -33.413,6.411 -37.348,23.089c-3.935,16.678 6.411,33.413 23.089,37.348c16.678,3.935 33.414,-6.411 37.349,-23.089c3.934,-16.678 -6.411,-33.413 -23.09,-37.348Z" style="fill:#1c4f82;"/></g></g></g></svg>