<?xml version="1.0" encoding="UTF-8" standalone="no"?><!DOCTYPE svg PUBLIC "-//W3C//DTD SVG 1.1//EN" "http://www.w3.org/Graphics/SVG/1.1/DTD/svg11.dtd"><svg width="100%" height="100%" viewBox="0 0 1250 1438" version="1.1" xmlns="http://www.w3.org/2000/svg" xmlns:xlink="http://www.w3.org/1999/xlink" xml:space="preserve" xmlns:serif="http://www.serif.com/" style="fill-rule:evenodd;clip-rule:evenodd;stroke-linejoin:round;stroke-miterlimit:2;"><g id="MagicKnight"><g id="lightningSwordItem"><g><path d="M144.268,1281.37l115.351,-14.103l-67.956,-77.026l57.676,-7.052l-67.956,-77.026l57.676,-7.051l-67.955,-77.026l57.675,-7.052l-187.373,-105.31l72.022,119.414l-56.575,6.917l66.855,77.16l-56.576,6.918l66.856,77.16l-56.576,6.917l66.856,77.16Z" style="fill:#fbfbfb;"/><path d="M144.268,1281.37l-66.856,-77.16l56.576,-6.917l-66.856,-77.16l56.576,-6.918l-66.855,-77.16l56.575,-6.917l-72.022,-119.414l187.373,105.31l-57.675,7.052l67.955,77.026l-57.676,7.051l67.956,77.026l-57.676,7.052l67.956,77.026l-115.351,14.103Zm1.289,-3.347l107.71,-13.17l-67.955,-77.025l57.675,-7.052l-67.955,-77.026l57.675,-7.052l-67.955,-77.025l54.058,-6.61l-168.496,-94.7l68.35,113.325c-0,-0 -55.524,6.788 -55.524,6.788l66.855,77.16c0,0 -56.575,6.918 -56.575,6.918l66.855,77.16c0,-0 -56.575,6.917 -56.575,6.917l61.857,71.392Z" style="fill:#7ae7db;"/><path d="M145.557,1278.03l-61.857,-71.392c-0,0 56.575,-6.917 56.575,-6.917l-66.855,-77.16c-0,-0 56.575,-6.918 56.575,-6.918l-66.855,-77.16c-0,0 55.524,-6.788 55.524,-6.788l-68.35,-113.325l168.496,94.7l-54.058,6.61l67.955,77.025l-57.675,7.052l67.955,77.026l-57.675,7.052l67.955,77.025l-107.71,13.17Zm-62.992,-232.067l66.855,77.161l-18.238,2.23l-38.337,4.687l66.855,77.16l-18.238,2.23l-38.338,4.687l46.415,53.569l84.105,-10.283l-67.956,-77.025l57.676,-7.052l-67.955,-77.026l57.675,-7.052l-67.955,-77.025l42.88,-5.243l-110.174,-61.922l57.004,94.513l-14.988,1.833l-37.286,4.558Z" style="fill:#adf7ef;"/><path d="M82.565,1045.96l37.286,-4.558l14.988,-1.833l-57.004,-94.513l110.174,61.922l-42.88,5.243l67.955,77.025l-57.675,7.052l67.955,77.026l-57.676,7.052l67.956,77.025l-84.105,10.283l-46.415,-53.569l38.338,-4.687l18.238,-2.23l-66.855,-77.16l38.337,-4.687l18.238,-2.23l-66.855,-77.161Zm10.516,4.05l66.855,77.16l-28.111,3.437l-28.464,3.481l66.855,77.16l-28.111,3.437l-28.464,3.48c-0,0 38.054,43.92 38.054,43.92l71.325,-8.72l-67.955,-77.026l57.675,-7.052l-67.955,-77.025l57.676,-7.052l-67.956,-77.026l36.83,-4.503l-78.6,-44.176l50.86,84.329l-50.514,6.176Z" style="fill:#d3fffa;"/><path d="M133.594,1290.62l-66.855,-77.16c-3.418,-3.945 -4.382,-9.453 -2.506,-14.323c1.876,-4.871 6.285,-8.31 11.465,-8.943l30.246,-3.698l-49.485,-57.113c-3.418,-3.945 -4.381,-9.453 -2.506,-14.324c1.876,-4.87 6.285,-8.309 11.465,-8.943l30.247,-3.698l-49.486,-57.113c-3.418,-3.945 -4.381,-9.453 -2.506,-14.323c1.876,-4.871 6.285,-8.31 11.466,-8.943c-0,-0 34.937,-4.272 34.937,-4.272l-60.763,-100.747c-3.311,-5.491 -2.508,-12.523 1.955,-17.126c4.464,-4.603 11.468,-5.621 17.058,-2.48l187.373,105.311c5.321,2.991 8.119,9.062 6.935,15.05c-1.184,5.989 -6.082,10.539 -12.141,11.279l-31.06,3.798l50.216,56.918c3.468,3.931 4.474,9.46 2.612,14.36c-1.862,4.9 -6.285,8.366 -11.488,9.002l-31.06,3.797l50.216,56.919c3.468,3.931 4.474,9.459 2.612,14.359c-1.862,4.9 -6.285,8.366 -11.488,9.002l-31.06,3.798l50.216,56.918c3.468,3.931 4.473,9.46 2.612,14.36c-1.862,4.9 -6.285,8.366 -11.488,9.002l-115.351,14.103c-4.666,0.571 -9.31,-1.217 -12.388,-4.77Zm10.674,-9.248l115.351,-14.103l-67.956,-77.026l57.676,-7.052l-67.956,-77.026l57.676,-7.051l-67.955,-77.026l57.675,-7.052l-187.373,-105.31l72.022,119.414l-56.575,6.917l66.855,77.16l-56.576,6.918l66.856,77.16l-56.576,6.917l66.856,77.16Z" style="fill:url(#_Radial1);"/></g><g><path d="M77.705,1265.22l-2.755,-22.536l34.621,27.077l156.388,-19.121l27.077,-34.621l2.863,23.417l10.292,-7.747l-6.021,42.679l0.197,1.606c0.523,4.278 -0.251,8.58 -2.167,12.359l-4.853,34.41l-40.276,-5.682c0,0 -12.361,1.512 -12.361,1.512l1.494,12.213c0.467,3.822 -0.46,7.495 -2.381,10.509c2.591,2.463 4.375,5.804 4.842,9.626l2.462,20.134c0.089,0.726 0.127,1.446 0.118,2.157c5.773,-0.223 10.855,4.022 11.569,9.858l2.623,21.456c0.752,6.151 -3.632,11.756 -9.783,12.508l-88.111,10.773c-6.151,0.752 -11.755,-3.632 -12.508,-9.783l-2.623,-21.455c-0.713,-5.837 3.196,-11.181 8.852,-12.355c-0.18,-0.688 -0.316,-1.396 -0.404,-2.122l-2.462,-20.135c-0.467,-3.821 0.459,-7.494 2.38,-10.508c-2.59,-2.463 -4.375,-5.805 -4.842,-9.626l-1.493,-12.214l-10.836,1.325l-37.72,15.218c-0,-0 -11.897,-29.489 -11.894,-29.487c-4.132,-3.397 -7.016,-8.327 -7.717,-14.057l-0.888,-7.268l-13.904,-34.465l10.221,4.345Z" style="fill:#6b5c45;"/><path d="M239.918,1310.63l2.462,20.135c0.466,3.812 -0.44,7.478 -2.329,10.502c2.562,2.48 4.325,5.82 4.791,9.632l2.461,20.135c0.089,0.725 0.128,1.445 0.12,2.157l-6.044,0.739c0.065,-0.708 0.056,-1.434 -0.033,-2.168l-2.462,-20.134c-0.286,-2.341 -1.35,-4.398 -2.901,-5.944c-2.175,1.619 -4.787,2.713 -7.669,3.065l-58.57,7.161c-2.882,0.353 -5.681,-0.079 -8.181,-1.127c-1.133,1.874 -1.67,4.127 -1.384,6.468l2.462,20.134c0.09,0.734 0.256,1.44 0.49,2.112l-5.867,0.717l-0.173,0.04c-0.181,-0.694 -0.318,-1.408 -0.408,-2.14l-2.462,-20.135c-0.466,-3.812 0.44,-7.478 2.33,-10.503c-2.563,-2.48 -4.325,-5.819 -4.791,-9.632l-2.462,-20.134c-1.082,-8.845 5.221,-16.903 14.066,-17.985l58.57,-7.161c8.844,-1.081 16.903,5.222 17.984,14.066Zm-3.496,20.863l-2.462,-20.135c-0.679,-5.556 -5.742,-9.515 -11.298,-8.836l-58.57,7.161c-5.556,0.68 -9.516,5.742 -8.836,11.298l2.461,20.135c0.287,2.34 1.35,4.398 2.901,5.944c2.175,-1.62 4.787,-2.713 7.669,-3.065l58.57,-7.162c2.882,-0.352 5.681,0.08 8.182,1.128c1.132,-1.875 1.669,-4.127 1.383,-6.468Z" style="fill:#402803;"/><path d="M233.96,1311.36c-0.679,-5.556 -5.742,-9.515 -11.298,-8.836l-58.57,7.161c-5.556,0.68 -9.516,5.742 -8.836,11.298l2.461,20.135c0.68,5.556 5.742,9.516 11.299,8.836l58.57,-7.161c5.556,-0.679 9.516,-5.742 8.836,-11.298l-2.462,-20.135Z" style="fill:#583900;"/><path d="M236.422,1331.49l-78.705,9.623c0.68,5.556 5.742,9.516 11.299,8.836l58.57,-7.161c5.556,-0.679 9.516,-5.742 8.836,-11.298Z" style="fill:#4a3000;"/><path d="M241.377,1373.95l-78.24,9.566c-0.237,-0.677 -0.405,-1.389 -0.496,-2.13l-2.462,-20.134c-0.679,-5.557 3.28,-10.619 8.837,-11.299l58.57,-7.161c5.556,-0.679 10.619,3.28 11.298,8.837l2.462,20.134c0.09,0.741 0.098,1.473 0.031,2.187Z" style="fill:#583900;"/><path d="M238.884,1351.63l-78.705,9.623c-0.679,-5.557 3.28,-10.619 8.837,-11.299l58.57,-7.161c5.556,-0.679 10.619,3.28 11.298,8.837Z" style="fill:#4a3000;"/><path d="M254.344,1394.51c-0.362,-2.96 -3.06,-5.07 -6.02,-4.708l-88.111,10.773c-2.96,0.362 -5.07,3.059 -4.708,6.02l1.312,10.727c0.362,2.961 3.059,5.07 6.02,4.708l88.11,-10.773c2.961,-0.362 5.07,-3.059 4.708,-6.019l-1.311,-10.728Z" style="fill:#9c865f;"/><path d="M253.032,1383.78c-0.362,-2.96 -3.059,-5.07 -6.02,-4.708l-88.11,10.773c-2.961,0.362 -5.07,3.06 -4.708,6.02l1.311,10.728c0.362,2.96 3.059,5.07 6.02,4.708l88.111,-10.773c2.96,-0.362 5.07,-3.06 4.708,-6.02l-1.312,-10.728Z" style="fill:#b8a075;"/><path d="M294.585,1276.68c0.507,4.144 -0.653,8.319 -3.225,11.608c-2.572,3.288 -6.345,5.42 -10.488,5.927c-38.362,4.69 -136.852,16.732 -175.246,21.426c-8.645,1.057 -16.511,-5.095 -17.568,-13.74c-2.232,-18.257 -5.62,-45.967 -5.62,-45.967l25.445,19.9l161.178,-19.706l19.9,-25.445c0,-0 3.392,27.741 5.624,45.997Z" style="fill:#b8a075;"/><path d="M138.139,1325.25l-33.03,13.325l-26.963,-66.835l64.065,27.233l100.631,-12.304l55.617,-41.866l-10.066,71.363l-35.268,-4.975l-114.986,14.059Z" style="fill:#9c865f;"/></g><g><path d="M228.978,1287.62l-29.946,64.736l-44.661,-55.614l29.946,-64.736l44.661,55.614Z" style="fill:#00968b;"/><path d="M175.229,1332.3l-25.538,-31.801c-1.427,-1.777 -1.724,-4.209 -0.767,-6.278l18.89,-40.838l4.857,3.798l-18.3,39.56l24.656,30.703l-3.798,4.856Zm30.255,-83.522l28.174,35.083c1.427,1.777 1.724,4.209 0.767,6.278l-17.123,37.017l-4.857,-3.798l16.533,-35.739l-27.292,-33.985l3.798,-4.856Z" style="fill:#6b5c45;"/><path d="M185.7,1243.31l36.268,45.164l-24.319,52.572l-36.268,-45.164l24.319,-52.572Z" style="fill:#00c7b9;"/><path d="M185.7,1243.31l36.268,45.164l-30.294,3.704l-5.974,-48.868Z" style="fill:#00fbe9;"/><path d="M185.7,1243.31l11.949,97.736l-36.268,-45.164l24.319,-52.572Z" style="fill:#00a296;"/><path d="M161.381,1295.88l30.293,-3.704l5.975,48.868l-36.268,-45.164Z" style="fill:#00978d;"/><path d="M187.648,1259.25l24.44,30.433l-16.387,35.425l-24.44,-30.433l16.387,-35.425Z" style="fill:#00ffed;fill-opacity:0.5;"/></g></g></g><defs><radialGradient id="_Radial1" cx="0" cy="0" r="1" gradientUnits="userSpaceOnUse" gradientTransform="matrix(-237.246,44.3226,-44.3226,-237.246,145.443,1108.73)"><stop offset="0" style="stop-color:#3ce6f6;stop-opacity:1"/><stop offset="1" style="stop-color:#fff;stop-opacity:0"/></radialGradient></defs></svg>