<?xml version="1.0" encoding="UTF-8" standalone="no"?><!DOCTYPE svg PUBLIC "-//W3C//DTD SVG 1.1//EN" "http://www.w3.org/Graphics/SVG/1.1/DTD/svg11.dtd"><svg width="100%" height="100%" viewBox="0 0 300 345" version="1.1" xmlns="http://www.w3.org/2000/svg" xmlns:xlink="http://www.w3.org/1999/xlink" xml:space="preserve" xmlns:serif="http://www.serif.com/" style="fill-rule:evenodd;clip-rule:evenodd;stroke-linejoin:round;stroke-miterlimit:2;"><g id="Skate"><path d="M71.066,339.555c9.321,-6.512 12.192,-19.716 6.409,-29.469l-38.477,-64.88c-5.783,-9.753 -18.046,-12.384 -27.366,-5.872c-9.321,6.512 -12.193,19.716 -6.409,29.468l38.476,64.881c5.784,9.752 18.047,12.383 27.367,5.872Z" style="fill:#e5ac53;"/><path d="M77.543,332.362c-1.569,2.802 -3.746,5.285 -6.477,7.193c-2.285,1.596 -4.748,2.643 -7.249,3.17c-7.492,0.982 -15.081,-2.466 -19.314,-9.604c0,0 -38.476,-64.88 -38.476,-64.88c-4.233,-7.138 -3.982,-16.063 -0.056,-23.059c1.477,-2.252 3.375,-4.251 5.661,-5.848c2.73,-1.908 5.714,-3.031 8.713,-3.42c-2.408,0.511 -4.778,1.521 -6.979,3.058c-9.003,6.29 -11.777,19.045 -6.19,28.466c-0,0 38.476,64.881 38.476,64.881c5.587,9.42 17.433,11.962 26.436,5.672c2.201,-1.538 4.029,-3.461 5.455,-5.629Z" style="fill:#cd8b24;"/><path d="M73.977,337.521c9.392,-6.562 12.286,-19.867 6.458,-29.695l-38.316,-64.609c-5.828,-9.827 -18.184,-12.478 -27.577,-5.917c-9.392,6.562 -12.285,19.868 -6.457,29.695l38.315,64.609c5.828,9.827 18.185,12.479 27.577,5.917Z" style="fill:#785cde;"/><path d="M29.371,296.823c-0.136,-0.037 -0.603,-0.061 -0.643,0.053c-0.039,0.114 0.359,0.411 0.4,0.432c0.109,0.057 0.278,0.142 0.392,0.185c1.148,0.431 2.293,0.855 3.42,1.321c0.874,0.36 1.729,0.763 2.584,1.176c0.146,0.071 0.292,0.141 0.442,0.205c0.228,0.096 0.456,0.174 0.685,0.269c0.073,0.043 0.168,0.013 0.211,-0.066c0.043,-0.08 0.018,-0.18 -0.055,-0.224c-0.267,-0.209 -0.521,-0.424 -0.805,-0.603c-0.658,-0.414 -1.372,-0.713 -2.077,-1.022c-1.351,-0.593 -2.74,-1.091 -4.137,-1.582c-0.139,-0.049 -0.275,-0.105 -0.417,-0.144Zm-13.155,-23.074c-0.033,0.076 0.063,0.316 0.12,0.404c0.039,0.061 0.102,0.093 0.162,0.13c0.191,0.117 0.4,0.199 0.608,0.279c0.214,0.081 0.428,0.13 0.646,0.199c0.102,0.054 0.228,0.007 0.281,-0.104c0.053,-0.111 0.013,-0.244 -0.089,-0.297c-0.186,-0.141 -0.357,-0.289 -0.553,-0.413c-0.192,-0.121 -0.388,-0.239 -0.599,-0.317c-0.066,-0.024 -0.131,-0.055 -0.201,-0.046c-0.102,0.011 -0.341,0.09 -0.375,0.165Zm27.904,46.892c-0.044,0.077 0.147,0.452 0.25,0.545c0.341,0.307 0.809,0.383 1.216,0.583c0.072,0.047 0.168,0.022 0.214,-0.056c0.046,-0.079 0.026,-0.181 -0.046,-0.227c-0.353,-0.297 -0.637,-0.702 -1.058,-0.872c-0.127,-0.052 -0.533,-0.049 -0.576,0.027Zm-11.292,-19.23c-0.042,0.091 0.576,0.599 0.671,0.676c0.059,0.048 0.124,0.085 0.189,0.123c0.643,0.377 1.291,0.742 1.957,1.073c0.084,0.041 0.167,0.087 0.258,0.109c0.162,0.04 0.29,0.021 0.458,0.034c0.034,0.02 0.077,0.006 0.097,-0.031c0.02,-0.037 0.009,-0.083 -0.025,-0.103c-0.098,-0.144 -0.151,-0.268 -0.27,-0.392c-0.067,-0.07 -0.148,-0.118 -0.228,-0.17c-0.631,-0.415 -1.294,-0.771 -1.977,-1.084c-0.069,-0.032 -0.137,-0.064 -0.21,-0.084c-0.118,-0.032 -0.878,-0.242 -0.92,-0.151Zm11.059,16.981c0.478,0.367 0.936,0.757 1.429,1.102c0.084,0.059 0.17,0.115 0.26,0.163c0.139,0.074 0.281,0.125 0.424,0.189c0.093,0.065 0.221,0.034 0.284,-0.068c0.064,-0.102 0.039,-0.237 -0.054,-0.302c-0.115,-0.112 -0.218,-0.229 -0.34,-0.332c-0.079,-0.067 -0.163,-0.126 -0.25,-0.182c-0.504,-0.329 -1.037,-0.596 -1.558,-0.894c-0.082,-0.054 -0.192,-0.026 -0.245,0.063c-0.054,0.09 -0.031,0.206 0.05,0.261Zm-0.778,-54.016c-0.027,0.111 0.264,0.408 0.359,0.503c0.081,0.082 0.138,0.143 0.235,0.203c0.107,0.067 0.224,0.105 0.343,0.145c1.045,0.349 2.131,0.552 3.196,0.831c1.062,0.278 2.118,0.573 3.177,0.861c0.212,0.058 0.422,0.125 0.638,0.162c0.339,0.059 0.664,0.062 1.006,0.099c0.149,0.051 0.313,-0.038 0.366,-0.199c0.053,-0.161 -0.025,-0.334 -0.174,-0.385c-0.332,-0.202 -0.63,-0.422 -0.981,-0.582c-1.353,-0.617 -2.819,-0.923 -4.252,-1.303c-0.952,-0.252 -1.89,-0.598 -2.871,-0.692c-0.079,-0.008 -0.151,-0.006 -0.23,0.009c-0.229,0.042 -0.786,0.237 -0.812,0.348Zm3.628,3.632c-0.039,0.111 0.186,0.424 0.264,0.503c0.051,0.051 0.111,0.082 0.174,0.114c0.09,0.047 0.187,0.076 0.281,0.113c0.627,0.245 1.238,0.528 1.873,0.753c0.083,0.029 0.165,0.053 0.251,0.072c0.211,0.045 0.407,0.057 0.621,0.09c0.097,0.044 0.212,-0.006 0.256,-0.11c0.045,-0.105 0.002,-0.226 -0.094,-0.27c-0.203,-0.167 -0.372,-0.341 -0.592,-0.479c-0.313,-0.196 -0.661,-0.32 -0.998,-0.463c-0.449,-0.19 -0.895,-0.401 -1.37,-0.518c-0.062,-0.015 -0.121,-0.033 -0.185,-0.026c-0.101,0.013 -0.442,0.11 -0.481,0.221Zm19.777,27.946c-0.012,0.083 0.318,0.379 0.472,0.445c0.754,0.326 1.586,0.319 2.376,0.501c0.136,0.031 0.272,0.058 0.411,0.076c0.218,0.028 0.423,0.027 0.644,0.05c0.083,0.031 0.176,-0.017 0.208,-0.106c0.032,-0.09 -0.009,-0.188 -0.092,-0.219c-0.236,-0.16 -0.445,-0.324 -0.698,-0.44c-0.368,-0.171 -0.766,-0.249 -1.156,-0.341c-0.517,-0.122 -1.038,-0.342 -1.577,-0.273c-0.17,0.022 -0.577,0.224 -0.588,0.307Zm2.885,1.967c-0.115,-0.009 -0.643,0.013 -0.666,0.112c-0.023,0.099 0.539,0.395 0.563,0.401c0.272,0.08 0.537,0.182 0.807,0.266c0.053,0.017 0.105,0.036 0.159,0.042c0.093,0.01 0.336,0.049 0.43,0.044c0.121,-0.006 0.368,0.016 0.401,-0.084c0.033,-0.1 -0.187,-0.203 -0.282,-0.279c-0.081,-0.065 -0.306,-0.189 -0.396,-0.239c-0.123,-0.068 -0.263,-0.096 -0.396,-0.136c-0.204,-0.062 -0.408,-0.109 -0.62,-0.127Zm-23.569,-39.537c-0.032,0.111 0.128,0.262 0.289,0.417c0.037,0.036 0.182,0.189 0.228,0.209c0.119,0.052 0.251,0.066 0.381,0.062c0.164,-0.004 0.613,-0.118 0.643,-0.213c0.03,-0.094 -0.277,-0.455 -0.413,-0.553c-0.108,-0.079 -0.23,-0.141 -0.36,-0.163c-0.051,-0.009 -0.194,-0.001 -0.244,0.011c-0.202,0.051 -0.493,0.12 -0.524,0.23Z" style="fill:#6248bf;"/><path d="M22.077,273.536l-7.151,4.995l-4.437,-7.481l7.151,-4.996l4.437,7.482Zm-4.437,-7.482l-4.437,-7.482l6.955,-4.859l4.437,7.481l-6.955,4.86Zm-4.437,-7.482l-6.835,4.775c-1.13,-3.141 -1.504,-6.484 -1.182,-9.756l3.58,-2.501l4.437,7.482Zm-4.437,-7.482l-2.133,-3.596c1.133,-2.936 2.867,-5.649 5.153,-7.9l3.935,6.637l-6.955,4.859Zm13.311,22.446l6.955,-4.86l4.437,7.481l-6.956,4.86l-4.436,-7.481Zm37.943,63.982l6.956,-4.86l3.936,6.637c-2.834,1.325 -5.828,1.916 -8.759,1.819l-2.133,-3.596Zm-13.311,-22.446l-4.437,-7.481l6.957,-4.859l4.436,7.48l-6.956,4.86Zm4.437,7.482l6.956,-4.86l4.437,7.482l-6.956,4.86l-4.437,-7.482Zm0,-0l-7.151,4.995l-4.436,-7.481l7.15,-4.996l4.437,7.482Zm4.437,7.482l4.437,7.482l-3.58,2.5c-2.877,-1.037 -5.525,-2.791 -7.692,-5.207l6.835,-4.775Zm-28.274,-81.319l-6.956,4.86l-4.437,-7.482l6.956,-4.86l4.437,7.482Zm-4.437,-7.482l-3.759,-6.339c3.13,-1.16 6.404,-1.464 9.537,-0.972l1.373,2.315l-7.151,4.996Zm7.151,-4.996l2.056,-1.436c2.877,1.037 5.526,2.791 7.692,5.208l-5.311,3.71l-4.437,-7.482Zm4.437,7.482l4.437,7.482l-7.151,4.996l-4.437,-7.482l7.151,-4.996Zm4.437,7.482l5.627,-3.931l4.437,7.482l-5.627,3.931l-4.437,-7.482Zm4.437,7.482l4.436,7.481l-7.15,4.996l-4.437,-7.482l7.151,-4.995Zm-7.151,4.995l-6.956,4.86l-4.437,-7.482l6.956,-4.859l4.437,7.481Zm29.07,49.019l-6.956,4.859l-4.437,-7.482l6.956,-4.859l4.437,7.482Zm-4.437,-7.482l-4.437,-7.482l7.151,-4.995l4.436,7.481l-7.15,4.996Zm7.15,-4.996l5.627,-3.931l4.437,7.482l-5.627,3.931l-4.437,-7.482Zm4.437,7.482l4.437,7.482l-7.15,4.995l-4.437,-7.481l7.15,-4.996Zm4.437,7.482l5.312,-3.711c1.129,3.141 1.503,6.484 1.181,9.756l-2.056,1.437l-4.437,-7.482Zm4.437,7.482l1.373,2.315c-0.884,3.299 -2.495,6.407 -4.764,9.019l-3.759,-6.339l7.15,-4.995Zm-7.15,4.995l-6.956,4.86l-4.437,-7.482l6.956,-4.86l4.437,7.482Z" style="fill:#fdfff8;"/><path d="M83.412,317.757l-1.216,0.849c-2.776,1.939 -6.235,1.759 -8.675,-0.178l-3.087,2.157l3.049,5.141l-9.981,6.973l-0.479,-0.807c-0.282,0.267 -0.586,0.516 -0.909,0.744l-0.021,0.015l-2.487,1.737c-3.566,2.491 -8.257,1.485 -10.47,-2.247c-2.213,-3.731 -1.114,-8.783 2.452,-11.274l2.486,-1.737c0.332,-0.232 0.673,-0.434 1.022,-0.605l-4.856,-8.187l0.476,-4.326l13.723,4.464l0.017,-0.012l6.326,-0.194c0.442,-2.046 1.609,-3.937 3.396,-5.186l2.486,-1.737c0.267,-0.186 0.54,-0.353 0.818,-0.5l2.953,4.979c0.695,1.172 1.266,2.394 1.717,3.648c0.731,2.034 1.146,4.153 1.26,6.283Zm-34.824,-63.632c-0.239,0.213 -0.492,0.414 -0.758,0.6l-2.487,1.738c-1.787,1.248 -3.856,1.618 -5.755,1.207l-2.782,6.17l-0.017,0.012l4.634,2.804l-0.417,4.307l-9.981,6.973l-4.855,-8.187c-0.288,0.273 -0.599,0.527 -0.93,0.759l-2.487,1.737c-3.566,2.491 -8.258,1.484 -10.47,-2.247c-2.213,-3.731 -1.114,-8.783 2.452,-11.274l2.486,-1.737l0.021,-0.015c0.325,-0.226 0.659,-0.422 1,-0.59l-0.478,-0.807l9.981,-6.973l3.049,5.14l3.087,-2.157c-0.613,-3.212 0.667,-6.704 3.444,-8.644l2.486,-1.737l0.021,-0.014c0.201,-0.14 0.406,-0.268 0.614,-0.386c0.603,0.749 1.163,1.553 1.673,2.413l6.469,10.908Z" style="fill-opacity:0.25;"/><g><g><path d="M40.302,236.866c3.564,-2.472 8.241,-1.462 10.449,2.261c2.213,3.732 1.114,8.784 -2.452,11.275l-2.486,1.737l-8.019,-13.521l2.487,-1.737l0.021,-0.015Z" style="fill:#c9c9c9;"/><path d="M48.265,240.864c2.213,3.732 1.114,8.784 -2.452,11.275c-3.566,2.491 -8.258,1.485 -10.47,-2.246c-2.213,-3.732 -1.115,-8.784 2.451,-11.275c3.566,-2.491 8.258,-1.485 10.471,2.246Z" style="fill:#ececec;"/><path d="M48.265,240.864c2.213,3.732 1.114,8.784 -2.452,11.275c-3.566,2.491 -8.258,1.485 -10.47,-2.246c-2.213,-3.732 -1.115,-8.784 2.451,-11.275c3.566,-2.491 8.258,-1.485 10.471,2.246Z" style="fill:#ececec;"/><path d="M44.677,243.371c1.107,1.866 0.557,4.392 -1.226,5.637c-1.783,1.246 -4.129,0.743 -5.235,-1.123c-1.106,-1.866 -0.557,-4.392 1.226,-5.637c1.783,-1.246 4.129,-0.743 5.235,1.123Z" style="fill:#c9c9c9;"/><path d="M42.253,241.63c0.971,0.191 1.859,0.788 2.424,1.741c0.565,0.953 0.698,2.077 0.456,3.116c-0.255,0.544 -0.646,1.028 -1.158,1.385c-1.496,1.045 -3.464,0.623 -4.392,-0.942c-0.928,-1.565 -0.467,-3.684 1.029,-4.729c0.512,-0.358 1.079,-0.544 1.641,-0.571Z" style="fill:#666;"/><path d="M45.088,244.327c0.201,0.706 0.21,1.453 0.045,2.16c-0.255,0.544 -0.646,1.028 -1.158,1.385c-1.496,1.045 -3.464,0.623 -4.392,-0.942c-0.928,-1.565 -0.467,-3.684 1.029,-4.729c0.512,-0.358 1.079,-0.544 1.641,-0.571c0.661,0.13 1.284,0.449 1.793,0.939c-0.915,-0.727 -2.214,-0.796 -3.256,-0.068c-1.337,0.934 -1.749,2.829 -0.92,4.228c0.83,1.399 2.59,1.777 3.927,0.843c1.042,-0.728 1.522,-2.04 1.291,-3.245Z" style="fill:#3f3f3f;"/></g><path d="M40.513,267.312l-13.261,-22.361l-9.018,6.3l13.261,22.362l9.018,-6.301Z" style="fill:#8c8c8c;"/><path d="M41.476,266.639l-13.261,-22.361l-9.019,6.301l13.261,22.361l9.019,-6.301Z" style="fill:#9a9a9a;"/><path d="M33.085,269.532c0.317,0.534 0.351,1.123 0.076,1.315c-0.275,0.192 -0.755,-0.085 -1.071,-0.619c-0.317,-0.534 -0.351,-1.123 -0.076,-1.315c0.275,-0.192 0.755,0.085 1.071,0.619Z" style="fill:#636363;"/><path d="M33.373,269.332c-0.234,-0.395 -0.548,-0.667 -0.828,-0.777c-0.267,-0.105 -0.517,-0.077 -0.709,0.057c-0.193,0.135 -0.32,0.37 -0.342,0.677c-0.024,0.323 0.075,0.745 0.309,1.139c0.233,0.395 0.547,0.667 0.827,0.777c0.267,0.105 0.517,0.077 0.709,-0.057c0.193,-0.135 0.32,-0.37 0.342,-0.677c0.024,-0.323 -0.075,-0.745 -0.308,-1.139Zm-0.288,0.2c0.317,0.534 0.351,1.123 0.076,1.315c-0.275,0.192 -0.755,-0.085 -1.071,-0.619c-0.317,-0.534 -0.351,-1.123 -0.076,-1.315c0.275,-0.192 0.755,0.085 1.071,0.619Z" style="fill:#8c8c8c;"/><path d="M39.498,265.052c0.317,0.534 0.351,1.123 0.076,1.315c-0.275,0.192 -0.755,-0.086 -1.071,-0.619c-0.317,-0.534 -0.351,-1.123 -0.076,-1.315c0.275,-0.192 0.755,0.085 1.071,0.619Z" style="fill:#636363;"/><path d="M39.785,264.851c-0.234,-0.394 -0.547,-0.666 -0.828,-0.777c-0.266,-0.105 -0.516,-0.077 -0.708,0.058c-0.193,0.135 -0.32,0.37 -0.342,0.676c-0.024,0.323 0.075,0.746 0.308,1.14c0.234,0.394 0.548,0.667 0.828,0.777c0.267,0.105 0.516,0.077 0.709,-0.058c0.193,-0.134 0.32,-0.369 0.342,-0.676c0.024,-0.323 -0.075,-0.745 -0.309,-1.14Zm-0.287,0.201c0.317,0.534 0.351,1.123 0.076,1.315c-0.275,0.192 -0.755,-0.086 -1.071,-0.619c-0.317,-0.534 -0.351,-1.123 -0.076,-1.315c0.275,-0.192 0.755,0.085 1.071,0.619Z" style="fill:#8c8c8c;"/><path d="M22.442,251.585c0.317,0.534 0.35,1.123 0.076,1.315c-0.275,0.192 -0.755,-0.086 -1.072,-0.619c-0.316,-0.534 -0.35,-1.123 -0.075,-1.315c0.274,-0.192 0.754,0.085 1.071,0.619Z" style="fill:#636363;"/><path d="M22.729,251.384c-0.234,-0.394 -0.547,-0.666 -0.828,-0.777c-0.266,-0.104 -0.516,-0.076 -0.709,0.058c-0.192,0.135 -0.319,0.37 -0.342,0.677c-0.023,0.323 0.075,0.745 0.309,1.139c0.234,0.395 0.547,0.667 0.828,0.777c0.267,0.105 0.516,0.077 0.709,-0.057c0.193,-0.135 0.319,-0.37 0.342,-0.677c0.024,-0.323 -0.075,-0.745 -0.309,-1.14Zm-0.287,0.201c0.317,0.534 0.35,1.123 0.076,1.315c-0.275,0.192 -0.755,-0.086 -1.072,-0.619c-0.316,-0.534 -0.35,-1.123 -0.075,-1.315c0.274,-0.192 0.754,0.085 1.071,0.619Z" style="fill:#8c8c8c;"/><path d="M28.855,247.105c0.316,0.534 0.35,1.123 0.076,1.315c-0.275,0.192 -0.755,-0.086 -1.072,-0.62c-0.316,-0.533 -0.35,-1.123 -0.076,-1.315c0.275,-0.191 0.755,0.086 1.072,0.62Z" style="fill:#636363;"/><path d="M29.142,246.904c-0.234,-0.394 -0.547,-0.666 -0.828,-0.777c-0.266,-0.105 -0.516,-0.077 -0.709,0.058c-0.192,0.135 -0.319,0.37 -0.342,0.676c-0.023,0.323 0.075,0.746 0.309,1.14c0.234,0.394 0.547,0.667 0.828,0.777c0.266,0.105 0.516,0.077 0.709,-0.058c0.192,-0.134 0.319,-0.369 0.342,-0.676c0.023,-0.323 -0.075,-0.745 -0.309,-1.14Zm-0.287,0.201c0.316,0.534 0.35,1.123 0.076,1.315c-0.275,0.192 -0.755,-0.086 -1.072,-0.62c-0.316,-0.533 -0.35,-1.123 -0.076,-1.315c0.275,-0.191 0.755,0.086 1.072,0.62Z" style="fill:#8c8c8c;"/><path d="M23.544,260.69l19.274,-13.465l-5.542,12.291l-9.034,6.312l-4.698,-5.138Z" style="fill:#8c8c8c;"/><g><path d="M36.238,260.242c1.078,2.137 0.735,4.724 -0.767,5.773c-1.501,1.049 -3.596,0.166 -4.675,-1.972c-1.079,-2.137 -0.735,-4.724 0.766,-5.773c1.502,-1.049 3.597,-0.165 4.676,1.972Z" style="fill:#484848;"/><path d="M36.502,260.083c-1.171,-2.319 -3.468,-3.216 -5.097,-2.078c-1.614,1.127 -2.032,3.901 -0.873,6.197c1.171,2.319 3.468,3.217 5.097,2.078c1.613,-1.127 2.032,-3.901 0.873,-6.197l-0,-0Zm-0.264,0.159c1.078,2.137 0.735,4.724 -0.767,5.773c-1.501,1.049 -3.596,0.166 -4.675,-1.972c-1.079,-2.137 -0.735,-4.724 0.766,-5.773c1.502,-1.049 3.597,-0.165 4.676,1.972Z" style="fill:#8c8c8c;"/><path d="M33.045,265.422c-0.623,-0.43 -1.195,-1.039 -1.646,-1.799c-0.452,-0.761 -0.725,-1.579 -0.828,-2.373c0.008,-0.012 0.017,-0.024 0.028,-0.033c0.501,-0.429 1.341,-1.015 1.908,-1.332c0.042,-0.024 0.096,-0.021 0.146,0.009c0.664,0.401 1.33,0.867 1.957,1.372c0.048,0.038 0.082,0.097 0.095,0.159c0.163,0.829 0.279,1.68 0.339,2.502c0.005,0.062 -0.014,0.117 -0.052,0.149c-0.5,0.429 -1.34,1.015 -1.907,1.332c-0.013,0.007 -0.026,0.012 -0.04,0.014Z" style="fill:#636363;"/><path d="M36.238,260.242c1.078,2.137 0.735,4.724 -0.767,5.773c-1.501,1.049 -3.596,0.166 -4.675,-1.972c-1.079,-2.137 -0.735,-4.724 0.766,-5.773c1.502,-1.049 3.597,-0.165 4.676,1.972Zm-0.792,0.476c0.529,1.048 0.656,2.226 0.395,3.189c-0.148,0.546 -0.424,1.019 -0.842,1.312c-1.12,0.782 -2.607,-0.057 -3.411,-1.652c-0.53,-1.048 -0.657,-2.226 -0.395,-3.188c0.148,-0.547 0.423,-1.02 0.842,-1.312c1.12,-0.783 2.606,0.057 3.411,1.651l0,-0Z" style="fill:#00cddb;"/><path d="M32.276,262.898c0.012,0.062 0.046,0.12 0.094,0.158c0.627,0.505 1.293,0.972 1.957,1.372c0.05,0.03 0.104,0.034 0.147,0.01c0.567,-0.317 1.116,-0.701 1.617,-1.13c0.038,-0.032 0.057,-0.087 0.052,-0.149c-0.06,-0.822 -0.176,-1.673 -0.339,-2.502c-0.013,-0.062 -0.047,-0.12 -0.095,-0.158c-0.627,-0.506 -1.293,-0.972 -1.957,-1.372c-0.05,-0.03 -0.104,-0.034 -0.147,-0.01c-0.566,0.317 -1.116,0.701 -1.617,1.13c-0.038,0.032 -0.057,0.087 -0.052,0.149c0.06,0.822 0.176,1.673 0.34,2.502Z" style="fill:#878787;"/><path d="M32.56,262.718c0.01,0.052 0.039,0.1 0.078,0.132c0.522,0.417 1.077,0.801 1.63,1.131c0.042,0.024 0.087,0.027 0.123,0.007c0.475,-0.266 0.937,-0.589 1.357,-0.948c0.032,-0.027 0.048,-0.073 0.044,-0.124c-0.047,-0.684 -0.14,-1.39 -0.273,-2.079c-0.01,-0.052 -0.039,-0.1 -0.078,-0.132c-0.522,-0.417 -1.077,-0.801 -1.63,-1.131c-0.042,-0.024 -0.087,-0.027 -0.123,-0.007c-0.475,0.266 -0.937,0.589 -1.357,0.948c-0.031,0.027 -0.048,0.073 -0.044,0.124c0.047,0.684 0.14,1.39 0.273,2.079Z" style="fill:#9e9e9e;"/></g><path d="M43.389,247.648c1.249,-0.873 1.634,-2.643 0.859,-3.951c-0.775,-1.307 -2.419,-1.66 -3.669,-0.787l-21.741,15.19c-1.25,0.873 -1.635,2.643 -0.859,3.95c0.775,1.307 2.419,1.66 3.668,0.787l21.742,-15.189Z" style="fill:#9e9e9e;"/><g><path d="M17.712,252.649c3.564,-2.473 8.241,-1.463 10.449,2.261c2.213,3.731 1.114,8.783 -2.452,11.274l-2.486,1.737l-8.019,-13.521l2.487,-1.737l0.021,-0.014Z" style="fill:#c9c9c9;"/><path d="M25.675,256.647c2.213,3.731 1.114,8.783 -2.452,11.274c-3.566,2.492 -8.258,1.485 -10.471,-2.246c-2.212,-3.731 -1.114,-8.783 2.452,-11.275c3.566,-2.491 8.258,-1.485 10.471,2.247Z" style="fill:#ececec;"/><path d="M25.675,256.647c2.213,3.731 1.114,8.783 -2.452,11.274c-3.566,2.492 -8.258,1.485 -10.471,-2.246c-2.212,-3.731 -1.114,-8.783 2.452,-11.275c3.566,-2.491 8.258,-1.485 10.471,2.247Z" style="fill:#ececec;"/><path d="M24.304,257.605c1.945,3.28 1.086,7.646 -1.917,9.744c-3.003,2.098 -7.02,1.138 -8.965,-2.142c-1.945,-3.28 -1.087,-7.646 1.916,-9.744c3.003,-2.098 7.02,-1.138 8.966,2.142Zm-1.451,1.013c1.426,2.406 0.796,5.607 -1.406,7.146c-2.202,1.538 -5.148,0.834 -6.574,-1.571c-1.426,-2.405 -0.797,-5.607 1.405,-7.145c2.202,-1.539 5.148,-0.835 6.575,1.57Z" style="fill:#5cd6de;"/><path d="M22.087,259.153c1.106,1.866 0.557,4.392 -1.226,5.638c-1.783,1.245 -4.129,0.742 -5.235,-1.124c-1.107,-1.865 -0.557,-4.391 1.226,-5.637c1.783,-1.246 4.129,-0.742 5.235,1.123Z" style="fill:#c9c9c9;"/><path d="M19.663,257.412c0.971,0.191 1.859,0.789 2.424,1.741c0.565,0.953 0.698,2.078 0.456,3.116c-0.255,0.544 -0.646,1.028 -1.158,1.385c-1.496,1.045 -3.464,0.623 -4.392,-0.942c-0.928,-1.565 -0.467,-3.684 1.029,-4.729c0.511,-0.358 1.079,-0.544 1.641,-0.571Z" style="fill:#666;"/><path d="M20.629,257.753c0.58,0.305 1.088,0.777 1.458,1.4c0.37,0.624 0.555,1.321 0.57,2.02c-0.009,0.013 -0.02,0.024 -0.032,0.034c-0.551,0.45 -1.146,0.866 -1.752,1.224c-0.045,0.027 -0.099,0.031 -0.146,0.01c-0.624,-0.272 -1.242,-0.604 -1.818,-0.976c-0.043,-0.027 -0.072,-0.075 -0.077,-0.13c-0.073,-0.722 -0.095,-1.47 -0.066,-2.2c0.003,-0.054 0.028,-0.106 0.07,-0.14c0.551,-0.45 1.146,-0.866 1.752,-1.224c0.013,-0.008 0.027,-0.014 0.041,-0.018Z" style="fill:#4b4b4b;"/><path d="M21.439,259.698c-0.006,-0.054 -0.034,-0.102 -0.078,-0.13c-0.575,-0.371 -1.193,-0.703 -1.817,-0.976c-0.047,-0.02 -0.101,-0.016 -0.147,0.011c-0.605,0.358 -1.201,0.774 -1.752,1.224c-0.041,0.034 -0.067,0.085 -0.069,0.14c-0.03,0.73 -0.008,1.478 0.065,2.2c0.006,0.054 0.034,0.102 0.078,0.13c0.575,0.372 1.193,0.703 1.817,0.976c0.047,0.02 0.101,0.017 0.147,-0.01c0.605,-0.358 1.201,-0.775 1.752,-1.224c0.041,-0.034 0.067,-0.086 0.069,-0.141c0.03,-0.729 0.008,-1.477 -0.065,-2.2Z" style="fill:#878787;"/><path d="M21.133,259.896c-0.005,-0.045 -0.028,-0.085 -0.064,-0.108c-0.48,-0.305 -0.995,-0.578 -1.516,-0.802c-0.039,-0.016 -0.084,-0.013 -0.122,0.01c-0.508,0.3 -1.008,0.65 -1.47,1.027c-0.035,0.028 -0.057,0.071 -0.059,0.117c-0.028,0.607 -0.013,1.229 0.045,1.829c0.005,0.045 0.028,0.085 0.064,0.108c0.48,0.306 0.995,0.579 1.516,0.802c0.039,0.017 0.084,0.013 0.122,-0.009c0.508,-0.301 1.008,-0.65 1.47,-1.027c0.035,-0.029 0.057,-0.072 0.059,-0.117c0.028,-0.607 0.013,-1.229 -0.045,-1.83Z" style="fill:#9e9e9e;"/><path d="M22.498,260.109c0.201,0.706 0.21,1.453 0.045,2.16c-0.255,0.544 -0.646,1.028 -1.158,1.385c-1.496,1.045 -3.464,0.623 -4.392,-0.942c-0.928,-1.565 -0.467,-3.684 1.029,-4.729c0.511,-0.358 1.079,-0.544 1.641,-0.571c0.661,0.13 1.284,0.449 1.792,0.94c-0.915,-0.728 -2.213,-0.797 -3.255,-0.069c-1.337,0.935 -1.75,2.829 -0.92,4.228c0.83,1.4 2.59,1.777 3.927,0.843c1.042,-0.728 1.522,-2.039 1.291,-3.245Z" style="fill:#3f3f3f;"/></g></g><g><g><path d="M85.173,312.53c3.55,-2.497 4.64,-7.536 2.432,-11.26c-2.213,-3.731 -6.905,-4.737 -10.471,-2.246l-2.486,1.737l8.018,13.521l2.487,-1.737l0.02,-0.015Z" style="fill:#c9c9c9;"/><path d="M85.118,303.008c-2.213,-3.732 -6.904,-4.738 -10.47,-2.247c-3.566,2.491 -4.665,7.543 -2.452,11.275c2.212,3.731 6.904,4.737 10.47,2.246c3.566,-2.491 4.665,-7.543 2.452,-11.274Z" style="fill:#ececec;"/><path d="M85.118,303.008c-2.213,-3.732 -6.904,-4.738 -10.47,-2.247c-3.566,2.491 -4.665,7.543 -2.452,11.275c2.212,3.731 6.904,4.737 10.47,2.246c3.566,-2.491 4.665,-7.543 2.452,-11.274Z" style="fill:#ececec;"/><path d="M81.53,305.514c-1.106,-1.866 -3.452,-2.369 -5.235,-1.123c-1.783,1.245 -2.332,3.771 -1.226,5.637c1.107,1.866 3.452,2.369 5.235,1.123c1.783,-1.245 2.333,-3.771 1.226,-5.637Z" style="fill:#c9c9c9;"/><path d="M81.986,308.63c0.243,-1.039 0.109,-2.163 -0.456,-3.116c-0.565,-0.953 -1.453,-1.55 -2.424,-1.741c-0.562,0.027 -1.129,0.213 -1.641,0.571c-1.496,1.045 -1.957,3.164 -1.029,4.729c0.929,1.565 2.897,1.987 4.392,0.942c0.512,-0.357 0.903,-0.841 1.158,-1.385Z" style="fill:#666;"/><path d="M80.899,304.712c-0.509,-0.49 -1.132,-0.809 -1.793,-0.939c-0.562,0.027 -1.129,0.213 -1.641,0.571c-1.496,1.045 -1.957,3.164 -1.029,4.729c0.929,1.565 2.897,1.987 4.392,0.942c0.512,-0.357 0.903,-0.841 1.158,-1.385c0.165,-0.707 0.156,-1.455 -0.045,-2.16c0.232,1.205 -0.249,2.517 -1.291,3.245c-1.337,0.934 -3.097,0.556 -3.926,-0.843c-0.83,-1.399 -0.418,-3.294 0.919,-4.228c1.042,-0.728 2.341,-0.659 3.256,0.068Z" style="fill:#3f3f3f;"/></g><path d="M59.729,299.714l13.261,22.361l-9.019,6.3l-13.261,-22.361l9.019,-6.3Z" style="fill:#8c8c8c;"/><path d="M60.691,299.041l13.261,22.361l-9.018,6.301l-13.261,-22.361l9.018,-6.301Z" style="fill:#9a9a9a;"/><path d="M54.791,306.133c-0.317,-0.534 -0.797,-0.812 -1.072,-0.62c-0.274,0.192 -0.24,0.781 0.076,1.315c0.317,0.534 0.797,0.811 1.071,0.619c0.275,-0.191 0.241,-0.781 -0.075,-1.314Z" style="fill:#636363;"/><path d="M55.078,305.932c0.234,0.394 0.332,0.817 0.309,1.14c-0.023,0.306 -0.15,0.541 -0.342,0.676c-0.193,0.135 -0.443,0.163 -0.709,0.058c-0.281,-0.111 -0.594,-0.383 -0.828,-0.777c-0.234,-0.395 -0.332,-0.817 -0.309,-1.14c0.023,-0.307 0.149,-0.542 0.342,-0.676c0.193,-0.135 0.443,-0.163 0.709,-0.058c0.281,0.11 0.594,0.383 0.828,0.777Zm-0.287,0.201c-0.317,-0.534 -0.797,-0.812 -1.072,-0.62c-0.274,0.192 -0.24,0.781 0.076,1.315c0.317,0.534 0.797,0.811 1.071,0.619c0.275,-0.191 0.241,-0.781 -0.075,-1.314Z" style="fill:#8c8c8c;"/><path d="M61.204,301.652c-0.317,-0.533 -0.797,-0.811 -1.072,-0.619c-0.275,0.192 -0.241,0.781 0.076,1.315c0.317,0.534 0.797,0.811 1.071,0.619c0.275,-0.192 0.241,-0.781 -0.075,-1.315Z" style="fill:#636363;"/><path d="M61.491,301.452c0.234,0.394 0.332,0.816 0.308,1.139c-0.022,0.307 -0.149,0.542 -0.341,0.677c-0.193,0.134 -0.443,0.162 -0.709,0.058c-0.281,-0.111 -0.594,-0.383 -0.828,-0.777c-0.234,-0.395 -0.333,-0.817 -0.309,-1.14c0.022,-0.307 0.149,-0.542 0.342,-0.677c0.193,-0.134 0.442,-0.162 0.709,-0.057c0.281,0.11 0.594,0.382 0.828,0.777Zm-0.287,0.2c-0.317,-0.533 -0.797,-0.811 -1.072,-0.619c-0.275,0.192 -0.241,0.781 0.076,1.315c0.317,0.534 0.797,0.811 1.071,0.619c0.275,-0.192 0.241,-0.781 -0.075,-1.315Z" style="fill:#8c8c8c;"/><path d="M65.434,324.08c-0.317,-0.534 -0.797,-0.812 -1.071,-0.62c-0.275,0.192 -0.241,0.781 0.075,1.315c0.317,0.534 0.797,0.812 1.072,0.62c0.275,-0.192 0.241,-0.782 -0.076,-1.315Z" style="fill:#636363;"/><path d="M65.721,323.879c0.234,0.394 0.333,0.817 0.309,1.14c-0.022,0.306 -0.149,0.542 -0.342,0.676c-0.193,0.135 -0.442,0.163 -0.709,0.058c-0.28,-0.111 -0.594,-0.383 -0.828,-0.777c-0.234,-0.394 -0.332,-0.817 -0.308,-1.14c0.022,-0.307 0.149,-0.542 0.341,-0.676c0.193,-0.135 0.443,-0.163 0.709,-0.058c0.281,0.111 0.594,0.383 0.828,0.777Zm-0.287,0.201c-0.317,-0.534 -0.797,-0.812 -1.071,-0.62c-0.275,0.192 -0.241,0.781 0.075,1.315c0.317,0.534 0.797,0.812 1.072,0.62c0.275,-0.192 0.241,-0.782 -0.076,-1.315Z" style="fill:#8c8c8c;"/><path d="M71.847,319.599c-0.317,-0.533 -0.797,-0.811 -1.071,-0.619c-0.275,0.192 -0.241,0.781 0.075,1.315c0.317,0.534 0.797,0.811 1.072,0.619c0.274,-0.192 0.24,-0.781 -0.076,-1.315Z" style="fill:#636363;"/><path d="M72.134,319.399c0.234,0.394 0.332,0.816 0.309,1.14c-0.023,0.306 -0.149,0.541 -0.342,0.676c-0.193,0.135 -0.442,0.163 -0.709,0.058c-0.281,-0.111 -0.594,-0.383 -0.828,-0.777c-0.234,-0.395 -0.332,-0.817 -0.309,-1.14c0.023,-0.307 0.15,-0.542 0.342,-0.676c0.193,-0.135 0.443,-0.163 0.709,-0.058c0.281,0.11 0.594,0.383 0.828,0.777Zm-0.287,0.2c-0.317,-0.533 -0.797,-0.811 -1.071,-0.619c-0.275,0.192 -0.241,0.781 0.075,1.315c0.317,0.534 0.797,0.811 1.072,0.619c0.274,-0.192 0.24,-0.781 -0.076,-1.315Z" style="fill:#8c8c8c;"/><path d="M58.255,319.22l19.273,-13.465l-12.602,0.385l-9.034,6.311l2.363,6.769Z" style="fill:#8c8c8c;"/><g><path d="M63.887,306.865c-1.345,-1.95 -3.657,-2.682 -5.158,-1.633c-1.502,1.049 -1.629,3.484 -0.283,5.435c1.345,1.951 3.657,2.683 5.158,1.634c1.502,-1.049 1.629,-3.485 0.283,-5.436Z" style="fill:#484848;"/><path d="M64.13,306.671c1.46,2.116 1.261,4.757 -0.368,5.895c-1.614,1.128 -4.113,0.392 -5.559,-1.704c-1.46,-2.117 -1.261,-4.757 0.368,-5.896c1.614,-1.127 4.113,-0.392 5.559,1.704l-0,0.001Zm-0.243,0.194c-1.345,-1.95 -3.657,-2.682 -5.158,-1.633c-1.502,1.049 -1.629,3.484 -0.283,5.435c1.345,1.951 3.657,2.683 5.158,1.634c1.502,-1.049 1.629,-3.485 0.283,-5.436Z" style="fill:#8c8c8c;"/><path d="M58.221,307.874c0.103,0.794 0.376,1.611 0.827,2.372c0.451,0.761 1.024,1.37 1.647,1.8c0.014,-0.002 0.027,-0.007 0.039,-0.014c0.567,-0.317 1.407,-0.904 1.908,-1.332c0.037,-0.033 0.057,-0.087 0.052,-0.149c-0.06,-0.822 -0.176,-1.673 -0.34,-2.502c-0.012,-0.063 -0.047,-0.121 -0.094,-0.159c-0.627,-0.505 -1.293,-0.972 -1.957,-1.372c-0.05,-0.03 -0.104,-0.034 -0.147,-0.01c-0.567,0.317 -1.407,0.904 -1.907,1.333c-0.011,0.009 -0.02,0.02 -0.028,0.033Z" style="fill:#636363;"/><path d="M63.887,306.865c-1.345,-1.95 -3.657,-2.682 -5.158,-1.633c-1.502,1.049 -1.629,3.484 -0.283,5.435c1.345,1.951 3.657,2.683 5.158,1.634c1.502,-1.049 1.629,-3.485 0.283,-5.436Zm-0.727,0.585c-0.66,-0.957 -1.595,-1.57 -2.51,-1.71c-0.52,-0.08 -1.031,-0.004 -1.449,0.288c-1.12,0.783 -1.032,2.599 -0.028,4.054c0.66,0.957 1.595,1.571 2.51,1.711c0.52,0.079 1.031,0.004 1.449,-0.288c1.12,-0.783 1.032,-2.6 0.028,-4.055l0,0Z" style="fill:#00cddb;"/><path d="M60.019,309.68c-0.047,-0.038 -0.082,-0.096 -0.094,-0.159c-0.164,-0.829 -0.279,-1.68 -0.34,-2.502c-0.004,-0.061 0.015,-0.116 0.053,-0.148c0.5,-0.429 1.05,-0.814 1.617,-1.131c0.043,-0.023 0.097,-0.02 0.147,0.01c0.664,0.401 1.33,0.867 1.957,1.372c0.047,0.038 0.082,0.097 0.094,0.159c0.164,0.829 0.28,1.68 0.34,2.502c0.005,0.062 -0.015,0.117 -0.052,0.149c-0.501,0.429 -1.051,0.813 -1.618,1.13c-0.042,0.024 -0.096,0.02 -0.146,-0.01c-0.665,-0.4 -1.33,-0.867 -1.958,-1.372Z" style="fill:#878787;"/><path d="M60.288,309.473c-0.04,-0.031 -0.068,-0.079 -0.078,-0.131c-0.134,-0.689 -0.227,-1.396 -0.274,-2.079c-0.003,-0.052 0.013,-0.097 0.045,-0.124c0.42,-0.36 0.882,-0.682 1.357,-0.948c0.036,-0.02 0.081,-0.018 0.122,0.007c0.554,0.33 1.108,0.714 1.631,1.131c0.039,0.031 0.068,0.08 0.078,0.131c0.133,0.689 0.226,1.396 0.273,2.08c0.004,0.051 -0.013,0.097 -0.044,0.124c-0.421,0.359 -0.882,0.681 -1.358,0.948c-0.035,0.02 -0.08,0.017 -0.122,-0.008c-0.554,-0.329 -1.108,-0.714 -1.63,-1.131Z" style="fill:#9e9e9e;"/></g><path d="M77.41,305.016c1.25,-0.873 2.894,-0.52 3.669,0.787c0.775,1.307 0.39,3.077 -0.859,3.95l-21.742,15.19c-1.249,0.873 -2.893,0.52 -3.668,-0.787c-0.776,-1.308 -0.391,-3.078 0.859,-3.951l21.741,-15.189Z" style="fill:#9e9e9e;"/><g><path d="M62.583,328.313c3.55,-2.497 4.64,-7.537 2.431,-11.26c-2.212,-3.732 -6.904,-4.738 -10.47,-2.247l-2.487,1.737l8.019,13.521l2.486,-1.737l0.021,-0.014Z" style="fill:#c9c9c9;"/><path d="M62.528,318.79c-2.213,-3.731 -6.904,-4.738 -10.471,-2.247c-3.566,2.492 -4.664,7.544 -2.451,11.275c2.212,3.731 6.904,4.738 10.47,2.246c3.566,-2.491 4.665,-7.543 2.452,-11.274Z" style="fill:#ececec;"/><path d="M62.528,318.79c-2.213,-3.731 -6.904,-4.738 -10.471,-2.247c-3.566,2.492 -4.664,7.544 -2.451,11.275c2.212,3.731 6.904,4.738 10.47,2.246c3.566,-2.491 4.665,-7.543 2.452,-11.274Z" style="fill:#ececec;"/><path d="M61.157,319.748c-1.945,-3.28 -5.963,-4.24 -8.966,-2.142c-3.002,2.098 -3.861,6.464 -1.916,9.744c1.945,3.28 5.963,4.24 8.966,2.142c3.002,-2.098 3.861,-6.464 1.916,-9.744Zm-1.451,1.014c-1.427,-2.406 -4.373,-3.11 -6.574,-1.571c-2.202,1.538 -2.832,4.74 -1.406,7.145c1.427,2.405 4.372,3.109 6.574,1.571c2.202,-1.538 2.832,-4.74 1.406,-7.145Z" style="fill:#5cd6de;"/><path d="M58.94,321.296c-1.106,-1.865 -3.452,-2.369 -5.235,-1.123c-1.783,1.246 -2.332,3.772 -1.226,5.637c1.106,1.866 3.452,2.369 5.235,1.124c1.783,-1.246 2.333,-3.772 1.226,-5.638Z" style="fill:#c9c9c9;"/><path d="M59.396,324.412c0.242,-1.038 0.109,-2.163 -0.456,-3.116c-0.565,-0.952 -1.453,-1.55 -2.424,-1.741c-0.562,0.027 -1.129,0.213 -1.641,0.571c-1.496,1.045 -1.957,3.164 -1.029,4.729c0.928,1.565 2.896,1.987 4.392,0.942c0.512,-0.357 0.903,-0.841 1.158,-1.385Z" style="fill:#666;"/><path d="M59.51,323.316c-0.015,-0.699 -0.2,-1.396 -0.57,-2.02c-0.37,-0.623 -0.878,-1.095 -1.458,-1.4c-0.014,0.004 -0.028,0.01 -0.041,0.018c-0.605,0.358 -1.201,0.774 -1.752,1.224c-0.042,0.034 -0.067,0.086 -0.069,0.14c-0.03,0.73 -0.008,1.478 0.065,2.2c0.006,0.055 0.034,0.103 0.077,0.13c0.576,0.372 1.194,0.704 1.818,0.976c0.047,0.021 0.101,0.017 0.146,-0.01c0.606,-0.358 1.202,-0.774 1.753,-1.224c0.012,-0.01 0.022,-0.021 0.031,-0.034Z" style="fill:#4b4b4b;"/><path d="M58.215,321.711c0.043,0.028 0.071,0.076 0.077,0.13c0.073,0.723 0.095,1.471 0.065,2.2c-0.002,0.055 -0.027,0.107 -0.069,0.141c-0.551,0.449 -1.147,0.866 -1.752,1.224c-0.046,0.027 -0.099,0.03 -0.146,0.01c-0.625,-0.273 -1.243,-0.604 -1.818,-0.976c-0.043,-0.028 -0.072,-0.076 -0.077,-0.13c-0.073,-0.722 -0.096,-1.47 -0.066,-2.2c0.002,-0.055 0.028,-0.106 0.069,-0.14c0.551,-0.45 1.147,-0.866 1.753,-1.224c0.045,-0.027 0.099,-0.031 0.146,-0.011c0.624,0.273 1.242,0.605 1.818,0.976Z" style="fill:#878787;"/><path d="M57.922,321.931c0.036,0.023 0.059,0.063 0.064,0.108c0.058,0.601 0.073,1.223 0.045,1.83c-0.002,0.045 -0.024,0.088 -0.058,0.117c-0.463,0.377 -0.963,0.726 -1.471,1.027c-0.038,0.022 -0.083,0.026 -0.122,0.009c-0.521,-0.223 -1.036,-0.496 -1.515,-0.802c-0.036,-0.023 -0.06,-0.063 -0.064,-0.108c-0.058,-0.6 -0.074,-1.222 -0.045,-1.829c0.002,-0.046 0.023,-0.089 0.058,-0.117c0.463,-0.377 0.962,-0.726 1.47,-1.027c0.038,-0.023 0.083,-0.026 0.123,-0.01c0.52,0.224 1.035,0.497 1.515,0.802Z" style="fill:#9e9e9e;"/><path d="M58.309,320.495c-0.509,-0.491 -1.132,-0.81 -1.793,-0.94c-0.562,0.027 -1.129,0.213 -1.641,0.571c-1.496,1.045 -1.957,3.164 -1.029,4.729c0.928,1.565 2.896,1.987 4.392,0.942c0.512,-0.357 0.903,-0.841 1.158,-1.385c0.165,-0.707 0.156,-1.454 -0.045,-2.16c0.231,1.206 -0.249,2.517 -1.291,3.245c-1.337,0.934 -3.097,0.557 -3.927,-0.843c-0.829,-1.399 -0.417,-3.293 0.92,-4.228c1.042,-0.728 2.341,-0.659 3.256,0.069Z" style="fill:#3f3f3f;"/></g></g></g></svg>