<?xml version="1.0" encoding="UTF-8" standalone="no"?><!DOCTYPE svg PUBLIC "-//W3C//DTD SVG 1.1//EN" "http://www.w3.org/Graphics/SVG/1.1/DTD/svg11.dtd"><svg width="100%" height="100%" viewBox="0 0 1250 1438" version="1.1" xmlns="http://www.w3.org/2000/svg" xmlns:xlink="http://www.w3.org/1999/xlink" xml:space="preserve" xmlns:serif="http://www.serif.com/" style="fill-rule:evenodd;clip-rule:evenodd;stroke-linejoin:round;stroke-miterlimit:2;"><g id="Pirate"><g><path d="M209.814,1070.42l-49.184,15.324l15.325,49.185l49.184,-15.325l-15.325,-49.184Z" style="fill:#7a4622;"/><path d="M162.062,1003.85c21.891,-6.821 45.201,5.414 52.021,27.305c6.821,21.891 -5.414,45.201 -27.305,52.021c-21.891,6.821 -45.201,-5.414 -52.021,-27.305c-6.821,-21.891 5.414,-45.201 27.305,-52.021Z" style="fill:#e99800;"/><path d="M209.135,1020.68c2.084,3.169 3.765,6.677 4.948,10.477c6.821,21.891 -5.414,45.201 -27.305,52.021c-21.891,6.821 -45.201,-5.414 -52.021,-27.305c-1.184,-3.799 -1.794,-7.642 -1.879,-11.433c9.922,15.087 28.982,22.465 47.073,16.828c18.092,-5.637 29.588,-22.535 29.184,-40.588Z" style="fill:#d08802;"/><path d="M221.476,1060.22c-1.03,-3.304 -4.548,-5.15 -7.851,-4.121l-64.323,20.041c-3.304,1.03 -5.15,4.547 -4.121,7.851l3.73,11.972c1.029,3.303 4.547,5.15 7.851,4.12l64.323,-20.041c3.303,-1.029 5.15,-4.547 4.121,-7.851l-3.73,-11.971Z" style="fill:#ac6231;"/><path d="M338.598,1123.35c25.424,19.648 45.281,47.014 55.556,79.991c26.636,85.491 -21.146,176.523 -106.636,203.16c-85.49,26.636 -176.523,-21.146 -203.159,-106.636c-26.637,-85.49 21.145,-176.523 106.635,-203.159c44.883,-13.985 91.294,-7.457 129.112,14.271l-6.529,13.192l16.276,-7.127c0.221,0.149 0.441,0.297 0.661,0.447l-0.805,10.238l8.889,-4.377Zm-107.295,280.641l10.776,2.137l-4.655,-20.747l-6.121,18.61Z" style="fill:#f1cf65;"/><path d="M142.457,1286.44l-44.025,13.717c-2.351,0.732 -4.854,-0.582 -5.586,-2.932c-0.733,-2.351 0.581,-4.854 2.932,-5.587l44.025,-13.717l5.466,-2.63c-3.429,-13.563 -3.796,-27.261 -1.506,-40.317l-50.727,-11.427c-2.402,-0.541 -3.912,-2.93 -3.371,-5.332c0.541,-2.402 2.93,-3.913 5.332,-3.372l50.711,11.423c1.825,-6.704 4.361,-13.181 7.549,-19.32c0.053,-0.13 0.113,-0.258 0.179,-0.384c0.067,-0.127 0.139,-0.249 0.215,-0.367c3.115,-5.872 6.83,-11.427 11.092,-16.564l-38.074,-35.128c-1.81,-1.669 -1.924,-4.494 -0.254,-6.304c1.669,-1.809 4.494,-1.923 6.304,-0.253l38.032,35.088c9.553,-9.567 21.234,-17.252 34.613,-22.234l-0.311,-1.977l-14.736,-47.297c-0.733,-2.351 0.581,-4.854 2.932,-5.587c2.351,-0.732 4.854,0.582 5.586,2.932l12.977,41.649c0.401,0.371 0.739,0.821 0.988,1.339l2.772,5.761c13.49,-3.411 27.111,-3.792 40.104,-1.543l11.251,-49.947c0.541,-2.402 2.93,-3.913 5.332,-3.372c2.402,0.541 3.913,2.931 3.372,5.333l-11.243,49.911c6.778,1.829 13.327,4.385 19.529,7.606c0.13,0.053 0.258,0.113 0.385,0.179c0.126,0.067 0.249,0.138 0.366,0.215c5.936,3.149 11.548,6.911 16.732,11.231l34.57,-37.471c1.67,-1.81 4.495,-1.923 6.304,-0.254c1.81,1.67 1.924,4.494 0.254,6.304l-34.545,37.443c9.495,9.525 17.125,21.153 22.08,34.46l5.992,-0.94l42.893,-13.365c2.351,-0.732 4.854,0.582 5.586,2.932c0.733,2.351 -0.581,4.854 -2.932,5.587l-42.893,13.364l-5.465,2.63c3.48,13.766 3.805,27.67 1.401,40.902l49.699,11.195c2.402,0.541 3.913,2.931 3.371,5.332c-0.541,2.402 -2.93,3.913 -5.332,3.372l-49.736,-11.203c-1.812,6.5 -4.294,12.784 -7.392,18.747c-0.053,0.13 -0.112,0.258 -0.179,0.385c-0.066,0.126 -0.138,0.248 -0.215,0.366c-3.275,6.174 -7.213,11.997 -11.753,17.352l37.604,34.693c1.809,1.669 1.923,4.494 0.253,6.304c-1.669,1.809 -4.494,1.923 -6.303,0.254l-37.631,-34.718c-9.415,9.231 -20.843,16.655 -33.882,21.51l0.991,6.315c0.089,0.568 0.066,1.131 -0.053,1.664l12.976,41.649c0.733,2.35 -0.581,4.853 -2.932,5.586c-2.35,0.732 -4.854,-0.582 -5.586,-2.932l-14.737,-47.298l-0.867,-1.803c-13.841,3.499 -27.82,3.809 -41.116,1.361l-11.371,50.481c-0.542,2.402 -2.931,3.913 -5.333,3.372c-2.402,-0.541 -3.913,-2.93 -3.372,-5.332l11.384,-50.538c-6.425,-1.807 -12.638,-4.269 -18.538,-7.333c-0.129,-0.053 -0.258,-0.113 -0.384,-0.179c-0.127,-0.066 -0.249,-0.138 -0.367,-0.215c-6.11,-3.241 -11.877,-7.132 -17.186,-11.613l-35.248,38.206c-1.67,1.81 -4.495,1.923 -6.304,0.254c-1.81,-1.67 -1.924,-4.494 -0.254,-6.304l35.259,-38.218c-9.301,-9.445 -16.78,-20.926 -21.662,-34.037l-5.992,0.94Zm176.678,2.056c7.955,-17.21 10.412,-37.024 5.886,-56.617l-59.346,28.557l53.46,28.06Zm-47.4,44.904c18.695,-7.404 33.607,-20.681 43.253,-37.004l-53.459,-28.06l10.206,65.064Zm-64.957,-163.585c-18.696,7.404 -33.608,20.68 -43.253,37.003l53.459,28.06l-10.206,-65.063Zm114.271,49.314c-7.404,-18.696 -20.681,-33.608 -37.004,-43.254l-28.06,53.46l65.064,-10.206Zm-161.671,-4.411c-7.956,17.211 -10.413,37.025 -5.887,56.617l59.346,-28.557l-53.459,-28.06Zm96.456,40.552l52.048,-25.045l-57.063,8.951l-5.539,10.554l10.554,5.54Zm20.311,-83.541c-17.21,-7.956 -37.024,-10.413 -56.617,-5.887l28.557,59.346l28.06,-53.459Zm-53.466,76.215l-52.048,25.045l57.062,-8.951l5.54,-10.554l-10.554,-5.54Zm12.914,20.241l25.045,52.048l-8.951,-57.063l-10.554,-5.539l-5.54,10.554Zm-33.225,63.3c17.21,7.956 37.024,10.413 56.616,5.887l-28.556,-59.346l-28.06,53.459Zm40.551,-96.455l-25.045,-52.048l8.951,57.062l10.555,5.54l5.539,-10.554Zm-85.455,49.056c7.404,18.695 20.68,33.607 37.003,43.253l28.06,-53.459l-65.063,10.206Z" style="fill:#d0b14d;"/><g><path d="M243.465,1271.75c-6.254,1.238 -12.996,-0.424 -18.036,-5.074c-5.041,-4.65 -7.239,-11.236 -6.508,-17.57l-46.464,-55.701c-0.883,-1.058 -0.844,-2.606 0.09,-3.619c0.934,-1.013 2.474,-1.176 3.6,-0.381l59.256,41.836c6.255,-1.238 12.996,0.424 18.037,5.074c5.04,4.651 7.239,11.236 6.507,17.57l45.871,54.989c0.922,1.105 0.881,2.722 -0.094,3.78c-0.976,1.057 -2.584,1.227 -3.76,0.398l-58.499,-41.302Z" style="fill:#fff;"/><path d="M290.928,1291.02l14.89,17.85c0.922,1.105 0.881,2.722 -0.094,3.78c-0.976,1.057 -2.584,1.227 -3.76,0.398l-18.989,-13.407l7.953,-8.621Zm-102.988,-79.057l-15.483,-18.562c-0.883,-1.058 -0.844,-2.606 0.09,-3.619c0.934,-1.013 2.474,-1.176 3.6,-0.381l19.747,13.941l-7.954,8.621Z" style="fill:#e21;"/><path d="M228.591,1241.49c5.521,-5.985 14.863,-6.361 20.847,-0.84c5.985,5.522 6.361,14.863 0.839,20.847c-5.521,5.985 -14.862,6.361 -20.847,0.84c-5.984,-5.521 -6.36,-14.863 -0.839,-20.847Z" style="fill:#a2a2a2;"/><path d="M231.338,1244.03c4.123,-4.468 11.097,-4.749 15.566,-0.627c4.468,4.123 4.749,11.098 0.626,15.566c-4.122,4.469 -11.097,4.749 -15.565,0.627c-4.469,-4.123 -4.75,-11.097 -0.627,-15.566Z" style="fill:#c2c2c2;"/></g><path d="M200.518,1127.28c68.62,-21.38 141.69,16.973 163.07,85.594c21.38,68.62 -16.973,141.69 -85.593,163.07c-68.621,21.38 -141.69,-16.973 -163.071,-85.593c-21.38,-68.621 16.973,-141.69 85.594,-163.071Z" style="fill:#c7c7c7;fill-opacity:0.25;"/><path d="M113.768,1286.42l26.474,-119.396c7.839,-9.199 17.004,-17.364 27.32,-24.164l-39.245,176.994c-5.559,-9.042 -10.092,-18.915 -13.393,-29.509c-0.407,-1.307 -0.792,-2.615 -1.156,-3.925Zm31.74,55.592l46.998,-211.957c2.622,-1.005 5.293,-1.934 8.012,-2.781c27.8,-8.662 56.331,-7.519 81.859,1.468l-55.982,252.474c-30.759,-3.078 -59.506,-17.083 -80.887,-39.204Zm127.425,35.393l50.016,-225.564c18.51,15.489 32.932,36.292 40.639,61.027c21.38,68.62 -16.973,141.69 -85.593,163.07c-1.685,0.525 -3.372,1.014 -5.062,1.467Z" style="fill:#fff;fill-opacity:0.25;"/><path d="M338.598,1123.35c25.424,19.648 45.281,47.014 55.556,79.991c26.636,85.491 -21.146,176.523 -106.636,203.16c-85.49,26.636 -176.523,-21.146 -203.159,-106.636c-26.637,-85.49 21.145,-176.523 106.635,-203.159c44.883,-13.985 91.294,-7.457 129.112,14.271l-6.529,13.192l16.276,-7.127c0.221,0.149 0.441,0.297 0.661,0.447l-0.805,10.238l8.889,-4.377Zm-138.08,3.921c-68.621,21.381 -106.974,94.45 -85.594,163.071c21.381,68.62 94.45,106.973 163.071,85.593c68.62,-21.38 106.973,-94.45 85.593,-163.07c-21.38,-68.621 -94.45,-106.974 -163.07,-85.594Z" style="fill:#ac6231;"/><path d="M392.264,1197.65c0.662,1.881 1.292,3.781 1.89,5.699c26.636,85.491 -21.146,176.523 -106.636,203.16c-85.49,26.636 -176.523,-21.146 -203.159,-106.636c-0.598,-1.919 -1.158,-3.84 -1.682,-5.764c28.83,81.899 117.698,126.976 201.27,100.937c83.571,-26.038 131.108,-113.615 108.317,-197.396Zm-30.592,9.532c-23.552,-65.03 -94.454,-100.684 -161.154,-79.903c-66.7,20.782 -104.803,90.4 -87.249,157.299c-0.678,-1.873 -1.317,-3.77 -1.916,-5.691c-21.38,-68.621 16.973,-141.69 85.593,-163.07c68.621,-21.381 141.69,16.973 163.071,85.593c0.598,1.921 1.15,3.845 1.655,5.772Z" style="fill:#7a4622;"/></g></g><g id="miner"></g></svg>