<?xml version="1.0" encoding="UTF-8" standalone="no"?><!DOCTYPE svg PUBLIC "-//W3C//DTD SVG 1.1//EN" "http://www.w3.org/Graphics/SVG/1.1/DTD/svg11.dtd"><svg width="100%" height="100%" viewBox="0 0 1250 1438" version="1.1" xmlns="http://www.w3.org/2000/svg" xmlns:xlink="http://www.w3.org/1999/xlink" xml:space="preserve" xmlns:serif="http://www.serif.com/" style="fill-rule:evenodd;clip-rule:evenodd;stroke-linejoin:round;stroke-miterlimit:2;"><g id="Graduation"><g id="ItemGraduation"><g><path d="M164.727,976.318c-21.119,-31.558 -173.193,12.995 -155.212,47.224l125.424,211.59l64.24,-0.047l-34.452,-258.767Z" style="fill:#dfd86f;"/><path d="M134.939,1235.13c9.316,51.76 21.084,102.176 43.226,146.778c25.719,51.808 146.293,12.332 119.483,-26.949c-32.055,-46.967 -69.704,-77.208 -98.469,-119.876l-64.24,0.047" style="fill:#fffbc3;"/><path d="M117.04,982.931c13.346,39.338 -93.727,62.637 -107.525,40.611l125.424,211.59l64.24,-0.047l-82.139,-252.154Z" style="fill:#f8f192;"/><path d="M164.727,976.318c0.155,40.377 -62.234,48.058 -118.395,38.957c31.434,82.776 62.137,150.957 90.611,219.856l62.236,-0.046l-34.452,-258.767Z" style="fill:#fffbc3;"/><path d="M149.093,1301.37c-5.611,-21.582 -10.113,-43.782 -14.154,-66.235l-10.243,-17.28c24.555,10.371 54.693,4.661 70.932,-9.435l3.551,26.668c14.583,21.632 31.45,40.07 48.714,59.112c-4.289,5.854 -8.917,10.307 -14.578,13.358c-12.918,6.962 -16.934,-2.768 -20.211,-13.884l-4.713,1.572c1.896,7.11 6.324,14.173 6.512,18.861c0.262,6.549 -4.584,13.456 -10.329,15.942c-6.163,2.666 -13.84,4.87 -20.657,6.736c-24.097,6.594 -25.206,-14.639 -26.27,-35.926l-8.554,0.511Z" style="fill:#79753e;fill-opacity:0.25;"/></g><g><path d="M194.154,1197.34c0.222,0.072 0.442,0.145 0.661,0.22c13.297,4.516 21.249,13.372 20.902,25.481c-0.41,14.249 -12.939,25.582 -30.795,30.601c-13.558,3.81 -29.89,4.182 -43.254,0.731c-10.099,-2.608 -18.533,-7.45 -23.715,-14.095c-4.844,-6.213 -6.166,-12.146 -5.482,-17.44c0.63,-4.878 3.054,-9.466 7.208,-13.45l9.33,15.741c4.184,7.425 15.852,10.909 17.297,11.282c10.381,2.681 23.065,2.332 33.597,-0.628c0.766,-0.215 1.52,-0.444 2.26,-0.686c4.362,-1.425 8.24,-3.324 11.137,-5.804c1.188,-1.018 2.204,-2.126 2.897,-3.362c0.585,-1.042 0.941,-2.176 0.976,-3.422c0.081,-0.022 0.186,-0.069 0.313,-0.14l-3.332,-25.029Z" style="fill:#b4000f;"/><path d="M199.473,1242.76c4.002,0.883 6.545,3.95 9.071,6.951c9.309,11.059 5.666,27.316 7.888,40.606c1.067,6.376 3.076,14.675 11.687,12.026c1.436,-0.442 2.82,-1.126 4.065,-1.97c3.924,-2.659 7.059,-6.177 10.175,-9.705c3.814,-4.318 8.525,-9.048 9.561,-15.008c1.499,-8.63 -3.514,-17.922 -9.085,-24.12c-3.994,-4.442 -9.036,-8.081 -14.116,-11.172c-7.027,-4.274 -14.279,-8.693 -22.317,-10.746c-2.776,-0.709 -6.462,-1.906 -9.072,-0.124c-1.926,1.315 3.175,11.318 2.143,13.262Z" style="fill:#b4000f;"/><path d="M180.718,1242.95c-9.771,5.131 -13.284,17.382 -14.919,27.581c-2.162,13.496 -2.003,27.024 -0.246,40.533c0.764,5.876 1.333,12.936 6.674,16.627c4.106,2.837 9.34,1.281 13.865,0.426c3.956,-0.747 8.663,-1.008 12.188,-3.19c5.371,-3.324 9.484,-11.871 8.66,-18.092c-0.376,-2.838 -1.768,-5.55 -3.163,-8.006c-5.074,-8.943 -11.913,-16.944 -16.717,-26.02c-2.396,-4.525 -3.786,-9.472 -4.046,-14.583c-0.125,-2.47 1.016,-6.122 0.124,-8.464c-0.873,-2.292 -0.727,-5.141 -2.42,-6.812Z" style="fill:#b4000f;"/><path d="M171.908,1261.85c-0.427,4.502 -1.345,9.028 -1.221,13.566c0.127,4.646 0.825,9.149 1.613,13.717c0.934,5.415 1.989,10.835 3.705,16.062c1.674,5.097 4.611,10.935 4.443,16.435c-0.072,2.386 -2.671,3.247 -4.709,2.664c-1.398,-0.399 -2.435,-1.472 -3.169,-2.68c-2.261,-3.719 -2.718,-8.583 -3.403,-12.773c-1.854,-11.33 -1.052,-23.141 -1.052,-34.575c-0.001,-3.489 0.071,-6.974 0.029,-10.462c-0.016,-1.259 -0.405,-3.393 0.196,-4.562c0.507,-0.985 2.553,1.849 3.568,2.608Z" style="fill:#73000a;"/><path d="M217.085,1248.34c2.504,6.093 4.819,12.285 6.545,18.646c1.136,4.191 1.665,8.405 2.213,12.696c0.638,4.988 1.735,10.773 0.504,15.72c-1.019,4.091 -5.21,3.366 -6.243,-0.348c-3.183,-11.446 -0.259,-24.483 -3.319,-36.009c-1.369,-5.157 -2.462,-7.221 -5.545,-11.316c-0.409,-0.543 5.505,1.072 5.845,0.611Z" style="fill:#73000a;"/><path d="M197.035,1228.14c6.138,-11.408 11.702,-22.574 21.114,-31.72c5.694,-5.533 12.357,-10.441 19.303,-14.293c1.59,-0.882 3.263,-1.692 4.935,-2.407c5.863,-2.506 16.758,-6.715 23.102,-2.911c6.401,3.839 6.243,13.805 6.731,20.306c0.253,3.361 0.271,6.733 0.334,10.1c0.248,13.379 -1.271,33.979 -14.338,42.158c-4.909,3.072 -12.054,2.332 -17.543,2.051c-9.754,-0.5 -19.379,-1.36 -29.111,-2.277c-4.539,-0.428 -10.21,-1.693 -14.634,-0.404l0.107,-20.603Zm-23.089,3.61l16.572,12.242c-3.681,2.773 -6.06,8.074 -8.433,11.967c-5.088,8.346 -10.158,16.573 -15.594,24.687c-3.06,4.566 -6.742,10.734 -12.14,12.828c-14.372,5.576 -31.787,-5.532 -42.358,-13.737c-2.66,-2.064 -5.351,-4.097 -7.892,-6.31c-4.917,-4.281 -12.997,-10.118 -12.243,-17.543c0.748,-7.36 10.64,-13.571 16.156,-16.769c1.573,-0.912 3.223,-1.768 4.881,-2.514c7.243,-3.26 15.162,-5.662 23.003,-6.914c12.959,-2.068 25.235,0.155 38.048,2.063Z" style="fill:#dd2231;"/><path d="M272.538,1206.34c0.005,0.293 0.01,0.586 0.016,0.88c0.248,13.379 -1.271,33.979 -14.338,42.158c-4.909,3.072 -12.054,2.332 -17.543,2.051c-9.754,-0.5 -19.379,-1.36 -29.111,-2.277c-4.539,-0.428 -10.21,-1.693 -14.634,-0.404l0.033,-6.476c4.42,-1.274 10.073,-0.013 14.601,0.414c9.732,0.917 19.357,1.777 29.111,2.276c5.489,0.281 12.634,1.022 17.543,-2.051c11.355,-7.107 13.99,-23.594 14.322,-36.571Zm-85.58,35.027l3.56,2.63c-3.681,2.773 -6.06,8.074 -8.433,11.967c-5.088,8.346 -10.158,16.573 -15.594,24.687c-3.06,4.566 -6.742,10.734 -12.14,12.828c-14.372,5.576 -31.787,-5.532 -42.358,-13.737c-2.66,-2.064 -5.351,-4.097 -7.892,-6.31c-4.917,-4.281 -12.997,-10.118 -12.243,-17.543c0.077,-0.755 0.25,-1.497 0.504,-2.225c1.83,5.443 7.8,9.871 11.739,13.301c2.541,2.213 5.232,4.246 7.892,6.311c10.571,8.204 27.986,19.313 42.358,13.737c5.398,-2.094 9.08,-8.262 12.14,-12.829c5.436,-8.113 10.506,-16.34 15.594,-24.686c1.511,-2.479 3.024,-5.527 4.873,-8.131Z" style="fill:#b2202c;"/><path d="M204.366,1224.51c-1.672,-4.604 -6.766,-6.984 -11.37,-5.313l-16.682,6.056c-4.604,1.671 -6.984,6.765 -5.313,11.369l6.229,17.159c1.671,4.603 6.765,6.984 11.369,5.313l16.682,-6.056c4.604,-1.671 6.985,-6.766 5.313,-11.369l-6.228,-17.159Z" style="fill:#f80f22;"/><path d="M172.537,1227.9c-0.267,1.488 -0.157,3.063 0.395,4.585l6.229,17.159c1.671,4.604 6.766,6.984 11.369,5.313l16.683,-6.056c1.525,-0.553 2.806,-1.483 3.777,-2.645c-0.541,3.012 -2.627,5.665 -5.709,6.784l-16.682,6.056c-4.604,1.671 -9.698,-0.71 -11.369,-5.313l-6.229,-17.159c-1.118,-3.079 -0.423,-6.377 1.536,-8.724Z" style="fill:#c10010;"/></g></g></g></svg>