<?xml version="1.0" encoding="UTF-8" standalone="no"?>
<!DOCTYPE svg PUBLIC "-//W3C//DTD SVG 1.1//EN" "http://www.w3.org/Graphics/SVG/1.1/DTD/svg11.dtd">
<svg width="100%" height="100%" viewBox="0 0 300 345" version="1.1" xmlns="http://www.w3.org/2000/svg" xmlns:xlink="http://www.w3.org/1999/xlink" xml:space="preserve" xmlns:serif="http://www.serif.com/" style="fill-rule:evenodd;clip-rule:evenodd;stroke-linejoin:round;stroke-miterlimit:2;">
    <g id="avatar_item_37" transform="matrix(2.40471,0,0,2.40471,-550.1,200.808)">
        <g>
            <g transform="matrix(0.403964,0.0987159,-0.0987159,0.403964,257.843,-84.5312)">
                <ellipse cx="56.312" cy="298.491" rx="51.485" ry="36.951" style="fill:#9de2ea;"/>
            </g>
            <g transform="matrix(0.403964,0.0987159,-0.0987159,0.403964,258.409,-85.8964)">
                <ellipse cx="56.312" cy="298.491" rx="51.485" ry="36.951" style="fill:#e5fdff;"/>
            </g>
            <g transform="matrix(0.403964,0.0987159,-0.0987159,0.403964,258.409,-85.8964)">
                <path d="M56.312,261.539C84.727,261.539 107.796,278.097 107.796,298.491C107.796,318.885 84.727,335.442 56.312,335.442C27.896,335.442 4.827,318.885 4.827,298.491C4.827,278.097 27.896,261.539 56.312,261.539ZM56.312,269.092C71.163,269.092 84.411,274.08 92.574,282.071C97.297,286.694 100.244,292.324 100.244,298.491C100.244,304.657 97.297,310.288 92.574,314.911C84.411,322.901 71.163,327.89 56.312,327.89C41.461,327.89 28.212,322.901 20.049,314.911C15.326,310.288 12.379,304.657 12.379,298.491C12.379,292.324 15.326,286.694 20.049,282.071C28.212,274.08 41.461,269.092 56.312,269.092L56.312,269.092Z" style="fill:#c6fbff;"/>
            </g>
            <g transform="matrix(0.415851,0,0,0.415851,228.759,-83.5064)">
                <path d="M105.16,309.79L105.158,309.8C104.684,311.74 104.004,313.591 103.137,315.346C103.067,315.552 102.995,315.756 102.92,315.961L79.344,336.165C77.126,336.865 74.808,337.432 72.41,337.857L105.16,309.79ZM91.555,275.657C96.961,280.391 101.057,285.858 103.467,291.619L49.658,337.732C48.117,337.462 46.566,337.137 45.011,336.757C38.812,335.242 33.072,332.979 27.957,330.158L91.555,275.657ZM77.962,266.723C81.457,268.422 84.701,270.375 87.649,272.531L23.531,327.478C20.398,325.399 17.557,323.099 15.056,320.631L77.962,266.723ZM52.35,259.841C53.809,259.95 55.28,260.107 56.76,260.313L4.725,304.905C4.331,303.777 4.002,302.641 3.741,301.498L52.35,259.841Z" style="fill:#fff;fill-opacity:0.5;"/>
            </g>
            <g transform="matrix(0.403964,0.0987159,-0.0987159,0.403964,258.409,-85.8964)">
                <path d="M56.312,269.092C71.163,269.092 84.411,274.08 92.574,282.071C97.297,286.694 100.244,292.324 100.244,298.491C100.244,304.657 97.297,310.288 92.574,314.911C84.411,322.901 71.163,327.89 56.312,327.89C41.461,327.89 28.212,322.901 20.049,314.911C15.326,310.288 12.379,304.657 12.379,298.491C12.379,292.324 15.326,286.694 20.049,282.071C28.212,274.08 41.461,269.092 56.312,269.092L56.312,269.092ZM56.668,270.549C56.551,270.577 56.432,270.592 56.312,270.592C70.726,270.592 83.602,275.387 91.525,283.143C95.945,287.469 98.744,292.72 98.744,298.491C98.744,304.262 95.945,309.512 91.525,313.839C83.602,321.595 70.726,326.39 56.312,326.39C41.897,326.39 29.022,321.595 21.098,313.839C16.678,309.512 13.879,304.262 13.879,298.491C13.879,292.72 16.678,287.469 21.098,283.143C29.022,275.387 41.897,270.592 56.312,270.592L56.668,270.549C56.668,270.549 56.312,270.592 56.312,270.592C56.312,270.592 56.668,270.549 56.668,270.549Z" style="fill:#9de2ea;"/>
            </g>
        </g>
        <g>
            <g transform="matrix(0.415851,0,0,0.415851,228.581,-83.3682)">
                <path d="M54.292,323.484C53.871,323.054 54.114,322.784 54.532,322.657C54.95,322.53 55.541,322.545 55.817,322.684C57.061,323.311 55.683,324.904 54.292,323.484ZM65.836,319.686C64.934,319.46 64.587,318.442 65.322,317.78C65.855,317.301 66.81,317.251 67.467,317.453C68.327,317.718 69.818,319.223 68.616,319.991C67.934,320.427 66.543,319.878 65.836,319.686ZM67.378,315.299C67.218,315.242 66.959,315.08 66.812,314.994C66.002,314.523 67.145,314.123 67.621,314.262C68.71,314.579 68.327,315.467 67.378,315.299ZM50.506,314.895C49.402,314.885 48.337,313.68 48.994,312.592C49.297,312.09 49.935,311.812 50.49,311.714C52.321,311.39 53.039,314.918 50.506,314.895ZM38.185,311.806C37.485,311.483 37.479,311.043 37.775,310.728C38.07,310.413 38.667,310.222 39.172,310.396C40.512,310.86 39.706,312.508 38.185,311.806ZM20.752,299.037C20.483,298.987 20.058,298.946 19.856,298.73C19.285,298.117 20.707,297.644 21.095,297.675C21.592,297.715 22.689,298.495 21.896,298.948C21.703,299.058 20.968,299.02 20.752,299.037ZM85.932,293.212C85.628,293.107 85.285,292.957 85.132,292.65C84.817,292.018 85.72,291.722 86.175,291.767C87.363,291.884 87.538,293.765 85.932,293.212ZM81.757,289.197C81.094,288.629 80.911,287.488 81.781,287.088C82.329,286.836 83.076,286.965 83.597,287.238C83.844,287.368 84.067,287.545 84.268,287.738C84.904,288.348 84.919,289.316 83.976,289.623C83.524,289.77 82.628,289.944 81.757,289.197Z" style="fill:#25211d;fill-opacity:0.25;"/>
            </g>
            <g transform="matrix(0.415851,0,0,0.415851,228.759,-83.5064)">
                <path d="M54.292,323.484C53.871,323.054 54.114,322.784 54.532,322.657C54.95,322.53 55.541,322.545 55.817,322.684C57.061,323.311 55.683,324.904 54.292,323.484ZM65.836,319.686C64.934,319.46 64.587,318.442 65.322,317.78C65.855,317.301 66.81,317.251 67.467,317.453C68.327,317.718 69.818,319.223 68.616,319.991C67.934,320.427 66.543,319.878 65.836,319.686ZM67.378,315.299C67.218,315.242 66.959,315.08 66.812,314.994C66.002,314.523 67.145,314.123 67.621,314.262C68.71,314.579 68.327,315.467 67.378,315.299ZM50.506,314.895C49.402,314.885 48.337,313.68 48.994,312.592C49.297,312.09 49.935,311.812 50.49,311.714C52.321,311.39 53.039,314.918 50.506,314.895ZM38.185,311.806C37.485,311.483 37.479,311.043 37.775,310.728C38.07,310.413 38.667,310.222 39.172,310.396C40.512,310.86 39.706,312.508 38.185,311.806ZM20.752,299.037C20.483,298.987 20.058,298.946 19.856,298.73C19.285,298.117 20.707,297.644 21.095,297.675C21.592,297.715 22.689,298.495 21.896,298.948C21.703,299.058 20.968,299.02 20.752,299.037ZM85.932,293.212C85.628,293.107 85.285,292.957 85.132,292.65C84.817,292.018 85.72,291.722 86.175,291.767C87.363,291.884 87.538,293.765 85.932,293.212ZM81.757,289.197C81.094,288.629 80.911,287.488 81.781,287.088C82.329,286.836 83.076,286.965 83.597,287.238C83.844,287.368 84.067,287.545 84.268,287.738C84.904,288.348 84.919,289.316 83.976,289.623C83.524,289.77 82.628,289.944 81.757,289.197Z" style="fill:#e18400;"/>
            </g>
            <g transform="matrix(0.415851,0,0,0.415851,228.759,-83.5064)">
                <path d="M54.262,322.777C54.371,322.93 54.544,323.065 54.651,323.137C55.017,323.383 55.388,323.639 55.845,323.619C55.982,323.613 56.158,323.607 56.268,323.513L56.278,323.504C56.12,324.047 55.209,324.42 54.292,323.484C53.975,323.16 54.035,322.927 54.262,322.777ZM65.013,318.196C65.085,318.324 65.179,318.438 65.29,318.527C65.57,318.751 65.943,318.856 66.283,318.951C66.931,319.132 67.553,319.349 68.228,319.412C68.535,319.441 68.831,319.414 69.066,319.261C69.065,319.532 68.935,319.788 68.616,319.991C67.934,320.427 66.543,319.878 65.836,319.686C65.108,319.504 64.742,318.806 65.013,318.196ZM66.699,314.421C66.745,314.452 66.793,314.482 66.844,314.509C67.219,314.712 67.834,315.042 68.281,314.87C68.266,315.154 67.911,315.393 67.378,315.299C67.218,315.242 66.959,315.08 66.812,314.994C66.427,314.77 66.483,314.562 66.699,314.421ZM49.037,312.526C49.127,312.974 49.435,313.398 49.795,313.638C50.093,313.838 50.441,314.037 50.804,314.073C51.006,314.094 51.207,314.059 51.406,314.029C51.616,313.997 51.83,313.97 52.014,313.856C52.046,313.837 52.075,313.815 52.102,313.791C51.961,314.401 51.468,314.904 50.506,314.895C49.402,314.885 48.337,313.68 48.994,312.592C49.008,312.569 49.022,312.547 49.037,312.526ZM37.958,310.574C38.028,310.824 38.239,311.059 38.44,311.179C38.793,311.392 39.394,311.598 39.813,311.404C39.656,311.86 39.031,312.197 38.185,311.806C37.485,311.483 37.479,311.043 37.775,310.728C37.827,310.672 37.889,310.62 37.958,310.574ZM19.927,298.091C20.017,298.246 20.18,298.373 20.357,298.453C20.879,298.692 21.547,298.934 22.114,298.758C22.069,298.825 21.998,298.889 21.896,298.948C21.703,299.058 20.968,299.02 20.752,299.037C20.483,298.987 20.058,298.946 19.856,298.73C19.631,298.488 19.716,298.267 19.927,298.091ZM85.285,292.009C85.299,292.035 85.313,292.06 85.328,292.082C85.555,292.425 85.975,292.566 86.349,292.675C86.576,292.741 86.87,292.862 87.101,292.741C87.093,293.156 86.735,293.488 85.932,293.212C85.628,293.107 85.285,292.957 85.132,292.65C84.993,292.371 85.092,292.157 85.285,292.009ZM81.796,287.082C81.863,287.533 82.141,287.966 82.422,288.301C82.541,288.444 82.662,288.59 82.819,288.693C83.004,288.815 83.219,288.892 83.431,288.95C83.846,289.064 84.37,289.147 84.706,288.858C84.651,289.188 84.419,289.479 83.976,289.623C83.524,289.77 82.628,289.944 81.757,289.197C81.094,288.629 80.911,287.488 81.781,287.088L81.796,287.082Z" style="fill:#d86900;"/>
            </g>
        </g>
        <g transform="matrix(1.46746,-0.0624979,0.0624979,1.46746,-122.096,-10.4597)">
            <g transform="matrix(0.282868,0.0120471,-0.0120471,0.282868,240.773,-39.5232)">
                <path d="M46.057,259.666L46.118,268.991L87.71,313.819C88.16,314.516 88.652,314.878 88.65,315.39L88.5,316.663C88.225,318.22 86.927,319.529 84.921,318.864L18.244,294.467C14.986,293.254 15.177,291.549 15.067,288.923L14.518,275.829C14.179,274.874 13.748,273.981 13.305,273.052C13.143,272.711 12.958,272.355 12.838,271.989C17.472,267.381 23.749,263.912 31.019,261.845C35.681,260.519 40.751,259.77 46.057,259.666Z" style="fill:#616161;fill-opacity:0.25;"/>
            </g>
            <g transform="matrix(0.958769,-0.284185,0.284185,0.958769,-0.184348,84.6843)">
                <path d="M245.41,24.619C245.407,24.337 245.374,24.062 245.341,23.778C245.316,23.558 245.272,23.314 245.411,23.123C245.548,22.935 245.805,22.92 245.978,22.78C246.306,22.515 246.464,22.137 246.886,21.978C247.153,21.877 247.507,21.967 247.747,21.817C248.001,21.659 248.145,21.381 248.426,21.244C248.676,21.122 249,21.183 249.23,21.033C249.472,20.874 249.58,20.602 249.853,20.462C250.11,20.33 250.436,20.375 250.678,20.245C250.903,20.125 251.032,19.879 251.278,19.765C251.457,19.682 251.678,19.76 251.836,19.687C252.077,19.576 252.197,19.275 252.457,19.168C252.635,19.095 252.85,19.198 253.004,19.138C253.219,19.052 253.336,18.764 253.536,18.638C253.663,18.558 253.838,18.524 253.988,18.534C254.046,18.538 254.343,18.525 254.398,18.508C254.587,18.451 254.711,18.28 254.922,18.258C255.163,18.232 255.368,18.355 255.562,18.48C256.311,18.966 256.395,19.811 256.16,20.605L256.023,20.659L254.34,25.677L261.233,41.259C261.289,41.484 261.385,41.623 261.339,41.758L261.184,42.08C260.971,42.466 260.512,42.694 260.044,42.337L244.706,29.87C243.959,29.255 244.163,28.823 244.371,28.121L245.41,24.619Z" style="fill:#edb65b;"/>
            </g>
            <g transform="matrix(0.958769,-0.284185,0.284185,0.958769,-0.184348,84.6843)">
                <path d="M246.102,23.098C246.226,23.304 246.295,23.523 246.353,23.755C246.382,23.87 246.407,23.985 246.444,24.098C246.478,24.203 246.513,24.361 246.598,24.439C246.706,24.54 246.877,24.418 246.908,24.304C246.978,24.04 246.895,23.722 246.818,23.468C246.79,23.373 246.745,23.285 246.7,23.196C246.636,23.07 246.56,22.923 246.432,22.849C246.3,22.772 246.028,22.898 246.102,23.098ZM247.973,23.785C247.893,23.509 247.795,23.245 247.642,23C247.54,22.836 247.42,22.698 247.294,22.553C247.23,22.479 247.14,22.37 247.145,22.264C247.148,22.212 247.2,22.175 247.24,22.149C247.343,22.083 247.463,22.058 247.585,22.079C247.907,22.135 248.099,22.428 248.222,22.706C248.302,22.887 248.362,23.084 248.401,23.277C248.421,23.379 248.443,23.488 248.413,23.59C248.375,23.716 248.249,23.817 248.12,23.835C248.073,23.842 248.014,23.815 247.973,23.785ZM249.466,22.991C249.409,22.8 249.334,22.613 249.219,22.449C249.042,22.197 248.802,21.99 248.608,21.752C248.504,21.625 248.479,21.448 248.643,21.366C248.848,21.264 249.086,21.381 249.246,21.508C249.495,21.707 249.608,21.992 249.72,22.28C249.777,22.427 249.847,22.609 249.838,22.771C249.832,22.901 249.747,23.012 249.625,23.055C249.554,23.079 249.51,23.056 249.466,22.991ZM251.019,22.199C250.941,21.962 250.857,21.726 250.704,21.525C250.551,21.323 250.338,21.17 250.164,20.987C250.073,20.891 249.925,20.712 250.093,20.613C250.291,20.495 250.589,20.582 250.759,20.71C250.974,20.873 251.085,21.133 251.185,21.375C251.25,21.53 251.317,21.682 251.347,21.847C251.354,21.887 251.359,21.931 251.352,21.971C251.33,22.093 251.16,22.239 251.019,22.199ZM252.307,21.521C252.143,21.059 251.785,20.674 251.474,20.306C251.393,20.21 251.233,19.99 251.41,19.899C251.627,19.788 251.884,19.909 252.05,20.058C252.381,20.353 252.628,20.823 252.664,21.269C252.679,21.448 252.496,21.654 252.307,21.521ZM253.505,20.888C253.36,20.663 253.249,20.416 253.074,20.211C252.955,20.072 252.828,19.94 252.711,19.799C252.647,19.722 252.573,19.637 252.545,19.538C252.515,19.43 252.564,19.341 252.679,19.318C252.732,19.308 252.786,19.318 252.837,19.331C253.09,19.395 253.286,19.554 253.438,19.76C253.57,19.941 253.667,20.148 253.731,20.361C253.758,20.451 253.788,20.545 253.791,20.639C253.795,20.764 253.739,20.962 253.572,20.926C253.55,20.921 253.524,20.901 253.505,20.888ZM254.72,20.219C254.662,20.047 254.569,19.89 254.475,19.737C254.396,19.609 254.316,19.48 254.218,19.366C254.138,19.272 254.047,19.187 253.962,19.098C253.944,19.08 253.927,19.061 253.91,19.042C253.847,18.973 253.672,18.809 253.808,18.725C253.967,18.627 254.153,18.723 254.3,18.792C254.393,18.835 254.487,18.879 254.566,18.946C254.809,19.152 254.971,19.507 255.01,19.821C255.023,19.926 255.025,20.066 254.963,20.158C254.919,20.222 254.794,20.257 254.72,20.219ZM255.922,19.727C255.834,19.394 255.64,19.099 255.394,18.861C255.294,18.764 255.176,18.683 255.085,18.576C255.062,18.549 255.006,18.48 255.052,18.448C255.149,18.38 255.308,18.495 255.391,18.539C255.697,18.703 255.932,19.011 256.033,19.341C256.041,19.368 256.043,19.395 256.052,19.422C256.138,19.69 255.956,19.856 255.922,19.727Z" style="fill:#ffc361;"/>
            </g>
            <g transform="matrix(0.958769,-0.284185,0.284185,0.958769,-0.184348,84.6843)">
                <path d="M246.696,23.005C246.912,23.336 247.051,23.701 247.053,24.1C247.054,24.169 247.11,24.225 247.179,24.224C247.248,24.224 247.304,24.168 247.303,24.099C247.3,23.65 247.148,23.24 246.905,22.868C246.867,22.81 246.79,22.794 246.732,22.832C246.674,22.869 246.658,22.947 246.696,23.005ZM248.064,22.233C248.263,22.495 248.403,22.791 248.477,23.111C248.494,23.186 248.53,23.273 248.532,23.349C248.533,23.418 248.59,23.473 248.659,23.472C248.728,23.471 248.783,23.414 248.782,23.345C248.78,23.252 248.742,23.145 248.721,23.054C248.638,22.701 248.483,22.372 248.264,22.082C248.222,22.027 248.143,22.016 248.088,22.058C248.033,22.099 248.023,22.178 248.064,22.233ZM249.426,21.506C249.685,21.826 249.909,22.189 249.989,22.601C250.003,22.668 250.068,22.713 250.136,22.699C250.204,22.686 250.248,22.621 250.235,22.553C250.147,22.101 249.905,21.701 249.621,21.348C249.577,21.295 249.499,21.286 249.445,21.33C249.391,21.373 249.383,21.452 249.426,21.506ZM250.924,20.613C251.193,20.957 251.445,21.351 251.546,21.783C251.562,21.85 251.629,21.892 251.696,21.876C251.763,21.86 251.805,21.793 251.789,21.726C251.68,21.259 251.411,20.83 251.12,20.459C251.078,20.405 250.999,20.395 250.945,20.438C250.891,20.48 250.881,20.559 250.924,20.613ZM252.09,19.998C252.422,20.338 252.656,20.734 252.75,21.201C252.763,21.269 252.829,21.313 252.897,21.299C252.964,21.286 253.008,21.22 252.995,21.152C252.892,20.637 252.635,20.199 252.269,19.823C252.22,19.774 252.141,19.773 252.092,19.821C252.043,19.869 252.042,19.948 252.09,19.998ZM253.334,19.437C253.667,19.731 253.846,20.176 253.956,20.598C253.974,20.665 254.042,20.705 254.109,20.687C254.176,20.67 254.216,20.601 254.198,20.535C254.076,20.066 253.869,19.576 253.499,19.249C253.448,19.204 253.369,19.208 253.323,19.26C253.277,19.312 253.282,19.391 253.334,19.437ZM254.594,18.885C254.923,19.092 255.118,19.494 255.172,19.87C255.182,19.938 255.245,19.986 255.314,19.976C255.382,19.966 255.429,19.903 255.42,19.835C255.356,19.39 255.116,18.918 254.728,18.673C254.669,18.636 254.592,18.654 254.555,18.712C254.519,18.77 254.536,18.848 254.594,18.885Z" style="fill:#dfa33f;"/>
            </g>
            <g transform="matrix(0.958769,-0.284185,0.284185,0.958769,-0.184348,84.6843)">
                <path d="M245.294,25.008C245.309,24.889 245.314,24.769 245.3,24.656C245.256,24.296 245.112,23.943 245.166,23.573C245.172,23.531 245.181,23.489 245.194,23.447C245.235,23.314 245.403,23.043 245.584,23.14C245.813,23.262 245.869,23.593 245.916,23.839C245.975,24.146 246.073,24.932 245.97,25.223C245.845,25.579 245.862,25.961 245.721,26.312C245.675,26.426 245.616,26.559 245.537,26.669L245.166,29.03L261.233,41.259C261.289,41.484 261.385,41.623 261.339,41.758L261.184,42.08C260.971,42.466 260.512,42.694 260.044,42.337L244.706,29.87C243.959,29.255 244.163,28.823 244.371,28.121L245.294,25.008Z" style="fill:#face8a;"/>
            </g>
            <g transform="matrix(0.282868,0.0120471,-0.0120471,0.282868,240.773,-39.5232)">
                <path d="M78.107,288.194C78.303,292.458 79.095,296.484 84.066,298.505C83.87,302.213 84.174,305.663 88.555,307.019L88.555,309.006L88.44,309.53L70.816,304.33L77.411,288.21L78.107,288.194Z" style="fill:#c87500;"/>
            </g>
            <g transform="matrix(0.282868,0.0120471,-0.0120471,0.282868,240.773,-39.5232)">
                <path d="M74.981,298.56C75.412,302.139 78.442,304.922 82.127,304.963C83.306,307.332 85.739,308.97 88.555,309.006L88.471,313.577C88.592,315.096 87.909,316.873 85.937,316.217L22.045,292.766C18.843,291.569 19.03,289.891 18.92,287.307L18.533,278.221L19.278,277.216L74.981,298.56Z" style="fill:#e18400;"/>
            </g>
            <g transform="matrix(0.282868,0.0120471,-0.0120471,0.282868,240.773,-39.5232)">
                <path d="M75.672,300.89C75.541,300.885 75.409,300.885 75.278,300.883L63.711,296.638C63.324,296.108 63.013,295.74 61.997,295.515C61.491,295.403 60.879,295.432 60.287,295.381L58.635,294.774C57.623,294.071 56.801,293.122 55.645,292.607C54.395,292.05 52.97,292.322 51.673,291.947C50.142,291.505 48.855,290.464 47.369,289.92C46.806,289.713 46.188,289.529 45.588,289.484C45.19,289.453 44.752,289.545 44.365,289.443C43.494,289.215 43.03,288.271 42.218,287.964C41.554,287.712 40.863,287.969 40.183,287.932C40.098,287.927 40.014,287.919 39.931,287.909L30.965,284.618C30.798,284.523 30.633,284.423 30.473,284.316C29.854,283.9 29.325,283.304 28.61,283.048C28.009,282.833 27.42,283.152 26.826,282.933C26.019,282.634 25.464,281.946 24.61,281.742C24.058,281.61 23.526,281.703 22.972,281.684L21.551,281.163C18.349,279.967 17.819,278.075 19.352,275.648L45.293,248.189C46.953,246.609 48.613,247.012 50.188,249.21L78.107,288.194C77.204,289.406 76.669,290.91 76.669,292.537C76.669,292.674 76.673,292.81 76.68,292.946C75.588,294.22 74.928,295.874 74.928,297.682C74.928,298.833 75.196,299.922 75.672,300.89Z" style="fill:#be5c00;"/>
            </g>
            <g transform="matrix(0.958769,-0.284185,0.284185,0.958769,-0.184348,84.6843)">
                <path d="M257.329,34.968C257.266,34.969 257.205,34.957 257.149,34.926C257.116,34.908 257.085,34.885 257.058,34.859C256.982,34.786 256.981,34.657 257.109,34.641C257.223,34.626 257.351,34.717 257.436,34.791C257.563,34.902 257.463,34.965 257.329,34.968ZM257.222,34.476C257.141,34.486 257.067,34.487 257.006,34.424C256.914,34.33 256.959,34.187 257.088,34.158C257.178,34.139 257.282,34.182 257.343,34.25C257.416,34.332 257.318,34.444 257.222,34.476ZM256.527,34.442C256.428,34.451 256.309,34.427 256.246,34.343C256.121,34.179 256.251,33.97 256.441,33.973C256.559,33.974 256.698,34.028 256.748,34.144C256.809,34.291 256.724,34.45 256.527,34.442ZM259.976,34.139C259.958,34.14 259.941,34.141 259.923,34.139C259.911,34.137 259.897,34.136 259.885,34.132C259.847,34.121 259.852,34.1 259.875,34.067C259.898,34.035 259.937,34.018 259.974,34.009C260.017,33.998 260.161,34.006 260.113,34.089C260.093,34.123 260.009,34.123 259.976,34.139ZM259.623,33.91C259.578,33.917 259.524,33.922 259.483,33.898C259.389,33.844 259.465,33.757 259.536,33.735C259.593,33.717 259.67,33.707 259.725,33.74C259.808,33.789 259.685,33.877 259.623,33.91ZM257.303,30.159C257.273,30.16 257.242,30.159 257.214,30.146C257.074,30.082 257.195,29.919 257.303,29.908C257.484,29.89 257.503,30.123 257.303,30.159ZM256.7,30.066C256.509,30.045 256.576,29.827 256.733,29.817C256.784,29.813 256.845,29.825 256.883,29.861C256.978,29.948 256.89,30.087 256.7,30.066ZM252.332,29.927C252.249,29.965 252.133,29.968 252.051,29.924C252.014,29.904 251.973,29.859 251.979,29.814C251.987,29.745 252.071,29.682 252.124,29.647C252.154,29.627 252.186,29.611 252.22,29.6C252.33,29.565 252.604,29.589 252.56,29.769C252.538,29.86 252.395,29.87 252.332,29.927ZM251.484,29.791C251.441,29.804 251.397,29.812 251.352,29.811C251.322,29.81 251.291,29.806 251.262,29.797C251.245,29.791 251.229,29.783 251.215,29.773C251.064,29.666 251.312,29.499 251.412,29.473C251.499,29.45 251.63,29.457 251.71,29.504C251.779,29.544 251.803,29.624 251.754,29.692C251.737,29.716 251.715,29.739 251.692,29.759C251.66,29.786 251.523,29.78 251.484,29.791ZM257.181,29.608C257.115,29.619 257.051,29.622 256.986,29.604C256.751,29.538 256.716,29.271 256.875,29.113C256.938,29.05 257.022,29.034 257.108,29.027C257.239,29.016 257.384,29.041 257.487,29.129C257.602,29.228 257.652,29.44 257.534,29.558C257.46,29.631 257.28,29.6 257.181,29.608ZM258.787,29.442C258.714,29.447 258.628,29.447 258.569,29.396C258.479,29.319 258.465,29.152 258.591,29.1C258.797,29.014 259.089,29.423 258.787,29.442ZM252.29,29.224C252.237,29.251 252.086,29.273 252.085,29.175C252.085,29.118 252.147,29.054 252.191,29.024C252.267,28.97 252.437,28.957 252.424,29.09C252.422,29.105 252.418,29.12 252.412,29.134C252.397,29.165 252.316,29.202 252.29,29.224ZM258.21,29.127C258.161,29.132 258.108,29.138 258.062,29.115C257.968,29.067 257.942,28.94 258.014,28.861C258.053,28.818 258.124,28.798 258.18,28.797C258.269,28.795 258.359,28.852 258.393,28.935C258.436,29.04 258.332,29.116 258.21,29.127ZM246.527,26.441C246.452,26.437 246.412,26.332 246.479,26.263C246.548,26.192 246.769,26.138 246.838,26.241C246.869,26.288 246.849,26.343 246.816,26.385C246.756,26.461 246.617,26.48 246.527,26.441ZM246.678,25.909C246.549,25.881 246.606,25.734 246.666,25.668C246.767,25.559 246.931,25.498 247.078,25.53C247.175,25.552 247.255,25.65 247.226,25.753C247.212,25.803 247.174,25.843 247.139,25.879C247.03,25.992 246.826,25.933 246.678,25.909ZM246.418,25.821C246.365,25.826 246.287,25.826 246.252,25.776C246.226,25.739 246.33,25.679 246.354,25.673C246.471,25.643 246.535,25.736 246.418,25.821ZM256.86,23.13C256.818,23.131 256.737,23.104 256.766,23.046C256.784,23.009 256.833,22.981 256.87,22.968C256.932,22.946 257.019,22.971 256.997,23.054C256.985,23.096 256.896,23.11 256.86,23.13ZM256.955,22.851C256.926,22.852 256.898,22.851 256.87,22.848C256.794,22.839 256.772,22.772 256.844,22.729C256.892,22.7 256.951,22.685 257.006,22.699C257.093,22.721 257.014,22.804 256.955,22.851ZM255.8,20.892C255.743,20.891 255.708,20.854 255.74,20.799C255.767,20.753 255.819,20.717 255.869,20.702C255.951,20.676 256.01,20.718 255.967,20.805C255.944,20.851 255.845,20.873 255.8,20.892ZM256.002,20.54C255.932,20.562 255.767,20.5 255.826,20.385C255.865,20.309 255.976,20.245 256.056,20.225C256.093,20.216 256.144,20.206 256.181,20.221C256.249,20.248 256.244,20.333 256.214,20.386C256.164,20.476 256.094,20.509 256.002,20.54Z" style="fill:#ce6400;"/>
            </g>
            <g transform="matrix(0.958769,-0.284185,0.284185,0.958769,-0.184348,84.6843)">
                <path d="M260.218,40.996C260.263,40.921 260.38,40.909 260.478,40.969C260.576,41.028 260.619,41.138 260.574,41.212C260.528,41.287 260.411,41.299 260.313,41.239C260.215,41.18 260.172,41.07 260.218,40.996ZM259.615,40.618C259.654,40.555 259.752,40.545 259.835,40.595C259.918,40.646 259.954,40.738 259.915,40.801C259.877,40.864 259.779,40.874 259.696,40.823C259.613,40.773 259.577,40.681 259.615,40.618ZM259.961,40.088C260.038,39.962 260.235,39.942 260.4,40.043C260.566,40.144 260.638,40.328 260.561,40.454C260.484,40.58 260.288,40.6 260.122,40.499C259.957,40.398 259.885,40.214 259.961,40.088ZM259.955,38.642C259.982,38.598 260.05,38.591 260.107,38.626C260.164,38.661 260.189,38.725 260.162,38.768C260.136,38.812 260.068,38.819 260.011,38.784C259.954,38.749 259.929,38.685 259.955,38.642ZM257.116,38.361C257.142,38.318 257.21,38.311 257.267,38.346C257.324,38.381 257.349,38.444 257.323,38.488C257.296,38.531 257.228,38.538 257.171,38.503C257.114,38.468 257.089,38.405 257.116,38.361ZM257.001,37.76C257.028,37.717 257.096,37.71 257.153,37.745C257.21,37.78 257.235,37.843 257.209,37.887C257.182,37.93 257.114,37.937 257.057,37.902C257,37.868 256.975,37.804 257.001,37.76ZM255.383,36.607C255.475,36.458 255.708,36.433 255.904,36.553C256.101,36.673 256.187,36.891 256.096,37.041C256.004,37.19 255.771,37.214 255.575,37.095C255.378,36.975 255.292,36.756 255.383,36.607ZM254.574,36.542C254.62,36.467 254.737,36.455 254.835,36.515C254.933,36.575 254.976,36.684 254.93,36.759C254.885,36.834 254.768,36.846 254.67,36.786C254.572,36.726 254.529,36.617 254.574,36.542ZM255.265,35.927C255.31,35.852 255.427,35.84 255.525,35.9C255.623,35.96 255.666,36.069 255.621,36.144C255.575,36.218 255.458,36.23 255.36,36.171C255.262,36.111 255.219,36.001 255.265,35.927ZM254.8,35.043C254.826,34.999 254.894,34.992 254.951,35.027C255.008,35.062 255.033,35.125 255.007,35.169C254.98,35.212 254.912,35.219 254.855,35.185C254.798,35.15 254.773,35.086 254.8,35.043ZM253.465,34.841C253.492,34.797 253.56,34.79 253.617,34.825C253.674,34.86 253.699,34.923 253.673,34.967C253.646,35.01 253.578,35.017 253.521,34.983C253.464,34.948 253.439,34.884 253.465,34.841ZM252.505,32.997C252.548,32.927 252.657,32.915 252.75,32.971C252.842,33.027 252.882,33.13 252.839,33.2C252.796,33.27 252.687,33.281 252.595,33.225C252.503,33.169 252.463,33.067 252.505,32.997ZM250.329,32.674C250.356,32.631 250.424,32.624 250.481,32.659C250.538,32.693 250.563,32.757 250.537,32.801C250.51,32.844 250.442,32.851 250.385,32.816C250.328,32.781 250.303,32.718 250.329,32.674ZM252.322,32.383C252.364,32.313 252.474,32.302 252.566,32.358C252.658,32.414 252.698,32.516 252.655,32.586C252.613,32.656 252.503,32.668 252.411,32.611C252.319,32.555 252.279,32.453 252.322,32.383ZM248.897,31.8C248.959,31.698 249.105,31.673 249.223,31.745C249.341,31.817 249.386,31.958 249.324,32.06C249.262,32.162 249.116,32.186 248.998,32.115C248.88,32.043 248.835,31.902 248.897,31.8ZM251.337,31.723C251.363,31.679 251.431,31.672 251.488,31.707C251.545,31.742 251.57,31.806 251.544,31.849C251.517,31.893 251.449,31.9 251.392,31.865C251.335,31.83 251.31,31.766 251.337,31.723ZM247.992,31.118C248.054,31.016 248.2,30.992 248.318,31.063C248.436,31.135 248.481,31.276 248.419,31.378C248.357,31.48 248.211,31.505 248.093,31.433C247.975,31.362 247.93,31.22 247.992,31.118ZM248.714,31.067C248.756,30.997 248.866,30.985 248.958,31.041C249.05,31.097 249.09,31.2 249.047,31.27C249.005,31.34 248.895,31.351 248.803,31.295C248.711,31.239 248.671,31.137 248.714,31.067ZM247.997,29.962C247.998,29.95 248.001,29.938 248.007,29.928C248.034,29.884 248.102,29.877 248.159,29.912C248.2,29.937 248.225,29.977 248.225,30.013C248.226,30.028 248.222,30.042 248.215,30.054C248.188,30.097 248.12,30.104 248.063,30.07C248.02,30.043 247.995,30 247.997,29.962ZM249.114,29.928C249.141,29.884 249.209,29.877 249.266,29.912C249.323,29.947 249.348,30.01 249.322,30.054C249.295,30.097 249.227,30.104 249.17,30.07C249.113,30.035 249.088,29.971 249.114,29.928ZM245.356,29.106C245.383,29.063 245.451,29.056 245.508,29.091C245.565,29.125 245.59,29.189 245.563,29.232C245.537,29.276 245.469,29.283 245.412,29.248C245.355,29.213 245.33,29.15 245.356,29.106ZM246.169,28.749C246.242,28.629 246.417,28.602 246.559,28.689C246.701,28.775 246.757,28.943 246.684,29.062C246.611,29.182 246.436,29.209 246.294,29.122C246.152,29.036 246.096,28.868 246.169,28.749ZM247.012,28.508C247.074,28.406 247.221,28.381 247.338,28.453C247.456,28.525 247.501,28.666 247.439,28.768C247.377,28.87 247.231,28.895 247.113,28.823C246.995,28.751 246.95,28.61 247.012,28.508ZM245.71,27.351C245.835,27.146 246.151,27.109 246.414,27.27C246.678,27.43 246.79,27.727 246.665,27.933C246.54,28.138 246.224,28.175 245.961,28.014C245.697,27.854 245.585,27.556 245.71,27.351Z" style="fill:#d86900;"/>
            </g>
            <g transform="matrix(0.958769,-0.284185,0.284185,0.958769,-0.184348,84.6843)">
                <path d="M254.018,21.942C253.943,21.91 253.845,21.871 253.8,21.862C253.467,21.798 253.139,21.878 252.846,22.037C252.514,22.217 252.29,22.544 252.051,22.825C252.031,22.85 251.997,22.895 251.968,22.935C251.875,22.932 251.735,22.929 251.669,22.94C251.172,23.018 250.667,23.353 250.391,23.77C249.723,24.782 249.957,26.476 250.768,27.361C251.294,27.936 252.033,28.505 253.162,28.777C254.205,29.028 255.055,29.075 255.88,28.864C256.422,28.726 257.093,28.331 257.442,27.835C257.93,27.139 257.907,26.052 257.395,25.38C257.297,25.252 257.175,25.138 257.048,25.028C256.966,24.957 256.877,24.891 256.81,24.811C256.823,24.755 256.838,24.68 256.843,24.632C256.866,24.387 256.816,24.136 256.726,23.908C256.621,23.641 256.443,23.422 256.243,23.217C256.108,23.079 255.961,22.95 255.851,22.796C255.838,22.777 255.86,22.763 255.868,22.746C255.883,22.717 255.901,22.688 255.919,22.659C256.023,22.499 256.149,22.343 256.227,22.19C256.278,22.091 256.36,21.868 256.161,21.633C256.122,21.588 255.898,21.427 255.878,21.415C255.385,21.127 255.004,21.209 254.662,21.418C254.519,21.506 254.383,21.625 254.248,21.746C254.172,21.815 254.1,21.893 254.018,21.942Z" style="fill:#fff;"/>
            </g>
            <g transform="matrix(0.958769,-0.284185,0.284185,0.958769,-0.184348,84.6843)">
                <path d="M253.885,27.799C253.683,27.814 253.683,27.576 253.881,27.596C253.937,27.602 253.997,27.627 254.024,27.679C254.069,27.766 253.982,27.813 253.885,27.799ZM253.407,27.477C253.225,27.443 253.207,27.201 253.351,27.111C253.406,27.077 253.474,27.089 253.534,27.103C253.727,27.148 253.787,27.405 253.574,27.475C253.535,27.487 253.447,27.485 253.407,27.477ZM254.059,27.431C254.027,27.427 253.997,27.421 253.968,27.407C253.798,27.321 253.954,27.212 254.077,27.22C254.246,27.23 254.209,27.409 254.059,27.431ZM256.808,26.259C256.74,26.267 256.67,26.204 256.7,26.132C256.72,26.085 256.776,26.059 256.824,26.054C256.925,26.042 257.069,26.135 256.977,26.246C256.945,26.285 256.853,26.249 256.808,26.259ZM257.196,26.144C257.17,26.139 257.145,26.133 257.121,26.122C257.049,26.09 257.039,26.017 257.094,25.963C257.136,25.922 257.212,25.902 257.27,25.902C257.357,25.903 257.423,25.98 257.382,26.063C257.355,26.119 257.254,26.128 257.196,26.144ZM256.369,25.106C256.337,25.112 256.303,25.119 256.271,25.114C256.211,25.103 256.192,25.05 256.209,24.997C256.232,24.925 256.298,24.84 256.373,24.818C256.481,24.786 256.632,24.834 256.585,24.975C256.561,25.048 256.436,25.076 256.369,25.106ZM256.545,24.632C256.453,24.594 256.449,24.523 256.484,24.465C256.52,24.408 256.597,24.365 256.668,24.385C256.814,24.427 256.698,24.653 256.545,24.632ZM253.7,23.172C253.642,23.149 253.582,23.114 253.557,23.053C253.513,22.948 253.581,22.86 253.688,22.877C253.814,22.897 253.89,23.13 253.7,23.172ZM253.329,22.78C253.225,22.668 253.222,22.503 253.287,22.371C253.32,22.305 253.378,22.186 253.469,22.251C253.574,22.326 253.59,22.557 253.552,22.674C253.525,22.756 253.41,22.81 253.329,22.78Z" style="fill:#ffe5cd;"/>
            </g>
            <g transform="matrix(0.958769,-0.284185,0.284185,0.958769,-0.184348,84.6843)">
                <path d="M251.043,23.169C250.579,25.358 251.04,27.212 252.687,28.638C251.82,28.337 251.216,27.851 250.768,27.361C249.957,26.476 249.723,24.782 250.391,23.77C250.548,23.532 250.78,23.321 251.043,23.169ZM252.823,22.05C251.891,23.157 252.272,25.495 254.518,27.179C251.912,26.533 251.258,25.033 251.968,22.935C251.997,22.895 252.031,22.85 252.051,22.825C252.284,22.55 252.504,22.232 252.823,22.05ZM256.81,24.811C256.658,25.463 256.227,25.836 255.519,25.929C256.128,26.057 256.715,25.946 257.245,25.21C257.183,25.147 257.116,25.087 257.048,25.028C256.966,24.957 256.877,24.891 256.81,24.811ZM254.265,21.732L254.248,21.746C254.172,21.815 254.1,21.893 254.018,21.942C253.702,22.482 253.762,23.027 254.647,23.58C254.109,22.96 254.035,22.344 254.265,21.732ZM255.851,22.796C255.59,22.943 255.366,22.998 255.127,22.889C255.449,23.123 255.759,23.174 256.054,23.029C255.98,22.955 255.91,22.879 255.851,22.796Z" style="fill:#ffe5cd;"/>
            </g>
        </g>
    </g>
</svg>
