<?xml version="1.0" encoding="UTF-8" standalone="no"?><!DOCTYPE svg PUBLIC "-//W3C//DTD SVG 1.1//EN" "http://www.w3.org/Graphics/SVG/1.1/DTD/svg11.dtd"><svg width="100%" height="100%" viewBox="0 0 1250 1438" version="1.1" xmlns="http://www.w3.org/2000/svg" xmlns:xlink="http://www.w3.org/1999/xlink" xml:space="preserve" xmlns:serif="http://www.serif.com/" style="fill-rule:evenodd;clip-rule:evenodd;stroke-linejoin:round;stroke-miterlimit:2;"><g id="avatar_item_38"><path d="M166.216,1079.75c3.565,-31.058 20.047,-52.691 41.653,-55.996c22.326,-3.415 51.176,12.545 54.724,44.593c30.289,-11.058 57.404,7.698 64.262,29.217c6.639,20.829 -5.426,45.21 -31.662,62.193c31.049,3.561 52.69,20.044 55.995,41.653c3.415,22.327 -12.545,51.176 -44.593,54.724c11.058,30.289 -7.698,57.404 -29.217,64.263c-14.798,4.716 -31.363,0.031 -45.807,-12.485c3.429,7.802 7.323,15.068 12.074,21.199c4.882,6.299 16.201,18.557 18.448,20.92c3.1,3.261 6.51,6.246 8.78,10.46c2.437,4.522 1.885,7.673 0.787,10.573c-1.081,2.857 -3.198,5.219 -4.983,6.716c-5.92,4.965 -12.953,3.4 -15.887,0.762c-2.989,-2.688 -4.163,-3.391 -10.072,-10.36c-0.99,-1.166 -4.659,-5.84 -6.964,-9.298c-2.251,-3.377 -5.033,-7.342 -9.24,-15.018c-2.558,-4.666 -5.455,-10.515 -7.089,-14.76c-2.641,-6.866 -4.192,-12.512 -5.109,-15.323c-0.537,-1.648 -1.035,-3.353 -1.538,-5.181c-6.996,20.208 -20.595,33.581 -37.247,36.128c-22.326,3.415 -51.175,-12.545 -54.724,-44.594c-30.288,11.059 -57.403,-7.697 -64.262,-29.216c-6.64,-20.833 5.431,-45.219 31.662,-62.195c-31.057,-3.565 -52.69,-20.046 -55.995,-41.652c-3.415,-22.326 12.545,-51.175 44.594,-54.724c-11.059,-30.288 7.697,-57.403 29.217,-64.262c20.829,-6.639 45.21,5.426 62.193,31.663Z" style="fill:#118000;"/><path d="M174.23,1113.95c-2.023,-8.632 -3.057,-16.888 -2.65,-24.25c0.842,-32.698 15.723,-56.687 37.203,-59.972c21.479,-3.286 49.557,14.132 48.069,47.872c29.566,-16.323 57.644,1.095 64.243,21.798c6.598,20.703 -8.283,44.692 -37.203,59.973c-3.355,1.902 -7.106,3.559 -11.156,4.996c-3.692,1.311 -7.633,2.439 -11.75,3.404c8.633,-2.023 16.891,-3.059 24.253,-2.651c32.698,0.842 56.687,15.723 59.973,37.203c3.286,21.479 -14.132,49.557 -47.872,48.069c16.323,29.566 -1.095,57.644 -21.798,64.243c-20.704,6.599 -44.693,-8.282 -59.973,-37.203c-3.636,-6.415 -6.377,-14.273 -8.4,-22.906c2.023,8.633 3.058,16.891 2.651,24.253c-0.842,32.699 -15.723,56.688 -37.203,59.973c-21.479,3.286 -49.557,-14.132 -48.069,-47.872c-29.566,16.323 -57.644,-1.095 -64.243,-21.798c-6.598,-20.704 8.283,-44.693 37.203,-59.973c3.356,-1.902 7.106,-3.559 11.156,-4.996c3.692,-1.311 7.633,-2.439 11.75,-3.404c-8.633,2.023 -16.891,3.058 -24.253,2.651c-32.698,-0.842 -56.687,-15.723 -59.973,-37.203c-3.286,-21.48 14.132,-49.558 47.872,-48.069c-16.323,-29.567 1.095,-57.644 21.798,-64.243c20.704,-6.599 44.693,8.282 59.973,37.203c3.635,6.414 6.376,14.27 8.399,22.902Z" style="fill:#68af23;"/><path d="M161.388,1191.11c-0,0 -39.344,5.574 -55.09,4.452c-27.823,-1.173 -48.44,-13.963 -51.543,-31.974c-3.103,-18.011 11.308,-41.242 40.027,-39.513c-14.308,-24.961 0.103,-48.193 17.618,-53.414c17.514,-5.221 38.132,7.569 51.544,31.974c8.081,13.748 19.888,52.295 19.888,52.295c-0,-0 -7.123,-39.689 -5.993,-55.551c1.174,-27.823 13.964,-48.441 31.974,-51.544c18.011,-3.103 41.243,11.309 39.514,40.027c24.961,-14.307 48.192,0.104 53.413,17.618c5.222,17.515 -7.568,38.133 -31.974,51.544c-13.462,7.914 -50.754,20.349 -50.754,20.349c0,0 38.798,-6.314 54.302,-5.209c27.823,1.173 48.441,13.963 51.544,31.974c3.103,18.011 -11.308,41.242 -40.027,39.513c14.307,24.961 -0.104,48.193 -17.618,53.414c-17.515,5.221 -38.132,-7.569 -51.544,-31.974c-7.928,-13.485 -19.101,-51.537 -19.101,-51.537c0,-0 6.32,39.146 5.205,54.793c-1.174,27.823 -13.963,48.441 -31.974,51.544c-18.011,3.103 -41.243,-11.308 -39.513,-40.027c-24.961,14.307 -48.193,-0.104 -53.414,-17.618c-5.222,-17.515 7.568,-38.133 31.974,-51.544c13.544,-7.962 51.542,-19.592 51.542,-19.592Z" style="fill:#6fbe22;"/><path d="M190.595,1183.8l58.732,-95.933c24.961,-14.307 48.192,0.104 53.413,17.618c5.222,17.515 -7.568,38.133 -31.974,51.544c-10.615,6.241 -36.046,15.292 -46.328,18.841l-4.426,1.508c-9.752,2.371 -19.549,4.544 -29.417,6.422Zm95.236,59.856c14.307,24.961 -0.104,48.193 -17.618,53.414c-17.515,5.221 -38.132,-7.569 -51.544,-31.974c-7.928,-13.485 -19.101,-51.537 -19.101,-51.537l-6.973,-29.759l95.236,59.856Zm-95.236,-59.856l-95.813,-59.72c-14.308,-24.961 0.103,-48.193 17.618,-53.414c17.514,-5.221 38.132,7.569 51.544,31.974c8.081,13.748 19.888,52.295 19.888,52.295l6.763,28.865Zm0,0l-59.309,96.069c-24.961,14.307 -48.193,-0.104 -53.414,-17.618c-5.222,-17.515 7.568,-38.133 31.974,-51.544c13.544,-7.962 51.542,-19.592 51.542,-19.592l29.207,-7.315Z" style="fill:#79c82c;"/></g></svg>