<?xml version="1.0" encoding="UTF-8" standalone="no"?><!DOCTYPE svg PUBLIC "-//W3C//DTD SVG 1.1//EN" "http://www.w3.org/Graphics/SVG/1.1/DTD/svg11.dtd"><svg width="100%" height="100%" viewBox="0 0 1250 1438" version="1.1" xmlns="http://www.w3.org/2000/svg" xmlns:xlink="http://www.w3.org/1999/xlink" xml:space="preserve" xmlns:serif="http://www.serif.com/" style="fill-rule:evenodd;clip-rule:evenodd;stroke-linejoin:round;stroke-miterlimit:2;"><g id="GirlScout"><g><path d="M26.047,1048.68l211.392,-38.491l33.228,43.118l-211.392,38.49l-33.228,-43.117Z" style="fill:#2c8440;"/><path d="M34.045,1059.06l211.392,-38.491l25.23,32.74l-211.392,38.49l-25.23,-32.739Z" style="fill:#237736;"/><path d="M21.934,1058.45l63.642,-11.588l37.342,33.344l-63.643,11.588l-37.341,-33.344Z" style="fill:#2db44c;"/><path d="M347.07,984l-211.391,38.491l-17.91,58.653l211.392,-38.491l17.909,-58.653Z" style="fill:#2db44c;"/><path d="M272.879,1051.62c-0.652,-3.58 -4.088,-5.958 -7.668,-5.306l-210.812,38.386c-3.58,0.652 -5.958,4.088 -5.306,7.668l56.837,312.149c0.652,3.58 4.088,5.958 7.669,5.306l210.811,-38.386c3.581,-0.652 5.958,-4.088 5.306,-7.668l-56.837,-312.149Z" style="fill:#2db44c;"/><path d="M270.887,1047.98l-211.991,98.229l-9.803,-53.839c-0.652,-3.58 1.726,-7.016 5.306,-7.668l210.812,-38.386c2.127,-0.387 4.204,0.295 5.676,1.664Z" style="fill:#cfffda;"/><path d="M58.896,1146.21c1.195,-8.586 3.414,-14.266 12.863,-17.681c13.859,-5.01 31.197,-11.871 48.18,-18.422l4.404,24.186l-65.447,11.917Z" style="fill:#2db44c;"/><path d="M58.896,1146.21c1.195,-8.586 3.414,-14.266 12.863,-17.681c13.859,-5.01 31.197,-11.871 48.18,-18.422l4.404,24.186l-65.447,11.917Z" style="fill:#2db44c;"/><path d="M71.759,1128.53c6.598,0.34 10.443,4.597 11.779,8.754c9.482,-9.287 21.595,-18.348 36.401,-27.176l-48.18,18.422Z" style="fill:#528d5f;"/><path d="M119.064,1156.89c-0.652,-3.58 -4.088,-5.958 -7.669,-5.306l-33.134,6.033c-3.58,0.652 -5.958,4.089 -5.306,7.669l36.454,200.205c0.652,3.581 4.088,5.958 7.669,5.306l33.134,-6.033c3.58,-0.652 5.958,-4.088 5.306,-7.668l-36.454,-200.206Z" style="fill:#cfffda;"/><path d="M338.326,1039.7c-0.652,-3.581 -4.088,-5.958 -7.668,-5.307l-210.812,38.386c-3.58,0.652 -5.958,4.088 -5.306,7.668l56.837,312.149c0.652,3.58 4.088,5.958 7.669,5.306l210.811,-38.385c3.581,-0.652 5.958,-4.088 5.306,-7.669l-56.837,-312.148Z" style="fill:#26d94f;"/><path d="M382.118,1322.29c-0.652,-3.581 -4.088,-5.958 -7.668,-5.307l-26.513,4.828c-3.581,0.652 -5.958,4.088 -5.306,7.669l4.48,24.604c0.652,3.581 4.088,5.958 7.668,5.306l26.513,-4.827c3.581,-0.652 5.958,-4.088 5.306,-7.669l-4.48,-24.604Z" style="fill:#fff;"/><g><path d="M358.741,1326.53l1.055,5.791c0.291,1.598 -0.771,3.132 -2.369,3.423l-5.791,1.054c-1.598,0.291 -3.132,-0.77 -3.423,-2.368l-1.054,-5.791c-0.291,-1.598 0.77,-3.132 2.368,-3.423l5.791,-1.055c1.598,-0.291 3.132,0.771 3.423,2.369Zm-8.035,2.032l0.854,4.689l4.689,-0.854l-0.852,-4.689l-4.691,0.854Zm17.838,7.189l0.716,3.931c0.197,1.085 -0.523,2.126 -1.608,2.324l-3.932,0.716c-1.084,0.197 -2.126,-0.523 -2.323,-1.608l-0.716,-3.932c-0.198,-1.085 0.523,-2.126 1.608,-2.323l3.931,-0.716c1.085,-0.198 2.126,0.523 2.324,1.608Zm-4.147,2.284l0.177,0.971l0.97,-0.177l-0.176,-0.97l-0.971,0.176Zm16.957,5.767l0.829,4.551c0.229,1.256 -0.605,2.461 -1.861,2.69l-4.552,0.829c-1.256,0.229 -2.461,-0.605 -2.69,-1.861l-0.829,-4.552c-0.228,-1.256 0.606,-2.461 1.862,-2.69l4.551,-0.829c1.256,-0.228 2.462,0.606 2.69,1.862Zm-5.443,2.2l0.402,2.21l2.21,-0.402l-0.402,-2.21l-2.21,0.402Zm-12.452,2.019l0.716,3.931c0.198,1.085 -0.523,2.126 -1.608,2.324l-3.931,0.716c-1.085,0.197 -2.126,-0.523 -2.324,-1.608l-0.716,-3.932c-0.197,-1.085 0.523,-2.126 1.608,-2.323l3.932,-0.716c1.085,-0.198 2.126,0.523 2.323,1.608Zm-4.147,2.284l0.177,0.971l0.971,-0.177l-0.176,-0.97l-0.972,0.176Zm18.908,-23.717l0.829,4.551c0.228,1.256 -0.606,2.461 -1.862,2.69l-4.551,0.829c-1.256,0.229 -2.462,-0.606 -2.69,-1.862l-0.829,-4.551c-0.229,-1.256 0.605,-2.461 1.861,-2.69l4.552,-0.829c1.256,-0.229 2.461,0.606 2.69,1.862Zm-5.443,2.2l0.402,2.21l2.21,-0.402l-0.403,-2.21l-2.209,0.402Z" style="fill:#4e4e4e;"/><path d="M379.788,1335.2c-0.083,-0.457 -0.522,-0.76 -0.978,-0.677l-7.641,1.391c-0.457,0.083 -0.76,0.522 -0.677,0.979l0.301,1.656c0.084,0.457 0.522,0.76 0.979,0.677l7.641,-1.391c0.456,-0.084 0.76,-0.522 0.677,-0.979l-0.302,-1.656Z" style="fill:#4e4e4e;"/><path d="M379.788,1335.2l0.302,1.656c0.083,0.457 -0.221,0.895 -0.677,0.979l-7.641,1.391c-0.457,0.083 -0.895,-0.22 -0.979,-0.677l-0.301,-1.656c-0.083,-0.457 0.22,-0.896 0.677,-0.979l7.641,-1.391c0.456,-0.083 0.895,0.22 0.978,0.677Z" style="fill:#4e4e4e;"/><path d="M377.154,1334.82c-0.457,0.084 -0.761,0.522 -0.678,0.979l0.772,4.24c0.084,0.457 0.522,0.761 0.979,0.677l1.656,-0.301c0.457,-0.083 0.76,-0.522 0.677,-0.979l-0.772,-4.24c-0.083,-0.457 -0.522,-0.76 -0.978,-0.677l-1.656,0.301Z" style="fill:#4e4e4e;"/><path d="M376.848,1334.94l0.204,2.262l0.007,0.006l-0.193,-2.279c0.086,-0.053 0.183,-0.091 0.288,-0.11l1.321,-0.24l0.242,2.487l0.006,-0.001l-0.225,-2.49l0.312,-0.057c0.456,-0.083 0.895,0.22 0.978,0.677l0.772,4.24c0.083,0.457 -0.22,0.896 -0.677,0.979l-1.656,0.301c-0.457,0.084 -0.895,-0.22 -0.979,-0.677l-0.772,-4.24c-0.062,-0.345 0.095,-0.679 0.372,-0.858Z" style="fill:#4e4e4e;"/><path d="M368.535,1343.25c-0.457,0.084 -0.761,0.522 -0.677,0.979l0.772,4.24c0.083,0.457 0.521,0.761 0.978,0.677l1.656,-0.301c0.457,-0.083 0.761,-0.522 0.677,-0.979l-0.772,-4.24c-0.083,-0.457 -0.521,-0.76 -0.978,-0.677l-1.656,0.301Z" style="fill:#4e4e4e;"/><path d="M368.229,1343.37l0.205,2.262l0.006,0.007l-0.193,-2.28c0.086,-0.053 0.183,-0.09 0.288,-0.11l1.321,-0.24l0.242,2.487l0.006,-0.001l-0.225,-2.49l0.312,-0.057c0.457,-0.083 0.895,0.22 0.978,0.677l0.772,4.24c0.084,0.457 -0.22,0.896 -0.677,0.979l-1.656,0.301c-0.457,0.084 -0.895,-0.22 -0.978,-0.677l-0.772,-4.24c-0.063,-0.345 0.094,-0.679 0.371,-0.858Zm1.895,2.37c-0.094,-0.024 -0.193,-0.044 -0.291,-0.058c-0.24,0.132 -0.456,0.299 -0.642,0.494c0.243,0.117 0.505,0.197 0.777,0.236c0.071,-0.039 0.14,-0.081 0.207,-0.127c0.159,-0.107 0.304,-0.23 0.434,-0.367c-0.154,-0.074 -0.318,-0.134 -0.485,-0.178Zm0,0l-0.015,-0.19l-0.006,0.003l0.021,0.187Z" style="fill:#4e4e4e;"/><path d="M376.484,1339.92c-0.083,-0.457 -0.522,-0.76 -0.979,-0.677l-3.629,0.661c-0.457,0.083 -0.76,0.522 -0.677,0.979l0.151,0.828c0.083,0.457 0.522,0.76 0.979,0.677l3.628,-0.661c0.457,-0.083 0.761,-0.522 0.678,-0.979l-0.151,-0.828Z" style="fill:#4e4e4e;"/><path d="M373.477,1339.62c-0.177,0.321 -0.289,0.678 -0.322,1.053l1.325,1.098c0.143,-0.337 0.217,-0.707 0.208,-1.088c-0.159,-0.453 -0.434,-0.842 -0.784,-1.14l1.601,-0.292c0.457,-0.083 0.896,0.22 0.979,0.677l0.151,0.828c0.083,0.457 -0.221,0.896 -0.678,0.979l-3.628,0.661c-0.457,0.083 -0.896,-0.22 -0.979,-0.677l-0.151,-0.828c-0.083,-0.457 0.22,-0.896 0.677,-0.979l1.601,-0.292Z" style="fill:#4e4e4e;"/><path d="M359.672,1337.98c-0.083,-0.457 -0.522,-0.76 -0.979,-0.677l-3.629,0.661c-0.457,0.083 -0.76,0.522 -0.677,0.979l1.234,6.776c0.083,0.457 0.522,0.76 0.979,0.677l3.628,-0.661c0.457,-0.083 0.761,-0.522 0.678,-0.979l-1.234,-6.776Z" style="fill:#4e4e4e;"/><path d="M359.672,1337.98l1.234,6.776c0.083,0.457 -0.221,0.896 -0.678,0.979l-3.628,0.661c-0.457,0.083 -0.896,-0.22 -0.979,-0.677l-1.234,-6.776c-0.083,-0.457 0.22,-0.896 0.677,-0.979l3.629,-0.661c0.457,-0.083 0.896,0.22 0.979,0.677Z" style="fill:#4e4e4e;"/><path d="M360.629,1343.24c-0.083,-0.457 -0.521,-0.76 -0.978,-0.677l-8.214,1.495c-0.457,0.083 -0.76,0.522 -0.677,0.979l0.276,1.517c0.084,0.456 0.522,0.76 0.979,0.677l8.213,-1.496c0.457,-0.083 0.761,-0.522 0.678,-0.979l-0.277,-1.516Z" style="fill:#4e4e4e;"/><path d="M360.629,1343.24l0.277,1.516c0.083,0.457 -0.221,0.896 -0.678,0.979l-8.213,1.496c-0.457,0.083 -0.895,-0.221 -0.979,-0.677l-0.276,-1.517c-0.083,-0.457 0.22,-0.896 0.677,-0.979l8.214,-1.495c0.457,-0.083 0.895,0.22 0.978,0.677Z" style="fill:#4e4e4e;"/><path d="M353.869,1339.04c-0.084,-0.457 -0.522,-0.76 -0.979,-0.677l-2.41,0.439c-0.457,0.083 -0.761,0.521 -0.678,0.978l0.521,2.859c0.083,0.457 0.522,0.761 0.979,0.678l2.41,-0.439c0.457,-0.084 0.76,-0.522 0.677,-0.979l-0.52,-2.859Z" style="fill:#4e4e4e;"/><path d="M353.869,1339.04l0.52,2.859c0.083,0.457 -0.22,0.895 -0.677,0.979l-2.41,0.439c-0.457,0.083 -0.896,-0.221 -0.979,-0.678l-0.521,-2.859c-0.083,-0.457 0.221,-0.895 0.678,-0.978l2.41,-0.439c0.457,-0.083 0.895,0.22 0.979,0.677Zm-2.762,1.98c0.315,0.332 0.712,0.58 1.152,0.715c0.363,-0.282 0.648,-0.654 0.825,-1.075c-0.314,-0.333 -0.712,-0.58 -1.151,-0.716c-0.364,0.282 -0.648,0.654 -0.826,1.076Z" style="fill:#4e4e4e;"/><path d="M354.686,1348.3c-0.083,-0.457 -0.522,-0.76 -0.979,-0.677l-1.568,0.286c-0.457,0.083 -0.761,0.521 -0.678,0.978l1.113,6.109c0.083,0.457 0.522,0.761 0.978,0.677l1.569,-0.285c0.457,-0.084 0.761,-0.522 0.677,-0.979l-1.112,-6.109Z" style="fill:#4e4e4e;"/><path d="M354.686,1348.3l1.112,6.109c0.084,0.457 -0.22,0.895 -0.677,0.979l-1.569,0.285c-0.456,0.084 -0.895,-0.22 -0.978,-0.677l-1.113,-6.109c-0.083,-0.457 0.221,-0.895 0.678,-0.978l1.568,-0.286c0.457,-0.083 0.896,0.22 0.979,0.677Z" style="fill:#4e4e4e;"/><path d="M363.345,1326.64c-0.083,-0.457 -0.522,-0.761 -0.979,-0.678l-1.568,0.286c-0.457,0.083 -0.761,0.522 -0.677,0.979l1.112,6.109c0.083,0.457 0.522,0.76 0.979,0.677l1.568,-0.286c0.457,-0.083 0.761,-0.522 0.677,-0.979l-1.112,-6.108Z" style="fill:#4e4e4e;"/><path d="M360.492,1326.37l0.214,2.372l0.006,0.005l-0.203,-2.388c0.086,-0.053 0.183,-0.091 0.289,-0.11l1.236,-0.225l0.32,3.314l-0.299,-3.318l0.311,-0.057c0.457,-0.083 0.896,0.221 0.979,0.678l1.112,6.108c0.084,0.457 -0.22,0.896 -0.677,0.979l-1.568,0.286c-0.457,0.083 -0.896,-0.22 -0.979,-0.677l-1.112,-6.109c-0.063,-0.345 0.094,-0.679 0.371,-0.858Z" style="fill:#4e4e4e;"/><path d="M367.992,1329.32c-0.083,-0.457 -0.522,-0.76 -0.979,-0.677l-5.595,1.018c-0.456,0.084 -0.76,0.522 -0.677,0.979l0.492,2.7c0.083,0.457 0.522,0.76 0.979,0.677l5.594,-1.019c0.457,-0.083 0.761,-0.522 0.677,-0.979l-0.491,-2.699Z" style="fill:#4e4e4e;"/><path d="M367.992,1329.32l0.491,2.699c0.084,0.457 -0.22,0.896 -0.677,0.979l-5.594,1.019c-0.457,0.083 -0.896,-0.22 -0.979,-0.677l-0.492,-2.7c-0.083,-0.457 0.221,-0.895 0.677,-0.979l5.595,-1.018c0.457,-0.083 0.896,0.22 0.979,0.677Z" style="fill:#4e4e4e;"/><path d="M376.817,1321.19c-0.083,-0.457 -0.522,-0.761 -0.979,-0.677l-11.325,2.062c-0.457,0.083 -0.76,0.522 -0.677,0.978l0.339,1.866c0.084,0.457 0.522,0.76 0.979,0.677l11.325,-2.062c0.457,-0.083 0.761,-0.522 0.678,-0.979l-0.34,-1.865Z" style="fill:#4e4e4e;"/><path d="M376.817,1321.19l0.34,1.865c0.083,0.457 -0.221,0.896 -0.678,0.979l-11.325,2.062c-0.457,0.083 -0.895,-0.22 -0.979,-0.677l-0.339,-1.866c-0.083,-0.456 0.22,-0.895 0.677,-0.978l11.325,-2.062c0.457,-0.084 0.896,0.22 0.979,0.677Z" style="fill:#4e4e4e;"/><path d="M366.871,1327.07c-0.083,-0.457 -0.522,-0.76 -0.979,-0.677l-0.933,0.17c-0.457,0.083 -0.76,0.521 -0.677,0.978l0.071,0.392c0.084,0.457 0.522,0.76 0.979,0.677l0.933,-0.17c0.457,-0.083 0.76,-0.522 0.677,-0.978l-0.071,-0.392Z" style="fill:#4e4e4e;"/><path d="M365.745,1326.42l0.108,1.147c0.223,-0.404 0.452,-0.767 0.67,-1.037c0.176,0.122 0.306,0.312 0.348,0.54l0.071,0.392c0.083,0.456 -0.22,0.895 -0.677,0.978l-0.933,0.17c-0.457,0.083 -0.895,-0.22 -0.979,-0.677l-0.071,-0.392c-0.083,-0.457 0.22,-0.895 0.677,-0.978l0.786,-0.143Z" style="fill:#4e4e4e;"/><path d="M362.499,1323.8c-0.083,-0.457 -0.522,-0.76 -0.979,-0.677l-0.933,0.17c-0.457,0.083 -0.76,0.521 -0.677,0.978l0.071,0.392c0.084,0.457 0.522,0.76 0.979,0.677l0.933,-0.17c0.457,-0.083 0.76,-0.522 0.677,-0.979l-0.071,-0.391Z" style="fill:#4e4e4e;"/><path d="M360.283,1323.41l0.169,1.861c-0.238,-0.112 -0.42,-0.333 -0.471,-0.611l-0.071,-0.392c-0.063,-0.345 0.095,-0.679 0.373,-0.858Zm0.169,1.861l-0.161,-1.867c0.088,-0.055 0.188,-0.095 0.296,-0.114l0.786,-0.143l0.108,1.147c0.224,-0.404 0.452,-0.767 0.67,-1.037c0.176,0.122 0.306,0.312 0.348,0.54l0.071,0.391c0.083,0.457 -0.22,0.896 -0.677,0.979l-0.933,0.17c-0.178,0.032 -0.354,0.006 -0.508,-0.066Z" style="fill:#4e4e4e;"/><path d="M364.657,1343.79c-0.457,0.083 -0.761,0.521 -0.678,0.978l1.454,7.984c0.083,0.457 0.522,0.76 0.979,0.677l0.93,-0.17c0.457,-0.083 0.761,-0.521 0.677,-0.978l-1.453,-7.984c-0.083,-0.456 -0.522,-0.76 -0.979,-0.677l-0.93,0.17Z" style="fill:#4e4e4e;"/><path d="M364.351,1343.91l0.267,2.953l-0.257,-2.959c0.088,-0.055 0.187,-0.095 0.296,-0.114l0.606,-0.111l0.322,3.427l-0.309,-3.429l0.311,-0.057c0.457,-0.083 0.896,0.221 0.979,0.677l1.453,7.984c0.084,0.457 -0.22,0.895 -0.677,0.978l-0.93,0.17c-0.457,0.083 -0.896,-0.22 -0.979,-0.677l-1.454,-7.984c-0.062,-0.344 0.095,-0.679 0.372,-0.858Z" style="fill:#4e4e4e;"/><path d="M372.425,1350.52c-0.083,-0.457 -0.522,-0.76 -0.979,-0.677l-5.505,1.002c-0.457,0.084 -0.761,0.522 -0.677,0.979l0.169,0.931c0.083,0.457 0.522,0.76 0.979,0.677l5.505,-1.003c0.457,-0.083 0.76,-0.521 0.677,-0.978l-0.169,-0.931Z" style="fill:#4e4e4e;"/><path d="M372.425,1350.52l0.169,0.931c0.083,0.457 -0.22,0.895 -0.677,0.978l-5.505,1.003c-0.457,0.083 -0.896,-0.22 -0.979,-0.677l-0.169,-0.931c-0.084,-0.457 0.22,-0.895 0.677,-0.979l5.505,-1.002c0.457,-0.083 0.896,0.22 0.979,0.677Z" style="fill:#4e4e4e;"/></g><g><g><path d="M358.599,1226.77c0.209,0.978 0.404,1.961 0.585,2.952c9.386,51.548 -24.383,100.935 -75.363,110.217c-50.979,9.283 -99.989,-25.032 -109.375,-76.58c-8.265,-45.391 16.934,-89.104 57.877,-105.239c2.582,-1.017 5.226,-1.925 7.928,-2.717c1.53,-0.448 3.177,-0.24 4.556,0.573c1.379,0.814 2.368,2.163 2.737,3.731c0.078,0.332 0.163,0.664 0.255,0.995c2.89,10.473 11.721,17.689 21.775,18.95c2.493,0.312 4.512,2.207 5.006,4.697c0.126,0.639 0.278,1.279 0.454,1.917c3.826,13.861 18.057,22.02 31.76,18.208c1.809,-0.504 3.52,-1.19 5.118,-2.035c2.704,-1.431 6.051,-0.496 7.657,2.138c5.881,9.644 17.554,14.655 28.868,11.508c0.342,-0.095 0.68,-0.196 1.015,-0.305c1.489,-0.48 3.109,-0.333 4.494,0.409c1.385,0.742 2.417,2.015 2.864,3.533c0.68,2.308 1.277,4.659 1.789,7.048Z" style="fill:#28b348;"/><path d="M351.239,1221.38c0.899,3.053 1.645,6.184 2.228,9.386c8.806,48.359 -22.873,94.689 -70.698,103.397c-47.825,8.708 -93.801,-23.483 -102.607,-71.841c-8.242,-45.265 18.988,-88.754 61.728,-101.273c0.095,0.405 0.199,0.81 0.31,1.214c3.542,12.832 14.361,21.676 26.681,23.221c0.155,0.781 0.339,1.563 0.555,2.343c4.688,16.986 22.128,26.985 38.921,22.314c2.216,-0.617 4.311,-1.458 6.267,-2.493c7.206,11.818 21.512,17.961 35.376,14.104c0.417,-0.116 0.831,-0.24 1.239,-0.372Z" style="fill:#854a1c;"/><path d="M352.918,1227.99c0.197,0.918 0.38,1.842 0.549,2.771c8.806,48.359 -22.873,94.689 -70.698,103.397c-47.825,8.708 -93.801,-23.483 -102.607,-71.841c-7.753,-42.581 15.883,-83.59 54.292,-98.725c-0.076,3.089 0.295,6.244 1.16,9.378c3.542,12.832 14.361,21.676 26.68,23.22c0.155,0.782 0.34,1.563 0.555,2.344c4.689,16.986 22.129,26.984 38.921,22.313c2.216,-0.617 4.311,-1.458 6.267,-2.493c7.207,11.819 21.512,17.961 35.376,14.104c3.492,-0.971 6.684,-2.501 9.505,-4.468Z" style="fill:#522501;"/><path d="M345.986,1240.9c3.015,40.348 -24.544,77.259 -64.797,84.589c-43.089,7.846 -84.513,-21.158 -92.447,-64.728c-6.28,-34.492 10.296,-67.841 38.856,-84.131c4.241,13.608 14.976,23.499 27.752,27.115c7.079,19.918 28.3,31.301 48.766,25.608c0.35,-0.098 0.696,-0.199 1.041,-0.305c9.934,11.002 25.474,16.124 40.602,11.916c0.076,-0.021 0.152,-0.042 0.227,-0.064Z" style="fill:#622b00;"/></g><path d="M272.436,1161.37c-1.249,-0.623 -3.896,-3.134 -4.473,-3.74c-1.032,-1.083 -1.717,-2.334 -1.852,-3.513c-0.304,-2.93 1.467,-6.564 4.1,-8.564c1.994,-1.516 4.432,-2.093 6.808,-1.102c1.467,0.611 3.266,1.955 4.547,3.564c0.956,1.2 1.606,2.551 1.761,3.837c0.289,2.48 -1.847,6.24 -4.697,8.291c-2.031,1.462 -4.39,2.127 -6.194,1.227Zm17.622,22.259c-0.109,-0.901 0.121,-2.836 0.173,-3.295c0.106,-0.928 0.497,-1.729 1.014,-2.26c1.226,-1.214 3.534,-1.742 5.413,-1.271c1.515,0.379 2.71,1.38 3.153,2.922c0.252,0.88 0.294,2.175 0.029,3.331c-0.211,0.919 -0.635,1.738 -1.195,2.304c-1.052,1.049 -3.587,1.532 -5.593,0.946c-1.528,-0.447 -2.841,-1.404 -2.994,-2.677Zm34.69,9.773c-0.398,-2.2 -0.035,-6.764 1.657,-8.589c1.819,-1.961 5.504,-2.647 8.411,-1.895c2.222,0.576 4.013,2.011 4.648,4.282c0.388,1.387 0.441,3.421 0.014,5.235c-0.321,1.366 -0.928,2.595 -1.765,3.434c-1.611,1.602 -5.5,2.211 -8.57,1.325c-2.211,-0.638 -4.065,-1.968 -4.395,-3.792Zm11.634,-12.458c-0.086,-0.807 -0.017,-2.479 0.174,-3.534c0.176,-0.97 0.523,-1.829 1.07,-2.388c1.31,-1.293 3.773,-1.852 5.776,-1.347c1.601,0.403 2.869,1.456 3.334,3.087c0.269,0.942 0.312,2.326 0.028,3.562c-0.225,0.973 -0.67,1.841 -1.264,2.441c-1.12,1.116 -3.819,1.614 -5.954,0.991c-1.611,-0.469 -3.021,-1.468 -3.164,-2.812Z" style="fill:#28b348;"/><path d="M111.573,1162.51l-29.627,5.394l0.869,4.77l29.626,-5.394l-0.868,-4.77Z" style="fill:#002208;"/><path d="M102.216,1175.44l-18.292,3.331l0.869,4.77l18.292,-3.33l-0.869,-4.771Z" style="fill:#002208;"/><path d="M104.001,1185.24l-18.293,3.331l0.869,4.77l18.292,-3.331l-0.868,-4.77Z" style="fill:#002208;"/><path d="M112.966,1193.61l-25.495,4.642l0.869,4.77l25.494,-4.642l-0.868,-4.77Z" style="fill:#002208;"/><path d="M114.793,1203.64l-25.495,4.642l0.869,4.77l25.494,-4.642l-0.868,-4.77Z" style="fill:#002208;"/><path d="M120.538,1213.09l-29.391,5.351l0.869,4.77l29.39,-5.351l-0.868,-4.77Z" style="fill:#002208;"/><path d="M122.43,1223.48l-29.391,5.351l0.869,4.77l29.39,-5.351l-0.868,-4.77Z" style="fill:#002208;"/><path d="M124.45,1234.58l-29.39,5.351l0.868,4.77l29.391,-5.351l-0.869,-4.77Z" style="fill:#002208;"/><path d="M130.335,1266.9l-29.39,5.352l0.868,4.77l29.391,-5.352l-0.869,-4.77Z" style="fill:#002208;"/><path d="M132.243,1277.38l-29.39,5.351l0.868,4.77l29.391,-5.351l-0.869,-4.77Z" style="fill:#002208;"/><path d="M122.895,1288.84l-18.322,3.337l0.868,4.77l18.322,-3.336l-0.868,-4.771Z" style="fill:#002208;"/><path d="M136.597,1301.28l-18.322,3.336l0.573,3.147l18.322,-3.336l-0.573,-3.147Z" style="fill:#002208;"/><path d="M139.499,1317.22l-18.322,3.336l0.573,3.147l18.322,-3.336l-0.573,-3.147Z" style="fill:#002208;"/><path d="M142.643,1334.49l-18.322,3.336l0.573,3.147l18.322,-3.336l-0.573,-3.147Z" style="fill:#002208;"/><path d="M145.518,1350.28l-18.322,3.337l0.573,3.146l18.322,-3.336l-0.573,-3.147Z" style="fill:#002208;"/><path d="M110.7,1303.34c2.188,-0.399 4.287,1.054 4.686,3.242c0.398,2.187 -1.055,4.287 -3.242,4.685c-2.188,0.398 -4.287,-1.054 -4.686,-3.242c-0.398,-2.187 1.055,-4.287 3.242,-4.685Z" style="fill:#ffde00;"/><path d="M113.764,1320.16c2.187,-0.398 4.287,1.055 4.685,3.242c0.398,2.188 -1.054,4.287 -3.242,4.685c-2.187,0.399 -4.287,-1.054 -4.685,-3.241c-0.398,-2.188 1.054,-4.287 3.242,-4.686Z" style="fill:#ffde00;"/><path d="M116.773,1336.69c2.188,-0.398 4.288,1.055 4.686,3.242c0.398,2.188 -1.055,4.287 -3.242,4.686c-2.188,0.398 -4.287,-1.055 -4.685,-3.242c-0.399,-2.188 1.054,-4.287 3.241,-4.686Z" style="fill:#ffde00;"/><path d="M119.729,1352.92c2.188,-0.398 4.287,1.055 4.686,3.242c0.398,2.188 -1.055,4.287 -3.242,4.686c-2.188,0.398 -4.287,-1.055 -4.685,-3.242c-0.399,-2.188 1.054,-4.287 3.241,-4.686Z" style="fill:#ffde00;"/><path d="M272.612,1159.54c-1.593,-1.033 -4.746,-3.369 -4.952,-5.569c-0.387,-4.138 4.289,-9.851 8.698,-7.971c2.095,0.893 4.955,3.578 5.24,6.051c0.4,3.477 -5.521,9.735 -8.986,7.489Zm19.041,23.357c-0.087,-0.952 -0.145,-2.929 0.663,-3.696c1.519,-1.443 5.238,-1.371 5.868,0.962c0.299,1.107 0.126,3.077 -0.765,3.96c-1.252,1.243 -5.576,0.847 -5.766,-1.226Zm34.653,9.57c-0.154,-1.682 -0.255,-5.173 1.171,-6.527c2.681,-2.547 9.249,-2.419 10.36,1.698c0.528,1.957 0.223,5.434 -1.349,6.994c-2.212,2.193 -9.847,1.494 -10.182,-2.165Zm11.667,-12.279c-0.095,-1.041 -0.158,-3.201 0.724,-4.04c1.66,-1.576 5.725,-1.497 6.412,1.052c0.327,1.21 0.138,3.362 -0.835,4.328c-1.369,1.357 -6.094,0.924 -6.301,-1.34Z" style="fill:#854a1c;"/></g><path d="M175.741,1219.98c-0.423,1.42 -0.216,2.955 0.57,4.211c34.249,54.626 86.509,77.027 154.812,90.984c1.988,0.406 4.04,-0.299 5.358,-1.842c11.271,-13.317 18.813,-27.825 21.936,-45.009c0.255,-1.462 -0.097,-2.965 -0.973,-4.162c-0.877,-1.197 -2.203,-1.985 -3.674,-2.184c-63.643,-8.676 -110.12,-35.502 -145.006,-84.623c-0.944,-1.338 -2.445,-2.174 -4.079,-2.271c-1.634,-0.097 -3.224,0.554 -4.319,1.771c-10.153,11.429 -19.201,25.022 -24.625,43.125Z" style="fill:#ffde00;"/><path d="M208.514,1262.35c30.589,-0.272 38.883,-30.368 86.325,-15.582c4.222,1.719 8.542,3.312 12.964,4.781c-36.265,13.241 -49.039,43.878 -82.034,24.134c-6.021,-4.076 -11.774,-8.505 -17.255,-13.333Z" style="fill:#cfffda;"/><g><path d="M168.711,1094.86l-0.245,-1.341c-0.934,-5.13 2.473,-10.054 7.604,-10.989l18.592,-3.385c5.131,-0.934 10.055,2.473 10.989,7.604l0.433,2.378l4.108,-0.748c5.131,-0.934 10.055,2.473 10.989,7.603l3.385,18.593c0.934,5.13 -2.473,10.054 -7.603,10.989l-4.108,0.747l0.401,2.206c0.935,5.13 -2.472,10.054 -7.603,10.989l-18.592,3.385c-5.131,0.934 -10.055,-2.473 -10.989,-7.604l-0.591,-3.243l-4.28,0.78c-5.131,0.934 -10.055,-2.473 -10.989,-7.604l-3.386,-18.592c-0.934,-5.131 2.473,-10.055 7.604,-10.989l4.281,-0.779Z" style="fill:#fff;"/><g transform="matrix(0.983824,-0.179138,0.179138,0.983824,-134.708,-29.8925)"><g transform="matrix(34.6065,0,0,34.6065,127.86,1193.24)"></g><text x="103.462px" y="1193.24px" style="font-family:'TitanOne', 'Titan One';font-size:34.607px;fill:#26d94f;">B</text></g></g></g></g></svg>