<?xml version="1.0" encoding="UTF-8" standalone="no"?>
<svg
   width="100%"
   height="100%"
   viewBox="0 0 300 345"
   version="1.1"
   xml:space="preserve"
   style="fill-rule:evenodd;clip-rule:evenodd;stroke-linejoin:round;stroke-miterlimit:2;"
   id="svg32209"
   sodipodi:docname="jackolantern.svg"
   inkscape:version="1.2 (dc2aedaf03, 2022-05-15)"
   xmlns:inkscape="http://www.inkscape.org/namespaces/inkscape"
   xmlns:sodipodi="http://sodipodi.sourceforge.net/DTD/sodipodi-0.dtd"
   xmlns="http://www.w3.org/2000/svg"
   xmlns:svg="http://www.w3.org/2000/svg"><defs
   id="defs32213"><inkscape:path-effect
     effect="fillet_chamfer"
     id="path-effect45904"
     is_visible="true"
     lpeversion="1"
     nodesatellites_param="F,0,0,1,0,0,0,1 @ F,0,0,1,0,0,0,1 @ F,0,0,1,0,0.34704967,0,1 @ F,0,0,1,0,0.38493187,0,1 @ F,0,0,1,0,0,0,1 @ F,0,0,1,0,0,0,1"
     unit="px"
     method="auto"
     mode="F"
     radius="0"
     chamfer_steps="1"
     flexible="false"
     use_knot_distance="true"
     apply_no_radius="true"
     apply_with_radius="true"
     only_selected="false"
     hide_knots="false" /><inkscape:path-effect
     effect="fillet_chamfer"
     id="path-effect29379"
     is_visible="true"
     lpeversion="1"
     nodesatellites_param="F,0,0,1,0,4,0,1 @ F,0,0,1,0,4,0,1 @ F,0,0,1,0,4,0,1 @ F,0,0,1,0,4,0,1"
     unit="px"
     method="auto"
     mode="F"
     radius="4"
     chamfer_steps="1"
     flexible="false"
     use_knot_distance="true"
     apply_no_radius="true"
     apply_with_radius="true"
     only_selected="false"
     hide_knots="false" /><inkscape:path-effect
     effect="fillet_chamfer"
     id="path-effect29383"
     is_visible="true"
     lpeversion="1"
     nodesatellites_param="F,0,0,1,0,4,0,1 @ F,0,0,1,0,4,0,1 @ F,0,0,1,0,4,0,1 @ F,0,0,1,0,4,0,1"
     unit="px"
     method="auto"
     mode="F"
     radius="4"
     chamfer_steps="1"
     flexible="false"
     use_knot_distance="true"
     apply_no_radius="true"
     apply_with_radius="true"
     only_selected="false"
     hide_knots="false" /><clipPath
     clipPathUnits="userSpaceOnUse"
     id="clipPath28126"><path
       style="opacity:1;fill:#757575;fill-opacity:1;stroke:none;stroke-width:2.58704;stroke-linecap:round;stroke-linejoin:round;stroke-dasharray:none;stroke-dashoffset:459.891;stroke-opacity:1;stop-color:#000000"
       d="m 63.088458,139.88154 -40.67654,-34.36807 -21.0197896,12.47084 -1.15500416,18.1172 -0.25389955,14.30977 13.02755531,2.97621 30.955142,-1.11725 z"
       id="path28128" /></clipPath><clipPath
     clipPathUnits="userSpaceOnUse"
     id="clipPath28076"><ellipse
       style="opacity:1;fill:#000000;fill-opacity:1;stroke:none;stroke-width:0.944682;stroke-linecap:round;stroke-linejoin:round;stroke-dasharray:none;stroke-dashoffset:459.891;stroke-opacity:1;stop-color:#000000"
       id="ellipse28078"
       cx="30.471481"
       cy="16.908646"
       rx="21.662758"
       ry="11.554724" /></clipPath><linearGradient
     id="linear-gradient"
     x1="150"
     y1="358.06"
     x2="150"
     y2="201.46001"
     gradientUnits="userSpaceOnUse"><stop
       offset="0"
       stop-color="#fabc2e"
       id="stop31210" /><stop
       offset="1"
       stop-color="#cd8029"
       id="stop31212" /></linearGradient><inkscape:path-effect
     effect="fillet_chamfer"
     id="path-effect87583"
     is_visible="true"
     lpeversion="1"
     nodesatellites_param="F,0,0,1,0,0,0,1 @ F,0,0,1,0,0,0,1 @ F,0,0,1,0,0.34704967,0,1 @ F,0,0,1,0,0.38493187,0,1 @ F,0,0,1,0,0,0,1 @ F,0,0,1,0,0,0,1"
     unit="px"
     method="auto"
     mode="F"
     radius="0"
     chamfer_steps="1"
     flexible="false"
     use_knot_distance="true"
     apply_no_radius="true"
     apply_with_radius="true"
     only_selected="false"
     hide_knots="false" /><inkscape:path-effect
     effect="fillet_chamfer"
     id="path-effect25636"
     is_visible="true"
     lpeversion="1"
     nodesatellites_param="F,0,0,1,0,0,0,1 @ F,0,0,1,0,0,0,1 @ F,0,0,1,0,0.34704967,0,1 @ F,0,0,1,0,0.38493187,0,1 @ F,0,0,1,0,0,0,1 @ F,0,0,1,0,0,0,1"
     unit="px"
     method="auto"
     mode="F"
     radius="0"
     chamfer_steps="1"
     flexible="false"
     use_knot_distance="true"
     apply_no_radius="true"
     apply_with_radius="true"
     only_selected="false"
     hide_knots="false" /></defs><sodipodi:namedview
   id="namedview32211"
   pagecolor="#505050"
   bordercolor="#ffffff"
   borderopacity="1"
   inkscape:showpageshadow="0"
   inkscape:pageopacity="0"
   inkscape:pagecheckerboard="1"
   inkscape:deskcolor="#505050"
   showgrid="false"
   inkscape:zoom="0.57275649"
   inkscape:cx="78.56742"
   inkscape:cy="197.29152"
   inkscape:window-width="1366"
   inkscape:window-height="705"
   inkscape:window-x="-8"
   inkscape:window-y="-8"
   inkscape:window-maximized="1"
   inkscape:current-layer="svg32209" />
    
<g
   id="g45998"
   transform="matrix(1.1204798,0,0,1.1204798,134.05611,-25.27566)"><path
     id="path25590"
     style="fill:none;fill-opacity:1;stroke:#c44b06;stroke-width:3;stroke-linecap:round;stroke-linejoin:round;stroke-dasharray:none;stroke-dashoffset:459.891;stroke-opacity:1;stop-color:#000000"
     d="m -76.090009,243.03022 c -0.1137,0.002 -0.22689,0.0129 -0.33755,0.0336 -0.11067,0.0207 -0.21881,0.0485 -0.32424,0.0869 -0.0983,0.0356 -0.19221,0.0829 -0.28412,0.13369 a 2.0147698,2.0147698 0 0 0 -0.0433,0.0232 c -0.0895,0.0524 -0.17625,0.11086 -0.25735,0.17716 l -3.6967,3.03145 -2.61703,2.14242 a 1.865336,1.865336 0 0 0 0.13033,2.98135 l 6.29358,4.30157 -0.28413,2.36302 c -1.00398,-0.25528 -2.19214,-0.34971 -3.58965,-0.26072 -1.88035,-0.25903 -3.74001,-0.63863 -5.7254,-0.26738 -0.30469,-0.15917 -0.61935,-0.29933 -0.94253,-0.41109 -0.11681,-0.0401 -0.23472,-0.077 -0.35431,-0.11028 h -0.003 c -0.12062,-0.0336 -0.2408,-0.064 -0.36433,-0.0902 -0.1604,-0.0336 -0.32753,-0.0647 -0.49466,-0.0902 -0.16712,-0.0259 -0.33483,-0.0453 -0.50804,-0.0634 -0.34648,-0.0369 -0.70604,-0.0614 -1.07289,-0.0702 -0.18343,-0.004 -0.36731,-0.005 -0.55481,-0.003 -0.37506,0.004 -0.75892,0.0194 -1.14641,0.0466 -0.19262,0.0136 -0.39015,0.0317 -0.58489,0.0498 -0.19481,0.0188 -0.39201,0.0401 -0.58824,0.0634 -0.19624,0.0239 -0.3979,0.0491 -0.59491,0.0768 -0.0311,0.005 -0.0621,0.0123 -0.0936,0.0168 -0.33173,0.0485 -0.66486,0.1009 -0.99601,0.16046 -0.0324,0.006 -0.068,0.011 -0.10026,0.0168 -0.0226,0.004 -0.0446,0.009 -0.0668,0.0136 -1.55753,0.28847 -3.0878,0.68757 -4.42523,1.10631 -0.338321,0.10594 -0.668041,0.21389 -0.979301,0.32087 -0.3111,0.10698 -0.6103,0.21576 -0.88906,0.32086 -1.11688,0.42131 -1.95384,0.81679 -2.33962,1.0896 -0.14864,0.1051 -0.2952,0.21182 -0.43788,0.32086 -0.0239,0.0181 -0.0466,0.0381 -0.0702,0.0569 -0.59342,0.45959 -1.13467,0.95058 -1.6277,1.47396 -0.008,0.008 -0.0162,0.0155 -0.0233,0.0233 -0.35599,0.37972 -0.68595,0.77696 -0.99267,1.18652 -0.02,0.0265 -0.0401,0.0537 -0.0601,0.0802 -0.0349,0.0472 -0.0662,0.0964 -0.10025,0.14371 -0.0996,0.1386 -0.19643,0.27947 -0.2908,0.42112 -0.11803,0.17708 -0.23089,0.3565 -0.34091,0.53811 -0.0563,0.0932 -0.1128,0.1864 -0.16713,0.28077 -0.0582,0.10077 -0.11467,0.20212 -0.17049,0.30418 -0.0537,0.0984 -0.10549,0.19785 -0.1571,0.29746 -0.11869,0.22883 -0.23323,0.4605 -0.34092,0.6952 -0.0252,0.0543 -0.0491,0.10904 -0.0735,0.16376 -0.0634,0.14164 -0.12457,0.28426 -0.18381,0.42785 -0.069,0.167 -0.13667,0.33516 -0.20057,0.50467 -2.30851,6.12644 -1.35534,13.86471 -0.0602,20.0907 1.90045,9.13567 6.90793,18.7643 14.298451,24.66298 0.0472,0.0375 0.0933,0.0764 0.14035,0.11364 0.20567,0.16214 0.41238,0.3217 0.62169,0.47797 0.0964,0.0722 0.19357,0.143 0.29079,0.21389 0.10264,0.0747 0.20399,0.15069 0.30747,0.22391 0.21183,0.15031 0.42636,0.29707 0.64173,0.44117 0.10052,0.0671 0.2029,0.13149 0.30412,0.1972 0.53624,0.34874 1.08331,0.68098 1.64108,0.98932 0.005,0.003 0.0116,0.004 0.0168,0.006 0.30509,0.16836 0.61108,0.33238 0.92248,0.488 0.39383,0.19681 0.79667,0.36219 1.20993,0.49801 h 0.003 c 0.68782,0.22573 1.40051,0.37268 2.12905,0.45456 h 0.003 c 0.29079,0.0324 0.58358,0.0537 0.87903,0.0668 h 0.003 c 0.29544,0.0129 0.59665,0.0175 0.89574,0.0136 0.003,-5e-5 0.006,5e-5 0.0103,0 1.49689,-0.0226 3.03557,-0.25069 4.54556,-0.55817 0.9076,-0.18491 1.80898,-0.39952 2.68388,-0.61496 0.0103,-0.002 0.02,-0.004 0.0304,-0.006 0.009,-0.002 0.0175,-0.004 0.0265,-0.006 h 0.003 c 0.34584,-0.0853 0.67856,-0.17004 1.01607,-0.25399 0.21149,-0.0524 0.43075,-0.10608 0.63837,-0.15711 0.4477,0.0272 0.8984,0.0414 1.34695,0.0466 0.44854,-0.005 0.89592,-0.0194 1.34362,-0.0466 1.15669,0.28407 2.362507,0.56432 3.589654,0.79882 0.254893,0.0485 0.509207,0.0962 0.765392,0.14035 h 0.0034 c 2.535896,0.43657 5.14329,0.63197 7.597096,0.19048 h 0.0034 c 0.143331,-0.0259 0.28892,-0.053 0.431144,-0.0836 0.573178,-0.12205 1.136093,-0.2809 1.68787,-0.48127 0.820667,-0.29804 1.642615,-0.62984 2.463293,-0.98933 0.03881,-0.0168 0.07832,-0.033 0.116999,-0.0504 0.23465,-0.10361 0.471181,-0.20897 0.70523,-0.3175 0.108399,-0.0504 0.215957,-0.10245 0.324227,-0.15374 0.163119,-0.0773 0.328693,-0.15432 0.491362,-0.23394 0.0078,-0.004 0.0155,-0.01 0.02325,-0.0136 0.263818,-0.12942 0.526479,-0.26221 0.788792,-0.39777 0.07677,-0.0394 0.153997,-0.0801 0.23064,-0.1203 1.00133,-0.52512 1.989484,-1.09352 2.954614,-1.70459 0.01358,-0.008 0.02652,-0.0181 0.0401,-0.0265 h 0.0034 c 5.696398,-3.61659 10.577079,-8.69494 12.550413,-14.76972 3.165677,-9.74533 2.637123,-23.3937 -2.222641,-32.58427 -0.01487,-0.0285 -0.03169,-0.0556 -0.04657,-0.0836 -0.08369,-0.15691 -0.167775,-0.31369 -0.253991,-0.46795 -0.06798,-0.12165 -0.13427,-0.24105 -0.203864,-0.36096 -0.03493,-0.0595 -0.06856,-0.11785 -0.103614,-0.17715 -0.0725,-0.1227 -0.146431,-0.24352 -0.220616,-0.36434 -0.0065,-0.011 -0.01293,-0.0226 -0.02005,-0.0336 -0.103743,-0.16835 -0.210462,-0.33671 -0.317503,-0.50138 -0.03234,-0.0491 -0.06468,-0.0979 -0.09695,-0.14708 -0.08292,-0.12548 -0.165769,-0.24784 -0.250691,-0.37099 -0.0304,-0.044 -0.0595,-0.0869 -0.09023,-0.13033 -0.08803,-0.1258 -0.177282,-0.25101 -0.267379,-0.37435 -0.02846,-0.0394 -0.05821,-0.0779 -0.08693,-0.117 -0.09339,-0.12612 -0.188471,-0.25095 -0.284129,-0.37436 -0.02716,-0.0349 -0.05303,-0.0692 -0.0802,-0.10361 -0.09947,-0.12671 -0.198949,-0.25063 -0.300817,-0.37436 -0.02328,-0.0285 -0.05045,-0.0589 -0.07354,-0.0869 -0.104908,-0.12592 -0.210139,-0.25166 -0.317504,-0.37435 -0.02264,-0.0259 -0.04463,-0.0517 -0.06688,-0.0769 -0.110922,-0.12541 -0.223979,-0.24914 -0.337554,-0.37099 -0.02005,-0.0213 -0.0401,-0.042 -0.06015,-0.0634 -0.255348,-0.27145 -0.516776,-0.53269 -0.785448,-0.78544 -0.01358,-0.0123 -0.02652,-0.0246 -0.0401,-0.0368 -0.131361,-0.12283 -0.263175,-0.24274 -0.397769,-0.36097 -0.01035,-0.009 -0.02005,-0.0181 -0.0304,-0.0265 -0.137182,-0.11992 -0.277339,-0.23925 -0.417819,-0.35431 -0.0078,-0.006 -0.01553,-0.0136 -0.02328,-0.0201 -0.144943,-0.11823 -0.292732,-0.23142 -0.441168,-0.34428 -0.0037,-0.003 -0.0063,-0.007 -0.01035,-0.0103 -0.152251,-0.11558 -0.305279,-0.22779 -0.461218,-0.33755 -0.170878,-0.1203 -0.344797,-0.23594 -0.521432,-0.34758 -0.106007,-0.067 -0.21292,-0.12994 -0.320867,-0.19384 -0.01423,-0.008 -0.02911,-0.0149 -0.04333,-0.0232 -0.12942,-0.076 -0.25897,-0.15232 -0.391042,-0.22392 -0.03169,-0.0175 -0.06494,-0.033 -0.09695,-0.0504 -0.115903,-0.0614 -0.233164,-0.12211 -0.350942,-0.18051 -0.149147,-0.0739 -0.2992,-0.14857 -0.451192,-0.21726 h -0.0034 c -0.191058,-0.0863 -0.383022,-0.16913 -0.578219,-0.24733 -0.02199,-0.009 -0.04463,-0.0181 -0.06681,-0.0265 -0.173207,-0.0684 -0.348613,-0.13175 -0.524731,-0.19383 -0.01229,-0.005 -0.02458,-0.009 -0.03687,-0.0136 -0.136212,-0.0478 -0.273264,-0.0931 -0.411092,-0.13705 -0.09217,-0.0291 -0.184526,-0.0595 -0.277404,-0.0869 -0.1626,-0.0485 -0.326817,-0.0934 -0.491292,-0.13705 -0.164541,-0.0434 -0.32837,-0.085 -0.494657,-0.12367 -0.0078,-0.002 -0.01553,-0.005 -0.02328,-0.006 -0.08673,-0.0201 -0.17353,-0.0381 -0.260716,-0.0569 -0.155421,-0.0336 -0.311295,-0.064 -0.467944,-0.0936 -0.0056,-0.001 -0.011,-0.002 -0.01682,-0.003 -0.20477,-0.0381 -0.411739,-0.0726 -0.618321,-0.10362 -0.0056,-5.6e-4 -0.011,-0.002 -0.01682,-0.003 -0.419436,-0.0627 -0.842112,-0.1093 -1.266745,-0.14371 -0.0065,-5.4e-4 -0.01359,5.2e-4 -0.02005,0 -0.208846,-0.0168 -0.418793,-0.0336 -0.628346,-0.0433 -0.0414,-0.002 -0.08247,-0.002 -0.123666,-0.003 -0.0769,-0.003 -0.15361,-0.005 -0.23064,-0.006 -0.314268,-0.01 -0.628155,-0.0149 -0.942536,-0.01 -0.289307,0.004 -0.577187,0.0168 -0.865663,0.0336 -0.118229,0.006 -0.236335,0.0149 -0.354306,0.0233 -0.19623,0.0149 -0.392854,0.0336 -0.588247,0.0537 -0.15516,0.0155 -0.310129,0.0343 -0.464581,0.0537 -0.240665,0.0298 -0.480168,0.0627 -0.718592,0.10025 -0.08059,0.0129 -0.160339,0.0265 -0.240671,0.0401 -0.238143,0.0407 -0.473439,0.0853 -0.708572,0.13369 -0.06791,0.0142 -0.136276,0.0252 -0.203863,0.0401 -0.27863,0.0602 -0.55558,0.12625 -0.82889,0.19721 -0.117971,0.0304 -0.234072,0.064 -0.350941,0.0969 -0.16422,0.0459 -0.326109,0.0942 -0.487998,0.14372 -0.101154,0.0311 -0.203993,0.0576 -0.304181,0.0902 -0.268929,0.0871 -0.534303,0.17994 -0.79547,0.2774 -0.06468,0.0239 -0.126508,0.0524 -0.190478,0.0769 -0.209492,0.0808 -0.418012,0.16331 -0.621679,0.2507 -0.07257,0.0311 -0.145465,0.0614 -0.217254,0.0936 -0.254899,0.11345 -0.50436,0.23077 -0.748682,0.35431 -0.166865,0.0843 -0.329788,0.17179 -0.491289,0.26072 -0.06468,0.0356 -0.127031,0.0708 -0.190541,0.10698 -0.09307,0.053 -0.186339,0.10594 -0.277405,0.16046 -0.05951,0.0356 -0.118555,0.0708 -0.177155,0.10698 -0.404431,0.24985 -0.786281,0.51632 -1.146411,0.79547 l -2.637174,-6.77127 -4.281514,-6.55095 c -0.0556,-0.0847 -0.11765,-0.16305 -0.18382,-0.2373 a 2.0147698,2.0147698 0 0 0 -0.0433,-0.0466 2.0147698,2.0147698 0 0 0 -0.0136,-0.0168 c -0.0589,-0.0608 -0.11836,-0.1146 -0.18382,-0.16712 -0.002,-0.002 -0.005,-0.002 -0.006,-0.003 a 2.0147698,2.0147698 0 0 0 -0.0702,-0.0537 2.0147698,2.0147698 0 0 0 -0.0265,-0.02 c -0.0556,-0.0388 -0.11137,-0.0737 -0.17049,-0.10697 a 2.0147698,2.0147698 0 0 0 -0.0869,-0.0466 c -0.0595,-0.0298 -0.12172,-0.0563 -0.18382,-0.0802 -0.006,-0.002 -0.011,-0.004 -0.0168,-0.006 a 2.0147698,2.0147698 0 0 0 -0.0902,-0.0336 2.0147698,2.0147698 0 0 0 -0.0103,-0.003 c -0.092,-0.0285 -0.18808,-0.0485 -0.28413,-0.0634 -0.002,-3.8e-4 -0.004,-0.003 -0.006,-0.003 a 2.0147698,2.0147698 0 0 0 -0.0136,0 c -0.10653,-0.0162 -0.21461,-0.0246 -0.32424,-0.0233 z" /><path
     style="fill:none;fill-opacity:1;stroke:#352929;stroke-width:3;stroke-linecap:round;stroke-linejoin:round;stroke-dasharray:none;stroke-dashoffset:459.891;stroke-opacity:1;stop-color:#000000"
     d="m -65.840536,261.42421 -4.253238,-10.93133 -5.318076,-8.13987 a 0.31150819,0.31150819 8.7527678 0 0 -0.45824,-0.0706 l -9.407108,7.70961 a 0.28840434,0.28840434 87.505415 0 0 0.02009,0.46118 l 8.029117,5.4868 -1.13214,9.41279 z"
     id="path87579"
     sodipodi:nodetypes="ccccccc"
     inkscape:path-effect="#path-effect87583"
     inkscape:original-d="m -65.840536,261.42421 -4.253238,-10.93133 -5.507895,-8.43041 -9.97325,8.1736 8.34693,5.70398 -1.13214,9.41279 z" /><path
     style="fill:#433434;fill-opacity:1;stroke:none;stroke-width:8.55638;stroke-linecap:round;stroke-linejoin:round;stroke-dasharray:none;stroke-dashoffset:459.891;stroke-opacity:1;stop-color:#000000"
     d="m -65.840536,261.42421 -4.253238,-10.93133 -5.318076,-8.13987 a 0.31150819,0.31150819 8.7527678 0 0 -0.45824,-0.0706 l -9.407108,7.70961 a 0.28840434,0.28840434 87.505415 0 0 0.02009,0.46118 l 8.029117,5.4868 -1.13214,9.41279 z"
     id="path25592"
     sodipodi:nodetypes="ccccccc"
     inkscape:path-effect="#path-effect25636"
     inkscape:original-d="m -65.840536,261.42421 -4.253238,-10.93133 -5.507895,-8.43041 -9.97325,8.1736 8.34693,5.70398 -1.13214,9.41279 z" /><path
     id="path45577"
     style="fill:#352929;fill-opacity:0.70709;stroke:none;stroke-width:1;stroke-linecap:round;stroke-linejoin:round;stroke-dasharray:none;stroke-dashoffset:459.891;stroke-opacity:1;stop-color:#000000"
     d="m -80.048828,245.70703 -5.228516,4.28516 a 0.28840434,0.28840434 0 0 0 0.01953,0.46093 l 8.029296,5.48633 -0.742187,6.1875 5.408203,1.40625 3.027344,-0.94922 c -1.102802,-2.92347 -3.323468,-8.47956 -5.310547,-11.3496 -1.160231,-1.67578 -3.384117,-3.8549 -5.203125,-5.52735 z" /><path
     id="path25596"
     style="fill:#ec8509;fill-opacity:1;stroke:none;stroke-width:6.31317;stroke-linecap:round;stroke-linejoin:round;stroke-dasharray:none;stroke-dashoffset:459.891;stroke-opacity:1;stop-color:#000000"
     d="m -103.92584,260.2194 c -8.32718,5.88881 -7.16659,18.02763 -5.29795,27.01033 2.29393,11.0271 9.11197,22.77869 19.187271,27.8133 4.20108,2.09926 9.60612,0.53346 14.07781,-0.56477 0.4477,0.0272 0.89604,0.0434 1.34459,0.0485 0.44855,-0.005 0.89691,-0.0213 1.34461,-0.0485 4.471695,1.09818 9.663554,2.16796 14.077816,0.56477 8.754445,-3.17949 17.816031,-9.91726 20.693561,-18.77554 4.188512,-12.89406 1.911696,-32.61842 -8.310527,-39.81382 -8.736383,-6.1495 -25.20325,-0.9265 -23.863841,7.6432 -1.304389,-0.19403 -2.622029,-0.29163 -3.941619,-0.29208 -1.31888,10e-4 -2.63577,0.0998 -3.93935,0.29454 -3.57803,-1.24392 -5.98491,-6.10446 -9.93815,-6.93434 -5.13264,-1.07747 -13.889671,1.96215 -15.434221,3.05441 z"
     sodipodi:nodetypes="saacccaascccas" /><path
     id="path39665"
     style="fill:#faa30c;fill-opacity:0.751866;stroke:none;stroke-width:3.37011;stroke-linecap:round;stroke-linejoin:round;stroke-dasharray:none;stroke-dashoffset:459.891;stroke-opacity:1;stop-color:#000000"
     d="m -56.484067,253.7759 c -7.613441,0.12 -15.108882,4.4293 -14.188035,10.32097 -1.304387,-0.19404 -2.622087,-0.29137 -3.941667,-0.29181 -1.31889,10e-4 -2.63591,0.0993 -3.93948,0.294 -3.57803,-1.24392 -5.98486,-6.10451 -9.9381,-6.9344 -5.13263,-1.07747 -13.889731,1.963 -15.434281,3.05527 -3.3609,2.37676 -5.15924,5.77821 -6.0063,9.57277 -1.37876,6.4615 2.49916,7.08224 7.31069,6.66563 14.152181,11.32762 29.695431,9.67191 45.929833,1.56548 6.045749,-2.38979 12.965209,-2.30407 15.038245,-15.94989 -1.414627,-2.26447 -3.125701,-4.19172 -5.154998,-5.62014 -2.730117,-1.92172 -6.21525,-2.73242 -9.675907,-2.67788 z"
     sodipodi:nodetypes="scccssccccss" /><path
     id="path39591"
     style="color:#000000;clip-rule:nonzero;fill:#c44b06;fill-rule:nonzero;stroke-width:0.561685;stroke-linecap:round;stroke-dashoffset:459.891"
     d="m -67.669501,257.43892 c -0.944586,0.76795 -1.709084,1.63754 -2.241259,2.59012 1.080947,1.3273 2.43954,3.04595 3.876948,5.02993 3.11641,4.30144 6.399404,9.71609 7.173552,13.31918 1.290281,6.00531 0.01972,15.94149 -1.685055,24.19416 -1.217717,5.89497 -2.584539,10.84847 -3.282349,13.26213 1.238393,-0.0289 2.459738,-0.16374 3.634503,-0.4805 0.771351,-2.75485 1.898771,-7.01587 2.948847,-12.09927 1.740905,-8.42773 3.210197,-18.45615 1.678473,-25.58521 -1.0156,-4.72684 -4.517235,-10.14225 -7.738534,-14.58845 -1.638925,-2.26214 -3.207829,-4.23497 -4.365126,-5.64209 z" /><path
     id="path44849"
     style="fill:#da5a00;fill-opacity:0.722015;stroke:none;stroke-width:1;stroke-linecap:round;stroke-linejoin:round;stroke-dasharray:none;stroke-dashoffset:459.891;stroke-opacity:1;stop-color:#000000"
     d="m -42.568359,303.5957 c -4.300852,2.00527 -8.559184,3.55459 -12.548829,4.08594 l -26.742187,0.59961 c -4.479354,2.94621 -10.92634,1.30119 -17.544922,-0.74414 2.685154,3.11467 5.818519,5.7326 9.367188,7.50586 4.201075,2.09926 9.606439,0.53377 14.078125,-0.56445 0.447699,0.0272 0.897153,0.0437 1.345703,0.0488 0.448549,-0.005 0.89605,-0.0216 1.34375,-0.0488 4.47169,1.09817 9.663867,2.16764 14.078125,0.56445 6.138739,-2.2295 12.420353,-6.21427 16.623047,-11.44727 z" /><path
     style="color:#000000;clip-rule:nonzero;fill:#c44b06;fill-rule:nonzero;stroke-linecap:round;stroke-dashoffset:459.891"
     d="m -87.236328,258.00977 c 0,0 -3.27605,1.7467 -6.863281,4.30078 -3.587232,2.55407 -7.585171,5.77097 -9.052731,9.63476 -1.56266,4.11418 -0.65414,9.57212 0.41015,14.19922 1.0643,4.6271 5.115405,11.96549 5.115405,11.96549 0.322748,0.87245 -0.822311,-8.33079 -1.832199,-12.72135 -1.009886,-4.39055 -1.535776,-9.63223 -0.542966,-12.24609 0.897703,-2.36348 4.467914,-5.67265 7.857419,-8.08594 3.389504,-2.41329 6.496094,-4.07422 6.496094,-4.07422 0.821829,-0.43814 1.132375,-1.45989 0.693359,-2.28125 -0.438838,-0.8211 -1.460404,-1.13072 -2.28125,-0.6914 z"
     id="path39656"
     sodipodi:nodetypes="cssscssscsc" /><path
     style="fill:#433434;fill-opacity:1;stroke:#352929;stroke-width:1;stroke-linecap:round;stroke-linejoin:round;stroke-dasharray:none;stroke-dashoffset:459.891;stroke-opacity:1;stop-color:#000000"
     d="m -62.902495,261.01629 c 6.567342,4.89219 0.522014,10.2889 -3.34251,15.59837 -2.994653,-2.60397 -6.934794,-4.66766 -7.056414,-8.91336 l -3.3425,0.37138 c -1.67555,4.53348 -6.63388,4.68992 -10.77031,5.94223 0.76263,-3.3612 -0.27999,-7.52472 4.08529,-9.28474 l -9.24181,-3.51424 c 4.41255,-4.59188 7.90479,-3.66194 11.47016,-3.17078 4.48236,-0.28555 6.81614,1.30891 7.79917,4.08529 3.553402,-1.15523 7.254099,-3.63615 10.398924,-1.11415 z"
     id="path25606"
     sodipodi:nodetypes="cccccccccc" /><path
     id="path39589"
     style="fill:#fee435;fill-opacity:1;stroke-width:1.40421;stroke-linecap:round;stroke-linejoin:round;stroke-dashoffset:459.891;stop-color:#000000"
     d="m -50.689493,271.49971 -3.653148,24.00875 13.048212,-5.74082 z m -32.755466,5.74081 -7.95465,22.44328 18.18127,-2.55611 z" /><path
     id="path43790"
     style="fill:#fef5c4;fill-opacity:1;stroke:none;stroke-width:3.17856;stroke-linecap:round;stroke-linejoin:round;stroke-dasharray:none;stroke-dashoffset:459.891;stroke-opacity:1;stop-color:#000000"
     d="m -80.980469,282.0332 a 19.039808,14.341673 0 0 0 -5.728515,10.24024 19.039808,14.341673 0 0 0 2.083984,6.45703 l 11.40625,-1.60352 z m 28.453125,1.54688 -1.814453,11.92773 5.646485,-2.48437 a 19.039808,14.341673 0 0 0 0.06641,-0.75 19.039808,14.341673 0 0 0 -3.898438,-8.69336 z" /><path
     id="path39865"
     style="fill:#fee435;fill-opacity:1;stroke:none;stroke-width:3.37011;stroke-linecap:round;stroke-linejoin:round;stroke-dasharray:none;stroke-dashoffset:459.891;stroke-opacity:1;stop-color:#000000"
     d="m -40.250046,294.20407 c 0,0 -14.978817,4.86659 -22.704371,6.26301 -2.303331,0.41634 -5.134095,0.78413 -8.138952,1.10911 l -1.51721,6.72048 -8.08958,0.26 0.47392,-6.15441 c -8.0218,0.61863 -15.08871,0.93578 -15.08871,0.93578 0,0 20.90157,12.30459 31.838339,10.17726 9.883364,-1.92245 23.226564,-19.31123 23.226564,-19.31123 z" /><path
     id="path42052"
     style="fill:#fef5c4;fill-opacity:1;stroke:none;stroke-width:3.37011;stroke-linecap:round;stroke-linejoin:round;stroke-dasharray:none;stroke-dashoffset:459.891;stroke-opacity:1;stop-color:#000000"
     d="m -56.183476,298.90819 c -2.477127,0.6485 -4.849214,1.21154 -6.770941,1.55889 -4.028115,0.7281 -9.631922,1.31558 -15.048112,1.76514 a 11.091125,10.047254 0 0 0 11.003321,8.93431 11.091125,10.047254 0 0 0 11.091087,-10.04671 11.091125,10.047254 0 0 0 -0.275355,-2.21163 z" /><path
     style="fill:#ec8509;fill-opacity:1;stroke:none;stroke-width:3.37011;stroke-linecap:round;stroke-linejoin:round;stroke-dasharray:none;stroke-dashoffset:459.891;stroke-opacity:1;stop-color:#000000"
     d="m -80.178289,301.77199 -0.52194,6.78516 8.09,-0.26097 1.826773,-8.08999 z"
     id="path40005" /><path
     id="path40070"
     style="fill:#f19e14;fill-opacity:1;stroke:none;stroke-width:1;stroke-linecap:round;stroke-linejoin:round;stroke-dasharray:none;stroke-dashoffset:459.891;stroke-opacity:1;stop-color:#000000"
     d="m -40.250046,294.20407 c 0,0 -8.008484,2.59792 -15.335544,4.54285 1.005602,1.30389 2.13021,3.00946 2.287333,4.33003 0.19042,1.60042 -0.480867,3.82301 -1.27476,5.78469 7.500773,-5.76986 14.322971,-14.65757 14.322971,-14.65757 z" /><path
     id="path41995"
     style="fill:#eca832;fill-opacity:1;stroke:none;stroke-width:3.45725;stroke-linecap:round;stroke-linejoin:round;stroke-dasharray:none;stroke-dashoffset:459.891;stroke-opacity:1;stop-color:#000000"
     d="m -79.589959,302.354 c -1.69824,0.13367 -3.32341,0.25379 -4.8917,0.35982 l -0.91603,4.57796 4.69753,1.3735 z" /><path
     id="path42810"
     style="fill:#f19e14;fill-opacity:1;stroke:none;stroke-width:1;stroke-linecap:round;stroke-linejoin:round;stroke-dasharray:none;stroke-dashoffset:459.891;stroke-opacity:1;stop-color:#000000"
     d="m -50.689493,271.49971 -0.219408,1.44261 4.79078,18.947 4.823692,-2.12168 z m -32.755466,5.74081 -0.42016,1.1848 4.15997,19.61401 6.48681,-0.91164 z" /><path
     id="path42822"
     style="fill:none;fill-opacity:1;stroke:#c44b06;stroke-width:1;stroke-linecap:round;stroke-linejoin:round;stroke-dasharray:none;stroke-dashoffset:459.891;stroke-opacity:1;stop-color:#000000"
     d="m -40.250046,294.20407 c 0,0 -14.978817,4.86659 -22.704371,6.26301 -2.303331,0.41634 -5.134095,0.78413 -8.138952,1.10911 l -1.51721,6.72048 -8.08958,0.26 0.47392,-6.15441 c -8.0218,0.61863 -15.08871,0.93578 -15.08871,0.93578 0,0 20.90157,12.30459 31.838339,10.17726 9.883364,-1.92245 23.226564,-19.31123 23.226564,-19.31123 z" /><path
     id="path42824"
     style="fill:#eca832;fill-opacity:1;stroke:#c44b06;stroke-width:1;stroke-linecap:round;stroke-linejoin:round;stroke-dasharray:none;stroke-dashoffset:459.891;stroke-opacity:1;stop-color:#000000"
     d="m -79.589959,302.354 c -1.69824,0.13367 -3.32341,0.25379 -4.8917,0.35982 l -0.91603,4.57796 4.63229,1.3735 z"
     sodipodi:nodetypes="ccccc" /><path
     id="path43736"
     style="fill:none;fill-opacity:1;stroke:#c44b06;stroke-width:1;stroke-linecap:round;stroke-linejoin:round;stroke-dasharray:none;stroke-dashoffset:459.891;stroke-opacity:1;stop-color:#000000"
     d="m -50.689493,271.49971 -3.653148,24.00875 13.048212,-5.74082 z m -32.755466,5.74081 -7.95465,22.44328 18.18127,-2.55611 z" /><path
     style="fill:#352929;fill-opacity:0.70709;stroke:none;stroke-width:1;stroke-linecap:round;stroke-linejoin:round;stroke-dasharray:none;stroke-dashoffset:459.891;stroke-opacity:1;stop-color:#000000"
     d="m -76.388889,262.03704 c -2.593301,-1.01254 -8.024691,-2.31482 -8.024691,-2.31482 l 3.703703,3.85803 -1.851851,5.24691 6.790123,-2.62346 7.407407,-0.15432 1.388889,5.24692 c 0,0 5.455279,-5.01598 4.475309,-7.87037 -0.524235,-1.52696 -2.861136,-1.88127 -4.475309,-1.85186 -1.979289,0.0361 -5.401234,2.46914 -5.401234,2.46914 0,0 -2.619441,-1.46232 -4.012346,-2.00617 z"
     id="path45907"
     sodipodi:nodetypes="accccccaaca" /></g></svg>
