<?xml version="1.0" encoding="UTF-8" standalone="no"?><!DOCTYPE svg PUBLIC "-//W3C//DTD SVG 1.1//EN" "http://www.w3.org/Graphics/SVG/1.1/DTD/svg11.dtd"><svg width="100%" height="100%" viewBox="0 0 1250 1438" version="1.1" xmlns="http://www.w3.org/2000/svg" xmlns:xlink="http://www.w3.org/1999/xlink" xml:space="preserve" xmlns:serif="http://www.serif.com/" style="fill-rule:evenodd;clip-rule:evenodd;stroke-linejoin:round;stroke-miterlimit:2;"><g id="Tropical"><g id="ItemTropical"><path d="M70.289,1342.64l-0.023,-0.001l-5.835,-33.766l387.424,-66.951l5.915,34.228l-0.006,0.002c0.521,2.635 0.539,5.372 0.022,8.066c-1.11,5.771 -4.579,10.816 -9.569,13.918c-112.191,69.738 -232.318,93.555 -361.95,62.365c-5.634,-1.356 -10.461,-4.972 -13.346,-9.997c-1.404,-2.447 -2.288,-5.122 -2.632,-7.864Z" style="fill:#176705;"/><path d="M96,1362.75c-0.492,-0.981 -0.858,-1.996 -1.026,-3.027c-0.745,-4.558 0.113,-9.157 -0.55,-13.731c-0.723,-4.985 -3.943,-9.136 -4.663,-14.108c-0.717,-4.962 1.583,-10.116 3.07,-14.726c0.466,-1.445 0.995,-7.396 2.344,-8.077c3.808,-1.922 9.574,-0.19 13.539,0.428c2.671,0.417 7.35,0.347 9.846,1.67c4.146,2.198 6.31,7.63 6.817,12.112c0.584,5.171 -2.346,9.943 -1.213,15.127c1.124,5.141 5.568,8.831 6.897,14.023c1.38,5.395 -1.13,9.647 -0.8,14.811c0.039,0.622 0.139,1.235 0.282,1.837c-11.439,-1.676 -22.953,-3.787 -34.543,-6.339Zm66.608,9.92c-0.208,-3.418 1.123,-6.979 0.86,-10.707c-0.464,-6.569 -5.027,-11.968 -5.868,-18.475c-0.522,-4.043 0.816,-8.083 2.699,-11.595c1.18,-2.203 4.041,-2.718 6.31,-2.915c5.342,-0.467 10.721,-0.638 16.076,-0.266c1.237,0.086 5.801,-0.093 6.601,0.879c0.696,0.846 -0.2,4.123 -0.415,5.094c-0.947,4.259 -2.121,8.443 -0.977,12.803c1.296,4.938 5.115,8.482 7.17,13.037c1.799,3.986 1.653,7.973 2.045,12.233c0.038,0.413 0.088,0.822 0.15,1.228c-11.473,0.011 -23.023,-0.426 -34.651,-1.316Zm70.756,-0.203c-0.086,-0.272 -0.165,-0.548 -0.237,-0.828c-0.916,-3.558 -0.63,-7.302 -1.783,-10.823c-2.132,-6.511 -7.696,-11.494 -7.999,-18.683c-0.149,-3.534 1.037,-6.937 1.932,-10.306c0.363,-1.365 0.444,-3.129 1.55,-4.138c4.183,-3.819 12.7,-3.984 18.161,-4.963c3.216,-0.576 6.605,-1.415 9.889,-1.384c0.621,0.005 2.272,-0.314 2.786,-0.002c1.007,0.609 1.447,2.759 1.745,3.78c1.046,3.581 1.306,7.357 2.079,10.999c1.126,5.3 5.65,8.899 7.758,13.738c2.33,5.349 1.789,10.603 2.553,16.225c0.064,0.47 0.151,0.935 0.258,1.396c-12.798,2.236 -25.695,3.902 -38.692,4.989Zm71.15,-11.923c-1.3,-5.837 0.079,-11.913 -1.216,-18.091c-1.686,-8.039 -9.85,-12.695 -9.212,-21.565c0.249,-3.465 2.432,-4.892 5.548,-6.29c6.869,-3.084 14.151,-6.377 21.487,-8.183c1.561,-0.385 4.952,-1.976 6.499,-1.579c0.733,0.189 1.563,2.761 1.824,3.395c1.273,3.094 2.423,6.594 4.55,9.229c2.079,2.576 4.937,4.26 6.596,7.208c4.07,7.232 -0.044,14.821 -0.887,22.301c-0.107,0.952 -0.015,2.016 0.115,3.111c-11.684,3.975 -23.452,7.466 -35.304,10.464Zm66.669,-22.371c-1.782,-6.593 1.074,-14.634 -1.881,-21.125c-2.479,-5.445 -11.159,-9.932 -9.233,-17.056c0.65,-2.401 3.497,-4.335 5.371,-5.701c4.837,-3.527 10.028,-6.469 15.668,-8.507c1.256,-0.454 5.276,-2.54 6.622,-2.037c0.805,0.301 1.628,2.123 1.995,2.825c1.393,2.662 2.405,5.396 4.133,7.885c3.017,4.346 9.221,6.946 10.586,12.372c1.268,5.042 -2.031,9.539 -1.942,14.499c0.012,0.721 0.176,1.476 0.398,2.246c-10.503,5.267 -21.075,10.135 -31.717,14.599Zm52.102,-25.365c-0.444,-2.103 -0.558,-4.274 -0.3,-6.43c0.469,-3.922 2.123,-7.709 1.47,-11.718c-1.351,-8.295 -15.403,-15.708 -7.293,-24.448c1.346,-1.451 2.878,-2.67 4.481,-3.826c2.22,-1.601 4.488,-3.08 6.87,-4.429c2.193,-1.241 6.618,-4.783 9.278,-4.901c0.517,-0.023 1.696,2.984 1.867,3.391c1.467,3.504 2.763,6.995 5.017,10.091c1.871,2.567 4.174,4.67 5.004,7.861c1.687,6.479 -3.108,12.408 -3.631,18.71c-0.065,0.774 0.014,1.53 0.169,2.272c-7.608,4.688 -15.251,9.164 -22.932,13.427Z" style="fill:#145a04;"/><path d="M302.241,1035.02l145.817,198.003c3.485,4.731 4.835,10.703 3.726,16.474c-1.109,5.77 -4.578,10.815 -9.569,13.918c-112.191,69.737 -232.317,93.554 -361.949,62.364c-5.634,-1.355 -10.462,-4.971 -13.346,-9.997c-2.885,-5.026 -3.573,-11.018 -1.902,-16.567l84.537,-280.697c6.591,4.192 14.257,6.904 22.571,7.628c10.631,0.926 20.782,-1.534 29.387,-6.485c7.62,6.365 17.193,10.543 27.824,11.469c10.631,0.926 20.782,-1.534 29.387,-6.485c7.62,6.364 17.193,10.543 27.824,11.469c5.402,0.47 10.679,0.067 15.693,-1.094Z" style="fill:#e73e34;"/><path d="M136.698,1223.85c6.568,0.293 11.328,13.35 11.035,19.917c-0.293,6.568 -5.863,11.662 -12.43,11.369c-6.567,-0.293 -11.661,-5.863 -11.368,-12.43c0.293,-6.567 6.196,-19.149 12.763,-18.856Z" style="fill:#292525;"/><path d="M248.118,1107.41c5.809,-3.078 16.533,5.761 19.611,11.57c3.079,5.808 0.862,13.023 -4.947,16.101c-5.808,3.078 -13.023,0.862 -16.101,-4.947c-3.078,-5.808 -4.371,-19.646 1.437,-22.724Z" style="fill:#292525;"/><path d="M367.247,1200.47c5.809,-3.078 16.534,5.762 19.612,11.57c3.078,5.809 0.861,13.024 -4.947,16.102c-5.809,3.078 -13.024,0.861 -16.102,-4.947c-3.078,-5.809 -4.371,-19.647 1.437,-22.725Z" style="fill:#292525;"/><path d="M437.007,1218.01l11.051,15.007c3.485,4.731 4.835,10.703 3.726,16.474c-1.109,5.77 -4.578,10.815 -9.569,13.918c-112.191,69.737 -232.317,93.554 -361.949,62.364c-5.634,-1.355 -10.462,-4.971 -13.346,-9.997c-2.885,-5.026 -3.573,-11.018 -1.902,-16.567l5.375,-17.845c0.755,0.277 1.529,0.511 2.32,0.702c129.632,31.19 249.758,7.372 361.949,-62.365c0.824,-0.513 1.607,-1.078 2.345,-1.691Z" style="fill:#f1ebbd;"/><path d="M445.93,1230.13l2.128,2.89c3.485,4.731 4.835,10.703 3.726,16.474c-1.109,5.77 -4.578,10.815 -9.569,13.918c-112.191,69.737 -232.317,93.554 -361.949,62.364c-5.634,-1.355 -10.462,-4.971 -13.346,-9.997c-2.885,-5.026 -3.573,-11.018 -1.902,-16.567l1.035,-3.436c2.725,2.735 6.176,4.696 9.999,5.615c129.632,31.19 249.758,7.373 361.949,-62.364c3.476,-2.161 6.213,-5.263 7.929,-8.897Z" style="fill:#1f8009;"/></g></g></svg>