<?xml version="1.0" encoding="UTF-8" standalone="no"?><!DOCTYPE svg PUBLIC "-//W3C//DTD SVG 1.1//EN" "http://www.w3.org/Graphics/SVG/1.1/DTD/svg11.dtd"><svg width="100%" height="100%" viewBox="0 0 1250 1438" version="1.1" xmlns="http://www.w3.org/2000/svg" xmlns:xlink="http://www.w3.org/1999/xlink" xml:space="preserve" xmlns:serif="http://www.serif.com/" style="fill-rule:evenodd;clip-rule:evenodd;stroke-linejoin:round;stroke-miterlimit:2;"><g id="Mermaid"><g id="ItemMermaid"><path d="M81.097,1234.58c-24.126,-70.025 -33.078,-149.138 -42.118,-228.199c-1.19,-9.816 3.118,-19.49 11.211,-25.173c8.092,-5.682 18.655,-6.45 27.484,-1.997c76.982,39.304 137.865,83.791 193.695,140.506c9.398,9.547 18.745,22.184 25.033,32.682c18.732,31.271 17.421,64.585 18.075,103.672c0.027,1.625 0.09,3.249 0.189,4.871c0.809,13.32 4.715,77.446 6.675,109.628c0.693,11.369 -5.005,22.177 -14.776,28.03c-1.333,0.799 -2.677,1.604 -4.001,2.397c-8.932,5.35 -20.22,4.729 -28.511,-1.569c-18.85,-14.318 -53.006,-40.263 -75.839,-57.608c-12.637,-9.597 -26.725,-17.115 -41.733,-22.27c-24.868,-8.436 -46.968,-25.411 -61.506,-49.681c-6.727,-11.231 -9.18,-21.655 -13.878,-35.289Z" style="fill:#93719c;"/><path d="M49.189,981.943c0.327,-0.253 0.66,-0.499 1.001,-0.738c8.092,-5.682 18.655,-6.45 27.484,-1.997c76.982,39.304 137.865,83.791 193.695,140.506c9.398,9.547 18.745,22.184 25.033,32.682c18.732,31.271 17.421,64.585 18.075,103.672c0.027,1.625 0.09,3.249 0.189,4.871c0.809,13.32 4.715,77.446 6.675,109.628c0.693,11.369 -5.005,22.177 -14.776,28.03l-4.001,2.397c-4.828,2.892 -10.346,4.039 -15.706,3.488l0.676,-0.405c9.772,-5.853 15.469,-16.661 14.777,-28.03c-1.96,-32.182 -5.866,-96.308 -6.675,-109.628c-0.099,-1.622 -0.162,-3.246 -0.19,-4.871c-0.654,-39.087 0.658,-72.401 -18.074,-103.672c-6.289,-10.498 -15.636,-23.135 -25.034,-32.682c-55.83,-56.715 -116.712,-101.202 -193.695,-140.507c-3.006,-1.515 -6.212,-2.426 -9.454,-2.744Z" style="fill:#b596bc;"/><path d="M301.284,1401.71c-8.711,4.562 -19.331,3.715 -27.231,-2.286l-75.839,-57.608c-12.637,-9.597 -26.725,-17.115 -41.733,-22.27c-24.868,-8.436 -46.968,-25.411 -61.506,-49.681c-6.727,-11.231 -12.231,-22.987 -16.279,-34.738c-4.305,-12.492 -35.722,-20.555 -39.021,-33.603c-2.728,-10.79 22.52,-26.486 20.337,-37.583c-2.522,-12.816 -4.723,-25.814 -6.703,-38.945c-1.219,-8.076 -20.507,-17.623 -21.581,-25.788c-0.835,-6.351 16.521,-11.304 15.748,-17.695c-1.223,-10.114 -2.382,-20.272 -3.518,-30.451c-0.445,-3.983 -8.681,-1.003 -9.183,-11.447c-0.365,-7.611 7.066,-7.659 6.671,-11.235c-0.812,-7.334 -1.629,-14.671 -2.467,-22.003c-1.19,-9.816 3.118,-19.49 11.211,-25.173c8.092,-5.682 18.655,-6.45 27.484,-1.997c8.144,4.158 16.109,8.374 23.906,12.657c3.604,1.979 8.136,-2.611 14.93,1.63c7.002,4.372 3.26,8.645 6.946,10.818c9.062,5.345 17.899,10.797 26.532,16.374c7.673,4.956 21.962,-4.523 29.33,0.639c6.501,4.555 6.113,23.727 12.401,28.457c10.188,7.663 20.109,15.565 29.813,23.738c8.79,7.402 31.081,-3.187 39.548,4.68c8.111,7.537 2.41,33.509 10.289,41.513c27.486,30.823 14.233,71.175 -0.756,101.788c-25.118,51.305 -0.219,108.138 29.127,163.333c3.902,7.339 4.199,12.841 1.544,16.876Z" style="fill:#c0a8c6;"/><path d="M233.88,1368.91l-35.666,-27.093c-0.177,-0.134 -0.355,-0.268 -0.532,-0.402c17.859,-21.716 40.024,-37.77 64.797,-50.398c2.301,12.887 6.275,25.907 11.326,38.968c-15.443,11.22 -29.223,23.807 -39.925,38.925Zm53.151,-8.91c4.036,8.299 8.323,16.585 12.709,24.835c3.902,7.339 4.199,12.841 1.544,16.876c-8.711,4.562 -19.331,3.715 -27.231,-2.286l-14.467,-10.989c7.484,-11.263 16.894,-20.461 27.445,-28.436Zm-133.402,-41.462c-16.455,-6.069 -31.593,-15.921 -43.99,-29.187c44.13,-66.387 104.917,-103.575 177.42,-120.226c-1.478,18.288 -8.732,36.622 -16.446,52.377c-2.297,4.693 -4.176,9.432 -5.672,14.212c-41.813,17.228 -80.115,42.195 -111.312,82.824Zm-112.183,-290.157c2.23,-7.033 6.416,-13.551 11.795,-19.109c3.768,-3.894 4.318,-13.665 8.994,-16.465c4.855,-2.906 13.861,1.208 19.119,-0.184c6.867,-1.818 13.827,-2.197 20.226,-0.758c3.604,1.979 8.136,-2.611 14.93,1.63c7.002,4.372 3.26,8.645 6.946,10.818c-9.749,1.36 -18.48,3.66 -26.327,6.618c-6.051,2.281 -15.205,-1.5 -20.267,1.436c-5.877,3.408 -7.501,13.624 -12.223,17.539c-8.384,6.95 -15.098,14.379 -20.681,21.157c-0.445,-3.983 -8.681,-1.003 -9.183,-11.447c-0.365,-7.611 7.066,-7.659 6.671,-11.235Zm11.863,96.616c-1.219,-8.076 -20.507,-17.623 -21.581,-25.788c-0.835,-6.351 16.521,-11.304 15.748,-17.695c3.774,-10.428 11.598,-20.458 21.533,-29.282c6.608,-5.868 6.32,-24.272 14.224,-28.834c7.195,-4.153 22.519,5.402 29.886,2.707c13.641,-4.992 26.841,-7.178 36.869,-5.418c7.673,4.956 21.962,-4.523 29.33,0.639c6.501,4.555 6.113,23.727 12.401,28.457c-18.57,2.084 -34.924,6.343 -49.414,11.938c-8.297,3.204 -23.679,-4.481 -30.82,-0.558c-9.985,5.486 -11.208,22.848 -19.243,29.004c-16.011,12.265 -28.512,25.007 -38.933,34.83Zm6.703,38.945c9.194,-15.034 25.555,-30.933 44.857,-45.165c9.202,-6.785 10.511,-33.564 20.591,-39.317c11.976,-6.835 32.809,7.624 44.61,3.092c19.638,-7.542 37.972,-11.259 51.462,-9.031c8.79,7.402 31.081,-3.187 39.548,4.68c8.111,7.537 2.41,33.509 10.289,41.513c-18.402,3.085 -43.37,11.083 -70.158,23.566c-11.486,5.352 -26.915,-9.66 -41.57,-2.21c-13.804,7.016 -14.05,33.469 -24.022,40.731c-20.982,15.28 -40.729,33.125 -56.923,53.327c-4.305,-12.492 -35.722,-20.555 -39.021,-33.603c-2.728,-10.79 22.52,-26.486 20.337,-37.583Z" style="fill:#ceb6d4;"/><path d="M281.329,1158.6c-0.024,0.014 -0.047,0.028 -0.07,0.041c-5.292,3.05 -15.525,-4.409 -22.896,-16.714c-7.371,-12.305 -9.119,-24.847 -3.933,-28.074c0.023,-0.014 0.047,-0.028 0.07,-0.042l14.452,-8.657l26.829,44.788l-14.452,8.658Z" style="fill:#646464;"/><path d="M291.918,1121.82c7.403,12.36 9.134,24.958 3.863,28.115c-5.271,3.158 -15.562,-4.313 -22.965,-16.673c-7.404,-12.359 -9.135,-24.957 -3.864,-28.115c5.272,-3.157 15.562,4.313 22.966,16.673Z" style="fill:#8d8d8d;"/><path d="M286.913,1124.82c3.525,5.884 4.349,11.881 1.84,13.384c-2.51,1.503 -7.409,-2.053 -10.933,-7.937c-3.525,-5.884 -4.349,-11.881 -1.839,-13.385c2.509,-1.503 7.408,2.054 10.932,7.938Z" style="fill:#4c4c4c;"/><path d="M274.852,1123.12c20.921,-19.183 48.722,-43.055 77.362,-45.953c7.919,-0.801 18.206,0.13 26.301,3.809c9.788,4.447 16.661,12.478 15.576,25.218c-0.703,8.267 -4.375,15.498 -9.527,22.145c-4.391,5.663 -9.882,10.908 -14.969,16.2c-7.705,8.017 -15.153,15.847 -10.904,27.328c1.146,3.098 3.695,4.42 6.478,5.235c4.601,1.347 9.884,1.438 14.46,1.851c17.935,1.62 35.781,7.12 42.885,25.606c1.509,3.928 -0.455,8.342 -4.383,9.852c-3.927,1.509 -8.342,-0.455 -9.851,-4.382c-4.831,-12.572 -17.825,-14.788 -30.022,-15.89c-5.506,-0.497 -11.838,-0.782 -17.375,-2.404c-7.356,-2.154 -13.464,-6.391 -16.493,-14.576c-6.564,-17.741 2.306,-30.799 14.211,-43.186c4.714,-4.904 9.843,-9.728 13.912,-14.977c3.307,-4.266 5.933,-8.789 6.385,-14.095c0.442,-5.187 -2.706,-8.232 -6.69,-10.043c-5.675,-2.578 -12.908,-3.082 -18.458,-2.52c-26.634,2.695 -51.854,26.584 -70.833,44.081c-1.752,-1.454 -3.556,-3.582 -5.097,-6.155c-1.483,-2.476 -2.488,-4.971 -2.968,-7.144Z" style="fill:#d8d8d8;"/><path d="M428.512,1217.91c1.23,-0.514 1.812,-1.93 1.298,-3.159l-4.786,-11.461c-0.514,-1.23 -1.929,-1.812 -3.159,-1.298l-14.939,6.239c-1.23,0.513 -1.812,1.929 -1.298,3.159l4.786,11.46c0.514,1.23 1.929,1.812 3.159,1.298l14.939,-6.238Z" style="fill:#646464;"/><path d="M458.194,1225.45c8.911,14.875 4.068,34.185 -10.807,43.095c-14.875,8.911 -34.185,4.068 -43.095,-10.807c-8.911,-14.874 -4.068,-34.185 10.807,-43.095c14.875,-8.911 34.185,-4.068 43.095,10.807Zm-8.784,5.262c6.007,10.026 2.742,23.043 -7.285,29.049c-10.026,6.007 -23.043,2.742 -29.049,-7.284c-6.007,-10.027 -2.742,-23.044 7.284,-29.05c10.027,-6.007 23.044,-2.742 29.05,7.285Z" style="fill:#8d8d8d;"/></g></g></svg>