<?xml version="1.0" encoding="UTF-8" standalone="no"?><!DOCTYPE svg PUBLIC "-//W3C//DTD SVG 1.1//EN" "http://www.w3.org/Graphics/SVG/1.1/DTD/svg11.dtd"><svg width="100%" height="100%" viewBox="0 0 1250 1438" version="1.1" xmlns="http://www.w3.org/2000/svg" xmlns:xlink="http://www.w3.org/1999/xlink" xml:space="preserve" xmlns:serif="http://www.serif.com/" style="fill-rule:evenodd;clip-rule:evenodd;stroke-linejoin:round;stroke-miterlimit:2;"><g id="Mariachi"><g id="ItemMariachi"><path d="M133.573,1094.75c-23.012,-18.868 -46.507,-38.263 -70.11,-58.126l-16.922,-4.313c1.91,-11.385 7.578,-17.581 17.723,-21.682l7.92,17.255c32.568,25.548 65.058,50.912 97.043,75.064c1.696,1.075 3.351,2.253 4.956,3.535l4.209,3.362c13.929,10.446 27.754,20.642 41.438,30.502l5.589,-6.827c3.011,-3.678 8.157,-4.588 12.19,-2.408l5.186,-6.833l-9.525,-7.23l6.564,-8.646l27.585,20.94l-6.563,8.647l-9.415,-7.147l-5.605,7.384c2.233,3.465 2.097,8.114 -0.653,11.473l-4.492,5.487c7.167,5.028 14.289,9.95 21.361,14.753l3.456,-4.221c3.024,-3.693 8.2,-4.596 12.241,-2.381l5.34,-7.035l-9.525,-7.23l6.564,-8.646l27.585,20.94l-6.563,8.647l-9.415,-7.147l-5.777,7.61c2.198,3.459 2.05,8.08 -0.686,11.422l-1.861,2.273c6.83,4.459 13.606,8.792 20.325,12.985l2.097,-2.562c2.623,-3.204 6.866,-4.308 10.582,-3.098l4.256,-5.607l-9.525,-7.23l6.564,-8.646l27.585,20.94l-6.564,8.646l-9.414,-7.146l-4.148,5.464c3.231,3.443 3.552,8.797 0.62,12.615c76.301,44.868 144.075,69.308 195.536,54.668c13.319,-10.446 20.474,-8.172 13.297,5.718c-19.598,37.931 -67.272,97.92 -110.966,139.203c-8.132,7.684 -12.076,-0.656 -7.692,-13.604c7.423,-21.927 -6.37,-50.157 -34.825,-83.682c-1.848,7.555 -5.326,14.837 -10.497,21.31c-19.035,23.829 -53.836,27.721 -77.666,8.686l-45.643,-36.461l-14.437,17.635c-3.413,4.169 -9.569,4.783 -13.737,1.37l-4.657,-3.813c-4.169,-3.413 -4.783,-9.568 -1.37,-13.737l14.243,-17.397l-18.715,-14.951l-14.045,17.155c-3.413,4.169 -9.568,4.782 -13.737,1.369l-4.657,-3.812c-4.169,-3.413 -4.782,-9.568 -1.369,-13.737l13.85,-16.917l-20.218,-16.151l-13.739,16.782c-3.413,4.169 -9.569,4.783 -13.737,1.37l-4.657,-3.813c-4.169,-3.413 -4.783,-9.568 -1.37,-13.737l13.545,-16.544l-43.322,-34.607c-23.83,-19.036 -27.722,-53.837 -8.687,-77.666c9.523,-11.921 22.99,-18.852 37.056,-20.42Zm129.437,192.473l45.411,36.275c13.158,10.511 32.376,8.362 42.887,-4.797c8.807,-11.025 8.726,-26.304 0.728,-37.151c-2.294,-2.294 -4.638,-4.606 -7.03,-6.938l-43.332,-34.615l-38.664,47.226Zm-38.673,-30.893l18.715,14.95l38.664,-47.226l-18.716,-14.951l-38.663,47.227Zm-40.176,-32.093l20.218,16.15l38.663,-47.226l-20.218,-16.151l-38.663,47.227Zm18.706,-63.169l-44.128,-35.25c-13.159,-10.512 -32.376,-8.362 -42.887,4.796c-10.512,13.159 -8.362,32.376 4.796,42.887l43.555,34.793l38.664,-47.226Z" style="fill:#c29000;"/><path d="M226.886,1122.67l-5.292,-4.017l16.641,-21.921l40.86,31.018l-16.641,21.921l-6.76,-5.133c-0.172,3.102 -1.139,6.182 -2.936,8.914c2.604,1.808 5.202,3.601 7.794,5.379c1.96,-1.878 4.264,-3.24 6.722,-4.066l-5.386,-4.088l16.641,-21.922l40.86,31.019l-0.509,0.671l38.091,28.916l-15.606,20.557c68.479,38.888 129.142,60.262 176.184,47.688c7.107,-5.262 13.101,-7.269 16.745,-7.246c4.437,0.03 7.518,1.955 9.492,4.882c1.117,1.656 1.925,3.799 2.003,6.532c0.084,2.952 -0.861,7.357 -3.763,12.975c-19.906,38.526 -68.267,99.505 -112.647,141.436c-5.127,4.844 -9.905,5.621 -13.213,5.052c-3.496,-0.602 -6.474,-2.616 -8.412,-6.271c-2.109,-3.977 -2.862,-11.728 0.316,-21.115c3.123,-9.223 1.405,-19.73 -3.708,-31.499c-4.451,-10.246 -11.456,-21.279 -20.605,-33.083c-1.844,3.501 -4.044,6.878 -6.604,10.083c-21.906,27.423 -61.955,31.902 -89.378,9.996l-39.21,-31.322l-9.221,11.264c-6.327,7.728 -17.737,8.865 -25.464,2.539l-4.657,-3.813c-7.728,-6.326 -8.865,-17.736 -2.539,-25.464l8.9,-10.871l-5.692,-4.548l-8.829,10.784c-6.326,7.727 -17.736,8.865 -25.464,2.538l-4.657,-3.812c-7.727,-6.326 -8.865,-17.737 -2.538,-25.464l8.507,-10.391l-7.195,-5.748l-8.523,10.411c-6.327,7.728 -17.737,8.865 -25.464,2.539l-4.657,-3.812c-7.728,-6.327 -8.865,-17.737 -2.539,-25.465l8.202,-10.018l-36.732,-29.343c-27.424,-21.906 -31.903,-61.955 -9.997,-89.378c7.015,-8.782 15.891,-15.212 25.616,-19.175c-18.488,-15.204 -37.239,-30.735 -56.064,-46.566l-22.504,-5.736l1.268,-7.56c2.465,-14.693 9.725,-22.736 22.818,-28.029l7.377,-2.982c0,0 10.399,22.652 10.399,22.652c31.906,25.026 63.731,49.857 95.034,73.503c1.858,1.19 3.672,2.489 5.435,3.896c-0,0 4.107,3.282 4.107,3.282c11.702,8.774 23.329,17.372 34.862,25.742l0.617,-0.755c2.162,-2.64 4.916,-4.51 7.915,-5.576Zm26.823,188.8l39.267,31.367c23.83,19.035 58.631,15.143 77.666,-8.686c5.171,-6.473 8.649,-13.755 10.497,-21.31c28.455,33.525 42.248,61.755 34.825,83.682c-4.384,12.948 -0.44,21.288 7.692,13.604c43.694,-41.283 91.368,-101.272 110.966,-139.203c7.177,-13.89 0.022,-16.164 -13.297,-5.718c-51.461,14.64 -119.235,-9.8 -195.536,-54.668c2.932,-3.818 2.611,-9.172 -0.62,-12.615l4.148,-5.464l9.414,7.146l6.564,-8.646l-27.585,-20.94l-6.564,8.646l9.525,7.23l-4.256,5.607c-3.716,-1.21 -7.959,-0.106 -10.582,3.098l-2.097,2.562c-6.719,-4.193 -13.495,-8.526 -20.325,-12.985l1.861,-2.273c2.736,-3.342 2.884,-7.963 0.686,-11.422l5.777,-7.61l9.415,7.147l6.563,-8.647l-27.585,-20.94l-6.564,8.646l9.525,7.23l-5.34,7.035c-4.041,-2.215 -9.217,-1.312 -12.241,2.381l-3.456,4.221c-7.072,-4.803 -14.194,-9.725 -21.361,-14.753l4.492,-5.487c2.75,-3.359 2.886,-8.008 0.653,-11.473l5.605,-7.384l9.415,7.147l6.563,-8.647l-27.585,-20.94l-6.564,8.646l9.525,7.23l-5.186,6.833c-4.033,-2.18 -9.179,-1.27 -12.19,2.408l-5.589,6.827c-13.684,-9.86 -27.509,-20.056 -41.438,-30.502l-4.209,-3.362c-1.605,-1.282 -3.26,-2.46 -4.956,-3.535c-31.985,-24.152 -64.475,-49.516 -97.043,-75.064l-7.92,-17.255c-10.145,4.101 -15.813,10.297 -17.723,21.682l16.922,4.313c23.603,19.863 47.098,39.258 70.11,58.126c-14.066,1.568 -27.533,8.499 -37.056,20.42c-19.035,23.829 -15.143,58.63 8.687,77.666l37.088,29.626c0.091,-0.147 0.193,-0.29 0.305,-0.429l14.857,-18.321l-35.129,-28.441l-0.112,-0.106c-17.539,-16.478 -15.052,-40.283 -1.61,-50.827c8.929,-7.003 22.985,-8.688 39.748,2.102l0.189,0.122l35.93,29.035l3.917,-4.831c1.448,-1.786 4.074,-2.06 5.861,-0.612c1.786,1.449 2.06,4.075 0.612,5.861l-57.79,71.267c-0.361,0.446 -0.796,0.798 -1.273,1.052l-12.816,15.653c-3.413,4.169 -2.799,10.324 1.37,13.737l4.657,3.813c4.168,3.413 10.324,2.799 13.737,-1.37l13.274,-16.214c0.082,-0.771 0.379,-1.529 0.903,-2.176l56.042,-69.304c1.446,-1.788 4.071,-2.066 5.859,-0.62c1.789,1.446 2.066,4.072 0.62,5.86l-56.041,69.304c-0.328,0.405 -0.717,0.733 -1.143,0.981l8.541,6.823c0.034,-0.044 0.069,-0.089 0.104,-0.132l55.306,-67.676c1.455,-1.781 4.083,-2.045 5.863,-0.59c1.781,1.455 2.045,4.082 0.59,5.863l-55.306,67.676c-0.572,0.7 -1.326,1.166 -2.138,1.385l-12.367,15.106c-3.413,4.169 -2.8,10.324 1.369,13.737l4.657,3.812c4.169,3.413 10.324,2.8 13.737,-1.369l14.045,-17.155l0.072,0.058c0.005,-0.007 0.01,-0.014 0.016,-0.02l54.592,-67.48c1.446,-1.788 4.072,-2.065 5.86,-0.618c1.788,1.446 2.065,4.072 0.619,5.86l-54.576,67.459l5.918,4.728c0.156,-0.454 0.393,-0.889 0.714,-1.283l62.119,-76.159c1.454,-1.782 4.08,-2.048 5.862,-0.595c1.782,1.454 2.049,4.08 0.596,5.862l-62.12,76.16c-0.302,0.37 -0.654,0.675 -1.04,0.912l0.083,0.067l-14.243,17.397c-3.413,4.169 -2.799,10.324 1.37,13.737l4.657,3.813c4.168,3.413 10.324,2.799 13.737,-1.37l12.997,-15.876c0.148,-0.346 0.345,-0.677 0.593,-0.984l16.513,-20.449c0.084,-0.714 0.354,-1.414 0.82,-2.027c0.519,-0.682 1.207,-1.159 1.961,-1.418l37.521,-46.464c1.445,-1.789 4.071,-2.069 5.86,-0.624c1.789,1.444 2.069,4.07 0.624,5.859l-1.479,1.831c8.638,7.132 33.29,27.485 33.267,27.47c22.139,14.57 19.584,41.146 5.192,53.09c-9.608,7.974 -24.685,9.97 -41.506,-2.998l-36.917,-28.072l-14.633,18.121Zm-91.006,-114.226l28.519,-35.17c-9.298,-7.513 -35.57,-28.742 -35.592,-28.756c-12.626,-8.049 -23.146,-7.703 -29.884,-2.418c-10.085,7.911 -11.017,25.703 2.066,38.096l34.891,28.248Zm140.367,53.099l-29.49,36.52l36.741,27.938l0.012,0.009c12.641,9.753 23.89,9.189 31.11,3.197c10.814,-8.975 12.138,-28.911 -4.594,-39.811l-0.197,-0.128l-33.582,-27.725Zm-3.091,-70.75l-4.182,-3.175c-0.066,1.765 -0.39,3.526 -0.977,5.225c2.516,1.619 5.024,3.219 7.524,4.802c0.91,-0.702 1.875,-1.307 2.88,-1.814l-5.754,-4.368l0.509,-0.67Z" style="fill:#a07600;"/><path d="M256.712,1123.9l-8.646,-6.564l-20.941,27.585l8.646,6.564l20.941,-27.585Z" style="fill:#c29000;"/><path d="M239.834,1108.4l-6.564,8.646l27.586,20.941l6.563,-8.647l-27.585,-20.94Z" style="fill:#eeb000;"/><path d="M297.006,1155.92l-8.646,-6.564l-20.941,27.585l8.646,6.564l20.941,-27.585Z" style="fill:#c29000;"/><path d="M280.128,1140.43l-6.564,8.646l27.586,20.941l6.563,-8.647l-27.585,-20.94Z" style="fill:#eeb000;"/><path d="M334.588,1185.51l-8.646,-6.564l-20.941,27.585l8.646,6.564l20.941,-27.585Z" style="fill:#c29000;"/><path d="M317.71,1170.02l-6.564,8.646l27.585,20.94l6.564,-8.646l-27.585,-20.94Z" style="fill:#eeb000;"/><path d="M245.183,1149.7l-90.438,110.467c-3.413,4.169 -9.569,4.783 -13.737,1.37l-4.657,-3.813c-4.169,-3.413 -4.783,-9.568 -1.37,-13.737l90.438,-110.467c3.413,-4.169 9.569,-4.782 13.738,-1.369l4.656,3.812c4.169,3.413 4.783,9.569 1.37,13.737Zm40.089,32.199l-90.657,110.734c-3.413,4.169 -9.568,4.782 -13.737,1.369l-4.657,-3.812c-4.169,-3.413 -4.782,-9.568 -1.369,-13.737l90.656,-110.734c3.413,-4.169 9.569,-4.782 13.738,-1.369l4.656,3.812c4.169,3.413 4.783,9.568 1.37,13.737Zm40.325,28.876l-92.701,113.231c-3.413,4.169 -9.569,4.783 -13.737,1.37l-4.657,-3.813c-4.169,-3.413 -4.783,-9.568 -1.37,-13.737l92.701,-113.231c3.413,-4.169 9.569,-4.783 13.738,-1.37l4.656,3.813c4.169,3.413 4.783,9.568 1.37,13.737Z" style="fill:#eeb000;"/><path d="M370.642,1334.15c-19.035,23.829 -53.836,27.721 -77.666,8.686l-187.772,-149.996c-23.83,-19.036 -27.722,-53.837 -8.687,-77.666c19.036,-23.83 53.837,-27.722 77.666,-8.687l187.773,149.996c23.83,19.036 27.722,53.837 8.686,77.667Zm-19.334,-15.445c10.511,-13.159 8.362,-32.376 -4.797,-42.887l-187.772,-149.996c-13.159,-10.512 -32.376,-8.362 -42.887,4.796c-10.512,13.159 -8.362,32.376 4.796,42.887l187.773,149.997c13.158,10.511 32.376,8.362 42.887,-4.797Z" style="fill:#ffc214;"/><path d="M72.184,1027.88c173.513,136.116 344.837,266.989 449.141,237.317c13.319,-10.446 20.474,-8.172 13.297,5.718c-19.598,37.931 -67.272,97.92 -110.966,139.203c-8.132,7.684 -12.076,-0.656 -7.692,-13.604c23.217,-68.582 -161.119,-198.833 -352.501,-359.894l-16.922,-4.313c1.91,-11.385 7.578,-17.581 17.723,-21.682l7.92,17.255Z" style="fill:#ffc214;"/><path d="M511.312,1277.69l-48.301,61.534l-380.118,-294.435c158.026,120.375 315.642,243.626 428.419,232.901Z" style="fill:#ffcd3f;"/></g></g></svg>