<?xml version="1.0" encoding="UTF-8" standalone="no"?>
<!DOCTYPE svg PUBLIC "-//W3C//DTD SVG 1.1//EN" "http://www.w3.org/Graphics/SVG/1.1/DTD/svg11.dtd">
<svg width="100%" height="100%" viewBox="0 0 300 345" version="1.1" xmlns="http://www.w3.org/2000/svg" xmlns:xlink="http://www.w3.org/1999/xlink" xml:space="preserve" xmlns:serif="http://www.serif.com/" style="fill-rule:evenodd;clip-rule:evenodd;stroke-linejoin:round;stroke-miterlimit:2;">
    <g id="jack" transform="matrix(1.1166,0,0,1.1166,-1.3142,-39.2717)">
        <path d="M66.606,334.565C62.109,335.843 53.871,336.416 46.499,334.98C38.275,333.379 31.426,329.006 26.333,321.877C22,315.811 20.415,308.087 20.301,300.722C20.229,296.065 22.064,289.271 24.545,285.116C28.226,278.95 33.445,276.252 39.798,274.103C45.717,272.101 57.382,270.775 64.529,271.681C73.165,272.775 78.875,276.309 82.029,279.724C84.996,282.938 88.82,289.303 90.108,295.519C91.398,301.742 90.631,309.237 89.123,314.179C85.487,326.088 72.837,332.794 66.606,334.565Z" style="fill:#fc9d00;"/>
        <path d="M47.552,286.445C46.33,297.624 45.198,305.959 47.531,317.002C48.702,322.543 51.341,331.021 54.297,335.854C54.585,336.324 55.201,336.473 55.672,336.185C56.143,335.897 56.291,335.281 56.003,334.81C53.147,330.141 50.619,321.942 49.488,316.589C47.202,305.773 48.344,297.611 49.54,286.662C49.6,286.114 49.203,285.619 48.654,285.559C48.106,285.5 47.612,285.896 47.552,286.445ZM35.503,287.368C33.228,291.059 29.709,298.295 29.684,308.229C29.649,322.349 36.996,331.094 39.872,333.821C40.272,334.201 40.906,334.184 41.285,333.784C41.665,333.383 41.648,332.75 41.248,332.37C38.537,329.8 31.651,321.542 31.684,308.234C31.708,298.798 35.044,291.924 37.206,288.417C37.495,287.948 37.349,287.331 36.879,287.041C36.409,286.752 35.793,286.898 35.503,287.368ZM60.034,285.394C63.481,291.326 68.077,299.545 69.902,307.674C71.804,316.15 73.409,326.94 73.706,330.604C73.751,331.154 74.234,331.565 74.784,331.52C75.334,331.475 75.744,330.992 75.7,330.442C75.399,326.735 73.779,315.814 71.853,307.236C69.983,298.904 65.296,290.47 61.764,284.39C61.486,283.912 60.874,283.75 60.397,284.027C59.919,284.304 59.757,284.917 60.034,285.394ZM68.445,281.28C75.743,286.543 79.621,290.024 83.033,299.529C84.238,302.885 86.763,312.144 86.496,317.934C86.47,318.485 86.897,318.953 87.448,318.979C88,319.004 88.468,318.577 88.493,318.026C88.772,311.997 86.17,302.348 84.915,298.853C81.33,288.866 77.283,285.188 69.615,279.658C69.168,279.335 68.542,279.436 68.219,279.884C67.896,280.332 67.998,280.957 68.445,281.28Z" style="fill:#eb7b12;"/>
        <g>
            <path d="M43.388,307.072L47.76,307.981C49.264,302.244 51.257,299.309 53.821,299.418C56.346,299.524 57.628,302.435 57.519,308.331L62.171,308.366C61.969,301.152 60.647,294.191 54.651,293.535C49.236,292.943 45.662,298.511 43.388,307.072Z"/>
            <g transform="matrix(-0.855255,0.518207,0.518207,0.855255,-33.0595,6.52651)">
                <path d="M49.851,304.914L53.57,305.892C53.44,300.753 54.707,299.677 55.591,299.638C56.299,299.606 57.786,302.372 58.493,308.427L62.171,308.366C62.719,301.581 59.495,293.54 54.993,293.799C52.133,293.964 49.954,298.062 49.851,304.914Z"/>
            </g>
            <path d="M68.083,312.863C67.834,312.895 67.557,312.938 67.31,312.87C66.557,312.662 66.626,311.493 66.594,310.9C66.504,309.214 66.471,307.476 66.677,305.796C66.759,305.132 66.877,303.815 67.672,303.591C68.346,303.401 69.073,304.063 69.512,304.487C69.881,304.843 72.181,307.635 72.832,308.726C73.056,309.1 73.382,309.555 73.307,310.017C73.216,310.58 72.756,310.773 72.29,311.026C71.804,311.29 68.788,312.602 68.083,312.863Z"/>
            <path d="M45.613,312.059C45.015,311.407 44.203,311.874 44.345,312.906C45.559,321.723 53.928,329.227 66.524,328.454L66.524,326.592C66.507,325.302 66.77,324.75 67.82,324.6L72.521,323.884C73.006,323.783 73.648,323.988 73.687,324.71C73.699,324.934 73.752,326.413 73.752,326.413C82.883,320.743 87.807,312.268 85.395,298.902C85.317,298.471 84.859,298.441 84.769,298.799C83.853,302.413 82.198,305.542 79.611,308.058L80.211,310.701C80.535,311.777 80.43,312.518 79.875,312.906L75.274,316.344C74.507,316.927 73.511,316.672 73.153,316.038L72.56,314.471C70.014,316.363 66.794,317.087 63.129,317.04L63.146,319.653C63.168,320.321 62.852,320.637 62.171,320.571L58.176,320.213C57.297,320.06 56.952,319.623 56.99,318.982L56.968,316.609C52.578,316.205 48.509,315.212 45.613,312.059Z"/>
            <path d="M29.764,286.807C33.39,290.126 50.013,289.559 61.418,286.326C68.924,284.199 74.501,278.904 70.512,276.271C66.09,274.169 57.33,272.746 43.842,276.227C32.491,279.156 27.393,284.638 29.764,286.807Z"/>
        </g>
        <path d="M66.879,335.527C73.306,333.7 86.329,326.755 90.079,314.471C91.627,309.398 92.411,301.704 91.087,295.316C89.761,288.913 85.82,282.356 82.763,279.046C79.498,275.51 73.597,271.822 64.654,270.689C57.379,269.767 45.504,271.118 39.478,273.156C32.891,275.383 27.503,278.211 23.686,284.603C21.121,288.899 19.227,295.923 19.301,300.737C19.418,308.301 21.069,316.228 25.519,322.458C30.769,329.807 37.831,334.311 46.308,335.962C53.851,337.43 62.278,336.835 66.879,335.527ZM66.332,333.603C61.939,334.852 53.892,335.401 46.69,333.999C38.72,332.447 32.082,328.205 27.147,321.296C22.931,315.394 21.411,307.872 21.301,300.706C21.232,296.207 23.006,289.644 25.403,285.629C28.95,279.689 33.998,277.12 40.119,275.05C45.931,273.084 57.385,271.784 64.403,272.673C72.732,273.728 78.253,277.109 81.294,280.403C84.172,283.519 87.88,289.693 89.129,295.722C90.384,301.78 89.635,309.076 88.166,313.887C84.645,325.421 72.367,331.888 66.332,333.603Z" style="fill:#bb6311;"/>
        <g>
            <path d="M64.72,270.697L62.905,265.605C60.923,260.045 56.139,256.433 51.149,256.19L51.149,251.145C57.946,251.535 64.44,256.473 67.141,264.051L69.871,271.711C68.282,271.28 66.566,270.934 64.72,270.697Z" style="fill:#5f2774;"/>
            <path d="M68.886,271.459L66.589,265.014C64.041,257.866 56.863,253.938 50.57,256.248C50.57,256.248 23.529,266.173 23.529,266.173C17.236,268.483 14.195,276.162 16.743,283.31L23.99,303.641L19.755,305.196L12.507,284.865C9.013,275.061 13.183,264.53 21.814,261.362C21.814,261.362 48.855,251.437 48.855,251.437C57.486,248.269 67.33,253.656 70.825,263.459L74.317,273.257C72.691,272.553 70.883,271.94 68.886,271.459Z" style="fill:#5f2774;"/>
            <path d="M68.886,271.459L66.893,265.868C64.502,259.161 57.768,255.475 51.863,257.642C51.863,257.642 26.229,267.051 26.229,267.051C20.324,269.219 17.471,276.423 19.862,283.13L26.805,302.608L22.569,304.163L15.626,284.685C12.289,275.323 16.271,265.265 24.514,262.24C24.514,262.24 50.148,252.831 50.148,252.831C58.39,249.806 67.792,254.95 71.129,264.313L74.317,273.257C72.691,272.553 70.883,271.94 68.886,271.459Z" style="fill:#371246;"/>
        </g>
        <g>
            <g transform="matrix(1.03008,-0.175394,-0.159141,-0.993094,49.9575,609.637)">
                <path d="M23.47,299.985C23.562,299.99 23.655,299.997 23.748,300.009C25.916,300.275 27.441,301.748 27.288,304.184C27.142,306.516 25.409,308.23 23.359,308.139L23.359,308.143L18.551,308.191L19.292,299.417L23.47,299.982L23.47,299.985Z" style="fill:#80329e;"/>
            </g>
            <g transform="matrix(1.03008,-0.175394,-0.159141,-0.993094,49.9575,609.637)">
                <path d="M22.88,308.152C22.88,308.163 22.881,308.175 22.882,308.187C22.902,308.445 23.109,308.642 23.359,308.64L18.551,308.688C18.417,308.69 18.289,308.632 18.199,308.531C18.108,308.429 18.063,308.291 18.075,308.152L18.816,299.378C18.827,299.242 18.892,299.117 18.995,299.031C19.097,298.945 19.229,298.906 19.359,298.924L23.537,299.489L23.51,299.49C23.609,299.494 23.708,299.503 23.808,299.515C26.241,299.814 27.937,301.479 27.766,304.212C27.601,306.832 25.637,308.738 23.334,308.636C23.089,308.625 22.894,308.424 22.881,308.171L22.88,308.152ZM23.349,300.468L19.725,299.977C19.725,299.977 19.074,307.689 19.074,307.689L23.303,307.646C23.33,307.643 23.357,307.641 23.384,307.643C25.181,307.722 26.682,306.201 26.811,304.157C26.945,302.017 25.592,300.736 23.687,300.502C23.606,300.492 23.525,300.486 23.445,300.482C23.412,300.481 23.38,300.476 23.349,300.468ZM23.471,299.49L23.399,299.495L23.395,299.492L23.471,299.49ZM22.88,308.143L22.881,308.135L22.88,308.143Z" style="fill:#371246;"/>
            </g>
            <g transform="matrix(0.808663,-0.142161,-0.218464,-0.969353,70.802,602.388)">
                <circle cx="20.548" cy="304.15" r="4.449" style="fill:#9c29c7;"/>
            </g>
            <g transform="matrix(0.808663,-0.142161,-0.218464,-0.969353,70.802,602.388)">
                <path d="M20.519,299.198C23.29,299.198 25.606,301.403 25.606,304.174C25.606,306.917 23.32,309.103 20.577,309.103C17.805,309.103 15.489,306.898 15.489,304.126C15.489,301.383 17.776,299.198 20.519,299.198ZM20.577,300.205C18.409,300.205 16.709,302.006 16.709,304.174C16.709,306.314 18.379,308.095 20.519,308.095C22.686,308.095 24.387,306.294 24.387,304.126C24.387,301.987 22.716,300.205 20.577,300.205Z" style="fill:#371246;"/>
            </g>
        </g>
    </g>
</svg>
