<?xml version="1.0" encoding="UTF-8" standalone="no"?><!DOCTYPE svg PUBLIC "-//W3C//DTD SVG 1.1//EN" "http://www.w3.org/Graphics/SVG/1.1/DTD/svg11.dtd"><svg width="100%" height="100%" viewBox="0 0 300 300" version="1.1" xmlns="http://www.w3.org/2000/svg" xmlns:xlink="http://www.w3.org/1999/xlink" xml:space="preserve" xmlns:serif="http://www.serif.com/" style="fill-rule:evenodd;clip-rule:evenodd;stroke-linejoin:round;stroke-miterlimit:2;"><g id="Jail"><g id="Jail-2" serif:id="Jail 2"><g><path d="M135.818,247.028c-6.623,-10.853 -10.441,-23.601 -10.441,-37.235c0,-39.528 32.092,-71.62 71.62,-71.62c39.529,0 71.621,32.092 71.621,71.62c-0,10.893 -2.437,21.222 -6.796,30.469c-1.542,1.01 -13.265,3.524 -22.904,2.145c-4.876,-0.698 -16.897,-2.938 -24.925,-1.619c-20.784,3.416 -27.796,11.472 -43.053,12.625c-16.64,1.258 -31.24,-4.495 -35.122,-6.385Z" style="fill:#202020;"/><path d="M261.825,202.996c0.421,4.152 0.182,13.406 -6.301,18.974c-21.485,18.45 -43.329,12.728 -48.949,10.543c-9.289,-3.611 -11.045,-15.088 -11.286,-23.392c-0.106,-3.646 0.112,-8.713 3.274,-10.823c5.562,-3.711 16.664,0.168 27.816,-3.484c10.684,-3.498 14.631,-11.941 20.973,-12.35c11.101,-0.716 13.506,10.995 14.473,20.532Z" style="fill:#2f2f2f;"/><path d="M249.283,194.959c0.448,0.493 2.552,4.268 2.52,5.335c-0.165,5.458 -4.165,8.592 -8.232,11.474c-2.834,2.01 -5.833,3.938 -8.988,5.411c-3.148,1.47 -8.382,3.675 -11.66,1.157c-1.404,-1.078 -2.44,-3.1 -2.97,-4.774c-0.366,-1.16 -0.939,-3.087 -0.561,-4.317c0.386,-1.256 1.612,-2.161 2.67,-2.834c2.416,-1.536 5.128,-2.295 7.676,-3.537c3.744,-1.825 7.111,-4.076 10.67,-6.192c2.289,-1.36 6.539,-4.295 8.875,-1.723Z" style="fill:#383838;"/><g><path d="M236.582,174.551c-1.943,7.581 -13.835,11.818 -28.163,9.598c-15.65,-2.424 -28.319,-11.639 -28.273,-20.565c0.004,-0.808 0.112,-1.585 0.317,-2.33c0.02,-0.069 2.441,-8.471 2.441,-8.471l55.876,13.975l-2.198,7.793Z" style="fill:#838383;"/><path d="M210.736,144.21c15.65,2.424 28.319,11.64 28.273,20.566c-0.046,8.926 -12.79,14.205 -28.441,11.781c-15.65,-2.424 -28.319,-11.639 -28.273,-20.566c0.046,-8.926 12.79,-14.205 28.441,-11.781Z" style="fill:#9a9a9a;"/></g><path d="M187.917,154.235c4.192,-11.162 3.942,-10.494 3.942,-10.494c4.436,-11.81 18.42,-19.911 31.208,-18.078c12.789,1.833 19.569,12.909 15.133,24.719c0,0 0.157,-0.417 -4.036,10.745c-2.832,7.541 -14.904,3.285 -12.606,-2.833l3.67,-9.771c1.953,-5.198 -1.032,-10.074 -6.661,-10.88c-5.629,-0.807 -11.784,2.759 -13.737,7.957c0,0 -0.39,1.04 -4.332,11.533c-2.621,6.978 -14.751,2.878 -12.581,-2.898Z" style="fill:#b1b1b1;"/><path d="M225.808,145.915c0.28,-4.132 -2.57,-7.603 -7.241,-8.272c-2.252,-0.323 -4.588,0.054 -6.706,0.956l7.312,-13.194c1.303,-0.011 2.605,0.073 3.894,0.258c6.86,0.983 11.991,4.626 14.59,9.615l-11.849,10.637Zm-37.761,11.329c-0.441,-0.903 -0.537,-1.926 -0.13,-3.009l0.748,-1.992l-0.618,5.001Z" style="fill:#969696;"/><path d="M208.767,23.681l12.715,10.731c8.052,6.796 9.071,18.851 2.276,26.903c-6.796,8.051 -18.851,9.071 -26.903,2.275l-12.715,-10.731c-8.052,-6.796 -9.071,-18.851 -2.275,-26.902c6.795,-8.052 18.85,-9.072 26.902,-2.276Zm-6.894,8.167c-3.544,-2.991 -8.85,-2.542 -11.841,1.002c-2.991,3.544 -2.542,8.85 1.002,11.841l12.715,10.732c3.544,2.991 8.85,2.542 11.841,-1.002c2.991,-3.544 2.543,-8.85 -1.002,-11.841l-12.715,-10.732Z" style="fill:#a6a6a6;"/><path d="M227.193,55.304c-0.747,2.138 -1.889,4.178 -3.435,6.011c-3.388,4.014 -8.083,6.28 -12.938,6.702l-6.474,-12.134c3.521,2.473 8.417,1.888 11.244,-1.462c1.718,-2.035 2.301,-4.652 1.815,-7.077l9.788,7.96Zm-32.599,-25.228c-1.723,0.39 -3.337,1.322 -4.562,2.774c-2.991,3.544 -2.542,8.85 1.002,11.841l0.269,0.228l-13.266,-1.628c-1.509,-5.558 -0.488,-11.711 3.223,-16.581l13.334,3.366Z" style="fill:#969696;"/><path d="M257.602,85.435l4.702,15.96c2.978,10.107 -2.81,20.73 -12.917,23.707c-10.107,2.978 -20.73,-2.81 -23.708,-12.917l-4.702,-15.96c-2.978,-10.107 2.81,-20.73 12.917,-23.708c10.107,-2.977 20.73,2.811 23.708,12.918Zm-10.252,3.02c-1.311,-4.449 -5.987,-6.996 -10.435,-5.686c-4.449,1.311 -6.997,5.987 -5.686,10.436l4.702,15.96c1.311,4.449 5.987,6.996 10.436,5.686c4.448,-1.311 6.996,-5.987 5.685,-10.436l-4.702,-15.96Z" style="fill:#a6a6a6;"/><path d="M242.845,83.218c-1.792,-0.838 -3.885,-1.051 -5.93,-0.449c-4.449,1.311 -6.997,5.987 -5.686,10.436l0.295,1.002l-9.72,-11.031c2.184,-4.982 6.469,-9.002 12.09,-10.659c1.137,-0.335 2.281,-0.559 3.419,-0.678l5.532,11.379Zm1.258,42.666c-6.843,0.041 -13.266,-3.632 -16.683,-9.609l7.997,-8.856l0.514,1.746c1.311,4.449 5.987,6.996 10.436,5.686c1.322,-0.39 2.477,-1.077 3.412,-1.967l-5.676,13Z" style="fill:#969696;"/><path d="M212.464,148.986c2.269,1.885 5.643,1.574 7.528,-0.695l28.204,-33.939c1.886,-2.269 1.575,-5.642 -0.695,-7.528c-2.269,-1.886 -5.642,-1.574 -7.528,0.695l-28.204,33.938c-1.885,2.27 -1.574,5.643 0.695,7.529Z" style="fill:#b8b3b3;"/><path d="M239.96,91.785c2.404,-1.71 2.968,-5.05 1.258,-7.455l-25.574,-35.962c-1.71,-2.404 -5.05,-2.968 -7.455,-1.258c-2.404,1.71 -2.968,5.05 -1.258,7.455l25.574,35.961c1.71,2.405 5.05,2.969 7.455,1.259Z" style="fill:#b8b3b3;"/></g><g><path d="M123.335,70.443l39.926,23.38l-0,114.856l-55.791,12.042l-39.926,-23.38l0,-114.897l55.791,-12.001Z" style="fill:#9b3720;"/><path d="M102.207,140.153l0,10.066l-13.69,-8.017l0,-10.065l13.69,8.016Z" style="fill:#6e1d09;"/><path d="M88.512,142.201l0,10.065l-13.69,-8.016l0,-10.066l13.69,8.017Z" style="fill:#6e1d09;"/><path d="M88.512,194.003l0,10.065l-13.69,-8.016l0,-10.066l13.69,8.017Z" style="fill:#6e1d09;"/><path d="M103.823,179.34l0,10.066l-13.69,-8.017l0,-10.065l13.69,8.016Z" style="fill:#6e1d09;"/><path d="M107.47,105.825l-39.926,-23.381l55.791,-12.001l39.926,23.38l-55.791,12.002Z" style="fill:#ede4c0;"/><path d="M163.261,93.823l-0,114.856l-55.791,12.042l0,-114.896l55.791,-12.002Z" style="fill:#b83f22;"/><path d="M158.771,133.098l-0,10.209l-20.74,4.477l-0,-10.249l20.74,-4.437Z" style="fill:#aa2d0f;"/><path d="M138.031,147.784l-0,10.209l-20.74,4.476l-0,-10.249l20.74,-4.436Z" style="fill:#aa2d0f;"/><path d="M158.771,172.791l-0,10.21l-20.74,4.476l-0,-10.249l20.74,-4.437Z" style="fill:#aa2d0f;"/><path d="M123.335,70.443l39.926,23.38l-0,42.311l-55.791,12.042l-39.926,-23.381l0,-42.351l55.791,-12.001Z" style="fill-opacity:0.25;"/><path d="M67.544,142.862l5.054,2.188c1.097,0.475 1.986,1.331 2.504,2.409l3.279,6.836l8.355,7.146c1.132,0.968 1.769,2.392 1.737,3.881l-0.365,16.731l5.349,-3.517l5.561,-9.124c0.555,-0.91 1.388,-1.617 2.376,-2.017l4.856,-1.967c2.142,-0.867 4.598,-0.142 5.926,1.748l8.629,12.282c0.238,0.339 0.433,0.707 0.58,1.095l2.102,5.548l9.077,2.364c0.727,0.189 1.403,0.542 1.974,1.031l3.074,2.627l1.803,-11.202c0.206,-1.28 0.905,-2.429 1.947,-3.2l6.312,-4.676l8.385,-7.548c1.136,-1.022 2.68,-1.465 4.185,-1.199l3.017,0.533l-0,43.848l-55.791,12.042l-39.926,-23.38l0,-54.479Z" style="fill-opacity:0.25;"/></g><g><path d="M44.53,181.895c-1.139,-0.717 -2.816,-1.132 -3.742,-0.925l-24.505,5.475c-0.926,0.207 -0.753,0.958 0.386,1.676l14.984,9.441c1.14,0.718 2.816,1.133 3.743,0.926l24.504,-5.475c0.927,-0.207 0.754,-0.958 -0.386,-1.676l-14.984,-9.442Z" style="fill:#686868;"/><path d="M60.496,192.486l-44.808,-5.508l11.66,-46.793l5.182,-0.305l5.03,-5.487l4.573,0.153l5.792,6.401l-0.762,4.635l3.048,-0l10.285,46.904Z" style="fill:#4a4a4a;"/><path d="M60.496,192.486l-44.808,-5.508l7.467,-29.966l0.422,26.438l6.788,-1.658l-3.017,-41.607l5.182,-0.305l3.468,40.899l1.562,-46.386l4.573,0.153l1.814,9.942l3.978,-3.541l-0.762,4.635l-4.329,31.508l7.377,-31.508l10.285,46.904Z" style="fill:#686868;"/><path d="M52.509,156.06l7.936,36.194c0.034,0.081 0.051,0.159 0.051,0.232c0,0.246 -0.195,0.437 -0.596,0.527l-19.688,4.399l12.297,-41.352Z" style="fill-opacity:0.25;"/></g><path d="M52.58,194.178c0.084,-0.018 0.167,0.037 0.184,0.122c0.018,0.084 -0.037,0.167 -0.121,0.184c-2.818,0.708 -5.729,1.212 -8.423,2.324c-0.714,0.295 -1.298,0.702 -1.973,1.073c-0.436,0.236 -0.829,0.494 -1.308,0.682c-1.051,0.414 -2.219,0.568 -3.357,0.779c-1.771,0.329 -3.548,0.456 -5.257,0.217c-0.894,-0.131 -1.77,-0.36 -2.582,-0.757c-1.059,-0.518 -1.974,-1.294 -2.923,-1.955c-1.563,-1.238 -2.946,-2.57 -4.48,-3.821c-0.638,-0.52 -1.332,-0.964 -1.985,-1.468c-0.217,-0.169 -0.462,-0.306 -0.641,-0.515c-0.327,-0.382 -5.775,-5.228 -5.72,-5.307c0.054,-0.08 8.466,5.285 9.558,5.856c1.638,0.857 3.297,1.538 5.025,2.235l4.525,2.055c0.762,0.236 1.548,0.42 2.37,0.453c1.632,0.065 3.287,-0.397 4.894,-0.547c0.464,-0.043 0.882,0.012 1.332,0.009c0.775,-0.011 1.487,0.06 2.261,-0.021c2.908,-0.304 5.742,-1.133 8.621,-1.598Z" style="fill:#fff;"/><g><path d="M182.378,172.765l-9.729,58.071l-120.968,-12.233l6.083,-68.384l4.674,-4.157l8.188,3.544l3.732,7.781l9.152,7.827l-0.875,40.149l5.117,-17.133l9.364,-6.159l6.141,-10.075l4.856,-1.966l8.63,12.282l3.01,7.947l11.559,3.01l8.068,6.897l2.649,-4.248l2.288,-14.208l6.502,-4.817l8.561,-7.706l8.176,1.445l3.371,-3.853l6.021,-0l5.43,5.986Z" style="fill:#2c2c2c;"/><path d="M150.799,278.823c0.247,0.654 -0.089,1.178 -1.05,1.392l-42.157,9.42c-1.755,0.392 -4.931,-0.394 -7.089,-1.754l-28.382,-17.884c-1.533,-0.966 -2.142,-1.964 -1.737,-2.601c0.047,-0.074 0.108,-0.144 0.184,-0.208l2.29,-2.593l-38.139,-24.033c-2.375,-1.496 -3.326,-3.042 -2.715,-4.034c0.118,-0.192 0.295,-0.364 0.531,-0.51l2.424,-2.328l15.098,-57.68l7.707,-25.791l8.911,3.857l4.062,8.468l9.958,8.517l-0.524,47.542l7.993,-24.349l7.338,-4.848l6.683,-10.964l5.285,-2.14l9.391,13.366l3.276,8.648l12.579,3.276l8.78,7.506l2.882,-4.623l2.49,-15.462l7.076,-5.242l9.317,-8.386l8.897,1.573l3.669,-4.193l6.551,-0l4.356,39.499l8.989,36.031c0.436,0.494 2.611,2.966 2.715,3.101c0.969,1.261 0.657,2.335 -1.054,2.717l-62.568,13.98l11.027,6.948l3.162,-0.278l1.725,3.904c0.024,0.052 0.047,0.104 0.069,0.156Z" style="fill:#535353;"/><path d="M150.799,278.823c0.247,0.654 -0.089,1.178 -1.05,1.392l-42.157,9.42c-1.755,0.392 -4.931,-0.394 -7.089,-1.754l-28.382,-17.884c-1.533,-0.966 -2.142,-1.964 -1.737,-2.601c0.047,-0.074 0.108,-0.144 0.184,-0.208l2.29,-2.593l-38.139,-24.033c-2.375,-1.496 -3.326,-3.042 -2.715,-4.034c0.118,-0.192 0.295,-0.364 0.531,-0.51l2.424,-2.328l15.098,-57.68l7.707,-25.791l2.76,1.195l-20.984,80.575l1.248,5.006l25.887,-82.919l4.062,8.468l-7.418,57.433l-3.011,31.36l7.46,-33.584l12.927,-46.692l-0.524,47.542l7.993,-24.349l7.338,-4.848l6.683,-10.964l5.285,-2.14l9.391,13.366l3.276,8.648l12.579,3.276l8.78,7.506l2.882,-4.623l2.49,-15.462l6.901,23.136l4.449,42.39l7.166,2.831l-11.44,-73.599l9.317,-8.386l9.649,71.456l9.957,5.202l-10.709,-75.085l3.669,-4.193l5.991,39.146l0.56,-39.146l4.356,39.499l8.989,36.031c0.436,0.494 2.611,2.966 2.715,3.101c0.969,1.261 0.657,2.335 -1.054,2.717l-62.568,13.98l11.027,6.948l3.162,-0.278l1.725,3.904c0.024,0.052 0.047,0.104 0.069,0.156Z" style="fill:#686868;"/><path d="M100.503,287.881c-0.511,0.921 -35.809,0.28 -50.609,-9.381c-4.109,-2.683 -6.1,-7.392 -8.129,-8.575c-5.071,-2.956 -20.197,-4.376 -26.769,-15.275c-4.957,-8.22 7.127,-11.142 12.083,-12.218c2.875,-0.624 5.815,-0.786 8.684,-1.401c2.681,-0.575 5.296,-1.575 8.053,-1.739c3.414,-0.204 6.859,-0.401 10.274,-0.534c3.07,-0.12 11.579,-4.686 19.315,-7.673c1.047,-0.404 3.196,-0.886 5.061,-1.035l-5.028,33.759c-0.03,0.099 -0.04,0.205 -0.028,0.316c-0.002,0 -0.003,0.001 -0.005,0.001c-0.059,0.009 -0.049,0.045 0.022,0.106c0.118,0.541 0.702,1.199 1.722,1.842l25.354,21.807Z" style="fill:#f9e594;"/><path d="M99.409,286.94l1.094,0.941c-0.511,0.921 -35.809,0.28 -50.609,-9.381c-4.109,-2.683 -6.1,-7.392 -8.129,-8.575c-5.071,-2.956 -20.197,-4.376 -26.769,-15.275c-4.957,-8.22 7.127,-11.142 12.083,-12.218c2.875,-0.624 5.815,-0.786 8.684,-1.401c2.681,-0.575 -18.046,4.27 -13.09,12.49c6.572,10.899 21.698,12.319 26.77,15.275c2.028,1.183 4.019,5.892 8.128,8.575c10.238,6.683 30.282,9.049 41.838,9.569Z" style="fill:#dfc86d;"/><path d="M67.768,261.387l6.503,-43.663c0.049,-0.333 0.127,-0.662 0.232,-0.982l5.886,-17.931l-0.218,19.792l-6.733,45.206c-0.185,0.596 -0.58,0.786 -0.58,0.786l-5.09,-3.208Zm80.146,3.78l-6.418,-56.069l2.882,-4.623l0.108,-0.669l0.886,0.757c1.146,0.98 1.879,2.358 2.051,3.856l6.346,55.439l-5.855,1.309Z" style="fill-opacity:0.15;"/><path d="M148.988,274.549c0.099,0.519 -0.239,0.928 -1.041,1.107l-39.534,8.834c-1.646,0.367 -4.624,-0.369 -6.648,-1.644l-26.616,-16.772c-1.305,-0.822 -1.896,-1.669 -1.711,-2.265l6.733,-45.206l7.993,-24.349l7.338,-4.848l6.683,-10.964l5.285,-2.14l9.391,13.366l3.276,8.648l12.579,3.276l8.78,7.506l7.492,65.451Z" style="fill:#535353;"/><path d="M148.988,274.549c0.099,0.519 -0.239,0.928 -1.041,1.107l-39.534,8.834c-1.646,0.367 -4.624,-0.369 -6.648,-1.644l-26.616,-16.772c-1.305,-0.822 -1.896,-1.669 -1.711,-2.265l6.733,-45.206l23.117,2.13l38.208,-11.635l7.492,65.451Z" style="fill:#535353;"/><path d="M148.988,274.549c0.099,0.519 -0.239,0.928 -1.041,1.107l-39.534,8.834c-1.646,0.367 -4.624,-0.369 -6.648,-1.644l-26.616,-16.772c-1.305,-0.822 -1.896,-1.669 -1.711,-2.265l6.733,-45.206l4.582,44.86l11.872,-7.073l-8.461,-62.136l7.338,-4.848l6.903,88.897l3.624,-3.673l10.832,-84.962l3.276,8.648l-2.582,75.367l15.161,-72.091l8.78,7.506l7.492,65.451Z" style="fill:#686868;"/></g><g><g><path d="M128.502,50.578l64.774,37.931l-0.231,27.13l-90.511,19.536l-64.774,-37.931l0.23,-27.195l90.512,-19.471Z" style="fill:#939084;"/><path d="M102.207,108.537l-64.217,-38.488l90.512,-19.471l64.774,37.931l-91.069,20.028Z" style="fill:#6d6d6d;"/><path d="M193.276,88.509l-0.231,27.13l-90.511,19.536l-0.327,-26.638l91.069,-20.028Z" style="fill:#9f9c90;"/></g><g><path d="M126.32,38.098l53.425,31.285l-0.376,17.262l-74.654,16.113l-53.425,-31.286l0.376,-17.315l74.654,-16.059Z" style="fill:#f3e259;"/><path d="M179.745,69.383l-0.376,17.262l-74.654,16.113l-0.083,-16.856l75.113,-16.519Z" style="fill:#fff078;"/></g><path d="M107.927,87.105l-0,15.797c-0,1.818 -1.476,3.294 -3.295,3.294c-1.818,-0 -3.294,-1.476 -3.294,-3.294l0,-15.797c0,-1.818 1.476,-3.294 3.294,-3.294c1.819,-0 3.295,1.476 3.295,3.294Zm18.64,-3.438l-0,15.796c-0,1.819 -1.476,3.295 -3.295,3.295c-1.818,-0 -3.294,-1.476 -3.294,-3.295l-0,-15.796c-0,-1.818 1.476,-3.295 3.294,-3.295c1.819,0 3.295,1.477 3.295,3.295Zm-73.117,-26.965l-0,15.796c-0,1.818 -1.476,3.294 -3.295,3.294c-1.818,0 -3.294,-1.476 -3.294,-3.294l0,-15.796c0,-1.819 1.476,-3.295 3.294,-3.295c1.819,0 3.295,1.476 3.295,3.295Zm10.982,6.903l0,15.796c0,1.819 -1.476,3.295 -3.294,3.295c-1.818,-0 -3.295,-1.476 -3.295,-3.295l0,-15.796c0,-1.818 1.477,-3.295 3.295,-3.295c1.818,0 3.294,1.477 3.294,3.295Zm27.138,15.482l-0,15.796c-0,1.818 -1.476,3.295 -3.295,3.295c-1.818,-0 -3.294,-1.477 -3.294,-3.295l-0,-15.796c-0,-1.818 1.476,-3.295 3.294,-3.295c1.819,0 3.295,1.477 3.295,3.295Zm-14.111,-8.042l-0,15.796c-0,1.819 -1.477,3.295 -3.295,3.295c-1.818,-0 -3.294,-1.476 -3.294,-3.295l-0,-15.796c-0,-1.818 1.476,-3.294 3.294,-3.294c1.818,-0 3.295,1.476 3.295,3.294Zm68.024,8.955l0,15.797c0,1.818 -1.476,3.294 -3.294,3.294c-1.818,-0 -3.294,-1.476 -3.294,-3.294l-0,-15.797c-0,-1.818 1.476,-3.294 3.294,-3.294c1.818,-0 3.294,1.476 3.294,3.294Zm37.557,-8.341l-0,15.797c-0,1.818 -1.476,3.294 -3.295,3.294c-1.818,0 -3.294,-1.476 -3.294,-3.294l0,-15.797c0,-1.818 1.476,-3.294 3.294,-3.294c1.819,-0 3.295,1.476 3.295,3.294Zm-18.811,4.049l-0,15.797c-0,1.818 -1.477,3.294 -3.295,3.294c-1.818,0 -3.294,-1.476 -3.294,-3.294l-0,-15.797c-0,-1.818 1.476,-3.294 3.294,-3.294c1.818,-0 3.295,1.476 3.295,3.294Z" style="fill:#9f9c90;"/><path d="M53.442,66.309c-0.121,1.709 -1.547,3.06 -3.287,3.06c-1.818,-0 -3.294,-1.477 -3.294,-3.295l0,-15.796c0,-1.819 1.476,-3.295 3.294,-3.295c0.737,0 1.418,0.243 1.967,0.652l74.198,-15.961l52.135,30.53c0.397,-0.169 0.833,-0.263 1.29,-0.263c1.819,0 3.295,1.476 3.295,3.295l-0,15.796c-0,1.818 -1.476,3.294 -3.295,3.294c-1.818,0 -3.294,-1.476 -3.294,-3.294l0,-0.181l-12.222,2.638l-0,1.592c-0,1.818 -1.477,3.294 -3.295,3.294c-1.818,0 -3.294,-1.476 -3.294,-3.294l-0,-0.17l-12.157,2.624l0,1.838c0,1.818 -1.476,3.294 -3.294,3.294c-1.818,0 -3.294,-1.476 -3.294,-3.294l-0,-0.416l-12.328,2.66l-0,1.422c-0,1.819 -1.476,3.295 -3.295,3.295c-1.818,-0 -3.294,-1.476 -3.294,-3.294l-12.051,2.601l-0,0.837c-0,1.818 -1.476,3.294 -3.295,3.294c-1.818,0 -3.294,-1.476 -3.294,-3.294l0,-2.122l-9.773,-5.723c-0.09,1.738 -1.53,3.121 -3.29,3.121c-1.818,-0 -3.294,-1.476 -3.294,-3.295l-0,-3.681l-7.522,-4.405l-0,0.045c-0,1.818 -1.477,3.294 -3.295,3.294c-1.818,0 -3.294,-1.476 -3.294,-3.294l-0,-3.904l-6.438,-3.77l0,0.233c0,1.819 -1.476,3.295 -3.294,3.295c-1.818,-0 -3.295,-1.476 -3.295,-3.295l0,-4.091l-4.401,-2.577Z" style="fill-opacity:0.25;"/><g><path d="M128.727,25.178l64.775,37.931l-0.457,8.703l-90.511,19.536l-64.774,-37.931l0.456,-8.768l90.511,-19.471Z" style="fill:#dbdbdb;"/><path d="M102.433,83.137l-64.217,-38.488l90.511,-19.471l64.775,37.931l-91.069,20.028Z" style="fill:#eaeaea;"/><path d="M193.502,63.109l-0.457,8.703l-90.511,19.536l-0.101,-8.211l91.069,-20.028Z" style="fill:#fff;"/></g><g><g><path d="M52.811,30.471l10.418,6.101l-0.038,11.179l-14.557,3.142l-10.418,-6.244l0.037,-11.189l14.558,-2.989Z" style="fill:#dbdbdb;"/><path d="M48.582,39.793l-10.329,-6.333l14.558,-2.989l10.418,6.101l-14.647,3.221Z" style="fill:#fff;"/><path d="M63.229,36.572l-0.038,11.179l-14.557,3.142l-0.052,-11.1l14.647,-3.221Z" style="fill:#fff;"/></g><g><path d="M106.61,62.715l10.418,6.101l-0.037,11.179l-14.558,3.142l-10.418,-6.244l0.037,-11.189l14.558,-2.989Z" style="fill:#dbdbdb;"/><path d="M102.381,72.037l-10.329,-6.333l14.558,-2.989l10.418,6.101l-14.647,3.221Z" style="fill:#fff;"/><path d="M117.028,68.816l-0.037,11.179l-14.558,3.142l-0.052,-11.1l14.647,-3.221Z" style="fill:#fff;"/></g><g><path d="M183.121,45.889l10.418,6.041l-0.037,11.179l-14.558,3.201l-10.418,-6.244l0.037,-11.189l14.558,-2.988Z" style="fill:#dbdbdb;"/><path d="M178.892,55.211l-10.329,-6.334l14.558,-2.988l10.418,6.041l-14.647,3.281Z" style="fill:#fff;"/><path d="M193.539,51.93l-0.037,11.179l-14.558,3.201l-0.052,-11.099l14.647,-3.281Z" style="fill:#fff;"/></g><g><path d="M128.859,14.111l10.418,6.042l-0.037,11.179l-14.557,3.201l-10.418,-6.244l0.037,-11.189l14.557,-2.989Z" style="fill:#dbdbdb;"/><path d="M124.63,23.433l-10.328,-6.333l14.557,-2.989l10.418,6.042l-14.647,3.28Z" style="fill:#fff;"/><path d="M139.277,20.153l-0.037,11.179c-5.035,1.067 -9.705,2.134 -14.557,3.201l-0.053,-11.1l14.647,-3.28Z" style="fill:#fff;"/></g><g><path d="M93.286,21.764l10.418,6.041l-0.037,11.179l-14.557,3.202l-10.418,-6.244l0.037,-11.19l14.557,-2.988Z" style="fill:#dbdbdb;"/><path d="M89.057,31.086l-10.328,-6.334l14.557,-2.988l10.418,6.041l-14.647,3.281Z" style="fill:#fff;"/><path d="M103.704,27.805l-0.037,11.179c-5.035,1.067 -9.705,2.134 -14.557,3.202l-0.053,-11.1l14.647,-3.281Z" style="fill:#fff;"/></g><g><path d="M78.72,46l10.418,6.041l-0.037,11.179l-14.557,3.202l-10.418,-6.244l0.037,-11.19l14.557,-2.988Z" style="fill:#dbdbdb;"/><path d="M74.491,55.322l-10.328,-6.334l14.557,-2.988l10.418,6.041l-14.647,3.281Z" style="fill:#fff;"/><path d="M89.138,52.041l-0.037,11.179c-5.035,1.067 -9.705,2.134 -14.557,3.202l-0.053,-11.1l14.647,-3.281Z" style="fill:#fff;"/></g><g><path d="M144.011,54.49l10.418,6.041l-0.037,11.179l-14.558,3.202l-10.418,-6.244l0.037,-11.19l14.558,-2.988Z" style="fill:#dbdbdb;"/><path d="M139.782,63.812l-10.329,-6.334l14.558,-2.988l10.418,6.041l-14.647,3.281Z" style="fill:#fff;"/><path d="M154.429,60.531l-0.037,11.179c-5.035,1.067 -9.706,2.134 -14.558,3.202l-0.052,-11.1l14.647,-3.281Z" style="fill:#fff;"/></g><g><path d="M155.677,29.818l10.418,6.041l-0.038,11.179l-14.557,3.201l-10.418,-6.244l0.037,-11.189l14.558,-2.988Z" style="fill:#dbdbdb;"/><path d="M151.447,39.14l-10.328,-6.334l14.558,-2.988l10.418,6.041l-14.648,3.281Z" style="fill:#fff;"/><path d="M166.095,35.859l-0.038,11.179c-5.034,1.067 -9.705,2.134 -14.557,3.201l-0.053,-11.099l14.648,-3.281Z" style="fill:#fff;"/></g></g></g><g><path d="M93,57.949c0,-11.924 0,-11.21 0,-11.21c0,-12.616 10.243,-25.117 22.859,-27.898c12.616,-2.781 22.859,5.203 22.859,17.819c-0,0 -0,-0.446 -0,11.478c-0,8.055 -12.798,8.316 -12.798,1.78l0,-10.436c0,-5.554 -4.508,-9.068 -10.061,-7.844c-5.553,1.224 -10.062,6.727 -10.062,12.28l0,12.32c0,7.454 -12.797,7.881 -12.797,1.711Z" style="fill:#b1b1b1;"/><path d="M138.644,34.829c0.049,0.599 0.074,1.209 0.074,1.831l-0,11.478c-0,8.055 -12.798,8.316 -12.798,1.78l0,-10.436c0,-1.98 -0.573,-3.701 -1.562,-5.041c3.64,3.252 13.08,4.3 14.286,0.388Z" style="fill:#7b7b7b;fill-opacity:0.5;"/><path d="M118.437,18.417c2.934,-3.14 6.937,-5.313 11.528,-5.898l16.506,-2.1c10.452,-1.33 20.018,6.075 21.348,16.527c1.33,10.453 -6.076,20.018 -16.528,21.349l-16.505,2.1c-10.452,1.33 -20.018,-6.075 -21.348,-16.527c-0.058,-0.45 -0.099,-0.898 -0.124,-1.344c0.813,-0.391 1.666,-0.692 2.545,-0.886c3.929,-0.866 7.336,0.64 8.992,3.563c1.549,3.111 4.945,5.055 8.585,4.592l16.506,-2.101c4.6,-0.585 7.86,-4.796 7.275,-9.396c-0.586,-4.601 -4.796,-7.861 -9.397,-7.275l-14.722,1.874c-3.66,-3.395 -8.83,-5.108 -14.661,-4.478Z" style="fill:#a6a6a6;"/><path d="M167.138,23.768c0.312,1.022 0.541,2.083 0.681,3.178c0.688,5.411 -0.964,10.584 -4.168,14.5l-11.492,-4.35c3.38,-1.431 5.544,-4.981 5.058,-8.8c-0.287,-2.254 -1.444,-4.185 -3.089,-5.501l13.01,0.973Z" style="fill:#969696;"/><path d="M137.438,22.342l-4.34,0.553c-3.66,-3.395 -8.83,-5.108 -14.661,-4.478c2.057,-2.202 4.64,-3.928 7.583,-4.965c5.191,0.761 10.498,4.183 11.418,8.89Zm-23.297,14.777c-0.323,-1.044 -0.561,-2.13 -0.703,-3.251c-0.058,-0.45 -0.099,-0.898 -0.124,-1.344c0.813,-0.391 1.666,-0.692 2.545,-0.886c3.929,-0.866 7.336,0.64 8.992,3.563c-3.681,-2.069 -8.704,-1.128 -10.71,1.918Zm24.906,12.734l-4.261,0.542c-2.969,0.378 -5.866,0.051 -8.523,-0.85l12.784,0.308Z" style="fill:#969696;"/><path d="M199.907,38.188c0.527,-2.903 -1.402,-5.688 -4.305,-6.215l-43.418,-7.882c-2.903,-0.527 -5.688,1.402 -6.215,4.305c-0.527,2.903 1.402,5.687 4.305,6.214l43.419,7.883c2.903,0.527 5.687,-1.402 6.214,-4.305Z" style="fill:#b8b3b3;"/><g><path d="M151.933,42.14c0.989,-0.125 1.893,0.577 2.017,1.566c0.125,0.989 -0.577,1.892 -1.565,2.017c-9.086,1.144 -15.746,2.454 -20.661,2.104c-3.764,-0.268 -6.614,-1.453 -8.832,-4.083c-0.643,-0.761 -0.547,-1.902 0.215,-2.544c0.762,-0.643 1.902,-0.546 2.545,0.215c2.028,2.404 4.849,2.961 8.709,2.849c4.474,-0.13 10.202,-1.196 17.572,-2.124Z" style="fill:#b3b3b3;"/><path d="M139.43,16.906c-0.974,0.211 -1.937,-0.408 -2.148,-1.382c-0.211,-0.974 0.408,-1.937 1.382,-2.148c11.1,-2.407 19.344,-1.633 23.812,5.647c0.521,0.85 0.255,1.962 -0.595,2.484c-0.849,0.521 -1.962,0.254 -2.483,-0.595c-3.718,-6.059 -10.731,-6.01 -19.968,-4.006Z" style="fill:#b3b3b3;"/><path d="M243.967,78.53c-0.969,-0.233 -1.567,-1.208 -1.335,-2.177c0.232,-0.969 1.207,-1.568 2.177,-1.335c3.692,0.884 6.391,3.373 8.53,7.218c2.846,5.115 4.717,12.792 7.187,21.903c0.261,0.962 -0.309,1.954 -1.27,2.215c-0.962,0.261 -1.955,-0.308 -2.216,-1.27c-1.993,-7.352 -3.553,-13.749 -5.616,-18.543c-1.822,-4.234 -3.955,-7.172 -7.457,-8.011Z" style="fill:#b3b3b3;"/><path d="M100.435,42.19c-0.262,0.961 -1.255,1.529 -2.217,1.267c-0.961,-0.262 -1.529,-1.255 -1.267,-2.217c3.357,-12.314 14.301,-19.981 23.798,-20.156c6.647,-0.123 12.666,3.259 15.247,11.126c0.311,0.947 -0.206,1.968 -1.153,2.279c-0.947,0.31 -1.968,-0.206 -2.279,-1.153c-1.994,-6.079 -6.612,-8.736 -11.749,-8.641c-8.178,0.151 -17.489,6.889 -20.38,17.495Z" style="fill:#c2c2c2;"/><path d="M195.062,150.502c-0.277,0.957 -1.279,1.51 -2.236,1.233c-0.958,-0.277 -1.51,-1.279 -1.233,-2.237c4.272,-14.772 12.78,-18.96 20.596,-21.058c0.963,-0.258 1.954,0.313 2.213,1.276c0.258,0.962 -0.314,1.954 -1.276,2.212c-6.875,1.845 -14.306,5.58 -18.064,18.574Z" style="fill:#c2c2c2;"/><path d="M197.502,24.732c-0.958,0.275 -1.959,-0.28 -2.233,-1.238c-0.275,-0.958 0.28,-1.959 1.238,-2.233c3.282,-0.941 8.291,0.576 11.291,3.14c4.932,4.219 8.643,7.616 13.576,12.016c1.769,1.577 3.463,4.056 4.302,6.601c0.613,1.859 0.766,3.752 0.298,5.401c-0.272,0.958 -1.272,1.516 -2.23,1.244c-0.959,-0.273 -1.516,-1.272 -1.244,-2.231c0.285,-1.004 0.119,-2.151 -0.254,-3.283c-0.64,-1.941 -1.927,-3.834 -3.275,-5.037c-4.913,-4.381 -8.608,-7.765 -13.521,-11.966c-2.126,-1.818 -5.622,-3.08 -7.948,-2.414Z" style="fill:#b3b3b3;"/><path d="M242.788,108.485c0.638,-0.765 1.777,-0.869 2.543,-0.231c0.766,0.638 0.869,1.778 0.231,2.543l-25.403,30.484c-0.638,0.766 -1.778,0.869 -2.543,0.231c-0.766,-0.638 -0.869,-1.777 -0.231,-2.543l25.403,-30.484Z" style="fill:#ccc6c6;"/><path d="M211.199,52.423c-0.574,-0.815 -0.379,-1.943 0.436,-2.516c0.815,-0.574 1.943,-0.379 2.516,0.436l24.388,34.633c0.573,0.815 0.378,1.943 -0.437,2.517c-0.815,0.573 -1.943,0.378 -2.516,-0.437l-24.387,-34.633Z" style="fill:#ccc6c6;"/><path d="M156.7,30.293c-0.979,-0.189 -1.62,-1.136 -1.431,-2.115c0.188,-0.978 1.136,-1.62 2.115,-1.431l37.766,7.282c0.978,0.189 1.62,1.137 1.431,2.115c-0.189,0.979 -1.136,1.62 -2.115,1.431l-37.766,-7.282Z" style="fill:#ccc6c6;"/></g></g><path d="M153.485,278.108c0.509,-0.052 8.668,-1.009 8.71,-0.797c0.042,0.212 -7.743,2.849 -8.21,3.015c-4.644,1.651 -9.188,3.502 -13.809,5.197c-2.136,0.908 -4.159,1.919 -6.349,2.673c-5.081,1.747 -27.363,1.713 -25.803,1.388c2.877,-0.599 10.539,-3.023 13.221,-3.582c5.141,-0.889 5.757,-3.374 10.878,-4.312c2.261,-0.414 4.501,-0.551 6.787,-0.843c4.869,-0.873 9.647,-2.236 14.575,-2.739Zm0.436,-14.068c-0.088,0.026 -0.181,-0.025 -0.207,-0.113c-0.026,-0.089 0.025,-0.181 0.113,-0.207c0.179,-0.199 0.235,-0.361 0.462,-0.501c0.166,-0.102 0.374,-0.106 0.562,-0.158c3.354,-0.923 6.752,-1.439 10.122,-2.296c0.391,-0.132 0.79,-0.229 1.168,-0.392c0.938,-0.406 1.676,-0.99 2.612,-1.4c0.841,-0.368 1.709,-0.64 2.591,-0.897c5.079,-1.479 10.297,-2.442 15.423,-3.745c1.713,-0.368 3.444,-0.724 5.195,-1.003c2.566,-0.41 5.079,-0.975 7.635,-1.311c0.517,-0.068 0.973,-0.021 1.492,-0.054c0.29,-0.11 0.616,0.037 0.726,0.328c0.109,0.291 -0.037,0.616 -0.328,0.726c-0.383,0.311 -0.687,0.608 -1.113,0.858c-0.904,0.53 -1.92,0.814 -2.915,1.16c-3.217,1.119 -6.569,1.871 -9.792,2.877c-5.151,1.28 -10.273,2.731 -15.497,3.676c-0.902,0.164 -1.798,0.307 -2.714,0.355c-1.019,0.054 -1.939,-0.137 -2.957,-0.074c-0.411,0.025 -0.81,0.119 -1.217,0.18c-3.386,0.769 -6.794,1.189 -10.163,2.032c-0.184,0.046 -0.361,0.145 -0.551,0.143c-0.263,-0.003 -0.393,-0.115 -0.647,-0.184Zm49.366,-20.562c-0.046,0.016 -0.097,-0.009 -0.112,-0.055c-0.016,-0.046 0.008,-0.097 0.055,-0.112c3.177,-1.396 6.463,-2.518 9.864,-3.324c3.437,-0.814 6.93,-1.264 10.44,-1.442c1.558,-0.047 3.11,0.005 4.664,0.15c3.437,0.321 6.848,1.031 10.28,1.301c2.423,0.258 5.309,0.235 8.364,0.262c1.119,0.01 2.251,0.032 3.4,0.091c1.744,0.089 3.433,0.413 5.174,0.37c1.957,-0.049 3.85,-0.483 5.662,-0.711c1.398,-0.176 2.716,-0.409 3.978,-0.483c0.644,-0.037 1.193,0.042 1.794,0.042c0.004,-0.001 0.008,0.001 0.009,0.006c0.002,0.004 -0.001,0.008 -0.005,0.009c-0.51,0.33 -0.953,0.675 -1.545,0.95c-1.261,0.585 -2.714,0.935 -4.233,1.292c-2.057,0.483 -4.31,0.589 -6.526,1.045c-1.593,0.328 -3.059,0.926 -4.652,1.22c-1.583,0.292 -3.164,0.424 -4.697,0.487c-2.596,0.109 -5.04,-0.096 -7.151,-0.326l-14.584,-2.333c-3.346,-0.306 -6.71,-0.305 -10.077,-0.043c-3.424,0.266 -6.794,0.774 -10.102,1.604Zm-21.724,23.556c-0.212,0.028 -0.408,-0.122 -0.436,-0.335c-0.028,-0.212 0.122,-0.408 0.334,-0.436c0.639,-0.176 1.241,-0.405 1.882,-0.558c2.526,-0.603 5.077,-1.012 7.538,-1.811c0.789,-0.256 1.599,-0.476 2.349,-0.839c0.513,-0.249 0.951,-0.58 1.435,-0.887c1.391,-0.745 2.622,-1.728 4.049,-2.408c0.489,-0.233 0.998,-0.42 1.529,-0.53c0.592,-0.122 1.104,-0.103 1.708,-0.132c0.388,-0.156 0.831,0.032 0.987,0.421c0.156,0.388 -0.032,0.831 -0.421,0.987c-0.435,0.38 -0.737,0.767 -1.201,1.113c-0.419,0.313 -0.868,0.578 -1.341,0.801c-1.467,0.692 -3.026,1.092 -4.584,1.539c-0.664,0.154 -1.316,0.244 -1.969,0.427c-2.562,0.715 -5.039,1.641 -7.63,2.192c-0.969,0.206 -1.934,0.496 -2.929,0.544c-0.443,0.022 -0.856,-0.052 -1.3,-0.088Zm58.439,-16.206c-0.245,-0.084 -0.376,-0.351 -0.292,-0.596c0.084,-0.245 0.351,-0.376 0.596,-0.292c0.843,0.245 1.734,0.339 2.639,0.393c1.388,0.083 2.809,0.04 4.143,0.027c1.01,0.021 2.025,0.058 3.032,-0.05c2.359,-0.251 4.6,-1.045 6.929,-1.59c1.318,-0.309 2.645,-0.584 3.976,-0.823c0.9,-0.161 1.802,-0.265 2.704,-0.385c0.86,-0.113 1.702,-0.336 2.562,-0.303c0.681,0.026 1.169,0.228 1.833,0.362c0.14,-0.03 0.277,0.058 0.307,0.197c0.03,0.14 -0.059,0.277 -0.198,0.307c-0.548,0.394 -0.9,0.794 -1.51,1.092c-2.052,1.004 -4.37,1.385 -6.627,1.882c-1.187,0.262 -2.391,0.457 -3.6,0.567c-1.849,0.167 -3.669,0.014 -5.514,0.035c-1.307,0.015 -2.608,0.12 -3.911,0.091c-1.366,-0.045 -2.826,-0.029 -4.239,-0.211c-0.983,-0.127 -1.938,-0.349 -2.83,-0.703Zm-225.78,2.465c-0.006,-0.017 0.003,-0.037 0.021,-0.042c0.018,-0.006 0.037,0.003 0.043,0.021c0.17,0.068 0.197,0.003 0.33,0.126c0.056,0.052 0.068,0.135 0.1,0.204c0.589,1.279 1.185,2.492 2.111,3.399c0.731,0.715 1.601,1.129 2.501,1.6c0.491,0.258 0.982,0.427 1.492,0.659c0.73,0.332 1.463,0.614 2.219,0.925c0.823,0.337 1.656,0.658 2.503,0.98c3.337,1.27 6.874,2.298 10.047,3.363c1.028,0.357 2.123,0.694 3.174,1.105c0.804,0.315 1.583,0.674 2.302,1.1c1.676,0.999 3.118,2.271 4.436,3.681c0.546,0.584 1.086,1.18 1.587,1.807c1.091,1.364 2.051,2.812 3.244,4.065c0.532,0.489 1.118,0.934 1.71,1.385c1.407,1.073 2.907,2.09 4.482,2.954c0.289,0.159 0.587,0.294 0.863,0.47c0.298,0.191 0.533,0.408 0.812,0.618c0.362,0.272 0.704,0.483 1.032,0.78c0.402,0.363 0.599,0.663 0.959,1.046c-0.617,0.08 -1.046,0.195 -1.691,0.194c-0.755,-0.002 -1.455,-0.113 -2.212,-0.296c-0.473,-0.114 -0.918,-0.32 -1.378,-0.493c-1.502,-0.561 -2.987,-1.19 -4.352,-1.994c-0.963,-0.567 -1.839,-1.243 -2.658,-1.945c-1.43,-1.087 -2.747,-2.314 -4.009,-3.617c-1.125,-1.162 -2.185,-2.382 -3.412,-3.415c-0.556,-0.468 -1.135,-0.91 -1.769,-1.289c-0.508,-0.305 -1.061,-0.555 -1.63,-0.781c-0.993,-0.395 -2.029,-0.716 -3.001,-1.06c-2.767,-0.986 -5.865,-1.813 -8.766,-3.043c-1.206,-0.512 -2.383,-1.076 -3.474,-1.759c-0.763,-0.479 -1.484,-0.978 -2.142,-1.571c-1.425,-1.283 -2.511,-2.694 -3.439,-4.345c-0.16,-0.285 -0.303,-0.565 -0.469,-0.85c-0.62,-1.058 -1.299,-2.123 -1.676,-3.393c-0.025,-0.084 -0.075,-0.167 -0.065,-0.255c0.022,-0.182 0.087,-0.171 0.175,-0.334Zm24.71,28.119c-0.034,-0.038 -0.031,-0.096 0.006,-0.13c0.038,-0.035 0.096,-0.032 0.131,0.006l1.941,2.4c0.409,0.45 0.87,0.854 1.36,1.224c0.492,0.371 1.012,0.704 1.536,1.012c0.992,0.544 2.062,0.997 3.171,1.399c1.635,0.592 3.337,1.028 4.985,1.281l6.405,0.87c2.084,0.425 4.274,0.656 6.208,1.559c0.536,0.251 0.911,0.598 1.396,0.933c0.088,0.025 0.139,0.117 0.113,0.205c-0.025,0.088 -0.117,0.139 -0.205,0.113c-0.58,0.027 -1.07,0.142 -1.652,0.104c-2.077,-0.139 -4.105,-0.743 -6.166,-0.974c-1.499,-0.229 -3.014,-0.319 -4.514,-0.527c-0.672,-0.093 -1.34,-0.213 -2.004,-0.365c-1.427,-0.4 -2.889,-0.916 -4.284,-1.59c-1.388,-0.672 -2.697,-1.473 -3.867,-2.372c-0.514,-0.369 -1.021,-0.765 -1.496,-1.196c-0.478,-0.433 -0.924,-0.898 -1.311,-1.406l-1.753,-2.546Z" style="fill:#fff;"/><g><path d="M261.632,273.644c-1.197,-0.76 -2.964,-1.198 -3.945,-0.977l-25.715,5.796c-0.98,0.221 -0.805,1.018 0.392,1.779l15.741,10.006c1.196,0.76 2.964,1.198 3.945,0.977l25.715,-5.796c0.98,-0.221 0.805,-1.018 -0.392,-1.779l-15.741,-10.006Z" style="fill:#686868;"/><path d="M278.404,284.867l-47.072,-5.836l12.25,-49.589l3.779,-2.462l6.634,0.056l9.266,7.71l4.339,0.415l10.804,49.706Z" style="fill:#535353;"/><path d="M278.404,284.867l-47.072,-5.836l4.976,-20.141l3.908,8.871l-0.497,-22.68l3.863,-15.639l3.779,-2.462l0.166,37.327l-4.598,13.027l11.317,-9.667l-0.251,-40.631l9.266,7.71l-6.472,50.121l4.335,-5.844l6.476,-43.862l10.804,49.706Z" style="fill:#686868;"/></g><g><path d="M232.232,279.607c-0.641,-0.437 -1.616,-0.682 -2.175,-0.547l-13.648,3.302c-0.56,0.135 -0.494,0.6 0.147,1.038l8.431,5.751c0.641,0.438 1.616,0.683 2.175,0.547l13.648,-3.301c0.56,-0.136 0.494,-0.601 -0.147,-1.038l-8.431,-5.752Z" style="fill:#686868;"/><path d="M241.215,286.059l-25.211,-3.355l2.975,-12.925l2.915,-0.186l6.156,-3.472l2.573,0.093l1.19,-3.898l4.535,-0.29l4.867,24.033Z" style="fill:#535353;"/><path d="M241.215,286.059l-25.211,-3.355l2.975,-12.925l2.915,-0.186l2.36,8.781l3.796,-12.253l2.573,0.093l3.24,16.46l-0.172,-14.673l-1.878,-5.685l4.535,-0.29l4.867,24.033Z" style="fill:#686868;"/></g><path d="M222.289,288.949c-1.424,-1.051 -9.042,-7.668 -8.998,-7.761c0.045,-0.094 10.131,5.207 11.459,6.067c0.77,0.462 5.978,0.218 6.989,-0.114c1.79,-0.588 3.537,-1.362 5.353,-1.94c0.81,-0.241 1.88,-0.816 2.841,-0.86c0.44,-0.02 0.841,-0.023 1.216,0.1c0.421,0.144 0.816,0.267 1.224,0.472c1.164,0.587 2.336,1.379 3.346,2.093c1.033,0.651 2.166,1.359 3.354,1.882c0.731,0.323 1.479,0.582 2.232,0.701c0.594,0.094 1.199,0.086 1.803,0.018c1.032,-0.116 2.06,-0.379 3.041,-0.611l7.927,-1.897c1.934,-0.481 3.909,-0.807 5.894,-1.043c1.545,-0.184 5.271,-0.872 6.82,-0.951c0.45,-0.023 3.081,-0.532 3.099,-0.481c0.018,0.052 -2.294,1.324 -2.658,1.548c-0.725,0.444 -3.793,0.974 -4.612,1.207c-2.619,0.743 -5.354,1.067 -7.95,1.885l-7.877,2.217c-1.072,0.301 -2.196,0.629 -3.328,0.803c-0.846,0.13 -1.696,0.167 -2.537,0.069c-0.992,-0.115 -1.986,-0.407 -2.962,-0.784c-1.346,-0.52 -2.652,-1.225 -3.836,-1.888c-0.688,-0.383 -1.402,-0.944 -2.211,-1.214c-0.398,-0.133 -0.791,-0.011 -1.186,0.038l-2.34,0.923c-2.182,0.645 -4.251,1.645 -6.451,2.105c-1.082,0.226 -2.186,0.333 -3.328,0.273c-0.473,-0.144 -3.46,-0.742 -6.324,-2.857Z" style="fill:#fff;"/></g></g></svg>