<?xml version="1.0" encoding="UTF-8" standalone="no"?>
<!DOCTYPE svg PUBLIC "-//W3C//DTD SVG 1.1//EN" "http://www.w3.org/Graphics/SVG/1.1/DTD/svg11.dtd">
<svg width="100%" height="100%" viewBox="0 0 18 12" version="1.1" xmlns="http://www.w3.org/2000/svg" xmlns:xlink="http://www.w3.org/1999/xlink" xml:space="preserve" xmlns:serif="http://www.serif.com/" style="fill-rule:evenodd;clip-rule:evenodd;stroke-linejoin:round;stroke-miterlimit:2;">
    <g transform="matrix(0.32,0,0,0.32,0,0)">
        <g transform="matrix(0.285682,0,0,0.285682,-10.7396,-12.0794)">
            <g transform="matrix(1,0,0,1,0,2.02203)">
                <path d="M227.664,160.606C227.664,165.86 223.4,170.125 218.146,170.125L47.217,170.125C41.963,170.125 37.698,165.86 37.698,160.606L37.698,48.762C37.698,44.032 41.538,40.192 46.268,40.192L219.094,40.192C223.824,40.192 227.664,44.032 227.664,48.762L227.664,160.606Z" style="fill:#80001b;"/>
            </g>
            <path d="M222.61,160.606C222.61,163.07 220.61,165.07 218.146,165.07L47.217,165.07C44.753,165.07 42.753,163.07 42.753,160.606L42.753,48.762C42.753,46.822 44.328,45.247 46.268,45.247L219.094,45.247C221.034,45.247 222.609,46.822 222.609,48.762L222.609,160.606L222.61,160.606L222.609,160.606L222.61,160.606Z" style="fill:#fff;"/>
            <g transform="matrix(3.50039,0,0,3.50039,-29.6943,-11.1601)">
                <circle cx="46.388" cy="33.23" r="10.773" style="fill:#bd0029;"/>
            </g>
        </g>
    </g>
</svg>
