<?xml version="1.0" encoding="UTF-8"?>
<svg id="Layer_1" data-name="Layer 1" xmlns="http://www.w3.org/2000/svg" xmlns:xlink="http://www.w3.org/1999/xlink" viewBox="0 0 300 345">
  <defs>
    <style>
      .cls-1 {
        fill: url(#linear-gradient-2);
      }

      .cls-2 {
        fill: #29a340;
      }

      .cls-3 {
        fill: #a0310a;
        opacity: .53;
      }

      .cls-4 {
        fill: #fff;
      }

      .cls-5 {
        fill: #feca0e;
      }

      .cls-6 {
        fill: #dd7017;
      }

      .cls-7 {
        fill: #d37016;
      }

      .cls-8 {
        fill: #f9b723;
      }

      .cls-9 {
        stroke-width: 4px;
      }

      .cls-9, .cls-10 {
        stroke: #ce7957;
        stroke-linejoin: round;
      }

      .cls-9, .cls-10, .cls-11 {
        fill: none;
        stroke-linecap: round;
      }

      .cls-12 {
        fill: #fac0a5;
      }

      .cls-13 {
        fill: #ed516b;
        opacity: .57;
      }

      .cls-14 {
        fill: url(#linear-gradient-6);
      }

      .cls-15 {
        isolation: isolate;
        opacity: .22;
      }

      .cls-15, .cls-16 {
        fill: #0a753a;
      }

      .cls-17 {
        fill: #454866;
      }

      .cls-10 {
        stroke-width: 3px;
      }

      .cls-18 {
        fill: #084c25;
      }

      .cls-19 {
        fill: #f2bb30;
      }

      .cls-20 {
        fill: url(#linear-gradient-10);
      }

      .cls-21 {
        fill: #222438;
      }

      .cls-22 {
        fill: #1c9132;
      }

      .cls-23 {
        fill: #f9edb4;
      }

      .cls-24 {
        fill: #17a34a;
      }

      .cls-25 {
        fill: #8dc73c;
      }

      .cls-26 {
        fill: #2d2f4a;
      }

      .cls-27 {
        fill: #592b3a;
      }

      .cls-28 {
        fill: #efab8f;
      }

      .cls-29 {
        fill: #1d1f35;
      }

      .cls-30 {
        fill: url(#linear-gradient-5);
      }

      .cls-31 {
        fill: #3d415b;
      }

      .cls-32 {
        fill: #030305;
      }

      .cls-33 {
        fill: #3b3e5b;
      }

      .cls-34 {
        fill: #aa1a2b;
      }

      .cls-35 {
        fill: url(#linear-gradient-7);
      }

      .cls-11 {
        stroke: #0a773d;
        stroke-miterlimit: 10;
        stroke-width: 5.40132px;
      }

      .cls-36 {
        fill: url(#linear-gradient-9);
      }

      .cls-37 {
        fill: url(#linear-gradient-3);
      }

      .cls-38 {
        fill: url(#linear-gradient);
      }

      .cls-39 {
        fill: #f79d26;
      }

      .cls-40 {
        fill: #c9460d;
      }

      .cls-41 {
        fill: url(#linear-gradient-4);
      }

      .cls-42 {
        fill: #d85e0b;
      }

      .cls-43 {
        fill: #e88e7c;
      }

      .cls-44 {
        fill: url(#linear-gradient-8);
      }

      .cls-45 {
        fill: #2eaf4a;
      }

      .cls-46 {
        fill: #0a773d;
      }

      .cls-47 {
        fill: #414042;
      }
    </style>
    <linearGradient id="linear-gradient" x1="242.41091" y1="151.1184" x2="275.05194" y2="151.1184" gradientTransform="translate(0 346) scale(1 -1)" gradientUnits="userSpaceOnUse">
      <stop offset=".00559" stop-color="#dd7017"/>
      <stop offset=".51117" stop-color="#f9b723"/>
      <stop offset="1" stop-color="#dd7017"/>
    </linearGradient>
    <linearGradient id="linear-gradient-2" x1="153.29739" y1="592.9955" x2="178.39129" y2="592.9955" gradientTransform="translate(-175.42237 741.29725) rotate(6.77841) scale(1 -1)" gradientUnits="userSpaceOnUse">
      <stop offset=".00559" stop-color="#dd7017"/>
      <stop offset=".51117" stop-color="#f9b723"/>
      <stop offset="1" stop-color="#dd7017"/>
    </linearGradient>
    <linearGradient id="linear-gradient-3" x1="269.85939" y1="97.32751" x2="183.40931" y2="144.26605" gradientUnits="userSpaceOnUse">
      <stop offset="0" stop-color="#fac0a5"/>
      <stop offset=".98883" stop-color="#e88e7c"/>
    </linearGradient>
    <linearGradient id="linear-gradient-4" x1="269.85939" y1="97.32751" x2="183.40931" y2="144.26605" gradientTransform="translate(300) rotate(-180) scale(1 -1)" gradientUnits="userSpaceOnUse">
      <stop offset="0" stop-color="#fac0a5"/>
      <stop offset=".98883" stop-color="#e88e7c"/>
    </linearGradient>
    <linearGradient id="linear-gradient-5" x1="335.79154" y1="606.10018" x2="374.43529" y2="606.10018" gradientTransform="translate(-175.42237 741.29725) rotate(6.77841) scale(1 -1)" gradientUnits="userSpaceOnUse">
      <stop offset=".00559" stop-color="#dd7017"/>
      <stop offset=".51117" stop-color="#f9b723"/>
      <stop offset="1" stop-color="#dd7017"/>
    </linearGradient>
    <linearGradient id="linear-gradient-6" x1="23.73187" y1="154.25143" x2="61.95196" y2="154.25143" gradientTransform="translate(0 346) scale(1 -1)" gradientUnits="userSpaceOnUse">
      <stop offset=".00559" stop-color="#dd7017"/>
      <stop offset=".51117" stop-color="#f9b723"/>
      <stop offset="1" stop-color="#dd7017"/>
    </linearGradient>
    <linearGradient id="linear-gradient-7" x1="150.00189" y1="290.34451" x2="150.00189" y2="245.6145" gradientTransform="translate(0 346) scale(1 -1)" gradientUnits="userSpaceOnUse">
      <stop offset="0" stop-color="#d85e0b"/>
      <stop offset=".98883" stop-color="#bf3708"/>
    </linearGradient>
    <linearGradient id="linear-gradient-8" x1="137.33189" y1="583.06337" x2="165.15181" y2="583.06337" gradientTransform="translate(-175.42237 741.29725) rotate(6.77841) scale(1 -1)" gradientUnits="userSpaceOnUse">
      <stop offset=".00559" stop-color="#dd7017"/>
      <stop offset=".51117" stop-color="#f9b723"/>
      <stop offset="1" stop-color="#dd7017"/>
    </linearGradient>
    <linearGradient id="linear-gradient-9" x1="150" y1="152.0992" x2="150" y2="127.60855" gradientTransform="translate(0 346) scale(1 -1)" gradientUnits="userSpaceOnUse">
      <stop offset="0" stop-color="#d85e0b"/>
      <stop offset=".98883" stop-color="#bf3708"/>
    </linearGradient>
    <linearGradient id="linear-gradient-10" x1="150" y1="234.57207" x2="150" y2="192.46194" gradientTransform="matrix(1, 0, 0, 1, 0, 0)" xlink:href="#linear-gradient-9"/>
  </defs>
  <path class="cls-29" d="M300,249v55.76001c0,22.23999-16.29001,40.23999-36.38,40.23999H36.38C16.29,345,0,327,0,304.73001v-55.73001c-.00177-1.46945,.07166-2.93805,.22-4.39999H.22c2-20.16,17.42-35.86,36.16-35.86h227.23999c18.73999,0,34.17999,15.7,36.16,35.86h0c.14835,1.46194,.22177,2.93054,.22,4.39999Z"/>
  <path class="cls-26" d="M262.35001,251.28c9.67999,0,17.53,9.67999,17.53,21.63v24.16c0,26.47-14.10001,47.92999-31.49001,47.92999H51.61c-17.39,0-31.49-21.45999-31.49-47.92999v-24.16c0-12,7.85-21.63,17.53-21.63h224.7Z"/>
  <rect class="cls-26" x="0" y="153.25" width="300" height="82.98001" rx="19.2" ry="19.2"/>
  <rect class="cls-17" x="0" y="136.37" width="300" height="82.98001" rx="19.2" ry="19.2"/>
  <rect class="cls-26" x="23.72" y="154.25" width="252.56" height="47.22" rx="14.42999" ry="14.42999"/>
  <path class="cls-6" d="M276.28,185.56v1.78c-.18134,7.27785-5.75549,13.28081-13,14H37.41c-7.54025-.38547-13.5066-6.5219-13.68-14.07001v-1.82001c-.01104-7.96947,6.44054-14.43893,14.41-14.44997,.00667-.00002,.01333-.00002,.02-.00002h223.69999c7.96948,.00551,14.42554,6.47052,14.42001,14.43999v.12001Z"/>
  <path class="cls-8" d="M276.27191,187.37555c-.04993,1.92993-.47998,3.7699-1.21997,5.44995-.06006,.13989-.12,.29004-.19995,.42993-.27002,.59009-.6001,1.16003-.94995,1.69995-1.9801,2.98999-5.03003,5.21008-8.64014,6.08008h-.01001c-.63989,.15991-1.29993,.27002-1.97998,.34009H37.41192c-7.5-.38013-13.44995-6.45007-13.67004-13.95007-.01001-.04004-.01001-.07996-.01001-.12,.02002-.8501,.14014-1.67004,.3501-2.46997,.87-3.34009,3.29004-6.18005,6.57007-7.91003,2.17993-1.15002,4.75-1.81995,7.5-1.81995h223.69995c7.29004,.06995,13.31995,4.76001,14.28003,10.84985,.07996,.46008,.12988,.94006,.13989,1.42017Z"/>
  <path class="cls-38" d="M275.05194,192.8255c-.06006,.13989-.12,.29004-.19995,.42993-.27002,.59009-.6001,1.16003-.94995,1.69995-1.9801,2.98999-5.03003,5.21008-8.64014,6.08008,0,0,0,.01001-.01001,0-.63989,.15991-1.29993,.27002-1.97998,.34009h-20.46997c-.34998-1.08008-.46997-2.18018-.33997-3.29004l.82996-7.04004,3.82007,.44995c1.08997-.68994,2.32996-1.28003,3.68994-1.76001,3.46997-1.19995,7.72998-1.65991,12.23999-1.12988,4.51001,.53992,8.54004,1.98999,11.63,3.97998,.13,.07996,.25,.15991,.38,.23999Z"/>
  <path class="cls-8" d="M276.27191,187.37555c-.04993,1.92993-.47998,3.7699-1.21997,5.44995-.06006,.13989-.12,.29004-.19995,.42993-.27002,.59009-.6001,1.16003-.94995,1.69995-1.9801,2.98999-5.03003,5.21008-8.64014,6.08008,0,0,0,.01001-.01001,0-.63989,.15991-1.29993,.27002-1.97998,.34009h-13.3999c-4.42004-2.70007-7.04004-6.4801-6.58008-10.33008,.77002-6.48999,9.98999-10.73999,20.59009-9.47998,4.81995,.56995,9.09985,2.18994,12.25,4.38989,.07996,.46008,.12988,.94006,.13989,1.42017Z"/>
  <path class="cls-6" d="M274.85199,193.25545c-.27002,.59009-.6001,1.16003-.94995,1.69995-1.9801,2.98999-5.03003,5.21008-8.64014,6.08008,0,0,0,.01001-.01001,0-1.16992,.09009-2.3999,.06006-3.66992-.09009-5.96997-.69995-10.65002-3.86987-11.45996-7.43994-.12012-.54004-.15002-1.09998-.09009-1.65991,.09009-.75,.3501-1.46008,.77002-2.11011,1.90002-2.96997,6.93994-4.69995,12.59009-4.04004,5.63989,.67017,10.13989,3.55005,11.27991,6.89014,.07996,.21997,.14001,.44995,.18005,.66992Z"/>
  <path class="cls-39" d="M273.90204,194.95538c-1.9801,2.98999-5.03003,5.21008-8.64014,6.08008,0,0,0,.01001-.01001,0-1.16992,.09009-2.3999,.06006-3.66992-.09009-5.96997-.69995-10.65002-3.86987-11.45996-7.43994,1.61987-3.28003,6.90991-5.26001,12.87988-4.55005,5.14014,.61011,9.33008,3.05005,10.90015,6Z"/>
  <path class="cls-1" d="M69.7751,168.63507c-2.05157-2.12872-5.53192-3.76224-9.61391-4.24741s-7.8483,.28699-10.34168,1.87547l-2.48144-.29495-.54346,4.57224c-.50111,4.21596,4.67084,8.29671,11.5519,9.11459,6.88105,.81789,12.86549-1.93681,13.3666-6.15276l.54346-4.57224-2.48146-.29495Z"/>
  <ellipse class="cls-8" cx="59.79731" cy="167.44911" rx="7.68742" ry="12.54695" transform="translate(-113.53922 207.06443) rotate(-83.22158)"/>
  <g>
    <g>
      <path class="cls-37" d="M237.98843,91.97711c-18.36362,10.33491-17.74994,20.19297-17.74994,20.19297l1.52602,39.6599s22.8252-8.29668,36.09325-23.88828c13.26804-15.5916,18.86392-38.07467,19.85147-47.29015,.98755-9.21549-3.52814-17.34888-8.93882-11.68549-5.41068,5.66339-12.41837,12.67614-30.78198,23.01105Z"/>
      <path class="cls-9" d="M269.6113,83.86552c-.73111,3.88324-22.32028,24.11974-29.6255,27.19957,0,0,9.47921,10.48088-2.75876,21.13664"/>
    </g>
    <g>
      <path class="cls-41" d="M31.22958,68.96606c-5.41068-5.66339-9.92637,2.47-8.93882,11.68549,.98755,9.21549,6.58344,31.69855,19.85147,47.29015,13.26805,15.59161,36.09325,23.88828,36.09325,23.88828l1.52602-39.6599s.61368-9.85806-17.74994-20.19297c-18.36362-10.33492-25.3713-17.34766-30.78198-23.01105Z"/>
      <path class="cls-9" d="M30.3887,83.86552c.73111,3.88324,22.32028,24.11974,29.6255,27.19957,0,0-9.47921,10.48088,2.75876,21.13664"/>
    </g>
  </g>
  <path class="cls-6" d="M67.87959,168.40913c-.04317,.36317-.15032,.71107-.31132,1.0372-1.05553,2.13039-4.48945,3.41412-8.35858,2.95424-3.87224-.46027-6.90955-2.51317-7.43629-4.83162-.08006-.35478-.1027-.71809-.05953-1.08128,.3251-2.73512,4.20742-4.52184,8.67301-3.99104,4.46249,.53041,7.81781,3.1774,7.49271,5.91251Z"/>
  <path class="cls-39" d="M67.56827,169.44633c-1.05553,2.13039-4.48945,3.41412-8.35858,2.95424-3.87224-.46027-6.90955-2.51317-7.43629-4.83162,1.05288-2.13452,4.48679-3.41826,8.36212-2.95763,3.87222,.46025,6.90955,2.51317,7.43275,4.83502v-.00002Z"/>
  <path class="cls-30" d="M264.94904,176.1329c-3.15936-3.27815-8.51898-5.7937-14.80508-6.54086-6.28612-.74718-12.08611,.44193-15.92583,2.88817l-3.82133-.45421-.83691,7.04108c-.77168,6.49243,7.19295,12.77664,17.78952,14.03616,10.59659,1.25952,19.81241-2.9826,20.58411-9.47504l.83691-7.04108-3.82138-.45421v-.00002Z"/>
  <ellipse class="cls-8" cx="249.58356" cy="174.30657" rx="11.83835" ry="19.32188" transform="translate(47.03701 401.57212) rotate(-83.22157)"/>
  <path class="cls-6" d="M262.03,175.78497c-.06647,.55928-.23148,1.09503-.47943,1.59726-1.62549,3.28072-6.9136,5.25763-12.87193,4.54942-5.96312-.70879-10.64047-3.87019-11.45163-7.44054-.12329-.54636-.15816-1.10587-.09167-1.66515,.50064-4.21199,6.47929-6.96346,13.35614-6.14607,6.87209,.81682,12.03917,4.89308,11.53853,9.10507Z"/>
  <path class="cls-39" d="M261.5506,177.38223c-1.62549,3.28072-6.9136,5.25763-12.87193,4.54942-5.96312-.70879-10.64047-3.87019-11.45163-7.44054,1.6214-3.28708,6.9095-5.26401,12.8774-4.55466,5.9631,.70879,10.64047,3.87019,11.44617,7.44577Z"/>
  <path class="cls-14" d="M61.95196,189.33551l-.83997,7.04004c-.21997,1.88989-1.16003,3.57983-2.64001,5h-21.06006c-7.5-.38013-13.44995-6.45007-13.67004-13.95007-.01001-.04004-.01001-.07996-.01001-.12,.02002-.8501,.14014-1.67004,.3501-2.46997l3.31006,.38989c1.07996-.68994,2.32996-1.28003,3.68994-1.75,3.46997-1.20996,7.72998-1.66992,12.23999-1.12988,4.51001,.53003,8.54004,1.97998,11.63,3.96997,1.21997,.78003,2.28992,1.63989,3.18005,2.56995l3.81995,.45007Z"/>
  <path class="cls-8" d="M61.95196,189.33551c-.78003,6.48999-9.98999,10.73999-20.58997,9.47998-9.14001-1.08008-16.32007-5.92004-17.62012-11.39001-.01001-.04004-.01001-.07996-.01001-.12,.02002-.8501,.14014-1.67004,.3501-2.46997,.87-3.34009,3.29004-6.18005,6.57007-7.91003,2.44995-1.04993,5.37988-1.69006,8.57983-1.81995,.8501-.04004,1.7301-.04004,2.62012,0,.76001,.02991,1.53003,.09985,2.30994,.18994,10.58997,1.26001,18.56006,7.55005,17.79004,14.04004Z"/>
  <path class="cls-6" d="M55.20801,188.53419c-.06648,.55928-.23149,1.09503-.47942,1.59726-1.62548,3.28072-6.91361,5.25763-12.87193,4.54942-5.96312-.70879-10.64047-3.87019-11.45163-7.44054-.12329-.54636-.15815-1.10587-.09168-1.66515,.50064-4.21199,6.47929-6.96346,13.35614-6.14607,6.87209,.81682,12.03916,4.89308,11.53852,9.10507Z"/>
  <path class="cls-39" d="M54.72859,190.13145c-1.62548,3.28072-6.91361,5.25763-12.87193,4.54942-5.96312-.70879-10.64047-3.87019-11.45163-7.44054,1.6214-3.28708,6.9095-5.26399,12.87739-4.55466,5.96309,.70879,10.64047,3.87019,11.44618,7.44577h-.00001Z"/>
  <path class="cls-18" d="M69.36,168.55c-4.73,0-13.56,17.56-16.37,27.68001l23.29,7.64999-6.92-35.33Z"/>
  <path class="cls-7" d="M169,271.89001c5.36755,.00549,9.71898,4.35245,9.73,9.72v11.13c-.01102,5.36755-4.36244,9.71451-9.73,9.72h-37.7c-5.36592-.00552-9.71449-4.35406-9.72-9.72v-11.13004c.00551-5.36594,4.35408-9.71448,9.72-9.72h37.7m0-11h-37.7c-11.43781-.00552-20.71448,9.26218-20.72,20.69998v11.15002c0,11.44333,9.27666,20.72,20.72,20.72h37.7c11.44267-.00552,20.71896-9.27734,20.73-20.72v-11.13c-.00002-11.44333-9.27669-20.72-20.72003-20.71997h-.00996v-.00003Z"/>
  <path class="cls-19" d="M169,277.45001c5.36755,.00549,9.71898,4.35245,9.73,9.72v11.14001c-.02751,5.3558-4.37411,9.68454-9.73,9.68997h-37.7c-5.36592-.00552-9.71449-4.35406-9.72-9.72v-11.10999c.00551-5.36594,4.35408-9.71448,9.72-9.72h37.7m0-11h-37.7c-11.44334,0-20.72,9.27667-20.72,20.72h0v11.14001c.01656,11.43161,9.28838,20.68997,20.72,20.68997h37.7c11.44267-.00552,20.71896-9.27734,20.73-20.72v-11.10999c-.01103-11.44266-9.28732-20.71448-20.73-20.72Z"/>
  <path class="cls-18" d="M231,168.55c4.73,0,13.56,17.56,16.38,27.68001l-23.3,7.64999,6.92-35.33Z"/>
  <rect class="cls-21" x="128.48" y="262.29001" width="43.03999" height="22.12" rx="6.85001" ry="6.85001"/>
  <rect class="cls-31" x="128.48" y="253.84" width="43.03999" height="22.12" rx="6.85001" ry="6.85001"/>
  <ellipse class="cls-33" cx="48.26263" cy="284.42006" rx="25.75" ry="18.38001" transform="translate(-196.12178 131.12195) rotate(-48.27)"/>
  <circle class="cls-17" cx="71.88024" cy="310.49999" r="10.48" transform="translate(-50.31383 16.14371) rotate(-9.51019)"/>
  <ellipse class="cls-29" cx="251.4617" cy="316.12079" rx="25.75001" ry="18.38" transform="translate(-151.83424 293.3673) rotate(-48.26999)"/>
  <circle class="cls-29" cx="227.83" cy="290.04999" r="10.48"/>
  <path class="cls-35" d="M231.00189,78.33551v26.72998H69.00189v-26.72998c0-10.84009,8.79004-19.63013,19.63013-19.65002h122.78992c10.81995,.04993,19.56995,8.82996,19.57996,19.65002Z"/>
  <path class="cls-12" d="M231.00189,103.29548v98.08007H69.00189V103.50544c0-.26001,0-.52002,.02002-.79004,.18005-4.73999,124.27435-15.50638,124.27435-15.50638,.47998,0,37.70563,14.16654,37.70563,16.08646Z"/>
  <circle class="cls-43" cx="197.52661" cy="137.84653" r="19.67775"/>
  <circle class="cls-43" cx="103.02955" cy="137.68745" r="19.67775"/>
  <path class="cls-4" d="M217.18817,143.30986c0,10.86731-8.81046,15.92577-19.67775,15.92577s-19.67775-5.05846-19.67775-15.92577c-.00482-10.86774,8.8013-19.68167,19.66902-19.68649,10.86774-.00482,19.68166,8.8013,19.68649,19.66902v.01746l-.00002,.00002Z"/>
  <path class="cls-4" d="M122.7073,143.1508c0,10.86731-8.81045,15.92577-19.67776,15.92577s-19.66156-5.05846-19.66156-15.92577,8.81003-19.67775,19.67776-19.67775,19.67776,8.81003,19.67776,19.67775h-.0162Z"/>
  <path class="cls-47" d="M120.17538,140.29495c-3.0036,2.54776-7.50387,2.17822-10.05163-.82538-2.13862-2.52126-2.26396-6.18181-.30281-8.84344-6.78694-.98157-13.08455,3.72462-14.06612,10.51155-.98157,6.78693,3.72462,13.08455,10.51155,14.06612,6.78693,.98157,13.08455-3.72462,14.06612-10.51155,.21161-1.4631,.16023-2.95226-.15171-4.39729h-.0054Zm-17.29699,10.66756c-1.62792,.00298-2.95003-1.31429-2.95301-2.94221-.00298-1.62791,1.31429-2.95003,2.94221-2.953,1.62792-.00298,2.95003,1.31429,2.95301,2.94221v.00539c0,1.62582-1.3164,2.94464-2.94222,2.94762h.00002Z"/>
  <path class="cls-47" d="M204.57173,140.38383c-3.13239,2.39256-7.61125,1.79282-10.0038-1.33958-1.84074-2.40994-1.95755-5.71997-.29126-8.25366-.59377-.08418-1.19263-.12749-1.79233-.12958-6.85751-.01788-12.43114,5.52675-12.44902,12.38428-.01788,6.85753,5.52675,12.43114,12.38428,12.44902,6.85751,.01788,12.43114-5.52675,12.44902-12.38428,.0024-.91872-.09718-1.83485-.29691-2.73161v.0054l.00002,.00002Zm-17.39417,10.73775c-1.62791,0-2.94762-1.3197-2.94762-2.94762s1.3197-2.94762,2.94762-2.94762,2.94762,1.31969,2.94762,2.94762-1.31969,2.94762-2.94762,2.94762h0Z"/>
  <path class="cls-44" d="M55.24536,176.40639c-2.27444-2.35997-6.13287-4.17093-10.6583-4.70882s-8.70088,.31815-11.46513,2.07922l-2.75101-.327-.6025,5.06892c-.55555,4.67395,5.17825,9.198,12.80681,10.10474s14.2631-2.14722,14.81865-6.82115l.6025-5.06892-2.75103-.327h.00002Z"/>
  <ellipse class="cls-8" cx="44.18364" cy="175.0916" rx="8.52252" ry="13.90996" transform="translate(-134.89907 198.30037) rotate(-83.22159)"/>
  <path class="cls-6" d="M53.14393,176.15591c-.04786,.40263-.16665,.78831-.34514,1.14989-1.17019,2.36182-4.97716,3.785-9.2666,3.27516-4.29289-.51025-7.66015-2.78618-8.24411-5.35651-.08876-.39333-.11386-.79611-.066-1.19875,.36041-3.03224,4.66449-5.01305,9.61518-4.42461,4.94727,.58804,8.66708,3.52255,8.30666,6.55481h.00001Z"/>
  <path class="cls-39" d="M52.7988,177.30579c-1.17019,2.36182-4.97716,3.785-9.2666,3.27516-4.29289-.51025-7.66015-2.78618-8.24411-5.35651,1.16726-2.36639,4.9742-3.7896,9.27052-3.27893,4.29287,.51025,7.66015,2.78618,8.24019,5.36026v.00002Z"/>
  <path class="cls-43" d="M227.97797,109.69262c-.17326-4.73999-1.99316-9.26001-5.16104-12.71997-.17337-.17993-.34676-.36987-.52-.54004-2.12798-2.16992-4.73753-3.77991-7.58769-4.70996-1.81992-.57996-3.72644-.87988-5.63297-.87988H90.92777c-1.90665,0-3.81319,.29993-5.63309,.87988-2.85016,.93005-5.4596,2.54004-7.5877,4.70996-.17337,.17017-.34663,.36011-.51989,.54004-3.168,3.45996-4.9879,7.97998-5.16128,12.71997-.01928,.27002-.01928,.53003-.01928,.79004v5.70996l5.22164,77.24693c0,.09998-7.01202-4.67342-7.01202-4.46333l74.87872,5.76379,7.0999-3.80647,68.04131-4.76353c0-.21008,4.8371,4.86351,4.8371,4.76353l2.92406-74.74091v-5.70996c0-.26001,0-.52002-.01929-.79004h.00002Zm-41.81903,75.14014s-4.91428,10.74222-36.2178,10.74222-36.09626-10.74222-36.09626-10.74222c-28.98343-.5-34.82834-14.11011-34.82834-28.88013v-43.90991s26.94208,10.35999,52.16064,0c6.54768-2.68994,12.98959-6.79004,18.80547-12.83008,5.81599,6.04004,12.29633,10.14014,18.84413,12.83008,25.21725,10.3595,52.15793,.00098,52.16052,0v43.90991c0,14.77002-5.84489,28.38013-34.82834,28.88013h-.00002Z"/>
  <path class="cls-40" d="M223.72186,105.05908s-20.11078,17.08021-44.17844,7.70886c-24.06766-9.37135-29.52153-20.53505-29.52153-20.53505l66.63008,5.00571,7.06987,7.82048h.00002Z"/>
  <path class="cls-40" d="M76.28192,105.05908s20.11078,17.08021,44.17843,7.70886c24.06765-9.37135,29.52152-20.53505,29.52152-20.53505l-66.63008,5.00571-7.06987,7.82048Z"/>
  <path class="cls-36" d="M230.97998,102.71002c-.17999-4.74005-2.07001-9.26001-5.35999-12.72003-.17999-.17999-.35999-.37-.53998-.53998-2.21002-2.16998-4.92004-3.78003-7.88-4.70001-1.89001-.58002-3.87-.88-5.85004-.88H88.65002c-1.98004,0-3.96002,.29999-5.85004,.88-2.95996,.91998-5.66998,2.53003-7.88,4.70001-.17999,.16998-.35999,.35999-.53998,.53998-3.28998,3.46002-5.17999,7.97998-5.35999,12.72003-.02002,.26996-.02002,.52997-.02002,.78998v98.25c0,2.34003,9.89001-1.47998,18.77002,.13,28.77997,14.46002,95.23999,11.69,120.92999,.83997,11.13-1.58997,22.29999,1.74005,22.29999-.96997V103.5c0-.26001,0-.52002-.02002-.78998Zm-154.69995,2.34998s27.97998,10.35999,54.16998,0c6.79999-2.69,13.48999-6.78998,19.52997-12.83002,6.04004,6.04004,12.77002,10.14001,19.57001,12.83002,26.19,10.35999,54.16998,0,54.16998,0v43.90002c0,13.28998-4.92999,25.63-27.85999,28.32996l-45.20001,.20001-42.12,.17999c-26.70996-1.57996-32.25995-14.62-32.25995-28.70996v-43.90002Z"/>
  <path class="cls-20" d="M231,180.67999v21.07001c0,2.71002-11.16998-.62-22.29999,.96997-25.69,10.85004-92.15002,13.62006-120.92999-.83997-8.88-1.60999-18.77002,2.21002-18.77002-.13v-21.07001s14.75,23.20001,80.15997,23.20001c65.42004,0,81.84003-23.20001,81.84003-23.20001Z"/>
  <ellipse class="cls-12" cx="108.56268" cy="168.50582" rx="16.82459" ry="31.40366" transform="translate(-89.36899 200.17796) rotate(-66.29881)"/>
  <ellipse class="cls-12" cx="191.44111" cy="168.50582" rx="31.40366" ry="16.82459" transform="translate(-51.5865 91.16571) rotate(-23.70119)"/>
  <ellipse class="cls-40" cx="102.87298" cy="115.57693" rx="19.4942" ry="11.29919" transform="translate(-32.44573 40.54545) rotate(-19.32081)"/>
  <ellipse class="cls-40" cx="199.98334" cy="114.05247" rx="11.29918" ry="19.4942" transform="translate(34.14779 273.73927) rotate(-73.61442)"/>
  <ellipse class="cls-42" cx="200.5154" cy="115.64267" rx="6.84898" ry="15.84984" transform="translate(44.86633 286.9699) rotate(-77.71838)"/>
  <ellipse class="cls-42" cx="101.90351" cy="117.43222" rx="15.84984" ry="6.84899" transform="translate(-27.24996 30.86413) rotate(-15.21684)"/>
  <path class="cls-28" d="M98.52191,202.46539c.01001-.1499,0-.29993-.01001-.44995,0-3.76001-7.5911-14.38947-24.28003-14.07996-16.68893,.30951-19.82983,4.39001-22.11987,6.80994-3.95007,4.15002-5.86011,9.46997-4.67004,12.03003,1.89001,4.05005,5.54993,16.21997,14.64001,13.5,2.09998-.63,3.58997-1.90991,4.63-3.54004,1.56995,3.21997,4.03992,5.68005,7.98999,5.68005,5.38,0,8.02002-3.73999,9.45996-8.01001,1.65002,2.59998,4.26001,4.59998,8.49011,4.59998,10.31995,0,6.16992-11.95996,5.86987-16.54004Z"/>
  <path class="cls-43" d="M92.65204,219.00545c-4.2301,0-6.84009-2-8.49011-4.59998-1.43994,4.27002-4.07996,8.01001-9.45996,8.01001-3.95007,0-6.42004-2.46008-7.98999-5.68005-1.04004,1.63013-2.53003,2.91003-4.63,3.54004-9.09009,2.71997-12.75-9.44995-14.64001-13.5-1.19006-2.56006,.71997-7.88,4.67004-12.03003,.08997,.48999,7.26119,22.42903,13.82127,14.58133,13.08325,10.58965,16.41872-3.63138,16.67873-4.45122,0,0,1.33997,.83984,3.22998,1.72998,4.73999,2.25,13,4.88989,12.67993-4.14014,.30005,4.58008,4.45007,16.54004-5.86987,16.54004v.00002Z"/>
  <polygon class="cls-23" points="267.65486 150.78829 263.36746 167.82011 277.84568 177.76218 260.81391 173.47473 250.87181 187.95299 255.15926 170.92118 240.681 160.97911 257.71281 165.26655 267.65486 150.78829"/>
  <polygon class="cls-23" points="189.27817 264.89999 187.08188 273.62469 194.4985 278.71765 185.7738 276.52136 180.68086 283.93799 182.87715 275.21326 175.46053 270.12033 184.18524 272.31662 189.27817 264.89999"/>
  <polygon class="cls-23" points="43.78287 156.8518 40.02671 171.77318 52.71095 180.48334 37.78956 176.72713 29.07943 189.41137 32.83561 174.48999 20.15137 165.77986 35.07274 169.53603 43.78287 156.8518"/>
  <path class="cls-12" d="M181.23705,155.48182s26.88877-16.17194,35.34861,1.19144c8.45983,17.36338-10.84645,6.21987-10.84645,6.21987,0,0-12.34786-5.47484-20.44439-3.76564-2.49894,.33408-4.05777-3.64567-4.05777-3.64567Z"/>
  <path class="cls-12" d="M118.76673,155.48182s-26.88877-16.17194-35.34861,1.19144c-8.45983,17.36338,10.84645,6.21987,10.84645,6.21987,0,0,12.34786-5.47484,20.44439-3.76564,2.49894,.33408,4.05777-3.64567,4.05777-3.64567Z"/>
  <ellipse class="cls-13" cx="195.42026" cy="155.53281" rx="7.22585" ry="3.70282" transform="translate(-22.03377 32.67811) rotate(-9.05081)"/>
  <ellipse class="cls-13" cx="208.70212" cy="156.67841" rx="4.07546" ry="2.08843" transform="translate(-22.04861 34.78174) rotate(-9.05081)"/>
  <ellipse class="cls-13" cx="201.5991" cy="161.86995" rx="4.10252" ry="2.60921" transform="translate(-22.95373 33.729) rotate(-9.05081)"/>
  <ellipse class="cls-13" cx="104.58353" cy="155.53281" rx="3.70282" ry="7.22585" transform="translate(-65.46483 234.34729) rotate(-80.94919)"/>
  <ellipse class="cls-13" cx="91.30167" cy="156.67841" rx="2.08843" ry="4.07546" transform="translate(-77.78866 222.19618) rotate(-80.94919)"/>
  <ellipse class="cls-13" cx="98.40469" cy="161.86995" rx="2.60921" ry="4.10252" transform="translate(-76.92992 233.58563) rotate(-80.94919)"/>
  <g>
    <path class="cls-28" d="M201.47809,202.46539c-.01001-.1499,0-.29993,.01001-.44995,0-3.76001,7.59109-14.38947,24.28003-14.07996s19.82983,4.39001,22.11987,6.80994c3.95007,4.15002,5.86011,9.46997,4.67004,12.03003-1.89001,4.05005-5.54993,16.21997-14.64001,13.5-2.09998-.63-3.58997-1.90991-4.63-3.54004-1.56995,3.21997-4.03992,5.68005-7.98999,5.68005-5.38,0-8.02002-3.73999-9.45996-8.01001-1.65002,2.59998-4.26001,4.59998-8.49011,4.59998-10.31995,0-6.16992-11.95996-5.86987-16.54004Z"/>
    <path class="cls-43" d="M207.34796,219.00545c4.2301,0,6.84009-2,8.49011-4.59998,1.43994,4.27002,4.07996,8.01001,9.45996,8.01001,3.95007,0,6.42004-2.46008,7.98999-5.68005,1.04004,1.63013,2.53003,2.91003,4.63,3.54004,9.09009,2.71997,12.75-9.44995,14.64001-13.5,1.19006-2.56006-.71997-7.88-4.67004-12.03003-.08997,.48999-7.26118,22.42903-13.82127,14.58133-13.08325,10.58965-16.41872-3.63138-16.67873-4.45122,0,0-1.33997,.83984-3.22998,1.72998-4.73999,2.25-13,4.88989-12.67993-4.14014-.30005,4.58008-4.45007,16.54004,5.86987,16.54004v.00002Z"/>
  </g>
  <path class="cls-10" d="M146.39079,128.04054s2.2154,12.23966-2.44462,16.25174c0,0-18.41544-2.77794-12.84607,9.00674s20.82446,5.77754,20.82446,5.77754"/>
  <g>
    <path class="cls-27" d="M181.64476,166.99474c.07983,1.48081-.16848,3.06809-.77145,4.69963-1.19706,3.22769-3.7597,6.59723-7.84749,9.47908-.90448,.62959-1.8621,1.24144-2.9173,1.81777-4.69968,2.59815-10.91557,4.56665-18.79857,5.31152-.45224,.03545-.90448,.07977-1.35671,.11522-6.61493,.47887-12.19246-.04433-16.77681-1.24138-2.57152-.66504-4.84153-1.54289-6.80116-2.57152-.736-.39016-1.43649-.8069-2.10153-1.23251-3.14791-2.05721-5.31152-4.5312-6.52633-7.04947-1.06403-2.19024-1.40986-4.41592-1.06403-6.41988,.1773-1.13503,.59409-2.20799,1.22363-3.16561,2.37647-3.6356,5.4977-3.93706,8.149-3.20994,3.10353,.85122,7.60811,4.07891,20.8292,4.07891s27.15149-12.49397,32.9861-5.41787c1.08183,1.30346,1.6848,2.96163,1.77345,4.80603Z"/>
    <path class="cls-34" d="M170.11159,182.99273c-4.70008,2.59348-10.9169,4.56899-18.80026,5.30862-.44939,.03749-.90821,.08429-1.3576,.11235-6.61941,.48688-12.19021-.03743-16.77789-1.23582,1.17971-2.64965,5.34605-5.42102,17.23665-5.93596,10.0087-.44002,16.04763,.50556,19.69909,1.75081Z"/>
    <path class="cls-4" d="M181.64476,166.99474c-5.24939,4.07891-15.08313,8.13125-33.46497,8.13125-19.39266,0-27.84311-2.66905-31.49641-5.22276,.1773-1.13503,.59409-2.20799,1.22363-3.16561,2.37647-3.6356,5.4977-3.93706,8.149-3.20994,3.10353,.85122,7.60811,4.07891,20.8292,4.07891s27.15149-12.49397,32.9861-5.41787c1.08183,1.30346,1.6848,2.96163,1.77345,4.80603Z"/>
  </g>
  <path class="cls-18" d="M51.51926,75.1871c7.56326-4.10301,23.52945-9.29095,31.16223-7.34203,22.77994,5.81651,6.88734,14.61212,6.88734,14.61212,0,0-44.04964,3.35805-38.04955-7.27009h-.00002Z"/>
  <path class="cls-18" d="M159.43807,49.7607c-8.59947-.29497-25.20234,2.19059-31.16222,7.34203-17.78721,15.37441,.3604,16.14991,.3604,16.14991,0,0,40.91553-16.66031,30.8018-23.49194h.00002Z"/>
  <g>
    <path class="cls-24" d="M132.17968,8.07735l.9034,6.61225,.01064,.04518,7.29481,53.70416,.49317,3.59995-63.43968,14.94681-1.16584-3.44147-7.13811-21.02104-10.29909-30.29351-.01064-.04518-2.15407-6.31758c-1.80706-5.31553,1.7219-11.10193,7.60766-12.48865L119.79694,.29856c5.89622-1.38919,11.6267,2.21563,12.38274,7.77879Z"/>
    <path class="cls-11" d="M76.62383,71.76117c-1.79356-11.62404-4.77155-26.9045-34.44525-22.07546"/>
    <path class="cls-45" d="M37.85607,33.76742c2.60769,3.45734,4.35999,9.18052,2.92782,11.48476-1.43504,2.30884-6.33759,1.60196-9.72383-.74875-4.2864-2.96527-6.77438-9.13367-4.36426-12.9341,2.40126-3.78648,7.79826-2.26476,11.13413,2.15603l.02613,.04208v-.00002Z"/>
    <path class="cls-45" d="M45.23487,36.01668c.2239,3.48585-1.06448,8.02072-3.20378,8.37227-2.41852,.39743-6.0023-4.54949-7.17065-9.07224-1.40891-5.45465,.79993-9.72331,4.53132-8.6315,3.14093,.91905,5.58477,5.30792,5.84311,9.33147Z"/>
    <path class="cls-22" d="M53.03548,64.68367c-3.5387-2.85979-7.32856-9.31336-5.70439-12.18498,1.62417-2.87162,8.05757-1.07021,11.63524,1.82794,3.54822,2.86544,5.10422,7.51399,3.47542,10.38284-1.62878,2.86885-5.82558,2.87162-9.3738,.00618l-.03247-.03198h0Z"/>
    <path class="cls-22" d="M42.95441,63.79709c-1.56883-4.04349-.92942-10.06223,2.64141-10.30312s8.7335,5.387,10.30232,9.43047c1.57019,4.04738-.05445,7.52376-3.62877,7.76474-3.57431,.24097-7.74476-2.84472-9.31496-6.8921Z"/>
    <path class="cls-2" d="M30.71968,59.11183c-5.14849,1.6767-10.01956-.16408-9.93257-4.3818,.08613-4.17584,4.99219-7.97515,10.04501-8.43943,4.3012-.40207,9.39312,1.47824,9.39661,4.39003,.00351,2.93268-5.14572,7.00407-9.46299,8.41129l-.04605,.01992h0Z"/>
    <path class="cls-2" d="M28.18571,65.90421c-3.61354-1.45374-3.15153-6.16626,.8726-9.83704,3.50299-3.19522,9.72859-5.6113,11.88672-3.8839,1.97791,1.58313,.41509,6.56306-1.99947,9.56155-2.71059,3.36629-7.53403,5.45713-10.75985,4.15939Z"/>
    <path class="cls-32" d="M103.61906,55.98155c-15.38141,3.57418-28.81127,5.59719-36.0621,1.91061l8.72275,25.65987,22.17264-1.51231,21.42316-5.04744,20.51561-8.54532-3.65011-26.85502c-4.84237,6.53582-17.76277,10.72111-33.12196,14.38962h.00002Z"/>
    <path class="cls-25" d="M119.79673,.3004l-55.51156,13.0789c-5.89208,1.38821-9.41524,7.16712-7.60872,12.49228l2.14667,6.31414c-2.95018-8.67562,6.94045-13.7553,6.94045-13.7553L120.72879,5.48024s11.11802,.12989,12.35124,9.21005l-.89795-6.60835c-.7608-5.57154-6.49327-9.16975-12.38535-7.78154Z"/>
    <g>
      <path class="cls-5" d="M95.77242,64.03188l5.7524-1.3553c1.43019-.33696,2.88112,.62716,3.24072,2.15343l.00397,.01687c.3596,1.52627-.50831,3.03673-1.9385,3.37369l-5.7524,1.3553c-1.43019,.33696-2.88112-.62716-3.24072-2.15343l-.00397-.01687c-.3596-1.52627,.50831-3.03673,1.9385-3.37369Z"/>
      <path class="cls-5" d="M109.36756,51.17154l-13.03971,3.07224c-2.92763,.68977-4.7368,3.64222-4.03922,6.60301l3.0965,13.14266c.69565,2.9526,3.63259,4.78679,6.56022,4.09702l13.03971-3.07224c2.9276-.68976,4.73681-3.64217,4.04116-6.59478l-3.0965-13.14266c-.69758-2.96078-3.63458-4.79501-6.56216-4.10526Zm4.54981,15.8039c.42824,1.81763-.69085,3.64386-2.5012,4.07039l-8.04889,1.89637c-1.81042,.42655-3.62709-.708-4.05534-2.52563l-1.91449-8.12577c-.43017-1.8258,.69085-3.64386,2.50127-4.07041l8.04889-1.89637c1.81036-.42653,3.6251,.69983,4.05527,2.52564l1.91449,8.12577Z"/>
    </g>
    <path class="cls-15" d="M78.99392,24.07432c2.00588,4.93513,14.2074,38.8304,14.2074,38.8304,1.06839,12.39783-22.77059,1.29108-22.77059,1.29108l-1.29266-1.67259-10.29909-30.29351-.01064-.04518-2.15407-6.31758c-1.80706-5.31553,1.7219-11.10193,7.60766-12.48865l22.17655-5.22494c-12.68215,3.38102-9.36991,11.22433-7.46457,15.92099Z"/>
    <path class="cls-22" d="M51.95067,38.62447c5.20021-4.77831,13.44399-6.69788,14.26608-.94364,.76354,5.34425-6.14185,10.91566-11.61363,12.0199-3.4865,.70876-7.12722-.12636-7.66947-1.99857-.55735-1.92433,1.83321-6.14616,4.9797-9.03786,0,0,.03733-.03983,.03733-.03983Z"/>
    <path class="cls-22" d="M52.80531,30.27662c4.76874-1.63598,5.31624,4.36673,1.44138,10.43239-2.52933,3.95918-6.43539,6.94286-7.98731,6.12386-1.3054-.68889-1.47319-4.22493-.78301-7.03903,.90526-3.69127,3.95883-8.36106,7.32894-9.51722Z"/>
    <ellipse class="cls-46" cx="43.01664" cy="49.05997" rx="6.05445" ry="6.50065" transform="translate(-10.10438 11.17239) rotate(-13.25749)"/>
  </g>
  <path class="cls-3" d="M162.15002,65.71002c-12.29004,22.00995-37.24005,26.25995-50.60004,29.40997-10.06,2.37-26.26996,7.10999-42.54999,3.26001v-12.46002c9.01001,.54004,21.85999-.14996,39.39001-4.19,32.22998-7.76996,45.17999-18.58997,49.37-23.03998,1.20001-1.28003,1.67999-2.03998,1.67999-2.03998,0,0,3.21997-.39001,4.14001,2.03998,.51001,1.33002,.32996,3.48999-1.42999,7.02002Z"/>
  <path class="cls-16" d="M159.43806,49.76069s-9.52618,15.06889-51.04588,25.07928c-41.62152,9.57823-56.87294,.34712-56.87294,.34712,0,0-7.30676,2.59299,1.61769,9.31607,20.81991,14.21055,45.04458,6.87486,58.4098,3.72592,13.36522-3.14894,38.31678-7.39949,50.60276-29.41001,4.98436-10.0001-2.71145-9.05838-2.71145-9.05838h.00002Z"/>
</svg>