<?xml version="1.0" encoding="UTF-8" standalone="no"?>
<!DOCTYPE svg PUBLIC "-//W3C//DTD SVG 1.1//EN" "http://www.w3.org/Graphics/SVG/1.1/DTD/svg11.dtd">
<svg width="100%" height="100%" viewBox="0 0 300 345" version="1.1" xmlns="http://www.w3.org/2000/svg" xmlns:xlink="http://www.w3.org/1999/xlink" xml:space="preserve" xmlns:serif="http://www.serif.com/" style="fill-rule:evenodd;clip-rule:evenodd;stroke-linejoin:round;stroke-miterlimit:2;">
    <path d="M278.53,248.83C278.53,228.751 262.229,212.45 242.15,212.45L57.85,212.45C37.771,212.45 21.47,228.751 21.47,248.83L21.47,308.62C21.47,328.699 37.771,345 57.85,345L242.15,345C262.229,345 278.53,328.699 278.53,308.62L278.53,248.83Z" style="fill:#d62027;"/>
    <path d="M212.71,212.45L87.29,212.45C51.186,212.45 21.475,242.156 21.47,278.26C21.403,293.84 33.769,306.889 49.33,307.66L250.67,307.66C266.231,306.889 278.597,293.84 278.53,278.26C278.525,242.156 248.814,212.45 212.71,212.45Z" style="fill:#8e191b;fill-rule:nonzero;"/>
    <path d="M300,51.53C300,23.09 276.91,0 248.47,0L51.53,0C23.09,0 0,23.09 0,51.53L0,236.67C0,265.11 23.09,288.2 51.53,288.2L248.47,288.2C276.91,288.2 300,265.11 300,236.67L300,51.53Z" style="fill:url(#_Linear1);"/>
    <path d="M240.77,198.85L59.23,198.85C32.99,198.85 11.72,214.28 11.72,233.32L11.72,239.71C11.72,258.71 32.99,274.18 59.23,274.18L240.77,274.18C267.01,274.18 288.28,258.75 288.28,239.71L288.28,233.32C288.28,214.28 267,198.85 240.77,198.85Z" style="fill:#dae6f5;fill-rule:nonzero;"/>
    <g transform="matrix(1,0,0,1,9.9391,0)">
        <path d="M200.95,225.706C200.95,221.931 197.885,218.865 194.109,218.865L85.343,218.865C81.567,218.865 78.502,221.931 78.502,225.706L78.502,239.389C78.502,243.165 81.567,246.23 85.343,246.23L194.109,246.23C197.885,246.23 200.95,243.165 200.95,239.389L200.95,225.706Z" style="fill:#9dc6ea;"/>
    </g>
    <g transform="matrix(0.885588,0,0,0.885588,17.7018,26.9224)">
        <g transform="matrix(0.89376,0,0,0.907907,11.7309,23.8527)">
            <path d="M205.043,54.145C205.043,51.928 203.214,50.127 200.961,50.127L107.084,50.127C104.831,50.127 103.002,51.928 103.002,54.145L103.002,228.53C103.002,230.747 104.831,232.548 107.084,232.548L200.961,232.548C203.214,232.548 205.043,230.747 205.043,228.53L205.043,54.145Z" style="fill:#c88829;"/>
        </g>
        <g transform="matrix(0.75256,0,0,0.130167,33.4789,39.0936)">
            <rect x="103.002" y="50.127" width="102.04" height="182.42" style="fill:#c88829;"/>
        </g>
        <g transform="matrix(0.397884,0,0,0.101322,88.1199,6.52738)">
            <rect x="103.002" y="50.127" width="102.04" height="182.42" style="fill:#c88829;"/>
        </g>
        <g transform="matrix(0.811584,0,0,0.811584,26.9424,9.53743)">
            <path d="M103.569,44.458L101.409,39.234L125.84,21.148L175.91,21.148L200.341,39.234L198.181,44.458L103.569,44.458Z" style="fill:#697994;"/>
        </g>
        <g transform="matrix(0.811584,0,0,0.811584,26.9424,9.53743)">
            <path d="M103.569,44.458L101.409,39.234L200.341,39.234L198.181,44.458L103.569,44.458Z" style="fill:#475d84;"/>
        </g>
        <g transform="matrix(0.428994,0,0,0.811584,84.6646,-24.4747)">
            <path d="M103.569,44.458L101.409,39.234C124.122,27.39 139.808,13.933 149.222,-0.957C160.499,13.491 176.208,27.13 200.341,39.234L198.181,44.458L103.569,44.458Z" style="fill:#697994;"/>
        </g>
        <g transform="matrix(0.428994,0,0,0.811584,84.6646,-24.4747)">
            <path d="M103.569,44.458L101.409,39.234L200.341,39.234L198.181,44.458L103.569,44.458Z" style="fill:#475d84;"/>
        </g>
        <g transform="matrix(0.856106,0,0,0.795861,20.6982,29.0311)">
            <path d="M205.981,54.145C205.981,49.88 202.762,46.417 198.797,46.417L101.848,46.417C97.883,46.417 94.664,49.88 94.664,54.145L94.664,146.666C94.664,150.931 97.883,154.394 101.848,154.394L198.797,154.394C202.762,154.394 205.981,150.931 205.981,146.666L205.981,54.145Z" style="fill:#c88829;"/>
        </g>
        <g>
            <g transform="matrix(1.12919,0,0,2.48091,-19.9888,-158.706)">
                <path d="M112.648,93.335C112.648,92.955 111.969,92.646 111.132,92.646C110.296,92.646 109.617,92.955 109.617,93.335L109.617,122.685C109.617,123.065 110.296,123.374 111.132,123.374C111.969,123.374 112.648,123.065 112.648,122.685L112.648,93.335Z" style="fill:#916423;"/>
            </g>
            <g transform="matrix(1.12919,0,0,1.12919,-19.9888,-30.4006)">
                <path d="M111.132,156.99C111.459,156.99 111.725,156.725 111.725,156.398C111.725,156.071 111.459,155.806 111.132,155.806C110.806,155.806 110.54,156.071 110.54,156.398C110.54,156.725 110.806,156.99 111.132,156.99ZM110.451,155.806C110.778,155.806 111.043,155.541 111.043,155.214C111.043,154.887 110.778,154.622 110.451,154.622C110.124,154.622 109.859,154.887 109.859,155.214C109.859,155.541 110.124,155.806 110.451,155.806ZM111.814,155.806C112.141,155.806 112.406,155.541 112.406,155.214C112.406,154.887 112.141,154.622 111.814,154.622C111.487,154.622 111.222,154.887 111.222,155.214C111.222,155.541 111.487,155.806 111.814,155.806ZM110.451,91.415C110.778,91.415 111.043,91.68 111.043,92.007C111.043,92.334 110.778,92.599 110.451,92.599C110.124,92.599 109.859,92.334 109.859,92.007C109.859,91.68 110.124,91.415 110.451,91.415ZM111.814,91.415C112.141,91.415 112.406,91.68 112.406,92.007C112.406,92.334 112.141,92.599 111.814,92.599C111.487,92.599 111.222,92.334 111.222,92.007C111.222,91.68 111.487,91.415 111.814,91.415ZM111.132,90.23C111.459,90.23 111.725,90.496 111.725,90.822C111.725,91.149 111.459,91.415 111.132,91.415C110.806,91.415 110.54,91.149 110.54,90.822C110.54,90.496 110.806,90.23 111.132,90.23Z" style="fill:#4c3b22;"/>
            </g>
        </g>
        <g transform="matrix(1,0,0,1,5.02274,0)">
            <g transform="matrix(1.12919,0,0,2.48091,-19.9888,-158.706)">
                <path d="M112.648,93.335C112.648,92.955 111.969,92.646 111.132,92.646C110.296,92.646 109.617,92.955 109.617,93.335L109.617,122.685C109.617,123.065 110.296,123.374 111.132,123.374C111.969,123.374 112.648,123.065 112.648,122.685L112.648,93.335Z" style="fill:#916423;"/>
            </g>
            <g transform="matrix(1.12919,0,0,1.12919,-19.9888,-30.4006)">
                <path d="M111.132,156.99C111.459,156.99 111.725,156.725 111.725,156.398C111.725,156.071 111.459,155.806 111.132,155.806C110.806,155.806 110.54,156.071 110.54,156.398C110.54,156.725 110.806,156.99 111.132,156.99ZM110.451,155.806C110.778,155.806 111.043,155.541 111.043,155.214C111.043,154.887 110.778,154.622 110.451,154.622C110.124,154.622 109.859,154.887 109.859,155.214C109.859,155.541 110.124,155.806 110.451,155.806ZM111.814,155.806C112.141,155.806 112.406,155.541 112.406,155.214C112.406,154.887 112.141,154.622 111.814,154.622C111.487,154.622 111.222,154.887 111.222,155.214C111.222,155.541 111.487,155.806 111.814,155.806ZM110.451,91.415C110.778,91.415 111.043,91.68 111.043,92.007C111.043,92.334 110.778,92.599 110.451,92.599C110.124,92.599 109.859,92.334 109.859,92.007C109.859,91.68 110.124,91.415 110.451,91.415ZM111.814,91.415C112.141,91.415 112.406,91.68 112.406,92.007C112.406,92.334 112.141,92.599 111.814,92.599C111.487,92.599 111.222,92.334 111.222,92.007C111.222,91.68 111.487,91.415 111.814,91.415ZM111.132,90.23C111.459,90.23 111.725,90.496 111.725,90.822C111.725,91.149 111.459,91.415 111.132,91.415C110.806,91.415 110.54,91.149 110.54,90.822C110.54,90.496 110.806,90.23 111.132,90.23Z" style="fill:#4c3b22;"/>
            </g>
        </g>
        <g transform="matrix(1,0,0,1,82.3023,0)">
            <g transform="matrix(1.12919,0,0,2.48091,-19.9888,-158.706)">
                <path d="M112.648,93.335C112.648,92.955 111.969,92.646 111.132,92.646C110.296,92.646 109.617,92.955 109.617,93.335L109.617,122.685C109.617,123.065 110.296,123.374 111.132,123.374C111.969,123.374 112.648,123.065 112.648,122.685L112.648,93.335Z" style="fill:#916423;"/>
            </g>
            <g transform="matrix(1.12919,0,0,1.12919,-19.9888,-30.4006)">
                <path d="M111.132,156.99C111.459,156.99 111.725,156.725 111.725,156.398C111.725,156.071 111.459,155.806 111.132,155.806C110.806,155.806 110.54,156.071 110.54,156.398C110.54,156.725 110.806,156.99 111.132,156.99ZM110.451,155.806C110.778,155.806 111.043,155.541 111.043,155.214C111.043,154.887 110.778,154.622 110.451,154.622C110.124,154.622 109.859,154.887 109.859,155.214C109.859,155.541 110.124,155.806 110.451,155.806ZM111.814,155.806C112.141,155.806 112.406,155.541 112.406,155.214C112.406,154.887 112.141,154.622 111.814,154.622C111.487,154.622 111.222,154.887 111.222,155.214C111.222,155.541 111.487,155.806 111.814,155.806ZM110.451,91.415C110.778,91.415 111.043,91.68 111.043,92.007C111.043,92.334 110.778,92.599 110.451,92.599C110.124,92.599 109.859,92.334 109.859,92.007C109.859,91.68 110.124,91.415 110.451,91.415ZM111.814,91.415C112.141,91.415 112.406,91.68 112.406,92.007C112.406,92.334 112.141,92.599 111.814,92.599C111.487,92.599 111.222,92.334 111.222,92.007C111.222,91.68 111.487,91.415 111.814,91.415ZM111.132,90.23C111.459,90.23 111.725,90.496 111.725,90.822C111.725,91.149 111.459,91.415 111.132,91.415C110.806,91.415 110.54,91.149 110.54,90.822C110.54,90.496 110.806,90.23 111.132,90.23Z" style="fill:#4c3b22;"/>
            </g>
        </g>
        <g transform="matrix(1,0,0,1,87.325,0)">
            <g transform="matrix(1.12919,0,0,2.48091,-19.9888,-158.706)">
                <path d="M112.648,93.335C112.648,92.955 111.969,92.646 111.132,92.646C110.296,92.646 109.617,92.955 109.617,93.335L109.617,122.685C109.617,123.065 110.296,123.374 111.132,123.374C111.969,123.374 112.648,123.065 112.648,122.685L112.648,93.335Z" style="fill:#916423;"/>
            </g>
            <g transform="matrix(1.12919,0,0,1.12919,-19.9888,-30.4006)">
                <path d="M111.132,156.99C111.459,156.99 111.725,156.725 111.725,156.398C111.725,156.071 111.459,155.806 111.132,155.806C110.806,155.806 110.54,156.071 110.54,156.398C110.54,156.725 110.806,156.99 111.132,156.99ZM110.451,155.806C110.778,155.806 111.043,155.541 111.043,155.214C111.043,154.887 110.778,154.622 110.451,154.622C110.124,154.622 109.859,154.887 109.859,155.214C109.859,155.541 110.124,155.806 110.451,155.806ZM111.814,155.806C112.141,155.806 112.406,155.541 112.406,155.214C112.406,154.887 112.141,154.622 111.814,154.622C111.487,154.622 111.222,154.887 111.222,155.214C111.222,155.541 111.487,155.806 111.814,155.806ZM110.451,91.415C110.778,91.415 111.043,91.68 111.043,92.007C111.043,92.334 110.778,92.599 110.451,92.599C110.124,92.599 109.859,92.334 109.859,92.007C109.859,91.68 110.124,91.415 110.451,91.415ZM111.814,91.415C112.141,91.415 112.406,91.68 112.406,92.007C112.406,92.334 112.141,92.599 111.814,92.599C111.487,92.599 111.222,92.334 111.222,92.007C111.222,91.68 111.487,91.415 111.814,91.415ZM111.132,90.23C111.459,90.23 111.725,90.496 111.725,90.822C111.725,91.149 111.459,91.415 111.132,91.415C110.806,91.415 110.54,91.149 110.54,90.822C110.54,90.496 110.806,90.23 111.132,90.23Z" style="fill:#4c3b22;"/>
            </g>
        </g>
        <g transform="matrix(1,0,0,1,1.86497,0)">
            <g transform="matrix(0.952208,0,0,0.952208,82.6949,90.4921)">
                <g transform="matrix(1.12919,0,0,2.48091,-19.9888,-158.706)">
                    <path d="M112.648,93.335C112.648,92.955 111.969,92.646 111.132,92.646C110.296,92.646 109.617,92.955 109.617,93.335L109.617,122.685C109.617,123.065 110.296,123.374 111.132,123.374C111.969,123.374 112.648,123.065 112.648,122.685L112.648,93.335Z" style="fill:#916423;"/>
                </g>
                <g transform="matrix(1.12919,0,0,1.12919,-19.9888,-30.4006)">
                    <path d="M111.132,156.99C111.459,156.99 111.725,156.725 111.725,156.398C111.725,156.071 111.459,155.806 111.132,155.806C110.806,155.806 110.54,156.071 110.54,156.398C110.54,156.725 110.806,156.99 111.132,156.99ZM110.451,155.806C110.778,155.806 111.043,155.541 111.043,155.214C111.043,154.887 110.778,154.622 110.451,154.622C110.124,154.622 109.859,154.887 109.859,155.214C109.859,155.541 110.124,155.806 110.451,155.806ZM111.814,155.806C112.141,155.806 112.406,155.541 112.406,155.214C112.406,154.887 112.141,154.622 111.814,154.622C111.487,154.622 111.222,154.887 111.222,155.214C111.222,155.541 111.487,155.806 111.814,155.806ZM110.451,91.415C110.778,91.415 111.043,91.68 111.043,92.007C111.043,92.334 110.778,92.599 110.451,92.599C110.124,92.599 109.859,92.334 109.859,92.007C109.859,91.68 110.124,91.415 110.451,91.415ZM111.814,91.415C112.141,91.415 112.406,91.68 112.406,92.007C112.406,92.334 112.141,92.599 111.814,92.599C111.487,92.599 111.222,92.334 111.222,92.007C111.222,91.68 111.487,91.415 111.814,91.415ZM111.132,90.23C111.459,90.23 111.725,90.496 111.725,90.822C111.725,91.149 111.459,91.415 111.132,91.415C110.806,91.415 110.54,91.149 110.54,90.822C110.54,90.496 110.806,90.23 111.132,90.23Z" style="fill:#4c3b22;"/>
                </g>
            </g>
            <g transform="matrix(0.952208,0,0,0.952208,87.4776,90.4921)">
                <g transform="matrix(1.12919,0,0,2.48091,-19.9888,-158.706)">
                    <path d="M112.648,93.335C112.648,92.955 111.969,92.646 111.132,92.646C110.296,92.646 109.617,92.955 109.617,93.335L109.617,122.685C109.617,123.065 110.296,123.374 111.132,123.374C111.969,123.374 112.648,123.065 112.648,122.685L112.648,93.335Z" style="fill:#916423;"/>
                </g>
                <g transform="matrix(1.12919,0,0,1.12919,-19.9888,-30.4006)">
                    <path d="M111.132,156.99C111.459,156.99 111.725,156.725 111.725,156.398C111.725,156.071 111.459,155.806 111.132,155.806C110.806,155.806 110.54,156.071 110.54,156.398C110.54,156.725 110.806,156.99 111.132,156.99ZM110.451,155.806C110.778,155.806 111.043,155.541 111.043,155.214C111.043,154.887 110.778,154.622 110.451,154.622C110.124,154.622 109.859,154.887 109.859,155.214C109.859,155.541 110.124,155.806 110.451,155.806ZM111.814,155.806C112.141,155.806 112.406,155.541 112.406,155.214C112.406,154.887 112.141,154.622 111.814,154.622C111.487,154.622 111.222,154.887 111.222,155.214C111.222,155.541 111.487,155.806 111.814,155.806ZM110.451,91.415C110.778,91.415 111.043,91.68 111.043,92.007C111.043,92.334 110.778,92.599 110.451,92.599C110.124,92.599 109.859,92.334 109.859,92.007C109.859,91.68 110.124,91.415 110.451,91.415ZM111.814,91.415C112.141,91.415 112.406,91.68 112.406,92.007C112.406,92.334 112.141,92.599 111.814,92.599C111.487,92.599 111.222,92.334 111.222,92.007C111.222,91.68 111.487,91.415 111.814,91.415ZM111.132,90.23C111.459,90.23 111.725,90.496 111.725,90.822C111.725,91.149 111.459,91.415 111.132,91.415C110.806,91.415 110.54,91.149 110.54,90.822C110.54,90.496 110.806,90.23 111.132,90.23Z" style="fill:#4c3b22;"/>
                </g>
            </g>
            <g transform="matrix(1.12919,0,0,1.11051,-19.9888,-26.0415)">
                <path d="M187.664,167.836C187.664,165.384 185.706,163.394 183.295,163.394C183.295,163.394 180.742,163.394 180.742,163.394C178.331,163.394 176.373,165.384 176.373,167.836C176.373,167.836 176.373,229.401 176.373,229.401C176.373,231.853 178.331,233.844 180.742,233.844C180.742,233.844 183.295,233.844 183.295,233.844C185.706,233.844 187.664,231.853 187.664,229.401C187.664,229.401 187.664,167.836 187.664,167.836ZM186.664,167.836L186.664,229.401C186.664,231.292 185.154,232.827 183.295,232.827L180.742,232.827C178.883,232.827 177.373,231.292 177.373,229.401L177.373,167.836C177.373,165.946 178.883,164.41 180.742,164.41L183.295,164.41C185.154,164.41 186.664,165.946 186.664,167.836Z" style="fill:#eca233;"/>
            </g>
        </g>
        <g transform="matrix(1,0,0,1,-13.2986,0)">
            <g transform="matrix(0.952208,0,0,0.952208,82.6949,90.4921)">
                <g transform="matrix(1.12919,0,0,2.48091,-19.9888,-158.706)">
                    <path d="M112.648,93.335C112.648,92.955 111.969,92.646 111.132,92.646C110.296,92.646 109.617,92.955 109.617,93.335L109.617,122.685C109.617,123.065 110.296,123.374 111.132,123.374C111.969,123.374 112.648,123.065 112.648,122.685L112.648,93.335Z" style="fill:#916423;"/>
                </g>
                <g transform="matrix(1.12919,0,0,1.12919,-19.9888,-30.4006)">
                    <path d="M111.132,156.99C111.459,156.99 111.725,156.725 111.725,156.398C111.725,156.071 111.459,155.806 111.132,155.806C110.806,155.806 110.54,156.071 110.54,156.398C110.54,156.725 110.806,156.99 111.132,156.99ZM110.451,155.806C110.778,155.806 111.043,155.541 111.043,155.214C111.043,154.887 110.778,154.622 110.451,154.622C110.124,154.622 109.859,154.887 109.859,155.214C109.859,155.541 110.124,155.806 110.451,155.806ZM111.814,155.806C112.141,155.806 112.406,155.541 112.406,155.214C112.406,154.887 112.141,154.622 111.814,154.622C111.487,154.622 111.222,154.887 111.222,155.214C111.222,155.541 111.487,155.806 111.814,155.806ZM110.451,91.415C110.778,91.415 111.043,91.68 111.043,92.007C111.043,92.334 110.778,92.599 110.451,92.599C110.124,92.599 109.859,92.334 109.859,92.007C109.859,91.68 110.124,91.415 110.451,91.415ZM111.814,91.415C112.141,91.415 112.406,91.68 112.406,92.007C112.406,92.334 112.141,92.599 111.814,92.599C111.487,92.599 111.222,92.334 111.222,92.007C111.222,91.68 111.487,91.415 111.814,91.415ZM111.132,90.23C111.459,90.23 111.725,90.496 111.725,90.822C111.725,91.149 111.459,91.415 111.132,91.415C110.806,91.415 110.54,91.149 110.54,90.822C110.54,90.496 110.806,90.23 111.132,90.23Z" style="fill:#4c3b22;"/>
                </g>
            </g>
            <g transform="matrix(0.952208,0,0,0.952208,87.4776,90.4921)">
                <g transform="matrix(1.12919,0,0,2.48091,-19.9888,-158.706)">
                    <path d="M112.648,93.335C112.648,92.955 111.969,92.646 111.132,92.646C110.296,92.646 109.617,92.955 109.617,93.335L109.617,122.685C109.617,123.065 110.296,123.374 111.132,123.374C111.969,123.374 112.648,123.065 112.648,122.685L112.648,93.335Z" style="fill:#916423;"/>
                </g>
                <g transform="matrix(1.12919,0,0,1.12919,-19.9888,-30.4006)">
                    <path d="M111.132,156.99C111.459,156.99 111.725,156.725 111.725,156.398C111.725,156.071 111.459,155.806 111.132,155.806C110.806,155.806 110.54,156.071 110.54,156.398C110.54,156.725 110.806,156.99 111.132,156.99ZM110.451,155.806C110.778,155.806 111.043,155.541 111.043,155.214C111.043,154.887 110.778,154.622 110.451,154.622C110.124,154.622 109.859,154.887 109.859,155.214C109.859,155.541 110.124,155.806 110.451,155.806ZM111.814,155.806C112.141,155.806 112.406,155.541 112.406,155.214C112.406,154.887 112.141,154.622 111.814,154.622C111.487,154.622 111.222,154.887 111.222,155.214C111.222,155.541 111.487,155.806 111.814,155.806ZM110.451,91.415C110.778,91.415 111.043,91.68 111.043,92.007C111.043,92.334 110.778,92.599 110.451,92.599C110.124,92.599 109.859,92.334 109.859,92.007C109.859,91.68 110.124,91.415 110.451,91.415ZM111.814,91.415C112.141,91.415 112.406,91.68 112.406,92.007C112.406,92.334 112.141,92.599 111.814,92.599C111.487,92.599 111.222,92.334 111.222,92.007C111.222,91.68 111.487,91.415 111.814,91.415ZM111.132,90.23C111.459,90.23 111.725,90.496 111.725,90.822C111.725,91.149 111.459,91.415 111.132,91.415C110.806,91.415 110.54,91.149 110.54,90.822C110.54,90.496 110.806,90.23 111.132,90.23Z" style="fill:#4c3b22;"/>
                </g>
            </g>
            <g transform="matrix(1.12919,0,0,1.11051,-19.9888,-26.0415)">
                <path d="M187.664,167.836C187.664,165.384 185.706,163.394 183.295,163.394C183.295,163.394 180.742,163.394 180.742,163.394C178.331,163.394 176.373,165.384 176.373,167.836C176.373,167.836 176.373,229.401 176.373,229.401C176.373,231.853 178.331,233.844 180.742,233.844C180.742,233.844 183.295,233.844 183.295,233.844C185.706,233.844 187.664,231.853 187.664,229.401C187.664,229.401 187.664,167.836 187.664,167.836ZM186.664,167.836L186.664,229.401C186.664,231.292 185.154,232.827 183.295,232.827L180.742,232.827C178.883,232.827 177.373,231.292 177.373,229.401L177.373,167.836C177.373,165.946 178.883,164.41 180.742,164.41L183.295,164.41C185.154,164.41 186.664,165.946 186.664,167.836Z" style="fill:#eca233;"/>
            </g>
        </g>
        <g transform="matrix(1,0,0,1,-28.4057,0)">
            <g transform="matrix(0.952208,0,0,0.952208,82.6949,90.4921)">
                <g transform="matrix(1.12919,0,0,2.48091,-19.9888,-158.706)">
                    <path d="M112.648,93.335C112.648,92.955 111.969,92.646 111.132,92.646C110.296,92.646 109.617,92.955 109.617,93.335L109.617,122.685C109.617,123.065 110.296,123.374 111.132,123.374C111.969,123.374 112.648,123.065 112.648,122.685L112.648,93.335Z" style="fill:#916423;"/>
                </g>
                <g transform="matrix(1.12919,0,0,1.12919,-19.9888,-30.4006)">
                    <path d="M111.132,156.99C111.459,156.99 111.725,156.725 111.725,156.398C111.725,156.071 111.459,155.806 111.132,155.806C110.806,155.806 110.54,156.071 110.54,156.398C110.54,156.725 110.806,156.99 111.132,156.99ZM110.451,155.806C110.778,155.806 111.043,155.541 111.043,155.214C111.043,154.887 110.778,154.622 110.451,154.622C110.124,154.622 109.859,154.887 109.859,155.214C109.859,155.541 110.124,155.806 110.451,155.806ZM111.814,155.806C112.141,155.806 112.406,155.541 112.406,155.214C112.406,154.887 112.141,154.622 111.814,154.622C111.487,154.622 111.222,154.887 111.222,155.214C111.222,155.541 111.487,155.806 111.814,155.806ZM110.451,91.415C110.778,91.415 111.043,91.68 111.043,92.007C111.043,92.334 110.778,92.599 110.451,92.599C110.124,92.599 109.859,92.334 109.859,92.007C109.859,91.68 110.124,91.415 110.451,91.415ZM111.814,91.415C112.141,91.415 112.406,91.68 112.406,92.007C112.406,92.334 112.141,92.599 111.814,92.599C111.487,92.599 111.222,92.334 111.222,92.007C111.222,91.68 111.487,91.415 111.814,91.415ZM111.132,90.23C111.459,90.23 111.725,90.496 111.725,90.822C111.725,91.149 111.459,91.415 111.132,91.415C110.806,91.415 110.54,91.149 110.54,90.822C110.54,90.496 110.806,90.23 111.132,90.23Z" style="fill:#4c3b22;"/>
                </g>
            </g>
            <g transform="matrix(0.952208,0,0,0.952208,87.4776,90.4921)">
                <g transform="matrix(1.12919,0,0,2.48091,-19.9888,-158.706)">
                    <path d="M112.648,93.335C112.648,92.955 111.969,92.646 111.132,92.646C110.296,92.646 109.617,92.955 109.617,93.335L109.617,122.685C109.617,123.065 110.296,123.374 111.132,123.374C111.969,123.374 112.648,123.065 112.648,122.685L112.648,93.335Z" style="fill:#916423;"/>
                </g>
                <g transform="matrix(1.12919,0,0,1.12919,-19.9888,-30.4006)">
                    <path d="M111.132,156.99C111.459,156.99 111.725,156.725 111.725,156.398C111.725,156.071 111.459,155.806 111.132,155.806C110.806,155.806 110.54,156.071 110.54,156.398C110.54,156.725 110.806,156.99 111.132,156.99ZM110.451,155.806C110.778,155.806 111.043,155.541 111.043,155.214C111.043,154.887 110.778,154.622 110.451,154.622C110.124,154.622 109.859,154.887 109.859,155.214C109.859,155.541 110.124,155.806 110.451,155.806ZM111.814,155.806C112.141,155.806 112.406,155.541 112.406,155.214C112.406,154.887 112.141,154.622 111.814,154.622C111.487,154.622 111.222,154.887 111.222,155.214C111.222,155.541 111.487,155.806 111.814,155.806ZM110.451,91.415C110.778,91.415 111.043,91.68 111.043,92.007C111.043,92.334 110.778,92.599 110.451,92.599C110.124,92.599 109.859,92.334 109.859,92.007C109.859,91.68 110.124,91.415 110.451,91.415ZM111.814,91.415C112.141,91.415 112.406,91.68 112.406,92.007C112.406,92.334 112.141,92.599 111.814,92.599C111.487,92.599 111.222,92.334 111.222,92.007C111.222,91.68 111.487,91.415 111.814,91.415ZM111.132,90.23C111.459,90.23 111.725,90.496 111.725,90.822C111.725,91.149 111.459,91.415 111.132,91.415C110.806,91.415 110.54,91.149 110.54,90.822C110.54,90.496 110.806,90.23 111.132,90.23Z" style="fill:#4c3b22;"/>
                </g>
            </g>
            <g transform="matrix(1.12919,0,0,1.11051,-19.9888,-26.0415)">
                <path d="M187.664,167.836C187.664,165.384 185.706,163.394 183.295,163.394C183.295,163.394 180.742,163.394 180.742,163.394C178.331,163.394 176.373,165.384 176.373,167.836C176.373,167.836 176.373,229.401 176.373,229.401C176.373,231.853 178.331,233.844 180.742,233.844C180.742,233.844 183.295,233.844 183.295,233.844C185.706,233.844 187.664,231.853 187.664,229.401C187.664,229.401 187.664,167.836 187.664,167.836ZM186.664,167.836L186.664,229.401C186.664,231.292 185.154,232.827 183.295,232.827L180.742,232.827C178.883,232.827 177.373,231.292 177.373,229.401L177.373,167.836C177.373,165.946 178.883,164.41 180.742,164.41L183.295,164.41C185.154,164.41 186.664,165.946 186.664,167.836Z" style="fill:#eca233;"/>
            </g>
        </g>
        <g transform="matrix(1,0,0,1,-43.943,0)">
            <g transform="matrix(0.952208,0,0,0.952208,82.6949,90.4921)">
                <g transform="matrix(1.12919,0,0,2.48091,-19.9888,-158.706)">
                    <path d="M112.648,93.335C112.648,92.955 111.969,92.646 111.132,92.646C110.296,92.646 109.617,92.955 109.617,93.335L109.617,122.685C109.617,123.065 110.296,123.374 111.132,123.374C111.969,123.374 112.648,123.065 112.648,122.685L112.648,93.335Z" style="fill:#916423;"/>
                </g>
                <g transform="matrix(1.12919,0,0,1.12919,-19.9888,-30.4006)">
                    <path d="M111.132,156.99C111.459,156.99 111.725,156.725 111.725,156.398C111.725,156.071 111.459,155.806 111.132,155.806C110.806,155.806 110.54,156.071 110.54,156.398C110.54,156.725 110.806,156.99 111.132,156.99ZM110.451,155.806C110.778,155.806 111.043,155.541 111.043,155.214C111.043,154.887 110.778,154.622 110.451,154.622C110.124,154.622 109.859,154.887 109.859,155.214C109.859,155.541 110.124,155.806 110.451,155.806ZM111.814,155.806C112.141,155.806 112.406,155.541 112.406,155.214C112.406,154.887 112.141,154.622 111.814,154.622C111.487,154.622 111.222,154.887 111.222,155.214C111.222,155.541 111.487,155.806 111.814,155.806ZM110.451,91.415C110.778,91.415 111.043,91.68 111.043,92.007C111.043,92.334 110.778,92.599 110.451,92.599C110.124,92.599 109.859,92.334 109.859,92.007C109.859,91.68 110.124,91.415 110.451,91.415ZM111.814,91.415C112.141,91.415 112.406,91.68 112.406,92.007C112.406,92.334 112.141,92.599 111.814,92.599C111.487,92.599 111.222,92.334 111.222,92.007C111.222,91.68 111.487,91.415 111.814,91.415ZM111.132,90.23C111.459,90.23 111.725,90.496 111.725,90.822C111.725,91.149 111.459,91.415 111.132,91.415C110.806,91.415 110.54,91.149 110.54,90.822C110.54,90.496 110.806,90.23 111.132,90.23Z" style="fill:#4c3b22;"/>
                </g>
            </g>
            <g transform="matrix(0.952208,0,0,0.952208,87.4776,90.4921)">
                <g transform="matrix(1.12919,0,0,2.48091,-19.9888,-158.706)">
                    <path d="M112.648,93.335C112.648,92.955 111.969,92.646 111.132,92.646C110.296,92.646 109.617,92.955 109.617,93.335L109.617,122.685C109.617,123.065 110.296,123.374 111.132,123.374C111.969,123.374 112.648,123.065 112.648,122.685L112.648,93.335Z" style="fill:#916423;"/>
                </g>
                <g transform="matrix(1.12919,0,0,1.12919,-19.9888,-30.4006)">
                    <path d="M111.132,156.99C111.459,156.99 111.725,156.725 111.725,156.398C111.725,156.071 111.459,155.806 111.132,155.806C110.806,155.806 110.54,156.071 110.54,156.398C110.54,156.725 110.806,156.99 111.132,156.99ZM110.451,155.806C110.778,155.806 111.043,155.541 111.043,155.214C111.043,154.887 110.778,154.622 110.451,154.622C110.124,154.622 109.859,154.887 109.859,155.214C109.859,155.541 110.124,155.806 110.451,155.806ZM111.814,155.806C112.141,155.806 112.406,155.541 112.406,155.214C112.406,154.887 112.141,154.622 111.814,154.622C111.487,154.622 111.222,154.887 111.222,155.214C111.222,155.541 111.487,155.806 111.814,155.806ZM110.451,91.415C110.778,91.415 111.043,91.68 111.043,92.007C111.043,92.334 110.778,92.599 110.451,92.599C110.124,92.599 109.859,92.334 109.859,92.007C109.859,91.68 110.124,91.415 110.451,91.415ZM111.814,91.415C112.141,91.415 112.406,91.68 112.406,92.007C112.406,92.334 112.141,92.599 111.814,92.599C111.487,92.599 111.222,92.334 111.222,92.007C111.222,91.68 111.487,91.415 111.814,91.415ZM111.132,90.23C111.459,90.23 111.725,90.496 111.725,90.822C111.725,91.149 111.459,91.415 111.132,91.415C110.806,91.415 110.54,91.149 110.54,90.822C110.54,90.496 110.806,90.23 111.132,90.23Z" style="fill:#4c3b22;"/>
                </g>
            </g>
            <g transform="matrix(1.12919,0,0,1.11051,-19.9888,-26.0415)">
                <path d="M187.664,167.836C187.664,165.384 185.706,163.394 183.295,163.394C183.295,163.394 180.742,163.394 180.742,163.394C178.331,163.394 176.373,165.384 176.373,167.836C176.373,167.836 176.373,229.401 176.373,229.401C176.373,231.853 178.331,233.844 180.742,233.844C180.742,233.844 183.295,233.844 183.295,233.844C185.706,233.844 187.664,231.853 187.664,229.401C187.664,229.401 187.664,167.836 187.664,167.836ZM186.664,167.836L186.664,229.401C186.664,231.292 185.154,232.827 183.295,232.827L180.742,232.827C178.883,232.827 177.373,231.292 177.373,229.401L177.373,167.836C177.373,165.946 178.883,164.41 180.742,164.41L183.295,164.41C185.154,164.41 186.664,165.946 186.664,167.836Z" style="fill:#eca233;"/>
            </g>
        </g>
        <g transform="matrix(1,0,0,1,-59.1066,0)">
            <g transform="matrix(0.952208,0,0,0.952208,82.6949,90.4921)">
                <g transform="matrix(1.12919,0,0,2.48091,-19.9888,-158.706)">
                    <path d="M112.648,93.335C112.648,92.955 111.969,92.646 111.132,92.646C110.296,92.646 109.617,92.955 109.617,93.335L109.617,122.685C109.617,123.065 110.296,123.374 111.132,123.374C111.969,123.374 112.648,123.065 112.648,122.685L112.648,93.335Z" style="fill:#916423;"/>
                </g>
                <g transform="matrix(1.12919,0,0,1.12919,-19.9888,-30.4006)">
                    <path d="M111.132,156.99C111.459,156.99 111.725,156.725 111.725,156.398C111.725,156.071 111.459,155.806 111.132,155.806C110.806,155.806 110.54,156.071 110.54,156.398C110.54,156.725 110.806,156.99 111.132,156.99ZM110.451,155.806C110.778,155.806 111.043,155.541 111.043,155.214C111.043,154.887 110.778,154.622 110.451,154.622C110.124,154.622 109.859,154.887 109.859,155.214C109.859,155.541 110.124,155.806 110.451,155.806ZM111.814,155.806C112.141,155.806 112.406,155.541 112.406,155.214C112.406,154.887 112.141,154.622 111.814,154.622C111.487,154.622 111.222,154.887 111.222,155.214C111.222,155.541 111.487,155.806 111.814,155.806ZM110.451,91.415C110.778,91.415 111.043,91.68 111.043,92.007C111.043,92.334 110.778,92.599 110.451,92.599C110.124,92.599 109.859,92.334 109.859,92.007C109.859,91.68 110.124,91.415 110.451,91.415ZM111.814,91.415C112.141,91.415 112.406,91.68 112.406,92.007C112.406,92.334 112.141,92.599 111.814,92.599C111.487,92.599 111.222,92.334 111.222,92.007C111.222,91.68 111.487,91.415 111.814,91.415ZM111.132,90.23C111.459,90.23 111.725,90.496 111.725,90.822C111.725,91.149 111.459,91.415 111.132,91.415C110.806,91.415 110.54,91.149 110.54,90.822C110.54,90.496 110.806,90.23 111.132,90.23Z" style="fill:#4c3b22;"/>
                </g>
            </g>
            <g transform="matrix(0.952208,0,0,0.952208,87.4776,90.4921)">
                <g transform="matrix(1.12919,0,0,2.48091,-19.9888,-158.706)">
                    <path d="M112.648,93.335C112.648,92.955 111.969,92.646 111.132,92.646C110.296,92.646 109.617,92.955 109.617,93.335L109.617,122.685C109.617,123.065 110.296,123.374 111.132,123.374C111.969,123.374 112.648,123.065 112.648,122.685L112.648,93.335Z" style="fill:#916423;"/>
                </g>
                <g transform="matrix(1.12919,0,0,1.12919,-19.9888,-30.4006)">
                    <path d="M111.132,156.99C111.459,156.99 111.725,156.725 111.725,156.398C111.725,156.071 111.459,155.806 111.132,155.806C110.806,155.806 110.54,156.071 110.54,156.398C110.54,156.725 110.806,156.99 111.132,156.99ZM110.451,155.806C110.778,155.806 111.043,155.541 111.043,155.214C111.043,154.887 110.778,154.622 110.451,154.622C110.124,154.622 109.859,154.887 109.859,155.214C109.859,155.541 110.124,155.806 110.451,155.806ZM111.814,155.806C112.141,155.806 112.406,155.541 112.406,155.214C112.406,154.887 112.141,154.622 111.814,154.622C111.487,154.622 111.222,154.887 111.222,155.214C111.222,155.541 111.487,155.806 111.814,155.806ZM110.451,91.415C110.778,91.415 111.043,91.68 111.043,92.007C111.043,92.334 110.778,92.599 110.451,92.599C110.124,92.599 109.859,92.334 109.859,92.007C109.859,91.68 110.124,91.415 110.451,91.415ZM111.814,91.415C112.141,91.415 112.406,91.68 112.406,92.007C112.406,92.334 112.141,92.599 111.814,92.599C111.487,92.599 111.222,92.334 111.222,92.007C111.222,91.68 111.487,91.415 111.814,91.415ZM111.132,90.23C111.459,90.23 111.725,90.496 111.725,90.822C111.725,91.149 111.459,91.415 111.132,91.415C110.806,91.415 110.54,91.149 110.54,90.822C110.54,90.496 110.806,90.23 111.132,90.23Z" style="fill:#4c3b22;"/>
                </g>
            </g>
            <g transform="matrix(1.12919,0,0,1.11051,-19.9888,-26.0415)">
                <path d="M187.664,167.836C187.664,165.384 185.706,163.394 183.295,163.394C183.295,163.394 180.742,163.394 180.742,163.394C178.331,163.394 176.373,165.384 176.373,167.836C176.373,167.836 176.373,229.401 176.373,229.401C176.373,231.853 178.331,233.844 180.742,233.844C180.742,233.844 183.295,233.844 183.295,233.844C185.706,233.844 187.664,231.853 187.664,229.401C187.664,229.401 187.664,167.836 187.664,167.836ZM186.664,167.836L186.664,229.401C186.664,231.292 185.154,232.827 183.295,232.827L180.742,232.827C178.883,232.827 177.373,231.292 177.373,229.401L177.373,167.836C177.373,165.946 178.883,164.41 180.742,164.41L183.295,164.41C185.154,164.41 186.664,165.946 186.664,167.836Z" style="fill:#eca233;"/>
            </g>
        </g>
        <g transform="matrix(1,0,0,1,-74.175,0)">
            <g transform="matrix(0.952208,0,0,0.952208,82.6949,90.4921)">
                <g transform="matrix(1.12919,0,0,2.48091,-19.9888,-158.706)">
                    <path d="M112.648,93.335C112.648,92.955 111.969,92.646 111.132,92.646C110.296,92.646 109.617,92.955 109.617,93.335L109.617,122.685C109.617,123.065 110.296,123.374 111.132,123.374C111.969,123.374 112.648,123.065 112.648,122.685L112.648,93.335Z" style="fill:#916423;"/>
                </g>
                <g transform="matrix(1.12919,0,0,1.12919,-19.9888,-30.4006)">
                    <path d="M111.132,156.99C111.459,156.99 111.725,156.725 111.725,156.398C111.725,156.071 111.459,155.806 111.132,155.806C110.806,155.806 110.54,156.071 110.54,156.398C110.54,156.725 110.806,156.99 111.132,156.99ZM110.451,155.806C110.778,155.806 111.043,155.541 111.043,155.214C111.043,154.887 110.778,154.622 110.451,154.622C110.124,154.622 109.859,154.887 109.859,155.214C109.859,155.541 110.124,155.806 110.451,155.806ZM111.814,155.806C112.141,155.806 112.406,155.541 112.406,155.214C112.406,154.887 112.141,154.622 111.814,154.622C111.487,154.622 111.222,154.887 111.222,155.214C111.222,155.541 111.487,155.806 111.814,155.806ZM110.451,91.415C110.778,91.415 111.043,91.68 111.043,92.007C111.043,92.334 110.778,92.599 110.451,92.599C110.124,92.599 109.859,92.334 109.859,92.007C109.859,91.68 110.124,91.415 110.451,91.415ZM111.814,91.415C112.141,91.415 112.406,91.68 112.406,92.007C112.406,92.334 112.141,92.599 111.814,92.599C111.487,92.599 111.222,92.334 111.222,92.007C111.222,91.68 111.487,91.415 111.814,91.415ZM111.132,90.23C111.459,90.23 111.725,90.496 111.725,90.822C111.725,91.149 111.459,91.415 111.132,91.415C110.806,91.415 110.54,91.149 110.54,90.822C110.54,90.496 110.806,90.23 111.132,90.23Z" style="fill:#4c3b22;"/>
                </g>
            </g>
            <g transform="matrix(0.952208,0,0,0.952208,87.4776,90.4921)">
                <g transform="matrix(1.12919,0,0,2.48091,-19.9888,-158.706)">
                    <path d="M112.648,93.335C112.648,92.955 111.969,92.646 111.132,92.646C110.296,92.646 109.617,92.955 109.617,93.335L109.617,122.685C109.617,123.065 110.296,123.374 111.132,123.374C111.969,123.374 112.648,123.065 112.648,122.685L112.648,93.335Z" style="fill:#916423;"/>
                </g>
                <g transform="matrix(1.12919,0,0,1.12919,-19.9888,-30.4006)">
                    <path d="M111.132,156.99C111.459,156.99 111.725,156.725 111.725,156.398C111.725,156.071 111.459,155.806 111.132,155.806C110.806,155.806 110.54,156.071 110.54,156.398C110.54,156.725 110.806,156.99 111.132,156.99ZM110.451,155.806C110.778,155.806 111.043,155.541 111.043,155.214C111.043,154.887 110.778,154.622 110.451,154.622C110.124,154.622 109.859,154.887 109.859,155.214C109.859,155.541 110.124,155.806 110.451,155.806ZM111.814,155.806C112.141,155.806 112.406,155.541 112.406,155.214C112.406,154.887 112.141,154.622 111.814,154.622C111.487,154.622 111.222,154.887 111.222,155.214C111.222,155.541 111.487,155.806 111.814,155.806ZM110.451,91.415C110.778,91.415 111.043,91.68 111.043,92.007C111.043,92.334 110.778,92.599 110.451,92.599C110.124,92.599 109.859,92.334 109.859,92.007C109.859,91.68 110.124,91.415 110.451,91.415ZM111.814,91.415C112.141,91.415 112.406,91.68 112.406,92.007C112.406,92.334 112.141,92.599 111.814,92.599C111.487,92.599 111.222,92.334 111.222,92.007C111.222,91.68 111.487,91.415 111.814,91.415ZM111.132,90.23C111.459,90.23 111.725,90.496 111.725,90.822C111.725,91.149 111.459,91.415 111.132,91.415C110.806,91.415 110.54,91.149 110.54,90.822C110.54,90.496 110.806,90.23 111.132,90.23Z" style="fill:#4c3b22;"/>
                </g>
            </g>
            <g transform="matrix(1.12919,0,0,1.11051,-19.9888,-26.0415)">
                <path d="M187.664,167.836C187.664,165.384 185.706,163.394 183.295,163.394C183.295,163.394 180.742,163.394 180.742,163.394C178.331,163.394 176.373,165.384 176.373,167.836C176.373,167.836 176.373,229.401 176.373,229.401C176.373,231.853 178.331,233.844 180.742,233.844C180.742,233.844 183.295,233.844 183.295,233.844C185.706,233.844 187.664,231.853 187.664,229.401C187.664,229.401 187.664,167.836 187.664,167.836ZM186.664,167.836L186.664,229.401C186.664,231.292 185.154,232.827 183.295,232.827L180.742,232.827C178.883,232.827 177.373,231.292 177.373,229.401L177.373,167.836C177.373,165.946 178.883,164.41 180.742,164.41L183.295,164.41C185.154,164.41 186.664,165.946 186.664,167.836Z" style="fill:#eca233;"/>
            </g>
        </g>
        <g transform="matrix(11.8461,0,0,1.63596,-1052.94,-56.1803)">
            <path d="M105.533,140.951C105.533,140.638 105.501,140.383 105.461,140.383L97.531,140.383C97.491,140.383 97.459,140.638 97.459,140.951L97.459,142.087C97.459,142.401 97.491,142.655 97.531,142.655L105.461,142.655C105.501,142.655 105.533,142.401 105.533,142.087L105.533,140.951Z" style="fill:#eca233;"/>
        </g>
        <g transform="matrix(11.8461,0,0,1.63596,-1052.94,-49.3359)">
            <path d="M105.533,140.951C105.533,140.638 105.501,140.383 105.461,140.383L97.531,140.383C97.491,140.383 97.459,140.638 97.459,140.951L97.459,142.087C97.459,142.401 97.491,142.655 97.531,142.655L105.461,142.655C105.501,142.655 105.533,142.401 105.533,142.087L105.533,140.951Z" style="fill:#eca233;"/>
        </g>
        <g transform="matrix(11.8461,0,0,1.63596,-1052.94,-26.4916)">
            <path d="M105.533,140.951C105.533,140.638 105.501,140.383 105.461,140.383L97.531,140.383C97.491,140.383 97.459,140.638 97.459,140.951L97.459,142.087C97.459,142.401 97.491,142.655 97.531,142.655L105.461,142.655C105.501,142.655 105.533,142.401 105.533,142.087L105.533,140.951Z" style="fill:#eca233;"/>
        </g>
        <g transform="matrix(11.8461,0,0,1.63596,-1052.94,-19.6473)">
            <path d="M105.533,140.951C105.533,140.638 105.501,140.383 105.461,140.383L97.531,140.383C97.491,140.383 97.459,140.638 97.459,140.951L97.459,142.087C97.459,142.401 97.491,142.655 97.531,142.655L105.461,142.655C105.501,142.655 105.533,142.401 105.533,142.087L105.533,140.951Z" style="fill:#eca233;"/>
        </g>
        <g>
            <g transform="matrix(1.0556,0,0,1.12919,-6.52674,-34.5028)">
                <rect x="115.864" y="99.212" width="63.679" height="55.638" style="fill:#744601;"/>
            </g>
            <g transform="matrix(1.20773,0,0,1.1342,-29.765,-31.1386)">
                <path d="M148.44,99.015C134.947,99.015 124.006,109.987 124.006,123.481C124.006,136.974 134.947,147.946 148.44,147.946C161.934,147.946 172.875,136.974 172.875,123.481C172.875,109.987 161.934,99.015 148.44,99.015ZM148.44,100.011C161.403,100.011 171.94,110.519 171.94,123.481C171.94,136.443 161.403,146.95 148.44,146.95C135.478,146.95 124.941,136.443 124.941,123.481C124.941,110.519 135.478,100.011 148.44,100.011Z" style="fill:#e0ba2b;"/>
            </g>
            <g transform="matrix(1.16843,0,0,1.18089,-26.1121,-37.2256)">
                <ellipse cx="150.312" cy="123.755" rx="22.93" ry="21.322" style="fill:#fff;"/>
            </g>
            <g transform="matrix(1.12919,0,0,1.12919,-19.9888,-30.4006)">
                <path d="M149.722,136.681C149.853,136.684 149.982,136.686 150.113,136.686C150.243,136.686 150.373,136.684 150.504,136.681L150.504,145.3L149.722,145.3L149.722,136.681ZM157.211,134.89L161.413,142.167L160.736,142.558L156.515,135.247C156.751,135.134 156.983,135.015 157.211,134.89ZM143.014,134.89C143.242,135.015 143.475,135.134 143.711,135.247L139.49,142.558L138.813,142.167L143.014,134.89ZM162.379,130.008L169.88,134.338L169.49,135.015L161.951,130.663C162.1,130.449 162.243,130.23 162.379,130.008ZM137.846,130.008C137.983,130.23 138.125,130.449 138.275,130.663L130.736,135.015L130.345,134.338L137.846,130.008ZM164.245,122.986L173.177,122.986L173.177,123.768L164.247,123.768C164.25,123.644 164.252,123.521 164.252,123.398C164.252,123.26 164.25,123.123 164.245,122.986ZM135.98,122.986C135.976,123.123 135.973,123.26 135.973,123.398C135.973,123.521 135.975,123.644 135.979,123.768L127.187,123.768L127.187,122.986L135.98,122.986ZM138.296,116.103C138.146,116.317 138.002,116.535 137.866,116.757L130.345,112.415L130.736,111.738L138.296,116.103ZM161.93,116.103L169.49,111.738L169.88,112.415L162.36,116.757C162.223,116.535 162.08,116.317 161.93,116.103ZM143.73,111.54C143.494,111.653 143.262,111.771 143.033,111.896L138.813,104.586L139.49,104.195L143.73,111.54ZM156.495,111.54L160.736,104.195L161.413,104.586L157.192,111.896C156.964,111.771 156.732,111.653 156.495,111.54ZM150.504,110.115C150.373,110.112 150.243,110.11 150.113,110.11C149.982,110.11 149.853,110.112 149.722,110.115L149.722,101.454L150.504,101.454L150.504,110.115Z"/>
            </g>
            <g transform="matrix(1.10733,0.221122,-0.287883,1.44166,18.835,-103.368)">
                <path d="M150.703,124.352C150.703,124.277 150.624,124.217 150.527,124.217L150.175,124.217C150.078,124.217 149.999,124.277 149.999,124.352L149.999,138.903C149.999,138.977 150.078,139.038 150.175,139.038L150.527,139.038C150.624,139.038 150.703,138.977 150.703,138.903L150.703,124.352Z"/>
            </g>
            <g transform="matrix(1.12919,0,0,1.12919,-19.9888,-30.4006)">
                <path d="M149.606,115.89C149.196,116.207 148.687,116.117 148.384,115.801C147.511,114.892 149.398,112.267 150.006,111.825C150.614,112.267 152.468,114.914 151.628,115.801C151.324,116.122 150.807,116.21 150.394,115.88L150.394,116.532C150.802,118.178 151.33,119.387 150.948,120.078C150.859,120.24 150.644,120.388 150.394,120.374L150.394,122.328L149.606,122.328L149.606,120.374C149.356,120.388 149.141,120.24 149.052,120.078C148.67,119.387 149.198,118.178 149.606,116.532L149.606,115.89Z"/>
            </g>
            <g transform="matrix(0.682747,0.679909,-0.679909,0.682747,131.213,-76.8605)">
                <path d="M149.606,115.89C149.196,116.207 148.687,116.117 148.384,115.801C147.511,114.892 149.398,112.267 150.006,111.825C150.614,112.267 152.468,114.914 151.628,115.801C151.324,116.122 150.807,116.21 150.394,115.88L150.394,116.532C150.802,118.178 151.33,119.387 150.948,120.078C150.859,120.24 150.644,120.388 150.394,120.374L150.394,122.328L149.606,122.328L149.606,120.374C149.356,120.388 149.141,120.24 149.052,120.078C148.67,119.387 149.198,118.178 149.606,116.532L149.606,115.89Z"/>
            </g>
            <g transform="matrix(1.12919,0,0,1.12919,-19.9506,-30.8562)">
                <circle cx="150.148" cy="123.778" r="1.926"/>
            </g>
            <g transform="matrix(1.16843,0,0,1.18089,-26.1121,-37.2256)">
                <path d="M150.312,102.434C162.967,102.434 173.242,111.988 173.242,123.755C173.242,135.523 162.967,145.077 150.312,145.077C137.657,145.077 127.382,135.523 127.382,123.755C127.382,111.988 137.657,102.434 150.312,102.434ZM150.312,103.39C162.418,103.39 172.275,112.499 172.275,123.755C172.275,135.012 162.418,144.121 150.312,144.121C138.206,144.121 128.349,135.012 128.349,123.755C128.349,112.499 138.206,103.39 150.312,103.39Z"/>
            </g>
            <g transform="matrix(0.94217,0,0,0.952213,7.76965,-8.90153)">
                <path d="M150.312,102.434C162.967,102.434 173.242,111.988 173.242,123.755C173.242,135.523 162.967,145.077 150.312,145.077C137.657,145.077 127.382,135.523 127.382,123.755C127.382,111.988 137.657,102.434 150.312,102.434ZM150.312,103.39C162.418,103.39 172.275,112.499 172.275,123.755C172.275,135.012 162.418,144.121 150.312,144.121C138.206,144.121 128.349,135.012 128.349,123.755C128.349,112.499 138.206,103.39 150.312,103.39Z"/>
            </g>
            <g transform="matrix(0.696302,0,0,0.703724,44.8551,21.8503)">
                <path d="M150.312,102.434C162.967,102.434 173.242,111.988 173.242,123.755C173.242,135.523 162.967,145.077 150.312,145.077C137.657,145.077 127.382,135.523 127.382,123.755C127.382,111.988 137.657,102.434 150.312,102.434ZM150.312,103.39C162.418,103.39 172.275,112.499 172.275,123.755C172.275,135.012 162.418,144.121 150.312,144.121C138.206,144.121 128.349,135.012 128.349,123.755C128.349,112.499 138.206,103.39 150.312,103.39Z"/>
            </g>
            <g transform="matrix(0.921144,0,0,0.985363,13.333,-16.2319)">
                <path d="M180.156,99.212C180.156,98.895 179.882,98.639 179.543,98.639L115.864,98.639C115.525,98.639 115.251,98.895 115.251,99.212L115.251,154.85C115.251,155.167 115.525,155.423 115.864,155.423L179.543,155.423C179.882,155.423 180.156,155.167 180.156,154.85L180.156,99.212ZM178.93,99.785L178.93,154.277L116.477,154.277L116.477,99.785L178.93,99.785Z" style="fill:#e0ba2b;"/>
            </g>
            <g transform="matrix(1.0556,0,0,1.12919,-6.52674,-34.5028)">
                <path d="M180.613,99.212C180.613,98.66 180.134,98.212 179.543,98.212L115.864,98.212C115.273,98.212 114.794,98.66 114.794,99.212L114.794,154.85C114.794,155.403 115.273,155.85 115.864,155.85L179.543,155.85C180.134,155.85 180.613,155.403 180.613,154.85L180.613,99.212ZM178.473,100.212L178.473,153.85L116.933,153.85L116.933,100.212L178.473,100.212Z" style="fill:#e0ba2b;"/>
            </g>
        </g>
        <g transform="matrix(1,0,0,1,1.49035,0)">
            <g transform="matrix(0.963946,0,0,0.992987,1.69677,-19.6928)">
                <path d="M133.593,72.215C133.593,70.228 131.931,68.614 129.884,68.614C127.837,68.614 126.175,70.228 126.175,72.215L126.175,80.514C126.175,82.501 127.837,84.114 129.884,84.114C131.931,84.114 133.593,82.501 133.593,80.514L133.593,72.215Z" style="fill:#343434;"/>
            </g>
            <g transform="matrix(0.963946,0,0,0.992987,1.69677,-19.6928)">
                <path d="M134.179,72.215C134.179,69.914 132.255,68.046 129.884,68.046C127.514,68.046 125.589,69.914 125.589,72.215L125.589,80.514C125.589,82.815 127.514,84.683 129.884,84.683C132.255,84.683 134.179,82.815 134.179,80.514C134.179,80.514 134.179,72.215 134.179,72.215ZM133.008,72.215L133.008,80.514C133.008,82.187 131.608,83.546 129.884,83.546C128.16,83.546 126.761,82.187 126.761,80.514C126.761,80.514 126.761,72.215 126.761,72.215C126.761,70.542 128.16,69.183 129.884,69.183C131.608,69.183 133.008,70.542 133.008,72.215Z" style="fill:#a6752b;"/>
            </g>
        </g>
        <g transform="matrix(1,0,0,1,12.1825,0)">
            <g transform="matrix(0.963946,0,0,0.992987,1.69677,-19.6928)">
                <path d="M133.593,72.215C133.593,70.228 131.931,68.614 129.884,68.614C127.837,68.614 126.175,70.228 126.175,72.215L126.175,80.514C126.175,82.501 127.837,84.114 129.884,84.114C131.931,84.114 133.593,82.501 133.593,80.514L133.593,72.215Z" style="fill:#343434;"/>
            </g>
            <g transform="matrix(0.963946,0,0,0.992987,1.69677,-19.6928)">
                <path d="M134.179,72.215C134.179,69.914 132.255,68.046 129.884,68.046C127.514,68.046 125.589,69.914 125.589,72.215L125.589,80.514C125.589,82.815 127.514,84.683 129.884,84.683C132.255,84.683 134.179,82.815 134.179,80.514C134.179,80.514 134.179,72.215 134.179,72.215ZM133.008,72.215L133.008,80.514C133.008,82.187 131.608,83.546 129.884,83.546C128.16,83.546 126.761,82.187 126.761,80.514C126.761,80.514 126.761,72.215 126.761,72.215C126.761,70.542 128.16,69.183 129.884,69.183C131.608,69.183 133.008,70.542 133.008,72.215Z" style="fill:#a6752b;"/>
            </g>
        </g>
        <g transform="matrix(1,0,0,1,22.6704,0)">
            <g transform="matrix(0.963946,0,0,0.992987,1.69677,-19.6928)">
                <path d="M133.593,72.215C133.593,70.228 131.931,68.614 129.884,68.614C127.837,68.614 126.175,70.228 126.175,72.215L126.175,80.514C126.175,82.501 127.837,84.114 129.884,84.114C131.931,84.114 133.593,82.501 133.593,80.514L133.593,72.215Z" style="fill:#343434;"/>
            </g>
            <g transform="matrix(0.963946,0,0,0.992987,1.69677,-19.6928)">
                <path d="M134.179,72.215C134.179,69.914 132.255,68.046 129.884,68.046C127.514,68.046 125.589,69.914 125.589,72.215L125.589,80.514C125.589,82.815 127.514,84.683 129.884,84.683C132.255,84.683 134.179,82.815 134.179,80.514C134.179,80.514 134.179,72.215 134.179,72.215ZM133.008,72.215L133.008,80.514C133.008,82.187 131.608,83.546 129.884,83.546C128.16,83.546 126.761,82.187 126.761,80.514C126.761,80.514 126.761,72.215 126.761,72.215C126.761,70.542 128.16,69.183 129.884,69.183C131.608,69.183 133.008,70.542 133.008,72.215Z" style="fill:#a6752b;"/>
            </g>
        </g>
        <g transform="matrix(1,0,0,1,33.3625,0)">
            <g transform="matrix(0.963946,0,0,0.992987,1.69677,-19.6928)">
                <path d="M133.593,72.215C133.593,70.228 131.931,68.614 129.884,68.614C127.837,68.614 126.175,70.228 126.175,72.215L126.175,80.514C126.175,82.501 127.837,84.114 129.884,84.114C131.931,84.114 133.593,82.501 133.593,80.514L133.593,72.215Z" style="fill:#343434;"/>
            </g>
            <g transform="matrix(0.963946,0,0,0.992987,1.69677,-19.6928)">
                <path d="M134.179,72.215C134.179,69.914 132.255,68.046 129.884,68.046C127.514,68.046 125.589,69.914 125.589,72.215L125.589,80.514C125.589,82.815 127.514,84.683 129.884,84.683C132.255,84.683 134.179,82.815 134.179,80.514C134.179,80.514 134.179,72.215 134.179,72.215ZM133.008,72.215L133.008,80.514C133.008,82.187 131.608,83.546 129.884,83.546C128.16,83.546 126.761,82.187 126.761,80.514C126.761,80.514 126.761,72.215 126.761,72.215C126.761,70.542 128.16,69.183 129.884,69.183C131.608,69.183 133.008,70.542 133.008,72.215Z" style="fill:#a6752b;"/>
            </g>
        </g>
        <g transform="matrix(1,0,0,1,43.4929,0)">
            <g transform="matrix(0.963946,0,0,0.992987,1.69677,-19.6928)">
                <path d="M133.593,72.215C133.593,70.228 131.931,68.614 129.884,68.614C127.837,68.614 126.175,70.228 126.175,72.215L126.175,80.514C126.175,82.501 127.837,84.114 129.884,84.114C131.931,84.114 133.593,82.501 133.593,80.514L133.593,72.215Z" style="fill:#343434;"/>
            </g>
            <g transform="matrix(0.963946,0,0,0.992987,1.69677,-19.6928)">
                <path d="M134.179,72.215C134.179,69.914 132.255,68.046 129.884,68.046C127.514,68.046 125.589,69.914 125.589,72.215L125.589,80.514C125.589,82.815 127.514,84.683 129.884,84.683C132.255,84.683 134.179,82.815 134.179,80.514C134.179,80.514 134.179,72.215 134.179,72.215ZM133.008,72.215L133.008,80.514C133.008,82.187 131.608,83.546 129.884,83.546C128.16,83.546 126.761,82.187 126.761,80.514C126.761,80.514 126.761,72.215 126.761,72.215C126.761,70.542 128.16,69.183 129.884,69.183C131.608,69.183 133.008,70.542 133.008,72.215Z" style="fill:#a6752b;"/>
            </g>
        </g>
        <g transform="matrix(1.12919,0,0,1.12919,-19.9888,-30.4006)">
            <path d="M126.148,69.321C126.148,69.045 125.924,68.821 125.648,68.821L118.369,68.821C118.093,68.821 117.869,69.045 117.869,69.321L117.869,83.951C117.869,84.227 118.093,84.451 118.369,84.451L125.648,84.451C125.924,84.451 126.148,84.227 126.148,83.951L126.148,69.321ZM125.148,82.299C124.953,82.964 124.338,83.45 123.611,83.45C122.726,83.45 122.008,82.732 122.008,81.848L122.008,81.848C122.008,82.732 121.291,83.45 120.407,83.45C119.678,83.45 119.063,82.963 118.869,82.297L118.869,83.451C118.869,83.451 125.148,83.451 125.148,83.451L125.148,82.299ZM121.485,71.45L121.485,81.848C121.485,82.443 121.002,82.926 120.407,82.926C119.812,82.926 119.329,82.443 119.329,81.848C119.329,81.848 119.329,71.45 119.329,71.45C119.329,70.855 119.812,70.372 120.407,70.372C121.002,70.372 121.485,70.855 121.485,71.45ZM124.689,71.451L124.689,81.848C124.689,82.443 124.206,82.926 123.611,82.926C123.015,82.926 122.532,82.443 122.532,81.848C122.532,81.848 122.532,71.451 122.532,71.451C122.532,70.856 123.015,70.372 123.611,70.372C124.206,70.372 124.689,70.856 124.689,71.451ZM125.148,71L125.148,69.821L118.869,69.821L118.869,71.002C119.063,70.336 119.678,69.849 120.407,69.849C121.291,69.849 122.008,70.566 122.008,71.45L122.008,71.451C122.008,70.566 122.726,69.849 123.611,69.849C124.338,69.849 124.953,70.335 125.148,71Z" style="fill:#f39b17;"/>
        </g>
        <g transform="matrix(1.12919,0,0,1.12919,43.4832,-30.4006)">
            <path d="M126.148,69.321C126.148,69.045 125.924,68.821 125.648,68.821L118.369,68.821C118.093,68.821 117.869,69.045 117.869,69.321L117.869,83.951C117.869,84.227 118.093,84.451 118.369,84.451L125.648,84.451C125.924,84.451 126.148,84.227 126.148,83.951L126.148,69.321ZM125.148,82.299C124.953,82.964 124.338,83.45 123.611,83.45C122.726,83.45 122.008,82.732 122.008,81.848L122.008,81.848C122.008,82.732 121.291,83.45 120.407,83.45C119.678,83.45 119.063,82.963 118.869,82.297L118.869,83.451C118.869,83.451 125.148,83.451 125.148,83.451L125.148,82.299ZM121.485,71.45L121.485,81.848C121.485,82.443 121.002,82.926 120.407,82.926C119.812,82.926 119.329,82.443 119.329,81.848C119.329,81.848 119.329,71.45 119.329,71.45C119.329,70.855 119.812,70.372 120.407,70.372C121.002,70.372 121.485,70.855 121.485,71.45ZM124.689,71.451L124.689,81.848C124.689,82.443 124.206,82.926 123.611,82.926C123.015,82.926 122.532,82.443 122.532,81.848C122.532,81.848 122.532,71.451 122.532,71.451C122.532,70.856 123.015,70.372 123.611,70.372C124.206,70.372 124.689,70.856 124.689,71.451ZM125.148,71L125.148,69.821L118.869,69.821L118.869,71.002C119.063,70.336 119.678,69.849 120.407,69.849C121.291,69.849 122.008,70.566 122.008,71.45L122.008,71.451C122.008,70.566 122.726,69.849 123.611,69.849C124.338,69.849 124.953,70.335 125.148,71Z" style="fill:#f39b17;"/>
        </g>
        <g transform="matrix(1.12919,0,0,1.12919,-19.9888,-30.4006)">
            <path d="M166.668,38.565L133.456,38.565L133.456,48.858L166.668,48.858L166.668,38.565ZM166.144,39.089L166.144,48.334C166.144,48.334 133.98,48.334 133.98,48.334C133.98,48.334 133.98,39.089 133.98,39.089L166.144,39.089Z" style="fill:#f39b17;"/>
        </g>
        <g transform="matrix(1.12919,0,0,1.12919,-19.9888,-30.4006)">
            <path d="M133.456,39.251C133.966,38.823 134.624,38.565 135.342,38.565C136.931,38.565 138.226,39.831 138.274,41.408C138.323,39.831 139.618,38.565 141.207,38.565C142.827,38.565 144.141,39.88 144.141,41.499C144.141,39.88 145.456,38.565 147.076,38.565C148.695,38.565 150.01,39.88 150.01,41.499C150.01,39.88 151.324,38.565 152.944,38.565C154.563,38.565 155.878,39.88 155.878,41.499C155.878,39.88 157.193,38.565 158.812,38.565C160.432,38.565 161.746,39.88 161.746,41.499C161.746,39.88 163.061,38.565 164.681,38.565C165.447,38.565 166.145,38.859 166.668,39.341L166.668,40.135C166.233,39.503 165.505,39.089 164.681,39.089C163.35,39.089 162.27,40.169 162.27,41.499L162.27,48.858L161.223,48.858L161.223,41.499C161.223,40.169 160.143,39.089 158.812,39.089C157.482,39.089 156.402,40.169 156.402,41.499L156.402,48.858L155.354,48.858L155.354,41.499C155.354,40.169 154.274,39.089 152.944,39.089C151.614,39.089 150.534,40.169 150.534,41.499L150.534,48.858L149.486,48.858L149.486,41.499C149.486,40.169 148.406,39.089 147.076,39.089C145.745,39.089 144.665,40.169 144.665,41.499L144.665,48.858L143.618,48.858L143.618,41.499C143.618,40.169 142.538,39.089 141.207,39.089C139.877,39.089 138.797,40.169 138.797,41.499L138.797,48.858L137.752,48.858L137.752,41.499C137.752,40.169 136.672,39.089 135.342,39.089C134.579,39.089 133.898,39.444 133.456,39.998L133.456,39.251Z" style="fill:#f39b17;"/>
        </g>
        <g transform="matrix(1.12919,0,0,1.12919,-21.1674,-30.4006)">
            <path d="M116.432,56.079L116.432,63.567L118.005,63.567L118.005,56.079L118.83,54.952C118.985,54.741 118.985,54.4 118.83,54.189L117.498,52.37C117.344,52.159 117.093,52.159 116.939,52.37L115.607,54.189C115.452,54.4 115.452,54.741 115.607,54.952L116.432,56.079ZM124.029,56.079L124.029,63.567L125.601,63.567L125.601,56.079L126.427,54.952C126.581,54.741 126.581,54.4 126.427,54.189L125.095,52.37C124.94,52.159 124.69,52.159 124.535,52.37L123.203,54.189C123.049,54.4 123.049,54.741 123.203,54.952L124.029,56.079ZM132.05,56.079L132.05,63.567L133.623,63.567L133.623,56.079L134.448,54.952C134.603,54.741 134.603,54.4 134.448,54.189L133.116,52.37C132.962,52.159 132.711,52.159 132.557,52.37L131.224,54.189C131.07,54.4 131.07,54.741 131.224,54.952L132.05,56.079ZM149.213,56.079L149.213,63.567L150.785,63.567L150.785,56.079L151.611,54.952C151.765,54.741 151.765,54.4 151.611,54.189L150.279,52.37C150.124,52.159 149.874,52.159 149.719,52.37L148.387,54.189C148.233,54.4 148.233,54.741 148.387,54.952L149.213,56.079ZM166.726,56.079L166.726,63.567L168.299,63.567L168.299,56.079L169.125,54.952C169.279,54.741 169.279,54.4 169.125,54.189L167.792,52.37C167.638,52.159 167.387,52.159 167.233,52.37L165.901,54.189C165.746,54.4 165.746,54.741 165.901,54.952L166.726,56.079ZM157.679,56.079L157.679,63.567L159.251,63.567L159.251,56.079L160.077,54.952C160.232,54.741 160.232,54.4 160.077,54.189L158.745,52.37C158.59,52.159 158.34,52.159 158.186,52.37L156.853,54.189C156.699,54.4 156.699,54.741 156.853,54.952L157.679,56.079ZM175.193,56.079L175.193,63.567L176.765,63.567L176.765,56.079L177.591,54.952C177.745,54.741 177.745,54.4 177.591,54.189L176.259,52.37C176.104,52.159 175.854,52.159 175.699,52.37L174.367,54.189C174.213,54.4 174.213,54.741 174.367,54.952L175.193,56.079ZM140.443,56.079L140.443,63.567L142.016,63.567L142.016,56.079L142.842,54.952C142.996,54.741 142.996,54.4 142.842,54.189L141.509,52.37C141.355,52.159 141.105,52.159 140.95,52.37L139.618,54.189C139.463,54.4 139.463,54.741 139.618,54.952L140.443,56.079ZM183.039,56.079L183.039,63.567L184.611,63.567L184.611,56.079L185.437,54.952C185.592,54.741 185.592,54.4 185.437,54.189L184.105,52.37C183.95,52.159 183.7,52.159 183.546,52.37L182.213,54.189C182.059,54.4 182.059,54.741 182.213,54.952L183.039,56.079Z" style="fill:#f6c376;"/>
        </g>
        <g transform="matrix(13,0,0,1.63596,-1169.18,-79.3451)">
            <path d="M105.533,140.951C105.533,140.638 105.501,140.383 105.461,140.383L97.531,140.383C97.491,140.383 97.459,140.638 97.459,140.951L97.459,142.087C97.459,142.401 97.491,142.655 97.531,142.655L105.461,142.655C105.501,142.655 105.533,142.401 105.533,142.087L105.533,140.951Z" style="fill:#eca233;"/>
        </g>
        <g transform="matrix(13,0,0,1.63596,-1169.18,-163.688)">
            <path d="M105.533,140.951C105.533,140.638 105.501,140.383 105.461,140.383L97.531,140.383C97.491,140.383 97.459,140.638 97.459,140.951L97.459,142.087C97.459,142.401 97.491,142.655 97.531,142.655L105.461,142.655C105.501,142.655 105.533,142.401 105.533,142.087L105.533,140.951Z" style="fill:#eca233;"/>
        </g>
        <g transform="matrix(10.1122,0,0,0.770837,-876.963,-67.7089)">
            <path d="M105.533,140.951C105.533,140.638 105.513,140.383 105.489,140.383L97.503,140.383C97.479,140.383 97.459,140.638 97.459,140.951L97.459,142.087C97.459,142.401 97.479,142.655 97.503,142.655L105.489,142.655C105.513,142.655 105.533,142.401 105.533,142.087L105.533,140.951Z" style="fill:#eca233;"/>
        </g>
        <g transform="matrix(5.571,0,0,0.770837,-416.046,-101.685)">
            <path d="M105.533,140.951C105.533,140.638 105.498,140.383 105.454,140.383L97.538,140.383C97.495,140.383 97.459,140.638 97.459,140.951L97.459,142.087C97.459,142.401 97.495,142.655 97.538,142.655L105.454,142.655C105.498,142.655 105.533,142.401 105.533,142.087L105.533,140.951Z" style="fill:#eca233;"/>
        </g>
    </g>
    <g>
        <circle cx="54.57" cy="69.95" r="10.8" style="fill:#fff;"/>
        <circle cx="92.22" cy="33.94" r="5.89" style="fill:#fff;"/>
        <g transform="matrix(0.484429,0,0,0.484429,96.2561,49.7495)">
            <circle cx="150.54" cy="80.64" r="17.34" style="fill:#fff;"/>
        </g>
        <g transform="matrix(0.380871,0,0,0.380871,128.007,110.974)">
            <circle cx="150.54" cy="80.64" r="17.34" style="fill:#fff;"/>
        </g>
        <g transform="matrix(0.380871,0,0,0.380871,181.569,72.6656)">
            <circle cx="150.54" cy="80.64" r="17.34" style="fill:#fff;"/>
        </g>
        <g transform="matrix(0.248316,0,0,0.248316,162.654,89.9591)">
            <circle cx="150.54" cy="80.64" r="17.34" style="fill:#fff;"/>
        </g>
        <g transform="matrix(0.248316,0,0,0.248316,173.891,60.9469)">
            <circle cx="150.54" cy="80.64" r="17.34" style="fill:#fff;"/>
        </g>
        <g transform="matrix(0.157,0,0,0.157,155.819,49.0543)">
            <circle cx="150.54" cy="80.64" r="17.34" style="fill:#fff;"/>
        </g>
        <g transform="matrix(0.157,0,0,0.157,113.813,118.684)">
            <circle cx="150.54" cy="80.64" r="17.34" style="fill:#fff;"/>
        </g>
        <circle cx="108.07" cy="116.13" r="5.89" style="fill:#fff;"/>
        <circle cx="203" cy="32.42" r="4.36" style="fill:#fff;"/>
        <circle cx="256.26" cy="56.92" r="10.75" style="fill:#fff;"/>
        <circle cx="267.68" cy="95.51" r="2.47" style="fill:#fff;"/>
        <circle cx="153.73" cy="156.31" r="3.73" style="fill:#fff;"/>
        <circle cx="79.48" cy="165.9" r="7.64" style="fill:#fff;"/>
        <circle cx="103.2" cy="75.04" r="5.09" style="fill:#fff;"/>
        <circle cx="155.89" cy="29.18" r="5.89" style="fill:#fff;"/>
        <circle cx="251.88" cy="155.75" r="7.03" style="fill:#fff;"/>
        <circle cx="215.42" cy="146.44" r="4.1" style="fill:#fff;"/>
        <circle cx="186.47" cy="201.32" r="7.76" style="fill:#fff;"/>
        <circle cx="276.33" cy="197.44" r="3.88" style="fill:#fff;"/>
        <circle cx="53.96" cy="115.22" r="6.11" style="fill:#fff;"/>
        <circle cx="37.43" cy="160.96" r="6.34" style="fill:#fff;"/>
        <circle cx="88.54" cy="130.11" r="2.21" style="fill:#fff;"/>
        <circle cx="117.97" cy="161.14" r="2.88" style="fill:#fff;"/>
        <circle cx="62.45" cy="188.47" r="1.47" style="fill:#fff;"/>
        <circle cx="20.56" cy="106.73" r="3.74" style="fill:#fff;"/>
        <circle cx="39.13" cy="27.49" r="1.7" style="fill:#fff;"/>
        <circle cx="280.52" cy="130.8" r="1.99" style="fill:#fff;"/>
        <circle cx="209.91" cy="54.37" r="2.55" style="fill:#fff;"/>
        <circle cx="241.8" cy="26.16" r="6.26" style="fill:#fff;"/>
        <circle cx="105.24" cy="200.47" r="5.77" style="fill:#fff;"/>
        <circle cx="55.09" cy="238.84" r="4.98" style="fill:#fff;"/>
        <circle cx="136.37" cy="229.28" r="6.79" style="fill:#fff;"/>
        <circle cx="114.92" cy="249.76" r="5.94" style="fill:#fff;"/>
        <circle cx="138.67" cy="197.44" r="3.88" style="fill:#fff;"/>
        <circle cx="32.79" cy="203.49" r="4.64" style="fill:#fff;"/>
    </g>
    <defs>
        <linearGradient id="_Linear1" x1="0" y1="0" x2="1" y2="0" gradientUnits="userSpaceOnUse" gradientTransform="matrix(-0.46,406.41,-406.41,-0.46,150.28,-102.84)"><stop offset="0" style="stop-color:#c7e9f6;stop-opacity:0.8"/><stop offset="0.3" style="stop-color:#c7e9f6;stop-opacity:0.8"/><stop offset="0.96" style="stop-color:#10afd1;stop-opacity:0.8"/><stop offset="1" style="stop-color:#10afd1;stop-opacity:0.8"/></linearGradient>
    </defs>
</svg>
