<?xml version="1.0" encoding="UTF-8"?>
<svg id="Layer_1" data-name="Layer 1" xmlns="http://www.w3.org/2000/svg" xmlns:xlink="http://www.w3.org/1999/xlink" viewBox="0 0 300 345">
  <defs>
    <style>
      .cls-1 {
        fill: #f06;
      }

      .cls-2 {
        fill: #e07095;
      }

      .cls-3 {
        fill: url(#linear-gradient-2);
      }

      .cls-4 {
        fill: #fff;
      }

      .cls-5 {
        fill: #af261c;
      }

      .cls-6 {
        fill: #ce322e;
      }

      .cls-7 {
        fill: #e85b5b;
      }

      .cls-8 {
        stroke: #742b1f;
        stroke-miterlimit: 10;
        stroke-width: 4.94px;
      }

      .cls-8, .cls-9 {
        fill: none;
        stroke-linecap: round;
      }

      .cls-10 {
        fill: url(#linear-gradient-5);
      }

      .cls-9 {
        stroke: #e07095;
        stroke-linejoin: round;
        stroke-width: 6px;
      }

      .cls-11 {
        fill: url(#linear-gradient-3);
      }

      .cls-12 {
        fill: url(#linear-gradient);
      }

      .cls-13 {
        fill: url(#linear-gradient-4);
      }
    </style>
    <linearGradient id="linear-gradient" x1="150" y1="570.10999" x2="150" y2="375.16001" gradientTransform="translate(0 -214)" gradientUnits="userSpaceOnUse">
      <stop offset="0" stop-color="#342f77"/>
      <stop offset=".06" stop-color="#2c2867"/>
      <stop offset=".25" stop-color="#141239"/>
      <stop offset=".4" stop-color="#05051d"/>
      <stop offset=".48" stop-color="#000012"/>
    </linearGradient>
    <linearGradient id="linear-gradient-2" x1="94.44337" y1="35.66824" x2="268.72957" y2="470.58433" gradientTransform="translate(0 346) scale(1 -1)" gradientUnits="userSpaceOnUse">
      <stop offset="0" stop-color="#19184d"/>
      <stop offset="1" stop-color="#ff72aa"/>
    </linearGradient>
    <linearGradient id="linear-gradient-3" x1="181.78612" y1="84.54546" x2="181.78612" y2="276.89443" gradientTransform="translate(-59.42612 389.66287) rotate(6.85335) scale(1 -1)" gradientUnits="userSpaceOnUse">
      <stop offset=".19" stop-color="#af261c"/>
      <stop offset=".73036" stop-color="#871816"/>
    </linearGradient>
    <linearGradient id="linear-gradient-4" x1="234.88248" y1="349.84413" x2="138.48755" y2="181.00328" gradientTransform="translate(-59.42612 389.66287) rotate(6.85335) scale(1 -1)" gradientUnits="userSpaceOnUse">
      <stop offset=".19" stop-color="#db302c"/>
      <stop offset=".73036" stop-color="#c12525"/>
    </linearGradient>
    <linearGradient id="linear-gradient-5" x1="158.08006" y1="200.8756" x2="137.16583" y2="112.43825" gradientTransform="translate(0 346) scale(1 -1)" gradientUnits="userSpaceOnUse">
      <stop offset="0" stop-color="#ffc4d5"/>
      <stop offset=".14164" stop-color="#ffc0d2"/>
      <stop offset="1" stop-color="#ffa7c1"/>
    </linearGradient>
  </defs>
  <path class="cls-12" d="M263.62,345H36.38C16.28788,345,0,328.71213,0,308.62h0v-49.47998H300v49.48001c0,20.0921-16.2879,36.37997-36.38,36.37997Z"/>
  <rect class="cls-3" y="45" width="300" height="253.39001" rx="36.38" ry="36.38"/>
  <rect class="cls-2" x="139.55465" y="54.35603" width="25.24" height="213.7" transform="translate(-26.07662 293.00509) rotate(-83.13)"/>
  <path class="cls-11" d="M244.27663,155.18956c-11.75877-34.22475-48.42216-48.46324-78.373-30.27667-3.96733,2.409-7.55322,5.44611-11.49243,8.32127-.24794-.1825-.47862-.38736-.68913-.612-.49014-.67972-.94048-1.388-1.42789-2.06985-10.85658-15.18647-25.209-23.85708-44.26849-23.8394-25.55677,.0236-49.46135,20.69141-54.07282,46.74463-4.11382,23.24229,1.37194,44.78261,13.70607,64.58583,16.241,26.0761,39.54182,44.35876,66.26401,58.6438,1.55464,.83099,3.97873,.71747,5.80151,.26001,20.1277-5.05038,39.19966-12.70535,56.7229-23.91245,20.13736-12.87889,36.44064-29.18373,45.31441-51.91873,5.86392-15.02419,7.90192-30.24664,2.51486-45.92644Z"/>
  <path class="cls-13" d="M156.01485,119.94091c3.63347-2.652,6.94099-5.45341,10.60037-7.67542,27.6264-16.77507,61.44424-3.64164,72.29027,27.92682,4.96899,14.46286,3.08922,28.50385-2.31967,42.36192-8.185,20.97055-23.22299,36.00987-41.79739,47.88924-16.16324,10.3373-33.75494,17.39815-52.32039,22.05658-1.76031,.52127-3.64464,.43681-5.35126-.23988-24.64821-13.17628-46.14068-30.04001-61.12122-54.09232-11.37677-18.26617-16.43683-38.13474-12.64221-59.5731,4.25353-24.03117,26.30286-43.09488,49.876-43.1167,17.58031-.01627,30.81887,7.98139,40.83276,21.9892,.44957,.62888,.86501,1.28225,1.31709,1.9092,.19417,.20721,.40694,.39616,.63565,.56447Z"/>
  <path class="cls-5" d="M246,137.75c-8.40997-24.48999-29.56-40.32001-53.85999-40.32001-10.39001,.06-20.57001,2.97003-29.42004,8.41998-1.87,1.14001-3.62,2.38-5.31,3.63-11.54999-14.27997-26.42999-21.51001-44.17999-21.51001-27.22998,.03003-52.38,21.69-57.26996,49.32001-3.92004,22.17004,.66998,43.99005,13.66998,64.85004,14.16998,22.75,35.08997,41.31,63.95001,56.73999,1.94,1,4.09998,1.5,6.27997,1.45001,1.5,0,2.98999-.19,4.42999-.54999,20.55005-5.16003,38.39001-12.68005,54.54004-23.01001,22.10999-14.14001,36.73999-30.98004,44.75-51.48999,6.70996-17.19,7.5-32.74005,2.41998-47.53003Zm-9.40997,44.79999c-8.19,20.97003-23.23004,36.01001-41.80005,47.89001-16.15997,10.34003-33.75995,17.40002-52.32001,22.06-.84998,.21002-1.72998,.32001-2.60999,.33002-.94,.02997-1.89001-.16003-2.73999-.57001-24.65002-13.17999-46.14001-30.04004-61.12-54.09003-11.38-18.26996-16.44-38.13995-12.65002-59.57996,4.26001-24.03003,26.31-43.09003,49.88-43.11005h.05005c17.56,0,30.77997,7.98999,40.77997,21.98999,.45001,.63,.87,1.28003,1.32001,1.91003,.19,.20001,.40997,.39001,.63,.56,3.64001-2.65002,6.95001-5.45001,10.60999-7.66998,7.66998-4.75,16.5-7.29004,25.52002-7.34003,20.19,0,39.14001,13.08002,46.76996,35.26001,4.96002,14.46997,3.08002,28.51001-2.31995,42.35999Z"/>
  <path class="cls-7" d="M203.7984,204.51341c-2.35651,1.95351-5.85045,1.62682-7.80396-.72969-1.39241-1.67966-1.66985-4.01996-.70874-5.97862,7.50769-15.35657,16.05208-36.26686,15.2973-50.64986-.56963-10.85493-2.93736-17.40387-7.16699-21.53371-4.21806-4.11858-.13409-11.18368,5.46048-9.32479,7.43684,2.471,14.68956,7.552,19.9281,17.15614,.1051,.19272,.20306,.39622,.28845,.59846,13.00351,30.7939-7.93205,55.9868-25.29465,70.46207Z"/>
  <path class="cls-5" d="M125.89966,229.58846c6.87639,4.17429,14.05717-4.27228,9.33669-10.968-13.51069-19.16418-29.73851-45.62866-32.33054-65.2923-1.95623-14.84029-.52085-24.23926,3.92053-30.7689,4.42927-6.51183-2.60059-15.19-9.36912-11.43831-8.9974,4.98712-17.10948,13.47178-21.4969,27.64443-.088,.28439-.16413,.58182-.22433,.87477-9.16599,44.60695,24.13651,74.14864,50.16367,89.9483Z"/>
  <path class="cls-10" d="M276.81006,182.05l-3,24.71001c-1.26001,10.49001-10.68005,19-25.81006,17.17999l-17.48-2.10001-12.92-1.56-147.13-17.73-11.43-1.38-14.86-1.78999c-15.13-1.83-22.25-12.33-20.99-22.82001l3-24.7c1.18-9.81999,9.02-18.05,22.92-17.42l7.21,.87-.04,.33c-.12006,.55-.22,1.10001-.32,1.64999-.2,1.16-.38,2.32001-.54,3.48-4.18,.5-7.42,2.89999-7.81,6.13l-1.52,12.60001c-.62006,5.03999,2,9.94,6.62994,13.55,2.07509,1.60431,4.37684,2.89166,6.83,3.82001,2.42567,.93294,4.95883,1.55782,7.5401,1.86l163.56982,19.70999c1.09483,.13702,2.19667,.21048,3.3,.22,3.09964,.07262,6.19124-.3459,9.16-1.24001,6.87-2.12,11.84-6.77,12.53992-12.67l1.52-12.59c.45007-3.78999-3.1499-7.37994-8.22-8.42999,.17999-1.74001,.28999-3.47,.31006-5.17999l9.40991,1.14c13.65033,2.68999,19.31024,12.53998,18.13031,22.35999Z"/>
  <path class="cls-9" d="M252.5,233.7l7.39999-.72c8.45023-.8006,15.78229-6.16721,19.10001-13.98l3.28-7.73"/>
  <path class="cls-9" d="M17.58,146.8l3.29-10c2.3188-7.04218,8.89588-11.80059,16.31-11.8h13.25"/>
  <circle class="cls-4" cx="243.77" cy="105.11" r="2.49"/>
  <circle class="cls-4" cx="264.42999" cy="109.24" r="4.13"/>
  <circle class="cls-4" cx="232.35001" cy="77.16" r="4.13"/>
  <circle class="cls-4" cx="23.2" cy="262.29999" r="4.13"/>
  <circle class="cls-4" cx="42.77" cy="116.63" r="1.94"/>
  <circle class="cls-6" cx="221.96001" cy="222.57001" r="4.64"/>
  <circle class="cls-4" cx="250.71001" cy="95.6" r="1.28"/>
  <circle class="cls-4" cx="27.17" cy="100.88" r="1.74"/>
  <circle class="cls-6" cx="249.52" cy="214.96001" r="2.98"/>
  <circle class="cls-4" cx="258.07001" cy="262.29999" r="3.51001"/>
  <circle class="cls-4" cx="264.66" cy="251.05" r="1.72"/>
  <circle class="cls-4" cx="280.53" cy="238.89" r="1.72"/>
  <circle class="cls-6" cx="284.97" cy="166.98" r="3.52"/>
  <circle class="cls-4" cx="51.13" cy="100.42" r="1.72"/>
  <circle class="cls-6" cx="266.22" cy="141.88" r="3.41"/>
  <circle class="cls-6" cx="248.14" cy="178.45" r="1.96001"/>
  <circle class="cls-6" cx="55.35" cy="155.21001" r="3.82"/>
  <circle class="cls-6" cx="21.45" cy="177.99001" r="8.4"/>
  <circle class="cls-6" cx="48.97" cy="189.96001" r="2.55"/>
  <rect class="cls-1" x="146.53853" y="67.1811" width="17.81999" height="27.88" rx="1.83" ry="1.83" transform="translate(30.11447 203.74348) rotate(-71.93132)"/>
  <ellipse class="cls-5" cx="132.9776" cy="104.83025" rx="2.63002" ry="4.21003" transform="translate(-7.92705 198.73607) rotate(-71.93123)"/>
  <line class="cls-8" x1="133.44025" y1="103.63536" x2="144.6183" y2="69.37267"/>
  <path class="cls-4" d="M162.45515,76.79556c-1.45329-.28117-2.95309-.20567-4.3708,.22-.87885-1.19112-2.03343-2.15134-3.36478-2.79837-1.93114-.80085-4.14722,.10036-4.97131,2.02168-1.98175,5.9457,4.83926,11.26758,4.83926,11.26758,0,0,8.64999-.16512,10.63177-6.11083,.49356-2.03154-.73866-4.08219-2.76414-4.60006Z"/>
</svg>