<?xml version="1.0" encoding="UTF-8" standalone="no"?>
<!-- Created with Inkscape (http://www.inkscape.org/) -->

<svg
   xmlns:dc="http://purl.org/dc/elements/1.1/"
   xmlns:cc="http://creativecommons.org/ns#"
   xmlns:rdf="http://www.w3.org/1999/02/22-rdf-syntax-ns#"
   xmlns:svg="http://www.w3.org/2000/svg"
   xmlns="http://www.w3.org/2000/svg"
   xmlns:sodipodi="http://sodipodi.sourceforge.net/DTD/sodipodi-0.dtd"
   xmlns:inkscape="http://www.inkscape.org/namespaces/inkscape"
   width="150"
   height="75"
   viewBox="0 0 39.687499 19.843751"
   version="1.1"
   id="svg8"
   inkscape:version="0.92.4 (5da689c313, 2019-01-14)"
   sodipodi:docname="lure4.svg">
  <defs
     id="defs2" />
  <sodipodi:namedview
     id="base"
     pagecolor="#ffffff"
     bordercolor="#666666"
     borderopacity="1.0"
     inkscape:pageopacity="0.0"
     inkscape:pageshadow="2"
     inkscape:zoom="7.919596"
     inkscape:cx="61.041197"
     inkscape:cy="34.170198"
     inkscape:document-units="px"
     inkscape:current-layer="g1089"
     showgrid="false"
     units="px"
     inkscape:window-width="2400"
     inkscape:window-height="1271"
     inkscape:window-x="2391"
     inkscape:window-y="-9"
     inkscape:window-maximized="1"
     inkscape:snap-global="false" />
  <metadata
     id="metadata5">
    <rdf:RDF>
      <cc:Work
         rdf:about="">
        <dc:format>image/svg+xml</dc:format>
        <dc:type
           rdf:resource="http://purl.org/dc/dcmitype/StillImage" />
        <dc:title />
      </cc:Work>
    </rdf:RDF>
  </metadata>
  <g
     inkscape:label="Layer 1"
     inkscape:groupmode="layer"
     id="layer1"
     transform="translate(0,-277.15623)">
    <g
       transform="matrix(0.09699875,0,0,0.09699875,-90.03424,202.64565)"
       id="g1089">
      <g
         transform="matrix(1.2582043,0,0,1.2582043,190.89228,163.6158)"
         id="g1019">
        <path
           inkscape:connector-curvature="0"
           d="m 891.7,518.1 c -3.6,1.2 -8.2,-1.7 -8.2,-1.7 -0.4,3.7 4.9,6.4 6.2,6.9 1.3,0.5 3.9,2.2 3.9,2.2 0.1,-0.7 -0.7,-2 -1.5,-3 8.2,1.5 13.1,4.9 14.8,10 0.9,2.9 0.3,6.2 -2,10.7 -5.4,10.3 -23.1,3.9 -29.6,1.1 1.2,-0.7 3.5,-0.8 3.5,-0.8 -2.8,-2.1 -5.7,-0.6 -6.2,-0.4 -0.1,0 -0.1,0 -0.2,-0.1 l -21.2,-8.7 c 0.3,-3.5 -1.6,-6.9 -5,-8.3 -4.2,-1.7 -8.9,0.3 -10.6,4.4 0,0.1 -0.1,0.2 -0.1,0.2 h -15.4 v 6 h 15.5 c 0.8,1.9 2.3,3.5 4.4,4.4 3.4,1.4 7.2,0.3 9.4,-2.4 l 21.2,8.7 c 0.1,0 0.1,0.1 0.2,0.1 0.1,0.5 1.2,3.6 4.7,4 0,0 -1.6,-1.7 -2,-3 6.7,2.6 23.8,10.4 20.4,21.6 -1.5,4.9 -3.4,7.7 -6.1,9.1 -4.8,2.5 -10.7,1.4 -17.6,-3.2 1.3,-0.2 2.8,-0.5 3.2,-1.1 0,0 -3,-0.6 -4.3,-1.1 -1.3,-0.5 -6.9,-2.3 -9.3,0.6 0,0 5.3,1.1 7,4.5 1.7,3.4 0.8,5.7 6.1,7.7 0,0 -2.5,-3.2 -2.3,-5.5 0,0 0,0 0,-0.1 8.8,5 15.1,3.8 19,1.8 3.6,-1.9 5.6,-5.1 6.9,-8.3 0.4,-1.1 0.8,-2.1 1.1,-3.1 2.4,-7.8 -2.2,-14 -8.1,-18.6 7.4,0.9 15.1,-0.3 18.8,-7.5 0.5,-0.9 1,-1.9 1.4,-3 1.3,-3.2 2.1,-7 0.9,-10.8 -1.3,-4.1 -5,-9.4 -14.8,-12 0,0 0,0 0,-0.1 1.5,-1.7 5.5,-2.3 5.5,-2.3 -5,-2.4 -6,-0.1 -9.6,1.1 z M 841.4,538 c -2.4,-1 -3.6,-3.8 -2.6,-6.2 1,-2.4 3.8,-3.6 6.2,-2.6 2.4,1 3.6,3.8 2.6,6.2 -1,2.4 -3.8,3.6 -6.2,2.6 z"
           id="path997"
           style="fill:#cccccc;fill-opacity:1" />
        <path
           style="fill:#d93a2d"
           inkscape:connector-curvature="0"
           d="m 586,533.8 c 0,21 78.5,49.3 143.6,49.3 65.1,0 92.2,-28.3 92.2,-49.3 0,-21 -27.1,-49.3 -92.2,-49.3 -65.1,0 -143.6,28.3 -143.6,49.3 z m 20.7,0 c 0,3.5 -2.9,6.4 -6.4,6.4 -3.5,0 -6.4,-2.9 -6.4,-6.4 0,-3.5 2.9,-6.4 6.4,-6.4 3.5,0 6.4,2.8 6.4,6.4 z"
           id="path999" />
        <path
           style="fill:#24110e"
           inkscape:connector-curvature="0"
           d="m 629.2,541.3 c -1.6,1.7 -3.3,3.5 -4,5.8 -0.9,3 0,6.1 0.7,9.1 0.6,2.6 0.9,5.2 1.1,7.7 3.7,1.4 7.7,2.8 11.7,4.2 0.9,-10.3 4.6,-20.8 1,-30.4 -0.3,-0.9 -0.8,-1.8 -1.6,-2.3 -1.8,-1 -3.9,0.6 -5.3,2.1 -1.2,1.2 -2.4,2.5 -3.6,3.8 z"
           id="path1001" />
        <path
           style="fill:#24110e"
           inkscape:connector-curvature="0"
           d="m 667.7,505.1 c -0.2,-2.9 -1.5,-8.6 -3.7,-12.6 -3.9,0.9 -7.7,1.9 -11.4,2.9 -1,6.4 1.9,15.3 2.1,19.9 0.1,2.3 0.4,4.6 0.6,6.9 1.2,15.2 14.2,27.6 18.6,29.6 2.7,1.2 5.9,-0.7 6,-3.7 0.2,-2.8 0.3,-5.8 -1.8,-7.5 -5.6,-4.6 -10.1,-20.1 -10.4,-23.9 -0.3,-3.9 0.3,-7.8 0,-11.6 z"
           id="path1003" />
        <path
           style="fill:#24110e"
           inkscape:connector-curvature="0"
           d="m 697.2,486.6 c -0.3,3.9 0.1,7.9 -1,11.6 -1.8,6.1 -6.9,11.3 -7,17.9 0,2 0.6,4.2 2.2,5.4 1.7,1.2 4.1,1.1 5.8,-0.2 1.6,-1.3 6.9,-9.7 8.2,-12.6 1.3,-2.9 2,-6.1 3.2,-9 1,-2.6 2.4,-5 3.3,-7.6 0.7,-2.1 1.2,-4.6 1.4,-7 -5.3,0.3 -10.7,0.9 -16.1,1.5 z"
           id="path1005" />
        <path
           style="fill:#24110e"
           inkscape:connector-curvature="0"
           d="m 730.1,487.3 c -1.4,3.1 -3.1,6.1 -4.3,9.3 -1.3,3.6 -1.9,7.5 -3.1,11.2 -1.7,5.2 -4.7,10.2 -4.7,15.6 0,2.1 0.5,4.4 2.2,5.6 2,1.3 4.8,0.7 6.6,-0.9 1.8,-1.6 2.8,-3.9 3.7,-6.1 2.8,-6.6 5.6,-13.3 6.4,-20.4 0.2,-2.2 0.3,-4.4 1,-6.5 1.1,-3.3 3.6,-6.1 3.9,-9.6 0,-0.2 0,-0.4 0,-0.6 -3.5,-0.2 -7.1,-0.3 -10.8,-0.3 -0.4,1 -0.6,2 -0.9,2.7 z"
           id="path1007" />
        <path
           style="fill:#24110e"
           inkscape:connector-curvature="0"
           d="m 749.3,526.4 c -1.9,0.2 -3.1,2.1 -3.3,4 -0.2,1.8 0.2,3.7 0.4,5.6 0.5,6.4 -3.1,12.4 -4.2,18.7 -1.5,8.1 0.4,19 3.5,27.8 4.6,-0.4 8.9,-0.9 13.1,-1.5 -1.2,-3 -2.9,-5.9 -4.1,-8.9 -2,-5.4 -2.1,-11.5 -0.1,-16.9 0.8,-2.2 1.9,-4.2 2.5,-6.5 1.6,-5.8 -0.3,-11.9 -2.5,-17.4 -1.2,-2.4 -2.8,-5.2 -5.3,-4.9 z"
           id="path1009" />
        <path
           style="fill:#24110e"
           inkscape:connector-curvature="0"
           d="m 769.7,506.3 c 2.7,-3.7 6.7,-7.1 11.3,-6.8 1,0.1 2.1,0.4 2.9,1 2.2,1.6 2.3,4.7 2.3,7.3 0,1 0,2.1 -0.4,3.1 -0.4,1 -1.1,1.9 -1.8,2.8 -3,3.7 -5.4,7.9 -7.3,12.2 -1.1,2.4 -1.9,5 -2.6,7.6 -0.4,1.7 -0.7,3.5 -1.7,4.9 -0.9,1.5 -2.7,2.6 -4.4,2.1 -4.3,-1.2 -3,-10.5 -3.2,-14 -0.4,-7.6 0.3,-14 4.9,-20.2 z"
           id="path1011" />
        <path
           style="fill:#24110e"
           inkscape:connector-curvature="0"
           d="m 793.7,556.1 c 0.5,1.5 1.4,2.8 2.6,3.8 0.3,0.3 0.7,0.5 1.1,0.5 1.6,0.3 2.4,-1.8 2.6,-3.3 0.6,-4.4 0.7,-8.8 0.3,-13.2 -0.2,-2.4 -0.5,-4.7 -1.5,-6.9 -0.7,-1.5 -6.7,-5.3 -11.2,-8 -1.7,-1 -4,0.2 -4,2.2 -0.1,3.1 -0.1,6.8 0.9,8.1 3.7,4.9 7.1,10.9 9.2,16.8 z"
           id="path1013" />
        <circle
           style="fill:#eecbc8"
           cx="645.5"
           cy="520.09998"
           r="13.8"
           id="circle1015" />
        <circle
           style="fill:#922a21"
           cx="645.5"
           cy="520.09998"
           r="7.3000002"
           id="circle1017" />
      </g>
    </g>
  </g>
</svg>
