<?xml version="1.0" encoding="UTF-8" standalone="no"?>
<!-- Created with Inkscape (http://www.inkscape.org/) -->

<svg
   xmlns:dc="http://purl.org/dc/elements/1.1/"
   xmlns:cc="http://creativecommons.org/ns#"
   xmlns:rdf="http://www.w3.org/1999/02/22-rdf-syntax-ns#"
   xmlns:svg="http://www.w3.org/2000/svg"
   xmlns="http://www.w3.org/2000/svg"
   xmlns:sodipodi="http://sodipodi.sourceforge.net/DTD/sodipodi-0.dtd"
   xmlns:inkscape="http://www.inkscape.org/namespaces/inkscape"
   width="150"
   height="75"
   viewBox="0 0 39.687499 19.843751"
   version="1.1"
   id="svg8"
   inkscape:version="0.92.4 (5da689c313, 2019-01-14)"
   sodipodi:docname="lure1.svg">
  <defs
     id="defs2" />
  <sodipodi:namedview
     id="base"
     pagecolor="#ffffff"
     bordercolor="#666666"
     borderopacity="1.0"
     inkscape:pageopacity="0.0"
     inkscape:pageshadow="2"
     inkscape:zoom="3.959798"
     inkscape:cx="124.75865"
     inkscape:cy="38.34891"
     inkscape:document-units="px"
     inkscape:current-layer="layer1"
     showgrid="false"
     units="px"
     inkscape:window-width="2400"
     inkscape:window-height="1271"
     inkscape:window-x="2391"
     inkscape:window-y="-9"
     inkscape:window-maximized="1" />
  <metadata
     id="metadata5">
    <rdf:RDF>
      <cc:Work
         rdf:about="">
        <dc:format>image/svg+xml</dc:format>
        <dc:type
           rdf:resource="http://purl.org/dc/dcmitype/StillImage" />
        <dc:title></dc:title>
      </cc:Work>
    </rdf:RDF>
  </metadata>
  <g
     inkscape:label="Layer 1"
     inkscape:groupmode="layer"
     id="layer1"
     transform="translate(0,-277.15623)">
    <g
       transform="matrix(0.10106275,0,0,0.10106275,-94.90787,244.5556)"
       id="g1113">
      <path
         inkscape:connector-curvature="0"
         d="m 1270.6,381.2 c -5.9,-0.1 -10.8,4.6 -10.9,10.5 -0.1,5.9 4.6,10.8 10.5,10.9 5.9,0.1 10.8,-4.6 10.9,-10.5 0.2,-5.9 -4.5,-10.7 -10.5,-10.9 z m -0.3,17.5 c -3.7,-0.1 -6.7,-3.1 -6.6,-6.8 0.1,-3.7 3.1,-6.7 6.8,-6.6 3.7,0.1 6.7,3.1 6.6,6.8 0,3.7 -3.1,6.7 -6.8,6.6 z"
         id="path1091"
         style="fill:#cccccc;fill-opacity:1" />
      <path
         inkscape:connector-curvature="0"
         d="m 1083.3,413.2 c -5.9,-0.1 -10.8,4.6 -10.9,10.5 -0.1,5.9 4.6,10.8 10.5,10.9 5.9,0.1 10.8,-4.6 10.9,-10.5 0.2,-5.9 -4.5,-10.8 -10.5,-10.9 z m -0.3,17.4 c -3.7,-0.1 -6.7,-3.1 -6.6,-6.8 0.1,-3.7 3.1,-6.7 6.8,-6.6 3.7,0.1 6.7,3.1 6.6,6.8 0,3.7 -3.1,6.7 -6.8,6.6 z"
         id="path1093"
         style="fill:#cccccc;fill-opacity:1" />
      <path
         inkscape:connector-curvature="0"
         d="m 950,376.7 c -5.9,-0.1 -10.8,4.6 -10.9,10.5 -0.1,5.9 4.6,10.8 10.5,10.9 5.9,0.1 10.8,-4.6 10.9,-10.5 0.1,-5.9 -4.6,-10.8 -10.5,-10.9 z m -0.3,17.5 c -3.7,-0.1 -6.7,-3.1 -6.6,-6.8 0.1,-3.7 3.1,-6.7 6.8,-6.6 3.7,0.1 6.7,3.1 6.6,6.8 -0.1,3.7 -3.1,6.7 -6.8,6.6 z"
         id="path1095"
         style="fill:#cccccc;fill-opacity:1" />
      <path
         inkscape:connector-curvature="0"
         d="m 1323.8,419.6 c -3.4,-1.8 -4.5,-7.2 -4.5,-7.2 -3,2.4 -1.2,8.1 -0.7,9.5 0.5,1.3 1.1,4.4 1.1,4.4 0.6,-0.4 0.9,-2 1.1,-3.3 4.6,7.1 5.7,13.1 3.1,17.9 -1.5,2.7 -4.3,4.6 -9.3,6.1 -11.4,3.3 -19.1,-14.1 -21.7,-20.9 1.4,0.4 3.1,2.1 3.1,2.1 -0.4,-3.5 -3.6,-4.7 -4,-4.8 0,-0.1 -0.1,-0.1 -0.1,-0.2 l -8.6,-21.6 c 2.8,-2.2 3.9,-6.1 2.6,-9.5 -1.7,-4.2 -6.5,-6.3 -10.7,-4.6 -4.2,1.7 -6.3,6.5 -4.6,10.7 1.4,3.5 4.9,5.5 8.4,5.2 l 8.6,21.6 c 0,0.1 0,0.1 0.1,0.2 -0.2,0.4 -1.8,3.4 0.4,6.3 0,0 0.1,-2.4 0.8,-3.6 2.8,6.7 9.2,24.8 -1.4,30.1 -4.6,2.3 -8,2.9 -10.9,2 -5.2,-1.7 -8.6,-6.8 -10,-15.1 1,0.8 2.4,1.7 3.1,1.6 0,0 -1.7,-2.6 -2.2,-4 -0.5,-1.4 -3.2,-6.7 -7,-6.4 0,0 2.9,4.7 1.7,8.3 -1.3,3.6 -3.6,4.7 -1.3,9.9 0,0 0.6,-4.1 2.4,-5.6 0,0 0,0 0.1,0 2.6,10 7.9,13.8 12.1,15.2 3.9,1.3 7.7,0.5 11,-0.8 1.1,-0.4 2.1,-0.9 3,-1.4 7.4,-3.8 8.7,-11.5 7.8,-19.1 4.6,6.1 10.8,10.8 18.8,8.5 1,-0.3 2.1,-0.6 3.2,-1.1 3.3,-1.3 6.6,-3.3 8.5,-7 2.1,-3.9 3.3,-10.3 -1.6,-19.3 0,0 0,0 0.1,0 2.3,-0.1 5.5,2.4 5.5,2.4 -2.2,-5.6 -4.5,-4.7 -8,-6.5 z m -50,-22.8 c -1,-2.5 0.2,-5.3 2.7,-6.3 2.5,-1 5.3,0.2 6.3,2.7 1,2.5 -0.2,5.3 -2.7,6.3 -2.6,1 -5.4,-0.2 -6.3,-2.7 z"
         id="path1097"
         style="fill:#cccccc;fill-opacity:1" />
      <path
         inkscape:connector-curvature="0"
         d="m 1077.9,482.4 c 0.2,-3.9 4.7,-7.1 4.7,-7.1 -3.4,-1.7 -7.9,2.3 -8.9,3.3 -1,1 -3.5,2.8 -3.5,2.8 0.6,0.4 2.2,0 3.4,-0.3 -4.5,7.2 -9.5,10.6 -15,10.3 -3.1,-0.2 -6,-2 -9.4,-5.9 -7.8,-8.9 4.9,-23.3 10,-28.5 0.2,1.4 -0.6,3.6 -0.6,3.6 3.1,-1.8 2.7,-5.2 2.7,-5.7 0.1,-0.1 0.1,-0.1 0.1,-0.2 l 16.1,-16.8 c 3.2,1.6 7.1,1.1 9.7,-1.6 3.2,-3.3 3,-8.5 -0.3,-11.7 -3.3,-3.2 -8.5,-3 -11.7,0.3 -2.6,2.7 -3,6.7 -1.2,9.8 l -16.1,16.8 c -0.1,0 -0.1,0.1 -0.2,0.2 -0.5,0 -3.8,-0.2 -5.5,2.9 0,0 2.2,-0.9 3.6,-0.8 -4.9,5.4 -18.7,18.6 -28,11.3 -4,-3.2 -6,-6 -6.3,-9.1 -0.6,-5.4 2.6,-10.6 9.6,-15.4 -0.3,1.3 -0.5,2.9 -0.2,3.5 0,0 1.7,-2.6 2.7,-3.7 1,-1 4.8,-5.7 2.9,-9 0,0 -3,4.6 -6.9,5 -3.8,0.4 -5.7,-1.3 -9.5,3 0,0 3.9,-1.1 6,-0.2 0,0 0,0 0.1,0 -8,6.5 -9.2,12.9 -8.8,17.3 0.4,4.1 2.8,7.2 5.3,9.7 0.8,0.8 1.7,1.5 2.5,2.2 6.5,5.2 14.1,3.1 20.6,-0.8 -3.6,6.7 -5.3,14.4 0.1,20.6 0.7,0.8 1.5,1.6 2.3,2.4 2.5,2.4 5.8,4.6 9.9,4.9 4.4,0.3 10.8,-1.2 16.9,-9.5 0,0 0,0 0,0.1 1.1,2.1 0.1,6.1 0.1,6.1 4.4,-4.1 2.6,-5.9 2.8,-9.8 z m -0.1,-55 c 1.8,-1.9 4.9,-2 6.8,-0.2 1.9,1.8 2,4.9 0.2,6.8 -1.8,1.9 -4.9,2 -6.8,0.2 -2,-1.8 -2,-4.9 -0.2,-6.8 z"
         id="path1099"
         style="fill:#cccccc;fill-opacity:1" />
      <path
         style="fill:#b58223"
         inkscape:connector-curvature="0"
         d="m 1265,383.5 c 0,0 -86.2,-31.1 -126.1,-35.1 -39.9,-4 -96.3,-4.1 -135.9,7.8 -39.5,11.8 -49.2,16.1 -50,23.3 -0.8,7.3 -0.7,11 11.7,16.9 12.3,5.9 44.8,14.5 84.3,18.3 39.5,3.7 85,1.8 107.1,-2.4 41.5,-7.8 107.6,-9.6 108.8,-13.7 1.2,-4.1 2.5,-9.9 0.1,-15.1 z"
         id="path1101" />
      <path
         style="fill:#eccd65"
         inkscape:connector-curvature="0"
         d="m 1265,398.5 c 0.3,-1.1 0.6,-2.3 0.9,-3.5 -19.5,-4.7 -92.2,0.4 -113.3,4 -22.3,3.8 -156.1,4.7 -183.2,-5.2 -9.5,-3.5 -14.2,-6.8 -16.6,-9.5 0.3,4.3 2.7,7.5 11.9,11.9 12.3,5.9 44.8,14.5 84.3,18.3 39.5,3.7 85,1.8 107.1,-2.4 41.6,-7.6 107.7,-9.5 108.9,-13.6 z"
         id="path1103" />
      <circle
         style="fill:#dd9e29"
         cx="981"
         cy="378.89999"
         r="11.8"
         id="circle1105" />
      <circle
         style="fill:#553f13"
         cx="981"
         cy="378.89999"
         r="7"
         id="circle1107" />
      <path
         style="fill:#9d711f"
         inkscape:connector-curvature="0"
         d="m 965.6,368.6 c 12.3,-2.2 43.9,-7.6 51.4,-7.9 9.3,-0.3 123.4,-4.7 187.6,11.2 35.5,8.8 52.8,12.2 61.2,13.4 -0.2,-0.6 -0.4,-1.2 -0.7,-1.8 0,0 -86.2,-31.1 -126.1,-35.1 -39.9,-4 -96.3,-4.1 -135.9,7.8 -18.1,5.3 -29.9,9.2 -37.5,12.4 z"
         id="path1109" />
      <path
         style="fill:#755518"
         inkscape:connector-curvature="0"
         d="m 1019.6,408.4 c -0.8,0.7 -1.5,1.4 -2.3,2 1.2,0.2 2.3,0.4 3.5,0.6 9.3,-8.3 18.2,-25.7 16.2,-61.8 -0.9,0.1 -1.8,0.2 -2.7,0.4 1.9,35 -6.8,51.3 -14.7,58.8 z"
         id="path1111" />
    </g>
  </g>
</svg>
