<?xml version="1.0" encoding="UTF-8" standalone="no"?>
<!-- Created with Inkscape (http://www.inkscape.org/) -->

<svg
   xmlns:dc="http://purl.org/dc/elements/1.1/"
   xmlns:cc="http://creativecommons.org/ns#"
   xmlns:rdf="http://www.w3.org/1999/02/22-rdf-syntax-ns#"
   xmlns:svg="http://www.w3.org/2000/svg"
   xmlns="http://www.w3.org/2000/svg"
   xmlns:sodipodi="http://sodipodi.sourceforge.net/DTD/sodipodi-0.dtd"
   xmlns:inkscape="http://www.inkscape.org/namespaces/inkscape"
   width="150"
   height="75"
   viewBox="0 0 39.687499 19.843751"
   version="1.1"
   id="svg8"
   inkscape:version="0.92.4 (5da689c313, 2019-01-14)"
   sodipodi:docname="lure3.svg">
  <defs
     id="defs2" />
  <sodipodi:namedview
     id="base"
     pagecolor="#ffffff"
     bordercolor="#666666"
     borderopacity="1.0"
     inkscape:pageopacity="0.0"
     inkscape:pageshadow="2"
     inkscape:zoom="7.9195959"
     inkscape:cx="45.86668"
     inkscape:cy="41.107242"
     inkscape:document-units="px"
     inkscape:current-layer="g1089"
     showgrid="false"
     units="px"
     inkscape:window-width="2400"
     inkscape:window-height="1271"
     inkscape:window-x="2391"
     inkscape:window-y="-9"
     inkscape:window-maximized="1"
     inkscape:snap-global="false" />
  <metadata
     id="metadata5">
    <rdf:RDF>
      <cc:Work
         rdf:about="">
        <dc:format>image/svg+xml</dc:format>
        <dc:type
           rdf:resource="http://purl.org/dc/dcmitype/StillImage" />
        <dc:title />
      </cc:Work>
    </rdf:RDF>
  </metadata>
  <g
     inkscape:label="Layer 1"
     inkscape:groupmode="layer"
     id="layer1"
     transform="translate(0,-277.15623)">
    <g
       transform="matrix(0.09699875,0,0,0.09699875,-90.03424,202.64565)"
       id="g1089">
      <g
         id="g1017"
         transform="matrix(1.0267088,0,0,1.0267088,-24.7911,-30.481545)">
        <path
           style="fill:#cccccc;fill-opacity:1"
           id="path1021"
           d="m 934.7,832.9 c -3.6,0 -6.5,2.9 -6.5,6.5 0,3.6 2.9,6.5 6.5,6.5 3.6,0 6.5,-2.9 6.5,-6.5 0,-3.6 -2.8,-6.5 -6.5,-6.5 z m 0,10.6 c -2.3,0 -4.1,-1.8 -4.1,-4.1 0,-2.3 1.8,-4.1 4.1,-4.1 2.3,0 4.1,1.8 4.1,4.1 0,2.3 -1.8,4.1 -4.1,4.1 z"
           inkscape:connector-curvature="0" />
        <path
           style="fill:#cccccc;fill-opacity:1"
           id="path1023"
           d="m 1287.3,856.6 c -3.6,0 -6.5,2.9 -6.5,6.5 0,3.6 2.9,6.5 6.5,6.5 3.6,0 6.5,-2.9 6.5,-6.5 0,-3.6 -2.9,-6.5 -6.5,-6.5 z m 0,10.7 c -2.3,0 -4.1,-1.8 -4.1,-4.1 0,-2.3 1.8,-4.1 4.1,-4.1 2.3,0 4.1,1.8 4.1,4.1 0,2.2 -1.8,4.1 -4.1,4.1 z"
           inkscape:connector-curvature="0" />
        <path
           style="fill:#cccccc;fill-opacity:1"
           id="path1025"
           d="m 1064,869.3 c -3.6,0 -6.5,2.9 -6.5,6.5 0,3.6 2.9,6.5 6.5,6.5 3.6,0 6.5,-2.9 6.5,-6.5 0,-3.6 -2.9,-6.5 -6.5,-6.5 z m 0,10.6 c -2.3,0 -4.1,-1.8 -4.1,-4.1 0,-2.3 1.8,-4.1 4.1,-4.1 2.3,0 4.1,1.8 4.1,4.1 0,2.3 -1.8,4.1 -4.1,4.1 z"
           inkscape:connector-curvature="0" />
        <path
           style="fill:#cccccc;fill-opacity:1"
           id="path1027"
           d="m 1096.9,896.4 c -2.3,-1.2 -3,-4.8 -3,-4.8 -2,1.6 -0.8,5.4 -0.5,6.3 0.4,0.9 0.7,2.9 0.7,2.9 0.4,-0.3 0.6,-1.3 0.8,-2.2 3.1,4.7 3.8,8.7 2.1,11.9 -1,1.8 -2.9,3.1 -6.2,4 -7.5,2.2 -12.7,-9.4 -14.4,-13.9 0.9,0.2 2,1.4 2,1.4 -0.3,-2.4 -2.4,-3.1 -2.7,-3.2 0,0 0,-0.1 -0.1,-0.1 l -5.7,-14.3 c 1.9,-1.5 2.6,-4 1.7,-6.3 -1.1,-2.8 -4.3,-4.2 -7.1,-3.1 -2.8,1.1 -4.2,4.3 -3.1,7.1 0.9,2.3 3.2,3.6 5.6,3.4 l 5.7,14.3 c 0,0 0,0.1 0,0.1 -0.2,0.3 -1.2,2.3 0.2,4.1 0,0 0.1,-1.6 0.5,-2.4 1.9,4.5 6.1,16.4 -0.9,20 -3.1,1.6 -5.3,2 -7.3,1.3 -3.4,-1.1 -5.7,-4.5 -6.6,-10 0.7,0.5 1.6,1.1 2,1 0,0 -1.1,-1.7 -1.5,-2.6 -0.4,-0.9 -2.1,-4.5 -4.6,-4.2 0,0 2,3.1 1.1,5.5 -0.8,2.4 -2.4,3.1 -0.8,6.6 0,0 0.4,-2.7 1.6,-3.7 0,0 0,0 0,0 1.7,6.6 5.2,9.1 8,10.1 2.6,0.9 5.1,0.3 7.3,-0.5 0.7,-0.3 1.4,-0.6 2,-0.9 4.9,-2.5 5.8,-7.6 5.2,-12.6 3,4 7.2,7.2 12.5,5.6 0.7,-0.2 1.4,-0.4 2.1,-0.7 2.2,-0.9 4.4,-2.2 5.7,-4.6 1.4,-2.6 2.2,-6.8 -1.1,-12.8 0,0 0,0 0,0 1.5,-0.1 3.7,1.6 3.7,1.6 -1.1,-3.7 -2.6,-3.1 -4.9,-4.3 z m -33.2,-15.1 c -0.7,-1.6 0.1,-3.5 1.8,-4.2 1.7,-0.7 3.5,0.1 4.2,1.8 0.7,1.6 -0.1,3.5 -1.8,4.2 -1.7,0.7 -3.6,-0.2 -4.2,-1.8 z"
           inkscape:connector-curvature="0" />
        <path
           style="fill:#cccccc;fill-opacity:1"
           id="path1029"
           d="m 1321.6679,883.95455 c -2.2555,-1.18032 -2.9488,-4.73548 -2.9488,-4.73548 -2.0217,1.57569 -0.8272,5.39311 -0.4629,6.22218 0.3642,0.82908 0.705,2.92284 0.705,2.92284 0.3519,-0.2149 0.6255,-1.34861 0.7987,-2.1359 3.0442,4.70561 3.7616,8.67236 2.0268,11.83474 -1.0134,1.78409 -2.9039,3.10916 -6.1787,4.0291 -7.5037,2.13855 -12.6982,-9.43848 -14.3225,-13.95971 0.9128,0.23828 1.999,1.36534 1.999,1.36534 -0.2098,-2.34437 -2.3458,-3.14294 -2.6619,-3.14875 -0.03,-0.0955 -0.03,-0.0955 -0.03,-0.0955 l -5.649,-14.36872 c 1.8607,-1.42051 2.6352,-3.96808 1.6978,-6.29426 -1.0868,-2.80336 -4.255,-4.22192 -7.1538,-3.10526 -2.8034,1.08679 -4.222,4.25502 -3.1053,7.15383 0.9374,2.32618 3.2228,3.60194 5.597,3.48766 l 5.6489,14.36873 c 0,0 0.03,0.0955 0.06,0.19084 -0.131,0.25062 -1.1802,2.25543 0.2403,4.11613 0,0 0.029,-1.58088 0.5181,-2.36254 1.8152,4.46147 5.9898,16.46248 -0.9706,20.0027 -3.0657,1.588 -5.2549,1.95868 -7.2655,1.22572 -3.3948,-1.1381 -5.6094,-4.53162 -6.6137,-10.08511 0.6862,0.51874 1.6231,1.16861 2.0048,1.04915 0,0 -1.0745,-1.7594 -1.4387,-2.58848 -0.3642,-0.82907 -2.1314,-4.46732 -4.6011,-4.32321 0,0 1.9042,3.07149 1.0999,5.52364 -0.8343,2.35669 -2.3971,3.05523 -0.8805,6.56237 0,0 0.4286,-2.64883 1.5852,-3.63966 0,0 0,0 0,0 1.6491,6.60917 5.1757,9.17295 7.9739,10.07866 2.5774,0.86995 5.1484,0.37981 7.2836,-0.49797 0.7337,-0.33432 1.3718,-0.63884 2.0101,-0.94332 4.8847,-2.4716 5.8015,-7.5784 5.2631,-12.64869 3.0559,4.07328 7.1733,7.18567 12.4522,5.63858 0.668,-0.20908 1.4315,-0.448 2.0996,-0.65703 2.1353,-0.87775 4.342,-2.19696 5.6833,-4.60754 1.4069,-2.53589 2.2762,-6.78964 -1.0608,-12.76579 0,0 0,0 0,0 1.551,-0.0662 3.6396,1.58545 3.6396,1.58545 -1.2602,-3.69219 -2.7872,-3.21437 -5.0425,-4.39465 z m -33.1502,-15.19328 c -0.633,-1.68803 0.1598,-3.50777 1.8477,-4.14078 1.688,-0.63298 3.5078,0.15972 4.1408,1.84771 0.6329,1.68798 -0.1598,3.50777 -1.8477,4.14077 -1.7179,0.53755 -3.5377,-0.25516 -4.1408,-1.8477 z"
           inkscape:connector-curvature="0" />
        <path
           id="path1031"
           d="m 1280.3,868 c 6.6,-0.7 8.7,-9.6 2.9,-13 -1.2,-0.7 -2.6,-1.3 -4.3,-1.8 -13.8,-3.9 -142.5,-39.9 -203.2,-38.3 -60.8,1.6 -131.9,16.4 -136.9,23.3 -5,6.8 23.7,22.9 35.8,25.7 12.1,2.8 119.2,8.7 138.6,7.5 18.5,-1.1 115.7,2.4 167.1,-3.4 z"
           inkscape:connector-curvature="0"
           style="fill:#ced1b7" />
        <path
           id="path1033"
           d="m 1283.2,855 c -1.2,-0.7 -2.6,-1.3 -4.3,-1.8 -13.8,-3.9 -142.5,-39.9 -203.2,-38.3 -60.8,1.6 -131.9,16.4 -136.9,23.3 -3.4,4.7 9,13.7 21,19.8 15.1,-4.9 49,-11.9 115.3,-9.8 76.6,2.4 161.5,15.1 195.9,20.7 3.3,-0.3 6.4,-0.6 9.4,-0.9 6.5,-0.7 8.6,-9.6 2.8,-13 z"
           inkscape:connector-curvature="0"
           style="fill:#9e9a3b" />
        <circle
           id="circle1035"
           r="8.1000004"
           cy="843.20001"
           cx="963.20001"
           style="fill:#c6c488" />
        <circle
           id="circle1037"
           r="3.8"
           cy="843.20001"
           cx="963.20001"
           style="fill:#444332" />
        <path
           id="path1039"
           d="m 1004.7,866.9 c 7.1,-5.6 14,-13.9 14,-31.7 0,-5.9 -2.6,-10.8 -6,-14.8 -2.6,0.4 -5.2,0.7 -7.8,1.1 4,3.4 7.5,8 7.5,13.6 0,18.9 -8.4,24.7 -16.5,30.3 -0.3,0.2 -0.6,0.5 -1,0.7 3,0.3 6.3,0.5 9.8,0.8 z"
           inkscape:connector-curvature="0"
           style="fill:#888534" />
        <path
           id="path1041"
           d="m 1062.7,841.9 c 0.1,2.4 0.1,4.9 -0.7,7.2 -1.1,3.2 -3.9,6.3 -2.9,9.5 1.7,0.9 3.9,0.1 5.3,-1.3 1.3,-1.4 2,-3.3 2.6,-5.1 1,-3.5 1.8,-7.2 2.1,-10.8 0.3,-3.1 0.3,-11.7 -4.2,-12.4 -4.2,-0.8 -2.2,10.3 -2.2,12.9 z"
           inkscape:connector-curvature="0"
           style="fill:#444332" />
        <path
           id="path1043"
           d="m 1095.2,839.2 c 0.5,1 1.2,1.9 1.7,2.9 0.6,1.2 0.8,2.6 0.7,3.9 -0.3,3.2 -2.5,6 -3,9.2 -0.2,1.1 -0.1,2.3 0.7,3 1.1,1.1 3.1,0.6 4.2,-0.6 1,-1.2 1.3,-2.8 1.5,-4.4 0.4,-2.8 0.9,-5.7 1.3,-8.5 0.2,-1.5 0.5,-3.2 -0.2,-4.6 -0.4,-0.9 -1.2,-1.5 -1.7,-2.4 -0.8,-1.3 -0.8,-2.9 -0.3,-4.2 0.4,-1 1.1,-2 0.8,-3.1 -0.3,-1.2 -1.9,-1.9 -3,-1.7 -1,0.2 -1.6,1.2 -2.1,2.1 -1.6,2.6 -1.9,5.7 -0.6,8.4 z"
           inkscape:connector-curvature="0"
           style="fill:#444332" />
        <path
           id="path1045"
           d="m 1127.5,840.9 c -0.6,1.4 -1,2.9 -1.1,4.5 -0.1,3.1 1.2,6.3 0.6,9.4 -0.4,2.2 -1.7,4.2 -3,6 -0.3,0.4 -0.6,0.8 -1.1,1 -0.8,0.3 -1.6,-0.5 -1.8,-1.3 -0.2,-0.8 0.1,-1.6 0.4,-2.4 0.9,-2.2 2.3,-4.3 2.4,-6.7 0.1,-1.3 -0.2,-2.7 -0.4,-4 -0.3,-2.7 0,-5.4 1,-8 0.7,-1.9 1.9,-3.8 3.9,-4.4 2,-0.6 2.5,0.4 1.5,1.8 -0.9,1.4 -1.8,2.6 -2.4,4.1 z"
           inkscape:connector-curvature="0"
           style="fill:#444332" />
        <path
           id="path1047"
           d="m 1241.2,851 c -0.6,1.3 -1,2.7 -1,4.1 -0.1,2.9 1.1,5.8 0.6,8.7 -0.4,2.1 -1.6,3.9 -2.8,5.6 -0.3,0.4 -0.6,0.8 -1,0.9 -0.7,0.2 -1.5,-0.4 -1.7,-1.2 -0.2,-0.8 0.1,-1.5 0.4,-2.2 0.9,-2 2.1,-4 2.3,-6.2 0.1,-1.2 -0.2,-2.5 -0.3,-3.7 -0.3,-2.5 0,-5 0.9,-7.4 0.7,-1.8 1.8,-3.6 3.6,-4.1 1.8,-0.6 2.3,0.3 1.4,1.7 -0.9,1.2 -1.8,2.4 -2.4,3.8 z"
           inkscape:connector-curvature="0"
           style="fill:#444332" />
        <path
           id="path1049"
           d="m 1151,842 c 0.5,3.2 1.9,6.1 2.4,9.3 0.5,3.6 -0.4,7.5 -2.4,10.5 -0.5,0.7 -1.1,1.4 -1.9,1.5 -1.5,0.1 -2.2,-1.9 -1.7,-3.3 0.5,-1.4 1.7,-2.3 2.5,-3.6 1.2,-2 1.2,-4.6 0.6,-6.9 -0.6,-2.3 -1.6,-4.4 -2.3,-6.7 -0.7,-2.3 -1,-4.8 -0.1,-6.9 0.9,-2.2 3.3,-3.9 5.6,-3.3 0.6,1.3 -1.6,2.8 -2.2,4.2 -0.7,1.6 -0.8,3.5 -0.5,5.2 z"
           inkscape:connector-curvature="0"
           style="fill:#444332" />
        <path
           id="path1051"
           d="m 1213.5,848.5 c 0.5,3.2 1.9,6.1 2.4,9.3 0.5,3.6 -0.4,7.5 -2.4,10.5 -0.5,0.7 -1.1,1.4 -1.9,1.5 -1.5,0.1 -2.2,-1.9 -1.7,-3.3 0.5,-1.4 1.7,-2.3 2.5,-3.6 1.2,-2 1.2,-4.6 0.6,-6.9 -0.6,-2.3 -1.6,-4.4 -2.3,-6.7 -0.7,-2.3 -1,-4.8 -0.1,-6.9 0.9,-2.2 3.3,-3.9 5.6,-3.3 0.6,1.3 -1.6,2.8 -2.2,4.2 -0.7,1.5 -0.8,3.5 -0.5,5.2 z"
           inkscape:connector-curvature="0"
           style="fill:#444332" />
        <path
           id="path1053"
           d="m 1184.4,862.9 c -0.5,1 -1.3,2.1 -2.4,2.2 -1.2,0.1 -2.2,-1.2 -2.3,-2.5 -0.1,-1.2 0.5,-2.4 0.9,-3.6 1.1,-2.7 1.8,-5.5 2.1,-8.3 0.2,-1.8 0.2,-3.7 -0.8,-5.2 -0.3,-0.5 -0.8,-1 -1.2,-1.4 -1.2,-1.5 -2,-3.4 -2.1,-5.3 0,-0.5 0,-1 0.2,-1.4 0.2,-0.4 0.5,-0.6 0.9,-0.8 5,-2.5 6.8,7.4 7.2,10.4 0.9,5.3 0,11 -2.5,15.9 z"
           inkscape:connector-curvature="0"
           style="fill:#444332" />
        <path
           id="path1055"
           d="m 1081.1,830.4 c -0.5,1.6 -0.5,3.3 -0.5,5 0,0.1 0,0.3 0.1,0.4 0.1,0.2 0.3,0.3 0.4,0.3 1,0.4 2.3,-0.3 2.5,-1.4 0.1,-0.5 -0.1,-1.1 0.1,-1.7 0.2,-0.7 0.7,-1.1 1.1,-1.7 0.8,-1 1.2,-2.2 1.2,-3.5 0,-0.1 0,-0.2 -0.1,-0.3 -0.1,-0.1 -0.2,-0.2 -0.4,-0.2 -1.3,-0.5 -1.7,-0.9 -2.9,0.2 -0.6,0.8 -1.2,1.8 -1.5,2.9 z"
           inkscape:connector-curvature="0"
           style="fill:#444332" />
        <path
           id="path1057"
           d="m 1251.9,852.2 c -0.5,1.6 -0.5,3.3 -0.5,5 0,0.1 0,0.3 0.1,0.4 0.1,0.2 0.3,0.3 0.4,0.3 1,0.4 2.3,-0.3 2.5,-1.4 0.1,-0.5 -0.1,-1.1 0.1,-1.7 0.2,-0.7 0.7,-1.1 1.1,-1.7 0.8,-1 1.2,-2.2 1.2,-3.5 0,-0.1 0,-0.2 -0.1,-0.3 -0.1,-0.1 -0.2,-0.2 -0.4,-0.2 -1.3,-0.5 -1.7,-0.9 -2.9,0.2 -0.6,0.9 -1.1,1.9 -1.5,2.9 z"
           inkscape:connector-curvature="0"
           style="fill:#444332" />
        <path
           id="path1059"
           d="m 1110.4,831.7 c -0.9,1.7 -1,3.8 -0.5,5.7 0.1,0.5 0.4,1 0.7,1.3 0.4,0.3 0.9,0.5 1.4,0.3 0.4,-0.2 0.7,-0.6 0.8,-1.1 0.1,-0.5 0.1,-0.9 0.1,-1.4 0,-1.3 0.5,-2.5 1.3,-3.5 0.2,-0.3 0.5,-0.6 0.7,-1 0.2,-0.4 0.1,-0.9 -0.2,-1.1 -0.2,-0.2 -0.5,-0.2 -0.8,-0.3 -1.6,-0.4 -2.7,-0.7 -3.5,1.1 z"
           inkscape:connector-curvature="0"
           style="fill:#444332" />
        <path
           id="path1061"
           d="m 1135.6,841.2 c 0.1,1.3 0.4,2.7 0.9,3.9 0.3,0.6 0.7,1.2 1.3,1.1 0.4,-0.1 0.6,-0.4 0.8,-0.7 0.9,-1.5 0.6,-3.5 1.4,-5 0.4,-0.8 1.2,-1.5 1.1,-2.4 -0.1,-1.5 -2.8,-3.1 -4,-2.3 -1.6,0.9 -1.6,3.7 -1.5,5.4 z"
           inkscape:connector-curvature="0"
           style="fill:#444332" />
        <path
           id="path1063"
           d="m 1223.7,849.5 c 0.1,1.3 0.4,2.7 0.9,3.9 0.3,0.6 0.7,1.2 1.3,1.1 0.4,-0.1 0.6,-0.4 0.8,-0.7 0.9,-1.5 0.6,-3.5 1.4,-5 0.4,-0.8 1.2,-1.5 1.1,-2.4 -0.1,-1.5 -2.8,-3.1 -4,-2.3 -1.6,0.9 -1.6,3.7 -1.5,5.4 z"
           inkscape:connector-curvature="0"
           style="fill:#444332" />
        <path
           id="path1065"
           d="m 1163.6,839.2 c -0.1,2.4 1.6,4.5 1.8,6.9 0.1,0.7 0.2,1.6 0.9,1.6 0.4,0 0.8,-0.4 1,-0.7 0.4,-0.6 0.9,-1.3 1,-2.1 0,-0.3 0,-0.7 0.1,-1 0.1,-0.9 0.7,-1.6 1,-2.4 1,-2.1 0.5,-5.4 -1.5,-6.7 -2.5,-1.8 -4.2,2.4 -4.3,4.4 z"
           inkscape:connector-curvature="0"
           style="fill:#444332" />
        <path
           id="path1067"
           d="m 1194.6,843.7 c 0.3,0.4 0.7,0.8 1,1.2 1.1,1.4 1.2,3.4 1.3,5.2 0,0.4 0.1,0.8 0.3,1.2 0.2,0.3 0.6,0.6 1,0.4 0.3,-0.1 0.4,-0.3 0.6,-0.6 1.9,-3 2.1,-6.9 0.6,-10.1 -2.1,-4.4 -7.1,-1 -4.8,2.7 z"
           inkscape:connector-curvature="0"
           style="fill:#444332" />
        <path
           id="path1069"
           d="m 1080,855 c -0.7,1.3 -0.7,2.9 -0.6,4.3 0,0.3 0,0.7 0.1,1 0.2,0.5 0.5,0.9 0.7,1.4 0.2,0.5 0.3,1.1 0.5,1.6 0.3,0.5 0.8,0.9 1.3,0.7 0.5,-0.2 0.7,-0.7 0.8,-1.2 0.2,-0.7 0.5,-1.4 0.5,-2.1 0.1,-0.6 0,-1.2 0.1,-1.8 0.1,-1.1 0.7,-2.1 1.4,-3 0.2,-0.2 0.3,-0.4 0.4,-0.6 0.7,-1.4 -0.7,-2.8 -2.1,-2.8 -1.1,0 -2.5,1.3 -3.1,2.5 z"
           inkscape:connector-curvature="0"
           style="fill:#444332" />
        <path
           id="path1071"
           d="m 1110.5,859.5 c 0,0.3 0,0.5 0.2,0.8 0.3,0.4 0.9,0.5 1.4,0.3 0.5,-0.2 0.8,-0.6 1.1,-1 0.3,-0.4 0.6,-0.9 0.7,-1.5 0.1,-0.8 0.1,-1.5 0.3,-2.3 0.2,-0.5 0.7,-1.1 0.6,-1.7 -0.2,-0.8 -1.1,-1.1 -1.9,-1.2 -3.6,-0.2 -2.5,4.4 -2.4,6.6 z"
           inkscape:connector-curvature="0"
           style="fill:#444332" />
        <path
           id="path1073"
           d="m 1248,868.1 c 0,0.3 0,0.5 0.2,0.8 0.3,0.4 0.9,0.5 1.4,0.3 0.5,-0.2 0.8,-0.6 1.1,-1 0.3,-0.4 0.6,-0.9 0.7,-1.5 0.1,-0.8 0.1,-1.5 0.3,-2.3 0.2,-0.5 0.7,-1.1 0.6,-1.7 -0.2,-0.8 -1.1,-1.1 -1.9,-1.2 -3.7,-0.2 -2.5,4.3 -2.4,6.6 z"
           inkscape:connector-curvature="0"
           style="fill:#444332" />
        <path
           id="path1075"
           d="m 1136.4,864.5 c -0.3,0.9 -1,1.9 -0.7,2.8 0,0.1 0.1,0.2 0.1,0.2 0.1,0.1 0.2,0 0.3,0 0.7,-0.1 1.3,-0.4 1.9,-0.8 1,-0.5 2,-1.1 2.5,-2 0.4,-0.8 0.5,-1.7 0.4,-2.6 -0.1,-1.4 -1,-6.4 -3.4,-5.5 -2.3,1 -0.6,6.1 -1.1,7.9 z"
           inkscape:connector-curvature="0"
           style="fill:#444332" />
        <path
           id="path1077"
           d="m 1161.9,863.4 c 0.2,1.2 0.3,2.4 0.3,3.6 0,0.1 0,0.2 0.1,0.3 0.1,0 0.1,0 0.2,0.1 0.4,0 0.8,0 1.1,-0.1 0.6,-0.3 0.9,-0.9 1.1,-1.6 0.1,-0.6 0.1,-1.3 0.3,-2 0.5,-1.9 2.8,-4.9 -0.6,-5.3 -3.3,-0.5 -2.9,2.8 -2.5,5 z"
           inkscape:connector-curvature="0"
           style="fill:#444332" />
        <path
           id="path1079"
           d="m 1220.6,864.6 c 0.2,1.2 0.3,2.4 0.3,3.6 0,0.1 0,0.2 0.1,0.3 0.1,0 0.1,0 0.2,0.1 0.4,0 0.8,0 1.1,-0.1 0.6,-0.3 0.9,-0.9 1.1,-1.6 0.2,-0.7 0.1,-1.3 0.3,-2 0.5,-1.9 2.8,-4.9 -0.6,-5.3 -3.2,-0.5 -2.9,2.8 -2.5,5 z"
           inkscape:connector-curvature="0"
           style="fill:#444332" />
        <path
           id="path1081"
           d="m 1193.5,866.9 c -0.2,0.9 -0.7,1.7 -0.5,2.6 0.9,0.2 1.8,-0.3 2.5,-0.8 0.4,-0.2 0.8,-0.5 1,-0.9 0.3,-0.6 0.1,-1.2 0.1,-1.9 0.1,-1.8 2.3,-4.5 -1.1,-4.6 -3.2,-0.1 -1.6,3.7 -2,5.6 z"
           inkscape:connector-curvature="0"
           style="fill:#444332" />
        <path
           id="path1083"
           d="m 1034.6,832.8 c 1.9,0 3.9,0 5.8,0 1.6,0 3.2,0 4.7,-0.5 -0.2,1.1 -1,2 -1.9,2.7 -1.1,0.9 -2.4,1.5 -3.8,1.9 -1.7,0.4 -3.5,0.5 -5.2,-0.1 -1.7,-0.6 -3.2,-1.7 -4,-3.3 -0.7,-1.4 0.1,-1.6 1.2,-1.2 1,0.4 2.1,0.5 3.2,0.5 z"
           inkscape:connector-curvature="0"
           style="fill:#444332" />
        <path
           id="path1085"
           d="m 1034.8,842.6 c 0.7,0.2 1.3,0.6 2,0.9 0.8,0.3 1.7,0.5 2.5,0.8 0.8,0.3 1.6,0.8 2.1,1.5 0.5,0.7 0.6,1.8 0,2.5 -0.6,0.8 -1.7,0.8 -2.7,0.8 -1,0 -2,0 -2.9,-0.3 -0.6,-0.2 -1.2,-0.7 -1.7,-1.1 -1.4,-1 -2.8,-2.1 -4.2,-3.1 -0.3,-0.2 -0.6,-0.4 -0.8,-0.7 -0.3,-0.5 -0.3,-1.1 -0.1,-1.6 0.6,-1.2 1.6,-0.7 2.5,-0.4 1.1,0.3 2.3,0.3 3.3,0.7 z"
           inkscape:connector-curvature="0"
           style="fill:#444332" />
        <path
           id="path1087"
           d="m 1031.6,854.9 c 1.7,0.9 3.5,1.5 4.9,2.9 0.5,0.5 1,1.1 1,1.9 0.1,0.7 -0.3,1.5 -0.9,1.8 -0.3,0.1 -0.6,0.1 -0.9,0.1 -0.7,0 -1.3,0 -1.9,-0.3 -0.9,-0.4 -1.4,-1.3 -2.1,-2 -1.1,-1.3 -2.7,-2.2 -4.1,-3.2 -1.4,-1 -2.8,-2.3 -3.2,-4 -0.2,-0.6 -0.2,-1.4 0.3,-1.7 0.3,-0.2 0.6,-0.2 0.9,-0.3 0.6,-0.1 1.6,-0.2 2.1,0.3 0.4,0.4 0.2,1 0.3,1.4 0.5,1.5 2.3,2.5 3.6,3.1 z"
           inkscape:connector-curvature="0"
           style="fill:#444332" />
      </g>
    </g>
  </g>
</svg>
