<?xml version="1.0" encoding="UTF-8" standalone="no"?>
<!-- Created with Inkscape (http://www.inkscape.org/) -->

<svg
   width="36"
   height="36"
   viewBox="0 0 9.5250001 9.5249999"
   version="1.1"
   id="svg5"
   xml:space="preserve"
   inkscape:version="1.2 (dc2aedaf03, 2022-05-15)"
   sodipodi:docname="mapIcon.svg"
   xmlns:inkscape="http://www.inkscape.org/namespaces/inkscape"
   xmlns:sodipodi="http://sodipodi.sourceforge.net/DTD/sodipodi-0.dtd"
   xmlns="http://www.w3.org/2000/svg"
   xmlns:svg="http://www.w3.org/2000/svg"><sodipodi:namedview
     id="namedview7"
     pagecolor="#505050"
     bordercolor="#ffffff"
     borderopacity="1"
     inkscape:showpageshadow="0"
     inkscape:pageopacity="0"
     inkscape:pagecheckerboard="1"
     inkscape:deskcolor="#505050"
     inkscape:document-units="mm"
     showgrid="false"
     inkscape:zoom="3.7342074"
     inkscape:cx="16.469358"
     inkscape:cy="-2.1423556"
     inkscape:window-width="1366"
     inkscape:window-height="705"
     inkscape:window-x="-8"
     inkscape:window-y="-8"
     inkscape:window-maximized="1"
     inkscape:current-layer="layer1" /><defs
     id="defs2"><inkscape:path-effect
       effect="fillet_chamfer"
       id="path-effect1171"
       is_visible="true"
       lpeversion="1"
       nodesatellites_param="F,0,0,1,0,0.5098077,0,1 @ F,0,0,1,0,0,0,1 @ F,0,0,1,0,0,0,1 @ F,0,0,1,0,0.53998327,0,1"
       unit="px"
       method="auto"
       mode="F"
       radius="0"
       chamfer_steps="1"
       flexible="false"
       use_knot_distance="true"
       apply_no_radius="true"
       apply_with_radius="true"
       only_selected="false"
       hide_knots="false" /><inkscape:path-effect
       effect="fillet_chamfer"
       id="path-effect1121"
       is_visible="true"
       lpeversion="1"
       nodesatellites_param="F,0,0,1,0,0,0,1 @ F,0,0,1,0,0.56998234,0,1 @ F,0,0,1,0,0.41998699,0,1 @ F,0,0,1,0,0,0,1"
       unit="px"
       method="auto"
       mode="F"
       radius="0"
       chamfer_steps="1"
       flexible="false"
       use_knot_distance="true"
       apply_no_radius="true"
       apply_with_radius="true"
       only_selected="false"
       hide_knots="false" /></defs><g
     inkscape:label="Layer 1"
     inkscape:groupmode="layer"
     id="layer1"
     transform="translate(-144.13377,-114.75111)"><g
       id="g2677"
       transform="translate(0,-0.09347421)"><path
         id="path1914"
         style="fill:#562605;fill-opacity:1;stroke:#562605;stroke-width:1.674;stroke-linecap:square;stroke-linejoin:round;stroke-dasharray:none;stroke-opacity:1;paint-order:stroke fill markers;stop-color:#000000"
         d="m 147.46761,116.01184 v 6.24991 l 2.85732,0.89291 v -6.2499 z m -0.38219,0.0476 -1.47183,0.73592 a 0.35985705,0.58226093 31.717474 0 0 -0.43271,0.7006 v 5.19361 a 0.38115703,0.61672502 31.717474 0 0 0.45871,0.28357 l 1.44583,-0.72316 z m 5.24366,0.19037 a 0.40233242,0.65098752 31.717474 0 0 -0.20115,0.0516 l -1.42082,0.7104 v 6.19054 l 1.54838,-0.77418 a 0.29645547,0.47967502 31.717474 0 0 0.35617,-0.57697 v -5.25053 a 0.40233242,0.65098752 31.717474 0 0 -0.28258,-0.35078 z" /><path
         id="rect504"
         style="fill:#ffdf6a;fill-opacity:1;stroke:#db6c0b;stroke-width:0.909516;stroke-linecap:square;stroke-linejoin:round;stroke-dasharray:none;stroke-opacity:1;paint-order:stroke fill markers;stop-color:#000000"
         d="m 147.46761,115.92313 v 6.2499 l 2.85732,0.89292 v -6.2499 z m -0.38219,0.0476 -1.47183,0.73592 a 0.35985705,0.58226093 31.717474 0 0 -0.43271,0.7006 v 5.19361 a 0.38115703,0.61672502 31.717474 0 0 0.45871,0.28357 l 1.44583,-0.72316 z m 5.24366,0.19037 a 0.40233242,0.65098752 31.717474 0 0 -0.20115,0.0515 l -1.42082,0.7104 v 6.19054 l 1.54838,-0.77418 a 0.29645547,0.47967502 31.717474 0 0 0.35617,-0.57697 v -5.25053 a 0.40233242,0.65098752 31.717474 0 0 -0.28258,-0.35078 z" /></g></g></svg>
