<?xml version="1.0" encoding="UTF-8" standalone="no"?><!DOCTYPE svg PUBLIC "-//W3C//DTD SVG 1.1//EN" "http://www.w3.org/Graphics/SVG/1.1/DTD/svg11.dtd"><svg width="100%" height="100%" viewBox="0 0 300 300" version="1.1" xmlns="http://www.w3.org/2000/svg" xmlns:xlink="http://www.w3.org/1999/xlink" xml:space="preserve" xmlns:serif="http://www.serif.com/" style="fill-rule:evenodd;clip-rule:evenodd;stroke-linejoin:round;stroke-miterlimit:2;"><path id="compass" d="M110.687,128.581l-28.555,-48.653c-1.578,-2.689 -1.141,-6.104 1.064,-8.309c2.204,-2.204 5.62,-2.642 8.308,-1.064l48.654,28.555l-6.088,23.383l-23.383,6.088Zm71.149,-29.471l48.653,-28.555c2.689,-1.578 6.104,-1.14 8.308,1.064c2.205,2.205 2.642,5.62 1.064,8.309l-28.554,48.653l-23.384,-6.088l-6.087,-23.383Zm29.471,71.149l28.554,48.653c1.578,2.689 1.141,6.104 -1.064,8.308c-2.204,2.205 -5.619,2.642 -8.308,1.064l-48.653,-28.554l6.087,-23.384l23.384,-6.087Zm-71.149,29.471l-48.654,28.554c-2.688,1.578 -6.104,1.141 -8.308,-1.064c-2.205,-2.204 -2.642,-5.619 -1.064,-8.308l28.555,-48.653l23.383,6.087l6.088,23.384Zm46.868,-26.925c-1.294,0.376 -2.269,1.134 -2.638,2.621l-20.299,77.978c-0.366,1.408 -1.638,2.39 -3.092,2.39c-1.455,0 -2.727,-0.982 -3.093,-2.39l-19.731,-75.795l-0.562,-2.16c-0.687,-2.638 -2.621,-2.637 -2.621,-2.637l-77.977,-20.3c-1.408,-0.366 -2.391,-1.637 -2.391,-3.092c0,-1.455 0.983,-2.726 2.391,-3.093l75.794,-19.731l2.16,-0.562c1.391,-0.617 2.21,-1.521 2.638,-2.62l20.299,-77.978c0.366,-1.408 1.638,-2.391 3.093,-2.391c1.454,0 2.726,0.983 3.092,2.391l19.731,75.794l0.562,2.16c0.506,1.943 1.937,2.519 2.817,2.688c-0.019,-0.004 77.781,20.249 77.781,20.249c1.408,0.367 2.391,1.638 2.391,3.093c0,1.455 -0.983,2.726 -2.391,3.092l-75.794,19.731l-2.16,0.562Zm-28.312,-102.232c-0.599,0.479 -1.048,1.147 -1.252,1.931l-14.684,56.409c-0.292,1.121 -1.167,1.996 -2.288,2.288l-56.409,14.684c-0.784,0.204 -1.452,0.653 -1.931,1.252l53.081,0c1.092,-12.456 11.027,-22.391 23.483,-23.482l-0,-53.082Zm81.129,76.564c-0.479,-0.599 -1.147,-1.048 -1.931,-1.252l-56.409,-14.684c-1.121,-0.292 -1.996,-1.167 -2.287,-2.288l-14.685,-56.409c-0.204,-0.784 -0.653,-1.452 -1.252,-1.931l0,53.082c12.456,1.091 22.392,11.026 23.483,23.482l53.081,0Zm-76.564,81.13c0.599,-0.48 1.048,-1.148 1.252,-1.931l14.685,-56.41c0.291,-1.12 1.166,-1.996 2.287,-2.287l56.409,-14.685c0.784,-0.204 1.452,-0.653 1.931,-1.252l-53.081,0c-1.091,12.456 -11.027,22.392 -23.483,23.483l0,53.082Zm-81.129,-76.565c0.479,0.599 1.147,1.048 1.931,1.252l56.409,14.685c1.121,0.291 1.996,1.167 2.288,2.287l14.684,56.41c0.204,0.783 0.653,1.451 1.252,1.931l-0,-53.082c-12.456,-1.091 -22.391,-11.027 -23.483,-23.483l-53.081,0Zm78.847,-19.016c-9.236,-0 -16.734,7.498 -16.734,16.734c-0,9.235 7.498,16.734 16.734,16.734c9.235,-0 16.734,-7.499 16.734,-16.734c-0,-9.236 -7.499,-16.734 -16.734,-16.734Zm-0,8.152c4.736,-0 8.582,3.845 8.582,8.582c-0,4.736 -3.846,8.582 -8.582,8.582c-4.737,-0 -8.582,-3.846 -8.582,-8.582c-0,-4.737 3.845,-8.582 8.582,-8.582Zm-7.373,-126.299l-0,17.567c-0,1.096 -0.274,1.941 -0.822,2.534c-0.548,0.594 -1.37,0.89 -2.466,0.89c-1.065,0 -1.879,-0.296 -2.442,-0.89c-0.563,-0.593 -0.845,-1.438 -0.845,-2.534l0,-26.022c0,-1.157 0.282,-2.04 0.845,-2.648c0.563,-0.609 1.316,-0.913 2.26,-0.913c0.822,-0 1.453,0.159 1.894,0.479c0.442,0.32 0.952,0.845 1.53,1.575l14.792,18.838l-0,-17.514c-0,-1.065 0.281,-1.895 0.844,-2.488c0.563,-0.594 1.377,-0.89 2.443,-0.89c1.065,-0 1.879,0.296 2.442,0.89c0.563,0.593 0.845,1.423 0.845,2.488l-0,26.342c-0,1.005 -0.259,1.804 -0.776,2.397c-0.518,0.594 -1.218,0.89 -2.1,0.89c-0.853,0 -1.53,-0.167 -2.032,-0.502c-0.502,-0.335 -1.042,-0.867 -1.621,-1.598l-14.791,-18.891Zm7.487,282.938c-1.279,0 -2.58,-0.099 -3.904,-0.296c-1.324,-0.198 -2.587,-0.48 -3.789,-0.845c-1.202,-0.365 -2.275,-0.822 -3.218,-1.37c-0.67,-0.365 -1.142,-0.844 -1.416,-1.438c-0.274,-0.593 -0.373,-1.194 -0.297,-1.803c0.077,-0.609 0.305,-1.149 0.685,-1.621c0.381,-0.472 0.868,-0.776 1.461,-0.913c0.594,-0.137 1.256,-0.023 1.986,0.343c1.248,0.7 2.61,1.217 4.086,1.552c1.476,0.335 2.945,0.502 4.406,0.502c2.222,-0 3.804,-0.342 4.748,-1.027c0.943,-0.685 1.415,-1.545 1.415,-2.58c-0,-0.882 -0.335,-1.582 -1.004,-2.1c-0.67,-0.517 -1.842,-0.958 -3.516,-1.324l-5.159,-1.095c-2.921,-0.609 -5.09,-1.651 -6.505,-3.128c-1.416,-1.476 -2.123,-3.416 -2.123,-5.82c-0,-1.522 0.319,-2.907 0.959,-4.155c0.639,-1.248 1.537,-2.328 2.693,-3.241c1.157,-0.913 2.534,-1.613 4.132,-2.1c1.598,-0.487 3.355,-0.731 5.273,-0.731c1.704,0 3.378,0.206 5.022,0.616c1.643,0.411 3.089,1.012 4.337,1.804c0.609,0.365 1.027,0.829 1.255,1.392c0.229,0.563 0.305,1.126 0.229,1.689c-0.077,0.563 -0.305,1.058 -0.685,1.484c-0.381,0.426 -0.86,0.7 -1.438,0.822c-0.579,0.122 -1.279,-0.015 -2.1,-0.411c-1.005,-0.517 -2.07,-0.898 -3.196,-1.141c-1.126,-0.244 -2.283,-0.366 -3.47,-0.366c-1.278,0 -2.366,0.168 -3.264,0.503c-0.898,0.334 -1.583,0.806 -2.055,1.415c-0.471,0.609 -0.707,1.309 -0.707,2.1c-0,0.883 0.319,1.598 0.959,2.146c0.639,0.548 1.75,0.989 3.332,1.324l5.159,1.095c2.983,0.639 5.205,1.667 6.666,3.082c1.461,1.415 2.191,3.279 2.191,5.593c-0,1.521 -0.304,2.899 -0.913,4.131c-0.609,1.233 -1.491,2.29 -2.648,3.173c-1.157,0.883 -2.541,1.56 -4.154,2.032c-1.614,0.471 -3.425,0.707 -5.433,0.707Zm120.171,-132.743c-1.187,-0 -2.1,-0.32 -2.739,-0.959c-0.639,-0.639 -0.959,-1.552 -0.959,-2.739l0,-24.79c0,-1.187 0.32,-2.1 0.959,-2.739c0.639,-0.64 1.552,-0.959 2.739,-0.959l15.933,-0c0.913,-0 1.606,0.236 2.077,0.707c0.472,0.472 0.708,1.149 0.708,2.032c-0,0.913 -0.236,1.606 -0.708,2.077c-0.471,0.472 -1.164,0.708 -2.077,0.708l-12.874,-0l-0,7.533l11.824,-0c0.944,-0 1.651,0.236 2.123,0.707c0.472,0.472 0.708,1.165 0.708,2.078c-0,0.913 -0.236,1.605 -0.708,2.077c-0.472,0.472 -1.179,0.707 -2.123,0.707l-11.824,0l-0,8.036l12.874,-0c0.913,-0 1.606,0.235 2.077,0.707c0.472,0.472 0.708,1.149 0.708,2.032c-0,0.913 -0.236,1.605 -0.708,2.077c-0.471,0.472 -1.164,0.708 -2.077,0.708l-15.933,-0Zm-257.528,-21.331l-6.754,18.911c-0.365,0.943 -0.83,1.651 -1.393,2.123c-0.563,0.472 -1.331,0.708 -2.305,0.708c-0.974,-0 -1.765,-0.236 -2.374,-0.708c-0.609,-0.472 -1.096,-1.195 -1.461,-2.169l-9.222,-25.931c-0.396,-1.157 -0.312,-2.146 0.251,-2.967c0.563,-0.822 1.545,-1.233 2.945,-1.233c0.974,-0 1.727,0.228 2.26,0.685c0.532,0.456 0.966,1.171 1.301,2.145l6.578,19.576l6.935,-19.53c0.365,-0.974 0.814,-1.697 1.347,-2.168c0.533,-0.472 1.24,-0.708 2.123,-0.708c0.852,-0 1.537,0.236 2.054,0.708c0.518,0.471 0.959,1.209 1.324,2.214l6.737,19.846l6.822,-19.938c0.305,-0.943 0.731,-1.651 1.279,-2.122c0.547,-0.472 1.293,-0.708 2.237,-0.708c1.187,-0 2.054,0.411 2.602,1.233c0.548,0.821 0.609,1.81 0.183,2.967l-9.314,25.977c-0.335,0.943 -0.791,1.651 -1.369,2.123c-0.579,0.472 -1.37,0.708 -2.374,0.708c-0.974,-0 -1.75,-0.236 -2.329,-0.708c-0.578,-0.472 -1.05,-1.195 -1.415,-2.169l-6.668,-18.865Zm43.587,-3.539c1.806,-17.4 8.358,-33.399 18.338,-46.678l5.055,8.614c-7.127,10.434 -11.992,22.533 -13.885,35.589l-9.508,2.475Zm81.565,-74.362c-12.997,1.853 -25.051,6.651 -35.464,13.694l-8.631,-5.066c13.269,-9.888 29.226,-16.365 46.568,-18.127l-2.473,9.499Zm21.708,-9.499c17.342,1.762 33.299,8.239 46.568,18.127l-8.631,5.066c-10.413,-7.043 -22.467,-11.841 -35.464,-13.694l-2.473,-9.499Zm74.53,81.386c-1.893,-13.056 -6.758,-25.155 -13.885,-35.589l5.056,-8.614c9.98,13.279 16.532,29.278 18.337,46.678l-9.508,-2.475Zm9.562,21.572c-1.717,17.507 -8.236,33.613 -18.221,46.983l-5.063,-8.627c7.136,-10.522 11.976,-22.725 13.798,-35.887l9.486,-2.469Zm-81.759,74.913c13.221,-1.862 25.469,-6.771 36.012,-13.991l8.61,5.053c-13.38,10.078 -29.529,16.673 -47.093,18.432l2.471,-9.494Zm-21.43,9.494c-17.564,-1.759 -33.713,-8.354 -47.093,-18.432l8.61,-5.053c10.543,7.22 22.791,12.129 36.012,13.991l2.471,9.494Zm-74.744,-81.938c1.823,13.162 6.663,25.365 13.798,35.887l-5.063,8.627c-9.985,-13.37 -16.504,-29.476 -18.22,-46.983l9.485,2.469Z" style="fill:#00739c;"/></svg>