<?xml version="1.0" encoding="UTF-8" standalone="no"?><!DOCTYPE svg PUBLIC "-//W3C//DTD SVG 1.1//EN" "http://www.w3.org/Graphics/SVG/1.1/DTD/svg11.dtd"><svg width="100%" height="100%" viewBox="0 0 300 300" version="1.1" xmlns="http://www.w3.org/2000/svg" xmlns:xlink="http://www.w3.org/1999/xlink" xml:space="preserve" xmlns:serif="http://www.serif.com/" style="fill-rule:evenodd;clip-rule:evenodd;stroke-linejoin:round;stroke-miterlimit:2;"><path id="Wave" d="M0.99,133.813c-2.033,-3.511 -0.834,-8.011 2.676,-10.044c3.511,-2.034 8.011,-0.834 10.044,2.676c12.067,20.834 24.87,33.554 39.623,35.756c14.675,2.191 30.369,-6.293 48.07,-25.097c1.507,-1.602 3.652,-2.444 5.846,-2.296c2.194,0.148 4.206,1.27 5.485,3.059c10.749,15.034 22.407,23.931 35.875,24.408c13.932,0.494 29.099,-7.773 46.346,-25.029c1.482,-1.483 3.527,-2.262 5.621,-2.142c2.093,0.12 4.035,1.129 5.338,2.772c12.18,15.365 24.672,24.06 38.187,24.245c13.73,0.189 27.858,-8.3 43.091,-25.201c2.715,-3.013 7.367,-3.254 10.38,-0.538c3.013,2.715 3.255,7.367 0.539,10.38c-18.915,20.986 -37.162,30.292 -54.212,30.058c-15.361,-0.211 -30.258,-8.107 -44.316,-23.67c-18.81,17.115 -36.044,24.364 -51.494,23.816c-15.308,-0.542 -29.389,-8.597 -42.022,-23.694c-19.812,18.914 -38.255,25.954 -54.905,23.468c-18.252,-2.725 -35.243,-17.151 -50.172,-42.927Z" style="fill:#0099d6;"/></svg>