<?xml version="1.0" encoding="UTF-8" standalone="no"?><!DOCTYPE svg PUBLIC "-//W3C//DTD SVG 1.1//EN" "http://www.w3.org/Graphics/SVG/1.1/DTD/svg11.dtd"><svg width="100%" height="100%" viewBox="0 0 265 180" version="1.1" xmlns="http://www.w3.org/2000/svg" xmlns:xlink="http://www.w3.org/1999/xlink" xml:space="preserve" xmlns:serif="http://www.serif.com/" style="fill-rule:evenodd;clip-rule:evenodd;stroke-linejoin:round;stroke-miterlimit:2;"><g id="Originals"></g><g id="v5"><g id="Math"><g id="Math1" serif:id="Math"><path d="M265.046,175.548c0,2.463 -2,4.463 -4.463,4.463l-256.168,0c-2.463,0 -4.463,-2 -4.463,-4.463l-0,-172.086c-0,-1.94 1.575,-3.515 3.515,-3.515l258.063,-0c1.94,-0 3.515,1.575 3.515,3.515l0,172.086l0,-0l0,-0l0.001,-0Z" style="fill:url(#_Radial1);"/><path d="M19.795,-0.054l22.202,0l6.163,1.162c0.446,0.084 0.844,0.343 1.106,0.719c0.262,0.376 0.366,0.838 0.29,1.286l-1.094,6.443c-0.076,0.448 -0.326,0.843 -0.695,1.1c-0.369,0.258 -0.827,0.355 -1.273,0.27l-25.995,-4.899c-0.446,-0.084 -0.844,-0.343 -1.106,-0.719c-0.261,-0.376 -0.366,-0.839 -0.29,-1.286l0.692,-4.076l-0,0Zm114.33,0l6.688,0l-22.028,33.759c0.343,0.363 0.594,0.822 0.704,1.346c0.1,0.478 0.072,0.952 -0.061,1.389l51.585,33.81l14.521,-22.252l-2.635,-1.719c-1.295,-0.845 -1.66,-2.582 -0.815,-3.876c0.845,-1.295 2.581,-1.66 3.876,-0.815l2.635,1.719l17.233,-26.41l-25.976,-16.951l10.25,0l20.161,13.156l36.777,-7.733l-8.31,-5.423l10.25,0l6.784,4.427c0.963,0.629 1.428,1.766 1.222,2.862c-0.067,0.36 -0.205,0.704 -0.407,1.014l-35.984,55.145l-1.894,2.902c-0.41,0.63 -1.048,1.059 -1.769,1.211l-44.529,9.363c-0.714,0.15 -1.472,0.019 -2.107,-0.395l-58.047,-37.878c-0.958,-0.625 -1.429,-1.76 -1.222,-2.862c0.068,-0.363 0.206,-0.707 0.407,-1.014l22.691,-34.775l0,0l0,0Zm38.55,0l6.558,0l-1.534,2.352c-0.845,1.294 -2.582,1.659 -3.876,0.815c-1.069,-0.698 -1.505,-2.004 -1.148,-3.167Zm-1.875,180.064l-4.836,0c3.046,-14.195 -4.324,-28.775 -17.748,-34.657c-0.512,1.084 -1.773,1.629 -2.929,1.223c-1.156,-0.405 -1.8,-1.618 -1.522,-2.784c-14.66,-3.927 -30.076,3.483 -36.168,17.383c1.085,0.512 1.629,1.773 1.224,2.929c-0.406,1.156 -1.618,1.8 -2.785,1.522c-1.294,4.833 -1.357,9.748 -0.361,14.384l-4.836,0c-1.093,-5.897 -0.707,-12.148 1.418,-18.208c6.497,-18.523 26.81,-28.286 45.333,-21.789c16.756,5.877 26.344,23.061 23.21,39.997l0,0Zm-170.85,-134.231l17.817,-2.697c0.449,-0.068 0.91,0.045 1.281,0.313c0.371,0.269 0.623,0.671 0.699,1.119l1.095,6.442c0.076,0.448 -0.029,0.904 -0.293,1.269c-0.263,0.364 -0.664,0.607 -1.113,0.675l-19.486,2.95l0,-10.071l0,0Zm0,72.681l6.819,-8.002c0.316,-0.362 0.636,-0.599 0.96,-0.712c0.325,-0.114 0.665,-0.12 1.021,-0.018c0.357,0.101 0.643,0.286 0.859,0.553c0.215,0.268 0.356,0.636 0.421,1.107l1.807,11.69c0.066,0.377 0.037,0.697 -0.084,0.961c-0.122,0.265 -0.309,0.444 -0.562,0.538c-0.253,0.094 -0.545,0.093 -0.876,-0.001c-0.418,-0.119 -0.712,-0.309 -0.883,-0.571c-0.172,-0.261 -0.284,-0.625 -0.336,-1.091l-0.26,-1.987l-6.076,-1.732l-1.255,1.555c-0.307,0.377 -0.588,0.632 -0.845,0.765c-0.197,0.101 -0.433,0.131 -0.71,0.09l0,-3.145Zm265.096,-59.31l-15.158,-3.148c-0.444,-0.092 -0.837,-0.357 -1.092,-0.738c-0.255,-0.381 -0.35,-0.846 -0.266,-1.292l1.212,-6.421c0.084,-0.447 0.341,-0.838 0.715,-1.088c0.374,-0.25 0.834,-0.339 1.278,-0.246l13.311,2.763l-0,10.17l-0,-0Zm-265.096,-24.93c0.726,-0.757 1.694,-1.292 2.807,-1.471c2.719,-0.437 5.281,1.416 5.718,4.135c0.437,2.719 -1.416,5.281 -4.135,5.718c-1.677,0.269 -3.294,-0.332 -4.39,-1.471l0,-6.911Zm4.396,83.017l4.166,1.187l-0.675,-5.491l-0.037,-0.011l-3.454,4.315Zm113.463,47.506c1.235,0.433 1.886,1.788 1.453,3.023c-0.434,1.234 -1.788,1.886 -3.023,1.452l-4.176,-1.464c-1.235,-0.434 -1.886,-1.788 -1.453,-3.023c0.433,-1.235 1.787,-1.886 3.022,-1.453l4.177,1.465Zm10.441,3.662c1.235,0.433 1.886,1.788 1.453,3.023c-0.434,1.235 -1.788,1.886 -3.023,1.453l-4.176,-1.465c-1.235,-0.433 -1.886,-1.788 -1.453,-3.023c0.433,-1.235 1.787,-1.886 3.022,-1.453l4.177,1.465Zm13.387,-18.587c0.433,-1.235 1.788,-1.886 3.023,-1.453c1.235,0.433 1.886,1.788 1.452,3.023l-1.465,4.176c-0.433,1.235 -1.787,1.886 -3.022,1.453c-1.235,-0.433 -1.886,-1.788 -1.453,-3.023l1.465,-4.176Zm-3.662,10.441c0.433,-1.235 1.787,-1.886 3.022,-1.453c1.235,0.433 1.886,1.787 1.453,3.022l-1.465,4.177c-0.433,1.235 -1.787,1.886 -3.022,1.453c-1.236,-0.433 -1.886,-1.788 -1.453,-3.023l1.465,-4.176Zm0.897,10.744l0.001,0.003c0.875,1.044 1.194,2.51 0.711,3.888c-0.729,2.078 -3.009,3.174 -5.087,2.445c-1.379,-0.484 -2.326,-1.65 -2.593,-2.985c-0.513,-0.619 -0.698,-1.485 -0.412,-2.299c0.285,-0.814 0.971,-1.374 1.756,-1.536c0.514,-0.432 1.131,-0.729 1.788,-0.86c0.62,-0.512 1.485,-0.698 2.299,-0.412c0.813,0.285 1.373,0.969 1.537,1.756Zm-87.413,-112.275l26.754,87.282c0.332,1.083 -0.021,2.26 -0.895,2.981c-0.873,0.721 -2.095,0.845 -3.096,0.314l-57.018,-30.265c-1.366,-0.725 -1.886,-2.42 -1.161,-3.787l30.265,-57.017c0.531,-1.001 1.612,-1.583 2.74,-1.475c1.128,0.107 2.079,0.884 2.411,1.967l0,-0l0,-0Zm9.041,76.951l10.376,5.508l-3.492,-11.393c-2.817,1.068 -5.288,3.083 -6.884,5.885Zm-34.171,-27.856l-4.025,7.583l8.365,4.44l4.025,-7.583l-8.365,-4.44Zm39.411,16.609l-12.349,-40.288c-4.154,0.837 -8.611,0.297 -12.642,-1.843c-0.228,-0.121 -0.453,-0.246 -0.674,-0.376l-11.12,20.95l10.839,5.753c1.367,0.726 1.886,2.421 1.161,3.787l-5.338,10.057l19.934,10.58c2.324,-4.165 6.002,-7.124 10.189,-8.62l0,-0Zm-14.001,-45.68l-3.653,-11.918l-5.382,10.138c0.219,0.133 0.443,0.26 0.671,0.381c2.665,1.415 5.594,1.838 8.364,1.399Zm28.807,84.588c-1.117,-0.933 -1.888,-1.952 -2.313,-3.057c-0.426,-1.104 -0.518,-2.234 -0.276,-3.388c0.241,-1.155 0.816,-2.277 1.725,-3.365c0.68,-0.813 1.412,-1.445 2.197,-1.896c0.784,-0.451 1.601,-0.717 2.451,-0.798c0.85,-0.08 1.711,0.029 2.586,0.327c0.874,0.298 1.728,0.795 2.561,1.491c0.49,0.409 0.936,0.886 1.339,1.431c0.402,0.544 0.695,1.084 0.879,1.621c0.13,0.342 0.154,0.652 0.07,0.932c-0.084,0.279 -0.229,0.508 -0.435,0.685c-0.207,0.177 -0.437,0.284 -0.692,0.32c-0.256,0.037 -0.498,-0.008 -0.726,-0.132c-0.229,-0.124 -0.413,-0.353 -0.551,-0.685c-0.147,-0.422 -0.349,-0.808 -0.607,-1.156c-0.258,-0.349 -0.553,-0.662 -0.886,-0.941c-0.657,-0.549 -1.317,-0.879 -1.98,-0.992c-0.663,-0.113 -1.312,-0.019 -1.946,0.283c-0.635,0.301 -1.252,0.81 -1.849,1.525c-0.59,0.706 -0.981,1.403 -1.173,2.091c-0.193,0.688 -0.174,1.348 0.055,1.98c0.229,0.633 0.671,1.223 1.328,1.772c0.313,0.262 0.667,0.491 1.061,0.687c0.394,0.196 0.812,0.338 1.255,0.425c0.361,0.085 0.628,0.229 0.8,0.431c0.173,0.203 0.265,0.43 0.279,0.683c0.014,0.252 -0.044,0.491 -0.174,0.716c-0.13,0.224 -0.315,0.402 -0.557,0.532c-0.243,0.131 -0.529,0.175 -0.859,0.132c-0.567,-0.059 -1.173,-0.24 -1.817,-0.545c-0.644,-0.305 -1.225,-0.675 -1.745,-1.109Zm6.358,-143.645c0.318,-0.324 0.75,-0.506 1.2,-0.506c0.45,0 0.881,0.182 1.199,0.506l4.579,4.663c0.318,0.324 0.497,0.763 0.497,1.221c-0,0.458 -0.179,0.898 -0.497,1.222l-5.778,5.884l5.778,5.884c0.318,0.324 0.497,0.763 0.497,1.221c-0,0.458 -0.179,0.898 -0.497,1.222l-4.579,4.662c-0.318,0.324 -0.749,0.506 -1.199,0.506c-0.45,0 -0.882,-0.182 -1.2,-0.506l-5.778,-5.884l-5.778,5.884c-0.318,0.324 -0.75,0.506 -1.2,0.506c-0.449,0 -0.881,-0.182 -1.199,-0.506l-4.579,-4.662c-0.318,-0.324 -0.497,-0.764 -0.497,-1.222c0,-0.458 0.179,-0.897 0.497,-1.221l5.778,-5.884l-5.778,-5.884c-0.318,-0.324 -0.497,-0.764 -0.497,-1.222c0,-0.458 0.179,-0.897 0.497,-1.221l4.579,-4.663c0.318,-0.324 0.75,-0.506 1.199,-0.506c0.45,0 0.882,0.182 1.2,0.506l5.778,5.884l5.778,-5.884Zm-80.157,37.885c2.719,-0.436 5.281,1.416 5.718,4.135c0.437,2.719 -1.416,5.281 -4.135,5.718c-2.719,0.437 -5.281,-1.416 -5.718,-4.135c-0.436,-2.719 1.416,-5.281 4.135,-5.718Zm185.979,92.865l52.208,-69.346c0.622,-0.819 1.694,-1.169 2.697,-0.882c1.003,0.287 1.728,1.153 1.822,2.176l7.58,86.47c-0.075,0.263 -0.167,0.522 -0.274,0.776c-0.016,0.043 -0.033,0.086 -0.052,0.129c-0.015,0.034 -0.031,0.066 -0.048,0.097c-1.283,2.768 -4.463,4.913 -9.205,5.913c-6.532,1.377 -16.248,0.766 -26.566,-2.189c-10.318,-2.955 -18.884,-7.58 -23.696,-12.207c-3.494,-3.359 -5.056,-6.862 -4.679,-9.89c0.001,-0.035 0.005,-0.071 0.01,-0.107c0.007,-0.046 0.015,-0.092 0.024,-0.137c0.044,-0.272 0.103,-0.54 0.179,-0.804l-0,0.001l-0,-0Zm59.52,16.912l-0.299,-3.242c-0.511,-0.141 -0.983,-0.44 -1.334,-0.886c-0.836,-1.061 -1.934,-2.129 -3.248,-3.186c-1.092,-0.879 -1.263,-2.461 -0.381,-3.531c0.882,-1.069 2.485,-1.224 3.578,-0.345c0.241,0.195 0.477,0.39 0.706,0.585l-6.226,-67.496l-41.014,53.966c0.298,-0.044 0.601,-0.085 0.908,-0.122c1.393,-0.168 2.671,0.812 2.853,2.186c0.182,1.375 -0.8,2.627 -2.193,2.794c-1.674,0.202 -3.17,0.526 -4.441,0.984c-0.534,0.192 -1.093,0.196 -1.602,0.046l-1.969,2.591c0.002,0.045 0.002,0.09 0.001,0.136l0.039,0.011c-0.029,0.098 -0.05,0.199 -0.065,0.299c-0.097,0.651 0.075,1.341 0.404,2.057c0.542,1.181 1.499,2.386 2.765,3.602c4.363,4.195 12.184,8.287 21.539,10.967c9.356,2.679 18.158,3.348 24.08,2.099c1.718,-0.362 3.167,-0.877 4.252,-1.592c0.659,-0.434 1.17,-0.928 1.432,-1.532c0.041,-0.093 0.076,-0.189 0.104,-0.287l0.038,0.011c0.024,-0.04 0.048,-0.078 0.073,-0.115l0,-0l0,-0Zm-39.398,-19.431c-1.402,-0.083 -2.482,-1.273 -2.409,-2.655c0.072,-1.382 1.27,-2.436 2.672,-2.352c1.711,0.102 3.498,0.284 5.34,0.549c1.392,0.2 2.366,1.474 2.176,2.844c-0.19,1.37 -1.475,2.32 -2.866,2.12c-1.695,-0.244 -3.338,-0.412 -4.913,-0.506Zm12.233,1.96c-1.363,-0.343 -2.197,-1.711 -1.861,-3.052c0.337,-1.341 1.717,-2.151 3.08,-1.808c0.851,0.215 1.709,0.446 2.57,0.692c0.862,0.247 1.712,0.505 2.547,0.774c1.339,0.43 2.081,1.848 1.656,3.164c-0.424,1.316 -1.856,2.035 -3.194,1.605c-0.784,-0.253 -1.58,-0.495 -2.388,-0.726c-0.808,-0.231 -1.612,-0.448 -2.41,-0.649Zm11.778,4.016c-1.286,-0.567 -1.873,-2.053 -1.309,-3.316c0.563,-1.263 2.065,-1.828 3.351,-1.261c1.704,0.751 3.316,1.542 4.822,2.361c1.234,0.671 1.692,2.2 1.021,3.41c-0.67,1.211 -2.216,1.649 -3.45,0.978c-1.385,-0.754 -2.868,-1.481 -4.435,-2.172Zm-219.86,-7.182c-0.077,-0.447 0.028,-0.904 0.291,-1.269c0.263,-0.365 0.663,-0.608 1.112,-0.677l6.461,-0.986c0.448,-0.068 0.909,0.044 1.281,0.312c0.371,0.268 0.623,0.67 0.7,1.117l1.392,8.128l8.153,-1.244c0.449,-0.069 0.909,0.043 1.281,0.311c0.372,0.268 0.623,0.67 0.7,1.118l1.103,6.441c0.077,0.448 -0.028,0.904 -0.291,1.269c-0.263,0.365 -0.663,0.608 -1.112,0.677l-8.152,1.244l1.392,8.129c0.077,0.447 -0.028,0.904 -0.291,1.269c-0.263,0.364 -0.663,0.608 -1.112,0.676l-6.46,0.987c-0.449,0.068 -0.91,-0.044 -1.281,-0.312c-0.372,-0.268 -0.624,-0.67 -0.7,-1.117l-1.393,-8.129l-8.152,1.245c-0.449,0.068 -0.91,-0.044 -1.282,-0.312c-0.371,-0.268 -0.623,-0.67 -0.7,-1.117l-1.103,-6.441c-0.077,-0.448 0.028,-0.904 0.291,-1.269c0.263,-0.365 0.663,-0.608 1.112,-0.677l8.153,-1.245l-1.393,-8.128Zm2.529,-135.8l25.995,4.9c0.446,0.084 0.844,0.343 1.106,0.719c0.261,0.376 0.366,0.838 0.29,1.286l-1.094,6.443c-0.076,0.447 -0.326,0.843 -0.695,1.1c-0.369,0.257 -0.828,0.355 -1.274,0.271l-25.994,-4.9c-0.446,-0.084 -0.844,-0.343 -1.106,-0.719c-0.262,-0.376 -0.366,-0.839 -0.29,-1.286l1.094,-6.443c0.075,-0.448 0.326,-0.844 0.695,-1.101c0.369,-0.257 0.827,-0.354 1.273,-0.27Zm31.471,35.471c0.608,0.337 1.063,0.769 1.365,1.295c0.382,0.666 0.475,1.442 0.279,2.328c-0.259,1.172 -0.866,1.996 -1.822,2.471c-0.955,0.475 -2.144,0.556 -3.565,0.241l-4.732,-1.047c-0.487,-0.108 -0.832,-0.321 -1.036,-0.641c-0.204,-0.32 -0.252,-0.723 -0.144,-1.209l2.247,-10.157c0.108,-0.486 0.321,-0.831 0.641,-1.035c0.32,-0.204 0.723,-0.252 1.209,-0.144l4.527,1.001c0.935,0.207 1.703,0.521 2.303,0.941c0.6,0.421 1.015,0.925 1.245,1.512c0.23,0.587 0.266,1.236 0.109,1.947c-0.174,0.785 -0.546,1.403 -1.116,1.852c-0.431,0.339 -0.934,0.554 -1.51,0.645Zm-5.505,-2.197l2.769,0.613c0.723,0.159 1.289,0.141 1.699,-0.056c0.41,-0.197 0.676,-0.57 0.797,-1.119c0.119,-0.536 0.034,-0.98 -0.255,-1.331c-0.288,-0.352 -0.794,-0.608 -1.517,-0.768l-2.769,-0.612l-0.724,3.273Zm-1.241,5.611l3.086,0.683c0.748,0.166 1.329,0.141 1.743,-0.075c0.414,-0.216 0.685,-0.611 0.812,-1.184c0.127,-0.574 0.047,-1.043 -0.239,-1.407c-0.285,-0.364 -0.802,-0.628 -1.55,-0.794l-3.087,-0.683l-0.765,3.46Zm171.285,11.084l32.653,-50.04l-36.777,7.733l-18.496,28.345c0.223,0.76 0.126,1.609 -0.34,2.323c-0.466,0.715 -1.205,1.146 -1.99,1.247l-12.723,19.499l31.295,-6.581l1.491,-0.607c0.011,-0.506 0.158,-1.014 0.455,-1.468c0.844,-1.294 2.581,-1.659 3.876,-0.815l0.487,0.318l0.069,0.046l0,-0Zm-9.264,-6.045c1.295,0.844 1.66,2.581 0.815,3.876c-0.844,1.294 -2.581,1.659 -3.876,0.815l-5.804,-3.788c-1.295,-0.845 -1.66,-2.582 -0.815,-3.876c0.844,-1.295 2.581,-1.66 3.876,-0.815l5.804,3.788Zm-75.261,-25.08c1.512,-0.318 2.999,0.652 3.317,2.165c0.318,1.512 -0.652,2.998 -2.165,3.317l-5.937,1.248c-1.513,0.318 -2.999,-0.652 -3.317,-2.165c-0.318,-1.512 0.652,-2.998 2.164,-3.317l5.938,-1.248Zm46.238,6.141c1.295,0.845 1.66,2.581 0.815,3.876c-0.845,1.294 -2.582,1.66 -3.876,0.815l-5.805,-3.788c-1.294,-0.845 -1.66,-2.581 -0.815,-3.876c0.845,-1.294 2.582,-1.66 3.876,-0.815l5.805,3.788Zm-19.504,-6.039l-1.833,0.386c-1.513,0.318 -2.999,-0.652 -3.317,-2.165c-0.318,-1.512 0.652,-2.998 2.164,-3.317l1.834,-0.385l1.26,-1.931c0.844,-1.294 2.581,-1.659 3.876,-0.815c1.294,0.845 1.659,2.582 0.815,3.876l-0.364,0.557l0.557,0.363c1.295,0.845 1.66,2.582 0.815,3.876c-0.757,1.161 -2.231,1.575 -3.461,1.039l1.022,0.714l-3.368,-2.198Zm9.577,-21.924c0.845,-1.294 2.582,-1.659 3.876,-0.815c1.294,0.845 1.66,2.582 0.815,3.876l-3.788,5.805c-0.844,1.295 -2.581,1.66 -3.876,0.815c-1.294,-0.845 -1.66,-2.581 -0.815,-3.876l3.788,-5.805Zm-21.469,18.701c1.513,-0.318 3,0.652 3.318,2.164c0.318,1.513 -0.652,3 -2.165,3.318l-5.937,1.248c-1.513,0.318 -2.999,-0.652 -3.317,-2.164c-0.318,-1.513 0.652,-3 2.164,-3.318l5.937,-1.248Z" style="fill:#303eb1;"/></g></g></g><defs><radialGradient id="_Radial1" cx="0" cy="0" r="1" gradientUnits="userSpaceOnUse" gradientTransform="matrix(8.11621e-15,132.548,-132.548,8.11621e-15,132.498,89.9787)"><stop offset="0" style="stop-color:#5363f3;stop-opacity:1"/><stop offset="1" style="stop-color:#3142d9;stop-opacity:1"/></radialGradient></defs></svg>