<?xml version="1.0" encoding="UTF-8" standalone="no"?>
<!-- Created with Inkscape (http://www.inkscape.org/) -->

<svg
   width="36"
   height="36"
   viewBox="0 0 9.5250001 9.5249999"
   version="1.1"
   id="svg5"
   xml:space="preserve"
   inkscape:version="1.2 (dc2aedaf03, 2022-05-15)"
   sodipodi:docname="maxTargetIcon2.svg"
   xmlns:inkscape="http://www.inkscape.org/namespaces/inkscape"
   xmlns:sodipodi="http://sodipodi.sourceforge.net/DTD/sodipodi-0.dtd"
   xmlns="http://www.w3.org/2000/svg"
   xmlns:svg="http://www.w3.org/2000/svg"><sodipodi:namedview
     id="namedview7"
     pagecolor="#505050"
     bordercolor="#ffffff"
     borderopacity="1"
     inkscape:showpageshadow="0"
     inkscape:pageopacity="0"
     inkscape:pagecheckerboard="1"
     inkscape:deskcolor="#505050"
     inkscape:document-units="mm"
     showgrid="false"
     inkscape:zoom="10.638128"
     inkscape:cx="24.863397"
     inkscape:cy="22.654362"
     inkscape:window-width="1366"
     inkscape:window-height="705"
     inkscape:window-x="-8"
     inkscape:window-y="-8"
     inkscape:window-maximized="1"
     inkscape:current-layer="layer1" /><defs
     id="defs2" /><g
     inkscape:label="Layer 1"
     inkscape:groupmode="layer"
     id="layer1"
     transform="translate(-144.13377,-114.75111)"><path
       id="path4557"
       style="color:#000000;fill:#562605;fill-rule:evenodd;stroke-linecap:square;paint-order:stroke fill markers"
       d="m 150.82225,115.5645 -0.34778,0.35553 c -0.82965,-0.30594 -1.76884,-0.61221 -2.5585,-0.39636 -1.95637,0.33659 -3.48609,1.97483 -3.48609,4.02301 0,2.28739 1.87465,4.16254 4.16202,4.16254 2.28738,0 4.15995,-1.87504 4.15995,-4.16254 0,-0.66605 -0.21846,-1.27155 -0.49971,-1.83193 l 1.08003,-1.10329 -0.93586,-0.37724 c -0.11113,-0.0449 -0.22085,-0.0896 -0.33176,-0.13436 -0.047,-0.10978 -0.0934,-0.22024 -0.14056,-0.33021 l -0.0977,-0.22686 -0.15441,-0.65618 z"
       sodipodi:nodetypes="cccssscccccccc" /><g
       id="path2023"><path
         style="color:#000000;fill:#db6c0b;fill-rule:evenodd;stroke-linecap:square;-inkscape-stroke:none;paint-order:stroke fill markers"
         d="m 151.07227,115.6875 -0.48438,0.49414 -0.002,-0.002 c -0.72136,-0.3827 -1.60004,-0.58151 -2.31836,-0.49806 -1.93877,0.17365 -3.48633,1.76188 -3.48633,3.74414 0,2.09712 1.71346,3.81055 3.81055,3.81055 2.09712,0 3.81054,-1.71338 3.81054,-3.81055 0,-0.70173 -0.19176,-1.36185 -0.52539,-1.92773 l -0.01,-0.0156 0.84765,-0.86523 -0.44922,-0.18164 c -0.15604,-0.063 -0.31096,-0.12658 -0.46679,-0.18946 -0.0657,-0.15337 -0.13142,-0.30738 -0.19727,-0.46093 l -0.11934,-0.50147 c -0.16412,0.18984 -0.23546,0.22338 -0.4097,0.40384 z m -2.48047,0.57617 c 0.46305,0 0.86548,0.17784 1.26172,0.35742 -0.0213,0.0283 -0.006,0.0663 -0.0215,0.0977 -0.3898,-0.17823 -0.78417,-0.35937 -1.24023,-0.35937 -1.69297,0 -3.06641,1.37345 -3.06641,3.0664 0,1.69297 1.37337,3.06641 3.06641,3.06641 1.69304,0 3.0664,-1.3733 3.0664,-3.06641 0,-0.43413 -0.17347,-0.81085 -0.33593,-1.18555 0.0336,-0.0138 0.0708,-0.005 0.10156,-0.0254 0.16439,0.38174 0.33008,0.769 0.33008,1.21094 0,1.74464 -1.41742,3.16211 -3.16211,3.16211 -1.74467,0 -3.16211,-1.41741 -3.16211,-3.16211 0,-1.74468 1.41744,-3.16211 3.16211,-3.16211 z m 2.60351,0.22266 c 0.0201,0.0469 0.0404,0.0937 0.0606,0.14062 l 0.0527,0.12305 0.12305,0.0488 c 0.0474,0.0191 0.0952,0.0375 0.14258,0.0566 l -0.54102,0.55469 -0.28125,-0.0937 -0.0976,-0.27735 z m -2.60351,1.08398 c 0.23469,0 0.42629,0.11726 0.63281,0.19727 l -0.0469,0.0469 c -0.18876,-0.0686 -0.3739,-0.14843 -0.58593,-0.14843 -0.97027,0 -1.75977,0.7895 -1.75977,1.75976 0,0.97028 0.78937,1.75977 1.75977,1.75977 0.9704,0 1.75976,-0.78922 1.75976,-1.75977 0,-0.1707 -0.0563,-0.32404 -0.10156,-0.48047 l 0.0449,-0.0469 c 0.0554,0.17504 0.15039,0.33388 0.15039,0.52734 0,1.02228 -0.83124,1.85352 -1.85351,1.85352 -1.02226,0 -1.85547,-0.83115 -1.85547,-1.85352 0,-1.02235 0.83312,-1.85547 1.85547,-1.85547 z m -0.33399,1.63086 c -0.0134,0.16955 -0.0722,0.32213 0.0156,0.46485 -0.0768,-0.0956 -0.24024,-0.10585 -0.24024,-0.24024 0,-0.12565 0.15667,-0.13206 0.22461,-0.22461 z m 0.19727,0.64649 c 0.0844,0.0497 0.17431,-0.0149 0.27148,0.002 -0.0652,0.0261 -0.0593,0.13481 -0.13476,0.13477 -0.0765,0 -0.0708,-0.10985 -0.13672,-0.13672 z"
         id="path4566"
         sodipodi:nodetypes="ccccssscccccccccccssssccssscccscccccccsccssssccsssssccscccccccc" /><path
         style="color:#000000;fill:#ffdf6a;fill-rule:evenodd;stroke-width:0.648615;stroke-linecap:square;-inkscape-stroke:none;paint-order:stroke fill markers"
         d="m 151.30321,115.91384 -1.02127,1.04289 0.14449,0.41038 -1.76584,1.80369 a 0.19931196,0.16897183 44.393274 0 0 0.0241,0.25899 0.19931196,0.16897183 44.393274 0 0 0.25999,0.0187 l 1.76634,-1.8037 0.41233,0.13565 1.02128,-1.04338 c -0.19681,-0.0795 -0.39392,-0.15885 -0.59075,-0.23836 -0.0836,-0.19495 -0.16704,-0.38989 -0.25065,-0.58485 z m -2.71192,0.025 c -1.92088,0 -3.48646,1.56557 -3.48646,3.48647 0,1.92091 1.56558,3.48648 3.48646,3.48648 1.92091,0 3.48697,-1.56557 3.48697,-3.48648 0,-0.64274 -0.17536,-1.24554 -0.48066,-1.76338 l -0.29193,0.29783 a 0.25538185,0.25538185 0 0 1 -0.26195,0.0634 l -0.11649,-0.0379 c 0.25756,0.41799 0.40645,0.91094 0.40645,1.44 0,1.51898 -1.22341,2.7419 -2.74239,2.7419 -1.51897,0 -2.7414,-1.22292 -2.7414,-2.7419 0,-1.51896 1.22243,-2.7414 2.7414,-2.7414 0.54319,0 1.04883,0.15628 1.47391,0.42659 l -0.0245,-0.0683 a 0.25538185,0.25538185 0 0 1 0.0594,-0.26392 l 0.31503,-0.32241 c -0.53114,-0.32757 -1.15603,-0.51702 -1.82384,-0.51702 z m 0,1.3078 c -1.199,0 -2.17867,0.97966 -2.17867,2.17867 0,1.19902 0.97967,2.17917 2.17867,2.17917 1.19901,0 2.17917,-0.98015 2.17917,-2.17917 0,-0.41839 -0.1195,-0.80999 -0.32584,-1.14266 l -0.54209,0.5534 c 0.0803,0.17952 0.12533,0.37881 0.12533,0.58926 0,0.79709 -0.63949,1.43608 -1.43657,1.43608 -0.79707,0 -1.43558,-0.63899 -1.43558,-1.43608 0,-0.79707 0.63851,-1.43557 1.43558,-1.43557 0.25283,0 0.48976,0.0648 0.69543,0.17791 l 0.53029,-0.54159 c -0.3497,-0.2392 -0.77217,-0.37942 -1.22572,-0.37942 z m 0,1.2955 a 0.88314371,0.88314371 0 0 0 -0.88316,0.88317 0.88314371,0.88314371 0 0 0 0.88316,0.88318 0.88314371,0.88314371 0 0 0 0.88367,-0.88318 0.88314371,0.88314371 0 0 0 -0.0118,-0.14105 l -0.33615,0.34354 c -0.17909,0.18168 -0.45824,0.14307 -0.62024,-0.0147 a 0.25538185,0.25538185 0 0 1 0,-0.002 c -0.16127,-0.15861 -0.20778,-0.43535 -0.03,-0.61827 a 0.25538185,0.25538185 0 0 1 0.002,0 l 0.39564,-0.40398 a 0.88314371,0.88314371 0 0 0 -0.28309,-0.0467 z"
         id="path4568" /></g></g></svg>
