<?xml version="1.0" encoding="UTF-8" standalone="no"?>
<!DOCTYPE svg PUBLIC "-//W3C//DTD SVG 1.1//EN" "http://www.w3.org/Graphics/SVG/1.1/DTD/svg11.dtd">
<svg width="100%" height="100%" viewBox="0 0 218 129" version="1.1" xmlns="http://www.w3.org/2000/svg" xmlns:xlink="http://www.w3.org/1999/xlink" xml:space="preserve" xmlns:serif="http://www.serif.com/" style="fill-rule:evenodd;clip-rule:evenodd;stroke-linejoin:round;stroke-miterlimit:2;">
    <g transform="matrix(1,0,0,1,-41,-19.41)">
        <path d="M150,124.29C156.75,124.29 163.5,121.24 169.21,115.15L259,19.41L228.73,19.41C219.83,19.41 211.15,23.47 203.91,31L150,87.16L150,124.29Z" style="fill:#ffdd4c;fill-rule:nonzero;"/>
        <path d="M150,124.29L150,87.16L96.09,31C88.85,23.47 80.17,19.41 71.27,19.41L41,19.41L130.83,115.15C136.5,121.24 143.25,124.29 150,124.29Z" style="fill:#f9a023;fill-rule:nonzero;"/>
        <path d="M130.79,115.15L41,19.41L124.1,130.11L127.1,134.44C133.44,143.64 141.75,148.24 150.1,148.24L150.1,124.24C143.25,124.29 136.5,121.24 130.79,115.15Z" style="fill:#d5611d;fill-rule:nonzero;"/>
        <path d="M169.21,115.15C163.5,121.24 156.75,124.29 150,124.29L150,148.29C158.31,148.29 166.62,143.69 173,134.49L176,130.16L216.82,80.84L259,19.41L169.21,115.15Z" style="fill:#f9a023;fill-rule:nonzero;"/>
    </g>
</svg>
