<?xml version="1.0" encoding="UTF-8" standalone="no"?>
<!DOCTYPE svg PUBLIC "-//W3C//DTD SVG 1.1//EN" "http://www.w3.org/Graphics/SVG/1.1/DTD/svg11.dtd">
<svg width="100%" height="100%" viewBox="0 0 232 164" version="1.1" xmlns="http://www.w3.org/2000/svg" xmlns:xlink="http://www.w3.org/1999/xlink" xml:space="preserve" xmlns:serif="http://www.serif.com/" style="fill-rule:evenodd;clip-rule:evenodd;stroke-linejoin:round;stroke-miterlimit:2;">
    <g transform="matrix(1,0,0,1,-34.9739,-17.151)">
        <g transform="matrix(1,0,0,1,-0.855,0)">
            <g transform="matrix(1,0,0,1,0.855,0)">
                <path d="M162.931,131.648L256.459,19.41L266.179,25.022L258.595,30.003L261.771,31.837L253.478,37.284L256.904,39.262L246.651,45.996L250.491,48.213L242.382,53.539L245.1,55.108L236.606,60.688L239.686,62.466L231.172,68.058L234.241,69.83L225.677,75.455L228.415,77.036L219.874,82.645L222.757,84.31L212.46,91.073L216.253,93.262L206.054,99.961L209.825,102.138L199.027,109.231L202.977,111.512L190.363,119.797L194.926,122.432L180.894,131.648L187.795,131.648L150,180.707L113.352,131.648L120.254,131.648L106.221,122.432L110.785,119.797L98.171,111.512L102.121,109.231L91.322,102.138L95.094,99.961L84.895,93.262L88.687,91.073L78.391,84.31L81.274,82.645L72.733,77.036L75.471,75.455L66.907,69.83L69.976,68.058L61.462,62.466L64.542,60.688L56.048,55.108L58.766,53.539L50.657,48.213L54.497,45.996L44.244,39.262L47.669,37.284L39.377,31.837L42.553,30.003L34.968,25.022L44.688,19.41L138.216,131.648L162.931,131.648Z" style="fill:#5e5e5e;"/>
            </g>
            <g transform="matrix(1,0,0,1,0.855,0)">
                <path d="M150,171.695L150,151.169C159.361,151.392 167.538,146.851 173.131,139.701L175.996,139.701L150,171.695Z" style="fill:#696969;"/>
            </g>
            <g transform="matrix(1,0,0,1,0.855,0)">
                <path d="M113.352,131.648L120.254,131.648L106.221,122.432L110.785,119.797L98.171,111.512L102.121,109.231L91.322,102.138L95.094,99.961L84.895,93.262L88.687,91.073L78.391,84.31L81.274,82.645L72.733,77.036L75.471,75.455L66.907,69.83L69.976,68.058L61.462,62.466L64.542,60.688L56.048,55.108L58.766,53.539L50.657,48.213L54.497,45.996L44.244,39.262L47.669,37.284L39.377,31.837L42.553,30.003L34.968,25.022L44.688,19.41C44.688,19.41 44.11,22.658 44.11,22.658C44.11,22.658 39.776,25.16 39.776,25.16L47.361,30.142L44.185,31.975L52.477,37.422L49.052,39.4L59.305,46.134C59.305,46.134 55.465,48.352 55.465,48.352L63.573,53.678L60.855,55.247L69.35,60.826L66.27,62.604L74.784,68.197L71.715,69.969L80.279,75.594L77.541,77.174L86.081,82.784L83.199,84.448L93.495,91.211C93.495,91.211 89.703,93.401 89.703,93.401L99.902,100.099C99.902,100.099 96.13,102.277 96.13,102.277L106.929,109.369C106.929,109.369 102.979,111.65 102.979,111.65L115.593,119.935C115.593,119.935 111.029,122.57 111.029,122.57L128.694,134.172C128.694,134.172 118.388,134.172 118.388,134.172L150,176.49L182.76,134.172C182.76,134.172 172.454,134.172 172.454,134.172L190.118,122.57C190.118,122.57 185.555,119.935 185.555,119.935L198.169,111.65C198.169,111.65 194.219,109.369 194.219,109.369L205.018,102.277C205.018,102.277 201.246,100.099 201.246,100.099L211.445,93.401C211.445,93.401 207.652,91.211 207.652,91.211L217.949,84.448L215.066,82.784L223.607,77.174L220.869,75.594L229.433,69.969L226.364,68.197L234.878,62.604L231.798,60.826L240.292,55.247L237.574,53.678L245.683,48.352C245.683,48.352 241.843,46.134 241.843,46.134L252.096,39.4L248.67,37.422L256.963,31.975L253.787,30.142L261.371,25.16C261.371,25.16 257.038,22.658 257.038,22.658C257.038,22.658 256.459,19.41 256.459,19.41L266.179,25.022L258.595,30.003L261.771,31.837L253.478,37.284L256.904,39.262L246.651,45.996L250.491,48.213L242.382,53.539L245.1,55.108L236.606,60.688L239.686,62.466L231.172,68.058L234.241,69.83L225.677,75.455L228.415,77.036L219.874,82.645L222.757,84.31L212.46,91.073L216.253,93.262L206.054,99.961L209.825,102.138L199.027,109.231L202.977,111.512L190.363,119.797L194.926,122.432L180.894,131.648L187.795,131.648L150,180.707L113.352,131.648Z" style="fill:#8d8d8d;"/>
            </g>
        </g>
        <g>
            <path d="M165.287,71.235L203.91,31C211.15,23.47 219.83,19.41 228.73,19.41L259,19.41L169.21,115.15C163.5,121.24 156.75,124.29 150,124.29L150,97.472C160.925,97.472 169.794,90.282 169.794,81.425C169.794,77.557 168.103,74.007 165.287,71.235Z" style="fill:#ffdd4c;fill-rule:nonzero;"/>
            <path d="M150,97.472L150,124.29C143.25,124.29 136.5,121.24 130.83,115.15L41,19.41L71.27,19.41C80.17,19.41 88.85,23.47 96.09,31L134.713,71.235C131.897,74.007 130.206,77.557 130.206,81.425C130.206,90.282 139.075,97.472 150,97.472Z" style="fill:#f9a023;fill-rule:nonzero;"/>
            <path d="M149.684,124.288C143.04,124.194 136.412,121.145 130.83,115.15L41,19.41L56.95,19.41L80.872,44.906L91.091,40.242C91.409,40.097 92.846,39.382 92.846,39.382L93.296,40.62C93.296,40.62 91.784,41.318 91.617,41.394L81.787,45.88L100.385,65.702L110.838,59.415C111.137,59.235 112.019,58.671 112.019,58.671L112.592,59.808C112.592,59.808 111.637,60.412 111.491,60.5L101.271,66.647L130.83,98.15C136.412,104.145 143.04,107.194 149.684,107.288L150,107.29L150.316,107.288C156.96,107.194 163.588,104.145 169.17,98.15L198.729,66.647L188.509,60.5C188.363,60.412 187.408,59.808 187.408,59.808L187.981,58.671C187.981,58.671 188.863,59.235 189.162,59.415L199.615,65.702L218.213,45.88L208.383,41.394C208.216,41.318 206.704,40.62 206.704,40.62L207.154,39.382C207.154,39.382 208.591,40.097 208.909,40.242L219.128,44.906L243.05,19.41L259,19.41L169.17,115.15C163.588,121.145 156.96,124.194 150.316,124.288L150,124.29L149.684,124.288Z" style="fill-opacity:0.25;fill-rule:nonzero;"/>
        </g>
        <g>
            <path d="M130.79,115.15L41,19.41L124.1,130.11L127.1,134.44C133.44,143.64 141.75,148.24 150.1,148.24L150.1,124.24C143.25,124.29 136.5,121.24 130.79,115.15Z" style="fill:#d5611d;fill-rule:nonzero;"/>
            <path d="M169.21,115.15C163.5,121.24 156.75,124.29 150,124.29L150,148.29C158.31,148.29 166.62,143.69 173,134.49L176,130.16L216.82,80.84L259,19.41L169.21,115.15Z" style="fill:#f9a023;fill-rule:nonzero;"/>
        </g>
        <g>
            <g transform="matrix(-1,0,0,1,300,0)">
                <path d="M150,124.29C143.25,124.29 136.5,121.24 130.83,115.15L41,19.41C40.235,18.678 40.652,17.075 41.59,17.075L109.089,17.978C109.089,17.978 66.778,21.726 54.849,24.084C85.69,57.46 139.109,117.037 141.134,113.046L150,27.737L150,124.29Z" style="fill:#730c0e;fill-rule:nonzero;"/>
            </g>
            <path d="M150,124.29C143.25,124.29 136.5,121.24 130.83,115.15L41,19.41C40.235,18.678 40.652,17.075 41.59,17.075L109.089,17.978C109.089,17.978 66.778,21.726 54.849,24.084C85.69,57.46 139.109,117.037 141.134,113.046L150,27.737L150,124.29Z" style="fill:#4f0405;fill-rule:nonzero;"/>
        </g>
        <g>
            <g>
                <g>
                    <path d="M91.354,40.818C91.962,37.843 93.041,35.058 94.578,32.459C100.169,32.162 105.713,32.35 111.219,32.932C109.699,36.451 107.808,40.044 104.976,43.82C100.089,43.541 95.523,42.592 91.354,40.818Z" style="fill:#8d8d8d;"/>
                    <path d="M94.578,32.459C100.082,32.167 105.541,32.344 110.961,32.905L111.219,32.932C107.095,33.29 103.106,33.935 99.461,35.306C97.914,33.908 96.311,32.986 94.657,32.483L94.578,32.459Z" style="fill:#6c6c6c;"/>
                    <path d="M111.184,33.014C109.682,36.48 107.815,40.017 105.042,43.732L104.976,43.82C103.629,40.586 101.958,37.613 99.461,35.306C96.56,36.591 93.865,38.448 91.354,40.818C91.957,37.866 93.024,35.101 94.542,32.52L94.578,32.459C96.26,32.957 97.89,33.886 99.461,35.306C103.106,33.935 107.095,33.29 111.219,32.932L111.184,33.014Z" style="fill:#757575;"/>
                </g>
                <g transform="matrix(0.811067,-0.0761974,0.0761974,0.811067,33.96,33.8125)">
                    <path d="M91.354,40.818C91.962,37.843 93.041,35.058 94.578,32.459C100.169,32.162 105.713,32.35 111.219,32.932C109.699,36.451 107.808,40.044 104.976,43.82C100.089,43.541 95.523,42.592 91.354,40.818Z" style="fill:#8d8d8d;"/>
                    <path d="M94.578,32.459C100.082,32.167 105.541,32.344 110.961,32.905L111.219,32.932C107.095,33.29 103.106,33.935 99.461,35.306C97.914,33.908 96.311,32.986 94.657,32.483L94.578,32.459Z" style="fill:#6c6c6c;"/>
                    <path d="M111.184,33.014C109.682,36.48 107.815,40.017 105.042,43.732L104.976,43.82C103.629,40.586 101.958,37.613 99.461,35.306C96.56,36.591 93.865,38.448 91.354,40.818C91.957,37.866 93.024,35.101 94.542,32.52L94.578,32.459C96.26,32.957 97.89,33.886 99.461,35.306C103.106,33.935 107.095,33.29 111.219,32.932L111.184,33.014Z" style="fill:#757575;"/>
                </g>
            </g>
            <g transform="matrix(-1,0,0,1,300.114,0)">
                <g>
                    <path d="M91.354,40.818C91.962,37.843 93.041,35.058 94.578,32.459C100.169,32.162 105.713,32.35 111.219,32.932C109.699,36.451 107.808,40.044 104.976,43.82C100.089,43.541 95.523,42.592 91.354,40.818Z" style="fill:#8d8d8d;"/>
                    <path d="M94.578,32.459C100.082,32.167 105.541,32.344 110.961,32.905L111.219,32.932C107.095,33.29 103.106,33.935 99.461,35.306C97.914,33.908 96.311,32.986 94.657,32.483L94.578,32.459Z" style="fill:#6c6c6c;"/>
                    <path d="M111.184,33.014C109.682,36.48 107.815,40.017 105.042,43.732L104.976,43.82C103.629,40.586 101.958,37.613 99.461,35.306C96.56,36.591 93.865,38.448 91.354,40.818C91.957,37.866 93.024,35.101 94.542,32.52L94.578,32.459C96.26,32.957 97.89,33.886 99.461,35.306C103.106,33.935 107.095,33.29 111.219,32.932L111.184,33.014Z" style="fill:#757575;"/>
                </g>
                <g transform="matrix(0.811067,-0.0761974,0.0761974,0.811067,33.96,33.8125)">
                    <path d="M91.354,40.818C91.962,37.843 93.041,35.058 94.578,32.459C100.169,32.162 105.713,32.35 111.219,32.932C109.699,36.451 107.808,40.044 104.976,43.82C100.089,43.541 95.523,42.592 91.354,40.818Z" style="fill:#8d8d8d;"/>
                    <path d="M94.578,32.459C100.082,32.167 105.541,32.344 110.961,32.905L111.219,32.932C107.095,33.29 103.106,33.935 99.461,35.306C97.914,33.908 96.311,32.986 94.657,32.483L94.578,32.459Z" style="fill:#6c6c6c;"/>
                    <path d="M111.184,33.014C109.682,36.48 107.815,40.017 105.042,43.732L104.976,43.82C103.629,40.586 101.958,37.613 99.461,35.306C96.56,36.591 93.865,38.448 91.354,40.818C91.957,37.866 93.024,35.101 94.542,32.52L94.578,32.459C96.26,32.957 97.89,33.886 99.461,35.306C103.106,33.935 107.095,33.29 111.219,32.932L111.184,33.014Z" style="fill:#757575;"/>
                </g>
            </g>
        </g>
    </g>
</svg>
