<svg xmlns="http://www.w3.org/2000/svg" xmlns:xlink="http://www.w3.org/1999/xlink" viewBox="0 0 71.31006 53.66185"><defs><style>.cls-1{fill:#35394c;}.cls-2{fill:#2c313f;}.cls-3{fill:#303444;}.cls-4{fill:#262a38;}.cls-5{fill:#5d5870;}.cls-6{fill:#6a6982;}.cls-7{fill:#49465b;}.cls-8{fill:#334b51;}.cls-9{fill:#5a7e82;}.cls-10,.cls-13{opacity:0.74;}.cls-10{fill:url(#radial-gradient);}.cls-11{fill:#243040;}.cls-12{fill:#464359;}.cls-13{fill:url(#radial-gradient-2);}</style><radialGradient id="radial-gradient" cx="98.52123" cy="9.31731" r="4.97898" gradientTransform="translate(-98.96581 36.93875) scale(1.09291 1.04885)" gradientUnits="userSpaceOnUse"><stop offset="0.27451" stop-color="#ffd44a"/><stop offset="1" stop-color="#ff4e00" stop-opacity="0"/></radialGradient><radialGradient id="radial-gradient-2" cx="132.67279" cy="9.56615" r="4.97898" gradientTransform="matrix(-1.09291, 0, 0, 1.04885, 207.59904, 36.93875)" xlink:href="#radial-gradient"/></defs><g id="Layer_3" data-name="Layer 3"><path class="cls-1" d="M32.81178,1.02183s-4.40318.68012-4.9277.5927-4.27225-.55266-4.27225-.55266.51322,2.336.56567,2.3535,6.08439,1.15393,6.13684,1.01406S32.81178,1.02183,32.81178,1.02183Z"/><path class="cls-2" d="M20.80833,1.74972V20.29217a2.05859,2.05859,0,0,1-1.91,2.17245H10.69823a2.09263,2.09263,0,0,1-1.8899-2.43083l.73-6.7875.62-5.81287.55994-5.17876A2.3786,2.3786,0,0,1,12.95824,0H19.2683A1.6501,1.6501,0,0,1,20.80833,1.74972Z"/><path class="cls-3" d="M18.62828,13.8452V35.13544a2.35357,2.35357,0,0,1-2.18005,2.48961H7.03832a2.39511,2.39511,0,0,1-2.17-2.79487l.94006-8.7369.6399-5.96553.6101-5.69539A2.73563,2.73563,0,0,1,9.61827,11.8371h7.25A1.901,1.901,0,0,1,18.62828,13.8452Z"/><path class="cls-4" d="M10.24828,26.563l-4.43995-.46969.6399-5.96553c1.53.76333,3.25,1.71452,3.25,1.71452h.28Z"/><path class="cls-4" d="M13.57835,13.669l-4.04-.42274.62-5.81287c1.42.71632,2.87,1.51484,2.87,1.51484h.28Z"/><path class="cls-5" d="M20.80833,1.56186v6.2356A1.83076,1.83076,0,0,1,19.10826,9.7351H11.54833a1.57747,1.57747,0,0,1-1.43006-1.84368l.22009-2.07855.39991-3.74607A2.18083,2.18083,0,0,1,12.78832,0h6.6499A1.47586,1.47586,0,0,1,20.80833,1.56186Z"/><path class="cls-5" d="M18.62828,13.63376v7.16336a.84508.84508,0,0,1-.01.16442,2.06518,2.06518,0,0,1-1.94006,2.05505H8.00829a1.81279,1.81279,0,0,1-1.65-2.11382l.24011-2.24291.48-4.43894A2.50677,2.50677,0,0,1,9.42821,11.8371h7.63012A1.69666,1.69666,0,0,1,18.62828,13.63376Z"/><path class="cls-1" d="M2.53175,53.39183h10.9a2.35732,2.35732,0,0,0,1.03-.23,2.84014,2.84014,0,0,0,1.49-2.55v-23.65a2.14523,2.14523,0,0,0-2.03-2.23h-8.4a3.11332,3.11332,0,0,0-2.97,2.89l-.82007,7.36-1.71,15.3A2.69661,2.69661,0,0,0,2.53175,53.39183Z"/><path class="cls-5" d="M15.94823,26.8683v8.51377a2.47759,2.47759,0,0,1-2.25,2.654H3.6483a2.15121,2.15121,0,0,1-1.9-2.5248l.32006-3.02968.51-4.92037a2.94978,2.94978,0,0,1,2.72-2.83014h8.84A1.99772,1.99772,0,0,1,15.94823,26.8683Z"/><path class="cls-4" d="M14.45824,53.13769v.02351a2.32319,2.32319,0,0,1-1.03.23487H2.52831a2.70135,2.70135,0,0,1-2.51-3.112l1.71-15.30126,2.30005.28182-.77,2.72441s-1.15992,9.35925,0,11.96626C4.42821,52.55053,6.78832,51.98688,14.45824,53.13769Z"/><path class="cls-6" d="M15.94823,34.654v.72807a2.47759,2.47759,0,0,1-2.25,2.654H3.6483a2.15121,2.15121,0,0,1-1.9-2.5248l.32006-3.02968a12.81838,12.81838,0,0,0,9.26,3.85171C14.53832,36.33326,15.62828,35.46428,15.94823,34.654Z"/><path class="cls-6" d="M15.94823,26.8683V31.272c-.49-6.36475-10-6.54093-10-6.54093h8.19006A1.99772,1.99772,0,0,1,15.94823,26.8683Z"/><path class="cls-6" d="M18.61827,20.96154a2.06518,2.06518,0,0,1-1.94006,2.05505H8.00829a1.81279,1.81279,0,0,1-1.65-2.11382l.24011-2.24291a11.8173,11.8173,0,0,0,8.23,3.21761C16.97826,21.87747,18.07835,21.46649,18.61827,20.96154Z"/><path class="cls-6" d="M18.62828,13.63376v2.34863c-1.72-4.02789-8.65-4.14529-8.65-4.14529h7.08007A1.69666,1.69666,0,0,1,18.62828,13.63376Z"/><path class="cls-7" d="M9.61424,28.6655c-.00256-1.39661-7.63472-2.00421-4.37683,2.718s9.222,1.76463,9.222,1.76463-6.27382.39866-7.66056-2.56707S8.505,28.10282,9.61424,28.6655Z"/><path class="cls-6" d="M20.80833,7.62128v.17618A1.83076,1.83076,0,0,1,19.10826,9.7351H11.54833a1.57747,1.57747,0,0,1-1.43006-1.84368l.22009-2.07855a9.94,9.94,0,0,0,7.03992,2.86532C19.53832,8.67819,20.44823,8.16149,20.80833,7.62128Z"/><path class="cls-7" d="M16.81727,2.51c-1.01867-.65667-5.00713-1.158-3.88837,1.713,1.73808,4.46031,6.23475.0324,6.23475.0324s-3.97343,1.59553-4.53947-.879C14.221,1.61357,16.81727,2.51,16.81727,2.51Z"/><path class="cls-7" d="M14.02865,15.09177c-.22057-1.18141-8.081.27893-4.02917,3.43288S16.801,16.582,16.801,16.582s-3.46419,3.0109-5.338.85954S12.81219,14.90251,14.02865,15.09177Z"/><path class="cls-7" d="M12.48209,23.01659s3.25357-.54559,3.46614-.552.73.552.73.552l-1.63989.746Z"/><path class="cls-8" d="M6.64345,48.40346a16.50535,16.50535,0,0,0,1.643.67275,1.03118,1.03118,0,0,0,.448.08118,1.48158,1.48158,0,0,0,.67827-.35794,2.66721,2.66721,0,0,0,.86536-.93091l-1.77536-.25375c-.38115-.05448-.81571-.23146-1.17941.082-.11832.102-.22928.21628-.33774.32888C6.93505,48.07819,6.69394,48.40547,6.64345,48.40346Z"/><path class="cls-9" d="M8.71675,49.00426a.33308.33308,0,0,0,.16855-.06,5.264,5.264,0,0,0,.48743-.32.923.923,0,0,0,.39251-.49115,7.78623,7.78623,0,0,1-.79016.36843q-.19444.07751-.38934.14241c-.07858.02618-.24628.04052-.17962.16256A.45838.45838,0,0,0,8.71675,49.00426Z"/><path class="cls-10" d="M8.23174,44.97108,2.61418,42.20243v9.01762L8.30591,47.8195l6.29528,2.9284s.25224-8.67879.19425-8.54371C14.73778,42.33848,8.23174,44.97108,8.23174,44.97108Z"/><path class="cls-8" d="M6.28034,45.46363l1.79221.95959a.71649.71649,0,0,0,.36118.11782.90734.90734,0,0,0,.36508-.13793l2.78338-1.51792c-.0743.04053-.43058-.48669-.50013-.56075q-.27209-.28974-.5572-.56146a13.51442,13.51442,0,0,0-1.17808-1.00179c-.2911-.21982-.69693-.68472-1.07261-.52349-.32163.138-.58121.74139-.79368,1.11514Q6.86194,44.4409,6.28034,45.46363Z"/><path class="cls-9" d="M8.65953,46.1216a5.88975,5.88975,0,0,1,1.18307-.60881,5.99013,5.99013,0,0,0,.82542-.47662.33206.33206,0,0,0,.16655-.27182.19325.19325,0,0,0-.05748-.11354,4.17416,4.17416,0,0,0-1.22433-1.0833.8676.8676,0,0,0-.48723-.0925.45555.45555,0,0,0-.38333.23338,1.624,1.624,0,0,0-.0169.65155q.016.4222.01542.8411Q8.68012,45.66442,8.65953,46.1216Z"/><path class="cls-2" d="M50.50029,2.01071V20.55317a2.05859,2.05859,0,0,0,1.91,2.17245h8.20007a2.09263,2.09263,0,0,0,1.8899-2.43084l-.73-6.78749-.62-5.81287-.55994-5.17876A2.37859,2.37859,0,0,0,58.35038.261H52.04033A1.6501,1.6501,0,0,0,50.50029,2.01071Z"/><path class="cls-3" d="M52.68034,14.1062V35.39644a2.35357,2.35357,0,0,0,2.18005,2.48961h9.40992a2.39511,2.39511,0,0,0,2.17-2.79487l-.94006-8.7369-.6399-5.96553-.6101-5.69539a2.73563,2.73563,0,0,0-2.55994-2.59526h-7.25A1.901,1.901,0,0,0,52.68034,14.1062Z"/><path class="cls-4" d="M61.06034,26.824l4.44-.46968-.6399-5.96553c-1.53.76333-3.25,1.71452-3.25,1.71452h-.28Z"/><path class="cls-4" d="M57.73027,13.93l4.04-.42273-.62-5.81287c-1.42.71632-2.87,1.51484-2.87,1.51484h-.28Z"/><polygon class="cls-5" points="56.273 44.448 50.504 40.011 48.946 40.589 56.849 48.371 56.273 44.448"/><path class="cls-1" d="M44.16032,40.01155l6.64,6.02424.02.02343,5.45,4.95565V46.61119l-3.37-3.17066h-.01l-3.65-3.429Z"/><path class="cls-11" d="M50.80033,46.03579c-2.55-2.9828,1.84-2.61877,2.09-2.59526l-3.65-3.429h-5.08Z"/><path class="cls-5" d="M50.50029,1.82286v6.2356A1.83077,1.83077,0,0,0,52.20036,9.9961H59.7603a1.57747,1.57747,0,0,0,1.43005-1.84368l-.22009-2.07856L60.57035,2.3278a2.18082,2.18082,0,0,0-2.05-2.0668H51.8704A1.47585,1.47585,0,0,0,50.50029,1.82286Z"/><rect class="cls-4" x="20.8263" y="4.85538" width="29.67821" height="10.5718" transform="translate(71.33081 20.28255) rotate(-180)"/><path class="cls-2" d="M23.16837,8.68081H48.16245a0,0,0,0,1,0,0V13.662a1.76516,1.76516,0,0,1-1.76516,1.76516H24.93352A1.76516,1.76516,0,0,1,23.16837,13.662V8.68081a0,0,0,0,1,0,0Z" transform="translate(71.33081 24.10798) rotate(-180)"/><path class="cls-5" d="M20.8318,2.57188V7.14183a1.44174,1.44174,0,0,0,1.31006,1.54H49.19179a1.44173,1.44173,0,0,0,1.30993-1.54V2.57188a1.4515,1.4515,0,0,0-1.30993-1.55005h-16.38s-.56006.16-1.32007.37c-1.17993.32-2.83.75-3.61987.86a.45351.45351,0,0,1-.08008.01.82568.82568,0,0,1-.32007,0c-.46-.13-3.25988-1.02-3.85986-1.2a.031.031,0,0,0-.02-.01c-.59009-.02-.92-.03-.92-.03h-.52991A1.45151,1.45151,0,0,0,20.8318,2.57188Z"/><path class="cls-5" d="M52.68034,13.89476v7.16336a.84508.84508,0,0,0,.01.16442,2.06519,2.06519,0,0,0,1.94006,2.05505h8.66992a1.81279,1.81279,0,0,0,1.65-2.11383l-.24011-2.2429-.48-4.43894a2.50677,2.50677,0,0,0-2.34986-2.38382H54.25029A1.69666,1.69666,0,0,0,52.68034,13.89476Z"/><rect class="cls-4" x="18.62594" y="17.38037" width="34.05547" height="9.43814" transform="translate(71.30736 44.19887) rotate(-180)"/><path class="cls-3" d="M20.8263,21.77443H50.48106a0,0,0,0,1,0,0v2.294a2.7501,2.7501,0,0,1-2.7501,2.7501H23.57641a2.7501,2.7501,0,0,1-2.7501-2.7501v-2.294A0,0,0,0,1,20.8263,21.77443Z" transform="translate(71.30736 48.59294) rotate(-180)"/><path class="cls-5" d="M18.63185,14.53184v5.69a1.445,1.445,0,0,0,1.30994,1.55h31.42a1.44574,1.44574,0,0,0,1.32-1.55v-5.69a1.81546,1.81546,0,0,0-.13-.67,1.32427,1.32427,0,0,0-1.18994-.87H36.67177a41.22218,41.22218,0,0,1-5.74,2.21c-.88.06005-5.28992-1.93-5.92-2.21H19.94179A1.44162,1.44162,0,0,0,18.63185,14.53184Z"/><path class="cls-12" d="M18.63185,14.94188v4.65a37.20147,37.20147,0,0,0,13.36987-.67S19.36183,18.56187,18.63185,14.94188Z"/><path class="cls-1" d="M55.36183,27.22185v23.65a2.8399,2.8399,0,0,0,1.49,2.55,2.36306,2.36306,0,0,0,1.03.24h10.8999a2.70559,2.70559,0,0,0,2.51-3.12l-1.71-15.3-.82007-7.36a3.11332,3.11332,0,0,0-2.97-2.89h-8.3999A2.14514,2.14514,0,0,0,55.36183,27.22185Z"/><path class="cls-5" d="M55.36039,27.1293v8.51377a2.47759,2.47759,0,0,0,2.25,2.654H67.66032a2.15121,2.15121,0,0,0,1.9-2.5248l-.32006-3.02968-.51-4.92038a2.94977,2.94977,0,0,0-2.72-2.83013h-8.84A1.99772,1.99772,0,0,0,55.36039,27.1293Z"/><rect class="cls-4" x="15.92351" y="31.27535" width="39.43342" height="10.45056" rx="1.36196" transform="translate(71.28045 73.00126) rotate(-180)"/><path class="cls-12" d="M52.62149,17.11937s-5.51987.03029-8.1362-.876-10.55495.876-10.55495.876,7.508-.76853,10.23.30747a81.42176,81.42176,0,0,0,8.52,2.38867Z"/><rect class="cls-1" x="18.08393" y="31.27535" width="35.11259" height="10.45056" rx="1.36196" transform="translate(71.28045 73.00126) rotate(-180)"/><path class="cls-5" d="M15.92177,27.60185v7.35a1.44575,1.44575,0,0,0,1.31994,1.55H54.04176a1.44585,1.44585,0,0,0,1.32007-1.55v-7.35a1.44584,1.44584,0,0,0-1.32007-1.55h-36.8a1.375,1.375,0,0,0-1.28991,1.23A1.65406,1.65406,0,0,0,15.92177,27.60185Z"/><path class="cls-4" d="M56.85038,53.39868v.02351a2.32309,2.32309,0,0,0,1.03.23488H68.78032a2.70137,2.70137,0,0,0,2.51-3.112l-1.71-15.30127-2.3.28183.77,2.72441s1.15992,9.35925,0,11.96626C66.88041,52.81153,64.52031,52.24788,56.85038,53.39868Z"/><path class="cls-6" d="M55.36039,34.915v.72807a2.47759,2.47759,0,0,0,2.25,2.654H67.66032a2.15121,2.15121,0,0,0,1.9-2.5248l-.32006-3.02968a12.81838,12.81838,0,0,1-9.26,3.85171C56.77031,36.59426,55.68034,35.72528,55.36039,34.915Z"/><path class="cls-6" d="M55.36039,27.1293V31.533c.49-6.36476,10-6.54093,10-6.54093H57.17033A1.99772,1.99772,0,0,0,55.36039,27.1293Z"/><path class="cls-6" d="M52.69035,21.22254a2.06519,2.06519,0,0,0,1.94006,2.05505h8.66992a1.81279,1.81279,0,0,0,1.65-2.11383l-.24011-2.2429a11.81731,11.81731,0,0,1-8.23,3.2176C54.33036,22.13846,53.23027,21.72748,52.69035,21.22254Z"/><path class="cls-6" d="M52.68034,13.89476v2.34863c1.72-4.02789,8.65-4.14529,8.65-4.14529H54.25029A1.69666,1.69666,0,0,0,52.68034,13.89476Z"/><path class="cls-6" d="M15.92033,31.65045v3.29981a1.44753,1.44753,0,0,0,1.31995,1.55H36.30033S16.5103,35.0324,15.92033,31.65045Z"/><path class="cls-6" d="M22.09037,36.03061s.6.18786,1.54993.46969H52.69035c-1.15883,0-4.34949-4.22414-5.09-4.15705-1.403.12712-4.47,2.90059-6.66,2.85357-2.19006-.0587-14.54.15267-14.54.15267Z"/><path class="cls-7" d="M51.23672,36.5003s-3.59266,2.81619-4.88059,2.82407-2.847-2.72518-2.847-2.72518,3.25831-3.10894,3.86609-3.18854S51.23672,36.5003,51.23672,36.5003Z"/><path class="cls-6" d="M22.67033,12.95532a2.23479,2.23479,0,0,1,.37.03527c2.03.32877,6.46,3.04143,7.54,2.98273,2.17994-.08221,9.51872-1.826,12.92876-1.80258,1.37848.02026,9.04121-.31117,9.17122,5.64477l-.13-5.95594a1.32826,1.32826,0,0,0-1.18994-.869H36.67033a40.86,40.86,0,0,1-5.74,2.20771c-.88.0587-5.29-1.92589-5.92-2.20771-.05005-.02351-.08-.03527-.08-.03527Z"/><path class="cls-7" d="M61.69438,28.9265c.00256-1.39661,7.63472-2.00421,4.37683,2.718s-9.22195,1.76464-9.22195,1.76464,6.27381.39866,7.66055-2.56707S62.80363,28.36382,61.69438,28.9265Z"/><path class="cls-6" d="M50.50029,7.88228v.17618A1.83077,1.83077,0,0,0,52.20036,9.9961H59.7603a1.57747,1.57747,0,0,0,1.43005-1.84368l-.22009-2.07856a9.93994,9.93994,0,0,1-7.03992,2.86533C51.77031,8.93919,50.86039,8.42249,50.50029,7.88228Z"/><path class="cls-12" d="M50.50029,4.26545s-9.86616,2.70763-17.322,1.80841c3.96442,2.35273,17.30274,1.30756,17.30274,1.30756Z"/><path class="cls-4" d="M63.28032,52.59257c-3.10108-.07041-3.10284-1.97625-3.95563-6.471a17.78343,17.78343,0,0,1-1.37216,7.11813Z"/><path class="cls-12" d="M33.58536,4.108S22.8641,7.7636,20.8318,6.07386V3.3025A44.438,44.438,0,0,0,33.58536,4.108Z"/><path class="cls-6" d="M50.50029,1.82286V4.26545C51.15031,1.67019,53.95036.6603,55.95036.261h-4.08A1.47585,1.47585,0,0,0,50.50029,1.82286Z"/><path class="cls-7" d="M54.49135,2.771c1.01867-.65667,5.00713-1.158,3.88837,1.713-1.73808,4.46031-6.23474.0324-6.23474.0324s3.97342,1.59553,4.53946-.879C57.08767,1.87457,54.49135,2.771,54.49135,2.771Z"/><path class="cls-7" d="M57.28,15.35277c.22057-1.18141,8.081.27893,4.02917,3.43288S54.50766,16.843,54.50766,16.843s3.46419,3.0109,5.338.85953S58.49644,15.16351,57.28,15.35277Z"/><path class="cls-6" d="M20.83036,3.3025v3.84A1.443,1.443,0,0,0,22.1403,8.68081h18.82S20.95036,7.8706,20.83036,3.3025Z"/><path class="cls-7" d="M67.19925,38.30981s-.85157,3.38437-.9328,3.4731-1.18734-3.4731-1.18734-3.4731l1.35962-.49033Z"/><path class="cls-7" d="M58.82653,23.27759s-3.25357-.54559-3.46614-.552-.73.552-.73.552l1.6399.746Z"/><path class="cls-8" d="M64.66517,48.66446a16.50535,16.50535,0,0,1-1.643.67275,1.03132,1.03132,0,0,1-.448.08118,1.48151,1.48151,0,0,1-.67826-.35794,2.66723,2.66723,0,0,1-.86537-.93091l1.77536-.25375c.38115-.05448.81571-.23147,1.17941.082.11832.102.22928.21628.33774.32888C64.37358,48.33918,64.61469,48.66647,64.66517,48.66446Z"/><path class="cls-9" d="M62.59187,49.26525a.333.333,0,0,1-.16855-.06,5.264,5.264,0,0,1-.48743-.32.923.923,0,0,1-.39251-.49115,7.7884,7.7884,0,0,0,.79016.36843q.19445.07751.38934.14241c.07858.02617.24628.04052.17962.16256A.45834.45834,0,0,1,62.59187,49.26525Z"/><path class="cls-13" d="M63.07689,45.23208l5.61755-2.76865v9.01762L63.00271,48.0805l-6.29528,2.9284s-.25224-8.67879-.19425-8.54371C56.57084,42.59948,63.07689,45.23208,63.07689,45.23208Z"/><path class="cls-8" d="M65.02828,45.72463l-1.79221.95959a.71658.71658,0,0,1-.36118.11782.90749.90749,0,0,1-.36508-.13793l-2.78338-1.51792c.0743.04052.43058-.48669.50013-.56076q.27208-.28973.55721-.56145a13.50933,13.50933,0,0,1,1.17807-1.00179c.2911-.21982.69693-.68472,1.07261-.52349.32163.138.58121.74139.79369,1.11514Q64.44668,44.7019,65.02828,45.72463Z"/><path class="cls-9" d="M62.6491,46.3826a5.89009,5.89009,0,0,0-1.18308-.60881,5.99174,5.99174,0,0,1-.82542-.47662.33206.33206,0,0,1-.16655-.27183.19328.19328,0,0,1,.05748-.11354,4.17426,4.17426,0,0,1,1.22433-1.08329.86751.86751,0,0,1,.48723-.0925.45555.45555,0,0,1,.38333.23338,1.62387,1.62387,0,0,1,.0169.65155q-.016.42221-.01541.84109Q62.6285,45.92541,62.6491,46.3826Z"/><path class="cls-6" d="M18.63185,18.92186v1.3a1.445,1.445,0,0,0,1.30994,1.55h18.61l6.82007-.39s-2.39014-2.14-4.3-2.24c-.95.19-2.36856.82094-3.04.98592a36.13576,36.13576,0,0,1-7.13269.97147c-1.71389.036-7.12626.36853-10.07279-.261C18.733,20.391,18.63185,18.92186,18.63185,18.92186Z"/><path class="cls-7" d="M46.031,21.77443s-3.72913-2.35715-5.07074-1.64668-7.78193,1.64668-7.78193,1.64668,7.9833,1.21214,8.55354,1.60015S46.031,21.77443,46.031,21.77443Z"/><path class="cls-6" d="M27.87184,2.25187c.78992-.11,2.43994-.54,3.61987-.86.76-.21,1.32007-.37,1.32007-.37h16.38a1.4515,1.4515,0,0,1,1.30993,1.55005v3.9s-.18994-3.7-4.53991-4.2c-1.83094-.21905-8.53973-.62842-10.75-.7A65.52494,65.52494,0,0,0,27.87184,2.25187Z"/><polygon class="cls-7" points="7.738 38.036 5.126 39.331 4.428 38.036 6.28 37.625 7.738 38.036"/><polygon class="cls-6" points="5.126 39.331 4.428 37.802 3.641 37.802 5.126 39.331"/><polygon class="cls-7" points="29.538 36.501 23.168 38.297 21.34 36.501 23.186 35.857 29.538 36.501"/><path class="cls-12" d="M55.396,30.15753s-3.1648,2.23794-5.68469,2.18493,5.64566,2.07892,5.64566,2.07892Z"/><polygon class="cls-7" points="30.789 8.682 26.466 8.035 24.955 8.682 26.63 10.812 30.789 8.682"/><path class="cls-12" d="M15.92177,27.60185v3.26c.79992.04,21.11,1.1,26.89.52,0,0-23.6-5.39-26.86-4.1A1.65406,1.65406,0,0,0,15.92177,27.60185Z"/><path class="cls-6" d="M15.92033,27.59905c7.51625-1.98544,32.85461.5878,35.84,1.16256,3.28735.63292,3.60009,4.1101,3.60009,4.1101V27.59905a1.44763,1.44763,0,0,0-1.32006-1.5501h-36.8A1.44754,1.44754,0,0,0,15.92033,27.59905Z"/><path class="cls-4" d="M10.24828,52.5896s-1.066-.3885-1.31082-2.24364a5.45716,5.45716,0,0,1-1.95231,1.83975l2.45867.85863Z"/><path class="cls-4" d="M8.01173,53.39183h5.42005a2.35732,2.35732,0,0,0,1.03-.23,2.84014,2.84014,0,0,0,1.49-2.55v-5.2c-.11,2.33-.95008,7.15-5.96009,7.15C8.49171,52.56187,7.9518,52.89183,8.01173,53.39183Z"/><path class="cls-4" d="M55.36183,47.17186v3.7a2.8399,2.8399,0,0,0,1.49,2.55,2.36306,2.36306,0,0,0,1.03.24h1.11987c-.32995-.85-.6-1.56-.6-1.56S55.36183,53.98186,55.36183,47.17186Z"/><path class="cls-8" d="M61.65674,41.48758s1.65858-.60724,1.37459.75918c-.20058.85869-.54947.97593-.84821.8785s-.07622.0827-.07622.0827c.57145.49478,1.50953.95413,1.92315-.83688C64.205,40.05465,61.73407,40.45155,61.65674,41.48758Z"/><path class="cls-9" d="M62.59948,41.10472s1.14281.44053.75108,1.35871a.83446.83446,0,0,0-.13675-1.46062A.65537.65537,0,0,0,62.59948,41.10472Z"/><path class="cls-8" d="M9.58188,41.11305s-1.65858-.60723-1.37458.75918c.20057.8587.54946.97594.84821.8785s.07622.0827.07622.0827c-.57146.49478-1.50954.95414-1.92315-.83687C7.03366,39.68012,9.50455,40.077,9.58188,41.11305Z"/><path class="cls-9" d="M8.63914,40.73019s-1.14281.44054-.75107,1.35871a.83445.83445,0,0,1,.13674-1.46061A.65535.65535,0,0,1,8.63914,40.73019Z"/><path class="cls-5" d="M39.5154,33.25553a1.634,1.634,0,0,1-1.28662-.665l-2.82422-3.74267a.41258.41258,0,0,0-.33057-.167.38406.38406,0,0,0-.30371.145L32.40261,31.78a1.43321,1.43321,0,0,1-1.11621.55273,1.32,1.32,0,0,1-1.05567-.52588l-3.646-4.77734a1.17118,1.17118,0,0,1-.16895-1.07813,1.48453,1.48453,0,0,1,.95313-.95117l3.28076-1.0459a.31565.31565,0,0,0,.2417-.25244.08853.08853,0,0,0-.064-.09765L27.7698,22.18034a.955.955,0,0,1-.55665-.72754,1.13307,1.13307,0,0,1,.3877-.99756L31.25466,17.132a1.352,1.352,0,0,1,.90039-.33985,1.09263,1.09263,0,0,1,.87891.39747l1.99023,2.56982a.24528.24528,0,0,0,.18652.06348.31488.31488,0,0,0,.249-.10108l1.769-2.5a1.2593,1.2593,0,0,1,1.03955-.49365,1.34857,1.34857,0,0,1,.7207.20068l5.01661,3.14453a1.20024,1.20024,0,0,1,.602,1.00391,1.01526,1.01526,0,0,1-.5083.86914l-3.57276,2.189a.1433.1433,0,0,0-.08252.13379.34662.34662,0,0,0,.20313.26953l3.43408,1.92382a1.62023,1.62023,0,0,1,.83057,1.15723,1.22366,1.22366,0,0,1-.32862,1.03955l-4.081,4.18506A1.36631,1.36631,0,0,1,39.5154,33.25553Z"/><path class="cls-4" d="M38.26821,17.22831a.86153.86153,0,0,1,.45544.124L43.74,20.497c.444.27832.49731.77868.098,1.02337l-3.57251,2.189a.71828.71828,0,0,0,.13733,1.26544l3.43433,1.924a.92654.92654,0,0,1,.38843,1.41141l-4.08142,4.18509a.86578.86578,0,0,1-.62891.2605,1.12964,1.12964,0,0,1-.88782-.46683l-2.8241-3.74237a.9108.9108,0,0,0-.72961-.36575.88269.88269,0,0,0-.69373.33221l-2.36779,2.95456a.93421.93421,0,0,1-.72583.365.81943.81943,0,0,1-.65845-.32928l-3.64563-4.777a.85762.85762,0,0,1,.53845-1.24973l3.28076-1.04608c.6648-.212.80176-1.01645.23719-1.27933l-3.05823-1.42379c-.355-.16532-.37183-.60343-.04334-.90216l3.65406-3.32318a.8499.8499,0,0,1,.56372-.21015.60179.60179,0,0,1,.4834.20374l1.99047,2.56982a.72732.72732,0,0,0,.58191.25711.80312.80312,0,0,0,.65735-.31232l1.7688-2.4992a.77352.77352,0,0,1,.63135-.28281m0-1a1.75786,1.75786,0,0,0-1.44751.705l-1.601,2.26208-1.7909-2.312a1.58664,1.58664,0,0,0-1.27392-.5914,1.85548,1.85548,0,0,0-1.23645.47028L27.2643,20.08549a1.63044,1.63044,0,0,0-.54541,1.442,1.46727,1.46727,0,0,0,.83936,1.1065l2.27063,1.05713-2.61194.83279a1.96529,1.96529,0,0,0-1.27832,1.27784,1.66535,1.66535,0,0,0,.24866,1.53125L29.833,32.11a1.81623,1.81623,0,0,0,1.45337.72259,1.92972,1.92972,0,0,0,1.50622-.73965l2.28369-2.84964,2.75293,3.648a2.13659,2.13659,0,0,0,1.686.86447,1.86151,1.86151,0,0,0,1.34485-.56235l4.08142-4.18506a1.72085,1.72085,0,0,0,.46509-1.461A2.12359,2.12359,0,0,0,44.326,26.02641l-3.09656-1.73484,3.1311-1.91854a1.52619,1.52619,0,0,0,.74732-1.29313,1.69619,1.69619,0,0,0-.83667-1.4302L39.25478,16.505a1.85256,1.85256,0,0,0-.98657-.2767Z"/></g></svg>