<?xml version="1.0" encoding="UTF-8" standalone="no"?><!DOCTYPE svg PUBLIC "-//W3C//DTD SVG 1.1//EN" "http://www.w3.org/Graphics/SVG/1.1/DTD/svg11.dtd"><svg width="100%" height="100%" viewBox="0 0 300 345" version="1.1" xmlns="http://www.w3.org/2000/svg" xmlns:xlink="http://www.w3.org/1999/xlink" xml:space="preserve" xmlns:serif="http://www.serif.com/" style="fill-rule:evenodd;clip-rule:evenodd;stroke-linejoin:round;stroke-miterlimit:2;"><g id="Crying"><g id="CryingMouth"><path d="M150,266.256c-9.204,0 -13.221,2.652 -18.448,6.131c-7.594,5.937 -21.9,4.674 -27.507,-2.977c-9.27,-12.652 -8.143,-29.948 1.16,-41.344c7.338,-8.987 11.388,-10.117 23.613,-8.451c7.632,1.041 9.735,3.165 21.182,3.144c11.447,0.021 13.55,-2.103 21.182,-3.144c12.225,-1.666 16.275,-0.536 23.613,8.451c9.303,11.396 10.43,28.692 1.16,41.344c-5.607,7.651 -19.913,8.914 -27.507,2.977c-5.227,-3.479 -9.244,-6.131 -18.448,-6.131Z" style="fill:#971a38;"/><path d="M150,266.256c-9.204,0 -13.221,2.652 -18.448,6.131c-7.12,5.567 -20.141,4.803 -26.359,-1.62c10.138,-17.475 25.01,-25.427 44.807,-25.427c19.797,0 34.669,7.952 44.807,25.427c-6.218,6.423 -19.239,7.187 -26.359,1.62c-5.227,-3.479 -9.244,-6.131 -18.448,-6.131Z" style="fill:#ce1f3d;"/><path d="M150,231.865c-10.018,0.114 -19.216,0.137 -28.717,-0.441c-2.975,-0.18 -5.563,-2.57 -6.84,-5.037c-0.472,-0.911 -0.759,-3.38 -1.061,-5.772c3.871,-1.993 8.235,-1.981 15.436,-1c7.632,1.041 9.735,3.165 21.182,3.144c11.447,0.021 13.55,-2.103 21.182,-3.144c7.201,-0.981 11.565,-0.993 15.436,1c-0.302,2.392 -0.589,4.861 -1.061,5.772c-1.277,2.467 -3.865,4.857 -6.84,5.037c-9.501,0.578 -18.699,0.555 -28.717,0.441Z" style="fill:#f5fbfd;"/></g></g></svg>