<?xml version="1.0" encoding="UTF-8" standalone="no"?><!DOCTYPE svg PUBLIC "-//W3C//DTD SVG 1.1//EN" "http://www.w3.org/Graphics/SVG/1.1/DTD/svg11.dtd"><svg width="100%" height="100%" viewBox="0 0 300 345" version="1.1" xmlns="http://www.w3.org/2000/svg" xmlns:xlink="http://www.w3.org/1999/xlink" xml:space="preserve" xmlns:serif="http://www.serif.com/" style="fill-rule:evenodd;clip-rule:evenodd;stroke-linejoin:round;stroke-miterlimit:2;"><g id="avatar_mouth_22"><path d="M149.899,263.957c-2.122,-0.05 -4.25,0.26 -5.725,0.941c-9.364,4.319 -17.728,7.285 -24.591,7.543c-8.367,0.314 -14.952,-2.829 -19.24,-11.392c-1.236,-2.468 -0.236,-5.474 2.231,-6.71c2.468,-1.235 5.474,-0.235 6.71,2.232c2.751,5.493 7.385,6.544 13.196,5.506c5.141,-0.919 11.028,-3.272 17.505,-6.26c2.584,-1.191 6.3,-1.748 10.015,-1.681l0.174,-0.002c3.657,-0.048 7.298,0.51 9.841,1.683c6.477,2.988 12.364,5.341 17.505,6.26c5.811,1.038 10.445,-0.013 13.196,-5.506c1.236,-2.467 4.242,-3.467 6.71,-2.232c2.467,1.236 3.467,4.242 2.231,6.71c-4.288,8.563 -10.873,11.706 -19.24,11.392c-6.863,-0.258 -15.227,-3.224 -24.591,-7.543c-1.499,-0.692 -3.671,-1.001 -5.826,-0.939l-0.101,-0.002Z" style="fill:#141319;"/></g></svg>