<?xml version="1.0" encoding="UTF-8" standalone="no"?><!DOCTYPE svg PUBLIC "-//W3C//DTD SVG 1.1//EN" "http://www.w3.org/Graphics/SVG/1.1/DTD/svg11.dtd"><svg width="100%" height="100%" viewBox="0 0 1250 1438" version="1.1" xmlns="http://www.w3.org/2000/svg" xmlns:xlink="http://www.w3.org/1999/xlink" xml:space="preserve" xmlns:serif="http://www.serif.com/" style="fill-rule:evenodd;clip-rule:evenodd;stroke-linejoin:round;stroke-miterlimit:2;"><g id="Pirate"><g id="MouthPirate"><path d="M560.73,1059.52c0.914,0.418 6.8,3.069 11.263,4.21c14.024,3.584 33.204,5.258 52.434,5.258c19.275,-0 38.624,-1.687 52.932,-5.28c4.958,-1.245 11.647,-4.274 12.236,-4.542c7.699,-8.221 20.612,-8.84 29.065,-1.302c8.582,7.652 9.337,20.832 1.684,29.414c-4.743,5.32 -12.831,10.53 -23.927,14.254c-17.6,5.906 -44.83,9.122 -71.99,9.122c-27.237,0 -54.335,-3.247 -71.571,-9.17c-11.227,-3.858 -19.217,-9.332 -23.746,-14.843c-7.301,-8.883 -6.016,-22.022 2.867,-29.323c8.657,-7.114 21.355,-6.076 28.753,2.202Z" style="fill:#3f1c12;"/><path d="M642.274,1133.85l-7.128,11.439l-11.11,-11.439l-10.316,11.916l-7.795,-12.392c-10.646,13.453 -40.43,5.973 -45.286,22.006c-16.664,55.016 -9.718,106.343 53.081,148.944c0.879,-13.435 2.446,-27.557 4.597,-42.263l9.68,25.737c11.673,-9.073 18.684,-20.477 22.73,-33.363c6.594,15.967 6.912,21.845 8.579,35.27c28.915,-15.888 52.587,-67.521 26.691,-130.117c-3.967,-9.589 -34.233,-10.804 -43.723,-25.738Z" style="fill:#3f1c12;"/><path d="M558.571,968.845c0,0 55.216,-40.885 52.018,-29.841l-15.127,52.248c-1.955,6.751 -7.181,12.062 -13.901,14.123c0,0 -241.416,64.309 -244.788,53.316c-3.373,-10.992 221.798,-89.846 221.798,-89.846Z" style="fill:#3f1c12;"/><path d="M691.428,968.845c0,0 -55.215,-40.885 -52.017,-29.841l15.127,52.248c1.954,6.751 7.181,12.062 13.9,14.123c0,0 241.416,64.309 244.789,53.316c3.373,-10.992 -221.799,-89.846 -221.799,-89.846Z" style="fill:#3f1c12;"/></g></g></svg>