<?xml version="1.0" encoding="UTF-8" standalone="no"?><!DOCTYPE svg PUBLIC "-//W3C//DTD SVG 1.1//EN" "http://www.w3.org/Graphics/SVG/1.1/DTD/svg11.dtd"><svg width="100%" height="100%" viewBox="0 0 1250 1438" version="1.1" xmlns="http://www.w3.org/2000/svg" xmlns:xlink="http://www.w3.org/1999/xlink" xml:space="preserve" xmlns:serif="http://www.serif.com/" style="fill-rule:evenodd;clip-rule:evenodd;stroke-linejoin:round;stroke-miterlimit:2;"><g id="Miner-v1.3" serif:id="Miner v1.3"><g id="MouthMiner"><path d="M760.541,1010.41c-9.342,66.474 -66.508,117.689 -135.541,117.689c-69.033,-0 -126.199,-51.215 -135.541,-117.689l271.082,-0Z" style="fill:#971a38;"/><path d="M524.575,1084.18c46.827,-45.9 152.749,-47.612 201.089,-0.258c-25.02,27.15 -60.87,44.168 -100.664,44.168c-39.668,-0 -75.417,-16.911 -100.425,-43.91Z" style="fill:#ce1f3d;"/><path d="M495.631,1036.01c-2.845,-8.208 -4.931,-16.77 -6.172,-25.601l271.082,-0c-1.324,9.418 -3.608,18.53 -6.749,27.233c-89.547,20.503 -175.058,16.516 -258.161,-1.632Z" style="fill:#f5fbfd;"/><path d="M479.527,1035.22c-9.754,-0.009 -18.51,-5.984 -22.075,-15.064c-3.564,-9.08 -1.212,-19.416 5.931,-26.059c15.521,-14.438 39.502,-36.74 39.502,-36.74c22.435,-20.865 51.936,-32.463 82.573,-32.463l79.587,0c30.467,0 59.805,11.534 82.115,32.282c-0,0 24.119,22.431 39.697,36.919c7.141,6.645 9.491,16.98 5.926,26.058c-3.564,9.079 -12.319,15.054 -22.072,15.065c-0.015,0.002 -0.029,0.002 -0.044,0.002c-16.066,-0 -29.11,-13.044 -29.11,-29.11c0,16.066 -13.043,29.11 -29.109,29.11c-16.066,-0 -29.11,-13.044 -29.11,-29.11c0,16.066 -13.043,29.11 -29.109,29.11c-16.066,-0 -29.11,-13.044 -29.11,-29.11c0,16.066 -13.043,29.11 -29.109,29.11c-16.066,-0 -29.11,-13.044 -29.11,-29.11c-0,16.066 -13.044,29.11 -29.11,29.11c-16.066,-0 -29.109,-13.044 -29.109,-29.11c-0,16.066 -13.044,29.11 -29.11,29.11c-0.014,-0 -0.029,-0 -0.044,-0Z" style="fill:#3f1c12;"/></g></g></svg>