<?xml version="1.0" encoding="UTF-8" standalone="no"?>
<!DOCTYPE svg PUBLIC "-//W3C//DTD SVG 1.1//EN" "http://www.w3.org/Graphics/SVG/1.1/DTD/svg11.dtd">
<svg width="100%" height="100%" viewBox="0 0 300 345" version="1.1" xmlns="http://www.w3.org/2000/svg" xmlns:xlink="http://www.w3.org/1999/xlink" xml:space="preserve" xmlns:serif="http://www.serif.com/" style="fill-rule:evenodd;clip-rule:evenodd;stroke-linejoin:round;stroke-miterlimit:2;">
    <g transform="matrix(0.537519,0,0,0.537519,68.4289,116.93)">
        <g>
            <g transform="matrix(1,0,0,-1,0,524.686)">
                <path d="M95.277,250.24C98.591,245.702 103.831,242.985 109.379,242.827C109.421,242.826 109.5,242.782 109.506,242.824C110.623,250.384 192.873,250.485 194.003,242.824C194.006,242.804 194.043,242.825 194.063,242.825C200.1,242.986 205.776,246.182 209,251.46L208.977,251.464C210.708,254.295 211.627,257.557 211.62,260.89C211.62,267.894 207.104,274.199 201.279,277.138C199.769,277.901 198.17,275.648 196.54,275.911C172.22,279.911 130.29,280.351 106.87,275.911C105.101,275.578 103.468,277.845 101.981,277.161C95.485,274.169 91.79,268.059 91.79,260.89C91.777,257.062 92.99,253.329 95.25,250.24L95.277,250.24Z" style="fill:#971a38;fill-rule:nonzero;"/>
            </g>
            <path d="M109.506,281.862C110.624,281.885 111.753,281.806 112.88,281.616L117.7,280.806C140.229,277.026 163.231,277.026 185.76,280.806L190.59,281.616C191.731,281.809 192.874,281.889 194.003,281.862C193.792,280.203 193.434,278.496 193.417,277.906C193.266,272.733 191.953,268.464 189.046,265.434C188.351,268.999 186.692,272.218 183.44,274.87C183.105,273.702 182.618,272.306 181.61,272.238L121.886,272.238C120.992,272.249 120.47,273.774 120.522,274.87C117.159,272.591 115.239,269.32 114.213,265.434L114.145,265.506C111.289,268.527 109.995,272.763 109.843,277.887C109.824,278.501 109.536,280.314 109.506,281.862Z" style="fill:#f5fbfd;fill-rule:nonzero;"/>
            <path d="M107.174,262.343C108,258.108 109.972,254.283 113.835,251.133C114.233,252.52 114.811,254.178 116.009,254.259L186.969,254.259C188.032,254.246 188.651,252.434 188.59,251.133C192.586,253.84 194.867,257.727 196.086,262.343L196.167,262.258C199.56,258.669 201.098,253.635 201.279,247.547C199.769,246.786 198.171,246.249 196.54,245.986C172.22,241.986 130.29,241.546 106.87,245.986C105.101,246.319 103.468,246.84 101.981,247.525C102.16,253.671 103.72,258.743 107.174,262.343Z" style="fill:#f5fbfd;fill-rule:nonzero;"/>
            <g transform="matrix(1.46646,0,0,1.46646,-68.2523,-115.24)">
                <path d="M149.941,294.258C147.431,291.447 143.712,290.749 141.666,286.858C141.489,288.268 141.174,289.817 140.587,291.637C137.508,291.59 135.289,289.835 133.804,286.858C115.746,284.463 99.929,278.123 99.12,262.965C97.892,239.946 113.2,234.053 138.737,235.681L144.903,231.519L142.282,239.226C118.775,237.154 103.562,242.375 103.899,261.27C104.102,272.62 120.358,283.278 141.974,279.305L150.026,272.189L158.078,279.305C179.693,283.278 195.95,272.62 196.152,261.27C196.489,242.375 181.276,237.154 157.769,239.226L155.149,231.519L161.315,235.681C186.852,234.053 202.159,239.946 200.931,262.965C200.122,278.123 184.306,284.463 166.247,286.858C164.762,289.835 162.543,291.59 159.465,291.637C158.878,289.817 158.562,288.268 158.386,286.858C156.34,290.749 152.62,291.447 150.111,294.258L149.941,294.258Z"/>
            </g>
        </g>
    </g>
</svg>
