<?xml version="1.0" encoding="UTF-8" standalone="no"?><!DOCTYPE svg PUBLIC "-//W3C//DTD SVG 1.1//EN" "http://www.w3.org/Graphics/SVG/1.1/DTD/svg11.dtd"><svg width="100%" height="100%" viewBox="0 0 300 345" version="1.1" xmlns="http://www.w3.org/2000/svg" xmlns:xlink="http://www.w3.org/1999/xlink" xml:space="preserve" xmlns:serif="http://www.serif.com/" style="fill-rule:evenodd;clip-rule:evenodd;stroke-linejoin:round;stroke-miterlimit:2;"><g id="Mouthtooth"><path d="M143.301,279.26c-21.261,-3.846 -30.618,-18.533 -30.11,-29.547c0.24,-5.213 2.602,-9.711 6.843,-12.353c3.405,-2.121 7.072,-2.091 11.53,-0.782c5.48,1.607 12.398,5.267 22.176,7.612c6.429,1.542 11.673,1.044 16.116,1.09c5.336,0.056 9.665,0.86 13.554,5.186c5.023,5.588 4.303,12.508 -0.798,18.394c-6.684,7.714 -21.507,13.621 -39.311,10.4Z" style="fill:#971a38;"/><path d="M173.797,275.505c-7.723,3.926 -18.424,5.939 -30.496,3.755c-12.269,-2.219 -20.575,-8.049 -25.307,-14.7c11.2,-17.342 51.11,-10.273 55.803,10.945Z" style="fill:#ce1f3d;"/><path d="M137.79,238.829c4.354,1.719 9.537,3.823 15.95,5.361c4.926,1.182 9.156,1.165 12.863,1.114l-1.749,10.48c-0.876,5.245 -5.845,8.793 -11.091,7.918l-10.074,-1.681c-5.246,-0.876 -8.794,-5.845 -7.918,-11.091l2.019,-12.101Z" style="fill:#f5fbfd;"/></g></svg>