<?xml version="1.0" encoding="UTF-8" standalone="no"?><!DOCTYPE svg PUBLIC "-//W3C//DTD SVG 1.1//EN" "http://www.w3.org/Graphics/SVG/1.1/DTD/svg11.dtd"><svg width="100%" height="100%" viewBox="0 0 300 345" version="1.1" xmlns="http://www.w3.org/2000/svg" xmlns:xlink="http://www.w3.org/1999/xlink" xml:space="preserve" xmlns:serif="http://www.serif.com/" style="fill-rule:evenodd;clip-rule:evenodd;stroke-linejoin:round;stroke-miterlimit:2;"><g id="TongueOut"><path d="M185.033,248.891c-6.755,6.122 -15.042,8.486 -24.978,12.204c11.143,1.003 13.449,6.359 15.569,10.383c2.389,4.535 7.925,5.958 12.653,5.282c7.104,-1.017 10.599,-8.961 7.839,-16.52c-1.653,-4.525 -4.513,-9.024 -11.083,-11.349Z" style="fill:#d72540;"/><path d="M104.525,251.854c10.391,8.066 27.61,12.308 45.173,12.306c17.435,-0.003 35.113,-4.16 46.559,-12.157c2.262,-1.58 2.816,-4.7 1.235,-6.962c-1.58,-2.263 -4.7,-2.816 -6.962,-1.236c-10.021,7.001 -25.571,10.352 -40.834,10.355c-15.136,0.002 -30.084,-3.254 -39.039,-10.205c-2.18,-1.693 -5.324,-1.297 -7.016,0.883c-1.692,2.18 -1.296,5.324 0.884,7.016Z" style="fill:#141319;"/></g></svg>