<?xml version="1.0" encoding="UTF-8" standalone="no"?><!DOCTYPE svg PUBLIC "-//W3C//DTD SVG 1.1//EN" "http://www.w3.org/Graphics/SVG/1.1/DTD/svg11.dtd"><svg width="100%" height="100%" viewBox="0 0 300 345" version="1.1" xmlns="http://www.w3.org/2000/svg" xmlns:xlink="http://www.w3.org/1999/xlink" xml:space="preserve" xmlns:serif="http://www.serif.com/" style="fill-rule:evenodd;clip-rule:evenodd;stroke-linejoin:round;stroke-miterlimit:2;"><path id="MouthNausea" d="M124.903,259.269c0.133,-0.219 0.352,-0.586 0.469,-0.836c0.482,-1.036 0.896,-2.167 1.393,-3.226c1.919,-4.094 4.707,-7.338 10.937,-7.046c4.304,0.201 6.624,2.107 8.299,4.637c0.753,1.138 1.326,2.474 1.938,3.824c0.512,1.129 1.065,2.379 3.139,2.52c0.094,0.007 0.219,0.003 0.312,-0.001c0.077,-0.122 0.199,-0.321 0.263,-0.456c0.166,-0.351 0.306,-0.727 0.44,-1.115c0.425,-1.232 0.78,-2.549 1.225,-3.778c1.695,-4.688 4.448,-8.266 10.735,-8.194c5.625,0.065 8.004,3.104 9.581,7.037c0.374,0.933 0.683,1.932 1.067,2.871c0.113,0.275 0.361,0.721 0.457,0.889c0.121,0.016 0.352,0.042 0.521,0.039c0.014,-0 0.029,-0.001 0.045,-0.002c0.109,-0.335 0.301,-0.95 0.381,-1.364c0.239,-1.24 0.393,-2.553 0.637,-3.781c0.55,-2.771 1.616,-5.166 3.406,-6.783c1.45,-1.31 3.378,-2.258 6.128,-2.369c6.93,-0.281 11.87,5.532 14.221,13.741c0.76,2.653 -0.777,5.424 -3.43,6.184c-2.653,0.759 -5.424,-0.778 -6.184,-3.431c-0.51,-1.78 -1.135,-3.441 -1.978,-4.769c-0.55,-0.866 -1.11,-1.672 -2.04,-1.731c-0.116,0.379 -0.299,1.005 -0.377,1.434c-0.233,1.285 -0.397,2.639 -0.666,3.9c-0.598,2.812 -1.762,5.217 -3.715,6.819c-1.487,1.22 -3.455,2.096 -6.234,2.15c-2.422,0.047 -4.25,-0.511 -5.7,-1.335c-2.159,-1.227 -3.569,-3.13 -4.551,-5.388c-0.437,-1.003 -0.783,-2.085 -1.176,-3.112c-0.113,-0.296 -0.34,-0.754 -0.464,-0.998c-0.015,-0.001 -0.03,-0.001 -0.044,-0.002c-0.528,-0.006 -0.704,0.381 -0.874,0.748c-0.172,0.371 -0.317,0.766 -0.456,1.17c-0.429,1.257 -0.788,2.582 -1.235,3.802c-0.98,2.682 -2.428,4.91 -4.573,6.29c-1.618,1.041 -3.663,1.698 -6.402,1.512c-6.209,-0.423 -8.884,-3.336 -10.697,-6.612c-0.567,-1.024 -1.014,-2.106 -1.486,-3.132c-0.23,-0.5 -0.243,-1.191 -0.981,-1.225c-1.06,-0.05 -1.224,0.87 -1.54,1.575c-0.504,1.127 -0.944,2.307 -1.468,3.37c-1.225,2.484 -2.913,4.424 -5.357,5.446c-1.62,0.678 -3.646,1.003 -6.291,0.502c-5.773,-1.094 -7.825,-4.757 -8.861,-9.267c-0.268,-1.164 -0.452,-2.395 -0.723,-3.574c-0.205,-0.891 -0.323,-1.891 -1.545,-2.113c-1.328,-0.241 -1.807,1.074 -2.39,2.079c-1.022,1.762 -1.757,3.716 -2.451,5.13c-1.214,2.477 -4.212,3.503 -6.69,2.288c-2.478,-1.215 -3.503,-4.213 -2.288,-6.691c1.29,-2.631 2.873,-6.676 5.382,-9.271c2.546,-2.632 5.83,-4.171 10.222,-3.374c6.114,1.108 8.279,4.812 9.387,9.219c0.308,1.225 0.508,2.517 0.772,3.754c0.171,0.803 0.03,1.802 1.046,1.995c0.14,0.026 0.322,0.042 0.464,0.051Z" style="fill:#221e18;"/></svg>