<?xml version="1.0" encoding="UTF-8" standalone="no"?><!DOCTYPE svg PUBLIC "-//W3C//DTD SVG 1.1//EN" "http://www.w3.org/Graphics/SVG/1.1/DTD/svg11.dtd"><svg width="100%" height="100%" viewBox="0 0 300 345" version="1.1" xmlns="http://www.w3.org/2000/svg" xmlns:xlink="http://www.w3.org/1999/xlink" xml:space="preserve" xmlns:serif="http://www.serif.com/" style="fill-rule:evenodd;clip-rule:evenodd;stroke-linejoin:round;stroke-miterlimit:2;"><g id="Heart"><g id="Heart-Eyes" serif:id="Heart Eyes"><path d="M150,233.558c8.836,0 14.858,-1.701 19.538,-6.309c0.289,-0.292 0.726,-0.378 1.104,-0.219c0.378,0.16 0.62,0.534 0.613,0.944c-0.357,21.802 -0.214,41.656 -14.962,49.282c-1.905,0.985 -4.159,1.972 -6.293,1.972c-2.134,-0 -4.388,-0.987 -6.293,-1.972c-14.748,-7.626 -14.605,-27.48 -14.976,-49.281c-0.008,-0.416 0.238,-0.795 0.622,-0.957c0.383,-0.162 0.826,-0.074 1.119,0.221c4.67,4.618 10.692,6.319 19.528,6.319Z" style="fill:#971a38;"/><path d="M129.118,243.108c-0.239,-4.841 -0.299,-9.932 -0.387,-15.133c-0.008,-0.416 0.238,-0.795 0.622,-0.957c0.383,-0.162 0.826,-0.074 1.119,0.221c4.67,4.618 10.692,6.319 19.528,6.319c8.836,0 14.858,-1.701 19.538,-6.309c0.289,-0.292 0.726,-0.378 1.104,-0.219c0.378,0.16 0.62,0.534 0.613,0.944c-0.086,5.202 -0.142,10.293 -0.379,15.134l-41.758,-0Z" style="fill:#f5fbfd;"/><path d="M168.716,259.869c-1.974,7.73 -5.609,13.864 -12.423,17.387c-1.905,0.985 -4.159,1.972 -6.293,1.972c-2.134,-0 -4.388,-0.987 -6.293,-1.972c-6.811,-3.522 -10.446,-9.651 -12.422,-17.375c12.477,-3.874 24.954,-3.941 37.431,-0.012Z" style="fill:#ce1f3d;"/></g></g></svg>