<?xml version="1.0" encoding="UTF-8" standalone="no"?><!DOCTYPE svg PUBLIC "-//W3C//DTD SVG 1.1//EN" "http://www.w3.org/Graphics/SVG/1.1/DTD/svg11.dtd"><svg width="100%" height="100%" viewBox="0 0 300 345" version="1.1" xmlns="http://www.w3.org/2000/svg" xmlns:xlink="http://www.w3.org/1999/xlink" xml:space="preserve" xmlns:serif="http://www.serif.com/" style="fill-rule:evenodd;clip-rule:evenodd;stroke-linejoin:round;stroke-miterlimit:2;"><g id="avatar_mouth_18"><path d="M104.525,251.854c10.391,8.066 27.61,12.308 45.173,12.306c17.435,-0.003 35.113,-4.16 46.559,-12.157c2.262,-1.58 2.816,-4.7 1.235,-6.962c-1.58,-2.263 -4.7,-2.816 -6.962,-1.236c-10.021,7.001 -25.571,10.352 -40.834,10.355c-15.136,0.002 -30.084,-3.254 -39.039,-10.205c-2.18,-1.693 -5.324,-1.297 -7.016,0.883c-1.692,2.18 -1.296,5.324 0.884,7.016Z" style="fill:#141319;"/><path d="M188.749,238.432c-0.186,4.873 1.108,8.677 3.367,11.401c2.374,2.864 5.891,4.698 10.574,5.04c2.752,0.201 5.15,-1.87 5.351,-4.622c0.201,-2.753 -1.87,-5.15 -4.622,-5.352c-1.553,-0.113 -2.818,-0.499 -3.605,-1.449c-0.904,-1.09 -1.147,-2.686 -1.072,-4.636c0.105,-2.758 -2.048,-5.082 -4.806,-5.187c-2.757,-0.106 -5.081,2.048 -5.187,4.805Z" style="fill:#141319;"/><path d="M112.235,238.432c0.186,4.873 -1.108,8.677 -3.366,11.401c-2.375,2.864 -5.892,4.698 -10.574,5.04c-2.753,0.201 -5.151,-1.87 -5.352,-4.622c-0.201,-2.753 1.87,-5.15 4.622,-5.352c1.554,-0.113 2.818,-0.499 3.606,-1.449c0.904,-1.09 1.146,-2.686 1.072,-4.636c-0.106,-2.758 2.047,-5.082 4.805,-5.187c2.758,-0.106 5.082,2.048 5.187,4.805Z" style="fill:#141319;"/></g></svg>