<?xml version="1.0" encoding="UTF-8" standalone="no"?><!DOCTYPE svg PUBLIC "-//W3C//DTD SVG 1.1//EN" "http://www.w3.org/Graphics/SVG/1.1/DTD/svg11.dtd"><svg width="100%" height="100%" viewBox="0 0 300 345" version="1.1" xmlns="http://www.w3.org/2000/svg" xmlns:xlink="http://www.w3.org/1999/xlink" xml:space="preserve" xmlns:serif="http://www.serif.com/" style="fill-rule:evenodd;clip-rule:evenodd;stroke-linejoin:round;stroke-miterlimit:2;"><g id="Coins"><g id="Coin-Mouth" serif:id="Coin Mouth"><path d="M150,247.602c19.723,0 34.211,-2.579 45.255,-11.64c1.736,5.558 4.984,8.763 9.6,9.84c-0.511,3.081 -1.536,6.161 -3.48,9.241c-13.516,1.183 -20.926,9.896 -24.841,22.92c-7.65,-7.866 -16.644,-10.935 -26.534,-10.8c-9.89,-0.135 -18.884,2.934 -26.534,10.8c-3.915,-13.024 -11.325,-21.737 -24.841,-22.92c-1.944,-3.08 -2.969,-6.16 -3.48,-9.241c4.616,-1.077 7.864,-4.282 9.6,-9.84c11.044,9.061 25.532,11.64 45.255,11.64Z" style="fill:#f5fbfd;"/><path d="M149,267.16c-9.497,0.081 -18.142,3.203 -25.534,10.803c-1.766,-5.874 -4.242,-10.871 -7.669,-14.696c-0.535,-0.596 -1.092,-1.164 -1.674,-1.702c-3.958,-3.664 -9.028,-5.956 -15.498,-6.522c-1.289,-2.042 -2.174,-4.084 -2.773,-6.126c0.791,1.943 1.807,3.706 3.244,5.132c6.169,0.354 11.696,0.7 15.8,4.003l3.219,-14.635c0.627,0.223 1.263,0.436 1.907,0.638l-3.396,15.443c4.247,4.245 6.334,9.71 7.201,17.054c6.687,-7.698 15.653,-11.32 25.173,-11.582l-0,-17.37c0.332,0.002 0.665,0.002 1,0.002c0.335,0 0.668,-0 1,-0.002l0,17.37c9.52,0.262 18.486,2.94 25.173,10.638c1.339,-6.872 3.517,-12.794 7.135,-16.41l-3.33,-15.143c0.644,-0.202 1.28,-0.415 1.907,-0.638l3.202,14.557c4.104,-3.303 9.648,-3.571 15.817,-3.925c1.437,-1.426 2.453,-3.189 3.244,-5.132c-0.599,2.042 -1.484,4.084 -2.773,6.126c-6.47,0.566 -11.54,2.858 -15.498,6.522c-0.582,0.538 -1.139,1.106 -1.674,1.702c-3.427,3.825 -5.903,8.822 -7.669,14.696c-7.392,-7.6 -16.037,-10.722 -25.534,-10.803c-0.332,-0.002 -0.666,0.003 -1,0.003c-0.334,-0 -0.668,-0.005 -1,-0.003Z" style="fill:#dedede;"/><path d="M150.435,269.167c-0.169,0.008 -0.701,0.008 -0.87,0c-3.235,-0.149 -9.211,-0.123 -15.057,1.852c-8.371,2.827 -10.847,7.984 -11.37,8.824c-0.043,-0.251 -0.689,-6.823 -5.112,-12.672c-2.281,-3.017 -5.879,-5.97 -8.562,-7.41c-1.178,-0.632 -5.598,-3.221 -15.05,-3.946c-0.134,-0.01 -0.269,-0.01 -0.402,-0.029c-0.157,-0.023 -0.286,-0.1 -0.302,-0.289c-0.012,-0.14 0.107,-0.26 0.29,-0.303c0.004,-0.001 2.292,-0.272 4.32,-0.322c16.353,-0.401 20.642,8.287 22.043,11.258c1.648,3.493 2.358,6.937 3.16,11.712c1.517,-2.388 7.411,-10.272 24.521,-12.074c0.953,-0.1 2.959,-0.1 3.912,0c17.11,1.802 23.004,9.686 24.521,12.074c0.802,-4.775 1.512,-8.219 3.16,-11.712c1.401,-2.971 5.69,-11.659 22.043,-11.258c2.028,0.05 4.316,0.321 4.32,0.322c0.183,0.043 0.302,0.163 0.29,0.303c-0.016,0.189 -0.145,0.266 -0.302,0.289c-0.133,0.019 -0.268,0.019 -0.402,0.029c-9.452,0.725 -13.872,3.314 -15.05,3.946c-2.683,1.44 -6.281,4.393 -8.562,7.41c-4.423,5.849 -5.069,12.421 -5.112,12.672c-0.523,-0.84 -2.999,-5.997 -11.37,-8.824c-5.846,-1.975 -11.822,-2.001 -15.057,-1.852Z" style="fill:#fabc2e;"/><path d="M103.802,227.279c0.306,-0.174 0.654,0.046 0.849,0.241c0.008,0.008 0.564,0.766 0.948,1.443c4.16,7.322 0.05,16.158 -9.579,17.797c-3.973,0.676 -7.604,-0.522 -7.664,-0.551c-0.28,-0.133 -0.429,-0.342 -0.41,-0.577c0.022,-0.25 0.296,-0.412 0.576,-0.409c0.035,0 5.51,0.453 10.641,-3.372c3.337,-2.487 4.386,-5.003 4.607,-5.535c1.733,-4.159 -0.165,-8.099 -0.206,-8.192c-0.161,-0.364 -0.016,-0.7 0.238,-0.845Zm92.396,0c0.254,0.145 0.399,0.481 0.238,0.845c-0.041,0.093 -1.939,4.033 -0.206,8.192c0.221,0.532 1.27,3.048 4.607,5.535c5.131,3.825 10.606,3.372 10.641,3.372c0.28,-0.003 0.554,0.159 0.576,0.409c0.019,0.235 -0.13,0.444 -0.41,0.577c-0.06,0.029 -3.691,1.227 -7.664,0.551c-9.629,-1.639 -13.739,-10.475 -9.579,-17.797c0.384,-0.677 0.94,-1.435 0.948,-1.443c0.195,-0.195 0.543,-0.415 0.849,-0.241Z" style="fill:#fabc2e;"/></g></g></svg>