<?xml version="1.0" encoding="UTF-8" standalone="no"?>
<!-- Created with Inkscape (http://www.inkscape.org/) -->

<svg
   width="30.340267mm"
   height="28.039623mm"
   viewBox="0 0 30.340267 28.039624"
   version="1.1"
   id="svg5"
   xml:space="preserve"
   inkscape:version="1.2 (dc2aedaf03, 2022-05-15)"
   sodipodi:docname="NavIconPirate.svg"
   xmlns:inkscape="http://www.inkscape.org/namespaces/inkscape"
   xmlns:sodipodi="http://sodipodi.sourceforge.net/DTD/sodipodi-0.dtd"
   xmlns="http://www.w3.org/2000/svg"
   xmlns:svg="http://www.w3.org/2000/svg"><sodipodi:namedview
     id="namedview7"
     pagecolor="#505050"
     bordercolor="#ffffff"
     borderopacity="1"
     inkscape:showpageshadow="0"
     inkscape:pageopacity="0"
     inkscape:pagecheckerboard="1"
     inkscape:deskcolor="#505050"
     inkscape:document-units="mm"
     showgrid="false"
     showguides="false"
     inkscape:zoom="0.84487286"
     inkscape:cx="-98.831439"
     inkscape:cy="-59.180502"
     inkscape:window-width="1366"
     inkscape:window-height="705"
     inkscape:window-x="-8"
     inkscape:window-y="-8"
     inkscape:window-maximized="1"
     inkscape:current-layer="layer1" /><defs
     id="defs2"><inkscape:path-effect
       effect="fillet_chamfer"
       id="path-effect5709"
       is_visible="true"
       lpeversion="1"
       nodesatellites_param="F,0,0,1,0,0,0,1 @ F,0,0,1,0,0,0,1 @ F,0,0,1,0,0,0,1 @ F,0,0,1,0,0,0,1 @ F,0,0,1,0,0,0,1 @ F,0,0,1,0,0.4581543,0,1 @ F,0,0,1,0,0,0,1 @ F,0,0,1,0,0,0,1 @ F,0,0,1,0,0,0,1 @ F,0,0,1,0,0,0,1 @ F,0,0,1,0,0.53049445,0,1 @ F,0,0,1,0,0,0,1 @ F,0,0,1,0,0,0,1 @ F,0,0,1,0,0,0,1 @ F,0,0,1,0,0,0,1 | F,0,0,1,0,0,0,1 @ F,0,0,1,0,0,0,1 @ F,0,0,1,0,0,0,1 @ F,0,0,1,0,0,0,1 @ F,0,0,1,0,0,0,1 @ F,0,0,1,0,0,0,1 @ F,0,0,1,0,0,0,1 @ F,0,0,1,0,0,0,1"
       unit="px"
       method="auto"
       mode="F"
       radius="0"
       chamfer_steps="1"
       flexible="false"
       use_knot_distance="true"
       apply_no_radius="true"
       apply_with_radius="true"
       only_selected="false"
       hide_knots="false" /><inkscape:path-effect
       effect="fillet_chamfer"
       id="path-effect2137"
       is_visible="true"
       lpeversion="1"
       nodesatellites_param="F,0,0,1,0,8,0,1 @ F,0,0,1,0,0,0,1 @ F,0,0,1,0,0,0,1 @ F,0,0,1,0,0,0,1 @ F,0,0,1,0,8,0,1 @ F,0,0,1,0,0,0,1 @ F,0,0,1,0,0,0,1 @ F,0,0,1,0,0,0,1 @ F,0,0,1,0,0,0,1 @ F,0,0,1,0,0,0,1"
       unit="px"
       method="auto"
       mode="F"
       radius="0"
       chamfer_steps="1"
       flexible="false"
       use_knot_distance="true"
       apply_no_radius="true"
       apply_with_radius="true"
       only_selected="false"
       hide_knots="false" /><inkscape:path-effect
       effect="mirror_symmetry"
       start_point="4.5560511,145.07496"
       end_point="-20.970424,169.23206"
       center_point="-8.2071863,157.15351"
       id="path-effect2078"
       is_visible="true"
       lpeversion="1.2"
       lpesatellites=""
       mode="vertical"
       discard_orig_path="false"
       fuse_paths="true"
       oposite_fuse="false"
       split_items="false"
       split_open="false"
       link_styles="false" /><inkscape:path-effect
       effect="fillet_chamfer"
       id="path-effect1953"
       is_visible="true"
       lpeversion="1"
       nodesatellites_param="F,0,0,1,0,0,0,1 @ F,0,0,1,0,0,0,1 @ F,0,0,1,0,0.68058242,0,1"
       unit="px"
       method="auto"
       mode="F"
       radius="0"
       chamfer_steps="1"
       flexible="false"
       use_knot_distance="true"
       apply_no_radius="true"
       apply_with_radius="true"
       only_selected="false"
       hide_knots="false" /><inkscape:path-effect
       effect="fillet_chamfer"
       id="path-effect1885"
       is_visible="true"
       lpeversion="1"
       nodesatellites_param="F,0,0,1,0,0.025729922,0,1 @ F,0,0,1,0,0,0,1 @ F,0,0,1,0,0.84764408,0,1 @ F,0,0,1,0,0.9288475,0,1"
       unit="px"
       method="auto"
       mode="F"
       radius="0"
       chamfer_steps="1"
       flexible="false"
       use_knot_distance="true"
       apply_no_radius="true"
       apply_with_radius="true"
       only_selected="false"
       hide_knots="false" /><inkscape:path-effect
       effect="mirror_symmetry"
       start_point="173.94468,87.823316"
       end_point="173.94468,111.88232"
       center_point="173.94468,99.852816"
       id="path-effect1828"
       is_visible="true"
       lpeversion="1.2"
       lpesatellites=""
       mode="vertical"
       discard_orig_path="false"
       fuse_paths="true"
       oposite_fuse="false"
       split_items="false"
       split_open="false"
       link_styles="false" /><inkscape:path-effect
       effect="fillet_chamfer"
       id="path-effect1818"
       is_visible="true"
       lpeversion="1"
       nodesatellites_param="F,0,0,1,0,0,0,1 @ F,0,0,1,0,2.6241049,0,1 @ F,0,0,1,0,0,0,1 @ F,0,0,1,0,1.443101,0,1 @ F,0,0,1,0,0,0,1 @ F,0,0,1,0,0,0,1 @ F,0,0,1,0,0.7857946,0,1 @ F,0,0,1,0,0,0,1 @ F,0,0,1,0,0,0,1 @ F,0,0,1,0,0,0,1"
       unit="px"
       method="auto"
       mode="F"
       radius="0"
       chamfer_steps="1"
       flexible="false"
       use_knot_distance="true"
       apply_no_radius="true"
       apply_with_radius="true"
       only_selected="false"
       hide_knots="false" /><inkscape:path-effect
       effect="mirror_symmetry"
       start_point="109.86484,87.18808"
       end_point="109.86484,140.10475"
       center_point="109.86484,113.64641"
       id="path-effect1649"
       is_visible="true"
       lpeversion="1.2"
       lpesatellites=""
       mode="vertical"
       discard_orig_path="false"
       fuse_paths="false"
       oposite_fuse="false"
       split_items="false"
       split_open="false"
       link_styles="false" /><inkscape:path-effect
       effect="tiling"
       id="path-effect10958"
       is_visible="true"
       lpeversion="1"
       unit="px"
       seed="1;1"
       lpesatellites=""
       num_rows="1"
       num_cols="3"
       gapx="3"
       gapy="0"
       offset="0"
       offset_type="false"
       scale="0"
       rotate="0"
       mirrorrowsx="false"
       mirrorrowsy="false"
       mirrorcolsx="false"
       mirrorcolsy="false"
       mirrortrans="false"
       shrink_interp="false"
       split_items="false"
       link_styles="false"
       interpolate_scalex="false"
       interpolate_scaley="true"
       interpolate_rotatex="false"
       interpolate_rotatey="true"
       random_scale="false"
       random_rotate="false"
       random_gap_y="false"
       random_gap_x="false"
       transformorigin="rotate(90)" /></defs><g
     inkscape:label="Layer 1"
     inkscape:groupmode="layer"
     id="layer1"
     transform="translate(-93.332381,-96.695296)"><path
       id="rect4468"
       style="fill:#fcfbfb;fill-opacity:1;stroke-width:1.03903;stroke-linecap:round;stroke-linejoin:round;stop-color:#000000"
       d="m 108.99337,99.104659 c -0.0664,-0.0023 -0.13547,0.0061 -0.20605,0.02263 -0.16232,0.0379 -0.33371,0.124809 -0.50795,0.267286 -0.2499,0.204352 -0.49154,0.399847 -0.73777,0.599935 -0.54853,0.44573 -1.0943,0.88868 -1.6228,1.32081 -0.25526,0.20874 -0.50819,0.41647 -0.75834,0.62382 -0.25007,0.20729 -0.49768,0.41465 -0.74235,0.62174 -0.48952,0.41431 -0.96788,0.82929 -1.43412,1.24985 -0.2331,0.21027 -0.46298,0.42189 -0.68984,0.63548 -1.24782,1.17482 -2.399151,2.40856 -3.430137,3.7992 -0.09373,0.12641 -0.186227,0.25408 -0.277946,0.38317 -0.183515,0.25826 -0.36293,0.52208 -0.538209,0.7919 -0.175206,0.2697 -0.346407,0.54515 -0.513103,0.82758 -0.02379,0.0204 -0.04951,0.0379 -0.07703,0.0522 -0.02751,0.0142 -0.05662,0.0256 -0.08763,0.0342 -0.06185,0.017 -0.130614,0.0228 -0.204679,0.0193 -0.03707,-0.002 -0.07592,-0.006 -0.115807,-0.0124 -0.03948,-0.007 -0.08053,-0.0151 -0.122752,-0.0254 -0.08443,-0.0205 -0.173024,-0.0496 -0.265001,-0.0856 -1.105261,-0.42588 -2.697981,-1.76964 -2.893924,-1.28183 -0.0078,0.0193 -0.01504,0.0425 -0.02149,0.0674 -0.0021,0.008 -0.0041,0.0174 -0.0059,0.026 -0.0032,0.0136 -0.0058,0.0285 -0.0086,0.0437 -0.0085,0.0454 -0.01608,0.0953 -0.02171,0.15254 -6.9e-5,6.8e-4 -1.85e-4,0.002 -5.4e-5,0.002 -0.0046,0.0481 -0.0074,0.10313 -0.0099,0.15896 -0.0027,0.0593 -0.0033,0.12347 -0.0035,0.19058 -1.41e-4,0.0339 -0.0011,0.0648 -6.6e-4,0.10064 6e-6,4.7e-4 -5e-5,8.4e-4 8.3e-5,8.8e-4 0.0015,0.0927 0.0053,0.19233 0.0111,0.29651 0.0032,0.0587 0.008,0.12175 0.01258,0.18379 0.0037,0.0501 0.0077,0.0995 0.01234,0.15147 0.0072,0.0803 0.01538,0.16219 0.02475,0.24661 0.0035,0.031 0.0074,0.0626 0.01118,0.0942 0.03499,0.294 0.08327,0.60708 0.145557,0.93232 0.0038,0.02 0.008,0.0397 0.01184,0.0598 0.003,0.0154 0.0058,0.0302 0.0088,0.0454 0.05076,0.25424 0.108036,0.51229 0.176143,0.77145 0.0014,0.003 0.0026,0.007 0.0034,0.0123 0.0357,0.13529 0.07336,0.27052 0.113927,0.40486 0.02314,0.0769 0.04701,0.15339 0.0718,0.2296 2.42e-4,7.1e-4 6.7e-4,0.001 7.68e-4,0.002 0.02477,0.0761 0.05063,0.15166 0.07706,0.22675 0.0099,0.028 0.01999,0.0554 0.03004,0.0832 0.01787,0.0494 0.03606,0.0984 0.05465,0.14726 0.01062,0.0278 0.02133,0.0553 0.03218,0.0829 0.02106,0.0538 0.04257,0.10688 0.06459,0.15963 0.0072,0.017 0.01437,0.0341 0.02159,0.0511 0.02907,0.0684 0.05883,0.13602 0.08945,0.20262 0.0021,0.005 0.0045,0.008 0.0064,0.014 0.06814,0.14734 0.139728,0.29019 0.215674,0.42666 0.0091,0.0164 0.01889,0.0321 0.02812,0.0483 0.02957,0.052 0.05943,0.10324 0.09019,0.15314 0.0078,0.0129 0.01584,0.0252 0.02374,0.0377 0.03273,0.0523 0.06601,0.10324 0.100098,0.15304 0.0091,0.0134 0.01834,0.0264 0.02758,0.0396 0.03051,0.0435 0.06163,0.086 0.09316,0.12743 0.01322,0.0175 0.02669,0.0346 0.0401,0.0517 0.03272,0.0415 0.06603,0.0815 0.09985,0.12072 0.01117,0.0127 0.02194,0.0263 0.03315,0.039 0.04534,0.0508 0.09131,0.10012 0.138619,0.14651 0.36539,0.35852 0.747046,0.70473 1.143808,1.03814 h 4.34e-4 c 0.198298,0.16663 0.400207,0.33025 0.605755,0.49047 l 4.3e-4,1e-5 c 0.308372,0.24035 0.624534,0.47344 0.94813,0.69906 l 4.28e-4,2e-5 c 0.215707,0.15037 0.434871,0.29757 0.656845,0.44131 0.333119,0.2157 0.672829,0.42386 1.01898,0.62431 0.230763,0.13363 0.464143,0.26392 0.700223,0.39062 l 4.3e-4,1e-5 c 0.59009,0.31671 1.19613,0.61169 1.81513,0.88414 l 4.1e-4,4.5e-4 c 0.61895,0.27241 1.25089,0.52226 1.89267,0.74891 l 4.2e-4,2e-5 c 0.51344,0.18126 1.03311,0.34806 1.55765,0.49917 h 4.2e-4 c 1.70504,0.4912 3.46045,0.82099 5.21276,0.97565 h 4.4e-4 c 0.26946,0.0238 0.53908,0.0434 0.80822,0.0588 0.26927,0.0154 0.53833,0.0267 0.80686,0.0338 0.26852,0.007 0.53641,0.009 0.80381,0.008 0.2673,-0.002 0.53417,-0.007 0.79991,-0.0173 0.53182,-0.0203 1.06045,-0.058 1.58387,-0.11336 0.26171,-0.0278 0.52232,-0.0596 0.78136,-0.0962 0.64757,-0.0915 1.28592,-0.21137 1.91248,-0.35974 0.25063,-0.0594 0.49955,-0.12297 0.74613,-0.1916 0.0245,-0.007 0.0492,-0.0158 0.074,-0.0234 0.0256,-0.008 0.0509,-0.0151 0.0765,-0.0238 0.0255,-0.008 0.0511,-0.0185 0.0766,-0.0281 0.0286,-0.0106 0.0572,-0.0213 0.0859,-0.033 0.0254,-0.0104 0.0506,-0.0213 0.0759,-0.0323 0.026,-0.0113 0.0518,-0.023 0.0777,-0.0349 0.0283,-0.0131 0.0566,-0.0264 0.0848,-0.0403 0.03,-0.0148 0.0601,-0.0299 0.0901,-0.0456 0.0194,-0.0104 0.0388,-0.0203 0.0582,-0.0309 0.0529,-0.0288 0.1059,-0.0586 0.15872,-0.09 0.002,-10e-4 0.004,-0.002 0.006,-0.004 0.0522,-0.0312 0.10397,-0.0641 0.15598,-0.0978 0.0148,-0.009 0.0293,-0.0194 0.044,-0.0291 0.0394,-0.026 0.0787,-0.0524 0.11789,-0.0797 0.0179,-0.0125 0.0357,-0.0253 0.0533,-0.0378 0.0329,-0.0234 0.0657,-0.0471 0.0984,-0.0713 0.0256,-0.0188 0.0512,-0.038 0.0767,-0.0573 0.0211,-0.0162 0.0421,-0.0327 0.0631,-0.0492 0.0342,-0.0268 0.0684,-0.0534 0.10241,-0.0811 0.009,-0.008 0.0201,-0.0166 0.0301,-0.0248 0.0363,-0.0297 0.0729,-0.0594 0.1088,-0.0899 0.001,-0.002 0.002,-10e-4 0.003,-0.003 0.13216,-0.11239 0.25991,-0.23158 0.38587,-0.35259 0.0236,-0.0226 0.047,-0.0451 0.0702,-0.0679 0.0379,-0.0373 0.0761,-0.0742 0.11335,-0.11214 0.0277,-0.0279 0.0549,-0.0557 0.082,-0.0838 0.0189,-0.0194 0.0367,-0.0393 0.0553,-0.059 0.0413,-0.0436 0.082,-0.0868 0.12213,-0.13081 0.0124,-0.0141 0.0262,-0.0278 0.0388,-0.0417 0.0396,-0.0439 0.0777,-0.0874 0.11616,-0.13142 0.0198,-0.0226 0.0395,-0.0451 0.059,-0.0678 0.0211,-0.0245 0.0419,-0.0492 0.0627,-0.0737 0.0436,-0.0517 0.086,-0.10324 0.12766,-0.15471 0.001,-0.002 0.003,-0.003 0.005,-0.005 0.003,-0.002 0.003,-0.005 0.006,-0.008 0.0317,-0.0393 0.062,-0.078 0.0925,-0.11709 0.0365,-0.0468 0.0739,-0.094 0.10873,-0.14025 0.0214,-0.0286 0.0405,-0.0563 0.0612,-0.0845 0.038,-0.0519 0.0762,-0.10396 0.11176,-0.15479 0.0291,-0.0417 0.0558,-0.0821 0.0832,-0.12299 0.031,-0.0461 0.061,-0.0918 0.0896,-0.13658 10e-4,-0.003 0.003,-0.005 0.005,-0.008 0.0238,-0.0375 0.0474,-0.0744 0.0695,-0.11097 0.034,-0.056 0.0648,-0.10994 0.0944,-0.1631 0.0126,-0.0227 0.0276,-0.0469 0.0392,-0.0689 0.0299,-0.0559 0.0566,-0.10921 0.081,-0.16094 0.005,-0.0118 0.0106,-0.0234 0.0158,-0.0349 0.0238,-0.0526 0.0453,-0.10303 0.063,-0.15035 0.0179,-0.0466 0.0306,-0.0898 0.0415,-0.13085 0.003,-0.0128 0.006,-0.0254 0.009,-0.0375 0.002,-0.009 0.005,-0.0187 0.006,-0.0279 0.003,-0.0181 0.006,-0.0349 0.007,-0.0516 8e-4,-0.006 0.001,-0.0136 0.003,-0.0192 0.002,-0.0277 -2.4e-4,-0.0533 -0.005,-0.0767 -0.004,-0.018 -0.009,-0.0347 -0.0178,-0.0505 -0.0104,-0.0205 -0.0235,-0.0391 -0.0403,-0.056 -0.0156,-0.0155 -0.0336,-0.0295 -0.0542,-0.0423 -0.0621,-0.038 -0.14608,-0.0637 -0.2478,-0.0811 -0.0339,-0.006 -0.0696,-0.0104 -0.10713,-0.0143 -0.0751,-0.007 -0.15753,-0.0121 -0.24534,-0.0139 -0.43891,-0.009 -1.01763,0.041 -1.55644,0.0242 -0.0539,-0.002 -0.10743,-0.004 -0.16031,-0.007 -0.2115,-0.0126 -0.41416,-0.0376 -0.59565,-0.0837 l -4.3e-4,-10e-6 c -0.0907,-0.0234 -0.17614,-0.0515 -0.25508,-0.0861 -0.079,-0.0345 -0.15131,-0.0752 -0.21555,-0.1232 -0.0964,-0.0718 -0.17463,-0.1599 -0.22984,-0.26782 0.0611,-0.30321 0.11125,-0.60678 0.15071,-0.91072 0.0396,-0.30394 0.0685,-0.60853 0.088,-0.91319 0.0389,-0.60944 0.039,-1.21985 0.006,-1.83181 -0.008,-0.15295 -0.0186,-0.30588 -0.0309,-0.45899 -0.13442,-1.68409 -0.5062,-3.37652 -0.9926,-5.07306 -0.0885,-0.30846 -0.18049,-0.61706 -0.27577,-0.92576 -0.19054,-0.6174 -0.39325,-1.2351 -0.60226,-1.85316 -0.31353,-0.92708 -0.64132,-1.85471 -0.96318,-2.78209 -0.0705,-0.20318 -0.16572,-0.36343 -0.27808,-0.48031 -0.0282,-0.0293 -0.0571,-0.056 -0.0874,-0.0798 -0.0604,-0.0476 -0.12489,-0.0842 -0.19231,-0.10995 -0.10116,-0.0386 -0.20894,-0.0523 -0.32108,-0.0414 -0.0373,0.004 -0.0753,0.0104 -0.1134,0.0191 -0.11449,0.0275 -0.23212,0.0802 -0.34988,0.1579 -0.0786,0.0518 -0.15729,0.11488 -0.23509,0.18913 -0.0625,0.0595 -0.12662,0.11986 -0.19265,0.1806 -0.13202,0.12153 -0.27087,0.24479 -0.41472,0.36629 -0.21577,0.18226 -0.44271,0.36076 -0.67508,0.52448 -0.15481,0.10907 -0.31223,0.2116 -0.46997,0.30424 -0.15794,0.0927 -0.31634,0.17545 -0.47365,0.24514 -0.11788,0.0523 -0.23502,0.0973 -0.35081,0.13332 -0.15441,0.048 -0.3066,0.0804 -0.45415,0.0939 -0.14754,0.0135 -0.29055,0.008 -0.42768,-0.0193 -0.0343,-0.007 -0.0683,-0.0151 -0.10168,-0.025 -0.0335,-0.009 -0.0664,-0.021 -0.0993,-0.0331 -0.0977,-0.0375 -0.19203,-0.0875 -0.28233,-0.1482 l -4.1e-4,-4.4e-4 c -0.0904,-0.0607 -0.17698,-0.13213 -0.26003,-0.21286 l -4e-4,-4.3e-4 c -0.0554,-0.0538 -0.10921,-0.11149 -0.16144,-0.1731 v -4.3e-4 c -0.0786,-0.0922 -0.15359,-0.19266 -0.2251,-0.29981 l 1e-5,-4.5e-4 c -0.0958,-0.14157 -0.18538,-0.29627 -0.26892,-0.45888 l -4.2e-4,-4.5e-4 c -0.0835,-0.16269 -0.16144,-0.33363 -0.23369,-0.50859 -0.0724,-0.17515 -0.13901,-0.35462 -0.20057,-0.53464 -0.0615,-0.18002 -0.11773,-0.36049 -0.16903,-0.53792 -0.0256,-0.0886 -0.0502,-0.17669 -0.0733,-0.26322 v -4.3e-4 c -0.005,-0.0196 -0.0104,-0.0383 -0.015,-0.0577 -0.0175,-0.0665 -0.0348,-0.133243 -0.0508,-0.197921 -0.013,-0.05221 -0.0277,-0.101948 -0.0438,-0.149481 -0.1132,-0.33301 -0.30266,-0.550734 -0.53605,-0.636283 -0.0333,-0.01226 -0.0675,-0.02184 -0.10241,-0.02873 -0.035,-0.0068 -0.0707,-0.01087 -0.10723,-0.01207 z m 0.21239,6.988371 c 2.52461,0.0939 5.17875,1.97861 4.58643,4.71332 -0.19052,1.44517 -1.2052,2.79747 -2.67075,3.03681 l -0.24062,0.82775 c -0.0821,0.28247 -0.44067,0.42486 -0.80406,0.31928 l -0.41081,-0.11868 c -0.3633,-0.10595 -0.58981,-0.41786 -0.50774,-0.70037 l 0.17777,-0.61281 -0.1831,-0.0523 -0.17819,0.6124 c -0.0821,0.28247 -0.44067,0.42485 -0.80406,0.31928 l -0.4108,-0.11869 c -0.36329,-0.10595 -0.59021,-0.4183 -0.50816,-0.7008 l 0.17819,-0.61237 -0.18362,-0.0524 -0.17765,0.61241 c -0.0821,0.28247 -0.4411,0.42485 -0.80449,0.31927 l -0.4108,-0.11867 c -0.36329,-0.10596 -0.5898,-0.41787 -0.50774,-0.70039 l 0.32103,-1.10451 c -0.59099,-0.93571 -0.75997,-2.44008 -0.26733,-3.58999 0.62247,-1.65993 2.18753,-2.33591 3.80587,-2.27576 z m -1.89378,2.1024 c -0.45167,-0.0136 -0.93187,0.35877 -1.27018,1.37221 -0.18564,0.6398 0.37007,1.36328 1.00982,1.54906 0.63957,0.1859 1.30883,-0.18219 1.49477,-0.82175 0.19227,-0.98265 -0.48162,-2.07686 -1.23441,-2.09952 z m 4.53538,1.39801 c -0.6089,-0.004 -1.3318,0.44432 -1.66208,1.17792 -0.18989,0.6536 0.18645,1.33735 0.84006,1.52722 0.65355,0.19008 1.52859,-0.0435 1.71848,-0.69702 0.33784,-1.41553 -0.20634,-2.00297 -0.89646,-2.00812 z" /></g></svg>
