<?xml version="1.0" encoding="UTF-8" standalone="no"?>
<!DOCTYPE svg PUBLIC "-//W3C//DTD SVG 1.1//EN" "http://www.w3.org/Graphics/SVG/1.1/DTD/svg11.dtd">
<svg width="100%" height="100%" viewBox="0 0 300 345" version="1.1" xmlns="http://www.w3.org/2000/svg" xmlns:xlink="http://www.w3.org/1999/xlink" xml:space="preserve" xmlns:serif="http://www.serif.com/" style="fill-rule:evenodd;clip-rule:evenodd;stroke-linejoin:round;stroke-miterlimit:2;">
    <path d="M278.53,248.83C278.53,228.751 262.229,212.45 242.15,212.45L57.85,212.45C37.771,212.45 21.47,228.751 21.47,248.83L21.47,308.62C21.47,328.699 37.771,345 57.85,345L242.15,345C262.229,345 278.53,328.699 278.53,308.62L278.53,248.83Z" style="fill:rgb(214,32,39);"/>
    <path d="M212.71,212.45L87.29,212.45C51.186,212.45 21.475,242.156 21.47,278.26C21.403,293.84 33.769,306.889 49.33,307.66L250.67,307.66C266.231,306.889 278.597,293.84 278.53,278.26C278.525,242.156 248.814,212.45 212.71,212.45Z" style="fill:rgb(142,25,27);fill-rule:nonzero;"/>
    <path d="M300,51.53C300,23.09 276.91,0 248.47,0L51.53,0C23.09,0 0,23.09 0,51.53L0,236.67C0,265.11 23.09,288.2 51.53,288.2L248.47,288.2C276.91,288.2 300,265.11 300,236.67L300,51.53Z" style="fill:url(#_Linear1);"/>
    <path d="M240.77,198.85L59.23,198.85C32.99,198.85 11.72,214.28 11.72,233.32L11.72,239.71C11.72,258.71 32.99,274.18 59.23,274.18L240.77,274.18C267.01,274.18 288.28,258.75 288.28,239.71L288.28,233.32C288.28,214.28 267,198.85 240.77,198.85Z" style="fill:rgb(218,230,245);fill-rule:nonzero;"/>
    <g transform="matrix(1,0,0,1,4.31818,1.23273)">
        <path d="M207.136,228.987C207.136,226.034 204.739,223.636 201.785,223.636L89.578,223.636C86.625,223.636 84.227,226.034 84.227,228.987L84.227,239.689C84.227,242.642 86.625,245.04 89.578,245.04L201.785,245.04C204.739,245.04 207.136,242.642 207.136,239.689L207.136,228.987Z" style="fill:rgb(157,198,234);"/>
    </g>
    <g transform="matrix(0.0777327,-0.0083496,0.0083496,0.0777327,-5.96879,-36.6148)">
        <g transform="matrix(1,0,0,1,-10.7785,82.7707)">
            <path d="M1555.78,1122.35C1567.97,1137.41 1605.43,1141.31 1618.61,1122.35C1649.11,1078.5 1634.97,1016.25 1593.55,956.211C1592.78,989.04 1606.98,1000 1583.32,1047.43C1584.14,1033.07 1582.21,1020.88 1576.4,1011.73C1575.23,1029.64 1568.45,1043.73 1556.86,1054.53C1539.51,1074.98 1543.96,1107.74 1555.78,1122.35Z" style="fill:rgb(244,141,87);"/>
        </g>
        <g transform="matrix(1,0,0,1,-10.7785,82.7707)">
            <path d="M1567.51,1113.62C1574.23,1131.99 1595.73,1131.88 1603.73,1113.79C1610.27,1099.03 1609.06,1087.62 1600.54,1075.61C1601.16,1099 1577.41,1092.36 1586.09,1058.92C1563.98,1077.15 1560.11,1093.42 1567.51,1113.62Z" style="fill:rgb(246,231,100);"/>
        </g>
        <g transform="matrix(1,0,0,1,-10.7785,82.7707)">
            <path d="M1590.18,1096.37C1588.19,1101.48 1581.36,1102.81 1580.22,1109.03C1579.41,1118.13 1588.53,1118.96 1592.29,1112.16C1594.87,1107.47 1591.6,1096.48 1590.18,1096.37Z" style="fill:rgb(255,250,159);"/>
        </g>
    </g>
    <g>
        <g transform="matrix(1,0,0,1.08182,0.388054,-13.4775)">
            <rect x="117.738" y="169.466" width="63.749" height="6.99" style="fill:rgb(74,168,145);"/>
        </g>
        <path d="M152.721,79.6L154.664,87.463C154.664,87.463 156.788,87.011 157.15,86.559C157.511,86.107 158.912,81.905 158.912,81.905L158.053,75.94L156.02,76.527L152.721,79.6Z" style="fill:rgb(24,116,106);"/>
        <path d="M142.372,75.94L140.61,82.402L142.847,84.842L146.801,84.119L146.53,79.374L142.372,75.94" style="fill:rgb(24,116,106);"/>
        <path d="M145.122,84.698L145.122,80.478C143.282,79.029 142.1,76.782 142.1,74.26C142.1,69.893 145.645,66.348 150.012,66.348C154.379,66.348 157.924,69.893 157.924,74.26C157.924,76.802 156.722,79.065 154.857,80.514L154.857,84.686L154.888,84.686C155.966,86.772 157.462,88.003 159.554,88.01C162.151,88.01 164.26,90.119 164.26,92.716L177.113,171.194L122.887,171.194L135.757,92.716C135.757,90.119 137.866,88.01 140.464,88.01L141.044,88.01L145.122,84.698Z" style="fill:rgb(74,168,145);"/>
        <path d="M124.796,55.688L127.26,72.518C127.425,73.638 127.757,74.72 128.278,75.758L136.421,95.862L144.158,91.766L135.087,74.632C134.474,73.65 133.834,72.81 133.136,72.297C133.322,71.316 133.242,70.414 133.002,69.56L127.647,53.312L127.736,51.829C127.775,51.184 127.283,50.628 126.637,50.589L124.298,50.448C123.652,50.41 123.096,50.902 123.058,51.548L122.886,54.399C122.847,55.045 123.34,55.601 123.986,55.639L124.796,55.688Z" style="fill:rgb(74,168,145);"/>
        <g transform="matrix(-0.989408,0.145159,-0.145159,-0.989408,310.754,161.981)">
            <path d="M123.274,66.063L126.622,72.993C126.787,74.113 127.757,74.72 128.278,75.758L135.139,92.132L144.158,91.766L135.087,74.632C134.474,73.65 133.834,72.81 133.136,72.297C133.322,71.316 132.637,70.451 132.003,69.698L126.125,63.687L126.214,62.204C126.253,61.558 125.761,61.003 125.115,60.964L122.776,60.823C122.13,60.784 121.574,61.277 121.536,61.923L121.364,64.774C121.325,65.42 121.818,65.975 122.464,66.014L123.274,66.063Z" style="fill:rgb(74,168,145);"/>
        </g>
        <g transform="matrix(0.675666,0.138597,-0.589789,1.06787,108.078,-29.1321)">
            <path d="M201.427,100.678C201.427,99.868 200.316,99.21 198.947,99.21L186.112,99.21C184.744,99.21 183.633,99.868 183.633,100.678L183.633,117.303C183.633,118.113 184.744,118.771 186.112,118.771L198.947,118.771C200.316,118.771 201.427,118.113 201.427,117.303L201.427,100.678Z" style="fill:rgb(74,168,145);"/>
        </g>
        <path d="M131.276,91.256L131.107,91.563C130.912,91.918 131.042,92.364 131.396,92.559L131.912,92.842L131.853,93.609C131.769,94.709 132.594,95.669 133.693,95.753L134.053,95.78L133.892,96.185C133.742,96.561 133.925,96.988 134.301,97.138L137.529,98.426C137.905,98.576 138.332,98.392 138.482,98.016L138.566,97.804C138.606,97.829 138.648,97.852 138.694,97.87L141.921,99.158C142.297,99.308 142.724,99.124 142.874,98.748L148.376,84.962C148.526,84.586 148.342,84.159 147.967,84.009L144.739,82.721C144.363,82.571 143.936,82.754 143.786,83.13L143.701,83.342C143.662,83.317 143.619,83.295 143.574,83.277L141.706,82.531L141.87,82.234C142.064,81.88 141.935,81.433 141.58,81.239L140.759,80.788L140.792,80.742C141.029,80.413 140.953,79.954 140.625,79.718L137.802,77.691C137.474,77.455 137.015,77.53 136.779,77.859L128.985,88.708C128.749,89.037 128.824,89.495 129.153,89.731L131.276,91.256Z" style="fill:rgb(74,168,145);"/>
        <path id="torch" d="M124.466,45.656L123.471,45.559C123.114,45.524 122.795,45.785 122.76,46.143L122.634,47.438C122.599,47.795 122.86,48.113 123.218,48.148L123.634,48.189L124.551,61.551L127.91,48.607L128.349,48.65C128.707,48.685 129.025,48.423 129.06,48.066L129.187,46.771C129.222,46.414 128.96,46.095 128.602,46.06L127.456,45.948L127.569,44.746L124.579,44.464L124.466,45.656Z" style="fill:rgb(74,168,145);"/>
        <g id="hair">
            <path d="M148.428,66.978C147.598,70.709 152.721,72.991 154.802,70.726C154.058,73.289 154.793,75.672 157.423,77.833L158.912,78.496L155.817,69.428L148.428,66.978Z" style="fill:rgb(23,158,144);"/>
            <path d="M157.73,69.497C154.87,66.774 151.751,66.076 148.428,66.978C148.08,69.911 153.21,71.939 154.802,70.726C154.828,73.391 155.583,75.787 157.441,77.776C158.154,79.99 156.956,83.576 155.163,85.694C156.166,87.823 158.004,88.649 160.55,88.369C160.807,87.174 161.196,86.201 159.718,85.585C161.441,83.52 160.304,80.795 159.61,77.957L158.484,72.266C158.694,71.595 158.35,70.049 157.73,69.497Z" style="fill:rgb(74,168,145);"/>
            <path d="M148.428,66.978C148.572,69.911 145.768,72.411 143.642,72.737C143.996,75.137 142.847,78.095 141.974,78.496L140.81,78.207L142.847,70.404L148.428,66.978Z" style="fill:rgb(23,158,144);"/>
            <path d="M142.655,69.089C143.887,66.704 145.846,66.085 148.428,66.978C148.065,69.486 146.302,71.295 143.288,72.478C143.345,74.836 142.881,76.868 141.974,78.624L142.971,83.685L137.277,82.284C137.145,79.914 138.102,78.087 139.898,76.681C140.234,74.876 140.6,73.317 141.659,71.874C141.547,70.894 141.904,69.921 142.655,69.089Z" style="fill:rgb(74,168,145);"/>
        </g>
        <path d="M142.066,69.911C147.687,67.867 152.983,68.033 158.026,69.911L157.594,68.349C152.924,66.78 147.932,66.647 142.555,68.228L142.066,69.911Z" style="fill:rgb(23,158,144);"/>
        <g id="crown">
            <g transform="matrix(1,0,0,1,-0.0266791,-3.92987)">
                <path d="M158.053,69.676C152.702,67.4 147.351,67.416 142.001,69.676L142.001,73.84C147.351,71.328 152.702,71.355 158.053,73.84L158.053,69.676Z" style="fill:rgb(74,168,145);"/>
            </g>
            <g transform="matrix(1.23917,0,0,1,-35.2769,0.314673)">
                <path d="M149.516,54.119L150.605,64.231L148.428,64.231L149.516,54.119Z" style="fill:rgb(74,168,145);"/>
            </g>
            <g transform="matrix(1.19695,0.320722,-0.258819,0.965926,-8.92776,-44.9714)">
                <path d="M149.516,54.119L150.605,64.231L148.428,64.231L149.516,54.119Z" style="fill:rgb(74,168,145);"/>
            </g>
            <g transform="matrix(1.07316,0.619587,-0.5,0.866025,28.3942,-82.1266)">
                <path d="M149.516,54.119L150.605,64.231L148.428,64.231L149.516,54.119Z" style="fill:rgb(74,168,145);"/>
            </g>
            <g transform="matrix(-1.19695,0.320722,0.258819,0.965926,309.016,-44.9714)">
                <path d="M149.516,54.119L150.605,64.231L148.428,64.231L149.516,54.119Z" style="fill:rgb(74,168,145);"/>
            </g>
            <g transform="matrix(-1.07316,0.619587,0.5,0.866025,271.694,-82.1266)">
                <path d="M149.516,54.119L150.605,64.231L148.428,64.231L149.516,54.119Z" style="fill:rgb(74,168,145);"/>
            </g>
            <path d="M144.619,67.792L142.729,69.26L136.448,64.424L144.619,67.792Z" style="fill:rgb(74,168,145);"/>
            <path d="M157.565,69.179L155.491,67.824L163.74,64.424L157.565,69.179Z" style="fill:rgb(74,168,145);"/>
        </g>
        <g transform="matrix(1,0,0,1,-0.131673,0)">
            <path d="M150.643,65.121C150.643,64.98 150.528,64.865 150.387,64.865L149.876,64.865C149.735,64.865 149.621,64.98 149.621,65.121L149.621,67.174C149.621,67.315 149.735,67.43 149.876,67.43L150.387,67.43C150.528,67.43 150.643,67.315 150.643,67.174L150.643,65.121Z" style="fill:rgb(23,158,144);"/>
        </g>
        <g transform="matrix(0.988375,0.152037,-0.152037,0.988375,14.3545,-21.8098)">
            <path d="M150.643,65.121C150.643,64.98 150.528,64.865 150.387,64.865L149.876,64.865C149.735,64.865 149.621,64.98 149.621,65.121L149.621,67.174C149.621,67.315 149.735,67.43 149.876,67.43L150.387,67.43C150.528,67.43 150.643,67.315 150.643,67.174L150.643,65.121Z" style="fill:rgb(23,158,144);"/>
        </g>
        <g transform="matrix(0.954201,0.299165,-0.269776,0.860462,29.6264,-34.7337)">
            <path d="M150.643,65.149C150.643,64.992 150.528,64.865 150.387,64.865L149.876,64.865C149.735,64.865 149.621,64.992 149.621,65.149L149.621,67.147C149.621,67.303 149.735,67.43 149.876,67.43L150.387,67.43C150.528,67.43 150.643,67.303 150.643,67.147L150.643,65.149Z" style="fill:rgb(23,158,144);"/>
        </g>
        <g transform="matrix(0.684087,0.214478,-0.227606,0.725961,69.3246,-12.2486)">
            <path d="M150.643,65.106C150.643,64.973 150.528,64.865 150.387,64.865L149.876,64.865C149.735,64.865 149.621,64.973 149.621,65.106L149.621,67.189C149.621,67.322 149.735,67.43 149.876,67.43L150.387,67.43C150.528,67.43 150.643,67.322 150.643,67.189L150.643,65.106Z" style="fill:rgb(23,158,144);"/>
        </g>
        <g transform="matrix(-0.988375,0.152037,0.152037,0.988375,285.664,-21.8098)">
            <path d="M150.643,65.121C150.643,64.98 150.528,64.865 150.387,64.865L149.876,64.865C149.735,64.865 149.621,64.98 149.621,65.121L149.621,67.174C149.621,67.315 149.735,67.43 149.876,67.43L150.387,67.43C150.528,67.43 150.643,67.315 150.643,67.174L150.643,65.121Z" style="fill:rgb(23,158,144);"/>
        </g>
        <g transform="matrix(-0.954201,0.299165,0.269776,0.860462,270.392,-34.7337)">
            <path d="M150.643,65.149C150.643,64.992 150.528,64.865 150.387,64.865L149.876,64.865C149.735,64.865 149.621,64.992 149.621,65.149L149.621,67.147C149.621,67.303 149.735,67.43 149.876,67.43L150.387,67.43C150.528,67.43 150.643,67.303 150.643,67.147L150.643,65.149Z" style="fill:rgb(23,158,144);"/>
        </g>
        <g transform="matrix(-0.684087,0.214478,0.227606,0.725961,230.694,-12.2486)">
            <path d="M150.643,65.106C150.643,64.973 150.528,64.865 150.387,64.865L149.876,64.865C149.735,64.865 149.621,64.973 149.621,65.106L149.621,67.189C149.621,67.322 149.735,67.43 149.876,67.43L150.387,67.43C150.528,67.43 150.643,67.322 150.643,67.189L150.643,65.106Z" style="fill:rgb(23,158,144);"/>
        </g>
        <g>
            <path d="M131.887,84.669L136.779,77.859L135.992,76.363L131.042,82.548L131.887,84.669Z" style="fill:rgb(23,158,144);"/>
            <path d="M131.912,92.842L135.992,87.847L131.913,94.243C131.825,93.872 131.847,93.379 131.912,92.842Z" style="fill:rgb(23,158,144);"/>
            <path d="M134.053,95.78L139.179,90.26L134.019,96.908C133.706,96.532 133.87,96.156 134.053,95.78Z" style="fill:rgb(23,158,144);"/>
            <path d="M145.122,84.698L150.74,97.653L149.611,99.21L145.122,84.698Z" style="fill:rgb(23,158,144);"/>
            <path d="M141.706,82.531L140.61,88.382L143.705,83.404L141.706,82.531Z" style="fill:rgb(23,158,144);"/>
            <path d="M140.759,80.788L137.265,86.021L141.436,81.08L140.759,80.788Z" style="fill:rgb(23,158,144);"/>
            <path d="M123.107,169.854L176.888,169.854L176.563,167.8L123.451,167.8L123.107,169.854Z" style="fill:rgb(23,158,144);"/>
            <path d="M168.846,110.94L172.281,104.721L172.033,104.315C170.207,106.879 168.445,109.405 168.745,110.694L168.846,110.94Z" style="fill:rgb(23,158,144);"/>
            <path d="M168.534,109.776C168.598,108.943 168.978,108.166 169.741,107.457C169.037,107.908 168.374,108.467 167.957,109.407C168.149,109.558 168.339,109.674 168.534,109.776Z" style="fill:rgb(23,158,144);"/>
            <path d="M166.825,108.378L162.615,94.727L165.427,100.657L166.174,99.837L166.319,101.115L167.138,101.115L166.825,108.378Z" style="fill:rgb(23,158,144);"/>
            <path d="M160.603,88.127L127.827,141.075L125.316,156.486L160.603,88.127Z" style="fill:rgb(23,158,144);"/>
            <path d="M160.603,169.97L139.678,169.97L160.603,88.127L160.603,169.97Z" style="fill:rgb(23,158,144);"/>
            <path d="M160.603,88.127L125.561,167.8L132.912,167.8L160.603,88.127ZM131.853,129.049C137.257,122.096 142.258,115.058 146.888,107.942C151.517,100.826 155.773,93.631 159.686,86.364L131.853,129.049ZM133.176,117.881L136.026,98.849L138.692,97.102L137.681,99.21L138.299,99.608L137.744,100.21L137.887,110.644L139.534,110.268L133.176,117.881ZM135.499,95.937C136.743,95.238 137.828,94.328 138.772,93.23C139.716,92.132 140.518,90.845 141.197,89.394L135.499,95.937ZM144.534,85.511L147.019,94.512L144.873,94.851L145.4,92.665L144.534,85.511ZM133.176,93.752C134.369,91.423 135.637,89.319 136.976,87.425C138.314,85.532 139.723,83.849 141.197,82.364L133.176,93.752ZM129.724,88.737C131.658,87.416 133.224,85.855 134.469,84.083C135.714,82.31 136.638,80.327 137.286,78.163L129.724,88.737Z" style="fill:rgb(106,180,162);fill-opacity:0.5;"/>
            <path d="M159.718,85.585L130.57,124.348L129.65,130.144L159.718,85.585Z" style="fill:rgb(23,158,144);"/>
        </g>
    </g>
    <g id="base">
        <g transform="matrix(1,0,0,0.679931,1.36477,75.3991)">
            <rect x="98.453" y="209.395" width="100.364" height="26.176" style="fill:rgb(210,174,127);"/>
        </g>
        <g transform="matrix(1.00002,0,0,0.595905,0.075402,84.3424)">
            <path d="M190.893,165.646C190.893,159.538 187.937,154.578 184.297,154.578L115.568,154.578C111.928,154.578 108.973,159.538 108.973,165.646L108.973,187.782C108.973,193.891 111.928,198.85 115.568,198.85L184.297,198.85C187.937,198.85 190.893,193.891 190.893,187.782L190.893,165.646Z" style="fill:rgb(210,174,127);"/>
        </g>
        <g transform="matrix(1.05178,0,0,1,-10.1535,0)">
            <path d="M196.086,206.592L108.452,206.592L113.333,195.57L191.205,195.57L196.086,206.592Z" style="fill:rgb(210,174,127);"/>
        </g>
        <g transform="matrix(1.05178,0,0,0.340541,-10.1535,136.239)">
            <path d="M196.086,206.592L108.452,206.592L110.086,195.57L194.452,195.57L196.086,206.592Z" style="fill:rgb(182,146,100);"/>
        </g>
        <g transform="matrix(0.918377,0,0,0.339965,13.4969,137.687)">
            <rect x="98.453" y="209.395" width="100.364" height="26.176" style="fill:rgb(182,146,100);"/>
        </g>
        <g transform="matrix(0.958446,0,0,0.298692,7.5411,142.087)">
            <rect x="98.453" y="209.395" width="100.364" height="26.176" style="fill:rgb(210,174,127);"/>
        </g>
        <g transform="matrix(1,0,0,0.890598,1.0657,21.3063)">
            <path d="M122.351,182.63C122.351,181.405 121.465,180.41 120.374,180.41L116.421,180.41C115.33,180.41 114.444,181.405 114.444,182.63L114.444,192.534C114.444,193.759 115.33,194.753 116.421,194.753L120.374,194.753C121.465,194.753 122.351,193.759 122.351,192.534L122.351,182.63Z" style="fill:rgb(182,146,100);"/>
        </g>
        <g transform="matrix(1,0,0,0.890598,13.1711,21.3063)">
            <path d="M122.351,182.63C122.351,181.405 121.465,180.41 120.374,180.41L116.421,180.41C115.33,180.41 114.444,181.405 114.444,182.63L114.444,192.534C114.444,193.759 115.33,194.753 116.421,194.753L120.374,194.753C121.465,194.753 122.351,193.759 122.351,192.534L122.351,182.63Z" style="fill:rgb(182,146,100);"/>
        </g>
        <g transform="matrix(1,0,0,0.890598,25.4298,21.3063)">
            <path d="M122.351,182.63C122.351,181.405 121.465,180.41 120.374,180.41L116.421,180.41C115.33,180.41 114.444,181.405 114.444,182.63L114.444,192.534C114.444,193.759 115.33,194.753 116.421,194.753L120.374,194.753C121.465,194.753 122.351,193.759 122.351,192.534L122.351,182.63Z" style="fill:rgb(182,146,100);"/>
        </g>
        <g transform="matrix(1,0,0,0.890598,37.7982,21.3063)">
            <path d="M122.351,182.63C122.351,181.405 121.465,180.41 120.374,180.41L116.421,180.41C115.33,180.41 114.444,181.405 114.444,182.63L114.444,192.534C114.444,193.759 115.33,194.753 116.421,194.753L120.374,194.753C121.465,194.753 122.351,193.759 122.351,192.534L122.351,182.63Z" style="fill:rgb(182,146,100);"/>
        </g>
        <g transform="matrix(1,0,0,0.890598,50.3633,21.3063)">
            <path d="M122.351,182.63C122.351,181.405 121.465,180.41 120.374,180.41L116.421,180.41C115.33,180.41 114.444,181.405 114.444,182.63L114.444,192.534C114.444,193.759 115.33,194.753 116.421,194.753L120.374,194.753C121.465,194.753 122.351,193.759 122.351,192.534L122.351,182.63Z" style="fill:rgb(182,146,100);"/>
        </g>
        <g transform="matrix(1,0,0,0.890598,62.1623,21.3063)">
            <path d="M122.351,182.63C122.351,181.405 121.465,180.41 120.374,180.41L116.421,180.41C115.33,180.41 114.444,181.405 114.444,182.63L114.444,192.534C114.444,193.759 115.33,194.753 116.421,194.753L120.374,194.753C121.465,194.753 122.351,193.759 122.351,192.534L122.351,182.63Z" style="fill:rgb(182,146,100);"/>
        </g>
    </g>
    <path d="M168.684,238.274C168.751,238.852 169.243,239.302 169.839,239.302L172.831,239.302C173.472,239.302 173.993,238.781 173.993,238.139L173.993,235.814C173.993,235.173 173.472,234.652 172.831,234.652L169.839,234.652C169.807,234.652 169.775,234.653 169.743,234.656C169.676,234.078 169.185,233.629 168.589,233.629L165.597,233.629C164.956,233.629 164.435,234.15 164.435,234.791L164.435,237.116C164.435,237.757 164.956,238.278 165.597,238.278L168.589,238.278C168.621,238.278 168.653,238.277 168.684,238.274ZM143.045,234.791C143.045,234.15 142.524,233.629 141.882,233.629L136.223,233.629C135.582,233.629 135.061,234.15 135.061,234.791L135.061,237.116C135.061,237.757 135.582,238.278 136.223,238.278L141.882,238.278C142.524,238.278 143.045,237.757 143.045,237.116L143.045,234.791ZM196.808,233.629L192.989,233.629C192.347,233.629 191.827,234.15 191.827,234.791L191.827,237.116C191.827,237.757 192.347,238.278 192.989,238.278L197.387,238.278C198.028,238.278 198.549,237.757 198.549,237.116L198.549,236.977L200.962,236.977C201.603,236.977 202.124,236.456 202.124,235.814L202.124,233.49C202.124,232.848 201.603,232.327 200.962,232.327L197.97,232.327C197.328,232.327 196.808,232.848 196.808,233.49L196.808,233.629ZM102.323,233.629L96.858,233.629C96.327,233.629 95.896,234.06 95.896,234.59L95.896,236.513C95.896,237.044 96.327,237.475 96.858,237.475L111.858,237.475C112.11,237.475 112.347,237.409 112.551,237.293C112.732,237.408 112.946,237.475 113.176,237.475L118.835,237.475C119.477,237.475 119.998,236.954 119.998,236.313L119.998,233.988C119.998,233.346 119.477,232.825 118.835,232.825L113.207,232.825C113.029,232.249 112.492,231.829 111.858,231.829L103.734,231.829C102.956,231.829 102.323,232.462 102.323,233.241L102.323,233.629Z" style="fill:rgb(157,198,234);"/>
    <g>
        <circle cx="54.57" cy="69.95" r="10.8" style="fill:white;"/>
        <circle cx="92.22" cy="33.94" r="5.89" style="fill:white;"/>
        <g transform="matrix(0.484429,0,0,0.484429,96.2561,49.7495)">
            <circle cx="150.54" cy="80.64" r="17.34" style="fill:white;"/>
        </g>
        <g transform="matrix(0.380871,0,0,0.380871,128.007,110.974)">
            <circle cx="150.54" cy="80.64" r="17.34" style="fill:white;"/>
        </g>
        <g transform="matrix(0.380871,0,0,0.380871,181.569,72.6656)">
            <circle cx="150.54" cy="80.64" r="17.34" style="fill:white;"/>
        </g>
        <g transform="matrix(0.248316,0,0,0.248316,162.654,89.9591)">
            <circle cx="150.54" cy="80.64" r="17.34" style="fill:white;"/>
        </g>
        <g transform="matrix(0.248316,0,0,0.248316,173.891,60.9469)">
            <circle cx="150.54" cy="80.64" r="17.34" style="fill:white;"/>
        </g>
        <g transform="matrix(0.157,0,0,0.157,155.819,49.0543)">
            <circle cx="150.54" cy="80.64" r="17.34" style="fill:white;"/>
        </g>
        <g transform="matrix(0.157,0,0,0.157,113.813,118.684)">
            <circle cx="150.54" cy="80.64" r="17.34" style="fill:white;"/>
        </g>
        <circle cx="108.07" cy="116.13" r="5.89" style="fill:white;"/>
        <circle cx="203" cy="32.42" r="4.36" style="fill:white;"/>
        <circle cx="256.26" cy="56.92" r="10.75" style="fill:white;"/>
        <circle cx="267.68" cy="95.51" r="2.47" style="fill:white;"/>
        <circle cx="153.73" cy="156.31" r="3.73" style="fill:white;"/>
        <circle cx="79.48" cy="165.9" r="7.64" style="fill:white;"/>
        <circle cx="103.2" cy="75.04" r="5.09" style="fill:white;"/>
        <circle cx="155.89" cy="29.18" r="5.89" style="fill:white;"/>
        <circle cx="251.88" cy="155.75" r="7.03" style="fill:white;"/>
        <circle cx="215.42" cy="146.44" r="4.1" style="fill:white;"/>
        <circle cx="186.47" cy="201.32" r="7.76" style="fill:white;"/>
        <circle cx="276.33" cy="197.44" r="3.88" style="fill:white;"/>
        <circle cx="53.96" cy="115.22" r="6.11" style="fill:white;"/>
        <circle cx="37.43" cy="160.96" r="6.34" style="fill:white;"/>
        <circle cx="88.54" cy="130.11" r="2.21" style="fill:white;"/>
        <circle cx="117.97" cy="161.14" r="2.88" style="fill:white;"/>
        <circle cx="62.45" cy="188.47" r="1.47" style="fill:white;"/>
        <circle cx="20.56" cy="106.73" r="3.74" style="fill:white;"/>
        <circle cx="39.13" cy="27.49" r="1.7" style="fill:white;"/>
        <circle cx="280.52" cy="130.8" r="1.99" style="fill:white;"/>
        <circle cx="209.91" cy="54.37" r="2.55" style="fill:white;"/>
        <circle cx="241.8" cy="26.16" r="6.26" style="fill:white;"/>
        <circle cx="105.24" cy="200.47" r="5.77" style="fill:white;"/>
        <circle cx="55.09" cy="238.84" r="4.98" style="fill:white;"/>
        <circle cx="136.37" cy="229.28" r="6.79" style="fill:white;"/>
        <circle cx="114.92" cy="249.76" r="5.94" style="fill:white;"/>
        <circle cx="138.67" cy="197.44" r="3.88" style="fill:white;"/>
        <circle cx="32.79" cy="203.49" r="4.64" style="fill:white;"/>
    </g>
    <defs>
        <linearGradient id="_Linear1" x1="0" y1="0" x2="1" y2="0" gradientUnits="userSpaceOnUse" gradientTransform="matrix(-0.46,406.41,-406.41,-0.46,150.28,-102.84)"><stop offset="0" style="stop-color:rgb(199,233,246);stop-opacity:0.8"/><stop offset="0.3" style="stop-color:rgb(199,233,246);stop-opacity:0.8"/><stop offset="0.96" style="stop-color:rgb(16,175,209);stop-opacity:0.8"/><stop offset="1" style="stop-color:rgb(16,175,209);stop-opacity:0.8"/></linearGradient>
    </defs>
</svg>
