<svg xmlns="http://www.w3.org/2000/svg" xmlns:xlink="http://www.w3.org/1999/xlink" viewBox="0 0 76.06551 100"><defs><style>.cls-1{fill:none;}.cls-2{fill:url(#linear-gradient);}.cls-3{fill:url(#linear-gradient-2);}.cls-4{fill:url(#linear-gradient-3);}.cls-5{fill:#2389d8;}.cls-6{fill:#2cc3f3;}.cls-7{fill:#d2ffff;}.cls-8{fill:url(#linear-gradient-4);}.cls-9{fill:#1a59c6;}.cls-10{fill:#0095dc;}.cls-11{fill:#09358e;}.cls-11,.cls-16{opacity:0.65;}.cls-12{fill:url(#linear-gradient-5);}.cls-13{fill:url(#linear-gradient-6);}.cls-14{fill:#104ba0;}.cls-15{fill:url(#linear-gradient-7);}.cls-16{fill:#06337a;}.cls-17{fill:url(#linear-gradient-8);}.cls-18{fill:url(#linear-gradient-9);}.cls-19{fill:url(#linear-gradient-10);}.cls-20{fill:url(#linear-gradient-11);}.cls-21{fill:url(#linear-gradient-12);}.cls-22{fill:#0aa7e5;}.cls-23{fill:#48d8f9;}.cls-24{fill:url(#linear-gradient-13);}.cls-25{fill:url(#linear-gradient-14);}.cls-26{fill:#73e0f9;opacity:0.56;}.cls-27{fill:url(#linear-gradient-15);}.cls-28{fill:url(#linear-gradient-16);}.cls-29,.cls-30{fill:#1b2536;}.cls-30{opacity:0.5;}.cls-31{clip-path:url(#clip-path);}.cls-32,.cls-33,.cls-34{fill:#f1bd35;stroke:#ec5719;stroke-linecap:round;stroke-linejoin:round;}.cls-32{stroke-width:0.5015px;}.cls-33{stroke-width:0.41521px;}.cls-34{stroke-width:0.32765px;}</style><linearGradient id="linear-gradient" x1="42.53823" y1="3.72401" x2="66.81271" y2="52.47956" gradientUnits="userSpaceOnUse"><stop offset="0.02793" stop-color="#1b2536"/><stop offset="0.32961" stop-color="#1b2536"/><stop offset="0.92179" stop-color="#1c305c" stop-opacity="0"/></linearGradient><linearGradient id="linear-gradient-2" x1="24.415" y1="-6.78862" x2="42.43249" y2="44.23287" xlink:href="#linear-gradient"/><linearGradient id="linear-gradient-3" x1="26.18069" y1="8.25412" x2="16.87016" y2="43.75826" gradientUnits="userSpaceOnUse"><stop offset="0.05496" stop-color="#1b2536"/><stop offset="0.32961" stop-color="#1b2536"/><stop offset="0.92179" stop-color="#1c305c" stop-opacity="0"/></linearGradient><linearGradient id="linear-gradient-4" x1="39.34609" y1="114.90918" x2="39.34609" y2="82.55304" gradientUnits="userSpaceOnUse"><stop offset="0.17318" stop-color="#2046c5"/><stop offset="0.92179" stop-color="#1c305c"/></linearGradient><linearGradient id="linear-gradient-5" x1="-12.87399" y1="109.14621" x2="17.69005" y2="80.39188" xlink:href="#linear-gradient-4"/><linearGradient id="linear-gradient-6" x1="-15.31982" y1="85.67295" x2="17.07033" y2="68.97492" xlink:href="#linear-gradient-4"/><linearGradient id="linear-gradient-7" x1="-3.57491" y1="26.70563" x2="28.59347" y2="63.09611" xlink:href="#linear-gradient-4"/><linearGradient id="linear-gradient-8" x1="10.28612" y1="10.83781" x2="21.94438" y2="43.40053" xlink:href="#linear-gradient-4"/><linearGradient id="linear-gradient-9" x1="590.66254" y1="109.14621" x2="621.22658" y2="80.39188" gradientTransform="matrix(-1, 0, 0, 1, 682.2285, 0)" xlink:href="#linear-gradient-4"/><linearGradient id="linear-gradient-10" x1="588.21671" y1="85.67295" x2="620.60686" y2="68.97492" gradientTransform="matrix(-1, 0, 0, 1, 682.2285, 0)" xlink:href="#linear-gradient-4"/><linearGradient id="linear-gradient-11" x1="599.96162" y1="26.70563" x2="632.13001" y2="63.09611" gradientTransform="matrix(-1, 0, 0, 1, 682.2285, 0)" xlink:href="#linear-gradient-4"/><linearGradient id="linear-gradient-12" x1="613.82661" y1="10.84884" x2="625.48213" y2="43.40391" gradientTransform="matrix(-1, 0, 0, 1, 682.2285, 0)" xlink:href="#linear-gradient-4"/><linearGradient id="linear-gradient-13" x1="39.40277" y1="87.50219" x2="39.40277" y2="48.99473" xlink:href="#linear-gradient-4"/><linearGradient id="linear-gradient-14" x1="39.40277" y1="16.39384" x2="39.40277" y2="56.30452" xlink:href="#linear-gradient-4"/><linearGradient id="linear-gradient-15" x1="30.08688" y1="20.44086" x2="26.22536" y2="45.21899" gradientUnits="userSpaceOnUse"><stop offset="0.02793" stop-color="#1b2536"/><stop offset="0.32961" stop-color="#1b2637"/><stop offset="0.92179" stop-color="#1c305c" stop-opacity="0"/></linearGradient><linearGradient id="linear-gradient-16" x1="49.9368" y1="16.2094" x2="45.60394" y2="44.01195" xlink:href="#linear-gradient"/><clipPath id="clip-path"><path class="cls-1" d="M67.01567,65.96276a7.89189,7.89189,0,0,0,5.09-7.99481,49.97447,49.97447,0,0,0-1.43135-7.70783l1.42288-1.10358c3.70016-2.8695,5.03511-7.71252,3.05249-11.16986l-7.2914-12.7163a2.33,2.33,0,0,0-1.13588-.97681l-.225-.07733a2.859,2.859,0,0,0-1.02333-.15082,4.09984,4.09984,0,0,0-2.80185,1.426q-.38361.43936-.78024.86725l-.37547.39728A66.254,66.254,0,0,1,46.38225,38.2163l-4.39413-7.26361a2.95389,2.95389,0,0,0-5.17069,0l-4.423,7.31134c-4.76057-2.69013-11.37808-7.05-16.37468-12.77265a4.09984,4.09984,0,0,0-2.80185-1.426,2.5231,2.5231,0,0,0-2.38419,1.205L3.54227,37.98668C1.55965,41.444,2.89459,46.287,6.59476,49.15654l1.42287,1.10358A49.97447,49.97447,0,0,0,6.58628,57.968a7.89191,7.89191,0,0,0,5.09,7.99481C8.142,68.59679,4.33755,71.71123,3.38821,73.54a1.9099,1.9099,0,0,0,.103,2.21423c.33163.36969.7297.81287,2.84949.64588a57.73587,57.73587,0,0,0,9.86262-2.1363c-4.52437,7.14393-9.62063,15.86023-9.89786,19.27338a2.04094,2.04094,0,0,0,2.475,2.38672,4.61521,4.61521,0,0,0,.57583-.09381c4.08325-.91461,11.49554-7.07959,14.30752-9.52728.4378-.38105,1.059-.93079,1.77029-1.58094.8915,1.37152,1.8821,2.8595,2.91618,4.34558C35.09258,98.75731,37.76819,100,39.34567,100s4.25309-1.24268,10.99585-10.93225c1.03408-1.48621,2.0248-2.97424,2.91636-4.34583.71129.65015,1.33249,1.19989,1.77029,1.58094,2.812,2.44769,10.22427,8.61267,14.30759,9.52728a4.61134,4.61134,0,0,0,.57583.09381,2.04092,2.04092,0,0,0,2.47494-2.38672c-.27717-3.41315-5.37331-12.12945-9.89774-19.27338a57.73528,57.73528,0,0,0,9.86249,2.1363c2.11979.167,2.51786-.27619,2.8495-.64588a1.90992,1.90992,0,0,0,.103-2.21423C74.35441,71.71123,70.55,68.59679,67.01567,65.96276Z"/></clipPath></defs><g id="Layer_2" data-name="Layer 2"><path class="cls-2" d="M41.73844,36.27474c3.53439-.99622-.45279,1.04659,3.0816.05037-.231-.008-2.44344-4.1254,2.38186-6.62145,2.24039,2.49605,6.478,3.60149,6.03912-1.31092s-3.632-3.2011-3.75257-2.87985c-.15264-1.22678,1.15281-2.20776,2.38734-2.29969a13.42257,13.42257,0,0,1,3.63966.64925,3.58017,3.58017,0,0,0,3.45693-.74817,3.3395,3.3395,0,0,0,.16813-3.4743c-.49328-1.12072-1.28192-2.09946-1.71213-3.2458a5.938,5.938,0,0,1,.39007-4.905,6.34147,6.34147,0,0,1,3.93071-2.99845,2.95055,2.95055,0,0,0-2.0634,3.211,5.61432,5.61432,0,0,0,2.09834,3.50389c1.05407.91412,2.27886,1.611,3.36775,2.48347a13.11832,13.11832,0,0,1,2.66022,17.60165,17.82044,17.82044,0,0,1-7.14273,5.797A18.39067,18.39067,0,0,1,51.3662,43.1212a11.19876,11.19876,0,0,1-8.25564-4.34333c-.93552-1.30884-1.48707-3.17331-.5494-4.48062"/><path class="cls-3" d="M26.64087,44.902l-6.6226-9.30885c-.41715-2.66658,1.124-5.29567,3.0877-7.52334s4.75632-3.99261,6.09365-6.56886c2.51409-4.84321,1.2176-9.05464-.94354-8.838,1.51052-1.97037,5.56565,1.72121,6.751,5.23811l-1.96817-6.1288A16.71607,16.71607,0,0,1,31.93572,6.3555a6.32522,6.32522,0,0,1,2.49109-5.01113A7.07992,7.07992,0,0,1,41.03157.46C32.27566.61085,36.01231,5.23723,46.199,10.78351S54.30715,30.728,52.3766,36.61814,44.8872,47.64126,37.67425,50.194a12.05506,12.05506,0,0,1-6.1753.79762A7.10308,7.10308,0,0,1,26.539,47.24385a13.69466,13.69466,0,0,1-1.1045-5.44944"/><path class="cls-4" d="M19.08114,10.653a9.29969,9.29969,0,0,0-3.4621,3.70021,4.97314,4.97314,0,0,0,.25391,4.88991,3.44971,3.44971,0,0,0,4.52744,1.01037c1.416-.96191,1.485-3.46236-.01815-4.28194,1.457-.66622,3.2152.6173,3.61145,2.16783a7.29426,7.29426,0,0,1-.8144,4.63827,11.45371,11.45371,0,0,0-1.38555,4.55594c.01046,1.60019,1.09483,3.33359,2.69469,3.42522s2.818-2.32016,1.501-3.23178c6.43318,2.41551,6.872,8.42894,7.68958,14.215A8.20825,8.20825,0,0,1,28.447,40.02a49.48588,49.48588,0,0,0-4.61265-3.20209,11.24721,11.24721,0,0,0-13.786,3.14865C9.05345,41.307,8.18871,43.13064,6.359,43.44126a3.19632,3.19632,0,0,1-3.06093-1.185,4.40651,4.40651,0,0,1-.22967-2.89714c.19875-1.33771.51024-2.65563.64592-4.0031a39.228,39.228,0,0,1,.53121-5.52522,29.18859,29.18859,0,0,1,1.503-4.484,30.58225,30.58225,0,0,1,5.0493-8.03874,29.84289,29.84289,0,0,1,7.28091-6.08875Q18.57412,10.92606,19.08114,10.653Z"/><path class="cls-5" d="M51.45,54.775l-6.822-2.67917a3.34791,3.34791,0,0,1-1.5807-1.27612l-3.20405-4.89314a.4675.4675,0,0,0-.881,0l-3.204,4.89314a3.34791,3.34791,0,0,1-1.5807,1.27612l-6.822,2.67917a.1462.1462,0,0,0-.03894.2511c1.39221,1.13457,9.94061,10.45664,11.88527,16.6477a.20207.20207,0,1,0,.40177,0c1.94466-6.19106,10.49306-15.51313,11.88527-16.6477A.1462.1462,0,0,0,51.45,54.775Z"/><path class="cls-6" d="M55.832,77.93476S43.57829,98.58321,39.34671,98.58321c-4.236,0-16.48525-20.64845-16.48525-20.64845l.93453-.64542,9.13566-6.28392,6.41506,6.92934,6.41068-6.92934,9.00466,6.19236Z"/><path class="cls-5" d="M54.76205,77.19778C49.8798,82.78833,42.56078,90.47211,39.2419,90.47211c-3.30578,0-10.55929-7.60093-15.44591-13.18277l9.13566-6.28392,6.41506,6.92934,6.41068-6.92934Z"/><path class="cls-7" d="M39.242,93.21987c-3.28719,0-10.27383-8.42555-10.27383-8.42555L32.12764,92.1,39.242,98.08823,46.56431,92.1l3.15951-7.30572S42.52914,93.21987,39.242,93.21987Z"/><path class="cls-8" d="M39.34567,100c-1.57748,0-4.25309-1.24266-10.99543-10.93249-3.57971-5.1444-6.67879-10.358-6.7095-10.41L20.96523,77.519,33.1411,69.13914l6.205,6.70688,6.205-6.70688L57.727,77.519l-.67551,1.13853c-.03071.052-3.13022,5.26556-6.70993,10.41017C43.59876,98.75734,40.92314,100,39.34567,100ZM24.76712,78.345c1.08875,1.78266,3.34942,5.41312,5.85573,9.021,6.64894,9.57123,8.64477,9.79481,8.72666,9.79949.0742-.00468,2.07174-.22847,8.72751-9.811,2.505-3.60641,4.761-7.22942,5.84805-9.00952l-7.95861-5.47742-6.62037,7.15531-6.62037-7.15531Z"/><path class="cls-9" d="M46.56431,76.7802l-1.94392,2.2367L39.346,82.36422,34.07155,79.0169l-1.94391-2.2367s-2.05034,2.85146-1.9106,3.17623c0,0,3.26786,8.17874,9.07137,8.28709v.005c.01946,0,.03817-.00234.05758-.00252.0194.00018.03811.00252.05757.00252v-.005c5.80351-.10835,9.07137-8.28709,9.07137-8.28709C48.61468,79.63166,46.56431,76.7802,46.56431,76.7802Z"/><path class="cls-5" d="M24.09082,64.7938S8.74764,87.69806,8.36377,93.0001C7.96134,98.55861,30.64026,79.54908,32.0474,75.103,41.21761,64.46586,24.09082,64.7938,24.09082,64.7938Z"/><path class="cls-9" d="M10.54788,91.61151l16.96-20.6054,3.15446,1.45508.93058,3.55786L21.88646,85.8663,11.00384,92.61216S8.167,94.50414,10.54788,91.61151Z"/><polygon class="cls-6" points="18.969 75.574 17.013 80.872 25.592 73.333 10.16 92.1 15.213 80.013 18.969 75.574"/><polygon class="cls-7" points="14.307 83.679 13.735 86.144 19.713 80.483 9.409 93.22 12.133 84.197 14.307 83.679"/><path class="cls-10" d="M19.71287,85.656s8.53979-10.04229,8.74143-12.87547,1.74529.10424,1.74529.10424l1.92806,2.87514L28.62521,79.6068S21.0601,87.645,19.71287,85.656Z"/><path class="cls-11" d="M19.45681,74.76348l4.92378.19626s4.5191.25043,3.60985,3.38909,3.6025-1.20005,3.6025-1.20005l-1.27062-5.4531-5.5552-1.26487-5.98937,2.03038Z"/><path class="cls-12" d="M9.35624,95.83013a4.60479,4.60479,0,0,1-.57583.09381,2.041,2.041,0,0,1-2.475-2.38672c.46265-5.69617,14.349-26.16764,16.59521-29.43887l.46278-.67406.8064-.00682c1.11064-.0057,10.20909.0346,11.85952,4.264.81379,2.0857-.09818,4.75733-2.87234,8.12023-1.29495,3.19489-7.40863,8.68671-9.49318,10.50121C20.85179,88.75054,13.43951,94.91554,9.35624,95.83013ZM24.81247,66.18075C19.82053,73.88087,11.9291,87.06457,10.54788,91.61151c1.84478-.731,6.08707-3.359,11.40139-7.75149,5.37973-4.44656,8.45336-7.91758,8.83806-9.09553l.10983-.33633.232-.26252c2.144-2.4302,3.04638-4.30146,2.63562-5.3713C33.05849,66.95485,28.46641,66.19161,24.81247,66.18075Z"/><path class="cls-5" d="M17.8767,63.17587S6.36658,71.22951,4.9968,73.96267C3.54975,76.85,24.644,70.254,26.5925,69.44608,28.4743,68.66578,17.8767,63.17587,17.8767,63.17587Z"/><polygon class="cls-6" points="13.744 67.962 12.581 69.782 15.89 68.872 7.076 73.23 12.537 67.632 13.744 67.962"/><path class="cls-7" d="M11.67362,69.619l-.54877,1.04543,2.25422-.55106L6.571,73.77232S8.6709,70.5063,8.806,70.43081,11.67362,69.619,11.67362,69.619Z"/><polygon class="cls-9" points="7.67 72.885 18.969 67.368 23.95 69.475 10.048 74.149 5.697 74.032 7.67 72.885"/><path class="cls-10" d="M11.48312,72.14636s7.33575-2.09228,7.48631-3.8138,2.92274.80658,2.92274.80658l-.33905,1.38627-9.49775,2.35934Z"/><path class="cls-11" d="M12.64038,70.51041s5.41412-1.61329,7.64609.125,3.40487-1.07353,3.40487-1.07353l-5.69263-1.82968Z"/><path class="cls-13" d="M6.34069,76.40018c-2.11982.167-2.51787-.2762-2.84952-.6459a1.90993,1.90993,0,0,1-.103-2.21422c1.52557-2.9389,10.42485-9.19911,13.72632-11.44772l.76846-.52352.75727.39393c9.67912,5.03154,9.5839,6.42145,9.52591,7.26913a1.87293,1.87293,0,0,1-1.14327,1.59381c-1.071.45942-5.87853,2.05114-10.536,3.36027A58.87876,58.87876,0,0,1,6.34069,76.40018Zm11.5291-11.56625A115.84608,115.84608,0,0,0,8.028,72.78051a133.44661,133.44661,0,0,0,16.35263-4.07626A66.27787,66.27787,0,0,0,17.86979,64.83393Z"/><path class="cls-10" d="M38.789,54.23472s-27.9893-8.382-28.33538-7.62618c0,0-2.24341,7.80329-2.45016,11.43961A6.555,6.555,0,0,0,12.535,64.79938l19.74128,8.08537Z"/><path class="cls-9" d="M27.77865,67.11992s-.09609-.03487-.27075-.10029c-1.27514-.44918-6.79935-2.44205-10.99161-4.29106l-.06552-.0305-.01311-.00436a26.32349,26.32349,0,0,1-4.2403-2.20221c-1.92584-1.40856-2.12233-4.78819-2.01316-7.04273v-.00436a19.10171,19.10171,0,0,1,.2227-2.18478l5.79932,2.93049.65068,3.23135.1572.77624.20526.11772,1.20963.69775,1.47169.846,1.40177.62795.00437.00437L25.25891,62.262l.49784.95936L27.224,66.04717Z"/><path class="cls-14" d="M27.5079,67.01963c-1.27514-.44918-6.79935-2.44205-10.99161-4.29106l-.06552-.0305c.41924.0872,9.70336,2.019,4.332.40555-5.498-1.65276-6.926-5.39432-7.03078-6.04845-.1048-.65848-3.5678-3.6064-3.5678-3.6064v-.00436a2.6968,2.6968,0,0,1,.2227-2.18478l5.22725,3.14416,1.22275,3.01768.36246.894.03929.096,1.17034.6018,2.87346,1.474.00437.00437,4.44993,2.72985.78167.4797.68562,2.34612Z"/><path class="cls-6" d="M11.00384,62.262s15.19025,5.62422,15.81258,4.85619,2.43326,2.99523,2.43326,2.99523L22.467,69.26694Z"/><path class="cls-5" d="M21.52483,32.52141a3.589,3.589,0,0,1-1.00091-.222,3.466,3.466,0,0,1-1.726-1.43805,2.75759,2.75759,0,0,1-.13969-.28083,4.3037,4.3037,0,0,1-.69931.11207c-.00946.00061-.01861-.00123-.02806-.00068a4.7034,4.7034,0,0,1-1.47937.71314,6.55862,6.55862,0,0,1-4.00416-.34339c-.25291.01093-.57135.02948-.61728.03833a1.10593,1.10593,0,0,0-.44271.17609c-.02769.05023-.14558.20276-.17481.24732-.1427.21783-.28024.43878-.41839.65948A8.7369,8.7369,0,0,1,8.04624,35.272a3.9664,3.9664,0,0,1-1.25616.47663l-1.79092,3.1427c-1.62569,2.85272-.54968,6.77594,2.49225,9.15216L20.51489,58.217,38.20267,42.62621A77.87995,77.87995,0,0,1,21.52483,32.52141Z"/><path class="cls-6" d="M18.05978,30.70769h-.15252a4.69974,4.69974,0,0,1-1.45579.69733,5.60311,5.60311,0,0,1-2.6834.03088L10.54789,37.955l6.85925,5.40356s-1.61261-7.266,1.21656-6.70331,10.626,2.77759,10.626,2.77759Z"/><path class="cls-7" d="M15.41605,32.65349c.77545-.46753,15.02642,7.47736,15.02642,7.47736V38.63073L22.1108,32.52959a3.69261,3.69261,0,0,1-1.58688-.23022,3.466,3.466,0,0,1-1.726-1.43805,2.75759,2.75759,0,0,1-.13969-.28083,4.3037,4.3037,0,0,1-.69931.11207c-.00946.00061-.01861-.00123-.02806-.00068a4.7034,4.7034,0,0,1-1.47937.71314,5.9094,5.9094,0,0,1-3.16289-.07941,20.28817,20.28817,0,0,0,2.34121,9.42011C14.61162,38.13921,14.44583,33.23851,15.41605,32.65349Z"/><path class="cls-15" d="M33.12318,74.76348l-21.1068-8.64476A7.937,7.937,0,0,1,6.58626,57.968c.21366-3.75162,2.40951-11.42563,2.5029-11.75056l.07378-.19867c.58937-1.28588,1.68153-1.06316,6.21438.08922,2.37709.6043,5.66169,1.5018,9.7621,2.66717,6.96964,1.98068,13.98747,4.081,14.05741,4.1021l1.421.42544ZM11.511,48.10438A65.66134,65.66134,0,0,0,9.42052,58.1285,5.14255,5.14255,0,0,0,13.03221,63.472l.04137.01619,18.3557,7.51793,5.53077-15.8384C26.3382,52.00271,14.91589,48.77553,11.511,48.10438Z"/><path class="cls-9" d="M19.71285,45.66033A17.34469,17.34469,0,0,1,13.49,33.47185c-.06281-.7445-.08252-1.44757-.08338-2.11206-.32371-.08191-.64294-.18542-.95929-.29816-.25291.01093-.57135.02948-.61728.03833a1.10593,1.10593,0,0,0-.44271.17609c-.02769.05023-.14558.20276-.17481.24732-.1427.21783-.28024.43878-.41839.65948A8.7369,8.7369,0,0,1,8.04624,35.272a3.96417,3.96417,0,0,1-1.27164.47864c-.14024.26-.21939.41186-.21939.41186l-1.821,7.10816,4.72508,7.07324,9.009,5.137,4.71631-.44916.34066-6.85083A21.00462,21.00462,0,0,1,19.71285,45.66033Z"/><path class="cls-14" d="M19.71287,45.66036l-.48909.44915-2.4586,3.32731s-7.95658-3.7285-6.98713-5.18066c0,0,4.05692,1.35621,4.60279.88963a3.79334,3.79334,0,0,0,.83408-1.60044s-2.86472-5.07163-1.81227-10.17813l.08731.10466A17.34475,17.34475,0,0,0,19.71287,45.66036Z"/><path class="cls-10" d="M8.35847,42.78447c-1.92631-2.20483,1.67414-9.26495,2.11286-10.10363A7.73277,7.73277,0,0,1,8.04624,35.272a3.96488,3.96488,0,0,1-1.67394.53168C4.97478,37.49926,3.80224,39.219,3.80224,39.219l.44185,5.83851,6.767,6.28558L16.20427,54.188l.80867-1.99072-.41527-3.59986C12.38278,46.49511,10.40759,45.12987,8.35847,42.78447Z"/><path class="cls-6" d="M6.22956,44.016c2.12892,2.54436,7.54125,5.67313,10.36812,5.82807l-.3934,4.344L8.27189,48.83441S4.28924,44.74946,6.22956,44.016Z"/><path class="cls-16" d="M19.18848,44.90734s-1.00207,7.99452-2.43166,9.28073c-1.97976,1.78121-2.40909-.89772-3.04922-1.42177a18.87784,18.87784,0,0,1,2.16345-11.554c5.99164.67839,13.361.93718,11.9076-3.72955L31.59294,39.294,30.2102,45.14526l-5.07078,3.62985Z"/><path class="cls-17" d="M38.4985,41.36358A77.59521,77.59521,0,0,1,23.327,32.2777a3.97974,3.97974,0,0,1-2.80307.02167,3.466,3.466,0,0,1-1.726-1.43805,2.75759,2.75759,0,0,1-.13969-.28083,4.3037,4.3037,0,0,1-.69931.11207c-.00946.00061-.01861-.00123-.02806-.00068-.099.071-.21135.12616-.31641.19007A76.99377,76.99377,0,0,0,35.6966,42.89275L20.32946,56.3355,8.383,46.93621c-2.34912-1.84766-3.19218-4.93756-1.94-7.14844l4.00189-7.0661A7.6605,7.6605,0,0,1,8.04624,35.272a4.14451,4.14451,0,0,1-3.18143.40814L3.54227,37.98668C1.55965,41.444,2.89459,46.287,6.59476,49.15654l14.105,10.94L40.72894,42.30767Z"/><path class="cls-5" d="M54.60114,64.7938S69.94432,87.69806,70.32819,93.0001c.40244,5.55851-22.27649-13.451-23.68362-17.89715C37.47435,64.46586,54.60114,64.7938,54.60114,64.7938Z"/><path class="cls-9" d="M68.14408,91.61151l-16.96-20.6054L48.0296,72.46119,47.099,76.019l9.70649,9.84725,10.88262,6.74586S70.525,94.50414,68.14408,91.61151Z"/><polygon class="cls-6" points="59.723 75.574 61.679 80.872 53.1 73.333 68.532 92.1 63.479 80.013 59.723 75.574"/><polygon class="cls-7" points="64.385 83.679 64.957 86.144 58.979 80.483 69.283 93.22 66.559 84.197 64.385 83.679"/><path class="cls-10" d="M58.97909,85.656s-8.53978-10.04229-8.74142-12.87547-1.74529.10424-1.74529.10424l-1.92806,2.87514,3.50243,3.84691S57.63187,87.645,58.97909,85.656Z"/><path class="cls-11" d="M59.23516,74.76348l-4.92379.19626s-4.5191.25043-3.60985,3.38909-3.6025-1.20005-3.6025-1.20005l1.27062-5.4531,5.5552-1.26487,5.98938,2.03038Z"/><path class="cls-18" d="M55.02817,86.30289c-2.08455-1.8145-8.19823-7.30632-9.49319-10.50121-2.77416-3.3629-3.68612-6.03453-2.87233-8.12023,1.65043-4.22938,10.74887-4.26968,11.85952-4.264l.80639.00682.46278.67406c2.24621,3.27123,16.13256,23.7427,16.59521,29.43887a2.041,2.041,0,0,1-2.475,2.38672,4.6042,4.6042,0,0,1-.57583-.09381C65.25245,94.91554,57.84018,88.75054,55.02817,86.30289Zm-10.101-17.50855c-.41076,1.06984.4916,2.9411,2.63563,5.3713l.232.26252.10983.33633c.38471,1.178,3.45834,4.649,8.83807,9.09553,5.31432,4.39246,9.55661,7.02051,11.40138,7.75149-1.38122-4.54694-9.27264-17.73064-14.26459-25.43076C50.22556,66.19161,45.63347,66.95485,44.92715,68.79434Z"/><path class="cls-5" d="M60.81527,63.17587s11.51011,8.05364,12.87989,10.7868C75.14221,76.85,54.04793,70.254,52.09947,69.44608,50.21766,68.66578,60.81527,63.17587,60.81527,63.17587Z"/><polygon class="cls-6" points="64.948 67.962 66.111 69.782 62.802 68.872 71.616 73.23 66.155 67.632 64.948 67.962"/><path class="cls-7" d="M67.01835,69.619l.54876,1.04543-2.25421-.55106,6.808,3.65891s-2.09986-3.266-2.23493-3.34151S67.01835,69.619,67.01835,69.619Z"/><polygon class="cls-9" points="71.022 72.885 59.723 67.368 54.742 69.475 68.644 74.149 72.995 74.032 71.022 72.885"/><path class="cls-10" d="M67.20884,72.14636s-7.33575-2.09228-7.4863-3.8138-2.92274.80658-2.92274.80658l.339,1.38627,9.49776,2.35934Z"/><path class="cls-11" d="M66.05158,70.51041s-5.41412-1.61329-7.64608.125-3.40487-1.07353-3.40487-1.07353l5.69262-1.82968Z"/><path class="cls-19" d="M62.2051,74.186c-4.6575-1.30913-9.465-2.90085-10.536-3.36027a1.873,1.873,0,0,1-1.14328-1.59381c-.058-.84768-.1532-2.23759,9.52592-7.26913l.75726-.39393.76846.52352c3.30148,2.24861,12.20075,8.50882,13.72633,11.44772a1.91,1.91,0,0,1-.103,2.21422c-.33164.3697-.7297.81286-2.84951.6459A58.87881,58.87881,0,0,1,62.2051,74.186Zm-7.89373-5.48171A133.44661,133.44661,0,0,0,70.664,72.78051a115.84576,115.84576,0,0,0-9.84182-7.94658A66.277,66.277,0,0,0,54.31137,68.70425Z"/><path class="cls-10" d="M39.903,54.23472s27.9893-8.382,28.33537-7.62618c0,0,2.24341,7.80329,2.45017,11.43961A6.555,6.555,0,0,1,66.157,64.79938L46.41571,72.88475Z"/><path class="cls-9" d="M50.91331,67.11992s.09609-.03487.27075-.10029c1.27515-.44918,6.79935-2.44205,10.99162-4.29106l.06551-.0305.01312-.00436A26.3233,26.3233,0,0,0,66.4946,60.4915c1.92584-1.40856,2.12233-4.78819,2.01316-7.04273v-.00436a19.1033,19.1033,0,0,0-.22269-2.18478l-5.79933,2.93049-.65067,3.23135-.1572.77624-.20527.11772-1.20962.69775-1.47169.846-1.40178.62795-.00437.00437L53.43305,62.262l-.49783.95936-1.46729,2.82582Z"/><path class="cls-14" d="M51.18406,67.01963c1.27515-.44918,6.79935-2.44205,10.99162-4.29106l.06551-.0305c-.41923.0872-9.70336,2.019-4.332.40555,5.498-1.65276,6.926-5.39432,7.03079-6.04845.1048-.65848,3.56779-3.6064,3.56779-3.6064v-.00436a2.69682,2.69682,0,0,0-.22269-2.18478l-5.22726,3.14416-1.22274,3.01768-.36247.894-.03928.096-1.17034.6018-2.87347,1.474-.00437.00437-4.44992,2.72985-.78168.4797-.68561,2.34612Z"/><path class="cls-6" d="M67.68813,62.262s-15.19026,5.62422-15.81258,4.85619-2.43326,2.99523-2.43326,2.99523l6.7827-.84647Z"/><path class="cls-5" d="M40.48931,42.62623s14.06872-5.87753,23.22894-16.31c.839-.9555,2.23284-1.0103,2.7479-.10645L73.69283,38.8913c1.62566,2.85273.54967,6.77593-2.49226,9.15218L58.1771,58.217Z"/><path class="cls-6" d="M61.28483,43.3586s1.61262-7.26606-1.21657-6.70333-10.626,2.77759-10.626,2.77759l11.18992-8.72515h3.9319l3.58,7.2473Z"/><path class="cls-7" d="M63.2759,32.65353c.97022.585.80447,5.48567-.21372,8.09218C66.68675,34.16523,65.04385,26.74,65.04385,26.74c.49346.01744.81754.79685,1.45075,1.38992L66.464,26.21111l-2.06993-.6454-4.04381,4.20384L48.24948,38.63073v1.50012S62.50047,32.186,63.2759,32.65353Z"/><path class="cls-20" d="M38.07417,53.30265l1.421-.42544c.06994-.02108,7.08777-2.12142,14.05741-4.1021,4.10042-1.16537,7.385-2.06287,9.76211-2.66717,4.53284-1.15238,5.625-1.3751,6.21438-.08922l.07377.19867c.0934.32493,2.28924,7.99894,2.5029,11.75056a7.937,7.937,0,0,1-5.43012,8.15077l-21.1068,8.64476Zm3.65775,1.86506,5.53076,15.8384,18.35571-7.51793.04136-.01619a5.14253,5.14253,0,0,0,3.61169-5.34349,65.66255,65.66255,0,0,0-2.0905-10.02412C63.77608,48.77553,52.35376,52.00271,41.73192,55.16771Z"/><path class="cls-9" d="M55.16672,48.1809l.34064,6.85085,4.7163.44915,9.009-5.137,4.725-7.07325-1.821-7.10813s-4.7549-9.14029-7.20478-9.21878a26.01949,26.01949,0,0,1,.27006,6.52817,17.34471,17.34471,0,0,1-6.22291,12.18848A21.00242,21.00242,0,0,1,55.16672,48.1809Z"/><path class="cls-14" d="M58.97909,45.66036l.4891.44915,2.45859,3.32731s7.95658-3.7285,6.98713-5.18066c0,0-4.05692,1.35621-4.60279.88963a3.7934,3.7934,0,0,1-.83407-1.60044s2.86472-5.07163,1.81227-10.17813l-.08732.10466A17.34471,17.34471,0,0,1,58.97909,45.66036Z"/><path class="cls-10" d="M68.17582,32.59584s4.20678,7.84323,2.15766,10.18863-4.02428,3.71067-8.23919,5.813L61.679,52.19734l.80865,1.99073,5.19322-2.84493,6.767-6.2856.44184-5.83845S69.809,31.75045,68.17582,32.59584Z"/><path class="cls-6" d="M72.46241,44.016c-2.12893,2.54436-7.54126,5.67313-10.36812,5.82807l.3934,4.344,7.93238-5.35366S74.40272,44.74946,72.46241,44.016Z"/><path class="cls-16" d="M59.50349,44.90734s1.00207,7.99452,2.43166,9.28073c1.97975,1.78121,2.40908-.89772,3.04922-1.42177a18.87791,18.87791,0,0,0-2.16346-11.554c-5.99163.67839-13.361.93718-11.9076-3.72955L47.099,39.294l1.38274,5.85127,5.07078,3.62985Z"/><path class="cls-21" d="M37.963,42.30769l2.23045-.94412c.13079-.05517,13.77165-5.89986,22.47877-15.87217a4.1,4.1,0,0,1,2.80184-1.426,2.52322,2.52322,0,0,1,2.38421,1.205l7.29142,12.71631c1.9826,3.45729.64769,8.30034-3.05248,11.16982l-14.105,10.94ZM64.77129,27.14618c-7.28993,8.256-17.42077,13.66676-21.77594,15.74659L58.3625,56.33553,70.309,46.93624c2.34909-1.84769,3.19215-4.9376,1.94-7.14847L65.08633,27.14068a.151.151,0,0,0-.1488-.07626l-.01588.001A.22752.22752,0,0,0,64.77129,27.14618Z"/><path class="cls-5" d="M59.36842,45.37579s-3.60492,3.01691-5.24781,3.59778a3.01031,3.01031,0,0,1-3.37916-.83573L40.76156,31.64039a1.5134,1.5134,0,0,0-2.71757,0L28.0641,48.13784a3.01031,3.01031,0,0,1-3.37916.83573c-1.64289-.58087-5.24781-3.59778-5.24781-3.59778-1.17962-.49842-3.14949,11.15311-2.441,12.48353.6073,1.13933,4.67555,2.40978,6.77387,3.253a7.03938,7.03938,0,0,1,3.78795,3.549l5.52423,11.98884a4.59245,4.59245,0,0,0,1.238,1.60778l3.67753,3.049a2.05615,2.05615,0,0,0,2.81,0l3.67753-3.049a4.59245,4.59245,0,0,0,1.238-1.60778l5.52423-11.98884a7.03938,7.03938,0,0,1,3.788-3.549c2.09832-.84324,6.16657-2.11369,6.77387-3.253C62.51791,56.5289,60.548,44.87737,59.36842,45.37579Z"/><path class="cls-22" d="M33.15847,73.45231s1.24012,1.20559,2.44106.63374c1.39806-1.95694,0-7.627,0-7.627l2.33811,2.2766,1.1,3.61083L36.098,76.95979l-1.69945.83936S32.588,74.14165,33.15847,73.45231Z"/><path class="cls-6" d="M18.3084,57.35188s.94693-3.397,2.3708-3.94957,8.53759,4.80423,8.53759,4.80423l-1.90016-3.18045-6.42549-8.4896-2.64378.43283S17.35744,56.86708,18.3084,57.35188Z"/><path class="cls-7" d="M18.24736,53.27539l.24726.51061s1.35174-2.89026,1.6528-2.89026S23.94,52.92591,23.94,52.92591L20.14742,46.2496l-2.17088,2.07612Z"/><path class="cls-9" d="M31.60383,65.27151c-.58955,2.35,1.55464,8.1808,1.55464,8.1808l-4.73379-5.63324-4.21847-7.14242L23.54243,59.55c2.84726.72727,5.95653.3321,6.32771-.78612l3.06561,3.4598L34.997,64.54424v.97949S32.189,62.92572,31.60383,65.27151Z"/><path class="cls-14" d="M32.93575,62.22368c-.87339-.23542-2.06556-.40777-2.24462.29848a61.61064,61.61064,0,0,0-.345,6.53706L26.38969,62.106l-2.18348-1.42933L23.54243,59.55c2.84726.72727,5.95653.3321,6.32771-.78612Z"/><path class="cls-6" d="M28.80354,48.4578a2.36842,2.36842,0,0,0,3.29237,1.56,11.09056,11.09056,0,0,0,5.62236-3.7682l-1.25456,3.49269-1.74945,2.21062-6.47517-1.12624Z"/><path class="cls-6" d="M26.00343,60.75417s2.92784,1.30123,3.21336,1.76791,2.38686,7.55,2.38686,7.55l-4.18658-6.16052Z"/><path class="cls-9" d="M35.15854,51.49952a.20244.20244,0,0,0-.03494.01683L26.75215,55.6656c-4.23158-3.876-6.795-7.2223-6.97841-8.23545l4.85605.63479,2.43677.391s1.93893-1.86232,2.13982-.30687a3.27068,3.27068,0,0,1-.0262.83236C28.79151,51.90731,35.15854,51.49952,35.15854,51.49952Z"/><path class="cls-14" d="M35.15854,51.49952a.20244.20244,0,0,0-.03494.01683,17,17,0,0,1-5.90851,1.6185c-.376.00923-1.0418,3.93322-1.0418,3.93322s-3.07417-2.971-3.275-3.16913c5.034-1.43123,1.75775-3.87917,1.75775-3.87917l2.0481-2.15242.50221.28168a3.27068,3.27068,0,0,1-.0262.83236C28.79151,51.90731,35.15854,51.49952,35.15854,51.49952Z"/><path class="cls-22" d="M45.64709,73.45231S44.407,74.6579,43.206,74.08605c-1.39807-1.95694,0-7.627,0-7.627l-2.33811,2.2766-1.1,3.61083,2.93958,4.61329,1.69945.83936S46.21751,74.14165,45.64709,73.45231Z"/><path class="cls-6" d="M44.69544,38.14337l-5.29267-6.58924-5.29266,6.58924L29.87077,47.8662s6.52247-6.79413,9.532-7.082c3.00953.28786,9.532,7.082,9.532,7.082Z"/><path class="cls-6" d="M60.49716,57.35188s-.94694-3.397-2.37081-3.94957-8.53758,4.80423-8.53758,4.80423l1.90015-3.18045,6.42549-8.4896,2.64378.43283S61.44812,56.86708,60.49716,57.35188Z"/><path class="cls-7" d="M60.55819,53.27539l-.24725.51061s-1.35174-2.89026-1.65281-2.89026-3.79256,2.03017-3.79256,2.03017l3.79256-6.67631L60.829,48.32572Z"/><path class="cls-9" d="M47.20172,65.27151c.58956,2.35-1.55463,8.1808-1.55463,8.1808l4.73379-5.63324,4.21846-7.14242L55.26313,59.55c-2.84726.72727-5.95653.3321-6.32771-.78612l-3.06561,3.4598-2.06122,2.32056v.97949S46.61657,62.92572,47.20172,65.27151Z"/><path class="cls-14" d="M45.86981,62.22368c.87339-.23542,2.06556-.40777,2.24462.29848a61.61064,61.61064,0,0,1,.345,6.53706L52.41587,62.106l2.18347-1.42933L55.26313,59.55c-2.84726.72727-5.95653.3321-6.32771-.78612Z"/><path class="cls-6" d="M50.002,48.4578a2.36842,2.36842,0,0,1-3.29237,1.56,11.0905,11.0905,0,0,1-5.62236-3.7682l1.25456,3.49269,1.74945,2.21062,6.47517-1.12624Z"/><path class="cls-6" d="M52.80213,60.75417s-2.92785,1.30123-3.21336,1.76791-2.38687,7.55-2.38687,7.55l4.18658-6.16052Z"/><path class="cls-9" d="M43.647,51.49952a.20244.20244,0,0,1,.03494.01683L52.0534,55.6656c4.23158-3.876,6.795-7.2223,6.97841-8.23545l-4.85605.63479-2.43677.391s-1.93892-1.86232-2.13981-.30687a3.27068,3.27068,0,0,0,.0262.83236C50.014,51.90731,43.647,51.49952,43.647,51.49952Z"/><path class="cls-14" d="M43.647,51.49952a.20244.20244,0,0,1,.03494.01683,16.99995,16.99995,0,0,0,5.9085,1.6185c.376.00923,1.04181,3.93322,1.04181,3.93322s3.07417-2.971,3.275-3.16913c-5.03394-1.43123-1.75774-3.87917-1.75774-3.87917l-2.0481-2.15242-.50221.28168a3.27068,3.27068,0,0,0,.0262.83236C50.014,51.90731,43.647,51.49952,43.647,51.49952Z"/><path class="cls-9" d="M50.416,54.79679a.82426.82426,0,0,0-.5117-.6262l-5.813-2.2177a2.08641,2.08641,0,0,1-.99552-.78007L40.3754,47.13744c-.25351-.37614-.05627-1.21075-.53212-1.21088l-.44051-.18184-.4405.18184c-.47585.00013-.27861.83474-.53212,1.21088l-2.72039,4.03538a2.08641,2.08641,0,0,1-.99552.78007l-5.813,2.2177a.82426.82426,0,0,0-.5117.6262.78989.78989,0,0,0,.29985.74406c1.20918.95715,8.27594,8.49766,9.86174,13.401.09808.30332.57745,1.29169.85166,1.84236.27422-.55067.75359-1.539.85167-1.84236,1.5858-4.90333,8.65256-12.44384,9.86174-13.401A.78989.78989,0,0,0,50.416,54.79679Zm-3.00987,1.39395a55.73764,55.73764,0,0,0-6.97961,8.98351,1.19378,1.19378,0,0,1-2.04755,0,55.73764,55.73764,0,0,0-6.97961-8.98351.99613.99613,0,0,1,.39211-1.62508l3.483-1.32853a3.54063,3.54063,0,0,0,1.69009-1.32485l1.77525-2.63337a.72947.72947,0,0,1,1.32591,0L41.841,51.91228a3.54063,3.54063,0,0,0,1.69009,1.32485l3.483,1.32853A.99613.99613,0,0,1,47.40616,56.19074Z"/><path class="cls-6" d="M46.03061,55.23053l-2.26845-.87685a6.77413,6.77413,0,0,1-2.52345-1.70344l-1.83594-1.97671-1.83593,1.97671a6.77413,6.77413,0,0,1-2.52345,1.70344l-2.26845.87685a.5959.5959,0,0,0-.19966,1.00535,10.99521,10.99521,0,0,0,6.82749,2.89988,10.99522,10.99522,0,0,0,6.8275-2.89988A.5959.5959,0,0,0,46.03061,55.23053Z"/><path class="cls-7" d="M41.06874,32.14818l-1.666-.41327-1.666.41327s-7.2663,11.64846-5.98068,12.60143c0,0,5.32177-6.99817,7.64664-7.38679,2.32488.38862,7.64665,7.38679,7.64665,7.38679C48.335,43.79664,41.06874,32.14818,41.06874,32.14818Z"/><path class="cls-14" d="M44.24864,76.42581S40.49139,73.428,40.70529,71.1643c.17314-1.83229-.89063-.19328-1.30252.4981-.41188-.69138-1.47565-2.33039-1.30251-.4981.21389,2.26367-3.54335,5.26151-3.54335,5.26151-1.09529,3.79624,3.80941,5.1649,4.84586,5.4094C40.43923,81.59071,45.34393,80.22205,44.24864,76.42581Z"/><polygon class="cls-23" points="43.206 76.688 39.403 78.551 35.6 76.688 33.372 74.158 34.11 78.628 39.403 81.39 44.695 78.628 45.434 74.158 43.206 76.688"/><path class="cls-24" d="M52.40616,54.76549a.99347.99347,0,0,0-.60259-.75928l-6.84554-2.689a2.4698,2.4698,0,0,1-1.17234-.94589l-3.20357-4.893a1.32844,1.32844,0,0,0-2.35869,0l-3.20357,4.893a2.46985,2.46985,0,0,1-1.17234.94589l-6.84555,2.689a.99348.99348,0,0,0-.60258.75928.97173.97173,0,0,0,.35311.90216c1.42395,1.16058,9.74589,10.30365,11.61336,16.24907a1.05757,1.05757,0,0,0,2.07383,0C42.30716,65.9713,50.6291,56.82823,52.05305,55.66765A.97173.97173,0,0,0,52.40616,54.76549ZM39.40277,69.77368c-2.40555-5.43425-8.29454-12.20988-10.69964-14.61983l5.80412-2.2795a4.19121,4.19121,0,0,0,1.99029-1.60643l2.90523-4.43731L42.308,51.26792a4.19121,4.19121,0,0,0,1.99029,1.60643l5.80412,2.2795C47.69732,57.5638,41.80833,64.33943,39.40277,69.77368Z"/><path class="cls-25" d="M60.70034,44.54331A1.69911,1.69911,0,0,0,58.7979,44.125l-.19745.08334-.16291.1363a26.12733,26.12733,0,0,1-4.80621,3.3465,1.57218,1.57218,0,0,1-1.725-.34341l-9.91819-16.395a2.95385,2.95385,0,0,0-5.17067,0l-9.91819,16.395a1.57218,1.57218,0,0,1-1.725.34341,26.12733,26.12733,0,0,1-4.80621-3.3465l-.16291-.1363-.19745-.08334a1.69911,1.69911,0,0,0-1.90244.41833c-1.54122,1.57545-3.337,12.12748-2.372,13.93981.67679,1.26957,2.81634,2.14073,6.00328,3.32494.54715.20321,1.0589.39328,1.48622.5649a5.62369,5.62369,0,0,1,3.03767,2.84236l5.5248,11.99014a5.99832,5.99832,0,0,0,1.60861,2.08778l3.67736,3.04885a3.46622,3.46622,0,0,0,4.66319,0l3.67736-3.04885a5.99832,5.99832,0,0,0,1.60861-2.08778l5.5248-11.99014A5.62369,5.62369,0,0,1,55.58281,62.373c.42732-.17162.93907-.36169,1.48622-.5649,3.18693-1.18421,5.32649-2.05537,6.00328-3.32494C64.03739,56.67079,62.24156,46.11876,60.70034,44.54331ZM60.51909,57.249a21.80491,21.80491,0,0,1-4.47186,2.0098c-.57359.21306-1.11008.41258-1.55829.5928a8.40562,8.40562,0,0,0-4.53754,4.254L44.42618,76.09617a3.23691,3.23691,0,0,1-.867,1.12672l-3.67737,3.04887a.6258.6258,0,0,1-.95809,0l-3.67737-3.04887a3.23691,3.23691,0,0,1-.867-1.12672L28.85415,64.10563a8.40562,8.40562,0,0,0-4.53754-4.254c-.44821-.18022-.9847-.37974-1.55829-.5928a21.80491,21.80491,0,0,1-4.47186-2.0098c-.24436-1.41428.69982-7.28334,1.48536-9.82067a20.51434,20.51434,0,0,0,4.42453,2.8282,4.48552,4.48552,0,0,0,4.98318-1.2741l.061-.07471,10.02992-16.58a.13241.13241,0,0,1,.26467,0l10.02992,16.58.061.07471a4.48554,4.48554,0,0,0,4.98319,1.2741,20.51434,20.51434,0,0,0,4.42453-2.8282C59.81927,49.96569,60.76345,55.83475,60.51909,57.249Z"/><polygon class="cls-26" points="69.188 30.557 64.814 28.918 62.093 32.711 63.735 28.342 64.311 27.265 65.39 27.84 69.188 30.557"/><path class="cls-27" d="M24.91892,32.67948a5.6894,5.6894,0,0,0,3.50013-2.23417,6.784,6.784,0,0,0,1.948-3.79535,2.885,2.885,0,0,0-2.30488-3.16121,4.96606,4.96606,0,0,1,4.76349,3.77231,8.93406,8.93406,0,0,1-.98733,6.34512,5.49335,5.49335,0,0,1,3.547-2.87222,2.45048,2.45048,0,0,0-1.70194,2.28488,12.7301,12.7301,0,0,0,.3675,3.02376c.45976,2.959-1.08415,5.08825-2.92663,7.43779-.49017.62507-.43743,2.364-1.12837,2.76921-.4718-.56315,1.06779-4.35112-1.80218-5.90128s-1.77306,1.49841-2.16227.93842a43.76857,43.76857,0,0,1-3.79855-6.16334c-1.919-3.695-.03461-4.49983.04906-4.93287C21.91988,31.64342,23.618,32.8044,24.91892,32.67948Z"/><path class="cls-28" d="M45.55261,24.53494c2.22955-1.48391,1.19417-4.56692.60778-5.24446A3.81255,3.81255,0,0,1,47.9855,22.8628a9.12359,9.12359,0,0,1-1.17812,3.0702,4.89083,4.89083,0,0,0-.66669,3.1731,2.00114,2.00114,0,0,0,2.44521,1.58083,1.91143,1.91143,0,0,0,1.07882-1.472,4.21622,4.21622,0,0,0-.19393-1.87888,3.82983,3.82983,0,0,1,1.24876,2.91217c-.02718.96667-.38311,2.07726.25486,2.80481a1.77066,1.77066,0,0,0,2.16151.18646,5.16226,5.16226,0,0,0,1.577-1.71192l-2.04948,3.76819,1.1419-.03176a10.93964,10.93964,0,0,0-4.35185,9.84495l-3.04436-4.45752a38.78952,38.78952,0,0,1-2.5158-3.82947c-.4222-.81057-.81792.14922-.98077-.74224-.13117-.718-1.86184-.87046-2.232-5.07129S43.32305,26.01885,45.55261,24.53494Z"/><path class="cls-29" d="M18.62377,37.0531a.94715.94715,0,0,0-.98244,1.1233,1.418,1.418,0,0,0,1.01882,1.196,1.01912,1.01912,0,0,0,1.04746-.19992.96215.96215,0,0,0,.204-.737A1.377,1.377,0,0,0,18.62377,37.0531Z"/><path class="cls-29" d="M50.25835,41.37345a.84422.84422,0,0,0,.86945,1.0062,1.26982,1.26982,0,0,0,1.19255-.73841.89414.89414,0,0,0-.042-.94388.86867.86867,0,0,0-.62741-.274A1.2309,1.2309,0,0,0,50.25835,41.37345Z"/><path class="cls-29" d="M52.33378,38.24226a.61478.61478,0,0,0-.63769.72911.9204.9204,0,0,0,.6613.77634.66151.66151,0,0,0,.67989-.12977.62453.62453,0,0,0,.13238-.4784A.89381.89381,0,0,0,52.33378,38.24226Z"/><path class="cls-30" d="M37.0988,40.53327a1.46552,1.46552,0,0,0-2.04539-1.0569,2.18071,2.18071,0,0,0-1.43381,1.94676,1.549,1.549,0,0,0,.67847,1.48637,1.50484,1.50484,0,0,0,1.18327.03785A2.11484,2.11484,0,0,0,37.0988,40.53327Z"/><path class="cls-29" d="M12.773,39.44834a.6375.6375,0,0,0,.2601.97273.96765.96765,0,0,0,1.06-.11341.68015.68015,0,0,0,.28463-.65874.65451.65451,0,0,0-.33777-.393A.93816.93816,0,0,0,12.773,39.44834Z"/><g class="cls-31"><path class="cls-29" d="M70.73131,27.78954a17.51149,17.51149,0,0,0-3.55384-5.51385,6.01873,6.01873,0,0,0-6.08791-1.526c-1.94326.77985-3.04064,2.77131-4.23111,4.48566a23.70633,23.70633,0,0,1-7.46627,6.88519,25.84552,25.84552,0,0,1-3.09326,1.4455,59.7777,59.7777,0,0,0-4.3509-9.90875,18.70236,18.70236,0,0,0-10.32976-8.30793c-6.12635-1.9743-12.77535-.667-19.07694.65418-3.60309.75543.85816,4.313-1.99343,6.62891-4.36637,3.54609-9.37248,5.37623-6.30378,10.0782l-1.7194,6.22142c-.31285,1.08856,1.3425,2.37756,2.46505,2.569a6.18934,6.18934,0,0,0,3.29982-.6778L13.54942,38.675a3.144,3.144,0,0,0,3.69377-2.847q1.37658,1.74995,2.753,3.49988a3.6516,3.6516,0,0,0,2.99655.70062c1.106,2.3111,4.61333,2.80951,6.878,1.59192-.64546,1.64026-2.876,5.5575-2.876,5.5575S30.4612,44.21856,31.882,42.7885c.37806.33246.47108,1.01215,1.1341.99732.663-.01477,1.72025-2.23365,1.36614-3.53772a4.1897,4.1897,0,0,0,5.28943-.24976c1.29964.479,2.97212-.4862,3.899,1.437s3.68493.45533,6.441,2.78034c-.32721-.83881-.6497-1.7312-.97194-2.64936A6.76993,6.76993,0,0,1,50.9133,39.5067c.96224-.52881,2.14619-1.473,3.26764-.915s2.635-.62756,4.38425-.72876c.9128-.05279,2.29994-1.03118,3.20679-1.14691a2.37084,2.37084,0,0,0,2.09259-1.50415,13.20738,13.20738,0,0,0,4.36257.1676,4.44591,4.44591,0,0,0,3.39425-2.46533C72.28822,31.25475,71.50356,29.40307,70.73131,27.78954ZM20.52392,32.29937a3.466,3.466,0,0,1-1.726-1.43805,2.75759,2.75759,0,0,1-.13969-.28083,4.3037,4.3037,0,0,1-.69931.11207c-.00946.00061-.01861-.00123-.02806-.00068a4.7034,4.7034,0,0,1-1.47937.71314,6.55862,6.55862,0,0,1-4.00416-.34339c-.25291.01093-.57135.02948-.61728.03833a1.10593,1.10593,0,0,0-.44271.17609c-.02769.05023-.14558.20276-.17481.24732-.1427.21783-.28024.43878-.41839.65948A8.7369,8.7369,0,0,1,8.04624,35.272,4.53529,4.53529,0,0,1,3.22,34.95665a2.18345,2.18345,0,0,1-.7768-2.94482,2.27519,2.27519,0,0,1,2.14607-1.05664,1.97525,1.97525,0,0,1-.16659-2.31641,9.56617,9.56617,0,0,1,7.58889-4.58667,23.39057,23.39057,0,0,1,5.71569.16779,2.35358,2.35358,0,0,1,1.3786-.0799,1.93855,1.93855,0,0,1,.75654.38446c.23357.03595.46709.07312.70109.10645l.04034.00616a.94119.94119,0,0,1,.15375-.00305,12.59275,12.59275,0,0,1,1.74905.21222,4.78572,4.78572,0,0,1,3.39585,1.72736C27.958,29.79931,23.73145,33.55986,20.52392,32.29937Z"/><path class="cls-30" d="M75.57214,36.361c-.27963-3.13031-1.57657-6.59289-4.529-7.717-2.58227-.98315-5.44079.17279-7.95743,1.31189l-9.43758,4.27167a11.44161,11.44161,0,0,0-4.20563,2.71087,5.1595,5.1595,0,0,0-.94928,1.761c-.06815-.03113-.12992-.06225-.19968-.09344-7.08146-3.63654-14.459-7.33667-22.19611-8.78089a4.6573,4.6573,0,0,1-5.57354,2.47431,3.466,3.466,0,0,1-1.726-1.43805,2.75759,2.75759,0,0,1-.13969-.28083,4.3037,4.3037,0,0,1-.69931.11207c-.00946.00061-.01861-.00123-.02806-.00068a4.7034,4.7034,0,0,1-1.47937.71314,6.55862,6.55862,0,0,1-4.00416-.34339c-.25291.01093-.57135.02948-.61728.03833a1.10593,1.10593,0,0,0-.44271.17609c-.02769.05023-.14558.20276-.17481.24732-.1427.21783-.28024.43878-.41839.65948A8.7369,8.7369,0,0,1,8.04624,35.272,4.53529,4.53529,0,0,1,3.22,34.95665a2.33579,2.33579,0,0,1-1.004-1.4085A5.25685,5.25685,0,0,0,.342,39.7426c1.24352,2.90357,1.86694,7.22077,5.50078,8.00318,1.62593.28357,3.23289-.47425,4.708-1.21082,1.2399-.619,2.5819-1.34631,3.07932-2.63379.21073-.54553.2461-1.14575.45616-1.69159a2.85683,2.85683,0,0,1,5.13108-.3305l1.149.14319c1.09259,1.06762,2.82456-.17859,4.0819.36627.64822.2785.99563,1.27582.41827,1.68a2.50821,2.50821,0,0,1,1.73584,3.67475c.74-.8595,2.29559-1.68329,2.89119.29907.59554,1.98242,2.74627-1.02356,4.87515,1.101,2.12882,2.12457.62661-2.98309,3.20624-4.03442.6656-1.55182,1.60426-2.66211,3.51233-2.43915s2.55974,1.01684,2.73916,3.05774c2.01258.49878,2.768,4.21655,3.98132,4.29724.58461.03863,1.09787-.6557,1.43245-1.03662a14.94228,14.94228,0,0,1,1.48551-1.561,10.35715,10.35715,0,0,0,.75089-.78973l-.9604-1.58759s1.33047,1.33179,2.36073-.56964,1.04808-.37341,3.16277-.54547,2.474-1.84424,1.64472-2.5166-.49963-2.48358.51462-3.15338a2.99895,2.99895,0,0,1,3.40432.282c.9529.75354,1.29086,2.21778,1.59775,3.16107s1.543-2.94543,2.42416-1.55072c.88124,1.39472,1.20508-.82013,2.16074-.77966a5.5569,5.5569,0,0,1,2.60536,1.109,4.2698,4.2698,0,0,0,2.66443.8916,2.9412,2.9412,0,0,0,2.25-1.942A6.84466,6.84466,0,0,0,75.57214,36.361Z"/></g><path class="cls-32" d="M18.47248,37.27911a.80787.80787,0,0,0-.33954,1.46913.27522.27522,0,0,0-.0258.31142,1.13012,1.13012,0,0,0,1.30693.03068.86105.86105,0,0,0,.4137.45665,5.25722,5.25722,0,0,0,1.48195.77405,1.78416,1.78416,0,0,0,1.59664-.25368,14.71606,14.71606,0,0,1-2.19-.91093.44417.44417,0,0,1-.196-.155.42043.42043,0,0,1-.02946-.2534c.04347-.41769.13535-.91259-.1758-1.19662a3.93682,3.93682,0,0,1-.34108-.25984,1.10076,1.10076,0,0,1-.13878-.23452,2.24168,2.24168,0,0,0-1.10811-1.01845c-.17746-.0766-.46443-.21538-.6452-.08336a.54139.54139,0,0,0-.11184.5681A1.46575,1.46575,0,0,0,18.47248,37.27911Z"/><path class="cls-32" d="M38.2049,40.302a.62227.62227,0,0,0,.02613.4214.53916.53916,0,0,0,.49666.19779,8.77823,8.77823,0,0,0,1.89389-.588,2.83088,2.83088,0,0,1,2.52711.584c.17149-.44463-.23757-.8876-.61915-1.17549a4.69408,4.69408,0,0,0-1.80637-.93476,2.1678,2.1678,0,0,0-1.69442.32635,1.985,1.985,0,0,0-.54435.39641A1.79729,1.79729,0,0,0,38.2049,40.302Z"/><path class="cls-32" d="M44.2114,42.27425a2.13651,2.13651,0,0,0,1.37423.84937,4.12256,4.12256,0,0,0,.469.04069,2.35288,2.35288,0,0,0,1.5108-.27507.206.206,0,0,0,.09309-.11722.19228.19228,0,0,0-.08-.16623,1.12726,1.12726,0,0,0-.87185-.184,2.0439,2.0439,0,0,1-.90938-.01965c-.40061-.14858-.61967-.564-.9044-.88111a.63944.63944,0,0,0-.764-.25257c-.20759.11284-.15178.32485-.11721.51918A1.15406,1.15406,0,0,0,44.2114,42.27425Z"/><path class="cls-32" d="M47.20191,37.9807a2.73173,2.73173,0,0,0,2.27292.10288,1.2021,1.2021,0,0,1,.45284-.23492c.37912-.06516.62.33729,1.19318-.23911s-.00469-.92949.21856-1.24152a14.43424,14.43424,0,0,1,2.56782-.75011A4.08669,4.08669,0,0,0,56.314,33.97166a3.77782,3.77782,0,0,0,.43859-2.692c-.56742-.1704-4.82622,3.21961-6.42712,4.2816C49.65806,36.00392,46.90086,37.761,47.20191,37.9807Z"/><path class="cls-32" d="M53.48981,37.64672a.91633.91633,0,0,0-.95116.37055,1.44,1.44,0,0,0-.21955,1.03328c.05084.38434.31528.81929.70352.78266a1.51081,1.51081,0,0,0,.59241-.31389c.63938-.39006,1.45941-.14409,2.209-.17277a2.95612,2.95612,0,0,0,2.46072-1.555l-2.288-.49281a3.44192,3.44192,0,0,0-1.479-.09894,1.16567,1.16567,0,0,0-.958.99911"/><path class="cls-32" d="M62.76872,35.63922a.45422.45422,0,0,0-.02823.3048c.07291.19372.35459.20871.53939.11366a5.16191,5.16191,0,0,1,.5248-.33265,1.66538,1.66538,0,0,1,1.01708.15143c.33544.09913.79472.06363.91013-.26476a.707.707,0,0,1,.828-.35251,4.51808,4.51808,0,0,1,.89489.403,1.93681,1.93681,0,0,0,1.5082.08568,1.31237,1.31237,0,0,0,.84357-1.18545l1.55843.259a.48918.48918,0,0,0,.66337-.36909,2.58735,2.58735,0,0,0,.2975-1.76593,3.89614,3.89614,0,0,0-.68046-1.03359,12.26334,12.26334,0,0,1-1.17793-2.54151,3.59367,3.59367,0,0,0-1.79764-2.06585,4.451,4.451,0,0,0,.87762,3.08529,1.06556,1.06556,0,0,0-1.21913.92121,2.12623,2.12623,0,0,0,.55075,1.58134c-.08309-.10455-.6717.1286-.76948.16881a5.16879,5.16879,0,0,0-.76305.41682,2.75359,2.75359,0,0,1-1.36731.58094c-.80391.0222-1.41245-.41384-2.12064.19674A3.897,3.897,0,0,0,62.76872,35.63922Z"/><path class="cls-32" d="M25.88888,34.62865a3.30476,3.30476,0,0,0,.27284.74432c.14946.21958.48937.3479.68229.16483a3.87663,3.87663,0,0,0,.56589,1.24588,1.33031,1.33031,0,0,0,1.19368.55569,6.10205,6.10205,0,0,0,1.58463,2.32732,1.27537,1.27537,0,0,0,.71125.38794c.71606.06162,1.05708-.86449,1.66295-1.24885.28233-.17911.68051-.29544.73906-.62324.06191-.34672-.31746-.59793-.64469-.73282a11.99288,11.99288,0,0,0-1.81148-.5833,2.39123,2.39123,0,0,1-.7549-.26118,5.62494,5.62494,0,0,1-.60382-.55767,9.98843,9.98843,0,0,0-1.56929-.83073,11.22146,11.22146,0,0,1-1.16273-.92507,5.27688,5.27688,0,0,0-1.18959-.708c-.10838-.04654-.41309-.24264-.42043-.02558-.00545.16109.254.32709.35035.43784A2.08116,2.08116,0,0,1,25.88888,34.62865Z"/><path class="cls-32" d="M16.09252,37.12212a1.66248,1.66248,0,0,1-1.90667,1.01978c-.36221-.09113-.6869-.30646-1.055-.36994s-.83114.113-.87424.48194a7.09464,7.09464,0,0,0-2.02235.13079,2.37962,2.37962,0,0,0-1.57761,1.17383,1.985,1.985,0,0,0-1.22331.05255,1.46856,1.46856,0,0,1-.46715.13886,1.68271,1.68271,0,0,1-.7235-.29114c-.23677-.11468-.4839.37924-1.0609.84449.41363-.24484.22166-1.89054-.67249-2.35236.56662-.29462.97077-1.49658.97077-1.49658,3.14435,1.70922,3.386-1.08211,3.386-1.08211,2.01326-.04882,1.78009-2.59708,1.78009-2.59708-.54686,1.04681-3.243,3.841-5.19493,2.645-1.169-.71623-4.11736,4.5271-3.21751,5.73112s1.56852.41808,1.56852.41808a12.97861,12.97861,0,0,0,1.37326.51057,1.42114,1.42114,0,0,0,1.71583-.53907,2.93,2.93,0,0,0,1.45321-.05407l1.70078-.35431a1.81655,1.81655,0,0,0,.97893-.41986c.24174-.25293.32249-.63239.584-.865.37044-.32941.9774-.25885,1.35816-.57636.162-.13513.268-.33.43921-.45331.39279-.283.93847-.09112,1.42158-.1347A1.45273,1.45273,0,0,0,16.09252,37.12212Z"/><path class="cls-32" d="M17.05275,35.54329c-.10221.0051-.17174.10162-.22536.18826-.08407.13587-.168.31369-.07533.44393a.4001.4001,0,0,0,.19308.12318c.179.06847.42019.10954.52984-.04692a.42489.42489,0,0,0,.05926-.19885.46669.46669,0,0,0-.059-.35147.5015.5015,0,0,0-.2625-.13755.31066.31066,0,0,0-.27982.01029"/><path class="cls-32" d="M23.26072,41.30469c.2653.0882.56909-.09222.82964.009a1.43964,1.43964,0,0,0,.55358,1.11062,1.38257,1.38257,0,0,0,.58912.12518,18.547,18.547,0,0,0,3.14294-.088,1.90965,1.90965,0,0,0,.82752-.23135.69075.69075,0,0,0,.33543-.73177l-2.45034.008a1.22516,1.22516,0,0,1-.64148-.115,1.83367,1.83367,0,0,1-.50618-.69672c-.15181-.24763-.449-.47578-.714-.35435a1.032,1.032,0,0,0-.7296-.90991,1.22448,1.22448,0,0,0-1.28758.514C22.999,40.30084,22.67282,41.10924,23.26072,41.30469Z"/><path class="cls-33" d="M30.74994,42.49023c.05141-.11539.0431-.24884.09209-.36521.12439-.29547.52367-.34374.8307-.46178a1.342,1.342,0,0,0,.8405-1.04019.97027.97027,0,0,1,.10781-.44583.8902.8902,0,0,1,.36837-.24142,2.35787,2.35787,0,0,0,1.282-1.59119.77363.77363,0,0,1,.38338-.633,2.8229,2.8229,0,0,0,1.00761-2.55673.7202.7202,0,0,0-.2143-.46948.6074.6074,0,0,0-.68865.01142,1.68243,1.68243,0,0,0-.46955.54351l-1.1677,1.83078-.47247.74076L31.89452,38.996l-1.00547,1.57642c-.25477.39944-1.93659,2.9331-1.59339,2.87131.27577-.04965.49668-.31409.72482-.45188C30.25213,42.852,30.63892,42.75808,30.74994,42.49023Z"/><path class="cls-34" d="M35.71648,34.03005a1.00157,1.00157,0,0,0,.1673.01521c.06582.0095.127.04419.19316.05a.30238.30238,0,0,0,.26668-.15122.702.702,0,0,0,.09228-.31567.99559.99559,0,0,0-.05783-.5568.36961.36961,0,0,0-.35707-.11312c-.23.04839-.33748.37371-.407.57464C35.56011,33.68887,35.51259,33.96434,35.71648,34.03005Z"/></g></svg>