<?xml version="1.0" encoding="UTF-8" standalone="no"?>
<!-- Created with Inkscape (http://www.inkscape.org/) -->

<svg
   width="100"
   height="100"
   viewBox="0 0 26.458334 26.458334"
   version="1.1"
   id="svg30012"
   xml:space="preserve"
   inkscape:version="1.2 (dc2aedaf03, 2022-05-15)"
   sodipodi:docname="noBuild.svg"
   xmlns:inkscape="http://www.inkscape.org/namespaces/inkscape"
   xmlns:sodipodi="http://sodipodi.sourceforge.net/DTD/sodipodi-0.dtd"
   xmlns="http://www.w3.org/2000/svg"
   xmlns:svg="http://www.w3.org/2000/svg"><sodipodi:namedview
     id="namedview30014"
     pagecolor="#505050"
     bordercolor="#ffffff"
     borderopacity="1"
     inkscape:showpageshadow="0"
     inkscape:pageopacity="0"
     inkscape:pagecheckerboard="1"
     inkscape:deskcolor="#505050"
     inkscape:document-units="mm"
     showgrid="false"
     showguides="true"
     inkscape:zoom="2.68"
     inkscape:cx="6.5298507"
     inkscape:cy="53.358209"
     inkscape:window-width="1366"
     inkscape:window-height="705"
     inkscape:window-x="-8"
     inkscape:window-y="-8"
     inkscape:window-maximized="1"
     inkscape:current-layer="layer1" /><defs
     id="defs30009" /><g
     inkscape:label="Layer 1"
     inkscape:groupmode="layer"
     id="layer1"
     transform="translate(-43.400817,-100.08549)"><path
       style="color:#000000;-inkscape-font-specification:'Seymour One';fill:#000000;stroke-linecap:round;stroke-linejoin:round;-inkscape-stroke:none;paint-order:stroke fill markers"
       d="m 52.232422,100.22852 c -2.41157,0.48301 -4.702999,1.2102 -6.861328,2.18359 a 0.34303429,0.34303429 0 0 0 -0.0293,0.0137 c -0.0012,7e-4 -0.0027,0.001 -0.0039,0.002 -0.168836,0.0785 -0.302149,0.14028 -0.382813,0.17579 -0.02792,0.0123 -0.03864,0.0164 -0.05078,0.0215 -0.0097,0.004 -0.01964,0.003 -0.03125,0.008 -0.0106,0.004 -0.02302,0.009 -0.04492,0.0215 -0.01095,0.006 -0.04271,0.0291 -0.04297,0.0293 -2.63e-4,2.2e-4 -0.07606,0.0877 -0.07617,0.0879 -5.3e-5,9e-5 -0.04295,0.10149 -0.04297,0.10157 -9e-6,3e-5 1.15e-4,0.0394 0,0.0781 -0.827124,0.53489 -1.244479,1.57173 -0.613282,2.42578 l 5.632813,7.60547 c -1.424821,1.94192 -2.736167,3.7626 -3.650391,5.16992 l -1.611328,2.4336 c -0.598091,0.90246 -0.252358,2.14105 0.726563,2.60351 l 6.519531,3.07618 c 0.770896,0.36394 1.697947,0.13003 2.203125,-0.55665 l 2.777344,-3.7832 3.277343,3.82813 c 0.530787,0.62009 1.419,0.80182 2.150391,0.43945 l 1.875,-0.92969 a 0.34303429,0.34303429 0 0 0 0.002,-0.002 c 0.05382,-0.0272 0.107412,-0.0573 0.158203,-0.0898 l 0.0039,-0.002 4.408204,-2.78906 c 0.888297,-0.56306 1.097901,-1.78349 0.449218,-2.61133 -2.536591,-3.23531 -4.207021,-5.30634 -5.552734,-6.93945 0.268001,-0.3562 0.555407,-0.74026 0.974609,-1.30078 1.103993,-1.47617 2.706243,-3.62451 4.808594,-6.44922 0.75803,-1.02044 0.215345,-2.51118 -1.021484,-2.80469 l -7.74614,-1.83423 c -0.708687,-0.1671 -1.449391,0.11403 -1.869141,0.70898 l -2.109375,2.98633 -2.453125,-3.23633 c -0.413147,-0.54486 -1.102886,-0.80577 -1.773437,-0.67187 z m 0.134765,0.67187 c 0.414339,-0.0827 0.836511,0.0774 1.091797,0.41406 l 2.738282,3.60938 a 0.34303429,0.34303429 0 0 0 0.552734,-0.01 l 2.378906,-3.36718 c 0.259565,-0.36791 0.714106,-0.54083 1.152344,-0.4375 l 7.744141,1.83398 v -0.002 c 0.781621,0.18548 1.107947,1.08364 0.628906,1.72851 -2.102159,2.82446 -3.705157,4.97379 -4.808594,6.44922 -0.48747,0.65181 -0.839359,1.12006 -1.132812,1.50977 a 0.34303429,0.34303429 0 0 0 0.0098,0.42578 c 1.35932,1.6465 3.101002,3.80732 5.712891,7.13867 0.405128,0.51702 0.277433,1.25772 -0.277344,1.60937 l -4.410156,2.78907 a 0.34303429,0.34303429 0 0 0 -0.0039,0.002 c -0.03199,0.0206 -0.0637,0.0395 -0.09766,0.0566 l -1.873047,0.92774 c -0.453139,0.22451 -0.995365,0.11465 -1.324218,-0.26954 l -3.558594,-4.15625 a 0.34303429,0.34303429 0 0 0 -0.537109,0.0195 l -3.033204,4.13085 c -0.313282,0.42584 -0.879355,0.5675 -1.357421,0.3418 l -6.519532,-3.07617 c -0.612232,-0.28923 -0.821321,-1.0391 -0.447265,-1.60352 l 1.611328,-2.4375 a 0.34303429,0.34303429 0 0 0 0.002,-0.002 c 0.935165,-1.43956 2.28492,-3.31565 3.775391,-5.34375 a 0.34303429,0.34303429 0 0 0 -0.002,-0.4082 l -5.779296,-7.80469 c -0.48071,-0.65043 -0.142862,-1.55223 0.646484,-1.72852 a 0.34303429,0.34303429 0 0 0 0.03711,-0.0352 c 0.0887,-0.0394 0.196988,-0.0873 0.353516,-0.16016 a 0.34303429,0.34303429 0 0 0 0.01953,-0.01 c 2.107161,-0.94964 4.346176,-1.66191 6.707031,-2.13477 z m -0.40039,2.42383 c -0.01624,0.004 -0.03065,0.01 -0.04687,0.0137 v 0.002 c -6.19e-4,1.5e-4 -0.0013,-1.4e-4 -0.002,0 -1.480871,0.34439 -2.890618,0.80505 -4.246094,1.34961 a 0.34303429,0.34303429 0 0 0 -0.146484,0.52149 l 5.25,7.09179 c 0.289092,0.39133 0.286775,0.92041 -0.0039,1.31055 -1.823177,2.44963 -3.262041,4.49128 -4.314453,6.11133 -0.0017,0.003 -0.0041,0.005 -0.0059,0.008 l -0.699219,1.05664 a 0.34303429,0.34303429 0 0 0 0.138672,0.5 l 3.9375,1.85742 A 0.34303429,0.34303429 0 0 0 52.25,123.03906 l 3.408203,-4.63672 c 0.424319,-0.57808 1.256223,-0.60913 1.722656,-0.0644 l 4.009766,4.68555 a 0.34303429,0.34303429 0 0 0 0.412109,0.084 l 0.800782,-0.39648 a 0.34303429,0.34303429 0 0 0 0.03125,-0.0176 l 2.984375,-1.88867 a 0.34303429,0.34303429 0 0 0 0.08594,-0.50196 c -2.265103,-2.87449 -4.278617,-5.40874 -5.392578,-6.73828 -0.342433,-0.40933 -0.342833,-0.99952 -0.002,-1.41015 a 0.34303429,0.34303429 0 0 0 0.03711,-0.23828 c 0.0057,0.004 0.03711,0.0273 0.03711,0.0273 4.1e-5,-9e-5 -0.05349,0.18082 -0.05664,0.18555 0.003,-0.004 0.0031,-0.004 0.0078,-0.01 0.01991,-0.026 0.05481,-0.0706 0.09961,-0.12891 0.08961,-0.11654 0.22252,-0.28871 0.373047,-0.48828 0.299929,-0.39765 0.722833,-0.96495 1.273437,-1.70117 0.800484,-1.07033 2.163848,-2.90025 3.492188,-4.68359 a 0.34303429,0.34303429 0 0 0 -0.195313,-0.53906 l -4.654297,-1.10157 a 0.34303429,0.34303429 0 0 0 -0.359375,0.13477 l -2.953125,4.18555 c -0.435111,0.61628 -1.321438,0.63036 -1.777343,0.0293 l -3.31836,-4.375 -0.0098,0.0371 A 0.34303429,0.34303429 0 0 0 51.966708,103.324 Z m -0.05078,0.73242 3.171875,4.18359 c 0.724575,0.95529 2.193238,0.93065 2.884765,-0.0488 l 2.81836,-3.99414 3.921875,0.92773 c -1.210935,1.62559 -2.451483,3.28998 -3.179688,4.26367 -0.550553,0.73616 -0.975015,1.30357 -1.273437,1.69922 -0.148649,0.19708 -0.27815,0.36857 -0.367188,0.48438 -0.04452,0.0579 -0.07825,0.10101 -0.09961,0.1289 -0.0018,0.002 -0.0023,0.004 -0.0039,0.006 0.0037,-0.004 0.03719,-0.0333 0.03711,-0.0332 0,0 0.06445,-0.041 0.06445,-0.041 0,0 0.03906,-0.0156 0.03906,-0.0156 0,0 0.03553,0.0259 0.04297,0.0313 a 0.34303429,0.34303429 0 0 0 -0.189453,0.0664 0.34303429,0.34303429 0 0 0 -0.002,0.002 c -0.0042,0.005 -0.0093,0.0116 -0.01367,0.0176 -0.0021,0.003 -0.0028,0.005 -0.0098,0.0156 -0.0035,0.005 -0.0273,0.0468 -0.02734,0.0469 0,0 -0.02734,0.0879 -0.02734,0.0879 0,0 -0.0039,0.0527 -0.0039,0.0527 0,0 0.0019,0.002 0.002,0.002 -0.399224,0.64578 -0.412404,1.46875 0.08594,2.06446 1.050912,1.25428 2.998887,3.70965 5.140625,6.42578 l -2.646484,1.67383 -0.542969,0.26953 -3.835937,-4.48047 c -0.743572,-0.86831 -2.122393,-0.8161 -2.798828,0.10547 l -3.238282,4.40625 -3.322265,-1.56641 0.478515,-0.72461 0.002,-0.002 c 0.0024,-0.004 0.0054,-0.008 0.0078,-0.0117 1.040055,-1.60103 2.473529,-3.63419 4.291016,-6.07617 0.469512,-0.63017 0.470851,-1.49684 0.0039,-2.12891 l -4.964844,-6.70703 c 1.147302,-0.44297 2.323234,-0.83578 3.554688,-1.13086 z"
       id="path376" /><path
       style="color:#000000;-inkscape-font-specification:'Seymour One';fill:#680e0e;stroke-width:0.686;stroke-linecap:round;stroke-linejoin:round;-inkscape-stroke:none;paint-order:stroke fill markers"
       d="m 52.299535,100.56412 c -2.387563,0.47821 -4.653684,1.19802 -6.787484,2.16035 a 1.4439307,1.4439307 0 0 0 -0.01558,0.009 c -0.17962,0.0836 -0.316929,0.14546 -0.403337,0.18349 -0.04321,0.019 -0.07395,0.0316 -0.08136,0.0346 -0.0074,0.003 -0.06111,0.004 0.16272,-0.0467 a 1.4439307,1.4439307 0 0 0 -0.846484,2.26742 l 5.780006,7.80535 c -1.491783,2.02989 -2.842813,3.90945 -3.785826,5.36109 l -1.611615,2.43733 a 1.4439307,1.4439307 0 0 0 0.586828,2.10324 l 6.519169,3.07609 a 1.4439307,1.4439307 0 0 0 1.779528,-0.45007 l 3.034547,-4.13032 3.557326,4.15628 a 1.4439307,1.4439307 0 0 0 1.737984,0.35487 l 1.874737,-0.92958 a 1.4439307,1.4439307 0 0 0 0.129829,-0.0744 l 4.410739,-2.79046 a 1.4439307,1.4439307 0 0 0 0.363522,-2.11016 c -2.613114,-3.33291 -4.356095,-5.49655 -5.717688,-7.14581 0.293626,-0.38994 0.646153,-0.85912 1.133844,-1.51122 1.103716,-1.4758 2.706624,-3.62533 4.808881,-6.44992 a 1.4439307,1.4439307 0 0 0 -0.825714,-2.26596 l -7.744758,-1.83319 a 1.4439307,1.4439307 0 0 0 -1.511216,0.57299 l -2.378474,3.36864 -2.736805,-3.60926 a 1.4439307,1.4439307 0 0 0 -1.433316,-0.54355 z m -0.256198,3.0934 3.318441,4.37612 a 1.4439307,1.4439307 0 0 0 2.330005,-0.0398 l 2.953187,-4.18397 4.654818,1.10268 c -1.328317,1.78331 -2.691475,3.61274 -3.491546,4.68252 -0.550579,0.73619 -0.974884,1.30325 -1.27406,1.6999 -0.299176,0.39665 -0.525597,0.68559 -0.488158,0.64049 a 1.4439307,1.4439307 0 0 0 0.0035,1.84877 c 1.106745,1.32092 3.120704,3.85648 5.385325,6.73036 l -2.984345,1.88859 -0.79975,0.39641 -4.009133,-4.68425 a 1.4439307,1.4439307 0 0 0 -2.260763,0.0848 l -3.406724,4.63578 -3.936428,-1.85742 0.699347,-1.05595 a 1.4439307,1.4439307 0 0 0 0.0069,-0.0104 c 1.046234,-1.61054 2.483079,-3.64752 4.303413,-6.09333 a 1.4439307,1.4439307 0 0 0 0.0035,-1.72067 l -5.250302,-7.09042 c 1.357509,-0.54538 2.763201,-1.00932 4.242825,-1.35023 z"
       id="path378" /><path
       id="path47513"
       style="color:#000000;-inkscape-font-specification:'Seymour One';display:inline;fill:#c11e1e;fill-opacity:1;stroke-width:0.886302;stroke-linecap:round;stroke-linejoin:round;paint-order:stroke fill markers"
       d="m 52.620912,100.53682 a 1.4439307,1.4439307 0 0 0 -0.321523,0.0275 c -2.387557,0.4782 -4.653445,1.19763 -6.787241,2.15997 a 1.4439307,1.4439307 0 0 0 -0.01557,0.009 c -0.179619,0.0836 -0.317099,0.14518 -0.403506,0.18321 -0.0209,0.009 -0.02555,0.0111 -0.03939,0.017 0.02633,-0.007 0.06496,-0.0163 0.120915,-0.0289 a 1.4439307,1.4439307 0 0 0 -1.041971,1.8783 1.4439307,1.4439307 0 0 1 1.041971,-0.94029 c -0.05596,0.0126 -0.09458,0.0219 -0.120915,0.0288 0.01384,-0.006 0.01849,-0.008 0.03939,-0.0169 0.08641,-0.038 0.223887,-0.0996 0.403506,-0.1832 a 1.4439307,1.4439307 0 0 1 0.01557,-0.009 c 2.133796,-0.96234 4.399684,-1.68177 6.787241,-2.15997 a 1.4439307,1.4439307 0 0 1 1.433569,0.54319 l 2.736607,3.60958 2.378442,-3.36866 a 1.4439307,1.4439307 0 0 1 1.511432,-0.57297 l 7.74448,1.83295 a 1.4439307,1.4439307 0 0 1 1.031437,0.938 1.4439307,1.4439307 0 0 0 -1.031437,-1.876 l -7.74448,-1.83295 a 1.4439307,1.4439307 0 0 0 -1.511432,0.57297 l -2.378442,3.36866 -2.736607,-3.60958 a 1.4439307,1.4439307 0 0 0 -1.112046,-0.57067 z m -7.568147,2.39722 c -0.07695,0.0204 -0.04677,0.0194 -0.04122,0.0174 0.0037,-0.002 0.02699,-0.0114 0.04122,-0.0174 z m 0,0.938 c -0.01423,0.006 -0.03748,0.0159 -0.04122,0.0174 -0.0055,0.002 -0.03573,0.003 0.04122,-0.0174 z m 19.652724,1.83753 c -1.097673,1.47341 -2.233487,2.99761 -2.897367,3.8853 -0.507678,0.67882 -0.88053,1.17751 -1.174336,1.56776 h 0.702587 c 0.169286,-0.22625 0.267813,-0.35707 0.471749,-0.62976 0.800069,-1.06979 2.163551,-2.89892 3.491863,-4.68223 z m -16.366507,0.0256 c -0.180296,0.0688 -0.360049,0.13894 -0.538619,0.21069 l 3.863309,5.21672 h 0.694343 z" /><path
       style="color:#000000;-inkscape-font-specification:'Seymour One';display:inline;fill:#941c1c;stroke-width:2.88757;stroke-linecap:round;stroke-linejoin:round;paint-order:stroke fill markers"
       d="m 67.771417,104.01282 q -6.305735,8.4724 -6.61463,8.84452 2.002497,2.39001 6.41225,8.01444 l -4.409753,2.79072 -1.874678,0.93026 -4.739951,-5.53855 -4.111509,5.59579 -6.518764,-3.07697 1.619039,-2.44726 q 1.608389,-2.4759 4.356496,-6.16827 l -6.401598,-8.64414 q 0.06391,-0.0143 0.617791,-0.27192 3.046351,-1.3739 6.476159,-2.06087 l 3.930431,5.18078 3.515021,-4.9804 z"
       id="path47509" /><path
       d="m 68.431043,104.03669 q -6.679059,8.45065 -7.006242,8.8218 2.121052,2.38388 6.79188,7.99386 l -4.670828,2.78357 -1.985666,0.92786 -5.020576,-5.52433 -4.354927,5.58142 -6.904701,-3.06907 1.714893,-2.44097 q 1.703611,-2.46954 4.614417,-6.15243 l -6.780599,-8.62194 q 0.0677,-0.0143 0.654368,-0.27122 3.226707,-1.37038 6.859574,-2.05557 l 4.163128,5.16746 3.723124,-4.96761 z"
       style="font-size:29.3244px;font-family:'Seymour One';-inkscape-font-specification:'Seymour One';text-align:center;text-anchor:middle;fill:#f72222;fill-opacity:1;stroke-width:0.110018;stroke-linecap:round;paint-order:stroke fill markers"
       id="path462" /><path
       id="path47333"
       style="font-size:29.3244px;font-family:'Seymour One';-inkscape-font-specification:'Seymour One';text-align:center;text-anchor:middle;fill:#c31e1e;fill-opacity:1;stroke-width:0.110018;stroke-linecap:round;paint-order:stroke fill markers"
       d="m 56.53964,118.10147 -4.354753,5.5813 -6.402971,-2.84606 -0.501978,0.71495 6.904949,3.06912 4.354753,-5.5813 5.020699,5.52451 1.985471,-0.92793 4.67078,-2.78378 c -0.187248,-0.2249 -0.342405,-0.40898 -0.523505,-0.6261 l -4.147275,2.47188 -1.985471,0.92793 z" /><path
       id="path47445"
       style="font-size:29.3244px;font-family:'Seymour One';-inkscape-font-specification:'Seymour One';text-align:center;text-anchor:middle;fill:#ffa5a5;fill-opacity:0.580882;stroke-width:0.110018;stroke-linecap:round;paint-order:stroke fill markers"
       d="m 52.342442,102.00978 c -2.421906,0.45679 -4.708473,1.14197 -6.859606,2.05554 -0.391115,0.1713 -0.608907,0.26163 -0.654038,0.27114 l 0.55694,0.70854 c 0.03767,-0.0164 0.05551,-0.0235 0.0971,-0.0417 2.151133,-0.91358 4.4377,-1.59875 6.859606,-2.05554 l 4.163306,5.16725 3.723158,-4.96756 7.570895,1.68685 c 0.226573,-0.28659 0.39239,-0.49578 0.631136,-0.79785 l -8.202031,-1.827 -3.723158,4.96756 z" /><path
       id="rect47849"
       style="fill:#ff653d;fill-opacity:0.205882;stroke:none;stroke-width:2.80622;stroke-linecap:round;stroke-linejoin:round;stroke-dasharray:none;stroke-opacity:1;paint-order:stroke fill markers;stop-color:#000000"
       d="m 52.342442,102.00978 c -2.421908,0.45679 -4.708471,1.14196 -6.859606,2.05554 -0.391115,0.1713 -0.608907,0.26163 -0.654038,0.27114 l 6.780371,8.62203 c -0.05201,0.0658 -0.100623,0.12804 -0.152059,0.19328 h 10.226433 c -0.08566,-0.097 -0.178584,-0.203 -0.258775,-0.29313 0.218121,-0.24743 2.553468,-3.18841 7.006169,-8.82217 l -8.202031,-1.827 -3.723158,4.96756 z" /><path
       id="path48804"
       style="mix-blend-mode:normal;fill:#9d0d0a;fill-opacity:0.343137;fill-rule:evenodd;stroke-width:0.221511"
       d="m 51.729127,120.5833 a 0.83211019,0.95876067 82.953818 0 0 -0.989602,0.83405 0.83211019,0.95876067 82.953818 0 0 0.923459,0.83405 0.83211019,0.95876067 82.953818 0 0 0.989603,-0.83405 0.83211019,0.95876067 82.953818 0 0 -0.92346,-0.83405 z" /><path
       id="path49042"
       style="mix-blend-mode:normal;fill:#9d0d0a;fill-opacity:0.343137;fill-rule:evenodd;stroke-width:0.221511"
       d="m 60.152388,123.01467 -1.461411,-1.60765 1.460894,1.60765 a 1.9111041,1.6586508 7.0461775 0 0 5.17e-4,0 z" /><path
       id="path49049"
       style="mix-blend-mode:normal;fill:#9d0d0a;fill-opacity:0.343137;fill-rule:evenodd;stroke-width:0.221511"
       d="m 58.314255,120.05361 2.360582,2.59829 a 1.9111041,1.6586508 7.0461775 0 0 0.445967,-1.11259 1.9111041,1.6586508 7.0461775 0 0 -1.972491,-1.66243 1.9111041,1.6586508 7.0461775 0 0 -0.834058,0.17673 z" /><path
       id="path49047"
       style="mix-blend-mode:normal;fill:#710907;fill-opacity:0.343137;fill-rule:evenodd;stroke-width:0.221511"
       d="m 57.780957,120.40501 0.91002,1.00201 1.461411,1.60765 a 1.9111041,1.6586508 7.0461775 0 0 0.522449,-0.36277 l -2.360582,-2.59829 a 1.9111041,1.6586508 7.0461775 0 0 -0.533298,0.3514 z" /><path
       id="path49040"
       style="mix-blend-mode:normal;fill:#9d0d0a;fill-opacity:0.343137;fill-rule:evenodd;stroke-width:0.221511"
       d="m 55.05089,111.75334 a 1.7092554,1.6444899 31.806475 0 0 -1.631943,1.66295 1.7092554,1.6444899 31.806475 0 0 1.749248,1.66295 1.7092554,1.6444899 31.806475 0 0 1.631941,-1.66295 1.7092554,1.6444899 31.806475 0 0 -1.749246,-1.66295 z" /><path
       id="path49038"
       style="mix-blend-mode:normal;fill:#9d0d0a;fill-opacity:0.343137;fill-rule:evenodd;stroke-width:0.221511"
       d="m 58.772626,106.86889 c -0.28866,-0.005 -0.477334,0.3021 -0.632002,0.81286 -0.202019,0.66714 -0.202169,1.024 0.263032,1.29192 0.465195,0.26792 0.938999,0.35035 1.141015,-0.31678 0.202019,-0.66714 -0.01178,-1.425 -0.476973,-1.69292 -0.109021,-0.0628 -0.206681,-0.0937 -0.295077,-0.0951 z" /><path
       id="path49036"
       style="mix-blend-mode:normal;fill:#9d0d0a;fill-opacity:0.343137;fill-rule:evenodd;stroke-width:0.221511"
       d="m 52.09448,104.66747 a 1.2206705,1.1744179 31.806462 0 0 -1.165302,1.18752 1.2206705,1.1744179 31.806462 0 0 1.249017,1.18753 1.2206705,1.1744179 31.806462 0 0 1.165306,-1.18753 1.2206705,1.1744179 31.806462 0 0 -1.249021,-1.18752 z" /><path
       id="path49034"
       style="mix-blend-mode:normal;fill:#9d0d0a;fill-opacity:0.343137;fill-rule:evenodd;stroke-width:0.221511"
       d="m 61.652036,103.46445 a 1.8861486,2.6767498 27.706191 0 0 -1.24385,2.00142 1.8861486,2.6767498 27.706191 0 0 1.410765,2.52698 1.8861486,2.6767498 27.706191 0 0 2.585373,-2.52698 1.8861486,2.6767498 27.706191 0 0 -0.01137,-1.39061 z" /><path
       id="path49032"
       style="mix-blend-mode:normal;fill:#ff0904;fill-opacity:0.343137;fill-rule:evenodd;stroke-width:0.221511"
       d="m 61.652036,103.46445 2.740919,0.61081 a 1.8861486,2.6767498 27.706191 0 0 -1.398881,-1.13637 1.8861486,2.6767498 27.706191 0 0 -1.342038,0.52556 z" /></g></svg>
