<svg xmlns="http://www.w3.org/2000/svg" viewBox="0 0 100 78"><defs><style>.cls-1{fill:#506779;}.cls-2{fill:#324651;}.cls-3{fill:#7c90a2;}.cls-4,.cls-5,.cls-7{fill:#152a30;}.cls-5{opacity:0.5;}.cls-6{fill:#9daec0;}.cls-7{opacity:0.53;}.cls-8{fill:#344650;}.cls-9{fill:#1c353d;}.cls-10{fill:#637d95;}</style></defs><g id="Layer_1" data-name="Layer 1"><path class="cls-1" d="M54.68112,62.03072A68.314,68.314,0,0,0,63.494,66.47085a26.57142,26.57142,0,0,0,4.28311,1.36448,6.74883,6.74883,0,0,0,3.92431-.05591c1.7435-.76055,3.59356-4.25,5.19691-8.20365.51015-1.25262.9923-2.5444,1.44079-3.81938l.1009-.2852c1.65944-4.78125,2.79186-9.104,2.79186-9.104-.11771-2.06909-2.97687-3.29932-6.76663-4.01513-1.40154-.25722-2.9264-.453-4.49054-.59276-2.10788-.19011-4.27746-.27961-6.29009-.31316-.14015,0-.2803-.0056-.42046-.0056-1.27822-.01675-2.47791-.01675-3.55431,0-2.79747.03915-4.71476.151-4.71476.151Z"/><polygon class="cls-2" points="70.915 65.988 72.364 59.486 67.085 58.604 64.535 61.239 63.936 67.812 70.915 65.988"/><path class="cls-3" d="M75.88833,56.97469s-2.84876,2.42346-3.52435,2.51122-7.1992.30706-7.66818-.22757c-.75238-.85771,1.38138-6.91666,1.38138-6.91666L77.27127,54.308Z"/><path class="cls-4" d="M53.66074,63.7028l-.95631-.58261.358-23.37362,1.817-.10867c3.56357-.2124,21.59808-1.04593,26.6895,3.46578a4.50486,4.50486,0,0,1,1.62,3.14887l.01835.30927-.07875.29979c-1.255,4.78732-5.73133,20.57332-10.642,22.71342-1.93149.84173-4.77678.40037-7.69043-.54776A59.23133,59.23133,0,0,1,53.66074,63.7028Zm25.302-17.67235c-2.77917-2.46509-14.28527-2.88364-22.03244-2.57472l-.26748,17.47613c5.49348,3.20044,12.22293,5.94086,14.25249,5.05637,2.08566-.909,5.93452-10.8137,8.29918-19.6728A1.25836,1.25836,0,0,0,78.96277,46.03045Z"/><path class="cls-1" d="M61.70562,31.89484l.01122.0671L63.5052,42.93925l1.49126,9.13752s13.75749,5.34606,17.7659,2.673c1.76592-1.17433,3.06655-5.72631,3.96352-10.45165.25228-1.32532.47093-2.66741.66713-3.948.67275-4.5296.9755-8.35461.9755-8.35461C86.89409,25.83861,61.70562,31.89484,61.70562,31.89484Z"/><path class="cls-5" d="M81.17651,53.55981a43.97917,43.97917,0,0,1-1.11259-6.61313l-5.73861-2.07819-5.71409.87877-.67253,5.317.673,1.72267S79.86642,56.75883,81.17651,53.55981Z"/><path class="cls-3" d="M85.68565,41.95237s-4.18812,4.58438-5.62173,4.99431-7.02826.28582-10.36313-.1852l.70054-6.94841,17.12213-.37438Z"/><path class="cls-6" d="M87.37523,40.98706l-1.68958.96531s-3.30251,5.08331-6.68686,5.15785c0,0,4.29194-4.57775,3.58772-6.12316S87.37523,40.98706,87.37523,40.98706Z"/><path class="cls-4" d="M64.28581,53.89836l-1.0441-.40582L59.47424,30.42l1.76954-.42565c3.47035-.83413,21.07617-4.81775,26.8843-1.2689a4.50983,4.50983,0,0,1,2.14985,2.81569l.07258.30124-.02469.30892c-.3916,4.93285-2.01566,21.258-6.47262,24.226-1.75276,1.1674-4.63149,1.23167-7.66687.80931A59.30788,59.30788,0,0,1,64.28581,53.89836ZM86.07837,32.06371c-3.17086-1.93989-14.57125-.33362-22.14273,1.32929l2.81709,17.25106c5.97234,2.18688,13.07973,3.70434,14.92145,2.47791,1.89295-1.26066,3.936-11.68606,4.70225-20.82187A1.26006,1.26006,0,0,0,86.07837,32.06371Z"/><path class="cls-1" d="M92.9792,2.99142,87.86828,9.57418a24.45139,24.45139,0,0,1-10.71295,7.89108L60.948,23.55612a2.65979,2.65979,0,0,0-1.38729,3.793l6.44371,11.4685a2.6702,2.6702,0,0,0,2.3566,1.36055l20.05584-.21228a4.39316,4.39316,0,0,0,3.95323-2.56262A66.1393,66.1393,0,0,0,97.75121,4.38383,2.67429,2.67429,0,0,0,92.9792,2.99142Z"/><path class="cls-5" d="M83.96036,25.0303c.81764.58257,6.12369,8.557,6.6244,11.56053s-9.35453,2.84786-9.35453,2.84786l-10.8289.37438L72.364,27.90027Z"/><path class="cls-3" d="M67.93969,21.7899s1.97895,6.24081,5.281,7.60529a3.37494,3.37494,0,0,0,1.07637.26281h.01122a14.69023,14.69023,0,0,0,3.47021-.2125c.26347-.04472.527-.09506.78484-.15656l.08411-.0168a23.38568,23.38568,0,0,0,4.74839-1.64408c.59426-.274,1.16048-.56477,1.69307-.85C87.98727,25.2123,95.89757,3.07873,95.89757,3.07873,94.88844.34418,90.35308,6.37805,90.35308,6.37805l-7.14785,8.64541-8.05042,3.56777-1.81643.80527-.69515.30755-4.41765,1.95724Z"/><path class="cls-1" d="M87.03534,19.73971c3.48669,2.11981-2.523,6.49356-1.78605,6.82176a31.675,31.675,0,0,0,5.07619-3.53581c.72921-2.10917-.04106-4.9769-3.80094-4.98448-5.77185-.0112-7.71686-2.01545-7.71686-2.01545l-1.32275.63188s-1.63625.61564-1.882,1.538c-.119.42751.064.9269.85011,1.45342C77.22876,20.166,83.50594,17.6012,87.03534,19.73971Z"/><path class="cls-6" d="M95.79783,4.56727S89.54947,24.54345,85.08917,26.78086c4.769-10.38228,5.26134-17.20736,5.26134-17.20736l.093-5.65991,5.63309-2.68867Z"/><path class="cls-4" d="M64.29278,39.77434,57.849,28.30588a4.61506,4.61506,0,0,1,2.40725-6.58138l16.20748-6.091a22.47483,22.47483,0,0,0,9.8532-7.25773l5.111-6.58274a4.6377,4.6377,0,0,1,8.277,2.4075A68.5825,68.5825,0,0,1,94.1554,38.21549a6.38442,6.38442,0,0,1-5.71784,3.70777l-20.05568.21216-.04955.00028A4.63165,4.63165,0,0,1,64.29278,39.77434ZM94.53042,4.18992l-5.111,6.58274A26.397,26.397,0,0,1,77.84719,19.2968l-16.20748,6.091a.70432.70432,0,0,0-.36735,1.00429l6.44379,11.46873a.66375.66375,0,0,0,.62412.36016l20.05541-.21216a2.44306,2.44306,0,0,0,2.18908-1.418A64.54557,64.54557,0,0,0,95.79783,4.56727a.68206.68206,0,0,0-.51463-.622.78807.78807,0,0,0-.21707-.03167A.6575.6575,0,0,0,94.53042,4.18992Z"/><path class="cls-7" d="M59.70983,41.44057l2.32656,14.24872,1.04274.40821c.536.20834,1.55716.59208,2.86388,1.03063l-2.449,9.34272a26.57142,26.57142,0,0,0,4.28311,1.36448c.01683-.0727.03925-.13981.05608-.21251L70.00577,57.92c1.5278.39694,4.6485.01,6.229.23012.6503.08946.0357,1.39211.66358,1.42566.51015-1.25262.9923-2.5444,1.44079-3.81938a30.03442,30.03442,0,0,1-7.09224-1.13354l.12379-.47139,2.54891-9.71882,13.0586-1.45983c.25229-1.32533.21865-1.34209.41485-2.6227a2.50242,2.50242,0,0,1-.35319.028L74.95,40.50619l2.62111-9.98139a7.96973,7.96973,0,0,0,.20742-1.0793.83688.83688,0,0,0,.01119-.11182,8.50239,8.50239,0,0,0-2.52835-7.08522l-2.61809-2.54441-4.41765,1.95724,3.90189,3.79707a4.04779,4.04779,0,0,1,1.09321,3.93123v.0056l-.10652.40821L70.29079,40.55554,66.981,40.5906a.67421.67421,0,0,1-.62228-.3635l-4.64191-8.26516,1.54419,9.4786C61.984,41.42378,60.78534,41.42382,59.70983,41.44057Zm5.836,11.40232L64.0069,43.41955a4.6163,4.6163,0,0,0,2.96851,1.08552h.05047l2.23446-.02348L67.07071,52.8261l-.1327.50617C66.46955,53.17328,66.00382,53.01075,65.54585,52.84289Z"/><path class="cls-5" d="M96.59382,21.06751c-2.36616-1.11527-4.19039-2.10208-6.24331-2.10911l-.86446,1.80453a6.59573,6.59573,0,0,1,3.93623,1.8409c1.96082,1.79761,1.09074,8.92893,1.09074,8.92893Z"/><path class="cls-5" d="M82.72593,52.34168s-.44428-2.48473,0-3.24444,1.88725-.94892,1.88725-.94892Z"/><path class="cls-1" d="M45.31888,62.03072A68.314,68.314,0,0,1,36.506,66.47085a26.57142,26.57142,0,0,1-4.28311,1.36448,6.74883,6.74883,0,0,1-3.92431-.05591c-1.7435-.76055-3.59356-4.25-5.19691-8.20365-.51015-1.25262-.9923-2.5444-1.44079-3.81938l-.1009-.2852c-1.65944-4.78125-2.79186-9.104-2.79186-9.104.11771-2.06909,2.97687-3.29932,6.76663-4.01513,1.40154-.25722,2.9264-.453,4.49054-.59276,2.10788-.19011,4.27746-.27961,6.29009-.31316.14015,0,.2803-.0056.42046-.0056,1.27822-.01675,2.47791-.01675,3.55431,0,2.79747.03915,4.71476.151,4.71476.151Z"/><polygon class="cls-2" points="29.085 65.988 27.636 59.486 32.915 58.604 35.465 61.239 36.064 67.812 29.085 65.988"/><path class="cls-3" d="M24.11167,56.97469s2.84876,2.42346,3.52435,2.51122,7.1992.30706,7.66818-.22757c.75238-.85771-1.38138-6.91666-1.38138-6.91666L22.72873,54.308Z"/><path class="cls-4" d="M35.20383,69.02727c-2.91365.94813-5.75894,1.38949-7.69043.54776-4.91069-2.1401-9.387-17.9261-10.642-22.71342l-.07875-.29979.01835-.30927a4.50486,4.50486,0,0,1,1.62-3.14887C23.52244,38.592,41.557,39.4255,45.12052,39.6379l1.817.10867.358,23.37362-.95631.58261A59.23133,59.23133,0,0,1,35.20383,69.02727ZM20.78548,46.31543c2.36466,8.8591,6.21352,18.76378,8.29918,19.6728,2.02956.88449,8.759-1.85593,14.25249-5.05637l-.26748-17.47613c-7.74717-.30892-19.25327.10963-22.03244,2.57472A1.25836,1.25836,0,0,0,20.78548,46.31543Z"/><path class="cls-1" d="M38.29438,31.89484l-.01122.0671L36.4948,42.93925l-1.49126,9.13752s-13.75749,5.34606-17.7659,2.673c-1.76592-1.17433-3.06655-5.72631-3.96352-10.45165-.25228-1.32532-.47093-2.66741-.66713-3.948-.67275-4.5296-.9755-8.35461-.9755-8.35461C13.10591,25.83861,38.29438,31.89484,38.29438,31.89484Z"/><path class="cls-5" d="M18.82349,53.55981a43.97917,43.97917,0,0,0,1.11259-6.61313l5.73861-2.07819,5.71409.87877.67253,5.317-.673,1.72267S20.13358,56.75883,18.82349,53.55981Z"/><path class="cls-3" d="M14.31435,41.95237s4.18812,4.58438,5.62173,4.99431,7.02826.28582,10.36313-.1852l-.70054-6.94841-17.12213-.37438Z"/><path class="cls-6" d="M12.62477,40.98706l1.68958.96531s3.30251,5.08331,6.68686,5.15785c0,0-4.29194-4.57775-3.58772-6.12316S12.62477,40.98706,12.62477,40.98706Z"/><path class="cls-4" d="M23.81367,57.18663c-3.03538.42236-5.91411.35809-7.66687-.80931-4.457-2.968-6.081-19.29318-6.47262-24.226l-.02469-.30892.07258-.30124a4.50983,4.50983,0,0,1,2.14985-2.81569c5.80813-3.54885,23.414.43477,26.8843,1.2689l1.76954.42565L36.75829,53.49254l-1.0441.40582A59.30788,59.30788,0,0,1,23.81367,57.18663ZM13.62357,32.3001c.76627,9.13581,2.8093,19.56121,4.70225,20.82187,1.84172,1.22643,8.94911-.291,14.92145-2.47791L36.06436,33.393c-7.57148-1.66291-18.97187-3.26918-22.14273-1.32929A1.26006,1.26006,0,0,0,13.62357,32.3001Z"/><path class="cls-1" d="M7.0208,2.99142l5.11092,6.58276a24.45139,24.45139,0,0,0,10.713,7.89108L39.052,23.55612a2.65979,2.65979,0,0,1,1.38729,3.793l-6.44371,11.4685a2.6702,2.6702,0,0,1-2.3566,1.36055l-20.05584-.21228a4.39316,4.39316,0,0,1-3.95323-2.56262A66.1393,66.1393,0,0,1,2.24879,4.38383,2.67429,2.67429,0,0,1,7.0208,2.99142Z"/><path class="cls-5" d="M16.03964,25.0303c-.81764.58257-6.12369,8.557-6.6244,11.56053s9.35453,2.84786,9.35453,2.84786l10.8289.37438L27.636,27.90027Z"/><path class="cls-3" d="M32.06031,21.7899s-1.979,6.24081-5.281,7.60529A3.37494,3.37494,0,0,1,25.703,29.658h-.01122a14.69023,14.69023,0,0,1-3.47021-.2125c-.26347-.04472-.527-.09506-.78484-.15656l-.08411-.0168a23.38568,23.38568,0,0,1-4.74839-1.64408c-.59426-.274-1.16048-.56477-1.69307-.85C12.01273,25.2123,4.10243,3.07873,4.10243,3.07873,5.11156.34418,9.64692,6.37805,9.64692,6.37805l7.14785,8.64541,8.05042,3.56777,1.81643.80527.69515.30755,4.41765,1.95724Z"/><path class="cls-1" d="M18.30843,23.88694c-2.14155,2.79049,3.52626,4.89869,3.04414,5.3852a23.38568,23.38568,0,0,1-4.74839-1.64408c-1.07641-1.61609-1.19412-4.30033,1.67623-5.34605,4.40643-1.60493,5.39873-3.86973,5.39873-3.86973l1.166.179s1.40154.0783,1.81643.80527c.1962.33551.17936.81646-.29154,1.48748C25.90476,21.54388,20.478,21.06853,18.30843,23.88694Z"/><path class="cls-1" d="M15.9018,14.674c-.125.12794-1.09346,4.7978,0,5.88531-.515-3.791,2.56849-3.791,2.56849-3.791Z"/><path class="cls-6" d="M4.20217,4.56727s6.24836,19.97618,10.70866,22.21359C10.14188,16.39858,9.64949,9.5735,9.64949,9.5735l-.093-5.65991L3.92341,1.22492Z"/><path class="cls-4" d="M31.66767,42.1357l-.04955-.00028-20.05568-.21216A6.38442,6.38442,0,0,1,5.8446,38.21549,68.5825,68.5825,0,0,1,.29511,4.20056a4.6377,4.6377,0,0,1,8.277-2.4075l5.111,6.58274a22.47483,22.47483,0,0,0,9.8532,7.25773l16.20748,6.091A4.61506,4.61506,0,0,1,42.151,28.30588L35.70722,39.77434A4.63165,4.63165,0,0,1,31.66767,42.1357ZM4.93387,3.91359a.78807.78807,0,0,0-.21707.03167.68206.68206,0,0,0-.51463.622A64.54557,64.54557,0,0,0,9.41524,36.59083a2.44306,2.44306,0,0,0,2.18908,1.418l20.05541.21216a.66375.66375,0,0,0,.62412-.36016l6.44379-11.46873a.70432.70432,0,0,0-.36735-1.00429l-16.20748-6.091a26.397,26.397,0,0,1-11.57227-8.52414l-5.111-6.58274A.6575.6575,0,0,0,4.93387,3.91359Z"/><path class="cls-7" d="M36.739,41.44054l1.54419-9.4786L33.64125,40.2271a.67421.67421,0,0,1-.62228.3635l-3.30976-.03506L26.88584,29.8034l-.10652-.40821v-.0056a4.04779,4.04779,0,0,1,1.09321-3.93123l3.90189-3.79707-4.41765-1.95724-2.61809,2.54441a8.50239,8.50239,0,0,0-2.52835,7.08522.83688.83688,0,0,0,.01119.11182,7.96973,7.96973,0,0,0,.20742,1.0793l2.62111,9.98139-12.08987-.1281a2.50242,2.50242,0,0,1-.35319-.028c.1962,1.28061.16256,1.29737.41485,2.6227l13.0586,1.45983,2.54891,9.71882.12379.47139a30.03442,30.03442,0,0,1-7.09224,1.13354c.44849,1.275.93064,2.56676,1.44079,3.81938.62788-.03355.01328-1.3362.66358-1.42566,1.58046-.22015,4.70116.16682,6.229-.23012l2.1726,9.70283c.01683.0727.03925.13981.05608.21251A26.57142,26.57142,0,0,0,36.506,66.47085l-2.449-9.34272c1.30672-.43855,2.3279-.82229,2.86388-1.03063l1.04274-.40821,2.32656-14.24872C39.21466,41.42382,38.016,41.42378,36.739,41.44054ZM33.062,53.33227l-.1327-.50617-2.18963-8.34451,2.23446.02348h.05047a4.6163,4.6163,0,0,0,2.96851-1.08552l-1.53895,9.42334C33.99618,53.01075,33.53045,53.17328,33.062,53.33227Z"/><path class="cls-1" d="M72.18355,31.44748,68.70212,44.712,63.679,63.85375a8.44106,8.44106,0,0,1-2.68534,4.27238L53.016,74.9232a4.65263,4.65263,0,0,1-6.03207,0l-7.97763-6.79707A8.441,8.441,0,0,1,36.321,63.85375L27.81648,31.44748a5.48119,5.48119,0,0,1,1.48561-5.32926L47.37223,8.54251a3.77069,3.77069,0,0,1,5.25549,0l16.0744,15.63518,1.99579,1.94048A5.494,5.494,0,0,1,72.18355,31.44748Z"/><path class="cls-3" d="M32.06428,30.684c1.06616.6955,4.74568,6.93383,5.98079,6.28158l1.52958-5.41012,6.97757-10.17124L50,17.999V8.19438l-8.97757,6.52419L30.48911,25.08023,28.5905,29.28358A17.84023,17.84023,0,0,1,32.06428,30.684Z"/><path class="cls-8" d="M61.52317,37.01,59.42266,46.6418,56.60521,59.56313a6.01354,6.01354,0,0,1-1.3456,2.7387l-3.83792,4.25482a1.823,1.823,0,0,1-2.84459,0l-3.83789-4.25482a6.01342,6.01342,0,0,1-1.34559-2.7387L38.47575,37.01a5.39512,5.39512,0,0,1,.6362-4.04l9.44531-14.0768a1.61,1.61,0,0,1,2.88441,0L59.8825,31.47363,60.887,32.97006A5.40852,5.40852,0,0,1,61.52317,37.01Z"/><polygon class="cls-9" points="44.432 60.681 46.762 57.806 50 55.825 50 66.653 45.734 63.109 44.432 60.681"/><path class="cls-8" d="M59.289,44.89829s5.59146-1.53937,5.02275,1.01076,2.89688-1.01872,2.89688-1.01872-6.17072-3.82326-6.47132-2.4387A5.38188,5.38188,0,0,1,59.289,44.89829Z"/><path class="cls-3" d="M67.93572,30.684c-1.06616.6955-4.74568,6.93383-5.98079,6.28158l-1.52958-5.41012L53.44778,21.38419,50,17.999V8.19438l8.97757,6.52419L69.51089,25.08023l1.89861,4.20335A17.84023,17.84023,0,0,0,67.93572,30.684Z"/><polygon class="cls-9" points="61.181 35.833 59.863 31.225 51.698 19.267 51.698 17.999 50 18.482 48.302 17.999 48.302 19.267 40.137 31.225 38.819 35.833 43.104 35.345 50 29.043 56.896 35.345 61.181 35.833"/><polygon class="cls-9" points="55.568 60.681 53.238 57.806 50 55.825 50 66.653 54.266 63.109 55.568 60.681"/><path class="cls-1" d="M50,21.7899S42.925,33.483,43.10444,35.3452c.157,1.62954,2.67945,17.64319,3.3072,21.61856a2.53849,2.53849,0,0,0,.81132,1.49233L50,60.95144l2.77707-2.49535a2.53866,2.53866,0,0,0,.81133-1.49233c.62775-3.97537,3.15017-19.989,3.30716-21.61856C57.075,33.483,50,21.7899,50,21.7899Z"/><path class="cls-10" d="M50,48.26855c-2.22,0-6.89556-12.92335-6.89556-12.92335.15353,1.59339,2.56872,16.93991,3.26268,21.33656a3.34294,3.34294,0,0,0,1.06929,1.96615L50,60.95144l2.56362-2.30353a3.3431,3.3431,0,0,0,1.06929-1.96615c.694-4.39665,3.10915-19.74317,3.26265-21.33656C56.89556,35.3452,52.22,48.26855,50,48.26855Z"/><path class="cls-6" d="M50,10.94683c-1.55849.10625-16.53254,17.20689-16.99783,17.74375C44.70779,19.22874,44.81431,17.61985,50,17.10539c5.18569.51446,5.29221,2.12335,16.99783,11.58519C66.53254,28.15372,51.55849,11.05308,50,10.94683Z"/><path class="cls-3" d="M54.74183,33.3769,50,24.404,45.25821,33.3769a3.79009,3.79009,0,0,0,.3586,3.63637A21.77991,21.77991,0,0,0,50,42.1357a21.7805,21.7805,0,0,0,4.38323-5.12243A3.79023,3.79023,0,0,0,54.74183,33.3769Z"/><path class="cls-6" d="M50,24.40144l-4.74278,8.97532c2.0182-2.42139,2.98247-2.62829,4.74278-2.62829s2.72458.2069,4.74278,2.62829Z"/><path class="cls-2" d="M49.99975,74.98642a5.67283,5.67283,0,0,1-3.776-1.45629l-7.02149-6.23222a9.55,9.55,0,0,1-2.912-4.82576L28.805,32.75879a7.01859,7.01859,0,0,1,1.77416-6.62728L46.48154,10.01894a4.8774,4.8774,0,0,1,7.03666,0L69.42183,26.133a7.033,7.033,0,0,1,1.77393,6.622l-.001.00376-7.485,29.71186a9.5497,9.5497,0,0,1-2.91205,4.827l-7.022,6.23222A5.671,5.671,0,0,1,49.99975,74.98642Zm0-62.86979a1.54934,1.54934,0,0,0-1.1068.47191L32.98859,28.70286a3.33135,3.33135,0,0,0-.84275,3.14615l7.48527,29.71286A5.95244,5.95244,0,0,0,41.446,64.56933l7.02076,6.23173a2.28319,2.28319,0,0,0,3.06576,0l7.02173-6.232a5.95335,5.95335,0,0,0,1.81464-3.00871l7.48406-29.70785a3.34408,3.34408,0,0,0-.84035-3.14791L51.107,12.58854A1.55185,1.55185,0,0,0,49.99975,12.11663Z"/><path class="cls-2" d="M36.91671,52.21091l2.89576-3.835.49072,1.51574s-2.67683,4.24111-2.00517,6.06009-1.921,1.26962-1.921,1.26962Z"/><path class="cls-4" d="M49.9999,78a6.60059,6.60059,0,0,1-4.2903-1.58834L37.73178,69.6143a10.35078,10.35078,0,0,1-3.30867-5.26336L25.91835,31.94321A7.44586,7.44586,0,0,1,27.93416,24.715L46.0025,7.14134a5.70332,5.70332,0,0,1,7.99507,0L72.06728,24.71661a7.46112,7.46112,0,0,1,2.01553,7.2225l-.00109.0041-8.50449,32.4061A10.35017,10.35017,0,0,1,62.26856,69.614l-7.97837,6.79736A6.59831,6.59831,0,0,1,49.9999,78Zm0-68.57076a1.79722,1.79722,0,0,0-1.25755.5147L30.67181,27.51949a3.53421,3.53421,0,0,0-.95754,3.43145L38.219,63.35813a6.45145,6.45145,0,0,0,2.06207,3.28017l7.977,6.79681a2.675,2.675,0,0,0,3.48332,0L59.71951,66.638a6.45237,6.45237,0,0,0,2.06179-3.28154l8.5034-32.40173a3.54748,3.54748,0,0,0-.9548-3.43336L51.258,9.94394A1.80016,1.80016,0,0,0,49.9999,9.42924Z"/><path class="cls-4" d="M49.99962,68.46966a3.14327,3.14327,0,0,1-2.33936-1.08975l-3.83808-4.255a7.21565,7.21565,0,0,1-1.63394-3.29929l-4.9177-22.5541a6.569,6.569,0,0,1,.81738-4.9873L47.53215,18.209a2.83333,2.83333,0,0,1,4.93467-.00028l9.44506,14.07693a6.58427,6.58427,0,0,1,.81711,4.9843l-.00055.00164-4.918,22.55328a7.21185,7.21185,0,0,1-1.63367,3.29984l-3.83808,4.255A3.14259,3.14259,0,0,1,49.99962,68.46966Zm0-49.24031c-.09142,0-.25567.10759-.41717.34842L40.13712,33.65442a4.20184,4.20184,0,0,0-.45605,3.09368l4.9177,22.55356a4.82718,4.82718,0,0,0,1.05773,2.17759L49.494,65.73368a.60182.60182,0,0,0,1.01064,0l3.83781-4.2547a4.8253,4.8253,0,0,0,1.05745-2.17786l4.91742-22.55083a4.21544,4.21544,0,0,0-.4544-3.09423L50.41653,19.5775C50.255,19.33694,50.09078,19.22935,49.99962,19.22935Z"/><path class="cls-5" d="M3.40618,21.06751s3.5547,1.22369,4.1616,3.33647S5.487,31.53276,5.487,31.53276Z"/><path class="cls-5" d="M17.27407,52.34168s.44428-2.48473,0-3.24444-1.88725-.94892-1.88725-.94892Z"/><path class="cls-8" d="M44.32765,57.05241S46.254,55.6208,47.438,50.03436,57.2574,41.753,57.2574,41.753l.39845-3.79664c.20132,1.68342-7.89957,7.442-9.37167,6.91218s-2.02476-2.51764-3.16366-5.23059c-.68891,2.9811,2.63218,5.90775,2.175,7.153s-1.59316,3.99234-2.09138,3.61976-.99522,2.74979-.99522,2.74979Z"/><path class="cls-6" d="M60.04739,21.98153s1.90131,3.48569,1.13395,5.29528,1.71191-2.05466,1.71191-2.05466Z"/><path class="cls-6" d="M38.63373,23.84221s.2946,2.76293-1.04714,3.4346-1.31876-1.31952-1.31876-1.31952S38.205,23.55031,38.63373,23.84221Z"/><path class="cls-5" d="M91.96074,33.26983s-2.81145-3.30244-2.08061-4.38073,2.97491,3.209,4.72,1.73829S91.96074,33.26983,91.96074,33.26983Z"/><path class="cls-6" d="M88.8512,16.76833l-2.47477-.7426c1.24992.681,3.38331-1.1952,4.22679-2.75687Z"/><path class="cls-6" d="M19.27293,45.0643s2.47567.04384,2.617.39629-1.548.91059-1.548.91059Z"/></g></svg>