<?xml version="1.0" encoding="UTF-8" standalone="no"?><!DOCTYPE svg PUBLIC "-//W3C//DTD SVG 1.1//EN" "http://www.w3.org/Graphics/SVG/1.1/DTD/svg11.dtd"><svg width="100%" height="100%" viewBox="0 0 300 345" version="1.1" xmlns="http://www.w3.org/2000/svg" xmlns:xlink="http://www.w3.org/1999/xlink" xml:space="preserve" xmlns:serif="http://www.serif.com/" style="fill-rule:evenodd;clip-rule:evenodd;stroke-linejoin:round;stroke-miterlimit:2;"><g id="Duck"><circle cx="150" cy="219.672" r="24.814" style="fill:#ba7900;"/><path d="M134.947,206.496c-1.367,0.782 -2.824,-1.262 -1.502,-2.496c9.45,-8.816 24.914,-9.742 34.491,1.098c1.447,1.637 -0.545,3.23 -2.253,2.196c-9.303,-5.636 -21.741,-5.948 -30.736,-0.798Z" style="fill:#ce8600;"/><path d="M150,206.091c8.765,0 15.556,3.376 19.585,9.937c11.518,3.256 22.105,7.379 20.048,23.274c-8.768,7.095 -21.625,10.547 -39.633,10.547c-18.008,0 -30.865,-3.452 -39.633,-10.547c-2.057,-15.895 8.53,-20.018 20.048,-23.274c4.029,-6.561 10.82,-9.937 19.585,-9.937Z" style="fill:#ffa600;"/><path d="M150,206.091c8.765,0 15.556,3.376 19.585,9.937c11.518,3.256 22.105,7.379 20.048,23.274c-8.768,7.095 -21.625,10.547 -39.633,10.547c-18.008,0 -30.865,-3.452 -39.633,-10.547c-2.057,-15.895 8.53,-20.018 20.048,-23.274c4.029,-6.561 10.82,-9.937 19.585,-9.937Zm0,2c-7.986,0 -14.209,3.005 -17.88,8.984l-0.409,0.665l-0.752,0.213c-7.46,2.109 -14.627,4.402 -17.526,10.758c-1.138,2.495 -1.584,5.603 -1.176,9.535c8.467,6.523 20.747,9.603 37.743,9.603c16.996,0 29.276,-3.08 37.743,-9.604c0.408,-3.931 -0.038,-7.039 -1.176,-9.534c-2.899,-6.356 -10.066,-8.649 -17.526,-10.758l-0.752,-0.213l-0.409,-0.665c-3.671,-5.979 -9.894,-8.984 -17.88,-8.984Z" style="fill:#ce8600;"/><path d="M143.115,244.991c-3.921,-0.425 -7.457,-1.321 -10.235,-3.142c-3.231,-2.118 -1.478,-5.034 2.094,-4.808c5.931,0.375 10.687,-1.005 13.758,-4.427c4.215,-4.697 8.173,-4.283 11.806,-0.667c2.168,2.158 2.533,4.113 9.378,4.047c7.018,-0.069 9.06,4.102 3.19,6.474c-7.615,3.077 -24.103,3.161 -29.991,2.523Z" style="fill:#ffb427;"/><path d="M139.295,216.054c1.805,0.47 2.553,3.607 1.67,7c-0.884,3.394 -3.067,5.768 -4.872,5.298c-1.805,-0.47 -2.553,-3.607 -1.67,-7.001c0.884,-3.394 3.067,-5.767 4.872,-5.297Zm21.41,-0c1.805,-0.47 3.988,1.903 4.872,5.297c0.883,3.394 0.135,6.531 -1.67,7.001c-1.805,0.47 -3.988,-1.904 -4.872,-5.298c-0.883,-3.393 -0.135,-6.53 1.67,-7Z" style="fill:#ce8600;"/></g></svg>