<?xml version="1.0" encoding="UTF-8" standalone="no"?>
<!DOCTYPE svg PUBLIC "-//W3C//DTD SVG 1.1//EN" "http://www.w3.org/Graphics/SVG/1.1/DTD/svg11.dtd">
<svg width="100%" height="100%" viewBox="0 0 300 345" version="1.1" xmlns="http://www.w3.org/2000/svg" xmlns:xlink="http://www.w3.org/1999/xlink" xml:space="preserve" xmlns:serif="http://www.serif.com/" style="fill-rule:evenodd;clip-rule:evenodd;stroke-linejoin:round;stroke-miterlimit:2;">
    <g id="Rabbit">
        <path id="nose" d="M171.034,233.643L183.364,243.344C184.015,243.856 184.959,243.743 185.471,243.093C185.982,242.442 185.87,241.498 185.219,240.986L172.889,231.285C172.238,230.773 171.295,230.886 170.783,231.537C170.271,232.187 170.383,233.131 171.034,233.643ZM127.111,231.285L114.781,240.986C114.13,241.498 114.018,242.442 114.529,243.093C115.041,243.743 115.985,243.856 116.636,243.344L128.966,233.643C129.617,233.131 129.729,232.187 129.217,231.537C128.705,230.886 127.762,230.773 127.111,231.285ZM133.31,223.199C133.31,230.283 142.999,236.93 150,236.93C157.001,236.93 166.69,229.402 166.69,223.199C166.69,216.996 133.31,216.115 133.31,223.199ZM172.904,229.455L185.742,229.455C186.57,229.455 187.242,228.783 187.242,227.955C187.242,227.127 186.57,226.455 185.742,226.455L172.904,226.455C172.077,226.455 171.404,227.127 171.404,227.955C171.404,228.783 172.077,229.455 172.904,229.455ZM127.096,226.455L114.258,226.455C113.43,226.455 112.758,227.127 112.758,227.955C112.758,228.783 113.43,229.455 114.258,229.455L127.096,229.455C127.923,229.455 128.596,228.783 128.596,227.955C128.596,227.127 127.923,226.455 127.096,226.455ZM128.966,221.498L116.636,211.797C115.985,211.285 115.041,211.398 114.529,212.048C114.018,212.699 114.13,213.643 114.781,214.155L127.111,223.856C127.762,224.367 128.705,224.255 129.217,223.604C129.729,222.953 129.617,222.01 128.966,221.498ZM172.889,223.856L185.219,214.155C185.87,213.643 185.982,212.699 185.471,212.048C184.959,211.398 184.015,211.285 183.364,211.797L171.034,221.498C170.383,222.01 170.271,222.953 170.783,223.604C171.295,224.255 172.238,224.367 172.889,223.856Z" style="fill:#343434;"/>
    </g>
</svg>
