<?xml version="1.0" encoding="UTF-8" standalone="no"?><!DOCTYPE svg PUBLIC "-//W3C//DTD SVG 1.1//EN" "http://www.w3.org/Graphics/SVG/1.1/DTD/svg11.dtd"><svg width="100%" height="100%" viewBox="0 0 300 345" version="1.1" xmlns="http://www.w3.org/2000/svg" xmlns:xlink="http://www.w3.org/1999/xlink" xml:space="preserve" xmlns:serif="http://www.serif.com/" style="fill-rule:evenodd;clip-rule:evenodd;stroke-linejoin:round;stroke-miterlimit:2;"><g id="Seal"><path d="M150,240.674l-2.539,1.727c-3.46,6.302 -9.338,9.61 -17.881,9.62c-10.632,0.011 -23.074,-8.635 -23.782,-18.563c-0.686,-9.613 0.676,-15.968 8.941,-20.287c3.968,-2.073 8.276,-2.995 12.753,-2.995l45.016,-0c4.477,-0 8.785,0.922 12.753,2.995c8.265,4.319 9.627,10.674 8.941,20.287c-0.708,9.928 -13.15,18.574 -23.782,18.563c-8.543,-0.01 -14.421,-3.318 -17.881,-9.62l-2.539,-1.727Z" style="fill:#414042;"/><path d="M150,240.674l-2.539,1.727c-3.46,6.302 -9.338,9.61 -17.881,9.62c-10.632,0.011 -23.074,-8.635 -23.782,-18.563c-0.126,-1.773 -0.183,-3.436 -0.14,-4.996c0.023,0.905 0.071,1.841 0.14,2.81c0.708,9.928 13.15,18.574 23.782,18.562c8.543,-0.009 14.421,-3.317 17.881,-9.62l2.539,-1.726l2.539,1.726c3.46,6.303 9.338,9.611 17.881,9.62c10.632,0.012 23.074,-8.634 23.782,-18.562c0.069,-0.969 0.117,-1.905 0.14,-2.81c0.043,1.56 -0.014,3.223 -0.14,4.996c-0.708,9.928 -13.15,18.574 -23.782,18.563c-8.543,-0.01 -14.421,-3.318 -17.881,-9.62l-2.539,-1.727Z" style="fill:#383838;"/><path d="M131.06,213.563c2.849,5.693 6.867,10.929 12.102,13.964c-0,-0 -0.001,11.13 -0.001,11.13c-2.571,3.779 -6.687,5.598 -12.314,5.604c-5.021,0.005 -10.527,-2.508 -14.271,-6.155c-2.142,-2.086 -3.754,-4.549 -3.945,-7.231c-0.498,-6.979 -0.038,-11.815 5.963,-14.951c3.163,-1.652 6.603,-2.361 10.172,-2.361l2.294,-0Zm-4.339,10.72c-1.017,0 -1.843,0.826 -1.843,1.844c-0,1.018 0.826,1.844 1.843,1.844c1.018,-0 1.844,-0.826 1.844,-1.844c0,-1.018 -0.826,-1.844 -1.844,-1.844Zm2.411,11.062c-1.017,-0 -1.843,0.826 -1.843,1.843c-0,1.018 0.826,1.844 1.843,1.844c1.018,0 1.844,-0.826 1.844,-1.844c0,-1.017 -0.826,-1.843 -1.844,-1.843Zm7.423,-5.626c-1.018,-0 -1.844,0.826 -1.844,1.843c-0,1.018 0.826,1.844 1.844,1.844c1.017,0 1.843,-0.826 1.843,-1.844c0,-1.017 -0.826,-1.843 -1.843,-1.843Zm32.385,-16.156l2.294,-0c3.569,-0 7.009,0.709 10.172,2.361c6.001,3.136 6.461,7.972 5.963,14.951c-0.191,2.682 -1.803,5.145 -3.945,7.231c-3.744,3.647 -9.25,6.16 -14.271,6.155c-5.627,-0.006 -9.743,-1.825 -12.314,-5.604c-0,0 -0.001,-11.13 -0.001,-11.13c5.235,-3.035 9.253,-8.271 12.102,-13.964Zm1.928,21.782c-1.018,-0 -1.844,0.826 -1.844,1.843c-0,1.018 0.826,1.844 1.844,1.844c1.017,0 1.843,-0.826 1.843,-1.844c0,-1.017 -0.826,-1.843 -1.843,-1.843Zm2.411,-11.062c-1.018,0 -1.844,0.826 -1.844,1.844c-0,1.018 0.826,1.844 1.844,1.844c1.017,-0 1.843,-0.826 1.843,-1.844c0,-1.018 -0.826,-1.844 -1.843,-1.844Zm-9.834,5.436c-1.017,-0 -1.843,0.826 -1.843,1.843c-0,1.018 0.826,1.844 1.843,1.844c1.018,0 1.844,-0.826 1.844,-1.844c0,-1.017 -0.826,-1.843 -1.844,-1.843Z" style="fill:#515151;"/><path d="M67.912,241.63c-0.212,-0.368 -0.048,-0.717 0.118,-0.894c-0,-0 1.169,-0.993 2.504,-2.041c3.754,-2.947 16.67,-12.914 33.46,-13.741c1.098,-0.054 13.702,-0.667 13.721,-0.668c0.82,-0.04 3.001,0.361 3.001,2.999c-0,2.637 -2.217,2.984 -2.979,3.001c-1.142,0.025 -1.131,-0.285 -14.264,-0.58c-9.316,-0.209 -20.789,2.447 -34.143,11.674c-0.48,0.332 -0.477,0.331 -0.525,0.366c-0.292,0.213 -0.716,0.191 -0.893,-0.116Zm7.457,25.863c-0.366,-0.225 -0.286,-0.664 -0.166,-0.886c0.001,-0 0.805,-1.306 1.75,-2.716c2.657,-3.965 11.853,-17.441 27.562,-23.425c1.027,-0.392 12.822,-4.877 12.84,-4.883c0.793,-0.292 3.052,-0.584 3.782,1.922c0.763,2.619 -1.184,3.525 -1.904,3.776c-1.078,0.377 -1.163,0.079 -13.742,3.865c-8.923,2.686 -19.01,8.763 -28.851,21.671c-0.354,0.464 -0.348,0.465 -0.386,0.51c-0.194,0.224 -0.533,0.383 -0.885,0.166Zm156.719,-25.863c-0.177,0.307 -0.601,0.329 -0.893,0.116c-0.048,-0.035 -0.045,-0.034 -0.525,-0.366c-13.354,-9.227 -24.827,-11.883 -34.143,-11.674c-13.133,0.295 -13.122,0.605 -14.264,0.58c-0.762,-0.017 -2.979,-0.364 -2.979,-3.001c0,-2.638 2.181,-3.039 3.001,-2.999c0.019,0.001 12.623,0.614 13.721,0.668c16.79,0.827 29.706,10.794 33.46,13.741c1.335,1.048 2.504,2.041 2.504,2.041c0.166,0.177 0.33,0.526 0.118,0.894Zm-7.457,25.863c-0.352,0.217 -0.691,0.058 -0.885,-0.166c-0.038,-0.045 -0.032,-0.046 -0.386,-0.51c-9.841,-12.908 -19.928,-18.985 -28.851,-21.671c-12.579,-3.786 -12.664,-3.488 -13.742,-3.865c-0.72,-0.251 -2.667,-1.157 -1.904,-3.776c0.73,-2.506 2.989,-2.214 3.782,-1.922c0.018,0.006 11.813,4.491 12.84,4.883c15.709,5.984 24.905,19.46 27.562,23.425c0.945,1.41 1.749,2.716 1.75,2.716c0.12,0.222 0.2,0.661 -0.166,0.886Z" style="fill:#231f20;"/><path d="M155.67,203.899c4.529,0.056 9.482,1.123 10.257,3.554c0.353,1.107 0.587,3.172 -0.499,5.401c-2.842,5.829 -6.977,11.333 -12.889,13.297l-0,16.25l-5.078,-0l0,-16.25c-5.912,-1.964 -10.047,-7.468 -12.889,-13.297c-1.086,-2.229 -0.852,-4.294 -0.499,-5.401c0.775,-2.431 5.728,-3.498 10.257,-3.554l11.34,-0Z" style="fill:#231f20;"/><path d="M150.789,212.282c-2.969,-2.803 -0.601,-4.259 2.572,-4.161l4.009,0.076c2.881,0.145 4.497,1.685 3.177,3.517c-1.624,2.253 -3.381,4.341 -5.409,6.089c-0.875,0.756 -2.85,1.487 -2.723,-0.264c0.246,-3.399 -0.464,-4.16 -1.626,-5.257Z" style="fill:#383838;"/></g></svg>