<?xml version="1.0" encoding="UTF-8" standalone="no"?><!DOCTYPE svg PUBLIC "-//W3C//DTD SVG 1.1//EN" "http://www.w3.org/Graphics/SVG/1.1/DTD/svg11.dtd"><svg width="100%" height="100%" viewBox="0 0 300 345" version="1.1" xmlns="http://www.w3.org/2000/svg" xmlns:xlink="http://www.w3.org/1999/xlink" xml:space="preserve" xmlns:serif="http://www.serif.com/" style="fill-rule:evenodd;clip-rule:evenodd;stroke-linejoin:round;stroke-miterlimit:2;"><path id="RoundNose" d="M124.884,230.777c-1.567,-2.557 -2.308,-5.45 -2.308,-8.426c0,-4.788 2.09,-9.26 5.794,-12.85c4.889,-4.739 12.735,-7.941 21.63,-7.941c8.895,-0 16.741,3.202 21.63,7.941c3.704,3.59 5.794,8.062 5.794,12.85c-0,2.735 -0.705,5.356 -1.958,7.791c-2.402,4.667 -10.812,0.445 -8.317,-3.58c0.802,-1.293 1.275,-2.707 1.275,-4.211c-0,-2.405 -1.197,-4.584 -3.058,-6.387c-3.456,-3.35 -9.078,-5.404 -15.366,-5.404c-6.288,-0 -11.91,2.054 -15.366,5.404c-1.861,1.803 -3.058,3.982 -3.058,6.387c0,1.649 0.475,3.257 1.517,4.58c3.561,4.523 -4.773,9.448 -8.209,3.846Z" style="fill:#cd8e2a;"/></svg>