<?xml version="1.0" encoding="UTF-8"?>
<svg id="Layer_1" data-name="Layer 1" xmlns="http://www.w3.org/2000/svg" xmlns:xlink="http://www.w3.org/1999/xlink" viewBox="0 0 300 345">
  <defs>
    <style>
      .cls-1 {
        fill: #efc01e;
      }

      .cls-2 {
        fill: #2b292f;
      }

      .cls-3 {
        fill: #fff;
      }

      .cls-4 {
        fill: #ffd86c;
      }

      .cls-5, .cls-6, .cls-7, .cls-8 {
        fill-rule: evenodd;
      }

      .cls-5, .cls-9 {
        fill: #4e455d;
      }

      .cls-10 {
        fill: #cdcbd2;
      }

      .cls-11 {
        fill: rgba(168, 162, 177, .62126);
      }

      .cls-12 {
        opacity: .29;
      }

      .cls-12, .cls-13 {
        fill: #201d21;
      }

      .cls-12, .cls-13, .cls-8 {
        isolation: isolate;
      }

      .cls-6, .cls-14 {
        fill: #9f99a9;
      }

      .cls-15 {
        fill: #827b8b;
      }

      .cls-16 {
        fill: #c41d10;
      }

      .cls-17 {
        fill: #b8b5be;
        stroke: #b8b5be;
        stroke-linejoin: round;
      }

      .cls-18 {
        fill: #6a6376;
      }

      .cls-13 {
        opacity: .59637;
      }

      .cls-19 {
        fill: #c9c6cf;
      }

      .cls-20 {
        fill: #dd2a17;
      }

      .cls-21 {
        fill: #3b3841;
      }

      .cls-7, .cls-22 {
        fill: #bcb6c3;
      }

      .cls-23 {
        fill: #655d6e;
      }

      .cls-8 {
        fill: #0b0b0b;
        opacity: .5941;
      }

      .cls-24 {
        fill: #aaa5b0;
      }

      .cls-9 {
        opacity: .43;
      }

      .cls-25 {
        fill: #766f7e;
      }

      .cls-26 {
        fill: url(#linear-gradient);
      }

      .cls-27 {
        fill: #3e3649;
      }

      .cls-28 {
        fill: #f91069;
        opacity: .57;
      }
    </style>
    <linearGradient id="linear-gradient" x1="150" y1="-10.10999" x2="150" y2="184.84" gradientTransform="translate(0 346) scale(1 -1)" gradientUnits="userSpaceOnUse">
      <stop offset="0" stop-color="#d82412"/>
      <stop offset=".58238" stop-color="#6d0f04"/>
    </linearGradient>
  </defs>
  <path id="path9601" class="cls-5" d="M239.49072,26.68744c28.07697-.50089,45.9525,20.80776,54.78999,42.07057,8.75753,21.0704,7.7164,52.09465-8.74837,67.89237-11.11598,10.66563-18.84831,26.15151-46.04163,4.0067-25.01716-20.37269-42.00313-20.23998-50.53324-50.53325-8.51918-30.2543,13.66631-62.77869,50.53324-63.43639Z"/>
  <path id="path9603" class="cls-27" d="M226,84.1875c24.429,8.58226,48.85809,33.96958,73.28711,21.08398-1.30371,12.14477-5.6535,23.60667-13.75391,31.37891-11.11597,10.66562-18.84967,26.15063-46.04297,4.00586-4.79446-3.90437-9.2887-7.0481-13.49023-9.80469v-46.66406Z"/>
  <path id="path9605" class="cls-7" d="M251.27348,51.30984c23.56429-.2425,42.61686,30.34084,35.97007,58.58885-4.847,20.5991-15.17094,38.60551-33.32595,40.59353-4.52837-2.43734-9.34322-5.69529-14.42687-9.83513-6.33464-5.15862-12.1447-8.99626-17.44258-12.35228-2.91805-5.72777-5.54682-12.01021-8.19751-18.40611-10.35983-24.9975,7.276-53.37562,32.65559-58.12016,1.60479-.3,3.1963-.45253,4.76725-.4687Z"/>
  <path id="path321" class="cls-5" d="M60.50928,26.68744c-28.07697-.50089-45.9525,20.80776-54.78999,42.07057C-3.03824,89.82841-1.99711,120.85266,14.46765,136.65037c11.11598,10.66563,18.84831,26.15151,46.04163,4.0067,25.01716-20.37269,42.00313-20.23998,50.53324-50.53325,8.51918-30.2543-13.66631-62.77869-50.53324-63.43639Z"/>
  <path id="rect8926" class="cls-27" d="M74,84.1875C49.571,92.76976,25.1419,118.15708,.71289,105.27148c1.30371,12.14478,5.6535,23.60668,13.75391,31.37891,11.11597,10.66562,18.84968,26.15063,46.04297,4.00586,4.79447-3.90437,9.2887-7.0481,13.49023-9.80469v-46.66406Z"/>
  <path id="path2334" class="cls-7" d="M48.72653,51.30984c-23.56429-.2425-42.61686,30.34084-35.97007,58.58885,4.847,20.5991,15.17094,38.60551,33.32595,40.59353,4.52837-2.43734,9.34322-5.69529,14.42687-9.83513,6.33464-5.15862,12.1447-8.99626,17.44258-12.35228,2.91805-5.72777,5.54682-12.01021,8.19751-18.40611,10.35983-24.9975-7.276-53.37562-32.65559-58.12016-1.60479-.3-3.1963-.45253-4.76725-.4687Z"/>
  <path id="path60893" class="cls-26" d="M263.62,345H36.38C16.28788,345,0,328.71213,0,308.62h0v-49.48001H300v49.48001c0,20.09213-16.28787,36.38-36.38,36.38h0Z"/>
  <path class="cls-1" d="M299.72998,266.45001v67.76001c-6.67993,0-10.5-3.80005-12.66992-8.67004-.89014,2.30005-2.41003,4.39001-4.83008,6-7.32996,4.87-11.31006-5.41998-13.26001-13.78998-1.05005,1.84003-3.01001,3.87-6.32996,6.01001-13.25,8.54999-10.16003-25.37-10.16003-25.37l.01001-.01001h11.13c18.57996,0,33.91003-13.94,36.10999-31.92999Z"/>
  <path id="path60895" class="cls-15" d="M150,86.27344c-6.31537,.01274-12.6235,.36632-18.88672,1.05859-1.95872,.27221-3.91093,.57761-5.85547,.91602-4.27935,.56395-8.52811,1.28598-12.73437,2.16406-2.28007,.55626-4.54437,1.15865-6.79102,1.80664-3.78294,.95701-7.52022,2.04118-11.20312,3.25-2.32124,.83392-4.61754,1.71767-6.88672,2.65039-3.47628,1.32722-6.89217,2.76707-10.24023,4.31641-2.24107,1.09114-4.44884,2.23149-6.62109,3.41992-3.19215,1.67825-6.30957,3.45815-9.3457,5.33594-2.0957,1.3296-4.15044,2.70572-6.16211,4.12695-2.89345,2.01085-5.69813,4.11322-8.4082,6.30273-1.88538,1.52986-3.72388,3.10136-5.51367,4.71289-2.58459,2.33483-5.06551,4.75191-7.4375,7.2461-1.63155,1.68971-3.21215,3.41489-4.74023,5.17383-2.24233,2.64392-4.36562,5.36009-6.36523,8.14256-1.02211,1.29555-2.01642,2.60698-2.98242,3.93359-.40917,.66168-.81152,1.32642-1.20703,1.99414-.50396,.69774-1.00008,1.3996-1.48828,2.10547,.05419,.01019,.13458,.0289,.18945,.03909-1.83254,2.94923-3.52915,5.95871-5.08594,9.02148-.54285,1.10175-1.06764,2.20993-1.57422,3.32422-.79775,1.58952-1.55767,3.19272-2.2793,4.80859,.0835,.0419,.22189,.11369,.30664,.15625-1.87713,4.50557-3.45773,9.09738-4.73438,13.75389-1.27677,4.65569-2.24768,9.36879-2.9082,14.11719-.66038,4.74915-1.00924,9.52614-1.04492,14.30859v47.54102c0,20.09207,16.2888,36.38086,36.38086,36.38086h227.23828c20.09207,0,36.38086-16.28879,36.38086-36.38086v-47.54102c-.00369-6.09109-.51541-12.17421-1.53125-18.20312-1.01514-6.02994-2.53201-11.99036-4.53906-17.83594-2.00769-5.84473-4.50034-11.55974-7.45898-17.10156-.10297-.18837-.20648-.37651-.31055-.56445-1.06149-1.964-2.181-3.90472-3.35742-5.82031,.008-.00101,.0195-.002,.0274-.004-.08051-.11469-.16125-.22928-.24219-.34375-.68213-1.11357-1.38336-2.21851-2.10352-3.31445-.14362-.24258-.28815-.48477-.43359-.72656v-.00999c-.02145,.00266-.04294,.00533-.06439,.008-2.03226-3.02979-4.20856-5.98734-6.52344-8.86523-3.35379-4.14163-6.9903-8.11075-10.89062-11.8867-.17264-.17096-.34583-.34154-.51953-.51172-3.86505-3.7122-7.97943-7.2292-12.32227-10.53321-.20653-.15543-.41356-.31038-.62109-.46484-4.37946-3.30419-8.98105-6.38691-13.78127-9.23242-.0527-.03323-.10544-.06643-.1582-.0996-4.81175-2.82565-9.81245-5.40882-14.97656-7.73633-.31386-.14288-.62831-.28481-.94336-.42578-5.14508-2.29572-10.44174-4.3343-15.86328-6.10547-.17177-.05366-.34364-.10704-.51562-.16016-5.3765-1.72804-10.8647-3.19073-16.4375-4.38086-.29533-.06653-.5909-.13228-.8867-.19727-5.57794-1.15952-11.22917-2.04443-16.9258-2.65039-.39825-.04043-.79669-.07949-1.19531-.11719-5.7832-.58959-11.60168-.89084-17.42589-.90222Z"/>
  <path class="cls-1" d="M.27002,266.45001v67.76001c6.67993,0,10.5-3.80005,12.66992-8.67004,.89014,2.30005,2.41003,4.39001,4.83008,6,7.32996,4.87,11.31006-5.41998,13.26001-13.78998,1.05005,1.84003,3.01001,3.87,6.32996,6.01001,13.25,8.54999,10.16003-25.37,10.16003-25.37l-.01001-.01001h-11.13c-18.57996,0-33.91003-13.94-36.10999-31.92999Z"/>
  <path id="path9607" class="cls-6" d="M219.7887,68.75802c1.89336,7.23653,7.40717,22.75718,21.43169,31.40129,7.71854,4.75738,15.72279,6.21934,21.60616-1.52613,4.64703-6.11784,16.48871-15.43816,23.04825-17.07285,2.86102,8.85225,3.63245,18.71789,1.36874,28.33836-2.95096,12.54123-7.94717,24.09598-15.4931,31.67899-1.46704-1.99937-3.00137-3.96213-4.60107-5.88577-1.46094-1.68166-2.97211-3.33104-4.53198-4.9465-2.26779-2.38461-4.63971-4.69549-7.11073-6.92774-1.71117-1.54072-3.46889-3.04318-5.27142-4.50582-2.591-2.09332-5.27246-4.10332-8.03879-6.02583-1.92328-1.35879-3.88776-2.67445-5.89137-3.94563-2.90298-1.7949-5.88319-3.497-8.93509-5.10152-2.07681-1.13621-4.18761-2.22645-6.3302-3.26965-3.20097-1.48128-6.46678-2.85787-9.79033-4.12677-.11754-.0456-.23518-.0911-.35291-.13632-.48688-10.09254,2.90175-19.97297,8.89215-27.9481l.00002,.00002Z"/>
  <path id="path9609" class="cls-22" d="M291.88327,83.15797c-27.15005,1.56536-29.39389,14.64867-48.77991,14.32693l-2.15092-16.73478c21.64088-5.38925,23.58-15.52075,50.93083,2.40785Z"/>
  <path id="path9611" class="cls-14" d="M248.11731,135.12865c10.00897-26.83365-16.14442-36.33967-28.44882-47.08353l-8.07391,9.3476c19.87915,14.59808,33.14767,28.18299,36.52274,37.73592Z"/>
  <g>
    <path id="circle69376" class="cls-10" d="M96.69746,203.20139c-11.5744,29.49426-17.39989,57.36902-38.86374,57.36902s-38.21376-25.69167-38.86374-57.36903c-.74139-36.13235,42.59837-69.46071,65.41481-60.58734,22.55801,8.77286,23.49284,32.09764,12.31266,60.58734v.00002Z"/>
    <path id="path78725" class="cls-10" d="M203.30254,203.20139c11.5744,29.49426,17.39989,57.36902,38.86374,57.36902s38.21376-25.69167,38.86372-57.36903c.74139-36.13235-42.59837-69.46071-65.41481-60.58734-22.558,8.77286-23.49284,32.09764-12.31267,60.58734l.00002,.00002Z"/>
    <path id="path78727" class="cls-23" d="M205.71626,214.9021c0,21.46385,17.39989,38.86372,38.86374,38.86372s38.86372-17.39989,38.86372-38.86372-17.39987-38.86374-38.86372-38.86374-38.86374,17.39989-38.86374,38.86374h0Z"/>
    <circle id="circle70730" class="cls-25" cx="55.42" cy="214.9021" r="38.86374"/>
    <g>
      <g>
        <circle id="circle68084" class="cls-10" cx="54.22458" cy="228.92499" r="38.86374"/>
        <circle id="circle64330" class="cls-3" cx="55.42" cy="220.9021" r="38.86374"/>
        <path id="path1890" class="cls-2" d="M91.71771,219.32154c0,18.57942-15.0616,33.64102-33.64102,33.641-18.57942,0-33.64102-15.0616-33.64102-33.64102s15.0616-33.641,33.64102-33.641c1.57341,.00385,3.14478,.11384,4.7034,.32924-6.35141,8.62177-4.51092,20.75993,4.11085,27.11134,7.23977,5.33333,17.19641,4.98925,24.05073-.83113,.50389,2.31027,.76399,4.66704,.77605,7.03159v-.00002Zm-39.76718,13.95733c0-4.42244-3.5851-8.00753-8.00754-8.00751-4.42243,0-8.00753,3.5851-8.00749,8.00753,0,4.42244,3.58507,8.00753,8.00753,8.00753,.0039,0,.00782-.00002,.01173-.00002,4.40945,.00652,7.98929-3.56275,7.99581-7.9722,.00002-.01176,0-.02354-.00003-.03532Z"/>
      </g>
      <g>
        <path id="path78723" class="cls-10" d="M206.9117,228.92499c0,21.46385,17.39987,38.86374,38.86372,38.86374s38.86374-17.39989,38.86374-38.86372v-.00002c0-21.46385-17.39987-38.86374-38.86372-38.86374h-.00002c-21.46385,0-38.86374,17.39989-38.86374,38.86374h.00002Z"/>
        <path id="path78729" class="cls-3" d="M205.71626,220.9021c0,21.46385,17.39989,38.86374,38.86374,38.86374h0c21.46385,0,38.86372-17.39989,38.86372-38.86374s-17.39987-38.86374-38.86372-38.86374-38.86374,17.39989-38.86374,38.86374h0Z"/>
        <path id="path1892" class="cls-2" d="M275.56433,219.32154c0,18.57942-15.0616,33.64102-33.64102,33.641-18.57942,0-33.64102-15.0616-33.64102-33.64102s15.0616-33.641,33.64102-33.641c1.57341,.00385,3.14478,.11384,4.7034,.32924-6.35141,8.62177-4.51092,20.75993,4.11085,27.11134,7.23977,5.33333,17.19641,4.98925,24.05073-.83113,.50389,2.31027,.76399,4.66704,.77605,7.03159v-.00002Zm-39.76718,13.95733c0-4.42244-3.5851-8.00753-8.00754-8.00751-4.42243,0-8.00753,3.5851-8.00749,8.00753,0,4.42244,3.58507,8.00753,8.00753,8.00753,.0039,0,.00782-.00002,.01173-.00002,4.40945,.00652,7.98929-3.56275,7.99581-7.9722,.00002-.01176,0-.02354-.00003-.03532Z"/>
      </g>
    </g>
  </g>
  <path id="path9613" class="cls-18" d="M271.71869,71.90818c1.80127-.06915,3.59631,.06364,5.35172,.39587,3.5715,.73557,6.9245,2.20425,9.85196,4.31536,1.46048,1.03041,2.80966,2.20758,4.0278,3.51428,.61017,.6534,1.18546,1.33897,1.72354,2.05405,.55411,.73116,1.05215,1.50445,1.49011,2.3136l2.15115,3.0848-4.10995-.67596c-.20953-.03142-.55496-.07443-.87766-.12698-.32266-.05255-.64035-.05118-.97101-.09897-.33063-.04781-.64761-.03179-.99155-.05602-.3439-.02419-.66418-.03632-1.00461-.02614l-1.00647,.0019c-.33957,.03053-.67422,.04177-1.01022,.05975-.65781-.01423-1.35617,.11514-2.03351,.16993-2.75363,.38409-5.46973,1.06593-8.1004,2.03351l-1.98495,.77307c-.64658,.25022-1.29291,.56704-1.94574,.8627l-.96912,.43322c-.32819,.15411-.64044,.34569-.95981,.51538l-1.89719,1.04383c-.89944,.5144-1.80292,1.03517-2.68707,1.59842,3.58936,2.72266,6.29807,6.44009,7.7923,10.69411,1.52911,4.53106,2.06281,9.34327,1.56482,14.10943-.45523,4.69737-1.49335,9.3228-3.09039,13.76956-.77484,2.2242-1.69815,4.39458-2.76364,6.49638-1.0726,2.12088-2.32654,4.14577-3.74771,6.05196l-3.35742,5.91193-1.62643-7.0547-1.30151-5.7812c-.45273-1.92114-.92685-3.86757-1.46396-5.78868-.94705-3.49496-2.08089-6.93574-3.39664-10.30756-.14621,2.32589-.5618,4.63693-1.24178,6.90532-.45541,1.57137-1.04681,3.11725-1.7702,4.6272-.72856,1.52371-1.62636,2.99568-2.68333,4.39938l-2.35468,4.27428-2.14555-4.67761-1.731-3.83546c-.59306-1.27332-1.20749-2.56291-1.87479-3.82986-1.30038-2.5451-2.79373-5.02859-4.47221-7.43751-.87512-1.19582-1.7914-2.35927-2.7935-3.49561-.99934-1.13747-2.08296-2.22918-3.24539-3.26967-1.17909-1.04949-2.444-2.03934-3.78691-2.96343-1.38469-.93018-2.8448-1.7909-4.37138-2.5769,1.79727,.36938,3.54106,.87994,5.20421,1.52373,1.68947,.68914,3.29776,1.49141,4.80646,2.39764,3.01854,1.84474,5.69186,4.00465,7.94356,6.41796,2.27119,2.39453,4.1908,4.97738,5.72331,7.70079,.46886,.85101,.89984,1.71422,1.29219,2.5881,.42126-.96246,.8343-1.92567,1.21562-2.88687,1.19002-2.81567,1.99426-5.72037,2.39951-8.6662,.26218-1.83851,.22893-3.69508-.099-5.52725-.64005-1.11565-1.32146-2.20692-2.04285-3.27154-1.14806-1.66828-2.40234-3.26064-3.75516-4.76725-1.39871-1.52164-2.89375-2.95181-4.47597-4.28175,1.58591,.62853,3.11615,1.38804,4.57492,2.27066,1.99454,1.05038,3.7336,2.36526,5.13698,3.88401,.29414,.2537,.58423,.51203,.87016,.77493,3.08035,3.05045,5.72037,6.51559,7.8446,10.29637,2.14923,3.75596,3.87216,7.74172,5.13699,11.88358,.38403,1.29361,.72348,2.60027,1.0177,3.91763,.63419-1.34503,1.25766-2.69273,1.84677-4.04086,1.80765-3.93879,3.19711-8.05456,4.14545-12.27945,.98016-4.19703,1.12231-8.54206,.41827-12.7855-.38666-2.13734-1.05997-4.2113-2.00177-6.16587-.93503-1.84673-2.08649-3.57489-3.43024-5.14819-.32745,.21002-.65253,.42563-.97287,.64983-1.21307,.84895-2.42035,1.70502-3.67673,2.54328h-.00201c.97665-1.12854,1.98257-2.24173,3.01758-3.34249l1.6713-1.52938,.87576-.75813c.27356-.26254,.56363-.50709,.86829-.73199l1.81503-1.43223c.30261-.22749,.59854-.47712,.92059-.6797l.96729-.61248c.64587-.41144,1.29037-.83691,1.94949-1.22496l2.05219-1.05877c2.79477-1.39793,5.77115-2.36111,8.82306-2.85513,.77139-.11835,1.54675-.19627,2.32294-.23341l1.17267-.05415,1.05878,.03734c-.07629-.0798-.14944-.16172-.22595-.24088-1.11533-1.14532-2.29803-2.22267-3.5423-3.22672-1.24319-.99673-2.56964-1.88665-3.96616-2.66092-1.40891-.76052-2.89349-1.37962-4.43301-1.84864-3.14786-.91403-6.479-1.14874-9.77911-.68904-.84082,.1095-1.67725,.2622-2.50592,.45749-.84015,.16235-1.64795,.42018-2.48727,.64983s-1.63785,.56998-2.46484,.84962l-2.42752,1.00648c2.96783-2.00803,6.23248-3.51187,9.65588-4.44794,1.75775-.46767,3.55405-.73888,5.35547-.80855l-.00003,.00002Z"/>
  <path id="rect4994" class="cls-17" d="M104.91211,248.32031s-.88653,27.99603-9.05664,38.23242c-5.54505,6.94745-43.44705,11.73593-43.7984,11.82812H117.42773l-12.51562-50.06055Zm90.17578,0l-12.51562,50.06055h65.80417c-.35135-.09219-38.68686-4.88068-44.2319-11.82812-8.1701-10.23639-9.05664-38.23242-9.05664-38.23242Z"/>
  <path id="rect77087" class="cls-10" d="M115.57124,214.98697h69.41774s32.23027,43.35016,22.66702,64.11609c-8.42883,18.30264-36.65958,29.57446-59.50093,29.31021-21.82429-.2525-48.26731-11.70197-55.95921-29.31021-9.15843-20.96542,23.37537-64.11609,23.37537-64.11609Z"/>
  <path class="cls-15" d="M215.46997,270.33002v53.71997c0,1.01001-.08997,1.98999-.27002,2.95001-1.37988,7.77002-8.16992,13.66998-16.33997,13.66998H98.59998c-8.16003,0-14.95996-5.89996-16.33997-13.66998-.17993-.96002-.27002-1.94-.27002-2.95001v-53.71997c0-1.34003,.16003-2.65002,.45996-3.90002,1.75-7.29999,8.32007-12.71997,16.15002-12.71997h100.26001c7.82996,0,14.39001,5.41998,16.14001,12.70996,.31006,1.25,.46997,2.56,.46997,3.91003Z"/>
  <rect class="cls-24" x="119.86354" y="295.93291" width="26.35605" height="40.26338" rx="13.17801" ry="13.17801"/>
  <ellipse class="cls-15" cx="244.57999" cy="259.13998" rx="26.14254" ry="43.16102" transform="translate(-65.14772 435.32639) rotate(-76.28874)"/>
  <ellipse class="cls-28" cx="249.29535" cy="262.29999" rx="19.14525" ry="31.60858" transform="translate(-64.62 442.31837) rotate(-76.28874)"/>
  <ellipse class="cls-15" cx="55.42001" cy="259.13998" rx="43.16102" ry="26.14254" transform="translate(-59.84436 20.52097) rotate(-13.71126)"/>
  <ellipse class="cls-28" cx="50.70465" cy="262.29999" rx="31.60858" ry="19.14525" transform="translate(-60.72775 19.49335) rotate(-13.71126)"/>
  <rect class="cls-24" x="88.03455" y="291.27686" width="26.35605" height="40.26338" rx="13.17801" ry="13.17801"/>
  <rect class="cls-24" x="151.69252" y="295.93291" width="26.35605" height="40.26338" rx="13.17801" ry="13.17801" transform="translate(329.74109 632.12919) rotate(180)"/>
  <rect class="cls-24" x="183.07338" y="291.27686" width="26.35605" height="40.26338" rx="13.17801" ry="13.17801" transform="translate(392.50282 622.8171) rotate(-180)"/>
  <path class="cls-12" d="M81.98999,288.61326v32.33148c0,1.01001,.09009,1.98999,.27002,2.95001,13.44995,.32001,30.79004-1.77002,49.52002-10.12,0,0,4.58997,5.71002,16.94995,5.71002s16.94995-5.71002,16.94995-5.71002c18.72998,8.34998,36.07007,10.44,49.52002,10.12,.18005-.96002,.27002-1.94,.27002-2.95001v-32.33148H81.98999Z"/>
  <path class="cls-19" d="M275.31006,269.79999c-2.8501,9.25-16.68005,34.04004-30.02002,33.56-9.59009-.32996-15.44995-4.37-17.97998-6.60999,3.5,3.53998,12.44995,12.23999,15.10986,11.85999,3.34009-.48999-32.8999,14.29999-76.73999-5.25,0,0-4.58984,5.71002-16.94995,5.71002s-16.94995-5.71002-16.94995-5.71002c-43.84009,19.54999-80.08002,4.76001-76.73004,5.25,2.65002,.38,11.60004-8.32001,15.10992-11.85999-2.53992,2.23999-8.3999,6.28003-17.97992,6.60999-13.34998,.48004-27.16998-24.31-30.02002-33.56-2.87994-9.25,19.39001-24.98999,19.39001-24.98999,4.53003-2.27997,9.06-3.59003,13.37-4.17999,12.48993-1.67999,23.23004,2.65997,27.35004,6.83997-13.66003-2.68994-41.13,12.40002-24.37,22.05005,16.38-11.01001,29.65002-20.29004,42.60999-28.40002s20.80005-1.16998,20.80005-1.16998l27.41992,6.40997,27.42993-6.40997s7.83008-6.94,20.79004,1.16998,26.23999,17.39001,42.61011,28.40002c16.77002-9.65002-10.71008-24.73999-24.36011-22.05005,4.12012-4.17999,14.8501-8.51996,27.34009-6.83997,4.30994,.58997,8.83997,1.90002,13.36987,4.17999,0,0,22.27002,15.73999,19.40015,24.98999Z"/>
  <path class="cls-3" d="M267.2891,267.65039c-2.33008,9.25-10.62379,28.75249-21.51368,28.28252-7.82007-.34003-30.8555-7.37291-32.92545-9.6129,2.85999,3.54999,10.16003,12.23999,12.32996,11.87,2.72998-.5-26.83984,14.28998-62.61987-5.25,0,0-3.73999,5.71002-13.83008,5.71002-10.07996,0-13.82996-5.71002-13.82996-5.71002-35.77002,19.53998-65.34998,4.75-62.60999,5.25,2.15991,.37,9.45996-8.32001,12.31995-11.87-2.05994,2.23999-22.56534,9.27287-30.38541,9.6129-10.88995,.46997-23.48884-16.4826-24.45754-28.28252s15.84375-21.9644,25.15295-27.02039c12.48993-1.67999,23.23004,2.65997,27.35004,6.83997-13.66003-2.68994-41.13,12.40002-24.37,22.05005,16.38-11.01001,29.65002-20.29004,42.60999-28.40002s20.80005-1.16998,20.80005-1.16998l27.41992,6.40997,27.42993-6.40997s7.83008-6.94,20.79004,1.16998,26.23999,17.39001,42.61011,28.40002c16.77002-9.65002-10.71008-24.73999-24.36011-22.05005,4.12012-4.17999,14.8501-8.51996,27.34009-6.83997,9.18761,2.35099,26.13895,21.51038,24.74906,27.02039Z"/>
  <path id="path78295" class="cls-11" d="M147.26868,178.32985h5.46263c35.65648,6.8569,34.17776,39.40013,38.46756,68.68748,2.67215,18.24332-20.02959,33.28156-38.46756,33.28156h-5.46263c-18.43799,0-41.13971-15.03824-38.46754-33.28157,2.51117-27.7413,10.79732-67.83748,38.46754-68.68748v.00002Z"/>
  <path id="rect74714" class="cls-21" d="M147.26868,168.32985h5.46263c35.65648,6.8569,34.17776,39.40013,38.46756,68.68748,2.67215,18.24333-20.02959,33.28156-38.46756,33.28156h-5.46263c-18.43799,0-41.13971-15.03824-38.46754-33.28157,2.51117-27.7413,10.79732-67.83748,38.46754-68.68748v.00002Z"/>
  <path id="path74717" class="cls-8" d="M131.03515,245.6875c-4.23811-.06326-9.24966,1.85456-9.60938,5.42188-.3901,3.86867,6.21733,4.86612,9.85547,6.23828,3.29651,1.24331,8.448,4.5587,10.43945,1.65234,2.78596-4.06587-2.78008-11.13885-7.42577-12.78516-.94626-.33531-2.0731-.50963-3.25977-.52733Zm37.92969,0c-1.18668,.0177-2.31351,.19202-3.25976,.52733-4.6457,1.64632-10.21174,8.71929-7.42579,12.78516,1.99145,2.90636,7.14294-.40903,10.43945-1.65234,3.63815-1.37215,10.24558-2.36961,9.85547-6.23828-.35971-3.56731-5.37125-5.48513-9.60938-5.42188Z"/>
  <path id="rect76225" class="cls-13" d="M178.86771,223.7392c-18.89255,14.94679-37.94301,15.93269-57.19358,.93697-5.76993-4.49464-10.61416-3.08522-11.67497,4.15848l-1.19837,8.18295c-2.67216,18.24332,20.03079,33.28123,38.46875,33.28123h5.46094c18.43796,0,41.1409-15.03793,38.46875-33.28125l-1.37003-9.35277c-.99298-6.77885-5.59232-8.17343-10.9615-3.92561h.00002Z"/>
  <path id="path7922" class="cls-6" d="M80.21131,68.75802c-1.89335,7.23653-7.40717,22.75718-21.43169,31.40129-7.71854,4.75738-15.7228,6.21934-21.60616-1.52613-4.64703-6.11784-16.4887-15.43816-23.04826-17.07285-2.86101,8.85225-3.63245,18.71789-1.36874,28.33836,2.95097,12.54123,7.94718,24.09598,15.4931,31.67899,1.46705-1.99937,3.00138-3.96213,4.60106-5.88577,1.46095-1.68166,2.9721-3.33104,4.53197-4.9465,2.26778-2.38461,4.6397-4.69549,7.11073-6.92774,1.71115-1.54072,3.46888-3.04318,5.27143-4.50582,2.59101-2.09332,5.27246-4.10332,8.03879-6.02583,1.92329-1.35879,3.88775-2.67445,5.89137-3.94563,2.90299-1.7949,5.8832-3.497,8.93509-5.10152,2.07682-1.13621,4.18759-2.22645,6.3302-3.26965,3.20097-1.48128,6.46677-2.85787,9.79032-4.12677,.11755-.0456,.23518-.0911,.35291-.13632,.48688-10.09254-2.90176-19.97297-8.89215-27.9481l.00002,.00002Z"/>
  <path id="rect4764" class="cls-22" d="M8.11674,83.15797c27.15003,1.56536,29.39387,14.64867,48.7799,14.32693l2.15092-16.73478c-21.6409-5.38925-23.57999-15.52075-50.93082,2.40785Z"/>
  <path id="path4775" class="cls-14" d="M51.88269,135.12865c-10.00896-26.83365,16.14441-36.33967,28.44883-47.08353l8.07391,9.3476c-19.87915,14.59808-33.14769,28.183-36.52274,37.73592Z"/>
  <path id="path6679" class="cls-18" d="M28.28131,71.90818c-1.80128-.06915-3.59632,.06364-5.35172,.39587-3.57152,.73557-6.92448,2.20425-9.85195,4.31536-1.46049,1.03042-2.80967,2.20758-4.0278,3.51428-.61018,.6534-1.18544,1.33897-1.72353,2.05405-.55413,.73116-1.05218,1.50446-1.49012,2.3136l-2.15115,3.08481,4.10996-.67597c.20952-.03142,.55496-.07443,.87764-.12698,.32267-.05255,.64036-.05118,.971-.09897,.33064-.04781,.64762-.03179,.99154-.05602,.34392-.02419,.66419-.03632,1.00461-.02614l1.00648,.0019c.33956,.03053,.6742,.04177,1.01022,.05975,.65781-.01423,1.35617,.11514,2.0335,.16993,2.75362,.38408,5.46973,1.06593,8.10041,2.03351l1.98495,.77307c.64659,.25022,1.29293,.56704,1.94574,.8627l.96914,.43322c.32818,.15411,.64044,.34569,.9598,.51538l1.89719,1.04383c.89944,.5144,1.80293,1.03517,2.68707,1.59842-3.58936,2.72265-6.29809,6.44009-7.7923,10.69411-1.52911,4.53107-2.06281,9.34327-1.56481,14.10943,.45523,4.69737,1.49334,9.3228,3.0904,13.76956,.77484,2.22421,1.69813,4.39456,2.76362,6.49638,1.07261,2.12088,2.32653,4.14577,3.7477,6.05196l3.35743,5.91193,1.62643-7.0547,1.30152-5.7812c.45274-1.92114,.92685-3.86757,1.46397-5.78868,.94706-3.49496,2.08089-6.93575,3.39664-10.30756,.14621,2.32589,.5618,4.63693,1.24176,6.90532,.45541,1.57137,1.04681,3.11725,1.77021,4.6272,.72855,1.52371,1.62636,2.99568,2.68333,4.39938l2.35468,4.27428,2.14554-4.67761,1.731-3.83546c.59307-1.27332,1.20749-2.56291,1.87478-3.82986,1.30039-2.5451,2.79373-5.02859,4.47222-7.43751,.87513-1.19582,1.79139-2.35927,2.7935-3.49561,.99934-1.13747,2.08295-2.22918,3.24539-3.26967,1.1791-1.04949,2.444-2.03934,3.78691-2.96343,1.3847-.93018,2.8448-1.7909,4.37138-2.5769-1.79726,.36938-3.54105,.87994-5.2042,1.52373-1.68947,.68914-3.29777,1.49141-4.80647,2.39764-3.01853,1.84474-5.69186,4.00465-7.94355,6.41796-2.2712,2.39453-4.1908,4.97738-5.72332,7.70079-.46885,.85101-.89983,1.71422-1.29218,2.5881-.42126-.96246-.83431-1.92567-1.21562-2.88687-1.19001-2.81567-1.99426-5.72037-2.3995-8.6662-.26219-1.83851-.22894-3.69508,.09897-5.52725,.64004-1.11565,1.32146-2.20692,2.04284-3.27154,1.14806-1.66827,2.40235-3.26064,3.75517-4.76725,1.39871-1.52164,2.89374-2.95181,4.47595-4.28175-1.5859,.62853-3.11614,1.38804-4.57492,2.27066-1.99454,1.05038-3.7336,2.36526-5.13698,3.88401-.29414,.25369-.58424,.51204-.87017,.77493-3.08033,3.05045-5.72035,6.51559-7.84459,10.29637-2.14921,3.75595-3.87215,7.74171-5.13698,11.88358-.38403,1.29361-.72346,2.60027-1.01768,3.91763-.6342-1.34503-1.25766-2.69273-1.84677-4.04086-1.80764-3.93879-3.19709-8.05457-4.14544-12.27945-.98017-4.19703-1.12232-8.54207-.41828-12.7855,.38663-2.13733,1.05995-4.2113,2.00176-6.16587,.93503-1.84674,2.0865-3.57489,3.43026-5.14819,.32743,.21002,.65252,.42563,.97287,.64983,1.21306,.84895,2.42035,1.70502,3.67674,2.54328h.0019c-.97667-1.12854-1.98259-2.24173-3.01758-3.34249l-1.67129-1.52938-.87577-.75813c-.27357-.26254-.56366-.50708-.8683-.73199l-1.81503-1.43223c-.30262-.22749-.59855-.47712-.92059-.6797l-.96727-.61248c-.64586-.41144-1.29037-.83691-1.94948-1.22496l-2.05218-1.05877c-2.79475-1.39793-5.77118-2.3611-8.82306-2.85513-.77138-.11836-1.54676-.19627-2.32294-.23341l-1.17267-.05415-1.05877,.03734c.07626-.0798,.14945-.16172,.22594-.24088,1.11533-1.14531,2.29804-2.22266,3.54229-3.22672,1.2432-.99673,2.56966-1.88665,3.96618-2.66092,1.40891-.76053,2.89348-1.37962,4.433-1.84864,3.14787-.91404,6.479-1.14874,9.77912-.68904,.84083,.1095,1.67725,.26221,2.50594,.45749,.84013,.16235,1.64795,.42018,2.48726,.64983s1.63787,.56998,2.46486,.84962l2.42751,1.00648c-2.96782-2.00802-6.23247-3.51187-9.65587-4.44794-1.75775-.46767-3.55405-.73888-5.35546-.80855v.00003Z"/>
  <path id="rect11864" class="cls-15" d="M141.58008,70.51367c-1.91689,.0011-3.89626,.08851-5.9375,.26172-7.31822,.621-7.41006,4.17085-1.45117,8.45312,.86551,.62199,1.61359,1.23071,2.2832,1.83008-4.17323-1.5947-9.26193-2.03165-15.19141-1.26562-3.06583,.39607-3.16823,1.94844-.51953,3.54102,6.20777,3.73251,6.02424,6.72176,4.54102,9.56055h14.32812c-.14998,.33137-.30763,.66151-.48047,.99023h39.4375c-5.80986-15.38136-18.47981-23.38146-37.00977-23.37109Z"/>
  <path class="cls-2" d="M224.21262,145.46039c-21.37584-2.73007-54.15215-2.79906-34.3128,13.21034,19.83935,16.0094,51.31314-5.40295,70.14585,6.49578,0,0-14.45721-16.97604-35.83305-19.70611Z"/>
  <path class="cls-2" d="M75.78738,145.46039c21.37584-2.73007,54.15215-2.79906,34.3128,13.21034-19.83935,16.0094-51.31314-5.40295-70.14585,6.49578,0,0,14.45721-16.97604,35.83305-19.70611Z"/>
  <path class="cls-9" d="M226.75511,103.05954l-106.93344-15.91809-46.57678,15.91809s-17.90517,5.36121-11.42858,18.2688c6.47664,12.90753,51.63211,14.70398,88.18369,14.70398s81.70705-1.79645,88.18363-14.70398c6.47658-12.90759-11.42852-18.2688-11.42852-18.2688Z"/>
  <path class="cls-20" d="M229.16504,93.23999l-110.29089-15.91809-48.03918,15.91809s-18.46735,5.36121-11.78741,18.2688c6.67999,12.90753,53.25323,14.70398,90.95245,14.70398s84.27246-1.79645,90.95239-14.70398c6.67993-12.90759-11.78735-18.2688-11.78735-18.2688Z"/>
  <path class="cls-1" d="M44.23999,23.07001l3.12225,8.23944H252.62891l3.12109-8.23944c.54004-1.41998,.88-2.87,1.03003-4.33002,.58997-5.78998-1.84009-11.62-6.65002-15.27002-2.95007-2.25-6.57996-3.46997-10.30994-3.46997H60.15997c-3.71997,0-7.33997,1.21997-10.29999,3.46997-4.79999,3.65002-7.22998,9.48004-6.64001,15.27002,.14001,1.46002,.48004,2.91003,1.02002,4.33002Z"/>
  <path class="cls-2" d="M256.78003,18.73999c-.15002,1.46002-.48999,2.91003-1.03003,4.33002l-5.53003,14.58997-21.05005,55.58002c-2.51001,6.62-8.85986,11-15.93994,11-12.5,5.92999-100.37,8.66998-126.45996,0-7.08008,0-13.42993-4.38-15.93994-11l-21.06006-55.58997-5.53003-14.58002c-.53998-1.41998-.88-2.87-1.02002-4.33002,.39001-.37,.80005-.70996,1.23004-1.03998,3.12-2.37,6.94-3.66003,10.85999-3.66003H244.67993c3.93005,0,7.75,1.29004,10.87012,3.66003,.42993,.33002,.83997,.66998,1.22998,1.03998Z"/>
  <path class="cls-1" d="M256.78003,18.73999c-.15002,1.46002-.48999,2.91003-1.03003,4.33002l-5.53003,14.58997c-13.30005,12.54004-41.30005,25.93005-100.21997,25.93005-58.93994,0-86.94-13.40002-100.22998-25.94l-5.53003-14.58002c-.53998-1.41998-.88-2.87-1.02002-4.33002,.39001-.37,.88576-4.37,1.31575-4.70001,3.12-2.37,5.67702-2.38423,9.597-2.38423l1.91551,.87224c.38,.21002,.9098-.42818,1.29981-.18813,0,0,.33195,2.24016,.29197,1.99016,.27997,1.15997,8.02991,29.26001,92.35999,29.26001S242.08008,15.48999,242.35999,14.33002c-.03992,.25,.29132-1.29166,.29132-1.29166,.38989-.24005,.40173-2.3574,.78161-2.56743l6.70513-1.62772c3.93005,0,2.4138,4.25614,5.53392,6.62614,.42993,.33002,.71805,2.90065,1.10806,3.27065Z"/>
  <path class="cls-20" d="M177.04004,94.78998c-9.81006,22.34003-22.52002,19.54004-22.52002,19.54004l-4.52002-4.57001-4.52002,4.57001s-12.70996,2.79999-22.52002-19.54004c-9.81995-22.34998,6.67004-.90997,6.67004-.90997,0,0-8.28003-20.21002-2.72998-23.37,5.55994-3.16003,6.89001,4.29999,6.89001,5.45996,.11987-1.08997,1.95996-30.96997,16.20996-30.96997s16.09009,29.88,16.20996,30.96997c0-1.15997,1.33008-8.62,6.89001-5.45996,5.55005,3.15997-2.72998,23.37-2.72998,23.37,0,0,16.48999-21.44,6.67004,.90997Z"/>
  <path class="cls-16" d="M177.04004,94.78998c-9.81006,22.34003-22.52002,19.54004-22.52002,19.54004l-4.52002-4.57001V45c14.25,0,16.09009,29.88,16.20996,30.96997,0-1.15997,1.33008-8.62,6.89001-5.45996,5.55005,3.15997-2.72998,23.37-2.72998,23.37,0,0,16.48999-21.44,6.67004,.90997Z"/>
  <g>
    <circle class="cls-1" cx="150" cy="106.05908" r="13.83577"/>
    <circle class="cls-4" cx="146.49113" cy="102.75614" r="7.73805"/>
  </g>
</svg>