<?xml version="1.0" encoding="UTF-8" standalone="no"?>
<svg
   viewBox="0 0 300 345"
   version="1.1"
   id="svg843"
   sodipodi:docname="obsidianblook2.svg"
   xml:space="preserve"
   inkscape:version="1.2 (dc2aedaf03, 2022-05-15)"
   xmlns:inkscape="http://www.inkscape.org/namespaces/inkscape"
   xmlns:sodipodi="http://sodipodi.sourceforge.net/DTD/sodipodi-0.dtd"
   xmlns:xlink="http://www.w3.org/1999/xlink"
   xmlns="http://www.w3.org/2000/svg"
   xmlns:svg="http://www.w3.org/2000/svg"
   xmlns:rdf="http://www.w3.org/1999/02/22-rdf-syntax-ns#"
   xmlns:cc="http://creativecommons.org/ns#"
   xmlns:dc="http://purl.org/dc/elements/1.1/"><sodipodi:namedview
     id="namedview70205"
     pagecolor="#505050"
     bordercolor="#ffffff"
     borderopacity="1"
     inkscape:showpageshadow="0"
     inkscape:pageopacity="0"
     inkscape:pagecheckerboard="1"
     inkscape:deskcolor="#505050"
     showgrid="false"
     inkscape:zoom="1.7933342"
     inkscape:cx="170.07427"
     inkscape:cy="279.3679"
     inkscape:window-width="1366"
     inkscape:window-height="705"
     inkscape:window-x="-8"
     inkscape:window-y="-8"
     inkscape:window-maximized="1"
     inkscape:current-layer="svg843" /><metadata
     id="metadata847"><rdf:RDF><cc:Work
         rdf:about=""><dc:format>image/svg+xml</dc:format><dc:type
           rdf:resource="http://purl.org/dc/dcmitype/StillImage" /></cc:Work></rdf:RDF></metadata><defs
     id="defs837"><linearGradient
       inkscape:collect="always"
       id="linearGradient104040"><stop
         style="stop-color:#101019;stop-opacity:1;"
         offset="0.12190083"
         id="stop104036" /><stop
         style="stop-color:#1d1d29;stop-opacity:1;"
         offset="0.67975205"
         id="stop104038" /></linearGradient><linearGradient
       y2="161.16"
       x2="150"
       y1="356.11"
       x1="150"
       id="A"
       gradientUnits="userSpaceOnUse"><stop
         stop-color="#0bc2cf"
         offset="0"
         id="stop832"
         style="stop-color:#1a1a28;stop-opacity:1;" /><stop
         stop-color="#0b4fac"
         offset="1"
         id="stop834"
         style="stop-color:#07070a;stop-opacity:1;" /></linearGradient><linearGradient
       inkscape:collect="always"
       xlink:href="#linearGradient104040"
       id="linearGradient104042"
       x1="145.72729"
       y1="44.393307"
       x2="152.59767"
       y2="298.99731"
       gradientUnits="userSpaceOnUse" /><filter
       style="color-interpolation-filters:sRGB;"
       inkscape:label="Drop Shadow"
       id="filter21036"
       x="0"
       y="0"
       width="1.0037483"
       height="1.0187311"><feFlood
         flood-opacity="0.403922"
         flood-color="rgb(10,10,21)"
         result="flood"
         id="feFlood21026" /><feComposite
         in="flood"
         in2="SourceGraphic"
         operator="in"
         result="composite1"
         id="feComposite21028" /><feGaussianBlur
         in="composite1"
         stdDeviation="0"
         result="blur"
         id="feGaussianBlur21030" /><feOffset
         dx="1.1"
         dy="4.2"
         result="offset"
         id="feOffset21032" /><feComposite
         in="SourceGraphic"
         in2="offset"
         operator="over"
         result="composite2"
         id="feComposite21034" /></filter><filter
       style="color-interpolation-filters:sRGB;"
       inkscape:label="Drop Shadow"
       id="filter24954"
       x="0"
       y="0"
       width="1.0322796"
       height="1.128309"><feFlood
         flood-opacity="0.403922"
         flood-color="rgb(10,10,21)"
         result="flood"
         id="feFlood24944" /><feComposite
         in="flood"
         in2="SourceGraphic"
         operator="in"
         result="composite1"
         id="feComposite24946" /><feGaussianBlur
         in="composite1"
         stdDeviation="0"
         result="blur"
         id="feGaussianBlur24948" /><feOffset
         dx="1.1"
         dy="4.2"
         result="offset"
         id="feOffset24950" /><feComposite
         in="SourceGraphic"
         in2="offset"
         operator="over"
         result="composite2"
         id="feComposite24952" /></filter></defs><path
     id="rect108797"
     style="opacity:1;fill:#151521;fill-opacity:1;stroke-width:1.88631;stroke-linecap:round;stroke-linejoin:round;stop-color:#000000"
     d="M 195.8677,43.870864 C 183.16196,62.544329 159.95931,71.754616 139.89261,83.792031 115.32251,81.085092 100.31278,63.447079 82.159243,50.718985 96.321879,64.507184 132.79024,63.195534 195.8677,43.870864 Z"
     sodipodi:nodetypes="cccc" /><path
     d="M263.62,345H36.38A36.38,36.38,0,0,1,0,308.62V259.14H300v49.48A36.38,36.38,0,0,1,263.62,345Z"
     fill="url(#A)"
     id="path839" /><path
     id="rect841-5"
     style="fill:url(#linearGradient104042);fill-opacity:1"
     d="M 36.380859 45 C 16.226359 45 -1.3831461e-16 61.226359 0 81.380859 L 0 262.00977 C 0 282.16427 16.226359 298.39062 36.380859 298.39062 L 263.61914 298.39062 C 283.77364 298.39062 300 282.16427 300 262.00977 L 300 81.380859 C 300 61.226359 283.77364 45 263.61914 45 L 188 45 L 131.85938 76.835938 L 74.134766 45 L 36.380859 45 z " /><rect
     rx="36.380001"
     height="253.39"
     width="300"
     y="45"
     fill="#0bc2cf"
     id="rect88057"
     style="display:none;fill:#7e90a3;fill-opacity:1"
     x="0" /><path
     style="opacity:1;fill:#221e30;fill-opacity:1;stroke:none;stroke-width:1.40111;stroke-linecap:round;stroke-linejoin:round;stroke-dasharray:none;stroke-opacity:1;stop-color:#000000"
     d="m 221.52454,231.27754 c -1.89965,22.87127 -17.44985,48.56358 -37.7804,57.39824 -10.86485,4.41425 -22.24101,7.49361 -33.74414,9.71484 38.46665,-0.0599 76.93945,0.11971 115.40234,-0.0898 19.96772,-0.38182 36.48813,-19.46676 34.59766,-39.23633 -37.55781,35.56436 -61.63526,-8.64806 -78.47546,-27.78695 z"
     id="path104258"
     sodipodi:nodetypes="cccccc" /><path
     id="rect85601"
     style="opacity:1;fill:#221e30;fill-opacity:1;stroke:none;stroke-width:1.115;stroke-linecap:round;stroke-linejoin:round;stop-color:#000000"
     d="m 37.735502,45 c -1.25966,0 -2.50451,0.0637 -3.73047,0.1875 -17.163474,1.73272 -30.7301743,15.29942 -32.4628943,32.462886 -0.12377,1.22596 -0.1875,2.47081 -0.1875,3.73046 v 14 V 128.75 c 0,0 18.9350403,-45.582264 36.2519543,-50.359384 C 68.115182,96.735846 112.18359,131.59541 152.23744,182.58594 134.16657,161.79093 95.914942,70.13886 102.62808,70.88476 c 3.64266,-2.42844 55.90578,42.78863 58.90333,45.29936 -4.06126,-2.11457 -5.5458,-49.49272 1.44822,-49.49272 0,0 30.63346,14.623276 26.4082,27.757806 L 230.27846,73.6289 C 244.39483,64.01235 264.97377,59 264.97377,59 c 0,0 36.38086,16.22642 36.38086,36.380846 v -14 C 301.35463,61.22642 285.12821,45 264.97377,45 H 189.35463 C 173.43896,57.2907 157.28591,69.43897 133.21402,76.83593 113.94428,66.2592 91.190632,60.03736 75.489402,45 Z"
     sodipodi:nodetypes="scsscccccccccccsscccs" /><path
     id="rect92298"
     style="opacity:1;fill:#221e30;fill-opacity:1;stroke:none;stroke-width:2.28;stroke-linecap:round;stroke-linejoin:round;stroke-dasharray:none;stroke-opacity:1;stop-color:#000000"
     d="m 0,212.20117 c 0.23456596,18.44973 -0.49503723,36.9469 0.41775371,55.36352 2.37868739,18.80466 21.06238729,32.74774 39.70873229,30.82593 75.123224,-0.0314 150.248024,0.0629 225.370254,-0.0472 20.02674,-0.43418 36.4519,-19.66252 34.50326,-39.45505 -0.0239,-2.34649 0.0526,-12.69134 -0.0472,-9.00104 -0.43419,20.02674 -19.66253,36.45189 -39.45506,34.50325 H 83.263632 C 32.36837,288.61506 0.30670383,263.13992 0,212.20117 Z"
     sodipodi:nodetypes="ccccccccc" /><path
     id="path106491"
     style="opacity:1;fill:#988aa1;fill-opacity:1;stroke:none;stroke-width:2.28;stroke-linecap:round;stroke-linejoin:round;stroke-dasharray:none;stroke-opacity:1;stop-color:#000000"
     d="M 0 212.20117 C 0.035095512 214.9616 0.020826063 217.7242 0.021484375 220.48633 C 0.035813193 218.01552 0.022429137 215.54632 0.0234375 213.07617 C 0.019507433 212.78161 0.001783948 212.49746 0 212.20117 z M -0.02734375 237.01953 C -0.085921973 247.21115 -0.085797209 257.40039 0.41796875 267.56445 C 2.7966538 286.36909 21.480627 300.31243 40.126953 298.39062 C 115.2501 298.35923 190.37394 298.45385 265.49609 298.34375 C 285.52281 297.90957 301.94864 278.68118 300 258.88867 C 299.99627 258.52244 300.00184 257.44949 300.00195 256.77734 C 298.58469 274.3277 283.52243 289.95294 265.49609 290.34375 C 190.37394 290.45385 115.2501 290.35923 40.126953 290.39062 C 21.480627 292.31243 2.7966538 278.36909 0.41796875 259.56445 C 0.046053225 252.06062 -0.024436661 244.54145 -0.02734375 237.01953 z " /><path
     id="path106496"
     style="opacity:1;fill:#988aa1;fill-opacity:1;stroke-width:2.28;stroke-linecap:round;stroke-linejoin:round;stop-color:#000000"
     d="m 186.23439,292.39062 38.86497,32.00852 18.33247,-32.00852 -21.38329,-16.08594 z"
     sodipodi:nodetypes="ccccc" /><path
     id="rect92545"
     style="opacity:1;fill:#100e16;fill-opacity:1;stroke-width:2.28;stroke-linecap:round;stroke-linejoin:round;stop-color:#000000"
     d="m 186.23439,298.39062 38.86497,32.00852 18.33247,-32.00852 -21.38329,-16.08594 z"
     sodipodi:nodetypes="ccccc" /><path
     id="path106843"
     style="opacity:1;fill:#221e30;fill-opacity:1;stroke-width:1.42215;stroke-linecap:round;stroke-linejoin:round;stop-color:#000000"
     d="m 196.99471,301.38607 24.24195,19.96526 11.43485,-19.96526 -13.33779,-10.03358 z"
     sodipodi:nodetypes="ccccc" /><path
     id="rect108792"
     style="opacity:1;fill:#221e30;stroke-width:1.51634;stroke-linecap:round;stroke-linejoin:round;stop-color:#000000;fill-opacity:1"
     d="m 0,199.99599 25.806336,23.16531 -15.449463,3.69432 C 1.876345,233.7648 2.6782819,250.57965 0,257.48883 Z"
     sodipodi:nodetypes="ccccc" /><path
     id="path109192"
     style="fill:#988aa1;fill-opacity:1"
     d="M 36.380859,45 C 16.22638,45 0,61.22638 0,81.380859 v 6 C 0,67.22638 16.22638,51 36.380859,51 h 37.753907 l 43.368544,22.641602 34.17592,27.755198 c 0,0 -4.51141,-8.864403 -4.78076,-20.595264 C 146.62912,69.070675 188,51 188,51 h 75.61914 C 283.77362,51 300,67.22638 300,87.380859 v -6 C 300,61.22638 283.77362,45 263.61914,45 H 188 C 171.0802,55.380002 154.77244,68.871271 133.19915,74.597781 112.99618,68.665636 92.453324,58.469779 74.134766,45 Z"
     sodipodi:nodetypes="sscsccczcscsscccs" /><path
     id="rect109387"
     style="opacity:1;fill:#988aa1;stroke-width:1.40369;stroke-linecap:round;stroke-linejoin:round;stop-color:#000000;fill-opacity:1"
     d="M 51.185547 48.621094 L 34.929688 49.800781 L 52.837891 61.060547 L 51.525391 51.171875 L 64.621094 56.386719 L 70.46875 49.205078 L 51.316406 49.609375 L 51.185547 48.621094 z " /><path
     id="path109392"
     style="opacity:1;fill:#988aa1;fill-opacity:1;stroke-width:1.8655;stroke-linecap:round;stroke-linejoin:round;stop-color:#000000"
     d="M 232.50586 273.9043 L 241.35742 292.46484 L 258.69531 292.18164 L 258.63672 292.46484 L 263.64844 292.10156 L 269.49219 292.00586 L 268.90625 291.71875 L 274.89258 291.28516 L 260.94336 281.46484 L 259.73438 287.23047 L 232.50586 273.9043 z " /><path
     id="rect13038"
     style="fill:#0d0d15;stroke-width:0.368857;stroke-linecap:square;stroke-linejoin:round;stop-color:#000000"
     d="m 184.7451,130.66737 -34.64605,-17.22435 -17.32467,19.06389 12.01043,18.30845 13.23968,-18.29154 z"
     sodipodi:nodetypes="cccccc" /><rect
     style="fill:#1d1d29;fill-opacity:1;stroke:none;stroke-width:0.166365;stroke-linecap:square;stroke-linejoin:round;stop-color:#000000"
     id="rect13040"
     width="16.854919"
     height="11.573301"
     x="-79.369987"
     y="213.98248"
     transform="matrix(-0.54788704,0.83655232,0.49539748,0.86866641,0,0)" /><g
     id="g20404"
     style="filter:url(#filter21036)"><path
       id="rect9331"
       style="fill:#2c233a;fill-opacity:1;stroke-width:0.483681;stroke-linecap:square;stroke-linejoin:round;stop-color:#000000"
       d="m 195.30742,123.11131 22.27769,-36.535967 40.03496,-1.64628 22.42918,36.603967 -17.74762,36.04869 -44.56503,2.13356 z"
       sodipodi:nodetypes="ccccccc" /><path
       id="path10622"
       style="fill:#1a1625;fill-opacity:1;stroke-width:0.316001;stroke-linecap:square;stroke-linejoin:round;stop-color:#000000"
       d="m 164.9525,156.96884 26.56767,-9.60228 20.34691,15.55671 -4.66228,27.9516 -24.13652,11.20827 -22.77806,-17.16269 z"
       sodipodi:nodetypes="ccccccc" /><path
       id="path10678"
       style="fill:#312741;fill-opacity:1;stroke-width:0.3848;stroke-linecap:square;stroke-linejoin:round;stop-color:#000000"
       d="m 203.96945,122.94998 17.72338,-29.066794 31.85048,-1.309725 17.84391,29.120899 -14.11941,28.67913 -35.45445,1.69739 z"
       sodipodi:nodetypes="ccccccc" /><path
       id="path12411"
       style="fill:#211b2e;fill-opacity:1;stroke-width:0.234039;stroke-linecap:square;stroke-linejoin:round;stop-color:#000000"
       d="m 170.43207,161.57429 19.67671,-7.1117 15.06945,11.5217 -3.453,20.70168 -17.87614,8.30114 -16.87002,-12.71113 z"
       sodipodi:nodetypes="ccccccc" /><path
       id="rect13646"
       style="fill:#1a1625;fill-opacity:1;stroke-width:1.40943;stroke-linecap:square;stroke-linejoin:round;stop-color:#000000"
       d="m 185.37663,121.35481 26.7554,-47.777491 h -53.51079 z"
       sodipodi:nodetypes="cccc" /><path
       id="path14046"
       style="fill:#211b2e;fill-opacity:1;stroke-width:0.913809;stroke-linecap:square;stroke-linejoin:round;stop-color:#000000"
       d="m 185.37663,109.65767 17.3469,-30.976619 h -34.6938 z"
       sodipodi:nodetypes="cccc" /><path
       id="rect15894"
       style="fill:#ffc5fd;fill-opacity:0.103448;stroke:none;stroke-width:2.15856;stroke-linecap:square;stroke-linejoin:round;stroke-dasharray:none;stroke-opacity:1;stop-color:#000000"
       d="m 257.61914,84.929688 -40.03321,1.646481 -22.27929,36.535151 54.72724,-28.579532 23.29815,40.645952 6.7168,-13.64454 z"
       sodipodi:nodetypes="ccccccc" /><path
       id="rect16214"
       style="fill:#ffc5fd;fill-opacity:0.103448;stroke:none;stroke-width:2.616;stroke-linecap:square;stroke-linejoin:round;stroke-dasharray:none;stroke-opacity:1;stop-color:#000000"
       d="m 158.62109,73.578125 6.41993,11.464844 h 40.67187 l 6.41992,-11.464844 z" /><path
       id="rect16224"
       style="fill:#ffc5fd;fill-opacity:0.103448;stroke:none;stroke-width:2.616;stroke-linecap:square;stroke-linejoin:round;stroke-dasharray:none;stroke-opacity:1;stop-color:#000000"
       d="m 191.51953,147.36719 -26.5664,9.60156 -2.74219,16.44336 30.60742,-13.87109 17.4707,12.8457 1.57813,-9.46289 z" /><path
       id="path16297"
       style="fill:#38293e;fill-opacity:1;stroke-width:0.405794;stroke-linecap:square;stroke-linejoin:round;stop-color:#000000"
       d="m 238.73729,229.90578 -12.16257,33.57386 -32.9559,8.4444 -24.96969,-25.68944 8.4857,-32.37435 36.63277,-9.64391 z"
       sodipodi:nodetypes="ccccccc" /><path
       id="path16299"
       style="fill:#2c233a;fill-opacity:1;stroke-width:0.265116;stroke-linecap:square;stroke-linejoin:round;stop-color:#000000"
       d="m 258.07084,197.06873 -20.39446,12.50218 -19.59149,-8.99747 -0.97525,-23.48668 18.0974,-13.37231 21.88855,9.86759 z"
       sodipodi:nodetypes="ccccccc" /><rect
       style="fill:#38293e;fill-opacity:1;stroke:none;stroke-width:0.338134;stroke-linecap:square;stroke-linejoin:round;stop-color:#000000"
       id="rect16301"
       width="38.866768"
       height="20.732643"
       x="-87.682533"
       y="-325.11133"
       transform="matrix(-0.95590849,0.29366472,-0.65033516,-0.7596474,0,0)" /><path
       id="path16303"
       style="fill:#44344f;fill-opacity:1;stroke-width:0.322836;stroke-linecap:square;stroke-linejoin:round;stop-color:#000000"
       d="m 231.57311,231.57486 -9.67613,26.71024 -26.21862,6.71808 -19.86505,-20.43766 6.75093,-25.75595 29.14381,-7.67237 z"
       sodipodi:nodetypes="ccccccc" /><rect
       style="fill:#44344f;fill-opacity:1;stroke:none;stroke-width:0.225258;stroke-linecap:square;stroke-linejoin:round;stop-color:#000000"
       id="rect16305"
       width="25.892185"
       height="13.811629"
       x="-81.195236"
       y="-321.65082"
       transform="matrix(-0.95590849,0.29366472,-0.65033516,-0.7596474,0,0)" /><path
       id="path16307"
       style="fill:#312741;fill-opacity:1;stroke-width:0.196352;stroke-linecap:square;stroke-linejoin:round;stop-color:#000000"
       d="m 252.72259,194.30849 -15.10466,9.25944 -14.50997,-6.66376 -0.7223,-17.39484 13.40341,-9.90389 16.21122,7.3082 z"
       sodipodi:nodetypes="ccccccc" /><path
       id="path16309"
       style="fill:#2c233a;fill-opacity:1;stroke-width:1.18247;stroke-linecap:square;stroke-linejoin:round;stop-color:#000000"
       d="m 247.28745,229.56605 -13.93134,43.4819 44.43043,-9.50305 z"
       sodipodi:nodetypes="cccc" /><path
       id="path16311"
       style="fill:#211b2e;fill-opacity:1;stroke-width:0.766659;stroke-linecap:square;stroke-linejoin:round;stop-color:#000000"
       d="m 249.31555,239.04823 -9.03239,28.19156 28.80653,-6.16131 z"
       sodipodi:nodetypes="cccc" /><path
       id="path16313"
       style="fill:#ffc5fd;fill-opacity:0.103448;stroke:none;stroke-width:3.00911;stroke-linecap:square;stroke-linejoin:round;stroke-dasharray:none;stroke-opacity:1;stop-color:#000000"
       d="m 213.76758,204.2168 -36.63281,9.64258 -1.44336,5.50781 33.6582,-7.50781 5.50391,54.625 11.7207,-3.00391 11.71094,-32.32813 -3.31055,-5.11718 z" /><path
       id="path16315"
       style="fill:#ffc5fd;fill-opacity:0.103448;stroke:none;stroke-width:4.00327;stroke-linecap:square;stroke-linejoin:round;stroke-dasharray:none;stroke-opacity:1;stop-color:#000000"
       d="m 247.28711,229.56641 -9.97266,31.125 23.13477,-16.46094 z" /><path
       id="path16317"
       style="fill:#ffc5fd;fill-opacity:0.103448;stroke:none;stroke-width:3.30461;stroke-linecap:square;stroke-linejoin:round;stroke-dasharray:none;stroke-opacity:1;stop-color:#000000"
       d="m 281.76367,205.4707 -37.15234,11.41407 4.72851,5.52343 35.6875,-13.125 z" /><path
       id="path16319"
       style="fill:#ffc5fd;fill-opacity:0.103448;stroke:none;stroke-width:3.57425;stroke-linecap:square;stroke-linejoin:round;stroke-dasharray:none;stroke-opacity:1;stop-color:#000000"
       d="m 235.20703,163.71484 -18.09765,13.3711 0.24414,5.875 16.375,-7.05469 24.18164,17.28516 -0.81446,-19.60938 z" /><path
       id="path20169"
       style="fill:#2c233a;fill-opacity:1;stroke-width:0.483681;stroke-linecap:square;stroke-linejoin:round;stop-color:#000000"
       d="m 91.093161,228.25056 38.561029,18.55314 34.49647,-20.38385 -1.0754,-42.91575 -34.49401,-20.60702 -38.563492,22.43772 z"
       sodipodi:nodetypes="ccccccc" /><rect
       style="fill:#38293e;fill-opacity:1;stroke:none;stroke-width:0.401994;stroke-linecap:square;stroke-linejoin:round;stop-color:#000000"
       id="rect20173"
       width="45.783298"
       height="24.876371"
       x="14.414694"
       y="-275.94409"
       transform="matrix(0.8845156,-0.46651062,-0.08735585,-0.99617717,0,0)" /><path
       id="path20175"
       style="fill:#312741;fill-opacity:1;stroke-width:0.3848;stroke-linecap:square;stroke-linejoin:round;stop-color:#000000"
       d="m 98.450936,223.67672 30.677864,14.76027 27.44424,-16.21671 -0.85555,-34.14235 -27.44228,-16.39425 -30.679829,17.85069 z"
       sodipodi:nodetypes="ccccccc" /><rect
       style="fill:#44344f;fill-opacity:1;stroke:none;stroke-width:0.2678;stroke-linecap:square;stroke-linejoin:round;stop-color:#000000"
       id="rect20177"
       width="30.499825"
       height="16.57209"
       x="22.056433"
       y="-271.79193"
       transform="matrix(0.8845156,-0.46651062,-0.08735585,-0.99617717,0,0)" /><path
       id="path20181"
       style="fill:#1a1625;fill-opacity:1;stroke-width:1.40943;stroke-linecap:square;stroke-linejoin:round;stop-color:#000000"
       d="m 83.713169,235.12381 48.430801,25.55382 -44.911752,29.09191 z"
       sodipodi:nodetypes="cccc" /><path
       id="path20183"
       style="fill:#211b2e;fill-opacity:1;stroke-width:0.913809;stroke-linecap:square;stroke-linejoin:round;stop-color:#000000"
       d="M 90.072488,244.94125 121.47267,261.50912 92.354072,280.3709 Z"
       sodipodi:nodetypes="cccc" /><path
       id="path20185"
       style="fill:#ffc5fd;fill-opacity:0.103448;stroke:none;stroke-width:2.90286;stroke-linecap:square;stroke-linejoin:round;stroke-dasharray:none;stroke-opacity:1;stop-color:#000000"
       d="M 128.58203 162.89648 L 99.462891 179.83789 L 152.5957 184.95703 L 149.95703 234.80664 L 164.15039 226.41992 L 163.07617 183.50391 L 128.58203 162.89648 z " /><path
       id="path20187"
       style="fill:#ffc5fd;fill-opacity:0.103448;stroke:none;stroke-width:2.616;stroke-linecap:square;stroke-linejoin:round;stroke-dasharray:none;stroke-opacity:1;stop-color:#000000"
       d="m 87.231654,289.76894 -0.844762,-13.11276 34.136008,-22.11185 11.62129,6.1322 z" /><path
       id="path20189"
       style="fill:#ffc5fd;fill-opacity:0.103448;stroke:none;stroke-width:4.39515;stroke-linecap:square;stroke-linejoin:round;stroke-dasharray:none;stroke-opacity:1;stop-color:#000000"
       d="M 75.177734 222.02539 L 34.681641 243.38281 L 34.945312 246.39062 L 77.121094 244.17578 L 75.177734 222.02539 z " /><path
       id="path20193"
       style="fill:#38293e;fill-opacity:1;stroke-width:0.405794;stroke-linecap:square;stroke-linejoin:round;stop-color:#000000"
       d="M 69.483618,115.00639 41.022628,93.44012 8.7717328,104.26966 1.7810383,139.40601 26.50389,161.96452 62.492924,150.14274 Z"
       sodipodi:nodetypes="ccccccc" /><path
       id="path20195"
       style="fill:#2c233a;fill-opacity:1;stroke-width:0.265116;stroke-linecap:square;stroke-linejoin:round;stop-color:#000000"
       d="m 103.56265,132.05566 -23.914112,0.59463 -11.551586,18.20279 11.950341,20.24264 22.459247,1.38451 13.00646,-20.18192 z"
       sodipodi:nodetypes="ccccccc" /><rect
       style="fill:#38293e;fill-opacity:1;stroke:none;stroke-width:0.338134;stroke-linecap:square;stroke-linejoin:round;stop-color:#000000"
       id="rect20197"
       width="38.866768"
       height="20.732643"
       x="-144.71278"
       y="132.28372"
       transform="matrix(-0.96195163,0.27321981,-0.13283482,0.99113819,0,0)" /><path
       id="path20199"
       style="fill:#44344f;fill-opacity:1;stroke-width:0.322836;stroke-linecap:square;stroke-linejoin:round;stop-color:#000000"
       d="m 62.563283,117.50044 -22.642608,-17.15741 -25.65774,8.61563 -5.5615618,27.9533 19.6686668,17.9468 28.631673,-9.40501 z"
       sodipodi:nodetypes="ccccccc" /><rect
       style="fill:#44344f;fill-opacity:1;stroke:none;stroke-width:0.225258;stroke-linecap:square;stroke-linejoin:round;stop-color:#000000"
       id="rect20201"
       width="25.892185"
       height="13.811629"
       x="-138.22548"
       y="135.74423"
       transform="matrix(-0.96195163,0.27321981,-0.13283482,0.99113819,0,0)" /><path
       id="path20203"
       style="fill:#312741;fill-opacity:1;stroke-width:0.196352;stroke-linecap:square;stroke-linejoin:round;stop-color:#000000"
       d="m 100.5745,137.27999 -17.711413,0.44039 -8.555408,13.48147 8.850727,14.99222 16.633911,1.02541 9.632913,-14.94726 z"
       sodipodi:nodetypes="ccccccc" /><path
       id="path20205"
       style="fill:#2c233a;fill-opacity:1;stroke-width:1.18247;stroke-linecap:square;stroke-linejoin:round;stop-color:#000000"
       d="M 76.84449,110.64311 41.512318,81.722611 83.969367,65.543304 Z"
       sodipodi:nodetypes="cccc" /><path
       id="path20207"
       style="fill:#211b2e;fill-opacity:1;stroke-width:0.766659;stroke-linecap:square;stroke-linejoin:round;stop-color:#000000"
       d="M 73.391556,101.58209 50.483899,82.831425 78.010982,72.341545 Z"
       sodipodi:nodetypes="cccc" /><path
       id="path20209"
       style="fill:#ffc5fd;fill-opacity:0.103448;stroke:none;stroke-width:4.20963;stroke-linecap:square;stroke-linejoin:round;stroke-dasharray:none;stroke-opacity:1;stop-color:#000000"
       d="M 41.023438 93.439453 L 8.7714844 104.26953 L 7.8554688 108.87305 L 65.492188 120.99219 L 54.994141 152.60547 L 62.492188 150.14258 L 69.484375 115.00586 L 41.023438 93.439453 z " /><path
       id="path20211"
       style="fill:#ffc5fd;fill-opacity:0.103448;stroke:none;stroke-width:4.00327;stroke-linecap:square;stroke-linejoin:round;stroke-dasharray:none;stroke-opacity:1;stop-color:#000000"
       d="M 76.844009,110.643 51.552374,89.94148 79.918676,91.179641 Z" /><path
       id="path20213"
       style="fill:#ffc5fd;fill-opacity:0.103448;stroke:none;stroke-width:3.30461;stroke-linecap:square;stroke-linejoin:round;stroke-dasharray:none;stroke-opacity:1;stop-color:#000000"
       d="m 118.88026,112.12291 -37.387485,10.61855 0.965759,-7.20655 37.088206,-8.38618 z" /><path
       id="path20215"
       style="fill:#ffc5fd;fill-opacity:0.103448;stroke:none;stroke-width:3.57425;stroke-linecap:square;stroke-linejoin:round;stroke-dasharray:none;stroke-opacity:1;stop-color:#000000"
       d="m 102.50632,172.47991 -22.458799,-1.38336 -2.989121,-5.06363 17.578965,-2.98148 10.898395,-27.65418 9.97734,16.901 z" /></g><path
     id="rect21522"
     style="fill:#0d0d15;fill-opacity:1;stroke-width:2.06099;stroke-linecap:square;stroke-linejoin:round;stop-color:#000000"
     d="m 29.877105,197.6814 16.13676,11.3083 8.915822,23.7144 1.819321,-24.50756 L 72.142279,189.08765 61.940341,175.97087 26.907182,174.01326 0,153.75778 21.543198,179.74913 Z"
     sodipodi:nodetypes="cccccccccc" /><path
     id="path21525"
     style="fill:#1d1d29;fill-opacity:1;stroke-width:1.20459;stroke-linecap:square;stroke-linejoin:round;stop-color:#000000"
     d="m 36.387245,196.08389 13.203293,9.25258 11.499642,-14.27542 -5.962776,-7.66643 -25.128848,-1.05743 z"
     sodipodi:nodetypes="cccccc" /><path
     id="rect22960"
     style="fill:#0d0d15;stroke-width:2.17444;stroke-linecap:square;stroke-linejoin:round;stop-color:#000000;fill-opacity:1"
     d="m 259.24145,168.24658 33.66005,-12.34739 -10.77121,41.3369 -8.07842,-20.40003 z"
     sodipodi:nodetypes="ccccc" /><path
     id="path22963"
     style="fill:#1d1d29;fill-opacity:1;stroke-width:1.02999;stroke-linecap:square;stroke-linejoin:round;stop-color:#000000"
     d="m 268.68988,170.26397 15.94425,-5.84876 -5.10216,19.58064 -3.82662,-9.66317 z"
     sodipodi:nodetypes="ccccc" /><path
     id="rect19531"
     style="clip-rule:evenodd;opacity:0.296053;fill:#fcceff;fill-opacity:0.897059;fill-rule:evenodd;stroke-width:1.3179;stroke-linecap:round;stroke-linejoin:round;stroke-miterlimit:2;stop-color:#000000"
     d="M 234.60743,51.083133 0,138.41516 V 217.0343 L 300,105.36048 V 87.463993 c 0,-20.15448 -16.22638,-36.38086 -36.38086,-36.38086 z M 300,115.60266 0,227.27649 v 28.26367 L 300,143.86243 Z" /><g
     id="g24490"
     transform="matrix(0.74194269,0,0,0.79531337,38.836576,52.631664)"
     style="filter:url(#filter24954)"><path
       id="rect23586"
       style="fill:#2c233a;fill-opacity:1;stroke-width:1.83387;stroke-linecap:square;stroke-linejoin:round;stop-color:#000000"
       d="m 160.46196,283.72884 9.5067,-32.73348 -34.07727,9.10839 z"
       sodipodi:nodetypes="cccc" /><path
       id="path24417"
       style="fill:#312741;fill-opacity:1;stroke-width:1.30991;stroke-linecap:square;stroke-linejoin:round;stop-color:#000000"
       d="m 159.38597,279.70322 6.7905,-23.38105 -24.34091,6.50599 z"
       sodipodi:nodetypes="cccc" /></g></svg>
