<?xml version="1.0" encoding="UTF-8" standalone="no"?><!DOCTYPE svg PUBLIC "-//W3C//DTD SVG 1.1//EN" "http://www.w3.org/Graphics/SVG/1.1/DTD/svg11.dtd"><svg width="100%" height="100%" viewBox="0 0 300 300" version="1.1" xmlns="http://www.w3.org/2000/svg" xmlns:xlink="http://www.w3.org/1999/xlink" xml:space="preserve" xmlns:serif="http://www.serif.com/" style="fill-rule:evenodd;clip-rule:evenodd;stroke-linejoin:round;stroke-miterlimit:2;"><g id="trading"><path d="M221.254,205.699c-6.539,0.855 -8.112,2.146 -10.887,8.129c-9.815,21.158 -59.993,32.549 -104.28,32.549c-49.341,0 -89.399,-21.135 -89.399,-47.168c-0,-6.459 2.465,-12.615 6.926,-18.223c6.348,-7.947 9.789,-17.826 9.751,-27.997c0.014,-0.029 0.013,-0.057 0.013,-0.085c0,-5.771 2.834,-11.191 7.794,-15.88c1.534,-1.459 2.207,-3.606 1.781,-5.68c-0.427,-2.073 -1.892,-3.78 -3.877,-4.516c-10.275,-3.722 -20.501,-7.843 -20.2,-19.822c0.302,-12.034 11.675,-20.348 30.382,-24.058c21.316,-4.226 24.378,-9.931 50.001,-19.283c16.282,-5.943 28.238,-5.289 50.741,0.226c15.726,3.853 27.716,-4.039 42.418,-4.039c23.095,-0 43.169,6.99 53.254,17.237c22.061,4.785 37.64,16.383 37.64,29.917c0,14.136 -30.453,24.172 -57.655,27.999c-1.211,0.165 -2.151,1.137 -2.278,2.353c-0.126,1.215 0.595,2.36 1.746,2.771c18.789,6.649 43.179,18.111 43.842,35.973c0.557,15.021 -28.765,27.118 -47.713,29.597Z" style="fill:#f9e594;"/><path d="M221.254,205.699c-6.539,0.855 -8.112,2.146 -10.887,8.129c-9.815,21.158 -59.993,32.549 -104.28,32.549c-49.341,0 -89.399,-21.135 -89.399,-47.168c-0,-6.459 2.465,-12.615 6.926,-18.223c6.348,-7.947 9.789,-17.826 9.751,-27.997c0.014,-0.029 0.013,-0.057 0.013,-0.085c0,-5.771 2.834,-11.191 7.794,-15.88c1.534,-1.459 2.207,-3.606 1.781,-5.68c-0.427,-2.073 -1.892,-3.78 -3.877,-4.516c-10.275,-3.722 -20.501,-7.843 -20.2,-19.822c0.302,-12.034 11.675,-20.348 30.382,-24.058c21.316,-4.226 24.378,-9.931 50.001,-19.283c16.282,-5.943 28.238,-5.289 50.741,0.226c15.726,3.853 27.716,-4.039 42.418,-4.039c23.095,-0 43.169,6.99 53.254,17.237c22.061,4.785 37.64,16.383 37.64,29.917c0,14.136 -30.453,24.172 -57.655,27.999c-1.211,0.165 -2.151,1.137 -2.278,2.353c-0.126,1.215 0.595,2.36 1.746,2.771c18.789,6.649 43.179,18.111 43.842,35.973c0.557,15.021 -28.765,27.118 -47.713,29.597Zm59.163,-99.087c0.009,-2.913 -4.145,-9.149 -11.812,-13.202c-6.064,-3.206 -12.127,-10.791 -21.096,-12.736c-2.357,-0.512 -8.424,-7.275 -18.735,-11.683c-9.045,-3.865 -13.905,-1.548 -26.493,-5.539c-7.348,-2.329 -18.758,-0.458 -24.7,0.845c-8.566,1.878 -20.363,3.799 -30.265,1.372c-19.311,-4.732 -35.298,1.609 -49.27,6.709c-26.533,9.685 -25.704,8.025 -47.776,12.401c-5.904,1.171 -10.959,2.922 -16.981,6.377c-7.712,4.425 -10.338,9.784 -10.417,12.896c-0.049,1.955 -1.072,12.055 13.429,16.918c0.028,0.009 0.056,0.02 0.085,0.031c5.997,2.222 17.422,1.582 18.71,7.846c1.288,6.265 -8.149,8.419 -12.049,10.962c-0.012,0.007 -0.018,0.019 -0.029,0.027c-3.031,2.186 -5.216,5.89 -5.187,10.688c0.118,19.488 3.461,28.194 -4.515,38.18c-2.592,3.257 -4.231,6.753 -4.231,10.505c0,6.837 4.978,12.66 12.102,17.787c14.618,10.519 38.307,16.984 64.9,16.984c25.039,0 52.093,-3.757 71.714,-11.154c10.188,-3.842 18.439,-8.004 21.32,-14.215c2.539,-5.474 4.952,-8.505 7.802,-10.66c2.93,-2.215 6.572,-3.74 12.723,-4.545c9.679,-1.266 38.01,-5.582 44.196,-12.647c3.811,-4.351 -4.038,-18.164 -15.875,-23.534c-8.479,-3.846 -9.161,-10.56 -17.581,-13.54l-0.03,-0.01c-6.534,-2.332 -12.16,-4.696 -11.444,-11.596c0.716,-6.9 27.41,-5.504 34.274,-6.085c14.821,-1.255 27.203,-10.07 27.231,-19.382Z" style="fill:#dfc86d;"/><g><path d="M44.733,101.591l210.5,3.842l2.713,3.986c0.145,0.185 0.269,0.367 0.37,0.544c0.785,1.372 0.264,2.502 -1.668,2.934l-75.798,16.936l50.096,31.567l5.351,-0l2.401,6.004c0.155,0.282 0.264,0.555 0.327,0.818c0.309,1.279 -0.475,2.289 -2.422,2.724l-61.512,13.745l8.904,5.61l8.182,0l1.289,7.425c0.211,1.009 -0.431,1.804 -1.98,2.151l-83.064,18.559c-3.14,0.702 -8.823,-0.704 -12.685,-3.138l-50.791,-32.004c-2.486,-1.567 -3.615,-3.18 -3.265,-4.318c0.036,-0.119 0.089,-0.233 0.159,-0.342l3.219,-6.914l6.559,4.111l32.939,-7.36l-28.495,-17.955c-3.021,-1.904 -4.415,-3.863 -4.04,-5.261c0.058,-0.213 0.156,-0.414 0.297,-0.599l2.665,-5.391l4.663,3.092l25.815,-5.768l-40.802,-25.711c-2.573,-1.621 -3.692,-3.293 -3.223,-4.435c0.073,-0.177 0.184,-0.342 0.334,-0.492l2.962,-4.36Z" style="fill:#669e2c;"/><path d="M127.979,82.287l62.62,-13.991c3.044,-0.681 8.556,0.683 12.301,3.043l49.256,31.037c3.745,2.36 4.313,4.828 1.269,5.508l-73.507,16.425l52.504,33.084c4.614,2.907 5.314,5.948 1.563,6.786l-59.652,13.329l14.63,9.219c3.745,2.359 4.313,4.827 1.269,5.508l-80.553,17.998c-3.045,0.681 -8.557,-0.683 -12.302,-3.043l-49.256,-31.037c-3.744,-2.36 -4.313,-4.828 -1.269,-5.508l39.683,-8.867l-27.633,-17.412c-4.614,-2.907 -5.315,-5.948 -1.564,-6.786l30.075,-6.72l-39.569,-24.934c-3.745,-2.359 -4.313,-4.827 -1.269,-5.508l80.553,-17.998c0.266,-0.06 0.55,-0.104 0.851,-0.133Z" style="fill:#8bc350;"/></g><path d="M97.749,245.946c-0.007,-0.001 -0.015,0.004 -0.007,0.04c0.014,-0 0.026,0.011 0.026,0.025c-0,0.014 -0.012,0.026 -0.026,0.026c-0.021,0.039 0.007,0.034 -0.031,0.057c-0.081,0.049 -0.189,0.006 -0.284,0.007c-0.944,0.017 -1.891,-0.011 -2.839,-0.062c-2.447,-0.132 -4.897,-0.433 -7.321,-0.66c-1.968,-0.165 -3.94,-0.276 -5.907,-0.46c-0.847,-0.079 -1.692,-0.171 -2.536,-0.288c-2.349,-0.339 -4.689,-0.759 -7.012,-1.27c-3.479,-0.766 -6.92,-1.719 -10.327,-2.713c-2.19,-0.648 -4.392,-1.225 -6.569,-1.891c-1.46,-0.447 -2.908,-0.938 -4.338,-1.5c-0.922,-0.369 -1.813,-0.776 -2.688,-1.211c-1.304,-0.65 -2.572,-1.359 -3.864,-2.073c-2.906,-1.609 -5.975,-3.46 -8.836,-5.507c-1.143,-0.817 -2.264,-1.651 -3.305,-2.543c-0.141,-0.121 -0.284,-0.24 -0.418,-0.368c-0.271,-0.259 -0.51,-0.542 -0.768,-0.81c-0.258,-0.269 -0.522,-0.528 -0.774,-0.796c-0.021,-0.02 -0.022,-0.054 -0.001,-0.075c0.02,-0.02 0.054,-0.021 0.075,-0.001c0.645,0.558 1.336,1.074 2.022,1.618c0.779,0.617 1.549,1.266 2.37,1.862c0.81,0.587 1.651,1.143 2.501,1.685c2.469,1.577 5.047,2.991 7.499,4.252c1.301,0.671 2.58,1.335 3.889,1.946c0.863,0.403 1.739,0.783 2.646,1.122c1.413,0.538 2.845,0.995 4.285,1.428c2.177,0.655 4.373,1.247 6.56,1.897c2.818,0.848 5.663,1.65 8.528,2.368c1.144,0.287 2.292,0.556 3.441,0.818c1.726,0.392 3.455,0.761 5.195,1.068c1.105,0.199 2.215,0.356 3.329,0.493c1.679,0.205 3.363,0.365 5.042,0.567c2.072,0.23 4.163,0.504 6.255,0.697c1.255,0.115 2.51,0.194 3.762,0.225c0.126,0.003 0.251,0.008 0.377,0.01c0.01,0.001 0.021,-0.005 0.029,0.001c0.009,0.008 0.016,0.012 0.02,0.016Zm0,-0c0.008,0.001 0.015,0.01 0,-0Zm-80.328,-52.661c-0.005,0.019 -0.025,0.03 -0.044,0.025c-0.019,-0.005 -0.031,-0.025 -0.025,-0.044c-0.01,-0.05 -0.026,-0.083 -0.026,-0.133c0.001,-0.061 0.026,-0.119 0.04,-0.178c0.203,-0.87 0.433,-1.766 0.701,-2.65c0.302,-0.991 0.667,-1.962 1.127,-2.852c0.628,-1.247 1.311,-2.472 2.027,-3.68c1.072,-1.807 2.217,-3.575 3.365,-5.319c0.888,-1.322 1.837,-2.571 2.702,-3.889c0.361,-0.551 0.709,-1.112 1.027,-1.7c0.336,-0.618 0.636,-1.259 0.92,-1.908c0.432,-0.984 0.822,-1.991 1.2,-2.987c0.417,-1.053 0.818,-2.1 1.159,-3.169c0.224,-0.704 0.425,-1.415 0.578,-2.148c0.076,-0.355 0.132,-0.717 0.177,-1.081c0.069,-0.561 0.115,-1.126 0.173,-1.684c0.041,-0.4 0.075,-0.8 0.126,-1.198c0.119,-0.932 0.275,-1.851 0.401,-2.782c0.019,-0.141 0.042,-0.282 0.056,-0.424c0.055,-0.566 0.043,-1.137 0.089,-1.705c0.015,-0.179 0.044,-0.354 0.064,-0.532c0.001,-0.046 0.039,-0.082 0.084,-0.081c0.046,0.001 0.082,0.039 0.081,0.085c0.012,0.144 0.031,0.285 0.035,0.43c0.013,0.572 -0.062,1.142 -0.077,1.713c-0.026,1.075 0.015,2.143 -0.02,3.22c-0.015,0.445 -0.048,0.889 -0.07,1.334c-0.03,0.565 -0.048,1.138 -0.09,1.708c-0.028,0.392 -0.069,0.781 -0.131,1.165c-0.158,0.965 -0.388,1.902 -0.666,2.826c-0.275,0.914 -0.599,1.813 -0.928,2.718c-0.385,1.015 -0.776,2.043 -1.223,3.043c-0.303,0.676 -0.632,1.339 -0.992,1.98c-0.458,0.812 -0.965,1.579 -1.5,2.323c-0.789,1.097 -1.636,2.147 -2.432,3.258c-1.224,1.678 -2.447,3.378 -3.596,5.124c-0.766,1.164 -1.497,2.346 -2.176,3.553c-0.377,0.689 -0.689,1.433 -0.969,2.194c-0.38,1.029 -0.692,2.094 -1.002,3.112c-0.021,0.07 -0.03,0.145 -0.065,0.209c-0.027,0.051 -0.063,0.079 -0.1,0.124Zm102.979,52.776c-0.027,-0 -0.049,-0.022 -0.049,-0.049c-0,-0.026 0.021,-0.048 0.048,-0.048c0.055,-0.021 0.097,-0.047 0.155,-0.058c0.202,-0.039 0.412,-0.013 0.618,-0.021c1.156,-0.043 2.315,-0.099 3.476,-0.204c1.153,-0.104 2.301,-0.268 3.456,-0.414c0.851,-0.108 1.702,-0.219 2.555,-0.329c0.851,-0.109 1.704,-0.21 2.555,-0.325c4.292,-0.582 8.565,-1.327 12.736,-2.041c0.997,-0.17 1.997,-0.325 3,-0.454c1.493,-0.193 2.991,-0.341 4.479,-0.563c1.413,-0.186 2.831,-0.428 4.241,-0.722c1.417,-0.296 2.824,-0.644 4.228,-0.936c1.351,-0.261 2.741,-0.446 4.105,-0.659c0.206,-0.033 0.408,-0.068 0.616,-0.081c0.148,-0.01 0.281,0.004 0.43,0.003c0.004,-0.002 0.009,0.001 0.01,0.006c0.002,0.004 -0.001,0.009 -0.006,0.01c-0.126,0.081 -0.234,0.161 -0.37,0.226c-0.191,0.092 -0.392,0.154 -0.596,0.213c-1.323,0.388 -2.73,0.525 -4.066,0.848c-1.34,0.303 -2.692,0.62 -4.036,0.966c-0.9,0.231 -1.791,0.49 -2.692,0.701c-0.569,0.133 -1.14,0.249 -1.71,0.358c-1.242,0.23 -2.489,0.435 -3.74,0.612c-1.241,0.174 -2.485,0.319 -3.721,0.517c-5.025,0.79 -10.192,1.675 -15.37,2.16c-1.086,0.102 -2.171,0.178 -3.257,0.23c-1.092,0.052 -2.179,0.056 -3.265,0.076c-0.935,0.017 -1.866,0.042 -2.795,0.04c-0.276,-0.001 -0.555,0.031 -0.828,-0.007c-0.074,-0.01 -0.136,-0.036 -0.207,-0.055Zm94.42,-38.372c-0.027,0.013 -0.059,0.001 -0.072,-0.026c-0.012,-0.027 -0.001,-0.059 0.026,-0.071c0.183,-0.119 0.356,-0.24 0.547,-0.341c0.127,-0.066 0.261,-0.116 0.391,-0.172c1.32,-0.56 2.687,-0.945 4.079,-1.249c2.406,-0.525 4.88,-0.818 7.332,-1.182c1.608,-0.239 3.206,-0.502 4.757,-0.96c2.314,-0.665 4.597,-1.465 6.853,-2.344c1.217,-0.475 2.422,-0.983 3.628,-1.487c0.806,-0.337 1.613,-0.669 2.416,-1.009c0.403,-0.17 0.803,-0.343 1.207,-0.508c0.95,-0.389 1.901,-0.755 2.846,-1.14c0.377,-0.157 0.753,-0.318 1.121,-0.501c1.471,-0.732 2.872,-1.645 4.295,-2.475c0.108,-0.063 0.212,-0.132 0.323,-0.188c0.17,-0.086 0.34,-0.163 0.52,-0.224c0.212,-0.071 0.41,-0.103 0.627,-0.154c0.003,-0.002 0.006,-0.001 0.007,0.002c0.002,0.002 0.001,0.005 -0.002,0.006c-0.158,0.156 -0.286,0.309 -0.455,0.456c-0.141,0.123 -0.291,0.232 -0.447,0.338c-0.103,0.069 -0.213,0.127 -0.319,0.192c-1.417,0.857 -2.841,1.742 -4.278,2.556c-0.367,0.208 -0.728,0.42 -1.098,0.616c-1.073,0.576 -2.14,1.163 -3.238,1.709c-0.983,0.488 -1.982,0.947 -2.99,1.389c-0.671,0.295 -1.351,0.572 -2.031,0.847c-2.846,1.151 -5.741,2.177 -8.68,2.998c-1.612,0.436 -3.265,0.706 -4.937,0.879c-2.454,0.254 -4.939,0.313 -7.36,0.696c-1.382,0.218 -2.741,0.537 -4.064,1.021c-0.131,0.048 -0.259,0.105 -0.392,0.149c-0.203,0.067 -0.407,0.113 -0.612,0.177Zm8.64,-70.845c-0.013,0.019 -0.039,0.024 -0.058,0.011c-0.02,-0.013 -0.025,-0.039 -0.012,-0.058c-0.078,-0.103 -0.067,0.032 -0.073,-0.097c-0.002,-0.053 0.057,-0.089 0.086,-0.132c0.361,-0.535 0.784,-0.94 1.258,-1.258c0.786,-0.527 1.715,-0.804 2.741,-1.044c1.147,-0.268 2.304,-0.481 3.467,-0.668c1.732,-0.278 3.474,-0.499 5.204,-0.776c2.583,-0.39 5.044,-0.867 7.484,-1.439c2.431,-0.571 4.841,-1.238 7.314,-2.087c2.301,-0.78 4.701,-1.536 7.143,-2.328c1.64,-0.531 3.297,-1.084 4.953,-1.686c0.491,-0.178 0.977,-0.369 1.472,-0.542c0.213,-0.074 0.427,-0.137 0.642,-0.206c0.213,-0.068 0.421,-0.139 0.636,-0.203c0.325,-0.097 0.645,-0.176 0.972,-0.27c0.064,-0.029 0.14,-0.001 0.17,0.063c0.029,0.064 0.001,0.14 -0.063,0.169c-0.286,0.189 -0.559,0.377 -0.853,0.552c-0.291,0.174 -0.585,0.335 -0.886,0.487c-0.452,0.229 -0.912,0.432 -1.374,0.631c-0.464,0.2 -0.933,0.384 -1.401,0.567c-1.47,0.576 -2.942,1.109 -4.406,1.608c-2.263,0.772 -4.501,1.468 -6.644,2.211c-2.511,0.86 -4.953,1.563 -7.427,2.116c-2.475,0.553 -4.98,0.957 -7.6,1.296c-2.03,0.244 -4.072,0.415 -6.1,0.678c-0.864,0.112 -1.726,0.24 -2.583,0.4c-0.807,0.15 -1.549,0.332 -2.217,0.645c-0.6,0.281 -1.139,0.666 -1.608,1.243c-0.039,0.047 -0.057,0.123 -0.115,0.144c-0.103,0.038 -0.015,-0.004 -0.122,-0.027Zm-165.822,108.312c-0.055,-0.018 -0.085,-0.076 -0.068,-0.131c0.017,-0.055 0.076,-0.086 0.131,-0.069c0.255,0.007 0.485,-0.019 0.738,0.022c0.233,0.038 0.453,0.136 0.679,0.206c2.824,0.872 5.649,1.851 8.509,2.722c1.219,0.371 2.444,0.715 3.672,1.045c1.213,0.326 2.43,0.623 3.649,0.906c1.829,0.424 3.663,0.805 5.514,1.063c1.841,0.263 3.696,0.41 5.555,0.521c1.244,0.074 2.49,0.134 3.736,0.186c0.402,0.016 0.803,0.028 1.204,0.051c0.94,0.052 1.879,0.098 2.813,0.199c1.129,0.122 2.224,0.323 3.339,0.509c0.005,0 0.008,0.004 0.008,0.009c-0,0.005 -0.004,0.008 -0.009,0.008c-1.126,0.067 -2.23,0.191 -3.36,0.245c-1.005,0.048 -2.011,0.046 -3.018,0.049c-0.672,0.002 -1.344,-0.013 -2.015,-0.029c-2.817,-0.067 -5.63,-0.229 -8.415,-0.617c-1.885,-0.274 -3.76,-0.644 -5.615,-1.118c-1.226,-0.314 -2.442,-0.678 -3.655,-1.057c-1.221,-0.382 -2.434,-0.796 -3.648,-1.207c-2.833,-0.958 -5.657,-1.938 -8.458,-2.881c-0.224,-0.075 -0.459,-0.123 -0.671,-0.227c-0.229,-0.112 -0.401,-0.266 -0.615,-0.405Zm-10.42,0.386c-0.139,-0.054 -0.209,-0.21 -0.155,-0.349c0.053,-0.139 0.209,-0.208 0.348,-0.155c0.348,0.109 0.696,0.21 1.04,0.331c0.513,0.18 1.017,0.387 1.523,0.587c3.369,1.334 6.703,2.719 10.046,4.115c0.624,0.261 1.263,0.492 1.863,0.81c0.417,0.221 0.768,0.493 1.169,0.743c0.019,0.007 0.029,0.028 0.022,0.047c-0.007,0.019 -0.028,0.028 -0.047,0.021c-0.47,-0.064 -0.915,-0.089 -1.376,-0.2c-0.663,-0.16 -1.295,-0.424 -1.932,-0.664c-3.391,-1.279 -6.668,-2.814 -10.015,-4.207c-0.5,-0.208 -1.005,-0.405 -1.501,-0.623c-0.332,-0.145 -0.655,-0.305 -0.985,-0.456Zm-21.389,-78.099c-0.011,0.03 -0.045,0.044 -0.074,0.033c-0.03,-0.011 -0.044,-0.045 -0.033,-0.074c0.038,-0.161 0.067,-0.32 0.116,-0.479c0.032,-0.103 0.077,-0.203 0.116,-0.304c0.385,-1.008 0.785,-2.016 1.105,-3.046c0.265,-0.851 0.474,-1.716 0.574,-2.607c0.137,-1.27 0.187,-2.555 0.193,-3.846c0.01,-1.949 -0.076,-3.905 0.077,-5.839c0.112,-1.411 0.349,-2.805 0.77,-4.175c0.478,-1.486 1.203,-2.831 2.055,-4.105c0.945,-1.413 2.031,-2.75 3.106,-4.09c0.452,-0.563 0.909,-1.12 1.34,-1.695c0.11,-0.148 0.215,-0.299 0.328,-0.444c0.264,-0.343 0.533,-0.674 0.796,-1.017c0.051,-0.066 0.097,-0.133 0.154,-0.194c0.248,-0.266 0.499,-0.455 0.755,-0.714c0.003,-0.006 0.011,-0.008 0.017,-0.005c0.006,0.003 0.008,0.01 0.005,0.016c-0.055,0.349 -0.091,0.651 -0.188,0.99c-0.023,0.08 -0.053,0.154 -0.085,0.231c-0.166,0.394 -0.367,0.767 -0.583,1.137c-0.091,0.157 -0.192,0.308 -0.293,0.459c-0.663,0.995 -1.398,1.947 -2.14,2.891c-1.685,2.148 -3.406,4.257 -4.272,6.866c-0.449,1.287 -0.702,2.607 -0.876,3.942c-0.248,1.904 -0.345,3.835 -0.447,5.762c-0.069,1.302 -0.14,2.599 -0.319,3.879c-0.124,0.911 -0.358,1.794 -0.65,2.661c-0.347,1.028 -0.773,2.033 -1.186,3.037c-0.041,0.1 -0.077,0.203 -0.124,0.3c-0.071,0.149 -0.158,0.285 -0.237,0.43Zm227.469,-33.456c-0.031,0.01 -0.064,-0.008 -0.074,-0.039c-0.009,-0.032 0.008,-0.065 0.04,-0.075c0.154,-0.103 0.277,-0.215 0.443,-0.298c0.61,-0.308 1.28,-0.469 1.918,-0.702c3.224,-1.177 6.354,-2.474 9.374,-4.01c1.588,-0.809 3.146,-1.677 4.69,-2.584c1.024,-0.601 2.042,-1.217 3.051,-1.857c0.258,-0.164 0.513,-0.333 0.774,-0.495c0.391,-0.242 0.786,-0.476 1.184,-0.711c0.442,-0.26 0.887,-0.508 1.332,-0.77c0.057,-0.04 0.136,-0.027 0.176,0.03c0.04,0.058 0.026,0.137 -0.031,0.177c-0.398,0.331 -0.788,0.661 -1.195,0.978c-0.366,0.286 -0.736,0.563 -1.114,0.829c-0.253,0.178 -0.513,0.344 -0.771,0.513c-1.006,0.66 -2.021,1.3 -3.051,1.909c-1.554,0.918 -3.139,1.77 -4.747,2.573c-3.057,1.524 -6.195,2.893 -9.488,3.954c-0.651,0.209 -1.293,0.479 -1.975,0.575c-0.184,0.025 -0.349,0.003 -0.536,0.003Zm-39.037,83.381c-0.003,0.049 -0.046,0.087 -0.095,0.084c-0.05,-0.003 -0.087,-0.046 -0.084,-0.095c-0.018,-0.4 -0.006,-0.775 0.065,-1.133c0.077,-0.386 0.219,-0.743 0.389,-1.08c0.498,-0.985 1.315,-1.776 2.301,-2.485c1.611,-1.166 3.312,-1.682 5.057,-1.946c1.583,-0.24 3.205,-0.303 4.853,-0.275c1.052,0.018 2.11,0.077 3.17,0.056c0.5,-0.006 0.997,-0.053 1.492,-0.12c0.759,-0.102 1.511,-0.255 2.255,-0.429c1.722,-0.371 3.432,-0.781 5.145,-1.189c0.736,-0.175 1.466,-0.364 2.206,-0.52c0.623,-0.131 1.242,-0.225 1.868,-0.343c0.035,-0.011 0.073,0.009 0.084,0.045c0.01,0.036 -0.01,0.073 -0.046,0.084c-0.617,0.258 -1.22,0.525 -1.846,0.76c-0.267,0.1 -0.536,0.188 -0.807,0.277c-2.101,0.692 -4.224,1.302 -6.356,1.894c-0.644,0.167 -1.294,0.325 -1.952,0.437c-0.671,0.115 -1.348,0.182 -2.03,0.19c-1.079,0.006 -2.157,-0.031 -3.226,-0.101c-1.601,-0.105 -3.179,-0.281 -4.73,-0.127c-1.664,0.164 -3.28,0.669 -4.829,1.741c-0.769,0.537 -1.42,1.133 -1.906,1.831c-0.297,0.427 -0.515,0.896 -0.691,1.409c-0.113,0.327 -0.224,0.662 -0.287,1.035Zm52.87,-57.532c-0.073,-0.041 -0.1,-0.133 -0.06,-0.206c0.04,-0.073 0.132,-0.1 0.205,-0.06c0.535,0.27 1.057,0.564 1.55,0.901c1.979,1.352 3.588,3.211 4.779,5.286c0.747,1.3 1.292,2.706 1.69,4.149c0.201,0.727 0.385,1.458 0.488,2.207c0.103,0.749 0.135,1.508 0.115,2.27c-0.042,0.863 -0.192,1.712 -0.459,2.529c-0.131,0.399 -0.277,0.794 -0.465,1.171c-0.191,0.384 -0.422,0.721 -0.638,1.088c-0.027,0.074 -0.109,0.113 -0.184,0.085c-0.074,-0.027 -0.112,-0.109 -0.085,-0.184c0.081,-0.466 0.131,-0.918 0.237,-1.383c0.076,-0.332 0.178,-0.657 0.269,-0.985c0.09,-0.324 0.19,-0.644 0.265,-0.971c0.105,-0.459 0.181,-0.924 0.211,-1.398c0.064,-0.72 0.067,-1.438 0.027,-2.154c-0.041,-0.726 -0.105,-1.448 -0.259,-2.157c-0.309,-1.421 -0.878,-2.781 -1.594,-4.05c-1.145,-2.029 -2.758,-3.78 -4.639,-5.162c-0.47,-0.345 -0.949,-0.679 -1.453,-0.976Zm-151.842,98.444c-0.005,-0.046 0.028,-0.089 0.075,-0.094c0.047,-0.006 0.09,0.028 0.095,0.074c0.053,0.027 0.05,-0 0.086,0.046c0.046,0.06 0.034,0.145 0.044,0.219c0.053,0.376 0.021,0.749 -0.041,1.116c-0.117,0.683 -0.397,1.335 -0.75,1.942c-0.545,0.896 -1.301,1.612 -2.186,2.092c-0.897,0.486 -1.929,0.715 -3.008,0.651c-0.815,-0.064 -2.242,-0.391 -3.438,-1.509c-0.248,-0.232 -0.487,-0.497 -0.699,-0.806c-0.276,-0.403 -0.549,-0.858 -0.697,-1.409c-0.057,-0.214 -0.127,-0.427 -0.103,-0.662c0.021,-0.206 0.088,-0.288 0.164,-0.49c0.161,0.135 0.261,0.16 0.397,0.308c0.097,0.106 0.159,0.221 0.228,0.339c0.287,0.487 0.552,0.913 0.855,1.276c0.347,0.417 0.71,0.756 1.086,1.019c0.856,0.599 1.741,0.835 2.297,0.889c0.889,0.1 1.748,-0.052 2.512,-0.41c0.786,-0.368 1.476,-0.938 1.995,-1.678c0.308,-0.425 0.573,-0.882 0.75,-1.37c0.142,-0.39 0.221,-0.796 0.247,-1.217c0.005,-0.085 -0.017,-0.175 0.017,-0.253c0.022,-0.051 0.036,-0.033 0.074,-0.073Zm63.727,-13.596c-0.003,-0.053 0.036,-0.097 0.089,-0.101c0.052,-0.003 0.096,0.037 0.1,0.089c0.029,0.095 0.06,0.183 0.072,0.283c0.027,0.219 -0.013,0.443 -0.039,0.666c-0.056,0.482 -0.175,0.96 -0.351,1.395c-0.205,0.517 -0.475,0.996 -0.815,1.426c-0.341,0.432 -0.757,0.801 -1.208,1.13c-0.282,0.202 -0.557,0.401 -0.852,0.567c-0.213,0.12 -0.438,0.22 -0.681,0.297c-0.821,0.251 -1.625,0.269 -2.404,0.118c-0.753,-0.145 -1.48,-0.448 -2.183,-0.815c-0.313,-0.168 -0.633,-0.336 -0.923,-0.551c-0.196,-0.146 -0.371,-0.314 -0.545,-0.485c-0.352,-0.343 -0.668,-0.712 -0.914,-1.137c-0.024,-0.042 -0.061,-0.079 -0.072,-0.127c-0.025,-0.099 -0.001,-0.152 0.007,-0.254c-0.027,-0.047 -0.01,-0.107 0.037,-0.133c0.047,-0.027 0.107,-0.01 0.133,0.037c0.081,0.041 0.133,0.038 0.205,0.092c0.021,0.016 0.035,0.038 0.052,0.058c0.222,0.267 0.457,0.515 0.733,0.722c0.261,0.195 0.555,0.331 0.841,0.49c0.288,0.16 0.572,0.327 0.864,0.468c0.629,0.314 1.279,0.564 1.946,0.691c0.634,0.121 1.286,0.131 1.958,-0.064c0.184,-0.051 0.354,-0.123 0.517,-0.206c0.273,-0.141 0.529,-0.311 0.793,-0.483c0.413,-0.263 0.783,-0.576 1.12,-0.921c0.341,-0.351 0.652,-0.727 0.899,-1.158c0.144,-0.247 0.277,-0.51 0.37,-0.791c0.112,-0.337 0.138,-0.694 0.191,-1.037c0.014,-0.093 0.044,-0.175 0.06,-0.266Zm26.888,39.744c0.006,-0.018 0.027,-0.028 0.045,-0.022c0.019,0.006 0.028,0.026 0.022,0.045c-0.19,0.863 -0.604,1.75 -1.228,2.486c-0.641,0.755 -1.494,1.31 -2.347,1.627c-0.911,0.321 -1.948,0.36 -2.944,0.162c-0.989,-0.196 -1.933,-0.627 -2.678,-1.206c-0.255,-0.202 -0.538,-0.394 -0.727,-0.66c-0.085,-0.119 -0.171,-0.235 -0.193,-0.379c-0.021,-0.141 -0.002,-0.192 0.024,-0.333c-0.045,-0.083 -0.014,-0.188 0.069,-0.233c0.083,-0.045 0.188,-0.015 0.233,0.069c0.129,0.061 0.206,0.033 0.327,0.106c0.092,0.055 0.167,0.126 0.247,0.197c0.193,0.171 0.383,0.351 0.587,0.507c0.637,0.499 1.449,0.859 2.295,1.04c0.84,0.18 1.715,0.188 2.493,-0.062c0.639,-0.199 1.248,-0.589 1.816,-1.043c0.243,-0.195 0.485,-0.386 0.708,-0.604c0.526,-0.513 0.965,-1.086 1.251,-1.697Zm19.699,9.674c0.018,-0.046 0.071,-0.069 0.117,-0.051c0.046,0.019 0.069,0.071 0.05,0.117c-0.003,0.044 -0.001,0.083 -0.01,0.126c-0.074,0.368 -0.237,0.699 -0.382,1.033c-0.166,0.381 -0.364,0.743 -0.619,1.095c-0.335,0.48 -0.78,0.929 -1.298,1.295c-0.51,0.36 -1.088,0.622 -1.625,0.825c-0.471,0.164 -0.998,0.276 -1.531,0.318c-0.54,0.042 -1.084,0.013 -1.582,-0.105c-0.289,-0.066 -0.582,-0.17 -0.87,-0.294c-0.401,-0.173 -0.793,-0.387 -1.154,-0.585c-0.664,-0.365 -1.296,-0.826 -1.771,-1.416c-0.044,-0.056 -0.092,-0.109 -0.129,-0.17c-0.086,-0.147 -0.188,-0.292 -0.198,-0.464c-0.008,-0.162 0.029,-0.207 0.076,-0.364c-0.046,-0.106 0.002,-0.229 0.108,-0.275c0.105,-0.046 0.228,0.002 0.274,0.108c0.134,0.072 0.21,0.045 0.328,0.138c0.124,0.098 0.21,0.229 0.314,0.347c0.424,0.486 0.924,0.911 1.483,1.232c0.332,0.19 0.691,0.398 1.06,0.566c0.231,0.105 0.465,0.196 0.698,0.254c0.405,0.096 0.849,0.119 1.288,0.083c0.448,-0.037 0.892,-0.134 1.287,-0.275c0.35,-0.121 0.709,-0.288 1.068,-0.466c0.233,-0.116 0.466,-0.231 0.69,-0.363c0.385,-0.226 0.747,-0.47 1.041,-0.762c0.22,-0.226 0.409,-0.461 0.576,-0.713c0.236,-0.352 0.394,-0.744 0.622,-1.115c0.026,-0.044 0.058,-0.078 0.089,-0.119Zm34.288,-21.849c0.011,-0.053 0.062,-0.087 0.115,-0.077c0.052,0.01 0.087,0.061 0.077,0.114c0.012,0.026 0.023,0.035 0.029,0.063c0.029,0.167 -0.028,0.336 -0.057,0.505c-0.075,0.437 -0.213,0.862 -0.381,1.271c-0.248,0.603 -0.598,1.156 -1.066,1.628c-0.404,0.406 -0.88,0.783 -1.402,1.08c-0.534,0.303 -1.115,0.514 -1.694,0.625c-0.929,0.165 -1.935,0.066 -2.842,-0.279c-0.733,-0.278 -1.449,-0.676 -1.919,-1.289c-0.049,-0.064 -0.099,-0.126 -0.127,-0.202c-0.051,-0.136 -0.056,-0.233 -0.072,-0.378c-0.085,-0.123 -0.053,-0.292 0.07,-0.376c0.124,-0.085 0.292,-0.053 0.377,0.07c0.112,0.058 0.2,0.062 0.307,0.128c0.054,0.034 0.101,0.075 0.148,0.118c0.457,0.426 0.966,0.807 1.557,1.034c0.748,0.288 1.575,0.387 2.344,0.259c0.491,-0.075 0.981,-0.251 1.447,-0.477c0.479,-0.233 0.936,-0.512 1.325,-0.838c0.357,-0.296 0.65,-0.643 0.891,-1.028c0.261,-0.419 0.452,-0.878 0.621,-1.344c0.068,-0.185 0.098,-0.383 0.199,-0.551c0.015,-0.027 0.032,-0.034 0.053,-0.056Zm19.342,10.452c0.011,-0.052 0.063,-0.086 0.115,-0.075c0.052,0.011 0.086,0.063 0.075,0.115c0.02,0.099 0.043,0.173 0.044,0.273c0.001,0.038 -0.009,0.074 -0.015,0.11c-0.051,0.289 -0.143,0.563 -0.25,0.831c-0.182,0.454 -0.43,0.876 -0.734,1.257c-0.303,0.38 -0.669,0.71 -1.063,1c-1.123,0.826 -2.535,1.272 -3.947,1.206c-0.496,-0.024 -0.984,-0.13 -1.451,-0.296c-0.462,-0.164 -0.902,-0.389 -1.308,-0.652c-0.437,-0.287 -0.909,-0.581 -1.23,-0.998c-0.075,-0.098 -0.168,-0.192 -0.191,-0.314c-0.036,-0.19 0.001,-0.249 0.045,-0.44c-0.045,-0.086 -0.012,-0.192 0.074,-0.238c0.085,-0.045 0.192,-0.012 0.237,0.074c0.149,0.058 0.209,0.015 0.349,0.088c0.033,0.018 0.059,0.041 0.088,0.065c0.036,0.032 0.074,0.058 0.108,0.092c0.321,0.323 0.677,0.622 1.051,0.875c0.339,0.232 0.708,0.433 1.096,0.582c0.381,0.146 0.78,0.245 1.187,0.275c1.22,0.093 2.447,-0.269 3.443,-0.951c0.354,-0.243 0.674,-0.528 0.965,-0.841c0.294,-0.315 0.56,-0.653 0.773,-1.029c0.129,-0.227 0.239,-0.462 0.339,-0.707c0.013,-0.032 0.023,-0.064 0.041,-0.093c0.048,-0.082 0.104,-0.131 0.159,-0.209Zm-3.742,5.862c0.039,-0.011 0.079,0.013 0.089,0.052c0.01,0.038 -0.013,0.078 -0.052,0.088c-1.214,0.4 -2.521,0.534 -3.746,0.257c-0.411,-0.093 -0.813,-0.235 -1.188,-0.433c-0.16,-0.085 -0.311,-0.184 -0.459,-0.291c-0.042,-0.03 -0.086,-0.057 -0.124,-0.093c-0.159,-0.151 -0.267,-0.314 -0.394,-0.495c-0.038,-0.031 -0.045,-0.086 -0.014,-0.124c0.03,-0.039 0.086,-0.045 0.124,-0.015c0.182,0.074 0.351,0.108 0.531,0.181c0.165,0.066 0.321,0.145 0.482,0.219c0.373,0.171 0.751,0.322 1.142,0.439c0.396,0.118 0.796,0.22 1.207,0.275c0.794,0.107 1.607,0.09 2.402,-0.06Zm-17.728,-10.938c-0.028,0.014 -0.063,0.002 -0.076,-0.027c-0.014,-0.028 -0.002,-0.062 0.026,-0.076c0.664,-0.376 1.208,-0.838 1.676,-1.363c0.299,-0.335 0.555,-0.7 0.797,-1.083c0.157,-0.251 0.303,-0.511 0.452,-0.776c0.095,-0.168 0.177,-0.344 0.293,-0.504c0.085,-0.119 0.183,-0.197 0.28,-0.309c0.016,-0.04 0.062,-0.06 0.102,-0.044c0.04,0.016 0.06,0.061 0.044,0.102c0.001,0.13 0.018,0.234 -0.004,0.361c-0.046,0.266 -0.167,0.508 -0.282,0.744c-0.257,0.523 -0.598,0.987 -0.981,1.401c-0.626,0.678 -1.399,1.199 -2.327,1.574Zm-33.736,21.323c0.086,-0.038 0.186,-0 0.225,0.086c0.038,0.085 -0,0.186 -0.086,0.224c-0.052,0.041 -0.096,0.084 -0.153,0.117c-0.496,0.295 -1.05,0.458 -1.608,0.563c-0.161,0.03 -0.326,0.074 -0.491,0.052c-0.133,-0.018 -0.213,-0.073 -0.339,-0.125c-0.021,0.001 -0.04,-0.015 -0.042,-0.036c-0.001,-0.021 0.015,-0.04 0.036,-0.042c0.112,-0.069 0.174,-0.138 0.291,-0.194c0.063,-0.03 0.128,-0.047 0.196,-0.064c0.599,-0.15 1.164,-0.357 1.762,-0.539c0.069,-0.021 0.138,-0.027 0.209,-0.042Zm-20.554,-9.228c0.048,-0.018 0.101,0.006 0.12,0.053c0.018,0.048 -0.005,0.102 -0.053,0.12c-1.22,0.532 -2.436,0.731 -3.622,0.601c-0.971,-0.106 -1.932,-0.414 -2.826,-0.958c-0.085,-0.052 -0.179,-0.095 -0.249,-0.168c-0.122,-0.126 -0.167,-0.256 -0.257,-0.411c-0.037,-0.026 -0.046,-0.077 -0.02,-0.114c0.026,-0.036 0.077,-0.045 0.114,-0.019c0.17,0.033 0.302,0.018 0.464,0.074c0.089,0.031 0.164,0.09 0.245,0.136c0.844,0.487 1.698,0.838 2.595,0.99c1.122,0.19 2.288,0.109 3.489,-0.304Zm-26.52,-38.369c0.092,-0.047 0.204,-0.01 0.251,0.081c0.047,0.092 0.01,0.205 -0.081,0.251c-0.738,0.402 -1.517,0.654 -2.319,0.744c-0.406,0.045 -0.818,0.06 -1.23,0.008c-0.122,-0.016 -0.243,-0.039 -0.362,-0.07c-0.276,-0.073 -0.537,-0.178 -0.805,-0.297c-0.063,-0.018 -0.1,-0.084 -0.083,-0.147c0.018,-0.063 0.084,-0.1 0.147,-0.082c0.315,0.042 0.619,0.038 0.927,0.058c0.46,0.029 0.911,0.064 1.36,0.029c0.75,-0.059 1.488,-0.239 2.195,-0.575Zm-66.007,14.176c0.049,-0.01 0.097,0.023 0.107,0.072c0.01,0.05 -0.023,0.098 -0.073,0.107c-0.882,0.213 -1.81,0.235 -2.695,0.034c-0.891,-0.203 -1.725,-0.635 -2.434,-1.221c-0.193,-0.172 -0.383,-0.35 -0.525,-0.565c-0.142,-0.216 -0.226,-0.447 -0.335,-0.681c-0.016,-0.02 -0.012,-0.05 0.009,-0.065c0.02,-0.016 0.05,-0.012 0.065,0.009c0.158,0.131 0.316,0.236 0.466,0.376c0.206,0.191 0.387,0.406 0.612,0.576c0.652,0.55 1.433,0.922 2.249,1.153c0.83,0.234 1.7,0.327 2.554,0.205Zm4.8,-2.476c-0.068,0.059 -0.172,0.052 -0.232,-0.016c-0.059,-0.068 -0.052,-0.172 0.016,-0.232c0.136,-0.172 0.235,-0.354 0.358,-0.529c0.179,-0.253 0.36,-0.499 0.505,-0.767c0.145,-0.266 0.25,-0.548 0.359,-0.836c0.045,-0.118 0.089,-0.231 0.149,-0.345c0.048,-0.092 0.105,-0.143 0.16,-0.233c0.006,-0.056 0.057,-0.097 0.113,-0.091c0.056,0.006 0.097,0.057 0.091,0.113c0.038,0.106 0.072,0.179 0.088,0.288c0.021,0.144 0.003,0.284 -0.021,0.425c-0.058,0.353 -0.207,0.681 -0.379,0.988c-0.171,0.304 -0.37,0.601 -0.633,0.839c-0.173,0.158 -0.368,0.275 -0.574,0.396Z" style="fill:#fff;"/><g><g><path d="M168.239,83.479c-3.105,-2.069 -6.379,-3.971 -9.357,-6.22c-1.669,-1.26 -3.619,-2.714 -4.404,-4.733c-1.294,-3.325 -0.07,-7.76 3.042,-9.309c1.85,-0.921 4.269,-0.958 5.958,-2.146c2.275,-1.599 2.946,-4.876 5.378,-6.378c1.865,-1.152 4.193,-1.502 6.337,-1.93c3.016,-0.602 6.53,-1.404 9.688,-0.938c1.598,0.236 3.129,1.097 4.58,1.801c2.235,1.082 4.499,2.1 6.678,3.303c0.57,0.315 1.097,0.704 1.568,1.155c2.342,2.244 1.241,5.329 1.948,8.02c0.728,2.768 2.655,5.131 3.495,7.873c0.534,1.746 0.457,3.523 0.2,5.267c-0.207,1.404 -0.471,2.745 -1.514,3.733c-0.86,0.815 -2.12,1.265 -3.224,1.683c-2.918,1.106 -6.615,2.023 -9.862,1.755c-2.238,-0.184 -4.58,-0.991 -6.804,-0.977c-2.998,0.019 -9.355,0.941 -13.707,-1.959Z" style="fill:#a5a39d;"/><path d="M184.931,83.188c1.28,0.24 2.566,0.538 3.819,0.642c3.247,0.268 6.944,-0.65 9.862,-1.756c1.104,-0.418 2.364,-0.868 3.224,-1.682c1.043,-0.989 1.307,-2.33 1.514,-3.734c0.053,-0.355 0.097,-0.711 0.131,-1.069c0.139,1.22 0.047,2.445 -0.131,3.655c-0.207,1.404 -0.471,2.745 -1.514,3.733c-0.86,0.815 -2.12,1.265 -3.224,1.683c-2.918,1.106 -6.615,2.023 -9.862,1.755c-2.238,-0.184 -4.58,-0.991 -6.804,-0.977c-2.998,0.019 -9.355,0.941 -13.707,-1.959c-3.105,-2.069 -6.379,-3.971 -9.357,-6.22c-1.669,-1.26 -3.619,-2.714 -4.404,-4.733c-0.499,-1.282 -0.624,-2.729 -0.41,-4.113c0.083,0.525 0.219,1.038 0.41,1.528c0.785,2.019 2.735,3.472 4.404,4.733c2.978,2.248 6.252,4.151 9.357,6.22c4.083,2.72 9.932,2.076 13.115,1.971c1.187,-1.343 1.55,-3.116 1.282,-5.218c0.27,2.045 0.775,3.996 2.295,5.541Zm-17.708,-22.342c-0.444,-0.338 -0.542,-0.792 -0.41,-1.021c0.284,-0.497 0.514,-1.078 0.974,-1.442c0.148,-0.117 0.467,-0.352 0.673,-0.287c0.386,0.122 0.751,0.562 1.057,0.813c0.518,0.423 1.13,0.786 1.71,1.115c2.258,1.279 4.721,2.287 6.731,3.981c1.123,0.945 1.697,2.364 2.554,3.514c0.773,1.037 1.633,2.037 1.992,3.306c0.086,0.306 0.113,0.635 0.12,0.952c0.001,0.057 0.014,0.278 -0.032,0.315c-0.058,0.044 -0.06,-0.133 -0.093,-0.198c-0.078,-0.151 -0.157,-0.304 -0.227,-0.459c-0.199,-0.439 -0.461,-0.877 -0.725,-1.282c-0.28,-0.431 -0.595,-0.866 -1.031,-1.153c-0.278,-0.182 -0.602,-0.222 -0.907,-0.34c-0.334,-0.128 -0.634,-0.332 -0.945,-0.506c-2.305,-1.297 -4.374,-2.973 -6.582,-4.426c-1.645,-1.082 -3.287,-1.682 -4.859,-2.882Z" style="fill:#8f8f8f;"/><path d="M158.608,63.99c0.722,-0.501 1.714,-1.111 2.569,-1.284c1.171,-0.236 2.346,-0.528 3.544,-0.329c2.171,0.361 3.718,1.993 5.399,3.267c0.817,0.619 1.721,1.04 2.642,1.479c0.443,0.211 0.886,0.42 1.327,0.637c1.76,0.866 4.454,1.747 4.149,4.262c-0.041,0.341 -0.124,0.671 -0.275,0.98c-0.745,1.524 -2.333,1.854 -3.745,1.077c-1.05,-0.579 -1.988,-1.317 -2.996,-1.961c-2.059,-1.314 -4.096,-2.665 -6.273,-3.782c-1.017,-0.521 -2.069,-0.972 -3.153,-1.337c-0.859,-0.288 -1.822,-0.388 -2.584,-0.913c-0.622,-0.428 -1.554,-1.438 -0.604,-2.096Zm20.446,-3.04c-1.086,-0.813 -2.18,-1.61 -3.485,-2.031c-0.952,-0.307 -2.708,-0.578 -3.299,-1.513c-0.526,-0.833 -0.324,-2.23 0.604,-2.694c0.773,-0.387 1.722,-0.406 2.564,-0.551c1.135,-0.196 2.238,-0.544 3.346,-0.848c2.289,-0.627 5.031,-1.388 7.406,-0.775c2.557,0.659 4.438,2.599 6.71,3.788c1.614,0.844 3.16,1.604 4.245,3.101c0.479,0.66 0.876,1.431 0.849,2.272c-0.028,0.872 -0.421,2.022 -1.321,2.342c-0.622,0.222 -1.322,0.174 -1.967,0.285c-1.036,0.18 -2.061,0.417 -3.06,0.748c-2.13,0.708 -4.175,1.594 -6.394,1.993c-1.031,0.185 -2.28,0.318 -3.25,-0.184c-0.968,-0.501 -0.771,-1.628 -1.055,-2.527c-0.345,-1.089 -1.22,-2.903 -1.893,-3.406Zm8.745,16.99c-1.169,-0.451 -2.863,-1.829 -2.008,-3.273c0.637,-1.077 2.095,-1.732 3.099,-2.423c0.745,-0.514 1.41,-1.238 2.197,-1.682c1.864,-1.052 3.858,-0.894 5.916,-0.807c0.931,0.039 1.995,-0.209 2.828,0.323c0.463,0.296 0.714,0.795 1.006,1.24c0.376,0.57 0.76,1.142 1.047,1.764c0.126,0.273 0.21,0.583 0.279,0.875c0.078,0.332 0.16,0.666 0.06,1.003c-0.132,0.445 -0.585,0.698 -0.964,0.916c-1.085,0.627 -2.293,0.668 -3.45,1.064c-1.683,0.576 -3.115,1.765 -4.795,2.315c-1.307,0.427 -3.977,-0.839 -5.215,-1.315Z" style="fill:#aeaeae;"/><path d="M153.994,69.05c1.139,0.335 2.28,0.888 3.417,1.275c1.245,0.424 2.63,0.825 3.607,1.819c0.922,0.938 2.074,2.485 2.342,3.736c0.094,0.44 0.127,0.884 0.131,1.331c0.076,0 0.151,0.002 0.225,0.005c1.08,0.045 1.994,0.487 2.799,1.145c0.854,0.698 1.562,1.684 2.315,2.382c0.755,0.699 1.709,1.413 2.117,2.396c0.223,0.538 0.297,1.125 0.241,1.702c-1.038,-0.315 -2.038,-0.755 -2.949,-1.362c-3.105,-2.069 -6.379,-3.971 -9.357,-6.22c-1.669,-1.26 -3.619,-2.714 -4.404,-4.733c-0.423,-1.086 -0.577,-2.291 -0.484,-3.476Z" style="fill:#717171;fill-opacity:0.25;"/></g><g><path d="M150.095,82.034c-1.356,-1.428 -4.269,-3.573 -4.34,-5.759c-0.047,-1.445 1.487,-2.411 2.36,-3.269c0.795,-0.784 1.01,-1.974 2.089,-2.458c2.232,-1.003 4.484,0.428 6.725,1.192c1.034,0.352 2.212,0.626 3.023,1.451c0.748,0.761 1.729,1.987 1.947,3.002c0.24,1.123 -0.011,2.283 0.034,3.404c0.037,0.926 0.389,2.196 -0.22,2.942c-0.642,0.788 -1.89,0.963 -2.872,1.11c-2.315,0.345 -6.789,0.604 -8.746,-1.615Z" style="fill:#a5a39d;"/><path d="M162.009,81.899c-0.052,0.237 -0.144,0.455 -0.296,0.64c-0.642,0.788 -1.89,0.963 -2.872,1.11c-2.315,0.345 -6.789,0.604 -8.746,-1.615c-1.356,-1.428 -4.269,-3.573 -4.34,-5.759c-0.027,-0.824 0.461,-1.493 1.047,-2.074c-0.143,0.3 -0.225,0.623 -0.214,0.975c0.071,2.185 2.984,4.331 4.34,5.759c1.957,2.218 6.431,1.959 8.746,1.614c0.753,-0.112 1.662,-0.241 2.335,-0.65Z" style="fill:#8f8f8f;"/><path d="M151.871,78.004c-1.08,-1.065 -1.782,-6.117 -0.914,-6.478c1.794,-0.748 3.591,0.32 5.384,0.889c0.826,0.263 1.769,0.468 2.414,1.083c0.595,0.568 1.375,1.482 1.544,2.238c0.186,0.838 -1.23,2.53 -3.027,3.303c-3.076,1.322 -3.846,0.62 -5.401,-1.035Z" style="fill:#aeaeae;"/></g><g><path d="M161.507,87.109c-2.487,-0.73 -3.482,-2.503 -2.988,-5.003c0.103,-0.518 0.232,-1.168 0.57,-1.593c0.989,-1.243 3.018,-1.868 4.566,-1.804c1.855,0.077 2.939,1.998 4.159,3.13c0.606,0.561 1.425,1.084 1.752,1.873c0.293,0.704 0.138,1.547 -0.312,2.157c-1.216,1.652 -5.928,1.095 -7.747,1.24Z" style="fill:#a5a39d;"/><path d="M169.657,83.989c0.157,0.639 -0.011,1.348 -0.403,1.88c-1.216,1.652 -5.928,1.095 -7.747,1.24c-2.259,-0.663 -3.287,-2.185 -3.086,-4.332c0.167,1.621 1.196,2.778 3.086,3.333c1.819,-0.146 6.531,0.412 7.747,-1.24c0.192,-0.261 0.331,-0.564 0.403,-0.881Z" style="fill:#8f8f8f;"/><path d="M168.015,84.627c-0.927,1.258 -8.552,-0.961 -8.175,-2.866c0.078,-0.394 0.176,-0.889 0.433,-1.213c0.754,-0.946 2.299,-1.422 3.477,-1.373c1.414,0.058 2.239,1.521 3.168,2.383c0.461,0.427 1.085,0.825 1.334,1.426c0.223,0.536 0.105,1.178 -0.237,1.643Z" style="fill:#aeaeae;"/></g></g><g><ellipse cx="211.733" cy="107.767" rx="6.279" ry="3.313" style="fill:#669e2c;"/><g><path d="M207.655,107.288c-0.178,-12.001 1.853,-22.698 9.514,-30.067l3.072,1.736c-4.108,8.164 -5.768,17.399 -4.301,28.002c0.03,0.107 0.046,0.217 0.046,0.329c0,1.213 -1.866,2.198 -4.166,2.198c-2.299,-0 -4.165,-0.985 -4.165,-2.198Z" style="fill:#906344;"/><path d="M215.42,98.757c-0.004,0.256 -0.006,0.513 -0.006,0.771c-0.797,0.026 -1.618,-0.009 -2.403,-0.098c-1.715,-0.195 -3.437,-0.645 -4.958,-1.461c0.032,-0.289 0.066,-0.576 0.103,-0.862c0.517,0.345 1.071,0.64 1.666,0.873c1.086,0.425 2.292,0.605 3.445,0.718c0.506,0.049 1.006,0.05 1.514,0.053c0.214,0.001 0.428,0.009 0.639,0.006Z" style="fill:#b58767;"/><path d="M216.849,87.962c-0.031,0.123 -0.062,0.246 -0.093,0.369c-0.495,-0.13 -0.981,-0.298 -1.417,-0.529c-0.799,-0.425 -1.554,-0.892 -2.234,-1.49c-0.549,-0.483 -1.002,-1.038 -1.393,-1.634c0.112,-0.224 0.227,-0.446 0.344,-0.667c0.748,1.222 1.746,2.276 3.023,3.054c0.529,0.322 1.133,0.743 1.77,0.897Z" style="fill:#b58767;"/><path d="M218.417,83.07c-0.09,0.234 -0.179,0.469 -0.265,0.706c-0.244,-0.066 -0.485,-0.143 -0.722,-0.23c-1.449,-0.533 -2.611,-1.483 -3.411,-2.692c0.151,-0.21 0.305,-0.418 0.462,-0.623c0.584,0.747 1.308,1.368 2.103,1.909c0.522,0.355 1.212,0.781 1.833,0.93Z" style="fill:#b58767;"/><path d="M215.939,92.431c-0.02,0.134 -0.04,0.268 -0.059,0.402c-0.379,0.06 -0.779,0.057 -1.078,0.063c-0.164,0.003 -0.695,0.007 -0.918,-0.005c-1.626,-0.089 -3.339,-0.768 -4.538,-1.917c0.057,-0.211 0.116,-0.422 0.176,-0.631c1.127,1.201 2.779,1.943 4.424,2.03c0.538,0.028 1.323,0.164 1.993,0.058Z" style="fill:#b58767;"/><path d="M215.639,104.348c0.022,0.242 0.046,0.484 0.071,0.727c-0.889,0.292 -1.786,0.539 -2.723,0.646c-1.464,0.168 -3.127,0.059 -4.54,-0.392c-0.268,-0.086 -0.535,-0.203 -0.798,-0.336c0.001,-0.101 0.002,-0.202 0.003,-0.303c1.948,0.763 4.151,0.708 6.164,0.238c0.55,-0.128 1.063,-0.294 1.591,-0.494c0.074,-0.028 0.152,-0.056 0.232,-0.086Z" style="fill:#b58767;"/><path d="M211.356,85.412c1.419,-3.037 3.318,-5.79 5.813,-8.191l3.072,1.736c-1.538,3.057 -2.733,6.263 -3.549,9.635c-2.398,-0.18 -4.296,-1.194 -5.336,-3.18Z" style="fill:#6b4124;fill-opacity:0.5;"/></g><g><g><path d="M220.303,75.134c-6.239,9.536 6.018,14.512 8.107,20.079c4.159,-8.175 1.283,-19.128 -8.107,-20.079Z" style="fill:#bcf146;"/><path d="M220.303,75.134c-6.239,9.536 6.018,14.512 8.107,20.079c0.058,-6.719 -2.547,-17.769 -8.107,-20.079Z" style="fill:#a9de35;"/></g><g><path d="M211.525,82.385c-2.934,0.739 -6.466,1.771 -10.382,4.14c0.013,-1.314 0.165,-2.551 0.433,-3.705l1.756,0.026l-1.534,-0.874c0.337,-1.151 0.793,-2.211 1.346,-3.172c1.289,0.13 2.466,0.391 3.333,1.013c-0.373,-1.401 -1.456,-1.975 -2.498,-2.294c4.012,-5.456 11.401,-6.87 16.324,-2.385c-0.126,4.774 -2.629,5.717 -6.702,6.738c-1.146,-1.528 -2.468,-2.913 -3.908,-4.206c0.852,1.499 1.584,3.035 1.832,4.719Z" style="fill:#85b41c;"/><path d="M209.693,77.666c0.852,1.499 1.584,3.035 1.832,4.719c-2.934,0.739 -6.466,1.771 -10.382,4.14c1.359,-3.623 4.834,-6.753 8.55,-8.859Zm3.908,4.206c-1.146,-1.528 -2.468,-2.913 -3.908,-4.206c4.064,-2.302 8.418,-3.378 10.61,-2.532c-0.126,4.774 -2.629,5.717 -6.702,6.738Z" style="fill:#7ca916;"/></g><g><path d="M212.501,70.213c-0.184,-1.634 0.359,-3.268 1.419,-4.902c0.553,0.885 1.212,1.63 2.158,1.998c1.876,-0.677 4.246,-0.393 6.78,1.33c0.392,0.267 0.515,0.766 0.444,1.385c-1.286,-0.577 -2.603,-0.615 -3.947,-0.195c1.318,-0.103 2.533,0.314 3.596,1.49c-0.538,1.359 -1.588,2.881 -2.648,3.815c-3.491,-0.519 -6.472,-1.834 -7.388,-3.265c1.248,-2.03 2.76,-3.413 4.533,-4.16c-1.984,0.268 -3.817,0.791 -4.947,2.504Z" style="fill:#8bae3d;"/><path d="M217.448,67.709c2.003,1.455 4.437,6.031 2.855,7.425c-3.491,-0.519 -6.472,-1.834 -7.388,-3.265c1.248,-2.03 2.76,-3.413 4.533,-4.16Zm-4.947,2.504c-0.184,-1.634 0.359,-3.268 1.419,-4.902c0.553,0.885 1.212,1.63 2.158,1.998c0.38,-0.137 0.861,0.031 1.37,0.4c-1.984,0.268 -3.817,0.791 -4.947,2.504Z" style="fill:#749230;"/></g><g><path d="M218.529,70.352c0.832,1.076 1.442,2.591 1.774,4.782c-5.002,1.53 -8.793,0.758 -11.477,-1.327l2.789,-3.676l-4.25,2.295c-1.743,-1.985 -2.836,-4.642 -3.326,-7.511c4.923,2.714 9.634,2.075 12.763,3.92l-0.814,2.901l2.541,-1.384Z" style="fill:#accf5e;"/><path d="M211.615,70.131c1.515,0.555 2.988,0.98 4.373,1.605c1.574,0.712 3.035,1.682 4.315,3.398c-5.002,1.53 -8.793,0.758 -11.477,-1.327l2.789,-3.676Zm-0,-0l-4.25,2.295c-1.743,-1.985 -2.836,-4.642 -3.326,-7.511c2.505,3.052 5.097,4.308 7.576,5.216Z" style="fill:#9dc73f;"/></g><g><path d="M232.174,76.755c1.289,1.165 2.586,2.379 3.9,3.372c-1.402,0.543 -2.752,0.94 -4.042,1.168l-1.292,-2.479l0.151,2.638c-0.8,0.08 -1.575,0.088 -2.322,0.019l0.314,-3.885l-2.016,3.575c-2.641,-0.734 -4.868,-2.635 -6.564,-6.029c1.839,-2.301 3.642,-2.913 5.433,-2.561l-0.305,2.705l1.849,-2.179c1.33,0.631 2.658,1.681 3.992,2.851l-1.439,2.259l2.341,-1.454Z" style="fill:#aeda4d;"/><path d="M226.867,81.163c-2.641,-0.734 -4.868,-2.635 -6.564,-6.029c2.7,-1.971 5.457,0.353 8.58,2.454l-2.016,3.575Zm2.016,-3.575c2.182,1.469 4.544,2.829 7.191,2.539c-1.402,0.543 -2.752,0.94 -4.042,1.168l-1.292,-2.479l0.151,2.638c-0.8,0.08 -1.575,0.088 -2.322,0.019l0.314,-3.885Z" style="fill:#a4cc4c;"/></g><g><path d="M225.946,67.709c3.376,-0.534 7.036,2.706 8.54,5.192c-0.789,-0.231 -1.502,-0.309 -2.172,-0.279l-1.695,-2.168l0.736,2.251l-2.495,-2.574l1.461,2.883c-1.586,0.522 -3.113,1.433 -5.148,1.925l-1.693,-3.134l0,3.418c-0.94,0.09 -1.987,0.077 -3.177,-0.089c1.001,-3.959 2.525,-6.06 4.223,-6.952l1.744,2.336l-0.324,-2.809Z" style="fill:#accf5e;"/><path d="M223.48,71.805l0,3.418c-0.94,0.09 -1.987,0.077 -3.177,-0.089c1.03,-1.473 2.102,-2.555 3.177,-3.329Zm0,-0c1.86,-1.339 3.727,-1.753 5.387,-1.662l1.454,2.871c-1.586,0.522 -3.113,1.433 -5.148,1.925l-1.693,-3.134Zm5.392,-1.662c2.8,0.155 5.011,1.746 5.614,2.758c-0.789,-0.231 -1.502,-0.309 -2.172,-0.279l-1.695,-2.168l0.736,2.251l-2.483,-2.562Z" style="fill:#9dc73f;"/></g><g><path d="M219.679,86.859c-1.05,1.605 -2.566,3.099 -4.573,4.476c-0.43,-1.576 -0.747,-3.048 -0.944,-4.413l2.143,-0.438l-2.261,-0.495c-0.09,-0.844 -0.132,-1.642 -0.122,-2.396l3.174,-0.359l-3.1,-0.962c0.226,-2.206 0.97,-3.947 2.27,-5.184l2.036,1.643l-1.275,-2.266c0.891,-0.625 1.98,-1.071 3.276,-1.331c1.477,3.712 1.611,7.103 0.249,10.135l-3.756,-0.931l2.883,2.521Z" style="fill:#accf5e;"/><path d="M216.796,84.338l2.883,2.521c-1.05,1.605 -2.566,3.099 -4.573,4.476c0.683,-2.503 1.199,-4.862 1.69,-6.997Zm3.756,0.931l-3.756,-0.931c0.935,-4.064 1.78,-7.317 3.507,-9.204c1.477,3.712 1.611,7.103 0.249,10.135Z" style="fill:#9dc73f;"/></g></g></g><g><ellipse cx="62.951" cy="104.454" rx="6.279" ry="3.313" style="fill:#669e2c;"/><g><path d="M67.029,103.975c0.178,-12.001 -1.853,-22.698 -9.514,-30.067l-3.072,1.736c4.108,8.164 5.768,17.399 4.301,28.002c-0.03,0.107 -0.046,0.217 -0.046,0.329c-0,1.213 1.866,2.198 4.166,2.198c2.299,-0 4.165,-0.985 4.165,-2.198Z" style="fill:#906344;"/><path d="M59.264,95.444c0.004,0.256 0.006,0.513 0.006,0.771c0.797,0.026 1.618,-0.009 2.403,-0.098c1.715,-0.195 3.437,-0.645 4.958,-1.461c-0.032,-0.289 -0.066,-0.576 -0.103,-0.862c-0.517,0.345 -1.071,0.64 -1.666,0.873c-1.086,0.425 -2.292,0.605 -3.445,0.718c-0.506,0.049 -1.006,0.05 -1.514,0.053c-0.214,0.001 -0.428,0.009 -0.639,0.006Z" style="fill:#b58767;"/><path d="M57.835,84.649c0.031,0.123 0.062,0.246 0.093,0.369c0.495,-0.13 0.981,-0.298 1.417,-0.529c0.799,-0.425 1.554,-0.892 2.234,-1.49c0.549,-0.483 1.002,-1.038 1.393,-1.634c-0.112,-0.224 -0.227,-0.446 -0.344,-0.667c-0.748,1.222 -1.746,2.276 -3.023,3.054c-0.529,0.322 -1.133,0.743 -1.77,0.897Z" style="fill:#b58767;"/><path d="M56.267,79.757c0.09,0.234 0.179,0.469 0.265,0.706c0.244,-0.066 0.485,-0.143 0.722,-0.23c1.449,-0.533 2.611,-1.483 3.411,-2.692c-0.151,-0.21 -0.305,-0.418 -0.462,-0.623c-0.584,0.747 -1.308,1.368 -2.103,1.909c-0.522,0.355 -1.212,0.781 -1.833,0.93Z" style="fill:#b58767;"/><path d="M58.745,89.118c0.02,0.134 0.04,0.268 0.059,0.402c0.379,0.06 0.779,0.057 1.078,0.063c0.164,0.003 0.695,0.007 0.918,-0.005c1.626,-0.089 3.339,-0.768 4.538,-1.917c-0.057,-0.211 -0.116,-0.422 -0.176,-0.631c-1.127,1.201 -2.779,1.943 -4.424,2.03c-0.538,0.028 -1.323,0.164 -1.993,0.058Z" style="fill:#b58767;"/><path d="M59.045,101.035c-0.022,0.242 -0.046,0.484 -0.071,0.727c0.889,0.292 1.786,0.539 2.723,0.646c1.464,0.168 3.127,0.059 4.54,-0.392c0.268,-0.086 0.535,-0.203 0.798,-0.336c-0.001,-0.101 -0.002,-0.202 -0.003,-0.303c-1.948,0.763 -4.151,0.708 -6.164,0.238c-0.55,-0.128 -1.063,-0.294 -1.591,-0.494c-0.074,-0.028 -0.152,-0.056 -0.232,-0.086Z" style="fill:#b58767;"/><path d="M63.328,82.099c-1.42,-3.037 -3.318,-5.79 -5.813,-8.191l-3.072,1.736c1.538,3.057 2.733,6.263 3.549,9.635c2.398,-0.18 4.296,-1.194 5.336,-3.18Z" style="fill:#6b4124;fill-opacity:0.5;"/></g><g><g><path d="M54.381,71.821c6.239,9.536 -6.018,14.512 -8.107,20.079c-4.159,-8.175 -1.283,-19.128 8.107,-20.079Z" style="fill:#bcf146;"/><path d="M54.381,71.821c6.239,9.536 -6.018,14.512 -8.107,20.079c-0.058,-6.719 2.547,-17.769 8.107,-20.079Z" style="fill:#a9de35;"/></g><g><path d="M63.159,79.072c2.934,0.739 6.466,1.771 10.382,4.14c-0.013,-1.314 -0.165,-2.551 -0.433,-3.705l-1.756,0.026l1.534,-0.874c-0.337,-1.151 -0.793,-2.211 -1.346,-3.172c-1.289,0.13 -2.466,0.391 -3.333,1.013c0.373,-1.401 1.456,-1.975 2.498,-2.294c-4.012,-5.456 -11.401,-6.87 -16.324,-2.385c0.126,4.774 2.629,5.717 6.702,6.738c1.146,-1.528 2.468,-2.913 3.908,-4.206c-0.852,1.499 -1.584,3.035 -1.832,4.719Z" style="fill:#85b41c;"/><path d="M64.991,74.353c-0.852,1.499 -1.584,3.035 -1.832,4.719c2.934,0.739 6.466,1.771 10.382,4.14c-1.359,-3.623 -4.834,-6.753 -8.55,-8.859Zm-3.908,4.206c1.146,-1.528 2.468,-2.913 3.908,-4.206c-4.064,-2.302 -8.418,-3.378 -10.61,-2.532c0.126,4.774 2.629,5.717 6.702,6.738Z" style="fill:#7ca916;"/></g><g><path d="M62.183,66.9c0.184,-1.634 -0.359,-3.268 -1.419,-4.902c-0.553,0.885 -1.212,1.63 -2.158,1.998c-1.876,-0.677 -4.246,-0.393 -6.78,1.33c-0.392,0.267 -0.515,0.766 -0.444,1.385c1.286,-0.577 2.603,-0.615 3.947,-0.195c-1.318,-0.103 -2.533,0.314 -3.596,1.49c0.538,1.359 1.588,2.881 2.648,3.815c3.491,-0.519 6.472,-1.834 7.388,-3.265c-1.248,-2.03 -2.76,-3.413 -4.533,-4.16c1.984,0.268 3.817,0.791 4.947,2.504Z" style="fill:#8bae3d;"/><path d="M57.236,64.396c-2.003,1.455 -4.437,6.031 -2.855,7.425c3.491,-0.519 6.472,-1.834 7.388,-3.265c-1.248,-2.03 -2.76,-3.413 -4.533,-4.16Zm4.947,2.504c0.184,-1.634 -0.359,-3.268 -1.419,-4.902c-0.553,0.885 -1.212,1.63 -2.158,1.998c-0.38,-0.137 -0.861,0.031 -1.37,0.4c1.984,0.268 3.817,0.791 4.947,2.504Z" style="fill:#749230;"/></g><g><path d="M56.155,67.039c-0.832,1.076 -1.442,2.591 -1.774,4.782c5.002,1.53 8.793,0.758 11.477,-1.327l-2.789,-3.676l4.25,2.295c1.743,-1.985 2.836,-4.642 3.326,-7.511c-4.923,2.714 -9.634,2.075 -12.763,3.92l0.814,2.901l-2.541,-1.384Z" style="fill:#accf5e;"/><path d="M63.069,66.818c-1.515,0.555 -2.988,0.98 -4.373,1.605c-1.574,0.712 -3.035,1.682 -4.315,3.398c5.002,1.53 8.793,0.758 11.477,-1.327l-2.789,-3.676Zm0,-0l4.25,2.295c1.743,-1.985 2.836,-4.642 3.326,-7.511c-2.505,3.052 -5.097,4.308 -7.576,5.216Z" style="fill:#9dc73f;"/></g><g><path d="M42.51,73.442c-1.289,1.165 -2.586,2.379 -3.9,3.372c1.402,0.543 2.752,0.94 4.042,1.168l1.292,-2.479l-0.151,2.638c0.8,0.08 1.575,0.088 2.322,0.019l-0.314,-3.885l2.016,3.575c2.641,-0.734 4.868,-2.635 6.564,-6.029c-1.839,-2.301 -3.642,-2.913 -5.433,-2.561l0.305,2.705l-1.849,-2.179c-1.33,0.631 -2.658,1.681 -3.992,2.851l1.439,2.259l-2.341,-1.454Z" style="fill:#aeda4d;"/><path d="M47.817,77.85c2.641,-0.734 4.868,-2.635 6.564,-6.029c-2.7,-1.971 -5.457,0.353 -8.58,2.454l2.016,3.575Zm-2.016,-3.575c-2.182,1.469 -4.544,2.829 -7.191,2.539c1.402,0.543 2.752,0.94 4.042,1.168l1.292,-2.479l-0.151,2.638c0.8,0.08 1.575,0.088 2.322,0.019l-0.314,-3.885Z" style="fill:#a4cc4c;"/></g><g><path d="M48.738,64.396c-3.376,-0.534 -7.036,2.706 -8.54,5.192c0.789,-0.231 1.502,-0.309 2.172,-0.279l1.695,-2.168l-0.736,2.251l2.494,-2.574l-1.46,2.883c1.586,0.522 3.113,1.433 5.148,1.925l1.693,-3.134l-0,3.418c0.94,0.09 1.987,0.077 3.177,-0.089c-1.001,-3.959 -2.525,-6.06 -4.223,-6.952l-1.744,2.336l0.324,-2.809Z" style="fill:#accf5e;"/><path d="M51.204,68.492l-0,3.418c0.94,0.09 1.987,0.077 3.177,-0.089c-1.03,-1.473 -2.102,-2.555 -3.177,-3.329Zm-0,-0c-1.86,-1.339 -3.727,-1.753 -5.387,-1.662l-1.454,2.871c1.586,0.522 3.113,1.433 5.148,1.925l1.693,-3.134Zm-5.392,-1.662c-2.8,0.155 -5.012,1.746 -5.614,2.758c0.789,-0.231 1.502,-0.309 2.172,-0.279l1.695,-2.168l-0.736,2.251l2.483,-2.562Z" style="fill:#9dc73f;"/></g><g><path d="M55.005,83.546c1.05,1.605 2.566,3.099 4.573,4.476c0.43,-1.576 0.746,-3.048 0.944,-4.413l-2.143,-0.438l2.261,-0.495c0.09,-0.844 0.132,-1.642 0.122,-2.396l-3.174,-0.359l3.1,-0.962c-0.226,-2.206 -0.97,-3.947 -2.27,-5.184l-2.036,1.643l1.275,-2.266c-0.891,-0.625 -1.98,-1.071 -3.276,-1.331c-1.477,3.712 -1.611,7.103 -0.249,10.135l3.756,-0.931l-2.883,2.521Z" style="fill:#accf5e;"/><path d="M57.888,81.025l-2.883,2.521c1.05,1.605 2.566,3.099 4.573,4.476c-0.683,-2.503 -1.199,-4.862 -1.69,-6.997Zm-3.756,0.931l3.756,-0.931c-0.935,-4.064 -1.78,-7.317 -3.507,-9.204c-1.477,3.712 -1.611,7.103 -0.249,10.135Z" style="fill:#9dc73f;"/></g></g></g><g><path d="M115.184,51.313l0,-44.927l43.296,5.785l26.89,15.747l-0,83.667l-80.87,17.455l-26.89,-15.747l-0,-38.228l37.574,-23.752Z" style="fill:#cec7aa;"/><path d="M142.074,67.06l0,-44.928l43.296,5.786l-0,83.667l-80.87,17.455l-0,-38.228l37.574,-23.752Z" style="fill:#fff9e2;"/><g><path d="M142.074,67.06l-41.017,25.928l-26.89,-15.746l-0,-5.921l41.017,-25.929l26.89,15.747l0,5.921Zm-30.369,-61.139l0,-5.921l50.981,6.812l26.89,15.747l0,5.921l-50.981,-6.812l-26.89,-15.747Z" style="fill:#0f43a0;"/><path d="M101.057,87.067l-0,5.921l-26.89,-15.746l-0,-5.921l26.89,15.746Zm37.538,-71.321l0,5.922l-26.89,-15.747l0,-5.921l26.89,15.746Z" style="fill:#0f2f6a;"/><path d="M142.074,61.139l-41.017,25.928l-26.89,-15.746l41.017,-25.929l26.89,15.747Zm-30.369,-61.139l50.981,6.812l26.89,15.747l-50.981,-6.813l-26.89,-15.746Z" style="fill:#163e86;"/></g><g><path d="M178.623,67.545l-26.916,5.81l0,-22.758c0,-7.897 6.031,-15.825 13.458,-17.693c7.428,-1.868 13.458,3.028 13.458,10.925l0,23.716Z" style="fill:#cec7aa;"/><path d="M171.301,32.933c2.196,1.995 3.538,5.052 3.538,8.777l-0,23.716l-23.132,4.993l0,-19.822c0,-7.897 6.031,-15.825 13.458,-17.693c2.21,-0.556 4.296,-0.513 6.136,0.029Z" style="fill:#feffbb;"/><path d="M178.623,63.469l11.564,4.244l0,4.077l-26.914,5.809l-11.566,-4.244l0,-4.077l26.916,-5.809Z" style="fill:#281007;"/><path d="M163.272,77.599l-11.565,-4.244l0,-4.077l11.564,4.244l0.001,4.077Z" style="fill:#401d0f;"/><path d="M190.187,67.713l0,4.077l-26.916,5.809l0,-4.077l26.916,-5.809Z" style="fill:#6f341d;"/><path d="M164.72,62.246l-0,9.183c-0,0.677 -0.55,1.227 -1.227,1.227c-0.677,-0 -1.226,-0.55 -1.226,-1.227l-0,-9.183c-0,-0.677 0.549,-1.227 1.226,-1.227c0.677,-0 1.227,0.55 1.227,1.227Zm22.466,-4.709l0,9.184c0,0.677 -0.549,1.226 -1.226,1.226c-0.677,0 -1.227,-0.549 -1.227,-1.226l0,-9.184c0,-0.677 0.55,-1.227 1.227,-1.227c0.677,0 1.226,0.55 1.226,1.227Zm-10.677,2.249l0,9.184c0,0.677 -0.55,1.227 -1.227,1.227c-0.677,-0 -1.226,-0.55 -1.226,-1.227l-0,-9.184c-0,-0.677 0.549,-1.226 1.226,-1.226c0.677,-0 1.227,0.549 1.227,1.226Z" style="fill:#6f341d;"/><path d="M187.971,61.463l-11.565,-4.244l0,-4.076l11.564,4.244l0.001,4.076Z" style="fill:#401d0f;"/><path d="M176.406,53.143l2.217,-0.479l11.564,4.244l0,4.077l-26.914,5.809l-11.566,-4.244l0,-4.076l2.807,-0.606l8.526,3.129l21.892,-4.726l-8.526,-3.128Z" style="fill:#281007;"/><path d="M163.272,66.794l-11.565,-4.244l0,-4.076l11.564,4.244l0.001,4.076Z" style="fill:#401d0f;"/><path d="M190.187,56.908l0,4.077l-26.916,5.809l0,-4.076l26.916,-5.81Z" style="fill:#6f341d;"/></g><g><path d="M178.623,113.041l-26.916,5.81l0,-22.758c0,-7.898 6.031,-15.826 13.458,-17.693c7.428,-1.868 13.458,3.027 13.458,10.924l0,23.717Z" style="fill:#cec7aa;"/><path d="M171.758,78.576c1.924,1.991 3.081,4.874 3.081,8.332l-0,23.717l-23.132,4.993l0,-19.525c0,-7.898 6.031,-15.826 13.458,-17.693c2.395,-0.603 4.644,-0.502 6.593,0.176Z" style="fill:#0f43a0;"/><g><path d="M171.765,89.056l-16.987,3.667c0,-4.985 3.807,-9.38 8.495,-10.559c4.689,-1.179 8.492,1.907 8.492,6.892Z" style="fill:#feffbb;"/><path d="M167.95,82.481c2.3,1.038 3.815,3.427 3.815,6.575l-16.987,3.667c0,-0.411 0.026,-0.822 0.076,-1.231l15.528,-3.299c0,-2.464 -0.926,-4.461 -2.432,-5.712Z" style="fill:#0f2f6a;"/></g></g></g><g><path d="M124.566,146.56l0.233,4.106c-2.117,5.492 -11.33,9.631 -22.361,9.631c-11.031,-0 -20.244,-4.139 -22.361,-9.631l0.236,-4.17c0.002,0.005 0.005,0.01 0.007,0.015c0.051,-6.42 9.944,-11.623 22.123,-11.623c12.21,-0 22.123,5.23 22.123,11.672Z" style="fill:#818181;"/><path d="M82.867,142.305l4.082,-72.079l30.978,-0l4.082,72.079c0,5.699 -8.769,10.326 -19.571,10.326c-10.802,-0 -19.571,-4.627 -19.571,-10.326Z" style="fill:#ffe8e6;"/><path d="M121.337,130.445l0.672,11.86c0,5.699 -8.769,10.326 -19.571,10.326c-10.802,-0 -19.571,-4.627 -19.571,-10.326l0.672,-11.86c2.245,4.396 9.861,7.636 18.899,7.636c9.038,-0 16.654,-3.24 18.899,-7.636Zm-35.07,-48.169c3.525,2.723 9.455,4.511 16.171,4.511c6.716,0 12.646,-1.788 16.171,-4.511l0.706,12.456c-3.404,3.049 -9.691,5.097 -16.877,5.097c-7.186,-0 -13.473,-2.048 -16.877,-5.097l0.706,-12.456Zm-1.328,23.452c3.217,3.379 9.848,5.7 17.499,5.7c7.651,0 14.282,-2.321 17.499,-5.7l0.693,12.228c-2.877,3.814 -9.942,6.514 -18.192,6.514c-8.25,-0 -15.315,-2.7 -18.192,-6.514l0.693,-12.228Z" style="fill:#b6200f;"/><g><ellipse cx="102.442" cy="54.704" rx="18.974" ry="10.011" style="fill:#505050;"/><path d="M121.414,54.649l0.595,10.506c0,5.699 -8.769,10.326 -19.571,10.326c-10.802,0 -19.571,-4.627 -19.571,-10.326l0.595,-10.506c2.144,4.475 9.832,7.791 18.976,7.791c9.144,-0 16.832,-3.316 18.976,-7.791Z" style="fill:#818181;"/></g><path d="M117.976,32.172l0.487,19.759c-0,4.665 -7.179,8.453 -16.021,8.453c-8.842,-0 -16.021,-3.788 -16.021,-8.453l0.487,-19.759c1.755,3.664 8.049,6.378 15.534,6.378c7.486,0 13.779,-2.714 15.534,-6.378Z" style="fill:#feffbb;"/><path d="M117.976,32.172l0.487,19.759c-0,4.665 -7.179,8.453 -16.021,8.453c-8.842,-0 -16.021,-3.788 -16.021,-8.453l0.487,-19.759c1.755,3.664 8.049,6.378 15.534,6.378c7.486,0 13.779,-2.714 15.534,-6.378Zm-1.258,3.575c-0.637,0.517 -1.364,0.999 -2.173,1.436c-3.073,1.662 -7.359,2.712 -12.103,2.712c-4.743,0 -9.029,-1.05 -12.103,-2.712c-0.809,-0.437 -1.536,-0.919 -2.173,-1.436c-0,0 -0.4,16.198 -0.4,16.213c0.013,1.466 1.004,2.77 2.534,3.87c2.736,1.97 7.164,3.209 12.142,3.209c4.979,0 9.406,-1.239 12.143,-3.209c1.535,-1.104 2.527,-2.413 2.533,-3.885l-0.4,-16.198Z" style="fill:#acacac;"/><path d="M96.991,59.139l-0,-21.041" style="fill:none;"/><path d="M96.17,58.668c-0,0.371 -0.301,0.673 -0.673,0.673c-0.371,-0 -0.672,-0.302 -0.672,-0.673l-0,-20.13c-0,-0.371 0.301,-0.673 0.672,-0.673c0.372,0 0.673,0.302 0.673,0.673l-0,20.13Zm13.889,0c0,0.371 -0.301,0.673 -0.672,0.673c-0.371,-0 -0.673,-0.302 -0.673,-0.673l0,-20.13c0,-0.371 0.302,-0.673 0.673,-0.673c0.371,0 0.672,0.302 0.672,0.673l0,20.13Z" style="fill:#acacac;"/><g><ellipse cx="102.442" cy="27.801" rx="18.974" ry="10.011" style="fill:#505050;"/><path d="M83.259,31.322l0.203,-3.577c2.144,4.476 9.832,7.792 18.976,7.792c9.144,-0 16.832,-3.316 18.976,-7.792l0.203,3.577c-1.816,4.711 -9.718,8.26 -19.179,8.26c-9.461,0 -17.363,-3.549 -19.179,-8.26Z" style="fill:#818181;"/><path d="M86.748,25.802c-0.002,-0.001 -0.004,-0.002 -0.006,-0.003c-0,-8.663 7.033,-15.697 15.696,-15.697c8.663,0 15.696,7.034 15.696,15.697c-0.001,0 -0.003,0.001 -0.004,0.002l0.004,0.028c-1.486,3.855 -7.953,6.76 -15.696,6.76c-7.743,0 -14.21,-2.905 -15.696,-6.76l0.006,-0.027Z" style="fill:#818181;"/></g></g><g><path d="M115.192,234.345l-0,24.622c-0,2.734 -2.22,4.953 -4.953,4.953c-2.734,0 -4.953,-2.219 -4.953,-4.953l-0,-24.622c-0,-2.733 2.219,-4.953 4.953,-4.953c2.733,0 4.953,2.22 4.953,4.953Zm63.451,-14.052l0,24.622c0,2.734 -2.219,4.953 -4.952,4.953c-2.734,-0 -4.953,-2.219 -4.953,-4.953l-0,-24.622c-0,-2.734 2.219,-4.953 4.953,-4.953c2.733,0 4.952,2.219 4.952,4.953Zm-129.518,-25.466l0,10.199c0,2.734 -2.219,4.953 -4.952,4.953c-2.734,0 -4.953,-2.219 -4.953,-4.953l-0,-10.199c-0,-2.734 2.219,-4.953 4.953,-4.953c2.733,0 4.952,2.219 4.952,4.953Zm176.02,73.882l-0,24.622c-0,2.734 -2.22,4.953 -4.953,4.953c-2.734,0 -4.953,-2.219 -4.953,-4.953l-0,-24.622c-0,-2.733 2.219,-4.953 4.953,-4.953c2.733,0 4.953,2.22 4.953,4.953Zm54.026,-11.445l-0,24.622c-0,2.734 -2.22,4.953 -4.953,4.953c-2.734,-0 -4.953,-2.219 -4.953,-4.953l-0,-24.622c-0,-2.734 2.219,-4.953 4.953,-4.953c2.733,0 4.953,2.219 4.953,4.953Zm-73.504,1.591l0,24.621c0,2.734 -2.219,4.953 -4.953,4.953c-2.733,0 -4.952,-2.219 -4.952,-4.953l-0,-24.621c-0,-2.734 2.219,-4.953 4.952,-4.953c2.734,-0 4.953,2.219 4.953,4.953Zm54.027,-11.446l-0,24.622c-0,2.734 -2.22,4.953 -4.953,4.953c-2.734,0 -4.953,-2.219 -4.953,-4.953l-0,-24.622c-0,-2.733 2.219,-4.953 4.953,-4.953c2.733,0 4.953,2.22 4.953,4.953Z" style="fill:#8e6532;"/><path d="M115.192,234.345l-0,7.941c-0,2.733 -2.22,4.953 -4.953,4.953c-2.734,-0 -4.953,-2.22 -4.953,-4.953l-0,-7.941c-0,-2.733 2.219,-4.953 4.953,-4.953c2.733,0 4.953,2.22 4.953,4.953Zm63.451,-14.052l0,7.941c0,2.733 -2.219,4.953 -4.952,4.953c-2.734,-0 -4.953,-2.22 -4.953,-4.953l-0,-7.941c-0,-2.734 2.219,-4.953 4.953,-4.953c2.733,0 4.952,2.219 4.952,4.953Zm-129.518,-25.466l0,3.399c0,2.734 -2.219,4.953 -4.952,4.953c-2.734,0 -4.953,-2.219 -4.953,-4.953l-0,-3.399c-0,-2.734 2.219,-4.953 4.953,-4.953c2.733,0 4.952,2.219 4.952,4.953Zm176.02,73.882l-0,4.596c-0,2.734 -2.22,4.953 -4.953,4.953c-2.734,0 -4.953,-2.219 -4.953,-4.953l-0,-4.596c-0,-2.733 2.219,-4.953 4.953,-4.953c2.733,0 4.953,2.22 4.953,4.953Zm54.026,-11.445l-0,4.596c-0,2.734 -2.22,4.953 -4.953,4.953c-2.734,0 -4.953,-2.219 -4.953,-4.953l-0,-4.596c-0,-2.734 2.219,-4.953 4.953,-4.953c2.733,0 4.953,2.219 4.953,4.953Zm-73.504,1.591l0,4.596c0,2.733 -2.219,4.953 -4.953,4.953c-2.733,-0 -4.952,-2.22 -4.952,-4.953l-0,-4.596c-0,-2.734 2.219,-4.953 4.952,-4.953c2.734,-0 4.953,2.219 4.953,4.953Zm54.027,-11.446l-0,4.596c-0,2.734 -2.22,4.953 -4.953,4.953c-2.734,0 -4.953,-2.219 -4.953,-4.953l-0,-4.596c-0,-2.733 2.219,-4.953 4.953,-4.953c2.733,0 4.953,2.22 4.953,4.953Z" style="fill:#674419;"/><path d="M133.577,172.732l116.874,73.645l9.275,-2.072l23.586,9.999l0,4.863l-67.399,15.06l-23.586,-14.862l-0,-4.863l23.632,-0.418l-42.326,-26.671l-65.828,14.709l-74.546,-46.975l-0,-4.862l100.318,-17.553Z" style="fill:#401d0f;"/><path d="M133.577,167.87l116.874,73.645l9.275,-2.073l23.586,14.862l-67.399,15.06l-23.586,-14.862l23.632,-5.28l-42.326,-26.672l-65.828,14.709l-74.546,-46.974l100.318,-22.415Z" style="fill:#6f341d;"/><path d="M43.892,196.985l-2.543,-1.602l100.319,-22.416l2.543,1.603l-100.319,22.415Zm9.443,5.951l-2.544,-1.603l100.319,-22.416l2.544,1.603l-100.319,22.416Zm10.026,6.317l-2.544,-1.603l100.319,-22.415l2.544,1.603l-100.319,22.415Zm9.443,5.951l-2.544,-1.603l100.319,-22.416l2.544,1.603l-100.319,22.416Zm10.303,6.492l-2.543,-1.603l100.319,-22.415l2.543,1.603l-100.319,22.415Zm9.443,5.95l-2.543,-1.603l100.318,-22.415l2.544,1.603l-100.319,22.415Zm10.026,6.318l-2.543,-1.603l100.319,-22.415l2.543,1.603l-100.319,22.415Zm174.917,16.673l2.544,1.603l-67.4,15.06l-2.544,-1.603l67.4,-15.06Zm-9.443,-5.95l2.544,1.603l-67.4,15.06l-2.543,-1.603l67.399,-15.06Zm-19.579,-4.42l2.544,1.603l-58.124,12.987l-0.564,-0.355l23.632,-5.28l-1.98,-1.248l34.492,-7.707Zm-9.443,-5.95l2.544,1.603l-34.492,7.707l-2.544,-1.603l34.492,-7.707Zm-10.026,-6.318l2.544,1.603l-34.492,7.707l-2.544,-1.603l34.492,-7.707Zm-9.443,-5.95l2.544,1.603l-34.492,7.707l-2.543,-1.603l34.491,-7.707Zm-9.765,-6.153l2.544,1.603l-34.492,7.707l-2.543,-1.603l34.491,-7.707Z" style="fill:#281007;"/><path d="M42.58,180.164l-0,9.184c-0,0.677 -0.55,1.227 -1.227,1.227c-0.677,-0 -1.226,-0.55 -1.226,-1.227l-0,-9.184c-0,-0.677 0.549,-1.226 1.226,-1.226c0.677,-0 1.227,0.549 1.227,1.226Zm22.466,-4.708l0,9.184c0,0.677 -0.549,1.226 -1.226,1.226c-0.677,0 -1.227,-0.549 -1.227,-1.226l0,-9.184c0,-0.677 0.55,-1.227 1.227,-1.227c0.677,0 1.226,0.55 1.226,1.227Zm-10.677,2.249l0,9.184c0,0.677 -0.55,1.226 -1.227,1.226c-0.677,0 -1.226,-0.549 -1.226,-1.226l-0,-9.184c-0,-0.677 0.549,-1.227 1.226,-1.227c0.677,0 1.227,0.55 1.227,1.227Zm33.144,-6.958l0,9.184c0,0.677 -0.55,1.227 -1.227,1.227c-0.677,-0 -1.226,-0.55 -1.226,-1.227l-0,-9.184c-0,-0.677 0.549,-1.226 1.226,-1.226c0.677,-0 1.227,0.549 1.227,1.226Zm-10.677,2.249l-0,9.184c-0,0.677 -0.55,1.227 -1.227,1.227c-0.677,-0 -1.227,-0.55 -1.227,-1.227l0,-9.184c0,-0.676 0.55,-1.226 1.227,-1.226c0.677,-0 1.227,0.55 1.227,1.226Zm33.144,-6.957l-0,9.184c-0,0.677 -0.55,1.226 -1.227,1.226c-0.677,0 -1.227,-0.549 -1.227,-1.226l0,-9.184c0,-0.677 0.55,-1.227 1.227,-1.227c0.677,0 1.227,0.55 1.227,1.227Zm-10.678,2.249l0,9.184c0,0.677 -0.549,1.226 -1.226,1.226c-0.677,0 -1.227,-0.549 -1.227,-1.226l-0,-9.184c-0,-0.677 0.55,-1.227 1.227,-1.227c0.677,0 1.226,0.55 1.226,1.227Zm33.144,-6.958l0,9.184c0,0.677 -0.549,1.227 -1.226,1.227c-0.677,-0 -1.227,-0.55 -1.227,-1.227l-0,-9.184c-0,-0.677 0.55,-1.226 1.227,-1.226c0.677,-0 1.226,0.549 1.226,1.226Zm-10.677,2.249l-0,9.184c-0,0.677 -0.55,1.227 -1.227,1.227c-0.677,-0 -1.226,-0.55 -1.226,-1.227l-0,-9.184c-0,-0.677 0.549,-1.226 1.226,-1.226c0.677,-0 1.227,0.549 1.227,1.226Zm-70.659,22.85l-0,9.183c-0,0.677 -0.55,1.227 -1.227,1.227c-0.677,-0 -1.226,-0.55 -1.226,-1.227l-0,-9.183c-0,-0.677 0.549,-1.227 1.226,-1.227c0.677,-0 1.227,0.55 1.227,1.227Zm9.063,6.53l0,9.184c0,0.677 -0.55,1.227 -1.227,1.227c-0.677,-0 -1.226,-0.55 -1.226,-1.227l-0,-9.184c-0,-0.677 0.549,-1.226 1.226,-1.226c0.677,-0 1.227,0.549 1.227,1.226Zm8.997,5.819l-0,9.184c-0,0.677 -0.55,1.226 -1.227,1.226c-0.677,0 -1.227,-0.549 -1.227,-1.226l0,-9.184c0,-0.677 0.55,-1.227 1.227,-1.227c0.677,0 1.227,0.55 1.227,1.227Zm8.746,5.818l0,9.184c0,0.677 -0.549,1.227 -1.226,1.227c-0.677,-0 -1.227,-0.55 -1.227,-1.227l-0,-9.184c-0,-0.677 0.55,-1.226 1.227,-1.226c0.677,-0 1.226,0.549 1.226,1.226Zm9.08,5.819l-0,9.184c-0,0.677 -0.55,1.226 -1.227,1.226c-0.677,0 -1.226,-0.549 -1.226,-1.226l-0,-9.184c-0,-0.677 0.549,-1.227 1.226,-1.227c0.677,0 1.227,0.55 1.227,1.227Zm11.239,6.885l-0,9.183c-0,0.677 -0.55,1.227 -1.227,1.227c-0.677,0 -1.226,-0.55 -1.226,-1.227l-0,-9.183c-0,-0.677 0.549,-1.227 1.226,-1.227c0.677,0 1.227,0.55 1.227,1.227Zm11.313,7.659l0,9.184c0,0.677 -0.549,1.226 -1.226,1.226c-0.677,0 -1.227,-0.549 -1.227,-1.226l0,-9.184c0,-0.677 0.55,-1.227 1.227,-1.227c0.677,0 1.226,0.55 1.226,1.227Zm22.467,-4.709l-0,9.184c-0,0.677 -0.55,1.227 -1.227,1.227c-0.677,-0 -1.226,-0.55 -1.226,-1.227l-0,-9.184c-0,-0.677 0.549,-1.226 1.226,-1.226c0.677,-0 1.227,0.549 1.227,1.226Zm-10.678,2.249l0,9.184c0,0.677 -0.549,1.227 -1.226,1.227c-0.677,-0 -1.227,-0.55 -1.227,-1.227l0,-9.184c0,-0.677 0.55,-1.226 1.227,-1.226c0.677,-0 1.226,0.549 1.226,1.226Zm33.144,-6.957l0,9.184c0,0.676 -0.549,1.226 -1.226,1.226c-0.677,0 -1.227,-0.55 -1.227,-1.226l0,-9.184c0,-0.677 0.55,-1.227 1.227,-1.227c0.677,0 1.226,0.55 1.226,1.227Zm-10.677,2.249l0,9.184c0,0.677 -0.55,1.226 -1.227,1.226c-0.677,0 -1.226,-0.549 -1.226,-1.226l-0,-9.184c-0,-0.677 0.549,-1.227 1.226,-1.227c0.677,0 1.227,0.55 1.227,1.227Z" style="fill:#401d0f;"/><g><path d="M158.285,217.504l-50.48,11.279l-74.546,-46.974l-0,-4.863l74.546,46.974l50.48,-11.279l0,4.863Z" style="fill:#8e6532;"/><path d="M136.823,160.404l-99.186,22.162l0,-4.863l99.186,-22.162l0,4.863Z" style="fill:#8e6532;"/><path d="M158.285,212.641l-50.48,11.279l-74.546,-46.974l100.318,-22.415l3.246,1.01l-99.186,22.162l70.481,44.412l47.764,-10.672l2.403,1.198Z" style="fill:#b7874b;"/></g></g><g><path d="M216.715,163.563c-2.488,-0.73 -3.483,-2.503 -2.988,-5.003c0.103,-0.518 0.232,-1.169 0.57,-1.593c0.989,-1.243 3.018,-1.868 4.566,-1.804c1.855,0.077 2.939,1.998 4.159,3.13c0.605,0.561 1.425,1.083 1.752,1.872c0.292,0.704 0.138,1.547 -0.312,2.158c-1.216,1.652 -5.928,1.094 -7.747,1.24Z" style="fill:#a5a39d;"/><path d="M224.865,160.443c0.157,0.639 -0.011,1.348 -0.403,1.88c-1.216,1.652 -5.928,1.094 -7.747,1.24c-2.259,-0.663 -3.287,-2.186 -3.086,-4.332c0.167,1.621 1.196,2.778 3.086,3.333c1.819,-0.146 6.531,0.412 7.747,-1.241c0.192,-0.26 0.33,-0.564 0.403,-0.88Z" style="fill:#8f8f8f;"/><path d="M223.222,161.081c-0.926,1.258 -8.551,-0.962 -8.175,-2.866c0.078,-0.394 0.177,-0.89 0.434,-1.213c0.754,-0.947 2.299,-1.422 3.477,-1.374c1.413,0.059 2.238,1.522 3.168,2.384c0.461,0.427 1.085,0.825 1.334,1.426c0.223,0.536 0.105,1.178 -0.238,1.643Z" style="fill:#aeaeae;"/></g></g></svg>