<?xml version="1.0" encoding="UTF-8" standalone="no"?>
<!DOCTYPE svg PUBLIC "-//W3C//DTD SVG 1.1//EN" "http://www.w3.org/Graphics/SVG/1.1/DTD/svg11.dtd">
<svg width="100%" height="100%" viewBox="0 0 300 345" version="1.1" xmlns="http://www.w3.org/2000/svg" xmlns:xlink="http://www.w3.org/1999/xlink" xml:space="preserve" xmlns:serif="http://www.serif.com/" style="fill-rule:evenodd;clip-rule:evenodd;stroke-linejoin:round;stroke-miterlimit:2;">
    <path d="M278.53,248.83C278.53,228.751 262.229,212.45 242.15,212.45L57.85,212.45C37.771,212.45 21.47,228.751 21.47,248.83L21.47,308.62C21.47,328.699 37.771,345 57.85,345L242.15,345C262.229,345 278.53,328.699 278.53,308.62L278.53,248.83Z" style="fill:rgb(214,32,39);"/>
    <path d="M212.71,212.45L87.29,212.45C51.186,212.45 21.475,242.156 21.47,278.26C21.403,293.84 33.769,306.889 49.33,307.66L250.67,307.66C266.231,306.889 278.597,293.84 278.53,278.26C278.525,242.156 248.814,212.45 212.71,212.45Z" style="fill:rgb(142,25,27);fill-rule:nonzero;"/>
    <path d="M300,51.53C300,23.09 276.91,0 248.47,0L51.53,0C23.09,0 0,23.09 0,51.53L0,236.67C0,265.11 23.09,288.2 51.53,288.2L248.47,288.2C276.91,288.2 300,265.11 300,236.67L300,51.53Z" style="fill:url(#_Linear1);"/>
    <path d="M240.77,198.85L59.23,198.85C32.99,198.85 11.72,214.28 11.72,233.32L11.72,239.71C11.72,258.71 32.99,274.18 59.23,274.18L240.77,274.18C267.01,274.18 288.28,258.75 288.28,239.71L288.28,233.32C288.28,214.28 267,198.85 240.77,198.85Z" style="fill:rgb(218,230,245);fill-rule:nonzero;"/>
    <g transform="matrix(0.680233,0,0,1.17001,46.7715,-41.6745)">
        <path d="M266.809,234.386C266.809,232.828 264.634,231.564 261.955,231.564L41.554,231.564C38.875,231.564 36.7,232.828 36.7,234.386L36.7,237.76C36.7,239.317 38.875,240.582 41.554,240.582L261.955,240.582C264.634,240.582 266.809,239.317 266.809,237.76L266.809,234.386Z" style="fill:rgb(157,198,234);"/>
    </g>
    <g transform="matrix(0.930012,0,0,0.930012,10.2741,16.7839)">
        <path d="M74.578,229.798C82.957,218.402 90.483,207.005 97.315,195.603L97.132,195.603L92.415,181.696L105.313,181.696C105.766,180.877 106.215,180.057 106.66,179.238L103.144,179.238L103.144,181.696L102.313,181.696L102.313,179.238L96.78,179.238L96.78,181.696L95.95,181.696L95.95,179.238L92.89,179.238C92.628,179.238 92.415,179.025 92.415,178.763L92.415,177.814C92.415,177.552 92.628,177.339 92.89,177.339L107.687,177.339C115.942,161.992 123.087,146.646 129.509,131.299L127.662,131.299C126.769,131.299 126.044,130.574 126.044,129.68L126.044,126.443C126.044,125.549 126.769,124.824 127.662,124.824L128.542,124.824L128.542,122.242L133.219,122.242C134.879,118.1 136.493,113.957 138.067,109.814L140.86,44.432C139.707,44.352 138.795,43.389 138.795,42.216L138.795,31.696C138.795,30.47 139.79,29.474 141.017,29.474L143.711,29.474L146.868,24.372L148.59,24.372L148.59,7.166C148.148,6.771 147.87,6.197 147.87,5.559C147.87,4.369 148.836,3.404 150.025,3.404C151.215,3.404 152.18,4.369 152.18,5.559C152.18,6.197 151.902,6.771 151.461,7.166L151.461,24.372L153.182,24.372L156.339,29.474L159.033,29.474C160.26,29.474 161.256,30.47 161.256,31.696L161.256,42.216C161.256,43.442 160.26,44.438 159.033,44.438L158.854,44.438L161.641,109.049C163.329,113.446 165.06,117.843 166.843,122.242L171.287,122.242L171.287,124.824L172.045,124.824C172.939,124.824 173.664,125.549 173.664,126.443L173.664,129.68C173.664,130.574 172.939,131.299 172.045,131.299L170.591,131.299C177.073,146.645 184.255,161.992 192.495,177.339L207.29,177.339C207.552,177.339 207.765,177.552 207.765,177.814L207.765,178.763C207.765,179.025 207.552,179.238 207.29,179.238L203.758,179.238L203.758,181.696L202.927,181.696L202.927,179.238L197.395,179.238L197.395,181.696L196.564,181.696L196.564,179.238L193.519,179.238C193.965,180.059 194.412,180.878 194.862,181.696L207.765,181.696L203.048,195.603L202.821,195.603C209.607,207.003 217.053,218.401 225.306,229.798L227.742,229.798C228.669,229.798 229.422,230.55 229.422,231.477L229.422,234.836C229.422,235.763 228.669,236.515 227.742,236.515L197.847,236.515C196.92,236.515 196.167,235.763 196.167,234.836L196.167,231.477C196.167,230.55 196.92,229.798 197.847,229.798L197.933,229.798C193.302,223.311 189.067,216.823 185.163,210.332C161.73,202.972 138.294,202.918 114.857,210.341C110.929,216.824 106.648,223.311 101.95,229.798L102.635,229.798C103.562,229.798 104.315,230.55 104.315,231.477L104.315,234.836C104.315,235.763 103.562,236.515 102.635,236.515L72.74,236.515C71.813,236.515 71.06,235.763 71.06,234.836L71.06,231.477C71.06,230.55 71.813,229.798 72.74,229.798L74.578,229.798ZM131.3,179.238C130.923,180.057 130.542,180.876 130.156,181.696L169.894,181.696C169.507,180.876 169.124,180.057 168.745,179.238L165.844,179.238L165.844,181.696L165.013,181.696L165.013,179.238L159.48,179.238L159.48,181.696L158.649,181.696L158.649,179.238L153.457,179.238L153.457,181.696L152.626,181.696L152.626,179.238L147.093,179.238L147.093,181.696L146.262,181.696L146.262,179.238L140.614,179.238L140.614,181.696L139.783,181.696L139.783,179.238L134.251,179.238L134.251,181.696L133.42,181.696L133.42,179.238L131.3,179.238ZM167.873,177.339L132.167,177.339C136.511,167.758 140.345,158.174 143.889,148.59L156.029,148.59C159.624,158.174 163.503,167.758 167.873,177.339Z" style="fill:rgb(170,170,170);"/>
    </g>
    <g>
        <path d="M121.463,200.359L125.589,208.689C125.712,208.936 126.012,209.037 126.259,208.915C126.507,208.792 126.608,208.492 126.486,208.245L122.359,199.915C122.237,199.668 121.937,199.567 121.689,199.689C121.442,199.812 121.341,200.112 121.463,200.359ZM178.345,200.359L174.219,208.689C174.097,208.936 173.796,209.037 173.549,208.915C173.302,208.792 173.201,208.492 173.323,208.245L177.449,199.915C177.572,199.668 177.872,199.567 178.119,199.689C178.366,199.812 178.468,200.112 178.345,200.359ZM127.268,200.312L129.798,207.098C129.895,207.356 130.183,207.488 130.441,207.392C130.7,207.295 130.832,207.007 130.735,206.748L128.205,199.963C128.108,199.704 127.82,199.572 127.561,199.669C127.303,199.765 127.171,200.053 127.268,200.312ZM172.541,200.312L170.01,207.098C169.914,207.356 169.626,207.488 169.367,207.392C169.109,207.295 168.977,207.007 169.073,206.748L171.604,199.963C171.7,199.704 171.989,199.572 172.247,199.669C172.506,199.765 172.637,200.053 172.541,200.312ZM132.606,200.22L133.751,207.006C133.796,207.278 134.055,207.462 134.327,207.416C134.599,207.37 134.782,207.112 134.737,206.84L133.592,200.054C133.546,199.782 133.288,199.598 133.016,199.644C132.743,199.69 132.56,199.948 132.606,200.22ZM167.203,200.22L166.058,207.006C166.012,207.278 165.754,207.462 165.482,207.416C165.21,207.37 165.026,207.112 165.072,206.84L166.217,200.054C166.263,199.782 166.521,199.598 166.793,199.644C167.065,199.69 167.249,199.948 167.203,200.22ZM141.42,200.137L141.42,206.2C141.42,206.476 141.644,206.7 141.92,206.7C142.196,206.7 142.42,206.476 142.42,206.2L142.42,200.137C142.42,199.861 142.196,199.637 141.92,199.637C141.644,199.637 141.42,199.861 141.42,200.137ZM137.54,200.137L137.54,206.2C137.54,206.476 137.764,206.7 138.04,206.7C138.316,206.7 138.54,206.476 138.54,206.2L138.54,200.137C138.54,199.861 138.316,199.637 138.04,199.637C137.764,199.637 137.54,199.861 137.54,200.137ZM158.388,200.137L158.388,206.2C158.388,206.476 158.164,206.7 157.888,206.7C157.613,206.7 157.388,206.476 157.388,206.2L157.388,200.137C157.388,199.861 157.613,199.637 157.888,199.637C158.164,199.637 158.388,199.861 158.388,200.137ZM162.269,200.137L162.269,206.2C162.269,206.476 162.045,206.7 161.769,206.7C161.493,206.7 161.269,206.476 161.269,206.2L161.269,200.137C161.269,199.861 161.493,199.637 161.769,199.637C162.045,199.637 162.269,199.861 162.269,200.137ZM150.5,205.529L150.5,199.637C150.5,199.361 150.276,199.137 150,199.137C149.724,199.137 149.5,199.361 149.5,199.637L149.5,205.529C149.5,205.805 149.724,206.029 150,206.029C150.276,206.029 150.5,205.805 150.5,205.529ZM145.481,200.137L145.481,205.477C145.481,205.753 145.706,205.977 145.981,205.977C146.257,205.977 146.481,205.753 146.481,205.477L146.481,200.137C146.481,199.861 146.257,199.637 145.981,199.637C145.706,199.637 145.481,199.861 145.481,200.137ZM154.327,200.137L154.327,205.477C154.327,205.753 154.103,205.977 153.827,205.977C153.551,205.977 153.327,205.753 153.327,205.477L153.327,200.137C153.327,199.861 153.551,199.637 153.827,199.637C154.103,199.637 154.327,199.861 154.327,200.137Z" style="fill:rgb(133,133,133);"/>
        <g transform="matrix(1,0,0,1,-0.0728445,-0.107408)">
            <path d="M191.277,188.39C191.261,188.388 191.245,188.387 191.229,188.387C190.953,188.387 190.729,188.611 190.729,188.887L190.729,189.341L188.798,191.293L186.957,189.452L186.957,188.887C186.957,188.611 186.733,188.387 186.457,188.387C186.444,188.387 186.431,188.388 186.418,188.389C186.406,188.388 186.393,188.387 186.38,188.387C186.104,188.387 185.88,188.611 185.88,188.887L185.88,189.341L183.949,191.293L182.108,189.452L182.108,188.887C182.108,188.611 181.884,188.387 181.608,188.387C181.591,188.387 181.575,188.388 181.559,188.39C181.544,188.388 181.528,188.387 181.511,188.387C181.235,188.387 181.011,188.611 181.011,188.887L181.011,189.341L179.081,191.293L177.239,189.452L177.239,188.887C177.239,188.611 177.015,188.387 176.739,188.387C176.723,188.387 176.707,188.388 176.691,188.39C176.675,188.388 176.659,188.387 176.643,188.387C176.367,188.387 176.143,188.611 176.143,188.887L176.143,189.341L174.212,191.293L172.371,189.452L172.371,188.887C172.371,188.611 172.147,188.387 171.871,188.387C171.854,188.387 171.838,188.388 171.822,188.39C171.807,188.388 171.79,188.387 171.774,188.387C171.498,188.387 171.274,188.611 171.274,188.887L171.274,189.341L169.344,191.293L167.502,189.452L167.502,188.887C167.502,188.611 167.278,188.387 167.002,188.387C166.986,188.387 166.97,188.388 166.954,188.39C166.938,188.388 166.922,188.387 166.906,188.387C166.63,188.387 166.406,188.611 166.406,188.887L166.406,189.341L164.475,191.293L162.634,189.452L162.634,188.887C162.634,188.611 162.409,188.387 162.134,188.387C162.117,188.387 162.101,188.388 162.085,188.39C162.069,188.388 162.053,188.387 162.037,188.387C161.761,188.387 161.537,188.611 161.537,188.887L161.537,189.341L159.606,191.293L157.765,189.452L157.765,188.887C157.765,188.611 157.541,188.387 157.265,188.387C157.249,188.387 157.233,188.388 157.217,188.39C157.201,188.388 157.185,188.387 157.169,188.387C156.893,188.387 156.669,188.611 156.669,188.887L156.669,189.341L154.738,191.293L152.896,189.452L152.896,188.887C152.896,188.611 152.672,188.387 152.396,188.387C152.38,188.387 152.364,188.388 152.348,188.39C152.332,188.388 152.316,188.387 152.3,188.387C152.024,188.387 151.8,188.611 151.8,188.887L151.8,189.341L149.869,191.293L148.034,189.458L148.034,188.887C148.034,188.611 147.81,188.387 147.534,188.387L147.528,188.387C147.252,188.387 147.028,188.611 147.028,188.887L147.028,189.348L145.104,191.293L143.262,189.452L143.262,188.887C143.262,188.611 143.038,188.387 142.762,188.387C142.746,188.387 142.73,188.388 142.714,188.39C142.698,188.388 142.682,188.387 142.666,188.387C142.39,188.387 142.166,188.611 142.166,188.887L142.166,189.341L140.235,191.293L138.394,189.452L138.394,188.887C138.394,188.611 138.17,188.387 137.894,188.387C137.881,188.387 137.868,188.388 137.855,188.389C137.842,188.388 137.83,188.387 137.817,188.387C137.541,188.387 137.317,188.611 137.317,188.887L137.317,189.341L135.386,191.293L133.545,189.452L133.545,188.887C133.545,188.611 133.32,188.387 133.045,188.387C133.028,188.387 133.012,188.388 132.996,188.39C132.98,188.388 132.964,188.387 132.948,188.387C132.672,188.387 132.448,188.611 132.448,188.887L132.448,189.341L130.517,191.293L128.676,189.452L128.676,188.887C128.676,188.611 128.452,188.387 128.176,188.387C128.16,188.387 128.144,188.388 128.128,188.39C128.112,188.388 128.096,188.387 128.08,188.387C127.804,188.387 127.58,188.611 127.58,188.887L127.58,189.341L125.649,191.293L123.807,189.452L123.807,188.887C123.807,188.611 123.583,188.387 123.307,188.387C123.291,188.387 123.275,188.388 123.259,188.39C123.243,188.388 123.227,188.387 123.211,188.387C122.935,188.387 122.711,188.611 122.711,188.887L122.711,189.341L120.78,191.293L118.939,189.452L118.939,188.887C118.939,188.611 118.715,188.387 118.439,188.387C118.423,188.387 118.407,188.388 118.391,188.39C118.375,188.388 118.359,188.387 118.342,188.387C118.067,188.387 117.842,188.611 117.842,188.887L117.842,189.341L115.912,191.293L114.07,189.452L114.07,188.887C114.07,188.611 113.846,188.387 113.57,188.387C113.554,188.387 113.538,188.388 113.522,188.39C113.506,188.388 113.49,188.387 113.474,188.387C113.198,188.387 112.974,188.611 112.974,188.887L112.974,189.341L111.043,191.293L109.202,189.452L109.202,188.887C109.202,188.611 108.978,188.387 108.702,188.387C108.686,188.387 108.67,188.388 108.654,188.39C108.638,188.388 108.622,188.387 108.605,188.387C108.329,188.387 108.105,188.611 108.105,188.887L108.105,189.341L106.175,191.293L104.333,189.452L104.333,188.887C104.333,188.611 104.109,188.387 103.833,188.387C103.557,188.387 103.333,188.611 103.333,188.887L103.333,199.058C103.333,199.126 103.347,199.19 103.371,199.249L103.372,199.25C103.396,199.309 103.432,199.364 103.48,199.412C103.527,199.46 103.582,199.496 103.641,199.52L103.643,199.521C103.701,199.545 103.766,199.558 103.833,199.558C103.901,199.558 103.965,199.545 104.024,199.521L104.027,199.519C104.087,199.494 104.141,199.458 104.187,199.412L106.183,197.416L108.18,199.412C108.286,199.518 108.429,199.567 108.569,199.557C108.581,199.558 108.593,199.558 108.605,199.558C108.622,199.558 108.638,199.558 108.654,199.556C108.669,199.558 108.686,199.558 108.702,199.558C108.769,199.558 108.834,199.545 108.892,199.521L108.896,199.519C108.955,199.494 109.009,199.458 109.055,199.412L111.052,197.416L113.048,199.412C113.155,199.518 113.298,199.567 113.437,199.557C113.449,199.558 113.462,199.558 113.474,199.558C113.49,199.558 113.506,199.558 113.522,199.556C113.538,199.558 113.554,199.558 113.57,199.558C113.638,199.558 113.702,199.545 113.761,199.521L113.764,199.519C113.824,199.494 113.878,199.458 113.924,199.412L115.92,197.416L117.917,199.412C118.023,199.518 118.166,199.567 118.306,199.557C118.318,199.558 118.33,199.558 118.342,199.558C118.359,199.558 118.375,199.558 118.391,199.556C118.407,199.558 118.423,199.558 118.439,199.558C118.506,199.558 118.571,199.545 118.63,199.521L118.633,199.519C118.692,199.494 118.746,199.458 118.792,199.412L120.789,197.416L122.785,199.412C122.892,199.518 123.035,199.567 123.174,199.557C123.186,199.558 123.199,199.558 123.211,199.558C123.227,199.558 123.243,199.558 123.259,199.556C123.275,199.558 123.291,199.558 123.307,199.558C123.375,199.558 123.439,199.545 123.498,199.521L123.501,199.519C123.561,199.494 123.615,199.458 123.661,199.412L125.657,197.416L127.654,199.412C127.76,199.518 127.903,199.567 128.043,199.557C128.055,199.558 128.067,199.558 128.08,199.558C128.096,199.558 128.112,199.558 128.128,199.556C128.144,199.558 128.16,199.558 128.176,199.558C128.243,199.558 128.308,199.545 128.367,199.521L128.37,199.519C128.429,199.494 128.484,199.458 128.53,199.412L130.526,197.416L132.522,199.412C132.629,199.518 132.772,199.567 132.911,199.557C132.923,199.558 132.936,199.558 132.948,199.558C132.964,199.558 132.98,199.558 132.996,199.556C133.012,199.558 133.028,199.558 133.045,199.558C133.112,199.558 133.176,199.545 133.235,199.521L133.238,199.519C133.298,199.494 133.352,199.458 133.398,199.412L135.394,197.416L137.391,199.412C137.497,199.518 137.64,199.567 137.78,199.557C137.792,199.558 137.804,199.558 137.817,199.558C137.83,199.558 137.843,199.558 137.855,199.557C137.868,199.558 137.881,199.558 137.894,199.558C137.961,199.558 138.026,199.545 138.084,199.521L138.088,199.519C138.147,199.494 138.201,199.458 138.247,199.412L140.244,197.416L142.24,199.412C142.347,199.518 142.489,199.567 142.629,199.557C142.641,199.558 142.653,199.558 142.666,199.558C142.682,199.558 142.698,199.558 142.714,199.556C142.73,199.558 142.746,199.558 142.762,199.558C142.83,199.558 142.894,199.545 142.953,199.521L142.956,199.519C143.016,199.494 143.07,199.458 143.116,199.412L145.112,197.416L147.109,199.412C147.214,199.518 147.356,199.566 147.494,199.557C147.505,199.558 147.517,199.558 147.528,199.558L147.534,199.558C147.696,199.558 147.841,199.481 147.932,199.361L149.878,197.416L151.874,199.412C151.981,199.518 152.124,199.567 152.263,199.557C152.275,199.558 152.288,199.558 152.3,199.558C152.316,199.558 152.332,199.558 152.348,199.556C152.364,199.558 152.38,199.558 152.396,199.558C152.464,199.558 152.528,199.545 152.587,199.521L152.59,199.519C152.65,199.494 152.704,199.458 152.75,199.412L154.746,197.416L156.743,199.412C156.849,199.518 156.992,199.567 157.132,199.557C157.144,199.558 157.156,199.558 157.169,199.558C157.185,199.558 157.201,199.558 157.217,199.556C157.233,199.558 157.249,199.558 157.265,199.558C157.332,199.558 157.397,199.545 157.456,199.521L157.459,199.519C157.519,199.494 157.573,199.458 157.619,199.412L159.615,197.416L161.611,199.412C161.718,199.518 161.861,199.567 162,199.557C162.012,199.558 162.025,199.558 162.037,199.558C162.053,199.558 162.069,199.558 162.085,199.556C162.101,199.558 162.117,199.558 162.134,199.558C162.201,199.558 162.265,199.545 162.324,199.521L162.327,199.519C162.387,199.494 162.441,199.458 162.487,199.412L164.483,197.416L166.48,199.412C166.586,199.518 166.729,199.567 166.869,199.557C166.881,199.558 166.893,199.558 166.906,199.558C166.922,199.558 166.938,199.558 166.954,199.556C166.97,199.558 166.986,199.558 167.002,199.558C167.07,199.558 167.134,199.545 167.193,199.521L167.196,199.519C167.256,199.494 167.31,199.458 167.356,199.412L169.352,197.416L171.348,199.412C171.455,199.518 171.598,199.567 171.737,199.557C171.749,199.558 171.762,199.558 171.774,199.558C171.79,199.558 171.807,199.558 171.822,199.556C171.838,199.558 171.854,199.558 171.871,199.558C171.938,199.558 172.002,199.545 172.061,199.521L172.064,199.519C172.124,199.494 172.178,199.458 172.224,199.412L174.221,197.416L176.217,199.412C176.323,199.518 176.466,199.567 176.606,199.557C176.618,199.558 176.63,199.558 176.643,199.558C176.659,199.558 176.675,199.558 176.691,199.556C176.707,199.558 176.723,199.558 176.739,199.558C176.807,199.558 176.871,199.545 176.93,199.521L176.933,199.519C176.993,199.494 177.047,199.458 177.093,199.412L179.089,197.416L181.085,199.412C181.192,199.518 181.335,199.567 181.474,199.557C181.487,199.558 181.499,199.558 181.511,199.558C181.528,199.558 181.544,199.558 181.559,199.556C181.575,199.558 181.591,199.558 181.608,199.558C181.675,199.558 181.74,199.545 181.798,199.521L181.801,199.519C181.861,199.494 181.915,199.458 181.961,199.412L183.958,197.416L185.954,199.412C186.06,199.518 186.203,199.567 186.343,199.557C186.355,199.558 186.367,199.558 186.38,199.558C186.393,199.558 186.406,199.558 186.418,199.557C186.431,199.558 186.444,199.558 186.457,199.558C186.524,199.558 186.589,199.545 186.648,199.521L186.651,199.519C186.71,199.494 186.764,199.458 186.81,199.412L188.807,197.416L190.803,199.412C190.91,199.518 191.053,199.567 191.192,199.557C191.204,199.558 191.217,199.558 191.229,199.558C191.245,199.558 191.261,199.558 191.277,199.556C191.293,199.558 191.309,199.558 191.325,199.558C191.393,199.558 191.457,199.545 191.516,199.521L191.519,199.519C191.579,199.494 191.633,199.458 191.679,199.412L193.675,197.416L195.672,199.412C195.778,199.518 195.921,199.567 196.061,199.557C196.073,199.558 196.085,199.558 196.098,199.558C196.374,199.558 196.598,199.334 196.598,199.058L196.598,188.887C196.598,188.611 196.374,188.387 196.098,188.387C195.822,188.387 195.598,188.611 195.598,188.887L195.598,189.341L193.667,191.293L191.825,189.452L191.825,188.887C191.825,188.611 191.601,188.387 191.325,188.387C191.309,188.387 191.293,188.388 191.277,188.39ZM126.364,196.708L127.58,197.924L127.58,195.493L126.364,196.708ZM136.102,196.708L137.317,197.924L137.317,195.493L136.102,196.708ZM155.453,196.708L156.669,197.924L156.669,195.493L155.453,196.708ZM194.382,196.708L195.598,197.924L195.598,195.493L194.382,196.708ZM184.665,196.708L185.88,197.924L185.88,195.493L184.665,196.708ZM179.796,196.708L181.011,197.924L181.011,195.493L179.796,196.708ZM170.059,196.708L171.274,197.924L171.274,195.493L170.059,196.708ZM116.627,196.708L117.842,197.924L117.842,195.493L116.627,196.708ZM160.322,196.708L161.537,197.924L161.537,195.493L160.322,196.708ZM150.585,196.708L151.8,197.924L151.8,195.493L150.585,196.708ZM189.514,196.708L190.729,197.924L190.729,195.493L189.514,196.708ZM111.759,196.708L112.974,197.924L112.974,195.493L111.759,196.708ZM165.191,196.708L166.406,197.924L166.406,195.493L165.191,196.708ZM106.89,196.708L108.105,197.924L108.105,195.493L106.89,196.708ZM121.496,196.708L122.711,197.924L122.711,195.493L121.496,196.708ZM174.928,196.708L176.143,197.924L176.143,195.493L174.928,196.708ZM140.951,196.708L142.166,197.924L142.166,195.493L140.951,196.708ZM131.233,196.708L132.448,197.924L132.448,195.493L131.233,196.708ZM145.819,196.708L147.028,197.917L147.028,195.5L145.819,196.708ZM167.502,197.851L168.645,196.708L167.502,195.566L167.502,197.851ZM143.262,197.851L144.405,196.708L143.262,195.566L143.262,197.851ZM191.825,197.851L192.968,196.708L191.825,195.566L191.825,197.851ZM128.676,197.851L129.819,196.708L128.676,195.566L128.676,197.851ZM123.807,197.851L124.95,196.708L123.807,195.566L123.807,197.851ZM109.202,197.851L110.345,196.708L109.202,195.566L109.202,197.851ZM138.394,197.851L139.537,196.708L138.394,195.566L138.394,197.851ZM152.896,197.851L154.039,196.708L152.896,195.566L152.896,197.851ZM118.939,197.851L120.082,196.708L118.939,195.566L118.939,197.851ZM133.545,197.851L134.687,196.708L133.545,195.566L133.545,197.851ZM172.371,197.851L173.513,196.708L172.371,195.566L172.371,197.851ZM114.07,197.851L115.213,196.708L114.07,195.566L114.07,197.851ZM104.333,197.851L105.476,196.708L104.333,195.566L104.333,197.851ZM157.765,197.851L158.908,196.708L157.765,195.566L157.765,197.851ZM182.108,197.851L183.25,196.708L182.108,195.566L182.108,197.851ZM186.957,197.851L188.1,196.708L186.957,195.566L186.957,197.851ZM177.239,197.851L178.382,196.708L177.239,195.566L177.239,197.851ZM162.634,197.851L163.776,196.708L162.634,195.566L162.634,197.851ZM148.034,195.572L148.034,197.845L149.171,196.708L148.034,195.572ZM138.605,194.363L140.244,196.001L141.886,194.359L140.239,192.711L138.605,194.363ZM109.413,194.363L111.052,196.001L112.695,194.359L111.047,192.711L109.413,194.363ZM172.582,194.363L174.221,196.001L175.863,194.359L174.216,192.711L172.582,194.363ZM119.15,194.363L120.789,196.001L122.432,194.359L120.784,192.711L119.15,194.363ZM157.976,194.363L159.615,196.001L161.258,194.359L159.61,192.711L157.976,194.363ZM182.319,194.363L183.958,196.001L185.6,194.359L183.953,192.711L182.319,194.363ZM133.756,194.363L135.394,196.001L137.037,194.359L135.39,192.711L133.756,194.363ZM187.168,194.363L188.807,196.001L190.45,194.359L188.802,192.711L187.168,194.363ZM177.451,194.363L179.089,196.001L180.732,194.359L179.084,192.711L177.451,194.363ZM128.887,194.363L130.526,196.001L132.169,194.359L130.521,192.711L128.887,194.363ZM143.474,194.363L145.112,196.001L146.755,194.359L145.108,192.711L143.474,194.363ZM104.545,194.363L106.183,196.001L107.826,194.359L106.179,192.711L104.545,194.363ZM114.282,194.363L115.92,196.001L117.563,194.359L115.916,192.711L114.282,194.363ZM167.714,194.363L169.352,196.001L170.995,194.359L169.347,192.711L167.714,194.363ZM192.037,194.363L193.675,196.001L195.318,194.359L193.671,192.711L192.037,194.363ZM148.239,194.363L149.878,196.001L151.521,194.359L149.873,192.711L148.239,194.363ZM124.019,194.363L125.657,196.001L127.3,194.359L125.653,192.711L124.019,194.363ZM153.108,194.363L154.746,196.001L156.389,194.359L154.742,192.711L153.108,194.363ZM162.845,194.363L164.483,196.001L166.126,194.359L164.479,192.711L162.845,194.363ZM179.788,192L181.011,193.224L181.011,190.763L179.788,192ZM121.487,192L122.711,193.224L122.711,190.763L121.487,192ZM131.225,192L132.448,193.224L132.448,190.763L131.225,192ZM155.445,192L156.669,193.224L156.669,190.763L155.445,192ZM116.619,192L117.842,193.224L117.842,190.763L116.619,192ZM165.182,192L166.406,193.224L166.406,190.763L165.182,192ZM150.577,192L151.8,193.224L151.8,190.763L150.577,192ZM174.919,192L176.143,193.224L176.143,190.763L174.919,192ZM194.374,192L195.598,193.224L195.598,190.763L194.374,192ZM126.356,192L127.58,193.224L127.58,190.763L126.356,192ZM184.656,192L185.88,193.224L185.88,190.763L184.656,192ZM160.314,192L161.537,193.224L161.537,190.763L160.314,192ZM170.051,192L171.274,193.224L171.274,190.763L170.051,192ZM140.942,192L142.166,193.224L142.166,190.763L140.942,192ZM106.882,192L108.105,193.224L108.105,190.763L106.882,192ZM189.506,192L190.729,193.224L190.729,190.763L189.506,192ZM111.75,192L112.974,193.224L112.974,190.763L111.75,192ZM136.093,192L137.317,193.224L137.317,190.763L136.093,192ZM145.811,192L147.028,193.217L147.028,190.77L145.811,192ZM128.676,193.155L129.814,192.004L128.676,190.866L128.676,193.155ZM152.896,193.155L154.035,192.004L152.896,190.866L152.896,193.155ZM157.765,193.155L158.903,192.004L157.765,190.866L157.765,193.155ZM162.634,193.155L163.772,192.004L162.634,190.866L162.634,193.155ZM167.502,193.155L168.64,192.004L167.502,190.866L167.502,193.155ZM191.825,193.155L192.964,192.004L191.825,190.866L191.825,193.155ZM177.239,193.155L178.377,192.004L177.239,190.866L177.239,193.155ZM172.371,193.155L173.509,192.004L172.371,190.866L172.371,193.155ZM138.394,193.155L139.532,192.004L138.394,190.866L138.394,193.155ZM114.07,193.155L115.209,192.004L114.07,190.866L114.07,193.155ZM133.545,193.155L134.683,192.004L133.545,190.866L133.545,193.155ZM109.202,193.155L110.34,192.004L109.202,190.866L109.202,193.155ZM104.333,193.155L105.472,192.004L104.333,190.866L104.333,193.155ZM118.939,193.155L120.077,192.004L118.939,190.866L118.939,193.155ZM143.262,193.155L144.401,192.004L143.262,190.866L143.262,193.155ZM182.108,193.155L183.246,192.004L182.108,190.866L182.108,193.155ZM123.807,193.155L124.946,192.004L123.807,190.866L123.807,193.155ZM186.957,193.155L188.095,192.004L186.957,190.866L186.957,193.155ZM148.034,190.872L148.034,193.148L149.166,192.004L148.034,190.872Z" style="fill:rgb(133,133,133);"/>
        </g>
        <path d="M141.046,127.265L137.209,129.236C136.964,129.362 136.867,129.663 136.993,129.909C137.119,130.154 137.421,130.251 137.666,130.125L141.868,127.967L144.32,130.061C144.529,130.24 144.845,130.215 145.024,130.005C145.204,129.795 145.179,129.479 144.969,129.3L142.83,127.473L146.748,125.461C146.994,125.335 147.091,125.033 146.965,124.787C146.839,124.542 146.537,124.445 146.292,124.571L142.008,126.771L139.219,124.389C139.009,124.21 138.693,124.235 138.514,124.444C138.334,124.654 138.359,124.97 138.569,125.149L141.046,127.265ZM142.519,71.531L142.076,71.13C141.871,70.945 141.555,70.961 141.37,71.165C141.185,71.37 141.201,71.686 141.405,71.871L145.098,75.212L141.19,78.452C140.978,78.628 140.948,78.943 141.124,79.156C141.191,79.236 141.278,79.291 141.372,79.317C141.382,79.329 141.393,79.34 141.405,79.351L145.098,82.691L141.19,85.931C140.978,86.107 140.948,86.423 141.124,86.635C141.176,86.697 141.239,86.744 141.308,86.774C141.333,86.818 141.366,86.858 141.405,86.894L145.098,90.234L141.19,93.474C141.034,93.604 140.977,93.809 141.027,93.993C140.98,94.019 140.936,94.053 140.897,94.096C140.712,94.301 140.728,94.617 140.933,94.802L144.626,98.142L140.717,101.382C140.505,101.559 140.476,101.874 140.652,102.086C140.694,102.138 140.745,102.178 140.8,102.208C140.73,102.395 140.776,102.614 140.933,102.756L144.626,106.096L140.717,109.336C140.505,109.512 140.476,109.828 140.652,110.04C140.717,110.119 140.802,110.173 140.894,110.2C140.712,110.405 140.729,110.718 140.933,110.902L144.626,114.242L140.717,117.482C140.505,117.658 140.476,117.974 140.652,118.186C140.828,118.399 141.143,118.428 141.356,118.252L145.375,114.92L149.564,118.709C149.769,118.894 150.085,118.878 150.27,118.673C150.381,118.551 150.419,118.39 150.389,118.24L154.394,114.92L158.546,118.675C158.508,118.692 158.471,118.714 158.437,118.74L155.555,120.993L150.948,118.687C150.701,118.563 150.401,118.663 150.277,118.91C150.154,119.157 150.254,119.458 150.5,119.581L154.683,121.675L152.391,123.467C152.173,123.637 152.135,123.951 152.305,124.169C152.475,124.386 152.789,124.425 153.007,124.255L155.672,122.171L159.941,124.308C160.047,124.361 160.164,124.373 160.272,124.349C160.246,124.366 160.221,124.385 160.198,124.407L157.702,126.786L153.428,124.572C153.183,124.445 152.881,124.541 152.754,124.786C152.628,125.031 152.723,125.333 152.968,125.46L156.937,127.516L155.045,129.318C154.845,129.509 154.838,129.826 155.028,130.025C155.218,130.225 155.535,130.233 155.735,130.042L157.876,128.002L161.972,130.124C162.217,130.251 162.519,130.155 162.646,129.91C162.773,129.665 162.677,129.363 162.432,129.236L158.641,127.273L160.888,125.131C161.088,124.941 161.096,124.624 160.905,124.424C160.78,124.293 160.6,124.245 160.435,124.281C160.508,124.234 160.57,124.168 160.611,124.085C160.735,123.838 160.635,123.537 160.388,123.414L156.545,121.489L159.053,119.528C159.271,119.358 159.309,119.044 159.139,118.826C159.131,118.816 159.123,118.807 159.115,118.798C159.179,118.77 159.239,118.729 159.289,118.673C159.474,118.469 159.458,118.152 159.253,117.967L155.171,114.275L159,111.101C159.145,110.981 159.204,110.796 159.172,110.623C159.214,110.597 159.254,110.566 159.289,110.527C159.474,110.322 159.458,110.006 159.253,109.821L155.171,106.129L159,102.955C159.091,102.879 159.148,102.778 159.17,102.67C159.213,102.645 159.254,102.612 159.289,102.573C159.474,102.369 159.458,102.052 159.253,101.867L155.171,98.175L159,95.001C159.212,94.825 159.242,94.51 159.065,94.297C158.979,94.193 158.859,94.133 158.734,94.119C158.706,94.06 158.667,94.005 158.615,93.959L154.533,90.267L158.149,87.269C158.325,87.317 158.52,87.266 158.651,87.122C158.836,86.918 158.82,86.601 158.615,86.416L154.533,82.724L158.094,79.772C158.283,79.847 158.507,79.802 158.651,79.643C158.836,79.438 158.82,79.122 158.615,78.937L154.533,75.245L158.362,72.071C158.574,71.895 158.604,71.579 158.428,71.367C158.251,71.154 157.936,71.125 157.723,71.301L157.426,71.547C157.421,71.541 157.416,71.535 157.41,71.529L153.973,67.783L157.083,63.969C157.257,63.755 157.225,63.44 157.011,63.265C156.797,63.091 156.482,63.123 156.307,63.337L153.29,67.039L150.368,63.855C150.274,63.752 150.141,63.693 150.001,63.693C149.862,63.692 149.728,63.751 149.633,63.853L146.587,67.14L143.268,63.288C143.088,63.079 142.772,63.055 142.563,63.236C142.354,63.416 142.331,63.732 142.511,63.941L145.903,67.878L142.523,71.527L142.519,71.531ZM143.227,121.435L139.112,123.41C138.863,123.529 138.758,123.828 138.877,124.077C138.997,124.326 139.296,124.431 139.545,124.311L144.14,122.106L147.078,124.264C147.3,124.427 147.614,124.379 147.777,124.157C147.94,123.934 147.892,123.621 147.67,123.458L145.162,121.615L149.392,119.585C149.641,119.465 149.746,119.166 149.626,118.918C149.507,118.669 149.208,118.564 148.959,118.683L144.249,120.944L140.833,118.435C140.61,118.272 140.297,118.319 140.134,118.542C139.97,118.764 140.018,119.077 140.241,119.241L143.227,121.435ZM150.068,111.008C150.044,111.042 150.015,111.073 149.981,111.101L146.153,114.275L149.717,117.499C149.723,117.493 149.73,117.488 149.736,117.482L153.644,114.242L150.068,111.008ZM141.418,110.054C141.485,110.075 141.548,110.11 141.603,110.16L145.403,113.597L149.325,110.346L145.375,106.774L141.418,110.054ZM150.437,110.054C150.503,110.075 150.567,110.11 150.622,110.16L154.422,113.597L158.344,110.346L154.394,106.774L150.437,110.054ZM150.068,102.861C150.044,102.895 150.015,102.927 149.981,102.955L146.153,106.129L149.717,109.353C149.723,109.347 149.73,109.341 149.736,109.336L153.644,106.096L150.068,102.861ZM150.581,101.981C150.595,101.991 150.609,102.002 150.622,102.014L154.422,105.451L158.232,102.292L154.394,98.82L150.581,101.981ZM141.563,101.981C141.577,101.991 141.59,102.002 141.603,102.014L145.403,105.451L149.214,102.292L145.375,98.82L141.563,101.981ZM150.068,94.908C150.044,94.942 150.015,94.973 149.981,95.001L146.153,98.175L149.717,101.399C149.723,101.393 149.73,101.388 149.736,101.382L153.644,98.142L150.068,94.908ZM150.407,93.688L150.707,93.959C150.804,94.047 150.859,94.164 150.87,94.285L154.422,97.497L157.873,94.636L153.756,90.912L150.407,93.688ZM148.94,93.709L145.848,90.912L141.817,94.253L145.403,97.497L149.232,94.323C149.157,94.293 149.088,94.245 149.032,94.178C148.92,94.043 148.891,93.865 148.94,93.709ZM146.625,90.267L149.658,93.01L153.006,90.234L149.974,87.491L146.625,90.267ZM142.274,86.331L145.876,89.589L149.235,86.804C149.228,86.794 149.222,86.784 149.216,86.774C149.147,86.744 149.084,86.697 149.032,86.635C148.92,86.5 148.891,86.323 148.94,86.166L145.848,83.369L142.274,86.331ZM150.407,86.145L150.707,86.416C150.856,86.551 150.905,86.755 150.85,86.935L153.784,89.589L157.357,86.627L153.756,83.369L150.407,86.145ZM146.625,82.724L149.658,85.467L153.006,82.691L149.974,79.948L146.625,82.724ZM150.407,78.665L150.707,78.937C150.842,79.059 150.895,79.237 150.863,79.404L153.784,82.046L157.321,79.114L153.756,75.889L150.407,78.665ZM142.311,78.822L145.876,82.046L149.203,79.288C149.139,79.258 149.08,79.214 149.032,79.156C148.92,79.02 148.891,78.843 148.94,78.687L145.848,75.889L142.311,78.822ZM146.625,75.245L149.658,77.988L153.006,75.212L149.974,72.469L146.625,75.245ZM143.261,72.202L145.876,74.567L149.235,71.782C149.215,71.752 149.198,71.72 149.184,71.686L146.56,68.641L143.261,72.202ZM150.71,71.787L153.784,74.567L156.656,72.186L153.335,68.567L150.71,71.787ZM147.244,67.903L149.989,71.088L152.652,67.822L149.998,64.93L147.244,67.903Z" style="fill:rgb(133,133,133);"/>
        <path d="M138.804,125.39L160.995,125.39C161.547,125.39 161.995,124.941 161.995,124.39C161.995,123.838 161.547,123.39 160.995,123.39L138.804,123.39C138.252,123.39 137.804,123.838 137.804,124.39C137.804,124.941 138.252,125.39 138.804,125.39ZM139.933,119.424L159.775,119.424C160.327,119.424 160.775,118.976 160.775,118.424C160.775,117.872 160.327,117.424 159.775,117.424L139.933,117.424C139.381,117.424 138.933,117.872 138.933,118.424C138.933,118.976 139.381,119.424 139.933,119.424ZM140.792,111.022L158.555,111.022C159.107,111.022 159.555,110.574 159.555,110.022C159.555,109.47 159.107,109.022 158.555,109.022L140.792,109.022C140.24,109.022 139.792,109.47 139.792,110.022C139.792,110.574 140.24,111.022 140.792,111.022ZM140.792,103.188L158.555,103.188C159.107,103.188 159.555,102.74 159.555,102.188C159.555,101.637 159.107,101.188 158.555,101.188L140.792,101.188C140.24,101.188 139.792,101.637 139.792,102.188C139.792,102.74 140.24,103.188 140.792,103.188ZM140.792,95.184L158.555,95.184C159.107,95.184 159.555,94.736 159.555,94.184C159.555,93.632 159.107,93.184 158.555,93.184L140.792,93.184C140.24,93.184 139.792,93.632 139.792,94.184C139.792,94.736 140.24,95.184 140.792,95.184ZM141.865,87.405L157.764,87.405C158.316,87.405 158.764,86.957 158.764,86.405C158.764,85.853 158.316,85.405 157.764,85.405L141.865,85.405C141.313,85.405 140.865,85.853 140.865,86.405C140.865,86.957 141.313,87.405 141.865,87.405ZM141.865,79.85L157.764,79.85C158.316,79.85 158.764,79.402 158.764,78.85C158.764,78.298 158.316,77.85 157.764,77.85L141.865,77.85C141.313,77.85 140.865,78.298 140.865,78.85C140.865,79.402 141.313,79.85 141.865,79.85ZM141.865,73.001L157.764,73.001C158.316,73.001 158.316,71.001 157.764,71.001L141.865,71.001C141.313,71.001 140.865,71.449 140.865,72.001C140.865,72.553 141.313,73.001 141.865,73.001Z" style="fill:rgb(133,133,133);"/>
        <path d="M136.958,143.885L133.703,140.241C133.336,139.829 132.703,139.794 132.291,140.161C131.88,140.529 131.844,141.162 132.212,141.573L135.348,145.084L128.383,150.273C127.941,150.603 127.849,151.23 128.179,151.673C128.509,152.115 129.136,152.207 129.578,151.877L136.686,146.582L141.295,151.741C141.564,152.042 141.973,152.142 142.335,152.031L142.351,152.036C142.571,152.096 142.804,152.086 143.015,151.997C143.085,151.968 143.151,151.93 143.213,151.886L149.519,147.34L155.241,151.86C155.613,152.154 156.13,152.141 156.485,151.856L156.503,151.87C156.582,151.929 156.668,151.978 156.761,152.013C157.019,152.108 157.312,152.092 157.558,151.969C157.656,151.92 157.743,151.855 157.821,151.778L162.861,146.682L169.892,151.879C170.336,152.207 170.962,152.113 171.29,151.67C171.619,151.226 171.525,150.599 171.081,150.271L164.282,145.245L167.876,141.61C168.264,141.218 168.26,140.584 167.868,140.196C167.476,139.808 166.842,139.812 166.454,140.204L162.657,144.044L157.338,140.113C157.307,140.088 157.274,140.066 157.24,140.047L157.23,140.04L157.208,140.029L157.196,140.022L157.185,140.016C157.047,139.946 156.897,139.91 156.748,139.907L156.726,139.907C156.576,139.908 156.426,139.942 156.287,140.011L156.276,140.016L156.254,140.028L156.242,140.035L156.232,140.041C156.198,140.06 156.165,140.082 156.133,140.105L149.574,144.834L143.61,140.123C143.375,139.937 143.082,139.874 142.809,139.924C142.545,139.875 142.263,139.933 142.031,140.105L136.958,143.885ZM151.206,146.123L156.48,150.29L161.236,145.481L156.723,142.145L151.206,146.123ZM138.296,145.382L142.417,149.995L147.887,146.051L142.797,142.029L138.296,145.382Z" style="fill:rgb(133,133,133);"/>
        <path d="M144.393,152.989L144.393,140.215C144.393,139.387 143.721,138.715 142.893,138.715C142.065,138.715 141.393,139.387 141.393,140.215L141.393,152.989C141.393,153.816 142.065,154.489 142.893,154.489C143.721,154.489 144.393,153.816 144.393,152.989ZM158.007,152.989L158.007,140.215C158.007,139.387 157.335,138.715 156.507,138.715C155.679,138.715 155.007,139.387 155.007,140.215L155.007,152.989C155.007,153.816 155.679,154.489 156.507,154.489C157.335,154.489 158.007,153.816 158.007,152.989Z" style="fill:rgb(133,133,133);"/>
        <path d="M130.763,159.146L126.458,153.587C126.12,153.151 125.491,153.071 125.055,153.409C124.619,153.747 124.539,154.375 124.877,154.812L129.204,160.4L122.576,160.298C122.024,160.29 121.569,160.731 121.561,161.283C121.552,161.835 121.993,162.29 122.545,162.298L127.388,162.372L118.49,167.527C118.474,167.535 118.458,167.545 118.443,167.555C118.358,167.609 118.284,167.674 118.221,167.747C118.113,167.874 118.041,168.023 118.006,168.18L118.005,168.184C117.97,168.342 117.973,168.507 118.018,168.667C118.044,168.76 118.084,168.85 118.139,168.936C118.148,168.951 118.158,168.966 118.169,168.98L122.329,174.912L115.27,174.393C114.72,174.353 114.24,174.767 114.199,175.317C114.159,175.868 114.573,176.347 115.123,176.388L121.24,176.837L110.331,183.406C109.858,183.691 109.706,184.306 109.99,184.779C110.275,185.252 110.89,185.404 111.363,185.12L122.124,178.64L119.812,183.858C119.588,184.362 119.816,184.954 120.321,185.177C120.825,185.401 121.416,185.173 121.64,184.668L124.556,178.087L129.291,184.837C129.608,185.289 130.232,185.399 130.684,185.082C131.136,184.765 131.245,184.141 130.928,183.689L126.388,177.216L132.861,177.692C133.411,177.732 133.891,177.318 133.931,176.768C133.972,176.217 133.558,175.738 133.007,175.697L127.663,175.304L136.5,169.983C136.741,169.837 136.899,169.607 136.958,169.353C136.967,169.35 136.977,169.347 136.986,169.344C137.087,169.309 137.185,169.257 137.275,169.188C137.399,169.091 137.495,168.971 137.56,168.838C137.626,168.705 137.662,168.555 137.662,168.397C137.662,168.284 137.643,168.175 137.609,168.074L137.608,168.071C137.572,167.968 137.519,167.871 137.453,167.785L133.331,162.463L139.209,162.552C139.761,162.561 140.216,162.12 140.224,161.568C140.233,161.016 139.792,160.561 139.24,160.553L134.64,160.482L143.115,155.573C143.593,155.296 143.756,154.684 143.479,154.206C143.203,153.729 142.59,153.566 142.113,153.842L132.948,159.151L135.056,154.394C135.28,153.889 135.052,153.298 134.547,153.074C134.042,152.851 133.451,153.079 133.228,153.584L130.763,159.146ZM120.904,169.397L124.162,174.041L126.22,169.397L120.904,169.397ZM128.407,169.397L126.519,173.658L133.595,169.397L128.407,169.397ZM122.703,167.397L127.106,167.397L128.627,163.966L122.703,167.397ZM129.294,167.397L134.623,167.397L131.233,163.02L129.294,167.397Z" style="fill:rgb(133,133,133);"/>
        <g transform="matrix(-1,0,0,1,299.358,0)">
            <path d="M130.763,159.146L126.458,153.587C126.12,153.151 125.491,153.071 125.055,153.409C124.619,153.747 124.539,154.375 124.877,154.812L129.204,160.4L122.576,160.298C122.024,160.29 121.569,160.731 121.561,161.283C121.552,161.835 121.993,162.29 122.545,162.298L127.388,162.372L118.49,167.527C118.474,167.535 118.458,167.545 118.443,167.555C118.358,167.609 118.284,167.674 118.221,167.747C118.113,167.874 118.041,168.023 118.006,168.18L118.005,168.184C117.97,168.342 117.973,168.507 118.018,168.667C118.044,168.76 118.084,168.85 118.139,168.936C118.148,168.951 118.158,168.966 118.169,168.98L122.329,174.912L115.27,174.393C114.72,174.353 114.24,174.767 114.199,175.317C114.159,175.868 114.573,176.347 115.123,176.388L121.24,176.837L110.331,183.406C109.858,183.691 109.706,184.306 109.99,184.779C110.275,185.252 110.89,185.404 111.363,185.12L122.124,178.64L119.812,183.858C119.588,184.362 119.816,184.954 120.321,185.177C120.825,185.401 121.416,185.173 121.64,184.668L124.556,178.087L129.291,184.837C129.608,185.289 130.232,185.399 130.684,185.082C131.136,184.765 131.245,184.141 130.928,183.689L126.388,177.216L132.861,177.692C133.411,177.732 133.891,177.318 133.931,176.768C133.972,176.217 133.558,175.738 133.007,175.697L127.663,175.304L136.5,169.983C136.741,169.837 136.899,169.607 136.958,169.353C136.967,169.35 136.977,169.347 136.986,169.344C137.087,169.309 137.185,169.257 137.275,169.188C137.399,169.091 137.495,168.971 137.56,168.838C137.626,168.705 137.662,168.555 137.662,168.397C137.662,168.284 137.643,168.175 137.609,168.074L137.608,168.071C137.572,167.968 137.519,167.871 137.453,167.785L133.331,162.463L139.209,162.552C139.761,162.561 140.216,162.12 140.224,161.568C140.233,161.016 139.792,160.561 139.24,160.553L134.64,160.482L143.115,155.573C143.593,155.296 143.756,154.684 143.479,154.206C143.203,153.729 142.59,153.566 142.113,153.842L132.948,159.151L135.056,154.394C135.28,153.889 135.052,153.298 134.547,153.074C134.042,152.851 133.451,153.079 133.228,153.584L130.763,159.146ZM120.904,169.397L124.162,174.041L126.22,169.397L120.904,169.397ZM128.407,169.397L126.519,173.658L133.595,169.397L128.407,169.397ZM122.703,167.397L127.106,167.397L128.627,163.966L122.703,167.397ZM129.294,167.397L134.623,167.397L131.233,163.02L129.294,167.397Z" style="fill:rgb(133,133,133);"/>
        </g>
        <path d="M105.361,207.331L97.887,207.014C97.336,206.991 96.869,207.42 96.846,207.971C96.823,208.522 97.251,208.989 97.803,209.012L102.647,209.218L93.256,214.636C93.177,214.68 93.107,214.734 93.045,214.795L93.038,214.803C92.924,214.918 92.842,215.058 92.795,215.208L92.79,215.223C92.746,215.374 92.737,215.536 92.768,215.695L92.77,215.705C92.787,215.79 92.816,215.874 92.856,215.955L95.707,221.715L87.689,221.084C87.139,221.041 86.657,221.453 86.614,222.003C86.571,222.553 86.982,223.035 87.532,223.078L94.092,223.594L83.648,228.545C83.149,228.781 82.936,229.378 83.172,229.877C83.409,230.376 84.006,230.589 84.504,230.352L94.097,225.805C93.167,227.009 92.21,228.198 91.227,229.371C90.872,229.794 90.928,230.425 91.351,230.78C91.774,231.134 92.405,231.079 92.76,230.656C94.335,228.776 95.843,226.857 97.284,224.901L100.034,230.457C100.278,230.952 100.879,231.155 101.373,230.91C101.868,230.665 102.071,230.065 101.826,229.57L99.062,223.985L106.926,224.603C107.476,224.647 107.958,224.235 108.002,223.685C108.045,223.135 107.633,222.653 107.083,222.609L101.727,222.188L112.034,217.302C112.048,217.296 112.061,217.289 112.074,217.283C112.161,217.237 112.239,217.181 112.307,217.116L112.314,217.109C112.431,216.994 112.516,216.854 112.565,216.702L112.569,216.692C112.616,216.54 112.628,216.377 112.598,216.215L112.596,216.205C112.58,216.118 112.551,216.033 112.51,215.95C112.577,215.816 112.614,215.665 112.614,215.505C112.614,214.982 112.212,214.552 111.7,214.509L108.868,209.481L115.191,209.749C115.743,209.772 116.209,209.344 116.233,208.792C116.256,208.241 115.827,207.774 115.276,207.751L109.609,207.511L120.223,201.388C120.701,201.112 120.865,200.5 120.589,200.022C120.313,199.544 119.701,199.379 119.223,199.655L108.833,205.649C109.508,204.246 110.157,202.829 110.783,201.397C111.004,200.892 110.773,200.302 110.267,200.081C109.761,199.86 109.171,200.091 108.95,200.597C108.219,202.269 107.455,203.922 106.656,205.554L103.266,199.536C102.995,199.056 102.385,198.885 101.904,199.156C101.423,199.427 101.253,200.037 101.524,200.518L105.361,207.331ZM100.575,216.505L95.36,216.505L97.597,221.024C98.626,219.539 99.619,218.033 100.575,216.505ZM100.258,220.671L109.046,216.505L102.928,216.505C102.067,217.911 101.178,219.3 100.258,220.671ZM103.94,210.781L97.484,214.505L101.8,214.505C102.536,213.277 103.249,212.035 103.94,210.781ZM106.746,209.79C105.907,211.382 105.033,212.954 104.125,214.505L109.402,214.505L106.746,209.79Z" style="fill:rgb(133,133,133);"/>
        <g transform="matrix(-1,0,0,1,299.509,0)">
            <path d="M105.361,207.331L97.887,207.014C97.336,206.991 96.869,207.42 96.846,207.971C96.823,208.522 97.251,208.989 97.803,209.012L102.647,209.218L93.256,214.636C93.177,214.68 93.107,214.734 93.045,214.795L93.038,214.803C92.924,214.918 92.842,215.058 92.795,215.208L92.79,215.223C92.746,215.374 92.737,215.536 92.768,215.695L92.77,215.705C92.787,215.79 92.816,215.874 92.856,215.955L95.707,221.715L87.689,221.084C87.139,221.041 86.657,221.453 86.614,222.003C86.571,222.553 86.982,223.035 87.532,223.078L94.092,223.594L83.648,228.545C83.149,228.781 82.936,229.378 83.172,229.877C83.409,230.376 84.006,230.589 84.504,230.352L94.097,225.805C93.167,227.009 92.21,228.198 91.227,229.371C90.872,229.794 90.928,230.425 91.351,230.78C91.774,231.134 92.405,231.079 92.76,230.656C94.335,228.776 95.843,226.857 97.284,224.901L100.034,230.457C100.278,230.952 100.879,231.155 101.373,230.91C101.868,230.665 102.071,230.065 101.826,229.57L99.062,223.985L106.926,224.603C107.476,224.647 107.958,224.235 108.002,223.685C108.045,223.135 107.633,222.653 107.083,222.609L101.727,222.188L112.034,217.302C112.048,217.296 112.061,217.289 112.074,217.283C112.161,217.237 112.239,217.181 112.307,217.116L112.314,217.109C112.431,216.994 112.516,216.854 112.565,216.702L112.569,216.692C112.616,216.54 112.628,216.377 112.598,216.215L112.596,216.205C112.58,216.118 112.551,216.033 112.51,215.95C112.577,215.816 112.614,215.665 112.614,215.505C112.614,214.982 112.212,214.552 111.7,214.509L108.868,209.481L115.191,209.749C115.743,209.772 116.209,209.344 116.233,208.792C116.256,208.241 115.827,207.774 115.276,207.751L109.609,207.511L120.223,201.388C120.701,201.112 120.865,200.5 120.589,200.022C120.313,199.544 119.701,199.379 119.223,199.655L108.833,205.649C109.508,204.246 110.157,202.829 110.783,201.397C111.004,200.892 110.773,200.302 110.267,200.081C109.761,199.86 109.171,200.091 108.95,200.597C108.219,202.269 107.455,203.922 106.656,205.554L103.266,199.536C102.995,199.056 102.385,198.885 101.904,199.156C101.423,199.427 101.253,200.037 101.524,200.518L105.361,207.331ZM100.575,216.505L95.36,216.505L97.597,221.024C98.626,219.539 99.619,218.033 100.575,216.505ZM100.258,220.671L109.046,216.505L102.928,216.505C102.067,217.911 101.178,219.3 100.258,220.671ZM103.94,210.781L97.484,214.505L101.8,214.505C102.536,213.277 103.249,212.035 103.94,210.781ZM106.746,209.79C105.907,211.382 105.033,212.954 104.125,214.505L109.402,214.505L106.746,209.79Z" style="fill:rgb(133,133,133);"/>
        </g>
        <path d="M79.633,230.498C87.425,219.901 94.425,209.301 100.778,198.697L100.608,198.697L96.221,185.764L108.217,185.764C108.637,185.001 109.055,184.239 109.469,183.477L106.199,183.477L106.199,185.764L105.427,185.764L105.427,183.477L100.281,183.477L100.281,185.764L99.509,185.764L99.509,183.477L96.663,183.477C96.419,183.477 96.221,183.279 96.221,183.036L96.221,182.153C96.221,181.909 96.419,181.711 96.663,181.711L110.424,181.711C118.102,167.438 124.747,153.166 130.719,138.894L129.002,138.894C128.171,138.894 127.496,138.219 127.496,137.388L127.496,134.377C127.496,133.546 128.171,132.871 129.002,132.871L129.819,132.871L129.819,130.47L134.169,130.47C135.714,126.618 137.214,122.765 138.678,118.913L141.275,58.106C140.203,58.031 139.355,57.136 139.355,56.045L139.355,46.262C139.355,45.121 140.281,44.195 141.421,44.195L143.927,44.195L146.863,39.45L148.464,39.45L148.464,23.448C148.054,23.081 147.795,22.547 147.795,21.954C147.795,20.847 148.693,19.949 149.799,19.949C150.905,19.949 151.804,20.847 151.804,21.954C151.804,22.547 151.545,23.081 151.134,23.448L151.134,39.45L152.735,39.45L155.672,44.195L158.177,44.195C159.318,44.195 160.244,45.121 160.244,46.262L160.244,56.045C160.244,57.185 159.318,58.111 158.177,58.111L158.011,58.111L160.602,118.201C162.172,122.29 163.781,126.379 165.44,130.47L169.573,130.47L169.573,132.871L170.278,132.871C171.109,132.871 171.784,133.546 171.784,134.377L171.784,137.388C171.784,138.219 171.109,138.894 170.278,138.894L168.926,138.894C174.954,153.165 181.633,167.438 189.296,181.711L203.056,181.711C203.3,181.711 203.498,181.909 203.498,182.153L203.498,183.036C203.498,183.279 203.3,183.477 203.056,183.477L199.771,183.477L199.771,185.764L198.999,185.764L198.999,183.477L193.853,183.477L193.853,185.764L193.081,185.764L193.081,183.477L190.249,183.477C190.663,184.241 191.079,185.002 191.498,185.764L203.498,185.764L199.112,198.697L198.9,198.697C205.211,209.299 212.136,219.9 219.811,230.498L222.077,230.498C222.939,230.498 223.639,231.198 223.639,232.06L223.639,235.184C223.639,236.046 222.939,236.746 222.077,236.746L194.274,236.746C193.412,236.746 192.712,236.046 192.712,235.184L192.712,232.06C192.712,231.198 193.412,230.498 194.274,230.498L194.354,230.498C190.047,224.465 186.109,218.432 182.478,212.395C160.685,205.55 138.889,205.5 117.092,212.403C113.439,218.433 109.458,224.466 105.088,230.498L105.726,230.498C106.588,230.498 107.288,231.198 107.288,232.06L107.288,235.184C107.288,236.046 106.588,236.746 105.726,236.746L77.923,236.746C77.061,236.746 76.361,236.046 76.361,235.184L76.361,232.06C76.361,231.198 77.061,230.498 77.923,230.498L79.633,230.498ZM103.351,201.643L117.615,201.643C113.068,211.644 107.521,220.952 100.527,229.258L85.345,229.258C92.499,220.053 98.457,210.848 103.351,201.643ZM196.423,201.643L182.159,201.643C186.706,211.644 192.253,220.952 199.247,229.258L214.428,229.258C207.275,220.053 201.317,210.848 196.423,201.643ZM118.554,208.823L122.339,201.141L177.256,201.141L181.422,209.159C160.75,203.466 139.791,203.406 118.554,208.823ZM104.759,198.85L194.788,198.85L197.817,189.314L101.83,189.314L104.759,198.85ZM132.384,183.477C132.034,184.239 131.679,185.001 131.321,185.764L168.277,185.764C167.917,185.001 167.561,184.239 167.209,183.477L164.511,183.477L164.511,185.764L163.738,185.764L163.738,183.477L158.592,183.477L158.592,185.764L157.82,185.764L157.82,183.477L152.99,183.477L152.99,185.764L152.218,185.764L152.218,183.477L147.072,183.477L147.072,185.764L146.3,185.764L146.3,183.477L141.047,183.477L141.047,185.764L140.274,185.764L140.274,183.477L135.129,183.477L135.129,185.764L134.356,185.764L134.356,183.477L132.384,183.477ZM126.827,154.974L112.991,183.359L129.232,183.359L140.816,154.974L126.827,154.974ZM172.349,154.974L186.184,183.359L169.943,183.359L158.359,154.974L172.349,154.974ZM166.398,181.711L133.191,181.711C137.231,172.8 140.796,163.888 144.093,154.974L155.383,154.974C158.726,163.888 162.334,172.8 166.398,181.711ZM129.815,150.57L169.498,150.57L166.504,141.532L133.515,141.532L129.815,150.57ZM149.022,63.366C147.249,62.199 143.686,62.678 143.686,65.059L141.557,118.432L138.041,129.221L144.294,129.221L149,118.41L149,63.576C149,63.504 149.008,63.434 149.022,63.366ZM146.476,129.221L153.526,129.221L150.001,121.122L146.476,129.221ZM155.708,129.221L161.371,129.221L157.699,118.432L157.697,118.432L155.879,65.059C155.879,62.858 152.649,62.289 150.977,63.351C150.993,63.423 151.002,63.498 151.002,63.576L151.002,118.41L155.708,129.221Z" style="fill:rgb(133,133,133);"/>
    </g>
    <g transform="matrix(1,0,0,1,-0.0145319,0)">
        <g transform="matrix(0.484395,0,0,0.484395,121.184,128.155)">
            <ellipse cx="214" cy="236.51" rx="44.91" ry="8.53" style="fill:rgb(157,198,234);"/>
        </g>
        <g transform="matrix(0.484395,0,0,0.484395,121.184,128.155)">
            <path d="M227.58,219.76L227.58,229.69C227.61,232.442 226.252,235.031 223.97,236.57C221.97,237.91 218.81,239.02 213.97,239.02C209.13,239.02 206.02,237.91 203.97,236.57C201.688,235.031 200.33,232.442 200.36,229.69L200.36,219.76C200.36,219.757 200.36,219.753 200.36,219.75C200.36,215.164 204.134,211.39 208.72,211.39L219.16,211.39C219.18,211.39 219.2,211.39 219.22,211.39C223.806,211.39 227.58,215.164 227.58,219.75C227.58,219.753 227.58,219.757 227.58,219.76Z" style="fill:rgb(124,96,65);fill-rule:nonzero;"/>
        </g>
        <g transform="matrix(0.484395,0,0,0.484395,121.184,128.155)">
            <path d="M219.22,211.39L208.78,211.39C204.194,211.39 200.42,215.164 200.42,219.75C200.42,219.753 200.42,219.757 200.42,219.76L200.42,225.07C209.404,226.657 218.596,226.657 227.58,225.07L227.58,219.76C227.58,219.757 227.58,219.753 227.58,219.75C227.58,215.164 223.806,211.39 219.22,211.39Z" style="fill:rgb(86,65,45);fill-rule:nonzero;"/>
        </g>
        <g transform="matrix(-1,0,0,1,301.206,0)">
            <path d="M82.264,201.264C82.504,200.67 82.902,200.125 83.484,199.637C83.742,200.188 83.873,200.731 83.868,201.264L86.654,201.264C91.245,201.264 94.972,204.991 94.972,209.582L94.972,219.372C95.136,219.367 95.304,219.381 95.477,219.414C95.397,219.647 95.306,219.857 95.205,220.044C95.499,220.321 95.722,220.659 95.849,221.078C95.531,221.127 95.238,221.142 94.972,221.122L94.972,226.216C94.972,230.806 91.245,234.533 86.654,234.533L68.289,234.533C68.203,234.913 68.032,235.265 67.751,235.58C67.567,235.362 67.416,235.147 67.3,234.935C67.162,235.058 67.006,235.167 66.83,235.26C66.738,235.005 66.674,234.762 66.638,234.533L66.097,234.533C61.506,234.533 57.779,230.806 57.779,226.216L57.779,221.128C57.621,221.122 57.455,221.105 57.281,221.078C57.386,220.731 57.557,220.44 57.779,220.193L57.779,219.452C57.451,219.164 57.205,218.807 57.068,218.357C57.321,218.318 57.558,218.3 57.779,218.305L57.779,209.582C57.779,204.991 61.506,201.264 66.097,201.264L70.607,201.264C70.595,200.95 70.645,200.633 70.772,200.314C71.265,200.595 71.629,200.912 71.862,201.264L81.069,201.264C81.203,201.02 81.39,200.827 81.619,200.676C81.801,200.821 81.935,201.024 82.038,201.264L82.264,201.264Z" style="fill:rgb(108,135,0);"/>
        </g>
        <g transform="matrix(-1,0,0,1,301.206,0)">
            <path d="M57.762,218.305L57.779,218.305L57.779,209.582C57.779,204.991 61.506,201.264 66.097,201.264L70.607,201.264C70.595,200.95 70.645,200.633 70.772,200.314C71.265,200.595 71.629,200.912 71.862,201.264L81.069,201.264C81.203,201.02 81.39,200.827 81.619,200.676C81.801,200.821 81.935,201.024 82.038,201.264L82.264,201.264C82.504,200.67 82.902,200.125 83.484,199.637C83.742,200.188 83.873,200.731 83.868,201.264L86.654,201.264C91.245,201.264 94.972,204.991 94.972,209.582L94.972,213.923C94.053,215.281 92.542,215.712 90.706,214.863C90.461,214.749 90.256,214.799 90.204,215.038C89.127,220.014 77.299,220.991 74.838,215.325C74.739,215.095 74.531,215.126 74.488,215.379C73.048,223.834 60.824,225.541 57.762,218.305Z" style="fill:white;"/>
        </g>
    </g>
    <g transform="matrix(-1,0,0,1,301.206,0)">
        <g transform="matrix(0.484395,0,0,0.484395,121.184,128.155)">
            <ellipse cx="214" cy="236.51" rx="44.91" ry="8.53" style="fill:rgb(157,198,234);"/>
        </g>
        <g transform="matrix(0.484395,0,0,0.484395,121.184,128.155)">
            <path d="M227.58,219.76L227.58,229.69C227.61,232.442 226.252,235.031 223.97,236.57C221.97,237.91 218.81,239.02 213.97,239.02C209.13,239.02 206.02,237.91 203.97,236.57C201.688,235.031 200.33,232.442 200.36,229.69L200.36,219.76C200.36,219.757 200.36,219.753 200.36,219.75C200.36,215.164 204.134,211.39 208.72,211.39L219.16,211.39C219.18,211.39 219.2,211.39 219.22,211.39C223.806,211.39 227.58,215.164 227.58,219.75C227.58,219.753 227.58,219.757 227.58,219.76Z" style="fill:rgb(124,96,65);fill-rule:nonzero;"/>
        </g>
        <g transform="matrix(0.484395,0,0,0.484395,121.184,128.155)">
            <path d="M219.22,211.39L208.78,211.39C204.194,211.39 200.42,215.164 200.42,219.75C200.42,219.753 200.42,219.757 200.42,219.76L200.42,225.07C209.404,226.657 218.596,226.657 227.58,225.07L227.58,219.76C227.58,219.757 227.58,219.753 227.58,219.75C227.58,215.164 223.806,211.39 219.22,211.39Z" style="fill:rgb(86,65,45);fill-rule:nonzero;"/>
        </g>
        <g transform="matrix(-1,0,0,1,301.206,0)">
            <path d="M82.264,201.264C82.504,200.67 82.902,200.125 83.484,199.637C83.742,200.188 83.873,200.731 83.868,201.264L86.654,201.264C91.245,201.264 94.972,204.991 94.972,209.582L94.972,219.372C95.136,219.367 95.304,219.381 95.477,219.414C95.397,219.647 95.306,219.857 95.205,220.044C95.499,220.321 95.722,220.659 95.849,221.078C95.531,221.127 95.238,221.142 94.972,221.122L94.972,226.216C94.972,230.806 91.245,234.533 86.654,234.533L68.289,234.533C68.203,234.913 68.032,235.265 67.751,235.58C67.567,235.362 67.416,235.147 67.3,234.935C67.162,235.058 67.006,235.167 66.83,235.26C66.738,235.005 66.674,234.762 66.638,234.533L66.097,234.533C61.506,234.533 57.779,230.806 57.779,226.216L57.779,221.128C57.621,221.122 57.455,221.105 57.281,221.078C57.386,220.731 57.557,220.44 57.779,220.193L57.779,219.452C57.451,219.164 57.205,218.807 57.068,218.357C57.321,218.318 57.558,218.3 57.779,218.305L57.779,209.582C57.779,204.991 61.506,201.264 66.097,201.264L70.607,201.264C70.595,200.95 70.645,200.633 70.772,200.314C71.265,200.595 71.629,200.912 71.862,201.264L81.069,201.264C81.203,201.02 81.39,200.827 81.619,200.676C81.801,200.821 81.935,201.024 82.038,201.264L82.264,201.264Z" style="fill:rgb(108,135,0);"/>
        </g>
        <g transform="matrix(-1,0,0,1,301.206,0)">
            <path d="M57.762,218.305L57.779,218.305L57.779,209.582C57.779,204.991 61.506,201.264 66.097,201.264L70.607,201.264C70.595,200.95 70.645,200.633 70.772,200.314C71.265,200.595 71.629,200.912 71.862,201.264L81.069,201.264C81.203,201.02 81.39,200.827 81.619,200.676C81.801,200.821 81.935,201.024 82.038,201.264L82.264,201.264C82.504,200.67 82.902,200.125 83.484,199.637C83.742,200.188 83.873,200.731 83.868,201.264L86.654,201.264C91.245,201.264 94.972,204.991 94.972,209.582L94.972,213.923C94.053,215.281 92.542,215.712 90.706,214.863C90.461,214.749 90.256,214.799 90.204,215.038C89.127,220.014 77.299,220.991 74.838,215.325C74.739,215.095 74.531,215.126 74.488,215.379C73.048,223.834 60.824,225.541 57.762,218.305Z" style="fill:white;"/>
        </g>
    </g>
    <g>
        <circle cx="54.57" cy="69.95" r="10.8" style="fill:white;"/>
        <circle cx="92.22" cy="33.94" r="5.89" style="fill:white;"/>
        <g transform="matrix(0.484429,0,0,0.484429,99.7016,58.9197)">
            <circle cx="150.54" cy="80.64" r="17.34" style="fill:white;"/>
        </g>
        <g transform="matrix(0.324393,0,0,0.324393,158.754,81.2224)">
            <circle cx="150.54" cy="80.64" r="17.34" style="fill:white;"/>
        </g>
        <g transform="matrix(0.166915,0,0,0.166915,206.844,72.8605)">
            <circle cx="150.54" cy="80.64" r="17.34" style="fill:white;"/>
        </g>
        <circle cx="108.07" cy="116.13" r="5.89" style="fill:white;"/>
        <circle cx="203" cy="32.42" r="4.36" style="fill:white;"/>
        <circle cx="256.26" cy="56.92" r="10.75" style="fill:white;"/>
        <circle cx="267.68" cy="95.51" r="2.47" style="fill:white;"/>
        <g transform="matrix(1,0,0,1,-4.94,138.535)">
            <circle cx="267.68" cy="95.51" r="2.47" style="fill:white;"/>
        </g>
        <circle cx="153.73" cy="156.31" r="3.73" style="fill:white;"/>
        <circle cx="79.48" cy="165.9" r="7.64" style="fill:white;"/>
        <circle cx="103.2" cy="75.04" r="5.09" style="fill:white;"/>
        <circle cx="155.89" cy="29.18" r="5.89" style="fill:white;"/>
        <circle cx="251.88" cy="155.75" r="7.03" style="fill:white;"/>
        <circle cx="215.42" cy="146.44" r="4.1" style="fill:white;"/>
        <circle cx="186.47" cy="201.32" r="7.76" style="fill:white;"/>
        <circle cx="276.33" cy="197.44" r="3.88" style="fill:white;"/>
        <circle cx="53.96" cy="115.22" r="6.11" style="fill:white;"/>
        <circle cx="37.43" cy="160.96" r="6.34" style="fill:white;"/>
        <circle cx="88.54" cy="130.11" r="2.21" style="fill:white;"/>
        <circle cx="117.97" cy="161.14" r="2.88" style="fill:white;"/>
        <circle cx="62.45" cy="188.47" r="1.47" style="fill:white;"/>
        <circle cx="20.56" cy="106.73" r="3.74" style="fill:white;"/>
        <circle cx="39.13" cy="27.49" r="1.7" style="fill:white;"/>
        <circle cx="280.52" cy="130.8" r="1.99" style="fill:white;"/>
        <circle cx="209.91" cy="54.37" r="2.55" style="fill:white;"/>
        <circle cx="241.8" cy="26.16" r="6.26" style="fill:white;"/>
        <circle cx="105.24" cy="200.47" r="5.77" style="fill:white;"/>
        <circle cx="55.09" cy="238.84" r="4.98" style="fill:white;"/>
        <circle cx="136.37" cy="229.28" r="6.79" style="fill:white;"/>
        <circle cx="114.92" cy="249.76" r="5.94" style="fill:white;"/>
        <circle cx="138.67" cy="197.44" r="3.88" style="fill:white;"/>
        <circle cx="32.79" cy="203.49" r="4.64" style="fill:white;"/>
    </g>
    <defs>
        <linearGradient id="_Linear1" x1="0" y1="0" x2="1" y2="0" gradientUnits="userSpaceOnUse" gradientTransform="matrix(-0.46,406.41,-406.41,-0.46,150.28,-102.84)"><stop offset="0" style="stop-color:rgb(199,233,246);stop-opacity:0.8"/><stop offset="0.3" style="stop-color:rgb(199,233,246);stop-opacity:0.8"/><stop offset="0.96" style="stop-color:rgb(16,175,209);stop-opacity:0.8"/><stop offset="1" style="stop-color:rgb(16,175,209);stop-opacity:0.8"/></linearGradient>
    </defs>
</svg>
