<svg id="Capa_1" enable-background="new 0 0 512 512" height="512" viewBox="0 0 512 512" width="512" xmlns="http://www.w3.org/2000/svg"><g><g><g><path d="m9.052 502.948c-12.069-12.069-12.069-31.638 0-43.707l398.796-398.796c12.069-12.069 31.638-12.069 43.707 0 12.069 12.069 12.069 31.638 0 43.707l-398.796 398.796c-12.069 12.069-31.638 12.069-43.707 0z" fill="#d99668"/></g></g><g><g><path d="m451.555 60.445c-12.069-12.069-31.637-12.069-43.707 0l-225.819 225.819c12.069-12.069 31.637-12.069 43.707 0s12.069 31.638 0 43.707l225.819-225.819c12.069-12.069 12.069-31.637 0-43.707z" fill="#d18a56"/></g></g><g><g><path d="m155.131.008c-11.824-.425-16.263 15.284-6.041 21.242 57.96 33.778 124.96 86.156 190.232 151.428 65.273 65.273 117.65 132.272 151.428 190.232 5.957 10.222 21.667 5.783 21.242-6.041-3.248-90.309-39.325-179.655-108.265-248.595-68.941-68.94-158.287-105.017-248.596-108.266z" fill="#70695b"/></g></g><g><g><path d="m428.026 222.773c13.013-13.013 31.552-17.122 48.061-12.34-17.654-36.938-41.763-71.561-72.361-102.159s-65.222-54.707-102.159-72.361c4.782 16.509.673 35.049-12.34 48.061-8.812 8.812-20.159 13.535-31.693 14.187 27.043 22.323 54.565 47.293 81.788 74.517 27.223 27.223 52.194 54.745 74.517 81.788.651-11.534 5.375-22.881 14.187-31.693z" fill="#635d50"/></g></g><g><g><path d="m342.288 213.419-43.707-43.707c-8.046-8.046-8.046-21.092 0-29.138l72.845-72.845c8.046-8.046 21.092-8.046 29.138 0l43.707 43.707c8.046 8.046 8.046 21.092 0 29.138l-72.845 72.845c-8.047 8.047-21.092 8.047-29.138 0z" fill="#80786a"/></g></g><g><g><path d="m335.003 176.997 72.845-72.845c8.046-8.046 21.092-8.046 29.138 0l-36.423-36.422c-8.046-8.046-21.092-8.046-29.138 0l-72.845 72.845c-8.046 8.046-8.046 21.092 0 29.138l36.422 36.422c-8.045-8.046-8.045-21.092.001-29.138z" fill="#70695b"/></g></g><g><g><path d="m280.369 282.622-50.993-50.993c-6.035-6.035-6.035-15.819 0-21.853 6.035-6.035 15.819-6.035 21.853 0l36.423 14.57 14.57 36.423c6.035 6.035 6.035 15.819 0 21.853-6.034 6.035-15.818 6.035-21.853 0z" fill="#ffe4c2"/></g></g><g><g><path d="m302.223 260.769-50.993-50.993c-6.035-6.035-6.035-15.819 0-21.853 6.035-6.035 15.819-6.035 21.853 0l50.993 50.993c6.035 6.035 6.035 15.819 0 21.853-6.034 6.034-15.818 6.034-21.853 0z" fill="#fff2de"/></g></g><g><g><path d="m287.653 224.345c6.035-6.035 15.819-6.035 21.853 0l-36.423-36.423c-6.035-6.035-15.819-6.035-21.853 0-6.035 6.035-6.035 15.819 0 21.853l36.423 36.423c-6.035-6.034-6.034-15.818 0-21.853z" fill="#ffe4c2"/></g></g></g></svg>