<?xml version="1.0" encoding="UTF-8" standalone="no"?>
<!-- Created with Inkscape (http://www.inkscape.org/) -->

<svg
   width="170"
   height="170"
   viewBox="0 0 44.979165 44.979166"
   version="1.1"
   id="svg5"
   xml:space="preserve"
   inkscape:version="1.2 (dc2aedaf03, 2022-05-15)"
   sodipodi:docname="potogold2.svg"
   xmlns:inkscape="http://www.inkscape.org/namespaces/inkscape"
   xmlns:sodipodi="http://sodipodi.sourceforge.net/DTD/sodipodi-0.dtd"
   xmlns="http://www.w3.org/2000/svg"
   xmlns:svg="http://www.w3.org/2000/svg"><sodipodi:namedview
     id="namedview7"
     pagecolor="#505050"
     bordercolor="#ffffff"
     borderopacity="1"
     inkscape:showpageshadow="0"
     inkscape:pageopacity="0"
     inkscape:pagecheckerboard="1"
     inkscape:deskcolor="#505050"
     inkscape:document-units="mm"
     showgrid="false"
     inkscape:zoom="1.6048167"
     inkscape:cx="14.954979"
     inkscape:cy="112.16234"
     inkscape:window-width="1366"
     inkscape:window-height="705"
     inkscape:window-x="-8"
     inkscape:window-y="-8"
     inkscape:window-maximized="1"
     inkscape:current-layer="layer1" /><defs
     id="defs2"><inkscape:path-effect
       effect="mirror_symmetry"
       start_point="22.489583,0"
       end_point="22.489583,44.979167"
       center_point="22.489583,22.489583"
       id="path-effect33063"
       is_visible="true"
       lpeversion="1.2"
       lpesatellites=""
       mode="vertical"
       discard_orig_path="false"
       fuse_paths="false"
       oposite_fuse="false"
       split_items="true"
       split_open="false"
       link_styles="false" /></defs><g
     inkscape:label="Layer 1"
     inkscape:groupmode="layer"
     id="layer1"><g
       id="g36641"
       transform="translate(-4.6601493,-4.0933195)"><g
         id="g33079"><path
           id="path33065"
           d="m 36.486705,38.884384 c 1.336468,-0.08249 2.723072,0.212291 3.810231,0.845759 0.92184,0.528396 1.459217,1.473778 1.2409,2.377729 -0.172002,0.747109 -0.620473,1.491363 -1.385029,1.959816 -0.398007,0.250482 -0.897902,0.353139 -1.324456,0.562476 -0.309494,0.242251 -0.19836,1.013407 -0.02918,1.491916 0.170692,0.48279 1.579592,1.20498 1.010265,1.268912 -0.871207,0.654806 -1.904915,0.02934 -2.402868,-0.604596 -0.570712,-0.653295 -1.277264,-1.332742 -1.26224,-2.175523 -0.02743,-0.71627 0.483118,-1.401613 1.253908,-1.755162 1.807161,-1.677905 -0.09378,-1.82958 -1.554521,-1.869642 -0.559699,-0.303749 -0.161012,-0.559637 -1.245026,-0.340593 -1.084011,0.219044 -0.276928,-0.666892 0.658593,-1.347697 0.326754,-0.26287 0.771034,-0.399203 1.229423,-0.413395 z"
           style="color:#000000;fill:#3c313f;fill-opacity:1;stroke-width:0.848689;stroke-linecap:round;stroke-linejoin:round;paint-order:stroke fill markers" /><path
           id="path33067"
           d="m 40.362395,39.769666 c 0.881327,0.535015 1.388694,1.456194 1.175638,2.338358 -0.144227,0.626466 -0.483366,1.250512 -1.039729,1.71204 -0.499635,-0.287535 0.232361,-0.857561 0.232091,-1.804396 5.7e-5,-0.850964 -0.79649,-1.891621 -0.368,-2.246002 z"
           style="fill:#4b3e4f;fill-opacity:1;fill-rule:evenodd;stroke-width:0.264583" /><path
           id="path33069"
           d="m 36.639108,43.395801 c -0.653944,1.017794 0.48588,2.905848 0.594278,3.195153 -0.530858,-0.594478 -1.102358,-1.22092 -1.088822,-1.98024 -0.01685,-0.440092 0.169629,-0.867959 0.494544,-1.214913 z"
           style="fill:#4b3e4f;fill-opacity:1;fill-rule:evenodd;stroke-width:0.264583" /></g><g
         id="g33053"
         class="UnoptimicedTransforms"><path
           style="color:#000000;fill:#302734;stroke-width:0.848689;stroke-linecap:round;stroke-linejoin:round;paint-order:stroke fill markers"
           d="m 16.429962,38.884384 c -1.336468,-0.08249 -2.723072,0.212291 -3.810231,0.845759 -0.92184,0.528396 -1.459217,1.473778 -1.2409,2.377729 0.172002,0.747109 0.620473,1.491363 1.385029,1.959816 0.398007,0.250482 0.897902,0.353139 1.324456,0.562476 0.309494,0.242251 0.19836,1.013407 0.02918,1.491916 -0.170692,0.48279 -1.579592,1.20498 -1.010265,1.268912 0.871207,0.654806 1.904915,0.02934 2.402868,-0.604596 0.570712,-0.653295 1.277264,-1.332742 1.26224,-2.175523 0.02743,-0.71627 -0.483118,-1.401613 -1.253908,-1.755162 -1.807161,-1.677905 0.09378,-1.82958 1.554521,-1.869642 0.559699,-0.303749 0.161012,-0.559637 1.245026,-0.340593 1.084011,0.219044 0.276928,-0.666892 -0.658593,-1.347697 -0.326754,-0.26287 -0.771034,-0.399203 -1.229422,-0.413395 z"
           id="path28305"
           sodipodi:nodetypes="cccccaccccccccc" /><path
           id="path32041"
           style="fill:#4b3e4f;fill-opacity:1;fill-rule:evenodd;stroke-width:0.264583"
           d="m 12.554272,39.769666 c -0.881327,0.535015 -1.388694,1.456194 -1.175638,2.338358 0.144227,0.626466 0.483366,1.250512 1.039729,1.71204 0.499635,-0.287535 -0.232361,-0.857561 -0.232091,-1.804396 -5.7e-5,-0.850964 0.79649,-1.891621 0.368,-2.246002 z"
           sodipodi:nodetypes="ccccc" /><path
           id="path32046"
           style="fill:#4b3e4f;fill-opacity:1;fill-rule:evenodd;stroke-width:0.264583"
           d="m 26.78292,37.826309 c 0.891378,0.817921 0.269433,2.933844 0.238208,3.241208 0.362138,-0.709979 0.755448,-1.461211 0.549167,-2.1921 -0.09567,-0.429898 -0.384878,-0.796238 -0.787375,-1.049108 z"
           transform="rotate(14.739574)"
           sodipodi:nodetypes="cccc" /></g><path
         id="ellipse10847"
         style="fill:#fad500;fill-opacity:1;fill-rule:evenodd;stroke-width:0.188739"
         d="m 25.759668,5.4968221 a 2.0285022,1.4395823 0 0 0 -1.933215,1.0061401 2.840467,1.9366022 17.45199 0 0 -2.036569,1.0815878 2.840467,1.9366022 17.45199 0 0 0.02584,1.1053589 1.9382096,2.8381114 77.350469 0 0 -1.873788,1.7156571 1.9382096,2.8381114 77.350469 0 0 -0.396875,0.08475 1.9382096,2.8381114 77.350469 0 0 -0.520381,0.17725 1.9382096,2.8381114 77.350469 0 0 -2.391586,-0.14211 1.9382096,2.8381114 77.350469 0 0 -2.216402,2.153357 1.9628232,2.802522 64.891172 0 0 -0.706417,0.30334 1.9628232,2.802522 64.891172 0 0 -1.385445,3.008085 1.9628232,2.802522 64.891172 0 0 3.513997,0.311609 1.9628232,2.802522 64.891172 0 0 0.0584,-0.03617 h 17.414441 v -2.130619 a 2.8019096,1.9632522 31.178146 0 0 0.642338,0.56844 2.8019096,1.9632522 31.178146 0 0 2.708362,0.587045 2.8019096,1.9632522 31.178146 0 0 0.312125,0.242362 2.8019096,1.9632522 31.178146 0 0 3.527434,0.06305 2.8019096,1.9632522 31.178146 0 0 -1.057817,-3.137793 2.8019096,1.9632522 31.178146 0 0 -2.708362,-0.587561 2.8019096,1.9632522 31.178146 0 0 -0.312125,-0.241845 2.8019096,1.9632522 31.178146 0 0 -0.307992,-0.194821 2.8563184,1.925855 2.5605213 0 0 0.13901,-0.535367 A 2.8563184,1.925855 2.5605213 0 0 33.482711,8.849589 2.8563184,1.925855 2.5605213 0 0 32.063676,9.0397583 2.8563184,1.925855 2.5605213 0 0 30.704069,8.4563314 1.9587473,2.8083536 66.66636 0 0 30.530436,7.4982503 1.9587473,2.8083536 66.66636 0 0 27.776599,6.784082 2.0285022,1.4395823 0 0 0 25.759668,5.4968221 Z" /><path
         id="rect16674"
         style="fill:#eba400;fill-opacity:1;stroke:#eba400;stroke-width:0.112;stroke-linecap:round;stroke-linejoin:round;stroke-dasharray:none;stroke-opacity:1;paint-order:stroke fill markers;stop-color:#000000"
         d="m 29.170829,6.6879639 c 1.040739,0.9375841 0.95134,1.5118703 0.328146,2.1357869 1.790962,-0.1106291 2.260422,0.659637 2.082043,1.8619022 1.275881,-0.212461 2.768236,0.694432 2.408639,2.280997 1.3668,-0.149568 1.723287,0.710938 1.954919,1.696538 l 0.765845,0.664559 a 2.8019096,1.9632522 31.178146 0 0 0.264066,0.205155 2.8019096,1.9632522 31.178146 0 0 3.527434,0.06305 2.8019096,1.9632522 31.178146 0 0 -1.057817,-3.137793 2.8019096,1.9632522 31.178146 0 0 -2.708362,-0.587561 2.8019096,1.9632522 31.178146 0 0 -0.312125,-0.241845 2.8019096,1.9632522 31.178146 0 0 -0.307992,-0.194821 2.8563184,1.925855 2.5605213 0 0 0.13901,-0.535367 A 2.8563184,1.925855 2.5605213 0 0 33.482711,8.849589 2.8563184,1.925855 2.5605213 0 0 32.063676,9.0397583 2.8563184,1.925855 2.5605213 0 0 30.704069,8.4563314 1.9587473,2.8083536 66.66636 0 0 30.530436,7.4982503 1.9587473,2.8083536 66.66636 0 0 29.170829,6.6879639 Z" /><ellipse
         style="fill:none;fill-rule:evenodd;stroke:#302734;stroke-width:2.32492;stroke-dasharray:none;stroke-opacity:1"
         id="path24537"
         cx="-39.365582"
         cy="26.617395"
         rx="4.0536418"
         ry="4.226799"
         transform="matrix(-1,0,0.10828325,0.99412008,0,0)" /><path
         id="path354"
         style="fill:#3c313f;fill-opacity:1;fill-rule:evenodd;stroke-width:0.24691"
         d="m 26.458333,13.543743 c -4.400076,0 -13.168705,0.911705 -13.168705,0.911705 -1.347333,0 -2.431893,1.084561 -2.431893,2.431893 0,0.70429 0.296692,1.336398 0.772046,1.779737 0.346612,0.70463 0.784758,1.409452 0.899687,2.114082 -2.406345,2.694562 -3.7139738,6.010178 -3.7165692,9.423715 -9.7e-5,8.486935 7.9000562,15.367005 17.6454342,15.36702 9.745378,-1.5e-5 17.645532,-6.880084 17.645435,-15.36702 -7.4e-5,-3.355968 -1.261661,-6.619651 -3.592029,-9.292456 -0.03028,-0.693273 0.213452,-1.386704 0.578776,-2.079977 0.588857,-0.44304 0.968416,-1.148171 0.968416,-1.945101 0,-1.347332 -1.097286,-2.247151 -2.431892,-2.431893 0,0 -8.76863,-0.911705 -13.168706,-0.911705 z"
         sodipodi:nodetypes="acscccccccsca" /><path
         id="path1702"
         style="fill:#584b5d;fill-opacity:0.539216;fill-rule:evenodd;stroke-width:0.339808"
         d="m 29.773893,17.165361 a 14.92482,13.266507 0 0 0 -14.925187,13.266373 14.92482,13.266507 0 0 0 14.925187,13.266891 14.92482,13.266507 0 0 0 10.062952,-3.47369 c 2.659292,-2.690413 4.266967,-6.191691 4.266923,-10.02006 -6.1e-5,-2.745087 -0.84456,-5.428066 -2.427242,-7.776787 A 14.92482,13.266507 0 0 0 29.773893,17.165361 Z" /><path
         id="path6625"
         style="color:#000000;fill:#6e5b74;stroke-linecap:round;stroke-linejoin:round;paint-order:stroke fill markers"
         d="m 32.181498,17.345711 a 3.76,3.76 0 0 0 -0.611332,2.75022 c 1.567083,9.333323 0.741908,14.927837 -2.098063,23.592875 a 14.92482,13.266507 0 0 0 0.30179,0.0098 14.92482,13.266507 0 0 0 8.170561,-2.174028 c 1.862167,-7.00644 2.433393,-13.360934 1.246435,-21.374923 a 14.92482,13.266507 0 0 0 -7.009391,-2.803963 z" /><path
         id="path1075"
         style="fill:#352a38;fill-opacity:1;stroke-width:0.225241;stroke-linecap:round;stroke-linejoin:round;paint-order:stroke fill markers;stop-color:#000000"
         d="m 26.470219,16.650712 c -4.794334,0 -13.68765,0.827642 -15.604216,1.011536 0.04855,0.515255 0.332039,0.974492 0.763778,1.305525 0.276785,0.462582 0.608839,0.925318 0.791166,1.387942 3.322029,-0.25086 10.096382,-0.723498 14.049272,-0.723498 3.961637,0 10.760168,0.474777 14.074076,0.725197 0.07707,-0.417873 0.278396,-0.835859 0.54622,-1.253694 0.541743,-0.335085 0.905274,-0.852786 0.960148,-1.443596 -2.000106,-0.191537 -10.819625,-1.009412 -15.580444,-1.009412 z" /><path
         id="path4640"
         style="fill:#2f2532;fill-opacity:1;stroke-width:0.204655;stroke-linecap:round;stroke-linejoin:round;paint-order:stroke fill markers;stop-color:#000000"
         d="m 27.008171,18.241781 c -5.055656,0.01348 -10.096212,0.473828 -15.128793,0.913119 0.440714,0.531334 0.726853,1.786249 0.449411,1.946276 0.911008,-0.477973 1.830294,-1.046701 2.907627,-0.948363 3.589493,-0.247751 7.183328,-0.41976 10.773883,-0.645034 3.866607,-0.202543 7.700285,0.472461 11.555212,0.63596 0.881012,0.01636 1.784099,0.101203 2.491135,0.691483 0.373771,0.244915 1.09486,0.712838 0.455093,0.07719 -0.253951,-0.768723 1.056328,-2.073801 -0.341353,-1.838448 -4.379397,-0.377336 -8.765428,-0.749043 -13.162215,-0.832187 z" /><path
         id="rect5688"
         style="fill:#6e5b74;fill-opacity:1;stroke-width:0.238619;stroke-linecap:round;stroke-linejoin:round;paint-order:stroke fill markers;stop-color:#000000"
         d="m 30.179036,13.675651 c -0.104247,0.230382 -0.17038,0.487231 -0.188619,0.761711 -0.07373,1.109601 0.6639,2.070214 1.654163,2.15439 l 5.633765,0.479041 c 0.990262,0.08417 1.846564,-0.740933 1.920296,-1.850533 0.01904,-0.286517 -0.01642,-0.562917 -0.09612,-0.817005 -0.998165,-0.101235 -5.07858,-0.505561 -8.923487,-0.727604 z" /><path
         id="rect7613"
         style="fill:#302734;fill-opacity:1;stroke-width:7.51999;stroke-linecap:round;stroke-linejoin:round;paint-order:stroke fill markers;stop-color:#000000"
         d="m 11.942424,19.27686 c 0.259661,0.501453 0.505263,1.002904 0.587044,1.5043 -2.406343,2.69456 -3.7139738,6.010181 -3.7165692,9.423715 -7.94e-5,6.94565 5.2916792,12.814151 12.5553062,14.716931 C 13.057374,39.309155 7.7361443,32.115159 14.882812,19.27686 Z"
         sodipodi:nodetypes="cccccc" /><path
         style="color:#000000;fill:#eba400;fill-rule:evenodd;stroke-width:0.979764;-inkscape-stroke:none"
         d="m 23.561982,10.718254 c 0.259217,0.301719 0.670162,0.557833 1.165923,0.674789 0.495761,0.116961 0.977102,0.07083 1.343475,-0.08461 0.146645,-0.06222 0.273416,-0.140075 0.377853,-0.230957 0.156491,-0.136179 0.262834,-0.301597 0.497055,-0.222249 0.234219,0.07935 0.133288,0.267615 -0.0015,0.429433 -0.179241,0.215118 -0.418387,0.383486 -0.688134,0.497931 -0.472657,0.200536 -1.048256,0.246503 -1.635702,0.107918 -0.587455,-0.138543 -1.085792,-0.438492 -1.423431,-0.83149 -0.132461,-0.154181 -0.240644,-0.325038 -0.03298,-0.461749 0.207657,-0.136712 0.289027,-0.0053 0.397484,0.120984 z"
         id="path16620"
         sodipodi:nodetypes="sssscsscscs" /><path
         style="color:#000000;fill:#eba400;fill-rule:evenodd;stroke-width:0.979764;-inkscape-stroke:none"
         d="m 30.378663,12.272699 c -0.284859,0.277639 -0.716823,0.496446 -1.220978,0.569147 -0.504156,0.0727 -0.979539,-0.01577 -1.330747,-0.20297 -0.140575,-0.07493 -0.259972,-0.163682 -0.355972,-0.263435 -0.143848,-0.149472 -0.235161,-0.323638 -0.475477,-0.265293 -0.240313,0.05835 -0.156409,0.254793 -0.03644,0.427887 0.159535,0.230112 0.382872,0.418949 0.641453,0.556777 0.453093,0.241509 1.02238,0.338148 1.619772,0.252003 0.597398,-0.0861 1.120286,-0.340852 1.491324,-0.702484 0.145564,-0.141876 0.268419,-0.302508 0.07364,-0.45703 -0.194767,-0.154523 -0.287429,-0.03081 -0.406618,0.0854 z"
         id="path16618"
         sodipodi:nodetypes="sssscsscscs" /><path
         style="color:#000000;fill:#eba400;fill-rule:evenodd;stroke-width:0.979764;-inkscape-stroke:none"
         d="m 20.18518,11.757982 c 0.317986,0.232858 0.773873,0.385557 1.282181,0.382725 0.508309,-0.0028 0.967175,-0.161127 1.290328,-0.398829 0.129345,-0.09515 0.235937,-0.200842 0.317948,-0.313967 0.122884,-0.16951 0.190574,-0.35569 0.435952,-0.333559 0.245375,0.02213 0.187915,0.229294 0.0917,0.418676 -0.127915,0.251762 -0.324329,0.472094 -0.562254,0.647105 -0.416899,0.306662 -0.967619,0.487002 -1.569932,0.490358 -0.602312,0.0034 -1.152842,-0.171418 -1.567028,-0.474722 -0.162494,-0.118992 -0.304954,-0.259947 -0.13234,-0.442025 0.172611,-0.182079 0.280393,-0.07323 0.413449,0.02424 z"
         id="path14437"
         sodipodi:nodetypes="sssscsscscs" /><g
         id="g26805"
         transform="matrix(1.1172134,-0.06910934,0.06910934,1.1172134,-3.2523227,-2.7619298)"
         inkscape:transform-center-x="0.87831502"
         inkscape:transform-center-y="3.4050589"><path
           style="color:#000000;fill:#4b3e4f;fill-rule:evenodd"
           d="m 15.107422,22.310547 c -2.675924,0 -4.824219,2.266682 -4.824219,4.982422 0,2.71574 2.148295,4.984375 4.824219,4.984375 2.675924,0 4.822265,-2.268635 4.822265,-4.984375 0,-2.71574 -2.146341,-4.982422 -4.822265,-4.982422 z m 0,2.15039 c 1.464429,0 2.673828,1.230558 2.673828,2.832032 0,1.601473 -1.209399,2.833984 -2.673828,2.833984 -1.464429,0 -2.673828,-1.232511 -2.673828,-2.833984 0,-1.601474 1.209399,-2.832032 2.673828,-2.832032 z"
           id="ellipse25265"
           transform="matrix(1,0,-0.10828325,0.99412008,0,0)" /><path
           id="path26364"
           style="color:#000000;fill:#6e5b74;fill-opacity:1;fill-rule:evenodd;stroke-width:0.912909"
           d="m 12.689148,22.27926 c -1.932561,0.379643 -3.6601499,1.899772 -4.0841395,3.852394 -0.2884373,1.25459 0.093604,2.647962 1.0287048,3.542847 0.8002077,0.809302 2.3544817,0.624751 2.4268427,0.356914 0.106352,-0.165865 -1.362392,0.07285 -2.052872,-0.941187 -0.7990665,-0.989601 -0.6729855,-2.484682 0.05248,-3.478372 0.501531,-0.706318 1.304438,-1.212415 2.175269,-1.284659 0.184063,-0.120512 0.540989,-0.08279 0.453719,-0.379193 l -2e-6,-1.668744 z"
           sodipodi:nodetypes="sccccccccs" /><path
           id="path26730"
           style="color:#000000;fill:#302734;fill-opacity:1;fill-rule:evenodd"
           d="m 11.362149,24.162832 c -0.675145,0.860342 -1.079035,1.953332 -1.079035,3.130361 0,2.715734 2.148263,4.984042 4.824181,4.984042 2.287554,0 4.187839,-1.65791 4.691317,-3.835758 -0.675579,1.837709 -2.371834,3.166748 -4.37567,3.166748 -2.60717,0 -4.704519,-2.249506 -4.709607,-4.942456 -0.0017,-0.908039 0.234784,-1.765255 0.648814,-2.502937 z"
           transform="matrix(1,0,-0.10828325,0.99412008,0,0)" /><path
           id="path26725"
           style="color:#000000;fill:#6e5b74;fill-opacity:1;fill-rule:evenodd"
           d="m 15.107608,22.31071 c -1.009394,0 -1.943684,0.322687 -2.715939,0.87018 0.651396,-0.341745 1.388316,-0.535935 2.170255,-0.535935 2.67592,0 4.821946,2.266748 4.821946,4.982482 0,0.924619 -0.249122,1.797105 -0.6829,2.546083 h 0.334347 c 0.563505,-0.817845 0.894236,-1.814471 0.894236,-2.880327 0,-2.715736 -2.146027,-4.982483 -4.821945,-4.982483 z m -1.6127,2.716584 c -0.941262,0.428942 -1.606705,1.412299 -1.606705,2.600143 0,1.60147 1.209237,2.834064 2.673662,2.834064 0.602277,0 1.160822,-0.209216 1.610436,-0.566085 -0.327277,0.149027 -0.687284,0.23132 -1.064808,0.23132 -1.464427,0 -2.674123,-1.232074 -2.674123,-2.833543 0,-0.941987 0.418904,-1.755514 1.061538,-2.265899 z"
           transform="matrix(1,0,-0.10828325,0.99412008,0,0)" /><path
           id="rect24325"
           style="opacity:1;fill:#4b3e4f;fill-opacity:1;stroke-width:1.30157;stroke-linecap:round;stroke-linejoin:round;paint-order:stroke fill markers;stop-color:#000000"
           d="m 10.039976,22.411964 c 0.807659,-0.435761 1.778734,-0.543341 2.694785,-0.543341 0.916051,0 1.887126,0.10758 2.694786,0.543341 0.432007,0.233084 1.039417,0.5539 1.039417,1.047871 0,0.493972 -0.604258,0.820823 -1.039417,1.047872 -0.80939,0.422307 -1.78342,0.465721 -2.694786,0.465721 -0.911365,0 -1.885396,-0.04341 -2.694785,-0.465721 -0.4351601,-0.227049 -1.0394178,-0.5539 -1.0394177,-1.047872 0,-0.493971 0.607409,-0.814787 1.0394177,-1.047871 z"
           sodipodi:nodetypes="aaaaaaaaa" /><path
           id="rect26719"
           style="opacity:1;fill:#302734;fill-opacity:0.61794;stroke-width:3.165;stroke-linecap:round;stroke-linejoin:round;paint-order:stroke fill markers;stop-color:#000000"
           d="m 9.018571,23.316406 c -0.011409,0.0461 -0.018087,0.09417 -0.018087,0.143661 -10e-8,0.493971 0.6045702,0.820432 1.03973,1.047481 0.809388,0.422311 1.783045,0.466121 2.694409,0.466121 0.911365,0 1.885537,-0.04381 2.694926,-0.466121 0.435159,-0.227049 1.039213,-0.55351 1.039213,-1.047481 0,-0.04949 -0.0062,-0.09756 -0.01757,-0.143661 -2.647575,0.963532 -5.117505,0.920404 -7.432621,0 z"
           sodipodi:nodetypes="cssssscc" /><path
           id="path26790"
           style="fill:#6e5b74;fill-opacity:1;fill-rule:evenodd;stroke-width:0.264583"
           d="m 12.734623,21.868433 c -0.106498,0 -0.213785,0.0019 -0.321427,0.0052 a 2.1091099,0.76162297 0 0 0 -0.696082,0.564824 2.1091099,0.76162297 0 0 0 2.109432,0.76171 2.1091099,0.76162297 0 0 0 2.023649,-0.548803 c -0.14179,-0.0895 -0.289282,-0.168387 -0.420646,-0.239262 -0.807659,-0.435761 -1.778876,-0.543636 -2.694926,-0.543636 z" /></g></g></g></svg>
