<?xml version="1.0" encoding="UTF-8" standalone="no"?>
<!-- Created with Inkscape (http://www.inkscape.org/) -->

<svg
   width="170"
   height="170"
   viewBox="0 0 44.979165 44.979166"
   version="1.1"
   id="svg5"
   xml:space="preserve"
   inkscape:version="1.2 (dc2aedaf03, 2022-05-15)"
   sodipodi:docname="potogold4.svg"
   xmlns:inkscape="http://www.inkscape.org/namespaces/inkscape"
   xmlns:sodipodi="http://sodipodi.sourceforge.net/DTD/sodipodi-0.dtd"
   xmlns="http://www.w3.org/2000/svg"
   xmlns:svg="http://www.w3.org/2000/svg"><sodipodi:namedview
     id="namedview7"
     pagecolor="#505050"
     bordercolor="#ffffff"
     borderopacity="1"
     inkscape:showpageshadow="0"
     inkscape:pageopacity="0"
     inkscape:pagecheckerboard="1"
     inkscape:deskcolor="#505050"
     inkscape:document-units="mm"
     showgrid="false"
     inkscape:zoom="1.4849242"
     inkscape:cx="59.599"
     inkscape:cy="117.1777"
     inkscape:window-width="1366"
     inkscape:window-height="705"
     inkscape:window-x="-8"
     inkscape:window-y="-8"
     inkscape:window-maximized="1"
     inkscape:current-layer="layer1" /><defs
     id="defs2"><inkscape:path-effect
       effect="mirror_symmetry"
       start_point="18.822038,40.001444"
       end_point="18.822038,48.900261"
       center_point="18.822038,44.450853"
       id="path-effect5672"
       is_visible="true"
       lpeversion="1.2"
       lpesatellites="#g5678"
       mode="vertical"
       discard_orig_path="false"
       fuse_paths="false"
       oposite_fuse="false"
       split_items="true"
       split_open="false"
       link_styles="false" /></defs><g
     inkscape:label="Layer 1"
     inkscape:groupmode="layer"
     id="layer1"
     transform="translate(-4.0638228,-5.4968221)"><path
       id="path5674"
       d="m 35.121074,40.038933 c 0.327485,-0.08482 0.724247,-0.0244 1.102972,0.167968 0.789139,0.401459 1.285181,1.254488 1.107362,1.904297 -0.293661,1.078116 -0.108315,1.860964 0.408747,2.589844 0.517062,0.72888 2.499893,0.768186 3.392206,1.655168 0.671182,0.667172 1.363804,1.860175 1.260255,2.544051 l -4.083266,-0.01362 c -1.059257,-0.708815 -2.184867,-2.316572 -2.840142,-3.240285 -1.150683,-1.622069 -1.420781,-3.416971 -0.99225,-4.990234 0.08531,-0.311124 0.316944,-0.533078 0.644117,-0.617187 z"
       style="color:#000000;fill:#3c313f;fill-opacity:1;stroke-linecap:round;stroke-linejoin:round;paint-order:stroke fill markers" /><path
       id="path5676"
       style="fill:#6e5b74;fill-opacity:1;fill-rule:evenodd;stroke-width:0.195021"
       d="M 37.929456 44.894934 C 38.193966 45.363481 37.820065 46.406145 38.467408 46.842102 C 39.319825 47.416118 40.94076 47.404471 41.906991 47.362484 C 41.68185 46.98655 41.405509 46.627859 41.132361 46.356344 C 40.32659 45.555386 38.631915 45.445396 37.929973 44.894934 C 37.929866 44.89485 37.929563 44.895018 37.929456 44.894934 z " /><g
       id="g5670"
       inkscape:path-effect="#path-effect5672"
       class="UnoptimicedTransforms"><path
         style="color:#000000;fill:#302734;fill-opacity:1;stroke-linecap:round;stroke-linejoin:round;paint-order:stroke fill markers"
         d="m 17.985738,40.038933 c -0.327485,-0.08482 -0.724247,-0.0244 -1.102972,0.167968 -0.789139,0.401459 -1.285181,1.254488 -1.107362,1.904297 0.293661,1.078116 0.108315,1.860964 -0.408747,2.589844 -0.517062,0.72888 -2.499893,0.768186 -3.392206,1.655168 -0.671182,0.667172 -1.363804,1.860175 -1.260255,2.544051 l 4.083266,-0.01362 c 1.059257,-0.708815 2.184867,-2.316572 2.840142,-3.240285 1.150683,-1.622069 1.420781,-3.416971 0.99225,-4.990234 -0.08531,-0.311124 -0.316944,-0.533078 -0.644117,-0.617187 z"
         id="path3978"
         sodipodi:nodetypes="cccsaccsccc"
         inkscape:original-d="m 17.985738,40.038933 c -0.327485,-0.08482 -0.724247,-0.0244 -1.102972,0.167968 -0.789139,0.401459 -1.285181,1.254488 -1.107362,1.904297 0.293661,1.078116 0.108315,1.860964 -0.408747,2.589844 -0.517062,0.72888 -2.499893,0.768186 -3.392206,1.655168 -0.671182,0.667172 -1.363804,1.860175 -1.260255,2.544051 l 4.083266,-0.01362 c 1.059257,-0.708815 2.184867,-2.316572 2.840142,-3.240285 1.150683,-1.622069 1.420781,-3.416971 0.99225,-4.990234 -0.08531,-0.311124 -0.316944,-0.533078 -0.644117,-0.617187 z" /><path
         id="path5663"
         style="fill:#3c313f;fill-opacity:1;fill-rule:evenodd;stroke-width:0.204679"
         d="M 15.17684 44.895451 C 14.474746 45.445744 12.780127 45.555481 11.974451 46.356344 C 11.642724 46.686089 11.305852 47.144191 11.062362 47.60588 C 12.004642 47.656266 13.745035 47.703422 14.639405 47.040023 C 15.286494 46.560001 14.912933 45.411851 15.17684 44.895451 z "
         inkscape:original-d="M 15.17684 44.895451 C 14.474746 45.445744 12.780127 45.555481 11.974451 46.356344 C 11.642724 46.686089 11.305852 47.144191 11.062362 47.60588 C 12.004642 47.656266 13.745035 47.703422 14.639405 47.040023 C 15.286494 46.560001 14.912933 45.411851 15.17684 44.895451 z " /></g><path
       id="ellipse10847"
       style="fill:#fad500;fill-opacity:1;fill-rule:evenodd;stroke-width:0.188739"
       d="m 25.854741,6.9312264 a 2.0285022,1.4395823 0 0 0 -1.933215,1.0061401 2.840467,1.9366022 17.45199 0 0 -2.036569,1.0815878 2.840467,1.9366022 17.45199 0 0 0.02584,1.1053587 1.9382096,2.8381114 77.350469 0 0 -1.873788,1.715657 1.9382096,2.8381114 77.350469 0 0 -0.396875,0.08475 1.9382096,2.8381114 77.350469 0 0 -0.520381,0.17725 1.9382096,2.8381114 77.350469 0 0 -2.391586,-0.14211 1.9382096,2.8381114 77.350469 0 0 -2.216402,2.153357 1.9628232,2.802522 64.891172 0 0 -0.706417,0.30334 1.9628232,2.802522 64.891172 0 0 -1.385445,3.008085 1.9628232,2.802522 64.891172 0 0 3.513997,0.311609 1.9628232,2.802522 64.891172 0 0 0.0584,-0.03617 h 17.414441 v -2.130619 a 2.8019096,1.9632522 31.178146 0 0 0.642338,0.56844 2.8019096,1.9632522 31.178146 0 0 2.708362,0.587045 2.8019096,1.9632522 31.178146 0 0 0.312125,0.242362 2.8019096,1.9632522 31.178146 0 0 3.527434,0.06305 2.8019096,1.9632522 31.178146 0 0 -1.057817,-3.137793 2.8019096,1.9632522 31.178146 0 0 -2.708362,-0.587561 2.8019096,1.9632522 31.178146 0 0 -0.312125,-0.241845 2.8019096,1.9632522 31.178146 0 0 -0.307992,-0.194821 2.8563184,1.925855 2.5605213 0 0 0.13901,-0.535367 2.8563184,1.925855 2.5605213 0 0 -2.77193,-2.048979 2.8563184,1.925855 2.5605213 0 0 -1.419035,0.19017 A 2.8563184,1.925855 2.5605213 0 0 30.799142,9.8907357 1.9587473,2.8083536 66.66636 0 0 30.625509,8.9326546 1.9587473,2.8083536 66.66636 0 0 27.871672,8.2184863 2.0285022,1.4395823 0 0 0 25.854741,6.9312264 Z" /><path
       id="rect16674"
       style="fill:#eba400;fill-opacity:1;stroke:#eba400;stroke-width:0.112;stroke-linecap:round;stroke-linejoin:round;stroke-dasharray:none;stroke-opacity:1;paint-order:stroke fill markers;stop-color:#000000"
       d="m 29.265902,8.1223682 c 1.040739,0.9375841 0.95134,1.5118703 0.328146,2.1357868 1.790962,-0.110629 2.260422,0.659637 2.082043,1.861902 1.275881,-0.212461 2.768236,0.694432 2.408639,2.280997 1.3668,-0.149568 1.723287,0.710938 1.954919,1.696538 l 0.765845,0.664559 a 2.8019096,1.9632522 31.178146 0 0 0.264066,0.205155 2.8019096,1.9632522 31.178146 0 0 3.527434,0.06305 2.8019096,1.9632522 31.178146 0 0 -1.057817,-3.137793 2.8019096,1.9632522 31.178146 0 0 -2.708362,-0.587561 2.8019096,1.9632522 31.178146 0 0 -0.312125,-0.241845 2.8019096,1.9632522 31.178146 0 0 -0.307992,-0.194821 2.8563184,1.925855 2.5605213 0 0 0.13901,-0.535367 2.8563184,1.925855 2.5605213 0 0 -2.771924,-2.048976 2.8563184,1.925855 2.5605213 0 0 -1.419035,0.19017 A 2.8563184,1.925855 2.5605213 0 0 30.799142,9.8907357 1.9587473,2.8083536 66.66636 0 0 30.625509,8.9326546 1.9587473,2.8083536 66.66636 0 0 29.265902,8.1223682 Z" /><path
       id="path354"
       style="fill:#3c313f;fill-opacity:1;fill-rule:evenodd;stroke-width:0.24691"
       d="m 26.553406,14.978147 c -4.400076,0 -13.168705,0.911705 -13.168705,0.911705 -1.347333,0 -2.431893,1.084561 -2.431893,2.431893 0,0.70429 0.296692,1.336398 0.772046,1.779737 0.346612,0.70463 0.784758,1.409452 0.899687,2.114082 -2.406345,2.694562 -3.7139742,6.010178 -3.7165696,9.423715 -9.7e-5,8.486935 7.9000566,15.367005 17.6454346,15.36702 9.745378,-1.5e-5 17.645532,-6.880084 17.645435,-15.36702 -7.4e-5,-3.355968 -1.261661,-6.619651 -3.592029,-9.292456 -0.03028,-0.693273 0.213452,-1.386704 0.578776,-2.079977 0.588857,-0.44304 0.968416,-1.148171 0.968416,-1.945101 0,-1.347332 -1.097286,-2.247151 -2.431892,-2.431893 0,0 -8.76863,-0.911705 -13.168706,-0.911705 z"
       sodipodi:nodetypes="acscccccccsca" /><path
       id="path1702"
       style="fill:#584b5d;fill-opacity:0.539216;fill-rule:evenodd;stroke-width:0.339808"
       d="m 29.868966,18.599765 a 14.92482,13.266507 0 0 0 -14.925187,13.266373 14.92482,13.266507 0 0 0 14.925187,13.266891 14.92482,13.266507 0 0 0 10.062952,-3.47369 c 2.659292,-2.690413 4.266967,-6.191691 4.266923,-10.02006 -6.1e-5,-2.745087 -0.84456,-5.428066 -2.427242,-7.776787 A 14.92482,13.266507 0 0 0 29.868966,18.599765 Z" /><path
       id="path6625"
       style="color:#000000;fill:#6e5b74;stroke-linecap:round;stroke-linejoin:round;paint-order:stroke fill markers"
       d="m 32.276571,18.780115 a 3.76,3.76 0 0 0 -0.611332,2.75022 c 1.567083,9.333323 0.741908,14.927837 -2.098063,23.592875 a 14.92482,13.266507 0 0 0 0.30179,0.0098 14.92482,13.266507 0 0 0 8.170561,-2.174028 c 1.862167,-7.00644 2.433393,-13.360934 1.246435,-21.374923 a 14.92482,13.266507 0 0 0 -7.009391,-2.803963 z" /><path
       id="path1075"
       style="fill:#352a38;fill-opacity:1;stroke-width:0.225241;stroke-linecap:round;stroke-linejoin:round;paint-order:stroke fill markers;stop-color:#000000"
       d="m 26.565292,18.085116 c -4.794334,0 -13.68765,0.827642 -15.604216,1.011536 0.04855,0.515255 0.332039,0.974492 0.763778,1.305525 0.276785,0.462582 0.608839,0.925318 0.791166,1.387942 3.322029,-0.25086 10.096382,-0.723498 14.049272,-0.723498 3.961637,0 10.760168,0.474777 14.074076,0.725197 0.07707,-0.417873 0.278396,-0.835859 0.54622,-1.253694 0.541743,-0.335085 0.905274,-0.852786 0.960148,-1.443596 C 40.14563,18.902991 31.326111,18.085116 26.565292,18.085116 Z" /><path
       id="path4640"
       style="fill:#2f2532;fill-opacity:1;stroke-width:0.204655;stroke-linecap:round;stroke-linejoin:round;paint-order:stroke fill markers;stop-color:#000000"
       d="m 27.103244,19.676185 c -5.055656,0.01348 -10.096212,0.473828 -15.128793,0.913119 0.440714,0.531334 0.726853,1.786249 0.449411,1.946276 0.911008,-0.477973 1.830294,-1.046701 2.907627,-0.948363 3.589493,-0.247751 7.183328,-0.41976 10.773883,-0.645034 3.866607,-0.202543 7.700285,0.472461 11.555212,0.63596 0.881012,0.01636 1.784099,0.101203 2.491135,0.691483 0.373771,0.244915 1.09486,0.712838 0.455093,0.07719 -0.253951,-0.768723 1.056328,-2.073801 -0.341353,-1.838448 -4.379397,-0.377336 -8.765428,-0.749043 -13.162215,-0.832187 z" /><path
       id="rect5688"
       style="fill:#6e5b74;fill-opacity:1;stroke-width:0.238619;stroke-linecap:round;stroke-linejoin:round;paint-order:stroke fill markers;stop-color:#000000"
       d="m 30.274109,15.110055 c -0.104247,0.230382 -0.17038,0.487231 -0.188619,0.761711 -0.07373,1.109601 0.6639,2.070214 1.654163,2.15439 l 5.633765,0.479041 c 0.990262,0.08417 1.846564,-0.740933 1.920296,-1.850533 0.01904,-0.286517 -0.01642,-0.562917 -0.09612,-0.817005 -0.998165,-0.101235 -5.07858,-0.505561 -8.923487,-0.727604 z" /><path
       id="rect7613"
       style="fill:#302734;fill-opacity:1;stroke-width:7.51999;stroke-linecap:round;stroke-linejoin:round;paint-order:stroke fill markers;stop-color:#000000"
       d="m 12.037497,20.711264 c 0.259661,0.501453 0.505263,1.002904 0.587044,1.5043 -2.406343,2.69456 -3.7139742,6.010181 -3.7165696,9.423715 C 8.907892,38.584929 14.199651,44.45343 21.463278,46.35621 13.152447,40.743559 7.8312169,33.549563 14.977885,20.711264 Z"
       sodipodi:nodetypes="cccccc" /><path
       style="color:#000000;fill:#eba400;fill-rule:evenodd;stroke-width:0.979764"
       d="m 23.657055,12.152658 c 0.259217,0.301719 0.670162,0.557833 1.165923,0.674789 0.495761,0.116961 0.977102,0.07083 1.343475,-0.08461 0.146645,-0.06222 0.273416,-0.140075 0.377853,-0.230957 0.156491,-0.136179 0.262834,-0.301597 0.497055,-0.222249 0.234219,0.07935 0.133288,0.267615 -0.0015,0.429433 -0.179241,0.215118 -0.418387,0.383486 -0.688134,0.497931 -0.472657,0.200536 -1.048256,0.246503 -1.635702,0.107918 -0.587455,-0.138543 -1.085792,-0.438492 -1.423431,-0.83149 -0.132461,-0.154181 -0.240644,-0.325038 -0.03298,-0.461749 0.207657,-0.136712 0.289027,-0.0053 0.397484,0.120984 z"
       id="path16620"
       sodipodi:nodetypes="sssscsscscs" /><path
       style="color:#000000;fill:#eba400;fill-rule:evenodd;stroke-width:0.979764"
       d="m 30.473736,13.707103 c -0.284859,0.277639 -0.716823,0.496446 -1.220978,0.569147 -0.504156,0.0727 -0.979539,-0.01577 -1.330747,-0.20297 -0.140575,-0.07493 -0.259972,-0.163682 -0.355972,-0.263435 -0.143848,-0.149472 -0.235161,-0.323638 -0.475477,-0.265293 -0.240313,0.05835 -0.156409,0.254793 -0.03644,0.427887 0.159535,0.230112 0.382872,0.418949 0.641453,0.556777 0.453093,0.241509 1.02238,0.338148 1.619772,0.252003 0.597398,-0.0861 1.120286,-0.340852 1.491324,-0.702484 0.145564,-0.141876 0.268419,-0.302508 0.07364,-0.45703 -0.194767,-0.154523 -0.287429,-0.03081 -0.406618,0.0854 z"
       id="path16618"
       sodipodi:nodetypes="sssscsscscs" /><path
       style="color:#000000;fill:#eba400;fill-rule:evenodd;stroke-width:0.979764"
       d="m 20.280253,13.192386 c 0.317986,0.232858 0.773873,0.385557 1.282181,0.382725 0.508309,-0.0028 0.967175,-0.161127 1.290328,-0.398829 0.129345,-0.09515 0.235937,-0.200842 0.317948,-0.313967 0.122884,-0.16951 0.190574,-0.35569 0.435952,-0.333559 0.245375,0.02213 0.187915,0.229294 0.0917,0.418676 -0.127915,0.251762 -0.324329,0.472094 -0.562254,0.647105 -0.416899,0.306662 -0.967619,0.487002 -1.569932,0.490358 -0.602312,0.0034 -1.152842,-0.171418 -1.567028,-0.474722 -0.162494,-0.118992 -0.304954,-0.259947 -0.13234,-0.442025 0.172611,-0.182079 0.280393,-0.07323 0.413449,0.02424 z"
       id="path14437"
       sodipodi:nodetypes="sssscsscscs" /></g></svg>
