<?xml version="1.0" encoding="UTF-8" standalone="no"?>
<svg
   id="Layer_1"
   data-name="Layer 1"
   viewBox="0 0 300 345"
   version="1.1"
   sodipodi:docname="rainbowGhost2.svg"
   inkscape:version="1.2 (dc2aedaf03, 2022-05-15)"
   xml:space="preserve"
   xmlns:inkscape="http://www.inkscape.org/namespaces/inkscape"
   xmlns:sodipodi="http://sodipodi.sourceforge.net/DTD/sodipodi-0.dtd"
   xmlns="http://www.w3.org/2000/svg"
   xmlns:svg="http://www.w3.org/2000/svg"><sodipodi:namedview
     id="namedview4496"
     pagecolor="#505050"
     bordercolor="#ffffff"
     borderopacity="1"
     inkscape:showpageshadow="0"
     inkscape:pageopacity="0"
     inkscape:pagecheckerboard="1"
     inkscape:deskcolor="#505050"
     showgrid="false"
     inkscape:zoom="0.58058348"
     inkscape:cx="174.82413"
     inkscape:cy="297.9761"
     inkscape:window-width="1366"
     inkscape:window-height="705"
     inkscape:window-x="-8"
     inkscape:window-y="-8"
     inkscape:window-maximized="1"
     inkscape:current-layer="Layer_1" /><defs
     id="defs4470"><style
       id="style4445">.cls-1{fill:url(#linear-gradient);}.cls-2{fill:#c2def4;}.cls-3{fill:url(#radial-gradient);}.cls-4{fill:url(#radial-gradient-2);}.cls-5{fill:#80aecf;}.cls-6{fill:#15141a;}</style><linearGradient
       y2="161.16"
       x2="150"
       y1="356.11"
       x1="150"
       id="A"
       gradientUnits="userSpaceOnUse"
       gradientTransform="translate(0,-0.734194)"><stop
         stop-color="#0bc2cf"
         offset="0"
         id="stop832"
         style="stop-color:#818181;stop-opacity:0;" /><stop
         stop-color="#0b4fac"
         offset="0.5376569"
         id="stop834"
         style="stop-color:#000000;stop-opacity:0.49693254;" /></linearGradient></defs><path
     id="path839"
     style="fill:#6f13c0;fill-opacity:1"
     d="M 0 261.91992 L 0 307.88672 A 36.38 36.38 0 0 0 36.380859 344.26562 L 41.068359 344.26562 C 43.837929 343.68469 46.596724 342.75562 49.289062 341.42969 L 59.289062 336.42969 C 78.579043 326.8597 101.10033 330.24938 120.82031 338.85938 A 73 73 0 0 0 141.3457 344.26562 L 158.71484 344.26562 A 73 73 0 0 0 179.24023 338.85938 C 198.96021 330.24938 221.47955 326.8997 240.76953 336.42969 L 250.76953 341.42969 C 253.45497 342.75584 256.20828 343.68472 258.97266 344.26562 L 263.61914 344.26562 A 36.38 36.38 0 0 0 300 307.88672 L 300 261.91992 L 0 261.91992 z " /><path
     id="path13416"
     style="opacity:1;fill:#f1e62c;fill-opacity:1;stroke-width:2.539;stroke-linecap:round;paint-order:stroke fill markers;stop-color:#000000"
     class="UnoptimicedTransforms"
     d="M 21.210224 141.79642 L 21.210224 187.76322 A 29.178793 36.38 0 0 0 50.389706 224.14212 L 54.149343 224.14212 C 56.370691 223.5612 58.583403 222.63212 60.742807 221.30619 L 63.720753 219.45072 L 63.720753 141.79642 L 21.210224 141.79642 z "
     transform="matrix(1.2467959,0,0,1,-26.44482,120.1235)" /><path
     id="path13423"
     style="opacity:1;fill:#40de0e;fill-opacity:1;stroke-width:2.539;stroke-linecap:round;paint-order:stroke fill markers;stop-color:#000000"
     class="UnoptimicedTransforms"
     d="M 2.2750291 155.93652 L 2.2750291 233.83301 L 7.5825933 230.44629 C 22.693561 220.87631 40.335849 224.26598 55.78366 232.87597 A 57.185217 73 0 0 0 63.718231 236.34082 L 63.718231 155.93652 L 2.2750291 155.93652 z "
     transform="matrix(1.2765537,0,0,1,49.609475,105.9834)" /><path
     id="path13430"
     style="opacity:1;fill:#0b81e4;fill-opacity:1;stroke-width:2.539;stroke-linecap:round;paint-order:stroke fill markers;stop-color:#000000"
     class="UnoptimicedTransforms"
     d="M 2.2749599 163.85974 L 2.2749599 236.02142 A 51.287344 65.733598 0 0 0 10.144526 238.00877 L 22.3475 238.00877 A 51.287344 65.733598 0 0 0 36.767949 233.14065 C 45.333487 228.34742 54.649847 225.37534 63.717955 225.82442 L 63.717955 163.85974 L 2.2749599 163.85974 z "
     transform="matrix(1.4233531,0,0,1.1105432,126.90646,79.946606)" /><path
     id="path55054"
     style="fill:url(#A)"
     d="m 0,261.91992 v 45.9668 a 36.38,36.38 0 0 0 36.380859,36.3789 h 4.6875 c 2.76957,-0.58093 5.528365,-1.51 8.220703,-2.83593 l 10,-5 c 19.289981,-9.56999 41.811268,-6.18031 61.531248,2.42969 a 73,73 0 0 0 20.52539,5.40624 h 17.36914 a 73,73 0 0 0 20.52539,-5.40624 c 19.71998,-8.61 42.23932,-11.95968 61.5293,-2.42969 l 10,5 c 2.68544,1.32615 5.43875,2.25503 8.20313,2.83593 h 4.64648 A 36.38,36.38 0 0 0 300,307.88672 v -45.9668 z"
     sodipodi:insensitive="true" /><path
     id="rect309"
     style="fill:#f34040;fill-opacity:1;stroke:none;stroke-width:20.0829;stroke-linecap:round;stroke-linejoin:round;stop-color:#000000"
     class="UnoptimicedTransforms"
     d="m -197.97356,166.69354 c -17.82915,15.87991 -20.55701,41.71827 -6.1161,57.93179 l 57.58253,64.65073 6.9e-4,-168.42279 z"
     transform="matrix(0.63036166,0.61739114,-0.56144488,0.69317526,254.67571,52.203602)" /><path
     id="path1532"
     style="fill:#f48045;fill-opacity:1;stroke:#f48045;stroke-width:0.990735;stroke-linecap:round;stroke-linejoin:round;stroke-dasharray:none;stroke-opacity:1;stop-color:#000000"
     class="UnoptimicedTransforms"
     d="m -216.57515,120.85327 -6.9e-4,168.42279 70.06829,78.6691 8e-4,-309.499791 z"
     transform="matrix(0.63036166,0.61739114,-0.56144488,0.69317526,298.84434,95.463403)" /><path
     id="path1534"
     style="fill:#f1e62c;fill-opacity:1;stroke:#f1e62c;stroke-width:0.79078;stroke-linecap:round;stroke-linejoin:round;stroke-dasharray:none;stroke-opacity:1;stop-color:#000000"
     class="UnoptimicedTransforms"
     d="M -216.57655 58.445063 L -216.57764 367.78451 L -213.4457 371.30089 C -201.69182 383.16695 -183.35068 385.4204 -167.61316 377.8974 C -159.38115 373.50936 -152.2592 366.43653 -148.06935 357.07247 L -146.50702 353.54236 L -146.50815 -3.9628369 L -216.57655 58.445063 z "
     transform="matrix(0.63036166,0.61739114,-0.56144488,0.69317526,343.01297,138.72321)" /><path
     id="path1538"
     style="fill:#0b81e4;fill-opacity:1;stroke:#0b81e4;stroke-width:0.79078;stroke-linecap:round;stroke-linejoin:round;stroke-dasharray:none;stroke-opacity:1;stop-color:#000000"
     class="UnoptimicedTransforms"
     d="M -216.57642 -8.9984124 L -216.57713 293.78402 A 78.566481 86.395389 48.309469 0 0 -175.09055 252.61511 C -168.02319 238.53508 -158.51231 225.24128 -146.50798 215.43038 L -146.50673 69.672259 L -216.57642 -8.9984124 z "
     transform="matrix(0.63036166,0.61739114,-0.56144488,0.69317526,431.35022,225.24281)" /><path
     id="path1540"
     style="fill:#8618e8;fill-opacity:1;stroke:#8618e8;stroke-width:0.877766;stroke-linecap:round;stroke-linejoin:round;stroke-dasharray:none;stroke-opacity:1;stop-color:#000000"
     class="UnoptimicedTransforms"
     d="M -216.57544 69.672261 L -216.57669 215.43038 C -209.42874 209.5885 -201.39775 204.98021 -192.46989 202.18106 L -180.04111 198.32428 C -170.32919 195.26461 -162.52876 189.07052 -157.22146 181.47646 C -147.73575 166.49476 -147.9278 147.63228 -158.80818 134.53039 L -216.57544 69.672261 z "
     transform="matrix(0.63036166,0.61739114,-0.56144488,0.69317526,475.51885,268.50261)" /><path
     id="path1536"
     style="fill:#40de0e;fill-opacity:1;stroke:#40de0e;stroke-width:1.12969;stroke-linecap:round;stroke-linejoin:round;stroke-dasharray:none;stroke-opacity:1;stop-color:#000000"
     class="UnoptimicedTransforms"
     d="M -216.57686 -3.962835 L -216.57573 353.54236 L -212.87437 345.17108 C -202.63834 322.30583 -180.31539 307.25581 -156.70149 298.64467 A 78.566481 86.395389 48.309469 0 0 -146.50843 293.78403 L -146.50772 -8.9984064 L -149.31079 -12.145548 A 39.191671 43.097001 48.309469 0 0 -151.74721 -14.59926 C -151.74773 -14.599728 -151.74809 -14.600362 -151.74861 -14.600831 C -166.56726 -27.930245 -190.44624 -27.236624 -207.16046 -12.349752 L -216.57686 -3.962835 z "
     transform="matrix(0.63036166,0.61739114,-0.56144488,0.69317526,387.1816,181.98301)" /></svg>
