<svg id="Layer_1" data-name="Layer 1" xmlns="http://www.w3.org/2000/svg" xmlns:xlink="http://www.w3.org/1999/xlink" viewBox="0 0 300 345">
  <defs>
    <style>
      .pink-1{fill:url(#pink-linear-gradient);}
      .pink-2{fill:url(#pink-linear-gradient-2);}
      .pink-3{fill:#e573ac;}
      .pink-4{fill:#00c0f3;}
      .pink-5{fill:#fff;}
      .pink-6{fill:#ffcd05;}
      .pink-12,.pink-7{fill:none;}
      .pink-7{stroke:#cd8e2a;stroke-width:8.99px;}
      .pink-12,.pink-18,.pink-7{stroke-miterlimit:10;}
      .pink-8{fill:#fabc2e;}
      .pink-9{fill:#414042;}
      .pink-10{fill:#66402d;}
      .pink-11{fill:#2f2c38;}
      .pink-12{stroke:#2f2c38;stroke-width:6px;}
      .pink-13{opacity:0.8;}
      .pink-14{fill:#7ca1d5;}
      .pink-15{fill:#9dc6ea;}
      .pink-16{fill:#9b1f5d;}
      .pink-17{fill:#cc418d;}
      .pink-18{fill:#fff0a4;stroke:#fff;stroke-width:2px;}
      .pink-19{fill:#6d143c;}
      .pink-20{fill:#1d758a;}
      .pink-21{fill:#6eb8cc;}
      .purple-1{fill:url(#purple-linear-gradient);}
      .purple-2{fill:url(#purple-linear-gradient-2);}
      .purple-3{fill:#9068ad;}
      .purple-4{fill:#00c0f3;}
      .purple-5{fill:#fff;}
      .purple-6{fill:#ffcd05;}
      .purple-12,
      .purple-7{fill:none;}
      .purple-7{stroke:#cd8e2a;stroke-width:8.99px;}
      .purple-12,
      .purple-18,
      .purple-7{stroke-miterlimit:10;}
      .purple-8{fill:#fabc2e;}
      .purple-9{fill:#414042;}
      .purple-10{fill:#66402d;}
      .purple-11{fill:#2f2c38;}
      .purple-12{stroke:#2f2c38;stroke-width:6px;}
      .purple-13{opacity:0.8;}
      .purple-14{fill:#7ca1d5;}
      .purple-15{fill:#9dc6ea;}
      .purple-16{fill:#553192;}
      .purple-17{fill:#61459c;}
      .purple-18{fill:#fff0a4;stroke:#fff;stroke-width:2px;}
      .purple-19{fill:#38296f;}
      .purple-20{fill:#1d758a;}
      .purple-21{fill:#6eb8cc;}
      .blue-1{fill:url(#blue-linear-gradient);}
      .blue-2{fill:url(#blue-linear-gradient-2);}
      .blue-3{fill:#2867b1;}
      .blue-4{fill:#00c0f3;}
      .blue-5{fill:#fff;}
      .blue-6{fill:#ffcd05;}
      .blue-12,
      .blue-7{fill:none;}
      .blue-7{stroke:#cd8e2a;stroke-width:8.99px;}
      .blue-12,
      .blue-18,
      .blue-7{stroke-miterlimit:10;}
      .blue-8{fill:#fabc2e;}
      .blue-9{fill:#414042;}
      .blue-10{fill:#66402d;}
      .blue-11{fill:#2f2c38;}
      .blue-12{stroke:#2f2c38;stroke-width:6px;}
      .blue-13{opacity:0.8;}
      .blue-14{fill:#7ca1d5;}
      .blue-15{fill:#9dc6ea;}
      .blue-16{fill:#13294d;}
      .blue-17{fill:#1e3d71;}
      .blue-18{fill:#fff0a4;stroke:#fff;stroke-width:2px;}
      .blue-19{fill:#091931;}
      .blue-20{fill:#1d758a;}
      .blue-21{fill:#6eb8cc;}
      .green-1{fill:url(#green-linear-gradient);}
      .green-2{fill:url(#green-linear-gradient-2);}
      .green-3{fill:#197b42;}
      .green-4{fill:#00c0f3;}
      .green-5{fill:#fff;}
      .green-6{fill:#ffcd05;}
      .green-12,
      .green-7{fill:none;}
      .green-7{stroke:#cd8e2a;stroke-width:8.99px;}
      .green-12,
      .green-18,
      .green-7{stroke-miterlimit:10;}
      .green-8{fill:#fabc2e;}
      .green-9{fill:#414042;}
      .green-10{fill:#66402d;}
      .green-11{fill:#2f2c38;}
      .green-12{stroke:#2f2c38;stroke-width:6px;}
      .green-13{opacity:0.8;}
      .green-14{fill:#7ca1d5;}
      .green-15{fill:#9dc6ea;}
      .green-16{fill:#002d17;}
      .green-17{fill:#005232;}
      .green-18{fill:#fff0a4;stroke:#fff;stroke-width:2px;}
      .green-19{fill:#1d758a;}
      .green-20{fill:#6eb8cc;}
      .yellow-1{fill:url(#yellow-linear-gradient);}
      .yellow-2{fill:url(#yellow-linear-gradient-2);}
      .yellow-3{fill:#edcb1f;}
      .yellow-4{fill:#00c0f3;}
      .yellow-5{fill:#fff;}
      .yellow-6{fill:#ffcd05;}
      .yellow-12,
      .yellow-7{fill:none;}
      .yellow-7{stroke:#cd8e2a;stroke-width:8.99px;}
      .yellow-12,
      .yellow-18,
      .yellow-7{stroke-miterlimit:10;}
      .yellow-8{fill:#fabc2e;}
      .yellow-9{fill:#414042;}
      .yellow-10{fill:#66402d;}
      .yellow-11{fill:#2f2c38;}
      .yellow-12{stroke:#2f2c38;stroke-width:6px;}
      .yellow-13{opacity:0.8;}
      .yellow-14{fill:#7ca1d5;}
      .yellow-15{fill:#9dc6ea;}
      .yellow-16{fill:#b9762b;}
      .yellow-17{fill:#d49e29;}
      .yellow-18{fill:#fff0a4;stroke:#fff;stroke-width:2px;}
      .yellow-19{fill:#683d17;}
      .yellow-20{fill:#1d758a;}
      .yellow-21{fill:#6eb8cc;}
      .orange-1{fill:url(#linear-gradient);}
      .orange-2{fill:url(#linear-gradient-2);}
      .orange-3{fill:#f79320;}
      .orange-4{fill:#00c0f3;}
      .orange-5{fill:#fff;}
      .orange-6{fill:#ffcd05;}
      .orange-12,
      .orange-7{fill:none;}
      .orange-7{stroke:#cd8e2a;stroke-width:8.99px;}
      .orange-12,
      .orange-18,
      .orange-7{stroke-miterlimit:10;}
      .orange-8{fill:#fabc2e;}
      .orange-9{fill:#414042;}
      .orange-10{fill:#66402d;}
      .orange-11{fill:#2f2c38;}
      .orange-12{stroke:#2f2c38;stroke-width:6px;}
      .orange-13{opacity:0.8;}
      .orange-14{fill:#7ca1d5;}
      .orange-15{fill:#9dc6ea;}
      .orange-16{fill:#9e3f22;}
      .orange-17{fill:#c95d28;}
      .orange-18{fill:#fff0a4;stroke:#fff;stroke-width:2px;}
      .orange-19{fill:#702b14;}
      .orange-20{fill:#1d758a;}
      .orange-21{fill:#6eb8cc;}
      .red-1{fill:url(#red-linear-gradient);}
      .red-2{fill:url(#red-linear-gradient-2);}
      .red-3{fill:#ee2324;}
      .red-4{fill:#00c0f3;}
      .red-5{fill:#fff;}
      .red-6{fill:#ffcd05;}
      .red-12,
      .red-7{fill:none;}
      .red-7{stroke:#cd8e2a;stroke-width:8.99px;}
      .red-12,
      .red-20,
      .red-7{stroke-miterlimit:10;}
      .red-8{fill:#fabc2e;}
      .red-9{fill:#414042;}
      .red-10{fill:#66402d;}
      .red-11{fill:#2f2c38;}
      .red-12{stroke:#2f2c38;stroke-width:6px;}
      .red-13{opacity:0.8;}
      .red-14{fill:#7ca1d5;}
      .red-15{fill:#9dc6ea;}
      .red-16{fill:#891c1c;}
      .red-17{fill:#b21f24;}
      .red-18{fill:#1d758a;}
      .red-19{fill:#6eb8cc;}
      .red-20{fill:#fff0a4;stroke:#fff;stroke-width:2px;}
      .red-21{fill:#5b1212;}
    </style>
    <linearGradient id="pink-linear-gradient" x1="149.93" y1="393.41" x2="149.93" y2="188.45" gradientUnits="userSpaceOnUse">
      <stop offset="0.25" stop-color="#e573ac"/>
      <stop offset="0.29" stop-color="#e568a8"/>
      <stop offset="0.41" stop-color="#e34c9e"/>
      <stop offset="0.53" stop-color="#e33997"/>
      <stop offset="0.65" stop-color="#e22d92"/>
      <stop offset="0.77" stop-color="#e22991"/>
    </linearGradient>
    <linearGradient id="pink-linear-gradient-2" x1="149.93" y1="242.17" x2="149.93" y2="396.36" gradientUnits="userSpaceOnUse">
      <stop offset="0.23" stop-color="#e573ac"/>
      <stop offset="0.27" stop-color="#e568a8"/>
      <stop offset="0.36" stop-color="#e34c9e"/>
      <stop offset="0.45" stop-color="#e33997"/>
      <stop offset="0.54" stop-color="#e22d92"/>
      <stop offset="0.63" stop-color="#e22991"/>
    </linearGradient>
    <linearGradient id="purple-linear-gradient" x1="149.93" y1="419.07" x2="149.93" y2="-21.28" gradientUnits="userSpaceOnUse">
      <stop offset="0.18" stop-color="#8054a2"/>
      <stop offset="0.24" stop-color="#6d459b"/>
      <stop offset="0.31" stop-color="#5b3694"/>
      <stop offset="0.36" stop-color="#553192"/>
    </linearGradient>
    <linearGradient id="purple-linear-gradient-2" x1="149.93" y1="350.54" x2="149.93" y2="261.63" gradientUnits="userSpaceOnUse">
      <stop offset="0.4" stop-color="#553192"/>
      <stop offset="0.87" stop-color="#8054a2"/>
    </linearGradient>
    <linearGradient id="blue-linear-gradient" x1="149.93" y1="355.43" x2="149.93" y2="160.48" gradientUnits="userSpaceOnUse">
      <stop offset="0" stop-color="#00629f"/>
      <stop offset="0.05" stop-color="#035a96"/>
      <stop offset="0.24" stop-color="#0e4278"/>
      <stop offset="0.39" stop-color="#153366"/>
      <stop offset="0.51" stop-color="#172e60"/>
    </linearGradient>
    <linearGradient id="blue-linear-gradient-2" x1="149.93" y1="350.54" x2="149.93" y2="261.63" gradientUnits="userSpaceOnUse">
      <stop offset="0.28" stop-color="#091931"/>
      <stop offset="0.81" stop-color="#0a5295"/>
    </linearGradient>
    <linearGradient id="green-linear-gradient" x1="149.93" y1="386.92" x2="149.93" y2="85.47" gradientUnits="userSpaceOnUse">
      <stop offset="0.09" stop-color="#197b42"/>
      <stop offset="0.16" stop-color="#0f6a3c"/>
      <stop offset="0.25" stop-color="#045835"/>
      <stop offset="0.32" stop-color="#005232"/>
    </linearGradient>
    <linearGradient id="green-linear-gradient-2" x1="149.93" y1="350.54" x2="149.93" y2="261.63" gradientUnits="userSpaceOnUse">
      <stop offset="0.17" stop-color="#002d17"/>
      <stop offset="1" stop-color="#197b42"/>
    </linearGradient>
    <linearGradient id="yellow-linear-gradient" x1="149.93" y1="411.83" x2="149.93" y2="59.87" gradientUnits="userSpaceOnUse">
      <stop offset="0.17" stop-color="#edcb1f"/>
      <stop offset="0.27" stop-color="#daac23"/>
      <stop offset="0.38" stop-color="#c88e28"/>
      <stop offset="0.48" stop-color="#bd7c2a"/>
      <stop offset="0.55" stop-color="#b9762b"/>
    </linearGradient>
    <linearGradient id="yellow-linear-gradient-2" x1="149.93" y1="338.32" x2="149.93" y2="249.4" gradientUnits="userSpaceOnUse">
      <stop offset="0.11" stop-color="#b9762b"/>
      <stop offset="1" stop-color="#edcb1f"/>
    </linearGradient>
    <linearGradient id="orange-linear-gradient" x1="149.93" y1="352.11" x2="149.93" y2="157.16" gradientUnits="userSpaceOnUse">
      <stop offset="0.07" stop-color="#f79320"/>
      <stop offset="0.2" stop-color="#de7524"/>
      <stop offset="0.31" stop-color="#ce6327"/>
      <stop offset="0.39" stop-color="#c95d28"/>
    </linearGradient>
    <linearGradient id="orange-linear-gradient-2" x1="149.93" y1="350.54" x2="149.93" y2="261.63" gradientUnits="userSpaceOnUse">
      <stop offset="0.35" stop-color="#c95d28"/>
      <stop offset="1" stop-color="#f79320"/>
    </linearGradient>
    <linearGradient id="red-linear-gradient" x1="149.93" y1="355.43" x2="149.93" y2="160.48" gradientUnits="userSpaceOnUse">
      <stop offset="0.05" stop-color="#e61e25"/>
      <stop offset="0.18" stop-color="#c3151f"/>
      <stop offset="0.32" stop-color="#a50d19"/>
      <stop offset="0.44" stop-color="#930816"/>
      <stop offset="0.52" stop-color="#8d0615"/>
    </linearGradient>
    <linearGradient id="red-linear-gradient-2" x1="149.93" y1="350.54" x2="149.93" y2="261.63" gradientUnits="userSpaceOnUse">
      <stop offset="0.04" stop-color="#500000"/>
      <stop offset="0.87" stop-color="#ed1c24"/>
    </linearGradient>
  </defs>

  <g id="pink-astro" data-name="pink astro">
    <path class="pink-1" d="M263.54,345H36.31A36.38,36.38,0,0,1-.07,308.62V259.14h300v49.48A36.38,36.38,0,0,1,263.54,345Z"/>
    <path class="pink-2" d="M263.54,311.65H36.31A36.38,36.38,0,0,1-.07,275.27V261.38h300v13.89A36.38,36.38,0,0,1,263.54,311.65Z"/>
    <rect class="pink-3" x="-0.07" y="45" width="300" height="253.39" rx="36.38"/>
    <rect class="pink-4" x="259.01" y="194.36" width="41.06" height="40.11"/>
    <path class="pink-5" d="M281.65,227.25h-8.1a7.77,7.77,0,0,1-2.48-.26.85.85,0,0,1-.63-.81v-23.8q0-1.77,10.69-1.77c4.1,0,6.92.39,8.48,1.18a5.8,5.8,0,0,1,3,3.11,8.09,8.09,0,0,1,.37,2.59,7.77,7.77,0,0,1-1,4.33,3.34,3.34,0,0,1-2.13,1.63,5.14,5.14,0,0,1,2.89,1.7c.76.89,1.15,2.39,1.15,4.51a6.55,6.55,0,0,1-2.26,5.48,11.48,11.48,0,0,1-6,2C284.55,227.2,283.21,227.25,281.65,227.25Zm1-15.87c1.69,0,2.54-1,2.54-2.89a3,3,0,0,0-.68-2.15,2,2,0,0,0-1.51-.71h-4v5.75Zm-3.68,10.41h3.68c1.69,0,2.54-1,2.54-2.9a3,3,0,0,0-.68-2.15A2,2,0,0,0,283,216h-4Z"/>
    <rect class="pink-6" x="35.29" y="83.62" width="229.26" height="177.77" rx="27.8"/>
    <path class="pink-7" d="M125,222.54s8.46,6.51,24.9,6.51,24.9-6.51,24.9-6.51"/>
    <circle class="pink-8" cx="219.89" cy="176.4" r="27.55"/>
    <circle class="pink-8" cx="79.96" cy="176.4" r="27.55"/>
    <circle class="pink-5" cx="219.89" cy="184.05" r="27.55"/>
    <circle class="pink-5" cx="79.96" cy="184.05" r="27.55"/>
    <path class="pink-9" d="M104,180.05a10,10,0,0,1-14.5-13.53,17.85,17.85,0,0,0-2.44-.18A17.37,17.37,0,1,0,104,180.05ZM79.74,195a4.12,4.12,0,1,1,4.13-4.12A4.12,4.12,0,0,1,79.74,195Z"/>
    <path class="pink-9" d="M229.75,180a10,10,0,0,1-14.41-13.42,17.33,17.33,0,1,0,14.82,17.14A16.9,16.9,0,0,0,229.75,180Zm-24.34,15a4.12,4.12,0,1,1,4.12-4.12A4.11,4.11,0,0,1,205.41,195Z"/>
    <ellipse class="pink-10" cx="207.86" cy="142.15" rx="23.6" ry="13.68" transform="translate(-40.49 100.51) rotate(-24.85)"/>
    <ellipse class="pink-10" cx="92.14" cy="142.15" rx="13.68" ry="23.6" transform="translate(-75.57 166.02) rotate(-65.15)"/>
    <ellipse class="pink-11" cx="178.48" cy="227.86" rx="17.21" ry="10.75"/>
    <path class="pink-12" d="M178.3,227.05s72.79,13,83.21-39.11"/>
    <g class="pink-13">
      <rect class="pink-14" x="35.29" y="83.62" width="229.26" height="177.77" rx="27.8"/>
      <polygon class="pink-15" points="114.77 261.38 126.95 261.38 229.59 83.61 217.4 83.61 114.77 261.38"/>
      <path class="pink-15" d="M142,261.38h30.71l90.82-157.3A27.86,27.86,0,0,0,244.1,84.6Z"/>
    </g>
    <path class="pink-16" d="M202,45.74c0,16.09-23.85,23.47-52.08,23.47S97.84,61.83,97.84,45.74c0-.25,0-.49,0-.74l-9.26,0c0,.23,0,.45,0,.68,0,18.49,29.27,29.5,61.35,29.5s61.34-11,61.34-29.5c0-.23,0-.45,0-.68L202,45C202,45.25,202,45.49,202,45.74Z"/>
    <path class="pink-16" d="M290.19,56.62,253,94.43l4.28,4.21,36.68-37.27A35.79,35.79,0,0,0,290.19,56.62Z"/>
    <path class="pink-16" d="M5.93,61.37,42.61,98.64l4.28-4.21L9.66,56.62A35.79,35.79,0,0,0,5.93,61.37Z"/>
    <path class="pink-17" d="M195.87,45c-4,12.27-20.85,18.21-45.94,18.21S108,57.27,104,45H93.31c4,17.43,27.41,24.21,56.62,24.21S202.57,62.43,206.54,45Z"/>
    <path class="pink-17" d="M287.15,53.71,253,88.43l4.28,4.21L291.38,58A36.91,36.91,0,0,0,287.15,53.71Z"/>
    <path class="pink-17" d="M8.47,58,42.61,92.64l4.28-4.21L12.7,53.71A36.91,36.91,0,0,0,8.47,58Z"/>
    <path class="pink-16" d="M288.39,188.62H275.68a8.06,8.06,0,0,1-8.06-8.06V126.75s0-13.34,14.42-13.34,14.42,13.34,14.42,13.34v53.81A8.06,8.06,0,0,1,288.39,188.62Z"/>
    <path class="pink-17" d="M288.39,177.76H275.68a8.06,8.06,0,0,1-8.06-8.06V115.88s0-13.33,14.42-13.33,14.42,13.33,14.42,13.33V169.7A8.06,8.06,0,0,1,288.39,177.76Z"/>
    <circle class="pink-18" cx="282.04" cy="134.56" r="9.28"/>
    <circle class="pink-16" cx="282.04" cy="158.26" r="9.28"/>
    <rect class="pink-19" x="272.99" y="110.33" width="18.09" height="9.81" rx="3.81"/>
    <path class="pink-16" d="M24.17,188.62H11.46a8.06,8.06,0,0,1-8.07-8.06V126.75s0-13.34,14.42-13.34,14.42,13.34,14.42,13.34v53.81A8.06,8.06,0,0,1,24.17,188.62Z"/>
    <path class="pink-17" d="M24.17,177.76H11.46a8.06,8.06,0,0,1-8.07-8.06V115.88s0-13.33,14.42-13.33,14.42,13.33,14.42,13.33V169.7A8.06,8.06,0,0,1,24.17,177.76Z"/>
    <circle class="pink-18" cx="17.81" cy="134.56" r="9.28"/>
    <circle class="pink-16" cx="17.81" cy="158.26" r="9.28"/>
    <rect class="pink-19" x="8.77" y="110.33" width="18.09" height="9.81" rx="3.81"/>
    <path class="pink-20" d="M236.75,98.6a19.84,19.84,0,0,1,19.82,19.82V240.58a19.84,19.84,0,0,1-19.82,19.82H63.1a19.84,19.84,0,0,1-19.82-19.82V118.42A19.84,19.84,0,0,1,63.1,98.6H236.75m0-8H63.1a27.8,27.8,0,0,0-27.81,27.8V240.58a27.8,27.8,0,0,0,27.81,27.8H236.75a27.8,27.8,0,0,0,27.81-27.8V118.42a27.8,27.8,0,0,0-27.81-27.8Z"/>
    <path class="pink-21" d="M236.75,91.6a19.84,19.84,0,0,1,19.82,19.82V233.58a19.84,19.84,0,0,1-19.82,19.82H63.1a19.84,19.84,0,0,1-19.82-19.82V111.42A19.84,19.84,0,0,1,63.1,91.6H236.75m0-8H63.1a27.8,27.8,0,0,0-27.81,27.8V233.58a27.8,27.8,0,0,0,27.81,27.8H236.75a27.8,27.8,0,0,0,27.81-27.8V111.42a27.8,27.8,0,0,0-27.81-27.8Z"/>
  </g>

  <g id="purple-astro" data-name="purple astro">
    <path class="purple-1" d="M263.54,345H36.31A36.38,36.38,0,0,1-.07,308.62V259.14h300v49.48A36.38,36.38,0,0,1,263.54,345Z"/>
    <path class="purple-2" d="M263.54,311.65H36.31A36.38,36.38,0,0,1-.07,275.27V261.38h300v13.89A36.38,36.38,0,0,1,263.54,311.65Z"/>
    <rect class="purple-3" x="-0.07" y="45" width="300" height="253.39" rx="36.38"/>
    <rect class="purple-4" x="259.01" y="194.36" width="41.06" height="40.11"/>
    <path class="purple-5" d="M281.65,227.25h-8.1a7.77,7.77,0,0,1-2.48-.26.85.85,0,0,1-.63-.81v-23.8q0-1.77,10.69-1.77c4.1,0,6.92.39,8.48,1.18a5.8,5.8,0,0,1,3,3.11,8.09,8.09,0,0,1,.37,2.59,7.77,7.77,0,0,1-1,4.33,3.34,3.34,0,0,1-2.13,1.63,5.14,5.14,0,0,1,2.89,1.7c.76.89,1.15,2.39,1.15,4.51a6.55,6.55,0,0,1-2.26,5.48,11.48,11.48,0,0,1-6,2C284.55,227.2,283.21,227.25,281.65,227.25Zm1-15.87c1.69,0,2.54-1,2.54-2.89a3,3,0,0,0-.68-2.15,2,2,0,0,0-1.51-.71h-4v5.75Zm-3.68,10.41h3.68c1.69,0,2.54-1,2.54-2.9a3,3,0,0,0-.68-2.15A2,2,0,0,0,283,216h-4Z"/>
    <rect class="purple-6" x="35.29" y="83.62" width="229.26" height="177.77" rx="27.8"/>
    <path class="purple-7" d="M125,222.54s8.46,6.51,24.9,6.51,24.9-6.51,24.9-6.51"/>
    <circle class="purple-8" cx="219.89" cy="176.4" r="27.55"/>
    <circle class="purple-8" cx="79.96" cy="176.4" r="27.55"/>
    <circle class="purple-5" cx="219.89" cy="184.05" r="27.55"/>
    <circle class="purple-5" cx="79.96" cy="184.05" r="27.55"/>
    <path class="purple-9" d="M104,180.05a10,10,0,0,1-14.5-13.53,17.85,17.85,0,0,0-2.44-.18A17.37,17.37,0,1,0,104,180.05ZM79.74,195a4.12,4.12,0,1,1,4.13-4.12A4.12,4.12,0,0,1,79.74,195Z"/>
    <path class="purple-9" d="M229.75,180a10,10,0,0,1-14.41-13.42,17.33,17.33,0,1,0,14.82,17.14A16.9,16.9,0,0,0,229.75,180Zm-24.34,15a4.12,4.12,0,1,1,4.12-4.12A4.11,4.11,0,0,1,205.41,195Z"/>
    <ellipse class="purple-10" cx="207.86" cy="142.15" rx="23.6" ry="13.68" transform="translate(-40.49 100.51) rotate(-24.85)"/>
    <ellipse class="purple-10" cx="92.14" cy="142.15" rx="13.68" ry="23.6" transform="translate(-75.57 166.02) rotate(-65.15)"/>
    <ellipse class="purple-11" cx="178.48" cy="227.86" rx="17.21" ry="10.75"/>
    <path class="purple-12" d="M178.3,227.05s72.79,13,83.21-39.11"/>
    <g class="purple-13">
      <rect class="purple-14" x="35.29" y="83.62" width="229.26" height="177.77" rx="27.8"/>
      <polygon class="purple-15" points="114.77 261.38 126.95 261.38 229.59 83.61 217.4 83.61 114.77 261.38"/>
      <path class="purple-15" d="M142,261.38h30.71l90.82-157.3A27.86,27.86,0,0,0,244.1,84.6Z"/>
    </g>
    <path class="purple-16" d="M202,45.74c0,16.09-23.85,23.47-52.08,23.47S97.84,61.83,97.84,45.74c0-.25,0-.49,0-.74l-9.26,0c0,.23,0,.45,0,.68,0,18.49,29.27,29.5,61.35,29.5s61.34-11,61.34-29.5c0-.23,0-.45,0-.68L202,45C202,45.25,202,45.49,202,45.74Z"/>
    <path class="purple-16" d="M290.19,56.62,253,94.43l4.28,4.21,36.68-37.27A35.79,35.79,0,0,0,290.19,56.62Z"/>
    <path class="purple-16" d="M5.93,61.37,42.61,98.64l4.28-4.21L9.66,56.62A35.79,35.79,0,0,0,5.93,61.37Z"/>
    <path class="purple-17" d="M195.87,45c-4,12.27-20.85,18.21-45.94,18.21S108,57.27,104,45H93.31c4,17.43,27.41,24.21,56.62,24.21S202.57,62.43,206.54,45Z"/>
    <path class="purple-17" d="M287.15,53.71,253,88.43l4.28,4.21L291.38,58A36.91,36.91,0,0,0,287.15,53.71Z"/>
    <path class="purple-17" d="M8.47,58,42.61,92.64l4.28-4.21L12.7,53.71A36.91,36.91,0,0,0,8.47,58Z"/>
    <path class="purple-16" d="M288.39,188.62H275.68a8.06,8.06,0,0,1-8.06-8.06V126.75s0-13.34,14.42-13.34,14.42,13.34,14.42,13.34v53.81A8.06,8.06,0,0,1,288.39,188.62Z"/>
    <path class="purple-17" d="M288.39,177.76H275.68a8.06,8.06,0,0,1-8.06-8.06V115.88s0-13.33,14.42-13.33,14.42,13.33,14.42,13.33V169.7A8.06,8.06,0,0,1,288.39,177.76Z"/>
    <circle class="purple-18" cx="282.04" cy="134.56" r="9.28"/>
    <circle class="purple-16" cx="282.04" cy="158.26" r="9.28"/>
    <rect class="purple-19" x="272.99" y="110.33" width="18.09" height="9.81" rx="3.81"/>
    <path class="purple-16" d="M24.17,188.62H11.46a8.06,8.06,0,0,1-8.07-8.06V126.75s0-13.34,14.42-13.34,14.42,13.34,14.42,13.34v53.81A8.06,8.06,0,0,1,24.17,188.62Z"/>
    <path class="purple-17" d="M24.17,177.76H11.46a8.06,8.06,0,0,1-8.07-8.06V115.88s0-13.33,14.42-13.33,14.42,13.33,14.42,13.33V169.7A8.06,8.06,0,0,1,24.17,177.76Z"/>
    <circle class="purple-18" cx="17.81" cy="134.56" r="9.28"/>
    <circle class="purple-16" cx="17.81" cy="158.26" r="9.28"/>
    <rect class="purple-19" x="8.77" y="110.33" width="18.09" height="9.81" rx="3.81"/>
    <path class="purple-20" d="M236.75,98.6a19.84,19.84,0,0,1,19.82,19.82V240.58a19.84,19.84,0,0,1-19.82,19.82H63.1a19.84,19.84,0,0,1-19.82-19.82V118.42A19.84,19.84,0,0,1,63.1,98.6H236.75m0-8H63.1a27.8,27.8,0,0,0-27.81,27.8V240.58a27.8,27.8,0,0,0,27.81,27.8H236.75a27.8,27.8,0,0,0,27.81-27.8V118.42a27.8,27.8,0,0,0-27.81-27.8Z"/>
    <path class="purple-21" d="M236.75,91.6a19.84,19.84,0,0,1,19.82,19.82V233.58a19.84,19.84,0,0,1-19.82,19.82H63.1a19.84,19.84,0,0,1-19.82-19.82V111.42A19.84,19.84,0,0,1,63.1,91.6H236.75m0-8H63.1a27.8,27.8,0,0,0-27.81,27.8V233.58a27.8,27.8,0,0,0,27.81,27.8H236.75a27.8,27.8,0,0,0,27.81-27.8V111.42a27.8,27.8,0,0,0-27.81-27.8Z"/>
  </g>

  <g id="blue-astro" data-name="blue astro">
    <path class="blue-1" d="M263.54,345H36.31A36.38,36.38,0,0,1-.07,308.62V259.14h300v49.48A36.38,36.38,0,0,1,263.54,345Z"/>
    <path class="blue-2" d="M263.54,311.65H36.31A36.38,36.38,0,0,1-.07,275.27V261.38h300v13.89A36.38,36.38,0,0,1,263.54,311.65Z"/>
    <rect class="blue-3" x="-0.07" y="45" width="300" height="253.39" rx="36.38"/>
    <rect class="blue-4" x="259.01" y="194.36" width="41.06" height="40.11"/>
    <path class="blue-5" d="M281.65,227.25h-8.1a7.77,7.77,0,0,1-2.48-.26.85.85,0,0,1-.63-.81v-23.8q0-1.77,10.69-1.77c4.1,0,6.92.39,8.48,1.18a5.8,5.8,0,0,1,3,3.11,8.09,8.09,0,0,1,.37,2.59,7.77,7.77,0,0,1-1,4.33,3.34,3.34,0,0,1-2.13,1.63,5.14,5.14,0,0,1,2.89,1.7c.76.89,1.15,2.39,1.15,4.51a6.55,6.55,0,0,1-2.26,5.48,11.48,11.48,0,0,1-6,2C284.55,227.2,283.21,227.25,281.65,227.25Zm1-15.87c1.69,0,2.54-1,2.54-2.89a3,3,0,0,0-.68-2.15,2,2,0,0,0-1.51-.71h-4v5.75Zm-3.68,10.41h3.68c1.69,0,2.54-1,2.54-2.9a3,3,0,0,0-.68-2.15A2,2,0,0,0,283,216h-4Z"/>
    <rect class="blue-6" x="35.29" y="83.62" width="229.26" height="177.77" rx="27.8"/>
    <path class="blue-7" d="M125,222.54s8.46,6.51,24.9,6.51,24.9-6.51,24.9-6.51"/>
    <circle class="blue-8" cx="219.89" cy="176.4" r="27.55"/>
    <circle class="blue-8" cx="79.96" cy="176.4" r="27.55"/>
    <circle class="blue-5" cx="219.89" cy="184.05" r="27.55"/>
    <circle class="blue-5" cx="79.96" cy="184.05" r="27.55"/>
    <path class="blue-9" d="M104,180.05a10,10,0,0,1-14.5-13.53,17.85,17.85,0,0,0-2.44-.18A17.37,17.37,0,1,0,104,180.05ZM79.74,195a4.12,4.12,0,1,1,4.13-4.12A4.12,4.12,0,0,1,79.74,195Z"/>
    <path class="blue-9" d="M229.75,180a10,10,0,0,1-14.41-13.42,17.33,17.33,0,1,0,14.82,17.14A16.9,16.9,0,0,0,229.75,180Zm-24.34,15a4.12,4.12,0,1,1,4.12-4.12A4.11,4.11,0,0,1,205.41,195Z"/>
    <ellipse class="blue-10" cx="207.86" cy="142.15" rx="23.6" ry="13.68" transform="translate(-40.49 100.51) rotate(-24.85)"/>
    <ellipse class="blue-10" cx="92.14" cy="142.15" rx="13.68" ry="23.6" transform="translate(-75.57 166.02) rotate(-65.15)"/>
    <ellipse class="blue-11" cx="178.48" cy="227.86" rx="17.21" ry="10.75"/>
    <path class="blue-12" d="M178.3,227.05s72.79,13,83.21-39.11"/>
    <g class="blue-13">
      <rect class="blue-14" x="35.29" y="83.62" width="229.26" height="177.77" rx="27.8"/>
      <polygon class="blue-15" points="114.77 261.38 126.95 261.38 229.59 83.61 217.4 83.61 114.77 261.38"/>
      <path class="blue-15" d="M142,261.38h30.71l90.82-157.3A27.86,27.86,0,0,0,244.1,84.6Z"/>
    </g>
    <path class="blue-16" d="M202,45.74c0,16.09-23.85,23.47-52.08,23.47S97.84,61.83,97.84,45.74c0-.25,0-.49,0-.74l-9.26,0c0,.23,0,.45,0,.68,0,18.49,29.27,29.5,61.35,29.5s61.34-11,61.34-29.5c0-.23,0-.45,0-.68L202,45C202,45.25,202,45.49,202,45.74Z"/>
    <path class="blue-16" d="M290.19,56.62,253,94.43l4.28,4.21,36.68-37.27A35.79,35.79,0,0,0,290.19,56.62Z"/>
    <path class="blue-16" d="M5.93,61.37,42.61,98.64l4.28-4.21L9.66,56.62A35.79,35.79,0,0,0,5.93,61.37Z"/>
    <path class="blue-17" d="M195.87,45c-4,12.27-20.85,18.21-45.94,18.21S108,57.27,104,45H93.31c4,17.43,27.41,24.21,56.62,24.21S202.57,62.43,206.54,45Z"/>
    <path class="blue-17" d="M287.15,53.71,253,88.43l4.28,4.21L291.38,58A36.91,36.91,0,0,0,287.15,53.71Z"/>
    <path class="blue-17" d="M8.47,58,42.61,92.64l4.28-4.21L12.7,53.71A36.91,36.91,0,0,0,8.47,58Z"/>
    <path class="blue-16" d="M288.39,188.62H275.68a8.06,8.06,0,0,1-8.06-8.06V126.75s0-13.34,14.42-13.34,14.42,13.34,14.42,13.34v53.81A8.06,8.06,0,0,1,288.39,188.62Z"/>
    <path class="blue-17" d="M288.39,177.76H275.68a8.06,8.06,0,0,1-8.06-8.06V115.88s0-13.33,14.42-13.33,14.42,13.33,14.42,13.33V169.7A8.06,8.06,0,0,1,288.39,177.76Z"/>
    <circle class="blue-18" cx="282.04" cy="134.56" r="9.28"/>
    <circle class="blue-16" cx="282.04" cy="158.26" r="9.28"/>
    <rect class="blue-19" x="272.99" y="110.33" width="18.09" height="9.81" rx="3.81"/>
    <path class="blue-16" d="M24.17,188.62H11.46a8.06,8.06,0,0,1-8.07-8.06V126.75s0-13.34,14.42-13.34,14.42,13.34,14.42,13.34v53.81A8.06,8.06,0,0,1,24.17,188.62Z"/>
    <path class="blue-17" d="M24.17,177.76H11.46a8.06,8.06,0,0,1-8.07-8.06V115.88s0-13.33,14.42-13.33,14.42,13.33,14.42,13.33V169.7A8.06,8.06,0,0,1,24.17,177.76Z"/>
    <circle class="blue-18" cx="17.81" cy="134.56" r="9.28"/>
    <circle class="blue-16" cx="17.81" cy="158.26" r="9.28"/>
    <rect class="blue-19" x="8.77" y="110.33" width="18.09" height="9.81" rx="3.81"/>
    <path class="blue-20" d="M236.75,98.6a19.84,19.84,0,0,1,19.82,19.82V240.58a19.84,19.84,0,0,1-19.82,19.82H63.1a19.84,19.84,0,0,1-19.82-19.82V118.42A19.84,19.84,0,0,1,63.1,98.6H236.75m0-8H63.1a27.8,27.8,0,0,0-27.81,27.8V240.58a27.8,27.8,0,0,0,27.81,27.8H236.75a27.8,27.8,0,0,0,27.81-27.8V118.42a27.8,27.8,0,0,0-27.81-27.8Z"/>
    <path class="blue-21" d="M236.75,91.6a19.84,19.84,0,0,1,19.82,19.82V233.58a19.84,19.84,0,0,1-19.82,19.82H63.1a19.84,19.84,0,0,1-19.82-19.82V111.42A19.84,19.84,0,0,1,63.1,91.6H236.75m0-8H63.1a27.8,27.8,0,0,0-27.81,27.8V233.58a27.8,27.8,0,0,0,27.81,27.8H236.75a27.8,27.8,0,0,0,27.81-27.8V111.42a27.8,27.8,0,0,0-27.81-27.8Z"/>
  </g>

  <g id="green-astro" data-name="green astro">
    <path class="green-1" d="M263.54,345H36.31A36.38,36.38,0,0,1-.07,308.62V259.14h300v49.48A36.38,36.38,0,0,1,263.54,345Z"/>
    <path class="green-2" d="M263.54,311.65H36.31A36.38,36.38,0,0,1-.07,275.27V261.38h300v13.89A36.38,36.38,0,0,1,263.54,311.65Z"/>
    <rect class="green-3" x="-0.07" y="45" width="300" height="253.39" rx="36.38"/>
    <rect class="green-4" x="259.01" y="194.36" width="41.06" height="40.11"/>
    <path class="green-5" d="M281.65,227.25h-8.1a7.77,7.77,0,0,1-2.48-.26.85.85,0,0,1-.63-.81v-23.8q0-1.77,10.69-1.77c4.1,0,6.92.39,8.48,1.18a5.8,5.8,0,0,1,3,3.11,8.09,8.09,0,0,1,.37,2.59,7.77,7.77,0,0,1-1,4.33,3.34,3.34,0,0,1-2.13,1.63,5.14,5.14,0,0,1,2.89,1.7c.76.89,1.15,2.39,1.15,4.51a6.55,6.55,0,0,1-2.26,5.48,11.48,11.48,0,0,1-6,2C284.55,227.2,283.21,227.25,281.65,227.25Zm1-15.87c1.69,0,2.54-1,2.54-2.89a3,3,0,0,0-.68-2.15,2,2,0,0,0-1.51-.71h-4v5.75Zm-3.68,10.41h3.68c1.69,0,2.54-1,2.54-2.9a3,3,0,0,0-.68-2.15A2,2,0,0,0,283,216h-4Z"/>
    <rect class="green-6" x="35.29" y="83.62" width="229.26" height="177.77" rx="27.8"/>
    <path class="green-7" d="M125,222.54s8.46,6.51,24.9,6.51,24.9-6.51,24.9-6.51"/>
    <circle class="green-8" cx="219.89" cy="176.4" r="27.55"/>
    <circle class="green-8" cx="79.96" cy="176.4" r="27.55"/>
    <circle class="green-5" cx="219.89" cy="184.05" r="27.55"/>
    <circle class="green-5" cx="79.96" cy="184.05" r="27.55"/>
    <path class="green-9" d="M104,180.05a10,10,0,0,1-14.5-13.53,17.85,17.85,0,0,0-2.44-.18A17.37,17.37,0,1,0,104,180.05ZM79.74,195a4.12,4.12,0,1,1,4.13-4.12A4.12,4.12,0,0,1,79.74,195Z"/>
    <path class="green-9" d="M229.75,180a10,10,0,0,1-14.41-13.42,17.33,17.33,0,1,0,14.82,17.14A16.9,16.9,0,0,0,229.75,180Zm-24.34,15a4.12,4.12,0,1,1,4.12-4.12A4.11,4.11,0,0,1,205.41,195Z"/>
    <ellipse class="green-10" cx="207.86" cy="142.15" rx="23.6" ry="13.68" transform="translate(-40.49 100.51) rotate(-24.85)"/>
    <ellipse class="green-10" cx="92.14" cy="142.15" rx="13.68" ry="23.6" transform="translate(-75.57 166.02) rotate(-65.15)"/>
    <ellipse class="green-11" cx="178.48" cy="227.86" rx="17.21" ry="10.75"/>
    <path class="green-12" d="M178.3,227.05s72.79,13,83.21-39.11"/>
    <g class="green-13">
      <rect class="green-14" x="35.29" y="83.62" width="229.26" height="177.77" rx="27.8"/>
      <polygon class="green-15" points="114.77 261.38 126.95 261.38 229.59 83.61 217.4 83.61 114.77 261.38"/>
      <path class="green-15" d="M142,261.38h30.71l90.82-157.3A27.86,27.86,0,0,0,244.1,84.6Z"/>
    </g>
    <path class="green-16" d="M202,45.74c0,16.09-23.85,23.47-52.08,23.47S97.84,61.83,97.84,45.74c0-.25,0-.49,0-.74l-9.26,0c0,.23,0,.45,0,.68,0,18.49,29.27,29.5,61.35,29.5s61.34-11,61.34-29.5c0-.23,0-.45,0-.68L202,45C202,45.25,202,45.49,202,45.74Z"/>
    <path class="green-16" d="M290.19,56.62,253,94.43l4.28,4.21,36.68-37.27A35.79,35.79,0,0,0,290.19,56.62Z"/>
    <path class="green-16" d="M5.93,61.37,42.61,98.64l4.28-4.21L9.66,56.62A35.79,35.79,0,0,0,5.93,61.37Z"/>
    <path class="green-17" d="M195.87,45c-4,12.27-20.85,18.21-45.94,18.21S108,57.27,104,45H93.31c4,17.43,27.41,24.21,56.62,24.21S202.57,62.43,206.54,45Z"/>
    <path class="green-17" d="M287.15,53.71,253,88.43l4.28,4.21L291.38,58A36.91,36.91,0,0,0,287.15,53.71Z"/>
    <path class="green-17" d="M8.47,58,42.61,92.64l4.28-4.21L12.7,53.71A36.91,36.91,0,0,0,8.47,58Z"/>
    <path class="green-16" d="M288.39,188.62H275.68a8.06,8.06,0,0,1-8.06-8.06V126.75s0-13.34,14.42-13.34,14.42,13.34,14.42,13.34v53.81A8.06,8.06,0,0,1,288.39,188.62Z"/>
    <path class="green-17" d="M288.39,177.76H275.68a8.06,8.06,0,0,1-8.06-8.06V115.88s0-13.33,14.42-13.33,14.42,13.33,14.42,13.33V169.7A8.06,8.06,0,0,1,288.39,177.76Z"/>
    <circle class="green-18" cx="282.04" cy="134.56" r="9.28"/>
    <circle class="green-16" cx="282.04" cy="158.26" r="9.28"/>
    <rect x="272.99" y="110.33" width="18.09" height="9.81" rx="3.81"/>
    <path class="green-16" d="M24.17,188.62H11.46a8.06,8.06,0,0,1-8.07-8.06V126.75s0-13.34,14.42-13.34,14.42,13.34,14.42,13.34v53.81A8.06,8.06,0,0,1,24.17,188.62Z"/>
    <path class="green-17" d="M24.17,177.76H11.46a8.06,8.06,0,0,1-8.07-8.06V115.88s0-13.33,14.42-13.33,14.42,13.33,14.42,13.33V169.7A8.06,8.06,0,0,1,24.17,177.76Z"/>
    <circle class="green-18" cx="17.81" cy="134.56" r="9.28"/>
    <circle class="green-16" cx="17.81" cy="158.26" r="9.28"/>
    <rect x="8.77" y="110.33" width="18.09" height="9.81" rx="3.81"/>
    <path class="green-19" d="M236.75,98.6a19.84,19.84,0,0,1,19.82,19.82V240.58a19.84,19.84,0,0,1-19.82,19.82H63.1a19.84,19.84,0,0,1-19.82-19.82V118.42A19.84,19.84,0,0,1,63.1,98.6H236.75m0-8H63.1a27.8,27.8,0,0,0-27.81,27.8V240.58a27.8,27.8,0,0,0,27.81,27.8H236.75a27.8,27.8,0,0,0,27.81-27.8V118.42a27.8,27.8,0,0,0-27.81-27.8Z"/>
    <path class="green-20" d="M236.75,91.6a19.84,19.84,0,0,1,19.82,19.82V233.58a19.84,19.84,0,0,1-19.82,19.82H63.1a19.84,19.84,0,0,1-19.82-19.82V111.42A19.84,19.84,0,0,1,63.1,91.6H236.75m0-8H63.1a27.8,27.8,0,0,0-27.81,27.8V233.58a27.8,27.8,0,0,0,27.81,27.8H236.75a27.8,27.8,0,0,0,27.81-27.8V111.42a27.8,27.8,0,0,0-27.81-27.8Z"/>
  </g>

  <g id="yellow-astro" data-name="yellow astro">
    <path class="yellow-1" d="M263.54,345H36.31A36.38,36.38,0,0,1-.07,308.62V259.14h300v49.48A36.38,36.38,0,0,1,263.54,345Z"/>
    <path class="yellow-2" d="M263.54,311.65H36.31A36.38,36.38,0,0,1-.07,275.27V261.38h300v13.89A36.38,36.38,0,0,1,263.54,311.65Z"/>
    <rect class="yellow-3" x="-0.07" y="45" width="300" height="253.39" rx="36.38"/>
    <rect class="yellow-4" x="259.01" y="194.36" width="41.06" height="40.11"/>
    <path class="yellow-5" d="M281.65,227.25h-8.1a7.77,7.77,0,0,1-2.48-.26.85.85,0,0,1-.63-.81v-23.8q0-1.77,10.69-1.77c4.1,0,6.92.39,8.48,1.18a5.8,5.8,0,0,1,3,3.11,8.09,8.09,0,0,1,.37,2.59,7.77,7.77,0,0,1-1,4.33,3.34,3.34,0,0,1-2.13,1.63,5.14,5.14,0,0,1,2.89,1.7c.76.89,1.15,2.39,1.15,4.51a6.55,6.55,0,0,1-2.26,5.48,11.48,11.48,0,0,1-6,2C284.55,227.2,283.21,227.25,281.65,227.25Zm1-15.87c1.69,0,2.54-1,2.54-2.89a3,3,0,0,0-.68-2.15,2,2,0,0,0-1.51-.71h-4v5.75Zm-3.68,10.41h3.68c1.69,0,2.54-1,2.54-2.9a3,3,0,0,0-.68-2.15A2,2,0,0,0,283,216h-4Z"/>
    <rect class="yellow-6" x="35.29" y="83.62" width="229.26" height="177.77" rx="27.8"/>
    <path class="yellow-7" d="M125,222.54s8.46,6.51,24.9,6.51,24.9-6.51,24.9-6.51"/>
    <circle class="yellow-8" cx="219.89" cy="176.4" r="27.55"/>
    <circle class="yellow-8" cx="79.96" cy="176.4" r="27.55"/>
    <circle class="yellow-5" cx="219.89" cy="184.05" r="27.55"/>
    <circle class="yellow-5" cx="79.96" cy="184.05" r="27.55"/>
    <path class="yellow-9" d="M104,180.05a10,10,0,0,1-14.5-13.53,17.85,17.85,0,0,0-2.44-.18A17.37,17.37,0,1,0,104,180.05ZM79.74,195a4.12,4.12,0,1,1,4.13-4.12A4.12,4.12,0,0,1,79.74,195Z"/>
    <path class="yellow-9" d="M229.75,180a10,10,0,0,1-14.41-13.42,17.33,17.33,0,1,0,14.82,17.14A16.9,16.9,0,0,0,229.75,180Zm-24.34,15a4.12,4.12,0,1,1,4.12-4.12A4.11,4.11,0,0,1,205.41,195Z"/>
    <ellipse class="yellow-10" cx="207.86" cy="142.15" rx="23.6" ry="13.68" transform="translate(-40.49 100.51) rotate(-24.85)"/>
    <ellipse class="yellow-10" cx="92.14" cy="142.15" rx="13.68" ry="23.6" transform="translate(-75.57 166.02) rotate(-65.15)"/>
    <ellipse class="yellow-11" cx="178.48" cy="227.86" rx="17.21" ry="10.75"/>
    <path class="yellow-12" d="M178.3,227.05s72.79,13,83.21-39.11"/>
    <g class="yellow-13">
      <rect class="yellow-14" x="35.29" y="83.62" width="229.26" height="177.77" rx="27.8"/>
      <polygon class="yellow-15" points="114.77 261.38 126.95 261.38 229.59 83.61 217.4 83.61 114.77 261.38"/>
      <path class="yellow-15" d="M142,261.38h30.71l90.82-157.3A27.86,27.86,0,0,0,244.1,84.6Z"/>
    </g>
    <path class="yellow-16" d="M202,45.74c0,16.09-23.85,23.47-52.08,23.47S97.84,61.83,97.84,45.74c0-.25,0-.49,0-.74l-9.26,0c0,.23,0,.45,0,.68,0,18.49,29.27,29.5,61.35,29.5s61.34-11,61.34-29.5c0-.23,0-.45,0-.68L202,45C202,45.25,202,45.49,202,45.74Z"/>
    <path class="yellow-16" d="M290.19,56.62,253,94.43l4.28,4.21,36.68-37.27A35.79,35.79,0,0,0,290.19,56.62Z"/>
    <path class="yellow-16" d="M5.93,61.37,42.61,98.64l4.28-4.21L9.66,56.62A35.79,35.79,0,0,0,5.93,61.37Z"/>
    <path class="yellow-17" d="M195.87,45c-4,12.27-20.85,18.21-45.94,18.21S108,57.27,104,45H93.31c4,17.43,27.41,24.21,56.62,24.21S202.57,62.43,206.54,45Z"/>
    <path class="yellow-17" d="M287.15,53.71,253,88.43l4.28,4.21L291.38,58A36.91,36.91,0,0,0,287.15,53.71Z"/>
    <path class="yellow-17" d="M8.47,58,42.61,92.64l4.28-4.21L12.7,53.71A36.91,36.91,0,0,0,8.47,58Z"/>
    <path class="yellow-16" d="M288.39,188.62H275.68a8.06,8.06,0,0,1-8.06-8.06V126.75s0-13.34,14.42-13.34,14.42,13.34,14.42,13.34v53.81A8.06,8.06,0,0,1,288.39,188.62Z"/>
    <path class="yellow-17" d="M288.39,177.76H275.68a8.06,8.06,0,0,1-8.06-8.06V115.88s0-13.33,14.42-13.33,14.42,13.33,14.42,13.33V169.7A8.06,8.06,0,0,1,288.39,177.76Z"/>
    <circle class="yellow-18" cx="282.04" cy="134.56" r="9.28"/>
    <circle class="yellow-16" cx="282.04" cy="158.26" r="9.28"/>
    <rect class="yellow-19" x="272.99" y="110.33" width="18.09" height="9.81" rx="3.81"/>
    <path class="yellow-16" d="M24.17,188.62H11.46a8.06,8.06,0,0,1-8.07-8.06V126.75s0-13.34,14.42-13.34,14.42,13.34,14.42,13.34v53.81A8.06,8.06,0,0,1,24.17,188.62Z"/>
    <path class="yellow-17" d="M24.17,177.76H11.46a8.06,8.06,0,0,1-8.07-8.06V115.88s0-13.33,14.42-13.33,14.42,13.33,14.42,13.33V169.7A8.06,8.06,0,0,1,24.17,177.76Z"/>
    <circle class="yellow-18" cx="17.81" cy="134.56" r="9.28"/>
    <circle class="yellow-16" cx="17.81" cy="158.26" r="9.28"/>
    <rect class="yellow-19" x="8.77" y="110.33" width="18.09" height="9.81" rx="3.81"/>
    <path class="yellow-20" d="M236.75,98.6a19.84,19.84,0,0,1,19.82,19.82V240.58a19.84,19.84,0,0,1-19.82,19.82H63.1a19.84,19.84,0,0,1-19.82-19.82V118.42A19.84,19.84,0,0,1,63.1,98.6H236.75m0-8H63.1a27.8,27.8,0,0,0-27.81,27.8V240.58a27.8,27.8,0,0,0,27.81,27.8H236.75a27.8,27.8,0,0,0,27.81-27.8V118.42a27.8,27.8,0,0,0-27.81-27.8Z"/>
    <path class="yellow-21" d="M236.75,91.6a19.84,19.84,0,0,1,19.82,19.82V233.58a19.84,19.84,0,0,1-19.82,19.82H63.1a19.84,19.84,0,0,1-19.82-19.82V111.42A19.84,19.84,0,0,1,63.1,91.6H236.75m0-8H63.1a27.8,27.8,0,0,0-27.81,27.8V233.58a27.8,27.8,0,0,0,27.81,27.8H236.75a27.8,27.8,0,0,0,27.81-27.8V111.42a27.8,27.8,0,0,0-27.81-27.8Z"/>
  </g>

  <g id="orange-astro" data-name="orange astro">
    <path class="orange-1" d="M263.54,345H36.31A36.38,36.38,0,0,1-.07,308.62V259.14h300v49.48A36.38,36.38,0,0,1,263.54,345Z"/>
    <path class="orange-2" d="M263.54,311.65H36.31A36.38,36.38,0,0,1-.07,275.27V261.38h300v13.89A36.38,36.38,0,0,1,263.54,311.65Z"/>
    <rect class="orange-3" x="-0.07" y="45" width="300" height="253.39" rx="36.38"/>
    <rect class="orange-4" x="259.01" y="194.36" width="41.06" height="40.11"/>
    <path class="orange-5" d="M281.65,227.25h-8.1a7.77,7.77,0,0,1-2.48-.26.85.85,0,0,1-.63-.81v-23.8q0-1.77,10.69-1.77c4.1,0,6.92.39,8.48,1.18a5.8,5.8,0,0,1,3,3.11,8.09,8.09,0,0,1,.37,2.59,7.77,7.77,0,0,1-1,4.33,3.34,3.34,0,0,1-2.13,1.63,5.14,5.14,0,0,1,2.89,1.7c.76.89,1.15,2.39,1.15,4.51a6.55,6.55,0,0,1-2.26,5.48,11.48,11.48,0,0,1-6,2C284.55,227.2,283.21,227.25,281.65,227.25Zm1-15.87c1.69,0,2.54-1,2.54-2.89a3,3,0,0,0-.68-2.15,2,2,0,0,0-1.51-.71h-4v5.75Zm-3.68,10.41h3.68c1.69,0,2.54-1,2.54-2.9a3,3,0,0,0-.68-2.15A2,2,0,0,0,283,216h-4Z"/>
    <rect class="orange-6" x="35.29" y="83.62" width="229.26" height="177.77" rx="27.8"/>
    <path class="orange-7" d="M125,222.54s8.46,6.51,24.9,6.51,24.9-6.51,24.9-6.51"/>
    <circle class="orange-8" cx="219.89" cy="176.4" r="27.55"/>
    <circle class="orange-8" cx="79.96" cy="176.4" r="27.55"/>
    <circle class="orange-5" cx="219.89" cy="184.05" r="27.55"/>
    <circle class="orange-5" cx="79.96" cy="184.05" r="27.55"/>
    <path class="orange-9" d="M104,180.05a10,10,0,0,1-14.5-13.53,17.85,17.85,0,0,0-2.44-.18A17.37,17.37,0,1,0,104,180.05ZM79.74,195a4.12,4.12,0,1,1,4.13-4.12A4.12,4.12,0,0,1,79.74,195Z"/>
    <path class="orange-9" d="M229.75,180a10,10,0,0,1-14.41-13.42,17.33,17.33,0,1,0,14.82,17.14A16.9,16.9,0,0,0,229.75,180Zm-24.34,15a4.12,4.12,0,1,1,4.12-4.12A4.11,4.11,0,0,1,205.41,195Z"/>
    <ellipse class="orange-10" cx="207.86" cy="142.15" rx="23.6" ry="13.68" transform="translate(-40.49 100.51) rotate(-24.85)"/>
    <ellipse class="orange-10" cx="92.14" cy="142.15" rx="13.68" ry="23.6" transform="translate(-75.57 166.02) rotate(-65.15)"/>
    <ellipse class="orange-11" cx="178.48" cy="227.86" rx="17.21" ry="10.75"/>
    <path class="orange-12" d="M178.3,227.05s72.79,13,83.21-39.11"/>
    <g class="orange-13">
      <rect class="orange-14" x="35.29" y="83.62" width="229.26" height="177.77" rx="27.8"/>
      <polygon class="orange-15" points="114.77 261.38 126.95 261.38 229.59 83.61 217.4 83.61 114.77 261.38"/>
      <path class="orange-15" d="M142,261.38h30.71l90.82-157.3A27.86,27.86,0,0,0,244.1,84.6Z"/>
    </g>
    <path class="orange-16" d="M202,45.74c0,16.09-23.85,23.47-52.08,23.47S97.84,61.83,97.84,45.74c0-.25,0-.49,0-.74l-9.26,0c0,.23,0,.45,0,.68,0,18.49,29.27,29.5,61.35,29.5s61.34-11,61.34-29.5c0-.23,0-.45,0-.68L202,45C202,45.25,202,45.49,202,45.74Z"/>
    <path class="orange-16" d="M290.19,56.62,253,94.43l4.28,4.21,36.68-37.27A35.79,35.79,0,0,0,290.19,56.62Z"/>
    <path class="orange-16" d="M5.93,61.37,42.61,98.64l4.28-4.21L9.66,56.62A35.79,35.79,0,0,0,5.93,61.37Z"/>
    <path class="orange-17" d="M195.87,45c-4,12.27-20.85,18.21-45.94,18.21S108,57.27,104,45H93.31c4,17.43,27.41,24.21,56.62,24.21S202.57,62.43,206.54,45Z"/>
    <path class="orange-17" d="M287.15,53.71,253,88.43l4.28,4.21L291.38,58A36.91,36.91,0,0,0,287.15,53.71Z"/>
    <path class="orange-17" d="M8.47,58,42.61,92.64l4.28-4.21L12.7,53.71A36.91,36.91,0,0,0,8.47,58Z"/>
    <path class="orange-16" d="M288.39,188.62H275.68a8.06,8.06,0,0,1-8.06-8.06V126.75s0-13.34,14.42-13.34,14.42,13.34,14.42,13.34v53.81A8.06,8.06,0,0,1,288.39,188.62Z"/>
    <path class="orange-17" d="M288.39,177.76H275.68a8.06,8.06,0,0,1-8.06-8.06V115.88s0-13.33,14.42-13.33,14.42,13.33,14.42,13.33V169.7A8.06,8.06,0,0,1,288.39,177.76Z"/>
    <circle class="orange-18" cx="282.04" cy="134.56" r="9.28"/>
    <circle class="orange-16" cx="282.04" cy="158.26" r="9.28"/>
    <rect class="orange-19" x="272.99" y="110.33" width="18.09" height="9.81" rx="3.81"/>
    <path class="orange-16" d="M24.17,188.62H11.46a8.06,8.06,0,0,1-8.07-8.06V126.75s0-13.34,14.42-13.34,14.42,13.34,14.42,13.34v53.81A8.06,8.06,0,0,1,24.17,188.62Z"/>
    <path class="orange-17" d="M24.17,177.76H11.46a8.06,8.06,0,0,1-8.07-8.06V115.88s0-13.33,14.42-13.33,14.42,13.33,14.42,13.33V169.7A8.06,8.06,0,0,1,24.17,177.76Z"/>
    <circle class="orange-18" cx="17.81" cy="134.56" r="9.28"/>
    <circle class="orange-16" cx="17.81" cy="158.26" r="9.28"/>
    <rect class="orange-19" x="8.77" y="110.33" width="18.09" height="9.81" rx="3.81"/>
    <path class="orange-20" d="M236.75,98.6a19.84,19.84,0,0,1,19.82,19.82V240.58a19.84,19.84,0,0,1-19.82,19.82H63.1a19.84,19.84,0,0,1-19.82-19.82V118.42A19.84,19.84,0,0,1,63.1,98.6H236.75m0-8H63.1a27.8,27.8,0,0,0-27.81,27.8V240.58a27.8,27.8,0,0,0,27.81,27.8H236.75a27.8,27.8,0,0,0,27.81-27.8V118.42a27.8,27.8,0,0,0-27.81-27.8Z"/>
    <path class="orange-21" d="M236.75,91.6a19.84,19.84,0,0,1,19.82,19.82V233.58a19.84,19.84,0,0,1-19.82,19.82H63.1a19.84,19.84,0,0,1-19.82-19.82V111.42A19.84,19.84,0,0,1,63.1,91.6H236.75m0-8H63.1a27.8,27.8,0,0,0-27.81,27.8V233.58a27.8,27.8,0,0,0,27.81,27.8H236.75a27.8,27.8,0,0,0,27.81-27.8V111.42a27.8,27.8,0,0,0-27.81-27.8Z"/>
  </g>

  <g id="red-astro" data-name="red astro">
    <path class="red-1" d="M263.54,345H36.31A36.38,36.38,0,0,1-.07,308.62V259.14h300v49.48A36.38,36.38,0,0,1,263.54,345Z"/>
    <path class="red-2" d="M263.54,311.65H36.31A36.38,36.38,0,0,1-.07,275.27V261.38h300v13.89A36.38,36.38,0,0,1,263.54,311.65Z"/>
    <rect class="red-3" x="-0.07" y="45" width="300" height="253.39" rx="36.38"/>
    <rect class="red-4" x="259.01" y="194.36" width="41.06" height="40.11"/>
    <path class="red-5" d="M281.65,227.25h-8.1a7.77,7.77,0,0,1-2.48-.26.85.85,0,0,1-.63-.81v-23.8q0-1.77,10.69-1.77c4.1,0,6.92.39,8.48,1.18a5.8,5.8,0,0,1,3,3.11,8.09,8.09,0,0,1,.37,2.59,7.77,7.77,0,0,1-1,4.33,3.34,3.34,0,0,1-2.13,1.63,5.14,5.14,0,0,1,2.89,1.7c.76.89,1.15,2.39,1.15,4.51a6.55,6.55,0,0,1-2.26,5.48,11.48,11.48,0,0,1-6,2C284.55,227.2,283.21,227.25,281.65,227.25Zm1-15.87c1.69,0,2.54-1,2.54-2.89a3,3,0,0,0-.68-2.15,2,2,0,0,0-1.51-.71h-4v5.75Zm-3.68,10.41h3.68c1.69,0,2.54-1,2.54-2.9a3,3,0,0,0-.68-2.15A2,2,0,0,0,283,216h-4Z"/>
    <rect class="red-6" x="35.29" y="83.62" width="229.26" height="177.77" rx="27.8"/>
    <path class="red-7" d="M125,222.54s8.46,6.51,24.9,6.51,24.9-6.51,24.9-6.51"/>
    <circle class="red-8" cx="219.89" cy="176.4" r="27.55"/>
    <circle class="red-8" cx="79.96" cy="176.4" r="27.55"/>
    <circle class="red-5" cx="219.89" cy="184.05" r="27.55"/>
    <circle class="red-5" cx="79.96" cy="184.05" r="27.55"/>
    <path class="red-9" d="M104,180.05a10,10,0,0,1-14.5-13.53,17.85,17.85,0,0,0-2.44-.18A17.37,17.37,0,1,0,104,180.05ZM79.74,195a4.12,4.12,0,1,1,4.13-4.12A4.12,4.12,0,0,1,79.74,195Z"/>
    <path class="red-9" d="M229.75,180a10,10,0,0,1-14.41-13.42,17.33,17.33,0,1,0,14.82,17.14A16.9,16.9,0,0,0,229.75,180Zm-24.34,15a4.12,4.12,0,1,1,4.12-4.12A4.11,4.11,0,0,1,205.41,195Z"/>
    <ellipse class="red-10" cx="207.86" cy="142.15" rx="23.6" ry="13.68" transform="translate(-40.49 100.51) rotate(-24.85)"/>
    <ellipse class="red-10" cx="92.14" cy="142.15" rx="13.68" ry="23.6" transform="translate(-75.57 166.02) rotate(-65.15)"/>
    <ellipse class="red-11" cx="178.48" cy="227.86" rx="17.21" ry="10.75"/>
    <path class="red-12" d="M178.3,227.05s72.79,13,83.21-39.11"/>
    <g class="red-13">
      <rect class="red-14" x="35.29" y="83.62" width="229.26" height="177.77" rx="27.8"/>
      <polygon class="red-15" points="114.77 261.38 126.95 261.38 229.59 83.61 217.4 83.61 114.77 261.38"/>
      <path class="red-15" d="M142,261.38h30.71l90.82-157.3A27.86,27.86,0,0,0,244.1,84.6Z"/>
    </g>
    <path class="red-16" d="M202,45.74c0,16.09-23.85,23.47-52.08,23.47S97.84,61.83,97.84,45.74c0-.25,0-.49,0-.74l-9.26,0c0,.23,0,.45,0,.68,0,18.49,29.27,29.5,61.35,29.5s61.34-11,61.34-29.5c0-.23,0-.45,0-.68L202,45C202,45.25,202,45.49,202,45.74Z"/>
    <path class="red-16" d="M290.19,56.62,253,94.43l4.28,4.21,36.68-37.27A35.79,35.79,0,0,0,290.19,56.62Z"/>
    <path class="red-16" d="M5.93,61.37,42.61,98.64l4.28-4.21L9.66,56.62A35.79,35.79,0,0,0,5.93,61.37Z"/>
    <path class="red-17" d="M195.87,45c-4,12.27-20.85,18.21-45.94,18.21S108,57.27,104,45H93.31c4,17.43,27.41,24.21,56.62,24.21S202.57,62.43,206.54,45Z"/>
    <path class="red-17" d="M287.15,53.71,253,88.43l4.28,4.21L291.38,58A36.91,36.91,0,0,0,287.15,53.71Z"/>
    <path class="red-17" d="M8.47,58,42.61,92.64l4.28-4.21L12.7,53.71A36.91,36.91,0,0,0,8.47,58Z"/>
    <path class="red-18" d="M236.75,98.6a19.84,19.84,0,0,1,19.82,19.82V240.58a19.84,19.84,0,0,1-19.82,19.82H63.1a19.84,19.84,0,0,1-19.82-19.82V118.42A19.84,19.84,0,0,1,63.1,98.6H236.75m0-8H63.1a27.8,27.8,0,0,0-27.81,27.8V240.58a27.8,27.8,0,0,0,27.81,27.8H236.75a27.8,27.8,0,0,0,27.81-27.8V118.42a27.8,27.8,0,0,0-27.81-27.8Z"/>
    <path class="red-19" d="M236.75,91.6a19.84,19.84,0,0,1,19.82,19.82V233.58a19.84,19.84,0,0,1-19.82,19.82H63.1a19.84,19.84,0,0,1-19.82-19.82V111.42A19.84,19.84,0,0,1,63.1,91.6H236.75m0-8H63.1a27.8,27.8,0,0,0-27.81,27.8V233.58a27.8,27.8,0,0,0,27.81,27.8H236.75a27.8,27.8,0,0,0,27.81-27.8V111.42a27.8,27.8,0,0,0-27.81-27.8Z"/>
    <path class="red-16" d="M288.39,188.62H275.68a8.06,8.06,0,0,1-8.06-8.06V126.75s0-13.34,14.42-13.34,14.42,13.34,14.42,13.34v53.81A8.06,8.06,0,0,1,288.39,188.62Z"/>
    <path class="red-17" d="M288.39,177.76H275.68a8.06,8.06,0,0,1-8.06-8.06V115.88s0-13.33,14.42-13.33,14.42,13.33,14.42,13.33V169.7A8.06,8.06,0,0,1,288.39,177.76Z"/>
    <circle class="red-20" cx="282.04" cy="134.56" r="9.28"/>
    <circle class="red-16" cx="282.04" cy="158.26" r="9.28"/>
    <rect class="red-21" x="272.99" y="110.33" width="18.09" height="9.81" rx="3.81"/>
    <path class="red-16" d="M24.17,188.62H11.46a8.06,8.06,0,0,1-8.07-8.06V126.75s0-13.34,14.42-13.34,14.42,13.34,14.42,13.34v53.81A8.06,8.06,0,0,1,24.17,188.62Z"/>
    <path class="red-17" d="M24.17,177.76H11.46a8.06,8.06,0,0,1-8.07-8.06V115.88s0-13.33,14.42-13.33,14.42,13.33,14.42,13.33V169.7A8.06,8.06,0,0,1,24.17,177.76Z"/>
    <circle class="red-20" cx="17.81" cy="134.56" r="9.28"/>
    <circle class="red-16" cx="17.81" cy="158.26" r="9.28"/>
    <rect class="red-21" x="8.77" y="110.33" width="18.09" height="9.81" rx="3.81"/>
  </g>

  <style>
    #red-astro {
      animation: red-astro 4s linear infinite;
    }
    @keyframes red-astro {
      0% { opacity: 1; }
      8.33% { opacity: 0; }
      16.67% { opacity: 0; }
      25% { opacity: 0; }
      33.33% { opacity: 0; }
      41.67% { opacity: 0; }
      50% { opacity: 0; }
      58.33% { opacity: 0; }
      66.67% { opacity: 0; }
      75% { opacity: 0; }
      83.33% { opacity: 0; }
      91.67% { opacity: 0; }
      100% { opacity: 1; }
    }
    #orange-astro {
      animation: orange-astro 4s linear infinite;
    }
    @keyframes orange-astro {
      0% { opacity: 1; }
      8.33% { opacity: 1; }
      16.67% { opacity: 0; }
      25% { opacity: 0; }
      33.33% { opacity: 0; }
      41.67% { opacity: 0; }
      50% { opacity: 0; }
      58.33% { opacity: 0; }
      66.67% { opacity: 0; }
      75% { opacity: 0; }
      83.33% { opacity: 0; }
      91.67% { opacity: 1; }
      100% { opacity: 1; }
    }
    #yellow-astro {
      animation: yellow-astro 4s linear infinite;
    }
    @keyframes yellow-astro {
      0% { opacity: 1; }
      8.33% { opacity: 1; }
      16.67% { opacity: 1; }
      25% { opacity: 0; }
      33.33% { opacity: 0; }
      41.67% { opacity: 0; }
      50% { opacity: 0; }
      58.33% { opacity: 0; }
      66.67% { opacity: 0; }
      75% { opacity: 0; }
      83.33% { opacity: 1; }
      91.67% { opacity: 1; }
      100% { opacity: 1; }
    }
    #green-astro {
      animation: green-astro 4s linear infinite;
    }
    @keyframes green-astro {
      0% { opacity: 1; }
      8.33% { opacity: 1; }
      16.67% { opacity: 1; }
      25% { opacity: 1; }
      33.33% { opacity: 0; }
      41.67% { opacity: 0; }
      50% { opacity: 0; }
      58.33% { opacity: 0; }
      66.67% { opacity: 0; }
      75% { opacity: 1; }
      83.33% { opacity: 1; }
      91.67% { opacity: 1; }
      100% { opacity: 1; }
    }
    #blue-astro {
      animation: blue-astro 4s linear infinite;
    }
    @keyframes blue-astro {
      0% { opacity: 1; }
      8.33% { opacity: 1; }
      16.67% { opacity: 1; }
      25% { opacity: 1; }
      33.33% { opacity: 1; }
      41.67% { opacity: 0; }
      50% { opacity: 0; }
      58.33% { opacity: 0; }
      66.67% { opacity: 1; }
      75% { opacity: 1; }
      83.33% { opacity: 1; }
      91.67% { opacity: 1; }
      100% { opacity: 1; }
    }
    #purple-astro {
      animation: purple-astro 4s linear infinite;
    }
    @keyframes purple-astro {
      0% { opacity: 1; }
      8.33% { opacity: 1; }
      16.67% { opacity: 1; }
      25% { opacity: 1; }
      33.33% { opacity: 1; }
      41.67% { opacity: 1; }
      50% { opacity: 0; }
      58.33% { opacity: 1; }
      66.67% { opacity: 1; }
      75% { opacity: 1; }
      83.33% { opacity: 1; }
      91.67% { opacity: 1; }
      100% { opacity: 1; }
    }
  </style>
</svg>
