<?xml version="1.0" encoding="UTF-8" standalone="no"?>
<svg
   id="Layer_1"
   data-name="Layer 1"
   viewBox="0 0 300 345"
   version="1.1"
   sodipodi:docname="redGhost.svg"
   inkscape:version="1.2 (dc2aedaf03, 2022-05-15)"
   xml:space="preserve"
   xmlns:inkscape="http://www.inkscape.org/namespaces/inkscape"
   xmlns:sodipodi="http://sodipodi.sourceforge.net/DTD/sodipodi-0.dtd"
   xmlns:xlink="http://www.w3.org/1999/xlink"
   xmlns="http://www.w3.org/2000/svg"
   xmlns:svg="http://www.w3.org/2000/svg"><sodipodi:namedview
     id="namedview4496"
     pagecolor="#505050"
     bordercolor="#ffffff"
     borderopacity="1"
     inkscape:showpageshadow="0"
     inkscape:pageopacity="0"
     inkscape:pagecheckerboard="1"
     inkscape:deskcolor="#505050"
     showgrid="false"
     inkscape:zoom="0.87885424"
     inkscape:cx="-95.010067"
     inkscape:cy="131.99003"
     inkscape:window-width="1366"
     inkscape:window-height="705"
     inkscape:window-x="-8"
     inkscape:window-y="-8"
     inkscape:window-maximized="1"
     inkscape:current-layer="Layer_1" /><defs
     id="defs4470"><style
       id="style4445">.cls-1{fill:url(#linear-gradient);}.cls-2{fill:#c2def4;}.cls-3{fill:url(#radial-gradient);}.cls-4{fill:url(#radial-gradient-2);}.cls-5{fill:#80aecf;}.cls-6{fill:#15141a;}</style><linearGradient
       id="linear-gradient"
       x1="150"
       y1="355.75"
       x2="150"
       y2="167.11"
       gradientUnits="userSpaceOnUse"><stop
         offset="0"
         stop-color="#dae6f5"
         id="stop4447"
         style="stop-color:#d62728;stop-opacity:1;" /><stop
         offset="0.69"
         stop-color="#73a0d5"
         id="stop4449"
         style="stop-color:#193d3d;stop-opacity:1;" /></linearGradient><radialGradient
       id="radial-gradient"
       cx="257.54"
       cy="187.7"
       r="37.58"
       gradientUnits="userSpaceOnUse"><stop
         offset="0"
         stop-color="#f493aa"
         id="stop4452" /><stop
         offset="0.09"
         stop-color="#f395ac"
         stop-opacity="0.97"
         id="stop4454" /><stop
         offset="0.22"
         stop-color="#f19cb2"
         stop-opacity="0.89"
         id="stop4456" /><stop
         offset="0.38"
         stop-color="#eea7bc"
         stop-opacity="0.76"
         id="stop4458" /><stop
         offset="0.56"
         stop-color="#e9b7ca"
         stop-opacity="0.57"
         id="stop4460" /><stop
         offset="0.76"
         stop-color="#e3cadc"
         stop-opacity="0.33"
         id="stop4462" /><stop
         offset="0.97"
         stop-color="#dbe2f1"
         stop-opacity="0.05"
         id="stop4464" /><stop
         offset="1"
         stop-color="#dae6f5"
         stop-opacity="0"
         id="stop4466" /></radialGradient><radialGradient
       id="radial-gradient-2"
       cx="42.46"
       cy="187.7"
       r="37.58"
       xlink:href="#radial-gradient" /><linearGradient
       gradientUnits="userSpaceOnUse"
       id="A"
       x1="150"
       y1="356.11"
       x2="150"
       y2="161.16"
       gradientTransform="translate(-445.83973,-73.250573)"><stop
         style="stop-color:#d62728;stop-opacity:1"
         id="stop832"
         offset="0"
         stop-color="#0bc2cf" /><stop
         style="stop-color:#193d3d;stop-opacity:1"
         id="stop834"
         offset="1"
         stop-color="#0b4fac" /></linearGradient></defs><path
     class="cls-1"
     d="m 250.77,341.43 -10,-5 c -19.29,-9.53 -41.81,-6.18 -61.53,2.43 v 0 a 73,73 0 0 1 -58.42,0 v 0 c -19.72,-8.61 -42.24,-12 -61.53,-2.43 l -10,5 C 27.34,352.24 1,337.29 0,312.9 q 0,-0.75 0,-1.5 v -49.48 h 300 v 49.48 q 0,0.75 0,1.5 c -1,24.39 -27.34,39.34 -49.23,28.53 z"
     id="path4472"
     style="fill:url(#linear-gradient)" /><path
     class="cls-2"
     d="M 263.62,45 H 36.38 A 36.38,36.38 0 0 0 0,81.38 v 183.41 q 0,0.75 0,1.5 c 1,24.39 27.31,39.35 49.2,28.53 l 10,-5 c 19.29,-9.53 41.81,-6.18 61.53,2.43 v 0 a 72.93,72.93 0 0 0 58.42,0 v 0 c 19.72,-8.61 42.24,-12 61.53,-2.43 l 10,5 c 21.89,10.82 48.21,-4.14 49.2,-28.53 q 0,-0.75 0,-1.5 V 81.38 A 36.38,36.38 0 0 0 263.62,45 Z"
     id="path4474"
     style="fill:#d62728;fill-opacity:1" /></svg>
