<?xml version="1.0" encoding="UTF-8" standalone="no"?>
<svg
   viewBox="0 0 300 345"
   version="1.1"
   id="svg13694"
   sodipodi:docname="gummyBear.svg"
   xml:space="preserve"
   inkscape:version="1.2 (dc2aedaf03, 2022-05-15)"
   xmlns:inkscape="http://www.inkscape.org/namespaces/inkscape"
   xmlns:sodipodi="http://sodipodi.sourceforge.net/DTD/sodipodi-0.dtd"
   xmlns:xlink="http://www.w3.org/1999/xlink"
   xmlns="http://www.w3.org/2000/svg"
   xmlns:svg="http://www.w3.org/2000/svg"><sodipodi:namedview
     id="namedview13696"
     pagecolor="#505050"
     bordercolor="#ffffff"
     borderopacity="1"
     inkscape:showpageshadow="0"
     inkscape:pageopacity="0"
     inkscape:pagecheckerboard="1"
     inkscape:deskcolor="#505050"
     showgrid="false"
     inkscape:zoom="1.0076756"
     inkscape:cx="-71.947758"
     inkscape:cy="145.88028"
     inkscape:window-width="1366"
     inkscape:window-height="705"
     inkscape:window-x="-8"
     inkscape:window-y="-8"
     inkscape:window-maximized="1"
     inkscape:current-layer="svg13694" /><defs
     id="defs13654"><linearGradient
       inkscape:collect="always"
       id="linearGradient32667"><stop
         style="stop-color:#dc2b38;stop-opacity:1;"
         offset="0"
         id="stop32663" /><stop
         style="stop-color:#dc2b38;stop-opacity:0;"
         offset="1"
         id="stop32665" /></linearGradient><linearGradient
       inkscape:collect="always"
       id="linearGradient32583"><stop
         style="stop-color:#fe8892;stop-opacity:0;"
         offset="0"
         id="stop32581" /><stop
         style="stop-color:#fe8892;stop-opacity:1;"
         offset="1"
         id="stop32579" /></linearGradient><inkscape:path-effect
       effect="fillet_chamfer"
       id="path-effect28554"
       is_visible="true"
       lpeversion="1"
       nodesatellites_param="F,0,0,1,0,8.6624125,0,1 @ F,0,0,1,0,0,0,1 @ F,0,0,1,0,11.474288,0,1 @ F,0,0,1,0,0,0,1 | F,0,0,1,0,12.22516,0,1 @ F,0,0,1,0,0,0,1 @ F,0,0,1,0,15.186689,0,1 @ F,0,0,1,0,0,0,1"
       unit="px"
       method="auto"
       mode="F"
       radius="0"
       chamfer_steps="1"
       flexible="false"
       use_knot_distance="true"
       apply_no_radius="true"
       apply_with_radius="true"
       only_selected="false"
       hide_knots="false" /><inkscape:path-effect
       effect="fillet_chamfer"
       id="path-effect28478"
       is_visible="true"
       lpeversion="1"
       nodesatellites_param="F,0,0,1,0,0,0,1 @ F,0,0,1,0,20.311232,0,1 @ F,0,0,1,0,22.376809,0,1 | F,0,0,1,0,0,0,1 @ F,0,0,1,0,19.488717,0,1 @ F,0,0,1,0,30.533224,0,1"
       unit="px"
       method="auto"
       mode="F"
       radius="0"
       chamfer_steps="1"
       flexible="false"
       use_knot_distance="true"
       apply_no_radius="true"
       apply_with_radius="true"
       only_selected="false"
       hide_knots="false" /><inkscape:path-effect
       effect="mirror_symmetry"
       start_point="276.54862,192.53073"
       end_point="276.54862,234.45528"
       center_point="276.54862,213.49301"
       id="path-effect27215"
       is_visible="true"
       lpeversion="1.2"
       lpesatellites=""
       mode="vertical"
       discard_orig_path="false"
       fuse_paths="false"
       oposite_fuse="false"
       split_items="true"
       split_open="false"
       link_styles="false" /><inkscape:path-effect
       effect="fillet_chamfer"
       id="path-effect27213"
       is_visible="true"
       lpeversion="1"
       nodesatellites_param="F,0,0,1,0,19.060989,0,1 @ F,0,0,1,0,0,0,1 @ F,0,0,1,0,18.905499,0,1 @ F,0,0,1,0,0,0,1"
       unit="px"
       method="auto"
       mode="F"
       radius="0"
       chamfer_steps="1"
       flexible="false"
       use_knot_distance="true"
       apply_no_radius="true"
       apply_with_radius="true"
       only_selected="false"
       hide_knots="false" /><linearGradient
       id="A"
       x1="150"
       y1="356.11"
       x2="150"
       y2="161.16"
       gradientUnits="userSpaceOnUse"><stop
         offset="0"
         stop-color="#995b3c"
         id="stop13649"
         style="stop-color:#d81523;stop-opacity:1;" /><stop
         offset="0.69"
         stop-color="#51291b"
         id="stop13651"
         style="stop-color:#7c0023;stop-opacity:1;" /></linearGradient><linearGradient
       inkscape:collect="always"
       xlink:href="#linearGradient32583"
       id="linearGradient32585"
       x1="150"
       y1="259.14001"
       x2="150"
       y2="345"
       gradientUnits="userSpaceOnUse"
       gradientTransform="matrix(0.91603133,0,0,0.35004156,12.5953,216.77737)" /><linearGradient
       inkscape:collect="always"
       xlink:href="#linearGradient32667"
       id="linearGradient32669"
       x1="147.51077"
       y1="173.73105"
       x2="151.7626"
       y2="308.83487"
       gradientUnits="userSpaceOnUse" /></defs><path
     d="M263.62,345H36.38A36.38,36.38,0,0,1,0,308.62V259.14H300v49.48A36.38,36.38,0,0,1,263.62,345Z"
     fill="url(#A)"
     id="path13656" /><rect
     y="45"
     width="300"
     height="253.39"
     rx="36.38"
     fill="#995b3c"
     id="rect13658"
     style="fill:#d81523;fill-opacity:1" /><rect
     y="54.163689"
     width="278.30139"
     height="235.06262"
     rx="33.74868"
     fill="#995b3c"
     id="rect25678"
     style="fill:#f0979d;fill-opacity:0.172414;stroke-width:0.927671"
     x="10.849312" /><g
     fill="#4c281b"
     id="g13668"
     style="fill:#8c0510;fill-opacity:1;opacity:1"><circle
       cx="242.58"
       cy="189.94"
       r="36.45"
       id="circle13664"
       style="fill:#8c0510;fill-opacity:1" /><circle
       cx="57.42"
       cy="189.94"
       r="36.45"
       id="circle13666"
       style="fill:#8c0510;fill-opacity:1" /></g><circle
     cx="242.58"
     cy="200.06"
     r="36.450001"
     id="circle13670"
     style="fill:#b30715;fill-opacity:1" /><circle
     cx="57.419998"
     cy="200.06"
     r="36.450001"
     id="circle13672"
     style="fill:#b30715;fill-opacity:1" /><g
     fill="#c68366"
     id="g25824"
     style="fill:#d81523;fill-opacity:1"
     transform="translate(0,4)"><ellipse
       cx="76.389999"
       cy="137.25"
       rx="12.66"
       ry="18.85"
       transform="rotate(-76.470032,76.380149,137.24966)"
       id="ellipse25820"
       style="fill:#d81523;fill-opacity:1" /><ellipse
       cx="223.61"
       cy="137.25"
       rx="18.85"
       ry="12.66"
       transform="rotate(-13.529968,223.67718,137.28121)"
       id="ellipse25822"
       style="fill:#d81523;fill-opacity:1" /></g><g
     fill="#c68366"
     id="g13684"
     style="fill:#fd545a;fill-opacity:1"><ellipse
       cx="76.39"
       cy="137.25"
       rx="12.66"
       ry="18.85"
       transform="matrix(.233954 -.972248 .972248 .233954 -74.93 179.4)"
       id="ellipse13680"
       style="fill:#fd545a;fill-opacity:1" /><ellipse
       cx="223.61"
       cy="137.25"
       rx="18.85"
       ry="12.66"
       transform="matrix(.972248 -.233954 .233954 .972248 -25.91 56.14)"
       id="ellipse13682"
       style="fill:#fd545a;fill-opacity:1" /></g><path
     id="circle13686"
     style="fill:#d81523;fill-opacity:1"
     d="M 62.759766 0 A 40.080002 40.080002 0 0 0 22.679688 40.080078 A 40.080002 40.080002 0 0 0 62.759766 80.160156 A 40.080002 40.080002 0 0 0 102.83984 40.080078 A 40.080002 40.080002 0 0 0 62.759766 0 z M 237.24023 0 A 40.080002 40.080002 0 0 0 197.16016 40.080078 A 40.080002 40.080002 0 0 0 237.24023 80.160156 A 40.080002 40.080002 0 0 0 277.32031 40.080078 A 40.080002 40.080002 0 0 0 237.24023 0 z " /><path
     id="path32671"
     style="fill:#dc2b38;fill-opacity:1"
     d="M 44.597656 54.164062 C 38.339911 54.164062 32.511495 55.879619 27.498047 58.824219 A 40.080002 40.080002 0 0 0 62.759766 80.160156 A 40.080002 40.080002 0 0 0 100.26367 54.164062 L 44.597656 54.164062 z M 199.97266 54.164062 A 40.080002 40.080002 0 0 0 237.24023 80.160156 A 40.080002 40.080002 0 0 0 272.60352 58.884766 C 267.5675 55.903022 261.70254 54.164062 255.40234 54.164062 L 199.97266 54.164062 z " /><path
     d="M82.38 48.58c0 12.28-37.68 12.28-37.68 0s8.43-22.24 18.84-22.24 18.84 9.95 18.84 22.24zm172.92 0c0 12.28-37.68 12.28-37.68 0s8.44-22.24 18.84-22.24 18.84 9.95 18.84 22.24z"
     fill="#f6a9cb"
     id="path13692"
     style="fill:#c40713;fill-opacity:1" /><path
     style="fill:#f55f68;fill-opacity:1;stroke-width:0.939363"
     d="m 275.00586,192.5332 c -1.16666,-0.0867 -2.90699,2.68368 -4.91016,7.81641 -5.7471,14.7258 -21.46782,25.46643 -37.35742,21.96875 -3.31292,-0.57247 -6.52305,-1.68339 -9.50976,-3.24805 -9.13094,-4.78341 -12.34283,-3.68428 -5.40235,3.91211 9.39451,10.28235 24.9242,14.79004 37.87695,8.76367 12.81749,-5.05626 20.62509,-18.45534 20.8379,-31.9707 0.0766,-4.86569 -0.50576,-7.1657 -1.53516,-7.24219 z"
     id="path27222" /><path
     style="fill:#f55f68;fill-opacity:1;stroke-width:0.939363"
     d="m 90.380739,192.5332 c 1.029403,0.0765 1.611769,2.3765 1.535157,7.24219 -0.21281,13.51536 -8.020404,26.91444 -20.837891,31.9707 -12.952757,6.02637 -28.482443,1.51868 -37.876953,-8.76367 -6.940483,-7.59639 -3.728587,-8.69552 5.402344,-3.91211 2.986717,1.56466 6.196849,2.67558 9.509765,3.24805 15.889594,3.49768 31.610318,-7.24295 37.357422,-21.96875 2.003167,-5.13273 3.7435,-7.9031 4.910156,-7.81641 z"
     id="circle26380" /><path
     id="path27229"
     style="fill:#fd7880;fill-opacity:1"
     d="M 62.759766,0 C 42.245035,-0.9204161 25.299472,16.579 22.869657,35.781163 21.481024,46.755149 27.283715,46.318897 32.337673,36.34607 44.452861,12.439525 68.085067,5.2570942 87.099146,17.615658 97.376888,24.295873 101.00968,22.93271 92.956334,13.788853 85.429065,5.2423052 74.358212,-0.21177736 62.759766,0 Z M 237.24023,0 c -20.83379,-0.97014766 -37.88936,17.085707 -39.95113,36.591824 -1.11683,10.566096 5.05924,10.263507 10.27761,0.882815 11.21764,-20.165166 29.78504,-28.6119106 46.48363,-23.116454 15.68945,5.163355 20.49579,3.86448 7.43423,-6.1282671 C 254.60561,2.9671754 246.08799,-0.14830307 237.24023,0 Z"
     sodipodi:nodetypes="cccccccc"
     inkscape:path-effect="#path-effect28478"
     inkscape:original-d="M 62.759766,0 C 35.171372,-1.2377838 14.037859,30.836904 25.982422,55.566406 35.034995,7.499568 79.618205,-3.109196 102.32812,33.761719 99.656876,14.776403 81.928888,-0.3500112 62.759766,0 Z M 237.24023,0 C 209.59813,-1.2871841 188.60711,30.918565 200.46289,55.566406 212.42144,9.4099214 254.83435,-1.950581 276.80859,33.761719 274.10329,14.740829 256.44984,-0.32198491 237.24023,0 Z" /><path
     id="path28480"
     style="fill:#fd7880;fill-opacity:1"
     d="m 79.922769,37.612266 c 1.563317,3.232991 2.45809,6.97376 2.45809,10.967812 0,6.907741 -11.917225,9.925878 -22.346061,9.059914 -6.269567,-0.520597 -6.755945,0.453661 -0.596653,1.460976 10.99175,1.797633 25.386074,-1.09682 25.386074,-8.688859 0,-5.14303 -1.478262,-9.872109 -3.959701,-13.634574 -2.613637,-3.962909 -3.010559,-3.443636 -0.941749,0.834731 z m 174.226581,3.313139 c 0.74445,2.384536 1.15143,4.962128 1.15143,7.65472 0,6.097742 -9.28627,9.164586 -18.63764,9.204316 -8.30269,0.03527 -8.82687,1.183793 -0.61792,1.73679 10.26755,0.691676 21.69892,-2.343386 21.69892,-9.109075 0,-3.806763 -0.81096,-7.386963 -2.23923,-10.516283 -2.76373,-6.055292 -3.34275,-5.335594 -1.35556,1.029532 z" /><path
     d="m 211.82862,285.008 c 17.92587,-16.73919 6.89871,-116.40365 -61.89437,-116.40365 -68.793075,0 -79.44296,100.00498 -61.905144,116.40365 17.537814,16.39867 105.884424,16.75711 123.799514,0 z"
     fill="#c68366"
     id="path25680"
     style="fill:#d81523;fill-opacity:1;stroke-width:0.982816" /><path
     d="M207.36 280.5c16.63-18.68 6.4-129.9-57.42-129.9s-73.7 111.6-57.43 129.9 98.23 18.7 114.85 0z"
     fill="#c68366"
     id="path13660"
     style="fill:#fd545a;fill-opacity:1" /><path
     d="M115.8 200.12c0 14.52 19.87 28.14 34.2 28.14s34.2-15.4 34.2-28.14-68.42-14.52-68.42 0z"
     fill="#414042"
     id="path13662"
     style="fill:#d81523;fill-opacity:1" /><path
     style="color:#000000;fill:#d81523;stroke-linecap:round;stroke-miterlimit:10;-inkscape-stroke:none"
     d="m 150,218.27344 -22.75586,23.66797 a 6,6 0 0 0 0.16797,8.48437 6,6 0 0 0 8.48242,-0.16797 L 150,235.58789 l 14.10547,14.66992 a 6,6 0 0 0 8.48242,0.16797 6,6 0 0 0 0.16797,-8.48437 z"
     id="path13678" /><path
     style="color:#000000;fill:#dc2b38;fill-opacity:1;stroke-width:0.730267;stroke-linecap:round;stroke-miterlimit:10;-inkscape-stroke:none"
     d="m 150,220.39612 -16.61786,17.28395 a 4.3816048,4.3816048 0 0 0 0.12266,6.19586 4.3816048,4.3816048 0 0 0 6.19443,-0.12267 L 150,233.0403 l 10.30077,10.71296 a 4.3816048,4.3816048 0 0 0 6.19443,0.12267 4.3816048,4.3816048 0 0 0 0.12266,-6.19586 z"
     id="path31421" /><path
     d="m 121.89696,201.71661 c 0,11.93071 16.32667,23.12191 28.10126,23.12191 11.77459,0 28.10125,-12.65378 28.10125,-23.12191 0,-10.46813 -56.21894,-11.93071 -56.21894,0 z"
     fill="#414042"
     id="path29563"
     style="fill:#dc2b38;fill-opacity:1;stroke-width:0.821674" /><ellipse
     style="fill:#fe717d;fill-opacity:1;fill-rule:evenodd;stroke-width:0.771251"
     id="path29617"
     cx="133.4379"
     cy="200.44197"
     rx="10.264454"
     ry="6.5578451" /><ellipse
     style="fill:#fe8892;fill-opacity:1;fill-rule:evenodd;stroke-width:0.771251"
     id="ellipse31413"
     cx="71.851173"
     cy="133.15277"
     rx="10.264454"
     ry="6.5578451" /><ellipse
     style="fill:#fe8892;fill-opacity:1;fill-rule:evenodd;stroke-width:0.771251"
     id="ellipse31415"
     cx="221.82625"
     cy="133.15277"
     rx="10.264454"
     ry="6.5578451" /><path
     class="cls-12"
     d="m 155.69383,158.56549 c -4.46478,-5.25322 -20.01529,-5.78798 -30.87779,0.64078 -10.86251,6.42876 -12.92737,17.46952 -8.52236,22.65765 4.40501,5.18811 9.51275,-2.28633 20.40496,-8.71932 10.89221,-6.43299 23.50071,-9.32351 18.99519,-14.57911 z"
     id="path31858"
     style="fill:#fe8892;stroke-width:0.899841;fill-opacity:1" /><path
     d="M 254.07948,337.54171 H 45.92052 A 33.32522,12.734512 0 0 1 12.5953,324.80719 v -17.32005 h 274.8094 v 17.32005 a 33.32522,12.734512 0 0 1 -33.32522,12.73452 z"
     fill="url(#A)"
     id="path32577"
     style="fill:url(#linearGradient32585);fill-opacity:1;stroke-width:0.566259;opacity:0.23952096" /><path
     id="path32589"
     style="fill:url(#linearGradient32669);fill-opacity:1;stroke-width:0.881059;opacity:0.72155689"
     d="m 213.66211,247.81734 c -1.0668,4.98184 -3.22083,8.86961 -6.30273,10.89349 -16.61999,10.93254 -98.57963,10.69869 -114.849614,0 -2.995379,-1.96967 -5.095247,-5.79785 -6.144532,-10.71762 -2.105801,16.26718 0.344275,30.54687 6.144532,35.61119 16.269984,14.20565 98.229624,14.51615 114.849614,0 5.9341,-5.17428 8.4232,-19.50583 6.30273,-35.78706 z" /><path
     class="cls-12"
     d="m 241.27396,280.28884 c 3.1,5.37 17.78,5.69 29.58,-1.13 11.8,-6.82 16.24,-18.26 13.18,-23.56 -3.06,-5.3 -9.57,2.56 -21.39,9.33 -11.82,6.77 -24.47,9.99 -21.37,15.36 z"
     id="path31854"
     style="fill:#fd7880;fill-opacity:1" /><circle
     class="cls-12"
     cx="227.45396"
     cy="279.82886"
     r="5.2199998"
     id="circle31856"
     style="fill:#fd7880;fill-opacity:1" /><ellipse
     style="fill:#fd7880;fill-opacity:1;fill-rule:evenodd;stroke-width:0.591322"
     id="path33964"
     cx="115.47981"
     cy="82.269936"
     rx="33.209881"
     ry="24.152641" /><ellipse
     style="fill:#fd7880;fill-opacity:1;fill-rule:evenodd;stroke-width:0.154696"
     id="ellipse34035"
     cx="155.48262"
     cy="107.93211"
     rx="7.5476995"
     ry="7.2732377" /></svg>
