<?xml version="1.0" encoding="UTF-8" standalone="no"?>
<svg
   xmlns:dc="http://purl.org/dc/elements/1.1/"
   xmlns:cc="http://creativecommons.org/ns#"
   xmlns:rdf="http://www.w3.org/1999/02/22-rdf-syntax-ns#"
   xmlns:svg="http://www.w3.org/2000/svg"
   xmlns="http://www.w3.org/2000/svg"
   id="svg3535"
   version="1.1"
   viewBox="0 0 52.916665 52.916668"
   height="200"
   width="200">
  <defs
     id="defs3529">
    <clipPath
       id="clipPath2679"
       clipPathUnits="userSpaceOnUse">
      <path
         id="path2677"
         d="m 814.938,738.189 -8,-16.999 -3.999,-11.25 c 0,0 -23.751,-24.584 -22,-25.168 v 0 c 1.75,-0.583 55.75,6.417 55.75,6.417 v 0 l 22.249,15.5 17.184,12.064 -51.718,28.732 z" />
    </clipPath>
    <clipPath
       id="clipPath2667"
       clipPathUnits="userSpaceOnUse">
      <path
         id="path2665"
         d="M 0,1695.562 H 1520.003 V 0 H 0 Z" />
    </clipPath>
    <clipPath
       id="clipPath2655"
       clipPathUnits="userSpaceOnUse">
      <path
         id="path2653"
         d="M 587.159,790.994 569.1,745.844 c 0,0 31.839,-11.905 32.338,-13.905 v 0 c 0.501,-1.999 39.501,-38.25 41.001,-39.249 v 0 c 1.499,-1 53.499,-15.251 53.499,-15.251 v 0 l 16.001,3.001 -7.001,43.499 -15.499,15.5 -48.5,18 -46.501,15.501 z" />
    </clipPath>
    <clipPath
       id="clipPath2631"
       clipPathUnits="userSpaceOnUse">
      <path
         id="path2629"
         d="M 0,1695.562 H 1520.003 V 0 H 0 Z" />
    </clipPath>
    <clipPath
       id="clipPath2615"
       clipPathUnits="userSpaceOnUse">
      <path
         id="path2613"
         d="m 672.535,872.265 -23.807,-39.404 -61.569,-41.867 -18.059,-45.15 2.462,-72.242 c 0,0 -12.314,-44.328 -16.419,-48.433 v 0 c -4.104,-4.104 -33.657,-33.658 -33.657,-33.658 v 0 c 5.747,-33.658 61.569,-40.225 65.673,-40.225 v 0 c 4.105,0 50.076,-18.881 64.853,-18.881 v 0 c 14.776,0 51.718,0 69.778,2.463 v 0 c 18.059,2.462 82.091,19.701 82.091,19.701 v 0 l 73.39,11.203 c 0,0 25.121,15.888 25.121,19.993 v 0 68.956 c 0,0 -7.389,29.553 -10.672,38.583 v 0 c -3.284,9.031 -15.598,25.449 -15.598,25.449 v 0 l -51.718,28.732 -28.732,27.09 -27.09,-0.82 -13.955,27.089 c 0,0 -9.852,22.165 -7.389,32.838 v 0 c 2.463,10.671 -14.777,31.195 -14.777,31.195 v 0 l -24.627,15.597 z" />
    </clipPath>
    <clipPath
       id="clipPath2595"
       clipPathUnits="userSpaceOnUse">
      <path
         id="path2593"
         d="M 0,1695.562 H 1520.003 V 0 H 0 Z" />
    </clipPath>
    <clipPath
       id="clipPath2571"
       clipPathUnits="userSpaceOnUse">
      <path
         id="path2569"
         d="m 672.535,872.265 -23.807,-39.404 -61.569,-41.867 -18.059,-45.15 2.462,-72.242 c 0,0 -12.314,-44.328 -16.419,-48.433 v 0 c -4.104,-4.104 -33.657,-33.658 -33.657,-33.658 v 0 c 5.747,-33.658 61.569,-40.225 65.673,-40.225 v 0 c 4.105,0 50.076,-18.881 64.853,-18.881 v 0 c 14.776,0 51.718,0 69.778,2.463 v 0 c 18.059,2.462 82.091,19.701 82.091,19.701 v 0 l 73.39,11.203 c 0,0 25.121,15.888 25.121,19.993 v 0 68.956 c 0,0 -7.389,29.553 -10.672,38.583 v 0 c -3.284,9.031 -15.598,25.449 -15.598,25.449 v 0 l -51.718,28.732 -28.732,27.09 -27.09,-0.82 -13.955,27.089 c 0,0 -9.852,22.165 -7.389,32.838 v 0 c 2.463,10.671 -14.777,31.195 -14.777,31.195 v 0 l -24.627,15.597 z" />
    </clipPath>
    <clipPath
       id="clipPath2555"
       clipPathUnits="userSpaceOnUse">
      <path
         id="path2553"
         d="M 0,1695.562 H 1520.003 V 0 H 0 Z" />
    </clipPath>
    <clipPath
       id="clipPath2539"
       clipPathUnits="userSpaceOnUse">
      <path
         id="path2537"
         d="m 672.535,872.265 -23.807,-39.404 -61.569,-41.867 -18.059,-45.15 2.462,-72.242 c 0,0 -12.314,-44.328 -16.419,-48.433 v 0 c -4.104,-4.104 -33.657,-33.658 -33.657,-33.658 v 0 c 5.747,-33.658 61.569,-40.225 65.673,-40.225 v 0 c 4.105,0 50.076,-18.881 64.853,-18.881 v 0 c 14.776,0 51.718,0 69.778,2.463 v 0 c 18.059,2.462 82.091,19.701 82.091,19.701 v 0 l 73.39,11.203 c 0,0 25.121,15.888 25.121,19.993 v 0 68.956 c 0,0 -7.389,29.553 -10.672,38.583 v 0 c -3.284,9.031 -15.598,25.449 -15.598,25.449 v 0 l -51.718,28.732 -28.732,27.09 -27.09,-0.82 -13.955,27.089 c 0,0 -9.852,22.165 -7.389,32.838 v 0 c 2.463,10.671 -14.777,31.195 -14.777,31.195 v 0 l -24.627,15.597 z" />
    </clipPath>
    <clipPath
       id="clipPath2527"
       clipPathUnits="userSpaceOnUse">
      <path
         id="path2525"
         d="m 672.535,872.265 -23.807,-39.404 -61.569,-41.867 -18.059,-45.15 2.462,-72.242 c 0,0 -12.314,-44.328 -16.419,-48.433 v 0 c -4.104,-4.104 -33.657,-33.658 -33.657,-33.658 v 0 c 5.747,-33.658 61.569,-40.225 65.673,-40.225 v 0 c 4.105,0 50.076,-18.881 64.853,-18.881 v 0 c 14.776,0 51.718,0 69.778,2.463 v 0 c 18.059,2.462 82.091,19.701 82.091,19.701 v 0 l 73.39,11.203 c 0,0 25.121,15.888 25.121,19.993 v 0 68.956 c 0,0 -7.389,29.553 -10.672,38.583 v 0 c -3.284,9.031 -15.598,25.449 -15.598,25.449 v 0 l -51.718,28.732 -28.732,27.09 -27.09,-0.82 -13.955,27.089 c 0,0 -7.78,17.505 -7.785,28.892 v 0 c 0,1.427 0.121,2.758 0.396,3.946 v 0 c 0.163,0.708 0.24,1.46 0.24,2.247 v 0 c 0.009,11.059 -15.017,28.948 -15.017,28.948 v 0 l -24.627,15.597 z" />
    </clipPath>
    <clipPath
       id="clipPath2515"
       clipPathUnits="userSpaceOnUse">
      <path
         id="path2513"
         d="M 0,1695.562 H 1520.003 V 0 H 0 Z" />
    </clipPath>
    <clipPath
       id="clipPath2171"
       clipPathUnits="userSpaceOnUse">
      <path
         id="path2169"
         d="M 0,1695.562 H 1520.003 V 0 H 0 Z" />
    </clipPath>
    <clipPath
       id="clipPath2183"
       clipPathUnits="userSpaceOnUse">
      <path
         id="path2181"
         d="m 627.56,1250.989 c -9.413,0 -37.653,-4.707 -37.653,-4.707 v 0 l -47.067,-62.755 -10.982,-34.515 c 0,0 -4.707,-37.654 -4.707,-47.067 v 0 -45.498 l -7.821,-29.436 7.559,-34.104 c 0,0 0.152,-16.062 2.244,-16.062 v 0 c 2.092,0 52.298,-4.882 52.298,-4.882 v 0 c 0,0 27.893,-17.433 32.077,-17.433 v 0 c 4.185,0 42.537,-6.276 46.72,-4.881 v 0 c 4.184,1.395 87.165,25.104 89.954,25.104 v 0 c 2.789,0 37.656,0.697 55.786,0.697 v 0 c 18.131,0 38.353,8.368 41.84,9.762 v 0 c 3.486,1.395 22.313,36.261 22.313,36.261 v 0 l 7.671,13.249 c 0,0 -15.341,52.299 -15.341,57.18 v 0 c 0,4.881 -20.222,22.314 -21.617,24.406 v 0 c -1.394,2.092 -20.92,18.828 -20.92,18.828 v 0 l -2.519,27.996 -36.084,23.533 -10.983,31.377 -15.688,40.792 -36.085,10.981 -42.36,7.845 c 0,0 -39.222,-26.671 -48.635,-26.671" />
    </clipPath>
    <clipPath
       id="clipPath2223"
       clipPathUnits="userSpaceOnUse">
      <path
         id="path2221"
         d="M 0,1695.562 H 1520.003 V 0 H 0 Z" />
    </clipPath>
    <clipPath
       id="clipPath2255"
       clipPathUnits="userSpaceOnUse">
      <path
         id="path2253"
         d="m 662.389,1296.906 c -2.001,-1.333 -46.667,-15.333 -46.667,-15.333 v 0 c 0,0 -51.333,-24 -54,-24.666 v 0 c -2.666,-0.667 -16,-44.667 -16,-44.667 v 0 l -2.882,-28.713 14.882,-28.62 v -30.001 c 0,0 13.333,-25.333 16.667,-30.666 v 0 c 3.334,-5.334 16.666,-16.667 16.666,-16.667 v 0 l 38,0.667 19.334,-10 14,10.666 15.333,24.667 32,28 6.667,33.334 -4.666,20 1.333,26.666 15.333,35.334 26.251,11.927 -40.252,44.739 c 0,0 -49.999,-5.334 -51.999,-6.667" />
    </clipPath>
    <clipPath
       id="clipPath1627"
       clipPathUnits="userSpaceOnUse">
      <path
         id="path1625"
         d="M 0,1695.562 H 1520.003 V 0 H 0 Z" />
    </clipPath>
    <clipPath
       id="clipPath1639"
       clipPathUnits="userSpaceOnUse">
      <path
         id="path1637"
         d="m 169.297,1695.561 -17.808,-16.26 -13.938,-31.747 -29.424,-27.875 c 0,0 -18.584,-40.265 -19.358,-42.587 v 0 c -0.774,-2.323 -8.517,-42.587 -8.517,-42.587 v 0 l -3.098,-28.651 -43.362,-48.781 -6.194,-26.327 c 0,0 6.194,-16.648 10.26,-18.971 v 0 c 4.065,-2.323 22.648,-6.388 22.648,-6.388 v 0 c 0,0 26.133,-16.26 29.618,-18.003 v 0 c 3.485,-1.742 36.586,-12.776 44.136,-13.937 v 0 c 7.549,-1.162 29.037,-0.581 41.233,-0.581 v 0 c 12.195,0 35.424,9.292 51.104,9.292 v 0 c 15.679,0 27.295,-0.581 32.521,1.161 v 0 c 5.227,1.742 38.715,20.326 41.813,20.326 v 0 c 3.097,0 19.358,28.65 19.358,30.972 v 0 c 0,2.323 6.969,30.199 6.969,34.844 v 0 c 0,4.647 0,16.261 -1.549,20.133 v 0 c -1.548,3.871 -7.743,22.455 -10.066,24.004 v 0 c -2.323,1.548 -23.229,26.326 -23.229,26.326 v 0 l -11.615,37.168 c 0,0 -18.583,25.551 -24.004,32.52 v 0 c -5.42,6.97 -15.486,8.518 -15.486,8.518 v 0 c 0,0 -26.327,43.362 -28.65,48.008 v 0 c -2.323,4.645 -13.163,16.26 -19.358,16.26 v 0 c -6.194,0 -24.004,13.163 -24.004,13.163 z" />
    </clipPath>
    <clipPath
       id="clipPath1671"
       clipPathUnits="userSpaceOnUse">
      <path
         id="path1669"
         d="M 0,1695.562 H 1520.003 V 0 H 0 Z" />
    </clipPath>
    <clipPath
       id="clipPath1683"
       clipPathUnits="userSpaceOnUse">
      <path
         id="path1681"
         d="m 169.297,1695.561 -17.808,-16.26 -13.938,-31.747 -29.424,-27.875 c 0,0 -18.584,-40.265 -19.358,-42.587 v 0 c -0.774,-2.323 -8.517,-42.587 -8.517,-42.587 v 0 l -3.098,-28.651 -43.362,-48.781 -6.194,-26.327 c 0,0 6.194,-16.648 10.26,-18.971 v 0 c 4.065,-2.323 22.648,-6.388 22.648,-6.388 v 0 c 0,0 26.133,-16.26 29.618,-18.003 v 0 c 3.485,-1.742 36.586,-12.776 44.136,-13.937 v 0 c 7.549,-1.162 29.037,-0.581 41.233,-0.581 v 0 c 12.195,0 35.424,9.292 51.104,9.292 v 0 c 15.679,0 27.295,-0.581 32.521,1.161 v 0 c 5.227,1.742 38.715,20.326 41.813,20.326 v 0 c 3.097,0 19.358,28.65 19.358,30.972 v 0 c 0,2.323 6.969,30.199 6.969,34.844 v 0 c 0,4.647 0,16.261 -1.549,20.133 v 0 c -1.548,3.871 -7.743,22.455 -10.066,24.004 v 0 c -2.323,1.548 -23.229,26.326 -23.229,26.326 v 0 l -11.615,37.168 c 0,0 -18.583,25.551 -24.004,32.52 v 0 c -5.42,6.97 -15.486,8.518 -15.486,8.518 v 0 c 0,0 -26.327,43.362 -28.65,48.008 v 0 c -2.323,4.645 -13.163,16.26 -19.358,16.26 v 0 c -6.194,0 -24.004,13.163 -24.004,13.163 z" />
    </clipPath>
    <clipPath
       id="clipPath1703"
       clipPathUnits="userSpaceOnUse">
      <path
         id="path1701"
         d="M 0,1695.562 H 1520.003 V 0 H 0 Z" />
    </clipPath>
    <clipPath
       id="clipPath1723"
       clipPathUnits="userSpaceOnUse">
      <path
         id="path1721"
         d="m 151.489,1679.301 -13.938,-31.747 c 0,0 -2.233,-21.21 -2.233,-24.53 v 0 c 0,-3.32 -14.018,-23.61 -14.018,-23.61 v 0 l -11.805,-23.609 -3.689,-35.047 -11.805,-21.765 -9.96,-7.378 -2.952,-14.019 22.504,-32.095 c 0,0 23.24,14.019 24.347,14.019 v 0 c 1.107,0 30.619,2.214 30.619,2.214 v 0 l 24.717,8.853 11.804,22.872 6.641,27.299 c 0,0 2.583,25.454 2.952,26.93 v 0 c 0.369,1.475 15.862,24.717 18.076,26.193 v 0 c 2.213,1.475 12.911,9.96 12.911,9.96 v 0 l 5.649,14.289 c 0,0 -26.327,43.362 -28.65,48.008 v 0 c -2.323,4.645 -13.163,16.26 -19.358,16.26 v 0 c -6.194,0 -24.004,13.163 -24.004,13.163 v 0 z" />
    </clipPath>
  </defs>
  <metadata
     id="metadata3532">
    <rdf:RDF>
      <cc:Work
         rdf:about="">
        <dc:format>image/svg+xml</dc:format>
        <dc:type
           rdf:resource="http://purl.org/dc/dcmitype/StillImage" />
        <dc:title></dc:title>
      </cc:Work>
    </rdf:RDF>
  </metadata>
  <g
     transform="translate(0,-244.08332)"
     id="layer1">
    <g
       id="g4667"
       transform="matrix(0.16390976,0,0,-0.16390976,-2.6238722,522.00232)">
      <g
         id="g1621">
        <g
           id="g1623"
           clip-path="url(#clipPath1627)">
          <g
             id="g1629"
             transform="translate(27.5983,1430.746)">
            <path
               d="m 0,0 6.194,26.327 43.362,48.781 3.097,28.65 c 0,0 7.743,40.264 8.517,42.588 0.775,2.322 19.358,42.587 19.358,42.587 l 29.425,27.875 13.937,31.747 17.809,16.26 c 0,0 17.81,-13.163 24.004,-13.163 6.194,0 17.035,-11.614 19.358,-16.26 2.323,-4.646 28.649,-48.008 28.649,-48.008 0,0 10.067,-1.549 15.487,-8.517 5.42,-6.969 24.004,-32.521 24.004,-32.521 l 11.614,-37.168 c 0,0 20.907,-24.778 23.23,-26.326 2.323,-1.549 8.517,-20.132 10.066,-24.004 1.549,-3.872 1.549,-15.486 1.549,-20.132 0,-4.646 -6.969,-32.522 -6.969,-34.844 0,-2.323 -16.261,-30.973 -19.358,-30.973 -3.098,0 -36.586,-18.584 -41.813,-20.326 -5.227,-1.742 -16.842,-1.161 -32.521,-1.161 -15.68,0 -38.91,-9.292 -51.105,-9.292 -12.196,0 -33.683,-0.581 -41.232,0.581 -7.55,1.161 -40.652,12.195 -44.136,13.937 -3.485,1.742 -29.618,18.003 -29.618,18.003 0,0 -18.583,4.066 -22.649,6.388 C 6.194,-16.648 0,0 0,0"
               style="fill:#9c887b;fill-opacity:1;fill-rule:nonzero;stroke:none"
               id="path1631" />
          </g>
        </g>
      </g>
      <g
         id="g1633">
        <g
           id="g1635"
           clip-path="url(#clipPath1639)">
          <g
             id="g1641"
             transform="translate(103.5925,1465.5018)">
            <path
               d="m 0,0 6.825,-15.863 c 0,0 -5.534,-10.237 -5.81,-11.344 -0.277,-1.106 -0.277,-11.897 -0.277,-11.897 l -0.553,-6.087 -1.937,-11.897 -6.917,-4.15 -12.727,-0.277 -21.028,5.257 6.64,6.917 14.941,13.28 -1.384,26.285 -0.276,16.324 V 32.095 L 4.334,28.682 Z"
               style="fill:#877568;fill-opacity:1;fill-rule:nonzero;stroke:none"
               id="path1643" />
          </g>
          <g
             id="g1645"
             transform="translate(292.7483,1420.0341)">
            <path
               d="M 0,0 -12.45,2.49 -25.454,0.554 c 0,0 -9.961,-7.194 -9.961,-8.024 0,-0.83 1.107,-4.703 1.107,-5.534 0,-0.829 -5.81,-11.067 -5.81,-11.067 0,0 -15.771,-6.64 -17.154,-7.194 -1.384,-0.553 -19.921,-2.489 -23.794,-1.936 -3.874,0.553 -10.515,1.66 -12.451,2.213 -1.937,0.553 -7.194,-0.83 -8.024,0 -0.83,0.83 -2.767,10.238 -2.767,10.238 0,0 -6.64,3.043 -6.917,3.873 -0.276,0.83 -2.213,6.087 -2.213,6.087 l 0.277,-15.218 c 0,0 -4.427,-10.79 -5.534,-10.79 -1.107,0 -13.834,-2.49 -14.664,-2.214 -0.83,0.277 -9.683,2.491 -13.834,4.428 -4.15,1.936 -9.13,2.766 -9.13,2.766 l -11.897,-2.766 c 0,0 -10.791,11.343 -11.344,13.28 -0.554,1.937 -2.49,19.091 -2.49,19.091 l -6.917,2.49 -14.111,-11.067 -12.45,4.15 c 0,0 -14.664,-4.15 -16.048,-4.15 -1.383,0 -26.561,11.62 -26.561,11.62 l -6.64,14.664 -45.376,-38.274 c 0,0 81.897,-50.171 143.873,-50.908 61.976,-0.738 166.745,29.512 166.745,29.512 l 8.946,28.682 z"
               style="fill:#736052;fill-opacity:1;fill-rule:nonzero;stroke:none"
               id="path1647" />
          </g>
          <g
             id="g1649"
             transform="translate(179.7712,1489.6649)">
            <path
               d="m 0,0 c 0,0 1.845,-0.184 2.951,-0.461 1.107,-0.277 4.151,-2.213 5.349,-3.597 1.2,-1.383 5.626,-6.271 7.102,-6.917 1.475,-0.645 10.237,-6.732 10.237,-6.732 0,0 1.568,-6.825 2.214,-9.039 0.645,-2.213 2.582,-13.557 2.582,-13.557 0,0 2.767,-4.98 4.427,-8.208 1.659,-3.228 4.795,-7.655 4.795,-7.655 0,0 11.898,-5.164 15.31,-5.994 3.412,-0.83 11.897,-2.49 11.897,-2.49 l 10.699,0.553 -2.491,4.519 L 57.365,-33.57 31.357,-14.387 14.203,2.029 7.378,10.33 Z"
               style="fill:#c2b0a5;fill-opacity:1;fill-rule:nonzero;stroke:none"
               id="path1651" />
          </g>
          <g
             id="g1653"
             transform="translate(186.5959,1490.5873)">
            <path
               d="m 0,0 c 0,0 7.102,-8.854 9.592,-9.684 2.49,-0.83 12.45,-9.13 12.45,-9.13 0,0 2.49,-17.707 2.767,-19.368 0.277,-1.66 8.024,-14.664 8.3,-15.494 0.277,-0.829 19.091,-8.576 19.091,-8.576 l 18.538,-2.768 c 0,0 11.344,-4.98 14.11,-6.64 2.767,-1.66 14.664,-12.727 14.664,-12.727 l 21.858,-3.043 22.134,14.387 22.134,37.628 3.321,33.202 -22.135,68.616 -37.628,46.482 -34.308,22.134 H 41.687 L 9.592,87.431 Z"
               style="fill:#877467;fill-opacity:1;fill-rule:nonzero;stroke:none"
               id="path1655" />
          </g>
          <g
             id="g1657"
             transform="translate(235.6604,1603.8412)">
            <path
               d="m 0,0 6.456,-13.096 0.83,-16.048 -8.024,-16.6 -0.83,-15.771 -2.766,-15.217 -6.641,6.086 -3.873,19.921 -5.257,5.257 -10.883,9.315 17.8,34.677 z"
               style="fill:#7d6a5d;fill-opacity:1;fill-rule:nonzero;stroke:none"
               id="path1659" />
          </g>
          <g
             id="g1661"
             transform="translate(137.551,1647.5541)">
            <path
               d="m 0,0 c 0,0 -2.233,-21.21 -2.233,-24.53 0,-3.32 -14.018,-23.61 -14.018,-23.61 l -11.805,-23.61 -3.689,-35.046 -11.805,-21.765 -9.96,-7.378 -2.952,-14.019 22.504,-32.094 c 0,0 23.241,14.018 24.347,14.018 1.107,0 30.619,2.214 30.619,2.214 l 24.717,8.853 11.805,22.872 6.64,27.299 c 0,0 2.582,25.455 2.952,26.93 0.368,1.476 15.862,24.717 18.076,26.193 2.213,1.475 12.911,9.96 12.911,9.96 l 5.649,14.289 L 92.576,17.894 54.948,51.096 29.862,63.638 c 0,0 -12.543,-3.689 -13.28,-4.795 C 15.844,57.736 0,0 0,0"
               style="fill:#b09b8d;fill-opacity:1;fill-rule:nonzero;stroke:none"
               id="path1663" />
          </g>
        </g>
      </g>
      <g
         id="g1665">
        <g
           id="g1667"
           clip-path="url(#clipPath1671)">
          <g
             id="g1673"
             transform="translate(187.7028,1676.8842)">
            <path
               d="m 0,0 -20.659,-15.125 -6.64,-14.019 -9.222,-10.329 -11.068,-11.436 -3.689,-17.338 -8.485,-12.543 10.699,-18.445 c 0,0 14.018,-9.223 14.387,-10.329 0.369,-1.107 6.64,1.106 6.64,1.106 0,0 16.601,11.067 19.183,11.067 2.583,0 15.125,2.582 15.125,2.582 l 13.281,22.873 -0.738,31.356 -8.116,17.339 2.214,15.863 C 12.912,-7.378 7.747,0 0,0"
               style="fill:#c2b0a5;fill-opacity:1;fill-rule:nonzero;stroke:none"
               id="path1675" />
          </g>
        </g>
      </g>
      <g
         id="g1677">
        <g
           id="g1679"
           clip-path="url(#clipPath1683)">
          <g
             id="g1685"
             transform="translate(315.6433,1513.5975)">
            <path
               d="m 0,0 0.346,-14.71 -1.66,-22.964 c 0,0 -9.684,-4.427 -10.237,-5.257 -0.553,-0.83 -11.897,-3.597 -13.834,-2.214 -1.937,1.384 -11.62,-4.426 -11.62,-4.426 0,0 -0.554,-7.747 -0.554,-8.854 0,-1.107 -6.363,-13.281 -6.363,-13.281 0,0 -2.491,-0.83 -5.81,-0.83 -3.321,0 -23.242,1.661 -23.242,1.661 l -6.917,-2.491 -3.596,-4.703 6.917,-5.257 13.28,-3.597 8.024,-4.15 10.237,-6.917 9.684,-8.577 4.98,-1.384 15.653,-2.002 26.679,29.947 c 0,0 13.833,23.518 14.664,34.031 0.829,10.514 4.98,22.688 3.043,27.115 C 27.737,-14.433 0,0 0,0"
               style="fill:#736052;fill-opacity:1;fill-rule:nonzero;stroke:none"
               id="path1687" />
          </g>
          <g
             id="g1689"
             transform="translate(253.5524,1512.6293)">
            <path
               d="m 0,0 -4.98,-5.81 -3.874,-10.791 -0.83,-16.6 -7.47,-12.174 -4.427,-15.217 0.276,-4.704 c 0,0 -5.533,12.45 -5.533,14.387 0,1.937 1.66,9.684 1.66,11.897 0,2.214 -20.751,11.345 -20.751,11.345 l -4.15,3.319 -15.171,11.436 3.458,8.301 21.12,4.335 h 15.771 l 11.897,5.256 z"
               style="fill:#78665a;fill-opacity:1;fill-rule:nonzero;stroke:none"
               id="path1691" />
          </g>
          <g
             id="g1693"
             transform="translate(280.6667,1577.8334)">
            <path
               d="m 0,0 -7.562,-18.261 c 0,0 -2.214,-11.989 -2.398,-13.281 -0.185,-1.291 -13.65,-15.862 -13.65,-15.862 l -16.6,-9.223 -2.952,-7.378 4.796,0.922 12.911,-1.844 16.97,7.378 c 0,0 4.058,2.029 5.349,2.767 1.291,0.738 12.359,6.824 12.359,6.824 l 3.505,9.776 c 0,0 2.582,9.592 2.582,12.912 C 15.31,-21.95 0,0 0,0"
               style="fill:#9c8a7e;fill-opacity:1;fill-rule:nonzero;stroke:none"
               id="path1695" />
          </g>
        </g>
      </g>
      <g
         id="g1697">
        <g
           id="g1699"
           clip-path="url(#clipPath1703)">
          <g
             id="g1705"
             transform="translate(67.1169,1489.4808)">
            <path
               d="m 0,0 -16.186,-19.921 -0.415,-13.419 -7.332,-14.941 0.139,-12.727 6.363,-1.798 5.396,-6.917 3.735,-5.811 5.533,11.345 8.993,8.161 5.256,16.463 -5.256,21.304 V -4.98 l 5.81,11.343 z"
               style="fill:#b09e92;fill-opacity:1;fill-rule:nonzero;stroke:none"
               id="path1707" />
          </g>
          <g
             id="g1709"
             transform="translate(193.6052,1456.8324)">
            <path
               d="m 0,0 -0.922,-3.689 c 0,0 0.737,-7.562 1.291,-8.853 0.553,-1.292 3.505,-7.379 3.873,-8.301 0.369,-0.922 8.854,-14.756 8.854,-14.756 l 5.534,-14.756 -2.029,-7.932 -1.107,-5.165 -3.505,2.583 0.554,9.038 -8.669,11.251 -4.427,4.796 -6.087,1.107 -5.995,-1.844 3.228,35.23 z"
               style="fill:#877568;fill-opacity:1;fill-rule:nonzero;stroke:none"
               id="path1711" />
          </g>
          <g
             id="g1713"
             transform="translate(168.5197,1478.1366)">
            <path
               d="m 0,0 c 0,0 -3.043,-7.193 -4.427,-9.96 -1.383,-2.767 -22.964,-11.621 -22.964,-11.621 l -9.684,-9.407 -1.107,-10.79 c 0,0 -5.256,-13.281 -5.81,-14.388 -0.553,-1.106 -0.83,-15.217 -0.83,-15.217 0,0 9.131,-0.83 9.961,-0.277 0.829,0.554 8.023,-5.81 8.023,-5.81 l 11.898,10.514 c 0,0 9.683,6.64 11.62,6.917 1.937,0.277 15.771,2.213 15.771,2.213 0,0 2.766,15.494 3.043,16.601 0.277,1.107 1.107,13.004 2.49,14.111 1.384,1.106 4.703,2.213 6.087,5.257 1.384,3.043 1.384,13.557 1.384,13.557 l -7.194,8.024 z"
               style="fill:#b09e92;fill-opacity:1;fill-rule:nonzero;stroke:none"
               id="path1715" />
          </g>
        </g>
      </g>
      <g
         id="g1717">
        <g
           id="g1719"
           clip-path="url(#clipPath1723)">
          <g
             id="g1725"
             transform="translate(229.2507,1637.3656)">
            <path
               d="M 0,0 C 0,0 3.32,-9.131 4.15,-12.174 4.98,-15.218 6.917,-19.368 6.364,-22.273 5.81,-25.178 2.905,-30.85 0.968,-32.925 -0.968,-35 -8.577,-39.98 -11.067,-41.779 c -2.49,-1.798 -14.111,-17.707 -15.909,-21.857 -1.798,-4.151 -1.383,-8.301 -1.937,-13.004 -0.553,-4.704 -1.107,-19.23 -1.107,-19.23 l -2.767,-15.77 -5.118,-13.972 c 0,0 -7.055,-12.174 -7.055,-12.727 0,-0.554 -9.407,-9.408 -9.407,-9.408 0,0 -15.217,-3.873 -20.336,-3.873 -5.119,0 -26.285,-1.798 -28.36,-2.767 -2.075,-0.968 -22.595,-17.477 -22.595,-17.477 h 29.881 l 36.89,7.01 28.775,2.213 22.134,69.354 27.668,51.646 6.271,33.571 z"
               style="fill:#c2b0a5;fill-opacity:1;fill-rule:nonzero;stroke:none"
               id="path1727" />
          </g>
        </g>
      </g>
    </g>
  </g>
</svg>
