<?xml version="1.0" encoding="UTF-8" standalone="no"?>
<svg
   xmlns:dc="http://purl.org/dc/elements/1.1/"
   xmlns:cc="http://creativecommons.org/ns#"
   xmlns:rdf="http://www.w3.org/1999/02/22-rdf-syntax-ns#"
   xmlns:svg="http://www.w3.org/2000/svg"
   xmlns="http://www.w3.org/2000/svg"
   id="svg3535"
   version="1.1"
   viewBox="0 0 52.916665 52.916668"
   height="200"
   width="200">
  <defs
     id="defs3529">
    <clipPath
       id="clipPath2679"
       clipPathUnits="userSpaceOnUse">
      <path
         id="path2677"
         d="m 814.938,738.189 -8,-16.999 -3.999,-11.25 c 0,0 -23.751,-24.584 -22,-25.168 v 0 c 1.75,-0.583 55.75,6.417 55.75,6.417 v 0 l 22.249,15.5 17.184,12.064 -51.718,28.732 z" />
    </clipPath>
    <clipPath
       id="clipPath2667"
       clipPathUnits="userSpaceOnUse">
      <path
         id="path2665"
         d="M 0,1695.562 H 1520.003 V 0 H 0 Z" />
    </clipPath>
    <clipPath
       id="clipPath2655"
       clipPathUnits="userSpaceOnUse">
      <path
         id="path2653"
         d="M 587.159,790.994 569.1,745.844 c 0,0 31.839,-11.905 32.338,-13.905 v 0 c 0.501,-1.999 39.501,-38.25 41.001,-39.249 v 0 c 1.499,-1 53.499,-15.251 53.499,-15.251 v 0 l 16.001,3.001 -7.001,43.499 -15.499,15.5 -48.5,18 -46.501,15.501 z" />
    </clipPath>
    <clipPath
       id="clipPath2631"
       clipPathUnits="userSpaceOnUse">
      <path
         id="path2629"
         d="M 0,1695.562 H 1520.003 V 0 H 0 Z" />
    </clipPath>
    <clipPath
       id="clipPath2615"
       clipPathUnits="userSpaceOnUse">
      <path
         id="path2613"
         d="m 672.535,872.265 -23.807,-39.404 -61.569,-41.867 -18.059,-45.15 2.462,-72.242 c 0,0 -12.314,-44.328 -16.419,-48.433 v 0 c -4.104,-4.104 -33.657,-33.658 -33.657,-33.658 v 0 c 5.747,-33.658 61.569,-40.225 65.673,-40.225 v 0 c 4.105,0 50.076,-18.881 64.853,-18.881 v 0 c 14.776,0 51.718,0 69.778,2.463 v 0 c 18.059,2.462 82.091,19.701 82.091,19.701 v 0 l 73.39,11.203 c 0,0 25.121,15.888 25.121,19.993 v 0 68.956 c 0,0 -7.389,29.553 -10.672,38.583 v 0 c -3.284,9.031 -15.598,25.449 -15.598,25.449 v 0 l -51.718,28.732 -28.732,27.09 -27.09,-0.82 -13.955,27.089 c 0,0 -9.852,22.165 -7.389,32.838 v 0 c 2.463,10.671 -14.777,31.195 -14.777,31.195 v 0 l -24.627,15.597 z" />
    </clipPath>
    <clipPath
       id="clipPath2595"
       clipPathUnits="userSpaceOnUse">
      <path
         id="path2593"
         d="M 0,1695.562 H 1520.003 V 0 H 0 Z" />
    </clipPath>
    <clipPath
       id="clipPath2571"
       clipPathUnits="userSpaceOnUse">
      <path
         id="path2569"
         d="m 672.535,872.265 -23.807,-39.404 -61.569,-41.867 -18.059,-45.15 2.462,-72.242 c 0,0 -12.314,-44.328 -16.419,-48.433 v 0 c -4.104,-4.104 -33.657,-33.658 -33.657,-33.658 v 0 c 5.747,-33.658 61.569,-40.225 65.673,-40.225 v 0 c 4.105,0 50.076,-18.881 64.853,-18.881 v 0 c 14.776,0 51.718,0 69.778,2.463 v 0 c 18.059,2.462 82.091,19.701 82.091,19.701 v 0 l 73.39,11.203 c 0,0 25.121,15.888 25.121,19.993 v 0 68.956 c 0,0 -7.389,29.553 -10.672,38.583 v 0 c -3.284,9.031 -15.598,25.449 -15.598,25.449 v 0 l -51.718,28.732 -28.732,27.09 -27.09,-0.82 -13.955,27.089 c 0,0 -9.852,22.165 -7.389,32.838 v 0 c 2.463,10.671 -14.777,31.195 -14.777,31.195 v 0 l -24.627,15.597 z" />
    </clipPath>
    <clipPath
       id="clipPath2555"
       clipPathUnits="userSpaceOnUse">
      <path
         id="path2553"
         d="M 0,1695.562 H 1520.003 V 0 H 0 Z" />
    </clipPath>
    <clipPath
       id="clipPath2539"
       clipPathUnits="userSpaceOnUse">
      <path
         id="path2537"
         d="m 672.535,872.265 -23.807,-39.404 -61.569,-41.867 -18.059,-45.15 2.462,-72.242 c 0,0 -12.314,-44.328 -16.419,-48.433 v 0 c -4.104,-4.104 -33.657,-33.658 -33.657,-33.658 v 0 c 5.747,-33.658 61.569,-40.225 65.673,-40.225 v 0 c 4.105,0 50.076,-18.881 64.853,-18.881 v 0 c 14.776,0 51.718,0 69.778,2.463 v 0 c 18.059,2.462 82.091,19.701 82.091,19.701 v 0 l 73.39,11.203 c 0,0 25.121,15.888 25.121,19.993 v 0 68.956 c 0,0 -7.389,29.553 -10.672,38.583 v 0 c -3.284,9.031 -15.598,25.449 -15.598,25.449 v 0 l -51.718,28.732 -28.732,27.09 -27.09,-0.82 -13.955,27.089 c 0,0 -9.852,22.165 -7.389,32.838 v 0 c 2.463,10.671 -14.777,31.195 -14.777,31.195 v 0 l -24.627,15.597 z" />
    </clipPath>
    <clipPath
       id="clipPath2527"
       clipPathUnits="userSpaceOnUse">
      <path
         id="path2525"
         d="m 672.535,872.265 -23.807,-39.404 -61.569,-41.867 -18.059,-45.15 2.462,-72.242 c 0,0 -12.314,-44.328 -16.419,-48.433 v 0 c -4.104,-4.104 -33.657,-33.658 -33.657,-33.658 v 0 c 5.747,-33.658 61.569,-40.225 65.673,-40.225 v 0 c 4.105,0 50.076,-18.881 64.853,-18.881 v 0 c 14.776,0 51.718,0 69.778,2.463 v 0 c 18.059,2.462 82.091,19.701 82.091,19.701 v 0 l 73.39,11.203 c 0,0 25.121,15.888 25.121,19.993 v 0 68.956 c 0,0 -7.389,29.553 -10.672,38.583 v 0 c -3.284,9.031 -15.598,25.449 -15.598,25.449 v 0 l -51.718,28.732 -28.732,27.09 -27.09,-0.82 -13.955,27.089 c 0,0 -7.78,17.505 -7.785,28.892 v 0 c 0,1.427 0.121,2.758 0.396,3.946 v 0 c 0.163,0.708 0.24,1.46 0.24,2.247 v 0 c 0.009,11.059 -15.017,28.948 -15.017,28.948 v 0 l -24.627,15.597 z" />
    </clipPath>
    <clipPath
       id="clipPath2515"
       clipPathUnits="userSpaceOnUse">
      <path
         id="path2513"
         d="M 0,1695.562 H 1520.003 V 0 H 0 Z" />
    </clipPath>
    <clipPath
       id="clipPath2171"
       clipPathUnits="userSpaceOnUse">
      <path
         id="path2169"
         d="M 0,1695.562 H 1520.003 V 0 H 0 Z" />
    </clipPath>
    <clipPath
       id="clipPath2183"
       clipPathUnits="userSpaceOnUse">
      <path
         id="path2181"
         d="m 627.56,1250.989 c -9.413,0 -37.653,-4.707 -37.653,-4.707 v 0 l -47.067,-62.755 -10.982,-34.515 c 0,0 -4.707,-37.654 -4.707,-47.067 v 0 -45.498 l -7.821,-29.436 7.559,-34.104 c 0,0 0.152,-16.062 2.244,-16.062 v 0 c 2.092,0 52.298,-4.882 52.298,-4.882 v 0 c 0,0 27.893,-17.433 32.077,-17.433 v 0 c 4.185,0 42.537,-6.276 46.72,-4.881 v 0 c 4.184,1.395 87.165,25.104 89.954,25.104 v 0 c 2.789,0 37.656,0.697 55.786,0.697 v 0 c 18.131,0 38.353,8.368 41.84,9.762 v 0 c 3.486,1.395 22.313,36.261 22.313,36.261 v 0 l 7.671,13.249 c 0,0 -15.341,52.299 -15.341,57.18 v 0 c 0,4.881 -20.222,22.314 -21.617,24.406 v 0 c -1.394,2.092 -20.92,18.828 -20.92,18.828 v 0 l -2.519,27.996 -36.084,23.533 -10.983,31.377 -15.688,40.792 -36.085,10.981 -42.36,7.845 c 0,0 -39.222,-26.671 -48.635,-26.671" />
    </clipPath>
    <clipPath
       id="clipPath2223"
       clipPathUnits="userSpaceOnUse">
      <path
         id="path2221"
         d="M 0,1695.562 H 1520.003 V 0 H 0 Z" />
    </clipPath>
    <clipPath
       id="clipPath2255"
       clipPathUnits="userSpaceOnUse">
      <path
         id="path2253"
         d="m 662.389,1296.906 c -2.001,-1.333 -46.667,-15.333 -46.667,-15.333 v 0 c 0,0 -51.333,-24 -54,-24.666 v 0 c -2.666,-0.667 -16,-44.667 -16,-44.667 v 0 l -2.882,-28.713 14.882,-28.62 v -30.001 c 0,0 13.333,-25.333 16.667,-30.666 v 0 c 3.334,-5.334 16.666,-16.667 16.666,-16.667 v 0 l 38,0.667 19.334,-10 14,10.666 15.333,24.667 32,28 6.667,33.334 -4.666,20 1.333,26.666 15.333,35.334 26.251,11.927 -40.252,44.739 c 0,0 -49.999,-5.334 -51.999,-6.667" />
    </clipPath>
  </defs>
  <metadata
     id="metadata3532">
    <rdf:RDF>
      <cc:Work
         rdf:about="">
        <dc:format>image/svg+xml</dc:format>
        <dc:type
           rdf:resource="http://purl.org/dc/dcmitype/StillImage" />
        <dc:title></dc:title>
      </cc:Work>
    </rdf:RDF>
  </metadata>
  <g
     transform="translate(0,-244.08332)"
     id="layer1">
    <g
       id="g4464"
       transform="matrix(0.14762133,0,0,-0.14762133,-76.664156,434.92588)">
      <g
         id="g2165">
        <g
           id="g2167"
           clip-path="url(#clipPath2171)">
          <g
             id="g2173"
             transform="translate(519.3298,1027.0106)">
            <path
               d="m 0,0 7.821,29.437 v 45.497 c 0,9.414 4.707,47.067 4.707,47.067 l 10.982,34.516 47.067,62.755 c 0,0 28.24,4.707 37.653,4.707 9.414,0 48.636,26.67 48.636,26.67 l 42.36,-7.844 36.084,-10.982 15.689,-40.791 10.982,-31.378 36.085,-23.533 2.518,-27.996 c 0,0 19.526,-16.735 20.92,-18.828 1.395,-2.091 21.618,-19.525 21.618,-24.405 0,-4.882 15.34,-57.181 15.34,-57.181 l -7.67,-13.249 c 0,0 -18.828,-34.866 -22.314,-36.26 -3.487,-1.395 -23.709,-9.762 -41.84,-9.762 -18.13,0 -52.996,-0.698 -55.785,-0.698 -2.789,0 -85.77,-23.709 -89.954,-25.103 -4.184,-1.395 -42.536,4.881 -46.72,4.881 -4.184,0 -32.077,17.433 -32.077,17.433 0,0 -50.207,4.881 -52.299,4.881 -2.092,0 -2.244,16.062 -2.244,16.062 z"
               style="fill:#9c8577;fill-opacity:1;fill-rule:nonzero;stroke:none"
               id="path2175" />
          </g>
        </g>
      </g>
      <g
         id="g2177">
        <g
           id="g2179"
           clip-path="url(#clipPath2183)">
          <g
             id="g2185"
             transform="translate(581.4318,971.9633)">
            <path
               d="m 0,0 17.957,0.61 21.5,6 22.5,8 -14.5,-11 -4.5,-6 8,-4 15,-1.5 8.5,2.5 5,8.5 9,8 2.5,-4.5 6.834,-4 9.166,-4.834 28.667,17.834 -2.333,9.333 30.833,-2.667 7.167,-6.5 7,-12 -9.834,-14.666 -38,-33 -110,5 -22.5,16.5 z"
               style="fill:#826d5f;fill-opacity:1;fill-rule:nonzero;stroke:none"
               id="path2187" />
          </g>
          <g
             id="g2189"
             transform="translate(648.3889,1068.2396)">
            <path
               d="m 0,0 c 0,0 6.5,-5.5 8.333,-7 1.834,-1.5 8.334,-14.667 9,-16.333 0.667,-1.667 1.334,-12.334 2.834,-15.334 1.5,-3 0.833,-5.999 5.166,-9.999 4.334,-4 9.5,-10.667 12.834,-13.334 C 41.5,-64.666 56,-70.166 58.5,-70.833 61,-71.5 64.667,-74 64.667,-74 l 2.666,-6 c 0,0 5,8.334 5,11.334 C 72.333,-65.666 44,-22.667 44,-22 44,-21.333 0,0 0,0"
               style="fill:#b09b8f;fill-opacity:1;fill-rule:nonzero;stroke:none"
               id="path2191" />
          </g>
          <g
             id="g2193"
             transform="translate(648.3889,1068.2396)">
            <path
               d="m 0,0 11,-6 c 0,0 9.667,-16 9.667,-18.333 0,-2.334 4.666,-19 4.666,-19 l 14,-17.667 c 0,0 22.667,-9.333 23.667,-9.666 1,-0.334 19.333,-11 20.667,-11 1.333,0 18.127,-11.821 18.127,-11.821 l 32.206,-4.846 40.333,-2.333 44.334,10.333 c 0,0 20,38 20,39 0,1 10.333,41.333 10.333,41.333 L 219,95.667 191.667,151 l -56.334,37.333 -57.666,10.334 -42.334,-41 z"
               style="fill:#826d5f;fill-opacity:1;fill-rule:nonzero;stroke:none"
               id="path2195" />
          </g>
          <g
             id="g2197"
             transform="translate(713.0554,1211.5731)">
            <path
               d="m 0,0 0.667,-13 c 0,0 6,-10.333 6,-12 0,-1.667 3.333,-12.333 3.333,-12.333 0,0 2,-14.334 2,-15.334 C 12,-53.667 3.667,-95 3.667,-95 l -1.334,-16.5 12,17.167 c 0,0 30.334,20.666 31,21.666 C 46,-71.667 60,-54.333 60,-54.333 L 68.255,-24.908 41.584,47.26 0.667,42.333 -22,20 Z"
               style="fill:#6e5b4c;fill-opacity:1;fill-rule:nonzero;stroke:none"
               id="path2199" />
          </g>
          <g
             id="g2201"
             transform="translate(527.1511,1056.4471)">
            <path
               d="m 0,0 c 0,0 23.571,10.459 24.571,10.792 1,0.334 23.333,5 23.333,5 l 16,5.334 -4.333,34.666 -13.333,56 -42,29.667 -21.334,-13.667 c 0,0 -13.666,-32 -13.666,-33.666 C -30.762,92.459 0,0 0,0"
               style="fill:#8f796a;fill-opacity:1;fill-rule:nonzero;stroke:none"
               id="path2203" />
          </g>
          <g
             id="g2205"
             transform="translate(754.6398,1258.8334)">
            <path
               d="m 0,0 -26.251,-11.927 -15.333,-35.333 -1.333,-26.667 4.666,-20 -6.666,-33.333 -32,-28 -15.334,-24.667 -14,-10.667 -19.333,10 -38,-0.666 c 0,0 -13.333,11.333 -16.667,16.666 -3.333,5.334 -16.666,30.667 -16.666,30.667 v 30 l -14.883,28.621 2.883,28.712 c 0,0 13.333,44 16,44.667 2.666,0.667 54,24.667 54,24.667 0,0 44.666,14 46.666,15.333 2,1.333 52,6.667 52,6.667 z"
               style="fill:#b39f92;fill-opacity:1;fill-rule:nonzero;stroke:none"
               id="path2207" />
          </g>
          <g
             id="g2209"
             transform="translate(519.3298,1027.0106)">
            <path
               d="m 0,0 21.059,-16.771 c 0,0 25.334,-6.333 26.667,-6.333 h 22 l 30.333,-20.333 4.334,-11 -56.334,-11.667 -57.666,-2 -10.334,13 z"
               style="fill:#8f796a;fill-opacity:1;fill-rule:nonzero;stroke:none"
               id="path2211" />
          </g>
          <g
             id="g2213"
             transform="translate(715.7224,988.2397)">
            <path
               d="M 0,0 20,-9 54.333,-1 74,2.333 85.333,21 l 14,4.333 11.334,8 c 0,0 7,51.334 8,53.334 1,2 10,19.666 11.333,21 1.333,1.333 17,-2 17,-2 l 15.07,-59.185 c 0,0 -18.737,-48.482 -23.07,-56.815 -4.333,-8.334 -37,-31 -37,-31 l -79,-3.334 c 0,0 -15.667,2 -16.667,2 -1,0 -19.333,3.334 -19.333,3.334 l -7,6 -7.333,14.833 z"
               style="fill:#6e5b4c;fill-opacity:1;fill-rule:nonzero;stroke:none"
               id="path2215" />
          </g>
        </g>
      </g>
      <g
         id="g2217">
        <g
           id="g2219"
           clip-path="url(#clipPath2223)">
          <g
             id="g2225"
             transform="translate(862.7219,1093.9066)">
            <path
               d="m 0,0 c 0,0 -13.666,-8 -14.333,-9.667 -0.667,-1.666 -5,-26 -5,-30.666 C -19.333,-45 -26,-60 -27,-63 c -1,-3 -9.333,-9.333 -9.333,-9.333 0,0 -7,4.333 -10,8.333 -3,4 -17.333,14.667 -17.333,14.667 l -15.667,-18 c 0,0 -6.333,16.333 -6.333,20.333 0,4 11,47 11,47 l 13.333,26.333 18.525,14.896 z"
               style="fill:#8f796a;fill-opacity:1;fill-rule:nonzero;stroke:none"
               id="path2227" />
          </g>
          <g
             id="g2229"
             transform="translate(819.9142,1135.1356)">
            <path
               d="m 0,0 -6.525,-12.563 -10,-11.499 -3.5,-14.501 -2,-21 -15,-26.5 0.5,-22.5 -7.5,-2.999 c 0,0 0.5,16.499 -0.5,21.499 -1,5 -8.5,32 -8.5,32 0,0 -2,8 -6,11 -4,3 -25,11.5 -25,11.5 l -20.5,0.5 50.5,46.001 44.5,14.999 7.006,2.059 z"
               style="fill:#6e5b4c;fill-opacity:1;fill-rule:nonzero;stroke:none"
               id="path2231" />
          </g>
          <g
             id="g2233"
             transform="translate(781.3107,1186.6649)">
            <path
               d="m 0,0 -11.922,-22.592 -22,-21.5 -17,-11.5 -13,-23 -2,-8 14,7.5 30.5,3 c 0,0 20,10.5 21.5,12 1.5,1.5 24.5,20.5 24.5,20.5 l 11.507,20.059 z"
               style="fill:#b09d90;fill-opacity:1;fill-rule:nonzero;stroke:none"
               id="path2235" />
          </g>
          <g
             id="g2237"
             transform="translate(676.1955,1277.66)">
            <path
               d="m 0,0 6.193,-7.837 20,-6.75 26,-16.166 26.251,11.926 -36.084,10.983 z"
               style="fill:#c4b3a6;fill-opacity:1;fill-rule:nonzero;stroke:none"
               id="path2239" />
          </g>
          <g
             id="g2241"
             transform="translate(589.9069,1246.2826)">
            <path
               d="m 0,0 5.815,-8.709 15.667,-13.334 c 0,0 1.666,-12 2.333,-14 0.667,-2 15.667,-19 17.333,-21 1.667,-2 10.667,-9 10.667,-10 0,-1 2.333,-10 8,-12.666 5.667,-2.667 20.667,-8.334 20.667,-8.334 l 33.666,-17.333 -16.666,39 0.333,35.333 -21,20.334 -36.667,15.333 z"
               style="fill:#c4b3a6;fill-opacity:1;fill-rule:nonzero;stroke:none"
               id="path2243" />
          </g>
          <g
             id="g2245"
             transform="translate(588.0554,1092.2396)">
            <path
               d="m 0,0 c 2.333,-0.667 37.667,-5.333 39.667,-6.667 2,-1.333 24.666,-5 24.666,-5 l 12.667,5 8.333,22 c 0,0 -9.666,7.667 -17,11.667 C 61,31 45.333,49.333 43,53.333 c -2.333,4 -20.333,16 -22,17 -1.667,1 -32,-0.666 -32,-0.666 l -19.333,-7 L -29,33 Z"
               style="fill:#c4b3a6;fill-opacity:1;fill-rule:nonzero;stroke:none"
               id="path2247" />
          </g>
        </g>
      </g>
      <g
         id="g2249">
        <g
           id="g2251"
           clip-path="url(#clipPath2255)">
          <g
             id="g2257"
             transform="translate(754.6398,1258.8334)">
            <path
               d="m 0,0 -28.626,-10.135 c 0,0 -12,-27.125 -13,-30.125 -1,-3 -2,-9.25 -2.5,-10.875 -0.5,-1.625 -1.125,-18 -1,-21.25 0.125,-3.25 5.5,-17.75 5.125,-21.125 -0.375,-3.375 -5.75,-30.75 -5.75,-30.75 0,0 -9.75,-9.75 -11.875,-12 -2.125,-2.25 -19.875,-19.5 -19.875,-19.5 l 22.5,12.125 23.084,30.041 c 0,0 12,39.667 13.333,47.334 1.333,7.666 10.667,32.666 11.333,35 C -6.584,-28.927 0,0 0,0"
               style="fill:#c4b3a6;fill-opacity:1;fill-rule:nonzero;stroke:none"
               id="path2259" />
          </g>
        </g>
      </g>
    </g>
  </g>
</svg>
