<?xml version="1.0" encoding="UTF-8" standalone="no"?>
<svg
   xmlns:dc="http://purl.org/dc/elements/1.1/"
   xmlns:cc="http://creativecommons.org/ns#"
   xmlns:rdf="http://www.w3.org/1999/02/22-rdf-syntax-ns#"
   xmlns:svg="http://www.w3.org/2000/svg"
   xmlns="http://www.w3.org/2000/svg"
   id="svg3535"
   version="1.1"
   viewBox="0 0 52.916665 52.916668"
   height="200"
   width="200">
  <defs
     id="defs3529">
    <clipPath
       id="clipPath2679"
       clipPathUnits="userSpaceOnUse">
      <path
         id="path2677"
         d="m 814.938,738.189 -8,-16.999 -3.999,-11.25 c 0,0 -23.751,-24.584 -22,-25.168 v 0 c 1.75,-0.583 55.75,6.417 55.75,6.417 v 0 l 22.249,15.5 17.184,12.064 -51.718,28.732 z" />
    </clipPath>
    <clipPath
       id="clipPath2667"
       clipPathUnits="userSpaceOnUse">
      <path
         id="path2665"
         d="M 0,1695.562 H 1520.003 V 0 H 0 Z" />
    </clipPath>
    <clipPath
       id="clipPath2655"
       clipPathUnits="userSpaceOnUse">
      <path
         id="path2653"
         d="M 587.159,790.994 569.1,745.844 c 0,0 31.839,-11.905 32.338,-13.905 v 0 c 0.501,-1.999 39.501,-38.25 41.001,-39.249 v 0 c 1.499,-1 53.499,-15.251 53.499,-15.251 v 0 l 16.001,3.001 -7.001,43.499 -15.499,15.5 -48.5,18 -46.501,15.501 z" />
    </clipPath>
    <clipPath
       id="clipPath2631"
       clipPathUnits="userSpaceOnUse">
      <path
         id="path2629"
         d="M 0,1695.562 H 1520.003 V 0 H 0 Z" />
    </clipPath>
    <clipPath
       id="clipPath2615"
       clipPathUnits="userSpaceOnUse">
      <path
         id="path2613"
         d="m 672.535,872.265 -23.807,-39.404 -61.569,-41.867 -18.059,-45.15 2.462,-72.242 c 0,0 -12.314,-44.328 -16.419,-48.433 v 0 c -4.104,-4.104 -33.657,-33.658 -33.657,-33.658 v 0 c 5.747,-33.658 61.569,-40.225 65.673,-40.225 v 0 c 4.105,0 50.076,-18.881 64.853,-18.881 v 0 c 14.776,0 51.718,0 69.778,2.463 v 0 c 18.059,2.462 82.091,19.701 82.091,19.701 v 0 l 73.39,11.203 c 0,0 25.121,15.888 25.121,19.993 v 0 68.956 c 0,0 -7.389,29.553 -10.672,38.583 v 0 c -3.284,9.031 -15.598,25.449 -15.598,25.449 v 0 l -51.718,28.732 -28.732,27.09 -27.09,-0.82 -13.955,27.089 c 0,0 -9.852,22.165 -7.389,32.838 v 0 c 2.463,10.671 -14.777,31.195 -14.777,31.195 v 0 l -24.627,15.597 z" />
    </clipPath>
    <clipPath
       id="clipPath2595"
       clipPathUnits="userSpaceOnUse">
      <path
         id="path2593"
         d="M 0,1695.562 H 1520.003 V 0 H 0 Z" />
    </clipPath>
    <clipPath
       id="clipPath2571"
       clipPathUnits="userSpaceOnUse">
      <path
         id="path2569"
         d="m 672.535,872.265 -23.807,-39.404 -61.569,-41.867 -18.059,-45.15 2.462,-72.242 c 0,0 -12.314,-44.328 -16.419,-48.433 v 0 c -4.104,-4.104 -33.657,-33.658 -33.657,-33.658 v 0 c 5.747,-33.658 61.569,-40.225 65.673,-40.225 v 0 c 4.105,0 50.076,-18.881 64.853,-18.881 v 0 c 14.776,0 51.718,0 69.778,2.463 v 0 c 18.059,2.462 82.091,19.701 82.091,19.701 v 0 l 73.39,11.203 c 0,0 25.121,15.888 25.121,19.993 v 0 68.956 c 0,0 -7.389,29.553 -10.672,38.583 v 0 c -3.284,9.031 -15.598,25.449 -15.598,25.449 v 0 l -51.718,28.732 -28.732,27.09 -27.09,-0.82 -13.955,27.089 c 0,0 -9.852,22.165 -7.389,32.838 v 0 c 2.463,10.671 -14.777,31.195 -14.777,31.195 v 0 l -24.627,15.597 z" />
    </clipPath>
    <clipPath
       id="clipPath2555"
       clipPathUnits="userSpaceOnUse">
      <path
         id="path2553"
         d="M 0,1695.562 H 1520.003 V 0 H 0 Z" />
    </clipPath>
    <clipPath
       id="clipPath2539"
       clipPathUnits="userSpaceOnUse">
      <path
         id="path2537"
         d="m 672.535,872.265 -23.807,-39.404 -61.569,-41.867 -18.059,-45.15 2.462,-72.242 c 0,0 -12.314,-44.328 -16.419,-48.433 v 0 c -4.104,-4.104 -33.657,-33.658 -33.657,-33.658 v 0 c 5.747,-33.658 61.569,-40.225 65.673,-40.225 v 0 c 4.105,0 50.076,-18.881 64.853,-18.881 v 0 c 14.776,0 51.718,0 69.778,2.463 v 0 c 18.059,2.462 82.091,19.701 82.091,19.701 v 0 l 73.39,11.203 c 0,0 25.121,15.888 25.121,19.993 v 0 68.956 c 0,0 -7.389,29.553 -10.672,38.583 v 0 c -3.284,9.031 -15.598,25.449 -15.598,25.449 v 0 l -51.718,28.732 -28.732,27.09 -27.09,-0.82 -13.955,27.089 c 0,0 -9.852,22.165 -7.389,32.838 v 0 c 2.463,10.671 -14.777,31.195 -14.777,31.195 v 0 l -24.627,15.597 z" />
    </clipPath>
    <clipPath
       id="clipPath2527"
       clipPathUnits="userSpaceOnUse">
      <path
         id="path2525"
         d="m 672.535,872.265 -23.807,-39.404 -61.569,-41.867 -18.059,-45.15 2.462,-72.242 c 0,0 -12.314,-44.328 -16.419,-48.433 v 0 c -4.104,-4.104 -33.657,-33.658 -33.657,-33.658 v 0 c 5.747,-33.658 61.569,-40.225 65.673,-40.225 v 0 c 4.105,0 50.076,-18.881 64.853,-18.881 v 0 c 14.776,0 51.718,0 69.778,2.463 v 0 c 18.059,2.462 82.091,19.701 82.091,19.701 v 0 l 73.39,11.203 c 0,0 25.121,15.888 25.121,19.993 v 0 68.956 c 0,0 -7.389,29.553 -10.672,38.583 v 0 c -3.284,9.031 -15.598,25.449 -15.598,25.449 v 0 l -51.718,28.732 -28.732,27.09 -27.09,-0.82 -13.955,27.089 c 0,0 -7.78,17.505 -7.785,28.892 v 0 c 0,1.427 0.121,2.758 0.396,3.946 v 0 c 0.163,0.708 0.24,1.46 0.24,2.247 v 0 c 0.009,11.059 -15.017,28.948 -15.017,28.948 v 0 l -24.627,15.597 z" />
    </clipPath>
    <clipPath
       id="clipPath2515"
       clipPathUnits="userSpaceOnUse">
      <path
         id="path2513"
         d="M 0,1695.562 H 1520.003 V 0 H 0 Z" />
    </clipPath>
  </defs>
  <metadata
     id="metadata3532">
    <rdf:RDF>
      <cc:Work
         rdf:about="">
        <dc:format>image/svg+xml</dc:format>
        <dc:type
           rdf:resource="http://purl.org/dc/dcmitype/StillImage" />
        <dc:title></dc:title>
      </cc:Work>
    </rdf:RDF>
  </metadata>
  <g
     transform="translate(0,-244.08332)"
     id="layer1">
    <g
       transform="matrix(0.39379795,0,0,0.39379795,19.932821,163.84556)"
       id="g4422">
      <g
         transform="matrix(0.35277777,0,0,-0.35277777,-234.58554,520.15736)"
         id="g2509">
        <g
           id="g2511"
           clip-path="url(#clipPath2515)">
          <g
             id="g2517"
             transform="translate(521.486,591.5107)">
            <path
               d="m 0,0 c 0,0 29.553,29.554 33.658,33.658 4.104,4.105 16.418,48.434 16.418,48.434 l -2.463,72.241 18.06,45.15 61.569,41.867 23.807,39.404 35.299,8.209 24.628,-15.597 c 0,0 17.239,-20.523 14.776,-31.195 -2.462,-10.672 7.389,-32.837 7.389,-32.837 l 13.955,-27.09 27.09,0.82 28.732,-27.089 51.718,-28.733 c 0,0 12.314,-16.418 15.598,-25.448 3.283,-9.03 10.672,-38.583 10.672,-38.583 V -5.746 c 0,-4.105 -25.12,-19.992 -25.12,-19.992 l -73.391,-11.203 c 0,0 -64.031,-17.24 -82.091,-19.702 -18.06,-2.462 -55.002,-2.462 -69.778,-2.462 -14.777,0 -60.748,18.88 -64.853,18.88 C 61.569,-40.225 5.747,-33.657 0,0"
               style="fill:#9c887b;fill-opacity:1;fill-rule:nonzero;stroke:none"
               id="path2519" />
          </g>
        </g>
      </g>
      <g
         transform="matrix(0.35277777,0,0,-0.35277777,-234.58554,520.15736)"
         id="g2521">
        <g
           id="g2523"
           clip-path="url(#clipPath2527)">
          <g
             id="g2529"
             transform="translate(695.9387,677.4394)">
            <path
               d="M 0,0 -2.667,-35.333 -33,-51 -57,-68.5 -60.667,-87.333 -80,-104 l -34.667,-3.333 -59.786,21.404 -3.547,-25.404 c 0,0 22,-33.334 24,-33.334 2,0 139.333,-14 142,-15.333 2.667,-1.333 78.667,-2 78.667,-2 l 43.333,29.333 16,24 -12.667,38 L 74,-46 58.667,-30 44,15.333 Z"
               style="fill:#8a7466;fill-opacity:1;fill-rule:nonzero;stroke:none"
               id="path2531" />
          </g>
        </g>
      </g>
      <g
         transform="matrix(0.35277777,0,0,-0.35277777,-234.58554,520.15736)"
         id="g2533">
        <g
           id="g2535"
           clip-path="url(#clipPath2539)">
          <g
             id="g2541"
             transform="translate(711.9387,680.4394)">
            <path
               d="M 0,0 33.333,-12.333 42.667,-33 c 0,0 -1.334,-28.667 -0.667,-30.667 0.667,-2 6,-33.333 6,-33.333 l 43.942,-28.87 32.725,-10.463 48.582,7.561 34.751,4.439 19.333,68.666 -2.666,47.334 c 0,0 -25.334,40.666 -26.667,43.333 -1.333,2.667 -65.333,47.333 -65.333,47.333 l -30,19.334 -39.334,34 c 0,0 -12.666,30.666 -14,34.666 C 48,174.333 30,201 30,201 l -18,8.667 -30,-10 L -30.667,133 Z"
               style="fill:#786254;fill-opacity:1;fill-rule:nonzero;stroke:none"
               id="path2543" />
          </g>
          <g
             id="g2545"
             transform="translate(704.9387,723.9394)">
            <path
               d="m 0,0 c 0,0 2,15.167 2,18.167 0,3 7.75,21.333 7.75,21.333 l -9.417,35 -20,28.667 -10,12 L -56.21,108.921 -97,99.5 l -34,-25 6.333,-26.333 19,-12.667 z"
               style="fill:#b39f92;fill-opacity:1;fill-rule:nonzero;stroke:none"
               id="path2547" />
          </g>
        </g>
      </g>
      <g
         transform="matrix(0.35277777,0,0,-0.35277777,-234.58554,520.15736)"
         id="g2549">
        <g
           id="g2551"
           clip-path="url(#clipPath2555)">
          <g
             id="g2557"
             transform="translate(648.7282,832.8608)">
            <path
               d="m 0,0 23.46,-1.921 4,-8.5 c 0,0 5.5,-13.25 6.25,-14.75 0.75,-1.5 11.75,-18.5 12.5,-20.5 0.75,-2 19.25,-23 19.75,-23.75 0.5,-0.75 2,6.25 2,6.25 l 2.5,10.25 c 0,0 -4,26.5 -4,28 0,1.5 -2.5,32.75 -2.5,33.5 0,0.75 -9.75,16.25 -9.75,16.25 L 23.807,39.404 Z"
               style="fill:#8f796a;fill-opacity:1;fill-rule:nonzero;stroke:none"
               id="path2559" />
          </g>
          <g
             id="g2561"
             transform="translate(672.5349,872.2646)">
            <path
               d="m 0,0 9.737,-16.159 20,-14 9,-35 7.334,-27.999 1.333,22.999 9,19.667 c 0,0 -3,24 -3.667,26.333 -0.666,2.334 -9.666,17.667 -9.666,17.667 L 35.299,8.209 Z"
               style="fill:#b39f92;fill-opacity:1;fill-rule:nonzero;stroke:none"
               id="path2563" />
          </g>
        </g>
      </g>
      <g
         transform="matrix(0.35277777,0,0,-0.35277777,-234.58554,520.15736)"
         id="g2565">
        <g
           id="g2567"
           clip-path="url(#clipPath2571)">
          <g
             id="g2573"
             transform="translate(571.5617,673.6025)">
            <path
               d="m 0,0 2.127,-13.163 65.25,-51.5 43.25,17.75 11.083,15.417 -22.833,28.833 c 0,0 -40,19.25 -40,20 0,0.75 -33.25,-3 -33.25,-3 l -22.5,8.75 -15.75,2.5 z"
               style="fill:#b39f92;fill-opacity:1;fill-rule:nonzero;stroke:none"
               id="path2575" />
          </g>
          <g
             id="g2577"
             transform="translate(601.4387,731.9394)">
            <path
               d="M 0,0 2.25,-6.75 4,-18.25 4.25,-31.75 7,-24.5 9,-13.25 14,-15 16.5,-4.75 Z"
               style="fill:#8a7466;fill-opacity:1;fill-rule:nonzero;stroke:none"
               id="path2579" />
          </g>
          <g
             id="g2581"
             transform="translate(587.1594,790.9941)">
            <path
               d="m 0,0 7.279,-18.055 46.5,-15.5 48.5,-18 15.5,-15.5 7,-43.5 -16,-3 c 0,0 -52,14.25 -53.5,15.25 -1.5,1 -40.5,37.25 -41,39.25 -0.5,2 -32.339,13.905 -32.339,13.905 l -0.161,38.595 z"
               style="fill:#b39f92;fill-opacity:1;fill-rule:nonzero;stroke:none"
               id="path2583" />
          </g>
          <g
             id="g2585"
             transform="translate(795.6721,774.5751)">
            <path
               d="m 0,0 -2.733,-7.469 -3.667,-11.334 -19,-21 -9,-33 -2.333,-18.666 -7.75,-9.167 3.417,-26.5 5.666,13.667 20.667,23.666 24.667,14 21.333,17 22.333,7.667 26.85,-4.686 -36.85,46.353 z"
               style="fill:#8a7466;fill-opacity:1;fill-rule:nonzero;stroke:none"
               id="path2587" />
          </g>
        </g>
      </g>
      <g
         transform="matrix(0.35277777,0,0,-0.35277777,-234.58554,520.15736)"
         id="g2589">
        <g
           id="g2591"
           clip-path="url(#clipPath2595)">
          <g
             id="g2597"
             transform="translate(557.6887,622.9394)">
            <path
               d="m 0,0 c 0,0 -7.5,-7.5 -8.5,-9 -1,-1.5 -11,-9.25 -12.5,-11.25 -1.5,-2 -3,-5.5 -1.25,-7.25 1.75,-1.75 17.75,-2.75 21.75,-4 4,-1.25 17.25,-4.75 21.75,-5.75 4.5,-1 14,0 17.25,0 3.25,0 19,9.75 20.75,10.25 1.75,0.5 -1.5,11.25 -3.75,15.25 C 53.25,-7.75 31,4.25 28,7.5 25,10.75 15.25,27 15.25,27 15.25,27 1,7 0,0"
               style="fill:#a69285;fill-opacity:1;fill-rule:nonzero;stroke:none"
               id="path2599" />
          </g>
          <g
             id="g2601"
             transform="translate(682.1887,626.6894)">
            <path
               d="M 0,0 5.5,-11.5 8.75,-34 V -65 L 12,-47.5 c 0,0 7,17.5 7,19 v 20 l -4.75,20.25 -0.5,39 -2.667,-35.333 z"
               style="fill:#786254;fill-opacity:1;fill-rule:nonzero;stroke:none"
               id="path2603" />
          </g>
          <g
             id="g2605"
             transform="translate(768.5822,773.7548)">
            <path
               d="m 0,0 -3.394,-11.565 3.25,-14 1.833,-13.417 19,21 6.401,18.802 z"
               style="fill:#9c887b;fill-opacity:1;fill-rule:nonzero;stroke:none"
               id="path2607" />
          </g>
        </g>
      </g>
      <g
         transform="matrix(0.35277777,0,0,-0.35277777,-234.58554,520.15736)"
         id="g2609">
        <g
           id="g2611"
           clip-path="url(#clipPath2615)">
          <g
             id="g2617"
             transform="translate(587.1594,551.2861)">
            <path
               d="m 0,0 c 0,0 41.113,-8.514 42.113,-8.514 1,0 14.666,-0.666 14.666,-0.666 l 8,8 4,-3.667 -0.333,-3.333 c 0,0 8.667,-5.334 12,-5.667 3.333,-0.333 29.333,-0.667 32.667,-0.667 3.333,0 4.666,8.334 4.666,8.334 l 1.334,11.333 1.333,0.667 1.333,-7.334 c 0,0 5.334,-1 6.334,-1.666 1,-0.667 9,-2 17,-3 8,-1 16.666,5 16.666,5 0,0 19.333,1 24,1 4.667,0 13.667,5 13.667,5 l -7.334,15 c 0,0 17.334,2.333 18.334,2.666 1,0.334 21.333,-4.333 24.333,-17.333 3,-13 -70,-40 -70,-40 l -139,-16 z"
               style="fill:#695548;fill-opacity:1;fill-rule:nonzero;stroke:none"
               id="path2619" />
          </g>
          <g
             id="g2621"
             transform="translate(759.9387,583.4394)">
            <path
               d="M 0,0 57.333,0.667 76,13.333 l 7.333,12 2.667,12 L 94.5,31 c 0,0 2.75,-4 4.25,-4.5 1.5,-0.5 3.75,5.25 4.75,6.25 1,1 5.75,8.5 6.25,10.75 0.5,2.25 4.75,11.75 4.75,16.75 0,5 1.75,7 2.5,7 0.75,0 13.5,3.25 14,4.25 0.5,1 3.75,6.75 3.75,6.75 l 7.703,-6.968 c 0,0 10.88,-39.949 16.214,-48.615 5.333,-8.667 12.666,-38 12.666,-38 L 128,-67.333 82.667,-70 47.333,-32.667 43.942,-28.87 Z"
               style="fill:#695548;fill-opacity:1;fill-rule:nonzero;stroke:none"
               id="path2623" />
          </g>
        </g>
      </g>
      <g
         transform="matrix(0.35277777,0,0,-0.35277777,-234.58554,520.15736)"
         id="g2625">
        <g
           id="g2627"
           clip-path="url(#clipPath2631)">
          <g
             id="g2633"
             transform="translate(595.4387,770.1894)">
            <path
               d="M 0,0 C 0,0 16,-7.25 22.25,-10.75 28.5,-14.25 62.5,-23 69,-25.5 c 6.5,-2.5 20.75,-8.75 23.25,-12 2.5,-3.25 6.5,-15 9.5,-21.5 3,-6.5 4.75,-17.5 4.75,-18.75 0,-1.25 -16.25,-2.5 -19.25,-2.25 -3,0.25 -33.5,13 -38.75,16.25 -5.25,3.25 -17.5,20 -23.75,24.5 -6.25,4.5 -31.25,16.75 -31.25,16.75 0,0 -7.75,2 -9,5 -1.25,3 -0.25,10 0.75,11.25 C -13.75,-5 0,0 0,0"
               style="fill:#c4b3a6;fill-opacity:1;fill-rule:nonzero;stroke:none"
               id="path2635" />
          </g>
          <g
             id="g2637"
             transform="translate(637.2722,815.1059)">
            <path
               d="m 0,0 c 0,0 -3.167,-3.667 -10,-9 -6.833,-5.333 -23.167,-10.833 -23.667,-11 -0.5,-0.167 -6.5,-4.667 -6.5,-4.667 l -1,-7 -0.666,-13.25 c 0,0 10.666,-5.416 14.833,-6.75 4.167,-1.333 8.167,-8.5 10.667,-9.333 2.5,-0.833 18.166,-2 19.666,-2.333 1.5,-0.334 13.334,-4.334 14.334,-3.167 1,1.167 -1.834,10.333 1.833,15.167 3.667,4.833 12,13 14,16.5 2,3.5 -1.833,22 -3.167,25 -1.333,3 -15.5,19 -15.5,19 z"
               style="fill:#c4b3a6;fill-opacity:1;fill-rule:nonzero;stroke:none"
               id="path2639" />
          </g>
          <g
             id="g2641"
             transform="translate(824.4045,747.4853)">
            <path
               d="m 0,0 -9.466,-9.296 -8,-17 -4,-11.25 c 0,0 -23.75,-24.583 -22,-25.167 1.75,-0.583 55.75,6.417 55.75,6.417 l 22.25,15.5 17.184,12.064 z"
               style="fill:#9c887b;fill-opacity:1;fill-rule:nonzero;stroke:none"
               id="path2643" />
          </g>
          <g
             id="g2645"
             transform="translate(707.9387,879.6059)">
            <path
               d="m 0,0 c 0,0 8.667,-23.167 10.667,-26.5 2,-3.333 5,-9.667 5.5,-12.667 0.5,-3 2.166,-13.666 2.166,-15.666 0,-2 -7.333,-18.334 -7.5,-19.834 -0.166,-1.5 -4,-35.5 -5.166,-39.166 -1.167,-3.667 -8.834,-12.667 -9.5,-20 -0.667,-7.334 -1.5,-18.5 -1.5,-22.167 0,-3.667 9.166,-42.167 9.166,-42.167 l -6.833,42.5 2,18.167 8.25,21.833 4,16 0.75,22.167 9,19.667 -3.667,26.333 z"
               style="fill:#c2ac9e;fill-opacity:1;fill-rule:nonzero;stroke:none"
               id="path2647" />
          </g>
        </g>
      </g>
      <g
         transform="matrix(0.35277777,0,0,-0.35277777,-234.58554,520.15736)"
         id="g2649">
        <g
           id="g2651"
           clip-path="url(#clipPath2655)">
          <g
             id="g2657"
             transform="translate(572.4387,753.9394)">
            <path
               d="M 0,0 C 0,0 0.25,-5.375 2.875,-7.75 5.5,-10.125 26,-16.625 29.375,-19.125 32.75,-21.625 65.875,-54 69.5,-56.5 c 3.625,-2.5 21.375,-6.125 32.125,-10.5 10.75,-4.375 21.625,-8 21.625,-8 l 16.25,1.5 c 0,0 -5.667,-10.667 -7,-11.667 -1.333,-1 -92.667,-2 -92.667,-2 l -61,58 15.334,30 z"
               style="fill:#c4b3a6;fill-opacity:1;fill-rule:nonzero;stroke:none"
               id="path2659" />
          </g>
        </g>
      </g>
      <g
         transform="matrix(0.35277777,0,0,-0.35277777,-234.58554,520.15736)"
         id="g2661">
        <g
           id="g2663"
           clip-path="url(#clipPath2667)">
          <g
             id="g2669"
             transform="translate(690.4387,679.0644)">
            <path
               d="M 0,0 C 0,0 2.625,-3.25 2.875,-4.875 3.125,-6.5 1.5,-32.25 1.5,-32.25 c 0,0 -0.375,-2.125 -0.875,-3.625 -0.5,-1.5 -10.75,-13.25 -11.375,-14.25 -0.625,-1 -41.75,-18 -41.75,-18 l -2.667,-20.833 3.667,18.833 43.25,17.75 11.083,15.417 2.667,35.333 z"
               style="fill:#c4b3a6;fill-opacity:1;fill-rule:nonzero;stroke:none"
               id="path2671" />
          </g>
        </g>
      </g>
      <g
         transform="matrix(0.35277777,0,0,-0.35277777,-234.58554,520.15736)"
         id="g2673">
        <g
           id="g2675"
           clip-path="url(#clipPath2679)">
          <g
             id="g2681"
             transform="translate(867.2717,723.7724)">
            <path
               d="m 0,0 c 0,0 2.167,-2.5 1.5,-4.5 -0.666,-2 -31.333,-23.666 -32.333,-24.166 -1,-0.5 -55.5,-10.334 -55.5,-10.334 L -23.166,-40.666 15,-18 19.167,-9.666 10.834,4.5 Z"
               style="fill:#b39f92;fill-opacity:1;fill-rule:nonzero;stroke:none"
               id="path2683" />
          </g>
        </g>
      </g>
    </g>
  </g>
</svg>
