<?xml version="1.0" encoding="UTF-8" standalone="no"?>
<svg
   xmlns:dc="http://purl.org/dc/elements/1.1/"
   xmlns:cc="http://creativecommons.org/ns#"
   xmlns:rdf="http://www.w3.org/1999/02/22-rdf-syntax-ns#"
   xmlns:svg="http://www.w3.org/2000/svg"
   xmlns="http://www.w3.org/2000/svg"
   id="svg3535"
   version="1.1"
   viewBox="0 0 52.916665 52.916668"
   height="200"
   width="200">
  <defs
     id="defs3529">
    <clipPath
       id="clipPath2679"
       clipPathUnits="userSpaceOnUse">
      <path
         id="path2677"
         d="m 814.938,738.189 -8,-16.999 -3.999,-11.25 c 0,0 -23.751,-24.584 -22,-25.168 v 0 c 1.75,-0.583 55.75,6.417 55.75,6.417 v 0 l 22.249,15.5 17.184,12.064 -51.718,28.732 z" />
    </clipPath>
    <clipPath
       id="clipPath2667"
       clipPathUnits="userSpaceOnUse">
      <path
         id="path2665"
         d="M 0,1695.562 H 1520.003 V 0 H 0 Z" />
    </clipPath>
    <clipPath
       id="clipPath2655"
       clipPathUnits="userSpaceOnUse">
      <path
         id="path2653"
         d="M 587.159,790.994 569.1,745.844 c 0,0 31.839,-11.905 32.338,-13.905 v 0 c 0.501,-1.999 39.501,-38.25 41.001,-39.249 v 0 c 1.499,-1 53.499,-15.251 53.499,-15.251 v 0 l 16.001,3.001 -7.001,43.499 -15.499,15.5 -48.5,18 -46.501,15.501 z" />
    </clipPath>
    <clipPath
       id="clipPath2631"
       clipPathUnits="userSpaceOnUse">
      <path
         id="path2629"
         d="M 0,1695.562 H 1520.003 V 0 H 0 Z" />
    </clipPath>
    <clipPath
       id="clipPath2615"
       clipPathUnits="userSpaceOnUse">
      <path
         id="path2613"
         d="m 672.535,872.265 -23.807,-39.404 -61.569,-41.867 -18.059,-45.15 2.462,-72.242 c 0,0 -12.314,-44.328 -16.419,-48.433 v 0 c -4.104,-4.104 -33.657,-33.658 -33.657,-33.658 v 0 c 5.747,-33.658 61.569,-40.225 65.673,-40.225 v 0 c 4.105,0 50.076,-18.881 64.853,-18.881 v 0 c 14.776,0 51.718,0 69.778,2.463 v 0 c 18.059,2.462 82.091,19.701 82.091,19.701 v 0 l 73.39,11.203 c 0,0 25.121,15.888 25.121,19.993 v 0 68.956 c 0,0 -7.389,29.553 -10.672,38.583 v 0 c -3.284,9.031 -15.598,25.449 -15.598,25.449 v 0 l -51.718,28.732 -28.732,27.09 -27.09,-0.82 -13.955,27.089 c 0,0 -9.852,22.165 -7.389,32.838 v 0 c 2.463,10.671 -14.777,31.195 -14.777,31.195 v 0 l -24.627,15.597 z" />
    </clipPath>
    <clipPath
       id="clipPath2595"
       clipPathUnits="userSpaceOnUse">
      <path
         id="path2593"
         d="M 0,1695.562 H 1520.003 V 0 H 0 Z" />
    </clipPath>
    <clipPath
       id="clipPath2571"
       clipPathUnits="userSpaceOnUse">
      <path
         id="path2569"
         d="m 672.535,872.265 -23.807,-39.404 -61.569,-41.867 -18.059,-45.15 2.462,-72.242 c 0,0 -12.314,-44.328 -16.419,-48.433 v 0 c -4.104,-4.104 -33.657,-33.658 -33.657,-33.658 v 0 c 5.747,-33.658 61.569,-40.225 65.673,-40.225 v 0 c 4.105,0 50.076,-18.881 64.853,-18.881 v 0 c 14.776,0 51.718,0 69.778,2.463 v 0 c 18.059,2.462 82.091,19.701 82.091,19.701 v 0 l 73.39,11.203 c 0,0 25.121,15.888 25.121,19.993 v 0 68.956 c 0,0 -7.389,29.553 -10.672,38.583 v 0 c -3.284,9.031 -15.598,25.449 -15.598,25.449 v 0 l -51.718,28.732 -28.732,27.09 -27.09,-0.82 -13.955,27.089 c 0,0 -9.852,22.165 -7.389,32.838 v 0 c 2.463,10.671 -14.777,31.195 -14.777,31.195 v 0 l -24.627,15.597 z" />
    </clipPath>
    <clipPath
       id="clipPath2555"
       clipPathUnits="userSpaceOnUse">
      <path
         id="path2553"
         d="M 0,1695.562 H 1520.003 V 0 H 0 Z" />
    </clipPath>
    <clipPath
       id="clipPath2539"
       clipPathUnits="userSpaceOnUse">
      <path
         id="path2537"
         d="m 672.535,872.265 -23.807,-39.404 -61.569,-41.867 -18.059,-45.15 2.462,-72.242 c 0,0 -12.314,-44.328 -16.419,-48.433 v 0 c -4.104,-4.104 -33.657,-33.658 -33.657,-33.658 v 0 c 5.747,-33.658 61.569,-40.225 65.673,-40.225 v 0 c 4.105,0 50.076,-18.881 64.853,-18.881 v 0 c 14.776,0 51.718,0 69.778,2.463 v 0 c 18.059,2.462 82.091,19.701 82.091,19.701 v 0 l 73.39,11.203 c 0,0 25.121,15.888 25.121,19.993 v 0 68.956 c 0,0 -7.389,29.553 -10.672,38.583 v 0 c -3.284,9.031 -15.598,25.449 -15.598,25.449 v 0 l -51.718,28.732 -28.732,27.09 -27.09,-0.82 -13.955,27.089 c 0,0 -9.852,22.165 -7.389,32.838 v 0 c 2.463,10.671 -14.777,31.195 -14.777,31.195 v 0 l -24.627,15.597 z" />
    </clipPath>
    <clipPath
       id="clipPath2527"
       clipPathUnits="userSpaceOnUse">
      <path
         id="path2525"
         d="m 672.535,872.265 -23.807,-39.404 -61.569,-41.867 -18.059,-45.15 2.462,-72.242 c 0,0 -12.314,-44.328 -16.419,-48.433 v 0 c -4.104,-4.104 -33.657,-33.658 -33.657,-33.658 v 0 c 5.747,-33.658 61.569,-40.225 65.673,-40.225 v 0 c 4.105,0 50.076,-18.881 64.853,-18.881 v 0 c 14.776,0 51.718,0 69.778,2.463 v 0 c 18.059,2.462 82.091,19.701 82.091,19.701 v 0 l 73.39,11.203 c 0,0 25.121,15.888 25.121,19.993 v 0 68.956 c 0,0 -7.389,29.553 -10.672,38.583 v 0 c -3.284,9.031 -15.598,25.449 -15.598,25.449 v 0 l -51.718,28.732 -28.732,27.09 -27.09,-0.82 -13.955,27.089 c 0,0 -7.78,17.505 -7.785,28.892 v 0 c 0,1.427 0.121,2.758 0.396,3.946 v 0 c 0.163,0.708 0.24,1.46 0.24,2.247 v 0 c 0.009,11.059 -15.017,28.948 -15.017,28.948 v 0 l -24.627,15.597 z" />
    </clipPath>
    <clipPath
       id="clipPath2515"
       clipPathUnits="userSpaceOnUse">
      <path
         id="path2513"
         d="M 0,1695.562 H 1520.003 V 0 H 0 Z" />
    </clipPath>
    <clipPath
       id="clipPath2171"
       clipPathUnits="userSpaceOnUse">
      <path
         id="path2169"
         d="M 0,1695.562 H 1520.003 V 0 H 0 Z" />
    </clipPath>
    <clipPath
       id="clipPath2183"
       clipPathUnits="userSpaceOnUse">
      <path
         id="path2181"
         d="m 627.56,1250.989 c -9.413,0 -37.653,-4.707 -37.653,-4.707 v 0 l -47.067,-62.755 -10.982,-34.515 c 0,0 -4.707,-37.654 -4.707,-47.067 v 0 -45.498 l -7.821,-29.436 7.559,-34.104 c 0,0 0.152,-16.062 2.244,-16.062 v 0 c 2.092,0 52.298,-4.882 52.298,-4.882 v 0 c 0,0 27.893,-17.433 32.077,-17.433 v 0 c 4.185,0 42.537,-6.276 46.72,-4.881 v 0 c 4.184,1.395 87.165,25.104 89.954,25.104 v 0 c 2.789,0 37.656,0.697 55.786,0.697 v 0 c 18.131,0 38.353,8.368 41.84,9.762 v 0 c 3.486,1.395 22.313,36.261 22.313,36.261 v 0 l 7.671,13.249 c 0,0 -15.341,52.299 -15.341,57.18 v 0 c 0,4.881 -20.222,22.314 -21.617,24.406 v 0 c -1.394,2.092 -20.92,18.828 -20.92,18.828 v 0 l -2.519,27.996 -36.084,23.533 -10.983,31.377 -15.688,40.792 -36.085,10.981 -42.36,7.845 c 0,0 -39.222,-26.671 -48.635,-26.671" />
    </clipPath>
    <clipPath
       id="clipPath2223"
       clipPathUnits="userSpaceOnUse">
      <path
         id="path2221"
         d="M 0,1695.562 H 1520.003 V 0 H 0 Z" />
    </clipPath>
    <clipPath
       id="clipPath2255"
       clipPathUnits="userSpaceOnUse">
      <path
         id="path2253"
         d="m 662.389,1296.906 c -2.001,-1.333 -46.667,-15.333 -46.667,-15.333 v 0 c 0,0 -51.333,-24 -54,-24.666 v 0 c -2.666,-0.667 -16,-44.667 -16,-44.667 v 0 l -2.882,-28.713 14.882,-28.62 v -30.001 c 0,0 13.333,-25.333 16.667,-30.666 v 0 c 3.334,-5.334 16.666,-16.667 16.666,-16.667 v 0 l 38,0.667 19.334,-10 14,10.666 15.333,24.667 32,28 6.667,33.334 -4.666,20 1.333,26.666 15.333,35.334 26.251,11.927 -40.252,44.739 c 0,0 -49.999,-5.334 -51.999,-6.667" />
    </clipPath>
    <clipPath
       id="clipPath1627"
       clipPathUnits="userSpaceOnUse">
      <path
         id="path1625"
         d="M 0,1695.562 H 1520.003 V 0 H 0 Z" />
    </clipPath>
    <clipPath
       id="clipPath1639"
       clipPathUnits="userSpaceOnUse">
      <path
         id="path1637"
         d="m 169.297,1695.561 -17.808,-16.26 -13.938,-31.747 -29.424,-27.875 c 0,0 -18.584,-40.265 -19.358,-42.587 v 0 c -0.774,-2.323 -8.517,-42.587 -8.517,-42.587 v 0 l -3.098,-28.651 -43.362,-48.781 -6.194,-26.327 c 0,0 6.194,-16.648 10.26,-18.971 v 0 c 4.065,-2.323 22.648,-6.388 22.648,-6.388 v 0 c 0,0 26.133,-16.26 29.618,-18.003 v 0 c 3.485,-1.742 36.586,-12.776 44.136,-13.937 v 0 c 7.549,-1.162 29.037,-0.581 41.233,-0.581 v 0 c 12.195,0 35.424,9.292 51.104,9.292 v 0 c 15.679,0 27.295,-0.581 32.521,1.161 v 0 c 5.227,1.742 38.715,20.326 41.813,20.326 v 0 c 3.097,0 19.358,28.65 19.358,30.972 v 0 c 0,2.323 6.969,30.199 6.969,34.844 v 0 c 0,4.647 0,16.261 -1.549,20.133 v 0 c -1.548,3.871 -7.743,22.455 -10.066,24.004 v 0 c -2.323,1.548 -23.229,26.326 -23.229,26.326 v 0 l -11.615,37.168 c 0,0 -18.583,25.551 -24.004,32.52 v 0 c -5.42,6.97 -15.486,8.518 -15.486,8.518 v 0 c 0,0 -26.327,43.362 -28.65,48.008 v 0 c -2.323,4.645 -13.163,16.26 -19.358,16.26 v 0 c -6.194,0 -24.004,13.163 -24.004,13.163 z" />
    </clipPath>
    <clipPath
       id="clipPath1671"
       clipPathUnits="userSpaceOnUse">
      <path
         id="path1669"
         d="M 0,1695.562 H 1520.003 V 0 H 0 Z" />
    </clipPath>
    <clipPath
       id="clipPath1683"
       clipPathUnits="userSpaceOnUse">
      <path
         id="path1681"
         d="m 169.297,1695.561 -17.808,-16.26 -13.938,-31.747 -29.424,-27.875 c 0,0 -18.584,-40.265 -19.358,-42.587 v 0 c -0.774,-2.323 -8.517,-42.587 -8.517,-42.587 v 0 l -3.098,-28.651 -43.362,-48.781 -6.194,-26.327 c 0,0 6.194,-16.648 10.26,-18.971 v 0 c 4.065,-2.323 22.648,-6.388 22.648,-6.388 v 0 c 0,0 26.133,-16.26 29.618,-18.003 v 0 c 3.485,-1.742 36.586,-12.776 44.136,-13.937 v 0 c 7.549,-1.162 29.037,-0.581 41.233,-0.581 v 0 c 12.195,0 35.424,9.292 51.104,9.292 v 0 c 15.679,0 27.295,-0.581 32.521,1.161 v 0 c 5.227,1.742 38.715,20.326 41.813,20.326 v 0 c 3.097,0 19.358,28.65 19.358,30.972 v 0 c 0,2.323 6.969,30.199 6.969,34.844 v 0 c 0,4.647 0,16.261 -1.549,20.133 v 0 c -1.548,3.871 -7.743,22.455 -10.066,24.004 v 0 c -2.323,1.548 -23.229,26.326 -23.229,26.326 v 0 l -11.615,37.168 c 0,0 -18.583,25.551 -24.004,32.52 v 0 c -5.42,6.97 -15.486,8.518 -15.486,8.518 v 0 c 0,0 -26.327,43.362 -28.65,48.008 v 0 c -2.323,4.645 -13.163,16.26 -19.358,16.26 v 0 c -6.194,0 -24.004,13.163 -24.004,13.163 z" />
    </clipPath>
    <clipPath
       id="clipPath1703"
       clipPathUnits="userSpaceOnUse">
      <path
         id="path1701"
         d="M 0,1695.562 H 1520.003 V 0 H 0 Z" />
    </clipPath>
    <clipPath
       id="clipPath1723"
       clipPathUnits="userSpaceOnUse">
      <path
         id="path1721"
         d="m 151.489,1679.301 -13.938,-31.747 c 0,0 -2.233,-21.21 -2.233,-24.53 v 0 c 0,-3.32 -14.018,-23.61 -14.018,-23.61 v 0 l -11.805,-23.609 -3.689,-35.047 -11.805,-21.765 -9.96,-7.378 -2.952,-14.019 22.504,-32.095 c 0,0 23.24,14.019 24.347,14.019 v 0 c 1.107,0 30.619,2.214 30.619,2.214 v 0 l 24.717,8.853 11.804,22.872 6.641,27.299 c 0,0 2.583,25.454 2.952,26.93 v 0 c 0.369,1.475 15.862,24.717 18.076,26.193 v 0 c 2.213,1.475 12.911,9.96 12.911,9.96 v 0 l 5.649,14.289 c 0,0 -26.327,43.362 -28.65,48.008 v 0 c -2.323,4.645 -13.163,16.26 -19.358,16.26 v 0 c -6.194,0 -24.004,13.163 -24.004,13.163 v 0 z" />
    </clipPath>
    <clipPath
       id="clipPath2043"
       clipPathUnits="userSpaceOnUse">
      <path
         id="path2041"
         d="m 141.508,1256.753 c -10.46,-8.368 -32.077,-18.131 -40.445,-22.314 v 0 c -8.368,-4.184 -37.654,-35.563 -37.654,-35.563 v 0 c 0,0 -17.783,-54.391 -23.013,-62.759 v 0 c -5.229,-8.367 -10.458,-62.759 -10.458,-62.759 v 0 c 0,0 13.597,-34.517 16.734,-42.884 v 0 c 3.139,-8.368 40.794,-25.104 40.794,-25.104 v 0 c 0,0 37.655,-19.874 57.528,-23.012 v 0 c 19.874,-3.137 72.172,7.322 83.679,7.322 v 0 c 11.505,0 48.115,-2.092 55.436,0 v 0 c 7.323,2.092 32.425,28.242 32.425,28.242 v 0 c 0,0 28.242,4.184 33.472,24.057 v 0 c 5.23,19.873 7.322,47.07 5.23,55.437 v 0 c -2.092,8.367 -58.574,63.804 -60.667,71.126 v 0 c -2.092,7.322 -23.011,55.437 -26.149,61.713 v 0 c -3.138,6.276 -43.931,18.827 -47.07,25.103 v 0 c -3.137,6.276 -26.149,19.176 -32.425,30.683 v 0 c -0.51,0.03 -1.024,0.046 -1.535,0.046 v 0 c -22.549,0 -45.882,-29.334 -45.882,-29.334" />
    </clipPath>
    <clipPath
       id="clipPath2063"
       clipPathUnits="userSpaceOnUse">
      <path
         id="path2061"
         d="M 0,1695.562 H 1520.003 V 0 H 0 Z" />
    </clipPath>
    <clipPath
       id="clipPath2079"
       clipPathUnits="userSpaceOnUse">
      <path
         id="path2077"
         d="m 141.508,1256.753 c -10.46,-8.368 -32.077,-18.131 -40.445,-22.314 v 0 c -8.368,-4.184 -37.654,-35.563 -37.654,-35.563 v 0 c 0,0 -17.783,-54.391 -23.013,-62.759 v 0 c -5.229,-8.367 -10.458,-62.759 -10.458,-62.759 v 0 c 0,0 13.597,-34.517 16.734,-42.884 v 0 c 3.139,-8.368 40.794,-25.104 40.794,-25.104 v 0 c 0,0 37.655,-19.874 57.528,-23.012 v 0 c 19.874,-3.137 72.172,7.322 83.679,7.322 v 0 c 11.505,0 48.115,-2.092 55.436,0 v 0 c 7.323,2.092 32.425,28.242 32.425,28.242 v 0 c 0,0 28.242,4.184 33.472,24.057 v 0 c 5.23,19.873 7.322,47.07 5.23,55.437 v 0 c -2.092,8.367 -58.574,63.804 -60.667,71.126 v 0 c -2.092,7.322 -23.011,55.437 -26.149,61.713 v 0 c -3.138,6.276 -43.931,18.827 -47.07,25.103 v 0 c -3.137,6.276 -26.149,19.176 -32.425,30.683 v 0 c -0.51,0.03 -1.024,0.046 -1.535,0.046 v 0 c -22.549,0 -45.882,-29.334 -45.882,-29.334" />
    </clipPath>
    <clipPath
       id="clipPath2091"
       clipPathUnits="userSpaceOnUse">
      <path
         id="path2089"
         d="m 84.604,1269.439 -35.333,-39.333 -11.334,-70.667 -1.333,-29.333 c 0,0 9.333,-40 9.333,-44 v 0 c 0,-4 16,-21.334 18,-22.667 v 0 c 2.001,-1.333 25.333,-0.667 25.333,-0.667 v 0 l 34.667,-6 16.666,8.667 3.334,25.333 25.333,10 22,28 2.667,24 c 0,0 3.333,19.334 3.333,21.334 v 0 c 0,2 13.334,26.666 13.334,26.666 v 0 l 3.333,27.334 -7.333,16 -16,26 -1.679,15.935 z" />
    </clipPath>
    <clipPath
       id="clipPath2103"
       clipPathUnits="userSpaceOnUse">
      <path
         id="path2101"
         d="M 0,1695.562 H 1520.003 V 0 H 0 Z" />
    </clipPath>
    <clipPath
       id="clipPath2131"
       clipPathUnits="userSpaceOnUse">
      <path
         id="path2129"
         d="m 141.508,1256.753 c -10.46,-8.368 -32.077,-18.131 -40.445,-22.314 v 0 c -8.368,-4.184 -37.654,-35.563 -37.654,-35.563 v 0 c 0,0 -17.783,-54.391 -23.013,-62.759 v 0 c -5.229,-8.367 -10.458,-62.759 -10.458,-62.759 v 0 c 0,0 13.597,-34.517 16.734,-42.884 v 0 c 3.139,-8.368 40.794,-25.104 40.794,-25.104 v 0 c 0,0 37.655,-19.874 57.528,-23.012 v 0 c 19.874,-3.137 72.172,7.322 83.679,7.322 v 0 c 11.505,0 48.115,-2.092 55.436,0 v 0 c 7.323,2.092 32.425,28.242 32.425,28.242 v 0 c 0,0 28.242,4.184 33.472,24.057 v 0 c 5.23,19.873 7.322,47.07 5.23,55.437 v 0 c -2.092,8.367 -58.574,63.804 -60.667,71.126 v 0 c -2.092,7.322 -23.011,55.437 -26.149,61.713 v 0 c -3.138,6.276 -43.931,18.827 -47.07,25.103 v 0 c -3.137,6.276 -26.149,19.176 -32.425,30.683 v 0 c -0.51,0.03 -1.024,0.046 -1.535,0.046 v 0 c -22.549,0 -45.882,-29.334 -45.882,-29.334" />
    </clipPath>
    <clipPath
       id="clipPath2143"
       clipPathUnits="userSpaceOnUse">
      <path
         id="path2141"
         d="M 0,1695.562 H 1520.003 V 0 H 0 Z" />
    </clipPath>
    <clipPath
       id="clipPath2159"
       clipPathUnits="userSpaceOnUse">
      <path
         id="path2157"
         d="m 84.604,1269.439 -35.333,-39.333 -11.334,-70.667 -1.333,-29.333 c 0,0 9.333,-40 9.333,-44 v 0 c 0,-4 16,-21.334 18,-22.667 v 0 c 2.001,-1.333 25.333,-0.667 25.333,-0.667 v 0 l 34.667,-6 16.666,8.667 3.334,25.333 25.333,10 22,28 2.667,24 c 0,0 3.333,19.334 3.333,21.334 v 0 c 0,2 13.334,26.666 13.334,26.666 v 0 l 3.333,27.334 -7.333,16 -16,26 -1.679,15.935 z" />
    </clipPath>
  </defs>
  <metadata
     id="metadata3532">
    <rdf:RDF>
      <cc:Work
         rdf:about="">
        <dc:format>image/svg+xml</dc:format>
        <dc:type
           rdf:resource="http://purl.org/dc/dcmitype/StillImage" />
        <dc:title></dc:title>
      </cc:Work>
    </rdf:RDF>
  </metadata>
  <g
     transform="translate(0,-244.08332)"
     id="layer1">
    <g
       transform="matrix(0.16227096,0,0,-0.16227096,18.104733,250.61095)"
       id="g2033">
      <path
         id="path2035"
         style="fill:#9c887b;fill-opacity:1;fill-rule:nonzero;stroke:none"
         d="m 0,0 c -10.46,-8.368 -32.077,-18.13 -40.445,-22.314 -8.368,-4.184 -37.655,-35.563 -37.655,-35.563 0,0 -17.781,-54.391 -23.011,-62.759 -5.23,-8.367 -10.46,-62.759 -10.46,-62.759 0,0 13.598,-34.517 16.736,-42.884 3.138,-8.368 40.793,-25.104 40.793,-25.104 0,0 37.655,-19.873 57.528,-23.011 19.874,-3.138 72.173,7.321 83.679,7.321 11.505,0 48.115,-2.091 55.437,0 7.321,2.092 32.425,28.242 32.425,28.242 0,0 28.241,4.184 33.471,24.057 5.23,19.874 7.322,47.069 5.23,55.437 -2.092,8.368 -58.575,63.805 -60.667,71.127 -2.092,7.321 -23.011,55.436 -26.149,61.712 C 123.774,-20.222 82.98,-7.67 79.843,-1.395 76.705,4.881 53.693,17.782 47.417,29.288 24.406,30.682 0,0 0,0" />
    </g>
    <g
       id="g5783"
       transform="matrix(0.16227096,0,0,-0.16227096,-4.8579873,454.5454)">
      <g
         id="g5020">
        <g
           id="g2037">
          <g
             clip-path="url(#clipPath2043)"
             id="g2039">
            <g
               transform="translate(47.4372,1028.9393)"
               id="g2045">
              <path
                 id="path2047"
                 style="fill:#877264;fill-opacity:1;fill-rule:nonzero;stroke:none"
                 d="m 0,0 c 0,0 13.25,-4.75 14.75,-5.5 1.5,-0.75 49.5,-24.25 52.25,-26.5 2.75,-2.25 28,-10.5 30.25,-10.5 2.25,0 7.25,2 7.25,2 l 3.25,9.5 3.25,-9 c 0,0 3.25,-2.25 4.75,-2.75 C 117.25,-43.25 133,-43 133,-43 l 5.25,3.5 c 0,0 1.75,0.5 4.25,0 C 145,-40 172,-37 172,-37 l 6.5,11.75 2.75,9.5 1,-5.25 c 0,0 3.25,-4.75 3.25,-5.75 0,-1 4,-1.75 4,-1.75 0,0 2.25,-5.25 4.5,-6.25 2.25,-1 6.75,-0.25 7.75,0.25 1,0.5 8.5,3 9.5,2.75 1,-0.25 11.25,-1.25 11.25,-1.25 l 12.25,3.5 10.75,-8.5 c 0,0 -42.5,-32 -132,-37.5 C 24,-81 -23,-36 -23,-36 Z" />
            </g>
            <g
               transform="translate(192.0202,1129.2723)"
               id="g2049">
              <path
                 id="path2051"
                 style="fill:#826d5f;fill-opacity:1;fill-rule:nonzero;stroke:none"
                 d="m 0,0 c 0,0 17.667,-6 18.667,-6 1,0 11.666,-11 12.333,-12.667 0.667,-1.666 22.333,-30 22.333,-32.333 0,-2.333 1.667,-18 1.667,-18 0,0 4.667,-15 5.333,-16.333 0.667,-1.334 8.001,-16.334 8.001,-16.334 v -10.666 l 25.666,-26 47.334,2 65.333,57.666 L 185,-14 137.667,95.333 55.333,147.667 6,166.333 -11.667,164.667 Z" />
            </g>
            <g
               transform="translate(188.9255,1286.0404)"
               id="g2053">
              <path
                 id="path2055"
                 style="fill:#b09d90;fill-opacity:1;fill-rule:nonzero;stroke:none"
                 d="m 0,0 1.678,-15.935 16,-26 7.334,-16 -3.334,-27.333 c 0,0 -13.333,-24.667 -13.333,-26.667 0,-2 -3.333,-21.333 -3.333,-21.333 l -2.667,-24 -22,-28 -25.333,-10 -3.334,-25.333 -16.666,-8.667 -34.667,6 c 0,0 -23.333,-0.667 -25.333,0.667 -2,1.333 -18,18.666 -18,22.666 0,4 -9.334,44 -9.334,44 l 1.334,29.334 11.333,70.666 35.333,39.334 z" />
            </g>
          </g>
        </g>
        <g
           id="g2057">
          <g
             clip-path="url(#clipPath2063)"
             id="g2059">
            <g
               transform="translate(270.6037,1173.4393)"
               id="g2065">
              <path
                 id="path2067"
                 style="fill:#9c887b;fill-opacity:1;fill-rule:nonzero;stroke:none"
                 d="m 0,0 7,-22.333 -7.5,-25 5.333,-28.834 27.834,-45.833 -24.5,29.167 -18,10.666 -4.5,12.334 -9.001,16.5 z" />
            </g>
            <g
               transform="translate(267.6037,1231.7723)"
               id="g2069">
              <path
                 id="path2071"
                 style="fill:#6e5b4c;fill-opacity:1;fill-rule:nonzero;stroke:none"
                 d="m 0,0 -0.667,-17.333 -3.666,-23 -12.001,-18 -8,-28.667 -0.666,-44 5.333,19.333 L -4.333,-81 13,-68.667 26.965,-63.23 Z" />
            </g>
          </g>
        </g>
        <g
           id="g2073">
          <g
             clip-path="url(#clipPath2079)"
             id="g2075">
            <g
               transform="translate(347.1872,1108.9393)"
               id="g2081">
              <path
                 id="path2083"
                 style="fill:#6e5b4c;fill-opacity:1;fill-rule:nonzero;stroke:none"
                 d="m 0,0 2.25,-12.75 c 0,0 -5,-13 -5.5,-15.5 -0.5,-2.5 -7,-9.25 -7,-9.25 l -10.5,-1.75 -8.5,13 -13.5,9 4,-6.25 c 0,0 2,-2.25 1.5,-5.75 -0.5,-3.5 -0.5,-7.25 -0.5,-9.25 0,-2 5.75,-17.75 5.75,-17.75 l -4.5,-13.5 -0.75,-11 0.25,-10.5 -14,-11.75 -12.078,-16.259 c 0,0 23.828,4.009 24.578,4.009 0.75,0 51.25,20 51.25,20 l 35.5,27.25 1.25,34.25 -12.75,19.5 z" />
            </g>
          </g>
        </g>
        <g
           id="g2085">
          <g
             clip-path="url(#clipPath2091)"
             id="g2087">
            <g
               transform="translate(199.9372,1221.8143)"
               id="g2093">
              <path
                 id="path2095"
                 style="fill:#c4b3a6;fill-opacity:1;fill-rule:nonzero;stroke:none"
                 d="m 0,0 c 0,0 7.375,1.875 8.625,1.875 1.25,0 2.375,-4.75 2,-7.875 C 10.25,-9.125 9.25,-20.625 9.25,-20.625 c 0,0 -12.5,-22.5 -13.5,-26.875 -1,-4.375 -4.875,-24.375 -5.125,-29 -0.25,-4.625 -2.125,-14.5 -2.625,-16.25 -0.5,-1.75 -19.5,-26.625 -19.5,-26.625 L -56,-131.042 c 0,0 18.75,-1.083 26.5,-0.083 7.75,1 31.5,35.5 32.5,38.75 1,3.25 27.75,53 27.75,53 l 4.75,34.25 -12,17.5 -29.75,0.75 z" />
            </g>
          </g>
        </g>
        <g
           id="g2097">
          <g
             clip-path="url(#clipPath2103)"
             id="g2099">
            <g
               transform="translate(190.6037,1270.1058)"
               id="g2105">
              <path
                 id="path2107"
                 style="fill:#9c887b;fill-opacity:1;fill-rule:nonzero;stroke:none"
                 d="M 0,0 -3,-11 -12.333,-24.667 -33,-41 -63.667,-53.333 -75,-56.667 l 11,-1 11.667,-5.333 29,2.667 c 0,0 15.666,5.666 17,6.333 1.333,0.667 16.666,5.667 16.666,5.667 L 23.333,-42 16,-26 Z" />
            </g>
            <g
               transform="translate(188.1037,1272.1058)"
               id="g2109">
              <path
                 id="path2111"
                 style="fill:#c4b3a6;fill-opacity:1;fill-rule:nonzero;stroke:none"
                 d="m 0,0 c 0,0 -5,-7.5 -6.333,-10 -1.334,-2.5 -10.5,-13 -12,-14.333 -1.5,-1.334 -17,-10.334 -17,-10.334 0,0 -20.834,-6.333 -21.167,-6.833 -0.333,-0.5 -15.667,-7.833 -15.667,-7.833 l -6.166,-7.167 -0.5,-3 -8.167,5 0.5,6.5 15.667,15.333 25.666,15.334 16.334,16.5 c 0,0 7.833,6.833 12.833,8 5,1.166 13,2.5 13,2.5 l 2.667,-9 z" />
            </g>
            <g
               transform="translate(66.6872,1195.6893)"
               id="g2113">
              <path
                 id="path2115"
                 style="fill:#c4b3a6;fill-opacity:1;fill-rule:nonzero;stroke:none"
                 d="m 0,0 17.75,-8 32.5,2.5 c 0,0 17.25,0.5 18.25,1.25 1,0.75 13.25,5.5 13.25,5.5 l 8.5,3 18.5,8.75 8.25,2.75 22.5,9.75 L 137.75,10 126,-0.5 c 0,0 -10,-16.75 -10.5,-17.75 -0.5,-1 -15,-14.75 -15.25,-15.5 C 100,-34.5 90,-50.5 88.75,-50.75 87.5,-51 84.25,-72 74.75,-74.5 65.25,-77 55.917,-101.583 30.583,-104.917 27.609,-105.308 -12.75,-63.75 -12.75,-63.75 l -3.5,20.25 z" />
            </g>
            <g
               transform="translate(143.9372,1090.7723)"
               id="g2117">
              <path
                 id="path2119"
                 style="fill:#877264;fill-opacity:1;fill-rule:nonzero;stroke:none"
                 d="m 0,0 c 0,0 4.667,-9.333 5.667,-9.667 1,-0.333 10.333,-20 10.333,-20 L 24,-61 l 6,-22 -10.333,10.667 -7.667,26 -15.333,21 z" />
            </g>
            <g
               transform="translate(169.2702,1100.7723)"
               id="g2121">
              <path
                 id="path2123"
                 style="fill:#826d5f;fill-opacity:1;fill-rule:nonzero;stroke:none"
                 d="m 0,0 14.333,-7.667 9,-30.333 c 0,0 0.667,-41 0.667,-42 0,-1 13.667,-26 13.667,-26 v 13 c 0,0 5,21.667 10.333,23.333 5.333,1.667 16,12 16,12 l 1,16 -1.667,13.334 -10,33.333 -3,17 L 42,33 22,28 Z" />
            </g>
          </g>
        </g>
        <g
           id="g2125">
          <g
             clip-path="url(#clipPath2131)"
             id="g2127">
            <g
               transform="translate(267.6037,1231.7723)"
               id="g2133">
              <path
                 id="path2135"
                 style="fill:#9c887b;fill-opacity:1;fill-rule:nonzero;stroke:none"
                 d="m 0,0 -6.167,-4.083 -8,-2.25 -16.75,-10.75 -5.75,-19.75 -6.5,-10.5 -4.25,5.75 v 13 c 0,0.75 3.25,31 3.25,31 l 9,19.75 z" />
            </g>
          </g>
        </g>
        <g
           id="g2137">
          <g
             clip-path="url(#clipPath2143)"
             id="g2139">
            <g
               transform="translate(191.2702,1128.7723)"
               id="g2145">
              <path
                 id="path2147"
                 style="fill:#736052;fill-opacity:1;fill-rule:nonzero;stroke:none"
                 d="m 0,0 -1.333,-10.333 2.5,-12.5 2,-21.75 L 1.333,-66 l -9,30.333 L -22,-28 Z" />
            </g>
            <g
               transform="translate(164.0622,1099.0643)"
               id="g2149">
              <path
                 id="path2151"
                 style="fill:#c4b3a6;fill-opacity:1;fill-rule:nonzero;stroke:none"
                 d="M 0,0 C 0,0 17.625,-6 18.5,-7.375 19.375,-8.75 27.75,-41 27.75,-41 l 1.375,-36.625 -0.583,41.333 -9,30.334 -14.334,7.666 z" />
            </g>
          </g>
        </g>
        <g
           id="g2153">
          <g
             clip-path="url(#clipPath2159)"
             id="g2155">
            <g
               transform="translate(37.5622,1126.8143)"
               id="g2161">
              <path
                 id="path2163"
                 style="fill:#c4b3a6;fill-opacity:1;fill-rule:nonzero;stroke:none"
                 d="M 0,0 C 0,0 9.5,-39.75 10.25,-41.25 11,-42.75 26.5,-60.625 28.125,-61.375 29.75,-62.125 45.75,-61.5 50.25,-62 c 4.5,-0.5 31.75,-5.625 33.875,-5.5 2.125,0.125 4.875,1.75 7.75,2.375 2.875,0.625 11.167,3.75 11.167,3.75 l -19.334,-17.667 -28,-5.333 c 0,0 -41.666,11 -42.666,12.667 -1,1.666 -19.334,27.333 -19.334,27.333 z" />
            </g>
          </g>
        </g>
      </g>
    </g>
  </g>
</svg>
