<?xml version="1.0" encoding="UTF-8" standalone="no"?>
<svg
   id="Layer_1"
   data-name="Layer 1"
   viewBox="0 0 300 345"
   version="1.1"
   sodipodi:docname="santaCrab.svg"
   xml:space="preserve"
   inkscape:version="1.2 (dc2aedaf03, 2022-05-15)"
   xmlns:inkscape="http://www.inkscape.org/namespaces/inkscape"
   xmlns:sodipodi="http://sodipodi.sourceforge.net/DTD/sodipodi-0.dtd"
   xmlns="http://www.w3.org/2000/svg"
   xmlns:svg="http://www.w3.org/2000/svg"><sodipodi:namedview
     id="namedview155"
     pagecolor="#505050"
     bordercolor="#ffffff"
     borderopacity="1"
     inkscape:showpageshadow="0"
     inkscape:pageopacity="0"
     inkscape:pagecheckerboard="1"
     inkscape:deskcolor="#505050"
     showgrid="false"
     inkscape:zoom="0.4875"
     inkscape:cx="-95.384615"
     inkscape:cy="320"
     inkscape:window-width="1366"
     inkscape:window-height="705"
     inkscape:window-x="-8"
     inkscape:window-y="-8"
     inkscape:window-maximized="1"
     inkscape:current-layer="Layer_1" /><defs
     id="defs9"><inkscape:path-effect
       effect="mirror_symmetry"
       start_point="149.29948,139.86497"
       end_point="149.29948,161.14238"
       center_point="149.29948,150.50368"
       id="path-effect1817"
       is_visible="true"
       lpeversion="1.2"
       lpesatellites=""
       mode="vertical"
       discard_orig_path="false"
       fuse_paths="true"
       oposite_fuse="false"
       split_items="false"
       split_open="false"
       link_styles="false" /><style
       id="style2">.cls-1{fill:url(#linear-gradient);}.cls-2{fill:#cf1f3d;}.cls-3{fill:#8c1834;}.cls-4{fill:#e7bf9a;}.cls-5{fill:#fbe2cd;}.cls-6{fill:#66182e;}.cls-7{fill:none;stroke:#2f2c38;stroke-linecap:round;stroke-miterlimit:10;stroke-width:5.07px;}.cls-8{fill:#2f2c38;}</style><linearGradient
       id="linear-gradient"
       x1="150"
       y1="347.35"
       x2="150"
       y2="140.5"
       gradientUnits="userSpaceOnUse"><stop
         offset="0"
         stop-color="#fbe2cd"
         id="stop4" /><stop
         offset="0.44"
         stop-color="#e7bf9a"
         id="stop6" /></linearGradient></defs><path
     id="rect1058"
     style="opacity:1;fill:#fff4e3;fill-opacity:1;stroke-width:4.8;stroke-linejoin:round;paint-order:markers fill stroke;stop-color:#000000"
     d="m 129.31356,104.46553 c 13.40061,-5.074583 26.95329,-8.172194 41.37288,0 5.59087,3.16858 9.25558,-0.12966 10.43988,6.1866 l 1.15999,6.1866 c 1.1843,6.31626 -5.17354,11.59987 -11.59987,11.59987 h -41.37288 c -6.42633,0 -12.18168,-5.19993 -11.59987,-11.59987 l 0.38666,-4.25329 c 0.58181,-6.39994 5.20336,-5.84408 11.21321,-8.11991 z"
     sodipodi:nodetypes="sssssssss" /><path
     id="path3546"
     style="opacity:1;fill:#c9c9c9;fill-opacity:1;stroke-width:4.8;stroke-linejoin:round;paint-order:markers fill stroke;stop-color:#000000"
     d="m 129.31356,115.0965 c 13.40061,-5.07458 26.95329,-8.17219 41.37288,0 5.59087,3.16858 9.25558,-0.12966 10.43988,6.1866 l 1.15999,6.1866 c 1.1843,6.31626 -5.17354,11.59987 -11.59987,11.59987 h -41.37288 c -6.42633,0 -12.18168,-5.19993 -11.59987,-11.59987 l 0.38666,-4.25329 c 0.58181,-6.39994 5.20336,-5.84408 11.21321,-8.11991 z"
     sodipodi:nodetypes="sssssssss" /><g
     id="underwater"><path
       class="cls-1"
       d="M263.62,345H36.38A36.38,36.38,0,0,1,0,308.62V226.39H300v82.23A36.38,36.38,0,0,1,263.62,345Z"
       id="path11" /><path
       class="cls-2"
       d="M209.86,130.29v-.16s1.18-16.49-12.5-17.17c-11.06-.55-15.57,7.46-23.21,10.3A85.08,85.08,0,0,0,150,120.11a85.08,85.08,0,0,0-24.16,3.15c-7.64-2.84-12.15-10.85-23.21-10.3-13.68.68-12.5,17.17-12.5,17.17v.16C50.4,139.4,18.07,157.3,0,180v56.54H300V180C281.93,157.3,249.6,139.4,209.86,130.29Z"
       id="path13" /><ellipse
       class="cls-3"
       cx="209.46"
       cy="141.9"
       rx="5.62"
       ry="7.96"
       transform="translate(22.16 311.99) rotate(-76.36)"
       id="ellipse15" /><ellipse
       class="cls-3"
       cx="225.12"
       cy="141.99"
       rx="4.2"
       ry="3.59"
       transform="translate(-29.08 63.1) rotate(-15)"
       id="ellipse17" /><ellipse
       class="cls-3"
       cx="241.2"
       cy="153.52"
       rx="4.2"
       ry="3.59"
       transform="matrix(0.97, -0.26, 0.26, 0.97, -31.51, 67.65)"
       id="ellipse19" /><circle
       class="cls-3"
       cx="219.33"
       cy="150.96"
       r="2.7"
       id="circle21" /><circle
       class="cls-3"
       cx="251.3"
       cy="155.41"
       r="1.72"
       id="circle23" /><circle
       class="cls-3"
       cx="228.2"
       cy="153.48"
       r="3.36"
       id="circle25" /><circle
       class="cls-3"
       cx="234.31"
       cy="146.52"
       r="2.7"
       id="circle27" /><ellipse
       class="cls-3"
       cx="90.54"
       cy="141.9"
       rx="7.96"
       ry="5.62"
       transform="translate(-30.91 25.35) rotate(-13.64)"
       id="ellipse29" /><ellipse
       class="cls-3"
       cx="74.88"
       cy="141.99"
       rx="3.59"
       ry="4.2"
       transform="translate(-81.65 177.57) rotate(-75)"
       id="ellipse31" /><ellipse
       class="cls-3"
       cx="58.8"
       cy="153.52"
       rx="3.59"
       ry="4.2"
       transform="translate(-104.7 170.58) rotate(-75)"
       id="ellipse33" /><circle
       class="cls-3"
       cx="80.67"
       cy="150.96"
       r="2.7"
       id="circle35" /><circle
       class="cls-3"
       cx="48.7"
       cy="155.41"
       r="1.72"
       id="circle37" /><circle
       class="cls-3"
       cx="71.8"
       cy="153.48"
       r="3.36"
       id="circle39" /><circle
       class="cls-3"
       cx="65.69"
       cy="146.52"
       r="2.7"
       id="circle41" /><path
       class="cls-4"
       d="M150,190.57c-62.61,0-117.75,17.62-150,44.35v18.44a36.38,36.38,0,0,0,36.38,36.38H263.62A36.38,36.38,0,0,0,300,253.36V234.92C267.75,208.19,212.62,190.57,150,190.57Z"
       id="path43" /><path
       class="cls-5"
       d="M0,242.36v11a36.38,36.38,0,0,0,36.38,36.38H263.62A36.38,36.38,0,0,0,300,253.36v-11C267.75,215.63,212.62,198,150,198S32.25,215.63,0,242.36Z"
       id="path45" /><ellipse
       class="cls-4"
       cx="31.45"
       cy="261.12"
       rx="18.82"
       ry="21.31"
       transform="translate(-176.43 100.01) rotate(-45.36)"
       id="ellipse47" /><path
       class="cls-3"
       d="M1.13,281.85a4.77,4.77,0,0,0-1.13.29v26.48a36.51,36.51,0,0,0,1.2,9.29c1.06,2.46,2.2,4.84,3.39,7a74.81,74.81,0,0,0,6.2,9.56,36.44,36.44,0,0,0,11.79,7.81c1.36-5.94-8.33-45.95-11.49-49.3C7.72,289.42,1.13,281.85,1.13,281.85Z"
       id="path49" /><path
       class="cls-6"
       d="M0,282.14v22.19c4.4,2.49,8.78,1.73,14.61-2.42-1.41-4.65-2.69-8.05-3.52-8.93-3.37-3.56-10-11.13-10-11.13A4.77,4.77,0,0,0,0,282.14Z"
       id="path51" /><path
       class="cls-2"
       d="M8,259.06a80.46,80.46,0,0,0-8,12.85v19.9c.21.24.42.48.64.71,6.59,6.74,13.81,3.62,29.92-9,8.19-6.45,20.89-18.06,10.24-30.18S14.94,249.65,8,259.06Z"
       id="path53" /><ellipse
       class="cls-4"
       cx="64.24"
       cy="275.32"
       rx="15.7"
       ry="17.78"
       transform="translate(-176.79 127.56) rotate(-45.36)"
       id="ellipse55" /><path
       class="cls-3"
       d="M38.93,292.62s-5.2.44-5.82,8.82c-.29,4,3.62,17.87,8.71,27.11,5.62,10.21,12.18,16.3,14.69,15.09s-6.46-38.76-9.26-41.73S38.93,292.62,38.93,292.62Z"
       id="path57" /><path
       class="cls-6"
       d="M50.18,309.36c-1.17-3.88-2.24-6.72-2.93-7.45-2.81-3-8.32-9.3-8.32-9.3s-5.2.45-5.82,8.83a26.08,26.08,0,0,0,.94,6.51,11.94,11.94,0,0,0,2.32,2.34C40.61,313.58,44.6,313.33,50.18,309.36Z"
       id="path59" /><path
       class="cls-2"
       d="M63.5,294c-13.44,10.57-19.48,13.17-25,7.55s-3.85-14.43,6.13-27.92c5.8-7.85,18.49-14.92,27.38-4.81S70.33,288.59,63.5,294Z"
       id="path61" /><ellipse
       class="cls-4"
       cx="95.12"
       cy="280.59"
       rx="14.34"
       ry="16.24"
       transform="translate(-195.69 223.98) rotate(-60.26)"
       id="ellipse63" /><path
       class="cls-3"
       d="M76.85,301.79s-4.48,1.62-3.06,9.16c.67,3.58,7.39,14.92,14,21.88,7.36,7.69,14.57,11.52,16.5,9.86S89.55,310,86.37,308,76.85,301.79,76.85,301.79Z"
       id="path65" /><path
       class="cls-6"
       d="M90.71,313.92c-1.95-3.14-3.56-5.4-4.34-5.88-3.18-2-9.52-6.25-9.52-6.25s-4.48,1.62-3.06,9.16a23.47,23.47,0,0,0,2.36,5.52A10.89,10.89,0,0,0,78.74,318C83.26,319.9,86.72,318.74,90.71,313.92Z"
       id="path67" /><path
       class="cls-2"
       d="M98.85,297.22c-9.38,12.49-14.09,16.2-20.26,12.52s-6.78-11.82-1.15-26.07c3.28-8.29,12.81-17.51,23-10.68S103.61,290.87,98.85,297.22Z"
       id="path69" /><ellipse
       class="cls-4"
       cx="268.55"
       cy="261.12"
       rx="21.31"
       ry="18.82"
       transform="translate(-106.01 264.04) rotate(-44.64)"
       id="ellipse71" /><path
       class="cls-3"
       d="M300,282.14a4.77,4.77,0,0,0-1.13-.29s-6.59,7.57-10,11.13c-3.16,3.35-12.85,43.36-11.49,49.3a36.44,36.44,0,0,0,11.79-7.81,74.81,74.81,0,0,0,6.2-9.56c1.19-2.16,2.33-4.54,3.39-7a36.51,36.51,0,0,0,1.2-9.29Z"
       id="path73" /><path
       class="cls-6"
       d="M300,304.33V282.14a4.77,4.77,0,0,0-1.13-.29s-6.59,7.57-10,11.13c-.83.88-2.11,4.28-3.52,8.93C291.22,306.06,295.6,306.82,300,304.33Z"
       id="path75" /><path
       class="cls-2"
       d="M300,271.91a80.46,80.46,0,0,0-8-12.85c-6.95-9.41-22.15-17.88-32.81-5.77s2.05,23.73,10.24,30.18c16.11,12.67,23.33,15.79,29.92,9,.22-.23.43-.47.64-.71Z"
       id="path77" /><ellipse
       class="cls-4"
       cx="235.76"
       cy="275.32"
       rx="17.78"
       ry="15.7"
       transform="translate(-125.45 245.1) rotate(-44.64)"
       id="ellipse79" /><path
       class="cls-3"
       d="M261.07,292.62s5.2.44,5.82,8.82c.29,4-3.62,17.87-8.71,27.11-5.62,10.21-12.18,16.3-14.69,15.09s6.46-38.76,9.26-41.73S261.07,292.62,261.07,292.62Z"
       id="path81" /><path
       class="cls-6"
       d="M249.82,309.36c1.17-3.88,2.24-6.72,2.93-7.45,2.81-3,8.32-9.3,8.32-9.3s5.2.45,5.82,8.83A26.08,26.08,0,0,1,266,308a11.94,11.94,0,0,1-2.32,2.34C259.39,313.58,255.4,313.33,249.82,309.36Z"
       id="path83" /><path
       class="cls-2"
       d="M236.5,294c13.44,10.57,19.48,13.17,25,7.55s3.85-14.43-6.13-27.92c-5.8-7.85-18.49-14.92-27.38-4.81S229.67,288.59,236.5,294Z"
       id="path85" /><ellipse
       class="cls-4"
       cx="204.88"
       cy="280.59"
       rx="16.24"
       ry="14.34"
       transform="translate(-112.21 138.61) rotate(-29.74)"
       id="ellipse87" /><path
       class="cls-3"
       d="M223.15,301.79s4.48,1.62,3.06,9.16c-.67,3.58-7.39,14.92-14.05,21.88-7.36,7.69-14.57,11.52-16.5,9.86s14.79-32.69,18-34.65S223.15,301.79,223.15,301.79Z"
       id="path89" /><path
       class="cls-6"
       d="M209.29,313.92c2-3.14,3.56-5.4,4.34-5.88,3.18-2,9.52-6.25,9.52-6.25s4.48,1.62,3.06,9.16a23.47,23.47,0,0,1-2.36,5.52,10.89,10.89,0,0,1-2.59,1.52C216.74,319.9,213.28,318.74,209.29,313.92Z"
       id="path91" /><path
       class="cls-2"
       d="M201.15,297.22c9.38,12.49,14.09,16.2,20.26,12.52s6.78-11.82,1.15-26.07c-3.28-8.29-12.81-17.51-23-10.68S196.39,290.87,201.15,297.22Z"
       id="path93" /><ellipse
       class="cls-8"
       cx="103.56"
       cy="128.92"
       rx="5.24"
       ry="6.8"
       transform="translate(-34.82 38.39) rotate(-18.03)"
       id="ellipse97" /><ellipse
       class="cls-8"
       cx="196.44"
       cy="128.92"
       rx="6.8"
       ry="5.24"
       transform="translate(13.04 275.8) rotate(-71.97)"
       id="ellipse99" /><ellipse
       class="cls-6"
       cx="34.16"
       cy="193.15"
       rx="17.49"
       ry="15.2"
       transform="translate(-74.28 29.71) rotate(-23.53)"
       id="ellipse101" /><path
       class="cls-3"
       d="M0,111.88V158c6.5,21.06,19.7,51.07,36.81,45.63,25.09-8-5.46-70.51-5.46-70.51Z"
       id="path103" /><path
       class="cls-6"
       d="M36.81,146.25c-3-7.8-5.46-13.14-5.46-13.14L0,111.88v33.35a18,18,0,0,0,3,2.51C10.76,153.07,26.54,154.44,36.81,146.25Z"
       id="path105" /><path
       class="cls-3"
       d="M57.14,57.85C55.37,65.68,66.76,80,66.76,80S78.52,68.07,102,68.41s33,7.15,39.15,2c4.57-3.81-6.75-17.86-23.09-25.45H70.86C62.91,48.7,58.06,53.77,57.14,57.85Z"
       id="path107" /><path
       class="cls-6"
       d="M141.43,65.07a2.4,2.4,0,0,1-.28.27c-6.12,5.11-15.66-1.7-39.15-2a61.41,61.41,0,0,0-15.1,1.6A3.93,3.93,0,0,1,82,61.31v-.05c-.2-5.49,6.27-11.95,11.52-16.26H70.86c-8,3.7-12.8,8.77-13.72,12.85C55.37,65.68,66.76,80,66.76,80l.06-.06,0,0c.1-.1.29-.28.58-.53l0,0c2-1.72,8.18-6.5,18.62-9.14h0A60.77,60.77,0,0,1,102,68.41c23.49.34,33,7.15,39.15,2C142.46,69.36,142.46,67.44,141.43,65.07Z"
       id="path109" /><path
       class="cls-2"
       d="M85.26,45H36.38A36.38,36.38,0,0,0,0,81.38v36.39s-.07,15.09,9.75,21.79c7.49,5.1,23,6.27,32.34-2.39,9.59-8.85,9.63-20.67,23.24-23.73s24.68-1,36.6-8.41c9.61-6,25.39-9.08,23.56-15.86-2.38-8.85-13.94-6.94-29.27-11.57-16.64-5-22.13-7.15-22.47-16.34C73.55,55.77,80,49.31,85.26,45Z"
       id="path111" /><ellipse
       class="cls-3"
       cx="77.47"
       cy="94.82"
       rx="5.62"
       ry="7.96"
       transform="translate(-32.94 147.75) rotate(-76.36)"
       id="ellipse113" /><ellipse
       class="cls-3"
       cx="90.14"
       cy="86.38"
       rx="4.2"
       ry="3.59"
       transform="translate(-19.28 26.27) rotate(-15)"
       id="ellipse115" /><ellipse
       class="cls-3"
       cx="65.95"
       cy="104.59"
       rx="4.2"
       ry="3.59"
       transform="translate(-24.82 20.63) rotate(-15)"
       id="ellipse117" /><circle
       class="cls-3"
       cx="92.84"
       cy="95.47"
       r="2.7"
       id="circle119" /><circle
       class="cls-3"
       cx="56.41"
       cy="102.78"
       r="1.72"
       id="circle121" /><circle
       class="cls-3"
       cx="61.49"
       cy="95.47"
       r="3.36"
       id="circle123" /><circle
       class="cls-3"
       cx="100.87"
       cy="89.14"
       r="2.7"
       id="circle125" /><ellipse
       class="cls-6"
       cx="265.84"
       cy="193.15"
       rx="15.2"
       ry="17.49"
       transform="translate(-17.39 359.75) rotate(-66.47)"
       id="ellipse127" /><path
       class="cls-3"
       d="M300,111.88V158c-6.5,21.06-19.7,51.07-36.81,45.63-25.09-8,5.46-70.51,5.46-70.51Z"
       id="path129" /><path
       class="cls-6"
       d="M263.19,146.25c3-7.8,5.46-13.14,5.46-13.14L300,111.88v33.35a18,18,0,0,1-3,2.51C289.24,153.07,273.46,154.44,263.19,146.25Z"
       id="path131" /><path
       class="cls-3"
       d="M242.86,57.85c1.77,7.83-9.62,22.13-9.62,22.13S221.48,68.07,198,68.41s-33,7.15-39.15,2c-4.57-3.81,6.75-17.86,23.09-25.45h47.2C237.09,48.7,241.94,53.77,242.86,57.85Z"
       id="path133" /><path
       class="cls-6"
       d="M158.57,65.07a2.4,2.4,0,0,0,.28.27c6.12,5.11,15.66-1.7,39.15-2a61.41,61.41,0,0,1,15.1,1.6A3.93,3.93,0,0,0,218,61.31v-.05c.2-5.49-6.27-11.95-11.52-16.26h22.68c8,3.7,12.8,8.77,13.72,12.85,1.77,7.83-9.62,22.13-9.62,22.13l-.06-.06,0,0c-.1-.1-.29-.28-.58-.53l0,0c-2-1.72-8.18-6.5-18.62-9.14h0A60.77,60.77,0,0,0,198,68.41c-23.49.34-33,7.15-39.15,2C157.54,69.36,157.54,67.44,158.57,65.07Z"
       id="path135" /><path
       class="cls-2"
       d="M214.74,45h48.88A36.38,36.38,0,0,1,300,81.38v36.39s.07,15.09-9.75,21.79c-7.49,5.1-23,6.27-32.34-2.39-9.59-8.85-9.63-20.67-23.24-23.73s-24.68-1-36.6-8.41c-9.61-6-25.39-9.08-23.56-15.86,2.38-8.85,13.94-6.94,29.27-11.57,16.64-5,22.13-7.15,22.47-16.34C226.45,55.77,220,49.31,214.74,45Z"
       id="path137" /><ellipse
       class="cls-3"
       cx="222.53"
       cy="94.82"
       rx="7.96"
       ry="5.62"
       transform="translate(-16.08 55.15) rotate(-13.64)"
       id="ellipse139" /><ellipse
       class="cls-3"
       cx="209.86"
       cy="86.38"
       rx="3.59"
       ry="4.2"
       transform="translate(72.11 266.73) rotate(-75)"
       id="ellipse141" /><ellipse
       class="cls-3"
       cx="234.05"
       cy="104.59"
       rx="3.59"
       ry="4.2"
       transform="translate(72.45 303.6) rotate(-75)"
       id="ellipse143" /><circle
       class="cls-3"
       cx="207.16"
       cy="95.47"
       r="2.7"
       id="circle145" /><circle
       class="cls-3"
       cx="243.59"
       cy="102.78"
       r="1.72"
       id="circle147" /><circle
       class="cls-3"
       cx="238.51"
       cy="95.47"
       r="3.36"
       id="circle149" /><circle
       class="cls-3"
       cx="199.13"
       cy="89.14"
       r="2.7"
       id="circle151" /></g><path
     id="path1220"
     style="opacity:1;fill:#ff2f32;fill-opacity:1;stroke-width:4.8;stroke-linejoin:round;paint-order:markers fill stroke;stop-color:#000000"
     d="m 144.83203,74.5 c -10.11847,-0.153278 -21.44628,4.649354 -33.08594,13.339844 l 0.77344,9.279297 c 11.61412,-1.7569 11.74015,3.250909 12.74805,8.628909 1.24621,-0.35542 2.60389,-0.73677 4.04687,-1.28321 13.4006,-5.074574 26.95152,-8.172182 41.3711,0 2.75715,1.5626 5.04112,1.5565 6.79492,1.90235 C 170.49131,84.396194 158.81833,74.711869 144.83203,74.5 Z" /><path
     id="path3889"
     style="opacity:1;fill:#bd2531;fill-opacity:1;stroke-width:4.8;stroke-linejoin:round;paint-order:markers fill stroke;stop-color:#000000"
     d="m 127.67578,88.751953 c -4.79535,0.03616 -10.0267,0.846049 -15.65625,2.365235 l 0.5,6.001953 c 11.61411,-1.756899 11.74015,3.250909 12.74805,8.628909 1.24621,-0.35542 2.60389,-0.73677 4.04687,-1.28321 7.5119,-2.84462 15.07179,-5.067939 22.80469,-5.033199 -6.00968,-7.361473 -14.24961,-10.756559 -24.44336,-10.679688 z" /><circle
     style="fill:#c9c9c9;fill-opacity:1;fill-rule:evenodd;stroke-width:0.76"
     id="path1340"
     cx="106.98712"
     cy="97.269485"
     r="9.6797876" /><path
     id="path4676"
     style="color:#000000;fill:#e7bf9a;stroke-width:4.58412;stroke-linejoin:round;-inkscape-stroke:none;paint-order:markers fill stroke"
     d="M 150 198 C 137.11792 198 124.57898 198.78323 112.46484 200.20117 C 113.12495 206.17049 114.98615 212.71155 118.29883 219.76562 C 119.33844 221.97934 122.30079 222.95442 124.66602 221.93359 L 127.81445 220.57227 C 129.91431 227.99083 136.9948 232.82139 143.5957 237.59375 C 147.30173 240.27315 152.69821 240.27318 156.4043 237.59375 C 162.99151 232.83129 170.07559 228.0524 172.21094 220.64062 C 172.23264 220.56524 172.20035 220.62599 172.21875 220.58789 L 175.83398 222.15039 C 177.92136 223.05128 180.54626 222.18747 181.47461 220.24219 C 184.92866 213.00399 186.85029 206.30558 187.52539 200.20117 C 175.41423 198.78396 162.87866 198 150 198 z " /><path
     id="path1405"
     style="opacity:1;fill:#fff4e3;fill-opacity:1;stroke-width:4.8;stroke-linejoin:round;paint-order:markers fill stroke;stop-color:#000000"
     class="UnoptimicedTransforms"
     d="m 150,150.96484 c -23.25322,0 -46.54967,22.58871 -29.39463,62.88626 0.51486,1.20941 1.92119,1.72014 3.10801,1.15509 l 3.81735,-1.81743 c 1.19546,-0.56916 2.2182,0.0487 2.50161,1.34078 1.62756,7.42016 8.30577,12.58785 15.07942,17.99015 2.73252,2.17931 7.04411,2.17918 9.77683,-2.8e-4 6.58451,-5.25144 13.07875,-10.28124 14.93112,-17.37389 0.42237,-1.61721 1.71038,-2.40391 3.22198,-1.68423 l 3.74639,1.78365 c 0.90987,0.43319 1.98742,0.0414 2.38752,-0.88346 C 196.74601,173.74432 173.35121,150.96484 150,150.96484 Z"
     sodipodi:nodetypes="accccca" /><path
     id="path4844"
     style="opacity:1;fill:#c9c9c9;fill-opacity:1;stroke:none;stroke-width:2.5;stroke-linejoin:round;stroke-dasharray:none;stroke-opacity:1;paint-order:markers fill stroke;stop-color:#000000"
     d="M 150 150.96484 C 138.48867 150.96484 126.97522 156.5088 120.35547 166.98828 C 120.19099 167.63975 120.0336 168.30814 119.89062 169.01367 C 132.20087 167.2993 138.92979 169.23376 150.13086 159.87695 C 157.78354 163.54666 162.83362 169.96849 180.37305 168.21289 C 173.89618 156.9444 161.94968 150.96484 150 150.96484 z " /><path
     id="path5116"
     style="opacity:1;fill:#c9c9c9;fill-opacity:1;stroke:none;stroke-width:2.5;stroke-linejoin:round;stroke-dasharray:none;stroke-opacity:1;paint-order:markers fill stroke;stop-color:#000000"
     d="m 169.19235,207.87562 c -3.35533,5.29513 -7.16968,10.39405 -12.14383,14.25176 -2.74962,2.1647 -6.57376,3.59502 -9.95331,2.0178 -5.43671,-2.4115 -9.28732,-7.22161 -12.81491,-11.83435 -1.03322,-1.40678 -2.02769,-2.84266 -2.97641,-4.30802 -1.22414,-1.89075 -3.40743,-2.17256 -4.9829,-0.56244 -1.95921,2.0023 -3.91842,4.0046 -5.87763,6.0069 0.52981,2.18813 3.00808,1.99803 4.48789,0.97901 1.27296,-0.48084 2.43827,-1.48995 3.84225,-1.40369 2.00028,1.24096 1.52273,4.28448 3.0008,6.07888 3.28255,5.76185 8.77439,9.7521 13.86712,13.80114 3.12128,2.0527 7.54452,1.50415 10.17214,-1.12033 5.36656,-4.36144 11.37637,-8.8544 13.71613,-15.65176 0.0805,-2.10724 2.2491,-3.81299 4.12043,-2.37964 1.39658,0.53685 2.67094,1.58302 4.18713,1.64817 2.40719,-1.17324 2.41426,-4.63413 3.59872,-6.8334 0.86786,-1.28757 -1.20475,-0.91977 -1.9632,-1.29138 -1.96121,-0.42296 -3.92242,-0.84593 -5.88364,-1.26889 -1.57866,-0.34046 -3.53239,0.50612 -4.39678,1.87024 z"
     sodipodi:nodetypes="caccsccssssccscc" /><path
     id="path4670"
     style="opacity:1;fill:none;fill-opacity:1;stroke-width:2.5;stroke-linejoin:round;paint-order:markers fill stroke;stop-color:#000000;stroke:#7e7e7e;stroke-opacity:1;stroke-dasharray:none"
     class="UnoptimicedTransforms"
     d="m 150,150.96484 c -23.25322,0 -46.54967,22.58871 -29.39463,62.88626 0.51486,1.20941 1.92119,1.72014 3.10801,1.15509 l 3.81735,-1.81743 c 1.19546,-0.56916 2.2182,0.0487 2.50161,1.34078 1.62756,7.42016 8.30577,12.58785 15.07942,17.99015 2.73252,2.17931 7.04411,2.17918 9.77683,-2.8e-4 6.58451,-5.25144 13.07875,-10.28124 14.93112,-17.37389 0.42237,-1.61721 1.71038,-2.40391 3.22198,-1.68423 l 3.74639,1.78365 c 0.90987,0.43319 1.98742,0.0414 2.38752,-0.88346 C 196.74601,173.74432 173.35121,150.96484 150,150.96484 Z"
     sodipodi:nodetypes="accccca" /><path
     style="opacity:1;fill:#fff4e3;fill-opacity:1;stroke-width:2.50000019;stroke-linejoin:round;paint-order:markers fill stroke;stop-color:#000000;stroke:#7e7e7e;stroke-opacity:1;stroke-dasharray:none"
     d="m 146.30469,140.7207 c -5.71628,-0.81581 -22.65064,15.56255 -23.19141,17.22461 -2.47534,7.60803 18.35397,1.74046 23.61719,-4.28515 0.93981,-1.07595 1.67384,-2.58451 2.10742,-4.20508 0.43359,1.62057 1.16957,3.12913 2.10938,4.20508 5.26322,6.02561 26.09057,11.89318 23.61523,4.28515 -0.57682,-1.77287 -19.80465,-20.28911 -24.17578,-16.82226 -0.72058,0.57151 -1.22767,1.36423 -1.54883,2.28515 -0.32116,-0.92092 -0.82824,-1.71364 -1.54883,-2.28515 -0.27319,-0.21668 -0.60329,-0.34796 -0.98437,-0.40235 z"
     id="path1815"
     sodipodi:nodetypes="sass"
     inkscape:path-effect="#path-effect1817"
     inkscape:original-d="m 147.28995,141.12243 c 3.18862,2.52897 2.19217,9.3869 -0.55987,12.53758 -5.26322,6.02561 -26.09152,11.89302 -23.61618,4.28499 0.57682,-1.77287 19.80492,-20.28942 24.17605,-16.82257 z"
     class="UnoptimicedTransforms"
     transform="translate(1.1614519)" /><circle
     style="fill:#fff4e3;fill-opacity:1;fill-rule:evenodd;stroke-width:0.587529"
     id="circle3755"
     cx="104.79043"
     cy="95.072792"
     r="7.4830971" /></svg>
