<?xml version="1.0" encoding="UTF-8" standalone="no"?><!DOCTYPE svg PUBLIC "-//W3C//DTD SVG 1.1//EN" "http://www.w3.org/Graphics/SVG/1.1/DTD/svg11.dtd"><svg width="100%" height="100%" viewBox="0 0 265 180" version="1.1" xmlns="http://www.w3.org/2000/svg" xmlns:xlink="http://www.w3.org/1999/xlink" xml:space="preserve" xmlns:serif="http://www.serif.com/" style="fill-rule:evenodd;clip-rule:evenodd;stroke-linejoin:round;stroke-miterlimit:2;"><g id="Originals"></g><g id="v5"><g id="Science"><path d="M265.046,175.548c0,2.463 -2,4.463 -4.463,4.463l-256.168,0c-2.463,0 -4.463,-2 -4.463,-4.463l-0,-172.086c-0,-1.94 1.575,-3.515 3.515,-3.515l258.063,-0c1.94,-0 3.515,1.575 3.515,3.515l0,172.086l0,-0l0,-0l0.001,-0Z" style="fill:url(#_Radial1);"/><path d="M29.766,-0.054l18.367,0l-27.538,5.517l11.391,56.868l56.869,-11.391l-10.215,-50.994l3.679,0l10.427,52.054c0.196,0.977 -0.437,1.927 -1.414,2.123l-60.406,12.1c-0.977,0.196 -1.927,-0.438 -2.123,-1.414l-12.1,-60.406c-0.196,-0.977 0.437,-1.928 1.414,-2.123l11.649,-2.334l0,0.001l0,-0.001Zm114.567,0l3.688,0c0.529,3.121 1.307,6.234 2.108,9.362c3.376,-1.059 6.723,-2.129 9.908,-3.484l-10.55,-5.878l7.55,0l7.05,3.928c2.016,-1.103 3.934,-2.385 5.715,-3.928l5.239,0c-6.475,7.155 -15.112,10.121 -24.005,12.926c2.83,11.296 4.988,22.885 -2.142,35.734c-0.492,0.887 -1.611,1.207 -2.498,0.715c-0.886,-0.492 -1.206,-1.611 -0.714,-2.498c0.781,-1.407 1.439,-2.798 1.988,-4.174l-24.596,-13.702c-0.881,1.192 -1.717,2.484 -2.503,3.888c-0.495,0.885 -1.615,1.202 -2.5,0.707c-0.885,-0.495 -1.202,-1.615 -0.707,-2.5c7.173,-12.826 18.163,-17.09 29.257,-20.63c-0.889,-3.499 -1.737,-6.978 -2.288,-10.466l0,0Zm98.42,0l3.169,0l-1.381,4.197l4.636,7.172l6.945,-0.35c0.829,-0.041 1.536,0.598 1.578,1.428c0.042,0.829 -0.598,1.537 -1.427,1.579l-6.945,0.348l-3.825,7.468l5.026,7.775c0.292,0.452 0.321,1.025 0.076,1.503l-4.618,9.014c-0.245,0.478 -0.727,0.79 -1.263,0.817l-9.262,0.465l-3.357,6.327c-0.39,0.734 -1.301,1.014 -2.035,0.624c-0.733,-0.389 -1.013,-1.301 -0.624,-2.034l3.344,-6.302l-4.546,-7.034l-9.351,0.47c-0.536,0.027 -1.047,-0.234 -1.339,-0.686l-5.026,-7.775l-7.984,0.401c-0.83,0.042 -1.537,-0.598 -1.579,-1.428c-0.042,-0.829 0.598,-1.537 1.428,-1.578l7.984,-0.401l4.221,-8.241c0.245,-0.478 0.727,-0.79 1.264,-0.817l9.35,-0.47l4.221,-8.24c0.245,-0.479 0.727,-0.79 1.264,-0.817l9.083,-0.456l0.973,-2.959Zm-77.809,180.064l-3.206,0l12.846,-31.252l-44.097,-18.127l-17.544,42.681l16.296,6.698l-7.549,0l-11.21,-4.607c-0.757,-0.312 -1.127,-1.158 -0.826,-1.891l18.635,-45.335c0.302,-0.733 1.16,-1.075 1.918,-0.764l46.84,19.254c0.757,0.311 1.127,1.158 0.826,1.891l-12.929,31.452l-0,0Zm-72.593,0l-6.182,0l-9.703,-9.798c-0.283,-0.285 -0.382,-0.704 -0.259,-1.086c0.123,-0.382 0.449,-0.663 0.844,-0.73l2.813,-0.472l-6.724,-9.903c-0.205,-0.303 -0.243,-0.689 -0.099,-1.026c0.144,-0.336 0.449,-0.576 0.81,-0.637l14.39,-2.415c0.519,-0.088 1.024,0.214 1.194,0.713l5.868,17.212c0.105,0.309 0.065,0.649 -0.111,0.924c-0.175,0.275 -0.466,0.456 -0.79,0.491l-3.785,0.41l1.734,6.317l0,0Zm-92.4,-132.717l1.353,-0.497c0.767,-0.281 1.624,0.034 2.026,0.745l6.293,11.138c0.249,0.44 0.284,0.97 0.096,1.44c-0.189,0.469 -0.58,0.828 -1.064,0.975l-1.54,0.465l3.048,6.253c0.332,0.681 0.163,1.5 -0.412,1.994c-0.574,0.494 -1.41,0.538 -2.033,0.107l-7.767,-5.366l-0,-17.254Zm265.095,78.415c-0.415,1.457 -1.383,3.069 -2.969,4.731c-0.43,0.451 -0.906,0.911 -1.427,1.38c0.123,0.599 0.137,1.229 0.026,1.867c-0.476,2.735 -3.083,4.569 -5.819,4.093c-0.577,-0.101 -1.115,-0.296 -1.599,-0.568c-2.697,1.674 -5.788,3.37 -9.189,5.027c4.454,7.949 7.302,15.058 8.069,19.96c0.636,4.068 -0.265,6.871 -2.056,8.132c-1.792,1.26 -4.735,1.16 -8.349,-0.814c-3.695,-2.019 -8.381,-5.988 -13.368,-11.348c-3.954,6.162 -7.86,10.9 -11.138,13.544c-3.205,2.585 -6.083,3.207 -8.07,2.285c-1.874,-0.868 -3.212,-3.229 -3.44,-6.947c-2.058,-0.915 -3.314,-3.141 -2.91,-5.459c0.358,-2.06 1.926,-3.609 3.846,-4.044c0.214,-1.06 0.463,-2.162 0.746,-3.301c-4.898,0.793 -9.092,1.036 -12.215,0.701c-4.094,-0.438 -6.569,-2.034 -7.322,-4.09c-0.754,-2.057 0.104,-4.874 2.946,-7.853c3.424,-3.59 9.818,-7.807 18.008,-11.799c-2.356,-4.206 -4.263,-8.176 -5.65,-11.71c-0.2,-0.01 -0.401,-0.033 -0.603,-0.068c-2.735,-0.476 -4.568,-3.083 -4.092,-5.818c0.245,-1.407 1.054,-2.575 2.153,-3.314c-0.363,-3.556 0.531,-6.022 2.18,-7.181c1.792,-1.26 4.734,-1.161 8.348,0.814c3.696,2.018 8.382,5.987 13.369,11.347c3.954,-6.162 7.859,-10.9 11.137,-13.544c3.205,-2.585 6.084,-3.207 8.071,-2.285c1.987,0.921 3.372,3.52 3.469,7.636c0.074,3.14 -0.515,7.3 -1.712,12.115c4.898,-0.793 9.092,-1.035 12.215,-0.701c4.095,0.438 6.569,2.034 7.323,4.091c0.007,0.02 0.015,0.041 0.022,0.062l0,3.059l0,0Zm0,-47.136l-14.158,9.781c-0.405,0.28 -0.949,0.251 -1.323,-0.07c-0.373,-0.321 -0.484,-0.854 -0.268,-1.298l5.045,-10.348l-3.677,-1.112c-0.315,-0.095 -0.57,-0.329 -0.692,-0.634c-0.123,-0.306 -0.1,-0.651 0.062,-0.937l9.028,-15.978c0.261,-0.462 0.819,-0.667 1.318,-0.484l4.665,1.714l0,19.366l0,0Zm-129.567,59.222l-2.737,-1.125c-0.218,-0.09 -0.361,-0.21 -0.43,-0.362c-0.069,-0.152 -0.063,-0.327 0.018,-0.525c0.082,-0.198 0.201,-0.327 0.356,-0.387c0.156,-0.059 0.343,-0.044 0.561,0.046l3.777,1.552c0.211,0.087 0.362,0.213 0.453,0.377c0.091,0.165 0.095,0.346 0.014,0.544c-0.071,0.173 -0.158,0.313 -0.26,0.421c-0.102,0.107 -0.223,0.218 -0.363,0.333l-4.683,3.783c-0.161,0.128 -0.327,0.202 -0.497,0.222c-0.171,0.02 -0.361,-0.014 -0.573,-0.101c-0.191,-0.079 -0.329,-0.186 -0.412,-0.321c-0.084,-0.135 -0.106,-0.277 -0.069,-0.426c0.038,-0.149 0.143,-0.289 0.313,-0.421l4.532,-3.61Zm16.547,37.367c-0.54,0.372 -1.12,0.62 -1.741,0.742c-0.89,0.175 -1.812,0.066 -2.768,-0.327c-1.058,-0.435 -1.858,-0.986 -2.402,-1.653c-0.543,-0.668 -0.823,-1.453 -0.84,-2.358c-0.017,-0.905 0.208,-1.927 0.677,-3.066l2.301,-5.598c0.258,-0.628 0.617,-1.03 1.079,-1.207c0.462,-0.177 1,-0.139 1.614,0.113c0.614,0.253 1.028,0.606 1.24,1.06c0.212,0.454 0.189,0.995 -0.069,1.622l-2.342,5.697c-0.298,0.727 -0.367,1.331 -0.206,1.812c0.161,0.481 0.575,0.859 1.24,1.132c0.734,0.302 1.439,0.297 2.115,-0.013c0.676,-0.311 1.184,-0.88 1.523,-1.705l2.098,-5.103c0.258,-0.627 0.617,-1.03 1.079,-1.206c0.462,-0.177 1,-0.14 1.614,0.113c0.631,0.259 1.049,0.614 1.252,1.065c0.204,0.45 0.177,0.989 -0.081,1.617l-3.615,8.793c-0.522,1.271 -1.406,1.651 -2.652,1.139c-0.614,-0.252 -1.015,-0.61 -1.204,-1.074c-0.186,-0.459 -0.157,-0.991 0.088,-1.595Zm-22.807,-11.855l-2.02,1.949c-0.494,0.473 -0.934,0.779 -1.321,0.919c-0.386,0.141 -0.853,0.099 -1.399,-0.126c-0.477,-0.196 -0.821,-0.463 -1.032,-0.8c-0.21,-0.338 -0.279,-0.704 -0.206,-1.099c0.072,-0.395 0.311,-0.769 0.716,-1.124l12.264,-11.203c0.503,-0.449 0.995,-0.724 1.476,-0.826c0.48,-0.102 0.968,-0.051 1.463,0.152c0.495,0.204 0.877,0.511 1.147,0.921c0.271,0.41 0.418,0.949 0.443,1.615l0.891,16.61c0.039,0.537 -0.048,0.979 -0.261,1.326c-0.212,0.347 -0.506,0.564 -0.881,0.651c-0.375,0.088 -0.792,0.037 -1.253,-0.153c-0.58,-0.238 -0.974,-0.555 -1.181,-0.948c-0.207,-0.394 -0.314,-0.921 -0.322,-1.581l-0.083,-2.814l-8.441,-3.469l-0,-0Zm2.553,-2.454l5.787,2.379l-0.171,-7.773l-0.051,-0.021l-5.565,5.415Zm9.016,-18.331c-0.098,0.093 -0.204,0.173 -0.318,0.24c-0.255,0.15 -0.531,0.231 -0.83,0.242c-0.298,0.012 -0.6,-0.044 -0.904,-0.169c-0.389,-0.161 -0.701,-0.399 -0.934,-0.715c-0.233,-0.317 -0.37,-0.678 -0.412,-1.084c-0.042,-0.405 0.023,-0.816 0.194,-1.232c0.184,-0.448 0.447,-0.805 0.788,-1.072c0.342,-0.268 0.732,-0.427 1.17,-0.478c0.438,-0.052 0.889,0.017 1.351,0.208c0.602,0.247 1.054,0.588 1.358,1.023c0.304,0.435 0.461,0.952 0.47,1.55c0.009,0.598 -0.134,1.255 -0.428,1.972c-0.234,0.569 -0.513,1.045 -0.837,1.428c-0.323,0.383 -0.68,0.674 -1.071,0.872c-0.39,0.198 -0.812,0.298 -1.264,0.299c-0.452,0.001 -0.919,-0.098 -1.402,-0.296c-0.284,-0.117 -0.556,-0.273 -0.815,-0.47c-0.259,-0.196 -0.483,-0.422 -0.671,-0.679c-0.106,-0.118 -0.159,-0.247 -0.16,-0.386c-0.001,-0.138 0.033,-0.264 0.103,-0.378c0.07,-0.113 0.164,-0.2 0.281,-0.26c0.117,-0.06 0.243,-0.079 0.377,-0.058c0.134,0.022 0.266,0.1 0.396,0.235c0.16,0.193 0.325,0.351 0.495,0.473c0.17,0.122 0.344,0.22 0.523,0.294c0.35,0.143 0.679,0.189 0.986,0.136c0.308,-0.053 0.587,-0.209 0.836,-0.469c0.25,-0.26 0.467,-0.614 0.651,-1.062l0.067,-0.164Zm-1.178,-0.685c0.205,0.084 0.404,0.112 0.597,0.083c0.194,-0.029 0.368,-0.109 0.522,-0.24c0.154,-0.131 0.275,-0.302 0.362,-0.513c0.089,-0.218 0.125,-0.427 0.107,-0.629c-0.017,-0.201 -0.085,-0.379 -0.204,-0.532c-0.118,-0.154 -0.28,-0.272 -0.485,-0.356c-0.205,-0.085 -0.401,-0.113 -0.59,-0.086c-0.189,0.027 -0.362,0.105 -0.52,0.235c-0.157,0.129 -0.281,0.303 -0.37,0.52c-0.087,0.211 -0.12,0.418 -0.099,0.621c0.021,0.203 0.088,0.382 0.202,0.538c0.114,0.155 0.273,0.275 0.478,0.359Zm80.975,-11.48c-0.48,0.98 -0.956,1.976 -1.425,2.988c-0.654,1.411 -1.278,2.812 -1.871,4.198c0.83,1.258 1.693,2.526 2.588,3.798c1.188,1.689 2.387,3.323 3.589,4.895c1.883,-0.606 3.8,-1.265 5.739,-1.976c1.047,-0.384 2.079,-0.774 3.096,-1.172c0.48,-0.98 0.955,-1.977 1.425,-2.988c0.654,-1.411 1.278,-2.812 1.871,-4.198c-0.83,-1.258 -1.693,-2.526 -2.588,-3.798c-1.188,-1.689 -2.387,-3.323 -3.589,-4.895c-1.883,0.606 -3.8,1.265 -5.739,1.976c-1.047,0.383 -2.079,0.774 -3.096,1.172Zm6.721,1.41c2.735,0.476 4.569,3.083 4.092,5.818c-0.476,2.735 -3.083,4.569 -5.818,4.093c-2.735,-0.476 -4.569,-3.084 -4.093,-5.818c0.477,-2.736 3.084,-4.569 5.819,-4.093Zm3.196,22.939c4.89,5.379 9.492,9.37 13.121,11.353c1.129,0.617 2.137,1.028 3.011,1.165c0.472,0.074 0.879,0.096 1.181,-0.116c0.302,-0.213 0.418,-0.603 0.508,-1.072c0.167,-0.869 0.121,-1.957 -0.078,-3.229c-0.727,-4.652 -3.48,-11.372 -7.737,-18.898c-1.723,0.777 -3.509,1.54 -5.351,2.283c-1.519,3.015 -3.082,5.868 -4.655,8.514l0,0Zm-15.335,-22.108c-0.264,0.116 -0.527,0.232 -0.789,0.349c0.12,0.197 0.241,0.396 0.363,0.594c0.141,-0.314 0.283,-0.628 0.426,-0.943Zm-4.376,2.01c-7.788,3.756 -13.881,7.708 -17.131,11.116c-0.888,0.931 -1.546,1.798 -1.905,2.607c-0.193,0.437 -0.32,0.824 -0.193,1.171c0.127,0.347 0.474,0.56 0.904,0.768c0.796,0.386 1.858,0.623 3.138,0.761c3.249,0.347 7.711,0.011 12.934,-0.95c1.126,-3.795 2.572,-7.89 4.316,-12.141c-0.715,-1.12 -1.403,-2.232 -2.063,-3.332l-0,0Zm47.593,-6.052c0.299,-0.281 0.58,-0.56 0.842,-0.835c0.888,-0.931 1.547,-1.799 1.905,-2.608c0.193,-0.436 0.321,-0.823 0.194,-1.17c-0.128,-0.347 -0.475,-0.56 -0.905,-0.769c-0.796,-0.386 -1.858,-0.623 -3.138,-0.76c-3.248,-0.347 -7.71,-0.011 -12.934,0.95c-1.126,3.794 -2.572,7.889 -4.316,12.14c0.715,1.121 1.403,2.232 2.063,3.332c3.241,-1.563 6.188,-3.159 8.759,-4.737c-0.178,-0.677 -0.217,-1.403 -0.089,-2.138c0.477,-2.735 3.084,-4.568 5.819,-4.092c0.659,0.115 1.265,0.353 1.8,0.687Zm-17.144,-8.569c1.391,-5.126 2.097,-9.545 2.019,-12.811c-0.03,-1.286 -0.178,-2.365 -0.497,-3.191c-0.172,-0.445 -0.355,-0.809 -0.691,-0.964c-0.335,-0.156 -0.731,-0.061 -1.182,0.096c-0.836,0.29 -1.755,0.874 -2.757,1.682c-3.219,2.596 -7.037,7.342 -10.892,13.504c1.196,1.378 2.402,2.828 3.609,4.342c3.637,-1.09 7.13,-1.978 10.391,-2.658Zm-3.847,11.524c0.972,-2.494 1.833,-4.917 2.575,-7.235c-2.097,0.485 -4.284,1.055 -6.537,1.707c0.938,1.25 1.874,2.536 2.801,3.854c0.393,0.559 0.78,1.117 1.161,1.674Zm-27.727,35.599c0.067,0.921 0.212,1.711 0.458,2.349c0.172,0.446 0.355,0.809 0.691,0.965c0.335,0.155 0.731,0.06 1.182,-0.096c0.836,-0.29 1.755,-0.874 2.757,-1.682c3.219,-2.596 7.038,-7.342 10.892,-13.505c-1.196,-1.378 -2.402,-2.827 -3.609,-4.341c-3.636,1.09 -7.129,1.978 -10.391,2.658c-0.455,1.674 -0.835,3.272 -1.14,4.78c1.635,1.065 2.568,3.037 2.212,5.08c-0.308,1.767 -1.505,3.158 -3.052,3.792Zm16.395,-17.581c0.573,0.706 1.145,1.395 1.715,2.068c0.617,-1.067 1.231,-2.166 1.842,-3.296c-1.195,0.429 -2.381,0.839 -3.557,1.228Zm12.447,-9.031c-0.12,-0.198 -0.241,-0.396 -0.363,-0.595c-0.14,0.314 -0.283,0.629 -0.426,0.943c0.264,-0.115 0.527,-0.231 0.789,-0.348Zm-23.015,1.436c-0.972,2.494 -1.833,4.917 -2.575,7.235c2.097,-0.485 4.284,-1.055 6.537,-1.707c-0.938,-1.25 -1.873,-2.536 -2.801,-3.854c-0.393,-0.559 -0.78,-1.117 -1.161,-1.674Zm9.617,-20.086c-0.617,1.067 -1.231,2.166 -1.842,3.295c1.195,-0.429 2.381,-0.838 3.557,-1.228c-0.573,-0.705 -1.145,-1.395 -1.715,-2.067Zm-18.264,-3.687c1.342,3.417 3.214,7.276 5.532,11.375c1.723,-0.777 3.509,-1.54 5.351,-2.283c1.518,-3.016 3.082,-5.868 4.654,-8.514c-4.889,-5.379 -9.491,-9.371 -13.12,-11.353c-1.129,-0.617 -2.137,-1.028 -3.011,-1.165c-0.472,-0.074 -0.879,-0.096 -1.181,0.116c-0.302,0.213 -0.418,0.603 -0.508,1.072c-0.118,0.612 -0.13,1.333 -0.057,2.15c2.614,0.573 4.34,3.114 3.876,5.776c-0.196,1.128 -0.755,2.103 -1.536,2.826Zm-176.669,-102.575l2.961,-0.593c0.273,-0.055 0.493,-0.028 0.661,0.08c0.168,0.108 0.279,0.295 0.331,0.559c0.053,0.264 0.024,0.48 -0.089,0.649c-0.112,0.169 -0.305,0.281 -0.578,0.335l-4.589,0.92c-0.315,0.063 -0.562,0.035 -0.741,-0.085c-0.179,-0.119 -0.298,-0.323 -0.356,-0.613c-0.037,-0.187 -0.025,-0.372 0.036,-0.552c0.061,-0.181 0.156,-0.373 0.283,-0.576l1.897,-3.012c0.281,-0.455 0.47,-0.848 0.568,-1.178c0.098,-0.329 0.117,-0.644 0.057,-0.942c-0.075,-0.375 -0.253,-0.636 -0.535,-0.783c-0.283,-0.148 -0.654,-0.175 -1.114,-0.083c-0.247,0.049 -0.493,0.136 -0.739,0.261c-0.245,0.124 -0.492,0.296 -0.741,0.514c-0.167,0.14 -0.332,0.211 -0.496,0.212c-0.164,0.002 -0.312,-0.043 -0.446,-0.136c-0.134,-0.093 -0.234,-0.217 -0.301,-0.372c-0.066,-0.155 -0.082,-0.321 -0.046,-0.496c0.036,-0.176 0.136,-0.338 0.302,-0.486c0.328,-0.305 0.703,-0.56 1.123,-0.764c0.42,-0.204 0.848,-0.349 1.282,-0.436c0.674,-0.135 1.26,-0.148 1.76,-0.04c0.501,0.108 0.909,0.33 1.224,0.666c0.316,0.335 0.529,0.78 0.64,1.334c0.071,0.358 0.086,0.718 0.044,1.081c-0.043,0.364 -0.147,0.741 -0.312,1.133c-0.165,0.392 -0.4,0.823 -0.705,1.292l-1.381,2.111Zm14.308,30.214c-0.836,0.167 -1.526,0.065 -2.069,-0.307c-0.544,-0.372 -0.904,-0.998 -1.08,-1.877l-3.643,-18.186c-0.172,-0.858 -0.073,-1.564 0.297,-2.119c0.369,-0.554 0.983,-0.918 1.841,-1.09l11.287,-2.26c0.66,-0.133 1.195,-0.062 1.604,0.21c0.41,0.273 0.678,0.729 0.806,1.366c0.132,0.661 0.062,1.195 -0.211,1.605c-0.272,0.409 -0.739,0.68 -1.399,0.812l-8.845,1.772l1.137,5.676l8.119,-1.626c0.66,-0.132 1.2,-0.063 1.621,0.208c0.42,0.27 0.694,0.724 0.822,1.362c0.128,0.639 0.051,1.169 -0.23,1.591c-0.282,0.423 -0.753,0.7 -1.413,0.833l-8.119,1.626l1.441,7.195c0.362,1.804 -0.293,2.873 -1.966,3.209Zm17.689,-11.165c0.364,1.035 0.893,1.788 1.587,2.257c0.94,0.636 2.18,0.799 3.72,0.491c0.528,-0.106 1.12,-0.293 1.776,-0.562c0.655,-0.269 1.252,-0.605 1.788,-1.01c0.458,-0.344 0.892,-0.517 1.304,-0.519c0.411,-0.002 0.756,0.117 1.033,0.359c0.277,0.242 0.47,0.547 0.578,0.915c0.108,0.367 0.099,0.752 -0.026,1.155c-0.126,0.403 -0.395,0.771 -0.809,1.106c-0.664,0.568 -1.443,1.05 -2.336,1.446c-0.893,0.396 -1.78,0.683 -2.66,0.859c-1.914,0.383 -3.628,0.366 -5.142,-0.051c-1.514,-0.418 -2.766,-1.185 -3.757,-2.303c-0.99,-1.118 -1.658,-2.534 -2.001,-4.25c-0.335,-1.673 -0.277,-3.212 0.173,-4.618c0.451,-1.406 1.237,-2.594 2.359,-3.562c1.122,-0.969 2.486,-1.614 4.092,-1.936c1.166,-0.233 2.261,-0.252 3.284,-0.057c1.023,0.196 1.948,0.583 2.773,1.161c0.825,0.579 1.517,1.344 2.074,2.297c0.557,0.952 0.961,2.056 1.212,3.31c0.084,0.418 0.014,0.758 -0.208,1.02c-0.222,0.262 -0.586,0.444 -1.092,0.545l-9.722,1.947Zm-0.526,-2.572l7.146,-1.431c-0.179,-0.693 -0.427,-1.267 -0.744,-1.722c-0.386,-0.552 -0.857,-0.933 -1.413,-1.142c-0.557,-0.208 -1.199,-0.24 -1.925,-0.095c-0.814,0.163 -1.469,0.489 -1.966,0.978c-0.498,0.489 -0.83,1.116 -0.997,1.882c-0.102,0.468 -0.136,0.978 -0.101,1.53Zm-25.32,-20.728c0.036,-0.174 0.09,-0.337 0.161,-0.49c0.152,-0.327 0.374,-0.6 0.667,-0.819c0.293,-0.218 0.636,-0.366 1.028,-0.445c0.511,-0.102 0.99,-0.067 1.437,0.105c0.446,0.172 0.829,0.454 1.147,0.847c0.318,0.393 0.533,0.87 0.646,1.433c0.119,0.596 0.098,1.152 -0.065,1.668c-0.163,0.516 -0.446,0.951 -0.848,1.307c-0.404,0.355 -0.907,0.594 -1.513,0.715c-0.767,0.154 -1.454,0.105 -2.063,-0.145c-0.609,-0.251 -1.121,-0.684 -1.537,-1.301c-0.416,-0.617 -0.72,-1.403 -0.911,-2.357c-0.152,-0.759 -0.195,-1.45 -0.13,-2.075c0.066,-0.625 0.228,-1.176 0.487,-1.653c0.259,-0.477 0.616,-0.873 1.072,-1.185c0.456,-0.314 0.995,-0.532 1.617,-0.657c0.367,-0.073 0.747,-0.096 1.143,-0.069c0.396,0.027 0.776,0.11 1.14,0.25c0.188,0.051 0.329,0.149 0.425,0.294c0.095,0.145 0.147,0.301 0.153,0.468c0.007,0.167 -0.028,0.322 -0.105,0.466c-0.078,0.145 -0.192,0.251 -0.342,0.321c-0.15,0.07 -0.337,0.079 -0.56,0.026c-0.293,-0.092 -0.567,-0.143 -0.822,-0.154c-0.255,-0.011 -0.497,0.006 -0.727,0.052c-0.452,0.091 -0.815,0.27 -1.089,0.538c-0.275,0.267 -0.45,0.622 -0.525,1.062c-0.076,0.441 -0.053,0.964 0.068,1.569l0.046,0.229Zm2.248,2.795c0.264,-0.053 0.485,-0.159 0.661,-0.319c0.177,-0.159 0.296,-0.36 0.358,-0.603c0.062,-0.243 0.064,-0.51 0.006,-0.799c-0.058,-0.29 -0.162,-0.533 -0.312,-0.729c-0.15,-0.196 -0.338,-0.336 -0.563,-0.419c-0.225,-0.083 -0.469,-0.099 -0.734,-0.046c-0.264,0.053 -0.484,0.161 -0.659,0.325c-0.176,0.164 -0.297,0.365 -0.364,0.605c-0.068,0.239 -0.072,0.504 -0.014,0.794c0.058,0.289 0.164,0.534 0.32,0.734c0.155,0.199 0.345,0.338 0.569,0.417c0.224,0.08 0.468,0.093 0.732,0.04Zm111.103,10.46c-0.452,-3.591 -1.272,-7.118 -2.15,-10.613c-3.434,1.093 -6.864,2.252 -10.156,3.758l12.306,6.855Zm-0.819,14.516c0.945,-3.452 1.258,-6.817 1.165,-10.117l-16.574,-9.233c-2.855,1.658 -5.552,3.694 -7.989,6.316l23.398,13.034l-0,-0Zm-85.219,66.825l5.906,-1.071l2.458,-6.857c0.268,-0.747 0.914,-1.294 1.695,-1.436l8.429,-1.528c0.781,-0.141 1.578,0.145 2.091,0.75l4.723,5.574l5.446,-0.906c1.209,-0.201 2.354,0.617 2.555,1.827c0.201,1.209 -0.617,2.354 -1.826,2.555l-5.404,0.899l-2.019,5.63l4.766,5.624c0.513,0.605 0.664,1.439 0.396,2.185c-0,0 -2.459,6.858 -2.459,6.858l4.018,4.742c0.793,0.935 0.677,2.338 -0.258,3.13c-0.936,0.792 -2.338,0.677 -3.131,-0.259l-4.018,-4.742l-7.167,1.299c-0.781,0.142 -1.578,-0.144 -2.091,-0.749l-4.766,-5.625l-7.167,1.3c-0.781,0.141 -1.578,-0.145 -2.091,-0.75l-4.553,-5.374l-7.285,2.536c-1.158,0.403 -2.425,-0.21 -2.828,-1.368c-0.403,-1.158 0.21,-2.425 1.368,-2.827l7.722,-2.688l2.1,-5.858l-3.448,-4.07c-0.792,-0.935 -0.677,-2.338 0.259,-3.13c0.935,-0.793 2.338,-0.677 3.13,0.259l3.449,4.07Zm-3.441,11.355l4.974,5.869c0.075,0.089 0.191,0.131 0.306,0.11l7.706,-1.397c0.333,-0.06 0.673,0.062 0.892,0.32l5.12,6.042c0.074,0.088 0.191,0.131 0.305,0.11l7.707,-1.397c0.333,-0.061 0.673,0.061 0.892,0.32l4.372,5.159c0.116,0.137 0.321,0.154 0.458,0.038c0.137,-0.116 0.154,-0.321 0.038,-0.458l-4.372,-5.159c-0.219,-0.259 -0.283,-0.614 -0.169,-0.933l2.643,-7.372c0.039,-0.11 0.017,-0.232 -0.058,-0.32l-5.119,-6.042c-0.219,-0.259 -0.284,-0.614 -0.169,-0.933l2.391,-6.669c0.116,-0.323 0.398,-0.559 0.737,-0.615l5.952,-0.99c0.177,-0.03 0.297,-0.197 0.268,-0.374c-0.03,-0.177 -0.197,-0.297 -0.374,-0.267l-5.977,0.994c-0.329,0.055 -0.663,-0.068 -0.879,-0.323l-5.071,-5.984c-0.075,-0.089 -0.191,-0.13 -0.306,-0.11l-8.429,1.528c-0.114,0.021 -0.209,0.101 -0.248,0.21l-2.643,7.372c-0.115,0.319 -0.39,0.553 -0.724,0.613l-6.983,1.266c-0.333,0.06 -0.673,-0.062 -0.892,-0.32l-3.803,-4.488c-0.116,-0.136 -0.321,-0.154 -0.458,-0.038c-0.136,0.116 -0.153,0.322 -0.037,0.459l3.802,4.487c0.219,0.259 0.283,0.614 0.169,0.933l-2.438,6.8c-0.097,0.269 -0.31,0.481 -0.581,0.575l-8.15,2.836c-0.169,0.059 -0.259,0.244 -0.2,0.414c0.059,0.169 0.244,0.259 0.414,0.2l7.899,-2.749c0.37,-0.129 0.782,-0.017 1.035,0.283Zm16.315,-4.704l-4.587,-5.414c-0.219,-0.259 -0.284,-0.615 -0.17,-0.933l2.396,-6.681c0.114,-0.319 0.39,-0.552 0.723,-0.612l6.983,-1.266c0.333,-0.061 0.674,0.061 0.893,0.32l4.587,5.414c0.219,0.259 0.284,0.614 0.169,0.933l-2.395,6.681c-0.114,0.319 -0.39,0.552 -0.723,0.612l-6.983,1.266c-0.333,0.061 -0.674,-0.061 -0.893,-0.32Zm-2.787,-6.222l3.88,4.579l5.906,-1.071l2.026,-5.65l-3.88,-4.579l-5.906,1.071l-2.026,5.65Zm1.742,-5.889l-0.093,0.259c0.037,0.014 0.077,0.021 0.117,0.021l-0.024,-0.28Zm-4.038,7.117l4.587,5.414c0.219,0.259 0.284,0.614 0.17,0.933l-2.396,6.681c-0.114,0.318 -0.39,0.552 -0.723,0.613l-6.983,1.265c-0.333,0.061 -0.674,-0.061 -0.893,-0.32l-4.587,-5.414c-0.219,-0.259 -0.284,-0.614 -0.169,-0.933l2.395,-6.681c0.114,-0.318 0.39,-0.552 0.723,-0.613l6.983,-1.265c0.334,-0.061 0.674,0.061 0.893,0.32Zm-7.283,2.475l-0.058,0.163l0.083,0.117c-0,0 -0.012,-0.132 -0.025,-0.28Zm-1.742,5.889l3.88,4.579l5.906,-1.071l2.026,-5.649l-3.88,-4.58l-5.906,1.071l-2.026,5.65Zm15.173,-2.344l6.983,-1.265c0.334,-0.061 0.674,0.061 0.893,0.319l4.587,5.415c0.219,0.259 0.284,0.614 0.17,0.933l-2.396,6.681c-0.114,0.318 -0.39,0.552 -0.723,0.612l-6.983,1.266c-0.334,0.06 -0.674,-0.062 -0.893,-0.32l-4.588,-5.415c-0.218,-0.258 -0.283,-0.613 -0.169,-0.932l2.396,-6.681c0.114,-0.318 0.39,-0.552 0.723,-0.613Zm-1.149,7.418l3.88,4.58l5.906,-1.071l2.026,-5.65l-3.88,-4.579l-5.906,1.07l-2.026,5.65Zm8.087,-7.075l-0.02,-0.023l-0.342,0.062c0.011,0.062 0.039,0.119 0.078,0.164l0.264,0.122c0,-0 -0,-0.163 0.02,-0.325Zm4.855,-8.292l0.083,0.117l-0.023,-0.284l-0.06,0.167Zm91.869,-72.36l7.525,2.765c0.295,0.108 0.515,0.36 0.583,0.667c0.068,0.307 -0.024,0.628 -0.246,0.851l-4.27,4.297l0.983,0.361c0.324,0.119 0.554,0.409 0.598,0.751c0.043,0.342 -0.108,0.68 -0.392,0.876l-9.876,6.823c-0.345,0.238 -0.808,0.214 -1.127,-0.06c-0.318,-0.273 -0.412,-0.728 -0.228,-1.105l2.575,-5.283l-1.627,-0.492c-0.269,-0.081 -0.486,-0.28 -0.59,-0.541c-0.104,-0.26 -0.085,-0.553 0.053,-0.798l4.916,-8.699c0.222,-0.394 0.698,-0.569 1.123,-0.413Zm-150.22,92.665c9.686,-0.612 19.208,4.668 23.534,13.996c5.628,12.137 0.345,26.559 -11.792,32.187c-12.136,5.628 -26.558,0.345 -32.187,-11.792c-4.326,-9.329 -2.205,-20.008 4.52,-27.006l-4.228,-9.117l-2.208,1.024c-0.971,0.45 -2.123,0.028 -2.573,-0.943l-3.728,-8.04c-0.45,-0.971 -0.029,-2.122 0.942,-2.572l20.342,-9.434c0.97,-0.45 2.122,-0.028 2.572,0.943l3.729,8.04c0.45,0.971 0.028,2.122 -0.943,2.572l-2.208,1.025l4.228,9.117l-0,-0Zm-24.333,-9.564l2.099,4.526l16.827,-7.803l-2.099,-4.526l-16.827,7.803l0,0Zm7.694,6.202l5.44,11.667c-7.143,5.723 -9.753,15.785 -5.731,24.456c4.728,10.197 16.846,14.636 27.042,9.908c10.197,-4.729 14.636,-16.846 9.908,-27.043c-4.018,-8.664 -13.371,-13.171 -22.347,-11.429l-5.416,-11.684l-8.896,4.125l0,-0Zm31.061,16.632c0.96,1.132 1.785,2.41 2.439,3.821c3.921,8.453 0.24,18.499 -8.213,22.419c-8.454,3.921 -18.5,0.24 -22.42,-8.213c-0.176,-0.381 -0.338,-0.765 -0.483,-1.151c0.002,-0.042 0.006,-0.084 0.009,-0.125c0.05,-0.509 0.184,-1.007 0.405,-1.468c1.917,-3.994 6.792,-0.161 9.469,-2.721c1.189,-1.136 1.621,-2.813 2.138,-4.319c0.756,-2.199 1.991,-4.703 4.268,-5.672c1.54,-0.654 2.977,-0.194 4.341,0.621c1.037,0.62 2.028,1.519 3.334,1.249c2.339,-0.484 2.294,-4.219 4.713,-4.441l0,-0Zm186.372,-116.759l-4.554,-7.046l-8.379,0.421l-3.825,7.467l4.554,7.046l8.379,-0.421l3.825,-7.467Zm11.01,-2.06l3.825,-7.467l-4.555,-7.046l-8.379,0.421l-3.825,7.467l4.555,7.046l8.379,-0.421Zm-8.228,3.427l-3.825,7.467l4.554,7.046l8.379,-0.421l3.825,-7.467l-4.554,-7.046l-8.379,0.421Z" style="fill:#854293;fill-opacity:0.5;"/></g></g><defs><radialGradient id="_Radial1" cx="0" cy="0" r="1" gradientUnits="userSpaceOnUse" gradientTransform="matrix(8.11621e-15,132.548,-132.548,8.11621e-15,132.498,89.9787)"><stop offset="0" style="stop-color:#c672d7;stop-opacity:1"/><stop offset="0.45" style="stop-color:#bc69cd;stop-opacity:1"/><stop offset="1" style="stop-color:#a554b5;stop-opacity:1"/></radialGradient></defs></svg>