<?xml version="1.0" encoding="UTF-8" standalone="no"?>
<svg
   xmlns:dc="http://purl.org/dc/elements/1.1/"
   xmlns:cc="http://creativecommons.org/ns#"
   xmlns:rdf="http://www.w3.org/1999/02/22-rdf-syntax-ns#"
   xmlns:svg="http://www.w3.org/2000/svg"
   xmlns="http://www.w3.org/2000/svg"
   id="svg4554"
   version="1.1"
   width="511pt"
   viewBox="-54 0 511 511.99936"
   height="511pt">
  <metadata
     id="metadata4560">
    <rdf:RDF>
      <cc:Work
         rdf:about="">
        <dc:format>image/svg+xml</dc:format>
        <dc:type
           rdf:resource="http://purl.org/dc/dcmitype/StillImage" />
        <dc:title></dc:title>
      </cc:Work>
    </rdf:RDF>
  </metadata>
  <defs
     id="defs4558" />
  <path
     fill="#1fd7c3"
     style="fill:#ffffff;fill-opacity:1"
     id="path4540"
     d="m207.484375 264.882812-32.425781 13.6875c.121094.28125 11.851562 69.933594 11.609375 104.976563-.285157 41.332031-16.667969 74.0625-48.730469 97.425781-4.394531 3.203125-5.621094 9.226563-2.714844 13.824219l7.867188 12.441406c3.167968 5.015625 9.898437 6.265625 14.714844 2.800781 41.964843-30.207031 64.0625-74.09375 64.0625-127.574218 0-41.972656-13.796876-116.195313-14.382813-117.582032zm0 0" />
  <path
     fill="#00bbc9"
     style="fill:#ffffff;fill-opacity:1"
     id="path4542"
     d="m175.058594 278.570312c.121094.28125 11.851562 69.933594 11.609375 104.976563-.066407 9.75-1.042969 19.015625-2.898438 27.800781 2.71875-2.273437 5.378907-4.703125 7.972657-7.296875 3.851562-3.851562 7.359374-7.746093 10.550781-11.730469 3.195312 3.984376 6.699219 7.878907 10.554687 11.730469 2.242188 2.242188 4.535156 4.359375 6.867188 6.359375 1.425781-8.988281 2.152344-18.308594 2.152344-27.949218 0-41.972657-13.796876-116.191407-14.382813-117.578126zm0 0" />
  <path
     fill="#1fd7c3"
     style="fill:#ffffff;fill-opacity:1"
     id="path4544"
     d="m382.699219 234.199219c-11.925781-11.925781-24.417969-19.871094-42.117188-24.976563-10.546875-3.042968-25.542969-5.472656-41.925781-7.410156 16.351562-1.9375 31.335938-4.371094 41.9375-7.429688 17.707031-5.101562 30.175781-13.070312 42.105469-24.996093 29.472656-29.472657 26.160156-65.066407 4.085937-87.144531-21.714844-21.707032-44.371094-15.566407-52.972656-11.96875 3.605469-8.59375 9.710938-31.289063-11.996094-53-22.078125-22.074219-57.644531-25.355469-87.117187 4.121093-11.925781 11.929688-19.871094 24.414063-24.976563 42.121094-3.039062 10.542969-5.472656 25.535156-7.410156 41.914063-1.933594-16.347657-4.375-31.335938-7.429688-41.9375-5.101562-17.699219-13.070312-30.167969-24.996093-42.097657-29.476563-29.476562-65.066407-26.160156-87.144531-4.085937-21.707032 21.707031-15.566407 44.363281-11.96875 52.964844-8.59375-3.597657-31.292969-9.710938-53 11.996093-22.074219 22.078125-25.359376 57.644531 4.121093 87.117188 11.925781 11.925781 24.410157 19.878906 42.117188 24.984375 10.542969 3.039062 25.527343 5.46875 41.90625 7.40625-16.34375 1.933594-31.328125 4.371094-41.925781 7.425781-17.699219 5.109375-30.171876 13.070313-42.097657 24.996094-29.480469 29.476562-26.164062 65.066406-4.085937 87.152343 21.707031 21.703126 44.363281 15.558594 52.964844 11.960938-3.597657 8.597656-9.710938 31.289062 11.996093 52.996094 22.078125 22.078125 57.640625 25.359375 87.117188-4.109375 11.925781-11.929688 19.878906-24.421875 24.984375-42.121094 3.039062-10.539063 5.46875-25.53125 7.40625-41.910156 1.933594 16.34375 4.371094 31.328125 7.425781 41.925781 5.109375 17.707031 13.070313 30.175781 24.996094 42.105469 29.472656 29.46875 65.066406 26.160156 87.152343 4.082031 21.707032-21.710938 15.558594-44.371094 11.960938-52.96875 8.601562 3.601562 31.292969 9.710938 53-12 22.074219-22.074219 25.359375-57.636719-4.113281-87.113281zm0 0" />
  <g
     fill="#444f5c"
     style="fill:#ffffff;fill-opacity:1"
     id="g4552">
    <path
       style="fill:#ffffff;fill-opacity:1"
       id="path4546"
       d="m124.097656 168.175781c-4.269531 0-7.726562-3.460937-7.726562-7.726562v-14.152344c0-4.269531 3.457031-7.726563 7.726562-7.726563 4.265625 0 7.722656 3.457032 7.722656 7.726563v14.152344c0 4.265625-3.457031 7.726562-7.722656 7.726562zm0 0" />
    <path
       style="fill:#ffffff;fill-opacity:1"
       id="path4548"
       d="m280.492188 168.175781c-4.269532 0-7.726563-3.460937-7.726563-7.726562v-14.152344c0-4.269531 3.457031-7.726563 7.726563-7.726563 4.265624 0 7.726562 3.457032 7.726562 7.726563v14.152344c0 4.265625-3.460938 7.726562-7.726562 7.726562zm0 0" />
    <path
       style="fill:#ffffff;fill-opacity:1"
       id="path4550"
       d="m202.292969 175.730469c-9.75 0-18.90625-4.078125-25.117188-11.179688-2.808593-3.214843-2.480469-8.097656.734375-10.90625 3.210938-2.804687 8.09375-2.476562 10.902344.734375 3.273438 3.746094 8.1875 5.898438 13.480469 5.898438s10.207031-2.152344 13.484375-5.898438c2.808594-3.214844 7.6875-3.539062 10.902344-.730468 3.210937 2.808593 3.542968 7.6875.730468 10.902343-6.210937 7.105469-15.363281 11.179688-25.117187 11.179688zm0 0" />
  </g>
</svg>
