<?xml version="1.0" encoding="UTF-8" standalone="no"?>
<!-- Created with Inkscape (http://www.inkscape.org/) -->

<svg
   width="50"
   height="50"
   viewBox="0 0 13.229167 13.229167"
   version="1.1"
   id="svg5"
   inkscape:version="1.2 (dc2aedaf03, 2022-05-15)"
   sodipodi:docname="Showdown Wins.svg"
   xml:space="preserve"
   xmlns:inkscape="http://www.inkscape.org/namespaces/inkscape"
   xmlns:sodipodi="http://sodipodi.sourceforge.net/DTD/sodipodi-0.dtd"
   xmlns:xlink="http://www.w3.org/1999/xlink"
   xmlns="http://www.w3.org/2000/svg"
   xmlns:svg="http://www.w3.org/2000/svg"><sodipodi:namedview
     id="namedview7"
     pagecolor="#505050"
     bordercolor="#ffffff"
     borderopacity="1"
     inkscape:showpageshadow="0"
     inkscape:pageopacity="0"
     inkscape:pagecheckerboard="1"
     inkscape:deskcolor="#505050"
     inkscape:document-units="mm"
     showgrid="false"
     inkscape:zoom="3.1905678"
     inkscape:cx="3.761086"
     inkscape:cy="18.178582"
     inkscape:window-width="1366"
     inkscape:window-height="705"
     inkscape:window-x="-8"
     inkscape:window-y="-8"
     inkscape:window-maximized="1"
     inkscape:current-layer="layer1" /><defs
     id="defs2"><linearGradient
       inkscape:collect="always"
       id="linearGradient12557"><stop
         style="stop-color:#a8c5bb;stop-opacity:1;"
         offset="0"
         id="stop12553" /><stop
         style="stop-color:#abd4cb;stop-opacity:1;"
         offset="1"
         id="stop12555" /></linearGradient><linearGradient
       inkscape:collect="always"
       id="linearGradient1860"><stop
         style="stop-color:#fff900;stop-opacity:1;"
         offset="0"
         id="stop1856" /><stop
         style="stop-color:#fbc500;stop-opacity:1;"
         offset="1"
         id="stop1858" /></linearGradient><linearGradient
       inkscape:collect="always"
       xlink:href="#linearGradient1860"
       id="linearGradient2777"
       gradientUnits="userSpaceOnUse"
       x1="92.905212"
       y1="44.110912"
       x2="154.17389"
       y2="102.69566" /><clipPath
       clipPathUnits="userSpaceOnUse"
       id="clipPath9932"><rect
         style="opacity:1;fill:#7f8a86;fill-opacity:1;stroke:none;stroke-width:6.46499;stroke-linecap:round;stroke-linejoin:round;stroke-miterlimit:9.4;stroke-dasharray:none;stroke-opacity:1;paint-order:stroke fill markers"
         id="rect9934"
         width="8.0692787"
         height="0.94690514"
         x="3.0879233"
         y="5.4755816"
         ry="0.37033436" /></clipPath><clipPath
       clipPathUnits="userSpaceOnUse"
       id="clipPath10860"><path
         id="path10862"
         style="opacity:1;fill:#a8c5bb;fill-opacity:1;stroke:none;stroke-width:5.10955;stroke-linecap:round;stroke-linejoin:round;stroke-miterlimit:9.4;stroke-dasharray:none;stroke-opacity:1;paint-order:stroke fill markers"
         d="m 6.5871947,6.792867 c -1.8725943,0 -3.4327253,1.2894328 -3.8452433,3.0323732 V 13.229167 H 11.503174 V 9.8273071 C 11.091401,8.0833174 9.5307491,6.792867 7.6574137,6.792867 Z" /></clipPath><clipPath
       clipPathUnits="userSpaceOnUse"
       id="clipPath11026"><circle
         style="fill:#ffffff;fill-opacity:1;fill-rule:evenodd;stroke-width:0.134781"
         id="circle11028"
         cx="7.122304"
         cy="10.011017"
         r="2.2859762" /></clipPath><filter
       style="color-interpolation-filters:sRGB;"
       inkscape:label="Drop Shadow"
       id="filter11620"
       x="0"
       y="0"
       width="1"
       height="1.0806321"><feFlood
         flood-opacity="0.6"
         flood-color="rgb(0,0,0)"
         result="flood"
         id="feFlood11610" /><feComposite
         in="flood"
         in2="SourceGraphic"
         operator="in"
         result="composite1"
         id="feComposite11612" /><feGaussianBlur
         in="composite1"
         stdDeviation="0"
         result="blur"
         id="feGaussianBlur11614" /><feOffset
         dx="-2.77556e-17"
         dy="0.1"
         result="offset"
         id="feOffset11616" /><feComposite
         in="SourceGraphic"
         in2="offset"
         operator="over"
         result="composite2"
         id="feComposite11618" /></filter><clipPath
       clipPathUnits="userSpaceOnUse"
       id="clipPath12180"><path
         id="path12182"
         style="opacity:1;fill:#a8c5bb;fill-opacity:1;stroke:none;stroke-width:5.10955;stroke-linecap:round;stroke-linejoin:round;stroke-miterlimit:9.4;stroke-dasharray:none;stroke-opacity:1;paint-order:stroke fill markers"
         d="m 6.5871947,6.792867 c -1.8725943,0 -3.4327253,1.2894328 -3.8452433,3.0323732 V 13.229167 H 11.503174 V 9.8273071 C 11.091401,8.0833174 9.5307491,6.792867 7.6574137,6.792867 Z" /></clipPath><clipPath
       clipPathUnits="userSpaceOnUse"
       id="clipPath13026"><path
         id="path13028"
         style="opacity:1;fill:url(#linearGradient13030);fill-opacity:1;stroke:none;stroke-width:5.10955;stroke-linecap:round;stroke-linejoin:round;stroke-miterlimit:9.4;stroke-dasharray:none;stroke-opacity:1;paint-order:stroke fill markers"
         d="M -1.7545932,9.2981492 C -2.8338676,7.7678628 -4.786779,7.2360897 -6.4488677,7.9035275 l -2.7816931,1.9618616 5.0495523,7.1596819 2.780004,-1.960671 c 1.18786414,-1.341654 1.3429362,-3.360775 0.2632347,-4.891667 z" /></clipPath><linearGradient
       inkscape:collect="always"
       xlink:href="#linearGradient12557"
       id="linearGradient13030"
       gradientUnits="userSpaceOnUse"
       x1="7.2023153"
       y1="6.7671156"
       x2="4.3564544"
       y2="8.3890667"
       gradientTransform="rotate(54.805598)" /><clipPath
       clipPathUnits="userSpaceOnUse"
       id="clipPath13034"><path
         id="path13036"
         style="opacity:1;fill:url(#linearGradient13038);fill-opacity:1;stroke:none;stroke-width:5.10955;stroke-linecap:round;stroke-linejoin:round;stroke-miterlimit:9.4;stroke-dasharray:none;stroke-opacity:1;paint-order:stroke fill markers"
         d="M -1.8929553,9.2709706 C -2.9493062,7.7247713 -4.8940765,7.1639558 -6.5659265,7.8065518 l -2.810619,1.9201922 4.9423012,7.234133 2.8089123,-1.919026 c 1.207725,-1.323804 1.39286789,-3.34039 0.3360989,-4.887202 z" /></clipPath><linearGradient
       inkscape:collect="always"
       xlink:href="#linearGradient12557"
       id="linearGradient13038"
       gradientUnits="userSpaceOnUse"
       x1="7.2023153"
       y1="6.7671156"
       x2="4.3564544"
       y2="8.3890667"
       gradientTransform="rotate(55.659426)" /><filter
       style="color-interpolation-filters:sRGB;"
       inkscape:label="Drop Shadow"
       id="filter21612"
       x="-0.029991898"
       y="0"
       width="1.0299919"
       height="1.0185991"><feFlood
         flood-opacity="0.313725"
         flood-color="rgb(0,0,0)"
         result="flood"
         id="feFlood21602" /><feComposite
         in="flood"
         in2="SourceGraphic"
         operator="in"
         result="composite1"
         id="feComposite21604" /><feGaussianBlur
         in="composite1"
         stdDeviation="0"
         result="blur"
         id="feGaussianBlur21606" /><feOffset
         dx="-0.2"
         dy="0.1"
         result="offset"
         id="feOffset21608" /><feComposite
         in="SourceGraphic"
         in2="offset"
         operator="over"
         result="composite2"
         id="feComposite21610" /></filter><clipPath
       clipPathUnits="userSpaceOnUse"
       id="clipPath22004"><g
         id="g22028"
         transform="rotate(47.743766,-17.469624,16.465692)"
         style="display:inline;fill:#1fecaf;fill-opacity:1"><path
           id="path22006"
           style="opacity:1;fill:#1fecaf;fill-opacity:1;stroke-width:4.4434;stroke-linecap:round;stroke-linejoin:round;stroke-miterlimit:9.4;paint-order:stroke fill markers"
           inkscape:transform-center-x="-0.018439462"
           inkscape:transform-center-y="0.080644416"
           d="m -10.631387,-3.8690675 c 0.09763,0.039497 1.1923523,-0.7333718 1.2753752,-0.7981728 0.083023,-0.064802 1.0986046,-0.9390659 1.0839968,-1.0433659 -0.014607,-0.1043013 -0.8440816,-0.5771847 -1.3289256,-0.7054211 -0.6725134,-0.1778688 -2.0030024,-0.1256047 -2.0860264,-0.060804 -0.08302,0.064803 0.679389,1.0430111 0.693997,1.1473113 0.0146,0.1043022 0.263955,1.4209519 0.361551,1.4604602 z"
           sodipodi:nodetypes="sssasss" /><path
           id="path22008"
           style="opacity:1;fill:#cc1f41;fill-opacity:1;stroke-width:6.46499;stroke-linecap:round;stroke-linejoin:round;stroke-miterlimit:9.4;paint-order:stroke fill markers"
           d="m -17.247009,-6.7024333 0.03824,1.585433 c 2.47704,3.5735296 8.0655171,6.0087552 11.5925743,0.874882 0.1753492,-0.2552327 0.1058856,-0.623284 -0.1503784,-0.7968506 -6.1340659,-4.1545799 -7.4934889,4.8346715 -11.4804359,-1.6634644 z m 9.0092689,2.4298259 c 0.2216124,1.464e-4 0.4011481,0.1799135 0.4010091,0.4015259 -1.463e-4,0.2214106 -0.1795985,0.4008628 -0.4010091,0.4010091 -0.2216124,1.39e-4 -0.4013795,-0.1793967 -0.4015259,-0.4010091 -1.391e-4,-0.2218142 0.1797117,-0.401665 0.4015259,-0.4015259 z"
           sodipodi:nodetypes="ccsscccccc" /><path
           id="path22010"
           style="display:none;opacity:1;fill:#1fecaf;fill-opacity:1;stroke-width:6.46499;stroke-linecap:round;stroke-linejoin:round;stroke-miterlimit:9.4;paint-order:stroke fill markers"
           inkscape:transform-center-x="-0.21299527"
           inkscape:transform-center-y="0.17577549"
           transform="matrix(-0.62877231,-0.2775428,0.2775428,-0.62877231,-21.193785,-9.0970997)"
           d="m -16.588137,-2.4015921 c -0.07662,0.1327047 -2.024101,0.2262752 -2.177335,0.2262752 -0.153235,0 -2.100718,-0.093571 -2.177335,-0.2262752 -0.07662,-0.1327048 0.451414,-1.4176422 0.892707,-1.9987651 0.612104,-0.8060582 2.184905,-1.9371914 2.33814,-1.9371914 0.153234,0 0.154498,1.8044866 0.231115,1.9371914 0.07662,0.1327048 0.969325,1.8660603 0.892708,1.9987651 z"
           sodipodi:nodetypes="sssasss" /><path
           id="path22012"
           style="opacity:1;fill:#1fecaf;fill-opacity:1;stroke-width:5.43909;stroke-linecap:round;stroke-linejoin:round;stroke-miterlimit:9.4;paint-order:stroke fill markers"
           inkscape:transform-center-x="0.5270122"
           inkscape:transform-center-y="0.31081448"
           d="m -14.995006,-7.4894512 c 0.09837,0.083339 -0.116349,1.709562 -0.139336,1.8364134 -0.02299,0.1268544 -0.392621,1.7250038 -0.513972,1.7685199 -0.121356,0.043525 -1.194676,-0.5187111 -1.520712,-1.0388746 -0.419607,-0.6694491 -0.373229,-2.2173808 -0.350243,-2.3442315 0.02299,-0.1268546 0.903275,1.3588022 1.024627,1.3152861 0.121356,-0.043525 1.401269,-1.6204408 1.499622,-1.5371485 z"
           sodipodi:nodetypes="sssassss" /><ellipse
           style="fill:#ffffff;fill-opacity:1;fill-rule:evenodd;stroke-width:0.264583"
           id="ellipse22014"
           cx="-8.3501587"
           cy="-3.9118292"
           rx="0.90621078"
           ry="0.8769781" /><g
           id="g22020"
           transform="rotate(6.1344487,-13.053407,-3.4715317)"><path
             style="fill:none;fill-rule:evenodd;stroke:#1fecaf;stroke-width:0.228;stroke-dasharray:none;stroke-opacity:1"
             id="path22016"
             sodipodi:type="arc"
             sodipodi:cx="-10.437599"
             sodipodi:cy="-4.6137857"
             sodipodi:rx="0.78002316"
             sodipodi:ry="0.58745313"
             sodipodi:start="1.8390349"
             sodipodi:end="4.2338898"
             sodipodi:arc-type="arc"
             d="m -10.644331,-4.0473404 a 0.78002316,0.58745313 0 0 1 -0.568985,-0.5047999 0.78002316,0.58745313 0 0 1 0.416557,-0.5831199"
             sodipodi:open="true" /><path
             style="fill:none;fill-rule:evenodd;stroke:#1fecaf;stroke-width:0.228;stroke-dasharray:none;stroke-opacity:1"
             id="path22018"
             sodipodi:type="arc"
             sodipodi:cx="-10.252806"
             sodipodi:cy="-3.5554254"
             sodipodi:rx="0.78002316"
             sodipodi:ry="0.58745313"
             sodipodi:start="1.8390349"
             sodipodi:end="4.2338898"
             sodipodi:arc-type="arc"
             d="m -10.459538,-2.9889801 a 0.78002316,0.58745313 0 0 1 -0.568984,-0.5047999 0.78002316,0.58745313 0 0 1 0.416557,-0.5831199"
             sodipodi:open="true" /></g><g
           id="g22026"
           transform="matrix(0.88238608,0.09483649,-0.09483649,0.88238608,-2.8528951,0.84303844)"><path
             style="fill:none;fill-rule:evenodd;stroke:#1fecaf;stroke-width:0.228;stroke-dasharray:none;stroke-opacity:1"
             id="path22022"
             sodipodi:type="arc"
             sodipodi:cx="-10.437599"
             sodipodi:cy="-4.6137857"
             sodipodi:rx="0.78002316"
             sodipodi:ry="0.58745313"
             sodipodi:start="1.8390349"
             sodipodi:end="4.2338898"
             sodipodi:arc-type="arc"
             d="m -10.644331,-4.0473404 a 0.78002316,0.58745313 0 0 1 -0.568985,-0.5047999 0.78002316,0.58745313 0 0 1 0.416557,-0.5831199"
             sodipodi:open="true" /><path
             style="fill:none;fill-rule:evenodd;stroke:#1fecaf;stroke-width:0.228;stroke-dasharray:none;stroke-opacity:1"
             id="path22024"
             sodipodi:type="arc"
             sodipodi:cx="-10.252806"
             sodipodi:cy="-3.5554254"
             sodipodi:rx="0.78002316"
             sodipodi:ry="0.58745313"
             sodipodi:start="1.8390349"
             sodipodi:end="4.2338898"
             sodipodi:arc-type="arc"
             d="m -10.459538,-2.9889801 a 0.78002316,0.58745313 0 0 1 -0.568984,-0.5047999 0.78002316,0.58745313 0 0 1 0.416557,-0.5831199"
             sodipodi:open="true" /></g></g></clipPath><clipPath
       clipPathUnits="userSpaceOnUse"
       id="clipPath22057"><g
         id="g22081"
         transform="translate(17.909221,7.5366729)"
         style="display:inline;fill:#1fecaf;fill-opacity:1"><path
           id="path22059"
           style="opacity:1;fill:#1fecaf;fill-opacity:1;stroke-width:4.4434;stroke-linecap:round;stroke-linejoin:round;stroke-miterlimit:9.4;paint-order:stroke fill markers"
           inkscape:transform-center-x="-0.018439462"
           inkscape:transform-center-y="0.080644416"
           d="m -10.631387,-3.8690675 c 0.09763,0.039497 1.1923523,-0.7333718 1.2753752,-0.7981728 0.083023,-0.064802 1.0986046,-0.9390659 1.0839968,-1.0433659 -0.014607,-0.1043013 -0.8440816,-0.5771847 -1.3289256,-0.7054211 -0.6725134,-0.1778688 -2.0030024,-0.1256047 -2.0860264,-0.060804 -0.08302,0.064803 0.679389,1.0430111 0.693997,1.1473113 0.0146,0.1043022 0.263955,1.4209519 0.361551,1.4604602 z"
           sodipodi:nodetypes="sssasss" /><path
           id="path22061"
           style="opacity:1;fill:#cc1f41;fill-opacity:1;stroke-width:6.46499;stroke-linecap:round;stroke-linejoin:round;stroke-miterlimit:9.4;paint-order:stroke fill markers"
           d="m -17.247009,-6.7024333 0.03824,1.585433 c 2.47704,3.5735296 8.0655171,6.0087552 11.5925743,0.874882 0.1753492,-0.2552327 0.1058856,-0.623284 -0.1503784,-0.7968506 -6.1340659,-4.1545799 -7.4934889,4.8346715 -11.4804359,-1.6634644 z m 9.0092689,2.4298259 c 0.2216124,1.464e-4 0.4011481,0.1799135 0.4010091,0.4015259 -1.463e-4,0.2214106 -0.1795985,0.4008628 -0.4010091,0.4010091 -0.2216124,1.39e-4 -0.4013795,-0.1793967 -0.4015259,-0.4010091 -1.391e-4,-0.2218142 0.1797117,-0.401665 0.4015259,-0.4015259 z"
           sodipodi:nodetypes="ccsscccccc" /><path
           id="path22063"
           style="display:none;opacity:1;fill:#1fecaf;fill-opacity:1;stroke-width:6.46499;stroke-linecap:round;stroke-linejoin:round;stroke-miterlimit:9.4;paint-order:stroke fill markers"
           inkscape:transform-center-x="-0.21299527"
           inkscape:transform-center-y="0.17577549"
           transform="matrix(-0.62877231,-0.2775428,0.2775428,-0.62877231,-21.193785,-9.0970997)"
           d="m -16.588137,-2.4015921 c -0.07662,0.1327047 -2.024101,0.2262752 -2.177335,0.2262752 -0.153235,0 -2.100718,-0.093571 -2.177335,-0.2262752 -0.07662,-0.1327048 0.451414,-1.4176422 0.892707,-1.9987651 0.612104,-0.8060582 2.184905,-1.9371914 2.33814,-1.9371914 0.153234,0 0.154498,1.8044866 0.231115,1.9371914 0.07662,0.1327048 0.969325,1.8660603 0.892708,1.9987651 z"
           sodipodi:nodetypes="sssasss" /><path
           id="path22065"
           style="opacity:1;fill:#1fecaf;fill-opacity:1;stroke-width:5.43909;stroke-linecap:round;stroke-linejoin:round;stroke-miterlimit:9.4;paint-order:stroke fill markers"
           inkscape:transform-center-x="0.5270122"
           inkscape:transform-center-y="0.31081448"
           d="m -14.995006,-7.4894512 c 0.09837,0.083339 -0.116349,1.709562 -0.139336,1.8364134 -0.02299,0.1268544 -0.392621,1.7250038 -0.513972,1.7685199 -0.121356,0.043525 -1.194676,-0.5187111 -1.520712,-1.0388746 -0.419607,-0.6694491 -0.373229,-2.2173808 -0.350243,-2.3442315 0.02299,-0.1268546 0.903275,1.3588022 1.024627,1.3152861 0.121356,-0.043525 1.401269,-1.6204408 1.499622,-1.5371485 z"
           sodipodi:nodetypes="sssassss" /><ellipse
           style="fill:#ffffff;fill-opacity:1;fill-rule:evenodd;stroke-width:0.264583"
           id="ellipse22067"
           cx="-8.3501587"
           cy="-3.9118292"
           rx="0.90621078"
           ry="0.8769781" /><g
           id="g22073"
           transform="rotate(6.1344487,-13.053407,-3.4715317)"><path
             style="fill:none;fill-rule:evenodd;stroke:#1fecaf;stroke-width:0.228;stroke-dasharray:none;stroke-opacity:1"
             id="path22069"
             sodipodi:type="arc"
             sodipodi:cx="-10.437599"
             sodipodi:cy="-4.6137857"
             sodipodi:rx="0.78002316"
             sodipodi:ry="0.58745313"
             sodipodi:start="1.8390349"
             sodipodi:end="4.2338898"
             sodipodi:arc-type="arc"
             d="m -10.644331,-4.0473404 a 0.78002316,0.58745313 0 0 1 -0.568985,-0.5047999 0.78002316,0.58745313 0 0 1 0.416557,-0.5831199"
             sodipodi:open="true" /><path
             style="fill:none;fill-rule:evenodd;stroke:#1fecaf;stroke-width:0.228;stroke-dasharray:none;stroke-opacity:1"
             id="path22071"
             sodipodi:type="arc"
             sodipodi:cx="-10.252806"
             sodipodi:cy="-3.5554254"
             sodipodi:rx="0.78002316"
             sodipodi:ry="0.58745313"
             sodipodi:start="1.8390349"
             sodipodi:end="4.2338898"
             sodipodi:arc-type="arc"
             d="m -10.459538,-2.9889801 a 0.78002316,0.58745313 0 0 1 -0.568984,-0.5047999 0.78002316,0.58745313 0 0 1 0.416557,-0.5831199"
             sodipodi:open="true" /></g><g
           id="g22079"
           transform="matrix(0.88238608,0.09483649,-0.09483649,0.88238608,-2.8528951,0.84303844)"><path
             style="fill:none;fill-rule:evenodd;stroke:#1fecaf;stroke-width:0.228;stroke-dasharray:none;stroke-opacity:1"
             id="path22075"
             sodipodi:type="arc"
             sodipodi:cx="-10.437599"
             sodipodi:cy="-4.6137857"
             sodipodi:rx="0.78002316"
             sodipodi:ry="0.58745313"
             sodipodi:start="1.8390349"
             sodipodi:end="4.2338898"
             sodipodi:arc-type="arc"
             d="m -10.644331,-4.0473404 a 0.78002316,0.58745313 0 0 1 -0.568985,-0.5047999 0.78002316,0.58745313 0 0 1 0.416557,-0.5831199"
             sodipodi:open="true" /><path
             style="fill:none;fill-rule:evenodd;stroke:#1fecaf;stroke-width:0.228;stroke-dasharray:none;stroke-opacity:1"
             id="path22077"
             sodipodi:type="arc"
             sodipodi:cx="-10.252806"
             sodipodi:cy="-3.5554254"
             sodipodi:rx="0.78002316"
             sodipodi:ry="0.58745313"
             sodipodi:start="1.8390349"
             sodipodi:end="4.2338898"
             sodipodi:arc-type="arc"
             d="m -10.459538,-2.9889801 a 0.78002316,0.58745313 0 0 1 -0.568984,-0.5047999 0.78002316,0.58745313 0 0 1 0.416557,-0.5831199"
             sodipodi:open="true" /></g></g></clipPath><clipPath
       clipPathUnits="userSpaceOnUse"
       id="clipPath609"><path
         id="path611"
         style="display:inline;opacity:1;fill:#1fecaf;fill-opacity:1;stroke-width:6.46499;stroke-linecap:round;stroke-linejoin:round;stroke-miterlimit:9.4;paint-order:stroke fill markers"
         d="M 0.662212,0.83423961 0.700452,2.4196726 C 3.1774921,5.9932022 8.7659692,8.4284278 12.293026,3.2945546 12.468376,3.0393219 12.398912,2.6712706 12.142648,2.497704 6.0085819,-1.6568759 4.6491591,7.3323754 0.662212,0.83423961 Z M 9.671481,3.2640656 C 9.8930934,3.2642119 10.072629,3.4439791 10.07249,3.6655915 10.072344,3.887002 9.8928915,4.0664543 9.671481,4.0666006 9.4498684,4.0667395 9.2701015,3.8872038 9.2699549,3.6655915 9.269816,3.4437772 9.4496668,3.2639265 9.671481,3.2640656 Z"
         sodipodi:nodetypes="ccsscccccc"
         inkscape:label="clipto" /></clipPath><clipPath
       clipPathUnits="userSpaceOnUse"
       id="clipPath944"><path
         id="path946"
         style="display:inline;opacity:1;fill:#cc1f41;fill-opacity:1;stroke-width:6.46499;stroke-linecap:round;stroke-linejoin:round;stroke-miterlimit:9.4;paint-order:stroke fill markers"
         d="m -17.247009,-6.7024333 0.03824,1.585433 c 2.47704,3.5735296 8.0655172,6.00875516 11.5925744,0.874882 0.1753491,-0.2552327 0.1058854,-0.623284 -0.1503786,-0.7968506 -6.1340658,-4.1545799 -7.4934888,4.83467143 -11.4804358,-1.6634644 z m 9.009269,2.429826 c 0.2216124,1.463e-4 0.401148,0.1799135 0.4010091,0.4015259 -1.463e-4,0.2214105 -0.1795986,0.4008628 -0.4010091,0.4010091 -0.2216126,1.389e-4 -0.4013795,-0.1793968 -0.4015261,-0.4010091 -1.389e-4,-0.2218143 0.1797119,-0.401665 0.4015261,-0.4015259 z"
         sodipodi:nodetypes="ccsscccccc" /></clipPath><clipPath
       clipPathUnits="userSpaceOnUse"
       id="clipPath1106"><path
         id="path1108"
         style="display:inline;opacity:1;fill:#cc1f41;fill-opacity:1;stroke-width:6.46499;stroke-linecap:round;stroke-linejoin:round;stroke-miterlimit:9.4;paint-order:stroke fill markers"
         d="M 0.662212,0.83423961 0.700452,2.4196726 C 3.1774921,5.9932022 8.7659692,8.4284278 12.293026,3.2945546 12.468376,3.0393219 12.398912,2.6712706 12.142648,2.497704 6.0085819,-1.6568759 4.6491591,7.3323754 0.662212,0.83423961 Z M 9.671481,3.2640656 C 9.8930934,3.2642119 10.072629,3.4439791 10.07249,3.6655915 10.072344,3.887002 9.8928915,4.0664543 9.671481,4.0666006 9.4498684,4.0667395 9.2701015,3.8872038 9.2699549,3.6655915 9.269816,3.4437772 9.4496668,3.2639265 9.671481,3.2640656 Z"
         sodipodi:nodetypes="ccsscccccc" /></clipPath><clipPath
       clipPathUnits="userSpaceOnUse"
       id="clipPath1257"><path
         id="path1259"
         style="display:inline;opacity:1;fill:#cc1f41;fill-opacity:1;stroke-width:6.46499;stroke-linecap:round;stroke-linejoin:round;stroke-miterlimit:9.4;paint-order:stroke fill markers"
         d="M 0.662212,0.83423961 0.700452,2.4196726 C 3.1774921,5.9932022 8.7659692,8.4284278 12.293026,3.2945546 12.468376,3.0393219 12.398912,2.6712706 12.142648,2.497704 6.0085819,-1.6568759 4.6491591,7.3323754 0.662212,0.83423961 Z M 9.671481,3.2640656 C 9.8930934,3.2642119 10.072629,3.4439791 10.07249,3.6655915 10.072344,3.887002 9.8928915,4.0664543 9.671481,4.0666006 9.4498684,4.0667395 9.2701015,3.8872038 9.2699549,3.6655915 9.269816,3.4437772 9.4496668,3.2639265 9.671481,3.2640656 Z"
         sodipodi:nodetypes="ccsscccccc" /></clipPath><linearGradient
       inkscape:collect="always"
       id="linearGradient70305"><stop
         style="stop-color:#818288;stop-opacity:1;"
         offset="0"
         id="stop70303" /><stop
         style="stop-color:#91949b;stop-opacity:1;"
         offset="1"
         id="stop70301" /></linearGradient><inkscape:path-effect
       effect="tiling"
       id="path-effect65075"
       is_visible="true"
       lpeversion="1"
       unit="px"
       seed="1;1"
       lpesatellites=""
       num_rows="1"
       num_cols="1"
       gapx="0"
       gapy="2"
       offset="0"
       offset_type="false"
       scale="0"
       rotate="0"
       mirrorrowsx="false"
       mirrorrowsy="false"
       mirrorcolsx="false"
       mirrorcolsy="false"
       mirrortrans="false"
       shrink_interp="false"
       split_items="false"
       link_styles="false"
       interpolate_scalex="false"
       interpolate_scaley="true"
       interpolate_rotatex="false"
       interpolate_rotatey="true"
       random_scale="false"
       random_rotate="false"
       random_gap_y="false"
       random_gap_x="false"
       transformorigin="" /><inkscape:path-effect
       effect="tiling"
       id="path-effect58165"
       is_visible="true"
       lpeversion="1"
       unit="px"
       seed="1;1"
       lpesatellites=""
       num_rows="3"
       num_cols="2"
       gapx="11"
       gapy="0"
       offset="49"
       offset_type="false"
       scale="0"
       rotate="0"
       mirrorrowsx="false"
       mirrorrowsy="false"
       mirrorcolsx="false"
       mirrorcolsy="false"
       mirrortrans="false"
       shrink_interp="false"
       split_items="false"
       link_styles="false"
       interpolate_scalex="false"
       interpolate_scaley="true"
       interpolate_rotatex="false"
       interpolate_rotatey="true"
       random_scale="false"
       random_rotate="false"
       random_gap_y="false"
       random_gap_x="false"
       transformorigin="" /><clipPath
       clipPathUnits="userSpaceOnUse"
       id="clipPath59745"><rect
         style="fill:#ffffff;fill-opacity:1;stroke:none;stroke-width:0.421447;stroke-linecap:round;stroke-linejoin:round;stroke-miterlimit:9.4;stroke-dasharray:none;stroke-opacity:1;paint-order:stroke fill markers"
         id="rect59747"
         width="11.600519"
         height="9.0672321"
         x="4.3981586"
         y="-15.023223"
         transform="matrix(0.99896291,0.04553136,-0.25678541,0.96646844,0,0)" /></clipPath><clipPath
       clipPathUnits="userSpaceOnUse"
       id="clipPath61451"><rect
         style="opacity:1;fill:#242424;fill-opacity:1;stroke:none;stroke-width:0.424068;stroke-linecap:round;stroke-linejoin:round;stroke-miterlimit:9.4;stroke-dasharray:none;stroke-opacity:1;paint-order:stroke fill markers"
         id="rect61453"
         width="1.611246"
         height="14.29894"
         x="2.4895856"
         y="-17.344727"
         transform="matrix(0.99626573,0.08633998,0.01015039,0.99994848,0,0)"
         ry="0.73938841" /></clipPath><clipPath
       clipPathUnits="userSpaceOnUse"
       id="clipPath65079"><rect
         style="opacity:1;fill:#983f12;fill-opacity:1;stroke:none;stroke-width:0.459999;stroke-linecap:round;stroke-linejoin:round;stroke-miterlimit:9.4;stroke-dasharray:none;stroke-opacity:1;paint-order:stroke fill markers"
         id="rect65081"
         width="1.9157643"
         height="2.0538757"
         x="14.55981"
         y="11.175291" /></clipPath><clipPath
       clipPathUnits="userSpaceOnUse"
       id="clipPath65158"><rect
         style="opacity:1;fill:#c58600;fill-opacity:1;stroke:none;stroke-width:0.274651;stroke-linecap:round;stroke-linejoin:round;stroke-miterlimit:9.4;stroke-dasharray:none;stroke-opacity:1;paint-order:stroke fill markers"
         id="rect65160"
         width="3.6700928"
         height="0.94748974"
         x="13.69861"
         y="10.227801"
         ry="0.47374487" /></clipPath><clipPath
       clipPathUnits="userSpaceOnUse"
       id="clipPath65164"><rect
         style="opacity:1;fill:#c58600;fill-opacity:1;stroke:none;stroke-width:0.239591;stroke-linecap:round;stroke-linejoin:round;stroke-miterlimit:9.4;stroke-dasharray:none;stroke-opacity:1;paint-order:stroke fill markers"
         id="rect65166"
         width="2.7929282"
         height="0.94748974"
         x="14.121227"
         y="13.229167"
         ry="0.47374487" /></clipPath><clipPath
       clipPathUnits="userSpaceOnUse"
       id="clipPath65224"><rect
         style="opacity:1;fill:#983f12;fill-opacity:1;stroke:none;stroke-width:0.459999;stroke-linecap:round;stroke-linejoin:round;stroke-miterlimit:9.4;stroke-dasharray:none;stroke-opacity:1;paint-order:stroke fill markers"
         id="rect65226"
         width="1.9157643"
         height="2.0538757"
         x="14.55981"
         y="11.175291" /></clipPath><clipPath
       clipPathUnits="userSpaceOnUse"
       id="clipPath70297"><path
         id="path70299"
         style="opacity:1;fill:#91949b;fill-opacity:1;stroke-width:0.459999;stroke-linecap:round;stroke-linejoin:round;stroke-miterlimit:9.4;paint-order:stroke fill markers"
         d="M 16.196193,1.8292353 17.521262,3.8088582 17.07425,11.79121 H 15.254275 L 14.871121,3.8088582 Z"
         sodipodi:nodetypes="cccccc" /></clipPath><linearGradient
       inkscape:collect="always"
       xlink:href="#linearGradient70305"
       id="linearGradient70307"
       x1="14.208586"
       y1="7.0244689"
       x2="16.858727"
       y2="7.0244689"
       gradientUnits="userSpaceOnUse" /><linearGradient
       inkscape:collect="always"
       xlink:href="#linearGradient70305"
       id="linearGradient504"
       gradientUnits="userSpaceOnUse"
       x1="14.208586"
       y1="7.0244689"
       x2="16.858727"
       y2="7.0244689" /></defs><g
     inkscape:label="Layer 1"
     inkscape:groupmode="layer"
     id="layer1"><g
       inkscape:label="Layer 1"
       id="layer1-5"
       transform="matrix(0.82405391,0,0,0.82405391,1.1638101,1.1505282)"><g
         id="g70365"
         transform="matrix(1.023485,1.023485,-1.023485,1.023485,-0.57782548,-17.957257)"><path
           id="rect63922"
           style="opacity:1;fill:url(#linearGradient504);fill-opacity:1;stroke-width:0.459999;stroke-linecap:round;stroke-linejoin:round;stroke-miterlimit:9.4;paint-order:stroke fill markers"
           d="m 15.533419,2.0432861 -1.324984,1.9797242 0.33383,6.9458297 h 1.927531 l 0.389123,-6.9458297 z" /><rect
           style="opacity:1;fill:#983f12;fill-opacity:1;stroke:none;stroke-width:0.411269;stroke-linecap:round;stroke-linejoin:round;stroke-miterlimit:9.4;stroke-dasharray:none;stroke-opacity:1;paint-order:stroke fill markers"
           id="rect64705"
           width="1.5313684"
           height="2.0538757"
           x="14.689"
           y="11.175291" /><rect
           style="opacity:0.407186;mix-blend-mode:multiply;fill:#000000;fill-opacity:1;stroke:none;stroke-width:0.355112;stroke-linecap:round;stroke-linejoin:round;stroke-miterlimit:9.4;stroke-dasharray:none;stroke-opacity:1;paint-order:stroke fill markers"
           id="rect65280"
           width="1.5313684"
           height="0.41265106"
           x="14.689"
           y="10.968966" /><rect
           style="opacity:1;fill:#c58600;fill-opacity:1;stroke:none;stroke-width:0.167434;stroke-linecap:round;stroke-linejoin:round;stroke-miterlimit:9.4;stroke-dasharray:none;stroke-opacity:1;paint-order:stroke fill markers"
           id="rect65019"
           width="2.7929282"
           height="0.46272495"
           x="14.121227"
           y="13.229167"
           ry="0.23136248" /><rect
           style="opacity:0.532934;fill:#be5b00;fill-opacity:1;stroke:none;stroke-width:0.459999;stroke-linecap:round;stroke-linejoin:round;stroke-miterlimit:9.4;stroke-dasharray:none;stroke-opacity:1;paint-order:stroke fill markers"
           id="rect65154"
           width="5.5557165"
           height="1.3729644"
           x="12.995269"
           y="13.665786"
           clip-path="url(#clipPath65164)"
           transform="matrix(1,0,0,0.48836936,0,6.7684471)" /><rect
           style="opacity:0.170659;fill:#ffae63;fill-opacity:1;stroke:none;stroke-width:0.283562;stroke-linecap:round;stroke-linejoin:round;stroke-miterlimit:9.4;stroke-dasharray:none;stroke-opacity:1;paint-order:stroke fill markers"
           id="rect65220"
           width="0.56579435"
           height="5.8961735"
           x="14.442646"
           y="9.3504972"
           clip-path="url(#clipPath65224)"
           transform="matrix(0.79935109,0,0,1,3.0506012,0)" /><rect
           style="opacity:0.565868;fill:#d2f7f0;fill-opacity:1;stroke:none;stroke-width:0.459999;stroke-linecap:round;stroke-linejoin:round;stroke-miterlimit:9.4;stroke-dasharray:none;stroke-opacity:1;paint-order:stroke fill markers"
           id="rect65310"
           width="1.8350466"
           height="8.711237"
           x="13.69861"
           y="2.0434818"
           clip-path="url(#clipPath70297)"
           transform="translate(-0.66253547,0.21424651)" /><path
           id="rect68072"
           style="opacity:1;fill:#696c73;stroke-width:0.459999;stroke-linecap:round;stroke-linejoin:round;stroke-miterlimit:9.4;paint-order:stroke fill markers"
           d="m 16.858727,4.0231047 -0.383153,-0.078711 -0.384396,7.0071033 0.384396,0.01747 z"
           sodipodi:nodetypes="ccccc" /><rect
           style="opacity:1;fill:#c58600;fill-opacity:1;stroke:none;stroke-width:0.182984;stroke-linecap:round;stroke-linejoin:round;stroke-miterlimit:9.4;stroke-dasharray:none;stroke-opacity:1;paint-order:stroke fill markers"
           id="rect64651"
           width="3.6700928"
           height="0.42057151"
           x="13.69861"
           y="10.75472"
           ry="0.21028575" /><rect
           style="opacity:0.532934;fill:#be5b00;fill-opacity:1;stroke:none;stroke-width:0.459999;stroke-linecap:round;stroke-linejoin:round;stroke-miterlimit:9.4;stroke-dasharray:none;stroke-opacity:1;paint-order:stroke fill markers"
           id="rect65083"
           width="5.5557165"
           height="1.3729644"
           x="13.027198"
           y="10.632492"
           clip-path="url(#clipPath65158)"
           transform="matrix(1,0,0,0.44387974,0,6.2148058)" /><path
           id="rect68439"
           style="opacity:1;fill:#6f7279;fill-opacity:1;stroke-width:0.459999;stroke-linecap:round;stroke-linejoin:round;stroke-miterlimit:9.4;paint-order:stroke fill markers"
           d="M 15.533657,2.272734 V 2.0434818 l 1.330208,1.9904648 -0.388291,-0.089553 z"
           sodipodi:nodetypes="ccccc" /><path
           id="rect69220"
           style="opacity:1;fill:#d2f7f0;stroke-width:0.459999;stroke-linecap:round;stroke-linejoin:round;stroke-miterlimit:9.4;paint-order:stroke fill markers"
           d="m 15.533657,2.0434818 0.470958,1.065082 -1.47024,0.9253828 -0.325789,-0.010842 z"
           sodipodi:nodetypes="ccccc" /></g><g
         id="g70428"
         transform="matrix(-1.023485,1.023485,1.023485,1.023485,13.806992,-17.957258)"><path
           id="path70404"
           style="opacity:1;fill:url(#linearGradient70307);fill-opacity:1;stroke-width:0.459999;stroke-linecap:round;stroke-linejoin:round;stroke-miterlimit:9.4;paint-order:stroke fill markers"
           d="m 15.533419,2.0432861 -1.324984,1.9797242 0.33383,6.9458297 h 1.927531 l 0.389123,-6.9458297 z" /><rect
           style="opacity:1;fill:#983f12;fill-opacity:1;stroke:none;stroke-width:0.411269;stroke-linecap:round;stroke-linejoin:round;stroke-miterlimit:9.4;stroke-dasharray:none;stroke-opacity:1;paint-order:stroke fill markers"
           id="rect70406"
           width="1.5313684"
           height="2.0538757"
           x="14.689"
           y="11.175291" /><rect
           style="opacity:0.407186;mix-blend-mode:multiply;fill:#000000;fill-opacity:1;stroke:none;stroke-width:0.355112;stroke-linecap:round;stroke-linejoin:round;stroke-miterlimit:9.4;stroke-dasharray:none;stroke-opacity:1;paint-order:stroke fill markers"
           id="rect70408"
           width="1.5313684"
           height="0.41265106"
           x="14.689"
           y="10.968966" /><rect
           style="opacity:1;fill:#c58600;fill-opacity:1;stroke:none;stroke-width:0.167434;stroke-linecap:round;stroke-linejoin:round;stroke-miterlimit:9.4;stroke-dasharray:none;stroke-opacity:1;paint-order:stroke fill markers"
           id="rect70410"
           width="2.7929282"
           height="0.46272495"
           x="14.121227"
           y="13.229167"
           ry="0.23136248" /><rect
           style="opacity:0.532934;fill:#be5b00;fill-opacity:1;stroke:none;stroke-width:0.459999;stroke-linecap:round;stroke-linejoin:round;stroke-miterlimit:9.4;stroke-dasharray:none;stroke-opacity:1;paint-order:stroke fill markers"
           id="rect70412"
           width="5.5557165"
           height="1.3729644"
           x="12.995269"
           y="13.665786"
           clip-path="url(#clipPath65164)"
           transform="matrix(1,0,0,0.48836936,0,6.7684471)" /><rect
           style="opacity:0.170659;fill:#ffae63;fill-opacity:1;stroke:none;stroke-width:0.283562;stroke-linecap:round;stroke-linejoin:round;stroke-miterlimit:9.4;stroke-dasharray:none;stroke-opacity:1;paint-order:stroke fill markers"
           id="rect70414"
           width="0.56579435"
           height="5.8961735"
           x="14.442646"
           y="9.3504972"
           clip-path="url(#clipPath65224)"
           transform="matrix(0.79935109,0,0,1,3.0506012,0)" /><rect
           style="opacity:0.565868;fill:#d2f7f0;fill-opacity:1;stroke:none;stroke-width:0.459999;stroke-linecap:round;stroke-linejoin:round;stroke-miterlimit:9.4;stroke-dasharray:none;stroke-opacity:1;paint-order:stroke fill markers"
           id="rect70416"
           width="1.8350466"
           height="8.711237"
           x="13.69861"
           y="2.0434818"
           clip-path="url(#clipPath70297)"
           transform="translate(-0.66253547,0.21424651)" /><path
           id="path70418"
           style="opacity:1;fill:#696c73;stroke-width:0.459999;stroke-linecap:round;stroke-linejoin:round;stroke-miterlimit:9.4;paint-order:stroke fill markers"
           d="m 16.858727,4.0231047 -0.383153,-0.078711 -0.384396,7.0071033 0.384396,0.01747 z"
           sodipodi:nodetypes="ccccc" /><rect
           style="opacity:1;fill:#c58600;fill-opacity:1;stroke:none;stroke-width:0.182984;stroke-linecap:round;stroke-linejoin:round;stroke-miterlimit:9.4;stroke-dasharray:none;stroke-opacity:1;paint-order:stroke fill markers"
           id="rect70420"
           width="3.6700928"
           height="0.42057151"
           x="13.69861"
           y="10.75472"
           ry="0.21028575" /><rect
           style="opacity:0.532934;fill:#be5b00;fill-opacity:1;stroke:none;stroke-width:0.459999;stroke-linecap:round;stroke-linejoin:round;stroke-miterlimit:9.4;stroke-dasharray:none;stroke-opacity:1;paint-order:stroke fill markers"
           id="rect70422"
           width="5.5557165"
           height="1.3729644"
           x="13.027198"
           y="10.632492"
           clip-path="url(#clipPath65158)"
           transform="matrix(1,0,0,0.44387974,0,6.2148058)" /><path
           id="path70424"
           style="opacity:1;fill:#6f7279;fill-opacity:1;stroke-width:0.459999;stroke-linecap:round;stroke-linejoin:round;stroke-miterlimit:9.4;paint-order:stroke fill markers"
           d="M 15.533657,2.272734 V 2.0434818 l 1.330208,1.9904648 -0.388291,-0.089553 z"
           sodipodi:nodetypes="ccccc" /><path
           id="path70426"
           style="opacity:1;fill:#d2f7f0;stroke-width:0.459999;stroke-linecap:round;stroke-linejoin:round;stroke-miterlimit:9.4;paint-order:stroke fill markers"
           d="m 15.533657,2.0434818 0.470958,1.065082 -1.47024,0.9253828 -0.325789,-0.010842 z"
           sodipodi:nodetypes="ccccc" /></g></g></g></svg>
