<?xml version="1.0" encoding="UTF-8" standalone="no"?><!DOCTYPE svg PUBLIC "-//W3C//DTD SVG 1.1//EN" "http://www.w3.org/Graphics/SVG/1.1/DTD/svg11.dtd"><svg width="100%" height="100%" viewBox="0 0 300 300" version="1.1" xmlns="http://www.w3.org/2000/svg" xmlns:xlink="http://www.w3.org/1999/xlink" xml:space="preserve" xmlns:serif="http://www.serif.com/" style="fill-rule:evenodd;clip-rule:evenodd;stroke-linejoin:round;stroke-miterlimit:2;"><g id="skull"><g><path d="M292.157,77.128c-1.835,-0.177 -3.668,-1.162 -4.93,-2.49c-1.201,-1.264 -1.892,-2.785 -2.855,-4.211c-1.214,-1.797 -2.607,-3.419 -4.248,-4.844c-2.56,-2.223 -5.677,-3.384 -9.007,-3.787c-1.724,-0.209 -3.464,0.033 -5.178,-0.31c-1.459,-0.292 -2.551,-1.02 -3.5,-2.159c-0.284,-0.341 -0.502,-0.732 -0.694,-1.13c-0.064,-0.132 -0.127,-0.265 -0.193,-0.396c-0.036,-0.072 -0.051,-0.27 -0.112,-0.216c-0.211,0.189 -0.134,0.727 -0.099,0.976c0.115,0.83 0.418,1.624 0.787,2.373c0.955,1.937 2.462,3.803 4.679,4.312c1.31,0.301 2.797,-0.001 4.06,0.478c0.975,0.369 1.847,1.335 2.235,2.287c0.129,0.317 0.218,0.663 0.382,0.964c0.054,0.099 0.115,0.195 0.181,0.286c0.032,0.046 0.153,0.157 0.102,0.133c-0.754,-0.345 -1.17,-1.055 -2.062,-1.173c-0.752,-0.099 -1.451,0.421 -2.222,0.222c-0.318,-0.082 -0.631,-0.254 -0.895,-0.448c-0.093,-0.068 -0.183,-0.14 -0.272,-0.213c-0.035,-0.03 -0.089,-0.135 -0.105,-0.091c-0.081,0.232 0.404,0.882 0.537,1.072c0.833,1.197 1.992,1.589 3.276,2.027c7.27,2.482 8.07,4.368 9.136,7.5c0.456,1.342 1.09,3.818 3.126,5.367c1.284,0.976 5.26,1.911 5.238,1.81c-0.081,-0.367 -1.373,-2.675 -1.35,-3.997c0.023,-1.365 2.061,-3.387 3.983,-4.342" style="fill:#9e001a;"/><path d="M279.785,109.974l12.771,-35.106c0.358,-1.076 1.522,-1.66 2.599,-1.302c1.077,0.357 1.66,1.522 1.303,2.598l-12.578,34.572c-0.955,0.103 -1.961,0.181 -2.867,-0.085c-0.414,-0.122 -0.93,-0.326 -1.228,-0.677Z" style="fill:#8e6532;"/><path d="M296.458,76.164c-0.358,1.077 -1.522,1.66 -2.599,1.303c-1.077,-0.358 -1.66,-1.522 -1.303,-2.599c0.358,-1.076 1.522,-1.66 2.599,-1.302c1.077,0.357 1.66,1.522 1.303,2.598Z" style="fill:#af824b;"/></g><path d="M147.337,249.937c-21.751,0 -44.205,-15.187 -55.898,-19.678c-13.047,-5.011 -29.497,-6.95 -36.17,-8.634c-32.675,-8.243 -55.269,-25.851 -55.269,-46.22c0,-28.259 43.483,-51.201 97.042,-51.201c12.137,-0 23.757,1.178 34.471,3.329c8.573,1.709 17.446,1.098 25.704,-1.769c12.139,-4.293 38.92,-11.141 54.583,-11.141c42.408,0 76.838,18.166 76.838,40.542c-0,1.325 -0.121,2.636 -0.357,3.929c-1.673,9.047 -9.998,22.59 -2.339,27.688c8.781,5.986 14.058,13.439 14.058,21.536c-0,19.122 -29.423,34.646 -65.663,34.646c-9.091,-0 -17.752,-0.977 -25.628,-2.742c-9.404,-2.149 -19.258,-1.078 -27.981,3.04c-8.892,4.145 -20.586,6.675 -33.391,6.675Z" style="fill:#f9e594;"/><path d="M147.337,249.937c-21.751,0 -44.205,-15.187 -55.898,-19.678c-13.047,-5.011 -29.497,-6.95 -36.17,-8.634c-32.675,-8.243 -55.269,-25.851 -55.269,-46.22c0,-28.259 43.483,-51.201 97.042,-51.201c12.137,-0 23.757,1.178 34.471,3.329c8.573,1.709 17.446,1.098 25.704,-1.769c12.139,-4.293 38.92,-11.141 54.583,-11.141c42.408,0 76.838,18.166 76.838,40.542c-0,1.325 -0.121,2.636 -0.357,3.929c-1.673,9.047 -9.998,22.59 -2.339,27.688c8.781,5.986 14.058,13.439 14.058,21.536c-0,19.122 -29.423,34.646 -65.663,34.646c-9.091,-0 -17.752,-0.977 -25.628,-2.742c-9.404,-2.149 -19.258,-1.078 -27.981,3.04c-8.892,4.145 -20.586,6.675 -33.391,6.675Zm-1.191,-2.401c11.82,0.846 21.968,-10.503 30.198,-14.338c9.898,-4.668 22.98,-1.12 33.65,1.313c7.481,1.676 46.006,13.164 69.506,-11.798c6.581,-6.989 14.646,-8.436 14.646,-14.395c0,-6.379 -4.57,-11.97 -11.462,-16.673c-11.873,-8.101 2.957,-23.369 2.6,-36.718c-0.194,-7.258 -7.335,-13.505 -14.899,-18.948c-13.205,-9.502 -34.563,-15.502 -58.585,-15.502c-15.106,-0 -40.923,6.665 -52.632,10.805c-0.01,0.004 -0.021,0.008 -0.031,0.011c-9.242,3.21 -19.174,3.894 -28.769,1.981l-0.008,-0.002c-10.355,-2.079 -21.587,-3.215 -33.318,-3.215c-30.714,0 -59.673,3.434 -76.556,15.583c-10.015,7.207 -17.966,19.437 -17.966,29.05c0,6.734 10.643,11.724 15.956,17.378c9.023,9.601 16.668,21.04 35.01,25.667c6.799,1.715 30.808,4.216 44.099,9.321c5.913,2.271 25.279,18.814 48.561,20.48Z" style="fill:#dfc86d;"/><g><path d="M275.184,156.761c0.623,1.035 0.25,1.892 -1.199,2.215l-33.407,7.465l11.274,7.104c0.11,0.069 0.217,0.138 0.322,0.208l1.705,-0.707l1.542,3.753c0.219,0.365 0.363,0.717 0.431,1.05c0.248,1.22 -0.533,2.181 -2.409,2.6l-13.517,3.02l26.062,16.423l2.651,-0.7l1.804,4.052c0.169,0.257 0.279,0.504 0.328,0.735c0.156,0.744 -0.317,1.331 -1.46,1.586l-61.231,13.682c-2.314,0.517 -6.504,-0.52 -9.351,-2.314l-28.421,-17.908l-24.666,5.511c-3.816,0.853 -10.725,-0.856 -15.419,-3.814l-9.407,-5.928l-39.44,8.812c-2.315,0.518 -6.505,-0.519 -9.351,-2.313l-56.849,-35.822c-1.89,-1.191 -2.716,-2.418 -2.38,-3.26c0.029,-0.072 0.067,-0.142 0.113,-0.208l2.186,-4.049l2.834,2.5l73.107,-16.335c2.314,-0.517 6.504,0.519 9.351,2.313l1.172,0.738l73.137,-16.341c3.816,-0.853 10.725,0.856 15.419,3.814l2.706,1.705l33.408,-7.464c2.314,-0.517 6.504,0.519 9.351,2.313l35.468,22.349l2.092,-0.487l2.044,3.702Z" style="fill:#003924;"/><path d="M102.472,143.245l71.811,-16.045c3.746,-0.837 10.53,0.841 15.138,3.745l2.658,1.674l32.802,-7.329c2.272,-0.508 6.386,0.51 9.181,2.271l36.762,23.165c2.795,1.761 3.219,3.603 0.947,4.111l-32.802,7.329l11.07,6.975c4.609,2.905 5.308,5.942 1.562,6.779l-13.272,2.965l27.905,17.584c2.795,1.762 3.22,3.604 0.948,4.111l-60.121,13.434c-2.272,0.507 -6.386,-0.51 -9.181,-2.271l-27.906,-17.584l-24.343,5.439c-3.746,0.837 -10.53,-0.841 -15.138,-3.745l-8.885,-5.599l-38.884,8.688c-2.272,0.508 -6.386,-0.51 -9.181,-2.271l-56.17,-35.394c-2.795,-1.761 -3.219,-3.603 -0.947,-4.111l75.714,-16.917c2.272,-0.508 6.386,0.51 9.181,2.271l1.151,0.725Z" style="fill:#055b3b;"/></g><g><g><path d="M54.779,85.44l148.458,12.278l27.516,38.625c0.229,0.251 0.402,0.495 0.518,0.728c0.445,0.889 0.063,1.613 -1.207,1.897l-5.422,1.211l6.411,9.461c0.141,0.164 0.249,0.324 0.324,0.477c0.314,0.647 0.03,1.173 -0.898,1.38l-107.718,24.069c-1.587,0.354 -4.459,-0.356 -6.41,-1.586l-3.814,-2.403l-17.852,3.989c-1.586,0.354 -4.458,-0.356 -6.409,-1.586l-1.851,-1.166l-12.317,2.752c-1.586,0.354 -4.458,-0.356 -6.409,-1.586l-25.665,-16.172c-1.14,-0.718 -1.715,-1.456 -1.68,-2.016l-0.002,0l-3.487,-42.29l6.483,1.244l-1.752,-17.028l12.589,0.326l0.594,-12.604Z" style="fill:#2c2c2c;"/><path d="M44.426,159.316l-2.392,-1.508c-1.14,-0.718 -1.715,-1.456 -1.68,-2.016l-0.002,0l-3.487,-42.29l6.483,1.244l-1.752,-17.028l12.589,0.326l0.594,-12.604l148.458,12.278l27.516,38.625c0.229,0.251 0.402,0.495 0.518,0.728c0.445,0.889 0.063,1.613 -1.207,1.897l-5.422,1.211l6.411,9.461c0.141,0.164 0.249,0.324 0.324,0.477c0.314,0.647 0.03,1.173 -0.898,1.38l-107.718,24.069l-14.15,-44.891l-8.901,-3.473l12.827,44.375l-17.852,3.989l-10.517,-44.891l-7.192,-2.396l9.449,44.535l-12.317,2.752l-7.855,-44.891l-10.125,-10.167l-15.504,-5.047l3.802,43.855Z" style="fill:#3b3b3b;"/><path d="M57.416,108.322l-13.954,-8.793c-2.307,-1.454 -2.658,-2.975 -0.782,-3.394l19.937,-4.454l-5.45,-3.434c-2.771,-1.746 -3.192,-3.573 -0.939,-4.076l59.617,-13.321c2.253,-0.503 6.332,0.506 9.104,2.252l11.584,7.3l26.784,-5.985c1.876,-0.419 5.273,0.421 7.58,1.875l30.352,19.126c2.308,1.454 2.658,2.975 0.782,3.394l-10.01,2.236l9.797,6.173c1.699,1.071 1.956,2.19 0.575,2.499l-93.782,20.955c-1.381,0.308 -3.882,-0.31 -5.58,-1.381l-3.321,-2.092l-15.542,3.473c-1.381,0.308 -3.882,-0.31 -5.58,-1.381l-1.612,-1.015l-10.723,2.396c-1.381,0.308 -3.881,-0.31 -5.58,-1.381l-22.345,-14.08c-1.698,-1.07 -1.956,-2.19 -0.575,-2.499l19.663,-4.393Z" style="fill:#404040;"/></g><g><path d="M102.711,92.708c0.111,0.257 -0.032,0.463 -0.447,0.547l-19.881,4.026c-0.751,0.152 -2.112,-0.153 -3.036,-0.681l-12.156,-6.942c-0.54,-0.308 -0.812,-0.624 -0.796,-0.864c0.009,-0.131 0.102,-0.239 0.285,-0.311l23.691,-51.507l18.559,2.041l-6.219,53.691Z" style="fill:#2c2c2c;"/><path d="M79.347,96.6l-12.156,-6.942c-0.54,-0.308 -0.812,-0.624 -0.796,-0.864c0.009,-0.131 0.102,-0.239 0.285,-0.311l23.691,-51.507l9.594,1.055l-2.981,2.921l-17.637,55.648Z" style="fill:#3b3b3b;"/><path d="M102.319,35.07c-0.472,-0.269 -1.167,-0.425 -1.55,-0.347l-10.152,2.055c-0.383,0.078 -0.312,0.36 0.16,0.629l6.207,3.545c0.472,0.27 1.167,0.425 1.551,0.348l10.151,-2.056c0.383,-0.078 0.312,-0.36 -0.16,-0.629l-6.207,-3.545Z" style="fill:#404040;"/></g><g><path d="M159.505,105.808c0.275,0.698 -0.077,1.259 -1.099,1.487l-48.936,10.934c-1.849,0.413 -5.198,-0.415 -7.473,-1.848l-29.922,-18.855c-1.328,-0.837 -1.998,-1.696 -1.959,-2.348c0.021,-0.355 0.252,-0.648 0.701,-0.844l61.56,-74.122l45.682,5.542l-18.554,80.054Z" style="fill:#2c2c2c;"/><path d="M109.47,118.229c-1.849,0.413 -5.198,-0.415 -7.473,-1.848l-29.922,-18.855c-1.328,-0.837 -1.998,-1.696 -1.959,-2.348c0.021,-0.355 0.252,-0.648 0.701,-0.844l61.56,-74.122l37.187,4.512l-17.093,7.23l-43.001,86.275Z" style="fill:#3b3b3b;"/><path d="M161.786,15.036c-1.162,-0.732 -2.872,-1.155 -3.816,-0.944l-24.986,5.583c-0.944,0.211 -0.768,0.976 0.394,1.708l15.278,9.628c1.161,0.731 2.871,1.154 3.815,0.943l24.987,-5.583c0.944,-0.211 0.768,-0.976 -0.394,-1.708l-15.278,-9.627Z" style="fill:#404040;"/></g><g><path d="M102.376,116.434c0.142,0.286 -0.04,0.516 -0.569,0.61l-25.318,4.484c-0.957,0.169 -2.689,-0.171 -3.866,-0.758l-15.481,-7.733c-0.687,-0.343 -1.034,-0.695 -1.013,-0.963c0.011,-0.145 0.13,-0.266 0.362,-0.346l52.677,-82.481l23.634,2.272l-30.426,84.915Z" style="fill:#2c2c2c;"/><path d="M76.489,121.528c-0.957,0.169 -2.689,-0.171 -3.866,-0.758l-15.481,-7.733c-0.687,-0.343 -1.034,-0.695 -1.013,-0.963c0.011,-0.145 0.13,-0.266 0.362,-0.346l52.677,-82.481l17.406,1.674l-7.01,3.141l-43.075,87.466Z" style="fill:#3b3b3b;"/><path d="M124.383,27.124c-0.601,-0.3 -1.485,-0.474 -1.974,-0.387l-12.927,2.289c-0.489,0.087 -0.397,0.401 0.204,0.701l7.904,3.948c0.601,0.3 1.486,0.474 1.974,0.387l12.927,-2.289c0.489,-0.087 0.398,-0.401 -0.203,-0.701l-7.905,-3.948Z" style="fill:#404040;"/></g><g><path d="M159.958,116.818c0.088,0.223 -0.025,0.401 -0.351,0.474l-15.617,3.49c-0.59,0.132 -1.658,-0.133 -2.385,-0.59l-9.549,-6.017c-0.423,-0.267 -0.637,-0.541 -0.625,-0.75c0.007,-0.113 0.081,-0.206 0.224,-0.269l41.52,-75.438l14.578,1.769l-27.795,77.331Z" style="fill:#2c2c2c;"/><path d="M143.99,120.782c-0.59,0.132 -1.658,-0.133 -2.385,-0.59l-9.549,-6.017c-0.423,-0.267 -0.637,-0.541 -0.625,-0.75c0.007,-0.113 0.081,-0.206 0.224,-0.269l41.52,-75.438l9.85,1.195l-3.438,2.552l-35.597,79.317Z" style="fill:#3b3b3b;"/><path d="M182.56,36.066c-0.371,-0.234 -0.916,-0.369 -1.218,-0.301l-7.974,1.781c-0.301,0.068 -0.245,0.312 0.126,0.546l4.876,3.072c0.37,0.234 0.916,0.369 1.217,0.301l7.974,-1.781c0.302,-0.068 0.245,-0.312 -0.125,-0.546l-4.876,-3.072Z" style="fill:#404040;"/></g></g><g><g><path d="M127.496,136.279l80.87,-14.017l26.89,15.746l0,35.772l-80.87,16.474l-26.89,-15.746l0,-38.229Z" style="fill:#4a4a4a;"/><path d="M154.386,190.254l-26.89,-15.746l0,-38.229l26.89,15.747l0,38.228Z" style="fill:#2c2c2c;"/><path d="M154.386,152.026l80.87,-14.018l0,35.772l-80.87,16.474l0,-38.228Z" style="fill:#686868;"/></g><g><path d="M165.881,149.585l49.197,-8.163l34.791,20.373l0,35.772l-49.197,10.619l-34.791,-20.373l-0,-38.228Z" style="fill:#4a4a4a;"/><path d="M200.672,208.186l-34.791,-20.373l-0,-38.228l34.791,20.373l0,38.228Z" style="fill:#333;"/><path d="M200.672,169.958l49.197,-8.163l0,35.772l-49.197,10.619l0,-38.228Z" style="fill:#686868;"/></g><g><path d="M92.846,89.68l-0,-9.869l115.52,-30.44l51.834,30.353l-0,72.891l-115.521,20.024l-51.833,-30.44l-0,-12.868l3.134,-4.107l-0.855,-4.224l-2.279,-2.263l-0,-22.386l5.321,0.801l1.849,5.181l6.47,-4.731l-4.023,0.009l-1.84,-4.984l-7.777,-2.947Z" style="fill:#4a4a4a;"/><path d="M112.517,91.33l32.162,18.834l17.297,-4.558l1.239,63.82l-18.536,3.213l-32.162,-18.834l0,-62.475Z" style="fill:#333;"/><path d="M92.846,89.68l-0,-9.869l51.833,30.353l0,62.475l-51.833,-30.44l-0,-12.868l3.134,-4.107l-0.855,-4.224l-2.279,-2.263l-0,-22.386l5.321,0.801l1.849,5.181l6.47,-4.731l-4.023,0.009l-1.84,-4.984l-7.777,-2.947Z" style="fill:#333;"/><path d="M144.679,110.164l115.521,-30.44l-0,6.371l-2.535,3.448l-5.011,1.787l7.546,1.384l-2.902,2.619l2.902,1.404l-0,41.615l-6.501,4.001l-5.408,0.063l5.271,2.849l6.638,0.218l-0,7.132l-115.521,20.024l0,-12.868l3.135,-4.108l-0.856,-4.223l-2.279,-2.263l0,-22.386l5.321,0.801l1.849,5.181l6.47,-4.731l-4.023,0.009l-1.839,-4.984l-7.778,-2.947l0,-9.956Z" style="fill:#686868;"/><path d="M100.623,92.627l51.834,30.44l1.839,4.984l-51.833,-30.44l-1.84,-4.984Z" style="fill:#181818;"/><path d="M92.846,89.68l51.833,30.44l0,-6.56l-51.833,-29.123l-0,5.243Z" style="fill:#333;"/><path d="M144.679,113.56l0,6.56l7.778,2.947l-7.778,-9.507" style="fill:#686868;"/><path d="M98.167,97.152l51.833,30.44l-5.321,-0.801l-51.833,-30.44l5.321,0.801Z" style="fill:#626262;"/><path d="M92.846,96.351l51.833,30.44l0,9.333l-51.833,-28.372l-0,-11.401Z" style="fill:#333;"/></g><g><path d="M118.932,51.834l89.434,-9.714l26.89,15.746l0,24.517l-89.434,23.425l-26.89,-15.746l-0,-38.228Z" style="fill:#4a4a4a;"/><path d="M145.822,105.808l-26.89,-15.746l-0,-38.228l26.89,15.746l-0,38.228Z" style="fill:#333;"/><path d="M145.822,67.58l89.434,-9.714l0,24.517l-89.434,23.425l-0,-38.228Z" style="fill:#686868;"/></g><g><path d="M241.784,199.313l0.404,-8.503l2.302,1.633l2.72,1.36l1.074,4.107l-6.5,1.403Zm-35.728,7.711l1.819,-8.314l0,-11.417l5.6,9.994l-0.048,8.146l-7.371,1.591Zm11.674,-2.52l0.181,-7.384l0.095,-12.129l3.114,-6.621l2.957,-0.886l3.586,7.507l7.593,7.693l2.75,7.444l-20.276,4.376Zm-15.29,-48.285l-0,-5.395l8.162,-17.983l3.597,0.981l4.577,-0.818l8.501,18.637l-7.847,-0.163l-9.972,2.125l-7.018,2.616Zm26.472,-13.242l-6.539,-16.796l3.27,-28.979l22.397,-3.107l4.577,27.465l-5.558,16.022l-18.147,5.395Zm-42.178,4.741l-20.853,-1.799l-3.015,-31.225l27.673,-10.626l8.293,6.937l-0.818,30.664l-11.28,6.049Z" style="fill:#0e0d13;"/><path d="M225.661,134.626l-3.288,-8.445l3.27,-28.979l10.634,-1.475l3.394,20.365l-5.558,16.021l-8.452,2.513Zm-60.204,6.905l-2.591,-26.837l23.011,-8.836l-0.809,30.342l-11.28,6.049l-8.331,-0.718Z" style="fill:#fbffad;"/><path d="M213.459,199.928l-0.032,5.505l-7.371,1.591l1.819,-8.314l0,-11.417l1.141,2.036l-0.033,4.22l-0.181,7.384l4.657,-1.005Zm5.92,-17.856l1.741,-3.702l2.957,-0.886l3.586,7.507l5.441,5.513l-0.248,5.237l3.269,-0.705l1.881,5.092l-20.276,4.376l0.136,-5.527l11.211,-2.42l-2.749,-7.445l-6.949,-7.04Zm-32.033,-76.778l3.193,-1.226l8.293,6.937l-0.695,26.057l-2.724,6.002l-8.679,4.654l-20.853,-1.799l-0.273,-2.825l12.198,1.052l11.28,-6.049l0.817,-30.664l-2.557,-2.139Zm24.17,27.796l2.683,0.732l3.376,-0.603l2.409,6.186l1.508,-0.448l5.785,12.684l-7.847,-0.163l-9.972,2.125l-7.018,2.616l-0,-5.395l0.602,-1.328l7.46,-1.59l7.847,0.164l-6.833,-14.98Zm28.379,-37.865l8.145,-1.13l4.577,27.465l-5.558,16.022l-18.147,5.395l-2.172,-5.58l11.39,-3.387l5.559,-16.021l-3.794,-22.764Zm1.889,104.088l0.404,-8.503l2.302,1.633l2.72,1.36l1.074,4.107l-6.5,1.403Z" style="fill:#333;"/><path d="M242.146,191.69l0.042,-0.88l2.302,1.633l2.72,1.36l1.074,4.107l-6.5,1.403l0.133,-2.806l1.903,-0.411l-1.074,-4.106l-0.6,-0.3Zm-34.271,1.757l0,-6.154l5.527,9.863l-0.136,5.535l0.177,-0.039l-0.016,2.781l-7.371,1.591l0.638,-2.915l2.269,-0.489l0.048,-8.146l-1.136,-2.027Zm13.137,-14.848l0.108,-0.229l2.957,-0.886l3.586,7.507l7.593,7.693l2.75,7.444l-20.276,4.376l0.069,-2.792l15.742,-3.397l-2.749,-7.445l-7.593,-7.693l-2.187,-4.578Zm-5.599,-44.994l3.363,-0.601l8.501,18.637l-7.847,-0.163l-9.972,2.125l-7.018,2.616l-0,-3.478l2.554,-0.952l9.972,-2.125l7.847,0.164l-7.4,-16.223Zm28.559,-38.945l4.068,-0.565l4.577,27.465l-5.558,16.022l-18.147,5.395l-1.096,-2.815l14.779,-4.394l5.558,-16.021l-4.181,-25.087Zm-55.007,10.012l1.574,-0.604l8.293,6.937l-0.818,30.664l-11.28,6.049l-20.853,-1.799l-0.139,-1.44l16.528,1.425l11.28,-6.049l0.817,-30.664l-5.402,-4.519Z" style="fill:#4a4a4a;"/><path d="M165.457,141.531l-2.591,-26.837l23.011,-8.836l31.975,-6.452l-3.957,76.498l-48.438,-34.373Z" style="fill:url(#_Linear1);"/><path d="M225.661,134.626l-3.288,-8.445l3.27,-28.979l10.634,-1.475l51,-4.397l-17.068,72.708l-44.548,-29.412Z" style="fill:url(#_Linear2);"/></g></g><g><path d="M119.82,186.928c-3.93,-1.153 -5.501,-3.953 -4.719,-7.903c0.161,-0.817 0.365,-1.845 0.899,-2.515c1.563,-1.963 4.767,-2.95 7.211,-2.849c2.932,0.121 4.642,3.155 6.57,4.943c0.956,0.886 2.25,1.712 2.768,2.958c0.461,1.112 0.217,2.443 -0.494,3.407c-1.921,2.61 -9.362,1.729 -12.235,1.959Z" style="fill:#a5a39d;"/><path d="M132.692,181.999c0.248,1.01 -0.018,2.13 -0.637,2.97c-1.921,2.61 -9.362,1.729 -12.235,1.959c-3.568,-1.047 -5.192,-3.452 -4.875,-6.842c0.264,2.56 1.889,4.387 4.875,5.264c2.873,-0.231 10.314,0.65 12.235,-1.959c0.304,-0.412 0.522,-0.891 0.637,-1.392Z" style="fill:#8f8f8f;"/><path d="M130.098,183.008c-1.464,1.987 -13.508,-1.519 -12.912,-4.527c0.123,-0.622 0.278,-1.405 0.684,-1.916c1.191,-1.495 3.631,-2.246 5.492,-2.169c2.233,0.092 3.536,2.403 5.004,3.764c0.728,0.675 1.713,1.304 2.107,2.253c0.352,0.846 0.165,1.86 -0.375,2.595Z" style="fill:#aeaeae;"/></g><g><g><path d="M83.457,191.154c-3.105,-2.068 -6.379,-3.971 -9.357,-6.219c-1.67,-1.261 -3.619,-2.715 -4.404,-4.734c-1.295,-3.325 -0.07,-7.76 3.042,-9.309c1.85,-0.921 4.269,-0.958 5.958,-2.145c2.275,-1.6 2.946,-4.876 5.378,-6.379c1.865,-1.151 4.193,-1.502 6.337,-1.93c3.016,-0.602 6.53,-1.404 9.688,-0.938c1.598,0.236 3.129,1.098 4.58,1.801c2.235,1.082 4.499,2.101 6.678,3.304c0.57,0.314 1.097,0.703 1.568,1.154c2.341,2.244 1.241,5.329 1.948,8.02c0.727,2.768 2.655,5.132 3.494,7.873c0.535,1.746 0.458,3.523 0.201,5.267c-0.207,1.404 -0.471,2.745 -1.514,3.733c-0.86,0.815 -2.12,1.265 -3.224,1.683c-2.918,1.106 -6.616,2.024 -9.862,1.756c-2.238,-0.185 -4.58,-0.992 -6.804,-0.978c-2.998,0.019 -9.355,0.941 -13.707,-1.959Z" style="fill:#a5a39d;"/><path d="M100.149,190.863c1.28,0.24 2.566,0.539 3.819,0.642c3.246,0.268 6.944,-0.649 9.862,-1.755c1.104,-0.419 2.364,-0.868 3.224,-1.683c1.043,-0.988 1.307,-2.33 1.514,-3.734c0.052,-0.355 0.097,-0.711 0.131,-1.068c0.139,1.219 0.047,2.444 -0.131,3.654c-0.207,1.404 -0.471,2.745 -1.514,3.733c-0.86,0.815 -2.12,1.265 -3.224,1.683c-2.918,1.106 -6.616,2.024 -9.862,1.756c-2.238,-0.185 -4.58,-0.992 -6.804,-0.978c-2.998,0.019 -9.355,0.941 -13.707,-1.959c-3.105,-2.068 -6.379,-3.971 -9.357,-6.219c-1.67,-1.261 -3.619,-2.715 -4.404,-4.734c-0.499,-1.282 -0.624,-2.729 -0.41,-4.112c0.083,0.524 0.219,1.038 0.41,1.527c0.785,2.019 2.734,3.473 4.404,4.733c2.978,2.249 6.252,4.151 9.357,6.22c4.083,2.72 9.932,2.077 13.115,1.971c1.187,-1.343 1.55,-3.116 1.282,-5.218c0.27,2.045 0.775,3.996 2.295,5.541Zm-17.708,-22.341c-0.444,-0.339 -0.542,-0.792 -0.41,-1.022c0.284,-0.497 0.514,-1.078 0.974,-1.442c0.148,-0.117 0.467,-0.351 0.673,-0.287c0.386,0.122 0.751,0.562 1.057,0.813c0.518,0.423 1.13,0.786 1.709,1.115c2.259,1.28 4.722,2.287 6.732,3.981c1.123,0.945 1.697,2.364 2.554,3.514c0.773,1.038 1.633,2.037 1.991,3.306c0.087,0.307 0.114,0.635 0.121,0.953c0.001,0.056 0.014,0.277 -0.033,0.314c-0.057,0.045 -0.059,-0.133 -0.092,-0.198c-0.078,-0.151 -0.157,-0.303 -0.227,-0.458c-0.199,-0.44 -0.461,-0.878 -0.725,-1.283c-0.28,-0.431 -0.595,-0.866 -1.031,-1.152c-0.278,-0.183 -0.602,-0.223 -0.907,-0.341c-0.334,-0.128 -0.634,-0.332 -0.945,-0.506c-2.306,-1.297 -4.374,-2.973 -6.582,-4.426c-1.645,-1.081 -3.287,-1.682 -4.859,-2.881Z" style="fill:#8f8f8f;"/><path d="M73.826,171.665c0.722,-0.501 1.714,-1.111 2.569,-1.284c1.171,-0.236 2.346,-0.528 3.544,-0.329c2.171,0.362 3.718,1.993 5.399,3.267c0.816,0.619 1.721,1.04 2.642,1.479c0.443,0.211 0.886,0.42 1.327,0.637c1.76,0.866 4.454,1.747 4.149,4.263c-0.041,0.34 -0.124,0.67 -0.275,0.979c-0.745,1.524 -2.333,1.855 -3.745,1.077c-1.051,-0.579 -1.988,-1.317 -2.996,-1.96c-2.059,-1.315 -4.096,-2.665 -6.273,-3.782c-1.017,-0.522 -2.069,-0.973 -3.154,-1.337c-0.858,-0.289 -1.821,-0.389 -2.583,-0.914c-0.622,-0.428 -1.554,-1.438 -0.604,-2.096Zm20.446,-3.04c-1.086,-0.813 -2.18,-1.61 -3.486,-2.031c-0.951,-0.306 -2.707,-0.578 -3.298,-1.513c-0.526,-0.833 -0.324,-2.23 0.604,-2.694c0.772,-0.387 1.722,-0.406 2.564,-0.551c1.135,-0.196 2.238,-0.544 3.346,-0.848c2.289,-0.627 5.031,-1.388 7.406,-0.775c2.557,0.659 4.438,2.599 6.71,3.788c1.614,0.844 3.16,1.604 4.245,3.101c0.479,0.66 0.876,1.431 0.849,2.272c-0.028,0.872 -0.421,2.022 -1.321,2.342c-0.622,0.222 -1.322,0.174 -1.967,0.286c-1.036,0.179 -2.061,0.416 -3.06,0.748c-2.13,0.708 -4.175,1.593 -6.394,1.992c-1.031,0.186 -2.28,0.319 -3.25,-0.184c-0.968,-0.501 -0.771,-1.628 -1.055,-2.527c-0.345,-1.089 -1.22,-2.903 -1.893,-3.406Zm8.745,16.99c-1.169,-0.45 -2.863,-1.829 -2.009,-3.273c0.638,-1.077 2.096,-1.732 3.1,-2.423c0.745,-0.514 1.41,-1.238 2.197,-1.682c1.864,-1.052 3.858,-0.893 5.916,-0.807c0.931,0.039 1.995,-0.209 2.827,0.323c0.464,0.296 0.714,0.796 1.007,1.24c0.376,0.57 0.76,1.143 1.047,1.764c0.126,0.273 0.21,0.583 0.279,0.876c0.077,0.331 0.16,0.666 0.06,1.002c-0.132,0.445 -0.585,0.698 -0.964,0.916c-1.085,0.627 -2.293,0.668 -3.45,1.064c-1.683,0.576 -3.115,1.766 -4.795,2.315c-1.307,0.427 -3.977,-0.839 -5.215,-1.315Z" style="fill:#aeaeae;"/><path d="M69.212,176.726c1.138,0.334 2.28,0.887 3.417,1.274c1.245,0.424 2.63,0.825 3.607,1.819c0.922,0.938 2.074,2.485 2.342,3.736c0.094,0.44 0.127,0.885 0.131,1.331c0.076,0 0.151,0.002 0.225,0.005c1.08,0.045 1.994,0.487 2.799,1.145c0.854,0.698 1.562,1.684 2.315,2.382c0.755,0.699 1.708,1.413 2.117,2.396c0.223,0.538 0.297,1.126 0.24,1.703c-1.037,-0.316 -2.037,-0.755 -2.948,-1.363c-3.105,-2.068 -6.379,-3.971 -9.357,-6.219c-1.67,-1.261 -3.619,-2.715 -4.404,-4.734c-0.423,-1.086 -0.577,-2.291 -0.484,-3.475Z" style="fill:#717171;fill-opacity:0.25;"/></g><g><path d="M65.313,189.709c-1.356,-1.428 -4.269,-3.573 -4.34,-5.759c-0.047,-1.445 1.487,-2.411 2.36,-3.269c0.795,-0.784 1.01,-1.974 2.089,-2.458c2.231,-1.003 4.483,0.428 6.725,1.192c1.034,0.352 2.212,0.626 3.023,1.451c0.748,0.762 1.729,1.987 1.947,3.002c0.24,1.123 -0.011,2.283 0.034,3.404c0.037,0.926 0.389,2.196 -0.22,2.942c-0.642,0.788 -1.89,0.963 -2.872,1.11c-2.315,0.345 -6.789,0.604 -8.746,-1.615Z" style="fill:#a5a39d;"/><path d="M77.227,189.574c-0.052,0.237 -0.144,0.455 -0.296,0.64c-0.642,0.788 -1.89,0.963 -2.872,1.11c-2.315,0.345 -6.789,0.604 -8.746,-1.615c-1.356,-1.428 -4.269,-3.573 -4.34,-5.759c-0.027,-0.824 0.461,-1.493 1.047,-2.074c-0.143,0.3 -0.225,0.623 -0.214,0.975c0.071,2.185 2.984,4.331 4.34,5.759c1.957,2.218 6.431,1.959 8.746,1.614c0.753,-0.112 1.662,-0.241 2.335,-0.65Z" style="fill:#8f8f8f;"/><path d="M67.088,185.679c-1.079,-1.065 -1.781,-6.116 -0.913,-6.478c1.794,-0.748 3.591,0.32 5.384,0.889c0.826,0.263 1.769,0.468 2.414,1.083c0.595,0.568 1.375,1.482 1.543,2.239c0.187,0.837 -1.229,2.529 -3.026,3.302c-3.077,1.323 -3.846,0.62 -5.402,-1.035Z" style="fill:#aeaeae;"/></g><g><path d="M76.725,194.785c-2.488,-0.731 -3.483,-2.503 -2.988,-5.004c0.103,-0.517 0.232,-1.168 0.57,-1.593c0.989,-1.243 3.018,-1.868 4.566,-1.803c1.855,0.076 2.939,1.997 4.159,3.129c0.605,0.561 1.425,1.084 1.752,1.873c0.292,0.704 0.138,1.547 -0.312,2.157c-1.216,1.653 -5.928,1.095 -7.747,1.241Z" style="fill:#a5a39d;"/><path d="M84.875,191.664c0.157,0.639 -0.011,1.348 -0.403,1.88c-1.216,1.653 -5.928,1.095 -7.747,1.241c-2.259,-0.664 -3.287,-2.186 -3.086,-4.332c0.167,1.62 1.196,2.777 3.086,3.332c1.819,-0.146 6.531,0.412 7.747,-1.24c0.192,-0.261 0.33,-0.564 0.403,-0.881Z" style="fill:#8f8f8f;"/><path d="M83.232,192.302c-0.926,1.259 -8.551,-0.961 -8.175,-2.865c0.078,-0.395 0.177,-0.89 0.434,-1.214c0.754,-0.946 2.299,-1.422 3.477,-1.373c1.413,0.058 2.238,1.521 3.168,2.383c0.461,0.427 1.085,0.826 1.334,1.426c0.223,0.536 0.105,1.178 -0.238,1.643Z" style="fill:#aeaeae;"/></g></g><g><path d="M13.346,250.466l83.147,-49.888c2.303,-1.472 5.369,-0.797 6.84,1.506c1.472,2.304 0.797,5.369 -1.506,6.841l-79.159,47.495c-2.916,-0.827 -5.65,-2.208 -7.899,-4.27c-0.518,-0.474 -0.991,-1.05 -1.423,-1.684Z" style="fill:#8e6532;"/><path d="M107.088,255.894c-4.57,0.852 -9.073,2.033 -13.817,1.909c-10.933,-0.285 -21.59,-3.599 -32.507,-3.89c-10.384,-0.277 -20.354,3.5 -30.699,3.494c-1.716,-0.001 -3.453,-0.148 -5.156,-0.464c-1.138,-2.689 -2.235,-5.393 -2.906,-8.244c-1.031,-4.384 0.432,-8.786 -0.467,-13.083c-0.613,-2.925 -4.374,-3.995 -6.777,-4.944c-0.428,-0.169 -3.111,-1.019 -3.036,-1.532c0.121,-0.832 0.755,-1.751 1.068,-2.515c0.901,-2.2 1.891,-4.411 2.517,-6.709c0.161,-0.592 1.042,-3.074 0.434,-3.725c-0.406,-0.436 -2.663,-0.318 -3.233,-0.375c-2.642,-0.263 -5.309,-0.286 -7.915,0.287c-1.189,0.261 -3.326,1.24 -4.513,1.018c-0.33,-0.062 0.442,-0.503 0.661,-0.756c0.514,-0.596 0.999,-1.212 1.506,-1.813c1.456,-1.725 2.976,-3.404 4.5,-5.07c2.684,-2.932 5.43,-6.037 8.612,-8.443c2.262,-1.711 5.302,-3.118 6.8,-5.637c0.172,-0.29 -0.668,-0.088 -1.002,-0.138c-0.778,-0.118 -1.538,-0.272 -2.29,-0.509c-1.84,-0.579 -3.592,-1.949 -4.535,-3.648c-0.236,-0.424 -0.77,-1.434 -0.45,-1.926c0.198,-0.305 2.704,-0.06 3.13,-0.073c3.204,-0.103 6.378,-0.327 9.488,-1.141c5.173,-1.354 10.955,-3.186 15.715,-5.613c4.684,-2.389 9.43,-6.014 14.664,-7.118c1.824,-0.385 3.74,-0.34 5.595,-0.399l44.613,81.057Z" style="fill:#5b4369;"/><path d="M24.909,256.943c-1.127,-2.663 -2.214,-5.341 -2.886,-8.162c5.968,-4.563 12.87,-8.129 19.946,-10.467c11.334,-3.746 23.655,-1.916 35.253,-4.584c4.993,-1.149 10.114,-2.802 14.936,-4.961l9.475,17.214c-4.265,2.13 -8.958,3.684 -13.495,4.728c-9.551,2.197 -19.552,1.626 -29.161,3.193c-9.745,0.154 -19.162,3.509 -28.912,3.503c-1.716,-0.001 -3.453,-0.148 -5.156,-0.464Zm-4.965,-67.977c-1.86,0.696 -3.706,1.46 -5.528,2.287c-0.028,-0.048 -0.056,-0.097 -0.083,-0.146c-0.236,-0.424 -0.77,-1.434 -0.45,-1.926c0.198,-0.305 2.704,-0.06 3.13,-0.073c0.98,-0.032 1.958,-0.074 2.931,-0.142Zm-11.447,26.681c6.038,-4.675 13.053,-8.323 20.25,-10.701c11.334,-3.745 23.655,-1.916 35.253,-4.584c3.567,-0.82 7.2,-1.899 10.743,-3.235l8.702,15.81c-3.342,1.391 -6.844,2.466 -10.258,3.251c-12.139,2.792 -25.003,1.115 -36.866,5.034c-7.12,2.353 -14.093,5.699 -20.45,9.874c-0.39,-0.148 -0.765,-0.287 -1.112,-0.424c-0.428,-0.169 -3.111,-1.019 -3.036,-1.532c0.121,-0.832 0.755,-1.751 1.068,-2.515c0.901,-2.2 1.891,-4.411 2.517,-6.709c0.161,-0.592 1.042,-3.074 0.434,-3.725c-0.406,-0.436 -2.663,-0.318 -3.233,-0.375c-1.335,-0.132 -2.676,-0.204 -4.012,-0.169Zm57.455,-34.492c-1.993,0.656 -4.005,1.209 -5.987,1.666c-8.251,1.897 -16.836,1.73 -25.214,2.659c2.605,-0.911 5.155,-1.948 7.465,-3.126c4.684,-2.389 9.43,-6.014 14.664,-7.118c1.824,-0.385 3.74,-0.34 5.595,-0.399l3.477,6.318Z" style="fill:#444;"/><path d="M82.991,256.82c-7.402,-1.091 -14.753,-2.707 -22.227,-2.907c-5.295,-0.141 -10.483,0.772 -15.667,1.7c0.15,-3.138 -0.171,-6.267 -0.573,-9.387c-0.677,-5.266 -2.436,-10.35 -3.293,-15.588c-0.962,-5.877 -0.99,-11.944 0.741,-17.7c3.082,-10.254 12.777,-18.456 13.234,-29.523c1.663,4.002 4.732,7.344 8.743,16.642c4.306,9.98 5.909,19.594 11.735,30.452c3.327,6.2 10.317,11.038 15.209,16.065c0.952,0.978 4.046,4.094 3.176,5.803c-0.188,0.369 -1.213,0.695 -1.562,0.871c-1.801,0.903 -3.686,1.54 -5.576,2.22c-1.318,0.474 -2.627,0.932 -3.94,1.352Z" style="fill-opacity:0.25;"/><path d="M105.23,256.255l-49.495,-82.491c-1.472,-2.304 -0.797,-5.369 1.506,-6.841c2.304,-1.472 5.369,-0.796 6.841,1.507l50.949,84.915c0.353,0.552 0.583,1.148 0.696,1.755c-0.737,-0.042 -1.479,-0.049 -2.228,-0.017c-2.809,0.12 -5.544,0.627 -8.269,1.172Z" style="fill:#684923;"/><path d="M101.827,208.925c-2.304,1.472 -5.369,0.797 -6.841,-1.507c-1.472,-2.303 -0.797,-5.368 1.507,-6.84c2.303,-1.472 5.369,-0.797 6.84,1.506c1.472,2.304 0.797,5.369 -1.506,6.841Z" style="fill:#af824b;"/></g><path d="M11.823,250.155c-0.3,-0.508 -0.722,-1.851 -0.617,-1.922c0.104,-0.07 0.936,0.491 1.22,0.765c1.034,1.003 1.879,2.122 3.041,3.027c2.606,2.06 5.105,3.487 7.66,4.272c1.21,0.372 2.427,0.551 3.652,0.673c3.546,0.356 7.116,-0.253 11.106,-1.099c2.357,-0.5 4.847,-1.059 7.513,-1.712c4.266,-0.968 9.32,-2.077 14.277,-2.691c3.493,-0.432 6.938,-0.597 10.036,-0.391c6.684,0.545 13.128,2.551 19.744,3.369c1.523,0.188 3.053,0.337 4.605,0.348c1.186,0.015 2.344,-0.082 3.486,-0.256c5.323,-0.809 10.334,-2.958 15.776,-3.153c2.618,-0.069 5.224,0.03 7.582,1.005c0.964,0.398 1.825,0.853 2.617,1.551c0.625,0.551 1.589,1.855 1.54,1.978c-0.049,0.122 -1.429,0.454 -2.164,0.499c-0.24,0.015 -0.457,-0.026 -0.696,-0.045c-0.928,-0.076 -1.788,-0.019 -2.706,-0.107c-1.948,-0.187 -3.871,-0.474 -5.871,-0.265c-5.262,0.501 -9.977,2.948 -15.094,4.011c-1.434,0.298 -2.897,0.483 -4.4,0.538c-2.681,0.08 -5.326,-0.122 -7.948,-0.512c-5.664,-0.843 -11.209,-2.525 -16.952,-2.993c-2.757,-0.261 -5.83,-0.154 -8.959,0.115c-4.799,0.412 -9.72,1.207 -13.874,1.944c-2.292,0.374 -4.45,0.758 -6.522,0.986c-3.661,0.404 -7,0.482 -10.168,0.083c-2.304,-0.291 -4.47,-0.875 -6.639,-1.737c-2.844,-1.13 -5.682,-2.736 -8.539,-5.295c-1.032,-0.92 -2.024,-1.83 -2.706,-2.986Zm181.842,-9.557c-1.714,0.049 -6.394,0.428 -6.471,0.225c-0.076,-0.204 3.846,-1.328 5.285,-1.559c2.121,-0.341 4.303,-0.264 6.458,-0.24c2.642,0.031 5.24,0.268 7.818,0.608c5.948,0.784 11.781,2.133 17.798,2.764c6.16,0.653 12.57,0.476 18.923,-0.266c6.37,-0.743 12.677,-2.064 18.608,-3.746c1.205,-0.324 2.409,-0.714 3.644,-1.019c2.835,-0.701 5.721,-1.24 8.499,-2.186c2.129,-0.725 8.421,-3.458 8.448,-3.422c0.027,0.036 -5.454,4.419 -7.515,5.544c-2.689,1.468 -5.452,2.808 -8.337,3.793c-1.234,0.421 -2.5,0.71 -3.737,1.039c-6.161,1.547 -12.697,2.725 -19.281,3.277c-6.594,0.553 -13.229,0.487 -19.574,-0.411c-6.018,-0.86 -11.824,-2.432 -17.767,-3.444c-2.494,-0.425 -5.009,-0.751 -7.577,-0.877c-1.738,-0.085 -3.486,-0.13 -5.222,-0.08Zm90.952,-55.921c0.093,0.237 0.624,1.514 0.588,1.548c-0.036,0.033 -1.147,-0.975 -1.394,-1.184c-1.001,-0.846 -1.313,-2.191 -1.691,-3.437c-0.368,-1.214 -0.62,-2.468 -0.687,-3.82c-0.041,-0.85 -0.033,-1.705 0.075,-2.571c0.442,-3.527 1.935,-6.984 2.739,-9.473c0.923,-2.582 2.093,-5.182 2.94,-7.841c0.535,-1.68 0.962,-3.376 1.019,-5.137c0.045,-1.154 -0.204,-2.386 -0.62,-3.632c-0.676,-2.024 -1.914,-3.987 -2.827,-5.878c-0.469,-0.971 -1.643,-3.128 -1.61,-3.152c0.034,-0.024 2.05,1.459 2.742,2.234c0.9,1.006 1.629,2.259 2.355,3.488c1.342,2.269 2.304,4.703 2.4,6.936c0.072,2.01 -0.233,3.986 -0.747,5.931c-0.723,2.736 -1.871,5.398 -2.724,8.046c-0.864,2.408 -2.107,5.825 -2.973,9.187c-0.344,1.339 -0.772,2.613 -0.829,3.913c-0.078,1.751 0.611,3.238 1.244,4.842Zm-8.123,-76.61c-0.073,-0.076 -0.071,-0.197 0.004,-0.27c0.076,-0.074 0.197,-0.072 0.27,0.004l2.092,0.982c0.749,0.311 1.548,0.59 2.358,0.836c0.499,0.151 0.998,0.293 1.503,0.35c0,0 3.429,0.519 3.864,0.56c0.088,-0.004 0.162,0.064 0.166,0.153c0.004,0.088 -0.077,0.121 -0.152,0.166c-0.298,0.179 -3.417,0.91 -4.12,0.785c-0.615,-0.109 -1.232,-0.277 -1.815,-0.54c-0.828,-0.374 -1.585,-0.888 -2.307,-1.373l-1.863,-1.653Zm-195.466,161.452c-0.422,-0.163 -1.499,-0.888 -1.428,-1.089c0.071,-0.2 1.336,-0.119 1.762,-0.026c1.628,0.354 3.275,0.802 4.966,0.955c2.106,0.19 4.234,0.103 6.258,-0.326c1.569,-0.367 3.083,-0.864 4.539,-1.503c3.526,-1.546 6.724,-3.739 10.298,-5.189c1.33,-0.54 2.712,-0.946 4.137,-1.264c3.19,-0.59 6.365,-0.542 9.533,-0.216c3.144,0.323 6.313,0.622 9.432,1.179c0.682,0.121 1.315,0.273 1.966,0.511c0.793,0.29 2.056,1.004 2.056,1.016c0.001,0.013 -1.407,0.891 -2.314,1.176c-0.771,0.242 -1.552,0.301 -2.359,0.325c-5.918,0.171 -11.776,-1.759 -17.677,-0.598c-1.949,0.27 -3.8,0.804 -5.633,1.418c-3.179,1.063 -6.284,2.281 -9.48,3.283c-1.391,0.436 -2.785,0.863 -4.238,1.127c-2.15,0.428 -4.405,0.493 -6.634,0.268c-1.767,-0.179 -3.559,-0.419 -5.184,-1.047Zm131.594,-18.16c-0.642,-0.19 -2.182,-0.921 -2.133,-1.112c0.048,-0.191 1.733,-0.13 2.385,-0.035c2.605,0.381 5.193,0.874 7.756,1.484c2.707,0.645 5.328,1.465 8.002,2.091c1.724,0.404 3.469,0.722 5.275,0.851c3.778,0.275 7.49,0.157 11.16,-0.235c4.424,-0.473 8.647,-1.971 13.105,-2.699c1.189,-0.195 4.158,-0.093 4.267,0.222c0.109,0.316 -2.266,2.208 -3.392,2.714c-2.502,1.121 -5.265,1.447 -7.931,1.895c-5.72,0.959 -11.524,1.065 -17.426,0.36c-1.913,-0.231 -3.751,-0.655 -5.562,-1.176c-2.645,-0.76 -5.226,-1.717 -7.902,-2.501c-2.506,-0.733 -5.101,-1.12 -7.604,-1.859Zm-204.291,-95.869c-0.488,0.486 -1.716,1.442 -1.776,1.391c-0.059,-0.05 0.767,-1.554 1.231,-2.162c0.911,-1.193 2.064,-2.181 3.048,-3.314c0.993,-1.143 1.894,-2.344 2.878,-3.491c0.749,-0.87 1.91,-2.207 3.079,-3.397c0.809,-0.824 1.629,-1.558 2.211,-2.099c0.531,-0.473 1.709,-1.331 3.348,-2.104c0.738,-0.348 1.591,-0.581 2.453,-0.945c1.808,-0.763 3.722,-1.731 5.532,-2.487c1.485,-0.621 2.815,-1.409 3.973,-1.534c0.497,-0.054 3.709,-0.641 3.728,-0.583c0.019,0.057 -2.866,1.529 -3.267,1.809c-1.937,1.355 -5.613,2.366 -8.498,4.043c-0.852,0.495 -1.584,1.09 -2.335,1.542c-1.547,0.931 -2.861,1.569 -3.373,2.02l-5.78,4.812c-1.14,0.968 -2.3,1.902 -3.357,2.965c-1.104,1.11 -1.986,2.429 -3.095,3.534Zm9.637,-16.211c-0,-0 -2.174,1.58 -2.234,1.519c-0.061,-0.06 1.862,-1.907 1.862,-1.907c0.355,-0.305 0.759,-0.561 1.062,-0.921c0.79,-0.936 1.257,-1.949 2.089,-2.852c1.351,-0.834 2.779,-1.588 4.299,-2.11c0.895,-0.307 1.792,-0.597 2.725,-0.718c0.687,-0.089 5.009,-0.451 5.033,-0.384c0.024,0.067 -3.926,1.451 -4.51,1.821c-1.028,0.65 -2.149,1.123 -3.245,1.659c-1.061,0.518 -2.148,0.973 -3.144,1.583c-1.079,0.323 -2.088,0.596 -2.979,1.281c-0.373,0.287 -0.638,0.688 -0.958,1.029Zm272.37,38.426c0.01,0.062 -0.032,0.121 -0.094,0.131c-0.062,0.01 -0.121,-0.032 -0.131,-0.094c-0.316,-1.392 -0.251,-2.754 -0.032,-4.109c0.106,-0.656 0.292,-1.291 0.416,-1.951c0.193,-1.026 0.201,-2.009 0.499,-3.011c0.116,-0.39 0.309,-0.75 0.462,-1.122l1.013,-1.983c0.691,-1.41 0.766,-3.035 1.382,-4.489c0.19,-0.449 0.441,-0.743 0.718,-1.14c0.019,-0.089 0.108,-0.146 0.198,-0.126c0.089,0.019 0.146,0.108 0.126,0.198c0.085,0.42 0.233,0.717 0.285,1.146c0.103,0.862 0.013,1.724 -0.021,2.594c-0.034,0.9 -0.161,1.774 -0.377,2.641l-0.966,2.238c-0.238,0.442 -0.447,0.902 -0.717,1.331c-0.64,1.017 -1.456,1.844 -1.964,2.922c-0.703,1.491 -0.958,3.127 -0.797,4.824Zm-278.467,89.938c-1.566,-0.928 -4.434,-3.423 -4.371,-3.502c0.062,-0.079 2.157,1.087 3.137,1.617c0.963,0.521 1.923,1.053 2.926,1.504c2.005,0.9 4.103,1.592 6.217,2.105c0,-0 7.03,0.569 8.3,0.724c1.837,0.225 8.419,2.334 8.413,2.703c-0.005,0.369 -4.703,1.532 -5.695,1.427c-0.987,-0.105 -1.977,-0.22 -2.937,-0.474c-1.433,-0.378 -8.474,-2.932 -8.474,-2.932c-2.591,-0.778 -5.168,-1.78 -7.516,-3.172Zm272.05,-153.123c-0.218,0 -0.395,-0.177 -0.395,-0.394c0,-0.218 0.177,-0.395 0.395,-0.395c1.594,-0.074 3.143,-0.574 4.619,-1.197c0.368,-0.156 2.021,-0.442 2.052,-0.395c0.03,0.047 -1.728,1.633 -2.377,1.845c-1.381,0.452 -2.851,0.608 -4.294,0.536Z" style="fill:#fff;"/></g><defs><linearGradient id="_Linear1" x1="0" y1="0" x2="1" y2="0" gradientUnits="userSpaceOnUse" gradientTransform="matrix(-47.1303,-3.62665,5.04552,-65.5693,212.738,129.808)"><stop offset="0" style="stop-color:#fff;stop-opacity:0"/><stop offset="1" style="stop-color:#fbffad;stop-opacity:1"/></linearGradient><linearGradient id="_Linear2" x1="0" y1="0" x2="1" y2="0" gradientUnits="userSpaceOnUse" gradientTransform="matrix(-55.2786,-1.56942,1.75812,-61.9251,277.652,124.022)"><stop offset="0" style="stop-color:#fff;stop-opacity:0"/><stop offset="1" style="stop-color:#fbffad;stop-opacity:1"/></linearGradient></defs></svg>