<?xml version="1.0" encoding="UTF-8" standalone="no"?>
<svg
   id="Layer_1"
   data-name="Layer 1"
   viewBox="0 0 300 345"
   version="1.1"
   sodipodi:docname="BushMonstersnow.svg"
   xml:space="preserve"
   inkscape:version="1.2 (dc2aedaf03, 2022-05-15)"
   xmlns:inkscape="http://www.inkscape.org/namespaces/inkscape"
   xmlns:sodipodi="http://sodipodi.sourceforge.net/DTD/sodipodi-0.dtd"
   xmlns="http://www.w3.org/2000/svg"
   xmlns:svg="http://www.w3.org/2000/svg"><sodipodi:namedview
     id="namedview124"
     pagecolor="#505050"
     bordercolor="#ffffff"
     borderopacity="1"
     inkscape:showpageshadow="0"
     inkscape:pageopacity="0"
     inkscape:pagecheckerboard="1"
     inkscape:deskcolor="#505050"
     showgrid="false"
     inkscape:zoom="0.65475806"
     inkscape:cx="132.10987"
     inkscape:cy="163.41914"
     inkscape:window-width="1366"
     inkscape:window-height="705"
     inkscape:window-x="-8"
     inkscape:window-y="-8"
     inkscape:window-maximized="1"
     inkscape:current-layer="Layer_1" /><defs
     id="defs15"><style
       id="style2">.cls-1{fill:url(#linear-gradient);}.cls-2{fill:#44c649;}.cls-3{fill:#3f312b;}.cls-4{fill:#7af471;}.cls-5,.cls-7{fill:#1f4c0f;}.cls-5{opacity:0.6;isolation:isolate;}.cls-6{fill:#47e247;}.cls-8{fill:#231916;}.cls-9{fill:#3abf3a;}.cls-10{fill:#84562c;}.cls-11{fill:#663f22;}.cls-12{fill:#247a32;}.cls-13{fill:#6ae26a;}</style><linearGradient
       id="linear-gradient"
       x1="150"
       y1="550.57"
       x2="150"
       y2="439.38"
       gradientTransform="translate(0 -154)"
       gradientUnits="userSpaceOnUse"><stop
         offset="0.24"
         stop-color="#44c649"
         id="stop4" /><stop
         offset="0.39"
         stop-color="#42bd43"
         id="stop6" /><stop
         offset="0.64"
         stop-color="#3da534"
         id="stop8" /><stop
         offset="0.95"
         stop-color="#357e1c"
         id="stop10" /><stop
         offset="1"
         stop-color="#347718"
         id="stop12" /></linearGradient></defs><path
     id="path2912"
     style="fill:#9ec7eb;fill-opacity:1;fill-rule:evenodd;stroke-width:1.20217"
     d="m 169.16086,68.926387 c 4.1288,-11.282781 16.59208,-12.261641 26.45278,-9.44405 9.86072,2.817594 14.50736,14.248211 10.37855,25.530996 -4.1288,11.282783 -7.61173,14.52454 -17.47244,11.70694 -9.86071,-2.817595 -23.48769,-16.511105 -19.35889,-27.793886 z"
     sodipodi:nodetypes="sssss" /><path
     id="path2220"
     style="fill:#9ec7eb;fill-opacity:1;fill-rule:evenodd;stroke-width:1.42901"
     d="m 251.83911,74.285727 c -5.83393,11.282781 -23.44434,12.261641 -37.37734,9.44405 -13.93304,-2.817594 -20.49866,-14.248211 -14.66472,-25.530996 5.83392,-11.282783 10.75525,-14.52454 24.68827,-11.70694 13.93302,2.817595 33.18771,16.511105 27.35379,27.793886 z"
     sodipodi:nodetypes="sssss" /><g
     id="g13164"
     transform="matrix(0.11100985,0.04363534,-0.04363534,0.11100985,250.1926,36.330846)"><path
       id="rect12026"
       style="fill:#ffea8d;fill-opacity:1;stroke:#ff9602;stroke-width:18.4192;stroke-linejoin:round;stroke-dasharray:none;paint-order:markers fill stroke;stop-color:#000000"
       d="M -255.38038,96.558772 -90.187437,622.7902 H -420.57333 Z"
       sodipodi:nodetypes="cccc" /><path
       sodipodi:type="star"
       style="fill:#ffea8d;fill-opacity:1;stroke:#ff9602;stroke-width:15.8873;stroke-linejoin:round;stroke-dasharray:none;stroke-opacity:1;paint-order:markers fill stroke;stop-color:#000000"
       id="path9624"
       inkscape:flatsided="false"
       sodipodi:sides="5"
       sodipodi:cx="-438.76511"
       sodipodi:cy="3.7662241"
       sodipodi:r1="282.17163"
       sodipodi:r2="146.72925"
       sodipodi:arg1="0.95132264"
       sodipodi:arg2="1.5796412"
       inkscape:rounded="1.0408341e-17"
       inkscape:randomized="0"
       d="m -274.93436,233.50589 -165.12853,-83.01616 -166.57114,80.08226 27.92554,-182.699975 -127.63606,-133.671791 182.38746,-29.898634 87.68772,-162.69596 84.79611,164.2216 181.83005,33.120157 -129.98058,131.393161 z"
       inkscape:transform-center-x="-0.1567082"
       inkscape:transform-center-y="-0.95606131"
       transform="translate(180.77875,67.792034)" /><path
       sodipodi:type="star"
       style="fill:#ff9602;fill-opacity:1;stroke:#ff6202;stroke-width:24.542;stroke-linejoin:round;stroke-dasharray:none;stroke-opacity:1;paint-order:markers fill stroke;stop-color:#000000"
       id="path11489"
       inkscape:flatsided="false"
       sodipodi:sides="5"
       sodipodi:cx="-438.76511"
       sodipodi:cy="3.7662241"
       sodipodi:r1="282.17163"
       sodipodi:r2="146.72925"
       sodipodi:arg1="0.95132264"
       sodipodi:arg2="1.5796412"
       inkscape:rounded="1.0408341e-17"
       inkscape:randomized="0"
       d="m -274.93436,233.50589 -165.12853,-83.01616 -166.57114,80.08226 27.92554,-182.699975 -127.63606,-133.671791 182.38746,-29.898634 87.68772,-162.69596 84.79611,164.2216 181.83005,33.120157 -129.98058,131.393161 z"
       inkscape:transform-center-x="-0.092385676"
       inkscape:transform-center-y="-0.5636312"
       transform="matrix(0.58953506,0,0,0.58953506,3.2746191,62.137457)" /><path
       id="rect13153"
       style="fill:#ffc047;fill-opacity:1;stroke:none;stroke-width:8.05074;stroke-linejoin:round;stroke-dasharray:none;stroke-opacity:1;paint-order:markers fill stroke;stop-color:#000000"
       d="m -210.6944,263.69097 -114.25016,79.83844 -41.68072,132.77693 182.61503,-127.61202 z m 41.93249,133.57721 -221.68093,154.91121 -16.9496,53.99232 72.87518,1e-5 189.71498,-132.57372 z" /></g><path
     class="cls-1"
     d="M263.6,345H36.4A36.4,36.4,0,0,1,0,308.6H0V259.1H300v49.5A36.4,36.4,0,0,1,263.6,345Z"
     id="path17" /><path
     id="path19"
     class="cls-2"
     d="M 115.02734 0.048828125 C 98.647803 0.34411322 81.11362 6.3984806 64.666016 17.222656 A 17.93 17.93 0 0 0 61.400391 12.599609 A 12.88 12.88 0 0 0 58.400391 10.400391 A 11.07 11.07 0 0 0 54.400391 9.0996094 A 9.58 9.58 0 0 0 52.175781 9.0429688 A 9.58 9.58 0 0 0 50 9.5 A 17.64 17.64 0 0 0 46.300781 11.199219 A 20.22 20.22 0 0 0 41.099609 16.099609 A 38.35 38.35 0 0 0 37.599609 21.5 A 56 56 0 0 0 34.900391 27 C 34.100391 28.799992 33.399215 30.699617 32.699219 32.599609 A 151.54 151.54 0 0 0 27.388672 53.714844 A 154.1 154.1 0 0 0 26.707031 54.628906 A 32.07 32.07 0 0 0 26.599609 54.300781 A 23.29 23.29 0 0 0 23.900391 49.099609 A 6.42 6.42 0 0 0 22.900391 47.800781 L 22.300781 47.199219 A 4.35 4.35 0 0 0 21.599609 46.599609 A 7 7 0 0 0 20.699219 46 C 20.299219 45.8 19.999609 45.500391 19.599609 45.400391 C 19.199613 45.300391 18.800781 45.1 18.300781 45 A 10 10 0 0 0 16.699219 44.800781 A 9.85 9.85 0 0 0 15 45 A 8.8 8.8 0 0 0 13.5 45.5 C 13.1 45.8 12.700781 46.000785 12.300781 46.300781 A 7 7 0 0 0 11.300781 47.099609 A 11.9 11.9 0 0 0 9.0996094 50.400391 A 27.5 27.5 0 0 0 7.0996094 56.099609 A 64.11 64.11 0 0 0 5.5996094 66.800781 A 144.42 144.42 0 0 0 5.8007812 87.599609 A 129.73 129.73 0 0 0 6.4726562 94.265625 C 2.1741568 107.3391 -6.5630306e-17 120.35701 0 132.59961 A 88.27 88.27 0 0 0 4.4003906 161 A 61.16 61.16 0 0 0 22.400391 188.30078 C 22.500391 188.30078 22.599219 188.4 22.699219 188.5 A 17 17 0 0 0 20.5 190.90039 A 23.56 23.56 0 0 0 19.699219 219.09961 A 43.58 43.58 0 0 0 0.30078125 249.80078 A 49.33 49.33 0 0 0 0 255.30078 L 0 262 A 36.4 36.4 0 0 0 36.400391 298.40039 L 263.59961 298.40039 A 36.4 36.4 0 0 0 300 262 L 300 221.69922 A 54.73 54.73 0 0 0 296.69922 202.90039 A 55.91 55.91 0 0 0 274.69922 174.90039 L 273.90039 174.40039 A 52.3 52.3 0 0 0 258.40039 167.59961 C 259.20039 166.69961 259.89922 165.80039 260.69922 164.90039 C 262.59922 162.60039 264.3 160.19922 266 157.69922 C 278.89995 138.39932 282.90078 116.69912 278.30078 100.19922 C 275.90078 91.599255 271.09995 84.299589 264 79.599609 C 250.00005 70.199659 230.50068 73.000841 213.30078 84.800781 L 212.40039 84.199219 C 202.40044 77.599249 189.60073 77.099239 176.80078 81.699219 L 176.3125 81.861328 C 176.80426 80.474246 177.10369 79.086301 177.5 77.699219 C 177.9 76.299221 178.2 74.899998 178.5 73.5 C 179.1 70.700006 179.6 67.799994 180 65 A 85.44 85.44 0 0 0 180.59961 47.5 A 24.3 24.3 0 0 0 179.80078 42.800781 A 12.54 12.54 0 0 0 178.90039 40.300781 L 178.5 39.599609 C 178.3 39.399611 178.2 39.100389 178 38.900391 A 5.36 5.36 0 0 0 176.5 37.400391 L 175.30078 36.800781 L 173.90039 36.5 A 5.7 5.7 0 0 0 172.59961 36.599609 L 171.5 36.900391 A 7.5 7.5 0 0 0 170.89258 37.201172 A 77.17 77.17 0 0 0 172.69922 29.699219 A 38.58 38.58 0 0 0 173.19922 20.699219 A 19.25 19.25 0 0 0 172.09961 15.400391 A 10.09 10.09 0 0 0 171.40039 13.900391 A 13 13 0 0 0 170.40039 12.400391 A 9.27 9.27 0 0 0 169 11 A 9.39 9.39 0 0 0 167.19922 9.8007812 A 10.46 10.46 0 0 0 163.30078 9 A 11.27 11.27 0 0 0 160.09961 9.5 C 159.69961 9.6999992 159.20078 9.8000008 158.80078 10 L 157.59961 10.5 A 11.25 11.25 0 0 0 155.5 11.699219 A 27.36 27.36 0 0 0 153.65234 13.191406 A 59 59 0 0 0 149.30078 9.5996094 C 139.20708 2.8808929 127.45258 -0.17516979 115.02734 0.048828125 z " /><path
     id="path3846"
     style="fill:#2d7c26;fill-opacity:0.33687;stroke:none;stroke-width:7.5;stroke-linejoin:round;paint-order:markers fill stroke;stop-color:#000000"
     class="UnoptimicedTransforms"
     d="M 115.02734,0.04882812 C 96.970981,0.43133046 79.614117,7.4081967 64.666016,17.222656 54.02798,-2.2145762 35.159757,18.338167 32.699219,32.599609 l -3.283203,13.054688 c -1.119746,4.452214 -3.842234,4.667558 -7.306641,1.683594 -3.19626,-2.753006 -8.0783,-2.590511 -10.808594,-0.238282 -4.8136014,4.147063 -8.5659442,10.1408 -11.30468725,17 v 56.593751 c 0.52338834,0.80005 1.07179655,1.54712 1.66601565,2.18945 12.2646806,13.25783 19.6542296,19.69317 53.0234376,-9.09765 3.084715,8.21987 45.569793,34.31498 65.041013,3.58984 4.16923,-11.46709 5.73332,-16.67366 25.0555,-11.3049 15.70879,4.36329 32.70775,25.73867 48.19646,30.82834 C 220.58478,145.97 279.25,124.375 279.25,124.375 c 3.24566,-17.47644 -1.94764,-39.022814 -19.32617,-47.099609 -15.34406,-7.199391 -33.4011,-1.665102 -46.62305,7.52539 -7.53955,-9.073669 -15.12657,-17.188172 -28.65039,-9.253906 -4.98194,2.922846 -7.05289,1.797432 -5.85742,-3.863281 -27.13113,-4.844099 2.97067,-24.97596 2.60547,-38.697266 -0.10181,-3.825367 0.60557,-7.823265 -0.84961,-11.314453 -2.60638,-6.25308 -7.10032,-12.6723585 -13.32422,-15.3476562 -4.78306,-2.0559606 -10.992,5.9949042 -15.90234,3.3769531 -1.749,-0.93248 -3.88779,-3.4310798 -5.69141,-4.3066407 -9.18943,-4.46097617 -20.53115,-5.56181326 -30.60352,-5.34570308 z"
     transform="matrix(1,0,0,0.96350424,0,12.184635)"
     sodipodi:nodetypes="ccccssccccccscccscsssssc" /><path
     class="cls-3"
     d="M172.1,210.8s-18-24.7,1.2-34.7c10-4.4,13.1,3.8,13.1,3.8-.5,2.5-1.3,9.2-1.3,9.2s-5.9-10.9-11.5-5.9S167.4,197.1,172.1,210.8Z"
     id="path21" /><path
     class="cls-3"
     d="M180.1,178.5s14.6-36.8,50.1-43.9c-27.4,21.3-38.1,38.4-38.1,38.4l-4,16.4-5.5,1.4Z"
     id="path23" /><path
     class="cls-3"
     d="M216.4,168.5s38.8-49.1,56.7-30.4C286,155.4,252,187.6,252,187.6l-39.4,3-8.6-2.9Z"
     id="path25" /><path
     class="cls-4"
     d="M236,143.1c-.9,5-3.6,11.6-6.8,18.4a334.84,334.84,0,0,1-16.8,29.8l-6.1,3.4L191.5,203l-6.4,3.6a57.31,57.31,0,0,1-.6-14.9h0c.1-1.2.2-2.6.4-3.9,2-14.5,9.6-34.4,34-48.4C233.9,130.7,237.6,134.5,236,143.1Z"
     id="path27" /><path
     class="cls-4"
     d="M192.1,199.7l-.6,3.3-2.6,13.6L177.4,219s-7.7-9.6-10.3-19.6c-1.9-7.2-1.1-14.5,7-18.7,7.4-2.7,10,3.8,10.8,7,.1.6.3,1.1.4,1.7l1.6-.6,4-1.5Z"
     id="path29" /><path
     class="cls-5"
     d="M274.7,174.8c-.2,1.1-.5,2.2-.8,3.3-4.6,15.6-19.7,32.1-19.7,32.1l-14.7,2.2h0l-24.4,3.7-8.8-2.2-14.9,8.3-2.6,13.6-11.3,2.4h-.2a59.75,59.75,0,0,1-6.9-11,49.66,49.66,0,0,1-3.4-8.6c.3-4.6,2.4-8.7,7.8-11.5,5.2-2,8.1.8,9.6,3.7h0a16.07,16.07,0,0,1,1.2,3.3c.3-2,.6-4,1.1-6.1,3.2-13.6,11.7-30.2,32.8-42.3,9.4-5.4,14.4-5.9,16.4-3.5a56.26,56.26,0,0,1-3.7,11.4c-.9,2.3-2,4.6-3.1,6.9a69.84,69.84,0,0,1,9.2-6.1c6.4-3.8,15-8.1,22.2-9.7-.8.9-1.5,1.8-2.3,2.7A60,60,0,0,1,274.7,174.8Z"
     id="path31" /><path
     class="cls-5"
     d="M24.9,171.5a30.55,30.55,0,0,0,1.3,6.7c4.6,15.6,19.7,32.1,19.7,32.1l14.7,2.2h0L85,216.2l8.8-2.2,14.8,8.3,2.6,13.6,11.3,2.4h.2a59.75,59.75,0,0,0,6.9-11,49.66,49.66,0,0,0,3.4-8.6c-.3-4.6-2.4-8.7-7.8-11.5-5.2-2-8.1.8-9.6,3.7h0a16.07,16.07,0,0,0-1.2,3.3c-.3-2-.6-4-1.1-6.1-3.2-13.6-11.7-30.2-32.8-42.3-9.4-5.4-14.4-5.9-16.4-3.4a56.26,56.26,0,0,0,3.7,11.4c.9,2.3,2,4.6,3.1,6.9a69.84,69.84,0,0,0-9.2-6.1c-10.8-6.3-27.8-14.3-33.9-7.9A11.29,11.29,0,0,0,24.9,171.5Z"
     id="path33" /><path
     class="cls-5"
     d="M238.4,299c-.6,7.8-5.3,17.3-23.2,19.9a42.17,42.17,0,0,1-33.2-7.1c-14,11-27.2,1.4-32-3.1-4.8,4.4-18,14.1-32,3.1a42.57,42.57,0,0,1-33.2,7.1c-17.9-2.6-22.6-12.1-23.2-19.9-38-.5-42.9-18.6-40.3-33.6a52.59,52.59,0,0,1,2.7-9.6c.5-1.2.9-2.3,1.4-3.4a11.73,11.73,0,0,1,.5-1.1c.5-1,1-1.9,1.4-2.7a26.06,26.06,0,0,1,1.7-2.8,25.65,25.65,0,0,0,5,12.6h0c3.6,4.3,8.8,6.1,14.8,6.3,18.1.7,44.2-12.9,61.8-17.7,22.5-6.2,35.5,6.1,39.4,10.7,3.9-4.6,16.9-16.8,39.4-10.7,17.5,4.8,43.7,18.4,61.8,17.7,6.1-.2,11.2-2,14.8-6.3h0c2.5-2.9,4.2-7,5-12.6a26.06,26.06,0,0,1,1.7,2.8c.4.8.9,1.7,1.4,2.7.2.4.3.7.5,1.1.5,1,.9,2.2,1.4,3.4a52.59,52.59,0,0,1,2.7,9.6C281.3,280.3,276.4,298.4,238.4,299Z"
     id="path35" /><path
     class="cls-4"
     d="M275.1,152.3c-1.2,17.1-21,38.8-21,38.8L215,197l-8.8-2.2,10.9-20s5-6,12-13.2c2-2,4.1-4.1,6.4-6.2,12.6-11.7,28.3-23,36-15C274.5,143.6,275.4,147.8,275.1,152.3Z"
     id="path37" /><path
     class="cls-6"
     d="M275.1,152.3a30.55,30.55,0,0,1-1.3,6.7c-4.6,15.6-19.7,32.1-19.7,32.1l-14.7,2.2h0L215,197l-8.8-2.2L191.3,203l-2.6,13.6L177.4,219h-.2a59.75,59.75,0,0,1-6.9-11,49.66,49.66,0,0,1-3.4-8.6c.3-4.6,2.4-8.7,7.8-11.5,5.2-2,8.1.8,9.6,3.7h0a16.07,16.07,0,0,1,1.2,3.3c.3-1.9.6-4,1.1-6.1,3.2-13.6,11.7-30.2,32.8-42.3,9.4-5.4,14.4-5.9,16.4-3.4a56.26,56.26,0,0,1-3.7,11.4c-.9,2.3-2,4.6-3.1,6.9a69.84,69.84,0,0,1,9.2-6.1C249,149,266,141,272.1,147.4A11.45,11.45,0,0,1,275.1,152.3Z"
     id="path39" /><path
     class="cls-7"
     d="M178,224.5a41.36,41.36,0,0,0,54.2,23.2c21.3-8.8,31.5-33.4,22.9-54.9-2-5.1-7.9-7.2-15.5-7.2a65.37,65.37,0,0,0-13.9,1.8C201.6,193,172.6,210.8,178,224.5Z"
     id="path41" /><path
     class="cls-8"
     d="M217.2,249.5a23,23,0,0,1-3.4,1.2,41.48,41.48,0,0,1-32.4-19.5,42.16,42.16,0,0,1-3.4-6.7,9.41,9.41,0,0,1-.5-5.5c.9-4.5,4.6-9.2,10-13.7a10.63,10.63,0,0,0,1.1-.9c9.7-7.5,24.1-14,37-17,6.4.2,11.4,2,13.7,5.9h0a5.17,5.17,0,0,1,.6,1.3,42.21,42.21,0,0,1-22.7,54.9Z"
     id="path43" /><path
     class="cls-3"
     d="M127.9,210.8s18-24.7-1.2-34.7c-10-4.4-13.1,3.8-13.1,3.8.5,2.5,1.3,9.2,1.3,9.2s5.9-10.9,11.5-5.9S132.6,197.1,127.9,210.8Z"
     id="path45" /><path
     class="cls-3"
     d="M119.9,178.5s-14.6-36.8-50.1-43.9c27.4,21.3,38.1,38.4,38.1,38.4l4,16.4,5.5,1.4Z"
     id="path47" /><path
     class="cls-3"
     d="M63.8,138.5a21.58,21.58,0,0,0-1.6,9.7c.3,6.1,6.9,6.3,6.9,6.3Z"
     id="path49" /><path
     class="cls-3"
     d="M83.6,168.5s-38.8-49.1-56.7-30.4C14,155.4,48,187.5,48,187.5l39.4,3,8.6-2.9Z"
     id="path51" /><path
     class="cls-4"
     d="M64,143.1c.9,5,3.6,11.6,6.8,18.4a334.84,334.84,0,0,0,16.8,29.8l6.1,3.4,14.8,8.3,6.4,3.6a57.31,57.31,0,0,0,.6-14.9h0c-.1-1.2-.2-2.6-.4-3.9-2-14.5-9.6-34.4-34-48.4C66.2,130.7,62.5,134.5,64,143.1Z"
     id="path53" /><path
     class="cls-4"
     d="M107.9,199.7l.6,3.3,2.6,13.6,11.5,2.4s7.7-9.6,10.3-19.6c1.9-7.2,1.1-14.5-7-18.7-7.3-2.7-10,3.8-10.8,7a10.1,10.1,0,0,0-.3,1.7l-1.6-.6-4-1.5Z"
     id="path55" /><path
     class="cls-4"
     d="M24.9,152.3c1.2,17.1,21,38.8,21,38.8L85,197l8.8-2.2-10.9-20s-5-6-12-13.2c-2-2-4.1-4.1-6.3-6.2-12.6-11.7-28.3-23-36-15C25.5,143.6,24.6,147.8,24.9,152.3Z"
     id="path57" /><path
     class="cls-6"
     d="M24.9,152.3a30.55,30.55,0,0,0,1.3,6.7c4.6,15.6,19.7,32.1,19.7,32.1l14.7,2.2h0L85,197l8.8-2.2,14.8,8.2,2.6,13.6,11.3,2.4h.2a59.75,59.75,0,0,0,6.9-11,49.66,49.66,0,0,0,3.4-8.6c-.3-4.6-2.4-8.7-7.8-11.5-5.2-2-8.1.8-9.6,3.7h0a16.07,16.07,0,0,0-1.2,3.3c-.3-1.9-.6-4-1.1-6.1-3.2-13.6-11.7-30.1-32.8-42.3-9.4-5.4-14.4-5.9-16.4-3.5a56.26,56.26,0,0,0,3.7,11.4c.9,2.3,2,4.6,3.1,6.9a69.84,69.84,0,0,0-9.2-6.1c-10.8-6.3-27.8-14.3-34-7.9A14.59,14.59,0,0,0,24.9,152.3Z"
     id="path59" /><path
     class="cls-7"
     d="M122,224.5a41.36,41.36,0,0,1-54.2,23.2c-21.3-8.7-31.6-33.4-22.9-54.9,2-5.1,7.9-7.2,15.5-7.2a65.37,65.37,0,0,1,13.9,1.8C98.4,193,127.5,210.8,122,224.5Z"
     id="path61" /><path
     class="cls-8"
     d="M82.8,249.5a23,23,0,0,0,3.4,1.2,41.48,41.48,0,0,0,32.4-19.5,42.16,42.16,0,0,0,3.4-6.7,9.41,9.41,0,0,0,.5-5.5c-.9-4.5-4.6-9.2-10-13.7l-1.2-.9c-9.7-7.5-24-14-37-17-6.4.2-11.4,2-13.7,5.9h0a5.17,5.17,0,0,0-.6,1.3A42.34,42.34,0,0,0,82.8,249.5Z"
     id="path63" /><path
     class="cls-9"
     d="M276,255.7c-.5,11.8-6.6,17.8-6.6,17.8L244.2,282l-5.8,2.2h-.1l-1.1,2.2h0l-4.4,8.4-23.1,9.9-23.6-7.4-1.8.3-2.9.5-8.2,1.4-17.3-3.6-5.9-5-5.9,5-17.3,3.6-8.2-1.4-2.9-.5-1.8-.3-23.6,7.4-23.2-9.9-4.4-8.4h0l-1.2-2.2h-.1L55.6,282l-25.2-8.4s-6.1-5.9-6.6-17.8a38.54,38.54,0,0,1,1.5-12.6,12.09,12.09,0,0,1,.5-1.8,53.58,53.58,0,0,1,3-7.9,43.71,43.71,0,0,0,1.2,5.2c.1.2.1.5.2.7.2.5.3.9.5,1.3s.4.9.6,1.3c0,.1.1.2.1.3a9.5,9.5,0,0,0,1,1.7c3.1,4.9,7.8,7.3,13.5,8a25.72,25.72,0,0,0,4.8.2h1.5l.8-.1a4.1,4.1,0,0,0,1.1-.1h.4c.5-.1,1-.1,1.6-.2l1.5-.2.7-.1c.5-.1.9-.1,1.3-.2.8-.2,1.6-.3,2.5-.5l1.5-.3,1.8-.4.3-.1,1.7-.5,1.7-.5,1.3-.4,6.6-2.1c3.4-1.2,6.8-2.4,10.1-3.7l3.5-1.3,4.2-1.7c1-.4,2-.8,3-1.1,4.6-1.7,8.9-3.2,12.8-4.3a38.5,38.5,0,0,1,6.6-1.3h0c18.4-2.4,29.3,7.9,32.8,12,3.5-4.1,14.4-14.4,32.8-12h0a51.3,51.3,0,0,1,6.6,1.3c3.9,1.1,8.2,2.6,12.8,4.3,1,.3,2,.7,3,1.1l4.2,1.6,3.5,1.3c3.3,1.3,6.7,2.5,10.1,3.7q3.3,1.2,6.6,2.1l1.3.4,1.7.5,1.7.5.3.1,1.8.4,1.4.3a20.48,20.48,0,0,0,2.4.5,5.9,5.9,0,0,0,1.4.2l.6.1,1.5.2c.5.1,1.1.1,1.6.2h.4a4.1,4.1,0,0,0,1.1.1l.8.1h1.5a25.72,25.72,0,0,0,4.8-.2c5.7-.7,10.4-3.1,13.5-8a15.05,15.05,0,0,0,1-1.7.37.37,0,0,0,.1-.3c.2-.4.4-.9.6-1.3s.3-.9.5-1.3a1.85,1.85,0,0,0,.2-.7,48.75,48.75,0,0,0,1.2-5.2,58.21,58.21,0,0,1,3,7.9,12.09,12.09,0,0,1,.5,1.8A38.54,38.54,0,0,1,276,255.7Z"
     id="path65" /><path
     class="cls-6"
     d="M274.1,239v2.4a16.35,16.35,0,0,1-.2,2.2,26.78,26.78,0,0,1-1.1,4.9,22.12,22.12,0,0,1-6.7,9.8h0a31.08,31.08,0,0,1-14.8,6.3c-7.4,1.3-13.9.4-14.6-.5h0v.2a.37.37,0,0,0,.1.3c.5,3.1,1.5,17.4-23.1,21.9-23,2.2-23-9.1-23-9.1-20,17.9-34.9,3.5-40.6-3.9-5.7,7.5-20.6,21.9-40.6,3.9,0,0,0,11.3-23,9.1C62,282,63,267.7,63.5,264.6a.37.37,0,0,1,.1-.3v-.2h0c-.8.9-7.3,1.8-14.6.5a32.09,32.09,0,0,1-14.8-6.3h0a21.58,21.58,0,0,1-6.7-9.8,26.78,26.78,0,0,1-1.1-4.9,16.35,16.35,0,0,1-.2-2.2,19.22,19.22,0,0,1,0-2.4,48.26,48.26,0,0,1,3-5.5,43.71,43.71,0,0,0,1.2,5.2c.1.2.1.5.2.7.2.5.3.9.5,1.3s.4.9.6,1.3c0,.1.1.2.1.3a9.5,9.5,0,0,0,1,1.7c3.1,4.9,7.8,7.3,13.5,8a25.72,25.72,0,0,0,4.8.2h1.5l.8-.1,1.1-.1h.4c.5-.1,1-.1,1.6-.2l1.5-.2.7-.1c.5-.1.9-.1,1.3-.2.8-.2,1.6-.3,2.5-.5l1.5-.3c.6-.1,1.2-.3,1.8-.4l.3-.1,1.7-.5a10.93,10.93,0,0,0,1.7-.5l1.3-.4,6.6-2.1c3.4-1.2,6.8-2.4,10.1-3.7l3.5-1.3,4.2-1.7c1-.4,2-.8,3-1.1,4.6-1.7,8.9-3.2,12.8-4.3a38.5,38.5,0,0,1,6.6-1.3h0c18.4-2.4,29.3,7.9,32.8,12,3.5-4.1,14.4-14.4,32.8-12h0a51.3,51.3,0,0,1,6.6,1.3c3.9,1.1,8.2,2.6,12.8,4.3,1,.3,2,.7,3,1.1l4.2,1.6,3.5,1.3c3.3,1.3,6.7,2.5,10.1,3.7q3.3,1.2,6.6,2.1l1.3.4c.6.2,1.1.3,1.7.5l1.7.5.3.1a11.63,11.63,0,0,0,1.8.4l1.4.3a20.48,20.48,0,0,0,2.4.5,5.9,5.9,0,0,0,1.4.2l.6.1,1.5.2c.5.1,1.1.1,1.6.2h.4l1.1.1.8.1h1.5a38.54,38.54,0,0,0,4.8-.2c5.7-.7,10.4-3.1,13.5-8a15.05,15.05,0,0,0,1-1.7.37.37,0,0,0,.1-.3c.2-.4.4-.9.6-1.3s.3-.9.5-1.3a1.85,1.85,0,0,0,.2-.7,48.75,48.75,0,0,0,1.2-5.2C272.3,235.2,273.3,237.1,274.1,239Z"
     id="path67" /><path
     class="cls-3"
     d="M274.1,239a48.26,48.26,0,0,0-3-5.5,72.1,72.1,0,0,1,2.8,10.1c6.9,37.1-34.6,34.8-36.8,32.4a.35.35,0,0,0-.1-.2v.2h0a4.33,4.33,0,0,1,.1.5c.5,3.1,1.6,17.4-23.1,22-22.7,2.2-22.9-8.9-22.9-9.1h0l-.2.1c-20.9,18.6-36,2.1-41-4.9-5,7-20.1,23.5-41,4.9l-.2-.1h0c0,.2-.2,11.3-22.9,9.1-24.7-4.5-23.6-18.9-23.1-22a4.33,4.33,0,0,0,.1-.5h0v-.2a.31.31,0,0,1-.1.2c-2.2,2.3-43.7,4.6-36.8-32.4a72.1,72.1,0,0,1,2.8-10.1,58.59,58.59,0,0,0-3,5.5c-6.4,13.7-16,47,35.7,47.7.6,7.8,5.3,17.3,23.2,19.9a42.17,42.17,0,0,0,33.2-7.1c14.1,11.1,27.3,1.2,32-3.2,4.7,4.4,17.9,14.3,32,3.2a42.57,42.57,0,0,0,33.2,7.1c17.9-2.6,22.6-12.1,23.2-19.9C290.1,286,280.5,252.7,274.1,239Z"
     id="path69" /><path
     class="cls-3"
     d="M62.9,276.2V276h0C63,276,62.9,276.1,62.9,276.2Z"
     id="path71" /><path
     class="cls-3"
     d="M62.9,276.2V276h0C63,276,62.9,276.1,62.9,276.2Z"
     id="path73" /><path
     class="cls-4"
     d="M249,252.4h0a219.74,219.74,0,0,1-28.1-1.8c-1.6-.2-3.1-.5-4.6-.7-9.9-1.8-16.2-4.1-22.3-5.9a55.76,55.76,0,0,0-16.2-2.4c-16.1,0-24.6,9.3-27.7,13.7-3.1-4.4-11.6-13.7-27.7-13.7a55.76,55.76,0,0,0-16.2,2.4c-6.1,1.7-12.4,4.1-22.3,5.9-1.4.3-3,.5-4.6.7a220.14,220.14,0,0,1-28.2,1.8h1.3l.8-.1,1.1-.1h.4c.5-.1,1-.1,1.6-.2l1.5-.2.7-.1c.5-.1.9-.1,1.3-.2.8-.2,1.6-.3,2.5-.5l1.5-.3c.6-.1,1.2-.3,1.8-.4l.3-.1,1.7-.5a10.93,10.93,0,0,0,1.7-.5l1.3-.4,6.6-2.1c3.4-1.2,6.8-2.4,10.1-3.7l3.5-1.3,4.1-1.7c1-.4,2-.8,3-1.1,4.6-1.7,8.9-3.2,12.8-4.3a38.5,38.5,0,0,1,6.6-1.3h0c18.4-2.4,29.3,7.9,32.8,12,3.5-4.1,14.4-14.4,32.8-12h0a51.3,51.3,0,0,1,6.6,1.3c3.9,1.1,8.2,2.6,12.8,4.3,1,.3,2,.7,3,1.1l4.2,1.6,3.5,1.3c3.3,1.3,6.7,2.5,10.1,3.7q3.3,1.2,6.6,2.1l1.3.4c.6.2,1.1.3,1.7.5l1.7.5.3.1a11.63,11.63,0,0,0,1.8.4l1.4.3a20.48,20.48,0,0,0,2.4.5,5.9,5.9,0,0,0,1.4.2l.6.1,1.5.2c.5.1,1.1.1,1.6.2h.4l1.1.1.8.1h1.2Z"
     id="path75" /><ellipse
     class="cls-2"
     cx="217.42"
     cy="103.21"
     rx="25.4"
     ry="16.9"
     transform="translate(-22.48 122.54) rotate(-30)"
     id="ellipse85" /><ellipse
     class="cls-2"
     cx="194.2"
     cy="97.5"
     rx="18.6"
     ry="9.9"
     id="ellipse89" /><path
     class="cls-12"
     d="M178.4,92.8a18.9,18.9,0,0,1,5.5-6.1,17.87,17.87,0,0,1,8-3.4,18.48,18.48,0,0,1,4.7,0,13.89,13.89,0,0,1,4.5,1.4,17.31,17.31,0,0,1,6.7,5.9l-4.1,3.6a32.32,32.32,0,0,0-5.4-3.7,14.7,14.7,0,0,0-5.9-1.5,22.4,22.4,0,0,0-6.8,1A63,63,0,0,0,178.4,92.8Z"
     id="path91" /><path
     class="cls-12"
     d="M190.6,114.7a53.43,53.43,0,0,1,5.7-14.5A51.7,51.7,0,0,1,206,87.6a29.81,29.81,0,0,1,6.8-4.8,20.68,20.68,0,0,1,8.4-2.3,15.46,15.46,0,0,1,8.4,2.1,17.56,17.56,0,0,1,5.8,5.7,36.75,36.75,0,0,0-7.1-2.3,15.79,15.79,0,0,0-6.5.2,22.17,22.17,0,0,0-6,2.4,31.68,31.68,0,0,0-5.6,4A99.22,99.22,0,0,0,200.1,103C197,106.7,193.8,110.7,190.6,114.7Z"
     id="path93" /><ellipse
     class="cls-13"
     cx="217.85"
     cy="103"
     rx="13.1"
     ry="7.8"
     transform="translate(-12.99 172.14) rotate(-41.98)"
     id="ellipse113" /><path
     id="path488"
     style="fill:#dbe7f5;fill-opacity:1;stroke:none;stroke-width:7.5;stroke-linejoin:round;paint-order:markers fill stroke;stop-color:#000000"
     class="UnoptimicedTransforms"
     d="M 115.02734 0.048828125 C 96.970981 0.43133046 79.614117 7.4081967 64.666016 17.222656 C 54.02798 -2.2145762 35.159757 18.338167 32.699219 32.599609 L 29.416016 45.654297 C 28.29627 50.106511 25.573782 50.321855 22.109375 47.337891 C 18.913115 44.584885 14.031075 44.74738 11.300781 47.099609 C 6.4871796 51.246672 2.7348368 57.240409 -0.00390625 64.099609 L -0.00390625 120.69336 C 0.51948209 121.49341 1.0678903 122.24048 1.6621094 122.88281 C 13.92679 136.14064 21.316339 142.57598 54.685547 113.78516 C 57.770262 122.00503 100.25534 148.10014 119.72656 117.375 C 123.89579 105.90791 115.30673 93.594136 134.62891 98.962891 C 150.3377 103.32618 177.48981 131.80877 192.97852 136.89844 C 220.58478 145.97 279.25 124.375 279.25 124.375 C 282.49566 106.89856 277.30236 85.352186 259.92383 77.275391 C 244.57977 70.076 226.52273 75.610289 213.30078 84.800781 C 205.76123 75.727112 198.17421 67.612609 184.65039 75.546875 C 179.66845 78.469721 177.5975 77.344307 178.79297 71.683594 C 188.93449 60.821912 189.67495 45.430371 181.39844 32.986328 C 179.30381 29.836971 182.00401 25.163063 180.54883 21.671875 C 177.94245 15.418795 173.44851 8.9995165 167.22461 6.3242188 C 162.44155 4.2682582 156.23261 12.319123 151.32227 9.7011719 C 149.57327 8.7686919 147.43448 6.2700921 145.63086 5.3945312 C 136.44143 0.93355503 125.09971 -0.16728206 115.02734 0.048828125 z " /><ellipse
     style="fill:#dbe7f5;fill-opacity:1;fill-rule:evenodd;stroke-width:1.51092"
     id="ellipse2217"
     cx="225.28934"
     cy="96.120087"
     rx="24.976086"
     ry="25.480652" /><path
     id="path2077"
     style="fill:#dbe7f5;fill-rule:evenodd;stroke-width:1.4867"
     transform="matrix(0.97321093,0.22991407,-0.40473609,0.91443354,0,0)"
     d="m 291.38196,25.933582 c 0,13.755884 -15.18471,18.767162 -28.84744,18.767166 -13.66273,2e-6 -24.73857,-11.151348 -24.73857,-24.907236 0,-13.7558877 2.88092,-18.4325573 16.54366,-18.4325556 13.66273,3.9e-6 37.04235,10.8167416 37.04235,24.5726256 z"
     sodipodi:nodetypes="sssss" /><path
     id="path3765"
     style="fill:#9ec7eb;fill-opacity:1;stroke:none;stroke-width:7.5;stroke-linejoin:round;paint-order:markers fill stroke;stop-color:#000000"
     d="M 125.91602,54.785156 C 106.16176,54.250377 85.124825,65.585239 67.177734,74.642578 52.199175,82.201792 45.373324,106.21377 28.613281,106.98828 16.827404,107.53293 10.651578,88.486864 -0.00390625,85.134766 v 35.558594 c 0.52338782,0.80005 1.07179715,1.54712 1.66601565,2.18945 12.2646686,13.25782 19.6542626,19.69314 53.0234376,-9.09765 3.084712,8.21986 45.569813,34.31495 65.041013,3.58984 4.16923,-11.46708 -4.41981,-23.780859 14.90235,-18.412109 15.70877,4.363289 42.86091,32.845879 58.34961,37.935549 C 220.58475,145.96999 279.25,124.375 279.25,124.375 c 2.22129,-11.96068 0.48269,-25.823779 -6.40234,-35.974609 -36.56587,-11.261629 -28.819,20.612859 -33.99024,18.587889 -51.82299,-20.29303 -48.0655,3.73744 -60.95898,1.24414 -20.92708,-4.04679 -18.49523,-43.831835 -38.56641,-51.005858 -4.3685,-1.56143 -8.85734,-2.317995 -13.41601,-2.441406 z"
     sodipodi:nodetypes="sssccccccsccssss" /><path
     id="path3842"
     style="fill:#9ec7eb;fill-rule:evenodd"
     d="m 127.1126,74.294549 c -1e-5,15.910911 -24.16953,37.605971 -45.303106,37.605971 -21.133577,0 -35.793649,2.83145 -31.668188,-12.535321 C 59.712573,63.713547 92.740892,27.843196 104.68096,46.8048 115.94208,64.688181 127.1126,58.383636 127.1126,74.294549 Z"
     sodipodi:nodetypes="sssss" /><path
     id="path3844"
     style="fill:#9ec7eb;fill-rule:evenodd;stroke-width:0.869042"
     d="M 27.009425,86.934978 C 13.179687,99.530528 4.447181,123.68772 18.510229,135.60173 32.573278,147.51575 40.215072,157.20332 48.940439,147.15486 69.183711,123.84198 72.244922,94.348838 48.77162,81.537563 42.583211,78.160049 31.883144,82.496194 27.009425,86.934978 Z"
     sodipodi:nodetypes="assaa" /><path
     id="path3770"
     style="fill:#9ec7eb;fill-rule:evenodd;stroke-width:0.536568"
     d="m 227.14015,86.979635 c -9.84038,6.748181 -16.05389,19.690635 -6.0475,26.073685 10.00638,6.38305 15.44382,11.57325 21.65225,6.18969 14.40385,-12.49009 16.58202,-28.291324 -0.12012,-35.155094 -4.40329,-1.80954 -12.0168,0.513594 -15.48463,2.891719 z"
     sodipodi:nodetypes="assaa" /><path
     style="color:#000000;fill:#60483e;stroke-linejoin:round;-inkscape-stroke:none;paint-order:markers fill stroke"
     d="m 216.14071,72.245344 c 1.4323,3.388396 1.61642,3.125715 0.13273,6.828875 -0.21628,0.0361 -0.51797,0.0022 -0.72657,0.04492 -3.34876,0.685184 -6.12124,2.876597 -6.80664,5.703125 -0.68539,2.826527 0.35169,5.292893 1.6836,7.232421 1.3319,1.939529 3.07439,3.521528 5.3125,4.416016 1.11905,0.447244 2.42334,0.726527 3.86328,0.480469 1.43993,-0.246058 2.92379,-1.155711 3.83594,-2.40625 1.54115,-2.112895 1.71593,-4.802461 1.41406,-8.074219 4.91859,0.804764 11.97287,2.714857 21.51367,6.294922 -1.52294,3.315147 -2.55307,6.407489 -2.54101,9.205077 0.0166,3.84556 1.80909,7.2102 4.39453,9.39844 5.17088,4.37648 12.67518,5.42434 19.98242,6.64258 l 1.15234,-6.90234 c -7.22382,-1.20434 -13.91382,-2.79534 -16.61328,-5.08008 -1.34973,-1.14237 -1.91142,-2.1146 -1.91992,-4.08789 -0.009,-1.973298 0.85009,-5.101971 3.35742,-9.416021 1.0757,-1.850033 0.25334,-4.223694 -1.73633,-5.011719 -13.39013,-5.309401 -22.35426,-7.762227 -28.96093,-8.449219 1.99696,-3.402009 -2.32448,-10.115395 -7.05488,-11.404209 z m 1.71281,13.703875 c 0.24508,1.881669 0.18522,2.99037 0.0703,3.664062 -0.5417,-0.332819 -1.24642,-0.81181 -1.73242,-1.519531 -0.60129,-0.875595 -0.64363,-1.650949 -0.65039,-1.623047 -0.007,0.0279 -0.34151,-0.137689 1.41015,-0.496094 0.20111,-0.04115 0.65618,0.0024 0.90235,-0.02539 z"
     id="path16440"
     sodipodi:nodetypes="cccsssssccssccsccccccscscsss" /><path
     id="path5285"
     style="fill:#dbe7f5;fill-opacity:1;stroke:none;stroke-width:6.89529;stroke-linejoin:round;paint-order:markers fill stroke;stop-color:#000000"
     d="m 56.400699,118.90472 c -20.724829,0.72157 -39.480796,15.24578 -37.143788,31.83259 1.586598,11.2608 12.039591,18.61169 24.864595,20.77576 a 17.813989,21.847819 89.052411 0 0 19.282327,8.93686 17.813989,21.847819 89.052411 0 0 14.664622,-4.95721 c 8.704541,8.10251 20.950443,16.33118 31.898415,9.30012 7.27878,-4.67459 16.52427,-7.62531 15.52626,-20.79691 -1.8529,-24.45418 -17.76744,-38.92965 -31.527062,-27.63365 -10.273565,8.43411 -19.311505,-15.95219 -31.090385,-17.22408 -2.164936,-0.23377 -4.331037,-0.30813 -6.474984,-0.23348 z" /><path
     id="path5566"
     style="fill:#9ec7eb;fill-opacity:1;stroke:none;stroke-width:8.04652;stroke-linejoin:round;paint-order:markers fill stroke;stop-color:#000000"
     d="m 19.416158,151.56365 c 1.975363,10.7877 12.201112,17.83947 24.705348,19.94942 3.923333,5.63519 11.313081,9.06015 19.282327,8.93686 5.464018,-0.10278 10.696308,-1.87151 14.664622,-4.95721 8.704533,8.10251 20.950457,16.33118 31.898415,9.30012 7.27878,-4.67458 16.52427,-7.62533 15.52626,-20.79691 -0.27735,-3.66037 -0.87686,-7.09083 -1.72993,-10.25109 l -7.96226,4.68142 C 110.7246,146.2973 101.73539,152.31962 65.75476,161.48118 55.684339,148.87514 34.645165,134.58257 19.416158,151.56365 Z"
     sodipodi:nodetypes="ccccsscccc" /><path
     id="path9413"
     style="fill:#dbe7f5;fill-opacity:1;stroke:none;stroke-width:7.5;stroke-linejoin:round;paint-order:markers fill stroke;stop-color:#000000"
     d="M 262.64062 169.0625 L 262.31836 169.10742 C 255.0865 184.97793 258.02764 199.39639 275.63281 211.71875 C 269.66279 231.02731 283.61087 239.26944 300 246.15625 L 300 221.69922 A 54.73 54.73 0 0 0 296.69922 202.90039 A 55.91 55.91 0 0 0 274.69922 174.90039 L 273.90039 174.40039 A 52.3 52.3 0 0 0 262.64062 169.0625 z " /><path
     id="path5843"
     style="fill:#dbe7f5;fill-opacity:1;stroke:none;stroke-width:7.14092;stroke-linejoin:round;paint-order:markers fill stroke;stop-color:#000000"
     d="M 271.97461 119.54102 C 267.93683 119.5001 263.20864 120.34837 258.09766 122.04883 C 256.5055 122.57855 254.87202 123.17743 253.23438 123.83203 C 249.65685 122.45053 245.8017 121.69336 242.04297 121.69336 C 230.7451 121.69336 225.66496 130.61951 220.77734 140.47656 C 213.26142 126.05065 196.54788 133.25682 185.5625 153.53906 C 179.18948 154.93208 173.02344 161.97317 173.02344 171.62891 C 173.02344 182.43723 181.11269 188.95645 187.84375 192.42188 C 190.89026 193.99032 193.67826 194.68753 196.01562 194.51367 C 195.68717 202.36864 202.5217 204.22869 211.43164 200.83984 C 216.10992 199.06048 221.42642 196.21577 224.36133 192.01562 A 20.822133 20.046924 24.300275 0 0 232.1582 197.16797 A 20.822133 20.046924 24.300275 0 0 252.8125 193.68945 C 265.15547 195.39505 277.27889 190.8442 282.86328 179.36523 C 287.68495 169.45412 285.71326 158.03495 279.55859 148.82031 C 280.18092 147.56126 280.80054 146.29276 281.43164 145.02344 C 289.99487 127.8005 284.08792 119.66375 271.97461 119.54102 z " /><path
     id="path6199"
     style="fill:#9ec7eb;fill-opacity:1;stroke:none;stroke-width:7.5;stroke-linejoin:round;paint-order:markers fill stroke;stop-color:#000000"
     d="m 282.64453,142.38867 c -9.85548,5.48664 -7.02424,22.64918 -16.63281,27.16992 -8.66142,4.07512 -18.96845,-5.53019 -28.42774,-4.0625 -10.76967,1.67101 -19.32162,10.26717 -29.44336,14.21485 -24.4559,9.53828 -30.76977,-9.39549 -21.0664,-28.77149 -0.51052,0.85048 -1.02259,1.69654 -1.51172,2.59961 -6.37301,1.39302 -12.53906,8.43412 -12.53906,18.08985 0,10.80831 8.08926,17.32754 14.82031,20.79297 3.04651,1.56843 5.83452,2.26565 8.17187,2.09179 -0.32844,7.85496 6.50609,9.71502 15.41602,6.32617 4.67828,-1.77935 9.99478,-4.62407 12.92969,-8.82422 2.18127,2.26105 4.84751,4.02297 7.79687,5.15235 7.12751,2.62069 15.04293,1.28761 20.6543,-3.47852 12.34296,1.7056 24.4664,-2.84526 30.05078,-14.32422 4.82167,-9.9111 2.84998,-21.33029 -3.30469,-30.54492 0.62233,-1.25905 1.24195,-2.52755 1.87305,-3.79687 0.45153,-0.90816 0.84061,-1.77698 1.21289,-2.63477 z"
     sodipodi:nodetypes="cassccsscscccscsc" /><path
     style="fill:#3cac3c;fill-opacity:1;stroke:none;stroke-width:5.53682;stroke-linejoin:round;paint-order:markers fill stroke;stop-color:#000000"
     d="m 120.75743,135.96859 c 1.09263,-6.67245 10.92428,-10.74107 18.11578,-11.73 7.35408,-1.0113 18.90351,3.31754 20.74115,6.59548 3.76983,7.71328 -3.1041,20.44885 -11.78225,23.75705 -5.29315,2.01781 -10.99258,-2.82568 -15.47996,-5.84966 -4.8569,-3.273 -12.51809,-7.13402 -11.59472,-12.77287 z"
     id="path6280"
     sodipodi:nodetypes="aacaaa" /><path
     style="fill:#dbe7f5;fill-opacity:1;stroke:none;stroke-width:5.45425;stroke-linejoin:round;paint-order:markers fill stroke;stop-color:#000000"
     d="m 120.75517,132.89073 c 1.06029,-6.67245 10.6009,-10.74107 17.57951,-11.73 7.13639,-1.0113 18.34393,3.31754 20.12717,6.59548 3.65824,7.71328 -3.01221,20.44885 -11.43347,23.75705 -5.13646,2.01781 -10.66717,-2.82568 -15.02172,-5.84966 -4.71312,-3.273 -12.14753,-7.13402 -11.25149,-12.77287 z"
     id="path6204"
     sodipodi:nodetypes="aacaaa" /><path
     id="path6275"
     style="fill:#9ec7eb;fill-opacity:1;stroke:none;stroke-width:7.5;stroke-linejoin:round;paint-order:markers fill stroke;stop-color:#000000"
     d="m 121.83984,129.94336 c -0.54145,0.91706 -0.91758,1.9001 -1.08398,2.94726 -0.89604,5.63885 6.53688,9.50045 11.25,12.77344 4.35455,3.02398 9.88698,7.86742 15.02344,5.84961 4.36152,-1.71338 8.24796,-5.95717 10.47851,-10.7207 0,0 -12.30617,-3.4431 -17.55078,-0.83594 -9.64245,4.79339 -18.82507,-8.44061 -18.11719,-10.01367 z"
     sodipodi:nodetypes="cssscsc" /><path
     style="fill:#dbe7f5;fill-opacity:1;stroke:none;stroke-width:4.68547;stroke-linejoin:round;paint-order:markers fill stroke;stop-color:#000000"
     d="m 104.37101,191.17525 c -2.95199,-5.51234 1.37909,-12.2605 5.6439,-15.67514 4.36125,-3.49188 14.47641,-4.44559 17.51495,-2.61503 6.77917,4.51235 6.42834,13.53292 2.42593,18.13455 -5.59693,6.43492 -23.36832,3.88791 -25.58478,0.15562 z"
     id="path8749"
     sodipodi:nodetypes="cacac" /><path
     id="path8816"
     style="fill:#9ec7eb;fill-opacity:1;stroke:none;stroke-width:9.66409;stroke-linejoin:round;paint-order:markers fill stroke;stop-color:#000000"
     d="m 132.8221,182.99283 c -14.29293,10.7792 -22.86021,8.67566 -28.62735,0.27181 -0.99688,2.60369 -1.17559,5.38577 0.17617,7.90995 2.21646,3.73228 19.98773,6.27887 25.58467,-0.15604 1.78976,-2.05772 2.84813,-4.99901 2.86651,-8.02572 z"
     sodipodi:nodetypes="cccsc" /><path
     id="path8890"
     style="fill:#dbe7f5;fill-opacity:1;stroke:none;stroke-width:7.14477;stroke-linejoin:round;paint-order:markers fill stroke;stop-color:#000000"
     d="M 28.974609 180.27539 C 27.318667 180.29255 25.517432 180.71083 23.564453 181.62305 C 2.2790343 191.56515 11.73771 220.39599 18.560547 218.67383 C 9.6439981 220.08024 3.9747003 221.81862 0.40039062 223.85156 L 0.40039062 248.83984 C 5.9550471 249.49866 15.314121 250.29386 24.320312 249.5918 C 27.850988 261.8397 44.616392 271.80803 71.052734 261.4043 C 99.697034 250.13165 89.889384 253.94 101.75391 250 C 113.61842 246.06 130.05729 262.64901 143.85938 258.77148 C 150.03314 257.03704 153.34509 244.44358 157.89453 245.61328 C 162.44398 246.78298 167.96263 260.00178 193.85938 255.26367 C 219.75612 250.52557 207.1298 250.1207 230.70117 262.28125 C 254.27255 274.4418 277.36091 266.88171 276.31641 254.38672 C 281.09074 236.47033 262.07937 219.23883 242.98242 227.19336 C 234.01779 230.60356 231.01682 243.29549 223.68359 242.10547 C 216.35037 240.91545 210.69427 236.03663 200.87695 232.45703 C 191.05963 228.87743 175.60236 221.31303 162.28125 221.92969 C 154.79454 222.27627 152.31767 226.77647 141.22852 229.82422 C 130.13936 232.87197 115.71529 233.39991 102.63086 229.82422 C 85.783746 225.22026 71.751891 231.48817 65.072266 237.57422 C 62.819292 234.07083 58.704115 231.26029 53.857422 229.63281 C 56.227672 223.41745 54.938887 216.52507 42.746094 209.41016 C 46.190779 206.62783 42.591297 181.05555 29.675781 180.29297 C 29.445147 180.27935 29.211173 180.27294 28.974609 180.27539 z " /><path
     id="ellipse9268"
     style="fill:#3cac3c;fill-opacity:1;fill-rule:evenodd;stroke-width:0.752892"
     d="m 16.201172,223.10547 c -7.4959344,1.32804 -12.572322,2.90986 -15.80078138,4.74609 v 24.98828 c 5.55464548,0.65882 14.91375038,1.45402 23.91992138,0.75196 3.53067,12.24786 20.296134,22.21621 46.732422,11.8125 6.992154,-2.75169 7.282151,-2.8385 10.566407,-4.125 3.056521,3.53309 8.598751,5.70011 14.585937,5.70312 4.083522,-0.009 8.025582,-1.02747 11.103512,-2.86914 1.70931,4.52171 6.0332,7.51828 10.86719,7.53125 5.87421,-0.007 10.82468,-4.38543 11.54883,-10.21484 4.82523,1.67566 9.62131,2.6098 14.13477,1.34179 6.17374,-1.73442 9.48573,-14.3279 14.03515,-13.1582 4.54945,1.1697 10.06814,14.3885 35.96485,9.65039 25.89668,-4.73808 13.27048,-5.14295 36.84179,7.01758 23.57134,12.16053 43.99662,-0.06 42.95212,-12.55499 2.31775,-8.69776 4.66347,-10.55175 -1.51861,-16.12345 4.74471,13.14816 -7.41974,29.16857 -36.16984,17.27414 -40.21289,-16.63678 -26.85645,-6.0476 -42.98242,-9.64843 -9.75279,-2.17775 -18.09883,-11.18235 -28.07031,-10.52735 -9.92012,0.65163 -16.46935,12.66809 -26.31641,14.03516 -13.63365,1.89277 -26.64134,-10.01363 -40.349606,-8.77149 -11.356959,1.02908 -20.180177,12.87233 -31.580078,13.15821 -12.112162,0.30374 -23.772488,-6.12689 -34.208985,-12.28125 -6.567645,-3.87293 -11.03977,-11.74963 -16.255859,-17.73633 z"
     sodipodi:nodetypes="ccccscccccssssccsssssssc" /><ellipse
     style="fill:#9ec7eb;fill-opacity:1;fill-rule:evenodd;stroke-width:0.752892"
     id="ellipse9266"
     cx="96.205307"
     cy="251.33218"
     rx="16.977406"
     ry="11.651161" /><ellipse
     style="fill:#9ec7eb;fill-opacity:1;fill-rule:evenodd;stroke-width:0.623708"
     id="path9126"
     cx="118.17606"
     cy="255.99265"
     rx="11.65116"
     ry="11.651161" /><path
     id="path9040"
     style="fill:#9ec7eb;fill-opacity:1;stroke:none;stroke-width:7.5;stroke-linejoin:round;paint-order:markers fill stroke;stop-color:#000000"
     d="m 16.201172,219.10547 c -7.4959418,1.32804 -12.5723188,2.90986 -15.80078138,4.74609 v 24.98828 c 5.55465098,0.65882 14.91374038,1.45402 23.91992138,0.75196 3.530673,12.24788 20.296107,22.21622 46.732422,11.8125 C 99.697006,250.13166 89.889392,253.94 101.75391,250 c 11.86449,-3.94 28.30339,12.64901 42.10547,8.77148 6.17375,-1.73443 9.48572,-14.3279 14.03515,-13.1582 4.54945,1.1697 10.06812,14.3885 35.96485,9.65039 25.89671,-4.73809 13.27045,-5.14296 36.84179,7.01758 23.57136,12.16054 46.65974,4.60045 45.61524,-7.89453 2.31776,-8.69777 -0.99566,-17.20954 -7.17774,-22.78125 4.74471,13.14817 -4.42338,31.16664 -33.17351,19.2722 -40.21293,-16.6368 -26.85676,-6.04831 -42.98274,-9.64915 -9.7528,-2.17775 -18.09882,-11.18235 -28.07031,-10.52735 -9.92013,0.65163 -16.46934,12.66809 -26.31641,14.03516 -13.63367,1.89277 -26.64133,-10.01363 -40.349606,-8.77149 -11.35697,1.02908 -20.180165,12.87233 -31.580078,13.15821 -12.112174,0.30374 -23.772478,-6.12688 -34.208985,-12.28125 -6.567652,-3.87293 -11.039765,-11.74962 -16.255859,-17.73633 z"
     sodipodi:nodetypes="ccccssssssccsssssssc" /><path
     id="path9046"
     style="fill:#9ec7eb;fill-opacity:1;stroke:none;stroke-width:7.5;stroke-linejoin:round;paint-order:markers fill stroke;stop-color:#000000"
     d="m 11.550781,195.16602 c -3.5373735,11.58445 2.345331,24.68516 7.009766,23.50781 -7.067468,1.11475 -12.0346346,2.44574 -15.5957032,3.95898 l 60.5149042,32.29791 c 5.976151,2.3122 -51.479643,-15.2113 -25.190686,-38.2901 -12.464922,-3.35256 -25.900119,-5.66479 -26.738281,-21.4746 z"
     sodipodi:nodetypes="cccccc" /><path
     id="path9418"
     style="fill:#9ec7eb;fill-opacity:1;stroke:none;stroke-width:7.5;stroke-linejoin:round;paint-order:markers fill stroke;stop-color:#000000"
     d="m 258.75586,181.88672 c -0.92849,10.8802 4.12496,20.90654 16.87695,29.83203 -6.18153,19.48481 -1.44161,35.40044 24.36719,34.4375 v -21.89258 c -2.68244,-3.30235 -11.57059,1.99965 -15.17969,-1.58594 -5.04059,-5.00775 1.02339,-14.93401 -2.35351,-21.18554 -4.8741,-9.02325 -23.71094,-19.60547 -23.71094,-19.60547 z"
     sodipodi:nodetypes="ccccaac" /><path
     style="fill:none;fill-opacity:1;stroke:#9ec7eb;stroke-width:6.997;stroke-linejoin:round;stroke-dasharray:none;stroke-opacity:1;paint-order:markers fill stroke;stop-color:#000000"
     d="M 73.256144,73.596762 C 57.459096,49.971672 74.444638,10.803521 103.5999,38.921713 c 14.00415,-16.44694 30.58268,-11.136494 24.35799,18.209245 -3.40483,21.048268 7.24758,22.01478 18.96478,21.460145"
     id="path16551"
     sodipodi:nodetypes="cccc" /><path
     style="fill:none;fill-opacity:1;stroke:#60483e;stroke-width:6.997;stroke-linejoin:round;stroke-dasharray:none;stroke-opacity:1;paint-order:markers fill stroke;stop-color:#000000"
     d="M 73.666525,68.672184 C 57.869477,45.047094 74.855019,5.8789433 104.01028,33.997135 c 14.00415,-16.44694 30.58268,-11.136494 24.35799,18.209245 -3.40483,21.048268 6.42682,18.731728 18.14402,18.177093"
     id="path15902"
     sodipodi:nodetypes="cccc" /><path
     style="fill:none;fill-opacity:1;stroke:#60483e;stroke-width:6.997;stroke-linejoin:round;stroke-dasharray:none;stroke-opacity:1;paint-order:markers fill stroke;stop-color:#000000"
     d="m 179.78295,98.138401 c 0,0 -5.84234,-14.345589 -12.37038,-16.493849 -10.90477,-3.58856 -22.54987,7.009383 -32.9877,9.89631 -23.88661,6.606637 -9.72264,-0.817069 -9.89631,-9.071618 C 124.23855,68.685732 81.311505,80.776247 92.365554,89.066784 84.78607,113.14676 69.864278,103.39761 57.465812,95.838122 49.260293,90.83512 39.563654,113.24343 30.51362,115.45694 l -7.422232,39.58524 c 0,0 18.349557,-5.49772 25.565466,0 41.258988,31.43474 46.198955,-1.98776 42.884007,-31.33831 l 35.461779,21.442 c 0,0 21.83337,-22.02471 34.63708,-18.96793 10.22738,2.4417 18.00059,18.45329 5.51406,25.16633 -48.70165,26.1831 29.81756,30.73868 29.94772,27.614 0,0 -6.24217,-13.77815 -1.64939,-17.31856 15.7737,-12.15935 37.25957,27.1354 56.07909,20.61732 7.93009,-2.74656 13.19507,-21.442 13.19507,-21.442"
     id="path16438"
     sodipodi:nodetypes="casscsccsccsscaac" /><g
     id="g15269"
     transform="rotate(-43.664287,131.95381,462.69545)"><path
       id="path15263"
       style="fill:#3f312b;stroke-width:1.90536;stroke-linejoin:round;paint-order:markers fill stroke;stop-color:#000000"
       d="m 352.96197,154.58156 c 2.98438,-3.70362 14.00522,-3.85433 16.66667,0 2.73708,3.96387 2.10844,12.27976 0,15.54407 -2.52603,3.91084 -14.53473,4.0548 -16.66667,0 -1.92635,-3.66378 -2.95226,-11.88029 0,-15.54407 z"
       sodipodi:nodetypes="sssss" /><path
       id="path15265"
       style="fill:#ff1101;fill-opacity:1;stroke-width:2.08348;stroke-linejoin:round;paint-order:markers fill stroke;stop-color:#000000"
       d="m 372.40983,98.783753 11.84702,28.230907 c 5.72509,14.45612 -6.19343,29.65201 -23.25684,29.65201 -16.9009,-0.2072 -28.47778,-15.40307 -22.59018,-29.65201 l 14.51368,-28.830462 c 4.83539,-9.605177 15.55272,-9.332979 19.48632,0.599555 z"
       sodipodi:nodetypes="ccccsc" /><path
       id="path15267"
       style="fill:#ff545b;fill-opacity:1;stroke-width:1.12703;stroke-linejoin:round;paint-order:markers fill stroke;stop-color:#000000"
       d="m 348.39844,132.17188 c -0.0542,0.53942 -0.0692,1.08886 -0.0488,1.64257 -0.0662,4.88642 2.53892,10.32743 6.79297,13.02344 1.70348,1.07957 3.97948,1.58687 6.20508,1.51563 2.22499,0.0709 4.50012,-0.43636 6.20312,-1.51563 4.2478,-2.69205 6.85125,-8.12109 6.79297,-13.00195 0.0216,-0.561 0.006,-1.11768 -0.0488,-1.66406 -0.64534,-6.42705 -5.72543,-22.41991 -12.94827,-22.41991 -7.22284,0 -12.30293,15.99286 -12.94827,22.41991 z"
       sodipodi:nodetypes="scscscccs" /></g><g
     id="g15277"
     transform="matrix(-0.9522241,-0.30540016,-0.30540016,0.9522241,655.67871,119.16347)"><path
       id="path15271"
       style="fill:#3f312b;stroke-width:1.90536;stroke-linejoin:round;paint-order:markers fill stroke;stop-color:#000000"
       d="m 352.96197,154.58156 c 2.98438,-3.70362 14.00522,-3.85433 16.66667,0 2.73708,3.96387 2.10844,12.27976 0,15.54407 -2.52603,3.91084 -14.53473,4.0548 -16.66667,0 -1.92635,-3.66378 -2.95226,-11.88029 0,-15.54407 z"
       sodipodi:nodetypes="sssss" /><path
       id="path15273"
       style="fill:#ff1101;fill-opacity:1;stroke-width:2.08348;stroke-linejoin:round;paint-order:markers fill stroke;stop-color:#000000"
       d="m 372.40983,98.783753 11.84702,28.230907 c 5.72509,14.45612 -6.19343,29.65201 -23.25684,29.65201 -16.9009,-0.2072 -28.47778,-15.40307 -22.59018,-29.65201 l 14.51368,-28.830462 c 4.83539,-9.605177 15.55272,-9.332979 19.48632,0.599555 z"
       sodipodi:nodetypes="ccccsc" /><path
       id="path15275"
       style="fill:#ff545b;fill-opacity:1;stroke-width:1.12703;stroke-linejoin:round;paint-order:markers fill stroke;stop-color:#000000"
       d="m 348.39844,132.17188 c -0.0542,0.53942 -0.0692,1.08886 -0.0488,1.64257 -0.0662,4.88642 2.53892,10.32743 6.79297,13.02344 1.70348,1.07957 3.97948,1.58687 6.20508,1.51563 2.22499,0.0709 4.50012,-0.43636 6.20312,-1.51563 4.2478,-2.69205 6.85125,-8.12109 6.79297,-13.00195 0.0216,-0.561 0.006,-1.11768 -0.0488,-1.66406 -0.64534,-6.42705 -5.72543,-22.41991 -12.94827,-22.41991 -7.22284,0 -12.30293,15.99286 -12.94827,22.41991 z"
       sodipodi:nodetypes="scscscccs" /></g><g
     id="g14080"
     transform="matrix(-0.98791236,-0.15501346,-0.15501346,0.98791236,406.46497,46.265097)"><path
       id="path14074"
       style="fill:#3f312b;stroke-width:1.90536;stroke-linejoin:round;paint-order:markers fill stroke;stop-color:#000000"
       d="m 352.96197,154.58156 c 2.98438,-3.70362 14.00522,-3.85433 16.66667,0 2.73708,3.96387 2.10844,12.27976 0,15.54407 -2.52603,3.91084 -14.53473,4.0548 -16.66667,0 -1.92635,-3.66378 -2.95226,-11.88029 0,-15.54407 z"
       sodipodi:nodetypes="sssss" /><path
       id="path14076"
       style="fill:#f6ff3f;fill-opacity:1;stroke-width:2.08348;stroke-linejoin:round;paint-order:markers fill stroke;stop-color:#000000"
       d="m 372.40983,98.783753 11.84702,28.230907 c 5.72509,14.45612 -6.19343,29.65201 -23.25684,29.65201 -16.9009,-0.2072 -28.47778,-15.40307 -22.59018,-29.65201 l 14.51368,-28.830462 c 4.83539,-9.605177 15.55272,-9.332979 19.48632,0.599555 z"
       sodipodi:nodetypes="ccccsc" /><path
       id="path14078"
       style="fill:#fff77e;fill-opacity:1;stroke-width:1.12703;stroke-linejoin:round;paint-order:markers fill stroke;stop-color:#000000"
       d="m 348.39844,132.17188 c -0.0542,0.53942 -0.0692,1.08886 -0.0488,1.64257 -0.0662,4.88642 2.53892,10.32743 6.79297,13.02344 1.70348,1.07957 3.97948,1.58687 6.20508,1.51563 2.22499,0.0709 4.50012,-0.43636 6.20312,-1.51563 4.2478,-2.69205 6.85125,-8.12109 6.79297,-13.00195 0.0216,-0.561 0.006,-1.11768 -0.0488,-1.66406 -0.64534,-6.42705 -5.72543,-22.41991 -12.94827,-22.41991 -7.22284,0 -12.30293,15.99286 -12.94827,22.41991 z"
       sodipodi:nodetypes="scscscccs" /></g><g
     id="g14072"
     transform="matrix(-0.89036143,-0.45525434,-0.45525434,0.89036143,542.16617,84.951719)"><path
       id="rect13669"
       style="fill:#3f312b;stroke-width:1.90536;stroke-linejoin:round;paint-order:markers fill stroke;stop-color:#000000"
       d="m 352.96197,154.58156 c 2.98438,-3.70362 14.00522,-3.85433 16.66667,0 2.73708,3.96387 2.10844,12.27976 0,15.54407 -2.52603,3.91084 -14.53473,4.0548 -16.66667,0 -1.92635,-3.66378 -2.95226,-11.88029 0,-15.54407 z"
       sodipodi:nodetypes="sssss" /><path
       id="rect13331"
       style="fill:#0d72f6;fill-opacity:1;stroke-width:2.08348;stroke-linejoin:round;paint-order:markers fill stroke;stop-color:#000000"
       d="m 372.40983,98.783753 11.84702,28.230907 c 5.72509,14.45612 -6.19343,29.65201 -23.25684,29.65201 -16.9009,-0.2072 -28.47778,-15.40307 -22.59018,-29.65201 l 14.51368,-28.830462 c 4.83539,-9.605177 15.55272,-9.332979 19.48632,0.599555 z"
       sodipodi:nodetypes="ccccsc" /><path
       id="path13474"
       style="fill:#5cb4ff;fill-opacity:1;stroke-width:1.12703;stroke-linejoin:round;paint-order:markers fill stroke;stop-color:#000000"
       d="m 348.39844,132.17188 c -0.0542,0.53942 -0.0692,1.08886 -0.0488,1.64257 -0.0662,4.88642 2.53892,10.32743 6.79297,13.02344 1.70348,1.07957 3.97948,1.58687 6.20508,1.51563 2.22499,0.0709 4.50012,-0.43636 6.20312,-1.51563 4.2478,-2.69205 6.85125,-8.12109 6.79297,-13.00195 0.0216,-0.561 0.006,-1.11768 -0.0488,-1.66406 -0.64534,-6.42705 -5.72543,-22.41991 -12.94827,-22.41991 -7.22284,0 -12.30293,15.99286 -12.94827,22.41991 z"
       sodipodi:nodetypes="scscscccs" /></g><g
     id="g15261"
     transform="matrix(-0.22257081,0.97491652,0.97491652,0.22257081,48.105441,-247.03335)"><path
       id="path15255"
       style="fill:#3f312b;stroke-width:1.90536;stroke-linejoin:round;paint-order:markers fill stroke;stop-color:#000000"
       d="m 352.96197,154.58156 c 2.98438,-3.70362 14.00522,-3.85433 16.66667,0 2.73708,3.96387 2.10844,12.27976 0,15.54407 -2.52603,3.91084 -14.53473,4.0548 -16.66667,0 -1.92635,-3.66378 -2.95226,-11.88029 0,-15.54407 z"
       sodipodi:nodetypes="sssss" /><path
       id="path15257"
       style="fill:#0d72f6;fill-opacity:1;stroke-width:2.08348;stroke-linejoin:round;paint-order:markers fill stroke;stop-color:#000000"
       d="m 372.40983,98.783753 11.84702,28.230907 c 5.72509,14.45612 -6.19343,29.65201 -23.25684,29.65201 -16.9009,-0.2072 -28.47778,-15.40307 -22.59018,-29.65201 l 14.51368,-28.830462 c 4.83539,-9.605177 15.55272,-9.332979 19.48632,0.599555 z"
       sodipodi:nodetypes="ccccsc" /><path
       id="path15259"
       style="fill:#5cb4ff;fill-opacity:1;stroke-width:1.12703;stroke-linejoin:round;paint-order:markers fill stroke;stop-color:#000000"
       d="m 348.39844,132.17188 c -0.0542,0.53942 -0.0692,1.08886 -0.0488,1.64257 -0.0662,4.88642 2.53892,10.32743 6.79297,13.02344 1.70348,1.07957 3.97948,1.58687 6.20508,1.51563 2.22499,0.0709 4.50012,-0.43636 6.20312,-1.51563 4.2478,-2.69205 6.85125,-8.12109 6.79297,-13.00195 0.0216,-0.561 0.006,-1.11768 -0.0488,-1.66406 -0.64534,-6.42705 -5.72543,-22.41991 -12.94827,-22.41991 -7.22284,0 -12.30293,15.99286 -12.94827,22.41991 z"
       sodipodi:nodetypes="scscscccs" /></g><g
     id="g15837"
     transform="matrix(0.63648145,-0.77129202,-0.77129202,-0.63648145,75.353862,483.74996)"><path
       id="path15831"
       style="fill:#3f312b;stroke-width:1.90536;stroke-linejoin:round;paint-order:markers fill stroke;stop-color:#000000"
       d="m 352.96197,154.58156 c 2.98438,-3.70362 14.00522,-3.85433 16.66667,0 2.73708,3.96387 2.10844,12.27976 0,15.54407 -2.52603,3.91084 -14.53473,4.0548 -16.66667,0 -1.92635,-3.66378 -2.95226,-11.88029 0,-15.54407 z"
       sodipodi:nodetypes="sssss" /><path
       id="path15833"
       style="fill:#f6ff3f;fill-opacity:1;stroke-width:2.08348;stroke-linejoin:round;paint-order:markers fill stroke;stop-color:#000000"
       d="m 372.40983,98.783753 11.84702,28.230907 c 5.72509,14.45612 -6.19343,29.65201 -23.25684,29.65201 -16.9009,-0.2072 -28.47778,-15.40307 -22.59018,-29.65201 l 14.51368,-28.830462 c 4.83539,-9.605177 15.55272,-9.332979 19.48632,0.599555 z"
       sodipodi:nodetypes="ccccsc" /><path
       id="path15835"
       style="fill:#fff77e;fill-opacity:1;stroke-width:1.12703;stroke-linejoin:round;paint-order:markers fill stroke;stop-color:#000000"
       d="m 348.39844,132.17188 c -0.0542,0.53942 -0.0692,1.08886 -0.0488,1.64257 -0.0662,4.88642 2.53892,10.32743 6.79297,13.02344 1.70348,1.07957 3.97948,1.58687 6.20508,1.51563 2.22499,0.0709 4.50012,-0.43636 6.20312,-1.51563 4.2478,-2.69205 6.85125,-8.12109 6.79297,-13.00195 0.0216,-0.561 0.006,-1.11768 -0.0488,-1.66406 -0.64534,-6.42705 -5.72543,-22.41991 -12.94827,-22.41991 -7.22284,0 -12.30293,15.99286 -12.94827,22.41991 z"
       sodipodi:nodetypes="scscscccs" /></g></svg>
