<?xml version="1.0" encoding="UTF-8" standalone="no"?><!DOCTYPE svg PUBLIC "-//W3C//DTD SVG 1.1//EN" "http://www.w3.org/Graphics/SVG/1.1/DTD/svg11.dtd"><svg width="100%" height="100%" viewBox="0 0 265 180" version="1.1" xmlns="http://www.w3.org/2000/svg" xmlns:xlink="http://www.w3.org/1999/xlink" xml:space="preserve" xmlns:serif="http://www.serif.com/" style="fill-rule:evenodd;clip-rule:evenodd;stroke-linejoin:round;stroke-miterlimit:2;"><g id="Originals"></g><g id="v5"><g id="Social-Studies" serif:id="Social Studies"><path d="M265.046,175.548c0,2.463 -2,4.463 -4.463,4.463l-256.168,0c-2.463,0 -4.463,-2 -4.463,-4.463l-0,-172.086c-0,-1.94 1.575,-3.515 3.515,-3.515l258.063,-0c1.94,-0 3.515,1.575 3.515,3.515l0,172.086l0,-0l0,-0l0.001,-0Z" style="fill:url(#_Radial1);"/><path d="M78.583,-0.054l11.639,0c-0.105,0.109 -0.235,0.195 -0.381,0.249l3.081,2.088c0.322,0.219 0.491,0.603 0.434,0.988c-0.057,0.385 -0.329,0.704 -0.701,0.82l-0.144,0.044l3.399,2.304c0.323,0.218 0.492,0.602 0.435,0.988c-0.057,0.385 -0.33,0.703 -0.702,0.819l-5.761,1.793l1.298,4.171c0.167,0.535 -0.132,1.103 -0.667,1.269l-3.516,1.095c-0.535,0.166 -1.103,-0.133 -1.27,-0.667l-1.298,-4.172l-5.761,1.793c-0.372,0.116 -0.777,0.008 -1.042,-0.277c-0.266,-0.285 -0.345,-0.697 -0.203,-1.06l1.492,-3.826l-0.143,0.045c-0.372,0.116 -0.778,0.008 -1.043,-0.277c-0.266,-0.284 -0.345,-0.696 -0.203,-1.059l1.352,-3.468c-0.357,0.092 -0.739,-0.018 -0.993,-0.291c-0.266,-0.285 -0.344,-0.697 -0.203,-1.059l0.901,-2.31Zm110.071,0l21.546,0c-1.044,4.82 -3.007,11.093 -6.561,14.951c-4.143,4.497 -8.021,6.112 -11.267,6c-1.849,-0.064 -3.54,-0.673 -5.03,-1.714c-0.886,1.414 -1.517,2.96 -1.821,4.517c-0.181,0.925 -1.078,1.529 -2.003,1.349c-0.924,-0.181 -1.528,-1.078 -1.348,-2.003c0.425,-2.174 1.356,-4.332 2.673,-6.263c2.311,-3.897 5.11,-6.642 8.095,-8.944c-3.368,2.163 -6.372,4.662 -8.997,7.509c-0.485,-0.948 -0.804,-1.977 -0.933,-3.078c-0.377,-3.225 0.915,-7.222 5.059,-11.72c0.188,-0.205 0.385,-0.406 0.587,-0.604l0,0Zm14.922,180.064l-13.298,0c-1.265,-4.783 -0.386,-10.729 -0.386,-10.729c0.051,-0.334 0.253,-0.626 0.547,-0.792c0.294,-0.166 0.648,-0.189 0.961,-0.06c-0,-0 8.042,3.359 10.771,8.19c0.698,1.235 1.151,2.365 1.405,3.391Zm-137.927,0l-5.89,0l-5.157,-1.604l-0.499,1.604l-9.364,0l1.326,-4.261l-9.02,-2.806c-0.582,-0.181 -1.009,-0.68 -1.098,-1.283c-0.09,-0.604 0.175,-1.205 0.679,-1.547l5.323,-3.606l-0.225,-0.071c-0.582,-0.181 -1.009,-0.679 -1.098,-1.283c-0.09,-0.603 0.174,-1.204 0.679,-1.546l4.825,-3.269c-0.543,-0.2 -0.937,-0.681 -1.023,-1.258c-0.089,-0.603 0.175,-1.204 0.68,-1.546l11.821,-8.01c0.399,-0.271 0.901,-0.345 1.362,-0.202c0.461,0.144 0.831,0.489 1.007,0.939l5.189,13.303c0.222,0.568 0.098,1.213 -0.318,1.659c-0.397,0.426 -0.995,0.599 -1.555,0.455l2.118,5.429c0.221,0.568 0.098,1.213 -0.318,1.66c-0.416,0.446 -1.05,0.614 -1.633,0.433l-0.225,-0.07l2.337,5.99c0.113,0.289 0.136,0.598 0.077,0.89Zm-65.699,-159.763c6.28,-5.882 14.251,-10.106 23.326,-11.811c25.404,-4.775 49.905,11.974 54.68,37.378c4.774,25.404 -11.974,49.905 -37.378,54.679c-15.214,2.86 -30.104,-2.001 -40.628,-11.816l0,-6.452c9.545,10.966 24.49,16.733 39.798,13.856c1.946,-0.366 3.836,-0.86 5.662,-1.471c0.14,-0.963 0.264,-2.891 0.544,-3.811c0.762,-2.499 2.248,-5.802 1.045,-8.297c-0.586,-1.215 -2.043,-0.909 -3.111,-1.349c-1.606,-0.661 -3.117,-1.541 -4.754,-2.13c-1.356,-0.487 -3.056,-0.99 -3.906,-2.253c-0.787,-1.169 -1.23,-3.125 -0.726,-4.45c0.516,-1.356 2.07,-2.6 2.183,-4.077c0.047,-0.615 -0.355,-1.442 -0.608,-1.981c-0.616,-1.316 -2.281,-1.517 -3.463,-0.94c-0.418,0.204 -0.76,0.612 -1.181,0.785c-0.294,0.121 -1.08,-0.11 -1.384,-0.192c-1.677,-0.455 -2.67,-1.605 -4.124,-2.404c-1.133,-0.624 -2.422,-0.538 -3.628,-0.917c-0.735,-0.231 -1.284,-0.865 -2.049,-1.038c-0.964,-0.219 -1.454,0.774 -2.306,0.885c-0.332,0.043 -0.676,-0.1 -1.012,-0.101c-0.721,-0.002 -1.46,0.119 -2.175,-0.023c-1.287,-0.255 -2.842,-1.339 -3.707,-2.283c-0.481,-0.525 -0.44,-1.139 -0.651,-1.786c-0.194,-0.593 -0.53,-1.045 -0.956,-1.494c-0.952,-1.003 -2.004,-1.92 -2.928,-2.947c-0.523,-0.58 -0.921,-1.284 -1.484,-1.825c-0.878,-0.844 -2.122,-1.268 -2.944,-2.161c-0.778,-0.844 -1.219,-2.682 -1.386,-3.753c-0.42,-2.684 1.012,-5.301 1.161,-7.928c0.071,-1.252 -0.92,-2.073 -1.015,-3.289c-0.085,-1.092 0.067,-2.178 -0.16,-3.269c-0.066,-0.319 -0.219,-0.945 -0.545,-1.129c-0.035,-0.019 -0.103,-0.009 -0.19,0.019l0,-10.225l0,0Zm0,109.474c0.297,-0.092 0.597,-0.176 0.903,-0.251c8.486,-2.099 17.079,3.087 19.177,11.573c0.764,3.089 0.562,6.193 -0.411,8.992c-1.819,5.228 -7.104,16.519 -7.104,16.519c-0.399,0.85 -1.16,1.475 -2.072,1.701c-0.912,0.226 -1.877,0.027 -2.626,-0.54c0,0 -3.939,-2.983 -7.867,-6.136l0,-8.085c2.103,1.055 4.577,1.395 7.038,0.787c5.48,-1.356 8.829,-6.905 7.474,-12.385c-1.356,-5.48 -6.905,-8.828 -12.385,-7.473c-0.751,0.185 -1.462,0.45 -2.127,0.782l0,-5.484l0,-0Zm265.096,11.104c-2.267,3.883 -5.278,7.186 -8.785,9.777l-0.818,-3.376c3.428,-2.783 6.262,-6.356 8.189,-10.549l1.414,0.054l-0,4.094Zm-0,-5.364l-21.132,-0.812l-0.775,-0.029c-0.468,-0.005 -0.869,0.149 -1.14,0.606l-14.575,23.894c-0.263,0.432 -0.785,0.631 -1.268,0.485c-0.484,-0.146 -0.808,-0.601 -0.789,-1.106l1.045,-27.184l0.029,-0.775c0.037,-0.946 -0.606,-1.14 -0.606,-1.14l-23.894,-14.575c-0.431,-0.263 -0.631,-0.784 -0.484,-1.268c0.146,-0.484 0.6,-0.808 1.105,-0.788l27.184,1.044l0.775,0.03c0.524,-0.066 0.887,-0.284 1.14,-0.607l14.575,-23.893c0.263,-0.432 0.784,-0.631 1.268,-0.485c0.484,0.146 0.808,0.6 0.789,1.105l-1.045,27.185l-0.03,0.774c-0.026,0.697 0.392,1.032 0.667,1.177c-0.004,-0.002 10.109,6.166 17.161,10.468l-0,5.894l-0,0Zm-0,-19.781c-0.024,-0.078 -0.048,-0.156 -0.073,-0.234l0.073,-0.067l-0,0.301Zm-0,-2.03l-9.395,8.7l-7.165,-4.371l0.322,-8.387l16.238,-3.933l-0,7.991Zm-0,-90.399c-1.469,0.558 -2.647,0.982 -2.647,0.982c-0.388,0.14 -0.819,0.097 -1.171,-0.117c-0.353,-0.214 -0.59,-0.576 -0.646,-0.985c-0,0 -0.738,-5.424 -0.816,-7.853c-0.042,-1.301 0.279,-2.628 1.004,-3.823c0.992,-1.636 2.553,-2.718 4.276,-3.145l-0,2.439c-0.826,0.358 -1.552,0.965 -2.053,1.792c-1.286,2.12 -0.608,4.884 1.512,6.169c0.176,0.107 0.357,0.2 0.541,0.28l-0,4.261Zm-0,-5.954c-1.198,-0.885 -1.544,-2.556 -0.757,-3.854c0.202,-0.333 0.461,-0.612 0.757,-0.831l-0,4.685Zm-265.096,122.524c0.818,-0.8 1.853,-1.399 3.043,-1.694c3.558,-0.879 7.16,1.295 8.039,4.852c0.88,3.557 -1.294,7.159 -4.851,8.038c-2.311,0.572 -4.641,-0.146 -6.231,-1.693l0,-9.503Zm229.727,10.859c0.247,-0.1 0.463,-0.277 0.61,-0.517l10.543,-17.285c0.21,-0.343 0.589,-0.546 0.991,-0.531l20.231,0.778c0.281,0.01 0.548,-0.072 0.768,-0.223l-17.652,-5.326c-1.612,4.032 -5.913,6.339 -10.164,5.452l-5.327,17.652l-0,-0Zm14.305,-52.897c-0.247,0.099 -0.463,0.276 -0.61,0.516l-10.543,17.285c-0.21,0.343 -0.589,0.546 -0.99,0.531l-20.232,-0.777c-0.281,-0.011 -0.548,0.071 -0.768,0.222l17.652,5.327c1.612,-4.033 5.913,-6.34 10.165,-5.453l5.326,-17.651l0,-0Zm-33.601,19.295c0.099,0.247 0.277,0.464 0.517,0.61l17.284,10.544c0.344,0.209 0.547,0.588 0.531,0.99l-0.777,20.232c-0.011,0.281 0.071,0.548 0.223,0.768l5.326,-17.652c-4.032,-1.613 -6.339,-5.914 -5.452,-10.165l-17.652,-5.327l0,0Zm28.128,1.588c-3.071,-0.926 -6.317,0.815 -7.244,3.886c-0.927,3.071 0.814,6.317 3.886,7.244c3.071,0.926 6.316,-0.815 7.243,-3.886c0.927,-3.071 -0.814,-6.317 -3.885,-7.244Zm-0.818,2.711c1.575,0.475 2.468,2.14 1.992,3.715c-0.475,1.575 -2.14,2.468 -3.714,1.993c-1.576,-0.475 -2.469,-2.14 -1.993,-3.715c0.475,-1.575 2.14,-2.468 3.715,-1.993Zm25.587,10.007c-0.099,-0.247 -0.277,-0.464 -0.516,-0.61l-17.285,-10.544c-0.344,-0.209 -0.547,-0.588 -0.531,-0.99l0.777,-20.232c0.011,-0.281 -0.071,-0.548 -0.222,-0.767l-5.327,17.651c4.032,1.613 6.34,5.914 5.452,10.165l17.652,5.327l0,-0Zm-214.058,-38.258c17.484,-7.809 28.015,-26.848 24.324,-46.483c-0.169,-0.904 -0.367,-1.795 -0.591,-2.674c-0.054,-0.023 -0.093,-0.041 -0.109,-0.051c-0.455,-0.277 -0.769,-0.722 -1.223,-1.008c-0.764,-0.483 -1.623,-0.778 -2.36,-1.315c-0.915,-0.666 -1.333,-2.362 -1.904,-3.302c-0.812,-1.334 -2.043,-2.369 -2.836,-3.697c-0.338,-0.567 -0.375,-1.278 -0.608,-1.89c-0.36,-0.943 -0.915,-1.799 -1.472,-2.635c-1.13,-1.692 -2.929,-3.487 -3.579,-5.443c-0.145,-0.436 0.111,-0.651 0.167,-1.069c0.066,-0.489 -0.104,-1.262 -0.34,-1.686c-0.044,-0.079 -0.135,-0.256 -0.237,-0.409c-0.11,-0.088 -0.22,-0.175 -0.33,-0.262c-0.469,0.052 0.12,1.629 0.003,1.926c-0.058,0.145 -0.747,0.513 -0.896,0.393c-1.139,-0.914 -2.754,-2.105 -3.579,-3.274c-0.346,-0.489 0.178,-1.021 -0.327,-1.484c-1.018,-0.932 -2.659,-0.189 -3.716,-0.935c-0.368,-0.26 -0.674,-0.928 -1.006,-1.262c-0.604,-0.608 -1.207,-1.201 -1.839,-1.763c-6.998,-2.628 -14.779,-3.436 -22.656,-1.955c-7.156,1.345 -13.553,4.421 -18.838,8.714c0.765,0.845 1.618,1.844 2.862,1.735c0.872,-0.077 1.721,-0.451 2.586,-0.588c1.037,-0.165 2.099,-0.19 3.131,-0.386c0.795,-0.151 1.542,-0.706 2.355,-0.733c0.61,-0.02 1.424,0.35 1.946,0.636c0.518,0.283 1.658,1.043 1.919,1.57c0.04,0.08 -0.271,0.274 -0.329,0.284c-0.475,0.076 -1.037,0.096 -1.451,0.37c-0.284,0.188 -0.412,0.594 -0.65,0.838c-0.718,0.733 -2.371,1.901 -2.16,3.091c0.137,0.771 0.793,0.877 1.47,1.061c1.188,0.323 4.012,1.814 4.981,0.409c0.904,-1.312 0.529,-2.569 0.335,-4.007c-0.055,-0.404 -0.18,-1.507 0.29,-1.757c0.244,-0.13 0.826,-0.106 1.111,-0.17c1.293,-0.291 2.77,-0.559 4.075,-0.182c0.955,0.276 1.82,0.859 2.812,1.026c1.594,0.268 3.199,-0.046 4.262,1.436c0.329,0.459 0.376,0.944 0.423,1.494c0.06,0.705 0.201,1.729 -0.201,2.367c-0.32,0.507 -0.987,0.536 -1.459,0.877c-0.777,0.561 -1.541,1.374 -2.158,2.103c-0.407,0.481 -0.807,1.02 -0.987,1.632c-0.122,0.416 -0.059,0.878 -0.259,1.272c-0.19,0.377 -0.841,0.568 -1.105,0.957c-0.5,0.737 -0.712,1.799 -0.99,2.643c-0.185,0.559 -0.161,1.062 0.037,1.603c0.112,0.304 0.429,0.86 0.282,1.178c-0.483,1.043 -1.311,2.027 -1.917,3.016c-0.201,0.327 -0.588,0.915 -0.5,1.322c0.301,1.392 2.037,1.94 2.514,3.258c0.141,0.391 0.438,1.214 0.03,1.545c-0.271,0.221 -1.705,-0.468 -2,-0.665c-0.459,-0.307 -0.578,-0.899 -0.889,-1.333c-0.577,-0.806 -2.172,-2.192 -3.201,-2.201c-0.701,-0.006 -1.64,1.065 -2.204,1.39c-2.095,1.205 -6.038,3.262 -4.943,6.36c0.168,0.476 0.366,0.947 0.639,1.373c0.561,0.876 1.996,1.608 3.041,1.125c1.766,-0.816 2.884,-2.701 5.108,-1.527c0.268,0.141 0.098,0.793 0.082,1.035c-0.051,0.823 -0.097,1.656 0.386,2.357c1.002,1.454 2.632,0.458 3.972,1.323c0.296,0.19 0.388,1.069 0.53,1.39c0.422,0.956 1.346,1.617 2.396,1.737c0.396,0.045 0.684,-0.269 1.011,-0.437c0.535,-0.277 1.252,-0.547 1.863,-0.55c0.918,-0.004 0.792,0.173 1.704,0.204c0.744,0.026 0.607,-1.345 1.033,-1.946c1.033,-1.457 2.48,-1.501 3.442,-1.716c1.218,-0.271 2.049,0.403 3.274,0.219c0.762,-0.114 1.502,-1.273 2.163,-1.413c0.428,-0.09 2.147,-0.126 3.389,0.618c1.075,0.645 3.032,0.123 4.477,0.094c2.175,-0.045 3.232,3.083 5.389,3.396c0.502,0.072 1.22,-0.604 1.677,-0.787c1.291,-0.517 2.659,-0.869 4.035,-1.07c0.428,-0.063 1.654,-0.254 1.962,0.183c0.241,0.343 0.246,0.936 0.287,1.339c0.212,2.079 -0.83,3.308 -1.401,5.228c-0.631,2.118 -0.241,4.308 -1.259,6.385c-0.654,1.336 -2.3,1.87 -3.193,3.007c-0.354,0.451 -0.446,1.061 -0.714,1.563c-0.75,1.404 -1.461,2.825 -2.205,4.231c-0.498,0.941 -0.94,2.026 -1.665,2.814c-0.432,0.47 -1.008,0.723 -1.508,1.103c-1.399,1.065 -2.97,2.103 -4.173,3.395c-0.877,0.942 -1.146,2.344 -1.808,3.44l-0,0Zm-27.83,-77.62c0.449,-0.558 0.683,-1.133 1.349,-1.434c0.695,-0.313 1.553,-0.366 2.294,-0.521c0.778,-0.162 1.661,-0.357 2.453,-0.254c0.735,0.096 1.409,0.526 2.136,0.689c0.855,0.191 2.349,0.08 2.94,0.838c0.295,0.379 0.131,0.649 0.075,1.074c-0.056,0.425 -0.063,0.866 -0.014,1.291c0.122,1.07 1.185,1.919 1.815,2.707c0.181,0.228 0.388,0.499 0.441,0.794c0.008,0.041 0.045,0.238 0.003,0.266c-0.156,0.103 -0.579,0.053 -0.76,0.058c-0.972,0.03 -1.712,-0.18 -2.612,-0.53c-1.194,-0.464 -2.513,-0.623 -3.663,-1.204c-1.124,-0.568 -2.196,-1.658 -3.405,-2.016c-1.181,-0.35 -2.628,0.7 -3.669,-0.168c-0.366,-0.307 0.206,-0.974 0.366,-1.227c0.127,-0.2 0.119,-0.183 0.251,-0.363Zm122.042,90.118c-0.023,1.11 -0.942,1.993 -2.052,1.971c-1.11,-0.023 -1.993,-0.942 -1.971,-2.052l0.09,-4.466c0.023,-1.11 0.942,-1.993 2.052,-1.971c1.11,0.023 1.993,0.942 1.971,2.052l-0.09,4.466Zm81.42,33.246l-19.044,4.613c-1.052,0.255 -2.144,-0.233 -2.656,-1.188c-0.512,-0.954 -0.315,-2.133 0.48,-2.869l14.377,-13.314l7.165,4.371l-0.322,8.387l0,-0Zm-81.15,-46.643c-0.022,1.11 -0.942,1.993 -2.052,1.971c-1.11,-0.023 -1.993,-0.942 -1.971,-2.052l0.09,-4.466c0.023,-1.11 0.942,-1.993 2.053,-1.971c1.11,0.023 1.993,0.942 1.97,2.052l-0.09,4.466Zm1.082,-53.588c-0.023,1.11 -0.942,1.993 -2.052,1.971c-1.111,-0.022 -1.994,-0.942 -1.971,-2.052l0.09,-4.466c0.022,-1.11 0.942,-1.993 2.052,-1.971c1.11,0.023 1.993,0.942 1.971,2.052l-0.09,4.466Zm77.407,73.614l-4.613,-19.044c-0.255,-1.053 0.233,-2.144 1.187,-2.656c0.954,-0.512 2.134,-0.315 2.87,0.48l13.313,14.377l-4.37,7.165l-8.387,-0.322l0,-0Zm-14.574,7.521c-0.714,4.559 -0.329,9.103 0.987,13.318l-2.549,2.36c-1.979,-5.447 -2.53,-11.457 -1.344,-17.451l2.906,1.773l0,-0Zm-63.374,-54.341c-0.023,1.11 -0.942,1.993 -2.052,1.971c-1.111,-0.022 -1.994,-0.942 -1.971,-2.052l0.09,-4.466c0.022,-1.11 0.942,-1.993 2.052,-1.971c1.11,0.023 1.993,0.943 1.971,2.053l-0.09,4.465Zm8.627,-37.602c-1.068,-0.303 -1.69,-1.416 -1.387,-2.485c0.302,-1.068 1.415,-1.69 2.484,-1.387l4.132,1.17c1.069,0.303 1.69,1.416 1.388,2.484c-0.303,1.069 -1.416,1.69 -2.484,1.388l-4.133,-1.17Zm-9.709,91.191c-0.022,1.11 -0.942,1.993 -2.052,1.97c-1.11,-0.022 -1.993,-0.941 -1.971,-2.052l0.091,-4.465c0.022,-1.111 0.941,-1.994 2.052,-1.971c1.11,0.022 1.993,0.942 1.97,2.052l-0.09,4.466Zm22.107,-87.68c-1.068,-0.303 -1.69,-1.416 -1.388,-2.484c0.303,-1.069 1.416,-1.69 2.484,-1.388l4.133,1.171c1.068,0.302 1.69,1.415 1.388,2.484c-0.303,1.068 -1.416,1.69 -2.485,1.387l-4.132,-1.17Zm-20.755,20.694c-0.022,1.111 -0.942,1.994 -2.052,1.971c-1.11,-0.022 -1.993,-0.942 -1.971,-2.052l0.09,-4.465c0.022,-1.11 0.942,-1.994 2.052,-1.971c1.11,0.022 1.994,0.942 1.971,2.052l-0.09,4.465Zm33.153,-17.183c-1.069,-0.302 -1.69,-1.415 -1.388,-2.484c0.303,-1.068 1.416,-1.69 2.484,-1.387l4.133,1.17c1.068,0.303 1.69,1.416 1.387,2.484c-0.302,1.068 -1.415,1.69 -2.484,1.387l-4.132,-1.17Zm-32.644,-9.291c-0.173,0.955 -1.019,1.671 -2.02,1.651c-1.11,-0.022 -1.994,-0.942 -1.971,-2.052l0.045,-2.233c0.013,-0.623 0.313,-1.205 0.814,-1.576c0.501,-0.371 1.146,-0.489 1.746,-0.319l2.066,0.585c1.068,0.303 1.69,1.416 1.387,2.484c-0.263,0.93 -1.14,1.521 -2.067,1.46Zm45.042,12.802c-1.069,-0.302 -1.691,-1.415 -1.388,-2.484c0.303,-1.068 1.416,-1.69 2.484,-1.387l4.133,1.17c1.068,0.303 1.69,1.416 1.387,2.484c-0.303,1.069 -1.416,1.691 -2.484,1.388l-4.132,-1.171Zm12.397,3.512c-1.068,-0.303 -1.69,-1.416 -1.388,-2.484c0.303,-1.069 1.416,-1.691 2.485,-1.388l4.132,1.171c1.068,0.302 1.69,1.415 1.388,2.484c-0.303,1.068 -1.416,1.69 -2.485,1.387l-4.132,-1.17Zm-58.489,36.955c-0.022,1.11 -0.942,1.993 -2.052,1.97c-1.11,-0.022 -1.993,-0.941 -1.971,-2.052l0.09,-4.465c0.023,-1.11 0.942,-1.993 2.052,-1.971c1.111,0.022 1.994,0.942 1.971,2.052l-0.09,4.466Zm105.43,15.301c5.59,2.326 10.246,6.081 13.666,10.701l-3.378,0.818c-2.756,-3.387 -6.283,-6.192 -10.419,-8.112l0.131,-3.407Zm-25.152,60.389c-5.664,-2.347 -10.372,-6.161 -13.81,-10.854l3.37,-0.817c2.781,3.459 6.362,6.32 10.571,8.266l-0.131,3.405Zm-17.605,-42.865c2.346,-5.605 6.13,-10.268 10.782,-13.682l0.816,3.372c-3.416,2.754 -6.248,6.289 -8.188,10.441l-3.41,-0.131Zm41.268,-33.017l-1.763,5.842c-0.11,0.364 -0.286,0.617 -0.528,0.76c-0.241,0.142 -0.544,0.158 -0.909,0.048c-0.354,-0.106 -0.595,-0.287 -0.723,-0.541c-0.128,-0.253 -0.136,-0.563 -0.026,-0.927l2.611,-8.653c0.116,-0.385 0.298,-0.65 0.546,-0.796c0.249,-0.146 0.53,-0.172 0.844,-0.077c0.273,0.082 0.467,0.199 0.582,0.35c0.114,0.15 0.231,0.376 0.35,0.677l3.029,7.748l1.757,-5.824c0.107,-0.354 0.284,-0.602 0.531,-0.742c0.246,-0.141 0.547,-0.158 0.901,-0.051c0.354,0.106 0.595,0.287 0.723,0.541c0.128,0.254 0.138,0.558 0.031,0.912l-2.643,8.76c-0.101,0.334 -0.267,0.573 -0.499,0.719c-0.231,0.145 -0.494,0.174 -0.788,0.085c-0.283,-0.086 -0.491,-0.209 -0.625,-0.371c-0.133,-0.162 -0.259,-0.393 -0.378,-0.694l-3.023,-7.766Zm-56.118,29.82l-4.143,5.611c-0.216,0.277 -0.442,0.466 -0.676,0.566c-0.235,0.1 -0.514,0.102 -0.838,0.004c-0.324,-0.098 -0.563,-0.256 -0.718,-0.474c-0.155,-0.218 -0.245,-0.507 -0.269,-0.867l-0.464,-9.549c-0.016,-0.424 0.111,-0.744 0.381,-0.961c0.27,-0.217 0.638,-0.255 1.103,-0.115c0.324,0.098 0.552,0.25 0.683,0.455c0.131,0.205 0.204,0.486 0.217,0.844l0.223,7.17l4.266,-5.799c0.219,-0.287 0.441,-0.483 0.666,-0.586c0.224,-0.103 0.483,-0.111 0.777,-0.022c0.283,0.085 0.487,0.233 0.612,0.441c0.125,0.209 0.197,0.499 0.218,0.87l0.249,7.275l4.269,-5.945c0.196,-0.283 0.409,-0.476 0.638,-0.578c0.23,-0.102 0.501,-0.105 0.815,-0.011c0.395,0.119 0.642,0.343 0.742,0.671c0.099,0.328 0.02,0.664 -0.237,1.005l-5.704,7.704c-0.206,0.28 -0.429,0.47 -0.668,0.569c-0.24,0.098 -0.527,0.097 -0.861,-0.003c-0.324,-0.098 -0.558,-0.255 -0.703,-0.469c-0.145,-0.215 -0.23,-0.503 -0.253,-0.863l-0.325,-6.943Zm59.673,27.75l4.614,19.045c0.255,1.052 -0.234,2.144 -1.188,2.656c-0.954,0.512 -2.134,0.314 -2.87,-0.48l-13.313,-14.378l4.37,-7.165l8.387,0.322l0,0Zm-19.139,17.306c4.583,0.707 9.149,0.304 13.379,-1.039l2.356,2.544c-5.46,2.009 -11.492,2.581 -17.509,1.404l1.774,-2.909l-0,-0Zm-89.438,-21.096c-0.023,1.11 -0.942,1.993 -2.053,1.971c-1.11,-0.023 -1.993,-0.942 -1.97,-2.053l0.09,-4.465c0.022,-1.11 0.942,-1.994 2.052,-1.971c1.11,0.022 1.993,0.942 1.971,2.052l-0.09,4.466Zm98.339,-37.307c-4.509,-0.687 -8.998,-0.302 -13.168,0.995l-2.361,-2.55c5.404,-1.957 11.36,-2.509 17.304,-1.355l-1.775,2.91Zm-98.565,48.471c-0.022,1.11 -0.942,1.993 -2.052,1.971c-1.11,-0.023 -1.993,-0.942 -1.971,-2.052l0.045,-2.233c0.022,-1.11 0.942,-1.993 2.052,-1.971c1.11,0.022 1.993,0.942 1.971,2.052l-0.045,2.233Zm79.345,29.894c-0.425,-0.128 -0.848,-0.292 -1.268,-0.49c-0.42,-0.199 -0.812,-0.419 -1.176,-0.661c-0.363,-0.242 -0.673,-0.502 -0.932,-0.779c-0.186,-0.188 -0.295,-0.395 -0.327,-0.62c-0.031,-0.225 -0.004,-0.435 0.083,-0.629c0.086,-0.195 0.216,-0.352 0.39,-0.471c0.174,-0.118 0.366,-0.17 0.577,-0.157c0.212,0.014 0.42,0.119 0.626,0.314c0.345,0.357 0.746,0.666 1.204,0.926c0.457,0.259 0.928,0.462 1.414,0.609c0.739,0.223 1.299,0.268 1.682,0.135c0.382,-0.133 0.626,-0.372 0.73,-0.716c0.088,-0.294 0.047,-0.56 -0.124,-0.799c-0.171,-0.24 -0.516,-0.504 -1.036,-0.793l-1.605,-0.882c-0.911,-0.496 -1.527,-1.06 -1.85,-1.693c-0.323,-0.633 -0.363,-1.349 -0.122,-2.149c0.153,-0.506 0.398,-0.934 0.736,-1.285c0.338,-0.351 0.745,-0.62 1.221,-0.807c0.476,-0.188 1.004,-0.283 1.584,-0.284c0.581,-0.002 1.19,0.093 1.827,0.286c0.567,0.171 1.103,0.407 1.608,0.709c0.506,0.301 0.926,0.646 1.262,1.035c0.165,0.182 0.258,0.379 0.277,0.589c0.02,0.21 -0.011,0.405 -0.093,0.584c-0.082,0.18 -0.208,0.321 -0.377,0.425c-0.169,0.103 -0.356,0.146 -0.56,0.129c-0.205,-0.018 -0.424,-0.133 -0.657,-0.348c-0.283,-0.272 -0.599,-0.506 -0.949,-0.7c-0.35,-0.194 -0.722,-0.35 -1.117,-0.469c-0.425,-0.128 -0.804,-0.182 -1.136,-0.161c-0.332,0.021 -0.607,0.11 -0.825,0.265c-0.218,0.155 -0.367,0.364 -0.446,0.627c-0.089,0.293 -0.054,0.564 0.103,0.81c0.158,0.246 0.483,0.504 0.976,0.774l1.606,0.882c0.927,0.512 1.563,1.077 1.907,1.694c0.344,0.617 0.399,1.31 0.167,2.08c-0.153,0.506 -0.392,0.933 -0.718,1.282c-0.326,0.349 -0.726,0.612 -1.199,0.789c-0.473,0.178 -1.002,0.264 -1.585,0.259c-0.584,-0.005 -1.21,-0.108 -1.878,-0.31Zm-110.362,-18.777c-1.045,-0.374 -1.59,-1.527 -1.215,-2.572c0.374,-1.046 1.527,-1.59 2.572,-1.216l3.857,1.382c1.045,0.374 1.59,1.527 1.215,2.572c-0.374,1.045 -1.527,1.59 -2.572,1.216l-3.857,-1.382Zm-55.922,-20.03c-1.045,-0.375 -1.59,-1.527 -1.216,-2.573c0.375,-1.045 1.528,-1.59 2.573,-1.215l1.928,0.69c1.046,0.375 1.59,1.528 1.216,2.573c-0.375,1.045 -1.527,1.59 -2.573,1.215l-1.928,-0.69Zm91.65,-115.028l-6.498,-0.704l-2.678,5.963c-0.129,0.289 -0.43,0.461 -0.744,0.427c-0.315,-0.034 -0.572,-0.266 -0.637,-0.576l-1.339,-6.398l-6.499,-0.704c-0.315,-0.034 -0.571,-0.267 -0.636,-0.576c-0.065,-0.31 0.077,-0.627 0.351,-0.784l5.671,-3.251l-1.339,-6.398c-0.065,-0.309 0.077,-0.626 0.352,-0.783c0.275,-0.158 0.619,-0.12 0.854,0.092l4.844,4.389l5.671,-3.251c0.275,-0.157 0.619,-0.12 0.854,0.093c0.234,0.212 0.305,0.552 0.176,0.841l-2.677,5.963l4.844,4.389c0.234,0.212 0.305,0.552 0.176,0.84c-0.13,0.289 -0.431,0.462 -0.746,0.428Zm-82.008,118.482c-1.046,-0.375 -1.59,-1.528 -1.216,-2.573c0.375,-1.045 1.527,-1.59 2.573,-1.216l3.856,1.382c1.046,0.374 1.591,1.527 1.216,2.572c-0.375,1.046 -1.527,1.59 -2.573,1.216l-3.856,-1.381Zm149.491,-92.737c-1.069,-0.302 -1.69,-1.415 -1.388,-2.484c0.303,-1.068 1.416,-1.69 2.484,-1.387l2.067,0.585c1.068,0.302 1.69,1.415 1.387,2.484c-0.303,1.068 -1.416,1.69 -2.484,1.387l-2.066,-0.585Zm-163.138,92.462l-5.462,-3.59l-5.102,4.085c-0.247,0.198 -0.594,0.214 -0.858,0.041c-0.265,-0.174 -0.388,-0.499 -0.304,-0.804l1.727,-6.304l-5.463,-3.59c-0.264,-0.175 -0.387,-0.499 -0.303,-0.804c0.084,-0.305 0.354,-0.522 0.67,-0.537l6.53,-0.306l1.726,-6.305c0.084,-0.305 0.355,-0.522 0.671,-0.536c0.316,-0.015 0.606,0.175 0.718,0.471l2.309,6.116l6.529,-0.307c0.316,-0.014 0.606,0.176 0.718,0.472c0.111,0.296 0.02,0.631 -0.227,0.829l-5.103,4.085l2.309,6.115c0.112,0.297 0.02,0.631 -0.227,0.829c-0.247,0.198 -0.593,0.214 -0.858,0.04Zm25.218,4.419c-1.045,-0.375 -1.59,-1.527 -1.216,-2.573c0.375,-1.045 1.527,-1.59 2.573,-1.215l3.856,1.381c1.046,0.375 1.591,1.527 1.216,2.573c-0.374,1.045 -1.527,1.59 -2.572,1.215l-3.857,-1.381Zm46.28,16.577c-1.045,-0.375 -1.59,-1.527 -1.215,-2.573c0.374,-1.045 1.527,-1.59 2.572,-1.215l1.928,0.691c1.046,0.374 1.591,1.527 1.216,2.572c-0.374,1.045 -1.527,1.59 -2.572,1.216l-1.929,-0.691Zm-23.14,-8.289c-1.045,-0.374 -1.59,-1.527 -1.215,-2.572c0.374,-1.045 1.527,-1.59 2.572,-1.216l3.857,1.382c1.045,0.374 1.59,1.527 1.216,2.572c-0.375,1.046 -1.528,1.59 -2.573,1.216l-3.857,-1.382Zm-11.57,-4.144c-1.045,-0.374 -1.59,-1.527 -1.216,-2.572c0.375,-1.046 1.528,-1.59 2.573,-1.216l3.856,1.381c1.046,0.375 1.591,1.528 1.216,2.573c-0.374,1.045 -1.527,1.59 -2.572,1.216l-3.857,-1.382Zm58.997,20.227l-5.463,-3.59l-5.102,4.086c-0.247,0.197 -0.594,0.214 -0.858,0.04c-0.265,-0.174 -0.387,-0.499 -0.303,-0.804l1.726,-6.304l-5.462,-3.59c-0.265,-0.174 -0.387,-0.499 -0.304,-0.804c0.084,-0.305 0.355,-0.522 0.671,-0.537l6.529,-0.306l1.727,-6.304c0.083,-0.306 0.354,-0.522 0.67,-0.537c0.317,-0.015 0.606,0.175 0.718,0.472l2.309,6.115l6.529,-0.306c0.316,-0.015 0.606,0.175 0.718,0.471c0.112,0.297 0.02,0.631 -0.227,0.829l-5.102,4.085l2.309,6.116c0.111,0.296 0.02,0.63 -0.227,0.828c-0.247,0.198 -0.594,0.214 -0.858,0.04l-0,0Zm85.112,-112.256l-4.018,-5.155l-6.145,2.228c-0.298,0.107 -0.631,0.011 -0.826,-0.238c-0.194,-0.25 -0.206,-0.597 -0.029,-0.859l3.662,-5.414l-4.017,-5.156c-0.195,-0.25 -0.207,-0.596 -0.029,-0.859c0.177,-0.262 0.503,-0.38 0.807,-0.292l6.281,1.809l3.662,-5.414c0.177,-0.262 0.503,-0.381 0.808,-0.293c0.304,0.088 0.517,0.361 0.528,0.678l0.22,6.532l6.281,1.81c0.304,0.088 0.517,0.361 0.528,0.678c0.01,0.316 -0.184,0.603 -0.482,0.711l-6.145,2.228l0.22,6.533c0.011,0.316 -0.184,0.603 -0.481,0.711c-0.298,0.108 -0.631,0.012 -0.825,-0.238Z" style="fill:#488922;fill-opacity:0.5;"/></g></g><defs><radialGradient id="_Radial1" cx="0" cy="0" r="1" gradientUnits="userSpaceOnUse" gradientTransform="matrix(8.11621e-15,132.548,-132.548,8.11621e-15,132.498,87.3299)"><stop offset="0" style="stop-color:#68ce2d;stop-opacity:1"/><stop offset="0.45" style="stop-color:#62c728;stop-opacity:1"/><stop offset="1" style="stop-color:#54b51c;stop-opacity:1"/></radialGradient></defs></svg>