<?xml version="1.0" encoding="UTF-8" standalone="no"?>
<!DOCTYPE svg PUBLIC "-//W3C//DTD SVG 1.1//EN" "http://www.w3.org/Graphics/SVG/1.1/DTD/svg11.dtd">
<svg width="100%" height="100%" viewBox="0 0 18 12" version="1.1" xmlns="http://www.w3.org/2000/svg" xmlns:xlink="http://www.w3.org/1999/xlink" xml:space="preserve" xmlns:serif="http://www.serif.com/" style="fill-rule:evenodd;clip-rule:evenodd;stroke-linejoin:round;stroke-miterlimit:2;">
    <g transform="matrix(0.32,0,0,0.32,0,0)">
        <g transform="matrix(0.285683,0,0,0.285674,-10.7697,-12.0594)">
            <g transform="matrix(1,0,0,1,0,2.02203)">
                <path d="M227.664,160.606C227.664,165.86 223.4,170.125 218.146,170.125L47.217,170.125C41.963,170.125 37.698,165.86 37.698,160.606L37.698,48.762C37.698,44.032 41.538,40.192 46.268,40.192L219.094,40.192C223.824,40.192 227.664,44.032 227.664,48.762L227.664,160.606Z" style="fill:#ef7426;"/>
            </g>
            <path d="M222.61,160.606C222.61,163.07 220.61,165.07 218.146,165.07L47.217,165.07C44.753,165.07 42.753,163.07 42.753,160.606L42.753,48.762C42.753,46.822 44.328,45.247 46.268,45.247L219.094,45.247C221.034,45.247 222.609,46.822 222.609,48.762L222.609,160.606L222.61,160.606L222.609,160.606L222.61,160.606Z" style="fill:#fec401;"/>
            <g>
                <g transform="matrix(1.0385,0,0,1,-726.305,-57.9775)">
                    <rect x="814.402" y="159.49" width="4.038" height="21.648" style="fill:#fdfdfd;"/>
                </g>
                <g transform="matrix(1.23313,0,0,-0.0464305,-885.216,131.351)">
                    <rect x="814.402" y="159.49" width="4.038" height="21.648" style="fill:#faba08;"/>
                </g>
                <g transform="matrix(1.53125,0,0,-0.0942268,-1128.62,140.785)">
                    <rect x="814.402" y="159.49" width="4.038" height="21.648" style="fill:#faba08;"/>
                </g>
                <g transform="matrix(2.01612,5.05338e-16,-3.10964e-17,0.129858,-1524.45,105.046)">
                    <path d="M818.44,159.49L818.44,183.513L817.652,183.513L817.652,181.138L817.043,181.138L817.043,183.513L815.79,183.513L815.79,181.138L815.182,181.138L815.182,183.513L814.402,183.513L814.402,159.49L818.44,159.49Z" style="fill:#1057b0;"/>
                </g>
                <g transform="matrix(2.01612,5.05338e-16,-3.10964e-17,0.129858,-1524.45,104.306)">
                    <path d="M818.44,179.161L818.44,183.513L817.652,183.513L817.652,181.138L817.043,181.138L817.043,183.513L815.79,183.513L815.79,181.138L815.182,181.138L815.182,183.513L814.402,183.513L814.402,179.161L814.907,179.161L814.907,176.786L816.066,176.786L816.066,179.161L816.768,179.161L816.768,176.786L817.922,176.786L817.922,179.161L818.44,179.161ZM818.44,169.968L818.44,174.319L817.652,174.319L817.652,171.944L817.043,171.944L817.043,174.319L815.79,174.319L815.79,171.944L815.182,171.944L815.182,174.319L814.402,174.319L814.402,169.968L814.907,169.968L814.907,167.593L816.066,167.593L816.066,169.968L816.768,169.968L816.768,167.593L817.922,167.593L817.922,169.968L818.44,169.968Z" style="fill:#fff;"/>
                </g>
                <g transform="matrix(1.23313,0,0,0.0464305,-885.216,93.5206)">
                    <rect x="814.402" y="159.49" width="4.038" height="21.648" style="fill:#f8be06;"/>
                </g>
                <g transform="matrix(1.53125,0,0,0.0942268,-1128.62,84.0869)">
                    <rect x="814.402" y="159.49" width="4.038" height="21.648" style="fill:#f8be06;"/>
                </g>
                <g transform="matrix(0.237976,0,0,0.237976,-68.2525,62.0465)">
                    <path d="M789.172,154.334C789.162,154.328 789.151,154.322 789.141,154.316C784.938,151.709 783.563,148.575 784.037,146.431C784.533,144.189 787.009,142.79 790.721,143.961C790.731,143.964 790.74,143.967 790.749,143.971C790.772,143.94 790.796,143.91 790.82,143.88C792.012,142.417 794.338,142.005 796.327,142.808C796.296,142.704 796.279,142.594 796.279,142.48C796.279,141.959 796.625,141.519 797.1,141.377L797.76,141.377C798.235,141.519 798.581,141.959 798.581,142.48C798.581,142.594 798.564,142.704 798.533,142.808C800.523,142.005 802.848,142.417 804.04,143.88C804.071,143.918 804.101,143.957 804.13,143.996C804.156,143.982 804.184,143.97 804.213,143.961C807.925,142.79 810.401,144.189 810.897,146.431C811.36,148.526 810.058,151.566 806.077,154.136L806.077,155.766L789.172,155.766L789.172,154.334ZM790.252,144.863C787.385,144.016 785.401,144.894 785.014,146.647C784.856,147.361 784.968,148.198 785.369,149.086C785.928,150.321 787.036,151.638 788.779,152.876C788.981,152.731 789.129,152.552 789.213,152.33C789.328,152.025 789.322,151.649 789.202,151.192C789.159,151.029 789.238,150.859 789.39,150.787C789.541,150.714 789.723,150.76 789.823,150.895C790.267,151.496 790.836,151.855 791.635,151.776C790.937,150.03 790.274,148.345 790.078,147.225C789.919,146.311 790.001,145.523 790.252,144.863ZM789.385,153.287C789.476,153.346 789.569,153.405 789.663,153.463C790.448,153.177 791.232,152.933 792.016,152.732C791.979,152.638 791.941,152.543 791.904,152.449C791.125,152.584 790.502,152.421 789.986,152.05C789.969,152.241 789.929,152.416 789.869,152.577C789.766,152.851 789.603,153.087 789.385,153.287ZM796.93,144.281C795.213,143.005 792.743,143.104 791.596,144.512C791.1,145.12 790.875,145.974 791.063,147.053C791.257,148.163 791.932,149.839 792.628,151.57C793.209,151.412 793.617,151.16 793.866,150.809C794.064,150.532 794.155,150.195 794.165,149.811C794.17,149.636 794.303,149.491 794.477,149.472C794.651,149.453 794.813,149.566 794.855,149.736C795.05,150.52 795.654,151.011 796.93,151.092L796.93,144.281ZM804.615,144.883C804.861,145.539 804.94,146.32 804.782,147.225C804.586,148.35 803.917,150.044 803.216,151.798C804.086,151.952 804.669,151.797 804.982,151.288C805.072,151.142 805.254,151.083 805.413,151.148C805.572,151.213 805.66,151.383 805.622,151.55C805.505,152.061 805.674,152.465 806.171,152.865C807.905,151.63 809.008,150.318 809.565,149.086C809.966,148.198 810.078,147.361 809.92,146.647C809.53,144.881 807.519,144.002 804.615,144.883ZM802.234,151.566C802.929,149.836 803.604,148.162 803.797,147.053C803.985,145.974 803.76,145.12 803.265,144.512C802.117,143.104 799.647,143.005 797.93,144.282L797.93,151.129C799.092,151.138 799.852,150.702 800.191,149.778C800.245,149.631 800.389,149.537 800.545,149.549C800.701,149.56 800.831,149.673 800.863,149.827C800.971,150.345 801.134,150.83 801.53,151.18C801.712,151.34 801.943,151.47 802.234,151.566ZM805.383,153.393C805.446,153.353 805.508,153.314 805.569,153.274C805.219,152.959 805.014,152.634 804.928,152.287C804.448,152.555 803.795,152.627 802.952,152.46C802.927,152.523 802.902,152.586 802.877,152.649C803.712,152.85 804.548,153.097 805.383,153.393ZM801.887,152.434C801.915,152.362 801.944,152.289 801.973,152.217C801.598,152.089 801.303,151.913 801.067,151.705C800.777,151.449 800.574,151.141 800.428,150.801C799.901,151.49 799.073,151.842 797.93,151.831L797.93,152.019C799.249,152.038 800.568,152.177 801.887,152.434ZM796.93,152.027L796.93,151.794C795.792,151.731 795.074,151.387 794.641,150.864C794.534,151.098 794.387,151.309 794.2,151.496C793.889,151.808 793.458,152.056 792.89,152.223C792.927,152.316 792.964,152.409 793.001,152.502C794.31,152.225 795.62,152.067 796.93,152.027Z" style="fill:#ae150c;"/>
                </g>
                <g transform="matrix(1,0,0,1,-694.954,-57.9775)">
                    <path d="M818.596,168.086C815.786,166.837 812.316,166.976 809.139,168.232L808.223,165.916C812.967,164.04 817.766,164.179 821.656,167.071C821.656,167.071 820.69,169.699 820.162,169.938C819.657,170.167 819.13,170.354 818.596,170.511L818.596,168.086ZM814.402,171.092C814.863,171.432 815.69,171.899 816.222,172.143C817.532,172.745 819.103,173.167 820.669,173.597L821.265,175.631C820.59,175.986 820.096,176.523 819.852,177.309L819.318,177.357C819.202,176.869 819.306,176.363 819.696,175.832L818.416,175.551C816.909,175.111 815.472,174.621 814.303,173.958C813.537,173.524 812.879,173.016 812.359,172.416C812.039,172.046 812.505,169.383 812.719,169.307C813.21,169.132 813.781,168.992 814.402,168.865L814.402,171.092Z" style="fill:#ae150c;"/>
                </g>
            </g>
            <g transform="matrix(-1,0,0,1,204.926,0)">
                <g transform="matrix(1.0385,0,0,1,-726.305,-57.9775)">
                    <rect x="814.402" y="159.49" width="4.038" height="21.648" style="fill:#fdfdfd;"/>
                </g>
                <g transform="matrix(1.23313,0,0,-0.0464305,-885.216,131.351)">
                    <rect x="814.402" y="159.49" width="4.038" height="21.648" style="fill:#faba08;"/>
                </g>
                <g transform="matrix(1.53125,0,0,-0.0942268,-1128.62,140.785)">
                    <rect x="814.402" y="159.49" width="4.038" height="21.648" style="fill:#faba08;"/>
                </g>
                <g transform="matrix(2.01612,5.05338e-16,-3.10964e-17,0.129858,-1524.45,105.046)">
                    <path d="M818.44,159.49L818.44,183.513L817.652,183.513L817.652,181.138L817.043,181.138L817.043,183.513L815.79,183.513L815.79,181.138L815.182,181.138L815.182,183.513L814.402,183.513L814.402,159.49L818.44,159.49Z" style="fill:#1057b0;"/>
                </g>
                <g transform="matrix(2.01612,5.05338e-16,-3.10964e-17,0.129858,-1524.45,104.306)">
                    <path d="M818.44,179.161L818.44,183.513L817.652,183.513L817.652,181.138L817.043,181.138L817.043,183.513L815.79,183.513L815.79,181.138L815.182,181.138L815.182,183.513L814.402,183.513L814.402,179.161L814.907,179.161L814.907,176.786L816.066,176.786L816.066,179.161L816.768,179.161L816.768,176.786L817.922,176.786L817.922,179.161L818.44,179.161ZM818.44,169.968L818.44,174.319L817.652,174.319L817.652,171.944L817.043,171.944L817.043,174.319L815.79,174.319L815.79,171.944L815.182,171.944L815.182,174.319L814.402,174.319L814.402,169.968L814.907,169.968L814.907,167.593L816.066,167.593L816.066,169.968L816.768,169.968L816.768,167.593L817.922,167.593L817.922,169.968L818.44,169.968Z" style="fill:#fff;"/>
                </g>
                <g transform="matrix(1.23313,0,0,0.0464305,-885.216,93.5206)">
                    <rect x="814.402" y="159.49" width="4.038" height="21.648" style="fill:#f8be06;"/>
                </g>
                <g transform="matrix(1.53125,0,0,0.0942268,-1128.62,84.0869)">
                    <rect x="814.402" y="159.49" width="4.038" height="21.648" style="fill:#f8be06;"/>
                </g>
                <g transform="matrix(0.237976,0,0,0.237976,-68.2525,62.0465)">
                    <path d="M789.172,154.334C789.162,154.328 789.151,154.322 789.141,154.316C784.938,151.709 783.563,148.575 784.037,146.431C784.533,144.189 787.009,142.79 790.721,143.961C790.731,143.964 790.74,143.967 790.749,143.971C790.772,143.94 790.796,143.91 790.82,143.88C792.012,142.417 794.338,142.005 796.327,142.808C796.296,142.704 796.279,142.594 796.279,142.48C796.279,141.959 796.625,141.519 797.1,141.377L797.76,141.377C798.235,141.519 798.581,141.959 798.581,142.48C798.581,142.594 798.564,142.704 798.533,142.808C800.523,142.005 802.848,142.417 804.04,143.88C804.071,143.918 804.101,143.957 804.13,143.996C804.156,143.982 804.184,143.97 804.213,143.961C807.925,142.79 810.401,144.189 810.897,146.431C811.36,148.526 810.058,151.566 806.077,154.136L806.077,155.766L789.172,155.766L789.172,154.334ZM790.252,144.863C787.385,144.016 785.401,144.894 785.014,146.647C784.856,147.361 784.968,148.198 785.369,149.086C785.928,150.321 787.036,151.638 788.779,152.876C788.981,152.731 789.129,152.552 789.213,152.33C789.328,152.025 789.322,151.649 789.202,151.192C789.159,151.029 789.238,150.859 789.39,150.787C789.541,150.714 789.723,150.76 789.823,150.895C790.267,151.496 790.836,151.855 791.635,151.776C790.937,150.03 790.274,148.345 790.078,147.225C789.919,146.311 790.001,145.523 790.252,144.863ZM789.385,153.287C789.476,153.346 789.569,153.405 789.663,153.463C790.448,153.177 791.232,152.933 792.016,152.732C791.979,152.638 791.941,152.543 791.904,152.449C791.125,152.584 790.502,152.421 789.986,152.05C789.969,152.241 789.929,152.416 789.869,152.577C789.766,152.851 789.603,153.087 789.385,153.287ZM796.93,144.281C795.213,143.005 792.743,143.104 791.596,144.512C791.1,145.12 790.875,145.974 791.063,147.053C791.257,148.163 791.932,149.839 792.628,151.57C793.209,151.412 793.617,151.16 793.866,150.809C794.064,150.532 794.155,150.195 794.165,149.811C794.17,149.636 794.303,149.491 794.477,149.472C794.651,149.453 794.813,149.566 794.855,149.736C795.05,150.52 795.654,151.011 796.93,151.092L796.93,144.281ZM804.615,144.883C804.861,145.539 804.94,146.32 804.782,147.225C804.586,148.35 803.917,150.044 803.216,151.798C804.086,151.952 804.669,151.797 804.982,151.288C805.072,151.142 805.254,151.083 805.413,151.148C805.572,151.213 805.66,151.383 805.622,151.55C805.505,152.061 805.674,152.465 806.171,152.865C807.905,151.63 809.008,150.318 809.565,149.086C809.966,148.198 810.078,147.361 809.92,146.647C809.53,144.881 807.519,144.002 804.615,144.883ZM802.234,151.566C802.929,149.836 803.604,148.162 803.797,147.053C803.985,145.974 803.76,145.12 803.265,144.512C802.117,143.104 799.647,143.005 797.93,144.282L797.93,151.129C799.092,151.138 799.852,150.702 800.191,149.778C800.245,149.631 800.389,149.537 800.545,149.549C800.701,149.56 800.831,149.673 800.863,149.827C800.971,150.345 801.134,150.83 801.53,151.18C801.712,151.34 801.943,151.47 802.234,151.566ZM805.383,153.393C805.446,153.353 805.508,153.314 805.569,153.274C805.219,152.959 805.014,152.634 804.928,152.287C804.448,152.555 803.795,152.627 802.952,152.46C802.927,152.523 802.902,152.586 802.877,152.649C803.712,152.85 804.548,153.097 805.383,153.393ZM801.887,152.434C801.915,152.362 801.944,152.289 801.973,152.217C801.598,152.089 801.303,151.913 801.067,151.705C800.777,151.449 800.574,151.141 800.428,150.801C799.901,151.49 799.073,151.842 797.93,151.831L797.93,152.019C799.249,152.038 800.568,152.177 801.887,152.434ZM796.93,152.027L796.93,151.794C795.792,151.731 795.074,151.387 794.641,150.864C794.534,151.098 794.387,151.309 794.2,151.496C793.889,151.808 793.458,152.056 792.89,152.223C792.927,152.316 792.964,152.409 793.001,152.502C794.31,152.225 795.62,152.067 796.93,152.027Z" style="fill:#ae150c;"/>
                </g>
                <g transform="matrix(1,0,0,1,-694.954,-57.9775)">
                    <path d="M818.596,168.086C815.786,166.837 812.316,166.976 809.139,168.232L808.223,165.916C812.967,164.04 817.766,164.179 821.656,167.071C821.656,167.071 820.69,169.699 820.162,169.938C819.657,170.167 819.13,170.354 818.596,170.511L818.596,168.086ZM814.402,171.092C814.863,171.432 815.69,171.899 816.222,172.143C817.532,172.745 819.103,173.167 820.669,173.597L821.265,175.631C820.59,175.986 820.096,176.523 819.852,177.309L819.318,177.357C819.202,176.869 819.306,176.363 819.696,175.832L818.416,175.551C816.909,175.111 815.472,174.621 814.303,173.958C813.537,173.524 812.879,173.016 812.359,172.416C812.039,172.046 812.505,169.383 812.719,169.307C813.21,169.132 813.781,168.992 814.402,168.865L814.402,171.092Z" style="fill:#ae150c;"/>
                </g>
            </g>
            <g transform="matrix(0.987522,0,0,1,-685.165,-57.9775)">
                <path d="M811.137,156.805L811.137,178.485L811.129,178.485C810.929,183.362 806.857,187.261 801.87,187.261L793.79,187.261C788.802,187.261 784.73,183.362 784.531,178.485L784.523,178.485L784.523,156.805L811.137,156.805Z" style="fill:#fff;"/>
            </g>
            <g transform="matrix(0.987522,0,0,1,-685.165,-57.9775)">
                <path d="M811.137,171.355L811.137,178.485L811.129,178.485C810.929,183.362 806.857,187.261 801.87,187.261L793.79,187.261C788.802,187.261 784.73,183.362 784.531,178.485L784.523,178.485L784.523,156.805L797.83,156.805L797.83,171.355L811.137,171.355Z" style="fill:#ae1418;"/>
            </g>
            <g transform="matrix(0.987522,0,0,1,-685.165,-57.9775)">
                <path d="M785.941,182.975C785.106,181.664 784.598,180.13 784.531,178.485L784.523,178.485L784.523,171.355L785.941,171.355L785.941,182.975ZM787.384,171.355L788.827,171.355L788.827,185.838C788.309,185.513 787.825,185.138 787.384,184.72L787.384,171.355ZM790.27,171.355L791.713,171.355L791.713,187.03C791.215,186.918 790.733,186.765 790.27,186.577L790.27,171.355ZM793.156,171.355L794.599,171.355L794.599,187.261L793.79,187.261C793.577,187.261 793.365,187.254 793.156,187.24L793.156,171.355ZM796.042,171.355L797.827,171.355L797.827,187.261L796.042,187.261L796.042,171.355Z" style="fill:#f5ba05;"/>
            </g>
            <g transform="matrix(1.10101,0,0,1.0944,-775.737,-74.6225)">
                <ellipse cx="797.698" cy="171.667" rx="3.847" ry="4.391" style="fill:#0651be;"/>
            </g>
            <g transform="matrix(1,0,0,1,-694.954,-57.9775)">
                <path d="M795.897,170.279L795.897,169.176L796.444,169.176L796.444,170.279L797.092,170.279L797.092,170.826L796.444,170.826L796.444,171.929L795.897,171.929L795.897,170.826L795.263,170.826L795.263,170.279L795.897,170.279ZM798.498,170.279L798.498,169.176L799.045,169.176L799.045,170.279L799.693,170.279L799.693,170.826L799.045,170.826L799.045,171.929L798.498,171.929L798.498,170.826L797.864,170.826L797.864,170.279L798.498,170.279ZM797.211,172.486L797.211,171.384L797.758,171.384L797.758,172.486L798.406,172.486L798.406,173.034L797.758,173.034L797.758,174.136L797.211,174.136L797.211,173.034L796.577,173.034L796.577,172.486L797.211,172.486Z" style="fill:#fec401;"/>
            </g>
            <g transform="matrix(1.10101,0,0,1.0944,-775.737,-74.6225)">
                <path d="M797.698,167.276C799.822,167.276 801.546,169.244 801.546,171.667C801.546,174.091 799.822,176.059 797.698,176.059C795.575,176.059 793.851,174.091 793.851,171.667C793.851,169.244 795.575,167.276 797.698,167.276ZM797.698,168.527C796.215,168.527 795.095,169.974 795.095,171.667C795.095,173.36 796.215,174.807 797.698,174.807C799.182,174.807 800.302,173.36 800.302,171.667C800.302,169.974 799.182,168.527 797.698,168.527Z" style="fill:#ab1316;"/>
            </g>
            <g transform="matrix(0.987522,0,0,1,-685.165,-57.9775)">
                <path d="M806.096,186.255C804.829,186.898 803.392,187.261 801.87,187.261L793.79,187.261C792.266,187.261 790.827,186.897 789.558,186.252C793.379,186.165 796.709,183.967 797.827,180.956C798.967,184.026 802.178,186.25 806.096,186.255Z" style="fill:#fff;"/>
            </g>
            <g>
                <g transform="matrix(1,0,0,1,-694.954,-57.9775)">
                    <path d="M797.467,153.025L789.498,153.924L784.81,149.139C786.371,147.3 788.342,146.768 790.615,147.196C792.518,145.779 794.522,144.585 797.467,145.447C800.412,144.585 802.416,145.779 804.319,147.196C806.592,146.768 808.563,147.3 810.124,149.139L805.436,153.924L797.467,153.025Z" style="fill:#ab151b;"/>
                </g>
                <g transform="matrix(1,0,0,1,-694.954,-57.9775)">
                    <path d="M789.172,154.334C789.162,154.328 789.151,154.322 789.141,154.316C784.938,151.709 783.563,148.575 784.037,146.431C784.533,144.189 787.009,142.79 790.721,143.961C790.731,143.964 790.74,143.967 790.749,143.971C790.772,143.94 790.796,143.91 790.82,143.88C792.012,142.417 794.338,142.005 796.327,142.808C796.296,142.704 796.279,142.594 796.279,142.48C796.279,141.959 796.625,141.519 797.1,141.377L797.1,140.246L796.365,140.246L796.365,139.586L797.1,139.586L797.1,139.075L797.76,139.075L797.76,139.586L798.495,139.586L798.495,140.246L797.76,140.246L797.76,141.377C798.235,141.519 798.581,141.959 798.581,142.48C798.581,142.594 798.564,142.704 798.533,142.808C800.523,142.005 802.848,142.417 804.04,143.88C804.071,143.918 804.101,143.957 804.13,143.996C804.156,143.982 804.184,143.97 804.213,143.961C807.925,142.79 810.401,144.189 810.897,146.431C811.36,148.526 810.058,151.566 806.077,154.136L806.077,155.766C800.442,153.961 794.807,153.944 789.172,155.766L789.172,154.334ZM790.252,144.863C787.385,144.016 785.401,144.894 785.014,146.647C784.856,147.361 784.968,148.198 785.369,149.086C785.928,150.321 787.036,151.638 788.779,152.876C788.981,152.731 789.129,152.552 789.213,152.33C789.328,152.025 789.322,151.649 789.202,151.192C789.159,151.029 789.238,150.859 789.39,150.787C789.541,150.714 789.723,150.76 789.823,150.895C790.267,151.496 790.836,151.855 791.635,151.776C790.937,150.03 790.274,148.345 790.078,147.225C789.919,146.311 790.001,145.523 790.252,144.863ZM789.385,153.287C789.476,153.346 789.569,153.405 789.663,153.463C790.448,153.177 791.232,152.933 792.016,152.732C791.979,152.638 791.941,152.543 791.904,152.449C791.125,152.584 790.502,152.421 789.986,152.05C789.969,152.241 789.929,152.416 789.869,152.577C789.766,152.851 789.603,153.087 789.385,153.287ZM796.93,144.281C795.213,143.005 792.743,143.104 791.596,144.512C791.1,145.12 790.875,145.974 791.063,147.053C791.257,148.163 791.932,149.839 792.628,151.57C793.209,151.412 793.617,151.16 793.866,150.809C794.064,150.532 794.155,150.195 794.165,149.811C794.17,149.636 794.303,149.491 794.477,149.472C794.651,149.453 794.813,149.566 794.855,149.736C795.05,150.52 795.654,151.011 796.93,151.092L796.93,144.281ZM804.615,144.883C804.861,145.539 804.94,146.32 804.782,147.225C804.586,148.35 803.917,150.044 803.216,151.798C804.086,151.952 804.669,151.797 804.982,151.288C805.072,151.142 805.254,151.083 805.413,151.148C805.572,151.213 805.66,151.383 805.622,151.55C805.505,152.061 805.674,152.465 806.171,152.865C807.905,151.63 809.008,150.318 809.565,149.086C809.966,148.198 810.078,147.361 809.92,146.647C809.53,144.881 807.519,144.002 804.615,144.883ZM802.234,151.566C802.929,149.836 803.604,148.162 803.797,147.053C803.985,145.974 803.76,145.12 803.265,144.512C802.117,143.104 799.647,143.005 797.93,144.282L797.93,151.129C799.092,151.138 799.852,150.702 800.191,149.778C800.245,149.631 800.389,149.537 800.545,149.549C800.701,149.56 800.831,149.673 800.863,149.827C800.971,150.345 801.134,150.83 801.53,151.18C801.712,151.34 801.943,151.47 802.234,151.566ZM805.383,153.393C805.446,153.353 805.508,153.314 805.569,153.274C805.219,152.959 805.014,152.634 804.928,152.287C804.448,152.555 803.795,152.627 802.952,152.46C802.927,152.523 802.902,152.586 802.877,152.649C803.712,152.85 804.548,153.097 805.383,153.393ZM801.887,152.434C801.915,152.362 801.944,152.289 801.973,152.217C801.598,152.089 801.303,151.913 801.067,151.705C800.777,151.449 800.574,151.141 800.428,150.801C799.901,151.49 799.073,151.842 797.93,151.831L797.93,152.019C799.249,152.038 800.568,152.177 801.887,152.434ZM796.93,152.027L796.93,151.794C795.792,151.731 795.074,151.387 794.641,150.864C794.534,151.098 794.387,151.309 794.2,151.496C793.889,151.808 793.458,152.056 792.89,152.223C792.927,152.316 792.964,152.409 793.001,152.502C794.31,152.225 795.62,152.067 796.93,152.027Z" style="fill:#d2a200;"/>
                </g>
            </g>
            <path d="M222.609,135.103L222.609,160.606C222.609,163.07 220.61,165.07 218.146,165.07L47.217,165.07C44.753,165.07 42.753,163.07 42.753,160.606L42.753,135.103L222.609,135.103ZM42.753,75.335L42.753,48.762C42.753,46.822 44.328,45.247 46.268,45.247L219.094,45.247C221.034,45.247 222.609,46.822 222.609,48.762L222.609,75.335L42.753,75.335Z" style="fill:#c70a1e;"/>
        </g>
    </g>
</svg>
