<?xml version="1.0" encoding="UTF-8" standalone="no"?><!DOCTYPE svg PUBLIC "-//W3C//DTD SVG 1.1//EN" "http://www.w3.org/Graphics/SVG/1.1/DTD/svg11.dtd"><svg width="100%" height="100%" viewBox="0 0 3627 6000" version="1.1" xmlns="http://www.w3.org/2000/svg" xmlns:xlink="http://www.w3.org/1999/xlink" xml:space="preserve" xmlns:serif="http://www.serif.com/" style="fill-rule:evenodd;clip-rule:evenodd;stroke-linecap:round;stroke-linejoin:round;stroke-miterlimit:8;"><g id="mini-store" serif:id="mini store"><g id="base"><path d="M3626.26,5597.64c-0,-33.685 -27.348,-61.032 -61.032,-61.032l-3504.2,-0c-33.685,-0 -61.032,27.347 -61.032,61.032l0,341.331c0,33.685 27.347,61.032 61.032,61.032l3504.2,-0c33.684,-0 61.032,-27.347 61.032,-61.032l-0,-341.331Z" style="fill:#493001;"/><path d="M3626.26,5569.34c-0,-18.064 -14.666,-32.73 -32.731,-32.73l-3560.8,-0c-18.065,-0 -32.731,14.666 -32.731,32.73l0,183.053c0,18.065 14.666,32.731 32.731,32.731l3560.8,0c18.065,0 32.731,-14.666 32.731,-32.731l-0,-183.053Z" style="fill:#845a04;"/></g><g id="wall"><path id="wall1" serif:id="wall" d="M498.41,4612l0,-2614.53l-396.46,-0l-0,3648.56c-0,18.825 15.283,34.108 34.107,34.108l3342.53,-0c18.825,-0 34.108,-15.283 34.108,-34.108l-0,-1034.03l-3014.29,0Z" style="fill:#5e9585;"/><path d="M533.913,3838.81l-467.467,-0l35.503,-468.276l396.461,-0l35.503,468.276Zm0,-936.552l-467.467,-0l35.503,-468.276l396.461,-0l35.503,468.276Zm3025.94,2777.89l-3493.41,-0l35.503,-468.276l3422.4,-0l35.503,468.276Zm-9.977,-1068.14l9.977,131.585l-3493.41,-0l35.503,-468.277l396.461,0l0,336.692l3051.47,0Z" style="fill:#37705f;"/><path d="M97.812,2488.55l4.137,-54.572l396.461,-0l4.138,54.572l-404.736,0Zm-1.284,953.487l5.421,-71.507l396.461,-0l5.422,71.507l-407.304,0Zm-2.575,938.744l7.996,-105.471l396.461,0l0,105.471l-404.457,0Zm1.172,921.09l6.824,-90.008l3422.4,-0l6.824,90.008l-3436.05,-0Z" style="fill:#2b6050;"/><path d="M533.913,4307.08l-467.467,0l35.503,-468.276l396.461,-0l35.503,468.276Zm0,-936.552l-467.467,-0l35.503,-468.276l396.461,-0l35.503,468.276Zm0,-936.552l-467.467,-0l33.095,-436.505l401.278,-0l33.094,436.505Zm3025.94,2777.89l-3493.41,-0l35.503,-468.276l3422.4,-0l35.503,468.276Z" style="fill:#449f84;"/><path d="M96.614,2972.63l5.335,-70.378l396.461,-0l5.336,70.378l-407.132,-0Zm1.233,920.281l4.102,-54.107l396.461,-0l4.102,54.107l-404.665,-0Zm-2.81,941.85l6.912,-91.176l3422.4,-0l6.912,91.176l-3436.23,-0Z" style="fill:#418873;"/><path id="wall-shadow" serif:id="wall shadow" d="M3555.97,5160.7l-2877.35,-0c-39.712,-0 -71.952,-32.241 -71.952,-71.952l-0,-297.022l2921.33,-0l27.975,368.974Zm-3468.09,-3009.43l11.66,-153.789l401.278,-0l11.66,153.789l-424.598,0Z" style="fill-opacity:0.11;"/></g><g id="table-top" serif:id="table top"><path d="M3626.26,4251.3c-0,-46.761 -37.965,-84.726 -84.726,-84.726l-2958.4,0c-46.761,0 -84.726,37.965 -84.726,84.726l0,473.846c0,46.761 37.965,84.726 84.726,84.726l2958.4,-0c46.761,-0 84.726,-37.965 84.726,-84.726l-0,-473.846Z" style="fill:#493001;"/><path d="M3626.26,4223c-0,-31.142 -25.283,-56.425 -56.425,-56.425l-3015.01,0c-31.142,0 -56.425,25.283 -56.425,56.425l0,315.567c0,31.142 25.283,56.425 56.425,56.425l3015.01,-0c31.142,-0 56.425,-25.283 56.425,-56.425l-0,-315.567Z" style="fill:#845a04;"/></g><g id="cash-register" serif:id="cash register"><ellipse cx="1176.97" cy="4444.09" rx="416.42" ry="44.133" style="fill:#60370e;"/><path d="M886.754,4422.46l24.489,-112.536c1.331,-6.119 5.505,-11.235 11.232,-13.768c5.726,-2.533 12.319,-2.18 17.742,0.951l60.726,35.061c5.424,3.131 9.026,8.663 9.696,14.89c0.669,6.226 -1.674,12.398 -6.308,16.61l-85.215,77.476c-6.313,5.74 -15.613,6.74 -23.003,2.474c-7.389,-4.266 -11.173,-12.82 -9.359,-21.158Zm271.528,17.491l-35.061,-109.704c-1.906,-5.965 -0.85,-12.481 2.843,-17.539c3.693,-5.057 9.579,-8.047 15.841,-8.047l70.121,-0c6.263,-0 12.148,2.99 15.841,8.047c3.693,5.058 4.75,11.574 2.843,17.539l-35.06,109.704c-2.598,8.128 -10.151,13.644 -18.684,13.644c-8.533,-0 -16.087,-5.516 -18.684,-13.644Zm308.896,-17.491c1.814,8.338 -1.97,16.892 -9.359,21.158c-7.39,4.266 -16.69,3.266 -23.003,-2.474l-85.215,-77.476c-4.634,-4.212 -6.977,-10.384 -6.308,-16.61c0.67,-6.227 4.272,-11.759 9.695,-14.89l60.727,-35.061c5.423,-3.131 12.015,-3.484 17.742,-0.951c5.727,2.533 9.9,7.649 11.232,13.768l24.489,112.536Z" style="fill:#4b3f4f;"/><path d="M1458.34,4381.86c-17.885,9.749 -37.785,18.554 -59.928,26.193l-18.14,-16.492c27.838,-8.777 52.132,-19.417 73.319,-31.522l4.749,21.821Zm-558.003,-21.821c21.186,12.105 45.481,22.745 73.318,31.522l-18.139,16.492c-22.143,-7.639 -42.044,-16.444 -59.928,-26.193l4.749,-21.821Zm295.341,79.822c-0.252,0.005 -0.505,0.01 -0.758,0.015c-0.143,0.003 -0.286,0.005 -0.429,0.005l-35.054,-0c-0.143,-0 -0.286,-0.002 -0.429,-0.005c-0.253,-0.005 -0.506,-0.01 -0.759,-0.015l-6.892,-21.566c2.675,0.076 5.368,0.141 8.08,0.195l35.054,0c2.711,-0.054 5.405,-0.119 8.08,-0.195l-6.893,21.566Z" style="fill:#302734;"/><path d="M1194.49,4418.49l-35.054,0c-308.647,-6.182 -382.708,-152.153 -396.593,-278.457c-14.289,-129.972 41.973,-204.515 59.545,-248.562l709.15,0c17.572,44.047 73.834,118.59 59.545,248.562c-13.886,126.304 -87.946,272.275 -396.593,278.457Z" style="fill:#4b3f4f;"/><path d="M1527.85,4298.93c-55.415,65.949 -155.389,115.991 -333.359,119.556l-35.054,0c-308.647,-6.182 -382.708,-152.153 -396.593,-278.457c-14.289,-129.972 41.973,-204.515 59.545,-248.562l130.658,0c-12.931,39.019 -21.596,87.553 -14.936,148.128c13.886,126.304 87.946,272.275 396.593,278.457l35.054,0c61.571,-1.233 113.807,-8.029 158.092,-19.122Z" style="fill:#3c313f;"/><path d="M1478.03,4344.5c-59.839,42.298 -149.599,71.303 -283.532,73.985l-35.054,0c-308.647,-6.182 -382.708,-152.153 -396.593,-278.457c-14.289,-129.972 41.973,-204.515 59.545,-248.562l50.559,0c-22.739,45.714 -53.095,112.704 -42.164,212.13c13.886,126.304 87.947,272.275 396.593,278.458l35.055,-0c90.611,-1.816 161.003,-15.678 215.591,-37.554Z" style="fill:#302734;"/><path d="M1173.94,3792.31c165.813,0 306.406,21.344 356.117,48.142c27.228,14.678 36.59,34.707 36.59,51.019c0,16.313 -9.362,36.341 -36.59,51.019c-49.711,26.798 -190.304,48.142 -356.117,48.142c-165.813,-0 -306.406,-21.344 -356.117,-48.142c-27.228,-14.678 -36.591,-34.706 -36.591,-51.019c0,-16.312 9.363,-36.341 36.591,-51.019c49.711,-26.798 190.304,-48.142 356.117,-48.142Zm-294.389,99.161c4.576,1.511 9.302,2.914 13.953,4.053c63.256,15.495 165.362,25.32 280.436,25.32c115.073,0 217.18,-9.825 280.436,-25.32c4.65,-1.139 9.377,-2.542 13.952,-4.053c-4.575,-1.511 -9.302,-2.914 -13.952,-4.053c-63.256,-15.495 -165.363,-25.32 -280.436,-25.32c-115.074,0 -217.18,9.825 -280.436,25.32c-4.651,1.139 -9.377,2.542 -13.953,4.053Z" style="fill:#3c313f;"/><path d="M1565.12,3879.98c1.047,3.948 1.522,7.811 1.522,11.485c0,16.313 -9.362,36.341 -36.59,51.019c-49.711,26.798 -190.304,48.142 -356.117,48.142c-165.813,-0 -306.406,-21.344 -356.117,-48.142c-27.228,-14.678 -36.591,-34.706 -36.591,-51.019c0,-3.674 0.475,-7.537 1.523,-11.485c3.601,13.579 13.972,28.163 35.068,39.535c49.711,26.797 190.304,48.141 356.117,48.141c165.813,0 306.406,-21.344 356.117,-48.141c21.095,-11.372 31.466,-25.956 35.068,-39.535Z" style="fill:#352a38;"/><path d="M879.547,3891.47l-5.146,0c-0.469,-3.457 -0.444,-6.966 0.124,-10.479c4.21,-26.048 36.68,-42.5 72.464,-36.717c10.764,1.74 20.609,5.295 29,10.124c9.613,-9.344 23.079,-16.701 38.785,-20.231c13.824,-3.108 27.349,-2.793 39.043,0.28c-2.635,-6.951 -3.36,-14.238 -1.776,-21.409c4.842,-21.921 29.711,-35.739 58.823,-34.559c12.686,-20.822 45.941,-26.904 77.135,-13.26c30.507,13.343 48.499,40.943 43.029,64.087c3.554,2.979 6.748,6.179 9.545,9.53c9.63,-13.35 26.65,-24.07 47.327,-28.13c31.623,-6.209 61.22,5.236 70.97,26.047c4.669,-0.982 9.545,-1.604 14.569,-1.819c36.216,-1.551 66.535,18.591 67.664,44.953c0.064,1.502 0.033,2.991 -0.091,4.465c4.626,0.995 9.082,2.017 13.36,3.065c4.65,1.139 9.377,2.542 13.952,4.053c-4.575,1.511 -9.302,2.914 -13.952,4.053c-5.727,1.403 -11.773,2.759 -18.118,4.066c-30.651,6.314 -68.286,11.47 -110.74,15.123c-45.821,3.942 -97.255,6.131 -151.578,6.131c-39.537,0 -77.543,-1.16 -112.968,-3.311c-21.098,-1.281 -41.281,-2.914 -60.326,-4.862c-11.494,-1.176 -22.573,-2.467 -33.19,-3.865c-28.228,-3.718 -53.184,-8.195 -73.952,-13.282c-4.651,-1.139 -9.377,-2.542 -13.953,-4.053Z" style="fill:#fad500;"/><path d="M1221.59,3803.91c-6.242,-13.25 -19.111,-25.435 -36.132,-32.881c-9.053,-3.959 -17.975,-6.401 -26.705,-7.376c-10.125,-1.131 -18.437,-0.888 -27.158,0.411c-2.386,0.355 -4.774,0.774 -7.139,1.295c16.17,-9.531 40.423,-10.255 63.544,-0.142c0.845,0.369 1.68,0.75 2.505,1.141c28.981,13.728 45.842,40.443 40.524,62.946c3.554,2.979 6.748,6.179 9.545,9.53c9.63,-13.35 26.65,-24.07 47.327,-28.13c31.623,-6.209 61.22,5.236 70.97,26.047c4.669,-0.982 9.545,-1.604 14.569,-1.819c9.506,-0.407 18.605,0.68 26.877,2.982c23.244,6.469 39.954,22.529 40.787,41.971c0.064,1.502 0.033,2.991 -0.091,4.465c4.626,0.995 9.082,2.017 13.36,3.065c4.65,1.139 9.377,2.542 13.952,4.053c-4.575,1.511 -9.302,2.914 -13.952,4.053c-5.727,1.403 -11.773,2.759 -18.118,4.066c-30.651,6.314 -68.286,11.47 -110.74,15.123c-3.482,0.299 -45.57,3.765 -49.115,4.044c-0.884,-5.122 -20.866,-20.211 -44.008,-10.653c10.304,-21.033 -25.9,-87.679 -67.885,-93.582c-4.989,-0.167 -9.998,0.06 -14.907,0.593c-0.624,0.142 -1.249,0.3 -1.874,0.474c0.819,-0.398 1.638,-0.774 2.458,-1.128c13.303,-6.288 30.958,-7.3 48.8,-2.117c17.366,3.18 23.708,-0.83 22.606,-8.431Zm-249.251,54.343c-3.338,-2.557 -6.658,-4.852 -9.571,-6.515c-7.228,-4.126 -12.473,-6.114 -21.315,-8.188c1.835,0.182 3.681,0.422 5.537,0.722c10.764,1.74 20.609,5.295 29,10.124c-1.287,1.252 -2.506,2.539 -3.651,3.857Zm84.59,-17.237c-3.352,-1.671 -7.167,-3.306 -11.446,-4.661c-6.736,-2.134 -14.302,-2.997 -24.195,-3.408c11.532,-1.722 22.681,-1.09 32.53,1.498c0.845,2.23 1.886,4.425 3.111,6.571Zm51.043,-56.604c-12.202,-0.502 -23.032,1.663 -32.521,6.063c-5.392,2.5 -18.755,9.299 -24.241,30.148c0.004,-2.53 0.275,-5.066 0.832,-7.587c4.842,-21.921 29.711,-35.739 58.823,-34.559c-0.821,1.346 -1.555,2.754 -2.197,4.222c-0.248,0.567 -0.48,1.138 -0.696,1.713Z" style="fill:#eca800;"/></g><g id="beam"><path id="beam1" serif:id="beam" d="M3435.23,1975.25c0,-23.396 -18.994,-42.391 -42.391,-42.391l-164.576,0c-23.396,0 -42.391,18.995 -42.391,42.391l0,2432.69c0,23.396 18.995,42.39 42.391,42.39l164.576,0c23.397,0 42.391,-18.994 42.391,-42.39l0,-2432.69Z" style="fill:#a0a0a0;"/><path id="beam-shadow" serif:id="beam shadow" d="M3185.87,2357.85l249.358,0l0,-382.604c0,-23.396 -18.994,-42.391 -42.391,-42.391l-164.576,0c-23.396,0 -42.391,18.995 -42.391,42.391l0,382.604Z" style="fill:#6f6f6f;"/></g><g id="lights"><path d="M1838.22,1975.02c307.918,396.338 968.622,458.73 1302.67,-15.694c4.563,-6.481 3.006,-15.448 -3.475,-20.012c-6.482,-4.564 -15.449,-3.007 -20.012,3.475c-326.285,463.395 -975.67,395.309 -1267.6,-0.052c-0.464,-0.653 -0.986,-1.271 -1.566,-1.849l-0.018,-0.018l-0.029,-0.029l-0.03,-0.029l-0.018,-0.018c-1.008,-0.989 -2.138,-1.805 -3.346,-2.441c-2.14,-1.131 -4.474,-1.672 -6.788,-1.656c-2.314,0.011 -4.641,0.579 -6.768,1.736c-1.2,0.651 -2.32,1.479 -3.317,2.48l-0.018,0.018l-0.029,0.03l-0.029,0.029l-0.018,0.019c-0.573,0.583 -1.088,1.208 -1.543,1.866c-284.728,395.252 -961.564,463.542 -1267.26,0.272c-4.366,-6.616 -13.282,-8.443 -19.898,-4.077c-6.616,4.366 -8.443,13.282 -4.078,19.898c313.11,474.499 1001.56,412.368 1303.18,16.052Z"/><g id="clover_bulb"><path d="M2596.2,2384.82c6.112,-4.689 13.021,-7.236 20.32,-7.177c20.207,0.164 43.407,20.313 37.044,51.071c29.563,-10.608 52.763,9.541 55.755,29.526c2.993,19.986 -14.222,39.807 -43.037,49.554c-3.363,1.249 -7.052,2.215 -10.983,2.935c-3.584,0.657 -7.369,1.109 -11.292,1.385c8.226,-0.579 15.961,-0.306 22.66,1.158c29.897,5.615 49.718,22.83 49.554,43.038c-0.164,20.207 -20.313,43.407 -51.071,37.044c10.608,29.563 -9.541,52.763 -29.527,55.756c-19.985,2.993 -39.807,-14.222 -49.553,-43.038c-2.388,-6.427 -3.741,-14.047 -4.32,-22.271c0.579,8.224 0.306,15.958 -1.158,22.657c-5.615,29.896 -22.83,49.717 -43.038,49.553c-20.207,-0.164 -43.407,-20.313 -37.044,-51.07c-29.563,10.607 -52.763,-9.542 -55.756,-29.527c-2.992,-19.986 14.223,-39.807 43.038,-49.554c3.363,-1.249 7.051,-2.215 10.983,-2.935c3.583,-0.657 7.369,-1.109 11.292,-1.385c-8.226,0.579 -15.961,0.306 -22.661,-1.158c-29.896,-5.615 -49.717,-22.83 -49.553,-43.038c0.164,-20.207 20.313,-43.407 51.07,-37.044c-10.607,-29.563 9.542,-52.763 29.527,-55.756c7.426,-1.112 14.83,0.566 21.702,4.592l-1.909,-27.118l56.075,-3.946l1.882,26.748Z" style="fill:#68af23;"/><path d="M2475.72,2523.96c-27.363,-8.204 -44.262,-26.499 -44.099,-46.663c0.171,-21.1 19.008,-45.362 48.91,-44.282c-5.257,-29.456 16.127,-51.505 36.996,-54.63c5.28,-0.791 10.557,-0.419 15.693,1.034l-1.193,-16.961c-0.242,-3.433 2.345,-6.411 5.778,-6.653l56.074,-3.946c3.433,-0.242 6.412,2.345 6.653,5.778l1.18,16.768c4.724,-2.005 9.713,-3.032 14.857,-2.99c21.1,0.172 45.362,19.008 44.282,48.911c29.456,-5.258 51.505,16.127 54.63,36.995c2.986,19.944 -11.188,40.428 -37.129,52.379c27.363,8.204 44.262,26.499 44.099,46.663c-0.172,21.1 -19.009,45.362 -48.911,44.282c5.258,29.456 -16.127,51.505 -36.995,54.63c-19.944,2.987 -40.428,-11.187 -52.379,-37.129c-8.204,27.363 -26.499,44.263 -46.663,44.099c-21.101,-0.172 -45.362,-19.008 -44.282,-48.911c-29.456,5.258 -51.505,-16.126 -54.63,-36.995c-2.986,-19.944 11.188,-40.428 37.129,-52.379Zm120.479,-139.137l-1.882,-26.748l-56.075,3.946l1.909,27.118c-6.872,-4.026 -14.276,-5.704 -21.702,-4.592c-19.985,2.993 -40.134,26.193 -29.527,55.756c-30.757,-6.363 -50.906,16.837 -51.07,37.044c-0.164,20.208 19.657,37.423 49.553,43.038c6.7,1.464 14.435,1.737 22.661,1.158c-3.923,0.276 -7.709,0.728 -11.292,1.385c-3.932,0.72 -7.62,1.686 -10.983,2.935c-28.815,9.747 -46.03,29.568 -43.038,49.554c2.993,19.985 26.193,40.134 55.756,29.527c-6.363,30.757 16.837,50.906 37.044,51.07c20.208,0.164 37.423,-19.657 43.038,-49.553c1.464,-6.699 1.737,-14.433 1.158,-22.657c0.579,8.224 1.932,15.844 4.32,22.271c9.746,28.816 29.568,46.031 49.553,43.038c19.986,-2.993 40.135,-26.193 29.527,-55.756c30.758,6.363 50.907,-16.837 51.071,-37.044c0.164,-20.208 -19.657,-37.423 -49.554,-43.038c-6.699,-1.464 -14.434,-1.737 -22.66,-1.158c3.923,-0.276 7.708,-0.728 11.292,-1.385c3.931,-0.72 7.62,-1.686 10.983,-2.935c28.815,-9.747 46.03,-29.568 43.037,-49.554c-2.992,-19.985 -26.192,-40.134 -55.755,-29.526c6.363,-30.758 -16.837,-50.907 -37.044,-51.071c-7.299,-0.059 -14.208,2.488 -20.32,7.177Z" style="fill:#c4ff8c;"/><path d="M2604.97,2514.86c0,-0 36.948,0.708 51.239,4.07c25.371,5.197 42.407,19.993 42.589,36.989c0.182,16.995 -16.49,36.191 -42.601,30.35c9.44,25.037 -7.232,44.232 -24.086,46.432c-16.853,2.2 -33.889,-12.595 -42.589,-36.989c-5.384,-13.818 -10.516,-50.958 -10.516,-50.958c0,0 0.662,37.494 -2.724,51.89c-5.198,25.372 -19.993,42.407 -36.989,42.589c-16.996,0.182 -36.191,-16.489 -30.351,-42.601c-25.036,9.44 -44.231,-7.231 -46.432,-24.085c-2.2,-16.854 12.596,-33.89 36.989,-42.589c13.532,-5.273 49.613,-11.168 49.613,-11.168c-0,0 -36.557,0.052 -50.628,-3.257c-25.371,-5.198 -42.407,-19.993 -42.589,-36.989c-0.182,-16.996 16.49,-36.192 42.601,-30.351c-9.44,-25.036 7.232,-44.232 24.085,-46.432c16.854,-2.2 33.89,12.596 42.59,36.989c5.281,13.555 9.904,50.146 9.904,50.146c0,-0 -0.005,-36.877 3.336,-51.078c5.198,-25.371 19.993,-42.407 36.989,-42.589c16.995,-0.182 36.191,16.49 30.35,42.601c25.037,-9.44 44.232,7.232 46.432,24.085c2.201,16.854 -12.595,33.89 -36.989,42.589c-13.613,5.305 -50.223,10.356 -50.223,10.356Z" style="fill:#6fbe22;fill-opacity:0.5;"/><path d="M2577.07,2517.25l-68.129,79.381c-25.036,9.44 -44.231,-7.231 -46.432,-24.085c-2.2,-16.854 12.596,-33.89 36.989,-42.589c10.671,-4.158 35.36,-8.702 45.326,-10.438l4.287,-0.73c9.304,-0.732 18.621,-1.276 27.959,-1.539Zm-78.575,-69.058c-9.44,-25.036 7.232,-44.232 24.085,-46.432c16.854,-2.2 33.89,12.596 42.59,36.989c5.281,13.555 9.904,50.146 9.904,50.146l1.996,28.355l-78.575,-69.058Zm78.575,69.058l79.126,69.018c9.44,25.037 -7.232,44.232 -24.086,46.432c-16.853,2.2 -33.889,-12.595 -42.589,-36.989c-5.384,-13.818 -10.516,-50.958 -10.516,-50.958l-1.935,-27.503Zm-0,-0l68.679,-79.421c25.037,-9.44 44.232,7.232 46.432,24.085c2.201,16.854 -12.595,33.89 -36.989,42.589c-13.613,5.305 -50.223,10.356 -50.223,10.356l-27.899,2.391Z" style="fill:#79c82c;fill-opacity:0.5;"/><path d="M2584.12,2448.47l-6.669,-94.764c-0.093,-1.32 0.904,-2.468 2.224,-2.56c1.32,-0.093 2.467,0.903 2.56,2.223l6.669,94.765l21.449,-1.51c0.028,-0.002 0.056,-0.003 0.083,-0.004c14.447,-0.972 26.987,9.944 28.004,24.399c1.019,14.483 -9.911,27.068 -24.394,28.088c-14.482,1.019 -27.068,-9.912 -28.087,-24.394l0.008,-0.001l-1.51,-21.458l-23.653,1.665l1.51,21.458c0.005,0.076 0.007,0.153 0.005,0.23l-0,0.01c0.883,14.381 -10.007,26.834 -24.41,27.848c-14.483,1.019 -27.068,-9.912 -28.087,-24.394c-1.018,-14.455 9.869,-27.021 24.311,-28.082c0.027,-0.002 0.055,-0.005 0.082,-0.007l21.468,-1.511l-6.669,-94.764c-0.093,-1.32 0.904,-2.467 2.224,-2.56c1.32,-0.093 2.467,0.903 2.56,2.223l6.669,94.765l23.653,-1.665Zm-49.568,8.296c0,-0 21.468,-1.511 21.468,-1.511l1.51,21.458l-0.011,0.001c0.833,11.842 -8.105,22.133 -19.947,22.967c-11.842,0.833 -22.133,-8.105 -22.967,-19.947c-0.833,-11.842 8.105,-22.133 19.947,-22.967l0,-0.001Zm76.138,-5.358l-21.45,1.509l1.511,21.458c0.003,0.057 0.005,0.113 0.006,0.17l-0,0.014c0.926,11.752 11.172,20.593 22.953,19.764c11.842,-0.834 20.78,-11.125 19.946,-22.967c-0.833,-11.842 -11.124,-20.78 -22.966,-19.947c-0,0 -0,-0.001 -0,-0.001Z" style="fill:#a8dc76;"/><path d="M2685.43,2451.33c-0.785,-1.529 -0.18,-3.409 1.35,-4.194c1.53,-0.785 3.409,-0.18 4.194,1.35c1.846,3.597 3.161,7.376 3.996,11.324c1.983,9.372 -0.926,17.327 -6.089,24.101c-4.815,6.319 -11.638,11.581 -17.922,15.988c-1.408,0.987 -3.352,0.646 -4.34,-0.762c-0.987,-1.408 -0.645,-3.352 0.762,-4.339c5.784,-4.057 12.112,-8.847 16.544,-14.663c4.085,-5.36 6.518,-11.62 4.949,-19.035c-0.721,-3.406 -1.852,-6.667 -3.444,-9.77Zm-0.762,84.932c-1.245,-1.185 -1.294,-3.159 -0.108,-4.404c1.186,-1.246 3.159,-1.294 4.404,-0.108c11.326,10.784 14.012,25.73 7.029,39.502c-0.778,1.533 -2.654,2.147 -4.188,1.37c-1.533,-0.778 -2.147,-2.654 -1.369,-4.188c5.688,-11.219 3.458,-23.387 -5.768,-32.172Zm-28.987,68.524c0.324,-1.689 1.959,-2.797 3.647,-2.472c1.689,0.324 2.796,1.958 2.472,3.647c-1.664,8.664 -5.793,16.916 -12.725,22.51c-1.338,1.08 -3.301,0.87 -4.381,-0.468c-1.079,-1.338 -0.87,-3.301 0.468,-4.381c5.783,-4.667 9.131,-11.607 10.519,-18.836Zm-153.992,-185.165c-0.88,1.477 -2.794,1.962 -4.271,1.082c-1.477,-0.88 -1.962,-2.794 -1.082,-4.271c6.862,-11.519 18.356,-20.701 32.607,-19.396c3.799,0.348 7.271,1.648 10.761,3.092c1.589,0.658 2.345,2.482 1.687,4.07c-0.657,1.589 -2.481,2.345 -4.069,1.688c-2.909,-1.204 -5.782,-2.355 -8.948,-2.645c-11.761,-1.077 -21.022,6.873 -26.685,16.38Zm-42.47,58.742c-0.394,1.674 -2.073,2.713 -3.747,2.318c-1.673,-0.394 -2.712,-2.072 -2.318,-3.746c2.551,-10.836 8.506,-21.689 18.759,-27.016c1.526,-0.793 3.408,-0.198 4.201,1.328c0.793,1.525 0.198,3.408 -1.328,4.201c-8.636,4.487 -13.418,13.788 -15.567,22.915Zm83.126,165.677c-1.675,0.389 -3.351,-0.654 -3.74,-2.329c-0.39,-1.675 0.654,-3.351 2.328,-3.74c10.164,-2.363 16.857,-9.47 21.525,-18.131c4.946,-9.176 7.642,-20.099 9.525,-29.555c0.336,-1.686 1.978,-2.782 3.664,-2.447c1.686,0.336 2.783,1.978 2.447,3.664c-1.995,10.018 -4.911,21.572 -10.151,31.295c-5.518,10.237 -13.585,18.449 -25.598,21.243Z" style="fill:#c4ff8c;"/><path d="M2596.2,2384.82c6.112,-4.689 13.021,-7.236 20.32,-7.177c20.207,0.164 43.407,20.313 37.044,51.071c29.563,-10.608 52.763,9.541 55.755,29.526c2.993,19.986 -14.222,39.807 -43.037,49.554c-3.363,1.249 -7.052,2.215 -10.983,2.935c-3.584,0.657 -7.369,1.109 -11.292,1.385c8.226,-0.579 15.961,-0.306 22.66,1.158c29.897,5.615 49.718,22.83 49.554,43.038c-0.164,20.207 -20.313,43.407 -51.071,37.044c10.608,29.563 -9.541,52.763 -29.527,55.756c-19.985,2.993 -39.807,-14.222 -49.553,-43.038c-2.388,-6.427 -3.741,-14.047 -4.32,-22.271c0.579,8.224 0.306,15.958 -1.158,22.657c-5.615,29.896 -22.83,49.717 -43.038,49.553c-20.207,-0.164 -43.407,-20.313 -37.044,-51.07c-29.563,10.607 -52.763,-9.542 -55.756,-29.527c-2.992,-19.986 14.223,-39.807 43.038,-49.554c3.363,-1.249 7.051,-2.215 10.983,-2.935c3.583,-0.657 7.369,-1.109 11.292,-1.385c-8.226,0.579 -15.961,0.306 -22.661,-1.158c-29.896,-5.615 -49.717,-22.83 -49.553,-43.038c0.164,-20.207 20.313,-43.407 51.07,-37.044c-10.607,-29.563 9.542,-52.763 29.527,-55.756c7.426,-1.112 14.83,0.566 21.702,4.592l-1.909,-27.118l56.075,-3.946l1.882,26.748Z" style="fill:url(#_Radial1);"/><g><path d="M2600.92,2292.22c-0.382,-5.433 -5.103,-9.534 -10.536,-9.151l-58.746,4.134c-5.433,0.382 -9.533,5.103 -9.151,10.536l4.611,65.516c0.382,5.433 5.103,9.533 10.536,9.151l58.746,-4.134c5.433,-0.383 9.533,-5.104 9.151,-10.537l-4.611,-65.515Z" style="fill:#2f2f2f;stroke:#000;stroke-width:4.04px;"/><path d="M2614.32,2328.15c-0.374,-5.305 -4.984,-9.31 -10.289,-8.936l-80.857,5.69c-5.305,0.373 -9.31,4.984 -8.936,10.289l1.171,16.646c0.373,5.306 4.984,9.31 10.289,8.937l80.857,-5.691c5.305,-0.373 9.31,-4.983 8.936,-10.289l-1.171,-16.646Z" style="fill:#464646;stroke:#000;stroke-width:4.04px;"/></g></g><g id="clover_bulb1" serif:id="clover_bulb"><path d="M3088.35,2174.07c2.36,-7.333 6.592,-13.358 12.628,-17.462c16.713,-11.361 47.255,-7.988 59.52,20.927c18.278,-25.542 48.821,-22.169 62.651,-7.435c13.831,14.734 10.949,40.829 -7.204,65.237c-2.055,2.94 -4.539,5.833 -7.362,8.662c-2.574,2.579 -5.43,5.104 -8.499,7.563c6.435,-5.156 12.952,-9.332 19.294,-11.939c27.782,-12.39 53.877,-9.508 65.238,7.204c11.361,16.713 7.988,47.255 -20.927,59.52c25.542,18.278 22.169,48.821 7.435,62.651c-14.734,13.831 -40.829,10.95 -65.237,-7.204c-5.621,-3.928 -11.068,-9.424 -16.223,-15.859c5.155,6.435 9.33,12.951 11.937,19.292c12.39,27.782 9.508,53.877 -7.204,65.238c-16.713,11.361 -47.256,7.988 -59.52,-20.927c-18.278,25.542 -48.821,22.169 -62.651,7.435c-13.831,-14.734 -10.949,-40.829 7.204,-65.237c2.055,-2.941 4.539,-5.834 7.362,-8.662c2.574,-2.579 5.43,-5.104 8.499,-7.563c-6.436,5.156 -12.952,9.332 -19.295,11.939c-27.781,12.389 -53.876,9.508 -65.237,-7.204c-11.361,-16.713 -7.988,-47.256 20.927,-59.52c-25.542,-18.278 -22.169,-48.821 -7.435,-62.652c5.474,-5.139 12.518,-7.97 20.46,-8.569l-16.997,-21.217l43.871,-35.145l16.765,20.927Z" style="fill:#68af23;"/><path d="M3068.42,2357.04c-27.171,8.82 -51.477,3.388 -62.814,-13.289c-11.863,-17.45 -10.173,-48.119 15.033,-64.242c-21.081,-21.234 -16.037,-51.533 -0.653,-65.974c3.894,-3.655 8.445,-6.351 13.496,-8.078l-10.631,-13.27c-2.152,-2.686 -1.719,-6.607 0.967,-8.759l43.872,-35.145c2.685,-2.152 6.607,-1.719 8.758,0.967l10.509,13.118c2.745,-4.335 6.264,-8.018 10.518,-10.91c17.451,-11.863 48.12,-10.173 64.243,15.033c21.234,-21.081 51.533,-16.037 65.974,-0.653c13.802,14.704 13.798,39.614 -0.737,64.201c27.171,-8.82 51.477,-3.388 62.814,13.288c11.862,17.451 10.173,48.12 -15.034,64.243c21.081,21.234 16.038,51.533 0.653,65.974c-14.703,13.803 -39.612,13.799 -64.2,-0.737c8.82,27.171 3.388,51.477 -13.289,62.814c-17.45,11.862 -48.119,10.173 -64.242,-15.034c-21.234,21.081 -51.533,16.038 -65.974,0.653c-13.803,-14.703 -13.799,-39.613 0.737,-64.2Zm19.93,-182.967l-16.765,-20.927l-43.871,35.145l16.997,21.217c-7.942,0.599 -14.986,3.43 -20.46,8.569c-14.734,13.831 -18.107,44.374 7.435,62.652c-28.915,12.264 -32.288,42.807 -20.927,59.52c11.361,16.712 37.456,19.593 65.237,7.204c6.343,-2.607 12.859,-6.783 19.295,-11.939c-3.069,2.459 -5.925,4.984 -8.499,7.563c-2.823,2.828 -5.307,5.721 -7.362,8.662c-18.153,24.408 -21.035,50.503 -7.204,65.237c13.83,14.734 44.373,18.107 62.651,-7.435c12.264,28.915 42.807,32.288 59.52,20.927c16.712,-11.361 19.594,-37.456 7.204,-65.238c-2.607,-6.341 -6.782,-12.857 -11.937,-19.292c5.155,6.435 10.602,11.931 16.223,15.859c24.408,18.154 50.503,21.035 65.237,7.204c14.734,-13.83 18.107,-44.373 -7.435,-62.651c28.915,-12.265 32.288,-42.807 20.927,-59.52c-11.361,-16.712 -37.456,-19.594 -65.238,-7.204c-6.342,2.607 -12.859,6.783 -19.294,11.939c3.069,-2.459 5.925,-4.984 8.499,-7.563c2.823,-2.829 5.307,-5.722 7.362,-8.662c18.153,-24.408 21.035,-50.503 7.204,-65.237c-13.83,-14.734 -44.373,-18.107 -62.651,7.435c-12.265,-28.915 -42.807,-32.288 -59.52,-20.927c-6.036,4.104 -10.268,10.129 -12.628,17.462Z" style="fill:#c4ff8c;"/><path d="M3169.54,2276.03c-0,0 30.789,-20.436 44.454,-25.801c23.823,-10.16 46.251,-7.683 56.069,6.192c9.818,13.874 7.027,39.145 -17.77,49.196c22.007,15.22 19.216,40.491 6.607,51.888c-12.609,11.397 -35.037,8.92 -56.069,-6.192c-12.289,-8.302 -37.638,-35.926 -37.638,-35.926c0,-0 21.875,30.459 27.279,44.225c10.159,23.822 7.683,46.25 -6.191,56.068c-13.874,9.818 -39.145,7.027 -49.196,-17.77c-15.22,22.007 -40.491,19.216 -51.889,6.607c-11.397,-12.609 -8.92,-35.037 6.192,-56.068c8.13,-12.035 34.449,-37.409 34.449,-37.409c0,0 -30.035,20.84 -43.49,26.122c-23.823,10.16 -46.25,7.683 -56.068,-6.191c-9.819,-13.874 -7.028,-39.145 17.769,-49.196c-22.006,-15.22 -19.215,-40.491 -6.606,-51.889c12.609,-11.397 35.036,-8.92 56.068,6.192c12.055,8.143 36.673,35.606 36.673,35.606c0,0 -20.983,-30.325 -26.314,-43.904c-10.159,-23.823 -7.682,-46.25 6.192,-56.069c13.874,-9.818 39.145,-7.027 49.196,17.77c15.22,-22.007 40.491,-19.216 51.888,-6.607c11.398,12.609 8.921,35.037 -6.192,56.069c-8.178,12.107 -35.413,37.087 -35.413,37.087Z" style="fill:#6fbe22;fill-opacity:0.5;"/><path d="M3147.95,2293.87l-10.87,104.042c-15.22,22.007 -40.491,19.216 -51.889,6.607c-11.397,-12.609 -8.92,-35.037 6.192,-56.068c6.41,-9.49 24.13,-27.273 31.338,-34.37l3.111,-3.039c7.235,-5.895 14.589,-11.643 22.118,-17.172Zm-103.907,-12.093c-22.006,-15.22 -19.215,-40.491 -6.606,-51.889c12.609,-11.397 35.036,-8.92 56.068,6.192c12.055,8.143 36.673,35.606 36.673,35.606l17.772,22.184l-103.907,-12.093Zm103.907,12.093l104.338,11.749c22.007,15.22 19.216,40.491 6.607,51.888c-12.609,11.397 -35.037,8.92 -56.069,-6.192c-12.289,-8.302 -37.638,-35.926 -37.638,-35.926l-17.238,-21.519Zm0,0l11.302,-104.387c15.22,-22.007 40.491,-19.216 51.888,-6.607c11.398,12.609 8.921,35.037 -6.192,56.069c-8.178,12.107 -35.413,37.087 -35.413,37.087l-21.585,17.838Z" style="fill:#79c82c;fill-opacity:0.5;"/><path d="M3114.62,2233.29l-59.395,-74.141c-0.827,-1.033 -0.66,-2.544 0.372,-3.371c1.033,-0.827 2.544,-0.661 3.371,0.372l59.395,74.142l16.781,-13.444c0.022,-0.017 0.044,-0.034 0.066,-0.05c11.329,-9.019 27.852,-7.174 36.912,4.135c9.077,11.331 7.247,27.9 -4.084,36.977c-11.33,9.077 -27.899,7.247 -36.976,-4.084l0.006,-0.005l-13.45,-16.788l-18.505,14.825l13.449,16.788c0.048,0.061 0.093,0.123 0.135,0.187l0.006,0.008c8.907,11.325 7.036,27.762 -4.233,36.789c-11.331,9.077 -27.9,7.247 -36.977,-4.083c-9.06,-11.31 -7.254,-27.837 4.019,-36.925c0.021,-0.018 0.042,-0.036 0.064,-0.053l16.796,-13.455l-59.395,-74.142c-0.828,-1.033 -0.661,-2.543 0.372,-3.371c1.033,-0.827 2.543,-0.66 3.37,0.372l59.395,74.142l18.506,-14.825Zm-36.046,35.021c0,0 16.796,-13.455 16.796,-13.455l13.449,16.789l-0.008,0.007c7.422,9.265 5.926,22.813 -3.339,30.235c-9.265,7.423 -22.814,5.926 -30.236,-3.339c-7.422,-9.265 -5.926,-22.813 3.339,-30.235l-0.001,-0.002Zm59.569,-47.72l-16.782,13.444l13.449,16.788c0.036,0.044 0.069,0.09 0.102,0.136l0.008,0.012c7.448,9.137 20.903,10.58 30.12,3.196c9.265,-7.422 10.761,-20.971 3.339,-30.236c-7.422,-9.265 -20.97,-10.761 -30.236,-3.339c0,0 -0,-0.001 -0,-0.001Z" style="fill:#a8dc76;"/><path d="M3199.56,2178.01c-1.516,-0.812 -2.088,-2.702 -1.276,-4.218c0.811,-1.515 2.701,-2.087 4.217,-1.276c3.564,1.909 6.795,4.269 9.728,7.041c6.963,6.579 9.096,14.776 8.704,23.285c-0.366,7.935 -2.984,16.145 -5.645,23.344c-0.596,1.612 -2.389,2.438 -4.002,1.842c-1.613,-0.596 -2.438,-2.39 -1.842,-4.002c2.449,-6.627 4.928,-14.167 5.265,-21.471c0.31,-6.732 -1.251,-13.264 -6.759,-18.47c-2.53,-2.391 -5.316,-4.429 -8.39,-6.075Zm47.689,70.283c-1.698,-0.267 -2.861,-1.863 -2.594,-3.561c0.267,-1.699 1.862,-2.862 3.561,-2.595c15.45,2.426 26.161,13.19 28.253,28.489c0.232,1.703 -0.962,3.276 -2.665,3.509c-1.704,0.232 -3.276,-0.962 -3.509,-2.665c-1.704,-12.463 -10.46,-21.201 -23.046,-23.177Zm15.143,72.844c-0.693,-1.573 0.02,-3.413 1.594,-4.107c1.573,-0.694 3.414,0.02 4.107,1.593c3.561,8.072 4.859,17.208 2.341,25.751c-0.486,1.65 -2.22,2.594 -3.869,2.108c-1.649,-0.486 -2.594,-2.22 -2.108,-3.869c2.101,-7.129 0.906,-14.741 -2.065,-21.476Zm-231.983,-64.678c0.117,1.716 -1.181,3.203 -2.897,3.32c-1.715,0.117 -3.203,-1.181 -3.32,-2.897c-0.909,-13.376 3.32,-27.467 15.783,-34.501c3.322,-1.875 6.917,-2.781 10.609,-3.579c1.681,-0.363 3.34,0.707 3.703,2.388c0.363,1.68 -0.706,3.34 -2.387,3.703c-3.076,0.665 -6.094,1.352 -8.863,2.914c-10.285,5.805 -13.379,17.613 -12.628,28.652Zm-1.51,72.472c0.628,1.6 -0.162,3.41 -1.762,4.038c-1.601,0.628 -3.411,-0.162 -4.039,-1.763c-4.066,-10.362 -5.343,-22.675 0.059,-32.89c0.804,-1.52 2.69,-2.101 4.21,-1.297c1.52,0.803 2.102,2.69 1.298,4.21c-4.55,8.603 -3.191,18.973 0.234,27.702Zm162.615,88.965c-1.156,1.273 -3.127,1.369 -4.4,0.213c-1.274,-1.156 -1.369,-3.128 -0.213,-4.401c7.014,-7.725 8.476,-17.377 7.388,-27.156c-1.153,-10.36 -5.15,-20.877 -8.98,-29.725c-0.683,-1.578 0.043,-3.414 1.621,-4.097c1.578,-0.683 3.414,0.044 4.097,1.621c4.058,9.375 8.233,20.535 9.455,31.512c1.285,11.558 -0.677,22.902 -8.968,32.033Z" style="fill:#c4ff8c;"/><path d="M3088.35,2174.07c2.36,-7.333 6.592,-13.358 12.628,-17.462c16.713,-11.361 47.255,-7.988 59.52,20.927c18.278,-25.542 48.821,-22.169 62.651,-7.435c13.831,14.734 10.949,40.829 -7.204,65.237c-2.055,2.94 -4.539,5.833 -7.362,8.662c-2.574,2.579 -5.43,5.104 -8.499,7.563c6.435,-5.156 12.952,-9.332 19.294,-11.939c27.782,-12.39 53.877,-9.508 65.238,7.204c11.361,16.713 7.988,47.255 -20.927,59.52c25.542,18.278 22.169,48.821 7.435,62.651c-14.734,13.831 -40.829,10.95 -65.237,-7.204c-5.621,-3.928 -11.068,-9.424 -16.223,-15.859c5.155,6.435 9.33,12.951 11.937,19.292c12.39,27.782 9.508,53.877 -7.204,65.238c-16.713,11.361 -47.256,7.988 -59.52,-20.927c-18.278,25.542 -48.821,22.169 -62.651,7.435c-13.831,-14.734 -10.949,-40.829 7.204,-65.237c2.055,-2.941 4.539,-5.834 7.362,-8.662c2.574,-2.579 5.43,-5.104 8.499,-7.563c-6.436,5.156 -12.952,9.332 -19.295,11.939c-27.781,12.389 -53.876,9.508 -65.237,-7.204c-11.361,-16.713 -7.988,-47.256 20.927,-59.52c-25.542,-18.278 -22.169,-48.821 -7.435,-62.652c5.474,-5.139 12.518,-7.97 20.46,-8.569l-16.997,-21.217l43.871,-35.145l16.765,20.927Z" style="fill:url(#_Radial2);"/><g><path d="M3039.55,2095.23c-3.405,-4.251 -9.621,-4.937 -13.871,-1.532l-45.962,36.82c-4.25,3.405 -4.937,9.62 -1.532,13.871l41.063,51.258c3.405,4.25 9.621,4.937 13.871,1.532l45.962,-36.82c4.251,-3.405 4.937,-9.621 1.532,-13.871l-41.063,-51.258Z" style="fill:#2f2f2f;stroke:#000;stroke-width:4.04px;"/><path d="M3071.01,2117.15c-3.325,-4.15 -9.395,-4.821 -13.546,-1.495l-63.26,50.678c-4.151,3.325 -4.821,9.394 -1.496,13.545l10.433,13.024c3.325,4.151 9.395,4.821 13.546,1.496l63.261,-50.678c4.15,-3.325 4.821,-9.395 1.495,-13.546l-10.433,-13.024Z" style="fill:#464646;stroke:#000;stroke-width:4.04px;"/></g></g><g id="clover_bulb2" serif:id="clover_bulb"><path d="M1974.91,2237.64c-3.104,-7.05 -7.935,-12.607 -14.363,-16.065c-17.795,-9.576 -47.827,-3.07 -57.043,26.956c-20.816,-23.52 -50.847,-17.014 -63.084,-0.931c-12.236,16.082 -6.678,41.74 13.897,64.145c2.347,2.713 5.117,5.334 8.217,7.856c2.826,2.3 5.927,4.517 9.234,6.646c-6.934,-4.464 -13.846,-7.946 -20.424,-9.884c-28.911,-9.457 -54.57,-3.899 -64.146,13.896c-9.576,17.796 -3.069,47.827 26.957,57.043c-23.52,20.816 -17.014,50.848 -0.932,63.084c16.083,12.238 41.741,6.679 64.146,-13.896c5.185,-4.487 10.036,-10.516 14.5,-17.448c-4.464,6.932 -7.944,13.844 -9.883,20.421c-9.457,28.911 -3.899,54.569 13.897,64.145c17.795,9.576 47.827,3.07 57.043,-26.956c20.816,23.52 50.848,17.014 63.084,0.931c12.237,-16.082 6.678,-41.74 -13.897,-64.145c-2.347,-2.713 -5.116,-5.334 -8.216,-7.857c-2.827,-2.299 -5.928,-4.516 -9.234,-6.645c6.933,4.464 13.845,7.946 20.423,9.884c28.912,9.457 54.57,3.899 64.146,-13.897c9.576,-17.795 3.07,-47.827 -26.956,-57.042c23.519,-20.816 17.013,-50.848 0.931,-63.085c-5.976,-4.546 -13.273,-6.636 -21.235,-6.412l14.717,-22.858l-47.263,-30.431l-14.516,22.545Z" style="fill:#68af23;"/><path d="M2013.62,2417.57c27.936,5.969 51.552,-1.942 61.108,-19.699c9.999,-18.581 5.154,-48.913 -21.582,-62.348c18.778,-23.296 10.636,-52.913 -6.157,-65.69c-4.25,-3.234 -9.055,-5.446 -14.257,-6.642l9.205,-14.296c1.863,-2.894 1.028,-6.75 -1.866,-8.613l-47.263,-30.431c-2.893,-1.863 -6.749,-1.027 -8.612,1.866l-9.1,14.133c-3.177,-4.03 -7.057,-7.329 -11.587,-9.767c-18.582,-9.999 -48.913,-5.154 -62.349,21.581c-23.296,-18.778 -52.912,-10.635 -65.69,6.158c-12.211,16.049 -9.637,40.825 7.358,63.781c-27.936,-5.969 -51.552,1.942 -61.107,19.699c-9.999,18.581 -5.155,48.912 21.581,62.348c-18.778,23.296 -10.635,52.913 6.157,65.69c16.05,12.212 40.825,9.638 63.782,-7.357c-5.97,27.936 1.941,51.552 19.699,61.107c18.581,9.999 48.912,5.154 62.348,-21.581c23.296,18.777 52.913,10.635 65.69,-6.158c12.211,-16.049 9.637,-40.825 -7.358,-63.781Zm-38.701,-179.935l14.516,-22.545l47.263,30.431l-14.717,22.858c7.962,-0.224 15.259,1.866 21.235,6.412c16.082,12.237 22.588,42.269 -0.931,63.085c30.026,9.215 36.532,39.247 26.956,57.042c-9.576,17.796 -35.234,23.354 -64.146,13.897c-6.578,-1.938 -13.49,-5.42 -20.423,-9.884c3.306,2.129 6.407,4.346 9.234,6.645c3.1,2.523 5.869,5.144 8.216,7.857c20.575,22.405 26.134,48.063 13.897,64.145c-12.236,16.083 -42.268,22.589 -63.084,-0.931c-9.216,30.026 -39.248,36.532 -57.043,26.956c-17.796,-9.576 -23.354,-35.234 -13.897,-64.145c1.939,-6.577 5.419,-13.489 9.883,-20.421c-4.464,6.932 -9.315,12.961 -14.5,17.448c-22.405,20.575 -48.063,26.134 -64.146,13.896c-16.082,-12.236 -22.588,-42.268 0.932,-63.084c-30.026,-9.216 -36.533,-39.247 -26.957,-57.043c9.576,-17.795 35.235,-23.353 64.146,-13.896c6.578,1.938 13.49,5.42 20.424,9.884c-3.307,-2.129 -6.408,-4.346 -9.234,-6.646c-3.1,-2.522 -5.87,-5.143 -8.217,-7.856c-20.575,-22.405 -26.133,-48.063 -13.897,-64.145c12.237,-16.083 42.268,-22.589 63.084,0.931c9.216,-30.026 39.248,-36.532 57.043,-26.956c6.428,3.458 11.259,9.015 14.363,16.065Z" style="fill:#c4ff8c;"/><path d="M1904.68,2347.43c0,0 -32.734,-17.15 -46.879,-21.077c-24.744,-7.647 -46.796,-2.869 -55.131,11.944c-8.334,14.813 -2.951,39.661 22.751,47.1c-20.319,17.409 -14.935,42.257 -1.218,52.293c13.718,10.035 35.77,5.258 55.131,-11.944c11.367,-9.525 33.73,-39.618 33.73,-39.618c0,0 -18.615,32.554 -22.57,46.804c-7.647,24.743 -2.87,46.796 11.943,55.13c14.813,8.334 39.661,2.951 47.101,-22.751c17.409,20.319 42.257,14.936 52.292,1.218c10.036,-13.718 5.259,-35.77 -11.943,-55.13c-9.328,-11.132 -38.125,-33.654 -38.125,-33.654c-0,-0 32.025,17.629 45.953,21.495c24.744,7.647 46.796,2.87 55.13,-11.944c8.335,-14.813 2.952,-39.661 -22.75,-47.1c20.318,-17.409 14.935,-42.257 1.217,-52.293c-13.717,-10.035 -35.769,-5.258 -55.13,11.944c-11.15,9.343 -32.804,39.2 -32.804,39.2c0,-0 17.742,-32.329 21.644,-46.385c7.647,-24.744 2.869,-46.796 -11.943,-55.131c-14.813,-8.334 -39.662,-2.951 -47.101,22.751c-17.409,-20.319 -42.257,-14.935 -52.292,-1.218c-10.036,13.718 -5.259,35.77 11.943,55.131c9.384,11.198 39.051,33.235 39.051,33.235Z" style="fill:#6fbe22;fill-opacity:0.5;"/><path d="M1927.99,2362.95l21.548,102.365c17.409,20.319 42.257,14.936 52.292,1.218c10.036,-13.718 5.259,-35.77 -11.943,-55.13c-7.355,-8.778 -26.815,-24.637 -34.718,-30.953l-3.407,-2.701c-7.805,-5.118 -15.712,-10.077 -23.772,-14.799Zm102.105,-22.75c20.318,-17.409 14.935,-42.257 1.217,-52.293c-13.717,-10.035 -35.769,-5.258 -55.13,11.944c-11.15,9.343 -32.804,39.2 -32.804,39.2l-15.388,23.899l102.105,-22.75Zm-102.105,22.75l-102.569,22.451c-20.319,17.409 -14.935,42.257 -1.218,52.293c13.718,10.035 35.77,5.258 55.131,-11.944c11.367,-9.525 33.73,-39.618 33.73,-39.618l14.926,-23.182Zm0,0l-22.012,-102.664c-17.409,-20.319 -42.257,-14.935 -52.292,-1.218c-10.036,13.718 -5.259,35.77 11.943,55.131c9.384,11.198 39.051,33.235 39.051,33.235l23.31,15.516Z" style="fill:#79c82c;fill-opacity:0.5;"/><path d="M1954.89,2299.26l51.428,-79.874c0.717,-1.113 0.395,-2.598 -0.718,-3.315c-1.113,-0.716 -2.598,-0.394 -3.314,0.718l-51.428,79.875l-18.079,-11.641c-0.024,-0.015 -0.047,-0.029 -0.071,-0.043c-12.199,-7.802 -28.443,-4.262 -36.288,7.921c-7.86,12.207 -4.33,28.499 7.877,36.358c12.207,7.86 28.498,4.331 36.358,-7.876l-0.006,-0.005l11.645,-18.086l19.936,12.837l-11.645,18.086c-0.041,0.065 -0.08,0.131 -0.115,0.199l-0.005,0.009c-7.691,12.184 -4.134,28.34 8.006,36.156c12.207,7.86 28.499,4.33 36.358,-7.877c7.845,-12.184 4.344,-28.437 -7.807,-36.313c-0.022,-0.016 -0.045,-0.031 -0.069,-0.046l-18.094,-11.65l51.428,-79.875c0.716,-1.113 0.395,-2.598 -0.718,-3.314c-1.113,-0.716 -2.598,-0.395 -3.314,0.718l-51.429,79.874l-19.936,-12.836Zm39.467,31.115c-0,0 -18.095,-11.65 -18.095,-11.65l-11.645,18.086l0.009,0.006c-6.426,9.981 -3.54,23.303 6.441,29.73c9.982,6.427 23.303,3.54 29.73,-6.441c6.427,-9.982 3.541,-23.303 -6.441,-29.73l0.001,-0.001Zm-64.174,-41.319l18.079,11.64l-11.646,18.086c-0.03,0.048 -0.059,0.096 -0.086,0.146l-0.007,0.012c-6.465,9.858 -19.7,12.681 -29.63,6.287c-9.981,-6.426 -12.868,-19.748 -6.441,-29.73c6.427,-9.981 19.748,-12.867 29.73,-6.44c0,-0 0.001,-0.001 0.001,-0.001Z" style="fill:#a8dc76;"/><path d="M1864.7,2253.03c1.424,-0.964 1.798,-2.902 0.834,-4.326c-0.963,-1.425 -2.902,-1.798 -4.326,-0.835c-3.348,2.266 -6.318,4.947 -8.95,8.007c-6.246,7.263 -7.522,15.636 -6.254,24.058c1.182,7.856 4.633,15.752 8.022,22.638c0.76,1.542 2.629,2.178 4.171,1.419c1.543,-0.759 2.179,-2.628 1.42,-4.171c-3.12,-6.338 -6.364,-13.582 -7.452,-20.813c-1.003,-6.664 -0.125,-13.322 4.817,-19.068c2.27,-2.64 4.83,-4.955 7.718,-6.909Zm-40.183,74.828c1.662,-0.44 2.654,-2.148 2.213,-3.81c-0.44,-1.662 -2.148,-2.653 -3.81,-2.213c-15.117,4.007 -24.66,15.819 -25.162,31.252c-0.056,1.719 1.294,3.159 3.013,3.215c1.718,0.056 3.159,-1.294 3.215,-3.013c0.408,-12.572 8.216,-22.167 20.531,-25.431Zm-7.546,74.019c0.527,-1.637 -0.373,-3.394 -2.009,-3.922c-1.636,-0.528 -3.394,0.372 -3.921,2.009c-2.709,8.396 -3.058,17.617 0.328,25.855c0.654,1.591 2.476,2.351 4.066,1.697c1.591,-0.653 2.351,-2.475 1.697,-4.066c-2.825,-6.873 -2.421,-14.568 -0.161,-21.573Zm224.072,-88.269c0.061,1.719 1.505,3.064 3.224,3.003c1.718,-0.06 3.064,-1.505 3.003,-3.223c-0.476,-13.4 -6.136,-26.979 -19.258,-32.689c-3.498,-1.523 -7.167,-2.052 -10.922,-2.465c-1.709,-0.188 -3.249,1.047 -3.437,2.757c-0.188,1.709 1.047,3.249 2.756,3.437c3.129,0.343 6.202,0.716 9.117,1.984c10.829,4.713 15.124,16.138 15.517,27.196Zm8.979,71.929c-0.459,1.657 0.513,3.375 2.17,3.835c1.657,0.459 3.375,-0.513 3.834,-2.17c2.976,-10.727 2.975,-23.106 -3.451,-32.708c-0.956,-1.429 -2.893,-1.813 -4.322,-0.857c-1.429,0.957 -1.813,2.893 -0.856,4.322c5.413,8.088 5.131,18.543 2.625,27.578Zm-152.568,105.269c1.281,1.147 3.252,1.038 4.399,-0.242c1.147,-1.281 1.038,-3.253 -0.243,-4.4c-7.774,-6.96 -10.223,-16.41 -10.15,-26.249c0.078,-10.423 2.968,-21.297 5.865,-30.493c0.517,-1.64 -0.395,-3.391 -2.035,-3.907c-1.64,-0.517 -3.391,0.395 -3.908,2.035c-3.069,9.743 -6.071,21.275 -6.153,32.319c-0.086,11.629 3.036,22.71 12.225,30.937Z" style="fill:#c4ff8c;"/><path d="M1974.91,2237.64c-3.104,-7.05 -7.935,-12.607 -14.363,-16.065c-17.795,-9.576 -47.827,-3.07 -57.043,26.956c-20.816,-23.52 -50.847,-17.014 -63.084,-0.931c-12.236,16.082 -6.678,41.74 13.897,64.145c2.347,2.713 5.117,5.334 8.217,7.856c2.826,2.3 5.927,4.517 9.234,6.646c-6.934,-4.464 -13.846,-7.946 -20.424,-9.884c-28.911,-9.457 -54.57,-3.899 -64.146,13.896c-9.576,17.796 -3.069,47.827 26.957,57.043c-23.52,20.816 -17.014,50.848 -0.932,63.084c16.083,12.238 41.741,6.679 64.146,-13.896c5.185,-4.487 10.036,-10.516 14.5,-17.448c-4.464,6.932 -7.944,13.844 -9.883,20.421c-9.457,28.911 -3.899,54.569 13.897,64.145c17.795,9.576 47.827,3.07 57.043,-26.956c20.816,23.52 50.848,17.014 63.084,0.931c12.237,-16.082 6.678,-41.74 -13.897,-64.145c-2.347,-2.713 -5.116,-5.334 -8.216,-7.857c-2.827,-2.299 -5.928,-4.516 -9.234,-6.645c6.933,4.464 13.845,7.946 20.423,9.884c28.912,9.457 54.57,3.899 64.146,-13.897c9.576,-17.795 3.07,-47.827 -26.956,-57.042c23.519,-20.816 17.013,-50.848 0.931,-63.085c-5.976,-4.546 -13.273,-6.636 -21.235,-6.412l14.717,-22.858l-47.263,-30.431l-14.516,22.545Z" style="fill:url(#_Radial3);"/><g><path d="M2015.32,2154.18c2.948,-4.579 9.059,-5.903 13.639,-2.955l49.515,31.881c4.579,2.948 5.903,9.06 2.955,13.639l-35.555,55.221c-2.949,4.58 -9.06,5.904 -13.639,2.955l-49.516,-31.881c-4.579,-2.948 -5.903,-9.06 -2.954,-13.639l35.555,-55.221Z" style="fill:#2f2f2f;stroke:#000;stroke-width:4.04px;"/><path d="M1986.28,2179.24c2.88,-4.472 8.848,-5.765 13.319,-2.885l68.152,43.88c4.472,2.879 5.765,8.847 2.886,13.319l-9.034,14.031c-2.879,4.472 -8.847,5.765 -13.319,2.885l-68.152,-43.88c-4.472,-2.879 -5.765,-8.847 -2.886,-13.319l9.034,-14.031Z" style="fill:#464646;stroke:#000;stroke-width:4.04px;"/></g></g><g id="clover_bulb3" serif:id="clover_bulb"><path d="M671.783,2241.93c-3.104,-7.05 -7.935,-12.607 -14.363,-16.065c-17.795,-9.576 -47.827,-3.07 -57.042,26.956c-20.816,-23.52 -50.848,-17.013 -63.085,-0.931c-12.236,16.082 -6.677,41.74 13.897,64.145c2.347,2.713 5.117,5.334 8.217,7.857c2.826,2.299 5.927,4.516 9.234,6.645c-6.934,-4.464 -13.846,-7.946 -20.424,-9.884c-28.911,-9.457 -54.569,-3.899 -64.145,13.897c-9.576,17.795 -3.07,47.827 26.956,57.042c-23.52,20.816 -17.014,50.848 -0.931,63.085c16.082,12.237 41.74,6.678 64.145,-13.897c5.185,-4.487 10.036,-10.516 14.5,-17.448c-4.463,6.932 -7.944,13.844 -9.883,20.421c-9.457,28.911 -3.898,54.569 13.897,64.145c17.796,9.576 47.827,3.07 57.043,-26.956c20.816,23.52 50.848,17.014 63.084,0.931c12.237,-16.082 6.678,-41.74 -13.897,-64.145c-2.347,-2.713 -5.116,-5.334 -8.216,-7.856c-2.827,-2.3 -5.928,-4.517 -9.234,-6.646c6.933,4.464 13.845,7.946 20.423,9.884c28.912,9.458 54.57,3.899 64.146,-13.896c9.576,-17.796 3.07,-47.827 -26.956,-57.043c23.52,-20.816 17.013,-50.848 0.931,-63.084c-5.976,-4.547 -13.273,-6.637 -21.235,-6.413l14.717,-22.858l-47.263,-30.431l-14.516,22.545Z" style="fill:#68af23;"/><path d="M710.485,2421.87c27.935,5.969 51.551,-1.942 61.107,-19.699c9.999,-18.581 5.154,-48.912 -21.581,-62.348c18.777,-23.296 10.635,-52.913 -6.158,-65.69c-4.249,-3.234 -9.054,-5.446 -14.256,-6.642l9.204,-14.296c1.863,-2.894 1.028,-6.749 -1.865,-8.612l-47.264,-30.432c-2.893,-1.863 -6.749,-1.027 -8.612,1.866l-9.1,14.133c-3.177,-4.03 -7.057,-7.329 -11.587,-9.767c-18.582,-9.999 -48.913,-5.154 -62.349,21.581c-23.296,-18.777 -52.912,-10.635 -65.689,6.158c-12.212,16.049 -9.638,40.825 7.357,63.781c-27.936,-5.969 -51.552,1.942 -61.107,19.699c-9.999,18.581 -5.154,48.913 21.581,62.348c-18.778,23.296 -10.635,52.913 6.158,65.69c16.049,12.212 40.824,9.638 63.781,-7.357c-5.97,27.936 1.941,51.552 19.699,61.107c18.581,9.999 48.912,5.154 62.348,-21.581c23.296,18.778 52.913,10.635 65.69,-6.158c12.211,-16.049 9.637,-40.825 -7.357,-63.781Zm-38.702,-179.935l14.516,-22.545l47.263,30.431l-14.717,22.858c7.962,-0.224 15.259,1.866 21.235,6.413c16.082,12.236 22.589,42.268 -0.931,63.084c30.026,9.216 36.532,39.247 26.956,57.043c-9.576,17.795 -35.234,23.354 -64.146,13.896c-6.578,-1.938 -13.49,-5.42 -20.423,-9.884c3.306,2.129 6.407,4.346 9.234,6.646c3.1,2.522 5.869,5.143 8.216,7.856c20.575,22.405 26.134,48.063 13.897,64.145c-12.236,16.083 -42.268,22.589 -63.084,-0.931c-9.216,30.026 -39.247,36.532 -57.043,26.956c-17.795,-9.576 -23.354,-35.234 -13.897,-64.145c1.939,-6.577 5.42,-13.489 9.883,-20.421c-4.464,6.932 -9.315,12.961 -14.5,17.448c-22.405,20.575 -48.063,26.134 -64.145,13.897c-16.083,-12.237 -22.589,-42.269 0.931,-63.085c-30.026,-9.215 -36.532,-39.247 -26.956,-57.042c9.576,-17.796 35.234,-23.354 64.145,-13.897c6.578,1.938 13.49,5.42 20.424,9.884c-3.307,-2.129 -6.408,-4.346 -9.234,-6.645c-3.1,-2.523 -5.87,-5.144 -8.217,-7.857c-20.574,-22.405 -26.133,-48.063 -13.897,-64.145c12.237,-16.082 42.269,-22.589 63.085,0.931c9.215,-30.026 39.247,-36.532 57.042,-26.956c6.428,3.458 11.259,9.015 14.363,16.065Z" style="fill:#c4ff8c;"/><path d="M601.547,2351.72c0,0 -32.733,-17.15 -46.879,-21.077c-24.744,-7.647 -46.796,-2.869 -55.13,11.944c-8.335,14.813 -2.952,39.661 22.75,47.1c-20.318,17.409 -14.935,42.258 -1.217,52.293c13.717,10.035 35.769,5.258 55.13,-11.944c11.367,-9.525 33.73,-39.618 33.73,-39.618c0,0 -18.615,32.554 -22.57,46.804c-7.647,24.743 -2.869,46.796 11.943,55.13c14.813,8.334 39.662,2.951 47.101,-22.751c17.409,20.319 42.257,14.936 52.292,1.218c10.036,-13.718 5.259,-35.77 -11.943,-55.13c-9.328,-11.132 -38.125,-33.654 -38.125,-33.654c0,-0 32.025,17.629 45.953,21.495c24.744,7.647 46.796,2.87 55.131,-11.944c8.334,-14.813 2.951,-39.661 -22.751,-47.1c20.319,-17.409 14.935,-42.257 1.218,-52.293c-13.718,-10.035 -35.77,-5.258 -55.131,11.944c-11.15,9.344 -32.804,39.2 -32.804,39.2c0,-0 17.743,-32.328 21.644,-46.385c7.647,-24.744 2.87,-46.796 -11.943,-55.131c-14.813,-8.334 -39.661,-2.951 -47.1,22.751c-17.41,-20.319 -42.258,-14.935 -52.293,-1.218c-10.036,13.718 -5.259,35.77 11.943,55.131c9.385,11.199 39.051,33.235 39.051,33.235Z" style="fill:#6fbe22;fill-opacity:0.5;"/><path d="M624.857,2367.24l21.548,102.365c17.409,20.319 42.257,14.936 52.292,1.218c10.036,-13.718 5.259,-35.77 -11.943,-55.13c-7.355,-8.778 -26.815,-24.637 -34.717,-30.953l-3.408,-2.701c-7.805,-5.118 -15.712,-10.077 -23.772,-14.799Zm102.105,-22.75c20.319,-17.409 14.935,-42.257 1.218,-52.293c-13.718,-10.035 -35.77,-5.258 -55.131,11.944c-11.15,9.344 -32.804,39.2 -32.804,39.2l-15.388,23.899l102.105,-22.75Zm-102.105,22.75l-102.569,22.451c-20.318,17.409 -14.935,42.258 -1.217,52.293c13.717,10.035 35.769,5.258 55.13,-11.944c11.367,-9.525 33.73,-39.618 33.73,-39.618l14.926,-23.182Zm0,0l-22.011,-102.664c-17.41,-20.319 -42.258,-14.935 -52.293,-1.218c-10.036,13.718 -5.259,35.77 11.943,55.131c9.385,11.199 39.051,33.235 39.051,33.235l23.31,15.516Z" style="fill:#79c82c;fill-opacity:0.5;"/><path d="M651.756,2303.55l51.428,-79.874c0.717,-1.113 0.395,-2.598 -0.718,-3.314c-1.112,-0.717 -2.597,-0.395 -3.314,0.718l-51.428,79.874l-18.079,-11.641c-0.023,-0.015 -0.047,-0.029 -0.071,-0.043c-12.198,-7.802 -28.443,-4.262 -36.288,7.921c-7.859,12.207 -4.33,28.499 7.877,36.359c12.207,7.859 28.499,4.33 36.358,-7.877l-0.006,-0.004l11.645,-18.087l19.936,12.837l-11.645,18.086c-0.041,0.065 -0.08,0.131 -0.115,0.199l-0.005,0.009c-7.691,12.184 -4.134,28.34 8.006,36.156c12.207,7.86 28.499,4.33 36.358,-7.877c7.845,-12.184 4.344,-28.436 -7.807,-36.313c-0.022,-0.015 -0.045,-0.031 -0.069,-0.046l-18.094,-11.65l51.428,-79.875c0.716,-1.112 0.395,-2.597 -0.718,-3.314c-1.113,-0.716 -2.598,-0.395 -3.314,0.718l-51.428,79.874l-19.937,-12.836Zm39.467,31.115c0,0 -18.094,-11.65 -18.094,-11.65l-11.646,18.086l0.01,0.006c-6.427,9.982 -3.541,23.303 6.44,29.73c9.982,6.427 23.303,3.541 29.73,-6.441c6.427,-9.982 3.541,-23.303 -6.441,-29.73l0.001,-0.001Zm-64.174,-41.319l18.079,11.64l-11.645,18.086c-0.031,0.048 -0.06,0.096 -0.087,0.146l-0.007,0.012c-6.465,9.858 -19.7,12.681 -29.63,6.287c-9.981,-6.426 -12.867,-19.748 -6.441,-29.729c6.427,-9.982 19.749,-12.868 29.73,-6.441c0,-0 0.001,-0.001 0.001,-0.001Z" style="fill:#a8dc76;"/><path d="M561.568,2257.32c1.424,-0.964 1.797,-2.902 0.834,-4.326c-0.964,-1.424 -2.903,-1.798 -4.327,-0.834c-3.348,2.265 -6.318,4.946 -8.95,8.006c-6.246,7.263 -7.522,15.636 -6.254,24.059c1.182,7.855 4.633,15.751 8.023,22.637c0.759,1.542 2.628,2.178 4.171,1.419c1.542,-0.759 2.178,-2.628 1.419,-4.171c-3.12,-6.338 -6.364,-13.582 -7.452,-20.813c-1.003,-6.663 -0.125,-13.322 4.817,-19.068c2.27,-2.64 4.831,-4.955 7.719,-6.909Zm-40.184,74.828c1.662,-0.44 2.654,-2.147 2.213,-3.809c-0.44,-1.663 -2.147,-2.654 -3.809,-2.214c-15.117,4.007 -24.661,15.819 -25.163,31.252c-0.056,1.719 1.294,3.159 3.013,3.215c1.718,0.056 3.159,-1.294 3.215,-3.012c0.408,-12.572 8.216,-22.168 20.531,-25.432Zm-7.546,74.019c0.528,-1.637 -0.372,-3.394 -2.009,-3.922c-1.636,-0.528 -3.393,0.372 -3.921,2.009c-2.709,8.396 -3.058,17.617 0.328,25.855c0.654,1.591 2.476,2.351 4.066,1.697c1.591,-0.653 2.351,-2.475 1.698,-4.065c-2.826,-6.874 -2.422,-14.569 -0.162,-21.574Zm224.072,-88.268c0.061,1.718 1.505,3.064 3.224,3.003c1.718,-0.061 3.064,-1.506 3.003,-3.224c-0.476,-13.399 -6.136,-26.979 -19.258,-32.689c-3.498,-1.522 -7.167,-2.052 -10.922,-2.465c-1.709,-0.188 -3.249,1.047 -3.437,2.757c-0.188,1.709 1.047,3.249 2.756,3.437c3.129,0.344 6.202,0.716 9.117,1.984c10.829,4.713 15.125,16.138 15.517,27.197Zm8.979,71.928c-0.459,1.657 0.513,3.375 2.17,3.835c1.657,0.459 3.375,-0.513 3.835,-2.17c2.975,-10.726 2.975,-23.106 -3.452,-32.708c-0.956,-1.429 -2.893,-1.813 -4.322,-0.857c-1.429,0.957 -1.813,2.893 -0.856,4.322c5.413,8.088 5.131,18.543 2.625,27.578Zm-152.568,105.269c1.281,1.147 3.252,1.039 4.399,-0.242c1.147,-1.281 1.038,-3.253 -0.243,-4.4c-7.773,-6.96 -10.223,-16.41 -10.15,-26.248c0.078,-10.424 2.968,-21.298 5.865,-30.494c0.517,-1.64 -0.395,-3.39 -2.035,-3.907c-1.64,-0.517 -3.391,0.395 -3.908,2.035c-3.069,9.743 -6.07,21.275 -6.153,32.319c-0.086,11.629 3.036,22.71 12.225,30.937Z" style="fill:#c4ff8c;"/><path d="M671.783,2241.93c-3.104,-7.05 -7.935,-12.607 -14.363,-16.065c-17.795,-9.576 -47.827,-3.07 -57.042,26.956c-20.816,-23.52 -50.848,-17.013 -63.085,-0.931c-12.236,16.082 -6.677,41.74 13.897,64.145c2.347,2.713 5.117,5.334 8.217,7.857c2.826,2.299 5.927,4.516 9.234,6.645c-6.934,-4.464 -13.846,-7.946 -20.424,-9.884c-28.911,-9.457 -54.569,-3.899 -64.145,13.897c-9.576,17.795 -3.07,47.827 26.956,57.042c-23.52,20.816 -17.014,50.848 -0.931,63.085c16.082,12.237 41.74,6.678 64.145,-13.897c5.185,-4.487 10.036,-10.516 14.5,-17.448c-4.463,6.932 -7.944,13.844 -9.883,20.421c-9.457,28.911 -3.898,54.569 13.897,64.145c17.796,9.576 47.827,3.07 57.043,-26.956c20.816,23.52 50.848,17.014 63.084,0.931c12.237,-16.082 6.678,-41.74 -13.897,-64.145c-2.347,-2.713 -5.116,-5.334 -8.216,-7.856c-2.827,-2.3 -5.928,-4.517 -9.234,-6.646c6.933,4.464 13.845,7.946 20.423,9.884c28.912,9.458 54.57,3.899 64.146,-13.896c9.576,-17.796 3.07,-47.827 -26.956,-57.043c23.52,-20.816 17.013,-50.848 0.931,-63.084c-5.976,-4.547 -13.273,-6.637 -21.235,-6.413l14.717,-22.858l-47.263,-30.431l-14.516,22.545Z" style="fill:url(#_Radial4);"/><g><path d="M712.188,2158.47c2.948,-4.579 9.06,-5.903 13.639,-2.955l49.515,31.881c4.579,2.949 5.903,9.06 2.955,13.639l-35.555,55.221c-2.949,4.58 -9.06,5.904 -13.639,2.955l-49.515,-31.881c-4.58,-2.948 -5.904,-9.06 -2.955,-13.639l35.555,-55.221Z" style="fill:#2f2f2f;stroke:#000;stroke-width:4.04px;"/><path d="M683.151,2183.53c2.88,-4.472 8.848,-5.765 13.319,-2.885l68.152,43.88c4.472,2.88 5.765,8.848 2.886,13.319l-9.034,14.031c-2.879,4.472 -8.847,5.765 -13.319,2.886l-68.152,-43.881c-4.472,-2.879 -5.765,-8.847 -2.885,-13.319l9.033,-14.031Z" style="fill:#464646;stroke:#000;stroke-width:4.04px;"/></g></g><g id="clover_bulb4" serif:id="clover_bulb"><path d="M1385.03,2369.16c5.427,-5.467 11.931,-8.92 19.171,-9.841c20.047,-2.552 45.743,14.299 43.569,45.632c27.87,-14.483 53.566,2.368 59.216,21.77c5.649,19.403 -8.747,41.357 -35.992,54.886c-3.165,1.689 -6.69,3.142 -10.489,4.384c-3.463,1.131 -7.153,2.088 -11.004,2.888c8.074,-1.678 15.775,-2.447 22.611,-1.896c30.379,1.549 52.333,15.946 54.885,35.992c2.551,20.047 -14.299,45.743 -45.632,43.569c14.482,27.87 -2.369,53.566 -21.771,59.216c-19.403,5.65 -41.357,-8.747 -54.885,-35.992c-3.23,-6.049 -5.594,-13.417 -7.272,-21.489c1.678,8.072 2.447,15.772 1.895,22.607c-1.548,30.379 -15.945,52.333 -35.991,54.885c-20.047,2.551 -45.743,-14.299 -43.569,-45.632c-27.87,14.482 -53.566,-2.369 -59.216,-21.771c-5.65,-19.402 8.747,-41.356 35.992,-54.885c3.164,-1.69 6.69,-3.142 10.489,-4.384c3.463,-1.132 7.153,-2.088 11.003,-2.889c-8.073,1.679 -15.775,2.448 -22.61,1.896c-30.379,-1.548 -52.333,-15.945 -54.885,-35.992c-2.552,-20.046 14.299,-45.742 45.632,-43.568c-14.482,-27.87 2.368,-53.566 21.771,-59.216c7.209,-2.1 14.77,-1.431 22.121,1.635l-5.533,-26.616l55.036,-11.442l5.458,26.253Z" style="fill:#68af23;"/><path d="M1284.33,2523.22c-28.217,-4.454 -47.421,-20.313 -49.967,-40.317c-2.665,-20.932 12.743,-47.504 42.519,-50.45c-9.166,-28.483 9.063,-53.204 29.323,-59.104c5.126,-1.493 10.405,-1.833 15.69,-1.083l-3.461,-16.647c-0.7,-3.369 1.463,-6.668 4.832,-7.369l55.037,-11.442c3.369,-0.7 6.668,1.463 7.368,4.832l3.422,16.457c4.411,-2.621 9.217,-4.308 14.32,-4.957c20.932,-2.665 47.504,12.743 50.45,42.519c28.483,-9.166 53.205,9.063 59.104,29.322c5.638,19.363 -5.656,41.565 -29.757,56.893c28.217,4.454 47.421,20.313 49.967,40.316c2.664,20.932 -12.743,47.504 -42.52,50.45c9.167,28.483 -9.062,53.205 -29.322,59.104c-19.362,5.639 -41.564,-5.655 -56.892,-29.757c-4.454,28.217 -20.313,47.421 -40.317,49.967c-20.932,2.664 -47.504,-12.743 -50.45,-42.52c-28.483,9.167 -53.204,-9.063 -59.103,-29.322c-5.639,-19.363 5.656,-41.564 29.757,-56.892Zm100.699,-154.058l-5.458,-26.253l-55.036,11.442l5.533,26.616c-7.351,-3.066 -14.912,-3.735 -22.121,-1.635c-19.403,5.65 -36.253,31.346 -21.771,59.216c-31.333,-2.174 -48.184,23.522 -45.632,43.568c2.552,20.047 24.506,34.444 54.885,35.992c6.835,0.552 14.537,-0.217 22.61,-1.896c-3.85,0.801 -7.54,1.757 -11.003,2.889c-3.799,1.242 -7.325,2.694 -10.489,4.384c-27.245,13.529 -41.642,35.483 -35.992,54.885c5.65,19.402 31.346,36.253 59.216,21.771c-2.174,31.333 23.522,48.183 43.569,45.632c20.046,-2.552 34.443,-24.506 35.991,-54.885c0.552,-6.835 -0.217,-14.535 -1.895,-22.607c1.678,8.072 4.042,15.44 7.272,21.489c13.528,27.245 35.482,41.642 54.885,35.992c19.402,-5.65 36.253,-31.346 21.771,-59.216c31.333,2.174 48.183,-23.522 45.632,-43.569c-2.552,-20.046 -24.506,-34.443 -54.885,-35.992c-6.836,-0.551 -14.537,0.218 -22.611,1.896c3.851,-0.8 7.541,-1.757 11.004,-2.888c3.799,-1.242 7.324,-2.695 10.489,-4.384c27.245,-13.529 41.641,-35.483 35.992,-54.886c-5.65,-19.402 -31.346,-36.253 -59.216,-21.77c2.174,-31.333 -23.522,-48.184 -43.569,-45.632c-7.24,0.921 -13.744,4.374 -19.171,9.841Z" style="fill:#c4ff8c;"/><path d="M1411.18,2496.85c0,-0 36.708,-4.261 51.321,-2.849c25.84,1.742 44.708,14.116 47.171,30.933c2.463,16.818 -11.479,38.079 -38.138,35.798c12.717,23.541 -1.225,44.802 -17.631,49.246c-16.405,4.444 -35.274,-7.929 -47.171,-30.933c-7.192,-12.97 -17.265,-49.084 -17.265,-49.084c-0,-0 5.692,37.065 4.27,51.786c-1.743,25.839 -14.116,44.708 -30.934,47.171c-16.817,2.463 -38.078,-11.479 -35.797,-38.139c-23.542,12.718 -44.803,-1.225 -49.247,-17.63c-4.444,-16.406 7.93,-35.274 30.934,-47.171c12.701,-7.043 47.663,-17.73 47.663,-17.73c-0,-0 -36.219,4.961 -50.607,3.571c-25.84,-1.742 -44.708,-14.115 -47.171,-30.933c-2.463,-16.817 11.479,-38.078 38.139,-35.798c-12.718,-23.541 1.225,-44.802 17.63,-49.246c16.405,-4.444 35.274,7.93 47.171,30.934c7.055,12.722 16.551,48.361 16.551,48.361c-0,-0 -4.958,-36.542 -3.556,-51.063c1.743,-25.84 14.117,-44.708 30.934,-47.171c16.817,-2.464 38.078,11.479 35.798,38.138c23.541,-12.717 44.802,1.225 49.246,17.63c4.444,16.406 -7.929,35.275 -30.934,47.172c-12.778,7.085 -48.377,17.007 -48.377,17.007Z" style="fill:#6fbe22;fill-opacity:0.5;"/><path d="M1383.85,2502.96l-56.849,87.813c-23.542,12.718 -44.803,-1.225 -49.247,-17.63c-4.444,-16.406 7.93,-35.274 30.934,-47.171c10.015,-5.553 33.87,-13.373 43.513,-16.432l4.15,-1.298c9.121,-1.976 18.281,-3.767 27.499,-5.282Zm-87.138,-57.878c-12.718,-23.541 1.225,-44.802 17.63,-49.246c16.405,-4.444 35.274,7.93 47.171,30.934c7.055,12.722 16.551,48.361 16.551,48.361l5.786,27.829l-87.138,-57.878Zm87.138,57.878l87.679,57.766c12.717,23.541 -1.225,44.802 -17.631,49.246c-16.405,4.444 -35.274,-7.929 -47.171,-30.933c-7.192,-12.97 -17.265,-49.084 -17.265,-49.084l-5.612,-26.995Zm-0,0l57.39,-87.925c23.541,-12.717 44.802,1.225 49.246,17.63c4.444,16.406 -7.929,35.275 -30.934,47.172c-12.778,7.085 -48.377,17.007 -48.377,17.007l-27.325,6.116Z" style="fill:#79c82c;fill-opacity:0.5;"/><path d="M1381.61,2433.86l-19.337,-93.01c-0.27,-1.296 0.564,-2.567 1.859,-2.836c1.296,-0.269 2.567,0.564 2.836,1.86l19.337,93.01l21.052,-4.377c0.027,-0.006 0.055,-0.011 0.082,-0.016c14.186,-2.903 28.078,6.23 31.027,20.418c2.956,14.214 -6.186,28.154 -20.4,31.109c-14.215,2.955 -28.154,-6.186 -31.109,-20.401l0.007,-0.001l-4.378,-21.061l-23.215,4.827l4.378,21.06c0.015,0.076 0.028,0.151 0.036,0.228l0.001,0.01c2.807,14.132 -6.312,27.935 -20.448,30.874c-14.214,2.955 -28.154,-6.186 -31.109,-20.401c-2.95,-14.187 6.151,-28.101 20.319,-31.092c0.027,-0.006 0.054,-0.012 0.081,-0.018l21.07,-4.381l-19.337,-93.01c-0.269,-1.295 0.564,-2.566 1.86,-2.835c1.296,-0.27 2.566,0.564 2.836,1.859l19.336,93.01l23.216,-4.826Zm-48.005,14.878c0,0 21.07,-4.38 21.07,-4.38l4.379,21.06l-0.011,0.003c2.417,11.623 -5.058,23.021 -16.681,25.437c-11.623,2.417 -23.021,-5.058 -25.438,-16.681c-2.416,-11.623 5.058,-23.021 16.681,-25.438l0,-0.001Zm74.728,-15.536l-21.052,4.377l4.379,21.061c0.011,0.055 0.02,0.111 0.028,0.167l0.002,0.014c2.497,11.521 13.837,18.905 25.4,16.502c11.623,-2.417 19.097,-13.815 16.681,-25.438c-2.416,-11.623 -13.815,-19.098 -25.438,-16.681c0,-0 0,-0.002 0,-0.002Z" style="fill:#a8dc76;"/><path d="M1482.38,2423.08c-0.983,-1.41 -0.636,-3.354 0.774,-4.337c1.411,-0.983 3.354,-0.636 4.338,0.774c2.311,3.316 4.122,6.885 5.48,10.685c3.224,9.021 1.41,17.294 -2.796,24.701c-3.923,6.907 -9.978,13.039 -15.613,18.25c-1.262,1.167 -3.235,1.09 -4.402,-0.173c-1.168,-1.262 -1.09,-3.235 0.172,-4.402c5.187,-4.797 10.814,-10.394 14.425,-16.752c3.327,-5.86 4.897,-12.39 2.347,-19.527c-1.172,-3.278 -2.731,-6.358 -4.725,-9.219Zm10.652,84.265c-1.393,-1.008 -1.706,-2.957 -0.698,-4.35c1.007,-1.393 2.957,-1.706 4.35,-0.699c12.672,9.166 17.341,23.616 12.27,38.2c-0.564,1.625 -2.341,2.485 -3.965,1.92c-1.625,-0.564 -2.485,-2.341 -1.92,-3.966c4.13,-11.881 0.286,-23.639 -10.037,-31.105Zm-19.52,71.796c0.094,-1.717 1.565,-3.034 3.282,-2.94c1.717,0.095 3.034,1.566 2.939,3.283c-0.485,8.809 -3.469,17.541 -9.586,24.015c-1.181,1.249 -3.154,1.305 -4.404,0.125c-1.25,-1.181 -1.306,-3.155 -0.125,-4.405c5.104,-5.401 7.489,-12.728 7.894,-20.078Zm-177.467,-162.804c-0.674,1.582 -2.505,2.32 -4.087,1.646c-1.582,-0.673 -2.32,-2.505 -1.646,-4.087c5.252,-12.336 15.409,-22.979 29.706,-23.6c3.812,-0.165 7.426,0.657 11.079,1.62c1.663,0.438 2.657,2.143 2.219,3.806c-0.438,1.663 -2.144,2.657 -3.806,2.219c-3.044,-0.802 -6.046,-1.557 -9.222,-1.42c-11.799,0.513 -19.909,9.635 -24.243,19.816Zm-34.196,63.915c-0.165,1.711 -1.689,2.966 -3.401,2.8c-1.711,-0.165 -2.966,-1.689 -2.8,-3.401c1.072,-11.08 5.515,-22.634 14.96,-29.291c1.405,-0.991 3.35,-0.654 4.341,0.752c0.991,1.405 0.654,3.351 -0.752,4.341c-7.955,5.607 -11.444,15.466 -12.348,24.799Zm104.626,153.01c-1.607,0.611 -3.408,-0.198 -4.019,-1.805c-0.611,-1.608 0.198,-3.408 1.805,-4.019c9.754,-3.707 15.432,-11.648 18.895,-20.858c3.668,-9.757 4.872,-20.944 5.469,-30.566c0.106,-1.716 1.586,-3.023 3.302,-2.917c1.716,0.106 3.023,1.586 2.917,3.302c-0.632,10.195 -1.969,22.036 -5.856,32.374c-4.093,10.886 -10.984,20.107 -22.513,24.489Z" style="fill:#c4ff8c;"/><path d="M1385.03,2369.16c5.427,-5.467 11.931,-8.92 19.171,-9.841c20.047,-2.552 45.743,14.299 43.569,45.632c27.87,-14.483 53.566,2.368 59.216,21.77c5.649,19.403 -8.747,41.357 -35.992,54.886c-3.165,1.689 -6.69,3.142 -10.489,4.384c-3.463,1.131 -7.153,2.088 -11.004,2.888c8.074,-1.678 15.775,-2.447 22.611,-1.896c30.379,1.549 52.333,15.946 54.885,35.992c2.551,20.047 -14.299,45.743 -45.632,43.569c14.482,27.87 -2.369,53.566 -21.771,59.216c-19.403,5.65 -41.357,-8.747 -54.885,-35.992c-3.23,-6.049 -5.594,-13.417 -7.272,-21.489c1.678,8.072 2.447,15.772 1.895,22.607c-1.548,30.379 -15.945,52.333 -35.991,54.885c-20.047,2.551 -45.743,-14.299 -43.569,-45.632c-27.87,14.482 -53.566,-2.369 -59.216,-21.771c-5.65,-19.402 8.747,-41.356 35.992,-54.885c3.164,-1.69 6.69,-3.142 10.489,-4.384c3.463,-1.132 7.153,-2.088 11.003,-2.889c-8.073,1.679 -15.775,2.448 -22.61,1.896c-30.379,-1.548 -52.333,-15.945 -54.885,-35.992c-2.552,-20.046 14.299,-45.742 45.632,-43.568c-14.482,-27.87 2.368,-53.566 21.771,-59.216c7.209,-2.1 14.77,-1.431 22.121,1.635l-5.533,-26.616l55.036,-11.442l5.458,26.253Z" style="fill:url(#_Radial5);"/><g><path d="M1377.26,2276.76c-1.108,-5.332 -6.338,-8.761 -11.67,-7.653l-57.658,11.987c-5.332,1.109 -8.761,6.338 -7.653,11.67l13.369,64.303c1.108,5.332 6.337,8.761 11.67,7.653l57.658,-11.987c5.332,-1.109 8.761,-6.338 7.653,-11.67l-13.369,-64.303Z" style="fill:#2f2f2f;stroke:#000;stroke-width:4.04px;"/><path d="M1395.37,2310.57c-1.082,-5.207 -6.189,-8.556 -11.396,-7.473l-79.36,16.499c-5.207,1.082 -8.555,6.189 -7.473,11.396l3.397,16.338c1.082,5.207 6.189,8.556 11.396,7.473l79.36,-16.499c5.207,-1.082 8.556,-6.189 7.473,-11.396l-3.397,-16.338Z" style="fill:#464646;stroke:#000;stroke-width:4.04px;"/></g></g></g><g id="roof"><path d="M3626.26,1428.7c-0,-47.531 -38.589,-86.12 -86.12,-86.12l-3454.03,-0c-47.531,-0 -86.12,38.589 -86.12,86.12l0,481.64c0,47.53 38.589,86.119 86.12,86.119l3454.03,0c47.531,0 86.12,-38.589 86.12,-86.119l-0,-481.64Z" style="fill:#493001;"/><path d="M3626.26,1388.76c-0,-25.49 -20.695,-46.185 -46.185,-46.185l-3533.89,-0c-25.49,-0 -46.185,20.695 -46.185,46.185l0,258.299c0,25.49 20.695,46.185 46.185,46.185l3533.89,0c25.49,0 46.185,-20.695 46.185,-46.185l-0,-258.299Z" style="fill:#845a04;"/><path id="shadow" d="M3422.19,1450.8c0,-12.604 -10.232,-22.837 -22.836,-22.837l-3172.05,-0c-12.604,-0 -22.837,10.233 -22.837,22.837l0,127.719c0,12.605 10.233,22.837 22.837,22.837l3172.05,0c12.604,0 22.836,-10.232 22.836,-22.837l0,-127.719Z" style="fill:#60370e;"/></g><g id="sign-base" serif:id="sign base"><path d="M2669.5,975.998c0,-23.396 -18.994,-42.391 -42.391,-42.391l-164.576,0c-23.396,0 -42.391,18.995 -42.391,42.391l0,517.865c0,23.396 18.995,42.391 42.391,42.391l164.576,0c23.397,0 42.391,-18.995 42.391,-42.391l0,-517.865Z" style="fill:#a0a0a0;"/><path d="M1077.57,980.437c0,-23.396 -18.994,-42.391 -42.39,-42.391l-164.577,0c-23.396,0 -42.391,18.995 -42.391,42.391l0,517.865c0,23.396 18.995,42.391 42.391,42.391l164.577,-0c23.396,-0 42.39,-18.995 42.39,-42.391l0,-517.865Z" style="fill:#a0a0a0;"/><path d="M828.212,1239.37l249.358,0l0,-258.932c0,-23.396 -18.994,-42.391 -42.39,-42.391l-164.577,0c-23.396,0 -42.391,18.995 -42.391,42.391l0,258.932Zm1591.93,0l249.358,0l0,-263.371c0,-23.396 -18.994,-42.391 -42.391,-42.391l-164.576,0c-23.396,0 -42.391,18.995 -42.391,42.391l0,263.371Z" style="fill:#6f6f6f;"/></g><g id="sign"><path d="M3422.19,183.481c0,-101.266 -82.215,-183.481 -183.481,-183.481l-2850.76,0c-101.266,0 -183.481,82.215 -183.481,183.481l0,541.128c0,101.266 82.215,183.482 183.481,183.482l2850.76,-0c101.266,-0 183.481,-82.216 183.481,-183.482l0,-541.128Z" style="fill:#37705f;"/><path d="M3422.19,371.32c0,-101.266 -82.215,-183.482 -183.481,-183.482l-2850.76,0c-101.266,0 -183.481,82.216 -183.481,183.482l0,541.128c0,101.266 82.215,183.481 183.481,183.481l2850.76,0c101.266,0 183.481,-82.215 183.481,-183.481l0,-541.128Z" style="fill:#449f84;"/><path d="M3309.31,437.226c0,-77.045 -62.55,-139.595 -139.595,-139.595l-2724.07,0c-77.044,0 -139.595,62.55 -139.595,139.595l0,411.696c0,77.045 62.551,139.595 139.595,139.595l2724.07,0c77.045,0 139.595,-62.55 139.595,-139.595l0,-411.696Z" style="fill:#37705f;"/><path d="M3309.31,420.976c0,-68.076 -55.269,-123.345 -123.344,-123.345l-2756.57,0c-68.076,0 -123.345,55.269 -123.345,123.345l0,363.77c0,68.076 55.269,123.345 123.345,123.345l2756.57,-0c68.075,-0 123.344,-55.269 123.344,-123.345l0,-363.77Z" style="fill:#fff;"/><g id="market"><path d="M896.17,489.433l-155.322,153.964l-155.453,-153.964l-0,251.145c1.549,20.371 34.357,29.836 69.837,32.232l-0,38.948l-122.523,-1.309l1.651,-366.679l-34.919,-12.087l0,-38.948l104.756,-0l136.651,153.433l136.52,-153.433l104.756,-0l-0,38.948l-34.919,12.087l1.65,367.988l-122.522,0l0,-38.948c35.479,-2.396 68.288,-11.861 69.837,-32.232l0,-251.145Z" style="fill:#fed999;"/><path d="M883.212,520.525l-133.241,132.076c-5.05,5.006 -13.19,5.007 -18.242,0.004l-133.376,-132.099c0,0 0,219.445 0.001,219.449c0.326,2.421 2.037,4.269 4.194,5.993c2.669,2.134 6.056,3.912 9.919,5.481c11.745,4.771 27.399,7.355 43.638,8.452c6.803,0.46 12.086,6.112 12.086,12.929l-0,38.948c-0,3.461 -1.385,6.778 -3.845,9.212c-2.46,2.434 -5.792,3.783 -9.253,3.746l-122.522,-1.309c-7.125,-0.076 -12.852,-5.891 -12.82,-13.017l1.608,-357.407l-26.157,-9.055c-5.219,-1.806 -8.72,-6.722 -8.72,-12.245l0,-38.948c0,-7.157 5.802,-12.959 12.959,-12.959l104.756,0c3.697,0 7.218,1.579 9.677,4.34c0,0 126.969,142.563 126.969,142.563l126.844,-142.558c2.459,-2.764 5.982,-4.345 9.681,-4.345l104.756,0c7.157,0 12.958,5.802 12.958,12.959l0,38.948c0,5.523 -3.5,10.439 -8.719,12.245l-26.158,9.055l1.609,358.717c0.015,3.447 -1.343,6.758 -3.775,9.201c-2.432,2.443 -5.737,3.816 -9.184,3.816l-122.522,-0c-7.157,-0 -12.959,-5.802 -12.959,-12.959l0,-38.948c0,-6.817 5.283,-12.469 12.086,-12.929c16.239,-1.097 31.893,-3.681 43.638,-8.452c3.863,-1.569 7.25,-3.347 9.919,-5.481c2.157,-1.724 3.868,-3.572 4.195,-5.997l-0,-219.426Zm12.958,-31.092l0,251.145c-1.549,20.371 -34.358,29.836 -69.837,32.232l0,38.948l122.522,0l-1.65,-367.988l34.919,-12.087l-0,-38.948l-104.756,-0l-136.52,153.433l-136.651,-153.433l-104.756,-0l0,38.948l34.919,12.087l-1.651,366.679l122.523,1.309l-0,-38.948c-35.48,-2.396 -68.288,-11.861 -69.837,-32.232l-0,-251.145l155.453,153.964l155.322,-153.964Z" style="fill:#bb6c1e;"/><path d="M1019.8,811.758l-34.407,-35.635c55.841,-82.215 107.914,-162.698 157.288,-261.736l-28.263,-61.441l-46.694,-8.601l-3.687,-25.805l95.847,-25.805c52.835,132.217 115.154,296.408 197.49,386.01l35.636,3.687l11.029,30.555l-103.22,-1.229l-53.69,-98.304c-86.059,15.14 -164.21,43.837 -227.329,98.304Zm76.186,-119.194c37.772,-17.028 78.964,-27.212 126.567,-24.576l-46.694,-103.22c-22.045,41.072 -47.997,83.447 -79.873,127.796Z" style="fill:#fed999;"/><path d="M1010.48,820.759l-34.407,-35.635c-4.261,-4.413 -4.844,-11.208 -1.397,-16.282c54.477,-80.208 105.364,-158.748 153.633,-254.694l-22.851,-49.676l-40.08,-7.383c-5.475,-1.008 -9.694,-5.401 -10.481,-10.912l-3.686,-25.805c-0.927,-6.485 3.133,-12.642 9.459,-14.345l95.847,-25.805c6.345,-1.709 12.964,1.602 15.403,7.704c51.564,129.039 111.902,289.049 191.728,378.44l30.697,3.176c4.948,0.512 9.167,3.811 10.856,8.49l11.029,30.555c1.443,3.997 0.835,8.447 -1.628,11.91c-2.462,3.463 -6.466,5.498 -10.715,5.448l-103.22,-1.229c-4.684,-0.056 -8.973,-2.635 -11.219,-6.746c0,-0 -49.203,-90.089 -49.203,-90.089c-80.071,15.109 -152.852,42.667 -211.977,93.688c-5.205,4.492 -13.013,4.136 -17.788,-0.81Zm9.322,-9.001c63.119,-54.467 141.27,-83.164 227.329,-98.304l53.69,98.304l103.22,1.229l-11.029,-30.555l-35.636,-3.687c-82.336,-89.602 -144.655,-253.793 -197.49,-386.01l-95.847,25.805l3.687,25.805l46.694,8.601l28.263,61.441c-49.374,99.038 -101.447,179.521 -157.288,261.736l34.407,35.635Zm76.186,-119.194c31.876,-44.349 57.828,-86.724 79.873,-127.796l46.694,103.22c-47.603,-2.636 -88.795,7.548 -126.567,24.576Zm34.219,-26.625c22.561,-6.701 46.436,-10.772 72.099,-11.272c0,-0 -27.588,-60.986 -27.589,-60.985c-13.355,23.592 -28.072,47.638 -44.51,72.257Z" style="fill:#bb6c1e;"/><path d="M1423.96,392.735l111.434,-0l0,50.761c142.511,-150.924 339.881,71.644 134.782,187.845c55.43,69.892 117.004,147.137 167.682,151.763l30.777,-0l-0,28.654l-123.108,0l-149.64,-166.62l-44.574,-0l0,118.863l36.084,15.919l-0,31.838l-147.518,0l3.184,-33.961l28.655,-6.367l-0,-319.264l-46.697,-22.286l-1.061,-37.145Zm126.292,209.511l73.228,0c165.681,-102.435 -3.288,-223.319 -73.228,-96.135l-0,96.135Z" style="fill:#fed999;"/><path d="M1423.96,379.776l111.434,0c7.157,0 12.959,5.802 12.959,12.959c-0,-0 -0,21.267 -0,21.267c30.793,-24.348 63.002,-34.374 92.871,-34.224c56.921,0.284 105.925,37.748 123.382,87.485c18.132,51.66 3.209,117.598 -75.107,167.577c30.054,37.796 61.583,76.477 91.972,103.25c20.004,17.624 39.091,30.197 57.014,32.055l30.15,-0c7.156,-0 12.958,5.802 12.958,12.959l0,28.654c0,7.157 -5.802,12.959 -12.958,12.959l-123.108,-0c-3.679,-0 -7.184,-1.563 -9.642,-4.3l-145.778,-162.32c0,-0 -25.835,-0 -25.835,-0c-0,-0 -0,97.457 -0,97.457l28.355,12.51c4.697,2.072 7.728,6.722 7.728,11.856l0,31.838c0,7.157 -5.802,12.959 -12.958,12.959l-147.518,-0c-3.647,-0 -7.125,-1.537 -9.581,-4.234c-2.456,-2.696 -3.661,-6.303 -3.321,-9.934l3.184,-33.961c0.525,-5.599 4.601,-10.221 10.091,-11.441l18.507,-4.112c-0,-0 -0,-300.695 -0,-300.695l-39.319,-18.766c-4.387,-2.093 -7.233,-6.466 -7.372,-11.324l-1.061,-37.145c-0.1,-3.5 1.22,-6.891 3.66,-9.402c2.44,-2.51 5.792,-3.927 9.293,-3.927Zm0,12.959l1.061,37.145l46.697,22.286l-0,319.264l-28.655,6.367l-3.184,33.961l147.518,0l-0,-31.838l-36.084,-15.919l0,-118.863l44.574,-0l149.64,166.62l123.108,0l-0,-28.654l-30.777,-0c-50.678,-4.626 -112.252,-81.871 -167.682,-151.763c205.099,-116.201 7.729,-338.769 -134.782,-187.845l0,-50.761l-111.434,-0Zm126.292,209.511l-0,-96.135c69.94,-127.184 238.909,-6.3 73.228,96.135l-73.228,0Zm12.959,-12.958c-0,-0 56.543,-0 56.544,-0.001c55.414,-35.233 69.019,-70.936 57.795,-96.563c-16.161,-36.901 -78.872,-44.069 -114.339,16.798l-0,79.766Z" style="fill:#bb6c1e;"/><path d="M2249.77,425.597l-104.266,200.172c-0,-0 120.617,151.681 172.861,156.45l31.727,-0l0,29.539l-126.91,0l-154.262,-171.767l-45.95,0l-0,122.535l37.197,16.41l0,32.822l-152.073,0l3.282,-35.01l29.539,-6.564l0,-316.182l-48.138,-21.881l-1.125,-39.386l130.043,-0l0.181,203.04l75.489,0l107.034,-203.04l79.255,-0l0.084,26.114c-15.605,-0.427 -27.658,-0.127 -33.968,6.748Z" style="fill:#fed999;"/><path d="M2260.2,433.631c-0,0 -99.276,190.59 -99.276,190.59c15.479,18.932 62.403,74.939 105.55,112.306c20.061,17.374 38.677,31.164 52.547,32.733l31.074,-0c7.157,-0 12.959,5.802 12.959,12.959l-0,29.539c-0,7.157 -5.802,12.959 -12.959,12.959l-126.91,-0c-3.679,-0 -7.184,-1.563 -9.642,-4.3l-150.4,-167.467c0,0 -27.212,0 -27.212,0c0,0 0,101.129 0,101.129l29.47,13.001c4.697,2.073 7.728,6.722 7.728,11.856l0,32.822c0,7.157 -5.802,12.959 -12.959,12.959l-152.073,-0c-3.647,-0 -7.126,-1.537 -9.582,-4.234c-2.455,-2.696 -3.661,-6.303 -3.32,-9.934l3.282,-35.01c0.525,-5.599 4.601,-10.221 10.091,-11.441l19.392,-4.309l-0,-297.443l-40.542,-18.428c-4.505,-2.047 -7.45,-6.481 -7.591,-11.427l-1.126,-39.386c-0.1,-3.5 1.221,-6.891 3.661,-9.402c2.44,-2.51 5.792,-3.927 9.293,-3.927l130.043,0c7.153,0 12.953,5.795 12.959,12.947c0,0 0.169,190.094 0.169,190.093l54.725,0.001l103.388,-196.125c2.242,-4.254 6.655,-6.916 11.463,-6.916l79.255,0c7.141,0 12.936,5.777 12.959,12.917l0.084,26.114c0.011,3.506 -1.398,6.866 -3.907,9.315c-2.508,2.449 -5.902,3.777 -9.406,3.681c-6.919,-0.189 -13.052,-0.29 -18.154,0.491c-1.952,0.299 -3.722,0.513 -5.033,1.337Zm-10.427,-8.034c6.31,-6.875 18.363,-7.175 33.968,-6.748l-0.084,-26.114l-79.255,-0l-107.034,203.04l-75.489,0l-0.181,-203.04l-130.043,-0l1.125,39.386l48.138,21.881l0,316.182l-29.539,6.564l-3.282,35.01l152.073,0l0,-32.822l-37.197,-16.41l-0,-122.535l45.95,0l154.262,171.767l126.91,0l0,-29.539l-31.727,-0c-52.244,-4.769 -172.861,-156.45 -172.861,-156.45l104.266,-200.172Z" style="fill:#bb6c1e;"/><path d="M2638.06,700.027l23.256,1.011l-11.122,91.004c-155.091,58.779 -346.403,-16.069 -334.691,-195.152c11.253,-172.06 158.721,-247.593 341.769,-178.974l6.067,78.87l-24.268,2.022c-22.582,-111.901 -250.428,-76.173 -255.821,73.814l150.661,0c20.097,-0.337 32.821,-14.493 39.435,-37.413l24.268,0l-1.618,128.821l-26.29,0c-5.498,-22.119 -15.803,-35.719 -34.783,-36.806l-151.673,0c1.795,149.941 218.972,186.1 254.81,72.803Z" style="fill:#fed999;"/><path d="M2638.62,687.08l23.256,1.012c3.61,0.157 6.99,1.813 9.325,4.57c2.335,2.756 3.414,6.362 2.975,9.948l-11.122,91.004c-0.584,4.778 -3.769,8.839 -8.271,10.545c-163.767,62.068 -364.581,-19.012 -352.214,-208.115c5.968,-91.263 48.537,-156.644 113.412,-190.392c63.89,-33.237 150.218,-35.715 245.836,0.13c4.72,1.769 7.986,6.115 8.372,11.14l6.067,78.87c0.547,7.104 -4.744,13.316 -11.844,13.908l-24.268,2.022c-6.554,0.546 -12.478,-3.904 -13.779,-10.35c-7.778,-38.545 -44.685,-55.458 -85.454,-55.16c-61.345,0.447 -133.221,39.76 -143.543,113.451c-0,0 136.421,0 136.467,-0.001c14.355,-0.315 22.319,-11.626 27.058,-28.046c1.601,-5.546 6.677,-9.365 12.45,-9.365l24.268,-0c3.465,-0 6.786,1.388 9.22,3.853c2.435,2.466 3.781,5.803 3.738,9.268l-1.618,128.821c-0.089,7.093 -5.864,12.796 -12.958,12.796l-26.29,-0c-5.953,-0 -11.14,-4.056 -12.576,-9.833c-3.814,-15.343 -9.57,-26.05 -22.617,-26.973c0,-0 -137.519,-0 -137.519,-0c8.055,73.578 75.769,113.097 136.47,113.386c41.166,0.196 79.678,-17.734 92.241,-57.45c1.767,-5.587 7.063,-9.293 12.918,-9.039Zm-0.563,12.947c-35.838,113.297 -253.015,77.138 -254.81,-72.803l151.673,0c18.98,1.087 29.285,14.687 34.783,36.806l26.29,0l1.618,-128.821l-24.268,0c-6.614,22.92 -19.338,37.076 -39.435,37.413l-150.661,0c5.393,-149.987 233.239,-185.715 255.821,-73.814l24.268,-2.022l-6.067,-78.87c-183.048,-68.619 -330.516,6.914 -341.769,178.974c-11.712,179.083 179.6,253.931 334.691,195.152l11.122,-91.004l-23.256,-1.011Z" style="fill:#bb6c1e;"/><path d="M2724.91,473.816l-28.771,-13.078l32.694,-68.003l387.097,-0l0,51.003l-132.083,-0c-257.806,88.318 -208.633,401.658 66.695,275.937l24.848,31.386c-284.642,191.076 -506.427,-112.737 -206.497,-307.453l-117.699,0l-26.284,30.208Z" style="fill:#fed999;"/><path d="M2719.55,485.613l-28.771,-13.077c-3.173,-1.443 -5.631,-4.102 -6.82,-7.378c-1.188,-3.277 -1.007,-6.893 0.503,-10.035l32.694,-68.003c2.158,-4.489 6.698,-7.344 11.679,-7.344l387.097,0c7.157,0 12.959,5.802 12.959,12.959l0,51.003c0,7.156 -5.802,12.958 -12.959,12.958c0,0 -129.905,0 -129.907,0.001c-86.584,30.268 -136.595,86.98 -152.57,142.512c-10.178,35.38 -6.424,70.085 11.123,95.774c30.136,44.118 98.744,59.406 200.584,12.904c5.425,-2.477 11.841,-0.932 15.543,3.745l24.847,31.386c2.243,2.833 3.201,6.474 2.643,10.044c-0.557,3.57 -2.58,6.745 -5.581,8.759c-150.233,100.848 -283.787,68.277 -340.298,-12.378c-52.327,-74.684 -41.277,-193.953 85.947,-292.876c-0,0 -71.165,0 -71.165,0l-22.41,25.755c-3.763,4.325 -9.92,5.663 -15.138,3.291Zm5.362,-11.797l26.284,-30.208l117.699,0c-299.93,194.716 -78.145,498.529 206.497,307.453l-24.848,-31.386c-275.328,125.721 -324.501,-187.619 -66.695,-275.937l132.083,-0l0,-51.003l-387.097,-0l-32.694,68.003l28.771,13.078Z" style="fill:#bb6c1e;"/></g></g></g><defs><radialGradient id="_Radial1" cx="0" cy="0" r="1" gradientUnits="userSpaceOnUse" gradientTransform="matrix(135.827,-9.55855,10.2952,146.295,2576.3,2506.36)"><stop offset="0" style="stop-color:#fff;stop-opacity:0.28"/><stop offset="0.62" style="stop-color:#e6f2db;stop-opacity:0.28"/><stop offset="0.82" style="stop-color:#aad283;stop-opacity:0.28"/><stop offset="1" style="stop-color:#68af23;stop-opacity:0.28"/></radialGradient><radialGradient id="_Radial2" cx="0" cy="0" r="1" gradientUnits="userSpaceOnUse" gradientTransform="matrix(106.268,-85.1314,91.6925,114.458,3141.12,2285.35)"><stop offset="0" style="stop-color:#fff;stop-opacity:0.28"/><stop offset="0.62" style="stop-color:#e6f2db;stop-opacity:0.28"/><stop offset="0.82" style="stop-color:#aad283;stop-opacity:0.28"/><stop offset="1" style="stop-color:#68af23;stop-opacity:0.28"/></radialGradient><radialGradient id="_Radial3" cx="0" cy="0" r="1" gradientUnits="userSpaceOnUse" gradientTransform="matrix(-114.485,-73.7126,-79.3937,123.308,1933.9,2353.77)"><stop offset="0" style="stop-color:#fff;stop-opacity:0.28"/><stop offset="0.62" style="stop-color:#e6f2db;stop-opacity:0.28"/><stop offset="0.82" style="stop-color:#aad283;stop-opacity:0.28"/><stop offset="1" style="stop-color:#68af23;stop-opacity:0.28"/></radialGradient><radialGradient id="_Radial4" cx="0" cy="0" r="1" gradientUnits="userSpaceOnUse" gradientTransform="matrix(-114.485,-73.7126,-79.3937,123.308,630.769,2358.06)"><stop offset="0" style="stop-color:#fff;stop-opacity:0.28"/><stop offset="0.62" style="stop-color:#e6f2db;stop-opacity:0.28"/><stop offset="0.82" style="stop-color:#aad283;stop-opacity:0.28"/><stop offset="1" style="stop-color:#68af23;stop-opacity:0.28"/></radialGradient><radialGradient id="_Radial5" cx="0" cy="0" r="1" gradientUnits="userSpaceOnUse" gradientTransform="matrix(133.312,-27.7156,29.8516,143.587,1381.63,2492.27)"><stop offset="0" style="stop-color:#fff;stop-opacity:0.28"/><stop offset="0.62" style="stop-color:#e6f2db;stop-opacity:0.28"/><stop offset="0.82" style="stop-color:#aad283;stop-opacity:0.28"/><stop offset="1" style="stop-color:#68af23;stop-opacity:0.28"/></radialGradient></defs></svg>