<svg id="Layer_1" data-name="Layer 1" xmlns="http://www.w3.org/2000/svg" viewBox="0 0 60.55805 88.4115"><defs><style>.cls-1{fill:#2c9044;}.cls-2{fill:#a16a34;}.cls-3{fill:#93602c;}.cls-4{fill:#bc8441;}.cls-5{fill:#bd7e3e;}.cls-6{fill:#946830;}.cls-7,.cls-9{fill:#d39b46;}.cls-8{fill:#248f1c;}.cls-9{stroke:#a16a34;stroke-linecap:round;stroke-linejoin:round;}</style></defs><path class="cls-1" d="M42.08121,79.38315a1.5,1.5,0,0,0,0,3h0a1.5,1.5,0,0,0,0-3Z"/><path class="cls-2" d="M2.1788,26.68553a33.13668,33.13668,0,0,1-1.19995-9.8,12.27771,12.27771,0,0,1,4-8.6,15.398,15.398,0,0,1,9.7-3.2,15.98949,15.98949,0,0,1,13.1,6c1-1.69995,2.7-2,4.5-1.5a47.3696,47.3696,0,0,1,18.2,8.5,26.97249,26.97249,0,0,1,3.68,2.96,9.165,9.165,0,0,1,1.22,1.54c1.2,2.1.5,4.5-.4,6.6a3.03247,3.03247,0,0,1-.5,1c.00995.05-.04.09-.09.1h-.01v.1c.03.01.07.03.1.04a4.06287,4.06287,0,0,1,.53.31,5.064,5.064,0,0,1,1.91,2.21,14.79057,14.79057,0,0,1,1.26,3.54c.22.88.42,1.77.59,2.67l.01.01a61.46671,61.46671,0,0,1,1,7.02l.13,1.52.07.78c.5,5.9,2.3,16.1-4.7,18.6,1,3.6-.9,7.7-3.8,10a33.00214,33.00214,0,0,1-6.5,3.8c-2.5,1.2-5,2.5-7.5,3.6-2.4,1.1-5,1.6-7.2-.2a11.38614,11.38614,0,0,1-2.3-2.5l-.1.1a12.83428,12.83428,0,0,1-1.6,1.7c-4.02,1.65-7.69,3.7-11.16,3.66-1.68,0-1.8-.66-3.44-1.06-3.74-.89-7.38-4.31-9.44-7.89v-.01a15.691,15.691,0,0,1-.98-1.97c-2-5.2,6.69-13.38,6.69-13.38l.93-.15.25-.04,3.65-.56c3.3-.5,6.6-1,9.9-1.8,1.7-.4,3.5-.6,4.80005.7a8.46881,8.46881,0,0,1,1.9,4.1,40.38321,40.38321,0,0,1,1,6,29.66185,29.66185,0,0,1,4.6-4,65.1387,65.1387,0,0,1,12.4-6.3,1.5941,1.5941,0,0,1,2,1v.1a1.30021,1.30021,0,0,1-.2,1.2l1.9,1.1a1.45172,1.45172,0,0,1,1.92-.71,1.08088,1.08088,0,0,1,.18.11005,1.67624,1.67624,0,0,0,.4.3l.3.2c.1,0,.2-.1.3-.1l-1.48-29.95-.02-.35a1.30759,1.30759,0,0,1-.1.15c-.28.45-.63.9-.9,1.35-1.2,1.6-3.9.1-2.8-1.6l-12.5-6.9a1.56156,1.56156,0,0,1-1.4.9,8.01412,8.01412,0,0,1-6.2-3.1,9.54853,9.54853,0,0,1-4.1,4.1c-.19995.1-.4.1-.6.2h-.3l-1.2.2q-1.95.3-3.9.6c-2.92.44-5.85.88995-8.77,1.54-.38.08-.75.17-1.13.26-1.7.4-3.4.6-4.8-.7a7.7286,7.7286,0,0,1-1.76-3.85v-.01A2.00036,2.00036,0,0,1,2.1788,26.68553Z"/><path class="cls-3" d="M50.59884,27.85551s.35-4.57,2.27-4.5c1.93.07,1.25-2.31,1.25-2.31h.04a9.165,9.165,0,0,1,1.22,1.54c1.2,2.1.5,4.5-.4,6.6a3.03247,3.03247,0,0,1-.5,1c.00995.05-.04.09-.09.1h-.01v.1c.03.01.07.03.1.04a4.06287,4.06287,0,0,1,.53.31l-.53.6Z"/><path class="cls-3" d="M50.95883,31.36552s.97-3.27,1.52-2.88a20.15045,20.15045,0,0,1,1.9,1.8v.1c.03.01.07.03.1.04a5.15352,5.15352,0,0,1,2.44,2.52,14.79057,14.79057,0,0,1,1.26,3.54c.22.88.42,1.77.59,2.67-1.58-2.15-.4,12.48-.4,12.48-.83.73-2.84-9.95-3.17-9.87a20.34187,20.34187,0,0,1-1.27-4.7,8.43119,8.43119,0,0,0-1.23-2.93006c-.04-.06994-.08-.13-.12-.2C51.7988,32.58549,50.95883,31.36552,50.95883,31.36552Z"/><path class="cls-4" d="M54.28119,64.18314c1.6-1.6,3.4-3.5,3.6-5.8a7.44192,7.44192,0,0,0-.2-2.6,112.84174,112.84174,0,0,0-4.5-18,11.04262,11.04262,0,0,0-.3,5.1l1.7,19.8c1.6-3.4.9-7.5.1-11.2"/><path class="cls-5" d="M30.47885,71.48552a14.815,14.815,0,0,1,4.8-3.5c1.9-1.1,3.8-2.1,5.8-3.1,1.7-.9,3.9-2.7,5.9-1.9a1.70112,1.70112,0,0,1,1.1,2v.1c0,.02-.01.04-.01.06a1.59893,1.59893,0,0,1-.37.6l.25.26a1.52083,1.52083,0,0,1,1.83-.32,4.69564,4.69564,0,0,1,2.4,4.9,7.92246,7.92246,0,0,1-3.2,5.1c-.23.18-.46.36-.69.53a39.73155,39.73155,0,0,1-10.11,5.57,5.5833,5.5833,0,0,1-5.3-.4,7.75943,7.75943,0,0,1-2.21-2.84l-.36-.94-.01-.01c-.05-.13-.08-.27-.12-.41C29.57882,75.28551,29.1788,73.18553,30.47885,71.48552Z"/><path class="cls-5" d="M50.60885,36.6555a1.8165,1.8165,0,0,1,1.2-1.12,2.17994,2.17994,0,0,1,1.53.22,6.2225,6.2225,0,0,1,.88,1.49005l.01.02c.78,2.14,1.49,4.32,2.13,6.51.12.38.23.76.34,1.14a1.55846,1.55846,0,0,1,.05.16c.29,1.02.57,2.07.83,3.11005.34,1.38.65,2.76.94,4.15.55,2.42,1.31,4.94.44,7.27a14.05567,14.05567,0,0,1-3.16,4.47c-.01.01-.02.01-.02.02-.32.31-.65.6-1,.88a1.97953,1.97953,0,0,1-2.53.19,1.60673,1.60673,0,0,1,0-2.32l.06-.05a1.40231,1.40231,0,0,1-.17-.56l-1.2-13.15-.66-6.57A13.33945,13.33945,0,0,1,50.60885,36.6555Z"/><path class="cls-5" d="M28.98117,18.3831a17.4227,17.4227,0,0,0,.9,6.4c.9,2.1,3.1,3.2,5,4.2a45.39263,45.39263,0,0,0,6.8,3,1.4439,1.4439,0,0,0,1.93866-1.36316l1.49426.13281a1.71837,1.71837,0,0,0,.16706.73035,1.49391,1.49391,0,0,0,2.10009.8h-.00006c2.5-1.9,8-5.9,5.1-9.5-1.2-1.5-3.2-2.5-4.8-3.5a58.60846,58.60846,0,0,0-5.5-3,59.60782,59.60782,0,0,0-5.8-2.5c-.9-.3-1.9-.7-2.8-1a4.14774,4.14774,0,0,0-3.1-.2C28.78116,13.58305,28.88119,16.68309,28.98117,18.3831Z"/><path class="cls-3" d="M7.94882,62.93553l.93-.15.25-.04-.9,8.34-3.39,3.96s-.98-2.06-1.48-1.31a6.54435,6.54435,0,0,0-1.12,4.55,15.691,15.691,0,0,1-.98-1.97C-.74118,71.11552,7.94882,62.93553,7.94882,62.93553Z"/><path class="cls-2" d="M26.2812,69.28306c.8,2.6,2.3,4.4,5.1,4.8s5.5-.2,8.1-.6a53.94559,53.94559,0,0,0,8.8-2.2c2.6-.8,4.8-1.9,5.7-4.7.8-2.5.6-5.5.7-8.1.1-3.4,0-6.8-.1-10.2q-.15-4.8-.6-9.6c-.3-3-.3-6.3-1.1-9.2-.8-2.7-2.9-4-5.3-5.1a58.85936,58.85936,0,0,0-7-2.6c-4.2-1.2-9.4-1.9-13.1,1-1.9,1.5-2.6,4.2-3.1,6.5a71.00266,71.00266,0,0,0-1.2,11.3C22.88118,50.08315,23.48122,60.08315,26.2812,69.28306Z"/><path class="cls-5" d="M27.3812,35.78306a49.33215,49.33215,0,0,1,.3-5.5c.6-3.6,5.4-3.7,8.3-3.7h.5c3.2.1,7.1.7,9.6,2.7a6.78354,6.78354,0,0,1,2.1,4.2c.3,2,.6,4,.8,6.1v.1c.5,4,.8,8,1.1,12.1l.3,6.3a41.7,41.7,0,0,1,0,5h0v.1001c-.4,3.6-3.1,5.3-6.2,6.3a33.77138,33.77138,0,0,1-9.5,1.6h-2.3a1.33978,1.33978,0,0,1-1.3-.8,1.44541,1.44541,0,0,1-.7-1,148.1691,148.1691,0,0,1-2.9-27.4A41.41726,41.41726,0,0,1,27.3812,35.78306Z"/><path class="cls-3" d="M2.21884,26.93553v-.01s.74,1.57,2.03,1.25c1.28-.32,1.36-4.95,1.36-4.95l5.1,3.7-.8,4.28v.02c-.38.08-.75.17-1.13.26-1.7.4-3.4.6-4.8-.7A7.7286,7.7286,0,0,1,2.21884,26.93553Z"/><path class="cls-5" d="M7.08114,27.58311c1.7,1.5,4.6.8,6.7.5a46.444,46.444,0,0,0,7.4-1.6,1.55937,1.55937,0,0,0,.73419-.4624,1.57451,1.57451,0,0,0,1.16577-1.0376c.1.1.1-.00006.2-.00006v.00006c.5-1.3,1.9-2.2,2.7-3.3a5.15841,5.15841,0,0,0,.4-5.1,9.91023,9.91023,0,0,0-3.8-3.8c-1.8-1.1-3.7-2.3-5.9-1.8s-4.2,1.2-6.3,1.8c-1.9.6-4,1-4.3,3.3a50.2088,50.2088,0,0,0-.4,6.7C5.58114,24.48314,5.68118,26.38316,7.08114,27.58311Z"/><path class="cls-5" d="M5.37881,70.28551c.16-.27.37-.63.61-1.02,1.04-1.72,2.62005-4.15,3.26-3.56,0,0,13.33-2.82,15.03-1.32,1.4,1.2,1.5,3.1,1.4,4.8a50.0046,50.0046,0,0,1-.4,6.7c-.3,2.3-2.4,2.7-4.3,3.3-.39.11-.77.22-1.15.34-1.69.51-3.36,1.05-5.15,1.46-2.2.5-4.1-.7-5.9-1.8a9.90944,9.90944,0,0,1-3.8-3.8A5.51006,5.51006,0,0,1,5.37881,70.28551Z"/><path class="cls-2" d="M7.0374,42.20622c.2-3.4.43618-8.35671.73623-11.65676.3-3,1.60518-3.764,4.10518-5.86393a25.59869,25.59869,0,0,1,3.66-2.18,25.2563,25.2563,0,0,1,2.94-1.22,29.87172,29.87172,0,0,1,7.69995-2.2,16.29386,16.29386,0,0,1,2.22-.09h.12a11.6959,11.6959,0,0,1,4.52.96,6.972,6.972,0,0,1,3.34,2.93c1.5,2.6,1.9,5.8,2.3,8.7q.42,3.765.59,7.54a.1266.1266,0,0,1,.01.06c.07,1.73.11,3.47.1,5.2-.1,8.91-.69,18.12-3.13,26.65a2.16644,2.16644,0,0,1-.07.35c-1,3.1-2.8,5-6.1,5.2s-6.8-.7-10-1.4a52.31659,52.31659,0,0,1-5.2-1.5,13.7639,13.7639,0,0,1-4.2-2,10.22059,10.22059,0,0,1-3.95217-7.50239C6.4466,57.25314,6.62743,49.1262,7.0374,42.20622Z"/><path class="cls-3" d="M34.44592,20.74348a39.31079,39.31079,0,0,1,10.424,1.67181,14.32025,14.32025,0,0,1,8.3039,6.45389c-.099.36173.482,3.59873.324,3.97661-.97-2.3174-3.75037,2.41969-4.43951,7.46913-.24463-1.44825-1.49474-9.43586-2.93835-10.67584a14.85074,14.85074,0,0,0-8.28708-2.9841A6.76206,6.76206,0,0,0,34.44592,20.74348Z"/><path class="cls-3" d="M53.96379,67.17187c-1.71754-.72716-3.01531-4.63266-3.508-6.43153-.3634,10.34481-14.0064,9.5663-14.0064,9.5663a16.79692,16.79692,0,0,1-1.66816,3.87642,61.551,61.551,0,0,0,8.76681-.79958C48.061,72.57251,51.94848,71.23429,53.96379,67.17187Z"/><path class="cls-3" d="M26.87375,19.02254a8.02875,8.02875,0,0,0-2.41206-4.3172c-1.378-1.395-6.27666-2.739-9.22615-3.72955a6.84294,6.84294,0,0,0,2.147-2.16683,2.68374,2.68374,0,0,0-.50135-3.42583s10.0803.922,10.4,5.5C27.28119,13.25379,27.43445,18.0291,26.87375,19.02254Z"/><path class="cls-6" d="M54.48121,30.18314a.09793.09793,0,0,1-.0958.1h-.0042Z"/><path class="cls-7" d="M24.46169,14.70534s-5.18307-4.74788-6.45678-4.42881S6.7095,13.04,6.18121,13.98315,5.235,23.29705,5.935,25.79706c.29263-3.44266,2.0754-9.73687,2.94618-10.41391s8.57725-2.9484,9.6-3.2S23.04738,14.19139,24.46169,14.70534Z"/><path class="cls-7" d="M47.68118,19.28306s-14.13234-8.402-16.8-7.09994a3.65742,3.65742,0,0,0-1.7908,1.70681,16.28808,16.28808,0,0,0-.15636,3.88962s.74423-1.68625,1.28052-2.5631,2.743-1.394,3.28257-1.394S37.58117,14.78306,47.68118,19.28306Z"/><path class="cls-8" d="M40.78123,82.88315v-.3a1.71034,1.71034,0,0,1,1.7183-1.70234q.04088.00019.08169.00234c.3,0,.35227.05781.8.1s1.1-1.1,1.2-1.3a4.2276,4.2276,0,0,1,.52-.67,2.44379,2.44379,0,0,1,.98-.53,1.06243,1.06243,0,0,1,.8.1c.5.3.78337.82618.46923,2.12666S44.78117,84.99706,43.46589,85A3.55136,3.55136,0,0,1,40.78123,82.88315Z"/><path class="cls-8" d="M7.08121,85.28306a.90007.90007,0,0,1,1.4-.4,2.58667,2.58667,0,0,0,1.8.43645,2.44526,2.44526,0,0,0,1.6-1.23644.90786.90786,0,0,1,.7-.30005,1.00211,1.00211,0,0,1,1,1,5.16353,5.16353,0,0,1-.8868,2.46018,3.07069,3.07069,0,0,1-3.1522,1.0772C7.80677,87.94787,6.81144,85.94524,7.08121,85.28306Z"/><path class="cls-8" d="M23.8812,81.28306a5.72115,5.72115,0,0,1,2.6-.1,9.04283,9.04283,0,0,1,1,.36v-.16a1.48251,1.48251,0,0,1,.1-.7,1.739,1.739,0,0,1,1.2-1.4,1.02832,1.02832,0,0,1,1.2.7,9.69652,9.69652,0,0,1,.77,3.9l.43-.1a1.06243,1.06243,0,0,1,.8.1,1.0118,1.0118,0,0,1,.4174,1.36868l-.0174.03132a4.12316,4.12316,0,0,1-3.02,1.96,4.41339,4.41339,0,0,1-2.78-1.16C25.48117,85.08316,21.72116,81.90138,23.8812,81.28306Z"/><path class="cls-1" d="M16.08121,3.88315a3.19524,3.19524,0,0,0,2.4,2.8,11.95173,11.95173,0,0,0-3.5-4.8"/><path class="cls-8" d="M48.68119,18.38306a1.51411,1.51411,0,0,0,1.7-.2c.03876-.03869.07745-.0813.11615-.1258l.48389.72577,1.17738,1.63015c.00811.02332.01434.04663.02258.07l.02112-.0094.07892.10925a.99817.99817,0,0,0,1.2.4,1.02018,1.02018,0,0,0,.6-1.2,15.33472,15.33472,0,0,1-1.1-4.7.9448.9448,0,0,0-1-1c-.139,0-2.50006-.09991-3.00006.70007S47.18119,17.48306,48.68119,18.38306Z"/><path class="cls-8" d="M24.78115,9.48319a5.69992,5.69992,0,0,0,.1,1.3,1.57235,1.57235,0,0,0,1,1.1,1.51666,1.51666,0,0,0,1.3-.3c.207-.17254.4256-.34674.6441-.52337a6.70721,6.70721,0,0,0,.85584,1.22339.96668.96668,0,0,0,1.36666.03334l.03334-.03334c.1-.1.2-.3.3-.4a9.65961,9.65961,0,0,0,.2-3.8c0-.6-1.47175-2.29158-3.26564-2.29158S24.78115,9.48319,24.78115,9.48319Z"/><path class="cls-3" d="M15.53885,22.50554a25.2563,25.2563,0,0,1,2.94-1.22,29.87172,29.87172,0,0,1,7.69995-2.2,16.29386,16.29386,0,0,1,2.22-.09h.12a11.6959,11.6959,0,0,1,4.52.96c1.37.6,3.1377,1.33969,3.92767,2.71969,1.5,2.6,1.31232,6.01029,1.71228,8.91025q.42,3.765.59,7.54c-1-8.59-3.35-9.89-3.35-9.89s-15.27-1.51-14-3.21C22.85885,24.76555,18.0588,23.2155,15.53885,22.50554Z"/><path class="cls-8" d="M.28123,9.18314a12.20255,12.20255,0,0,1,2-2.5,35.5262,35.5262,0,0,1,4.7-4c3.3-2.5,5.81-3.77,8.7-1.5s3,3.2,3.8,5.2a1.101,1.101,0,0,1-1.3,1.3,4.21868,4.21868,0,0,1-1.63-.91c-.09.4-.18.81-.27,1.21a.67531.67531,0,0,1-.4.6A.98359.98359,0,0,1,14.513,8.33226q-.01663-.02409-.0318-.04913a14.41433,14.41433,0,0,1-.85-1.66,13.85348,13.85348,0,0,1-3.85,2.36.95918.95918,0,0,1-1-.3,1.08939,1.08939,0,0,1-.27-.4,15.10374,15.10374,0,0,1-1.03,2,1.00519,1.00519,0,0,1-1.1.5A.94908.94908,0,0,1,5.664,9.64863q.00746-.033.01724-.0655a.0902.0902,0,0,1,.01-.05,9.43365,9.43365,0,0,1-1.01.75,5.651,5.651,0,0,1-3.3,1.3c-.2-.1-.5-.2-.7-.3A1.46451,1.46451,0,0,1,.22738,9.26233Q.253,9.22186.28123,9.18314Z"/><path class="cls-5" d="M10.19882,43.50842c.8165-7.56395,1.51129-12.02385,2.11535-13.56719s9.03007-5.61894,14.1398-5.65042,6.91954.8936,8.42476,4.37851-.08738,40.8904-3.15963,43.1726-19.40665-3.061-20.745-5.17758C10.49041,65.22411,9.38231,51.07237,10.19882,43.50842Z"/><path class="cls-7" d="M34.75189,54.64793c.17053-.44077-1.73671,13.62789-3.98559,15.37935-.55956.4358-3.37656,1.67776-5.05685,1.31868-5.07279-1.08408-12.06116-4.13209-12.40672-4.698s-1.52623-.45219-2.20963-8.30665c-.257-2.95395-.93373-12.7941-.683-16.58012-.85279,4.05706-.84815,24.68335-.10078,26.27915S28.59646,76.61151,32.8609,72.398C33.3616,71.12962,34.44592,62.78326,34.75189,54.64793Z"/><polygon class="cls-5" points="37.417 44.596 34.999 50.983 31.44 45.926 35.368 42.662 37.417 44.596"/><polygon class="cls-2" points="31.44 46.351 38.621 44.243 35.951 41.099 31.44 46.351"/><path class="cls-7" d="M34.136,49.75718l-4.51786-2.93481,4.16993-6.83471s-.24537-10.17493-.33149-10.88973-2.15093-3.49527-3.27121-3.58489a39.15525,39.15525,0,0,0-9.6501-.04738c5.79475-2.30708,12.3025-1.73608,13.18347-.59588s2.21665,2.61077,2.21912,3.64038-.48489,13.251-.48489,13.251L30.7663,46.82237Z"/><path class="cls-2" d="M25.70945,35.48281s-9.13483-7.65292-9.44612-8.27634-4.43158,0-4.43158,0l.06883,4.394S14.98121,30.52839,25.70945,35.48281Z"/><path class="cls-3" d="M45.28961,29.02407s-2.194,1.7347-3.0902,1.50432-2.08343-3.599-2.08343-3.599h4.59285Z"/><path class="cls-7" d="M49.42547,43.72466S46.632,31.64842,45.79,31.64842s-3.25573.842-3.8732.28066-1.44061-4.0727-1.44061-4.0727,1.52314,2.60161,2.07128,2.32676,2.74211-1.15907,2.74211-1.15907,1.95989.62357,1.95989,1.25909S49.1329,40.42707,49.42547,43.72466Z"/><path class="cls-7" d="M49.14415,62.5305c.01207-1.07431.1447-9.11149-.35618-9.82412s-.80409.1237-2.52512,2.00573c.45578-.69833,3.8295-7.298,3.8295-7.298s.70353,15.21867.70388,15.99386a5.62477,5.62477,0,0,1-1.37076,3.401c-.83213.65272-4.13586,3.432-10.50851,3.432,5.28455-1.724,8.07726-3.27078,8.8195-3.98864A6.67387,6.67387,0,0,0,49.14415,62.5305Z"/><path class="cls-2" d="M45.86711,55.20354a18.4107,18.4107,0,0,1-3.47389,2.45,25.78528,25.78528,0,0,0-5.46778,4.64627l.987-7.20114c.44213.58879,1.31683.5654,2.04867.4844a9.97109,9.97109,0,0,0,4.66273-1.31429,9.95178,9.95178,0,0,0,2.60327-3.17037l3.84849-6.29765a2.87938,2.87938,0,0,1,.42531-.69611c.24288-.18746.2741.19707.2339.41819a4.66354,4.66354,0,0,1-.69831,1.2784L49.2758,48.809C49.118,49.07857,47.093,53.94984,45.86711,55.20354Z"/><path class="cls-7" d="M57.49881,58.5255c0-3.58-1.05-13.94-1.14-14.75.12.38.23.76.34,1.14a1.55846,1.55846,0,0,1,.05.16c.29,1.02.57,2.07.83,3.11005.34,1.38.65,2.76.94,4.15.55,2.42,1.31,4.94.44,7.27a14.05567,14.05567,0,0,1-3.16,4.47A8.93725,8.93725,0,0,0,57.49881,58.5255Z"/><path class="cls-7" d="M30.66885,78.54552l-.36-.94c.25.14,4.24,2.5,6.09,2.92,1.91.43,11.89-4.31,11.89-4.31a39.73155,39.73155,0,0,1-10.11,5.57,5.5833,5.5833,0,0,1-5.3-.4A7.75943,7.75943,0,0,1,30.66885,78.54552Z"/><path class="cls-7" d="M5.37881,70.28551c.16-.27.37-.63.61-1.02-.35,1.61.38,3.11.44,3.78.07.83,3.88,5.01,5.93005,6.2,2.05,1.19,7.47.28,7.47.28-1.69.51-3.36,1.05-5.15,1.46-2.2.5-4.1-.7-5.9-1.8a9.90944,9.90944,0,0,1-3.8-3.8A5.51006,5.51006,0,0,1,5.37881,70.28551Z"/><path class="cls-2" d="M48.34659,19.68824l.78271,1.97843a.57924.57924,0,0,0,.91185.22987l1.00622-.84783L49.697,19.28306Z"/><path class="cls-9" d="M13.59065,45.43517l3.69818-3.62854a.699.699,0,0,1,1.149.26723L19.441,44.92881a.699.699,0,0,0,1.28431.08166l1.60619-3.20241a.699.699,0,0,1,1.06107-.23278l4.16716,3.32846a.699.699,0,0,1-.06073,1.13575L24.0734,48.22133a.699.699,0,0,0,.02067,1.19182l3.06582,1.80643a.699.699,0,0,1,.14627,1.08958l-4.01747,4.13115a.699.699,0,0,1-1.08616-.10479l-2.117-3.23753a.699.699,0,0,0-1.16516-.00742l-1.611,2.3966a.699.699,0,0,1-1.09247.08553l-3.013-3.24652a.699.699,0,0,1,.08962-1.03219l2.606-1.97895a.699.699,0,0,0,.0013-1.11239l-2.24469-1.71283A.699.699,0,0,1,13.59065,45.43517Z"/></svg>