<svg id="Layer_1" data-name="Layer 1" xmlns="http://www.w3.org/2000/svg" viewBox="0 0 50 50"><defs><style>.cls-1{fill:#8ea8a7;}.cls-2{fill:#d4e8e7;}</style></defs><path class="cls-1" d="M48.84677,14.18841c-.9876-2.84229-3.30676-7.276-5.00386-7.4692,1.419,2.38916-2.30025-2.38143-1.1576-.05793,7.11378,10.06814,5.06926,25.56054-5.0662,33.08035C23.98187,50.78391,2.65491,36.83155,8.84848,20.43983c2.9294-8.92258,15.39049-13.89559,22.67735-6.79691,3.17325,3.30254,1.23211,1.17366.784,3.55266.50192,3.88392-1.18722,8.29286-5.59517,8.93852-1.1872.34707,1.24272.27062,2.37152-5.43784,1.83272-10.37053-12.51242-8.84634-16.07624.31106-2.512,6.35834.6679,14.79078,7.58969,17.0006,8.39194,3.22654,18.00987-2.2,20.98646-10.196,5.71516-15.292-6.946-23.86471-14.60713-25.35808a20.54862,20.54862,0,0,0-11.77418,1.1889c.572.26041,1.48163-.45564,2.17031-.50183C25.37054.6655,40.95927,4.82237,40.18255,18.24971c-2.49146-5.81035-8.56179-9.04339-15.6024-9.31216-2.82138-.12193.1088-1.62288,2.228-1.095,3.75388.9041,7.671,2.46768,10.31931,5.02988-2.32719-5.215-15.60929-8.74255-22.6457-4.21763-17.13146,8.02244-12.39911,33.00781,5.816,35.53133-1.77633-.85461.58356.088.96322-.19433-2.24784-.6201,5.32632.41569,6.83433-.18256,1.8378.26982,10.31192-3.46846,7.84668-1.89835.76377-.17146,2.10456-1.24229,1.13621-.139C47.00421,36.80459,52.54659,24.57192,48.84677,14.18841ZM26.127,2.78321a.1217.1217,0,0,0,.05427-.0002A.12185.12185,0,0,1,26.127,2.78321Zm.12652-.03838.0095-.00734Zm.01785-.01724.019-.022Zm.02941-.03436.01887-.02384ZM18.48454,21.13055c-.73909,1.13346-.785,1.687-1.41766,2.45058-.61551-2.368.70889-3.90249-2.31092-1.07093C13.90636,20.82871,22.905,15.39771,18.48454,21.13055Zm17.77693,9.7585c.85782,2.22558-5.87808,6.30862-8.761,6.20042-1.53669.25915-6.74-.47071-6.07117-2.20788A23.95787,23.95787,0,0,0,36.26147,30.88905Zm-30.39961.97144c-1.5807-3.89895-2.749-7.646-.94743-11.615v0c1.16216-2.62222,4.42939-7.5715,8.36774-9.76676a7.859,7.859,0,0,1,2.62821-1.282C5.90553,13.49788,1.21312,26.291,7.92061,35.23994A15.77237,15.77237,0,0,1,5.86186,31.86049Zm30.8293,9.28661A.44032.44032,0,0,1,36.82,41.07.44019.44019,0,0,0,36.69116,41.1471Zm.14329-.08275a3.10179,3.10179,0,0,0,.47416-.21124A3.09565,3.09565,0,0,1,36.83445,41.06435Z"/><path class="cls-1" d="M5.05457,39.99832C-2.20374,29.16582.553,12.432,12.39769,5.56035c4.93914-2.70269-2.8024.86792-4.29006,2.63271C-1.03824,15.87687-2.988,31.13333,5.05457,39.99832Z"/><path class="cls-1" d="M3.87168,39.0012c1.55886,3.35361,7.62444,8.18769,10.3796,8.68312A28.04376,28.04376,0,0,1,3.87168,39.0012Z"/><path class="cls-1" d="M11.17009,26.64561a10.66446,10.66446,0,0,0,4.99076,9.4928C13.61287,33.52586,11.38492,30.42208,11.17009,26.64561Z"/><path class="cls-1" d="M43.46365,19.64383a22.96211,22.96211,0,0,1-1.75791,9.19164A15.43483,15.43483,0,0,0,43.46365,19.64383Z"/><path class="cls-1" d="M16.64533,12.62614a11.96081,11.96081,0,0,0-5.732,5.05053A22.06547,22.06547,0,0,1,16.64533,12.62614Z"/><path class="cls-1" d="M23.4043,10.77711a24.06226,24.06226,0,0,1,4.90162,1.313C27.88339,11.31963,24.62686,10.50577,23.4043,10.77711Z"/><path class="cls-1" d="M9.01977,31.01682c-.30731-1.467-.67789-2.87028-.8356-4.312A7.00511,7.00511,0,0,0,9.01977,31.01682Z"/><path class="cls-1" d="M37.52678,13.351l-.0023.00259Z"/><path class="cls-1" d="M14.98082,3.68244a16.27305,16.27305,0,0,0-3.2592,1.67971C12.46591,5.01232,15.45146,3.87666,14.98082,3.68244Z"/><path class="cls-1" d="M14.50331,47.88955c.00475.02355.01668.02756.03935.02211C14.53487,47.889,14.52759,47.865,14.50331,47.88955Z"/><path class="cls-1" d="M11.55239,5.49558c-.03245-.04219-.05686.05555-.00631.0294C11.54863,5.515,11.55589,5.50276,11.55239,5.49558Z"/><path class="cls-2" d="M40.10747,34.67327c1.277-1.69851,2.95954-4.81031,2.39846-5.89352-.83934,1.77737.48455-2.29754-.42609-.71-3.08641,8.16317-12.99909,13.01111-21.44465,9.93564C8.72872,34.22907,8.4474,16.1072,20.53745,13.37082c6.40536-1.75192,14.27933,3.70087,13.00594,10.80491-.67862,3.17629-.19968,1.19079-1.77517,1.85559-2.08188,1.81771-5.343,2.53993-7.47428.17539-.67574-.56909.335.84374,4.13672-.71965,6.82-2.96961.223-10.89048-6.57249-9.42335-4.73324.99643-8.42246,6.18386-6.9693,11.15825,1.44029,6.24509,8.45058,9.83233,14.33045,8.471,11.254-2.59013,11.257-13.46187,9.08919-18.59488a14.86018,14.86018,0,0,0-5.3782-6.52558c.0744.44153.85654.70142,1.1574,1.09224,4.63193,3.77861,8.38625,14.66073.19046,19.45338,2.42266-3.75274,1.90895-8.62194-.73159-12.90738-1.04978-1.72286.99651-.5704,1.52872.8944a16.19145,16.19145,0,0,1,1.1471,8.09505c2.13825-3.42226-1.06891-12.68859-6.52354-15.09587C18.17738,5.0717,5.38221,17.65771,11.13984,29.46011c-.204-1.38906.18027.3809.497.49586-.5292-1.57725,1.87287,3.32509,2.82366,3.98637.572,1.19675,6.136,4.76544,4.23387,3.91608.40429.3864,1.5662.76348.53325.62023C26.09064,42.4285,35.47888,40.93283,40.10747,34.67327Zm-2.33108-17.9522a.088.088,0,0,0,.02168.03214A.0881.0881,0,0,1,37.77639,16.72107Zm.07283.0601.00809.00277Zm.01722.00386.02049.00266Zm.03187.004.0215.00188ZM23.96175,19.36238c-.95954.00467-1.30292.194-2.00292.11714,1.14629-1.292,2.574-1.10607-.28946-1.79111C22.31937,16.526,29.08614,19.74383,23.96175,19.36238Zm1.33372,14.37313c-.96633,1.38013-6.042-1.02162-7.12428-2.77566-.763-.811-2.40243-4.186-1.11621-4.46858A17.30545,17.30545,0,0,0,25.29547,33.73551ZM12.642,16.06621c1.66192-2.46409,3.39855-4.62387,6.44594-5.10721h0c2.00218-.336,6.208-.33268,9.06279,1.14671a5.65928,5.65928,0,0,1,1.79768,1.05884c-6.50307-4.25731-15.88267-2.03769-18.47317,5.44633A11.0741,11.0741,0,0,1,12.642,16.06621Zm6.7988,21.93817a.31659.31659,0,0,1,.09651.04632A.31636.31636,0,0,0,19.4408,38.00438Zm.10555.0527a2.23512,2.23512,0,0,0,.31255.19887A2.23046,2.23046,0,0,1,19.54635,38.05708Z"/><path class="cls-2" d="M7.54107,18.77105C11.019,10.223,21.94394,5.3122,30.68818,9.6561c3.55068,1.87505-1.62367-1.32429-3.25159-1.51705C19.288,5.71532,9.55161,10.52722,7.54107,18.77105Z"/><path class="cls-2" d="M7.6566,17.67858c-1.35027,2.23774-1.77889,7.73058-.97481,9.56027A19.914,19.914,0,0,1,7.6566,17.67858Z"/><path class="cls-2" d="M17.815,17.17744a7.48263,7.48263,0,0,0-3.5923,6.67753C14.74456,21.3199,15.68215,18.78264,17.815,17.17744Z"/><path class="cls-2" d="M34.76341,33.6117a16.05365,16.05365,0,0,1-6.09777,2.55275A10.794,10.794,0,0,0,34.76341,33.6117Z"/><path class="cls-2" d="M28.22612,14.94278a8.54137,8.54137,0,0,0-5.24491-1.42715A15.75939,15.75939,0,0,1,28.22612,14.94278Z"/><path class="cls-2" d="M31.99868,18.23235a17.33163,17.33163,0,0,1,1.177,3.424C33.46031,21.104,32.644,18.85206,31.99868,18.23235Z"/><path class="cls-2" d="M14.39273,17.61108c.73958-.75649,1.41653-1.52557,2.20069-2.18332A4.88726,4.88726,0,0,0,14.39273,17.61108Z"/><path class="cls-2" d="M36.10006,27.62449l-.00243-.00035Z"/><path class="cls-2" d="M32.818,10.455a11.71241,11.71241,0,0,0-2.28207-1.27788C31.0372,9.48217,32.89093,10.81045,32.818,10.455Z"/><path class="cls-2" d="M6.66142,27.4688c-.01195.012-.00956.02068.00265.032C6.67428,27.48732,6.68551,27.47359,6.66142,27.4688Z"/><path class="cls-2" d="M30.39025,9.12887c.01188-.03577-.05523-.012-.01978.00776C30.37736,9.13423,30.38742,9.13376,30.39025,9.12887Z"/></svg>