<?xml version="1.0" encoding="UTF-8" standalone="no"?><!DOCTYPE svg PUBLIC "-//W3C//DTD SVG 1.1//EN" "http://www.w3.org/Graphics/SVG/1.1/DTD/svg11.dtd"><svg width="100%" height="100%" viewBox="0 0 88 192" version="1.1" xmlns="http://www.w3.org/2000/svg" xmlns:xlink="http://www.w3.org/1999/xlink" xml:space="preserve" xmlns:serif="http://www.serif.com/" style="fill-rule:evenodd;clip-rule:evenodd;stroke-linecap:round;stroke-linejoin:round;stroke-miterlimit:1.5;"><g id="_4" serif:id="4"><path d="M33.148,183.783l-22.152,-13.454c-2.378,-1.444 -2.96,-2.918 -1.298,-3.289l37.186,-8.309c1.662,-0.372 4.942,0.5 7.32,1.944l22.152,13.454c2.379,1.444 2.96,2.919 1.298,3.29l-37.186,8.309c-1.662,0.371 -4.942,-0.5 -7.32,-1.945Z" style="fill:#669e2c;"/><g><path d="M38.379,157.572l-0.289,26.401l-26.36,-15.436l0.517,-26.627l7.894,-10.109l19.079,11.173l-0.841,14.598Z" style="fill:#6d6d6d;"/><path d="M75.439,149.422l-0.516,26.601l-36.833,7.95l0.289,-26.401l0.841,-14.598l26.659,-5.754l9.56,12.202Z" style="fill:#9f9c90;"/><path d="M38.379,157.572l-26.132,-15.662l7.894,-10.109l19.079,11.173l-0.841,14.598Z" style="fill:#585858;"/><path d="M75.439,149.422l-37.06,8.15l0.841,-14.598l26.659,-5.754l9.56,12.202Z" style="fill:#b5b2a7;"/></g><g><path d="M47.619,83.855l19.079,11.172l-0.819,42.193l-26.659,5.754l-19.079,-11.173l0.819,-42.211l26.659,-5.735Z" style="fill:#6d6d6d;"/><path d="M39.874,100.926l-18.914,-11.336l26.659,-5.735l19.079,11.172l-26.824,5.899Z" style="fill:#939084;"/><path d="M66.698,95.027l-0.819,42.193l-26.659,5.754l0.654,-42.048l26.824,-5.899Z" style="fill:#9f9c90;"/><path d="M47.619,83.855l19.079,11.172l-0.208,10.733l-26.781,5.78l-18.958,-11.198l0.209,-10.752l26.659,-5.735Z" style="fill-opacity:0.25;"/></g><g><path d="M44.652,162.174l-0.057,2.937l-4.066,0.878l0.032,-2.915l4.091,-0.9Z" style="fill:#b5b2a7;"/><path d="M48.775,158.36l-0.057,2.937l-4.066,0.877l0.032,-2.914l4.091,-0.9Z" style="fill:#b5b2a7;"/><path d="M74.255,171.388l-0.057,2.937l-4.067,0.878l0.032,-2.915l4.092,-0.9Z" style="fill:#b5b2a7;"/><path d="M64.371,132.816l-0.057,2.937l-4.066,0.878l0.032,-2.915l4.091,-0.9Z" style="fill:#b5b2a7;"/><path d="M48.775,125.051l-0.057,2.936l-4.066,0.878l0.032,-2.915l4.091,-0.899Z" style="fill:#b5b2a7;"/><path d="M44.652,128.865l-0.057,2.937l-4.066,0.877l0.032,-2.914l4.091,-0.9Z" style="fill:#b5b2a7;"/><path d="M70.343,146.627l1.575,1.954l-4.067,0.878l-1.591,-1.938l4.083,-0.894Z" style="fill:#aba9a2;"/><path d="M64.685,145.587l1.575,1.955l-4.066,0.877l-1.591,-1.938l4.082,-0.894Z" style="fill:#aba9a2;"/><path d="M46.672,150.739l1.576,1.955l-4.067,0.878l-1.591,-1.939l4.082,-0.894Z" style="fill:#aba9a2;"/></g><g><path d="M16.052,163.395l4.452,2.607l-0,3.153l-4.452,-2.607l0,-3.153Z" style="fill:#5b5b5b;"/><path d="M20.504,162.849l4.451,2.607l0,3.153l-4.451,-2.607l-0,-3.153Z" style="fill:#5b5b5b;"/><path d="M13.826,145.825l4.452,2.607l-0,3.152l-4.452,-2.606l0,-3.153Z" style="fill:#5b5b5b;"/><path d="M33.04,128.64l4.451,2.607l0,3.152l-4.451,-2.606l-0,-3.153Z" style="fill:#5b5b5b;"/><path d="M22.005,102.33l4.451,2.607l0,3.153l-4.451,-2.607l-0,-3.153Z" style="fill:#5b5b5b;"/><path d="M31.567,174.399l4.451,2.606l0,3.153l-4.451,-2.607l-0,-3.152Z" style="fill:#5b5b5b;"/></g><g><g><path d="M26.367,167.029l7.242,4.27l-0,-7.993c-0,-2.407 -1.623,-5.318 -3.621,-6.496c-1.998,-1.178 -3.621,-0.181 -3.621,2.226l0,7.993Z" style="fill:#fff078;"/><path d="M28.801,156.35c-1.416,-0.242 -2.434,0.78 -2.434,2.686l0,7.993l7.242,4.27l-0,-1.522l-5.522,-3.256l-0,-7.993c-0,-0.973 0.265,-1.716 0.714,-2.178Z" style="fill:#474747;"/></g><g><path d="M15.148,160.459l7.241,4.27l0,-7.993c0,-2.407 -1.622,-5.318 -3.62,-6.496c-1.999,-1.178 -3.621,-0.181 -3.621,2.226l-0,7.993Z" style="fill:#fff078;"/><path d="M17.581,149.78c-1.416,-0.242 -2.433,0.78 -2.433,2.686l-0,7.993l7.241,4.27l0,-1.522l-5.522,-3.256l0,-7.993c0,-0.973 0.266,-1.716 0.714,-2.178Z" style="fill:#474747;"/></g></g><g><g><path d="M68.883,158.36l-0.37,19.046l-21.932,4.734l0.207,-18.903l22.095,-4.877Z" style="fill:#88512b;"/><path d="M57.264,160.925l0.468,-0.104l-0,18.912l-0.468,0.101l0,-18.909Z" style="fill:#482a15;"/><path d="M47.897,181.856l0.352,-18.941l2.857,-0.631l-0.353,18.955l-2.856,0.617Zm4.623,-0.998l0.352,-18.964l2.857,-0.63l-0.353,18.978l-2.856,0.616Zm6.689,-1.444l0.353,-18.997l2.857,-0.63l-0.354,19.011l-2.856,0.616Zm4.547,-0.981l0.354,-19.019l2.856,-0.631l-0.354,19.033l-2.856,0.617Z" style="fill:#704527;"/><path d="M67.317,158.706l1.566,-0.346l-0.37,19.046l-21.932,4.734l0.012,-1.124l20.376,-4.398l0.348,-17.912Z" style="fill:#6d6d6d;"/></g><g><path d="M56.372,170.032l0.384,0.218l-0.063,3.596l-2.127,0.459l-0.384,-0.218l0.048,-3.582l2.142,-0.473Z" style="fill:#bd9707;"/><path d="M56.756,170.25l-0.063,3.596l-2.127,0.459l0.048,-3.582l2.142,-0.473Z" style="fill:#ffd227;"/><path d="M56.025,172.149c0.755,-0.15 1.385,0.338 1.406,1.089c0.021,0.751 -0.574,1.482 -1.329,1.632c-0.755,0.15 -1.385,-0.338 -1.407,-1.088c-0.021,-0.751 0.575,-1.483 1.33,-1.633Zm0.014,0.514c0.47,-0.094 0.863,0.21 0.876,0.677c0.013,0.468 -0.358,0.923 -0.828,1.017c-0.47,0.093 -0.862,-0.211 -0.875,-0.678c-0.014,-0.467 0.357,-0.923 0.827,-1.016Z" style="fill:#a3a3a3;"/><path d="M55.967,171.86l0.462,0.283l-0.01,0.736l-0.357,0.077l-0.463,-0.283l0.008,-0.734l0.36,-0.079Z" style="fill:#bd9707;"/><path d="M56.429,172.143l-0.01,0.736l-0.357,0.077l0.008,-0.734l0.359,-0.079Z" style="fill:#ffd227;"/><path d="M55.911,174.895c-0.668,0.04 -1.196,-0.427 -1.216,-1.113c-0.016,-0.589 0.346,-1.165 0.867,-1.459c0.428,-0.242 0.589,0.282 0.322,0.385c-0.394,0.151 -0.684,0.556 -0.672,0.971c0.011,0.407 0.311,0.69 0.699,0.695l-0,0.521Z" style="fill:#a3a3a3;"/><path d="M56.687,172.408c0.603,0.312 0.661,0.991 0.375,1.512c-0.217,0.394 -0.646,0.683 -1.096,0.742c-0.921,0.121 -1.579,-1.309 -0.191,-2.179" style="fill:none;stroke:#c4c4c4;stroke-width:1px;"/></g><g><path d="M60.37,169.244l0.384,0.219l-0.064,3.595l-2.127,0.459l-0.383,-0.218l0.048,-3.582l2.142,-0.473Z" style="fill:#bd9707;"/><path d="M60.754,169.463l-0.064,3.595l-2.127,0.459l0.048,-3.582l2.143,-0.472Z" style="fill:#ffd227;"/><path d="M60.022,171.362c0.755,-0.15 1.385,0.338 1.407,1.088c0.021,0.751 -0.575,1.483 -1.33,1.633c-0.755,0.15 -1.385,-0.338 -1.406,-1.089c-0.022,-0.751 0.574,-1.482 1.329,-1.632Zm0.015,0.513c0.47,-0.093 0.862,0.211 0.875,0.678c0.014,0.468 -0.357,0.923 -0.827,1.016c-0.47,0.094 -0.863,-0.21 -0.876,-0.677c-0.013,-0.468 0.358,-0.923 0.828,-1.017Z" style="fill:#a3a3a3;"/><path d="M59.964,171.072l0.463,0.283l-0.011,0.737l-0.357,0.077l-0.463,-0.283l0.009,-0.734l0.359,-0.08Z" style="fill:#bd9707;"/><path d="M60.427,171.355l-0.011,0.737l-0.357,0.077l0.008,-0.734l0.36,-0.08Z" style="fill:#ffd227;"/><path d="M59.908,174.107c-0.667,0.04 -1.196,-0.426 -1.215,-1.113c-0.017,-0.588 0.345,-1.165 0.866,-1.459c0.428,-0.241 0.589,0.283 0.322,0.386c-0.393,0.151 -0.684,0.556 -0.672,0.971c0.012,0.407 0.311,0.69 0.699,0.694l0,0.521Z" style="fill:#a3a3a3;"/><path d="M60.685,171.621c0.603,0.311 0.66,0.991 0.374,1.512c-0.217,0.394 -0.646,0.682 -1.096,0.742c-0.92,0.121 -1.578,-1.31 -0.191,-2.18" style="fill:none;stroke:#c4c4c4;stroke-width:1px;"/></g></g><g><path d="M29.787,134.399l-3.331,-1.95l0.392,-23.331l3.302,1.979l-0.363,23.302Z" style="fill:#fff078;"/><path d="M29.811,132.849l-0.024,1.55l-3.331,-1.95l0.392,-23.331l1.353,0.811l-0.365,21.764l1.975,1.156Z" style="fill:#474747;"/></g><g><path d="M54.096,108.949l7.514,5.89l-7.514,9.139l-7.515,-5.89l7.515,-9.139Z" style="fill:#fff078;"/><path d="M53.148,110.102l0.948,-1.153l7.514,5.89l-7.514,9.139l-1.471,-1.152l6.567,-7.987l-6.044,-4.737Z" style="fill:#6d6d6d;"/></g><g><g><path d="M48.304,79.621l22.465,13.155l-0.158,8.158l-31.392,6.776l-22.465,-13.155l0.158,-8.181l31.392,-6.753Z" style="fill:#6d6d6d;"/><path d="M39.184,99.722l-22.272,-13.348l31.392,-6.753l22.465,13.155l-31.585,6.946Z" style="fill:#939084;"/><path d="M70.769,92.776l-0.158,8.158l-31.392,6.776l-0.035,-7.988l31.585,-6.946Z" style="fill:#9f9c90;"/></g><g><g><g><path d="M36.012,78.437l3.613,2.095l-0.013,3.877l-5.049,1.11l-3.613,-2.165l0.013,-3.881l5.049,-1.036Z" style="fill:#6d6d6d;"/><path d="M34.545,81.67l-3.582,-2.197l5.049,-1.036l3.613,2.095l-5.08,1.138Z" style="fill:#b3b1aa;"/><path d="M39.625,80.532l-0.013,3.877c-1.746,0.37 -3.366,0.74 -5.049,1.11l-0.018,-3.849l5.08,-1.138Z" style="fill:#9f9c90;"/></g><g><path d="M48.349,75.782l3.614,2.096l-0.013,3.877l-5.049,1.11l-3.613,-2.165l0.013,-3.881l5.048,-1.037Z" style="fill:#6d6d6d;"/><path d="M46.883,79.016l-3.582,-2.197l5.048,-1.037l3.614,2.096l-5.08,1.138Z" style="fill:#b3b1aa;"/><path d="M51.963,77.878l-0.013,3.877c-1.746,0.37 -3.366,0.74 -5.049,1.11l-0.018,-3.849l5.08,-1.138Z" style="fill:#9f9c90;"/></g><g><path d="M57.65,81.23l3.614,2.095l-0.013,3.877l-5.049,1.11l-3.613,-2.165l0.013,-3.881l5.048,-1.036Z" style="fill:#6d6d6d;"/><path d="M56.184,84.463l-3.582,-2.197l5.048,-1.036l3.614,2.095l-5.08,1.138Z" style="fill:#b3b1aa;"/><path d="M61.264,83.325l-0.013,3.877c-1.746,0.37 -3.366,0.74 -5.049,1.11l-0.018,-3.849l5.08,-1.138Z" style="fill:#9f9c90;"/></g></g><g><g><path d="M30.96,86.842l3.613,2.095l-0.013,3.877l-5.048,1.111l-3.614,-2.166l0.013,-3.88l5.049,-1.037Z" style="fill:#6d6d6d;"/><path d="M29.493,90.075l-3.582,-2.196l5.049,-1.037l3.613,2.095l-5.08,1.138Z" style="fill:#b3b1aa;"/><path d="M34.573,88.937l-0.013,3.877c-1.746,0.371 -3.366,0.741 -5.048,1.111l-0.019,-3.85l5.08,-1.138Z" style="fill:#9f9c90;"/></g><g><path d="M21.974,81.456l3.613,2.116l-0.013,3.877l-5.048,1.09l-3.614,-2.165l0.013,-3.881l5.049,-1.037Z" style="fill:#6d6d6d;"/><path d="M20.507,84.689l-3.582,-2.196l5.049,-1.037l3.613,2.116l-5.08,1.117Z" style="fill:#b3b1aa;"/><path d="M25.587,83.572l-0.013,3.877l-5.048,1.09l-0.019,-3.85l5.08,-1.117Z" style="fill:#9f9c90;"/></g></g><g><g><path d="M40.633,92.639l3.613,2.116l-0.013,3.877l-5.049,1.09l-3.613,-2.165l0.013,-3.881l5.049,-1.037Z" style="fill:#6d6d6d;"/><path d="M39.166,95.873l-3.582,-2.197l5.049,-1.037l3.613,2.116l-5.08,1.118Z" style="fill:#b3b1aa;"/><path d="M44.246,94.755l-0.013,3.877l-5.049,1.09l-0.018,-3.849l5.08,-1.118Z" style="fill:#9f9c90;"/></g><g><path d="M53.604,89.787l3.614,2.095l-0.013,3.877l-5.049,1.11l-3.613,-2.165l0.013,-3.881l5.048,-1.036Z" style="fill:#6d6d6d;"/><path d="M52.138,93.02l-3.582,-2.197l5.048,-1.036l3.614,2.095l-5.08,1.138Z" style="fill:#b3b1aa;"/><path d="M57.218,91.882l-0.013,3.877c-1.746,0.37 -3.366,0.74 -5.049,1.11l-0.018,-3.849l5.08,-1.138Z" style="fill:#9f9c90;"/></g><g><path d="M67.169,86.804l3.613,2.095l-0.013,3.877l-5.049,1.11l-3.613,-2.165l0.013,-3.881l5.049,-1.036Z" style="fill:#6d6d6d;"/><path d="M65.702,90.037l-3.582,-2.197l5.049,-1.036l3.613,2.095l-5.08,1.138Z" style="fill:#b3b1aa;"/><path d="M70.782,88.899l-0.013,3.877l-5.049,1.11l-0.018,-3.849l5.08,-1.138Z" style="fill:#9f9c90;"/></g></g></g></g></g></svg>