<?xml version="1.0" encoding="UTF-8" standalone="no"?><!DOCTYPE svg PUBLIC "-//W3C//DTD SVG 1.1//EN" "http://www.w3.org/Graphics/SVG/1.1/DTD/svg11.dtd"><svg width="100%" height="100%" viewBox="0 0 88 192" version="1.1" xmlns="http://www.w3.org/2000/svg" xmlns:xlink="http://www.w3.org/1999/xlink" xml:space="preserve" xmlns:serif="http://www.serif.com/" style="fill-rule:evenodd;clip-rule:evenodd;stroke-linejoin:round;stroke-miterlimit:2;"><g id="_2" serif:id="2"><path d="M35.043,183.345l-14.465,-8.786c-2.378,-1.444 -2.96,-2.918 -1.298,-3.29l25.492,-5.695c1.662,-0.372 4.941,0.499 7.32,1.944l14.465,8.785c2.378,1.445 2.96,2.919 1.298,3.29l-25.492,5.696c-1.662,0.371 -4.942,-0.5 -7.32,-1.944Z" style="fill:#669e2c;"/><g><path d="M50.892,169.263c0,0.889 -1.593,1.61 -3.555,1.61c-1.962,0 -3.554,-0.721 -3.554,-1.61l-0,-27.099l7.109,-0l0,27.099Z" style="fill:#6d2d17;"/><path d="M50.892,158.464c0,0.888 -1.593,1.61 -3.555,1.61c-1.962,-0 -3.554,-0.722 -3.554,-1.61l-0,-16.3l7.109,-0l0,16.3Z" style="fill:#120500;fill-opacity:0.25;"/><g><path d="M41.876,175.361l-0,-22.78c-0,-0.466 0.835,-0.844 1.863,-0.844c1.029,-0 1.864,0.378 1.864,0.844l-0,22.78c-0,0.466 -0.835,0.844 -1.864,0.844c-1.028,-0 -1.863,-0.378 -1.863,-0.844Z" style="fill:#6d2d17;"/><path d="M41.876,175.361l-0,-22.78c-0,-0.466 0.835,-0.844 1.863,-0.844c1.029,-0 1.864,0.378 1.864,0.844l-0,22.78c-0,0.466 -0.835,0.844 -1.864,0.844c-1.028,-0 -1.863,-0.378 -1.863,-0.844Z" style="fill:#120500;fill-opacity:0.25;"/></g><path d="M43.739,181.424c0,0.889 -1.593,1.61 -3.555,1.61c-1.962,0 -3.554,-0.721 -3.554,-1.61l-0,-27.099l7.109,0l0,27.099Z" style="fill:#6d2d17;"/><path d="M43.739,161.019c0,0.888 -1.593,1.61 -3.555,1.61c-1.962,-0 -3.554,-0.722 -3.554,-1.61l-0,-6.694l7.109,0l0,6.694Z" style="fill:#120500;fill-opacity:0.25;"/><path d="M43.739,168.566c0,0.888 -1.593,1.61 -3.555,1.61c-1.962,-0 -3.554,-0.722 -3.554,-1.61l-0,-3.537l7.109,0l0,3.537Z" style="fill:#120500;fill-opacity:0.25;"/><path d="M43.739,177.195c0,0.889 -1.593,1.61 -3.555,1.61c-1.962,0 -3.554,-0.721 -3.554,-1.61l-0,-1.464l7.109,0l0,1.464Z" style="fill:#120500;fill-opacity:0.25;"/><path d="M63.105,177.269c-0,0.889 -1.593,1.61 -3.555,1.61c-1.962,0 -3.555,-0.721 -3.555,-1.61l0,-27.099l7.11,0l-0,27.099Z" style="fill:#6d2d17;"/><path d="M63.105,156.864c-0,0.888 -1.593,1.61 -3.555,1.61c-1.962,-0 -3.555,-0.722 -3.555,-1.61l0,-6.694l7.11,0l-0,6.694Z" style="fill:#120500;fill-opacity:0.25;"/><path d="M63.105,164.411c-0,0.888 -1.593,1.61 -3.555,1.61c-1.962,-0 -3.555,-0.722 -3.555,-1.61l0,-1.862l7.11,0l-0,1.862Z" style="fill:#120500;fill-opacity:0.25;"/><path d="M63.105,173.04c-0,0.889 -1.593,1.61 -3.555,1.61c-1.962,0 -3.555,-0.721 -3.555,-1.61l0,-1.007l7.11,-0l-0,1.007Z" style="fill:#120500;fill-opacity:0.25;"/><path d="M31.527,173.418c-0,0.889 -1.593,1.61 -3.555,1.61c-1.962,0 -3.555,-0.721 -3.555,-1.61l0,-27.099l7.11,-0l-0,27.099Z" style="fill:#6d2d17;"/><path d="M31.527,153.013c-0,0.888 -1.593,1.61 -3.555,1.61c-1.962,-0 -3.555,-0.722 -3.555,-1.61l0,-6.694l7.11,-0l-0,6.694Z" style="fill:#120500;fill-opacity:0.25;"/></g><g><g><path d="M64.715,158.683l-29.216,5.952l0,4.318l0.916,0.536l28.98,-6.221l0,-4.317l-0.68,-0.268Z" style="fill:#9b4c31;"/><path d="M35.499,164.635l0.916,0.536l-0,4.318l-0.916,-0.536l0,-4.318Z" style="fill:#6d2d17;"/><path d="M36.415,165.171l28.98,-6.22l0,4.317l-28.98,6.221l-0,-4.318Z" style="fill:#7c3d27;"/><path d="M64.715,169.604l-29.216,5.952l0,2.462l0.916,0.536l28.98,-6.22l0,-2.462l-0.68,-0.268Z" style="fill:#9b4c31;"/><path d="M35.499,175.556l0.916,0.536l-0,2.462l-0.916,-0.536l0,-2.462Z" style="fill:#6d2d17;"/><path d="M36.415,176.092l28.98,-6.22l0,2.462l-28.98,6.22l-0,-2.462Z" style="fill:#7c3d27;"/></g><g><g><path d="M41.603,164.73c0.633,-0.133 1.147,0.273 1.147,0.906c0,0.633 -0.514,1.255 -1.147,1.389c-0.633,0.133 -1.147,-0.273 -1.147,-0.906c-0,-0.633 0.514,-1.255 1.147,-1.389Z" style="fill:#572311;"/><path d="M42.666,165.303c0.054,0.114 0.084,0.246 0.084,0.392c0,0.572 -0.465,1.134 -1.037,1.255c-0.146,0.031 -0.286,0.03 -0.413,0.001l-0.059,0.061c-0,0 -0.286,-0.231 -0.31,-0.254c-0.159,-0.149 -0.254,-0.366 -0.254,-0.626c-0,-0.572 0.464,-1.135 1.036,-1.256c0.285,-0.059 0.543,0.001 0.73,0.147c0.008,0.007 0.271,0.221 0.271,0.221l-0.048,0.059Z" style="fill:#5a5a5a;"/><path d="M41.967,165.084c0.573,-0.121 1.037,0.246 1.037,0.818c0,0.572 -0.464,1.134 -1.037,1.255c-0.572,0.121 -1.036,-0.246 -1.036,-0.818c-0,-0.572 0.464,-1.135 1.036,-1.255Z" style="fill:#717171;"/></g><g><path d="M61.434,160.747c0.633,-0.133 1.147,0.273 1.147,0.906c-0,0.633 -0.514,1.255 -1.147,1.389c-0.634,0.133 -1.148,-0.272 -1.148,-0.906c0,-0.633 0.514,-1.255 1.148,-1.389Z" style="fill:#572311;"/><path d="M62.496,161.32c0.055,0.114 0.085,0.246 0.085,0.392c-0,0.572 -0.465,1.134 -1.037,1.255c-0.147,0.031 -0.286,0.03 -0.413,0.001l-0.059,0.062c-0,-0 -0.286,-0.232 -0.31,-0.255c-0.159,-0.149 -0.255,-0.366 -0.255,-0.626c0,-0.572 0.465,-1.135 1.037,-1.256c0.285,-0.059 0.543,0.001 0.73,0.147c0.008,0.007 0.27,0.221 0.27,0.221l-0.048,0.059Z" style="fill:#5a5a5a;"/><path d="M61.798,161.101c0.572,-0.121 1.037,0.246 1.037,0.818c-0,0.572 -0.465,1.134 -1.037,1.255c-0.572,0.121 -1.036,-0.246 -1.036,-0.818c-0,-0.572 0.464,-1.135 1.036,-1.255Z" style="fill:#717171;"/></g><g><path d="M61.474,171.118c0.433,-0.091 0.785,0.186 0.785,0.62c0,0.434 -0.352,0.86 -0.785,0.951c-0.434,0.091 -0.786,-0.186 -0.786,-0.62c0,-0.433 0.352,-0.86 0.786,-0.951Z" style="fill:#572311;"/><path d="M62.201,171.51c0.038,0.078 0.058,0.169 0.058,0.268c0,0.392 -0.318,0.777 -0.71,0.86c-0.1,0.021 -0.196,0.02 -0.282,0.001l-0.041,0.042c-0,-0 -0.196,-0.159 -0.213,-0.175c-0.108,-0.102 -0.174,-0.25 -0.174,-0.428c0,-0.392 0.319,-0.777 0.71,-0.86c0.195,-0.041 0.372,0.001 0.5,0.101c0.006,0.004 0.185,0.15 0.185,0.15l-0.033,0.041Z" style="fill:#5a5a5a;"/><path d="M61.723,171.36c0.392,-0.083 0.71,0.168 0.71,0.56c0,0.392 -0.318,0.777 -0.71,0.86c-0.391,0.082 -0.71,-0.169 -0.71,-0.561c0,-0.391 0.319,-0.777 0.71,-0.859Z" style="fill:#717171;"/></g><g><path d="M41.516,175.475c0.433,-0.092 0.785,0.186 0.785,0.62c0,0.433 -0.352,0.859 -0.785,0.951c-0.434,0.091 -0.786,-0.187 -0.786,-0.62c0,-0.434 0.352,-0.86 0.786,-0.951Z" style="fill:#572311;"/><path d="M42.244,175.866c0.037,0.079 0.057,0.169 0.057,0.269c0,0.392 -0.318,0.777 -0.71,0.859c-0.1,0.022 -0.196,0.021 -0.282,0.001l-0.041,0.042c-0,0 -0.196,-0.158 -0.212,-0.174c-0.109,-0.102 -0.174,-0.251 -0.174,-0.429c-0,-0.392 0.318,-0.777 0.709,-0.859c0.195,-0.041 0.372,0 0.5,0.1c0.006,0.005 0.185,0.151 0.185,0.151l-0.032,0.04Z" style="fill:#5a5a5a;"/><path d="M41.765,175.716c0.392,-0.082 0.71,0.169 0.71,0.561c0,0.392 -0.318,0.777 -0.71,0.859c-0.391,0.083 -0.709,-0.168 -0.709,-0.56c-0,-0.392 0.318,-0.777 0.709,-0.86Z" style="fill:#717171;"/></g></g></g><g><path d="M47.193,137.511l-24.647,5.292l0,7.539l17.638,10.328l24.004,-5.152l-0,-7.538l-16.995,-10.469Z" style="fill:#9b4c31;"/><path d="M22.546,142.803l17.638,10.329l0,7.538l-17.638,-10.328l0,-7.539Z" style="fill:#6d2d17;"/><path d="M22.546,147.079l0,-2.782c0.52,0.223 1.015,0.548 1.353,0.928l0.964,1.277c0.301,0.378 0.623,0.737 0.955,1.086c0.333,0.348 0.678,0.684 1.04,1.004l2.033,1.88c0.369,0.327 0.706,0.667 1.101,0.963c0.607,0.454 1.285,0.801 1.964,1.137l3.051,1.279c1.066,0.51 2.002,1.245 3.057,1.77c0.544,0.271 1.072,0.497 1.668,0.617c0.167,0.033 0.308,0.043 0.452,0.048l0,1.336c-0.785,-0.323 -1.579,-0.627 -2.384,-0.91l-3.875,-1.366l-1.992,-0.923c-0.69,-0.293 -1.408,-0.529 -2.1,-0.82c-0.431,-0.181 -0.852,-0.384 -1.248,-0.639c-0.362,-0.233 -0.73,-0.486 -1.074,-0.767c-0.327,-0.268 -0.633,-0.562 -0.886,-0.887c-0.543,-0.699 -0.917,-1.463 -1.419,-2.161c-0.234,-0.325 -0.494,-0.637 -0.802,-0.926c-0.485,-0.429 -1.049,-0.807 -1.665,-1.059c-0.064,-0.027 -0.128,-0.056 -0.193,-0.085Zm0,-3.417l0,-0.859l17.638,10.329l0,2.022c-0.338,-0.392 -0.688,-0.738 -1.083,-1.082c-0.945,-0.823 -2.021,-1.48 -3.114,-2.1l-3.117,-1.386c-0.729,-0.304 -1.399,-0.726 -2.11,-1.07c-0.33,-0.16 -0.664,-0.268 -1.002,-0.406c-0.516,-0.211 -1.006,-0.371 -1.493,-0.61c-0.305,-0.15 -0.591,-0.327 -0.88,-0.526c-0.354,-0.292 -0.698,-0.595 -1.022,-0.919c-0.323,-0.324 -0.627,-0.666 -0.916,-1.023l-1.005,-1.328c-0.368,-0.362 -0.855,-0.702 -1.397,-0.899c-0.164,-0.06 -0.331,-0.108 -0.499,-0.143Zm17.638,15.573l0,1.435l-9.361,-5.481c0.225,0.086 0.448,0.175 0.668,0.269l2,0.947l3.863,1.5c0.973,0.385 1.9,0.863 2.83,1.33Zm-14.123,-6.835l-3.515,-2.058l0,-2.075c0.031,0.018 0.06,0.036 0.09,0.055c0.347,0.226 0.69,0.456 0.98,0.736c0.252,0.238 0.462,0.497 0.655,0.764c0.51,0.71 0.899,1.481 1.455,2.19c0.105,0.134 0.217,0.263 0.335,0.388Z" style="fill:#5c210d;"/><path d="M40.184,153.132l24.004,-5.152l-0,7.538l-24.004,5.152l0,-7.538Z" style="fill:#7c3d27;"/><path d="M40.184,157.75l0,-4.618l1.327,-0.285c0.185,0.034 0.364,0.085 0.553,0.128l3.068,1.378c0.636,0.178 1.319,0.319 2.027,0.4c1.026,0.118 2.083,0.08 3.037,0.012c1.477,-0.123 2.912,-0.419 4.325,-0.807c2.934,-0.808 5.761,-2.048 8.771,-2.564c0.299,-0.053 0.597,-0.098 0.896,-0.137l-0,1.314c-1.39,0.231 -2.771,0.507 -4.135,0.863c-0.822,0.214 -1.629,0.478 -2.433,0.752l-6.867,2.829c-0.705,0.216 -1.409,0.356 -2.141,0.398c-0.539,0.031 -1.078,0.033 -1.621,0.004c-1.33,-0.07 -2.656,-0.251 -3.969,-0.153c-0.996,0.069 -1.924,0.246 -2.838,0.486Zm24.004,-2.425l-0,0.193l-2.036,0.437c0.546,-0.178 1.096,-0.349 1.647,-0.517c0.129,-0.039 0.259,-0.077 0.389,-0.113Zm-15.99,3.625l-8.014,1.72l0,-1.705c0.036,-0.01 0.072,-0.019 0.108,-0.028c0.905,-0.232 1.819,-0.399 2.803,-0.449c1.224,-0.055 2.46,0.075 3.686,0.255c0.475,0.069 0.946,0.143 1.417,0.207Zm15.99,-8.969c-0.042,0.008 -0.085,0.017 -0.127,0.026c-0.857,0.116 -1.694,0.344 -2.549,0.491c-0.222,0.038 -0.443,0.056 -0.668,0.076c-0.878,0.079 -1.715,0.069 -2.592,0.149c-0.864,0.079 -1.711,0.224 -2.579,0.257c-1.169,0.116 -2.364,0.142 -3.561,0.13c-0.744,-0.007 -1.488,-0.029 -2.225,-0.061l2.298,-0.493c0.208,-0.005 0.416,-0.011 0.624,-0.02c0.937,-0.038 1.867,-0.126 2.779,-0.259c0.764,-0.157 1.517,-0.338 2.251,-0.603c0.519,-0.187 1.009,-0.419 1.499,-0.653l4.85,-1.041l-0,2.001Z" style="fill:#89432b;"/></g><path d="M41.876,145.678l-0,-27.323c-0,-0.466 0.835,-0.845 1.863,-0.845c1.029,0 1.864,0.379 1.864,0.845l-0,27.323c-0,0.466 -0.835,0.844 -1.864,0.844c-1.028,0 -1.863,-0.378 -1.863,-0.844Z" style="fill:#6d2d17;"/><g><path d="M46.103,122.009l-17.626,3.784l-0,17.622l12.614,7.386l17.166,-3.684l0,-17.621l-12.154,-7.487Z" style="fill:#457c2c;"/><path d="M28.477,125.793l12.614,7.387l-0,17.621l-12.614,-7.386l-0,-17.622Z" style="fill:#3f7025;"/><path d="M41.091,133.18l17.166,-3.684l0,17.621l-17.166,3.684l-0,-17.621Z"/><path d="M52.712,148.307c-2.256,-5.035 -3.323,-10.664 -3.038,-16.969l8.583,-1.842l0,17.621l-5.545,1.19Z" style="fill:#3f6d2a;"/><path d="M54.536,147.915c-2.778,-4.029 -5.434,-9.72 -4.862,-16.577c1.236,5.852 3.48,11.246 6.756,16.171l-1.894,0.406Z" style="fill:#3e602f;"/><path d="M55.301,143.604c-1.121,-1.216 -1.847,-2.719 -2.288,-4.429l2.288,4.429Z" style="fill:#3e602f;"/><path d="M41.091,133.18l8.583,-1.842c0.241,6.941 -0.42,13.092 -2.357,18.127l-6.226,1.336l-0,-17.621Z" style="fill:#457c2c;"/><path d="M43.367,150.313c2.969,-5.978 4.884,-12.379 6.307,-18.975c0.241,6.941 -2.074,13.446 -4.01,18.482l-2.297,0.493Z" style="fill:#34691c;"/><path d="M43.637,145.946c1.831,-1.987 3.07,-5.349 3.548,-8.627l-3.548,8.627Z" style="fill:#34691c;"/><path d="M46.103,122.009l-17.626,3.784l-0,8.539l12.614,6.075l17.166,-3.277l0,-7.634l-12.154,-7.487Z" style="fill:#133c00;fill-opacity:0.25;"/></g><path d="M25.238,142.834c0.075,0.32 -0.124,0.642 -0.445,0.717c-0.321,0.075 -0.642,-0.125 -0.717,-0.445l-3.439,-14.691c-0.075,-0.321 0.124,-0.642 0.445,-0.717c0.32,-0.075 0.642,0.124 0.717,0.445l3.439,14.691Zm36.933,4.798c-0.089,0.317 -0.419,0.502 -0.736,0.412c-0.317,-0.089 -0.502,-0.419 -0.412,-0.736l4.161,-14.733c0.089,-0.317 0.419,-0.502 0.736,-0.412c0.317,0.089 0.502,0.419 0.412,0.736l-4.161,14.733Zm-20.992,4.011c0.021,0.328 -0.228,0.613 -0.557,0.634c-0.328,0.022 -0.612,-0.227 -0.634,-0.556l-1.006,-15.277c-0.021,-0.328 0.228,-0.613 0.557,-0.634c0.328,-0.022 0.612,0.227 0.634,0.556l1.006,15.277Z" style="fill:#af6f42;"/><path d="M22.526,131.251c0.075,0.321 -0.124,0.642 -0.445,0.717c-0.32,0.075 -0.642,-0.124 -0.717,-0.445l-0.727,-3.108c-0.075,-0.321 0.124,-0.642 0.445,-0.717c0.32,-0.075 0.642,0.124 0.717,0.445l0.727,3.108Zm42.816,5.154c-0.089,0.317 -0.419,0.502 -0.736,0.412c-0.317,-0.089 -0.502,-0.419 -0.412,-0.736l0.99,-3.506c0.089,-0.317 0.419,-0.502 0.736,-0.412c0.317,0.089 0.502,0.419 0.412,0.736l-0.99,3.506Zm-24.903,4.002c0.022,0.329 -0.228,0.613 -0.556,0.634c-0.329,0.022 -0.613,-0.227 -0.635,-0.556l-0.266,-4.041c-0.021,-0.328 0.228,-0.613 0.557,-0.634c0.328,-0.022 0.612,0.227 0.634,0.556l0.266,4.041Z" style="fill:#855e42;"/><g><path d="M45.155,115.128l-9.369,2.012l-7.309,8.653l12.614,7.387l17.166,-3.684l-6.641,-10.388l-6.461,-3.98Z" style="fill:#9b4c31;"/><path d="M34.905,118.183l7.435,4.192l-2.774,15.2l-21.067,-9.689c6.735,-2.18 12.15,-5.458 16.406,-9.703Z" style="fill:#27550f;"/><path d="M31.262,121.361c1.298,-0.989 2.512,-2.05 3.643,-3.178l7.435,4.192l-1.43,7.837c-0,-0 -7.582,-6.901 -9.648,-8.851Z" style="fill:#3f7025;"/><path d="M42.379,122.368l10.067,-1.962c4.319,5.64 9.735,9.505 15.789,12.336l-28.669,4.833l2.774,-15.2l0.039,-0.007Z" style="fill:#21470d;"/><path d="M59.706,127.639c2.646,2.02 5.508,3.69 8.529,5.103l-28.669,4.833c-0,0 17.112,-8.346 20.14,-9.936Z" style="fill:#728130;"/><path d="M31.977,121.507l0.563,-0.637l0.346,0.305l-0.563,0.638l-0.346,-0.306Zm1.037,0.916l0.563,-0.637l0.691,0.61l-0.563,0.638l-0.691,-0.611Zm1.382,1.221l0.563,-0.637l0.691,0.611l-0.563,0.637l-0.691,-0.611Zm1.382,1.222l0.563,-0.638l0.691,0.611l-0.563,0.637l-0.691,-0.61Zm1.382,1.221l0.563,-0.637l0.691,0.61l-0.563,0.638l-0.691,-0.611Zm1.382,1.221l0.563,-0.637l0.691,0.611l-0.563,0.637l-0.691,-0.611Zm1.382,1.222l0.563,-0.638l0.346,0.306l-0.563,0.637l-0.346,-0.305Z" style="fill:#27550f;"/><path d="M42.547,136.984l0.232,-0.118l0.036,0.072l-0.268,0.046Zm1.19,-0.201l-0.161,-0.318l0.798,-0.402l0.284,0.565l-0.921,0.155Zm1.817,-0.362l-0.383,-0.76l0.797,-0.401l0.383,0.759l-0.797,0.402Zm4.783,-2.41l-0.382,-0.759l0.797,-0.402l0.383,0.76l-0.798,0.401Zm1.595,-0.803l-0.383,-0.76l0.798,-0.401l0.382,0.759l-0.797,0.402Zm1.594,-0.803l-0.382,-0.76l0.797,-0.401l0.383,0.759l-0.798,0.402Zm-6.378,3.213l-0.382,-0.76l0.797,-0.401l0.382,0.759l-0.797,0.402Zm1.595,-0.803l-0.383,-0.76l0.797,-0.402l0.383,0.76l-0.797,0.402Zm6.378,-3.214l-0.383,-0.759l0.798,-0.402l0.382,0.76l-0.797,0.401Zm1.595,-0.803l-0.383,-0.759l0.797,-0.402l0.383,0.76l-0.797,0.401Zm1.594,-0.803l-0.382,-0.76l0.797,-0.401l0.382,0.759l-0.797,0.402Zm1.595,-0.803l-0.383,-0.76l0.399,-0.201l0.382,0.76l-0.398,0.201Z" style="fill:#21470d;"/><path d="M42.491,121.067l-6.705,-3.927l-0.881,1.043l7.435,4.192l10.106,-1.969l-0.83,-1.298l-9.125,1.959Z" style="fill:#7c3d27;"/><path d="M42.491,121.067l-6.705,-3.927l-0.881,1.043l7.435,4.192l0.151,-1.308Z" style="fill:#6d2d17;"/></g><path d="M42.028,118.106l0,-9.32c0,-0.418 0.75,-0.757 1.673,-0.757c0.923,-0 1.673,0.339 1.673,0.757l-0,9.32c-0,0.418 -0.75,0.758 -1.673,0.758c-0.923,-0 -1.673,-0.34 -1.673,-0.758Z" style="fill:#6d2d17;"/></g></svg>