<?xml version="1.0" encoding="UTF-8" standalone="no"?><!DOCTYPE svg PUBLIC "-//W3C//DTD SVG 1.1//EN" "http://www.w3.org/Graphics/SVG/1.1/DTD/svg11.dtd"><svg width="100%" height="100%" viewBox="0 0 88 192" version="1.1" xmlns="http://www.w3.org/2000/svg" xmlns:xlink="http://www.w3.org/1999/xlink" xml:space="preserve" xmlns:serif="http://www.serif.com/" style="fill-rule:evenodd;clip-rule:evenodd;stroke-linejoin:round;stroke-miterlimit:2;"><g id="_1" serif:id="1"><path d="M35.097,183.345l-14.466,-8.786c-2.378,-1.444 -2.959,-2.918 -1.298,-3.29l25.492,-5.695c1.662,-0.372 4.942,0.499 7.32,1.944l14.465,8.785c2.379,1.445 2.96,2.919 1.298,3.29l-25.491,5.696c-1.662,0.371 -4.942,-0.5 -7.32,-1.944Z" style="fill:#669e2c;"/><g><path d="M66.836,176.766c0,0 -1.004,-1.313 -1.951,-0.684c-0.947,0.628 -1.412,1.622 -1.412,1.622c1.04,-0.281 2.141,-1.251 3.25,-0.258l0.113,-0.68Z" style="fill:#153407;"/><g><path d="M63.981,177.166l-0.082,-3.428l1.208,-0.559l0.963,1.22l-0.338,3.214l-1.323,0.247l-0.428,-0.694Z" style="fill:#7c3d27;"/><path d="M64.662,175.039l-0.253,2.821l-0.428,-0.694l-0.082,-3.428l0.763,1.301Z" style="fill:#6d2d17;"/><path d="M64.662,175.039l-0.763,-1.301l1.208,-0.559l0.963,1.22l-1.408,0.64Z" style="fill:#9b4c31;"/></g><path d="M64.437,177.86l2.286,-0.414l0.113,-0.68l-2.636,0.826l0.237,0.268Z" style="fill:#3f6d2a;"/></g><g><path d="M34.476,148.62l17.638,10.15l12.323,19.085l-24.646,5.357l-17.638,-10.15l12.323,-24.442Z" style="fill:#3f7025;"/><path d="M27.991,176.422l17.962,-5.431l-6.162,12.221l-11.8,-6.79Z" style="fill:#728130;"/><path d="M34.476,148.62l17.638,10.15l-1.947,5.432l-20.525,-5.993l4.834,-9.589Z" style="fill:#21470d;"/><path d="M30.183,177.134l-0.268,-0.867l0.455,-0.141l0.268,0.867l-0.455,0.141Zm1.366,-0.423l-0.268,-0.867l0.911,-0.282l0.268,0.867l-0.911,0.282Zm1.822,-0.563l-0.268,-0.867l0.911,-0.282l0.269,0.867l-0.912,0.282Zm1.823,-0.564l-0.269,-0.867l0.912,-0.282l0.268,0.867l-0.911,0.282Zm1.822,-0.563l-0.268,-0.867l0.911,-0.282l0.268,0.867l-0.911,0.282Zm1.822,-0.564l-0.268,-0.867l0.911,-0.282l0.268,0.868l-0.911,0.281Zm1.822,-0.563l-0.268,-0.867l0.911,-0.282l0.268,0.867l-0.911,0.282Zm1.822,-0.564l-0.268,-0.867l0.911,-0.281l0.268,0.867l-0.911,0.281Zm1.822,-0.563l-0.268,-0.867l0.456,-0.141l0.268,0.867l-0.456,0.141Zm-13.47,-14.963l0.25,-0.872l0.455,0.13l-0.25,0.873l-0.455,-0.131Zm1.366,0.392l0.251,-0.873l0.911,0.262l-0.251,0.872l-0.911,-0.261Zm1.823,0.522l0.25,-0.872l0.911,0.261l-0.25,0.873l-0.911,-0.262Zm1.822,0.523l0.25,-0.872l0.911,0.261l-0.25,0.872l-0.911,-0.261Zm1.822,0.523l0.25,-0.873l0.911,0.261l-0.25,0.873l-0.911,-0.261Zm1.822,0.522l0.25,-0.872l0.911,0.261l-0.25,0.872l-0.911,-0.261Zm1.822,0.523l0.25,-0.873l0.911,0.262l-0.25,0.872l-0.911,-0.261Zm1.822,0.522l0.25,-0.872l0.912,0.261l-0.251,0.873l-0.911,-0.262Zm1.822,0.523l0.251,-0.873l0.911,0.262l-0.251,0.872l-0.911,-0.261Zm1.823,0.522l0.25,-0.872l0.911,0.261l-0.25,0.873l-0.911,-0.262Zm1.822,0.523l0.25,-0.872l0.455,0.13l-0.25,0.873l-0.455,-0.131Z" style="fill:#3f7025;"/></g><g><path d="M52.114,158.77l12.323,19.085l-24.646,5.357l12.323,-24.442Z"/><path d="M52.114,158.77c-0.446,8.941 0.226,16.319 3.812,20.935l8.511,-1.85l-12.323,-19.085Z" style="fill:#3f6d2a;"/><path d="M52.114,158.77c-0.446,8.941 2.187,15.893 5.773,20.509l2.053,-0.447c-5.347,-6.176 -7.061,-13.031 -7.826,-20.062Z" style="fill:#3e602f;"/><path d="M52.114,158.77c1.107,5.856 2.652,11.513 7.028,15.889c-3.16,-5.01 -5.418,-10.336 -7.028,-15.889Z" style="fill:#3e602f;"/><path d="M52.114,158.77c1.92,9.051 -0.594,18.891 -3.289,22.479l-9.034,1.963l12.323,-24.442Z" style="fill:#457c2c;"/><path d="M52.114,158.77c1.92,9.051 -3.128,19.441 -5.824,23.029l-1.558,0.339c4.62,-7.249 7.727,-14.877 7.382,-23.368Z" style="fill:#34691c;"/><path d="M45.308,178.335c2.593,-2.985 4.348,-6.774 5.002,-11.62c-1.63,4.099 -3.295,7.986 -5.002,11.62Z" style="fill:#34691c;"/></g><g><path d="M33.106,149.243c-0.001,-0 -0.002,-0.001 -0.003,-0.002c-0.583,-0.336 -0.782,-1.084 -0.444,-1.669c0.337,-0.584 1.084,-0.786 1.667,-0.449l20.036,11.529l-1.22,2.121l-20.036,-11.53l0,0Z" style="fill:#6d2d17;"/><path d="M52.694,159.102c0.337,-0.585 1.085,-0.786 1.668,-0.45c0.583,0.337 0.782,1.085 0.445,1.67c-0.338,0.584 -1.085,0.785 -1.668,0.449c-0.583,-0.337 -0.783,-1.085 -0.445,-1.669Z" style="fill:#9b4c31;"/></g><g><path d="M51.705,159.946l-17.764,-10.222l-0.003,-0.002c-0.583,-0.337 -0.782,-1.085 -0.445,-1.669c0.338,-0.585 1.085,-0.786 1.668,-0.449l17.764,10.222c-0.583,-0.334 -1.328,-0.133 -1.665,0.451c-0.337,0.584 -0.138,1.332 0.445,1.669Z" style="fill:#508d34;"/><path d="M51.26,158.277c-0.337,0.584 -0.138,1.332 0.445,1.669l-17.764,-10.222l-0.003,-0.002c-0.583,-0.337 -0.782,-1.085 -0.445,-1.669l17.767,10.224Z" style="fill:#457c2c;"/><path d="M51.102,158.77c-0.045,0.462 0.176,0.929 0.603,1.176l-17.764,-10.222l-0.003,-0.002c-0.366,-0.211 -0.581,-0.585 -0.606,-0.978l17.77,10.026Z" style="fill:#3e642d;"/></g><g><path d="M38.051,183.227c-0,-0 -0.127,-1.386 1.01,-1.382c1.137,0.004 0.73,1.002 0.73,1.002c-0.17,0.008 -0.769,-0.253 -1.15,1.185l-0.59,-0.805Z" style="fill:#153407;"/><g><path d="M38.465,183.269l-0.443,-3.361l1.15,-0.731l1.091,1.055l-0,3.214l-1.297,0.442l-0.501,-0.619Z" style="fill:#7c3d27;"/><path d="M38.922,181.074l0.044,2.814l-0.501,-0.619l-0.443,-3.361l0.9,1.166Z" style="fill:#6d2d17;"/><path d="M38.922,181.074l-0.9,-1.166l1.15,-0.731l1.091,1.055l-1.341,0.842Z" style="fill:#9b4c31;"/></g><path d="M40.609,183.047c-0.362,0.851 -1.771,1.242 -1.968,0.985l-0.59,-0.805c0.422,0.233 1.697,-0.081 2.412,-0.497l0.146,0.317Z" style="fill:#457c2c;"/></g><g><path d="M20.009,173.036c-0,0 -0.127,-1.386 1.01,-1.381c1.137,0.004 1.293,1.218 1.293,1.218c-0.17,0.007 -1.332,-0.47 -1.713,0.969l-0.59,-0.806Z" style="fill:#153407;"/><g><path d="M20.916,173.33l-0.442,-3.361l1.15,-0.731l1.09,1.055l0,3.214l-1.297,0.442l-0.501,-0.619Z" style="fill:#7c3d27;"/><path d="M21.374,171.135l0.043,2.814l-0.501,-0.619l-0.442,-3.361l0.9,1.166Z" style="fill:#6d2d17;"/><path d="M21.374,171.135l-0.9,-1.166l1.15,-0.731l1.09,1.055l-1.34,0.842Z" style="fill:#9b4c31;"/></g><path d="M23.13,173.073c-0.363,0.85 -2.334,1.025 -2.531,0.769l-0.59,-0.806c0.422,0.234 2.26,0.135 2.975,-0.28l0.146,0.317Z" style="fill:#3f7025;"/></g></g></svg>