<?xml version="1.0" encoding="UTF-8" standalone="no"?>
<!-- Created with Inkscape (http://www.inkscape.org/) -->

<svg
   width="200"
   height="200"
   viewBox="0 0 52.916666 52.916666"
   version="1.1"
   id="svg5"
   xml:space="preserve"
   inkscape:version="1.2 (dc2aedaf03, 2022-05-15)"
   sodipodi:docname="treasure2.svg"
   xmlns:inkscape="http://www.inkscape.org/namespaces/inkscape"
   xmlns:sodipodi="http://sodipodi.sourceforge.net/DTD/sodipodi-0.dtd"
   xmlns:xlink="http://www.w3.org/1999/xlink"
   xmlns="http://www.w3.org/2000/svg"
   xmlns:svg="http://www.w3.org/2000/svg"><sodipodi:namedview
     id="namedview7"
     pagecolor="#505050"
     bordercolor="#ffffff"
     borderopacity="1"
     inkscape:showpageshadow="0"
     inkscape:pageopacity="0"
     inkscape:pagecheckerboard="1"
     inkscape:deskcolor="#505050"
     inkscape:document-units="px"
     showgrid="false"
     inkscape:zoom="0.82037492"
     inkscape:cx="132.86608"
     inkscape:cy="80.451021"
     inkscape:window-width="1366"
     inkscape:window-height="705"
     inkscape:window-x="-8"
     inkscape:window-y="-8"
     inkscape:window-maximized="1"
     inkscape:current-layer="layer1" /><defs
     id="defs2"><linearGradient
       inkscape:collect="always"
       id="linearGradient47655"><stop
         style="stop-color:#ffd977;stop-opacity:1;"
         offset="0"
         id="stop47651" /><stop
         style="stop-color:#ffd750;stop-opacity:1;"
         offset="1"
         id="stop47653" /></linearGradient><linearGradient
       inkscape:collect="always"
       id="linearGradient44961"><stop
         style="stop-color:#ffd46c;stop-opacity:1;"
         offset="0"
         id="stop44957" /><stop
         style="stop-color:#ffd83e;stop-opacity:1;"
         offset="1"
         id="stop44959" /></linearGradient><linearGradient
       inkscape:collect="always"
       xlink:href="#linearGradient44961"
       id="linearGradient44963"
       x1="43.587063"
       y1="45.588184"
       x2="40.601017"
       y2="21.619139"
       gradientUnits="userSpaceOnUse"
       gradientTransform="matrix(1,0,-0.54537879,0.8381897,0,0)" /><linearGradient
       inkscape:collect="always"
       xlink:href="#linearGradient47655"
       id="linearGradient47657"
       x1="5.3810668"
       y1="34.129176"
       x2="32.816084"
       y2="34.129176"
       gradientUnits="userSpaceOnUse" /></defs><g
     inkscape:label="Layer 1"
     inkscape:groupmode="layer"
     id="layer1"><g
       id="g49903"
       transform="matrix(1.1927241,0,0,1.1927241,-1.5167655,-18.397901)"><path
         id="rect46715"
         style="opacity:1;fill:#f69a27;stroke-width:1.30145;stroke-linejoin:round;stop-color:#000000"
         d="M 5.3810668,36.886637 32.816022,32.684711 V 44.240093 H 4.416746 Z"
         sodipodi:nodetypes="ccccc" /><path
         id="path47577"
         style="fill:#ec6e1f;fill-opacity:1;fill-rule:evenodd;stroke-width:0.301197"
         d="m 16.132916,38.068778 c -7.637977,-0.318046 -11.5319595,1.64256 -8.101365,5.199898 0.2762605,0.325599 0.1651847,0.650549 0.1033529,0.971517 H 22.459611 c 0.06745,-0.320968 0.102018,-0.645918 0.103353,-0.971517 1.65e-4,-3.256424 -2.417211,-5.19995 -6.430048,-5.199898 z"
         sodipodi:nodetypes="cccccc" /><g
         id="g46042"
         transform="matrix(-0.66458264,0.74721477,0.74721477,0.66458264,18.845009,-1.2914901)"><path
           id="path46028"
           style="opacity:1;fill:#f5b031;fill-opacity:1;stroke-width:1.18523;stroke-linejoin:round;stop-color:#000000"
           d="m 11.818001,40.969083 9.32309,-0.139276 6.415623,8.139125 -12.917106,-0.717865 z"
           sodipodi:nodetypes="ccccc" /><path
           id="path46030"
           style="opacity:1;fill:#ffd750;fill-opacity:1;stroke-width:1.29459;stroke-linejoin:round;stop-color:#000000"
           transform="matrix(1,0,-0.54537879,0.8381897,0,0)"
           d="m 38.475056,27.885557 h 9.035677 l 0.262622,20.992499 h -9.298299 z"
           sodipodi:nodetypes="ccccc" /><path
           id="path46032"
           style="opacity:1;fill:#e88422;fill-opacity:1;stroke-width:1.29459;stroke-linejoin:round;stop-color:#000000"
           transform="matrix(1,0,-0.54537879,0.8381897,0,0)"
           d="m 47.510733,27.885557 7.826884,8.189511 4.081355,22.347186 -12.03022,-9.544198 z"
           sodipodi:nodetypes="ccccc" /><path
           id="path46036"
           style="opacity:1;fill:#fef7db;fill-opacity:1;stroke:none;stroke-width:1.36838;stroke-linecap:butt;stroke-linejoin:round;stroke-dasharray:none;stroke-opacity:1;stop-color:#000000"
           d="m 12.537311,39.863954 c 2.601692,0.431798 5.039127,1.677533 10.096771,-1.722643 l -1.848168,2.853445 -8.967967,-0.02574 z"
           sodipodi:nodetypes="ccccc" /></g><path
         id="path46908"
         style="opacity:1;fill:url(#linearGradient47657);fill-opacity:1;stroke-width:0.901007;stroke-linejoin:round;stop-color:#000000"
         d="M 7.46156,31.371714 5.3810668,36.886637 H 32.816084 v -5.514923 z" /><path
         id="path46215"
         style="fill:#ffd46c;fill-opacity:0.837209;fill-rule:evenodd;stroke-width:0.264583"
         d="m 40.99388,40.018745 c -2.881577,0 -2.88104,6.27587 -2.842721,10.528557 L 44.885632,42.07185 C 43.624735,40.83621 42.227135,40.018745 40.99388,40.018745 Z" /><g
         id="g49925"><path
           id="path46187"
           style="mix-blend-mode:multiply;fill:#d15808;fill-opacity:0.501661;stroke-width:1.18523;stroke-linejoin:round;stop-color:#000000"
           d="m 27.32288,32.606795 -9.636621,12.718603 0.05168,0.126607 11.492886,3.905671 2.365183,-8.530194 4.028694,-6.96495 z"
           sodipodi:nodetypes="ccccccc" /><path
           id="rect42351"
           style="fill:#e88422;stroke-width:1.18523;stroke-linejoin:round;stop-color:#000000"
           d="m 11.818001,40.969083 9.32309,-0.139276 3.882447,8.681998 -14.319749,-0.474239 z"
           sodipodi:nodetypes="ccccc" /><path
           id="rect41469"
           style="fill:url(#linearGradient44963);fill-opacity:1;stroke-width:1.18523;stroke-linejoin:round;stop-color:#000000"
           d="m 23.266865,23.373387 h 9.035677 L 21.1163,40.969083 h -9.298299 z"
           sodipodi:nodetypes="ccccc" /><path
           id="rect42906"
           style="fill:#f5b031;stroke-width:1.18523;stroke-linejoin:round;stop-color:#000000"
           d="M 32.302542,23.373387 37.00938,29.680644 25.023538,49.511805 20.731697,40.969083 Z"
           sodipodi:nodetypes="ccccc" /><path
           id="rect43445"
           style="fill:#f6811e;fill-opacity:0.461794;stroke-width:1.52797;stroke-linejoin:round;stop-color:#000000"
           d="m 32.302421,23.37325 -5.154208,7.838281 c -1.86957,8.405303 1.604126,8.227956 4.087457,8.044405 l 5.77371,-9.563489 z"
           sodipodi:nodetypes="ccccc" /><path
           id="rect44127"
           style="fill:#fef7db;fill-opacity:1;stroke:none;stroke-width:0.921403;stroke-linecap:butt;stroke-linejoin:round;stroke-dasharray:none;stroke-opacity:1;stop-color:#000000"
           d="m 13.657574,38.115333 -1.825738,2.832038 9.020104,0.02171 0.642362,-1.019942 c 0,0 -3.951447,0.142274 -5.779269,-0.487468 -0.774903,-0.266979 -1.874758,-0.545377 -2.057459,-1.34634 z"
           sodipodi:nodetypes="ccccacc" /><path
           id="path47957"
           style="opacity:1;fill:#fef7db;fill-opacity:1;stroke-width:0.456209;stroke-linejoin:round;stop-color:#000000"
           d="m 20.634381,38.393168 1.618537,-0.895304 1.144423,-0.59516 -0.34894,2.726973 -0.88277,-0.86823 z"
           sodipodi:nodetypes="cccccc" /><path
           id="rect44595"
           style="fill:#fffcf7;fill-opacity:0.853821;stroke:none;stroke-width:2.32165;stroke-linecap:butt;stroke-linejoin:round;stroke-dasharray:none;stroke-opacity:1;stop-color:#000000"
           d="M 30.528369,26.164294 18.00872,31.45441 14.352095,37.074222 26.986466,31.73553 Z" /><path
           id="path44606"
           style="fill:#f0511a;fill-opacity:0.425249;fill-rule:evenodd;stroke-width:0.264583"
           d="m 16.545243,44.645853 c -2.4571,0 -4.786802,1.625248 -5.788277,4.006991 l -0.05323,0.384472 13.205912,0.4377 C 22.757965,46.685251 19.236775,44.645853 16.54524,44.645853 Z" /><path
           id="rect47762"
           style="opacity:1;fill:#e88422;stroke-width:0.456209;stroke-linejoin:round;stop-color:#000000"
           d="m 21.014669,38.393168 1.326982,-1.060095 1.144423,-0.595161 -0.41232,2.993175 -0.806713,-1.134432 z"
           sodipodi:nodetypes="cccccc" /><path
           id="path47955"
           style="opacity:1;fill:#ec6e1f;fill-opacity:1;stroke-width:0.314126;stroke-linejoin:round;stop-color:#000000"
           d="m 22.30616,37.887034 1.035749,-0.593386 -0.283907,2.419512 z"
           sodipodi:nodetypes="cccc" /></g><g
         id="g49912"><path
           id="rect47379"
           style="opacity:1;fill:#fff7e0;fill-opacity:1;stroke-width:1.00145;stroke-linejoin:round;stop-color:#000000"
           d="M 7.46156,31.371728 5.3810668,36.886637 H 11.425659 L 8.1199177,35.252628 7.8553344,31.371728 Z" /><path
           id="path48336"
           style="opacity:1;fill:#fff7e0;fill-opacity:1;stroke-width:0.835947;stroke-linejoin:round;stop-color:#000000"
           d="m 13.809289,31.371728 0.03566,0.685246 -1.43092,0.972604 -2.298142,0.860845 4.633154,-0.603371 0.36043,-1.915324 z"
           sodipodi:nodetypes="ccccccc" /><path
           id="rect47996"
           style="opacity:1;fill:#e88422;fill-opacity:1;stroke-width:0.818417;stroke-linejoin:round;stop-color:#000000"
           d="m 13.466361,31.371728 0.03566,0.656808 -1.43092,0.932242 -2.3052859,1.051099 2.5021729,-0.60048 2.159558,-0.518831 0.338997,-1.520838 z" /><path
           id="rect48140"
           style="opacity:1;fill:#ec6e1f;stroke-width:0.73305;stroke-linejoin:round;stop-color:#000000"
           d="m 13.879773,31.371728 0.06201,1.049548 -1.460892,0.847494 1.810225,-0.538985 0.355017,-1.358057 z" /><path
           id="path49105"
           style="opacity:1;fill:#fff7e0;fill-opacity:1;stroke-width:1.82248;stroke-linejoin:round;stop-color:#000000"
           d="m 11.263572,31.371728 0.02276,1.192336 1.119543,-1.192336 z"
           sodipodi:nodetypes="cccc" /><path
           id="rect48683"
           style="opacity:1;fill:#e88422;fill-opacity:1;stroke-width:1.52797;stroke-linejoin:round;stop-color:#000000"
           d="m 11.422042,31.371728 -0.06563,0.838709 0.887801,-0.838709 z" /><path
           id="path48896"
           style="opacity:1;fill:#ec6e1f;fill-opacity:1;stroke-width:1.13116;stroke-linejoin:round;stop-color:#000000"
           d="m 11.485827,31.371728 -0.04859,0.6209 0.657242,-0.6209 z" /></g></g><path
       id="path49933"
       style="opacity:1;fill:#fffcf1;fill-opacity:1;stroke-width:0.852771;stroke-linejoin:round;stop-color:#000000"
       d="m 24.106055,6.936741 -1.612467,4.608815 -2.382765,0.957532 2.382765,0.957531 1.612467,4.608516 1.612746,-4.608516 2.382208,-0.957531 -2.382486,-0.957532 z" /><path
       id="path49935"
       style="opacity:1;fill:#fffcf1;fill-opacity:1;stroke-width:0.652068;stroke-linejoin:round;stop-color:#000000"
       d="m 41.725896,32.220276 -1.232966,3.524111 -1.821971,0.732173 1.821971,0.732172 1.232966,3.523882 1.23318,-3.523882 1.821545,-0.732172 -1.821758,-0.732173 z" /><path
       id="rect49927"
       style="opacity:1;fill:#fffcf1;fill-opacity:1;stroke-width:0.456326;stroke-linejoin:round;stop-color:#000000"
       d="m 13.756772,21.707672 -0.862846,2.46622 -1.27504,0.512384 1.27504,0.512384 0.862846,2.46606 0.862996,-2.46606 1.274741,-0.512384 -1.27489,-0.512384 z" /></g></svg>
