<?xml version="1.0" encoding="UTF-8" standalone="no"?>
<!-- Created with Inkscape (http://www.inkscape.org/) -->

<svg
   width="200"
   height="200"
   viewBox="0 0 52.916666 52.916666"
   version="1.1"
   id="svg5"
   xml:space="preserve"
   inkscape:version="1.2 (dc2aedaf03, 2022-05-15)"
   sodipodi:docname="treasure3.svg"
   xmlns:inkscape="http://www.inkscape.org/namespaces/inkscape"
   xmlns:sodipodi="http://sodipodi.sourceforge.net/DTD/sodipodi-0.dtd"
   xmlns="http://www.w3.org/2000/svg"
   xmlns:svg="http://www.w3.org/2000/svg"><sodipodi:namedview
     id="namedview7"
     pagecolor="#505050"
     bordercolor="#ffffff"
     borderopacity="1"
     inkscape:showpageshadow="0"
     inkscape:pageopacity="0"
     inkscape:pagecheckerboard="1"
     inkscape:deskcolor="#505050"
     inkscape:document-units="px"
     showgrid="false"
     inkscape:zoom="2.4542847"
     inkscape:cx="53.783491"
     inkscape:cy="92.491307"
     inkscape:window-width="1366"
     inkscape:window-height="705"
     inkscape:window-x="-8"
     inkscape:window-y="-8"
     inkscape:window-maximized="1"
     inkscape:current-layer="layer1"
     showguides="true" /><defs
     id="defs2" /><g
     inkscape:label="Layer 1"
     inkscape:groupmode="layer"
     id="layer1"><path
       id="rect3031"
       style="display:inline;opacity:1;fill:#ffd13e;stroke-width:1.43342;stroke-linejoin:round;stop-color:#000000"
       d="m 17.098462,24.480686 c 11.881283,-5.166585 14.842009,0 22.263014,0 l 5.284217,6.689617 2.347651,5.800974 5.015602,6.061948 c -3.764668,1.175025 -7.15935,2.635767 -9.091606,5.225848 L 27.149749,49.334726 13.633402,47.582164 C 8.1064712,48.532253 0.9936282,49.953622 1.3088001,42.343457 L 7.8510877,32.327646 12.781592,26.395048 Z"
       sodipodi:nodetypes="cccccccccccc" /><g
       id="g3168"
       transform="matrix(0.92451533,0,0,0.95192619,2.5452074,0.75484515)"><path
         id="ellipse10847"
         style="fill:#ffd13e;fill-opacity:1;fill-rule:evenodd;stroke-width:0.188739"
         d="m 27.148638,15.701796 a 2.0285022,1.4395823 0 0 1 1.933215,1.00614 1.9366022,2.840467 72.54801 0 1 2.036569,1.081588 1.9366022,2.840467 72.54801 0 1 -0.02584,1.105359 2.8381114,1.9382096 12.649531 0 1 1.873788,1.715657 2.8381114,1.9382096 12.649531 0 1 0.396875,0.08475 2.8381114,1.9382096 12.649531 0 1 0.520381,0.17725 2.8381114,1.9382096 12.649531 0 1 2.391586,-0.14211 2.8381114,1.9382096 12.649531 0 1 2.216402,2.153357 2.802522,1.9628232 25.108828 0 1 0.706417,0.30334 2.802522,1.9628232 25.108828 0 1 1.385445,3.008085 2.802522,1.9628232 25.108828 0 1 -3.513997,0.311608 2.802522,1.9628232 25.108828 0 1 -0.0584,-0.03617 H 19.596638 v -2.130619 a 1.9632522,2.8019096 58.821854 0 1 -0.642338,0.56844 1.9632522,2.8019096 58.821854 0 1 -2.708362,0.587045 1.9632522,2.8019096 58.821854 0 1 -0.312125,0.242362 1.9632522,2.8019096 58.821854 0 1 -3.527434,0.06305 1.9632522,2.8019096 58.821854 0 1 1.057817,-3.137793 1.9632522,2.8019096 58.821854 0 1 2.708362,-0.587561 1.9632522,2.8019096 58.821854 0 1 0.312125,-0.241845 1.9632522,2.8019096 58.821854 0 1 0.307992,-0.194821 1.925855,2.8563184 87.439479 0 1 -0.13901,-0.535367 1.925855,2.8563184 87.439479 0 1 2.77193,-2.048979 1.925855,2.8563184 87.439479 0 1 1.419035,0.19017 1.925855,2.8563184 87.439479 0 1 1.359607,-0.583427 2.8083536,1.9587473 23.33364 0 1 0.173633,-0.958081 2.8083536,1.9587473 23.33364 0 1 2.753837,-0.714168 2.0285022,1.4395823 0 0 1 2.016931,-1.28726 z" /><path
         id="rect16674"
         style="fill:#ffac25;fill-opacity:1;stroke:#eba400;stroke-width:0.112;stroke-linecap:round;stroke-linejoin:round;stroke-dasharray:none;stroke-opacity:1;paint-order:stroke fill markers;stop-color:#000000"
         d="m 23.737477,16.892938 c -1.040739,0.937584 -0.95134,1.51187 -0.328146,2.135787 -1.790962,-0.11063 -2.260422,0.659637 -2.082043,1.861902 -1.275881,-0.212461 -2.768236,0.694432 -2.408639,2.280997 -1.3668,-0.149568 -1.723287,0.710938 -1.954919,1.696537 l -0.765845,0.664559 a 1.9632522,2.8019096 58.821854 0 1 -0.264066,0.205155 1.9632522,2.8019096 58.821854 0 1 -3.527434,0.06305 1.9632522,2.8019096 58.821854 0 1 1.057817,-3.137792 1.9632522,2.8019096 58.821854 0 1 2.708362,-0.587561 1.9632522,2.8019096 58.821854 0 1 0.312125,-0.241845 1.9632522,2.8019096 58.821854 0 1 0.307992,-0.194821 1.925855,2.8563184 87.439479 0 1 -0.13901,-0.535367 1.925855,2.8563184 87.439479 0 1 2.771924,-2.048976 1.925855,2.8563184 87.439479 0 1 1.419035,0.190169 1.925855,2.8563184 87.439479 0 1 1.359607,-0.583427 2.8083536,1.9587473 23.33364 0 1 0.173633,-0.958081 2.8083536,1.9587473 23.33364 0 1 1.359607,-0.810286 z" /><path
         style="color:#000000;fill:#fe9e28;fill-opacity:1;fill-rule:evenodd;stroke-width:0.979764;-inkscape-stroke:none"
         d="m 22.529643,22.477673 c 0.284859,0.277639 0.716823,0.496446 1.220978,0.569147 0.504156,0.0727 0.979539,-0.01577 1.330747,-0.20297 0.140575,-0.07493 0.259972,-0.163682 0.355972,-0.263435 0.143848,-0.149472 0.235161,-0.323638 0.475477,-0.265293 0.240313,0.05835 0.156409,0.254793 0.03644,0.427887 -0.159535,0.230112 -0.382872,0.418949 -0.641453,0.556777 -0.453093,0.241509 -1.02238,0.338148 -1.619772,0.252003 -0.597398,-0.0861 -1.120286,-0.340852 -1.491324,-0.702484 -0.145564,-0.141876 -0.268419,-0.302508 -0.07364,-0.45703 0.194767,-0.154523 0.287429,-0.03081 0.406618,0.0854 z"
         id="path16618"
         sodipodi:nodetypes="sssscsscscs" /><ellipse
         style="fill:#ffd13e;fill-opacity:1;fill-rule:evenodd;stroke-width:0.234021"
         id="ellipse3130"
         cx="48.215946"
         cy="6.7661119"
         rx="2.260181"
         ry="1.5460398"
         transform="rotate(24.945238)" /></g><path
       class="cls-15"
       d="m 31.807117,16.264941 -1.983029,0.786136 -0.03784,2.812614 c 0,0 1.110159,1.193401 4.281483,1.661625 3.171325,0.468222 4.65566,-0.34212 4.65566,-0.34212 5.971193,-6.541173 -2.73758,-8.615 -6.916275,-4.918255 z"
       id="path25829"
       style="fill:#d96800;fill-opacity:0.411765;stroke-width:0.121498"
       sodipodi:nodetypes="cccscc" /><ellipse
       style="fill:#ffd13e;fill-opacity:1;fill-rule:evenodd;stroke-width:0.326698"
       id="ellipse3132"
       cx="5.8438787"
       cy="30.730906"
       rx="2.9328036"
       ry="2.3220074"
       transform="matrix(0.92777567,-0.37313846,0.26823871,0.96335248,0,0)" /><ellipse
       style="fill:#ffd13e;fill-opacity:1;fill-rule:evenodd;stroke-width:0.326698"
       id="ellipse3134"
       cx="3.478163"
       cy="32.777405"
       rx="2.9328036"
       ry="2.3220074"
       transform="matrix(0.92777567,-0.37313846,0.26823871,0.96335248,0,0)" /><ellipse
       style="fill:#ffd13e;fill-opacity:1;fill-rule:evenodd;stroke-width:0.326698"
       id="ellipse3136"
       cx="0.81355727"
       cy="33.597073"
       rx="2.9328036"
       ry="2.3220074"
       transform="matrix(0.92777567,-0.37313846,0.26823871,0.96335248,0,0)" /><ellipse
       style="fill:#ffd13e;fill-opacity:1;fill-rule:evenodd;stroke-width:0.326698"
       id="ellipse3138"
       cx="-0.66434193"
       cy="35.802273"
       rx="2.9328036"
       ry="2.3220074"
       transform="matrix(0.92777567,-0.37313846,0.26823871,0.96335248,0,0)" /><ellipse
       style="fill:#ffd13e;fill-opacity:1;fill-rule:evenodd;stroke-width:0.326698"
       id="ellipse3140"
       cx="-3.3888414"
       cy="36.506157"
       rx="2.9328036"
       ry="2.3220074"
       transform="matrix(0.92777567,-0.37313846,0.26823871,0.96335248,0,0)" /><ellipse
       style="fill:#ffd13e;fill-opacity:1;fill-rule:evenodd;stroke-width:0.326698"
       id="ellipse3142"
       cx="33.76733"
       cy="43.305759"
       rx="2.9328036"
       ry="2.3220074"
       transform="matrix(0.92777567,-0.37313846,0.26823871,0.96335248,0,0)" /><ellipse
       style="fill:#ffd13e;fill-opacity:1;fill-rule:evenodd;stroke-width:0.326488"
       id="ellipse3144"
       cx="41.997047"
       cy="38.210384"
       rx="2.9228966"
       ry="2.3268859"
       transform="matrix(0.98967354,-0.14333978,0.04522141,0.99897699,0,0)" /><ellipse
       style="fill:#ffd13e;fill-opacity:1;fill-rule:evenodd;stroke-width:0.326488"
       id="ellipse3146"
       cx="42.941086"
       cy="42.453007"
       rx="2.9228966"
       ry="2.3268859"
       transform="matrix(0.98967354,-0.14333978,0.04522141,0.99897699,0,0)" /><ellipse
       style="fill:#ffd13e;fill-opacity:1;fill-rule:evenodd;stroke-width:0.326188"
       id="ellipse2977"
       cx="56.173283"
       cy="27.237625"
       rx="2.9257901"
       ry="2.3203242"
       transform="matrix(0.97193849,0.23523515,-0.31012259,0.95069658,0,0)" /><ellipse
       style="fill:#ffd13e;fill-opacity:1;fill-rule:evenodd;stroke-width:0.232465"
       id="ellipse3152"
       cx="-8.1864653"
       cy="47.894348"
       rx="2.089572"
       ry="1.6501056"
       transform="scale(-1,1)" /><ellipse
       style="fill:#ffd13e;fill-opacity:1;fill-rule:evenodd;stroke-width:0.232465"
       id="ellipse3150"
       cx="-8.1864653"
       cy="47.894348"
       rx="2.089572"
       ry="1.6501056"
       transform="scale(-1,1)" /><ellipse
       style="fill:#ffd13e;fill-opacity:1;fill-rule:evenodd;stroke-width:0.232465"
       id="ellipse3154"
       cx="-50.113697"
       cy="42.542652"
       rx="2.089572"
       ry="1.6501056"
       transform="scale(-1,1)" /><path
       id="rect5851"
       style="display:inline;opacity:1;mix-blend-mode:normal;fill:#ffac25;fill-opacity:1;stroke-width:1.43342;stroke-linejoin:round;stop-color:#000000"
       d="m 9.6623466,29.47814 c -0.048403,0.07132 -0.093519,0.143871 -0.1352052,0.21743 -0.1289523,0.0358 -0.2569815,0.0792 -0.3831608,0.129867 -1.5028308,0.604334 -2.4422912,2.095831 -2.0983066,3.331293 0.017032,0.05946 0.036954,0.117719 0.059719,0.174631 -0.2136988,0.213264 -0.395672,0.447931 -0.5393871,0.695578 -0.181892,0.04126 -0.3628672,0.09777 -0.5403427,0.168729 -0.5741798,0.233667 -1.09098,0.610631 -1.4762677,1.076816 3.0429263,-1.866729 3.4963471,-0.110051 4.0166915,1.552983 l 0.6818227,0.263616 c -1.3365786,1.593519 1.2429393,3.686122 4.7567393,1.83911 1.360443,-0.816698 2.251049,-0.47236 2.671822,1.033015 1.304691,0.115838 2.407041,0.24487 3.340626,0.383949 2.275496,-1.416813 4.670951,0.258329 5.290445,1.076032 2.422117,0.948517 4.292563,-1.180031 6.0604,-1.759658 1.033592,-0.338887 1.91943,-0.600292 2.716649,-0.794663 1.381659,-0.08924 2.642394,-0.26987 3.627986,-1.114647 0.825876,0.0023 1.661631,0.145626 2.624232,0.368987 0.572973,0.132953 0.533815,-2.575692 1.103185,-2.141301 2.641361,2.015183 3.999475,-0.555587 3.957547,1.197008 -0.04224,1.765589 0.392032,5.011425 4.166076,2.90115 L 49.06675,39.477429 C 49.213676,38.393463 48.364933,37.335934 47.036285,36.947477 47.232917,36.587355 47.32678,36.206 47.31004,35.835242 47.272192,35.017384 46.70211,34.337558 45.808928,34.04514 l -0.273756,-0.676393 c 0.443496,-0.490835 0.674074,-1.072305 0.648793,-1.63613 -0.0077,-0.103934 -0.02414,-0.206322 -0.04921,-0.306467 -0.624759,0.663728 -1.188207,0.408157 -1.690294,-0.06661 -1.128779,-1.067352 -2.485769,-0.433913 -2.876501,-0.251587 -1.007091,0.643654 -1.976608,1.526594 -3.73961,-0.16502 -0.34632,-0.01185 -0.693609,-0.02259 -1.04146,-0.03199 -0.825802,-0.02233 -1.676109,-0.765724 -2.573254,-0.861719 -1.115144,-0.11932 -2.134887,0.602739 -2.754073,0.849048 0.662209,1.014126 0.21158,2.215749 -1.969833,1.862195 -0.548887,0.332807 -1.844087,1.13713 -1.787558,-0.568398 -0.150923,-0.0556 -0.308092,-0.118137 -0.471829,-0.187914 -1.006105,-0.815906 -1.625411,-0.456891 -2.120357,0.278884 -0.370556,0.04148 -1.362195,-0.01944 -1.617271,0.245178 -0.964075,1.000119 -1.342968,0.958157 -3.092777,0.420253 -1.580857,-0.485966 -2.879811,1.176366 -2.879811,1.176366 -1.591562,0.233777 -3.115592,-0.08531 -3.564748,-1.148624 0.245752,-0.413513 1.586886,-0.965239 0.0014,-1.520583 C 13.707465,30.91581 12.786768,30.23577 12.563714,30.169863 9.8778748,30.592897 9.1571061,30.681485 9.6623585,29.47814 Z"
       sodipodi:nodetypes="ccccccccccccccscccssccccccccsccsscccccsscccccc" /><ellipse
       style="fill:#ffd13e;fill-opacity:1;fill-rule:evenodd;stroke-width:0.232465"
       id="ellipse3156"
       cx="-48.03466"
       cy="44.326553"
       rx="2.089572"
       ry="1.6501056"
       transform="scale(-1,1)" /><ellipse
       style="fill:#ffd13e;fill-opacity:1;fill-rule:evenodd;stroke-width:0.232465"
       id="ellipse3158"
       cx="-41.970806"
       cy="47.314579"
       rx="2.089572"
       ry="1.6501056"
       transform="scale(-1,1)" /><ellipse
       style="fill:#ffd13e;fill-opacity:1;fill-rule:evenodd;stroke-width:0.232465"
       id="ellipse3160"
       cx="-42.70713"
       cy="46.333435"
       rx="2.089572"
       ry="1.6501056"
       transform="scale(-1,1)" /><ellipse
       style="fill:#ffd13e;fill-opacity:1;fill-rule:evenodd;stroke-width:0.232465"
       id="path2837"
       cx="-32.311951"
       cy="48.206532"
       rx="2.089572"
       ry="1.6501056"
       transform="scale(-1,1)" /><path
       style="color:#000000;fill:#fe9e28;fill-opacity:1;fill-rule:evenodd;stroke-width:0.919137;-inkscape-stroke:none"
       d="m 12.525159,29.628199 c -0.23965,0.287214 -0.619575,0.531016 -1.077913,0.642349 -0.458339,0.111339 -0.903346,0.06743 -1.242064,-0.08054 -0.135575,-0.05923 -0.252777,-0.133341 -0.3493303,-0.219854 -0.1446785,-0.129632 -0.2429942,-0.287098 -0.4595352,-0.211565 -0.216539,0.07554 -0.1232267,0.25475 0.00139,0.408789 0.165711,0.204776 0.3868055,0.36505 0.6361905,0.473993 0.436978,0.190896 0.969128,0.234653 1.512231,0.10273 0.543111,-0.131882 1.003831,-0.417412 1.315983,-0.791517 0.122463,-0.146769 0.22248,-0.309412 0.03049,-0.439551 -0.191982,-0.130139 -0.267211,-0.005 -0.367481,0.115168 z"
       id="path5785"
       sodipodi:nodetypes="sssscsscscs" /><path
       style="color:#000000;fill:#db6901;fill-opacity:1;fill-rule:evenodd;stroke-width:0.919137;-inkscape-stroke:none"
       d="m 37.590193,37.070496 c 0.239651,0.287214 0.619576,0.531016 1.077914,0.642349 0.458339,0.111339 0.903346,0.06743 1.242063,-0.08054 0.135576,-0.05923 0.252778,-0.133341 0.349331,-0.219854 0.144679,-0.129632 0.242995,-0.287098 0.459536,-0.211565 0.216538,0.07554 0.123226,0.25475 -0.0014,0.408789 -0.165711,0.204776 -0.386806,0.36505 -0.636191,0.473993 -0.436978,0.190896 -0.969128,0.234653 -1.512231,0.10273 -0.543111,-0.131882 -1.003831,-0.417412 -1.315984,-0.791517 -0.122463,-0.146769 -0.222479,-0.309412 -0.03049,-0.439551 0.191981,-0.130139 0.267209,-0.005 0.367479,0.115168 z"
       id="path16620"
       sodipodi:nodetypes="sssscsscscs" /><path
       style="color:#000000;fill:#fe9e28;fill-opacity:1;fill-rule:evenodd;stroke-width:0.919137;-inkscape-stroke:none"
       d="m 15.647065,30.617943 c -0.293984,0.221664 -0.715458,0.367022 -1.185397,0.364326 -0.469939,-0.0027 -0.894168,-0.153381 -1.192928,-0.379655 -0.119581,-0.09058 -0.218127,-0.191187 -0.293947,-0.298874 -0.113609,-0.161361 -0.176189,-0.33859 -0.403045,-0.317523 -0.226853,0.02107 -0.17373,0.218271 -0.08478,0.398548 0.11826,0.239659 0.299847,0.449399 0.519812,0.615997 0.385431,0.291919 0.894579,0.46359 1.451427,0.466784 0.556846,0.0032 1.06582,-0.163177 1.448741,-0.4519 0.150228,-0.113272 0.281935,-0.24745 0.122351,-0.420775 -0.159582,-0.173326 -0.259228,-0.06971 -0.38224,0.02307 z"
       id="path5787"
       sodipodi:nodetypes="sssscsscscs" /><path
       style="color:#000000;fill:#db6901;fill-opacity:1;fill-rule:evenodd;stroke-width:0.919137;-inkscape-stroke:none"
       d="m 34.468288,38.06024 c 0.293983,0.221664 0.715458,0.367022 1.185397,0.364326 0.469938,-0.0027 0.894167,-0.153381 1.192928,-0.379655 0.119581,-0.09058 0.218126,-0.191187 0.293947,-0.298874 0.113608,-0.161361 0.176189,-0.33859 0.403045,-0.317523 0.226853,0.02107 0.17373,0.218271 0.08478,0.398548 -0.11826,0.239659 -0.299848,0.449399 -0.519813,0.615997 -0.38543,0.291919 -0.894579,0.463589 -1.451426,0.466784 -0.556847,0.0032 -1.065821,-0.163177 -1.448741,-0.4519 -0.150228,-0.113272 -0.281935,-0.247451 -0.122351,-0.420775 0.159582,-0.173326 0.259227,-0.06971 0.38224,0.02307 z"
       id="path5789"
       sodipodi:nodetypes="sssscsscscs" /><path
       style="color:#000000;fill:#fe9e28;fill-opacity:1;fill-rule:evenodd;stroke-width:0.919137;-inkscape-stroke:none"
       d="m 42.186317,30.617943 c 0.293983,0.221664 0.715458,0.367022 1.185397,0.364326 0.469938,-0.0027 0.894167,-0.153381 1.192928,-0.379655 0.11958,-0.09058 0.218126,-0.191187 0.293947,-0.298874 0.113608,-0.161361 0.176189,-0.33859 0.403045,-0.317523 0.226853,0.02107 0.17373,0.218271 0.08478,0.398548 -0.118259,0.239659 -0.299847,0.449399 -0.519812,0.615997 -0.38543,0.291919 -0.894579,0.46359 -1.451426,0.466784 -0.556847,0.0032 -1.065821,-0.163177 -1.448741,-0.4519 -0.150229,-0.113272 -0.281935,-0.24745 -0.122351,-0.420775 0.159582,-0.173326 0.259227,-0.06971 0.38224,0.02307 z"
       id="path5791"
       sodipodi:nodetypes="sssscsscscs" /><path
       style="color:#000000;fill:#fe9e28;fill-opacity:1;fill-rule:evenodd;stroke-width:0.919137;-inkscape-stroke:none"
       d="m 26.959123,27.716709 c -0.293984,0.221664 -0.715458,0.367022 -1.185397,0.364326 -0.469939,-0.0027 -0.894168,-0.153381 -1.192928,-0.379655 -0.119581,-0.09058 -0.218127,-0.191187 -0.293947,-0.298874 -0.113609,-0.161361 -0.176189,-0.33859 -0.403045,-0.317523 -0.226853,0.02107 -0.17373,0.218271 -0.08478,0.398548 0.11826,0.239659 0.299847,0.449399 0.519813,0.615997 0.38543,0.291919 0.894578,0.46359 1.451426,0.466784 0.556846,0.0032 1.06582,-0.163177 1.448741,-0.4519 0.150228,-0.113272 0.281935,-0.24745 0.122351,-0.420775 -0.159582,-0.173326 -0.259228,-0.06971 -0.38224,0.02307 z"
       id="path5793"
       sodipodi:nodetypes="sssscsscscs" /><path
       style="color:#000000;fill:#fe9e28;fill-opacity:1;fill-rule:evenodd;stroke-width:0.919137;-inkscape-stroke:none"
       d="M 7.2352719,38.564803 C 6.9412889,38.786467 6.5198144,38.931825 6.0498759,38.929129 5.5799364,38.926464 5.1557078,38.775748 4.8569479,38.549473 4.7373665,38.458898 4.6388204,38.358287 4.563,38.2506 4.4493919,38.089239 4.3868114,37.912009 4.1599557,37.933076 c -0.2268529,0.02107 -0.1737302,0.218271 -0.084778,0.398549 0.1182594,0.239659 0.2998471,0.449399 0.5198125,0.615996 0.3854295,0.29192 0.8945785,0.46359 1.4514262,0.466785 0.5568466,0.0032 1.0658201,-0.163177 1.4487414,-0.4519 C 7.645386,38.849234 7.7770925,38.715055 7.6175082,38.54173 7.4579266,38.368405 7.3582805,38.47202 7.2352682,38.5648 Z"
       id="path5795"
       sodipodi:nodetypes="sssscsscscs" /><path
       style="color:#000000;fill:#db6901;fill-opacity:1;fill-rule:evenodd;stroke-width:0.919137;-inkscape-stroke:none"
       d="m 23.161362,35.789709 c -0.293983,0.221664 -0.715457,0.367022 -1.185396,0.364326 -0.469939,-0.0027 -0.894168,-0.153381 -1.192928,-0.379656 -0.119581,-0.09058 -0.218127,-0.191187 -0.293948,-0.298873 -0.113608,-0.161361 -0.176188,-0.338591 -0.403044,-0.317524 -0.226853,0.02107 -0.17373,0.218271 -0.08478,0.398549 0.118259,0.239659 0.299847,0.449398 0.519812,0.615996 0.38543,0.29192 0.894579,0.46359 1.451426,0.466785 0.556847,0.0032 1.065821,-0.163178 1.448742,-0.451901 0.150229,-0.113271 0.281935,-0.24745 0.12235,-0.420775 -0.159581,-0.173326 -0.259227,-0.06971 -0.38224,0.02307 z"
       id="path5797"
       sodipodi:nodetypes="sssscsscscs" /><path
       style="color:#000000;fill:#db6901;fill-opacity:1;fill-rule:evenodd;stroke-width:0.919137;-inkscape-stroke:none"
       d="m 22.584975,37.555678 c 0.293983,0.221663 0.715458,0.367021 1.185396,0.364326 0.469939,-0.0027 0.894169,-0.153381 1.192928,-0.379656 0.119581,-0.09058 0.218127,-0.191187 0.293947,-0.298874 0.113609,-0.161361 0.17619,-0.33859 0.403046,-0.317523 0.226852,0.02107 0.17373,0.218271 0.08478,0.398549 -0.118259,0.239658 -0.299847,0.449398 -0.519812,0.615996 -0.38543,0.291919 -0.894579,0.46359 -1.451427,0.466784 -0.556846,0.0032 -1.065819,-0.163177 -1.448741,-0.4519 -0.150228,-0.113272 -0.281934,-0.24745 -0.12235,-0.420775 0.159581,-0.173326 0.259227,-0.06971 0.382239,0.02308 z"
       id="path14437"
       sodipodi:nodetypes="sssscsscscs" /><path
       id="path19369"
       style="fill:#d96800;fill-opacity:0.411765;stroke-width:0.960285;stroke-linejoin:round;stop-color:#000000"
       d="m 30.098175,38.413039 -0.884957,0.558106 -1.367793,0.86248 1.320648,4.751131 1.348771,0.91984 -0.01038,0.07545 0.142583,0.452168 0.382367,-0.280603 0.107359,-0.147794 1.753652,-0.01033 5.043322,-3.886068 -0.661174,-1.26814 h 5.17e-4 l -0.395785,-0.758093 0.03418,-0.0026 -1.784195,-0.763261 -2.80273,-0.489375 -2.217962,-0.01137 h -0.0016 z" /><path
       id="rect6110"
       style="display:inline;opacity:1;fill:#ffac25;fill-opacity:1;stroke-width:1.43342;stroke-linejoin:round;stop-color:#000000"
       d="m 2.6101823,40.351081 -1.3014089,1.992283 c -0.1760073,4.249888 1.9653714,5.682066 4.8525732,5.953725 0.2335435,0.733063 1.0679861,1.247073 2.02521,1.247513 1.0413528,-1.97e-4 1.9235814,-0.605858 2.0686854,-1.420177 1.14173,-0.151048 2.290624,-0.355139 3.378217,-0.542097 l 13.516209,1.752224 3.407839,-0.232188 c 0.384926,0.470096 1.045418,0.754016 1.754322,0.754116 0.837884,-3.96e-4 1.594442,-0.395991 1.922014,-1.004995 l 6.197458,-0.422561 c 0.395411,0.340983 0.953841,0.535323 1.539331,0.535702 1.007866,-4.82e-4 1.871674,-0.569015 2.053876,-1.3518 0.470725,-0.302527 0.751629,-0.751726 0.769665,-1.230787 0.491098,-0.378404 1.024119,-0.724046 1.588541,-1.045825 0.39557,0.403823 1.005571,0.640308 1.652081,0.640482 1.153807,-1.5e-4 2.08909,-0.738761 2.08923,-1.649905 6.4e-5,-0.04465 -0.0021,-0.08929 -0.0067,-0.133803 1.152741,-0.0016 2.086089,-0.74009 2.085885,-1.650397 -0.0025,-0.215918 -0.05869,-0.429347 -0.165304,-0.628183 -2.476874,2.285324 -5.075611,1.435661 -7.341533,0.417405 -3.607692,-1.621218 -6.469786,1.246748 -7.713003,3.256278 -0.962933,-0.152286 -2.880839,-0.776186 -2.836603,0.200596 0.114542,2.529238 -3.943581,2.413814 -5.919783,1.581622 -1.834751,-0.772645 -5.545382,-3.569403 -11.240215,-1.38082 -1.017886,-1.535565 -3.052432,-0.977454 -5.376131,0.176104 -2.1667875,1.333143 -3.6105934,0.557102 -4.651909,-1.39314 -2.0379794,0.850291 -5.0621098,-0.549789 -4.3485467,-4.421372 z"
       sodipodi:nodetypes="ccccccccccccccccccccscsscccc" /><path
       id="path15389"
       style="mix-blend-mode:multiply;fill:#d96800;fill-opacity:0.41196;stroke-width:1.20058;stroke-linejoin:round;stop-color:#000000"
       d="m 13.990327,30.406849 -0.0094,0.002 -2.899514,0.241306 -3.8412299,0.888786 -2.6169295,1.120101 0.043337,-5e-4 -2.1455113,2.596416 5.1059821,4.256084 2.2841982,-0.167366 0.083763,0.170363 0.3920892,0.305754 0.356816,-0.570042 0.01511,-0.09093 2.10829,-1.268481 3.52268,-5.969707 -1.456845,-0.919263 z" /><g
       id="g15357"
       transform="matrix(0.70529036,-0.1885286,0.21858388,0.81772795,-59.547695,5.3519054)"><path
         id="rect9126"
         style="opacity:1;fill:#d7051a;fill-opacity:1;stroke-width:1.52797;stroke-linejoin:round;stop-color:#000000"
         d="m 70.359741,52.598289 c 6.098353,1.381863 12.196705,1.463552 18.295058,0 l -5.469903,6.290388 -3.223594,1.038089 -3.746524,-0.595184 z"
         sodipodi:nodetypes="cccccc" /><path
         id="rect9129"
         style="opacity:1;fill:#c00300;fill-opacity:1;stroke-width:1.52797;stroke-linejoin:round;stop-color:#000000"
         d="m 73.539978,50.03112 h 12.284949 l 2.829872,2.567169 c -1.545094,0.496352 -3.171395,2.346106 -4.735712,2.14488 l -9.131182,0.07134 -4.428164,-2.216219 z"
         sodipodi:nodetypes="cccsccc" /><path
         id="path14501"
         style="opacity:1;fill:#ff595e;fill-opacity:0.614618;stroke-width:2.8049;stroke-linejoin:round;stop-color:#000000"
         d="m 73.540213,50.031054 -1.199927,0.968416 3.377055,0.969967 7.897709,0.07286 3.321761,-1.002523 -1.112077,-1.008724 z" /><path
         id="rect9236"
         style="opacity:1;fill:#ffdbdd;fill-opacity:1;stroke-width:1.52797;stroke-linejoin:round;stop-color:#000000"
         d="m 76.999479,49.428437 5.061019,0.04292 3.752008,0.559763 -3.71491,0.870463 -4.882508,-0.03498 -3.746216,-0.835486 z"
         sodipodi:nodetypes="ccccccc" /><path
         id="rect14558"
         style="opacity:1;fill:#fffdfd;fill-opacity:0.215947;stroke-width:1.47211;stroke-linejoin:round;stop-color:#000000"
         d="m 77.296573,50.793348 v 3.521013 l 1.949551,5.720292 0.453203,0.491044 0.548803,-0.594703 1.774769,-5.616633 v -3.521013 z"
         sodipodi:nodetypes="cccccccc" /></g><path
       id="path15361"
       style="fill:#ffac25;fill-opacity:1;stroke:none;stroke-width:0.0911011;stroke-linecap:round;stroke-linejoin:round;stroke-dasharray:none;stroke-opacity:1;paint-order:stroke fill markers;stop-color:#000000"
       d="m 16.527639,35.730883 c -0.977831,0.581963 -1.007032,1.060457 -0.62641,1.668624 -1.384674,-0.389964 -1.8858,0.152873 -1.953811,1.153125 -0.96334,-0.385674 -2.289852,0.0957 -2.282252,1.43653 -1.045476,-0.350179 -1.150235,0.500062 -1.50217,1.256616 l -1.0385799,0.192156 c -0.078695,0.0437 -0.1596558,0.08419 -0.2424451,0.12124 -1.1451793,0.500938 -2.3879921,0.258569 -2.7757855,-0.541324 -0.3875335,-0.799844 0.2265054,-1.854079 1.3715551,-2.354804 0.7769804,-0.339397 1.6355495,-0.346924 2.2244465,-0.0195 0.092523,-0.05217 0.1882501,-0.09989 0.286458,-0.142782 0.09,-0.03938 0.1818899,-0.07463 0.2750889,-0.105525 -0.03612,-0.153057 -0.04164,-0.306405 -0.01641,-0.455413 0.14823,-0.865293 1.279601,-1.397326 2.526895,-1.188284 0.390771,0.06575 0.762694,0.200726 1.079401,0.391717 0.335371,-0.160579 0.739816,-0.244691 1.166545,-0.242604 0.0195,-0.289081 0.123196,-0.544801 0.301716,-0.74408 0.274204,-0.30237 0.705128,-0.454507 1.205762,-0.425692 z"
       sodipodi:nodetypes="sccccccccccccccccss" /><ellipse
       style="fill:#ffd13e;fill-opacity:1;fill-rule:evenodd;stroke-width:0.168912"
       id="ellipse15383"
       cx="-5.4876499"
       cy="38.954636"
       rx="1.6160783"
       ry="1.1264541"
       transform="matrix(0.86458195,-0.50249184,0.52168447,0.85313851,0,0)" /><ellipse
       style="fill:#ffd13e;fill-opacity:1;fill-rule:evenodd;stroke-width:0.216189"
       id="ellipse15385"
       cx="-55.462093"
       cy="11.717222"
       rx="2.1495976"
       ry="1.3872759"
       transform="matrix(-0.89676163,-0.44251393,-0.58441884,0.81145216,0,0)" /><ellipse
       style="fill:#ffd13e;fill-opacity:1;fill-rule:evenodd;stroke-width:0.216189"
       id="ellipse15387"
       cx="-46.738373"
       cy="18.068829"
       rx="2.1495976"
       ry="1.3872759"
       transform="matrix(-0.89676163,-0.44251393,-0.58441884,0.81145216,0,0)" /><ellipse
       style="fill:#ffd13e;fill-opacity:1;fill-rule:evenodd;stroke-width:0.182755"
       id="ellipse15369"
       cx="2.6882885"
       cy="46.203465"
       rx="1.8171574"
       ry="1.1727304"
       transform="matrix(0.89676163,-0.44251393,0.58441884,0.81145216,0,0)" /><g
       id="g15639"
       transform="matrix(-0.57461001,-0.10241998,-0.11874781,0.66621451,82.983447,14.087522)"><path
         id="path15629"
         style="opacity:1;fill:#0fd232;fill-opacity:1;stroke-width:1.52797;stroke-linejoin:round;stop-color:#000000"
         d="m 70.359741,52.598289 c 6.098353,1.381863 12.196705,1.463552 18.295058,0 l -5.469903,6.290388 -3.223594,1.038089 -3.746524,-0.595184 z"
         sodipodi:nodetypes="cccccc" /><path
         id="path15631"
         style="opacity:1;fill:#029a22;fill-opacity:1;stroke-width:1.52797;stroke-linejoin:round;stop-color:#000000"
         d="m 73.539978,50.03112 h 12.284949 l 2.829872,2.567169 c -1.545094,0.496352 -3.171395,2.346106 -4.735712,2.14488 l -9.131182,0.07134 -4.428164,-2.216219 z"
         sodipodi:nodetypes="cccsccc" /><path
         id="path15633"
         style="opacity:1;fill:#4dfe54;fill-opacity:1;stroke-width:2.8049;stroke-linejoin:round;stop-color:#000000"
         d="m 73.540213,50.031054 -1.199927,0.968416 3.377055,0.969967 7.897709,0.07286 3.321761,-1.002523 -1.112077,-1.008724 z" /><path
         id="path15635"
         style="opacity:1;fill:#d3ffd1;fill-opacity:1;stroke-width:1.52797;stroke-linejoin:round;stop-color:#000000"
         d="m 76.999479,49.428437 5.061019,0.04292 3.752008,0.559763 -3.71491,0.870463 -4.882508,-0.03498 -3.746216,-0.835486 z"
         sodipodi:nodetypes="ccccccc" /><path
         id="path15637"
         style="opacity:1;fill:#ccffcf;fill-opacity:0.4152824;stroke-width:1.47211;stroke-linejoin:round;stop-color:#000000"
         d="m 77.296573,50.793348 v 3.521013 l 1.949551,5.720292 0.453203,0.491044 0.548803,-0.594703 1.774769,-5.616633 v -3.521013 z"
         sodipodi:nodetypes="cccccccc" /></g><path
       id="path19367"
       style="fill:#ffd13e;fill-opacity:1;stroke:none;stroke-width:0.0740034;stroke-linecap:round;stroke-linejoin:round;stroke-dasharray:none;stroke-opacity:1;paint-order:stroke fill markers;stop-color:#000000"
       d="m 25.047417,42.895798 c 0.794313,0.472741 0.818034,0.861432 0.508846,1.355459 1.124801,-0.316776 1.531876,0.124182 1.587123,0.936708 0.782541,-0.313291 1.860095,0.07774 1.853922,1.166924 0.849262,-0.284458 0.93436,0.406211 1.220244,1.020776 l 0.843661,0.156092 c 0.06393,0.0355 0.129692,0.06839 0.196943,0.09849 0.930254,0.406923 1.939818,0.210041 2.25483,-0.439729 0.314802,-0.64973 -0.183995,-1.506108 -1.114143,-1.912857 -0.631158,-0.2757 -1.328592,-0.281814 -1.806966,-0.01584 -0.07516,-0.04238 -0.152919,-0.08114 -0.232696,-0.115984 -0.07311,-0.03199 -0.147753,-0.06062 -0.22346,-0.08572 0.02934,-0.124331 0.03383,-0.248899 0.01333,-0.369941 -0.120411,-0.702896 -1.039447,-1.135078 -2.052651,-0.965269 -0.317431,0.05341 -0.619552,0.163054 -0.87682,0.3182 -0.272429,-0.130441 -0.600968,-0.198767 -0.94761,-0.197072 -0.01584,-0.234827 -0.100074,-0.442554 -0.24509,-0.604432 -0.222742,-0.245622 -0.57279,-0.369206 -0.979466,-0.345799 z"
       sodipodi:nodetypes="sccccccccccccccccss" /><g
       id="g21698"
       transform="matrix(0.12195222,0.03274912,-0.03274912,0.12195222,13.215042,5.5537587)"><polygon
         class="cls-14"
         points="160.45,35.89 172.8,6.78 193.08,34.15 "
         id="polygon21137"
         style="fill:#f06f21;fill-opacity:1" /><polygon
         class="cls-14"
         points="232.36,35.89 220.01,6.78 199.73,34.15 "
         id="polygon21139"
         style="fill:#f06f21;fill-opacity:1" /><path
         class="cls-15"
         d="M 221.8,33.83 196.41,0 V 0 L 171,33.83 148.58,7.25 l 11.88,59.4 c 0,0 10.44,8.67 35.95,8.67 25.51,0 35.94,-8.67 35.94,-8.67 l 11.88,-59.4 z"
         id="path21141"
         style="fill:#ffee57;fill-opacity:1" /><path
         class="cls-14"
         d="m 160,64.84 c 0,0 10.58,6.6 36.43,6.6 25.85,0 36.43,-6.6 36.43,-6.6 V 77 c 0,0 -10.58,6.6 -36.43,6.6 C 170.58,83.6 160,77 160,77 Z"
         id="path21143"
         style="fill:#f06f21;fill-opacity:1" /><circle
         class="cls-16"
         cx="196.41"
         cy="47.16"
         r="12.61"
         id="circle21145"
         style="fill:#1f429e;fill-opacity:1" /><circle
         class="cls-2"
         cx="196.41"
         cy="47.099998"
         r="8.6499996"
         id="circle21147"
         style="fill:#0fc3d9;fill-opacity:1" /><ellipse
         class="cls-17"
         cx="91.19313"
         cy="185.44377"
         rx="3.1700001"
         ry="3.8299999"
         transform="rotate(-51.66)"
         id="ellipse21149"
         style="fill:#f4fbfe" /><path
         class="cls-16"
         d="m 229.2,47.43 c -1.49,6.13 -2.22,11.22 3.91,12.71 a 11.43,11.43 0 1 0 5.4,-22.21 c -6.13,-1.49 -7.82,3.37 -9.31,9.5 z"
         id="path21151"
         style="fill:#db061e;fill-opacity:1" /><path
         class="cls-2"
         d="m 233.34,57.36 c -4.59,-1.28 -3.07,-4.88 -1.78,-9.48 1.29,-4.6 1.83,-8.46 6.43,-7.18 a 8.65,8.65 0 1 1 -4.65,16.66 z"
         id="path21153"
         style="fill:#eb5b9c;fill-opacity:1" /><ellipse
         class="cls-17"
         cx="113.82124"
         cy="216.86134"
         rx="2.8099999"
         ry="2.8599999"
         transform="rotate(-51.66)"
         id="ellipse21155"
         style="fill:#f4fbfe" /><path
         class="cls-16"
         d="m 163.62,47.43 c 1.49,6.13 2.22,11.22 -3.92,12.71 a 11.43,11.43 0 0 1 -5.4,-22.21 c 6.14,-1.49 7.83,3.37 9.32,9.5 z"
         id="path21157"
         style="fill:#db061e;fill-opacity:1" /><path
         class="cls-2"
         d="m 159.47,57.36 c 4.59,-1.28 3.07,-4.88 1.79,-9.48 -1.28,-4.6 -1.84,-8.46 -6.43,-7.18 a 8.65,8.65 0 1 0 4.64,16.66 z"
         id="path21159"
         style="fill:#f796f4;fill-opacity:0.59136212" /><ellipse
         class="cls-17"
         cx="96.261467"
         cy="133.8004"
         rx="2.8599999"
         ry="2.8099999"
         transform="rotate(-38.34)"
         id="ellipse21161"
         style="fill:#f4fbfe" /></g><path
       id="path15359"
       style="fill:#ffd13e;fill-opacity:1;fill-rule:evenodd;stroke-width:0.119669"
       d="m 37.172502,20.14895 c -0.510374,-0.176565 -1.040682,-0.07656 -1.310542,0.247143 -0.571515,-0.192289 -1.102798,-0.08717 -1.384811,0.273993 -0.144694,0.186463 -0.213915,0.429534 -0.199671,0.701138 -0.622496,0.01881 -1.163718,0.288945 -1.413995,0.705758 -0.08119,-0.01299 -0.163199,-0.02166 -0.2454,-0.02596 -0.112207,-0.0056 -0.224274,-0.003 -0.334605,0.0076 -0.32033,-0.330399 -0.819494,-0.539892 -1.35206,-0.567445 -0.804034,-0.04089 -1.508219,0.338005 -1.69661,0.912877 -0.155439,1.83e-4 -0.312384,0.01695 -0.466401,0.04981 -0.92498,0.198598 -1.544222,0.922574 -1.383174,1.617115 0.160885,0.694733 1.041444,1.097025 1.966648,0.898482 0.01361,-0.0036 1.086439,1.247665 1.099968,1.243841 2.365592,5.131497 20.164732,1.339525 11.58425,-1.154925 0.22883,-0.380293 -0.295835,-2.128205 -1.914777,-1.418802 -0.158345,-0.246739 -0.391006,-0.468306 -0.671066,-0.639068 0.09729,-0.208412 0.126785,-0.427656 0.08582,-0.637942 -0.110594,-0.561299 -0.700816,-0.968364 -1.449983,-1.00003 0.07877,-0.482771 -0.315332,-1.006275 -0.91363,-1.213595 z"
       sodipodi:nodetypes="cccccccccccccccccccc" /><ellipse
       style="fill:#ffd13e;fill-opacity:1;fill-rule:evenodd;stroke-width:0.179229"
       id="ellipse15379"
       cx="34.85387"
       cy="14.737914"
       rx="1.7147915"
       ry="1.1952602"
       transform="matrix(0.98019058,0.19805662,-0.17610595,0.98437122,0,0)" /><path
       style="color:#000000;fill:#fe9e28;fill-opacity:1;fill-rule:evenodd;stroke-width:0.919137;-inkscape-stroke:none"
       d="m 32.798239,21.776302 c -0.293983,0.221664 -0.715457,0.367022 -1.185396,0.364326 -0.469939,-0.0027 -0.894168,-0.153381 -1.192928,-0.379656 -0.119581,-0.09057 -0.218127,-0.191186 -0.293948,-0.298873 -0.113608,-0.161361 -0.176188,-0.338591 -0.403044,-0.317523 -0.226853,0.02107 -0.17373,0.21827 -0.08478,0.398548 0.118259,0.239659 0.299847,0.449399 0.519812,0.615996 0.38543,0.29192 0.894579,0.46359 1.451427,0.466785 0.556846,0.0032 1.06582,-0.163177 1.448741,-0.4519 0.150228,-0.113272 0.281935,-0.247451 0.12235,-0.420776 -0.159581,-0.173325 -0.259227,-0.06971 -0.38224,0.02307 z"
       id="path5781"
       sodipodi:nodetypes="sssscsscscs" /><path
       style="color:#000000;fill:#fe9e28;fill-opacity:1;fill-rule:evenodd;stroke-width:0.979764;-inkscape-stroke:none"
       d="m 29.346324,20.923228 c -0.259217,0.301719 -0.670162,0.557833 -1.165923,0.674789 -0.495761,0.116961 -0.977102,0.07083 -1.343475,-0.08461 -0.146645,-0.06222 -0.273416,-0.140075 -0.377853,-0.230957 -0.156491,-0.136179 -0.262834,-0.301597 -0.497055,-0.222249 -0.234219,0.07935 -0.133288,0.267615 0.0015,0.429433 0.179241,0.215118 0.418387,0.383486 0.688134,0.497931 0.472657,0.200536 1.048256,0.246503 1.635702,0.107918 0.587455,-0.138543 1.085792,-0.438492 1.423431,-0.83149 0.132461,-0.154181 0.240644,-0.325038 0.03298,-0.461749 -0.207657,-0.136712 -0.289027,-0.0053 -0.397484,0.120984 z"
       id="path5779"
       sodipodi:nodetypes="sssscsscscs"
       transform="matrix(0.92451533,0,0,0.95192619,2.5452074,0.75484515)" /><path
       id="circle29734"
       style="fill:#fe9e28;fill-opacity:1;fill-rule:evenodd;stroke:none;stroke-width:0.193369;stroke-opacity:1"
       d="m 29.103925,19.518036 a 1.0929469,1.0351357 0 0 0 -1.092953,1.035142 1.0929469,1.0351357 0 0 0 1.092953,1.035141 1.0929469,1.0351357 0 0 0 1.092953,-1.035141 1.0929469,1.0351357 0 0 0 -1.092953,-1.035142 z m 0.318672,2.514329 a 1.0929469,1.0351357 0 0 0 -1.092953,1.035141 1.0929469,1.0351357 0 0 0 1.092953,1.035142 1.0929469,1.0351357 0 0 0 1.092953,-1.035142 1.0929469,1.0351357 0 0 0 -1.092953,-1.035141 z m 7.327419,0.704398 a 1.0929469,1.0351357 0 0 0 -1.092954,1.035141 1.0929469,1.0351357 0 0 0 1.092954,1.035142 1.0929469,1.0351357 0 0 0 1.092953,-1.035142 1.0929469,1.0351357 0 0 0 -1.092953,-1.035141 z m 2.761145,0.301815 a 1.0929469,1.0351357 0 0 0 -1.092953,1.035142 1.0929469,1.0351357 0 0 0 1.092953,1.035141 1.0929469,1.0351357 0 0 0 1.092953,-1.035141 1.0929469,1.0351357 0 0 0 -1.092953,-1.035142 z m -7.85837,0.703916 a 1.0929469,1.0351357 0 0 0 -1.092953,1.035141 1.0929469,1.0351357 0 0 0 1.092953,1.035142 1.0929469,1.0351357 0 0 0 1.092444,-1.035142 1.0929469,1.0351357 0 0 0 -1.092444,-1.035141 z m 2.86703,0.603632 a 1.0929469,1.0351357 0 0 0 -1.092953,1.035141 1.0929469,1.0351357 0 0 0 1.092953,1.035142 1.0929469,1.0351357 0 0 0 1.092954,-1.035142 1.0929469,1.0351357 0 0 0 -1.092954,-1.035141 z" /><g
       id="g28052"
       transform="matrix(-0.76234355,0,0,0.76234355,46.889989,9.2342978)"><circle
         style="fill:#cfd3d2;fill-opacity:1;fill-rule:evenodd;stroke:#8d9e9d;stroke-width:0.264583;stroke-opacity:1"
         id="circle28048"
         cx="23.609222"
         cy="13.906801"
         r="1.4553629" /><circle
         style="fill:#ffffff;fill-opacity:1;fill-rule:evenodd;stroke:none;stroke-width:0.127392;stroke-opacity:1"
         id="circle28050"
         cx="23.555321"
         cy="13.475582"
         r="0.70073026" /></g><g
       id="g28058"
       transform="matrix(-0.76234355,0,0,0.76234355,47.213403,11.929414)"><circle
         style="fill:#cfd3d2;fill-opacity:1;fill-rule:evenodd;stroke:#8d9e9d;stroke-width:0.264583;stroke-opacity:1"
         id="circle28054"
         cx="23.609222"
         cy="13.906801"
         r="1.4553629" /><circle
         style="fill:#ffffff;fill-opacity:1;fill-rule:evenodd;stroke:none;stroke-width:0.127392;stroke-opacity:1"
         id="circle28056"
         cx="23.555321"
         cy="13.475582"
         r="0.70073026" /></g><g
       id="g28064"
       transform="matrix(-0.76234355,0,0,0.76234355,49.477301,13.762093)"><circle
         style="fill:#cfd3d2;fill-opacity:1;fill-rule:evenodd;stroke:#8d9e9d;stroke-width:0.264583;stroke-opacity:1"
         id="circle28060"
         cx="23.609222"
         cy="13.906801"
         r="1.4553629" /><circle
         style="fill:#ffffff;fill-opacity:1;fill-rule:evenodd;stroke:none;stroke-width:0.127392;stroke-opacity:1"
         id="circle28062"
         cx="23.555321"
         cy="13.475582"
         r="0.70073026" /></g><g
       id="g28070"
       transform="matrix(-0.76234355,0,0,0.76234355,52.388027,14.408921)"><circle
         style="fill:#cfd3d2;fill-opacity:1;fill-rule:evenodd;stroke:#8d9e9d;stroke-width:0.264583;stroke-opacity:1"
         id="circle28066"
         cx="23.609222"
         cy="13.906801"
         r="1.4553629" /><circle
         style="fill:#ffffff;fill-opacity:1;fill-rule:evenodd;stroke:none;stroke-width:0.127392;stroke-opacity:1"
         id="circle28068"
         cx="23.555321"
         cy="13.475582"
         r="0.70073026" /></g><g
       id="g28076"
       transform="matrix(-0.76234355,0,0,0.76234355,54.651925,12.684047)"><circle
         style="fill:#cfd3d2;fill-opacity:1;fill-rule:evenodd;stroke:#8d9e9d;stroke-width:0.264583;stroke-opacity:1"
         id="circle28072"
         cx="23.609222"
         cy="13.906801"
         r="1.4553629" /><circle
         style="fill:#ffffff;fill-opacity:1;fill-rule:evenodd;stroke:none;stroke-width:0.127392;stroke-opacity:1"
         id="circle28074"
         cx="23.555321"
         cy="13.475582"
         r="0.70073026" /></g><g
       id="g28046"
       transform="matrix(-0.76234355,0,0,0.76234355,57.454846,13.007461)"><circle
         style="fill:#cfd3d2;fill-opacity:1;fill-rule:evenodd;stroke:#8d9e9d;stroke-width:0.264583;stroke-opacity:1"
         id="path25832"
         cx="23.609222"
         cy="13.906801"
         r="1.4553629" /><circle
         style="fill:#ffffff;fill-opacity:1;fill-rule:evenodd;stroke:none;stroke-width:0.124179;stroke-opacity:1"
         id="circle28042"
         cx="23.360878"
         cy="13.457905"
         r="0.68305379" /></g><path
       id="path31617"
       style="fill:#fffcf1;fill-opacity:1;stroke-width:0.58814;stroke-linejoin:round;stop-color:#000000"
       d="m 13.856712,27.599144 -1.112087,3.178612 -1.643348,0.660392 1.643348,0.66039 1.112087,3.178406 1.11228,-3.178406 1.642964,-0.66039 -1.643155,-0.660392 z" /><path
       id="path31619"
       style="fill:#fffcf1;fill-opacity:1;stroke-width:0.58814;stroke-linejoin:round;stop-color:#000000"
       d="m 43.826408,38.37961 -1.112087,3.178612 -1.643348,0.660392 1.643348,0.66039 1.112087,3.178406 1.11228,-3.178406 1.642964,-0.66039 -1.643155,-0.660392 z" /><path
       id="path49933"
       style="fill:#fffcf1;fill-opacity:1;stroke-width:0.58814;stroke-linejoin:round;stop-color:#000000"
       d="m 25.284006,13.584538 -1.112087,3.178612 -1.643348,0.660392 1.643348,0.66039 1.112087,3.178406 1.11228,-3.178406 1.642964,-0.66039 -1.643155,-0.660392 z" /></g></svg>
