<svg id="Layer_1" data-name="Layer 1" xmlns="http://www.w3.org/2000/svg" viewBox="0 0 70.81327 100"><defs><style>.cls-1{fill:#2e5b10;}.cls-2{fill:#664e39;}.cls-3{fill:#4c392a;opacity:0.68;}.cls-4{fill:#0a4422;opacity:0.21;}.cls-5{fill:#3a7016;}.cls-6{fill:#43841e;}.cls-7{fill:#499322;}.cls-8{fill:#57a027;}.cls-9{fill:#539925;}.cls-10{fill:#67af38;}</style></defs><path class="cls-1" d="M42.15,97.4589c-.59113-1.703.08457-2.44677.39307-4.22284a5.227,5.227,0,0,1,.85517,3.02777,2.6375,2.6375,0,0,1,.89551-1.71034,5.65132,5.65132,0,0,0-.05007.6167q.06342.21219.10676.42972a4.9467,4.9467,0,0,1,.09437.88,3.39543,3.39543,0,0,1-.26883,1.62279c-.44083.79581-1.467.41053-2.0289-.01585a4.21734,4.21734,0,0,1-1.24559-1.4425A4.11087,4.11087,0,0,1,42.15,97.4589Z"/><path class="cls-1" d="M26.223,97.36418a10.74155,10.74155,0,0,1,1.0904-5.23818,9.78638,9.78638,0,0,1,.06837,4.32888,3.81734,3.81734,0,0,1,1.473-1.13767c-.011.00477.02285.404.023.44266q.0009.22147-.01894.44238a4.94745,4.94745,0,0,1-.158.87087,3.39534,3.39534,0,0,1-.71616,1.48081c-.64762.63893-1.52326-.02047-1.94184-.58816a4.2172,4.2172,0,0,1-.78753-1.73553A4.11117,4.11117,0,0,1,26.223,97.36418Z"/><path class="cls-2" d="M44.29378,100H26.67841Q27.734,95.87995,28.415,91.56689a98.75318,98.75318,0,0,0,1.03854-19.5165L40.2361,69.86551C39.8048,83.35511,41.08736,93.53615,44.29378,100Z"/><path class="cls-3" d="M40.2361,69.86551,29.45351,72.05039A98.75318,98.75318,0,0,1,28.415,91.56689a16.60361,16.60361,0,0,0,1.67342-1.06726l-.536,6.83378,1.67335-7.6973.7355,4.4734.46986-6.14464c.19782.269,4.118,5.56452,5.93224,5.30453,0,0-.00181,4.16252-2.67792,5.94a13.83538,13.83538,0,0,1-1.18565-6.192A35.24419,35.24419,0,0,1,33.258,98.85093a12.45175,12.45175,0,0,1-.75649-2.93538A12.8405,12.8405,0,0,1,31.821,100H44.29378C41.08736,93.53615,39.8048,83.35511,40.2361,69.86551Z"/><path class="cls-1" d="M70.81327,76.77771c-2.38921,2.83185-9.60786,2.917-10.845,1.30526.98177,1.63441-.15324,8.819-.15324,8.819-.43131-1.5209-7.7521-6.23122-7.7521-6.23122-2.55945.4994-2.53108,7.87129-2.53108,7.87129-1.7082.3462-7.62159-7.83724-7.62159-7.83724-1.03854.61291-5.97584,5.3516-5.08485,7.30378.75479,1.66282-6.49226-6.339-6.71924-8.26851-.33485,2.79211-2.4403,5.85662-6.61713,9.26732.91368-1.32226-1.03286-8.836-1.03286-8.836-4.994,1.04991-11.02661,5.78288-11.02661,5.78288-.56183-1.07824-.50509-3.03614-.2724-4.88053a36.79615,36.79615,0,0,1,.874-4.489C8.4842,79.56983,0,75.75053,0,75.75053a39.05028,39.05028,0,0,0,9.89164-7.07112c4.17115-4.21088,5.17-7.64427,5.17-7.64427L46.961,61.58s6.24824-2.463,8.802-.51077a2.859,2.859,0,0,1,1.06691,2.38353A17.40812,17.40812,0,0,0,62.55608,72.232C65.13254,74.32041,68.07789,75.48382,70.81327,76.77771Z"/><path class="cls-4" d="M70.81327,76.77771c-2.38921,2.83185-9.60786,2.917-10.845,1.30526.98177,1.63441-.15324,8.819-.15324,8.819-.43131-1.5209-7.7521-6.23122-7.7521-6.23122-2.55945.4994-2.53108,7.87129-2.53108,7.87129-1.7082.3462-7.62159-7.83724-7.62159-7.83724-1.03854.61291-5.97584,5.3516-5.08485,7.30378.75479,1.66282-6.49226-6.339-6.71924-8.26851-.33485,2.79211-2.4403,5.85662-6.61713,9.26732.91368-1.32226-1.03286-8.836-1.03286-8.836-4.994,1.04991-11.02661,5.78288-11.02661,5.78288-.56183-1.07824-.50509-3.03614-.2724-4.88053,5.851-1.27121,17.47346-4.73865,19.37463-12.4397,1.27688-5.17,13.38742-7.01438,25.23124-7.56485a2.859,2.859,0,0,1,1.06691,2.38353A17.40812,17.40812,0,0,0,62.55608,72.232C65.13254,74.32041,68.07789,75.48382,70.81327,76.77771Z"/><path class="cls-4" d="M62.18719,78.41781S51.887,76.494,48.52734,71.36941c0,0-3.08155,5.2267-.16456,8.04721,0,0-9.30141-1.62309-9.59085-7.894,0,0-6.00417,8.81337-8.92116,7.5308a18.64845,18.64845,0,0,0-1.0215-8.836s-7.29814,3.58663-6.71359,6.78737c0,0-5.17564-4.85216-3.33693-9.58517-.15892.36322-2.83752,6.20283-8.77364,8.56367,0,0,1.20311-6.1915.18161-7.34352,0,0-.10215.017-.29508.0397,4.17115-4.21088,5.17-7.64427,5.17-7.64427L46.961,61.58s9.76109-3.8477,9.86892,1.87276A17.40812,17.40812,0,0,0,62.55608,72.232c-1.62874.19865-3.144.14756-3.95553-.47668C58.60055,71.75531,59.12268,77.26576,62.18719,78.41781Z"/><path class="cls-5" d="M58.907,73.70185s-9.04039-1.92385-11.9857-7.0484c0,0-2.707,5.22669-.14756,8.04721,0,0-8.16072-1.62309-8.4161-7.894,0,0-5.26647,8.81337-7.82588,7.5308a21.16164,21.16164,0,0,0-.89667-8.836S23.228,69.088,23.74442,72.28877c0,0-4.54572-4.8522-2.92831-9.58517-.14188.36321-2.49136,6.20282-7.701,8.56363,0,0,1.05555-6.19146.15889-7.34348a15.2292,15.2292,0,0,1-7.457-1.11232,39.90894,39.90894,0,0,0,7.02572-5.55022c2.86592-2.84885,5.68641-6.63977,6.41847-10.96419.07378-.44264.15892-.85126.24971-1.2258.49941-2.0714,1.22583-3.16668,2.02031-3.65473,2.18492-1.36767,4.90325,1.80466,4.90325,1.80466l24.65809.2497.56183.00569s.02269.49372.11351,1.3393c.10214.94776.28375,2.33243.60723,3.94416a37.23,37.23,0,0,0,2.24165,7.44566c1.94086,4.506,5.13023,8.69986,10.357,9.68163,0,0-7.16758,2.94536-9.2163,1.15206C55.75735,67.03935,56.217,72.5498,58.907,73.70185Z"/><path class="cls-4" d="M58.907,73.70185s-9.04039-1.92385-11.9857-7.0484c0,0-2.707,5.22669-.14756,8.04721,0,0-8.16072-1.62309-8.4161-7.894,0,0-5.26647,8.81337-7.82588,7.5308,0,0,7.83156-11.82114,7.75778-20.8558C38.25552,49.57721,44.86693,48.60677,52.375,48.76a37.23,37.23,0,0,0,2.24165,7.44566c1.94086,4.506,5.13023,8.69986,10.357,9.68163,0,0-7.16758,2.94536-9.2163,1.15206C55.75735,67.03935,56.217,72.5498,58.907,73.70185Z"/><path class="cls-6" d="M27.30334,53.82733s-5.77661,4.88243-3.77673,10.55728a49.58606,49.58606,0,0,0,2.15766-4.80977,7.87538,7.87538,0,0,0,2.0138,5.12206C28.39488,57.20576,27.30334,53.82733,27.30334,53.82733Z"/><path class="cls-6" d="M17.55473,58.35954a27.395,27.395,0,0,0-.14933,5.90906c3.05882-1.477,5.64739-5.1303,5.90883-7.66221a21.06626,21.06626,0,0,1-3.78571,3.34774c.87892-2.24795-1.33071-5.6985-1.33071-5.6985.08123,2.19079-7.208,7.41381-7.208,7.41381C13.46232,61.04256,16.57746,59.85852,17.55473,58.35954Z"/><path class="cls-4" d="M50.67253,54.25913c.77748,1.606-1.23716,6.2766-1.23716,6.2766-.28375-1.67415-4.71032-4.82379-4.71032-4.82379-1.82735.53345-2.68428,7.23568-2.68428,7.23568-1.20311.33485-5.58991-6.82142-5.58991-6.82142.37454,2.48-5.96448,7.423-5.96448,7.423.56182-1.33931-2.7978-8.01885-2.7978-8.01885-3.17237,1.07259-8.40474,6.74764-8.40474,6.74764-.82289-2.41757.7037-7.67835.77748-7.93938-1.30526,1.88412-4.7557,2.62755-7.21868,2.92262,2.86592-2.84885,5.68641-6.63977,6.41847-10.96419.07378-.44264.15892-.85126.24971-1.2258.05677-.10214.11919-.20429.17592-.30644.69806-1.20879,1.31662-2.3438,1.84439-3.34829,2.18492-1.36767,4.90325,1.80466,4.90325,1.80466l24.65809.2497c.21.44267.437.891.67534,1.345a41.49221,41.49221,0,0,0,2.84888,11.38982C52.44882,55.2409,50.67253,54.25913,50.67253,54.25913Z"/><path class="cls-6" d="M49.9291,48.59544c.73775,1.606-1.18042,6.2766-1.18042,6.2766-.26671-1.67414-4.47762-4.82379-4.47762-4.82379-1.73657.53346-2.55378,7.23569-2.55378,7.23569-1.14069.33481-5.31183-6.82142-5.31183-6.82142.17592,1.22579-1.21447,3.05886-2.66728,4.59677a.01759.01759,0,0,0-.00568.01136,37.04433,37.04433,0,0,1-3.00209,2.81484c.53346-1.3393-2.6616-8.01885-2.6616-8.01885-3.01345,1.0726-7.99048,6.74765-7.99048,6.74765-.78316-2.41758.66965-7.67836.73779-7.93943-2.02035,3.07022-9.44329,3.11563-9.44329,3.11563,3.60364-3.47312,6.7987-8.51257,9.0914-12.68943,2.30407-4.20519,3.70014-7.53645,3.70014-7.53645L41.7797,30.492s3.45044-2.57078,5.47644-1.40172a2.70142,2.70142,0,0,1,1.21447,1.7933,5.08663,5.08663,0,0,1,.11915.57319,7.36182,7.36182,0,0,1,.09082.85694,19.65356,19.65356,0,0,0,2.40053,7.06544,95.329,95.329,0,0,0,8.51826,13.01288C56.58592,52.46015,49.9291,48.59544,49.9291,48.59544Z"/><path class="cls-7" d="M16.05467,48.74486a20.7995,20.7995,0,0,0,5.94286-10.62464,16.10232,16.10232,0,0,1,1.65679,7.74372s2.80324-2.01864,2.95343-3.74579c.81064,1.13936-.88406,8.87282-4.75291,8.81378a8.73347,8.73347,0,0,0-.3062-4.67179C21.38523,47.96774,16.05467,48.74486,16.05467,48.74486Z"/><path class="cls-7" d="M29.90839,41.93689s-3.21759,6.34426,1.59562,10.759C31.36724,45.17372,29.90839,41.93689,29.90839,41.93689Z"/><path class="cls-4" d="M49.9291,48.59544c.73775,1.606-1.18042,6.2766-1.18042,6.2766-.26671-1.67414-4.47762-4.82379-4.47762-4.82379-1.73657.53346-2.55378,7.23569-2.55378,7.23569-1.14069.33481-5.31183-6.82142-5.31183-6.82142.17592,1.22579-1.21447,3.05886-2.66728,4.59677.15324-.41995,5.71478-15.64607,4.37547-18.78439-.94208-2.21328,6.52631-3.4334,10.47612-4.81811a7.36182,7.36182,0,0,1,.09082.85694,19.65356,19.65356,0,0,0,2.40053,7.06544,95.329,95.329,0,0,0,8.51826,13.01288C56.58592,52.46015,49.9291,48.59544,49.9291,48.59544Z"/><path class="cls-4" d="M46.15518,39.96936c.71506,1.81034-3.79093,6.5263-3.79093,6.5263.07378-1.31093-4.22224-5.23241-4.22224-5.23241-1.85007.437-5.187,7.16191-5.187,7.16191-4.30166-3.49013-3.55823-7.59886-3.55823-7.59886-.84561,1.799-3.92148,2.95668-7.86,4.733.81721-2.92831,2.15087-5.13591,1.40744-7.53645a7.25463,7.25463,0,0,1-2.48,1.07824c2.30407-4.20519,3.70014-7.53645,3.70014-7.53645L41.7797,30.492s3.45044-2.57078,5.47644-1.40172a16.44413,16.44413,0,0,0,1.21447,1.7933,6.8873,6.8873,0,0,1,.21,1.43013,19.65356,19.65356,0,0,0,2.40053,7.06544,29.75174,29.75174,0,0,0,.5505,5.12455C49.41265,43.47654,46.34246,40.17365,46.15518,39.96936Z"/><path class="cls-7" d="M49.16294,39.19756c-1.86707-1.02718-4.44353-4.33006-4.60245-4.53439.60155,1.81034-3.1837,6.5263-3.1837,6.5263.06242-1.31093-3.5469-5.23237-3.5469-5.23237-.664.1816-1.54928,1.50954-2.34948,2.97372-1.08392,1.96926-2.00895,4.18818-2.00895,4.18818a9.3293,9.3293,0,0,1-2.99076-7.59889c-.70939,1.799-3.29153,2.95671-6.60009,4.733.6867-2.92834,1.80466-5.13591,1.18042-7.53648C23.00667,34.58942,17.4054,34.527,17.4054,34.527c.664-.19293,2.1792-1.74224,3.7512-3.71715,2.09977-2.62755,4.30734-6.00421,4.75569-7.92238a2.68443,2.68443,0,0,0,.0851-.62992l.40294-.017,10.45911-.4143,8.06994-.3178c-.34052,1.84439,2.70133,5.92475,5.51613,9.24468,2.33244,2.741,4.51167,4.9543,4.51167,4.9543a30.32922,30.32922,0,0,1-6.10636-2.36648C48.35142,34.09,49.16294,39.19756,49.16294,39.19756Z"/><path class="cls-8" d="M25.67343,29.787a6.05146,6.05146,0,0,0,.52048,3.46934c0,.3955,1.97909-1.79954,1.97909-1.79954,1.60558,2.43614-1.17508,5.19529-1.17508,5.19529,5.226-2.34436,2.28832-8.18885,2.28832-8.18885-.18554,1.23693-2.386,2.57382-2.386,2.57382.56152-1.73889-.80331-4.43077-.80331-4.43077.03955,1.70067-4.5483,5.70743-4.5483,5.70743C23.099,31.843,25.05423,30.944,25.67343,29.787Z"/><path class="cls-4" d="M50.44551,30.75309c-2.46295-.3178-5.28347-.91371-5.93043-1.99763,0,0-3.55823,3.6831-2.8829,5.868a15.35426,15.35426,0,0,1-5.58994-5.29483s-4.68192,2.48-4.41517,5.58423c0,0-4.48331-4.77838-3.28588-5.95312a11.36935,11.36935,0,0,1-7.18459,1.85007c2.09977-2.62755,4.30734-6.00421,4.75569-7.92238.16456-.21.32916-.42562.488-.64693l18.52905-.7321C44.58886,23.3528,47.63071,27.43316,50.44551,30.75309Z"/><path class="cls-4" d="M49.16294,39.19756c-1.86707-1.02718-4.44353-4.33006-4.60245-4.53439.60155,1.81034-3.1837,6.5263-3.1837,6.5263.06242-1.31093-3.5469-5.23237-3.5469-5.23237-.664.1816-1.54928,1.50954-2.34948,2.97372a28.79393,28.79393,0,0,0,.62424-13.77336l.75479-3.33125,8.06994-.3178c-.34052,1.84439,2.70133,5.92475,5.51613,9.24468,2.33244,2.741,4.51167,4.9543,4.51167,4.9543a30.32922,30.32922,0,0,1-6.10636-2.36648C48.35142,34.09,49.16294,39.19756,49.16294,39.19756Z"/><path class="cls-9" d="M52.00047,26.99621s-7.51376-.35753-8.55795-2.37785c0,0-3.07022,3.67174-2.47435,5.85666a14.75028,14.75028,0,0,1-4.86352-5.31756A10.91526,10.91526,0,0,0,33.26713,27.785a4.50079,4.50079,0,0,0-.95905,2.93971s-3.89879-4.79542-2.87161-5.96448c-3.25747,2.83184-8.29692,1.54359-8.29692,1.54359S33.76089,14.2614,33.636,0C33.636,0,47.47179,24.817,52.00047,26.99621Z"/><path class="cls-4" d="M52.00047,26.99621s-7.51376-.35753-8.55795-2.37785c0,0-3.07022,3.67174-2.47435,5.85666a14.75028,14.75028,0,0,1-4.86352-5.31756A10.91526,10.91526,0,0,0,33.26713,27.785C37.37021,13.552,33.636,0,33.636,0S47.47179,24.817,52.00047,26.99621Z"/><path class="cls-10" d="M25.624,23.135c.69705.52049,7.87329-6.743,7.64318-13.56916,0,0,1.32026,10.00032-1.27385,15.05549a4.74016,4.74016,0,0,0-.82744-3.64073C30.35951,22.37747,26.75639,23.722,25.624,23.135Z"/><path class="cls-5" d="M27.47861,99.90921A.28833.28833,0,0,1,27.42752,100h-2.1111a4.111,4.111,0,0,1-1.23716-1.2258,4.04319,4.04319,0,0,1,1.32226.69234,10.72734,10.72734,0,0,1-.94772-5.26642,9.68041,9.68041,0,0,1,1.67982,3.98954,3.83882,3.83882,0,0,1,.942-1.606c0,.017.17592.36318.18728.40291a3.60191,3.60191,0,0,1,.14756.4143,5.02617,5.02617,0,0,1,.18157.86827A3.411,3.411,0,0,1,27.47861,99.90921Z"/><path class="cls-5" d="M45.48552,98.7742A4.111,4.111,0,0,1,44.24837,100H42.13723a.288.288,0,0,1-.05105-.09079,3.34164,3.34164,0,0,1-.10783-1.64009,5.01,5.01,0,0,1,.17592-.86827c.04541-.14187.09079-.27807.14756-.4143.017-.03973.18725-.37454.18725-.40291a3.78014,3.78014,0,0,1,.94208,1.606A9.83352,9.83352,0,0,1,45.111,94.20012a10.78774,10.78774,0,0,1-.94208,5.26642A4.0732,4.0732,0,0,1,45.48552,98.7742Z"/><path class="cls-5" d="M31.49087,97.0206A16.18074,16.18074,0,0,1,30.05507,100h-1.0045a2.52923,2.52923,0,0,1-.33481-1.32794c.15321.2497.31212.49941.471.75479A4.92049,4.92049,0,0,1,31.49087,97.0206Z"/></svg>