<?xml version="1.0" encoding="UTF-8" standalone="no"?>
<!DOCTYPE svg PUBLIC "-//W3C//DTD SVG 1.1//EN" "http://www.w3.org/Graphics/SVG/1.1/DTD/svg11.dtd">
<svg width="100%" height="100%" viewBox="0 0 26 48" version="1.1" xmlns="http://www.w3.org/2000/svg" xmlns:xlink="http://www.w3.org/1999/xlink" xml:space="preserve" xmlns:serif="http://www.serif.com/" style="fill-rule:evenodd;clip-rule:evenodd;stroke-linejoin:round;stroke-miterlimit:2;">
    <g id="_1" serif:id="1" transform="matrix(0.942279,0,0,0.942279,-10.7831,3.55271e-15)">
        <g transform="matrix(6.2396,0,0,1,-94.8531,0)">
            <path d="M20.321,47.096C20.321,46.997 20.308,46.916 20.292,46.916L18.125,46.916C18.109,46.916 18.096,46.997 18.096,47.096L18.096,49.821C18.096,49.92 18.109,50 18.125,50L20.292,50C20.308,50 20.321,49.92 20.321,49.821L20.321,47.096Z" style="fill:#979797;"/>
        </g>
        <g transform="matrix(6.2396,0,0,0.67427,-94.8531,15.2821)">
            <rect x="18.096" y="46.916" width="2.225" height="3.084" style="fill:#838383;"/>
        </g>
        <path d="M37.923,42.319L12.077,42.319C11.839,42.319 11.622,42.186 11.514,41.975C11.405,41.764 11.424,41.51 11.562,41.317L17.686,32.777C17.805,32.611 17.996,32.512 18.2,32.512C18.404,32.512 31.596,32.512 31.8,32.512C32.004,32.512 32.195,32.611 32.314,32.777L38.438,41.317C38.576,41.51 38.595,41.764 38.486,41.975C38.378,42.186 38.161,42.319 37.923,42.319Z" style="fill:#2a53a1;"/>
        <path d="M15.152,36.31L17.686,32.777C17.805,32.611 17.996,32.512 18.2,32.512C18.404,32.512 31.596,32.512 31.8,32.512C32.004,32.512 32.195,32.611 32.314,32.777L34.848,36.31L34.657,42.319L15.343,42.319L15.152,36.31Z" style="fill:#123682;"/>
        <path d="M17.512,48.426C17.241,48.426 17.019,48.21 17.012,47.939L16.372,22.886C16.369,22.751 16.42,22.621 16.514,22.524C16.608,22.428 16.737,22.373 16.872,22.373L33.128,22.373C33.263,22.373 33.392,22.428 33.486,22.524C33.58,22.621 33.631,22.751 33.628,22.886L32.988,47.939C32.981,48.21 32.759,48.426 32.488,48.426L17.512,48.426Z" style="fill:#cbcbcb;"/>
        <path d="M17.43,24.213L17.437,24.342L18.934,24.342L19.549,48.426L17.512,48.426C17.241,48.426 17.019,48.21 17.012,47.939L16.41,24.341L14.992,24.342L14.985,24.213L17.43,24.213ZM35.015,24.213L35.008,24.342L33.59,24.341L32.988,47.939C32.981,48.21 32.759,48.426 32.488,48.426L30.451,48.426L31.066,24.342L32.563,24.342L32.57,24.213L35.015,24.213Z" style="fill:#b7b7b7;"/>
        <path d="M33.106,43.309L32.988,47.939C32.981,48.21 32.759,48.426 32.488,48.426L17.512,48.426C17.241,48.426 17.019,48.21 17.012,47.939L16.894,43.309L33.106,43.309Z" style="fill:#5b85da;"/>
        <path d="M19.549,48.426L17.512,48.426C17.241,48.426 17.019,48.21 17.012,47.939L16.894,43.309L19.419,43.309L19.549,48.426ZM33.106,43.309L32.988,47.939C32.981,48.206 32.766,48.419 32.501,48.426L32.488,48.426L30.451,48.426L30.581,43.309L33.106,43.309Z" style="fill:#3964ca;"/>
        <path d="M16.634,33.146L16.372,22.886C16.369,22.751 16.42,22.621 16.514,22.524C16.608,22.428 16.737,22.373 16.872,22.373L33.128,22.373C33.263,22.373 33.392,22.428 33.486,22.524C33.58,22.621 33.631,22.751 33.628,22.886L33.366,33.146L16.634,33.146Z" style="fill:#8daedd;"/>
        <path d="M16.634,33.146L16.372,22.886C16.369,22.751 16.42,22.621 16.514,22.524C16.608,22.428 16.737,22.373 16.872,22.373L33.128,22.373C33.263,22.373 33.392,22.428 33.486,22.524C33.58,22.621 33.631,22.751 33.628,22.886L33.366,33.146L30.841,33.146L31.035,25.551L18.965,25.551L19.159,33.146L16.634,33.146Z" style="fill:#6c93ce;"/>
        <path d="M14.992,24.342C14.851,21.858 14.672,19.415 14.701,16.767C14.793,8.322 19.262,2.927 25,-0L25.067,0.034C30.773,2.969 35.208,8.355 35.299,16.767C35.328,19.415 35.149,21.858 35.008,24.342L25,24.339L14.992,24.342Z" style="fill:#5b85da;"/>
        <path d="M17.437,24.342L14.992,24.342C14.851,21.858 14.672,19.415 14.701,16.767C14.79,8.588 18.984,3.27 24.462,0.284L24.574,0.224C24.715,0.147 24.857,0.073 25,-0L25.067,0.034C30.773,2.969 35.208,8.355 35.299,16.767C35.328,19.415 35.149,21.858 35.008,24.342L32.563,24.342C32.656,22.709 32.795,18.535 32.776,16.794C32.702,10.044 29.412,5.536 25,2.886C20.588,5.536 17.298,10.044 17.224,16.794C17.205,18.535 17.344,22.709 17.437,24.342Z" style="fill:#3964ca;"/>
    </g>
</svg>
