<?xml version="1.0" encoding="UTF-8" standalone="no"?>
<!DOCTYPE svg PUBLIC "-//W3C//DTD SVG 1.1//EN" "http://www.w3.org/Graphics/SVG/1.1/DTD/svg11.dtd">
<svg width="100%" height="100%" viewBox="0 0 47 50" version="1.1" xmlns="http://www.w3.org/2000/svg" xmlns:xlink="http://www.w3.org/1999/xlink" xml:space="preserve" xmlns:serif="http://www.serif.com/" style="fill-rule:evenodd;clip-rule:evenodd;stroke-linejoin:round;stroke-miterlimit:2;">
    <g id="_3" serif:id="3" transform="matrix(1,0,0,1,-1.94078,0.027533)">
        <g transform="matrix(1.31736,0,0,1.48217,-7.93395,-24.1358)">
            <g transform="matrix(7.1853,0,0,1.21711,-113.018,-10.8557)">
                <path d="M20.321,47.659C20.321,47.249 20.257,46.916 20.179,46.916L18.238,46.916C18.159,46.916 18.096,47.249 18.096,47.659L18.096,49.258C18.096,49.667 18.159,50 18.238,50L20.179,50C20.257,50 20.321,49.667 20.321,49.258L20.321,47.659Z" style="fill:#979797;"/>
            </g>
            <g transform="matrix(7.1853,0,0,0.551177,-113.018,20.3877)">
                <rect x="18.096" y="46.916" width="2.225" height="3.084" style="fill:#838383;"/>
            </g>
        </g>
        <g>
            <g transform="matrix(1.10296,0,0,1.10296,-2.57394,-4.24241)">
                <g transform="matrix(0.906653,0,0,0.906653,2.33367,3.8464)">
                    <path d="M25,26.605C25,26.38 25.183,26.197 25.409,26.197L37.339,26.197C37.707,26.197 38.052,26.366 38.277,26.654L38.275,26.652L47.724,36.108C47.931,36.319 48.059,36.607 48.059,36.926C48.059,36.926 48.059,40.004 48.059,40.004C48.059,40.648 47.536,41.171 46.892,41.171L25.409,41.171C25.183,41.171 25,40.988 25,40.762L25,32.359L25,40.762C25,40.988 24.817,41.171 24.591,41.171L3.108,41.171C2.464,41.171 1.941,40.648 1.941,40.004C1.941,40.004 1.941,36.926 1.941,36.926C1.941,36.607 2.069,36.319 2.276,36.108L11.725,26.652L11.723,26.654C11.948,26.366 12.293,26.197 12.661,26.197L24.591,26.197C24.817,26.197 25,26.38 25,26.605Z" style="fill:#7e56d3;"/>
                </g>
                <g transform="matrix(0.906653,0,0,0.906653,2.33367,3.8464)">
                    <path d="M25,26.605C25,26.38 25.183,26.197 25.409,26.197L37.339,26.197C37.707,26.197 38.052,26.366 38.277,26.654L38.275,26.652L41.608,29.987L41.608,41.171L25.409,41.171C25.183,41.171 25,40.988 25,40.762L25,27.303L25,40.762C25,40.988 24.817,41.171 24.591,41.171L8.392,41.171L8.392,29.987L11.725,26.652L11.723,26.654C11.948,26.366 12.293,26.197 12.661,26.197L24.591,26.197C24.817,26.197 25,26.38 25,26.605Z" style="fill:#5c3ac0;"/>
                </g>
            </g>
        </g>
        <g>
            <g>
                <path d="M14.246,45.423C11.944,45.423 10.074,43.554 10.074,41.251L10.074,17.232L39.926,17.232L39.926,41.251C39.926,43.554 38.056,45.423 35.754,45.423L14.246,45.423Z" style="fill:#cbcbcb;"/>
                <path d="M37.126,17.232L39.926,17.232L39.926,41.251C39.926,43.545 38.071,45.409 35.781,45.423L35.754,45.423C36.511,45.423 37.126,44.809 37.126,44.051L37.126,17.232ZM12.874,17.232L12.874,44.051C12.874,44.809 13.489,45.423 14.246,45.423L14.219,45.423C11.929,45.409 10.074,43.545 10.074,41.251L10.074,17.232L12.874,17.232ZM37.126,17.232L37.126,17.232L37.126,17.232Z" style="fill:#b7b7b7;"/>
            </g>
            <g>
                <path d="M39.917,41.519C39.779,43.697 37.966,45.423 35.754,45.423L14.246,45.423C12.034,45.423 10.221,43.697 10.083,41.519L39.917,41.519ZM39.926,27.553L10.074,27.553L10.074,17.232L39.926,17.232L39.926,27.553Z" style="fill:#ad8eee;"/>
                <path d="M39.917,41.519C39.78,43.688 37.981,45.409 35.781,45.423L35.754,45.423C36.511,45.423 37.126,44.809 37.126,44.051L37.126,41.519L39.917,41.519ZM12.874,41.519L12.874,44.051C12.874,44.809 13.489,45.423 14.246,45.423L14.219,45.423C12.019,45.409 10.22,43.688 10.083,41.519L12.874,41.519ZM12.874,27.553L10.074,27.553L10.074,17.232L12.874,17.232L12.874,27.553ZM39.926,27.553L37.126,27.553L37.126,17.232L39.926,17.232L39.926,27.553Z" style="fill:#916ee5;"/>
            </g>
        </g>
        <g>
            <path d="M10.074,17.232L10.077,17.047C10.077,7.648 17.652,1.365 24.923,0.025L25,-0L25.077,0.025C32.348,1.365 39.923,7.648 39.923,17.047L39.926,17.232L10.074,17.232Z" style="fill:#7e56d3;"/>
            <path d="M24.938,2.879C19.676,4.033 14.312,8.186 13.122,14.432C12.95,15.336 12.872,16.319 12.922,17.232L10.074,17.232L10.077,17.047C10.077,7.648 17.652,1.365 24.923,0.025L25,-0L25.077,0.025C32.348,1.365 39.923,7.648 39.923,17.047L39.926,17.232L37.078,17.232C37.128,16.319 37.05,15.336 36.878,14.432C35.683,8.162 30.282,4.001 25,2.865L24.938,2.879Z" style="fill:#5c3ac0;"/>
        </g>
    </g>
</svg>
