<?xml version="1.0" encoding="UTF-8" standalone="no"?>
<!DOCTYPE svg PUBLIC "-//W3C//DTD SVG 1.1//EN" "http://www.w3.org/Graphics/SVG/1.1/DTD/svg11.dtd">
<svg width="100%" height="100%" viewBox="0 0 37 50" version="1.1" xmlns="http://www.w3.org/2000/svg" xmlns:xlink="http://www.w3.org/1999/xlink" xml:space="preserve" xmlns:serif="http://www.serif.com/" style="fill-rule:evenodd;clip-rule:evenodd;stroke-linejoin:round;stroke-miterlimit:2;">
    <g id="_2" serif:id="2" transform="matrix(1,0,0,1,-6.67121,3.55271e-15)">
        <g transform="matrix(1.31736,0,0,1.48217,-7.93395,-24.1358)">
            <g transform="matrix(6.2396,0,0,1,-94.8531,0)">
                <path d="M20.321,47.294C20.321,47.085 20.29,46.916 20.253,46.916L18.164,46.916C18.127,46.916 18.096,47.085 18.096,47.294L18.096,49.623C18.096,49.831 18.127,50 18.164,50L20.253,50C20.29,50 20.321,49.831 20.321,49.623L20.321,47.294Z" style="fill:#979797;"/>
            </g>
            <g transform="matrix(6.2396,0,0,0.415949,-94.8531,27.4016)">
                <rect x="18.096" y="46.916" width="2.225" height="3.084" style="fill:#838383;"/>
            </g>
        </g>
        <g>
            <path d="M14.483,28.803C14.602,28.642 14.791,28.546 14.992,28.546L25,28.546L25,41.205L7.244,41.205C6.904,41.205 6.629,40.93 6.629,40.59L6.629,36.917C6.629,36.749 6.696,36.597 6.805,36.486L14.483,28.803ZM35.517,28.803C35.398,28.642 35.209,28.546 35.008,28.546L25,28.546L25,41.205L42.756,41.205C43.096,41.205 43.371,40.93 43.371,40.59L43.371,36.917C43.371,36.749 43.304,36.597 43.195,36.486L35.517,28.803Z" style="fill:#2a53a1;"/>
            <path d="M13.18,30.106L14.483,28.803C14.602,28.642 14.791,28.546 14.992,28.546L25,28.546L25,41.205L13.431,41.205L13.18,30.106ZM36.82,30.106L35.517,28.803C35.398,28.642 35.209,28.546 35.008,28.546L25,28.546L25,41.205L36.569,41.205L36.82,30.106Z" style="fill:#123682;"/>
        </g>
        <g>
            <g>
                <path d="M15.414,46.575C15.143,46.575 14.921,46.359 14.914,46.088L14.275,20.214C14.271,20.079 14.322,19.948 14.416,19.852C14.511,19.755 14.64,19.701 14.775,19.701L35.225,19.701C35.36,19.701 35.489,19.755 35.584,19.852C35.678,19.948 35.729,20.079 35.725,20.214L35.086,46.088C35.079,46.359 34.857,46.575 34.586,46.575L15.414,46.575Z" style="fill:#cbcbcb;"/>
                <path d="M35.688,21.669L33.164,21.67L32.549,46.575L34.586,46.575C34.857,46.575 35.079,46.359 35.086,46.088L35.688,21.669ZM14.312,21.669L16.836,21.67L17.451,46.575L15.414,46.575C15.143,46.575 14.921,46.359 14.914,46.088L14.312,21.669Z" style="fill:#b7b7b7;"/>
            </g>
            <g>
                <path d="M15.414,46.575C15.143,46.575 14.921,46.359 14.914,46.088L14.796,41.458L35.204,41.458L35.086,46.088C35.079,46.359 34.857,46.575 34.586,46.575L15.414,46.575Z" style="fill:#ad8eee;"/>
                <path d="M17.451,46.575L15.414,46.575C15.143,46.575 14.921,46.359 14.914,46.088L14.796,41.458L17.321,41.458L17.451,46.575ZM32.549,46.575L34.586,46.575C34.857,46.575 35.079,46.359 35.086,46.088L35.204,41.458L32.679,41.458L32.549,46.575Z" style="fill:#916ee5;"/>
            </g>
            <g>
                <path d="M14.537,31.295L14.275,20.214C14.271,20.079 14.322,19.948 14.416,19.852C14.511,19.755 14.64,19.701 14.775,19.701L35.225,19.701C35.36,19.701 35.489,19.755 35.584,19.852C35.678,19.948 35.729,20.079 35.725,20.214L35.463,31.295L14.537,31.295Z" style="fill:#ad8eee;"/>
                <path d="M16.867,22.879L17.061,31.295L14.537,31.295L14.343,22.879L14.275,20.214C14.271,20.079 14.322,19.948 14.416,19.852C14.511,19.755 14.64,19.701 14.775,19.701L35.225,19.701C35.36,19.701 35.489,19.755 35.584,19.852C35.678,19.948 35.729,20.079 35.725,20.214L35.657,22.879L35.463,31.295L32.939,31.295L33.133,22.879L16.867,22.879Z" style="fill:#916ee5;"/>
            </g>
        </g>
        <g>
            <path d="M25.077,0.025C31.598,2.168 37.263,9.249 37.263,15.309C37.263,16.787 37.214,17.756 37.073,20.239L25,20.237L12.927,20.239C12.786,17.756 12.737,16.787 12.737,15.309C12.737,9.226 18.447,2.112 25,-0L25.077,0.025Z" style="fill:#5b85da;"/>
            <path d="M25,-0L25.077,0.025C31.598,2.168 37.263,9.249 37.263,15.309C37.263,16.787 37.214,17.756 37.073,20.239L34.377,20.239L34.512,17.539C34.548,16.729 34.563,16.093 34.563,15.309C34.563,10.469 30.146,4.934 25,2.87L25,2.87C19.854,4.934 15.437,10.469 15.437,15.309C15.437,16.093 15.452,16.729 15.488,17.539L15.623,20.239L12.927,20.239C12.786,17.756 12.737,16.787 12.737,15.309C12.737,9.249 18.402,2.168 24.923,0.025L25,-0Z" style="fill:#3964ca;"/>
        </g>
    </g>
</svg>
