<?xml version="1.0" encoding="UTF-8" standalone="no"?>
<svg
   xmlns:dc="http://purl.org/dc/elements/1.1/"
   xmlns:cc="http://creativecommons.org/ns#"
   xmlns:rdf="http://www.w3.org/1999/02/22-rdf-syntax-ns#"
   xmlns:svg="http://www.w3.org/2000/svg"
   xmlns="http://www.w3.org/2000/svg"
   height="71.203491"
   width="100"
   id="svg827"
   version="1.1"
   viewBox="0 0 99.999998 71.203493"
   data-name="Layer 1">
  <metadata
     id="metadata833">
    <rdf:RDF>
      <cc:Work
         rdf:about="">
        <dc:format>image/svg+xml</dc:format>
        <dc:type
           rdf:resource="http://purl.org/dc/dcmitype/StillImage" />
        <dc:title></dc:title>
      </cc:Work>
    </rdf:RDF>
  </metadata>
  <defs
     id="defs831" />
  <path
     style="stroke-width:0.34774125;fill:#3a3a3a;fill-opacity:1"
     id="path825"
     d="m 11.092945,47.88744 h 3.578257 v 11.43721 c 0,4.52064 -3.195742,7.36516 -7.3477717,7.36516 C 3.1713999,66.68981 0,63.83485 0,59.32465 V 47.88744 H 3.5782573 V 59.3629 c 0,2.40984 1.6169966,3.82515 3.745173,3.82515 2.1281762,0 3.7695147,-1.42573 3.7695147,-3.82515 z m 12.769057,5.28914 c -1.390964,0 -2.903638,0.59812 -3.682578,1.91954 V 53.51389 H 16.834153 V 66.276 h 3.449593 v -7.34082 c 0,-1.4779 0.883263,-2.64632 2.385504,-2.64632 1.662203,0 2.361163,1.11626 2.361163,2.542 V 66.276 h 3.449593 v -8.03978 c 0,-2.8028 -1.453558,-5.05964 -4.618004,-5.05964 z m 12.650827,5.36912 -1.89519,-0.38946 c -0.719825,-0.14606 -1.16841,-0.51814 -1.16841,-1.14059 0,-0.72679 0.650276,-1.26925 1.55788,-1.26925 1.272733,0 1.776958,0.65722 1.902145,1.42573 h 2.973187 c -0.02435,-1.73871 -1.41183,-4.04423 -4.823171,-4.04423 -2.750633,0 -4.774486,1.89171 -4.774486,4.1729 0,1.79086 1.116249,3.26876 3.581734,3.82514 l 1.763048,0.38948 c 0.987585,0.20864 1.390965,0.67462 1.390965,1.24491 0,0.67463 -0.625934,1.27273 -1.766525,1.27273 -1.390965,0 -2.1247,-0.78241 -2.298571,-1.69001 h -3.074031 c 0.170393,1.90561 1.554403,4.33285 5.389989,4.33285 3.34527,0 5.035293,-2.1247 5.035293,-4.20072 0,-1.88128 -1.272733,-3.41133 -3.793857,-3.92948 z m 18.461582,1.3249 c 0,3.86341 -2.409848,6.71489 -6.015924,6.71489 -1.763048,0 -3.060122,-0.69548 -3.68258,-1.55441 v 6.17241 H 41.83327 v -17.6896 h 3.345271 v 1.58223 c 0.570294,-0.98411 1.999512,-1.86738 3.915565,-1.86738 3.734741,0 5.88726,2.85496 5.88726,6.64186 z m -3.397432,0.0244 c 0,-2.25684 -1.390965,-3.57826 -3.160968,-3.57826 -1.770002,0 -3.192265,1.32142 -3.192265,3.57826 0,2.25684 1.42574,3.60608 3.192265,3.60608 1.766526,0 3.167923,-1.3249 3.167923,-3.60608 z m 19.866456,-6.38106 h 3.34527 v 12.76211 h -3.449593 v -1.5544 c -0.587682,1.02584 -1.916053,1.86389 -3.682578,1.86389 -3.6026,0 -6.015924,-2.85148 -6.015924,-6.71489 0,-3.78689 2.152518,-6.64185 5.887258,-6.64185 1.919532,0 3.30702,0.89021 3.915567,1.86737 z m -0.05216,6.38106 c 0,-2.25684 -1.425739,-3.57826 -3.188787,-3.57826 -1.763048,0 -3.164445,1.32142 -3.164445,3.57826 0,2.25684 1.390965,3.60608 3.164445,3.60608 1.77348,0 3.195742,-1.34924 3.195742,-3.60608 z m -14.806821,6.38105 h 3.449593 V 47.88744 H 56.584452 Z M 95.281097,53.18012 c -1.220572,0 -2.618491,0.41033 -3.449593,1.39096 v -6.68359 h -3.449592 v 18.3816 h 3.421773 v -7.50077 c 0.07651,-1.39096 0.935424,-2.48983 2.385505,-2.48983 1.662203,0 2.361163,1.11972 2.361163,2.54547 v 7.44166 h 3.449593 v -8.03978 c 0.0104,-2.78888 -1.49181,-5.04572 -4.718849,-5.04572 z m -12.275265,5.36564 -1.898667,-0.38947 c -0.719825,-0.14605 -1.164933,-0.51813 -1.164933,-1.14059 0,-0.72678 0.650276,-1.26925 1.55788,-1.26925 1.272733,0 1.776959,0.65723 1.898668,1.42573 h 2.976664 c -0.02435,-1.7387 -1.411829,-4.04422 -4.826648,-4.04422 -2.747156,0 -4.771009,1.8917 -4.771009,4.17289 0,1.79087 1.116249,3.26876 3.578257,3.82515 l 1.766525,0.38948 c 0.984108,0.20864 1.390966,0.67461 1.390966,1.2449 0,0.67463 -0.622458,1.27274 -1.766526,1.27274 -1.390965,0 -2.121222,-0.78242 -2.29857,-1.69002 h -3.084464 c 0.170393,1.90562 1.554402,4.33286 5.393466,4.33286 3.345271,0 5.031815,-2.12471 5.031815,-4.20072 0,-1.88128 -1.269255,-3.41134 -3.783424,-3.92948 z M 71.5721,18.13476 H 58.656991 V 29.55805 H 43.488518 V 18.13476 H 30.573409 v 22.85702 h 40.99869 z M 58.65699,0 H 43.488518 V 11.43025 H 58.65699 Z" />
</svg>
