<?xml version="1.0" encoding="UTF-8" standalone="no"?>
<!-- Created with Inkscape (http://www.inkscape.org/) -->

<svg
   width="50"
   height="50"
   viewBox="0 0 13.229166 13.229167"
   version="1.1"
   id="svg14964"
   sodipodi:docname="islandnumber2.svg"
   inkscape:version="1.2 (dc2aedaf03, 2022-05-15)"
   xml:space="preserve"
   xmlns:inkscape="http://www.inkscape.org/namespaces/inkscape"
   xmlns:sodipodi="http://sodipodi.sourceforge.net/DTD/sodipodi-0.dtd"
   xmlns="http://www.w3.org/2000/svg"
   xmlns:svg="http://www.w3.org/2000/svg"><sodipodi:namedview
     id="namedview7"
     pagecolor="#505050"
     bordercolor="#ffffff"
     borderopacity="1"
     inkscape:showpageshadow="0"
     inkscape:pageopacity="0"
     inkscape:pagecheckerboard="1"
     inkscape:deskcolor="#505050"
     showgrid="false"
     inkscape:zoom="6.433039"
     inkscape:cx="1.1658564"
     inkscape:cy="31.4004"
     inkscape:window-width="1366"
     inkscape:window-height="705"
     inkscape:window-x="-8"
     inkscape:window-y="-8"
     inkscape:window-maximized="1"
     inkscape:current-layer="g3978" /><defs
     id="defs14961"><inkscape:path-effect
       effect="mirror_symmetry"
       start_point="0,34.395833"
       end_point="68.791667,34.395833"
       center_point="34.395833,34.395833"
       id="path-effect2644"
       is_visible="true"
       lpeversion="1.2"
       lpesatellites=""
       mode="horizontal"
       discard_orig_path="false"
       fuse_paths="false"
       oposite_fuse="false"
       split_items="true"
       split_open="false"
       link_styles="false" /><inkscape:path-effect
       effect="mirror_symmetry"
       start_point="0,34.395833"
       end_point="68.791667,34.395833"
       center_point="34.395833,34.395833"
       id="path-effect2638"
       is_visible="true"
       lpeversion="1.2"
       lpesatellites=""
       mode="horizontal"
       discard_orig_path="false"
       fuse_paths="false"
       oposite_fuse="false"
       split_items="true"
       split_open="false"
       link_styles="false" /><inkscape:path-effect
       effect="mirror_symmetry"
       start_point="34.395833,0"
       end_point="34.395833,68.791667"
       center_point="34.395833,34.395833"
       id="path-effect2483"
       is_visible="true"
       lpeversion="1.2"
       lpesatellites=""
       mode="vertical"
       discard_orig_path="false"
       fuse_paths="false"
       oposite_fuse="false"
       split_items="true"
       split_open="false"
       link_styles="false" /><inkscape:path-effect
       effect="mirror_symmetry"
       start_point="34.395833,0"
       end_point="34.395833,68.791667"
       center_point="34.395833,34.395833"
       id="path-effect2454"
       is_visible="true"
       lpeversion="1.2"
       lpesatellites=""
       mode="vertical"
       discard_orig_path="false"
       fuse_paths="false"
       oposite_fuse="false"
       split_items="true"
       split_open="false"
       link_styles="false" /><inkscape:path-effect
       effect="mirror_symmetry"
       start_point="149.91687,169.05089"
       end_point="149.91687,237.84256"
       center_point="149.91687,203.44672"
       id="path-effect1787"
       is_visible="true"
       lpeversion="1.2"
       lpesatellites=""
       mode="vertical"
       discard_orig_path="false"
       fuse_paths="false"
       oposite_fuse="false"
       split_items="true"
       split_open="false"
       link_styles="false" /></defs><path
     id="rect1729"
     style="display:none;fill:#391d0c;fill-opacity:1;stroke-width:1.29482;stroke-linejoin:round;stop-color:#000000"
     class="UnoptimicedTransforms"
     d="m 149.91687,172.37523 -2.84582,12.06594 c 0.79124,-0.38026 1.66988,-0.60472 2.59519,-0.62839 v 0.006 l 0.006,-0.006 c 0.0112,-2.2e-4 0.0136,1.1e-4 0.0238,0 0.0584,-6.6e-4 0.10797,0 0.13487,0 0.0398,0 0.0792,0.002 0.11886,0.003 l 0.1142,-2.05982 0.44184,2.09289 c 0.81478,0.0866 1.58485,0.32898 2.28151,0.69505 z m -2.45101,7.06314 c -11.35167,1.14975 -20.39882,10.19265 -21.55527,21.54235 l 2.81274,-0.71416 c 1.3799,-9.30479 8.72148,-16.64297 18.02836,-18.01648 z m 4.9413,0.004 0.71365,2.81327 c 9.28581,1.38702 16.60813,8.71367 17.9896,18.00148 l 2.81223,0.71366 C 172.7632,189.63829 163.73797,180.60764 152.40716,179.4425 Z m -11.74088,18.14722 -21.40852,5.857 21.40852,5.85701 z m 18.50119,0 v 11.71401 l 21.40851,-5.85701 z m -21.53047,2.42362 v 3.63544 l -8.88679,-0.95963 z m 24.55974,0 8.8868,2.67581 -8.8868,0.95963 z m -36.28667,5.89887 c 1.15551,11.35048 10.20342,20.39328 21.55579,21.54287 l -0.71417,-2.81223 c -9.3076,-1.37335 -16.64979,-8.71093 -18.02887,-18.01648 z m 48.01309,0.01 -2.81275,0.71417 c -1.38068,9.28853 -8.70309,16.61462 -17.9896,18.00149 l -0.71365,2.81378 c 11.33168,-1.16503 20.35768,-10.1958 21.516,-21.52944 z m -20.74809,14.77895 -2.55591,2.1084 c -0.32827,0.26677 -0.77395,0.33934 -1.16996,0.19068 l -0.11834,2.13837 -0.54777,-2.59364 -2.09858,-1.73167 3.23236,13.7051 z"
     transform="translate(-115.52104,-169.05089)" /><g
     id="g3978"
     transform="matrix(0.20252384,0,0,0.20252384,-0.35139305,-0.35139289)"
     style="fill:#00366d;fill-opacity:1"><path
       id="path2445"
       style="color:#000000;fill:#00366d;fill-opacity:1;stroke-width:1.87404;stroke-linejoin:round"
       d="m 36.972937,12.06438 1.062984,4.504118 c 6.13057,1.240738 11.130833,5.553163 13.334587,11.269079 l 4.959387,1.62264 C 54.258519,20.245683 46.516678,13.157344 36.972937,12.06438 Z m -5.179012,0.0026 c -9.531012,1.10334 -17.260347,8.187275 -19.330086,17.392737 l 4.95732,-1.622124 C 19.621999,22.12957 24.611962,17.82157 30.731458,16.574182 Z M 12.461772,39.33145 c 2.069281,9.206644 9.800688,16.291752 19.33267,17.394804 l -1.063501,-4.509803 c -6.11925,-1.247349 -11.10907,-5.55442 -13.309782,-11.261845 z m 43.86864,0 -4.959904,1.623673 C 49.166743,46.6704 44.166421,50.981668 38.035921,52.222136 l -1.062984,4.506701 C 46.517318,55.635963 54.259708,48.546736 56.330412,39.33145 Z" /><path
       id="path2425"
       style="fill:#00366d;fill-opacity:1;stroke:none;stroke-width:0.748374;stroke-linejoin:round;stroke-dasharray:none;stroke-opacity:1;stop-color:#000000"
       class="UnoptimicedTransforms"
       d="M 19.711458,28.538827 1.8195272,34.395833 19.711458,40.25284 Z m 29.368751,0 V 40.25284 L 66.97214,34.395833 Z M 17.17983,30.962451 v 3.635437 L 9.7523763,33.638257 Z m 34.432007,0 7.427454,2.675806 -7.427454,0.959631 z" /><path
       id="path1793"
       style="fill:#00366d;fill-opacity:1;stroke:none;stroke-width:0.818621;stroke-linejoin:round;stroke-dasharray:none;stroke-opacity:1;stop-color:#000000"
       class="UnoptimicedTransforms"
       d="M 34.383431,8.1731446 31.53761,20.239075 c 0.791239,-0.38026 1.669881,-0.604716 2.59519,-0.628386 v 0.0062 l 0.0062,-0.0062 c 0.0112,-2.2e-4 0.01357,1.1e-4 0.02377,0 0.0584,-6.6e-4 0.107975,0 0.134875,0 0.0398,0 0.0792,0.0021 0.118856,0.0031 l 0.114205,-2.059823 0.441833,2.092896 c 0.81478,0.0866 1.584856,0.328978 2.281515,0.695048 z m 2.870626,40.2766114 c -0.696659,0.36607 -1.466735,0.608448 -2.281515,0.695048 L 34.530709,51.2377 34.416504,49.177877 c -0.03966,10e-4 -0.07906,0.0031 -0.118856,0.0031 -0.0269,0 -0.07648,6.6e-4 -0.134875,0 -0.0102,-1.1e-4 -0.01257,2.2e-4 -0.02377,0 l -0.0062,-0.0062 v 0.0062 c -0.925309,-0.02367 -1.803951,-0.248126 -2.59519,-0.628386 l 2.845821,12.06593 z" /><path
       id="path1314"
       style="font-weight:bold;font-size:27.5473px;font-family:Cambria;-inkscape-font-specification:'Cambria Bold';text-align:center;text-anchor:middle;stroke-width:3.19618;stroke-linejoin:round"
       d="M 26.049478 25.610598 L 26.049478 26.498562 C 26.390231 26.588234 26.654721 26.686945 26.843032 26.79455 C 27.04031 26.902157 27.184584 27.050222 27.274256 27.238533 C 27.372896 27.417876 27.429833 27.646935 27.447766 27.924919 C 27.474666 28.202902 27.488592 28.555968 27.488592 28.986394 L 27.488592 40.593723 C 27.488592 41.024149 27.474666 41.383557 27.447766 41.670508 C 27.420866 41.94849 27.357586 42.181341 27.258946 42.369652 C 27.169275 42.548997 27.027552 42.69327 26.830274 42.800876 C 26.641963 42.899515 26.381264 42.994434 26.049478 43.084106 L 26.049478 43.972071 L 33.112368 43.972071 L 33.112368 43.084106 C 32.852319 43.021336 32.630841 42.947924 32.451498 42.867218 C 32.272154 42.777546 32.130432 42.675046 32.022825 42.558472 C 31.924182 42.441898 31.846979 42.297625 31.793179 42.127248 C 31.739374 41.956871 31.703944 41.737946 31.686011 41.468929 C 31.668078 41.199914 31.657943 40.907575 31.657943 40.593723 L 31.657943 28.999152 C 31.657943 28.496988 31.67566 28.116074 31.711527 27.856025 C 31.747396 27.595975 31.810675 27.387183 31.900347 27.225775 C 31.990019 27.064365 32.120368 26.927673 32.290745 26.820067 C 32.47009 26.703493 32.744712 26.597201 33.112368 26.498562 L 33.112368 25.610598 L 26.049478 25.610598 z M 35.6793 25.610598 L 35.6793 26.498562 C 36.020052 26.588234 36.284542 26.686945 36.472854 26.79455 C 36.670132 26.902157 36.814406 27.050222 36.904078 27.238533 C 37.002719 27.417876 37.062207 27.646935 37.08014 27.924919 C 37.10704 28.202902 37.118414 28.555968 37.118414 28.986394 L 37.118414 40.593723 C 37.118414 41.024149 37.10704 41.383557 37.08014 41.670508 C 37.053238 41.94849 36.989959 42.181341 36.89132 42.369652 C 36.801648 42.548997 36.657374 42.69327 36.460096 42.800876 C 36.271784 42.899515 36.011085 42.994434 35.6793 43.084106 L 35.6793 43.972071 L 42.74219 43.972071 L 42.74219 43.084106 C 42.482141 43.021336 42.263215 42.947924 42.083871 42.867218 C 41.904527 42.777546 41.760254 42.675046 41.652647 42.558472 C 41.554011 42.441898 41.476808 42.297625 41.423001 42.127248 C 41.369196 41.956871 41.333766 41.737946 41.315833 41.468929 C 41.2979 41.199914 41.290317 40.907575 41.290317 40.593723 L 41.290317 28.999152 C 41.290317 28.496988 41.308034 28.116074 41.343901 27.856025 C 41.379769 27.595975 41.443048 27.387183 41.532721 27.225775 C 41.622393 27.064365 41.75019 26.927673 41.920567 26.820067 C 42.099911 26.703493 42.374534 26.597201 42.74219 26.498562 L 42.74219 25.610598 L 35.6793 25.610598 z " /></g></svg>
