<svg id="Layer_1" data-name="Layer 1" xmlns="http://www.w3.org/2000/svg" viewBox="0 0 1919.99988 1079.99994"><defs><style>.cls-1{fill:#45a1c3;}.cls-2{fill:#57adcb;}.cls-3{fill:#6db9d3;}.cls-4{fill:#84c6db;}.cls-5{fill:#98d2e2;}</style></defs><rect class="cls-1" width="1919.99988" height="1079.99994"/><path class="cls-2" d="M1919.99988,0H0V960.24005c27.96,16.88,62.96985,29.2,107.42993,34.72,3.62988.48,7.28.85,10.92993,1.13H119.71a202.35248,202.35248,0,0,0,72.72-8.32007C257.98987,967.58,312.85986,923.07,373.5199,891.01c22.7-11.98,47.39-22.49,73.01989-21.36987,21.86011.91992,42.13013,10.06994,62.59009,17.48,121.56006,43.7,264.4,22.46,368.02-54.48,14.33,31.31994,60.73,28.1,91.27,12.16992,30.54993-15.91992,61.18994-40.15991,95.14-34.5,48.41,8.09009,69.45,70.95,115.82,86.68994,22.94,7.75,48.07,2.55,72.11,4,44.66,2.70007,84.39,27.86011,122.04,52.02,37.65,24.17,77.83,48.84009,122.54,50.39014,44.71,1.54992,86.31-33.12012,86.31-33.12012,60.71-42.07,97.18-115.07,99.19-188.54,42.08-19.21,105.87-31.2699,177,14.34009,20.78,13.30005,41.56,20.95,61.43,23.77Z"/><path class="cls-3" d="M1919.99988,0H0V645.12006A222.86024,222.86024,0,0,0,24.25989,663.26c45.09,29.17,102.38,40.19006,152.55993,22.71008,47.58008-16.59,86.61011-56.91,136.24-64.69006,53.94007-8.45,105.05005,23.28,156.52,42.57007,51.47,19.3,120.34009,20.32006,148.03-28.54,15.48,20.6101,44.47,28.87,67.87,19.47-4.09,20.18,11.42,40.61011,30.37,46.6001s39.67005.40991,57.26-9.05005c42.62-22.79,71.23-65.65,106.5-99.38,35.28-33.73,87.03-59.4,130.32007-37.80993,37.34,18.67993,60.75995,69.06994,102.16992,68.96,35.87-.12,69.01-40.51,101.86005-25.37,17.34,7.94006,27.89,29.87,46.67,32.28992,15.74,2.02,29.51-10.77991,45.07-13.51,28.2-4.93994,50.59,22.34009,72.35,41.75,69,61.4801,187.31,45.03,239.88-30.88989.57.37988,1.12.80993,1.7,1.16992,17.61,11.86011,37.62,20.18,58.91,21.99,19.41,1.64013,40.15-1.99,56.45-13.1,35.97-24.46,36.7-70.99,30.37-110.01989,33.32,2.07995,65.73-9.39014,96.15-21.89008,19.66-8.09,39.58-16.92,58.49-27.39Z"/><path class="cls-4" d="M1919.99988,0H0V538.15009a144.67415,144.67415,0,0,0,25.21985,6.25C98.7,555.93,136.95,529.51,167.2,494.41c26.32,8.41,55.52991-2.32,76.22-20.46,20.67993-18.15,34.49-42.67,47.86987-66.72,24.27-40.42,75.57007-62.54,121.62012-52.5,7.5,1.64,15.05005,4.05,22.65991,3.11a52.619,52.619,0,0,0,15.27-5.23l105.45-48.75c-.62988,21.84,32.61011,24.95,51.76,14.56,19.15015-10.38,40.93006-26.58,60.16016-16.35,8.40991,4.5,13.61987,13.12,20.38989,19.84,11.15,11.2,26.46,16.85,41.25,22.49l68.51,25.53,34.3,12.76c11.26,4.18,22.65991,8.41,34.6,9.75,33.51,3.71,64.64-15.43,94.56994-30.93,15.07007-7.78,32.21-14.96,48.49-10.26,8.94007,2.58,16.43006,8.5,25.93006,10.12,9.51,1.62,19.03-1.78,28.47-3.77a102.357,102.357,0,0,1,90.32,25.6c6.62,6.29,12.54,13.65,20.66,17.8,36.52,18.76,77.15-38.3,115.85-24.6,10.06,3.55,17.87,11.48,26.86,17.24,47.51,30.42,107.69-4.87,162.87006-16.28,10.19995-2.12,21.03-3.31,30.73.4,15.94,6.08,26.57,24.52,43.65,25.69,19.74,1.31,36.08-21.79,55.43-17.61,16.22,3.54,21.96,23,28.16,38.4a120.34286,120.34286,0,0,0,89.78,72.38c38.42,6.47,114.25-29.93,128.62-103.86,15.21,23.73,37.27,47.77,62.35,44.04Z"/><path class="cls-5" d="M1919.99988,165.87V0H0V225.68C32.7,262.36005,91.16992,274.95,136.95,251.48c60.41992,85.48,164.83984,32.47,185.43994,9.29,34.08,11.21,74.68994-1.57,96.07007-30.31a75.68573,75.68573,0,0,0,71.79993-10.3c10.30993-7.86,20.12-19.01,33-18.42,8.28991.41,15.45007,5.75,23.18,8.71,44.62988,16.69,94.77991-45.13,135.85986-21.43,15.45008,9.01,23.18006,27.92,38.32007,37.47,9.04,5.7,19.91,7.52,30.43994,9.25L851.7699,252.09c.94995,24.37,32.14,37.32,55.6,30.68,23.47-6.65,41.21-25.37,60.07007-40.72,18.84985-15.35,43.77991-28.33,66.96-20.84,6.26,2.04,12.05,5.52,18.47,6.98,8.88,2.06,18.15,0,27.17-1.31a259.27573,259.27573,0,0,1,132.82,13.6c26.01,9.91,53.26,24.31,80.12,17.07,34.1-9.16,61.38-51.51,94.47-39.2,14.63,5.41,24.27,20.76,39.38,24.7,13.6,3.56,27.48-3.11005,41.06-6.8,41.21-11.2,84.55,5.39,123.91,22.18,23.82,10.3,52.77,20.14,73.99,5.28,15.71,33.48,100.14,68.35,140.68,27.46,6.39-6.44,8.06006-21.64,6.08-42.84a308.77465,308.77465,0,0,0,32.58-2.24,165.4416,165.4416,0,0,0,36.85-8.65c10.56-3.92,21.9-8.86,28.64-18.31C1918.11987,208.65,1919.99988,208.88626,1919.99988,165.87Z"/></svg>