<?xml version="1.0" encoding="UTF-8"?>
<svg id="Layer_1" data-name="Layer 1" xmlns="http://www.w3.org/2000/svg" xmlns:xlink="http://www.w3.org/1999/xlink" viewBox="0 0 300 345">
  <defs>
    <style>
      .cls-1 {
        fill: #efbe22;
      }

      .cls-2 {
        fill: #ddb9a2;
      }

      .cls-3 {
        fill: #fff;
      }

      .cls-4 {
        fill: #965123;
      }

      .cls-5 {
        fill: #eef6ff;
      }

      .cls-6 {
        fill: #313033;
      }

      .cls-7 {
        stroke-linejoin: round;
      }

      .cls-7, .cls-8, .cls-9, .cls-10 {
        fill: none;
        stroke-linecap: round;
      }

      .cls-7, .cls-10 {
        stroke: #f47e1e;
        stroke-width: 5.95012px;
      }

      .cls-8 {
        stroke-width: 7.61611px;
      }

      .cls-8, .cls-9 {
        stroke: #403e42;
      }

      .cls-8, .cls-9, .cls-10 {
        stroke-miterlimit: 10;
      }

      .cls-9 {
        stroke-width: 7.89358px;
      }

      .cls-11, .cls-12 {
        fill: #343335;
      }

      .cls-13 {
        fill: #d9e5f4;
        opacity: .55;
      }

      .cls-14 {
        fill: #f99980;
      }

      .cls-15 {
        fill: #f2a700;
      }

      .cls-16 {
        fill: #540300;
      }

      .cls-17 {
        fill: #e5a43c;
      }

      .cls-18 {
        fill: #ddbca4;
      }

      .cls-19 {
        fill: #464449;
      }

      .cls-20 {
        fill: #e08600;
      }

      .cls-21 {
        fill: #30871e;
      }

      .cls-22 {
        fill: #b5c26b;
      }

      .cls-23, .cls-24 {
        fill: #7c371c;
      }

      .cls-25 {
        fill: #ea6f1c;
      }

      .cls-26 {
        fill: #63361f;
      }

      .cls-27 {
        fill: #a55a30;
      }

      .cls-28 {
        fill: url(#linear-gradient);
      }

      .cls-24 {
        opacity: .63;
      }

      .cls-29 {
        fill: #b61922;
      }

      .cls-12 {
        opacity: .6;
      }

      .cls-30 {
        fill: #dc1623;
      }

      .cls-31 {
        fill: #96452f;
      }

      .cls-32 {
        fill: #b1bec9;
      }

      .cls-33 {
        fill: #414042;
      }
    </style>
    <linearGradient id="linear-gradient" x1="149.99951" y1="-11.10999" x2="149.99951" y2="183.84" gradientTransform="translate(0 345) scale(1 -1)" gradientUnits="userSpaceOnUse">
      <stop offset="0" stop-color="#83221b"/>
      <stop offset=".69" stop-color="#290302"/>
    </linearGradient>
  </defs>
  <path class="cls-28" d="M263.61951,345H36.37951C16.28739,345-.00049,328.71213-.00049,308.62h0v-49.47998H299.99951v49.48001c0,20.0921-16.2879,36.37997-36.38,36.37997Z"/>
  <path class="cls-27" d="M300.00049,204.20783v57.81c0,20.08997-16.29004,36.37994-36.38013,36.37994H36.38037C16.29053,298.39777,.00049,282.10779,.00049,262.01782v-57.81C.00049,171.71778,11.61035,141.95783,30.9104,118.81781c.68005-.82001,1.37012-1.62,2.07007-2.41998,6.56995-7.52002,13.96997-14.29004,22.06995-20.17004,4.24011-3.08997,8.66003-5.92999,13.26001-8.5,19.26001-10.79999,41.47009-16.95001,65.12-16.95001h33.14001c23.72998,0,46.01001,6.19,65.30994,17.05005,4.61011,2.58997,9.05005,5.44995,13.30005,8.57001,8,5.83997,15.33008,12.54999,21.84009,20,.69995,.79999,1.38989,1.59998,2.06995,2.41998,19.29993,23.14001,30.91003,52.89996,30.91003,85.39001Z"/>
  <path class="cls-2" d="M222.05732,163.8327s31.29223-23.09134,31.62671-31.5983c0,0,20.3155,14.11108,13.30344,33.98873l9.54476-12.27185c3.65374-.79519,10.52179,7.39183,12.70054,15.5726,1.7572,6.59795,.15569,11.30858-8.02554,15.06611-1.2893,.28464,6.47215,4.95426,10.71351,3.00635,6.19398,17.14162-4.38448,46.23574-4.38448,46.23574-9.44569,11.04929-6.75919,8.9709-6.75919,8.9709l-58.71974-78.97029Z"/>
  <path class="cls-2" d="M77.9417,163.8327s-31.29223-23.09134-31.62671-31.5983c0,0-20.3155,14.11108-13.30344,33.98873l-9.54476-12.27185c-3.65374-.79519-10.52179,7.39183-12.70054,15.5726-1.7572,6.59795-.15569,11.30858,8.02554,15.06611,1.2893,.28464-6.47215,4.95426-10.71351,3.00635-6.19398,17.14162,4.38448,46.23574,4.38448,46.23574,9.44569,11.04929,6.75919,8.9709,6.75919,8.9709l58.71974-78.97029Z"/>
  <path class="cls-2" d="M278.38965,185.86523c-34.53314-75.16638-87.41138,18.68408-128.39014,18.69092-40.97876-.00684-93.85699-93.8573-128.39014-18.69092-34.53442,75.16913,29.49811,92.26636,62.95331,92.26636,33.40497,0,65.34094-12.98633,65.43683-13.02533,.09589,.039,32.03186,13.02533,65.43683,13.02533,33.4552,0,97.48773-17.09723,62.95331-92.26636Z"/>
  <circle class="cls-31" cx="61.22255" cy="217.41475" r="37.88222"/>
  <circle class="cls-3" cx="64.57896" cy="222.31522" r="36.45"/>
  <path class="cls-33" d="M96.33896,217.02521c-5.56373,4.71931-13.89978,4.03479-18.61909-1.52895-3.96143-4.67023-4.1936-11.45079-.56091-16.38104-12.57175-1.81821-24.23711,6.89928-26.05531,19.47102-1.8182,12.57175,6.89928,24.23711,19.47103,26.05531,12.57175,1.81819,24.23711-6.89928,26.05531-19.47102,.39197-2.71019,.2968-5.46858-.28102-8.14531l-.01-.00002Zm-32,19.75999c-3.01547,.00552-5.46447-2.43452-5.46999-5.45-.00552-3.01546,2.43452-5.46446,5.44999-5.46999,3.01547-.00552,5.46447,2.43452,5.46999,5.45,0,.00333,0,.00665,0,.00998,.00006,3.01547-2.44442,5.46005-5.4599,5.4601-.01004,0-.02007-.00002-.03011-.00008l.04-.00002Z"/>
  <path class="cls-23" d="M299.99951,309.41998v9.39001c-4.91998,8.02002-16.41998,3.17999-16.41998,3.17999-16.83002,5.41998-20.54004-8.94-20.54004-8.94-26.64996,13.35999-36.95996-14.66998-36.95996-14.66998,5.76001-.37,11.08997-1.03998,16.01996-1.97998,40.32001-7.64001,53.76001-33.06,57.87-57.69l.03003,70.70996Z"/>
  <circle class="cls-31" cx="238.77647" cy="217.41475" r="37.88222"/>
  <circle class="cls-3" cx="235.42006" cy="222.31522" r="36.45"/>
  <path class="cls-33" d="M248.60732,217.02521c-5.56373,4.71931-13.89978,4.03479-18.61909-1.52895-3.96143-4.67023-4.1936-11.45079-.56091-16.38104-12.57175-1.81821-24.23711,6.89928-26.05531,19.47102-1.8182,12.57175,6.89928,24.23711,19.47103,26.05531,12.57175,1.81819,24.23711-6.89928,26.05531-19.47102,.39197-2.71019,.2968-5.46858-.28102-8.14531l-.01-.00002Zm-32,19.75999c-3.01547,.00552-5.46447-2.43452-5.46999-5.45-.00552-3.01546,2.43452-5.46446,5.44999-5.46999,3.01547-.00552,5.46447,2.43452,5.46999,5.45,0,.00333,0,.00665,0,.00998,.00006,3.01547-2.44442,5.46005-5.4599,5.4601-.01004,0-.02007-.00002-.03011-.00008l.04-.00002Z"/>
  <path class="cls-16" d="M91.32922,298.40002c14.12115,26.66861,34.15375,40.25751,46.77686,46.59998h23.78687c12.62311-6.34246,32.6557-19.93136,46.77686-46.59998H91.32922Z"/>
  <path class="cls-32" d="M175.07165,298.28143h-50.14429l-13.37292,3.78857c14.47339,27.10925,38.44507,33.44238,38.44507,33.44238,0,0,23.97168-6.33313,38.44507-33.44238l-13.37292-3.78857Z"/>
  <path class="cls-6" d="M158.51766,310.27118l4.88452-4.53737c2.81821-2.61791,.96581-7.33378-2.88071-7.33378h-21.04393c-3.84653,0-5.69892,4.71587-2.88071,7.33378l4.88452,4.53737c4.80258,4.46125,12.23373,4.46125,17.0363,0Z"/>
  <path class="cls-6" d="M161.443,325.21572l-6.35254-20.5445c-1.54794-5.00614-8.63396-5.00614-10.18191,0l-6.35254,20.5445c-.66716,2.15763,.09825,4.50148,1.91022,5.84953l6.35254,4.72609c1.88791,1.40454,4.47356,1.40454,6.36147,0l6.35254-4.72609c1.81197-1.34805,2.57738-3.6919,1.91022-5.84953Z"/>
  <path class="cls-5" d="M143.64614,301.25362l-10.73324,14.52457c-.55086,.74545-1.5797,.94701-2.37113,.46453l-23.82544-14.52457c-1.54434-.94146-.87702-3.31811,.93166-3.31811h34.55869c1.46908,0,2.31255,1.67209,1.43947,2.85358Z"/>
  <path class="cls-5" d="M156.35288,301.25362l10.73324,14.52457c.55086,.74545,1.5797,.94701,2.37113,.46453l23.82544-14.52457c1.54434-.94146,.87702-3.31811-.93166-3.31811h-34.55869c-1.46908,0-2.31255,1.67209-1.43947,2.85358Z"/>
  <path class="cls-2" d="M207.54088,298.40002H92.45814c6.05357-22.58099,29.51458-39.42568,57.54137-39.42568s51.4878,16.84469,57.54137,39.42568Z"/>
  <path class="cls-20" d="M125.75834,255.29697s10.20202,28.76788,24.24117,28.76788,24.24117-28.76788,24.24117-28.76788h-48.48235Z"/>
  <path class="cls-15" d="M125.28405,257.18067l19.4492,20.53668c2.86099,3.02096,7.67155,3.02096,10.53254,0l19.4492-20.53669c1.59773-1.68706,2.27019-4.09571,1.6319-6.32987-5.3096-18.58478-47.38509-18.58478-52.69473,0-.6383,2.23417,.03417,4.64282,1.6319,6.32988Z"/>
  <path class="cls-9" d="M131.23587,214.71953s7.42118-5.35976,18.76364-5.35976,18.76364,5.35976,18.76364,5.35976"/>
  <ellipse class="cls-13" cx="70.7993" cy="218.27712" rx="57.38533" ry="58.39942"/>
  <ellipse class="cls-13" cx="229.6947" cy="218.27712" rx="57.38533" ry="58.39942"/>
  <circle class="cls-8" cx="70.30432" cy="217.91289" r="57.88031"/>
  <circle class="cls-8" cx="229.6947" cy="217.91289" r="57.88031"/>
  <path class="cls-25" d="M77.45968,250.87222l-37.93572,12.42858c-1.89344,.62033-2.80944,3.01241-2.04594,5.34285l19.90881,60.76761c.7635,2.33044,2.91739,3.71676,4.81083,3.09643l37.93572-12.42858c1.89344-.62033,2.80944-3.01241,2.04594-5.34285l-19.90881-60.76761c-.7635-2.33044-2.91739-3.71676-4.81083-3.09643Z"/>
  <rect class="cls-25" x="34.86145" y="259.01152" width="47.13514" height="72.82644" rx="5.79059" ry="5.79059" transform="translate(-89.07321 32.87414) rotate(-18.13993)"/>
  <rect class="cls-18" x="79.97226" y="252.44996" width="10.8119" height="68.29125" rx="1.57047" ry="1.57047" transform="translate(-84.98495 40.82565) rotate(-18.13993)"/>
  <rect class="cls-17" x="34.52268" y="272.96807" width="39.21217" height="18.66203" rx="3.00066" ry="3.00066" transform="translate(-85.20041 30.88294) rotate(-18.13993)"/>
  <path class="cls-22" d="M30.6863,266.53829l4.97324,15.20646c.33842,1.03477,1.76822,1.12246,2.23056,.1368l1.41721-3.02135c.27942-.5957,.98589-.856,1.58502-.58401l4.57189,2.07554c.95983,.43574,1.97568-.48711,1.63382-1.48424l-5.46262-15.93302c-.2132-.62186-.88646-.95706-1.51118-.75239l-8.66975,2.8404c-.63059,.20659-.97445,.88512-.76818,1.51581Z"/>
  <path class="cls-4" d="M299.99951,309.41998c-8.78003,3.82001-14.17999-.47998-14.17999-.47998-15.59003,3.46002-16.63-7.78998-16.63-7.78998-20.59003,4.91998-25.78003-1.30005-27.09003-4.75,40.32001-7.64001,53.76001-33.06,57.87-57.69l.03003,70.70996Z"/>
  <path class="cls-23" d="M-.00049,309.41998v9.39001c4.91998,8.02002,16.41998,3.17999,16.41998,3.17999,16.83002,5.41998,20.54004-8.94,20.54004-8.94,26.64996,13.35999,36.95996-14.66998,36.95996-14.66998-5.76001-.37-11.08997-1.03998-16.01996-1.97998C17.57953,288.76001,4.13952,263.34003,.02954,238.71002L-.00049,309.41998Z"/>
  <path class="cls-4" d="M-.00049,309.41998c8.78003,3.82001,14.17999-.47998,14.17999-.47998,15.59003,3.46002,16.63-7.78998,16.63-7.78998,20.59003,4.91998,25.78003-1.30005,27.09003-4.75C17.57953,288.76001,4.13952,263.34003,.02954,238.71002L-.00049,309.41998Z"/>
  <path class="cls-27" d="M19.4836,65.03263s5.94405,28.30172,53.20998,35.89803c47.26592,7.59631,55.60825,82.29963,55.60825,82.29963l-34.22605-32.78294-61.09629-28.69717s-23.94146-46.19368-13.49589-56.71754Z"/>
  <path class="cls-23" d="M101.29934,161.82716c4.19657,2.34004,8.37185-3.11304,4.96647-6.50279-8.08329-8.04619-18.37499-16.47037-30.84956-23.23705-35.06795-19.02218-55.99203-41.68314-55.93265-67.0547,0,0-16.67579,23.89461-7.18845,41.23905,0,0-10.33799-4.17633-8.7275-13.8575,0,0-12.94325,22.54492,17.727,38.51178,22.47454,11.70019,53.28216,16.00057,80.00469,30.90122Z"/>
  <path class="cls-27" d="M280.51542,65.03263s-5.94405,28.30172-53.20998,35.89803c-47.26592,7.59631-55.60825,82.29963-55.60825,82.29963l34.22605-32.78294,61.09629-28.69717s23.94146-46.19368,13.49589-56.71754Z"/>
  <path class="cls-23" d="M198.69968,161.82716c-4.19657,2.34004-8.37185-3.11304-4.96647-6.50279,8.08329-8.04619,18.37499-16.47037,30.84956-23.23705,35.06795-19.02218,55.99203-41.68314,55.93265-67.0547,0,0,16.67579,23.89461,7.18845,41.23905,0,0,10.33799-4.17633,8.7275-13.8575,0,0,12.94325,22.54492-17.727,38.51178-22.47454,11.70019-53.28216,16.00057-80.00469,30.90122Z"/>
  <path class="cls-24" d="M245.18042,96.39783l-69.13989,35.58997c-16.28003,8.38-35.2301,8.38-51.51001,0L55.05042,96.22779c4.24011-3.08997,8.66003-5.92999,13.26001-8.5,19.26001-10.79999,41.47009-16.95001,65.12-16.95001h33.14001c23.72998,0,46.01001,6.19,65.30994,17.05005,4.61011,2.58997,9.05005,5.44995,13.30005,8.57001Z"/>
  <path class="cls-11" d="M248.93997,75.46776c-.70679,3.60614-1.868,6.55593-3.36094,7.2916l-84.69372,41.69415c-6.99587,3.44027-14.61203,3.44027-21.60072,0L54.59083,82.75936c-1.46407-.72123-2.50986-3.65663-3.09405-7.2916-.27407-.97368-.25241-2.01947,.05771-2.98589,.44716-1.37757,1.48573-2.58201,3.10127-3.14454l.43994-.15147,193.84428,6.28191Z"/>
  <path class="cls-19" d="M248.93997,75.46776c-.36783,1.27654-1.24053,2.43053-2.64689,3.10127l-8.18596,3.92348-28.0341,13.42925-44.18239,21.17522c-9.90966,4.74569-21.43485,4.74569-31.34451,0L54.14367,78.56903c-1.40636-.67074-2.27906-1.82473-2.64689-3.10127-.27407-.97368-.25241-2.01947,.05771-2.98589,.44716-1.37757,1.48573-2.58201,3.10127-3.14454l.43994-.15147,26.68541-9.33268h.02166l31.8566-11.13575,25.75504-9.0009c4.21916-1.47851,8.66912-2.0627,13.06864-1.75258,2.89213,.1947,5.7626,.77889,8.53931,1.75258l84.75865,29.62081c2.74065,.9592,3.83693,3.76479,3.15898,6.13043Z"/>
  <line class="cls-10" x1="61.0273" y1="80.04913" x2="61.0273" y2="100.65967"/>
  <path class="cls-7" d="M59.87935,100.65967c-6.76607,0-12.75185,4.645-2.37264,18.60889l2.37264-5.92101s3.29342,11.84202,1.01059,15.78936c-2.28283,3.94734,22.64036-28.47724-1.01059-28.47724Z"/>
  <path class="cls-12" d="M246.29308,78.56903l-8.18596,3.92348-28.0341,13.42925c-2.69016-1.6372-8.64029-5.31544-14.74189-9.20287-18.22538-.29568-32.72208-5.21446-32.72208-11.25113,0-2.32237,2.14924-4.47884,5.84197-6.27469-.59141-.38945-1.18282-.77894-1.78867-1.18282-30.76032-20.44678-83.62632-8.44559-84.85959-8.15708l31.8566-11.13575,25.75504-9.0009c4.21916-1.47851,8.66912-2.0627,13.06864-1.75258,2.89213,.1947,5.7626,.77889,8.53931,1.75258l84.75865,29.62081c4.21199,1.47129,4.5365,7.30604,.51209,9.2317Z"/>
  <path class="cls-29" d="M226.42515,63.58988c-3.4038,11.35265-10.41926,22.72913-33.31798,15.86353-12.60007-3.77781-18.15041-9.52066-20.00313-15.82012-1.53634-5.14011-.62153-10.65193,.90932-15.75775,.13916-.46414,.28802-.92545,.45326-1.37122,3.77334-10.54629,13.38874-16.88529,22.05309-14.28751,.34817,.10439,.68369,.21554,1.01342,.34605,.18085,.06471,.352,.12657,.50773,.20491,2.10718,.9163,3.93588,2.33938,5.41177,4.13095,1.07452,1.30232,2.81512,1.82419,4.42891,1.3279,2.21808-.68403,4.52814-.86621,6.79185-.47201,.17308,.02025,.35004,.06275,.53666,.10822,.34714,.07243,.68853,.16424,1.03663,.26861,1.11208,.33343,2.16125,.80611,3.13702,1.38326,.00968,.0029,.02615,.01833,.03577,.02121,6.87189,4.1472,9.98617,14.11318,7.00568,24.05398Z"/>
  <path class="cls-30" d="M219.6942,52.118c-2.99209,9.97946-10.64833,22.966-29.32123,17.36741-17.33843-5.19849-17.09772-17.63653-15.90634-22.98109,3.77334-10.54629,13.38874-16.88529,22.05309-14.28751,.34817,.10439,.68369,.21554,1.01342,.34605,.18085,.06471,.352,.12657,.50773,.20491,2.10718,.9163,3.93588,2.33938,5.41177,4.13095,1.07452,1.30232,2.81512,1.82419,4.42891,1.3279,2.21808-.68403,4.52814-.86621,6.79185-.47201,.17308,.02025,.35004,.06275,.53666,.10822,.34714,.07243,.68853,.16424,1.03663,.26861,1.11208,.33343,2.16705,.78675,3.15154,1.33486,.00388,.02226,.01743,.04742,.02126,.06961,1.38725,3.80964,1.57942,8.23056,.27472,12.5821Z"/>
  <ellipse class="cls-14" cx="187.82456" cy="42.78633" rx="9.18254" ry="6.70901" transform="translate(48.7571 176.08665) rotate(-56.61995)"/>
  <ellipse class="cls-29" cx="203.97692" cy="41.74097" rx="2.42844" ry="3.75086" transform="translate(105.4135 225.13711) rotate(-73.30998)"/>
  <path class="cls-26" d="M203.58311,40.98016s2.39335-13.66463-.07575-16.45953c0,0,4.96973,.80518,6.25353,5.21369,1.28379,4.40851-5.39423,12.16563-5.39423,12.16563,0,0-1.071,.92308-.78355-.91979Z"/>
  <path class="cls-21" d="M206.91351,33.40546s4.93556-14.52088,16.04006-8.8641c0,0,4.99344,13.42494-16.04006,8.8641Z"/>
  <path class="cls-1" d="M59.87935,100.65967c-6.76607,0-12.75185,4.645-2.37264,18.60889l2.37264-5.92101s3.29342,11.84202,1.01059,15.78936c-2.28283,3.94734,22.64036-28.47724-1.01059-28.47724Z"/>
</svg>