<?xml version="1.0" encoding="UTF-8" standalone="no"?>
<!-- Created with Inkscape (http://www.inkscape.org/) -->

<svg
   width="160mm"
   height="160mm"
   viewBox="0 0 160.00001 160"
   version="1.1"
   id="svg9208"
   inkscape:version="1.2 (dc2aedaf03, 2022-05-15)"
   sodipodi:docname="wood grain texture.svg"
   xmlns:inkscape="http://www.inkscape.org/namespaces/inkscape"
   xmlns:sodipodi="http://sodipodi.sourceforge.net/DTD/sodipodi-0.dtd"
   xmlns="http://www.w3.org/2000/svg"
   xmlns:svg="http://www.w3.org/2000/svg">
  <sodipodi:namedview
     id="namedview9210"
     pagecolor="#505050"
     bordercolor="#ffffff"
     borderopacity="1"
     inkscape:showpageshadow="0"
     inkscape:pageopacity="0"
     inkscape:pagecheckerboard="1"
     inkscape:deskcolor="#505050"
     inkscape:document-units="mm"
     showgrid="false"
     inkscape:zoom="0.46769781"
     inkscape:cx="157.15276"
     inkscape:cy="344.23937"
     inkscape:window-width="1366"
     inkscape:window-height="705"
     inkscape:window-x="-8"
     inkscape:window-y="-8"
     inkscape:window-maximized="1"
     inkscape:current-layer="layer1" />
  <defs
     id="defs9205" />
  <g
     inkscape:label="Layer 1"
     inkscape:groupmode="layer"
     id="layer1"
     transform="translate(5.1988187,-57.524808)">
    <path
       id="rect8478"
       style="mix-blend-mode:multiply;fill:#edcfc5;stroke-width:1.55921;stroke-linecap:round;paint-order:stroke fill markers;stop-color:#000000"
       d="M 13.540089 62.673331 C 7.4341051 62.644822 1.2135639 63.248958 -5.1988187 64.937275 L -5.1988187 84.719014 C 19.493122 74.356213 63.679421 67.551723 85.731032 74.651411 C 96.082786 77.984245 96.701234 79.433756 102.55998 79.984936 C 120.81504 81.702329 130.25019 66.874606 154.80123 70.961714 L 154.80123 66.696341 C 147.55662 65.33342 137.56877 64.139464 126.84067 65.257153 C 58.97819 72.327267 84.769409 67.287336 63.715321 67.524714 C 46.729741 67.716224 30.577133 62.752879 13.540089 62.673331 z M 25.396213 84.158841 C 15.497316 84.256387 5.2046973 86.047721 -5.1988187 89.096008 L -5.1988187 108.07056 C 11.76113 99.29693 19.912454 95.388439 40.499684 102.01667 C 50.851446 105.34949 71.888628 108.97439 87.833746 108.92839 C 110.72885 108.86238 127.10608 91.022706 154.80123 96.862459 L 154.80123 92.56608 C 140.879 89.393533 126.61616 87.738213 115.14629 94.454337 C 91.750224 108.15379 75.650781 101.47473 60.559441 92.786222 C 49.853106 86.622289 37.940465 84.035228 25.396213 84.158841 z M 137.96867 108.13826 C 130.93869 108.17383 124.654 110.34176 119.87985 115.15333 C 103.55882 131.60236 70.033214 108.77956 38.469834 124.06183 C 13.410852 136.19483 4.3593597 129.67997 -5.1988187 123.01848 L -5.1988187 151.93403 C 34.558268 125.35272 58.098104 141.74954 91.515175 144.93963 C 113.03789 146.99424 127.63155 117.36205 154.80123 146.25014 L 154.80123 111.47242 C 148.98521 109.29627 143.26545 108.11145 137.96867 108.13826 z M 154.80123 160.80429 C 115.27767 196.1056 107.83911 169.61641 73.865606 165.54509 C 52.818445 163.02283 23.238077 203.4528 -5.1988187 171.88785 L -5.1988187 212.3474 C 13.700063 213.19555 46.737725 193.8902 54.968051 183.47733 C 71.289089 162.82819 87.77898 195.86075 104.29527 201.74753 C 120.3552 207.47165 140.6261 206.5444 154.80123 205.45376 L 154.80123 160.80429 z " />
  </g>
</svg>
