<?xml version="1.0" encoding="UTF-8" standalone="no"?>
<!-- Created with Inkscape (http://www.inkscape.org/) -->

<svg
   width="660.35248mm"
   height="149.62776mm"
   viewBox="0 0 660.35252 149.62777"
   version="1.1"
   id="svg9208"
   inkscape:version="1.2 (dc2aedaf03, 2022-05-15)"
   sodipodi:docname="woodGrainTexMultiplyLong.svg"
   xmlns:inkscape="http://www.inkscape.org/namespaces/inkscape"
   xmlns:sodipodi="http://sodipodi.sourceforge.net/DTD/sodipodi-0.dtd"
   xmlns="http://www.w3.org/2000/svg"
   xmlns:svg="http://www.w3.org/2000/svg">
  <sodipodi:namedview
     id="namedview9210"
     pagecolor="#505050"
     bordercolor="#ffffff"
     borderopacity="1"
     inkscape:showpageshadow="0"
     inkscape:pageopacity="0"
     inkscape:pagecheckerboard="1"
     inkscape:deskcolor="#505050"
     inkscape:document-units="mm"
     showgrid="false"
     inkscape:zoom="0.22273864"
     inkscape:cx="1658.895"
     inkscape:cy="529.76889"
     inkscape:window-width="1366"
     inkscape:window-height="705"
     inkscape:window-x="-8"
     inkscape:window-y="-8"
     inkscape:window-maximized="1"
     inkscape:current-layer="layer1" />
  <defs
     id="defs9205" />
  <g
     inkscape:label="Layer 1"
     inkscape:groupmode="layer"
     id="layer1"
     transform="translate(339.03684,-62.293376)">
    <path
       style="mix-blend-mode:multiply;fill:#edcfc5;stroke-width:1.60343;stroke-linecap:round;paint-order:stroke fill markers;stop-color:#000000"
       d="m 321.31562,163.19234 c -12.69655,10.46281 -29.52899,20.19449 -46.53205,13.51752 -16.32939,-5.59062 -34.4783,-8.48277 -52.02834,-7.8574 -18.86214,0.67211 -36.37056,10.09222 -55.0876,12.40027 -19.80904,2.4427 -40.15357,4.24808 -59.91055,1.45366 -17.194314,-2.43196 -32.088768,-15.1337 -49.466234,-15.63625 -20.145905,-0.58264 -47.422718,15.81347 -72.057004,16.57036 -14.092139,0.43298 -24.721628,-0.25367 -41.724681,-6.93064 -16.329394,-5.59062 -34.478309,-8.48277 -52.028351,-7.8574 -18.86213,0.67211 -36.37055,10.09222 -55.08759,12.40027 -19.80904,2.4427 -40.15358,4.24808 -59.91056,1.45366 -17.19431,-2.43196 -32.08876,-15.1337 -49.46623,-15.63625 -20.1459,-0.58264 -37.38275,22.57409 -58.41142,14.77894 -2.7734,-0.26046 -5.95276,-2.97884 -8.64185,-5.29115 v 35.36321 c 19.26742,-2.23279 36.98137,-12.1558 52.2795,-23.02236 6.90485,-9.13423 19.96237,-9.05722 30.21831,-7.39852 14.26972,2.30785 22.25024,18.74437 36.03656,22.92212 22.79606,6.90801 48.83299,8.33565 71.7858,1.90841 16.25659,-4.55218 25.01739,-25.52952 41.86669,-27.31203 11.042839,-1.16824 22.813337,5.04326 30.943849,11.72383 9.362191,9.94096 28.72936,-2.79857 42.159965,1.3633 11.211657,3.47427 17.959269,18.18405 29.6710527,18.96246 17.4622853,1.16061 32.2940573,-11.30301 47.5921843,-22.16957 6.904858,-9.13423 19.962368,-9.05722 30.21831,-7.39852 14.269723,2.30785 22.250247,18.74437 36.036559,22.92212 22.79607,6.90801 48.83299,8.33565 71.7858,1.90841 16.25659,-4.55218 25.01739,-25.52952 41.8667,-27.31203 11.04283,-1.16824 22.81333,5.04326 30.94384,11.72383 9.36219,9.94096 23.06132,14.23802 36.77295,14.98048 10.03631,0.8716 20.13196,0.58997 30.17439,-0.0765 z"
       id="path451"
       sodipodi:nodetypes="ccssscacssssccccsssscaacsssscccc" />
    <path
       style="mix-blend-mode:multiply;fill:#edcfc5;stroke-width:1.60343;stroke-linecap:round;paint-order:stroke fill markers;stop-color:#000000"
       d="m -14.143492,109.7341 c -11.362588,-3.20605 -22.648552,8.10473 -34.23667,9.07386 -18.484422,1.5459 -37.264371,-2.5099 -55.669468,-0.27233 -12.44058,1.51244 -23.82641,8.61913 -36.35541,9.17877 -11.79405,0.52681 -23.31743,-3.54103 -34.93171,-5.55108 -5.95006,-1.02977 -11.76552,-2.95327 -17.80098,-3.33417 -14.18101,-0.89496 -28.36981,1.67596 -42.55503,2.50889 -21.70058,1.27422 -45.03848,-6.74406 -65.103,3.80701 -11.6827,5.66699 -26.65486,8.26501 -38.24108,1.59318 v 21.90564 c 18.29694,-9.50424 40.845,-8.19137 61.43914,-9.65264 18.35814,-1.30262 38.46453,-15.14817 55.15529,2.70836 8.72972,9.33944 26.1808,3.94521 39.35833,3.6313 10.02935,-0.23892 19.75072,-3.70345 29.77027,-4.1863 25.11074,-1.21011 50.53775,-0.16404 75.350957,3.26491 19.650411,5.02428 35.131434,-15.9417 54.667464,-9.66039 4.534546,-0.53736 10.883277,10.83864 21.8565922,7.61458 10.9733151,-3.22406 33.5213808,-1.91119 54.1155148,-3.37246 18.358132,-1.30262 38.464528,-15.14817 55.155292,2.70836 8.72971,9.33944 26.18079,3.94521 39.35832,3.6313 10.02935,-0.23892 19.75073,-3.70345 29.77028,-4.1863 25.11073,-1.21011 50.53775,-0.16404 75.35095,3.26491 19.65041,5.02428 35.13144,-15.9417 54.66747,-9.66039 4.53454,-0.53736 10.6869,6.5588 14.33659,9.11572 v -33.38401 c -1.73697,-0.4758 -3.46455,-0.71015 -5.1847,-0.74672 -11.48402,-0.24412 -22.64855,8.10473 -34.23667,9.07386 -18.48442,1.5459 -37.26437,-2.5099 -55.66947,-0.27233 -12.44058,1.51244 -23.8264,8.61913 -36.3554,9.17877 -11.79406,0.52681 -23.31743,-3.54103 -34.93172,-5.55108 -5.95005,-1.02977 -11.76552,-2.95327 -17.80098,-3.33417 -14.18101,-0.89496 -28.36981,1.67596 -42.555026,2.50889 -21.700576,1.27422 -45.038484,-6.74406 -65.103003,3.80701 -11.6827,5.66699 -23.3374329,0.50462 -33.3164553,-4.60488 -4.4304858,-2.26852 -5.5152417,-9.4544 -10.3056877,-10.80607 z"
       id="path449" />
    <path
       style="mix-blend-mode:multiply;fill:#edcfc5;stroke-width:1.60343;stroke-linecap:round;paint-order:stroke fill markers;stop-color:#000000"
       d="m -312.18628,84.158917 c -7.91339,0.900008 -19.28423,0.555952 -26.85056,3.506762 v 17.599441 c 11.48489,-5.446415 24.41711,-8.801139 37.02823,-4.8395 27.42584,8.31376 56.79043,10.54871 85.25165,6.26732 13.75894,-1.55113 27.65213,0.16532 41.42021,-0.84956 14.26221,-1.05129 27.86271,-10.026042 42.53228,-5.41776 20.82158,5.78844 42.893225,9.98148 64.645153,7.72563 19.652681,-3.96476 43.224606,3.13231 59.094986,-12.03303 l 5.0583352,-8.54966 c -6.8032252,0.05471 -22.3774662,1.170516 -31.9268642,2.83287 -13.933852,2.425598 -25.67173,13.33401 -40.736015,11.87008 -19.86743,-0.24635 -35.096555,-16.082435 -54.090755,-17.407727 -15.06423,-1.051085 -29.63438,5.613121 -44.57712,7.702373 -16.16046,2.25951 -32.3608,5.145407 -48.69677,5.218802 -17.0797,0.07674 -36.06472,4.215572 -50.9664,-4.998661 -11.21068,-6.163232 -24.2934,-8.793193 -37.18636,-8.62738 z m 330.274412,0 c -7.913395,0.900008 -20.4905339,1.722367 -28.0568604,4.673178 l 0.9498158,7.175629 c 11.4848897,-5.446417 24.6735996,0.456257 37.2847176,4.417896 27.42584,8.31376 56.790433,10.54871 85.251645,6.26732 13.75895,-1.55113 27.65213,0.16532 41.42021,-0.84956 14.26222,-1.05129 27.86271,-10.026042 42.53229,-5.41776 20.82158,5.78844 42.89322,9.98148 64.64515,7.72563 19.65268,-3.96476 38.53384,-15.551996 59.20052,-11.874727 v -4.400248 c -6.12121,-3.810079 -20.56188,-0.898544 -26.97407,-1.474845 -13.89906,2.8714 -25.67173,13.33401 -40.73601,11.87008 -19.86743,-0.24635 -35.09655,-16.082435 -54.09076,-17.407727 -15.06423,-1.051085 -29.63437,5.613121 -44.57712,7.702373 -16.16045,2.25951 -32.3608,5.145407 -48.69677,5.218802 -17.079688,0.07674 -36.064713,4.215572 -50.966397,-4.998661 -11.210681,-6.163232 -24.293404,-8.793193 -37.186361,-8.62738 z"
       id="path447"
       sodipodi:nodetypes="cccccsccccscssscccccccsccccccssscc" />
    <path
       style="mix-blend-mode:multiply;fill:#edcfc5;stroke-width:1.60343;stroke-linecap:round;paint-order:stroke fill markers;stop-color:#000000"
       d="m -27.372659,64.819012 c -21.046699,0.732154 -42.025756,5.123957 -63.101575,3.748092 -12.709686,-1.825133 -25.623826,-2.774 -38.494806,-3.366203 -15.43793,-0.710311 -30.9166,-0.595053 -46.36771,-0.220142 -22.40983,0.543762 -44.729,3.384898 -67.14526,3.580143 -13.07671,0.113899 -26.03319,-1.704444 -39.20381,-1.406115 -14.38866,-1.133527 -28.55015,-4.430479 -43.0382,-4.48138 -4.12914,0.290977 -9.95285,-0.08639 -14.31282,0.897102 v 19.134233 c 27.46507,-8.623261 57.1917,-13.737998 86.02007,-9.224243 11.24046,3.075319 22.54365,5.567679 34.02842,7.310665 14.4315,2.190192 29.04037,4.288152 43.6516,3.927925 29.10555,-0.71757 57.17956,-14.925563 86.404024,-12.098486 13.311737,1.137733 25.392289,10.866162 39.148515,6.487459 13.267867,-3.947524 26.759079,0.260836 41.0217855,2.242241 l 1.6709723,-0.03804 C 20.373619,72.689004 48.429279,68.966744 77.257647,73.480499 c 11.24046,3.075319 22.543647,5.567679 34.028413,7.310665 14.43151,2.190192 29.04037,4.288152 43.6516,3.927925 29.10555,-0.71757 57.17956,-14.925563 86.40403,-12.098486 13.31173,1.137733 25.39229,10.866162 39.14851,6.487459 13.26787,-3.947524 26.56271,-10.63359 40.82542,-8.652185 v -4.528922 c -4.76282,-1.8527 -14.14448,0.211643 -18.41386,-1.107943 -21.0467,0.732154 -42.02576,5.123957 -63.10158,3.748092 -12.70969,-1.825133 -25.62383,-2.774 -38.49481,-3.366203 -15.43792,-0.710311 -30.9166,-0.595053 -46.36771,-0.220142 -22.40983,0.543762 -44.729,3.384898 -67.145256,3.580143 -13.076707,0.113899 -26.033191,-1.704444 -39.203808,-1.406115 -14.388668,-1.133527 -28.550158,-4.430479 -43.0382,-4.48138 -4.1291473,0.290977 -7.8641465,-0.984525 -12.2241062,-10e-4 0,0 -16.9632368,3.301276 -20.6989488,2.146639 z"
       id="rect8478"
       sodipodi:nodetypes="ccssscccccsscccccssccccccssscccc" />
  </g>
</svg>
