<?xml version="1.0" encoding="UTF-8" standalone="no"?>
<!-- Created with Inkscape (http://www.inkscape.org/) -->

<svg
   width="138.25307mm"
   height="138.25307mm"
   viewBox="0 0 138.25308 138.25307"
   version="1.1"
   id="svg9208"
   inkscape:version="1.2 (dc2aedaf03, 2022-05-15)"
   sodipodi:docname="woodDentsTex2.svg"
   inkscape:export-filename="wood dents texture.png"
   inkscape:export-xdpi="96"
   inkscape:export-ydpi="96"
   xmlns:inkscape="http://www.inkscape.org/namespaces/inkscape"
   xmlns:sodipodi="http://sodipodi.sourceforge.net/DTD/sodipodi-0.dtd"
   xmlns="http://www.w3.org/2000/svg"
   xmlns:svg="http://www.w3.org/2000/svg">
  <sodipodi:namedview
     id="namedview9210"
     pagecolor="#505050"
     bordercolor="#ffffff"
     borderopacity="1"
     inkscape:showpageshadow="0"
     inkscape:pageopacity="0"
     inkscape:pagecheckerboard="1"
     inkscape:deskcolor="#505050"
     inkscape:document-units="mm"
     showgrid="false"
     inkscape:zoom="0.5759723"
     inkscape:cx="147.57654"
     inkscape:cy="211.81574"
     inkscape:window-width="1366"
     inkscape:window-height="705"
     inkscape:window-x="-8"
     inkscape:window-y="-8"
     inkscape:window-maximized="1"
     inkscape:current-layer="layer1"
     showguides="false">
    <sodipodi:guide
       position="-59.258221,115.69394"
       orientation="1,0"
       id="guide14806"
       inkscape:locked="false" />
  </sodipodi:namedview>
  <defs
     id="defs9205" />
  <g
     inkscape:label="Layer 1"
     inkscape:groupmode="layer"
     id="layer1"
     transform="translate(-13.643645,-70.854855)">
    <path
       id="path13525"
       style="fill:#be6243;fill-opacity:1;fill-rule:evenodd;stroke:#be6243;stroke-width:0.1057;stroke-opacity:1"
       d="m 135.9714,122.48142 c 1.55032,7.44699 -7.47211,9.90975 -12.33671,8.37417 -1.01239,-0.31958 -1.58317,-0.85969 -1.8588,-1.53066 0.11616,1.01514 0.67957,1.848 2.04639,2.27945 5.02416,1.58595 14.48304,-1.09286 12.14912,-9.12296 z" />
    <path
       id="path13522"
       style="fill:#a94627;fill-opacity:1;fill-rule:evenodd;stroke-width:0.1057"
       d="m 135.76128,121.65393 c 2.41899,8.09141 -7.08579,10.79268 -12.12637,9.20155 -3.92168,-1.23793 -1.23073,-5.77992 -0.33233,-8.45272 0.7759,-2.30833 2.23467,-5.25225 4.63809,-5.64461 3.03536,-0.49553 6.69076,1.11649 7.82061,4.89578 z"
       sodipodi:nodetypes="ssaas" />
    <path
       id="path13878"
       style="fill:#be6243;fill-opacity:1;fill-rule:evenodd;stroke:#be6243;stroke-width:0.205455;stroke-opacity:1"
       d="m 122.79753,135.06464 c -0.50629,0.67035 -2.76052,1.74666 -3.84833,1.74666 -1.04907,0 -1.92876,-0.35906 -2.16474,-0.84284 -0.0405,0.10848 -0.062,0.20047 -0.062,0.26923 1e-5,0.60927 0.99687,1.10278 2.22675,1.10278 1.22987,0 3.95117,-1.37614 3.95117,-1.98541 0,-0.0822 -0.0368,-0.181 -0.10283,-0.29042 z" />
    <path
       id="path13737"
       style="fill:#a94627;fill-opacity:1;fill-rule:evenodd;stroke-width:0.205455"
       d="m 122.90018,134.82582 c 0,0.60927 -2.72106,1.98573 -3.95093,1.98573 -1.22989,0 -2.2269,-0.49391 -2.2269,-1.10318 -1e-5,-0.60928 1.71537,-3.01538 2.94524,-3.01538 1.22989,0 3.2326,1.52356 3.23259,2.13283 z"
       sodipodi:nodetypes="sssss" />
    <path
       id="path14021"
       style="fill:#be6243;fill-opacity:1;fill-rule:evenodd;stroke:#be6243;stroke-width:0.202554;stroke-opacity:1"
       d="m 97.507413,80.523208 c -0.50851,0.623342 -3.24836,2.135119 -4.69999,2.520739 -1.39991,0.37188 -2.66333,0.44597 -3.09883,0.20929 -0.027,0.0862 -0.0328,0.15472 -0.0156,0.20025 0.15189,0.40342 1.60517,0.37682 3.24638,-0.0592 1.6412,-0.43598 4.92959,-2.311854 4.77771,-2.715279 -0.0205,-0.0544 -0.0943,-0.106796 -0.20963,-0.155846 z" />
    <path
       id="path14023"
       style="fill:#a94627;fill-opacity:1;fill-rule:evenodd;stroke-width:0.202554"
       d="m 97.584853,80.328689 c 0.15188,0.403425 -3.1361,2.279428 -4.77731,2.715398 -1.6412,0.43598 -3.09479,0.46237 -3.24668,0.0589 -0.15189,-0.40342 1.53737,-2.604686 3.17859,-3.040666 1.64121,-0.43598 4.69353,-0.137104 4.8454,0.266322 z"
       sodipodi:nodetypes="sssss" />
    <path
       id="path14798"
       style="fill:#be6243;fill-opacity:1;fill-rule:evenodd;stroke:#be6243;stroke-width:0.0967777;stroke-opacity:1"
       d="m 54.770288,165.31609 c 3.812114,6.52797 11.179603,3.52928 13.304349,-0.27513 0.442185,-0.79175 0.459247,-1.51313 0.202846,-2.17483 0.580601,0.83839 0.757152,1.77943 0.160153,2.84836 -2.194436,3.92921 -9.980853,6.99891 -13.667348,-0.3984 z" />
    <path
       id="path14800"
       style="fill:#a94627;fill-opacity:1;fill-rule:evenodd;stroke-width:0.0967777"
       d="m 54.370939,164.57024 c 3.671571,7.49017 11.501876,4.4128 13.703485,0.47075 1.712903,-3.06699 -2.941152,-5.08149 -5.241105,-6.63753 -1.986331,-1.34386 -4.82011,-2.80393 -6.61255,-1.80369 -2.263737,1.26324 -3.564724,4.472 -1.84983,7.97047 z"
       sodipodi:nodetypes="ssaas" />
    <path
       id="path15022"
       style="fill:#be6243;fill-opacity:1;fill-rule:evenodd;stroke-width:0.205455"
       d="m 39.577881,156.33604 c 0.50629,0.67035 2.76052,1.74666 3.84834,1.74666 1.04906,0 1.92875,-0.35906 2.16473,-0.84284 0.0405,0.10848 0.062,0.20047 0.062,0.26923 -1e-5,0.60927 -0.99687,1.10278 -2.22674,1.10278 -1.22988,0 -3.95118,-1.37614 -3.95118,-1.98541 0,-0.0822 0.0368,-0.181 0.10283,-0.29042 z" />
    <path
       id="path15024"
       style="fill:#a94627;fill-opacity:1;fill-rule:evenodd;stroke-width:0.205455"
       d="m 39.475231,156.09722 c 0,0.60927 2.72106,1.98573 3.95094,1.98573 1.22988,0 2.22689,-0.49391 2.22689,-1.10318 10e-6,-0.60928 -1.71536,-3.01538 -2.94524,-3.01538 -1.22989,0 -3.2326,1.52356 -3.23259,2.13283 z"
       sodipodi:nodetypes="sssss" />
    <path
       id="path16478"
       style="fill:#be6243;fill-opacity:1;fill-rule:evenodd;stroke:#be6243;stroke-width:0.1057;stroke-opacity:1"
       d="m 110.25252,193.58887 c 1.55032,7.44699 -7.4721,9.90975 -12.336705,8.37417 -1.01239,-0.31958 -1.58317,-0.85969 -1.8588,-1.53066 0.11616,1.01514 0.67957,1.848 2.04639,2.27945 5.024165,1.58595 14.483035,-1.09286 12.149115,-9.12296 z" />
    <path
       id="path16480"
       style="fill:#a94627;fill-opacity:1;fill-rule:evenodd;stroke-width:0.1057"
       d="m 110.0424,192.76138 c 2.41899,8.09141 -7.08578,10.79268 -12.126365,9.20155 -3.92168,-1.23793 -1.23073,-5.77992 -0.33233,-8.45272 0.7759,-2.30833 2.23467,-5.25225 4.638095,-5.64461 3.03536,-0.49553 6.69075,1.11649 7.8206,4.89578 z"
       sodipodi:nodetypes="ssaas" />
  </g>
</svg>
