<?xml version="1.0" encoding="UTF-8" standalone="no"?>
<!DOCTYPE svg PUBLIC "-//W3C//DTD SVG 1.1//EN" "http://www.w3.org/Graphics/SVG/1.1/DTD/svg11.dtd">
<svg width="100%" height="100%" viewBox="0 0 265 180" version="1.1" xmlns="http://www.w3.org/2000/svg" xmlns:xlink="http://www.w3.org/1999/xlink" xml:space="preserve" xmlns:serif="http://www.serif.com/" style="fill-rule:evenodd;clip-rule:evenodd;stroke-linejoin:round;stroke-miterlimit:2;">
    <g id="WorldLanguages" transform="matrix(0.999623,0,0,0.999623,0.0539796,0.0679743)">
        <g id="Final">
            <g id="WorldLanguages1" serif:id="WorldLanguages">
                <g transform="matrix(0.661014,0,0,0.661002,44.9122,47.8904)">
                    <path d="M326.271,199.863L-61.273,199.863C-65,199.863 -68.026,196.837 -68.026,193.109L-68.019,-67.514C-67.874,-70.32 -65.55,-72.554 -62.708,-72.554L327.705,-72.554C330.64,-72.554 333.023,-70.171 333.023,-67.237L333.024,193.109C333.024,196.837 329.999,199.863 326.271,199.863Z" style="fill:url(#_Radial1);"/>
                </g>
                <g>
                    <g transform="matrix(1.46555,-0.33179,0.33179,1.46555,-48.281,-51.9874)">
                        <path d="M154.669,70.442C154.808,70.686 154.881,71.005 154.887,71.398L155.136,84.218C155.149,84.557 155.088,84.835 154.951,85.051C154.815,85.268 154.633,85.404 154.407,85.458C154.18,85.513 153.927,85.48 153.645,85.359C153.303,85.212 153.072,85.015 152.954,84.769C152.835,84.522 152.776,84.196 152.777,83.791L152.775,81.269L146.467,78.558L144.651,80.298C144.34,80.584 144.064,80.77 143.825,80.856C143.585,80.941 143.306,80.915 142.988,80.779C142.695,80.653 142.489,80.484 142.369,80.273C142.25,80.063 142.22,79.836 142.281,79.594C142.341,79.352 142.493,79.117 142.736,78.888L152.191,70.239C152.31,70.13 152.428,70.037 152.544,69.961L154.669,70.442ZM148.084,77.036L152.779,79.054L152.815,72.529L152.778,72.513L148.084,77.036ZM73.588,174.953L77.661,165.163C77.902,164.584 78.234,164.208 78.657,164.033C79.08,163.859 79.562,163.884 80.104,164.109C80.645,164.335 81.003,164.659 81.178,165.082C81.352,165.505 81.319,166.006 81.078,166.585L80.837,167.164C81.522,166.643 82.284,166.323 83.126,166.204C84.207,166.052 85.299,166.205 86.401,166.664C87.502,167.122 88.322,167.704 88.861,168.41C89.4,169.116 89.673,169.958 89.683,170.937C89.692,171.915 89.432,173.039 88.904,174.309L87.34,178.067L83.587,177.217L85.333,173.02C85.776,171.956 85.897,171.098 85.698,170.445C85.498,169.793 84.979,169.292 84.138,168.942C83.112,168.515 82.161,168.497 81.286,168.889C80.411,169.28 79.752,170.008 79.309,171.073L77.341,175.803L73.588,174.953ZM52.245,157.468C51.315,157.327 50.473,157.048 49.719,156.632C48.579,156.002 47.699,155.107 47.079,153.947C46.459,152.787 46.149,151.427 46.149,149.867C46.149,148.687 46.324,147.632 46.674,146.702C47.024,145.772 47.529,144.982 48.189,144.332C48.849,143.682 49.649,143.182 50.589,142.832C51.529,142.482 52.579,142.307 53.739,142.307C54.399,142.307 55.114,142.397 55.884,142.577C56.654,142.757 57.379,143.057 58.059,143.477C58.379,143.677 58.589,143.917 58.689,144.197C58.789,144.477 58.809,144.762 58.749,145.052C58.689,145.342 58.564,145.592 58.374,145.802C58.184,146.012 57.949,146.142 57.669,146.192C57.389,146.242 57.079,146.177 56.739,145.997C56.299,145.737 55.849,145.542 55.389,145.412C54.929,145.282 54.489,145.217 54.069,145.217C53.409,145.217 52.829,145.322 52.329,145.532C51.829,145.742 51.404,146.042 51.054,146.432C50.704,146.822 50.439,147.307 50.259,147.887C50.079,148.467 49.989,149.137 49.989,149.897C49.989,151.377 50.344,152.542 51.054,153.392C51.764,154.242 52.769,154.667 54.069,154.667C54.489,154.667 54.924,154.607 55.374,154.487C55.824,154.367 56.279,154.177 56.739,153.917C57.079,153.737 57.384,153.677 57.654,153.737C57.924,153.797 58.149,153.932 58.329,154.142C58.509,154.352 58.619,154.602 58.659,154.892C58.699,155.182 58.664,155.467 58.554,155.747C58.444,156.027 58.239,156.257 57.939,156.437C57.279,156.837 56.579,157.127 55.839,157.307C55.276,157.444 54.735,157.529 54.218,157.561L54.074,158.403C54.188,158.392 54.296,158.387 54.399,158.387C55.219,158.387 55.879,158.577 56.379,158.957C56.879,159.337 57.129,159.867 57.129,160.547C57.129,161.327 56.799,161.952 56.139,162.422C55.479,162.892 54.619,163.127 53.559,163.127C53.179,163.127 52.779,163.102 52.359,163.052C51.939,163.002 51.559,162.917 51.219,162.797C50.919,162.697 50.714,162.532 50.604,162.302C50.494,162.072 50.474,161.842 50.544,161.612C50.614,161.382 50.754,161.207 50.964,161.087C51.174,160.967 51.429,160.967 51.729,161.087C51.989,161.167 52.239,161.227 52.479,161.267C52.719,161.307 52.979,161.327 53.259,161.327C53.779,161.327 54.179,161.252 54.459,161.102C54.739,160.952 54.879,160.727 54.879,160.427C54.879,160.207 54.794,160.037 54.624,159.917C54.454,159.797 54.169,159.737 53.769,159.737C53.629,159.737 53.484,159.742 53.334,159.752C53.184,159.762 53.029,159.787 52.869,159.827C52.729,159.867 52.604,159.882 52.494,159.872C52.384,159.862 52.279,159.817 52.179,159.737C52.099,159.657 52.049,159.557 52.029,159.437C52.009,159.317 52.009,159.157 52.029,158.957L52.245,157.468ZM31.715,57.985C31.512,57.972 31.322,57.879 31.187,57.727C31.052,57.574 30.984,57.374 30.996,57.171L31.1,55.516C31.126,55.093 31.491,54.771 31.914,54.797L38.431,55.204L38.574,52.918C38.6,52.495 38.965,52.173 39.388,52.2L41.49,52.331C41.913,52.357 42.235,52.722 42.209,53.145L42.066,55.43L48.583,55.837C49.007,55.863 49.329,56.228 49.302,56.651L49.199,58.306C49.186,58.509 49.093,58.699 48.941,58.834C48.788,58.968 48.588,59.037 48.385,59.024L31.715,57.985ZM70.598,66.357C70.711,66.574 70.731,66.768 70.659,66.938C70.587,67.109 70.47,67.235 70.307,67.316C70.145,67.398 69.974,67.422 69.795,67.39C69.617,67.357 69.47,67.246 69.357,67.056L67.822,64.489L66.124,66.95C65.998,67.133 65.845,67.234 65.665,67.255C65.484,67.276 65.316,67.24 65.159,67.149C65.002,67.057 64.893,66.923 64.832,66.748C64.771,66.573 64.804,66.381 64.931,66.172L66.454,63.585C66.623,63.284 66.827,63.065 67.064,62.926C67.302,62.787 67.574,62.723 67.88,62.733C68.186,62.743 68.456,62.825 68.691,62.979C68.925,63.133 69.118,63.366 69.267,63.677L70.598,66.357ZM157.485,162.695C156.128,162.726 154.933,162.453 153.902,161.878C152.87,161.302 152.063,160.478 151.479,159.406C150.896,158.334 150.588,157.067 150.555,155.603C150.53,154.499 150.667,153.5 150.966,152.608C151.265,151.716 151.704,150.947 152.282,150.302C152.86,149.656 153.561,149.155 154.385,148.796C155.209,148.438 156.133,148.248 157.157,148.224C158.528,148.193 159.726,148.463 160.75,149.032C161.775,149.601 162.579,150.418 163.162,151.484C163.745,152.549 164.054,153.813 164.087,155.277C164.112,156.381 163.975,157.383 163.675,158.282C163.376,159.18 162.938,159.956 162.36,160.608C161.782,161.26 161.082,161.765 160.258,162.123C159.434,162.481 158.509,162.672 157.485,162.695ZM157.435,160.5C158.3,160.48 159.031,160.264 159.627,159.851C160.224,159.438 160.676,158.849 160.985,158.083C161.294,157.317 161.436,156.409 161.413,155.357C161.377,153.761 160.993,152.531 160.261,151.669C159.529,150.807 158.511,150.391 157.207,150.42C156.355,150.439 155.628,150.652 155.025,151.059C154.422,151.465 153.966,152.048 153.657,152.807C153.348,153.566 153.205,154.478 153.229,155.542C153.265,157.126 153.652,158.355 154.391,159.231C155.13,160.106 156.144,160.529 157.435,160.5ZM134.447,90.036L131.392,88.862L128.943,95.238C128.727,95.8 128.447,96.105 128.103,96.153C127.697,96.212 126.886,96.008 125.67,95.541L126.251,94.029C126.671,94.191 126.919,94.28 126.994,94.297C127.319,94.358 127.525,94.277 127.61,94.054L129.224,89.852C127.571,91.327 125.567,92.223 123.213,92.54L122.572,90.985C124.947,90.811 127.001,89.821 128.735,88.016C128.929,88.312 129.176,88.706 129.475,89.199L129.834,88.264L124.994,86.405L125.586,84.862L130.427,86.721L131.39,84.214L132.948,84.812L131.984,87.32L135.039,88.493L134.447,90.036ZM172.952,129.177L169.64,129.503C169.4,129.527 169.209,129.48 169.066,129.362C168.923,129.245 168.84,129.072 168.818,128.843C168.794,128.603 168.841,128.415 168.959,128.277C169.077,128.139 169.256,128.059 169.495,128.035L174.118,127.579C174.347,127.557 174.539,127.588 174.695,127.672C174.85,127.757 174.959,127.875 175.021,128.027C175.083,128.178 175.102,128.344 175.078,128.526C175.054,128.707 174.977,128.882 174.846,129.053L171.593,134.057L175.085,133.713C175.585,133.664 175.859,133.884 175.907,134.373C175.929,134.602 175.882,134.788 175.765,134.931C175.647,135.074 175.469,135.157 175.23,135.181L170.341,135.663C170.144,135.682 169.975,135.649 169.835,135.563C169.695,135.477 169.597,135.357 169.539,135.205C169.482,135.053 169.468,134.884 169.497,134.697C169.526,134.51 169.605,134.326 169.735,134.145L172.952,129.177ZM155.229,146.85C154.843,146.859 154.538,146.759 154.314,146.551C154.089,146.343 153.973,146.04 153.964,145.641C153.955,145.255 154.058,144.953 154.273,144.735C154.487,144.517 154.788,144.404 155.174,144.395C155.573,144.386 155.881,144.486 156.099,144.694C156.317,144.902 156.43,145.199 156.439,145.585C156.448,145.984 156.348,146.292 156.14,146.51C155.932,146.728 155.628,146.841 155.229,146.85ZM64.995,73.785C65.053,74.564 65.279,75.174 65.672,75.615C66.166,76.17 66.912,76.464 67.91,76.497C68.256,76.508 68.647,76.478 69.082,76.405C69.517,76.333 69.931,76.197 70.324,75.996C70.608,75.846 70.856,75.784 71.069,75.811C71.281,75.838 71.448,75.92 71.57,76.057C71.692,76.194 71.763,76.36 71.784,76.553C71.804,76.747 71.761,76.942 71.655,77.138C71.548,77.335 71.373,77.502 71.129,77.641C70.654,77.918 70.111,78.117 69.501,78.237C68.892,78.357 68.327,78.408 67.808,78.391C66.704,78.355 65.76,78.118 64.975,77.68C64.19,77.241 63.594,76.636 63.187,75.863C62.779,75.091 62.592,74.186 62.626,73.148C62.659,72.137 62.897,71.26 63.341,70.515C63.785,69.77 64.383,69.194 65.135,68.786C65.888,68.377 66.736,68.189 67.681,68.22C68.373,68.242 68.991,68.376 69.535,68.62C70.08,68.864 70.542,69.205 70.92,69.644C71.299,70.082 71.581,70.607 71.768,71.219C71.954,71.831 72.035,72.517 72.01,73.275C72.003,73.514 71.913,73.694 71.743,73.815C71.573,73.936 71.334,73.992 71.028,73.982L64.995,73.785ZM65.048,72.349L69.95,72.508C69.941,72.026 69.867,71.611 69.729,71.263C69.563,70.845 69.314,70.52 68.982,70.29C68.65,70.059 68.231,69.935 67.725,69.919C67.167,69.901 66.687,70.015 66.286,70.262C65.885,70.508 65.574,70.864 65.352,71.33C65.209,71.63 65.108,71.97 65.048,72.349ZM33.791,113.298L33.004,115.165C31.832,113.957 30.784,113.126 29.858,112.67L30.538,110.823C31.646,111.381 32.731,112.206 33.791,113.298ZM159.002,146.765C158.602,146.774 158.294,146.674 158.076,146.466C157.858,146.258 157.745,145.955 157.736,145.555C157.727,145.169 157.827,144.868 158.035,144.65C158.243,144.432 158.547,144.319 158.946,144.31C159.332,144.301 159.634,144.401 159.851,144.609C160.069,144.817 160.182,145.114 160.191,145.5C160.2,145.899 160.104,146.207 159.903,146.425C159.701,146.643 159.401,146.756 159.002,146.765ZM117.864,167.795C117.591,167.915 117.272,167.848 117.071,167.628C116.407,166.882 115.823,165.969 115.318,164.889C114.728,163.626 114.388,162.512 114.296,161.547C113.499,161.985 112.434,162.25 111.103,162.345C109.944,162.428 108.821,162.363 107.734,162.151C107.446,162.093 107.226,161.86 107.184,161.569C107.136,161.244 107.072,160.801 107.013,160.391C106.98,160.157 107.067,159.922 107.245,159.767C107.423,159.612 107.667,159.557 107.894,159.623C109.238,160.011 110.519,160.069 111.737,159.803C113.265,159.469 114.266,158.895 114.742,158.081L114.944,157.736L110.996,155.428C110.665,155.235 110.553,154.812 110.743,154.48L111.243,153.608C111.336,153.447 111.489,153.33 111.668,153.282C111.848,153.234 112.039,153.26 112.199,153.354L122.428,159.335C122.588,159.428 122.704,159.581 122.751,159.759C122.797,159.938 122.771,160.128 122.678,160.287L122.171,161.155C121.977,161.487 121.55,161.599 121.218,161.405L117.308,159.119L117.107,159.464C116.644,160.255 116.637,161.401 117.085,162.901C117.446,164.111 118.122,165.215 119.112,166.213C119.274,166.374 119.345,166.605 119.303,166.829C119.26,167.053 119.11,167.242 118.901,167.333C118.544,167.496 118.154,167.668 117.864,167.795ZM81.223,161.815C80.95,161.68 80.775,161.497 80.695,161.267C80.616,161.037 80.687,160.76 80.909,160.436C81.147,160.075 81.425,159.736 81.743,159.419C82.061,159.103 82.417,158.84 82.81,158.631C83.204,158.423 83.628,158.298 84.083,158.257C84.538,158.217 85.017,158.301 85.522,158.511C85.988,158.705 86.36,158.97 86.637,159.304C86.914,159.638 87.152,159.989 87.35,160.356C87.547,160.723 87.757,161.062 87.978,161.373C88.199,161.684 88.487,161.913 88.842,162.061C89.234,162.224 89.631,162.23 90.033,162.08C90.435,161.93 90.759,161.665 91.004,161.285C91.127,161.095 91.291,160.977 91.496,160.931C91.702,160.885 91.95,160.934 92.241,161.077C92.513,161.212 92.689,161.395 92.768,161.625C92.848,161.855 92.777,162.132 92.554,162.456C92.251,162.921 91.864,163.351 91.393,163.747C90.922,164.142 90.397,164.416 89.818,164.57C89.24,164.724 88.614,164.66 87.942,164.381C87.475,164.187 87.103,163.922 86.826,163.588C86.549,163.254 86.307,162.901 86.1,162.53C85.893,162.159 85.679,161.818 85.458,161.507C85.237,161.196 84.958,160.971 84.622,160.831C84.23,160.668 83.839,160.659 83.451,160.804C83.062,160.948 82.731,161.216 82.459,161.607C82.337,161.797 82.172,161.914 81.967,161.96C81.762,162.006 81.514,161.958 81.223,161.815ZM32.517,119.721C32.524,120.832 32.186,121.763 31.502,122.515C30.766,123.32 29.787,123.726 28.566,123.734C27.974,123.738 27.35,123.644 26.692,123.454L27.313,121.509C27.737,121.715 28.16,121.816 28.582,121.813C29.154,121.809 29.618,121.624 29.973,121.258C30.367,120.859 30.561,120.302 30.556,119.587C30.553,119.087 30.388,118.687 30.061,118.386C29.734,118.086 29.278,117.938 28.693,117.942C27.589,117.949 26.492,118.259 25.404,118.87C25.415,119.527 25.411,120.411 25.393,121.522C25.279,123.07 24.716,123.847 23.702,123.853C22.116,123.864 21.098,123.253 20.648,122.021C20.556,121.762 20.508,121.392 20.504,120.911C20.501,120.417 20.751,119.879 21.254,119.297C21.796,118.67 22.524,118.126 23.437,117.665L23.414,114.087C22.816,114.117 21.889,113.983 20.633,113.686L20.619,111.61C21.57,111.896 22.497,112.056 23.4,112.089L23.377,108.56L25.337,108.547L25.36,112.076C26.529,112.042 27.552,111.883 28.427,111.597L28.441,113.674C26.928,113.924 25.906,114.051 25.373,114.055L25.391,116.833C26.7,116.304 27.976,116.036 29.217,116.028C30.172,116.022 30.951,116.338 31.553,116.978C32.188,117.649 32.509,118.564 32.517,119.721ZM23.451,119.78C22.726,120.181 22.365,120.687 22.369,121.298C22.37,121.493 22.449,121.657 22.606,121.789C22.763,121.921 22.936,121.987 23.124,121.985C23.371,121.984 23.48,121.249 23.451,119.78ZM39.389,68.893C37.273,68.762 35.577,68.225 34.301,67.283C33.025,66.341 32.433,65.146 32.523,63.7C32.611,62.28 33.316,61.173 34.636,60.38C35.957,59.586 37.747,59.26 40.008,59.401C42.142,59.534 43.836,60.091 45.091,61.072C46.346,62.054 46.931,63.227 46.846,64.593C46.755,66.058 46.029,67.174 44.67,67.943C43.31,68.711 41.55,69.028 39.389,68.893ZM39.783,62.559C37.432,62.413 36.224,62.868 36.158,63.926C36.13,64.369 36.406,64.754 36.985,65.081C37.563,65.407 38.432,65.607 39.589,65.679C41.94,65.825 43.147,65.388 43.211,64.366C43.277,63.308 42.135,62.706 39.783,62.559Z" style="fill:#8b8b8b;fill-opacity:0.5;"/>
                    </g>
                    <g>
                        <g transform="matrix(0.359185,-0.0916385,0.0910483,0.356872,-124.146,124.347)">
                            <path d="M368.928,-92.497C399.235,-91.661 423.823,-107.277 453.75,-97.538L453.75,-29.836C417.851,-42.079 384.632,-17.694 352.635,-28.223L368.928,-92.497ZM363.736,-58.811C375.279,-49.831 387.993,-42.236 401.474,-35.551C413.899,-47.179 426.43,-58.096 439.311,-66.682C427.554,-75.977 414.827,-83.53 401.474,-89.957C389.734,-78.609 377.072,-68.323 363.736,-58.811ZM416.177,-59.489C413.592,-51.306 406.369,-45.113 398.807,-45.113C390.243,-45.113 384.467,-53.055 385.917,-62.837C387.367,-72.619 395.497,-80.561 404.061,-80.561C412.624,-80.561 418.4,-72.619 416.95,-62.837C416.918,-62.62 416.883,-62.404 416.844,-62.189C408.209,-68.969 398.443,-71.09 387.438,-68.109C387.041,-67.166 386.706,-66.19 386.441,-65.187C397.12,-67.767 407.128,-66.424 416.177,-59.489Z" style="fill:#8b8b8b;fill-opacity:0.5;"/>
                        </g>
                        <g transform="matrix(0.61297,-0.0861473,0.086942,0.618625,-265.733,393.399)">
                            <g transform="matrix(1.00648,0,0,1,121.848,-248.034)">
                                <path d="M357.717,-93.587C393.394,-87.535 420.221,-108.449 453.75,-97.538L453.75,-29.836C428.897,-38.311 405.329,-29.233 382.562,-26.336L356,-30.059C352.758,-30.514 350.327,-33.07 349.899,-36.153L349.899,-38.107C349.9,-38.115 349.901,-38.122 349.902,-38.13L357.717,-93.587ZM359.705,-67.107L365.04,-70.666L369.88,-66.357L367.926,-72.82L372.61,-77.16L366.84,-77.316L365.04,-83.81L362.9,-77.441L357.006,-78.555L361.846,-73.288L359.705,-67.107Z" style="fill:#8b8b8b;fill-opacity:0.5;"/>
                            </g>
                            <g transform="matrix(1.00648,0,0,1,121.848,-248.034)">
                                <path d="M357.717,-93.587C393.394,-87.535 420.221,-108.449 453.75,-97.538L453.75,-60.689C417.929,-72.905 384.777,-48.653 352.844,-59.008L357.717,-93.587ZM359.705,-67.107L365.04,-70.666L369.88,-66.357L367.926,-72.82L372.61,-77.16L366.84,-77.316L365.04,-83.81L362.9,-77.441L357.006,-78.555L361.846,-73.288L359.705,-67.107Z" style="fill:#cacaca;fill-opacity:0.5;"/>
                            </g>
                            <g transform="matrix(1.00648,0,0,1,121.848,-248.034)">
                                <path d="M357.717,-93.587C365.58,-92.253 373.013,-92.229 380.182,-92.886L380.182,-56.91C370.951,-55.92 361.849,-56.088 352.844,-59.008L357.717,-93.587ZM359.705,-67.107L365.04,-70.666L369.88,-66.357L367.926,-72.82L372.61,-77.16L366.84,-77.316L365.04,-83.81L362.9,-77.441L357.006,-78.555L361.846,-73.288L359.705,-67.107Z" style="fill:#6b6b6b;fill-opacity:0.5;"/>
                            </g>
                        </g>
                        <g transform="matrix(0.455802,0.148979,-0.148245,0.453555,49.2801,-0.633359)">
                            <path d="M453.75,-60.337L453.75,-29.836C416.826,-42.428 382.739,-16.272 349.899,-29.212L349.899,-95.327C384.675,-85.726 410.661,-103.632 440.741,-100.336L453.75,-60.337ZM404.903,-83.785C394.938,-83.785 385.479,-74.545 383.792,-63.163C382.105,-51.781 388.825,-42.541 398.79,-42.541C408.754,-42.541 418.214,-51.781 419.901,-63.163C421.588,-74.545 414.867,-83.785 404.903,-83.785Z" style="fill:#8b8b8b;fill-opacity:0.5;"/>
                        </g>
                        <g transform="matrix(0.478326,0.0969166,-0.0969166,0.478326,24.2848,147.22)">
                            <g transform="matrix(1.00648,0,0,1,-2.26786,0)">
                                <path d="M383.395,-26.445L383.395,-93.225C395.91,-94.719 407.683,-98.036 419.629,-99.721L419.629,-32.631C407.288,-31.197 395.233,-28.026 383.395,-26.445Z" style="fill:#8a8a8a;fill-opacity:0.5;"/>
                            </g>
                            <g transform="matrix(1.00648,0,0,1,-2.26786,5.68434e-14)">
                                <path d="M419.629,-32.631L419.629,-99.721C430.62,-101.272 441.756,-101.441 453.75,-97.538L453.75,-29.836C442.111,-33.805 430.754,-33.924 419.629,-32.631Z" style="fill:#6b6b6b;fill-opacity:0.72;"/>
                            </g>
                            <g transform="matrix(1.00648,0,0,1,-2.26786,5.68434e-14)">
                                <path d="M383.395,-93.225L383.395,-26.445C372.049,-24.93 360.904,-24.876 349.899,-29.212L349.899,-95.327C361.94,-92.003 372.927,-91.976 383.395,-93.225Z" style="fill:#6b6b6b;fill-opacity:0.5;"/>
                            </g>
                        </g>
                        <g transform="matrix(0.511594,-0.0520875,0.0520875,0.511594,-78.8316,70.2878)">
                            <g transform="matrix(1.00648,0,0,1,-2.26786,0)">
                                <path d="M453.75,-91.256L453.75,-75.657C417.817,-87.35 389.581,-62.49 349.899,-73.445L349.899,-95.327C369.38,-89.948 386.102,-93.202 402.331,-96.525L453.75,-91.256Z" style="fill:#6b6b6b;fill-opacity:0.75;"/>
                            </g>
                            <g transform="matrix(1.00648,0,0,1,-2.26786,0)">
                                <path d="M453.75,-51.561C417.817,-63.254 389.581,-38.395 349.899,-49.35L349.899,-73.445C389.581,-62.49 417.817,-87.35 453.75,-75.657L453.75,-51.561Z" style="fill:#8a8a8a;fill-opacity:0.5;"/>
                            </g>
                            <g transform="matrix(1.00648,0,0,1,-2.26786,0)">
                                <path d="M453.75,-51.561L453.75,-29.836C416.826,-42.428 382.739,-16.272 349.899,-29.212L349.899,-49.35C389.581,-38.395 417.817,-63.254 453.75,-51.561Z" style="fill:#878787;fill-opacity:0.25;"/>
                            </g>
                        </g>
                    </g>
                </g>
            </g>
        </g>
    </g>
    <defs>
        <radialGradient id="_Radial1" cx="0" cy="0" r="1" gradientUnits="userSpaceOnUse" gradientTransform="matrix(8.11639e-15,132.55,-132.55,8.11639e-15,132.495,89.9656)"><stop offset="0" style="stop-color:#bebebe;stop-opacity:1"/><stop offset="1" style="stop-color:#a0a0a0;stop-opacity:1"/></radialGradient>
    </defs>
</svg>
